<?xml version="1.0" encoding="utf-8" standalone="no"?>
<!DOCTYPE svg PUBLIC "-//W3C//DTD SVG 1.1//EN"
  "http://www.w3.org/Graphics/SVG/1.1/DTD/svg11.dtd">
<!-- Created with matplotlib (http://matplotlib.org/) -->
<svg height="300pt" version="1.1" viewBox="0 0 426 300" width="426pt" xmlns="http://www.w3.org/2000/svg" xmlns:xlink="http://www.w3.org/1999/xlink">
 <defs>
  <style type="text/css">
*{stroke-linecap:butt;stroke-linejoin:round;}
  </style>
 </defs>
 <g id="figure_1">
  <g id="patch_1">
   <path d="M 0 300.904466 
L 426.5575 300.904466 
L 426.5575 0 
L 0 0 
z
" style="fill:#ffffff;"/>
  </g>
  <g id="axes_1">
   <g id="patch_2">
    <path d="M 58.7375 277.026341 
L 415.8575 277.026341 
L 415.8575 10.914341 
L 58.7375 10.914341 
z
" style="fill:#ffffff;"/>
   </g>
   <g id="matplotlib.axis_1">
    <g id="xtick_1">
     <g id="line2d_1">
      <defs>
       <path d="M 0 0 
L 0 3.5 
" id="m0257161a89" style="stroke:#000000;stroke-width:0.8;"/>
      </defs>
      <g>
       <use style="stroke:#000000;stroke-width:0.8;" x="74.970227" xlink:href="#m0257161a89" y="277.026341"/>
      </g>
     </g>
     <g id="text_1">
      <!-- 0 -->
      <defs>
       <path d="M 31.78125 66.40625 
Q 24.171875 66.40625 20.328125 58.90625 
Q 16.5 51.421875 16.5 36.375 
Q 16.5 21.390625 20.328125 13.890625 
Q 24.171875 6.390625 31.78125 6.390625 
Q 39.453125 6.390625 43.28125 13.890625 
Q 47.125 21.390625 47.125 36.375 
Q 47.125 51.421875 43.28125 58.90625 
Q 39.453125 66.40625 31.78125 66.40625 
M 31.78125 74.21875 
Q 44.046875 74.21875 50.515625 64.515625 
Q 56.984375 54.828125 56.984375 36.375 
Q 56.984375 17.96875 50.515625 8.265625 
Q 44.046875 -1.421875 31.78125 -1.421875 
Q 19.53125 -1.421875 13.0625 8.265625 
Q 6.59375 17.96875 6.59375 36.375 
Q 6.59375 54.828125 13.0625 64.515625 
Q 19.53125 74.21875 31.78125 74.21875 
" id="DejaVuSans-30"/>
      </defs>
      <g transform="translate(71.788977 291.624778)scale(0.1 -0.1)">
       <use xlink:href="#DejaVuSans-30"/>
      </g>
     </g>
    </g>
    <g id="xtick_2">
     <g id="line2d_2">
      <g>
       <use style="stroke:#000000;stroke-width:0.8;" x="118.606591" xlink:href="#m0257161a89" y="277.026341"/>
      </g>
     </g>
     <g id="text_2">
      <!-- 25 -->
      <defs>
       <path d="M 19.1875 8.296875 
L 53.609375 8.296875 
L 53.609375 0 
L 7.328125 0 
L 7.328125 8.296875 
Q 12.9375 14.109375 22.625 23.890625 
Q 32.328125 33.6875 34.8125 36.53125 
Q 39.546875 41.84375 41.421875 45.53125 
Q 43.3125 49.21875 43.3125 52.78125 
Q 43.3125 58.59375 39.234375 62.25 
Q 35.15625 65.921875 28.609375 65.921875 
Q 23.96875 65.921875 18.8125 64.3125 
Q 13.671875 62.703125 7.8125 59.421875 
L 7.8125 69.390625 
Q 13.765625 71.78125 18.9375 73 
Q 24.125 74.21875 28.421875 74.21875 
Q 39.75 74.21875 46.484375 68.546875 
Q 53.21875 62.890625 53.21875 53.421875 
Q 53.21875 48.921875 51.53125 44.890625 
Q 49.859375 40.875 45.40625 35.40625 
Q 44.1875 33.984375 37.640625 27.21875 
Q 31.109375 20.453125 19.1875 8.296875 
" id="DejaVuSans-32"/>
       <path d="M 10.796875 72.90625 
L 49.515625 72.90625 
L 49.515625 64.59375 
L 19.828125 64.59375 
L 19.828125 46.734375 
Q 21.96875 47.46875 24.109375 47.828125 
Q 26.265625 48.1875 28.421875 48.1875 
Q 40.625 48.1875 47.75 41.5 
Q 54.890625 34.8125 54.890625 23.390625 
Q 54.890625 11.625 47.5625 5.09375 
Q 40.234375 -1.421875 26.90625 -1.421875 
Q 22.3125 -1.421875 17.546875 -0.640625 
Q 12.796875 0.140625 7.71875 1.703125 
L 7.71875 11.625 
Q 12.109375 9.234375 16.796875 8.0625 
Q 21.484375 6.890625 26.703125 6.890625 
Q 35.15625 6.890625 40.078125 11.328125 
Q 45.015625 15.765625 45.015625 23.390625 
Q 45.015625 31 40.078125 35.4375 
Q 35.15625 39.890625 26.703125 39.890625 
Q 22.75 39.890625 18.8125 39.015625 
Q 14.890625 38.140625 10.796875 36.28125 
z
" id="DejaVuSans-35"/>
      </defs>
      <g transform="translate(112.244091 291.624778)scale(0.1 -0.1)">
       <use xlink:href="#DejaVuSans-32"/>
       <use x="63.623047" xlink:href="#DejaVuSans-35"/>
      </g>
     </g>
    </g>
    <g id="xtick_3">
     <g id="line2d_3">
      <g>
       <use style="stroke:#000000;stroke-width:0.8;" x="162.242955" xlink:href="#m0257161a89" y="277.026341"/>
      </g>
     </g>
     <g id="text_3">
      <!-- 50 -->
      <g transform="translate(155.880455 291.624778)scale(0.1 -0.1)">
       <use xlink:href="#DejaVuSans-35"/>
       <use x="63.623047" xlink:href="#DejaVuSans-30"/>
      </g>
     </g>
    </g>
    <g id="xtick_4">
     <g id="line2d_4">
      <g>
       <use style="stroke:#000000;stroke-width:0.8;" x="205.879318" xlink:href="#m0257161a89" y="277.026341"/>
      </g>
     </g>
     <g id="text_4">
      <!-- 75 -->
      <defs>
       <path d="M 8.203125 72.90625 
L 55.078125 72.90625 
L 55.078125 68.703125 
L 28.609375 0 
L 18.3125 0 
L 43.21875 64.59375 
L 8.203125 64.59375 
z
" id="DejaVuSans-37"/>
      </defs>
      <g transform="translate(199.516818 291.624778)scale(0.1 -0.1)">
       <use xlink:href="#DejaVuSans-37"/>
       <use x="63.623047" xlink:href="#DejaVuSans-35"/>
      </g>
     </g>
    </g>
    <g id="xtick_5">
     <g id="line2d_5">
      <g>
       <use style="stroke:#000000;stroke-width:0.8;" x="249.515682" xlink:href="#m0257161a89" y="277.026341"/>
      </g>
     </g>
     <g id="text_5">
      <!-- 100 -->
      <defs>
       <path d="M 12.40625 8.296875 
L 28.515625 8.296875 
L 28.515625 63.921875 
L 10.984375 60.40625 
L 10.984375 69.390625 
L 28.421875 72.90625 
L 38.28125 72.90625 
L 38.28125 8.296875 
L 54.390625 8.296875 
L 54.390625 0 
L 12.40625 0 
z
" id="DejaVuSans-31"/>
      </defs>
      <g transform="translate(239.971932 291.624778)scale(0.1 -0.1)">
       <use xlink:href="#DejaVuSans-31"/>
       <use x="63.623047" xlink:href="#DejaVuSans-30"/>
       <use x="127.246094" xlink:href="#DejaVuSans-30"/>
      </g>
     </g>
    </g>
    <g id="xtick_6">
     <g id="line2d_6">
      <g>
       <use style="stroke:#000000;stroke-width:0.8;" x="293.152045" xlink:href="#m0257161a89" y="277.026341"/>
      </g>
     </g>
     <g id="text_6">
      <!-- 125 -->
      <g transform="translate(283.608295 291.624778)scale(0.1 -0.1)">
       <use xlink:href="#DejaVuSans-31"/>
       <use x="63.623047" xlink:href="#DejaVuSans-32"/>
       <use x="127.246094" xlink:href="#DejaVuSans-35"/>
      </g>
     </g>
    </g>
    <g id="xtick_7">
     <g id="line2d_7">
      <g>
       <use style="stroke:#000000;stroke-width:0.8;" x="336.788409" xlink:href="#m0257161a89" y="277.026341"/>
      </g>
     </g>
     <g id="text_7">
      <!-- 150 -->
      <g transform="translate(327.244659 291.624778)scale(0.1 -0.1)">
       <use xlink:href="#DejaVuSans-31"/>
       <use x="63.623047" xlink:href="#DejaVuSans-35"/>
       <use x="127.246094" xlink:href="#DejaVuSans-30"/>
      </g>
     </g>
    </g>
    <g id="xtick_8">
     <g id="line2d_8">
      <g>
       <use style="stroke:#000000;stroke-width:0.8;" x="380.424773" xlink:href="#m0257161a89" y="277.026341"/>
      </g>
     </g>
     <g id="text_8">
      <!-- 175 -->
      <g transform="translate(370.881023 291.624778)scale(0.1 -0.1)">
       <use xlink:href="#DejaVuSans-31"/>
       <use x="63.623047" xlink:href="#DejaVuSans-37"/>
       <use x="127.246094" xlink:href="#DejaVuSans-35"/>
      </g>
     </g>
    </g>
   </g>
   <g id="matplotlib.axis_2">
    <g id="ytick_1">
     <g id="line2d_9">
      <defs>
       <path d="M 0 0 
L -3.5 0 
" id="m0ba1054bc0" style="stroke:#000000;stroke-width:0.8;"/>
      </defs>
      <g>
       <use style="stroke:#000000;stroke-width:0.8;" x="58.7375" xlink:href="#m0ba1054bc0" y="264.757109"/>
      </g>
     </g>
     <g id="text_9">
      <!-- 0 -->
      <g transform="translate(45.375 268.556328)scale(0.1 -0.1)">
       <use xlink:href="#DejaVuSans-30"/>
      </g>
     </g>
    </g>
    <g id="ytick_2">
     <g id="line2d_10">
      <g>
       <use style="stroke:#000000;stroke-width:0.8;" x="58.7375" xlink:href="#m0ba1054bc0" y="222.464127"/>
      </g>
     </g>
     <g id="text_10">
      <!-- 500000 -->
      <g transform="translate(13.5625 226.263346)scale(0.1 -0.1)">
       <use xlink:href="#DejaVuSans-35"/>
       <use x="63.623047" xlink:href="#DejaVuSans-30"/>
       <use x="127.246094" xlink:href="#DejaVuSans-30"/>
       <use x="190.869141" xlink:href="#DejaVuSans-30"/>
       <use x="254.492188" xlink:href="#DejaVuSans-30"/>
       <use x="318.115234" xlink:href="#DejaVuSans-30"/>
      </g>
     </g>
    </g>
    <g id="ytick_3">
     <g id="line2d_11">
      <g>
       <use style="stroke:#000000;stroke-width:0.8;" x="58.7375" xlink:href="#m0ba1054bc0" y="180.171146"/>
      </g>
     </g>
     <g id="text_11">
      <!-- 1000000 -->
      <g transform="translate(7.2 183.970364)scale(0.1 -0.1)">
       <use xlink:href="#DejaVuSans-31"/>
       <use x="63.623047" xlink:href="#DejaVuSans-30"/>
       <use x="127.246094" xlink:href="#DejaVuSans-30"/>
       <use x="190.869141" xlink:href="#DejaVuSans-30"/>
       <use x="254.492188" xlink:href="#DejaVuSans-30"/>
       <use x="318.115234" xlink:href="#DejaVuSans-30"/>
       <use x="381.738281" xlink:href="#DejaVuSans-30"/>
      </g>
     </g>
    </g>
    <g id="ytick_4">
     <g id="line2d_12">
      <g>
       <use style="stroke:#000000;stroke-width:0.8;" x="58.7375" xlink:href="#m0ba1054bc0" y="137.878164"/>
      </g>
     </g>
     <g id="text_12">
      <!-- 1500000 -->
      <g transform="translate(7.2 141.677383)scale(0.1 -0.1)">
       <use xlink:href="#DejaVuSans-31"/>
       <use x="63.623047" xlink:href="#DejaVuSans-35"/>
       <use x="127.246094" xlink:href="#DejaVuSans-30"/>
       <use x="190.869141" xlink:href="#DejaVuSans-30"/>
       <use x="254.492188" xlink:href="#DejaVuSans-30"/>
       <use x="318.115234" xlink:href="#DejaVuSans-30"/>
       <use x="381.738281" xlink:href="#DejaVuSans-30"/>
      </g>
     </g>
    </g>
    <g id="ytick_5">
     <g id="line2d_13">
      <g>
       <use style="stroke:#000000;stroke-width:0.8;" x="58.7375" xlink:href="#m0ba1054bc0" y="95.585182"/>
      </g>
     </g>
     <g id="text_13">
      <!-- 2000000 -->
      <g transform="translate(7.2 99.384401)scale(0.1 -0.1)">
       <use xlink:href="#DejaVuSans-32"/>
       <use x="63.623047" xlink:href="#DejaVuSans-30"/>
       <use x="127.246094" xlink:href="#DejaVuSans-30"/>
       <use x="190.869141" xlink:href="#DejaVuSans-30"/>
       <use x="254.492188" xlink:href="#DejaVuSans-30"/>
       <use x="318.115234" xlink:href="#DejaVuSans-30"/>
       <use x="381.738281" xlink:href="#DejaVuSans-30"/>
      </g>
     </g>
    </g>
    <g id="ytick_6">
     <g id="line2d_14">
      <g>
       <use style="stroke:#000000;stroke-width:0.8;" x="58.7375" xlink:href="#m0ba1054bc0" y="53.2922"/>
      </g>
     </g>
     <g id="text_14">
      <!-- 2500000 -->
      <g transform="translate(7.2 57.091419)scale(0.1 -0.1)">
       <use xlink:href="#DejaVuSans-32"/>
       <use x="63.623047" xlink:href="#DejaVuSans-35"/>
       <use x="127.246094" xlink:href="#DejaVuSans-30"/>
       <use x="190.869141" xlink:href="#DejaVuSans-30"/>
       <use x="254.492188" xlink:href="#DejaVuSans-30"/>
       <use x="318.115234" xlink:href="#DejaVuSans-30"/>
       <use x="381.738281" xlink:href="#DejaVuSans-30"/>
      </g>
     </g>
    </g>
    <g id="ytick_7">
     <g id="line2d_15">
      <g>
       <use style="stroke:#000000;stroke-width:0.8;" x="58.7375" xlink:href="#m0ba1054bc0" y="10.999219"/>
      </g>
     </g>
     <g id="text_15">
      <!-- 3000000 -->
      <defs>
       <path d="M 40.578125 39.3125 
Q 47.65625 37.796875 51.625 33 
Q 55.609375 28.21875 55.609375 21.1875 
Q 55.609375 10.40625 48.1875 4.484375 
Q 40.765625 -1.421875 27.09375 -1.421875 
Q 22.515625 -1.421875 17.65625 -0.515625 
Q 12.796875 0.390625 7.625 2.203125 
L 7.625 11.71875 
Q 11.71875 9.328125 16.59375 8.109375 
Q 21.484375 6.890625 26.8125 6.890625 
Q 36.078125 6.890625 40.9375 10.546875 
Q 45.796875 14.203125 45.796875 21.1875 
Q 45.796875 27.640625 41.28125 31.265625 
Q 36.765625 34.90625 28.71875 34.90625 
L 20.21875 34.90625 
L 20.21875 43.015625 
L 29.109375 43.015625 
Q 36.375 43.015625 40.234375 45.921875 
Q 44.09375 48.828125 44.09375 54.296875 
Q 44.09375 59.90625 40.109375 62.90625 
Q 36.140625 65.921875 28.71875 65.921875 
Q 24.65625 65.921875 20.015625 65.03125 
Q 15.375 64.15625 9.8125 62.3125 
L 9.8125 71.09375 
Q 15.4375 72.65625 20.34375 73.4375 
Q 25.25 74.21875 29.59375 74.21875 
Q 40.828125 74.21875 47.359375 69.109375 
Q 53.90625 64.015625 53.90625 55.328125 
Q 53.90625 49.265625 50.4375 45.09375 
Q 46.96875 40.921875 40.578125 39.3125 
" id="DejaVuSans-33"/>
      </defs>
      <g transform="translate(7.2 14.798437)scale(0.1 -0.1)">
       <use xlink:href="#DejaVuSans-33"/>
       <use x="63.623047" xlink:href="#DejaVuSans-30"/>
       <use x="127.246094" xlink:href="#DejaVuSans-30"/>
       <use x="190.869141" xlink:href="#DejaVuSans-30"/>
       <use x="254.492188" xlink:href="#DejaVuSans-30"/>
       <use x="318.115234" xlink:href="#DejaVuSans-30"/>
       <use x="381.738281" xlink:href="#DejaVuSans-30"/>
      </g>
     </g>
    </g>
   </g>
   <g id="line2d_16">
    <path clip-path="url(#p23039fbb28)" d="M 74.970227 217.142824 
L 76.715682 262.758935 
L 78.461136 259.740569 
L 80.206591 250.626178 
L 81.952045 148.064851 
L 83.6975 261.719035 
L 85.442955 245.11904 
L 87.188409 261.256773 
L 88.933864 259.608446 
L 90.679318 232.438589 
L 92.424773 258.214385 
L 94.170227 215.742927 
L 95.915682 255.660058 
L 97.661136 237.092677 
L 99.406591 264.302967 
L 101.152045 243.417677 
L 102.8975 259.850023 
L 104.642955 220.385766 
L 106.388409 248.401482 
L 108.133864 254.278515 
L 109.879318 251.379839 
L 111.624773 263.347145 
L 113.370227 260.048293 
L 115.115682 193.266237 
L 116.861136 261.329178 
L 118.606591 234.378737 
L 120.352045 152.976843 
L 122.0975 263.721015 
L 123.842955 254.956049 
L 125.588409 121.2533 
L 127.333864 200.331702 
L 129.079318 163.59272 
L 130.824773 101.958312 
L 132.570227 209.121199 
L 134.315682 201.421762 
L 136.061136 178.677188 
L 137.806591 148.21423 
L 139.552045 178.530939 
L 141.2975 137.780805 
L 143.042955 201.851289 
L 144.788409 208.953634 
L 146.533864 224.301165 
L 148.279318 215.074444 
L 150.024773 161.830371 
L 151.770227 35.180908 
L 153.515682 188.310514 
L 155.261136 214.078951 
L 157.006591 23.010341 
L 158.752045 165.141658 
L 160.4975 87.1534 
L 162.242955 220.192064 
L 163.988409 164.934761 
L 165.733864 203.823749 
L 167.479318 208.226702 
L 169.224773 257.354061 
L 170.970227 260.832659 
L 172.715682 234.034557 
L 174.461136 171.017083 
L 176.206591 173.836756 
L 177.952045 173.101451 
L 179.6975 201.177985 
L 181.442955 189.261684 
L 183.188409 109.425814 
L 184.933864 256.350364 
L 186.679318 155.207544 
L 188.424773 183.858671 
L 190.170227 253.19683 
L 191.915682 229.874534 
L 193.661136 256.869891 
L 195.406591 197.387096 
L 197.152045 257.673373 
L 198.8975 256.993555 
L 200.642955 251.377809 
L 202.388409 262.40951 
L 204.133864 257.36954 
L 205.879318 255.861711 
L 207.624773 250.97002 
L 209.370227 154.591927 
L 211.115682 257.514774 
L 212.861136 219.805421 
L 214.606591 254.249248 
L 216.352045 255.120907 
L 218.0975 159.958907 
L 219.842955 237.365721 
L 221.588409 261.650351 
L 223.333864 261.782051 
L 225.079318 252.357483 
L 226.824773 250.242158 
L 228.570227 259.446125 
L 230.315682 185.669825 
L 232.061136 241.261412 
L 233.806591 237.565513 
L 235.552045 256.114538 
L 237.2975 252.091461 
L 239.042955 222.502868 
L 240.788409 233.764981 
L 242.533864 227.247041 
L 244.279318 257.572377 
L 246.024773 263.861005 
L 247.770227 255.635274 
L 249.515682 91.58951 
L 251.261136 220.118981 
L 253.006591 262.009165 
L 254.752045 240.01047 
L 256.4975 261.429751 
L 258.242955 235.177144 
L 259.988409 221.282546 
L 261.733864 246.166637 
L 263.479318 253.959288 
L 265.224773 264.215759 
L 266.970227 257.51655 
L 268.715682 256.446284 
L 270.461136 233.808712 
L 272.206591 199.939224 
L 273.952045 182.786628 
L 275.6975 259.771274 
L 277.442955 248.520833 
L 279.188409 242.758245 
L 280.933864 254.322669 
L 282.679318 257.822244 
L 284.424773 248.307085 
L 286.170227 255.635359 
L 287.915682 241.965844 
L 289.661136 241.916277 
L 291.406591 236.66205 
L 293.152045 233.606975 
L 294.8975 256.009398 
L 296.642955 244.314881 
L 298.388409 213.523475 
L 300.133864 257.263808 
L 301.879318 249.155735 
L 303.624773 246.33344 
L 305.370227 255.232729 
L 307.115682 262.681369 
L 308.861136 263.08273 
L 310.606591 256.972155 
L 312.352045 258.900884 
L 314.0975 257.221599 
L 315.842955 263.105145 
L 317.588409 239.58052 
L 319.333864 207.274603 
L 321.079318 242.694298 
L 322.824773 263.448141 
L 324.570227 262.929968 
L 326.315682 255.427446 
L 328.061136 202.899732 
L 329.806591 259.865249 
L 331.552045 257.234372 
L 333.2975 229.784619 
L 335.042955 252.386412 
L 336.788409 262.10813 
L 338.533864 163.940453 
L 340.279318 222.411938 
L 342.024773 245.353512 
L 343.770227 255.878459 
L 345.515682 262.054672 
L 347.261136 250.84238 
L 349.006591 257.691136 
L 350.752045 178.677696 
L 352.4975 240.296286 
L 354.242955 244.759042 
L 355.988409 235.58028 
L 357.733864 263.99905 
L 359.479318 229.353231 
L 361.224773 264.301444 
L 362.970227 257.152831 
L 364.715682 262.915757 
L 366.461136 256.443324 
L 368.206591 259.171729 
L 369.952045 215.464808 
L 371.6975 257.761258 
L 373.442955 220.38585 
L 375.188409 214.998908 
L 376.933864 243.654687 
L 378.679318 247.268876 
L 380.424773 228.624608 
L 382.170227 165.991578 
L 383.915682 149.724766 
L 385.661136 184.609371 
L 387.406591 247.82596 
L 389.152045 252.348686 
L 390.8975 253.852625 
L 392.642955 226.992944 
L 394.388409 221.805879 
L 396.133864 249.093903 
L 397.879318 191.385468 
L 399.624773 137.956068 
L 399.624773 137.956068 
" style="fill:none;stroke:#1f77b4;stroke-linecap:square;stroke-width:1.5;"/>
   </g>
   <g id="line2d_17">
    <path clip-path="url(#p23039fbb28)" d="M 74.970227 223.502589 
L 76.715682 263.811269 
L 78.461136 263.516656 
L 80.206591 263.801203 
L 81.952045 250.700952 
L 83.6975 264.004632 
L 85.442955 263.946352 
L 87.188409 264.51883 
L 88.933864 263.241159 
L 90.679318 242.021417 
L 92.424773 259.367968 
L 94.170227 262.194915 
L 95.915682 260.255613 
L 97.661136 260.691231 
L 99.406591 264.659158 
L 101.152045 256.153701 
L 102.8975 262.505938 
L 104.642955 253.225335 
L 106.388409 254.433138 
L 108.133864 262.885898 
L 109.879318 263.873778 
L 111.624773 264.619488 
L 113.370227 263.001104 
L 115.115682 258.83237 
L 116.861136 263.32177 
L 118.606591 258.000636 
L 120.352045 252.093744 
L 122.0975 262.973022 
L 123.842955 262.698709 
L 125.588409 246.876059 
L 127.333864 253.928245 
L 129.079318 239.973252 
L 130.824773 244.664898 
L 132.570227 242.063118 
L 134.315682 261.012404 
L 136.061136 255.471939 
L 137.806591 259.054323 
L 139.552045 255.076245 
L 141.2975 253.36321 
L 143.042955 234.491405 
L 144.788409 263.217983 
L 146.533864 261.197055 
L 148.279318 257.093621 
L 150.024773 253.67288 
L 151.770227 220.627174 
L 153.515682 246.493984 
L 155.261136 243.35077 
L 157.006591 193.17463 
L 158.752045 250.050401 
L 160.4975 239.122994 
L 162.242955 258.622258 
L 163.988409 262.323655 
L 165.733864 243.336982 
L 167.479318 262.494265 
L 169.224773 260.235312 
L 170.970227 262.581558 
L 172.715682 241.496054 
L 174.461136 257.282247 
L 176.206591 252.359598 
L 177.952045 261.900979 
L 179.6975 256.671875 
L 181.442955 256.81897 
L 183.188409 251.109756 
L 184.933864 263.797058 
L 186.679318 232.149981 
L 188.424773 260.027485 
L 190.170227 263.824549 
L 191.915682 263.495002 
L 193.661136 260.711024 
L 195.406591 263.158519 
L 197.152045 263.236845 
L 198.8975 263.659775 
L 200.642955 257.644191 
L 202.388409 257.039147 
L 204.133864 262.723493 
L 205.879318 260.155717 
L 207.624773 258.569984 
L 209.370227 259.150667 
L 211.115682 263.602595 
L 212.861136 234.605343 
L 214.606591 260.471646 
L 216.352045 258.598659 
L 218.0975 252.492821 
L 219.842955 259.409331 
L 221.588409 261.867483 
L 223.333864 258.202289 
L 225.079318 255.133087 
L 226.824773 258.008587 
L 228.570227 259.910418 
L 230.315682 257.762273 
L 232.061136 245.079622 
L 233.806591 261.257026 
L 235.552045 260.331994 
L 237.2975 252.150671 
L 239.042955 249.871164 
L 240.788409 248.190863 
L 242.533864 260.138715 
L 244.279318 263.884774 
L 246.024773 263.163425 
L 247.770227 259.508465 
L 249.515682 253.180505 
L 251.261136 259.522253 
L 253.006591 262.871772 
L 254.752045 257.444652 
L 256.4975 260.965374 
L 258.242955 255.34286 
L 259.988409 260.747734 
L 261.733864 247.739344 
L 263.479318 261.822399 
L 265.224773 264.095985 
L 266.970227 260.982291 
L 268.715682 260.53517 
L 270.461136 255.817811 
L 272.206591 140.659181 
L 273.952045 252.731522 
L 275.6975 252.996361 
L 277.442955 254.374859 
L 279.188409 264.499122 
L 280.933864 262.394538 
L 282.679318 262.336935 
L 284.424773 258.678762 
L 286.170227 264.508257 
L 287.915682 249.958033 
L 289.661136 262.707253 
L 291.406591 258.069489 
L 293.152045 261.934644 
L 294.8975 262.094089 
L 296.642955 258.92626 
L 298.388409 258.904775 
L 300.133864 262.833878 
L 301.879318 261.937097 
L 303.624773 250.500314 
L 305.370227 259.904074 
L 307.115682 263.795451 
L 308.861136 262.885729 
L 310.606591 259.949666 
L 312.352045 259.646171 
L 314.0975 263.298086 
L 315.842955 260.069186 
L 317.588409 262.98368 
L 319.333864 260.297314 
L 321.079318 252.037156 
L 322.824773 263.182541 
L 324.570227 262.938764 
L 326.315682 248.662007 
L 328.061136 264.335617 
L 329.806591 257.426551 
L 331.552045 263.811861 
L 333.2975 259.350797 
L 335.042955 261.622269 
L 336.788409 263.684982 
L 338.533864 256.658172 
L 340.279318 232.431737 
L 342.024773 261.589111 
L 343.770227 263.59346 
L 345.515682 260.585414 
L 347.261136 253.368793 
L 349.006591 261.497927 
L 350.752045 255.307503 
L 352.4975 249.604464 
L 354.242955 250.816919 
L 355.988409 257.635394 
L 357.733864 263.694286 
L 359.479318 259.761293 
L 361.224773 261.886515 
L 362.970227 259.754864 
L 364.715682 261.043785 
L 366.461136 263.737425 
L 368.206591 262.722055 
L 369.952045 252.821353 
L 371.6975 254.069926 
L 373.442955 238.59983 
L 375.188409 263.832077 
L 376.933864 246.41109 
L 378.679318 259.97132 
L 380.424773 261.046999 
L 382.170227 259.180695 
L 383.915682 247.761251 
L 385.661136 263.124431 
L 387.406591 263.968345 
L 389.152045 241.750742 
L 390.8975 261.557222 
L 392.642955 259.696415 
L 394.388409 259.418804 
L 396.133864 252.791325 
L 397.879318 256.454912 
L 399.624773 255.397418 
L 399.624773 255.397418 
" style="fill:none;stroke:#ff7f0e;stroke-linecap:square;stroke-width:1.5;"/>
   </g>
   <g id="line2d_18">
    <path clip-path="url(#p23039fbb28)" d="M 74.970227 261.167196 
L 76.715682 263.083914 
L 78.461136 264.059106 
L 80.206591 264.50555 
L 81.952045 263.326929 
L 83.6975 263.519785 
L 85.442955 264.237667 
L 87.188409 264.691047 
L 88.933864 263.213246 
L 90.679318 263.195483 
L 92.424773 262.372292 
L 94.170227 261.213042 
L 95.915682 264.272347 
L 97.661136 262.961518 
L 99.406591 264.667194 
L 101.152045 260.696729 
L 102.8975 263.656392 
L 104.642955 264.493624 
L 106.388409 261.290184 
L 108.133864 264.278775 
L 109.879318 264.26761 
L 111.624773 264.056145 
L 113.370227 260.440095 
L 115.115682 263.271187 
L 116.861136 263.780818 
L 118.606591 262.974544 
L 120.352045 262.883953 
L 122.0975 264.341792 
L 123.842955 264.413436 
L 125.588409 262.15017 
L 127.333864 260.543036 
L 129.079318 258.046228 
L 130.824773 260.494061 
L 132.570227 244.78704 
L 134.315682 261.392533 
L 136.061136 263.522408 
L 137.806591 261.514591 
L 139.552045 263.814229 
L 141.2975 258.31039 
L 143.042955 262.154483 
L 144.788409 264.183278 
L 146.533864 264.08778 
L 148.279318 264.334687 
L 150.024773 263.486205 
L 151.770227 253.553698 
L 153.515682 262.470497 
L 155.261136 258.573283 
L 157.006591 183.451305 
L 158.752045 261.366058 
L 160.4975 258.366809 
L 162.242955 263.285567 
L 163.988409 263.677115 
L 165.733864 253.425804 
L 167.479318 263.684221 
L 169.224773 264.396773 
L 172.715682 262.222744 
L 174.461136 259.36357 
L 177.952045 264.261604 
L 179.6975 262.87634 
L 181.442955 263.876062 
L 183.188409 263.724991 
L 184.933864 264.018927 
L 186.679318 263.037307 
L 188.424773 264.148259 
L 190.170227 263.905497 
L 191.915682 262.664368 
L 193.661136 261.768348 
L 195.406591 264.656029 
L 200.642955 264.499206 
L 202.388409 259.605062 
L 204.133864 264.023833 
L 205.879318 262.192124 
L 207.624773 263.935356 
L 209.370227 263.340294 
L 211.115682 264.387976 
L 212.861136 258.519402 
L 214.606591 264.431453 
L 216.352045 264.554356 
L 218.0975 264.349912 
L 219.842955 264.578802 
L 221.588409 263.271187 
L 223.333864 263.64658 
L 225.079318 264.541753 
L 228.570227 262.231118 
L 230.315682 262.130715 
L 232.061136 261.540051 
L 233.806591 264.508849 
L 235.552045 263.543977 
L 237.2975 263.177381 
L 239.042955 260.839003 
L 240.788409 264.244941 
L 242.533864 263.197598 
L 244.279318 264.507242 
L 246.024773 264.615089 
L 247.770227 263.434354 
L 249.515682 262.489782 
L 251.261136 263.74453 
L 253.006591 264.702043 
L 254.752045 263.5883 
L 256.4975 263.07461 
L 258.242955 263.536195 
L 259.988409 263.398658 
L 261.733864 264.196811 
L 263.479318 258.399543 
L 265.224773 264.449385 
L 266.970227 263.41363 
L 268.715682 262.723747 
L 270.461136 262.39107 
L 272.206591 256.076559 
L 273.952045 262.01737 
L 275.6975 263.311789 
L 277.442955 259.616735 
L 279.188409 264.707203 
L 280.933864 263.490688 
L 282.679318 264.257206 
L 284.424773 263.800019 
L 286.170227 264.723359 
L 287.915682 264.316754 
L 289.661136 264.456913 
L 291.406591 263.567999 
L 293.152045 264.56476 
L 294.8975 262.965663 
L 296.642955 263.191507 
L 298.388409 262.080809 
L 300.133864 264.379433 
L 303.624773 264.173381 
L 305.370227 258.624627 
L 307.115682 264.626847 
L 308.861136 264.328427 
L 310.606591 262.187049 
L 312.352045 262.127078 
L 314.0975 264.099115 
L 315.842955 262.768577 
L 317.588409 264.372835 
L 319.333864 264.227347 
L 321.079318 261.234611 
L 322.824773 264.547167 
L 324.570227 264.349151 
L 326.315682 264.675568 
L 328.061136 262.603719 
L 329.806591 261.766995 
L 331.552045 262.899686 
L 333.2975 264.60976 
L 336.788409 263.506505 
L 338.533864 257.598007 
L 340.279318 262.028197 
L 342.024773 263.81922 
L 343.770227 264.133372 
L 345.515682 264.216689 
L 347.261136 262.296165 
L 349.006591 264.534056 
L 350.752045 264.027301 
L 352.4975 264.172789 
L 354.242955 260.498967 
L 355.988409 259.913209 
L 357.733864 264.669647 
L 359.479318 264.145468 
L 361.224773 263.485528 
L 362.970227 260.076122 
L 364.715682 261.143766 
L 366.461136 263.639982 
L 368.206591 264.311256 
L 369.952045 262.321879 
L 371.6975 262.228327 
L 373.442955 259.745052 
L 375.188409 264.286473 
L 376.933864 259.734394 
L 378.679318 262.757835 
L 380.424773 262.541803 
L 382.170227 261.559675 
L 383.915682 259.808661 
L 385.661136 264.199518 
L 387.406591 264.25949 
L 389.152045 261.863169 
L 390.8975 263.305529 
L 392.642955 255.799963 
L 394.388409 264.341115 
L 396.133864 264.099622 
L 397.879318 256.165205 
L 399.624773 261.572363 
L 399.624773 261.572363 
" style="fill:none;stroke:#2ca02c;stroke-linecap:square;stroke-width:1.5;"/>
   </g>
   <g id="line2d_19">
    <path clip-path="url(#p23039fbb28)" d="M 74.970227 261.355907 
L 76.715682 263.213415 
L 78.461136 262.810448 
L 80.206591 264.004632 
L 81.952045 264.157225 
L 83.6975 264.441942 
L 85.442955 264.233099 
L 87.188409 264.571527 
L 88.933864 263.338095 
L 90.679318 262.42169 
L 92.424773 263.116226 
L 94.170227 260.735046 
L 95.915682 263.244712 
L 99.406591 264.384169 
L 101.152045 264.163569 
L 102.8975 263.684813 
L 104.642955 263.499739 
L 106.388409 262.683484 
L 108.133864 262.31765 
L 109.879318 263.876231 
L 111.624773 263.406271 
L 113.370227 263.728036 
L 115.115682 263.747914 
L 116.861136 264.571358 
L 118.606591 262.042915 
L 120.352045 262.166241 
L 122.0975 263.351544 
L 123.842955 263.521731 
L 125.588409 264.397196 
L 127.333864 263.814398 
L 129.079318 258.617521 
L 130.824773 255.727134 
L 132.570227 253.879946 
L 134.315682 261.241209 
L 136.061136 263.983993 
L 137.806591 262.916857 
L 139.552045 263.39739 
L 141.2975 260.297145 
L 143.042955 263.706297 
L 144.788409 264.344414 
L 146.533864 264.366153 
L 148.279318 262.008657 
L 150.024773 262.799028 
L 151.770227 259.447563 
L 153.515682 262.730937 
L 155.261136 257.324963 
L 157.006591 214.987997 
L 158.752045 263.346215 
L 160.4975 258.131575 
L 162.242955 263.565631 
L 163.988409 263.812453 
L 165.733864 255.695076 
L 167.479318 264.461988 
L 169.224773 264.633275 
L 170.970227 264.42181 
L 172.715682 263.188547 
L 174.461136 258.769184 
L 176.206591 260.876559 
L 177.952045 264.611367 
L 179.6975 263.133397 
L 181.442955 263.73235 
L 183.188409 258.422212 
L 184.933864 264.326482 
L 186.679318 262.33592 
L 188.424773 263.819643 
L 190.170227 264.375795 
L 193.661136 264.061897 
L 195.406591 263.389354 
L 197.152045 264.364715 
L 198.8975 264.616527 
L 200.642955 263.859144 
L 202.388409 262.506953 
L 204.133864 263.854323 
L 205.879318 261.695774 
L 207.624773 262.686867 
L 209.370227 262.988755 
L 211.115682 264.360147 
L 212.861136 262.638231 
L 214.606591 264.246041 
L 216.352045 264.251962 
L 218.0975 263.975112 
L 219.842955 264.005309 
L 221.588409 264.290448 
L 223.333864 264.215336 
L 225.079318 263.371675 
L 226.824773 264.032123 
L 228.570227 263.144224 
L 230.315682 262.774245 
L 232.061136 263.40754 
L 233.806591 264.555287 
L 235.552045 264.01123 
L 237.2975 260.051084 
L 239.042955 261.76505 
L 240.788409 262.908398 
L 244.279318 264.428154 
L 246.024773 264.564168 
L 247.770227 262.620045 
L 249.515682 261.884908 
L 251.261136 264.394404 
L 253.006591 264.098776 
L 254.752045 263.36364 
L 256.4975 260.187606 
L 258.242955 263.992113 
L 259.988409 260.50658 
L 261.733864 262.23188 
L 263.479318 263.693525 
L 265.224773 264.272431 
L 266.970227 263.270088 
L 268.715682 264.121445 
L 270.461136 263.118594 
L 272.206591 258.8997 
L 273.952045 264.27074 
L 275.6975 263.273894 
L 277.442955 261.292299 
L 279.188409 263.418198 
L 280.933864 264.321491 
L 282.679318 264.365983 
L 284.424773 263.343001 
L 286.170227 264.674299 
L 289.661136 263.410585 
L 291.406591 264.114763 
L 293.152045 264.640127 
L 294.8975 264.034322 
L 296.642955 264.321322 
L 298.388409 260.000417 
L 300.133864 264.158663 
L 301.879318 264.417919 
L 303.624773 263.274148 
L 305.370227 262.611671 
L 307.115682 264.723359 
L 308.861136 264.479836 
L 310.606591 264.050055 
L 312.352045 259.986207 
L 314.0975 264.360739 
L 315.842955 263.409147 
L 317.588409 264.261181 
L 319.333864 262.14501 
L 321.079318 252.523949 
L 322.824773 262.865936 
L 324.570227 264.687664 
L 326.315682 258.739663 
L 328.061136 262.53918 
L 329.806591 263.824379 
L 331.552045 264.175327 
L 333.2975 263.267888 
L 335.042955 262.992223 
L 336.788409 264.375965 
L 338.533864 263.566223 
L 340.279318 260.416496 
L 342.024773 264.048363 
L 343.770227 264.502421 
L 347.261136 264.008185 
L 349.006591 264.390767 
L 350.752045 261.69755 
L 352.4975 263.339194 
L 354.242955 262.328477 
L 357.733864 264.306942 
L 359.479318 263.27677 
L 361.224773 264.470616 
L 362.970227 261.050214 
L 364.715682 262.700147 
L 366.461136 263.945845 
L 368.206591 264.323183 
L 369.952045 261.582767 
L 371.6975 263.9631 
L 373.442955 263.274486 
L 375.188409 264.07247 
L 376.933864 263.808139 
L 378.679318 262.485807 
L 380.424773 262.369755 
L 382.170227 263.395275 
L 383.915682 263.262306 
L 385.661136 264.558332 
L 387.406591 264.688341 
L 389.152045 260.953532 
L 390.8975 264.048194 
L 392.642955 263.38301 
L 396.133864 263.648187 
L 397.879318 256.725672 
L 399.624773 261.990725 
L 399.624773 261.990725 
" style="fill:none;stroke:#d62728;stroke-linecap:square;stroke-width:1.5;"/>
   </g>
   <g id="line2d_20">
    <path clip-path="url(#p23039fbb28)" d="M 74.970227 263.685066 
L 76.715682 264.068579 
L 78.461136 263.932057 
L 80.206591 264.319123 
L 81.952045 264.315993 
L 83.6975 264.556217 
L 85.442955 264.509949 
L 87.188409 264.713885 
L 88.933864 262.467705 
L 90.679318 261.611188 
L 92.424773 263.904567 
L 94.170227 261.443454 
L 95.915682 264.264311 
L 97.661136 262.691773 
L 99.406591 264.626508 
L 101.152045 263.530612 
L 102.8975 264.422148 
L 104.642955 261.040233 
L 106.388409 263.779972 
L 108.133864 264.333587 
L 109.879318 264.264142 
L 111.624773 264.541246 
L 113.370227 262.069559 
L 115.115682 263.454823 
L 116.861136 264.542599 
L 118.606591 263.348668 
L 120.352045 262.997467 
L 122.0975 264.063589 
L 123.842955 264.498868 
L 125.588409 262.19906 
L 127.333864 262.871011 
L 129.079318 261.721319 
L 130.824773 252.027429 
L 132.570227 237.534047 
L 134.315682 259.879544 
L 136.061136 264.291971 
L 137.806591 263.16241 
L 139.552045 263.363894 
L 141.2975 259.891048 
L 143.042955 262.796406 
L 144.788409 263.064121 
L 146.533864 264.227516 
L 148.279318 260.649445 
L 150.024773 260.945665 
L 151.770227 253.810586 
L 153.515682 257.999452 
L 155.261136 258.787708 
L 157.006591 249.040529 
L 158.752045 262.291005 
L 160.4975 257.01005 
L 162.242955 264.089895 
L 163.988409 264.422402 
L 165.733864 258.08759 
L 167.479318 263.944069 
L 169.224773 264.404047 
L 170.970227 264.295946 
L 174.461136 262.175038 
L 176.206591 263.688873 
L 177.952045 264.361247 
L 179.6975 263.176113 
L 181.442955 263.54034 
L 183.188409 255.841156 
L 184.933864 264.563238 
L 186.679318 258.094273 
L 188.424773 263.720254 
L 190.170227 264.622871 
L 191.915682 264.204847 
L 195.406591 264.523398 
L 197.152045 264.237582 
L 198.8975 264.183531 
L 200.642955 264.412083 
L 202.388409 262.471004 
L 204.133864 264.436274 
L 205.879318 264.238597 
L 207.624773 263.613168 
L 209.370227 263.830131 
L 211.115682 264.445917 
L 212.861136 262.514143 
L 214.606591 264.151558 
L 216.352045 263.607501 
L 218.0975 261.9069 
L 219.842955 264.121699 
L 221.588409 264.250354 
L 223.333864 263.576543 
L 225.079318 263.741654 
L 226.824773 263.100324 
L 228.570227 262.082755 
L 230.315682 263.625941 
L 232.061136 264.143015 
L 233.806591 264.382816 
L 235.552045 264.494808 
L 237.2975 264.299753 
L 239.042955 260.788082 
L 240.788409 261.877295 
L 242.533864 262.801651 
L 244.279318 264.647908 
L 246.024773 264.365899 
L 247.770227 264.260843 
L 249.515682 261.571179 
L 251.261136 264.330034 
L 253.006591 264.570597 
L 254.752045 263.735987 
L 256.4975 264.392205 
L 258.242955 263.721946 
L 259.988409 263.828355 
L 261.733864 263.349598 
L 263.479318 262.66386 
L 265.224773 264.52509 
L 266.970227 264.355664 
L 268.715682 263.631185 
L 270.461136 263.161141 
L 272.206591 260.481035 
L 273.952045 264.388906 
L 275.6975 264.068579 
L 277.442955 261.436941 
L 279.188409 264.427224 
L 280.933864 263.870225 
L 282.679318 264.217112 
L 284.424773 263.175267 
L 286.170227 264.745944 
L 287.915682 264.24215 
L 289.661136 263.300792 
L 291.406591 262.71402 
L 293.152045 264.041427 
L 294.8975 263.610546 
L 296.642955 264.094801 
L 298.388409 263.781579 
L 301.879318 264.49134 
L 303.624773 262.605157 
L 305.370227 263.894247 
L 307.115682 264.589713 
L 308.861136 264.579394 
L 310.606591 263.780141 
L 314.0975 264.295523 
L 315.842955 264.168475 
L 317.588409 264.257121 
L 319.333864 262.806726 
L 321.079318 261.860886 
L 322.824773 264.180148 
L 324.570227 264.574234 
L 326.315682 264.006239 
L 328.061136 264.065788 
L 329.806591 262.09891 
L 331.552045 264.612044 
L 333.2975 263.17459 
L 335.042955 263.971221 
L 336.788409 264.608491 
L 338.533864 263.918862 
L 340.279318 263.791137 
L 342.024773 264.530419 
L 343.770227 264.511894 
L 345.515682 264.64554 
L 347.261136 264.559178 
L 349.006591 264.306266 
L 350.752045 262.215724 
L 352.4975 263.917086 
L 354.242955 263.297409 
L 355.988409 263.682952 
L 357.733864 264.658313 
L 359.479318 263.921484 
L 362.970227 264.260166 
L 364.715682 263.668318 
L 366.461136 264.447186 
L 368.206591 264.663388 
L 369.952045 262.507461 
L 371.6975 263.105145 
L 373.442955 261.883977 
L 375.188409 264.488802 
L 376.933864 262.22672 
L 378.679318 263.70486 
L 380.424773 263.634992 
L 382.170227 263.802218 
L 383.915682 262.761388 
L 385.661136 263.617567 
L 387.406591 264.691132 
L 389.152045 262.18781 
L 390.8975 263.714249 
L 392.642955 262.521502 
L 394.388409 264.090064 
L 396.133864 260.518422 
L 397.879318 258.508659 
L 399.624773 264.380363 
L 399.624773 264.380363 
" style="fill:none;stroke:#9467bd;stroke-linecap:square;stroke-width:1.5;"/>
   </g>
   <g id="line2d_21">
    <path clip-path="url(#p23039fbb28)" d="M 74.970227 263.861766 
L 76.715682 263.87234 
L 78.461136 263.542624 
L 80.206591 264.468248 
L 81.952045 263.933072 
L 83.6975 264.455729 
L 85.442955 264.054115 
L 87.188409 264.687833 
L 88.933864 262.746416 
L 90.679318 262.812816 
L 92.424773 263.582294 
L 94.170227 263.557765 
L 95.915682 262.997636 
L 97.661136 263.68845 
L 99.406591 264.515531 
L 101.152045 263.802979 
L 102.8975 264.084989 
L 104.642955 263.745545 
L 106.388409 263.980441 
L 108.133864 264.435682 
L 111.624773 264.582354 
L 113.370227 263.918354 
L 115.115682 262.162942 
L 116.861136 264.293747 
L 120.352045 262.619875 
L 122.0975 264.410476 
L 123.842955 264.43619 
L 125.588409 264.068241 
L 127.333864 264.272601 
L 129.079318 263.100916 
L 130.824773 248.634263 
L 132.570227 248.204313 
L 134.315682 260.960045 
L 136.061136 263.786231 
L 137.806591 263.184571 
L 139.552045 263.82125 
L 141.2975 262.056448 
L 143.042955 262.029635 
L 144.788409 263.975027 
L 146.533864 264.428915 
L 148.279318 260.074937 
L 150.024773 262.042915 
L 151.770227 251.620824 
L 153.515682 261.783236 
L 155.261136 262.614969 
L 157.006591 245.628332 
L 158.752045 263.893232 
L 160.4975 255.131649 
L 162.242955 263.957264 
L 163.988409 263.262052 
L 165.733864 261.78036 
L 167.479318 264.140816 
L 169.224773 264.190806 
L 170.970227 264.359301 
L 172.715682 263.400265 
L 174.461136 262.195085 
L 176.206591 259.2306 
L 177.952045 264.441519 
L 179.6975 263.334288 
L 181.442955 264.161032 
L 183.188409 261.841854 
L 184.933864 264.674299 
L 186.679318 263.547783 
L 188.424773 262.947308 
L 190.170227 264.196304 
L 193.661136 263.738694 
L 195.406591 264.436613 
L 198.8975 264.456406 
L 200.642955 262.985371 
L 202.388409 263.07757 
L 204.133864 264.403455 
L 205.879318 263.456515 
L 207.624773 263.389946 
L 211.115682 264.304405 
L 212.861136 263.759502 
L 218.0975 263.596505 
L 219.842955 263.873609 
L 221.588409 264.26558 
L 223.333864 263.620189 
L 225.079318 263.83656 
L 226.824773 263.912349 
L 228.570227 263.832754 
L 230.315682 263.530951 
L 232.061136 264.231915 
L 233.806591 264.570428 
L 235.552045 264.472139 
L 237.2975 263.516656 
L 239.042955 262.855532 
L 240.788409 263.660706 
L 244.279318 264.484996 
L 246.024773 264.621856 
L 247.770227 263.063106 
L 249.515682 262.178337 
L 251.261136 263.902875 
L 253.006591 264.359639 
L 254.752045 264.377825 
L 256.4975 263.401027 
L 258.242955 262.912035 
L 259.988409 263.303837 
L 261.733864 263.214599 
L 263.479318 263.468019 
L 265.224773 264.543445 
L 266.970227 264.053354 
L 268.715682 263.851024 
L 270.461136 264.158832 
L 272.206591 262.794207 
L 273.952045 264.218381 
L 275.6975 264.011737 
L 277.442955 258.296348 
L 279.188409 264.590897 
L 280.933864 264.446171 
L 282.679318 264.44524 
L 284.424773 263.939924 
L 286.170227 264.605785 
L 287.915682 264.136079 
L 289.661136 264.321914 
L 291.406591 264.026032 
L 293.152045 263.572144 
L 294.8975 262.955512 
L 296.642955 263.547953 
L 298.388409 262.944432 
L 300.133864 264.408699 
L 301.879318 264.341115 
L 303.624773 263.506844 
L 305.370227 263.822265 
L 307.115682 264.657805 
L 308.861136 264.529234 
L 310.606591 264.251708 
L 312.352045 263.037392 
L 314.0975 264.58117 
L 315.842955 263.443743 
L 317.588409 264.282497 
L 319.333864 263.010832 
L 321.079318 263.151075 
L 322.824773 264.223033 
L 324.570227 264.640634 
L 326.315682 264.144791 
L 328.061136 264.195374 
L 329.806591 263.998627 
L 331.552045 264.566621 
L 333.2975 263.368715 
L 335.042955 263.86312 
L 336.788409 264.548266 
L 338.533864 263.676523 
L 340.279318 264.213306 
L 342.024773 264.503266 
L 343.770227 264.272008 
L 345.515682 264.634036 
L 347.261136 264.257121 
L 349.006591 264.57508 
L 350.752045 263.832838 
L 352.4975 264.395589 
L 354.242955 263.841635 
L 357.733864 264.608322 
L 359.479318 264.073147 
L 361.224773 264.46681 
L 362.970227 264.098438 
L 364.715682 264.069171 
L 366.461136 264.391613 
L 368.206591 264.186407 
L 371.6975 263.098886 
L 373.442955 262.653371 
L 375.188409 264.57398 
L 376.933864 261.346772 
L 378.679318 262.908483 
L 382.170227 264.381801 
L 383.915682 262.54138 
L 385.661136 264.328681 
L 387.406591 264.635221 
L 389.152045 263.596759 
L 390.8975 263.882321 
L 394.388409 263.460998 
L 396.133864 260.451683 
L 397.879318 261.371894 
L 399.624773 263.706044 
L 399.624773 263.706044 
" style="fill:none;stroke:#8c564b;stroke-linecap:square;stroke-width:1.5;"/>
   </g>
   <g id="line2d_22">
    <path clip-path="url(#p23039fbb28)" d="M 74.970227 263.569014 
L 76.715682 264.360908 
L 78.461136 263.256046 
L 80.206591 264.500052 
L 81.952045 264.036775 
L 83.6975 264.384254 
L 85.442955 264.264819 
L 87.188409 264.497261 
L 88.933864 263.917001 
L 90.679318 263.554043 
L 92.424773 264.239612 
L 94.170227 264.231999 
L 95.915682 264.500052 
L 97.661136 264.306519 
L 99.406591 264.595127 
L 101.152045 264.174396 
L 102.8975 264.350081 
L 104.642955 264.335871 
L 106.388409 264.207469 
L 108.133864 264.653914 
L 111.624773 264.565775 
L 113.370227 264.143099 
L 115.115682 261.59537 
L 116.861136 264.461735 
L 118.606591 263.391215 
L 120.352045 261.838047 
L 122.0975 264.219481 
L 123.842955 264.330457 
L 125.588409 263.701645 
L 129.079318 263.991606 
L 130.824773 246.173488 
L 132.570227 248.235356 
L 134.315682 263.794182 
L 136.061136 264.357017 
L 137.806591 264.070271 
L 139.552045 264.049717 
L 141.2975 260.808721 
L 143.042955 263.072495 
L 144.788409 264.305251 
L 146.533864 263.980271 
L 148.279318 261.105617 
L 150.024773 263.699277 
L 151.770227 262.599152 
L 153.515682 264.007931 
L 155.261136 263.655123 
L 157.006591 259.393513 
L 158.752045 263.351206 
L 160.4975 258.771975 
L 162.242955 264.441434 
L 163.988409 264.532956 
L 165.733864 262.593992 
L 167.479318 264.396519 
L 170.970227 264.563745 
L 172.715682 262.780758 
L 174.461136 263.215107 
L 176.206591 261.421631 
L 177.952045 264.58929 
L 179.6975 264.034322 
L 181.442955 263.698769 
L 183.188409 264.062574 
L 184.933864 264.701705 
L 186.679318 264.017235 
L 188.424773 264.369029 
L 190.170227 264.572881 
L 191.915682 263.971136 
L 193.661136 263.567323 
L 195.406591 264.531011 
L 197.152045 264.648331 
L 198.8975 264.399818 
L 200.642955 264.685042 
L 202.388409 263.414307 
L 204.133864 264.447017 
L 205.879318 263.855338 
L 207.624773 264.213898 
L 209.370227 263.42598 
L 211.115682 264.537608 
L 212.861136 264.439066 
L 214.606591 264.493454 
L 216.352045 264.103006 
L 218.0975 263.829962 
L 219.842955 263.96217 
L 221.588409 264.63632 
L 223.333864 264.334771 
L 225.079318 264.284189 
L 226.824773 263.905497 
L 228.570227 264.476622 
L 232.061136 264.061051 
L 233.806591 264.626847 
L 235.552045 264.590136 
L 237.2975 264.12043 
L 239.042955 262.025913 
L 240.788409 264.265242 
L 242.533864 264.223879 
L 244.279318 264.678867 
L 246.024773 264.699083 
L 247.770227 264.00108 
L 249.515682 262.86416 
L 251.261136 264.518746 
L 253.006591 264.664234 
L 256.4975 264.053438 
L 258.242955 264.192328 
L 259.988409 264.445494 
L 263.479318 263.730404 
L 265.224773 264.527289 
L 266.970227 264.444818 
L 268.715682 263.756457 
L 270.461136 264.09607 
L 272.206591 263.521731 
L 273.952045 264.27573 
L 275.6975 262.847242 
L 277.442955 262.961349 
L 279.188409 264.600794 
L 286.170227 264.685465 
L 287.915682 264.369705 
L 289.661136 264.434075 
L 291.406591 263.599127 
L 293.152045 264.108419 
L 294.8975 263.928336 
L 296.642955 264.005055 
L 298.388409 263.666035 
L 300.133864 264.610691 
L 301.879318 264.567383 
L 303.624773 264.034745 
L 305.370227 264.543022 
L 308.861136 264.622702 
L 310.606591 264.291886 
L 312.352045 264.26761 
L 314.0975 264.648501 
L 315.842955 264.491594 
L 317.588409 264.540653 
L 321.079318 263.638121 
L 322.824773 264.427477 
L 324.570227 264.684027 
L 326.315682 264.376557 
L 329.806591 264.29933 
L 331.552045 264.658989 
L 333.2975 264.38197 
L 335.042955 263.551336 
L 336.788409 264.694431 
L 338.533864 264.084904 
L 340.279318 264.222018 
L 342.024773 264.633275 
L 343.770227 264.489902 
L 345.515682 264.659412 
L 347.261136 264.358878 
L 349.006591 264.702551 
L 350.752045 264.364715 
L 352.4975 263.539071 
L 354.242955 264.521114 
L 355.988409 264.099284 
L 357.733864 264.663472 
L 359.479318 263.514795 
L 361.224773 264.657297 
L 362.970227 264.25027 
L 364.715682 264.19512 
L 366.461136 264.550719 
L 368.206591 264.674384 
L 369.952045 264.180656 
L 371.6975 264.037029 
L 373.442955 263.194637 
L 375.188409 264.636236 
L 376.933864 264.567298 
L 378.679318 263.659352 
L 380.424773 264.250354 
L 382.170227 264.353296 
L 383.915682 263.781917 
L 385.661136 264.623548 
L 387.406591 264.718453 
L 389.152045 264.00311 
L 390.8975 264.370466 
L 392.642955 264.112564 
L 394.388409 264.097592 
L 396.133864 263.218913 
L 397.879318 262.760796 
L 399.624773 264.227009 
L 399.624773 264.227009 
" style="fill:none;stroke:#e377c2;stroke-linecap:square;stroke-width:1.5;"/>
   </g>
   <g id="line2d_23">
    <path clip-path="url(#p23039fbb28)" d="M 74.970227 264.407938 
L 76.715682 263.805094 
L 78.461136 264.030854 
L 80.206591 264.576687 
L 81.952045 264.393474 
L 83.6975 264.660089 
L 87.188409 264.709487 
L 90.679318 264.114509 
L 92.424773 264.479498 
L 94.170227 263.381826 
L 95.915682 264.136248 
L 99.406591 264.706019 
L 101.152045 264.431791 
L 104.642955 264.380109 
L 106.388409 264.661188 
L 111.624773 264.666433 
L 113.370227 264.358794 
L 115.115682 264.224725 
L 116.861136 264.700267 
L 120.352045 263.971136 
L 122.0975 264.667955 
L 125.588409 264.406923 
L 127.333864 264.462581 
L 129.079318 264.11231 
L 130.824773 251.02813 
L 132.570227 261.442693 
L 134.315682 264.177864 
L 136.061136 264.575165 
L 137.806591 264.37681 
L 139.552045 264.620418 
L 141.2975 261.293906 
L 143.042955 264.292309 
L 144.788409 264.666687 
L 146.533864 264.623209 
L 148.279318 261.341781 
L 150.024773 264.294931 
L 151.770227 263.720508 
L 153.515682 264.66491 
L 155.261136 264.338493 
L 157.006591 262.298533 
L 158.752045 264.460297 
L 160.4975 262.84682 
L 162.242955 264.529657 
L 163.988409 264.588191 
L 165.733864 264.210937 
L 167.479318 264.532195 
L 170.970227 264.645033 
L 172.715682 262.679001 
L 174.461136 264.234198 
L 177.952045 264.580578 
L 179.6975 264.251539 
L 181.442955 264.35744 
L 183.188409 263.841297 
L 184.933864 264.711432 
L 186.679318 263.581364 
L 188.424773 264.506904 
L 190.170227 264.629046 
L 191.915682 264.054115 
L 193.661136 264.666094 
L 198.8975 264.679121 
L 202.388409 264.494554 
L 204.133864 264.68445 
L 205.879318 264.041089 
L 207.624773 264.210853 
L 209.370227 264.539385 
L 211.115682 264.657297 
L 212.861136 264.371651 
L 214.606591 264.588529 
L 216.352045 264.443803 
L 221.588409 264.697307 
L 223.333864 264.171182 
L 225.079318 264.582016 
L 226.824773 264.528558 
L 228.570227 264.638773 
L 230.315682 263.820319 
L 232.061136 264.33917 
L 233.806591 264.697137 
L 235.552045 264.683435 
L 237.2975 264.428662 
L 242.533864 264.34729 
L 244.279318 264.691216 
L 246.024773 264.550381 
L 247.770227 264.554864 
L 249.515682 264.279875 
L 251.261136 264.651038 
L 254.752045 264.62414 
L 256.4975 264.037536 
L 258.242955 264.43196 
L 259.988409 264.34619 
L 261.733864 264.620333 
L 263.479318 264.138109 
L 265.224773 264.619488 
L 266.970227 264.41885 
L 268.715682 264.536678 
L 272.206591 264.454207 
L 273.952045 264.528473 
L 275.6975 263.756119 
L 279.188409 264.629892 
L 282.679318 264.704327 
L 284.424773 264.513755 
L 286.170227 264.737316 
L 287.915682 264.658228 
L 291.406591 264.121361 
L 293.152045 264.37698 
L 296.642955 264.554441 
L 301.879318 264.695361 
L 305.370227 264.216097 
L 307.115682 264.677091 
L 308.861136 264.695869 
L 312.352045 264.578802 
L 319.333864 264.541584 
L 322.824773 264.48212 
L 324.570227 264.690455 
L 326.315682 264.52712 
L 328.061136 264.582608 
L 329.806591 264.496246 
L 331.552045 264.692401 
L 333.2975 264.580578 
L 335.042955 264.259997 
L 336.788409 264.683519 
L 338.533864 264.425786 
L 340.279318 264.333925 
L 342.024773 264.67616 
L 345.515682 264.68335 
L 347.261136 264.582608 
L 349.006591 264.718369 
L 350.752045 264.448962 
L 352.4975 264.620841 
L 354.242955 264.405062 
L 355.988409 264.394912 
L 357.733864 264.729111 
L 359.479318 264.272516 
L 361.224773 264.672523 
L 362.970227 264.464611 
L 368.206591 264.691555 
L 371.6975 264.5618 
L 373.442955 264.096662 
L 375.188409 264.722852 
L 376.933864 264.662373 
L 378.679318 264.210937 
L 380.424773 264.17871 
L 382.170227 264.647486 
L 383.915682 264.356002 
L 385.661136 264.686057 
L 387.406591 264.746197 
L 389.152045 264.650869 
L 390.8975 264.429507 
L 392.642955 264.371651 
L 394.388409 264.515785 
L 396.133864 263.962508 
L 397.879318 264.192582 
L 399.624773 264.5393 
L 399.624773 264.5393 
" style="fill:none;stroke:#7f7f7f;stroke-linecap:square;stroke-width:1.5;"/>
   </g>
   <g id="line2d_24">
    <path clip-path="url(#p23039fbb28)" d="M 74.970227 264.757109 
L 127.333864 264.753387 
L 287.915682 264.751695 
L 399.624773 264.751272 
L 399.624773 264.751272 
" style="fill:none;stroke:#bcbd22;stroke-linecap:square;stroke-width:1.5;"/>
   </g>
   <g id="line2d_25">
    <path clip-path="url(#p23039fbb28)" d="M 74.970227 264.757109 
L 123.842955 264.751526 
L 399.624773 264.75178 
L 399.624773 264.75178 
" style="fill:none;stroke:#17becf;stroke-linecap:square;stroke-width:1.5;"/>
   </g>
   <g id="line2d_26">
    <path clip-path="url(#p23039fbb28)" d="M 74.970227 264.750765 
L 129.079318 264.768697 
L 130.824773 264.930341 
L 132.570227 264.752372 
L 139.552045 264.722936 
L 143.042955 264.758124 
L 144.788409 264.690709 
L 146.533864 264.806169 
L 151.770227 264.742222 
L 153.515682 264.76413 
L 155.261136 264.92332 
L 157.006591 264.740361 
L 170.970227 264.769374 
L 177.952045 264.748566 
L 184.933864 264.771319 
L 195.406591 264.747974 
L 368.206591 264.750342 
L 392.642955 264.781723 
L 399.624773 264.758716 
L 399.624773 264.758716 
" style="fill:none;stroke:#1f77b4;stroke-linecap:square;stroke-width:1.5;"/>
   </g>
   <g id="line2d_27">
    <path clip-path="url(#p23039fbb28)" d="M 74.970227 264.757109 
L 399.624773 264.757109 
L 399.624773 264.757109 
" style="fill:none;stroke:#ff7f0e;stroke-linecap:square;stroke-width:1.5;"/>
   </g>
   <g id="patch_3">
    <path d="M 58.7375 277.026341 
L 58.7375 10.914341 
" style="fill:none;stroke:#000000;stroke-linecap:square;stroke-linejoin:miter;stroke-width:0.8;"/>
   </g>
   <g id="patch_4">
    <path d="M 415.8575 277.026341 
L 415.8575 10.914341 
" style="fill:none;stroke:#000000;stroke-linecap:square;stroke-linejoin:miter;stroke-width:0.8;"/>
   </g>
   <g id="patch_5">
    <path d="M 58.7375 277.026341 
L 415.8575 277.026341 
" style="fill:none;stroke:#000000;stroke-linecap:square;stroke-linejoin:miter;stroke-width:0.8;"/>
   </g>
   <g id="patch_6">
    <path d="M 58.7375 10.914341 
L 415.8575 10.914341 
" style="fill:none;stroke:#000000;stroke-linecap:square;stroke-linejoin:miter;stroke-width:0.8;"/>
   </g>
   <g id="legend_1">
    <g id="patch_7">
     <path d="M 318.504375 165.695591 
L 408.8575 165.695591 
Q 410.8575 165.695591 410.8575 163.695591 
L 410.8575 17.914341 
Q 410.8575 15.914341 408.8575 15.914341 
L 318.504375 15.914341 
Q 316.504375 15.914341 316.504375 17.914341 
L 316.504375 163.695591 
Q 316.504375 165.695591 318.504375 165.695591 
z
" style="fill:#ffffff;opacity:0.8;stroke:#cccccc;stroke-linejoin:miter;"/>
    </g>
    <g id="line2d_28">
     <path d="M 320.504375 24.012778 
L 340.504375 24.012778 
" style="fill:none;stroke:#1f77b4;stroke-linecap:square;stroke-width:1.5;"/>
    </g>
    <g id="line2d_29"/>
    <g id="text_16">
     <!-- delta -->
     <defs>
      <path d="M 45.40625 46.390625 
L 45.40625 75.984375 
L 54.390625 75.984375 
L 54.390625 0 
L 45.40625 0 
L 45.40625 8.203125 
Q 42.578125 3.328125 38.25 0.953125 
Q 33.9375 -1.421875 27.875 -1.421875 
Q 17.96875 -1.421875 11.734375 6.484375 
Q 5.515625 14.40625 5.515625 27.296875 
Q 5.515625 40.1875 11.734375 48.09375 
Q 17.96875 56 27.875 56 
Q 33.9375 56 38.25 53.625 
Q 42.578125 51.265625 45.40625 46.390625 
M 14.796875 27.296875 
Q 14.796875 17.390625 18.875 11.75 
Q 22.953125 6.109375 30.078125 6.109375 
Q 37.203125 6.109375 41.296875 11.75 
Q 45.40625 17.390625 45.40625 27.296875 
Q 45.40625 37.203125 41.296875 42.84375 
Q 37.203125 48.484375 30.078125 48.484375 
Q 22.953125 48.484375 18.875 42.84375 
Q 14.796875 37.203125 14.796875 27.296875 
" id="DejaVuSans-64"/>
      <path d="M 56.203125 29.59375 
L 56.203125 25.203125 
L 14.890625 25.203125 
Q 15.484375 15.921875 20.484375 11.0625 
Q 25.484375 6.203125 34.421875 6.203125 
Q 39.59375 6.203125 44.453125 7.46875 
Q 49.3125 8.734375 54.109375 11.28125 
L 54.109375 2.78125 
Q 49.265625 0.734375 44.1875 -0.34375 
Q 39.109375 -1.421875 33.890625 -1.421875 
Q 20.796875 -1.421875 13.15625 6.1875 
Q 5.515625 13.8125 5.515625 26.8125 
Q 5.515625 40.234375 12.765625 48.109375 
Q 20.015625 56 32.328125 56 
Q 43.359375 56 49.78125 48.890625 
Q 56.203125 41.796875 56.203125 29.59375 
M 47.21875 32.234375 
Q 47.125 39.59375 43.09375 43.984375 
Q 39.0625 48.390625 32.421875 48.390625 
Q 24.90625 48.390625 20.390625 44.140625 
Q 15.875 39.890625 15.1875 32.171875 
z
" id="DejaVuSans-65"/>
      <path d="M 9.421875 75.984375 
L 18.40625 75.984375 
L 18.40625 0 
L 9.421875 0 
z
" id="DejaVuSans-6c"/>
      <path d="M 18.3125 70.21875 
L 18.3125 54.6875 
L 36.8125 54.6875 
L 36.8125 47.703125 
L 18.3125 47.703125 
L 18.3125 18.015625 
Q 18.3125 11.328125 20.140625 9.421875 
Q 21.96875 7.515625 27.59375 7.515625 
L 36.8125 7.515625 
L 36.8125 0 
L 27.59375 0 
Q 17.1875 0 13.234375 3.875 
Q 9.28125 7.765625 9.28125 18.015625 
L 9.28125 47.703125 
L 2.6875 47.703125 
L 2.6875 54.6875 
L 9.28125 54.6875 
L 9.28125 70.21875 
z
" id="DejaVuSans-74"/>
      <path d="M 34.28125 27.484375 
Q 23.390625 27.484375 19.1875 25 
Q 14.984375 22.515625 14.984375 16.5 
Q 14.984375 11.71875 18.140625 8.90625 
Q 21.296875 6.109375 26.703125 6.109375 
Q 34.1875 6.109375 38.703125 11.40625 
Q 43.21875 16.703125 43.21875 25.484375 
L 43.21875 27.484375 
z
M 52.203125 31.203125 
L 52.203125 0 
L 43.21875 0 
L 43.21875 8.296875 
Q 40.140625 3.328125 35.546875 0.953125 
Q 30.953125 -1.421875 24.3125 -1.421875 
Q 15.921875 -1.421875 10.953125 3.296875 
Q 6 8.015625 6 15.921875 
Q 6 25.140625 12.171875 29.828125 
Q 18.359375 34.515625 30.609375 34.515625 
L 43.21875 34.515625 
L 43.21875 35.40625 
Q 43.21875 41.609375 39.140625 45 
Q 35.0625 48.390625 27.6875 48.390625 
Q 23 48.390625 18.546875 47.265625 
Q 14.109375 46.140625 10.015625 43.890625 
L 10.015625 52.203125 
Q 14.9375 54.109375 19.578125 55.046875 
Q 24.21875 56 28.609375 56 
Q 40.484375 56 46.34375 49.84375 
Q 52.203125 43.703125 52.203125 31.203125 
" id="DejaVuSans-61"/>
     </defs>
     <g transform="translate(348.504375 27.512778)scale(0.1 -0.1)">
      <use xlink:href="#DejaVuSans-64"/>
      <use x="63.476562" xlink:href="#DejaVuSans-65"/>
      <use x="125" xlink:href="#DejaVuSans-6c"/>
      <use x="152.783203" xlink:href="#DejaVuSans-74"/>
      <use x="191.992188" xlink:href="#DejaVuSans-61"/>
     </g>
    </g>
    <g id="line2d_30">
     <path d="M 320.504375 38.690903 
L 340.504375 38.690903 
" style="fill:none;stroke:#ff7f0e;stroke-linecap:square;stroke-width:1.5;"/>
    </g>
    <g id="line2d_31"/>
    <g id="text_17">
     <!-- lowAlpha -->
     <defs>
      <path d="M 30.609375 48.390625 
Q 23.390625 48.390625 19.1875 42.75 
Q 14.984375 37.109375 14.984375 27.296875 
Q 14.984375 17.484375 19.15625 11.84375 
Q 23.34375 6.203125 30.609375 6.203125 
Q 37.796875 6.203125 41.984375 11.859375 
Q 46.1875 17.53125 46.1875 27.296875 
Q 46.1875 37.015625 41.984375 42.703125 
Q 37.796875 48.390625 30.609375 48.390625 
M 30.609375 56 
Q 42.328125 56 49.015625 48.375 
Q 55.71875 40.765625 55.71875 27.296875 
Q 55.71875 13.875 49.015625 6.21875 
Q 42.328125 -1.421875 30.609375 -1.421875 
Q 18.84375 -1.421875 12.171875 6.21875 
Q 5.515625 13.875 5.515625 27.296875 
Q 5.515625 40.765625 12.171875 48.375 
Q 18.84375 56 30.609375 56 
" id="DejaVuSans-6f"/>
      <path d="M 4.203125 54.6875 
L 13.1875 54.6875 
L 24.421875 12.015625 
L 35.59375 54.6875 
L 46.1875 54.6875 
L 57.421875 12.015625 
L 68.609375 54.6875 
L 77.59375 54.6875 
L 63.28125 0 
L 52.6875 0 
L 40.921875 44.828125 
L 29.109375 0 
L 18.5 0 
z
" id="DejaVuSans-77"/>
      <path d="M 34.1875 63.1875 
L 20.796875 26.90625 
L 47.609375 26.90625 
z
M 28.609375 72.90625 
L 39.796875 72.90625 
L 67.578125 0 
L 57.328125 0 
L 50.6875 18.703125 
L 17.828125 18.703125 
L 11.1875 0 
L 0.78125 0 
z
" id="DejaVuSans-41"/>
      <path d="M 18.109375 8.203125 
L 18.109375 -20.796875 
L 9.078125 -20.796875 
L 9.078125 54.6875 
L 18.109375 54.6875 
L 18.109375 46.390625 
Q 20.953125 51.265625 25.265625 53.625 
Q 29.59375 56 35.59375 56 
Q 45.5625 56 51.78125 48.09375 
Q 58.015625 40.1875 58.015625 27.296875 
Q 58.015625 14.40625 51.78125 6.484375 
Q 45.5625 -1.421875 35.59375 -1.421875 
Q 29.59375 -1.421875 25.265625 0.953125 
Q 20.953125 3.328125 18.109375 8.203125 
M 48.6875 27.296875 
Q 48.6875 37.203125 44.609375 42.84375 
Q 40.53125 48.484375 33.40625 48.484375 
Q 26.265625 48.484375 22.1875 42.84375 
Q 18.109375 37.203125 18.109375 27.296875 
Q 18.109375 17.390625 22.1875 11.75 
Q 26.265625 6.109375 33.40625 6.109375 
Q 40.53125 6.109375 44.609375 11.75 
Q 48.6875 17.390625 48.6875 27.296875 
" id="DejaVuSans-70"/>
      <path d="M 54.890625 33.015625 
L 54.890625 0 
L 45.90625 0 
L 45.90625 32.71875 
Q 45.90625 40.484375 42.875 44.328125 
Q 39.84375 48.1875 33.796875 48.1875 
Q 26.515625 48.1875 22.3125 43.546875 
Q 18.109375 38.921875 18.109375 30.90625 
L 18.109375 0 
L 9.078125 0 
L 9.078125 75.984375 
L 18.109375 75.984375 
L 18.109375 46.1875 
Q 21.34375 51.125 25.703125 53.5625 
Q 30.078125 56 35.796875 56 
Q 45.21875 56 50.046875 50.171875 
Q 54.890625 44.34375 54.890625 33.015625 
" id="DejaVuSans-68"/>
     </defs>
     <g transform="translate(348.504375 42.190903)scale(0.1 -0.1)">
      <use xlink:href="#DejaVuSans-6c"/>
      <use x="27.783203" xlink:href="#DejaVuSans-6f"/>
      <use x="88.964844" xlink:href="#DejaVuSans-77"/>
      <use x="170.751953" xlink:href="#DejaVuSans-41"/>
      <use x="239.160156" xlink:href="#DejaVuSans-6c"/>
      <use x="266.943359" xlink:href="#DejaVuSans-70"/>
      <use x="330.419922" xlink:href="#DejaVuSans-68"/>
      <use x="393.798828" xlink:href="#DejaVuSans-61"/>
     </g>
    </g>
    <g id="line2d_32">
     <path d="M 320.504375 53.369028 
L 340.504375 53.369028 
" style="fill:none;stroke:#2ca02c;stroke-linecap:square;stroke-width:1.5;"/>
    </g>
    <g id="line2d_33"/>
    <g id="text_18">
     <!-- highAlpha -->
     <defs>
      <path d="M 9.421875 54.6875 
L 18.40625 54.6875 
L 18.40625 0 
L 9.421875 0 
z
M 9.421875 75.984375 
L 18.40625 75.984375 
L 18.40625 64.59375 
L 9.421875 64.59375 
z
" id="DejaVuSans-69"/>
      <path d="M 45.40625 27.984375 
Q 45.40625 37.75 41.375 43.109375 
Q 37.359375 48.484375 30.078125 48.484375 
Q 22.859375 48.484375 18.828125 43.109375 
Q 14.796875 37.75 14.796875 27.984375 
Q 14.796875 18.265625 18.828125 12.890625 
Q 22.859375 7.515625 30.078125 7.515625 
Q 37.359375 7.515625 41.375 12.890625 
Q 45.40625 18.265625 45.40625 27.984375 
M 54.390625 6.78125 
Q 54.390625 -7.171875 48.1875 -13.984375 
Q 42 -20.796875 29.203125 -20.796875 
Q 24.46875 -20.796875 20.265625 -20.09375 
Q 16.0625 -19.390625 12.109375 -17.921875 
L 12.109375 -9.1875 
Q 16.0625 -11.328125 19.921875 -12.34375 
Q 23.78125 -13.375 27.78125 -13.375 
Q 36.625 -13.375 41.015625 -8.765625 
Q 45.40625 -4.15625 45.40625 5.171875 
L 45.40625 9.625 
Q 42.625 4.78125 38.28125 2.390625 
Q 33.9375 0 27.875 0 
Q 17.828125 0 11.671875 7.65625 
Q 5.515625 15.328125 5.515625 27.984375 
Q 5.515625 40.671875 11.671875 48.328125 
Q 17.828125 56 27.875 56 
Q 33.9375 56 38.28125 53.609375 
Q 42.625 51.21875 45.40625 46.390625 
L 45.40625 54.6875 
L 54.390625 54.6875 
z
" id="DejaVuSans-67"/>
     </defs>
     <g transform="translate(348.504375 56.869028)scale(0.1 -0.1)">
      <use xlink:href="#DejaVuSans-68"/>
      <use x="63.378906" xlink:href="#DejaVuSans-69"/>
      <use x="91.162109" xlink:href="#DejaVuSans-67"/>
      <use x="154.638672" xlink:href="#DejaVuSans-68"/>
      <use x="218.017578" xlink:href="#DejaVuSans-41"/>
      <use x="286.425781" xlink:href="#DejaVuSans-6c"/>
      <use x="314.208984" xlink:href="#DejaVuSans-70"/>
      <use x="377.685547" xlink:href="#DejaVuSans-68"/>
      <use x="441.064453" xlink:href="#DejaVuSans-61"/>
     </g>
    </g>
    <g id="line2d_34">
     <path d="M 320.504375 68.047153 
L 340.504375 68.047153 
" style="fill:none;stroke:#d62728;stroke-linecap:square;stroke-width:1.5;"/>
    </g>
    <g id="line2d_35"/>
    <g id="text_19">
     <!-- lowBeta -->
     <defs>
      <path d="M 19.671875 34.8125 
L 19.671875 8.109375 
L 35.5 8.109375 
Q 43.453125 8.109375 47.28125 11.40625 
Q 51.125 14.703125 51.125 21.484375 
Q 51.125 28.328125 47.28125 31.5625 
Q 43.453125 34.8125 35.5 34.8125 
z
M 19.671875 64.796875 
L 19.671875 42.828125 
L 34.28125 42.828125 
Q 41.5 42.828125 45.03125 45.53125 
Q 48.578125 48.25 48.578125 53.8125 
Q 48.578125 59.328125 45.03125 62.0625 
Q 41.5 64.796875 34.28125 64.796875 
z
M 9.8125 72.90625 
L 35.015625 72.90625 
Q 46.296875 72.90625 52.390625 68.21875 
Q 58.5 63.53125 58.5 54.890625 
Q 58.5 48.1875 55.375 44.234375 
Q 52.25 40.28125 46.1875 39.3125 
Q 53.46875 37.75 57.5 32.78125 
Q 61.53125 27.828125 61.53125 20.40625 
Q 61.53125 10.640625 54.890625 5.3125 
Q 48.25 0 35.984375 0 
L 9.8125 0 
z
" id="DejaVuSans-42"/>
     </defs>
     <g transform="translate(348.504375 71.547153)scale(0.1 -0.1)">
      <use xlink:href="#DejaVuSans-6c"/>
      <use x="27.783203" xlink:href="#DejaVuSans-6f"/>
      <use x="88.964844" xlink:href="#DejaVuSans-77"/>
      <use x="170.751953" xlink:href="#DejaVuSans-42"/>
      <use x="239.355469" xlink:href="#DejaVuSans-65"/>
      <use x="300.878906" xlink:href="#DejaVuSans-74"/>
      <use x="340.087891" xlink:href="#DejaVuSans-61"/>
     </g>
    </g>
    <g id="line2d_36">
     <path d="M 320.504375 82.725278 
L 340.504375 82.725278 
" style="fill:none;stroke:#9467bd;stroke-linecap:square;stroke-width:1.5;"/>
    </g>
    <g id="line2d_37"/>
    <g id="text_20">
     <!-- highBeta -->
     <g transform="translate(348.504375 86.225278)scale(0.1 -0.1)">
      <use xlink:href="#DejaVuSans-68"/>
      <use x="63.378906" xlink:href="#DejaVuSans-69"/>
      <use x="91.162109" xlink:href="#DejaVuSans-67"/>
      <use x="154.638672" xlink:href="#DejaVuSans-68"/>
      <use x="218.017578" xlink:href="#DejaVuSans-42"/>
      <use x="286.621094" xlink:href="#DejaVuSans-65"/>
      <use x="348.144531" xlink:href="#DejaVuSans-74"/>
      <use x="387.353516" xlink:href="#DejaVuSans-61"/>
     </g>
    </g>
    <g id="line2d_38">
     <path d="M 320.504375 97.403403 
L 340.504375 97.403403 
" style="fill:none;stroke:#8c564b;stroke-linecap:square;stroke-width:1.5;"/>
    </g>
    <g id="line2d_39"/>
    <g id="text_21">
     <!-- lowGamma -->
     <defs>
      <path d="M 59.515625 10.40625 
L 59.515625 29.984375 
L 43.40625 29.984375 
L 43.40625 38.09375 
L 69.28125 38.09375 
L 69.28125 6.78125 
Q 63.578125 2.734375 56.6875 0.65625 
Q 49.8125 -1.421875 42 -1.421875 
Q 24.90625 -1.421875 15.25 8.5625 
Q 5.609375 18.5625 5.609375 36.375 
Q 5.609375 54.25 15.25 64.234375 
Q 24.90625 74.21875 42 74.21875 
Q 49.125 74.21875 55.546875 72.453125 
Q 61.96875 70.703125 67.390625 67.28125 
L 67.390625 56.78125 
Q 61.921875 61.421875 55.765625 63.765625 
Q 49.609375 66.109375 42.828125 66.109375 
Q 29.4375 66.109375 22.71875 58.640625 
Q 16.015625 51.171875 16.015625 36.375 
Q 16.015625 21.625 22.71875 14.15625 
Q 29.4375 6.6875 42.828125 6.6875 
Q 48.046875 6.6875 52.140625 7.59375 
Q 56.25 8.5 59.515625 10.40625 
" id="DejaVuSans-47"/>
      <path d="M 52 44.1875 
Q 55.375 50.25 60.0625 53.125 
Q 64.75 56 71.09375 56 
Q 79.640625 56 84.28125 50.015625 
Q 88.921875 44.046875 88.921875 33.015625 
L 88.921875 0 
L 79.890625 0 
L 79.890625 32.71875 
Q 79.890625 40.578125 77.09375 44.375 
Q 74.3125 48.1875 68.609375 48.1875 
Q 61.625 48.1875 57.5625 43.546875 
Q 53.515625 38.921875 53.515625 30.90625 
L 53.515625 0 
L 44.484375 0 
L 44.484375 32.71875 
Q 44.484375 40.625 41.703125 44.40625 
Q 38.921875 48.1875 33.109375 48.1875 
Q 26.21875 48.1875 22.15625 43.53125 
Q 18.109375 38.875 18.109375 30.90625 
L 18.109375 0 
L 9.078125 0 
L 9.078125 54.6875 
L 18.109375 54.6875 
L 18.109375 46.1875 
Q 21.1875 51.21875 25.484375 53.609375 
Q 29.78125 56 35.6875 56 
Q 41.65625 56 45.828125 52.96875 
Q 50 49.953125 52 44.1875 
" id="DejaVuSans-6d"/>
     </defs>
     <g transform="translate(348.504375 100.903403)scale(0.1 -0.1)">
      <use xlink:href="#DejaVuSans-6c"/>
      <use x="27.783203" xlink:href="#DejaVuSans-6f"/>
      <use x="88.964844" xlink:href="#DejaVuSans-77"/>
      <use x="170.751953" xlink:href="#DejaVuSans-47"/>
      <use x="248.242188" xlink:href="#DejaVuSans-61"/>
      <use x="309.521484" xlink:href="#DejaVuSans-6d"/>
      <use x="406.933594" xlink:href="#DejaVuSans-6d"/>
      <use x="504.345703" xlink:href="#DejaVuSans-61"/>
     </g>
    </g>
    <g id="line2d_40">
     <path d="M 320.504375 112.081528 
L 340.504375 112.081528 
" style="fill:none;stroke:#e377c2;stroke-linecap:square;stroke-width:1.5;"/>
    </g>
    <g id="line2d_41"/>
    <g id="text_22">
     <!-- midGamma -->
     <g transform="translate(348.504375 115.581528)scale(0.1 -0.1)">
      <use xlink:href="#DejaVuSans-6d"/>
      <use x="97.412109" xlink:href="#DejaVuSans-69"/>
      <use x="125.195312" xlink:href="#DejaVuSans-64"/>
      <use x="188.671875" xlink:href="#DejaVuSans-47"/>
      <use x="266.162109" xlink:href="#DejaVuSans-61"/>
      <use x="327.441406" xlink:href="#DejaVuSans-6d"/>
      <use x="424.853516" xlink:href="#DejaVuSans-6d"/>
      <use x="522.265625" xlink:href="#DejaVuSans-61"/>
     </g>
    </g>
    <g id="line2d_42">
     <path d="M 320.504375 126.759653 
L 340.504375 126.759653 
" style="fill:none;stroke:#7f7f7f;stroke-linecap:square;stroke-width:1.5;"/>
    </g>
    <g id="line2d_43"/>
    <g id="text_23">
     <!-- attention -->
     <defs>
      <path d="M 54.890625 33.015625 
L 54.890625 0 
L 45.90625 0 
L 45.90625 32.71875 
Q 45.90625 40.484375 42.875 44.328125 
Q 39.84375 48.1875 33.796875 48.1875 
Q 26.515625 48.1875 22.3125 43.546875 
Q 18.109375 38.921875 18.109375 30.90625 
L 18.109375 0 
L 9.078125 0 
L 9.078125 54.6875 
L 18.109375 54.6875 
L 18.109375 46.1875 
Q 21.34375 51.125 25.703125 53.5625 
Q 30.078125 56 35.796875 56 
Q 45.21875 56 50.046875 50.171875 
Q 54.890625 44.34375 54.890625 33.015625 
" id="DejaVuSans-6e"/>
     </defs>
     <g transform="translate(348.504375 130.259653)scale(0.1 -0.1)">
      <use xlink:href="#DejaVuSans-61"/>
      <use x="61.279297" xlink:href="#DejaVuSans-74"/>
      <use x="100.488281" xlink:href="#DejaVuSans-74"/>
      <use x="139.697266" xlink:href="#DejaVuSans-65"/>
      <use x="201.220703" xlink:href="#DejaVuSans-6e"/>
      <use x="264.599609" xlink:href="#DejaVuSans-74"/>
      <use x="303.808594" xlink:href="#DejaVuSans-69"/>
      <use x="331.591797" xlink:href="#DejaVuSans-6f"/>
      <use x="392.773438" xlink:href="#DejaVuSans-6e"/>
     </g>
    </g>
    <g id="line2d_44">
     <path d="M 320.504375 141.437778 
L 340.504375 141.437778 
" style="fill:none;stroke:#bcbd22;stroke-linecap:square;stroke-width:1.5;"/>
    </g>
    <g id="line2d_45"/>
    <g id="text_24">
     <!-- meditation -->
     <g transform="translate(348.504375 144.937778)scale(0.1 -0.1)">
      <use xlink:href="#DejaVuSans-6d"/>
      <use x="97.412109" xlink:href="#DejaVuSans-65"/>
      <use x="158.935547" xlink:href="#DejaVuSans-64"/>
      <use x="222.412109" xlink:href="#DejaVuSans-69"/>
      <use x="250.195312" xlink:href="#DejaVuSans-74"/>
      <use x="289.404297" xlink:href="#DejaVuSans-61"/>
      <use x="350.683594" xlink:href="#DejaVuSans-74"/>
      <use x="389.892578" xlink:href="#DejaVuSans-69"/>
      <use x="417.675781" xlink:href="#DejaVuSans-6f"/>
      <use x="478.857422" xlink:href="#DejaVuSans-6e"/>
     </g>
    </g>
    <g id="line2d_46">
     <path d="M 320.504375 156.115903 
L 340.504375 156.115903 
" style="fill:none;stroke:#17becf;stroke-linecap:square;stroke-width:1.5;"/>
    </g>
    <g id="line2d_47"/>
    <g id="text_25">
     <!-- rawValue -->
     <defs>
      <path d="M 41.109375 46.296875 
Q 39.59375 47.171875 37.8125 47.578125 
Q 36.03125 48 33.890625 48 
Q 26.265625 48 22.1875 43.046875 
Q 18.109375 38.09375 18.109375 28.8125 
L 18.109375 0 
L 9.078125 0 
L 9.078125 54.6875 
L 18.109375 54.6875 
L 18.109375 46.1875 
Q 20.953125 51.171875 25.484375 53.578125 
Q 30.03125 56 36.53125 56 
Q 37.453125 56 38.578125 55.875 
Q 39.703125 55.765625 41.0625 55.515625 
z
" id="DejaVuSans-72"/>
      <path d="M 28.609375 0 
L 0.78125 72.90625 
L 11.078125 72.90625 
L 34.1875 11.53125 
L 57.328125 72.90625 
L 67.578125 72.90625 
L 39.796875 0 
z
" id="DejaVuSans-56"/>
      <path d="M 8.5 21.578125 
L 8.5 54.6875 
L 17.484375 54.6875 
L 17.484375 21.921875 
Q 17.484375 14.15625 20.5 10.265625 
Q 23.53125 6.390625 29.59375 6.390625 
Q 36.859375 6.390625 41.078125 11.03125 
Q 45.3125 15.671875 45.3125 23.6875 
L 45.3125 54.6875 
L 54.296875 54.6875 
L 54.296875 0 
L 45.3125 0 
L 45.3125 8.40625 
Q 42.046875 3.421875 37.71875 1 
Q 33.40625 -1.421875 27.6875 -1.421875 
Q 18.265625 -1.421875 13.375 4.4375 
Q 8.5 10.296875 8.5 21.578125 
M 31.109375 56 
z
" id="DejaVuSans-75"/>
     </defs>
     <g transform="translate(348.504375 159.615903)scale(0.1 -0.1)">
      <use xlink:href="#DejaVuSans-72"/>
      <use x="41.113281" xlink:href="#DejaVuSans-61"/>
      <use x="102.392578" xlink:href="#DejaVuSans-77"/>
      <use x="184.179688" xlink:href="#DejaVuSans-56"/>
      <use x="252.478516" xlink:href="#DejaVuSans-61"/>
      <use x="313.757812" xlink:href="#DejaVuSans-6c"/>
      <use x="341.541016" xlink:href="#DejaVuSans-75"/>
      <use x="404.919922" xlink:href="#DejaVuSans-65"/>
     </g>
    </g>
   </g>
  </g>
 </g>
 <defs>
  <clipPath id="p23039fbb28">
   <rect height="266.112" width="357.12" x="58.7375" y="10.914341"/>
  </clipPath>
 </defs>
</svg>
