<?xml version="1.0" encoding="utf-8" standalone="no"?>
<!DOCTYPE svg PUBLIC "-//W3C//DTD SVG 1.1//EN"
  "http://www.w3.org/Graphics/SVG/1.1/DTD/svg11.dtd">
<!-- Created with matplotlib (http://matplotlib.org/) -->
<svg height="300pt" version="1.1" viewBox="0 0 426 300" width="426pt" xmlns="http://www.w3.org/2000/svg" xmlns:xlink="http://www.w3.org/1999/xlink">
 <defs>
  <style type="text/css">
*{stroke-linecap:butt;stroke-linejoin:round;}
  </style>
 </defs>
 <g id="figure_1">
  <g id="patch_1">
   <path d="M 0 300.690125 
L 426.5575 300.690125 
L 426.5575 0 
L 0 0 
z
" style="fill:#ffffff;"/>
  </g>
  <g id="axes_1">
   <g id="patch_2">
    <path d="M 58.7375 276.812 
L 415.8575 276.812 
L 415.8575 10.7 
L 58.7375 10.7 
z
" style="fill:#ffffff;"/>
   </g>
   <g id="matplotlib.axis_1">
    <g id="xtick_1">
     <g id="line2d_1">
      <defs>
       <path d="M 0 0 
L 0 3.5 
" id="m7dacef9a46" style="stroke:#000000;stroke-width:0.8;"/>
      </defs>
      <g>
       <use style="stroke:#000000;stroke-width:0.8;" x="74.970227" xlink:href="#m7dacef9a46" y="276.812"/>
      </g>
     </g>
     <g id="text_1">
      <!-- 0 -->
      <defs>
       <path d="M 31.78125 66.40625 
Q 24.171875 66.40625 20.328125 58.90625 
Q 16.5 51.421875 16.5 36.375 
Q 16.5 21.390625 20.328125 13.890625 
Q 24.171875 6.390625 31.78125 6.390625 
Q 39.453125 6.390625 43.28125 13.890625 
Q 47.125 21.390625 47.125 36.375 
Q 47.125 51.421875 43.28125 58.90625 
Q 39.453125 66.40625 31.78125 66.40625 
M 31.78125 74.21875 
Q 44.046875 74.21875 50.515625 64.515625 
Q 56.984375 54.828125 56.984375 36.375 
Q 56.984375 17.96875 50.515625 8.265625 
Q 44.046875 -1.421875 31.78125 -1.421875 
Q 19.53125 -1.421875 13.0625 8.265625 
Q 6.59375 17.96875 6.59375 36.375 
Q 6.59375 54.828125 13.0625 64.515625 
Q 19.53125 74.21875 31.78125 74.21875 
" id="DejaVuSans-30"/>
      </defs>
      <g transform="translate(71.788977 291.410437)scale(0.1 -0.1)">
       <use xlink:href="#DejaVuSans-30"/>
      </g>
     </g>
    </g>
    <g id="xtick_2">
     <g id="line2d_2">
      <g>
       <use style="stroke:#000000;stroke-width:0.8;" x="118.142374" xlink:href="#m7dacef9a46" y="276.812"/>
      </g>
     </g>
     <g id="text_2">
      <!-- 25 -->
      <defs>
       <path d="M 19.1875 8.296875 
L 53.609375 8.296875 
L 53.609375 0 
L 7.328125 0 
L 7.328125 8.296875 
Q 12.9375 14.109375 22.625 23.890625 
Q 32.328125 33.6875 34.8125 36.53125 
Q 39.546875 41.84375 41.421875 45.53125 
Q 43.3125 49.21875 43.3125 52.78125 
Q 43.3125 58.59375 39.234375 62.25 
Q 35.15625 65.921875 28.609375 65.921875 
Q 23.96875 65.921875 18.8125 64.3125 
Q 13.671875 62.703125 7.8125 59.421875 
L 7.8125 69.390625 
Q 13.765625 71.78125 18.9375 73 
Q 24.125 74.21875 28.421875 74.21875 
Q 39.75 74.21875 46.484375 68.546875 
Q 53.21875 62.890625 53.21875 53.421875 
Q 53.21875 48.921875 51.53125 44.890625 
Q 49.859375 40.875 45.40625 35.40625 
Q 44.1875 33.984375 37.640625 27.21875 
Q 31.109375 20.453125 19.1875 8.296875 
" id="DejaVuSans-32"/>
       <path d="M 10.796875 72.90625 
L 49.515625 72.90625 
L 49.515625 64.59375 
L 19.828125 64.59375 
L 19.828125 46.734375 
Q 21.96875 47.46875 24.109375 47.828125 
Q 26.265625 48.1875 28.421875 48.1875 
Q 40.625 48.1875 47.75 41.5 
Q 54.890625 34.8125 54.890625 23.390625 
Q 54.890625 11.625 47.5625 5.09375 
Q 40.234375 -1.421875 26.90625 -1.421875 
Q 22.3125 -1.421875 17.546875 -0.640625 
Q 12.796875 0.140625 7.71875 1.703125 
L 7.71875 11.625 
Q 12.109375 9.234375 16.796875 8.0625 
Q 21.484375 6.890625 26.703125 6.890625 
Q 35.15625 6.890625 40.078125 11.328125 
Q 45.015625 15.765625 45.015625 23.390625 
Q 45.015625 31 40.078125 35.4375 
Q 35.15625 39.890625 26.703125 39.890625 
Q 22.75 39.890625 18.8125 39.015625 
Q 14.890625 38.140625 10.796875 36.28125 
z
" id="DejaVuSans-35"/>
      </defs>
      <g transform="translate(111.779874 291.410437)scale(0.1 -0.1)">
       <use xlink:href="#DejaVuSans-32"/>
       <use x="63.623047" xlink:href="#DejaVuSans-35"/>
      </g>
     </g>
    </g>
    <g id="xtick_3">
     <g id="line2d_3">
      <g>
       <use style="stroke:#000000;stroke-width:0.8;" x="161.314521" xlink:href="#m7dacef9a46" y="276.812"/>
      </g>
     </g>
     <g id="text_3">
      <!-- 50 -->
      <g transform="translate(154.952021 291.410437)scale(0.1 -0.1)">
       <use xlink:href="#DejaVuSans-35"/>
       <use x="63.623047" xlink:href="#DejaVuSans-30"/>
      </g>
     </g>
    </g>
    <g id="xtick_4">
     <g id="line2d_4">
      <g>
       <use style="stroke:#000000;stroke-width:0.8;" x="204.486668" xlink:href="#m7dacef9a46" y="276.812"/>
      </g>
     </g>
     <g id="text_4">
      <!-- 75 -->
      <defs>
       <path d="M 8.203125 72.90625 
L 55.078125 72.90625 
L 55.078125 68.703125 
L 28.609375 0 
L 18.3125 0 
L 43.21875 64.59375 
L 8.203125 64.59375 
z
" id="DejaVuSans-37"/>
      </defs>
      <g transform="translate(198.124168 291.410437)scale(0.1 -0.1)">
       <use xlink:href="#DejaVuSans-37"/>
       <use x="63.623047" xlink:href="#DejaVuSans-35"/>
      </g>
     </g>
    </g>
    <g id="xtick_5">
     <g id="line2d_5">
      <g>
       <use style="stroke:#000000;stroke-width:0.8;" x="247.658815" xlink:href="#m7dacef9a46" y="276.812"/>
      </g>
     </g>
     <g id="text_5">
      <!-- 100 -->
      <defs>
       <path d="M 12.40625 8.296875 
L 28.515625 8.296875 
L 28.515625 63.921875 
L 10.984375 60.40625 
L 10.984375 69.390625 
L 28.421875 72.90625 
L 38.28125 72.90625 
L 38.28125 8.296875 
L 54.390625 8.296875 
L 54.390625 0 
L 12.40625 0 
z
" id="DejaVuSans-31"/>
      </defs>
      <g transform="translate(238.115065 291.410437)scale(0.1 -0.1)">
       <use xlink:href="#DejaVuSans-31"/>
       <use x="63.623047" xlink:href="#DejaVuSans-30"/>
       <use x="127.246094" xlink:href="#DejaVuSans-30"/>
      </g>
     </g>
    </g>
    <g id="xtick_6">
     <g id="line2d_6">
      <g>
       <use style="stroke:#000000;stroke-width:0.8;" x="290.830962" xlink:href="#m7dacef9a46" y="276.812"/>
      </g>
     </g>
     <g id="text_6">
      <!-- 125 -->
      <g transform="translate(281.287212 291.410437)scale(0.1 -0.1)">
       <use xlink:href="#DejaVuSans-31"/>
       <use x="63.623047" xlink:href="#DejaVuSans-32"/>
       <use x="127.246094" xlink:href="#DejaVuSans-35"/>
      </g>
     </g>
    </g>
    <g id="xtick_7">
     <g id="line2d_7">
      <g>
       <use style="stroke:#000000;stroke-width:0.8;" x="334.003109" xlink:href="#m7dacef9a46" y="276.812"/>
      </g>
     </g>
     <g id="text_7">
      <!-- 150 -->
      <g transform="translate(324.459359 291.410437)scale(0.1 -0.1)">
       <use xlink:href="#DejaVuSans-31"/>
       <use x="63.623047" xlink:href="#DejaVuSans-35"/>
       <use x="127.246094" xlink:href="#DejaVuSans-30"/>
      </g>
     </g>
    </g>
    <g id="xtick_8">
     <g id="line2d_8">
      <g>
       <use style="stroke:#000000;stroke-width:0.8;" x="377.175256" xlink:href="#m7dacef9a46" y="276.812"/>
      </g>
     </g>
     <g id="text_8">
      <!-- 175 -->
      <g transform="translate(367.631506 291.410437)scale(0.1 -0.1)">
       <use xlink:href="#DejaVuSans-31"/>
       <use x="63.623047" xlink:href="#DejaVuSans-37"/>
       <use x="127.246094" xlink:href="#DejaVuSans-35"/>
      </g>
     </g>
    </g>
   </g>
   <g id="matplotlib.axis_2">
    <g id="ytick_1">
     <g id="line2d_9">
      <defs>
       <path d="M 0 0 
L -3.5 0 
" id="m36aaa7b382" style="stroke:#000000;stroke-width:0.8;"/>
      </defs>
      <g>
       <use style="stroke:#000000;stroke-width:0.8;" x="58.7375" xlink:href="#m36aaa7b382" y="264.626303"/>
      </g>
     </g>
     <g id="text_9">
      <!-- 0 -->
      <g transform="translate(45.375 268.425522)scale(0.1 -0.1)">
       <use xlink:href="#DejaVuSans-30"/>
      </g>
     </g>
    </g>
    <g id="ytick_2">
     <g id="line2d_10">
      <g>
       <use style="stroke:#000000;stroke-width:0.8;" x="58.7375" xlink:href="#m36aaa7b382" y="231.866359"/>
      </g>
     </g>
     <g id="text_10">
      <!-- 500000 -->
      <g transform="translate(13.5625 235.665578)scale(0.1 -0.1)">
       <use xlink:href="#DejaVuSans-35"/>
       <use x="63.623047" xlink:href="#DejaVuSans-30"/>
       <use x="127.246094" xlink:href="#DejaVuSans-30"/>
       <use x="190.869141" xlink:href="#DejaVuSans-30"/>
       <use x="254.492188" xlink:href="#DejaVuSans-30"/>
       <use x="318.115234" xlink:href="#DejaVuSans-30"/>
      </g>
     </g>
    </g>
    <g id="ytick_3">
     <g id="line2d_11">
      <g>
       <use style="stroke:#000000;stroke-width:0.8;" x="58.7375" xlink:href="#m36aaa7b382" y="199.106415"/>
      </g>
     </g>
     <g id="text_11">
      <!-- 1000000 -->
      <g transform="translate(7.2 202.905634)scale(0.1 -0.1)">
       <use xlink:href="#DejaVuSans-31"/>
       <use x="63.623047" xlink:href="#DejaVuSans-30"/>
       <use x="127.246094" xlink:href="#DejaVuSans-30"/>
       <use x="190.869141" xlink:href="#DejaVuSans-30"/>
       <use x="254.492188" xlink:href="#DejaVuSans-30"/>
       <use x="318.115234" xlink:href="#DejaVuSans-30"/>
       <use x="381.738281" xlink:href="#DejaVuSans-30"/>
      </g>
     </g>
    </g>
    <g id="ytick_4">
     <g id="line2d_12">
      <g>
       <use style="stroke:#000000;stroke-width:0.8;" x="58.7375" xlink:href="#m36aaa7b382" y="166.346471"/>
      </g>
     </g>
     <g id="text_12">
      <!-- 1500000 -->
      <g transform="translate(7.2 170.14569)scale(0.1 -0.1)">
       <use xlink:href="#DejaVuSans-31"/>
       <use x="63.623047" xlink:href="#DejaVuSans-35"/>
       <use x="127.246094" xlink:href="#DejaVuSans-30"/>
       <use x="190.869141" xlink:href="#DejaVuSans-30"/>
       <use x="254.492188" xlink:href="#DejaVuSans-30"/>
       <use x="318.115234" xlink:href="#DejaVuSans-30"/>
       <use x="381.738281" xlink:href="#DejaVuSans-30"/>
      </g>
     </g>
    </g>
    <g id="ytick_5">
     <g id="line2d_13">
      <g>
       <use style="stroke:#000000;stroke-width:0.8;" x="58.7375" xlink:href="#m36aaa7b382" y="133.586527"/>
      </g>
     </g>
     <g id="text_13">
      <!-- 2000000 -->
      <g transform="translate(7.2 137.385746)scale(0.1 -0.1)">
       <use xlink:href="#DejaVuSans-32"/>
       <use x="63.623047" xlink:href="#DejaVuSans-30"/>
       <use x="127.246094" xlink:href="#DejaVuSans-30"/>
       <use x="190.869141" xlink:href="#DejaVuSans-30"/>
       <use x="254.492188" xlink:href="#DejaVuSans-30"/>
       <use x="318.115234" xlink:href="#DejaVuSans-30"/>
       <use x="381.738281" xlink:href="#DejaVuSans-30"/>
      </g>
     </g>
    </g>
    <g id="ytick_6">
     <g id="line2d_14">
      <g>
       <use style="stroke:#000000;stroke-width:0.8;" x="58.7375" xlink:href="#m36aaa7b382" y="100.826583"/>
      </g>
     </g>
     <g id="text_14">
      <!-- 2500000 -->
      <g transform="translate(7.2 104.625802)scale(0.1 -0.1)">
       <use xlink:href="#DejaVuSans-32"/>
       <use x="63.623047" xlink:href="#DejaVuSans-35"/>
       <use x="127.246094" xlink:href="#DejaVuSans-30"/>
       <use x="190.869141" xlink:href="#DejaVuSans-30"/>
       <use x="254.492188" xlink:href="#DejaVuSans-30"/>
       <use x="318.115234" xlink:href="#DejaVuSans-30"/>
       <use x="381.738281" xlink:href="#DejaVuSans-30"/>
      </g>
     </g>
    </g>
    <g id="ytick_7">
     <g id="line2d_15">
      <g>
       <use style="stroke:#000000;stroke-width:0.8;" x="58.7375" xlink:href="#m36aaa7b382" y="68.066639"/>
      </g>
     </g>
     <g id="text_15">
      <!-- 3000000 -->
      <defs>
       <path d="M 40.578125 39.3125 
Q 47.65625 37.796875 51.625 33 
Q 55.609375 28.21875 55.609375 21.1875 
Q 55.609375 10.40625 48.1875 4.484375 
Q 40.765625 -1.421875 27.09375 -1.421875 
Q 22.515625 -1.421875 17.65625 -0.515625 
Q 12.796875 0.390625 7.625 2.203125 
L 7.625 11.71875 
Q 11.71875 9.328125 16.59375 8.109375 
Q 21.484375 6.890625 26.8125 6.890625 
Q 36.078125 6.890625 40.9375 10.546875 
Q 45.796875 14.203125 45.796875 21.1875 
Q 45.796875 27.640625 41.28125 31.265625 
Q 36.765625 34.90625 28.71875 34.90625 
L 20.21875 34.90625 
L 20.21875 43.015625 
L 29.109375 43.015625 
Q 36.375 43.015625 40.234375 45.921875 
Q 44.09375 48.828125 44.09375 54.296875 
Q 44.09375 59.90625 40.109375 62.90625 
Q 36.140625 65.921875 28.71875 65.921875 
Q 24.65625 65.921875 20.015625 65.03125 
Q 15.375 64.15625 9.8125 62.3125 
L 9.8125 71.09375 
Q 15.4375 72.65625 20.34375 73.4375 
Q 25.25 74.21875 29.59375 74.21875 
Q 40.828125 74.21875 47.359375 69.109375 
Q 53.90625 64.015625 53.90625 55.328125 
Q 53.90625 49.265625 50.4375 45.09375 
Q 46.96875 40.921875 40.578125 39.3125 
" id="DejaVuSans-33"/>
      </defs>
      <g transform="translate(7.2 71.865858)scale(0.1 -0.1)">
       <use xlink:href="#DejaVuSans-33"/>
       <use x="63.623047" xlink:href="#DejaVuSans-30"/>
       <use x="127.246094" xlink:href="#DejaVuSans-30"/>
       <use x="190.869141" xlink:href="#DejaVuSans-30"/>
       <use x="254.492188" xlink:href="#DejaVuSans-30"/>
       <use x="318.115234" xlink:href="#DejaVuSans-30"/>
       <use x="381.738281" xlink:href="#DejaVuSans-30"/>
      </g>
     </g>
    </g>
    <g id="ytick_8">
     <g id="line2d_16">
      <g>
       <use style="stroke:#000000;stroke-width:0.8;" x="58.7375" xlink:href="#m36aaa7b382" y="35.306695"/>
      </g>
     </g>
     <g id="text_16">
      <!-- 3500000 -->
      <g transform="translate(7.2 39.105914)scale(0.1 -0.1)">
       <use xlink:href="#DejaVuSans-33"/>
       <use x="63.623047" xlink:href="#DejaVuSans-35"/>
       <use x="127.246094" xlink:href="#DejaVuSans-30"/>
       <use x="190.869141" xlink:href="#DejaVuSans-30"/>
       <use x="254.492188" xlink:href="#DejaVuSans-30"/>
       <use x="318.115234" xlink:href="#DejaVuSans-30"/>
       <use x="381.738281" xlink:href="#DejaVuSans-30"/>
      </g>
     </g>
    </g>
   </g>
   <g id="line2d_17">
    <path clip-path="url(#p4d142fbc16)" d="M 74.970227 167.106764 
L 76.697113 199.03893 
L 78.423999 257.775282 
L 80.150885 222.150808 
L 81.877771 161.874739 
L 83.604657 226.246456 
L 85.331543 133.877173 
L 87.058428 151.879549 
L 88.785314 209.437526 
L 90.5122 248.798729 
L 92.239086 169.761433 
L 93.965972 242.459811 
L 97.419744 178.07499 
L 99.14663 162.671657 
L 100.873515 224.483054 
L 102.600401 247.089643 
L 104.327287 159.987111 
L 106.054173 128.323249 
L 107.781059 183.933844 
L 109.507945 208.460297 
L 111.234831 212.810096 
L 112.961717 188.925804 
L 114.688603 121.295324 
L 116.415488 238.76259 
L 118.142374 174.757914 
L 119.86926 211.970393 
L 121.596146 198.998635 
L 123.323032 201.754795 
L 125.049918 195.85296 
L 126.776804 205.488052 
L 128.50369 221.763258 
L 130.230575 208.01653 
L 131.957461 146.504756 
L 133.684347 156.852639 
L 135.411233 174.804499 
L 137.138119 242.697911 
L 138.865005 220.331517 
L 140.591891 256.609945 
L 142.318777 167.856705 
L 144.045662 226.84426 
L 145.772548 203.393906 
L 147.499434 195.565262 
L 149.22632 223.774457 
L 150.953206 161.492627 
L 152.680092 213.411831 
L 154.406978 151.680368 
L 156.133864 103.784413 
L 157.86075 178.206095 
L 159.587635 200.003382 
L 161.314521 218.486215 
L 163.041407 199.933735 
L 164.768293 130.371466 
L 168.222065 250.378807 
L 169.948951 239.584537 
L 171.675837 172.402802 
L 173.402722 184.835594 
L 175.129608 212.41737 
L 176.856494 226.574056 
L 178.58338 212.569638 
L 180.310266 190.457987 
L 182.037152 251.765929 
L 183.764038 178.195284 
L 185.490924 218.456273 
L 187.217809 225.567081 
L 188.944695 25.361497 
L 190.671581 79.69773 
L 192.398467 197.717983 
L 194.125353 253.423123 
L 195.852239 219.991666 
L 197.579125 200.407444 
L 199.306011 178.219265 
L 201.032897 216.115706 
L 202.759782 263.830106 
L 204.486668 150.921255 
L 206.213554 244.949633 
L 207.94044 205.52874 
L 209.667326 211.600403 
L 211.394212 142.769008 
L 213.121098 211.944579 
L 214.847984 205.278585 
L 216.574869 254.611588 
L 218.301755 261.476238 
L 220.028641 197.344979 
L 221.755527 249.935696 
L 223.482413 227.508566 
L 225.209299 230.396617 
L 226.936185 243.86613 
L 228.663071 72.889624 
L 230.389956 254.987804 
L 232.116842 228.030825 
L 233.843728 255.495517 
L 235.570614 169.530934 
L 237.2975 210.743534 
L 239.024386 200.40633 
L 240.751272 205.279634 
L 242.478158 238.929338 
L 244.205044 189.103625 
L 245.931929 214.92082 
L 247.658815 103.471424 
L 249.385701 261.355288 
L 251.112587 177.80092 
L 252.839473 254.677305 
L 254.566359 249.62677 
L 256.293245 172.150092 
L 258.020131 205.864857 
L 259.747016 132.016933 
L 261.473902 246.451021 
L 263.200788 177.928356 
L 264.927674 251.300279 
L 266.65456 203.784863 
L 268.381446 212.350605 
L 270.108332 225.25383 
L 271.835218 234.622977 
L 273.562103 203.818016 
L 275.288989 190.999967 
L 277.015875 255.655058 
L 278.742761 172.792252 
L 280.469647 249.463429 
L 282.196533 203.012973 
L 283.923419 76.61384 
L 285.650305 183.880838 
L 287.377191 216.391938 
L 289.104076 198.171577 
L 290.830962 22.796 
L 292.557848 206.889457 
L 294.284734 192.389644 
L 296.01162 146.885688 
L 297.738506 245.845814 
L 299.465392 260.59742 
L 301.192278 168.887463 
L 302.919163 181.844677 
L 304.646049 192.793902 
L 306.372935 242.069051 
L 308.099821 250.764195 
L 309.826707 243.109703 
L 311.553593 196.232909 
L 313.280479 262.285212 
L 315.007365 125.551103 
L 316.73425 219.483887 
L 318.461136 232.278807 
L 320.188022 217.493065 
L 321.914908 235.579502 
L 323.641794 176.974452 
L 325.36868 131.065125 
L 327.095566 244.222624 
L 330.549338 182.379319 
L 332.276223 247.103861 
L 334.003109 243.568997 
L 335.729995 247.855833 
L 337.456881 168.762255 
L 339.183767 240.617982 
L 340.910653 116.235026 
L 342.637539 184.818624 
L 344.364425 220.772335 
L 346.09131 169.487298 
L 347.818196 257.220328 
L 349.545082 141.658119 
L 351.271968 246.357131 
L 352.998854 255.065903 
L 354.72574 227.350008 
L 356.452626 255.745279 
L 358.179512 233.181605 
L 359.906397 219.066722 
L 361.633283 167.155183 
L 363.360169 164.739465 
L 365.087055 155.346075 
L 366.813941 241.295326 
L 368.540827 210.561323 
L 370.267713 248.834372 
L 371.994599 263.027225 
L 373.721485 233.230614 
L 375.44837 125.77577 
L 377.175256 240.646876 
L 378.902142 224.724888 
L 380.629028 198.835687 
L 382.355914 262.28993 
L 384.0828 220.52716 
L 385.809686 210.335803 
L 387.536572 258.213741 
L 389.263457 232.561132 
L 390.990343 263.383915 
L 392.717229 218.722349 
L 394.444115 126.086662 
L 396.171001 229.541583 
L 397.897887 254.853684 
L 399.624773 219.348129 
L 399.624773 219.348129 
" style="fill:none;stroke:#1f77b4;stroke-linecap:square;stroke-width:1.5;"/>
   </g>
   <g id="line2d_18">
    <path clip-path="url(#p4d142fbc16)" d="M 74.970227 262.665752 
L 76.697113 264.037279 
L 78.423999 246.884304 
L 80.150885 258.813379 
L 81.877771 248.009018 
L 83.604657 261.306148 
L 85.331543 256.079627 
L 87.058428 227.06919 
L 88.785314 262.979461 
L 90.5122 264.180965 
L 92.239086 260.013507 
L 93.965972 253.510527 
L 95.692858 249.69491 
L 97.419744 243.283789 
L 99.14663 263.733595 
L 100.873515 262.584114 
L 102.600401 264.521799 
L 104.327287 251.015988 
L 106.054173 232.399495 
L 107.781059 263.853496 
L 109.507945 261.961216 
L 111.234831 261.98998 
L 112.961717 248.543464 
L 114.688603 246.49374 
L 116.415488 261.056059 
L 118.142374 251.303489 
L 119.86926 202.386079 
L 121.596146 255.435239 
L 123.323032 261.995221 
L 125.049918 260.560991 
L 126.776804 256.238251 
L 128.50369 262.252256 
L 130.230575 254.329984 
L 133.684347 240.167664 
L 135.411233 254.08494 
L 137.138119 203.86519 
L 138.865005 261.364003 
L 140.591891 264.260702 
L 142.318777 263.228043 
L 144.045662 262.747717 
L 145.772548 263.229943 
L 147.499434 254.32317 
L 149.22632 258.189236 
L 150.953206 263.492088 
L 152.680092 252.043667 
L 154.406978 261.393749 
L 156.133864 261.390342 
L 157.86075 255.748162 
L 159.587635 256.603196 
L 161.314521 263.18729 
L 163.041407 258.85636 
L 164.768293 256.815808 
L 166.495179 250.75476 
L 168.222065 263.798066 
L 169.948951 260.1796 
L 171.675837 255.383675 
L 173.402722 263.764979 
L 175.129608 264.122586 
L 176.856494 262.582541 
L 178.58338 252.657654 
L 180.310266 252.616442 
L 182.037152 260.08073 
L 183.764038 244.256694 
L 185.490924 263.474202 
L 187.217809 252.55446 
L 188.944695 248.445315 
L 190.671581 180.891231 
L 192.398467 261.942347 
L 195.852239 261.717744 
L 197.579125 262.099005 
L 199.306011 258.534723 
L 201.032897 262.920886 
L 202.759782 264.143618 
L 204.486668 262.371436 
L 206.213554 263.513251 
L 207.94044 262.460543 
L 209.667326 262.553123 
L 211.394212 262.978937 
L 213.121098 250.62051 
L 214.847984 249.553715 
L 216.574869 263.271155 
L 218.301755 262.763049 
L 220.028641 261.510439 
L 221.755527 250.605702 
L 223.482413 262.503 
L 225.209299 255.005559 
L 226.936185 261.955123 
L 228.663071 237.705099 
L 230.389956 262.192043 
L 232.116842 263.34172 
L 233.843728 214.263393 
L 235.570614 263.414775 
L 237.2975 263.453235 
L 239.024386 255.69496 
L 240.751272 261.647769 
L 242.478158 250.39178 
L 244.205044 245.716739 
L 245.931929 263.0839 
L 247.658815 238.35368 
L 249.385701 264.07384 
L 251.112587 262.052551 
L 252.839473 262.418742 
L 254.566359 260.732456 
L 256.293245 241.716423 
L 258.020131 257.812235 
L 259.747016 219.200054 
L 261.473902 259.977143 
L 263.200788 260.585823 
L 264.927674 262.86716 
L 266.65456 243.14528 
L 268.381446 246.256754 
L 270.108332 263.674823 
L 271.835218 260.768296 
L 273.562103 258.806827 
L 275.288989 259.378291 
L 277.015875 263.55335 
L 278.742761 248.274505 
L 280.469647 258.867564 
L 282.196533 258.372627 
L 283.923419 245.097511 
L 285.650305 262.102084 
L 287.377191 248.474668 
L 289.104076 252.150792 
L 290.830962 254.300434 
L 292.557848 263.199739 
L 294.284734 264.045863 
L 296.01162 255.841921 
L 297.738506 263.528911 
L 299.465392 262.853859 
L 301.192278 248.184415 
L 302.919163 251.47751 
L 304.646049 252.345452 
L 306.372935 256.83684 
L 308.099821 263.687141 
L 309.826707 180.218932 
L 311.553593 253.587644 
L 313.280479 263.486454 
L 315.007365 240.630889 
L 316.73425 260.552146 
L 318.461136 261.862936 
L 320.188022 247.753622 
L 321.914908 258.073332 
L 323.641794 250.134156 
L 325.36868 255.184101 
L 327.095566 249.506541 
L 328.822452 260.051508 
L 330.549338 252.216902 
L 332.276223 257.688926 
L 334.003109 252.946597 
L 335.729995 254.898434 
L 337.456881 244.864391 
L 339.183767 256.518479 
L 340.910653 257.377052 
L 342.637539 245.146454 
L 344.364425 261.391521 
L 346.09131 246.591758 
L 347.818196 262.16708 
L 349.545082 257.214694 
L 351.271968 263.223457 
L 352.998854 260.638763 
L 356.452626 258.785467 
L 358.179512 256.888208 
L 359.906397 261.842232 
L 361.633283 261.367475 
L 363.360169 253.66476 
L 365.087055 260.152409 
L 366.813941 260.503857 
L 368.540827 259.762893 
L 370.267713 263.546536 
L 371.994599 259.028612 
L 373.721485 262.254614 
L 375.44837 249.663657 
L 377.175256 259.489282 
L 378.902142 207.709373 
L 380.629028 260.258223 
L 382.355914 263.665847 
L 384.0828 262.836628 
L 385.809686 253.99236 
L 387.536572 262.797774 
L 389.263457 260.899008 
L 390.990343 263.494185 
L 392.717229 262.996431 
L 394.444115 250.82408 
L 396.171001 256.024328 
L 397.897887 258.96984 
L 399.624773 234.017705 
L 399.624773 234.017705 
" style="fill:none;stroke:#ff7f0e;stroke-linecap:square;stroke-width:1.5;"/>
   </g>
   <g id="line2d_19">
    <path clip-path="url(#p4d142fbc16)" d="M 74.970227 263.403768 
L 76.697113 264.455558 
L 78.423999 263.130026 
L 80.150885 260.585757 
L 81.877771 264.077443 
L 83.604657 264.507581 
L 85.331543 262.713188 
L 87.058428 258.998931 
L 88.785314 264.429285 
L 90.5122 264.411267 
L 92.239086 264.276427 
L 93.965972 262.647734 
L 95.692858 264.088254 
L 97.419744 260.976911 
L 100.873515 264.388925 
L 102.600401 264.354723 
L 104.327287 241.624367 
L 106.054173 252.213626 
L 107.781059 264.070564 
L 109.507945 263.879901 
L 111.234831 262.666866 
L 112.961717 258.128041 
L 114.688603 255.077893 
L 116.415488 264.455689 
L 118.142374 252.429121 
L 119.86926 258.666876 
L 121.596146 264.132742 
L 123.323032 264.343061 
L 125.049918 264.404191 
L 126.776804 263.358624 
L 128.50369 261.266312 
L 130.230575 263.141361 
L 131.957461 262.928224 
L 133.684347 253.940861 
L 135.411233 257.217773 
L 137.138119 257.44493 
L 138.865005 263.311057 
L 140.591891 264.55718 
L 144.045662 264.172119 
L 145.772548 263.747878 
L 147.499434 260.398567 
L 149.22632 263.035546 
L 150.953206 264.0418 
L 152.680092 262.429618 
L 154.406978 264.102013 
L 156.133864 263.093334 
L 157.86075 263.397674 
L 159.587635 260.375307 
L 161.314521 263.578313 
L 163.041407 263.785749 
L 164.768293 257.18272 
L 166.495179 262.956201 
L 168.222065 264.503126 
L 169.948951 264.303749 
L 171.675837 263.543915 
L 173.402722 264.60763 
L 175.129608 264.279965 
L 176.856494 264.176968 
L 178.58338 263.207667 
L 180.310266 259.960698 
L 182.037152 263.728091 
L 183.764038 262.756759 
L 185.490924 263.988009 
L 187.217809 263.21507 
L 188.944695 263.824471 
L 190.671581 263.702145 
L 192.398467 264.310432 
L 194.125353 264.388401 
L 195.852239 263.589582 
L 197.579125 264.372086 
L 199.306011 263.446487 
L 201.032897 264.267778 
L 202.759782 264.604878 
L 204.486668 264.346599 
L 206.213554 263.900277 
L 207.94044 264.245895 
L 209.667326 262.224803 
L 211.394212 263.2724 
L 213.121098 263.393153 
L 214.847984 264.061587 
L 218.301755 263.924651 
L 220.028641 263.474398 
L 221.755527 262.683704 
L 223.482413 264.047042 
L 225.209299 262.732844 
L 226.936185 263.648681 
L 228.663071 258.285092 
L 230.389956 264.299883 
L 232.116842 264.053463 
L 233.843728 258.69256 
L 235.570614 264.303356 
L 237.2975 264.477508 
L 239.024386 263.988926 
L 240.751272 262.866767 
L 242.478158 263.762424 
L 244.205044 262.745096 
L 245.931929 262.892319 
L 247.658815 253.436555 
L 249.385701 264.280882 
L 251.112587 263.282425 
L 252.839473 264.361341 
L 254.566359 264.505747 
L 256.293245 251.517346 
L 258.020131 263.630729 
L 259.747016 248.618288 
L 261.473902 262.246752 
L 263.200788 263.11548 
L 264.927674 264.330415 
L 266.65456 264.501947 
L 268.381446 262.589028 
L 270.108332 264.038786 
L 271.835218 263.634725 
L 273.562103 263.479705 
L 275.288989 262.122854 
L 277.015875 264.421881 
L 278.742761 262.87096 
L 280.469647 264.1085 
L 282.196533 264.506074 
L 283.923419 258.191661 
L 285.650305 263.603603 
L 289.104076 264.221652 
L 290.830962 260.549852 
L 292.557848 264.293986 
L 294.284734 264.097885 
L 296.01162 263.495233 
L 297.738506 264.370448 
L 299.465392 264.414477 
L 301.192278 262.832434 
L 302.919163 263.176283 
L 304.646049 262.836234 
L 308.099821 264.503453 
L 309.826707 260.038077 
L 311.553593 262.497759 
L 313.280479 264.517606 
L 315.007365 264.153315 
L 316.73425 264.272955 
L 318.461136 262.480527 
L 320.188022 257.514382 
L 321.914908 264.195051 
L 323.641794 259.254197 
L 325.36868 260.503988 
L 327.095566 263.584734 
L 328.822452 262.336842 
L 330.549338 258.811413 
L 332.276223 264.090482 
L 334.003109 262.34857 
L 335.729995 253.823319 
L 337.456881 262.951287 
L 339.183767 261.336157 
L 340.910653 263.870859 
L 342.637539 263.474988 
L 344.364425 263.742047 
L 346.09131 259.024156 
L 347.818196 263.93271 
L 349.545082 264.386566 
L 351.271968 264.332578 
L 352.998854 264.532217 
L 354.72574 262.670469 
L 356.452626 264.368483 
L 358.179512 263.116528 
L 359.906397 263.574054 
L 361.633283 261.980217 
L 363.360169 263.698149 
L 365.087055 263.3486 
L 366.813941 263.259689 
L 368.540827 264.587974 
L 370.267713 264.031841 
L 371.994599 264.069843 
L 373.721485 263.399902 
L 375.44837 260.429099 
L 377.175256 263.597903 
L 378.902142 258.038016 
L 380.629028 262.950632 
L 382.355914 264.531365 
L 385.809686 263.827092 
L 387.536572 264.384142 
L 389.263457 263.805798 
L 390.990343 264.523896 
L 392.717229 264.358327 
L 394.444115 262.817758 
L 396.171001 263.45697 
L 397.897887 263.937689 
L 399.624773 262.289799 
L 399.624773 262.289799 
" style="fill:none;stroke:#2ca02c;stroke-linecap:square;stroke-width:1.5;"/>
   </g>
   <g id="line2d_20">
    <path clip-path="url(#p4d142fbc16)" d="M 74.970227 263.842358 
L 76.697113 263.876756 
L 78.423999 264.178278 
L 80.150885 262.589093 
L 81.877771 262.412583 
L 83.604657 264.424502 
L 85.331543 261.998366 
L 87.058428 254.958844 
L 88.785314 264.262078 
L 90.5122 264.508236 
L 92.239086 262.924948 
L 93.965972 263.263817 
L 95.692858 262.986799 
L 97.419744 258.53885 
L 99.14663 263.315906 
L 100.873515 264.083471 
L 102.600401 264.512102 
L 104.327287 263.073351 
L 106.054173 258.939505 
L 107.781059 263.257396 
L 109.507945 263.588534 
L 111.234831 263.262376 
L 114.688603 261.427819 
L 116.415488 264.512626 
L 118.142374 261.880889 
L 119.86926 258.233528 
L 121.596146 263.440459 
L 123.323032 263.855593 
L 125.049918 263.970056 
L 126.776804 263.775724 
L 128.50369 262.005901 
L 130.230575 263.085079 
L 131.957461 264.330743 
L 133.684347 259.669331 
L 135.411233 262.801312 
L 137.138119 247.585105 
L 138.865005 264.411529 
L 140.591891 264.563273 
L 144.045662 263.866862 
L 145.772548 264.059622 
L 147.499434 263.359083 
L 149.22632 262.966816 
L 152.680092 263.827616 
L 154.406978 264.069974 
L 157.86075 263.325668 
L 159.587635 261.77645 
L 161.314521 263.81497 
L 163.041407 264.044683 
L 164.768293 263.384374 
L 166.495179 263.604193 
L 168.222065 264.400194 
L 169.948951 263.713677 
L 171.675837 264.004978 
L 173.402722 264.446648 
L 175.129608 264.272496 
L 176.856494 263.885994 
L 178.58338 263.267814 
L 180.310266 259.914899 
L 182.037152 262.359643 
L 183.764038 259.884629 
L 185.490924 264.433347 
L 187.217809 263.879639 
L 188.944695 263.87728 
L 190.671581 260.664971 
L 192.398467 264.250023 
L 194.125353 264.018672 
L 195.852239 262.712795 
L 197.579125 264.335592 
L 199.306011 264.028893 
L 201.032897 264.203962 
L 202.759782 264.611954 
L 206.213554 263.914954 
L 207.94044 263.947976 
L 209.667326 262.649503 
L 211.394212 264.15705 
L 213.121098 261.374093 
L 214.847984 264.224077 
L 216.574869 263.967763 
L 218.301755 264.318753 
L 220.028641 264.220145 
L 221.755527 263.727043 
L 223.482413 263.923602 
L 225.209299 264.247205 
L 226.936185 262.663131 
L 228.663071 262.489176 
L 230.389956 264.34424 
L 232.116842 264.124028 
L 233.843728 262.517677 
L 235.570614 264.131432 
L 237.2975 264.457131 
L 239.024386 263.650516 
L 240.751272 263.573137 
L 242.478158 262.04174 
L 244.205044 263.243506 
L 245.931929 263.939655 
L 247.658815 254.647297 
L 249.385701 264.549579 
L 251.112587 263.791842 
L 252.839473 264.197148 
L 254.566359 263.691531 
L 256.293245 250.495563 
L 258.020131 263.645471 
L 261.473902 263.603865 
L 263.200788 261.134421 
L 264.927674 264.420047 
L 266.65456 262.366457 
L 268.381446 263.118298 
L 270.108332 264.040621 
L 271.835218 262.737037 
L 273.562103 261.158598 
L 277.015875 264.424109 
L 278.742761 262.96354 
L 280.469647 264.064208 
L 282.196533 264.353478 
L 283.923419 262.793384 
L 285.650305 264.108958 
L 287.377191 260.798697 
L 289.104076 262.815923 
L 290.830962 263.587485 
L 292.557848 264.540014 
L 294.284734 264.275182 
L 296.01162 260.750474 
L 297.738506 264.341554 
L 299.465392 264.391087 
L 301.192278 263.21946 
L 302.919163 263.935134 
L 304.646049 264.196951 
L 306.372935 263.108076 
L 308.099821 264.409826 
L 309.826707 257.833856 
L 311.553593 262.579069 
L 313.280479 264.449465 
L 315.007365 260.188117 
L 316.73425 264.277082 
L 318.461136 264.311939 
L 320.188022 262.592369 
L 321.914908 261.381038 
L 323.641794 262.556923 
L 325.36868 262.985161 
L 328.822452 264.292938 
L 330.549338 264.022341 
L 332.276223 264.204093 
L 334.003109 262.043902 
L 335.729995 261.836991 
L 337.456881 264.123635 
L 339.183767 258.551692 
L 340.910653 263.02159 
L 342.637539 262.726554 
L 344.364425 263.74244 
L 346.09131 257.35294 
L 347.818196 264.010875 
L 349.545082 263.06562 
L 351.271968 264.382307 
L 352.998854 264.106206 
L 354.72574 264.149908 
L 356.452626 264.392397 
L 358.179512 264.00524 
L 359.906397 264.421554 
L 361.633283 263.785552 
L 363.360169 262.46834 
L 365.087055 264.35872 
L 366.813941 263.212974 
L 368.540827 264.29818 
L 370.267713 264.488187 
L 371.994599 263.629156 
L 373.721485 264.528089 
L 375.44837 261.907228 
L 377.175256 264.525206 
L 378.902142 263.869745 
L 380.629028 263.831744 
L 382.355914 264.479801 
L 384.0828 264.516754 
L 385.809686 259.748806 
L 387.536572 264.269089 
L 389.263457 264.161636 
L 390.990343 264.514395 
L 392.717229 264.425288 
L 394.444115 262.990796 
L 396.171001 262.759773 
L 397.897887 264.54401 
L 399.624773 264.31017 
L 399.624773 264.31017 
" style="fill:none;stroke:#d62728;stroke-linecap:square;stroke-width:1.5;"/>
   </g>
   <g id="line2d_21">
    <path clip-path="url(#p4d142fbc16)" d="M 74.970227 263.629353 
L 76.697113 264.191972 
L 78.423999 263.04367 
L 81.877771 264.042718 
L 83.604657 264.067288 
L 85.331543 262.749355 
L 87.058428 262.166031 
L 88.785314 264.336836 
L 90.5122 264.546303 
L 92.239086 263.512465 
L 93.965972 261.175043 
L 95.692858 262.242559 
L 97.419744 259.687218 
L 99.14663 263.808746 
L 100.873515 264.306959 
L 102.600401 264.56609 
L 104.327287 260.625528 
L 106.054173 261.46261 
L 107.781059 263.557477 
L 111.234831 263.687665 
L 112.961717 260.770261 
L 114.688603 263.536052 
L 116.415488 264.552266 
L 118.142374 259.221568 
L 119.86926 260.904184 
L 121.596146 263.404292 
L 123.323032 263.97497 
L 125.049918 262.69458 
L 126.776804 264.10411 
L 128.50369 262.494286 
L 130.230575 261.647638 
L 131.957461 263.048453 
L 133.684347 257.831956 
L 135.411233 259.214229 
L 137.138119 253.465187 
L 138.865005 263.837247 
L 140.591891 264.353216 
L 142.318777 263.837313 
L 144.045662 264.32976 
L 145.772548 264.41854 
L 147.499434 263.215464 
L 149.22632 262.588962 
L 150.953206 264.3789 
L 152.680092 262.886619 
L 154.406978 259.840993 
L 156.133864 263.58172 
L 157.86075 260.975076 
L 159.587635 264.404781 
L 161.314521 264.034724 
L 163.041407 263.844192 
L 164.768293 261.822183 
L 166.495179 264.467418 
L 168.222065 264.363175 
L 169.948951 263.804553 
L 171.675837 264.206386 
L 173.402722 264.303028 
L 176.856494 263.842423 
L 178.58338 263.336872 
L 180.310266 261.897465 
L 182.037152 262.999379 
L 183.764038 261.970389 
L 185.490924 264.356099 
L 187.217809 261.637679 
L 188.944695 262.951222 
L 190.671581 261.729931 
L 192.398467 264.103586 
L 194.125353 264.438458 
L 195.852239 262.994465 
L 197.579125 264.287107 
L 199.306011 259.147792 
L 201.032897 264.423126 
L 202.759782 264.609334 
L 204.486668 263.699787 
L 206.213554 264.319932 
L 207.94044 263.520852 
L 209.667326 264.058901 
L 211.394212 263.934217 
L 213.121098 262.796595 
L 214.847984 263.111877 
L 216.574869 264.214707 
L 218.301755 264.100899 
L 220.028641 264.208811 
L 221.755527 263.872431 
L 223.482413 264.357606 
L 225.209299 262.653303 
L 226.936185 262.138448 
L 228.663071 259.866414 
L 230.389956 264.449465 
L 232.116842 263.773562 
L 233.843728 262.542378 
L 235.570614 263.901915 
L 237.2975 264.278786 
L 239.024386 263.563767 
L 240.751272 261.746901 
L 242.478158 263.803439 
L 244.205044 261.729604 
L 245.931929 263.031484 
L 247.658815 261.506115 
L 249.385701 264.346795 
L 251.112587 263.673448 
L 252.839473 264.502143 
L 254.566359 264.190596 
L 256.293245 258.804861 
L 258.020131 263.883177 
L 259.747016 254.419222 
L 261.473902 263.867583 
L 263.200788 262.836562 
L 264.927674 264.189089 
L 266.65456 263.411696 
L 270.108332 264.266271 
L 271.835218 263.831547 
L 273.562103 263.638984 
L 275.288989 263.05245 
L 277.015875 264.194396 
L 278.742761 262.947094 
L 280.469647 264.266665 
L 282.196533 263.387715 
L 283.923419 261.391521 
L 285.650305 264.232201 
L 287.377191 262.729306 
L 289.104076 262.793319 
L 290.830962 258.731676 
L 292.557848 264.127566 
L 294.284734 264.153708 
L 296.01162 262.737234 
L 297.738506 264.276886 
L 299.465392 264.574412 
L 301.192278 263.021918 
L 302.919163 263.378346 
L 304.646049 262.730158 
L 306.372935 263.235513 
L 308.099821 264.511447 
L 309.826707 259.446104 
L 311.553593 263.675675 
L 313.280479 264.422209 
L 315.007365 262.630961 
L 316.73425 264.340833 
L 318.461136 264.222701 
L 320.188022 261.527933 
L 321.914908 263.855003 
L 323.641794 260.558894 
L 325.36868 258.594673 
L 327.095566 263.818509 
L 328.822452 263.620835 
L 330.549338 264.1999 
L 332.276223 264.426992 
L 334.003109 263.830171 
L 335.729995 261.836008 
L 337.456881 263.731236 
L 342.637539 263.75004 
L 344.364425 263.770614 
L 346.09131 263.441507 
L 347.818196 264.425288 
L 349.545082 262.583983 
L 351.271968 264.258868 
L 352.998854 264.452151 
L 354.72574 263.46516 
L 356.452626 264.388859 
L 358.179512 263.403571 
L 359.906397 264.115314 
L 361.633283 264.458507 
L 363.360169 263.153154 
L 365.087055 263.320688 
L 366.813941 263.750171 
L 370.267713 264.291235 
L 371.994599 263.227781 
L 373.721485 263.878066 
L 375.44837 261.416025 
L 377.175256 263.769827 
L 378.902142 264.218049 
L 380.629028 264.484125 
L 384.0828 264.523503 
L 385.809686 261.682691 
L 387.536572 264.360751 
L 389.263457 263.989188 
L 390.990343 264.433806 
L 392.717229 264.283241 
L 394.444115 263.198035 
L 397.897887 264.427254 
L 399.624773 263.484947 
L 399.624773 263.484947 
" style="fill:none;stroke:#9467bd;stroke-linecap:square;stroke-width:1.5;"/>
   </g>
   <g id="line2d_22">
    <path clip-path="url(#p4d142fbc16)" d="M 74.970227 263.536183 
L 76.697113 264.093233 
L 78.423999 264.162685 
L 80.150885 263.94719 
L 81.877771 263.858017 
L 83.604657 264.527565 
L 85.331543 262.993024 
L 87.058428 260.783758 
L 88.785314 264.433085 
L 90.5122 264.558687 
L 92.239086 264.284814 
L 93.965972 262.893171 
L 95.692858 263.030435 
L 97.419744 262.669748 
L 99.14663 264.428957 
L 102.600401 264.554231 
L 104.327287 262.718561 
L 106.054173 262.724326 
L 107.781059 264.272365 
L 109.507945 264.287696 
L 111.234831 263.939 
L 112.961717 262.266408 
L 114.688603 262.01776 
L 116.415488 264.448941 
L 118.142374 262.211109 
L 119.86926 259.383926 
L 121.596146 263.927796 
L 123.323032 264.330284 
L 125.049918 264.139818 
L 126.776804 264.190793 
L 128.50369 262.98254 
L 130.230575 263.114563 
L 131.957461 263.859655 
L 133.684347 259.109725 
L 135.411233 260.990736 
L 137.138119 248.296651 
L 138.865005 264.353085 
L 140.591891 264.388138 
L 142.318777 263.776314 
L 144.045662 264.314887 
L 145.772548 264.451562 
L 147.499434 264.102406 
L 149.22632 264.004388 
L 150.953206 264.363634 
L 152.680092 262.203247 
L 154.406978 264.006485 
L 156.133864 264.018868 
L 157.86075 263.8685 
L 159.587635 263.203473 
L 161.314521 264.130056 
L 163.041407 263.011041 
L 164.768293 263.866338 
L 166.495179 263.221557 
L 168.222065 264.450317 
L 169.948951 264.226894 
L 171.675837 263.560884 
L 173.402722 264.517999 
L 175.129608 264.409432 
L 176.856494 264.074102 
L 178.58338 263.322523 
L 180.310266 260.635946 
L 182.037152 263.889991 
L 183.764038 263.912661 
L 185.490924 264.48786 
L 187.217809 264.026665 
L 188.944695 262.914203 
L 190.671581 261.972617 
L 192.398467 264.1237 
L 195.852239 264.172971 
L 197.579125 264.445141 
L 199.306011 260.044825 
L 201.032897 264.543093 
L 202.759782 264.580046 
L 204.486668 264.036624 
L 206.213554 264.495788 
L 207.94044 264.169761 
L 209.667326 263.566323 
L 211.394212 264.444813 
L 213.121098 263.83384 
L 214.847984 263.697624 
L 216.574869 264.464731 
L 220.028641 264.22198 
L 221.755527 264.22067 
L 223.482413 264.432626 
L 225.209299 263.361966 
L 226.936185 263.722063 
L 228.663071 258.231955 
L 230.389956 264.423454 
L 232.116842 264.498671 
L 233.843728 262.131109 
L 235.570614 264.362782 
L 237.2975 264.349613 
L 239.024386 263.96239 
L 240.751272 263.417265 
L 242.478158 263.581523 
L 244.205044 264.062046 
L 245.931929 264.149122 
L 247.658815 262.683901 
L 249.385701 264.236656 
L 251.112587 264.01343 
L 252.839473 264.54899 
L 254.566359 264.315149 
L 256.293245 249.66464 
L 258.020131 262.588897 
L 259.747016 243.440447 
L 261.473902 263.095169 
L 263.200788 263.520917 
L 264.927674 264.322619 
L 266.65456 263.938738 
L 268.381446 263.958656 
L 270.108332 264.374117 
L 271.835218 263.946469 
L 273.562103 263.069354 
L 275.288989 263.884225 
L 277.015875 264.506992 
L 278.742761 264.229056 
L 280.469647 264.446844 
L 282.196533 263.561146 
L 283.923419 261.817204 
L 285.650305 264.247991 
L 287.377191 264.205272 
L 289.104076 263.749647 
L 290.830962 261.597515 
L 292.557848 264.161898 
L 294.284734 264.184568 
L 296.01162 263.38385 
L 297.738506 264.398622 
L 299.465392 264.509416 
L 301.192278 263.896477 
L 302.919163 264.243405 
L 306.372935 263.738116 
L 308.099821 264.539424 
L 309.826707 259.004107 
L 311.553593 263.741981 
L 313.280479 264.55718 
L 315.007365 262.860739 
L 316.73425 264.203241 
L 318.461136 264.36121 
L 320.188022 263.168224 
L 321.914908 263.135071 
L 323.641794 262.501493 
L 325.36868 261.196599 
L 327.095566 264.212087 
L 328.822452 264.352037 
L 332.276223 264.190662 
L 334.003109 263.337003 
L 335.729995 262.857332 
L 337.456881 263.529107 
L 339.183767 263.984995 
L 342.637539 263.448714 
L 344.364425 263.966059 
L 346.09131 262.98254 
L 347.818196 264.205338 
L 349.545082 263.544504 
L 351.271968 264.431578 
L 352.998854 264.387418 
L 354.72574 264.087992 
L 356.452626 264.321243 
L 358.179512 263.493464 
L 359.906397 264.089237 
L 361.633283 264.4551 
L 363.360169 264.008844 
L 365.087055 264.090744 
L 366.813941 263.655036 
L 368.540827 264.367762 
L 370.267713 264.530448 
L 371.994599 264.225911 
L 373.721485 264.334805 
L 375.44837 263.793611 
L 377.175256 264.183651 
L 378.902142 260.107724 
L 380.629028 264.425026 
L 382.355914 264.582602 
L 384.0828 264.533265 
L 385.809686 263.314333 
L 387.536572 264.213135 
L 389.263457 263.825978 
L 390.990343 264.506205 
L 392.717229 264.503519 
L 396.171001 263.266307 
L 397.897887 264.244388 
L 399.624773 262.899265 
L 399.624773 262.899265 
" style="fill:none;stroke:#8c564b;stroke-linecap:square;stroke-width:1.5;"/>
   </g>
   <g id="line2d_23">
    <path clip-path="url(#p4d142fbc16)" d="M 74.970227 264.271448 
L 80.150885 264.206714 
L 83.604657 264.594723 
L 87.058428 263.868631 
L 88.785314 264.549448 
L 92.239086 264.577884 
L 93.965972 264.51243 
L 95.692858 263.49045 
L 97.419744 263.07014 
L 99.14663 264.486484 
L 102.600401 264.616672 
L 106.054173 263.28308 
L 107.781059 264.422274 
L 111.234831 264.496967 
L 112.961717 263.711318 
L 114.688603 263.410189 
L 116.415488 264.573953 
L 118.142374 263.123867 
L 119.86926 263.493333 
L 121.596146 264.254412 
L 123.323032 264.582208 
L 125.049918 264.384076 
L 126.776804 264.493625 
L 131.957461 263.99633 
L 133.684347 263.666568 
L 135.411233 264.289531 
L 137.138119 263.182441 
L 138.865005 264.387745 
L 140.591891 264.56976 
L 142.318777 264.393249 
L 145.772548 264.519113 
L 149.22632 264.07646 
L 150.953206 264.535231 
L 152.680092 263.895822 
L 154.406978 264.404715 
L 156.133864 264.443503 
L 159.587635 264.129007 
L 161.314521 264.571529 
L 166.495179 264.060867 
L 168.222065 264.547155 
L 171.675837 264.47279 
L 175.129608 264.573429 
L 178.58338 264.355116 
L 180.310266 263.722981 
L 182.037152 264.216673 
L 183.764038 264.478884 
L 185.490924 264.567008 
L 187.217809 264.304994 
L 188.944695 263.713284 
L 190.671581 263.853038 
L 192.398467 264.474428 
L 194.125353 264.471152 
L 195.852239 264.175002 
L 197.579125 264.555935 
L 199.306011 264.096444 
L 201.032897 264.579457 
L 202.759782 264.616672 
L 204.486668 264.394756 
L 206.213554 264.559473 
L 209.667326 264.350137 
L 211.394212 264.469842 
L 213.121098 264.347778 
L 214.847984 263.907812 
L 216.574869 264.52062 
L 220.028641 264.499326 
L 221.755527 264.410415 
L 223.482413 264.570087 
L 226.936185 264.264371 
L 228.663071 258.923387 
L 230.389956 264.46519 
L 232.116842 264.583977 
L 233.843728 263.640229 
L 235.570614 264.496246 
L 237.2975 264.547286 
L 239.024386 264.192234 
L 240.751272 263.612514 
L 242.478158 264.11302 
L 245.931929 264.424436 
L 247.658815 262.187194 
L 249.385701 264.537393 
L 251.112587 263.836658 
L 252.839473 264.502864 
L 254.566359 264.302766 
L 256.293245 257.450434 
L 258.020131 261.65668 
L 259.747016 250.921574 
L 261.473902 264.170481 
L 263.200788 264.06755 
L 264.927674 264.503257 
L 266.65456 264.198852 
L 270.108332 264.555476 
L 271.835218 264.188499 
L 275.288989 264.330481 
L 277.015875 264.579653 
L 278.742761 264.432037 
L 280.469647 264.490218 
L 282.196533 264.196362 
L 283.923419 264.136215 
L 285.650305 264.549252 
L 287.377191 264.228532 
L 289.104076 264.358523 
L 290.830962 263.36 
L 292.557848 264.515182 
L 294.284734 264.575132 
L 296.01162 263.605503 
L 297.738506 264.530448 
L 299.465392 264.592692 
L 301.192278 264.45641 
L 302.919163 264.490677 
L 304.646049 264.336771 
L 306.372935 264.384011 
L 308.099821 264.582667 
L 309.826707 263.545291 
L 311.553593 264.135756 
L 313.280479 264.593281 
L 315.007365 264.181423 
L 318.461136 264.566746 
L 320.188022 263.603014 
L 321.914908 264.096706 
L 325.36868 264.294707 
L 327.095566 264.527565 
L 330.549338 264.43682 
L 332.276223 264.484256 
L 334.003109 264.319146 
L 335.729995 263.933758 
L 337.456881 264.433347 
L 339.183767 263.901064 
L 340.910653 264.41664 
L 342.637539 264.282651 
L 344.364425 264.553249 
L 346.09131 263.304177 
L 347.818196 264.535034 
L 349.545082 264.331005 
L 351.271968 264.535624 
L 352.998854 264.563404 
L 354.72574 264.454707 
L 356.452626 264.604485 
L 358.179512 264.497164 
L 359.906397 264.269482 
L 363.360169 264.521668 
L 365.087055 264.393446 
L 368.540827 264.554362 
L 370.267713 264.546303 
L 371.994599 264.418605 
L 373.721485 264.443699 
L 377.175256 264.304797 
L 378.902142 261.938874 
L 380.629028 264.583191 
L 384.0828 264.584829 
L 385.809686 263.626011 
L 387.536572 264.527368 
L 389.263457 264.238688 
L 390.990343 264.58247 
L 392.717229 264.570415 
L 394.444115 264.233118 
L 396.171001 264.554035 
L 397.897887 264.568908 
L 399.624773 264.414805 
L 399.624773 264.414805 
" style="fill:none;stroke:#e377c2;stroke-linecap:square;stroke-width:1.5;"/>
   </g>
   <g id="line2d_24">
    <path clip-path="url(#p4d142fbc16)" d="M 74.970227 264.463486 
L 76.697113 264.557638 
L 78.423999 264.544862 
L 80.150885 264.37641 
L 83.604657 264.553445 
L 85.331543 264.256509 
L 87.058428 262.454188 
L 88.785314 264.512168 
L 90.5122 264.58935 
L 92.239086 264.468269 
L 93.965972 264.500571 
L 95.692858 263.691531 
L 97.419744 262.524098 
L 99.14663 264.384076 
L 102.600401 264.594002 
L 104.327287 262.744441 
L 106.054173 263.314661 
L 107.781059 264.098606 
L 109.507945 263.92583 
L 111.234831 264.170612 
L 112.961717 262.965898 
L 114.688603 262.772746 
L 116.415488 264.458114 
L 118.142374 262.684556 
L 119.86926 263.128977 
L 121.596146 264.133856 
L 123.323032 264.556525 
L 125.049918 264.213856 
L 131.957461 264.211628 
L 133.684347 263.607666 
L 135.411233 263.196921 
L 137.138119 262.920362 
L 138.865005 264.130449 
L 140.591891 264.554821 
L 142.318777 264.205862 
L 144.045662 264.498212 
L 145.772548 264.473445 
L 147.499434 264.087271 
L 150.953206 264.406746 
L 152.680092 264.272823 
L 156.133864 264.578867 
L 157.86075 264.26922 
L 159.587635 264.264371 
L 161.314521 264.513871 
L 163.041407 264.003668 
L 164.768293 264.300276 
L 168.222065 264.464862 
L 171.675837 264.540865 
L 176.856494 264.539948 
L 178.58338 263.98447 
L 180.310266 262.266408 
L 182.037152 264.105879 
L 183.764038 264.088451 
L 185.490924 264.57605 
L 187.217809 264.133332 
L 188.944695 262.965309 
L 190.671581 263.192466 
L 192.398467 264.552069 
L 194.125353 264.506992 
L 195.852239 264.03859 
L 197.579125 264.489367 
L 199.306011 264.385387 
L 201.032897 264.593805 
L 202.759782 264.595968 
L 204.486668 263.988074 
L 206.213554 264.480915 
L 207.94044 264.572839 
L 211.394212 264.346075 
L 213.121098 263.742309 
L 214.847984 263.961473 
L 216.574869 264.532544 
L 221.755527 264.310956 
L 223.482413 264.518851 
L 225.209299 264.075543 
L 226.936185 264.220145 
L 228.663071 261.9069 
L 230.389956 264.500112 
L 232.116842 264.492839 
L 233.843728 262.408848 
L 235.570614 264.461521 
L 237.2975 264.555083 
L 239.024386 264.06696 
L 240.751272 263.946076 
L 242.478158 264.150956 
L 244.205044 264.051759 
L 245.931929 264.087402 
L 247.658815 262.054124 
L 249.385701 264.458245 
L 251.112587 263.863717 
L 252.839473 264.535493 
L 254.566359 264.452348 
L 256.293245 262.533467 
L 258.020131 263.765569 
L 259.747016 262.976578 
L 261.473902 264.516885 
L 263.200788 263.914626 
L 264.927674 264.44822 
L 266.65456 264.163274 
L 268.381446 264.042849 
L 270.108332 264.474297 
L 271.835218 264.115903 
L 273.562103 264.143553 
L 275.288989 264.045601 
L 277.015875 264.464469 
L 278.742761 264.069319 
L 280.469647 264.463486 
L 282.196533 263.935396 
L 283.923419 263.722718 
L 285.650305 264.473052 
L 289.104076 264.09592 
L 290.830962 262.306965 
L 292.557848 264.533462 
L 294.284734 264.570873 
L 296.01162 262.474368 
L 297.738506 264.540603 
L 299.465392 264.589612 
L 302.919163 264.095527 
L 306.372935 263.913971 
L 308.099821 264.604551 
L 309.826707 263.15073 
L 311.553593 262.055368 
L 313.280479 264.605861 
L 316.73425 264.032824 
L 318.461136 264.018148 
L 320.188022 262.941656 
L 323.641794 262.331142 
L 325.36868 262.324328 
L 327.095566 264.331922 
L 328.822452 264.105289 
L 330.549338 264.23587 
L 332.276223 264.165961 
L 334.003109 263.213563 
L 335.729995 263.069616 
L 337.456881 264.31528 
L 339.183767 263.280918 
L 340.910653 264.350465 
L 342.637539 264.09343 
L 344.364425 264.538572 
L 346.09131 262.531436 
L 347.818196 264.515313 
L 349.545082 264.204617 
L 351.271968 264.515378 
L 352.998854 264.537196 
L 354.72574 263.996657 
L 356.452626 264.557704 
L 358.179512 264.176182 
L 363.360169 264.031121 
L 365.087055 264.277672 
L 366.813941 264.100899 
L 368.540827 264.2094 
L 370.267713 264.504109 
L 373.721485 264.278327 
L 375.44837 263.03037 
L 377.175256 264.239343 
L 378.902142 263.437052 
L 380.629028 264.558949 
L 384.0828 264.517344 
L 385.809686 262.826865 
L 387.536572 263.986436 
L 389.263457 262.912827 
L 390.990343 264.565108 
L 392.717229 264.526451 
L 394.444115 262.741624 
L 396.171001 264.349482 
L 397.897887 264.225059 
L 399.624773 263.177331 
L 399.624773 263.177331 
" style="fill:none;stroke:#7f7f7f;stroke-linecap:square;stroke-width:1.5;"/>
   </g>
   <g id="line2d_25">
    <path clip-path="url(#p4d142fbc16)" d="M 74.970227 264.626303 
L 111.234831 264.62342 
L 399.624773 264.623486 
L 399.624773 264.623486 
" style="fill:none;stroke:#bcbd22;stroke-linecap:square;stroke-width:1.5;"/>
   </g>
   <g id="line2d_26">
    <path clip-path="url(#p4d142fbc16)" d="M 74.970227 264.626303 
L 149.22632 264.622831 
L 399.624773 264.6246 
L 399.624773 264.6246 
" style="fill:none;stroke:#17becf;stroke-linecap:square;stroke-width:1.5;"/>
   </g>
   <g id="line2d_27">
    <path clip-path="url(#p4d142fbc16)" d="M 74.970227 264.618572 
L 87.058428 264.611234 
L 88.785314 264.562356 
L 92.239086 264.64858 
L 99.14663 264.61713 
L 104.327287 264.637573 
L 114.688603 264.594395 
L 121.596146 264.631086 
L 140.591891 264.610972 
L 147.499434 264.619948 
L 152.680092 264.607237 
L 154.406978 264.716 
L 157.86075 264.640193 
L 161.314521 264.639669 
L 297.738506 264.594723 
L 302.919163 264.639735 
L 311.553593 264.595509 
L 315.007365 264.640718 
L 321.914908 264.611496 
L 344.364425 264.625583 
L 359.906397 264.623355 
L 375.44837 264.623879 
L 390.990343 264.591447 
L 396.171001 264.625648 
L 399.624773 264.613986 
L 399.624773 264.613986 
" style="fill:none;stroke:#1f77b4;stroke-linecap:square;stroke-width:1.5;"/>
   </g>
   <g id="line2d_28">
    <path clip-path="url(#p4d142fbc16)" d="M 74.970227 264.626303 
L 399.624773 264.626303 
L 399.624773 264.626303 
" style="fill:none;stroke:#ff7f0e;stroke-linecap:square;stroke-width:1.5;"/>
   </g>
   <g id="patch_3">
    <path d="M 58.7375 276.812 
L 58.7375 10.7 
" style="fill:none;stroke:#000000;stroke-linecap:square;stroke-linejoin:miter;stroke-width:0.8;"/>
   </g>
   <g id="patch_4">
    <path d="M 415.8575 276.812 
L 415.8575 10.7 
" style="fill:none;stroke:#000000;stroke-linecap:square;stroke-linejoin:miter;stroke-width:0.8;"/>
   </g>
   <g id="patch_5">
    <path d="M 58.7375 276.812 
L 415.8575 276.812 
" style="fill:none;stroke:#000000;stroke-linecap:square;stroke-linejoin:miter;stroke-width:0.8;"/>
   </g>
   <g id="patch_6">
    <path d="M 58.7375 10.7 
L 415.8575 10.7 
" style="fill:none;stroke:#000000;stroke-linecap:square;stroke-linejoin:miter;stroke-width:0.8;"/>
   </g>
   <g id="legend_1">
    <g id="patch_7">
     <path d="M 318.504375 165.48125 
L 408.8575 165.48125 
Q 410.8575 165.48125 410.8575 163.48125 
L 410.8575 17.7 
Q 410.8575 15.7 408.8575 15.7 
L 318.504375 15.7 
Q 316.504375 15.7 316.504375 17.7 
L 316.504375 163.48125 
Q 316.504375 165.48125 318.504375 165.48125 
z
" style="fill:#ffffff;opacity:0.8;stroke:#cccccc;stroke-linejoin:miter;"/>
    </g>
    <g id="line2d_29">
     <path d="M 320.504375 23.798437 
L 340.504375 23.798437 
" style="fill:none;stroke:#1f77b4;stroke-linecap:square;stroke-width:1.5;"/>
    </g>
    <g id="line2d_30"/>
    <g id="text_17">
     <!-- delta -->
     <defs>
      <path d="M 45.40625 46.390625 
L 45.40625 75.984375 
L 54.390625 75.984375 
L 54.390625 0 
L 45.40625 0 
L 45.40625 8.203125 
Q 42.578125 3.328125 38.25 0.953125 
Q 33.9375 -1.421875 27.875 -1.421875 
Q 17.96875 -1.421875 11.734375 6.484375 
Q 5.515625 14.40625 5.515625 27.296875 
Q 5.515625 40.1875 11.734375 48.09375 
Q 17.96875 56 27.875 56 
Q 33.9375 56 38.25 53.625 
Q 42.578125 51.265625 45.40625 46.390625 
M 14.796875 27.296875 
Q 14.796875 17.390625 18.875 11.75 
Q 22.953125 6.109375 30.078125 6.109375 
Q 37.203125 6.109375 41.296875 11.75 
Q 45.40625 17.390625 45.40625 27.296875 
Q 45.40625 37.203125 41.296875 42.84375 
Q 37.203125 48.484375 30.078125 48.484375 
Q 22.953125 48.484375 18.875 42.84375 
Q 14.796875 37.203125 14.796875 27.296875 
" id="DejaVuSans-64"/>
      <path d="M 56.203125 29.59375 
L 56.203125 25.203125 
L 14.890625 25.203125 
Q 15.484375 15.921875 20.484375 11.0625 
Q 25.484375 6.203125 34.421875 6.203125 
Q 39.59375 6.203125 44.453125 7.46875 
Q 49.3125 8.734375 54.109375 11.28125 
L 54.109375 2.78125 
Q 49.265625 0.734375 44.1875 -0.34375 
Q 39.109375 -1.421875 33.890625 -1.421875 
Q 20.796875 -1.421875 13.15625 6.1875 
Q 5.515625 13.8125 5.515625 26.8125 
Q 5.515625 40.234375 12.765625 48.109375 
Q 20.015625 56 32.328125 56 
Q 43.359375 56 49.78125 48.890625 
Q 56.203125 41.796875 56.203125 29.59375 
M 47.21875 32.234375 
Q 47.125 39.59375 43.09375 43.984375 
Q 39.0625 48.390625 32.421875 48.390625 
Q 24.90625 48.390625 20.390625 44.140625 
Q 15.875 39.890625 15.1875 32.171875 
z
" id="DejaVuSans-65"/>
      <path d="M 9.421875 75.984375 
L 18.40625 75.984375 
L 18.40625 0 
L 9.421875 0 
z
" id="DejaVuSans-6c"/>
      <path d="M 18.3125 70.21875 
L 18.3125 54.6875 
L 36.8125 54.6875 
L 36.8125 47.703125 
L 18.3125 47.703125 
L 18.3125 18.015625 
Q 18.3125 11.328125 20.140625 9.421875 
Q 21.96875 7.515625 27.59375 7.515625 
L 36.8125 7.515625 
L 36.8125 0 
L 27.59375 0 
Q 17.1875 0 13.234375 3.875 
Q 9.28125 7.765625 9.28125 18.015625 
L 9.28125 47.703125 
L 2.6875 47.703125 
L 2.6875 54.6875 
L 9.28125 54.6875 
L 9.28125 70.21875 
z
" id="DejaVuSans-74"/>
      <path d="M 34.28125 27.484375 
Q 23.390625 27.484375 19.1875 25 
Q 14.984375 22.515625 14.984375 16.5 
Q 14.984375 11.71875 18.140625 8.90625 
Q 21.296875 6.109375 26.703125 6.109375 
Q 34.1875 6.109375 38.703125 11.40625 
Q 43.21875 16.703125 43.21875 25.484375 
L 43.21875 27.484375 
z
M 52.203125 31.203125 
L 52.203125 0 
L 43.21875 0 
L 43.21875 8.296875 
Q 40.140625 3.328125 35.546875 0.953125 
Q 30.953125 -1.421875 24.3125 -1.421875 
Q 15.921875 -1.421875 10.953125 3.296875 
Q 6 8.015625 6 15.921875 
Q 6 25.140625 12.171875 29.828125 
Q 18.359375 34.515625 30.609375 34.515625 
L 43.21875 34.515625 
L 43.21875 35.40625 
Q 43.21875 41.609375 39.140625 45 
Q 35.0625 48.390625 27.6875 48.390625 
Q 23 48.390625 18.546875 47.265625 
Q 14.109375 46.140625 10.015625 43.890625 
L 10.015625 52.203125 
Q 14.9375 54.109375 19.578125 55.046875 
Q 24.21875 56 28.609375 56 
Q 40.484375 56 46.34375 49.84375 
Q 52.203125 43.703125 52.203125 31.203125 
" id="DejaVuSans-61"/>
     </defs>
     <g transform="translate(348.504375 27.298437)scale(0.1 -0.1)">
      <use xlink:href="#DejaVuSans-64"/>
      <use x="63.476562" xlink:href="#DejaVuSans-65"/>
      <use x="125" xlink:href="#DejaVuSans-6c"/>
      <use x="152.783203" xlink:href="#DejaVuSans-74"/>
      <use x="191.992188" xlink:href="#DejaVuSans-61"/>
     </g>
    </g>
    <g id="line2d_31">
     <path d="M 320.504375 38.476562 
L 340.504375 38.476562 
" style="fill:none;stroke:#ff7f0e;stroke-linecap:square;stroke-width:1.5;"/>
    </g>
    <g id="line2d_32"/>
    <g id="text_18">
     <!-- lowAlpha -->
     <defs>
      <path d="M 30.609375 48.390625 
Q 23.390625 48.390625 19.1875 42.75 
Q 14.984375 37.109375 14.984375 27.296875 
Q 14.984375 17.484375 19.15625 11.84375 
Q 23.34375 6.203125 30.609375 6.203125 
Q 37.796875 6.203125 41.984375 11.859375 
Q 46.1875 17.53125 46.1875 27.296875 
Q 46.1875 37.015625 41.984375 42.703125 
Q 37.796875 48.390625 30.609375 48.390625 
M 30.609375 56 
Q 42.328125 56 49.015625 48.375 
Q 55.71875 40.765625 55.71875 27.296875 
Q 55.71875 13.875 49.015625 6.21875 
Q 42.328125 -1.421875 30.609375 -1.421875 
Q 18.84375 -1.421875 12.171875 6.21875 
Q 5.515625 13.875 5.515625 27.296875 
Q 5.515625 40.765625 12.171875 48.375 
Q 18.84375 56 30.609375 56 
" id="DejaVuSans-6f"/>
      <path d="M 4.203125 54.6875 
L 13.1875 54.6875 
L 24.421875 12.015625 
L 35.59375 54.6875 
L 46.1875 54.6875 
L 57.421875 12.015625 
L 68.609375 54.6875 
L 77.59375 54.6875 
L 63.28125 0 
L 52.6875 0 
L 40.921875 44.828125 
L 29.109375 0 
L 18.5 0 
z
" id="DejaVuSans-77"/>
      <path d="M 34.1875 63.1875 
L 20.796875 26.90625 
L 47.609375 26.90625 
z
M 28.609375 72.90625 
L 39.796875 72.90625 
L 67.578125 0 
L 57.328125 0 
L 50.6875 18.703125 
L 17.828125 18.703125 
L 11.1875 0 
L 0.78125 0 
z
" id="DejaVuSans-41"/>
      <path d="M 18.109375 8.203125 
L 18.109375 -20.796875 
L 9.078125 -20.796875 
L 9.078125 54.6875 
L 18.109375 54.6875 
L 18.109375 46.390625 
Q 20.953125 51.265625 25.265625 53.625 
Q 29.59375 56 35.59375 56 
Q 45.5625 56 51.78125 48.09375 
Q 58.015625 40.1875 58.015625 27.296875 
Q 58.015625 14.40625 51.78125 6.484375 
Q 45.5625 -1.421875 35.59375 -1.421875 
Q 29.59375 -1.421875 25.265625 0.953125 
Q 20.953125 3.328125 18.109375 8.203125 
M 48.6875 27.296875 
Q 48.6875 37.203125 44.609375 42.84375 
Q 40.53125 48.484375 33.40625 48.484375 
Q 26.265625 48.484375 22.1875 42.84375 
Q 18.109375 37.203125 18.109375 27.296875 
Q 18.109375 17.390625 22.1875 11.75 
Q 26.265625 6.109375 33.40625 6.109375 
Q 40.53125 6.109375 44.609375 11.75 
Q 48.6875 17.390625 48.6875 27.296875 
" id="DejaVuSans-70"/>
      <path d="M 54.890625 33.015625 
L 54.890625 0 
L 45.90625 0 
L 45.90625 32.71875 
Q 45.90625 40.484375 42.875 44.328125 
Q 39.84375 48.1875 33.796875 48.1875 
Q 26.515625 48.1875 22.3125 43.546875 
Q 18.109375 38.921875 18.109375 30.90625 
L 18.109375 0 
L 9.078125 0 
L 9.078125 75.984375 
L 18.109375 75.984375 
L 18.109375 46.1875 
Q 21.34375 51.125 25.703125 53.5625 
Q 30.078125 56 35.796875 56 
Q 45.21875 56 50.046875 50.171875 
Q 54.890625 44.34375 54.890625 33.015625 
" id="DejaVuSans-68"/>
     </defs>
     <g transform="translate(348.504375 41.976562)scale(0.1 -0.1)">
      <use xlink:href="#DejaVuSans-6c"/>
      <use x="27.783203" xlink:href="#DejaVuSans-6f"/>
      <use x="88.964844" xlink:href="#DejaVuSans-77"/>
      <use x="170.751953" xlink:href="#DejaVuSans-41"/>
      <use x="239.160156" xlink:href="#DejaVuSans-6c"/>
      <use x="266.943359" xlink:href="#DejaVuSans-70"/>
      <use x="330.419922" xlink:href="#DejaVuSans-68"/>
      <use x="393.798828" xlink:href="#DejaVuSans-61"/>
     </g>
    </g>
    <g id="line2d_33">
     <path d="M 320.504375 53.154687 
L 340.504375 53.154687 
" style="fill:none;stroke:#2ca02c;stroke-linecap:square;stroke-width:1.5;"/>
    </g>
    <g id="line2d_34"/>
    <g id="text_19">
     <!-- highAlpha -->
     <defs>
      <path d="M 9.421875 54.6875 
L 18.40625 54.6875 
L 18.40625 0 
L 9.421875 0 
z
M 9.421875 75.984375 
L 18.40625 75.984375 
L 18.40625 64.59375 
L 9.421875 64.59375 
z
" id="DejaVuSans-69"/>
      <path d="M 45.40625 27.984375 
Q 45.40625 37.75 41.375 43.109375 
Q 37.359375 48.484375 30.078125 48.484375 
Q 22.859375 48.484375 18.828125 43.109375 
Q 14.796875 37.75 14.796875 27.984375 
Q 14.796875 18.265625 18.828125 12.890625 
Q 22.859375 7.515625 30.078125 7.515625 
Q 37.359375 7.515625 41.375 12.890625 
Q 45.40625 18.265625 45.40625 27.984375 
M 54.390625 6.78125 
Q 54.390625 -7.171875 48.1875 -13.984375 
Q 42 -20.796875 29.203125 -20.796875 
Q 24.46875 -20.796875 20.265625 -20.09375 
Q 16.0625 -19.390625 12.109375 -17.921875 
L 12.109375 -9.1875 
Q 16.0625 -11.328125 19.921875 -12.34375 
Q 23.78125 -13.375 27.78125 -13.375 
Q 36.625 -13.375 41.015625 -8.765625 
Q 45.40625 -4.15625 45.40625 5.171875 
L 45.40625 9.625 
Q 42.625 4.78125 38.28125 2.390625 
Q 33.9375 0 27.875 0 
Q 17.828125 0 11.671875 7.65625 
Q 5.515625 15.328125 5.515625 27.984375 
Q 5.515625 40.671875 11.671875 48.328125 
Q 17.828125 56 27.875 56 
Q 33.9375 56 38.28125 53.609375 
Q 42.625 51.21875 45.40625 46.390625 
L 45.40625 54.6875 
L 54.390625 54.6875 
z
" id="DejaVuSans-67"/>
     </defs>
     <g transform="translate(348.504375 56.654687)scale(0.1 -0.1)">
      <use xlink:href="#DejaVuSans-68"/>
      <use x="63.378906" xlink:href="#DejaVuSans-69"/>
      <use x="91.162109" xlink:href="#DejaVuSans-67"/>
      <use x="154.638672" xlink:href="#DejaVuSans-68"/>
      <use x="218.017578" xlink:href="#DejaVuSans-41"/>
      <use x="286.425781" xlink:href="#DejaVuSans-6c"/>
      <use x="314.208984" xlink:href="#DejaVuSans-70"/>
      <use x="377.685547" xlink:href="#DejaVuSans-68"/>
      <use x="441.064453" xlink:href="#DejaVuSans-61"/>
     </g>
    </g>
    <g id="line2d_35">
     <path d="M 320.504375 67.832812 
L 340.504375 67.832812 
" style="fill:none;stroke:#d62728;stroke-linecap:square;stroke-width:1.5;"/>
    </g>
    <g id="line2d_36"/>
    <g id="text_20">
     <!-- lowBeta -->
     <defs>
      <path d="M 19.671875 34.8125 
L 19.671875 8.109375 
L 35.5 8.109375 
Q 43.453125 8.109375 47.28125 11.40625 
Q 51.125 14.703125 51.125 21.484375 
Q 51.125 28.328125 47.28125 31.5625 
Q 43.453125 34.8125 35.5 34.8125 
z
M 19.671875 64.796875 
L 19.671875 42.828125 
L 34.28125 42.828125 
Q 41.5 42.828125 45.03125 45.53125 
Q 48.578125 48.25 48.578125 53.8125 
Q 48.578125 59.328125 45.03125 62.0625 
Q 41.5 64.796875 34.28125 64.796875 
z
M 9.8125 72.90625 
L 35.015625 72.90625 
Q 46.296875 72.90625 52.390625 68.21875 
Q 58.5 63.53125 58.5 54.890625 
Q 58.5 48.1875 55.375 44.234375 
Q 52.25 40.28125 46.1875 39.3125 
Q 53.46875 37.75 57.5 32.78125 
Q 61.53125 27.828125 61.53125 20.40625 
Q 61.53125 10.640625 54.890625 5.3125 
Q 48.25 0 35.984375 0 
L 9.8125 0 
z
" id="DejaVuSans-42"/>
     </defs>
     <g transform="translate(348.504375 71.332812)scale(0.1 -0.1)">
      <use xlink:href="#DejaVuSans-6c"/>
      <use x="27.783203" xlink:href="#DejaVuSans-6f"/>
      <use x="88.964844" xlink:href="#DejaVuSans-77"/>
      <use x="170.751953" xlink:href="#DejaVuSans-42"/>
      <use x="239.355469" xlink:href="#DejaVuSans-65"/>
      <use x="300.878906" xlink:href="#DejaVuSans-74"/>
      <use x="340.087891" xlink:href="#DejaVuSans-61"/>
     </g>
    </g>
    <g id="line2d_37">
     <path d="M 320.504375 82.510938 
L 340.504375 82.510938 
" style="fill:none;stroke:#9467bd;stroke-linecap:square;stroke-width:1.5;"/>
    </g>
    <g id="line2d_38"/>
    <g id="text_21">
     <!-- highBeta -->
     <g transform="translate(348.504375 86.010938)scale(0.1 -0.1)">
      <use xlink:href="#DejaVuSans-68"/>
      <use x="63.378906" xlink:href="#DejaVuSans-69"/>
      <use x="91.162109" xlink:href="#DejaVuSans-67"/>
      <use x="154.638672" xlink:href="#DejaVuSans-68"/>
      <use x="218.017578" xlink:href="#DejaVuSans-42"/>
      <use x="286.621094" xlink:href="#DejaVuSans-65"/>
      <use x="348.144531" xlink:href="#DejaVuSans-74"/>
      <use x="387.353516" xlink:href="#DejaVuSans-61"/>
     </g>
    </g>
    <g id="line2d_39">
     <path d="M 320.504375 97.189062 
L 340.504375 97.189062 
" style="fill:none;stroke:#8c564b;stroke-linecap:square;stroke-width:1.5;"/>
    </g>
    <g id="line2d_40"/>
    <g id="text_22">
     <!-- lowGamma -->
     <defs>
      <path d="M 59.515625 10.40625 
L 59.515625 29.984375 
L 43.40625 29.984375 
L 43.40625 38.09375 
L 69.28125 38.09375 
L 69.28125 6.78125 
Q 63.578125 2.734375 56.6875 0.65625 
Q 49.8125 -1.421875 42 -1.421875 
Q 24.90625 -1.421875 15.25 8.5625 
Q 5.609375 18.5625 5.609375 36.375 
Q 5.609375 54.25 15.25 64.234375 
Q 24.90625 74.21875 42 74.21875 
Q 49.125 74.21875 55.546875 72.453125 
Q 61.96875 70.703125 67.390625 67.28125 
L 67.390625 56.78125 
Q 61.921875 61.421875 55.765625 63.765625 
Q 49.609375 66.109375 42.828125 66.109375 
Q 29.4375 66.109375 22.71875 58.640625 
Q 16.015625 51.171875 16.015625 36.375 
Q 16.015625 21.625 22.71875 14.15625 
Q 29.4375 6.6875 42.828125 6.6875 
Q 48.046875 6.6875 52.140625 7.59375 
Q 56.25 8.5 59.515625 10.40625 
" id="DejaVuSans-47"/>
      <path d="M 52 44.1875 
Q 55.375 50.25 60.0625 53.125 
Q 64.75 56 71.09375 56 
Q 79.640625 56 84.28125 50.015625 
Q 88.921875 44.046875 88.921875 33.015625 
L 88.921875 0 
L 79.890625 0 
L 79.890625 32.71875 
Q 79.890625 40.578125 77.09375 44.375 
Q 74.3125 48.1875 68.609375 48.1875 
Q 61.625 48.1875 57.5625 43.546875 
Q 53.515625 38.921875 53.515625 30.90625 
L 53.515625 0 
L 44.484375 0 
L 44.484375 32.71875 
Q 44.484375 40.625 41.703125 44.40625 
Q 38.921875 48.1875 33.109375 48.1875 
Q 26.21875 48.1875 22.15625 43.53125 
Q 18.109375 38.875 18.109375 30.90625 
L 18.109375 0 
L 9.078125 0 
L 9.078125 54.6875 
L 18.109375 54.6875 
L 18.109375 46.1875 
Q 21.1875 51.21875 25.484375 53.609375 
Q 29.78125 56 35.6875 56 
Q 41.65625 56 45.828125 52.96875 
Q 50 49.953125 52 44.1875 
" id="DejaVuSans-6d"/>
     </defs>
     <g transform="translate(348.504375 100.689062)scale(0.1 -0.1)">
      <use xlink:href="#DejaVuSans-6c"/>
      <use x="27.783203" xlink:href="#DejaVuSans-6f"/>
      <use x="88.964844" xlink:href="#DejaVuSans-77"/>
      <use x="170.751953" xlink:href="#DejaVuSans-47"/>
      <use x="248.242188" xlink:href="#DejaVuSans-61"/>
      <use x="309.521484" xlink:href="#DejaVuSans-6d"/>
      <use x="406.933594" xlink:href="#DejaVuSans-6d"/>
      <use x="504.345703" xlink:href="#DejaVuSans-61"/>
     </g>
    </g>
    <g id="line2d_41">
     <path d="M 320.504375 111.867188 
L 340.504375 111.867188 
" style="fill:none;stroke:#e377c2;stroke-linecap:square;stroke-width:1.5;"/>
    </g>
    <g id="line2d_42"/>
    <g id="text_23">
     <!-- midGamma -->
     <g transform="translate(348.504375 115.367188)scale(0.1 -0.1)">
      <use xlink:href="#DejaVuSans-6d"/>
      <use x="97.412109" xlink:href="#DejaVuSans-69"/>
      <use x="125.195312" xlink:href="#DejaVuSans-64"/>
      <use x="188.671875" xlink:href="#DejaVuSans-47"/>
      <use x="266.162109" xlink:href="#DejaVuSans-61"/>
      <use x="327.441406" xlink:href="#DejaVuSans-6d"/>
      <use x="424.853516" xlink:href="#DejaVuSans-6d"/>
      <use x="522.265625" xlink:href="#DejaVuSans-61"/>
     </g>
    </g>
    <g id="line2d_43">
     <path d="M 320.504375 126.545312 
L 340.504375 126.545312 
" style="fill:none;stroke:#7f7f7f;stroke-linecap:square;stroke-width:1.5;"/>
    </g>
    <g id="line2d_44"/>
    <g id="text_24">
     <!-- attention -->
     <defs>
      <path d="M 54.890625 33.015625 
L 54.890625 0 
L 45.90625 0 
L 45.90625 32.71875 
Q 45.90625 40.484375 42.875 44.328125 
Q 39.84375 48.1875 33.796875 48.1875 
Q 26.515625 48.1875 22.3125 43.546875 
Q 18.109375 38.921875 18.109375 30.90625 
L 18.109375 0 
L 9.078125 0 
L 9.078125 54.6875 
L 18.109375 54.6875 
L 18.109375 46.1875 
Q 21.34375 51.125 25.703125 53.5625 
Q 30.078125 56 35.796875 56 
Q 45.21875 56 50.046875 50.171875 
Q 54.890625 44.34375 54.890625 33.015625 
" id="DejaVuSans-6e"/>
     </defs>
     <g transform="translate(348.504375 130.045312)scale(0.1 -0.1)">
      <use xlink:href="#DejaVuSans-61"/>
      <use x="61.279297" xlink:href="#DejaVuSans-74"/>
      <use x="100.488281" xlink:href="#DejaVuSans-74"/>
      <use x="139.697266" xlink:href="#DejaVuSans-65"/>
      <use x="201.220703" xlink:href="#DejaVuSans-6e"/>
      <use x="264.599609" xlink:href="#DejaVuSans-74"/>
      <use x="303.808594" xlink:href="#DejaVuSans-69"/>
      <use x="331.591797" xlink:href="#DejaVuSans-6f"/>
      <use x="392.773438" xlink:href="#DejaVuSans-6e"/>
     </g>
    </g>
    <g id="line2d_45">
     <path d="M 320.504375 141.223437 
L 340.504375 141.223437 
" style="fill:none;stroke:#bcbd22;stroke-linecap:square;stroke-width:1.5;"/>
    </g>
    <g id="line2d_46"/>
    <g id="text_25">
     <!-- meditation -->
     <g transform="translate(348.504375 144.723437)scale(0.1 -0.1)">
      <use xlink:href="#DejaVuSans-6d"/>
      <use x="97.412109" xlink:href="#DejaVuSans-65"/>
      <use x="158.935547" xlink:href="#DejaVuSans-64"/>
      <use x="222.412109" xlink:href="#DejaVuSans-69"/>
      <use x="250.195312" xlink:href="#DejaVuSans-74"/>
      <use x="289.404297" xlink:href="#DejaVuSans-61"/>
      <use x="350.683594" xlink:href="#DejaVuSans-74"/>
      <use x="389.892578" xlink:href="#DejaVuSans-69"/>
      <use x="417.675781" xlink:href="#DejaVuSans-6f"/>
      <use x="478.857422" xlink:href="#DejaVuSans-6e"/>
     </g>
    </g>
    <g id="line2d_47">
     <path d="M 320.504375 155.901562 
L 340.504375 155.901562 
" style="fill:none;stroke:#17becf;stroke-linecap:square;stroke-width:1.5;"/>
    </g>
    <g id="line2d_48"/>
    <g id="text_26">
     <!-- rawValue -->
     <defs>
      <path d="M 41.109375 46.296875 
Q 39.59375 47.171875 37.8125 47.578125 
Q 36.03125 48 33.890625 48 
Q 26.265625 48 22.1875 43.046875 
Q 18.109375 38.09375 18.109375 28.8125 
L 18.109375 0 
L 9.078125 0 
L 9.078125 54.6875 
L 18.109375 54.6875 
L 18.109375 46.1875 
Q 20.953125 51.171875 25.484375 53.578125 
Q 30.03125 56 36.53125 56 
Q 37.453125 56 38.578125 55.875 
Q 39.703125 55.765625 41.0625 55.515625 
z
" id="DejaVuSans-72"/>
      <path d="M 28.609375 0 
L 0.78125 72.90625 
L 11.078125 72.90625 
L 34.1875 11.53125 
L 57.328125 72.90625 
L 67.578125 72.90625 
L 39.796875 0 
z
" id="DejaVuSans-56"/>
      <path d="M 8.5 21.578125 
L 8.5 54.6875 
L 17.484375 54.6875 
L 17.484375 21.921875 
Q 17.484375 14.15625 20.5 10.265625 
Q 23.53125 6.390625 29.59375 6.390625 
Q 36.859375 6.390625 41.078125 11.03125 
Q 45.3125 15.671875 45.3125 23.6875 
L 45.3125 54.6875 
L 54.296875 54.6875 
L 54.296875 0 
L 45.3125 0 
L 45.3125 8.40625 
Q 42.046875 3.421875 37.71875 1 
Q 33.40625 -1.421875 27.6875 -1.421875 
Q 18.265625 -1.421875 13.375 4.4375 
Q 8.5 10.296875 8.5 21.578125 
M 31.109375 56 
z
" id="DejaVuSans-75"/>
     </defs>
     <g transform="translate(348.504375 159.401562)scale(0.1 -0.1)">
      <use xlink:href="#DejaVuSans-72"/>
      <use x="41.113281" xlink:href="#DejaVuSans-61"/>
      <use x="102.392578" xlink:href="#DejaVuSans-77"/>
      <use x="184.179688" xlink:href="#DejaVuSans-56"/>
      <use x="252.478516" xlink:href="#DejaVuSans-61"/>
      <use x="313.757812" xlink:href="#DejaVuSans-6c"/>
      <use x="341.541016" xlink:href="#DejaVuSans-75"/>
      <use x="404.919922" xlink:href="#DejaVuSans-65"/>
     </g>
    </g>
   </g>
  </g>
 </g>
 <defs>
  <clipPath id="p4d142fbc16">
   <rect height="266.112" width="357.12" x="58.7375" y="10.7"/>
  </clipPath>
 </defs>
</svg>
