<?xml version="1.0" encoding="utf-8" standalone="no"?>
<!DOCTYPE svg PUBLIC "-//W3C//DTD SVG 1.1//EN"
  "http://www.w3.org/Graphics/SVG/1.1/DTD/svg11.dtd">
<!-- Created with matplotlib (http://matplotlib.org/) -->
<svg height="300pt" version="1.1" viewBox="0 0 426 300" width="426pt" xmlns="http://www.w3.org/2000/svg" xmlns:xlink="http://www.w3.org/1999/xlink">
 <defs>
  <style type="text/css">
*{stroke-linecap:butt;stroke-linejoin:round;}
  </style>
 </defs>
 <g id="figure_1">
  <g id="patch_1">
   <path d="M 0 300.690125 
L 426.5575 300.690125 
L 426.5575 0 
L 0 0 
z
" style="fill:#ffffff;"/>
  </g>
  <g id="axes_1">
   <g id="patch_2">
    <path d="M 58.7375 276.812 
L 415.8575 276.812 
L 415.8575 10.7 
L 58.7375 10.7 
z
" style="fill:#ffffff;"/>
   </g>
   <g id="matplotlib.axis_1">
    <g id="xtick_1">
     <g id="line2d_1">
      <defs>
       <path d="M 0 0 
L 0 3.5 
" id="ma7fabbefa7" style="stroke:#000000;stroke-width:0.8;"/>
      </defs>
      <g>
       <use style="stroke:#000000;stroke-width:0.8;" x="74.970227" xlink:href="#ma7fabbefa7" y="276.812"/>
      </g>
     </g>
     <g id="text_1">
      <!-- 0 -->
      <defs>
       <path d="M 31.78125 66.40625 
Q 24.171875 66.40625 20.328125 58.90625 
Q 16.5 51.421875 16.5 36.375 
Q 16.5 21.390625 20.328125 13.890625 
Q 24.171875 6.390625 31.78125 6.390625 
Q 39.453125 6.390625 43.28125 13.890625 
Q 47.125 21.390625 47.125 36.375 
Q 47.125 51.421875 43.28125 58.90625 
Q 39.453125 66.40625 31.78125 66.40625 
M 31.78125 74.21875 
Q 44.046875 74.21875 50.515625 64.515625 
Q 56.984375 54.828125 56.984375 36.375 
Q 56.984375 17.96875 50.515625 8.265625 
Q 44.046875 -1.421875 31.78125 -1.421875 
Q 19.53125 -1.421875 13.0625 8.265625 
Q 6.59375 17.96875 6.59375 36.375 
Q 6.59375 54.828125 13.0625 64.515625 
Q 19.53125 74.21875 31.78125 74.21875 
" id="DejaVuSans-30"/>
      </defs>
      <g transform="translate(71.788977 291.410437)scale(0.1 -0.1)">
       <use xlink:href="#DejaVuSans-30"/>
      </g>
     </g>
    </g>
    <g id="xtick_2">
     <g id="line2d_2">
      <g>
       <use style="stroke:#000000;stroke-width:0.8;" x="116.170043" xlink:href="#ma7fabbefa7" y="276.812"/>
      </g>
     </g>
     <g id="text_2">
      <!-- 25 -->
      <defs>
       <path d="M 19.1875 8.296875 
L 53.609375 8.296875 
L 53.609375 0 
L 7.328125 0 
L 7.328125 8.296875 
Q 12.9375 14.109375 22.625 23.890625 
Q 32.328125 33.6875 34.8125 36.53125 
Q 39.546875 41.84375 41.421875 45.53125 
Q 43.3125 49.21875 43.3125 52.78125 
Q 43.3125 58.59375 39.234375 62.25 
Q 35.15625 65.921875 28.609375 65.921875 
Q 23.96875 65.921875 18.8125 64.3125 
Q 13.671875 62.703125 7.8125 59.421875 
L 7.8125 69.390625 
Q 13.765625 71.78125 18.9375 73 
Q 24.125 74.21875 28.421875 74.21875 
Q 39.75 74.21875 46.484375 68.546875 
Q 53.21875 62.890625 53.21875 53.421875 
Q 53.21875 48.921875 51.53125 44.890625 
Q 49.859375 40.875 45.40625 35.40625 
Q 44.1875 33.984375 37.640625 27.21875 
Q 31.109375 20.453125 19.1875 8.296875 
" id="DejaVuSans-32"/>
       <path d="M 10.796875 72.90625 
L 49.515625 72.90625 
L 49.515625 64.59375 
L 19.828125 64.59375 
L 19.828125 46.734375 
Q 21.96875 47.46875 24.109375 47.828125 
Q 26.265625 48.1875 28.421875 48.1875 
Q 40.625 48.1875 47.75 41.5 
Q 54.890625 34.8125 54.890625 23.390625 
Q 54.890625 11.625 47.5625 5.09375 
Q 40.234375 -1.421875 26.90625 -1.421875 
Q 22.3125 -1.421875 17.546875 -0.640625 
Q 12.796875 0.140625 7.71875 1.703125 
L 7.71875 11.625 
Q 12.109375 9.234375 16.796875 8.0625 
Q 21.484375 6.890625 26.703125 6.890625 
Q 35.15625 6.890625 40.078125 11.328125 
Q 45.015625 15.765625 45.015625 23.390625 
Q 45.015625 31 40.078125 35.4375 
Q 35.15625 39.890625 26.703125 39.890625 
Q 22.75 39.890625 18.8125 39.015625 
Q 14.890625 38.140625 10.796875 36.28125 
z
" id="DejaVuSans-35"/>
      </defs>
      <g transform="translate(109.807543 291.410437)scale(0.1 -0.1)">
       <use xlink:href="#DejaVuSans-32"/>
       <use x="63.623047" xlink:href="#DejaVuSans-35"/>
      </g>
     </g>
    </g>
    <g id="xtick_3">
     <g id="line2d_3">
      <g>
       <use style="stroke:#000000;stroke-width:0.8;" x="157.369858" xlink:href="#ma7fabbefa7" y="276.812"/>
      </g>
     </g>
     <g id="text_3">
      <!-- 50 -->
      <g transform="translate(151.007358 291.410437)scale(0.1 -0.1)">
       <use xlink:href="#DejaVuSans-35"/>
       <use x="63.623047" xlink:href="#DejaVuSans-30"/>
      </g>
     </g>
    </g>
    <g id="xtick_4">
     <g id="line2d_4">
      <g>
       <use style="stroke:#000000;stroke-width:0.8;" x="198.569674" xlink:href="#ma7fabbefa7" y="276.812"/>
      </g>
     </g>
     <g id="text_4">
      <!-- 75 -->
      <defs>
       <path d="M 8.203125 72.90625 
L 55.078125 72.90625 
L 55.078125 68.703125 
L 28.609375 0 
L 18.3125 0 
L 43.21875 64.59375 
L 8.203125 64.59375 
z
" id="DejaVuSans-37"/>
      </defs>
      <g transform="translate(192.207174 291.410437)scale(0.1 -0.1)">
       <use xlink:href="#DejaVuSans-37"/>
       <use x="63.623047" xlink:href="#DejaVuSans-35"/>
      </g>
     </g>
    </g>
    <g id="xtick_5">
     <g id="line2d_5">
      <g>
       <use style="stroke:#000000;stroke-width:0.8;" x="239.769489" xlink:href="#ma7fabbefa7" y="276.812"/>
      </g>
     </g>
     <g id="text_5">
      <!-- 100 -->
      <defs>
       <path d="M 12.40625 8.296875 
L 28.515625 8.296875 
L 28.515625 63.921875 
L 10.984375 60.40625 
L 10.984375 69.390625 
L 28.421875 72.90625 
L 38.28125 72.90625 
L 38.28125 8.296875 
L 54.390625 8.296875 
L 54.390625 0 
L 12.40625 0 
z
" id="DejaVuSans-31"/>
      </defs>
      <g transform="translate(230.225739 291.410437)scale(0.1 -0.1)">
       <use xlink:href="#DejaVuSans-31"/>
       <use x="63.623047" xlink:href="#DejaVuSans-30"/>
       <use x="127.246094" xlink:href="#DejaVuSans-30"/>
      </g>
     </g>
    </g>
    <g id="xtick_6">
     <g id="line2d_6">
      <g>
       <use style="stroke:#000000;stroke-width:0.8;" x="280.969304" xlink:href="#ma7fabbefa7" y="276.812"/>
      </g>
     </g>
     <g id="text_6">
      <!-- 125 -->
      <g transform="translate(271.425554 291.410437)scale(0.1 -0.1)">
       <use xlink:href="#DejaVuSans-31"/>
       <use x="63.623047" xlink:href="#DejaVuSans-32"/>
       <use x="127.246094" xlink:href="#DejaVuSans-35"/>
      </g>
     </g>
    </g>
    <g id="xtick_7">
     <g id="line2d_7">
      <g>
       <use style="stroke:#000000;stroke-width:0.8;" x="322.16912" xlink:href="#ma7fabbefa7" y="276.812"/>
      </g>
     </g>
     <g id="text_7">
      <!-- 150 -->
      <g transform="translate(312.62537 291.410437)scale(0.1 -0.1)">
       <use xlink:href="#DejaVuSans-31"/>
       <use x="63.623047" xlink:href="#DejaVuSans-35"/>
       <use x="127.246094" xlink:href="#DejaVuSans-30"/>
      </g>
     </g>
    </g>
    <g id="xtick_8">
     <g id="line2d_8">
      <g>
       <use style="stroke:#000000;stroke-width:0.8;" x="363.368935" xlink:href="#ma7fabbefa7" y="276.812"/>
      </g>
     </g>
     <g id="text_8">
      <!-- 175 -->
      <g transform="translate(353.825185 291.410437)scale(0.1 -0.1)">
       <use xlink:href="#DejaVuSans-31"/>
       <use x="63.623047" xlink:href="#DejaVuSans-37"/>
       <use x="127.246094" xlink:href="#DejaVuSans-35"/>
      </g>
     </g>
    </g>
    <g id="xtick_9">
     <g id="line2d_9">
      <g>
       <use style="stroke:#000000;stroke-width:0.8;" x="404.568751" xlink:href="#ma7fabbefa7" y="276.812"/>
      </g>
     </g>
     <g id="text_9">
      <!-- 200 -->
      <g transform="translate(395.025001 291.410437)scale(0.1 -0.1)">
       <use xlink:href="#DejaVuSans-32"/>
       <use x="63.623047" xlink:href="#DejaVuSans-30"/>
       <use x="127.246094" xlink:href="#DejaVuSans-30"/>
      </g>
     </g>
    </g>
   </g>
   <g id="matplotlib.axis_2">
    <g id="ytick_1">
     <g id="line2d_10">
      <defs>
       <path d="M 0 0 
L -3.5 0 
" id="m5c4529848b" style="stroke:#000000;stroke-width:0.8;"/>
      </defs>
      <g>
       <use style="stroke:#000000;stroke-width:0.8;" x="58.7375" xlink:href="#m5c4529848b" y="264.673623"/>
      </g>
     </g>
     <g id="text_10">
      <!-- 0 -->
      <g transform="translate(45.375 268.472841)scale(0.1 -0.1)">
       <use xlink:href="#DejaVuSans-30"/>
      </g>
     </g>
    </g>
    <g id="ytick_2">
     <g id="line2d_11">
      <g>
       <use style="stroke:#000000;stroke-width:0.8;" x="58.7375" xlink:href="#m5c4529848b" y="230.220496"/>
      </g>
     </g>
     <g id="text_11">
      <!-- 500000 -->
      <g transform="translate(13.5625 234.019715)scale(0.1 -0.1)">
       <use xlink:href="#DejaVuSans-35"/>
       <use x="63.623047" xlink:href="#DejaVuSans-30"/>
       <use x="127.246094" xlink:href="#DejaVuSans-30"/>
       <use x="190.869141" xlink:href="#DejaVuSans-30"/>
       <use x="254.492188" xlink:href="#DejaVuSans-30"/>
       <use x="318.115234" xlink:href="#DejaVuSans-30"/>
      </g>
     </g>
    </g>
    <g id="ytick_3">
     <g id="line2d_12">
      <g>
       <use style="stroke:#000000;stroke-width:0.8;" x="58.7375" xlink:href="#m5c4529848b" y="195.76737"/>
      </g>
     </g>
     <g id="text_12">
      <!-- 1000000 -->
      <g transform="translate(7.2 199.566589)scale(0.1 -0.1)">
       <use xlink:href="#DejaVuSans-31"/>
       <use x="63.623047" xlink:href="#DejaVuSans-30"/>
       <use x="127.246094" xlink:href="#DejaVuSans-30"/>
       <use x="190.869141" xlink:href="#DejaVuSans-30"/>
       <use x="254.492188" xlink:href="#DejaVuSans-30"/>
       <use x="318.115234" xlink:href="#DejaVuSans-30"/>
       <use x="381.738281" xlink:href="#DejaVuSans-30"/>
      </g>
     </g>
    </g>
    <g id="ytick_4">
     <g id="line2d_13">
      <g>
       <use style="stroke:#000000;stroke-width:0.8;" x="58.7375" xlink:href="#m5c4529848b" y="161.314243"/>
      </g>
     </g>
     <g id="text_13">
      <!-- 1500000 -->
      <g transform="translate(7.2 165.113462)scale(0.1 -0.1)">
       <use xlink:href="#DejaVuSans-31"/>
       <use x="63.623047" xlink:href="#DejaVuSans-35"/>
       <use x="127.246094" xlink:href="#DejaVuSans-30"/>
       <use x="190.869141" xlink:href="#DejaVuSans-30"/>
       <use x="254.492188" xlink:href="#DejaVuSans-30"/>
       <use x="318.115234" xlink:href="#DejaVuSans-30"/>
       <use x="381.738281" xlink:href="#DejaVuSans-30"/>
      </g>
     </g>
    </g>
    <g id="ytick_5">
     <g id="line2d_14">
      <g>
       <use style="stroke:#000000;stroke-width:0.8;" x="58.7375" xlink:href="#m5c4529848b" y="126.861117"/>
      </g>
     </g>
     <g id="text_14">
      <!-- 2000000 -->
      <g transform="translate(7.2 130.660336)scale(0.1 -0.1)">
       <use xlink:href="#DejaVuSans-32"/>
       <use x="63.623047" xlink:href="#DejaVuSans-30"/>
       <use x="127.246094" xlink:href="#DejaVuSans-30"/>
       <use x="190.869141" xlink:href="#DejaVuSans-30"/>
       <use x="254.492188" xlink:href="#DejaVuSans-30"/>
       <use x="318.115234" xlink:href="#DejaVuSans-30"/>
       <use x="381.738281" xlink:href="#DejaVuSans-30"/>
      </g>
     </g>
    </g>
    <g id="ytick_6">
     <g id="line2d_15">
      <g>
       <use style="stroke:#000000;stroke-width:0.8;" x="58.7375" xlink:href="#m5c4529848b" y="92.407991"/>
      </g>
     </g>
     <g id="text_15">
      <!-- 2500000 -->
      <g transform="translate(7.2 96.207209)scale(0.1 -0.1)">
       <use xlink:href="#DejaVuSans-32"/>
       <use x="63.623047" xlink:href="#DejaVuSans-35"/>
       <use x="127.246094" xlink:href="#DejaVuSans-30"/>
       <use x="190.869141" xlink:href="#DejaVuSans-30"/>
       <use x="254.492188" xlink:href="#DejaVuSans-30"/>
       <use x="318.115234" xlink:href="#DejaVuSans-30"/>
       <use x="381.738281" xlink:href="#DejaVuSans-30"/>
      </g>
     </g>
    </g>
    <g id="ytick_7">
     <g id="line2d_16">
      <g>
       <use style="stroke:#000000;stroke-width:0.8;" x="58.7375" xlink:href="#m5c4529848b" y="57.954864"/>
      </g>
     </g>
     <g id="text_16">
      <!-- 3000000 -->
      <defs>
       <path d="M 40.578125 39.3125 
Q 47.65625 37.796875 51.625 33 
Q 55.609375 28.21875 55.609375 21.1875 
Q 55.609375 10.40625 48.1875 4.484375 
Q 40.765625 -1.421875 27.09375 -1.421875 
Q 22.515625 -1.421875 17.65625 -0.515625 
Q 12.796875 0.390625 7.625 2.203125 
L 7.625 11.71875 
Q 11.71875 9.328125 16.59375 8.109375 
Q 21.484375 6.890625 26.8125 6.890625 
Q 36.078125 6.890625 40.9375 10.546875 
Q 45.796875 14.203125 45.796875 21.1875 
Q 45.796875 27.640625 41.28125 31.265625 
Q 36.765625 34.90625 28.71875 34.90625 
L 20.21875 34.90625 
L 20.21875 43.015625 
L 29.109375 43.015625 
Q 36.375 43.015625 40.234375 45.921875 
Q 44.09375 48.828125 44.09375 54.296875 
Q 44.09375 59.90625 40.109375 62.90625 
Q 36.140625 65.921875 28.71875 65.921875 
Q 24.65625 65.921875 20.015625 65.03125 
Q 15.375 64.15625 9.8125 62.3125 
L 9.8125 71.09375 
Q 15.4375 72.65625 20.34375 73.4375 
Q 25.25 74.21875 29.59375 74.21875 
Q 40.828125 74.21875 47.359375 69.109375 
Q 53.90625 64.015625 53.90625 55.328125 
Q 53.90625 49.265625 50.4375 45.09375 
Q 46.96875 40.921875 40.578125 39.3125 
" id="DejaVuSans-33"/>
      </defs>
      <g transform="translate(7.2 61.754083)scale(0.1 -0.1)">
       <use xlink:href="#DejaVuSans-33"/>
       <use x="63.623047" xlink:href="#DejaVuSans-30"/>
       <use x="127.246094" xlink:href="#DejaVuSans-30"/>
       <use x="190.869141" xlink:href="#DejaVuSans-30"/>
       <use x="254.492188" xlink:href="#DejaVuSans-30"/>
       <use x="318.115234" xlink:href="#DejaVuSans-30"/>
       <use x="381.738281" xlink:href="#DejaVuSans-30"/>
      </g>
     </g>
    </g>
    <g id="ytick_8">
     <g id="line2d_17">
      <g>
       <use style="stroke:#000000;stroke-width:0.8;" x="58.7375" xlink:href="#m5c4529848b" y="23.501738"/>
      </g>
     </g>
     <g id="text_17">
      <!-- 3500000 -->
      <g transform="translate(7.2 27.300957)scale(0.1 -0.1)">
       <use xlink:href="#DejaVuSans-33"/>
       <use x="63.623047" xlink:href="#DejaVuSans-35"/>
       <use x="127.246094" xlink:href="#DejaVuSans-30"/>
       <use x="190.869141" xlink:href="#DejaVuSans-30"/>
       <use x="254.492188" xlink:href="#DejaVuSans-30"/>
       <use x="318.115234" xlink:href="#DejaVuSans-30"/>
       <use x="381.738281" xlink:href="#DejaVuSans-30"/>
      </g>
     </g>
    </g>
   </g>
   <g id="line2d_18">
    <path clip-path="url(#p9b7763bbac)" d="M 74.970227 145.506322 
L 76.61822 252.566381 
L 78.266213 201.813342 
L 79.914205 223.282326 
L 81.562198 264.165852 
L 83.21019 255.802494 
L 84.858183 241.316884 
L 86.506176 264.004681 
L 88.154168 254.062473 
L 89.802161 248.046062 
L 91.450153 131.115182 
L 93.098146 263.600063 
L 94.746139 259.953751 
L 96.394131 261.126742 
L 98.042124 260.895562 
L 99.690117 263.534533 
L 101.338109 248.160859 
L 102.986102 258.238261 
L 104.634094 262.672241 
L 106.282087 255.888627 
L 107.93008 263.700873 
L 109.578072 259.374181 
L 111.226065 256.456759 
L 112.874057 260.19382 
L 114.52205 263.213086 
L 116.170043 263.904284 
L 117.818035 262.95262 
L 119.466028 264.03686 
L 121.114021 261.494288 
L 122.762013 257.313953 
L 124.410006 232.445479 
L 126.057998 262.820802 
L 127.705991 263.283784 
L 129.353984 263.116755 
L 131.001976 259.096971 
L 132.649969 256.469369 
L 134.297961 253.356253 
L 135.945954 141.298837 
L 137.593947 256.619377 
L 139.241939 263.560098 
L 140.889932 262.259837 
L 142.537925 212.192347 
L 144.185917 250.977954 
L 145.83391 259.37294 
L 147.481902 263.066178 
L 149.129895 257.864513 
L 150.777888 247.898464 
L 152.42588 230.57936 
L 154.073873 262.441887 
L 155.721865 258.618555 
L 157.369858 263.13281 
L 159.017851 259.501864 
L 160.665843 241.543103 
L 162.313836 264.272726 
L 163.961829 257.144512 
L 165.609821 264.307317 
L 167.257814 244.57422 
L 168.905806 251.588532 
L 170.553799 162.345288 
L 172.201792 254.630881 
L 173.849784 254.62151 
L 175.497777 171.188716 
L 177.145769 220.834638 
L 178.793762 257.782928 
L 180.441755 263.006643 
L 182.089747 258.17845 
L 183.73774 78.494991 
L 185.385733 192.339835 
L 187.033725 258.201878 
L 188.681718 193.680199 
L 190.32971 258.068683 
L 191.977703 174.616596 
L 193.625696 261.448052 
L 195.273688 261.294873 
L 196.921681 257.10682 
L 198.569674 235.433943 
L 200.217666 263.883199 
L 201.865659 239.022512 
L 203.513651 248.981119 
L 205.161644 254.357254 
L 206.809637 263.529365 
L 208.457629 252.955701 
L 210.105622 258.864274 
L 211.753614 259.196127 
L 213.401607 251.527205 
L 215.0496 92.255363 
L 216.697592 263.715757 
L 218.345585 258.714954 
L 219.993578 256.367318 
L 221.64157 262.198234 
L 223.289563 238.871538 
L 226.585548 263.527574 
L 228.233541 220.976585 
L 229.881533 254.92008 
L 231.529526 263.613155 
L 233.177518 228.308692 
L 234.825511 260.986105 
L 236.473504 224.899487 
L 238.121496 230.516586 
L 239.769489 248.584219 
L 241.417482 254.439184 
L 243.065474 259.319469 
L 244.713467 206.443842 
L 246.361459 254.157633 
L 248.009452 262.272171 
L 249.657445 255.859342 
L 251.305437 255.414758 
L 252.95343 239.457655 
L 254.601422 241.225927 
L 256.249415 261.251876 
L 257.897408 262.756857 
L 259.5454 261.668276 
L 261.193393 192.300696 
L 262.841386 258.975489 
L 264.489378 254.612758 
L 266.137371 256.582099 
L 267.785363 261.958578 
L 269.433356 262.437684 
L 271.081349 243.61601 
L 272.729341 261.662213 
L 274.377334 264.407024 
L 276.025326 234.180263 
L 277.673319 264.527472 
L 279.321312 253.193221 
L 280.969304 263.332156 
L 282.617297 263.206884 
L 284.26529 261.33918 
L 285.913282 262.708899 
L 287.561275 263.165747 
L 289.209267 241.114782 
L 290.85726 262.969778 
L 294.153245 245.636823 
L 295.801238 262.555927 
L 297.449231 166.259094 
L 299.097223 249.555453 
L 300.745216 260.67451 
L 302.393208 260.575423 
L 304.041201 237.744163 
L 305.689194 256.341892 
L 307.337186 264.195758 
L 308.985179 241.603327 
L 310.633171 249.984119 
L 312.281164 262.470828 
L 313.929157 189.858383 
L 315.577149 132.911224 
L 317.225142 246.875206 
L 318.873135 260.571565 
L 320.521127 255.001459 
L 322.16912 261.527225 
L 323.817112 260.991893 
L 325.465105 259.206049 
L 327.113098 261.088775 
L 328.76109 223.353919 
L 330.409083 262.032928 
L 332.057075 253.816409 
L 333.705068 261.573255 
L 335.353061 250.756558 
L 337.001053 264.058565 
L 338.649046 262.153308 
L 340.297039 251.939127 
L 341.945031 261.998682 
L 343.593024 263.766196 
L 345.241016 194.085437 
L 346.889009 263.362061 
L 348.537002 254.429881 
L 350.184994 263.931433 
L 351.832987 255.82351 
L 353.480979 259.834957 
L 355.128972 259.928531 
L 356.776965 235.762006 
L 358.424957 262.215943 
L 360.07295 261.323883 
L 361.720943 264.54842 
L 363.368935 254.435532 
L 365.016928 22.796 
L 366.66492 248.918139 
L 368.312913 262.646332 
L 369.960906 262.839958 
L 371.608898 227.729604 
L 373.256891 224.168736 
L 374.904883 217.732547 
L 376.552876 257.894832 
L 378.200869 172.012353 
L 379.848861 256.256931 
L 381.496854 260.449187 
L 383.144847 232.285686 
L 384.792839 252.358973 
L 386.440832 260.027687 
L 388.088824 207.878195 
L 389.736817 233.279934 
L 391.38481 264.184319 
L 393.032802 249.74274 
L 394.680795 260.15792 
L 396.328787 256.03774 
L 397.97678 260.146206 
L 399.624773 213.333779 
L 399.624773 213.333779 
" style="fill:none;stroke:#1f77b4;stroke-linecap:square;stroke-width:1.5;"/>
   </g>
   <g id="line2d_19">
    <path clip-path="url(#p9b7763bbac)" d="M 74.970227 261.076303 
L 76.61822 263.657738 
L 78.266213 251.782779 
L 79.914205 260.299316 
L 81.562198 264.442029 
L 83.21019 263.561131 
L 84.858183 260.789377 
L 86.506176 264.075516 
L 88.154168 263.350829 
L 89.802161 258.993129 
L 91.450153 258.167701 
L 93.098146 263.855705 
L 94.746139 258.427478 
L 96.394131 257.919432 
L 98.042124 263.062663 
L 99.690117 260.638748 
L 101.338109 260.61532 
L 102.986102 262.133049 
L 104.634094 262.902181 
L 106.282087 261.056113 
L 107.93008 264.20127 
L 109.578072 262.647021 
L 111.226065 263.018977 
L 112.874057 264.351004 
L 114.52205 263.137702 
L 116.170043 263.463147 
L 117.818035 263.321682 
L 119.466028 263.526954 
L 121.114021 261.768259 
L 122.762013 262.889984 
L 124.410006 263.751864 
L 126.057998 246.794242 
L 127.705991 264.244957 
L 131.001976 261.589241 
L 132.649969 262.055047 
L 134.297961 263.056255 
L 135.945954 236.919562 
L 137.593947 262.051257 
L 139.241939 264.073656 
L 140.889932 263.123301 
L 142.537925 241.842914 
L 144.185917 264.262459 
L 145.83391 262.235857 
L 147.481902 263.925783 
L 149.129895 261.601437 
L 150.777888 255.997774 
L 152.42588 254.06833 
L 154.073873 261.165605 
L 155.721865 261.411945 
L 157.369858 263.799547 
L 159.017851 259.94686 
L 160.665843 249.273971 
L 162.313836 264.504044 
L 163.961829 257.892076 
L 165.609821 263.494017 
L 167.257814 256.982445 
L 168.905806 262.666315 
L 170.553799 257.441429 
L 172.201792 263.416015 
L 173.849784 256.73259 
L 175.497777 227.853498 
L 177.145769 263.642165 
L 178.793762 258.983069 
L 180.441755 264.134776 
L 182.089747 257.919294 
L 183.73774 252.688551 
L 185.385733 260.812461 
L 187.033725 263.525093 
L 188.681718 259.017935 
L 190.32971 253.853687 
L 191.977703 257.452178 
L 193.625696 263.603371 
L 195.273688 262.768227 
L 196.921681 263.718375 
L 198.569674 257.644565 
L 200.217666 263.968505 
L 201.865659 261.726364 
L 203.513651 263.526058 
L 205.161644 252.350635 
L 206.809637 262.488399 
L 208.457629 261.15017 
L 210.105622 262.556891 
L 211.753614 261.188207 
L 213.401607 258.433541 
L 215.0496 224.460691 
L 216.697592 264.560272 
L 218.345585 261.892566 
L 219.993578 257.062031 
L 221.64157 263.327608 
L 223.289563 262.783317 
L 224.937555 257.979794 
L 226.585548 262.960544 
L 228.233541 263.923716 
L 229.881533 259.770392 
L 231.529526 264.236481 
L 233.177518 260.645156 
L 234.825511 258.650734 
L 236.473504 243.711927 
L 238.121496 263.660356 
L 239.769489 259.700589 
L 243.065474 263.904767 
L 244.713467 261.898286 
L 246.361459 259.526532 
L 248.009452 263.07424 
L 249.657445 256.387163 
L 251.305437 260.047464 
L 252.95343 254.320734 
L 254.601422 256.630265 
L 256.249415 262.494807 
L 259.5454 262.491706 
L 261.193393 255.146506 
L 262.841386 263.761166 
L 264.489378 263.410778 
L 266.137371 263.977601 
L 267.785363 261.627002 
L 269.433356 263.22983 
L 271.081349 258.929804 
L 272.729341 261.644366 
L 274.377334 264.014534 
L 276.025326 260.185414 
L 277.673319 264.503149 
L 279.321312 258.219243 
L 280.969304 261.259938 
L 282.617297 261.483539 
L 284.26529 263.672553 
L 285.913282 264.456086 
L 287.561275 263.405541 
L 289.209267 261.873962 
L 290.85726 262.541181 
L 292.505253 264.353622 
L 294.153245 250.21399 
L 295.801238 262.355065 
L 297.449231 261.158439 
L 299.097223 263.955551 
L 300.745216 261.686399 
L 302.393208 263.732639 
L 304.041201 260.701315 
L 305.689194 258.588305 
L 307.337186 264.202717 
L 308.985179 263.911313 
L 310.633171 262.257287 
L 312.281164 264.096395 
L 313.929157 257.73118 
L 315.577149 259.928738 
L 317.225142 261.092565 
L 318.873135 262.915342 
L 320.521127 264.005783 
L 322.16912 263.93102 
L 323.817112 258.932078 
L 325.465105 259.996473 
L 327.113098 260.196921 
L 328.76109 246.384112 
L 330.409083 263.41381 
L 332.057075 258.857521 
L 333.705068 263.775016 
L 335.353061 261.374598 
L 337.001053 264.320134 
L 338.649046 263.180838 
L 340.297039 263.281647 
L 341.945031 264.429005 
L 343.593024 264.271417 
L 345.241016 257.306373 
L 346.889009 263.510347 
L 348.537002 261.043503 
L 350.184994 260.235784 
L 351.832987 258.860278 
L 353.480979 263.909452 
L 355.128972 264.194655 
L 356.776965 251.389875 
L 358.424957 261.339456 
L 360.07295 261.986623 
L 361.720943 264.191968 
L 363.368935 261.369568 
L 365.016928 242.088909 
L 366.66492 263.263525 
L 368.312913 262.325435 
L 369.960906 264.433829 
L 371.608898 261.993169 
L 373.256891 262.46373 
L 374.904883 260.940833 
L 376.552876 262.330328 
L 378.200869 261.81105 
L 379.848861 264.150004 
L 381.496854 262.508795 
L 383.144847 264.229177 
L 384.792839 262.938494 
L 386.440832 262.529191 
L 388.088824 231.349801 
L 389.736817 250.07542 
L 391.38481 264.415362 
L 393.032802 261.353995 
L 394.680795 262.350242 
L 396.328787 262.228209 
L 397.97678 263.362543 
L 399.624773 262.582869 
L 399.624773 262.582869 
" style="fill:none;stroke:#ff7f0e;stroke-linecap:square;stroke-width:1.5;"/>
   </g>
   <g id="line2d_20">
    <path clip-path="url(#p9b7763bbac)" d="M 74.970227 260.23985 
L 76.61822 264.560203 
L 78.266213 261.219352 
L 79.914205 263.689504 
L 81.562198 263.928126 
L 83.21019 264.343355 
L 86.506176 264.415086 
L 88.154168 263.597031 
L 89.802161 263.762889 
L 91.450153 263.242784 
L 93.098146 264.658188 
L 94.746139 264.105973 
L 96.394131 263.242578 
L 98.042124 263.902079 
L 99.690117 262.506728 
L 101.338109 263.122612 
L 102.986102 264.15848 
L 104.634094 264.578877 
L 106.282087 264.157446 
L 107.93008 264.590108 
L 109.578072 264.489781 
L 111.226065 264.108729 
L 112.874057 264.542425 
L 114.52205 264.377395 
L 116.170043 263.034963 
L 117.818035 263.305351 
L 119.466028 264.541598 
L 121.114021 263.85288 
L 122.762013 263.319753 
L 124.410006 264.543528 
L 126.057998 263.74139 
L 129.353984 264.604923 
L 131.001976 263.419047 
L 132.649969 264.387317 
L 134.297961 263.922682 
L 135.945954 252.707845 
L 137.593947 264.257084 
L 139.241939 264.385526 
L 140.889932 262.858839 
L 142.537925 262.206572 
L 144.185917 264.62525 
L 145.83391 264.443269 
L 149.129895 264.473105 
L 150.777888 264.108109 
L 152.42588 262.091705 
L 155.721865 264.132846 
L 157.369858 264.611056 
L 159.017851 264.094397 
L 160.665843 251.13947 
L 162.313836 264.374983 
L 163.961829 262.794687 
L 165.609821 263.726989 
L 167.257814 264.019289 
L 168.905806 263.613362 
L 170.553799 263.369021 
L 172.201792 264.315999 
L 173.849784 261.290946 
L 175.497777 261.60571 
L 177.145769 263.817945 
L 178.793762 263.251191 
L 182.089747 263.558719 
L 183.73774 255.550435 
L 185.385733 263.588142 
L 187.033725 264.549798 
L 188.681718 263.872519 
L 191.977703 262.734325 
L 193.625696 264.661771 
L 195.273688 263.955757 
L 196.921681 263.965197 
L 198.569674 263.688952 
L 200.217666 264.122924 
L 201.865659 264.195413 
L 203.513651 264.62339 
L 205.161644 264.197067 
L 208.457629 264.603476 
L 210.105622 264.547249 
L 211.753614 264.210504 
L 213.401607 263.465076 
L 215.0496 260.063794 
L 216.697592 264.459186 
L 218.345585 264.477171 
L 219.993578 264.049194 
L 221.64157 264.411641 
L 223.289563 263.584077 
L 224.937555 263.629762 
L 226.585548 264.452571 
L 228.233541 263.781976 
L 229.881533 263.303284 
L 231.529526 264.540427 
L 233.177518 261.287363 
L 234.825511 264.243579 
L 236.473504 260.70855 
L 238.121496 263.355446 
L 239.769489 264.187007 
L 241.417482 262.451947 
L 243.065474 263.849022 
L 244.713467 263.449985 
L 246.361459 264.397584 
L 248.009452 264.11121 
L 249.657445 262.786487 
L 251.305437 263.80878 
L 252.95343 262.649984 
L 254.601422 263.71872 
L 256.249415 263.519443 
L 259.5454 263.553689 
L 261.193393 262.072687 
L 262.841386 264.596172 
L 264.489378 264.124509 
L 266.137371 264.417154 
L 267.785363 264.211331 
L 269.433356 263.375842 
L 271.081349 263.572087 
L 272.729341 264.288506 
L 274.377334 264.28637 
L 276.025326 263.74263 
L 277.673319 264.50494 
L 279.321312 264.041821 
L 280.969304 264.081442 
L 282.617297 261.61763 
L 284.26529 262.936909 
L 285.913282 264.064009 
L 287.561275 264.224423 
L 289.209267 262.439475 
L 290.85726 264.152416 
L 292.505253 264.613192 
L 294.153245 264.450229 
L 295.801238 264.117618 
L 297.449231 264.006955 
L 299.097223 264.540358 
L 300.745216 264.264802 
L 302.393208 264.490125 
L 304.041201 263.434688 
L 305.689194 264.306766 
L 308.985179 264.536568 
L 310.633171 263.983802 
L 312.281164 263.559615 
L 313.929157 263.262698 
L 315.577149 263.729814 
L 317.225142 262.855187 
L 318.873135 264.088402 
L 320.521127 264.511142 
L 322.16912 264.335293 
L 323.817112 264.011365 
L 325.465105 264.500392 
L 327.113098 259.666894 
L 328.76109 262.290086 
L 330.409083 264.587007 
L 332.057075 264.350039 
L 333.705068 264.541667 
L 335.353061 263.946731 
L 340.297039 264.582735 
L 341.945031 264.403648 
L 343.593024 264.560892 
L 345.241016 259.742553 
L 346.889009 264.314897 
L 348.537002 263.977945 
L 350.184994 264.416602 
L 351.832987 264.062149 
L 353.480979 264.588455 
L 355.128972 263.634792 
L 356.776965 263.274619 
L 358.424957 263.877411 
L 360.07295 264.202304 
L 361.720943 263.79307 
L 363.368935 264.392554 
L 365.016928 260.839403 
L 366.66492 263.551691 
L 368.312913 263.942734 
L 369.960906 264.188523 
L 371.608898 264.082131 
L 374.904883 264.501908 
L 378.200869 263.478788 
L 379.848861 264.645509 
L 381.496854 263.223422 
L 383.144847 264.501564 
L 386.440832 263.811812 
L 388.088824 262.905557 
L 389.736817 260.767465 
L 391.38481 264.36065 
L 393.032802 263.948453 
L 394.680795 264.301529 
L 396.328787 264.530987 
L 399.624773 263.191518 
L 399.624773 263.191518 
" style="fill:none;stroke:#2ca02c;stroke-linecap:square;stroke-width:1.5;"/>
   </g>
   <g id="line2d_21">
    <path clip-path="url(#p9b7763bbac)" d="M 74.970227 262.298769 
L 76.61822 264.541392 
L 78.266213 262.637925 
L 79.914205 264.363613 
L 81.562198 264.555862 
L 83.21019 264.171847 
L 88.154168 264.365336 
L 89.802161 264.301805 
L 91.450153 263.952519 
L 93.098146 264.577154 
L 94.746139 264.253501 
L 96.394131 263.000786 
L 98.042124 263.811468 
L 99.690117 262.774153 
L 101.338109 264.273277 
L 102.986102 264.112864 
L 104.634094 264.263493 
L 106.282087 263.995034 
L 107.93008 264.418394 
L 112.874057 264.572468 
L 114.52205 264.259703 
L 116.170043 264.132226 
L 117.818035 263.563198 
L 121.114021 264.559996 
L 122.762013 263.8258 
L 124.410006 263.414085 
L 126.057998 264.29388 
L 127.705991 264.471727 
L 129.353984 264.381529 
L 131.001976 263.187728 
L 132.649969 264.455672 
L 135.945954 263.866455 
L 137.593947 264.577085 
L 139.241939 264.080202 
L 140.889932 264.23345 
L 142.537925 263.664284 
L 144.185917 264.513416 
L 145.83391 264.212089 
L 147.481902 264.180598 
L 149.129895 264.494673 
L 150.777888 262.467796 
L 152.42588 262.990036 
L 154.073873 264.507627 
L 155.721865 264.39786 
L 157.369858 264.57743 
L 160.665843 262.899562 
L 162.313836 264.28127 
L 163.961829 264.033484 
L 165.609821 263.984905 
L 167.257814 263.682337 
L 168.905806 264.179014 
L 170.553799 264.238755 
L 172.201792 263.932191 
L 173.849784 262.588175 
L 175.497777 263.577049 
L 177.145769 264.2914 
L 178.793762 263.595447 
L 180.441755 264.591555 
L 182.089747 263.852949 
L 183.73774 261.744762 
L 185.385733 261.993376 
L 187.033725 264.185146 
L 188.681718 263.851227 
L 190.32971 264.336051 
L 191.977703 262.787659 
L 193.625696 264.495018 
L 195.273688 264.004887 
L 196.921681 263.802785 
L 198.569674 262.737839 
L 200.217666 263.953483 
L 201.865659 264.518997 
L 205.161644 264.146834 
L 206.809637 264.411297 
L 208.457629 264.180805 
L 210.105622 264.570539 
L 213.401607 264.192795 
L 215.0496 262.471792 
L 216.697592 264.53581 
L 221.64157 264.421564 
L 223.289563 264.243923 
L 224.937555 264.236964 
L 226.585548 264.41426 
L 228.233541 263.614327 
L 229.881533 264.464699 
L 231.529526 264.471796 
L 233.177518 263.062939 
L 234.825511 264.328127 
L 236.473504 264.174535 
L 238.121496 264.255637 
L 239.769489 263.86046 
L 241.417482 263.899943 
L 243.065474 264.117136 
L 244.713467 264.600995 
L 246.361459 264.408954 
L 248.009452 264.349005 
L 249.657445 264.146628 
L 251.305437 264.503562 
L 252.95343 263.262423 
L 254.601422 264.281339 
L 256.249415 264.110038 
L 257.897408 264.092467 
L 259.5454 263.918686 
L 261.193393 262.327158 
L 262.841386 264.64923 
L 264.489378 264.554415 
L 266.137371 264.610436 
L 267.785363 263.080028 
L 269.433356 264.405302 
L 271.081349 263.588418 
L 272.729341 264.459875 
L 276.025326 264.216567 
L 279.321312 264.162407 
L 280.969304 263.840615 
L 282.617297 264.125887 
L 284.26529 264.062424 
L 285.913282 263.386661 
L 287.561275 264.136154 
L 289.209267 263.227074 
L 290.85726 263.961683 
L 292.505253 264.545595 
L 294.153245 263.226178 
L 297.449231 264.348385 
L 299.097223 264.487438 
L 300.745216 264.098531 
L 304.041201 264.1673 
L 305.689194 264.448919 
L 308.985179 264.482408 
L 312.281164 264.171296 
L 313.929157 263.181251 
L 317.225142 263.562027 
L 318.873135 264.302631 
L 322.16912 264.316344 
L 323.817112 264.239996 
L 325.465105 264.459944 
L 327.113098 262.738322 
L 328.76109 263.835998 
L 330.409083 263.916963 
L 332.057075 264.369264 
L 333.705068 264.596448 
L 335.353061 264.252468 
L 337.001053 264.56482 
L 338.649046 264.214569 
L 340.297039 264.58687 
L 341.945031 264.583838 
L 343.593024 263.988557 
L 345.241016 260.832788 
L 346.889009 263.779151 
L 348.537002 261.683643 
L 350.184994 264.234345 
L 351.832987 264.275413 
L 353.480979 264.649437 
L 355.128972 264.227455 
L 356.776965 262.990243 
L 358.424957 264.422046 
L 360.07295 262.955721 
L 361.720943 263.990142 
L 363.368935 264.192864 
L 365.016928 260.163364 
L 366.66492 264.086817 
L 368.312913 263.223146 
L 369.960906 264.291055 
L 371.608898 263.124128 
L 373.256891 264.130848 
L 374.904883 264.49867 
L 376.552876 264.546353 
L 378.200869 262.677546 
L 379.848861 264.638205 
L 381.496854 264.136361 
L 384.792839 264.523545 
L 386.440832 264.611952 
L 388.088824 263.602819 
L 389.736817 260.667482 
L 391.38481 264.001304 
L 393.032802 264.252743 
L 394.680795 263.555343 
L 396.328787 264.493364 
L 397.97678 264.198307 
L 399.624773 262.824799 
L 399.624773 262.824799 
" style="fill:none;stroke:#d62728;stroke-linecap:square;stroke-width:1.5;"/>
   </g>
   <g id="line2d_22">
    <path clip-path="url(#p9b7763bbac)" d="M 74.970227 263.730985 
L 76.61822 264.606163 
L 78.266213 262.19851 
L 79.914205 264.465112 
L 81.562198 264.385319 
L 83.21019 264.1232 
L 84.858183 263.980219 
L 86.506176 264.369815 
L 88.154168 264.377946 
L 89.802161 264.589695 
L 91.450153 263.665869 
L 93.098146 264.54401 
L 94.746139 264.172123 
L 96.394131 262.263902 
L 98.042124 264.598239 
L 99.690117 262.42845 
L 101.338109 264.017911 
L 102.986102 263.806093 
L 104.634094 264.448506 
L 106.282087 264.319031 
L 107.93008 264.526577 
L 109.578072 264.280237 
L 111.226065 264.180254 
L 112.874057 264.488403 
L 114.52205 264.152554 
L 116.170043 264.282028 
L 117.818035 263.907799 
L 119.466028 264.258669 
L 121.114021 264.3991 
L 122.762013 264.21891 
L 124.410006 263.232655 
L 126.057998 264.284854 
L 127.705991 264.588592 
L 131.001976 264.010469 
L 132.649969 264.367128 
L 134.297961 264.425009 
L 135.945954 257.25111 
L 137.593947 264.480272 
L 139.241939 263.835929 
L 140.889932 263.818289 
L 142.537925 263.15672 
L 144.185917 264.557309 
L 145.83391 264.304354 
L 147.481902 264.499014 
L 149.129895 264.483924 
L 150.777888 262.021903 
L 152.42588 264.337774 
L 154.073873 264.470487 
L 155.721865 264.224009 
L 157.369858 264.621667 
L 159.017851 263.552104 
L 160.665843 263.197857 
L 162.313836 264.557309 
L 163.961829 264.138841 
L 165.609821 264.296499 
L 168.905806 263.865697 
L 170.553799 263.753724 
L 172.201792 264.411986 
L 173.849784 261.727053 
L 175.497777 263.008916 
L 177.145769 264.08282 
L 178.793762 264.110865 
L 180.441755 264.40916 
L 182.089747 264.511348 
L 183.73774 259.78369 
L 185.385733 262.651844 
L 187.033725 264.398618 
L 188.681718 262.063592 
L 190.32971 264.187145 
L 191.977703 263.379012 
L 193.625696 264.583769 
L 195.273688 263.760615 
L 196.921681 264.377946 
L 198.569674 262.94945 
L 200.217666 264.097635 
L 201.865659 264.504251 
L 203.513651 263.634034 
L 205.161644 264.434656 
L 206.809637 264.410401 
L 208.457629 264.131951 
L 210.105622 264.598859 
L 211.753614 264.515758 
L 213.401607 264.571159 
L 215.0496 262.653016 
L 216.697592 264.590315 
L 219.993578 264.251503 
L 221.64157 264.335431 
L 223.289563 263.747523 
L 224.937555 264.418601 
L 226.585548 264.532709 
L 228.233541 262.942766 
L 229.881533 264.131813 
L 231.529526 264.491435 
L 233.177518 263.841855 
L 234.825511 264.151451 
L 238.121496 262.821974 
L 239.769489 263.927644 
L 241.417482 263.402854 
L 243.065474 264.470694 
L 244.713467 263.585248 
L 246.361459 264.444854 
L 248.009452 264.165163 
L 249.657445 264.42873 
L 251.305437 264.38463 
L 252.95343 263.627074 
L 256.249415 263.989108 
L 257.897408 263.895671 
L 259.5454 264.27314 
L 261.193393 262.817771 
L 262.841386 264.647576 
L 264.489378 264.485302 
L 266.137371 264.622219 
L 267.785363 264.282373 
L 269.433356 263.589796 
L 271.081349 263.102629 
L 272.729341 264.069039 
L 274.377334 264.458773 
L 276.025326 264.238342 
L 279.321312 264.505767 
L 280.969304 264.190865 
L 282.617297 263.487608 
L 284.26529 264.200512 
L 285.913282 264.302838 
L 287.561275 263.950383 
L 289.209267 262.246124 
L 290.85726 263.881201 
L 292.505253 264.608506 
L 294.153245 263.117788 
L 295.801238 264.272106 
L 297.449231 264.111899 
L 299.097223 264.540496 
L 300.745216 264.208781 
L 302.393208 264.426318 
L 304.041201 264.260254 
L 305.689194 264.541805 
L 307.337186 264.513553 
L 308.985179 264.220288 
L 312.281164 264.422528 
L 313.929157 264.042372 
L 315.577149 263.799547 
L 317.225142 264.322614 
L 320.521127 264.521615 
L 323.817112 264.326473 
L 327.113098 264.318135 
L 328.76109 263.954862 
L 330.409083 263.840477 
L 332.057075 264.534777 
L 337.001053 264.561719 
L 338.649046 264.272588 
L 340.297039 264.630074 
L 343.593024 264.315448 
L 345.241016 263.003404 
L 346.889009 264.476964 
L 350.184994 264.326473 
L 353.480979 264.646956 
L 355.128972 264.134431 
L 356.776965 263.207849 
L 358.424957 264.368506 
L 360.07295 263.596894 
L 361.720943 264.215947 
L 363.368935 264.281753 
L 365.016928 263.255877 
L 366.66492 263.87872 
L 368.312913 262.744179 
L 369.960906 264.395999 
L 371.608898 262.56137 
L 373.256891 264.223114 
L 374.904883 264.163923 
L 376.552876 264.347283 
L 378.200869 262.514376 
L 379.848861 264.527679 
L 381.496854 263.730641 
L 383.144847 263.439925 
L 384.792839 264.395517 
L 386.440832 264.438515 
L 388.088824 263.063215 
L 389.736817 263.176152 
L 391.38481 264.397171 
L 393.032802 264.414466 
L 394.680795 264.604854 
L 396.328787 264.267007 
L 397.97678 264.387524 
L 399.624773 263.577049 
L 399.624773 263.577049 
" style="fill:none;stroke:#9467bd;stroke-linecap:square;stroke-width:1.5;"/>
   </g>
   <g id="line2d_23">
    <path clip-path="url(#p9b7763bbac)" d="M 74.970227 264.319582 
L 76.61822 264.607748 
L 78.266213 263.211156 
L 79.914205 264.43817 
L 81.562198 264.549798 
L 84.858183 264.238411 
L 86.506176 264.452296 
L 88.154168 264.512175 
L 89.802161 264.341839 
L 91.450153 263.244714 
L 93.098146 264.431073 
L 94.746139 263.786248 
L 96.394131 263.590761 
L 98.042124 264.108798 
L 99.690117 264.322614 
L 101.338109 263.870727 
L 102.986102 264.475931 
L 107.93008 264.512313 
L 111.226065 264.434794 
L 112.874057 264.574398 
L 114.52205 263.877066 
L 116.170043 264.063389 
L 117.818035 263.93419 
L 119.466028 264.390349 
L 121.114021 264.46904 
L 124.410006 263.838892 
L 126.057998 264.514174 
L 127.705991 263.691433 
L 129.353984 264.175362 
L 131.001976 264.148281 
L 132.649969 264.596585 
L 134.297961 264.354862 
L 135.945954 259.140175 
L 137.593947 264.584527 
L 139.241939 264.324268 
L 140.889932 263.241751 
L 142.537925 264.107144 
L 144.185917 264.641581 
L 145.83391 264.261839 
L 149.129895 264.486404 
L 150.777888 263.185179 
L 152.42588 264.406266 
L 154.073873 264.221391 
L 155.721865 264.299255 
L 157.369858 264.612158 
L 159.017851 264.213122 
L 160.665843 261.514409 
L 162.313836 264.535397 
L 163.961829 264.05705 
L 165.609821 263.243542 
L 167.257814 263.971261 
L 168.905806 263.616945 
L 170.553799 264.131882 
L 172.201792 264.359479 
L 175.497777 264.022803 
L 177.145769 264.431968 
L 178.793762 264.030107 
L 180.441755 264.33736 
L 182.089747 264.401512 
L 183.73774 262.891225 
L 187.033725 264.499428 
L 188.681718 263.249744 
L 190.32971 263.820288 
L 191.977703 263.976154 
L 193.625696 264.571366 
L 195.273688 264.229729 
L 196.921681 264.170538 
L 198.569674 263.106557 
L 200.217666 264.01357 
L 201.865659 264.533743 
L 206.809637 264.225525 
L 210.105622 264.578187 
L 211.753614 264.370366 
L 213.401607 264.406197 
L 215.0496 263.537359 
L 216.697592 264.476137 
L 218.345585 264.482132 
L 219.993578 264.111279 
L 221.64157 264.3878 
L 223.289563 263.812639 
L 224.937555 264.323097 
L 226.585548 264.452709 
L 228.233541 262.943111 
L 229.881533 264.370297 
L 231.529526 264.458635 
L 233.177518 263.799616 
L 234.825511 264.279548 
L 236.473504 263.914345 
L 238.121496 262.775049 
L 239.769489 264.137601 
L 243.065474 264.4073 
L 244.713467 263.485954 
L 246.361459 264.33488 
L 248.009452 264.236206 
L 249.657445 263.911519 
L 251.305437 264.49233 
L 252.95343 263.67207 
L 254.601422 264.144698 
L 256.249415 264.406404 
L 257.897408 263.85922 
L 259.5454 264.202511 
L 261.193393 263.452604 
L 262.841386 264.623803 
L 266.137371 264.495569 
L 269.433356 263.757032 
L 272.729341 264.111623 
L 274.377334 264.587007 
L 279.321312 264.440513 
L 280.969304 263.76723 
L 282.617297 263.54232 
L 284.26529 264.114586 
L 285.913282 264.02618 
L 287.561275 264.157446 
L 289.209267 262.818666 
L 290.85726 263.895602 
L 292.505253 264.436241 
L 294.153245 263.063835 
L 295.801238 264.02618 
L 297.449231 263.808091 
L 299.097223 264.551107 
L 300.745216 263.749176 
L 302.393208 264.503975 
L 304.041201 264.494673 
L 305.689194 264.156619 
L 307.337186 264.553932 
L 312.281164 264.332675 
L 313.929157 264.38401 
L 315.577149 263.598754 
L 317.225142 264.271141 
L 318.873135 264.530849 
L 320.521127 264.491228 
L 322.16912 263.504559 
L 323.817112 264.373467 
L 325.465105 264.267627 
L 327.113098 262.741767 
L 328.76109 264.15972 
L 330.409083 264.365887 
L 340.297039 264.610091 
L 343.593024 264.471314 
L 345.241016 263.437858 
L 346.889009 264.405715 
L 348.537002 263.883612 
L 350.184994 263.050467 
L 351.832987 264.323648 
L 353.480979 264.609471 
L 355.128972 264.200168 
L 356.776965 263.424559 
L 358.424957 264.33991 
L 360.07295 264.180047 
L 361.720943 263.819599 
L 363.368935 264.087506 
L 365.016928 260.418179 
L 366.66492 264.124233 
L 368.312913 264.1232 
L 369.960906 263.813604 
L 371.608898 263.358616 
L 373.256891 264.207747 
L 374.904883 264.153312 
L 376.552876 264.40606 
L 378.200869 263.707075 
L 379.848861 264.612503 
L 381.496854 263.836825 
L 383.144847 263.794586 
L 384.792839 264.504251 
L 386.440832 264.401856 
L 388.088824 263.671657 
L 389.736817 263.320786 
L 391.38481 264.400616 
L 393.032802 264.520857 
L 394.680795 264.393105 
L 396.328787 264.408127 
L 397.97678 264.1704 
L 399.624773 263.68785 
L 399.624773 263.68785 
" style="fill:none;stroke:#8c564b;stroke-linecap:square;stroke-width:1.5;"/>
   </g>
   <g id="line2d_24">
    <path clip-path="url(#p9b7763bbac)" d="M 74.970227 264.353691 
L 76.61822 264.625733 
L 78.266213 263.991382 
L 79.914205 264.636 
L 84.858183 264.504665 
L 88.154168 264.541392 
L 89.802161 264.532296 
L 91.450153 263.421045 
L 93.098146 264.603063 
L 94.746139 263.756412 
L 96.394131 264.567162 
L 98.042124 264.055671 
L 99.690117 264.028798 
L 101.338109 264.369953 
L 102.986102 264.569919 
L 104.634094 264.597137 
L 106.282087 264.465112 
L 109.578072 264.588179 
L 111.226065 264.477929 
L 112.874057 264.620082 
L 117.818035 264.402959 
L 121.114021 264.577498 
L 122.762013 264.120099 
L 124.410006 264.270935 
L 126.057998 264.614846 
L 127.705991 264.281615 
L 129.353984 264.306904 
L 132.649969 264.577292 
L 134.297961 264.473932 
L 135.945954 262.933946 
L 137.593947 264.630625 
L 140.889932 264.142976 
L 144.185917 264.647369 
L 149.129895 264.526783 
L 150.777888 263.925507 
L 152.42588 264.570332 
L 157.369858 264.63476 
L 159.017851 264.205542 
L 160.665843 263.368332 
L 162.313836 264.579841 
L 163.961829 264.570952 
L 165.609821 264.232209 
L 167.257814 264.089849 
L 168.905806 264.598377 
L 172.201792 264.532503 
L 173.849784 264.011778 
L 175.497777 263.846885 
L 177.145769 264.528024 
L 178.793762 264.261081 
L 180.441755 264.569023 
L 182.089747 264.512864 
L 183.73774 263.169124 
L 185.385733 264.306904 
L 187.033725 264.588317 
L 188.681718 264.408885 
L 190.32971 264.571021 
L 191.977703 264.226766 
L 193.625696 264.623321 
L 195.273688 264.082269 
L 196.921681 264.53264 
L 198.569674 263.939702 
L 200.217666 263.586489 
L 201.865659 264.459049 
L 205.161644 264.47662 
L 206.809637 264.570194 
L 208.457629 264.509281 
L 210.105622 264.61836 
L 213.401607 264.434587 
L 215.0496 263.248779 
L 216.697592 264.501012 
L 219.993578 264.56861 
L 221.64157 264.492124 
L 223.289563 264.178118 
L 224.937555 264.568472 
L 226.585548 264.547869 
L 228.233541 264.022252 
L 229.881533 264.568954 
L 231.529526 264.517481 
L 233.177518 264.131951 
L 234.825511 264.588592 
L 236.473504 264.284371 
L 238.121496 264.125129 
L 239.769489 264.330332 
L 241.417482 264.336809 
L 243.065474 264.589419 
L 246.361459 264.421081 
L 248.009452 264.539393 
L 249.657445 264.439617 
L 251.305437 264.568541 
L 254.601422 264.325439 
L 256.249415 264.382356 
L 257.897408 264.309453 
L 264.489378 264.643924 
L 266.137371 264.599686 
L 267.785363 264.423493 
L 269.433356 263.642785 
L 271.081349 263.785697 
L 272.729341 264.464079 
L 279.321312 264.522373 
L 280.969304 264.431762 
L 284.26529 264.025628 
L 285.913282 263.981046 
L 287.561275 264.500737 
L 289.209267 264.209815 
L 292.505253 264.536361 
L 295.801238 264.375121 
L 297.449231 264.243096 
L 299.097223 264.609678 
L 300.745216 264.226697 
L 302.393208 264.530642 
L 305.689194 264.596034 
L 307.337186 264.628351 
L 308.985179 264.407989 
L 312.281164 264.557722 
L 315.577149 264.397515 
L 318.873135 264.535397 
L 320.521127 264.544837 
L 322.16912 264.364785 
L 323.817112 264.627938 
L 325.465105 264.454845 
L 327.113098 264.613467 
L 328.76109 264.096533 
L 330.409083 264.566405 
L 340.297039 264.649574 
L 341.945031 264.46208 
L 343.593024 264.558274 
L 345.241016 264.21071 
L 346.889009 264.593554 
L 350.184994 264.222976 
L 351.832987 264.540151 
L 353.480979 264.658601 
L 355.128972 264.582942 
L 356.776965 263.83779 
L 358.424957 264.472279 
L 360.07295 264.452365 
L 361.720943 264.154345 
L 363.368935 264.369746 
L 365.016928 263.902631 
L 366.66492 264.555862 
L 368.312913 264.008057 
L 369.960906 263.645404 
L 371.608898 264.248333 
L 373.256891 264.133053 
L 376.552876 264.490883 
L 378.200869 264.328471 
L 379.848861 264.637033 
L 381.496854 264.055051 
L 383.144847 263.789624 
L 384.792839 264.622494 
L 386.440832 264.55097 
L 388.088824 263.980495 
L 389.736817 264.071795 
L 391.38481 264.58246 
L 396.328787 264.634484 
L 397.97678 264.202648 
L 399.624773 264.400961 
L 399.624773 264.400961 
" style="fill:none;stroke:#e377c2;stroke-linecap:square;stroke-width:1.5;"/>
   </g>
   <g id="line2d_25">
    <path clip-path="url(#p9b7763bbac)" d="M 74.970227 264.455603 
L 76.61822 264.649505 
L 78.266213 264.127196 
L 79.914205 264.654398 
L 83.21019 264.616224 
L 89.802161 264.63407 
L 91.450153 264.36382 
L 93.098146 264.597895 
L 94.746139 264.549247 
L 96.394131 264.342184 
L 99.690117 264.585423 
L 101.338109 264.247575 
L 102.986102 264.648265 
L 104.634094 264.560685 
L 107.93008 264.650608 
L 112.874057 264.614915 
L 114.52205 264.323234 
L 116.170043 264.566198 
L 117.818035 264.611469 
L 119.466028 264.493571 
L 121.114021 264.604303 
L 124.410006 264.516172 
L 126.057998 264.655294 
L 127.705991 264.492882 
L 134.297961 264.641237 
L 135.945954 263.91965 
L 137.593947 264.658808 
L 142.537925 264.305525 
L 144.185917 264.66184 
L 149.129895 264.605543 
L 150.777888 264.190659 
L 152.42588 264.62656 
L 154.073873 264.58308 
L 157.369858 264.657292 
L 159.017851 264.577981 
L 160.665843 264.214983 
L 162.313836 264.578739 
L 165.609821 264.551865 
L 167.257814 264.309935 
L 168.905806 264.626766 
L 173.849784 264.51059 
L 182.089747 264.626284 
L 183.73774 264.312692 
L 187.033725 264.614088 
L 188.681718 264.475379 
L 190.32971 264.568472 
L 191.977703 264.513622 
L 193.625696 264.651986 
L 200.217666 264.400754 
L 201.865659 264.640203 
L 206.809637 264.495982 
L 210.105622 264.653089 
L 215.0496 264.286783 
L 216.697592 264.593209 
L 221.64157 264.614432 
L 223.289563 264.077032 
L 224.937555 264.564544 
L 226.585548 264.575362 
L 228.233541 264.415293 
L 229.881533 264.628351 
L 231.529526 264.525543 
L 233.177518 264.161649 
L 234.825511 264.640134 
L 236.473504 264.521547 
L 239.769489 264.42308 
L 241.417482 264.403924 
L 243.065474 264.623872 
L 244.713467 263.509314 
L 246.361459 264.60196 
L 248.009452 264.620634 
L 249.657445 264.520375 
L 251.305437 264.616155 
L 261.193393 264.464975 
L 262.841386 264.66687 
L 266.137371 264.632141 
L 267.785363 264.444716 
L 269.433356 264.557516 
L 271.081349 264.185629 
L 272.729341 264.459324 
L 276.025326 264.632623 
L 284.26529 264.325439 
L 287.561275 264.520582 
L 289.209267 264.286645 
L 292.505253 264.440651 
L 294.153245 264.140908 
L 295.801238 264.587076 
L 300.745216 264.5314 
L 304.041201 264.642201 
L 313.929157 264.561374 
L 315.577149 264.335155 
L 317.225142 264.601891 
L 318.873135 264.454087 
L 320.521127 264.587214 
L 322.16912 264.432313 
L 323.817112 264.601685 
L 325.465105 264.493088 
L 327.113098 264.155379 
L 328.76109 264.575638 
L 332.057075 264.626077 
L 337.001053 264.635862 
L 338.649046 264.473105 
L 340.297039 264.666456 
L 345.241016 264.44637 
L 346.889009 264.604441 
L 348.537002 264.021494 
L 350.184994 264.558825 
L 353.480979 264.668524 
L 355.128972 264.600306 
L 356.776965 264.288919 
L 358.424957 264.619256 
L 361.720943 264.362097 
L 363.368935 264.620289 
L 365.016928 263.550726 
L 366.66492 264.613192 
L 368.312913 263.901804 
L 369.960906 264.275758 
L 371.608898 264.502942 
L 379.848861 264.657361 
L 381.496854 264.433967 
L 383.144847 264.370642 
L 384.792839 264.644269 
L 386.440832 264.623597 
L 388.088824 264.081718 
L 389.736817 264.459531 
L 391.38481 264.625319 
L 394.680795 264.615741 
L 399.624773 264.368919 
L 399.624773 264.368919 
" style="fill:none;stroke:#7f7f7f;stroke-linecap:square;stroke-width:1.5;"/>
   </g>
   <g id="line2d_26">
    <path clip-path="url(#p9b7763bbac)" d="M 74.970227 264.673623 
L 193.625696 264.669902 
L 399.624773 264.670384 
L 399.624773 264.670384 
" style="fill:none;stroke:#bcbd22;stroke-linecap:square;stroke-width:1.5;"/>
   </g>
   <g id="line2d_27">
    <path clip-path="url(#p9b7763bbac)" d="M 74.970227 264.673623 
L 119.466028 264.668455 
L 399.624773 264.669902 
L 399.624773 264.669902 
" style="fill:none;stroke:#17becf;stroke-linecap:square;stroke-width:1.5;"/>
   </g>
   <g id="line2d_28">
    <path clip-path="url(#p9b7763bbac)" d="M 74.970227 264.625388 
L 79.914205 264.670591 
L 389.736817 264.674105 
L 393.032802 264.669695 
L 399.624773 264.676241 
L 399.624773 264.676241 
" style="fill:none;stroke:#1f77b4;stroke-linecap:square;stroke-width:1.5;"/>
   </g>
   <g id="line2d_29">
    <path clip-path="url(#p9b7763bbac)" d="M 74.970227 264.673623 
L 399.624773 264.673623 
L 399.624773 264.673623 
" style="fill:none;stroke:#ff7f0e;stroke-linecap:square;stroke-width:1.5;"/>
   </g>
   <g id="patch_3">
    <path d="M 58.7375 276.812 
L 58.7375 10.7 
" style="fill:none;stroke:#000000;stroke-linecap:square;stroke-linejoin:miter;stroke-width:0.8;"/>
   </g>
   <g id="patch_4">
    <path d="M 415.8575 276.812 
L 415.8575 10.7 
" style="fill:none;stroke:#000000;stroke-linecap:square;stroke-linejoin:miter;stroke-width:0.8;"/>
   </g>
   <g id="patch_5">
    <path d="M 58.7375 276.812 
L 415.8575 276.812 
" style="fill:none;stroke:#000000;stroke-linecap:square;stroke-linejoin:miter;stroke-width:0.8;"/>
   </g>
   <g id="patch_6">
    <path d="M 58.7375 10.7 
L 415.8575 10.7 
" style="fill:none;stroke:#000000;stroke-linecap:square;stroke-linejoin:miter;stroke-width:0.8;"/>
   </g>
   <g id="legend_1">
    <g id="patch_7">
     <path d="M 318.504375 165.48125 
L 408.8575 165.48125 
Q 410.8575 165.48125 410.8575 163.48125 
L 410.8575 17.7 
Q 410.8575 15.7 408.8575 15.7 
L 318.504375 15.7 
Q 316.504375 15.7 316.504375 17.7 
L 316.504375 163.48125 
Q 316.504375 165.48125 318.504375 165.48125 
z
" style="fill:#ffffff;opacity:0.8;stroke:#cccccc;stroke-linejoin:miter;"/>
    </g>
    <g id="line2d_30">
     <path d="M 320.504375 23.798437 
L 340.504375 23.798437 
" style="fill:none;stroke:#1f77b4;stroke-linecap:square;stroke-width:1.5;"/>
    </g>
    <g id="line2d_31"/>
    <g id="text_18">
     <!-- delta -->
     <defs>
      <path d="M 45.40625 46.390625 
L 45.40625 75.984375 
L 54.390625 75.984375 
L 54.390625 0 
L 45.40625 0 
L 45.40625 8.203125 
Q 42.578125 3.328125 38.25 0.953125 
Q 33.9375 -1.421875 27.875 -1.421875 
Q 17.96875 -1.421875 11.734375 6.484375 
Q 5.515625 14.40625 5.515625 27.296875 
Q 5.515625 40.1875 11.734375 48.09375 
Q 17.96875 56 27.875 56 
Q 33.9375 56 38.25 53.625 
Q 42.578125 51.265625 45.40625 46.390625 
M 14.796875 27.296875 
Q 14.796875 17.390625 18.875 11.75 
Q 22.953125 6.109375 30.078125 6.109375 
Q 37.203125 6.109375 41.296875 11.75 
Q 45.40625 17.390625 45.40625 27.296875 
Q 45.40625 37.203125 41.296875 42.84375 
Q 37.203125 48.484375 30.078125 48.484375 
Q 22.953125 48.484375 18.875 42.84375 
Q 14.796875 37.203125 14.796875 27.296875 
" id="DejaVuSans-64"/>
      <path d="M 56.203125 29.59375 
L 56.203125 25.203125 
L 14.890625 25.203125 
Q 15.484375 15.921875 20.484375 11.0625 
Q 25.484375 6.203125 34.421875 6.203125 
Q 39.59375 6.203125 44.453125 7.46875 
Q 49.3125 8.734375 54.109375 11.28125 
L 54.109375 2.78125 
Q 49.265625 0.734375 44.1875 -0.34375 
Q 39.109375 -1.421875 33.890625 -1.421875 
Q 20.796875 -1.421875 13.15625 6.1875 
Q 5.515625 13.8125 5.515625 26.8125 
Q 5.515625 40.234375 12.765625 48.109375 
Q 20.015625 56 32.328125 56 
Q 43.359375 56 49.78125 48.890625 
Q 56.203125 41.796875 56.203125 29.59375 
M 47.21875 32.234375 
Q 47.125 39.59375 43.09375 43.984375 
Q 39.0625 48.390625 32.421875 48.390625 
Q 24.90625 48.390625 20.390625 44.140625 
Q 15.875 39.890625 15.1875 32.171875 
z
" id="DejaVuSans-65"/>
      <path d="M 9.421875 75.984375 
L 18.40625 75.984375 
L 18.40625 0 
L 9.421875 0 
z
" id="DejaVuSans-6c"/>
      <path d="M 18.3125 70.21875 
L 18.3125 54.6875 
L 36.8125 54.6875 
L 36.8125 47.703125 
L 18.3125 47.703125 
L 18.3125 18.015625 
Q 18.3125 11.328125 20.140625 9.421875 
Q 21.96875 7.515625 27.59375 7.515625 
L 36.8125 7.515625 
L 36.8125 0 
L 27.59375 0 
Q 17.1875 0 13.234375 3.875 
Q 9.28125 7.765625 9.28125 18.015625 
L 9.28125 47.703125 
L 2.6875 47.703125 
L 2.6875 54.6875 
L 9.28125 54.6875 
L 9.28125 70.21875 
z
" id="DejaVuSans-74"/>
      <path d="M 34.28125 27.484375 
Q 23.390625 27.484375 19.1875 25 
Q 14.984375 22.515625 14.984375 16.5 
Q 14.984375 11.71875 18.140625 8.90625 
Q 21.296875 6.109375 26.703125 6.109375 
Q 34.1875 6.109375 38.703125 11.40625 
Q 43.21875 16.703125 43.21875 25.484375 
L 43.21875 27.484375 
z
M 52.203125 31.203125 
L 52.203125 0 
L 43.21875 0 
L 43.21875 8.296875 
Q 40.140625 3.328125 35.546875 0.953125 
Q 30.953125 -1.421875 24.3125 -1.421875 
Q 15.921875 -1.421875 10.953125 3.296875 
Q 6 8.015625 6 15.921875 
Q 6 25.140625 12.171875 29.828125 
Q 18.359375 34.515625 30.609375 34.515625 
L 43.21875 34.515625 
L 43.21875 35.40625 
Q 43.21875 41.609375 39.140625 45 
Q 35.0625 48.390625 27.6875 48.390625 
Q 23 48.390625 18.546875 47.265625 
Q 14.109375 46.140625 10.015625 43.890625 
L 10.015625 52.203125 
Q 14.9375 54.109375 19.578125 55.046875 
Q 24.21875 56 28.609375 56 
Q 40.484375 56 46.34375 49.84375 
Q 52.203125 43.703125 52.203125 31.203125 
" id="DejaVuSans-61"/>
     </defs>
     <g transform="translate(348.504375 27.298437)scale(0.1 -0.1)">
      <use xlink:href="#DejaVuSans-64"/>
      <use x="63.476562" xlink:href="#DejaVuSans-65"/>
      <use x="125" xlink:href="#DejaVuSans-6c"/>
      <use x="152.783203" xlink:href="#DejaVuSans-74"/>
      <use x="191.992188" xlink:href="#DejaVuSans-61"/>
     </g>
    </g>
    <g id="line2d_32">
     <path d="M 320.504375 38.476562 
L 340.504375 38.476562 
" style="fill:none;stroke:#ff7f0e;stroke-linecap:square;stroke-width:1.5;"/>
    </g>
    <g id="line2d_33"/>
    <g id="text_19">
     <!-- lowAlpha -->
     <defs>
      <path d="M 30.609375 48.390625 
Q 23.390625 48.390625 19.1875 42.75 
Q 14.984375 37.109375 14.984375 27.296875 
Q 14.984375 17.484375 19.15625 11.84375 
Q 23.34375 6.203125 30.609375 6.203125 
Q 37.796875 6.203125 41.984375 11.859375 
Q 46.1875 17.53125 46.1875 27.296875 
Q 46.1875 37.015625 41.984375 42.703125 
Q 37.796875 48.390625 30.609375 48.390625 
M 30.609375 56 
Q 42.328125 56 49.015625 48.375 
Q 55.71875 40.765625 55.71875 27.296875 
Q 55.71875 13.875 49.015625 6.21875 
Q 42.328125 -1.421875 30.609375 -1.421875 
Q 18.84375 -1.421875 12.171875 6.21875 
Q 5.515625 13.875 5.515625 27.296875 
Q 5.515625 40.765625 12.171875 48.375 
Q 18.84375 56 30.609375 56 
" id="DejaVuSans-6f"/>
      <path d="M 4.203125 54.6875 
L 13.1875 54.6875 
L 24.421875 12.015625 
L 35.59375 54.6875 
L 46.1875 54.6875 
L 57.421875 12.015625 
L 68.609375 54.6875 
L 77.59375 54.6875 
L 63.28125 0 
L 52.6875 0 
L 40.921875 44.828125 
L 29.109375 0 
L 18.5 0 
z
" id="DejaVuSans-77"/>
      <path d="M 34.1875 63.1875 
L 20.796875 26.90625 
L 47.609375 26.90625 
z
M 28.609375 72.90625 
L 39.796875 72.90625 
L 67.578125 0 
L 57.328125 0 
L 50.6875 18.703125 
L 17.828125 18.703125 
L 11.1875 0 
L 0.78125 0 
z
" id="DejaVuSans-41"/>
      <path d="M 18.109375 8.203125 
L 18.109375 -20.796875 
L 9.078125 -20.796875 
L 9.078125 54.6875 
L 18.109375 54.6875 
L 18.109375 46.390625 
Q 20.953125 51.265625 25.265625 53.625 
Q 29.59375 56 35.59375 56 
Q 45.5625 56 51.78125 48.09375 
Q 58.015625 40.1875 58.015625 27.296875 
Q 58.015625 14.40625 51.78125 6.484375 
Q 45.5625 -1.421875 35.59375 -1.421875 
Q 29.59375 -1.421875 25.265625 0.953125 
Q 20.953125 3.328125 18.109375 8.203125 
M 48.6875 27.296875 
Q 48.6875 37.203125 44.609375 42.84375 
Q 40.53125 48.484375 33.40625 48.484375 
Q 26.265625 48.484375 22.1875 42.84375 
Q 18.109375 37.203125 18.109375 27.296875 
Q 18.109375 17.390625 22.1875 11.75 
Q 26.265625 6.109375 33.40625 6.109375 
Q 40.53125 6.109375 44.609375 11.75 
Q 48.6875 17.390625 48.6875 27.296875 
" id="DejaVuSans-70"/>
      <path d="M 54.890625 33.015625 
L 54.890625 0 
L 45.90625 0 
L 45.90625 32.71875 
Q 45.90625 40.484375 42.875 44.328125 
Q 39.84375 48.1875 33.796875 48.1875 
Q 26.515625 48.1875 22.3125 43.546875 
Q 18.109375 38.921875 18.109375 30.90625 
L 18.109375 0 
L 9.078125 0 
L 9.078125 75.984375 
L 18.109375 75.984375 
L 18.109375 46.1875 
Q 21.34375 51.125 25.703125 53.5625 
Q 30.078125 56 35.796875 56 
Q 45.21875 56 50.046875 50.171875 
Q 54.890625 44.34375 54.890625 33.015625 
" id="DejaVuSans-68"/>
     </defs>
     <g transform="translate(348.504375 41.976562)scale(0.1 -0.1)">
      <use xlink:href="#DejaVuSans-6c"/>
      <use x="27.783203" xlink:href="#DejaVuSans-6f"/>
      <use x="88.964844" xlink:href="#DejaVuSans-77"/>
      <use x="170.751953" xlink:href="#DejaVuSans-41"/>
      <use x="239.160156" xlink:href="#DejaVuSans-6c"/>
      <use x="266.943359" xlink:href="#DejaVuSans-70"/>
      <use x="330.419922" xlink:href="#DejaVuSans-68"/>
      <use x="393.798828" xlink:href="#DejaVuSans-61"/>
     </g>
    </g>
    <g id="line2d_34">
     <path d="M 320.504375 53.154687 
L 340.504375 53.154687 
" style="fill:none;stroke:#2ca02c;stroke-linecap:square;stroke-width:1.5;"/>
    </g>
    <g id="line2d_35"/>
    <g id="text_20">
     <!-- highAlpha -->
     <defs>
      <path d="M 9.421875 54.6875 
L 18.40625 54.6875 
L 18.40625 0 
L 9.421875 0 
z
M 9.421875 75.984375 
L 18.40625 75.984375 
L 18.40625 64.59375 
L 9.421875 64.59375 
z
" id="DejaVuSans-69"/>
      <path d="M 45.40625 27.984375 
Q 45.40625 37.75 41.375 43.109375 
Q 37.359375 48.484375 30.078125 48.484375 
Q 22.859375 48.484375 18.828125 43.109375 
Q 14.796875 37.75 14.796875 27.984375 
Q 14.796875 18.265625 18.828125 12.890625 
Q 22.859375 7.515625 30.078125 7.515625 
Q 37.359375 7.515625 41.375 12.890625 
Q 45.40625 18.265625 45.40625 27.984375 
M 54.390625 6.78125 
Q 54.390625 -7.171875 48.1875 -13.984375 
Q 42 -20.796875 29.203125 -20.796875 
Q 24.46875 -20.796875 20.265625 -20.09375 
Q 16.0625 -19.390625 12.109375 -17.921875 
L 12.109375 -9.1875 
Q 16.0625 -11.328125 19.921875 -12.34375 
Q 23.78125 -13.375 27.78125 -13.375 
Q 36.625 -13.375 41.015625 -8.765625 
Q 45.40625 -4.15625 45.40625 5.171875 
L 45.40625 9.625 
Q 42.625 4.78125 38.28125 2.390625 
Q 33.9375 0 27.875 0 
Q 17.828125 0 11.671875 7.65625 
Q 5.515625 15.328125 5.515625 27.984375 
Q 5.515625 40.671875 11.671875 48.328125 
Q 17.828125 56 27.875 56 
Q 33.9375 56 38.28125 53.609375 
Q 42.625 51.21875 45.40625 46.390625 
L 45.40625 54.6875 
L 54.390625 54.6875 
z
" id="DejaVuSans-67"/>
     </defs>
     <g transform="translate(348.504375 56.654687)scale(0.1 -0.1)">
      <use xlink:href="#DejaVuSans-68"/>
      <use x="63.378906" xlink:href="#DejaVuSans-69"/>
      <use x="91.162109" xlink:href="#DejaVuSans-67"/>
      <use x="154.638672" xlink:href="#DejaVuSans-68"/>
      <use x="218.017578" xlink:href="#DejaVuSans-41"/>
      <use x="286.425781" xlink:href="#DejaVuSans-6c"/>
      <use x="314.208984" xlink:href="#DejaVuSans-70"/>
      <use x="377.685547" xlink:href="#DejaVuSans-68"/>
      <use x="441.064453" xlink:href="#DejaVuSans-61"/>
     </g>
    </g>
    <g id="line2d_36">
     <path d="M 320.504375 67.832812 
L 340.504375 67.832812 
" style="fill:none;stroke:#d62728;stroke-linecap:square;stroke-width:1.5;"/>
    </g>
    <g id="line2d_37"/>
    <g id="text_21">
     <!-- lowBeta -->
     <defs>
      <path d="M 19.671875 34.8125 
L 19.671875 8.109375 
L 35.5 8.109375 
Q 43.453125 8.109375 47.28125 11.40625 
Q 51.125 14.703125 51.125 21.484375 
Q 51.125 28.328125 47.28125 31.5625 
Q 43.453125 34.8125 35.5 34.8125 
z
M 19.671875 64.796875 
L 19.671875 42.828125 
L 34.28125 42.828125 
Q 41.5 42.828125 45.03125 45.53125 
Q 48.578125 48.25 48.578125 53.8125 
Q 48.578125 59.328125 45.03125 62.0625 
Q 41.5 64.796875 34.28125 64.796875 
z
M 9.8125 72.90625 
L 35.015625 72.90625 
Q 46.296875 72.90625 52.390625 68.21875 
Q 58.5 63.53125 58.5 54.890625 
Q 58.5 48.1875 55.375 44.234375 
Q 52.25 40.28125 46.1875 39.3125 
Q 53.46875 37.75 57.5 32.78125 
Q 61.53125 27.828125 61.53125 20.40625 
Q 61.53125 10.640625 54.890625 5.3125 
Q 48.25 0 35.984375 0 
L 9.8125 0 
z
" id="DejaVuSans-42"/>
     </defs>
     <g transform="translate(348.504375 71.332812)scale(0.1 -0.1)">
      <use xlink:href="#DejaVuSans-6c"/>
      <use x="27.783203" xlink:href="#DejaVuSans-6f"/>
      <use x="88.964844" xlink:href="#DejaVuSans-77"/>
      <use x="170.751953" xlink:href="#DejaVuSans-42"/>
      <use x="239.355469" xlink:href="#DejaVuSans-65"/>
      <use x="300.878906" xlink:href="#DejaVuSans-74"/>
      <use x="340.087891" xlink:href="#DejaVuSans-61"/>
     </g>
    </g>
    <g id="line2d_38">
     <path d="M 320.504375 82.510938 
L 340.504375 82.510938 
" style="fill:none;stroke:#9467bd;stroke-linecap:square;stroke-width:1.5;"/>
    </g>
    <g id="line2d_39"/>
    <g id="text_22">
     <!-- highBeta -->
     <g transform="translate(348.504375 86.010938)scale(0.1 -0.1)">
      <use xlink:href="#DejaVuSans-68"/>
      <use x="63.378906" xlink:href="#DejaVuSans-69"/>
      <use x="91.162109" xlink:href="#DejaVuSans-67"/>
      <use x="154.638672" xlink:href="#DejaVuSans-68"/>
      <use x="218.017578" xlink:href="#DejaVuSans-42"/>
      <use x="286.621094" xlink:href="#DejaVuSans-65"/>
      <use x="348.144531" xlink:href="#DejaVuSans-74"/>
      <use x="387.353516" xlink:href="#DejaVuSans-61"/>
     </g>
    </g>
    <g id="line2d_40">
     <path d="M 320.504375 97.189062 
L 340.504375 97.189062 
" style="fill:none;stroke:#8c564b;stroke-linecap:square;stroke-width:1.5;"/>
    </g>
    <g id="line2d_41"/>
    <g id="text_23">
     <!-- lowGamma -->
     <defs>
      <path d="M 59.515625 10.40625 
L 59.515625 29.984375 
L 43.40625 29.984375 
L 43.40625 38.09375 
L 69.28125 38.09375 
L 69.28125 6.78125 
Q 63.578125 2.734375 56.6875 0.65625 
Q 49.8125 -1.421875 42 -1.421875 
Q 24.90625 -1.421875 15.25 8.5625 
Q 5.609375 18.5625 5.609375 36.375 
Q 5.609375 54.25 15.25 64.234375 
Q 24.90625 74.21875 42 74.21875 
Q 49.125 74.21875 55.546875 72.453125 
Q 61.96875 70.703125 67.390625 67.28125 
L 67.390625 56.78125 
Q 61.921875 61.421875 55.765625 63.765625 
Q 49.609375 66.109375 42.828125 66.109375 
Q 29.4375 66.109375 22.71875 58.640625 
Q 16.015625 51.171875 16.015625 36.375 
Q 16.015625 21.625 22.71875 14.15625 
Q 29.4375 6.6875 42.828125 6.6875 
Q 48.046875 6.6875 52.140625 7.59375 
Q 56.25 8.5 59.515625 10.40625 
" id="DejaVuSans-47"/>
      <path d="M 52 44.1875 
Q 55.375 50.25 60.0625 53.125 
Q 64.75 56 71.09375 56 
Q 79.640625 56 84.28125 50.015625 
Q 88.921875 44.046875 88.921875 33.015625 
L 88.921875 0 
L 79.890625 0 
L 79.890625 32.71875 
Q 79.890625 40.578125 77.09375 44.375 
Q 74.3125 48.1875 68.609375 48.1875 
Q 61.625 48.1875 57.5625 43.546875 
Q 53.515625 38.921875 53.515625 30.90625 
L 53.515625 0 
L 44.484375 0 
L 44.484375 32.71875 
Q 44.484375 40.625 41.703125 44.40625 
Q 38.921875 48.1875 33.109375 48.1875 
Q 26.21875 48.1875 22.15625 43.53125 
Q 18.109375 38.875 18.109375 30.90625 
L 18.109375 0 
L 9.078125 0 
L 9.078125 54.6875 
L 18.109375 54.6875 
L 18.109375 46.1875 
Q 21.1875 51.21875 25.484375 53.609375 
Q 29.78125 56 35.6875 56 
Q 41.65625 56 45.828125 52.96875 
Q 50 49.953125 52 44.1875 
" id="DejaVuSans-6d"/>
     </defs>
     <g transform="translate(348.504375 100.689062)scale(0.1 -0.1)">
      <use xlink:href="#DejaVuSans-6c"/>
      <use x="27.783203" xlink:href="#DejaVuSans-6f"/>
      <use x="88.964844" xlink:href="#DejaVuSans-77"/>
      <use x="170.751953" xlink:href="#DejaVuSans-47"/>
      <use x="248.242188" xlink:href="#DejaVuSans-61"/>
      <use x="309.521484" xlink:href="#DejaVuSans-6d"/>
      <use x="406.933594" xlink:href="#DejaVuSans-6d"/>
      <use x="504.345703" xlink:href="#DejaVuSans-61"/>
     </g>
    </g>
    <g id="line2d_42">
     <path d="M 320.504375 111.867188 
L 340.504375 111.867188 
" style="fill:none;stroke:#e377c2;stroke-linecap:square;stroke-width:1.5;"/>
    </g>
    <g id="line2d_43"/>
    <g id="text_24">
     <!-- midGamma -->
     <g transform="translate(348.504375 115.367188)scale(0.1 -0.1)">
      <use xlink:href="#DejaVuSans-6d"/>
      <use x="97.412109" xlink:href="#DejaVuSans-69"/>
      <use x="125.195312" xlink:href="#DejaVuSans-64"/>
      <use x="188.671875" xlink:href="#DejaVuSans-47"/>
      <use x="266.162109" xlink:href="#DejaVuSans-61"/>
      <use x="327.441406" xlink:href="#DejaVuSans-6d"/>
      <use x="424.853516" xlink:href="#DejaVuSans-6d"/>
      <use x="522.265625" xlink:href="#DejaVuSans-61"/>
     </g>
    </g>
    <g id="line2d_44">
     <path d="M 320.504375 126.545312 
L 340.504375 126.545312 
" style="fill:none;stroke:#7f7f7f;stroke-linecap:square;stroke-width:1.5;"/>
    </g>
    <g id="line2d_45"/>
    <g id="text_25">
     <!-- attention -->
     <defs>
      <path d="M 54.890625 33.015625 
L 54.890625 0 
L 45.90625 0 
L 45.90625 32.71875 
Q 45.90625 40.484375 42.875 44.328125 
Q 39.84375 48.1875 33.796875 48.1875 
Q 26.515625 48.1875 22.3125 43.546875 
Q 18.109375 38.921875 18.109375 30.90625 
L 18.109375 0 
L 9.078125 0 
L 9.078125 54.6875 
L 18.109375 54.6875 
L 18.109375 46.1875 
Q 21.34375 51.125 25.703125 53.5625 
Q 30.078125 56 35.796875 56 
Q 45.21875 56 50.046875 50.171875 
Q 54.890625 44.34375 54.890625 33.015625 
" id="DejaVuSans-6e"/>
     </defs>
     <g transform="translate(348.504375 130.045312)scale(0.1 -0.1)">
      <use xlink:href="#DejaVuSans-61"/>
      <use x="61.279297" xlink:href="#DejaVuSans-74"/>
      <use x="100.488281" xlink:href="#DejaVuSans-74"/>
      <use x="139.697266" xlink:href="#DejaVuSans-65"/>
      <use x="201.220703" xlink:href="#DejaVuSans-6e"/>
      <use x="264.599609" xlink:href="#DejaVuSans-74"/>
      <use x="303.808594" xlink:href="#DejaVuSans-69"/>
      <use x="331.591797" xlink:href="#DejaVuSans-6f"/>
      <use x="392.773438" xlink:href="#DejaVuSans-6e"/>
     </g>
    </g>
    <g id="line2d_46">
     <path d="M 320.504375 141.223437 
L 340.504375 141.223437 
" style="fill:none;stroke:#bcbd22;stroke-linecap:square;stroke-width:1.5;"/>
    </g>
    <g id="line2d_47"/>
    <g id="text_26">
     <!-- meditation -->
     <g transform="translate(348.504375 144.723437)scale(0.1 -0.1)">
      <use xlink:href="#DejaVuSans-6d"/>
      <use x="97.412109" xlink:href="#DejaVuSans-65"/>
      <use x="158.935547" xlink:href="#DejaVuSans-64"/>
      <use x="222.412109" xlink:href="#DejaVuSans-69"/>
      <use x="250.195312" xlink:href="#DejaVuSans-74"/>
      <use x="289.404297" xlink:href="#DejaVuSans-61"/>
      <use x="350.683594" xlink:href="#DejaVuSans-74"/>
      <use x="389.892578" xlink:href="#DejaVuSans-69"/>
      <use x="417.675781" xlink:href="#DejaVuSans-6f"/>
      <use x="478.857422" xlink:href="#DejaVuSans-6e"/>
     </g>
    </g>
    <g id="line2d_48">
     <path d="M 320.504375 155.901562 
L 340.504375 155.901562 
" style="fill:none;stroke:#17becf;stroke-linecap:square;stroke-width:1.5;"/>
    </g>
    <g id="line2d_49"/>
    <g id="text_27">
     <!-- rawValue -->
     <defs>
      <path d="M 41.109375 46.296875 
Q 39.59375 47.171875 37.8125 47.578125 
Q 36.03125 48 33.890625 48 
Q 26.265625 48 22.1875 43.046875 
Q 18.109375 38.09375 18.109375 28.8125 
L 18.109375 0 
L 9.078125 0 
L 9.078125 54.6875 
L 18.109375 54.6875 
L 18.109375 46.1875 
Q 20.953125 51.171875 25.484375 53.578125 
Q 30.03125 56 36.53125 56 
Q 37.453125 56 38.578125 55.875 
Q 39.703125 55.765625 41.0625 55.515625 
z
" id="DejaVuSans-72"/>
      <path d="M 28.609375 0 
L 0.78125 72.90625 
L 11.078125 72.90625 
L 34.1875 11.53125 
L 57.328125 72.90625 
L 67.578125 72.90625 
L 39.796875 0 
z
" id="DejaVuSans-56"/>
      <path d="M 8.5 21.578125 
L 8.5 54.6875 
L 17.484375 54.6875 
L 17.484375 21.921875 
Q 17.484375 14.15625 20.5 10.265625 
Q 23.53125 6.390625 29.59375 6.390625 
Q 36.859375 6.390625 41.078125 11.03125 
Q 45.3125 15.671875 45.3125 23.6875 
L 45.3125 54.6875 
L 54.296875 54.6875 
L 54.296875 0 
L 45.3125 0 
L 45.3125 8.40625 
Q 42.046875 3.421875 37.71875 1 
Q 33.40625 -1.421875 27.6875 -1.421875 
Q 18.265625 -1.421875 13.375 4.4375 
Q 8.5 10.296875 8.5 21.578125 
M 31.109375 56 
z
" id="DejaVuSans-75"/>
     </defs>
     <g transform="translate(348.504375 159.401562)scale(0.1 -0.1)">
      <use xlink:href="#DejaVuSans-72"/>
      <use x="41.113281" xlink:href="#DejaVuSans-61"/>
      <use x="102.392578" xlink:href="#DejaVuSans-77"/>
      <use x="184.179688" xlink:href="#DejaVuSans-56"/>
      <use x="252.478516" xlink:href="#DejaVuSans-61"/>
      <use x="313.757812" xlink:href="#DejaVuSans-6c"/>
      <use x="341.541016" xlink:href="#DejaVuSans-75"/>
      <use x="404.919922" xlink:href="#DejaVuSans-65"/>
     </g>
    </g>
   </g>
  </g>
 </g>
 <defs>
  <clipPath id="p9b7763bbac">
   <rect height="266.112" width="357.12" x="58.7375" y="10.7"/>
  </clipPath>
 </defs>
</svg>
