<?xml version="1.0" encoding="utf-8" standalone="no"?>
<!DOCTYPE svg PUBLIC "-//W3C//DTD SVG 1.1//EN"
  "http://www.w3.org/Graphics/SVG/1.1/DTD/svg11.dtd">
<!-- Created with matplotlib (http://matplotlib.org/) -->
<svg height="300pt" version="1.1" viewBox="0 0 431 300" width="431pt" xmlns="http://www.w3.org/2000/svg" xmlns:xlink="http://www.w3.org/1999/xlink">
 <defs>
  <style type="text/css">
*{stroke-linecap:butt;stroke-linejoin:round;}
  </style>
 </defs>
 <g id="figure_1">
  <g id="patch_1">
   <path d="M 0 300.690125 
L 431.666381 300.690125 
L 431.666381 0 
L 0 0 
z
" style="fill:#ffffff;"/>
  </g>
  <g id="axes_1">
   <g id="patch_2">
    <path d="M 58.7375 276.812 
L 415.8575 276.812 
L 415.8575 10.7 
L 58.7375 10.7 
z
" style="fill:#ffffff;"/>
   </g>
   <g id="matplotlib.axis_1">
    <g id="xtick_1">
     <g id="line2d_1">
      <defs>
       <path d="M 0 0 
L 0 3.5 
" id="m1fc9bda5dc" style="stroke:#000000;stroke-width:0.8;"/>
      </defs>
      <g>
       <use style="stroke:#000000;stroke-width:0.8;" x="74.970227" xlink:href="#m1fc9bda5dc" y="276.812"/>
      </g>
     </g>
     <g id="text_1">
      <!-- 0 -->
      <defs>
       <path d="M 31.78125 66.40625 
Q 24.171875 66.40625 20.328125 58.90625 
Q 16.5 51.421875 16.5 36.375 
Q 16.5 21.390625 20.328125 13.890625 
Q 24.171875 6.390625 31.78125 6.390625 
Q 39.453125 6.390625 43.28125 13.890625 
Q 47.125 21.390625 47.125 36.375 
Q 47.125 51.421875 43.28125 58.90625 
Q 39.453125 66.40625 31.78125 66.40625 
M 31.78125 74.21875 
Q 44.046875 74.21875 50.515625 64.515625 
Q 56.984375 54.828125 56.984375 36.375 
Q 56.984375 17.96875 50.515625 8.265625 
Q 44.046875 -1.421875 31.78125 -1.421875 
Q 19.53125 -1.421875 13.0625 8.265625 
Q 6.59375 17.96875 6.59375 36.375 
Q 6.59375 54.828125 13.0625 64.515625 
Q 19.53125 74.21875 31.78125 74.21875 
" id="DejaVuSans-30"/>
      </defs>
      <g transform="translate(71.788977 291.410437)scale(0.1 -0.1)">
       <use xlink:href="#DejaVuSans-30"/>
      </g>
     </g>
    </g>
    <g id="xtick_2">
     <g id="line2d_2">
      <g>
       <use style="stroke:#000000;stroke-width:0.8;" x="117.464278" xlink:href="#m1fc9bda5dc" y="276.812"/>
      </g>
     </g>
     <g id="text_2">
      <!-- 25 -->
      <defs>
       <path d="M 19.1875 8.296875 
L 53.609375 8.296875 
L 53.609375 0 
L 7.328125 0 
L 7.328125 8.296875 
Q 12.9375 14.109375 22.625 23.890625 
Q 32.328125 33.6875 34.8125 36.53125 
Q 39.546875 41.84375 41.421875 45.53125 
Q 43.3125 49.21875 43.3125 52.78125 
Q 43.3125 58.59375 39.234375 62.25 
Q 35.15625 65.921875 28.609375 65.921875 
Q 23.96875 65.921875 18.8125 64.3125 
Q 13.671875 62.703125 7.8125 59.421875 
L 7.8125 69.390625 
Q 13.765625 71.78125 18.9375 73 
Q 24.125 74.21875 28.421875 74.21875 
Q 39.75 74.21875 46.484375 68.546875 
Q 53.21875 62.890625 53.21875 53.421875 
Q 53.21875 48.921875 51.53125 44.890625 
Q 49.859375 40.875 45.40625 35.40625 
Q 44.1875 33.984375 37.640625 27.21875 
Q 31.109375 20.453125 19.1875 8.296875 
" id="DejaVuSans-32"/>
       <path d="M 10.796875 72.90625 
L 49.515625 72.90625 
L 49.515625 64.59375 
L 19.828125 64.59375 
L 19.828125 46.734375 
Q 21.96875 47.46875 24.109375 47.828125 
Q 26.265625 48.1875 28.421875 48.1875 
Q 40.625 48.1875 47.75 41.5 
Q 54.890625 34.8125 54.890625 23.390625 
Q 54.890625 11.625 47.5625 5.09375 
Q 40.234375 -1.421875 26.90625 -1.421875 
Q 22.3125 -1.421875 17.546875 -0.640625 
Q 12.796875 0.140625 7.71875 1.703125 
L 7.71875 11.625 
Q 12.109375 9.234375 16.796875 8.0625 
Q 21.484375 6.890625 26.703125 6.890625 
Q 35.15625 6.890625 40.078125 11.328125 
Q 45.015625 15.765625 45.015625 23.390625 
Q 45.015625 31 40.078125 35.4375 
Q 35.15625 39.890625 26.703125 39.890625 
Q 22.75 39.890625 18.8125 39.015625 
Q 14.890625 38.140625 10.796875 36.28125 
z
" id="DejaVuSans-35"/>
      </defs>
      <g transform="translate(111.101778 291.410437)scale(0.1 -0.1)">
       <use xlink:href="#DejaVuSans-32"/>
       <use x="63.623047" xlink:href="#DejaVuSans-35"/>
      </g>
     </g>
    </g>
    <g id="xtick_3">
     <g id="line2d_3">
      <g>
       <use style="stroke:#000000;stroke-width:0.8;" x="159.958328" xlink:href="#m1fc9bda5dc" y="276.812"/>
      </g>
     </g>
     <g id="text_3">
      <!-- 50 -->
      <g transform="translate(153.595828 291.410437)scale(0.1 -0.1)">
       <use xlink:href="#DejaVuSans-35"/>
       <use x="63.623047" xlink:href="#DejaVuSans-30"/>
      </g>
     </g>
    </g>
    <g id="xtick_4">
     <g id="line2d_4">
      <g>
       <use style="stroke:#000000;stroke-width:0.8;" x="202.452379" xlink:href="#m1fc9bda5dc" y="276.812"/>
      </g>
     </g>
     <g id="text_4">
      <!-- 75 -->
      <defs>
       <path d="M 8.203125 72.90625 
L 55.078125 72.90625 
L 55.078125 68.703125 
L 28.609375 0 
L 18.3125 0 
L 43.21875 64.59375 
L 8.203125 64.59375 
z
" id="DejaVuSans-37"/>
      </defs>
      <g transform="translate(196.089879 291.410437)scale(0.1 -0.1)">
       <use xlink:href="#DejaVuSans-37"/>
       <use x="63.623047" xlink:href="#DejaVuSans-35"/>
      </g>
     </g>
    </g>
    <g id="xtick_5">
     <g id="line2d_5">
      <g>
       <use style="stroke:#000000;stroke-width:0.8;" x="244.946429" xlink:href="#m1fc9bda5dc" y="276.812"/>
      </g>
     </g>
     <g id="text_5">
      <!-- 100 -->
      <defs>
       <path d="M 12.40625 8.296875 
L 28.515625 8.296875 
L 28.515625 63.921875 
L 10.984375 60.40625 
L 10.984375 69.390625 
L 28.421875 72.90625 
L 38.28125 72.90625 
L 38.28125 8.296875 
L 54.390625 8.296875 
L 54.390625 0 
L 12.40625 0 
z
" id="DejaVuSans-31"/>
      </defs>
      <g transform="translate(235.402679 291.410437)scale(0.1 -0.1)">
       <use xlink:href="#DejaVuSans-31"/>
       <use x="63.623047" xlink:href="#DejaVuSans-30"/>
       <use x="127.246094" xlink:href="#DejaVuSans-30"/>
      </g>
     </g>
    </g>
    <g id="xtick_6">
     <g id="line2d_6">
      <g>
       <use style="stroke:#000000;stroke-width:0.8;" x="287.44048" xlink:href="#m1fc9bda5dc" y="276.812"/>
      </g>
     </g>
     <g id="text_6">
      <!-- 125 -->
      <g transform="translate(277.89673 291.410437)scale(0.1 -0.1)">
       <use xlink:href="#DejaVuSans-31"/>
       <use x="63.623047" xlink:href="#DejaVuSans-32"/>
       <use x="127.246094" xlink:href="#DejaVuSans-35"/>
      </g>
     </g>
    </g>
    <g id="xtick_7">
     <g id="line2d_7">
      <g>
       <use style="stroke:#000000;stroke-width:0.8;" x="329.93453" xlink:href="#m1fc9bda5dc" y="276.812"/>
      </g>
     </g>
     <g id="text_7">
      <!-- 150 -->
      <g transform="translate(320.39078 291.410437)scale(0.1 -0.1)">
       <use xlink:href="#DejaVuSans-31"/>
       <use x="63.623047" xlink:href="#DejaVuSans-35"/>
       <use x="127.246094" xlink:href="#DejaVuSans-30"/>
      </g>
     </g>
    </g>
    <g id="xtick_8">
     <g id="line2d_8">
      <g>
       <use style="stroke:#000000;stroke-width:0.8;" x="372.42858" xlink:href="#m1fc9bda5dc" y="276.812"/>
      </g>
     </g>
     <g id="text_8">
      <!-- 175 -->
      <g transform="translate(362.88483 291.410437)scale(0.1 -0.1)">
       <use xlink:href="#DejaVuSans-31"/>
       <use x="63.623047" xlink:href="#DejaVuSans-37"/>
       <use x="127.246094" xlink:href="#DejaVuSans-35"/>
      </g>
     </g>
    </g>
    <g id="xtick_9">
     <g id="line2d_9">
      <g>
       <use style="stroke:#000000;stroke-width:0.8;" x="414.922631" xlink:href="#m1fc9bda5dc" y="276.812"/>
      </g>
     </g>
     <g id="text_9">
      <!-- 200 -->
      <g transform="translate(405.378881 291.410437)scale(0.1 -0.1)">
       <use xlink:href="#DejaVuSans-32"/>
       <use x="63.623047" xlink:href="#DejaVuSans-30"/>
       <use x="127.246094" xlink:href="#DejaVuSans-30"/>
      </g>
     </g>
    </g>
   </g>
   <g id="matplotlib.axis_2">
    <g id="ytick_1">
     <g id="line2d_10">
      <defs>
       <path d="M 0 0 
L -3.5 0 
" id="m87bce8f459" style="stroke:#000000;stroke-width:0.8;"/>
      </defs>
      <g>
       <use style="stroke:#000000;stroke-width:0.8;" x="58.7375" xlink:href="#m87bce8f459" y="264.572972"/>
      </g>
     </g>
     <g id="text_10">
      <!-- 0 -->
      <g transform="translate(45.375 268.372191)scale(0.1 -0.1)">
       <use xlink:href="#DejaVuSans-30"/>
      </g>
     </g>
    </g>
    <g id="ytick_2">
     <g id="line2d_11">
      <g>
       <use style="stroke:#000000;stroke-width:0.8;" x="58.7375" xlink:href="#m87bce8f459" y="229.654005"/>
      </g>
     </g>
     <g id="text_11">
      <!-- 500000 -->
      <g transform="translate(13.5625 233.453224)scale(0.1 -0.1)">
       <use xlink:href="#DejaVuSans-35"/>
       <use x="63.623047" xlink:href="#DejaVuSans-30"/>
       <use x="127.246094" xlink:href="#DejaVuSans-30"/>
       <use x="190.869141" xlink:href="#DejaVuSans-30"/>
       <use x="254.492188" xlink:href="#DejaVuSans-30"/>
       <use x="318.115234" xlink:href="#DejaVuSans-30"/>
      </g>
     </g>
    </g>
    <g id="ytick_3">
     <g id="line2d_12">
      <g>
       <use style="stroke:#000000;stroke-width:0.8;" x="58.7375" xlink:href="#m87bce8f459" y="194.735038"/>
      </g>
     </g>
     <g id="text_12">
      <!-- 1000000 -->
      <g transform="translate(7.2 198.534257)scale(0.1 -0.1)">
       <use xlink:href="#DejaVuSans-31"/>
       <use x="63.623047" xlink:href="#DejaVuSans-30"/>
       <use x="127.246094" xlink:href="#DejaVuSans-30"/>
       <use x="190.869141" xlink:href="#DejaVuSans-30"/>
       <use x="254.492188" xlink:href="#DejaVuSans-30"/>
       <use x="318.115234" xlink:href="#DejaVuSans-30"/>
       <use x="381.738281" xlink:href="#DejaVuSans-30"/>
      </g>
     </g>
    </g>
    <g id="ytick_4">
     <g id="line2d_13">
      <g>
       <use style="stroke:#000000;stroke-width:0.8;" x="58.7375" xlink:href="#m87bce8f459" y="159.816071"/>
      </g>
     </g>
     <g id="text_13">
      <!-- 1500000 -->
      <g transform="translate(7.2 163.61529)scale(0.1 -0.1)">
       <use xlink:href="#DejaVuSans-31"/>
       <use x="63.623047" xlink:href="#DejaVuSans-35"/>
       <use x="127.246094" xlink:href="#DejaVuSans-30"/>
       <use x="190.869141" xlink:href="#DejaVuSans-30"/>
       <use x="254.492188" xlink:href="#DejaVuSans-30"/>
       <use x="318.115234" xlink:href="#DejaVuSans-30"/>
       <use x="381.738281" xlink:href="#DejaVuSans-30"/>
      </g>
     </g>
    </g>
    <g id="ytick_5">
     <g id="line2d_14">
      <g>
       <use style="stroke:#000000;stroke-width:0.8;" x="58.7375" xlink:href="#m87bce8f459" y="124.897104"/>
      </g>
     </g>
     <g id="text_14">
      <!-- 2000000 -->
      <g transform="translate(7.2 128.696323)scale(0.1 -0.1)">
       <use xlink:href="#DejaVuSans-32"/>
       <use x="63.623047" xlink:href="#DejaVuSans-30"/>
       <use x="127.246094" xlink:href="#DejaVuSans-30"/>
       <use x="190.869141" xlink:href="#DejaVuSans-30"/>
       <use x="254.492188" xlink:href="#DejaVuSans-30"/>
       <use x="318.115234" xlink:href="#DejaVuSans-30"/>
       <use x="381.738281" xlink:href="#DejaVuSans-30"/>
      </g>
     </g>
    </g>
    <g id="ytick_6">
     <g id="line2d_15">
      <g>
       <use style="stroke:#000000;stroke-width:0.8;" x="58.7375" xlink:href="#m87bce8f459" y="89.978137"/>
      </g>
     </g>
     <g id="text_15">
      <!-- 2500000 -->
      <g transform="translate(7.2 93.777356)scale(0.1 -0.1)">
       <use xlink:href="#DejaVuSans-32"/>
       <use x="63.623047" xlink:href="#DejaVuSans-35"/>
       <use x="127.246094" xlink:href="#DejaVuSans-30"/>
       <use x="190.869141" xlink:href="#DejaVuSans-30"/>
       <use x="254.492188" xlink:href="#DejaVuSans-30"/>
       <use x="318.115234" xlink:href="#DejaVuSans-30"/>
       <use x="381.738281" xlink:href="#DejaVuSans-30"/>
      </g>
     </g>
    </g>
    <g id="ytick_7">
     <g id="line2d_16">
      <g>
       <use style="stroke:#000000;stroke-width:0.8;" x="58.7375" xlink:href="#m87bce8f459" y="55.05917"/>
      </g>
     </g>
     <g id="text_16">
      <!-- 3000000 -->
      <defs>
       <path d="M 40.578125 39.3125 
Q 47.65625 37.796875 51.625 33 
Q 55.609375 28.21875 55.609375 21.1875 
Q 55.609375 10.40625 48.1875 4.484375 
Q 40.765625 -1.421875 27.09375 -1.421875 
Q 22.515625 -1.421875 17.65625 -0.515625 
Q 12.796875 0.390625 7.625 2.203125 
L 7.625 11.71875 
Q 11.71875 9.328125 16.59375 8.109375 
Q 21.484375 6.890625 26.8125 6.890625 
Q 36.078125 6.890625 40.9375 10.546875 
Q 45.796875 14.203125 45.796875 21.1875 
Q 45.796875 27.640625 41.28125 31.265625 
Q 36.765625 34.90625 28.71875 34.90625 
L 20.21875 34.90625 
L 20.21875 43.015625 
L 29.109375 43.015625 
Q 36.375 43.015625 40.234375 45.921875 
Q 44.09375 48.828125 44.09375 54.296875 
Q 44.09375 59.90625 40.109375 62.90625 
Q 36.140625 65.921875 28.71875 65.921875 
Q 24.65625 65.921875 20.015625 65.03125 
Q 15.375 64.15625 9.8125 62.3125 
L 9.8125 71.09375 
Q 15.4375 72.65625 20.34375 73.4375 
Q 25.25 74.21875 29.59375 74.21875 
Q 40.828125 74.21875 47.359375 69.109375 
Q 53.90625 64.015625 53.90625 55.328125 
Q 53.90625 49.265625 50.4375 45.09375 
Q 46.96875 40.921875 40.578125 39.3125 
" id="DejaVuSans-33"/>
      </defs>
      <g transform="translate(7.2 58.858389)scale(0.1 -0.1)">
       <use xlink:href="#DejaVuSans-33"/>
       <use x="63.623047" xlink:href="#DejaVuSans-30"/>
       <use x="127.246094" xlink:href="#DejaVuSans-30"/>
       <use x="190.869141" xlink:href="#DejaVuSans-30"/>
       <use x="254.492188" xlink:href="#DejaVuSans-30"/>
       <use x="318.115234" xlink:href="#DejaVuSans-30"/>
       <use x="381.738281" xlink:href="#DejaVuSans-30"/>
      </g>
     </g>
    </g>
    <g id="ytick_8">
     <g id="line2d_17">
      <g>
       <use style="stroke:#000000;stroke-width:0.8;" x="58.7375" xlink:href="#m87bce8f459" y="20.140203"/>
      </g>
     </g>
     <g id="text_17">
      <!-- 3500000 -->
      <g transform="translate(7.2 23.939422)scale(0.1 -0.1)">
       <use xlink:href="#DejaVuSans-33"/>
       <use x="63.623047" xlink:href="#DejaVuSans-35"/>
       <use x="127.246094" xlink:href="#DejaVuSans-30"/>
       <use x="190.869141" xlink:href="#DejaVuSans-30"/>
       <use x="254.492188" xlink:href="#DejaVuSans-30"/>
       <use x="318.115234" xlink:href="#DejaVuSans-30"/>
       <use x="381.738281" xlink:href="#DejaVuSans-30"/>
      </g>
     </g>
    </g>
   </g>
   <g id="line2d_18">
    <path clip-path="url(#pd86592d9e4)" d="M 74.970227 215.768687 
L 76.669989 176.180286 
L 78.369751 156.867444 
L 80.069513 168.957577 
L 81.769275 153.892278 
L 83.469037 190.882009 
L 85.168799 211.789811 
L 86.868561 192.116325 
L 88.568323 252.825393 
L 90.268085 222.391907 
L 91.967847 211.109938 
L 93.667609 176.306693 
L 95.367371 212.649376 
L 97.067134 147.438554 
L 98.766896 201.021919 
L 100.466658 222.318578 
L 102.16642 187.015711 
L 103.866182 129.189064 
L 105.565944 171.104535 
L 107.265706 217.707318 
L 108.965468 211.00162 
L 110.66523 226.071528 
L 112.364992 120.647047 
L 114.064754 179.120533 
L 115.764516 226.50592 
L 117.464278 183.888927 
L 119.16404 133.925263 
L 120.863802 216.883929 
L 122.563564 238.695364 
L 125.963088 155.92114 
L 127.66285 209.482575 
L 129.362612 169.295174 
L 131.062374 223.501632 
L 132.762136 129.520096 
L 134.461898 126.157469 
L 136.16166 209.374047 
L 137.861422 122.660684 
L 139.561184 116.290836 
L 141.260946 217.329635 
L 142.960708 206.756591 
L 144.66047 203.567162 
L 146.360232 104.263626 
L 148.059994 89.018843 
L 149.759756 182.27197 
L 151.459518 200.80158 
L 153.15928 156.893353 
L 154.859042 192.392674 
L 156.558804 261.382286 
L 158.258566 206.979374 
L 159.958328 163.187567 
L 161.65809 243.857923 
L 163.357852 160.628426 
L 165.057614 241.655514 
L 166.757376 249.097794 
L 168.457138 201.588584 
L 170.1569 196.94904 
L 171.856662 219.108756 
L 173.556424 173.283269 
L 175.256186 186.67581 
L 176.955948 198.460612 
L 178.65571 213.411168 
L 180.355472 226.839397 
L 182.055234 211.988988 
L 183.754996 169.172399 
L 185.454758 251.78837 
L 187.15452 197.347605 
L 188.854282 224.239959 
L 190.554045 110.400635 
L 192.253807 130.236982 
L 193.953569 82.067455 
L 195.653331 195.003914 
L 197.353093 257.07573 
L 199.052855 187.413438 
L 200.752617 238.739012 
L 202.452379 171.779239 
L 204.152141 256.00253 
L 205.851903 236.358935 
L 207.551665 109.791438 
L 209.251427 227.972377 
L 210.951189 196.180124 
L 212.650951 250.053177 
L 214.350713 144.81195 
L 216.050475 226.872989 
L 217.750237 241.882907 
L 219.449999 92.013633 
L 221.149761 246.350858 
L 222.849523 176.858552 
L 224.549285 190.252839 
L 226.249047 166.311697 
L 227.948809 196.244725 
L 229.648571 199.963176 
L 231.348333 160.951706 
L 233.048095 130.865594 
L 234.747857 166.232711 
L 236.447619 155.525717 
L 238.147381 221.396088 
L 239.847143 199.092227 
L 241.546905 83.246319 
L 243.246667 206.557622 
L 244.946429 131.523956 
L 246.646191 225.159305 
L 248.345953 215.43584 
L 250.045715 216.936936 
L 251.745477 162.971279 
L 253.445239 247.556889 
L 255.145001 211.367431 
L 256.844763 213.898846 
L 258.544525 215.439122 
L 260.244287 233.081092 
L 261.944049 193.279685 
L 263.643811 208.390659 
L 265.343573 246.027229 
L 267.043335 260.304128 
L 268.743097 223.692848 
L 270.442859 202.555909 
L 272.142621 213.752955 
L 273.842383 222.498899 
L 275.542145 188.030247 
L 277.241907 210.299748 
L 278.941669 204.907771 
L 280.641431 129.504871 
L 282.341193 212.791566 
L 284.040955 233.769135 
L 285.740718 205.660415 
L 287.44048 133.178696 
L 289.140242 219.119441 
L 290.840004 228.6908 
L 292.539766 251.862608 
L 294.239528 153.360532 
L 295.93929 245.750182 
L 297.639052 149.990083 
L 299.338814 140.401754 
L 301.038576 216.093224 
L 302.738338 217.051959 
L 304.4381 160.88941 
L 306.137862 177.745773 
L 307.837624 227.436581 
L 309.537386 188.58064 
L 311.237148 228.023988 
L 312.93691 242.914413 
L 314.636672 185.268157 
L 316.336434 214.333099 
L 318.036196 203.706 
L 321.43572 166.01321 
L 323.135482 222.317739 
L 324.835244 226.319313 
L 326.535006 211.342848 
L 328.234768 174.907001 
L 329.93453 264.572413 
L 331.634292 264.568712 
L 333.334054 187.717373 
L 335.033816 200.19818 
L 336.733578 126.883854 
L 338.43334 217.510934 
L 340.133102 204.468002 
L 341.832864 223.178632 
L 343.532626 117.826572 
L 345.232388 97.253713 
L 346.93215 46.233261 
L 348.631912 217.111252 
L 350.331674 263.962728 
L 352.031436 174.015729 
L 353.731198 233.79714 
L 355.43096 142.524618 
L 357.130722 22.796 
L 358.830484 234.864543 
L 360.530246 244.837051 
L 362.230008 97.872757 
L 363.92977 211.636516 
L 365.629532 211.109938 
L 367.329294 219.103728 
L 369.029056 221.940615 
L 370.728818 235.135584 
L 372.42858 241.839397 
L 374.128342 105.528321 
L 375.828104 223.21362 
L 377.527866 164.90139 
L 379.227629 174.878088 
L 380.927391 264.56948 
L 382.627153 253.85264 
L 384.326915 100.620391 
L 386.026677 199.972464 
L 387.726439 162.601906 
L 389.426201 259.110179 
L 391.125963 192.559237 
L 392.825725 206.686543 
L 394.525487 237.646398 
L 396.225249 162.343017 
L 397.925011 99.490483 
L 399.624773 189.556834 
L 399.624773 189.556834 
" style="fill:none;stroke:#1f77b4;stroke-linecap:square;stroke-width:1.5;"/>
   </g>
   <g id="line2d_19">
    <path clip-path="url(#pd86592d9e4)" d="M 74.970227 263.580365 
L 76.669989 249.651539 
L 78.369751 257.957713 
L 80.069513 263.414151 
L 81.769275 255.345146 
L 83.469037 254.288708 
L 85.168799 256.833602 
L 86.868561 264.093954 
L 88.568323 261.982404 
L 90.268085 260.055296 
L 91.967847 253.096295 
L 93.667609 261.203292 
L 95.367371 258.134962 
L 97.067134 247.135697 
L 98.766896 251.743394 
L 100.466658 259.098027 
L 102.16642 260.030363 
L 103.866182 173.260432 
L 105.565944 254.0118 
L 107.265706 262.995612 
L 108.965468 260.939514 
L 110.66523 262.858381 
L 112.364992 206.816023 
L 114.064754 263.941148 
L 115.764516 248.79791 
L 117.464278 260.477047 
L 119.16404 262.072634 
L 120.863802 229.736553 
L 122.563564 264.308007 
L 124.263326 258.167087 
L 125.963088 261.81179 
L 127.66285 262.69929 
L 129.362612 253.676438 
L 131.062374 261.211323 
L 132.762136 257.801416 
L 134.461898 235.682834 
L 136.16166 243.433658 
L 137.861422 190.974964 
L 139.561184 261.917664 
L 141.260946 263.682957 
L 142.960708 259.157389 
L 144.66047 258.161081 
L 146.360232 232.337877 
L 148.059994 227.534633 
L 149.759756 241.333911 
L 151.459518 263.250521 
L 153.15928 261.472587 
L 154.859042 262.945539 
L 156.558804 264.153805 
L 158.258566 257.626961 
L 159.958328 248.977253 
L 161.65809 264.297601 
L 163.357852 264.034731 
L 165.057614 254.686504 
L 166.757376 259.656451 
L 168.457138 263.216161 
L 170.1569 223.985749 
L 171.856662 218.263228 
L 173.556424 170.403711 
L 175.256186 263.937167 
L 176.955948 260.870584 
L 178.65571 263.171185 
L 180.355472 264.058127 
L 182.055234 259.027561 
L 183.754996 263.598453 
L 185.454758 262.318534 
L 187.15452 260.092449 
L 188.854282 264.28936 
L 190.554045 255.334042 
L 192.253807 244.403707 
L 193.953569 242.080618 
L 195.653331 262.870602 
L 197.353093 263.458708 
L 199.052855 260.533266 
L 200.752617 261.890916 
L 202.452379 262.150364 
L 204.152141 259.777201 
L 205.851903 259.49324 
L 207.551665 258.089847 
L 209.251427 249.985923 
L 210.951189 257.88145 
L 212.650951 263.984867 
L 214.350713 252.772666 
L 216.050475 243.454819 
L 217.750237 213.137822 
L 219.449999 260.215713 
L 221.149761 259.883774 
L 222.849523 222.621674 
L 224.549285 223.540322 
L 226.249047 255.979624 
L 227.948809 263.821027 
L 229.648571 256.477847 
L 231.348333 245.010179 
L 233.048095 252.501834 
L 234.747857 230.686838 
L 236.447619 230.888041 
L 238.147381 264.289081 
L 239.847143 233.023755 
L 241.546905 248.721996 
L 243.246667 248.056301 
L 244.946429 236.548476 
L 246.646191 245.187847 
L 248.345953 263.132495 
L 250.045715 263.347246 
L 251.745477 262.364347 
L 253.445239 260.520835 
L 255.145001 260.511896 
L 256.844763 260.950059 
L 258.544525 263.50948 
L 260.244287 264.325396 
L 261.944049 248.76334 
L 263.643811 259.361246 
L 265.343573 264.305004 
L 267.043335 264.30228 
L 268.743097 261.074371 
L 270.442859 258.374227 
L 272.142621 262.759211 
L 273.842383 213.526121 
L 275.542145 180.313854 
L 277.241907 258.735289 
L 278.941669 264.071117 
L 280.641431 256.251782 
L 282.341193 254.941064 
L 284.040955 255.596074 
L 285.740718 257.813288 
L 287.44048 154.547637 
L 289.140242 208.206496 
L 290.840004 240.225024 
L 292.539766 262.387603 
L 294.239528 123.834659 
L 295.93929 262.925076 
L 297.639052 257.033757 
L 299.338814 191.772932 
L 301.038576 259.376052 
L 302.738338 261.860117 
L 304.4381 177.749545 
L 306.137862 264.236912 
L 307.837624 258.336375 
L 309.537386 257.003587 
L 311.237148 260.298262 
L 312.93691 244.552392 
L 314.636672 262.22942 
L 316.336434 257.106249 
L 318.036196 259.282958 
L 319.735958 248.644895 
L 321.43572 246.895594 
L 323.135482 262.190451 
L 324.835244 260.317886 
L 326.535006 259.658686 
L 328.234768 263.319591 
L 329.93453 264.572762 
L 331.634292 264.571785 
L 333.334054 260.458819 
L 335.033816 248.625131 
L 336.733578 242.439445 
L 338.43334 263.329927 
L 340.133102 262.477066 
L 341.832864 254.973259 
L 343.532626 252.477112 
L 345.232388 237.627961 
L 346.93215 229.396093 
L 348.631912 261.570918 
L 350.331674 264.314921 
L 352.031436 261.062149 
L 353.731198 261.02318 
L 357.130722 248.490832 
L 358.830484 261.179966 
L 360.530246 256.030745 
L 362.230008 252.141121 
L 363.92977 260.493529 
L 365.629532 260.663584 
L 367.329294 247.63846 
L 369.029056 254.30051 
L 370.728818 258.09271 
L 372.42858 259.049909 
L 374.128342 242.527371 
L 375.828104 250.749112 
L 377.527866 253.388497 
L 379.227629 248.503473 
L 380.927391 264.571435 
L 382.627153 261.924578 
L 384.326915 260.420129 
L 386.026677 250.22833 
L 389.426201 261.973115 
L 391.125963 247.657875 
L 392.825725 253.323966 
L 394.525487 255.661582 
L 396.225249 131.324568 
L 397.925011 211.015168 
L 399.624773 259.248109 
L 399.624773 259.248109 
" style="fill:none;stroke:#ff7f0e;stroke-linecap:square;stroke-width:1.5;"/>
   </g>
   <g id="line2d_20">
    <path clip-path="url(#pd86592d9e4)" d="M 74.970227 264.485535 
L 76.669989 260.730559 
L 78.369751 262.390327 
L 80.069513 264.321346 
L 81.769275 257.743241 
L 83.469037 262.291576 
L 85.168799 261.70389 
L 86.868561 264.480786 
L 88.568323 262.602006 
L 90.268085 263.860485 
L 91.967847 257.04968 
L 93.667609 262.569671 
L 95.367371 261.375372 
L 97.067134 263.947783 
L 98.766896 248.525821 
L 100.466658 263.753424 
L 102.16642 263.339983 
L 103.866182 257.306335 
L 105.565944 257.953174 
L 107.265706 263.174397 
L 108.965468 261.178359 
L 110.66523 264.393907 
L 112.364992 255.397385 
L 114.064754 264.231325 
L 115.764516 259.026723 
L 117.464278 264.044369 
L 119.16404 263.854828 
L 120.863802 257.553561 
L 122.563564 264.283144 
L 124.263326 264.032356 
L 125.963088 264.362969 
L 127.66285 263.73366 
L 129.362612 264.501807 
L 131.062374 263.652089 
L 132.762136 263.829128 
L 134.461898 255.920192 
L 136.16166 258.408587 
L 137.861422 239.475663 
L 139.561184 263.753633 
L 141.260946 264.16442 
L 142.960708 261.22564 
L 144.66047 263.421135 
L 146.360232 253.728049 
L 148.059994 245.431512 
L 149.759756 250.91351 
L 151.459518 263.781848 
L 153.15928 262.313994 
L 154.859042 264.178108 
L 156.558804 264.196964 
L 158.258566 263.708937 
L 159.958328 258.389661 
L 161.65809 264.133552 
L 163.357852 264.555093 
L 165.057614 264.053098 
L 166.757376 264.094442 
L 168.457138 264.25919 
L 170.1569 215.767011 
L 171.856662 255.239132 
L 173.556424 250.127903 
L 175.256186 264.472894 
L 176.955948 261.907607 
L 178.65571 262.782327 
L 180.355472 264.319181 
L 182.055234 255.903989 
L 183.754996 264.08243 
L 185.454758 264.227763 
L 187.15452 263.51793 
L 188.854282 264.472056 
L 192.253807 260.340723 
L 193.953569 256.407032 
L 195.653331 264.098772 
L 197.353093 264.169658 
L 199.052855 262.249184 
L 200.752617 264.210723 
L 202.452379 263.697274 
L 204.152141 264.046883 
L 207.551665 262.730857 
L 209.251427 260.599752 
L 210.951189 263.790857 
L 212.650951 264.458508 
L 214.350713 262.981086 
L 216.050475 251.47375 
L 217.750237 262.954268 
L 219.449999 258.881739 
L 221.149761 262.683995 
L 222.849523 254.977519 
L 224.549285 243.513902 
L 226.249047 260.383324 
L 227.948809 264.551811 
L 229.648571 263.305763 
L 231.348333 264.204297 
L 233.048095 262.625192 
L 234.747857 222.631731 
L 236.447619 252.973659 
L 238.147381 264.451943 
L 239.847143 263.55264 
L 241.546905 264.05687 
L 243.246667 263.618218 
L 244.946429 235.936835 
L 246.646191 251.475077 
L 248.345953 264.288941 
L 250.045715 264.098353 
L 251.745477 264.236702 
L 253.445239 263.84973 
L 256.844763 264.550414 
L 258.544525 263.507175 
L 260.244287 264.20772 
L 261.944049 263.596987 
L 263.643811 263.212459 
L 265.343573 264.489166 
L 267.043335 264.492519 
L 268.743097 263.69036 
L 270.442859 264.271551 
L 272.142621 263.525682 
L 273.842383 256.145908 
L 275.542145 260.62238 
L 277.241907 259.646604 
L 278.941669 264.385248 
L 280.641431 260.789921 
L 282.341193 259.769519 
L 284.040955 263.074878 
L 285.740718 256.550549 
L 287.44048 259.731248 
L 289.140242 264.420306 
L 290.840004 254.702707 
L 292.539766 262.688465 
L 294.239528 214.679914 
L 295.93929 262.353732 
L 297.639052 261.96257 
L 299.338814 251.787532 
L 301.038576 262.950427 
L 302.738338 261.203641 
L 304.4381 262.346888 
L 306.137862 263.781918 
L 307.837624 264.490843 
L 309.537386 262.106994 
L 312.93691 262.248696 
L 314.636672 264.421493 
L 316.336434 262.744685 
L 318.036196 263.812926 
L 319.735958 251.364035 
L 321.43572 251.979586 
L 323.135482 264.157436 
L 324.835244 263.069361 
L 326.535006 263.866841 
L 329.93453 264.572832 
L 331.634292 264.570947 
L 333.334054 263.445718 
L 336.733578 248.994992 
L 338.43334 264.389368 
L 340.133102 263.893379 
L 341.832864 260.509103 
L 343.532626 259.566151 
L 345.232388 261.193794 
L 346.93215 247.231794 
L 348.631912 257.281682 
L 350.331674 264.487839 
L 352.031436 262.359808 
L 353.731198 261.362732 
L 355.43096 261.86333 
L 357.130722 257.727248 
L 358.830484 263.616821 
L 360.530246 263.791555 
L 362.230008 258.640868 
L 363.92977 262.982203 
L 365.629532 263.106655 
L 367.329294 255.140451 
L 369.029056 254.426149 
L 370.728818 262.200158 
L 372.42858 264.301372 
L 374.128342 250.678645 
L 375.828104 261.167814 
L 377.527866 258.461175 
L 379.227629 250.779561 
L 380.927391 264.572064 
L 382.627153 263.310931 
L 384.326915 263.342707 
L 386.026677 264.270713 
L 387.726439 264.030052 
L 389.426201 260.696478 
L 391.125963 262.394866 
L 392.825725 263.653346 
L 394.525487 262.162585 
L 396.225249 257.704481 
L 397.925011 257.797924 
L 399.624773 262.881497 
L 399.624773 262.881497 
" style="fill:none;stroke:#2ca02c;stroke-linecap:square;stroke-width:1.5;"/>
   </g>
   <g id="line2d_21">
    <path clip-path="url(#pd86592d9e4)" d="M 74.970227 264.331891 
L 76.669989 261.375582 
L 78.369751 259.901652 
L 80.069513 262.53112 
L 81.769275 256.975722 
L 83.469037 261.814723 
L 85.168799 263.93172 
L 86.868561 264.316876 
L 88.568323 263.321755 
L 90.268085 263.903296 
L 91.967847 257.221272 
L 93.667609 262.283545 
L 95.367371 258.393223 
L 97.067134 262.721289 
L 98.766896 261.294221 
L 100.466658 263.190251 
L 102.16642 262.7597 
L 103.866182 257.539384 
L 105.565944 259.503506 
L 107.265706 263.999602 
L 108.965468 258.042497 
L 110.66523 263.858739 
L 112.364992 244.253346 
L 114.064754 263.788552 
L 115.764516 263.262742 
L 117.464278 264.166515 
L 119.16404 264.095699 
L 120.863802 259.478364 
L 122.563564 264.232512 
L 124.263326 263.895614 
L 125.963088 264.339574 
L 127.66285 264.201853 
L 129.362612 262.85028 
L 131.062374 264.0568 
L 132.762136 263.881367 
L 134.461898 241.828433 
L 136.16166 255.664515 
L 137.861422 246.096788 
L 139.561184 264.423309 
L 141.260946 264.358919 
L 142.960708 260.652619 
L 144.66047 263.417503 
L 146.360232 261.267193 
L 148.059994 245.946985 
L 149.759756 257.351171 
L 151.459518 264.13439 
L 153.15928 263.949179 
L 154.859042 264.119025 
L 156.558804 264.426661 
L 158.258566 263.915029 
L 159.958328 259.284704 
L 161.65809 263.802031 
L 163.357852 264.34118 
L 165.057614 263.389917 
L 166.757376 263.671085 
L 168.457138 264.398098 
L 170.1569 226.184666 
L 171.856662 259.818964 
L 173.556424 244.888522 
L 175.256186 264.384549 
L 176.955948 264.215052 
L 178.65571 263.598104 
L 180.355472 264.456343 
L 182.055234 257.518153 
L 183.754996 264.293341 
L 185.454758 264.364296 
L 187.15452 263.846937 
L 188.854282 264.287405 
L 192.253807 262.31134 
L 193.953569 248.682258 
L 195.653331 264.191168 
L 197.353093 264.34991 
L 199.052855 263.804126 
L 200.752617 263.816767 
L 202.452379 262.416097 
L 204.152141 262.987302 
L 205.851903 262.30296 
L 207.551665 263.028506 
L 209.251427 259.980569 
L 210.951189 263.506197 
L 212.650951 264.413113 
L 214.350713 262.99247 
L 216.050475 256.085568 
L 217.750237 261.407288 
L 219.449999 258.690243 
L 221.149761 264.199269 
L 222.849523 258.453842 
L 224.549285 257.153041 
L 226.249047 261.343177 
L 227.948809 264.4099 
L 229.648571 261.415459 
L 231.348333 262.718146 
L 233.048095 264.258143 
L 234.747857 213.667194 
L 236.447619 258.659375 
L 238.147381 264.377915 
L 239.847143 263.551103 
L 241.546905 259.331705 
L 243.246667 261.383473 
L 244.946429 250.519764 
L 246.646191 255.367075 
L 248.345953 264.472475 
L 251.745477 264.064691 
L 253.445239 262.124803 
L 255.145001 264.526111 
L 256.844763 264.495382 
L 258.544525 263.072015 
L 260.244287 264.372328 
L 261.944049 263.94485 
L 263.643811 263.836252 
L 265.343573 264.522549 
L 267.043335 264.137812 
L 268.743097 264.236423 
L 270.442859 264.006866 
L 272.142621 262.353453 
L 273.842383 263.754541 
L 275.542145 261.558138 
L 277.241907 261.637893 
L 278.941669 264.429944 
L 280.641431 261.095671 
L 282.341193 261.576645 
L 284.040955 263.609627 
L 285.740718 259.472079 
L 287.44048 246.69921 
L 289.140242 261.25986 
L 290.840004 255.260991 
L 292.539766 260.216063 
L 294.239528 241.172515 
L 295.93929 262.261546 
L 297.639052 248.816067 
L 301.038576 262.722616 
L 302.738338 263.544538 
L 304.4381 262.644328 
L 306.137862 262.01418 
L 307.837624 264.555652 
L 309.537386 261.792235 
L 311.237148 261.476986 
L 312.93691 264.162674 
L 314.636672 264.377496 
L 316.336434 263.045616 
L 318.036196 263.618357 
L 319.735958 252.117726 
L 321.43572 258.842211 
L 323.135482 264.286706 
L 324.835244 262.793292 
L 326.535006 263.497607 
L 328.234768 263.510527 
L 329.93453 264.572972 
L 331.634292 264.572762 
L 333.334054 262.433766 
L 335.033816 261.411409 
L 336.733578 251.271569 
L 338.43334 264.291176 
L 340.133102 262.061879 
L 341.832864 262.653895 
L 343.532626 259.280164 
L 345.232388 258.149837 
L 346.93215 256.541749 
L 348.631912 253.201191 
L 350.331674 264.514797 
L 355.43096 262.084646 
L 357.130722 248.302549 
L 358.830484 263.327412 
L 360.530246 261.315381 
L 362.230008 260.692567 
L 363.92977 262.995403 
L 365.629532 263.861254 
L 367.329294 256.257229 
L 369.029056 255.614092 
L 370.728818 262.108601 
L 372.42858 263.691058 
L 374.128342 256.467232 
L 375.828104 261.313147 
L 377.527866 261.945529 
L 379.227629 253.000268 
L 380.927391 264.572343 
L 382.627153 261.836582 
L 384.326915 263.913353 
L 386.026677 263.960633 
L 387.726439 263.628344 
L 389.426201 261.442277 
L 391.125963 261.535092 
L 392.825725 260.164802 
L 394.525487 262.717238 
L 396.225249 253.426279 
L 397.925011 234.183414 
L 399.624773 259.15271 
L 399.624773 259.15271 
" style="fill:none;stroke:#d62728;stroke-linecap:square;stroke-width:1.5;"/>
   </g>
   <g id="line2d_22">
    <path clip-path="url(#pd86592d9e4)" d="M 74.970227 264.365274 
L 76.669989 262.642372 
L 78.369751 260.219554 
L 80.069513 264.400402 
L 81.769275 258.090824 
L 83.469037 263.612072 
L 85.168799 261.51435 
L 86.868561 264.504182 
L 88.568323 263.080535 
L 90.268085 263.717806 
L 91.967847 261.726727 
L 93.667609 262.178928 
L 95.367371 263.049737 
L 97.067134 263.175934 
L 98.766896 260.530682 
L 100.466658 263.765785 
L 102.16642 263.738269 
L 103.866182 256.358006 
L 105.565944 263.217976 
L 107.265706 264.140815 
L 108.965468 259.188048 
L 110.66523 264.219033 
L 112.364992 224.792237 
L 114.064754 264.242988 
L 115.764516 263.891843 
L 117.464278 264.399494 
L 119.16404 264.090182 
L 120.863802 261.089665 
L 122.563564 264.504182 
L 124.263326 263.589025 
L 125.963088 263.712289 
L 127.66285 264.123774 
L 129.362612 263.158614 
L 131.062374 264.250879 
L 132.762136 263.541815 
L 134.461898 241.77382 
L 136.16166 253.633698 
L 137.861422 255.494879 
L 139.561184 263.739037 
L 141.260946 264.389577 
L 142.960708 261.935123 
L 144.66047 261.80306 
L 146.360232 257.068956 
L 148.059994 247.706971 
L 149.759756 259.833421 
L 151.459518 264.354309 
L 153.15928 264.427011 
L 154.859042 264.252486 
L 156.558804 264.431899 
L 158.258566 264.388949 
L 159.958328 261.272082 
L 161.65809 264.308496 
L 163.357852 264.358709 
L 165.057614 263.24228 
L 166.757376 264.238309 
L 168.457138 264.445308 
L 170.1569 244.783835 
L 171.856662 259.734111 
L 173.556424 222.325422 
L 175.256186 264.374842 
L 176.955948 264.432877 
L 178.65571 263.973274 
L 180.355472 264.457181 
L 182.055234 260.716102 
L 183.754996 264.341808 
L 185.454758 264.31094 
L 187.15452 262.283545 
L 188.854282 264.445378 
L 190.554045 262.451994 
L 192.253807 263.028436 
L 193.953569 242.100522 
L 195.653331 264.432737 
L 197.353093 263.882345 
L 199.052855 264.094792 
L 200.752617 263.975229 
L 202.452379 263.649435 
L 204.152141 263.763341 
L 205.851903 263.580645 
L 207.551665 263.781638 
L 209.251427 261.095951 
L 210.951189 262.41924 
L 212.650951 264.468634 
L 214.350713 263.108261 
L 216.050475 261.129263 
L 217.750237 261.677771 
L 219.449999 257.092701 
L 221.149761 262.78973 
L 222.849523 252.455951 
L 224.549285 247.778415 
L 226.249047 257.454391 
L 227.948809 264.124193 
L 229.648571 262.581124 
L 231.348333 263.66892 
L 233.048095 264.410459 
L 234.747857 233.344241 
L 236.447619 252.744661 
L 238.147381 264.328749 
L 239.847143 262.441518 
L 241.546905 255.269162 
L 243.246667 260.012694 
L 244.946429 259.365576 
L 246.646191 260.680624 
L 248.345953 264.322812 
L 250.045715 264.284122 
L 251.745477 263.279085 
L 253.445239 263.921384 
L 256.844763 264.390276 
L 258.544525 264.061479 
L 260.244287 264.326723 
L 261.944049 263.100718 
L 263.643811 263.566398 
L 265.343573 264.52199 
L 267.043335 264.509769 
L 268.743097 264.169937 
L 270.442859 263.530012 
L 272.142621 263.323571 
L 273.842383 257.071051 
L 275.542145 260.891256 
L 277.241907 262.445778 
L 278.941669 264.475199 
L 280.641431 262.140936 
L 282.341193 261.414691 
L 284.040955 261.638731 
L 285.740718 263.445089 
L 287.44048 257.698056 
L 289.140242 262.359109 
L 290.840004 254.118792 
L 292.539766 262.848743 
L 294.239528 142.067528 
L 295.93929 262.62177 
L 297.639052 259.990067 
L 299.338814 258.220094 
L 301.038576 262.43223 
L 302.738338 261.441718 
L 304.4381 262.21217 
L 306.137862 262.41477 
L 307.837624 264.105197 
L 309.537386 261.802082 
L 311.237148 264.092906 
L 312.93691 263.963636 
L 314.636672 264.317435 
L 316.336434 264.44021 
L 318.036196 263.597057 
L 319.735958 248.765714 
L 321.43572 253.953765 
L 323.135482 263.309674 
L 324.835244 263.385238 
L 326.535006 263.156379 
L 328.234768 262.118308 
L 329.93453 264.572902 
L 331.634292 264.572832 
L 333.334054 262.829817 
L 335.033816 247.546344 
L 336.733578 256.776894 
L 338.43334 264.128733 
L 340.133102 262.680085 
L 341.832864 262.875491 
L 343.532626 261.957192 
L 345.232388 259.756738 
L 346.93215 259.790261 
L 348.631912 256.39928 
L 350.331674 264.537145 
L 352.031436 262.378664 
L 353.731198 263.684145 
L 355.43096 260.351478 
L 357.130722 250.987748 
L 358.830484 263.532107 
L 360.530246 260.146993 
L 362.230008 263.318892 
L 363.92977 262.63469 
L 365.629532 263.228662 
L 369.029056 247.152877 
L 370.728818 262.501509 
L 372.42858 261.601927 
L 374.128342 261.174169 
L 375.828104 261.717508 
L 377.527866 263.549287 
L 379.227629 250.360114 
L 380.927391 264.572134 
L 382.627153 261.54878 
L 384.326915 262.742659 
L 386.026677 261.829668 
L 387.726439 263.837299 
L 389.426201 264.038991 
L 391.125963 260.651502 
L 392.825725 262.215662 
L 394.525487 260.51881 
L 396.225249 260.291837 
L 397.925011 236.667549 
L 399.624773 261.63929 
L 399.624773 261.63929 
" style="fill:none;stroke:#9467bd;stroke-linecap:square;stroke-width:1.5;"/>
   </g>
   <g id="line2d_23">
    <path clip-path="url(#pd86592d9e4)" d="M 74.970227 264.373724 
L 76.669989 259.933079 
L 78.369751 259.748428 
L 80.069513 264.179226 
L 81.769275 259.768332 
L 83.469037 263.994504 
L 85.168799 263.161896 
L 86.868561 264.501458 
L 88.568323 263.010069 
L 90.268085 263.678907 
L 91.967847 262.968236 
L 93.667609 260.961163 
L 95.367371 262.741612 
L 97.067134 262.170477 
L 98.766896 259.067648 
L 100.466658 262.312318 
L 102.16642 262.732184 
L 103.866182 258.956535 
L 105.565944 260.758354 
L 107.265706 264.049886 
L 108.965468 261.167674 
L 110.66523 263.910978 
L 112.364992 229.4623 
L 114.064754 264.011824 
L 115.764516 263.701744 
L 117.464278 264.014897 
L 119.16404 264.041016 
L 120.863802 257.719915 
L 122.563564 264.261495 
L 124.263326 263.417503 
L 125.963088 264.014757 
L 127.66285 264.259609 
L 129.362612 262.589505 
L 131.062374 264.370721 
L 132.762136 262.538593 
L 134.461898 243.666567 
L 136.16166 253.907881 
L 139.561184 264.114626 
L 141.260946 264.499223 
L 142.960708 262.204837 
L 144.66047 263.030392 
L 146.360232 257.099615 
L 148.059994 254.000696 
L 149.759756 260.857105 
L 151.459518 264.245153 
L 153.15928 264.179086 
L 154.859042 264.456273 
L 156.558804 264.494823 
L 158.258566 264.332729 
L 159.958328 261.398977 
L 161.65809 264.40585 
L 163.357852 264.499572 
L 165.057614 263.878503 
L 166.757376 264.237331 
L 168.457138 264.477364 
L 170.1569 251.396719 
L 171.856662 255.623799 
L 173.556424 245.342259 
L 175.256186 264.33252 
L 176.955948 264.236563 
L 178.65571 263.904204 
L 180.355472 264.457181 
L 182.055234 263.379581 
L 183.754996 264.438324 
L 185.454758 264.491681 
L 187.15452 264.201364 
L 188.854282 264.540008 
L 190.554045 263.701814 
L 192.253807 262.432509 
L 193.953569 248.669966 
L 195.653331 264.458368 
L 197.353093 264.144516 
L 199.052855 264.335593 
L 200.752617 264.235934 
L 202.452379 263.491811 
L 204.152141 264.091928 
L 207.551665 264.309473 
L 209.251427 260.452953 
L 210.951189 264.033195 
L 212.650951 264.536726 
L 214.350713 262.889668 
L 216.050475 263.934304 
L 217.750237 260.730559 
L 219.449999 242.75637 
L 221.149761 262.497598 
L 222.849523 244.791028 
L 224.549285 254.131363 
L 226.249047 260.386677 
L 227.948809 264.294947 
L 229.648571 262.771223 
L 231.348333 263.371201 
L 233.048095 264.189212 
L 234.747857 243.794091 
L 236.447619 246.728262 
L 238.147381 264.312337 
L 239.847143 262.048121 
L 241.546905 256.892126 
L 243.246667 261.024576 
L 244.946429 262.937647 
L 248.345953 264.409761 
L 250.045715 264.340481 
L 251.745477 263.623176 
L 253.445239 263.171883 
L 255.145001 264.294807 
L 260.244287 264.399774 
L 261.944049 262.844972 
L 263.643811 263.75524 
L 265.343573 264.536377 
L 268.743097 264.464374 
L 270.442859 264.109877 
L 272.142621 262.794828 
L 273.842383 237.801717 
L 275.542145 259.666927 
L 277.241907 264.008542 
L 278.941669 264.449149 
L 280.641431 262.999034 
L 282.341193 260.688167 
L 284.040955 260.632157 
L 285.740718 260.909553 
L 287.44048 253.068639 
L 289.140242 262.896582 
L 290.840004 257.168475 
L 292.539766 263.770604 
L 294.239528 233.384957 
L 295.93929 262.300585 
L 297.639052 258.114499 
L 299.338814 261.944063 
L 301.038576 262.809983 
L 302.738338 261.98827 
L 304.4381 262.21252 
L 306.137862 262.861314 
L 307.837624 264.172661 
L 309.537386 261.684126 
L 311.237148 263.067196 
L 312.93691 264.047441 
L 314.636672 264.236283 
L 316.336434 264.288662 
L 318.036196 263.599361 
L 319.735958 259.229253 
L 321.43572 258.278549 
L 323.135482 263.892611 
L 324.835244 263.934374 
L 326.535006 263.738758 
L 328.234768 263.731355 
L 329.93453 264.572902 
L 331.634292 264.572832 
L 333.334054 263.826265 
L 335.033816 252.791312 
L 336.733578 262.548929 
L 338.43334 264.201574 
L 340.133102 261.766046 
L 341.832864 263.424906 
L 343.532626 261.499684 
L 345.232388 254.608915 
L 346.93215 261.327044 
L 348.631912 262.175017 
L 350.331674 264.554535 
L 352.031436 261.593895 
L 353.731198 263.688474 
L 355.43096 255.137448 
L 357.130722 258.73892 
L 358.830484 263.899245 
L 360.530246 261.767233 
L 362.230008 261.851527 
L 363.92977 262.989816 
L 365.629532 263.16881 
L 367.329294 261.099303 
L 369.029056 252.051799 
L 370.728818 258.586325 
L 372.42858 263.292563 
L 374.128342 262.306521 
L 375.828104 263.094363 
L 377.527866 261.541447 
L 379.227629 257.881799 
L 380.927391 264.572623 
L 382.627153 263.485106 
L 384.326915 263.395714 
L 386.026677 259.372839 
L 387.726439 261.510718 
L 389.426201 263.464434 
L 391.125963 261.051115 
L 392.825725 261.808577 
L 394.525487 259.365157 
L 396.225249 246.792653 
L 397.925011 249.994792 
L 399.624773 260.623427 
L 399.624773 260.623427 
" style="fill:none;stroke:#8c564b;stroke-linecap:square;stroke-width:1.5;"/>
   </g>
   <g id="line2d_24">
    <path clip-path="url(#pd86592d9e4)" d="M 74.970227 264.531488 
L 76.669989 262.961252 
L 78.369751 263.724371 
L 80.069513 264.158065 
L 81.769275 261.089037 
L 83.469037 264.284821 
L 85.168799 263.027738 
L 86.868561 264.52227 
L 88.568323 264.141443 
L 90.268085 264.274066 
L 91.967847 263.525193 
L 93.667609 262.61311 
L 95.367371 262.675266 
L 97.067134 263.61696 
L 98.766896 262.876958 
L 100.466658 264.213376 
L 102.16642 264.245362 
L 103.866182 263.252197 
L 105.565944 264.056032 
L 107.265706 264.495591 
L 108.965468 263.599361 
L 110.66523 264.489865 
L 112.364992 208.372501 
L 114.064754 264.430153 
L 115.764516 263.898198 
L 117.464278 264.273577 
L 119.16404 264.375051 
L 120.863802 263.165109 
L 122.563564 264.545246 
L 124.263326 263.993177 
L 125.963088 264.372258 
L 127.66285 264.508931 
L 129.362612 264.028585 
L 131.062374 264.488189 
L 132.762136 263.578759 
L 134.461898 254.532861 
L 136.16166 262.175226 
L 137.861422 260.759891 
L 139.561184 264.323162 
L 141.260946 264.534421 
L 142.960708 263.614726 
L 144.66047 263.984098 
L 146.360232 260.745015 
L 148.059994 260.150136 
L 149.759756 263.115734 
L 151.459518 264.438953 
L 153.15928 263.633791 
L 154.859042 264.522898 
L 156.558804 264.529114 
L 158.258566 264.39265 
L 159.958328 263.681561 
L 161.65809 264.462069 
L 163.357852 264.542592 
L 165.057614 264.264847 
L 168.457138 264.535259 
L 170.1569 260.394638 
L 171.856662 261.285281 
L 173.556424 255.948546 
L 175.256186 264.459625 
L 176.955948 263.789739 
L 178.65571 264.378194 
L 180.355472 264.559144 
L 182.055234 262.859778 
L 183.754996 264.508581 
L 185.454758 264.5523 
L 187.15452 264.008332 
L 188.854282 264.549925 
L 190.554045 263.529733 
L 192.253807 263.652229 
L 193.953569 259.52774 
L 195.653331 264.50034 
L 200.752617 264.512213 
L 202.452379 264.024674 
L 204.152141 263.850568 
L 205.851903 264.437836 
L 207.551665 264.428128 
L 209.251427 262.929476 
L 210.951189 264.130479 
L 212.650951 264.546364 
L 214.350713 263.811319 
L 216.050475 264.239705 
L 217.750237 259.667416 
L 219.449999 262.292554 
L 221.149761 264.04793 
L 222.849523 249.214912 
L 224.549285 244.604002 
L 226.249047 263.189133 
L 227.948809 264.544269 
L 229.648571 263.83262 
L 231.348333 264.395304 
L 233.048095 264.273297 
L 234.747857 252.334223 
L 236.447619 263.247797 
L 238.147381 264.35822 
L 239.847143 263.744415 
L 241.546905 262.705994 
L 243.246667 263.389219 
L 244.946429 263.383143 
L 246.646191 264.128663 
L 248.345953 264.54343 
L 250.045715 264.523876 
L 251.745477 264.351027 
L 258.544525 264.524295 
L 260.244287 264.549367 
L 261.944049 264.382314 
L 263.643811 264.356335 
L 265.343573 264.563195 
L 272.142621 264.290547 
L 273.842383 259.918274 
L 275.542145 262.411488 
L 277.241907 264.460882 
L 278.941669 264.534072 
L 280.641431 264.243337 
L 282.341193 260.710375 
L 284.040955 258.75652 
L 285.740718 263.224192 
L 287.44048 255.111398 
L 289.140242 260.033157 
L 290.840004 261.098255 
L 292.539766 263.883602 
L 294.239528 248.809572 
L 295.93929 264.189422 
L 297.639052 260.319493 
L 299.338814 262.835614 
L 301.038576 263.989266 
L 302.738338 263.543281 
L 304.4381 263.936469 
L 306.137862 264.043251 
L 307.837624 264.432877 
L 309.537386 264.15129 
L 311.237148 262.887713 
L 312.93691 264.320159 
L 314.636672 264.487351 
L 318.036196 264.479459 
L 319.735958 260.188965 
L 321.43572 259.179947 
L 323.135482 263.996669 
L 324.835244 264.062317 
L 326.535006 263.652089 
L 328.234768 264.522898 
L 331.634292 264.572832 
L 333.334054 264.284471 
L 335.033816 262.479091 
L 336.733578 263.731844 
L 338.43334 264.532047 
L 340.133102 263.906089 
L 343.532626 263.611862 
L 345.232388 262.954129 
L 346.93215 264.07831 
L 348.631912 264.002117 
L 350.331674 264.565918 
L 352.031436 263.96203 
L 353.731198 264.393768 
L 355.43096 261.594035 
L 357.130722 263.14765 
L 358.830484 264.43169 
L 360.530246 262.998266 
L 362.230008 262.064603 
L 363.92977 262.234798 
L 365.629532 263.882764 
L 367.329294 263.534202 
L 369.029056 259.64395 
L 370.728818 262.213008 
L 372.42858 262.264619 
L 374.128342 263.877456 
L 375.828104 263.55662 
L 377.527866 264.183486 
L 379.227629 248.658583 
L 380.927391 264.572623 
L 382.627153 263.75915 
L 384.326915 264.320647 
L 386.026677 263.362261 
L 387.726439 264.085294 
L 389.426201 264.414999 
L 391.125963 263.361144 
L 392.825725 263.855108 
L 394.525487 257.305427 
L 396.225249 247.988558 
L 397.925011 250.781167 
L 399.624773 263.163014 
L 399.624773 263.163014 
" style="fill:none;stroke:#e377c2;stroke-linecap:square;stroke-width:1.5;"/>
   </g>
   <g id="line2d_25">
    <path clip-path="url(#pd86592d9e4)" d="M 74.970227 264.561239 
L 76.669989 263.901201 
L 78.369751 264.321555 
L 80.069513 264.324139 
L 81.769275 263.588746 
L 83.469037 264.431829 
L 85.168799 264.262472 
L 86.868561 264.551462 
L 88.568323 264.325536 
L 90.268085 264.450686 
L 91.967847 264.313454 
L 93.667609 264.019087 
L 95.367371 264.269107 
L 97.067134 263.819909 
L 98.766896 263.999323 
L 100.466658 264.445448 
L 102.16642 264.493357 
L 103.866182 263.231455 
L 105.565944 264.221966 
L 107.265706 264.520174 
L 108.965468 264.271901 
L 110.66523 264.529672 
L 112.364992 226.63554 
L 114.064754 264.549856 
L 115.764516 264.363109 
L 117.464278 264.512143 
L 122.563564 264.529323 
L 124.263326 264.145843 
L 125.963088 264.5134 
L 127.66285 264.522898 
L 129.362612 264.343345 
L 131.062374 264.528555 
L 132.762136 263.779473 
L 136.16166 263.48364 
L 137.861422 263.693014 
L 139.561184 264.502505 
L 141.260946 264.553836 
L 142.960708 264.390276 
L 144.66047 264.343694 
L 146.360232 262.88904 
L 149.759756 264.036198 
L 151.459518 264.491471 
L 153.15928 264.332241 
L 154.859042 264.537215 
L 158.258566 264.522339 
L 159.958328 264.139907 
L 161.65809 264.522619 
L 165.057614 264.516543 
L 168.457138 264.561518 
L 170.1569 263.407237 
L 171.856662 263.494884 
L 173.556424 251.04704 
L 175.256186 264.555862 
L 176.955948 264.046394 
L 178.65571 264.470101 
L 180.355472 264.568502 
L 182.055234 264.097795 
L 183.754996 264.545805 
L 188.854282 264.550484 
L 190.554045 263.892471 
L 192.253807 264.513959 
L 193.953569 264.207091 
L 195.653331 264.546992 
L 200.752617 264.497547 
L 202.452379 264.338456 
L 204.152141 264.504042 
L 207.551665 264.494195 
L 209.251427 264.108061 
L 210.951189 264.50474 
L 212.650951 264.561588 
L 214.350713 264.255978 
L 216.050475 264.264707 
L 217.750237 263.632534 
L 221.149761 264.288871 
L 222.849523 258.995435 
L 224.549285 263.731914 
L 226.249047 264.327073 
L 227.948809 264.550973 
L 229.648571 264.273507 
L 231.348333 264.505718 
L 233.048095 264.534002 
L 234.747857 257.603914 
L 236.447619 260.450718 
L 238.147381 264.452781 
L 239.847143 264.444819 
L 241.546905 263.50962 
L 243.246667 264.117838 
L 244.946429 262.674148 
L 246.646191 264.372048 
L 248.345953 264.557119 
L 253.445239 264.433017 
L 256.844763 264.551252 
L 272.142621 264.523177 
L 273.842383 263.46199 
L 275.542145 264.370861 
L 278.941669 264.528974 
L 280.641431 264.386086 
L 282.341193 261.043921 
L 284.040955 260.928479 
L 285.740718 263.811389 
L 287.44048 255.532591 
L 289.140242 258.902132 
L 290.840004 263.971039 
L 292.539766 264.017411 
L 294.239528 246.865145 
L 295.93929 264.427499 
L 297.639052 263.701394 
L 299.338814 263.70782 
L 301.038576 264.353541 
L 302.738338 264.214773 
L 307.837624 264.532466 
L 309.537386 264.493217 
L 311.237148 263.873824 
L 312.93691 264.423239 
L 316.336434 264.538472 
L 318.036196 264.51787 
L 319.735958 262.800066 
L 321.43572 262.14778 
L 323.135482 264.478132 
L 324.835244 264.389857 
L 326.535006 264.0869 
L 328.234768 264.53498 
L 331.634292 264.572902 
L 333.334054 264.028376 
L 335.033816 264.147519 
L 336.733578 263.890935 
L 338.43334 264.545945 
L 340.133102 264.450197 
L 341.832864 264.158903 
L 343.532626 264.079567 
L 346.93215 264.232163 
L 348.631912 263.027389 
L 350.331674 264.568363 
L 352.031436 263.989965 
L 353.731198 264.487071 
L 357.130722 264.045696 
L 358.830484 264.459206 
L 360.530246 263.213646 
L 362.230008 263.522749 
L 363.92977 261.985546 
L 365.629532 264.330006 
L 367.329294 263.137802 
L 369.029056 261.051115 
L 370.728818 264.122378 
L 372.42858 263.050714 
L 374.128342 264.065739 
L 375.828104 264.421773 
L 377.527866 264.355147 
L 379.227629 252.074775 
L 380.927391 264.572832 
L 382.627153 264.309683 
L 386.026677 264.028096 
L 387.726439 264.454247 
L 389.426201 264.538681 
L 391.125963 263.917822 
L 392.825725 264.394885 
L 394.525487 263.220141 
L 396.225249 254.194566 
L 397.925011 238.63677 
L 399.624773 264.396701 
L 399.624773 264.396701 
" style="fill:none;stroke:#7f7f7f;stroke-linecap:square;stroke-width:1.5;"/>
   </g>
   <g id="line2d_26">
    <path clip-path="url(#pd86592d9e4)" d="M 74.970227 264.572972 
L 399.624773 264.572972 
L 399.624773 264.572972 
" style="fill:none;stroke:#bcbd22;stroke-linecap:square;stroke-width:1.5;"/>
   </g>
   <g id="line2d_27">
    <path clip-path="url(#pd86592d9e4)" d="M 74.970227 264.572972 
L 399.624773 264.572972 
L 399.624773 264.572972 
" style="fill:none;stroke:#17becf;stroke-linecap:square;stroke-width:1.5;"/>
   </g>
   <g id="line2d_28">
    <path clip-path="url(#pd86592d9e4)" d="M 74.970227 264.568921 
L 76.669989 264.556001 
L 78.369751 264.700426 
L 80.069513 264.430014 
L 83.469037 264.568782 
L 90.268085 264.644067 
L 91.967847 264.716 
L 93.667609 264.563404 
L 98.766896 264.608031 
L 119.16404 264.584775 
L 120.863802 264.44433 
L 124.263326 264.581771 
L 125.963088 264.479808 
L 127.66285 264.568921 
L 131.062374 264.568921 
L 134.461898 264.520803 
L 136.16166 264.716 
L 139.561184 264.49643 
L 144.66047 264.581073 
L 151.459518 264.632055 
L 153.15928 264.700147 
L 156.558804 264.564312 
L 166.757376 264.572274 
L 170.1569 264.652168 
L 171.856662 264.430014 
L 173.556424 264.573321 
L 195.653331 264.5824 
L 197.353093 264.667532 
L 199.052855 264.501248 
L 202.452379 264.549786 
L 209.251427 264.58261 
L 214.350713 264.430014 
L 216.050475 264.568991 
L 219.449999 264.53945 
L 221.149761 264.625769 
L 222.849523 264.529882 
L 226.249047 264.575416 
L 241.546905 264.567036 
L 243.246667 264.716 
L 244.946429 264.430014 
L 246.646191 264.590222 
L 258.544525 264.537145 
L 261.944049 264.553697 
L 263.643811 264.480995 
L 267.043335 264.621858 
L 268.743097 264.545386 
L 270.442859 264.617179 
L 275.542145 264.430014 
L 277.241907 264.631775 
L 280.641431 264.568991 
L 297.639052 264.716 
L 299.338814 264.542662 
L 304.4381 264.579118 
L 312.93691 264.612151 
L 316.336434 264.653705 
L 318.036196 264.5435 
L 319.735958 264.716 
L 323.135482 264.514029 
L 324.835244 264.687785 
L 326.535006 264.569061 
L 333.334054 264.568712 
L 335.033816 264.709645 
L 338.43334 264.568991 
L 341.832864 264.569061 
L 343.532626 264.556909 
L 345.232388 264.430014 
L 346.93215 264.569131 
L 352.031436 264.569061 
L 353.731198 264.716 
L 362.230008 264.569061 
L 370.728818 264.644975 
L 372.42858 264.430014 
L 374.128342 264.569061 
L 380.927391 264.568223 
L 382.627153 264.474361 
L 386.026677 264.570248 
L 389.426201 264.567804 
L 391.125963 264.684084 
L 392.825725 264.451035 
L 396.225249 264.579956 
L 397.925011 264.566128 
L 399.624773 264.430014 
L 399.624773 264.430014 
" style="fill:none;stroke:#1f77b4;stroke-linecap:square;stroke-width:1.5;"/>
   </g>
   <g id="line2d_29">
    <path clip-path="url(#pd86592d9e4)" d="M 74.970227 264.572972 
L 399.624773 264.572972 
L 399.624773 264.572972 
" style="fill:none;stroke:#ff7f0e;stroke-linecap:square;stroke-width:1.5;"/>
   </g>
   <g id="patch_3">
    <path d="M 58.7375 276.812 
L 58.7375 10.7 
" style="fill:none;stroke:#000000;stroke-linecap:square;stroke-linejoin:miter;stroke-width:0.8;"/>
   </g>
   <g id="patch_4">
    <path d="M 415.8575 276.812 
L 415.8575 10.7 
" style="fill:none;stroke:#000000;stroke-linecap:square;stroke-linejoin:miter;stroke-width:0.8;"/>
   </g>
   <g id="patch_5">
    <path d="M 58.7375 276.812 
L 415.8575 276.812 
" style="fill:none;stroke:#000000;stroke-linecap:square;stroke-linejoin:miter;stroke-width:0.8;"/>
   </g>
   <g id="patch_6">
    <path d="M 58.7375 10.7 
L 415.8575 10.7 
" style="fill:none;stroke:#000000;stroke-linecap:square;stroke-linejoin:miter;stroke-width:0.8;"/>
   </g>
   <g id="legend_1">
    <g id="patch_7">
     <path d="M 192.120937 165.48125 
L 282.474063 165.48125 
Q 284.474063 165.48125 284.474063 163.48125 
L 284.474063 17.7 
Q 284.474063 15.7 282.474063 15.7 
L 192.120937 15.7 
Q 190.120937 15.7 190.120937 17.7 
L 190.120937 163.48125 
Q 190.120937 165.48125 192.120937 165.48125 
z
" style="fill:#ffffff;opacity:0.8;stroke:#cccccc;stroke-linejoin:miter;"/>
    </g>
    <g id="line2d_30">
     <path d="M 194.120937 23.798437 
L 214.120937 23.798437 
" style="fill:none;stroke:#1f77b4;stroke-linecap:square;stroke-width:1.5;"/>
    </g>
    <g id="line2d_31"/>
    <g id="text_18">
     <!-- delta -->
     <defs>
      <path d="M 45.40625 46.390625 
L 45.40625 75.984375 
L 54.390625 75.984375 
L 54.390625 0 
L 45.40625 0 
L 45.40625 8.203125 
Q 42.578125 3.328125 38.25 0.953125 
Q 33.9375 -1.421875 27.875 -1.421875 
Q 17.96875 -1.421875 11.734375 6.484375 
Q 5.515625 14.40625 5.515625 27.296875 
Q 5.515625 40.1875 11.734375 48.09375 
Q 17.96875 56 27.875 56 
Q 33.9375 56 38.25 53.625 
Q 42.578125 51.265625 45.40625 46.390625 
M 14.796875 27.296875 
Q 14.796875 17.390625 18.875 11.75 
Q 22.953125 6.109375 30.078125 6.109375 
Q 37.203125 6.109375 41.296875 11.75 
Q 45.40625 17.390625 45.40625 27.296875 
Q 45.40625 37.203125 41.296875 42.84375 
Q 37.203125 48.484375 30.078125 48.484375 
Q 22.953125 48.484375 18.875 42.84375 
Q 14.796875 37.203125 14.796875 27.296875 
" id="DejaVuSans-64"/>
      <path d="M 56.203125 29.59375 
L 56.203125 25.203125 
L 14.890625 25.203125 
Q 15.484375 15.921875 20.484375 11.0625 
Q 25.484375 6.203125 34.421875 6.203125 
Q 39.59375 6.203125 44.453125 7.46875 
Q 49.3125 8.734375 54.109375 11.28125 
L 54.109375 2.78125 
Q 49.265625 0.734375 44.1875 -0.34375 
Q 39.109375 -1.421875 33.890625 -1.421875 
Q 20.796875 -1.421875 13.15625 6.1875 
Q 5.515625 13.8125 5.515625 26.8125 
Q 5.515625 40.234375 12.765625 48.109375 
Q 20.015625 56 32.328125 56 
Q 43.359375 56 49.78125 48.890625 
Q 56.203125 41.796875 56.203125 29.59375 
M 47.21875 32.234375 
Q 47.125 39.59375 43.09375 43.984375 
Q 39.0625 48.390625 32.421875 48.390625 
Q 24.90625 48.390625 20.390625 44.140625 
Q 15.875 39.890625 15.1875 32.171875 
z
" id="DejaVuSans-65"/>
      <path d="M 9.421875 75.984375 
L 18.40625 75.984375 
L 18.40625 0 
L 9.421875 0 
z
" id="DejaVuSans-6c"/>
      <path d="M 18.3125 70.21875 
L 18.3125 54.6875 
L 36.8125 54.6875 
L 36.8125 47.703125 
L 18.3125 47.703125 
L 18.3125 18.015625 
Q 18.3125 11.328125 20.140625 9.421875 
Q 21.96875 7.515625 27.59375 7.515625 
L 36.8125 7.515625 
L 36.8125 0 
L 27.59375 0 
Q 17.1875 0 13.234375 3.875 
Q 9.28125 7.765625 9.28125 18.015625 
L 9.28125 47.703125 
L 2.6875 47.703125 
L 2.6875 54.6875 
L 9.28125 54.6875 
L 9.28125 70.21875 
z
" id="DejaVuSans-74"/>
      <path d="M 34.28125 27.484375 
Q 23.390625 27.484375 19.1875 25 
Q 14.984375 22.515625 14.984375 16.5 
Q 14.984375 11.71875 18.140625 8.90625 
Q 21.296875 6.109375 26.703125 6.109375 
Q 34.1875 6.109375 38.703125 11.40625 
Q 43.21875 16.703125 43.21875 25.484375 
L 43.21875 27.484375 
z
M 52.203125 31.203125 
L 52.203125 0 
L 43.21875 0 
L 43.21875 8.296875 
Q 40.140625 3.328125 35.546875 0.953125 
Q 30.953125 -1.421875 24.3125 -1.421875 
Q 15.921875 -1.421875 10.953125 3.296875 
Q 6 8.015625 6 15.921875 
Q 6 25.140625 12.171875 29.828125 
Q 18.359375 34.515625 30.609375 34.515625 
L 43.21875 34.515625 
L 43.21875 35.40625 
Q 43.21875 41.609375 39.140625 45 
Q 35.0625 48.390625 27.6875 48.390625 
Q 23 48.390625 18.546875 47.265625 
Q 14.109375 46.140625 10.015625 43.890625 
L 10.015625 52.203125 
Q 14.9375 54.109375 19.578125 55.046875 
Q 24.21875 56 28.609375 56 
Q 40.484375 56 46.34375 49.84375 
Q 52.203125 43.703125 52.203125 31.203125 
" id="DejaVuSans-61"/>
     </defs>
     <g transform="translate(222.120937 27.298437)scale(0.1 -0.1)">
      <use xlink:href="#DejaVuSans-64"/>
      <use x="63.476562" xlink:href="#DejaVuSans-65"/>
      <use x="125" xlink:href="#DejaVuSans-6c"/>
      <use x="152.783203" xlink:href="#DejaVuSans-74"/>
      <use x="191.992188" xlink:href="#DejaVuSans-61"/>
     </g>
    </g>
    <g id="line2d_32">
     <path d="M 194.120937 38.476562 
L 214.120937 38.476562 
" style="fill:none;stroke:#ff7f0e;stroke-linecap:square;stroke-width:1.5;"/>
    </g>
    <g id="line2d_33"/>
    <g id="text_19">
     <!-- lowAlpha -->
     <defs>
      <path d="M 30.609375 48.390625 
Q 23.390625 48.390625 19.1875 42.75 
Q 14.984375 37.109375 14.984375 27.296875 
Q 14.984375 17.484375 19.15625 11.84375 
Q 23.34375 6.203125 30.609375 6.203125 
Q 37.796875 6.203125 41.984375 11.859375 
Q 46.1875 17.53125 46.1875 27.296875 
Q 46.1875 37.015625 41.984375 42.703125 
Q 37.796875 48.390625 30.609375 48.390625 
M 30.609375 56 
Q 42.328125 56 49.015625 48.375 
Q 55.71875 40.765625 55.71875 27.296875 
Q 55.71875 13.875 49.015625 6.21875 
Q 42.328125 -1.421875 30.609375 -1.421875 
Q 18.84375 -1.421875 12.171875 6.21875 
Q 5.515625 13.875 5.515625 27.296875 
Q 5.515625 40.765625 12.171875 48.375 
Q 18.84375 56 30.609375 56 
" id="DejaVuSans-6f"/>
      <path d="M 4.203125 54.6875 
L 13.1875 54.6875 
L 24.421875 12.015625 
L 35.59375 54.6875 
L 46.1875 54.6875 
L 57.421875 12.015625 
L 68.609375 54.6875 
L 77.59375 54.6875 
L 63.28125 0 
L 52.6875 0 
L 40.921875 44.828125 
L 29.109375 0 
L 18.5 0 
z
" id="DejaVuSans-77"/>
      <path d="M 34.1875 63.1875 
L 20.796875 26.90625 
L 47.609375 26.90625 
z
M 28.609375 72.90625 
L 39.796875 72.90625 
L 67.578125 0 
L 57.328125 0 
L 50.6875 18.703125 
L 17.828125 18.703125 
L 11.1875 0 
L 0.78125 0 
z
" id="DejaVuSans-41"/>
      <path d="M 18.109375 8.203125 
L 18.109375 -20.796875 
L 9.078125 -20.796875 
L 9.078125 54.6875 
L 18.109375 54.6875 
L 18.109375 46.390625 
Q 20.953125 51.265625 25.265625 53.625 
Q 29.59375 56 35.59375 56 
Q 45.5625 56 51.78125 48.09375 
Q 58.015625 40.1875 58.015625 27.296875 
Q 58.015625 14.40625 51.78125 6.484375 
Q 45.5625 -1.421875 35.59375 -1.421875 
Q 29.59375 -1.421875 25.265625 0.953125 
Q 20.953125 3.328125 18.109375 8.203125 
M 48.6875 27.296875 
Q 48.6875 37.203125 44.609375 42.84375 
Q 40.53125 48.484375 33.40625 48.484375 
Q 26.265625 48.484375 22.1875 42.84375 
Q 18.109375 37.203125 18.109375 27.296875 
Q 18.109375 17.390625 22.1875 11.75 
Q 26.265625 6.109375 33.40625 6.109375 
Q 40.53125 6.109375 44.609375 11.75 
Q 48.6875 17.390625 48.6875 27.296875 
" id="DejaVuSans-70"/>
      <path d="M 54.890625 33.015625 
L 54.890625 0 
L 45.90625 0 
L 45.90625 32.71875 
Q 45.90625 40.484375 42.875 44.328125 
Q 39.84375 48.1875 33.796875 48.1875 
Q 26.515625 48.1875 22.3125 43.546875 
Q 18.109375 38.921875 18.109375 30.90625 
L 18.109375 0 
L 9.078125 0 
L 9.078125 75.984375 
L 18.109375 75.984375 
L 18.109375 46.1875 
Q 21.34375 51.125 25.703125 53.5625 
Q 30.078125 56 35.796875 56 
Q 45.21875 56 50.046875 50.171875 
Q 54.890625 44.34375 54.890625 33.015625 
" id="DejaVuSans-68"/>
     </defs>
     <g transform="translate(222.120937 41.976562)scale(0.1 -0.1)">
      <use xlink:href="#DejaVuSans-6c"/>
      <use x="27.783203" xlink:href="#DejaVuSans-6f"/>
      <use x="88.964844" xlink:href="#DejaVuSans-77"/>
      <use x="170.751953" xlink:href="#DejaVuSans-41"/>
      <use x="239.160156" xlink:href="#DejaVuSans-6c"/>
      <use x="266.943359" xlink:href="#DejaVuSans-70"/>
      <use x="330.419922" xlink:href="#DejaVuSans-68"/>
      <use x="393.798828" xlink:href="#DejaVuSans-61"/>
     </g>
    </g>
    <g id="line2d_34">
     <path d="M 194.120937 53.154687 
L 214.120937 53.154687 
" style="fill:none;stroke:#2ca02c;stroke-linecap:square;stroke-width:1.5;"/>
    </g>
    <g id="line2d_35"/>
    <g id="text_20">
     <!-- highAlpha -->
     <defs>
      <path d="M 9.421875 54.6875 
L 18.40625 54.6875 
L 18.40625 0 
L 9.421875 0 
z
M 9.421875 75.984375 
L 18.40625 75.984375 
L 18.40625 64.59375 
L 9.421875 64.59375 
z
" id="DejaVuSans-69"/>
      <path d="M 45.40625 27.984375 
Q 45.40625 37.75 41.375 43.109375 
Q 37.359375 48.484375 30.078125 48.484375 
Q 22.859375 48.484375 18.828125 43.109375 
Q 14.796875 37.75 14.796875 27.984375 
Q 14.796875 18.265625 18.828125 12.890625 
Q 22.859375 7.515625 30.078125 7.515625 
Q 37.359375 7.515625 41.375 12.890625 
Q 45.40625 18.265625 45.40625 27.984375 
M 54.390625 6.78125 
Q 54.390625 -7.171875 48.1875 -13.984375 
Q 42 -20.796875 29.203125 -20.796875 
Q 24.46875 -20.796875 20.265625 -20.09375 
Q 16.0625 -19.390625 12.109375 -17.921875 
L 12.109375 -9.1875 
Q 16.0625 -11.328125 19.921875 -12.34375 
Q 23.78125 -13.375 27.78125 -13.375 
Q 36.625 -13.375 41.015625 -8.765625 
Q 45.40625 -4.15625 45.40625 5.171875 
L 45.40625 9.625 
Q 42.625 4.78125 38.28125 2.390625 
Q 33.9375 0 27.875 0 
Q 17.828125 0 11.671875 7.65625 
Q 5.515625 15.328125 5.515625 27.984375 
Q 5.515625 40.671875 11.671875 48.328125 
Q 17.828125 56 27.875 56 
Q 33.9375 56 38.28125 53.609375 
Q 42.625 51.21875 45.40625 46.390625 
L 45.40625 54.6875 
L 54.390625 54.6875 
z
" id="DejaVuSans-67"/>
     </defs>
     <g transform="translate(222.120937 56.654687)scale(0.1 -0.1)">
      <use xlink:href="#DejaVuSans-68"/>
      <use x="63.378906" xlink:href="#DejaVuSans-69"/>
      <use x="91.162109" xlink:href="#DejaVuSans-67"/>
      <use x="154.638672" xlink:href="#DejaVuSans-68"/>
      <use x="218.017578" xlink:href="#DejaVuSans-41"/>
      <use x="286.425781" xlink:href="#DejaVuSans-6c"/>
      <use x="314.208984" xlink:href="#DejaVuSans-70"/>
      <use x="377.685547" xlink:href="#DejaVuSans-68"/>
      <use x="441.064453" xlink:href="#DejaVuSans-61"/>
     </g>
    </g>
    <g id="line2d_36">
     <path d="M 194.120937 67.832812 
L 214.120937 67.832812 
" style="fill:none;stroke:#d62728;stroke-linecap:square;stroke-width:1.5;"/>
    </g>
    <g id="line2d_37"/>
    <g id="text_21">
     <!-- lowBeta -->
     <defs>
      <path d="M 19.671875 34.8125 
L 19.671875 8.109375 
L 35.5 8.109375 
Q 43.453125 8.109375 47.28125 11.40625 
Q 51.125 14.703125 51.125 21.484375 
Q 51.125 28.328125 47.28125 31.5625 
Q 43.453125 34.8125 35.5 34.8125 
z
M 19.671875 64.796875 
L 19.671875 42.828125 
L 34.28125 42.828125 
Q 41.5 42.828125 45.03125 45.53125 
Q 48.578125 48.25 48.578125 53.8125 
Q 48.578125 59.328125 45.03125 62.0625 
Q 41.5 64.796875 34.28125 64.796875 
z
M 9.8125 72.90625 
L 35.015625 72.90625 
Q 46.296875 72.90625 52.390625 68.21875 
Q 58.5 63.53125 58.5 54.890625 
Q 58.5 48.1875 55.375 44.234375 
Q 52.25 40.28125 46.1875 39.3125 
Q 53.46875 37.75 57.5 32.78125 
Q 61.53125 27.828125 61.53125 20.40625 
Q 61.53125 10.640625 54.890625 5.3125 
Q 48.25 0 35.984375 0 
L 9.8125 0 
z
" id="DejaVuSans-42"/>
     </defs>
     <g transform="translate(222.120937 71.332812)scale(0.1 -0.1)">
      <use xlink:href="#DejaVuSans-6c"/>
      <use x="27.783203" xlink:href="#DejaVuSans-6f"/>
      <use x="88.964844" xlink:href="#DejaVuSans-77"/>
      <use x="170.751953" xlink:href="#DejaVuSans-42"/>
      <use x="239.355469" xlink:href="#DejaVuSans-65"/>
      <use x="300.878906" xlink:href="#DejaVuSans-74"/>
      <use x="340.087891" xlink:href="#DejaVuSans-61"/>
     </g>
    </g>
    <g id="line2d_38">
     <path d="M 194.120937 82.510938 
L 214.120937 82.510938 
" style="fill:none;stroke:#9467bd;stroke-linecap:square;stroke-width:1.5;"/>
    </g>
    <g id="line2d_39"/>
    <g id="text_22">
     <!-- highBeta -->
     <g transform="translate(222.120937 86.010938)scale(0.1 -0.1)">
      <use xlink:href="#DejaVuSans-68"/>
      <use x="63.378906" xlink:href="#DejaVuSans-69"/>
      <use x="91.162109" xlink:href="#DejaVuSans-67"/>
      <use x="154.638672" xlink:href="#DejaVuSans-68"/>
      <use x="218.017578" xlink:href="#DejaVuSans-42"/>
      <use x="286.621094" xlink:href="#DejaVuSans-65"/>
      <use x="348.144531" xlink:href="#DejaVuSans-74"/>
      <use x="387.353516" xlink:href="#DejaVuSans-61"/>
     </g>
    </g>
    <g id="line2d_40">
     <path d="M 194.120937 97.189062 
L 214.120937 97.189062 
" style="fill:none;stroke:#8c564b;stroke-linecap:square;stroke-width:1.5;"/>
    </g>
    <g id="line2d_41"/>
    <g id="text_23">
     <!-- lowGamma -->
     <defs>
      <path d="M 59.515625 10.40625 
L 59.515625 29.984375 
L 43.40625 29.984375 
L 43.40625 38.09375 
L 69.28125 38.09375 
L 69.28125 6.78125 
Q 63.578125 2.734375 56.6875 0.65625 
Q 49.8125 -1.421875 42 -1.421875 
Q 24.90625 -1.421875 15.25 8.5625 
Q 5.609375 18.5625 5.609375 36.375 
Q 5.609375 54.25 15.25 64.234375 
Q 24.90625 74.21875 42 74.21875 
Q 49.125 74.21875 55.546875 72.453125 
Q 61.96875 70.703125 67.390625 67.28125 
L 67.390625 56.78125 
Q 61.921875 61.421875 55.765625 63.765625 
Q 49.609375 66.109375 42.828125 66.109375 
Q 29.4375 66.109375 22.71875 58.640625 
Q 16.015625 51.171875 16.015625 36.375 
Q 16.015625 21.625 22.71875 14.15625 
Q 29.4375 6.6875 42.828125 6.6875 
Q 48.046875 6.6875 52.140625 7.59375 
Q 56.25 8.5 59.515625 10.40625 
" id="DejaVuSans-47"/>
      <path d="M 52 44.1875 
Q 55.375 50.25 60.0625 53.125 
Q 64.75 56 71.09375 56 
Q 79.640625 56 84.28125 50.015625 
Q 88.921875 44.046875 88.921875 33.015625 
L 88.921875 0 
L 79.890625 0 
L 79.890625 32.71875 
Q 79.890625 40.578125 77.09375 44.375 
Q 74.3125 48.1875 68.609375 48.1875 
Q 61.625 48.1875 57.5625 43.546875 
Q 53.515625 38.921875 53.515625 30.90625 
L 53.515625 0 
L 44.484375 0 
L 44.484375 32.71875 
Q 44.484375 40.625 41.703125 44.40625 
Q 38.921875 48.1875 33.109375 48.1875 
Q 26.21875 48.1875 22.15625 43.53125 
Q 18.109375 38.875 18.109375 30.90625 
L 18.109375 0 
L 9.078125 0 
L 9.078125 54.6875 
L 18.109375 54.6875 
L 18.109375 46.1875 
Q 21.1875 51.21875 25.484375 53.609375 
Q 29.78125 56 35.6875 56 
Q 41.65625 56 45.828125 52.96875 
Q 50 49.953125 52 44.1875 
" id="DejaVuSans-6d"/>
     </defs>
     <g transform="translate(222.120937 100.689062)scale(0.1 -0.1)">
      <use xlink:href="#DejaVuSans-6c"/>
      <use x="27.783203" xlink:href="#DejaVuSans-6f"/>
      <use x="88.964844" xlink:href="#DejaVuSans-77"/>
      <use x="170.751953" xlink:href="#DejaVuSans-47"/>
      <use x="248.242188" xlink:href="#DejaVuSans-61"/>
      <use x="309.521484" xlink:href="#DejaVuSans-6d"/>
      <use x="406.933594" xlink:href="#DejaVuSans-6d"/>
      <use x="504.345703" xlink:href="#DejaVuSans-61"/>
     </g>
    </g>
    <g id="line2d_42">
     <path d="M 194.120937 111.867188 
L 214.120937 111.867188 
" style="fill:none;stroke:#e377c2;stroke-linecap:square;stroke-width:1.5;"/>
    </g>
    <g id="line2d_43"/>
    <g id="text_24">
     <!-- midGamma -->
     <g transform="translate(222.120937 115.367188)scale(0.1 -0.1)">
      <use xlink:href="#DejaVuSans-6d"/>
      <use x="97.412109" xlink:href="#DejaVuSans-69"/>
      <use x="125.195312" xlink:href="#DejaVuSans-64"/>
      <use x="188.671875" xlink:href="#DejaVuSans-47"/>
      <use x="266.162109" xlink:href="#DejaVuSans-61"/>
      <use x="327.441406" xlink:href="#DejaVuSans-6d"/>
      <use x="424.853516" xlink:href="#DejaVuSans-6d"/>
      <use x="522.265625" xlink:href="#DejaVuSans-61"/>
     </g>
    </g>
    <g id="line2d_44">
     <path d="M 194.120937 126.545312 
L 214.120937 126.545312 
" style="fill:none;stroke:#7f7f7f;stroke-linecap:square;stroke-width:1.5;"/>
    </g>
    <g id="line2d_45"/>
    <g id="text_25">
     <!-- attention -->
     <defs>
      <path d="M 54.890625 33.015625 
L 54.890625 0 
L 45.90625 0 
L 45.90625 32.71875 
Q 45.90625 40.484375 42.875 44.328125 
Q 39.84375 48.1875 33.796875 48.1875 
Q 26.515625 48.1875 22.3125 43.546875 
Q 18.109375 38.921875 18.109375 30.90625 
L 18.109375 0 
L 9.078125 0 
L 9.078125 54.6875 
L 18.109375 54.6875 
L 18.109375 46.1875 
Q 21.34375 51.125 25.703125 53.5625 
Q 30.078125 56 35.796875 56 
Q 45.21875 56 50.046875 50.171875 
Q 54.890625 44.34375 54.890625 33.015625 
" id="DejaVuSans-6e"/>
     </defs>
     <g transform="translate(222.120937 130.045312)scale(0.1 -0.1)">
      <use xlink:href="#DejaVuSans-61"/>
      <use x="61.279297" xlink:href="#DejaVuSans-74"/>
      <use x="100.488281" xlink:href="#DejaVuSans-74"/>
      <use x="139.697266" xlink:href="#DejaVuSans-65"/>
      <use x="201.220703" xlink:href="#DejaVuSans-6e"/>
      <use x="264.599609" xlink:href="#DejaVuSans-74"/>
      <use x="303.808594" xlink:href="#DejaVuSans-69"/>
      <use x="331.591797" xlink:href="#DejaVuSans-6f"/>
      <use x="392.773438" xlink:href="#DejaVuSans-6e"/>
     </g>
    </g>
    <g id="line2d_46">
     <path d="M 194.120937 141.223437 
L 214.120937 141.223437 
" style="fill:none;stroke:#bcbd22;stroke-linecap:square;stroke-width:1.5;"/>
    </g>
    <g id="line2d_47"/>
    <g id="text_26">
     <!-- meditation -->
     <g transform="translate(222.120937 144.723437)scale(0.1 -0.1)">
      <use xlink:href="#DejaVuSans-6d"/>
      <use x="97.412109" xlink:href="#DejaVuSans-65"/>
      <use x="158.935547" xlink:href="#DejaVuSans-64"/>
      <use x="222.412109" xlink:href="#DejaVuSans-69"/>
      <use x="250.195312" xlink:href="#DejaVuSans-74"/>
      <use x="289.404297" xlink:href="#DejaVuSans-61"/>
      <use x="350.683594" xlink:href="#DejaVuSans-74"/>
      <use x="389.892578" xlink:href="#DejaVuSans-69"/>
      <use x="417.675781" xlink:href="#DejaVuSans-6f"/>
      <use x="478.857422" xlink:href="#DejaVuSans-6e"/>
     </g>
    </g>
    <g id="line2d_48">
     <path d="M 194.120937 155.901562 
L 214.120937 155.901562 
" style="fill:none;stroke:#17becf;stroke-linecap:square;stroke-width:1.5;"/>
    </g>
    <g id="line2d_49"/>
    <g id="text_27">
     <!-- rawValue -->
     <defs>
      <path d="M 41.109375 46.296875 
Q 39.59375 47.171875 37.8125 47.578125 
Q 36.03125 48 33.890625 48 
Q 26.265625 48 22.1875 43.046875 
Q 18.109375 38.09375 18.109375 28.8125 
L 18.109375 0 
L 9.078125 0 
L 9.078125 54.6875 
L 18.109375 54.6875 
L 18.109375 46.1875 
Q 20.953125 51.171875 25.484375 53.578125 
Q 30.03125 56 36.53125 56 
Q 37.453125 56 38.578125 55.875 
Q 39.703125 55.765625 41.0625 55.515625 
z
" id="DejaVuSans-72"/>
      <path d="M 28.609375 0 
L 0.78125 72.90625 
L 11.078125 72.90625 
L 34.1875 11.53125 
L 57.328125 72.90625 
L 67.578125 72.90625 
L 39.796875 0 
z
" id="DejaVuSans-56"/>
      <path d="M 8.5 21.578125 
L 8.5 54.6875 
L 17.484375 54.6875 
L 17.484375 21.921875 
Q 17.484375 14.15625 20.5 10.265625 
Q 23.53125 6.390625 29.59375 6.390625 
Q 36.859375 6.390625 41.078125 11.03125 
Q 45.3125 15.671875 45.3125 23.6875 
L 45.3125 54.6875 
L 54.296875 54.6875 
L 54.296875 0 
L 45.3125 0 
L 45.3125 8.40625 
Q 42.046875 3.421875 37.71875 1 
Q 33.40625 -1.421875 27.6875 -1.421875 
Q 18.265625 -1.421875 13.375 4.4375 
Q 8.5 10.296875 8.5 21.578125 
M 31.109375 56 
z
" id="DejaVuSans-75"/>
     </defs>
     <g transform="translate(222.120937 159.401562)scale(0.1 -0.1)">
      <use xlink:href="#DejaVuSans-72"/>
      <use x="41.113281" xlink:href="#DejaVuSans-61"/>
      <use x="102.392578" xlink:href="#DejaVuSans-77"/>
      <use x="184.179688" xlink:href="#DejaVuSans-56"/>
      <use x="252.478516" xlink:href="#DejaVuSans-61"/>
      <use x="313.757812" xlink:href="#DejaVuSans-6c"/>
      <use x="341.541016" xlink:href="#DejaVuSans-75"/>
      <use x="404.919922" xlink:href="#DejaVuSans-65"/>
     </g>
    </g>
   </g>
  </g>
 </g>
 <defs>
  <clipPath id="pd86592d9e4">
   <rect height="266.112" width="357.12" x="58.7375" y="10.7"/>
  </clipPath>
 </defs>
</svg>
