<?xml version="1.0" encoding="utf-8" standalone="no"?>
<!DOCTYPE svg PUBLIC "-//W3C//DTD SVG 1.1//EN"
  "http://www.w3.org/Graphics/SVG/1.1/DTD/svg11.dtd">
<!-- Created with matplotlib (http://matplotlib.org/) -->
<svg height="300pt" version="1.1" viewBox="0 0 431 300" width="431pt" xmlns="http://www.w3.org/2000/svg" xmlns:xlink="http://www.w3.org/1999/xlink">
 <defs>
  <style type="text/css">
*{stroke-linecap:butt;stroke-linejoin:round;}
  </style>
 </defs>
 <g id="figure_1">
  <g id="patch_1">
   <path d="M 0 300.690125 
L 431.666381 300.690125 
L 431.666381 0 
L 0 0 
z
" style="fill:#ffffff;"/>
  </g>
  <g id="axes_1">
   <g id="patch_2">
    <path d="M 58.7375 276.812 
L 415.8575 276.812 
L 415.8575 10.7 
L 58.7375 10.7 
z
" style="fill:#ffffff;"/>
   </g>
   <g id="matplotlib.axis_1">
    <g id="xtick_1">
     <g id="line2d_1">
      <defs>
       <path d="M 0 0 
L 0 3.5 
" id="m7bcd8122c5" style="stroke:#000000;stroke-width:0.8;"/>
      </defs>
      <g>
       <use style="stroke:#000000;stroke-width:0.8;" x="74.970227" xlink:href="#m7bcd8122c5" y="276.812"/>
      </g>
     </g>
     <g id="text_1">
      <!-- 0 -->
      <defs>
       <path d="M 31.78125 66.40625 
Q 24.171875 66.40625 20.328125 58.90625 
Q 16.5 51.421875 16.5 36.375 
Q 16.5 21.390625 20.328125 13.890625 
Q 24.171875 6.390625 31.78125 6.390625 
Q 39.453125 6.390625 43.28125 13.890625 
Q 47.125 21.390625 47.125 36.375 
Q 47.125 51.421875 43.28125 58.90625 
Q 39.453125 66.40625 31.78125 66.40625 
M 31.78125 74.21875 
Q 44.046875 74.21875 50.515625 64.515625 
Q 56.984375 54.828125 56.984375 36.375 
Q 56.984375 17.96875 50.515625 8.265625 
Q 44.046875 -1.421875 31.78125 -1.421875 
Q 19.53125 -1.421875 13.0625 8.265625 
Q 6.59375 17.96875 6.59375 36.375 
Q 6.59375 54.828125 13.0625 64.515625 
Q 19.53125 74.21875 31.78125 74.21875 
" id="DejaVuSans-30"/>
      </defs>
      <g transform="translate(71.788977 291.410437)scale(0.1 -0.1)">
       <use xlink:href="#DejaVuSans-30"/>
      </g>
     </g>
    </g>
    <g id="xtick_2">
     <g id="line2d_2">
      <g>
       <use style="stroke:#000000;stroke-width:0.8;" x="117.464278" xlink:href="#m7bcd8122c5" y="276.812"/>
      </g>
     </g>
     <g id="text_2">
      <!-- 25 -->
      <defs>
       <path d="M 19.1875 8.296875 
L 53.609375 8.296875 
L 53.609375 0 
L 7.328125 0 
L 7.328125 8.296875 
Q 12.9375 14.109375 22.625 23.890625 
Q 32.328125 33.6875 34.8125 36.53125 
Q 39.546875 41.84375 41.421875 45.53125 
Q 43.3125 49.21875 43.3125 52.78125 
Q 43.3125 58.59375 39.234375 62.25 
Q 35.15625 65.921875 28.609375 65.921875 
Q 23.96875 65.921875 18.8125 64.3125 
Q 13.671875 62.703125 7.8125 59.421875 
L 7.8125 69.390625 
Q 13.765625 71.78125 18.9375 73 
Q 24.125 74.21875 28.421875 74.21875 
Q 39.75 74.21875 46.484375 68.546875 
Q 53.21875 62.890625 53.21875 53.421875 
Q 53.21875 48.921875 51.53125 44.890625 
Q 49.859375 40.875 45.40625 35.40625 
Q 44.1875 33.984375 37.640625 27.21875 
Q 31.109375 20.453125 19.1875 8.296875 
" id="DejaVuSans-32"/>
       <path d="M 10.796875 72.90625 
L 49.515625 72.90625 
L 49.515625 64.59375 
L 19.828125 64.59375 
L 19.828125 46.734375 
Q 21.96875 47.46875 24.109375 47.828125 
Q 26.265625 48.1875 28.421875 48.1875 
Q 40.625 48.1875 47.75 41.5 
Q 54.890625 34.8125 54.890625 23.390625 
Q 54.890625 11.625 47.5625 5.09375 
Q 40.234375 -1.421875 26.90625 -1.421875 
Q 22.3125 -1.421875 17.546875 -0.640625 
Q 12.796875 0.140625 7.71875 1.703125 
L 7.71875 11.625 
Q 12.109375 9.234375 16.796875 8.0625 
Q 21.484375 6.890625 26.703125 6.890625 
Q 35.15625 6.890625 40.078125 11.328125 
Q 45.015625 15.765625 45.015625 23.390625 
Q 45.015625 31 40.078125 35.4375 
Q 35.15625 39.890625 26.703125 39.890625 
Q 22.75 39.890625 18.8125 39.015625 
Q 14.890625 38.140625 10.796875 36.28125 
z
" id="DejaVuSans-35"/>
      </defs>
      <g transform="translate(111.101778 291.410437)scale(0.1 -0.1)">
       <use xlink:href="#DejaVuSans-32"/>
       <use x="63.623047" xlink:href="#DejaVuSans-35"/>
      </g>
     </g>
    </g>
    <g id="xtick_3">
     <g id="line2d_3">
      <g>
       <use style="stroke:#000000;stroke-width:0.8;" x="159.958328" xlink:href="#m7bcd8122c5" y="276.812"/>
      </g>
     </g>
     <g id="text_3">
      <!-- 50 -->
      <g transform="translate(153.595828 291.410437)scale(0.1 -0.1)">
       <use xlink:href="#DejaVuSans-35"/>
       <use x="63.623047" xlink:href="#DejaVuSans-30"/>
      </g>
     </g>
    </g>
    <g id="xtick_4">
     <g id="line2d_4">
      <g>
       <use style="stroke:#000000;stroke-width:0.8;" x="202.452379" xlink:href="#m7bcd8122c5" y="276.812"/>
      </g>
     </g>
     <g id="text_4">
      <!-- 75 -->
      <defs>
       <path d="M 8.203125 72.90625 
L 55.078125 72.90625 
L 55.078125 68.703125 
L 28.609375 0 
L 18.3125 0 
L 43.21875 64.59375 
L 8.203125 64.59375 
z
" id="DejaVuSans-37"/>
      </defs>
      <g transform="translate(196.089879 291.410437)scale(0.1 -0.1)">
       <use xlink:href="#DejaVuSans-37"/>
       <use x="63.623047" xlink:href="#DejaVuSans-35"/>
      </g>
     </g>
    </g>
    <g id="xtick_5">
     <g id="line2d_5">
      <g>
       <use style="stroke:#000000;stroke-width:0.8;" x="244.946429" xlink:href="#m7bcd8122c5" y="276.812"/>
      </g>
     </g>
     <g id="text_5">
      <!-- 100 -->
      <defs>
       <path d="M 12.40625 8.296875 
L 28.515625 8.296875 
L 28.515625 63.921875 
L 10.984375 60.40625 
L 10.984375 69.390625 
L 28.421875 72.90625 
L 38.28125 72.90625 
L 38.28125 8.296875 
L 54.390625 8.296875 
L 54.390625 0 
L 12.40625 0 
z
" id="DejaVuSans-31"/>
      </defs>
      <g transform="translate(235.402679 291.410437)scale(0.1 -0.1)">
       <use xlink:href="#DejaVuSans-31"/>
       <use x="63.623047" xlink:href="#DejaVuSans-30"/>
       <use x="127.246094" xlink:href="#DejaVuSans-30"/>
      </g>
     </g>
    </g>
    <g id="xtick_6">
     <g id="line2d_6">
      <g>
       <use style="stroke:#000000;stroke-width:0.8;" x="287.44048" xlink:href="#m7bcd8122c5" y="276.812"/>
      </g>
     </g>
     <g id="text_6">
      <!-- 125 -->
      <g transform="translate(277.89673 291.410437)scale(0.1 -0.1)">
       <use xlink:href="#DejaVuSans-31"/>
       <use x="63.623047" xlink:href="#DejaVuSans-32"/>
       <use x="127.246094" xlink:href="#DejaVuSans-35"/>
      </g>
     </g>
    </g>
    <g id="xtick_7">
     <g id="line2d_7">
      <g>
       <use style="stroke:#000000;stroke-width:0.8;" x="329.93453" xlink:href="#m7bcd8122c5" y="276.812"/>
      </g>
     </g>
     <g id="text_7">
      <!-- 150 -->
      <g transform="translate(320.39078 291.410437)scale(0.1 -0.1)">
       <use xlink:href="#DejaVuSans-31"/>
       <use x="63.623047" xlink:href="#DejaVuSans-35"/>
       <use x="127.246094" xlink:href="#DejaVuSans-30"/>
      </g>
     </g>
    </g>
    <g id="xtick_8">
     <g id="line2d_8">
      <g>
       <use style="stroke:#000000;stroke-width:0.8;" x="372.42858" xlink:href="#m7bcd8122c5" y="276.812"/>
      </g>
     </g>
     <g id="text_8">
      <!-- 175 -->
      <g transform="translate(362.88483 291.410437)scale(0.1 -0.1)">
       <use xlink:href="#DejaVuSans-31"/>
       <use x="63.623047" xlink:href="#DejaVuSans-37"/>
       <use x="127.246094" xlink:href="#DejaVuSans-35"/>
      </g>
     </g>
    </g>
    <g id="xtick_9">
     <g id="line2d_9">
      <g>
       <use style="stroke:#000000;stroke-width:0.8;" x="414.922631" xlink:href="#m7bcd8122c5" y="276.812"/>
      </g>
     </g>
     <g id="text_9">
      <!-- 200 -->
      <g transform="translate(405.378881 291.410437)scale(0.1 -0.1)">
       <use xlink:href="#DejaVuSans-32"/>
       <use x="63.623047" xlink:href="#DejaVuSans-30"/>
       <use x="127.246094" xlink:href="#DejaVuSans-30"/>
      </g>
     </g>
    </g>
   </g>
   <g id="matplotlib.axis_2">
    <g id="ytick_1">
     <g id="line2d_10">
      <defs>
       <path d="M 0 0 
L -3.5 0 
" id="mb3923909c9" style="stroke:#000000;stroke-width:0.8;"/>
      </defs>
      <g>
       <use style="stroke:#000000;stroke-width:0.8;" x="58.7375" xlink:href="#mb3923909c9" y="264.599137"/>
      </g>
     </g>
     <g id="text_10">
      <!-- 0 -->
      <g transform="translate(45.375 268.398355)scale(0.1 -0.1)">
       <use xlink:href="#DejaVuSans-30"/>
      </g>
     </g>
    </g>
    <g id="ytick_2">
     <g id="line2d_11">
      <g>
       <use style="stroke:#000000;stroke-width:0.8;" x="58.7375" xlink:href="#mb3923909c9" y="222.010482"/>
      </g>
     </g>
     <g id="text_11">
      <!-- 500000 -->
      <g transform="translate(13.5625 225.8097)scale(0.1 -0.1)">
       <use xlink:href="#DejaVuSans-35"/>
       <use x="63.623047" xlink:href="#DejaVuSans-30"/>
       <use x="127.246094" xlink:href="#DejaVuSans-30"/>
       <use x="190.869141" xlink:href="#DejaVuSans-30"/>
       <use x="254.492188" xlink:href="#DejaVuSans-30"/>
       <use x="318.115234" xlink:href="#DejaVuSans-30"/>
      </g>
     </g>
    </g>
    <g id="ytick_3">
     <g id="line2d_12">
      <g>
       <use style="stroke:#000000;stroke-width:0.8;" x="58.7375" xlink:href="#mb3923909c9" y="179.421827"/>
      </g>
     </g>
     <g id="text_12">
      <!-- 1000000 -->
      <g transform="translate(7.2 183.221045)scale(0.1 -0.1)">
       <use xlink:href="#DejaVuSans-31"/>
       <use x="63.623047" xlink:href="#DejaVuSans-30"/>
       <use x="127.246094" xlink:href="#DejaVuSans-30"/>
       <use x="190.869141" xlink:href="#DejaVuSans-30"/>
       <use x="254.492188" xlink:href="#DejaVuSans-30"/>
       <use x="318.115234" xlink:href="#DejaVuSans-30"/>
       <use x="381.738281" xlink:href="#DejaVuSans-30"/>
      </g>
     </g>
    </g>
    <g id="ytick_4">
     <g id="line2d_13">
      <g>
       <use style="stroke:#000000;stroke-width:0.8;" x="58.7375" xlink:href="#mb3923909c9" y="136.833172"/>
      </g>
     </g>
     <g id="text_13">
      <!-- 1500000 -->
      <g transform="translate(7.2 140.63239)scale(0.1 -0.1)">
       <use xlink:href="#DejaVuSans-31"/>
       <use x="63.623047" xlink:href="#DejaVuSans-35"/>
       <use x="127.246094" xlink:href="#DejaVuSans-30"/>
       <use x="190.869141" xlink:href="#DejaVuSans-30"/>
       <use x="254.492188" xlink:href="#DejaVuSans-30"/>
       <use x="318.115234" xlink:href="#DejaVuSans-30"/>
       <use x="381.738281" xlink:href="#DejaVuSans-30"/>
      </g>
     </g>
    </g>
    <g id="ytick_5">
     <g id="line2d_14">
      <g>
       <use style="stroke:#000000;stroke-width:0.8;" x="58.7375" xlink:href="#mb3923909c9" y="94.244516"/>
      </g>
     </g>
     <g id="text_14">
      <!-- 2000000 -->
      <g transform="translate(7.2 98.043735)scale(0.1 -0.1)">
       <use xlink:href="#DejaVuSans-32"/>
       <use x="63.623047" xlink:href="#DejaVuSans-30"/>
       <use x="127.246094" xlink:href="#DejaVuSans-30"/>
       <use x="190.869141" xlink:href="#DejaVuSans-30"/>
       <use x="254.492188" xlink:href="#DejaVuSans-30"/>
       <use x="318.115234" xlink:href="#DejaVuSans-30"/>
       <use x="381.738281" xlink:href="#DejaVuSans-30"/>
      </g>
     </g>
    </g>
    <g id="ytick_6">
     <g id="line2d_15">
      <g>
       <use style="stroke:#000000;stroke-width:0.8;" x="58.7375" xlink:href="#mb3923909c9" y="51.655861"/>
      </g>
     </g>
     <g id="text_15">
      <!-- 2500000 -->
      <g transform="translate(7.2 55.45508)scale(0.1 -0.1)">
       <use xlink:href="#DejaVuSans-32"/>
       <use x="63.623047" xlink:href="#DejaVuSans-35"/>
       <use x="127.246094" xlink:href="#DejaVuSans-30"/>
       <use x="190.869141" xlink:href="#DejaVuSans-30"/>
       <use x="254.492188" xlink:href="#DejaVuSans-30"/>
       <use x="318.115234" xlink:href="#DejaVuSans-30"/>
       <use x="381.738281" xlink:href="#DejaVuSans-30"/>
      </g>
     </g>
    </g>
   </g>
   <g id="line2d_16">
    <path clip-path="url(#p3201b1d0b6)" d="M 74.970227 149.164631 
L 76.669989 233.003976 
L 78.369751 58.542447 
L 80.069513 158.864027 
L 81.769275 62.427043 
L 83.469037 205.794681 
L 85.168799 252.746373 
L 86.868561 109.544917 
L 88.568323 226.312021 
L 90.268085 127.121766 
L 91.967847 246.327582 
L 93.667609 182.04171 
L 95.367371 215.411114 
L 97.067134 189.260147 
L 98.766896 245.308265 
L 100.466658 205.419901 
L 102.16642 250.396246 
L 103.866182 36.649834 
L 105.565944 183.635889 
L 107.265706 259.13893 
L 108.965468 223.386606 
L 110.66523 227.482613 
L 112.364992 166.537481 
L 114.064754 182.727558 
L 115.764516 29.200312 
L 117.464278 252.737259 
L 119.16404 258.843961 
L 120.863802 104.109412 
L 122.563564 257.821408 
L 124.263326 128.825823 
L 125.963088 186.751164 
L 127.66285 184.180342 
L 129.362612 228.28609 
L 131.062374 60.898281 
L 132.762136 242.726029 
L 136.16166 164.50745 
L 137.861422 248.083001 
L 139.561184 75.770665 
L 141.260946 58.834009 
L 142.960708 242.008325 
L 144.66047 190.475968 
L 146.360232 174.836476 
L 148.059994 250.378103 
L 149.759756 216.244063 
L 151.459518 249.403675 
L 153.15928 233.609843 
L 154.859042 227.881413 
L 156.558804 56.110464 
L 158.258566 250.756802 
L 159.958328 224.08012 
L 161.65809 72.403436 
L 163.357852 168.908562 
L 165.057614 233.744763 
L 166.757376 178.627804 
L 168.457138 116.599216 
L 170.1569 156.161011 
L 171.856662 138.493959 
L 173.556424 174.560758 
L 175.256186 118.446371 
L 176.955948 240.564996 
L 178.65571 235.368413 
L 180.355472 198.075402 
L 182.055234 166.919586 
L 183.754996 241.289003 
L 185.454758 248.557268 
L 187.15452 149.650824 
L 188.854282 215.991683 
L 190.554045 252.146129 
L 192.253807 258.899923 
L 193.953569 258.47838 
L 195.653331 252.362138 
L 197.353093 115.61874 
L 199.052855 256.980793 
L 200.752617 253.616971 
L 202.452379 163.099043 
L 204.152141 239.894225 
L 205.851903 254.026248 
L 207.551665 261.398003 
L 209.251427 184.254191 
L 210.951189 212.280678 
L 212.650951 229.917491 
L 214.350713 182.061216 
L 216.050475 139.384658 
L 217.750237 24.860017 
L 219.449999 207.858272 
L 221.149761 223.237205 
L 222.849523 92.029481 
L 224.549285 255.142922 
L 226.249047 233.669211 
L 227.948809 144.835154 
L 229.648571 143.693182 
L 231.348333 253.535711 
L 233.048095 168.024932 
L 234.747857 214.356704 
L 236.447619 252.796798 
L 238.147381 190.610292 
L 239.847143 244.244911 
L 241.546905 260.240869 
L 243.246667 244.200449 
L 244.946429 259.434411 
L 246.646191 226.362446 
L 248.345953 251.890171 
L 250.045715 48.1555 
L 251.745477 245.293614 
L 253.445239 220.834439 
L 255.145001 247.958046 
L 256.844763 241.739676 
L 258.544525 98.276044 
L 260.244287 253.631877 
L 261.944049 96.534934 
L 263.643811 116.144199 
L 265.343573 263.495068 
L 267.043335 256.233958 
L 268.743097 217.13834 
L 270.442859 153.315918 
L 272.142621 169.401994 
L 273.842383 158.137465 
L 275.542145 189.041326 
L 277.241907 228.662063 
L 278.941669 117.805072 
L 280.641431 259.470866 
L 282.341193 131.637526 
L 284.040955 134.239182 
L 285.740718 170.335622 
L 287.44048 188.38248 
L 289.140242 208.706723 
L 290.840004 262.452583 
L 292.539766 234.839377 
L 294.239528 171.650164 
L 295.93929 62.352769 
L 297.639052 152.833048 
L 299.338814 237.388308 
L 301.038576 241.93107 
L 302.738338 244.891151 
L 304.4381 241.33321 
L 306.137862 215.754804 
L 307.837624 96.059389 
L 309.537386 57.526793 
L 311.237148 256.668277 
L 312.93691 218.449389 
L 314.636672 260.309607 
L 316.336434 237.568032 
L 318.036196 171.60502 
L 319.735958 188.212636 
L 321.43572 256.37629 
L 323.135482 203.019519 
L 324.835244 259.6333 
L 326.535006 209.816753 
L 328.234768 196.122627 
L 329.93453 251.570926 
L 331.634292 88.830561 
L 333.334054 186.687707 
L 335.033816 242.232257 
L 336.733578 250.577929 
L 338.43334 250.130663 
L 340.133102 224.383266 
L 341.832864 261.440336 
L 343.532626 183.234874 
L 345.232388 142.474039 
L 346.93215 68.064163 
L 348.631912 139.458932 
L 350.331674 261.709667 
L 352.031436 227.302122 
L 353.731198 238.643651 
L 355.43096 150.752251 
L 357.130722 176.885502 
L 358.830484 22.796 
L 360.530246 191.357382 
L 362.230008 226.989266 
L 363.92977 238.143916 
L 365.629532 101.321644 
L 367.329294 256.304826 
L 369.029056 145.677132 
L 370.728818 199.241735 
L 372.42858 192.146124 
L 374.128342 210.717844 
L 377.527866 256.742296 
L 379.227629 158.976972 
L 380.927391 237.767006 
L 382.627153 177.97969 
L 384.326915 185.04881 
L 386.026677 87.554861 
L 387.726439 193.925649 
L 389.426201 94.469725 
L 391.125963 138.49217 
L 392.825725 249.382295 
L 394.525487 174.40105 
L 396.225249 196.606008 
L 397.925011 158.872204 
L 399.624773 259.317547 
L 399.624773 259.317547 
" style="fill:none;stroke:#1f77b4;stroke-linecap:square;stroke-width:1.5;"/>
   </g>
   <g id="line2d_17">
    <path clip-path="url(#p3201b1d0b6)" d="M 74.970227 255.498963 
L 76.669989 260.572379 
L 78.369751 247.958216 
L 80.069513 242.062328 
L 81.769275 38.223996 
L 83.469037 251.186436 
L 85.168799 263.148823 
L 86.868561 231.241658 
L 88.568323 248.67328 
L 90.268085 233.455161 
L 91.967847 255.774767 
L 93.667609 263.016542 
L 95.367371 263.32531 
L 97.067134 262.182231 
L 98.766896 262.525154 
L 100.466658 260.679618 
L 102.16642 262.739801 
L 103.866182 101.106997 
L 105.565944 252.901396 
L 107.265706 263.686547 
L 108.965468 257.705226 
L 110.66523 264.035604 
L 112.364992 232.44121 
L 114.064754 246.066939 
L 115.764516 242.606355 
L 117.464278 263.174972 
L 119.16404 263.856476 
L 120.863802 231.404091 
L 122.563564 262.244836 
L 124.263326 167.090707 
L 125.963088 253.105651 
L 127.66285 259.988489 
L 129.362612 261.336675 
L 131.062374 191.868361 
L 132.762136 261.261805 
L 134.461898 220.129426 
L 136.16166 257.091694 
L 137.861422 260.386097 
L 139.561184 258.85793 
L 141.260946 260.17622 
L 142.960708 255.974253 
L 144.66047 261.250135 
L 146.360232 253.616885 
L 148.059994 261.32228 
L 149.759756 255.025888 
L 151.459518 255.57196 
L 153.15928 256.833351 
L 154.859042 249.899662 
L 156.558804 209.794096 
L 158.258566 262.194155 
L 159.958328 249.11765 
L 161.65809 226.804601 
L 163.357852 169.449608 
L 165.057614 226.211512 
L 166.757376 211.107019 
L 168.457138 255.364724 
L 170.1569 227.933201 
L 171.856662 256.872447 
L 173.556424 238.153967 
L 175.256186 258.346185 
L 176.955948 175.145585 
L 178.65571 256.826026 
L 180.355472 244.898051 
L 182.055234 252.788025 
L 183.754996 258.307259 
L 185.454758 262.280866 
L 187.15452 203.795314 
L 188.854282 258.032392 
L 190.554045 251.343503 
L 192.253807 255.769486 
L 193.953569 262.990137 
L 195.653331 260.854827 
L 199.052855 262.743293 
L 200.752617 263.996933 
L 202.452379 261.736668 
L 204.152141 258.613301 
L 205.851903 262.586227 
L 207.551665 263.595748 
L 209.251427 230.657597 
L 210.951189 258.549163 
L 212.650951 259.588581 
L 214.350713 235.238518 
L 216.050475 257.478825 
L 217.750237 252.421507 
L 219.449999 260.486521 
L 221.149761 238.295617 
L 222.849523 262.981449 
L 224.549285 257.694153 
L 226.249047 262.240407 
L 227.948809 262.108808 
L 229.648571 253.355817 
L 231.348333 261.945352 
L 233.048095 253.625574 
L 234.747857 247.326115 
L 236.447619 255.703815 
L 238.147381 261.20414 
L 239.847143 263.549241 
L 241.546905 262.989286 
L 243.246667 262.09782 
L 244.946429 264.156555 
L 246.646191 252.287012 
L 248.345953 264.01712 
L 250.045715 249.6989 
L 251.745477 258.566369 
L 253.445239 260.833448 
L 255.145001 263.351119 
L 256.844763 264.300335 
L 258.544525 257.548926 
L 260.244287 254.745314 
L 261.944049 253.78741 
L 263.643811 253.68639 
L 265.343573 264.076063 
L 267.043335 263.984838 
L 268.743097 257.275166 
L 270.442859 259.659534 
L 272.142621 258.557595 
L 273.842383 218.404926 
L 275.542145 258.890979 
L 277.241907 245.063806 
L 278.941669 257.097145 
L 280.641431 264.151274 
L 282.341193 258.896942 
L 284.040955 257.733249 
L 285.740718 240.460313 
L 287.44048 261.446043 
L 289.140242 261.547915 
L 290.840004 263.687825 
L 292.539766 258.865937 
L 294.239528 246.732344 
L 295.93929 248.115283 
L 297.639052 256.199547 
L 299.338814 252.449871 
L 301.038576 263.013135 
L 302.738338 261.99961 
L 304.4381 260.622634 
L 306.137862 256.881391 
L 307.837624 259.602806 
L 309.537386 255.743593 
L 311.237148 263.657502 
L 312.93691 251.134222 
L 314.636672 262.772424 
L 316.336434 262.324306 
L 318.036196 260.473403 
L 319.735958 259.395655 
L 321.43572 262.735968 
L 323.135482 229.051153 
L 324.835244 262.589719 
L 326.535006 252.271254 
L 328.234768 254.782792 
L 329.93453 258.87948 
L 331.634292 260.855338 
L 333.334054 263.783734 
L 335.033816 263.755115 
L 336.733578 259.915748 
L 338.43334 260.774931 
L 340.133102 257.617493 
L 341.832864 261.098605 
L 343.532626 239.580346 
L 345.232388 256.556951 
L 346.93215 256.44375 
L 348.631912 234.56451 
L 350.331674 263.799918 
L 352.031436 261.056016 
L 353.731198 250.978689 
L 355.43096 205.107385 
L 357.130722 258.085117 
L 358.830484 214.892895 
L 360.530246 252.185396 
L 362.230008 258.711681 
L 363.92977 255.536101 
L 365.629532 260.842306 
L 367.329294 247.76299 
L 369.029056 245.590968 
L 370.728818 258.61032 
L 372.42858 263.905282 
L 374.128342 259.682702 
L 375.828104 260.674166 
L 377.527866 264.280488 
L 379.227629 163.682763 
L 380.927391 263.188345 
L 382.627153 263.690124 
L 384.326915 260.816072 
L 386.026677 238.956763 
L 387.726439 242.886503 
L 389.426201 245.42368 
L 391.125963 263.277015 
L 392.825725 241.778687 
L 394.525487 247.194601 
L 396.225249 262.1939 
L 397.925011 248.932474 
L 399.624773 263.499327 
L 399.624773 263.499327 
" style="fill:none;stroke:#ff7f0e;stroke-linecap:square;stroke-width:1.5;"/>
   </g>
   <g id="line2d_18">
    <path clip-path="url(#p3201b1d0b6)" d="M 74.970227 262.880429 
L 76.669989 264.328188 
L 78.369751 259.492161 
L 80.069513 261.510693 
L 81.769275 262.355311 
L 83.469037 260.105693 
L 85.168799 263.192433 
L 86.868561 258.551548 
L 88.568323 263.939098 
L 90.268085 257.807609 
L 91.967847 263.653583 
L 93.667609 263.740549 
L 95.367371 263.656565 
L 97.067134 262.151311 
L 98.766896 263.949149 
L 100.466658 263.721044 
L 102.16642 263.994889 
L 103.866182 157.28748 
L 105.565944 261.638714 
L 107.265706 264.513959 
L 108.965468 264.475033 
L 110.66523 263.881092 
L 112.364992 242.842807 
L 114.064754 260.551 
L 115.764516 263.429993 
L 117.464278 264.401951 
L 119.16404 264.328528 
L 120.863802 247.337955 
L 122.563564 264.368647 
L 124.263326 190.365322 
L 125.963088 259.277684 
L 127.66285 264.033219 
L 129.362612 261.425004 
L 131.062374 262.761266 
L 132.762136 263.616361 
L 134.461898 259.131776 
L 136.16166 263.034259 
L 137.861422 262.32601 
L 139.561184 260.981145 
L 141.260946 263.120544 
L 142.960708 263.884244 
L 144.66047 262.927532 
L 146.360232 263.557929 
L 148.059994 263.278548 
L 149.759756 262.784604 
L 151.459518 260.151263 
L 153.15928 260.62553 
L 154.859042 261.464015 
L 156.558804 236.165247 
L 158.258566 262.930854 
L 159.958328 262.311615 
L 161.65809 242.936928 
L 163.357852 254.422578 
L 165.057614 262.641847 
L 166.757376 257.344245 
L 168.457138 263.327439 
L 170.1569 258.513729 
L 171.856662 260.597507 
L 173.556424 262.946101 
L 175.256186 263.520111 
L 176.955948 256.396732 
L 178.65571 264.329465 
L 180.355472 259.333986 
L 183.754996 263.898639 
L 185.454758 264.566258 
L 187.15452 258.80248 
L 188.854282 259.559792 
L 190.554045 263.233063 
L 192.253807 263.70469 
L 193.953569 263.672067 
L 195.653331 262.022097 
L 197.353093 263.81789 
L 199.052855 264.268223 
L 200.752617 264.434148 
L 202.452379 262.024482 
L 204.152141 262.679751 
L 205.851903 264.469071 
L 207.551665 264.337217 
L 209.251427 260.936257 
L 210.951189 263.651284 
L 212.650951 262.862457 
L 214.350713 260.943838 
L 216.050475 263.871808 
L 217.750237 258.707252 
L 219.449999 263.916952 
L 221.149761 262.610587 
L 222.849523 262.118603 
L 224.549285 263.853239 
L 226.249047 264.426993 
L 227.948809 264.272737 
L 229.648571 263.631948 
L 231.348333 263.760396 
L 233.048095 263.337065 
L 234.747857 263.779731 
L 236.447619 263.866186 
L 238.147381 260.489587 
L 239.847143 263.748556 
L 241.546905 264.483977 
L 243.246667 263.302653 
L 244.946429 264.520859 
L 246.646191 262.702494 
L 248.345953 264.399481 
L 250.045715 261.883258 
L 251.745477 262.719103 
L 253.445239 264.161666 
L 255.145001 264.132621 
L 256.844763 263.854602 
L 260.244287 263.699153 
L 261.944049 259.361243 
L 263.643811 263.752985 
L 265.343573 264.508508 
L 267.043335 264.475033 
L 268.743097 263.427012 
L 270.442859 258.965424 
L 272.142621 264.427079 
L 273.842383 264.186453 
L 275.542145 262.072181 
L 277.241907 263.166199 
L 278.941669 262.646788 
L 280.641431 264.493772 
L 282.341193 262.448154 
L 284.040955 263.645577 
L 285.740718 260.98583 
L 287.44048 263.263897 
L 289.140242 264.263794 
L 290.840004 264.312941 
L 292.539766 263.995315 
L 294.239528 264.142075 
L 295.93929 252.683938 
L 297.639052 262.390148 
L 299.338814 264.55033 
L 301.038576 263.515085 
L 302.738338 263.793785 
L 304.4381 263.755881 
L 306.137862 262.904705 
L 307.837624 263.952215 
L 309.537386 261.611628 
L 311.237148 263.709204 
L 312.93691 262.804792 
L 314.636672 264.023934 
L 316.336434 263.890547 
L 318.036196 263.604862 
L 319.735958 262.199862 
L 321.43572 263.414235 
L 323.135482 263.78382 
L 324.835244 264.272737 
L 326.535006 262.452243 
L 328.234768 254.331608 
L 329.93453 263.111089 
L 331.634292 263.239366 
L 335.033816 264.367795 
L 336.733578 259.677932 
L 338.43334 264.116948 
L 340.133102 260.241891 
L 341.832864 261.518614 
L 343.532626 263.900853 
L 345.232388 263.751878 
L 346.93215 258.943108 
L 348.631912 260.459775 
L 350.331674 264.463875 
L 352.031436 263.614317 
L 353.731198 254.250945 
L 357.130722 264.324355 
L 358.830484 249.371393 
L 360.530246 263.015776 
L 362.230008 260.910704 
L 363.92977 263.050017 
L 365.629532 262.699512 
L 367.329294 261.604643 
L 369.029056 262.787415 
L 372.42858 260.945626 
L 374.128342 263.749663 
L 375.828104 263.457165 
L 377.527866 264.437896 
L 379.227629 251.816407 
L 380.927391 264.230063 
L 382.627153 263.942931 
L 384.326915 262.151056 
L 386.026677 259.458516 
L 387.726439 263.372754 
L 389.426201 263.639188 
L 391.125963 264.374524 
L 394.525487 261.190937 
L 396.225249 264.294798 
L 397.925011 262.770124 
L 399.624773 264.169247 
L 399.624773 264.169247 
" style="fill:none;stroke:#2ca02c;stroke-linecap:square;stroke-width:1.5;"/>
   </g>
   <g id="line2d_19">
    <path clip-path="url(#p3201b1d0b6)" d="M 74.970227 263.393963 
L 76.669989 264.401951 
L 78.369751 254.86567 
L 80.069513 254.021648 
L 81.769275 246.78311 
L 83.469037 259.069766 
L 85.168799 262.751215 
L 86.868561 260.593674 
L 88.568323 263.367388 
L 90.268085 258.357599 
L 91.967847 263.616872 
L 93.667609 263.753156 
L 95.367371 263.252058 
L 97.067134 263.756307 
L 98.766896 264.134069 
L 100.466658 262.745849 
L 102.16642 264.186623 
L 103.866182 171.730741 
L 105.565944 259.23484 
L 107.265706 263.851195 
L 108.965468 262.669445 
L 110.66523 263.798129 
L 112.364992 246.3723 
L 114.064754 264.201444 
L 115.764516 259.670948 
L 117.464278 264.356381 
L 119.16404 264.246503 
L 120.863802 255.617956 
L 122.563564 264.254595 
L 124.263326 237.511645 
L 125.963088 255.958325 
L 127.66285 264.06763 
L 129.362612 262.762118 
L 131.062374 253.238102 
L 132.762136 264.393178 
L 134.461898 252.385477 
L 136.16166 263.665764 
L 137.861422 264.017546 
L 139.561184 262.140494 
L 141.260946 261.718781 
L 142.960708 263.739272 
L 144.66047 263.071652 
L 146.360232 263.251291 
L 148.059994 264.397863 
L 149.759756 263.616361 
L 151.459518 263.631097 
L 153.15928 262.089302 
L 154.859042 264.032111 
L 156.558804 257.948918 
L 158.258566 263.475648 
L 159.958328 259.454086 
L 161.65809 236.112096 
L 163.357852 253.520039 
L 165.057614 257.65659 
L 166.757376 257.927028 
L 168.457138 260.585923 
L 170.1569 262.935283 
L 171.856662 263.722833 
L 173.556424 263.295754 
L 175.256186 260.658494 
L 176.955948 242.210707 
L 178.65571 262.947464 
L 180.355472 261.991263 
L 182.055234 255.710884 
L 183.754996 263.482547 
L 185.454758 264.066523 
L 187.15452 259.236033 
L 188.854282 263.639359 
L 190.554045 262.958622 
L 192.253807 264.370521 
L 193.953569 264.113796 
L 195.653331 261.506519 
L 197.353093 262.205484 
L 199.052855 264.267967 
L 200.752617 264.479122 
L 202.452379 262.84738 
L 204.152141 260.693246 
L 205.851903 264.517281 
L 207.551665 263.57735 
L 209.251427 259.581767 
L 210.951189 262.647554 
L 212.650951 263.893869 
L 214.350713 260.470337 
L 216.050475 263.945571 
L 217.750237 261.092046 
L 219.449999 263.526925 
L 221.149761 262.454287 
L 224.549285 263.821979 
L 226.249047 264.214987 
L 227.948809 263.374798 
L 229.648571 263.057598 
L 231.348333 263.88978 
L 233.048095 264.138242 
L 234.747857 262.155059 
L 236.447619 264.327762 
L 238.147381 259.438925 
L 239.847143 263.97402 
L 241.546905 264.476652 
L 243.246667 264.171461 
L 244.946429 264.527503 
L 246.646191 263.537572 
L 248.345953 264.302123 
L 250.045715 263.933561 
L 251.745477 264.050084 
L 253.445239 262.010258 
L 255.145001 264.485169 
L 256.844763 264.268989 
L 260.244287 262.651387 
L 261.944049 260.802699 
L 263.643811 262.846869 
L 265.343573 264.395648 
L 267.043335 264.475289 
L 268.743097 263.58723 
L 270.442859 261.544423 
L 272.142621 263.406399 
L 273.842383 259.185437 
L 275.542145 263.740124 
L 277.241907 263.308019 
L 278.941669 263.766699 
L 280.641431 264.344201 
L 282.341193 263.271393 
L 284.040955 262.730347 
L 285.740718 262.393726 
L 287.44048 263.897957 
L 289.140242 264.374013 
L 290.840004 264.213369 
L 292.539766 263.924873 
L 294.239528 261.58616 
L 295.93929 262.177546 
L 297.639052 260.919818 
L 299.338814 262.089472 
L 301.038576 264.477078 
L 302.738338 262.826767 
L 304.4381 262.183338 
L 306.137862 263.902386 
L 309.537386 263.49098 
L 311.237148 264.405784 
L 312.93691 262.692187 
L 314.636672 264.169076 
L 316.336434 263.299757 
L 318.036196 263.921381 
L 319.735958 263.960988 
L 321.43572 264.156641 
L 323.135482 260.682258 
L 324.835244 264.460894 
L 326.535006 263.275992 
L 328.234768 262.618253 
L 329.93453 259.183478 
L 331.634292 262.756666 
L 333.334054 263.826664 
L 335.033816 264.049147 
L 336.733578 263.37318 
L 338.43334 263.5104 
L 340.133102 263.268923 
L 341.832864 261.483606 
L 343.532626 261.65575 
L 345.232388 263.922233 
L 346.93215 263.169947 
L 350.331674 264.432785 
L 352.031436 260.867859 
L 353.731198 253.751977 
L 355.43096 253.8616 
L 357.130722 260.763177 
L 358.830484 258.356747 
L 360.530246 263.208276 
L 362.230008 263.838674 
L 363.92977 259.181519 
L 365.629532 261.324665 
L 367.329294 264.351867 
L 369.029056 263.065349 
L 370.728818 262.735372 
L 372.42858 264.019164 
L 374.128342 263.171395 
L 375.828104 263.997444 
L 377.527866 264.448628 
L 379.227629 260.08525 
L 380.927391 264.3149 
L 382.627153 263.989352 
L 384.326915 263.468238 
L 386.026677 250.195398 
L 387.726439 262.241855 
L 389.426201 263.395411 
L 391.125963 263.722918 
L 392.825725 263.079148 
L 394.525487 262.105741 
L 396.225249 264.102297 
L 397.925011 264.053832 
L 399.624773 264.306382 
L 399.624773 264.306382 
" style="fill:none;stroke:#d62728;stroke-linecap:square;stroke-width:1.5;"/>
   </g>
   <g id="line2d_20">
    <path clip-path="url(#p3201b1d0b6)" d="M 74.970227 262.619616 
L 76.669989 264.028108 
L 78.369751 253.1341 
L 80.069513 261.342042 
L 81.769275 216.482219 
L 83.469037 259.505193 
L 85.168799 263.44294 
L 86.868561 261.000225 
L 88.568323 263.233744 
L 90.268085 247.149628 
L 91.967847 263.392515 
L 93.667609 264.202807 
L 95.367371 262.842951 
L 98.766896 264.450588 
L 100.466658 263.133406 
L 102.16642 264.01712 
L 103.866182 209.4786 
L 105.565944 259.766006 
L 107.265706 264.44224 
L 108.965468 263.664997 
L 110.66523 264.296417 
L 112.364992 258.316544 
L 114.064754 263.825897 
L 115.764516 257.500545 
L 117.464278 264.342753 
L 119.16404 264.473926 
L 120.863802 259.178112 
L 122.563564 264.048976 
L 124.263326 228.889061 
L 125.963088 257.215542 
L 127.66285 263.984753 
L 129.362612 262.307015 
L 131.062374 258.116036 
L 132.762136 263.883051 
L 134.461898 255.088494 
L 136.16166 263.768317 
L 137.861422 263.656735 
L 139.561184 261.706515 
L 142.960708 264.297268 
L 144.66047 261.957022 
L 146.360232 262.284529 
L 148.059994 264.10809 
L 149.759756 264.213539 
L 153.15928 263.227527 
L 154.859042 263.937139 
L 156.558804 248.489978 
L 158.258566 263.593959 
L 159.958328 259.728613 
L 161.65809 251.553465 
L 163.357852 253.015193 
L 165.057614 254.135275 
L 166.757376 241.572814 
L 168.457138 262.551559 
L 170.1569 260.022901 
L 171.856662 259.841303 
L 173.556424 259.145234 
L 175.256186 259.690879 
L 176.955948 257.029514 
L 178.65571 264.019335 
L 180.355472 260.222471 
L 182.055234 261.75924 
L 183.754996 263.84651 
L 185.454758 264.369328 
L 187.15452 260.553044 
L 188.854282 264.295054 
L 190.554045 263.52701 
L 192.253807 264.40638 
L 193.953569 264.305275 
L 195.653331 260.788304 
L 199.052855 264.067034 
L 200.752617 264.485255 
L 202.452379 261.810602 
L 204.152141 262.769273 
L 205.851903 264.494283 
L 207.551665 263.033322 
L 209.251427 262.749767 
L 210.951189 264.070952 
L 212.650951 263.54396 
L 214.350713 261.492124 
L 216.050475 263.981346 
L 217.750237 263.251717 
L 219.449999 261.171602 
L 221.149761 262.168602 
L 222.849523 261.627982 
L 224.549285 264.503823 
L 226.249047 264.452547 
L 227.948809 263.883221 
L 229.648571 263.175228 
L 231.348333 264.370606 
L 233.048095 263.363044 
L 234.747857 261.834452 
L 236.447619 264.065075 
L 238.147381 262.521577 
L 239.847143 264.280233 
L 241.546905 264.450502 
L 243.246667 263.295072 
L 244.946429 264.390452 
L 246.646191 263.095928 
L 248.345953 264.443773 
L 250.045715 263.250524 
L 251.745477 264.292669 
L 253.445239 262.924892 
L 255.145001 264.337983 
L 256.844763 264.30025 
L 258.544525 263.955111 
L 260.244287 264.029386 
L 261.944049 262.542786 
L 263.643811 263.958348 
L 265.343573 264.527247 
L 268.743097 264.033985 
L 270.442859 261.055505 
L 272.142621 263.748982 
L 273.842383 263.95707 
L 277.241907 261.617761 
L 278.941669 263.251461 
L 280.641431 264.46643 
L 282.341193 263.422668 
L 284.040955 264.094632 
L 285.740718 262.858879 
L 287.44048 260.439418 
L 289.140242 264.421798 
L 290.840004 264.047784 
L 292.539766 264.211239 
L 294.239528 260.349981 
L 295.93929 257.76962 
L 297.639052 261.337357 
L 299.338814 264.054854 
L 301.038576 263.950171 
L 302.738338 263.479737 
L 304.4381 263.628797 
L 306.137862 263.025145 
L 307.837624 264.170439 
L 309.537386 261.824315 
L 311.237148 264.103234 
L 312.93691 262.235722 
L 314.636672 264.220779 
L 316.336434 263.808265 
L 318.036196 264.443007 
L 319.735958 263.75997 
L 321.43572 264.446499 
L 323.135482 261.685476 
L 324.835244 264.348034 
L 326.535006 263.622068 
L 328.234768 262.385123 
L 329.93453 262.562888 
L 331.634292 263.245158 
L 333.334054 264.294798 
L 335.033816 264.344882 
L 336.733578 263.276418 
L 338.43334 264.308682 
L 340.133102 263.690806 
L 341.832864 262.42933 
L 343.532626 262.768762 
L 345.232388 264.013458 
L 346.93215 261.843225 
L 348.631912 261.46836 
L 350.331674 264.522818 
L 352.031436 262.490572 
L 353.731198 247.093837 
L 355.43096 252.227643 
L 357.130722 261.914859 
L 358.830484 246.202626 
L 360.530246 260.852357 
L 362.230008 262.185552 
L 363.92977 262.280355 
L 365.629532 263.033918 
L 367.329294 262.310082 
L 369.029056 260.863856 
L 370.728818 263.178805 
L 374.128342 264.288665 
L 377.527866 264.434489 
L 379.227629 253.070729 
L 380.927391 264.42282 
L 382.627153 264.241648 
L 384.326915 263.00811 
L 386.026677 254.295067 
L 387.726439 262.580434 
L 389.426201 262.219623 
L 391.125963 264.052213 
L 392.825725 259.15801 
L 394.525487 264.180831 
L 396.225249 264.320948 
L 397.925011 263.892846 
L 399.624773 264.482188 
L 399.624773 264.482188 
" style="fill:none;stroke:#9467bd;stroke-linecap:square;stroke-width:1.5;"/>
   </g>
   <g id="line2d_21">
    <path clip-path="url(#p3201b1d0b6)" d="M 74.970227 264.062434 
L 76.669989 264.390112 
L 78.369751 255.69172 
L 80.069513 259.012101 
L 81.769275 248.64696 
L 83.469037 260.879188 
L 85.168799 262.569191 
L 86.868561 259.577594 
L 88.568323 263.231615 
L 90.268085 256.811972 
L 91.967847 262.723618 
L 93.667609 264.437726 
L 95.367371 264.02913 
L 97.067134 263.901875 
L 98.766896 264.205618 
L 100.466658 262.594915 
L 102.16642 264.150167 
L 103.866182 237.625868 
L 105.565944 261.897653 
L 107.265706 264.347182 
L 108.965468 264.210047 
L 110.66523 264.451269 
L 112.364992 261.824486 
L 114.064754 263.085706 
L 115.764516 262.195944 
L 117.464278 264.290028 
L 119.16404 264.49522 
L 120.863802 256.832584 
L 122.563564 263.781605 
L 124.263326 232.749552 
L 125.963088 261.753704 
L 127.66285 264.183983 
L 129.362612 260.631492 
L 131.062374 261.395874 
L 132.762136 264.065501 
L 134.461898 260.036188 
L 136.16166 264.309278 
L 137.861422 264.109538 
L 139.561184 263.224716 
L 141.260946 263.919251 
L 142.960708 264.163114 
L 144.66047 263.635355 
L 146.360232 261.620316 
L 148.059994 264.251187 
L 149.759756 263.794126 
L 153.15928 261.796122 
L 154.859042 263.517044 
L 156.558804 251.910784 
L 158.258566 263.842507 
L 159.958328 262.146371 
L 161.65809 245.184928 
L 163.357852 261.155674 
L 165.057614 256.817338 
L 166.757376 253.056759 
L 168.457138 263.473008 
L 170.1569 258.426422 
L 171.856662 262.985793 
L 175.256186 263.209639 
L 176.955948 250.245567 
L 178.65571 263.476159 
L 180.355472 259.952033 
L 182.055234 262.337764 
L 183.754996 264.087136 
L 185.454758 264.248547 
L 187.15452 259.981249 
L 188.854282 263.96184 
L 190.554045 263.507419 
L 192.253807 264.344201 
L 193.953569 263.992163 
L 195.653331 262.838607 
L 197.353093 263.048313 
L 199.052855 264.480655 
L 200.752617 264.565407 
L 202.452379 263.46713 
L 204.152141 263.216368 
L 205.851903 264.51907 
L 207.551665 264.438152 
L 209.251427 261.553707 
L 210.951189 263.743786 
L 212.650951 263.861927 
L 214.350713 261.032507 
L 216.050475 263.914141 
L 217.750237 263.442173 
L 221.149761 263.237152 
L 222.849523 263.522751 
L 224.549285 264.2333 
L 226.249047 264.398118 
L 227.948809 264.012606 
L 229.648571 264.049999 
L 231.348333 264.369328 
L 233.048095 264.320181 
L 234.747857 262.889884 
L 236.447619 264.017972 
L 238.147381 262.489635 
L 239.847143 264.400248 
L 241.546905 264.446669 
L 243.246667 264.218394 
L 244.946429 264.483551 
L 246.646191 263.90673 
L 248.345953 264.434489 
L 250.045715 263.04414 
L 251.745477 264.368391 
L 253.445239 263.579138 
L 255.145001 264.521029 
L 256.844763 264.272993 
L 258.544525 263.906304 
L 260.244287 262.254376 
L 261.944049 261.053887 
L 263.643811 263.712441 
L 265.343573 264.500672 
L 267.043335 264.302209 
L 268.743097 264.363877 
L 270.442859 261.750893 
L 272.142621 263.909286 
L 273.842383 262.541594 
L 277.241907 263.657331 
L 278.941669 263.144138 
L 280.641431 264.437896 
L 282.341193 263.433145 
L 284.040955 264.317626 
L 285.740718 262.978298 
L 287.44048 263.298138 
L 289.140242 264.320351 
L 290.840004 264.402803 
L 292.539766 264.234493 
L 294.239528 263.434763 
L 295.93929 257.518347 
L 297.639052 263.314237 
L 299.338814 263.823086 
L 301.038576 264.483551 
L 302.738338 263.247032 
L 304.4381 264.209536 
L 306.137862 263.805114 
L 307.837624 264.249569 
L 309.537386 262.951722 
L 311.237148 264.326058 
L 312.93691 262.381375 
L 314.636672 264.335598 
L 318.036196 263.939013 
L 319.735958 264.258683 
L 321.43572 263.722662 
L 323.135482 262.716803 
L 324.835244 264.481081 
L 326.535006 263.715848 
L 328.234768 262.599088 
L 329.93453 263.091413 
L 331.634292 263.229911 
L 333.334054 264.327762 
L 335.033816 264.445647 
L 336.733578 263.045247 
L 338.43334 264.349652 
L 340.133102 264.070356 
L 341.832864 263.117818 
L 343.532626 262.406588 
L 345.232388 264.019079 
L 346.93215 262.977446 
L 348.631912 262.634011 
L 350.331674 264.491217 
L 352.031436 263.252995 
L 353.731198 241.812843 
L 355.43096 251.129708 
L 357.130722 262.338872 
L 358.830484 260.368039 
L 360.530246 260.829785 
L 362.230008 263.002233 
L 363.92977 260.846054 
L 365.629532 259.886872 
L 367.329294 263.816187 
L 369.029056 262.461271 
L 370.728818 264.007665 
L 372.42858 264.239518 
L 375.828104 264.126573 
L 377.527866 264.509275 
L 379.227629 260.994944 
L 380.927391 264.396415 
L 382.627153 263.907667 
L 384.326915 264.14182 
L 386.026677 258.091931 
L 387.726439 263.071311 
L 389.426201 263.807414 
L 391.125963 264.368902 
L 392.825725 262.889884 
L 394.525487 263.874107 
L 396.225249 264.200422 
L 397.925011 263.595492 
L 399.624773 264.284832 
L 399.624773 264.284832 
" style="fill:none;stroke:#8c564b;stroke-linecap:square;stroke-width:1.5;"/>
   </g>
   <g id="line2d_22">
    <path clip-path="url(#p3201b1d0b6)" d="M 74.970227 264.31507 
L 76.669989 264.552971 
L 78.369751 262.373028 
L 80.069513 263.267815 
L 81.769275 260.407221 
L 83.469037 263.292176 
L 85.168799 263.974532 
L 86.868561 263.715678 
L 88.568323 264.072485 
L 90.268085 259.828441 
L 91.967847 264.404592 
L 93.667609 264.526566 
L 97.067134 264.376994 
L 98.766896 264.515578 
L 102.16642 264.3195 
L 103.866182 263.439448 
L 105.565944 263.799066 
L 107.265706 264.502631 
L 108.965468 264.00281 
L 110.66523 264.427164 
L 112.364992 259.184671 
L 114.064754 262.941075 
L 115.764516 262.514081 
L 117.464278 264.357829 
L 119.16404 264.376739 
L 120.863802 262.48478 
L 122.563564 264.376568 
L 124.263326 222.954331 
L 125.963088 262.812117 
L 127.66285 264.46643 
L 131.062374 262.060768 
L 132.762136 264.443773 
L 134.461898 263.068586 
L 136.16166 264.341646 
L 139.561184 264.519666 
L 141.260946 263.530076 
L 142.960708 264.369669 
L 144.66047 264.412002 
L 146.360232 264.121036 
L 148.059994 264.116011 
L 149.759756 264.261664 
L 151.459518 263.771298 
L 153.15928 264.221461 
L 154.859042 264.290028 
L 156.558804 261.596551 
L 158.258566 264.133898 
L 159.958328 263.485018 
L 161.65809 253.908618 
L 163.357852 262.768421 
L 165.057614 262.394918 
L 166.757376 261.793055 
L 168.457138 264.067545 
L 170.1569 259.805443 
L 171.856662 263.992419 
L 173.556424 263.85605 
L 175.256186 263.525988 
L 176.955948 260.706363 
L 178.65571 264.05775 
L 180.355472 263.29405 
L 182.055234 262.961944 
L 183.754996 264.175209 
L 185.454758 264.530313 
L 187.15452 261.253968 
L 188.854282 264.414302 
L 190.554045 264.339176 
L 192.253807 264.465153 
L 193.953569 264.44437 
L 195.653331 262.66723 
L 197.353093 263.65665 
L 199.052855 264.473415 
L 200.752617 264.575883 
L 202.452379 263.766784 
L 205.851903 264.541131 
L 207.551665 264.41115 
L 209.251427 263.560059 
L 210.951189 264.263708 
L 212.650951 264.220438 
L 214.350713 262.863905 
L 216.050475 264.440877 
L 217.750237 263.911415 
L 219.449999 263.685866 
L 221.149761 263.73842 
L 222.849523 263.543364 
L 224.549285 264.438407 
L 226.249047 264.526821 
L 227.948809 264.313708 
L 229.648571 264.253402 
L 231.348333 264.501524 
L 233.048095 264.544708 
L 234.747857 264.290965 
L 236.447619 264.313537 
L 238.147381 262.862201 
L 239.847143 264.44684 
L 241.546905 264.553737 
L 243.246667 264.393434 
L 244.946429 264.570091 
L 246.646191 263.910563 
L 248.345953 264.561574 
L 250.045715 263.926662 
L 251.745477 264.409532 
L 253.445239 263.552989 
L 255.145001 264.53815 
L 258.544525 264.415069 
L 260.244287 263.643788 
L 261.944049 263.3518 
L 263.643811 264.059198 
L 265.343573 264.563873 
L 268.743097 264.42035 
L 270.442859 264.17555 
L 273.842383 264.233215 
L 275.542145 263.958177 
L 277.241907 263.993015 
L 278.941669 263.893698 
L 280.641431 264.560296 
L 282.341193 263.963203 
L 284.040955 264.464982 
L 287.44048 263.251887 
L 289.140242 264.299994 
L 290.840004 264.464897 
L 292.539766 264.370436 
L 294.239528 263.209043 
L 295.93929 262.429415 
L 297.639052 264.176828 
L 301.038576 264.487895 
L 302.738338 264.067971 
L 304.4381 264.405529 
L 306.137862 263.610399 
L 307.837624 264.394456 
L 309.537386 263.180849 
L 311.237148 264.541727 
L 312.93691 261.943734 
L 314.636672 264.425205 
L 316.336434 264.194715 
L 321.43572 264.320607 
L 323.135482 263.900342 
L 324.835244 264.531591 
L 326.535006 264.377676 
L 328.234768 263.493024 
L 329.93453 263.674537 
L 331.634292 263.439703 
L 333.334054 264.522222 
L 335.033816 264.548627 
L 336.733578 263.855368 
L 338.43334 264.329976 
L 340.133102 264.398289 
L 341.832864 263.266538 
L 343.532626 263.521984 
L 345.232388 264.210387 
L 346.93215 262.981449 
L 348.631912 263.398563 
L 350.331674 264.522818 
L 352.031436 264.202125 
L 353.731198 263.023356 
L 355.43096 261.416827 
L 357.130722 264.166777 
L 358.830484 262.887754 
L 360.530246 259.195488 
L 362.230008 263.408613 
L 363.92977 263.849321 
L 365.629532 263.292772 
L 367.329294 263.853495 
L 369.029056 264.133217 
L 372.42858 264.346927 
L 374.128342 264.479292 
L 375.828104 264.309449 
L 377.527866 264.519751 
L 379.227629 263.03247 
L 380.927391 264.489514 
L 382.627153 264.520007 
L 384.326915 264.175891 
L 386.026677 261.022797 
L 387.726439 264.11797 
L 389.426201 263.602818 
L 391.125963 264.457913 
L 392.825725 263.753241 
L 394.525487 264.439174 
L 396.225249 264.458509 
L 397.925011 264.231256 
L 399.624773 264.527758 
L 399.624773 264.527758 
" style="fill:none;stroke:#e377c2;stroke-linecap:square;stroke-width:1.5;"/>
   </g>
   <g id="line2d_23">
    <path clip-path="url(#p3201b1d0b6)" d="M 74.970227 264.254595 
L 76.669989 264.516174 
L 78.369751 262.648662 
L 80.069513 263.777516 
L 81.769275 259.528617 
L 83.469037 263.445325 
L 85.168799 264.372991 
L 86.868561 264.204084 
L 88.568323 264.190797 
L 90.268085 257.553525 
L 91.967847 264.27146 
L 93.667609 264.413109 
L 95.367371 264.253998 
L 97.067134 264.474267 
L 98.766896 264.536617 
L 102.16642 264.41839 
L 103.866182 261.566058 
L 107.265706 264.532613 
L 108.965468 264.064138 
L 110.66523 264.130832 
L 112.364992 259.493779 
L 114.064754 263.119436 
L 115.764516 261.121773 
L 117.464278 264.28594 
L 119.16404 264.508338 
L 120.863802 262.783156 
L 122.563564 264.435511 
L 124.263326 257.414686 
L 125.963088 263.028041 
L 127.66285 262.799425 
L 129.362612 263.623516 
L 131.062374 258.157943 
L 132.762136 264.161155 
L 134.461898 258.376849 
L 136.16166 264.382701 
L 137.861422 264.273334 
L 139.561184 262.958877 
L 141.260946 257.389048 
L 142.960708 263.270286 
L 144.66047 264.257491 
L 146.360232 262.857772 
L 148.059994 263.315089 
L 149.759756 263.53195 
L 151.459518 263.123866 
L 153.15928 262.910582 
L 154.859042 263.124036 
L 156.558804 259.348126 
L 158.258566 264.189008 
L 159.958328 264.271119 
L 161.65809 255.537974 
L 163.357852 251.009693 
L 165.057614 263.664656 
L 166.757376 262.13615 
L 168.457138 264.031771 
L 171.856662 263.201377 
L 173.556424 263.224119 
L 175.256186 262.798999 
L 176.955948 259.693179 
L 178.65571 264.258939 
L 180.355472 263.455461 
L 182.055234 263.473689 
L 183.754996 264.291476 
L 185.454758 264.14429 
L 187.15452 261.541101 
L 188.854282 263.104019 
L 190.554045 257.797047 
L 192.253807 262.883751 
L 193.953569 262.892183 
L 195.653331 257.91834 
L 197.353093 257.671496 
L 199.052855 264.297268 
L 200.752617 264.503483 
L 202.452379 258.469181 
L 204.152141 257.256767 
L 205.851903 264.163029 
L 207.551665 262.840822 
L 209.251427 256.128935 
L 210.951189 262.945249 
L 212.650951 262.624727 
L 214.350713 234.993889 
L 216.050475 262.750959 
L 217.750237 256.845105 
L 219.449999 256.50874 
L 221.149761 257.18573 
L 222.849523 257.534616 
L 224.549285 264.255106 
L 226.249047 264.117033 
L 227.948809 263.055128 
L 229.648571 262.757348 
L 231.348333 264.121633 
L 233.048095 262.837244 
L 234.747857 263.140986 
L 236.447619 262.839885 
L 238.147381 258.545926 
L 239.847143 262.889628 
L 241.546905 264.30306 
L 243.246667 263.039966 
L 244.946429 264.190967 
L 246.646191 258.661597 
L 248.345953 264.301442 
L 250.045715 257.533934 
L 251.745477 263.284425 
L 253.445239 258.67284 
L 255.145001 264.264645 
L 256.844763 262.921399 
L 258.544525 262.81612 
L 260.244287 256.506696 
L 261.944049 257.256682 
L 263.643811 258.576079 
L 265.343573 264.119248 
L 267.043335 264.221546 
L 268.743097 263.188175 
L 270.442859 256.94093 
L 272.142621 258.114588 
L 273.842383 258.211264 
L 275.542145 257.031559 
L 278.941669 257.805224 
L 280.641431 264.106556 
L 282.341193 257.02023 
L 284.040955 263.054361 
L 285.740718 259.175216 
L 287.44048 258.170039 
L 289.140242 263.220797 
L 290.840004 262.835285 
L 292.539766 263.007258 
L 294.239528 258.55274 
L 295.93929 260.369828 
L 297.639052 259.555959 
L 299.338814 258.473866 
L 301.038576 263.007939 
L 302.738338 258.691238 
L 304.4381 262.950445 
L 306.137862 263.204273 
L 307.837624 262.741334 
L 309.537386 258.943874 
L 311.237148 264.376994 
L 312.93691 257.924046 
L 314.636672 262.968673 
L 316.336434 263.475989 
L 318.036196 262.979916 
L 319.735958 262.719273 
L 321.43572 263.100868 
L 323.135482 259.320614 
L 324.835244 264.159707 
L 326.535006 258.309729 
L 328.234768 259.595651 
L 329.93453 256.201932 
L 331.634292 257.438536 
L 333.334054 262.72004 
L 335.033816 264.116096 
L 336.733578 256.751325 
L 338.43334 262.793718 
L 340.133102 262.909219 
L 341.832864 258.297293 
L 343.532626 259.115847 
L 345.232388 263.356826 
L 346.93215 257.538193 
L 348.631912 263.047888 
L 350.331674 264.508593 
L 352.031436 264.216946 
L 353.731198 263.104701 
L 355.43096 256.608227 
L 357.130722 263.557589 
L 358.830484 258.548737 
L 360.530246 263.692935 
L 362.230008 264.338153 
L 363.92977 263.873256 
L 367.329294 264.261749 
L 369.029056 263.880666 
L 370.728818 263.084855 
L 372.42858 263.239281 
L 375.828104 262.940053 
L 377.527866 264.144375 
L 379.227629 258.929054 
L 380.927391 264.268904 
L 382.627153 264.187049 
L 384.326915 263.136727 
L 386.026677 260.319318 
L 387.726439 263.34703 
L 389.426201 262.960325 
L 391.125963 264.261409 
L 392.825725 263.355037 
L 394.525487 263.034174 
L 396.225249 264.320181 
L 397.925011 263.397626 
L 399.624773 264.289773 
L 399.624773 264.289773 
" style="fill:none;stroke:#7f7f7f;stroke-linecap:square;stroke-width:1.5;"/>
   </g>
   <g id="line2d_24">
    <path clip-path="url(#p3201b1d0b6)" d="M 74.970227 264.599137 
L 183.754996 264.594537 
L 399.624773 264.596837 
L 399.624773 264.596837 
" style="fill:none;stroke:#bcbd22;stroke-linecap:square;stroke-width:1.5;"/>
   </g>
   <g id="line2d_25">
    <path clip-path="url(#p3201b1d0b6)" d="M 74.970227 264.599137 
L 142.960708 264.593771 
L 399.624773 264.597433 
L 399.624773 264.597433 
" style="fill:none;stroke:#17becf;stroke-linecap:square;stroke-width:1.5;"/>
   </g>
   <g id="line2d_26">
    <path clip-path="url(#p3201b1d0b6)" d="M 74.970227 264.513193 
L 80.069513 264.594026 
L 95.367371 264.616513 
L 97.067134 264.517367 
L 98.766896 264.59837 
L 100.466658 264.444284 
L 102.16642 264.434745 
L 103.866182 264.601096 
L 115.764516 264.61498 
L 119.16404 264.60067 
L 124.263326 264.596752 
L 387.726439 264.604333 
L 394.525487 264.634656 
L 399.624773 264.59096 
L 399.624773 264.59096 
" style="fill:none;stroke:#1f77b4;stroke-linecap:square;stroke-width:1.5;"/>
   </g>
   <g id="line2d_27">
    <path clip-path="url(#p3201b1d0b6)" d="M 74.970227 264.599137 
L 399.624773 264.599137 
L 399.624773 264.599137 
" style="fill:none;stroke:#ff7f0e;stroke-linecap:square;stroke-width:1.5;"/>
   </g>
   <g id="patch_3">
    <path d="M 58.7375 276.812 
L 58.7375 10.7 
" style="fill:none;stroke:#000000;stroke-linecap:square;stroke-linejoin:miter;stroke-width:0.8;"/>
   </g>
   <g id="patch_4">
    <path d="M 415.8575 276.812 
L 415.8575 10.7 
" style="fill:none;stroke:#000000;stroke-linecap:square;stroke-linejoin:miter;stroke-width:0.8;"/>
   </g>
   <g id="patch_5">
    <path d="M 58.7375 276.812 
L 415.8575 276.812 
" style="fill:none;stroke:#000000;stroke-linecap:square;stroke-linejoin:miter;stroke-width:0.8;"/>
   </g>
   <g id="patch_6">
    <path d="M 58.7375 10.7 
L 415.8575 10.7 
" style="fill:none;stroke:#000000;stroke-linecap:square;stroke-linejoin:miter;stroke-width:0.8;"/>
   </g>
   <g id="legend_1">
    <g id="patch_7">
     <path d="M 318.504375 165.48125 
L 408.8575 165.48125 
Q 410.8575 165.48125 410.8575 163.48125 
L 410.8575 17.7 
Q 410.8575 15.7 408.8575 15.7 
L 318.504375 15.7 
Q 316.504375 15.7 316.504375 17.7 
L 316.504375 163.48125 
Q 316.504375 165.48125 318.504375 165.48125 
z
" style="fill:#ffffff;opacity:0.8;stroke:#cccccc;stroke-linejoin:miter;"/>
    </g>
    <g id="line2d_28">
     <path d="M 320.504375 23.798437 
L 340.504375 23.798437 
" style="fill:none;stroke:#1f77b4;stroke-linecap:square;stroke-width:1.5;"/>
    </g>
    <g id="line2d_29"/>
    <g id="text_16">
     <!-- delta -->
     <defs>
      <path d="M 45.40625 46.390625 
L 45.40625 75.984375 
L 54.390625 75.984375 
L 54.390625 0 
L 45.40625 0 
L 45.40625 8.203125 
Q 42.578125 3.328125 38.25 0.953125 
Q 33.9375 -1.421875 27.875 -1.421875 
Q 17.96875 -1.421875 11.734375 6.484375 
Q 5.515625 14.40625 5.515625 27.296875 
Q 5.515625 40.1875 11.734375 48.09375 
Q 17.96875 56 27.875 56 
Q 33.9375 56 38.25 53.625 
Q 42.578125 51.265625 45.40625 46.390625 
M 14.796875 27.296875 
Q 14.796875 17.390625 18.875 11.75 
Q 22.953125 6.109375 30.078125 6.109375 
Q 37.203125 6.109375 41.296875 11.75 
Q 45.40625 17.390625 45.40625 27.296875 
Q 45.40625 37.203125 41.296875 42.84375 
Q 37.203125 48.484375 30.078125 48.484375 
Q 22.953125 48.484375 18.875 42.84375 
Q 14.796875 37.203125 14.796875 27.296875 
" id="DejaVuSans-64"/>
      <path d="M 56.203125 29.59375 
L 56.203125 25.203125 
L 14.890625 25.203125 
Q 15.484375 15.921875 20.484375 11.0625 
Q 25.484375 6.203125 34.421875 6.203125 
Q 39.59375 6.203125 44.453125 7.46875 
Q 49.3125 8.734375 54.109375 11.28125 
L 54.109375 2.78125 
Q 49.265625 0.734375 44.1875 -0.34375 
Q 39.109375 -1.421875 33.890625 -1.421875 
Q 20.796875 -1.421875 13.15625 6.1875 
Q 5.515625 13.8125 5.515625 26.8125 
Q 5.515625 40.234375 12.765625 48.109375 
Q 20.015625 56 32.328125 56 
Q 43.359375 56 49.78125 48.890625 
Q 56.203125 41.796875 56.203125 29.59375 
M 47.21875 32.234375 
Q 47.125 39.59375 43.09375 43.984375 
Q 39.0625 48.390625 32.421875 48.390625 
Q 24.90625 48.390625 20.390625 44.140625 
Q 15.875 39.890625 15.1875 32.171875 
z
" id="DejaVuSans-65"/>
      <path d="M 9.421875 75.984375 
L 18.40625 75.984375 
L 18.40625 0 
L 9.421875 0 
z
" id="DejaVuSans-6c"/>
      <path d="M 18.3125 70.21875 
L 18.3125 54.6875 
L 36.8125 54.6875 
L 36.8125 47.703125 
L 18.3125 47.703125 
L 18.3125 18.015625 
Q 18.3125 11.328125 20.140625 9.421875 
Q 21.96875 7.515625 27.59375 7.515625 
L 36.8125 7.515625 
L 36.8125 0 
L 27.59375 0 
Q 17.1875 0 13.234375 3.875 
Q 9.28125 7.765625 9.28125 18.015625 
L 9.28125 47.703125 
L 2.6875 47.703125 
L 2.6875 54.6875 
L 9.28125 54.6875 
L 9.28125 70.21875 
z
" id="DejaVuSans-74"/>
      <path d="M 34.28125 27.484375 
Q 23.390625 27.484375 19.1875 25 
Q 14.984375 22.515625 14.984375 16.5 
Q 14.984375 11.71875 18.140625 8.90625 
Q 21.296875 6.109375 26.703125 6.109375 
Q 34.1875 6.109375 38.703125 11.40625 
Q 43.21875 16.703125 43.21875 25.484375 
L 43.21875 27.484375 
z
M 52.203125 31.203125 
L 52.203125 0 
L 43.21875 0 
L 43.21875 8.296875 
Q 40.140625 3.328125 35.546875 0.953125 
Q 30.953125 -1.421875 24.3125 -1.421875 
Q 15.921875 -1.421875 10.953125 3.296875 
Q 6 8.015625 6 15.921875 
Q 6 25.140625 12.171875 29.828125 
Q 18.359375 34.515625 30.609375 34.515625 
L 43.21875 34.515625 
L 43.21875 35.40625 
Q 43.21875 41.609375 39.140625 45 
Q 35.0625 48.390625 27.6875 48.390625 
Q 23 48.390625 18.546875 47.265625 
Q 14.109375 46.140625 10.015625 43.890625 
L 10.015625 52.203125 
Q 14.9375 54.109375 19.578125 55.046875 
Q 24.21875 56 28.609375 56 
Q 40.484375 56 46.34375 49.84375 
Q 52.203125 43.703125 52.203125 31.203125 
" id="DejaVuSans-61"/>
     </defs>
     <g transform="translate(348.504375 27.298437)scale(0.1 -0.1)">
      <use xlink:href="#DejaVuSans-64"/>
      <use x="63.476562" xlink:href="#DejaVuSans-65"/>
      <use x="125" xlink:href="#DejaVuSans-6c"/>
      <use x="152.783203" xlink:href="#DejaVuSans-74"/>
      <use x="191.992188" xlink:href="#DejaVuSans-61"/>
     </g>
    </g>
    <g id="line2d_30">
     <path d="M 320.504375 38.476562 
L 340.504375 38.476562 
" style="fill:none;stroke:#ff7f0e;stroke-linecap:square;stroke-width:1.5;"/>
    </g>
    <g id="line2d_31"/>
    <g id="text_17">
     <!-- lowAlpha -->
     <defs>
      <path d="M 30.609375 48.390625 
Q 23.390625 48.390625 19.1875 42.75 
Q 14.984375 37.109375 14.984375 27.296875 
Q 14.984375 17.484375 19.15625 11.84375 
Q 23.34375 6.203125 30.609375 6.203125 
Q 37.796875 6.203125 41.984375 11.859375 
Q 46.1875 17.53125 46.1875 27.296875 
Q 46.1875 37.015625 41.984375 42.703125 
Q 37.796875 48.390625 30.609375 48.390625 
M 30.609375 56 
Q 42.328125 56 49.015625 48.375 
Q 55.71875 40.765625 55.71875 27.296875 
Q 55.71875 13.875 49.015625 6.21875 
Q 42.328125 -1.421875 30.609375 -1.421875 
Q 18.84375 -1.421875 12.171875 6.21875 
Q 5.515625 13.875 5.515625 27.296875 
Q 5.515625 40.765625 12.171875 48.375 
Q 18.84375 56 30.609375 56 
" id="DejaVuSans-6f"/>
      <path d="M 4.203125 54.6875 
L 13.1875 54.6875 
L 24.421875 12.015625 
L 35.59375 54.6875 
L 46.1875 54.6875 
L 57.421875 12.015625 
L 68.609375 54.6875 
L 77.59375 54.6875 
L 63.28125 0 
L 52.6875 0 
L 40.921875 44.828125 
L 29.109375 0 
L 18.5 0 
z
" id="DejaVuSans-77"/>
      <path d="M 34.1875 63.1875 
L 20.796875 26.90625 
L 47.609375 26.90625 
z
M 28.609375 72.90625 
L 39.796875 72.90625 
L 67.578125 0 
L 57.328125 0 
L 50.6875 18.703125 
L 17.828125 18.703125 
L 11.1875 0 
L 0.78125 0 
z
" id="DejaVuSans-41"/>
      <path d="M 18.109375 8.203125 
L 18.109375 -20.796875 
L 9.078125 -20.796875 
L 9.078125 54.6875 
L 18.109375 54.6875 
L 18.109375 46.390625 
Q 20.953125 51.265625 25.265625 53.625 
Q 29.59375 56 35.59375 56 
Q 45.5625 56 51.78125 48.09375 
Q 58.015625 40.1875 58.015625 27.296875 
Q 58.015625 14.40625 51.78125 6.484375 
Q 45.5625 -1.421875 35.59375 -1.421875 
Q 29.59375 -1.421875 25.265625 0.953125 
Q 20.953125 3.328125 18.109375 8.203125 
M 48.6875 27.296875 
Q 48.6875 37.203125 44.609375 42.84375 
Q 40.53125 48.484375 33.40625 48.484375 
Q 26.265625 48.484375 22.1875 42.84375 
Q 18.109375 37.203125 18.109375 27.296875 
Q 18.109375 17.390625 22.1875 11.75 
Q 26.265625 6.109375 33.40625 6.109375 
Q 40.53125 6.109375 44.609375 11.75 
Q 48.6875 17.390625 48.6875 27.296875 
" id="DejaVuSans-70"/>
      <path d="M 54.890625 33.015625 
L 54.890625 0 
L 45.90625 0 
L 45.90625 32.71875 
Q 45.90625 40.484375 42.875 44.328125 
Q 39.84375 48.1875 33.796875 48.1875 
Q 26.515625 48.1875 22.3125 43.546875 
Q 18.109375 38.921875 18.109375 30.90625 
L 18.109375 0 
L 9.078125 0 
L 9.078125 75.984375 
L 18.109375 75.984375 
L 18.109375 46.1875 
Q 21.34375 51.125 25.703125 53.5625 
Q 30.078125 56 35.796875 56 
Q 45.21875 56 50.046875 50.171875 
Q 54.890625 44.34375 54.890625 33.015625 
" id="DejaVuSans-68"/>
     </defs>
     <g transform="translate(348.504375 41.976562)scale(0.1 -0.1)">
      <use xlink:href="#DejaVuSans-6c"/>
      <use x="27.783203" xlink:href="#DejaVuSans-6f"/>
      <use x="88.964844" xlink:href="#DejaVuSans-77"/>
      <use x="170.751953" xlink:href="#DejaVuSans-41"/>
      <use x="239.160156" xlink:href="#DejaVuSans-6c"/>
      <use x="266.943359" xlink:href="#DejaVuSans-70"/>
      <use x="330.419922" xlink:href="#DejaVuSans-68"/>
      <use x="393.798828" xlink:href="#DejaVuSans-61"/>
     </g>
    </g>
    <g id="line2d_32">
     <path d="M 320.504375 53.154687 
L 340.504375 53.154687 
" style="fill:none;stroke:#2ca02c;stroke-linecap:square;stroke-width:1.5;"/>
    </g>
    <g id="line2d_33"/>
    <g id="text_18">
     <!-- highAlpha -->
     <defs>
      <path d="M 9.421875 54.6875 
L 18.40625 54.6875 
L 18.40625 0 
L 9.421875 0 
z
M 9.421875 75.984375 
L 18.40625 75.984375 
L 18.40625 64.59375 
L 9.421875 64.59375 
z
" id="DejaVuSans-69"/>
      <path d="M 45.40625 27.984375 
Q 45.40625 37.75 41.375 43.109375 
Q 37.359375 48.484375 30.078125 48.484375 
Q 22.859375 48.484375 18.828125 43.109375 
Q 14.796875 37.75 14.796875 27.984375 
Q 14.796875 18.265625 18.828125 12.890625 
Q 22.859375 7.515625 30.078125 7.515625 
Q 37.359375 7.515625 41.375 12.890625 
Q 45.40625 18.265625 45.40625 27.984375 
M 54.390625 6.78125 
Q 54.390625 -7.171875 48.1875 -13.984375 
Q 42 -20.796875 29.203125 -20.796875 
Q 24.46875 -20.796875 20.265625 -20.09375 
Q 16.0625 -19.390625 12.109375 -17.921875 
L 12.109375 -9.1875 
Q 16.0625 -11.328125 19.921875 -12.34375 
Q 23.78125 -13.375 27.78125 -13.375 
Q 36.625 -13.375 41.015625 -8.765625 
Q 45.40625 -4.15625 45.40625 5.171875 
L 45.40625 9.625 
Q 42.625 4.78125 38.28125 2.390625 
Q 33.9375 0 27.875 0 
Q 17.828125 0 11.671875 7.65625 
Q 5.515625 15.328125 5.515625 27.984375 
Q 5.515625 40.671875 11.671875 48.328125 
Q 17.828125 56 27.875 56 
Q 33.9375 56 38.28125 53.609375 
Q 42.625 51.21875 45.40625 46.390625 
L 45.40625 54.6875 
L 54.390625 54.6875 
z
" id="DejaVuSans-67"/>
     </defs>
     <g transform="translate(348.504375 56.654687)scale(0.1 -0.1)">
      <use xlink:href="#DejaVuSans-68"/>
      <use x="63.378906" xlink:href="#DejaVuSans-69"/>
      <use x="91.162109" xlink:href="#DejaVuSans-67"/>
      <use x="154.638672" xlink:href="#DejaVuSans-68"/>
      <use x="218.017578" xlink:href="#DejaVuSans-41"/>
      <use x="286.425781" xlink:href="#DejaVuSans-6c"/>
      <use x="314.208984" xlink:href="#DejaVuSans-70"/>
      <use x="377.685547" xlink:href="#DejaVuSans-68"/>
      <use x="441.064453" xlink:href="#DejaVuSans-61"/>
     </g>
    </g>
    <g id="line2d_34">
     <path d="M 320.504375 67.832812 
L 340.504375 67.832812 
" style="fill:none;stroke:#d62728;stroke-linecap:square;stroke-width:1.5;"/>
    </g>
    <g id="line2d_35"/>
    <g id="text_19">
     <!-- lowBeta -->
     <defs>
      <path d="M 19.671875 34.8125 
L 19.671875 8.109375 
L 35.5 8.109375 
Q 43.453125 8.109375 47.28125 11.40625 
Q 51.125 14.703125 51.125 21.484375 
Q 51.125 28.328125 47.28125 31.5625 
Q 43.453125 34.8125 35.5 34.8125 
z
M 19.671875 64.796875 
L 19.671875 42.828125 
L 34.28125 42.828125 
Q 41.5 42.828125 45.03125 45.53125 
Q 48.578125 48.25 48.578125 53.8125 
Q 48.578125 59.328125 45.03125 62.0625 
Q 41.5 64.796875 34.28125 64.796875 
z
M 9.8125 72.90625 
L 35.015625 72.90625 
Q 46.296875 72.90625 52.390625 68.21875 
Q 58.5 63.53125 58.5 54.890625 
Q 58.5 48.1875 55.375 44.234375 
Q 52.25 40.28125 46.1875 39.3125 
Q 53.46875 37.75 57.5 32.78125 
Q 61.53125 27.828125 61.53125 20.40625 
Q 61.53125 10.640625 54.890625 5.3125 
Q 48.25 0 35.984375 0 
L 9.8125 0 
z
" id="DejaVuSans-42"/>
     </defs>
     <g transform="translate(348.504375 71.332812)scale(0.1 -0.1)">
      <use xlink:href="#DejaVuSans-6c"/>
      <use x="27.783203" xlink:href="#DejaVuSans-6f"/>
      <use x="88.964844" xlink:href="#DejaVuSans-77"/>
      <use x="170.751953" xlink:href="#DejaVuSans-42"/>
      <use x="239.355469" xlink:href="#DejaVuSans-65"/>
      <use x="300.878906" xlink:href="#DejaVuSans-74"/>
      <use x="340.087891" xlink:href="#DejaVuSans-61"/>
     </g>
    </g>
    <g id="line2d_36">
     <path d="M 320.504375 82.510938 
L 340.504375 82.510938 
" style="fill:none;stroke:#9467bd;stroke-linecap:square;stroke-width:1.5;"/>
    </g>
    <g id="line2d_37"/>
    <g id="text_20">
     <!-- highBeta -->
     <g transform="translate(348.504375 86.010938)scale(0.1 -0.1)">
      <use xlink:href="#DejaVuSans-68"/>
      <use x="63.378906" xlink:href="#DejaVuSans-69"/>
      <use x="91.162109" xlink:href="#DejaVuSans-67"/>
      <use x="154.638672" xlink:href="#DejaVuSans-68"/>
      <use x="218.017578" xlink:href="#DejaVuSans-42"/>
      <use x="286.621094" xlink:href="#DejaVuSans-65"/>
      <use x="348.144531" xlink:href="#DejaVuSans-74"/>
      <use x="387.353516" xlink:href="#DejaVuSans-61"/>
     </g>
    </g>
    <g id="line2d_38">
     <path d="M 320.504375 97.189062 
L 340.504375 97.189062 
" style="fill:none;stroke:#8c564b;stroke-linecap:square;stroke-width:1.5;"/>
    </g>
    <g id="line2d_39"/>
    <g id="text_21">
     <!-- lowGamma -->
     <defs>
      <path d="M 59.515625 10.40625 
L 59.515625 29.984375 
L 43.40625 29.984375 
L 43.40625 38.09375 
L 69.28125 38.09375 
L 69.28125 6.78125 
Q 63.578125 2.734375 56.6875 0.65625 
Q 49.8125 -1.421875 42 -1.421875 
Q 24.90625 -1.421875 15.25 8.5625 
Q 5.609375 18.5625 5.609375 36.375 
Q 5.609375 54.25 15.25 64.234375 
Q 24.90625 74.21875 42 74.21875 
Q 49.125 74.21875 55.546875 72.453125 
Q 61.96875 70.703125 67.390625 67.28125 
L 67.390625 56.78125 
Q 61.921875 61.421875 55.765625 63.765625 
Q 49.609375 66.109375 42.828125 66.109375 
Q 29.4375 66.109375 22.71875 58.640625 
Q 16.015625 51.171875 16.015625 36.375 
Q 16.015625 21.625 22.71875 14.15625 
Q 29.4375 6.6875 42.828125 6.6875 
Q 48.046875 6.6875 52.140625 7.59375 
Q 56.25 8.5 59.515625 10.40625 
" id="DejaVuSans-47"/>
      <path d="M 52 44.1875 
Q 55.375 50.25 60.0625 53.125 
Q 64.75 56 71.09375 56 
Q 79.640625 56 84.28125 50.015625 
Q 88.921875 44.046875 88.921875 33.015625 
L 88.921875 0 
L 79.890625 0 
L 79.890625 32.71875 
Q 79.890625 40.578125 77.09375 44.375 
Q 74.3125 48.1875 68.609375 48.1875 
Q 61.625 48.1875 57.5625 43.546875 
Q 53.515625 38.921875 53.515625 30.90625 
L 53.515625 0 
L 44.484375 0 
L 44.484375 32.71875 
Q 44.484375 40.625 41.703125 44.40625 
Q 38.921875 48.1875 33.109375 48.1875 
Q 26.21875 48.1875 22.15625 43.53125 
Q 18.109375 38.875 18.109375 30.90625 
L 18.109375 0 
L 9.078125 0 
L 9.078125 54.6875 
L 18.109375 54.6875 
L 18.109375 46.1875 
Q 21.1875 51.21875 25.484375 53.609375 
Q 29.78125 56 35.6875 56 
Q 41.65625 56 45.828125 52.96875 
Q 50 49.953125 52 44.1875 
" id="DejaVuSans-6d"/>
     </defs>
     <g transform="translate(348.504375 100.689062)scale(0.1 -0.1)">
      <use xlink:href="#DejaVuSans-6c"/>
      <use x="27.783203" xlink:href="#DejaVuSans-6f"/>
      <use x="88.964844" xlink:href="#DejaVuSans-77"/>
      <use x="170.751953" xlink:href="#DejaVuSans-47"/>
      <use x="248.242188" xlink:href="#DejaVuSans-61"/>
      <use x="309.521484" xlink:href="#DejaVuSans-6d"/>
      <use x="406.933594" xlink:href="#DejaVuSans-6d"/>
      <use x="504.345703" xlink:href="#DejaVuSans-61"/>
     </g>
    </g>
    <g id="line2d_40">
     <path d="M 320.504375 111.867188 
L 340.504375 111.867188 
" style="fill:none;stroke:#e377c2;stroke-linecap:square;stroke-width:1.5;"/>
    </g>
    <g id="line2d_41"/>
    <g id="text_22">
     <!-- midGamma -->
     <g transform="translate(348.504375 115.367188)scale(0.1 -0.1)">
      <use xlink:href="#DejaVuSans-6d"/>
      <use x="97.412109" xlink:href="#DejaVuSans-69"/>
      <use x="125.195312" xlink:href="#DejaVuSans-64"/>
      <use x="188.671875" xlink:href="#DejaVuSans-47"/>
      <use x="266.162109" xlink:href="#DejaVuSans-61"/>
      <use x="327.441406" xlink:href="#DejaVuSans-6d"/>
      <use x="424.853516" xlink:href="#DejaVuSans-6d"/>
      <use x="522.265625" xlink:href="#DejaVuSans-61"/>
     </g>
    </g>
    <g id="line2d_42">
     <path d="M 320.504375 126.545312 
L 340.504375 126.545312 
" style="fill:none;stroke:#7f7f7f;stroke-linecap:square;stroke-width:1.5;"/>
    </g>
    <g id="line2d_43"/>
    <g id="text_23">
     <!-- attention -->
     <defs>
      <path d="M 54.890625 33.015625 
L 54.890625 0 
L 45.90625 0 
L 45.90625 32.71875 
Q 45.90625 40.484375 42.875 44.328125 
Q 39.84375 48.1875 33.796875 48.1875 
Q 26.515625 48.1875 22.3125 43.546875 
Q 18.109375 38.921875 18.109375 30.90625 
L 18.109375 0 
L 9.078125 0 
L 9.078125 54.6875 
L 18.109375 54.6875 
L 18.109375 46.1875 
Q 21.34375 51.125 25.703125 53.5625 
Q 30.078125 56 35.796875 56 
Q 45.21875 56 50.046875 50.171875 
Q 54.890625 44.34375 54.890625 33.015625 
" id="DejaVuSans-6e"/>
     </defs>
     <g transform="translate(348.504375 130.045312)scale(0.1 -0.1)">
      <use xlink:href="#DejaVuSans-61"/>
      <use x="61.279297" xlink:href="#DejaVuSans-74"/>
      <use x="100.488281" xlink:href="#DejaVuSans-74"/>
      <use x="139.697266" xlink:href="#DejaVuSans-65"/>
      <use x="201.220703" xlink:href="#DejaVuSans-6e"/>
      <use x="264.599609" xlink:href="#DejaVuSans-74"/>
      <use x="303.808594" xlink:href="#DejaVuSans-69"/>
      <use x="331.591797" xlink:href="#DejaVuSans-6f"/>
      <use x="392.773438" xlink:href="#DejaVuSans-6e"/>
     </g>
    </g>
    <g id="line2d_44">
     <path d="M 320.504375 141.223437 
L 340.504375 141.223437 
" style="fill:none;stroke:#bcbd22;stroke-linecap:square;stroke-width:1.5;"/>
    </g>
    <g id="line2d_45"/>
    <g id="text_24">
     <!-- meditation -->
     <g transform="translate(348.504375 144.723437)scale(0.1 -0.1)">
      <use xlink:href="#DejaVuSans-6d"/>
      <use x="97.412109" xlink:href="#DejaVuSans-65"/>
      <use x="158.935547" xlink:href="#DejaVuSans-64"/>
      <use x="222.412109" xlink:href="#DejaVuSans-69"/>
      <use x="250.195312" xlink:href="#DejaVuSans-74"/>
      <use x="289.404297" xlink:href="#DejaVuSans-61"/>
      <use x="350.683594" xlink:href="#DejaVuSans-74"/>
      <use x="389.892578" xlink:href="#DejaVuSans-69"/>
      <use x="417.675781" xlink:href="#DejaVuSans-6f"/>
      <use x="478.857422" xlink:href="#DejaVuSans-6e"/>
     </g>
    </g>
    <g id="line2d_46">
     <path d="M 320.504375 155.901562 
L 340.504375 155.901562 
" style="fill:none;stroke:#17becf;stroke-linecap:square;stroke-width:1.5;"/>
    </g>
    <g id="line2d_47"/>
    <g id="text_25">
     <!-- rawValue -->
     <defs>
      <path d="M 41.109375 46.296875 
Q 39.59375 47.171875 37.8125 47.578125 
Q 36.03125 48 33.890625 48 
Q 26.265625 48 22.1875 43.046875 
Q 18.109375 38.09375 18.109375 28.8125 
L 18.109375 0 
L 9.078125 0 
L 9.078125 54.6875 
L 18.109375 54.6875 
L 18.109375 46.1875 
Q 20.953125 51.171875 25.484375 53.578125 
Q 30.03125 56 36.53125 56 
Q 37.453125 56 38.578125 55.875 
Q 39.703125 55.765625 41.0625 55.515625 
z
" id="DejaVuSans-72"/>
      <path d="M 28.609375 0 
L 0.78125 72.90625 
L 11.078125 72.90625 
L 34.1875 11.53125 
L 57.328125 72.90625 
L 67.578125 72.90625 
L 39.796875 0 
z
" id="DejaVuSans-56"/>
      <path d="M 8.5 21.578125 
L 8.5 54.6875 
L 17.484375 54.6875 
L 17.484375 21.921875 
Q 17.484375 14.15625 20.5 10.265625 
Q 23.53125 6.390625 29.59375 6.390625 
Q 36.859375 6.390625 41.078125 11.03125 
Q 45.3125 15.671875 45.3125 23.6875 
L 45.3125 54.6875 
L 54.296875 54.6875 
L 54.296875 0 
L 45.3125 0 
L 45.3125 8.40625 
Q 42.046875 3.421875 37.71875 1 
Q 33.40625 -1.421875 27.6875 -1.421875 
Q 18.265625 -1.421875 13.375 4.4375 
Q 8.5 10.296875 8.5 21.578125 
M 31.109375 56 
z
" id="DejaVuSans-75"/>
     </defs>
     <g transform="translate(348.504375 159.401562)scale(0.1 -0.1)">
      <use xlink:href="#DejaVuSans-72"/>
      <use x="41.113281" xlink:href="#DejaVuSans-61"/>
      <use x="102.392578" xlink:href="#DejaVuSans-77"/>
      <use x="184.179688" xlink:href="#DejaVuSans-56"/>
      <use x="252.478516" xlink:href="#DejaVuSans-61"/>
      <use x="313.757812" xlink:href="#DejaVuSans-6c"/>
      <use x="341.541016" xlink:href="#DejaVuSans-75"/>
      <use x="404.919922" xlink:href="#DejaVuSans-65"/>
     </g>
    </g>
   </g>
  </g>
 </g>
 <defs>
  <clipPath id="p3201b1d0b6">
   <rect height="266.112" width="357.12" x="58.7375" y="10.7"/>
  </clipPath>
 </defs>
</svg>
