<?xml version="1.0" encoding="utf-8" standalone="no"?>
<!DOCTYPE svg PUBLIC "-//W3C//DTD SVG 1.1//EN"
  "http://www.w3.org/Graphics/SVG/1.1/DTD/svg11.dtd">
<!-- Created with matplotlib (http://matplotlib.org/) -->
<svg height="300pt" version="1.1" viewBox="0 0 426 300" width="426pt" xmlns="http://www.w3.org/2000/svg" xmlns:xlink="http://www.w3.org/1999/xlink">
 <defs>
  <style type="text/css">
*{stroke-linecap:butt;stroke-linejoin:round;}
  </style>
 </defs>
 <g id="figure_1">
  <g id="patch_1">
   <path d="M 0 300.690125 
L 426.5575 300.690125 
L 426.5575 0 
L 0 0 
z
" style="fill:#ffffff;"/>
  </g>
  <g id="axes_1">
   <g id="patch_2">
    <path d="M 58.7375 276.812 
L 415.8575 276.812 
L 415.8575 10.7 
L 58.7375 10.7 
z
" style="fill:#ffffff;"/>
   </g>
   <g id="matplotlib.axis_1">
    <g id="xtick_1">
     <g id="line2d_1">
      <defs>
       <path d="M 0 0 
L 0 3.5 
" id="mb751ab2ced" style="stroke:#000000;stroke-width:0.8;"/>
      </defs>
      <g>
       <use style="stroke:#000000;stroke-width:0.8;" x="74.970227" xlink:href="#mb751ab2ced" y="276.812"/>
      </g>
     </g>
     <g id="text_1">
      <!-- 0 -->
      <defs>
       <path d="M 31.78125 66.40625 
Q 24.171875 66.40625 20.328125 58.90625 
Q 16.5 51.421875 16.5 36.375 
Q 16.5 21.390625 20.328125 13.890625 
Q 24.171875 6.390625 31.78125 6.390625 
Q 39.453125 6.390625 43.28125 13.890625 
Q 47.125 21.390625 47.125 36.375 
Q 47.125 51.421875 43.28125 58.90625 
Q 39.453125 66.40625 31.78125 66.40625 
M 31.78125 74.21875 
Q 44.046875 74.21875 50.515625 64.515625 
Q 56.984375 54.828125 56.984375 36.375 
Q 56.984375 17.96875 50.515625 8.265625 
Q 44.046875 -1.421875 31.78125 -1.421875 
Q 19.53125 -1.421875 13.0625 8.265625 
Q 6.59375 17.96875 6.59375 36.375 
Q 6.59375 54.828125 13.0625 64.515625 
Q 19.53125 74.21875 31.78125 74.21875 
" id="DejaVuSans-30"/>
      </defs>
      <g transform="translate(71.788977 291.410437)scale(0.1 -0.1)">
       <use xlink:href="#DejaVuSans-30"/>
      </g>
     </g>
    </g>
    <g id="xtick_2">
     <g id="line2d_2">
      <g>
       <use style="stroke:#000000;stroke-width:0.8;" x="116.807153" xlink:href="#mb751ab2ced" y="276.812"/>
      </g>
     </g>
     <g id="text_2">
      <!-- 25 -->
      <defs>
       <path d="M 19.1875 8.296875 
L 53.609375 8.296875 
L 53.609375 0 
L 7.328125 0 
L 7.328125 8.296875 
Q 12.9375 14.109375 22.625 23.890625 
Q 32.328125 33.6875 34.8125 36.53125 
Q 39.546875 41.84375 41.421875 45.53125 
Q 43.3125 49.21875 43.3125 52.78125 
Q 43.3125 58.59375 39.234375 62.25 
Q 35.15625 65.921875 28.609375 65.921875 
Q 23.96875 65.921875 18.8125 64.3125 
Q 13.671875 62.703125 7.8125 59.421875 
L 7.8125 69.390625 
Q 13.765625 71.78125 18.9375 73 
Q 24.125 74.21875 28.421875 74.21875 
Q 39.75 74.21875 46.484375 68.546875 
Q 53.21875 62.890625 53.21875 53.421875 
Q 53.21875 48.921875 51.53125 44.890625 
Q 49.859375 40.875 45.40625 35.40625 
Q 44.1875 33.984375 37.640625 27.21875 
Q 31.109375 20.453125 19.1875 8.296875 
" id="DejaVuSans-32"/>
       <path d="M 10.796875 72.90625 
L 49.515625 72.90625 
L 49.515625 64.59375 
L 19.828125 64.59375 
L 19.828125 46.734375 
Q 21.96875 47.46875 24.109375 47.828125 
Q 26.265625 48.1875 28.421875 48.1875 
Q 40.625 48.1875 47.75 41.5 
Q 54.890625 34.8125 54.890625 23.390625 
Q 54.890625 11.625 47.5625 5.09375 
Q 40.234375 -1.421875 26.90625 -1.421875 
Q 22.3125 -1.421875 17.546875 -0.640625 
Q 12.796875 0.140625 7.71875 1.703125 
L 7.71875 11.625 
Q 12.109375 9.234375 16.796875 8.0625 
Q 21.484375 6.890625 26.703125 6.890625 
Q 35.15625 6.890625 40.078125 11.328125 
Q 45.015625 15.765625 45.015625 23.390625 
Q 45.015625 31 40.078125 35.4375 
Q 35.15625 39.890625 26.703125 39.890625 
Q 22.75 39.890625 18.8125 39.015625 
Q 14.890625 38.140625 10.796875 36.28125 
z
" id="DejaVuSans-35"/>
      </defs>
      <g transform="translate(110.444653 291.410437)scale(0.1 -0.1)">
       <use xlink:href="#DejaVuSans-32"/>
       <use x="63.623047" xlink:href="#DejaVuSans-35"/>
      </g>
     </g>
    </g>
    <g id="xtick_3">
     <g id="line2d_3">
      <g>
       <use style="stroke:#000000;stroke-width:0.8;" x="158.644079" xlink:href="#mb751ab2ced" y="276.812"/>
      </g>
     </g>
     <g id="text_3">
      <!-- 50 -->
      <g transform="translate(152.281579 291.410437)scale(0.1 -0.1)">
       <use xlink:href="#DejaVuSans-35"/>
       <use x="63.623047" xlink:href="#DejaVuSans-30"/>
      </g>
     </g>
    </g>
    <g id="xtick_4">
     <g id="line2d_4">
      <g>
       <use style="stroke:#000000;stroke-width:0.8;" x="200.481005" xlink:href="#mb751ab2ced" y="276.812"/>
      </g>
     </g>
     <g id="text_4">
      <!-- 75 -->
      <defs>
       <path d="M 8.203125 72.90625 
L 55.078125 72.90625 
L 55.078125 68.703125 
L 28.609375 0 
L 18.3125 0 
L 43.21875 64.59375 
L 8.203125 64.59375 
z
" id="DejaVuSans-37"/>
      </defs>
      <g transform="translate(194.118505 291.410437)scale(0.1 -0.1)">
       <use xlink:href="#DejaVuSans-37"/>
       <use x="63.623047" xlink:href="#DejaVuSans-35"/>
      </g>
     </g>
    </g>
    <g id="xtick_5">
     <g id="line2d_5">
      <g>
       <use style="stroke:#000000;stroke-width:0.8;" x="242.317931" xlink:href="#mb751ab2ced" y="276.812"/>
      </g>
     </g>
     <g id="text_5">
      <!-- 100 -->
      <defs>
       <path d="M 12.40625 8.296875 
L 28.515625 8.296875 
L 28.515625 63.921875 
L 10.984375 60.40625 
L 10.984375 69.390625 
L 28.421875 72.90625 
L 38.28125 72.90625 
L 38.28125 8.296875 
L 54.390625 8.296875 
L 54.390625 0 
L 12.40625 0 
z
" id="DejaVuSans-31"/>
      </defs>
      <g transform="translate(232.774181 291.410437)scale(0.1 -0.1)">
       <use xlink:href="#DejaVuSans-31"/>
       <use x="63.623047" xlink:href="#DejaVuSans-30"/>
       <use x="127.246094" xlink:href="#DejaVuSans-30"/>
      </g>
     </g>
    </g>
    <g id="xtick_6">
     <g id="line2d_6">
      <g>
       <use style="stroke:#000000;stroke-width:0.8;" x="284.154857" xlink:href="#mb751ab2ced" y="276.812"/>
      </g>
     </g>
     <g id="text_6">
      <!-- 125 -->
      <g transform="translate(274.611107 291.410437)scale(0.1 -0.1)">
       <use xlink:href="#DejaVuSans-31"/>
       <use x="63.623047" xlink:href="#DejaVuSans-32"/>
       <use x="127.246094" xlink:href="#DejaVuSans-35"/>
      </g>
     </g>
    </g>
    <g id="xtick_7">
     <g id="line2d_7">
      <g>
       <use style="stroke:#000000;stroke-width:0.8;" x="325.991783" xlink:href="#mb751ab2ced" y="276.812"/>
      </g>
     </g>
     <g id="text_7">
      <!-- 150 -->
      <g transform="translate(316.448033 291.410437)scale(0.1 -0.1)">
       <use xlink:href="#DejaVuSans-31"/>
       <use x="63.623047" xlink:href="#DejaVuSans-35"/>
       <use x="127.246094" xlink:href="#DejaVuSans-30"/>
      </g>
     </g>
    </g>
    <g id="xtick_8">
     <g id="line2d_8">
      <g>
       <use style="stroke:#000000;stroke-width:0.8;" x="367.828709" xlink:href="#mb751ab2ced" y="276.812"/>
      </g>
     </g>
     <g id="text_8">
      <!-- 175 -->
      <g transform="translate(358.284959 291.410437)scale(0.1 -0.1)">
       <use xlink:href="#DejaVuSans-31"/>
       <use x="63.623047" xlink:href="#DejaVuSans-37"/>
       <use x="127.246094" xlink:href="#DejaVuSans-35"/>
      </g>
     </g>
    </g>
    <g id="xtick_9">
     <g id="line2d_9">
      <g>
       <use style="stroke:#000000;stroke-width:0.8;" x="409.665635" xlink:href="#mb751ab2ced" y="276.812"/>
      </g>
     </g>
     <g id="text_9">
      <!-- 200 -->
      <g transform="translate(400.121885 291.410437)scale(0.1 -0.1)">
       <use xlink:href="#DejaVuSans-32"/>
       <use x="63.623047" xlink:href="#DejaVuSans-30"/>
       <use x="127.246094" xlink:href="#DejaVuSans-30"/>
      </g>
     </g>
    </g>
   </g>
   <g id="matplotlib.axis_2">
    <g id="ytick_1">
     <g id="line2d_10">
      <defs>
       <path d="M 0 0 
L -3.5 0 
" id="m74dfec0afb" style="stroke:#000000;stroke-width:0.8;"/>
      </defs>
      <g>
       <use style="stroke:#000000;stroke-width:0.8;" x="58.7375" xlink:href="#m74dfec0afb" y="264.589244"/>
      </g>
     </g>
     <g id="text_10">
      <!-- 0 -->
      <g transform="translate(45.375 268.388463)scale(0.1 -0.1)">
       <use xlink:href="#DejaVuSans-30"/>
      </g>
     </g>
    </g>
    <g id="ytick_2">
     <g id="line2d_11">
      <g>
       <use style="stroke:#000000;stroke-width:0.8;" x="58.7375" xlink:href="#m74dfec0afb" y="229.437816"/>
      </g>
     </g>
     <g id="text_11">
      <!-- 500000 -->
      <g transform="translate(13.5625 233.237035)scale(0.1 -0.1)">
       <use xlink:href="#DejaVuSans-35"/>
       <use x="63.623047" xlink:href="#DejaVuSans-30"/>
       <use x="127.246094" xlink:href="#DejaVuSans-30"/>
       <use x="190.869141" xlink:href="#DejaVuSans-30"/>
       <use x="254.492188" xlink:href="#DejaVuSans-30"/>
       <use x="318.115234" xlink:href="#DejaVuSans-30"/>
      </g>
     </g>
    </g>
    <g id="ytick_3">
     <g id="line2d_12">
      <g>
       <use style="stroke:#000000;stroke-width:0.8;" x="58.7375" xlink:href="#m74dfec0afb" y="194.286388"/>
      </g>
     </g>
     <g id="text_12">
      <!-- 1000000 -->
      <g transform="translate(7.2 198.085607)scale(0.1 -0.1)">
       <use xlink:href="#DejaVuSans-31"/>
       <use x="63.623047" xlink:href="#DejaVuSans-30"/>
       <use x="127.246094" xlink:href="#DejaVuSans-30"/>
       <use x="190.869141" xlink:href="#DejaVuSans-30"/>
       <use x="254.492188" xlink:href="#DejaVuSans-30"/>
       <use x="318.115234" xlink:href="#DejaVuSans-30"/>
       <use x="381.738281" xlink:href="#DejaVuSans-30"/>
      </g>
     </g>
    </g>
    <g id="ytick_4">
     <g id="line2d_13">
      <g>
       <use style="stroke:#000000;stroke-width:0.8;" x="58.7375" xlink:href="#m74dfec0afb" y="159.134961"/>
      </g>
     </g>
     <g id="text_13">
      <!-- 1500000 -->
      <g transform="translate(7.2 162.934179)scale(0.1 -0.1)">
       <use xlink:href="#DejaVuSans-31"/>
       <use x="63.623047" xlink:href="#DejaVuSans-35"/>
       <use x="127.246094" xlink:href="#DejaVuSans-30"/>
       <use x="190.869141" xlink:href="#DejaVuSans-30"/>
       <use x="254.492188" xlink:href="#DejaVuSans-30"/>
       <use x="318.115234" xlink:href="#DejaVuSans-30"/>
       <use x="381.738281" xlink:href="#DejaVuSans-30"/>
      </g>
     </g>
    </g>
    <g id="ytick_5">
     <g id="line2d_14">
      <g>
       <use style="stroke:#000000;stroke-width:0.8;" x="58.7375" xlink:href="#m74dfec0afb" y="123.983533"/>
      </g>
     </g>
     <g id="text_14">
      <!-- 2000000 -->
      <g transform="translate(7.2 127.782752)scale(0.1 -0.1)">
       <use xlink:href="#DejaVuSans-32"/>
       <use x="63.623047" xlink:href="#DejaVuSans-30"/>
       <use x="127.246094" xlink:href="#DejaVuSans-30"/>
       <use x="190.869141" xlink:href="#DejaVuSans-30"/>
       <use x="254.492188" xlink:href="#DejaVuSans-30"/>
       <use x="318.115234" xlink:href="#DejaVuSans-30"/>
       <use x="381.738281" xlink:href="#DejaVuSans-30"/>
      </g>
     </g>
    </g>
    <g id="ytick_6">
     <g id="line2d_15">
      <g>
       <use style="stroke:#000000;stroke-width:0.8;" x="58.7375" xlink:href="#m74dfec0afb" y="88.832105"/>
      </g>
     </g>
     <g id="text_15">
      <!-- 2500000 -->
      <g transform="translate(7.2 92.631324)scale(0.1 -0.1)">
       <use xlink:href="#DejaVuSans-32"/>
       <use x="63.623047" xlink:href="#DejaVuSans-35"/>
       <use x="127.246094" xlink:href="#DejaVuSans-30"/>
       <use x="190.869141" xlink:href="#DejaVuSans-30"/>
       <use x="254.492188" xlink:href="#DejaVuSans-30"/>
       <use x="318.115234" xlink:href="#DejaVuSans-30"/>
       <use x="381.738281" xlink:href="#DejaVuSans-30"/>
      </g>
     </g>
    </g>
    <g id="ytick_7">
     <g id="line2d_16">
      <g>
       <use style="stroke:#000000;stroke-width:0.8;" x="58.7375" xlink:href="#m74dfec0afb" y="53.680677"/>
      </g>
     </g>
     <g id="text_16">
      <!-- 3000000 -->
      <defs>
       <path d="M 40.578125 39.3125 
Q 47.65625 37.796875 51.625 33 
Q 55.609375 28.21875 55.609375 21.1875 
Q 55.609375 10.40625 48.1875 4.484375 
Q 40.765625 -1.421875 27.09375 -1.421875 
Q 22.515625 -1.421875 17.65625 -0.515625 
Q 12.796875 0.390625 7.625 2.203125 
L 7.625 11.71875 
Q 11.71875 9.328125 16.59375 8.109375 
Q 21.484375 6.890625 26.8125 6.890625 
Q 36.078125 6.890625 40.9375 10.546875 
Q 45.796875 14.203125 45.796875 21.1875 
Q 45.796875 27.640625 41.28125 31.265625 
Q 36.765625 34.90625 28.71875 34.90625 
L 20.21875 34.90625 
L 20.21875 43.015625 
L 29.109375 43.015625 
Q 36.375 43.015625 40.234375 45.921875 
Q 44.09375 48.828125 44.09375 54.296875 
Q 44.09375 59.90625 40.109375 62.90625 
Q 36.140625 65.921875 28.71875 65.921875 
Q 24.65625 65.921875 20.015625 65.03125 
Q 15.375 64.15625 9.8125 62.3125 
L 9.8125 71.09375 
Q 15.4375 72.65625 20.34375 73.4375 
Q 25.25 74.21875 29.59375 74.21875 
Q 40.828125 74.21875 47.359375 69.109375 
Q 53.90625 64.015625 53.90625 55.328125 
Q 53.90625 49.265625 50.4375 45.09375 
Q 46.96875 40.921875 40.578125 39.3125 
" id="DejaVuSans-33"/>
      </defs>
      <g transform="translate(7.2 57.479896)scale(0.1 -0.1)">
       <use xlink:href="#DejaVuSans-33"/>
       <use x="63.623047" xlink:href="#DejaVuSans-30"/>
       <use x="127.246094" xlink:href="#DejaVuSans-30"/>
       <use x="190.869141" xlink:href="#DejaVuSans-30"/>
       <use x="254.492188" xlink:href="#DejaVuSans-30"/>
       <use x="318.115234" xlink:href="#DejaVuSans-30"/>
       <use x="381.738281" xlink:href="#DejaVuSans-30"/>
      </g>
     </g>
    </g>
    <g id="ytick_8">
     <g id="line2d_17">
      <g>
       <use style="stroke:#000000;stroke-width:0.8;" x="58.7375" xlink:href="#m74dfec0afb" y="18.529249"/>
      </g>
     </g>
     <g id="text_17">
      <!-- 3500000 -->
      <g transform="translate(7.2 22.328468)scale(0.1 -0.1)">
       <use xlink:href="#DejaVuSans-33"/>
       <use x="63.623047" xlink:href="#DejaVuSans-35"/>
       <use x="127.246094" xlink:href="#DejaVuSans-30"/>
       <use x="190.869141" xlink:href="#DejaVuSans-30"/>
       <use x="254.492188" xlink:href="#DejaVuSans-30"/>
       <use x="318.115234" xlink:href="#DejaVuSans-30"/>
       <use x="381.738281" xlink:href="#DejaVuSans-30"/>
      </g>
     </g>
    </g>
   </g>
   <g id="line2d_18">
    <path clip-path="url(#p66a5efe2ea)" d="M 74.970227 118.939092 
L 76.643704 259.44652 
L 78.317181 238.688266 
L 79.990658 242.313995 
L 81.664135 212.424736 
L 83.337612 212.979004 
L 85.01109 199.675102 
L 86.684567 256.542168 
L 88.358044 203.529667 
L 90.031521 215.070162 
L 91.704998 189.924799 
L 93.378475 195.966767 
L 95.051952 229.435988 
L 96.725429 221.957944 
L 98.398906 186.579368 
L 100.072383 227.127735 
L 101.74586 192.366909 
L 103.419337 153.092922 
L 105.092814 249.271236 
L 106.766291 169.172732 
L 108.439768 72.192474 
L 110.113245 173.781365 
L 111.786722 245.725793 
L 113.460199 248.041358 
L 115.133676 258.656034 
L 116.807153 214.814119 
L 118.48063 253.068856 
L 120.154107 182.966293 
L 121.827584 153.531261 
L 123.501061 171.978167 
L 125.174538 141.476992 
L 126.848015 242.214517 
L 128.521493 171.490758 
L 130.19497 195.04109 
L 131.868447 180.321007 
L 133.541924 242.797398 
L 135.215401 173.470908 
L 136.888878 246.24737 
L 138.562355 242.083472 
L 140.235832 117.971092 
L 141.909309 207.333755 
L 143.582786 151.934401 
L 145.256263 167.46838 
L 146.92974 223.738926 
L 148.603217 40.58445 
L 150.276694 264.553179 
L 151.950171 107.720936 
L 153.623648 250.304688 
L 155.297125 216.949498 
L 156.970602 125.765991 
L 158.644079 241.236955 
L 160.317556 97.111602 
L 161.991033 243.722513 
L 163.66451 137.790311 
L 165.337987 242.174585 
L 167.011464 213.926335 
L 168.684941 245.652326 
L 170.358418 126.810692 
L 172.031896 173.345628 
L 173.705373 253.186964 
L 175.37885 247.070827 
L 177.052327 221.204227 
L 178.725804 219.129308 
L 180.399281 189.54186 
L 182.072758 249.732845 
L 183.746235 232.44713 
L 185.419712 252.790597 
L 187.093189 123.94353 
L 188.766666 218.998756 
L 190.440143 259.580376 
L 192.11362 22.796 
L 193.787097 138.34486 
L 195.460574 222.835534 
L 197.134051 262.464832 
L 198.807528 147.295608 
L 200.481005 131.039338 
L 202.154482 153.34313 
L 203.827959 230.245174 
L 205.501436 189.412573 
L 207.174913 196.09268 
L 208.84839 208.737281 
L 210.521867 260.551821 
L 212.195344 251.583989 
L 213.868821 257.417017 
L 215.542299 178.102249 
L 217.215776 245.615347 
L 218.889253 149.939206 
L 220.56273 259.025406 
L 222.236207 250.303001 
L 223.909684 254.422396 
L 225.583161 256.85354 
L 227.256638 235.304027 
L 228.930115 228.540963 
L 230.603592 233.404936 
L 232.277069 91.791363 
L 233.950546 161.003048 
L 235.624023 107.486124 
L 237.2975 138.149699 
L 238.970977 134.228698 
L 240.644454 221.271718 
L 242.317931 235.468114 
L 243.991408 231.899892 
L 245.664885 261.792315 
L 247.338362 89.70379 
L 249.011839 173.74059 
L 250.685316 243.622331 
L 252.358793 234.236127 
L 254.03227 254.277573 
L 255.705747 211.019523 
L 257.379224 256.801305 
L 259.052701 259.154693 
L 260.726179 245.061501 
L 262.399656 209.624714 
L 265.74661 163.451907 
L 267.420087 152.984937 
L 269.093564 256.405359 
L 270.767041 204.530991 
L 272.440518 241.323428 
L 274.113995 143.660037 
L 275.787472 143.300297 
L 277.460949 237.935533 
L 279.134426 243.912893 
L 280.807903 222.284782 
L 282.48138 232.749643 
L 284.154857 88.109181 
L 285.828334 260.377611 
L 287.501811 186.764405 
L 289.175288 91.313866 
L 290.848765 243.890115 
L 292.522242 264.585659 
L 294.195719 217.619344 
L 295.869196 229.488997 
L 297.542673 170.908861 
L 299.21615 206.481684 
L 300.889627 186.216675 
L 302.563104 221.033532 
L 304.236582 117.758566 
L 305.910059 264.10324 
L 307.583536 223.952717 
L 309.257013 235.061974 
L 310.93049 180.487484 
L 312.603967 73.196961 
L 314.277444 235.728727 
L 315.950921 211.758265 
L 317.624398 222.821404 
L 319.297875 208.86003 
L 320.971352 171.251939 
L 322.644829 210.585051 
L 324.318306 180.449662 
L 325.991783 264.555077 
L 327.66526 182.201468 
L 329.338737 48.509691 
L 331.012214 179.098511 
L 332.685691 229.869968 
L 334.359168 219.634927 
L 336.032645 230.418963 
L 337.706122 181.998223 
L 339.379599 210.156203 
L 341.053076 175.69515 
L 342.726553 243.297884 
L 344.40003 222.606347 
L 346.073507 254.533405 
L 347.746985 245.421592 
L 349.420462 106.797297 
L 351.093939 250.731707 
L 352.767416 191.376272 
L 354.440893 255.511317 
L 356.11437 237.694887 
L 357.787847 190.09212 
L 359.461324 259.204537 
L 361.134801 205.957506 
L 364.481755 178.461497 
L 366.155232 136.038153 
L 367.828709 258.658284 
L 369.502186 255.774531 
L 371.175663 251.297224 
L 372.84914 260.708948 
L 374.522617 256.056094 
L 376.196094 240.443869 
L 377.869571 164.921026 
L 379.543048 184.223941 
L 381.216525 264.52562 
L 382.890002 219.86552 
L 384.563479 240.635374 
L 386.236956 203.731858 
L 387.910433 243.8402 
L 389.58391 224.614056 
L 391.257388 242.697146 
L 392.930865 255.37268 
L 394.604342 197.835136 
L 396.277819 217.606267 
L 397.951296 251.301582 
L 399.624773 223.599726 
L 399.624773 223.599726 
" style="fill:none;stroke:#1f77b4;stroke-linecap:square;stroke-width:1.5;"/>
   </g>
   <g id="line2d_19">
    <path clip-path="url(#p66a5efe2ea)" d="M 74.970227 256.695499 
L 76.643704 264.08925 
L 78.317181 261.509416 
L 79.990658 256.014405 
L 81.664135 254.15166 
L 83.337612 263.132358 
L 85.01109 260.655026 
L 86.684567 260.52131 
L 88.358044 232.269475 
L 90.031521 259.430913 
L 91.704998 248.914238 
L 93.378475 259.23301 
L 95.051952 263.561487 
L 96.725429 260.392304 
L 98.398906 259.9179 
L 100.072383 258.085667 
L 101.74586 260.486651 
L 103.419337 237.295215 
L 105.092814 259.402932 
L 106.766291 245.506659 
L 108.439768 261.970111 
L 110.113245 240.109438 
L 111.786722 261.351727 
L 113.460199 261.821069 
L 115.133676 262.901694 
L 116.807153 257.389036 
L 118.48063 258.089604 
L 120.154107 239.835398 
L 121.827584 257.34341 
L 123.501061 253.057115 
L 125.174538 262.097781 
L 126.848015 256.635601 
L 130.19497 263.088489 
L 131.868447 255.322625 
L 133.541924 261.235446 
L 135.215401 259.779474 
L 136.888878 259.281941 
L 138.562355 262.860708 
L 140.235832 216.485218 
L 141.909309 262.886298 
L 145.256263 245.677213 
L 146.92974 260.582755 
L 148.603217 261.576134 
L 150.276694 264.570051 
L 151.950171 249.107712 
L 153.623648 253.480901 
L 155.297125 260.399545 
L 156.970602 252.396901 
L 158.644079 262.230653 
L 160.317556 247.461148 
L 161.991033 259.538476 
L 163.66451 263.014179 
L 165.337987 262.645722 
L 167.011464 253.783203 
L 168.684941 262.542376 
L 170.358418 255.845467 
L 172.031896 200.428257 
L 173.705373 262.251604 
L 175.37885 256.990419 
L 177.052327 243.080156 
L 178.725804 261.178712 
L 180.399281 255.756674 
L 182.072758 249.214431 
L 183.746235 248.70804 
L 185.419712 257.513121 
L 187.093189 186.204021 
L 188.766666 257.653094 
L 190.440143 260.097173 
L 192.11362 259.471407 
L 193.787097 249.40903 
L 195.460574 261.381254 
L 197.134051 264.334255 
L 198.807528 232.185533 
L 200.481005 247.519359 
L 202.154482 247.504103 
L 203.827959 264.377984 
L 205.501436 264.032586 
L 207.174913 260.667399 
L 208.84839 256.778737 
L 210.521867 262.999626 
L 212.195344 261.55898 
L 213.868821 263.610417 
L 215.542299 248.453684 
L 217.215776 262.044773 
L 218.889253 254.129374 
L 220.56273 259.648359 
L 222.236207 262.750402 
L 223.909684 258.789258 
L 225.583161 262.071769 
L 227.256638 262.892203 
L 228.930115 262.297863 
L 230.603592 250.181869 
L 232.277069 246.135869 
L 233.950546 262.688677 
L 235.624023 260.017941 
L 237.2975 258.839455 
L 238.970977 244.801169 
L 240.644454 263.038785 
L 242.317931 264.195126 
L 243.991408 259.279691 
L 245.664885 261.894325 
L 247.338362 258.170101 
L 249.011839 260.727438 
L 250.685316 260.051406 
L 252.358793 260.610032 
L 254.03227 260.632318 
L 255.705747 254.810257 
L 257.379224 263.870186 
L 259.052701 258.726689 
L 260.726179 261.723489 
L 262.399656 261.818749 
L 264.073133 260.483135 
L 265.74661 262.557281 
L 267.420087 263.604793 
L 269.093564 262.662524 
L 270.767041 255.927721 
L 272.440518 255.43539 
L 274.113995 209.953239 
L 275.787472 261.51947 
L 277.460949 263.018538 
L 279.134426 239.73388 
L 280.807903 264.309439 
L 282.48138 262.949078 
L 284.154857 262.126324 
L 285.828334 263.747578 
L 287.501811 254.25606 
L 289.175288 264.01255 
L 290.848765 255.587245 
L 292.522242 264.5884 
L 294.195719 244.271367 
L 295.869196 250.981634 
L 297.542673 256.130545 
L 299.21615 262.180106 
L 302.563104 264.408425 
L 304.236582 262.06277 
L 305.910059 262.372876 
L 307.583536 263.812327 
L 309.257013 263.485278 
L 310.93049 257.691409 
L 312.603967 263.886778 
L 314.277444 238.077545 
L 315.950921 256.918921 
L 317.624398 261.314115 
L 319.297875 256.090754 
L 320.971352 261.389339 
L 322.644829 264.133119 
L 324.318306 256.251888 
L 325.991783 264.401887 
L 327.66526 260.642582 
L 329.338737 233.190442 
L 331.012214 262.112193 
L 332.685691 264.226552 
L 334.359168 260.775876 
L 336.032645 262.730085 
L 337.706122 245.336666 
L 339.379599 262.810652 
L 341.053076 258.431909 
L 342.726553 260.473504 
L 344.40003 262.746887 
L 346.073507 263.54377 
L 347.746985 259.922822 
L 349.420462 262.551024 
L 351.093939 262.200494 
L 352.767416 252.949341 
L 354.440893 262.609023 
L 356.11437 263.115626 
L 357.787847 260.256549 
L 359.461324 260.584301 
L 361.134801 259.548248 
L 362.808278 264.064011 
L 364.481755 225.933922 
L 366.155232 261.776989 
L 367.828709 263.766419 
L 369.502186 262.684247 
L 371.175663 250.845809 
L 372.84914 246.760369 
L 374.522617 261.772841 
L 376.196094 251.47038 
L 377.869571 258.870599 
L 381.216525 264.552476 
L 382.890002 251.092783 
L 384.563479 256.798985 
L 386.236956 259.4094 
L 387.910433 255.200157 
L 389.58391 258.245606 
L 391.257388 263.47642 
L 392.930865 264.118707 
L 394.604342 259.746221 
L 396.277819 261.054346 
L 397.951296 263.6133 
L 399.624773 263.703498 
L 399.624773 263.703498 
" style="fill:none;stroke:#ff7f0e;stroke-linecap:square;stroke-width:1.5;"/>
   </g>
   <g id="line2d_20">
    <path clip-path="url(#p66a5efe2ea)" d="M 74.970227 262.92398 
L 76.643704 264.389232 
L 78.317181 263.440987 
L 79.990658 264.369758 
L 81.664135 262.927706 
L 85.01109 263.335393 
L 86.684567 263.860906 
L 88.358044 263.846916 
L 90.031521 260.831135 
L 91.704998 257.369984 
L 93.378475 263.434379 
L 95.051952 264.517676 
L 96.725429 263.993568 
L 100.072383 263.424888 
L 101.74586 263.287165 
L 103.419337 259.00783 
L 105.092814 264.321039 
L 106.766291 260.948048 
L 108.439768 262.995338 
L 110.113245 262.118942 
L 111.786722 263.436699 
L 113.460199 263.591787 
L 115.133676 264.318156 
L 116.807153 263.813944 
L 118.48063 264.354362 
L 120.154107 259.32117 
L 121.827584 263.664129 
L 123.501061 263.502713 
L 125.174538 262.545962 
L 126.848015 264.097335 
L 128.521493 260.51435 
L 130.19497 263.10733 
L 131.868447 261.56369 
L 133.541924 263.906603 
L 135.215401 263.286462 
L 136.888878 263.4393 
L 138.562355 264.006574 
L 140.235832 245.627931 
L 141.909309 263.841854 
L 143.582786 259.926548 
L 145.256263 251.325204 
L 146.92974 264.076385 
L 148.603217 262.500335 
L 150.276694 264.582987 
L 151.950171 256.331752 
L 153.623648 259.880077 
L 155.297125 263.151691 
L 158.644079 264.361392 
L 160.317556 262.750051 
L 161.991033 258.697865 
L 163.66451 262.563608 
L 165.337987 261.116916 
L 167.011464 263.062969 
L 168.684941 264.296151 
L 170.358418 262.944438 
L 172.031896 254.79929 
L 173.705373 264.229575 
L 175.37885 260.808216 
L 177.052327 261.16444 
L 178.725804 263.903932 
L 180.399281 264.35612 
L 183.746235 264.047209 
L 185.419712 264.070409 
L 187.093189 257.830187 
L 188.766666 263.864 
L 192.11362 263.192889 
L 193.787097 251.484229 
L 195.460574 263.656184 
L 197.134051 264.177199 
L 198.807528 251.401905 
L 200.481005 260.927168 
L 202.154482 259.32595 
L 203.827959 264.553319 
L 207.174913 262.53619 
L 208.84839 264.069425 
L 210.521867 263.064375 
L 212.195344 263.562049 
L 213.868821 264.364415 
L 215.542299 262.404934 
L 217.215776 264.088125 
L 218.889253 261.13892 
L 222.236207 264.197868 
L 223.909684 263.047924 
L 225.583161 264.250173 
L 227.256638 264.091781 
L 228.930115 264.245955 
L 230.603592 256.395587 
L 232.277069 247.845846 
L 233.950546 257.422219 
L 235.624023 262.496469 
L 237.2975 262.921449 
L 238.970977 259.877828 
L 240.644454 262.593135 
L 242.317931 263.677486 
L 243.991408 263.24653 
L 245.664885 263.165189 
L 247.338362 263.893105 
L 249.011839 263.709896 
L 250.685316 264.258328 
L 252.358793 264.009948 
L 254.03227 263.298132 
L 255.705747 263.60409 
L 257.379224 264.230629 
L 259.052701 261.574868 
L 260.726179 263.965447 
L 262.399656 263.625884 
L 264.073133 262.687341 
L 265.74661 261.945505 
L 267.420087 264.197024 
L 269.093564 264.384241 
L 270.767041 264.303603 
L 272.440518 262.686146 
L 274.113995 263.409914 
L 275.787472 262.716446 
L 277.460949 264.425649 
L 279.134426 261.183422 
L 280.807903 264.429727 
L 282.48138 264.480696 
L 284.154857 264.108865 
L 285.828334 264.428391 
L 287.501811 260.621773 
L 289.175288 263.93592 
L 290.848765 264.014307 
L 292.522242 264.589174 
L 294.195719 244.553914 
L 295.869196 264.055153 
L 297.542673 263.196896 
L 299.21615 263.660824 
L 300.889627 263.879818 
L 302.563104 264.44217 
L 304.236582 262.650713 
L 305.910059 264.132627 
L 307.583536 264.371024 
L 309.257013 262.4249 
L 310.93049 263.602122 
L 312.603967 263.770216 
L 314.277444 264.451591 
L 315.950921 262.706674 
L 317.624398 264.429656 
L 319.297875 262.072613 
L 320.971352 264.299807 
L 322.644829 264.103943 
L 324.318306 256.705833 
L 325.991783 264.367931 
L 329.338737 256.019959 
L 331.012214 263.709193 
L 332.685691 262.739506 
L 334.359168 264.147883 
L 336.032645 263.515719 
L 337.706122 258.980482 
L 339.379599 263.471007 
L 341.053076 259.029905 
L 342.726553 264.142188 
L 344.40003 263.157456 
L 346.073507 264.417424 
L 347.746985 262.668429 
L 349.420462 262.712017 
L 351.093939 263.763045 
L 352.767416 255.677513 
L 354.440893 264.39338 
L 356.11437 263.708701 
L 357.787847 262.416253 
L 359.461324 262.317337 
L 361.134801 263.67601 
L 362.808278 264.44674 
L 364.481755 260.384711 
L 366.155232 263.424326 
L 367.828709 264.423821 
L 369.502186 264.28898 
L 371.175663 258.840509 
L 372.84914 260.817988 
L 374.522617 262.179754 
L 376.196094 262.298636 
L 377.869571 260.314268 
L 379.543048 263.171868 
L 381.216525 264.578909 
L 382.890002 261.576274 
L 384.563479 263.91504 
L 386.236956 261.354469 
L 387.910433 259.020555 
L 389.58391 260.598784 
L 391.257388 264.318648 
L 392.930865 264.369196 
L 394.604342 264.304658 
L 396.277819 263.414554 
L 397.951296 263.446963 
L 399.624773 264.030266 
L 399.624773 264.030266 
" style="fill:none;stroke:#2ca02c;stroke-linecap:square;stroke-width:1.5;"/>
   </g>
   <g id="line2d_21">
    <path clip-path="url(#p66a5efe2ea)" d="M 74.970227 264.359213 
L 76.643704 264.533916 
L 78.317181 263.888324 
L 79.990658 263.855142 
L 81.664135 262.318602 
L 83.337612 264.325889 
L 85.01109 262.536822 
L 86.684567 264.064503 
L 88.358044 257.102763 
L 91.704998 263.071827 
L 93.378475 262.386093 
L 95.051952 264.35394 
L 96.725429 260.831978 
L 98.398906 259.963808 
L 100.072383 264.145352 
L 101.74586 262.323172 
L 103.419337 260.233771 
L 105.092814 264.114067 
L 106.766291 259.798737 
L 108.439768 263.802485 
L 110.113245 261.902128 
L 111.786722 264.332709 
L 113.460199 264.320054 
L 115.133676 262.61521 
L 116.807153 262.701964 
L 118.48063 264.005941 
L 120.154107 256.610151 
L 121.827584 258.503548 
L 123.501061 261.699656 
L 125.174538 262.744567 
L 126.848015 264.167005 
L 128.521493 263.472975 
L 130.19497 262.583011 
L 131.868447 254.417124 
L 133.541924 264.261773 
L 135.215401 264.127284 
L 136.888878 261.817202 
L 138.562355 264.250876 
L 140.235832 234.15345 
L 141.909309 264.072096 
L 143.582786 261.467586 
L 145.256263 251.205197 
L 146.92974 263.604934 
L 148.603217 263.124554 
L 150.276694 264.585237 
L 151.950171 258.443228 
L 153.623648 262.676795 
L 155.297125 263.044901 
L 156.970602 264.196813 
L 158.644079 263.233594 
L 160.317556 262.581394 
L 161.991033 260.991777 
L 163.66451 264.041303 
L 165.337987 264.327928 
L 167.011464 263.806281 
L 168.684941 264.510434 
L 170.358418 263.546231 
L 172.031896 263.2234 
L 173.705373 264.434718 
L 175.37885 262.707096 
L 177.052327 262.270023 
L 178.725804 263.838058 
L 180.399281 264.207429 
L 182.072758 263.945551 
L 183.746235 263.460039 
L 185.419712 263.732322 
L 187.093189 234.247938 
L 188.766666 263.208215 
L 190.440143 264.340583 
L 192.11362 264.137056 
L 193.787097 261.111854 
L 195.460574 264.01487 
L 197.134051 264.276537 
L 198.807528 263.759811 
L 200.481005 260.750849 
L 202.154482 262.878283 
L 203.827959 264.242088 
L 205.501436 264.488008 
L 207.174913 263.864914 
L 208.84839 263.940981 
L 210.521867 263.630875 
L 212.195344 263.818584 
L 213.868821 264.27499 
L 215.542299 262.353191 
L 217.215776 264.467831 
L 218.889253 262.136096 
L 220.56273 263.981335 
L 222.236207 264.111677 
L 223.909684 263.991318 
L 225.583161 264.174738 
L 227.256638 263.96629 
L 228.930115 264.400832 
L 230.603592 262.112334 
L 232.277069 256.565017 
L 233.950546 254.168744 
L 235.624023 263.930506 
L 237.2975 262.814097 
L 238.970977 252.922555 
L 240.644454 262.958077 
L 242.317931 263.617518 
L 243.991408 263.163361 
L 245.664885 263.778511 
L 247.338362 263.919539 
L 249.011839 263.769934 
L 250.685316 264.19836 
L 252.358793 262.479736 
L 254.03227 263.676643 
L 255.705747 263.525491 
L 257.379224 264.100217 
L 259.052701 263.984358 
L 260.726179 263.281611 
L 262.399656 264.426985 
L 264.073133 262.187769 
L 265.74661 262.710119 
L 267.420087 264.091851 
L 269.093564 264.406246 
L 270.767041 260.566725 
L 272.440518 263.217495 
L 274.113995 252.520915 
L 275.787472 262.091665 
L 277.460949 264.517324 
L 279.134426 262.27171 
L 280.807903 264.020072 
L 284.154857 264.2726 
L 285.828334 264.33074 
L 287.501811 259.314702 
L 289.175288 264.229293 
L 290.848765 263.521695 
L 292.522242 264.589244 
L 294.195719 250.145593 
L 295.869196 263.725573 
L 297.542673 263.112954 
L 299.21615 263.268324 
L 300.889627 264.157092 
L 302.563104 264.448357 
L 304.236582 261.028475 
L 305.910059 264.460309 
L 307.583536 264.312743 
L 309.257013 262.653877 
L 310.93049 264.164404 
L 312.603967 264.335451 
L 314.277444 262.762916 
L 315.950921 261.978055 
L 317.624398 264.320265 
L 319.297875 261.306312 
L 320.971352 260.239817 
L 322.644829 263.648451 
L 324.318306 256.067554 
L 325.991783 264.430359 
L 327.66526 261.697547 
L 329.338737 257.498639 
L 331.012214 264.232387 
L 332.685691 261.955699 
L 334.359168 264.455739 
L 336.032645 264.164826 
L 337.706122 255.196923 
L 339.379599 264.443225 
L 341.053076 263.467984 
L 342.726553 264.123417 
L 344.40003 263.544754 
L 346.073507 264.242651 
L 347.746985 263.611261 
L 349.420462 261.172806 
L 351.093939 263.667574 
L 352.767416 262.235645 
L 354.440893 264.36076 
L 356.11437 264.440413 
L 359.461324 263.199567 
L 361.134801 263.992513 
L 362.808278 264.078072 
L 364.481755 235.165319 
L 366.155232 263.829762 
L 367.828709 264.466214 
L 371.175663 263.515087 
L 374.522617 263.273526 
L 376.196094 263.983655 
L 377.869571 262.125551 
L 379.543048 261.219839 
L 381.216525 264.582917 
L 382.890002 262.303065 
L 384.563479 264.072659 
L 386.236956 260.317713 
L 387.910433 263.241749 
L 389.58391 260.304215 
L 391.257388 264.012901 
L 392.930865 264.49089 
L 394.604342 263.145364 
L 396.277819 263.582156 
L 397.951296 264.439077 
L 399.624773 264.220716 
L 399.624773 264.220716 
" style="fill:none;stroke:#d62728;stroke-linecap:square;stroke-width:1.5;"/>
   </g>
   <g id="line2d_22">
    <path clip-path="url(#p66a5efe2ea)" d="M 74.970227 264.272319 
L 76.643704 264.363712 
L 78.317181 264.018104 
L 79.990658 264.092765 
L 81.664135 263.536529 
L 83.337612 264.382061 
L 85.01109 262.622522 
L 86.684567 264.051708 
L 88.358044 260.216477 
L 90.031521 261.976227 
L 91.704998 262.190932 
L 93.378475 263.157878 
L 95.051952 264.544813 
L 96.725429 262.444937 
L 98.398906 256.022279 
L 100.072383 263.522117 
L 101.74586 263.139599 
L 103.419337 257.280348 
L 105.092814 264.088547 
L 106.766291 262.506311 
L 108.439768 263.454345 
L 110.113245 261.973275 
L 111.786722 263.320629 
L 113.460199 264.04503 
L 115.133676 262.26468 
L 116.807153 260.090353 
L 118.48063 264.351691 
L 120.154107 262.369853 
L 121.827584 259.582275 
L 123.501061 260.174365 
L 125.174538 262.962084 
L 126.848015 264.089602 
L 130.19497 263.421232 
L 131.868447 258.691467 
L 133.541924 264.166653 
L 135.215401 264.058598 
L 136.888878 263.42756 
L 138.562355 264.225919 
L 140.235832 202.64596 
L 141.909309 263.539482 
L 143.582786 263.361615 
L 145.256263 252.390785 
L 146.92974 263.853665 
L 148.603217 263.153027 
L 150.276694 264.587486 
L 151.950171 262.66625 
L 153.623648 263.726628 
L 155.297125 263.842557 
L 156.970602 264.327788 
L 160.317556 263.029153 
L 161.991033 262.307424 
L 163.66451 264.086438 
L 165.337987 263.481763 
L 167.011464 263.520008 
L 168.684941 264.340302 
L 170.358418 263.323511 
L 172.031896 258.003554 
L 173.705373 264.487024 
L 175.37885 263.096433 
L 178.725804 264.096772 
L 180.399281 264.217412 
L 182.072758 263.922843 
L 183.746235 263.254333 
L 185.419712 263.836792 
L 187.093189 249.742898 
L 188.766666 263.874123 
L 190.440143 263.43227 
L 192.11362 263.637835 
L 193.787097 261.76335 
L 195.460574 264.406738 
L 197.134051 264.524847 
L 198.807528 258.568156 
L 200.481005 257.020017 
L 202.154482 261.23643 
L 203.827959 264.39324 
L 207.174913 264.114629 
L 208.84839 263.292719 
L 210.521867 264.04285 
L 212.195344 262.544134 
L 213.868821 264.509661 
L 215.542299 261.319528 
L 217.215776 264.091289 
L 218.889253 262.333928 
L 220.56273 262.958921 
L 222.236207 264.133752 
L 223.909684 263.879396 
L 225.583161 264.161521 
L 227.256638 264.169606 
L 228.930115 263.990475 
L 230.603592 262.132581 
L 232.277069 252.284768 
L 233.950546 263.609925 
L 237.2975 263.616745 
L 238.970977 262.042382 
L 240.644454 263.821256 
L 243.991408 263.912227 
L 245.664885 264.382132 
L 247.338362 261.112557 
L 249.011839 264.213827 
L 250.685316 264.355909 
L 252.358793 263.855704 
L 254.03227 263.663285 
L 255.705747 261.774739 
L 257.379224 264.463121 
L 259.052701 263.543067 
L 260.726179 263.559729 
L 262.399656 264.186409 
L 264.073133 260.395679 
L 265.74661 262.51545 
L 267.420087 263.798337 
L 269.093564 263.843542 
L 270.767041 261.91886 
L 272.440518 262.723617 
L 274.113995 254.733698 
L 275.787472 261.767428 
L 277.460949 264.406105 
L 279.134426 255.37493 
L 280.807903 262.772267 
L 282.48138 264.458199 
L 285.828334 264.34698 
L 287.501811 261.629916 
L 289.175288 264.461925 
L 290.848765 261.605591 
L 292.522242 264.589244 
L 294.195719 246.924948 
L 295.869196 261.267575 
L 297.542673 261.881459 
L 299.21615 260.754786 
L 300.889627 263.620822 
L 302.563104 264.466214 
L 304.236582 263.364709 
L 305.910059 264.466636 
L 309.257013 263.659418 
L 312.603967 263.538287 
L 314.277444 261.583586 
L 315.950921 263.657591 
L 317.624398 264.460168 
L 319.297875 260.976451 
L 320.971352 259.736941 
L 322.644829 264.278013 
L 324.318306 259.17276 
L 325.991783 264.292003 
L 327.66526 257.305517 
L 329.338737 239.015596 
L 331.012214 263.397118 
L 332.685691 263.470515 
L 334.359168 263.385308 
L 336.032645 264.214249 
L 337.706122 261.787253 
L 339.379599 264.11006 
L 341.053076 261.884904 
L 342.726553 264.134806 
L 344.40003 261.685174 
L 346.073507 264.510364 
L 347.746985 263.962916 
L 349.420462 260.703465 
L 351.093939 261.741556 
L 352.767416 260.192995 
L 354.440893 263.405484 
L 356.11437 264.415104 
L 357.787847 262.799755 
L 359.461324 260.273422 
L 361.134801 264.231192 
L 362.808278 264.460871 
L 364.481755 253.287216 
L 366.155232 263.75721 
L 367.828709 264.41433 
L 369.502186 263.944778 
L 371.175663 263.236828 
L 372.84914 262.831602 
L 374.522617 264.033219 
L 376.196094 262.660696 
L 377.869571 262.670468 
L 379.543048 263.192818 
L 381.216525 264.583479 
L 382.890002 263.641772 
L 384.563479 262.967357 
L 386.236956 254.974555 
L 387.910433 259.797964 
L 389.58391 253.799091 
L 391.257388 264.500873 
L 392.930865 264.365681 
L 394.604342 263.754608 
L 396.277819 264.320828 
L 397.951296 264.400762 
L 399.624773 264.270842 
L 399.624773 264.270842 
" style="fill:none;stroke:#9467bd;stroke-linecap:square;stroke-width:1.5;"/>
   </g>
   <g id="line2d_23">
    <path clip-path="url(#p66a5efe2ea)" d="M 74.970227 264.41194 
L 76.643704 264.501506 
L 78.317181 264.055997 
L 79.990658 263.98949 
L 81.664135 262.957304 
L 83.337612 264.368282 
L 85.01109 263.607465 
L 86.684567 264.082501 
L 88.358044 260.961546 
L 90.031521 263.802907 
L 91.704998 263.21883 
L 93.378475 262.767627 
L 95.051952 264.5117 
L 96.725429 263.409281 
L 98.398906 262.564522 
L 100.072383 264.316609 
L 101.74586 264.037015 
L 103.419337 261.951621 
L 105.092814 264.151468 
L 106.766291 262.82169 
L 108.439768 263.677697 
L 110.113245 263.600715 
L 111.786722 263.184382 
L 113.460199 264.301424 
L 115.133676 264.022181 
L 116.807153 263.562049 
L 118.48063 264.398934 
L 120.154107 263.438175 
L 121.827584 261.702327 
L 123.501061 262.28549 
L 126.848015 264.451591 
L 128.521493 263.766349 
L 130.19497 264.224372 
L 131.868447 261.00661 
L 133.541924 264.512614 
L 136.888878 262.898952 
L 138.562355 264.185846 
L 140.235832 228.244003 
L 141.909309 263.913634 
L 143.582786 262.889391 
L 145.256263 254.783261 
L 146.92974 264.105349 
L 148.603217 263.126593 
L 150.276694 264.587838 
L 151.950171 264.016557 
L 155.297125 264.106193 
L 156.970602 263.897675 
L 158.644079 263.841854 
L 160.317556 263.498706 
L 161.991033 261.573111 
L 163.66451 264.289473 
L 165.337987 262.380609 
L 167.011464 263.098753 
L 168.684941 264.297136 
L 170.358418 264.029422 
L 172.031896 259.190266 
L 173.705373 264.501295 
L 175.37885 263.34186 
L 177.052327 261.525305 
L 178.725804 264.266765 
L 180.399281 263.402672 
L 182.072758 264.112169 
L 183.746235 263.82927 
L 185.419712 263.339822 
L 187.093189 227.169635 
L 188.766666 263.09348 
L 192.11362 263.728385 
L 193.787097 261.248593 
L 195.460574 264.485336 
L 197.134051 264.426493 
L 198.807528 261.093645 
L 200.481005 261.772419 
L 202.154482 257.702025 
L 203.827959 264.392537 
L 205.501436 264.366806 
L 207.174913 263.530061 
L 208.84839 263.584616 
L 210.521867 264.4189 
L 212.195344 263.735275 
L 213.868821 264.496585 
L 215.542299 263.541099 
L 217.215776 264.041936 
L 218.889253 263.224736 
L 220.56273 263.847127 
L 222.236207 264.075682 
L 223.909684 262.663016 
L 225.583161 264.074768 
L 227.256638 264.438796 
L 228.930115 263.913423 
L 230.603592 254.830364 
L 232.277069 259.788473 
L 233.950546 254.144067 
L 235.624023 263.094535 
L 237.2975 263.206457 
L 238.970977 262.088079 
L 240.644454 263.680017 
L 242.317931 263.332299 
L 243.991408 264.138181 
L 245.664885 264.527096 
L 247.338362 263.857743 
L 249.011839 264.357807 
L 250.685316 264.442522 
L 252.358793 263.484153 
L 254.03227 264.39324 
L 255.705747 263.329768 
L 257.379224 264.250525 
L 259.052701 263.941403 
L 260.726179 263.994341 
L 262.399656 264.279349 
L 264.073133 261.426529 
L 265.74661 263.92439 
L 267.420087 264.198009 
L 269.093564 263.725573 
L 270.767041 263.579343 
L 272.440518 262.811355 
L 274.113995 257.94696 
L 275.787472 263.739564 
L 277.460949 264.342762 
L 279.134426 261.388144 
L 280.807903 263.542364 
L 282.48138 264.378265 
L 285.828334 264.465862 
L 287.501811 263.209972 
L 289.175288 263.529077 
L 290.848765 263.41146 
L 292.522242 264.588963 
L 294.195719 250.624144 
L 295.869196 261.13196 
L 297.542673 263.006727 
L 300.889627 264.275693 
L 302.563104 264.526956 
L 304.236582 263.74111 
L 305.910059 264.365259 
L 307.583536 263.791869 
L 309.257013 263.812819 
L 310.93049 264.219029 
L 312.603967 264.157655 
L 314.277444 263.248076 
L 315.950921 263.729229 
L 317.624398 264.39563 
L 319.297875 260.542752 
L 320.971352 262.982191 
L 322.644829 264.369899 
L 324.318306 261.28508 
L 325.991783 264.245393 
L 327.66526 261.776708 
L 329.338737 257.887695 
L 331.012214 264.221701 
L 332.685691 261.762999 
L 334.359168 263.239007 
L 336.032645 264.332217 
L 337.706122 262.229107 
L 339.379599 264.213053 
L 341.053076 263.984639 
L 342.726553 264.078072 
L 344.40003 263.428052 
L 346.073507 264.372641 
L 347.746985 264.211718 
L 349.420462 262.640097 
L 351.093939 263.346992 
L 352.767416 263.041667 
L 354.440893 264.030266 
L 356.11437 264.450747 
L 357.787847 263.372794 
L 359.461324 262.690153 
L 361.134801 264.430992 
L 362.808278 264.475072 
L 364.481755 248.068143 
L 366.155232 264.24469 
L 367.828709 264.480485 
L 369.502186 264.389724 
L 371.175663 262.151071 
L 372.84914 262.087447 
L 374.522617 263.394025 
L 376.196094 263.703287 
L 377.869571 262.837437 
L 379.543048 263.599099 
L 381.216525 264.585518 
L 382.890002 263.617588 
L 384.563479 263.857672 
L 386.236956 256.444307 
L 387.910433 260.943619 
L 389.58391 259.907917 
L 391.257388 264.32828 
L 392.930865 264.550296 
L 394.604342 263.889941 
L 399.624773 264.461433 
L 399.624773 264.461433 
" style="fill:none;stroke:#8c564b;stroke-linecap:square;stroke-width:1.5;"/>
   </g>
   <g id="line2d_24">
    <path clip-path="url(#p66a5efe2ea)" d="M 74.970227 264.220646 
L 76.643704 264.565692 
L 78.317181 264.269717 
L 79.990658 264.160186 
L 81.664135 263.30235 
L 83.337612 264.257696 
L 85.01109 263.810359 
L 86.684567 264.296151 
L 88.358044 262.6221 
L 90.031521 264.383749 
L 91.704998 261.942412 
L 93.378475 264.055645 
L 95.051952 264.575465 
L 96.725429 264.344379 
L 98.398906 264.326311 
L 100.072383 263.834121 
L 101.74586 264.071604 
L 103.419337 261.456478 
L 105.092814 264.360057 
L 108.439768 262.18798 
L 110.113245 261.871336 
L 111.786722 263.71545 
L 113.460199 264.427618 
L 115.133676 262.669695 
L 116.807153 264.126159 
L 118.48063 264.130729 
L 120.154107 263.620189 
L 121.827584 264.3654 
L 123.501061 263.619275 
L 126.848015 264.443858 
L 128.521493 264.071604 
L 130.19497 264.352886 
L 131.868447 262.234731 
L 133.541924 264.420166 
L 136.888878 263.799391 
L 138.562355 264.435281 
L 140.235832 253.127277 
L 141.909309 264.336365 
L 143.582786 264.026751 
L 145.256263 262.445921 
L 146.92974 264.333974 
L 148.603217 264.382905 
L 150.276694 264.588822 
L 151.950171 264.123558 
L 153.623648 263.816756 
L 155.297125 264.344028 
L 156.970602 264.140571 
L 158.644079 263.790393 
L 160.317556 263.131514 
L 161.991033 263.072179 
L 163.66451 264.360408 
L 167.011464 262.934104 
L 168.684941 264.503193 
L 170.358418 264.366946 
L 172.031896 263.098753 
L 173.705373 264.574762 
L 175.37885 263.47642 
L 177.052327 262.808965 
L 178.725804 264.116035 
L 180.399281 264.482946 
L 182.072758 264.321179 
L 183.746235 263.77127 
L 185.419712 262.719329 
L 187.093189 257.238588 
L 188.766666 264.087422 
L 190.440143 264.299174 
L 192.11362 264.373906 
L 193.787097 263.014671 
L 195.460574 264.550577 
L 197.134051 264.545445 
L 198.807528 260.955219 
L 200.481005 263.353812 
L 202.154482 261.448886 
L 203.827959 264.480696 
L 207.174913 264.50945 
L 208.84839 264.116528 
L 210.521867 264.465792 
L 212.195344 264.227325 
L 213.868821 264.45363 
L 215.542299 263.33244 
L 217.215776 264.456934 
L 218.889253 264.022111 
L 220.56273 263.901331 
L 222.236207 264.367438 
L 223.909684 263.231133 
L 225.583161 264.010933 
L 227.256638 264.324483 
L 228.930115 264.114911 
L 230.603592 252.942381 
L 232.277069 260.584371 
L 233.950546 261.383926 
L 235.624023 264.257696 
L 237.2975 264.099725 
L 238.970977 263.03295 
L 240.644454 264.090937 
L 243.991408 264.492437 
L 245.664885 264.56042 
L 247.338362 264.36315 
L 249.011839 264.539188 
L 250.685316 264.56049 
L 252.358793 264.355979 
L 254.03227 264.305502 
L 255.705747 264.004957 
L 257.379224 264.468815 
L 260.726179 264.094593 
L 262.399656 264.500873 
L 264.073133 262.822814 
L 265.74661 263.947379 
L 267.420087 264.371516 
L 269.093564 264.327928 
L 272.440518 263.402672 
L 274.113995 260.849694 
L 275.787472 263.290539 
L 277.460949 264.465511 
L 279.134426 263.006656 
L 280.807903 264.432328 
L 282.48138 264.542703 
L 284.154857 264.436054 
L 285.828334 264.493773 
L 287.501811 264.094382 
L 289.175288 264.457075 
L 290.848765 264.301705 
L 292.522242 264.588892 
L 294.195719 255.570583 
L 295.869196 263.237812 
L 297.542673 264.413065 
L 299.21615 264.284059 
L 300.889627 264.527237 
L 302.563104 264.56977 
L 304.236582 264.341075 
L 305.910059 264.543406 
L 312.603967 264.274147 
L 314.277444 263.829692 
L 315.950921 264.322515 
L 317.624398 264.53504 
L 319.297875 263.213487 
L 320.971352 262.632294 
L 322.644829 264.498905 
L 324.318306 264.242862 
L 325.991783 264.476056 
L 327.66526 263.670948 
L 329.338737 260.592034 
L 331.012214 263.746805 
L 332.685691 264.185776 
L 334.359168 264.468675 
L 336.032645 264.235058 
L 337.706122 263.583421 
L 339.379599 264.304517 
L 341.053076 264.008824 
L 342.726553 264.326241 
L 344.40003 264.187604 
L 346.073507 264.541719 
L 349.420462 263.843542 
L 351.093939 263.927553 
L 352.767416 263.267339 
L 354.440893 264.229575 
L 356.11437 264.512965 
L 359.461324 264.090375 
L 361.134801 264.496304 
L 362.808278 264.566114 
L 364.481755 261.27341 
L 366.155232 264.481681 
L 367.828709 264.506497 
L 369.502186 264.36322 
L 371.175663 263.216721 
L 374.522617 263.569853 
L 376.196094 264.393099 
L 377.869571 263.146137 
L 381.216525 264.587627 
L 382.890002 263.785823 
L 384.563479 264.164966 
L 386.236956 263.313388 
L 387.910433 263.285829 
L 389.58391 261.544076 
L 391.257388 264.534619 
L 392.930865 264.575676 
L 394.604342 264.409269 
L 397.951296 264.394364 
L 399.624773 264.543899 
L 399.624773 264.543899 
" style="fill:none;stroke:#e377c2;stroke-linecap:square;stroke-width:1.5;"/>
   </g>
   <g id="line2d_25">
    <path clip-path="url(#p66a5efe2ea)" d="M 74.970227 263.966642 
L 76.643704 264.484352 
L 78.317181 264.312813 
L 79.990658 264.310634 
L 81.664135 263.751726 
L 83.337612 264.337068 
L 85.01109 263.749898 
L 86.684567 264.336224 
L 88.358044 263.104377 
L 90.031521 264.439499 
L 91.704998 263.761498 
L 93.378475 264.292214 
L 95.051952 264.574621 
L 100.072383 264.333693 
L 101.74586 264.006996 
L 103.419337 262.676374 
L 105.092814 264.372711 
L 106.766291 263.279361 
L 108.439768 264.01037 
L 110.113245 263.929381 
L 111.786722 263.669472 
L 113.460199 264.444279 
L 115.133676 263.699069 
L 116.807153 263.124695 
L 118.48063 264.449974 
L 120.154107 264.248838 
L 121.827584 264.438655 
L 123.501061 264.199344 
L 125.174538 264.479571 
L 126.848015 264.540173 
L 128.521493 264.225075 
L 130.19497 264.330881 
L 131.868447 263.743782 
L 133.541924 264.527729 
L 135.215401 264.241667 
L 136.888878 264.227536 
L 138.562355 264.536236 
L 140.235832 259.082984 
L 141.909309 264.537993 
L 143.582786 264.403363 
L 145.256263 263.467913 
L 146.92974 264.515637 
L 148.603217 264.482102 
L 150.276694 264.588892 
L 151.950171 264.115403 
L 153.623648 263.288852 
L 155.297125 264.341708 
L 158.644079 264.419533 
L 160.317556 263.943864 
L 161.991033 263.906252 
L 163.66451 264.373906 
L 165.337987 263.666097 
L 167.011464 263.719316 
L 168.684941 264.519152 
L 170.358418 264.377703 
L 172.031896 263.837636 
L 173.705373 264.580175 
L 175.37885 263.312685 
L 177.052327 263.93149 
L 178.725804 264.311407 
L 182.072758 264.497218 
L 183.746235 264.053255 
L 187.093189 263.641913 
L 188.766666 264.537853 
L 190.440143 264.421572 
L 192.11362 264.530822 
L 193.787097 264.078353 
L 195.460574 264.564638 
L 197.134051 264.577644 
L 198.807528 262.37379 
L 200.481005 264.415315 
L 202.154482 263.58089 
L 203.827959 264.52337 
L 208.84839 264.493421 
L 210.521867 264.420658 
L 213.868821 264.550929 
L 215.542299 263.76881 
L 217.215776 264.513457 
L 218.889253 264.164755 
L 220.56273 264.246869 
L 222.236207 264.488851 
L 223.909684 263.906322 
L 225.583161 264.485266 
L 228.930115 264.403293 
L 230.603592 259.037006 
L 232.277069 263.49041 
L 233.950546 263.099175 
L 235.624023 264.40259 
L 237.2975 264.527026 
L 238.970977 263.841925 
L 240.644454 264.235199 
L 242.317931 264.438866 
L 245.664885 264.543336 
L 247.338362 264.455879 
L 249.011839 264.556342 
L 254.03227 264.441327 
L 255.705747 264.320336 
L 257.379224 264.510997 
L 259.052701 264.386561 
L 262.399656 264.534619 
L 264.073133 263.609574 
L 265.74661 264.527799 
L 269.093564 264.341426 
L 270.767041 263.913423 
L 272.440518 264.361111 
L 274.113995 263.501167 
L 275.787472 264.147391 
L 277.460949 264.540946 
L 279.134426 263.815069 
L 280.807903 264.537079 
L 284.154857 264.530541 
L 285.828334 264.519011 
L 287.501811 263.876303 
L 289.175288 264.51177 
L 292.522242 264.589103 
L 294.195719 254.409883 
L 295.869196 263.857532 
L 297.542673 264.515356 
L 302.563104 264.581019 
L 304.236582 264.506849 
L 307.583536 264.520769 
L 309.257013 264.439077 
L 312.603967 264.553811 
L 314.277444 264.143805 
L 315.950921 264.521964 
L 317.624398 264.556413 
L 319.297875 263.326183 
L 320.971352 263.339892 
L 322.644829 264.567309 
L 325.991783 264.546359 
L 327.66526 263.645288 
L 331.012214 263.974235 
L 332.685691 264.397036 
L 334.359168 264.508255 
L 337.706122 264.349652 
L 339.379599 264.547203 
L 341.053076 264.329334 
L 342.726553 264.317031 
L 346.073507 264.533283 
L 351.093939 264.234988 
L 352.767416 263.795595 
L 354.440893 264.441749 
L 356.11437 264.535814 
L 357.787847 264.30508 
L 362.808278 264.552968 
L 364.481755 262.651065 
L 366.155232 264.495741 
L 369.502186 264.492015 
L 371.175663 263.898026 
L 374.522617 264.040671 
L 376.196094 264.404137 
L 377.869571 263.91743 
L 379.543048 264.408495 
L 381.216525 264.588541 
L 382.890002 263.615971 
L 384.563479 264.42129 
L 386.236956 264.098249 
L 387.910433 264.204898 
L 389.58391 262.713775 
L 391.257388 264.573918 
L 399.624773 264.571457 
L 399.624773 264.571457 
" style="fill:none;stroke:#7f7f7f;stroke-linecap:square;stroke-width:1.5;"/>
   </g>
   <g id="line2d_26">
    <path clip-path="url(#p66a5efe2ea)" d="M 74.970227 264.589244 
L 187.093189 264.58594 
L 399.624773 264.58594 
L 399.624773 264.58594 
" style="fill:none;stroke:#bcbd22;stroke-linecap:square;stroke-width:1.5;"/>
   </g>
   <g id="line2d_27">
    <path clip-path="url(#p66a5efe2ea)" d="M 74.970227 264.589244 
L 113.460199 264.585448 
L 399.624773 264.584323 
L 399.624773 264.584323 
" style="fill:none;stroke:#17becf;stroke-linecap:square;stroke-width:1.5;"/>
   </g>
   <g id="line2d_28">
    <path clip-path="url(#p66a5efe2ea)" d="M 74.970227 264.583339 
L 399.624773 264.569559 
L 399.624773 264.569559 
" style="fill:none;stroke:#1f77b4;stroke-linecap:square;stroke-width:1.5;"/>
   </g>
   <g id="line2d_29">
    <path clip-path="url(#p66a5efe2ea)" d="M 74.970227 264.589244 
L 399.624773 264.589244 
L 399.624773 264.589244 
" style="fill:none;stroke:#ff7f0e;stroke-linecap:square;stroke-width:1.5;"/>
   </g>
   <g id="patch_3">
    <path d="M 58.7375 276.812 
L 58.7375 10.7 
" style="fill:none;stroke:#000000;stroke-linecap:square;stroke-linejoin:miter;stroke-width:0.8;"/>
   </g>
   <g id="patch_4">
    <path d="M 415.8575 276.812 
L 415.8575 10.7 
" style="fill:none;stroke:#000000;stroke-linecap:square;stroke-linejoin:miter;stroke-width:0.8;"/>
   </g>
   <g id="patch_5">
    <path d="M 58.7375 276.812 
L 415.8575 276.812 
" style="fill:none;stroke:#000000;stroke-linecap:square;stroke-linejoin:miter;stroke-width:0.8;"/>
   </g>
   <g id="patch_6">
    <path d="M 58.7375 10.7 
L 415.8575 10.7 
" style="fill:none;stroke:#000000;stroke-linecap:square;stroke-linejoin:miter;stroke-width:0.8;"/>
   </g>
   <g id="legend_1">
    <g id="patch_7">
     <path d="M 318.504375 165.48125 
L 408.8575 165.48125 
Q 410.8575 165.48125 410.8575 163.48125 
L 410.8575 17.7 
Q 410.8575 15.7 408.8575 15.7 
L 318.504375 15.7 
Q 316.504375 15.7 316.504375 17.7 
L 316.504375 163.48125 
Q 316.504375 165.48125 318.504375 165.48125 
z
" style="fill:#ffffff;opacity:0.8;stroke:#cccccc;stroke-linejoin:miter;"/>
    </g>
    <g id="line2d_30">
     <path d="M 320.504375 23.798437 
L 340.504375 23.798437 
" style="fill:none;stroke:#1f77b4;stroke-linecap:square;stroke-width:1.5;"/>
    </g>
    <g id="line2d_31"/>
    <g id="text_18">
     <!-- delta -->
     <defs>
      <path d="M 45.40625 46.390625 
L 45.40625 75.984375 
L 54.390625 75.984375 
L 54.390625 0 
L 45.40625 0 
L 45.40625 8.203125 
Q 42.578125 3.328125 38.25 0.953125 
Q 33.9375 -1.421875 27.875 -1.421875 
Q 17.96875 -1.421875 11.734375 6.484375 
Q 5.515625 14.40625 5.515625 27.296875 
Q 5.515625 40.1875 11.734375 48.09375 
Q 17.96875 56 27.875 56 
Q 33.9375 56 38.25 53.625 
Q 42.578125 51.265625 45.40625 46.390625 
M 14.796875 27.296875 
Q 14.796875 17.390625 18.875 11.75 
Q 22.953125 6.109375 30.078125 6.109375 
Q 37.203125 6.109375 41.296875 11.75 
Q 45.40625 17.390625 45.40625 27.296875 
Q 45.40625 37.203125 41.296875 42.84375 
Q 37.203125 48.484375 30.078125 48.484375 
Q 22.953125 48.484375 18.875 42.84375 
Q 14.796875 37.203125 14.796875 27.296875 
" id="DejaVuSans-64"/>
      <path d="M 56.203125 29.59375 
L 56.203125 25.203125 
L 14.890625 25.203125 
Q 15.484375 15.921875 20.484375 11.0625 
Q 25.484375 6.203125 34.421875 6.203125 
Q 39.59375 6.203125 44.453125 7.46875 
Q 49.3125 8.734375 54.109375 11.28125 
L 54.109375 2.78125 
Q 49.265625 0.734375 44.1875 -0.34375 
Q 39.109375 -1.421875 33.890625 -1.421875 
Q 20.796875 -1.421875 13.15625 6.1875 
Q 5.515625 13.8125 5.515625 26.8125 
Q 5.515625 40.234375 12.765625 48.109375 
Q 20.015625 56 32.328125 56 
Q 43.359375 56 49.78125 48.890625 
Q 56.203125 41.796875 56.203125 29.59375 
M 47.21875 32.234375 
Q 47.125 39.59375 43.09375 43.984375 
Q 39.0625 48.390625 32.421875 48.390625 
Q 24.90625 48.390625 20.390625 44.140625 
Q 15.875 39.890625 15.1875 32.171875 
z
" id="DejaVuSans-65"/>
      <path d="M 9.421875 75.984375 
L 18.40625 75.984375 
L 18.40625 0 
L 9.421875 0 
z
" id="DejaVuSans-6c"/>
      <path d="M 18.3125 70.21875 
L 18.3125 54.6875 
L 36.8125 54.6875 
L 36.8125 47.703125 
L 18.3125 47.703125 
L 18.3125 18.015625 
Q 18.3125 11.328125 20.140625 9.421875 
Q 21.96875 7.515625 27.59375 7.515625 
L 36.8125 7.515625 
L 36.8125 0 
L 27.59375 0 
Q 17.1875 0 13.234375 3.875 
Q 9.28125 7.765625 9.28125 18.015625 
L 9.28125 47.703125 
L 2.6875 47.703125 
L 2.6875 54.6875 
L 9.28125 54.6875 
L 9.28125 70.21875 
z
" id="DejaVuSans-74"/>
      <path d="M 34.28125 27.484375 
Q 23.390625 27.484375 19.1875 25 
Q 14.984375 22.515625 14.984375 16.5 
Q 14.984375 11.71875 18.140625 8.90625 
Q 21.296875 6.109375 26.703125 6.109375 
Q 34.1875 6.109375 38.703125 11.40625 
Q 43.21875 16.703125 43.21875 25.484375 
L 43.21875 27.484375 
z
M 52.203125 31.203125 
L 52.203125 0 
L 43.21875 0 
L 43.21875 8.296875 
Q 40.140625 3.328125 35.546875 0.953125 
Q 30.953125 -1.421875 24.3125 -1.421875 
Q 15.921875 -1.421875 10.953125 3.296875 
Q 6 8.015625 6 15.921875 
Q 6 25.140625 12.171875 29.828125 
Q 18.359375 34.515625 30.609375 34.515625 
L 43.21875 34.515625 
L 43.21875 35.40625 
Q 43.21875 41.609375 39.140625 45 
Q 35.0625 48.390625 27.6875 48.390625 
Q 23 48.390625 18.546875 47.265625 
Q 14.109375 46.140625 10.015625 43.890625 
L 10.015625 52.203125 
Q 14.9375 54.109375 19.578125 55.046875 
Q 24.21875 56 28.609375 56 
Q 40.484375 56 46.34375 49.84375 
Q 52.203125 43.703125 52.203125 31.203125 
" id="DejaVuSans-61"/>
     </defs>
     <g transform="translate(348.504375 27.298437)scale(0.1 -0.1)">
      <use xlink:href="#DejaVuSans-64"/>
      <use x="63.476562" xlink:href="#DejaVuSans-65"/>
      <use x="125" xlink:href="#DejaVuSans-6c"/>
      <use x="152.783203" xlink:href="#DejaVuSans-74"/>
      <use x="191.992188" xlink:href="#DejaVuSans-61"/>
     </g>
    </g>
    <g id="line2d_32">
     <path d="M 320.504375 38.476562 
L 340.504375 38.476562 
" style="fill:none;stroke:#ff7f0e;stroke-linecap:square;stroke-width:1.5;"/>
    </g>
    <g id="line2d_33"/>
    <g id="text_19">
     <!-- lowAlpha -->
     <defs>
      <path d="M 30.609375 48.390625 
Q 23.390625 48.390625 19.1875 42.75 
Q 14.984375 37.109375 14.984375 27.296875 
Q 14.984375 17.484375 19.15625 11.84375 
Q 23.34375 6.203125 30.609375 6.203125 
Q 37.796875 6.203125 41.984375 11.859375 
Q 46.1875 17.53125 46.1875 27.296875 
Q 46.1875 37.015625 41.984375 42.703125 
Q 37.796875 48.390625 30.609375 48.390625 
M 30.609375 56 
Q 42.328125 56 49.015625 48.375 
Q 55.71875 40.765625 55.71875 27.296875 
Q 55.71875 13.875 49.015625 6.21875 
Q 42.328125 -1.421875 30.609375 -1.421875 
Q 18.84375 -1.421875 12.171875 6.21875 
Q 5.515625 13.875 5.515625 27.296875 
Q 5.515625 40.765625 12.171875 48.375 
Q 18.84375 56 30.609375 56 
" id="DejaVuSans-6f"/>
      <path d="M 4.203125 54.6875 
L 13.1875 54.6875 
L 24.421875 12.015625 
L 35.59375 54.6875 
L 46.1875 54.6875 
L 57.421875 12.015625 
L 68.609375 54.6875 
L 77.59375 54.6875 
L 63.28125 0 
L 52.6875 0 
L 40.921875 44.828125 
L 29.109375 0 
L 18.5 0 
z
" id="DejaVuSans-77"/>
      <path d="M 34.1875 63.1875 
L 20.796875 26.90625 
L 47.609375 26.90625 
z
M 28.609375 72.90625 
L 39.796875 72.90625 
L 67.578125 0 
L 57.328125 0 
L 50.6875 18.703125 
L 17.828125 18.703125 
L 11.1875 0 
L 0.78125 0 
z
" id="DejaVuSans-41"/>
      <path d="M 18.109375 8.203125 
L 18.109375 -20.796875 
L 9.078125 -20.796875 
L 9.078125 54.6875 
L 18.109375 54.6875 
L 18.109375 46.390625 
Q 20.953125 51.265625 25.265625 53.625 
Q 29.59375 56 35.59375 56 
Q 45.5625 56 51.78125 48.09375 
Q 58.015625 40.1875 58.015625 27.296875 
Q 58.015625 14.40625 51.78125 6.484375 
Q 45.5625 -1.421875 35.59375 -1.421875 
Q 29.59375 -1.421875 25.265625 0.953125 
Q 20.953125 3.328125 18.109375 8.203125 
M 48.6875 27.296875 
Q 48.6875 37.203125 44.609375 42.84375 
Q 40.53125 48.484375 33.40625 48.484375 
Q 26.265625 48.484375 22.1875 42.84375 
Q 18.109375 37.203125 18.109375 27.296875 
Q 18.109375 17.390625 22.1875 11.75 
Q 26.265625 6.109375 33.40625 6.109375 
Q 40.53125 6.109375 44.609375 11.75 
Q 48.6875 17.390625 48.6875 27.296875 
" id="DejaVuSans-70"/>
      <path d="M 54.890625 33.015625 
L 54.890625 0 
L 45.90625 0 
L 45.90625 32.71875 
Q 45.90625 40.484375 42.875 44.328125 
Q 39.84375 48.1875 33.796875 48.1875 
Q 26.515625 48.1875 22.3125 43.546875 
Q 18.109375 38.921875 18.109375 30.90625 
L 18.109375 0 
L 9.078125 0 
L 9.078125 75.984375 
L 18.109375 75.984375 
L 18.109375 46.1875 
Q 21.34375 51.125 25.703125 53.5625 
Q 30.078125 56 35.796875 56 
Q 45.21875 56 50.046875 50.171875 
Q 54.890625 44.34375 54.890625 33.015625 
" id="DejaVuSans-68"/>
     </defs>
     <g transform="translate(348.504375 41.976562)scale(0.1 -0.1)">
      <use xlink:href="#DejaVuSans-6c"/>
      <use x="27.783203" xlink:href="#DejaVuSans-6f"/>
      <use x="88.964844" xlink:href="#DejaVuSans-77"/>
      <use x="170.751953" xlink:href="#DejaVuSans-41"/>
      <use x="239.160156" xlink:href="#DejaVuSans-6c"/>
      <use x="266.943359" xlink:href="#DejaVuSans-70"/>
      <use x="330.419922" xlink:href="#DejaVuSans-68"/>
      <use x="393.798828" xlink:href="#DejaVuSans-61"/>
     </g>
    </g>
    <g id="line2d_34">
     <path d="M 320.504375 53.154687 
L 340.504375 53.154687 
" style="fill:none;stroke:#2ca02c;stroke-linecap:square;stroke-width:1.5;"/>
    </g>
    <g id="line2d_35"/>
    <g id="text_20">
     <!-- highAlpha -->
     <defs>
      <path d="M 9.421875 54.6875 
L 18.40625 54.6875 
L 18.40625 0 
L 9.421875 0 
z
M 9.421875 75.984375 
L 18.40625 75.984375 
L 18.40625 64.59375 
L 9.421875 64.59375 
z
" id="DejaVuSans-69"/>
      <path d="M 45.40625 27.984375 
Q 45.40625 37.75 41.375 43.109375 
Q 37.359375 48.484375 30.078125 48.484375 
Q 22.859375 48.484375 18.828125 43.109375 
Q 14.796875 37.75 14.796875 27.984375 
Q 14.796875 18.265625 18.828125 12.890625 
Q 22.859375 7.515625 30.078125 7.515625 
Q 37.359375 7.515625 41.375 12.890625 
Q 45.40625 18.265625 45.40625 27.984375 
M 54.390625 6.78125 
Q 54.390625 -7.171875 48.1875 -13.984375 
Q 42 -20.796875 29.203125 -20.796875 
Q 24.46875 -20.796875 20.265625 -20.09375 
Q 16.0625 -19.390625 12.109375 -17.921875 
L 12.109375 -9.1875 
Q 16.0625 -11.328125 19.921875 -12.34375 
Q 23.78125 -13.375 27.78125 -13.375 
Q 36.625 -13.375 41.015625 -8.765625 
Q 45.40625 -4.15625 45.40625 5.171875 
L 45.40625 9.625 
Q 42.625 4.78125 38.28125 2.390625 
Q 33.9375 0 27.875 0 
Q 17.828125 0 11.671875 7.65625 
Q 5.515625 15.328125 5.515625 27.984375 
Q 5.515625 40.671875 11.671875 48.328125 
Q 17.828125 56 27.875 56 
Q 33.9375 56 38.28125 53.609375 
Q 42.625 51.21875 45.40625 46.390625 
L 45.40625 54.6875 
L 54.390625 54.6875 
z
" id="DejaVuSans-67"/>
     </defs>
     <g transform="translate(348.504375 56.654687)scale(0.1 -0.1)">
      <use xlink:href="#DejaVuSans-68"/>
      <use x="63.378906" xlink:href="#DejaVuSans-69"/>
      <use x="91.162109" xlink:href="#DejaVuSans-67"/>
      <use x="154.638672" xlink:href="#DejaVuSans-68"/>
      <use x="218.017578" xlink:href="#DejaVuSans-41"/>
      <use x="286.425781" xlink:href="#DejaVuSans-6c"/>
      <use x="314.208984" xlink:href="#DejaVuSans-70"/>
      <use x="377.685547" xlink:href="#DejaVuSans-68"/>
      <use x="441.064453" xlink:href="#DejaVuSans-61"/>
     </g>
    </g>
    <g id="line2d_36">
     <path d="M 320.504375 67.832812 
L 340.504375 67.832812 
" style="fill:none;stroke:#d62728;stroke-linecap:square;stroke-width:1.5;"/>
    </g>
    <g id="line2d_37"/>
    <g id="text_21">
     <!-- lowBeta -->
     <defs>
      <path d="M 19.671875 34.8125 
L 19.671875 8.109375 
L 35.5 8.109375 
Q 43.453125 8.109375 47.28125 11.40625 
Q 51.125 14.703125 51.125 21.484375 
Q 51.125 28.328125 47.28125 31.5625 
Q 43.453125 34.8125 35.5 34.8125 
z
M 19.671875 64.796875 
L 19.671875 42.828125 
L 34.28125 42.828125 
Q 41.5 42.828125 45.03125 45.53125 
Q 48.578125 48.25 48.578125 53.8125 
Q 48.578125 59.328125 45.03125 62.0625 
Q 41.5 64.796875 34.28125 64.796875 
z
M 9.8125 72.90625 
L 35.015625 72.90625 
Q 46.296875 72.90625 52.390625 68.21875 
Q 58.5 63.53125 58.5 54.890625 
Q 58.5 48.1875 55.375 44.234375 
Q 52.25 40.28125 46.1875 39.3125 
Q 53.46875 37.75 57.5 32.78125 
Q 61.53125 27.828125 61.53125 20.40625 
Q 61.53125 10.640625 54.890625 5.3125 
Q 48.25 0 35.984375 0 
L 9.8125 0 
z
" id="DejaVuSans-42"/>
     </defs>
     <g transform="translate(348.504375 71.332812)scale(0.1 -0.1)">
      <use xlink:href="#DejaVuSans-6c"/>
      <use x="27.783203" xlink:href="#DejaVuSans-6f"/>
      <use x="88.964844" xlink:href="#DejaVuSans-77"/>
      <use x="170.751953" xlink:href="#DejaVuSans-42"/>
      <use x="239.355469" xlink:href="#DejaVuSans-65"/>
      <use x="300.878906" xlink:href="#DejaVuSans-74"/>
      <use x="340.087891" xlink:href="#DejaVuSans-61"/>
     </g>
    </g>
    <g id="line2d_38">
     <path d="M 320.504375 82.510938 
L 340.504375 82.510938 
" style="fill:none;stroke:#9467bd;stroke-linecap:square;stroke-width:1.5;"/>
    </g>
    <g id="line2d_39"/>
    <g id="text_22">
     <!-- highBeta -->
     <g transform="translate(348.504375 86.010938)scale(0.1 -0.1)">
      <use xlink:href="#DejaVuSans-68"/>
      <use x="63.378906" xlink:href="#DejaVuSans-69"/>
      <use x="91.162109" xlink:href="#DejaVuSans-67"/>
      <use x="154.638672" xlink:href="#DejaVuSans-68"/>
      <use x="218.017578" xlink:href="#DejaVuSans-42"/>
      <use x="286.621094" xlink:href="#DejaVuSans-65"/>
      <use x="348.144531" xlink:href="#DejaVuSans-74"/>
      <use x="387.353516" xlink:href="#DejaVuSans-61"/>
     </g>
    </g>
    <g id="line2d_40">
     <path d="M 320.504375 97.189062 
L 340.504375 97.189062 
" style="fill:none;stroke:#8c564b;stroke-linecap:square;stroke-width:1.5;"/>
    </g>
    <g id="line2d_41"/>
    <g id="text_23">
     <!-- lowGamma -->
     <defs>
      <path d="M 59.515625 10.40625 
L 59.515625 29.984375 
L 43.40625 29.984375 
L 43.40625 38.09375 
L 69.28125 38.09375 
L 69.28125 6.78125 
Q 63.578125 2.734375 56.6875 0.65625 
Q 49.8125 -1.421875 42 -1.421875 
Q 24.90625 -1.421875 15.25 8.5625 
Q 5.609375 18.5625 5.609375 36.375 
Q 5.609375 54.25 15.25 64.234375 
Q 24.90625 74.21875 42 74.21875 
Q 49.125 74.21875 55.546875 72.453125 
Q 61.96875 70.703125 67.390625 67.28125 
L 67.390625 56.78125 
Q 61.921875 61.421875 55.765625 63.765625 
Q 49.609375 66.109375 42.828125 66.109375 
Q 29.4375 66.109375 22.71875 58.640625 
Q 16.015625 51.171875 16.015625 36.375 
Q 16.015625 21.625 22.71875 14.15625 
Q 29.4375 6.6875 42.828125 6.6875 
Q 48.046875 6.6875 52.140625 7.59375 
Q 56.25 8.5 59.515625 10.40625 
" id="DejaVuSans-47"/>
      <path d="M 52 44.1875 
Q 55.375 50.25 60.0625 53.125 
Q 64.75 56 71.09375 56 
Q 79.640625 56 84.28125 50.015625 
Q 88.921875 44.046875 88.921875 33.015625 
L 88.921875 0 
L 79.890625 0 
L 79.890625 32.71875 
Q 79.890625 40.578125 77.09375 44.375 
Q 74.3125 48.1875 68.609375 48.1875 
Q 61.625 48.1875 57.5625 43.546875 
Q 53.515625 38.921875 53.515625 30.90625 
L 53.515625 0 
L 44.484375 0 
L 44.484375 32.71875 
Q 44.484375 40.625 41.703125 44.40625 
Q 38.921875 48.1875 33.109375 48.1875 
Q 26.21875 48.1875 22.15625 43.53125 
Q 18.109375 38.875 18.109375 30.90625 
L 18.109375 0 
L 9.078125 0 
L 9.078125 54.6875 
L 18.109375 54.6875 
L 18.109375 46.1875 
Q 21.1875 51.21875 25.484375 53.609375 
Q 29.78125 56 35.6875 56 
Q 41.65625 56 45.828125 52.96875 
Q 50 49.953125 52 44.1875 
" id="DejaVuSans-6d"/>
     </defs>
     <g transform="translate(348.504375 100.689062)scale(0.1 -0.1)">
      <use xlink:href="#DejaVuSans-6c"/>
      <use x="27.783203" xlink:href="#DejaVuSans-6f"/>
      <use x="88.964844" xlink:href="#DejaVuSans-77"/>
      <use x="170.751953" xlink:href="#DejaVuSans-47"/>
      <use x="248.242188" xlink:href="#DejaVuSans-61"/>
      <use x="309.521484" xlink:href="#DejaVuSans-6d"/>
      <use x="406.933594" xlink:href="#DejaVuSans-6d"/>
      <use x="504.345703" xlink:href="#DejaVuSans-61"/>
     </g>
    </g>
    <g id="line2d_42">
     <path d="M 320.504375 111.867188 
L 340.504375 111.867188 
" style="fill:none;stroke:#e377c2;stroke-linecap:square;stroke-width:1.5;"/>
    </g>
    <g id="line2d_43"/>
    <g id="text_24">
     <!-- midGamma -->
     <g transform="translate(348.504375 115.367188)scale(0.1 -0.1)">
      <use xlink:href="#DejaVuSans-6d"/>
      <use x="97.412109" xlink:href="#DejaVuSans-69"/>
      <use x="125.195312" xlink:href="#DejaVuSans-64"/>
      <use x="188.671875" xlink:href="#DejaVuSans-47"/>
      <use x="266.162109" xlink:href="#DejaVuSans-61"/>
      <use x="327.441406" xlink:href="#DejaVuSans-6d"/>
      <use x="424.853516" xlink:href="#DejaVuSans-6d"/>
      <use x="522.265625" xlink:href="#DejaVuSans-61"/>
     </g>
    </g>
    <g id="line2d_44">
     <path d="M 320.504375 126.545312 
L 340.504375 126.545312 
" style="fill:none;stroke:#7f7f7f;stroke-linecap:square;stroke-width:1.5;"/>
    </g>
    <g id="line2d_45"/>
    <g id="text_25">
     <!-- attention -->
     <defs>
      <path d="M 54.890625 33.015625 
L 54.890625 0 
L 45.90625 0 
L 45.90625 32.71875 
Q 45.90625 40.484375 42.875 44.328125 
Q 39.84375 48.1875 33.796875 48.1875 
Q 26.515625 48.1875 22.3125 43.546875 
Q 18.109375 38.921875 18.109375 30.90625 
L 18.109375 0 
L 9.078125 0 
L 9.078125 54.6875 
L 18.109375 54.6875 
L 18.109375 46.1875 
Q 21.34375 51.125 25.703125 53.5625 
Q 30.078125 56 35.796875 56 
Q 45.21875 56 50.046875 50.171875 
Q 54.890625 44.34375 54.890625 33.015625 
" id="DejaVuSans-6e"/>
     </defs>
     <g transform="translate(348.504375 130.045312)scale(0.1 -0.1)">
      <use xlink:href="#DejaVuSans-61"/>
      <use x="61.279297" xlink:href="#DejaVuSans-74"/>
      <use x="100.488281" xlink:href="#DejaVuSans-74"/>
      <use x="139.697266" xlink:href="#DejaVuSans-65"/>
      <use x="201.220703" xlink:href="#DejaVuSans-6e"/>
      <use x="264.599609" xlink:href="#DejaVuSans-74"/>
      <use x="303.808594" xlink:href="#DejaVuSans-69"/>
      <use x="331.591797" xlink:href="#DejaVuSans-6f"/>
      <use x="392.773438" xlink:href="#DejaVuSans-6e"/>
     </g>
    </g>
    <g id="line2d_46">
     <path d="M 320.504375 141.223437 
L 340.504375 141.223437 
" style="fill:none;stroke:#bcbd22;stroke-linecap:square;stroke-width:1.5;"/>
    </g>
    <g id="line2d_47"/>
    <g id="text_26">
     <!-- meditation -->
     <g transform="translate(348.504375 144.723437)scale(0.1 -0.1)">
      <use xlink:href="#DejaVuSans-6d"/>
      <use x="97.412109" xlink:href="#DejaVuSans-65"/>
      <use x="158.935547" xlink:href="#DejaVuSans-64"/>
      <use x="222.412109" xlink:href="#DejaVuSans-69"/>
      <use x="250.195312" xlink:href="#DejaVuSans-74"/>
      <use x="289.404297" xlink:href="#DejaVuSans-61"/>
      <use x="350.683594" xlink:href="#DejaVuSans-74"/>
      <use x="389.892578" xlink:href="#DejaVuSans-69"/>
      <use x="417.675781" xlink:href="#DejaVuSans-6f"/>
      <use x="478.857422" xlink:href="#DejaVuSans-6e"/>
     </g>
    </g>
    <g id="line2d_48">
     <path d="M 320.504375 155.901562 
L 340.504375 155.901562 
" style="fill:none;stroke:#17becf;stroke-linecap:square;stroke-width:1.5;"/>
    </g>
    <g id="line2d_49"/>
    <g id="text_27">
     <!-- rawValue -->
     <defs>
      <path d="M 41.109375 46.296875 
Q 39.59375 47.171875 37.8125 47.578125 
Q 36.03125 48 33.890625 48 
Q 26.265625 48 22.1875 43.046875 
Q 18.109375 38.09375 18.109375 28.8125 
L 18.109375 0 
L 9.078125 0 
L 9.078125 54.6875 
L 18.109375 54.6875 
L 18.109375 46.1875 
Q 20.953125 51.171875 25.484375 53.578125 
Q 30.03125 56 36.53125 56 
Q 37.453125 56 38.578125 55.875 
Q 39.703125 55.765625 41.0625 55.515625 
z
" id="DejaVuSans-72"/>
      <path d="M 28.609375 0 
L 0.78125 72.90625 
L 11.078125 72.90625 
L 34.1875 11.53125 
L 57.328125 72.90625 
L 67.578125 72.90625 
L 39.796875 0 
z
" id="DejaVuSans-56"/>
      <path d="M 8.5 21.578125 
L 8.5 54.6875 
L 17.484375 54.6875 
L 17.484375 21.921875 
Q 17.484375 14.15625 20.5 10.265625 
Q 23.53125 6.390625 29.59375 6.390625 
Q 36.859375 6.390625 41.078125 11.03125 
Q 45.3125 15.671875 45.3125 23.6875 
L 45.3125 54.6875 
L 54.296875 54.6875 
L 54.296875 0 
L 45.3125 0 
L 45.3125 8.40625 
Q 42.046875 3.421875 37.71875 1 
Q 33.40625 -1.421875 27.6875 -1.421875 
Q 18.265625 -1.421875 13.375 4.4375 
Q 8.5 10.296875 8.5 21.578125 
M 31.109375 56 
z
" id="DejaVuSans-75"/>
     </defs>
     <g transform="translate(348.504375 159.401562)scale(0.1 -0.1)">
      <use xlink:href="#DejaVuSans-72"/>
      <use x="41.113281" xlink:href="#DejaVuSans-61"/>
      <use x="102.392578" xlink:href="#DejaVuSans-77"/>
      <use x="184.179688" xlink:href="#DejaVuSans-56"/>
      <use x="252.478516" xlink:href="#DejaVuSans-61"/>
      <use x="313.757812" xlink:href="#DejaVuSans-6c"/>
      <use x="341.541016" xlink:href="#DejaVuSans-75"/>
      <use x="404.919922" xlink:href="#DejaVuSans-65"/>
     </g>
    </g>
   </g>
  </g>
 </g>
 <defs>
  <clipPath id="p66a5efe2ea">
   <rect height="266.112" width="357.12" x="58.7375" y="10.7"/>
  </clipPath>
 </defs>
</svg>
