<?xml version="1.0" encoding="utf-8" standalone="no"?>
<!DOCTYPE svg PUBLIC "-//W3C//DTD SVG 1.1//EN"
  "http://www.w3.org/Graphics/SVG/1.1/DTD/svg11.dtd">
<!-- Created with matplotlib (http://matplotlib.org/) -->
<svg height="300pt" version="1.1" viewBox="0 0 428 300" width="428pt" xmlns="http://www.w3.org/2000/svg" xmlns:xlink="http://www.w3.org/1999/xlink">
 <defs>
  <style type="text/css">
*{stroke-linecap:butt;stroke-linejoin:round;}
  </style>
 </defs>
 <g id="figure_1">
  <g id="patch_1">
   <path d="M 0 300.690125 
L 428.143558 300.690125 
L 428.143558 0 
L 0 0 
z
" style="fill:#ffffff;"/>
  </g>
  <g id="axes_1">
   <g id="patch_2">
    <path d="M 58.7375 276.812 
L 415.8575 276.812 
L 415.8575 10.7 
L 58.7375 10.7 
z
" style="fill:#ffffff;"/>
   </g>
   <g id="matplotlib.axis_1">
    <g id="xtick_1">
     <g id="line2d_1">
      <defs>
       <path d="M 0 0 
L 0 3.5 
" id="me698aebcb2" style="stroke:#000000;stroke-width:0.8;"/>
      </defs>
      <g>
       <use style="stroke:#000000;stroke-width:0.8;" x="74.970227" xlink:href="#me698aebcb2" y="276.812"/>
      </g>
     </g>
     <g id="text_1">
      <!-- 0 -->
      <defs>
       <path d="M 31.78125 66.40625 
Q 24.171875 66.40625 20.328125 58.90625 
Q 16.5 51.421875 16.5 36.375 
Q 16.5 21.390625 20.328125 13.890625 
Q 24.171875 6.390625 31.78125 6.390625 
Q 39.453125 6.390625 43.28125 13.890625 
Q 47.125 21.390625 47.125 36.375 
Q 47.125 51.421875 43.28125 58.90625 
Q 39.453125 66.40625 31.78125 66.40625 
M 31.78125 74.21875 
Q 44.046875 74.21875 50.515625 64.515625 
Q 56.984375 54.828125 56.984375 36.375 
Q 56.984375 17.96875 50.515625 8.265625 
Q 44.046875 -1.421875 31.78125 -1.421875 
Q 19.53125 -1.421875 13.0625 8.265625 
Q 6.59375 17.96875 6.59375 36.375 
Q 6.59375 54.828125 13.0625 64.515625 
Q 19.53125 74.21875 31.78125 74.21875 
" id="DejaVuSans-30"/>
      </defs>
      <g transform="translate(71.788977 291.410437)scale(0.1 -0.1)">
       <use xlink:href="#DejaVuSans-30"/>
      </g>
     </g>
    </g>
    <g id="xtick_2">
     <g id="line2d_2">
      <g>
       <use style="stroke:#000000;stroke-width:0.8;" x="117.023925" xlink:href="#me698aebcb2" y="276.812"/>
      </g>
     </g>
     <g id="text_2">
      <!-- 25 -->
      <defs>
       <path d="M 19.1875 8.296875 
L 53.609375 8.296875 
L 53.609375 0 
L 7.328125 0 
L 7.328125 8.296875 
Q 12.9375 14.109375 22.625 23.890625 
Q 32.328125 33.6875 34.8125 36.53125 
Q 39.546875 41.84375 41.421875 45.53125 
Q 43.3125 49.21875 43.3125 52.78125 
Q 43.3125 58.59375 39.234375 62.25 
Q 35.15625 65.921875 28.609375 65.921875 
Q 23.96875 65.921875 18.8125 64.3125 
Q 13.671875 62.703125 7.8125 59.421875 
L 7.8125 69.390625 
Q 13.765625 71.78125 18.9375 73 
Q 24.125 74.21875 28.421875 74.21875 
Q 39.75 74.21875 46.484375 68.546875 
Q 53.21875 62.890625 53.21875 53.421875 
Q 53.21875 48.921875 51.53125 44.890625 
Q 49.859375 40.875 45.40625 35.40625 
Q 44.1875 33.984375 37.640625 27.21875 
Q 31.109375 20.453125 19.1875 8.296875 
" id="DejaVuSans-32"/>
       <path d="M 10.796875 72.90625 
L 49.515625 72.90625 
L 49.515625 64.59375 
L 19.828125 64.59375 
L 19.828125 46.734375 
Q 21.96875 47.46875 24.109375 47.828125 
Q 26.265625 48.1875 28.421875 48.1875 
Q 40.625 48.1875 47.75 41.5 
Q 54.890625 34.8125 54.890625 23.390625 
Q 54.890625 11.625 47.5625 5.09375 
Q 40.234375 -1.421875 26.90625 -1.421875 
Q 22.3125 -1.421875 17.546875 -0.640625 
Q 12.796875 0.140625 7.71875 1.703125 
L 7.71875 11.625 
Q 12.109375 9.234375 16.796875 8.0625 
Q 21.484375 6.890625 26.703125 6.890625 
Q 35.15625 6.890625 40.078125 11.328125 
Q 45.015625 15.765625 45.015625 23.390625 
Q 45.015625 31 40.078125 35.4375 
Q 35.15625 39.890625 26.703125 39.890625 
Q 22.75 39.890625 18.8125 39.015625 
Q 14.890625 38.140625 10.796875 36.28125 
z
" id="DejaVuSans-35"/>
      </defs>
      <g transform="translate(110.661425 291.410437)scale(0.1 -0.1)">
       <use xlink:href="#DejaVuSans-32"/>
       <use x="63.623047" xlink:href="#DejaVuSans-35"/>
      </g>
     </g>
    </g>
    <g id="xtick_3">
     <g id="line2d_3">
      <g>
       <use style="stroke:#000000;stroke-width:0.8;" x="159.077622" xlink:href="#me698aebcb2" y="276.812"/>
      </g>
     </g>
     <g id="text_3">
      <!-- 50 -->
      <g transform="translate(152.715122 291.410437)scale(0.1 -0.1)">
       <use xlink:href="#DejaVuSans-35"/>
       <use x="63.623047" xlink:href="#DejaVuSans-30"/>
      </g>
     </g>
    </g>
    <g id="xtick_4">
     <g id="line2d_4">
      <g>
       <use style="stroke:#000000;stroke-width:0.8;" x="201.13132" xlink:href="#me698aebcb2" y="276.812"/>
      </g>
     </g>
     <g id="text_4">
      <!-- 75 -->
      <defs>
       <path d="M 8.203125 72.90625 
L 55.078125 72.90625 
L 55.078125 68.703125 
L 28.609375 0 
L 18.3125 0 
L 43.21875 64.59375 
L 8.203125 64.59375 
z
" id="DejaVuSans-37"/>
      </defs>
      <g transform="translate(194.76882 291.410437)scale(0.1 -0.1)">
       <use xlink:href="#DejaVuSans-37"/>
       <use x="63.623047" xlink:href="#DejaVuSans-35"/>
      </g>
     </g>
    </g>
    <g id="xtick_5">
     <g id="line2d_5">
      <g>
       <use style="stroke:#000000;stroke-width:0.8;" x="243.185018" xlink:href="#me698aebcb2" y="276.812"/>
      </g>
     </g>
     <g id="text_5">
      <!-- 100 -->
      <defs>
       <path d="M 12.40625 8.296875 
L 28.515625 8.296875 
L 28.515625 63.921875 
L 10.984375 60.40625 
L 10.984375 69.390625 
L 28.421875 72.90625 
L 38.28125 72.90625 
L 38.28125 8.296875 
L 54.390625 8.296875 
L 54.390625 0 
L 12.40625 0 
z
" id="DejaVuSans-31"/>
      </defs>
      <g transform="translate(233.641268 291.410437)scale(0.1 -0.1)">
       <use xlink:href="#DejaVuSans-31"/>
       <use x="63.623047" xlink:href="#DejaVuSans-30"/>
       <use x="127.246094" xlink:href="#DejaVuSans-30"/>
      </g>
     </g>
    </g>
    <g id="xtick_6">
     <g id="line2d_6">
      <g>
       <use style="stroke:#000000;stroke-width:0.8;" x="285.238715" xlink:href="#me698aebcb2" y="276.812"/>
      </g>
     </g>
     <g id="text_6">
      <!-- 125 -->
      <g transform="translate(275.694965 291.410437)scale(0.1 -0.1)">
       <use xlink:href="#DejaVuSans-31"/>
       <use x="63.623047" xlink:href="#DejaVuSans-32"/>
       <use x="127.246094" xlink:href="#DejaVuSans-35"/>
      </g>
     </g>
    </g>
    <g id="xtick_7">
     <g id="line2d_7">
      <g>
       <use style="stroke:#000000;stroke-width:0.8;" x="327.292413" xlink:href="#me698aebcb2" y="276.812"/>
      </g>
     </g>
     <g id="text_7">
      <!-- 150 -->
      <g transform="translate(317.748663 291.410437)scale(0.1 -0.1)">
       <use xlink:href="#DejaVuSans-31"/>
       <use x="63.623047" xlink:href="#DejaVuSans-35"/>
       <use x="127.246094" xlink:href="#DejaVuSans-30"/>
      </g>
     </g>
    </g>
    <g id="xtick_8">
     <g id="line2d_8">
      <g>
       <use style="stroke:#000000;stroke-width:0.8;" x="369.34611" xlink:href="#me698aebcb2" y="276.812"/>
      </g>
     </g>
     <g id="text_8">
      <!-- 175 -->
      <g transform="translate(359.80236 291.410437)scale(0.1 -0.1)">
       <use xlink:href="#DejaVuSans-31"/>
       <use x="63.623047" xlink:href="#DejaVuSans-37"/>
       <use x="127.246094" xlink:href="#DejaVuSans-35"/>
      </g>
     </g>
    </g>
    <g id="xtick_9">
     <g id="line2d_9">
      <g>
       <use style="stroke:#000000;stroke-width:0.8;" x="411.399808" xlink:href="#me698aebcb2" y="276.812"/>
      </g>
     </g>
     <g id="text_9">
      <!-- 200 -->
      <g transform="translate(401.856058 291.410437)scale(0.1 -0.1)">
       <use xlink:href="#DejaVuSans-32"/>
       <use x="63.623047" xlink:href="#DejaVuSans-30"/>
       <use x="127.246094" xlink:href="#DejaVuSans-30"/>
      </g>
     </g>
    </g>
   </g>
   <g id="matplotlib.axis_2">
    <g id="ytick_1">
     <g id="line2d_10">
      <defs>
       <path d="M 0 0 
L -3.5 0 
" id="m71b1bd2857" style="stroke:#000000;stroke-width:0.8;"/>
      </defs>
      <g>
       <use style="stroke:#000000;stroke-width:0.8;" x="58.7375" xlink:href="#m71b1bd2857" y="264.679684"/>
      </g>
     </g>
     <g id="text_10">
      <!-- 0 -->
      <g transform="translate(45.375 268.478903)scale(0.1 -0.1)">
       <use xlink:href="#DejaVuSans-30"/>
      </g>
     </g>
    </g>
    <g id="ytick_2">
     <g id="line2d_11">
      <g>
       <use style="stroke:#000000;stroke-width:0.8;" x="58.7375" xlink:href="#m71b1bd2857" y="235.106471"/>
      </g>
     </g>
     <g id="text_11">
      <!-- 250000 -->
      <g transform="translate(13.5625 238.90569)scale(0.1 -0.1)">
       <use xlink:href="#DejaVuSans-32"/>
       <use x="63.623047" xlink:href="#DejaVuSans-35"/>
       <use x="127.246094" xlink:href="#DejaVuSans-30"/>
       <use x="190.869141" xlink:href="#DejaVuSans-30"/>
       <use x="254.492188" xlink:href="#DejaVuSans-30"/>
       <use x="318.115234" xlink:href="#DejaVuSans-30"/>
      </g>
     </g>
    </g>
    <g id="ytick_3">
     <g id="line2d_12">
      <g>
       <use style="stroke:#000000;stroke-width:0.8;" x="58.7375" xlink:href="#m71b1bd2857" y="205.533259"/>
      </g>
     </g>
     <g id="text_12">
      <!-- 500000 -->
      <g transform="translate(13.5625 209.332477)scale(0.1 -0.1)">
       <use xlink:href="#DejaVuSans-35"/>
       <use x="63.623047" xlink:href="#DejaVuSans-30"/>
       <use x="127.246094" xlink:href="#DejaVuSans-30"/>
       <use x="190.869141" xlink:href="#DejaVuSans-30"/>
       <use x="254.492188" xlink:href="#DejaVuSans-30"/>
       <use x="318.115234" xlink:href="#DejaVuSans-30"/>
      </g>
     </g>
    </g>
    <g id="ytick_4">
     <g id="line2d_13">
      <g>
       <use style="stroke:#000000;stroke-width:0.8;" x="58.7375" xlink:href="#m71b1bd2857" y="175.960046"/>
      </g>
     </g>
     <g id="text_13">
      <!-- 750000 -->
      <g transform="translate(13.5625 179.759265)scale(0.1 -0.1)">
       <use xlink:href="#DejaVuSans-37"/>
       <use x="63.623047" xlink:href="#DejaVuSans-35"/>
       <use x="127.246094" xlink:href="#DejaVuSans-30"/>
       <use x="190.869141" xlink:href="#DejaVuSans-30"/>
       <use x="254.492188" xlink:href="#DejaVuSans-30"/>
       <use x="318.115234" xlink:href="#DejaVuSans-30"/>
      </g>
     </g>
    </g>
    <g id="ytick_5">
     <g id="line2d_14">
      <g>
       <use style="stroke:#000000;stroke-width:0.8;" x="58.7375" xlink:href="#m71b1bd2857" y="146.386833"/>
      </g>
     </g>
     <g id="text_14">
      <!-- 1000000 -->
      <g transform="translate(7.2 150.186052)scale(0.1 -0.1)">
       <use xlink:href="#DejaVuSans-31"/>
       <use x="63.623047" xlink:href="#DejaVuSans-30"/>
       <use x="127.246094" xlink:href="#DejaVuSans-30"/>
       <use x="190.869141" xlink:href="#DejaVuSans-30"/>
       <use x="254.492188" xlink:href="#DejaVuSans-30"/>
       <use x="318.115234" xlink:href="#DejaVuSans-30"/>
       <use x="381.738281" xlink:href="#DejaVuSans-30"/>
      </g>
     </g>
    </g>
    <g id="ytick_6">
     <g id="line2d_15">
      <g>
       <use style="stroke:#000000;stroke-width:0.8;" x="58.7375" xlink:href="#m71b1bd2857" y="116.81362"/>
      </g>
     </g>
     <g id="text_15">
      <!-- 1250000 -->
      <g transform="translate(7.2 120.612839)scale(0.1 -0.1)">
       <use xlink:href="#DejaVuSans-31"/>
       <use x="63.623047" xlink:href="#DejaVuSans-32"/>
       <use x="127.246094" xlink:href="#DejaVuSans-35"/>
       <use x="190.869141" xlink:href="#DejaVuSans-30"/>
       <use x="254.492188" xlink:href="#DejaVuSans-30"/>
       <use x="318.115234" xlink:href="#DejaVuSans-30"/>
       <use x="381.738281" xlink:href="#DejaVuSans-30"/>
      </g>
     </g>
    </g>
    <g id="ytick_7">
     <g id="line2d_16">
      <g>
       <use style="stroke:#000000;stroke-width:0.8;" x="58.7375" xlink:href="#m71b1bd2857" y="87.240407"/>
      </g>
     </g>
     <g id="text_16">
      <!-- 1500000 -->
      <g transform="translate(7.2 91.039626)scale(0.1 -0.1)">
       <use xlink:href="#DejaVuSans-31"/>
       <use x="63.623047" xlink:href="#DejaVuSans-35"/>
       <use x="127.246094" xlink:href="#DejaVuSans-30"/>
       <use x="190.869141" xlink:href="#DejaVuSans-30"/>
       <use x="254.492188" xlink:href="#DejaVuSans-30"/>
       <use x="318.115234" xlink:href="#DejaVuSans-30"/>
       <use x="381.738281" xlink:href="#DejaVuSans-30"/>
      </g>
     </g>
    </g>
    <g id="ytick_8">
     <g id="line2d_17">
      <g>
       <use style="stroke:#000000;stroke-width:0.8;" x="58.7375" xlink:href="#m71b1bd2857" y="57.667195"/>
      </g>
     </g>
     <g id="text_17">
      <!-- 1750000 -->
      <g transform="translate(7.2 61.466413)scale(0.1 -0.1)">
       <use xlink:href="#DejaVuSans-31"/>
       <use x="63.623047" xlink:href="#DejaVuSans-37"/>
       <use x="127.246094" xlink:href="#DejaVuSans-35"/>
       <use x="190.869141" xlink:href="#DejaVuSans-30"/>
       <use x="254.492188" xlink:href="#DejaVuSans-30"/>
       <use x="318.115234" xlink:href="#DejaVuSans-30"/>
       <use x="381.738281" xlink:href="#DejaVuSans-30"/>
      </g>
     </g>
    </g>
    <g id="ytick_9">
     <g id="line2d_18">
      <g>
       <use style="stroke:#000000;stroke-width:0.8;" x="58.7375" xlink:href="#m71b1bd2857" y="28.093982"/>
      </g>
     </g>
     <g id="text_18">
      <!-- 2000000 -->
      <g transform="translate(7.2 31.893201)scale(0.1 -0.1)">
       <use xlink:href="#DejaVuSans-32"/>
       <use x="63.623047" xlink:href="#DejaVuSans-30"/>
       <use x="127.246094" xlink:href="#DejaVuSans-30"/>
       <use x="190.869141" xlink:href="#DejaVuSans-30"/>
       <use x="254.492188" xlink:href="#DejaVuSans-30"/>
       <use x="318.115234" xlink:href="#DejaVuSans-30"/>
       <use x="381.738281" xlink:href="#DejaVuSans-30"/>
      </g>
     </g>
    </g>
   </g>
   <g id="line2d_19">
    <path clip-path="url(#pa6921ea1e1)" d="M 74.970227 259.639344 
L 76.652375 259.579843 
L 78.334523 258.17476 
L 80.016671 257.072034 
L 81.698819 260.274813 
L 83.380967 261.888801 
L 85.063115 186.458536 
L 86.745263 22.796 
L 88.427411 259.014048 
L 90.109558 262.937585 
L 91.791706 254.585873 
L 93.473854 262.993893 
L 95.156002 261.169699 
L 96.83815 262.48476 
L 98.520298 259.405597 
L 100.202446 263.870443 
L 101.884594 260.44894 
L 103.566742 262.792085 
L 105.24889 263.102486 
L 106.931037 251.426981 
L 108.613185 250.476261 
L 110.295333 80.783747 
L 111.977481 247.834546 
L 113.659629 264.341721 
L 115.341777 264.253948 
L 117.023925 263.326414 
L 118.706073 263.785154 
L 120.388221 263.623211 
L 122.070369 262.751511 
L 125.434664 262.996022 
L 127.116812 264.187231 
L 128.79896 263.880379 
L 130.481108 263.285248 
L 132.163256 263.706489 
L 133.845404 263.301809 
L 135.527552 264.33143 
L 137.2097 263.41679 
L 138.891848 259.175754 
L 140.573996 263.836256 
L 142.256143 264.25454 
L 143.938291 264.173627 
L 145.620439 263.457364 
L 147.302587 262.619969 
L 148.984735 262.157681 
L 150.666883 258.389935 
L 152.349031 262.10918 
L 154.031179 263.936923 
L 155.713327 260.148713 
L 157.395475 264.426656 
L 159.077622 262.459919 
L 160.75977 263.55117 
L 162.441918 209.420835 
L 164.124066 258.565127 
L 165.806214 263.038252 
L 167.488362 257.920904 
L 169.17051 259.923483 
L 170.852658 263.718318 
L 172.534806 264.070949 
L 174.216954 261.076484 
L 175.899102 252.460506 
L 177.581249 262.728207 
L 179.263397 264.011803 
L 180.945545 262.402665 
L 182.627693 263.345104 
L 184.309841 263.606058 
L 185.991989 258.611024 
L 187.674137 260.911584 
L 189.356285 262.278221 
L 191.038433 262.933563 
L 194.402728 263.751558 
L 196.084876 262.711291 
L 197.767024 264.167949 
L 199.449172 264.414826 
L 201.13132 263.87411 
L 202.813468 259.197757 
L 204.495616 262.898194 
L 206.177764 260.670976 
L 207.859912 263.530587 
L 209.54206 263.631255 
L 211.224207 261.963089 
L 212.906355 263.41052 
L 214.588503 263.022993 
L 216.270651 264.426419 
L 217.952799 238.603208 
L 219.634947 184.004196 
L 221.317095 263.08557 
L 222.999243 259.861261 
L 224.681391 261.918137 
L 226.363539 261.863368 
L 228.045687 264.03487 
L 229.727834 262.430227 
L 231.409982 263.501132 
L 233.09213 261.64358 
L 234.774278 263.693713 
L 236.456426 264.195157 
L 238.138574 263.04677 
L 239.820722 262.611097 
L 241.50287 263.793789 
L 243.185018 262.582943 
L 244.867166 263.437964 
L 246.549313 262.343045 
L 248.231461 263.32393 
L 249.913609 263.657516 
L 251.595757 264.536313 
L 253.277905 263.833299 
L 254.960053 250.234471 
L 256.642201 259.920763 
L 258.324349 257.089778 
L 260.006497 263.924029 
L 261.688645 261.659076 
L 263.370793 254.233597 
L 265.05294 262.296438 
L 266.735088 263.221015 
L 268.417236 261.816524 
L 270.099384 262.714012 
L 271.781532 263.044877 
L 273.46368 262.409999 
L 275.145828 255.399018 
L 276.827976 262.613463 
L 278.510124 262.771975 
L 280.192272 264.095199 
L 281.874419 261.462355 
L 283.556567 262.62541 
L 285.238715 263.022993 
L 286.920863 260.863202 
L 288.603011 261.711598 
L 290.285159 263.83803 
L 291.967307 263.834837 
L 293.649455 263.578378 
L 295.331603 264.435646 
L 297.013751 256.269417 
L 298.695898 263.787638 
L 300.378046 264.124536 
L 302.060194 263.374677 
L 303.742342 263.838622 
L 305.42449 255.389082 
L 307.106638 264.249335 
L 308.788786 261.009767 
L 310.470934 259.392585 
L 312.153082 263.408627 
L 313.83523 263.032338 
L 315.517378 262.406687 
L 317.199525 263.737955 
L 318.881673 196.681523 
L 320.563821 262.499429 
L 322.245969 263.110884 
L 323.928117 263.93787 
L 325.610265 223.147301 
L 327.292413 119.061658 
L 328.974561 264.425473 
L 330.656709 263.617651 
L 332.338857 262.316193 
L 334.021004 264.060776 
L 335.703152 263.507284 
L 337.3853 264.47208 
L 339.067448 264.29192 
L 342.431744 264.164755 
L 344.113892 261.08855 
L 345.79604 262.72868 
L 347.478188 260.647909 
L 349.160336 258.199247 
L 350.842484 261.259246 
L 352.524631 261.981779 
L 354.206779 263.295421 
L 355.888927 255.407062 
L 357.571075 260.487622 
L 359.253223 261.219263 
L 360.935371 264.191135 
L 362.617519 263.17287 
L 364.299667 258.784678 
L 365.981815 264.090113 
L 367.663963 262.992 
L 369.34611 262.854899 
L 371.028258 257.213513 
L 372.710406 263.599197 
L 374.392554 264.043387 
L 376.074702 261.230619 
L 377.75685 257.931314 
L 379.438998 257.728796 
L 381.121146 260.694043 
L 382.803294 262.150938 
L 384.485442 262.125387 
L 386.167589 264.162744 
L 387.849737 260.288653 
L 389.531885 261.128414 
L 391.214033 262.161584 
L 392.896181 263.949699 
L 394.578329 263.427673 
L 396.260477 263.383549 
L 397.942625 257.1714 
L 399.624773 258.181148 
L 399.624773 258.181148 
" style="fill:none;stroke:#1f77b4;stroke-linecap:square;stroke-width:1.5;"/>
   </g>
   <g id="line2d_20">
    <path clip-path="url(#pa6921ea1e1)" d="M 74.970227 255.026396 
L 76.652375 260.812691 
L 78.334523 261.634353 
L 80.016671 261.744247 
L 81.698819 261.143438 
L 83.380967 258.963774 
L 85.063115 247.706079 
L 86.745263 252.009337 
L 88.427411 260.260027 
L 90.109558 262.665867 
L 91.791706 257.18181 
L 93.473854 259.424288 
L 95.156002 263.20682 
L 96.83815 263.451449 
L 98.520298 262.952963 
L 100.202446 260.753899 
L 105.24889 259.935076 
L 106.931037 261.298638 
L 108.613185 263.152878 
L 110.295333 262.1494 
L 111.977481 264.175402 
L 113.659629 263.399637 
L 115.341777 264.37165 
L 117.023925 262.754586 
L 118.706073 263.900134 
L 120.388221 261.35944 
L 122.070369 264.018782 
L 123.752516 262.398288 
L 125.434664 263.901554 
L 127.116812 261.942151 
L 130.481108 263.044995 
L 132.163256 263.61493 
L 133.845404 262.821185 
L 135.527552 263.224919 
L 137.2097 262.432238 
L 138.891848 262.197072 
L 140.573996 261.519254 
L 142.256143 263.740202 
L 143.938291 263.193571 
L 147.302587 260.317517 
L 148.984735 262.642681 
L 150.666883 262.48204 
L 152.349031 261.975746 
L 154.031179 264.154227 
L 155.713327 262.347777 
L 157.395475 264.537733 
L 159.077622 261.41279 
L 160.75977 263.55117 
L 162.441918 258.480074 
L 164.124066 264.412697 
L 165.806214 262.140528 
L 167.488362 251.713723 
L 169.17051 260.371695 
L 170.852658 258.869494 
L 172.534806 261.723901 
L 175.899102 263.953839 
L 177.581249 262.924336 
L 179.263397 264.176348 
L 180.945545 261.845742 
L 182.627693 262.371436 
L 184.309841 261.386175 
L 185.991989 261.129006 
L 187.674137 263.345814 
L 189.356285 264.00991 
L 191.038433 261.581713 
L 192.720581 261.85627 
L 194.402728 262.80628 
L 196.084876 260.747393 
L 197.767024 263.02252 
L 199.449172 262.247701 
L 201.13132 263.199959 
L 202.813468 259.954003 
L 204.495616 264.292866 
L 206.177764 260.073006 
L 207.859912 261.586681 
L 209.54206 261.776068 
L 211.224207 263.31695 
L 212.906355 263.74801 
L 214.588503 263.783734 
L 216.270651 262.892634 
L 217.952799 249.191719 
L 219.634947 250.165151 
L 221.317095 262.438035 
L 222.999243 263.262891 
L 224.681391 258.707906 
L 226.363539 263.760549 
L 228.045687 264.417784 
L 229.727834 263.5727 
L 231.409982 260.301193 
L 233.09213 263.301218 
L 234.774278 259.659809 
L 236.456426 264.401814 
L 238.138574 263.232134 
L 239.820722 262.237883 
L 241.50287 261.605371 
L 243.185018 263.067707 
L 244.867166 263.83874 
L 246.549313 264.025643 
L 248.231461 263.351965 
L 249.913609 264.533001 
L 251.595757 263.712167 
L 253.277905 259.459302 
L 254.960053 264.20604 
L 256.642201 262.249831 
L 258.324349 259.354495 
L 260.006497 263.805737 
L 261.688645 264.082069 
L 263.370793 258.834479 
L 265.05294 263.344749 
L 266.735088 263.894574 
L 268.417236 261.313898 
L 270.099384 260.530562 
L 271.781532 262.437443 
L 273.46368 263.951946 
L 275.145828 261.320404 
L 276.827976 262.628604 
L 278.510124 262.939833 
L 280.192272 263.915276 
L 281.874419 261.110789 
L 283.556567 261.347729 
L 285.238715 263.823717 
L 286.920863 260.947308 
L 288.603011 263.784917 
L 290.285159 260.387901 
L 291.967307 263.231898 
L 293.649455 261.726621 
L 295.331603 259.072248 
L 297.013751 260.380922 
L 298.695898 263.16175 
L 300.378046 262.781084 
L 302.060194 262.041754 
L 303.742342 264.04386 
L 305.42449 262.444777 
L 307.106638 264.299964 
L 308.788786 263.398099 
L 310.470934 263.081903 
L 312.153082 261.081689 
L 313.83523 261.65813 
L 315.517378 263.429092 
L 317.199525 262.883407 
L 318.881673 261.649613 
L 320.563821 261.975864 
L 322.245969 264.049775 
L 323.928117 263.729201 
L 325.610265 261.438342 
L 327.292413 260.932521 
L 328.974561 263.861807 
L 332.338857 258.144832 
L 334.021004 263.97667 
L 335.703152 264.050603 
L 337.3853 263.651483 
L 339.067448 263.790595 
L 340.749596 263.311391 
L 342.431744 263.062384 
L 344.113892 263.043931 
L 345.79604 262.803678 
L 347.478188 263.551052 
L 349.160336 261.844678 
L 350.842484 262.882106 
L 352.524631 260.629692 
L 354.206779 262.863061 
L 355.888927 263.809049 
L 357.571075 263.188248 
L 359.253223 262.171284 
L 360.935371 263.717727 
L 364.299667 261.413027 
L 365.981815 264.253238 
L 367.663963 262.550531 
L 369.34611 262.136388 
L 371.028258 260.462071 
L 372.710406 263.67242 
L 374.392554 264.075326 
L 376.074702 257.622096 
L 377.75685 263.63362 
L 379.438998 260.559189 
L 381.121146 259.817256 
L 382.803294 262.792085 
L 384.485442 263.223499 
L 386.167589 264.273466 
L 387.849737 263.810705 
L 389.531885 258.051617 
L 391.214033 262.769255 
L 392.896181 263.257449 
L 394.578329 264.292275 
L 396.260477 261.257117 
L 397.942625 257.107877 
L 399.624773 260.431788 
L 399.624773 260.431788 
" style="fill:none;stroke:#ff7f0e;stroke-linecap:square;stroke-width:1.5;"/>
   </g>
   <g id="line2d_21">
    <path clip-path="url(#pa6921ea1e1)" d="M 74.970227 263.817921 
L 78.334523 264.335097 
L 80.016671 263.579442 
L 81.698819 263.755107 
L 83.380967 262.941134 
L 85.063115 257.948939 
L 86.745263 259.108564 
L 88.427411 262.027322 
L 90.109558 259.035814 
L 91.791706 262.959233 
L 93.473854 262.770674 
L 95.156002 262.446907 
L 96.83815 264.487577 
L 98.520298 262.086587 
L 100.202446 262.860932 
L 101.884594 263.331737 
L 103.566742 261.428642 
L 105.24889 260.181717 
L 106.931037 263.168138 
L 108.613185 263.823244 
L 110.295333 264.096974 
L 111.977481 264.601729 
L 115.341777 264.358874 
L 117.023925 263.359654 
L 118.706073 262.764523 
L 120.388221 263.82348 
L 122.070369 262.748908 
L 123.752516 264.562456 
L 125.434664 263.760904 
L 127.116812 264.427839 
L 128.79896 263.011755 
L 130.481108 264.312266 
L 132.163256 263.523845 
L 133.845404 264.183564 
L 137.2097 264.404653 
L 138.891848 263.611145 
L 140.573996 264.016771 
L 142.256143 263.694541 
L 143.938291 264.242829 
L 145.620439 262.447143 
L 147.302587 261.988758 
L 148.984735 264.27666 
L 150.666883 263.98424 
L 152.349031 263.43619 
L 154.031179 264.266842 
L 155.713327 262.859039 
L 157.395475 264.123944 
L 159.077622 264.148431 
L 160.75977 263.774034 
L 162.441918 264.189833 
L 164.124066 264.312385 
L 165.806214 263.923674 
L 167.488362 261.336255 
L 169.17051 264.508988 
L 170.852658 262.460392 
L 172.534806 263.938461 
L 175.899102 264.420268 
L 177.581249 264.049538 
L 179.263397 263.507639 
L 184.309841 263.371957 
L 185.991989 263.519704 
L 187.674137 264.165347 
L 189.356285 263.470968 
L 191.038433 263.944849 
L 192.720581 264.223547 
L 194.402728 263.124488 
L 196.084876 263.887004 
L 197.767024 264.430204 
L 199.449172 264.385963 
L 201.13132 263.838149 
L 202.813468 260.859771 
L 204.495616 264.334151 
L 206.177764 262.371909 
L 207.859912 263.798521 
L 209.54206 263.676206 
L 211.224207 264.290501 
L 212.906355 263.608187 
L 214.588503 263.986251 
L 216.270651 262.914991 
L 217.952799 262.260714 
L 219.634947 263.202088 
L 221.317095 263.000399 
L 222.999243 264.325634 
L 224.681391 261.924998 
L 226.363539 261.960605 
L 228.045687 264.107738 
L 229.727834 263.902973 
L 231.409982 259.673294 
L 233.09213 262.302826 
L 234.774278 261.246826 
L 236.456426 264.4929 
L 238.138574 263.471677 
L 239.820722 263.868905 
L 241.50287 264.145 
L 243.185018 261.844441 
L 244.867166 264.264949 
L 246.549313 264.11247 
L 248.231461 264.546368 
L 249.913609 264.445109 
L 251.595757 263.836019 
L 253.277905 262.105632 
L 254.960053 264.603503 
L 256.642201 264.075563 
L 258.324349 263.207884 
L 260.006497 264.255249 
L 261.688645 263.682712 
L 263.370793 260.021548 
L 265.05294 264.225085 
L 266.735088 263.623447 
L 270.099384 263.658462 
L 271.781532 263.13892 
L 273.46368 264.279026 
L 275.145828 262.507827 
L 276.827976 264.641239 
L 278.510124 263.461977 
L 280.192272 264.13743 
L 281.874419 262.933208 
L 283.556567 263.524909 
L 285.238715 264.280209 
L 286.920863 262.337367 
L 288.603011 263.491551 
L 290.285159 263.542417 
L 291.967307 264.256787 
L 293.649455 264.113298 
L 295.331603 260.80441 
L 297.013751 264.302803 
L 298.695898 261.738806 
L 300.378046 263.100356 
L 302.060194 264.230053 
L 303.742342 262.273371 
L 305.42449 264.324332 
L 307.106638 264.547551 
L 308.788786 263.448137 
L 310.470934 264.036526 
L 312.153082 260.746329 
L 313.83523 263.954312 
L 317.199525 264.171143 
L 318.881673 263.390765 
L 320.563821 264.205803 
L 322.245969 263.906877 
L 323.928117 264.472908 
L 325.610265 264.559144 
L 327.292413 263.880024 
L 328.974561 264.552638 
L 330.656709 263.506219 
L 332.338857 262.141711 
L 334.021004 264.446884 
L 335.703152 264.514666 
L 337.3853 264.339237 
L 339.067448 264.522355 
L 340.749596 263.583228 
L 342.431744 262.20204 
L 344.113892 263.686379 
L 345.79604 264.373897 
L 347.478188 264.282812 
L 349.160336 260.62567 
L 350.842484 264.378984 
L 352.524631 262.387287 
L 354.206779 263.913974 
L 355.888927 264.207104 
L 357.571075 260.931457 
L 359.253223 264.495266 
L 360.935371 264.567306 
L 362.617519 264.021976 
L 364.299667 263.325586 
L 365.981815 263.372312 
L 367.663963 263.5436 
L 369.34611 262.902925 
L 371.028258 263.73204 
L 372.710406 263.849978 
L 374.392554 264.639938 
L 377.75685 263.405315 
L 379.438998 263.836848 
L 381.121146 263.290335 
L 382.803294 263.745289 
L 384.485442 264.36053 
L 386.167589 264.34598 
L 387.849737 264.494792 
L 389.531885 264.080176 
L 391.214033 263.164234 
L 392.896181 263.074687 
L 394.578329 264.309073 
L 396.260477 261.951851 
L 399.624773 264.361003 
L 399.624773 264.361003 
" style="fill:none;stroke:#2ca02c;stroke-linecap:square;stroke-width:1.5;"/>
   </g>
   <g id="line2d_22">
    <path clip-path="url(#pa6921ea1e1)" d="M 74.970227 264.316998 
L 76.652375 262.518355 
L 78.334523 264.110814 
L 80.016671 264.4541 
L 81.698819 263.266085 
L 83.380967 262.747134 
L 86.745263 263.95585 
L 88.427411 263.635395 
L 90.109558 264.061367 
L 91.791706 263.411112 
L 93.473854 264.292748 
L 95.156002 263.546202 
L 96.83815 264.04386 
L 98.520298 264.31203 
L 100.202446 262.630615 
L 101.884594 261.561485 
L 103.566742 263.3218 
L 105.24889 260.909336 
L 106.931037 264.214793 
L 108.613185 264.397674 
L 110.295333 264.087037 
L 111.977481 264.518924 
L 113.659629 264.507805 
L 115.341777 263.560752 
L 117.023925 263.715834 
L 118.706073 264.549089 
L 120.388221 263.582163 
L 122.070369 263.876594 
L 123.752516 264.422989 
L 125.434664 263.313165 
L 127.116812 262.681008 
L 128.79896 263.977853 
L 130.481108 264.431506 
L 132.163256 263.300389 
L 133.845404 264.103598 
L 135.527552 264.446647 
L 137.2097 264.173391 
L 138.891848 264.240108 
L 140.573996 264.429022 
L 142.256143 263.675023 
L 143.938291 263.564183 
L 145.620439 262.972008 
L 147.302587 263.856721 
L 148.984735 264.323504 
L 150.666883 263.990155 
L 152.349031 264.134117 
L 154.031179 264.614268 
L 155.713327 264.056991 
L 159.077622 264.374725 
L 160.75977 263.885466 
L 162.441918 264.288253 
L 164.124066 264.210535 
L 167.488362 263.719264 
L 169.17051 264.129267 
L 170.852658 262.196244 
L 172.534806 264.235376 
L 175.899102 264.612139 
L 177.581249 263.403068 
L 179.263397 264.211481 
L 180.945545 263.407563 
L 182.627693 264.020438 
L 184.309841 264.245313 
L 185.991989 263.777583 
L 187.674137 264.278671 
L 189.356285 263.226693 
L 191.038433 264.632722 
L 192.720581 263.607478 
L 194.402728 264.274413 
L 196.084876 264.585878 
L 197.767024 264.076864 
L 201.13132 264.115427 
L 202.813468 263.661538 
L 204.495616 264.5317 
L 206.177764 263.846666 
L 207.859912 264.060894 
L 209.54206 263.53319 
L 211.224207 263.377635 
L 212.906355 262.682782 
L 214.588503 264.074616 
L 216.270651 263.823835 
L 217.952799 260.737338 
L 219.634947 263.247276 
L 221.317095 263.369354 
L 222.999243 262.918304 
L 224.681391 264.186048 
L 226.363539 264.409622 
L 229.727834 263.652192 
L 231.409982 263.565484 
L 233.09213 264.196458 
L 234.774278 262.714012 
L 236.456426 264.328946 
L 238.138574 264.296415 
L 239.820722 264.498578 
L 241.50287 262.851586 
L 243.185018 263.824427 
L 244.867166 264.19421 
L 248.231461 263.550342 
L 249.913609 264.401104 
L 251.595757 264.222719 
L 253.277905 263.836729 
L 254.960053 264.537023 
L 256.642201 264.181198 
L 258.324349 263.441986 
L 260.006497 264.041258 
L 261.688645 262.794214 
L 263.370793 263.408982 
L 265.05294 264.411278 
L 266.735088 264.385253 
L 268.417236 263.520296 
L 270.099384 264.455756 
L 271.781532 263.399755 
L 273.46368 263.960345 
L 275.145828 264.356508 
L 276.827976 263.853527 
L 278.510124 263.208476 
L 280.192272 264.576533 
L 281.874419 263.812006 
L 285.238715 264.475392 
L 286.920863 264.186166 
L 290.285159 264.163691 
L 291.967307 263.99465 
L 293.649455 264.610838 
L 295.331603 264.614268 
L 298.695898 264.015706 
L 300.378046 264.398029 
L 302.060194 264.111997 
L 303.742342 264.000092 
L 305.42449 263.128983 
L 307.106638 264.626925 
L 308.788786 263.889133 
L 310.470934 264.20048 
L 312.153082 264.322321 
L 315.517378 263.40496 
L 317.199525 263.747418 
L 318.881673 264.437894 
L 320.563821 264.197759 
L 322.245969 263.217111 
L 323.928117 264.356626 
L 325.610265 264.618408 
L 327.292413 264.008254 
L 328.974561 264.406428 
L 330.656709 261.273323 
L 332.338857 263.170977 
L 334.021004 264.588599 
L 335.703152 264.277962 
L 337.3853 264.501062 
L 339.067448 264.295587 
L 340.749596 264.212191 
L 342.431744 263.303465 
L 344.113892 264.186403 
L 345.79604 264.562101 
L 347.478188 263.768711 
L 349.160336 262.360198 
L 350.842484 264.37366 
L 352.524631 264.058292 
L 354.206779 263.903801 
L 355.888927 264.589545 
L 357.571075 263.41466 
L 359.253223 262.817281 
L 360.935371 264.211718 
L 362.617519 263.257922 
L 364.299667 263.7473 
L 365.981815 264.60788 
L 367.663963 263.427318 
L 369.34611 263.525382 
L 371.028258 264.19977 
L 374.392554 264.570855 
L 376.074702 263.042866 
L 377.75685 263.712758 
L 379.438998 263.563236 
L 381.121146 262.249121 
L 384.485442 263.82833 
L 386.167589 264.443926 
L 387.849737 264.012158 
L 389.531885 263.139275 
L 391.214033 264.604805 
L 392.896181 263.837557 
L 394.578329 264.622549 
L 396.260477 263.929944 
L 397.942625 262.974966 
L 399.624773 264.180607 
L 399.624773 264.180607 
" style="fill:none;stroke:#d62728;stroke-linecap:square;stroke-width:1.5;"/>
   </g>
   <g id="line2d_23">
    <path clip-path="url(#pa6921ea1e1)" d="M 74.970227 264.279381 
L 76.652375 263.659408 
L 78.334523 263.27472 
L 80.016671 264.409385 
L 81.698819 262.830175 
L 83.380967 262.396277 
L 85.063115 260.507732 
L 86.745263 263.149211 
L 88.427411 263.883928 
L 90.109558 262.787708 
L 91.791706 262.966804 
L 93.473854 261.181173 
L 95.156002 263.976197 
L 96.83815 264.303276 
L 98.520298 263.248695 
L 100.202446 263.842289 
L 101.884594 263.662839 
L 103.566742 262.949888 
L 105.24889 263.992521 
L 106.931037 263.455235 
L 108.613185 264.45197 
L 111.977481 264.631184 
L 113.659629 264.3765 
L 115.341777 264.566123 
L 117.023925 263.821706 
L 118.706073 263.564656 
L 122.070369 264.526613 
L 123.752516 264.325988 
L 125.434664 263.618361 
L 127.116812 264.44369 
L 128.79896 263.676442 
L 132.163256 264.397674 
L 135.527552 264.280327 
L 137.2097 264.201426 
L 138.891848 263.614694 
L 140.573996 263.815555 
L 145.620439 264.09307 
L 147.302587 263.182097 
L 148.984735 264.150205 
L 150.666883 263.649827 
L 152.349031 264.005297 
L 154.031179 264.076864 
L 155.713327 263.422113 
L 157.395475 264.324806 
L 159.077622 263.446363 
L 160.75977 264.194092 
L 162.441918 263.953366 
L 164.124066 264.568252 
L 165.806214 264.420978 
L 167.488362 263.01211 
L 169.17051 264.166057 
L 170.852658 263.789649 
L 172.534806 264.601493 
L 175.899102 264.48734 
L 177.581249 263.441868 
L 179.263397 264.443217 
L 180.945545 264.15683 
L 182.627693 261.877326 
L 184.309841 263.756408 
L 185.991989 263.672539 
L 187.674137 263.225273 
L 191.038433 263.755935 
L 192.720581 264.170788 
L 194.402728 263.781368 
L 196.084876 264.299609 
L 197.767024 264.352486 
L 199.449172 263.872217 
L 201.13132 264.367154 
L 202.813468 263.332329 
L 204.495616 264.319127 
L 206.177764 263.953484 
L 207.859912 264.082069 
L 209.54206 263.314585 
L 211.224207 263.977971 
L 212.906355 263.628179 
L 214.588503 264.500944 
L 216.270651 262.94835 
L 217.952799 263.920717 
L 219.634947 263.593046 
L 221.317095 262.196954 
L 222.999243 264.463326 
L 224.681391 264.417074 
L 226.363539 263.847612 
L 228.045687 263.912792 
L 229.727834 263.177128 
L 231.409982 264.107856 
L 234.774278 263.819104 
L 236.456426 264.410213 
L 238.138574 264.46167 
L 239.820722 264.24898 
L 241.50287 263.760075 
L 243.185018 263.693477 
L 244.867166 264.264476 
L 246.549313 264.514784 
L 249.913609 263.804199 
L 251.595757 264.283403 
L 253.277905 264.106082 
L 254.960053 264.516913 
L 256.642201 264.490061 
L 258.324349 264.096264 
L 260.006497 264.239162 
L 261.688645 263.881207 
L 263.370793 264.087865 
L 265.05294 264.473026 
L 266.735088 264.317945 
L 271.781532 263.429092 
L 273.46368 264.171261 
L 275.145828 264.527441 
L 276.827976 264.01334 
L 278.510124 263.958807 
L 280.192272 264.602557 
L 281.874419 263.568441 
L 285.238715 264.500352 
L 286.920863 263.885821 
L 290.285159 263.82348 
L 291.967307 264.230053 
L 293.649455 264.237269 
L 297.013751 263.308197 
L 298.695898 263.084978 
L 300.378046 264.263885 
L 302.060194 263.845719 
L 303.742342 264.070476 
L 305.42449 263.937988 
L 307.106638 264.615451 
L 308.788786 263.792133 
L 312.153082 264.032622 
L 313.83523 263.34404 
L 315.517378 263.910899 
L 317.199525 263.254374 
L 318.881673 264.234312 
L 320.563821 263.78125 
L 322.245969 264.242829 
L 323.928117 264.238452 
L 325.610265 264.490889 
L 328.974561 264.592147 
L 330.656709 263.805855 
L 332.338857 264.147011 
L 334.021004 264.198824 
L 335.703152 264.525549 
L 337.3853 264.299491 
L 339.067448 263.846784 
L 340.749596 264.273585 
L 342.431744 263.893037 
L 345.79604 264.197049 
L 347.478188 263.661538 
L 349.160336 261.314016 
L 350.842484 264.149969 
L 352.524631 264.002339 
L 354.206779 263.252126 
L 355.888927 264.598772 
L 357.571075 264.116728 
L 359.253223 264.152689 
L 360.935371 264.471016 
L 362.617519 263.009981 
L 364.299667 264.419913 
L 365.981815 264.287543 
L 367.663963 264.365971 
L 369.34611 263.326414 
L 371.028258 263.355751 
L 372.710406 264.463326 
L 374.392554 264.602439 
L 376.074702 263.369827 
L 377.75685 264.141807 
L 379.438998 264.213137 
L 381.121146 263.942365 
L 382.803294 264.056399 
L 384.485442 264.056636 
L 386.167589 264.406901 
L 387.849737 264.246732 
L 389.531885 263.245383 
L 391.214033 264.006716 
L 392.896181 263.792843 
L 394.578329 264.552638 
L 396.260477 263.882154 
L 397.942625 264.377209 
L 399.624773 263.822534 
L 399.624773 263.822534 
" style="fill:none;stroke:#9467bd;stroke-linecap:square;stroke-width:1.5;"/>
   </g>
   <g id="line2d_24">
    <path clip-path="url(#pa6921ea1e1)" d="M 74.970227 264.205211 
L 76.652375 263.555784 
L 78.334523 263.557913 
L 80.016671 264.262702 
L 81.698819 262.888849 
L 83.380967 262.619732 
L 85.063115 263.545611 
L 86.745263 263.335049 
L 88.427411 262.469737 
L 90.109558 262.955447 
L 91.791706 263.145426 
L 93.473854 263.574237 
L 95.156002 263.513553 
L 96.83815 264.423462 
L 98.520298 263.483743 
L 100.202446 262.923035 
L 101.884594 262.872288 
L 103.566742 262.521313 
L 105.24889 263.695961 
L 111.977481 264.607999 
L 113.659629 264.399922 
L 115.341777 263.46458 
L 117.023925 263.852226 
L 118.706073 264.037117 
L 120.388221 263.478657 
L 122.070369 262.750446 
L 123.752516 263.570097 
L 125.434664 264.145355 
L 127.116812 264.038892 
L 128.79896 264.159432 
L 130.481108 263.978917 
L 132.163256 263.964959 
L 133.845404 263.625576 
L 135.527552 263.884046 
L 137.2097 263.997726 
L 138.891848 263.902618 
L 140.573996 263.419392 
L 142.256143 264.094489 
L 143.938291 263.822179 
L 145.620439 263.326177 
L 148.984735 263.612919 
L 150.666883 263.261944 
L 152.349031 263.964722 
L 155.713327 264.098866 
L 157.395475 264.573457 
L 159.077622 264.050958 
L 162.441918 263.727308 
L 164.124066 263.228586 
L 165.806214 264.488878 
L 167.488362 263.419037 
L 169.17051 263.700929 
L 170.852658 263.53177 
L 172.534806 264.182381 
L 174.216954 263.944376 
L 175.899102 264.426183 
L 177.581249 263.419629 
L 179.263397 263.336705 
L 180.945545 261.084764 
L 182.627693 263.256385 
L 185.991989 263.873282 
L 187.674137 263.648407 
L 189.356285 264.034751 
L 191.038433 264.08751 
L 192.720581 263.951355 
L 194.402728 263.014949 
L 196.084876 263.875174 
L 197.767024 263.060965 
L 199.449172 264.10348 
L 201.13132 263.803252 
L 202.813468 263.979982 
L 204.495616 263.990392 
L 206.177764 263.45074 
L 207.859912 263.529286 
L 209.54206 264.001275 
L 211.224207 263.047006 
L 212.906355 263.808576 
L 214.588503 264.233957 
L 216.270651 264.1741 
L 217.952799 263.708381 
L 219.634947 264.304223 
L 221.317095 263.929471 
L 222.999243 263.698563 
L 224.681391 264.050248 
L 226.363539 263.914803 
L 228.045687 263.659172 
L 229.727834 263.631491 
L 231.409982 263.85258 
L 233.09213 263.94686 
L 234.774278 263.825018 
L 236.456426 264.517505 
L 238.138574 264.130332 
L 239.820722 263.12851 
L 241.50287 264.062669 
L 243.185018 263.582991 
L 244.867166 264.236441 
L 246.549313 264.235849 
L 248.231461 263.721985 
L 249.913609 264.378392 
L 251.595757 264.275241 
L 253.277905 263.967561 
L 254.960053 264.622785 
L 256.642201 264.384189 
L 258.324349 264.373306 
L 260.006497 263.587131 
L 261.688645 263.958453 
L 263.370793 264.095672 
L 265.05294 263.904511 
L 266.735088 264.082778 
L 268.417236 263.640481 
L 270.099384 264.008845 
L 271.781532 263.316477 
L 273.46368 264.018427 
L 276.827976 264.152098 
L 278.510124 263.419629 
L 280.192272 264.441206 
L 281.874419 263.62534 
L 283.556567 263.743278 
L 285.238715 264.156357 
L 286.920863 263.939171 
L 288.603011 263.025004 
L 290.285159 264.09792 
L 293.649455 263.404842 
L 295.331603 263.780895 
L 297.013751 264.329892 
L 298.695898 263.903683 
L 300.378046 264.145828 
L 302.060194 264.203555 
L 303.742342 263.757946 
L 305.42449 264.260691 
L 307.106638 264.51644 
L 308.788786 264.273348 
L 310.470934 263.723523 
L 312.153082 263.414542 
L 313.83523 263.821469 
L 315.517378 263.584292 
L 317.199525 263.851516 
L 318.881673 263.294238 
L 320.563821 264.193027 
L 322.245969 263.826438 
L 323.928117 264.237979 
L 325.610265 264.42772 
L 327.292413 264.148786 
L 328.974561 264.523656 
L 330.656709 263.731685 
L 334.021004 264.021739 
L 335.703152 264.455401 
L 337.3853 264.472317 
L 339.067448 263.858732 
L 340.749596 263.980218 
L 342.431744 263.641191 
L 344.113892 263.841461 
L 345.79604 263.661774 
L 347.478188 264.140032 
L 350.842484 263.721394 
L 352.524631 263.870324 
L 354.206779 263.875648 
L 355.888927 264.5511 
L 357.571075 262.861641 
L 359.253223 264.141452 
L 360.935371 263.926277 
L 362.617519 263.341437 
L 364.299667 264.181671 
L 365.981815 264.065862 
L 369.34611 264.215858 
L 371.028258 264.120395 
L 374.392554 264.517505 
L 376.074702 264.069766 
L 377.75685 263.500304 
L 379.438998 264.322795 
L 381.121146 264.406782 
L 382.803294 263.821115 
L 384.485442 263.975132 
L 386.167589 264.540572 
L 387.849737 263.838859 
L 389.531885 264.155528 
L 391.214033 264.241409 
L 392.896181 264.046344 
L 394.578329 264.568725 
L 396.260477 263.83874 
L 397.942625 262.864835 
L 399.624773 263.090775 
L 399.624773 263.090775 
" style="fill:none;stroke:#8c564b;stroke-linecap:square;stroke-width:1.5;"/>
   </g>
   <g id="line2d_25">
    <path clip-path="url(#pa6921ea1e1)" d="M 74.970227 264.513719 
L 76.652375 263.778766 
L 78.334523 263.768829 
L 80.016671 264.577361 
L 81.698819 263.994768 
L 83.380967 264.362778 
L 85.063115 262.242496 
L 86.745263 263.755225 
L 88.427411 263.992876 
L 90.109558 263.409337 
L 91.791706 264.1838 
L 93.473854 263.699746 
L 95.156002 264.323977 
L 96.83815 264.650821 
L 98.520298 263.822652 
L 100.202446 263.876831 
L 101.884594 264.420031 
L 103.566742 264.266132 
L 105.24889 264.328827 
L 106.931037 264.043269 
L 108.613185 264.4638 
L 110.295333 264.612612 
L 113.659629 264.613204 
L 115.341777 264.255841 
L 117.023925 264.035106 
L 118.706073 263.999737 
L 120.388221 263.767646 
L 123.752516 264.095199 
L 125.434664 264.264713 
L 127.116812 264.233483 
L 128.79896 263.933966 
L 130.481108 264.358401 
L 132.163256 263.783379 
L 133.845404 264.277252 
L 135.527552 264.062432 
L 137.2097 264.257852 
L 138.891848 264.129859 
L 142.256143 264.357218 
L 143.938291 263.556493 
L 145.620439 263.566903 
L 147.302587 264.017599 
L 148.984735 264.283995 
L 150.666883 263.843235 
L 152.349031 264.247679 
L 154.031179 263.478302 
L 155.713327 264.227687 
L 157.395475 264.48249 
L 159.077622 263.92261 
L 160.75977 264.165228 
L 162.441918 264.171853 
L 164.124066 264.476457 
L 165.806214 264.414235 
L 167.488362 263.645686 
L 169.17051 264.205803 
L 170.852658 263.89209 
L 172.534806 263.91291 
L 174.216954 264.303631 
L 175.899102 264.572629 
L 177.581249 264.292393 
L 179.263397 263.790713 
L 180.945545 264.128203 
L 182.627693 264.26909 
L 185.991989 264.107738 
L 187.674137 263.702822 
L 189.356285 263.892445 
L 191.038433 264.475274 
L 192.720581 263.762086 
L 194.402728 263.73133 
L 196.084876 264.469005 
L 197.767024 264.051312 
L 199.449172 264.053205 
L 201.13132 264.293221 
L 202.813468 263.933848 
L 204.495616 264.337108 
L 206.177764 264.020201 
L 207.859912 264.344087 
L 209.54206 264.422042 
L 212.906355 263.972884 
L 214.588503 264.240226 
L 216.270651 264.090704 
L 219.634947 264.38135 
L 221.317095 263.586658 
L 222.999243 264.255486 
L 229.727834 263.827029 
L 231.409982 264.373069 
L 233.09213 264.279499 
L 234.774278 263.788466 
L 236.456426 264.576414 
L 238.138574 264.060776 
L 239.820722 264.264476 
L 241.50287 264.294877 
L 243.185018 264.167831 
L 244.867166 264.398384 
L 246.549313 264.319009 
L 248.231461 264.084553 
L 251.595757 264.48107 
L 253.277905 264.090349 
L 254.960053 264.597825 
L 256.642201 264.481544 
L 258.324349 264.571446 
L 261.688645 264.105727 
L 263.370793 264.057345 
L 265.05294 264.478231 
L 266.735088 264.334032 
L 268.417236 264.313804 
L 270.099384 264.453626 
L 271.781532 264.341367 
L 273.46368 263.749784 
L 275.145828 264.105254 
L 276.827976 264.09792 
L 278.510124 264.499051 
L 281.874419 264.32729 
L 283.556567 263.866894 
L 285.238715 264.262938 
L 286.920863 264.384898 
L 288.603011 264.058883 
L 290.285159 264.369875 
L 291.967307 263.973712 
L 293.649455 263.913028 
L 295.331603 264.202846 
L 297.013751 263.802779 
L 298.695898 264.268853 
L 300.378046 264.124063 
L 303.742342 264.061841 
L 305.42449 263.348535 
L 307.106638 264.590136 
L 308.788786 264.376026 
L 310.470934 264.460961 
L 312.153082 264.133408 
L 317.199525 264.147485 
L 318.881673 264.359939 
L 320.563821 263.516156 
L 322.245969 264.122525 
L 323.928117 264.173391 
L 325.610265 264.586588 
L 327.292413 264.021621 
L 328.974561 264.531581 
L 330.656709 263.941892 
L 332.338857 264.413289 
L 334.021004 264.135537 
L 335.703152 264.570736 
L 337.3853 264.557369 
L 339.067448 264.309073 
L 340.749596 264.380758 
L 342.431744 263.831288 
L 344.113892 264.029547 
L 345.79604 264.343141 
L 347.478188 264.036171 
L 349.160336 264.33072 
L 350.842484 264.257733 
L 352.524631 263.833417 
L 354.206779 264.383124 
L 355.888927 264.628463 
L 357.571075 264.53584 
L 359.253223 264.079939 
L 364.299667 264.295824 
L 365.981815 263.908651 
L 367.663963 264.498105 
L 369.34611 264.536077 
L 371.028258 264.407256 
L 374.392554 264.561628 
L 376.074702 264.304341 
L 379.438998 264.443098 
L 381.121146 264.436119 
L 382.803294 264.207696 
L 386.167589 264.630593 
L 389.531885 264.171853 
L 391.214033 264.198469 
L 392.896181 264.403115 
L 394.578329 264.470542 
L 396.260477 263.200195 
L 397.942625 264.33214 
L 399.624773 263.562881 
L 399.624773 263.562881 
" style="fill:none;stroke:#e377c2;stroke-linecap:square;stroke-width:1.5;"/>
   </g>
   <g id="line2d_26">
    <path clip-path="url(#pa6921ea1e1)" d="M 74.970227 264.64183 
L 76.652375 264.407256 
L 80.016671 264.600546 
L 83.380967 264.246851 
L 85.063115 263.88866 
L 86.745263 264.009437 
L 88.427411 263.959754 
L 90.109558 264.021384 
L 91.791706 263.846548 
L 93.473854 264.371413 
L 95.156002 264.105136 
L 96.83815 264.604805 
L 98.520298 264.375908 
L 100.202446 264.527678 
L 101.884594 264.443335 
L 103.566742 264.474091 
L 105.24889 264.287662 
L 106.931037 264.542583 
L 113.659629 264.548261 
L 115.341777 264.398739 
L 117.023925 264.391759 
L 118.706073 264.495975 
L 120.388221 264.242947 
L 122.070369 264.30162 
L 123.752516 264.126783 
L 125.434664 264.337226 
L 127.116812 264.251937 
L 128.79896 264.455164 
L 130.481108 264.17552 
L 132.163256 264.443453 
L 137.2097 264.491598 
L 138.891848 264.183091 
L 140.573996 264.269326 
L 142.256143 264.469714 
L 145.620439 264.36952 
L 147.302587 263.910307 
L 148.984735 264.259153 
L 150.666883 264.40903 
L 152.349031 264.255959 
L 154.031179 264.229816 
L 157.395475 264.550153 
L 159.077622 264.081714 
L 162.441918 264.453745 
L 164.124066 264.264713 
L 165.806214 264.62941 
L 167.488362 264.070239 
L 169.17051 264.413643 
L 170.852658 264.12773 
L 172.534806 264.448303 
L 174.216954 264.293931 
L 175.899102 264.651767 
L 177.581249 264.298308 
L 179.263397 264.567661 
L 182.627693 264.33143 
L 184.309841 264.480834 
L 185.991989 264.441797 
L 189.356285 263.924384 
L 191.038433 264.337699 
L 192.720581 264.319009 
L 194.402728 264.532883 
L 196.084876 264.297953 
L 197.767024 264.473026 
L 199.449172 264.344679 
L 201.13132 264.45895 
L 202.813468 264.424763 
L 204.495616 264.583394 
L 206.177764 264.511117 
L 207.859912 264.551691 
L 209.54206 264.316407 
L 212.906355 264.416246 
L 214.588503 264.593212 
L 216.270651 264.468886 
L 228.045687 264.402879 
L 229.727834 264.269326 
L 233.09213 264.471134 
L 234.774278 264.300556 
L 236.456426 264.619 
L 238.138574 264.415063 
L 239.820722 264.488168 
L 241.50287 263.975014 
L 243.185018 264.499051 
L 246.549313 264.508751 
L 248.231461 264.138849 
L 249.913609 264.411159 
L 251.595757 264.387619 
L 253.277905 264.578071 
L 258.324349 264.581264 
L 260.006497 264.320784 
L 261.688645 264.396254 
L 263.370793 264.29121 
L 265.05294 264.477876 
L 276.827976 264.327763 
L 278.510124 264.125127 
L 280.192272 264.609655 
L 285.238715 264.056399 
L 286.920863 264.512536 
L 288.603011 264.51502 
L 290.285159 264.041258 
L 293.649455 264.256432 
L 295.331603 264.590018 
L 297.013751 264.365853 
L 298.695898 264.360767 
L 300.378046 264.554412 
L 302.060194 264.387146 
L 305.42449 264.311438 
L 307.106638 264.626216 
L 308.788786 264.388565 
L 310.470934 264.505202 
L 312.153082 264.129504 
L 313.83523 264.534066 
L 315.517378 264.34527 
L 317.199525 264.471844 
L 320.563821 264.4444 
L 322.245969 264.442744 
L 325.610265 264.58919 
L 327.292413 264.189597 
L 328.974561 264.637808 
L 330.656709 264.562219 
L 332.338857 264.369284 
L 334.021004 264.600546 
L 335.703152 264.529925 
L 337.3853 264.6578 
L 339.067448 264.389039 
L 340.749596 264.325042 
L 342.431744 264.504611 
L 347.478188 264.239162 
L 350.842484 264.475392 
L 354.206779 264.33143 
L 355.888927 264.643368 
L 357.571075 264.488523 
L 359.253223 264.55595 
L 360.935371 264.032267 
L 362.617519 264.434463 
L 365.981815 264.436237 
L 367.663963 264.212546 
L 369.34611 264.399567 
L 372.710406 264.309901 
L 374.392554 264.621484 
L 377.75685 264.335097 
L 379.438998 264.132343 
L 381.121146 264.412697 
L 382.803294 264.478231 
L 384.485442 264.377682 
L 386.167589 264.621721 
L 387.849737 264.377919 
L 389.531885 264.595578 
L 392.896181 264.36609 
L 394.578329 264.625861 
L 396.260477 264.440141 
L 399.624773 264.465692 
L 399.624773 264.465692 
" style="fill:none;stroke:#7f7f7f;stroke-linecap:square;stroke-width:1.5;"/>
   </g>
   <g id="line2d_27">
    <path clip-path="url(#pa6921ea1e1)" d="M 74.970227 264.679684 
L 132.163256 264.672468 
L 399.624773 264.673769 
L 399.624773 264.673769 
" style="fill:none;stroke:#bcbd22;stroke-linecap:square;stroke-width:1.5;"/>
   </g>
   <g id="line2d_28">
    <path clip-path="url(#pa6921ea1e1)" d="M 74.970227 264.679684 
L 128.79896 264.673296 
L 399.624773 264.671404 
L 399.624773 264.671404 
" style="fill:none;stroke:#17becf;stroke-linecap:square;stroke-width:1.5;"/>
   </g>
   <g id="line2d_29">
    <path clip-path="url(#pa6921ea1e1)" d="M 74.970227 264.666199 
L 145.620439 264.672468 
L 185.991989 264.678383 
L 201.13132 264.676608 
L 234.774278 264.669629 
L 263.370793 264.67306 
L 342.431744 264.67164 
L 399.624773 264.675071 
L 399.624773 264.675071 
" style="fill:none;stroke:#1f77b4;stroke-linecap:square;stroke-width:1.5;"/>
   </g>
   <g id="line2d_30">
    <path clip-path="url(#pa6921ea1e1)" d="M 74.970227 264.679684 
L 399.624773 264.679684 
L 399.624773 264.679684 
" style="fill:none;stroke:#ff7f0e;stroke-linecap:square;stroke-width:1.5;"/>
   </g>
   <g id="patch_3">
    <path d="M 58.7375 276.812 
L 58.7375 10.7 
" style="fill:none;stroke:#000000;stroke-linecap:square;stroke-linejoin:miter;stroke-width:0.8;"/>
   </g>
   <g id="patch_4">
    <path d="M 415.8575 276.812 
L 415.8575 10.7 
" style="fill:none;stroke:#000000;stroke-linecap:square;stroke-linejoin:miter;stroke-width:0.8;"/>
   </g>
   <g id="patch_5">
    <path d="M 58.7375 276.812 
L 415.8575 276.812 
" style="fill:none;stroke:#000000;stroke-linecap:square;stroke-linejoin:miter;stroke-width:0.8;"/>
   </g>
   <g id="patch_6">
    <path d="M 58.7375 10.7 
L 415.8575 10.7 
" style="fill:none;stroke:#000000;stroke-linecap:square;stroke-linejoin:miter;stroke-width:0.8;"/>
   </g>
   <g id="legend_1">
    <g id="patch_7">
     <path d="M 192.120937 165.48125 
L 282.474063 165.48125 
Q 284.474063 165.48125 284.474063 163.48125 
L 284.474063 17.7 
Q 284.474063 15.7 282.474063 15.7 
L 192.120937 15.7 
Q 190.120937 15.7 190.120937 17.7 
L 190.120937 163.48125 
Q 190.120937 165.48125 192.120937 165.48125 
z
" style="fill:#ffffff;opacity:0.8;stroke:#cccccc;stroke-linejoin:miter;"/>
    </g>
    <g id="line2d_31">
     <path d="M 194.120937 23.798437 
L 214.120937 23.798437 
" style="fill:none;stroke:#1f77b4;stroke-linecap:square;stroke-width:1.5;"/>
    </g>
    <g id="line2d_32"/>
    <g id="text_19">
     <!-- delta -->
     <defs>
      <path d="M 45.40625 46.390625 
L 45.40625 75.984375 
L 54.390625 75.984375 
L 54.390625 0 
L 45.40625 0 
L 45.40625 8.203125 
Q 42.578125 3.328125 38.25 0.953125 
Q 33.9375 -1.421875 27.875 -1.421875 
Q 17.96875 -1.421875 11.734375 6.484375 
Q 5.515625 14.40625 5.515625 27.296875 
Q 5.515625 40.1875 11.734375 48.09375 
Q 17.96875 56 27.875 56 
Q 33.9375 56 38.25 53.625 
Q 42.578125 51.265625 45.40625 46.390625 
M 14.796875 27.296875 
Q 14.796875 17.390625 18.875 11.75 
Q 22.953125 6.109375 30.078125 6.109375 
Q 37.203125 6.109375 41.296875 11.75 
Q 45.40625 17.390625 45.40625 27.296875 
Q 45.40625 37.203125 41.296875 42.84375 
Q 37.203125 48.484375 30.078125 48.484375 
Q 22.953125 48.484375 18.875 42.84375 
Q 14.796875 37.203125 14.796875 27.296875 
" id="DejaVuSans-64"/>
      <path d="M 56.203125 29.59375 
L 56.203125 25.203125 
L 14.890625 25.203125 
Q 15.484375 15.921875 20.484375 11.0625 
Q 25.484375 6.203125 34.421875 6.203125 
Q 39.59375 6.203125 44.453125 7.46875 
Q 49.3125 8.734375 54.109375 11.28125 
L 54.109375 2.78125 
Q 49.265625 0.734375 44.1875 -0.34375 
Q 39.109375 -1.421875 33.890625 -1.421875 
Q 20.796875 -1.421875 13.15625 6.1875 
Q 5.515625 13.8125 5.515625 26.8125 
Q 5.515625 40.234375 12.765625 48.109375 
Q 20.015625 56 32.328125 56 
Q 43.359375 56 49.78125 48.890625 
Q 56.203125 41.796875 56.203125 29.59375 
M 47.21875 32.234375 
Q 47.125 39.59375 43.09375 43.984375 
Q 39.0625 48.390625 32.421875 48.390625 
Q 24.90625 48.390625 20.390625 44.140625 
Q 15.875 39.890625 15.1875 32.171875 
z
" id="DejaVuSans-65"/>
      <path d="M 9.421875 75.984375 
L 18.40625 75.984375 
L 18.40625 0 
L 9.421875 0 
z
" id="DejaVuSans-6c"/>
      <path d="M 18.3125 70.21875 
L 18.3125 54.6875 
L 36.8125 54.6875 
L 36.8125 47.703125 
L 18.3125 47.703125 
L 18.3125 18.015625 
Q 18.3125 11.328125 20.140625 9.421875 
Q 21.96875 7.515625 27.59375 7.515625 
L 36.8125 7.515625 
L 36.8125 0 
L 27.59375 0 
Q 17.1875 0 13.234375 3.875 
Q 9.28125 7.765625 9.28125 18.015625 
L 9.28125 47.703125 
L 2.6875 47.703125 
L 2.6875 54.6875 
L 9.28125 54.6875 
L 9.28125 70.21875 
z
" id="DejaVuSans-74"/>
      <path d="M 34.28125 27.484375 
Q 23.390625 27.484375 19.1875 25 
Q 14.984375 22.515625 14.984375 16.5 
Q 14.984375 11.71875 18.140625 8.90625 
Q 21.296875 6.109375 26.703125 6.109375 
Q 34.1875 6.109375 38.703125 11.40625 
Q 43.21875 16.703125 43.21875 25.484375 
L 43.21875 27.484375 
z
M 52.203125 31.203125 
L 52.203125 0 
L 43.21875 0 
L 43.21875 8.296875 
Q 40.140625 3.328125 35.546875 0.953125 
Q 30.953125 -1.421875 24.3125 -1.421875 
Q 15.921875 -1.421875 10.953125 3.296875 
Q 6 8.015625 6 15.921875 
Q 6 25.140625 12.171875 29.828125 
Q 18.359375 34.515625 30.609375 34.515625 
L 43.21875 34.515625 
L 43.21875 35.40625 
Q 43.21875 41.609375 39.140625 45 
Q 35.0625 48.390625 27.6875 48.390625 
Q 23 48.390625 18.546875 47.265625 
Q 14.109375 46.140625 10.015625 43.890625 
L 10.015625 52.203125 
Q 14.9375 54.109375 19.578125 55.046875 
Q 24.21875 56 28.609375 56 
Q 40.484375 56 46.34375 49.84375 
Q 52.203125 43.703125 52.203125 31.203125 
" id="DejaVuSans-61"/>
     </defs>
     <g transform="translate(222.120937 27.298437)scale(0.1 -0.1)">
      <use xlink:href="#DejaVuSans-64"/>
      <use x="63.476562" xlink:href="#DejaVuSans-65"/>
      <use x="125" xlink:href="#DejaVuSans-6c"/>
      <use x="152.783203" xlink:href="#DejaVuSans-74"/>
      <use x="191.992188" xlink:href="#DejaVuSans-61"/>
     </g>
    </g>
    <g id="line2d_33">
     <path d="M 194.120937 38.476562 
L 214.120937 38.476562 
" style="fill:none;stroke:#ff7f0e;stroke-linecap:square;stroke-width:1.5;"/>
    </g>
    <g id="line2d_34"/>
    <g id="text_20">
     <!-- lowAlpha -->
     <defs>
      <path d="M 30.609375 48.390625 
Q 23.390625 48.390625 19.1875 42.75 
Q 14.984375 37.109375 14.984375 27.296875 
Q 14.984375 17.484375 19.15625 11.84375 
Q 23.34375 6.203125 30.609375 6.203125 
Q 37.796875 6.203125 41.984375 11.859375 
Q 46.1875 17.53125 46.1875 27.296875 
Q 46.1875 37.015625 41.984375 42.703125 
Q 37.796875 48.390625 30.609375 48.390625 
M 30.609375 56 
Q 42.328125 56 49.015625 48.375 
Q 55.71875 40.765625 55.71875 27.296875 
Q 55.71875 13.875 49.015625 6.21875 
Q 42.328125 -1.421875 30.609375 -1.421875 
Q 18.84375 -1.421875 12.171875 6.21875 
Q 5.515625 13.875 5.515625 27.296875 
Q 5.515625 40.765625 12.171875 48.375 
Q 18.84375 56 30.609375 56 
" id="DejaVuSans-6f"/>
      <path d="M 4.203125 54.6875 
L 13.1875 54.6875 
L 24.421875 12.015625 
L 35.59375 54.6875 
L 46.1875 54.6875 
L 57.421875 12.015625 
L 68.609375 54.6875 
L 77.59375 54.6875 
L 63.28125 0 
L 52.6875 0 
L 40.921875 44.828125 
L 29.109375 0 
L 18.5 0 
z
" id="DejaVuSans-77"/>
      <path d="M 34.1875 63.1875 
L 20.796875 26.90625 
L 47.609375 26.90625 
z
M 28.609375 72.90625 
L 39.796875 72.90625 
L 67.578125 0 
L 57.328125 0 
L 50.6875 18.703125 
L 17.828125 18.703125 
L 11.1875 0 
L 0.78125 0 
z
" id="DejaVuSans-41"/>
      <path d="M 18.109375 8.203125 
L 18.109375 -20.796875 
L 9.078125 -20.796875 
L 9.078125 54.6875 
L 18.109375 54.6875 
L 18.109375 46.390625 
Q 20.953125 51.265625 25.265625 53.625 
Q 29.59375 56 35.59375 56 
Q 45.5625 56 51.78125 48.09375 
Q 58.015625 40.1875 58.015625 27.296875 
Q 58.015625 14.40625 51.78125 6.484375 
Q 45.5625 -1.421875 35.59375 -1.421875 
Q 29.59375 -1.421875 25.265625 0.953125 
Q 20.953125 3.328125 18.109375 8.203125 
M 48.6875 27.296875 
Q 48.6875 37.203125 44.609375 42.84375 
Q 40.53125 48.484375 33.40625 48.484375 
Q 26.265625 48.484375 22.1875 42.84375 
Q 18.109375 37.203125 18.109375 27.296875 
Q 18.109375 17.390625 22.1875 11.75 
Q 26.265625 6.109375 33.40625 6.109375 
Q 40.53125 6.109375 44.609375 11.75 
Q 48.6875 17.390625 48.6875 27.296875 
" id="DejaVuSans-70"/>
      <path d="M 54.890625 33.015625 
L 54.890625 0 
L 45.90625 0 
L 45.90625 32.71875 
Q 45.90625 40.484375 42.875 44.328125 
Q 39.84375 48.1875 33.796875 48.1875 
Q 26.515625 48.1875 22.3125 43.546875 
Q 18.109375 38.921875 18.109375 30.90625 
L 18.109375 0 
L 9.078125 0 
L 9.078125 75.984375 
L 18.109375 75.984375 
L 18.109375 46.1875 
Q 21.34375 51.125 25.703125 53.5625 
Q 30.078125 56 35.796875 56 
Q 45.21875 56 50.046875 50.171875 
Q 54.890625 44.34375 54.890625 33.015625 
" id="DejaVuSans-68"/>
     </defs>
     <g transform="translate(222.120937 41.976562)scale(0.1 -0.1)">
      <use xlink:href="#DejaVuSans-6c"/>
      <use x="27.783203" xlink:href="#DejaVuSans-6f"/>
      <use x="88.964844" xlink:href="#DejaVuSans-77"/>
      <use x="170.751953" xlink:href="#DejaVuSans-41"/>
      <use x="239.160156" xlink:href="#DejaVuSans-6c"/>
      <use x="266.943359" xlink:href="#DejaVuSans-70"/>
      <use x="330.419922" xlink:href="#DejaVuSans-68"/>
      <use x="393.798828" xlink:href="#DejaVuSans-61"/>
     </g>
    </g>
    <g id="line2d_35">
     <path d="M 194.120937 53.154687 
L 214.120937 53.154687 
" style="fill:none;stroke:#2ca02c;stroke-linecap:square;stroke-width:1.5;"/>
    </g>
    <g id="line2d_36"/>
    <g id="text_21">
     <!-- highAlpha -->
     <defs>
      <path d="M 9.421875 54.6875 
L 18.40625 54.6875 
L 18.40625 0 
L 9.421875 0 
z
M 9.421875 75.984375 
L 18.40625 75.984375 
L 18.40625 64.59375 
L 9.421875 64.59375 
z
" id="DejaVuSans-69"/>
      <path d="M 45.40625 27.984375 
Q 45.40625 37.75 41.375 43.109375 
Q 37.359375 48.484375 30.078125 48.484375 
Q 22.859375 48.484375 18.828125 43.109375 
Q 14.796875 37.75 14.796875 27.984375 
Q 14.796875 18.265625 18.828125 12.890625 
Q 22.859375 7.515625 30.078125 7.515625 
Q 37.359375 7.515625 41.375 12.890625 
Q 45.40625 18.265625 45.40625 27.984375 
M 54.390625 6.78125 
Q 54.390625 -7.171875 48.1875 -13.984375 
Q 42 -20.796875 29.203125 -20.796875 
Q 24.46875 -20.796875 20.265625 -20.09375 
Q 16.0625 -19.390625 12.109375 -17.921875 
L 12.109375 -9.1875 
Q 16.0625 -11.328125 19.921875 -12.34375 
Q 23.78125 -13.375 27.78125 -13.375 
Q 36.625 -13.375 41.015625 -8.765625 
Q 45.40625 -4.15625 45.40625 5.171875 
L 45.40625 9.625 
Q 42.625 4.78125 38.28125 2.390625 
Q 33.9375 0 27.875 0 
Q 17.828125 0 11.671875 7.65625 
Q 5.515625 15.328125 5.515625 27.984375 
Q 5.515625 40.671875 11.671875 48.328125 
Q 17.828125 56 27.875 56 
Q 33.9375 56 38.28125 53.609375 
Q 42.625 51.21875 45.40625 46.390625 
L 45.40625 54.6875 
L 54.390625 54.6875 
z
" id="DejaVuSans-67"/>
     </defs>
     <g transform="translate(222.120937 56.654687)scale(0.1 -0.1)">
      <use xlink:href="#DejaVuSans-68"/>
      <use x="63.378906" xlink:href="#DejaVuSans-69"/>
      <use x="91.162109" xlink:href="#DejaVuSans-67"/>
      <use x="154.638672" xlink:href="#DejaVuSans-68"/>
      <use x="218.017578" xlink:href="#DejaVuSans-41"/>
      <use x="286.425781" xlink:href="#DejaVuSans-6c"/>
      <use x="314.208984" xlink:href="#DejaVuSans-70"/>
      <use x="377.685547" xlink:href="#DejaVuSans-68"/>
      <use x="441.064453" xlink:href="#DejaVuSans-61"/>
     </g>
    </g>
    <g id="line2d_37">
     <path d="M 194.120937 67.832812 
L 214.120937 67.832812 
" style="fill:none;stroke:#d62728;stroke-linecap:square;stroke-width:1.5;"/>
    </g>
    <g id="line2d_38"/>
    <g id="text_22">
     <!-- lowBeta -->
     <defs>
      <path d="M 19.671875 34.8125 
L 19.671875 8.109375 
L 35.5 8.109375 
Q 43.453125 8.109375 47.28125 11.40625 
Q 51.125 14.703125 51.125 21.484375 
Q 51.125 28.328125 47.28125 31.5625 
Q 43.453125 34.8125 35.5 34.8125 
z
M 19.671875 64.796875 
L 19.671875 42.828125 
L 34.28125 42.828125 
Q 41.5 42.828125 45.03125 45.53125 
Q 48.578125 48.25 48.578125 53.8125 
Q 48.578125 59.328125 45.03125 62.0625 
Q 41.5 64.796875 34.28125 64.796875 
z
M 9.8125 72.90625 
L 35.015625 72.90625 
Q 46.296875 72.90625 52.390625 68.21875 
Q 58.5 63.53125 58.5 54.890625 
Q 58.5 48.1875 55.375 44.234375 
Q 52.25 40.28125 46.1875 39.3125 
Q 53.46875 37.75 57.5 32.78125 
Q 61.53125 27.828125 61.53125 20.40625 
Q 61.53125 10.640625 54.890625 5.3125 
Q 48.25 0 35.984375 0 
L 9.8125 0 
z
" id="DejaVuSans-42"/>
     </defs>
     <g transform="translate(222.120937 71.332812)scale(0.1 -0.1)">
      <use xlink:href="#DejaVuSans-6c"/>
      <use x="27.783203" xlink:href="#DejaVuSans-6f"/>
      <use x="88.964844" xlink:href="#DejaVuSans-77"/>
      <use x="170.751953" xlink:href="#DejaVuSans-42"/>
      <use x="239.355469" xlink:href="#DejaVuSans-65"/>
      <use x="300.878906" xlink:href="#DejaVuSans-74"/>
      <use x="340.087891" xlink:href="#DejaVuSans-61"/>
     </g>
    </g>
    <g id="line2d_39">
     <path d="M 194.120937 82.510938 
L 214.120937 82.510938 
" style="fill:none;stroke:#9467bd;stroke-linecap:square;stroke-width:1.5;"/>
    </g>
    <g id="line2d_40"/>
    <g id="text_23">
     <!-- highBeta -->
     <g transform="translate(222.120937 86.010938)scale(0.1 -0.1)">
      <use xlink:href="#DejaVuSans-68"/>
      <use x="63.378906" xlink:href="#DejaVuSans-69"/>
      <use x="91.162109" xlink:href="#DejaVuSans-67"/>
      <use x="154.638672" xlink:href="#DejaVuSans-68"/>
      <use x="218.017578" xlink:href="#DejaVuSans-42"/>
      <use x="286.621094" xlink:href="#DejaVuSans-65"/>
      <use x="348.144531" xlink:href="#DejaVuSans-74"/>
      <use x="387.353516" xlink:href="#DejaVuSans-61"/>
     </g>
    </g>
    <g id="line2d_41">
     <path d="M 194.120937 97.189062 
L 214.120937 97.189062 
" style="fill:none;stroke:#8c564b;stroke-linecap:square;stroke-width:1.5;"/>
    </g>
    <g id="line2d_42"/>
    <g id="text_24">
     <!-- lowGamma -->
     <defs>
      <path d="M 59.515625 10.40625 
L 59.515625 29.984375 
L 43.40625 29.984375 
L 43.40625 38.09375 
L 69.28125 38.09375 
L 69.28125 6.78125 
Q 63.578125 2.734375 56.6875 0.65625 
Q 49.8125 -1.421875 42 -1.421875 
Q 24.90625 -1.421875 15.25 8.5625 
Q 5.609375 18.5625 5.609375 36.375 
Q 5.609375 54.25 15.25 64.234375 
Q 24.90625 74.21875 42 74.21875 
Q 49.125 74.21875 55.546875 72.453125 
Q 61.96875 70.703125 67.390625 67.28125 
L 67.390625 56.78125 
Q 61.921875 61.421875 55.765625 63.765625 
Q 49.609375 66.109375 42.828125 66.109375 
Q 29.4375 66.109375 22.71875 58.640625 
Q 16.015625 51.171875 16.015625 36.375 
Q 16.015625 21.625 22.71875 14.15625 
Q 29.4375 6.6875 42.828125 6.6875 
Q 48.046875 6.6875 52.140625 7.59375 
Q 56.25 8.5 59.515625 10.40625 
" id="DejaVuSans-47"/>
      <path d="M 52 44.1875 
Q 55.375 50.25 60.0625 53.125 
Q 64.75 56 71.09375 56 
Q 79.640625 56 84.28125 50.015625 
Q 88.921875 44.046875 88.921875 33.015625 
L 88.921875 0 
L 79.890625 0 
L 79.890625 32.71875 
Q 79.890625 40.578125 77.09375 44.375 
Q 74.3125 48.1875 68.609375 48.1875 
Q 61.625 48.1875 57.5625 43.546875 
Q 53.515625 38.921875 53.515625 30.90625 
L 53.515625 0 
L 44.484375 0 
L 44.484375 32.71875 
Q 44.484375 40.625 41.703125 44.40625 
Q 38.921875 48.1875 33.109375 48.1875 
Q 26.21875 48.1875 22.15625 43.53125 
Q 18.109375 38.875 18.109375 30.90625 
L 18.109375 0 
L 9.078125 0 
L 9.078125 54.6875 
L 18.109375 54.6875 
L 18.109375 46.1875 
Q 21.1875 51.21875 25.484375 53.609375 
Q 29.78125 56 35.6875 56 
Q 41.65625 56 45.828125 52.96875 
Q 50 49.953125 52 44.1875 
" id="DejaVuSans-6d"/>
     </defs>
     <g transform="translate(222.120937 100.689062)scale(0.1 -0.1)">
      <use xlink:href="#DejaVuSans-6c"/>
      <use x="27.783203" xlink:href="#DejaVuSans-6f"/>
      <use x="88.964844" xlink:href="#DejaVuSans-77"/>
      <use x="170.751953" xlink:href="#DejaVuSans-47"/>
      <use x="248.242188" xlink:href="#DejaVuSans-61"/>
      <use x="309.521484" xlink:href="#DejaVuSans-6d"/>
      <use x="406.933594" xlink:href="#DejaVuSans-6d"/>
      <use x="504.345703" xlink:href="#DejaVuSans-61"/>
     </g>
    </g>
    <g id="line2d_43">
     <path d="M 194.120937 111.867188 
L 214.120937 111.867188 
" style="fill:none;stroke:#e377c2;stroke-linecap:square;stroke-width:1.5;"/>
    </g>
    <g id="line2d_44"/>
    <g id="text_25">
     <!-- midGamma -->
     <g transform="translate(222.120937 115.367188)scale(0.1 -0.1)">
      <use xlink:href="#DejaVuSans-6d"/>
      <use x="97.412109" xlink:href="#DejaVuSans-69"/>
      <use x="125.195312" xlink:href="#DejaVuSans-64"/>
      <use x="188.671875" xlink:href="#DejaVuSans-47"/>
      <use x="266.162109" xlink:href="#DejaVuSans-61"/>
      <use x="327.441406" xlink:href="#DejaVuSans-6d"/>
      <use x="424.853516" xlink:href="#DejaVuSans-6d"/>
      <use x="522.265625" xlink:href="#DejaVuSans-61"/>
     </g>
    </g>
    <g id="line2d_45">
     <path d="M 194.120937 126.545312 
L 214.120937 126.545312 
" style="fill:none;stroke:#7f7f7f;stroke-linecap:square;stroke-width:1.5;"/>
    </g>
    <g id="line2d_46"/>
    <g id="text_26">
     <!-- attention -->
     <defs>
      <path d="M 54.890625 33.015625 
L 54.890625 0 
L 45.90625 0 
L 45.90625 32.71875 
Q 45.90625 40.484375 42.875 44.328125 
Q 39.84375 48.1875 33.796875 48.1875 
Q 26.515625 48.1875 22.3125 43.546875 
Q 18.109375 38.921875 18.109375 30.90625 
L 18.109375 0 
L 9.078125 0 
L 9.078125 54.6875 
L 18.109375 54.6875 
L 18.109375 46.1875 
Q 21.34375 51.125 25.703125 53.5625 
Q 30.078125 56 35.796875 56 
Q 45.21875 56 50.046875 50.171875 
Q 54.890625 44.34375 54.890625 33.015625 
" id="DejaVuSans-6e"/>
     </defs>
     <g transform="translate(222.120937 130.045312)scale(0.1 -0.1)">
      <use xlink:href="#DejaVuSans-61"/>
      <use x="61.279297" xlink:href="#DejaVuSans-74"/>
      <use x="100.488281" xlink:href="#DejaVuSans-74"/>
      <use x="139.697266" xlink:href="#DejaVuSans-65"/>
      <use x="201.220703" xlink:href="#DejaVuSans-6e"/>
      <use x="264.599609" xlink:href="#DejaVuSans-74"/>
      <use x="303.808594" xlink:href="#DejaVuSans-69"/>
      <use x="331.591797" xlink:href="#DejaVuSans-6f"/>
      <use x="392.773438" xlink:href="#DejaVuSans-6e"/>
     </g>
    </g>
    <g id="line2d_47">
     <path d="M 194.120937 141.223437 
L 214.120937 141.223437 
" style="fill:none;stroke:#bcbd22;stroke-linecap:square;stroke-width:1.5;"/>
    </g>
    <g id="line2d_48"/>
    <g id="text_27">
     <!-- meditation -->
     <g transform="translate(222.120937 144.723437)scale(0.1 -0.1)">
      <use xlink:href="#DejaVuSans-6d"/>
      <use x="97.412109" xlink:href="#DejaVuSans-65"/>
      <use x="158.935547" xlink:href="#DejaVuSans-64"/>
      <use x="222.412109" xlink:href="#DejaVuSans-69"/>
      <use x="250.195312" xlink:href="#DejaVuSans-74"/>
      <use x="289.404297" xlink:href="#DejaVuSans-61"/>
      <use x="350.683594" xlink:href="#DejaVuSans-74"/>
      <use x="389.892578" xlink:href="#DejaVuSans-69"/>
      <use x="417.675781" xlink:href="#DejaVuSans-6f"/>
      <use x="478.857422" xlink:href="#DejaVuSans-6e"/>
     </g>
    </g>
    <g id="line2d_49">
     <path d="M 194.120937 155.901562 
L 214.120937 155.901562 
" style="fill:none;stroke:#17becf;stroke-linecap:square;stroke-width:1.5;"/>
    </g>
    <g id="line2d_50"/>
    <g id="text_28">
     <!-- rawValue -->
     <defs>
      <path d="M 41.109375 46.296875 
Q 39.59375 47.171875 37.8125 47.578125 
Q 36.03125 48 33.890625 48 
Q 26.265625 48 22.1875 43.046875 
Q 18.109375 38.09375 18.109375 28.8125 
L 18.109375 0 
L 9.078125 0 
L 9.078125 54.6875 
L 18.109375 54.6875 
L 18.109375 46.1875 
Q 20.953125 51.171875 25.484375 53.578125 
Q 30.03125 56 36.53125 56 
Q 37.453125 56 38.578125 55.875 
Q 39.703125 55.765625 41.0625 55.515625 
z
" id="DejaVuSans-72"/>
      <path d="M 28.609375 0 
L 0.78125 72.90625 
L 11.078125 72.90625 
L 34.1875 11.53125 
L 57.328125 72.90625 
L 67.578125 72.90625 
L 39.796875 0 
z
" id="DejaVuSans-56"/>
      <path d="M 8.5 21.578125 
L 8.5 54.6875 
L 17.484375 54.6875 
L 17.484375 21.921875 
Q 17.484375 14.15625 20.5 10.265625 
Q 23.53125 6.390625 29.59375 6.390625 
Q 36.859375 6.390625 41.078125 11.03125 
Q 45.3125 15.671875 45.3125 23.6875 
L 45.3125 54.6875 
L 54.296875 54.6875 
L 54.296875 0 
L 45.3125 0 
L 45.3125 8.40625 
Q 42.046875 3.421875 37.71875 1 
Q 33.40625 -1.421875 27.6875 -1.421875 
Q 18.265625 -1.421875 13.375 4.4375 
Q 8.5 10.296875 8.5 21.578125 
M 31.109375 56 
z
" id="DejaVuSans-75"/>
     </defs>
     <g transform="translate(222.120937 159.401562)scale(0.1 -0.1)">
      <use xlink:href="#DejaVuSans-72"/>
      <use x="41.113281" xlink:href="#DejaVuSans-61"/>
      <use x="102.392578" xlink:href="#DejaVuSans-77"/>
      <use x="184.179688" xlink:href="#DejaVuSans-56"/>
      <use x="252.478516" xlink:href="#DejaVuSans-61"/>
      <use x="313.757812" xlink:href="#DejaVuSans-6c"/>
      <use x="341.541016" xlink:href="#DejaVuSans-75"/>
      <use x="404.919922" xlink:href="#DejaVuSans-65"/>
     </g>
    </g>
   </g>
  </g>
 </g>
 <defs>
  <clipPath id="pa6921ea1e1">
   <rect height="266.112" width="357.12" x="58.7375" y="10.7"/>
  </clipPath>
 </defs>
</svg>
