<?xml version="1.0" encoding="utf-8" standalone="no"?>
<!DOCTYPE svg PUBLIC "-//W3C//DTD SVG 1.1//EN"
  "http://www.w3.org/Graphics/SVG/1.1/DTD/svg11.dtd">
<!-- Created with matplotlib (http://matplotlib.org/) -->
<svg height="300pt" version="1.1" viewBox="0 0 426 300" width="426pt" xmlns="http://www.w3.org/2000/svg" xmlns:xlink="http://www.w3.org/1999/xlink">
 <defs>
  <style type="text/css">
*{stroke-linecap:butt;stroke-linejoin:round;}
  </style>
 </defs>
 <g id="figure_1">
  <g id="patch_1">
   <path d="M 0 300.690125 
L 426.5575 300.690125 
L 426.5575 0 
L 0 0 
z
" style="fill:#ffffff;"/>
  </g>
  <g id="axes_1">
   <g id="patch_2">
    <path d="M 58.7375 276.812 
L 415.8575 276.812 
L 415.8575 10.7 
L 58.7375 10.7 
z
" style="fill:#ffffff;"/>
   </g>
   <g id="matplotlib.axis_1">
    <g id="xtick_1">
     <g id="line2d_1">
      <defs>
       <path d="M 0 0 
L 0 3.5 
" id="mb6203110c3" style="stroke:#000000;stroke-width:0.8;"/>
      </defs>
      <g>
       <use style="stroke:#000000;stroke-width:0.8;" x="74.970227" xlink:href="#mb6203110c3" y="276.812"/>
      </g>
     </g>
     <g id="text_1">
      <!-- 0 -->
      <defs>
       <path d="M 31.78125 66.40625 
Q 24.171875 66.40625 20.328125 58.90625 
Q 16.5 51.421875 16.5 36.375 
Q 16.5 21.390625 20.328125 13.890625 
Q 24.171875 6.390625 31.78125 6.390625 
Q 39.453125 6.390625 43.28125 13.890625 
Q 47.125 21.390625 47.125 36.375 
Q 47.125 51.421875 43.28125 58.90625 
Q 39.453125 66.40625 31.78125 66.40625 
M 31.78125 74.21875 
Q 44.046875 74.21875 50.515625 64.515625 
Q 56.984375 54.828125 56.984375 36.375 
Q 56.984375 17.96875 50.515625 8.265625 
Q 44.046875 -1.421875 31.78125 -1.421875 
Q 19.53125 -1.421875 13.0625 8.265625 
Q 6.59375 17.96875 6.59375 36.375 
Q 6.59375 54.828125 13.0625 64.515625 
Q 19.53125 74.21875 31.78125 74.21875 
" id="DejaVuSans-30"/>
      </defs>
      <g transform="translate(71.788977 291.410437)scale(0.1 -0.1)">
       <use xlink:href="#DejaVuSans-30"/>
      </g>
     </g>
    </g>
    <g id="xtick_2">
     <g id="line2d_2">
      <g>
       <use style="stroke:#000000;stroke-width:0.8;" x="116.592605" xlink:href="#mb6203110c3" y="276.812"/>
      </g>
     </g>
     <g id="text_2">
      <!-- 25 -->
      <defs>
       <path d="M 19.1875 8.296875 
L 53.609375 8.296875 
L 53.609375 0 
L 7.328125 0 
L 7.328125 8.296875 
Q 12.9375 14.109375 22.625 23.890625 
Q 32.328125 33.6875 34.8125 36.53125 
Q 39.546875 41.84375 41.421875 45.53125 
Q 43.3125 49.21875 43.3125 52.78125 
Q 43.3125 58.59375 39.234375 62.25 
Q 35.15625 65.921875 28.609375 65.921875 
Q 23.96875 65.921875 18.8125 64.3125 
Q 13.671875 62.703125 7.8125 59.421875 
L 7.8125 69.390625 
Q 13.765625 71.78125 18.9375 73 
Q 24.125 74.21875 28.421875 74.21875 
Q 39.75 74.21875 46.484375 68.546875 
Q 53.21875 62.890625 53.21875 53.421875 
Q 53.21875 48.921875 51.53125 44.890625 
Q 49.859375 40.875 45.40625 35.40625 
Q 44.1875 33.984375 37.640625 27.21875 
Q 31.109375 20.453125 19.1875 8.296875 
" id="DejaVuSans-32"/>
       <path d="M 10.796875 72.90625 
L 49.515625 72.90625 
L 49.515625 64.59375 
L 19.828125 64.59375 
L 19.828125 46.734375 
Q 21.96875 47.46875 24.109375 47.828125 
Q 26.265625 48.1875 28.421875 48.1875 
Q 40.625 48.1875 47.75 41.5 
Q 54.890625 34.8125 54.890625 23.390625 
Q 54.890625 11.625 47.5625 5.09375 
Q 40.234375 -1.421875 26.90625 -1.421875 
Q 22.3125 -1.421875 17.546875 -0.640625 
Q 12.796875 0.140625 7.71875 1.703125 
L 7.71875 11.625 
Q 12.109375 9.234375 16.796875 8.0625 
Q 21.484375 6.890625 26.703125 6.890625 
Q 35.15625 6.890625 40.078125 11.328125 
Q 45.015625 15.765625 45.015625 23.390625 
Q 45.015625 31 40.078125 35.4375 
Q 35.15625 39.890625 26.703125 39.890625 
Q 22.75 39.890625 18.8125 39.015625 
Q 14.890625 38.140625 10.796875 36.28125 
z
" id="DejaVuSans-35"/>
      </defs>
      <g transform="translate(110.230105 291.410437)scale(0.1 -0.1)">
       <use xlink:href="#DejaVuSans-32"/>
       <use x="63.623047" xlink:href="#DejaVuSans-35"/>
      </g>
     </g>
    </g>
    <g id="xtick_3">
     <g id="line2d_3">
      <g>
       <use style="stroke:#000000;stroke-width:0.8;" x="158.214983" xlink:href="#mb6203110c3" y="276.812"/>
      </g>
     </g>
     <g id="text_3">
      <!-- 50 -->
      <g transform="translate(151.852483 291.410437)scale(0.1 -0.1)">
       <use xlink:href="#DejaVuSans-35"/>
       <use x="63.623047" xlink:href="#DejaVuSans-30"/>
      </g>
     </g>
    </g>
    <g id="xtick_4">
     <g id="line2d_4">
      <g>
       <use style="stroke:#000000;stroke-width:0.8;" x="199.83736" xlink:href="#mb6203110c3" y="276.812"/>
      </g>
     </g>
     <g id="text_4">
      <!-- 75 -->
      <defs>
       <path d="M 8.203125 72.90625 
L 55.078125 72.90625 
L 55.078125 68.703125 
L 28.609375 0 
L 18.3125 0 
L 43.21875 64.59375 
L 8.203125 64.59375 
z
" id="DejaVuSans-37"/>
      </defs>
      <g transform="translate(193.47486 291.410437)scale(0.1 -0.1)">
       <use xlink:href="#DejaVuSans-37"/>
       <use x="63.623047" xlink:href="#DejaVuSans-35"/>
      </g>
     </g>
    </g>
    <g id="xtick_5">
     <g id="line2d_5">
      <g>
       <use style="stroke:#000000;stroke-width:0.8;" x="241.459738" xlink:href="#mb6203110c3" y="276.812"/>
      </g>
     </g>
     <g id="text_5">
      <!-- 100 -->
      <defs>
       <path d="M 12.40625 8.296875 
L 28.515625 8.296875 
L 28.515625 63.921875 
L 10.984375 60.40625 
L 10.984375 69.390625 
L 28.421875 72.90625 
L 38.28125 72.90625 
L 38.28125 8.296875 
L 54.390625 8.296875 
L 54.390625 0 
L 12.40625 0 
z
" id="DejaVuSans-31"/>
      </defs>
      <g transform="translate(231.915988 291.410437)scale(0.1 -0.1)">
       <use xlink:href="#DejaVuSans-31"/>
       <use x="63.623047" xlink:href="#DejaVuSans-30"/>
       <use x="127.246094" xlink:href="#DejaVuSans-30"/>
      </g>
     </g>
    </g>
    <g id="xtick_6">
     <g id="line2d_6">
      <g>
       <use style="stroke:#000000;stroke-width:0.8;" x="283.082115" xlink:href="#mb6203110c3" y="276.812"/>
      </g>
     </g>
     <g id="text_6">
      <!-- 125 -->
      <g transform="translate(273.538365 291.410437)scale(0.1 -0.1)">
       <use xlink:href="#DejaVuSans-31"/>
       <use x="63.623047" xlink:href="#DejaVuSans-32"/>
       <use x="127.246094" xlink:href="#DejaVuSans-35"/>
      </g>
     </g>
    </g>
    <g id="xtick_7">
     <g id="line2d_7">
      <g>
       <use style="stroke:#000000;stroke-width:0.8;" x="324.704493" xlink:href="#mb6203110c3" y="276.812"/>
      </g>
     </g>
     <g id="text_7">
      <!-- 150 -->
      <g transform="translate(315.160743 291.410437)scale(0.1 -0.1)">
       <use xlink:href="#DejaVuSans-31"/>
       <use x="63.623047" xlink:href="#DejaVuSans-35"/>
       <use x="127.246094" xlink:href="#DejaVuSans-30"/>
      </g>
     </g>
    </g>
    <g id="xtick_8">
     <g id="line2d_8">
      <g>
       <use style="stroke:#000000;stroke-width:0.8;" x="366.326871" xlink:href="#mb6203110c3" y="276.812"/>
      </g>
     </g>
     <g id="text_8">
      <!-- 175 -->
      <g transform="translate(356.783121 291.410437)scale(0.1 -0.1)">
       <use xlink:href="#DejaVuSans-31"/>
       <use x="63.623047" xlink:href="#DejaVuSans-37"/>
       <use x="127.246094" xlink:href="#DejaVuSans-35"/>
      </g>
     </g>
    </g>
    <g id="xtick_9">
     <g id="line2d_9">
      <g>
       <use style="stroke:#000000;stroke-width:0.8;" x="407.949248" xlink:href="#mb6203110c3" y="276.812"/>
      </g>
     </g>
     <g id="text_9">
      <!-- 200 -->
      <g transform="translate(398.405498 291.410437)scale(0.1 -0.1)">
       <use xlink:href="#DejaVuSans-32"/>
       <use x="63.623047" xlink:href="#DejaVuSans-30"/>
       <use x="127.246094" xlink:href="#DejaVuSans-30"/>
      </g>
     </g>
    </g>
   </g>
   <g id="matplotlib.axis_2">
    <g id="ytick_1">
     <g id="line2d_10">
      <defs>
       <path d="M 0 0 
L -3.5 0 
" id="m5ca2de680d" style="stroke:#000000;stroke-width:0.8;"/>
      </defs>
      <g>
       <use style="stroke:#000000;stroke-width:0.8;" x="58.7375" xlink:href="#m5ca2de680d" y="264.592149"/>
      </g>
     </g>
     <g id="text_10">
      <!-- 0 -->
      <g transform="translate(45.375 268.391367)scale(0.1 -0.1)">
       <use xlink:href="#DejaVuSans-30"/>
      </g>
     </g>
    </g>
    <g id="ytick_2">
     <g id="line2d_11">
      <g>
       <use style="stroke:#000000;stroke-width:0.8;" x="58.7375" xlink:href="#m5ca2de680d" y="217.103164"/>
      </g>
     </g>
     <g id="text_11">
      <!-- 500000 -->
      <g transform="translate(13.5625 220.902383)scale(0.1 -0.1)">
       <use xlink:href="#DejaVuSans-35"/>
       <use x="63.623047" xlink:href="#DejaVuSans-30"/>
       <use x="127.246094" xlink:href="#DejaVuSans-30"/>
       <use x="190.869141" xlink:href="#DejaVuSans-30"/>
       <use x="254.492188" xlink:href="#DejaVuSans-30"/>
       <use x="318.115234" xlink:href="#DejaVuSans-30"/>
      </g>
     </g>
    </g>
    <g id="ytick_3">
     <g id="line2d_12">
      <g>
       <use style="stroke:#000000;stroke-width:0.8;" x="58.7375" xlink:href="#m5ca2de680d" y="169.61418"/>
      </g>
     </g>
     <g id="text_12">
      <!-- 1000000 -->
      <g transform="translate(7.2 173.413398)scale(0.1 -0.1)">
       <use xlink:href="#DejaVuSans-31"/>
       <use x="63.623047" xlink:href="#DejaVuSans-30"/>
       <use x="127.246094" xlink:href="#DejaVuSans-30"/>
       <use x="190.869141" xlink:href="#DejaVuSans-30"/>
       <use x="254.492188" xlink:href="#DejaVuSans-30"/>
       <use x="318.115234" xlink:href="#DejaVuSans-30"/>
       <use x="381.738281" xlink:href="#DejaVuSans-30"/>
      </g>
     </g>
    </g>
    <g id="ytick_4">
     <g id="line2d_13">
      <g>
       <use style="stroke:#000000;stroke-width:0.8;" x="58.7375" xlink:href="#m5ca2de680d" y="122.125195"/>
      </g>
     </g>
     <g id="text_13">
      <!-- 1500000 -->
      <g transform="translate(7.2 125.924414)scale(0.1 -0.1)">
       <use xlink:href="#DejaVuSans-31"/>
       <use x="63.623047" xlink:href="#DejaVuSans-35"/>
       <use x="127.246094" xlink:href="#DejaVuSans-30"/>
       <use x="190.869141" xlink:href="#DejaVuSans-30"/>
       <use x="254.492188" xlink:href="#DejaVuSans-30"/>
       <use x="318.115234" xlink:href="#DejaVuSans-30"/>
       <use x="381.738281" xlink:href="#DejaVuSans-30"/>
      </g>
     </g>
    </g>
    <g id="ytick_5">
     <g id="line2d_14">
      <g>
       <use style="stroke:#000000;stroke-width:0.8;" x="58.7375" xlink:href="#m5ca2de680d" y="74.63621"/>
      </g>
     </g>
     <g id="text_14">
      <!-- 2000000 -->
      <g transform="translate(7.2 78.435429)scale(0.1 -0.1)">
       <use xlink:href="#DejaVuSans-32"/>
       <use x="63.623047" xlink:href="#DejaVuSans-30"/>
       <use x="127.246094" xlink:href="#DejaVuSans-30"/>
       <use x="190.869141" xlink:href="#DejaVuSans-30"/>
       <use x="254.492188" xlink:href="#DejaVuSans-30"/>
       <use x="318.115234" xlink:href="#DejaVuSans-30"/>
       <use x="381.738281" xlink:href="#DejaVuSans-30"/>
      </g>
     </g>
    </g>
    <g id="ytick_6">
     <g id="line2d_15">
      <g>
       <use style="stroke:#000000;stroke-width:0.8;" x="58.7375" xlink:href="#m5ca2de680d" y="27.147226"/>
      </g>
     </g>
     <g id="text_15">
      <!-- 2500000 -->
      <g transform="translate(7.2 30.946444)scale(0.1 -0.1)">
       <use xlink:href="#DejaVuSans-32"/>
       <use x="63.623047" xlink:href="#DejaVuSans-35"/>
       <use x="127.246094" xlink:href="#DejaVuSans-30"/>
       <use x="190.869141" xlink:href="#DejaVuSans-30"/>
       <use x="254.492188" xlink:href="#DejaVuSans-30"/>
       <use x="318.115234" xlink:href="#DejaVuSans-30"/>
       <use x="381.738281" xlink:href="#DejaVuSans-30"/>
      </g>
     </g>
    </g>
   </g>
   <g id="line2d_16">
    <path clip-path="url(#p38821248a7)" d="M 74.970227 140.020374 
L 76.635122 229.503203 
L 78.300017 98.548244 
L 79.964913 239.275011 
L 81.629808 257.413429 
L 83.294703 81.94562 
L 84.959598 83.329259 
L 86.624493 182.692361 
L 88.289388 222.98287 
L 89.954283 88.896108 
L 91.619178 258.460181 
L 93.284073 252.067974 
L 94.948969 252.446936 
L 96.613864 262.222068 
L 98.278759 261.024776 
L 99.943654 151.48298 
L 101.608549 195.410291 
L 103.273444 115.998641 
L 104.938339 242.606458 
L 106.603234 164.825675 
L 108.268129 222.268066 
L 109.933024 251.742009 
L 111.59792 241.815862 
L 113.262815 254.058522 
L 114.92771 203.90531 
L 116.592605 246.546999 
L 118.2575 237.632557 
L 119.922395 247.404271 
L 121.58729 256.235037 
L 123.252185 230.998916 
L 124.91708 243.624717 
L 126.581976 251.464484 
L 128.246871 212.840838 
L 129.911766 185.232737 
L 131.576661 198.529367 
L 133.241556 219.260874 
L 134.906451 230.633916 
L 136.571346 168.172224 
L 138.236241 245.265272 
L 139.901136 262.121962 
L 141.566031 246.562006 
L 143.230927 195.750597 
L 144.895822 261.07141 
L 146.560717 209.612537 
L 148.225612 259.801555 
L 149.890507 173.521858 
L 151.555402 257.031238 
L 153.220297 129.17275 
L 154.885192 258.681195 
L 156.550087 167.675679 
L 158.214983 248.826091 
L 159.879878 207.890396 
L 161.544773 249.695329 
L 163.209668 181.349562 
L 164.874563 203.465088 
L 166.539458 196.652698 
L 168.204353 259.307859 
L 169.869248 237.378586 
L 171.534143 252.964661 
L 173.199038 245.44364 
L 174.863934 226.388305 
L 176.528829 246.874483 
L 178.193724 239.83937 
L 179.858619 251.711806 
L 181.523514 116.23827 
L 183.188409 262.498074 
L 184.853304 183.871512 
L 186.518199 257.464527 
L 188.183094 242.054826 
L 189.84799 256.144713 
L 191.512885 256.256882 
L 193.17778 130.135542 
L 194.842675 247.124465 
L 196.50757 255.495254 
L 198.172465 250.368533 
L 199.83736 223.681053 
L 201.502255 258.2707 
L 203.16715 256.054864 
L 204.832045 260.177288 
L 206.496941 258.333765 
L 208.161836 183.094973 
L 209.826731 133.754297 
L 211.491626 260.888388 
L 213.156521 73.545958 
L 214.821416 257.139417 
L 216.486311 213.90858 
L 218.151206 166.780512 
L 219.816101 163.075611 
L 221.480997 147.963097 
L 223.145892 239.362486 
L 224.810787 162.614873 
L 226.475682 217.305087 
L 228.140577 231.402287 
L 229.805472 65.62907 
L 231.470367 200.119963 
L 233.135262 263.988944 
L 234.800157 253.443825 
L 236.465052 22.796 
L 238.129948 245.315895 
L 239.794843 246.940303 
L 241.459738 253.590661 
L 243.124633 259.101662 
L 244.789528 244.247773 
L 246.454423 248.055629 
L 248.119318 205.705143 
L 249.784213 224.122606 
L 251.449108 222.008966 
L 253.114003 261.470223 
L 254.778899 228.793907 
L 256.443794 241.822795 
L 258.108689 219.443421 
L 259.773584 262.401387 
L 261.438479 260.438097 
L 263.103374 253.652491 
L 264.768269 262.692114 
L 266.433164 235.438471 
L 268.098059 240.520742 
L 269.762955 261.696555 
L 271.42785 226.543879 
L 273.092745 263.114102 
L 274.75764 206.447016 
L 276.422535 254.172591 
L 278.08743 260.650468 
L 279.752325 225.843987 
L 281.41722 260.714673 
L 283.082115 262.444317 
L 284.74701 258.357415 
L 286.411906 251.80555 
L 288.076801 251.982589 
L 289.741696 235.801952 
L 291.406591 254.155305 
L 293.071486 177.036518 
L 294.736381 256.899978 
L 296.401276 258.338609 
L 298.066171 213.23927 
L 299.731066 260.522723 
L 301.395962 252.089819 
L 303.060857 261.281882 
L 304.725752 262.215895 
L 306.390647 262.62316 
L 308.055542 256.161144 
L 309.720437 262.146466 
L 311.385332 198.865494 
L 313.050227 255.829956 
L 314.715122 230.76413 
L 316.380017 234.205752 
L 318.044913 253.415141 
L 319.709808 257.432235 
L 321.374703 258.861178 
L 323.039598 249.393109 
L 324.704493 249.431765 
L 326.369388 262.069439 
L 328.034283 92.475922 
L 329.699178 197.303012 
L 331.364073 200.126612 
L 333.028969 224.415708 
L 334.693864 153.184131 
L 336.358759 263.184955 
L 338.023654 225.296629 
L 339.688549 202.194472 
L 341.353444 259.056643 
L 343.018339 223.176055 
L 344.683234 258.686988 
L 346.348129 251.883242 
L 348.013024 229.008843 
L 349.67792 260.080125 
L 351.342815 250.375561 
L 353.00771 211.66843 
L 354.672605 237.568162 
L 356.3375 253.963544 
L 358.002395 251.944502 
L 359.66729 216.300505 
L 361.332185 220.567486 
L 362.99708 264.186498 
L 366.326871 260.153923 
L 367.991766 239.415864 
L 369.656661 258.979331 
L 371.321556 256.860182 
L 372.986451 220.590565 
L 374.651346 255.769075 
L 376.316241 241.611184 
L 377.981136 255.757583 
L 379.646031 261.235247 
L 381.310927 255.024448 
L 382.975822 255.652537 
L 384.640717 242.334062 
L 386.305612 263.138606 
L 387.970507 223.205119 
L 389.635402 240.230869 
L 391.300297 261.061628 
L 392.965192 251.906321 
L 394.630087 260.221263 
L 396.294983 260.21148 
L 397.959878 244.417023 
L 399.624773 260.780493 
L 399.624773 260.780493 
" style="fill:none;stroke:#1f77b4;stroke-linecap:square;stroke-width:1.5;"/>
   </g>
   <g id="line2d_17">
    <path clip-path="url(#p38821248a7)" d="M 74.970227 263.913151 
L 76.635122 263.459252 
L 78.300017 263.622329 
L 79.964913 263.320299 
L 81.629808 262.513176 
L 83.294703 257.66569 
L 84.959598 256.431167 
L 86.624493 251.688062 
L 88.289388 250.387244 
L 89.954283 173.51293 
L 91.619178 263.987519 
L 93.284073 263.966434 
L 94.948969 263.406539 
L 96.613864 263.35696 
L 98.278759 262.749196 
L 99.943654 261.374295 
L 101.608549 263.501517 
L 103.273444 260.040614 
L 104.938339 261.094585 
L 106.603234 252.438483 
L 108.268129 251.761385 
L 109.933024 255.465336 
L 111.59792 256.951266 
L 113.262815 262.630854 
L 114.92771 238.965953 
L 116.592605 250.218563 
L 118.2575 255.477018 
L 119.922395 264.282331 
L 121.58729 260.932458 
L 123.252185 258.431593 
L 124.91708 259.848664 
L 126.581976 259.042396 
L 128.246871 259.103277 
L 129.911766 253.084238 
L 131.576661 232.731314 
L 133.241556 254.69307 
L 134.906451 260.371233 
L 136.571346 179.593515 
L 138.236241 261.63311 
L 139.901136 259.955894 
L 141.566031 261.715266 
L 143.230927 223.417964 
L 144.895822 263.794619 
L 146.560717 263.383554 
L 148.225612 258.482691 
L 149.890507 259.085231 
L 151.555402 256.04945 
L 153.220297 221.399303 
L 154.885192 264.440944 
L 156.550087 249.3271 
L 158.214983 262.967741 
L 159.879878 262.351808 
L 161.544773 258.332816 
L 163.209668 261.557603 
L 164.874563 250.31487 
L 166.539458 258.670557 
L 168.204353 264.053054 
L 169.869248 257.172755 
L 171.534143 261.11738 
L 173.199038 260.460797 
L 174.863934 246.99824 
L 176.528829 260.496509 
L 178.193724 256.211198 
L 179.858619 263.041064 
L 181.523514 259.78066 
L 183.188409 263.191509 
L 184.853304 259.364656 
L 186.518199 260.442941 
L 188.183094 253.808445 
L 189.84799 261.092021 
L 191.512885 264.076988 
L 193.17778 258.11807 
L 194.842675 263.350502 
L 196.50757 263.235578 
L 198.172465 263.68131 
L 199.83736 254.09015 
L 201.502255 260.87908 
L 203.16715 261.813188 
L 204.832045 260.701851 
L 206.496941 259.067185 
L 208.161836 262.410505 
L 209.826731 241.47793 
L 211.491626 257.311233 
L 213.156521 257.454079 
L 214.821416 264.128086 
L 216.486311 263.253814 
L 218.151206 246.292269 
L 219.816101 178.479803 
L 221.480997 252.387005 
L 223.145892 248.531279 
L 224.810787 246.150561 
L 226.475682 244.481039 
L 228.140577 243.994372 
L 229.805472 217.517743 
L 231.470367 247.444636 
L 233.135262 262.771991 
L 234.800157 256.626156 
L 236.465052 222.294755 
L 238.129948 244.867694 
L 239.794843 257.335642 
L 241.459738 257.025539 
L 243.124633 262.66609 
L 244.789528 261.337159 
L 246.454423 252.571737 
L 248.119318 260.115742 
L 249.784213 257.636247 
L 251.449108 257.94654 
L 253.114003 250.889867 
L 254.778899 263.515383 
L 256.443794 263.440541 
L 258.108689 258.6357 
L 259.773584 261.062008 
L 261.438479 261.593789 
L 263.103374 263.477677 
L 264.768269 260.392318 
L 266.433164 244.706611 
L 268.098059 263.125879 
L 269.762955 258.446979 
L 271.42785 246.181809 
L 273.092745 263.067562 
L 274.75764 262.934118 
L 276.422535 256.165418 
L 278.08743 263.949908 
L 279.752325 247.137477 
L 281.41722 262.115028 
L 283.082115 261.497956 
L 284.74701 260.301139 
L 286.411906 261.172087 
L 288.076801 263.746275 
L 289.741696 253.998686 
L 291.406591 262.369379 
L 293.071486 258.195098 
L 294.736381 258.788615 
L 296.401276 256.081458 
L 298.066171 260.157912 
L 299.731066 258.665239 
L 301.395962 259.723483 
L 303.060857 262.168121 
L 304.725752 263.761186 
L 306.390647 262.076467 
L 308.055542 263.024917 
L 309.720437 258.70342 
L 311.385332 260.306173 
L 313.050227 263.734213 
L 314.715122 256.340843 
L 316.380017 257.260134 
L 318.044913 263.832325 
L 319.709808 260.101115 
L 321.374703 261.557128 
L 323.039598 260.972063 
L 324.704493 259.187522 
L 326.369388 263.024632 
L 328.034283 258.051681 
L 329.699178 260.152024 
L 331.364073 258.260157 
L 333.028969 257.570427 
L 334.693864 261.034559 
L 336.358759 258.542147 
L 338.023654 242.290372 
L 339.688549 244.528338 
L 341.353444 258.943714 
L 343.018339 251.461919 
L 344.683234 261.345327 
L 346.348129 256.263436 
L 348.013024 263.138036 
L 349.67792 261.418365 
L 351.342815 254.86384 
L 353.00771 254.846554 
L 354.672605 262.712915 
L 356.3375 261.835128 
L 358.002395 258.967743 
L 359.66729 259.286584 
L 361.332185 260.737848 
L 362.99708 263.907737 
L 366.326871 262.312298 
L 369.656661 260.008607 
L 371.321556 258.573205 
L 372.986451 250.871536 
L 374.651346 264.04954 
L 376.316241 257.112444 
L 377.981136 264.031969 
L 379.646031 263.4432 
L 381.310927 260.277585 
L 382.975822 263.878674 
L 384.640717 256.465549 
L 386.305612 263.946773 
L 387.970507 251.508459 
L 389.635402 257.92403 
L 391.300297 259.403977 
L 392.965192 258.541672 
L 394.630087 261.909496 
L 396.294983 263.062434 
L 397.959878 243.513308 
L 399.624773 258.512039 
L 399.624773 258.512039 
" style="fill:none;stroke:#ff7f0e;stroke-linecap:square;stroke-width:1.5;"/>
   </g>
   <g id="line2d_18">
    <path clip-path="url(#p38821248a7)" d="M 74.970227 262.171255 
L 76.635122 264.406277 
L 78.300017 263.929582 
L 79.964913 263.955606 
L 81.629808 264.444838 
L 83.294703 261.522936 
L 84.959598 263.259323 
L 86.624493 262.485347 
L 88.289388 257.482478 
L 89.954283 212.843877 
L 91.619178 264.417009 
L 93.284073 262.854242 
L 94.948969 263.332741 
L 96.613864 264.547129 
L 98.278759 263.68207 
L 99.943654 264.375219 
L 101.608549 264.293823 
L 103.273444 264.054383 
L 104.938339 262.100402 
L 106.603234 264.166362 
L 109.933024 261.442394 
L 111.59792 263.155417 
L 113.262815 264.406372 
L 114.92771 259.621952 
L 116.592605 264.331149 
L 118.2575 262.634083 
L 119.922395 264.452911 
L 121.58729 264.405137 
L 123.252185 261.816797 
L 124.91708 263.968808 
L 126.581976 264.235506 
L 128.246871 263.704105 
L 129.911766 257.056787 
L 131.576661 262.918257 
L 133.241556 263.850086 
L 134.906451 257.182822 
L 136.571346 258.635036 
L 138.236241 263.927778 
L 139.901136 263.46495 
L 141.566031 263.842583 
L 143.230927 262.966506 
L 144.895822 263.181726 
L 146.560717 262.958623 
L 148.225612 263.577689 
L 149.890507 263.354491 
L 151.555402 262.890713 
L 153.220297 260.993149 
L 154.885192 264.542665 
L 156.550087 262.934688 
L 158.214983 262.298051 
L 159.879878 259.309474 
L 161.544773 263.518993 
L 163.209668 263.863098 
L 164.874563 261.466899 
L 166.539458 263.936991 
L 168.204353 264.289834 
L 169.869248 264.142238 
L 171.534143 264.382247 
L 173.199038 263.131862 
L 174.863934 261.422924 
L 176.528829 261.902278 
L 178.193724 263.969853 
L 179.858619 264.546084 
L 181.523514 261.712227 
L 183.188409 264.277772 
L 184.853304 262.097077 
L 186.518199 264.26134 
L 188.183094 262.478889 
L 191.512885 264.150786 
L 193.17778 264.397634 
L 194.842675 264.170542 
L 196.50757 264.532313 
L 198.172465 264.385382 
L 199.83736 262.155204 
L 201.502255 263.000698 
L 203.16715 263.583958 
L 204.832045 260.035201 
L 206.496941 263.626793 
L 208.161836 263.775813 
L 209.826731 261.679744 
L 211.491626 262.032682 
L 213.156521 263.376336 
L 214.821416 264.17852 
L 216.486311 263.849991 
L 218.151206 257.022879 
L 219.816101 257.252631 
L 221.480997 261.664928 
L 223.145892 259.04743 
L 224.810787 263.005067 
L 226.475682 256.171307 
L 228.140577 261.539842 
L 229.805472 259.488982 
L 231.470367 263.569806 
L 233.135262 262.995189 
L 234.800157 261.485799 
L 236.465052 263.106788 
L 238.129948 260.937017 
L 239.794843 259.253817 
L 241.459738 260.261248 
L 243.124633 263.558598 
L 244.789528 264.288409 
L 246.454423 262.749101 
L 248.119318 263.936706 
L 253.114003 262.877891 
L 254.778899 264.570019 
L 256.443794 263.9614 
L 258.108689 260.992389 
L 259.773584 263.041158 
L 261.438479 260.057711 
L 263.103374 264.127991 
L 264.768269 260.876326 
L 266.433164 263.049707 
L 268.098059 263.245266 
L 269.762955 263.239567 
L 273.092745 263.985904 
L 274.75764 264.161329 
L 278.08743 263.975647 
L 279.752325 263.76622 
L 281.41722 263.367693 
L 283.082115 261.35359 
L 284.74701 262.357602 
L 286.411906 263.621094 
L 288.076801 263.918755 
L 289.741696 258.832495 
L 291.406591 258.238977 
L 293.071486 261.916334 
L 294.736381 261.972466 
L 296.401276 263.083234 
L 298.066171 263.724145 
L 299.731066 264.155725 
L 301.395962 259.487368 
L 303.060857 264.17852 
L 304.725752 264.094559 
L 306.390647 264.37237 
L 309.720437 263.802787 
L 311.385332 258.609866 
L 313.050227 264.507143 
L 314.715122 264.165698 
L 316.380017 258.632756 
L 318.044913 264.411881 
L 319.709808 264.285845 
L 321.374703 260.51465 
L 323.039598 263.266066 
L 324.704493 262.962802 
L 326.369388 264.32773 
L 328.034283 263.268536 
L 329.699178 261.486939 
L 331.364073 262.688695 
L 333.028969 262.233751 
L 334.693864 259.104702 
L 336.358759 262.662766 
L 338.023654 261.8508 
L 339.688549 264.237406 
L 341.353444 262.674259 
L 343.018339 262.079697 
L 344.683234 264.346346 
L 346.348129 258.242492 
L 348.013024 262.66951 
L 349.67792 263.726994 
L 351.342815 259.139084 
L 353.00771 261.847285 
L 354.672605 263.822257 
L 356.3375 263.910397 
L 358.002395 262.233941 
L 359.66729 258.536258 
L 361.332185 263.645598 
L 362.99708 264.434295 
L 364.661976 264.054478 
L 366.326871 258.108193 
L 367.991766 262.350574 
L 369.656661 263.866517 
L 371.321556 261.694276 
L 372.986451 263.829096 
L 374.651346 264.384907 
L 376.316241 263.161591 
L 377.981136 264.436385 
L 379.646031 262.545279 
L 381.310927 263.94174 
L 382.975822 264.339317 
L 384.640717 260.998752 
L 386.305612 264.180039 
L 387.970507 263.562683 
L 389.635402 264.167122 
L 391.300297 263.254954 
L 392.965192 263.762611 
L 394.630087 263.394192 
L 396.294983 264.229333 
L 397.959878 261.178261 
L 399.624773 262.608629 
L 399.624773 262.608629 
" style="fill:none;stroke:#2ca02c;stroke-linecap:square;stroke-width:1.5;"/>
   </g>
   <g id="line2d_19">
    <path clip-path="url(#p38821248a7)" d="M 74.970227 263.652152 
L 76.635122 264.388041 
L 78.300017 264.145087 
L 81.629808 263.959595 
L 83.294703 261.678225 
L 84.959598 257.846149 
L 86.624493 262.631898 
L 88.289388 263.924169 
L 89.954283 231.210052 
L 91.619178 264.517401 
L 93.284073 264.325546 
L 94.948969 263.957981 
L 96.613864 264.17567 
L 98.278759 262.836861 
L 99.943654 264.148127 
L 101.608549 263.737822 
L 103.273444 261.430522 
L 104.938339 263.540078 
L 106.603234 261.927257 
L 108.268129 259.97584 
L 109.933024 263.027102 
L 113.262815 263.850656 
L 114.92771 263.008296 
L 116.592605 263.555559 
L 118.2575 263.395711 
L 119.922395 264.448637 
L 121.58729 263.307667 
L 123.252185 264.187448 
L 124.91708 264.400768 
L 126.581976 264.191722 
L 128.246871 263.045338 
L 129.911766 263.351546 
L 131.576661 264.276442 
L 134.906451 263.417461 
L 136.571346 258.269275 
L 138.236241 264.033298 
L 139.901136 264.229903 
L 141.566031 264.279291 
L 143.230927 263.549671 
L 144.895822 264.141383 
L 146.560717 263.202241 
L 148.225612 264.164653 
L 149.890507 261.627126 
L 151.555402 264.211002 
L 153.220297 258.457997 
L 154.885192 264.580182 
L 156.550087 259.095489 
L 158.214983 262.75423 
L 159.879878 262.844079 
L 161.544773 258.435202 
L 163.209668 263.245741 
L 164.874563 262.118732 
L 166.539458 263.971183 
L 168.204353 263.614161 
L 169.869248 261.756202 
L 171.534143 264.072144 
L 173.199038 264.41245 
L 174.863934 259.522795 
L 178.193724 263.020168 
L 179.858619 264.307975 
L 181.523514 261.991367 
L 183.188409 264.444363 
L 186.518199 263.969758 
L 188.183094 261.225465 
L 189.84799 264.170352 
L 191.512885 264.447022 
L 193.17778 261.788399 
L 194.842675 264.425177 
L 196.50757 263.200627 
L 198.172465 264.404852 
L 199.83736 261.175221 
L 201.502255 263.869461 
L 203.16715 262.894797 
L 204.832045 264.151926 
L 206.496941 263.582058 
L 208.161836 262.879601 
L 209.826731 262.451535 
L 211.491626 262.530462 
L 213.156521 261.367552 
L 214.821416 264.365626 
L 216.486311 261.461295 
L 218.151206 258.215613 
L 219.816101 251.46002 
L 221.480997 262.790227 
L 223.145892 251.594509 
L 224.810787 261.989372 
L 226.475682 261.844626 
L 228.140577 258.913796 
L 229.805472 261.727803 
L 231.470367 263.234534 
L 233.135262 264.074899 
L 236.465052 263.20718 
L 238.129948 263.021308 
L 239.794843 260.530321 
L 241.459738 263.072311 
L 243.124633 263.997587 
L 244.789528 264.115644 
L 246.454423 258.866687 
L 248.119318 264.352139 
L 251.449108 262.234606 
L 253.114003 263.981915 
L 254.778899 264.480265 
L 256.443794 264.254597 
L 258.108689 264.200555 
L 259.773584 260.673738 
L 261.438479 264.070055 
L 263.103374 264.409886 
L 264.768269 263.331126 
L 266.433164 262.570828 
L 268.098059 263.674377 
L 269.762955 263.415562 
L 271.42785 263.98106 
L 273.092745 263.818078 
L 274.75764 264.054383 
L 276.422535 262.148271 
L 278.08743 263.643129 
L 279.752325 264.085061 
L 281.41722 263.208225 
L 283.082115 263.807631 
L 284.74701 263.986284 
L 286.411906 258.415826 
L 288.076801 264.398584 
L 289.741696 262.276491 
L 291.406591 264.037002 
L 293.071486 263.577214 
L 294.736381 263.616725 
L 296.401276 261.727613 
L 298.066171 261.228314 
L 299.731066 264.142808 
L 301.395962 263.258183 
L 303.060857 264.317947 
L 304.725752 264.02532 
L 306.390647 263.273 
L 308.055542 264.130651 
L 309.720437 263.823112 
L 311.385332 261.787069 
L 313.050227 264.519206 
L 314.715122 263.727564 
L 316.380017 262.533501 
L 318.044913 264.15563 
L 319.709808 264.323361 
L 321.374703 262.079886 
L 323.039598 263.662029 
L 324.704493 264.020856 
L 326.369388 263.7893 
L 328.034283 263.304058 
L 329.699178 263.577214 
L 331.364073 263.173463 
L 333.028969 261.48238 
L 334.693864 263.431898 
L 336.358759 261.854314 
L 338.023654 262.341266 
L 339.688549 260.953543 
L 341.353444 262.263954 
L 343.018339 263.915051 
L 346.348129 264.181939 
L 348.013024 263.409673 
L 349.67792 262.155394 
L 351.342815 261.886511 
L 353.00771 262.406611 
L 354.672605 264.426602 
L 356.3375 263.710468 
L 358.002395 263.724525 
L 359.66729 262.968405 
L 361.332185 261.80521 
L 362.99708 264.24358 
L 364.661976 264.337798 
L 366.326871 262.831827 
L 367.991766 263.134617 
L 369.656661 260.416727 
L 371.321556 263.151048 
L 372.986451 261.93457 
L 374.651346 264.504769 
L 376.316241 264.010219 
L 379.646031 264.208058 
L 381.310927 263.834984 
L 382.975822 264.410551 
L 384.640717 264.214421 
L 386.305612 263.661555 
L 387.970507 262.817105 
L 389.635402 263.332456 
L 391.300297 261.017178 
L 392.965192 263.83223 
L 394.630087 264.205114 
L 396.294983 263.518993 
L 397.959878 258.826796 
L 399.624773 263.449469 
L 399.624773 263.449469 
" style="fill:none;stroke:#d62728;stroke-linecap:square;stroke-width:1.5;"/>
   </g>
   <g id="line2d_20">
    <path clip-path="url(#p38821248a7)" d="M 74.970227 261.693041 
L 76.635122 264.41416 
L 78.300017 263.388493 
L 79.964913 264.296007 
L 81.629808 264.305125 
L 83.294703 263.396661 
L 84.959598 260.630808 
L 86.624493 262.172775 
L 88.289388 264.00509 
L 89.954283 241.985967 
L 91.619178 264.426887 
L 93.284073 263.610931 
L 96.613864 264.423183 
L 98.278759 262.194525 
L 99.943654 263.341289 
L 101.608549 264.080787 
L 103.273444 263.241562 
L 104.938339 263.513009 
L 106.603234 263.120655 
L 108.268129 260.445791 
L 109.933024 261.992602 
L 111.59792 263.311371 
L 113.262815 263.965769 
L 114.92771 263.350312 
L 116.592605 263.306527 
L 118.2575 263.532764 
L 119.922395 264.346536 
L 121.58729 263.425629 
L 123.252185 264.079648 
L 124.91708 263.109923 
L 126.581976 263.951332 
L 128.246871 262.867824 
L 129.911766 262.096413 
L 131.576661 263.116666 
L 133.241556 264.358693 
L 134.906451 262.828598 
L 136.571346 262.114268 
L 138.236241 264.182319 
L 139.901136 264.213756 
L 141.566031 264.104817 
L 143.230927 262.747677 
L 144.895822 264.029214 
L 148.225612 264.101872 
L 149.890507 263.284112 
L 151.555402 264.412925 
L 153.220297 261.899428 
L 154.885192 264.552543 
L 156.550087 256.602697 
L 158.214983 264.222589 
L 159.879878 261.294514 
L 161.544773 256.335999 
L 163.209668 261.058303 
L 164.874563 262.468916 
L 166.539458 262.592008 
L 168.204353 260.783817 
L 169.869248 261.567765 
L 171.534143 264.455855 
L 173.199038 263.94155 
L 174.863934 256.148702 
L 176.528829 263.593075 
L 178.193724 262.86355 
L 179.858619 264.102347 
L 181.523514 261.671386 
L 183.188409 264.52253 
L 184.853304 263.937371 
L 188.183094 263.064713 
L 189.84799 264.360118 
L 191.512885 264.046025 
L 198.172465 264.493372 
L 201.502255 262.959952 
L 203.16715 263.944399 
L 204.832045 262.767622 
L 206.496941 264.089145 
L 208.161836 264.143853 
L 209.826731 262.830212 
L 214.821416 264.449207 
L 216.486311 263.744945 
L 219.816101 261.038263 
L 221.480997 261.891545 
L 223.145892 259.927591 
L 224.810787 261.219956 
L 226.475682 263.764321 
L 228.140577 259.252867 
L 229.805472 257.863909 
L 231.470367 263.107928 
L 233.135262 264.530128 
L 234.800157 262.830687 
L 236.465052 263.138606 
L 238.129948 260.516264 
L 239.794843 259.338442 
L 241.459738 264.184788 
L 243.124633 264.346916 
L 244.789528 263.61454 
L 246.454423 263.122555 
L 248.119318 263.339674 
L 249.784213 262.120822 
L 251.449108 260.721512 
L 253.114003 261.518472 
L 254.778899 264.314053 
L 256.443794 263.867847 
L 258.108689 262.813306 
L 259.773584 263.76964 
L 261.438479 263.98372 
L 263.103374 264.500495 
L 264.768269 263.110112 
L 266.433164 262.782154 
L 268.098059 264.308829 
L 269.762955 263.718636 
L 271.42785 262.254076 
L 273.092745 264.380348 
L 274.75764 263.366838 
L 276.422535 263.076775 
L 278.08743 263.111537 
L 279.752325 261.82582 
L 281.41722 263.578259 
L 283.082115 260.993813 
L 284.74701 263.934521 
L 286.411906 264.066161 
L 288.076801 263.51092 
L 289.741696 263.737822 
L 291.406591 261.168668 
L 293.071486 263.611976 
L 294.736381 262.90743 
L 296.401276 263.57313 
L 298.066171 263.324763 
L 299.731066 264.11403 
L 301.395962 262.08777 
L 303.060857 264.341787 
L 304.725752 264.22221 
L 306.390647 263.273855 
L 308.055542 263.984195 
L 311.385332 262.849778 
L 313.050227 264.499735 
L 314.715122 262.40965 
L 316.380017 263.469699 
L 318.044913 264.325166 
L 319.709808 264.386901 
L 321.374703 263.187615 
L 323.039598 263.611121 
L 324.704493 262.96907 
L 326.369388 264.249373 
L 329.699178 263.233774 
L 331.364073 263.138606 
L 333.028969 262.657922 
L 334.693864 263.407583 
L 336.358759 263.859679 
L 338.023654 263.180681 
L 339.688549 262.184362 
L 341.353444 263.967574 
L 343.018339 263.047142 
L 344.683234 263.933287 
L 346.348129 262.2782 
L 348.013024 263.626983 
L 349.67792 263.232919 
L 351.342815 263.689858 
L 353.00771 263.580538 
L 354.672605 264.408936 
L 356.3375 264.083257 
L 358.002395 261.263836 
L 359.66729 263.160166 
L 361.332185 263.267491 
L 362.99708 263.934806 
L 364.661976 263.78987 
L 366.326871 263.395331 
L 367.991766 264.100733 
L 369.656661 262.986166 
L 371.321556 263.449944 
L 372.986451 262.627624 
L 374.651346 264.420619 
L 376.316241 263.743995 
L 377.981136 264.297527 
L 379.646031 263.429238 
L 381.310927 262.736469 
L 382.975822 264.455665 
L 384.640717 263.70363 
L 386.305612 264.323171 
L 387.970507 262.599036 
L 389.635402 262.736659 
L 391.300297 260.457188 
L 392.965192 263.333786 
L 394.630087 263.894346 
L 396.294983 263.334735 
L 397.959878 263.099855 
L 399.624773 263.651487 
L 399.624773 263.651487 
" style="fill:none;stroke:#9467bd;stroke-linecap:square;stroke-width:1.5;"/>
   </g>
   <g id="line2d_21">
    <path clip-path="url(#p38821248a7)" d="M 74.970227 263.750074 
L 76.635122 264.495081 
L 78.300017 263.971088 
L 79.964913 264.435055 
L 81.629808 264.186688 
L 83.294703 262.437289 
L 84.959598 262.761163 
L 86.624493 263.767075 
L 89.954283 260.220883 
L 91.619178 264.432396 
L 93.284073 264.099973 
L 94.948969 264.356793 
L 96.613864 264.34986 
L 98.278759 263.464285 
L 99.943654 263.924928 
L 101.608549 264.207773 
L 104.938339 264.038237 
L 106.603234 263.506361 
L 108.268129 263.470934 
L 109.933024 263.922364 
L 111.59792 262.859561 
L 113.262815 264.208723 
L 114.92771 260.473334 
L 116.592605 264.092185 
L 118.2575 263.55252 
L 119.922395 264.473236 
L 121.58729 264.08924 
L 123.252185 262.845599 
L 124.91708 264.120678 
L 126.581976 264.432111 
L 128.246871 263.669343 
L 131.576661 263.074876 
L 133.241556 264.106526 
L 134.906451 262.166696 
L 136.571346 263.372632 
L 138.236241 264.143853 
L 139.901136 264.372085 
L 141.566031 264.363157 
L 143.230927 261.808154 
L 144.895822 264.358218 
L 146.560717 263.904128 
L 148.225612 264.115454 
L 149.890507 263.22893 
L 151.555402 263.899379 
L 153.220297 258.240782 
L 154.885192 264.489193 
L 156.550087 261.503465 
L 158.214983 264.205114 
L 159.879878 261.336589 
L 161.544773 254.976864 
L 163.209668 260.797589 
L 164.874563 262.975909 
L 166.539458 263.37814 
L 169.869248 262.054337 
L 171.534143 264.490522 
L 173.199038 263.955891 
L 174.863934 257.568243 
L 176.528829 263.158456 
L 178.193724 262.685276 
L 179.858619 264.367336 
L 181.523514 263.850466 
L 183.188409 264.445598 
L 184.853304 263.674092 
L 188.183094 262.952924 
L 189.84799 263.717307 
L 191.512885 263.956366 
L 193.17778 262.485347 
L 194.842675 264.356318 
L 196.50757 264.320702 
L 198.172465 264.439424 
L 199.83736 263.531625 
L 201.502255 263.292565 
L 203.16715 263.512439 
L 204.832045 262.814446 
L 206.496941 263.777428 
L 208.161836 264.044411 
L 209.826731 262.049968 
L 211.491626 263.46514 
L 213.156521 262.314197 
L 214.821416 264.418434 
L 216.486311 264.292303 
L 218.151206 263.075351 
L 219.816101 262.832872 
L 221.480997 259.679128 
L 223.145892 261.122888 
L 224.810787 262.75537 
L 226.475682 263.068037 
L 228.140577 263.169664 
L 229.805472 260.375317 
L 231.470367 262.643391 
L 233.135262 264.309589 
L 234.800157 263.125689 
L 238.129948 263.584337 
L 239.794843 262.350954 
L 241.459738 263.537038 
L 243.124633 264.400483 
L 244.789528 263.928348 
L 246.454423 262.55867 
L 248.119318 262.0872 
L 249.784213 263.649777 
L 251.449108 261.799037 
L 254.778899 264.302561 
L 256.443794 264.260866 
L 259.773584 263.087508 
L 261.438479 263.264072 
L 263.103374 264.481594 
L 264.768269 263.425724 
L 266.433164 263.050466 
L 268.098059 263.825866 
L 269.762955 263.933477 
L 271.42785 262.56038 
L 273.092745 264.368856 
L 274.75764 262.125001 
L 276.422535 263.837074 
L 278.08743 263.476917 
L 279.752325 264.101967 
L 281.41722 263.171468 
L 284.74701 264.242915 
L 286.411906 263.159596 
L 288.076801 264.389371 
L 289.741696 261.874259 
L 291.406591 263.260368 
L 293.071486 263.686249 
L 294.736381 263.479197 
L 296.401276 263.111632 
L 298.066171 263.64028 
L 299.731066 264.289074 
L 301.395962 263.18733 
L 303.060857 264.168357 
L 304.725752 264.299807 
L 306.390647 263.363609 
L 308.055542 264.407227 
L 309.720437 264.445693 
L 311.385332 263.537703 
L 313.050227 264.387376 
L 314.715122 262.932599 
L 316.380017 263.558124 
L 318.044913 264.386142 
L 319.709808 264.093134 
L 321.374703 263.028526 
L 323.039598 263.70439 
L 324.704493 263.609317 
L 326.369388 264.226389 
L 328.034283 264.241015 
L 329.699178 263.57218 
L 331.364073 262.142382 
L 333.028969 264.020666 
L 334.693864 262.873522 
L 336.358759 262.876277 
L 338.023654 263.356675 
L 339.688549 263.209554 
L 341.353444 263.879149 
L 343.018339 263.20547 
L 344.683234 263.058065 
L 346.348129 263.121225 
L 348.013024 263.006681 
L 349.67792 262.635318 
L 351.342815 262.822804 
L 353.00771 262.605305 
L 354.672605 264.098358 
L 356.3375 264.26457 
L 358.002395 262.175909 
L 359.66729 263.180491 
L 361.332185 263.501137 
L 362.99708 264.335708 
L 364.661976 264.312059 
L 366.326871 263.990653 
L 367.991766 263.488505 
L 369.656661 263.50978 
L 371.321556 262.802669 
L 372.986451 263.108023 
L 374.651346 264.452531 
L 376.316241 263.447854 
L 377.981136 264.190392 
L 379.646031 263.881714 
L 381.310927 262.915693 
L 382.975822 264.374744 
L 384.640717 263.83185 
L 386.305612 264.396969 
L 387.970507 263.209839 
L 389.635402 263.888362 
L 391.300297 262.604355 
L 392.965192 262.956248 
L 394.630087 263.6834 
L 396.294983 263.090452 
L 397.959878 263.435982 
L 399.624773 263.163205 
L 399.624773 263.163205 
" style="fill:none;stroke:#8c564b;stroke-linecap:square;stroke-width:1.5;"/>
   </g>
   <g id="line2d_22">
    <path clip-path="url(#p38821248a7)" d="M 74.970227 264.300281 
L 76.635122 264.558527 
L 81.629808 264.353944 
L 83.294703 263.483851 
L 84.959598 263.898905 
L 86.624493 264.165318 
L 88.289388 262.579376 
L 89.954283 260.01782 
L 91.619178 264.539151 
L 93.284073 264.190392 
L 94.948969 264.41435 
L 96.613864 264.482734 
L 98.278759 263.586332 
L 99.943654 264.252697 
L 101.608549 264.429831 
L 103.273444 264.134355 
L 104.938339 264.076038 
L 106.603234 263.794334 
L 108.268129 264.192481 
L 109.933024 263.976976 
L 111.59792 263.886272 
L 113.262815 264.386996 
L 114.92771 263.713413 
L 116.592605 264.291733 
L 118.2575 262.528847 
L 119.922395 264.504294 
L 121.58729 264.505149 
L 123.252185 263.436267 
L 124.91708 264.22088 
L 126.581976 264.343116 
L 128.246871 264.236171 
L 129.911766 263.12037 
L 131.576661 264.330294 
L 133.241556 264.296957 
L 134.906451 264.053529 
L 136.571346 263.084184 
L 138.236241 264.257256 
L 141.566031 264.526709 
L 143.230927 264.082022 
L 144.895822 264.325356 
L 146.560717 262.911514 
L 148.225612 264.358503 
L 149.890507 264.055333 
L 151.555402 264.259726 
L 153.220297 263.945064 
L 154.885192 264.526709 
L 156.550087 264.076323 
L 158.214983 263.981535 
L 159.879878 264.046025 
L 161.544773 263.634106 
L 163.209668 261.745564 
L 164.874563 264.381773 
L 166.539458 264.290784 
L 169.869248 264.385192 
L 171.534143 264.551213 
L 173.199038 264.465733 
L 174.863934 262.652889 
L 176.528829 263.736967 
L 179.858619 264.464403 
L 181.523514 264.179944 
L 183.188409 264.372085 
L 184.853304 263.482616 
L 186.518199 264.126757 
L 188.183094 263.485275 
L 189.84799 264.417104 
L 191.512885 264.37237 
L 193.17778 263.53039 
L 194.842675 264.414255 
L 196.50757 264.253552 
L 198.172465 264.515881 
L 201.502255 263.692043 
L 204.832045 263.668393 
L 206.496941 264.217556 
L 208.161836 264.428027 
L 209.826731 263.371682 
L 211.491626 263.051796 
L 213.156521 263.196447 
L 214.821416 264.510563 
L 216.486311 264.048115 
L 218.151206 263.720346 
L 219.816101 263.047997 
L 221.480997 263.382224 
L 223.145892 264.017532 
L 224.810787 263.967289 
L 226.475682 263.428669 
L 229.805472 263.605708 
L 231.470367 263.824062 
L 233.135262 264.176715 
L 234.800157 263.578354 
L 236.465052 263.355915 
L 239.794843 263.630117 
L 243.124633 264.238261 
L 244.789528 264.359643 
L 246.454423 264.120488 
L 248.119318 263.455452 
L 249.784213 264.09038 
L 251.449108 262.294157 
L 253.114003 263.647213 
L 254.778899 264.518446 
L 256.443794 264.450727 
L 258.108689 263.76793 
L 259.773584 263.540838 
L 263.103374 264.518636 
L 264.768269 263.65975 
L 266.433164 263.654431 
L 268.098059 264.350145 
L 269.762955 264.303321 
L 271.42785 263.965104 
L 273.092745 264.380443 
L 274.75764 263.865567 
L 276.422535 264.204639 
L 278.08743 264.02589 
L 279.752325 263.651677 
L 281.41722 263.757292 
L 283.082115 263.540268 
L 284.74701 264.319562 
L 286.411906 263.916191 
L 288.076801 264.481594 
L 289.741696 262.660012 
L 291.406591 263.740101 
L 293.071486 263.261412 
L 294.736381 263.080004 
L 296.401276 263.98486 
L 298.066171 263.974507 
L 299.731066 264.504389 
L 301.395962 263.134522 
L 303.060857 264.303511 
L 304.725752 264.214611 
L 306.390647 263.602003 
L 308.055542 264.418624 
L 309.720437 264.232182 
L 311.385332 263.66032 
L 313.050227 264.298952 
L 314.715122 264.308355 
L 316.380017 263.506835 
L 318.044913 264.430211 
L 319.709808 264.362872 
L 323.039598 263.150288 
L 324.704493 264.088576 
L 328.034283 264.00471 
L 329.699178 263.634581 
L 333.028969 264.282995 
L 334.693864 263.204521 
L 336.358759 263.804876 
L 338.023654 264.076133 
L 339.688549 263.63781 
L 341.353444 264.176715 
L 343.018339 263.640659 
L 344.683234 264.441134 
L 346.348129 263.130628 
L 348.013024 264.087721 
L 349.67792 263.512344 
L 351.342815 262.469961 
L 353.00771 263.823112 
L 354.672605 264.34853 
L 356.3375 264.312724 
L 358.002395 263.019693 
L 359.66729 263.632681 
L 361.332185 263.965674 
L 362.99708 264.512462 
L 364.661976 264.332194 
L 366.326871 263.340149 
L 367.991766 263.633251 
L 369.656661 263.368358 
L 371.321556 263.912486 
L 372.986451 263.790155 
L 374.651346 264.545799 
L 376.316241 263.383269 
L 377.981136 264.360308 
L 379.646031 263.859204 
L 381.310927 263.855785 
L 382.975822 264.397634 
L 384.640717 263.80858 
L 386.305612 264.403238 
L 387.970507 263.288766 
L 389.635402 263.505791 
L 391.300297 263.111252 
L 394.630087 263.810575 
L 396.294983 263.416606 
L 399.624773 263.845812 
L 399.624773 263.845812 
" style="fill:none;stroke:#e377c2;stroke-linecap:square;stroke-width:1.5;"/>
   </g>
   <g id="line2d_23">
    <path clip-path="url(#p38821248a7)" d="M 74.970227 264.543805 
L 76.635122 264.582366 
L 78.300017 264.56584 
L 79.964913 264.529938 
L 81.629808 264.363252 
L 83.294703 264.426792 
L 84.959598 264.161614 
L 86.624493 264.458515 
L 88.289388 262.094418 
L 89.954283 261.935045 
L 91.619178 264.548459 
L 93.284073 264.310634 
L 94.948969 264.533357 
L 96.613864 264.500685 
L 98.278759 264.060462 
L 99.943654 264.402098 
L 103.273444 264.496031 
L 104.938339 264.455855 
L 106.603234 264.179659 
L 109.933024 264.118019 
L 111.59792 264.256971 
L 113.262815 264.552638 
L 114.92771 263.479862 
L 116.592605 264.361067 
L 118.2575 263.686629 
L 119.922395 264.551118 
L 121.58729 264.464213 
L 123.252185 264.222969 
L 126.581976 264.503914 
L 128.246871 264.41397 
L 129.911766 264.048875 
L 131.576661 264.463264 
L 133.241556 264.50002 
L 134.906451 263.829001 
L 138.236241 264.45538 
L 141.566031 264.54352 
L 143.230927 263.831945 
L 144.895822 264.470292 
L 146.560717 264.127896 
L 148.225612 264.446832 
L 149.890507 264.093039 
L 151.555402 264.505434 
L 153.220297 263.660035 
L 154.885192 264.568024 
L 156.550087 264.255547 
L 158.214983 264.395069 
L 159.879878 263.894726 
L 161.544773 263.817128 
L 164.874563 264.440564 
L 166.539458 264.390131 
L 168.204353 264.490997 
L 169.869248 264.438284 
L 171.534143 264.545515 
L 173.199038 264.374554 
L 174.863934 264.47675 
L 176.528829 264.208343 
L 178.193724 264.233132 
L 179.858619 264.514552 
L 181.523514 264.238356 
L 183.188409 264.524809 
L 184.853304 263.990653 
L 186.518199 264.28347 
L 188.183094 263.330271 
L 189.84799 264.550358 
L 191.512885 264.464213 
L 193.17778 264.062742 
L 194.842675 264.371325 
L 198.172465 264.574103 
L 199.83736 264.317377 
L 201.502255 263.461436 
L 203.16715 264.30826 
L 204.832045 263.551475 
L 208.161836 264.509328 
L 209.826731 263.897195 
L 213.156521 263.823397 
L 214.821416 264.552163 
L 216.486311 264.502395 
L 218.151206 263.932052 
L 219.816101 263.994072 
L 221.480997 264.232182 
L 223.145892 263.957601 
L 224.810787 263.81219 
L 226.475682 263.134332 
L 228.140577 264.341027 
L 229.805472 264.216036 
L 231.470367 264.234177 
L 233.135262 264.482639 
L 234.800157 264.187828 
L 238.129948 264.339507 
L 239.794843 263.860154 
L 241.459738 264.269129 
L 244.789528 264.515217 
L 246.454423 264.015348 
L 248.119318 264.28537 
L 249.784213 264.105197 
L 251.449108 264.055238 
L 253.114003 264.149456 
L 254.778899 264.534687 
L 256.443794 264.532693 
L 259.773584 264.297242 
L 263.103374 264.563465 
L 264.768269 263.883993 
L 268.098059 264.463549 
L 269.762955 264.161614 
L 271.42785 264.235506 
L 273.092745 264.422518 
L 274.75764 264.234937 
L 276.422535 264.329725 
L 278.08743 264.091425 
L 279.752325 264.201029 
L 281.41722 263.630022 
L 283.082115 264.281666 
L 284.74701 264.512177 
L 286.411906 264.192291 
L 288.076801 264.50021 
L 289.741696 264.027695 
L 291.406591 264.261245 
L 293.071486 264.347391 
L 294.736381 264.043081 
L 296.401276 264.292683 
L 298.066171 263.983625 
L 299.731066 264.484824 
L 301.395962 264.097029 
L 303.060857 264.508378 
L 304.725752 264.466493 
L 306.390647 264.205968 
L 308.055542 264.468202 
L 309.720437 264.505244 
L 311.385332 263.779612 
L 313.050227 264.420239 
L 314.715122 264.426602 
L 316.380017 264.179469 
L 318.044913 264.565555 
L 319.709808 264.470387 
L 323.039598 263.920749 
L 326.369388 264.480455 
L 331.364073 264.228193 
L 333.028969 263.956271 
L 334.693864 264.088386 
L 336.358759 264.441894 
L 338.023654 264.137204 
L 339.688549 264.259821 
L 341.353444 263.986474 
L 343.018339 264.385002 
L 344.683234 264.532693 
L 349.67792 263.739531 
L 351.342815 264.3491 
L 353.00771 264.343116 
L 354.672605 264.511227 
L 356.3375 264.45823 
L 358.002395 264.014018 
L 359.66729 264.226958 
L 361.332185 264.052104 
L 362.99708 264.494321 
L 364.661976 264.52063 
L 366.326871 263.917425 
L 367.991766 264.186403 
L 369.656661 263.781702 
L 371.321556 264.325641 
L 372.986451 264.231422 
L 374.651346 264.572868 
L 376.316241 263.577594 
L 377.981136 264.431351 
L 379.646031 264.181274 
L 381.310927 264.196186 
L 382.975822 264.49907 
L 384.640717 263.85208 
L 386.305612 264.524239 
L 387.970507 263.829666 
L 389.635402 264.092945 
L 391.300297 263.888647 
L 392.965192 264.186213 
L 397.959878 264.324976 
L 399.624773 264.471147 
L 399.624773 264.471147 
" style="fill:none;stroke:#7f7f7f;stroke-linecap:square;stroke-width:1.5;"/>
   </g>
   <g id="line2d_24">
    <path clip-path="url(#p38821248a7)" d="M 74.970227 264.592149 
L 116.592605 264.587115 
L 399.624773 264.585785 
L 399.624773 264.585785 
" style="fill:none;stroke:#bcbd22;stroke-linecap:square;stroke-width:1.5;"/>
   </g>
   <g id="line2d_25">
    <path clip-path="url(#p38821248a7)" d="M 74.970227 264.592149 
L 113.262815 264.586735 
L 399.624773 264.58702 
L 399.624773 264.58702 
" style="fill:none;stroke:#17becf;stroke-linecap:square;stroke-width:1.5;"/>
   </g>
   <g id="line2d_26">
    <path clip-path="url(#p38821248a7)" d="M 74.970227 264.716 
L 76.635122 264.595283 
L 78.300017 264.519776 
L 81.629808 264.590154 
L 86.624493 264.586735 
L 88.289388 264.397729 
L 89.954283 264.590439 
L 111.59792 264.593478 
L 134.906451 264.58854 
L 188.183094 264.592719 
L 274.75764 264.588824 
L 399.624773 264.588824 
L 399.624773 264.588824 
" style="fill:none;stroke:#1f77b4;stroke-linecap:square;stroke-width:1.5;"/>
   </g>
   <g id="line2d_27">
    <path clip-path="url(#p38821248a7)" d="M 74.970227 264.592149 
L 399.624773 264.592149 
L 399.624773 264.592149 
" style="fill:none;stroke:#ff7f0e;stroke-linecap:square;stroke-width:1.5;"/>
   </g>
   <g id="patch_3">
    <path d="M 58.7375 276.812 
L 58.7375 10.7 
" style="fill:none;stroke:#000000;stroke-linecap:square;stroke-linejoin:miter;stroke-width:0.8;"/>
   </g>
   <g id="patch_4">
    <path d="M 415.8575 276.812 
L 415.8575 10.7 
" style="fill:none;stroke:#000000;stroke-linecap:square;stroke-linejoin:miter;stroke-width:0.8;"/>
   </g>
   <g id="patch_5">
    <path d="M 58.7375 276.812 
L 415.8575 276.812 
" style="fill:none;stroke:#000000;stroke-linecap:square;stroke-linejoin:miter;stroke-width:0.8;"/>
   </g>
   <g id="patch_6">
    <path d="M 58.7375 10.7 
L 415.8575 10.7 
" style="fill:none;stroke:#000000;stroke-linecap:square;stroke-linejoin:miter;stroke-width:0.8;"/>
   </g>
   <g id="legend_1">
    <g id="patch_7">
     <path d="M 318.504375 165.48125 
L 408.8575 165.48125 
Q 410.8575 165.48125 410.8575 163.48125 
L 410.8575 17.7 
Q 410.8575 15.7 408.8575 15.7 
L 318.504375 15.7 
Q 316.504375 15.7 316.504375 17.7 
L 316.504375 163.48125 
Q 316.504375 165.48125 318.504375 165.48125 
z
" style="fill:#ffffff;opacity:0.8;stroke:#cccccc;stroke-linejoin:miter;"/>
    </g>
    <g id="line2d_28">
     <path d="M 320.504375 23.798437 
L 340.504375 23.798437 
" style="fill:none;stroke:#1f77b4;stroke-linecap:square;stroke-width:1.5;"/>
    </g>
    <g id="line2d_29"/>
    <g id="text_16">
     <!-- delta -->
     <defs>
      <path d="M 45.40625 46.390625 
L 45.40625 75.984375 
L 54.390625 75.984375 
L 54.390625 0 
L 45.40625 0 
L 45.40625 8.203125 
Q 42.578125 3.328125 38.25 0.953125 
Q 33.9375 -1.421875 27.875 -1.421875 
Q 17.96875 -1.421875 11.734375 6.484375 
Q 5.515625 14.40625 5.515625 27.296875 
Q 5.515625 40.1875 11.734375 48.09375 
Q 17.96875 56 27.875 56 
Q 33.9375 56 38.25 53.625 
Q 42.578125 51.265625 45.40625 46.390625 
M 14.796875 27.296875 
Q 14.796875 17.390625 18.875 11.75 
Q 22.953125 6.109375 30.078125 6.109375 
Q 37.203125 6.109375 41.296875 11.75 
Q 45.40625 17.390625 45.40625 27.296875 
Q 45.40625 37.203125 41.296875 42.84375 
Q 37.203125 48.484375 30.078125 48.484375 
Q 22.953125 48.484375 18.875 42.84375 
Q 14.796875 37.203125 14.796875 27.296875 
" id="DejaVuSans-64"/>
      <path d="M 56.203125 29.59375 
L 56.203125 25.203125 
L 14.890625 25.203125 
Q 15.484375 15.921875 20.484375 11.0625 
Q 25.484375 6.203125 34.421875 6.203125 
Q 39.59375 6.203125 44.453125 7.46875 
Q 49.3125 8.734375 54.109375 11.28125 
L 54.109375 2.78125 
Q 49.265625 0.734375 44.1875 -0.34375 
Q 39.109375 -1.421875 33.890625 -1.421875 
Q 20.796875 -1.421875 13.15625 6.1875 
Q 5.515625 13.8125 5.515625 26.8125 
Q 5.515625 40.234375 12.765625 48.109375 
Q 20.015625 56 32.328125 56 
Q 43.359375 56 49.78125 48.890625 
Q 56.203125 41.796875 56.203125 29.59375 
M 47.21875 32.234375 
Q 47.125 39.59375 43.09375 43.984375 
Q 39.0625 48.390625 32.421875 48.390625 
Q 24.90625 48.390625 20.390625 44.140625 
Q 15.875 39.890625 15.1875 32.171875 
z
" id="DejaVuSans-65"/>
      <path d="M 9.421875 75.984375 
L 18.40625 75.984375 
L 18.40625 0 
L 9.421875 0 
z
" id="DejaVuSans-6c"/>
      <path d="M 18.3125 70.21875 
L 18.3125 54.6875 
L 36.8125 54.6875 
L 36.8125 47.703125 
L 18.3125 47.703125 
L 18.3125 18.015625 
Q 18.3125 11.328125 20.140625 9.421875 
Q 21.96875 7.515625 27.59375 7.515625 
L 36.8125 7.515625 
L 36.8125 0 
L 27.59375 0 
Q 17.1875 0 13.234375 3.875 
Q 9.28125 7.765625 9.28125 18.015625 
L 9.28125 47.703125 
L 2.6875 47.703125 
L 2.6875 54.6875 
L 9.28125 54.6875 
L 9.28125 70.21875 
z
" id="DejaVuSans-74"/>
      <path d="M 34.28125 27.484375 
Q 23.390625 27.484375 19.1875 25 
Q 14.984375 22.515625 14.984375 16.5 
Q 14.984375 11.71875 18.140625 8.90625 
Q 21.296875 6.109375 26.703125 6.109375 
Q 34.1875 6.109375 38.703125 11.40625 
Q 43.21875 16.703125 43.21875 25.484375 
L 43.21875 27.484375 
z
M 52.203125 31.203125 
L 52.203125 0 
L 43.21875 0 
L 43.21875 8.296875 
Q 40.140625 3.328125 35.546875 0.953125 
Q 30.953125 -1.421875 24.3125 -1.421875 
Q 15.921875 -1.421875 10.953125 3.296875 
Q 6 8.015625 6 15.921875 
Q 6 25.140625 12.171875 29.828125 
Q 18.359375 34.515625 30.609375 34.515625 
L 43.21875 34.515625 
L 43.21875 35.40625 
Q 43.21875 41.609375 39.140625 45 
Q 35.0625 48.390625 27.6875 48.390625 
Q 23 48.390625 18.546875 47.265625 
Q 14.109375 46.140625 10.015625 43.890625 
L 10.015625 52.203125 
Q 14.9375 54.109375 19.578125 55.046875 
Q 24.21875 56 28.609375 56 
Q 40.484375 56 46.34375 49.84375 
Q 52.203125 43.703125 52.203125 31.203125 
" id="DejaVuSans-61"/>
     </defs>
     <g transform="translate(348.504375 27.298437)scale(0.1 -0.1)">
      <use xlink:href="#DejaVuSans-64"/>
      <use x="63.476562" xlink:href="#DejaVuSans-65"/>
      <use x="125" xlink:href="#DejaVuSans-6c"/>
      <use x="152.783203" xlink:href="#DejaVuSans-74"/>
      <use x="191.992188" xlink:href="#DejaVuSans-61"/>
     </g>
    </g>
    <g id="line2d_30">
     <path d="M 320.504375 38.476562 
L 340.504375 38.476562 
" style="fill:none;stroke:#ff7f0e;stroke-linecap:square;stroke-width:1.5;"/>
    </g>
    <g id="line2d_31"/>
    <g id="text_17">
     <!-- lowAlpha -->
     <defs>
      <path d="M 30.609375 48.390625 
Q 23.390625 48.390625 19.1875 42.75 
Q 14.984375 37.109375 14.984375 27.296875 
Q 14.984375 17.484375 19.15625 11.84375 
Q 23.34375 6.203125 30.609375 6.203125 
Q 37.796875 6.203125 41.984375 11.859375 
Q 46.1875 17.53125 46.1875 27.296875 
Q 46.1875 37.015625 41.984375 42.703125 
Q 37.796875 48.390625 30.609375 48.390625 
M 30.609375 56 
Q 42.328125 56 49.015625 48.375 
Q 55.71875 40.765625 55.71875 27.296875 
Q 55.71875 13.875 49.015625 6.21875 
Q 42.328125 -1.421875 30.609375 -1.421875 
Q 18.84375 -1.421875 12.171875 6.21875 
Q 5.515625 13.875 5.515625 27.296875 
Q 5.515625 40.765625 12.171875 48.375 
Q 18.84375 56 30.609375 56 
" id="DejaVuSans-6f"/>
      <path d="M 4.203125 54.6875 
L 13.1875 54.6875 
L 24.421875 12.015625 
L 35.59375 54.6875 
L 46.1875 54.6875 
L 57.421875 12.015625 
L 68.609375 54.6875 
L 77.59375 54.6875 
L 63.28125 0 
L 52.6875 0 
L 40.921875 44.828125 
L 29.109375 0 
L 18.5 0 
z
" id="DejaVuSans-77"/>
      <path d="M 34.1875 63.1875 
L 20.796875 26.90625 
L 47.609375 26.90625 
z
M 28.609375 72.90625 
L 39.796875 72.90625 
L 67.578125 0 
L 57.328125 0 
L 50.6875 18.703125 
L 17.828125 18.703125 
L 11.1875 0 
L 0.78125 0 
z
" id="DejaVuSans-41"/>
      <path d="M 18.109375 8.203125 
L 18.109375 -20.796875 
L 9.078125 -20.796875 
L 9.078125 54.6875 
L 18.109375 54.6875 
L 18.109375 46.390625 
Q 20.953125 51.265625 25.265625 53.625 
Q 29.59375 56 35.59375 56 
Q 45.5625 56 51.78125 48.09375 
Q 58.015625 40.1875 58.015625 27.296875 
Q 58.015625 14.40625 51.78125 6.484375 
Q 45.5625 -1.421875 35.59375 -1.421875 
Q 29.59375 -1.421875 25.265625 0.953125 
Q 20.953125 3.328125 18.109375 8.203125 
M 48.6875 27.296875 
Q 48.6875 37.203125 44.609375 42.84375 
Q 40.53125 48.484375 33.40625 48.484375 
Q 26.265625 48.484375 22.1875 42.84375 
Q 18.109375 37.203125 18.109375 27.296875 
Q 18.109375 17.390625 22.1875 11.75 
Q 26.265625 6.109375 33.40625 6.109375 
Q 40.53125 6.109375 44.609375 11.75 
Q 48.6875 17.390625 48.6875 27.296875 
" id="DejaVuSans-70"/>
      <path d="M 54.890625 33.015625 
L 54.890625 0 
L 45.90625 0 
L 45.90625 32.71875 
Q 45.90625 40.484375 42.875 44.328125 
Q 39.84375 48.1875 33.796875 48.1875 
Q 26.515625 48.1875 22.3125 43.546875 
Q 18.109375 38.921875 18.109375 30.90625 
L 18.109375 0 
L 9.078125 0 
L 9.078125 75.984375 
L 18.109375 75.984375 
L 18.109375 46.1875 
Q 21.34375 51.125 25.703125 53.5625 
Q 30.078125 56 35.796875 56 
Q 45.21875 56 50.046875 50.171875 
Q 54.890625 44.34375 54.890625 33.015625 
" id="DejaVuSans-68"/>
     </defs>
     <g transform="translate(348.504375 41.976562)scale(0.1 -0.1)">
      <use xlink:href="#DejaVuSans-6c"/>
      <use x="27.783203" xlink:href="#DejaVuSans-6f"/>
      <use x="88.964844" xlink:href="#DejaVuSans-77"/>
      <use x="170.751953" xlink:href="#DejaVuSans-41"/>
      <use x="239.160156" xlink:href="#DejaVuSans-6c"/>
      <use x="266.943359" xlink:href="#DejaVuSans-70"/>
      <use x="330.419922" xlink:href="#DejaVuSans-68"/>
      <use x="393.798828" xlink:href="#DejaVuSans-61"/>
     </g>
    </g>
    <g id="line2d_32">
     <path d="M 320.504375 53.154687 
L 340.504375 53.154687 
" style="fill:none;stroke:#2ca02c;stroke-linecap:square;stroke-width:1.5;"/>
    </g>
    <g id="line2d_33"/>
    <g id="text_18">
     <!-- highAlpha -->
     <defs>
      <path d="M 9.421875 54.6875 
L 18.40625 54.6875 
L 18.40625 0 
L 9.421875 0 
z
M 9.421875 75.984375 
L 18.40625 75.984375 
L 18.40625 64.59375 
L 9.421875 64.59375 
z
" id="DejaVuSans-69"/>
      <path d="M 45.40625 27.984375 
Q 45.40625 37.75 41.375 43.109375 
Q 37.359375 48.484375 30.078125 48.484375 
Q 22.859375 48.484375 18.828125 43.109375 
Q 14.796875 37.75 14.796875 27.984375 
Q 14.796875 18.265625 18.828125 12.890625 
Q 22.859375 7.515625 30.078125 7.515625 
Q 37.359375 7.515625 41.375 12.890625 
Q 45.40625 18.265625 45.40625 27.984375 
M 54.390625 6.78125 
Q 54.390625 -7.171875 48.1875 -13.984375 
Q 42 -20.796875 29.203125 -20.796875 
Q 24.46875 -20.796875 20.265625 -20.09375 
Q 16.0625 -19.390625 12.109375 -17.921875 
L 12.109375 -9.1875 
Q 16.0625 -11.328125 19.921875 -12.34375 
Q 23.78125 -13.375 27.78125 -13.375 
Q 36.625 -13.375 41.015625 -8.765625 
Q 45.40625 -4.15625 45.40625 5.171875 
L 45.40625 9.625 
Q 42.625 4.78125 38.28125 2.390625 
Q 33.9375 0 27.875 0 
Q 17.828125 0 11.671875 7.65625 
Q 5.515625 15.328125 5.515625 27.984375 
Q 5.515625 40.671875 11.671875 48.328125 
Q 17.828125 56 27.875 56 
Q 33.9375 56 38.28125 53.609375 
Q 42.625 51.21875 45.40625 46.390625 
L 45.40625 54.6875 
L 54.390625 54.6875 
z
" id="DejaVuSans-67"/>
     </defs>
     <g transform="translate(348.504375 56.654687)scale(0.1 -0.1)">
      <use xlink:href="#DejaVuSans-68"/>
      <use x="63.378906" xlink:href="#DejaVuSans-69"/>
      <use x="91.162109" xlink:href="#DejaVuSans-67"/>
      <use x="154.638672" xlink:href="#DejaVuSans-68"/>
      <use x="218.017578" xlink:href="#DejaVuSans-41"/>
      <use x="286.425781" xlink:href="#DejaVuSans-6c"/>
      <use x="314.208984" xlink:href="#DejaVuSans-70"/>
      <use x="377.685547" xlink:href="#DejaVuSans-68"/>
      <use x="441.064453" xlink:href="#DejaVuSans-61"/>
     </g>
    </g>
    <g id="line2d_34">
     <path d="M 320.504375 67.832812 
L 340.504375 67.832812 
" style="fill:none;stroke:#d62728;stroke-linecap:square;stroke-width:1.5;"/>
    </g>
    <g id="line2d_35"/>
    <g id="text_19">
     <!-- lowBeta -->
     <defs>
      <path d="M 19.671875 34.8125 
L 19.671875 8.109375 
L 35.5 8.109375 
Q 43.453125 8.109375 47.28125 11.40625 
Q 51.125 14.703125 51.125 21.484375 
Q 51.125 28.328125 47.28125 31.5625 
Q 43.453125 34.8125 35.5 34.8125 
z
M 19.671875 64.796875 
L 19.671875 42.828125 
L 34.28125 42.828125 
Q 41.5 42.828125 45.03125 45.53125 
Q 48.578125 48.25 48.578125 53.8125 
Q 48.578125 59.328125 45.03125 62.0625 
Q 41.5 64.796875 34.28125 64.796875 
z
M 9.8125 72.90625 
L 35.015625 72.90625 
Q 46.296875 72.90625 52.390625 68.21875 
Q 58.5 63.53125 58.5 54.890625 
Q 58.5 48.1875 55.375 44.234375 
Q 52.25 40.28125 46.1875 39.3125 
Q 53.46875 37.75 57.5 32.78125 
Q 61.53125 27.828125 61.53125 20.40625 
Q 61.53125 10.640625 54.890625 5.3125 
Q 48.25 0 35.984375 0 
L 9.8125 0 
z
" id="DejaVuSans-42"/>
     </defs>
     <g transform="translate(348.504375 71.332812)scale(0.1 -0.1)">
      <use xlink:href="#DejaVuSans-6c"/>
      <use x="27.783203" xlink:href="#DejaVuSans-6f"/>
      <use x="88.964844" xlink:href="#DejaVuSans-77"/>
      <use x="170.751953" xlink:href="#DejaVuSans-42"/>
      <use x="239.355469" xlink:href="#DejaVuSans-65"/>
      <use x="300.878906" xlink:href="#DejaVuSans-74"/>
      <use x="340.087891" xlink:href="#DejaVuSans-61"/>
     </g>
    </g>
    <g id="line2d_36">
     <path d="M 320.504375 82.510938 
L 340.504375 82.510938 
" style="fill:none;stroke:#9467bd;stroke-linecap:square;stroke-width:1.5;"/>
    </g>
    <g id="line2d_37"/>
    <g id="text_20">
     <!-- highBeta -->
     <g transform="translate(348.504375 86.010938)scale(0.1 -0.1)">
      <use xlink:href="#DejaVuSans-68"/>
      <use x="63.378906" xlink:href="#DejaVuSans-69"/>
      <use x="91.162109" xlink:href="#DejaVuSans-67"/>
      <use x="154.638672" xlink:href="#DejaVuSans-68"/>
      <use x="218.017578" xlink:href="#DejaVuSans-42"/>
      <use x="286.621094" xlink:href="#DejaVuSans-65"/>
      <use x="348.144531" xlink:href="#DejaVuSans-74"/>
      <use x="387.353516" xlink:href="#DejaVuSans-61"/>
     </g>
    </g>
    <g id="line2d_38">
     <path d="M 320.504375 97.189062 
L 340.504375 97.189062 
" style="fill:none;stroke:#8c564b;stroke-linecap:square;stroke-width:1.5;"/>
    </g>
    <g id="line2d_39"/>
    <g id="text_21">
     <!-- lowGamma -->
     <defs>
      <path d="M 59.515625 10.40625 
L 59.515625 29.984375 
L 43.40625 29.984375 
L 43.40625 38.09375 
L 69.28125 38.09375 
L 69.28125 6.78125 
Q 63.578125 2.734375 56.6875 0.65625 
Q 49.8125 -1.421875 42 -1.421875 
Q 24.90625 -1.421875 15.25 8.5625 
Q 5.609375 18.5625 5.609375 36.375 
Q 5.609375 54.25 15.25 64.234375 
Q 24.90625 74.21875 42 74.21875 
Q 49.125 74.21875 55.546875 72.453125 
Q 61.96875 70.703125 67.390625 67.28125 
L 67.390625 56.78125 
Q 61.921875 61.421875 55.765625 63.765625 
Q 49.609375 66.109375 42.828125 66.109375 
Q 29.4375 66.109375 22.71875 58.640625 
Q 16.015625 51.171875 16.015625 36.375 
Q 16.015625 21.625 22.71875 14.15625 
Q 29.4375 6.6875 42.828125 6.6875 
Q 48.046875 6.6875 52.140625 7.59375 
Q 56.25 8.5 59.515625 10.40625 
" id="DejaVuSans-47"/>
      <path d="M 52 44.1875 
Q 55.375 50.25 60.0625 53.125 
Q 64.75 56 71.09375 56 
Q 79.640625 56 84.28125 50.015625 
Q 88.921875 44.046875 88.921875 33.015625 
L 88.921875 0 
L 79.890625 0 
L 79.890625 32.71875 
Q 79.890625 40.578125 77.09375 44.375 
Q 74.3125 48.1875 68.609375 48.1875 
Q 61.625 48.1875 57.5625 43.546875 
Q 53.515625 38.921875 53.515625 30.90625 
L 53.515625 0 
L 44.484375 0 
L 44.484375 32.71875 
Q 44.484375 40.625 41.703125 44.40625 
Q 38.921875 48.1875 33.109375 48.1875 
Q 26.21875 48.1875 22.15625 43.53125 
Q 18.109375 38.875 18.109375 30.90625 
L 18.109375 0 
L 9.078125 0 
L 9.078125 54.6875 
L 18.109375 54.6875 
L 18.109375 46.1875 
Q 21.1875 51.21875 25.484375 53.609375 
Q 29.78125 56 35.6875 56 
Q 41.65625 56 45.828125 52.96875 
Q 50 49.953125 52 44.1875 
" id="DejaVuSans-6d"/>
     </defs>
     <g transform="translate(348.504375 100.689062)scale(0.1 -0.1)">
      <use xlink:href="#DejaVuSans-6c"/>
      <use x="27.783203" xlink:href="#DejaVuSans-6f"/>
      <use x="88.964844" xlink:href="#DejaVuSans-77"/>
      <use x="170.751953" xlink:href="#DejaVuSans-47"/>
      <use x="248.242188" xlink:href="#DejaVuSans-61"/>
      <use x="309.521484" xlink:href="#DejaVuSans-6d"/>
      <use x="406.933594" xlink:href="#DejaVuSans-6d"/>
      <use x="504.345703" xlink:href="#DejaVuSans-61"/>
     </g>
    </g>
    <g id="line2d_40">
     <path d="M 320.504375 111.867188 
L 340.504375 111.867188 
" style="fill:none;stroke:#e377c2;stroke-linecap:square;stroke-width:1.5;"/>
    </g>
    <g id="line2d_41"/>
    <g id="text_22">
     <!-- midGamma -->
     <g transform="translate(348.504375 115.367188)scale(0.1 -0.1)">
      <use xlink:href="#DejaVuSans-6d"/>
      <use x="97.412109" xlink:href="#DejaVuSans-69"/>
      <use x="125.195312" xlink:href="#DejaVuSans-64"/>
      <use x="188.671875" xlink:href="#DejaVuSans-47"/>
      <use x="266.162109" xlink:href="#DejaVuSans-61"/>
      <use x="327.441406" xlink:href="#DejaVuSans-6d"/>
      <use x="424.853516" xlink:href="#DejaVuSans-6d"/>
      <use x="522.265625" xlink:href="#DejaVuSans-61"/>
     </g>
    </g>
    <g id="line2d_42">
     <path d="M 320.504375 126.545312 
L 340.504375 126.545312 
" style="fill:none;stroke:#7f7f7f;stroke-linecap:square;stroke-width:1.5;"/>
    </g>
    <g id="line2d_43"/>
    <g id="text_23">
     <!-- attention -->
     <defs>
      <path d="M 54.890625 33.015625 
L 54.890625 0 
L 45.90625 0 
L 45.90625 32.71875 
Q 45.90625 40.484375 42.875 44.328125 
Q 39.84375 48.1875 33.796875 48.1875 
Q 26.515625 48.1875 22.3125 43.546875 
Q 18.109375 38.921875 18.109375 30.90625 
L 18.109375 0 
L 9.078125 0 
L 9.078125 54.6875 
L 18.109375 54.6875 
L 18.109375 46.1875 
Q 21.34375 51.125 25.703125 53.5625 
Q 30.078125 56 35.796875 56 
Q 45.21875 56 50.046875 50.171875 
Q 54.890625 44.34375 54.890625 33.015625 
" id="DejaVuSans-6e"/>
     </defs>
     <g transform="translate(348.504375 130.045312)scale(0.1 -0.1)">
      <use xlink:href="#DejaVuSans-61"/>
      <use x="61.279297" xlink:href="#DejaVuSans-74"/>
      <use x="100.488281" xlink:href="#DejaVuSans-74"/>
      <use x="139.697266" xlink:href="#DejaVuSans-65"/>
      <use x="201.220703" xlink:href="#DejaVuSans-6e"/>
      <use x="264.599609" xlink:href="#DejaVuSans-74"/>
      <use x="303.808594" xlink:href="#DejaVuSans-69"/>
      <use x="331.591797" xlink:href="#DejaVuSans-6f"/>
      <use x="392.773438" xlink:href="#DejaVuSans-6e"/>
     </g>
    </g>
    <g id="line2d_44">
     <path d="M 320.504375 141.223437 
L 340.504375 141.223437 
" style="fill:none;stroke:#bcbd22;stroke-linecap:square;stroke-width:1.5;"/>
    </g>
    <g id="line2d_45"/>
    <g id="text_24">
     <!-- meditation -->
     <g transform="translate(348.504375 144.723437)scale(0.1 -0.1)">
      <use xlink:href="#DejaVuSans-6d"/>
      <use x="97.412109" xlink:href="#DejaVuSans-65"/>
      <use x="158.935547" xlink:href="#DejaVuSans-64"/>
      <use x="222.412109" xlink:href="#DejaVuSans-69"/>
      <use x="250.195312" xlink:href="#DejaVuSans-74"/>
      <use x="289.404297" xlink:href="#DejaVuSans-61"/>
      <use x="350.683594" xlink:href="#DejaVuSans-74"/>
      <use x="389.892578" xlink:href="#DejaVuSans-69"/>
      <use x="417.675781" xlink:href="#DejaVuSans-6f"/>
      <use x="478.857422" xlink:href="#DejaVuSans-6e"/>
     </g>
    </g>
    <g id="line2d_46">
     <path d="M 320.504375 155.901562 
L 340.504375 155.901562 
" style="fill:none;stroke:#17becf;stroke-linecap:square;stroke-width:1.5;"/>
    </g>
    <g id="line2d_47"/>
    <g id="text_25">
     <!-- rawValue -->
     <defs>
      <path d="M 41.109375 46.296875 
Q 39.59375 47.171875 37.8125 47.578125 
Q 36.03125 48 33.890625 48 
Q 26.265625 48 22.1875 43.046875 
Q 18.109375 38.09375 18.109375 28.8125 
L 18.109375 0 
L 9.078125 0 
L 9.078125 54.6875 
L 18.109375 54.6875 
L 18.109375 46.1875 
Q 20.953125 51.171875 25.484375 53.578125 
Q 30.03125 56 36.53125 56 
Q 37.453125 56 38.578125 55.875 
Q 39.703125 55.765625 41.0625 55.515625 
z
" id="DejaVuSans-72"/>
      <path d="M 28.609375 0 
L 0.78125 72.90625 
L 11.078125 72.90625 
L 34.1875 11.53125 
L 57.328125 72.90625 
L 67.578125 72.90625 
L 39.796875 0 
z
" id="DejaVuSans-56"/>
      <path d="M 8.5 21.578125 
L 8.5 54.6875 
L 17.484375 54.6875 
L 17.484375 21.921875 
Q 17.484375 14.15625 20.5 10.265625 
Q 23.53125 6.390625 29.59375 6.390625 
Q 36.859375 6.390625 41.078125 11.03125 
Q 45.3125 15.671875 45.3125 23.6875 
L 45.3125 54.6875 
L 54.296875 54.6875 
L 54.296875 0 
L 45.3125 0 
L 45.3125 8.40625 
Q 42.046875 3.421875 37.71875 1 
Q 33.40625 -1.421875 27.6875 -1.421875 
Q 18.265625 -1.421875 13.375 4.4375 
Q 8.5 10.296875 8.5 21.578125 
M 31.109375 56 
z
" id="DejaVuSans-75"/>
     </defs>
     <g transform="translate(348.504375 159.401562)scale(0.1 -0.1)">
      <use xlink:href="#DejaVuSans-72"/>
      <use x="41.113281" xlink:href="#DejaVuSans-61"/>
      <use x="102.392578" xlink:href="#DejaVuSans-77"/>
      <use x="184.179688" xlink:href="#DejaVuSans-56"/>
      <use x="252.478516" xlink:href="#DejaVuSans-61"/>
      <use x="313.757812" xlink:href="#DejaVuSans-6c"/>
      <use x="341.541016" xlink:href="#DejaVuSans-75"/>
      <use x="404.919922" xlink:href="#DejaVuSans-65"/>
     </g>
    </g>
   </g>
  </g>
 </g>
 <defs>
  <clipPath id="p38821248a7">
   <rect height="266.112" width="357.12" x="58.7375" y="10.7"/>
  </clipPath>
 </defs>
</svg>
