<?xml version="1.0" encoding="utf-8" standalone="no"?>
<!DOCTYPE svg PUBLIC "-//W3C//DTD SVG 1.1//EN"
  "http://www.w3.org/Graphics/SVG/1.1/DTD/svg11.dtd">
<!-- Created with matplotlib (http://matplotlib.org/) -->
<svg height="300pt" version="1.1" viewBox="0 0 429 300" width="429pt" xmlns="http://www.w3.org/2000/svg" xmlns:xlink="http://www.w3.org/1999/xlink">
 <defs>
  <style type="text/css">
*{stroke-linecap:butt;stroke-linejoin:round;}
  </style>
 </defs>
 <g id="figure_1">
  <g id="patch_1">
   <path d="M 0 300.690125 
L 429.895795 300.690125 
L 429.895795 0 
L 0 0 
z
" style="fill:#ffffff;"/>
  </g>
  <g id="axes_1">
   <g id="patch_2">
    <path d="M 58.7375 276.812 
L 415.8575 276.812 
L 415.8575 10.7 
L 58.7375 10.7 
z
" style="fill:#ffffff;"/>
   </g>
   <g id="matplotlib.axis_1">
    <g id="xtick_1">
     <g id="line2d_1">
      <defs>
       <path d="M 0 0 
L 0 3.5 
" id="m9c43f35a37" style="stroke:#000000;stroke-width:0.8;"/>
      </defs>
      <g>
       <use style="stroke:#000000;stroke-width:0.8;" x="74.970227" xlink:href="#m9c43f35a37" y="276.812"/>
      </g>
     </g>
     <g id="text_1">
      <!-- 0 -->
      <defs>
       <path d="M 31.78125 66.40625 
Q 24.171875 66.40625 20.328125 58.90625 
Q 16.5 51.421875 16.5 36.375 
Q 16.5 21.390625 20.328125 13.890625 
Q 24.171875 6.390625 31.78125 6.390625 
Q 39.453125 6.390625 43.28125 13.890625 
Q 47.125 21.390625 47.125 36.375 
Q 47.125 51.421875 43.28125 58.90625 
Q 39.453125 66.40625 31.78125 66.40625 
M 31.78125 74.21875 
Q 44.046875 74.21875 50.515625 64.515625 
Q 56.984375 54.828125 56.984375 36.375 
Q 56.984375 17.96875 50.515625 8.265625 
Q 44.046875 -1.421875 31.78125 -1.421875 
Q 19.53125 -1.421875 13.0625 8.265625 
Q 6.59375 17.96875 6.59375 36.375 
Q 6.59375 54.828125 13.0625 64.515625 
Q 19.53125 74.21875 31.78125 74.21875 
" id="DejaVuSans-30"/>
      </defs>
      <g transform="translate(71.788977 291.410437)scale(0.1 -0.1)">
       <use xlink:href="#DejaVuSans-30"/>
      </g>
     </g>
    </g>
    <g id="xtick_2">
     <g id="line2d_2">
      <g>
       <use style="stroke:#000000;stroke-width:0.8;" x="117.242955" xlink:href="#m9c43f35a37" y="276.812"/>
      </g>
     </g>
     <g id="text_2">
      <!-- 25 -->
      <defs>
       <path d="M 19.1875 8.296875 
L 53.609375 8.296875 
L 53.609375 0 
L 7.328125 0 
L 7.328125 8.296875 
Q 12.9375 14.109375 22.625 23.890625 
Q 32.328125 33.6875 34.8125 36.53125 
Q 39.546875 41.84375 41.421875 45.53125 
Q 43.3125 49.21875 43.3125 52.78125 
Q 43.3125 58.59375 39.234375 62.25 
Q 35.15625 65.921875 28.609375 65.921875 
Q 23.96875 65.921875 18.8125 64.3125 
Q 13.671875 62.703125 7.8125 59.421875 
L 7.8125 69.390625 
Q 13.765625 71.78125 18.9375 73 
Q 24.125 74.21875 28.421875 74.21875 
Q 39.75 74.21875 46.484375 68.546875 
Q 53.21875 62.890625 53.21875 53.421875 
Q 53.21875 48.921875 51.53125 44.890625 
Q 49.859375 40.875 45.40625 35.40625 
Q 44.1875 33.984375 37.640625 27.21875 
Q 31.109375 20.453125 19.1875 8.296875 
" id="DejaVuSans-32"/>
       <path d="M 10.796875 72.90625 
L 49.515625 72.90625 
L 49.515625 64.59375 
L 19.828125 64.59375 
L 19.828125 46.734375 
Q 21.96875 47.46875 24.109375 47.828125 
Q 26.265625 48.1875 28.421875 48.1875 
Q 40.625 48.1875 47.75 41.5 
Q 54.890625 34.8125 54.890625 23.390625 
Q 54.890625 11.625 47.5625 5.09375 
Q 40.234375 -1.421875 26.90625 -1.421875 
Q 22.3125 -1.421875 17.546875 -0.640625 
Q 12.796875 0.140625 7.71875 1.703125 
L 7.71875 11.625 
Q 12.109375 9.234375 16.796875 8.0625 
Q 21.484375 6.890625 26.703125 6.890625 
Q 35.15625 6.890625 40.078125 11.328125 
Q 45.015625 15.765625 45.015625 23.390625 
Q 45.015625 31 40.078125 35.4375 
Q 35.15625 39.890625 26.703125 39.890625 
Q 22.75 39.890625 18.8125 39.015625 
Q 14.890625 38.140625 10.796875 36.28125 
z
" id="DejaVuSans-35"/>
      </defs>
      <g transform="translate(110.880455 291.410437)scale(0.1 -0.1)">
       <use xlink:href="#DejaVuSans-32"/>
       <use x="63.623047" xlink:href="#DejaVuSans-35"/>
      </g>
     </g>
    </g>
    <g id="xtick_3">
     <g id="line2d_3">
      <g>
       <use style="stroke:#000000;stroke-width:0.8;" x="159.515682" xlink:href="#m9c43f35a37" y="276.812"/>
      </g>
     </g>
     <g id="text_3">
      <!-- 50 -->
      <g transform="translate(153.153182 291.410437)scale(0.1 -0.1)">
       <use xlink:href="#DejaVuSans-35"/>
       <use x="63.623047" xlink:href="#DejaVuSans-30"/>
      </g>
     </g>
    </g>
    <g id="xtick_4">
     <g id="line2d_4">
      <g>
       <use style="stroke:#000000;stroke-width:0.8;" x="201.788409" xlink:href="#m9c43f35a37" y="276.812"/>
      </g>
     </g>
     <g id="text_4">
      <!-- 75 -->
      <defs>
       <path d="M 8.203125 72.90625 
L 55.078125 72.90625 
L 55.078125 68.703125 
L 28.609375 0 
L 18.3125 0 
L 43.21875 64.59375 
L 8.203125 64.59375 
z
" id="DejaVuSans-37"/>
      </defs>
      <g transform="translate(195.425909 291.410437)scale(0.1 -0.1)">
       <use xlink:href="#DejaVuSans-37"/>
       <use x="63.623047" xlink:href="#DejaVuSans-35"/>
      </g>
     </g>
    </g>
    <g id="xtick_5">
     <g id="line2d_5">
      <g>
       <use style="stroke:#000000;stroke-width:0.8;" x="244.061136" xlink:href="#m9c43f35a37" y="276.812"/>
      </g>
     </g>
     <g id="text_5">
      <!-- 100 -->
      <defs>
       <path d="M 12.40625 8.296875 
L 28.515625 8.296875 
L 28.515625 63.921875 
L 10.984375 60.40625 
L 10.984375 69.390625 
L 28.421875 72.90625 
L 38.28125 72.90625 
L 38.28125 8.296875 
L 54.390625 8.296875 
L 54.390625 0 
L 12.40625 0 
z
" id="DejaVuSans-31"/>
      </defs>
      <g transform="translate(234.517386 291.410437)scale(0.1 -0.1)">
       <use xlink:href="#DejaVuSans-31"/>
       <use x="63.623047" xlink:href="#DejaVuSans-30"/>
       <use x="127.246094" xlink:href="#DejaVuSans-30"/>
      </g>
     </g>
    </g>
    <g id="xtick_6">
     <g id="line2d_6">
      <g>
       <use style="stroke:#000000;stroke-width:0.8;" x="286.333864" xlink:href="#m9c43f35a37" y="276.812"/>
      </g>
     </g>
     <g id="text_6">
      <!-- 125 -->
      <g transform="translate(276.790114 291.410437)scale(0.1 -0.1)">
       <use xlink:href="#DejaVuSans-31"/>
       <use x="63.623047" xlink:href="#DejaVuSans-32"/>
       <use x="127.246094" xlink:href="#DejaVuSans-35"/>
      </g>
     </g>
    </g>
    <g id="xtick_7">
     <g id="line2d_7">
      <g>
       <use style="stroke:#000000;stroke-width:0.8;" x="328.606591" xlink:href="#m9c43f35a37" y="276.812"/>
      </g>
     </g>
     <g id="text_7">
      <!-- 150 -->
      <g transform="translate(319.062841 291.410437)scale(0.1 -0.1)">
       <use xlink:href="#DejaVuSans-31"/>
       <use x="63.623047" xlink:href="#DejaVuSans-35"/>
       <use x="127.246094" xlink:href="#DejaVuSans-30"/>
      </g>
     </g>
    </g>
    <g id="xtick_8">
     <g id="line2d_8">
      <g>
       <use style="stroke:#000000;stroke-width:0.8;" x="370.879318" xlink:href="#m9c43f35a37" y="276.812"/>
      </g>
     </g>
     <g id="text_8">
      <!-- 175 -->
      <g transform="translate(361.335568 291.410437)scale(0.1 -0.1)">
       <use xlink:href="#DejaVuSans-31"/>
       <use x="63.623047" xlink:href="#DejaVuSans-37"/>
       <use x="127.246094" xlink:href="#DejaVuSans-35"/>
      </g>
     </g>
    </g>
    <g id="xtick_9">
     <g id="line2d_9">
      <g>
       <use style="stroke:#000000;stroke-width:0.8;" x="413.152045" xlink:href="#m9c43f35a37" y="276.812"/>
      </g>
     </g>
     <g id="text_9">
      <!-- 200 -->
      <g transform="translate(403.608295 291.410437)scale(0.1 -0.1)">
       <use xlink:href="#DejaVuSans-32"/>
       <use x="63.623047" xlink:href="#DejaVuSans-30"/>
       <use x="127.246094" xlink:href="#DejaVuSans-30"/>
      </g>
     </g>
    </g>
   </g>
   <g id="matplotlib.axis_2">
    <g id="ytick_1">
     <g id="line2d_10">
      <defs>
       <path d="M 0 0 
L -3.5 0 
" id="mbd15f60a31" style="stroke:#000000;stroke-width:0.8;"/>
      </defs>
      <g>
       <use style="stroke:#000000;stroke-width:0.8;" x="58.7375" xlink:href="#mbd15f60a31" y="264.570681"/>
      </g>
     </g>
     <g id="text_10">
      <!-- 0 -->
      <g transform="translate(45.375 268.3699)scale(0.1 -0.1)">
       <use xlink:href="#DejaVuSans-30"/>
      </g>
     </g>
    </g>
    <g id="ytick_2">
     <g id="line2d_11">
      <g>
       <use style="stroke:#000000;stroke-width:0.8;" x="58.7375" xlink:href="#mbd15f60a31" y="229.092454"/>
      </g>
     </g>
     <g id="text_11">
      <!-- 500000 -->
      <g transform="translate(13.5625 232.891673)scale(0.1 -0.1)">
       <use xlink:href="#DejaVuSans-35"/>
       <use x="63.623047" xlink:href="#DejaVuSans-30"/>
       <use x="127.246094" xlink:href="#DejaVuSans-30"/>
       <use x="190.869141" xlink:href="#DejaVuSans-30"/>
       <use x="254.492188" xlink:href="#DejaVuSans-30"/>
       <use x="318.115234" xlink:href="#DejaVuSans-30"/>
      </g>
     </g>
    </g>
    <g id="ytick_3">
     <g id="line2d_12">
      <g>
       <use style="stroke:#000000;stroke-width:0.8;" x="58.7375" xlink:href="#mbd15f60a31" y="193.614227"/>
      </g>
     </g>
     <g id="text_12">
      <!-- 1000000 -->
      <g transform="translate(7.2 197.413446)scale(0.1 -0.1)">
       <use xlink:href="#DejaVuSans-31"/>
       <use x="63.623047" xlink:href="#DejaVuSans-30"/>
       <use x="127.246094" xlink:href="#DejaVuSans-30"/>
       <use x="190.869141" xlink:href="#DejaVuSans-30"/>
       <use x="254.492188" xlink:href="#DejaVuSans-30"/>
       <use x="318.115234" xlink:href="#DejaVuSans-30"/>
       <use x="381.738281" xlink:href="#DejaVuSans-30"/>
      </g>
     </g>
    </g>
    <g id="ytick_4">
     <g id="line2d_13">
      <g>
       <use style="stroke:#000000;stroke-width:0.8;" x="58.7375" xlink:href="#mbd15f60a31" y="158.136"/>
      </g>
     </g>
     <g id="text_13">
      <!-- 1500000 -->
      <g transform="translate(7.2 161.935218)scale(0.1 -0.1)">
       <use xlink:href="#DejaVuSans-31"/>
       <use x="63.623047" xlink:href="#DejaVuSans-35"/>
       <use x="127.246094" xlink:href="#DejaVuSans-30"/>
       <use x="190.869141" xlink:href="#DejaVuSans-30"/>
       <use x="254.492188" xlink:href="#DejaVuSans-30"/>
       <use x="318.115234" xlink:href="#DejaVuSans-30"/>
       <use x="381.738281" xlink:href="#DejaVuSans-30"/>
      </g>
     </g>
    </g>
    <g id="ytick_5">
     <g id="line2d_14">
      <g>
       <use style="stroke:#000000;stroke-width:0.8;" x="58.7375" xlink:href="#mbd15f60a31" y="122.657772"/>
      </g>
     </g>
     <g id="text_14">
      <!-- 2000000 -->
      <g transform="translate(7.2 126.456991)scale(0.1 -0.1)">
       <use xlink:href="#DejaVuSans-32"/>
       <use x="63.623047" xlink:href="#DejaVuSans-30"/>
       <use x="127.246094" xlink:href="#DejaVuSans-30"/>
       <use x="190.869141" xlink:href="#DejaVuSans-30"/>
       <use x="254.492188" xlink:href="#DejaVuSans-30"/>
       <use x="318.115234" xlink:href="#DejaVuSans-30"/>
       <use x="381.738281" xlink:href="#DejaVuSans-30"/>
      </g>
     </g>
    </g>
    <g id="ytick_6">
     <g id="line2d_15">
      <g>
       <use style="stroke:#000000;stroke-width:0.8;" x="58.7375" xlink:href="#mbd15f60a31" y="87.179545"/>
      </g>
     </g>
     <g id="text_15">
      <!-- 2500000 -->
      <g transform="translate(7.2 90.978764)scale(0.1 -0.1)">
       <use xlink:href="#DejaVuSans-32"/>
       <use x="63.623047" xlink:href="#DejaVuSans-35"/>
       <use x="127.246094" xlink:href="#DejaVuSans-30"/>
       <use x="190.869141" xlink:href="#DejaVuSans-30"/>
       <use x="254.492188" xlink:href="#DejaVuSans-30"/>
       <use x="318.115234" xlink:href="#DejaVuSans-30"/>
       <use x="381.738281" xlink:href="#DejaVuSans-30"/>
      </g>
     </g>
    </g>
    <g id="ytick_7">
     <g id="line2d_16">
      <g>
       <use style="stroke:#000000;stroke-width:0.8;" x="58.7375" xlink:href="#mbd15f60a31" y="51.701318"/>
      </g>
     </g>
     <g id="text_16">
      <!-- 3000000 -->
      <defs>
       <path d="M 40.578125 39.3125 
Q 47.65625 37.796875 51.625 33 
Q 55.609375 28.21875 55.609375 21.1875 
Q 55.609375 10.40625 48.1875 4.484375 
Q 40.765625 -1.421875 27.09375 -1.421875 
Q 22.515625 -1.421875 17.65625 -0.515625 
Q 12.796875 0.390625 7.625 2.203125 
L 7.625 11.71875 
Q 11.71875 9.328125 16.59375 8.109375 
Q 21.484375 6.890625 26.8125 6.890625 
Q 36.078125 6.890625 40.9375 10.546875 
Q 45.796875 14.203125 45.796875 21.1875 
Q 45.796875 27.640625 41.28125 31.265625 
Q 36.765625 34.90625 28.71875 34.90625 
L 20.21875 34.90625 
L 20.21875 43.015625 
L 29.109375 43.015625 
Q 36.375 43.015625 40.234375 45.921875 
Q 44.09375 48.828125 44.09375 54.296875 
Q 44.09375 59.90625 40.109375 62.90625 
Q 36.140625 65.921875 28.71875 65.921875 
Q 24.65625 65.921875 20.015625 65.03125 
Q 15.375 64.15625 9.8125 62.3125 
L 9.8125 71.09375 
Q 15.4375 72.65625 20.34375 73.4375 
Q 25.25 74.21875 29.59375 74.21875 
Q 40.828125 74.21875 47.359375 69.109375 
Q 53.90625 64.015625 53.90625 55.328125 
Q 53.90625 49.265625 50.4375 45.09375 
Q 46.96875 40.921875 40.578125 39.3125 
" id="DejaVuSans-33"/>
      </defs>
      <g transform="translate(7.2 55.500537)scale(0.1 -0.1)">
       <use xlink:href="#DejaVuSans-33"/>
       <use x="63.623047" xlink:href="#DejaVuSans-30"/>
       <use x="127.246094" xlink:href="#DejaVuSans-30"/>
       <use x="190.869141" xlink:href="#DejaVuSans-30"/>
       <use x="254.492188" xlink:href="#DejaVuSans-30"/>
       <use x="318.115234" xlink:href="#DejaVuSans-30"/>
       <use x="381.738281" xlink:href="#DejaVuSans-30"/>
      </g>
     </g>
    </g>
    <g id="ytick_8">
     <g id="line2d_17">
      <g>
       <use style="stroke:#000000;stroke-width:0.8;" x="58.7375" xlink:href="#mbd15f60a31" y="16.223091"/>
      </g>
     </g>
     <g id="text_17">
      <!-- 3500000 -->
      <g transform="translate(7.2 20.02231)scale(0.1 -0.1)">
       <use xlink:href="#DejaVuSans-33"/>
       <use x="63.623047" xlink:href="#DejaVuSans-35"/>
       <use x="127.246094" xlink:href="#DejaVuSans-30"/>
       <use x="190.869141" xlink:href="#DejaVuSans-30"/>
       <use x="254.492188" xlink:href="#DejaVuSans-30"/>
       <use x="318.115234" xlink:href="#DejaVuSans-30"/>
       <use x="381.738281" xlink:href="#DejaVuSans-30"/>
      </g>
     </g>
    </g>
   </g>
   <g id="line2d_18">
    <path clip-path="url(#pc70297b144)" d="M 74.970227 214.2021 
L 76.661136 134.692555 
L 78.352045 205.563578 
L 80.042955 178.692936 
L 81.733864 249.36521 
L 83.424773 214.703833 
L 85.115682 238.548892 
L 86.806591 174.264756 
L 88.4975 226.424775 
L 90.188409 216.1087 
L 91.879318 121.032657 
L 93.570227 208.309947 
L 95.261136 82.819484 
L 96.952045 213.520918 
L 98.642955 104.871757 
L 100.333864 189.707435 
L 102.024773 118.099175 
L 103.715682 224.381087 
L 105.406591 151.271601 
L 107.0975 232.182182 
L 108.788409 193.984336 
L 110.479318 160.717324 
L 112.170227 204.633835 
L 113.861136 204.856 
L 115.552045 248.711275 
L 117.242955 167.646151 
L 118.933864 214.295266 
L 120.624773 147.066296 
L 122.315682 225.320764 
L 124.006591 126.930699 
L 125.6975 249.423394 
L 127.388409 184.788947 
L 129.079318 243.193063 
L 130.770227 220.01244 
L 132.461136 144.249396 
L 134.152045 250.047314 
L 135.842955 237.244428 
L 137.533864 213.787714 
L 139.224773 177.225485 
L 140.915682 220.423633 
L 142.606591 256.988842 
L 144.2975 252.205384 
L 145.988409 226.568178 
L 147.679318 257.196319 
L 149.370227 183.87077 
L 151.061136 219.334806 
L 152.752045 182.215143 
L 154.442955 249.657621 
L 156.133864 167.965668 
L 157.824773 173.473805 
L 159.515682 194.753149 
L 161.206591 87.00109 
L 162.8975 193.797153 
L 164.588409 208.171085 
L 166.279318 181.463431 
L 167.970227 186.077516 
L 169.661136 109.360817 
L 171.352045 237.166802 
L 173.042955 213.654316 
L 174.733864 237.889493 
L 176.424773 211.310767 
L 178.115682 128.19713 
L 179.806591 101.185994 
L 181.4975 225.482119 
L 183.188409 145.104847 
L 184.879318 175.374444 
L 186.570227 175.120136 
L 188.261136 184.60375 
L 189.952045 213.500057 
L 191.642955 200.029613 
L 193.333864 238.919355 
L 195.024773 164.596088 
L 196.715682 145.249243 
L 198.406591 202.031791 
L 200.0975 172.189848 
L 201.788409 231.901052 
L 203.479318 250.978263 
L 205.170227 204.683859 
L 206.861136 235.557509 
L 208.552045 149.249342 
L 210.242955 158.135929 
L 211.933864 207.639196 
L 213.624773 151.059654 
L 215.315682 225.257541 
L 217.006591 110.851683 
L 218.6975 178.883099 
L 220.388409 209.281767 
L 222.079318 255.000429 
L 223.770227 157.191143 
L 225.461136 231.350217 
L 227.152045 235.671962 
L 228.842955 217.197882 
L 230.533864 247.75535 
L 232.224773 260.274268 
L 233.915682 114.022869 
L 235.606591 225.867412 
L 237.2975 242.852188 
L 238.988409 177.608721 
L 240.679318 200.455139 
L 242.370227 130.759155 
L 244.061136 163.683375 
L 245.752045 255.444617 
L 247.442955 72.56209 
L 249.133864 210.28502 
L 250.824773 255.524798 
L 252.515682 221.488831 
L 254.206591 244.791711 
L 255.8975 66.887702 
L 257.588409 234.670483 
L 259.279318 245.884015 
L 260.970227 237.98344 
L 262.661136 242.041439 
L 264.352045 250.213636 
L 266.042955 240.960276 
L 267.733864 149.296386 
L 269.424773 196.623987 
L 271.115682 167.665168 
L 272.806591 207.986457 
L 274.4975 234.616982 
L 276.188409 193.385889 
L 277.879318 264.570539 
L 279.570227 152.738555 
L 281.261136 210.276292 
L 282.952045 133.035863 
L 284.642955 264.570681 
L 286.333864 264.551736 
L 288.024773 256.365135 
L 289.715682 210.125084 
L 291.406591 257.863664 
L 293.0975 253.803749 
L 294.788409 145.58806 
L 296.479318 236.011063 
L 298.170227 157.188731 
L 299.861136 211.044751 
L 301.552045 228.027185 
L 303.242955 201.521969 
L 304.933864 185.123719 
L 306.624773 170.3205 
L 308.315682 254.148668 
L 310.006591 206.934953 
L 311.6975 211.587639 
L 313.388409 122.171153 
L 315.079318 139.38086 
L 316.770227 192.723085 
L 318.461136 183.817482 
L 320.152045 217.126499 
L 321.842955 240.967088 
L 323.533864 234.381832 
L 325.224773 217.244429 
L 326.915682 198.685626 
L 328.606591 233.15386 
L 330.2975 251.410246 
L 331.988409 206.125624 
L 333.679318 175.700702 
L 335.370227 221.39453 
L 337.061136 213.820354 
L 338.752045 56.621935 
L 340.442955 185.535054 
L 342.133864 226.133499 
L 343.824773 148.994254 
L 345.515682 197.072077 
L 347.206591 205.631057 
L 348.8975 97.236842 
L 350.588409 140.022094 
L 352.279318 132.483467 
L 353.970227 211.341845 
L 355.661136 173.5476 
L 357.352045 216.786192 
L 359.042955 203.716652 
L 360.733864 247.285689 
L 362.424773 250.240387 
L 364.115682 214.482591 
L 365.806591 22.796 
L 367.4975 165.492907 
L 369.188409 216.259199 
L 370.879318 154.193304 
L 372.570227 208.153914 
L 374.261136 245.032325 
L 375.952045 258.814623 
L 377.642955 249.478385 
L 379.333864 216.843241 
L 381.024773 213.276757 
L 382.715682 255.694171 
L 384.406591 150.132324 
L 386.0975 172.700025 
L 387.788409 254.510972 
L 389.479318 190.614685 
L 391.170227 216.459934 
L 392.861136 168.087146 
L 394.552045 220.674393 
L 396.242955 108.616625 
L 397.933864 215.671608 
L 399.624773 190.044833 
L 399.624773 190.044833 
" style="fill:none;stroke:#1f77b4;stroke-linecap:square;stroke-width:1.5;"/>
   </g>
   <g id="line2d_19">
    <path clip-path="url(#pc70297b144)" d="M 74.970227 239.442021 
L 76.661136 255.042081 
L 78.352045 187.465282 
L 80.042955 182.374299 
L 81.733864 261.572558 
L 83.424773 256.15262 
L 85.115682 262.875319 
L 86.806591 241.664306 
L 88.4975 258.985415 
L 90.188409 238.359935 
L 91.879318 247.395955 
L 93.570227 253.390569 
L 95.261136 258.158488 
L 96.952045 251.173677 
L 98.642955 223.518683 
L 100.333864 258.406552 
L 102.024773 251.622831 
L 103.715682 256.863746 
L 105.406591 248.158098 
L 107.0975 260.97028 
L 108.788409 263.107559 
L 110.479318 262.83984 
L 112.170227 262.976928 
L 113.861136 259.022809 
L 115.552045 262.045838 
L 117.242955 225.019057 
L 118.933864 260.52737 
L 120.624773 257.741761 
L 122.315682 264.001327 
L 124.006591 262.129708 
L 125.6975 264.049577 
L 127.388409 262.478814 
L 129.079318 264.227536 
L 130.770227 264.302466 
L 132.461136 255.533951 
L 134.152045 261.026619 
L 135.842955 261.186626 
L 137.533864 262.391396 
L 139.224773 258.711381 
L 140.915682 262.858786 
L 142.606591 258.685127 
L 144.2975 263.181709 
L 145.988409 263.139419 
L 147.679318 259.069143 
L 149.370227 263.27012 
L 151.061136 261.640889 
L 152.752045 251.442389 
L 154.442955 263.500729 
L 156.133864 260.271359 
L 157.824773 256.508609 
L 159.515682 261.387362 
L 161.206591 263.254013 
L 162.8975 249.813654 
L 164.588409 262.141345 
L 166.279318 260.819426 
L 167.970227 244.990106 
L 169.661136 243.038945 
L 171.352045 263.804635 
L 173.042955 262.350879 
L 174.733864 218.972573 
L 176.424773 262.730284 
L 178.115682 261.595619 
L 179.806591 238.791988 
L 181.4975 262.367483 
L 183.188409 243.084002 
L 184.879318 221.413263 
L 186.570227 261.177402 
L 188.261136 256.690328 
L 189.952045 257.1348 
L 191.642955 243.499665 
L 193.333864 263.033481 
L 195.024773 213.252845 
L 196.715682 254.558655 
L 198.406591 252.984131 
L 200.0975 248.863831 
L 201.788409 249.111398 
L 203.479318 264.147071 
L 205.170227 262.887807 
L 206.861136 263.446589 
L 210.242955 255.781589 
L 211.933864 256.842033 
L 213.624773 259.030046 
L 215.315682 253.770754 
L 217.006591 246.828233 
L 218.6975 254.286749 
L 220.388409 260.113551 
L 222.079318 259.596208 
L 223.770227 254.617832 
L 225.461136 258.205461 
L 227.152045 247.791608 
L 228.842955 259.443368 
L 230.533864 252.988104 
L 232.224773 261.775777 
L 233.915682 238.60516 
L 235.606591 243.95847 
L 237.2975 259.132862 
L 238.988409 195.443555 
L 240.679318 260.052955 
L 242.370227 256.574173 
L 244.061136 253.779695 
L 245.752045 262.794144 
L 247.442955 262.105299 
L 249.133864 230.092301 
L 250.824773 260.062179 
L 252.515682 198.69925 
L 254.206591 263.644699 
L 255.8975 160.790906 
L 257.588409 242.272403 
L 259.279318 252.222839 
L 260.970227 242.483995 
L 262.661136 254.831056 
L 264.352045 262.301139 
L 266.042955 248.363872 
L 267.733864 209.322425 
L 269.424773 252.465297 
L 271.115682 256.133817 
L 272.806591 256.968903 
L 274.4975 262.118639 
L 277.879318 264.570468 
L 279.570227 252.429677 
L 281.261136 262.422262 
L 282.952045 262.46519 
L 284.642955 264.57061 
L 286.333864 264.56834 
L 288.024773 263.827412 
L 289.715682 240.898473 
L 291.406591 261.443417 
L 293.0975 255.250196 
L 294.788409 247.369347 
L 296.479318 261.731572 
L 298.170227 115.839709 
L 299.861136 257.369027 
L 301.552045 254.495219 
L 303.242955 246.635586 
L 304.933864 245.502411 
L 306.624773 258.776519 
L 308.315682 261.6929 
L 310.006591 256.490657 
L 311.6975 249.814506 
L 313.388409 236.156453 
L 315.079318 245.748133 
L 316.770227 247.061112 
L 318.461136 167.945233 
L 320.152045 257.607795 
L 321.842955 259.853354 
L 323.533864 264.251945 
L 325.224773 262.510248 
L 326.915682 236.065629 
L 328.606591 252.126054 
L 330.2975 262.40062 
L 331.988409 204.155447 
L 333.679318 254.24524 
L 335.370227 244.548686 
L 337.061136 258.779996 
L 340.442955 176.154043 
L 342.133864 258.749414 
L 343.824773 250.156587 
L 345.515682 248.440647 
L 347.206591 243.534931 
L 348.8975 211.172189 
L 350.588409 251.443595 
L 352.279318 91.021553 
L 353.970227 263.516836 
L 355.661136 172.456502 
L 357.352045 121.560005 
L 359.042955 251.924325 
L 360.733864 254.530272 
L 362.424773 250.456804 
L 364.115682 232.006139 
L 365.806591 259.13343 
L 367.4975 256.674647 
L 369.188409 255.044139 
L 370.879318 253.017196 
L 372.570227 263.626747 
L 374.261136 253.344944 
L 375.952045 264.130964 
L 377.642955 261.797774 
L 379.333864 263.61433 
L 381.024773 261.865395 
L 382.715682 241.91017 
L 384.406591 254.614923 
L 386.0975 257.717281 
L 387.788409 257.404647 
L 389.479318 258.003519 
L 391.170227 254.548366 
L 392.861136 260.348204 
L 394.552045 253.092907 
L 396.242955 259.758131 
L 397.933864 258.817745 
L 399.624773 256.849767 
L 399.624773 256.849767 
" style="fill:none;stroke:#ff7f0e;stroke-linecap:square;stroke-width:1.5;"/>
   </g>
   <g id="line2d_20">
    <path clip-path="url(#pc70297b144)" d="M 74.970227 254.960552 
L 76.661136 259.663829 
L 78.352045 228.415387 
L 80.042955 210.674429 
L 81.733864 263.765113 
L 83.424773 262.805568 
L 85.115682 264.379524 
L 86.806591 257.726576 
L 88.4975 261.907827 
L 90.188409 262.27751 
L 91.879318 263.388972 
L 93.570227 261.217634 
L 96.952045 263.241028 
L 98.642955 258.09037 
L 100.333864 262.86056 
L 102.024773 263.209665 
L 103.715682 262.207689 
L 105.406591 262.176681 
L 107.0975 263.474546 
L 108.788409 263.406712 
L 110.479318 264.054473 
L 112.170227 263.691956 
L 113.861136 262.648116 
L 115.552045 263.96819 
L 117.242955 253.627493 
L 118.933864 263.998559 
L 120.624773 262.765123 
L 122.315682 264.192341 
L 124.006591 262.2211 
L 125.6975 264.467581 
L 127.388409 262.268783 
L 129.079318 264.297712 
L 130.770227 264.472123 
L 132.461136 261.198476 
L 134.152045 263.219174 
L 135.842955 263.955418 
L 137.533864 263.628309 
L 139.224773 261.953949 
L 140.915682 264.070935 
L 142.606591 261.40432 
L 144.2975 264.354406 
L 145.988409 264.240876 
L 147.679318 263.710192 
L 149.370227 263.304818 
L 151.061136 263.994018 
L 152.752045 261.323927 
L 154.442955 263.184263 
L 156.133864 262.353647 
L 157.824773 263.95783 
L 159.515682 263.40068 
L 161.206591 263.790515 
L 162.8975 263.388121 
L 164.588409 263.968758 
L 166.279318 263.052781 
L 167.970227 263.432185 
L 169.661136 236.017307 
L 171.352045 263.819891 
L 173.042955 263.036319 
L 174.733864 227.447541 
L 176.424773 262.903843 
L 178.115682 261.680341 
L 179.806591 263.38805 
L 181.4975 263.145095 
L 183.188409 256.018442 
L 184.879318 240.676592 
L 186.570227 264.513703 
L 188.261136 263.289704 
L 189.952045 264.084771 
L 191.642955 259.800492 
L 193.333864 264.436361 
L 195.024773 230.766317 
L 196.715682 255.783079 
L 198.406591 258.969946 
L 200.0975 257.940865 
L 201.788409 263.285092 
L 203.479318 264.496886 
L 205.170227 262.659824 
L 206.861136 264.278128 
L 208.552045 264.085126 
L 210.242955 263.575517 
L 211.933864 262.820824 
L 213.624773 263.735524 
L 215.315682 259.858321 
L 217.006591 251.068307 
L 218.6975 256.786829 
L 220.388409 263.414517 
L 222.079318 260.94282 
L 223.770227 260.301799 
L 225.461136 262.000213 
L 227.152045 258.508162 
L 228.842955 261.775848 
L 230.533864 261.02371 
L 232.224773 263.989051 
L 233.915682 232.901325 
L 235.606591 259.996473 
L 237.2975 263.962726 
L 238.988409 255.982183 
L 240.679318 263.936614 
L 242.370227 261.116308 
L 244.061136 255.074082 
L 245.752045 264.197237 
L 247.442955 254.597184 
L 249.133864 230.983089 
L 250.824773 264.377467 
L 252.515682 251.942348 
L 254.206591 264.340357 
L 255.8975 243.079745 
L 257.588409 256.841678 
L 259.279318 263.242802 
L 260.970227 257.996566 
L 262.661136 263.094858 
L 264.352045 263.95705 
L 266.042955 262.316607 
L 267.733864 260.269727 
L 269.424773 257.825703 
L 271.115682 259.234756 
L 272.806591 260.150733 
L 274.4975 263.165318 
L 276.188409 264.321624 
L 277.879318 264.57061 
L 279.570227 259.999312 
L 281.261136 262.364219 
L 282.952045 263.635191 
L 284.642955 264.570681 
L 286.333864 264.569333 
L 288.024773 263.767383 
L 289.715682 262.593551 
L 291.406591 259.169831 
L 293.0975 258.320695 
L 294.788409 257.803138 
L 296.479318 264.294377 
L 298.170227 244.031484 
L 299.861136 257.957043 
L 301.552045 259.844343 
L 303.242955 258.522921 
L 304.933864 256.583397 
L 306.624773 263.682448 
L 308.315682 262.17214 
L 310.006591 261.545311 
L 311.6975 255.218195 
L 313.388409 247.51949 
L 315.079318 257.028081 
L 316.770227 255.745259 
L 318.461136 247.616346 
L 320.152045 261.062452 
L 321.842955 264.208165 
L 323.533864 262.259842 
L 325.224773 261.610733 
L 326.915682 258.03474 
L 328.606591 263.113094 
L 330.2975 262.650316 
L 331.988409 253.97745 
L 333.679318 260.437681 
L 335.370227 257.658103 
L 337.061136 258.942628 
L 338.752045 250.301551 
L 340.442955 210.533864 
L 342.133864 259.808581 
L 343.824773 255.545943 
L 345.515682 256.554092 
L 347.206591 262.463913 
L 348.8975 253.308686 
L 350.588409 253.187137 
L 352.279318 256.170501 
L 353.970227 261.687579 
L 355.661136 190.964287 
L 357.352045 229.123249 
L 360.733864 262.36798 
L 362.424773 263.359313 
L 364.115682 257.703516 
L 365.806591 262.070601 
L 367.4975 259.212901 
L 369.188409 263.919443 
L 372.570227 264.372358 
L 374.261136 261.038398 
L 375.952045 264.370229 
L 377.642955 263.081447 
L 379.333864 264.451191 
L 381.024773 264.166655 
L 382.715682 260.715617 
L 384.406591 262.907604 
L 386.0975 260.11717 
L 387.788409 262.822314 
L 389.479318 263.598436 
L 391.170227 263.409905 
L 392.861136 263.603758 
L 394.552045 261.588169 
L 396.242955 263.346186 
L 397.933864 263.166382 
L 399.624773 262.387777 
L 399.624773 262.387777 
" style="fill:none;stroke:#2ca02c;stroke-linecap:square;stroke-width:1.5;"/>
   </g>
   <g id="line2d_21">
    <path clip-path="url(#pc70297b144)" d="M 74.970227 258.000894 
L 76.661136 261.930108 
L 78.352045 206.783958 
L 80.042955 240.968223 
L 81.733864 261.232251 
L 83.424773 258.612042 
L 85.115682 263.253162 
L 86.806591 255.405236 
L 88.4975 261.948556 
L 90.188409 254.978078 
L 91.879318 261.69659 
L 93.570227 261.705389 
L 95.261136 261.861067 
L 96.952045 261.779893 
L 98.642955 235.643296 
L 100.333864 263.821239 
L 102.024773 262.433615 
L 103.715682 260.783593 
L 105.406591 263.831457 
L 107.0975 262.67735 
L 108.788409 263.976279 
L 110.479318 263.168582 
L 112.170227 264.106342 
L 113.861136 261.962748 
L 115.552045 264.080656 
L 117.242955 256.941443 
L 118.933864 263.046253 
L 120.624773 263.125724 
L 122.315682 264.456512 
L 124.006591 262.952874 
L 125.6975 264.498802 
L 127.388409 263.339587 
L 129.079318 264.15963 
L 130.770227 264.351213 
L 132.461136 263.493207 
L 134.152045 263.255361 
L 135.842955 263.66776 
L 137.533864 263.797894 
L 139.224773 262.307525 
L 140.915682 264.24414 
L 142.606591 263.19001 
L 144.2975 263.591127 
L 145.988409 264.223917 
L 147.679318 262.575031 
L 149.370227 263.711682 
L 151.061136 264.198444 
L 152.752045 262.670751 
L 154.442955 263.667051 
L 156.133864 264.238747 
L 157.824773 259.626294 
L 161.206591 262.943082 
L 162.8975 261.392896 
L 164.588409 263.68181 
L 166.279318 264.035528 
L 167.970227 263.339445 
L 169.661136 257.794553 
L 171.352045 264.306297 
L 173.042955 262.768884 
L 174.733864 248.126878 
L 176.424773 263.052426 
L 178.115682 262.717724 
L 179.806591 259.247244 
L 181.4975 264.015447 
L 183.188409 257.117628 
L 184.879318 250.99806 
L 186.570227 263.401248 
L 188.261136 263.909154 
L 189.952045 263.026101 
L 191.642955 248.724615 
L 193.333864 264.234844 
L 195.024773 258.479779 
L 196.715682 257.029642 
L 198.406591 252.650281 
L 200.0975 255.114173 
L 201.788409 264.201566 
L 203.479318 264.485959 
L 205.170227 263.161983 
L 206.861136 264.483192 
L 208.552045 263.92888 
L 210.242955 263.187598 
L 211.933864 263.404654 
L 213.624773 264.041914 
L 215.315682 262.932226 
L 217.006591 255.354431 
L 218.6975 254.344792 
L 220.388409 262.622004 
L 222.079318 262.598659 
L 223.770227 260.829289 
L 225.461136 259.44649 
L 227.152045 260.872431 
L 228.842955 262.754267 
L 230.533864 258.69868 
L 232.224773 263.062005 
L 233.915682 248.995952 
L 235.606591 262.78123 
L 237.2975 261.793446 
L 238.988409 252.499427 
L 240.679318 262.701617 
L 242.370227 259.800066 
L 244.061136 260.878036 
L 245.752045 264.110245 
L 247.442955 254.323647 
L 249.133864 242.734542 
L 250.824773 263.921146 
L 252.515682 241.91244 
L 254.206591 263.994373 
L 255.8975 239.296063 
L 257.588409 262.067054 
L 259.279318 262.075001 
L 260.970227 263.469366 
L 262.661136 262.978489 
L 264.352045 264.138627 
L 266.042955 262.2426 
L 267.733864 260.554546 
L 269.424773 260.859801 
L 271.115682 260.602867 
L 272.806591 261.781028 
L 274.4975 264.08172 
L 276.188409 264.20859 
L 277.879318 264.57061 
L 279.570227 259.759195 
L 281.261136 262.611857 
L 282.952045 264.153173 
L 284.642955 264.570681 
L 286.333864 264.570397 
L 288.024773 264.38882 
L 289.715682 256.239329 
L 291.406591 264.107194 
L 293.0975 263.631856 
L 294.788409 262.971677 
L 296.479318 263.291123 
L 298.170227 236.707146 
L 299.861136 253.734495 
L 301.552045 263.412246 
L 303.242955 257.721893 
L 304.933864 259.951345 
L 306.624773 262.941876 
L 308.315682 262.636124 
L 310.006591 257.254361 
L 311.6975 259.894367 
L 313.388409 256.740495 
L 315.079318 260.252697 
L 316.770227 260.070268 
L 318.461136 235.392039 
L 320.152045 256.299216 
L 321.842955 262.971536 
L 323.533864 263.06314 
L 325.224773 264.246978 
L 326.915682 262.01334 
L 328.606591 259.314085 
L 330.2975 263.471708 
L 331.988409 260.836243 
L 333.679318 257.051 
L 335.370227 259.81745 
L 337.061136 252.18431 
L 338.752045 253.785655 
L 340.442955 253.894431 
L 342.133864 263.750637 
L 343.824773 248.949192 
L 345.515682 262.974871 
L 347.206591 264.075973 
L 348.8975 263.242305 
L 350.588409 258.757503 
L 352.279318 206.109375 
L 353.970227 262.243168 
L 355.661136 254.337625 
L 357.352045 234.744348 
L 359.042955 254.996598 
L 360.733864 261.415177 
L 362.424773 259.491192 
L 364.115682 258.464169 
L 365.806591 261.712413 
L 367.4975 256.673937 
L 369.188409 263.911212 
L 370.879318 263.719913 
L 372.570227 264.5357 
L 374.261136 262.776051 
L 375.952045 264.23229 
L 377.642955 263.628592 
L 379.333864 264.061001 
L 381.024773 263.299142 
L 382.715682 259.593512 
L 384.406591 261.064439 
L 386.0975 263.243937 
L 387.788409 263.787038 
L 389.479318 263.791366 
L 391.170227 263.599145 
L 392.861136 262.587519 
L 394.552045 262.391396 
L 396.242955 263.932783 
L 397.933864 263.906813 
L 399.624773 262.479807 
L 399.624773 262.479807 
" style="fill:none;stroke:#d62728;stroke-linecap:square;stroke-width:1.5;"/>
   </g>
   <g id="line2d_22">
    <path clip-path="url(#pc70297b144)" d="M 74.970227 255.889443 
L 76.661136 262.936625 
L 78.352045 216.311919 
L 80.042955 178.972362 
L 81.733864 262.446032 
L 83.424773 258.561805 
L 85.115682 264.029283 
L 86.806591 258.439476 
L 88.4975 262.63726 
L 90.188409 259.330334 
L 91.879318 262.854883 
L 93.570227 260.974537 
L 95.261136 263.965919 
L 96.952045 261.743066 
L 98.642955 249.018091 
L 100.333864 263.124802 
L 102.024773 261.769249 
L 103.715682 263.660097 
L 105.406591 261.766482 
L 107.0975 263.70927 
L 108.788409 263.729705 
L 110.479318 263.597655 
L 112.170227 263.00744 
L 113.861136 262.759872 
L 115.552045 263.696569 
L 117.242955 261.011505 
L 118.933864 263.213213 
L 120.624773 262.776334 
L 122.315682 264.462331 
L 124.006591 263.049659 
L 125.6975 264.465878 
L 127.388409 262.012275 
L 129.079318 264.44821 
L 130.770227 264.491352 
L 132.461136 263.166595 
L 134.152045 264.167507 
L 135.842955 263.847706 
L 137.533864 264.228174 
L 139.224773 262.660108 
L 140.915682 264.439341 
L 142.606591 264.028219 
L 144.2975 264.080656 
L 145.988409 264.319992 
L 147.679318 264.185175 
L 149.370227 262.86503 
L 151.061136 264.136995 
L 152.752045 261.154837 
L 154.442955 264.180279 
L 156.133864 264.01417 
L 157.824773 261.796355 
L 159.515682 262.859779 
L 161.206591 262.70183 
L 162.8975 263.425018 
L 164.588409 263.655769 
L 166.279318 263.758939 
L 167.970227 263.253162 
L 169.661136 261.74335 
L 171.352045 264.268832 
L 173.042955 263.821807 
L 174.733864 250.406638 
L 176.424773 264.417131 
L 178.115682 264.145155 
L 179.806591 257.674778 
L 181.4975 263.93108 
L 183.188409 262.629525 
L 184.879318 242.978845 
L 186.570227 262.258352 
L 188.261136 263.296161 
L 189.952045 262.341513 
L 191.642955 262.335198 
L 193.333864 263.561468 
L 195.024773 255.265594 
L 196.715682 256.889858 
L 198.406591 254.637274 
L 200.0975 260.7826 
L 201.788409 263.58318 
L 203.479318 264.511716 
L 205.170227 262.404593 
L 206.861136 264.243572 
L 208.552045 264.153102 
L 210.242955 263.650305 
L 211.933864 263.322486 
L 213.624773 264.173609 
L 215.315682 263.541316 
L 217.006591 245.696974 
L 218.6975 248.975801 
L 220.388409 263.481642 
L 222.079318 263.753618 
L 223.770227 254.594842 
L 225.461136 261.020375 
L 227.152045 258.151393 
L 228.842955 263.729492 
L 230.533864 262.221171 
L 232.224773 263.915256 
L 233.915682 243.637463 
L 235.606591 260.665806 
L 237.2975 262.927897 
L 238.988409 246.490338 
L 240.679318 263.859627 
L 242.370227 259.295565 
L 244.061136 259.584003 
L 245.752045 264.176589 
L 247.442955 258.497731 
L 249.133864 253.722504 
L 250.824773 261.53339 
L 252.515682 239.05176 
L 254.206591 264.432884 
L 255.8975 198.387255 
L 257.588409 262.49407 
L 259.279318 262.435247 
L 260.970227 262.003051 
L 262.661136 263.475823 
L 264.352045 264.106484 
L 266.042955 262.331721 
L 267.733864 247.174145 
L 269.424773 254.187268 
L 271.115682 261.873981 
L 272.806591 263.017799 
L 274.4975 263.401461 
L 276.188409 264.11656 
L 277.879318 264.570681 
L 279.570227 262.066841 
L 281.261136 262.99857 
L 282.952045 264.395206 
L 284.642955 264.570681 
L 288.024773 264.497596 
L 289.715682 262.325832 
L 291.406591 264.086616 
L 293.0975 263.937182 
L 294.788409 263.374639 
L 296.479318 264.368313 
L 298.170227 249.282829 
L 299.861136 263.704161 
L 301.552045 264.044965 
L 303.242955 263.493066 
L 304.933864 262.306461 
L 306.624773 264.476025 
L 308.315682 264.170983 
L 310.006591 263.322912 
L 311.6975 263.311559 
L 313.388409 263.974718 
L 315.079318 263.971667 
L 316.770227 261.399566 
L 318.461136 252.851584 
L 320.152045 262.840621 
L 321.842955 264.498589 
L 323.533864 264.001894 
L 325.224773 263.976066 
L 328.606591 263.505128 
L 330.2975 264.076895 
L 331.988409 262.973026 
L 333.679318 263.208672 
L 335.370227 262.594757 
L 337.061136 262.836576 
L 338.752045 260.442364 
L 340.442955 246.591025 
L 342.133864 263.703168 
L 343.824773 263.360448 
L 345.515682 261.378563 
L 347.206591 258.899699 
L 348.8975 263.473836 
L 350.588409 262.61654 
L 352.279318 253.440239 
L 353.970227 264.317083 
L 355.661136 262.505423 
L 357.352045 250.348453 
L 359.042955 263.051362 
L 360.733864 263.700826 
L 362.424773 262.044348 
L 364.115682 251.684918 
L 365.806591 258.542221 
L 367.4975 256.987423 
L 369.188409 263.120544 
L 370.879318 263.443609 
L 372.570227 264.380234 
L 374.261136 260.720584 
L 375.952045 264.270039 
L 377.642955 263.924836 
L 379.333864 264.135789 
L 381.024773 262.714035 
L 382.715682 263.279132 
L 384.406591 262.733548 
L 386.0975 260.367647 
L 387.788409 264.376048 
L 389.479318 262.549983 
L 391.170227 262.93478 
L 392.861136 258.572519 
L 394.552045 263.023476 
L 396.242955 262.64769 
L 397.933864 263.704303 
L 399.624773 262.55793 
L 399.624773 262.55793 
" style="fill:none;stroke:#9467bd;stroke-linecap:square;stroke-width:1.5;"/>
   </g>
   <g id="line2d_23">
    <path clip-path="url(#pc70297b144)" d="M 74.970227 257.987128 
L 76.661136 262.813019 
L 78.352045 215.716098 
L 80.042955 233.397737 
L 81.733864 262.684659 
L 83.424773 262.58681 
L 85.115682 264.161191 
L 86.806591 249.735531 
L 88.4975 262.009863 
L 90.188409 258.658944 
L 91.879318 262.296456 
L 93.570227 261.774145 
L 95.261136 262.947907 
L 96.952045 259.550299 
L 98.642955 258.596715 
L 100.333864 262.813941 
L 102.024773 262.798757 
L 103.715682 263.909793 
L 105.406591 260.521125 
L 107.0975 263.386915 
L 108.788409 263.715798 
L 110.479318 263.875734 
L 112.170227 263.057961 
L 113.861136 261.928901 
L 115.552045 264.07207 
L 117.242955 261.921948 
L 118.933864 261.88576 
L 122.315682 264.457719 
L 124.006591 263.182844 
L 125.6975 264.407552 
L 127.388409 262.963943 
L 129.079318 264.495254 
L 130.770227 264.485108 
L 132.461136 263.250182 
L 134.152045 262.722478 
L 135.842955 264.152961 
L 137.533864 263.758514 
L 139.224773 263.532446 
L 140.915682 264.482695 
L 144.2975 264.073986 
L 145.988409 264.393645 
L 147.679318 264.138911 
L 149.370227 262.285883 
L 151.061136 263.832024 
L 152.752045 263.568847 
L 154.442955 264.093286 
L 156.133864 264.286501 
L 157.824773 261.755555 
L 159.515682 263.10316 
L 161.206591 263.550682 
L 162.8975 263.16922 
L 164.588409 264.145439 
L 166.279318 263.112739 
L 167.970227 264.171977 
L 169.661136 260.204943 
L 171.352045 264.251093 
L 174.733864 262.365071 
L 176.424773 263.999695 
L 179.806591 258.667885 
L 181.4975 263.64399 
L 183.188409 256.647825 
L 184.879318 227.144415 
L 186.570227 263.75901 
L 188.261136 263.681739 
L 189.952045 263.172768 
L 191.642955 258.961148 
L 193.333864 264.297073 
L 195.024773 253.655876 
L 196.715682 259.905933 
L 198.406591 251.121737 
L 201.788409 261.753071 
L 203.479318 264.528178 
L 205.170227 261.141427 
L 206.861136 264.132099 
L 208.552045 263.93186 
L 210.242955 262.677279 
L 211.933864 262.897883 
L 215.315682 262.738302 
L 217.006591 237.61844 
L 218.6975 259.038277 
L 220.388409 260.221263 
L 222.079318 263.834153 
L 223.770227 252.851797 
L 227.152045 261.092112 
L 228.842955 262.188531 
L 230.533864 263.467166 
L 232.224773 264.388678 
L 233.915682 254.827083 
L 235.606591 262.394943 
L 237.2975 263.245853 
L 238.988409 249.396289 
L 240.679318 263.980678 
L 242.370227 260.413343 
L 244.061136 259.06815 
L 245.752045 264.264291 
L 247.442955 261.136885 
L 249.133864 247.021234 
L 250.824773 262.005109 
L 252.515682 242.841331 
L 254.206591 264.250313 
L 255.8975 222.525647 
L 257.588409 263.785548 
L 259.279318 262.985017 
L 260.970227 262.801524 
L 262.661136 262.230679 
L 264.352045 264.140188 
L 266.042955 260.168968 
L 267.733864 238.402154 
L 269.424773 259.76771 
L 271.115682 259.429318 
L 272.806591 261.31747 
L 274.4975 263.65435 
L 276.188409 264.200643 
L 277.879318 264.570681 
L 279.570227 262.555731 
L 281.261136 262.463416 
L 282.952045 264.467156 
L 286.333864 264.570184 
L 288.024773 264.37399 
L 289.715682 259.545971 
L 291.406591 263.058457 
L 293.0975 264.039075 
L 294.788409 257.584309 
L 296.479318 263.975215 
L 298.170227 254.682899 
L 299.861136 259.524755 
L 301.552045 263.820813 
L 303.242955 261.980416 
L 304.933864 256.185757 
L 306.624773 263.942433 
L 308.315682 263.205195 
L 310.006591 260.173226 
L 311.6975 258.393567 
L 313.388409 260.851853 
L 315.079318 260.620393 
L 316.770227 259.271298 
L 318.461136 228.504438 
L 320.152045 262.183209 
L 321.842955 263.554017 
L 323.533864 263.269766 
L 325.224773 262.782791 
L 326.915682 261.070896 
L 328.606591 261.135112 
L 330.2975 262.99488 
L 331.988409 261.408649 
L 333.679318 261.205288 
L 335.370227 262.327322 
L 337.061136 261.718799 
L 338.752045 245.736071 
L 340.442955 257.044046 
L 342.133864 263.685287 
L 343.824773 261.006397 
L 345.515682 261.909885 
L 347.206591 260.403692 
L 348.8975 260.637423 
L 350.588409 260.399435 
L 352.279318 207.265326 
L 353.970227 262.099481 
L 355.661136 229.850766 
L 357.352045 251.317009 
L 359.042955 260.734633 
L 360.733864 261.970695 
L 362.424773 262.847149 
L 364.115682 245.264494 
L 365.806591 257.526266 
L 367.4975 246.410583 
L 369.188409 262.914628 
L 370.879318 262.885607 
L 372.570227 264.488797 
L 374.261136 261.352451 
L 375.952045 264.383498 
L 377.642955 263.54536 
L 379.333864 263.862252 
L 381.024773 262.973877 
L 382.715682 256.539901 
L 384.406591 260.728531 
L 386.0975 261.81012 
L 387.788409 264.197024 
L 389.479318 261.307607 
L 391.170227 262.146809 
L 392.861136 259.013514 
L 394.552045 263.085917 
L 396.242955 262.535437 
L 397.933864 263.60837 
L 399.624773 263.171846 
L 399.624773 263.171846 
" style="fill:none;stroke:#8c564b;stroke-linecap:square;stroke-width:1.5;"/>
   </g>
   <g id="line2d_24">
    <path clip-path="url(#pc70297b144)" d="M 74.970227 261.231541 
L 76.661136 263.983304 
L 78.352045 256.647329 
L 80.042955 253.324083 
L 81.733864 264.034463 
L 85.115682 264.386265 
L 86.806591 254.803029 
L 88.4975 262.958692 
L 90.188409 262.671106 
L 91.879318 263.555436 
L 93.570227 263.791863 
L 95.261136 263.726796 
L 98.642955 262.360175 
L 100.333864 263.214065 
L 102.024773 263.445738 
L 103.715682 264.370797 
L 105.406591 263.722326 
L 107.0975 264.390807 
L 113.861136 264.149555 
L 115.552045 264.52385 
L 117.242955 263.551817 
L 120.624773 264.384633 
L 122.315682 264.470987 
L 124.006591 264.318928 
L 125.6975 264.516541 
L 127.388409 264.242153 
L 129.079318 264.541092 
L 130.770227 264.545775 
L 132.461136 263.895105 
L 134.152045 264.26862 
L 135.842955 264.50533 
L 137.533864 263.872895 
L 139.224773 263.627599 
L 140.915682 264.537757 
L 151.061136 264.187162 
L 152.752045 264.06313 
L 156.133864 264.436219 
L 157.824773 263.956766 
L 159.515682 264.268123 
L 162.8975 264.202346 
L 164.588409 264.400528 
L 166.279318 264.121101 
L 167.970227 264.276638 
L 169.661136 262.50081 
L 171.352045 264.366185 
L 173.042955 264.257621 
L 174.733864 260.233539 
L 176.424773 264.435296 
L 178.115682 263.112384 
L 179.806591 260.958714 
L 181.4975 263.926397 
L 183.188409 260.568808 
L 184.879318 250.323406 
L 186.570227 264.303743 
L 189.952045 264.197592 
L 191.642955 262.022777 
L 193.333864 264.4111 
L 195.024773 262.755331 
L 196.715682 259.507512 
L 198.406591 260.527937 
L 200.0975 258.2855 
L 201.788409 263.743613 
L 203.479318 264.516399 
L 205.170227 263.138212 
L 206.861136 264.493622 
L 208.552045 264.338157 
L 210.242955 262.639814 
L 211.933864 264.150761 
L 213.624773 264.161901 
L 215.315682 264.294022 
L 217.006591 261.087571 
L 218.6975 261.090125 
L 220.388409 262.487045 
L 222.079318 264.285862 
L 223.770227 258.102858 
L 225.461136 258.748917 
L 227.152045 262.611006 
L 228.842955 263.670811 
L 230.533864 264.491636 
L 232.224773 264.421105 
L 233.915682 254.498909 
L 235.606591 263.402383 
L 237.2975 264.21746 
L 238.988409 257.144946 
L 240.679318 264.314245 
L 244.061136 261.999787 
L 245.752045 264.378247 
L 247.442955 263.570905 
L 249.133864 253.084179 
L 250.824773 263.426366 
L 252.515682 259.249515 
L 254.206591 264.47489 
L 255.8975 225.868831 
L 257.588409 264.112019 
L 259.279318 263.763268 
L 260.970227 263.71672 
L 264.352045 264.45559 
L 266.042955 261.129364 
L 267.733864 258.157211 
L 269.424773 263.588289 
L 271.115682 262.703817 
L 272.806591 262.994242 
L 274.4975 264.288984 
L 276.188409 264.526972 
L 277.879318 264.570681 
L 281.261136 263.871973 
L 282.952045 264.528675 
L 286.333864 264.570184 
L 288.024773 264.508098 
L 289.715682 264.044113 
L 291.406591 264.290758 
L 293.0975 264.379454 
L 294.788409 264.186594 
L 296.479318 264.415854 
L 298.170227 261.780319 
L 299.861136 264.218311 
L 301.552045 264.454596 
L 303.242955 263.369743 
L 304.933864 264.144801 
L 306.624773 264.33397 
L 308.315682 264.374061 
L 311.6975 263.061508 
L 313.388409 264.027722 
L 315.079318 264.217176 
L 316.770227 263.84948 
L 318.461136 262.567651 
L 320.152045 264.123797 
L 321.842955 264.438205 
L 323.533864 264.474535 
L 325.224773 264.341847 
L 328.606591 263.591269 
L 330.2975 264.156792 
L 331.988409 263.957759 
L 333.679318 263.494201 
L 337.061136 263.33093 
L 338.752045 262.258068 
L 340.442955 262.5045 
L 342.133864 264.39478 
L 343.824773 263.769725 
L 345.515682 264.220582 
L 348.8975 263.256213 
L 350.588409 263.449995 
L 352.279318 245.478357 
L 353.970227 264.407268 
L 355.661136 259.891458 
L 357.352045 260.473585 
L 359.042955 263.65662 
L 360.733864 264.213486 
L 362.424773 263.372723 
L 365.806591 262.778321 
L 367.4975 250.95804 
L 369.188409 264.050712 
L 370.879318 264.068097 
L 372.570227 264.547053 
L 374.261136 263.509953 
L 375.952045 264.539035 
L 377.642955 264.206533 
L 379.333864 264.398541 
L 381.024773 264.309065 
L 382.715682 264.018072 
L 384.406591 263.350656 
L 386.0975 263.638952 
L 387.788409 264.198515 
L 389.479318 264.114573 
L 391.170227 263.775614 
L 392.861136 264.297641 
L 396.242955 263.991818 
L 397.933864 264.432955 
L 399.624773 264.29317 
L 399.624773 264.29317 
" style="fill:none;stroke:#e377c2;stroke-linecap:square;stroke-width:1.5;"/>
   </g>
   <g id="line2d_25">
    <path clip-path="url(#pc70297b144)" d="M 74.970227 261.644437 
L 76.661136 264.36285 
L 78.352045 260.638487 
L 80.042955 258.207164 
L 81.733864 264.459989 
L 83.424773 264.385059 
L 85.115682 264.476025 
L 86.806591 262.839769 
L 88.4975 263.972873 
L 90.188409 264.056389 
L 93.570227 264.402656 
L 95.261136 264.383782 
L 96.952045 264.095699 
L 98.642955 263.554656 
L 100.333864 264.239456 
L 103.715682 264.434374 
L 105.406591 264.316941 
L 108.788409 264.516329 
L 110.479318 264.275715 
L 115.552045 264.476664 
L 117.242955 263.641861 
L 118.933864 264.445798 
L 125.6975 264.564437 
L 127.388409 264.405211 
L 130.770227 264.543434 
L 134.152045 264.459634 
L 135.842955 264.533429 
L 137.533864 264.253009 
L 139.224773 263.80421 
L 140.915682 264.553297 
L 142.606591 264.421815 
L 145.988409 264.54911 
L 149.370227 264.241017 
L 151.061136 264.437496 
L 152.752045 264.236618 
L 154.442955 264.503344 
L 156.133864 264.247545 
L 157.824773 264.211145 
L 159.515682 264.364624 
L 161.206591 264.397264 
L 162.8975 264.242295 
L 164.588409 264.439837 
L 167.970227 264.328862 
L 169.661136 262.959047 
L 171.352045 264.4497 
L 173.042955 264.517251 
L 174.733864 262.333779 
L 176.424773 264.501712 
L 179.806591 263.870767 
L 181.4975 264.346246 
L 183.188409 262.523162 
L 184.879318 254.038402 
L 186.570227 264.455803 
L 189.952045 264.219518 
L 191.642955 263.725448 
L 193.333864 264.52016 
L 195.024773 261.135963 
L 196.715682 262.635628 
L 198.406591 263.241028 
L 200.0975 263.256568 
L 201.788409 264.14849 
L 203.479318 264.534139 
L 205.170227 264.085907 
L 206.861136 264.533642 
L 208.552045 264.490926 
L 210.242955 262.916544 
L 211.933864 263.838623 
L 213.624773 264.233212 
L 215.315682 264.384066 
L 217.006591 258.788582 
L 218.6975 258.718973 
L 220.388409 263.563596 
L 222.079318 264.439057 
L 223.770227 260.076016 
L 225.461136 261.233173 
L 227.152045 262.188602 
L 228.842955 263.609221 
L 230.533864 264.298492 
L 232.224773 264.308071 
L 233.915682 254.63621 
L 235.606591 263.39252 
L 237.2975 264.364907 
L 238.988409 259.657443 
L 240.679318 264.242366 
L 242.370227 263.969609 
L 244.061136 262.613205 
L 245.752045 264.50235 
L 247.442955 263.109475 
L 249.133864 261.183717 
L 250.824773 263.95038 
L 252.515682 261.555812 
L 254.206591 264.450907 
L 255.8975 257.162473 
L 257.588409 263.841746 
L 260.970227 264.023181 
L 262.661136 264.44296 
L 264.352045 264.476309 
L 266.042955 262.374366 
L 267.733864 262.515569 
L 269.424773 263.95854 
L 271.115682 263.79754 
L 272.806591 263.980678 
L 274.4975 264.458925 
L 277.879318 264.570539 
L 281.261136 264.266988 
L 282.952045 264.541021 
L 286.333864 264.56912 
L 288.024773 264.058872 
L 289.715682 260.870373 
L 291.406591 263.470218 
L 293.0975 263.38954 
L 294.788409 260.36197 
L 296.479318 263.526415 
L 298.170227 245.591958 
L 299.861136 260.331246 
L 301.552045 263.900639 
L 303.242955 260.085524 
L 304.933864 260.752302 
L 306.624773 263.67365 
L 308.315682 263.379464 
L 310.006591 260.151513 
L 311.6975 259.582159 
L 313.388409 260.136683 
L 315.079318 260.527653 
L 316.770227 262.524439 
L 318.461136 253.905784 
L 320.152045 260.187133 
L 321.842955 263.58169 
L 323.533864 263.448221 
L 325.224773 263.707709 
L 326.915682 260.973615 
L 328.606591 260.363389 
L 330.2975 263.676204 
L 331.988409 261.311155 
L 333.679318 261.210184 
L 335.370227 261.292138 
L 337.061136 260.322234 
L 338.752045 249.871768 
L 340.442955 249.161068 
L 342.133864 263.826845 
L 343.824773 259.773457 
L 345.515682 261.036056 
L 347.206591 261.388071 
L 348.8975 259.986752 
L 350.588409 261.998013 
L 352.279318 252.287126 
L 353.970227 263.533865 
L 355.661136 242.586101 
L 357.352045 242.719215 
L 359.042955 259.586487 
L 360.733864 263.679681 
L 362.424773 263.229462 
L 364.115682 259.539088 
L 365.806591 263.462696 
L 367.4975 261.005971 
L 369.188409 264.478154 
L 370.879318 264.423021 
L 372.570227 264.539673 
L 374.261136 264.125784 
L 375.952045 264.549323 
L 377.642955 264.377892 
L 379.333864 264.511787 
L 381.024773 264.501641 
L 382.715682 264.064833 
L 386.0975 264.165733 
L 387.788409 264.390594 
L 389.479318 264.501073 
L 391.170227 264.351922 
L 394.552045 264.420183 
L 396.242955 264.210577 
L 397.933864 264.493268 
L 399.624773 264.437993 
L 399.624773 264.437993 
" style="fill:none;stroke:#7f7f7f;stroke-linecap:square;stroke-width:1.5;"/>
   </g>
   <g id="line2d_26">
    <path clip-path="url(#pc70297b144)" d="M 74.970227 264.570681 
L 124.006591 264.570681 
L 399.624773 264.570681 
L 399.624773 264.570681 
" style="fill:none;stroke:#bcbd22;stroke-linecap:square;stroke-width:1.5;"/>
   </g>
   <g id="line2d_27">
    <path clip-path="url(#pc70297b144)" d="M 74.970227 264.570681 
L 149.370227 264.570681 
L 399.624773 264.570681 
L 399.624773 264.570681 
" style="fill:none;stroke:#17becf;stroke-linecap:square;stroke-width:1.5;"/>
   </g>
   <g id="line2d_28">
    <path clip-path="url(#pc70297b144)" d="M 74.970227 264.563656 
L 95.261136 264.565927 
L 96.952045 264.425433 
L 98.642955 264.548188 
L 102.024773 264.425433 
L 103.715682 264.634968 
L 105.406591 264.485321 
L 107.0975 264.673213 
L 110.479318 264.568127 
L 113.861136 264.586859 
L 115.552045 264.716 
L 117.242955 264.555851 
L 120.624773 264.596438 
L 135.842955 264.566708 
L 140.915682 264.566708 
L 142.606591 264.516541 
L 144.2975 264.612333 
L 152.752045 264.510084 
L 156.133864 264.602328 
L 159.515682 264.591968 
L 169.661136 264.530023 
L 171.352045 264.561031 
L 173.042955 264.450623 
L 176.424773 264.597716 
L 179.806591 264.525837 
L 181.4975 264.603747 
L 184.879318 264.511362 
L 188.261136 264.613255 
L 189.952045 264.591188 
L 191.642955 264.448352 
L 193.333864 264.563018 
L 195.024773 264.444592 
L 196.715682 264.597999 
L 200.0975 264.572029 
L 203.479318 264.567204 
L 205.170227 264.668033 
L 208.552045 264.567559 
L 210.242955 264.59133 
L 211.933864 264.469639 
L 213.624773 264.666543 
L 218.6975 264.487094 
L 222.079318 264.562166 
L 223.770227 264.557341 
L 225.461136 264.425433 
L 227.152045 264.563656 
L 254.206591 264.566495 
L 255.8975 264.482695 
L 257.588409 264.581112 
L 269.424773 264.450552 
L 271.115682 264.61439 
L 272.806591 264.516187 
L 277.879318 264.566708 
L 279.570227 264.425433 
L 282.952045 264.566708 
L 391.170227 264.563656 
L 392.861136 264.688327 
L 396.242955 264.502989 
L 399.624773 264.555284 
L 399.624773 264.555284 
" style="fill:none;stroke:#1f77b4;stroke-linecap:square;stroke-width:1.5;"/>
   </g>
   <g id="line2d_29">
    <path clip-path="url(#pc70297b144)" d="M 74.970227 264.570681 
L 399.624773 264.570681 
L 399.624773 264.570681 
" style="fill:none;stroke:#ff7f0e;stroke-linecap:square;stroke-width:1.5;"/>
   </g>
   <g id="patch_3">
    <path d="M 58.7375 276.812 
L 58.7375 10.7 
" style="fill:none;stroke:#000000;stroke-linecap:square;stroke-linejoin:miter;stroke-width:0.8;"/>
   </g>
   <g id="patch_4">
    <path d="M 415.8575 276.812 
L 415.8575 10.7 
" style="fill:none;stroke:#000000;stroke-linecap:square;stroke-linejoin:miter;stroke-width:0.8;"/>
   </g>
   <g id="patch_5">
    <path d="M 58.7375 276.812 
L 415.8575 276.812 
" style="fill:none;stroke:#000000;stroke-linecap:square;stroke-linejoin:miter;stroke-width:0.8;"/>
   </g>
   <g id="patch_6">
    <path d="M 58.7375 10.7 
L 415.8575 10.7 
" style="fill:none;stroke:#000000;stroke-linecap:square;stroke-linejoin:miter;stroke-width:0.8;"/>
   </g>
   <g id="legend_1">
    <g id="patch_7">
     <path d="M 65.7375 165.48125 
L 156.090625 165.48125 
Q 158.090625 165.48125 158.090625 163.48125 
L 158.090625 17.7 
Q 158.090625 15.7 156.090625 15.7 
L 65.7375 15.7 
Q 63.7375 15.7 63.7375 17.7 
L 63.7375 163.48125 
Q 63.7375 165.48125 65.7375 165.48125 
z
" style="fill:#ffffff;opacity:0.8;stroke:#cccccc;stroke-linejoin:miter;"/>
    </g>
    <g id="line2d_30">
     <path d="M 67.7375 23.798437 
L 87.7375 23.798437 
" style="fill:none;stroke:#1f77b4;stroke-linecap:square;stroke-width:1.5;"/>
    </g>
    <g id="line2d_31"/>
    <g id="text_18">
     <!-- delta -->
     <defs>
      <path d="M 45.40625 46.390625 
L 45.40625 75.984375 
L 54.390625 75.984375 
L 54.390625 0 
L 45.40625 0 
L 45.40625 8.203125 
Q 42.578125 3.328125 38.25 0.953125 
Q 33.9375 -1.421875 27.875 -1.421875 
Q 17.96875 -1.421875 11.734375 6.484375 
Q 5.515625 14.40625 5.515625 27.296875 
Q 5.515625 40.1875 11.734375 48.09375 
Q 17.96875 56 27.875 56 
Q 33.9375 56 38.25 53.625 
Q 42.578125 51.265625 45.40625 46.390625 
M 14.796875 27.296875 
Q 14.796875 17.390625 18.875 11.75 
Q 22.953125 6.109375 30.078125 6.109375 
Q 37.203125 6.109375 41.296875 11.75 
Q 45.40625 17.390625 45.40625 27.296875 
Q 45.40625 37.203125 41.296875 42.84375 
Q 37.203125 48.484375 30.078125 48.484375 
Q 22.953125 48.484375 18.875 42.84375 
Q 14.796875 37.203125 14.796875 27.296875 
" id="DejaVuSans-64"/>
      <path d="M 56.203125 29.59375 
L 56.203125 25.203125 
L 14.890625 25.203125 
Q 15.484375 15.921875 20.484375 11.0625 
Q 25.484375 6.203125 34.421875 6.203125 
Q 39.59375 6.203125 44.453125 7.46875 
Q 49.3125 8.734375 54.109375 11.28125 
L 54.109375 2.78125 
Q 49.265625 0.734375 44.1875 -0.34375 
Q 39.109375 -1.421875 33.890625 -1.421875 
Q 20.796875 -1.421875 13.15625 6.1875 
Q 5.515625 13.8125 5.515625 26.8125 
Q 5.515625 40.234375 12.765625 48.109375 
Q 20.015625 56 32.328125 56 
Q 43.359375 56 49.78125 48.890625 
Q 56.203125 41.796875 56.203125 29.59375 
M 47.21875 32.234375 
Q 47.125 39.59375 43.09375 43.984375 
Q 39.0625 48.390625 32.421875 48.390625 
Q 24.90625 48.390625 20.390625 44.140625 
Q 15.875 39.890625 15.1875 32.171875 
z
" id="DejaVuSans-65"/>
      <path d="M 9.421875 75.984375 
L 18.40625 75.984375 
L 18.40625 0 
L 9.421875 0 
z
" id="DejaVuSans-6c"/>
      <path d="M 18.3125 70.21875 
L 18.3125 54.6875 
L 36.8125 54.6875 
L 36.8125 47.703125 
L 18.3125 47.703125 
L 18.3125 18.015625 
Q 18.3125 11.328125 20.140625 9.421875 
Q 21.96875 7.515625 27.59375 7.515625 
L 36.8125 7.515625 
L 36.8125 0 
L 27.59375 0 
Q 17.1875 0 13.234375 3.875 
Q 9.28125 7.765625 9.28125 18.015625 
L 9.28125 47.703125 
L 2.6875 47.703125 
L 2.6875 54.6875 
L 9.28125 54.6875 
L 9.28125 70.21875 
z
" id="DejaVuSans-74"/>
      <path d="M 34.28125 27.484375 
Q 23.390625 27.484375 19.1875 25 
Q 14.984375 22.515625 14.984375 16.5 
Q 14.984375 11.71875 18.140625 8.90625 
Q 21.296875 6.109375 26.703125 6.109375 
Q 34.1875 6.109375 38.703125 11.40625 
Q 43.21875 16.703125 43.21875 25.484375 
L 43.21875 27.484375 
z
M 52.203125 31.203125 
L 52.203125 0 
L 43.21875 0 
L 43.21875 8.296875 
Q 40.140625 3.328125 35.546875 0.953125 
Q 30.953125 -1.421875 24.3125 -1.421875 
Q 15.921875 -1.421875 10.953125 3.296875 
Q 6 8.015625 6 15.921875 
Q 6 25.140625 12.171875 29.828125 
Q 18.359375 34.515625 30.609375 34.515625 
L 43.21875 34.515625 
L 43.21875 35.40625 
Q 43.21875 41.609375 39.140625 45 
Q 35.0625 48.390625 27.6875 48.390625 
Q 23 48.390625 18.546875 47.265625 
Q 14.109375 46.140625 10.015625 43.890625 
L 10.015625 52.203125 
Q 14.9375 54.109375 19.578125 55.046875 
Q 24.21875 56 28.609375 56 
Q 40.484375 56 46.34375 49.84375 
Q 52.203125 43.703125 52.203125 31.203125 
" id="DejaVuSans-61"/>
     </defs>
     <g transform="translate(95.7375 27.298437)scale(0.1 -0.1)">
      <use xlink:href="#DejaVuSans-64"/>
      <use x="63.476562" xlink:href="#DejaVuSans-65"/>
      <use x="125" xlink:href="#DejaVuSans-6c"/>
      <use x="152.783203" xlink:href="#DejaVuSans-74"/>
      <use x="191.992188" xlink:href="#DejaVuSans-61"/>
     </g>
    </g>
    <g id="line2d_32">
     <path d="M 67.7375 38.476562 
L 87.7375 38.476562 
" style="fill:none;stroke:#ff7f0e;stroke-linecap:square;stroke-width:1.5;"/>
    </g>
    <g id="line2d_33"/>
    <g id="text_19">
     <!-- lowAlpha -->
     <defs>
      <path d="M 30.609375 48.390625 
Q 23.390625 48.390625 19.1875 42.75 
Q 14.984375 37.109375 14.984375 27.296875 
Q 14.984375 17.484375 19.15625 11.84375 
Q 23.34375 6.203125 30.609375 6.203125 
Q 37.796875 6.203125 41.984375 11.859375 
Q 46.1875 17.53125 46.1875 27.296875 
Q 46.1875 37.015625 41.984375 42.703125 
Q 37.796875 48.390625 30.609375 48.390625 
M 30.609375 56 
Q 42.328125 56 49.015625 48.375 
Q 55.71875 40.765625 55.71875 27.296875 
Q 55.71875 13.875 49.015625 6.21875 
Q 42.328125 -1.421875 30.609375 -1.421875 
Q 18.84375 -1.421875 12.171875 6.21875 
Q 5.515625 13.875 5.515625 27.296875 
Q 5.515625 40.765625 12.171875 48.375 
Q 18.84375 56 30.609375 56 
" id="DejaVuSans-6f"/>
      <path d="M 4.203125 54.6875 
L 13.1875 54.6875 
L 24.421875 12.015625 
L 35.59375 54.6875 
L 46.1875 54.6875 
L 57.421875 12.015625 
L 68.609375 54.6875 
L 77.59375 54.6875 
L 63.28125 0 
L 52.6875 0 
L 40.921875 44.828125 
L 29.109375 0 
L 18.5 0 
z
" id="DejaVuSans-77"/>
      <path d="M 34.1875 63.1875 
L 20.796875 26.90625 
L 47.609375 26.90625 
z
M 28.609375 72.90625 
L 39.796875 72.90625 
L 67.578125 0 
L 57.328125 0 
L 50.6875 18.703125 
L 17.828125 18.703125 
L 11.1875 0 
L 0.78125 0 
z
" id="DejaVuSans-41"/>
      <path d="M 18.109375 8.203125 
L 18.109375 -20.796875 
L 9.078125 -20.796875 
L 9.078125 54.6875 
L 18.109375 54.6875 
L 18.109375 46.390625 
Q 20.953125 51.265625 25.265625 53.625 
Q 29.59375 56 35.59375 56 
Q 45.5625 56 51.78125 48.09375 
Q 58.015625 40.1875 58.015625 27.296875 
Q 58.015625 14.40625 51.78125 6.484375 
Q 45.5625 -1.421875 35.59375 -1.421875 
Q 29.59375 -1.421875 25.265625 0.953125 
Q 20.953125 3.328125 18.109375 8.203125 
M 48.6875 27.296875 
Q 48.6875 37.203125 44.609375 42.84375 
Q 40.53125 48.484375 33.40625 48.484375 
Q 26.265625 48.484375 22.1875 42.84375 
Q 18.109375 37.203125 18.109375 27.296875 
Q 18.109375 17.390625 22.1875 11.75 
Q 26.265625 6.109375 33.40625 6.109375 
Q 40.53125 6.109375 44.609375 11.75 
Q 48.6875 17.390625 48.6875 27.296875 
" id="DejaVuSans-70"/>
      <path d="M 54.890625 33.015625 
L 54.890625 0 
L 45.90625 0 
L 45.90625 32.71875 
Q 45.90625 40.484375 42.875 44.328125 
Q 39.84375 48.1875 33.796875 48.1875 
Q 26.515625 48.1875 22.3125 43.546875 
Q 18.109375 38.921875 18.109375 30.90625 
L 18.109375 0 
L 9.078125 0 
L 9.078125 75.984375 
L 18.109375 75.984375 
L 18.109375 46.1875 
Q 21.34375 51.125 25.703125 53.5625 
Q 30.078125 56 35.796875 56 
Q 45.21875 56 50.046875 50.171875 
Q 54.890625 44.34375 54.890625 33.015625 
" id="DejaVuSans-68"/>
     </defs>
     <g transform="translate(95.7375 41.976562)scale(0.1 -0.1)">
      <use xlink:href="#DejaVuSans-6c"/>
      <use x="27.783203" xlink:href="#DejaVuSans-6f"/>
      <use x="88.964844" xlink:href="#DejaVuSans-77"/>
      <use x="170.751953" xlink:href="#DejaVuSans-41"/>
      <use x="239.160156" xlink:href="#DejaVuSans-6c"/>
      <use x="266.943359" xlink:href="#DejaVuSans-70"/>
      <use x="330.419922" xlink:href="#DejaVuSans-68"/>
      <use x="393.798828" xlink:href="#DejaVuSans-61"/>
     </g>
    </g>
    <g id="line2d_34">
     <path d="M 67.7375 53.154687 
L 87.7375 53.154687 
" style="fill:none;stroke:#2ca02c;stroke-linecap:square;stroke-width:1.5;"/>
    </g>
    <g id="line2d_35"/>
    <g id="text_20">
     <!-- highAlpha -->
     <defs>
      <path d="M 9.421875 54.6875 
L 18.40625 54.6875 
L 18.40625 0 
L 9.421875 0 
z
M 9.421875 75.984375 
L 18.40625 75.984375 
L 18.40625 64.59375 
L 9.421875 64.59375 
z
" id="DejaVuSans-69"/>
      <path d="M 45.40625 27.984375 
Q 45.40625 37.75 41.375 43.109375 
Q 37.359375 48.484375 30.078125 48.484375 
Q 22.859375 48.484375 18.828125 43.109375 
Q 14.796875 37.75 14.796875 27.984375 
Q 14.796875 18.265625 18.828125 12.890625 
Q 22.859375 7.515625 30.078125 7.515625 
Q 37.359375 7.515625 41.375 12.890625 
Q 45.40625 18.265625 45.40625 27.984375 
M 54.390625 6.78125 
Q 54.390625 -7.171875 48.1875 -13.984375 
Q 42 -20.796875 29.203125 -20.796875 
Q 24.46875 -20.796875 20.265625 -20.09375 
Q 16.0625 -19.390625 12.109375 -17.921875 
L 12.109375 -9.1875 
Q 16.0625 -11.328125 19.921875 -12.34375 
Q 23.78125 -13.375 27.78125 -13.375 
Q 36.625 -13.375 41.015625 -8.765625 
Q 45.40625 -4.15625 45.40625 5.171875 
L 45.40625 9.625 
Q 42.625 4.78125 38.28125 2.390625 
Q 33.9375 0 27.875 0 
Q 17.828125 0 11.671875 7.65625 
Q 5.515625 15.328125 5.515625 27.984375 
Q 5.515625 40.671875 11.671875 48.328125 
Q 17.828125 56 27.875 56 
Q 33.9375 56 38.28125 53.609375 
Q 42.625 51.21875 45.40625 46.390625 
L 45.40625 54.6875 
L 54.390625 54.6875 
z
" id="DejaVuSans-67"/>
     </defs>
     <g transform="translate(95.7375 56.654687)scale(0.1 -0.1)">
      <use xlink:href="#DejaVuSans-68"/>
      <use x="63.378906" xlink:href="#DejaVuSans-69"/>
      <use x="91.162109" xlink:href="#DejaVuSans-67"/>
      <use x="154.638672" xlink:href="#DejaVuSans-68"/>
      <use x="218.017578" xlink:href="#DejaVuSans-41"/>
      <use x="286.425781" xlink:href="#DejaVuSans-6c"/>
      <use x="314.208984" xlink:href="#DejaVuSans-70"/>
      <use x="377.685547" xlink:href="#DejaVuSans-68"/>
      <use x="441.064453" xlink:href="#DejaVuSans-61"/>
     </g>
    </g>
    <g id="line2d_36">
     <path d="M 67.7375 67.832812 
L 87.7375 67.832812 
" style="fill:none;stroke:#d62728;stroke-linecap:square;stroke-width:1.5;"/>
    </g>
    <g id="line2d_37"/>
    <g id="text_21">
     <!-- lowBeta -->
     <defs>
      <path d="M 19.671875 34.8125 
L 19.671875 8.109375 
L 35.5 8.109375 
Q 43.453125 8.109375 47.28125 11.40625 
Q 51.125 14.703125 51.125 21.484375 
Q 51.125 28.328125 47.28125 31.5625 
Q 43.453125 34.8125 35.5 34.8125 
z
M 19.671875 64.796875 
L 19.671875 42.828125 
L 34.28125 42.828125 
Q 41.5 42.828125 45.03125 45.53125 
Q 48.578125 48.25 48.578125 53.8125 
Q 48.578125 59.328125 45.03125 62.0625 
Q 41.5 64.796875 34.28125 64.796875 
z
M 9.8125 72.90625 
L 35.015625 72.90625 
Q 46.296875 72.90625 52.390625 68.21875 
Q 58.5 63.53125 58.5 54.890625 
Q 58.5 48.1875 55.375 44.234375 
Q 52.25 40.28125 46.1875 39.3125 
Q 53.46875 37.75 57.5 32.78125 
Q 61.53125 27.828125 61.53125 20.40625 
Q 61.53125 10.640625 54.890625 5.3125 
Q 48.25 0 35.984375 0 
L 9.8125 0 
z
" id="DejaVuSans-42"/>
     </defs>
     <g transform="translate(95.7375 71.332812)scale(0.1 -0.1)">
      <use xlink:href="#DejaVuSans-6c"/>
      <use x="27.783203" xlink:href="#DejaVuSans-6f"/>
      <use x="88.964844" xlink:href="#DejaVuSans-77"/>
      <use x="170.751953" xlink:href="#DejaVuSans-42"/>
      <use x="239.355469" xlink:href="#DejaVuSans-65"/>
      <use x="300.878906" xlink:href="#DejaVuSans-74"/>
      <use x="340.087891" xlink:href="#DejaVuSans-61"/>
     </g>
    </g>
    <g id="line2d_38">
     <path d="M 67.7375 82.510938 
L 87.7375 82.510938 
" style="fill:none;stroke:#9467bd;stroke-linecap:square;stroke-width:1.5;"/>
    </g>
    <g id="line2d_39"/>
    <g id="text_22">
     <!-- highBeta -->
     <g transform="translate(95.7375 86.010938)scale(0.1 -0.1)">
      <use xlink:href="#DejaVuSans-68"/>
      <use x="63.378906" xlink:href="#DejaVuSans-69"/>
      <use x="91.162109" xlink:href="#DejaVuSans-67"/>
      <use x="154.638672" xlink:href="#DejaVuSans-68"/>
      <use x="218.017578" xlink:href="#DejaVuSans-42"/>
      <use x="286.621094" xlink:href="#DejaVuSans-65"/>
      <use x="348.144531" xlink:href="#DejaVuSans-74"/>
      <use x="387.353516" xlink:href="#DejaVuSans-61"/>
     </g>
    </g>
    <g id="line2d_40">
     <path d="M 67.7375 97.189062 
L 87.7375 97.189062 
" style="fill:none;stroke:#8c564b;stroke-linecap:square;stroke-width:1.5;"/>
    </g>
    <g id="line2d_41"/>
    <g id="text_23">
     <!-- lowGamma -->
     <defs>
      <path d="M 59.515625 10.40625 
L 59.515625 29.984375 
L 43.40625 29.984375 
L 43.40625 38.09375 
L 69.28125 38.09375 
L 69.28125 6.78125 
Q 63.578125 2.734375 56.6875 0.65625 
Q 49.8125 -1.421875 42 -1.421875 
Q 24.90625 -1.421875 15.25 8.5625 
Q 5.609375 18.5625 5.609375 36.375 
Q 5.609375 54.25 15.25 64.234375 
Q 24.90625 74.21875 42 74.21875 
Q 49.125 74.21875 55.546875 72.453125 
Q 61.96875 70.703125 67.390625 67.28125 
L 67.390625 56.78125 
Q 61.921875 61.421875 55.765625 63.765625 
Q 49.609375 66.109375 42.828125 66.109375 
Q 29.4375 66.109375 22.71875 58.640625 
Q 16.015625 51.171875 16.015625 36.375 
Q 16.015625 21.625 22.71875 14.15625 
Q 29.4375 6.6875 42.828125 6.6875 
Q 48.046875 6.6875 52.140625 7.59375 
Q 56.25 8.5 59.515625 10.40625 
" id="DejaVuSans-47"/>
      <path d="M 52 44.1875 
Q 55.375 50.25 60.0625 53.125 
Q 64.75 56 71.09375 56 
Q 79.640625 56 84.28125 50.015625 
Q 88.921875 44.046875 88.921875 33.015625 
L 88.921875 0 
L 79.890625 0 
L 79.890625 32.71875 
Q 79.890625 40.578125 77.09375 44.375 
Q 74.3125 48.1875 68.609375 48.1875 
Q 61.625 48.1875 57.5625 43.546875 
Q 53.515625 38.921875 53.515625 30.90625 
L 53.515625 0 
L 44.484375 0 
L 44.484375 32.71875 
Q 44.484375 40.625 41.703125 44.40625 
Q 38.921875 48.1875 33.109375 48.1875 
Q 26.21875 48.1875 22.15625 43.53125 
Q 18.109375 38.875 18.109375 30.90625 
L 18.109375 0 
L 9.078125 0 
L 9.078125 54.6875 
L 18.109375 54.6875 
L 18.109375 46.1875 
Q 21.1875 51.21875 25.484375 53.609375 
Q 29.78125 56 35.6875 56 
Q 41.65625 56 45.828125 52.96875 
Q 50 49.953125 52 44.1875 
" id="DejaVuSans-6d"/>
     </defs>
     <g transform="translate(95.7375 100.689062)scale(0.1 -0.1)">
      <use xlink:href="#DejaVuSans-6c"/>
      <use x="27.783203" xlink:href="#DejaVuSans-6f"/>
      <use x="88.964844" xlink:href="#DejaVuSans-77"/>
      <use x="170.751953" xlink:href="#DejaVuSans-47"/>
      <use x="248.242188" xlink:href="#DejaVuSans-61"/>
      <use x="309.521484" xlink:href="#DejaVuSans-6d"/>
      <use x="406.933594" xlink:href="#DejaVuSans-6d"/>
      <use x="504.345703" xlink:href="#DejaVuSans-61"/>
     </g>
    </g>
    <g id="line2d_42">
     <path d="M 67.7375 111.867188 
L 87.7375 111.867188 
" style="fill:none;stroke:#e377c2;stroke-linecap:square;stroke-width:1.5;"/>
    </g>
    <g id="line2d_43"/>
    <g id="text_24">
     <!-- midGamma -->
     <g transform="translate(95.7375 115.367188)scale(0.1 -0.1)">
      <use xlink:href="#DejaVuSans-6d"/>
      <use x="97.412109" xlink:href="#DejaVuSans-69"/>
      <use x="125.195312" xlink:href="#DejaVuSans-64"/>
      <use x="188.671875" xlink:href="#DejaVuSans-47"/>
      <use x="266.162109" xlink:href="#DejaVuSans-61"/>
      <use x="327.441406" xlink:href="#DejaVuSans-6d"/>
      <use x="424.853516" xlink:href="#DejaVuSans-6d"/>
      <use x="522.265625" xlink:href="#DejaVuSans-61"/>
     </g>
    </g>
    <g id="line2d_44">
     <path d="M 67.7375 126.545312 
L 87.7375 126.545312 
" style="fill:none;stroke:#7f7f7f;stroke-linecap:square;stroke-width:1.5;"/>
    </g>
    <g id="line2d_45"/>
    <g id="text_25">
     <!-- attention -->
     <defs>
      <path d="M 54.890625 33.015625 
L 54.890625 0 
L 45.90625 0 
L 45.90625 32.71875 
Q 45.90625 40.484375 42.875 44.328125 
Q 39.84375 48.1875 33.796875 48.1875 
Q 26.515625 48.1875 22.3125 43.546875 
Q 18.109375 38.921875 18.109375 30.90625 
L 18.109375 0 
L 9.078125 0 
L 9.078125 54.6875 
L 18.109375 54.6875 
L 18.109375 46.1875 
Q 21.34375 51.125 25.703125 53.5625 
Q 30.078125 56 35.796875 56 
Q 45.21875 56 50.046875 50.171875 
Q 54.890625 44.34375 54.890625 33.015625 
" id="DejaVuSans-6e"/>
     </defs>
     <g transform="translate(95.7375 130.045312)scale(0.1 -0.1)">
      <use xlink:href="#DejaVuSans-61"/>
      <use x="61.279297" xlink:href="#DejaVuSans-74"/>
      <use x="100.488281" xlink:href="#DejaVuSans-74"/>
      <use x="139.697266" xlink:href="#DejaVuSans-65"/>
      <use x="201.220703" xlink:href="#DejaVuSans-6e"/>
      <use x="264.599609" xlink:href="#DejaVuSans-74"/>
      <use x="303.808594" xlink:href="#DejaVuSans-69"/>
      <use x="331.591797" xlink:href="#DejaVuSans-6f"/>
      <use x="392.773438" xlink:href="#DejaVuSans-6e"/>
     </g>
    </g>
    <g id="line2d_46">
     <path d="M 67.7375 141.223437 
L 87.7375 141.223437 
" style="fill:none;stroke:#bcbd22;stroke-linecap:square;stroke-width:1.5;"/>
    </g>
    <g id="line2d_47"/>
    <g id="text_26">
     <!-- meditation -->
     <g transform="translate(95.7375 144.723437)scale(0.1 -0.1)">
      <use xlink:href="#DejaVuSans-6d"/>
      <use x="97.412109" xlink:href="#DejaVuSans-65"/>
      <use x="158.935547" xlink:href="#DejaVuSans-64"/>
      <use x="222.412109" xlink:href="#DejaVuSans-69"/>
      <use x="250.195312" xlink:href="#DejaVuSans-74"/>
      <use x="289.404297" xlink:href="#DejaVuSans-61"/>
      <use x="350.683594" xlink:href="#DejaVuSans-74"/>
      <use x="389.892578" xlink:href="#DejaVuSans-69"/>
      <use x="417.675781" xlink:href="#DejaVuSans-6f"/>
      <use x="478.857422" xlink:href="#DejaVuSans-6e"/>
     </g>
    </g>
    <g id="line2d_48">
     <path d="M 67.7375 155.901562 
L 87.7375 155.901562 
" style="fill:none;stroke:#17becf;stroke-linecap:square;stroke-width:1.5;"/>
    </g>
    <g id="line2d_49"/>
    <g id="text_27">
     <!-- rawValue -->
     <defs>
      <path d="M 41.109375 46.296875 
Q 39.59375 47.171875 37.8125 47.578125 
Q 36.03125 48 33.890625 48 
Q 26.265625 48 22.1875 43.046875 
Q 18.109375 38.09375 18.109375 28.8125 
L 18.109375 0 
L 9.078125 0 
L 9.078125 54.6875 
L 18.109375 54.6875 
L 18.109375 46.1875 
Q 20.953125 51.171875 25.484375 53.578125 
Q 30.03125 56 36.53125 56 
Q 37.453125 56 38.578125 55.875 
Q 39.703125 55.765625 41.0625 55.515625 
z
" id="DejaVuSans-72"/>
      <path d="M 28.609375 0 
L 0.78125 72.90625 
L 11.078125 72.90625 
L 34.1875 11.53125 
L 57.328125 72.90625 
L 67.578125 72.90625 
L 39.796875 0 
z
" id="DejaVuSans-56"/>
      <path d="M 8.5 21.578125 
L 8.5 54.6875 
L 17.484375 54.6875 
L 17.484375 21.921875 
Q 17.484375 14.15625 20.5 10.265625 
Q 23.53125 6.390625 29.59375 6.390625 
Q 36.859375 6.390625 41.078125 11.03125 
Q 45.3125 15.671875 45.3125 23.6875 
L 45.3125 54.6875 
L 54.296875 54.6875 
L 54.296875 0 
L 45.3125 0 
L 45.3125 8.40625 
Q 42.046875 3.421875 37.71875 1 
Q 33.40625 -1.421875 27.6875 -1.421875 
Q 18.265625 -1.421875 13.375 4.4375 
Q 8.5 10.296875 8.5 21.578125 
M 31.109375 56 
z
" id="DejaVuSans-75"/>
     </defs>
     <g transform="translate(95.7375 159.401562)scale(0.1 -0.1)">
      <use xlink:href="#DejaVuSans-72"/>
      <use x="41.113281" xlink:href="#DejaVuSans-61"/>
      <use x="102.392578" xlink:href="#DejaVuSans-77"/>
      <use x="184.179688" xlink:href="#DejaVuSans-56"/>
      <use x="252.478516" xlink:href="#DejaVuSans-61"/>
      <use x="313.757812" xlink:href="#DejaVuSans-6c"/>
      <use x="341.541016" xlink:href="#DejaVuSans-75"/>
      <use x="404.919922" xlink:href="#DejaVuSans-65"/>
     </g>
    </g>
   </g>
  </g>
 </g>
 <defs>
  <clipPath id="pc70297b144">
   <rect height="266.112" width="357.12" x="58.7375" y="10.7"/>
  </clipPath>
 </defs>
</svg>
