<?xml version="1.0" encoding="utf-8" standalone="no"?>
<!DOCTYPE svg PUBLIC "-//W3C//DTD SVG 1.1//EN"
  "http://www.w3.org/Graphics/SVG/1.1/DTD/svg11.dtd">
<!-- Created with matplotlib (http://matplotlib.org/) -->
<svg height="300pt" version="1.1" viewBox="0 0 426 300" width="426pt" xmlns="http://www.w3.org/2000/svg" xmlns:xlink="http://www.w3.org/1999/xlink">
 <defs>
  <style type="text/css">
*{stroke-linecap:butt;stroke-linejoin:round;}
  </style>
 </defs>
 <g id="figure_1">
  <g id="patch_1">
   <path d="M 0 300.690125 
L 426.5575 300.690125 
L 426.5575 0 
L 0 0 
z
" style="fill:#ffffff;"/>
  </g>
  <g id="axes_1">
   <g id="patch_2">
    <path d="M 58.7375 276.812 
L 415.8575 276.812 
L 415.8575 10.7 
L 58.7375 10.7 
z
" style="fill:#ffffff;"/>
   </g>
   <g id="matplotlib.axis_1">
    <g id="xtick_1">
     <g id="line2d_1">
      <defs>
       <path d="M 0 0 
L 0 3.5 
" id="m00ff05e4c9" style="stroke:#000000;stroke-width:0.8;"/>
      </defs>
      <g>
       <use style="stroke:#000000;stroke-width:0.8;" x="74.970227" xlink:href="#m00ff05e4c9" y="276.812"/>
      </g>
     </g>
     <g id="text_1">
      <!-- 0 -->
      <defs>
       <path d="M 31.78125 66.40625 
Q 24.171875 66.40625 20.328125 58.90625 
Q 16.5 51.421875 16.5 36.375 
Q 16.5 21.390625 20.328125 13.890625 
Q 24.171875 6.390625 31.78125 6.390625 
Q 39.453125 6.390625 43.28125 13.890625 
Q 47.125 21.390625 47.125 36.375 
Q 47.125 51.421875 43.28125 58.90625 
Q 39.453125 66.40625 31.78125 66.40625 
M 31.78125 74.21875 
Q 44.046875 74.21875 50.515625 64.515625 
Q 56.984375 54.828125 56.984375 36.375 
Q 56.984375 17.96875 50.515625 8.265625 
Q 44.046875 -1.421875 31.78125 -1.421875 
Q 19.53125 -1.421875 13.0625 8.265625 
Q 6.59375 17.96875 6.59375 36.375 
Q 6.59375 54.828125 13.0625 64.515625 
Q 19.53125 74.21875 31.78125 74.21875 
" id="DejaVuSans-30"/>
      </defs>
      <g transform="translate(71.788977 291.410437)scale(0.1 -0.1)">
       <use xlink:href="#DejaVuSans-30"/>
      </g>
     </g>
    </g>
    <g id="xtick_2">
     <g id="line2d_2">
      <g>
       <use style="stroke:#000000;stroke-width:0.8;" x="120.313041" xlink:href="#m00ff05e4c9" y="276.812"/>
      </g>
     </g>
     <g id="text_2">
      <!-- 25 -->
      <defs>
       <path d="M 19.1875 8.296875 
L 53.609375 8.296875 
L 53.609375 0 
L 7.328125 0 
L 7.328125 8.296875 
Q 12.9375 14.109375 22.625 23.890625 
Q 32.328125 33.6875 34.8125 36.53125 
Q 39.546875 41.84375 41.421875 45.53125 
Q 43.3125 49.21875 43.3125 52.78125 
Q 43.3125 58.59375 39.234375 62.25 
Q 35.15625 65.921875 28.609375 65.921875 
Q 23.96875 65.921875 18.8125 64.3125 
Q 13.671875 62.703125 7.8125 59.421875 
L 7.8125 69.390625 
Q 13.765625 71.78125 18.9375 73 
Q 24.125 74.21875 28.421875 74.21875 
Q 39.75 74.21875 46.484375 68.546875 
Q 53.21875 62.890625 53.21875 53.421875 
Q 53.21875 48.921875 51.53125 44.890625 
Q 49.859375 40.875 45.40625 35.40625 
Q 44.1875 33.984375 37.640625 27.21875 
Q 31.109375 20.453125 19.1875 8.296875 
" id="DejaVuSans-32"/>
       <path d="M 10.796875 72.90625 
L 49.515625 72.90625 
L 49.515625 64.59375 
L 19.828125 64.59375 
L 19.828125 46.734375 
Q 21.96875 47.46875 24.109375 47.828125 
Q 26.265625 48.1875 28.421875 48.1875 
Q 40.625 48.1875 47.75 41.5 
Q 54.890625 34.8125 54.890625 23.390625 
Q 54.890625 11.625 47.5625 5.09375 
Q 40.234375 -1.421875 26.90625 -1.421875 
Q 22.3125 -1.421875 17.546875 -0.640625 
Q 12.796875 0.140625 7.71875 1.703125 
L 7.71875 11.625 
Q 12.109375 9.234375 16.796875 8.0625 
Q 21.484375 6.890625 26.703125 6.890625 
Q 35.15625 6.890625 40.078125 11.328125 
Q 45.015625 15.765625 45.015625 23.390625 
Q 45.015625 31 40.078125 35.4375 
Q 35.15625 39.890625 26.703125 39.890625 
Q 22.75 39.890625 18.8125 39.015625 
Q 14.890625 38.140625 10.796875 36.28125 
z
" id="DejaVuSans-35"/>
      </defs>
      <g transform="translate(113.950541 291.410437)scale(0.1 -0.1)">
       <use xlink:href="#DejaVuSans-32"/>
       <use x="63.623047" xlink:href="#DejaVuSans-35"/>
      </g>
     </g>
    </g>
    <g id="xtick_3">
     <g id="line2d_3">
      <g>
       <use style="stroke:#000000;stroke-width:0.8;" x="165.655854" xlink:href="#m00ff05e4c9" y="276.812"/>
      </g>
     </g>
     <g id="text_3">
      <!-- 50 -->
      <g transform="translate(159.293354 291.410437)scale(0.1 -0.1)">
       <use xlink:href="#DejaVuSans-35"/>
       <use x="63.623047" xlink:href="#DejaVuSans-30"/>
      </g>
     </g>
    </g>
    <g id="xtick_4">
     <g id="line2d_4">
      <g>
       <use style="stroke:#000000;stroke-width:0.8;" x="210.998668" xlink:href="#m00ff05e4c9" y="276.812"/>
      </g>
     </g>
     <g id="text_4">
      <!-- 75 -->
      <defs>
       <path d="M 8.203125 72.90625 
L 55.078125 72.90625 
L 55.078125 68.703125 
L 28.609375 0 
L 18.3125 0 
L 43.21875 64.59375 
L 8.203125 64.59375 
z
" id="DejaVuSans-37"/>
      </defs>
      <g transform="translate(204.636168 291.410437)scale(0.1 -0.1)">
       <use xlink:href="#DejaVuSans-37"/>
       <use x="63.623047" xlink:href="#DejaVuSans-35"/>
      </g>
     </g>
    </g>
    <g id="xtick_5">
     <g id="line2d_5">
      <g>
       <use style="stroke:#000000;stroke-width:0.8;" x="256.341482" xlink:href="#m00ff05e4c9" y="276.812"/>
      </g>
     </g>
     <g id="text_5">
      <!-- 100 -->
      <defs>
       <path d="M 12.40625 8.296875 
L 28.515625 8.296875 
L 28.515625 63.921875 
L 10.984375 60.40625 
L 10.984375 69.390625 
L 28.421875 72.90625 
L 38.28125 72.90625 
L 38.28125 8.296875 
L 54.390625 8.296875 
L 54.390625 0 
L 12.40625 0 
z
" id="DejaVuSans-31"/>
      </defs>
      <g transform="translate(246.797732 291.410437)scale(0.1 -0.1)">
       <use xlink:href="#DejaVuSans-31"/>
       <use x="63.623047" xlink:href="#DejaVuSans-30"/>
       <use x="127.246094" xlink:href="#DejaVuSans-30"/>
      </g>
     </g>
    </g>
    <g id="xtick_6">
     <g id="line2d_6">
      <g>
       <use style="stroke:#000000;stroke-width:0.8;" x="301.684295" xlink:href="#m00ff05e4c9" y="276.812"/>
      </g>
     </g>
     <g id="text_6">
      <!-- 125 -->
      <g transform="translate(292.140545 291.410437)scale(0.1 -0.1)">
       <use xlink:href="#DejaVuSans-31"/>
       <use x="63.623047" xlink:href="#DejaVuSans-32"/>
       <use x="127.246094" xlink:href="#DejaVuSans-35"/>
      </g>
     </g>
    </g>
    <g id="xtick_7">
     <g id="line2d_7">
      <g>
       <use style="stroke:#000000;stroke-width:0.8;" x="347.027109" xlink:href="#m00ff05e4c9" y="276.812"/>
      </g>
     </g>
     <g id="text_7">
      <!-- 150 -->
      <g transform="translate(337.483359 291.410437)scale(0.1 -0.1)">
       <use xlink:href="#DejaVuSans-31"/>
       <use x="63.623047" xlink:href="#DejaVuSans-35"/>
       <use x="127.246094" xlink:href="#DejaVuSans-30"/>
      </g>
     </g>
    </g>
    <g id="xtick_8">
     <g id="line2d_8">
      <g>
       <use style="stroke:#000000;stroke-width:0.8;" x="392.369923" xlink:href="#m00ff05e4c9" y="276.812"/>
      </g>
     </g>
     <g id="text_8">
      <!-- 175 -->
      <g transform="translate(382.826173 291.410437)scale(0.1 -0.1)">
       <use xlink:href="#DejaVuSans-31"/>
       <use x="63.623047" xlink:href="#DejaVuSans-37"/>
       <use x="127.246094" xlink:href="#DejaVuSans-35"/>
      </g>
     </g>
    </g>
   </g>
   <g id="matplotlib.axis_2">
    <g id="ytick_1">
     <g id="line2d_9">
      <defs>
       <path d="M 0 0 
L -3.5 0 
" id="m7bf51c4c38" style="stroke:#000000;stroke-width:0.8;"/>
      </defs>
      <g>
       <use style="stroke:#000000;stroke-width:0.8;" x="58.7375" xlink:href="#m7bf51c4c38" y="264.635076"/>
      </g>
     </g>
     <g id="text_9">
      <!-- 0 -->
      <g transform="translate(45.375 268.434295)scale(0.1 -0.1)">
       <use xlink:href="#DejaVuSans-30"/>
      </g>
     </g>
    </g>
    <g id="ytick_2">
     <g id="line2d_10">
      <g>
       <use style="stroke:#000000;stroke-width:0.8;" x="58.7375" xlink:href="#m7bf51c4c38" y="218.019988"/>
      </g>
     </g>
     <g id="text_10">
      <!-- 500000 -->
      <g transform="translate(13.5625 221.819207)scale(0.1 -0.1)">
       <use xlink:href="#DejaVuSans-35"/>
       <use x="63.623047" xlink:href="#DejaVuSans-30"/>
       <use x="127.246094" xlink:href="#DejaVuSans-30"/>
       <use x="190.869141" xlink:href="#DejaVuSans-30"/>
       <use x="254.492188" xlink:href="#DejaVuSans-30"/>
       <use x="318.115234" xlink:href="#DejaVuSans-30"/>
      </g>
     </g>
    </g>
    <g id="ytick_3">
     <g id="line2d_11">
      <g>
       <use style="stroke:#000000;stroke-width:0.8;" x="58.7375" xlink:href="#m7bf51c4c38" y="171.4049"/>
      </g>
     </g>
     <g id="text_11">
      <!-- 1000000 -->
      <g transform="translate(7.2 175.204119)scale(0.1 -0.1)">
       <use xlink:href="#DejaVuSans-31"/>
       <use x="63.623047" xlink:href="#DejaVuSans-30"/>
       <use x="127.246094" xlink:href="#DejaVuSans-30"/>
       <use x="190.869141" xlink:href="#DejaVuSans-30"/>
       <use x="254.492188" xlink:href="#DejaVuSans-30"/>
       <use x="318.115234" xlink:href="#DejaVuSans-30"/>
       <use x="381.738281" xlink:href="#DejaVuSans-30"/>
      </g>
     </g>
    </g>
    <g id="ytick_4">
     <g id="line2d_12">
      <g>
       <use style="stroke:#000000;stroke-width:0.8;" x="58.7375" xlink:href="#m7bf51c4c38" y="124.789812"/>
      </g>
     </g>
     <g id="text_12">
      <!-- 1500000 -->
      <g transform="translate(7.2 128.589031)scale(0.1 -0.1)">
       <use xlink:href="#DejaVuSans-31"/>
       <use x="63.623047" xlink:href="#DejaVuSans-35"/>
       <use x="127.246094" xlink:href="#DejaVuSans-30"/>
       <use x="190.869141" xlink:href="#DejaVuSans-30"/>
       <use x="254.492188" xlink:href="#DejaVuSans-30"/>
       <use x="318.115234" xlink:href="#DejaVuSans-30"/>
       <use x="381.738281" xlink:href="#DejaVuSans-30"/>
      </g>
     </g>
    </g>
    <g id="ytick_5">
     <g id="line2d_13">
      <g>
       <use style="stroke:#000000;stroke-width:0.8;" x="58.7375" xlink:href="#m7bf51c4c38" y="78.174724"/>
      </g>
     </g>
     <g id="text_13">
      <!-- 2000000 -->
      <g transform="translate(7.2 81.973943)scale(0.1 -0.1)">
       <use xlink:href="#DejaVuSans-32"/>
       <use x="63.623047" xlink:href="#DejaVuSans-30"/>
       <use x="127.246094" xlink:href="#DejaVuSans-30"/>
       <use x="190.869141" xlink:href="#DejaVuSans-30"/>
       <use x="254.492188" xlink:href="#DejaVuSans-30"/>
       <use x="318.115234" xlink:href="#DejaVuSans-30"/>
       <use x="381.738281" xlink:href="#DejaVuSans-30"/>
      </g>
     </g>
    </g>
    <g id="ytick_6">
     <g id="line2d_14">
      <g>
       <use style="stroke:#000000;stroke-width:0.8;" x="58.7375" xlink:href="#m7bf51c4c38" y="31.559637"/>
      </g>
     </g>
     <g id="text_14">
      <!-- 2500000 -->
      <g transform="translate(7.2 35.358855)scale(0.1 -0.1)">
       <use xlink:href="#DejaVuSans-32"/>
       <use x="63.623047" xlink:href="#DejaVuSans-35"/>
       <use x="127.246094" xlink:href="#DejaVuSans-30"/>
       <use x="190.869141" xlink:href="#DejaVuSans-30"/>
       <use x="254.492188" xlink:href="#DejaVuSans-30"/>
       <use x="318.115234" xlink:href="#DejaVuSans-30"/>
       <use x="381.738281" xlink:href="#DejaVuSans-30"/>
      </g>
     </g>
    </g>
   </g>
   <g id="line2d_15">
    <path clip-path="url(#pf9ef2dca65)" d="M 74.970227 257.625472 
L 76.78394 230.632073 
L 78.597652 242.941813 
L 80.411365 263.164557 
L 82.225077 255.854658 
L 84.03879 250.165753 
L 85.852503 254.790436 
L 87.666215 258.340734 
L 89.479928 262.840116 
L 91.29364 22.796 
L 93.107353 201.352577 
L 94.921065 254.649751 
L 96.734778 208.631337 
L 98.54849 229.039422 
L 100.362203 255.284556 
L 102.175915 229.805494 
L 103.989628 264.229898 
L 105.803341 249.012123 
L 107.617053 262.044676 
L 109.430766 235.031698 
L 111.244478 170.207918 
L 113.058191 246.80639 
L 114.871903 254.839755 
L 116.685616 250.631624 
L 118.499328 250.453182 
L 120.313041 245.073987 
L 123.940466 262.730104 
L 125.754179 262.500478 
L 127.567891 247.111346 
L 129.381604 258.441702 
L 131.195316 241.579533 
L 133.009029 264.075695 
L 134.822741 207.068146 
L 136.636454 253.738426 
L 140.263879 262.881323 
L 143.891304 237.182612 
L 145.705017 263.867605 
L 147.518729 262.467475 
L 149.332442 263.981906 
L 151.146154 227.14657 
L 152.959867 262.090638 
L 154.773579 247.693475 
L 156.587292 132.036221 
L 158.401004 231.914081 
L 160.214717 248.147133 
L 162.028429 245.088717 
L 163.842142 262.964764 
L 165.655854 178.993743 
L 167.469567 256.744261 
L 169.28328 256.127636 
L 171.096992 139.587119 
L 172.910705 255.88039 
L 174.724417 250.686723 
L 176.53813 107.10843 
L 178.351842 255.22004 
L 180.165555 225.069029 
L 181.979267 259.951006 
L 183.79298 192.016321 
L 185.606692 263.31186 
L 187.420405 249.18926 
L 189.234118 246.016917 
L 191.04783 263.487506 
L 192.861543 235.261231 
L 194.675255 250.500729 
L 196.488968 260.926566 
L 198.30268 263.266364 
L 200.116393 257.363868 
L 201.930105 195.699845 
L 203.743818 242.303839 
L 205.55753 255.708194 
L 207.371243 248.219014 
L 209.184956 260.790823 
L 210.998668 201.912797 
L 212.812381 215.067389 
L 214.626093 251.446549 
L 216.439806 259.731915 
L 218.253518 114.252379 
L 220.067231 253.747097 
L 221.880943 254.140994 
L 223.694656 117.192206 
L 225.508368 263.702495 
L 227.322081 253.081527 
L 229.135794 263.979482 
L 230.949506 260.750827 
L 232.763219 263.63742 
L 234.576931 196.33754 
L 236.390644 264.050337 
L 238.204356 256.589498 
L 240.018069 257.054997 
L 241.831781 254.285315 
L 243.645494 260.692092 
L 245.459206 233.195623 
L 247.272919 260.10092 
L 249.086632 261.693478 
L 252.714057 210.144089 
L 254.527769 257.866565 
L 256.341482 262.658503 
L 258.155194 250.096763 
L 259.968907 259.339229 
L 261.782619 243.327413 
L 263.596332 263.776426 
L 265.410044 239.657593 
L 267.223757 195.476093 
L 269.03747 262.81513 
L 270.851182 199.17472 
L 272.664895 253.932066 
L 274.478607 53.754758 
L 276.29232 201.35323 
L 278.106032 262.979215 
L 279.919745 254.784189 
L 281.733457 256.943121 
L 283.54717 190.193951 
L 285.360882 258.76577 
L 287.174595 224.888628 
L 288.988308 181.234624 
L 290.80202 239.836688 
L 292.615733 238.335589 
L 294.429445 259.260263 
L 296.243158 260.668039 
L 298.05687 257.033834 
L 299.870583 262.943788 
L 301.684295 186.141421 
L 303.498008 264.106368 
L 305.31172 234.463088 
L 307.125433 250.729889 
L 308.939146 135.726551 
L 310.752858 232.011973 
L 312.566571 49.194684 
L 314.380283 250.855656 
L 316.193996 149.876468 
L 318.007708 263.494871 
L 319.821421 257.749282 
L 321.635133 263.835814 
L 323.448846 233.621872 
L 325.262558 234.801327 
L 327.076271 47.285423 
L 328.889983 188.156871 
L 330.703696 252.403091 
L 332.517409 226.414899 
L 334.331121 247.098107 
L 336.144834 223.475725 
L 337.958546 154.528467 
L 339.772259 99.246702 
L 341.585971 144.95839 
L 343.399684 247.046271 
L 345.213396 261.511399 
L 347.027109 262.561171 
L 348.840821 242.080739 
L 350.654534 260.170563 
L 352.468247 149.629035 
L 354.281959 243.34494 
L 356.095672 251.517218 
L 357.909384 184.195894 
L 359.723097 240.939508 
L 361.536809 258.009021 
L 363.350522 254.523891 
L 365.164234 247.944637 
L 366.977947 258.575954 
L 368.791659 250.507162 
L 370.605372 259.776572 
L 372.419085 243.541656 
L 374.232797 263.472589 
L 376.04651 243.68812 
L 377.860222 258.831311 
L 379.673935 246.116673 
L 381.487647 262.948729 
L 383.30136 162.707737 
L 385.115072 207.160164 
L 386.928785 168.14865 
L 388.742497 264.097697 
L 390.55621 201.8384 
L 392.369923 201.019932 
L 394.183635 254.214553 
L 395.997348 261.625326 
L 397.81106 215.493357 
L 399.624773 263.007184 
L 399.624773 263.007184 
" style="fill:none;stroke:#1f77b4;stroke-linecap:square;stroke-width:1.5;"/>
   </g>
   <g id="line2d_16">
    <path clip-path="url(#pf9ef2dca65)" d="M 74.970227 260.906335 
L 76.78394 247.371272 
L 78.597652 227.018565 
L 80.411365 263.154861 
L 82.225077 259.664416 
L 84.03879 258.468926 
L 85.852503 252.606705 
L 87.666215 260.273769 
L 89.479928 261.417237 
L 91.29364 111.839861 
L 93.107353 264.254231 
L 94.921065 261.804888 
L 96.734778 246.55933 
L 98.54849 256.972768 
L 100.362203 260.220627 
L 102.175915 260.326723 
L 103.989628 264.330866 
L 105.803341 263.403133 
L 107.617053 263.530299 
L 109.430766 261.148174 
L 111.244478 227.658776 
L 113.058191 252.044154 
L 114.871903 261.054478 
L 116.685616 258.833456 
L 118.499328 260.963858 
L 120.313041 256.135934 
L 122.126753 261.897372 
L 123.940466 264.050896 
L 125.754179 263.758899 
L 127.567891 261.016347 
L 129.381604 263.853434 
L 131.195316 263.080743 
L 133.009029 264.256935 
L 134.822741 259.278257 
L 136.636454 263.785563 
L 138.450166 263.417583 
L 140.263879 261.701775 
L 142.077591 263.615697 
L 143.891304 256.246971 
L 145.705017 264.487213 
L 147.518729 263.893244 
L 149.332442 263.565633 
L 151.146154 259.189035 
L 152.959867 262.407434 
L 154.773579 258.607466 
L 156.587292 263.840848 
L 158.401004 263.86919 
L 160.214717 260.478595 
L 162.028429 255.21715 
L 163.842142 263.192619 
L 165.655854 254.147054 
L 167.469567 264.416079 
L 169.28328 263.627072 
L 171.096992 205.078894 
L 172.910705 262.398671 
L 174.724417 262.237662 
L 176.53813 262.789305 
L 178.351842 262.488731 
L 180.165555 250.839248 
L 181.979267 263.993932 
L 183.79298 236.824515 
L 185.606692 264.440039 
L 187.420405 263.157564 
L 189.234118 246.536022 
L 191.04783 263.147123 
L 192.861543 256.510999 
L 194.675255 254.920958 
L 196.488968 258.647368 
L 198.30268 261.424882 
L 200.116393 260.887037 
L 201.930105 262.585411 
L 203.743818 263.284264 
L 205.55753 263.532909 
L 207.371243 263.133045 
L 209.184956 262.434471 
L 210.998668 262.836946 
L 212.812381 260.125253 
L 214.626093 262.037217 
L 216.439806 263.286408 
L 218.253518 253.846667 
L 220.067231 263.779596 
L 221.880943 262.23934 
L 223.694656 226.878999 
L 225.508368 264.076348 
L 227.322081 263.499253 
L 229.135794 263.962234 
L 230.949506 257.337764 
L 232.763219 262.115531 
L 234.576931 256.000936 
L 236.390644 263.249862 
L 238.204356 261.02856 
L 240.018069 261.283545 
L 241.831781 260.823827 
L 243.645494 261.935503 
L 245.459206 256.105168 
L 247.272919 261.993399 
L 249.086632 262.15562 
L 250.900344 258.152502 
L 252.714057 260.186132 
L 254.527769 262.586716 
L 258.155194 263.277085 
L 259.968907 262.648248 
L 261.782619 260.174758 
L 263.596332 263.575422 
L 265.410044 253.874915 
L 267.223757 242.230653 
L 269.03747 263.397259 
L 270.851182 247.45117 
L 272.664895 242.007553 
L 274.478607 256.834041 
L 276.29232 259.829061 
L 278.106032 264.347461 
L 279.919745 262.627737 
L 281.733457 261.651897 
L 283.54717 259.138784 
L 285.360882 258.464078 
L 287.174595 247.958995 
L 288.988308 259.153328 
L 290.80202 258.451585 
L 292.615733 252.668051 
L 294.429445 262.092783 
L 296.243158 261.094008 
L 298.05687 262.162332 
L 299.870583 264.426986 
L 301.684295 261.606028 
L 303.498008 264.565899 
L 305.31172 241.271501 
L 307.125433 258.166953 
L 308.939146 260.226874 
L 310.752858 255.228431 
L 312.566571 263.482378 
L 314.380283 260.595972 
L 316.193996 263.121018 
L 318.007708 263.970532 
L 319.821421 260.463212 
L 321.635133 264.102266 
L 323.448846 243.536994 
L 325.262558 255.443047 
L 327.076271 250.346619 
L 328.889983 249.776983 
L 330.703696 263.52573 
L 332.517409 262.975393 
L 334.331121 263.202595 
L 336.144834 237.294768 
L 337.958546 258.022726 
L 339.772259 232.07164 
L 341.585971 228.017246 
L 343.399684 262.400908 
L 345.213396 263.160921 
L 347.027109 264.217405 
L 348.840821 263.892311 
L 350.654534 262.030691 
L 352.468247 263.183482 
L 354.281959 245.399826 
L 356.095672 261.66439 
L 357.909384 221.337211 
L 359.723097 246.358792 
L 361.536809 260.471603 
L 363.350522 263.166794 
L 365.164234 258.743675 
L 366.977947 264.075509 
L 368.791659 264.095646 
L 370.605372 260.345183 
L 372.419085 263.685247 
L 374.232797 264.241831 
L 376.04651 262.341521 
L 377.860222 262.943228 
L 379.673935 262.201862 
L 381.487647 264.255816 
L 383.30136 259.965363 
L 385.115072 262.705025 
L 386.928785 260.834175 
L 388.742497 264.403213 
L 390.55621 262.214355 
L 392.369923 263.043264 
L 394.183635 264.145338 
L 395.997348 262.347394 
L 397.81106 260.819258 
L 399.624773 263.55575 
L 399.624773 263.55575 
" style="fill:none;stroke:#ff7f0e;stroke-linecap:square;stroke-width:1.5;"/>
   </g>
   <g id="line2d_17">
    <path clip-path="url(#pf9ef2dca65)" d="M 74.970227 263.347567 
L 76.78394 263.512585 
L 78.597652 262.017732 
L 80.411365 263.313725 
L 82.225077 255.046632 
L 84.03879 263.929137 
L 85.852503 263.361925 
L 87.666215 260.692652 
L 89.479928 263.228606 
L 91.29364 196.485682 
L 93.107353 264.25479 
L 94.921065 263.634343 
L 98.54849 262.853354 
L 102.175915 261.885812 
L 103.989628 264.121751 
L 105.803341 264.523946 
L 107.617053 263.494032 
L 109.430766 263.837772 
L 111.244478 264.40573 
L 114.871903 261.421432 
L 116.685616 264.162026 
L 118.499328 262.215101 
L 120.313041 264.260011 
L 122.126753 263.567404 
L 123.940466 264.326111 
L 125.754179 263.990856 
L 127.567891 263.822855 
L 129.381604 264.535133 
L 131.195316 263.809896 
L 133.009029 264.398924 
L 134.822741 263.514916 
L 136.636454 263.883175 
L 138.450166 264.411976 
L 140.263879 264.097325 
L 142.077591 264.477144 
L 143.891304 263.598543 
L 145.705017 263.498041 
L 147.518729 264.260198 
L 149.332442 264.58324 
L 151.146154 264.303084 
L 154.773579 264.14394 
L 156.587292 264.461295 
L 158.401004 264.227754 
L 160.214717 264.10786 
L 162.028429 261.910238 
L 163.842142 264.076814 
L 165.655854 259.809576 
L 167.469567 264.545296 
L 169.28328 264.54427 
L 171.096992 259.588247 
L 172.910705 264.013417 
L 174.724417 264.14394 
L 176.53813 262.484163 
L 178.351842 264.151864 
L 180.165555 261.812999 
L 181.979267 264.425029 
L 183.79298 263.877954 
L 185.606692 264.309796 
L 187.420405 260.367931 
L 189.234118 261.351882 
L 191.04783 264.100681 
L 192.861543 263.810455 
L 194.675255 258.325631 
L 196.488968 264.020037 
L 198.30268 260.150984 
L 200.116393 257.716558 
L 201.930105 263.148055 
L 203.743818 264.452811 
L 205.55753 264.253019 
L 207.371243 263.67667 
L 209.184956 264.500172 
L 210.998668 263.66483 
L 212.812381 264.446285 
L 214.626093 264.11392 
L 216.439806 264.310822 
L 218.253518 259.13058 
L 220.067231 264.58641 
L 221.880943 263.983863 
L 223.694656 262.519684 
L 225.508368 264.430529 
L 227.322081 264.467262 
L 229.135794 264.176663 
L 230.949506 262.566485 
L 232.763219 263.957666 
L 234.576931 263.257227 
L 236.390644 264.020223 
L 238.204356 262.016241 
L 240.018069 264.020223 
L 241.831781 264.13443 
L 243.645494 263.175558 
L 245.459206 263.763747 
L 247.272919 262.359794 
L 249.086632 264.620346 
L 250.900344 260.303136 
L 252.714057 263.885879 
L 254.527769 264.561891 
L 256.341482 263.799827 
L 258.155194 264.549304 
L 259.968907 263.713682 
L 261.782619 263.659889 
L 263.596332 264.408247 
L 265.410044 262.549983 
L 267.223757 263.695316 
L 269.03747 263.876649 
L 270.851182 264.352682 
L 272.664895 264.096392 
L 274.478607 260.506098 
L 276.29232 264.126879 
L 278.106032 264.015096 
L 279.919745 263.261609 
L 281.733457 263.803929 
L 283.54717 260.464424 
L 285.360882 263.613087 
L 287.174595 264.138253 
L 288.988308 263.500465 
L 290.80202 263.208095 
L 292.615733 262.55017 
L 294.429445 264.165662 
L 296.243158 262.954975 
L 298.05687 263.768222 
L 299.870583 264.324713 
L 301.684295 262.620465 
L 303.498008 264.389601 
L 305.31172 261.765451 
L 307.125433 262.905004 
L 308.939146 263.609451 
L 310.752858 260.886291 
L 312.566571 261.880964 
L 314.380283 264.365082 
L 316.193996 259.576966 
L 318.007708 264.281081 
L 319.821421 261.948276 
L 321.635133 264.512665 
L 323.448846 264.328815 
L 325.262558 263.829661 
L 327.076271 260.999099 
L 328.889983 259.879405 
L 330.703696 264.548932 
L 334.331121 264.346715 
L 336.144834 261.430848 
L 337.958546 261.287554 
L 339.772259 254.109016 
L 341.585971 260.928617 
L 343.399684 263.098456 
L 345.213396 264.275021 
L 347.027109 264.523386 
L 348.840821 264.120725 
L 350.654534 261.819152 
L 352.468247 263.972676 
L 354.281959 260.728172 
L 356.095672 263.915432 
L 357.909384 245.729115 
L 359.723097 262.671649 
L 361.536809 260.57686 
L 363.350522 264.483111 
L 365.164234 264.359115 
L 366.977947 264.532616 
L 368.791659 264.335062 
L 370.605372 263.95114 
L 372.419085 264.471178 
L 374.232797 264.44526 
L 376.04651 262.033861 
L 377.860222 264.100028 
L 379.673935 262.909292 
L 381.487647 264.185054 
L 383.30136 258.878113 
L 385.115072 263.409099 
L 386.928785 264.000179 
L 388.742497 264.362937 
L 390.55621 263.191873 
L 392.369923 264.309144 
L 394.183635 264.476678 
L 395.997348 262.690761 
L 397.81106 262.804408 
L 399.624773 264.324993 
L 399.624773 264.324993 
" style="fill:none;stroke:#2ca02c;stroke-linecap:square;stroke-width:1.5;"/>
   </g>
   <g id="line2d_18">
    <path clip-path="url(#pf9ef2dca65)" d="M 74.970227 262.331731 
L 76.78394 263.389801 
L 78.597652 262.138931 
L 80.411365 264.36676 
L 82.225077 260.337072 
L 84.03879 264.159882 
L 85.852503 264.10413 
L 87.666215 260.809749 
L 89.479928 264.298515 
L 91.29364 258.254217 
L 93.107353 264.524878 
L 94.921065 264.279962 
L 96.734778 260.191446 
L 98.54849 260.669531 
L 100.362203 263.301605 
L 102.175915 262.739707 
L 103.989628 264.261316 
L 107.617053 264.324433 
L 109.430766 263.295265 
L 111.244478 259.185679 
L 113.058191 263.574117 
L 114.871903 263.083446 
L 116.685616 262.876475 
L 118.499328 264.236238 
L 120.313041 263.289951 
L 122.126753 263.943681 
L 123.940466 264.379626 
L 125.754179 263.814464 
L 127.567891 264.041293 
L 129.381604 264.561891 
L 131.195316 264.142261 
L 134.822741 264.335155 
L 136.636454 263.867046 
L 138.450166 264.551262 
L 140.263879 263.405557 
L 142.077591 264.429783 
L 143.891304 260.263979 
L 145.705017 264.168832 
L 147.518729 263.865088 
L 149.332442 264.552568 
L 151.146154 263.273449 
L 152.959867 264.536439 
L 156.587292 264.344757 
L 158.401004 264.109817 
L 160.214717 264.082035 
L 162.028429 262.144059 
L 163.842142 264.324899 
L 165.655854 261.73366 
L 167.469567 264.584918 
L 169.28328 264.616337 
L 171.096992 253.867084 
L 172.910705 264.437615 
L 174.724417 261.976804 
L 176.53813 263.497482 
L 178.351842 262.550636 
L 180.165555 262.390094 
L 181.979267 264.455328 
L 183.79298 263.841967 
L 187.420405 264.563569 
L 189.234118 258.518897 
L 191.04783 263.36379 
L 194.675255 263.279882 
L 196.488968 260.767049 
L 198.30268 264.239314 
L 200.116393 262.642188 
L 201.930105 263.030492 
L 203.743818 264.586224 
L 205.55753 264.268122 
L 209.184956 264.356132 
L 210.998668 262.389068 
L 212.812381 263.479022 
L 214.626093 264.39361 
L 216.439806 264.031784 
L 218.253518 262.66158 
L 220.067231 264.209294 
L 221.880943 264.527489 
L 223.694656 262.57441 
L 225.508368 264.39622 
L 227.322081 264.119979 
L 229.135794 264.435191 
L 230.949506 262.997302 
L 232.763219 263.985914 
L 234.576931 263.912915 
L 236.390644 264.423817 
L 238.204356 262.403892 
L 240.018069 263.645065 
L 241.831781 264.520496 
L 243.645494 263.647489 
L 245.459206 261.951632 
L 247.272919 263.989084 
L 249.086632 263.683569 
L 250.900344 262.604616 
L 252.714057 263.620825 
L 254.527769 264.414867 
L 256.341482 263.742863 
L 258.155194 264.576714 
L 259.968907 264.343173 
L 261.782619 264.27036 
L 263.596332 264.375523 
L 265.410044 263.59873 
L 267.223757 264.108232 
L 269.03747 263.851477 
L 270.851182 261.530791 
L 272.664895 262.850278 
L 274.478607 262.150678 
L 276.29232 264.229525 
L 278.106032 264.389601 
L 279.919745 263.835907 
L 283.54717 263.471191 
L 285.360882 263.768129 
L 287.174595 261.96226 
L 288.988308 262.614778 
L 290.80202 264.059007 
L 292.615733 262.837039 
L 294.429445 263.84495 
L 296.243158 263.50755 
L 298.05687 264.120725 
L 299.870583 264.472296 
L 301.684295 262.835174 
L 303.498008 264.436682 
L 305.31172 263.401082 
L 307.125433 264.235212 
L 308.939146 263.876555 
L 312.566571 261.873132 
L 314.380283 264.105249 
L 316.193996 264.035979 
L 318.007708 264.424656 
L 319.821421 263.791436 
L 321.635133 264.480967 
L 323.448846 264.138253 
L 325.262558 262.666987 
L 327.076271 262.483231 
L 328.889983 261.001617 
L 330.703696 264.304482 
L 332.517409 264.198573 
L 334.331121 264.434072 
L 336.144834 261.594374 
L 337.958546 262.988165 
L 339.772259 252.313963 
L 341.585971 262.575808 
L 343.399684 263.843272 
L 345.213396 263.706877 
L 347.027109 264.229711 
L 350.654534 263.921492 
L 352.468247 264.332358 
L 354.281959 263.455248 
L 356.095672 264.076814 
L 357.909384 253.853379 
L 359.723097 264.433419 
L 361.536809 263.237649 
L 363.350522 264.476678 
L 366.977947 264.146177 
L 368.791659 264.376735 
L 370.605372 263.69746 
L 372.419085 264.355945 
L 374.232797 264.338791 
L 376.04651 263.862385 
L 377.860222 264.559373 
L 379.673935 264.427732 
L 381.487647 264.543431 
L 383.30136 263.340575 
L 385.115072 264.350631 
L 386.928785 263.940884 
L 388.742497 264.550796 
L 390.55621 262.871814 
L 392.369923 264.557788 
L 394.183635 264.533269 
L 397.81106 261.592509 
L 399.624773 263.054918 
L 399.624773 263.054918 
" style="fill:none;stroke:#d62728;stroke-linecap:square;stroke-width:1.5;"/>
   </g>
   <g id="line2d_19">
    <path clip-path="url(#pf9ef2dca65)" d="M 74.970227 264.002416 
L 76.78394 263.282773 
L 78.597652 262.367905 
L 80.411365 264.432207 
L 82.225077 261.979135 
L 84.03879 263.962514 
L 85.852503 264.154568 
L 87.666215 262.347954 
L 89.479928 264.448989 
L 91.29364 256.264871 
L 93.107353 264.522081 
L 94.921065 264.315017 
L 96.734778 262.131566 
L 98.54849 264.072339 
L 100.362203 262.59548 
L 102.175915 262.560798 
L 103.989628 264.475466 
L 105.803341 264.214608 
L 107.617053 264.485442 
L 109.430766 263.855206 
L 111.244478 263.514263 
L 113.058191 262.771778 
L 114.871903 264.070381 
L 116.685616 264.303736 
L 118.499328 263.721793 
L 120.313041 263.66194 
L 123.940466 264.48367 
L 125.754179 263.78202 
L 127.567891 263.623342 
L 129.381604 264.498774 
L 133.009029 264.311101 
L 134.822741 263.873199 
L 136.636454 263.931095 
L 138.450166 264.359115 
L 140.263879 263.868165 
L 142.077591 264.504088 
L 143.891304 263.802065 
L 145.705017 264.41179 
L 147.518729 263.86313 
L 149.332442 264.498587 
L 151.146154 263.326497 
L 152.959867 263.539435 
L 154.773579 264.350817 
L 156.587292 264.603285 
L 158.401004 264.014256 
L 160.214717 263.807006 
L 162.028429 262.669038 
L 163.842142 264.140304 
L 165.655854 262.245773 
L 167.469567 264.592097 
L 169.28328 264.585571 
L 171.096992 260.600727 
L 172.910705 264.271012 
L 174.724417 263.67089 
L 176.53813 263.455155 
L 178.351842 263.731303 
L 180.165555 261.774401 
L 181.979267 264.133591 
L 183.79298 263.017067 
L 185.606692 264.485069 
L 187.420405 264.115132 
L 189.234118 261.508882 
L 191.04783 263.53524 
L 192.861543 263.644599 
L 194.675255 262.973808 
L 196.488968 263.766824 
L 198.30268 262.768422 
L 200.116393 262.817554 
L 201.930105 263.891659 
L 203.743818 264.497189 
L 207.371243 264.157738 
L 209.184956 263.282027 
L 210.998668 263.127358 
L 214.626093 264.238195 
L 216.439806 264.186546 
L 218.253518 254.54869 
L 220.067231 264.520496 
L 221.880943 264.292362 
L 223.694656 261.824559 
L 225.508368 264.351656 
L 227.322081 264.293108 
L 229.135794 264.376456 
L 230.949506 263.430542 
L 232.763219 264.182071 
L 234.576931 262.738122 
L 236.390644 264.436682 
L 238.204356 263.06769 
L 240.018069 264.08334 
L 241.831781 264.290311 
L 243.645494 264.169764 
L 245.459206 262.954602 
L 247.272919 263.92401 
L 249.086632 263.456647 
L 250.900344 261.657771 
L 252.714057 263.460003 
L 254.527769 264.570747 
L 256.341482 263.310648 
L 258.155194 264.549304 
L 259.968907 264.443395 
L 261.782619 264.122776 
L 263.596332 264.052201 
L 265.410044 262.582241 
L 267.223757 263.401175 
L 269.03747 263.722632 
L 270.851182 262.418902 
L 272.664895 262.046167 
L 274.478607 262.785576 
L 276.29232 264.494951 
L 278.106032 264.434072 
L 279.919745 263.731583 
L 281.733457 263.616257 
L 283.54717 263.911983 
L 285.360882 263.005413 
L 288.988308 264.103664 
L 290.80202 263.901448 
L 292.615733 263.020236 
L 294.429445 263.782207 
L 296.243158 263.619333 
L 298.05687 264.402001 
L 299.870583 264.437149 
L 301.684295 262.94127 
L 303.498008 264.337485 
L 305.31172 260.923956 
L 307.125433 263.785283 
L 308.939146 264.142261 
L 310.752858 263.976591 
L 312.566571 263.372646 
L 314.380283 264.497748 
L 316.193996 263.335261 
L 318.007708 264.502037 
L 319.821421 264.346809 
L 321.635133 264.395568 
L 323.448846 262.642281 
L 325.262558 263.190848 
L 327.076271 263.470072 
L 328.889983 262.059686 
L 330.703696 263.843459 
L 332.517409 264.519937 
L 334.331121 264.561704 
L 336.144834 263.789572 
L 337.958546 264.162959 
L 339.772259 260.70067 
L 341.585971 262.042625 
L 343.399684 264.389508 
L 345.213396 264.330493 
L 347.027109 264.521615 
L 348.840821 264.322103 
L 350.654534 263.77885 
L 352.468247 264.335434 
L 354.281959 261.442595 
L 356.095672 264.18869 
L 357.909384 258.678694 
L 359.723097 263.32454 
L 361.536809 263.413481 
L 363.350522 264.538303 
L 365.164234 264.33068 
L 368.791659 264.590139 
L 370.605372 264.265698 
L 372.419085 264.38727 
L 374.232797 264.365734 
L 376.04651 263.537477 
L 377.860222 264.447777 
L 379.673935 264.063109 
L 381.487647 264.527022 
L 383.30136 262.506258 
L 385.115072 264.44787 
L 388.742497 264.512385 
L 390.55621 263.204273 
L 392.369923 264.510521 
L 394.183635 264.539981 
L 395.997348 264.21927 
L 397.81106 262.653562 
L 399.624773 264.127624 
L 399.624773 264.127624 
" style="fill:none;stroke:#9467bd;stroke-linecap:square;stroke-width:1.5;"/>
   </g>
   <g id="line2d_20">
    <path clip-path="url(#pf9ef2dca65)" d="M 74.970227 263.530672 
L 78.597652 264.144499 
L 80.411365 264.232229 
L 82.225077 262.566205 
L 84.03879 264.320518 
L 85.852503 264.074856 
L 87.666215 263.22786 
L 89.479928 263.580829 
L 91.29364 249.007741 
L 93.107353 264.47472 
L 94.921065 264.298609 
L 96.734778 263.073284 
L 98.54849 263.862664 
L 100.362203 263.610383 
L 102.175915 263.50522 
L 103.989628 264.470245 
L 105.803341 264.325179 
L 107.617053 264.40545 
L 109.430766 264.10413 
L 111.244478 263.023966 
L 113.058191 263.92112 
L 114.871903 263.824813 
L 116.685616 264.373099 
L 118.499328 263.356424 
L 120.313041 263.751347 
L 122.126753 263.838891 
L 123.940466 264.495138 
L 125.754179 264.365361 
L 127.567891 262.705491 
L 129.381604 264.458405 
L 131.195316 264.159136 
L 133.009029 264.253205 
L 134.822741 263.601713 
L 136.636454 264.509402 
L 138.450166 264.425122 
L 140.263879 264.205658 
L 142.077591 264.109817 
L 143.891304 262.663817 
L 145.705017 264.174426 
L 147.518729 264.039149 
L 149.332442 264.429317 
L 151.146154 261.676789 
L 152.959867 264.156246 
L 154.773579 264.044277 
L 156.587292 264.538956 
L 158.401004 264.403492 
L 160.214717 263.900889 
L 162.028429 261.829501 
L 163.842142 263.935197 
L 165.655854 262.212583 
L 167.469567 264.592843 
L 169.28328 264.620626 
L 171.096992 262.583639 
L 172.910705 264.526743 
L 174.724417 263.792182 
L 176.53813 263.844764 
L 178.351842 263.715454 
L 180.165555 263.236903 
L 181.979267 264.374218 
L 183.79298 263.032356 
L 185.606692 264.406383 
L 187.420405 264.337019 
L 189.234118 263.672848 
L 191.04783 263.71909 
L 192.861543 263.885506 
L 194.675255 263.874877 
L 196.488968 263.596399 
L 198.30268 263.596212 
L 200.116393 263.307572 
L 201.930105 264.209108 
L 203.743818 264.552568 
L 205.55753 264.538956 
L 207.371243 264.409273 
L 210.998668 263.495803 
L 212.812381 263.724031 
L 214.626093 264.334595 
L 216.439806 264.32695 
L 218.253518 262.910131 
L 220.067231 264.438454 
L 221.880943 263.97482 
L 223.694656 262.456287 
L 225.508368 264.411417 
L 227.322081 264.307465 
L 229.135794 264.4929 
L 230.949506 263.607773 
L 232.763219 264.166035 
L 234.576931 263.825745 
L 236.390644 264.330866 
L 238.204356 263.23709 
L 240.018069 264.03514 
L 241.831781 264.492341 
L 243.645494 263.217978 
L 245.459206 263.51995 
L 247.272919 263.332184 
L 249.086632 263.650472 
L 252.714057 263.640497 
L 254.527769 264.41496 
L 256.341482 264.175638 
L 258.155194 264.577926 
L 259.968907 264.367879 
L 261.782619 263.947877 
L 263.596332 264.447404 
L 267.223757 263.681332 
L 269.03747 264.015096 
L 270.851182 262.946305 
L 272.664895 262.037963 
L 274.478607 263.790131 
L 276.29232 264.532896 
L 278.106032 264.500172 
L 279.919745 263.470818 
L 281.733457 264.014443 
L 283.54717 262.874145 
L 285.360882 263.635276 
L 287.174595 264.08595 
L 288.988308 264.140397 
L 290.80202 263.542978 
L 292.615733 263.10461 
L 294.429445 263.240353 
L 296.243158 263.062097 
L 298.05687 264.454769 
L 299.870583 264.470432 
L 301.684295 262.212863 
L 303.498008 264.493087 
L 305.31172 262.389721 
L 307.125433 263.669957 
L 308.939146 264.416545 
L 310.752858 264.020876 
L 312.566571 264.059193 
L 314.380283 264.282759 
L 316.193996 262.869203 
L 318.007708 264.488985 
L 321.635133 264.443675 
L 323.448846 263.647396 
L 327.076271 264.022088 
L 328.889983 263.819312 
L 330.703696 264.419435 
L 332.517409 264.236144 
L 334.331121 264.414214 
L 336.144834 263.237276 
L 337.958546 264.049404 
L 339.772259 258.795418 
L 341.585971 263.685993 
L 343.399684 264.139931 
L 345.213396 264.453464 
L 348.840821 264.316415 
L 350.654534 264.026003 
L 352.468247 264.490383 
L 354.281959 263.396886 
L 356.095672 264.462507 
L 357.909384 254.434949 
L 359.723097 262.997115 
L 361.536809 263.342067 
L 363.350522 264.185986 
L 365.164234 263.967828 
L 366.977947 264.547999 
L 368.791659 264.541287 
L 370.605372 264.151491 
L 374.232797 264.3428 
L 376.04651 262.425801 
L 377.860222 264.529073 
L 379.673935 264.328629 
L 381.487647 264.400323 
L 383.30136 263.671356 
L 385.115072 264.417943 
L 386.928785 264.558627 
L 388.742497 264.206404 
L 390.55621 263.355492 
L 392.369923 264.411603 
L 394.183635 264.429038 
L 395.997348 264.297397 
L 397.81106 263.057995 
L 399.624773 263.68879 
L 399.624773 263.68879 
" style="fill:none;stroke:#8c564b;stroke-linecap:square;stroke-width:1.5;"/>
   </g>
   <g id="line2d_21">
    <path clip-path="url(#pf9ef2dca65)" d="M 74.970227 263.677323 
L 76.78394 264.015282 
L 78.597652 263.863597 
L 80.411365 264.479755 
L 82.225077 262.60098 
L 84.03879 264.41496 
L 85.852503 263.943122 
L 87.666215 264.00801 
L 89.479928 263.552021 
L 91.29364 260.147815 
L 93.107353 264.595733 
L 94.921065 264.490663 
L 96.734778 264.00829 
L 98.54849 263.943215 
L 103.989628 264.556856 
L 105.803341 264.401721 
L 107.617053 264.466423 
L 109.430766 264.247612 
L 111.244478 263.588195 
L 113.058191 263.797496 
L 114.871903 263.615604 
L 116.685616 264.520869 
L 118.499328 263.284917 
L 120.313041 264.015096 
L 122.126753 264.155127 
L 123.940466 264.465677 
L 125.754179 264.418875 
L 127.567891 263.541766 
L 129.381604 264.581562 
L 131.195316 264.169671 
L 133.009029 264.400975 
L 134.822741 263.724684 
L 136.636454 264.32117 
L 140.263879 264.407315 
L 142.077591 264.265325 
L 143.891304 263.511 
L 145.705017 264.229711 
L 147.518729 263.68562 
L 149.332442 264.480687 
L 151.146154 263.945919 
L 152.959867 264.485069 
L 154.773579 264.423257 
L 156.587292 264.612515 
L 160.214717 264.253392 
L 162.028429 263.807658 
L 163.842142 264.362751 
L 165.655854 263.980787 
L 167.469567 264.620998 
L 169.28328 264.590139 
L 171.096992 262.808977 
L 172.910705 264.525344 
L 174.724417 264.18925 
L 176.53813 263.33293 
L 178.351842 263.50466 
L 180.165555 264.190741 
L 181.979267 264.343079 
L 183.79298 263.678068 
L 185.606692 264.497282 
L 187.420405 264.504927 
L 189.234118 263.645531 
L 191.04783 264.01752 
L 192.861543 263.753771 
L 194.675255 263.879819 
L 196.488968 264.334129 
L 198.30268 263.676297 
L 200.116393 263.882895 
L 201.930105 264.434352 
L 205.55753 264.528141 
L 207.371243 264.350538 
L 209.184956 263.367612 
L 210.998668 263.866953 
L 212.812381 263.762628 
L 214.626093 264.517513 
L 216.439806 263.970532 
L 218.253518 263.646743 
L 220.067231 264.428012 
L 221.880943 262.931574 
L 223.694656 263.560878 
L 225.508368 264.425215 
L 229.135794 264.510614 
L 230.949506 263.848959 
L 232.763219 264.090985 
L 234.576931 264.057422 
L 236.390644 264.295252 
L 238.204356 264.242111 
L 240.018069 264.5053 
L 241.831781 264.425961 
L 243.645494 264.055185 
L 245.459206 264.315763 
L 247.272919 264.004467 
L 249.086632 263.968667 
L 250.900344 263.084658 
L 252.714057 264.141982 
L 254.527769 264.559746 
L 258.155194 264.588461 
L 259.968907 264.271665 
L 261.782619 264.195682 
L 263.596332 264.474814 
L 265.410044 264.289099 
L 267.223757 262.541872 
L 269.03747 262.952831 
L 270.851182 263.546707 
L 274.478607 264.353055 
L 276.29232 264.579418 
L 278.106032 264.067677 
L 279.919745 264.1679 
L 281.733457 263.699698 
L 283.54717 263.776053 
L 285.360882 263.480234 
L 287.174595 264.507164 
L 288.988308 264.513131 
L 290.80202 263.954123 
L 292.615733 263.784537 
L 294.429445 264.018825 
L 296.243158 263.539622 
L 298.05687 264.381677 
L 299.870583 264.475746 
L 301.684295 262.827623 
L 303.498008 264.535693 
L 305.31172 263.195882 
L 307.125433 264.282946 
L 308.939146 264.544363 
L 312.566571 264.316882 
L 314.380283 264.579977 
L 316.193996 263.767103 
L 318.007708 264.366014 
L 319.821421 264.228406 
L 321.635133 264.519098 
L 323.448846 264.489451 
L 325.262558 264.13732 
L 327.076271 264.14021 
L 330.703696 264.5356 
L 332.517409 264.501384 
L 334.331121 264.596665 
L 336.144834 263.704639 
L 337.958546 264.32117 
L 339.772259 262.503928 
L 341.585971 264.162492 
L 343.399684 264.089027 
L 345.213396 264.340282 
L 347.027109 264.370303 
L 348.840821 264.563289 
L 350.654534 264.323128 
L 352.468247 264.52665 
L 354.281959 263.947877 
L 356.095672 264.443861 
L 357.909384 259.07371 
L 359.723097 263.857723 
L 361.536809 264.380651 
L 365.164234 264.393424 
L 368.791659 264.622677 
L 370.605372 264.286675 
L 372.419085 264.548838 
L 376.04651 263.568337 
L 377.860222 264.534201 
L 383.30136 264.410578 
L 386.928785 264.52926 
L 388.742497 264.301312 
L 390.55621 264.328722 
L 392.369923 264.47789 
L 395.997348 264.386618 
L 397.81106 263.503542 
L 399.624773 263.220495 
L 399.624773 263.220495 
" style="fill:none;stroke:#e377c2;stroke-linecap:square;stroke-width:1.5;"/>
   </g>
   <g id="line2d_22">
    <path clip-path="url(#pf9ef2dca65)" d="M 74.970227 264.249383 
L 78.597652 263.972116 
L 80.411365 264.535693 
L 82.225077 263.062283 
L 84.03879 264.512199 
L 85.852503 264.464558 
L 87.666215 264.045022 
L 89.479928 264.445166 
L 91.29364 260.836786 
L 93.107353 264.621558 
L 94.921065 264.576901 
L 96.734778 264.239407 
L 98.54849 264.141982 
L 100.362203 263.502516 
L 102.175915 263.432873 
L 103.989628 264.473788 
L 107.617053 264.538863 
L 109.430766 264.492807 
L 113.058191 264.094155 
L 114.871903 264.403772 
L 116.685616 264.573451 
L 118.499328 264.436123 
L 120.313041 264.456167 
L 122.126753 264.152797 
L 123.940466 264.564967 
L 125.754179 264.484043 
L 127.567891 264.12548 
L 129.381604 264.60114 
L 131.195316 264.452625 
L 133.009029 264.559373 
L 134.822741 264.147296 
L 136.636454 264.48367 
L 138.450166 264.587902 
L 140.263879 264.497282 
L 142.077591 264.549118 
L 143.891304 264.193538 
L 145.705017 264.5356 
L 147.518729 264.457007 
L 149.332442 264.580909 
L 151.146154 264.048472 
L 152.959867 264.561238 
L 158.401004 264.517699 
L 160.214717 263.689815 
L 162.028429 263.976405 
L 163.842142 264.534574 
L 165.655854 264.443022 
L 167.469567 264.629203 
L 169.28328 264.624168 
L 171.096992 263.174719 
L 172.910705 264.585944 
L 176.53813 264.05332 
L 178.351842 264.241925 
L 180.165555 264.257587 
L 181.979267 264.56506 
L 183.79298 263.538223 
L 185.606692 264.57774 
L 187.420405 264.55667 
L 191.04783 264.220575 
L 192.861543 264.451879 
L 194.675255 264.296371 
L 196.488968 263.699325 
L 200.116393 264.316788 
L 201.930105 264.552195 
L 205.55753 264.605615 
L 207.371243 264.572053 
L 209.184956 264.39044 
L 210.998668 263.966616 
L 212.812381 264.300939 
L 214.626093 264.502316 
L 216.439806 264.541566 
L 218.253518 264.311567 
L 220.067231 264.457193 
L 221.880943 264.25162 
L 225.508368 264.488891 
L 229.135794 264.478822 
L 230.949506 264.28826 
L 232.763219 264.238848 
L 236.390644 264.547999 
L 238.204356 264.25768 
L 240.018069 264.583613 
L 243.645494 264.542032 
L 245.459206 264.270173 
L 247.272919 264.170976 
L 249.086632 264.234746 
L 250.900344 264.071686 
L 252.714057 264.213116 
L 254.527769 264.592936 
L 265.410044 264.558161 
L 267.223757 264.145525 
L 269.03747 264.052481 
L 270.851182 264.345037 
L 272.664895 264.307092 
L 274.478607 264.519098 
L 276.29232 264.608133 
L 278.106032 264.539981 
L 279.919745 264.274555 
L 281.733457 263.676763 
L 283.54717 264.382422 
L 288.988308 264.575689 
L 290.80202 264.174426 
L 292.615733 264.209853 
L 294.429445 263.84206 
L 298.05687 264.407128 
L 299.870583 264.555924 
L 301.684295 263.819126 
L 303.498008 264.564128 
L 307.125433 264.361352 
L 308.939146 264.550796 
L 314.380283 264.597225 
L 316.193996 264.425961 
L 318.007708 264.556483 
L 328.889983 264.525997 
L 334.331121 264.597784 
L 336.144834 264.413095 
L 337.958546 264.400136 
L 339.772259 264.046794 
L 341.585971 263.880005 
L 343.399684 264.535227 
L 352.468247 264.572239 
L 354.281959 264.225609 
L 356.095672 264.56562 
L 357.909384 263.516501 
L 359.723097 264.196335 
L 361.536809 264.514436 
L 363.350522 264.47239 
L 366.977947 264.607946 
L 368.791659 264.624821 
L 370.605372 264.459337 
L 372.419085 264.596386 
L 374.232797 264.46605 
L 376.04651 263.298808 
L 377.860222 264.561518 
L 381.487647 264.532057 
L 383.30136 264.204726 
L 385.115072 264.573451 
L 386.928785 264.607946 
L 388.742497 264.447311 
L 394.183635 264.599462 
L 395.997348 264.469313 
L 397.81106 263.65299 
L 399.624773 263.926061 
L 399.624773 263.926061 
" style="fill:none;stroke:#7f7f7f;stroke-linecap:square;stroke-width:1.5;"/>
   </g>
   <g id="line2d_23">
    <path clip-path="url(#pf9ef2dca65)" d="M 74.970227 264.635076 
L 116.685616 264.631533 
L 294.429445 264.631533 
L 370.605372 264.629482 
L 399.624773 264.629203 
L 399.624773 264.629203 
" style="fill:none;stroke:#bcbd22;stroke-linecap:square;stroke-width:1.5;"/>
   </g>
   <g id="line2d_24">
    <path clip-path="url(#pf9ef2dca65)" d="M 74.970227 264.635076 
L 105.803341 264.626592 
L 265.410044 264.631813 
L 399.624773 264.628177 
L 399.624773 264.628177 
" style="fill:none;stroke:#17becf;stroke-linecap:square;stroke-width:1.5;"/>
   </g>
   <g id="line2d_25">
    <path clip-path="url(#pf9ef2dca65)" d="M 74.970227 264.623702 
L 89.479928 264.62305 
L 91.29364 264.543151 
L 94.921065 264.62855 
L 165.655854 264.61699 
L 185.606692 264.626033 
L 308.939146 264.629109 
L 323.448846 264.626965 
L 325.262558 264.700431 
L 328.889983 264.61699 
L 345.213396 264.62594 
L 352.468247 264.617922 
L 370.605372 264.630321 
L 386.928785 264.62883 
L 399.624773 264.632652 
L 399.624773 264.632652 
" style="fill:none;stroke:#1f77b4;stroke-linecap:square;stroke-width:1.5;"/>
   </g>
   <g id="line2d_26">
    <path clip-path="url(#pf9ef2dca65)" d="M 74.970227 264.635076 
L 399.624773 264.635076 
L 399.624773 264.635076 
" style="fill:none;stroke:#ff7f0e;stroke-linecap:square;stroke-width:1.5;"/>
   </g>
   <g id="patch_3">
    <path d="M 58.7375 276.812 
L 58.7375 10.7 
" style="fill:none;stroke:#000000;stroke-linecap:square;stroke-linejoin:miter;stroke-width:0.8;"/>
   </g>
   <g id="patch_4">
    <path d="M 415.8575 276.812 
L 415.8575 10.7 
" style="fill:none;stroke:#000000;stroke-linecap:square;stroke-linejoin:miter;stroke-width:0.8;"/>
   </g>
   <g id="patch_5">
    <path d="M 58.7375 276.812 
L 415.8575 276.812 
" style="fill:none;stroke:#000000;stroke-linecap:square;stroke-linejoin:miter;stroke-width:0.8;"/>
   </g>
   <g id="patch_6">
    <path d="M 58.7375 10.7 
L 415.8575 10.7 
" style="fill:none;stroke:#000000;stroke-linecap:square;stroke-linejoin:miter;stroke-width:0.8;"/>
   </g>
   <g id="legend_1">
    <g id="patch_7">
     <path d="M 192.120937 165.48125 
L 282.474063 165.48125 
Q 284.474063 165.48125 284.474063 163.48125 
L 284.474063 17.7 
Q 284.474063 15.7 282.474063 15.7 
L 192.120937 15.7 
Q 190.120937 15.7 190.120937 17.7 
L 190.120937 163.48125 
Q 190.120937 165.48125 192.120937 165.48125 
z
" style="fill:#ffffff;opacity:0.8;stroke:#cccccc;stroke-linejoin:miter;"/>
    </g>
    <g id="line2d_27">
     <path d="M 194.120937 23.798437 
L 214.120937 23.798437 
" style="fill:none;stroke:#1f77b4;stroke-linecap:square;stroke-width:1.5;"/>
    </g>
    <g id="line2d_28"/>
    <g id="text_15">
     <!-- delta -->
     <defs>
      <path d="M 45.40625 46.390625 
L 45.40625 75.984375 
L 54.390625 75.984375 
L 54.390625 0 
L 45.40625 0 
L 45.40625 8.203125 
Q 42.578125 3.328125 38.25 0.953125 
Q 33.9375 -1.421875 27.875 -1.421875 
Q 17.96875 -1.421875 11.734375 6.484375 
Q 5.515625 14.40625 5.515625 27.296875 
Q 5.515625 40.1875 11.734375 48.09375 
Q 17.96875 56 27.875 56 
Q 33.9375 56 38.25 53.625 
Q 42.578125 51.265625 45.40625 46.390625 
M 14.796875 27.296875 
Q 14.796875 17.390625 18.875 11.75 
Q 22.953125 6.109375 30.078125 6.109375 
Q 37.203125 6.109375 41.296875 11.75 
Q 45.40625 17.390625 45.40625 27.296875 
Q 45.40625 37.203125 41.296875 42.84375 
Q 37.203125 48.484375 30.078125 48.484375 
Q 22.953125 48.484375 18.875 42.84375 
Q 14.796875 37.203125 14.796875 27.296875 
" id="DejaVuSans-64"/>
      <path d="M 56.203125 29.59375 
L 56.203125 25.203125 
L 14.890625 25.203125 
Q 15.484375 15.921875 20.484375 11.0625 
Q 25.484375 6.203125 34.421875 6.203125 
Q 39.59375 6.203125 44.453125 7.46875 
Q 49.3125 8.734375 54.109375 11.28125 
L 54.109375 2.78125 
Q 49.265625 0.734375 44.1875 -0.34375 
Q 39.109375 -1.421875 33.890625 -1.421875 
Q 20.796875 -1.421875 13.15625 6.1875 
Q 5.515625 13.8125 5.515625 26.8125 
Q 5.515625 40.234375 12.765625 48.109375 
Q 20.015625 56 32.328125 56 
Q 43.359375 56 49.78125 48.890625 
Q 56.203125 41.796875 56.203125 29.59375 
M 47.21875 32.234375 
Q 47.125 39.59375 43.09375 43.984375 
Q 39.0625 48.390625 32.421875 48.390625 
Q 24.90625 48.390625 20.390625 44.140625 
Q 15.875 39.890625 15.1875 32.171875 
z
" id="DejaVuSans-65"/>
      <path d="M 9.421875 75.984375 
L 18.40625 75.984375 
L 18.40625 0 
L 9.421875 0 
z
" id="DejaVuSans-6c"/>
      <path d="M 18.3125 70.21875 
L 18.3125 54.6875 
L 36.8125 54.6875 
L 36.8125 47.703125 
L 18.3125 47.703125 
L 18.3125 18.015625 
Q 18.3125 11.328125 20.140625 9.421875 
Q 21.96875 7.515625 27.59375 7.515625 
L 36.8125 7.515625 
L 36.8125 0 
L 27.59375 0 
Q 17.1875 0 13.234375 3.875 
Q 9.28125 7.765625 9.28125 18.015625 
L 9.28125 47.703125 
L 2.6875 47.703125 
L 2.6875 54.6875 
L 9.28125 54.6875 
L 9.28125 70.21875 
z
" id="DejaVuSans-74"/>
      <path d="M 34.28125 27.484375 
Q 23.390625 27.484375 19.1875 25 
Q 14.984375 22.515625 14.984375 16.5 
Q 14.984375 11.71875 18.140625 8.90625 
Q 21.296875 6.109375 26.703125 6.109375 
Q 34.1875 6.109375 38.703125 11.40625 
Q 43.21875 16.703125 43.21875 25.484375 
L 43.21875 27.484375 
z
M 52.203125 31.203125 
L 52.203125 0 
L 43.21875 0 
L 43.21875 8.296875 
Q 40.140625 3.328125 35.546875 0.953125 
Q 30.953125 -1.421875 24.3125 -1.421875 
Q 15.921875 -1.421875 10.953125 3.296875 
Q 6 8.015625 6 15.921875 
Q 6 25.140625 12.171875 29.828125 
Q 18.359375 34.515625 30.609375 34.515625 
L 43.21875 34.515625 
L 43.21875 35.40625 
Q 43.21875 41.609375 39.140625 45 
Q 35.0625 48.390625 27.6875 48.390625 
Q 23 48.390625 18.546875 47.265625 
Q 14.109375 46.140625 10.015625 43.890625 
L 10.015625 52.203125 
Q 14.9375 54.109375 19.578125 55.046875 
Q 24.21875 56 28.609375 56 
Q 40.484375 56 46.34375 49.84375 
Q 52.203125 43.703125 52.203125 31.203125 
" id="DejaVuSans-61"/>
     </defs>
     <g transform="translate(222.120937 27.298437)scale(0.1 -0.1)">
      <use xlink:href="#DejaVuSans-64"/>
      <use x="63.476562" xlink:href="#DejaVuSans-65"/>
      <use x="125" xlink:href="#DejaVuSans-6c"/>
      <use x="152.783203" xlink:href="#DejaVuSans-74"/>
      <use x="191.992188" xlink:href="#DejaVuSans-61"/>
     </g>
    </g>
    <g id="line2d_29">
     <path d="M 194.120937 38.476562 
L 214.120937 38.476562 
" style="fill:none;stroke:#ff7f0e;stroke-linecap:square;stroke-width:1.5;"/>
    </g>
    <g id="line2d_30"/>
    <g id="text_16">
     <!-- lowAlpha -->
     <defs>
      <path d="M 30.609375 48.390625 
Q 23.390625 48.390625 19.1875 42.75 
Q 14.984375 37.109375 14.984375 27.296875 
Q 14.984375 17.484375 19.15625 11.84375 
Q 23.34375 6.203125 30.609375 6.203125 
Q 37.796875 6.203125 41.984375 11.859375 
Q 46.1875 17.53125 46.1875 27.296875 
Q 46.1875 37.015625 41.984375 42.703125 
Q 37.796875 48.390625 30.609375 48.390625 
M 30.609375 56 
Q 42.328125 56 49.015625 48.375 
Q 55.71875 40.765625 55.71875 27.296875 
Q 55.71875 13.875 49.015625 6.21875 
Q 42.328125 -1.421875 30.609375 -1.421875 
Q 18.84375 -1.421875 12.171875 6.21875 
Q 5.515625 13.875 5.515625 27.296875 
Q 5.515625 40.765625 12.171875 48.375 
Q 18.84375 56 30.609375 56 
" id="DejaVuSans-6f"/>
      <path d="M 4.203125 54.6875 
L 13.1875 54.6875 
L 24.421875 12.015625 
L 35.59375 54.6875 
L 46.1875 54.6875 
L 57.421875 12.015625 
L 68.609375 54.6875 
L 77.59375 54.6875 
L 63.28125 0 
L 52.6875 0 
L 40.921875 44.828125 
L 29.109375 0 
L 18.5 0 
z
" id="DejaVuSans-77"/>
      <path d="M 34.1875 63.1875 
L 20.796875 26.90625 
L 47.609375 26.90625 
z
M 28.609375 72.90625 
L 39.796875 72.90625 
L 67.578125 0 
L 57.328125 0 
L 50.6875 18.703125 
L 17.828125 18.703125 
L 11.1875 0 
L 0.78125 0 
z
" id="DejaVuSans-41"/>
      <path d="M 18.109375 8.203125 
L 18.109375 -20.796875 
L 9.078125 -20.796875 
L 9.078125 54.6875 
L 18.109375 54.6875 
L 18.109375 46.390625 
Q 20.953125 51.265625 25.265625 53.625 
Q 29.59375 56 35.59375 56 
Q 45.5625 56 51.78125 48.09375 
Q 58.015625 40.1875 58.015625 27.296875 
Q 58.015625 14.40625 51.78125 6.484375 
Q 45.5625 -1.421875 35.59375 -1.421875 
Q 29.59375 -1.421875 25.265625 0.953125 
Q 20.953125 3.328125 18.109375 8.203125 
M 48.6875 27.296875 
Q 48.6875 37.203125 44.609375 42.84375 
Q 40.53125 48.484375 33.40625 48.484375 
Q 26.265625 48.484375 22.1875 42.84375 
Q 18.109375 37.203125 18.109375 27.296875 
Q 18.109375 17.390625 22.1875 11.75 
Q 26.265625 6.109375 33.40625 6.109375 
Q 40.53125 6.109375 44.609375 11.75 
Q 48.6875 17.390625 48.6875 27.296875 
" id="DejaVuSans-70"/>
      <path d="M 54.890625 33.015625 
L 54.890625 0 
L 45.90625 0 
L 45.90625 32.71875 
Q 45.90625 40.484375 42.875 44.328125 
Q 39.84375 48.1875 33.796875 48.1875 
Q 26.515625 48.1875 22.3125 43.546875 
Q 18.109375 38.921875 18.109375 30.90625 
L 18.109375 0 
L 9.078125 0 
L 9.078125 75.984375 
L 18.109375 75.984375 
L 18.109375 46.1875 
Q 21.34375 51.125 25.703125 53.5625 
Q 30.078125 56 35.796875 56 
Q 45.21875 56 50.046875 50.171875 
Q 54.890625 44.34375 54.890625 33.015625 
" id="DejaVuSans-68"/>
     </defs>
     <g transform="translate(222.120937 41.976562)scale(0.1 -0.1)">
      <use xlink:href="#DejaVuSans-6c"/>
      <use x="27.783203" xlink:href="#DejaVuSans-6f"/>
      <use x="88.964844" xlink:href="#DejaVuSans-77"/>
      <use x="170.751953" xlink:href="#DejaVuSans-41"/>
      <use x="239.160156" xlink:href="#DejaVuSans-6c"/>
      <use x="266.943359" xlink:href="#DejaVuSans-70"/>
      <use x="330.419922" xlink:href="#DejaVuSans-68"/>
      <use x="393.798828" xlink:href="#DejaVuSans-61"/>
     </g>
    </g>
    <g id="line2d_31">
     <path d="M 194.120937 53.154687 
L 214.120937 53.154687 
" style="fill:none;stroke:#2ca02c;stroke-linecap:square;stroke-width:1.5;"/>
    </g>
    <g id="line2d_32"/>
    <g id="text_17">
     <!-- highAlpha -->
     <defs>
      <path d="M 9.421875 54.6875 
L 18.40625 54.6875 
L 18.40625 0 
L 9.421875 0 
z
M 9.421875 75.984375 
L 18.40625 75.984375 
L 18.40625 64.59375 
L 9.421875 64.59375 
z
" id="DejaVuSans-69"/>
      <path d="M 45.40625 27.984375 
Q 45.40625 37.75 41.375 43.109375 
Q 37.359375 48.484375 30.078125 48.484375 
Q 22.859375 48.484375 18.828125 43.109375 
Q 14.796875 37.75 14.796875 27.984375 
Q 14.796875 18.265625 18.828125 12.890625 
Q 22.859375 7.515625 30.078125 7.515625 
Q 37.359375 7.515625 41.375 12.890625 
Q 45.40625 18.265625 45.40625 27.984375 
M 54.390625 6.78125 
Q 54.390625 -7.171875 48.1875 -13.984375 
Q 42 -20.796875 29.203125 -20.796875 
Q 24.46875 -20.796875 20.265625 -20.09375 
Q 16.0625 -19.390625 12.109375 -17.921875 
L 12.109375 -9.1875 
Q 16.0625 -11.328125 19.921875 -12.34375 
Q 23.78125 -13.375 27.78125 -13.375 
Q 36.625 -13.375 41.015625 -8.765625 
Q 45.40625 -4.15625 45.40625 5.171875 
L 45.40625 9.625 
Q 42.625 4.78125 38.28125 2.390625 
Q 33.9375 0 27.875 0 
Q 17.828125 0 11.671875 7.65625 
Q 5.515625 15.328125 5.515625 27.984375 
Q 5.515625 40.671875 11.671875 48.328125 
Q 17.828125 56 27.875 56 
Q 33.9375 56 38.28125 53.609375 
Q 42.625 51.21875 45.40625 46.390625 
L 45.40625 54.6875 
L 54.390625 54.6875 
z
" id="DejaVuSans-67"/>
     </defs>
     <g transform="translate(222.120937 56.654687)scale(0.1 -0.1)">
      <use xlink:href="#DejaVuSans-68"/>
      <use x="63.378906" xlink:href="#DejaVuSans-69"/>
      <use x="91.162109" xlink:href="#DejaVuSans-67"/>
      <use x="154.638672" xlink:href="#DejaVuSans-68"/>
      <use x="218.017578" xlink:href="#DejaVuSans-41"/>
      <use x="286.425781" xlink:href="#DejaVuSans-6c"/>
      <use x="314.208984" xlink:href="#DejaVuSans-70"/>
      <use x="377.685547" xlink:href="#DejaVuSans-68"/>
      <use x="441.064453" xlink:href="#DejaVuSans-61"/>
     </g>
    </g>
    <g id="line2d_33">
     <path d="M 194.120937 67.832812 
L 214.120937 67.832812 
" style="fill:none;stroke:#d62728;stroke-linecap:square;stroke-width:1.5;"/>
    </g>
    <g id="line2d_34"/>
    <g id="text_18">
     <!-- lowBeta -->
     <defs>
      <path d="M 19.671875 34.8125 
L 19.671875 8.109375 
L 35.5 8.109375 
Q 43.453125 8.109375 47.28125 11.40625 
Q 51.125 14.703125 51.125 21.484375 
Q 51.125 28.328125 47.28125 31.5625 
Q 43.453125 34.8125 35.5 34.8125 
z
M 19.671875 64.796875 
L 19.671875 42.828125 
L 34.28125 42.828125 
Q 41.5 42.828125 45.03125 45.53125 
Q 48.578125 48.25 48.578125 53.8125 
Q 48.578125 59.328125 45.03125 62.0625 
Q 41.5 64.796875 34.28125 64.796875 
z
M 9.8125 72.90625 
L 35.015625 72.90625 
Q 46.296875 72.90625 52.390625 68.21875 
Q 58.5 63.53125 58.5 54.890625 
Q 58.5 48.1875 55.375 44.234375 
Q 52.25 40.28125 46.1875 39.3125 
Q 53.46875 37.75 57.5 32.78125 
Q 61.53125 27.828125 61.53125 20.40625 
Q 61.53125 10.640625 54.890625 5.3125 
Q 48.25 0 35.984375 0 
L 9.8125 0 
z
" id="DejaVuSans-42"/>
     </defs>
     <g transform="translate(222.120937 71.332812)scale(0.1 -0.1)">
      <use xlink:href="#DejaVuSans-6c"/>
      <use x="27.783203" xlink:href="#DejaVuSans-6f"/>
      <use x="88.964844" xlink:href="#DejaVuSans-77"/>
      <use x="170.751953" xlink:href="#DejaVuSans-42"/>
      <use x="239.355469" xlink:href="#DejaVuSans-65"/>
      <use x="300.878906" xlink:href="#DejaVuSans-74"/>
      <use x="340.087891" xlink:href="#DejaVuSans-61"/>
     </g>
    </g>
    <g id="line2d_35">
     <path d="M 194.120937 82.510938 
L 214.120937 82.510938 
" style="fill:none;stroke:#9467bd;stroke-linecap:square;stroke-width:1.5;"/>
    </g>
    <g id="line2d_36"/>
    <g id="text_19">
     <!-- highBeta -->
     <g transform="translate(222.120937 86.010938)scale(0.1 -0.1)">
      <use xlink:href="#DejaVuSans-68"/>
      <use x="63.378906" xlink:href="#DejaVuSans-69"/>
      <use x="91.162109" xlink:href="#DejaVuSans-67"/>
      <use x="154.638672" xlink:href="#DejaVuSans-68"/>
      <use x="218.017578" xlink:href="#DejaVuSans-42"/>
      <use x="286.621094" xlink:href="#DejaVuSans-65"/>
      <use x="348.144531" xlink:href="#DejaVuSans-74"/>
      <use x="387.353516" xlink:href="#DejaVuSans-61"/>
     </g>
    </g>
    <g id="line2d_37">
     <path d="M 194.120937 97.189062 
L 214.120937 97.189062 
" style="fill:none;stroke:#8c564b;stroke-linecap:square;stroke-width:1.5;"/>
    </g>
    <g id="line2d_38"/>
    <g id="text_20">
     <!-- lowGamma -->
     <defs>
      <path d="M 59.515625 10.40625 
L 59.515625 29.984375 
L 43.40625 29.984375 
L 43.40625 38.09375 
L 69.28125 38.09375 
L 69.28125 6.78125 
Q 63.578125 2.734375 56.6875 0.65625 
Q 49.8125 -1.421875 42 -1.421875 
Q 24.90625 -1.421875 15.25 8.5625 
Q 5.609375 18.5625 5.609375 36.375 
Q 5.609375 54.25 15.25 64.234375 
Q 24.90625 74.21875 42 74.21875 
Q 49.125 74.21875 55.546875 72.453125 
Q 61.96875 70.703125 67.390625 67.28125 
L 67.390625 56.78125 
Q 61.921875 61.421875 55.765625 63.765625 
Q 49.609375 66.109375 42.828125 66.109375 
Q 29.4375 66.109375 22.71875 58.640625 
Q 16.015625 51.171875 16.015625 36.375 
Q 16.015625 21.625 22.71875 14.15625 
Q 29.4375 6.6875 42.828125 6.6875 
Q 48.046875 6.6875 52.140625 7.59375 
Q 56.25 8.5 59.515625 10.40625 
" id="DejaVuSans-47"/>
      <path d="M 52 44.1875 
Q 55.375 50.25 60.0625 53.125 
Q 64.75 56 71.09375 56 
Q 79.640625 56 84.28125 50.015625 
Q 88.921875 44.046875 88.921875 33.015625 
L 88.921875 0 
L 79.890625 0 
L 79.890625 32.71875 
Q 79.890625 40.578125 77.09375 44.375 
Q 74.3125 48.1875 68.609375 48.1875 
Q 61.625 48.1875 57.5625 43.546875 
Q 53.515625 38.921875 53.515625 30.90625 
L 53.515625 0 
L 44.484375 0 
L 44.484375 32.71875 
Q 44.484375 40.625 41.703125 44.40625 
Q 38.921875 48.1875 33.109375 48.1875 
Q 26.21875 48.1875 22.15625 43.53125 
Q 18.109375 38.875 18.109375 30.90625 
L 18.109375 0 
L 9.078125 0 
L 9.078125 54.6875 
L 18.109375 54.6875 
L 18.109375 46.1875 
Q 21.1875 51.21875 25.484375 53.609375 
Q 29.78125 56 35.6875 56 
Q 41.65625 56 45.828125 52.96875 
Q 50 49.953125 52 44.1875 
" id="DejaVuSans-6d"/>
     </defs>
     <g transform="translate(222.120937 100.689062)scale(0.1 -0.1)">
      <use xlink:href="#DejaVuSans-6c"/>
      <use x="27.783203" xlink:href="#DejaVuSans-6f"/>
      <use x="88.964844" xlink:href="#DejaVuSans-77"/>
      <use x="170.751953" xlink:href="#DejaVuSans-47"/>
      <use x="248.242188" xlink:href="#DejaVuSans-61"/>
      <use x="309.521484" xlink:href="#DejaVuSans-6d"/>
      <use x="406.933594" xlink:href="#DejaVuSans-6d"/>
      <use x="504.345703" xlink:href="#DejaVuSans-61"/>
     </g>
    </g>
    <g id="line2d_39">
     <path d="M 194.120937 111.867188 
L 214.120937 111.867188 
" style="fill:none;stroke:#e377c2;stroke-linecap:square;stroke-width:1.5;"/>
    </g>
    <g id="line2d_40"/>
    <g id="text_21">
     <!-- midGamma -->
     <g transform="translate(222.120937 115.367188)scale(0.1 -0.1)">
      <use xlink:href="#DejaVuSans-6d"/>
      <use x="97.412109" xlink:href="#DejaVuSans-69"/>
      <use x="125.195312" xlink:href="#DejaVuSans-64"/>
      <use x="188.671875" xlink:href="#DejaVuSans-47"/>
      <use x="266.162109" xlink:href="#DejaVuSans-61"/>
      <use x="327.441406" xlink:href="#DejaVuSans-6d"/>
      <use x="424.853516" xlink:href="#DejaVuSans-6d"/>
      <use x="522.265625" xlink:href="#DejaVuSans-61"/>
     </g>
    </g>
    <g id="line2d_41">
     <path d="M 194.120937 126.545312 
L 214.120937 126.545312 
" style="fill:none;stroke:#7f7f7f;stroke-linecap:square;stroke-width:1.5;"/>
    </g>
    <g id="line2d_42"/>
    <g id="text_22">
     <!-- attention -->
     <defs>
      <path d="M 54.890625 33.015625 
L 54.890625 0 
L 45.90625 0 
L 45.90625 32.71875 
Q 45.90625 40.484375 42.875 44.328125 
Q 39.84375 48.1875 33.796875 48.1875 
Q 26.515625 48.1875 22.3125 43.546875 
Q 18.109375 38.921875 18.109375 30.90625 
L 18.109375 0 
L 9.078125 0 
L 9.078125 54.6875 
L 18.109375 54.6875 
L 18.109375 46.1875 
Q 21.34375 51.125 25.703125 53.5625 
Q 30.078125 56 35.796875 56 
Q 45.21875 56 50.046875 50.171875 
Q 54.890625 44.34375 54.890625 33.015625 
" id="DejaVuSans-6e"/>
     </defs>
     <g transform="translate(222.120937 130.045312)scale(0.1 -0.1)">
      <use xlink:href="#DejaVuSans-61"/>
      <use x="61.279297" xlink:href="#DejaVuSans-74"/>
      <use x="100.488281" xlink:href="#DejaVuSans-74"/>
      <use x="139.697266" xlink:href="#DejaVuSans-65"/>
      <use x="201.220703" xlink:href="#DejaVuSans-6e"/>
      <use x="264.599609" xlink:href="#DejaVuSans-74"/>
      <use x="303.808594" xlink:href="#DejaVuSans-69"/>
      <use x="331.591797" xlink:href="#DejaVuSans-6f"/>
      <use x="392.773438" xlink:href="#DejaVuSans-6e"/>
     </g>
    </g>
    <g id="line2d_43">
     <path d="M 194.120937 141.223437 
L 214.120937 141.223437 
" style="fill:none;stroke:#bcbd22;stroke-linecap:square;stroke-width:1.5;"/>
    </g>
    <g id="line2d_44"/>
    <g id="text_23">
     <!-- meditation -->
     <g transform="translate(222.120937 144.723437)scale(0.1 -0.1)">
      <use xlink:href="#DejaVuSans-6d"/>
      <use x="97.412109" xlink:href="#DejaVuSans-65"/>
      <use x="158.935547" xlink:href="#DejaVuSans-64"/>
      <use x="222.412109" xlink:href="#DejaVuSans-69"/>
      <use x="250.195312" xlink:href="#DejaVuSans-74"/>
      <use x="289.404297" xlink:href="#DejaVuSans-61"/>
      <use x="350.683594" xlink:href="#DejaVuSans-74"/>
      <use x="389.892578" xlink:href="#DejaVuSans-69"/>
      <use x="417.675781" xlink:href="#DejaVuSans-6f"/>
      <use x="478.857422" xlink:href="#DejaVuSans-6e"/>
     </g>
    </g>
    <g id="line2d_45">
     <path d="M 194.120937 155.901562 
L 214.120937 155.901562 
" style="fill:none;stroke:#17becf;stroke-linecap:square;stroke-width:1.5;"/>
    </g>
    <g id="line2d_46"/>
    <g id="text_24">
     <!-- rawValue -->
     <defs>
      <path d="M 41.109375 46.296875 
Q 39.59375 47.171875 37.8125 47.578125 
Q 36.03125 48 33.890625 48 
Q 26.265625 48 22.1875 43.046875 
Q 18.109375 38.09375 18.109375 28.8125 
L 18.109375 0 
L 9.078125 0 
L 9.078125 54.6875 
L 18.109375 54.6875 
L 18.109375 46.1875 
Q 20.953125 51.171875 25.484375 53.578125 
Q 30.03125 56 36.53125 56 
Q 37.453125 56 38.578125 55.875 
Q 39.703125 55.765625 41.0625 55.515625 
z
" id="DejaVuSans-72"/>
      <path d="M 28.609375 0 
L 0.78125 72.90625 
L 11.078125 72.90625 
L 34.1875 11.53125 
L 57.328125 72.90625 
L 67.578125 72.90625 
L 39.796875 0 
z
" id="DejaVuSans-56"/>
      <path d="M 8.5 21.578125 
L 8.5 54.6875 
L 17.484375 54.6875 
L 17.484375 21.921875 
Q 17.484375 14.15625 20.5 10.265625 
Q 23.53125 6.390625 29.59375 6.390625 
Q 36.859375 6.390625 41.078125 11.03125 
Q 45.3125 15.671875 45.3125 23.6875 
L 45.3125 54.6875 
L 54.296875 54.6875 
L 54.296875 0 
L 45.3125 0 
L 45.3125 8.40625 
Q 42.046875 3.421875 37.71875 1 
Q 33.40625 -1.421875 27.6875 -1.421875 
Q 18.265625 -1.421875 13.375 4.4375 
Q 8.5 10.296875 8.5 21.578125 
M 31.109375 56 
z
" id="DejaVuSans-75"/>
     </defs>
     <g transform="translate(222.120937 159.401562)scale(0.1 -0.1)">
      <use xlink:href="#DejaVuSans-72"/>
      <use x="41.113281" xlink:href="#DejaVuSans-61"/>
      <use x="102.392578" xlink:href="#DejaVuSans-77"/>
      <use x="184.179688" xlink:href="#DejaVuSans-56"/>
      <use x="252.478516" xlink:href="#DejaVuSans-61"/>
      <use x="313.757812" xlink:href="#DejaVuSans-6c"/>
      <use x="341.541016" xlink:href="#DejaVuSans-75"/>
      <use x="404.919922" xlink:href="#DejaVuSans-65"/>
     </g>
    </g>
   </g>
  </g>
 </g>
 <defs>
  <clipPath id="pf9ef2dca65">
   <rect height="266.112" width="357.12" x="58.7375" y="10.7"/>
  </clipPath>
 </defs>
</svg>
