<?xml version="1.0" encoding="utf-8" standalone="no"?>
<!DOCTYPE svg PUBLIC "-//W3C//DTD SVG 1.1//EN"
  "http://www.w3.org/Graphics/SVG/1.1/DTD/svg11.dtd">
<!-- Created with matplotlib (http://matplotlib.org/) -->
<svg height="300pt" version="1.1" viewBox="0 0 428 300" width="428pt" xmlns="http://www.w3.org/2000/svg" xmlns:xlink="http://www.w3.org/1999/xlink">
 <defs>
  <style type="text/css">
*{stroke-linecap:butt;stroke-linejoin:round;}
  </style>
 </defs>
 <g id="figure_1">
  <g id="patch_1">
   <path d="M 0 300.690125 
L 428.143558 300.690125 
L 428.143558 0 
L 0 0 
z
" style="fill:#ffffff;"/>
  </g>
  <g id="axes_1">
   <g id="patch_2">
    <path d="M 58.7375 276.812 
L 415.8575 276.812 
L 415.8575 10.7 
L 58.7375 10.7 
z
" style="fill:#ffffff;"/>
   </g>
   <g id="matplotlib.axis_1">
    <g id="xtick_1">
     <g id="line2d_1">
      <defs>
       <path d="M 0 0 
L 0 3.5 
" id="m94ecf426df" style="stroke:#000000;stroke-width:0.8;"/>
      </defs>
      <g>
       <use style="stroke:#000000;stroke-width:0.8;" x="74.970227" xlink:href="#m94ecf426df" y="276.812"/>
      </g>
     </g>
     <g id="text_1">
      <!-- 0 -->
      <defs>
       <path d="M 31.78125 66.40625 
Q 24.171875 66.40625 20.328125 58.90625 
Q 16.5 51.421875 16.5 36.375 
Q 16.5 21.390625 20.328125 13.890625 
Q 24.171875 6.390625 31.78125 6.390625 
Q 39.453125 6.390625 43.28125 13.890625 
Q 47.125 21.390625 47.125 36.375 
Q 47.125 51.421875 43.28125 58.90625 
Q 39.453125 66.40625 31.78125 66.40625 
M 31.78125 74.21875 
Q 44.046875 74.21875 50.515625 64.515625 
Q 56.984375 54.828125 56.984375 36.375 
Q 56.984375 17.96875 50.515625 8.265625 
Q 44.046875 -1.421875 31.78125 -1.421875 
Q 19.53125 -1.421875 13.0625 8.265625 
Q 6.59375 17.96875 6.59375 36.375 
Q 6.59375 54.828125 13.0625 64.515625 
Q 19.53125 74.21875 31.78125 74.21875 
" id="DejaVuSans-30"/>
      </defs>
      <g transform="translate(71.788977 291.410437)scale(0.1 -0.1)">
       <use xlink:href="#DejaVuSans-30"/>
      </g>
     </g>
    </g>
    <g id="xtick_2">
     <g id="line2d_2">
      <g>
       <use style="stroke:#000000;stroke-width:0.8;" x="117.023925" xlink:href="#m94ecf426df" y="276.812"/>
      </g>
     </g>
     <g id="text_2">
      <!-- 25 -->
      <defs>
       <path d="M 19.1875 8.296875 
L 53.609375 8.296875 
L 53.609375 0 
L 7.328125 0 
L 7.328125 8.296875 
Q 12.9375 14.109375 22.625 23.890625 
Q 32.328125 33.6875 34.8125 36.53125 
Q 39.546875 41.84375 41.421875 45.53125 
Q 43.3125 49.21875 43.3125 52.78125 
Q 43.3125 58.59375 39.234375 62.25 
Q 35.15625 65.921875 28.609375 65.921875 
Q 23.96875 65.921875 18.8125 64.3125 
Q 13.671875 62.703125 7.8125 59.421875 
L 7.8125 69.390625 
Q 13.765625 71.78125 18.9375 73 
Q 24.125 74.21875 28.421875 74.21875 
Q 39.75 74.21875 46.484375 68.546875 
Q 53.21875 62.890625 53.21875 53.421875 
Q 53.21875 48.921875 51.53125 44.890625 
Q 49.859375 40.875 45.40625 35.40625 
Q 44.1875 33.984375 37.640625 27.21875 
Q 31.109375 20.453125 19.1875 8.296875 
" id="DejaVuSans-32"/>
       <path d="M 10.796875 72.90625 
L 49.515625 72.90625 
L 49.515625 64.59375 
L 19.828125 64.59375 
L 19.828125 46.734375 
Q 21.96875 47.46875 24.109375 47.828125 
Q 26.265625 48.1875 28.421875 48.1875 
Q 40.625 48.1875 47.75 41.5 
Q 54.890625 34.8125 54.890625 23.390625 
Q 54.890625 11.625 47.5625 5.09375 
Q 40.234375 -1.421875 26.90625 -1.421875 
Q 22.3125 -1.421875 17.546875 -0.640625 
Q 12.796875 0.140625 7.71875 1.703125 
L 7.71875 11.625 
Q 12.109375 9.234375 16.796875 8.0625 
Q 21.484375 6.890625 26.703125 6.890625 
Q 35.15625 6.890625 40.078125 11.328125 
Q 45.015625 15.765625 45.015625 23.390625 
Q 45.015625 31 40.078125 35.4375 
Q 35.15625 39.890625 26.703125 39.890625 
Q 22.75 39.890625 18.8125 39.015625 
Q 14.890625 38.140625 10.796875 36.28125 
z
" id="DejaVuSans-35"/>
      </defs>
      <g transform="translate(110.661425 291.410437)scale(0.1 -0.1)">
       <use xlink:href="#DejaVuSans-32"/>
       <use x="63.623047" xlink:href="#DejaVuSans-35"/>
      </g>
     </g>
    </g>
    <g id="xtick_3">
     <g id="line2d_3">
      <g>
       <use style="stroke:#000000;stroke-width:0.8;" x="159.077622" xlink:href="#m94ecf426df" y="276.812"/>
      </g>
     </g>
     <g id="text_3">
      <!-- 50 -->
      <g transform="translate(152.715122 291.410437)scale(0.1 -0.1)">
       <use xlink:href="#DejaVuSans-35"/>
       <use x="63.623047" xlink:href="#DejaVuSans-30"/>
      </g>
     </g>
    </g>
    <g id="xtick_4">
     <g id="line2d_4">
      <g>
       <use style="stroke:#000000;stroke-width:0.8;" x="201.13132" xlink:href="#m94ecf426df" y="276.812"/>
      </g>
     </g>
     <g id="text_4">
      <!-- 75 -->
      <defs>
       <path d="M 8.203125 72.90625 
L 55.078125 72.90625 
L 55.078125 68.703125 
L 28.609375 0 
L 18.3125 0 
L 43.21875 64.59375 
L 8.203125 64.59375 
z
" id="DejaVuSans-37"/>
      </defs>
      <g transform="translate(194.76882 291.410437)scale(0.1 -0.1)">
       <use xlink:href="#DejaVuSans-37"/>
       <use x="63.623047" xlink:href="#DejaVuSans-35"/>
      </g>
     </g>
    </g>
    <g id="xtick_5">
     <g id="line2d_5">
      <g>
       <use style="stroke:#000000;stroke-width:0.8;" x="243.185018" xlink:href="#m94ecf426df" y="276.812"/>
      </g>
     </g>
     <g id="text_5">
      <!-- 100 -->
      <defs>
       <path d="M 12.40625 8.296875 
L 28.515625 8.296875 
L 28.515625 63.921875 
L 10.984375 60.40625 
L 10.984375 69.390625 
L 28.421875 72.90625 
L 38.28125 72.90625 
L 38.28125 8.296875 
L 54.390625 8.296875 
L 54.390625 0 
L 12.40625 0 
z
" id="DejaVuSans-31"/>
      </defs>
      <g transform="translate(233.641268 291.410437)scale(0.1 -0.1)">
       <use xlink:href="#DejaVuSans-31"/>
       <use x="63.623047" xlink:href="#DejaVuSans-30"/>
       <use x="127.246094" xlink:href="#DejaVuSans-30"/>
      </g>
     </g>
    </g>
    <g id="xtick_6">
     <g id="line2d_6">
      <g>
       <use style="stroke:#000000;stroke-width:0.8;" x="285.238715" xlink:href="#m94ecf426df" y="276.812"/>
      </g>
     </g>
     <g id="text_6">
      <!-- 125 -->
      <g transform="translate(275.694965 291.410437)scale(0.1 -0.1)">
       <use xlink:href="#DejaVuSans-31"/>
       <use x="63.623047" xlink:href="#DejaVuSans-32"/>
       <use x="127.246094" xlink:href="#DejaVuSans-35"/>
      </g>
     </g>
    </g>
    <g id="xtick_7">
     <g id="line2d_7">
      <g>
       <use style="stroke:#000000;stroke-width:0.8;" x="327.292413" xlink:href="#m94ecf426df" y="276.812"/>
      </g>
     </g>
     <g id="text_7">
      <!-- 150 -->
      <g transform="translate(317.748663 291.410437)scale(0.1 -0.1)">
       <use xlink:href="#DejaVuSans-31"/>
       <use x="63.623047" xlink:href="#DejaVuSans-35"/>
       <use x="127.246094" xlink:href="#DejaVuSans-30"/>
      </g>
     </g>
    </g>
    <g id="xtick_8">
     <g id="line2d_8">
      <g>
       <use style="stroke:#000000;stroke-width:0.8;" x="369.34611" xlink:href="#m94ecf426df" y="276.812"/>
      </g>
     </g>
     <g id="text_8">
      <!-- 175 -->
      <g transform="translate(359.80236 291.410437)scale(0.1 -0.1)">
       <use xlink:href="#DejaVuSans-31"/>
       <use x="63.623047" xlink:href="#DejaVuSans-37"/>
       <use x="127.246094" xlink:href="#DejaVuSans-35"/>
      </g>
     </g>
    </g>
    <g id="xtick_9">
     <g id="line2d_9">
      <g>
       <use style="stroke:#000000;stroke-width:0.8;" x="411.399808" xlink:href="#m94ecf426df" y="276.812"/>
      </g>
     </g>
     <g id="text_9">
      <!-- 200 -->
      <g transform="translate(401.856058 291.410437)scale(0.1 -0.1)">
       <use xlink:href="#DejaVuSans-32"/>
       <use x="63.623047" xlink:href="#DejaVuSans-30"/>
       <use x="127.246094" xlink:href="#DejaVuSans-30"/>
      </g>
     </g>
    </g>
   </g>
   <g id="matplotlib.axis_2">
    <g id="ytick_1">
     <g id="line2d_10">
      <defs>
       <path d="M 0 0 
L -3.5 0 
" id="ma712c84ecb" style="stroke:#000000;stroke-width:0.8;"/>
      </defs>
      <g>
       <use style="stroke:#000000;stroke-width:0.8;" x="58.7375" xlink:href="#ma712c84ecb" y="264.687827"/>
      </g>
     </g>
     <g id="text_10">
      <!-- 0 -->
      <g transform="translate(45.375 268.487046)scale(0.1 -0.1)">
       <use xlink:href="#DejaVuSans-30"/>
      </g>
     </g>
    </g>
    <g id="ytick_2">
     <g id="line2d_11">
      <g>
       <use style="stroke:#000000;stroke-width:0.8;" x="58.7375" xlink:href="#ma712c84ecb" y="232.118291"/>
      </g>
     </g>
     <g id="text_11">
      <!-- 200000 -->
      <g transform="translate(13.5625 235.91751)scale(0.1 -0.1)">
       <use xlink:href="#DejaVuSans-32"/>
       <use x="63.623047" xlink:href="#DejaVuSans-30"/>
       <use x="127.246094" xlink:href="#DejaVuSans-30"/>
       <use x="190.869141" xlink:href="#DejaVuSans-30"/>
       <use x="254.492188" xlink:href="#DejaVuSans-30"/>
       <use x="318.115234" xlink:href="#DejaVuSans-30"/>
      </g>
     </g>
    </g>
    <g id="ytick_3">
     <g id="line2d_12">
      <g>
       <use style="stroke:#000000;stroke-width:0.8;" x="58.7375" xlink:href="#ma712c84ecb" y="199.548755"/>
      </g>
     </g>
     <g id="text_12">
      <!-- 400000 -->
      <defs>
       <path d="M 37.796875 64.3125 
L 12.890625 25.390625 
L 37.796875 25.390625 
z
M 35.203125 72.90625 
L 47.609375 72.90625 
L 47.609375 25.390625 
L 58.015625 25.390625 
L 58.015625 17.1875 
L 47.609375 17.1875 
L 47.609375 0 
L 37.796875 0 
L 37.796875 17.1875 
L 4.890625 17.1875 
L 4.890625 26.703125 
z
" id="DejaVuSans-34"/>
      </defs>
      <g transform="translate(13.5625 203.347974)scale(0.1 -0.1)">
       <use xlink:href="#DejaVuSans-34"/>
       <use x="63.623047" xlink:href="#DejaVuSans-30"/>
       <use x="127.246094" xlink:href="#DejaVuSans-30"/>
       <use x="190.869141" xlink:href="#DejaVuSans-30"/>
       <use x="254.492188" xlink:href="#DejaVuSans-30"/>
       <use x="318.115234" xlink:href="#DejaVuSans-30"/>
      </g>
     </g>
    </g>
    <g id="ytick_4">
     <g id="line2d_13">
      <g>
       <use style="stroke:#000000;stroke-width:0.8;" x="58.7375" xlink:href="#ma712c84ecb" y="166.979219"/>
      </g>
     </g>
     <g id="text_13">
      <!-- 600000 -->
      <defs>
       <path d="M 33.015625 40.375 
Q 26.375 40.375 22.484375 35.828125 
Q 18.609375 31.296875 18.609375 23.390625 
Q 18.609375 15.53125 22.484375 10.953125 
Q 26.375 6.390625 33.015625 6.390625 
Q 39.65625 6.390625 43.53125 10.953125 
Q 47.40625 15.53125 47.40625 23.390625 
Q 47.40625 31.296875 43.53125 35.828125 
Q 39.65625 40.375 33.015625 40.375 
M 52.59375 71.296875 
L 52.59375 62.3125 
Q 48.875 64.0625 45.09375 64.984375 
Q 41.3125 65.921875 37.59375 65.921875 
Q 27.828125 65.921875 22.671875 59.328125 
Q 17.53125 52.734375 16.796875 39.40625 
Q 19.671875 43.65625 24.015625 45.921875 
Q 28.375 48.1875 33.59375 48.1875 
Q 44.578125 48.1875 50.953125 41.515625 
Q 57.328125 34.859375 57.328125 23.390625 
Q 57.328125 12.15625 50.6875 5.359375 
Q 44.046875 -1.421875 33.015625 -1.421875 
Q 20.359375 -1.421875 13.671875 8.265625 
Q 6.984375 17.96875 6.984375 36.375 
Q 6.984375 53.65625 15.1875 63.9375 
Q 23.390625 74.21875 37.203125 74.21875 
Q 40.921875 74.21875 44.703125 73.484375 
Q 48.484375 72.75 52.59375 71.296875 
" id="DejaVuSans-36"/>
      </defs>
      <g transform="translate(13.5625 170.778438)scale(0.1 -0.1)">
       <use xlink:href="#DejaVuSans-36"/>
       <use x="63.623047" xlink:href="#DejaVuSans-30"/>
       <use x="127.246094" xlink:href="#DejaVuSans-30"/>
       <use x="190.869141" xlink:href="#DejaVuSans-30"/>
       <use x="254.492188" xlink:href="#DejaVuSans-30"/>
       <use x="318.115234" xlink:href="#DejaVuSans-30"/>
      </g>
     </g>
    </g>
    <g id="ytick_5">
     <g id="line2d_14">
      <g>
       <use style="stroke:#000000;stroke-width:0.8;" x="58.7375" xlink:href="#ma712c84ecb" y="134.409683"/>
      </g>
     </g>
     <g id="text_14">
      <!-- 800000 -->
      <defs>
       <path d="M 31.78125 34.625 
Q 24.75 34.625 20.71875 30.859375 
Q 16.703125 27.09375 16.703125 20.515625 
Q 16.703125 13.921875 20.71875 10.15625 
Q 24.75 6.390625 31.78125 6.390625 
Q 38.8125 6.390625 42.859375 10.171875 
Q 46.921875 13.96875 46.921875 20.515625 
Q 46.921875 27.09375 42.890625 30.859375 
Q 38.875 34.625 31.78125 34.625 
M 21.921875 38.8125 
Q 15.578125 40.375 12.03125 44.71875 
Q 8.5 49.078125 8.5 55.328125 
Q 8.5 64.0625 14.71875 69.140625 
Q 20.953125 74.21875 31.78125 74.21875 
Q 42.671875 74.21875 48.875 69.140625 
Q 55.078125 64.0625 55.078125 55.328125 
Q 55.078125 49.078125 51.53125 44.71875 
Q 48 40.375 41.703125 38.8125 
Q 48.828125 37.15625 52.796875 32.3125 
Q 56.78125 27.484375 56.78125 20.515625 
Q 56.78125 9.90625 50.3125 4.234375 
Q 43.84375 -1.421875 31.78125 -1.421875 
Q 19.734375 -1.421875 13.25 4.234375 
Q 6.78125 9.90625 6.78125 20.515625 
Q 6.78125 27.484375 10.78125 32.3125 
Q 14.796875 37.15625 21.921875 38.8125 
M 18.3125 54.390625 
Q 18.3125 48.734375 21.84375 45.5625 
Q 25.390625 42.390625 31.78125 42.390625 
Q 38.140625 42.390625 41.71875 45.5625 
Q 45.3125 48.734375 45.3125 54.390625 
Q 45.3125 60.0625 41.71875 63.234375 
Q 38.140625 66.40625 31.78125 66.40625 
Q 25.390625 66.40625 21.84375 63.234375 
Q 18.3125 60.0625 18.3125 54.390625 
" id="DejaVuSans-38"/>
      </defs>
      <g transform="translate(13.5625 138.208902)scale(0.1 -0.1)">
       <use xlink:href="#DejaVuSans-38"/>
       <use x="63.623047" xlink:href="#DejaVuSans-30"/>
       <use x="127.246094" xlink:href="#DejaVuSans-30"/>
       <use x="190.869141" xlink:href="#DejaVuSans-30"/>
       <use x="254.492188" xlink:href="#DejaVuSans-30"/>
       <use x="318.115234" xlink:href="#DejaVuSans-30"/>
      </g>
     </g>
    </g>
    <g id="ytick_6">
     <g id="line2d_15">
      <g>
       <use style="stroke:#000000;stroke-width:0.8;" x="58.7375" xlink:href="#ma712c84ecb" y="101.840147"/>
      </g>
     </g>
     <g id="text_15">
      <!-- 1000000 -->
      <g transform="translate(7.2 105.639366)scale(0.1 -0.1)">
       <use xlink:href="#DejaVuSans-31"/>
       <use x="63.623047" xlink:href="#DejaVuSans-30"/>
       <use x="127.246094" xlink:href="#DejaVuSans-30"/>
       <use x="190.869141" xlink:href="#DejaVuSans-30"/>
       <use x="254.492188" xlink:href="#DejaVuSans-30"/>
       <use x="318.115234" xlink:href="#DejaVuSans-30"/>
       <use x="381.738281" xlink:href="#DejaVuSans-30"/>
      </g>
     </g>
    </g>
    <g id="ytick_7">
     <g id="line2d_16">
      <g>
       <use style="stroke:#000000;stroke-width:0.8;" x="58.7375" xlink:href="#ma712c84ecb" y="69.270611"/>
      </g>
     </g>
     <g id="text_16">
      <!-- 1200000 -->
      <g transform="translate(7.2 73.06983)scale(0.1 -0.1)">
       <use xlink:href="#DejaVuSans-31"/>
       <use x="63.623047" xlink:href="#DejaVuSans-32"/>
       <use x="127.246094" xlink:href="#DejaVuSans-30"/>
       <use x="190.869141" xlink:href="#DejaVuSans-30"/>
       <use x="254.492188" xlink:href="#DejaVuSans-30"/>
       <use x="318.115234" xlink:href="#DejaVuSans-30"/>
       <use x="381.738281" xlink:href="#DejaVuSans-30"/>
      </g>
     </g>
    </g>
    <g id="ytick_8">
     <g id="line2d_17">
      <g>
       <use style="stroke:#000000;stroke-width:0.8;" x="58.7375" xlink:href="#ma712c84ecb" y="36.701075"/>
      </g>
     </g>
     <g id="text_17">
      <!-- 1400000 -->
      <g transform="translate(7.2 40.500294)scale(0.1 -0.1)">
       <use xlink:href="#DejaVuSans-31"/>
       <use x="63.623047" xlink:href="#DejaVuSans-34"/>
       <use x="127.246094" xlink:href="#DejaVuSans-30"/>
       <use x="190.869141" xlink:href="#DejaVuSans-30"/>
       <use x="254.492188" xlink:href="#DejaVuSans-30"/>
       <use x="318.115234" xlink:href="#DejaVuSans-30"/>
       <use x="381.738281" xlink:href="#DejaVuSans-30"/>
      </g>
     </g>
    </g>
   </g>
   <g id="line2d_18">
    <path clip-path="url(#pb542cfbdae)" d="M 74.970227 260.982554 
L 76.652375 258.363149 
L 78.334523 258.297684 
L 80.016671 260.301525 
L 81.698819 258.531696 
L 83.380967 262.724699 
L 85.063115 263.244508 
L 86.745263 261.657883 
L 88.427411 262.208309 
L 90.109558 261.923325 
L 91.791706 261.967457 
L 93.473854 264.237716 
L 95.156002 258.291985 
L 96.83815 262.70532 
L 98.520298 261.387393 
L 100.202446 262.565596 
L 101.884594 260.887614 
L 103.566742 262.587907 
L 105.24889 262.626176 
L 106.931037 254.033844 
L 108.613185 262.829735 
L 110.295333 219.157896 
L 111.977481 257.681306 
L 113.659629 259.080656 
L 115.341777 262.115485 
L 117.023925 259.874864 
L 118.706073 261.499433 
L 120.388221 262.627967 
L 122.070369 260.655067 
L 123.752516 263.470052 
L 125.434664 260.886637 
L 127.116812 261.648113 
L 128.79896 262.781044 
L 130.481108 258.144119 
L 132.163256 258.317877 
L 133.845404 263.090943 
L 135.527552 261.05209 
L 137.2097 262.580416 
L 138.891848 254.435263 
L 140.573996 257.96173 
L 142.256143 262.009797 
L 143.938291 256.213071 
L 145.620439 261.954918 
L 147.302587 262.99926 
L 148.984735 262.820616 
L 150.666883 252.696213 
L 152.349031 264.208892 
L 154.031179 259.262231 
L 155.713327 255.896658 
L 157.395475 262.484987 
L 159.077622 261.990581 
L 160.75977 262.053115 
L 162.441918 263.307042 
L 164.124066 238.284519 
L 165.806214 261.232525 
L 167.488362 257.894962 
L 169.17051 246.048608 
L 170.852658 260.969038 
L 172.534806 255.540836 
L 174.216954 258.521763 
L 175.899102 263.284569 
L 177.581249 245.935428 
L 179.263397 258.595858 
L 180.945545 263.472007 
L 182.627693 112.651279 
L 184.309841 258.457275 
L 185.991989 248.271316 
L 187.674137 248.368373 
L 189.356285 263.024338 
L 191.038433 258.927254 
L 192.720581 262.670307 
L 194.402728 262.423105 
L 196.084876 261.926908 
L 197.767024 256.744769 
L 199.449172 248.277667 
L 201.13132 256.612862 
L 202.813468 257.708827 
L 204.495616 258.079468 
L 206.177764 241.976927 
L 207.859912 182.4092 
L 209.54206 251.168864 
L 211.224207 248.713284 
L 212.906355 255.204067 
L 214.588503 196.557243 
L 216.270651 261.70055 
L 217.952799 259.907108 
L 219.634947 263.75927 
L 221.317095 256.466462 
L 222.999243 260.85081 
L 224.681391 253.710102 
L 226.363539 146.401135 
L 228.045687 246.761392 
L 229.727834 195.579343 
L 233.09213 259.198395 
L 234.774278 250.176308 
L 236.456426 175.231851 
L 238.138574 234.483165 
L 239.820722 248.151622 
L 241.50287 50.512838 
L 243.185018 247.926567 
L 244.867166 244.644046 
L 246.549313 262.591001 
L 248.231461 256.793949 
L 249.913609 253.042264 
L 251.595757 22.796 
L 253.277905 252.174612 
L 254.960053 249.652264 
L 256.642201 179.53445 
L 258.324349 258.884425 
L 260.006497 258.885565 
L 261.688645 246.915283 
L 263.370793 263.304925 
L 265.05294 241.612962 
L 268.417236 255.134205 
L 270.099384 258.047713 
L 271.781532 205.28881 
L 273.46368 239.564339 
L 275.145828 236.96529 
L 276.827976 47.57816 
L 278.510124 247.902466 
L 280.192272 262.785441 
L 281.874419 258.020355 
L 283.556567 254.950839 
L 285.238715 259.614959 
L 286.920863 259.733187 
L 288.603011 260.834851 
L 290.285159 264.503321 
L 291.967307 238.14105 
L 293.649455 255.328808 
L 295.331603 263.321535 
L 297.013751 261.486242 
L 298.695898 262.836738 
L 300.378046 259.768687 
L 302.060194 231.617046 
L 303.742342 263.90567 
L 305.42449 264.139356 
L 307.106638 259.369548 
L 308.788786 262.579276 
L 310.470934 259.677167 
L 312.153082 262.37881 
L 313.83523 262.445252 
L 315.517378 257.5792 
L 317.199525 263.512718 
L 318.881673 255.970265 
L 320.563821 262.290872 
L 322.245969 262.447858 
L 323.928117 251.454336 
L 325.610265 262.923373 
L 327.292413 260.377412 
L 328.974561 262.899108 
L 330.656709 261.27796 
L 332.338857 258.255344 
L 334.021004 211.185362 
L 335.703152 261.231222 
L 337.3853 257.894311 
L 339.067448 261.292779 
L 340.749596 259.603071 
L 342.431744 257.341443 
L 344.113892 207.169212 
L 345.79604 258.064812 
L 347.478188 258.970408 
L 349.160336 256.444641 
L 350.842484 254.624166 
L 352.524631 257.806047 
L 354.206779 162.950368 
L 355.888927 260.102688 
L 357.571075 258.216586 
L 359.253223 255.980688 
L 360.935371 152.472911 
L 362.617519 258.117738 
L 364.299667 260.877843 
L 365.981815 262.620639 
L 367.663963 236.585529 
L 369.34611 247.964836 
L 371.028258 262.906599 
L 372.710406 263.085569 
L 374.392554 260.451345 
L 376.074702 264.238042 
L 377.75685 259.304083 
L 379.438998 263.322512 
L 381.121146 260.94917 
L 382.803294 221.565762 
L 384.485442 262.212217 
L 386.167589 262.623407 
L 387.849737 227.999222 
L 389.531885 262.174436 
L 391.214033 257.104011 
L 392.896181 260.285403 
L 394.578329 192.142443 
L 396.260477 245.59068 
L 397.942625 261.175854 
L 399.624773 263.314207 
L 399.624773 263.314207 
" style="fill:none;stroke:#1f77b4;stroke-linecap:square;stroke-width:1.5;"/>
   </g>
   <g id="line2d_19">
    <path clip-path="url(#pb542cfbdae)" d="M 74.970227 260.040317 
L 76.652375 248.407619 
L 78.334523 261.912577 
L 80.016671 262.386138 
L 81.698819 263.298411 
L 83.380967 263.43732 
L 85.063115 262.403563 
L 86.745263 261.816823 
L 88.427411 259.734978 
L 90.109558 259.077725 
L 91.791706 260.776715 
L 93.473854 263.507507 
L 95.156002 252.113218 
L 96.83815 262.978415 
L 98.520298 262.89748 
L 100.202446 260.890382 
L 101.884594 262.620313 
L 103.566742 262.724861 
L 105.24889 259.029685 
L 106.931037 264.264423 
L 108.613185 259.204583 
L 110.295333 260.476749 
L 111.977481 262.48515 
L 113.659629 260.498082 
L 115.341777 261.514089 
L 117.023925 259.173316 
L 118.706073 261.540145 
L 120.388221 260.11311 
L 122.070369 261.513275 
L 123.752516 261.284474 
L 125.434664 262.31302 
L 127.116812 256.035567 
L 128.79896 253.278067 
L 130.481108 256.254435 
L 132.163256 262.665422 
L 135.527552 263.33554 
L 137.2097 259.748983 
L 138.891848 259.008189 
L 140.573996 262.571947 
L 142.256143 259.047761 
L 143.938291 260.729 
L 145.620439 255.164821 
L 147.302587 259.440061 
L 148.984735 262.123465 
L 150.666883 259.563337 
L 152.349031 261.77318 
L 154.031179 256.954191 
L 155.713327 259.421496 
L 157.395475 256.665951 
L 159.077622 261.838156 
L 160.75977 261.516532 
L 162.441918 263.273821 
L 164.124066 256.696566 
L 165.806214 258.516877 
L 167.488362 262.884126 
L 169.17051 247.554949 
L 170.852658 263.403773 
L 172.534806 241.828573 
L 174.216954 256.930415 
L 175.899102 238.403886 
L 177.581249 248.104234 
L 179.263397 260.31325 
L 180.945545 261.535748 
L 182.627693 250.080065 
L 184.309841 261.952638 
L 185.991989 260.85309 
L 187.674137 261.457744 
L 189.356285 249.885787 
L 191.038433 261.242459 
L 192.720581 253.188501 
L 194.402728 258.044782 
L 196.084876 259.990812 
L 197.767024 259.414331 
L 199.449172 263.012125 
L 201.13132 262.033736 
L 202.813468 249.832373 
L 204.495616 261.63655 
L 206.177764 258.500104 
L 207.859912 254.031401 
L 209.54206 260.845762 
L 211.224207 257.907827 
L 212.906355 260.307713 
L 214.588503 255.750258 
L 216.270651 259.94554 
L 217.952799 259.470351 
L 219.634947 263.624921 
L 221.317095 255.53823 
L 222.999243 260.83192 
L 224.681391 256.220888 
L 226.363539 202.158878 
L 228.045687 259.026916 
L 229.727834 229.954371 
L 231.409982 239.976343 
L 233.09213 263.053162 
L 234.774278 263.997027 
L 236.456426 256.147281 
L 238.138574 260.377738 
L 239.820722 262.792769 
L 241.50287 236.967244 
L 243.185018 263.684034 
L 244.867166 250.952114 
L 246.549313 264.096527 
L 248.231461 258.655135 
L 249.913609 263.373647 
L 251.595757 258.160567 
L 253.277905 260.353962 
L 254.960053 261.816009 
L 256.642201 244.046558 
L 258.324349 263.425921 
L 260.006497 258.10927 
L 261.688645 261.019358 
L 263.370793 259.330953 
L 265.05294 263.963807 
L 266.735088 256.45376 
L 268.417236 263.778486 
L 270.099384 254.944325 
L 271.781532 254.357422 
L 273.46368 258.174409 
L 275.145828 245.697834 
L 276.827976 244.473382 
L 278.510124 244.742243 
L 280.192272 263.120093 
L 281.874419 262.787883 
L 283.556567 257.82852 
L 285.238715 261.288545 
L 286.920863 255.727134 
L 288.603011 259.513342 
L 290.285159 260.182809 
L 291.967307 256.714479 
L 293.649455 250.793989 
L 295.331603 263.691851 
L 297.013751 264.508206 
L 298.695898 260.676889 
L 300.378046 261.445693 
L 302.060194 258.245085 
L 303.742342 258.937513 
L 305.42449 263.651465 
L 307.106638 261.185951 
L 308.788786 262.603866 
L 310.470934 261.627268 
L 312.153082 259.059649 
L 313.83523 260.296802 
L 315.517378 255.78413 
L 317.199525 261.563269 
L 318.881673 258.438222 
L 320.563821 261.231548 
L 322.245969 262.497526 
L 323.928117 264.388513 
L 325.610265 262.661188 
L 327.292413 260.602468 
L 328.974561 261.498293 
L 330.656709 260.438317 
L 332.338857 245.958227 
L 334.021004 261.775134 
L 335.703152 261.783928 
L 337.3853 253.340438 
L 339.067448 262.604354 
L 340.749596 262.140238 
L 342.431744 257.349911 
L 344.113892 260.511761 
L 345.79604 248.320984 
L 347.478188 256.519388 
L 349.160336 261.067886 
L 350.842484 263.584046 
L 352.524631 258.750889 
L 354.206779 258.194765 
L 355.888927 263.130678 
L 357.571075 249.081808 
L 359.253223 261.305318 
L 360.935371 250.2079 
L 362.617519 262.762154 
L 364.299667 252.049382 
L 365.981815 242.425572 
L 367.663963 256.66823 
L 369.34611 256.388784 
L 371.028258 264.068518 
L 372.710406 261.471586 
L 374.392554 251.521918 
L 376.074702 261.48901 
L 377.75685 254.066413 
L 379.438998 258.732651 
L 381.121146 262.249183 
L 382.803294 247.110863 
L 384.485442 261.790604 
L 386.167589 257.287703 
L 387.849737 233.068833 
L 389.531885 259.465954 
L 391.214033 262.392489 
L 392.896181 255.794553 
L 394.578329 259.110294 
L 396.260477 256.185224 
L 397.942625 261.604958 
L 399.624773 258.240688 
L 399.624773 258.240688 
" style="fill:none;stroke:#ff7f0e;stroke-linecap:square;stroke-width:1.5;"/>
   </g>
   <g id="line2d_20">
    <path clip-path="url(#pb542cfbdae)" d="M 74.970227 258.660346 
L 76.652375 262.687732 
L 78.334523 264.219803 
L 80.016671 262.418545 
L 81.698819 263.226921 
L 83.380967 263.586488 
L 85.063115 262.282567 
L 86.745263 263.034272 
L 88.427411 258.791764 
L 90.109558 259.762825 
L 91.791706 263.286686 
L 93.473854 264.014615 
L 95.156002 258.817983 
L 96.83815 261.432828 
L 98.520298 261.042808 
L 100.202446 262.287453 
L 101.884594 264.282662 
L 103.566742 264.205635 
L 105.24889 260.919369 
L 106.931037 264.609498 
L 108.613185 263.783534 
L 110.295333 261.946612 
L 111.977481 264.113952 
L 113.659629 260.060185 
L 115.341777 262.77681 
L 117.023925 262.454209 
L 118.706073 258.562475 
L 120.388221 263.652442 
L 122.070369 261.841087 
L 123.752516 263.343357 
L 125.434664 262.587581 
L 127.116812 261.697944 
L 128.79896 262.537261 
L 130.481108 262.050183 
L 132.163256 264.392096 
L 133.845404 262.498992 
L 135.527552 263.36013 
L 137.2097 259.176085 
L 138.891848 262.210914 
L 140.573996 259.260114 
L 142.256143 262.495409 
L 143.938291 262.060443 
L 145.620439 262.211566 
L 147.302587 262.477496 
L 148.984735 264.387699 
L 150.666883 264.134471 
L 152.349031 264.204658 
L 154.031179 258.825799 
L 155.713327 262.03569 
L 157.395475 263.540728 
L 159.077622 264.528888 
L 160.75977 264.017709 
L 162.441918 261.579879 
L 164.124066 261.37176 
L 165.806214 259.214517 
L 167.488362 262.278822 
L 169.17051 258.643247 
L 170.852658 263.474124 
L 172.534806 261.564897 
L 174.216954 263.343031 
L 175.899102 253.789898 
L 177.581249 257.644828 
L 179.263397 261.154684 
L 180.945545 260.052205 
L 184.309841 263.177415 
L 185.991989 264.403984 
L 187.674137 263.713347 
L 189.356285 261.761617 
L 192.720581 262.015985 
L 194.402728 260.440108 
L 196.084876 260.099268 
L 197.767024 257.633266 
L 199.449172 264.204495 
L 201.13132 263.273821 
L 202.813468 259.764128 
L 204.495616 259.544446 
L 206.177764 262.429619 
L 207.859912 262.58009 
L 209.54206 263.932866 
L 211.224207 264.248139 
L 212.906355 258.461021 
L 214.588503 263.221384 
L 216.270651 256.99018 
L 217.952799 262.390372 
L 219.634947 264.071449 
L 221.317095 263.999145 
L 222.999243 261.254184 
L 224.681391 264.1247 
L 226.363539 261.947101 
L 228.045687 264.05207 
L 229.727834 262.441018 
L 231.409982 262.904971 
L 234.774278 264.533611 
L 236.456426 261.891733 
L 238.138574 264.051581 
L 239.820722 264.59989 
L 241.50287 258.899895 
L 243.185018 262.79228 
L 244.867166 258.108618 
L 246.549313 264.002076 
L 248.231461 256.615142 
L 249.913609 264.176974 
L 251.595757 258.004884 
L 253.277905 260.139654 
L 254.960053 263.685826 
L 256.642201 258.442619 
L 258.324349 264.517 
L 260.006497 263.642834 
L 261.688645 260.069467 
L 263.370793 260.569247 
L 265.05294 263.273658 
L 266.735088 262.649789 
L 268.417236 264.146033 
L 270.099384 258.353053 
L 271.781532 262.612334 
L 273.46368 263.655536 
L 275.145828 262.045624 
L 276.827976 262.03227 
L 278.510124 259.849297 
L 280.192272 263.151685 
L 281.874419 262.544589 
L 283.556567 260.584554 
L 285.238715 259.272491 
L 286.920863 263.294991 
L 288.603011 263.558479 
L 290.285159 262.254232 
L 291.967307 263.566947 
L 293.649455 253.064411 
L 295.331603 263.819849 
L 297.013751 260.977994 
L 298.695898 260.242086 
L 300.378046 262.25586 
L 302.060194 262.430107 
L 303.742342 259.20214 
L 305.42449 264.034645 
L 307.106638 261.476797 
L 308.788786 260.177272 
L 310.470934 263.218127 
L 312.153082 263.887268 
L 313.83523 262.052789 
L 315.517378 263.249394 
L 317.199525 262.101643 
L 318.881673 263.770506 
L 320.563821 262.625036 
L 322.245969 260.417473 
L 323.928117 264.389979 
L 325.610265 263.799982 
L 327.292413 260.918555 
L 328.974561 261.852975 
L 330.656709 260.834851 
L 332.338857 257.301871 
L 335.703152 264.377928 
L 337.3853 263.445137 
L 339.067448 263.173018 
L 340.749596 260.903084 
L 342.431744 261.977553 
L 344.113892 261.368177 
L 345.79604 258.598627 
L 347.478188 263.224641 
L 349.160336 261.072609 
L 350.842484 262.583347 
L 352.524631 262.221336 
L 354.206779 254.431029 
L 355.888927 258.258601 
L 357.571075 260.644808 
L 359.253223 261.897758 
L 360.935371 263.728003 
L 362.617519 260.057905 
L 364.299667 258.24541 
L 365.981815 258.508409 
L 367.663963 261.294733 
L 369.34611 255.865554 
L 371.028258 264.380534 
L 372.710406 261.526954 
L 374.392554 260.989557 
L 376.074702 261.183508 
L 377.75685 263.01815 
L 379.438998 263.350359 
L 381.121146 263.989048 
L 382.803294 263.481777 
L 384.485442 262.094478 
L 386.167589 261.50155 
L 387.849737 261.751847 
L 389.531885 261.477448 
L 391.214033 264.127957 
L 392.896181 263.671495 
L 394.578329 263.945079 
L 396.260477 263.248091 
L 397.942625 264.030411 
L 399.624773 262.992094 
L 399.624773 262.992094 
" style="fill:none;stroke:#2ca02c;stroke-linecap:square;stroke-width:1.5;"/>
   </g>
   <g id="line2d_21">
    <path clip-path="url(#pb542cfbdae)" d="M 74.970227 263.443183 
L 76.652375 260.702293 
L 78.334523 264.169483 
L 80.016671 260.997048 
L 81.698819 263.673775 
L 83.380967 263.456862 
L 85.063115 264.090828 
L 90.109558 262.998608 
L 91.791706 264.118838 
L 93.473854 263.342543 
L 95.156002 262.799283 
L 96.83815 263.390746 
L 98.520298 264.371903 
L 100.202446 264.233482 
L 101.884594 263.756827 
L 103.566742 261.560989 
L 105.24889 263.584534 
L 106.931037 264.313115 
L 108.613185 263.540403 
L 110.295333 261.395699 
L 111.977481 264.151733 
L 113.659629 261.899875 
L 115.341777 262.609402 
L 117.023925 262.718673 
L 118.706073 260.523975 
L 120.388221 262.501272 
L 122.070369 262.242507 
L 123.752516 263.754384 
L 125.434664 260.815798 
L 127.116812 262.302597 
L 128.79896 261.723511 
L 130.481108 263.877172 
L 132.163256 260.399397 
L 133.845404 260.235246 
L 135.527552 262.364968 
L 137.2097 262.392489 
L 138.891848 256.64934 
L 140.573996 262.732841 
L 142.256143 264.504461 
L 143.938291 260.887451 
L 145.620439 260.895268 
L 147.302587 262.442809 
L 148.984735 263.593817 
L 150.666883 264.265726 
L 152.349031 263.452139 
L 154.031179 263.630946 
L 155.713327 263.315998 
L 157.395475 262.214497 
L 159.077622 263.318767 
L 160.75977 264.277777 
L 162.441918 264.125677 
L 164.124066 262.927444 
L 165.806214 261.148333 
L 167.488362 261.979345 
L 169.17051 259.059649 
L 170.852658 262.482381 
L 172.534806 260.647414 
L 174.216954 258.493102 
L 175.899102 260.814495 
L 177.581249 256.240267 
L 179.263397 259.025451 
L 180.945545 258.379597 
L 182.627693 262.267422 
L 184.309841 259.452763 
L 185.991989 264.019175 
L 189.356285 262.088616 
L 191.038433 259.775039 
L 192.720581 259.808911 
L 194.402728 263.025315 
L 196.084876 255.933136 
L 197.767024 260.90455 
L 199.449172 264.46668 
L 201.13132 264.104996 
L 202.813468 261.441296 
L 204.495616 260.601491 
L 206.177764 263.815778 
L 207.859912 256.917387 
L 209.54206 263.402471 
L 211.224207 264.188374 
L 212.906355 261.371271 
L 214.588503 260.389463 
L 216.270651 263.762364 
L 217.952799 263.757641 
L 219.634947 264.614546 
L 221.317095 263.403285 
L 222.999243 253.233284 
L 224.681391 262.454046 
L 226.363539 256.068462 
L 228.045687 264.407892 
L 229.727834 263.71237 
L 231.409982 261.830013 
L 234.774278 264.502995 
L 236.456426 263.043229 
L 238.138574 264.657049 
L 239.820722 264.387536 
L 241.50287 259.669188 
L 243.185018 263.289129 
L 244.867166 262.901063 
L 246.549313 264.244719 
L 248.231461 260.219938 
L 249.913609 264.333796 
L 251.595757 259.136676 
L 253.277905 263.059351 
L 254.960053 264.12812 
L 256.642201 263.573949 
L 258.324349 263.505879 
L 260.006497 263.310787 
L 261.688645 257.165242 
L 263.370793 261.553824 
L 265.05294 264.082197 
L 266.735088 264.570903 
L 268.417236 263.9371 
L 270.099384 263.785 
L 271.781532 262.56006 
L 273.46368 255.608743 
L 275.145828 264.173229 
L 276.827976 260.300059 
L 278.510124 263.205588 
L 280.192272 262.107017 
L 281.874419 264.514557 
L 283.556567 262.45714 
L 285.238715 263.036715 
L 288.603011 263.108042 
L 290.285159 264.049627 
L 291.967307 264.321583 
L 293.649455 262.242181 
L 295.331603 263.78614 
L 297.013751 263.901599 
L 298.695898 263.070424 
L 300.378046 263.21715 
L 302.060194 262.733981 
L 303.742342 264.113952 
L 307.106638 263.174321 
L 308.788786 263.668889 
L 310.470934 262.35764 
L 312.153082 257.004511 
L 313.83523 261.249299 
L 315.517378 263.052185 
L 317.199525 263.474775 
L 318.881673 264.410498 
L 320.563821 263.062119 
L 322.245969 263.373484 
L 323.928117 264.428085 
L 325.610265 261.342285 
L 327.292413 262.633178 
L 328.974561 262.842763 
L 330.656709 258.854461 
L 332.338857 259.123811 
L 335.703152 263.482266 
L 337.3853 261.203213 
L 339.067448 264.210684 
L 340.749596 261.866654 
L 342.431744 262.541332 
L 344.113892 263.616778 
L 345.79604 262.252603 
L 347.478188 262.979067 
L 349.160336 264.316535 
L 350.842484 262.307483 
L 352.524631 263.162433 
L 354.206779 259.075608 
L 355.888927 263.841345 
L 357.571075 259.984298 
L 359.253223 261.94417 
L 360.935371 263.454908 
L 364.299667 260.414053 
L 365.981815 259.283076 
L 367.663963 264.517652 
L 369.34611 260.60719 
L 371.028258 263.605379 
L 372.710406 259.671142 
L 374.392554 261.05893 
L 376.074702 261.005841 
L 377.75685 262.431573 
L 381.121146 261.998724 
L 382.803294 263.462236 
L 384.485442 263.613358 
L 386.167589 262.161897 
L 387.849737 260.266839 
L 389.531885 263.601145 
L 391.214033 264.046533 
L 392.896181 259.908411 
L 394.578329 262.789838 
L 396.260477 261.050624 
L 397.942625 264.104833 
L 399.624773 263.669378 
L 399.624773 263.669378 
" style="fill:none;stroke:#d62728;stroke-linecap:square;stroke-width:1.5;"/>
   </g>
   <g id="line2d_22">
    <path clip-path="url(#pb542cfbdae)" d="M 74.970227 263.866098 
L 76.652375 262.843252 
L 78.334523 264.543707 
L 80.016671 263.405239 
L 81.698819 264.009892 
L 83.380967 262.48059 
L 85.063115 263.338471 
L 86.745263 263.175624 
L 88.427411 259.897663 
L 90.109558 262.790163 
L 91.791706 262.814265 
L 93.473854 263.43732 
L 95.156002 263.124652 
L 96.83815 263.253628 
L 98.520298 263.962667 
L 100.202446 263.5917 
L 101.884594 264.252373 
L 103.566742 263.710416 
L 105.24889 262.887383 
L 106.931037 264.532308 
L 108.613185 264.224526 
L 110.295333 263.240437 
L 111.977481 264.242439 
L 113.659629 263.683057 
L 115.341777 264.226317 
L 117.023925 262.341355 
L 118.706073 262.452743 
L 120.388221 263.92912 
L 122.070369 263.984163 
L 123.752516 259.797837 
L 125.434664 263.264376 
L 127.116812 261.717974 
L 128.79896 264.308881 
L 130.481108 263.599353 
L 132.163256 263.936122 
L 133.845404 263.832063 
L 135.527552 263.062608 
L 137.2097 262.940472 
L 138.891848 259.698012 
L 140.573996 262.772901 
L 142.256143 264.188048 
L 143.938291 260.249577 
L 145.620439 261.273237 
L 147.302587 264.195702 
L 148.984735 264.066401 
L 150.666883 264.410498 
L 152.349031 263.127258 
L 154.031179 262.333864 
L 155.713327 263.478195 
L 157.395475 263.186209 
L 159.077622 263.577532 
L 160.75977 262.690501 
L 162.441918 263.861701 
L 164.124066 263.022221 
L 165.806214 262.907251 
L 167.488362 263.681103 
L 169.17051 262.243321 
L 170.852658 263.390746 
L 172.534806 258.846318 
L 174.216954 260.55915 
L 175.899102 254.716338 
L 177.581249 261.575808 
L 179.263397 261.580205 
L 180.945545 261.39977 
L 182.627693 260.134443 
L 184.309841 262.083079 
L 185.991989 263.669704 
L 187.674137 263.934168 
L 189.356285 259.974853 
L 191.038433 260.06621 
L 192.720581 262.640669 
L 194.402728 263.369575 
L 196.084876 261.944658 
L 197.767024 257.01591 
L 199.449172 264.360178 
L 201.13132 264.07552 
L 202.813468 259.998791 
L 204.495616 263.274961 
L 206.177764 262.875333 
L 207.859912 255.648315 
L 209.54206 264.169809 
L 211.224207 264.562597 
L 212.906355 260.492708 
L 214.588503 258.17278 
L 216.270651 262.982649 
L 217.952799 263.08736 
L 219.634947 264.294225 
L 221.317095 264.314906 
L 222.999243 262.638552 
L 224.681391 264.005984 
L 226.363539 259.242201 
L 228.045687 264.382651 
L 229.727834 262.04139 
L 231.409982 263.373484 
L 233.09213 264.389002 
L 234.774278 264.531168 
L 236.456426 261.030594 
L 238.138574 264.089362 
L 239.820722 264.202704 
L 241.50287 262.161897 
L 243.185018 264.315069 
L 244.867166 260.37269 
L 246.549313 263.784511 
L 248.231461 263.671006 
L 249.913609 263.399377 
L 251.595757 260.93598 
L 254.960053 264.540939 
L 256.642201 261.351078 
L 258.324349 263.536169 
L 260.006497 259.050366 
L 261.688645 262.190395 
L 263.370793 263.568901 
L 265.05294 264.382488 
L 268.417236 264.079591 
L 270.099384 262.25016 
L 271.781532 260.745936 
L 273.46368 262.717208 
L 275.145828 262.287778 
L 276.827976 255.230774 
L 278.510124 262.349823 
L 280.192272 263.776857 
L 281.874419 264.553641 
L 283.556567 263.17481 
L 285.238715 263.057396 
L 286.920863 263.563038 
L 288.603011 263.433575 
L 290.285159 264.260352 
L 291.967307 264.155153 
L 293.649455 262.781858 
L 295.331603 263.944265 
L 297.013751 263.405402 
L 298.695898 263.892316 
L 300.378046 261.376971 
L 302.060194 263.78272 
L 303.742342 264.294225 
L 305.42449 264.083011 
L 307.106638 264.023083 
L 308.788786 263.184092 
L 310.470934 262.553383 
L 312.153082 263.060002 
L 313.83523 261.895804 
L 317.199525 262.941937 
L 318.881673 264.124374 
L 320.563821 264.581325 
L 322.245969 262.246578 
L 323.928117 264.421083 
L 327.292413 263.176438 
L 328.974561 263.879777 
L 330.656709 262.524233 
L 332.338857 263.473147 
L 334.021004 261.102573 
L 335.703152 263.300528 
L 337.3853 260.422684 
L 339.067448 263.18686 
L 340.749596 262.739843 
L 342.431744 257.02161 
L 344.113892 261.624825 
L 345.79604 263.015545 
L 347.478188 263.256722 
L 349.160336 261.075377 
L 350.842484 264.063632 
L 352.524631 263.222198 
L 354.206779 260.745285 
L 355.888927 263.763504 
L 357.571075 262.904157 
L 359.253223 261.394722 
L 360.935371 263.450836 
L 362.617519 261.305318 
L 364.299667 263.543985 
L 365.981815 261.119346 
L 367.663963 264.094248 
L 369.34611 263.402471 
L 371.028258 264.431017 
L 372.710406 263.530957 
L 374.392554 263.359805 
L 376.074702 262.61787 
L 377.75685 263.56825 
L 379.438998 262.961316 
L 381.121146 263.949313 
L 382.803294 261.867794 
L 384.485442 263.662376 
L 386.167589 262.117602 
L 387.849737 261.929513 
L 389.531885 263.440577 
L 391.214033 264.582628 
L 392.896181 263.529166 
L 394.578329 264.304321 
L 396.260477 262.220359 
L 397.942625 263.764644 
L 399.624773 264.175183 
L 399.624773 264.175183 
" style="fill:none;stroke:#9467bd;stroke-linecap:square;stroke-width:1.5;"/>
   </g>
   <g id="line2d_23">
    <path clip-path="url(#pb542cfbdae)" d="M 74.970227 261.854603 
L 76.652375 263.893456 
L 78.334523 264.146685 
L 80.016671 263.606193 
L 81.698819 262.158803 
L 83.380967 263.190606 
L 86.745263 264.100599 
L 88.427411 264.034971 
L 90.109558 263.636808 
L 91.791706 263.8788 
L 93.473854 263.175461 
L 95.156002 264.03204 
L 96.83815 263.528189 
L 98.520298 264.178928 
L 100.202446 264.11786 
L 101.884594 264.487036 
L 103.566742 263.987582 
L 105.24889 263.871635 
L 106.931037 264.480359 
L 108.613185 263.845416 
L 110.295333 264.008427 
L 111.977481 263.62606 
L 113.659629 263.444811 
L 115.341777 263.792491 
L 117.023925 263.156082 
L 118.706073 263.476078 
L 120.388221 263.469075 
L 122.070369 263.753407 
L 123.752516 263.096806 
L 125.434664 263.490083 
L 127.116812 263.999633 
L 128.79896 263.739402 
L 130.481108 264.024223 
L 132.163256 262.032107 
L 133.845404 263.218453 
L 137.2097 263.666935 
L 138.891848 263.204448 
L 140.573996 263.499528 
L 142.256143 264.095062 
L 143.938291 263.593328 
L 145.620439 264.0835 
L 147.302587 263.969832 
L 148.984735 264.288525 
L 150.666883 264.363109 
L 152.349031 263.953221 
L 154.031179 263.2932 
L 155.713327 263.869355 
L 157.395475 263.047951 
L 159.077622 264.229737 
L 160.75977 263.351825 
L 162.441918 263.992142 
L 164.124066 263.810404 
L 165.806214 263.748522 
L 167.488362 262.804494 
L 169.17051 261.625802 
L 170.852658 264.207264 
L 172.534806 262.38223 
L 174.216954 261.482171 
L 175.899102 263.133772 
L 177.581249 260.9337 
L 179.263397 263.254931 
L 180.945545 260.707342 
L 182.627693 262.951057 
L 184.309841 259.980878 
L 185.991989 264.219477 
L 189.356285 262.666562 
L 191.038433 263.595282 
L 192.720581 262.030153 
L 194.402728 263.257699 
L 197.767024 261.771877 
L 199.449172 264.445021 
L 201.13132 263.466795 
L 202.813468 261.063489 
L 206.177764 263.83418 
L 207.859912 260.193069 
L 209.54206 263.975532 
L 211.224207 263.11081 
L 212.906355 261.77204 
L 214.588503 262.13063 
L 216.270651 263.434552 
L 217.952799 262.516579 
L 219.634947 264.36604 
L 221.317095 264.139356 
L 222.999243 263.223501 
L 224.681391 263.640065 
L 226.363539 260.935003 
L 228.045687 264.401867 
L 229.727834 261.251253 
L 231.409982 261.287405 
L 233.09213 264.140333 
L 234.774278 264.448278 
L 236.456426 259.674073 
L 238.138574 263.845579 
L 239.820722 263.43048 
L 241.50287 261.109087 
L 243.185018 264.155641 
L 244.867166 258.129137 
L 246.549313 263.935145 
L 248.231461 263.127909 
L 249.913609 264.23104 
L 251.595757 260.29778 
L 253.277905 263.093386 
L 254.960053 263.689245 
L 256.642201 261.096222 
L 258.324349 264.006147 
L 260.006497 262.975647 
L 261.688645 263.200539 
L 263.370793 263.963969 
L 265.05294 264.345196 
L 268.417236 264.230551 
L 270.099384 263.757153 
L 271.781532 261.529234 
L 273.46368 261.832293 
L 275.145828 259.754357 
L 276.827976 262.469353 
L 278.510124 260.475609 
L 280.192272 263.58258 
L 281.874419 263.300039 
L 283.556567 262.441506 
L 285.238715 263.573786 
L 288.603011 264.240322 
L 290.285159 263.848836 
L 291.967307 264.293736 
L 293.649455 262.371808 
L 295.331603 264.341939 
L 297.013751 263.428689 
L 298.695898 262.964736 
L 300.378046 263.922769 
L 302.060194 262.779741 
L 303.742342 263.766435 
L 305.42449 264.449581 
L 307.106638 262.785604 
L 308.788786 263.962992 
L 312.153082 263.203471 
L 313.83523 264.043928 
L 317.199525 263.798516 
L 318.881673 264.395841 
L 320.563821 263.428038 
L 322.245969 263.979766 
L 323.928117 264.352035 
L 325.610265 263.328701 
L 327.292413 262.571622 
L 328.974561 263.436343 
L 330.656709 263.028735 
L 332.338857 263.742985 
L 334.021004 262.824361 
L 335.703152 264.19163 
L 337.3853 262.848951 
L 339.067448 263.457187 
L 340.749596 260.848856 
L 342.431744 263.099248 
L 345.79604 263.942474 
L 347.478188 262.973856 
L 349.160336 263.362736 
L 350.842484 263.956153 
L 354.206779 261.393907 
L 355.888927 263.856816 
L 357.571075 262.240064 
L 359.253223 261.603818 
L 360.935371 263.701459 
L 362.617519 263.71009 
L 364.299667 264.230225 
L 365.981815 262.924676 
L 367.663963 264.431179 
L 369.34611 260.343703 
L 371.028258 264.353338 
L 372.710406 263.947522 
L 374.392554 262.772087 
L 376.074702 263.881406 
L 377.75685 263.544637 
L 379.438998 262.018754 
L 381.121146 263.907624 
L 382.803294 262.913928 
L 384.485442 263.641042 
L 386.167589 261.576622 
L 387.849737 263.298737 
L 389.531885 263.339937 
L 391.214033 264.468309 
L 392.896181 262.345589 
L 394.578329 263.98628 
L 396.260477 263.657653 
L 397.942625 262.43711 
L 399.624773 263.602448 
L 399.624773 263.602448 
" style="fill:none;stroke:#8c564b;stroke-linecap:square;stroke-width:1.5;"/>
   </g>
   <g id="line2d_24">
    <path clip-path="url(#pb542cfbdae)" d="M 74.970227 264.294225 
L 76.652375 264.151081 
L 78.334523 264.553804 
L 81.698819 263.864469 
L 85.063115 264.37744 
L 86.745263 264.028946 
L 88.427411 264.287873 
L 90.109558 264.325328 
L 91.791706 264.12926 
L 93.473854 264.316535 
L 96.83815 264.316046 
L 98.520298 264.000773 
L 100.202446 264.435902 
L 101.884594 264.591259 
L 103.566742 264.47694 
L 105.24889 264.005496 
L 106.931037 264.607218 
L 108.613185 263.407845 
L 110.295333 261.853463 
L 111.977481 263.834994 
L 115.341777 264.071286 
L 117.023925 263.993282 
L 118.706073 263.778974 
L 120.388221 264.350244 
L 122.070369 264.298947 
L 123.752516 264.09897 
L 125.434664 264.347639 
L 128.79896 264.326306 
L 130.481108 264.14815 
L 132.163256 264.405612 
L 133.845404 264.210032 
L 135.527552 264.254978 
L 137.2097 264.100761 
L 140.573996 264.293247 
L 142.256143 264.542404 
L 143.938291 264.236414 
L 145.620439 264.399424 
L 147.302587 263.475426 
L 148.984735 264.472054 
L 150.666883 264.608683 
L 152.349031 264.460329 
L 154.031179 263.333586 
L 155.713327 264.105647 
L 157.395475 264.041159 
L 159.077622 264.480848 
L 160.75977 264.341613 
L 162.441918 264.372066 
L 164.124066 263.863655 
L 165.806214 263.845416 
L 167.488362 263.65293 
L 169.17051 262.69392 
L 170.852658 264.400076 
L 172.534806 263.960061 
L 174.216954 262.618685 
L 175.899102 263.611567 
L 179.263397 263.714812 
L 180.945545 262.907577 
L 182.627693 263.991002 
L 184.309841 262.879567 
L 185.991989 264.323049 
L 187.674137 264.121606 
L 189.356285 262.3508 
L 191.038433 263.407845 
L 194.402728 263.410939 
L 197.767024 263.916092 
L 199.449172 264.533611 
L 201.13132 264.337868 
L 202.813468 261.315415 
L 204.495616 262.818336 
L 206.177764 263.599842 
L 207.859912 261.923162 
L 209.54206 264.239508 
L 211.224207 264.182511 
L 212.906355 263.614173 
L 214.588503 262.228176 
L 216.270651 263.808613 
L 217.952799 263.861213 
L 219.634947 264.573345 
L 221.317095 264.398284 
L 222.999243 264.396981 
L 224.681391 264.14701 
L 226.363539 261.537213 
L 228.045687 264.500878 
L 231.409982 262.692618 
L 233.09213 264.104996 
L 234.774278 264.561783 
L 236.456426 261.152404 
L 238.138574 264.112649 
L 239.820722 263.762038 
L 241.50287 262.280124 
L 243.185018 264.366855 
L 244.867166 263.357525 
L 246.549313 264.247813 
L 248.231461 263.821641 
L 249.913609 264.36376 
L 251.595757 261.879519 
L 253.277905 262.654348 
L 254.960053 264.273543 
L 256.642201 262.380927 
L 258.324349 264.319629 
L 260.006497 263.294991 
L 261.688645 262.597189 
L 263.370793 264.091805 
L 265.05294 264.528237 
L 266.735088 264.242927 
L 268.417236 264.509346 
L 270.099384 264.190165 
L 271.781532 263.63404 
L 273.46368 261.534445 
L 275.145828 260.874098 
L 276.827976 261.794675 
L 278.510124 263.060165 
L 280.192272 264.477917 
L 281.874419 264.384768 
L 283.556567 264.046533 
L 285.238715 264.120955 
L 286.920863 264.415872 
L 288.603011 264.233808 
L 290.285159 264.497458 
L 291.967307 264.607869 
L 293.649455 264.427108 
L 295.331603 264.417826 
L 298.695898 264.059561 
L 300.378046 264.332982 
L 302.060194 264.239508 
L 305.42449 264.524491 
L 307.106638 264.03318 
L 308.788786 264.462935 
L 313.83523 264.358224 
L 315.517378 263.805519 
L 317.199525 264.099459 
L 318.881673 264.588002 
L 320.563821 264.382488 
L 322.245969 264.026503 
L 323.928117 264.559666 
L 325.610265 263.964132 
L 327.292413 263.895085 
L 330.656709 264.34943 
L 332.338857 263.796073 
L 334.021004 263.60603 
L 335.703152 264.51814 
L 337.3853 264.12242 
L 339.067448 264.282337 
L 340.749596 264.22648 
L 342.431744 262.715905 
L 344.113892 263.676218 
L 345.79604 264.021455 
L 347.478188 264.244067 
L 349.160336 264.208729 
L 350.842484 264.289828 
L 352.524631 264.012987 
L 354.206779 262.959036 
L 355.888927 264.290805 
L 357.571075 263.399702 
L 359.253223 263.365504 
L 360.935371 262.961153 
L 362.617519 264.343079 
L 364.299667 263.874892 
L 365.981815 264.356269 
L 367.663963 264.490945 
L 369.34611 262.141052 
L 371.028258 264.597121 
L 372.710406 264.166226 
L 376.074702 263.756664 
L 377.75685 264.214429 
L 379.438998 264.377928 
L 381.121146 264.162806 
L 382.803294 263.735168 
L 384.485442 264.355618 
L 386.167589 264.066563 
L 387.849737 264.147499 
L 391.214033 264.592887 
L 392.896181 263.860724 
L 394.578329 264.24651 
L 396.260477 263.519232 
L 397.942625 263.751942 
L 399.624773 264.417175 
L 399.624773 264.417175 
" style="fill:none;stroke:#e377c2;stroke-linecap:square;stroke-width:1.5;"/>
   </g>
   <g id="line2d_25">
    <path clip-path="url(#pb542cfbdae)" d="M 74.970227 264.514232 
L 76.652375 264.355781 
L 78.334523 264.61422 
L 80.016671 264.419943 
L 81.698819 264.099133 
L 83.380967 264.482476 
L 85.063115 264.529214 
L 86.745263 264.321909 
L 88.427411 264.487525 
L 90.109558 264.191468 
L 91.791706 264.52042 
L 96.83815 264.360341 
L 98.520298 264.52612 
L 101.884594 264.662097 
L 103.566742 264.432645 
L 105.24889 264.429062 
L 106.931037 264.634413 
L 108.613185 264.0252 
L 110.295333 262.753685 
L 111.977481 264.303344 
L 115.341777 264.551198 
L 117.023925 264.244556 
L 118.706073 264.380534 
L 120.388221 263.562061 
L 122.070369 264.25221 
L 123.752516 264.4701 
L 125.434664 264.349918 
L 127.116812 264.509346 
L 128.79896 264.383791 
L 132.163256 264.510161 
L 135.527552 264.338519 
L 137.2097 264.489967 
L 138.891848 264.353664 
L 143.938291 264.468146 
L 145.620439 264.179905 
L 147.302587 264.301553 
L 148.984735 264.600378 
L 150.666883 264.633436 
L 152.349031 264.435902 
L 157.395475 264.532796 
L 159.077622 264.236739 
L 160.75977 264.430528 
L 165.806214 264.511952 
L 167.488362 264.143102 
L 169.17051 264.096365 
L 170.852658 264.585396 
L 172.534806 263.714812 
L 174.216954 264.303833 
L 175.899102 264.212638 
L 177.581249 264.323211 
L 179.263397 264.263609 
L 180.945545 264.3649 
L 187.674137 264.326143 
L 189.356285 263.914627 
L 191.038433 264.271263 
L 194.402728 263.502133 
L 196.084876 264.353338 
L 197.767024 264.25563 
L 199.449172 264.575788 
L 201.13132 264.424665 
L 202.813468 263.605053 
L 204.495616 264.345359 
L 206.177764 264.365389 
L 207.859912 264.157758 
L 209.54206 264.430365 
L 212.906355 264.174694 
L 214.588503 263.821315 
L 216.270651 264.313441 
L 217.952799 264.012009 
L 219.634947 264.616826 
L 224.681391 264.475148 
L 226.363539 263.90681 
L 228.045687 264.559829 
L 231.409982 264.175509 
L 233.09213 264.520746 
L 234.774278 264.629854 
L 236.456426 263.428689 
L 238.138574 264.463586 
L 239.820722 264.543707 
L 241.50287 263.710741 
L 243.185018 264.618291 
L 244.867166 264.232017 
L 246.549313 264.514232 
L 248.231461 263.951267 
L 249.913609 264.217523 
L 253.277905 263.750965 
L 254.960053 264.631808 
L 256.642201 264.344382 
L 258.324349 264.39633 
L 260.006497 264.062492 
L 263.370793 264.022757 
L 265.05294 264.533936 
L 268.417236 264.579534 
L 270.099384 264.253513 
L 271.781532 264.374346 
L 273.46368 263.700645 
L 275.145828 264.482476 
L 278.510124 263.816267 
L 280.192272 264.585722 
L 281.874419 264.587839 
L 286.920863 264.019663 
L 288.603011 264.34259 
L 293.649455 264.440462 
L 295.331603 264.607381 
L 302.060194 264.272403 
L 305.42449 264.600704 
L 312.153082 264.28999 
L 313.83523 264.516512 
L 315.517378 264.27338 
L 317.199525 264.310672 
L 318.881673 264.637996 
L 322.245969 264.345033 
L 323.928117 264.645161 
L 325.610265 264.288688 
L 328.974561 264.534751 
L 330.656709 264.330051 
L 332.338857 264.519443 
L 335.703152 264.362295 
L 337.3853 264.09441 
L 339.067448 264.575462 
L 342.431744 264.155153 
L 344.113892 264.470426 
L 345.79604 264.339985 
L 352.524631 264.447627 
L 354.206779 264.156944 
L 355.888927 264.232668 
L 357.571075 263.877334 
L 359.253223 264.26996 
L 360.935371 264.471403 
L 364.299667 264.405124 
L 365.981815 264.013638 
L 367.663963 264.581976 
L 369.34611 264.039368 
L 371.028258 264.617803 
L 374.392554 264.552664 
L 376.074702 264.235925 
L 377.75685 264.192119 
L 384.485442 264.46782 
L 386.167589 264.320443 
L 387.849737 264.008264 
L 391.214033 264.600704 
L 392.896181 264.483616 
L 396.260477 264.450558 
L 397.942625 264.238856 
L 399.624773 264.500064 
L 399.624773 264.500064 
" style="fill:none;stroke:#7f7f7f;stroke-linecap:square;stroke-width:1.5;"/>
   </g>
   <g id="line2d_26">
    <path clip-path="url(#pb542cfbdae)" d="M 74.970227 264.687827 
L 98.520298 264.680174 
L 384.485442 264.680174 
L 399.624773 264.679196 
L 399.624773 264.679196 
" style="fill:none;stroke:#bcbd22;stroke-linecap:square;stroke-width:1.5;"/>
   </g>
   <g id="line2d_27">
    <path clip-path="url(#pb542cfbdae)" d="M 74.970227 264.687827 
L 93.473854 264.677405 
L 399.624773 264.680174 
L 399.624773 264.680174 
" style="fill:none;stroke:#17becf;stroke-linecap:square;stroke-width:1.5;"/>
   </g>
   <g id="line2d_28">
    <path clip-path="url(#pb542cfbdae)" d="M 74.970227 264.676102 
L 103.566742 264.679359 
L 135.527552 264.679685 
L 191.038433 264.672194 
L 217.952799 264.67366 
L 228.045687 264.683593 
L 399.624773 264.677405 
L 399.624773 264.677405 
" style="fill:none;stroke:#1f77b4;stroke-linecap:square;stroke-width:1.5;"/>
   </g>
   <g id="line2d_29">
    <path clip-path="url(#pb542cfbdae)" d="M 74.970227 264.687827 
L 399.624773 264.687827 
L 399.624773 264.687827 
" style="fill:none;stroke:#ff7f0e;stroke-linecap:square;stroke-width:1.5;"/>
   </g>
   <g id="patch_3">
    <path d="M 58.7375 276.812 
L 58.7375 10.7 
" style="fill:none;stroke:#000000;stroke-linecap:square;stroke-linejoin:miter;stroke-width:0.8;"/>
   </g>
   <g id="patch_4">
    <path d="M 415.8575 276.812 
L 415.8575 10.7 
" style="fill:none;stroke:#000000;stroke-linecap:square;stroke-linejoin:miter;stroke-width:0.8;"/>
   </g>
   <g id="patch_5">
    <path d="M 58.7375 276.812 
L 415.8575 276.812 
" style="fill:none;stroke:#000000;stroke-linecap:square;stroke-linejoin:miter;stroke-width:0.8;"/>
   </g>
   <g id="patch_6">
    <path d="M 58.7375 10.7 
L 415.8575 10.7 
" style="fill:none;stroke:#000000;stroke-linecap:square;stroke-linejoin:miter;stroke-width:0.8;"/>
   </g>
   <g id="legend_1">
    <g id="patch_7">
     <path d="M 65.7375 165.48125 
L 156.090625 165.48125 
Q 158.090625 165.48125 158.090625 163.48125 
L 158.090625 17.7 
Q 158.090625 15.7 156.090625 15.7 
L 65.7375 15.7 
Q 63.7375 15.7 63.7375 17.7 
L 63.7375 163.48125 
Q 63.7375 165.48125 65.7375 165.48125 
z
" style="fill:#ffffff;opacity:0.8;stroke:#cccccc;stroke-linejoin:miter;"/>
    </g>
    <g id="line2d_30">
     <path d="M 67.7375 23.798437 
L 87.7375 23.798437 
" style="fill:none;stroke:#1f77b4;stroke-linecap:square;stroke-width:1.5;"/>
    </g>
    <g id="line2d_31"/>
    <g id="text_18">
     <!-- delta -->
     <defs>
      <path d="M 45.40625 46.390625 
L 45.40625 75.984375 
L 54.390625 75.984375 
L 54.390625 0 
L 45.40625 0 
L 45.40625 8.203125 
Q 42.578125 3.328125 38.25 0.953125 
Q 33.9375 -1.421875 27.875 -1.421875 
Q 17.96875 -1.421875 11.734375 6.484375 
Q 5.515625 14.40625 5.515625 27.296875 
Q 5.515625 40.1875 11.734375 48.09375 
Q 17.96875 56 27.875 56 
Q 33.9375 56 38.25 53.625 
Q 42.578125 51.265625 45.40625 46.390625 
M 14.796875 27.296875 
Q 14.796875 17.390625 18.875 11.75 
Q 22.953125 6.109375 30.078125 6.109375 
Q 37.203125 6.109375 41.296875 11.75 
Q 45.40625 17.390625 45.40625 27.296875 
Q 45.40625 37.203125 41.296875 42.84375 
Q 37.203125 48.484375 30.078125 48.484375 
Q 22.953125 48.484375 18.875 42.84375 
Q 14.796875 37.203125 14.796875 27.296875 
" id="DejaVuSans-64"/>
      <path d="M 56.203125 29.59375 
L 56.203125 25.203125 
L 14.890625 25.203125 
Q 15.484375 15.921875 20.484375 11.0625 
Q 25.484375 6.203125 34.421875 6.203125 
Q 39.59375 6.203125 44.453125 7.46875 
Q 49.3125 8.734375 54.109375 11.28125 
L 54.109375 2.78125 
Q 49.265625 0.734375 44.1875 -0.34375 
Q 39.109375 -1.421875 33.890625 -1.421875 
Q 20.796875 -1.421875 13.15625 6.1875 
Q 5.515625 13.8125 5.515625 26.8125 
Q 5.515625 40.234375 12.765625 48.109375 
Q 20.015625 56 32.328125 56 
Q 43.359375 56 49.78125 48.890625 
Q 56.203125 41.796875 56.203125 29.59375 
M 47.21875 32.234375 
Q 47.125 39.59375 43.09375 43.984375 
Q 39.0625 48.390625 32.421875 48.390625 
Q 24.90625 48.390625 20.390625 44.140625 
Q 15.875 39.890625 15.1875 32.171875 
z
" id="DejaVuSans-65"/>
      <path d="M 9.421875 75.984375 
L 18.40625 75.984375 
L 18.40625 0 
L 9.421875 0 
z
" id="DejaVuSans-6c"/>
      <path d="M 18.3125 70.21875 
L 18.3125 54.6875 
L 36.8125 54.6875 
L 36.8125 47.703125 
L 18.3125 47.703125 
L 18.3125 18.015625 
Q 18.3125 11.328125 20.140625 9.421875 
Q 21.96875 7.515625 27.59375 7.515625 
L 36.8125 7.515625 
L 36.8125 0 
L 27.59375 0 
Q 17.1875 0 13.234375 3.875 
Q 9.28125 7.765625 9.28125 18.015625 
L 9.28125 47.703125 
L 2.6875 47.703125 
L 2.6875 54.6875 
L 9.28125 54.6875 
L 9.28125 70.21875 
z
" id="DejaVuSans-74"/>
      <path d="M 34.28125 27.484375 
Q 23.390625 27.484375 19.1875 25 
Q 14.984375 22.515625 14.984375 16.5 
Q 14.984375 11.71875 18.140625 8.90625 
Q 21.296875 6.109375 26.703125 6.109375 
Q 34.1875 6.109375 38.703125 11.40625 
Q 43.21875 16.703125 43.21875 25.484375 
L 43.21875 27.484375 
z
M 52.203125 31.203125 
L 52.203125 0 
L 43.21875 0 
L 43.21875 8.296875 
Q 40.140625 3.328125 35.546875 0.953125 
Q 30.953125 -1.421875 24.3125 -1.421875 
Q 15.921875 -1.421875 10.953125 3.296875 
Q 6 8.015625 6 15.921875 
Q 6 25.140625 12.171875 29.828125 
Q 18.359375 34.515625 30.609375 34.515625 
L 43.21875 34.515625 
L 43.21875 35.40625 
Q 43.21875 41.609375 39.140625 45 
Q 35.0625 48.390625 27.6875 48.390625 
Q 23 48.390625 18.546875 47.265625 
Q 14.109375 46.140625 10.015625 43.890625 
L 10.015625 52.203125 
Q 14.9375 54.109375 19.578125 55.046875 
Q 24.21875 56 28.609375 56 
Q 40.484375 56 46.34375 49.84375 
Q 52.203125 43.703125 52.203125 31.203125 
" id="DejaVuSans-61"/>
     </defs>
     <g transform="translate(95.7375 27.298437)scale(0.1 -0.1)">
      <use xlink:href="#DejaVuSans-64"/>
      <use x="63.476562" xlink:href="#DejaVuSans-65"/>
      <use x="125" xlink:href="#DejaVuSans-6c"/>
      <use x="152.783203" xlink:href="#DejaVuSans-74"/>
      <use x="191.992188" xlink:href="#DejaVuSans-61"/>
     </g>
    </g>
    <g id="line2d_32">
     <path d="M 67.7375 38.476562 
L 87.7375 38.476562 
" style="fill:none;stroke:#ff7f0e;stroke-linecap:square;stroke-width:1.5;"/>
    </g>
    <g id="line2d_33"/>
    <g id="text_19">
     <!-- lowAlpha -->
     <defs>
      <path d="M 30.609375 48.390625 
Q 23.390625 48.390625 19.1875 42.75 
Q 14.984375 37.109375 14.984375 27.296875 
Q 14.984375 17.484375 19.15625 11.84375 
Q 23.34375 6.203125 30.609375 6.203125 
Q 37.796875 6.203125 41.984375 11.859375 
Q 46.1875 17.53125 46.1875 27.296875 
Q 46.1875 37.015625 41.984375 42.703125 
Q 37.796875 48.390625 30.609375 48.390625 
M 30.609375 56 
Q 42.328125 56 49.015625 48.375 
Q 55.71875 40.765625 55.71875 27.296875 
Q 55.71875 13.875 49.015625 6.21875 
Q 42.328125 -1.421875 30.609375 -1.421875 
Q 18.84375 -1.421875 12.171875 6.21875 
Q 5.515625 13.875 5.515625 27.296875 
Q 5.515625 40.765625 12.171875 48.375 
Q 18.84375 56 30.609375 56 
" id="DejaVuSans-6f"/>
      <path d="M 4.203125 54.6875 
L 13.1875 54.6875 
L 24.421875 12.015625 
L 35.59375 54.6875 
L 46.1875 54.6875 
L 57.421875 12.015625 
L 68.609375 54.6875 
L 77.59375 54.6875 
L 63.28125 0 
L 52.6875 0 
L 40.921875 44.828125 
L 29.109375 0 
L 18.5 0 
z
" id="DejaVuSans-77"/>
      <path d="M 34.1875 63.1875 
L 20.796875 26.90625 
L 47.609375 26.90625 
z
M 28.609375 72.90625 
L 39.796875 72.90625 
L 67.578125 0 
L 57.328125 0 
L 50.6875 18.703125 
L 17.828125 18.703125 
L 11.1875 0 
L 0.78125 0 
z
" id="DejaVuSans-41"/>
      <path d="M 18.109375 8.203125 
L 18.109375 -20.796875 
L 9.078125 -20.796875 
L 9.078125 54.6875 
L 18.109375 54.6875 
L 18.109375 46.390625 
Q 20.953125 51.265625 25.265625 53.625 
Q 29.59375 56 35.59375 56 
Q 45.5625 56 51.78125 48.09375 
Q 58.015625 40.1875 58.015625 27.296875 
Q 58.015625 14.40625 51.78125 6.484375 
Q 45.5625 -1.421875 35.59375 -1.421875 
Q 29.59375 -1.421875 25.265625 0.953125 
Q 20.953125 3.328125 18.109375 8.203125 
M 48.6875 27.296875 
Q 48.6875 37.203125 44.609375 42.84375 
Q 40.53125 48.484375 33.40625 48.484375 
Q 26.265625 48.484375 22.1875 42.84375 
Q 18.109375 37.203125 18.109375 27.296875 
Q 18.109375 17.390625 22.1875 11.75 
Q 26.265625 6.109375 33.40625 6.109375 
Q 40.53125 6.109375 44.609375 11.75 
Q 48.6875 17.390625 48.6875 27.296875 
" id="DejaVuSans-70"/>
      <path d="M 54.890625 33.015625 
L 54.890625 0 
L 45.90625 0 
L 45.90625 32.71875 
Q 45.90625 40.484375 42.875 44.328125 
Q 39.84375 48.1875 33.796875 48.1875 
Q 26.515625 48.1875 22.3125 43.546875 
Q 18.109375 38.921875 18.109375 30.90625 
L 18.109375 0 
L 9.078125 0 
L 9.078125 75.984375 
L 18.109375 75.984375 
L 18.109375 46.1875 
Q 21.34375 51.125 25.703125 53.5625 
Q 30.078125 56 35.796875 56 
Q 45.21875 56 50.046875 50.171875 
Q 54.890625 44.34375 54.890625 33.015625 
" id="DejaVuSans-68"/>
     </defs>
     <g transform="translate(95.7375 41.976562)scale(0.1 -0.1)">
      <use xlink:href="#DejaVuSans-6c"/>
      <use x="27.783203" xlink:href="#DejaVuSans-6f"/>
      <use x="88.964844" xlink:href="#DejaVuSans-77"/>
      <use x="170.751953" xlink:href="#DejaVuSans-41"/>
      <use x="239.160156" xlink:href="#DejaVuSans-6c"/>
      <use x="266.943359" xlink:href="#DejaVuSans-70"/>
      <use x="330.419922" xlink:href="#DejaVuSans-68"/>
      <use x="393.798828" xlink:href="#DejaVuSans-61"/>
     </g>
    </g>
    <g id="line2d_34">
     <path d="M 67.7375 53.154687 
L 87.7375 53.154687 
" style="fill:none;stroke:#2ca02c;stroke-linecap:square;stroke-width:1.5;"/>
    </g>
    <g id="line2d_35"/>
    <g id="text_20">
     <!-- highAlpha -->
     <defs>
      <path d="M 9.421875 54.6875 
L 18.40625 54.6875 
L 18.40625 0 
L 9.421875 0 
z
M 9.421875 75.984375 
L 18.40625 75.984375 
L 18.40625 64.59375 
L 9.421875 64.59375 
z
" id="DejaVuSans-69"/>
      <path d="M 45.40625 27.984375 
Q 45.40625 37.75 41.375 43.109375 
Q 37.359375 48.484375 30.078125 48.484375 
Q 22.859375 48.484375 18.828125 43.109375 
Q 14.796875 37.75 14.796875 27.984375 
Q 14.796875 18.265625 18.828125 12.890625 
Q 22.859375 7.515625 30.078125 7.515625 
Q 37.359375 7.515625 41.375 12.890625 
Q 45.40625 18.265625 45.40625 27.984375 
M 54.390625 6.78125 
Q 54.390625 -7.171875 48.1875 -13.984375 
Q 42 -20.796875 29.203125 -20.796875 
Q 24.46875 -20.796875 20.265625 -20.09375 
Q 16.0625 -19.390625 12.109375 -17.921875 
L 12.109375 -9.1875 
Q 16.0625 -11.328125 19.921875 -12.34375 
Q 23.78125 -13.375 27.78125 -13.375 
Q 36.625 -13.375 41.015625 -8.765625 
Q 45.40625 -4.15625 45.40625 5.171875 
L 45.40625 9.625 
Q 42.625 4.78125 38.28125 2.390625 
Q 33.9375 0 27.875 0 
Q 17.828125 0 11.671875 7.65625 
Q 5.515625 15.328125 5.515625 27.984375 
Q 5.515625 40.671875 11.671875 48.328125 
Q 17.828125 56 27.875 56 
Q 33.9375 56 38.28125 53.609375 
Q 42.625 51.21875 45.40625 46.390625 
L 45.40625 54.6875 
L 54.390625 54.6875 
z
" id="DejaVuSans-67"/>
     </defs>
     <g transform="translate(95.7375 56.654687)scale(0.1 -0.1)">
      <use xlink:href="#DejaVuSans-68"/>
      <use x="63.378906" xlink:href="#DejaVuSans-69"/>
      <use x="91.162109" xlink:href="#DejaVuSans-67"/>
      <use x="154.638672" xlink:href="#DejaVuSans-68"/>
      <use x="218.017578" xlink:href="#DejaVuSans-41"/>
      <use x="286.425781" xlink:href="#DejaVuSans-6c"/>
      <use x="314.208984" xlink:href="#DejaVuSans-70"/>
      <use x="377.685547" xlink:href="#DejaVuSans-68"/>
      <use x="441.064453" xlink:href="#DejaVuSans-61"/>
     </g>
    </g>
    <g id="line2d_36">
     <path d="M 67.7375 67.832812 
L 87.7375 67.832812 
" style="fill:none;stroke:#d62728;stroke-linecap:square;stroke-width:1.5;"/>
    </g>
    <g id="line2d_37"/>
    <g id="text_21">
     <!-- lowBeta -->
     <defs>
      <path d="M 19.671875 34.8125 
L 19.671875 8.109375 
L 35.5 8.109375 
Q 43.453125 8.109375 47.28125 11.40625 
Q 51.125 14.703125 51.125 21.484375 
Q 51.125 28.328125 47.28125 31.5625 
Q 43.453125 34.8125 35.5 34.8125 
z
M 19.671875 64.796875 
L 19.671875 42.828125 
L 34.28125 42.828125 
Q 41.5 42.828125 45.03125 45.53125 
Q 48.578125 48.25 48.578125 53.8125 
Q 48.578125 59.328125 45.03125 62.0625 
Q 41.5 64.796875 34.28125 64.796875 
z
M 9.8125 72.90625 
L 35.015625 72.90625 
Q 46.296875 72.90625 52.390625 68.21875 
Q 58.5 63.53125 58.5 54.890625 
Q 58.5 48.1875 55.375 44.234375 
Q 52.25 40.28125 46.1875 39.3125 
Q 53.46875 37.75 57.5 32.78125 
Q 61.53125 27.828125 61.53125 20.40625 
Q 61.53125 10.640625 54.890625 5.3125 
Q 48.25 0 35.984375 0 
L 9.8125 0 
z
" id="DejaVuSans-42"/>
     </defs>
     <g transform="translate(95.7375 71.332812)scale(0.1 -0.1)">
      <use xlink:href="#DejaVuSans-6c"/>
      <use x="27.783203" xlink:href="#DejaVuSans-6f"/>
      <use x="88.964844" xlink:href="#DejaVuSans-77"/>
      <use x="170.751953" xlink:href="#DejaVuSans-42"/>
      <use x="239.355469" xlink:href="#DejaVuSans-65"/>
      <use x="300.878906" xlink:href="#DejaVuSans-74"/>
      <use x="340.087891" xlink:href="#DejaVuSans-61"/>
     </g>
    </g>
    <g id="line2d_38">
     <path d="M 67.7375 82.510938 
L 87.7375 82.510938 
" style="fill:none;stroke:#9467bd;stroke-linecap:square;stroke-width:1.5;"/>
    </g>
    <g id="line2d_39"/>
    <g id="text_22">
     <!-- highBeta -->
     <g transform="translate(95.7375 86.010938)scale(0.1 -0.1)">
      <use xlink:href="#DejaVuSans-68"/>
      <use x="63.378906" xlink:href="#DejaVuSans-69"/>
      <use x="91.162109" xlink:href="#DejaVuSans-67"/>
      <use x="154.638672" xlink:href="#DejaVuSans-68"/>
      <use x="218.017578" xlink:href="#DejaVuSans-42"/>
      <use x="286.621094" xlink:href="#DejaVuSans-65"/>
      <use x="348.144531" xlink:href="#DejaVuSans-74"/>
      <use x="387.353516" xlink:href="#DejaVuSans-61"/>
     </g>
    </g>
    <g id="line2d_40">
     <path d="M 67.7375 97.189062 
L 87.7375 97.189062 
" style="fill:none;stroke:#8c564b;stroke-linecap:square;stroke-width:1.5;"/>
    </g>
    <g id="line2d_41"/>
    <g id="text_23">
     <!-- lowGamma -->
     <defs>
      <path d="M 59.515625 10.40625 
L 59.515625 29.984375 
L 43.40625 29.984375 
L 43.40625 38.09375 
L 69.28125 38.09375 
L 69.28125 6.78125 
Q 63.578125 2.734375 56.6875 0.65625 
Q 49.8125 -1.421875 42 -1.421875 
Q 24.90625 -1.421875 15.25 8.5625 
Q 5.609375 18.5625 5.609375 36.375 
Q 5.609375 54.25 15.25 64.234375 
Q 24.90625 74.21875 42 74.21875 
Q 49.125 74.21875 55.546875 72.453125 
Q 61.96875 70.703125 67.390625 67.28125 
L 67.390625 56.78125 
Q 61.921875 61.421875 55.765625 63.765625 
Q 49.609375 66.109375 42.828125 66.109375 
Q 29.4375 66.109375 22.71875 58.640625 
Q 16.015625 51.171875 16.015625 36.375 
Q 16.015625 21.625 22.71875 14.15625 
Q 29.4375 6.6875 42.828125 6.6875 
Q 48.046875 6.6875 52.140625 7.59375 
Q 56.25 8.5 59.515625 10.40625 
" id="DejaVuSans-47"/>
      <path d="M 52 44.1875 
Q 55.375 50.25 60.0625 53.125 
Q 64.75 56 71.09375 56 
Q 79.640625 56 84.28125 50.015625 
Q 88.921875 44.046875 88.921875 33.015625 
L 88.921875 0 
L 79.890625 0 
L 79.890625 32.71875 
Q 79.890625 40.578125 77.09375 44.375 
Q 74.3125 48.1875 68.609375 48.1875 
Q 61.625 48.1875 57.5625 43.546875 
Q 53.515625 38.921875 53.515625 30.90625 
L 53.515625 0 
L 44.484375 0 
L 44.484375 32.71875 
Q 44.484375 40.625 41.703125 44.40625 
Q 38.921875 48.1875 33.109375 48.1875 
Q 26.21875 48.1875 22.15625 43.53125 
Q 18.109375 38.875 18.109375 30.90625 
L 18.109375 0 
L 9.078125 0 
L 9.078125 54.6875 
L 18.109375 54.6875 
L 18.109375 46.1875 
Q 21.1875 51.21875 25.484375 53.609375 
Q 29.78125 56 35.6875 56 
Q 41.65625 56 45.828125 52.96875 
Q 50 49.953125 52 44.1875 
" id="DejaVuSans-6d"/>
     </defs>
     <g transform="translate(95.7375 100.689062)scale(0.1 -0.1)">
      <use xlink:href="#DejaVuSans-6c"/>
      <use x="27.783203" xlink:href="#DejaVuSans-6f"/>
      <use x="88.964844" xlink:href="#DejaVuSans-77"/>
      <use x="170.751953" xlink:href="#DejaVuSans-47"/>
      <use x="248.242188" xlink:href="#DejaVuSans-61"/>
      <use x="309.521484" xlink:href="#DejaVuSans-6d"/>
      <use x="406.933594" xlink:href="#DejaVuSans-6d"/>
      <use x="504.345703" xlink:href="#DejaVuSans-61"/>
     </g>
    </g>
    <g id="line2d_42">
     <path d="M 67.7375 111.867188 
L 87.7375 111.867188 
" style="fill:none;stroke:#e377c2;stroke-linecap:square;stroke-width:1.5;"/>
    </g>
    <g id="line2d_43"/>
    <g id="text_24">
     <!-- midGamma -->
     <g transform="translate(95.7375 115.367188)scale(0.1 -0.1)">
      <use xlink:href="#DejaVuSans-6d"/>
      <use x="97.412109" xlink:href="#DejaVuSans-69"/>
      <use x="125.195312" xlink:href="#DejaVuSans-64"/>
      <use x="188.671875" xlink:href="#DejaVuSans-47"/>
      <use x="266.162109" xlink:href="#DejaVuSans-61"/>
      <use x="327.441406" xlink:href="#DejaVuSans-6d"/>
      <use x="424.853516" xlink:href="#DejaVuSans-6d"/>
      <use x="522.265625" xlink:href="#DejaVuSans-61"/>
     </g>
    </g>
    <g id="line2d_44">
     <path d="M 67.7375 126.545312 
L 87.7375 126.545312 
" style="fill:none;stroke:#7f7f7f;stroke-linecap:square;stroke-width:1.5;"/>
    </g>
    <g id="line2d_45"/>
    <g id="text_25">
     <!-- attention -->
     <defs>
      <path d="M 54.890625 33.015625 
L 54.890625 0 
L 45.90625 0 
L 45.90625 32.71875 
Q 45.90625 40.484375 42.875 44.328125 
Q 39.84375 48.1875 33.796875 48.1875 
Q 26.515625 48.1875 22.3125 43.546875 
Q 18.109375 38.921875 18.109375 30.90625 
L 18.109375 0 
L 9.078125 0 
L 9.078125 54.6875 
L 18.109375 54.6875 
L 18.109375 46.1875 
Q 21.34375 51.125 25.703125 53.5625 
Q 30.078125 56 35.796875 56 
Q 45.21875 56 50.046875 50.171875 
Q 54.890625 44.34375 54.890625 33.015625 
" id="DejaVuSans-6e"/>
     </defs>
     <g transform="translate(95.7375 130.045312)scale(0.1 -0.1)">
      <use xlink:href="#DejaVuSans-61"/>
      <use x="61.279297" xlink:href="#DejaVuSans-74"/>
      <use x="100.488281" xlink:href="#DejaVuSans-74"/>
      <use x="139.697266" xlink:href="#DejaVuSans-65"/>
      <use x="201.220703" xlink:href="#DejaVuSans-6e"/>
      <use x="264.599609" xlink:href="#DejaVuSans-74"/>
      <use x="303.808594" xlink:href="#DejaVuSans-69"/>
      <use x="331.591797" xlink:href="#DejaVuSans-6f"/>
      <use x="392.773438" xlink:href="#DejaVuSans-6e"/>
     </g>
    </g>
    <g id="line2d_46">
     <path d="M 67.7375 141.223437 
L 87.7375 141.223437 
" style="fill:none;stroke:#bcbd22;stroke-linecap:square;stroke-width:1.5;"/>
    </g>
    <g id="line2d_47"/>
    <g id="text_26">
     <!-- meditation -->
     <g transform="translate(95.7375 144.723437)scale(0.1 -0.1)">
      <use xlink:href="#DejaVuSans-6d"/>
      <use x="97.412109" xlink:href="#DejaVuSans-65"/>
      <use x="158.935547" xlink:href="#DejaVuSans-64"/>
      <use x="222.412109" xlink:href="#DejaVuSans-69"/>
      <use x="250.195312" xlink:href="#DejaVuSans-74"/>
      <use x="289.404297" xlink:href="#DejaVuSans-61"/>
      <use x="350.683594" xlink:href="#DejaVuSans-74"/>
      <use x="389.892578" xlink:href="#DejaVuSans-69"/>
      <use x="417.675781" xlink:href="#DejaVuSans-6f"/>
      <use x="478.857422" xlink:href="#DejaVuSans-6e"/>
     </g>
    </g>
    <g id="line2d_48">
     <path d="M 67.7375 155.901562 
L 87.7375 155.901562 
" style="fill:none;stroke:#17becf;stroke-linecap:square;stroke-width:1.5;"/>
    </g>
    <g id="line2d_49"/>
    <g id="text_27">
     <!-- rawValue -->
     <defs>
      <path d="M 41.109375 46.296875 
Q 39.59375 47.171875 37.8125 47.578125 
Q 36.03125 48 33.890625 48 
Q 26.265625 48 22.1875 43.046875 
Q 18.109375 38.09375 18.109375 28.8125 
L 18.109375 0 
L 9.078125 0 
L 9.078125 54.6875 
L 18.109375 54.6875 
L 18.109375 46.1875 
Q 20.953125 51.171875 25.484375 53.578125 
Q 30.03125 56 36.53125 56 
Q 37.453125 56 38.578125 55.875 
Q 39.703125 55.765625 41.0625 55.515625 
z
" id="DejaVuSans-72"/>
      <path d="M 28.609375 0 
L 0.78125 72.90625 
L 11.078125 72.90625 
L 34.1875 11.53125 
L 57.328125 72.90625 
L 67.578125 72.90625 
L 39.796875 0 
z
" id="DejaVuSans-56"/>
      <path d="M 8.5 21.578125 
L 8.5 54.6875 
L 17.484375 54.6875 
L 17.484375 21.921875 
Q 17.484375 14.15625 20.5 10.265625 
Q 23.53125 6.390625 29.59375 6.390625 
Q 36.859375 6.390625 41.078125 11.03125 
Q 45.3125 15.671875 45.3125 23.6875 
L 45.3125 54.6875 
L 54.296875 54.6875 
L 54.296875 0 
L 45.3125 0 
L 45.3125 8.40625 
Q 42.046875 3.421875 37.71875 1 
Q 33.40625 -1.421875 27.6875 -1.421875 
Q 18.265625 -1.421875 13.375 4.4375 
Q 8.5 10.296875 8.5 21.578125 
M 31.109375 56 
z
" id="DejaVuSans-75"/>
     </defs>
     <g transform="translate(95.7375 159.401562)scale(0.1 -0.1)">
      <use xlink:href="#DejaVuSans-72"/>
      <use x="41.113281" xlink:href="#DejaVuSans-61"/>
      <use x="102.392578" xlink:href="#DejaVuSans-77"/>
      <use x="184.179688" xlink:href="#DejaVuSans-56"/>
      <use x="252.478516" xlink:href="#DejaVuSans-61"/>
      <use x="313.757812" xlink:href="#DejaVuSans-6c"/>
      <use x="341.541016" xlink:href="#DejaVuSans-75"/>
      <use x="404.919922" xlink:href="#DejaVuSans-65"/>
     </g>
    </g>
   </g>
  </g>
 </g>
 <defs>
  <clipPath id="pb542cfbdae">
   <rect height="266.112" width="357.12" x="58.7375" y="10.7"/>
  </clipPath>
 </defs>
</svg>
