<?xml version="1.0" encoding="utf-8" standalone="no"?>
<!DOCTYPE svg PUBLIC "-//W3C//DTD SVG 1.1//EN"
  "http://www.w3.org/Graphics/SVG/1.1/DTD/svg11.dtd">
<!-- Created with matplotlib (http://matplotlib.org/) -->
<svg height="300pt" version="1.1" viewBox="0 0 428 300" width="428pt" xmlns="http://www.w3.org/2000/svg" xmlns:xlink="http://www.w3.org/1999/xlink">
 <defs>
  <style type="text/css">
*{stroke-linecap:butt;stroke-linejoin:round;}
  </style>
 </defs>
 <g id="figure_1">
  <g id="patch_1">
   <path d="M 0 300.690125 
L 428.143558 300.690125 
L 428.143558 0 
L 0 0 
z
" style="fill:#ffffff;"/>
  </g>
  <g id="axes_1">
   <g id="patch_2">
    <path d="M 58.7375 276.812 
L 415.8575 276.812 
L 415.8575 10.7 
L 58.7375 10.7 
z
" style="fill:#ffffff;"/>
   </g>
   <g id="matplotlib.axis_1">
    <g id="xtick_1">
     <g id="line2d_1">
      <defs>
       <path d="M 0 0 
L 0 3.5 
" id="medfdcbf99a" style="stroke:#000000;stroke-width:0.8;"/>
      </defs>
      <g>
       <use style="stroke:#000000;stroke-width:0.8;" x="74.970227" xlink:href="#medfdcbf99a" y="276.812"/>
      </g>
     </g>
     <g id="text_1">
      <!-- 0 -->
      <defs>
       <path d="M 31.78125 66.40625 
Q 24.171875 66.40625 20.328125 58.90625 
Q 16.5 51.421875 16.5 36.375 
Q 16.5 21.390625 20.328125 13.890625 
Q 24.171875 6.390625 31.78125 6.390625 
Q 39.453125 6.390625 43.28125 13.890625 
Q 47.125 21.390625 47.125 36.375 
Q 47.125 51.421875 43.28125 58.90625 
Q 39.453125 66.40625 31.78125 66.40625 
M 31.78125 74.21875 
Q 44.046875 74.21875 50.515625 64.515625 
Q 56.984375 54.828125 56.984375 36.375 
Q 56.984375 17.96875 50.515625 8.265625 
Q 44.046875 -1.421875 31.78125 -1.421875 
Q 19.53125 -1.421875 13.0625 8.265625 
Q 6.59375 17.96875 6.59375 36.375 
Q 6.59375 54.828125 13.0625 64.515625 
Q 19.53125 74.21875 31.78125 74.21875 
" id="DejaVuSans-30"/>
      </defs>
      <g transform="translate(71.788977 291.410437)scale(0.1 -0.1)">
       <use xlink:href="#DejaVuSans-30"/>
      </g>
     </g>
    </g>
    <g id="xtick_2">
     <g id="line2d_2">
      <g>
       <use style="stroke:#000000;stroke-width:0.8;" x="117.023925" xlink:href="#medfdcbf99a" y="276.812"/>
      </g>
     </g>
     <g id="text_2">
      <!-- 25 -->
      <defs>
       <path d="M 19.1875 8.296875 
L 53.609375 8.296875 
L 53.609375 0 
L 7.328125 0 
L 7.328125 8.296875 
Q 12.9375 14.109375 22.625 23.890625 
Q 32.328125 33.6875 34.8125 36.53125 
Q 39.546875 41.84375 41.421875 45.53125 
Q 43.3125 49.21875 43.3125 52.78125 
Q 43.3125 58.59375 39.234375 62.25 
Q 35.15625 65.921875 28.609375 65.921875 
Q 23.96875 65.921875 18.8125 64.3125 
Q 13.671875 62.703125 7.8125 59.421875 
L 7.8125 69.390625 
Q 13.765625 71.78125 18.9375 73 
Q 24.125 74.21875 28.421875 74.21875 
Q 39.75 74.21875 46.484375 68.546875 
Q 53.21875 62.890625 53.21875 53.421875 
Q 53.21875 48.921875 51.53125 44.890625 
Q 49.859375 40.875 45.40625 35.40625 
Q 44.1875 33.984375 37.640625 27.21875 
Q 31.109375 20.453125 19.1875 8.296875 
" id="DejaVuSans-32"/>
       <path d="M 10.796875 72.90625 
L 49.515625 72.90625 
L 49.515625 64.59375 
L 19.828125 64.59375 
L 19.828125 46.734375 
Q 21.96875 47.46875 24.109375 47.828125 
Q 26.265625 48.1875 28.421875 48.1875 
Q 40.625 48.1875 47.75 41.5 
Q 54.890625 34.8125 54.890625 23.390625 
Q 54.890625 11.625 47.5625 5.09375 
Q 40.234375 -1.421875 26.90625 -1.421875 
Q 22.3125 -1.421875 17.546875 -0.640625 
Q 12.796875 0.140625 7.71875 1.703125 
L 7.71875 11.625 
Q 12.109375 9.234375 16.796875 8.0625 
Q 21.484375 6.890625 26.703125 6.890625 
Q 35.15625 6.890625 40.078125 11.328125 
Q 45.015625 15.765625 45.015625 23.390625 
Q 45.015625 31 40.078125 35.4375 
Q 35.15625 39.890625 26.703125 39.890625 
Q 22.75 39.890625 18.8125 39.015625 
Q 14.890625 38.140625 10.796875 36.28125 
z
" id="DejaVuSans-35"/>
      </defs>
      <g transform="translate(110.661425 291.410437)scale(0.1 -0.1)">
       <use xlink:href="#DejaVuSans-32"/>
       <use x="63.623047" xlink:href="#DejaVuSans-35"/>
      </g>
     </g>
    </g>
    <g id="xtick_3">
     <g id="line2d_3">
      <g>
       <use style="stroke:#000000;stroke-width:0.8;" x="159.077622" xlink:href="#medfdcbf99a" y="276.812"/>
      </g>
     </g>
     <g id="text_3">
      <!-- 50 -->
      <g transform="translate(152.715122 291.410437)scale(0.1 -0.1)">
       <use xlink:href="#DejaVuSans-35"/>
       <use x="63.623047" xlink:href="#DejaVuSans-30"/>
      </g>
     </g>
    </g>
    <g id="xtick_4">
     <g id="line2d_4">
      <g>
       <use style="stroke:#000000;stroke-width:0.8;" x="201.13132" xlink:href="#medfdcbf99a" y="276.812"/>
      </g>
     </g>
     <g id="text_4">
      <!-- 75 -->
      <defs>
       <path d="M 8.203125 72.90625 
L 55.078125 72.90625 
L 55.078125 68.703125 
L 28.609375 0 
L 18.3125 0 
L 43.21875 64.59375 
L 8.203125 64.59375 
z
" id="DejaVuSans-37"/>
      </defs>
      <g transform="translate(194.76882 291.410437)scale(0.1 -0.1)">
       <use xlink:href="#DejaVuSans-37"/>
       <use x="63.623047" xlink:href="#DejaVuSans-35"/>
      </g>
     </g>
    </g>
    <g id="xtick_5">
     <g id="line2d_5">
      <g>
       <use style="stroke:#000000;stroke-width:0.8;" x="243.185018" xlink:href="#medfdcbf99a" y="276.812"/>
      </g>
     </g>
     <g id="text_5">
      <!-- 100 -->
      <defs>
       <path d="M 12.40625 8.296875 
L 28.515625 8.296875 
L 28.515625 63.921875 
L 10.984375 60.40625 
L 10.984375 69.390625 
L 28.421875 72.90625 
L 38.28125 72.90625 
L 38.28125 8.296875 
L 54.390625 8.296875 
L 54.390625 0 
L 12.40625 0 
z
" id="DejaVuSans-31"/>
      </defs>
      <g transform="translate(233.641268 291.410437)scale(0.1 -0.1)">
       <use xlink:href="#DejaVuSans-31"/>
       <use x="63.623047" xlink:href="#DejaVuSans-30"/>
       <use x="127.246094" xlink:href="#DejaVuSans-30"/>
      </g>
     </g>
    </g>
    <g id="xtick_6">
     <g id="line2d_6">
      <g>
       <use style="stroke:#000000;stroke-width:0.8;" x="285.238715" xlink:href="#medfdcbf99a" y="276.812"/>
      </g>
     </g>
     <g id="text_6">
      <!-- 125 -->
      <g transform="translate(275.694965 291.410437)scale(0.1 -0.1)">
       <use xlink:href="#DejaVuSans-31"/>
       <use x="63.623047" xlink:href="#DejaVuSans-32"/>
       <use x="127.246094" xlink:href="#DejaVuSans-35"/>
      </g>
     </g>
    </g>
    <g id="xtick_7">
     <g id="line2d_7">
      <g>
       <use style="stroke:#000000;stroke-width:0.8;" x="327.292413" xlink:href="#medfdcbf99a" y="276.812"/>
      </g>
     </g>
     <g id="text_7">
      <!-- 150 -->
      <g transform="translate(317.748663 291.410437)scale(0.1 -0.1)">
       <use xlink:href="#DejaVuSans-31"/>
       <use x="63.623047" xlink:href="#DejaVuSans-35"/>
       <use x="127.246094" xlink:href="#DejaVuSans-30"/>
      </g>
     </g>
    </g>
    <g id="xtick_8">
     <g id="line2d_8">
      <g>
       <use style="stroke:#000000;stroke-width:0.8;" x="369.34611" xlink:href="#medfdcbf99a" y="276.812"/>
      </g>
     </g>
     <g id="text_8">
      <!-- 175 -->
      <g transform="translate(359.80236 291.410437)scale(0.1 -0.1)">
       <use xlink:href="#DejaVuSans-31"/>
       <use x="63.623047" xlink:href="#DejaVuSans-37"/>
       <use x="127.246094" xlink:href="#DejaVuSans-35"/>
      </g>
     </g>
    </g>
    <g id="xtick_9">
     <g id="line2d_9">
      <g>
       <use style="stroke:#000000;stroke-width:0.8;" x="411.399808" xlink:href="#medfdcbf99a" y="276.812"/>
      </g>
     </g>
     <g id="text_9">
      <!-- 200 -->
      <g transform="translate(401.856058 291.410437)scale(0.1 -0.1)">
       <use xlink:href="#DejaVuSans-32"/>
       <use x="63.623047" xlink:href="#DejaVuSans-30"/>
       <use x="127.246094" xlink:href="#DejaVuSans-30"/>
      </g>
     </g>
    </g>
   </g>
   <g id="matplotlib.axis_2">
    <g id="ytick_1">
     <g id="line2d_10">
      <defs>
       <path d="M 0 0 
L -3.5 0 
" id="ma72405785b" style="stroke:#000000;stroke-width:0.8;"/>
      </defs>
      <g>
       <use style="stroke:#000000;stroke-width:0.8;" x="58.7375" xlink:href="#ma72405785b" y="264.588222"/>
      </g>
     </g>
     <g id="text_10">
      <!-- 0 -->
      <g transform="translate(45.375 268.387441)scale(0.1 -0.1)">
       <use xlink:href="#DejaVuSans-30"/>
      </g>
     </g>
    </g>
    <g id="ytick_2">
     <g id="line2d_11">
      <g>
       <use style="stroke:#000000;stroke-width:0.8;" x="58.7375" xlink:href="#ma72405785b" y="227.78582"/>
      </g>
     </g>
     <g id="text_11">
      <!-- 500000 -->
      <g transform="translate(13.5625 231.585039)scale(0.1 -0.1)">
       <use xlink:href="#DejaVuSans-35"/>
       <use x="63.623047" xlink:href="#DejaVuSans-30"/>
       <use x="127.246094" xlink:href="#DejaVuSans-30"/>
       <use x="190.869141" xlink:href="#DejaVuSans-30"/>
       <use x="254.492188" xlink:href="#DejaVuSans-30"/>
       <use x="318.115234" xlink:href="#DejaVuSans-30"/>
      </g>
     </g>
    </g>
    <g id="ytick_3">
     <g id="line2d_12">
      <g>
       <use style="stroke:#000000;stroke-width:0.8;" x="58.7375" xlink:href="#ma72405785b" y="190.983418"/>
      </g>
     </g>
     <g id="text_12">
      <!-- 1000000 -->
      <g transform="translate(7.2 194.782637)scale(0.1 -0.1)">
       <use xlink:href="#DejaVuSans-31"/>
       <use x="63.623047" xlink:href="#DejaVuSans-30"/>
       <use x="127.246094" xlink:href="#DejaVuSans-30"/>
       <use x="190.869141" xlink:href="#DejaVuSans-30"/>
       <use x="254.492188" xlink:href="#DejaVuSans-30"/>
       <use x="318.115234" xlink:href="#DejaVuSans-30"/>
       <use x="381.738281" xlink:href="#DejaVuSans-30"/>
      </g>
     </g>
    </g>
    <g id="ytick_4">
     <g id="line2d_13">
      <g>
       <use style="stroke:#000000;stroke-width:0.8;" x="58.7375" xlink:href="#ma72405785b" y="154.181016"/>
      </g>
     </g>
     <g id="text_13">
      <!-- 1500000 -->
      <g transform="translate(7.2 157.980235)scale(0.1 -0.1)">
       <use xlink:href="#DejaVuSans-31"/>
       <use x="63.623047" xlink:href="#DejaVuSans-35"/>
       <use x="127.246094" xlink:href="#DejaVuSans-30"/>
       <use x="190.869141" xlink:href="#DejaVuSans-30"/>
       <use x="254.492188" xlink:href="#DejaVuSans-30"/>
       <use x="318.115234" xlink:href="#DejaVuSans-30"/>
       <use x="381.738281" xlink:href="#DejaVuSans-30"/>
      </g>
     </g>
    </g>
    <g id="ytick_5">
     <g id="line2d_14">
      <g>
       <use style="stroke:#000000;stroke-width:0.8;" x="58.7375" xlink:href="#ma72405785b" y="117.378614"/>
      </g>
     </g>
     <g id="text_14">
      <!-- 2000000 -->
      <g transform="translate(7.2 121.177833)scale(0.1 -0.1)">
       <use xlink:href="#DejaVuSans-32"/>
       <use x="63.623047" xlink:href="#DejaVuSans-30"/>
       <use x="127.246094" xlink:href="#DejaVuSans-30"/>
       <use x="190.869141" xlink:href="#DejaVuSans-30"/>
       <use x="254.492188" xlink:href="#DejaVuSans-30"/>
       <use x="318.115234" xlink:href="#DejaVuSans-30"/>
       <use x="381.738281" xlink:href="#DejaVuSans-30"/>
      </g>
     </g>
    </g>
    <g id="ytick_6">
     <g id="line2d_15">
      <g>
       <use style="stroke:#000000;stroke-width:0.8;" x="58.7375" xlink:href="#ma72405785b" y="80.576213"/>
      </g>
     </g>
     <g id="text_15">
      <!-- 2500000 -->
      <g transform="translate(7.2 84.375431)scale(0.1 -0.1)">
       <use xlink:href="#DejaVuSans-32"/>
       <use x="63.623047" xlink:href="#DejaVuSans-35"/>
       <use x="127.246094" xlink:href="#DejaVuSans-30"/>
       <use x="190.869141" xlink:href="#DejaVuSans-30"/>
       <use x="254.492188" xlink:href="#DejaVuSans-30"/>
       <use x="318.115234" xlink:href="#DejaVuSans-30"/>
       <use x="381.738281" xlink:href="#DejaVuSans-30"/>
      </g>
     </g>
    </g>
    <g id="ytick_7">
     <g id="line2d_16">
      <g>
       <use style="stroke:#000000;stroke-width:0.8;" x="58.7375" xlink:href="#ma72405785b" y="43.773811"/>
      </g>
     </g>
     <g id="text_16">
      <!-- 3000000 -->
      <defs>
       <path d="M 40.578125 39.3125 
Q 47.65625 37.796875 51.625 33 
Q 55.609375 28.21875 55.609375 21.1875 
Q 55.609375 10.40625 48.1875 4.484375 
Q 40.765625 -1.421875 27.09375 -1.421875 
Q 22.515625 -1.421875 17.65625 -0.515625 
Q 12.796875 0.390625 7.625 2.203125 
L 7.625 11.71875 
Q 11.71875 9.328125 16.59375 8.109375 
Q 21.484375 6.890625 26.8125 6.890625 
Q 36.078125 6.890625 40.9375 10.546875 
Q 45.796875 14.203125 45.796875 21.1875 
Q 45.796875 27.640625 41.28125 31.265625 
Q 36.765625 34.90625 28.71875 34.90625 
L 20.21875 34.90625 
L 20.21875 43.015625 
L 29.109375 43.015625 
Q 36.375 43.015625 40.234375 45.921875 
Q 44.09375 48.828125 44.09375 54.296875 
Q 44.09375 59.90625 40.109375 62.90625 
Q 36.140625 65.921875 28.71875 65.921875 
Q 24.65625 65.921875 20.015625 65.03125 
Q 15.375 64.15625 9.8125 62.3125 
L 9.8125 71.09375 
Q 15.4375 72.65625 20.34375 73.4375 
Q 25.25 74.21875 29.59375 74.21875 
Q 40.828125 74.21875 47.359375 69.109375 
Q 53.90625 64.015625 53.90625 55.328125 
Q 53.90625 49.265625 50.4375 45.09375 
Q 46.96875 40.921875 40.578125 39.3125 
" id="DejaVuSans-33"/>
      </defs>
      <g transform="translate(7.2 47.573029)scale(0.1 -0.1)">
       <use xlink:href="#DejaVuSans-33"/>
       <use x="63.623047" xlink:href="#DejaVuSans-30"/>
       <use x="127.246094" xlink:href="#DejaVuSans-30"/>
       <use x="190.869141" xlink:href="#DejaVuSans-30"/>
       <use x="254.492188" xlink:href="#DejaVuSans-30"/>
       <use x="318.115234" xlink:href="#DejaVuSans-30"/>
       <use x="381.738281" xlink:href="#DejaVuSans-30"/>
      </g>
     </g>
    </g>
   </g>
   <g id="line2d_17">
    <path clip-path="url(#p2a3424446a)" d="M 74.970227 237.939088 
L 76.652375 187.066759 
L 78.334523 252.527265 
L 80.016671 252.776565 
L 81.698819 185.531731 
L 83.380967 192.504462 
L 85.063115 156.633013 
L 86.745263 159.718895 
L 88.427411 249.503948 
L 90.109558 79.712019 
L 91.791706 187.313409 
L 93.473854 205.933069 
L 95.156002 168.844492 
L 96.83815 248.752664 
L 98.520298 216.543275 
L 100.202446 195.136128 
L 101.884594 115.889737 
L 103.566742 22.796 
L 105.24889 177.888903 
L 106.931037 222.749632 
L 108.613185 189.744134 
L 110.295333 179.173969 
L 111.977481 242.187189 
L 113.659629 167.764415 
L 115.341777 209.602784 
L 117.023925 188.249441 
L 118.706073 218.335184 
L 120.388221 255.943191 
L 122.070369 238.293274 
L 123.752516 251.494222 
L 125.434664 247.455453 
L 127.116812 255.996996 
L 128.79896 109.130975 
L 130.481108 107.190238 
L 132.163256 99.262779 
L 133.845404 170.939285 
L 135.527552 138.241454 
L 137.2097 253.160782 
L 138.891848 220.857179 
L 140.573996 245.405853 
L 142.256143 177.065412 
L 143.938291 228.040198 
L 145.620439 205.930787 
L 147.302587 88.330626 
L 148.984735 227.080981 
L 150.666883 230.5513 
L 152.349031 204.748179 
L 154.031179 213.413231 
L 155.713327 200.581043 
L 157.395475 164.498643 
L 159.077622 195.045962 
L 160.75977 258.698807 
L 162.441918 195.907285 
L 164.124066 240.758961 
L 165.806214 130.507724 
L 167.488362 174.555047 
L 169.17051 205.721235 
L 170.852658 222.58461 
L 172.534806 107.761926 
L 174.216954 220.37573 
L 175.899102 233.670819 
L 177.581249 240.506791 
L 179.263397 259.016633 
L 180.945545 192.218949 
L 182.627693 216.983874 
L 184.309841 208.075484 
L 185.991989 91.289392 
L 187.674137 179.310432 
L 189.356285 255.377391 
L 191.038433 120.351071 
L 192.720581 187.988807 
L 194.402728 167.379535 
L 196.084876 239.199864 
L 197.767024 139.674834 
L 199.449172 251.918848 
L 201.13132 191.165222 
L 202.813468 170.408667 
L 204.495616 31.567558 
L 206.177764 199.193961 
L 207.859912 165.011963 
L 209.54206 245.39599 
L 211.224207 183.114329 
L 212.906355 155.836388 
L 214.588503 193.950722 
L 216.270651 187.915791 
L 217.952799 251.187879 
L 219.634947 253.41516 
L 221.317095 139.972639 
L 222.999243 148.764881 
L 224.681391 204.055484 
L 226.363539 97.155474 
L 228.045687 167.649297 
L 229.727834 99.615346 
L 231.409982 112.859942 
L 233.09213 201.731413 
L 234.774278 240.306292 
L 236.456426 167.765813 
L 238.138574 188.773287 
L 239.820722 105.655798 
L 241.50287 217.558506 
L 243.185018 128.92419 
L 244.867166 144.208081 
L 246.549313 248.587789 
L 248.231461 256.520547 
L 249.913609 235.969791 
L 251.595757 125.152091 
L 253.277905 198.353541 
L 254.960053 212.73614 
L 256.642201 224.164022 
L 258.324349 198.657529 
L 260.006497 147.388765 
L 261.688645 198.011426 
L 263.370793 122.63569 
L 265.05294 178.477594 
L 266.735088 163.023161 
L 268.417236 215.997496 
L 270.099384 215.262699 
L 271.781532 215.492125 
L 273.46368 155.786632 
L 275.145828 209.077982 
L 276.827976 180.350984 
L 278.510124 229.998822 
L 280.192272 200.117112 
L 281.874419 141.461591 
L 283.556567 142.366636 
L 285.238715 118.038555 
L 286.920863 139.242774 
L 288.603011 141.122641 
L 290.285159 224.183748 
L 291.967307 206.691714 
L 293.649455 199.506781 
L 295.331603 133.425934 
L 297.013751 152.241898 
L 298.695898 200.913222 
L 300.378046 210.32838 
L 302.060194 93.773554 
L 305.42449 234.52066 
L 307.106638 229.413222 
L 308.788786 245.356317 
L 310.470934 225.882547 
L 312.153082 111.550365 
L 313.83523 256.774999 
L 315.517378 198.415811 
L 317.199525 246.882071 
L 318.881673 152.593361 
L 320.563821 213.731277 
L 322.245969 252.013283 
L 323.928117 156.446572 
L 325.610265 136.59992 
L 327.292413 223.502683 
L 328.974561 219.447868 
L 330.656709 187.749444 
L 332.338857 68.932301 
L 334.021004 217.335337 
L 335.703152 202.452813 
L 337.3853 220.320085 
L 339.067448 190.354318 
L 340.749596 165.76126 
L 342.431744 194.68022 
L 344.113892 178.739112 
L 345.79604 152.133331 
L 347.478188 133.212774 
L 349.160336 184.60674 
L 350.842484 146.800442 
L 352.524631 161.876178 
L 354.206779 191.039726 
L 355.888927 176.469802 
L 357.571075 156.231057 
L 359.253223 226.060524 
L 360.935371 232.452218 
L 362.617519 184.18918 
L 364.299667 108.076145 
L 365.981815 173.207785 
L 367.663963 165.520572 
L 369.34611 234.831125 
L 371.028258 114.274405 
L 372.710406 184.176299 
L 374.392554 230.313115 
L 376.074702 260.802874 
L 377.75685 212.267793 
L 379.438998 183.197723 
L 381.121146 137.265308 
L 382.803294 131.960389 
L 384.485442 189.360359 
L 386.167589 154.092323 
L 387.849737 132.031859 
L 389.531885 199.471745 
L 391.214033 245.329525 
L 392.896181 247.090373 
L 394.578329 213.06059 
L 396.260477 186.863021 
L 397.942625 204.8407 
L 399.624773 235.018964 
L 399.624773 235.018964 
" style="fill:none;stroke:#1f77b4;stroke-linecap:square;stroke-width:1.5;"/>
   </g>
   <g id="line2d_18">
    <path clip-path="url(#p2a3424446a)" d="M 74.970227 254.744536 
L 76.652375 249.391627 
L 78.334523 263.025592 
L 80.016671 264.205698 
L 81.698819 257.101509 
L 83.380967 261.901794 
L 85.063115 255.813352 
L 86.745263 250.250448 
L 88.427411 258.537171 
L 90.109558 170.82137 
L 91.791706 253.891015 
L 93.473854 257.560877 
L 95.156002 251.21813 
L 96.83815 259.304575 
L 98.520298 254.111167 
L 100.202446 260.364558 
L 101.884594 251.80638 
L 103.566742 263.507556 
L 105.24889 254.151429 
L 106.931037 263.865496 
L 108.613185 236.092122 
L 110.295333 251.209003 
L 111.977481 263.65771 
L 113.659629 255.152749 
L 115.341777 262.234414 
L 117.023925 148.114508 
L 118.706073 246.433597 
L 120.388221 261.361019 
L 122.070369 262.862852 
L 123.752516 260.089644 
L 125.434664 260.870075 
L 127.116812 262.920264 
L 128.79896 261.297425 
L 130.481108 259.983285 
L 132.163256 252.109043 
L 133.845404 256.660469 
L 135.527552 253.606901 
L 137.2097 250.826994 
L 138.891848 264.037511 
L 140.573996 257.68814 
L 142.256143 258.792065 
L 143.938291 260.441107 
L 145.620439 261.460607 
L 147.302587 221.297778 
L 148.984735 260.047468 
L 150.666883 262.025892 
L 152.349031 251.306824 
L 154.031179 262.358953 
L 155.713327 152.961458 
L 157.395475 255.816738 
L 159.077622 263.248467 
L 160.75977 263.542371 
L 162.441918 262.033547 
L 164.124066 262.063945 
L 165.806214 245.795002 
L 167.488362 250.727922 
L 169.17051 237.874242 
L 170.852658 258.197191 
L 172.534806 261.122245 
L 174.216954 228.487127 
L 175.899102 261.609141 
L 177.581249 262.457216 
L 179.263397 263.742135 
L 180.945545 260.627032 
L 182.627693 263.54009 
L 184.309841 251.377043 
L 185.991989 244.119977 
L 187.674137 261.624966 
L 189.356285 234.45655 
L 191.038433 233.004033 
L 192.720581 253.162475 
L 194.402728 257.469533 
L 196.084876 263.231612 
L 197.767024 209.614413 
L 199.449172 263.743533 
L 201.13132 259.905411 
L 202.813468 256.68579 
L 204.495616 225.056775 
L 206.177764 259.647941 
L 207.859912 258.809067 
L 209.54206 262.508298 
L 211.224207 255.243209 
L 212.906355 251.108091 
L 214.588503 261.423142 
L 216.270651 253.62383 
L 217.952799 261.496158 
L 219.634947 262.032663 
L 221.317095 245.466651 
L 222.999243 246.234864 
L 224.681391 257.403878 
L 226.363539 246.286314 
L 228.045687 262.457437 
L 229.727834 255.251453 
L 231.409982 259.313481 
L 233.09213 259.139111 
L 234.774278 245.132927 
L 236.456426 259.836811 
L 238.138574 261.992696 
L 239.820722 261.479744 
L 241.50287 247.918648 
L 243.185018 262.026848 
L 244.867166 261.137261 
L 246.549313 260.817227 
L 248.231461 262.158748 
L 249.913609 264.42033 
L 251.595757 259.782417 
L 253.277905 241.766243 
L 256.642201 263.125474 
L 258.324349 260.477541 
L 260.006497 263.921142 
L 261.688645 260.021633 
L 263.370793 259.593621 
L 265.05294 262.304118 
L 266.735088 263.483708 
L 268.417236 264.40053 
L 270.099384 248.926371 
L 271.781532 258.856984 
L 273.46368 264.126426 
L 275.145828 262.333633 
L 276.827976 260.001171 
L 280.192272 263.406129 
L 281.874419 260.394368 
L 283.556567 244.421463 
L 285.238715 257.67364 
L 286.920863 257.310768 
L 288.603011 258.691962 
L 290.285159 262.656538 
L 291.967307 241.768819 
L 293.649455 259.038714 
L 295.331603 262.8722 
L 297.013751 253.807179 
L 298.695898 261.234272 
L 300.378046 257.33572 
L 302.060194 256.191607 
L 303.742342 261.321935 
L 305.42449 257.614241 
L 307.106638 260.046364 
L 308.788786 264.375872 
L 310.470934 256.348385 
L 312.153082 260.241049 
L 313.83523 263.577923 
L 315.517378 263.749937 
L 317.199525 259.217721 
L 318.881673 239.25389 
L 320.563821 261.000356 
L 322.245969 263.019483 
L 323.928117 260.196665 
L 325.610265 261.359106 
L 327.292413 247.764814 
L 328.974561 262.403705 
L 330.656709 263.277026 
L 332.338857 249.034276 
L 334.021004 262.819351 
L 335.703152 263.136073 
L 337.3853 263.741472 
L 339.067448 264.209746 
L 340.749596 262.719911 
L 342.431744 261.451848 
L 344.113892 253.65835 
L 345.79604 258.498749 
L 347.478188 261.042679 
L 349.160336 260.763716 
L 350.842484 263.283356 
L 352.524631 262.260323 
L 354.206779 259.806118 
L 355.888927 261.366981 
L 357.571075 242.986611 
L 359.253223 264.0236 
L 360.935371 263.097062 
L 362.617519 248.556286 
L 364.299667 253.340746 
L 365.981815 264.043399 
L 367.663963 263.839367 
L 369.34611 262.773422 
L 371.028258 244.212425 
L 372.710406 258.989325 
L 374.392554 260.160157 
L 376.074702 263.361745 
L 377.75685 257.446127 
L 379.438998 248.270331 
L 381.121146 238.159976 
L 382.803294 220.199962 
L 384.485442 254.442389 
L 386.167589 256.78891 
L 387.849737 262.351372 
L 389.531885 261.917177 
L 391.214033 263.907893 
L 392.896181 255.640233 
L 394.578329 262.522135 
L 396.260477 250.670805 
L 397.942625 245.63631 
L 399.624773 261.320316 
L 399.624773 261.320316 
" style="fill:none;stroke:#ff7f0e;stroke-linecap:square;stroke-width:1.5;"/>
   </g>
   <g id="line2d_19">
    <path clip-path="url(#p2a3424446a)" d="M 74.970227 263.469723 
L 76.652375 257.553001 
L 78.334523 263.660581 
L 80.016671 264.538833 
L 81.698819 262.974952 
L 83.380967 263.2771 
L 85.063115 263.315521 
L 86.745263 262.246485 
L 88.427411 264.311174 
L 90.109558 255.457546 
L 91.791706 263.810219 
L 93.473854 260.877583 
L 95.156002 264.324054 
L 96.83815 264.134154 
L 98.520298 259.236122 
L 100.202446 262.993868 
L 101.884594 259.782564 
L 103.566742 264.507257 
L 105.24889 263.386256 
L 106.931037 263.83024 
L 108.613185 249.239412 
L 110.295333 262.195845 
L 111.977481 264.383822 
L 113.659629 261.737287 
L 115.341777 264.25862 
L 117.023925 236.587335 
L 118.706073 262.30743 
L 120.388221 262.967003 
L 122.070369 263.767455 
L 123.752516 263.680822 
L 127.116812 264.39972 
L 128.79896 264.436891 
L 130.481108 262.346073 
L 132.163256 262.50528 
L 133.845404 261.30979 
L 135.527552 262.381918 
L 137.2097 263.805877 
L 138.891848 264.458089 
L 140.573996 264.061359 
L 142.256143 258.928749 
L 143.938291 257.549247 
L 145.620439 263.825529 
L 147.302587 245.812593 
L 148.984735 263.312872 
L 150.666883 261.071385 
L 152.349031 260.173112 
L 154.031179 262.676043 
L 155.713327 218.334007 
L 157.395475 263.901342 
L 159.077622 263.963906 
L 160.75977 264.46648 
L 162.441918 263.439472 
L 164.124066 263.391261 
L 165.806214 256.856258 
L 169.17051 258.946782 
L 170.852658 264.323318 
L 172.534806 262.002853 
L 174.216954 261.045696 
L 175.899102 263.969942 
L 177.581249 264.367923 
L 179.263397 264.168233 
L 180.945545 263.502846 
L 182.627693 262.522577 
L 184.309841 263.864172 
L 185.991989 258.549905 
L 187.674137 264.294024 
L 191.038433 259.616733 
L 192.720581 263.469944 
L 194.402728 258.511777 
L 196.084876 262.932776 
L 197.767024 257.462467 
L 199.449172 263.904065 
L 201.13132 262.438079 
L 202.813468 260.426974 
L 204.495616 258.639776 
L 206.177764 264.08506 
L 207.859912 263.452353 
L 209.54206 264.239409 
L 211.224207 263.386992 
L 212.906355 253.745057 
L 214.588503 264.449624 
L 216.270651 264.16021 
L 217.952799 263.145862 
L 219.634947 264.080496 
L 221.317095 258.124101 
L 222.999243 261.308024 
L 224.681391 260.164868 
L 226.363539 261.923728 
L 228.045687 264.185898 
L 229.727834 264.185309 
L 231.409982 262.543113 
L 233.09213 263.584768 
L 234.774278 251.8317 
L 236.456426 263.896926 
L 238.138574 263.629519 
L 239.820722 261.550625 
L 241.50287 257.897619 
L 243.185018 263.219394 
L 244.867166 264.316915 
L 246.549313 263.234556 
L 248.231461 263.337382 
L 249.913609 264.522199 
L 251.595757 263.663967 
L 253.277905 261.336877 
L 254.960053 263.447274 
L 258.324349 264.125469 
L 260.006497 262.997917 
L 261.688645 263.009399 
L 263.370793 261.587281 
L 265.05294 264.196645 
L 268.417236 264.071001 
L 270.099384 257.300978 
L 271.781532 262.655434 
L 273.46368 264.10427 
L 275.145828 264.379773 
L 276.827976 261.447284 
L 278.510124 263.822953 
L 280.192272 264.470013 
L 281.874419 259.320253 
L 283.556567 258.81238 
L 285.238715 261.723155 
L 286.920863 263.598826 
L 288.603011 261.446401 
L 290.285159 264.328765 
L 291.967307 264.010277 
L 293.649455 263.175967 
L 295.331603 263.493277 
L 297.013751 233.570127 
L 298.695898 264.570115 
L 300.378046 261.766729 
L 302.060194 263.864908 
L 303.742342 263.847095 
L 305.42449 264.374842 
L 307.106638 261.821859 
L 308.788786 264.483188 
L 310.470934 264.246254 
L 312.153082 263.206365 
L 313.83523 263.899355 
L 315.517378 264.060549 
L 317.199525 263.498724 
L 318.881673 250.784672 
L 320.563821 262.411066 
L 322.245969 264.255455 
L 323.928117 264.1357 
L 325.610265 264.359385 
L 327.292413 263.811103 
L 328.974561 264.166393 
L 330.656709 263.250234 
L 332.338857 251.405307 
L 334.021004 264.296085 
L 335.703152 264.222038 
L 337.3853 264.474135 
L 339.067448 264.532945 
L 340.749596 262.175677 
L 342.431744 263.050765 
L 344.113892 261.854613 
L 345.79604 263.828547 
L 347.478188 264.150347 
L 349.160336 263.475833 
L 350.842484 263.396045 
L 352.524631 264.126426 
L 354.206779 262.402233 
L 355.888927 263.526252 
L 357.571075 254.402348 
L 359.253223 264.511894 
L 362.617519 263.52213 
L 364.299667 263.350852 
L 365.981815 264.051569 
L 367.663963 264.187444 
L 369.34611 264.497541 
L 371.028258 261.625923 
L 372.710406 263.91334 
L 374.392554 261.637994 
L 376.074702 263.886915 
L 377.75685 264.44852 
L 379.438998 262.123565 
L 381.121146 261.485412 
L 382.803294 258.509937 
L 384.485442 263.792628 
L 386.167589 259.702777 
L 387.849737 263.089628 
L 389.531885 263.657857 
L 391.214033 263.987754 
L 394.578329 264.311468 
L 396.260477 261.904149 
L 397.942625 264.266937 
L 399.624773 263.9695 
L 399.624773 263.9695 
" style="fill:none;stroke:#2ca02c;stroke-linecap:square;stroke-width:1.5;"/>
   </g>
   <g id="line2d_20">
    <path clip-path="url(#p2a3424446a)" d="M 74.970227 263.992906 
L 76.652375 263.703198 
L 78.334523 264.180746 
L 80.016671 264.516089 
L 81.698819 263.732861 
L 83.380967 261.456706 
L 85.063115 264.185972 
L 86.745263 263.789389 
L 88.427411 262.794399 
L 90.109558 256.735988 
L 91.791706 263.885223 
L 93.473854 262.570641 
L 95.156002 263.689949 
L 96.83815 264.025293 
L 98.520298 260.607233 
L 100.202446 263.018379 
L 101.884594 257.238414 
L 103.566742 264.033536 
L 105.24889 263.728592 
L 106.931037 264.226822 
L 108.613185 260.88752 
L 110.295333 262.482094 
L 111.977481 264.540747 
L 113.659629 263.390157 
L 115.341777 264.225866 
L 117.023925 257.357433 
L 118.706073 262.554816 
L 120.388221 263.83392 
L 122.070369 264.465302 
L 123.752516 262.609357 
L 125.434664 263.539869 
L 127.116812 263.937482 
L 128.79896 263.662126 
L 130.481108 262.386482 
L 132.163256 261.411144 
L 133.845404 263.347687 
L 137.2097 264.257516 
L 138.891848 264.483924 
L 140.573996 263.662347 
L 142.256143 263.894423 
L 143.938291 263.476716 
L 145.620439 262.833925 
L 147.302587 259.610697 
L 148.984735 263.074392 
L 150.666883 262.443157 
L 152.349031 259.996092 
L 154.031179 264.338481 
L 155.713327 258.357796 
L 157.395475 263.766056 
L 159.077622 263.573874 
L 160.75977 264.463094 
L 162.441918 263.920774 
L 164.124066 264.138497 
L 165.806214 248.144173 
L 167.488362 261.294922 
L 169.17051 262.326126 
L 170.852658 264.237054 
L 172.534806 263.628047 
L 174.216954 260.59207 
L 175.899102 264.307346 
L 179.263397 264.419888 
L 182.627693 263.224178 
L 184.309841 262.379416 
L 185.991989 263.926957 
L 187.674137 263.449556 
L 189.356285 260.994541 
L 191.038433 259.088766 
L 192.720581 263.784973 
L 194.402728 258.255927 
L 196.084876 263.701947 
L 197.767024 260.209546 
L 199.449172 264.137098 
L 201.13132 263.127756 
L 202.813468 257.265427 
L 204.495616 256.202574 
L 206.177764 262.786156 
L 207.859912 260.601418 
L 209.54206 264.00645 
L 211.224207 263.569826 
L 212.906355 262.203279 
L 214.588503 263.966409 
L 216.270651 262.530673 
L 217.952799 263.577775 
L 219.634947 263.830093 
L 221.317095 256.554994 
L 222.999243 261.648299 
L 224.681391 261.043047 
L 226.363539 260.107898 
L 228.045687 263.989741 
L 229.727834 259.260854 
L 231.409982 256.004724 
L 233.09213 261.423731 
L 234.774278 257.823278 
L 236.456426 264.258473 
L 238.138574 263.905758 
L 239.820722 262.527582 
L 241.50287 262.529128 
L 243.185018 264.001592 
L 244.867166 264.428868 
L 248.231461 263.130405 
L 249.913609 264.514617 
L 251.595757 263.024046 
L 253.277905 263.567471 
L 254.960053 262.615393 
L 256.642201 264.095291 
L 258.324349 263.259655 
L 260.006497 264.229251 
L 261.688645 263.888608 
L 263.370793 262.32642 
L 265.05294 264.009099 
L 266.735088 264.479287 
L 268.417236 264.227117 
L 270.099384 262.875217 
L 271.781532 264.02647 
L 273.46368 264.395377 
L 275.145828 263.706584 
L 276.827976 263.270475 
L 278.510124 264.317798 
L 280.192272 264.512115 
L 281.874419 263.485917 
L 283.556567 256.82954 
L 285.238715 264.146078 
L 286.920863 263.831197 
L 288.603011 262.638946 
L 290.285159 264.450434 
L 291.967307 262.933512 
L 293.649455 262.120179 
L 295.331603 262.962366 
L 297.013751 257.606291 
L 298.695898 264.267673 
L 300.378046 262.92917 
L 302.060194 262.389573 
L 305.42449 263.642253 
L 307.106638 262.371466 
L 308.788786 264.524259 
L 310.470934 264.221744 
L 312.153082 262.762381 
L 313.83523 264.291153 
L 315.517378 264.320448 
L 317.199525 262.99166 
L 318.881673 259.972833 
L 320.563821 263.131804 
L 322.245969 264.558339 
L 325.610265 264.364905 
L 327.292413 263.816181 
L 328.974561 264.462873 
L 330.656709 261.784468 
L 332.338857 252.111325 
L 334.021004 264.14674 
L 335.703152 264.0671 
L 337.3853 264.194068 
L 339.067448 264.489518 
L 340.749596 264.176845 
L 342.431744 263.623484 
L 344.113892 259.243115 
L 345.79604 264.027059 
L 347.478188 264.460002 
L 350.842484 264.45831 
L 352.524631 263.685018 
L 354.206779 263.654177 
L 355.888927 263.80308 
L 357.571075 261.466274 
L 359.253223 264.4918 
L 360.935371 263.780704 
L 362.617519 262.0769 
L 364.299667 263.628195 
L 365.981815 264.078362 
L 367.663963 264.406271 
L 369.34611 264.347755 
L 371.028258 260.703876 
L 372.710406 261.325027 
L 374.392554 262.142334 
L 376.074702 264.330752 
L 377.75685 261.037011 
L 379.438998 257.475643 
L 381.121146 262.891852 
L 382.803294 255.175713 
L 384.485442 264.112735 
L 386.167589 262.807648 
L 389.531885 263.909144 
L 391.214033 264.173901 
L 392.896181 263.543917 
L 394.578329 263.70835 
L 396.260477 262.801981 
L 397.942625 262.406723 
L 399.624773 264.310879 
L 399.624773 264.310879 
" style="fill:none;stroke:#d62728;stroke-linecap:square;stroke-width:1.5;"/>
   </g>
   <g id="line2d_21">
    <path clip-path="url(#p2a3424446a)" d="M 74.970227 263.78512 
L 76.652375 263.725942 
L 80.016671 264.565184 
L 81.698819 264.053925 
L 83.380967 257.993305 
L 85.063115 262.890822 
L 86.745263 263.669045 
L 88.427411 263.808526 
L 90.109558 257.960036 
L 91.791706 263.740516 
L 93.473854 261.510805 
L 95.156002 263.735952 
L 96.83815 263.849009 
L 98.520298 262.50712 
L 100.202446 263.042963 
L 101.884594 262.031927 
L 103.566742 264.364831 
L 105.24889 264.095512 
L 106.931037 263.207985 
L 108.613185 254.133837 
L 110.295333 263.572329 
L 111.977481 264.375136 
L 113.659629 262.255759 
L 115.341777 264.402149 
L 117.023925 263.258772 
L 120.388221 263.975388 
L 122.070369 263.929238 
L 123.752516 261.573517 
L 125.434664 264.253541 
L 127.116812 264.411791 
L 128.79896 262.870654 
L 130.481108 262.611639 
L 132.163256 262.992838 
L 133.845404 264.079318 
L 135.527552 262.602806 
L 137.2097 264.021833 
L 138.891848 264.467584 
L 140.573996 263.165368 
L 142.256143 263.255239 
L 143.938291 262.801981 
L 145.620439 263.998648 
L 147.302587 259.185261 
L 148.984735 263.645271 
L 150.666883 264.247137 
L 152.349031 260.698061 
L 154.031179 263.756046 
L 155.713327 256.607621 
L 157.395475 263.372271 
L 159.077622 264.301973 
L 160.75977 264.544133 
L 162.441918 264.408553 
L 164.124066 264.415177 
L 165.806214 251.720189 
L 167.488362 258.792433 
L 169.17051 260.782486 
L 170.852658 264.410908 
L 172.534806 261.61974 
L 174.216954 261.131961 
L 175.899102 263.780851 
L 177.581249 264.277757 
L 179.263397 264.305432 
L 180.945545 263.729696 
L 182.627693 264.43321 
L 184.309841 262.719985 
L 185.991989 262.007785 
L 187.674137 263.064087 
L 189.356285 261.054823 
L 191.038433 260.665233 
L 192.720581 258.967465 
L 194.402728 260.071463 
L 196.084876 262.748249 
L 197.767024 250.389193 
L 199.449172 264.406565 
L 201.13132 262.845555 
L 202.813468 260.331435 
L 204.495616 262.458761 
L 206.177764 264.134375 
L 207.859912 263.883824 
L 209.54206 264.164553 
L 211.224207 264.00299 
L 212.906355 261.549301 
L 214.588503 263.643946 
L 216.270651 263.132466 
L 217.952799 263.82045 
L 219.634947 264.076006 
L 221.317095 258.874134 
L 222.999243 261.844529 
L 224.681391 263.445213 
L 226.363539 261.849682 
L 228.045687 263.964789 
L 229.727834 255.410218 
L 231.409982 260.340857 
L 233.09213 263.565925 
L 234.774278 263.147408 
L 236.456426 264.09242 
L 238.138574 263.912898 
L 239.820722 263.966261 
L 241.50287 262.906058 
L 243.185018 264.03361 
L 244.867166 264.30212 
L 246.549313 264.062757 
L 248.231461 262.662279 
L 249.913609 264.524922 
L 253.277905 262.344895 
L 254.960053 263.528607 
L 256.642201 264.182954 
L 258.324349 263.906715 
L 260.006497 264.220198 
L 261.688645 264.361004 
L 263.370793 264.049214 
L 265.05294 264.477594 
L 268.417236 264.162124 
L 270.099384 263.640634 
L 271.781532 263.910837 
L 273.46368 264.419888 
L 275.145828 263.862405 
L 276.827976 263.880733 
L 278.510124 264.103314 
L 280.192272 264.477668 
L 281.874419 261.947208 
L 285.238715 264.015577 
L 286.920863 263.808158 
L 288.603011 263.479587 
L 290.285159 264.161093 
L 293.649455 263.447421 
L 295.331603 263.893761 
L 297.013751 261.809199 
L 298.695898 264.419446 
L 300.378046 263.187596 
L 302.060194 264.235949 
L 305.42449 264.032874 
L 307.106638 263.10192 
L 308.788786 264.532062 
L 310.470934 264.457721 
L 312.153082 263.174568 
L 313.83523 264.469939 
L 315.517378 264.143207 
L 317.199525 262.490706 
L 318.881673 261.678845 
L 320.563821 263.250308 
L 322.245969 264.360342 
L 323.928117 264.081895 
L 325.610265 264.136509 
L 327.292413 262.939327 
L 328.974561 264.360194 
L 330.656709 264.096689 
L 332.338857 261.564684 
L 334.021004 264.356588 
L 335.703152 264.439688 
L 337.3853 264.286074 
L 339.067448 263.722703 
L 340.749596 263.801166 
L 342.431744 264.076153 
L 344.113892 255.134127 
L 345.79604 263.845844 
L 349.160336 264.481642 
L 350.842484 264.37889 
L 352.524631 264.145048 
L 354.206779 263.770841 
L 355.888927 264.363433 
L 357.571075 260.556151 
L 359.253223 264.45117 
L 360.935371 264.408553 
L 362.617519 263.678908 
L 364.299667 263.482383 
L 365.981815 264.403106 
L 369.34611 264.402738 
L 371.028258 262.075133 
L 372.710406 263.593085 
L 374.392554 263.953675 
L 376.074702 264.06629 
L 379.438998 258.38952 
L 381.121146 262.396345 
L 382.803294 260.228978 
L 384.485442 264.05628 
L 386.167589 261.675754 
L 387.849737 263.968911 
L 391.214033 264.36623 
L 394.578329 264.265465 
L 396.260477 263.522277 
L 397.942625 259.218752 
L 399.624773 263.866012 
L 399.624773 263.866012 
" style="fill:none;stroke:#9467bd;stroke-linecap:square;stroke-width:1.5;"/>
   </g>
   <g id="line2d_22">
    <path clip-path="url(#p2a3424446a)" d="M 74.970227 263.995998 
L 76.652375 263.314491 
L 78.334523 264.301752 
L 80.016671 264.542734 
L 81.698819 263.821113 
L 83.380967 257.96033 
L 85.063115 263.050912 
L 86.745263 263.835024 
L 88.427411 263.705332 
L 90.109558 255.904695 
L 91.791706 264.076006 
L 93.473854 264.096027 
L 95.156002 263.886989 
L 96.83815 264.028973 
L 98.520298 263.258625 
L 100.202446 263.136146 
L 101.884594 263.264734 
L 103.566742 264.267673 
L 105.24889 263.686784 
L 106.931037 264.354306 
L 108.613185 261.492036 
L 110.295333 263.907525 
L 111.977481 264.528602 
L 113.659629 262.048709 
L 115.341777 264.231754 
L 117.023925 254.84324 
L 118.706073 263.115169 
L 120.388221 264.116268 
L 122.070369 264.046049 
L 123.752516 263.503066 
L 127.116812 263.926441 
L 128.79896 263.304628 
L 130.481108 263.567839 
L 132.163256 263.629299 
L 135.527552 262.977675 
L 137.2097 263.00697 
L 138.891848 264.081232 
L 140.573996 263.574758 
L 142.256143 262.504323 
L 143.938291 262.79646 
L 145.620439 264.078141 
L 147.302587 244.043208 
L 148.984735 263.678099 
L 150.666883 263.908923 
L 152.349031 258.396807 
L 154.031179 264.019257 
L 155.713327 259.870964 
L 157.395475 263.147702 
L 159.077622 264.279524 
L 160.75977 264.526909 
L 162.441918 264.07895 
L 164.124066 264.400088 
L 165.806214 256.200955 
L 167.488362 262.862999 
L 169.17051 263.51131 
L 170.852658 263.921436 
L 172.534806 262.704896 
L 174.216954 262.671332 
L 175.899102 263.887946 
L 177.581249 264.303887 
L 179.263397 264.47097 
L 180.945545 263.873814 
L 182.627693 264.051128 
L 184.309841 263.743975 
L 185.991989 262.900464 
L 189.356285 262.249945 
L 191.038433 262.929906 
L 192.720581 263.187228 
L 194.402728 262.928507 
L 196.084876 264.244929 
L 197.767024 241.87665 
L 199.449172 264.391329 
L 201.13132 264.193553 
L 202.813468 261.975399 
L 204.495616 261.021186 
L 206.177764 264.290785 
L 207.859912 262.055922 
L 209.54206 264.492168 
L 211.224207 263.872636 
L 212.906355 262.489013 
L 214.588503 264.234183 
L 216.270651 262.978411 
L 217.952799 264.165804 
L 219.634947 264.351362 
L 221.317095 262.326641 
L 222.999243 260.510516 
L 224.681391 262.663824 
L 226.363539 262.471348 
L 228.045687 263.913855 
L 229.727834 262.986434 
L 231.409982 261.010293 
L 233.09213 264.259724 
L 234.774278 263.021691 
L 236.456426 263.954264 
L 238.138574 264.301311 
L 239.820722 263.592791 
L 241.50287 262.731762 
L 243.185018 264.363727 
L 244.867166 264.413116 
L 246.549313 264.24147 
L 249.913609 264.517782 
L 251.595757 264.379479 
L 253.277905 263.540384 
L 254.960053 263.848199 
L 256.642201 264.296673 
L 258.324349 263.761198 
L 260.006497 264.131136 
L 263.370793 264.154027 
L 265.05294 264.443441 
L 268.417236 264.417091 
L 270.099384 263.203495 
L 271.781532 263.966335 
L 273.46368 264.364831 
L 275.145828 264.012485 
L 276.827976 264.074534 
L 278.510124 263.530815 
L 280.192272 264.49018 
L 281.874419 263.751041 
L 283.556567 263.48945 
L 285.238715 263.943665 
L 286.920863 264.281069 
L 288.603011 263.582486 
L 290.285159 264.447858 
L 291.967307 263.412533 
L 293.649455 263.398106 
L 295.331603 263.809557 
L 297.013751 261.76798 
L 298.695898 264.320374 
L 300.378046 262.731688 
L 302.060194 262.987244 
L 303.742342 264.080938 
L 305.42449 263.834141 
L 307.106638 263.965084 
L 308.788786 264.558486 
L 310.470934 263.881322 
L 312.153082 264.079539 
L 313.83523 264.427764 
L 315.517378 264.391403 
L 317.199525 263.962581 
L 318.881673 262.924753 
L 320.563821 263.923644 
L 325.610265 264.322803 
L 327.292413 263.005424 
L 328.974561 264.482305 
L 330.656709 264.14122 
L 332.338857 259.755404 
L 334.021004 264.446386 
L 335.703152 264.494965 
L 340.749596 264.222921 
L 342.431744 263.960152 
L 344.113892 262.315895 
L 345.79604 263.870281 
L 347.478188 264.385735 
L 349.160336 264.436964 
L 350.842484 264.265171 
L 352.524631 264.332151 
L 354.206779 264.229987 
L 355.888927 264.259135 
L 357.571075 261.567186 
L 359.253223 264.371971 
L 360.935371 264.28762 
L 362.617519 263.6081 
L 364.299667 261.795803 
L 365.981815 264.475312 
L 367.663963 264.304917 
L 369.34611 264.460371 
L 371.028258 262.532661 
L 372.710406 263.822658 
L 374.392554 262.866164 
L 376.074702 264.317136 
L 377.75685 262.776587 
L 379.438998 262.107814 
L 381.121146 263.611118 
L 382.803294 260.754516 
L 384.485442 264.097572 
L 386.167589 260.879055 
L 387.849737 264.14836 
L 389.531885 264.06261 
L 391.214033 264.405241 
L 392.896181 264.243016 
L 394.578329 264.381981 
L 396.260477 264.229546 
L 397.942625 262.502924 
L 399.624773 264.336199 
L 399.624773 264.336199 
" style="fill:none;stroke:#8c564b;stroke-linecap:square;stroke-width:1.5;"/>
   </g>
   <g id="line2d_23">
    <path clip-path="url(#p2a3424446a)" d="M 74.970227 264.295275 
L 76.652375 263.881616 
L 78.334523 264.40156 
L 80.016671 264.576298 
L 83.380967 263.356225 
L 85.063115 264.272899 
L 86.745263 264.068572 
L 88.427411 264.145931 
L 90.109558 262.602732 
L 91.791706 264.107951 
L 93.473854 264.207464 
L 95.156002 264.046343 
L 96.83815 264.256191 
L 98.520298 263.628783 
L 100.202446 263.761272 
L 101.884594 263.602654 
L 103.566742 264.50711 
L 106.931037 264.48547 
L 108.613185 263.23198 
L 111.977481 264.534417 
L 113.659629 264.259724 
L 115.341777 264.309996 
L 117.023925 262.477015 
L 118.706073 263.568869 
L 120.388221 264.287841 
L 123.752516 264.352466 
L 137.2097 263.948596 
L 138.891848 264.355484 
L 140.573996 264.221965 
L 142.256143 263.651454 
L 143.938291 263.463614 
L 145.620439 264.396482 
L 147.302587 253.193536 
L 148.984735 264.36888 
L 150.666883 264.171619 
L 152.349031 262.427332 
L 154.031179 264.338187 
L 155.713327 254.817111 
L 157.395475 264.42217 
L 160.75977 264.568643 
L 162.441918 264.180157 
L 164.124066 264.497026 
L 165.806214 257.269991 
L 167.488362 263.16787 
L 169.17051 264.082999 
L 170.852658 264.38603 
L 172.534806 264.128045 
L 174.216954 264.247579 
L 175.899102 263.856738 
L 177.581249 264.555983 
L 179.263397 264.566361 
L 180.945545 264.096836 
L 184.309841 264.354306 
L 185.991989 263.822511 
L 187.674137 264.273488 
L 189.356285 262.038036 
L 191.038433 263.668383 
L 192.720581 263.730579 
L 196.084876 264.444398 
L 197.767024 259.661264 
L 199.449172 264.526615 
L 201.13132 264.395745 
L 202.813468 263.760683 
L 204.495616 262.990335 
L 206.177764 263.857768 
L 209.54206 264.481937 
L 211.224207 263.979363 
L 212.906355 262.977823 
L 214.588503 264.502546 
L 217.952799 264.130768 
L 219.634947 264.409878 
L 221.317095 262.523092 
L 222.999243 262.981208 
L 224.681391 264.284381 
L 226.363539 263.051427 
L 228.045687 263.99666 
L 229.727834 264.042663 
L 231.409982 263.35225 
L 233.09213 264.266348 
L 234.774278 263.149175 
L 236.456426 264.361225 
L 238.138574 264.412601 
L 239.820722 264.260754 
L 241.50287 263.609793 
L 243.185018 264.443221 
L 244.867166 264.554364 
L 251.595757 264.449992 
L 253.277905 263.799767 
L 254.960053 264.29476 
L 256.642201 264.524333 
L 258.324349 264.173533 
L 260.006497 264.407007 
L 263.370793 264.309186 
L 265.05294 264.523597 
L 268.417236 264.528602 
L 270.099384 264.351288 
L 273.46368 264.5208 
L 275.145828 264.103755 
L 276.827976 264.452716 
L 278.510124 264.435345 
L 280.192272 264.54428 
L 281.874419 264.325453 
L 283.556567 263.800945 
L 285.238715 264.146888 
L 291.967307 264.467731 
L 293.649455 264.145342 
L 295.331603 264.377418 
L 297.013751 264.082704 
L 298.695898 264.545899 
L 300.378046 263.993716 
L 302.060194 264.432769 
L 303.742342 264.441896 
L 305.42449 264.09139 
L 308.788786 264.566656 
L 310.470934 264.475239 
L 312.153082 264.009247 
L 313.83523 264.532724 
L 317.199525 264.52264 
L 318.881673 263.592202 
L 320.563821 264.216591 
L 322.245969 264.53979 
L 323.928117 264.333623 
L 325.610265 264.546415 
L 327.292413 264.244414 
L 328.974561 264.466627 
L 330.656709 264.238673 
L 332.338857 263.140489 
L 334.021004 264.522567 
L 339.067448 264.50262 
L 342.431744 264.415766 
L 344.113892 263.935347 
L 345.79604 264.416796 
L 355.888927 264.441012 
L 357.571075 263.938439 
L 359.253223 264.565405 
L 362.617519 264.262006 
L 364.299667 263.789316 
L 365.981815 264.540158 
L 367.663963 264.428941 
L 369.34611 264.519254 
L 371.028258 263.843489 
L 376.074702 264.444766 
L 379.438998 264.037658 
L 381.121146 264.147845 
L 382.803294 263.054445 
L 384.485442 264.460591 
L 386.167589 264.193111 
L 387.849737 264.205919 
L 389.531885 264.543838 
L 391.214033 264.559958 
L 392.896181 264.391108 
L 394.578329 264.491579 
L 396.260477 264.278346 
L 397.942625 263.795498 
L 399.624773 264.529117 
L 399.624773 264.529117 
" style="fill:none;stroke:#e377c2;stroke-linecap:square;stroke-width:1.5;"/>
   </g>
   <g id="line2d_24">
    <path clip-path="url(#p2a3424446a)" d="M 74.970227 264.250155 
L 76.652375 264.201061 
L 78.334523 264.508287 
L 80.016671 264.56062 
L 81.698819 264.433726 
L 83.380967 261.532445 
L 85.063115 264.275254 
L 88.427411 264.254571 
L 90.109558 262.977896 
L 91.791706 264.234404 
L 93.473854 264.029562 
L 95.156002 264.384337 
L 96.83815 264.498571 
L 98.520298 264.138202 
L 100.202446 264.033683 
L 103.566742 264.556498 
L 105.24889 264.313455 
L 106.931037 264.475386 
L 108.613185 262.728008 
L 110.295333 264.146667 
L 111.977481 264.544942 
L 113.659629 263.96317 
L 115.341777 264.489003 
L 117.023925 260.593248 
L 118.706073 264.091978 
L 120.388221 264.367628 
L 127.116812 264.538097 
L 130.481108 264.087415 
L 132.163256 264.316105 
L 135.527552 264.135258 
L 137.2097 264.248757 
L 138.891848 264.514912 
L 140.573996 264.24699 
L 142.256143 264.294465 
L 143.938291 264.143575 
L 145.620439 264.506153 
L 147.302587 263.013079 
L 148.984735 264.503061 
L 150.666883 264.293361 
L 152.349031 263.633789 
L 154.031179 264.496731 
L 155.713327 261.988868 
L 157.395475 264.082925 
L 159.077622 264.454482 
L 160.75977 264.550978 
L 162.441918 264.100369 
L 164.124066 264.47119 
L 165.806214 257.630434 
L 167.488362 263.346288 
L 169.17051 262.841138 
L 170.852658 264.366598 
L 172.534806 263.072699 
L 174.216954 263.832522 
L 177.581249 264.52264 
L 179.263397 264.515206 
L 180.945545 264.343781 
L 184.309841 264.392654 
L 185.991989 263.339811 
L 187.674137 264.233226 
L 189.356285 262.988201 
L 191.038433 263.737056 
L 192.720581 263.660875 
L 194.402728 263.349821 
L 196.084876 264.162786 
L 197.767024 260.511694 
L 199.449172 264.546267 
L 201.13132 264.33458 
L 202.813468 263.504612 
L 206.177764 264.278346 
L 207.859912 263.925926 
L 209.54206 264.509171 
L 211.224207 264.396334 
L 212.906355 263.683177 
L 214.588503 264.259871 
L 216.270651 264.385588 
L 217.952799 264.331489 
L 219.634947 264.5498 
L 221.317095 263.652631 
L 222.999243 263.489744 
L 224.681391 264.227338 
L 226.363539 263.603611 
L 228.045687 264.318755 
L 229.727834 263.301757 
L 231.409982 264.033904 
L 233.09213 264.350405 
L 234.774278 263.901195 
L 236.456426 264.297557 
L 238.138574 264.395009 
L 239.820722 263.777539 
L 243.185018 264.427837 
L 249.913609 264.544133 
L 251.595757 264.427028 
L 253.277905 263.640781 
L 256.642201 264.450213 
L 258.324349 264.402517 
L 261.688645 264.43218 
L 263.370793 264.058488 
L 265.05294 264.54958 
L 268.417236 264.413558 
L 270.099384 264.267747 
L 271.781532 264.476564 
L 273.46368 264.495848 
L 275.145828 264.096689 
L 276.827976 264.105448 
L 280.192272 264.570778 
L 281.874419 263.842017 
L 283.556567 262.731614 
L 285.238715 263.890743 
L 286.920863 264.13938 
L 288.603011 264.098529 
L 290.285159 264.528897 
L 291.967307 263.976272 
L 293.649455 264.056722 
L 295.331603 264.512777 
L 297.013751 262.491442 
L 298.695898 264.45853 
L 300.378046 264.142545 
L 302.060194 264.304181 
L 303.742342 264.236759 
L 305.42449 264.352024 
L 307.106638 264.144606 
L 308.788786 264.539937 
L 310.470934 264.426586 
L 312.153082 264.140484 
L 313.83523 264.482526 
L 315.517378 264.451096 
L 317.199525 264.125689 
L 318.881673 262.914743 
L 320.563821 264.335242 
L 322.245969 264.486647 
L 323.928117 264.441528 
L 325.610265 264.511379 
L 327.292413 264.319638 
L 328.974561 264.501 
L 330.656709 264.098456 
L 332.338857 263.038178 
L 334.021004 264.485102 
L 335.703152 264.543029 
L 339.067448 264.520138 
L 342.431744 264.461622 
L 344.113892 264.032506 
L 345.79604 264.467878 
L 349.160336 264.512777 
L 354.206779 264.518224 
L 355.888927 264.488414 
L 357.571075 264.152114 
L 359.253223 264.566656 
L 362.617519 264.356661 
L 364.299667 264.126057 
L 365.981815 264.431517 
L 369.34611 264.540158 
L 371.028258 264.157045 
L 372.710406 263.962581 
L 374.392554 264.533607 
L 377.75685 264.479434 
L 381.121146 264.257 
L 382.803294 263.59522 
L 384.485442 264.517929 
L 386.167589 264.356588 
L 389.531885 264.495112 
L 391.214033 264.551052 
L 392.896181 264.446827 
L 394.578329 264.486206 
L 397.942625 264.215193 
L 399.624773 264.541704 
L 399.624773 264.541704 
" style="fill:none;stroke:#7f7f7f;stroke-linecap:square;stroke-width:1.5;"/>
   </g>
   <g id="line2d_25">
    <path clip-path="url(#p2a3424446a)" d="M 74.970227 264.588222 
L 115.341777 264.584321 
L 399.624773 264.586088 
L 399.624773 264.586088 
" style="fill:none;stroke:#bcbd22;stroke-linecap:square;stroke-width:1.5;"/>
   </g>
   <g id="line2d_26">
    <path clip-path="url(#p2a3424446a)" d="M 74.970227 264.588222 
L 133.845404 264.585278 
L 399.624773 264.584542 
L 399.624773 264.584542 
" style="fill:none;stroke:#17becf;stroke-linecap:square;stroke-width:1.5;"/>
   </g>
   <g id="line2d_27">
    <path clip-path="url(#p2a3424446a)" d="M 74.970227 264.578359 
L 80.016671 264.586897 
L 81.698819 264.438142 
L 83.380967 264.59227 
L 108.613185 264.57674 
L 110.295333 264.525143 
L 113.659629 264.598306 
L 127.116812 264.57512 
L 130.481108 264.644971 
L 137.2097 264.537067 
L 140.573996 264.599263 
L 142.256143 264.625245 
L 143.938291 264.511231 
L 154.031179 264.618989 
L 155.713327 264.5643 
L 157.395475 264.716 
L 159.077622 264.51815 
L 164.124066 264.594258 
L 175.899102 264.532282 
L 182.627693 264.623111 
L 185.991989 264.584689 
L 248.231461 264.566288 
L 253.277905 264.586529 
L 258.324349 264.597202 
L 352.524631 264.598011 
L 355.888927 264.603311 
L 357.571075 264.526026 
L 360.935371 264.609126 
L 365.981815 264.604121 
L 376.074702 264.554364 
L 381.121146 264.58859 
L 399.624773 264.589989 
L 399.624773 264.589989 
" style="fill:none;stroke:#1f77b4;stroke-linecap:square;stroke-width:1.5;"/>
   </g>
   <g id="line2d_28">
    <path clip-path="url(#p2a3424446a)" d="M 74.970227 264.588222 
L 399.624773 264.588222 
L 399.624773 264.588222 
" style="fill:none;stroke:#ff7f0e;stroke-linecap:square;stroke-width:1.5;"/>
   </g>
   <g id="patch_3">
    <path d="M 58.7375 276.812 
L 58.7375 10.7 
" style="fill:none;stroke:#000000;stroke-linecap:square;stroke-linejoin:miter;stroke-width:0.8;"/>
   </g>
   <g id="patch_4">
    <path d="M 415.8575 276.812 
L 415.8575 10.7 
" style="fill:none;stroke:#000000;stroke-linecap:square;stroke-linejoin:miter;stroke-width:0.8;"/>
   </g>
   <g id="patch_5">
    <path d="M 58.7375 276.812 
L 415.8575 276.812 
" style="fill:none;stroke:#000000;stroke-linecap:square;stroke-linejoin:miter;stroke-width:0.8;"/>
   </g>
   <g id="patch_6">
    <path d="M 58.7375 10.7 
L 415.8575 10.7 
" style="fill:none;stroke:#000000;stroke-linecap:square;stroke-linejoin:miter;stroke-width:0.8;"/>
   </g>
   <g id="legend_1">
    <g id="patch_7">
     <path d="M 65.7375 165.48125 
L 156.090625 165.48125 
Q 158.090625 165.48125 158.090625 163.48125 
L 158.090625 17.7 
Q 158.090625 15.7 156.090625 15.7 
L 65.7375 15.7 
Q 63.7375 15.7 63.7375 17.7 
L 63.7375 163.48125 
Q 63.7375 165.48125 65.7375 165.48125 
z
" style="fill:#ffffff;opacity:0.8;stroke:#cccccc;stroke-linejoin:miter;"/>
    </g>
    <g id="line2d_29">
     <path d="M 67.7375 23.798437 
L 87.7375 23.798437 
" style="fill:none;stroke:#1f77b4;stroke-linecap:square;stroke-width:1.5;"/>
    </g>
    <g id="line2d_30"/>
    <g id="text_17">
     <!-- delta -->
     <defs>
      <path d="M 45.40625 46.390625 
L 45.40625 75.984375 
L 54.390625 75.984375 
L 54.390625 0 
L 45.40625 0 
L 45.40625 8.203125 
Q 42.578125 3.328125 38.25 0.953125 
Q 33.9375 -1.421875 27.875 -1.421875 
Q 17.96875 -1.421875 11.734375 6.484375 
Q 5.515625 14.40625 5.515625 27.296875 
Q 5.515625 40.1875 11.734375 48.09375 
Q 17.96875 56 27.875 56 
Q 33.9375 56 38.25 53.625 
Q 42.578125 51.265625 45.40625 46.390625 
M 14.796875 27.296875 
Q 14.796875 17.390625 18.875 11.75 
Q 22.953125 6.109375 30.078125 6.109375 
Q 37.203125 6.109375 41.296875 11.75 
Q 45.40625 17.390625 45.40625 27.296875 
Q 45.40625 37.203125 41.296875 42.84375 
Q 37.203125 48.484375 30.078125 48.484375 
Q 22.953125 48.484375 18.875 42.84375 
Q 14.796875 37.203125 14.796875 27.296875 
" id="DejaVuSans-64"/>
      <path d="M 56.203125 29.59375 
L 56.203125 25.203125 
L 14.890625 25.203125 
Q 15.484375 15.921875 20.484375 11.0625 
Q 25.484375 6.203125 34.421875 6.203125 
Q 39.59375 6.203125 44.453125 7.46875 
Q 49.3125 8.734375 54.109375 11.28125 
L 54.109375 2.78125 
Q 49.265625 0.734375 44.1875 -0.34375 
Q 39.109375 -1.421875 33.890625 -1.421875 
Q 20.796875 -1.421875 13.15625 6.1875 
Q 5.515625 13.8125 5.515625 26.8125 
Q 5.515625 40.234375 12.765625 48.109375 
Q 20.015625 56 32.328125 56 
Q 43.359375 56 49.78125 48.890625 
Q 56.203125 41.796875 56.203125 29.59375 
M 47.21875 32.234375 
Q 47.125 39.59375 43.09375 43.984375 
Q 39.0625 48.390625 32.421875 48.390625 
Q 24.90625 48.390625 20.390625 44.140625 
Q 15.875 39.890625 15.1875 32.171875 
z
" id="DejaVuSans-65"/>
      <path d="M 9.421875 75.984375 
L 18.40625 75.984375 
L 18.40625 0 
L 9.421875 0 
z
" id="DejaVuSans-6c"/>
      <path d="M 18.3125 70.21875 
L 18.3125 54.6875 
L 36.8125 54.6875 
L 36.8125 47.703125 
L 18.3125 47.703125 
L 18.3125 18.015625 
Q 18.3125 11.328125 20.140625 9.421875 
Q 21.96875 7.515625 27.59375 7.515625 
L 36.8125 7.515625 
L 36.8125 0 
L 27.59375 0 
Q 17.1875 0 13.234375 3.875 
Q 9.28125 7.765625 9.28125 18.015625 
L 9.28125 47.703125 
L 2.6875 47.703125 
L 2.6875 54.6875 
L 9.28125 54.6875 
L 9.28125 70.21875 
z
" id="DejaVuSans-74"/>
      <path d="M 34.28125 27.484375 
Q 23.390625 27.484375 19.1875 25 
Q 14.984375 22.515625 14.984375 16.5 
Q 14.984375 11.71875 18.140625 8.90625 
Q 21.296875 6.109375 26.703125 6.109375 
Q 34.1875 6.109375 38.703125 11.40625 
Q 43.21875 16.703125 43.21875 25.484375 
L 43.21875 27.484375 
z
M 52.203125 31.203125 
L 52.203125 0 
L 43.21875 0 
L 43.21875 8.296875 
Q 40.140625 3.328125 35.546875 0.953125 
Q 30.953125 -1.421875 24.3125 -1.421875 
Q 15.921875 -1.421875 10.953125 3.296875 
Q 6 8.015625 6 15.921875 
Q 6 25.140625 12.171875 29.828125 
Q 18.359375 34.515625 30.609375 34.515625 
L 43.21875 34.515625 
L 43.21875 35.40625 
Q 43.21875 41.609375 39.140625 45 
Q 35.0625 48.390625 27.6875 48.390625 
Q 23 48.390625 18.546875 47.265625 
Q 14.109375 46.140625 10.015625 43.890625 
L 10.015625 52.203125 
Q 14.9375 54.109375 19.578125 55.046875 
Q 24.21875 56 28.609375 56 
Q 40.484375 56 46.34375 49.84375 
Q 52.203125 43.703125 52.203125 31.203125 
" id="DejaVuSans-61"/>
     </defs>
     <g transform="translate(95.7375 27.298437)scale(0.1 -0.1)">
      <use xlink:href="#DejaVuSans-64"/>
      <use x="63.476562" xlink:href="#DejaVuSans-65"/>
      <use x="125" xlink:href="#DejaVuSans-6c"/>
      <use x="152.783203" xlink:href="#DejaVuSans-74"/>
      <use x="191.992188" xlink:href="#DejaVuSans-61"/>
     </g>
    </g>
    <g id="line2d_31">
     <path d="M 67.7375 38.476562 
L 87.7375 38.476562 
" style="fill:none;stroke:#ff7f0e;stroke-linecap:square;stroke-width:1.5;"/>
    </g>
    <g id="line2d_32"/>
    <g id="text_18">
     <!-- lowAlpha -->
     <defs>
      <path d="M 30.609375 48.390625 
Q 23.390625 48.390625 19.1875 42.75 
Q 14.984375 37.109375 14.984375 27.296875 
Q 14.984375 17.484375 19.15625 11.84375 
Q 23.34375 6.203125 30.609375 6.203125 
Q 37.796875 6.203125 41.984375 11.859375 
Q 46.1875 17.53125 46.1875 27.296875 
Q 46.1875 37.015625 41.984375 42.703125 
Q 37.796875 48.390625 30.609375 48.390625 
M 30.609375 56 
Q 42.328125 56 49.015625 48.375 
Q 55.71875 40.765625 55.71875 27.296875 
Q 55.71875 13.875 49.015625 6.21875 
Q 42.328125 -1.421875 30.609375 -1.421875 
Q 18.84375 -1.421875 12.171875 6.21875 
Q 5.515625 13.875 5.515625 27.296875 
Q 5.515625 40.765625 12.171875 48.375 
Q 18.84375 56 30.609375 56 
" id="DejaVuSans-6f"/>
      <path d="M 4.203125 54.6875 
L 13.1875 54.6875 
L 24.421875 12.015625 
L 35.59375 54.6875 
L 46.1875 54.6875 
L 57.421875 12.015625 
L 68.609375 54.6875 
L 77.59375 54.6875 
L 63.28125 0 
L 52.6875 0 
L 40.921875 44.828125 
L 29.109375 0 
L 18.5 0 
z
" id="DejaVuSans-77"/>
      <path d="M 34.1875 63.1875 
L 20.796875 26.90625 
L 47.609375 26.90625 
z
M 28.609375 72.90625 
L 39.796875 72.90625 
L 67.578125 0 
L 57.328125 0 
L 50.6875 18.703125 
L 17.828125 18.703125 
L 11.1875 0 
L 0.78125 0 
z
" id="DejaVuSans-41"/>
      <path d="M 18.109375 8.203125 
L 18.109375 -20.796875 
L 9.078125 -20.796875 
L 9.078125 54.6875 
L 18.109375 54.6875 
L 18.109375 46.390625 
Q 20.953125 51.265625 25.265625 53.625 
Q 29.59375 56 35.59375 56 
Q 45.5625 56 51.78125 48.09375 
Q 58.015625 40.1875 58.015625 27.296875 
Q 58.015625 14.40625 51.78125 6.484375 
Q 45.5625 -1.421875 35.59375 -1.421875 
Q 29.59375 -1.421875 25.265625 0.953125 
Q 20.953125 3.328125 18.109375 8.203125 
M 48.6875 27.296875 
Q 48.6875 37.203125 44.609375 42.84375 
Q 40.53125 48.484375 33.40625 48.484375 
Q 26.265625 48.484375 22.1875 42.84375 
Q 18.109375 37.203125 18.109375 27.296875 
Q 18.109375 17.390625 22.1875 11.75 
Q 26.265625 6.109375 33.40625 6.109375 
Q 40.53125 6.109375 44.609375 11.75 
Q 48.6875 17.390625 48.6875 27.296875 
" id="DejaVuSans-70"/>
      <path d="M 54.890625 33.015625 
L 54.890625 0 
L 45.90625 0 
L 45.90625 32.71875 
Q 45.90625 40.484375 42.875 44.328125 
Q 39.84375 48.1875 33.796875 48.1875 
Q 26.515625 48.1875 22.3125 43.546875 
Q 18.109375 38.921875 18.109375 30.90625 
L 18.109375 0 
L 9.078125 0 
L 9.078125 75.984375 
L 18.109375 75.984375 
L 18.109375 46.1875 
Q 21.34375 51.125 25.703125 53.5625 
Q 30.078125 56 35.796875 56 
Q 45.21875 56 50.046875 50.171875 
Q 54.890625 44.34375 54.890625 33.015625 
" id="DejaVuSans-68"/>
     </defs>
     <g transform="translate(95.7375 41.976562)scale(0.1 -0.1)">
      <use xlink:href="#DejaVuSans-6c"/>
      <use x="27.783203" xlink:href="#DejaVuSans-6f"/>
      <use x="88.964844" xlink:href="#DejaVuSans-77"/>
      <use x="170.751953" xlink:href="#DejaVuSans-41"/>
      <use x="239.160156" xlink:href="#DejaVuSans-6c"/>
      <use x="266.943359" xlink:href="#DejaVuSans-70"/>
      <use x="330.419922" xlink:href="#DejaVuSans-68"/>
      <use x="393.798828" xlink:href="#DejaVuSans-61"/>
     </g>
    </g>
    <g id="line2d_33">
     <path d="M 67.7375 53.154687 
L 87.7375 53.154687 
" style="fill:none;stroke:#2ca02c;stroke-linecap:square;stroke-width:1.5;"/>
    </g>
    <g id="line2d_34"/>
    <g id="text_19">
     <!-- highAlpha -->
     <defs>
      <path d="M 9.421875 54.6875 
L 18.40625 54.6875 
L 18.40625 0 
L 9.421875 0 
z
M 9.421875 75.984375 
L 18.40625 75.984375 
L 18.40625 64.59375 
L 9.421875 64.59375 
z
" id="DejaVuSans-69"/>
      <path d="M 45.40625 27.984375 
Q 45.40625 37.75 41.375 43.109375 
Q 37.359375 48.484375 30.078125 48.484375 
Q 22.859375 48.484375 18.828125 43.109375 
Q 14.796875 37.75 14.796875 27.984375 
Q 14.796875 18.265625 18.828125 12.890625 
Q 22.859375 7.515625 30.078125 7.515625 
Q 37.359375 7.515625 41.375 12.890625 
Q 45.40625 18.265625 45.40625 27.984375 
M 54.390625 6.78125 
Q 54.390625 -7.171875 48.1875 -13.984375 
Q 42 -20.796875 29.203125 -20.796875 
Q 24.46875 -20.796875 20.265625 -20.09375 
Q 16.0625 -19.390625 12.109375 -17.921875 
L 12.109375 -9.1875 
Q 16.0625 -11.328125 19.921875 -12.34375 
Q 23.78125 -13.375 27.78125 -13.375 
Q 36.625 -13.375 41.015625 -8.765625 
Q 45.40625 -4.15625 45.40625 5.171875 
L 45.40625 9.625 
Q 42.625 4.78125 38.28125 2.390625 
Q 33.9375 0 27.875 0 
Q 17.828125 0 11.671875 7.65625 
Q 5.515625 15.328125 5.515625 27.984375 
Q 5.515625 40.671875 11.671875 48.328125 
Q 17.828125 56 27.875 56 
Q 33.9375 56 38.28125 53.609375 
Q 42.625 51.21875 45.40625 46.390625 
L 45.40625 54.6875 
L 54.390625 54.6875 
z
" id="DejaVuSans-67"/>
     </defs>
     <g transform="translate(95.7375 56.654687)scale(0.1 -0.1)">
      <use xlink:href="#DejaVuSans-68"/>
      <use x="63.378906" xlink:href="#DejaVuSans-69"/>
      <use x="91.162109" xlink:href="#DejaVuSans-67"/>
      <use x="154.638672" xlink:href="#DejaVuSans-68"/>
      <use x="218.017578" xlink:href="#DejaVuSans-41"/>
      <use x="286.425781" xlink:href="#DejaVuSans-6c"/>
      <use x="314.208984" xlink:href="#DejaVuSans-70"/>
      <use x="377.685547" xlink:href="#DejaVuSans-68"/>
      <use x="441.064453" xlink:href="#DejaVuSans-61"/>
     </g>
    </g>
    <g id="line2d_35">
     <path d="M 67.7375 67.832812 
L 87.7375 67.832812 
" style="fill:none;stroke:#d62728;stroke-linecap:square;stroke-width:1.5;"/>
    </g>
    <g id="line2d_36"/>
    <g id="text_20">
     <!-- lowBeta -->
     <defs>
      <path d="M 19.671875 34.8125 
L 19.671875 8.109375 
L 35.5 8.109375 
Q 43.453125 8.109375 47.28125 11.40625 
Q 51.125 14.703125 51.125 21.484375 
Q 51.125 28.328125 47.28125 31.5625 
Q 43.453125 34.8125 35.5 34.8125 
z
M 19.671875 64.796875 
L 19.671875 42.828125 
L 34.28125 42.828125 
Q 41.5 42.828125 45.03125 45.53125 
Q 48.578125 48.25 48.578125 53.8125 
Q 48.578125 59.328125 45.03125 62.0625 
Q 41.5 64.796875 34.28125 64.796875 
z
M 9.8125 72.90625 
L 35.015625 72.90625 
Q 46.296875 72.90625 52.390625 68.21875 
Q 58.5 63.53125 58.5 54.890625 
Q 58.5 48.1875 55.375 44.234375 
Q 52.25 40.28125 46.1875 39.3125 
Q 53.46875 37.75 57.5 32.78125 
Q 61.53125 27.828125 61.53125 20.40625 
Q 61.53125 10.640625 54.890625 5.3125 
Q 48.25 0 35.984375 0 
L 9.8125 0 
z
" id="DejaVuSans-42"/>
     </defs>
     <g transform="translate(95.7375 71.332812)scale(0.1 -0.1)">
      <use xlink:href="#DejaVuSans-6c"/>
      <use x="27.783203" xlink:href="#DejaVuSans-6f"/>
      <use x="88.964844" xlink:href="#DejaVuSans-77"/>
      <use x="170.751953" xlink:href="#DejaVuSans-42"/>
      <use x="239.355469" xlink:href="#DejaVuSans-65"/>
      <use x="300.878906" xlink:href="#DejaVuSans-74"/>
      <use x="340.087891" xlink:href="#DejaVuSans-61"/>
     </g>
    </g>
    <g id="line2d_37">
     <path d="M 67.7375 82.510938 
L 87.7375 82.510938 
" style="fill:none;stroke:#9467bd;stroke-linecap:square;stroke-width:1.5;"/>
    </g>
    <g id="line2d_38"/>
    <g id="text_21">
     <!-- highBeta -->
     <g transform="translate(95.7375 86.010938)scale(0.1 -0.1)">
      <use xlink:href="#DejaVuSans-68"/>
      <use x="63.378906" xlink:href="#DejaVuSans-69"/>
      <use x="91.162109" xlink:href="#DejaVuSans-67"/>
      <use x="154.638672" xlink:href="#DejaVuSans-68"/>
      <use x="218.017578" xlink:href="#DejaVuSans-42"/>
      <use x="286.621094" xlink:href="#DejaVuSans-65"/>
      <use x="348.144531" xlink:href="#DejaVuSans-74"/>
      <use x="387.353516" xlink:href="#DejaVuSans-61"/>
     </g>
    </g>
    <g id="line2d_39">
     <path d="M 67.7375 97.189062 
L 87.7375 97.189062 
" style="fill:none;stroke:#8c564b;stroke-linecap:square;stroke-width:1.5;"/>
    </g>
    <g id="line2d_40"/>
    <g id="text_22">
     <!-- lowGamma -->
     <defs>
      <path d="M 59.515625 10.40625 
L 59.515625 29.984375 
L 43.40625 29.984375 
L 43.40625 38.09375 
L 69.28125 38.09375 
L 69.28125 6.78125 
Q 63.578125 2.734375 56.6875 0.65625 
Q 49.8125 -1.421875 42 -1.421875 
Q 24.90625 -1.421875 15.25 8.5625 
Q 5.609375 18.5625 5.609375 36.375 
Q 5.609375 54.25 15.25 64.234375 
Q 24.90625 74.21875 42 74.21875 
Q 49.125 74.21875 55.546875 72.453125 
Q 61.96875 70.703125 67.390625 67.28125 
L 67.390625 56.78125 
Q 61.921875 61.421875 55.765625 63.765625 
Q 49.609375 66.109375 42.828125 66.109375 
Q 29.4375 66.109375 22.71875 58.640625 
Q 16.015625 51.171875 16.015625 36.375 
Q 16.015625 21.625 22.71875 14.15625 
Q 29.4375 6.6875 42.828125 6.6875 
Q 48.046875 6.6875 52.140625 7.59375 
Q 56.25 8.5 59.515625 10.40625 
" id="DejaVuSans-47"/>
      <path d="M 52 44.1875 
Q 55.375 50.25 60.0625 53.125 
Q 64.75 56 71.09375 56 
Q 79.640625 56 84.28125 50.015625 
Q 88.921875 44.046875 88.921875 33.015625 
L 88.921875 0 
L 79.890625 0 
L 79.890625 32.71875 
Q 79.890625 40.578125 77.09375 44.375 
Q 74.3125 48.1875 68.609375 48.1875 
Q 61.625 48.1875 57.5625 43.546875 
Q 53.515625 38.921875 53.515625 30.90625 
L 53.515625 0 
L 44.484375 0 
L 44.484375 32.71875 
Q 44.484375 40.625 41.703125 44.40625 
Q 38.921875 48.1875 33.109375 48.1875 
Q 26.21875 48.1875 22.15625 43.53125 
Q 18.109375 38.875 18.109375 30.90625 
L 18.109375 0 
L 9.078125 0 
L 9.078125 54.6875 
L 18.109375 54.6875 
L 18.109375 46.1875 
Q 21.1875 51.21875 25.484375 53.609375 
Q 29.78125 56 35.6875 56 
Q 41.65625 56 45.828125 52.96875 
Q 50 49.953125 52 44.1875 
" id="DejaVuSans-6d"/>
     </defs>
     <g transform="translate(95.7375 100.689062)scale(0.1 -0.1)">
      <use xlink:href="#DejaVuSans-6c"/>
      <use x="27.783203" xlink:href="#DejaVuSans-6f"/>
      <use x="88.964844" xlink:href="#DejaVuSans-77"/>
      <use x="170.751953" xlink:href="#DejaVuSans-47"/>
      <use x="248.242188" xlink:href="#DejaVuSans-61"/>
      <use x="309.521484" xlink:href="#DejaVuSans-6d"/>
      <use x="406.933594" xlink:href="#DejaVuSans-6d"/>
      <use x="504.345703" xlink:href="#DejaVuSans-61"/>
     </g>
    </g>
    <g id="line2d_41">
     <path d="M 67.7375 111.867188 
L 87.7375 111.867188 
" style="fill:none;stroke:#e377c2;stroke-linecap:square;stroke-width:1.5;"/>
    </g>
    <g id="line2d_42"/>
    <g id="text_23">
     <!-- midGamma -->
     <g transform="translate(95.7375 115.367188)scale(0.1 -0.1)">
      <use xlink:href="#DejaVuSans-6d"/>
      <use x="97.412109" xlink:href="#DejaVuSans-69"/>
      <use x="125.195312" xlink:href="#DejaVuSans-64"/>
      <use x="188.671875" xlink:href="#DejaVuSans-47"/>
      <use x="266.162109" xlink:href="#DejaVuSans-61"/>
      <use x="327.441406" xlink:href="#DejaVuSans-6d"/>
      <use x="424.853516" xlink:href="#DejaVuSans-6d"/>
      <use x="522.265625" xlink:href="#DejaVuSans-61"/>
     </g>
    </g>
    <g id="line2d_43">
     <path d="M 67.7375 126.545312 
L 87.7375 126.545312 
" style="fill:none;stroke:#7f7f7f;stroke-linecap:square;stroke-width:1.5;"/>
    </g>
    <g id="line2d_44"/>
    <g id="text_24">
     <!-- attention -->
     <defs>
      <path d="M 54.890625 33.015625 
L 54.890625 0 
L 45.90625 0 
L 45.90625 32.71875 
Q 45.90625 40.484375 42.875 44.328125 
Q 39.84375 48.1875 33.796875 48.1875 
Q 26.515625 48.1875 22.3125 43.546875 
Q 18.109375 38.921875 18.109375 30.90625 
L 18.109375 0 
L 9.078125 0 
L 9.078125 54.6875 
L 18.109375 54.6875 
L 18.109375 46.1875 
Q 21.34375 51.125 25.703125 53.5625 
Q 30.078125 56 35.796875 56 
Q 45.21875 56 50.046875 50.171875 
Q 54.890625 44.34375 54.890625 33.015625 
" id="DejaVuSans-6e"/>
     </defs>
     <g transform="translate(95.7375 130.045312)scale(0.1 -0.1)">
      <use xlink:href="#DejaVuSans-61"/>
      <use x="61.279297" xlink:href="#DejaVuSans-74"/>
      <use x="100.488281" xlink:href="#DejaVuSans-74"/>
      <use x="139.697266" xlink:href="#DejaVuSans-65"/>
      <use x="201.220703" xlink:href="#DejaVuSans-6e"/>
      <use x="264.599609" xlink:href="#DejaVuSans-74"/>
      <use x="303.808594" xlink:href="#DejaVuSans-69"/>
      <use x="331.591797" xlink:href="#DejaVuSans-6f"/>
      <use x="392.773438" xlink:href="#DejaVuSans-6e"/>
     </g>
    </g>
    <g id="line2d_45">
     <path d="M 67.7375 141.223437 
L 87.7375 141.223437 
" style="fill:none;stroke:#bcbd22;stroke-linecap:square;stroke-width:1.5;"/>
    </g>
    <g id="line2d_46"/>
    <g id="text_25">
     <!-- meditation -->
     <g transform="translate(95.7375 144.723437)scale(0.1 -0.1)">
      <use xlink:href="#DejaVuSans-6d"/>
      <use x="97.412109" xlink:href="#DejaVuSans-65"/>
      <use x="158.935547" xlink:href="#DejaVuSans-64"/>
      <use x="222.412109" xlink:href="#DejaVuSans-69"/>
      <use x="250.195312" xlink:href="#DejaVuSans-74"/>
      <use x="289.404297" xlink:href="#DejaVuSans-61"/>
      <use x="350.683594" xlink:href="#DejaVuSans-74"/>
      <use x="389.892578" xlink:href="#DejaVuSans-69"/>
      <use x="417.675781" xlink:href="#DejaVuSans-6f"/>
      <use x="478.857422" xlink:href="#DejaVuSans-6e"/>
     </g>
    </g>
    <g id="line2d_47">
     <path d="M 67.7375 155.901562 
L 87.7375 155.901562 
" style="fill:none;stroke:#17becf;stroke-linecap:square;stroke-width:1.5;"/>
    </g>
    <g id="line2d_48"/>
    <g id="text_26">
     <!-- rawValue -->
     <defs>
      <path d="M 41.109375 46.296875 
Q 39.59375 47.171875 37.8125 47.578125 
Q 36.03125 48 33.890625 48 
Q 26.265625 48 22.1875 43.046875 
Q 18.109375 38.09375 18.109375 28.8125 
L 18.109375 0 
L 9.078125 0 
L 9.078125 54.6875 
L 18.109375 54.6875 
L 18.109375 46.1875 
Q 20.953125 51.171875 25.484375 53.578125 
Q 30.03125 56 36.53125 56 
Q 37.453125 56 38.578125 55.875 
Q 39.703125 55.765625 41.0625 55.515625 
z
" id="DejaVuSans-72"/>
      <path d="M 28.609375 0 
L 0.78125 72.90625 
L 11.078125 72.90625 
L 34.1875 11.53125 
L 57.328125 72.90625 
L 67.578125 72.90625 
L 39.796875 0 
z
" id="DejaVuSans-56"/>
      <path d="M 8.5 21.578125 
L 8.5 54.6875 
L 17.484375 54.6875 
L 17.484375 21.921875 
Q 17.484375 14.15625 20.5 10.265625 
Q 23.53125 6.390625 29.59375 6.390625 
Q 36.859375 6.390625 41.078125 11.03125 
Q 45.3125 15.671875 45.3125 23.6875 
L 45.3125 54.6875 
L 54.296875 54.6875 
L 54.296875 0 
L 45.3125 0 
L 45.3125 8.40625 
Q 42.046875 3.421875 37.71875 1 
Q 33.40625 -1.421875 27.6875 -1.421875 
Q 18.265625 -1.421875 13.375 4.4375 
Q 8.5 10.296875 8.5 21.578125 
M 31.109375 56 
z
" id="DejaVuSans-75"/>
     </defs>
     <g transform="translate(95.7375 159.401562)scale(0.1 -0.1)">
      <use xlink:href="#DejaVuSans-72"/>
      <use x="41.113281" xlink:href="#DejaVuSans-61"/>
      <use x="102.392578" xlink:href="#DejaVuSans-77"/>
      <use x="184.179688" xlink:href="#DejaVuSans-56"/>
      <use x="252.478516" xlink:href="#DejaVuSans-61"/>
      <use x="313.757812" xlink:href="#DejaVuSans-6c"/>
      <use x="341.541016" xlink:href="#DejaVuSans-75"/>
      <use x="404.919922" xlink:href="#DejaVuSans-65"/>
     </g>
    </g>
   </g>
  </g>
 </g>
 <defs>
  <clipPath id="p2a3424446a">
   <rect height="266.112" width="357.12" x="58.7375" y="10.7"/>
  </clipPath>
 </defs>
</svg>
