<?xml version="1.0" encoding="utf-8" standalone="no"?>
<!DOCTYPE svg PUBLIC "-//W3C//DTD SVG 1.1//EN"
  "http://www.w3.org/Graphics/SVG/1.1/DTD/svg11.dtd">
<!-- Created with matplotlib (http://matplotlib.org/) -->
<svg height="300pt" version="1.1" viewBox="0 0 426 300" width="426pt" xmlns="http://www.w3.org/2000/svg" xmlns:xlink="http://www.w3.org/1999/xlink">
 <defs>
  <style type="text/css">
*{stroke-linecap:butt;stroke-linejoin:round;}
  </style>
 </defs>
 <g id="figure_1">
  <g id="patch_1">
   <path d="M 0 300.690125 
L 426.5575 300.690125 
L 426.5575 0 
L 0 0 
z
" style="fill:#ffffff;"/>
  </g>
  <g id="axes_1">
   <g id="patch_2">
    <path d="M 58.7375 276.812 
L 415.8575 276.812 
L 415.8575 10.7 
L 58.7375 10.7 
z
" style="fill:#ffffff;"/>
   </g>
   <g id="matplotlib.axis_1">
    <g id="xtick_1">
     <g id="line2d_1">
      <defs>
       <path d="M 0 0 
L 0 3.5 
" id="m783152650a" style="stroke:#000000;stroke-width:0.8;"/>
      </defs>
      <g>
       <use style="stroke:#000000;stroke-width:0.8;" x="74.970227" xlink:href="#m783152650a" y="276.812"/>
      </g>
     </g>
     <g id="text_1">
      <!-- 0 -->
      <defs>
       <path d="M 31.78125 66.40625 
Q 24.171875 66.40625 20.328125 58.90625 
Q 16.5 51.421875 16.5 36.375 
Q 16.5 21.390625 20.328125 13.890625 
Q 24.171875 6.390625 31.78125 6.390625 
Q 39.453125 6.390625 43.28125 13.890625 
Q 47.125 21.390625 47.125 36.375 
Q 47.125 51.421875 43.28125 58.90625 
Q 39.453125 66.40625 31.78125 66.40625 
M 31.78125 74.21875 
Q 44.046875 74.21875 50.515625 64.515625 
Q 56.984375 54.828125 56.984375 36.375 
Q 56.984375 17.96875 50.515625 8.265625 
Q 44.046875 -1.421875 31.78125 -1.421875 
Q 19.53125 -1.421875 13.0625 8.265625 
Q 6.59375 17.96875 6.59375 36.375 
Q 6.59375 54.828125 13.0625 64.515625 
Q 19.53125 74.21875 31.78125 74.21875 
" id="DejaVuSans-30"/>
      </defs>
      <g transform="translate(71.788977 291.410437)scale(0.1 -0.1)">
       <use xlink:href="#DejaVuSans-30"/>
      </g>
     </g>
    </g>
    <g id="xtick_2">
     <g id="line2d_2">
      <g>
       <use style="stroke:#000000;stroke-width:0.8;" x="116.380246" xlink:href="#m783152650a" y="276.812"/>
      </g>
     </g>
     <g id="text_2">
      <!-- 25 -->
      <defs>
       <path d="M 19.1875 8.296875 
L 53.609375 8.296875 
L 53.609375 0 
L 7.328125 0 
L 7.328125 8.296875 
Q 12.9375 14.109375 22.625 23.890625 
Q 32.328125 33.6875 34.8125 36.53125 
Q 39.546875 41.84375 41.421875 45.53125 
Q 43.3125 49.21875 43.3125 52.78125 
Q 43.3125 58.59375 39.234375 62.25 
Q 35.15625 65.921875 28.609375 65.921875 
Q 23.96875 65.921875 18.8125 64.3125 
Q 13.671875 62.703125 7.8125 59.421875 
L 7.8125 69.390625 
Q 13.765625 71.78125 18.9375 73 
Q 24.125 74.21875 28.421875 74.21875 
Q 39.75 74.21875 46.484375 68.546875 
Q 53.21875 62.890625 53.21875 53.421875 
Q 53.21875 48.921875 51.53125 44.890625 
Q 49.859375 40.875 45.40625 35.40625 
Q 44.1875 33.984375 37.640625 27.21875 
Q 31.109375 20.453125 19.1875 8.296875 
" id="DejaVuSans-32"/>
       <path d="M 10.796875 72.90625 
L 49.515625 72.90625 
L 49.515625 64.59375 
L 19.828125 64.59375 
L 19.828125 46.734375 
Q 21.96875 47.46875 24.109375 47.828125 
Q 26.265625 48.1875 28.421875 48.1875 
Q 40.625 48.1875 47.75 41.5 
Q 54.890625 34.8125 54.890625 23.390625 
Q 54.890625 11.625 47.5625 5.09375 
Q 40.234375 -1.421875 26.90625 -1.421875 
Q 22.3125 -1.421875 17.546875 -0.640625 
Q 12.796875 0.140625 7.71875 1.703125 
L 7.71875 11.625 
Q 12.109375 9.234375 16.796875 8.0625 
Q 21.484375 6.890625 26.703125 6.890625 
Q 35.15625 6.890625 40.078125 11.328125 
Q 45.015625 15.765625 45.015625 23.390625 
Q 45.015625 31 40.078125 35.4375 
Q 35.15625 39.890625 26.703125 39.890625 
Q 22.75 39.890625 18.8125 39.015625 
Q 14.890625 38.140625 10.796875 36.28125 
z
" id="DejaVuSans-35"/>
      </defs>
      <g transform="translate(110.017746 291.410437)scale(0.1 -0.1)">
       <use xlink:href="#DejaVuSans-32"/>
       <use x="63.623047" xlink:href="#DejaVuSans-35"/>
      </g>
     </g>
    </g>
    <g id="xtick_3">
     <g id="line2d_3">
      <g>
       <use style="stroke:#000000;stroke-width:0.8;" x="157.790264" xlink:href="#m783152650a" y="276.812"/>
      </g>
     </g>
     <g id="text_3">
      <!-- 50 -->
      <g transform="translate(151.427764 291.410437)scale(0.1 -0.1)">
       <use xlink:href="#DejaVuSans-35"/>
       <use x="63.623047" xlink:href="#DejaVuSans-30"/>
      </g>
     </g>
    </g>
    <g id="xtick_4">
     <g id="line2d_4">
      <g>
       <use style="stroke:#000000;stroke-width:0.8;" x="199.200283" xlink:href="#m783152650a" y="276.812"/>
      </g>
     </g>
     <g id="text_4">
      <!-- 75 -->
      <defs>
       <path d="M 8.203125 72.90625 
L 55.078125 72.90625 
L 55.078125 68.703125 
L 28.609375 0 
L 18.3125 0 
L 43.21875 64.59375 
L 8.203125 64.59375 
z
" id="DejaVuSans-37"/>
      </defs>
      <g transform="translate(192.837783 291.410437)scale(0.1 -0.1)">
       <use xlink:href="#DejaVuSans-37"/>
       <use x="63.623047" xlink:href="#DejaVuSans-35"/>
      </g>
     </g>
    </g>
    <g id="xtick_5">
     <g id="line2d_5">
      <g>
       <use style="stroke:#000000;stroke-width:0.8;" x="240.610301" xlink:href="#m783152650a" y="276.812"/>
      </g>
     </g>
     <g id="text_5">
      <!-- 100 -->
      <defs>
       <path d="M 12.40625 8.296875 
L 28.515625 8.296875 
L 28.515625 63.921875 
L 10.984375 60.40625 
L 10.984375 69.390625 
L 28.421875 72.90625 
L 38.28125 72.90625 
L 38.28125 8.296875 
L 54.390625 8.296875 
L 54.390625 0 
L 12.40625 0 
z
" id="DejaVuSans-31"/>
      </defs>
      <g transform="translate(231.066551 291.410437)scale(0.1 -0.1)">
       <use xlink:href="#DejaVuSans-31"/>
       <use x="63.623047" xlink:href="#DejaVuSans-30"/>
       <use x="127.246094" xlink:href="#DejaVuSans-30"/>
      </g>
     </g>
    </g>
    <g id="xtick_6">
     <g id="line2d_6">
      <g>
       <use style="stroke:#000000;stroke-width:0.8;" x="282.02032" xlink:href="#m783152650a" y="276.812"/>
      </g>
     </g>
     <g id="text_6">
      <!-- 125 -->
      <g transform="translate(272.47657 291.410437)scale(0.1 -0.1)">
       <use xlink:href="#DejaVuSans-31"/>
       <use x="63.623047" xlink:href="#DejaVuSans-32"/>
       <use x="127.246094" xlink:href="#DejaVuSans-35"/>
      </g>
     </g>
    </g>
    <g id="xtick_7">
     <g id="line2d_7">
      <g>
       <use style="stroke:#000000;stroke-width:0.8;" x="323.430339" xlink:href="#m783152650a" y="276.812"/>
      </g>
     </g>
     <g id="text_7">
      <!-- 150 -->
      <g transform="translate(313.886589 291.410437)scale(0.1 -0.1)">
       <use xlink:href="#DejaVuSans-31"/>
       <use x="63.623047" xlink:href="#DejaVuSans-35"/>
       <use x="127.246094" xlink:href="#DejaVuSans-30"/>
      </g>
     </g>
    </g>
    <g id="xtick_8">
     <g id="line2d_8">
      <g>
       <use style="stroke:#000000;stroke-width:0.8;" x="364.840357" xlink:href="#m783152650a" y="276.812"/>
      </g>
     </g>
     <g id="text_8">
      <!-- 175 -->
      <g transform="translate(355.296607 291.410437)scale(0.1 -0.1)">
       <use xlink:href="#DejaVuSans-31"/>
       <use x="63.623047" xlink:href="#DejaVuSans-37"/>
       <use x="127.246094" xlink:href="#DejaVuSans-35"/>
      </g>
     </g>
    </g>
    <g id="xtick_9">
     <g id="line2d_9">
      <g>
       <use style="stroke:#000000;stroke-width:0.8;" x="406.250376" xlink:href="#m783152650a" y="276.812"/>
      </g>
     </g>
     <g id="text_9">
      <!-- 200 -->
      <g transform="translate(396.706626 291.410437)scale(0.1 -0.1)">
       <use xlink:href="#DejaVuSans-32"/>
       <use x="63.623047" xlink:href="#DejaVuSans-30"/>
       <use x="127.246094" xlink:href="#DejaVuSans-30"/>
      </g>
     </g>
    </g>
   </g>
   <g id="matplotlib.axis_2">
    <g id="ytick_1">
     <g id="line2d_10">
      <defs>
       <path d="M 0 0 
L -3.5 0 
" id="mf6f1897339" style="stroke:#000000;stroke-width:0.8;"/>
      </defs>
      <g>
       <use style="stroke:#000000;stroke-width:0.8;" x="58.7375" xlink:href="#mf6f1897339" y="264.679488"/>
      </g>
     </g>
     <g id="text_10">
      <!-- 0 -->
      <g transform="translate(45.375 268.478707)scale(0.1 -0.1)">
       <use xlink:href="#DejaVuSans-30"/>
      </g>
     </g>
    </g>
    <g id="ytick_2">
     <g id="line2d_11">
      <g>
       <use style="stroke:#000000;stroke-width:0.8;" x="58.7375" xlink:href="#mf6f1897339" y="224.019967"/>
      </g>
     </g>
     <g id="text_11">
      <!-- 500000 -->
      <g transform="translate(13.5625 227.819186)scale(0.1 -0.1)">
       <use xlink:href="#DejaVuSans-35"/>
       <use x="63.623047" xlink:href="#DejaVuSans-30"/>
       <use x="127.246094" xlink:href="#DejaVuSans-30"/>
       <use x="190.869141" xlink:href="#DejaVuSans-30"/>
       <use x="254.492188" xlink:href="#DejaVuSans-30"/>
       <use x="318.115234" xlink:href="#DejaVuSans-30"/>
      </g>
     </g>
    </g>
    <g id="ytick_3">
     <g id="line2d_12">
      <g>
       <use style="stroke:#000000;stroke-width:0.8;" x="58.7375" xlink:href="#mf6f1897339" y="183.360447"/>
      </g>
     </g>
     <g id="text_12">
      <!-- 1000000 -->
      <g transform="translate(7.2 187.159665)scale(0.1 -0.1)">
       <use xlink:href="#DejaVuSans-31"/>
       <use x="63.623047" xlink:href="#DejaVuSans-30"/>
       <use x="127.246094" xlink:href="#DejaVuSans-30"/>
       <use x="190.869141" xlink:href="#DejaVuSans-30"/>
       <use x="254.492188" xlink:href="#DejaVuSans-30"/>
       <use x="318.115234" xlink:href="#DejaVuSans-30"/>
       <use x="381.738281" xlink:href="#DejaVuSans-30"/>
      </g>
     </g>
    </g>
    <g id="ytick_4">
     <g id="line2d_13">
      <g>
       <use style="stroke:#000000;stroke-width:0.8;" x="58.7375" xlink:href="#mf6f1897339" y="142.700926"/>
      </g>
     </g>
     <g id="text_13">
      <!-- 1500000 -->
      <g transform="translate(7.2 146.500145)scale(0.1 -0.1)">
       <use xlink:href="#DejaVuSans-31"/>
       <use x="63.623047" xlink:href="#DejaVuSans-35"/>
       <use x="127.246094" xlink:href="#DejaVuSans-30"/>
       <use x="190.869141" xlink:href="#DejaVuSans-30"/>
       <use x="254.492188" xlink:href="#DejaVuSans-30"/>
       <use x="318.115234" xlink:href="#DejaVuSans-30"/>
       <use x="381.738281" xlink:href="#DejaVuSans-30"/>
      </g>
     </g>
    </g>
    <g id="ytick_5">
     <g id="line2d_14">
      <g>
       <use style="stroke:#000000;stroke-width:0.8;" x="58.7375" xlink:href="#mf6f1897339" y="102.041406"/>
      </g>
     </g>
     <g id="text_14">
      <!-- 2000000 -->
      <g transform="translate(7.2 105.840624)scale(0.1 -0.1)">
       <use xlink:href="#DejaVuSans-32"/>
       <use x="63.623047" xlink:href="#DejaVuSans-30"/>
       <use x="127.246094" xlink:href="#DejaVuSans-30"/>
       <use x="190.869141" xlink:href="#DejaVuSans-30"/>
       <use x="254.492188" xlink:href="#DejaVuSans-30"/>
       <use x="318.115234" xlink:href="#DejaVuSans-30"/>
       <use x="381.738281" xlink:href="#DejaVuSans-30"/>
      </g>
     </g>
    </g>
    <g id="ytick_6">
     <g id="line2d_15">
      <g>
       <use style="stroke:#000000;stroke-width:0.8;" x="58.7375" xlink:href="#mf6f1897339" y="61.381885"/>
      </g>
     </g>
     <g id="text_15">
      <!-- 2500000 -->
      <g transform="translate(7.2 65.181104)scale(0.1 -0.1)">
       <use xlink:href="#DejaVuSans-32"/>
       <use x="63.623047" xlink:href="#DejaVuSans-35"/>
       <use x="127.246094" xlink:href="#DejaVuSans-30"/>
       <use x="190.869141" xlink:href="#DejaVuSans-30"/>
       <use x="254.492188" xlink:href="#DejaVuSans-30"/>
       <use x="318.115234" xlink:href="#DejaVuSans-30"/>
       <use x="381.738281" xlink:href="#DejaVuSans-30"/>
      </g>
     </g>
    </g>
    <g id="ytick_7">
     <g id="line2d_16">
      <g>
       <use style="stroke:#000000;stroke-width:0.8;" x="58.7375" xlink:href="#mf6f1897339" y="20.722364"/>
      </g>
     </g>
     <g id="text_16">
      <!-- 3000000 -->
      <defs>
       <path d="M 40.578125 39.3125 
Q 47.65625 37.796875 51.625 33 
Q 55.609375 28.21875 55.609375 21.1875 
Q 55.609375 10.40625 48.1875 4.484375 
Q 40.765625 -1.421875 27.09375 -1.421875 
Q 22.515625 -1.421875 17.65625 -0.515625 
Q 12.796875 0.390625 7.625 2.203125 
L 7.625 11.71875 
Q 11.71875 9.328125 16.59375 8.109375 
Q 21.484375 6.890625 26.8125 6.890625 
Q 36.078125 6.890625 40.9375 10.546875 
Q 45.796875 14.203125 45.796875 21.1875 
Q 45.796875 27.640625 41.28125 31.265625 
Q 36.765625 34.90625 28.71875 34.90625 
L 20.21875 34.90625 
L 20.21875 43.015625 
L 29.109375 43.015625 
Q 36.375 43.015625 40.234375 45.921875 
Q 44.09375 48.828125 44.09375 54.296875 
Q 44.09375 59.90625 40.109375 62.90625 
Q 36.140625 65.921875 28.71875 65.921875 
Q 24.65625 65.921875 20.015625 65.03125 
Q 15.375 64.15625 9.8125 62.3125 
L 9.8125 71.09375 
Q 15.4375 72.65625 20.34375 73.4375 
Q 25.25 74.21875 29.59375 74.21875 
Q 40.828125 74.21875 47.359375 69.109375 
Q 53.90625 64.015625 53.90625 55.328125 
Q 53.90625 49.265625 50.4375 45.09375 
Q 46.96875 40.921875 40.578125 39.3125 
" id="DejaVuSans-33"/>
      </defs>
      <g transform="translate(7.2 24.521583)scale(0.1 -0.1)">
       <use xlink:href="#DejaVuSans-33"/>
       <use x="63.623047" xlink:href="#DejaVuSans-30"/>
       <use x="127.246094" xlink:href="#DejaVuSans-30"/>
       <use x="190.869141" xlink:href="#DejaVuSans-30"/>
       <use x="254.492188" xlink:href="#DejaVuSans-30"/>
       <use x="318.115234" xlink:href="#DejaVuSans-30"/>
       <use x="381.738281" xlink:href="#DejaVuSans-30"/>
      </g>
     </g>
    </g>
   </g>
   <g id="line2d_17">
    <path clip-path="url(#pfb7c824fd8)" d="M 74.970227 261.976687 
L 76.626628 252.111223 
L 78.283029 263.602254 
L 79.939429 250.020592 
L 81.59583 252.002337 
L 83.252231 260.612804 
L 84.908632 262.228938 
L 86.565032 231.26094 
L 88.221433 259.345447 
L 89.877834 263.919805 
L 91.534235 254.818822 
L 93.190635 196.883234 
L 94.847036 22.796 
L 96.503437 262.251057 
L 98.159838 210.693809 
L 99.816238 263.096857 
L 101.472639 256.893108 
L 103.12904 263.699024 
L 104.785441 250.266664 
L 106.441841 263.019522 
L 109.754643 254.232187 
L 111.411044 238.838248 
L 113.067444 246.648779 
L 114.723845 263.85784 
L 116.380246 252.249628 
L 118.036647 204.485588 
L 119.693047 263.584446 
L 121.349448 251.342433 
L 123.005849 263.605588 
L 124.66225 263.08474 
L 126.31865 264.08903 
L 127.975051 261.496335 
L 129.631452 261.915291 
L 131.287853 263.892401 
L 132.944253 216.419808 
L 134.600654 245.615702 
L 136.257055 263.357403 
L 137.913455 262.646512 
L 139.569856 256.838868 
L 141.226257 258.126718 
L 142.882658 263.082219 
L 144.539058 261.594325 
L 146.195459 264.254352 
L 147.85186 234.564201 
L 149.508261 251.071153 
L 151.164661 263.530694 
L 152.821062 263.420018 
L 154.477463 260.321519 
L 156.133864 257.924071 
L 157.790264 264.142945 
L 159.446665 258.353273 
L 161.103066 263.855645 
L 162.759467 246.961207 
L 164.415867 262.89055 
L 166.072268 242.654957 
L 167.728669 263.229569 
L 169.38507 263.166303 
L 171.04147 252.387464 
L 172.697871 262.703354 
L 176.010673 264.008199 
L 177.667073 263.29926 
L 179.323474 262.264638 
L 180.979875 261.883007 
L 182.636276 221.38458 
L 184.292676 258.102729 
L 185.949077 263.6112 
L 187.605478 261.321337 
L 189.261878 224.107792 
L 190.918279 262.198119 
L 192.57468 264.327539 
L 194.231081 264.151239 
L 195.887481 257.666208 
L 197.543882 255.895812 
L 199.200283 263.646329 
L 200.856684 263.311051 
L 202.513084 259.63047 
L 204.169485 231.094155 
L 205.825886 257.914475 
L 207.482287 257.838117 
L 209.138687 264.284521 
L 210.795088 262.979757 
L 212.451489 262.218611 
L 214.10789 256.671433 
L 215.76429 264.581824 
L 217.420691 262.770279 
L 219.077092 251.456442 
L 220.733493 262.515181 
L 222.389893 228.597579 
L 224.046294 259.074817 
L 225.702695 263.085472 
L 227.359096 260.21865 
L 229.015496 258.545755 
L 230.671897 249.458596 
L 232.328298 254.107443 
L 233.984699 260.131314 
L 235.641099 258.132573 
L 237.2975 264.527746 
L 238.953901 262.205193 
L 240.610301 263.924196 
L 242.266702 264.128795 
L 243.923103 263.75424 
L 245.579504 263.085472 
L 247.235904 264.112531 
L 248.892305 224.166341 
L 250.548706 260.041131 
L 252.205107 252.978816 
L 253.861507 260.054223 
L 255.517908 258.795892 
L 257.174309 251.691129 
L 258.83071 262.891282 
L 260.48711 264.260695 
L 262.143511 262.228938 
L 263.799912 217.200796 
L 265.456313 264.344372 
L 267.112713 257.9949 
L 268.769114 263.345205 
L 270.425515 262.858104 
L 272.081916 261.682149 
L 273.738316 263.473933 
L 275.394717 219.70892 
L 277.051118 263.88801 
L 278.707519 262.873798 
L 280.363919 261.12918 
L 282.02032 263.409528 
L 283.676721 263.646085 
L 285.333122 262.81533 
L 286.989522 251.359754 
L 288.645923 262.390031 
L 290.302324 261.595788 
L 291.958724 264.020804 
L 293.615125 263.438722 
L 295.271526 262.665703 
L 296.927927 263.480032 
L 298.584327 253.211877 
L 300.240728 264.519289 
L 301.897129 239.44318 
L 303.55353 255.518572 
L 305.20993 264.174415 
L 306.866331 261.110558 
L 308.522732 263.546957 
L 310.179133 259.521584 
L 311.835533 257.578221 
L 313.491934 70.456439 
L 315.148335 263.577859 
L 316.804736 258.337416 
L 318.461136 262.376451 
L 320.117537 263.004641 
L 321.773938 263.500036 
L 323.430339 148.450345 
L 325.086739 262.234549 
L 326.74314 251.961108 
L 328.399541 259.941353 
L 330.055942 256.939216 
L 331.712342 263.764892 
L 333.368743 260.02072 
L 335.025144 241.004831 
L 336.681545 261.090147 
L 338.337945 255.768547 
L 339.994346 263.850521 
L 341.650747 257.887234 
L 343.307147 253.461445 
L 344.963548 263.184275 
L 346.619949 256.054872 
L 348.27635 251.690235 
L 349.93275 247.010974 
L 353.245552 264.157826 
L 354.901953 259.257378 
L 356.558353 264.00397 
L 358.214754 251.368943 
L 359.871155 206.262816 
L 361.527556 257.053144 
L 363.183956 224.630836 
L 364.840357 263.201839 
L 366.496758 260.351363 
L 368.153159 264.078947 
L 369.809559 262.031658 
L 371.46596 260.829275 
L 373.122361 225.517539 
L 374.778762 263.72407 
L 376.435162 262.852086 
L 378.091563 252.683709 
L 379.747964 263.822629 
L 381.404365 262.929258 
L 383.060765 260.180024 
L 384.717166 261.40233 
L 386.373567 261.872273 
L 388.029968 257.504383 
L 389.686368 264.526364 
L 391.342769 262.419794 
L 392.99917 264.207105 
L 394.655571 256.886115 
L 396.311971 262.573569 
L 397.968372 260.865706 
L 399.624773 239.454321 
L 399.624773 239.454321 
" style="fill:none;stroke:#1f77b4;stroke-linecap:square;stroke-width:1.5;"/>
   </g>
   <g id="line2d_18">
    <path clip-path="url(#pfb7c824fd8)" d="M 74.970227 263.167685 
L 76.626628 262.801831 
L 78.283029 263.409122 
L 79.939429 259.066929 
L 81.59583 264.461065 
L 83.252231 262.061909 
L 84.908632 261.481942 
L 88.221433 263.811732 
L 89.877834 263.622991 
L 91.534235 260.465291 
L 93.190635 252.143426 
L 94.847036 227.615001 
L 96.503437 262.380924 
L 98.159838 262.771255 
L 99.816238 263.76164 
L 101.472639 264.278178 
L 103.12904 263.911023 
L 104.785441 261.092424 
L 106.441841 262.241136 
L 108.098242 262.135178 
L 109.754643 261.671171 
L 111.411044 258.976339 
L 113.067444 264.333801 
L 114.723845 264.376412 
L 116.380246 258.885587 
L 118.036647 235.409349 
L 119.693047 263.519309 
L 121.349448 261.369478 
L 123.005849 263.454742 
L 124.66225 262.617074 
L 126.31865 263.63405 
L 127.975051 262.578204 
L 129.631452 263.758468 
L 131.287853 263.156951 
L 132.944253 261.402818 
L 134.600654 263.918667 
L 136.257055 264.318106 
L 137.913455 263.266651 
L 139.569856 261.454212 
L 141.226257 263.09149 
L 142.882658 264.0687 
L 144.539058 260.898966 
L 146.195459 263.54647 
L 147.85186 258.514122 
L 149.508261 261.601237 
L 151.164661 263.242662 
L 152.821062 261.631243 
L 154.477463 261.068109 
L 156.133864 260.268987 
L 157.790264 263.907851 
L 159.446665 260.640696 
L 161.103066 262.717422 
L 162.759467 261.100149 
L 164.415867 264.22524 
L 166.072268 259.221679 
L 167.728669 263.468403 
L 169.38507 262.927225 
L 171.04147 261.78266 
L 172.697871 264.61305 
L 174.354272 264.084964 
L 176.010673 264.566536 
L 177.667073 263.711791 
L 179.323474 261.037777 
L 180.979875 261.888862 
L 182.636276 259.30373 
L 184.292676 259.084412 
L 185.949077 263.895654 
L 187.605478 262.465496 
L 189.261878 262.229264 
L 190.918279 260.683226 
L 192.57468 263.43181 
L 194.231081 264.074881 
L 195.887481 261.321662 
L 197.543882 259.748708 
L 199.200283 263.193301 
L 200.856684 262.92568 
L 202.513084 260.806262 
L 204.169485 260.57556 
L 205.825886 263.954366 
L 207.482287 261.935539 
L 209.138687 264.006735 
L 210.795088 262.270086 
L 212.451489 262.022632 
L 214.10789 262.621628 
L 215.76429 262.54779 
L 217.420691 261.448276 
L 219.077092 264.064797 
L 220.733493 263.014968 
L 222.389893 261.530896 
L 224.046294 263.88679 
L 225.702695 261.453561 
L 227.359096 260.576373 
L 229.015496 263.667066 
L 230.671897 258.956172 
L 232.328298 250.041085 
L 233.984699 262.664321 
L 235.641099 251.800503 
L 237.2975 264.429594 
L 238.953901 261.842104 
L 240.610301 263.844179 
L 242.266702 264.178888 
L 243.923103 262.092485 
L 245.579504 263.172483 
L 247.235904 263.016188 
L 248.892305 262.647975 
L 250.548706 257.790057 
L 252.205107 262.355064 
L 253.861507 261.950014 
L 255.517908 262.252765 
L 257.174309 263.61185 
L 260.48711 264.40772 
L 262.143511 260.611747 
L 263.799912 260.338352 
L 265.456313 263.443032 
L 268.769114 257.179839 
L 270.425515 260.756982 
L 272.081916 263.249004 
L 273.738316 264.03227 
L 275.394717 263.067663 
L 277.051118 263.191675 
L 278.707519 261.168213 
L 280.363919 261.659705 
L 282.02032 264.128389 
L 283.676721 263.472307 
L 285.333122 263.230626 
L 286.989522 264.074311 
L 288.645923 262.095331 
L 290.302324 263.604043 
L 291.958724 264.123022 
L 293.615125 262.71669 
L 295.271526 263.34122 
L 296.927927 264.089925 
L 298.584327 262.92877 
L 300.240728 264.499203 
L 301.897129 253.430625 
L 303.55353 262.941049 
L 305.20993 264.106839 
L 306.866331 258.940478 
L 308.522732 264.200437 
L 310.179133 262.70929 
L 311.835533 227.08293 
L 313.491934 253.228791 
L 315.148335 262.350348 
L 316.804736 263.221519 
L 318.461136 262.082727 
L 320.117537 263.432867 
L 321.773938 264.120501 
L 323.430339 262.657734 
L 325.086739 239.751786 
L 326.74314 262.149327 
L 328.399541 260.416906 
L 330.055942 260.694042 
L 331.712342 264.067887 
L 333.368743 263.255917 
L 335.025144 262.934462 
L 336.681545 262.800693 
L 338.337945 263.725046 
L 339.994346 262.417192 
L 341.650747 260.687373 
L 343.307147 262.275697 
L 344.963548 263.552487 
L 346.619949 263.8911 
L 348.27635 259.777495 
L 349.93275 256.698918 
L 351.589151 262.578448 
L 353.245552 263.862069 
L 354.901953 259.375697 
L 356.558353 264.201738 
L 358.214754 261.839502 
L 359.871155 263.437177 
L 361.527556 261.808763 
L 363.183956 261.981647 
L 364.840357 262.418249 
L 366.496758 261.102588 
L 368.153159 262.969348 
L 369.809559 263.139142 
L 373.122361 259.933952 
L 374.778762 264.060569 
L 378.091563 261.678896 
L 379.747964 263.983478 
L 381.404365 261.860645 
L 383.060765 262.059632 
L 384.717166 261.801526 
L 386.373567 261.938467 
L 388.029968 263.696341 
L 389.686368 261.228389 
L 391.342769 263.360249 
L 392.99917 264.19385 
L 394.655571 263.007324 
L 396.311971 262.895592 
L 397.968372 260.860258 
L 399.624773 262.397757 
L 399.624773 262.397757 
" style="fill:none;stroke:#ff7f0e;stroke-linecap:square;stroke-width:1.5;"/>
   </g>
   <g id="line2d_19">
    <path clip-path="url(#pfb7c824fd8)" d="M 74.970227 263.920212 
L 76.626628 264.103424 
L 78.283029 264.580279 
L 79.939429 263.203547 
L 81.59583 263.965019 
L 83.252231 263.496377 
L 84.908632 264.122778 
L 86.565032 264.060406 
L 88.221433 264.501399 
L 91.534235 263.096125 
L 93.190635 262.684162 
L 94.847036 256.882943 
L 96.503437 264.477491 
L 99.816238 264.017144 
L 101.472639 264.504164 
L 103.12904 262.780769 
L 104.785441 264.123347 
L 106.441841 263.961685 
L 108.098242 263.244288 
L 109.754643 264.363157 
L 111.411044 263.58534 
L 113.067444 264.546694 
L 114.723845 264.43797 
L 118.036647 261.721264 
L 119.693047 264.019502 
L 121.349448 263.479219 
L 123.005849 264.351121 
L 126.31865 264.51872 
L 127.975051 263.95217 
L 129.631452 264.571333 
L 131.287853 263.84117 
L 132.944253 263.677556 
L 134.600654 264.563933 
L 136.257055 264.438539 
L 137.913455 264.098138 
L 139.569856 264.349983 
L 141.226257 264.237031 
L 142.882658 264.480744 
L 144.539058 263.129628 
L 146.195459 264.223369 
L 147.85186 264.266468 
L 151.164661 263.83255 
L 152.821062 263.329592 
L 154.477463 263.603637 
L 156.133864 262.651066 
L 157.790264 264.154248 
L 159.446665 262.823381 
L 161.103066 264.298752 
L 162.759467 263.308449 
L 164.415867 262.829398 
L 166.072268 264.164413 
L 167.728669 264.522623 
L 169.38507 263.549966 
L 172.697871 264.631428 
L 174.354272 264.438377 
L 176.010673 264.561006 
L 177.667073 263.196472 
L 179.323474 263.238352 
L 180.979875 263.535654 
L 182.636276 263.173784 
L 185.949077 264.354293 
L 187.605478 264.164494 
L 189.261878 264.102692 
L 190.918279 263.866867 
L 192.57468 264.242073 
L 194.231081 264.239308 
L 195.887481 263.236481 
L 197.543882 261.617663 
L 199.200283 263.975102 
L 200.856684 264.189622 
L 202.513084 262.482003 
L 204.169485 263.805145 
L 205.825886 264.386739 
L 207.482287 260.451467 
L 209.138687 264.274519 
L 210.795088 263.762697 
L 212.451489 263.85662 
L 214.10789 264.612074 
L 215.76429 263.576395 
L 217.420691 262.790934 
L 219.077092 264.54092 
L 220.733493 264.461715 
L 222.389893 263.974858 
L 224.046294 264.613457 
L 225.702695 264.288668 
L 227.359096 263.573467 
L 229.015496 264.541815 
L 230.671897 263.42872 
L 232.328298 263.527685 
L 233.984699 264.073417 
L 235.641099 263.118569 
L 237.2975 264.584344 
L 238.953901 261.627665 
L 240.610301 263.993318 
L 242.266702 264.468058 
L 243.923103 263.681297 
L 245.579504 264.533683 
L 247.235904 264.6124 
L 248.892305 263.775789 
L 250.548706 263.708294 
L 252.205107 264.236136 
L 253.861507 260.713477 
L 255.517908 264.293141 
L 257.174309 264.663143 
L 258.83071 264.416827 
L 260.48711 264.385519 
L 262.143511 260.019581 
L 263.799912 261.840803 
L 265.456313 264.422194 
L 267.112713 263.583307 
L 268.769114 262.371003 
L 270.425515 264.261345 
L 272.081916 264.099602 
L 273.738316 264.235974 
L 280.363919 263.920212 
L 283.676721 263.441568 
L 285.333122 263.46328 
L 286.989522 264.400807 
L 288.645923 263.227292 
L 290.302324 264.524006 
L 291.958724 263.994375 
L 293.615125 262.886728 
L 295.271526 263.201677 
L 296.927927 264.140586 
L 298.584327 264.554094 
L 300.240728 264.290783 
L 301.897129 262.111026 
L 303.55353 264.167991 
L 305.20993 264.56621 
L 306.866331 263.508819 
L 308.522732 264.432278 
L 310.179133 264.386089 
L 311.835533 261.465353 
L 313.491934 264.288831 
L 315.148335 264.47741 
L 316.804736 263.945827 
L 318.461136 264.13587 
L 320.117537 264.586133 
L 321.773938 264.486599 
L 323.430339 261.334104 
L 325.086739 257.295068 
L 326.74314 264.252644 
L 328.399541 264.406093 
L 330.055942 263.552487 
L 331.712342 264.540676 
L 333.368743 264.485542 
L 335.025144 264.562714 
L 336.681545 263.628439 
L 338.337945 263.949568 
L 339.994346 263.565661 
L 341.650747 262.97008 
L 343.307147 264.094723 
L 344.963548 264.199624 
L 346.619949 264.565153 
L 348.27635 263.062215 
L 349.93275 264.5397 
L 351.589151 263.679345 
L 353.245552 263.859548 
L 354.901953 263.632993 
L 356.558353 263.82702 
L 358.214754 264.470091 
L 359.871155 264.501887 
L 361.527556 262.294726 
L 363.183956 264.302981 
L 364.840357 261.783717 
L 366.496758 264.111962 
L 368.153159 264.382429 
L 369.809559 264.316317 
L 371.46596 264.38861 
L 373.122361 261.806161 
L 374.778762 263.931434 
L 376.435162 264.276389 
L 378.091563 264.46017 
L 379.747964 263.883212 
L 381.404365 263.848488 
L 383.060765 263.486781 
L 384.717166 264.236543 
L 386.373567 262.797928 
L 388.029968 264.575725 
L 389.686368 264.202714 
L 391.342769 264.09952 
L 394.655571 264.630534 
L 396.311971 263.393427 
L 397.968372 263.904843 
L 399.624773 262.289846 
L 399.624773 262.289846 
" style="fill:none;stroke:#2ca02c;stroke-linecap:square;stroke-width:1.5;"/>
   </g>
   <g id="line2d_20">
    <path clip-path="url(#pfb7c824fd8)" d="M 74.970227 263.705286 
L 76.626628 263.793029 
L 79.939429 263.320972 
L 81.59583 263.810512 
L 84.908632 263.453685 
L 86.565032 262.951214 
L 88.221433 264.334126 
L 89.877834 263.93306 
L 91.534235 264.037881 
L 93.190635 262.151523 
L 94.847036 255.178822 
L 96.503437 263.707725 
L 98.159838 264.32697 
L 99.816238 264.564096 
L 103.12904 264.01934 
L 104.785441 264.279561 
L 106.441841 264.08781 
L 108.098242 261.845519 
L 109.754643 264.534008 
L 111.411044 263.17354 
L 113.067444 264.584344 
L 114.723845 264.598331 
L 116.380246 264.462773 
L 118.036647 262.94601 
L 119.693047 264.443256 
L 121.349448 264.028448 
L 123.005849 263.066443 
L 124.66225 263.707725 
L 126.31865 263.10694 
L 127.975051 263.57298 
L 129.631452 263.82515 
L 131.287853 264.600527 
L 132.944253 263.306497 
L 134.600654 264.635738 
L 136.257055 264.594265 
L 137.913455 263.372772 
L 139.569856 264.123672 
L 141.226257 261.703861 
L 142.882658 263.657795 
L 144.539058 264.211415 
L 146.195459 264.044142 
L 147.85186 264.168804 
L 149.508261 264.029423 
L 151.164661 263.54525 
L 152.821062 264.239633 
L 154.477463 263.57241 
L 156.133864 263.620714 
L 157.790264 264.362831 
L 159.446665 262.623336 
L 161.103066 264.228167 
L 162.759467 263.407658 
L 164.415867 264.04032 
L 166.072268 263.665277 
L 167.728669 264.398774 
L 169.38507 264.148962 
L 171.04147 264.48725 
L 172.697871 264.588573 
L 174.354272 264.057234 
L 176.010673 263.12727 
L 177.667073 263.524757 
L 179.323474 262.946904 
L 180.979875 262.57918 
L 182.636276 264.140749 
L 184.292676 263.410667 
L 185.949077 263.891344 
L 187.605478 263.774976 
L 189.261878 264.271754 
L 190.918279 263.62478 
L 192.57468 264.158477 
L 194.231081 264.105538 
L 195.887481 262.958533 
L 197.543882 263.552325 
L 199.200283 264.291271 
L 200.856684 264.56125 
L 202.513084 264.199868 
L 204.169485 264.09887 
L 205.825886 264.522054 
L 207.482287 263.747002 
L 209.138687 264.479199 
L 212.451489 264.069514 
L 214.10789 264.312576 
L 215.76429 264.03723 
L 217.420691 262.144123 
L 219.077092 264.590687 
L 220.733493 264.163681 
L 222.389893 263.931922 
L 224.046294 264.504245 
L 225.702695 264.419755 
L 227.359096 263.620389 
L 229.015496 264.656149 
L 230.671897 263.19322 
L 232.328298 264.063252 
L 233.984699 263.297552 
L 235.641099 264.188321 
L 237.2975 264.249961 
L 238.953901 263.193626 
L 240.610301 264.286148 
L 242.266702 264.581336 
L 243.923103 263.545168 
L 245.579504 264.311519 
L 247.235904 264.320708 
L 248.892305 263.520285 
L 250.548706 263.509713 
L 252.205107 264.196127 
L 253.861507 261.862108 
L 255.517908 264.162055 
L 257.174309 264.558078 
L 260.48711 264.487656 
L 262.143511 262.534291 
L 263.799912 263.256648 
L 265.456313 264.462691 
L 267.112713 262.921695 
L 268.769114 262.842165 
L 270.425515 264.293141 
L 272.081916 264.010069 
L 273.738316 264.427968 
L 275.394717 263.539801 
L 277.051118 263.278523 
L 278.707519 263.657145 
L 280.363919 262.220075 
L 282.02032 264.200356 
L 283.676721 264.048452 
L 285.333122 263.583958 
L 286.989522 264.294035 
L 290.302324 263.426605 
L 293.615125 263.730169 
L 295.271526 264.321765 
L 296.927927 263.597457 
L 298.584327 264.41024 
L 300.240728 264.572635 
L 301.897129 258.077113 
L 303.55353 264.307697 
L 305.20993 264.169211 
L 306.866331 263.145892 
L 308.522732 264.639072 
L 310.179133 264.159534 
L 311.835533 255.476124 
L 313.491934 263.741879 
L 315.148335 264.137578 
L 321.773938 264.582393 
L 323.430339 263.840844 
L 325.086739 262.194784 
L 326.74314 263.883537 
L 328.399541 264.029993 
L 330.055942 264.488307 
L 331.712342 264.490665 
L 333.368743 263.003746 
L 335.025144 264.604837 
L 336.681545 263.650639 
L 338.337945 263.73391 
L 339.994346 264.141156 
L 341.650747 263.415058 
L 343.307147 264.167747 
L 346.619949 264.573448 
L 348.27635 262.703028 
L 349.93275 260.331847 
L 351.589151 264.238495 
L 353.245552 264.477329 
L 354.901953 263.494019 
L 356.558353 264.446915 
L 358.214754 264.452201 
L 359.871155 263.773756 
L 361.527556 264.004946 
L 363.183956 263.43986 
L 364.840357 264.395847 
L 366.496758 263.013586 
L 368.153159 263.667066 
L 369.809559 261.701584 
L 371.46596 264.447241 
L 373.122361 261.582045 
L 374.778762 264.310787 
L 376.435162 264.016656 
L 378.091563 264.445045 
L 379.747964 262.839726 
L 381.404365 263.753183 
L 383.060765 263.891344 
L 384.717166 263.84239 
L 386.373567 262.926493 
L 388.029968 264.351284 
L 389.686368 263.819702 
L 391.342769 263.101085 
L 392.99917 264.546938 
L 394.655571 264.146279 
L 396.311971 264.228167 
L 397.968372 263.43986 
L 399.624773 264.138472 
L 399.624773 264.138472 
" style="fill:none;stroke:#d62728;stroke-linecap:square;stroke-width:1.5;"/>
   </g>
   <g id="line2d_21">
    <path clip-path="url(#pfb7c824fd8)" d="M 74.970227 264.400563 
L 76.626628 264.24744 
L 78.283029 263.237376 
L 79.939429 264.334532 
L 81.59583 264.350552 
L 83.252231 263.493937 
L 84.908632 263.829378 
L 86.565032 264.377794 
L 88.221433 264.537911 
L 89.877834 263.951601 
L 91.534235 263.571272 
L 93.190635 263.347238 
L 94.847036 262.790853 
L 96.503437 263.997058 
L 98.159838 262.985693 
L 99.816238 264.238169 
L 101.472639 264.585402 
L 104.785441 264.172707 
L 106.441841 264.090738 
L 108.098242 263.766682 
L 109.754643 264.299484 
L 111.411044 263.33382 
L 113.067444 264.585402 
L 114.723845 264.602641 
L 116.380246 263.993562 
L 118.036647 263.258031 
L 119.693047 264.32388 
L 123.005849 264.356489 
L 124.66225 263.428232 
L 126.31865 264.248985 
L 127.975051 264.311682 
L 129.631452 263.214851 
L 131.287853 264.531324 
L 132.944253 263.697804 
L 134.600654 264.60012 
L 137.913455 264.041784 
L 139.569856 264.239877 
L 141.226257 263.823361 
L 142.882658 264.482045 
L 144.539058 264.173602 
L 146.195459 264.355025 
L 147.85186 263.410423 
L 149.508261 264.374704 
L 151.164661 264.299972 
L 152.821062 264.076588 
L 154.477463 263.439535 
L 156.133864 263.449456 
L 157.790264 264.589468 
L 159.446665 262.284561 
L 161.103066 264.305501 
L 162.759467 264.129608 
L 164.415867 263.488001 
L 166.072268 264.179538 
L 167.728669 264.173927 
L 169.38507 263.55639 
L 171.04147 264.404873 
L 172.697871 264.62476 
L 174.354272 264.387227 
L 176.010673 264.32331 
L 177.667073 263.016757 
L 179.323474 264.079679 
L 184.292676 263.968027 
L 185.949077 264.531487 
L 187.605478 264.381616 
L 189.261878 263.931109 
L 190.918279 264.034465 
L 192.57468 264.363319 
L 194.231081 264.336077 
L 195.887481 263.383262 
L 197.543882 263.884675 
L 199.200283 263.544762 
L 200.856684 263.818482 
L 202.513084 263.560294 
L 204.169485 262.777435 
L 205.825886 264.585727 
L 207.482287 264.039913 
L 209.138687 264.140668 
L 210.795088 263.721631 
L 212.451489 264.545149 
L 214.10789 264.463504 
L 215.76429 264.501074 
L 217.420691 262.851192 
L 219.077092 264.592232 
L 220.733493 264.32884 
L 222.389893 263.026841 
L 224.046294 264.349332 
L 225.702695 264.144083 
L 227.359096 264.222068 
L 229.015496 264.547914 
L 230.671897 263.326583 
L 232.328298 264.078296 
L 233.984699 263.058637 
L 235.641099 264.378038 
L 237.2975 264.53165 
L 238.953901 262.630329 
L 242.266702 264.633949 
L 243.923103 264.179132 
L 247.235904 264.290783 
L 248.892305 263.214932 
L 250.548706 262.754829 
L 252.205107 264.432522 
L 253.861507 262.169901 
L 255.517908 264.174578 
L 257.174309 264.591501 
L 260.48711 264.641186 
L 262.143511 263.370576 
L 263.799912 263.417416 
L 265.456313 264.409346 
L 267.112713 263.449619 
L 270.425515 263.749442 
L 273.738316 264.340062 
L 275.394717 263.992911 
L 277.051118 263.111087 
L 278.707519 264.568325 
L 280.363919 263.588268 
L 282.02032 264.296963 
L 283.676721 264.347787 
L 285.333122 263.990634 
L 286.989522 264.435205 
L 288.645923 263.439128 
L 290.302324 264.283139 
L 291.958724 263.429207 
L 295.271526 263.909396 
L 296.927927 264.070733 
L 300.240728 264.61305 
L 301.897129 263.651859 
L 303.55353 264.254352 
L 305.20993 264.077971 
L 306.866331 264.159859 
L 308.522732 264.549621 
L 310.179133 264.234754 
L 311.835533 264.033408 
L 313.491934 262.997973 
L 315.148335 264.137496 
L 316.804736 263.925172 
L 320.117537 264.654035 
L 321.773938 264.390968 
L 323.430339 259.873939 
L 325.086739 260.856029 
L 326.74314 264.323554 
L 328.399541 264.403572 
L 330.055942 264.320383 
L 331.712342 264.419267 
L 333.368743 264.070164 
L 335.025144 264.463179 
L 336.681545 263.181347 
L 338.337945 264.113833 
L 339.994346 264.030887 
L 341.650747 264.215319 
L 343.307147 264.235079 
L 344.963548 264.507742 
L 346.619949 264.512377 
L 348.27635 260.981992 
L 349.93275 263.179558 
L 351.589151 263.976485 
L 353.245552 264.476109 
L 356.558353 264.380722 
L 358.214754 264.528966 
L 359.871155 264.221336 
L 361.527556 264.226053 
L 363.183956 263.9873 
L 364.840357 263.244207 
L 366.496758 262.815899 
L 368.153159 263.848001 
L 369.809559 263.512641 
L 371.46596 264.048777 
L 373.122361 264.008687 
L 374.778762 264.541001 
L 376.435162 264.434067 
L 378.091563 264.487087 
L 379.747964 264.32453 
L 381.404365 263.933223 
L 383.060765 264.443256 
L 384.717166 264.290214 
L 386.373567 263.767332 
L 388.029968 264.586865 
L 389.686368 263.795794 
L 391.342769 264.082118 
L 392.99917 264.558404 
L 394.655571 264.376168 
L 396.311971 264.02121 
L 399.624773 263.787255 
L 399.624773 263.787255 
" style="fill:none;stroke:#9467bd;stroke-linecap:square;stroke-width:1.5;"/>
   </g>
   <g id="line2d_22">
    <path clip-path="url(#pfb7c824fd8)" d="M 74.970227 263.968271 
L 76.626628 263.967133 
L 78.283029 264.453096 
L 79.939429 263.879308 
L 81.59583 264.426098 
L 83.252231 263.871908 
L 84.908632 264.069514 
L 86.565032 264.037962 
L 88.221433 264.547832 
L 89.877834 264.232721 
L 91.534235 264.133593 
L 93.190635 263.641938 
L 94.847036 262.172178 
L 96.503437 264.08407 
L 98.159838 264.22898 
L 99.816238 264.067887 
L 101.472639 264.44415 
L 103.12904 264.20247 
L 104.785441 264.379664 
L 106.441841 264.008931 
L 108.098242 264.139204 
L 109.754643 264.40406 
L 111.411044 264.216945 
L 113.067444 264.515549 
L 114.723845 264.526201 
L 116.380246 264.302086 
L 118.036647 263.951682 
L 119.693047 264.330466 
L 121.349448 264.050078 
L 123.005849 263.916309 
L 124.66225 264.009581 
L 126.31865 264.393733 
L 127.975051 263.961441 
L 129.631452 263.907282 
L 131.287853 264.521973 
L 132.944253 263.94721 
L 134.600654 264.591094 
L 136.257055 264.435856 
L 137.913455 264.109279 
L 139.569856 264.475296 
L 141.226257 263.926473 
L 142.882658 264.435612 
L 144.539058 264.16425 
L 146.195459 264.288506 
L 147.85186 264.0169 
L 149.508261 263.500524 
L 152.821062 264.311519 
L 154.477463 264.151483 
L 156.133864 262.985775 
L 157.790264 264.421544 
L 159.446665 263.546632 
L 161.103066 264.446915 
L 162.759467 264.267282 
L 164.415867 263.600628 
L 166.072268 264.57418 
L 167.728669 264.479524 
L 169.38507 264.051054 
L 171.04147 264.379177 
L 172.697871 264.41821 
L 174.354272 263.618356 
L 176.010673 264.454885 
L 177.667073 264.063252 
L 179.323474 264.11432 
L 180.979875 263.904599 
L 189.261878 264.29306 
L 190.918279 263.87199 
L 192.57468 264.318269 
L 194.231081 264.509694 
L 195.887481 263.800917 
L 199.200283 263.558586 
L 200.856684 263.976647 
L 202.513084 264.071465 
L 204.169485 263.498329 
L 205.825886 264.628663 
L 207.482287 262.626751 
L 209.138687 264.119525 
L 212.451489 264.353317 
L 214.10789 264.462691 
L 215.76429 264.394302 
L 217.420691 263.999498 
L 219.077092 264.621263 
L 220.733493 264.532382 
L 222.389893 263.963636 
L 224.046294 264.366816 
L 225.702695 263.854587 
L 227.359096 263.691217 
L 229.015496 264.301679 
L 230.671897 262.470781 
L 232.328298 263.652835 
L 233.984699 264.174334 
L 235.641099 264.232314 
L 237.2975 264.542628 
L 238.953901 263.959896 
L 240.610301 263.876869 
L 242.266702 264.620694 
L 245.579504 264.022918 
L 247.235904 264.006166 
L 248.892305 263.813033 
L 250.548706 263.829785 
L 252.205107 264.304119 
L 253.861507 263.084089 
L 255.517908 263.181266 
L 257.174309 264.600446 
L 260.48711 264.522298 
L 262.143511 263.457019 
L 265.456313 263.653811 
L 267.112713 264.208651 
L 268.769114 263.954203 
L 270.425515 264.24378 
L 272.081916 263.877357 
L 275.394717 263.9429 
L 277.051118 264.324367 
L 280.363919 263.547689 
L 282.02032 263.476779 
L 283.676721 264.257279 
L 285.333122 263.809537 
L 286.989522 264.354049 
L 288.645923 264.165063 
L 290.302324 264.2672 
L 291.958724 263.943876 
L 293.615125 264.122208 
L 295.271526 263.876787 
L 296.927927 264.020641 
L 298.584327 264.467896 
L 300.240728 264.601421 
L 301.897129 263.804495 
L 303.55353 264.554256 
L 305.20993 263.85784 
L 308.522732 264.486843 
L 310.179133 264.468953 
L 311.835533 263.03668 
L 313.491934 262.374743 
L 315.148335 263.983803 
L 316.804736 263.517764 
L 320.117537 264.62907 
L 321.773938 264.4361 
L 323.430339 263.500443 
L 325.086739 263.336016 
L 326.74314 264.527665 
L 328.399541 264.295825 
L 330.055942 264.458381 
L 331.712342 264.478548 
L 333.368743 263.768633 
L 335.025144 264.50945 
L 336.681545 264.004702 
L 341.650747 263.833119 
L 343.307147 264.45277 
L 344.963548 264.551166 
L 346.619949 264.518395 
L 348.27635 263.624861 
L 349.93275 263.846537 
L 351.589151 264.25793 
L 353.245552 264.371614 
L 354.901953 264.15742 
L 356.558353 264.261589 
L 358.214754 264.519371 
L 359.871155 263.876381 
L 361.527556 263.621527 
L 363.183956 264.25858 
L 364.840357 263.881911 
L 366.496758 262.902829 
L 368.153159 263.794899 
L 369.809559 263.435225 
L 371.46596 264.422113 
L 373.122361 263.538988 
L 374.778762 263.874673 
L 376.435162 264.028204 
L 378.091563 264.467326 
L 379.747964 264.273868 
L 381.404365 263.772618 
L 383.060765 264.344616 
L 384.717166 264.474645 
L 386.373567 264.158233 
L 388.029968 264.490584 
L 389.686368 263.467102 
L 391.342769 264.124567 
L 392.99917 264.498553 
L 394.655571 264.17531 
L 396.311971 264.023975 
L 397.968372 263.157927 
L 399.624773 263.684224 
L 399.624773 263.684224 
" style="fill:none;stroke:#8c564b;stroke-linecap:square;stroke-width:1.5;"/>
   </g>
   <g id="line2d_23">
    <path clip-path="url(#pfb7c824fd8)" d="M 74.970227 264.218084 
L 76.626628 264.497008 
L 78.283029 264.420731 
L 79.939429 263.911185 
L 81.59583 264.446509 
L 83.252231 263.937939 
L 84.908632 264.534008 
L 86.565032 264.068131 
L 88.221433 264.629964 
L 89.877834 264.561169 
L 93.190635 264.00145 
L 94.847036 264.037881 
L 98.159838 264.421625 
L 99.816238 264.232314 
L 101.472639 264.526933 
L 103.12904 264.144652 
L 104.785441 264.63769 
L 106.441841 264.497658 
L 116.380246 264.532382 
L 118.036647 264.032839 
L 119.693047 264.483184 
L 121.349448 264.454478 
L 123.005849 264.131804 
L 124.66225 264.474726 
L 127.975051 264.554826 
L 129.631452 264.310625 
L 131.287853 264.556127 
L 132.944253 264.311194 
L 134.600654 264.656068 
L 136.257055 264.620694 
L 137.913455 264.270046 
L 139.569856 264.549215 
L 141.226257 264.271429 
L 142.882658 264.522542 
L 144.539058 264.237925 
L 147.85186 264.613213 
L 149.508261 264.245895 
L 151.164661 264.488551 
L 152.821062 264.009744 
L 154.477463 264.507823 
L 157.790264 264.59516 
L 159.446665 264.252563 
L 161.103066 264.627362 
L 162.759467 264.423251 
L 164.415867 264.364539 
L 166.072268 264.523274 
L 167.728669 264.420487 
L 169.38507 263.585015 
L 171.04147 264.324937 
L 172.697871 264.59581 
L 177.667073 264.312332 
L 179.323474 264.464643 
L 180.979875 264.166934 
L 182.636276 264.34795 
L 189.261878 263.973964 
L 192.57468 264.432441 
L 194.231081 264.452608 
L 197.543882 264.022511 
L 199.200283 264.305664 
L 200.856684 264.440816 
L 202.513084 264.462773 
L 204.169485 263.946397 
L 205.825886 264.63647 
L 207.482287 264.09212 
L 209.138687 263.951601 
L 210.795088 264.397636 
L 212.451489 264.274926 
L 214.10789 264.490746 
L 215.76429 264.324367 
L 217.420691 264.356895 
L 219.077092 264.660134 
L 222.389893 264.424878 
L 224.046294 264.618905 
L 225.702695 263.84239 
L 227.359096 264.334288 
L 229.015496 264.585076 
L 230.671897 264.009094 
L 237.2975 264.628582 
L 238.953901 264.532951 
L 240.610301 264.211741 
L 242.266702 264.643789 
L 243.923103 264.192305 
L 247.235904 264.02674 
L 248.892305 264.35535 
L 252.205107 264.369093 
L 253.861507 264.444476 
L 255.517908 263.983885 
L 257.174309 264.637283 
L 267.112713 264.232884 
L 268.769114 264.511889 
L 272.081916 264.100415 
L 273.738316 264.484403 
L 278.707519 264.189459 
L 280.363919 264.492129 
L 282.02032 264.272079 
L 285.333122 264.381128 
L 286.989522 264.598738 
L 288.645923 264.500342 
L 291.958724 263.915251 
L 293.615125 264.41699 
L 295.271526 264.249879 
L 298.584327 264.513922 
L 300.240728 264.581905 
L 301.897129 263.701545 
L 303.55353 264.566129 
L 306.866331 264.249473 
L 308.522732 264.642325 
L 310.179133 264.547426 
L 311.835533 262.956012 
L 313.491934 261.854383 
L 315.148335 263.707888 
L 316.804736 264.160672 
L 320.117537 264.662085 
L 323.430339 264.346242 
L 325.086739 263.684387 
L 326.74314 264.511645 
L 328.399541 264.618824 
L 331.712342 264.611586 
L 333.368743 263.927937 
L 335.025144 264.640292 
L 336.681545 264.071384 
L 338.337945 264.169211 
L 339.994346 264.035848 
L 341.650747 264.184336 
L 343.307147 264.499935 
L 344.963548 264.615652 
L 346.619949 264.446915 
L 348.27635 263.860117 
L 349.93275 264.37015 
L 351.589151 264.419511 
L 354.901953 264.039507 
L 356.558353 264.482777 
L 358.214754 264.560518 
L 359.871155 264.445939 
L 361.527556 264.092283 
L 363.183956 264.096105 
L 366.496758 264.463179 
L 368.153159 264.147417 
L 369.809559 264.143189 
L 371.46596 264.515955 
L 373.122361 264.165714 
L 374.778762 264.401539 
L 379.747964 264.387227 
L 381.404365 264.188158 
L 383.060765 264.478386 
L 384.717166 264.524331 
L 386.373567 264.43366 
L 388.029968 264.589224 
L 391.342769 264.179701 
L 392.99917 264.581824 
L 394.655571 264.109929 
L 396.311971 264.020804 
L 397.968372 264.056665 
L 399.624773 264.421706 
L 399.624773 264.421706 
" style="fill:none;stroke:#e377c2;stroke-linecap:square;stroke-width:1.5;"/>
   </g>
   <g id="line2d_24">
    <path clip-path="url(#pfb7c824fd8)" d="M 74.970227 264.473263 
L 76.626628 264.441467 
L 78.283029 264.580685 
L 79.939429 264.492698 
L 81.59583 264.556696 
L 83.252231 264.450412 
L 84.908632 264.514166 
L 86.565032 264.43179 
L 88.221433 264.605813 
L 89.877834 264.609635 
L 91.534235 264.498065 
L 93.190635 264.527828 
L 94.847036 264.07976 
L 96.503437 264.471311 
L 99.816238 264.613701 
L 101.472639 264.653059 
L 103.12904 264.343559 
L 104.785441 264.636551 
L 108.098242 264.396579 
L 109.754643 264.588085 
L 113.067444 264.634356 
L 116.380246 264.583613 
L 118.036647 264.38617 
L 119.693047 264.623703 
L 121.349448 264.359091 
L 123.005849 264.588736 
L 124.66225 264.430489 
L 127.975051 264.563689 
L 129.631452 264.361693 
L 131.287853 264.633705 
L 132.944253 264.276958 
L 134.600654 264.655499 
L 136.257055 264.653547 
L 137.913455 264.474726 
L 139.569856 264.609391 
L 142.882658 264.56125 
L 146.195459 264.476678 
L 147.85186 264.651189 
L 149.508261 264.488876 
L 161.103066 264.623947 
L 162.759467 264.448623 
L 167.728669 264.642569 
L 169.38507 264.507986 
L 172.697871 264.638503 
L 174.354272 264.487656 
L 177.667073 264.52181 
L 179.323474 264.413493 
L 182.636276 264.492698 
L 184.292676 264.380559 
L 192.57468 264.490746 
L 194.231081 264.425772 
L 197.543882 264.615408 
L 199.200283 264.345023 
L 200.856684 264.568975 
L 202.513084 264.309486 
L 204.169485 264.317374 
L 205.825886 264.640373 
L 207.482287 264.424715 
L 210.795088 264.605894 
L 212.451489 264.245488 
L 214.10789 264.668998 
L 215.76429 264.333231 
L 217.420691 264.288099 
L 219.077092 264.672901 
L 220.733493 264.518395 
L 224.046294 264.624841 
L 225.702695 264.553199 
L 227.359096 264.35348 
L 229.015496 264.591745 
L 230.671897 264.315829 
L 232.328298 264.536692 
L 233.984699 264.202796 
L 235.641099 264.650213 
L 238.953901 264.532951 
L 240.610301 264.305583 
L 242.266702 264.65371 
L 243.923103 264.482614 
L 248.892305 264.428293 
L 250.548706 264.142701 
L 252.205107 264.352992 
L 253.861507 264.306965 
L 255.517908 264.416909 
L 257.174309 264.669404 
L 260.48711 264.618661 
L 263.799912 264.398205 
L 267.112713 264.486274 
L 268.769114 264.402596 
L 270.425515 264.448135 
L 272.081916 264.341363 
L 273.738316 264.503513 
L 275.394717 264.426911 
L 277.051118 264.565234 
L 278.707519 264.570358 
L 280.363919 264.435368 
L 282.02032 264.623215 
L 283.676721 264.602153 
L 285.333122 264.452445 
L 286.989522 264.611424 
L 290.302324 264.245976 
L 295.271526 264.500586 
L 296.927927 264.414713 
L 298.584327 264.642244 
L 300.240728 264.588817 
L 301.897129 264.056503 
L 303.55353 264.608659 
L 306.866331 264.428049 
L 308.522732 264.647285 
L 310.179133 264.603698 
L 311.835533 263.477023 
L 313.491934 263.922326 
L 315.148335 264.103342 
L 316.804736 264.492779 
L 318.461136 264.465781 
L 320.117537 264.659239 
L 321.773938 264.646635 
L 323.430339 264.271591 
L 326.74314 264.543441 
L 331.712342 264.640617 
L 333.368743 264.40959 
L 335.025144 264.656231 
L 336.681545 264.333475 
L 338.337945 264.565478 
L 339.994346 264.299484 
L 341.650747 264.500098 
L 343.307147 264.490909 
L 344.963548 264.615002 
L 348.27635 264.462041 
L 349.93275 263.653648 
L 351.589151 264.492942 
L 353.245552 264.398612 
L 354.901953 264.531894 
L 356.558353 264.500098 
L 358.214754 264.580035 
L 364.840357 264.398205 
L 366.496758 264.531731 
L 368.153159 264.270941 
L 369.809559 264.508962 
L 371.46596 264.628419 
L 373.122361 264.582555 
L 374.778762 264.308022 
L 378.091563 264.597193 
L 379.747964 264.427317 
L 388.029968 264.623459 
L 389.686368 264.43366 
L 392.99917 264.604512 
L 396.311971 264.585808 
L 397.968372 264.426016 
L 399.624773 264.487331 
L 399.624773 264.487331 
" style="fill:none;stroke:#7f7f7f;stroke-linecap:square;stroke-width:1.5;"/>
   </g>
   <g id="line2d_25">
    <path clip-path="url(#pfb7c824fd8)" d="M 74.970227 264.679488 
L 108.098242 264.674121 
L 336.681545 264.675422 
L 399.624773 264.673877 
L 399.624773 264.673877 
" style="fill:none;stroke:#bcbd22;stroke-linecap:square;stroke-width:1.5;"/>
   </g>
   <g id="line2d_26">
    <path clip-path="url(#pfb7c824fd8)" d="M 74.970227 264.679488 
L 108.098242 264.673795 
L 330.055942 264.674934 
L 399.624773 264.674527 
L 399.624773 264.674527 
" style="fill:none;stroke:#17becf;stroke-linecap:square;stroke-width:1.5;"/>
   </g>
   <g id="line2d_27">
    <path clip-path="url(#pfb7c824fd8)" d="M 74.970227 264.676642 
L 146.195459 264.665176 
L 159.446665 264.672657 
L 192.57468 264.67347 
L 260.48711 264.673877 
L 286.989522 264.677536 
L 399.624773 264.676479 
L 399.624773 264.676479 
" style="fill:none;stroke:#1f77b4;stroke-linecap:square;stroke-width:1.5;"/>
   </g>
   <g id="line2d_28">
    <path clip-path="url(#pfb7c824fd8)" d="M 74.970227 264.679488 
L 399.624773 264.679488 
L 399.624773 264.679488 
" style="fill:none;stroke:#ff7f0e;stroke-linecap:square;stroke-width:1.5;"/>
   </g>
   <g id="patch_3">
    <path d="M 58.7375 276.812 
L 58.7375 10.7 
" style="fill:none;stroke:#000000;stroke-linecap:square;stroke-linejoin:miter;stroke-width:0.8;"/>
   </g>
   <g id="patch_4">
    <path d="M 415.8575 276.812 
L 415.8575 10.7 
" style="fill:none;stroke:#000000;stroke-linecap:square;stroke-linejoin:miter;stroke-width:0.8;"/>
   </g>
   <g id="patch_5">
    <path d="M 58.7375 276.812 
L 415.8575 276.812 
" style="fill:none;stroke:#000000;stroke-linecap:square;stroke-linejoin:miter;stroke-width:0.8;"/>
   </g>
   <g id="patch_6">
    <path d="M 58.7375 10.7 
L 415.8575 10.7 
" style="fill:none;stroke:#000000;stroke-linecap:square;stroke-linejoin:miter;stroke-width:0.8;"/>
   </g>
   <g id="legend_1">
    <g id="patch_7">
     <path d="M 192.120937 165.48125 
L 282.474063 165.48125 
Q 284.474063 165.48125 284.474063 163.48125 
L 284.474063 17.7 
Q 284.474063 15.7 282.474063 15.7 
L 192.120937 15.7 
Q 190.120937 15.7 190.120937 17.7 
L 190.120937 163.48125 
Q 190.120937 165.48125 192.120937 165.48125 
z
" style="fill:#ffffff;opacity:0.8;stroke:#cccccc;stroke-linejoin:miter;"/>
    </g>
    <g id="line2d_29">
     <path d="M 194.120937 23.798437 
L 214.120937 23.798437 
" style="fill:none;stroke:#1f77b4;stroke-linecap:square;stroke-width:1.5;"/>
    </g>
    <g id="line2d_30"/>
    <g id="text_17">
     <!-- delta -->
     <defs>
      <path d="M 45.40625 46.390625 
L 45.40625 75.984375 
L 54.390625 75.984375 
L 54.390625 0 
L 45.40625 0 
L 45.40625 8.203125 
Q 42.578125 3.328125 38.25 0.953125 
Q 33.9375 -1.421875 27.875 -1.421875 
Q 17.96875 -1.421875 11.734375 6.484375 
Q 5.515625 14.40625 5.515625 27.296875 
Q 5.515625 40.1875 11.734375 48.09375 
Q 17.96875 56 27.875 56 
Q 33.9375 56 38.25 53.625 
Q 42.578125 51.265625 45.40625 46.390625 
M 14.796875 27.296875 
Q 14.796875 17.390625 18.875 11.75 
Q 22.953125 6.109375 30.078125 6.109375 
Q 37.203125 6.109375 41.296875 11.75 
Q 45.40625 17.390625 45.40625 27.296875 
Q 45.40625 37.203125 41.296875 42.84375 
Q 37.203125 48.484375 30.078125 48.484375 
Q 22.953125 48.484375 18.875 42.84375 
Q 14.796875 37.203125 14.796875 27.296875 
" id="DejaVuSans-64"/>
      <path d="M 56.203125 29.59375 
L 56.203125 25.203125 
L 14.890625 25.203125 
Q 15.484375 15.921875 20.484375 11.0625 
Q 25.484375 6.203125 34.421875 6.203125 
Q 39.59375 6.203125 44.453125 7.46875 
Q 49.3125 8.734375 54.109375 11.28125 
L 54.109375 2.78125 
Q 49.265625 0.734375 44.1875 -0.34375 
Q 39.109375 -1.421875 33.890625 -1.421875 
Q 20.796875 -1.421875 13.15625 6.1875 
Q 5.515625 13.8125 5.515625 26.8125 
Q 5.515625 40.234375 12.765625 48.109375 
Q 20.015625 56 32.328125 56 
Q 43.359375 56 49.78125 48.890625 
Q 56.203125 41.796875 56.203125 29.59375 
M 47.21875 32.234375 
Q 47.125 39.59375 43.09375 43.984375 
Q 39.0625 48.390625 32.421875 48.390625 
Q 24.90625 48.390625 20.390625 44.140625 
Q 15.875 39.890625 15.1875 32.171875 
z
" id="DejaVuSans-65"/>
      <path d="M 9.421875 75.984375 
L 18.40625 75.984375 
L 18.40625 0 
L 9.421875 0 
z
" id="DejaVuSans-6c"/>
      <path d="M 18.3125 70.21875 
L 18.3125 54.6875 
L 36.8125 54.6875 
L 36.8125 47.703125 
L 18.3125 47.703125 
L 18.3125 18.015625 
Q 18.3125 11.328125 20.140625 9.421875 
Q 21.96875 7.515625 27.59375 7.515625 
L 36.8125 7.515625 
L 36.8125 0 
L 27.59375 0 
Q 17.1875 0 13.234375 3.875 
Q 9.28125 7.765625 9.28125 18.015625 
L 9.28125 47.703125 
L 2.6875 47.703125 
L 2.6875 54.6875 
L 9.28125 54.6875 
L 9.28125 70.21875 
z
" id="DejaVuSans-74"/>
      <path d="M 34.28125 27.484375 
Q 23.390625 27.484375 19.1875 25 
Q 14.984375 22.515625 14.984375 16.5 
Q 14.984375 11.71875 18.140625 8.90625 
Q 21.296875 6.109375 26.703125 6.109375 
Q 34.1875 6.109375 38.703125 11.40625 
Q 43.21875 16.703125 43.21875 25.484375 
L 43.21875 27.484375 
z
M 52.203125 31.203125 
L 52.203125 0 
L 43.21875 0 
L 43.21875 8.296875 
Q 40.140625 3.328125 35.546875 0.953125 
Q 30.953125 -1.421875 24.3125 -1.421875 
Q 15.921875 -1.421875 10.953125 3.296875 
Q 6 8.015625 6 15.921875 
Q 6 25.140625 12.171875 29.828125 
Q 18.359375 34.515625 30.609375 34.515625 
L 43.21875 34.515625 
L 43.21875 35.40625 
Q 43.21875 41.609375 39.140625 45 
Q 35.0625 48.390625 27.6875 48.390625 
Q 23 48.390625 18.546875 47.265625 
Q 14.109375 46.140625 10.015625 43.890625 
L 10.015625 52.203125 
Q 14.9375 54.109375 19.578125 55.046875 
Q 24.21875 56 28.609375 56 
Q 40.484375 56 46.34375 49.84375 
Q 52.203125 43.703125 52.203125 31.203125 
" id="DejaVuSans-61"/>
     </defs>
     <g transform="translate(222.120937 27.298437)scale(0.1 -0.1)">
      <use xlink:href="#DejaVuSans-64"/>
      <use x="63.476562" xlink:href="#DejaVuSans-65"/>
      <use x="125" xlink:href="#DejaVuSans-6c"/>
      <use x="152.783203" xlink:href="#DejaVuSans-74"/>
      <use x="191.992188" xlink:href="#DejaVuSans-61"/>
     </g>
    </g>
    <g id="line2d_31">
     <path d="M 194.120937 38.476562 
L 214.120937 38.476562 
" style="fill:none;stroke:#ff7f0e;stroke-linecap:square;stroke-width:1.5;"/>
    </g>
    <g id="line2d_32"/>
    <g id="text_18">
     <!-- lowAlpha -->
     <defs>
      <path d="M 30.609375 48.390625 
Q 23.390625 48.390625 19.1875 42.75 
Q 14.984375 37.109375 14.984375 27.296875 
Q 14.984375 17.484375 19.15625 11.84375 
Q 23.34375 6.203125 30.609375 6.203125 
Q 37.796875 6.203125 41.984375 11.859375 
Q 46.1875 17.53125 46.1875 27.296875 
Q 46.1875 37.015625 41.984375 42.703125 
Q 37.796875 48.390625 30.609375 48.390625 
M 30.609375 56 
Q 42.328125 56 49.015625 48.375 
Q 55.71875 40.765625 55.71875 27.296875 
Q 55.71875 13.875 49.015625 6.21875 
Q 42.328125 -1.421875 30.609375 -1.421875 
Q 18.84375 -1.421875 12.171875 6.21875 
Q 5.515625 13.875 5.515625 27.296875 
Q 5.515625 40.765625 12.171875 48.375 
Q 18.84375 56 30.609375 56 
" id="DejaVuSans-6f"/>
      <path d="M 4.203125 54.6875 
L 13.1875 54.6875 
L 24.421875 12.015625 
L 35.59375 54.6875 
L 46.1875 54.6875 
L 57.421875 12.015625 
L 68.609375 54.6875 
L 77.59375 54.6875 
L 63.28125 0 
L 52.6875 0 
L 40.921875 44.828125 
L 29.109375 0 
L 18.5 0 
z
" id="DejaVuSans-77"/>
      <path d="M 34.1875 63.1875 
L 20.796875 26.90625 
L 47.609375 26.90625 
z
M 28.609375 72.90625 
L 39.796875 72.90625 
L 67.578125 0 
L 57.328125 0 
L 50.6875 18.703125 
L 17.828125 18.703125 
L 11.1875 0 
L 0.78125 0 
z
" id="DejaVuSans-41"/>
      <path d="M 18.109375 8.203125 
L 18.109375 -20.796875 
L 9.078125 -20.796875 
L 9.078125 54.6875 
L 18.109375 54.6875 
L 18.109375 46.390625 
Q 20.953125 51.265625 25.265625 53.625 
Q 29.59375 56 35.59375 56 
Q 45.5625 56 51.78125 48.09375 
Q 58.015625 40.1875 58.015625 27.296875 
Q 58.015625 14.40625 51.78125 6.484375 
Q 45.5625 -1.421875 35.59375 -1.421875 
Q 29.59375 -1.421875 25.265625 0.953125 
Q 20.953125 3.328125 18.109375 8.203125 
M 48.6875 27.296875 
Q 48.6875 37.203125 44.609375 42.84375 
Q 40.53125 48.484375 33.40625 48.484375 
Q 26.265625 48.484375 22.1875 42.84375 
Q 18.109375 37.203125 18.109375 27.296875 
Q 18.109375 17.390625 22.1875 11.75 
Q 26.265625 6.109375 33.40625 6.109375 
Q 40.53125 6.109375 44.609375 11.75 
Q 48.6875 17.390625 48.6875 27.296875 
" id="DejaVuSans-70"/>
      <path d="M 54.890625 33.015625 
L 54.890625 0 
L 45.90625 0 
L 45.90625 32.71875 
Q 45.90625 40.484375 42.875 44.328125 
Q 39.84375 48.1875 33.796875 48.1875 
Q 26.515625 48.1875 22.3125 43.546875 
Q 18.109375 38.921875 18.109375 30.90625 
L 18.109375 0 
L 9.078125 0 
L 9.078125 75.984375 
L 18.109375 75.984375 
L 18.109375 46.1875 
Q 21.34375 51.125 25.703125 53.5625 
Q 30.078125 56 35.796875 56 
Q 45.21875 56 50.046875 50.171875 
Q 54.890625 44.34375 54.890625 33.015625 
" id="DejaVuSans-68"/>
     </defs>
     <g transform="translate(222.120937 41.976562)scale(0.1 -0.1)">
      <use xlink:href="#DejaVuSans-6c"/>
      <use x="27.783203" xlink:href="#DejaVuSans-6f"/>
      <use x="88.964844" xlink:href="#DejaVuSans-77"/>
      <use x="170.751953" xlink:href="#DejaVuSans-41"/>
      <use x="239.160156" xlink:href="#DejaVuSans-6c"/>
      <use x="266.943359" xlink:href="#DejaVuSans-70"/>
      <use x="330.419922" xlink:href="#DejaVuSans-68"/>
      <use x="393.798828" xlink:href="#DejaVuSans-61"/>
     </g>
    </g>
    <g id="line2d_33">
     <path d="M 194.120937 53.154687 
L 214.120937 53.154687 
" style="fill:none;stroke:#2ca02c;stroke-linecap:square;stroke-width:1.5;"/>
    </g>
    <g id="line2d_34"/>
    <g id="text_19">
     <!-- highAlpha -->
     <defs>
      <path d="M 9.421875 54.6875 
L 18.40625 54.6875 
L 18.40625 0 
L 9.421875 0 
z
M 9.421875 75.984375 
L 18.40625 75.984375 
L 18.40625 64.59375 
L 9.421875 64.59375 
z
" id="DejaVuSans-69"/>
      <path d="M 45.40625 27.984375 
Q 45.40625 37.75 41.375 43.109375 
Q 37.359375 48.484375 30.078125 48.484375 
Q 22.859375 48.484375 18.828125 43.109375 
Q 14.796875 37.75 14.796875 27.984375 
Q 14.796875 18.265625 18.828125 12.890625 
Q 22.859375 7.515625 30.078125 7.515625 
Q 37.359375 7.515625 41.375 12.890625 
Q 45.40625 18.265625 45.40625 27.984375 
M 54.390625 6.78125 
Q 54.390625 -7.171875 48.1875 -13.984375 
Q 42 -20.796875 29.203125 -20.796875 
Q 24.46875 -20.796875 20.265625 -20.09375 
Q 16.0625 -19.390625 12.109375 -17.921875 
L 12.109375 -9.1875 
Q 16.0625 -11.328125 19.921875 -12.34375 
Q 23.78125 -13.375 27.78125 -13.375 
Q 36.625 -13.375 41.015625 -8.765625 
Q 45.40625 -4.15625 45.40625 5.171875 
L 45.40625 9.625 
Q 42.625 4.78125 38.28125 2.390625 
Q 33.9375 0 27.875 0 
Q 17.828125 0 11.671875 7.65625 
Q 5.515625 15.328125 5.515625 27.984375 
Q 5.515625 40.671875 11.671875 48.328125 
Q 17.828125 56 27.875 56 
Q 33.9375 56 38.28125 53.609375 
Q 42.625 51.21875 45.40625 46.390625 
L 45.40625 54.6875 
L 54.390625 54.6875 
z
" id="DejaVuSans-67"/>
     </defs>
     <g transform="translate(222.120937 56.654687)scale(0.1 -0.1)">
      <use xlink:href="#DejaVuSans-68"/>
      <use x="63.378906" xlink:href="#DejaVuSans-69"/>
      <use x="91.162109" xlink:href="#DejaVuSans-67"/>
      <use x="154.638672" xlink:href="#DejaVuSans-68"/>
      <use x="218.017578" xlink:href="#DejaVuSans-41"/>
      <use x="286.425781" xlink:href="#DejaVuSans-6c"/>
      <use x="314.208984" xlink:href="#DejaVuSans-70"/>
      <use x="377.685547" xlink:href="#DejaVuSans-68"/>
      <use x="441.064453" xlink:href="#DejaVuSans-61"/>
     </g>
    </g>
    <g id="line2d_35">
     <path d="M 194.120937 67.832812 
L 214.120937 67.832812 
" style="fill:none;stroke:#d62728;stroke-linecap:square;stroke-width:1.5;"/>
    </g>
    <g id="line2d_36"/>
    <g id="text_20">
     <!-- lowBeta -->
     <defs>
      <path d="M 19.671875 34.8125 
L 19.671875 8.109375 
L 35.5 8.109375 
Q 43.453125 8.109375 47.28125 11.40625 
Q 51.125 14.703125 51.125 21.484375 
Q 51.125 28.328125 47.28125 31.5625 
Q 43.453125 34.8125 35.5 34.8125 
z
M 19.671875 64.796875 
L 19.671875 42.828125 
L 34.28125 42.828125 
Q 41.5 42.828125 45.03125 45.53125 
Q 48.578125 48.25 48.578125 53.8125 
Q 48.578125 59.328125 45.03125 62.0625 
Q 41.5 64.796875 34.28125 64.796875 
z
M 9.8125 72.90625 
L 35.015625 72.90625 
Q 46.296875 72.90625 52.390625 68.21875 
Q 58.5 63.53125 58.5 54.890625 
Q 58.5 48.1875 55.375 44.234375 
Q 52.25 40.28125 46.1875 39.3125 
Q 53.46875 37.75 57.5 32.78125 
Q 61.53125 27.828125 61.53125 20.40625 
Q 61.53125 10.640625 54.890625 5.3125 
Q 48.25 0 35.984375 0 
L 9.8125 0 
z
" id="DejaVuSans-42"/>
     </defs>
     <g transform="translate(222.120937 71.332812)scale(0.1 -0.1)">
      <use xlink:href="#DejaVuSans-6c"/>
      <use x="27.783203" xlink:href="#DejaVuSans-6f"/>
      <use x="88.964844" xlink:href="#DejaVuSans-77"/>
      <use x="170.751953" xlink:href="#DejaVuSans-42"/>
      <use x="239.355469" xlink:href="#DejaVuSans-65"/>
      <use x="300.878906" xlink:href="#DejaVuSans-74"/>
      <use x="340.087891" xlink:href="#DejaVuSans-61"/>
     </g>
    </g>
    <g id="line2d_37">
     <path d="M 194.120937 82.510938 
L 214.120937 82.510938 
" style="fill:none;stroke:#9467bd;stroke-linecap:square;stroke-width:1.5;"/>
    </g>
    <g id="line2d_38"/>
    <g id="text_21">
     <!-- highBeta -->
     <g transform="translate(222.120937 86.010938)scale(0.1 -0.1)">
      <use xlink:href="#DejaVuSans-68"/>
      <use x="63.378906" xlink:href="#DejaVuSans-69"/>
      <use x="91.162109" xlink:href="#DejaVuSans-67"/>
      <use x="154.638672" xlink:href="#DejaVuSans-68"/>
      <use x="218.017578" xlink:href="#DejaVuSans-42"/>
      <use x="286.621094" xlink:href="#DejaVuSans-65"/>
      <use x="348.144531" xlink:href="#DejaVuSans-74"/>
      <use x="387.353516" xlink:href="#DejaVuSans-61"/>
     </g>
    </g>
    <g id="line2d_39">
     <path d="M 194.120937 97.189062 
L 214.120937 97.189062 
" style="fill:none;stroke:#8c564b;stroke-linecap:square;stroke-width:1.5;"/>
    </g>
    <g id="line2d_40"/>
    <g id="text_22">
     <!-- lowGamma -->
     <defs>
      <path d="M 59.515625 10.40625 
L 59.515625 29.984375 
L 43.40625 29.984375 
L 43.40625 38.09375 
L 69.28125 38.09375 
L 69.28125 6.78125 
Q 63.578125 2.734375 56.6875 0.65625 
Q 49.8125 -1.421875 42 -1.421875 
Q 24.90625 -1.421875 15.25 8.5625 
Q 5.609375 18.5625 5.609375 36.375 
Q 5.609375 54.25 15.25 64.234375 
Q 24.90625 74.21875 42 74.21875 
Q 49.125 74.21875 55.546875 72.453125 
Q 61.96875 70.703125 67.390625 67.28125 
L 67.390625 56.78125 
Q 61.921875 61.421875 55.765625 63.765625 
Q 49.609375 66.109375 42.828125 66.109375 
Q 29.4375 66.109375 22.71875 58.640625 
Q 16.015625 51.171875 16.015625 36.375 
Q 16.015625 21.625 22.71875 14.15625 
Q 29.4375 6.6875 42.828125 6.6875 
Q 48.046875 6.6875 52.140625 7.59375 
Q 56.25 8.5 59.515625 10.40625 
" id="DejaVuSans-47"/>
      <path d="M 52 44.1875 
Q 55.375 50.25 60.0625 53.125 
Q 64.75 56 71.09375 56 
Q 79.640625 56 84.28125 50.015625 
Q 88.921875 44.046875 88.921875 33.015625 
L 88.921875 0 
L 79.890625 0 
L 79.890625 32.71875 
Q 79.890625 40.578125 77.09375 44.375 
Q 74.3125 48.1875 68.609375 48.1875 
Q 61.625 48.1875 57.5625 43.546875 
Q 53.515625 38.921875 53.515625 30.90625 
L 53.515625 0 
L 44.484375 0 
L 44.484375 32.71875 
Q 44.484375 40.625 41.703125 44.40625 
Q 38.921875 48.1875 33.109375 48.1875 
Q 26.21875 48.1875 22.15625 43.53125 
Q 18.109375 38.875 18.109375 30.90625 
L 18.109375 0 
L 9.078125 0 
L 9.078125 54.6875 
L 18.109375 54.6875 
L 18.109375 46.1875 
Q 21.1875 51.21875 25.484375 53.609375 
Q 29.78125 56 35.6875 56 
Q 41.65625 56 45.828125 52.96875 
Q 50 49.953125 52 44.1875 
" id="DejaVuSans-6d"/>
     </defs>
     <g transform="translate(222.120937 100.689062)scale(0.1 -0.1)">
      <use xlink:href="#DejaVuSans-6c"/>
      <use x="27.783203" xlink:href="#DejaVuSans-6f"/>
      <use x="88.964844" xlink:href="#DejaVuSans-77"/>
      <use x="170.751953" xlink:href="#DejaVuSans-47"/>
      <use x="248.242188" xlink:href="#DejaVuSans-61"/>
      <use x="309.521484" xlink:href="#DejaVuSans-6d"/>
      <use x="406.933594" xlink:href="#DejaVuSans-6d"/>
      <use x="504.345703" xlink:href="#DejaVuSans-61"/>
     </g>
    </g>
    <g id="line2d_41">
     <path d="M 194.120937 111.867188 
L 214.120937 111.867188 
" style="fill:none;stroke:#e377c2;stroke-linecap:square;stroke-width:1.5;"/>
    </g>
    <g id="line2d_42"/>
    <g id="text_23">
     <!-- midGamma -->
     <g transform="translate(222.120937 115.367188)scale(0.1 -0.1)">
      <use xlink:href="#DejaVuSans-6d"/>
      <use x="97.412109" xlink:href="#DejaVuSans-69"/>
      <use x="125.195312" xlink:href="#DejaVuSans-64"/>
      <use x="188.671875" xlink:href="#DejaVuSans-47"/>
      <use x="266.162109" xlink:href="#DejaVuSans-61"/>
      <use x="327.441406" xlink:href="#DejaVuSans-6d"/>
      <use x="424.853516" xlink:href="#DejaVuSans-6d"/>
      <use x="522.265625" xlink:href="#DejaVuSans-61"/>
     </g>
    </g>
    <g id="line2d_43">
     <path d="M 194.120937 126.545312 
L 214.120937 126.545312 
" style="fill:none;stroke:#7f7f7f;stroke-linecap:square;stroke-width:1.5;"/>
    </g>
    <g id="line2d_44"/>
    <g id="text_24">
     <!-- attention -->
     <defs>
      <path d="M 54.890625 33.015625 
L 54.890625 0 
L 45.90625 0 
L 45.90625 32.71875 
Q 45.90625 40.484375 42.875 44.328125 
Q 39.84375 48.1875 33.796875 48.1875 
Q 26.515625 48.1875 22.3125 43.546875 
Q 18.109375 38.921875 18.109375 30.90625 
L 18.109375 0 
L 9.078125 0 
L 9.078125 54.6875 
L 18.109375 54.6875 
L 18.109375 46.1875 
Q 21.34375 51.125 25.703125 53.5625 
Q 30.078125 56 35.796875 56 
Q 45.21875 56 50.046875 50.171875 
Q 54.890625 44.34375 54.890625 33.015625 
" id="DejaVuSans-6e"/>
     </defs>
     <g transform="translate(222.120937 130.045312)scale(0.1 -0.1)">
      <use xlink:href="#DejaVuSans-61"/>
      <use x="61.279297" xlink:href="#DejaVuSans-74"/>
      <use x="100.488281" xlink:href="#DejaVuSans-74"/>
      <use x="139.697266" xlink:href="#DejaVuSans-65"/>
      <use x="201.220703" xlink:href="#DejaVuSans-6e"/>
      <use x="264.599609" xlink:href="#DejaVuSans-74"/>
      <use x="303.808594" xlink:href="#DejaVuSans-69"/>
      <use x="331.591797" xlink:href="#DejaVuSans-6f"/>
      <use x="392.773438" xlink:href="#DejaVuSans-6e"/>
     </g>
    </g>
    <g id="line2d_45">
     <path d="M 194.120937 141.223437 
L 214.120937 141.223437 
" style="fill:none;stroke:#bcbd22;stroke-linecap:square;stroke-width:1.5;"/>
    </g>
    <g id="line2d_46"/>
    <g id="text_25">
     <!-- meditation -->
     <g transform="translate(222.120937 144.723437)scale(0.1 -0.1)">
      <use xlink:href="#DejaVuSans-6d"/>
      <use x="97.412109" xlink:href="#DejaVuSans-65"/>
      <use x="158.935547" xlink:href="#DejaVuSans-64"/>
      <use x="222.412109" xlink:href="#DejaVuSans-69"/>
      <use x="250.195312" xlink:href="#DejaVuSans-74"/>
      <use x="289.404297" xlink:href="#DejaVuSans-61"/>
      <use x="350.683594" xlink:href="#DejaVuSans-74"/>
      <use x="389.892578" xlink:href="#DejaVuSans-69"/>
      <use x="417.675781" xlink:href="#DejaVuSans-6f"/>
      <use x="478.857422" xlink:href="#DejaVuSans-6e"/>
     </g>
    </g>
    <g id="line2d_47">
     <path d="M 194.120937 155.901562 
L 214.120937 155.901562 
" style="fill:none;stroke:#17becf;stroke-linecap:square;stroke-width:1.5;"/>
    </g>
    <g id="line2d_48"/>
    <g id="text_26">
     <!-- rawValue -->
     <defs>
      <path d="M 41.109375 46.296875 
Q 39.59375 47.171875 37.8125 47.578125 
Q 36.03125 48 33.890625 48 
Q 26.265625 48 22.1875 43.046875 
Q 18.109375 38.09375 18.109375 28.8125 
L 18.109375 0 
L 9.078125 0 
L 9.078125 54.6875 
L 18.109375 54.6875 
L 18.109375 46.1875 
Q 20.953125 51.171875 25.484375 53.578125 
Q 30.03125 56 36.53125 56 
Q 37.453125 56 38.578125 55.875 
Q 39.703125 55.765625 41.0625 55.515625 
z
" id="DejaVuSans-72"/>
      <path d="M 28.609375 0 
L 0.78125 72.90625 
L 11.078125 72.90625 
L 34.1875 11.53125 
L 57.328125 72.90625 
L 67.578125 72.90625 
L 39.796875 0 
z
" id="DejaVuSans-56"/>
      <path d="M 8.5 21.578125 
L 8.5 54.6875 
L 17.484375 54.6875 
L 17.484375 21.921875 
Q 17.484375 14.15625 20.5 10.265625 
Q 23.53125 6.390625 29.59375 6.390625 
Q 36.859375 6.390625 41.078125 11.03125 
Q 45.3125 15.671875 45.3125 23.6875 
L 45.3125 54.6875 
L 54.296875 54.6875 
L 54.296875 0 
L 45.3125 0 
L 45.3125 8.40625 
Q 42.046875 3.421875 37.71875 1 
Q 33.40625 -1.421875 27.6875 -1.421875 
Q 18.265625 -1.421875 13.375 4.4375 
Q 8.5 10.296875 8.5 21.578125 
M 31.109375 56 
z
" id="DejaVuSans-75"/>
     </defs>
     <g transform="translate(222.120937 159.401562)scale(0.1 -0.1)">
      <use xlink:href="#DejaVuSans-72"/>
      <use x="41.113281" xlink:href="#DejaVuSans-61"/>
      <use x="102.392578" xlink:href="#DejaVuSans-77"/>
      <use x="184.179688" xlink:href="#DejaVuSans-56"/>
      <use x="252.478516" xlink:href="#DejaVuSans-61"/>
      <use x="313.757812" xlink:href="#DejaVuSans-6c"/>
      <use x="341.541016" xlink:href="#DejaVuSans-75"/>
      <use x="404.919922" xlink:href="#DejaVuSans-65"/>
     </g>
    </g>
   </g>
  </g>
 </g>
 <defs>
  <clipPath id="pfb7c824fd8">
   <rect height="266.112" width="357.12" x="58.7375" y="10.7"/>
  </clipPath>
 </defs>
</svg>
