<?xml version="1.0" encoding="utf-8" standalone="no"?>
<!DOCTYPE svg PUBLIC "-//W3C//DTD SVG 1.1//EN"
  "http://www.w3.org/Graphics/SVG/1.1/DTD/svg11.dtd">
<!-- Created with matplotlib (http://matplotlib.org/) -->
<svg height="300pt" version="1.1" viewBox="0 0 426 300" width="426pt" xmlns="http://www.w3.org/2000/svg" xmlns:xlink="http://www.w3.org/1999/xlink">
 <defs>
  <style type="text/css">
*{stroke-linecap:butt;stroke-linejoin:round;}
  </style>
 </defs>
 <g id="figure_1">
  <g id="patch_1">
   <path d="M 0 300.690125 
L 426.5575 300.690125 
L 426.5575 0 
L 0 0 
z
" style="fill:#ffffff;"/>
  </g>
  <g id="axes_1">
   <g id="patch_2">
    <path d="M 58.7375 276.812 
L 415.8575 276.812 
L 415.8575 10.7 
L 58.7375 10.7 
z
" style="fill:#ffffff;"/>
   </g>
   <g id="matplotlib.axis_1">
    <g id="xtick_1">
     <g id="line2d_1">
      <defs>
       <path d="M 0 0 
L 0 3.5 
" id="mcafce7b573" style="stroke:#000000;stroke-width:0.8;"/>
      </defs>
      <g>
       <use style="stroke:#000000;stroke-width:0.8;" x="74.970227" xlink:href="#mcafce7b573" y="276.812"/>
      </g>
     </g>
     <g id="text_1">
      <!-- 0 -->
      <defs>
       <path d="M 31.78125 66.40625 
Q 24.171875 66.40625 20.328125 58.90625 
Q 16.5 51.421875 16.5 36.375 
Q 16.5 21.390625 20.328125 13.890625 
Q 24.171875 6.390625 31.78125 6.390625 
Q 39.453125 6.390625 43.28125 13.890625 
Q 47.125 21.390625 47.125 36.375 
Q 47.125 51.421875 43.28125 58.90625 
Q 39.453125 66.40625 31.78125 66.40625 
M 31.78125 74.21875 
Q 44.046875 74.21875 50.515625 64.515625 
Q 56.984375 54.828125 56.984375 36.375 
Q 56.984375 17.96875 50.515625 8.265625 
Q 44.046875 -1.421875 31.78125 -1.421875 
Q 19.53125 -1.421875 13.0625 8.265625 
Q 6.59375 17.96875 6.59375 36.375 
Q 6.59375 54.828125 13.0625 64.515625 
Q 19.53125 74.21875 31.78125 74.21875 
" id="DejaVuSans-30"/>
      </defs>
      <g transform="translate(71.788977 291.410437)scale(0.1 -0.1)">
       <use xlink:href="#DejaVuSans-30"/>
      </g>
     </g>
    </g>
    <g id="xtick_2">
     <g id="line2d_2">
      <g>
       <use style="stroke:#000000;stroke-width:0.8;" x="117.687931" xlink:href="#mcafce7b573" y="276.812"/>
      </g>
     </g>
     <g id="text_2">
      <!-- 20 -->
      <defs>
       <path d="M 19.1875 8.296875 
L 53.609375 8.296875 
L 53.609375 0 
L 7.328125 0 
L 7.328125 8.296875 
Q 12.9375 14.109375 22.625 23.890625 
Q 32.328125 33.6875 34.8125 36.53125 
Q 39.546875 41.84375 41.421875 45.53125 
Q 43.3125 49.21875 43.3125 52.78125 
Q 43.3125 58.59375 39.234375 62.25 
Q 35.15625 65.921875 28.609375 65.921875 
Q 23.96875 65.921875 18.8125 64.3125 
Q 13.671875 62.703125 7.8125 59.421875 
L 7.8125 69.390625 
Q 13.765625 71.78125 18.9375 73 
Q 24.125 74.21875 28.421875 74.21875 
Q 39.75 74.21875 46.484375 68.546875 
Q 53.21875 62.890625 53.21875 53.421875 
Q 53.21875 48.921875 51.53125 44.890625 
Q 49.859375 40.875 45.40625 35.40625 
Q 44.1875 33.984375 37.640625 27.21875 
Q 31.109375 20.453125 19.1875 8.296875 
" id="DejaVuSans-32"/>
      </defs>
      <g transform="translate(111.325431 291.410437)scale(0.1 -0.1)">
       <use xlink:href="#DejaVuSans-32"/>
       <use x="63.623047" xlink:href="#DejaVuSans-30"/>
      </g>
     </g>
    </g>
    <g id="xtick_3">
     <g id="line2d_3">
      <g>
       <use style="stroke:#000000;stroke-width:0.8;" x="160.405634" xlink:href="#mcafce7b573" y="276.812"/>
      </g>
     </g>
     <g id="text_3">
      <!-- 40 -->
      <defs>
       <path d="M 37.796875 64.3125 
L 12.890625 25.390625 
L 37.796875 25.390625 
z
M 35.203125 72.90625 
L 47.609375 72.90625 
L 47.609375 25.390625 
L 58.015625 25.390625 
L 58.015625 17.1875 
L 47.609375 17.1875 
L 47.609375 0 
L 37.796875 0 
L 37.796875 17.1875 
L 4.890625 17.1875 
L 4.890625 26.703125 
z
" id="DejaVuSans-34"/>
      </defs>
      <g transform="translate(154.043134 291.410437)scale(0.1 -0.1)">
       <use xlink:href="#DejaVuSans-34"/>
       <use x="63.623047" xlink:href="#DejaVuSans-30"/>
      </g>
     </g>
    </g>
    <g id="xtick_4">
     <g id="line2d_4">
      <g>
       <use style="stroke:#000000;stroke-width:0.8;" x="203.123337" xlink:href="#mcafce7b573" y="276.812"/>
      </g>
     </g>
     <g id="text_4">
      <!-- 60 -->
      <defs>
       <path d="M 33.015625 40.375 
Q 26.375 40.375 22.484375 35.828125 
Q 18.609375 31.296875 18.609375 23.390625 
Q 18.609375 15.53125 22.484375 10.953125 
Q 26.375 6.390625 33.015625 6.390625 
Q 39.65625 6.390625 43.53125 10.953125 
Q 47.40625 15.53125 47.40625 23.390625 
Q 47.40625 31.296875 43.53125 35.828125 
Q 39.65625 40.375 33.015625 40.375 
M 52.59375 71.296875 
L 52.59375 62.3125 
Q 48.875 64.0625 45.09375 64.984375 
Q 41.3125 65.921875 37.59375 65.921875 
Q 27.828125 65.921875 22.671875 59.328125 
Q 17.53125 52.734375 16.796875 39.40625 
Q 19.671875 43.65625 24.015625 45.921875 
Q 28.375 48.1875 33.59375 48.1875 
Q 44.578125 48.1875 50.953125 41.515625 
Q 57.328125 34.859375 57.328125 23.390625 
Q 57.328125 12.15625 50.6875 5.359375 
Q 44.046875 -1.421875 33.015625 -1.421875 
Q 20.359375 -1.421875 13.671875 8.265625 
Q 6.984375 17.96875 6.984375 36.375 
Q 6.984375 53.65625 15.1875 63.9375 
Q 23.390625 74.21875 37.203125 74.21875 
Q 40.921875 74.21875 44.703125 73.484375 
Q 48.484375 72.75 52.59375 71.296875 
" id="DejaVuSans-36"/>
      </defs>
      <g transform="translate(196.760837 291.410437)scale(0.1 -0.1)">
       <use xlink:href="#DejaVuSans-36"/>
       <use x="63.623047" xlink:href="#DejaVuSans-30"/>
      </g>
     </g>
    </g>
    <g id="xtick_5">
     <g id="line2d_5">
      <g>
       <use style="stroke:#000000;stroke-width:0.8;" x="245.841041" xlink:href="#mcafce7b573" y="276.812"/>
      </g>
     </g>
     <g id="text_5">
      <!-- 80 -->
      <defs>
       <path d="M 31.78125 34.625 
Q 24.75 34.625 20.71875 30.859375 
Q 16.703125 27.09375 16.703125 20.515625 
Q 16.703125 13.921875 20.71875 10.15625 
Q 24.75 6.390625 31.78125 6.390625 
Q 38.8125 6.390625 42.859375 10.171875 
Q 46.921875 13.96875 46.921875 20.515625 
Q 46.921875 27.09375 42.890625 30.859375 
Q 38.875 34.625 31.78125 34.625 
M 21.921875 38.8125 
Q 15.578125 40.375 12.03125 44.71875 
Q 8.5 49.078125 8.5 55.328125 
Q 8.5 64.0625 14.71875 69.140625 
Q 20.953125 74.21875 31.78125 74.21875 
Q 42.671875 74.21875 48.875 69.140625 
Q 55.078125 64.0625 55.078125 55.328125 
Q 55.078125 49.078125 51.53125 44.71875 
Q 48 40.375 41.703125 38.8125 
Q 48.828125 37.15625 52.796875 32.3125 
Q 56.78125 27.484375 56.78125 20.515625 
Q 56.78125 9.90625 50.3125 4.234375 
Q 43.84375 -1.421875 31.78125 -1.421875 
Q 19.734375 -1.421875 13.25 4.234375 
Q 6.78125 9.90625 6.78125 20.515625 
Q 6.78125 27.484375 10.78125 32.3125 
Q 14.796875 37.15625 21.921875 38.8125 
M 18.3125 54.390625 
Q 18.3125 48.734375 21.84375 45.5625 
Q 25.390625 42.390625 31.78125 42.390625 
Q 38.140625 42.390625 41.71875 45.5625 
Q 45.3125 48.734375 45.3125 54.390625 
Q 45.3125 60.0625 41.71875 63.234375 
Q 38.140625 66.40625 31.78125 66.40625 
Q 25.390625 66.40625 21.84375 63.234375 
Q 18.3125 60.0625 18.3125 54.390625 
" id="DejaVuSans-38"/>
      </defs>
      <g transform="translate(239.478541 291.410437)scale(0.1 -0.1)">
       <use xlink:href="#DejaVuSans-38"/>
       <use x="63.623047" xlink:href="#DejaVuSans-30"/>
      </g>
     </g>
    </g>
    <g id="xtick_6">
     <g id="line2d_6">
      <g>
       <use style="stroke:#000000;stroke-width:0.8;" x="288.558744" xlink:href="#mcafce7b573" y="276.812"/>
      </g>
     </g>
     <g id="text_6">
      <!-- 100 -->
      <defs>
       <path d="M 12.40625 8.296875 
L 28.515625 8.296875 
L 28.515625 63.921875 
L 10.984375 60.40625 
L 10.984375 69.390625 
L 28.421875 72.90625 
L 38.28125 72.90625 
L 38.28125 8.296875 
L 54.390625 8.296875 
L 54.390625 0 
L 12.40625 0 
z
" id="DejaVuSans-31"/>
      </defs>
      <g transform="translate(279.014994 291.410437)scale(0.1 -0.1)">
       <use xlink:href="#DejaVuSans-31"/>
       <use x="63.623047" xlink:href="#DejaVuSans-30"/>
       <use x="127.246094" xlink:href="#DejaVuSans-30"/>
      </g>
     </g>
    </g>
    <g id="xtick_7">
     <g id="line2d_7">
      <g>
       <use style="stroke:#000000;stroke-width:0.8;" x="331.276447" xlink:href="#mcafce7b573" y="276.812"/>
      </g>
     </g>
     <g id="text_7">
      <!-- 120 -->
      <g transform="translate(321.732697 291.410437)scale(0.1 -0.1)">
       <use xlink:href="#DejaVuSans-31"/>
       <use x="63.623047" xlink:href="#DejaVuSans-32"/>
       <use x="127.246094" xlink:href="#DejaVuSans-30"/>
      </g>
     </g>
    </g>
    <g id="xtick_8">
     <g id="line2d_8">
      <g>
       <use style="stroke:#000000;stroke-width:0.8;" x="373.994151" xlink:href="#mcafce7b573" y="276.812"/>
      </g>
     </g>
     <g id="text_8">
      <!-- 140 -->
      <g transform="translate(364.450401 291.410437)scale(0.1 -0.1)">
       <use xlink:href="#DejaVuSans-31"/>
       <use x="63.623047" xlink:href="#DejaVuSans-34"/>
       <use x="127.246094" xlink:href="#DejaVuSans-30"/>
      </g>
     </g>
    </g>
   </g>
   <g id="matplotlib.axis_2">
    <g id="ytick_1">
     <g id="line2d_9">
      <defs>
       <path d="M 0 0 
L -3.5 0 
" id="m09647fbb6e" style="stroke:#000000;stroke-width:0.8;"/>
      </defs>
      <g>
       <use style="stroke:#000000;stroke-width:0.8;" x="58.7375" xlink:href="#m09647fbb6e" y="264.668225"/>
      </g>
     </g>
     <g id="text_9">
      <!-- 0 -->
      <g transform="translate(45.375 268.467444)scale(0.1 -0.1)">
       <use xlink:href="#DejaVuSans-30"/>
      </g>
     </g>
    </g>
    <g id="ytick_2">
     <g id="line2d_10">
      <g>
       <use style="stroke:#000000;stroke-width:0.8;" x="58.7375" xlink:href="#m09647fbb6e" y="222.833646"/>
      </g>
     </g>
     <g id="text_10">
      <!-- 500000 -->
      <defs>
       <path d="M 10.796875 72.90625 
L 49.515625 72.90625 
L 49.515625 64.59375 
L 19.828125 64.59375 
L 19.828125 46.734375 
Q 21.96875 47.46875 24.109375 47.828125 
Q 26.265625 48.1875 28.421875 48.1875 
Q 40.625 48.1875 47.75 41.5 
Q 54.890625 34.8125 54.890625 23.390625 
Q 54.890625 11.625 47.5625 5.09375 
Q 40.234375 -1.421875 26.90625 -1.421875 
Q 22.3125 -1.421875 17.546875 -0.640625 
Q 12.796875 0.140625 7.71875 1.703125 
L 7.71875 11.625 
Q 12.109375 9.234375 16.796875 8.0625 
Q 21.484375 6.890625 26.703125 6.890625 
Q 35.15625 6.890625 40.078125 11.328125 
Q 45.015625 15.765625 45.015625 23.390625 
Q 45.015625 31 40.078125 35.4375 
Q 35.15625 39.890625 26.703125 39.890625 
Q 22.75 39.890625 18.8125 39.015625 
Q 14.890625 38.140625 10.796875 36.28125 
z
" id="DejaVuSans-35"/>
      </defs>
      <g transform="translate(13.5625 226.632865)scale(0.1 -0.1)">
       <use xlink:href="#DejaVuSans-35"/>
       <use x="63.623047" xlink:href="#DejaVuSans-30"/>
       <use x="127.246094" xlink:href="#DejaVuSans-30"/>
       <use x="190.869141" xlink:href="#DejaVuSans-30"/>
       <use x="254.492188" xlink:href="#DejaVuSans-30"/>
       <use x="318.115234" xlink:href="#DejaVuSans-30"/>
      </g>
     </g>
    </g>
    <g id="ytick_3">
     <g id="line2d_11">
      <g>
       <use style="stroke:#000000;stroke-width:0.8;" x="58.7375" xlink:href="#m09647fbb6e" y="180.999067"/>
      </g>
     </g>
     <g id="text_11">
      <!-- 1000000 -->
      <g transform="translate(7.2 184.798285)scale(0.1 -0.1)">
       <use xlink:href="#DejaVuSans-31"/>
       <use x="63.623047" xlink:href="#DejaVuSans-30"/>
       <use x="127.246094" xlink:href="#DejaVuSans-30"/>
       <use x="190.869141" xlink:href="#DejaVuSans-30"/>
       <use x="254.492188" xlink:href="#DejaVuSans-30"/>
       <use x="318.115234" xlink:href="#DejaVuSans-30"/>
       <use x="381.738281" xlink:href="#DejaVuSans-30"/>
      </g>
     </g>
    </g>
    <g id="ytick_4">
     <g id="line2d_12">
      <g>
       <use style="stroke:#000000;stroke-width:0.8;" x="58.7375" xlink:href="#m09647fbb6e" y="139.164488"/>
      </g>
     </g>
     <g id="text_12">
      <!-- 1500000 -->
      <g transform="translate(7.2 142.963706)scale(0.1 -0.1)">
       <use xlink:href="#DejaVuSans-31"/>
       <use x="63.623047" xlink:href="#DejaVuSans-35"/>
       <use x="127.246094" xlink:href="#DejaVuSans-30"/>
       <use x="190.869141" xlink:href="#DejaVuSans-30"/>
       <use x="254.492188" xlink:href="#DejaVuSans-30"/>
       <use x="318.115234" xlink:href="#DejaVuSans-30"/>
       <use x="381.738281" xlink:href="#DejaVuSans-30"/>
      </g>
     </g>
    </g>
    <g id="ytick_5">
     <g id="line2d_13">
      <g>
       <use style="stroke:#000000;stroke-width:0.8;" x="58.7375" xlink:href="#m09647fbb6e" y="97.329909"/>
      </g>
     </g>
     <g id="text_13">
      <!-- 2000000 -->
      <g transform="translate(7.2 101.129127)scale(0.1 -0.1)">
       <use xlink:href="#DejaVuSans-32"/>
       <use x="63.623047" xlink:href="#DejaVuSans-30"/>
       <use x="127.246094" xlink:href="#DejaVuSans-30"/>
       <use x="190.869141" xlink:href="#DejaVuSans-30"/>
       <use x="254.492188" xlink:href="#DejaVuSans-30"/>
       <use x="318.115234" xlink:href="#DejaVuSans-30"/>
       <use x="381.738281" xlink:href="#DejaVuSans-30"/>
      </g>
     </g>
    </g>
    <g id="ytick_6">
     <g id="line2d_14">
      <g>
       <use style="stroke:#000000;stroke-width:0.8;" x="58.7375" xlink:href="#m09647fbb6e" y="55.495329"/>
      </g>
     </g>
     <g id="text_14">
      <!-- 2500000 -->
      <g transform="translate(7.2 59.294548)scale(0.1 -0.1)">
       <use xlink:href="#DejaVuSans-32"/>
       <use x="63.623047" xlink:href="#DejaVuSans-35"/>
       <use x="127.246094" xlink:href="#DejaVuSans-30"/>
       <use x="190.869141" xlink:href="#DejaVuSans-30"/>
       <use x="254.492188" xlink:href="#DejaVuSans-30"/>
       <use x="318.115234" xlink:href="#DejaVuSans-30"/>
       <use x="381.738281" xlink:href="#DejaVuSans-30"/>
      </g>
     </g>
    </g>
    <g id="ytick_7">
     <g id="line2d_15">
      <g>
       <use style="stroke:#000000;stroke-width:0.8;" x="58.7375" xlink:href="#m09647fbb6e" y="13.66075"/>
      </g>
     </g>
     <g id="text_15">
      <!-- 3000000 -->
      <defs>
       <path d="M 40.578125 39.3125 
Q 47.65625 37.796875 51.625 33 
Q 55.609375 28.21875 55.609375 21.1875 
Q 55.609375 10.40625 48.1875 4.484375 
Q 40.765625 -1.421875 27.09375 -1.421875 
Q 22.515625 -1.421875 17.65625 -0.515625 
Q 12.796875 0.390625 7.625 2.203125 
L 7.625 11.71875 
Q 11.71875 9.328125 16.59375 8.109375 
Q 21.484375 6.890625 26.8125 6.890625 
Q 36.078125 6.890625 40.9375 10.546875 
Q 45.796875 14.203125 45.796875 21.1875 
Q 45.796875 27.640625 41.28125 31.265625 
Q 36.765625 34.90625 28.71875 34.90625 
L 20.21875 34.90625 
L 20.21875 43.015625 
L 29.109375 43.015625 
Q 36.375 43.015625 40.234375 45.921875 
Q 44.09375 48.828125 44.09375 54.296875 
Q 44.09375 59.90625 40.109375 62.90625 
Q 36.140625 65.921875 28.71875 65.921875 
Q 24.65625 65.921875 20.015625 65.03125 
Q 15.375 64.15625 9.8125 62.3125 
L 9.8125 71.09375 
Q 15.4375 72.65625 20.34375 73.4375 
Q 25.25 74.21875 29.59375 74.21875 
Q 40.828125 74.21875 47.359375 69.109375 
Q 53.90625 64.015625 53.90625 55.328125 
Q 53.90625 49.265625 50.4375 45.09375 
Q 46.96875 40.921875 40.578125 39.3125 
" id="DejaVuSans-33"/>
      </defs>
      <g transform="translate(7.2 17.459969)scale(0.1 -0.1)">
       <use xlink:href="#DejaVuSans-33"/>
       <use x="63.623047" xlink:href="#DejaVuSans-30"/>
       <use x="127.246094" xlink:href="#DejaVuSans-30"/>
       <use x="190.869141" xlink:href="#DejaVuSans-30"/>
       <use x="254.492188" xlink:href="#DejaVuSans-30"/>
       <use x="318.115234" xlink:href="#DejaVuSans-30"/>
       <use x="381.738281" xlink:href="#DejaVuSans-30"/>
      </g>
     </g>
    </g>
   </g>
   <g id="line2d_16">
    <path clip-path="url(#p551809d0a6)" d="M 74.970227 220.081767 
L 77.106112 213.488387 
L 79.241998 232.125775 
L 81.377883 210.579796 
L 83.513768 242.023669 
L 85.649653 166.776063 
L 87.785538 255.880621 
L 89.921423 262.78182 
L 92.057309 261.809501 
L 94.193194 261.663163 
L 96.329079 241.124728 
L 98.464964 260.260785 
L 100.600849 260.98059 
L 102.736734 152.21537 
L 104.87262 155.542809 
L 107.008505 215.610738 
L 109.14439 250.128952 
L 111.280275 238.146357 
L 113.41616 206.229669 
L 115.552045 228.504072 
L 117.687931 260.555216 
L 119.823816 247.617203 
L 121.959701 263.498446 
L 124.095586 260.279276 
L 126.231471 263.405155 
L 128.367356 253.152086 
L 130.503242 254.44787 
L 132.639127 249.698306 
L 134.775012 252.742107 
L 136.910897 263.306258 
L 139.046782 255.939524 
L 141.182667 260.950051 
L 143.318553 259.893477 
L 145.454438 261.929733 
L 147.590323 258.002387 
L 149.726208 118.155078 
L 151.862093 263.050733 
L 153.997978 246.074428 
L 156.133864 260.893658 
L 158.269749 261.173197 
L 160.405634 260.178873 
L 162.541519 103.774274 
L 164.677404 105.224512 
L 166.813289 262.243325 
L 168.949175 259.021644 
L 171.08506 261.22549 
L 173.220945 260.256183 
L 175.35683 117.861567 
L 177.492715 254.947626 
L 179.6286 263.390681 
L 181.764486 250.833613 
L 183.900371 199.174267 
L 186.036256 260.584668 
L 188.172141 261.811509 
L 190.308026 261.736876 
L 192.443911 261.035979 
L 194.579797 263.137832 
L 196.715682 240.08631 
L 198.851567 22.796 
L 200.987452 261.817282 
L 203.123337 263.363906 
L 205.259222 259.525918 
L 207.395108 262.205842 
L 209.530993 238.844074 
L 211.666878 261.06769 
L 213.802763 261.255276 
L 215.938648 254.475815 
L 218.074533 262.91226 
L 220.210419 259.794496 
L 222.346304 259.173755 
L 224.482189 212.671525 
L 226.618074 129.050309 
L 228.753959 260.252585 
L 230.889844 242.956748 
L 233.02573 261.971652 
L 235.161615 227.747703 
L 237.2975 261.996585 
L 239.433385 262.047038 
L 241.56927 262.683425 
L 243.705156 261.12676 
L 245.841041 243.418434 
L 247.976926 262.412002 
L 250.112811 238.329341 
L 252.248696 264.205785 
L 254.384581 264.052838 
L 256.520467 259.023903 
L 258.656352 226.522284 
L 260.792237 259.344273 
L 262.928122 263.244594 
L 265.064007 262.794789 
L 267.199892 258.828452 
L 269.335778 260.418334 
L 271.471663 246.787373 
L 273.607548 262.418361 
L 275.743433 259.067579 
L 277.879318 263.435778 
L 280.015203 261.993406 
L 282.151089 251.229452 
L 284.286974 246.207713 
L 286.422859 230.375751 
L 288.558744 259.355401 
L 290.694629 264.490093 
L 292.830514 260.968291 
L 294.9664 260.426533 
L 297.102285 257.26911 
L 299.23817 245.806603 
L 301.374055 247.88553 
L 305.645825 210.619873 
L 307.781711 182.770175 
L 309.917596 242.202136 
L 312.053481 192.195171 
L 314.189366 263.35487 
L 316.325251 264.458634 
L 318.461136 262.902889 
L 320.597022 215.675666 
L 322.732907 213.732031 
L 324.868792 261.080659 
L 327.004677 262.037332 
L 329.140562 261.869241 
L 331.276447 252.839749 
L 333.412333 187.004588 
L 335.548218 251.844755 
L 337.684103 263.138167 
L 339.819988 251.612824 
L 341.955873 263.674654 
L 344.091758 69.210545 
L 346.227644 261.873926 
L 348.363529 221.532925 
L 350.499414 260.17904 
L 352.635299 260.476651 
L 354.771184 250.692965 
L 356.907069 227.712227 
L 359.042955 249.51641 
L 361.17884 258.177757 
L 363.314725 255.721565 
L 365.45061 252.700607 
L 367.586495 260.6798 
L 369.72238 263.917211 
L 371.858266 229.696525 
L 373.994151 117.267516 
L 376.130036 263.614161 
L 378.265921 262.783242 
L 380.401806 261.286318 
L 382.537691 257.818398 
L 384.673577 262.279052 
L 386.809462 253.085987 
L 388.945347 247.541232 
L 391.081232 258.466249 
L 393.217117 256.992584 
L 395.353002 254.525933 
L 397.488888 262.674389 
L 399.624773 253.184633 
L 399.624773 253.184633 
" style="fill:none;stroke:#1f77b4;stroke-linecap:square;stroke-width:1.5;"/>
   </g>
   <g id="line2d_17">
    <path clip-path="url(#p551809d0a6)" d="M 74.970227 245.123779 
L 77.106112 232.560604 
L 79.241998 205.733176 
L 81.377883 260.455985 
L 83.513768 260.331318 
L 85.649653 197.129142 
L 87.785538 261.020501 
L 89.921423 253.770903 
L 92.057309 262.892849 
L 94.193194 262.554826 
L 96.329079 261.623588 
L 98.464964 262.472161 
L 100.600849 261.422531 
L 102.736734 260.031113 
L 104.87262 141.753044 
L 107.008505 249.395424 
L 109.14439 256.35879 
L 111.280275 244.769858 
L 113.41616 259.994466 
L 115.552045 263.966492 
L 117.687931 262.598417 
L 119.823816 263.60161 
L 121.959701 263.878723 
L 124.095586 263.462636 
L 126.231471 263.6073 
L 128.367356 262.50362 
L 130.503242 261.535735 
L 132.639127 261.951822 
L 134.775012 264.185956 
L 136.910897 263.570318 
L 139.046782 261.262723 
L 141.182667 263.918131 
L 143.318553 260.993392 
L 145.454438 257.17607 
L 147.590323 263.871611 
L 149.726208 253.981833 
L 151.862093 264.006653 
L 153.997978 263.0468 
L 156.133864 263.582785 
L 158.269749 263.052657 
L 160.405634 257.653403 
L 162.541519 253.92887 
L 164.677404 254.027767 
L 166.813289 263.66704 
L 168.949175 262.683341 
L 171.08506 261.858949 
L 173.220945 260.218615 
L 175.35683 258.847027 
L 179.6286 263.946411 
L 181.764486 263.500956 
L 183.900371 260.467698 
L 186.036256 263.93545 
L 188.172141 262.621761 
L 190.308026 262.848002 
L 192.443911 261.547867 
L 194.579797 263.966492 
L 196.715682 259.668825 
L 198.851567 252.343758 
L 200.987452 263.951013 
L 203.123337 263.973269 
L 205.259222 262.125603 
L 207.395108 262.282232 
L 209.530993 258.935382 
L 211.666878 260.183893 
L 213.802763 264.168134 
L 215.938648 261.154204 
L 218.074533 263.338973 
L 220.210419 262.706685 
L 222.346304 261.372246 
L 224.482189 258.644213 
L 226.618074 260.496146 
L 228.753959 262.700159 
L 230.889844 255.599994 
L 233.02573 261.859033 
L 235.161615 256.875196 
L 237.2975 263.2169 
L 239.433385 263.37721 
L 241.56927 260.143062 
L 243.705156 262.612474 
L 245.841041 258.145294 
L 247.976926 259.89582 
L 250.112811 251.583122 
L 252.248696 263.881902 
L 254.384581 263.295716 
L 256.520467 260.363781 
L 258.656352 256.308421 
L 260.792237 261.717046 
L 262.928122 262.817881 
L 265.064007 262.568966 
L 267.199892 258.704036 
L 269.335778 261.975417 
L 271.471663 262.145014 
L 273.607548 261.451564 
L 275.743433 263.916792 
L 277.879318 261.396761 
L 280.015203 262.519685 
L 282.151089 262.684848 
L 284.286974 263.268105 
L 286.422859 262.847249 
L 288.558744 258.675505 
L 290.694629 263.611985 
L 292.830514 262.313858 
L 294.9664 260.215603 
L 297.102285 262.658994 
L 299.23817 261.715457 
L 301.374055 262.111379 
L 303.50994 255.753778 
L 305.645825 248.975154 
L 307.781711 251.006976 
L 309.917596 262.392507 
L 312.053481 260.092693 
L 314.189366 258.782936 
L 316.325251 264.412616 
L 320.597022 262.802821 
L 322.732907 264.179681 
L 324.868792 263.462385 
L 327.004677 263.003794 
L 329.140562 264.187797 
L 331.276447 263.691722 
L 333.412333 258.132576 
L 335.548218 257.708122 
L 337.684103 260.329979 
L 339.819988 260.331987 
L 341.955873 262.069796 
L 344.091758 260.299607 
L 346.227644 261.216788 
L 348.363529 260.759369 
L 350.499414 262.261984 
L 352.635299 262.35243 
L 354.771184 260.909388 
L 356.907069 261.69387 
L 359.042955 260.075625 
L 361.17884 258.799084 
L 363.314725 253.064651 
L 365.45061 253.748814 
L 367.586495 261.50528 
L 369.72238 263.767108 
L 371.858266 261.411068 
L 373.994151 253.830141 
L 376.130036 264.490344 
L 378.265921 262.173545 
L 380.401806 264.451438 
L 382.537691 261.806656 
L 384.673577 264.218754 
L 386.809462 259.463167 
L 388.945347 259.400749 
L 391.081232 256.079753 
L 393.217117 264.162863 
L 395.353002 263.530492 
L 397.488888 262.636821 
L 399.624773 264.271968 
L 399.624773 264.271968 
" style="fill:none;stroke:#ff7f0e;stroke-linecap:square;stroke-width:1.5;"/>
   </g>
   <g id="line2d_18">
    <path clip-path="url(#p551809d0a6)" d="M 74.970227 257.487738 
L 77.106112 259.846204 
L 79.241998 262.146687 
L 81.377883 262.634144 
L 83.513768 262.679158 
L 85.649653 246.878991 
L 87.785538 262.24274 
L 89.921423 263.258818 
L 92.057309 263.430172 
L 94.193194 264.153743 
L 98.464964 264.29322 
L 100.600849 263.455273 
L 102.736734 261.330913 
L 104.87262 261.397263 
L 107.008505 262.365566 
L 109.14439 262.592226 
L 111.280275 263.147287 
L 113.41616 262.505461 
L 115.552045 263.661434 
L 119.823816 264.350449 
L 121.959701 264.4419 
L 124.095586 264.010251 
L 126.231471 264.478045 
L 128.367356 263.930932 
L 130.503242 262.39987 
L 132.639127 263.604121 
L 134.775012 264.53745 
L 136.910897 264.143619 
L 139.046782 264.367936 
L 141.182667 262.743834 
L 143.318553 264.189386 
L 145.454438 263.391601 
L 147.590323 263.70695 
L 149.726208 258.274479 
L 151.862093 263.436113 
L 153.997978 264.210638 
L 156.133864 263.709711 
L 158.269749 264.299411 
L 160.405634 261.424623 
L 162.541519 260.169753 
L 164.677404 258.370196 
L 166.813289 264.133914 
L 171.08506 264.102119 
L 175.35683 262.857039 
L 177.492715 264.562467 
L 181.764486 263.661601 
L 183.900371 262.865489 
L 186.036256 264.065807 
L 188.172141 261.917016 
L 190.308026 263.692894 
L 192.443911 264.145376 
L 194.579797 263.696993 
L 196.715682 264.005733 
L 198.851567 260.072362 
L 200.987452 264.526573 
L 205.259222 262.553822 
L 207.395108 263.641772 
L 209.530993 262.635566 
L 211.666878 263.237733 
L 213.802763 260.323955 
L 215.938648 261.04033 
L 218.074533 264.449012 
L 220.210419 264.367602 
L 222.346304 263.749621 
L 224.482189 263.379051 
L 226.618074 263.443225 
L 228.753959 264.448342 
L 230.889844 262.016247 
L 233.02573 261.601416 
L 235.161615 264.11216 
L 237.2975 263.610814 
L 239.433385 262.973171 
L 241.56927 264.46424 
L 243.705156 264.252055 
L 245.841041 263.833207 
L 247.976926 263.959714 
L 250.112811 260.712849 
L 252.248696 263.985485 
L 254.384581 263.940387 
L 258.656352 262.730113 
L 260.792237 264.557949 
L 262.928122 262.148696 
L 265.064007 262.630044 
L 267.199892 262.977606 
L 269.335778 264.333214 
L 271.471663 264.367518 
L 273.607548 262.845492 
L 275.743433 264.599114 
L 277.879318 263.843331 
L 282.151089 263.698499 
L 286.422859 263.614998 
L 288.558744 263.455691 
L 290.694629 264.499632 
L 292.830514 264.596771 
L 294.9664 264.49344 
L 301.374055 263.034166 
L 303.50994 262.695055 
L 305.645825 263.524133 
L 307.781711 260.042073 
L 309.917596 264.012593 
L 312.053481 263.919888 
L 314.189366 263.275384 
L 316.325251 264.332544 
L 318.461136 264.315225 
L 320.597022 264.611414 
L 322.732907 264.575938 
L 324.868792 264.254899 
L 327.004677 264.064301 
L 331.276447 264.245863 
L 333.412333 264.531091 
L 335.548218 263.300736 
L 337.684103 264.285271 
L 339.819988 263.818397 
L 341.955873 260.273335 
L 344.091758 262.998105 
L 346.227644 262.926066 
L 348.363529 263.428834 
L 350.499414 262.573819 
L 352.635299 264.3589 
L 354.771184 262.555913 
L 356.907069 262.408237 
L 359.042955 261.890744 
L 361.17884 264.047232 
L 363.314725 264.435039 
L 365.45061 262.990407 
L 369.72238 264.478965 
L 371.858266 263.94206 
L 373.994151 262.753373 
L 376.130036 264.595851 
L 378.265921 262.559009 
L 380.401806 264.1555 
L 382.537691 264.281339 
L 384.673577 262.214794 
L 386.809462 263.210039 
L 388.945347 262.547379 
L 391.081232 264.467503 
L 393.217117 264.282845 
L 395.353002 263.246602 
L 397.488888 264.220511 
L 399.624773 264.373291 
L 399.624773 264.373291 
" style="fill:none;stroke:#2ca02c;stroke-linecap:square;stroke-width:1.5;"/>
   </g>
   <g id="line2d_19">
    <path clip-path="url(#p551809d0a6)" d="M 74.970227 263.296887 
L 77.106112 263.689463 
L 79.241998 254.701304 
L 81.377883 263.105034 
L 83.513768 264.044471 
L 85.649653 263.174898 
L 87.785538 262.12418 
L 89.921423 264.002971 
L 92.057309 263.741422 
L 94.193194 261.919107 
L 96.329079 264.096012 
L 98.464964 263.800576 
L 100.600849 263.890018 
L 102.736734 255.970147 
L 104.87262 226.026294 
L 107.008505 263.108213 
L 109.14439 261.867651 
L 111.280275 262.767345 
L 113.41616 263.012161 
L 115.552045 263.525555 
L 117.687931 263.142852 
L 119.823816 264.092665 
L 121.959701 264.240425 
L 124.095586 263.983811 
L 126.231471 264.214152 
L 128.367356 262.184004 
L 130.503242 264.088063 
L 132.639127 264.140775 
L 134.775012 264.434788 
L 136.910897 264.152823 
L 139.046782 264.307946 
L 141.182667 263.97101 
L 143.318553 264.24419 
L 145.454438 263.334455 
L 147.590323 262.552567 
L 149.726208 251.518445 
L 151.862093 264.336058 
L 153.997978 264.004561 
L 156.133864 263.787942 
L 158.269749 264.070911 
L 160.405634 264.197921 
L 162.541519 260.483512 
L 164.677404 262.707355 
L 166.813289 264.349529 
L 168.949175 264.035686 
L 171.08506 262.814116 
L 175.35683 264.570248 
L 177.492715 264.178509 
L 179.6286 264.430856 
L 181.764486 264.420397 
L 183.900371 263.800827 
L 186.036256 264.210053 
L 188.172141 264.361075 
L 190.308026 263.605878 
L 192.443911 264.208881 
L 194.579797 263.393944 
L 196.715682 261.928562 
L 198.851567 253.826124 
L 200.987452 264.528832 
L 203.123337 264.507162 
L 205.259222 263.196233 
L 207.395108 263.536098 
L 209.530993 262.934851 
L 211.666878 261.084424 
L 213.802763 263.174563 
L 215.938648 263.873703 
L 218.074533 264.39789 
L 220.210419 264.268286 
L 222.346304 263.010823 
L 224.482189 259.594276 
L 226.618074 264.23942 
L 228.753959 264.599031 
L 230.889844 263.942144 
L 233.02573 263.680929 
L 235.161615 264.253226 
L 237.2975 264.202857 
L 239.433385 262.832607 
L 241.56927 264.548494 
L 243.705156 263.869352 
L 245.841041 264.39948 
L 247.976926 263.945072 
L 250.112811 261.854431 
L 252.248696 264.191143 
L 254.384581 262.147106 
L 256.520467 264.383666 
L 258.656352 262.683341 
L 260.792237 263.563206 
L 262.928122 263.874958 
L 265.064007 263.264675 
L 271.471663 264.417217 
L 273.607548 260.085163 
L 275.743433 263.838311 
L 277.879318 263.986823 
L 280.015203 263.175065 
L 284.286974 263.961974 
L 286.422859 262.882558 
L 288.558744 264.137511 
L 290.694629 264.47771 
L 292.830514 264.639777 
L 294.9664 263.695989 
L 297.102285 262.555746 
L 299.23817 264.330202 
L 301.374055 263.498781 
L 303.50994 264.063464 
L 305.645825 259.332224 
L 307.781711 259.047666 
L 309.917596 263.054749 
L 312.053481 264.159433 
L 314.189366 263.438205 
L 316.325251 264.467837 
L 318.461136 263.804341 
L 320.597022 263.77924 
L 322.732907 264.441565 
L 324.868792 264.538287 
L 327.004677 263.232881 
L 331.276447 264.150731 
L 333.412333 257.102274 
L 335.548218 262.297543 
L 337.684103 264.557865 
L 339.819988 261.765658 
L 341.955873 259.345109 
L 344.091758 264.177422 
L 346.227644 264.453279 
L 350.499414 263.31747 
L 352.635299 263.472927 
L 354.771184 263.346922 
L 356.907069 263.514929 
L 359.042955 262.497763 
L 361.17884 263.333032 
L 363.314725 260.090351 
L 365.45061 263.143689 
L 371.858266 264.14136 
L 373.994151 263.372608 
L 376.130036 264.57736 
L 378.265921 263.830446 
L 380.401806 263.946746 
L 382.537691 264.570165 
L 384.673577 262.877872 
L 386.809462 263.709795 
L 388.945347 263.482884 
L 391.081232 261.50871 
L 393.217117 264.576524 
L 395.353002 261.658729 
L 397.488888 264.04832 
L 399.624773 264.434453 
L 399.624773 264.434453 
" style="fill:none;stroke:#d62728;stroke-linecap:square;stroke-width:1.5;"/>
   </g>
   <g id="line2d_20">
    <path clip-path="url(#p551809d0a6)" d="M 74.970227 263.570486 
L 77.106112 263.469246 
L 79.241998 260.81367 
L 81.377883 262.394599 
L 83.513768 263.815636 
L 85.649653 257.744602 
L 87.785538 263.713978 
L 92.057309 264.271382 
L 94.193194 262.791358 
L 96.329079 264.225866 
L 98.464964 264.286694 
L 100.600849 263.808357 
L 102.736734 253.768225 
L 104.87262 227.721012 
L 107.008505 261.361954 
L 109.14439 264.099107 
L 111.280275 256.269096 
L 113.41616 264.124292 
L 115.552045 264.376471 
L 117.687931 260.711761 
L 119.823816 264.098856 
L 121.959701 264.351788 
L 124.095586 264.004645 
L 126.231471 264.416464 
L 130.503242 263.329769 
L 132.639127 264.41454 
L 136.910897 264.463152 
L 141.182667 264.04238 
L 145.454438 263.94524 
L 147.590323 263.990588 
L 149.726208 253.399077 
L 151.862093 264.171565 
L 153.997978 262.589799 
L 156.133864 264.242935 
L 158.269749 264.306188 
L 160.405634 262.207264 
L 162.541519 263.329184 
L 164.677404 263.208867 
L 166.813289 264.262262 
L 168.949175 263.323327 
L 171.08506 264.22026 
L 173.220945 263.953941 
L 175.35683 264.509923 
L 177.492715 263.602782 
L 179.6286 264.533769 
L 181.764486 264.496954 
L 183.900371 263.442723 
L 186.036256 264.579787 
L 188.172141 264.060117 
L 190.308026 263.940052 
L 192.443911 264.148556 
L 194.579797 263.379553 
L 196.715682 262.929663 
L 198.851567 262.169446 
L 200.987452 264.575519 
L 203.123337 264.438386 
L 205.259222 264.026817 
L 207.395108 264.369191 
L 209.530993 263.912943 
L 211.666878 263.054247 
L 215.938648 264.167465 
L 218.074533 264.52331 
L 220.210419 264.269458 
L 222.346304 263.598096 
L 224.482189 260.03789 
L 226.618074 264.139854 
L 228.753959 264.569663 
L 230.889844 262.210443 
L 233.02573 262.900379 
L 235.161615 262.809682 
L 237.2975 264.553263 
L 239.433385 264.519712 
L 241.56927 263.614328 
L 243.705156 263.549568 
L 245.841041 263.955782 
L 247.976926 263.472844 
L 250.112811 263.519949 
L 252.248696 264.54816 
L 254.384581 263.365412 
L 256.520467 264.31238 
L 258.656352 263.397876 
L 260.792237 263.242753 
L 262.928122 263.435109 
L 265.064007 263.999457 
L 267.199892 263.591403 
L 269.335778 264.482647 
L 271.471663 264.387097 
L 273.607548 263.137832 
L 275.743433 263.38315 
L 277.879318 264.214152 
L 280.015203 263.958376 
L 282.151089 260.493636 
L 284.286974 264.336979 
L 286.422859 263.829107 
L 290.694629 264.47018 
L 292.830514 264.602294 
L 294.9664 263.570904 
L 297.102285 263.944152 
L 299.23817 263.973771 
L 301.374055 264.196666 
L 305.645825 263.50422 
L 307.781711 256.84541 
L 309.917596 259.774751 
L 312.053481 264.315727 
L 314.189366 263.094994 
L 316.325251 264.48591 
L 318.461136 263.981301 
L 320.597022 263.907338 
L 322.732907 264.59878 
L 324.868792 263.983644 
L 327.004677 263.998453 
L 329.140562 264.219256 
L 331.276447 264.048738 
L 333.412333 261.131111 
L 335.548218 263.988162 
L 337.684103 264.395965 
L 339.819988 263.243841 
L 341.955873 261.196792 
L 344.091758 264.127053 
L 346.227644 263.992262 
L 348.363529 264.112411 
L 350.499414 263.986154 
L 352.635299 264.104629 
L 354.771184 260.492465 
L 356.907069 263.482131 
L 359.042955 264.028658 
L 361.17884 263.555509 
L 363.314725 263.697579 
L 365.45061 263.424818 
L 367.586495 264.082624 
L 371.858266 264.350533 
L 373.994151 263.47435 
L 376.130036 264.531091 
L 378.265921 264.165206 
L 380.401806 264.328277 
L 382.537691 264.191729 
L 384.673577 264.208547 
L 386.809462 263.841741 
L 391.081232 264.023972 
L 393.217117 264.493189 
L 395.353002 263.38474 
L 397.488888 264.273139 
L 399.624773 264.618693 
L 399.624773 264.618693 
" style="fill:none;stroke:#9467bd;stroke-linecap:square;stroke-width:1.5;"/>
   </g>
   <g id="line2d_21">
    <path clip-path="url(#p551809d0a6)" d="M 74.970227 262.549052 
L 77.106112 263.163937 
L 79.241998 259.9159 
L 81.377883 263.190209 
L 83.513768 264.20771 
L 85.649653 258.423912 
L 87.785538 262.760066 
L 89.921423 263.6114 
L 92.057309 263.619516 
L 94.193194 264.217666 
L 96.329079 264.158261 
L 98.464964 263.540197 
L 100.600849 263.887926 
L 102.736734 258.607482 
L 104.87262 253.751408 
L 107.008505 255.840292 
L 109.14439 263.083029 
L 111.280275 258.172068 
L 113.41616 263.337802 
L 115.552045 263.922231 
L 121.959701 264.269207 
L 124.095586 263.735732 
L 126.231471 264.163031 
L 128.367356 262.634479 
L 130.503242 264.010083 
L 132.639127 264.446585 
L 136.910897 264.338066 
L 139.046782 264.497372 
L 141.182667 263.468158 
L 143.318553 264.503229 
L 145.454438 263.705862 
L 147.590323 264.267199 
L 149.726208 262.021602 
L 151.862093 264.038029 
L 153.997978 263.237064 
L 156.133864 264.265274 
L 158.269749 264.063966 
L 160.405634 263.385911 
L 162.541519 263.218238 
L 164.677404 264.187127 
L 166.813289 264.525569 
L 168.949175 263.667793 
L 171.08506 264.080365 
L 173.220945 263.540783 
L 175.35683 264.22687 
L 177.492715 263.551576 
L 179.6286 264.549164 
L 181.764486 264.519043 
L 183.900371 263.395115 
L 186.036256 264.241931 
L 188.172141 263.498697 
L 190.308026 264.29163 
L 194.579797 263.894369 
L 196.715682 263.074411 
L 198.851567 263.163351 
L 200.987452 264.094589 
L 203.123337 264.38308 
L 205.259222 262.453168 
L 207.395108 263.791539 
L 211.666878 264.077939 
L 215.938648 263.76761 
L 218.074533 264.479551 
L 220.210419 264.495364 
L 224.482189 263.526727 
L 226.618074 264.344509 
L 228.753959 264.504568 
L 230.889844 262.978108 
L 233.02573 263.693061 
L 235.161615 263.915621 
L 237.2975 264.531175 
L 239.433385 264.291881 
L 241.56927 264.24009 
L 243.705156 263.646122 
L 245.841041 264.443908 
L 247.976926 264.256071 
L 250.112811 262.80667 
L 252.248696 264.387348 
L 254.384581 263.943483 
L 256.520467 264.242265 
L 258.656352 263.550238 
L 260.792237 264.147635 
L 262.928122 264.15617 
L 265.064007 264.047567 
L 267.199892 263.360978 
L 269.335778 264.126467 
L 271.471663 264.567487 
L 273.607548 264.250548 
L 277.879318 263.308768 
L 280.015203 264.003222 
L 282.151089 263.318809 
L 284.286974 264.035937 
L 288.558744 263.387417 
L 290.694629 264.336477 
L 292.830514 264.558953 
L 294.9664 263.161343 
L 297.102285 264.068819 
L 299.23817 264.428513 
L 301.374055 264.290375 
L 303.50994 263.681933 
L 305.645825 259.151415 
L 307.781711 257.629724 
L 309.917596 263.38633 
L 312.053481 264.477376 
L 314.189366 263.519029 
L 316.325251 264.403914 
L 318.461136 264.2467 
L 320.597022 264.46675 
L 324.868792 264.506576 
L 327.004677 264.215993 
L 329.140562 263.617759 
L 331.276447 264.461813 
L 333.412333 260.460754 
L 335.548218 263.396788 
L 337.684103 263.295549 
L 339.819988 263.813377 
L 341.955873 262.804411 
L 344.091758 263.995525 
L 346.227644 264.373542 
L 348.363529 262.994674 
L 352.635299 264.300917 
L 354.771184 263.869101 
L 356.907069 263.251204 
L 359.042955 263.42532 
L 361.17884 263.273209 
L 363.314725 263.896042 
L 365.45061 263.553584 
L 367.586495 264.302591 
L 369.72238 264.432696 
L 371.858266 264.301921 
L 373.994151 263.407498 
L 376.130036 264.468841 
L 378.265921 264.077604 
L 380.401806 264.497372 
L 382.537691 264.33154 
L 384.673577 262.614231 
L 386.809462 263.763343 
L 388.945347 264.14889 
L 391.081232 263.994019 
L 393.217117 264.471519 
L 395.353002 263.34734 
L 399.624773 264.633921 
L 399.624773 264.633921 
" style="fill:none;stroke:#8c564b;stroke-linecap:square;stroke-width:1.5;"/>
   </g>
   <g id="line2d_22">
    <path clip-path="url(#p551809d0a6)" d="M 74.970227 262.298547 
L 77.106112 264.119188 
L 79.241998 263.371186 
L 83.513768 264.143368 
L 85.649653 262.666775 
L 87.785538 263.966492 
L 89.921423 262.392089 
L 92.057309 264.146046 
L 94.193194 264.367853 
L 96.329079 264.453195 
L 98.464964 263.995609 
L 100.600849 264.43278 
L 104.87262 256.846832 
L 107.008505 263.839733 
L 109.14439 264.532179 
L 111.280275 263.154231 
L 113.41616 264.497038 
L 115.552045 264.544478 
L 117.687931 264.140607 
L 121.959701 264.51511 
L 124.095586 263.750625 
L 126.231471 264.370697 
L 128.367356 263.678251 
L 130.503242 263.582869 
L 132.639127 264.635343 
L 139.046782 264.485826 
L 141.182667 263.838813 
L 143.318553 264.366598 
L 145.454438 263.990839 
L 147.590323 264.486914 
L 149.726208 263.858391 
L 153.997978 264.136842 
L 156.133864 264.383415 
L 158.269749 264.196666 
L 160.405634 264.495783 
L 162.541519 264.283598 
L 166.813289 264.570499 
L 168.949175 264.160186 
L 171.08506 263.985736 
L 173.220945 264.330118 
L 175.35683 264.498293 
L 177.492715 264.193235 
L 179.6286 264.459303 
L 186.036256 264.420983 
L 190.308026 264.018701 
L 192.443911 264.001131 
L 194.579797 264.36459 
L 196.715682 263.799655 
L 198.851567 264.377893 
L 200.987452 264.563889 
L 203.123337 264.622207 
L 205.259222 264.354298 
L 207.395108 263.94616 
L 213.802763 264.434537 
L 215.938648 264.341413 
L 220.210419 264.441398 
L 222.346304 264.191645 
L 224.482189 263.390346 
L 226.618074 264.509839 
L 228.753959 264.491516 
L 230.889844 263.858475 
L 233.02573 264.500385 
L 235.161615 264.153911 
L 237.2975 264.438218 
L 239.433385 264.215073 
L 241.56927 264.537115 
L 243.705156 264.332795 
L 245.841041 264.563638 
L 247.976926 264.487583 
L 250.112811 264.283932 
L 252.248696 264.567822 
L 254.384581 264.304348 
L 256.520467 264.328277 
L 258.656352 264.093669 
L 262.928122 264.057691 
L 267.199892 264.036188 
L 271.471663 264.450518 
L 275.743433 264.25331 
L 277.879318 264.45763 
L 280.015203 264.272721 
L 284.286974 264.508835 
L 288.558744 264.153158 
L 290.694629 264.622374 
L 292.830514 264.607732 
L 297.102285 264.244441 
L 299.23817 264.494611 
L 301.374055 264.458048 
L 303.50994 263.526141 
L 305.645825 263.934865 
L 307.781711 263.794384 
L 309.917596 264.48022 
L 312.053481 264.495866 
L 314.189366 264.16872 
L 316.325251 264.575519 
L 318.461136 263.95277 
L 320.597022 264.482312 
L 322.732907 264.63367 
L 324.868792 264.425082 
L 329.140562 264.322839 
L 331.276447 264.508919 
L 335.548218 263.888596 
L 337.684103 264.24854 
L 341.955873 263.200082 
L 344.091758 264.554519 
L 346.227644 264.444494 
L 348.363529 263.48941 
L 350.499414 264.140189 
L 352.635299 263.821828 
L 354.771184 262.763329 
L 356.907069 264.116678 
L 361.17884 264.082624 
L 363.314725 264.301419 
L 365.45061 264.208296 
L 367.586495 263.684192 
L 369.72238 264.59058 
L 373.994151 264.319827 
L 376.130036 264.629988 
L 378.265921 264.25582 
L 380.401806 264.457379 
L 382.537691 264.428513 
L 384.673577 263.69875 
L 386.809462 263.584877 
L 388.945347 264.314388 
L 391.081232 263.927084 
L 393.217117 264.638773 
L 395.353002 264.140775 
L 399.624773 264.643543 
L 399.624773 264.643543 
" style="fill:none;stroke:#e377c2;stroke-linecap:square;stroke-width:1.5;"/>
   </g>
   <g id="line2d_23">
    <path clip-path="url(#p551809d0a6)" d="M 74.970227 263.983142 
L 77.106112 264.215742 
L 79.241998 264.138515 
L 81.377883 264.424999 
L 83.513768 264.498711 
L 85.649653 263.766941 
L 87.785538 264.475284 
L 89.921423 264.516031 
L 92.057309 264.237161 
L 94.193194 264.601373 
L 96.329079 264.519461 
L 98.464964 264.279331 
L 100.600849 264.254648 
L 102.736734 263.749287 
L 104.87262 262.756217 
L 107.008505 264.100195 
L 109.14439 264.403496 
L 111.280275 264.231723 
L 113.41616 264.548745 
L 115.552045 264.596102 
L 117.687931 264.50599 
L 121.959701 264.607648 
L 124.095586 264.356557 
L 126.231471 264.560292 
L 128.367356 264.156839 
L 130.503242 264.296734 
L 132.639127 264.650487 
L 136.910897 264.625637 
L 139.046782 264.616015 
L 141.182667 264.493942 
L 143.318553 264.496034 
L 145.454438 264.34384 
L 147.590323 264.61225 
L 149.726208 264.315476 
L 151.862093 264.40132 
L 153.997978 264.285606 
L 156.133864 264.331791 
L 158.269749 264.559622 
L 164.677404 264.484153 
L 166.813289 264.61727 
L 171.08506 264.361745 
L 173.220945 264.11651 
L 175.35683 264.634004 
L 177.492715 264.124459 
L 179.6286 264.624048 
L 190.308026 264.458801 
L 192.443911 264.501891 
L 196.715682 264.081369 
L 198.851567 264.075094 
L 200.987452 264.443239 
L 203.123337 264.611163 
L 205.259222 264.334552 
L 207.395108 264.456458 
L 213.802763 264.501472 
L 218.074533 264.633084 
L 222.346304 264.505907 
L 224.482189 264.371869 
L 226.618074 264.602377 
L 228.753959 264.591249 
L 233.02573 264.406842 
L 241.56927 264.597357 
L 243.705156 264.463821 
L 245.841041 264.577109 
L 247.976926 264.389858 
L 254.384581 264.599365 
L 256.520467 264.325934 
L 258.656352 264.548076 
L 269.335778 264.436629 
L 271.471663 264.620533 
L 273.607548 264.489759 
L 275.743433 264.527326 
L 277.879318 264.285522 
L 280.015203 264.600118 
L 282.151089 264.363083 
L 284.286974 264.421736 
L 286.422859 264.335389 
L 288.558744 264.378311 
L 292.830514 264.645383 
L 294.9664 264.220511 
L 299.23817 264.628064 
L 303.50994 264.508919 
L 305.645825 264.046396 
L 307.781711 263.308099 
L 309.917596 264.607899 
L 312.053481 264.592839 
L 314.189366 264.269123 
L 316.325251 264.634423 
L 318.461136 264.55067 
L 322.732907 264.660862 
L 327.004677 264.455705 
L 329.140562 264.150647 
L 331.276447 264.48842 
L 333.412333 264.473945 
L 335.548218 263.830613 
L 337.684103 264.074592 
L 339.819988 264.2011 
L 341.955873 264.522724 
L 344.091758 264.575603 
L 346.227644 264.510676 
L 348.363529 264.111909 
L 350.499414 264.393539 
L 354.771184 264.169557 
L 356.907069 264.109733 
L 359.042955 263.776228 
L 361.17884 264.469176 
L 363.314725 264.355219 
L 365.45061 264.008996 
L 367.586495 264.493691 
L 369.72238 264.610326 
L 371.858266 264.610912 
L 373.994151 264.450267 
L 376.130036 264.618525 
L 378.265921 264.478129 
L 380.401806 264.617354 
L 386.809462 264.277657 
L 388.945347 264.421819 
L 391.081232 264.350282 
L 393.217117 264.64873 
L 395.353002 264.298073 
L 397.488888 264.141695 
L 399.624773 264.653499 
L 399.624773 264.653499 
" style="fill:none;stroke:#7f7f7f;stroke-linecap:square;stroke-width:1.5;"/>
   </g>
   <g id="line2d_24">
    <path clip-path="url(#p551809d0a6)" d="M 74.970227 264.668225 
L 213.802763 264.664209 
L 399.624773 264.663539 
L 399.624773 264.663539 
" style="fill:none;stroke:#bcbd22;stroke-linecap:square;stroke-width:1.5;"/>
   </g>
   <g id="line2d_25">
    <path clip-path="url(#p551809d0a6)" d="M 74.970227 264.668225 
L 126.231471 264.66379 
L 399.624773 264.662954 
L 399.624773 264.662954 
" style="fill:none;stroke:#17becf;stroke-linecap:square;stroke-width:1.5;"/>
   </g>
   <g id="line2d_26">
    <path clip-path="url(#p551809d0a6)" d="M 74.970227 264.662201 
L 94.193194 264.638522 
L 104.87262 264.666384 
L 121.959701 264.660527 
L 162.541519 264.716 
L 168.949175 264.662703 
L 307.781711 264.665547 
L 312.053481 264.656679 
L 335.548218 264.665547 
L 384.673577 264.658854 
L 399.624773 264.668476 
L 399.624773 264.668476 
" style="fill:none;stroke:#1f77b4;stroke-linecap:square;stroke-width:1.5;"/>
   </g>
   <g id="line2d_27">
    <path clip-path="url(#p551809d0a6)" d="M 74.970227 264.668225 
L 399.624773 264.668225 
L 399.624773 264.668225 
" style="fill:none;stroke:#ff7f0e;stroke-linecap:square;stroke-width:1.5;"/>
   </g>
   <g id="patch_3">
    <path d="M 58.7375 276.812 
L 58.7375 10.7 
" style="fill:none;stroke:#000000;stroke-linecap:square;stroke-linejoin:miter;stroke-width:0.8;"/>
   </g>
   <g id="patch_4">
    <path d="M 415.8575 276.812 
L 415.8575 10.7 
" style="fill:none;stroke:#000000;stroke-linecap:square;stroke-linejoin:miter;stroke-width:0.8;"/>
   </g>
   <g id="patch_5">
    <path d="M 58.7375 276.812 
L 415.8575 276.812 
" style="fill:none;stroke:#000000;stroke-linecap:square;stroke-linejoin:miter;stroke-width:0.8;"/>
   </g>
   <g id="patch_6">
    <path d="M 58.7375 10.7 
L 415.8575 10.7 
" style="fill:none;stroke:#000000;stroke-linecap:square;stroke-linejoin:miter;stroke-width:0.8;"/>
   </g>
   <g id="legend_1">
    <g id="patch_7">
     <path d="M 318.504375 165.48125 
L 408.8575 165.48125 
Q 410.8575 165.48125 410.8575 163.48125 
L 410.8575 17.7 
Q 410.8575 15.7 408.8575 15.7 
L 318.504375 15.7 
Q 316.504375 15.7 316.504375 17.7 
L 316.504375 163.48125 
Q 316.504375 165.48125 318.504375 165.48125 
z
" style="fill:#ffffff;opacity:0.8;stroke:#cccccc;stroke-linejoin:miter;"/>
    </g>
    <g id="line2d_28">
     <path d="M 320.504375 23.798437 
L 340.504375 23.798437 
" style="fill:none;stroke:#1f77b4;stroke-linecap:square;stroke-width:1.5;"/>
    </g>
    <g id="line2d_29"/>
    <g id="text_16">
     <!-- delta -->
     <defs>
      <path d="M 45.40625 46.390625 
L 45.40625 75.984375 
L 54.390625 75.984375 
L 54.390625 0 
L 45.40625 0 
L 45.40625 8.203125 
Q 42.578125 3.328125 38.25 0.953125 
Q 33.9375 -1.421875 27.875 -1.421875 
Q 17.96875 -1.421875 11.734375 6.484375 
Q 5.515625 14.40625 5.515625 27.296875 
Q 5.515625 40.1875 11.734375 48.09375 
Q 17.96875 56 27.875 56 
Q 33.9375 56 38.25 53.625 
Q 42.578125 51.265625 45.40625 46.390625 
M 14.796875 27.296875 
Q 14.796875 17.390625 18.875 11.75 
Q 22.953125 6.109375 30.078125 6.109375 
Q 37.203125 6.109375 41.296875 11.75 
Q 45.40625 17.390625 45.40625 27.296875 
Q 45.40625 37.203125 41.296875 42.84375 
Q 37.203125 48.484375 30.078125 48.484375 
Q 22.953125 48.484375 18.875 42.84375 
Q 14.796875 37.203125 14.796875 27.296875 
" id="DejaVuSans-64"/>
      <path d="M 56.203125 29.59375 
L 56.203125 25.203125 
L 14.890625 25.203125 
Q 15.484375 15.921875 20.484375 11.0625 
Q 25.484375 6.203125 34.421875 6.203125 
Q 39.59375 6.203125 44.453125 7.46875 
Q 49.3125 8.734375 54.109375 11.28125 
L 54.109375 2.78125 
Q 49.265625 0.734375 44.1875 -0.34375 
Q 39.109375 -1.421875 33.890625 -1.421875 
Q 20.796875 -1.421875 13.15625 6.1875 
Q 5.515625 13.8125 5.515625 26.8125 
Q 5.515625 40.234375 12.765625 48.109375 
Q 20.015625 56 32.328125 56 
Q 43.359375 56 49.78125 48.890625 
Q 56.203125 41.796875 56.203125 29.59375 
M 47.21875 32.234375 
Q 47.125 39.59375 43.09375 43.984375 
Q 39.0625 48.390625 32.421875 48.390625 
Q 24.90625 48.390625 20.390625 44.140625 
Q 15.875 39.890625 15.1875 32.171875 
z
" id="DejaVuSans-65"/>
      <path d="M 9.421875 75.984375 
L 18.40625 75.984375 
L 18.40625 0 
L 9.421875 0 
z
" id="DejaVuSans-6c"/>
      <path d="M 18.3125 70.21875 
L 18.3125 54.6875 
L 36.8125 54.6875 
L 36.8125 47.703125 
L 18.3125 47.703125 
L 18.3125 18.015625 
Q 18.3125 11.328125 20.140625 9.421875 
Q 21.96875 7.515625 27.59375 7.515625 
L 36.8125 7.515625 
L 36.8125 0 
L 27.59375 0 
Q 17.1875 0 13.234375 3.875 
Q 9.28125 7.765625 9.28125 18.015625 
L 9.28125 47.703125 
L 2.6875 47.703125 
L 2.6875 54.6875 
L 9.28125 54.6875 
L 9.28125 70.21875 
z
" id="DejaVuSans-74"/>
      <path d="M 34.28125 27.484375 
Q 23.390625 27.484375 19.1875 25 
Q 14.984375 22.515625 14.984375 16.5 
Q 14.984375 11.71875 18.140625 8.90625 
Q 21.296875 6.109375 26.703125 6.109375 
Q 34.1875 6.109375 38.703125 11.40625 
Q 43.21875 16.703125 43.21875 25.484375 
L 43.21875 27.484375 
z
M 52.203125 31.203125 
L 52.203125 0 
L 43.21875 0 
L 43.21875 8.296875 
Q 40.140625 3.328125 35.546875 0.953125 
Q 30.953125 -1.421875 24.3125 -1.421875 
Q 15.921875 -1.421875 10.953125 3.296875 
Q 6 8.015625 6 15.921875 
Q 6 25.140625 12.171875 29.828125 
Q 18.359375 34.515625 30.609375 34.515625 
L 43.21875 34.515625 
L 43.21875 35.40625 
Q 43.21875 41.609375 39.140625 45 
Q 35.0625 48.390625 27.6875 48.390625 
Q 23 48.390625 18.546875 47.265625 
Q 14.109375 46.140625 10.015625 43.890625 
L 10.015625 52.203125 
Q 14.9375 54.109375 19.578125 55.046875 
Q 24.21875 56 28.609375 56 
Q 40.484375 56 46.34375 49.84375 
Q 52.203125 43.703125 52.203125 31.203125 
" id="DejaVuSans-61"/>
     </defs>
     <g transform="translate(348.504375 27.298437)scale(0.1 -0.1)">
      <use xlink:href="#DejaVuSans-64"/>
      <use x="63.476562" xlink:href="#DejaVuSans-65"/>
      <use x="125" xlink:href="#DejaVuSans-6c"/>
      <use x="152.783203" xlink:href="#DejaVuSans-74"/>
      <use x="191.992188" xlink:href="#DejaVuSans-61"/>
     </g>
    </g>
    <g id="line2d_30">
     <path d="M 320.504375 38.476562 
L 340.504375 38.476562 
" style="fill:none;stroke:#ff7f0e;stroke-linecap:square;stroke-width:1.5;"/>
    </g>
    <g id="line2d_31"/>
    <g id="text_17">
     <!-- lowAlpha -->
     <defs>
      <path d="M 30.609375 48.390625 
Q 23.390625 48.390625 19.1875 42.75 
Q 14.984375 37.109375 14.984375 27.296875 
Q 14.984375 17.484375 19.15625 11.84375 
Q 23.34375 6.203125 30.609375 6.203125 
Q 37.796875 6.203125 41.984375 11.859375 
Q 46.1875 17.53125 46.1875 27.296875 
Q 46.1875 37.015625 41.984375 42.703125 
Q 37.796875 48.390625 30.609375 48.390625 
M 30.609375 56 
Q 42.328125 56 49.015625 48.375 
Q 55.71875 40.765625 55.71875 27.296875 
Q 55.71875 13.875 49.015625 6.21875 
Q 42.328125 -1.421875 30.609375 -1.421875 
Q 18.84375 -1.421875 12.171875 6.21875 
Q 5.515625 13.875 5.515625 27.296875 
Q 5.515625 40.765625 12.171875 48.375 
Q 18.84375 56 30.609375 56 
" id="DejaVuSans-6f"/>
      <path d="M 4.203125 54.6875 
L 13.1875 54.6875 
L 24.421875 12.015625 
L 35.59375 54.6875 
L 46.1875 54.6875 
L 57.421875 12.015625 
L 68.609375 54.6875 
L 77.59375 54.6875 
L 63.28125 0 
L 52.6875 0 
L 40.921875 44.828125 
L 29.109375 0 
L 18.5 0 
z
" id="DejaVuSans-77"/>
      <path d="M 34.1875 63.1875 
L 20.796875 26.90625 
L 47.609375 26.90625 
z
M 28.609375 72.90625 
L 39.796875 72.90625 
L 67.578125 0 
L 57.328125 0 
L 50.6875 18.703125 
L 17.828125 18.703125 
L 11.1875 0 
L 0.78125 0 
z
" id="DejaVuSans-41"/>
      <path d="M 18.109375 8.203125 
L 18.109375 -20.796875 
L 9.078125 -20.796875 
L 9.078125 54.6875 
L 18.109375 54.6875 
L 18.109375 46.390625 
Q 20.953125 51.265625 25.265625 53.625 
Q 29.59375 56 35.59375 56 
Q 45.5625 56 51.78125 48.09375 
Q 58.015625 40.1875 58.015625 27.296875 
Q 58.015625 14.40625 51.78125 6.484375 
Q 45.5625 -1.421875 35.59375 -1.421875 
Q 29.59375 -1.421875 25.265625 0.953125 
Q 20.953125 3.328125 18.109375 8.203125 
M 48.6875 27.296875 
Q 48.6875 37.203125 44.609375 42.84375 
Q 40.53125 48.484375 33.40625 48.484375 
Q 26.265625 48.484375 22.1875 42.84375 
Q 18.109375 37.203125 18.109375 27.296875 
Q 18.109375 17.390625 22.1875 11.75 
Q 26.265625 6.109375 33.40625 6.109375 
Q 40.53125 6.109375 44.609375 11.75 
Q 48.6875 17.390625 48.6875 27.296875 
" id="DejaVuSans-70"/>
      <path d="M 54.890625 33.015625 
L 54.890625 0 
L 45.90625 0 
L 45.90625 32.71875 
Q 45.90625 40.484375 42.875 44.328125 
Q 39.84375 48.1875 33.796875 48.1875 
Q 26.515625 48.1875 22.3125 43.546875 
Q 18.109375 38.921875 18.109375 30.90625 
L 18.109375 0 
L 9.078125 0 
L 9.078125 75.984375 
L 18.109375 75.984375 
L 18.109375 46.1875 
Q 21.34375 51.125 25.703125 53.5625 
Q 30.078125 56 35.796875 56 
Q 45.21875 56 50.046875 50.171875 
Q 54.890625 44.34375 54.890625 33.015625 
" id="DejaVuSans-68"/>
     </defs>
     <g transform="translate(348.504375 41.976562)scale(0.1 -0.1)">
      <use xlink:href="#DejaVuSans-6c"/>
      <use x="27.783203" xlink:href="#DejaVuSans-6f"/>
      <use x="88.964844" xlink:href="#DejaVuSans-77"/>
      <use x="170.751953" xlink:href="#DejaVuSans-41"/>
      <use x="239.160156" xlink:href="#DejaVuSans-6c"/>
      <use x="266.943359" xlink:href="#DejaVuSans-70"/>
      <use x="330.419922" xlink:href="#DejaVuSans-68"/>
      <use x="393.798828" xlink:href="#DejaVuSans-61"/>
     </g>
    </g>
    <g id="line2d_32">
     <path d="M 320.504375 53.154687 
L 340.504375 53.154687 
" style="fill:none;stroke:#2ca02c;stroke-linecap:square;stroke-width:1.5;"/>
    </g>
    <g id="line2d_33"/>
    <g id="text_18">
     <!-- highAlpha -->
     <defs>
      <path d="M 9.421875 54.6875 
L 18.40625 54.6875 
L 18.40625 0 
L 9.421875 0 
z
M 9.421875 75.984375 
L 18.40625 75.984375 
L 18.40625 64.59375 
L 9.421875 64.59375 
z
" id="DejaVuSans-69"/>
      <path d="M 45.40625 27.984375 
Q 45.40625 37.75 41.375 43.109375 
Q 37.359375 48.484375 30.078125 48.484375 
Q 22.859375 48.484375 18.828125 43.109375 
Q 14.796875 37.75 14.796875 27.984375 
Q 14.796875 18.265625 18.828125 12.890625 
Q 22.859375 7.515625 30.078125 7.515625 
Q 37.359375 7.515625 41.375 12.890625 
Q 45.40625 18.265625 45.40625 27.984375 
M 54.390625 6.78125 
Q 54.390625 -7.171875 48.1875 -13.984375 
Q 42 -20.796875 29.203125 -20.796875 
Q 24.46875 -20.796875 20.265625 -20.09375 
Q 16.0625 -19.390625 12.109375 -17.921875 
L 12.109375 -9.1875 
Q 16.0625 -11.328125 19.921875 -12.34375 
Q 23.78125 -13.375 27.78125 -13.375 
Q 36.625 -13.375 41.015625 -8.765625 
Q 45.40625 -4.15625 45.40625 5.171875 
L 45.40625 9.625 
Q 42.625 4.78125 38.28125 2.390625 
Q 33.9375 0 27.875 0 
Q 17.828125 0 11.671875 7.65625 
Q 5.515625 15.328125 5.515625 27.984375 
Q 5.515625 40.671875 11.671875 48.328125 
Q 17.828125 56 27.875 56 
Q 33.9375 56 38.28125 53.609375 
Q 42.625 51.21875 45.40625 46.390625 
L 45.40625 54.6875 
L 54.390625 54.6875 
z
" id="DejaVuSans-67"/>
     </defs>
     <g transform="translate(348.504375 56.654687)scale(0.1 -0.1)">
      <use xlink:href="#DejaVuSans-68"/>
      <use x="63.378906" xlink:href="#DejaVuSans-69"/>
      <use x="91.162109" xlink:href="#DejaVuSans-67"/>
      <use x="154.638672" xlink:href="#DejaVuSans-68"/>
      <use x="218.017578" xlink:href="#DejaVuSans-41"/>
      <use x="286.425781" xlink:href="#DejaVuSans-6c"/>
      <use x="314.208984" xlink:href="#DejaVuSans-70"/>
      <use x="377.685547" xlink:href="#DejaVuSans-68"/>
      <use x="441.064453" xlink:href="#DejaVuSans-61"/>
     </g>
    </g>
    <g id="line2d_34">
     <path d="M 320.504375 67.832812 
L 340.504375 67.832812 
" style="fill:none;stroke:#d62728;stroke-linecap:square;stroke-width:1.5;"/>
    </g>
    <g id="line2d_35"/>
    <g id="text_19">
     <!-- lowBeta -->
     <defs>
      <path d="M 19.671875 34.8125 
L 19.671875 8.109375 
L 35.5 8.109375 
Q 43.453125 8.109375 47.28125 11.40625 
Q 51.125 14.703125 51.125 21.484375 
Q 51.125 28.328125 47.28125 31.5625 
Q 43.453125 34.8125 35.5 34.8125 
z
M 19.671875 64.796875 
L 19.671875 42.828125 
L 34.28125 42.828125 
Q 41.5 42.828125 45.03125 45.53125 
Q 48.578125 48.25 48.578125 53.8125 
Q 48.578125 59.328125 45.03125 62.0625 
Q 41.5 64.796875 34.28125 64.796875 
z
M 9.8125 72.90625 
L 35.015625 72.90625 
Q 46.296875 72.90625 52.390625 68.21875 
Q 58.5 63.53125 58.5 54.890625 
Q 58.5 48.1875 55.375 44.234375 
Q 52.25 40.28125 46.1875 39.3125 
Q 53.46875 37.75 57.5 32.78125 
Q 61.53125 27.828125 61.53125 20.40625 
Q 61.53125 10.640625 54.890625 5.3125 
Q 48.25 0 35.984375 0 
L 9.8125 0 
z
" id="DejaVuSans-42"/>
     </defs>
     <g transform="translate(348.504375 71.332812)scale(0.1 -0.1)">
      <use xlink:href="#DejaVuSans-6c"/>
      <use x="27.783203" xlink:href="#DejaVuSans-6f"/>
      <use x="88.964844" xlink:href="#DejaVuSans-77"/>
      <use x="170.751953" xlink:href="#DejaVuSans-42"/>
      <use x="239.355469" xlink:href="#DejaVuSans-65"/>
      <use x="300.878906" xlink:href="#DejaVuSans-74"/>
      <use x="340.087891" xlink:href="#DejaVuSans-61"/>
     </g>
    </g>
    <g id="line2d_36">
     <path d="M 320.504375 82.510938 
L 340.504375 82.510938 
" style="fill:none;stroke:#9467bd;stroke-linecap:square;stroke-width:1.5;"/>
    </g>
    <g id="line2d_37"/>
    <g id="text_20">
     <!-- highBeta -->
     <g transform="translate(348.504375 86.010938)scale(0.1 -0.1)">
      <use xlink:href="#DejaVuSans-68"/>
      <use x="63.378906" xlink:href="#DejaVuSans-69"/>
      <use x="91.162109" xlink:href="#DejaVuSans-67"/>
      <use x="154.638672" xlink:href="#DejaVuSans-68"/>
      <use x="218.017578" xlink:href="#DejaVuSans-42"/>
      <use x="286.621094" xlink:href="#DejaVuSans-65"/>
      <use x="348.144531" xlink:href="#DejaVuSans-74"/>
      <use x="387.353516" xlink:href="#DejaVuSans-61"/>
     </g>
    </g>
    <g id="line2d_38">
     <path d="M 320.504375 97.189062 
L 340.504375 97.189062 
" style="fill:none;stroke:#8c564b;stroke-linecap:square;stroke-width:1.5;"/>
    </g>
    <g id="line2d_39"/>
    <g id="text_21">
     <!-- lowGamma -->
     <defs>
      <path d="M 59.515625 10.40625 
L 59.515625 29.984375 
L 43.40625 29.984375 
L 43.40625 38.09375 
L 69.28125 38.09375 
L 69.28125 6.78125 
Q 63.578125 2.734375 56.6875 0.65625 
Q 49.8125 -1.421875 42 -1.421875 
Q 24.90625 -1.421875 15.25 8.5625 
Q 5.609375 18.5625 5.609375 36.375 
Q 5.609375 54.25 15.25 64.234375 
Q 24.90625 74.21875 42 74.21875 
Q 49.125 74.21875 55.546875 72.453125 
Q 61.96875 70.703125 67.390625 67.28125 
L 67.390625 56.78125 
Q 61.921875 61.421875 55.765625 63.765625 
Q 49.609375 66.109375 42.828125 66.109375 
Q 29.4375 66.109375 22.71875 58.640625 
Q 16.015625 51.171875 16.015625 36.375 
Q 16.015625 21.625 22.71875 14.15625 
Q 29.4375 6.6875 42.828125 6.6875 
Q 48.046875 6.6875 52.140625 7.59375 
Q 56.25 8.5 59.515625 10.40625 
" id="DejaVuSans-47"/>
      <path d="M 52 44.1875 
Q 55.375 50.25 60.0625 53.125 
Q 64.75 56 71.09375 56 
Q 79.640625 56 84.28125 50.015625 
Q 88.921875 44.046875 88.921875 33.015625 
L 88.921875 0 
L 79.890625 0 
L 79.890625 32.71875 
Q 79.890625 40.578125 77.09375 44.375 
Q 74.3125 48.1875 68.609375 48.1875 
Q 61.625 48.1875 57.5625 43.546875 
Q 53.515625 38.921875 53.515625 30.90625 
L 53.515625 0 
L 44.484375 0 
L 44.484375 32.71875 
Q 44.484375 40.625 41.703125 44.40625 
Q 38.921875 48.1875 33.109375 48.1875 
Q 26.21875 48.1875 22.15625 43.53125 
Q 18.109375 38.875 18.109375 30.90625 
L 18.109375 0 
L 9.078125 0 
L 9.078125 54.6875 
L 18.109375 54.6875 
L 18.109375 46.1875 
Q 21.1875 51.21875 25.484375 53.609375 
Q 29.78125 56 35.6875 56 
Q 41.65625 56 45.828125 52.96875 
Q 50 49.953125 52 44.1875 
" id="DejaVuSans-6d"/>
     </defs>
     <g transform="translate(348.504375 100.689062)scale(0.1 -0.1)">
      <use xlink:href="#DejaVuSans-6c"/>
      <use x="27.783203" xlink:href="#DejaVuSans-6f"/>
      <use x="88.964844" xlink:href="#DejaVuSans-77"/>
      <use x="170.751953" xlink:href="#DejaVuSans-47"/>
      <use x="248.242188" xlink:href="#DejaVuSans-61"/>
      <use x="309.521484" xlink:href="#DejaVuSans-6d"/>
      <use x="406.933594" xlink:href="#DejaVuSans-6d"/>
      <use x="504.345703" xlink:href="#DejaVuSans-61"/>
     </g>
    </g>
    <g id="line2d_40">
     <path d="M 320.504375 111.867188 
L 340.504375 111.867188 
" style="fill:none;stroke:#e377c2;stroke-linecap:square;stroke-width:1.5;"/>
    </g>
    <g id="line2d_41"/>
    <g id="text_22">
     <!-- midGamma -->
     <g transform="translate(348.504375 115.367188)scale(0.1 -0.1)">
      <use xlink:href="#DejaVuSans-6d"/>
      <use x="97.412109" xlink:href="#DejaVuSans-69"/>
      <use x="125.195312" xlink:href="#DejaVuSans-64"/>
      <use x="188.671875" xlink:href="#DejaVuSans-47"/>
      <use x="266.162109" xlink:href="#DejaVuSans-61"/>
      <use x="327.441406" xlink:href="#DejaVuSans-6d"/>
      <use x="424.853516" xlink:href="#DejaVuSans-6d"/>
      <use x="522.265625" xlink:href="#DejaVuSans-61"/>
     </g>
    </g>
    <g id="line2d_42">
     <path d="M 320.504375 126.545312 
L 340.504375 126.545312 
" style="fill:none;stroke:#7f7f7f;stroke-linecap:square;stroke-width:1.5;"/>
    </g>
    <g id="line2d_43"/>
    <g id="text_23">
     <!-- attention -->
     <defs>
      <path d="M 54.890625 33.015625 
L 54.890625 0 
L 45.90625 0 
L 45.90625 32.71875 
Q 45.90625 40.484375 42.875 44.328125 
Q 39.84375 48.1875 33.796875 48.1875 
Q 26.515625 48.1875 22.3125 43.546875 
Q 18.109375 38.921875 18.109375 30.90625 
L 18.109375 0 
L 9.078125 0 
L 9.078125 54.6875 
L 18.109375 54.6875 
L 18.109375 46.1875 
Q 21.34375 51.125 25.703125 53.5625 
Q 30.078125 56 35.796875 56 
Q 45.21875 56 50.046875 50.171875 
Q 54.890625 44.34375 54.890625 33.015625 
" id="DejaVuSans-6e"/>
     </defs>
     <g transform="translate(348.504375 130.045312)scale(0.1 -0.1)">
      <use xlink:href="#DejaVuSans-61"/>
      <use x="61.279297" xlink:href="#DejaVuSans-74"/>
      <use x="100.488281" xlink:href="#DejaVuSans-74"/>
      <use x="139.697266" xlink:href="#DejaVuSans-65"/>
      <use x="201.220703" xlink:href="#DejaVuSans-6e"/>
      <use x="264.599609" xlink:href="#DejaVuSans-74"/>
      <use x="303.808594" xlink:href="#DejaVuSans-69"/>
      <use x="331.591797" xlink:href="#DejaVuSans-6f"/>
      <use x="392.773438" xlink:href="#DejaVuSans-6e"/>
     </g>
    </g>
    <g id="line2d_44">
     <path d="M 320.504375 141.223437 
L 340.504375 141.223437 
" style="fill:none;stroke:#bcbd22;stroke-linecap:square;stroke-width:1.5;"/>
    </g>
    <g id="line2d_45"/>
    <g id="text_24">
     <!-- meditation -->
     <g transform="translate(348.504375 144.723437)scale(0.1 -0.1)">
      <use xlink:href="#DejaVuSans-6d"/>
      <use x="97.412109" xlink:href="#DejaVuSans-65"/>
      <use x="158.935547" xlink:href="#DejaVuSans-64"/>
      <use x="222.412109" xlink:href="#DejaVuSans-69"/>
      <use x="250.195312" xlink:href="#DejaVuSans-74"/>
      <use x="289.404297" xlink:href="#DejaVuSans-61"/>
      <use x="350.683594" xlink:href="#DejaVuSans-74"/>
      <use x="389.892578" xlink:href="#DejaVuSans-69"/>
      <use x="417.675781" xlink:href="#DejaVuSans-6f"/>
      <use x="478.857422" xlink:href="#DejaVuSans-6e"/>
     </g>
    </g>
    <g id="line2d_46">
     <path d="M 320.504375 155.901562 
L 340.504375 155.901562 
" style="fill:none;stroke:#17becf;stroke-linecap:square;stroke-width:1.5;"/>
    </g>
    <g id="line2d_47"/>
    <g id="text_25">
     <!-- rawValue -->
     <defs>
      <path d="M 41.109375 46.296875 
Q 39.59375 47.171875 37.8125 47.578125 
Q 36.03125 48 33.890625 48 
Q 26.265625 48 22.1875 43.046875 
Q 18.109375 38.09375 18.109375 28.8125 
L 18.109375 0 
L 9.078125 0 
L 9.078125 54.6875 
L 18.109375 54.6875 
L 18.109375 46.1875 
Q 20.953125 51.171875 25.484375 53.578125 
Q 30.03125 56 36.53125 56 
Q 37.453125 56 38.578125 55.875 
Q 39.703125 55.765625 41.0625 55.515625 
z
" id="DejaVuSans-72"/>
      <path d="M 28.609375 0 
L 0.78125 72.90625 
L 11.078125 72.90625 
L 34.1875 11.53125 
L 57.328125 72.90625 
L 67.578125 72.90625 
L 39.796875 0 
z
" id="DejaVuSans-56"/>
      <path d="M 8.5 21.578125 
L 8.5 54.6875 
L 17.484375 54.6875 
L 17.484375 21.921875 
Q 17.484375 14.15625 20.5 10.265625 
Q 23.53125 6.390625 29.59375 6.390625 
Q 36.859375 6.390625 41.078125 11.03125 
Q 45.3125 15.671875 45.3125 23.6875 
L 45.3125 54.6875 
L 54.296875 54.6875 
L 54.296875 0 
L 45.3125 0 
L 45.3125 8.40625 
Q 42.046875 3.421875 37.71875 1 
Q 33.40625 -1.421875 27.6875 -1.421875 
Q 18.265625 -1.421875 13.375 4.4375 
Q 8.5 10.296875 8.5 21.578125 
M 31.109375 56 
z
" id="DejaVuSans-75"/>
     </defs>
     <g transform="translate(348.504375 159.401562)scale(0.1 -0.1)">
      <use xlink:href="#DejaVuSans-72"/>
      <use x="41.113281" xlink:href="#DejaVuSans-61"/>
      <use x="102.392578" xlink:href="#DejaVuSans-77"/>
      <use x="184.179688" xlink:href="#DejaVuSans-56"/>
      <use x="252.478516" xlink:href="#DejaVuSans-61"/>
      <use x="313.757812" xlink:href="#DejaVuSans-6c"/>
      <use x="341.541016" xlink:href="#DejaVuSans-75"/>
      <use x="404.919922" xlink:href="#DejaVuSans-65"/>
     </g>
    </g>
   </g>
  </g>
 </g>
 <defs>
  <clipPath id="p551809d0a6">
   <rect height="266.112" width="357.12" x="58.7375" y="10.7"/>
  </clipPath>
 </defs>
</svg>
