<?xml version="1.0" encoding="utf-8" standalone="no"?>
<!DOCTYPE svg PUBLIC "-//W3C//DTD SVG 1.1//EN"
  "http://www.w3.org/Graphics/SVG/1.1/DTD/svg11.dtd">
<!-- Created with matplotlib (http://matplotlib.org/) -->
<svg height="300pt" version="1.1" viewBox="0 0 426 300" width="426pt" xmlns="http://www.w3.org/2000/svg" xmlns:xlink="http://www.w3.org/1999/xlink">
 <defs>
  <style type="text/css">
*{stroke-linecap:butt;stroke-linejoin:round;}
  </style>
 </defs>
 <g id="figure_1">
  <g id="patch_1">
   <path d="M 0 300.690125 
L 426.5575 300.690125 
L 426.5575 0 
L 0 0 
z
" style="fill:#ffffff;"/>
  </g>
  <g id="axes_1">
   <g id="patch_2">
    <path d="M 58.7375 276.812 
L 415.8575 276.812 
L 415.8575 10.7 
L 58.7375 10.7 
z
" style="fill:#ffffff;"/>
   </g>
   <g id="matplotlib.axis_1">
    <g id="xtick_1">
     <g id="line2d_1">
      <defs>
       <path d="M 0 0 
L 0 3.5 
" id="m0248a123d1" style="stroke:#000000;stroke-width:0.8;"/>
      </defs>
      <g>
       <use style="stroke:#000000;stroke-width:0.8;" x="74.970227" xlink:href="#m0248a123d1" y="276.812"/>
      </g>
     </g>
     <g id="text_1">
      <!-- 0 -->
      <defs>
       <path d="M 31.78125 66.40625 
Q 24.171875 66.40625 20.328125 58.90625 
Q 16.5 51.421875 16.5 36.375 
Q 16.5 21.390625 20.328125 13.890625 
Q 24.171875 6.390625 31.78125 6.390625 
Q 39.453125 6.390625 43.28125 13.890625 
Q 47.125 21.390625 47.125 36.375 
Q 47.125 51.421875 43.28125 58.90625 
Q 39.453125 66.40625 31.78125 66.40625 
M 31.78125 74.21875 
Q 44.046875 74.21875 50.515625 64.515625 
Q 56.984375 54.828125 56.984375 36.375 
Q 56.984375 17.96875 50.515625 8.265625 
Q 44.046875 -1.421875 31.78125 -1.421875 
Q 19.53125 -1.421875 13.0625 8.265625 
Q 6.59375 17.96875 6.59375 36.375 
Q 6.59375 54.828125 13.0625 64.515625 
Q 19.53125 74.21875 31.78125 74.21875 
" id="DejaVuSans-30"/>
      </defs>
      <g transform="translate(71.788977 291.410437)scale(0.1 -0.1)">
       <use xlink:href="#DejaVuSans-30"/>
      </g>
     </g>
    </g>
    <g id="xtick_2">
     <g id="line2d_2">
      <g>
       <use style="stroke:#000000;stroke-width:0.8;" x="116.380246" xlink:href="#m0248a123d1" y="276.812"/>
      </g>
     </g>
     <g id="text_2">
      <!-- 25 -->
      <defs>
       <path d="M 19.1875 8.296875 
L 53.609375 8.296875 
L 53.609375 0 
L 7.328125 0 
L 7.328125 8.296875 
Q 12.9375 14.109375 22.625 23.890625 
Q 32.328125 33.6875 34.8125 36.53125 
Q 39.546875 41.84375 41.421875 45.53125 
Q 43.3125 49.21875 43.3125 52.78125 
Q 43.3125 58.59375 39.234375 62.25 
Q 35.15625 65.921875 28.609375 65.921875 
Q 23.96875 65.921875 18.8125 64.3125 
Q 13.671875 62.703125 7.8125 59.421875 
L 7.8125 69.390625 
Q 13.765625 71.78125 18.9375 73 
Q 24.125 74.21875 28.421875 74.21875 
Q 39.75 74.21875 46.484375 68.546875 
Q 53.21875 62.890625 53.21875 53.421875 
Q 53.21875 48.921875 51.53125 44.890625 
Q 49.859375 40.875 45.40625 35.40625 
Q 44.1875 33.984375 37.640625 27.21875 
Q 31.109375 20.453125 19.1875 8.296875 
" id="DejaVuSans-32"/>
       <path d="M 10.796875 72.90625 
L 49.515625 72.90625 
L 49.515625 64.59375 
L 19.828125 64.59375 
L 19.828125 46.734375 
Q 21.96875 47.46875 24.109375 47.828125 
Q 26.265625 48.1875 28.421875 48.1875 
Q 40.625 48.1875 47.75 41.5 
Q 54.890625 34.8125 54.890625 23.390625 
Q 54.890625 11.625 47.5625 5.09375 
Q 40.234375 -1.421875 26.90625 -1.421875 
Q 22.3125 -1.421875 17.546875 -0.640625 
Q 12.796875 0.140625 7.71875 1.703125 
L 7.71875 11.625 
Q 12.109375 9.234375 16.796875 8.0625 
Q 21.484375 6.890625 26.703125 6.890625 
Q 35.15625 6.890625 40.078125 11.328125 
Q 45.015625 15.765625 45.015625 23.390625 
Q 45.015625 31 40.078125 35.4375 
Q 35.15625 39.890625 26.703125 39.890625 
Q 22.75 39.890625 18.8125 39.015625 
Q 14.890625 38.140625 10.796875 36.28125 
z
" id="DejaVuSans-35"/>
      </defs>
      <g transform="translate(110.017746 291.410437)scale(0.1 -0.1)">
       <use xlink:href="#DejaVuSans-32"/>
       <use x="63.623047" xlink:href="#DejaVuSans-35"/>
      </g>
     </g>
    </g>
    <g id="xtick_3">
     <g id="line2d_3">
      <g>
       <use style="stroke:#000000;stroke-width:0.8;" x="157.790264" xlink:href="#m0248a123d1" y="276.812"/>
      </g>
     </g>
     <g id="text_3">
      <!-- 50 -->
      <g transform="translate(151.427764 291.410437)scale(0.1 -0.1)">
       <use xlink:href="#DejaVuSans-35"/>
       <use x="63.623047" xlink:href="#DejaVuSans-30"/>
      </g>
     </g>
    </g>
    <g id="xtick_4">
     <g id="line2d_4">
      <g>
       <use style="stroke:#000000;stroke-width:0.8;" x="199.200283" xlink:href="#m0248a123d1" y="276.812"/>
      </g>
     </g>
     <g id="text_4">
      <!-- 75 -->
      <defs>
       <path d="M 8.203125 72.90625 
L 55.078125 72.90625 
L 55.078125 68.703125 
L 28.609375 0 
L 18.3125 0 
L 43.21875 64.59375 
L 8.203125 64.59375 
z
" id="DejaVuSans-37"/>
      </defs>
      <g transform="translate(192.837783 291.410437)scale(0.1 -0.1)">
       <use xlink:href="#DejaVuSans-37"/>
       <use x="63.623047" xlink:href="#DejaVuSans-35"/>
      </g>
     </g>
    </g>
    <g id="xtick_5">
     <g id="line2d_5">
      <g>
       <use style="stroke:#000000;stroke-width:0.8;" x="240.610301" xlink:href="#m0248a123d1" y="276.812"/>
      </g>
     </g>
     <g id="text_5">
      <!-- 100 -->
      <defs>
       <path d="M 12.40625 8.296875 
L 28.515625 8.296875 
L 28.515625 63.921875 
L 10.984375 60.40625 
L 10.984375 69.390625 
L 28.421875 72.90625 
L 38.28125 72.90625 
L 38.28125 8.296875 
L 54.390625 8.296875 
L 54.390625 0 
L 12.40625 0 
z
" id="DejaVuSans-31"/>
      </defs>
      <g transform="translate(231.066551 291.410437)scale(0.1 -0.1)">
       <use xlink:href="#DejaVuSans-31"/>
       <use x="63.623047" xlink:href="#DejaVuSans-30"/>
       <use x="127.246094" xlink:href="#DejaVuSans-30"/>
      </g>
     </g>
    </g>
    <g id="xtick_6">
     <g id="line2d_6">
      <g>
       <use style="stroke:#000000;stroke-width:0.8;" x="282.02032" xlink:href="#m0248a123d1" y="276.812"/>
      </g>
     </g>
     <g id="text_6">
      <!-- 125 -->
      <g transform="translate(272.47657 291.410437)scale(0.1 -0.1)">
       <use xlink:href="#DejaVuSans-31"/>
       <use x="63.623047" xlink:href="#DejaVuSans-32"/>
       <use x="127.246094" xlink:href="#DejaVuSans-35"/>
      </g>
     </g>
    </g>
    <g id="xtick_7">
     <g id="line2d_7">
      <g>
       <use style="stroke:#000000;stroke-width:0.8;" x="323.430339" xlink:href="#m0248a123d1" y="276.812"/>
      </g>
     </g>
     <g id="text_7">
      <!-- 150 -->
      <g transform="translate(313.886589 291.410437)scale(0.1 -0.1)">
       <use xlink:href="#DejaVuSans-31"/>
       <use x="63.623047" xlink:href="#DejaVuSans-35"/>
       <use x="127.246094" xlink:href="#DejaVuSans-30"/>
      </g>
     </g>
    </g>
    <g id="xtick_8">
     <g id="line2d_8">
      <g>
       <use style="stroke:#000000;stroke-width:0.8;" x="364.840357" xlink:href="#m0248a123d1" y="276.812"/>
      </g>
     </g>
     <g id="text_8">
      <!-- 175 -->
      <g transform="translate(355.296607 291.410437)scale(0.1 -0.1)">
       <use xlink:href="#DejaVuSans-31"/>
       <use x="63.623047" xlink:href="#DejaVuSans-37"/>
       <use x="127.246094" xlink:href="#DejaVuSans-35"/>
      </g>
     </g>
    </g>
    <g id="xtick_9">
     <g id="line2d_9">
      <g>
       <use style="stroke:#000000;stroke-width:0.8;" x="406.250376" xlink:href="#m0248a123d1" y="276.812"/>
      </g>
     </g>
     <g id="text_9">
      <!-- 200 -->
      <g transform="translate(396.706626 291.410437)scale(0.1 -0.1)">
       <use xlink:href="#DejaVuSans-32"/>
       <use x="63.623047" xlink:href="#DejaVuSans-30"/>
       <use x="127.246094" xlink:href="#DejaVuSans-30"/>
      </g>
     </g>
    </g>
   </g>
   <g id="matplotlib.axis_2">
    <g id="ytick_1">
     <g id="line2d_10">
      <defs>
       <path d="M 0 0 
L -3.5 0 
" id="m16763c8a2c" style="stroke:#000000;stroke-width:0.8;"/>
      </defs>
      <g>
       <use style="stroke:#000000;stroke-width:0.8;" x="58.7375" xlink:href="#m16763c8a2c" y="264.549537"/>
      </g>
     </g>
     <g id="text_10">
      <!-- 0 -->
      <g transform="translate(45.375 268.348756)scale(0.1 -0.1)">
       <use xlink:href="#DejaVuSans-30"/>
      </g>
     </g>
    </g>
    <g id="ytick_2">
     <g id="line2d_11">
      <g>
       <use style="stroke:#000000;stroke-width:0.8;" x="58.7375" xlink:href="#m16763c8a2c" y="223.909114"/>
      </g>
     </g>
     <g id="text_11">
      <!-- 500000 -->
      <g transform="translate(13.5625 227.708333)scale(0.1 -0.1)">
       <use xlink:href="#DejaVuSans-35"/>
       <use x="63.623047" xlink:href="#DejaVuSans-30"/>
       <use x="127.246094" xlink:href="#DejaVuSans-30"/>
       <use x="190.869141" xlink:href="#DejaVuSans-30"/>
       <use x="254.492188" xlink:href="#DejaVuSans-30"/>
       <use x="318.115234" xlink:href="#DejaVuSans-30"/>
      </g>
     </g>
    </g>
    <g id="ytick_3">
     <g id="line2d_12">
      <g>
       <use style="stroke:#000000;stroke-width:0.8;" x="58.7375" xlink:href="#m16763c8a2c" y="183.268692"/>
      </g>
     </g>
     <g id="text_12">
      <!-- 1000000 -->
      <g transform="translate(7.2 187.06791)scale(0.1 -0.1)">
       <use xlink:href="#DejaVuSans-31"/>
       <use x="63.623047" xlink:href="#DejaVuSans-30"/>
       <use x="127.246094" xlink:href="#DejaVuSans-30"/>
       <use x="190.869141" xlink:href="#DejaVuSans-30"/>
       <use x="254.492188" xlink:href="#DejaVuSans-30"/>
       <use x="318.115234" xlink:href="#DejaVuSans-30"/>
       <use x="381.738281" xlink:href="#DejaVuSans-30"/>
      </g>
     </g>
    </g>
    <g id="ytick_4">
     <g id="line2d_13">
      <g>
       <use style="stroke:#000000;stroke-width:0.8;" x="58.7375" xlink:href="#m16763c8a2c" y="142.628269"/>
      </g>
     </g>
     <g id="text_13">
      <!-- 1500000 -->
      <g transform="translate(7.2 146.427488)scale(0.1 -0.1)">
       <use xlink:href="#DejaVuSans-31"/>
       <use x="63.623047" xlink:href="#DejaVuSans-35"/>
       <use x="127.246094" xlink:href="#DejaVuSans-30"/>
       <use x="190.869141" xlink:href="#DejaVuSans-30"/>
       <use x="254.492188" xlink:href="#DejaVuSans-30"/>
       <use x="318.115234" xlink:href="#DejaVuSans-30"/>
       <use x="381.738281" xlink:href="#DejaVuSans-30"/>
      </g>
     </g>
    </g>
    <g id="ytick_5">
     <g id="line2d_14">
      <g>
       <use style="stroke:#000000;stroke-width:0.8;" x="58.7375" xlink:href="#m16763c8a2c" y="101.987846"/>
      </g>
     </g>
     <g id="text_14">
      <!-- 2000000 -->
      <g transform="translate(7.2 105.787065)scale(0.1 -0.1)">
       <use xlink:href="#DejaVuSans-32"/>
       <use x="63.623047" xlink:href="#DejaVuSans-30"/>
       <use x="127.246094" xlink:href="#DejaVuSans-30"/>
       <use x="190.869141" xlink:href="#DejaVuSans-30"/>
       <use x="254.492188" xlink:href="#DejaVuSans-30"/>
       <use x="318.115234" xlink:href="#DejaVuSans-30"/>
       <use x="381.738281" xlink:href="#DejaVuSans-30"/>
      </g>
     </g>
    </g>
    <g id="ytick_6">
     <g id="line2d_15">
      <g>
       <use style="stroke:#000000;stroke-width:0.8;" x="58.7375" xlink:href="#m16763c8a2c" y="61.347424"/>
      </g>
     </g>
     <g id="text_15">
      <!-- 2500000 -->
      <g transform="translate(7.2 65.146642)scale(0.1 -0.1)">
       <use xlink:href="#DejaVuSans-32"/>
       <use x="63.623047" xlink:href="#DejaVuSans-35"/>
       <use x="127.246094" xlink:href="#DejaVuSans-30"/>
       <use x="190.869141" xlink:href="#DejaVuSans-30"/>
       <use x="254.492188" xlink:href="#DejaVuSans-30"/>
       <use x="318.115234" xlink:href="#DejaVuSans-30"/>
       <use x="381.738281" xlink:href="#DejaVuSans-30"/>
      </g>
     </g>
    </g>
    <g id="ytick_7">
     <g id="line2d_16">
      <g>
       <use style="stroke:#000000;stroke-width:0.8;" x="58.7375" xlink:href="#m16763c8a2c" y="20.707001"/>
      </g>
     </g>
     <g id="text_16">
      <!-- 3000000 -->
      <defs>
       <path d="M 40.578125 39.3125 
Q 47.65625 37.796875 51.625 33 
Q 55.609375 28.21875 55.609375 21.1875 
Q 55.609375 10.40625 48.1875 4.484375 
Q 40.765625 -1.421875 27.09375 -1.421875 
Q 22.515625 -1.421875 17.65625 -0.515625 
Q 12.796875 0.390625 7.625 2.203125 
L 7.625 11.71875 
Q 11.71875 9.328125 16.59375 8.109375 
Q 21.484375 6.890625 26.8125 6.890625 
Q 36.078125 6.890625 40.9375 10.546875 
Q 45.796875 14.203125 45.796875 21.1875 
Q 45.796875 27.640625 41.28125 31.265625 
Q 36.765625 34.90625 28.71875 34.90625 
L 20.21875 34.90625 
L 20.21875 43.015625 
L 29.109375 43.015625 
Q 36.375 43.015625 40.234375 45.921875 
Q 44.09375 48.828125 44.09375 54.296875 
Q 44.09375 59.90625 40.109375 62.90625 
Q 36.140625 65.921875 28.71875 65.921875 
Q 24.65625 65.921875 20.015625 65.03125 
Q 15.375 64.15625 9.8125 62.3125 
L 9.8125 71.09375 
Q 15.4375 72.65625 20.34375 73.4375 
Q 25.25 74.21875 29.59375 74.21875 
Q 40.828125 74.21875 47.359375 69.109375 
Q 53.90625 64.015625 53.90625 55.328125 
Q 53.90625 49.265625 50.4375 45.09375 
Q 46.96875 40.921875 40.578125 39.3125 
" id="DejaVuSans-33"/>
      </defs>
      <g transform="translate(7.2 24.50622)scale(0.1 -0.1)">
       <use xlink:href="#DejaVuSans-33"/>
       <use x="63.623047" xlink:href="#DejaVuSans-30"/>
       <use x="127.246094" xlink:href="#DejaVuSans-30"/>
       <use x="190.869141" xlink:href="#DejaVuSans-30"/>
       <use x="254.492188" xlink:href="#DejaVuSans-30"/>
       <use x="318.115234" xlink:href="#DejaVuSans-30"/>
       <use x="381.738281" xlink:href="#DejaVuSans-30"/>
      </g>
     </g>
    </g>
   </g>
   <g id="line2d_17">
    <path clip-path="url(#pbc831db58a)" d="M 74.970227 134.938126 
L 76.626628 183.808396 
L 78.283029 243.342064 
L 79.939429 158.250204 
L 81.59583 264.546692 
L 83.252231 242.463499 
L 84.908632 48.958028 
L 86.565032 189.91592 
L 88.221433 132.187663 
L 89.877834 79.607409 
L 91.534235 114.71789 
L 93.190635 250.54696 
L 94.847036 113.071953 
L 96.503437 159.558663 
L 98.159838 164.837528 
L 99.816238 241.488698 
L 101.472639 247.075781 
L 103.12904 236.08783 
L 104.785441 229.35046 
L 106.441841 247.069116 
L 108.098242 104.998326 
L 109.754643 238.717102 
L 111.411044 259.375036 
L 113.067444 261.756564 
L 114.723845 160.813558 
L 116.380246 208.385529 
L 118.036647 159.627182 
L 119.693047 200.815275 
L 121.349448 175.704534 
L 123.005849 199.173321 
L 124.66225 201.903301 
L 126.31865 175.776711 
L 127.975051 239.138787 
L 129.631452 88.259349 
L 131.287853 74.440955 
L 132.944253 214.528492 
L 134.600654 106.505111 
L 136.257055 22.796 
L 137.913455 221.550019 
L 139.569856 256.167368 
L 141.226257 243.289475 
L 142.882658 249.870948 
L 144.539058 262.679183 
L 146.195459 244.420986 
L 147.85186 233.442057 
L 149.508261 201.268822 
L 151.164661 256.484039 
L 152.821062 242.413999 
L 154.477463 165.32245 
L 156.133864 199.398062 
L 157.790264 194.685074 
L 159.446665 227.162868 
L 161.103066 208.878823 
L 162.759467 215.472081 
L 164.415867 250.158275 
L 166.072268 120.930103 
L 167.728669 172.922128 
L 169.38507 118.873048 
L 171.04147 209.016025 
L 172.697871 253.536795 
L 174.354272 248.628651 
L 176.010673 240.580953 
L 177.667073 255.769255 
L 179.323474 152.136746 
L 180.979875 235.537396 
L 182.636276 205.995466 
L 184.292676 245.091634 
L 185.949077 221.879694 
L 187.605478 259.06243 
L 189.261878 261.693409 
L 190.918279 250.257357 
L 192.57468 248.392043 
L 194.231081 191.629077 
L 195.887481 235.339396 
L 197.543882 243.754808 
L 199.200283 233.793678 
L 200.856684 257.192076 
L 202.513084 231.871386 
L 204.169485 258.759089 
L 205.825886 210.927913 
L 207.482287 259.264738 
L 209.138687 262.275868 
L 210.795088 263.676012 
L 212.451489 257.000497 
L 214.10789 208.524276 
L 215.76429 253.966283 
L 217.420691 247.145845 
L 219.077092 254.223374 
L 220.733493 70.510864 
L 222.389893 178.280161 
L 224.046294 192.801959 
L 225.702695 263.96399 
L 227.359096 261.235554 
L 229.015496 259.194186 
L 230.671897 254.000177 
L 232.328298 262.520604 
L 233.984699 191.593232 
L 235.641099 261.364466 
L 237.2975 206.894595 
L 238.953901 257.007812 
L 240.610301 263.420871 
L 242.266702 261.506219 
L 243.923103 255.171353 
L 245.579504 259.646351 
L 247.235904 258.034146 
L 248.892305 261.097295 
L 250.548706 257.240438 
L 252.205107 261.99301 
L 253.861507 255.195168 
L 255.517908 224.670147 
L 257.174309 257.769739 
L 258.83071 222.291138 
L 260.48711 211.710729 
L 262.143511 263.936029 
L 263.799912 235.125627 
L 265.456313 257.913769 
L 267.112713 251.393094 
L 268.769114 264.084448 
L 270.425515 260.142002 
L 272.081916 239.317524 
L 273.738316 262.790782 
L 275.394717 258.253197 
L 277.051118 261.115259 
L 278.707519 222.800606 
L 280.363919 247.983606 
L 282.02032 173.42298 
L 283.676721 236.021911 
L 285.333122 243.600943 
L 286.989522 113.545657 
L 288.645923 251.524688 
L 290.302324 224.863351 
L 291.958724 122.79623 
L 293.615125 238.948915 
L 295.271526 249.13373 
L 298.584327 171.676905 
L 300.240728 188.80286 
L 301.897129 260.405514 
L 303.55353 238.385558 
L 305.20993 258.64741 
L 306.866331 253.114866 
L 308.522732 253.033829 
L 310.179133 130.440775 
L 311.835533 236.476271 
L 313.491934 190.477896 
L 315.148335 158.001322 
L 316.804736 250.278571 
L 318.461136 256.771773 
L 320.117537 260.056901 
L 321.773938 222.365185 
L 323.430339 253.333756 
L 325.086739 230.194968 
L 326.74314 253.761455 
L 328.399541 253.894675 
L 330.055942 259.760713 
L 331.712342 164.447868 
L 333.368743 239.430586 
L 335.025144 174.264156 
L 336.681545 219.193118 
L 338.337945 254.264746 
L 339.994346 215.665123 
L 341.650747 252.014161 
L 343.307147 190.389219 
L 344.963548 181.045091 
L 346.619949 202.99726 
L 348.27635 262.927578 
L 349.93275 250.161933 
L 351.589151 244.414483 
L 353.245552 219.679828 
L 354.901953 236.576571 
L 356.558353 181.712001 
L 358.214754 207.59231 
L 359.871155 46.291285 
L 361.527556 230.318271 
L 363.183956 248.554117 
L 364.840357 232.061746 
L 366.496758 261.908885 
L 368.153159 253.518507 
L 369.809559 182.154412 
L 371.46596 156.106177 
L 373.122361 167.711944 
L 374.778762 205.478764 
L 376.435162 178.173683 
L 378.091563 205.687005 
L 379.747964 135.489616 
L 381.404365 167.034631 
L 383.060765 110.735372 
L 384.717166 252.82193 
L 386.373567 260.639847 
L 388.029968 207.09162 
L 389.686368 252.263856 
L 391.342769 191.87487 
L 392.99917 226.052734 
L 394.655571 241.436597 
L 396.311971 216.76786 
L 397.968372 207.215735 
L 399.624773 235.233731 
L 399.624773 235.233731 
" style="fill:none;stroke:#1f77b4;stroke-linecap:square;stroke-width:1.5;"/>
   </g>
   <g id="line2d_18">
    <path clip-path="url(#pbc831db58a)" d="M 74.970227 262.197188 
L 76.626628 243.014177 
L 78.283029 264.09347 
L 79.939429 248.439104 
L 81.59583 264.549374 
L 84.908632 258.244582 
L 86.565032 262.587824 
L 88.221433 254.894998 
L 89.877834 225.230741 
L 91.534235 262.820368 
L 93.190635 235.994357 
L 94.847036 263.534177 
L 96.503437 258.611158 
L 98.159838 259.313343 
L 99.816238 263.904411 
L 101.472639 263.093878 
L 103.12904 260.961231 
L 104.785441 250.542734 
L 106.441841 261.835651 
L 108.098242 245.435533 
L 109.754643 262.440787 
L 111.411044 263.714214 
L 113.067444 263.430787 
L 114.723845 259.448188 
L 116.380246 258.81306 
L 118.036647 261.238562 
L 119.693047 262.240998 
L 121.349448 262.840038 
L 123.005849 263.089895 
L 124.66225 259.209792 
L 126.31865 259.079255 
L 127.975051 256.705285 
L 129.631452 257.832975 
L 131.287853 239.719702 
L 132.944253 263.86694 
L 134.600654 257.948882 
L 136.257055 253.768933 
L 137.913455 262.447614 
L 139.569856 263.488497 
L 141.226257 258.587993 
L 142.882658 263.517758 
L 144.539058 262.946028 
L 146.195459 245.993039 
L 147.85186 259.296112 
L 149.508261 258.191261 
L 151.164661 264.403475 
L 152.821062 224.544649 
L 154.477463 200.030184 
L 156.133864 263.034868 
L 157.790264 257.026344 
L 159.446665 263.836623 
L 161.103066 238.128385 
L 162.759467 259.527844 
L 164.415867 260.051374 
L 166.072268 247.279633 
L 167.728669 262.119727 
L 169.38507 260.061452 
L 171.04147 262.919856 
L 172.697871 257.13461 
L 176.010673 263.458504 
L 177.667073 263.275134 
L 179.323474 256.869066 
L 180.979875 261.759003 
L 182.636276 257.386418 
L 184.292676 264.016253 
L 185.949077 263.08445 
L 187.605478 263.177354 
L 189.261878 256.582145 
L 190.918279 259.027885 
L 192.57468 263.011134 
L 194.231081 261.914737 
L 195.887481 242.418307 
L 197.543882 264.283017 
L 199.200283 257.370731 
L 200.856684 259.034631 
L 202.513084 256.251413 
L 204.169485 263.393479 
L 205.825886 260.063403 
L 207.482287 258.575313 
L 209.138687 260.906936 
L 210.795088 259.74592 
L 212.451489 263.093553 
L 214.10789 255.820055 
L 215.76429 263.148743 
L 217.420691 257.185167 
L 219.077092 263.617571 
L 220.733493 259.517602 
L 222.389893 245.465201 
L 224.046294 260.417462 
L 225.702695 263.960007 
L 227.359096 261.808747 
L 229.015496 263.599689 
L 230.671897 264.037549 
L 232.328298 257.961562 
L 233.984699 260.051455 
L 235.641099 263.037225 
L 237.2975 255.254097 
L 238.953901 261.655207 
L 240.610301 264.398517 
L 242.266702 264.311059 
L 245.579504 255.560851 
L 247.235904 262.174917 
L 248.892305 258.700892 
L 250.548706 262.872957 
L 252.205107 258.707395 
L 253.861507 263.364869 
L 255.517908 248.310518 
L 257.174309 262.86426 
L 258.83071 259.016668 
L 260.48711 258.13282 
L 262.143511 261.763798 
L 263.799912 256.632051 
L 265.456313 263.833453 
L 267.112713 252.813396 
L 268.769114 263.989999 
L 270.425515 262.021215 
L 272.081916 257.210445 
L 273.738316 259.383814 
L 275.394717 260.630743 
L 277.051118 261.22897 
L 278.707519 239.103512 
L 280.363919 257.755677 
L 282.02032 245.032218 
L 283.676721 258.016751 
L 285.333122 252.217851 
L 286.989522 217.25075 
L 288.645923 264.421601 
L 290.302324 255.428038 
L 291.958724 245.280124 
L 293.615125 263.542792 
L 295.271526 261.604732 
L 296.927927 257.747874 
L 298.584327 247.658239 
L 300.240728 250.696599 
L 301.897129 263.758512 
L 303.55353 261.950338 
L 305.20993 257.998707 
L 306.866331 259.675775 
L 308.522732 263.437127 
L 310.179133 253.598894 
L 311.835533 262.31789 
L 313.491934 229.943729 
L 315.148335 261.192963 
L 316.804736 260.350812 
L 318.461136 260.742911 
L 320.117537 263.504103 
L 321.773938 260.03146 
L 323.430339 262.302284 
L 325.086739 256.831433 
L 326.74314 256.380812 
L 328.399541 259.187033 
L 330.055942 260.907505 
L 331.712342 259.420634 
L 333.368743 261.630335 
L 335.025144 253.584995 
L 336.681545 260.812406 
L 338.337945 258.165008 
L 339.994346 260.117048 
L 341.650747 257.819971 
L 343.307147 247.10748 
L 344.963548 258.920513 
L 346.619949 262.455255 
L 348.27635 263.718115 
L 349.93275 256.824605 
L 351.589151 259.41592 
L 353.245552 255.240198 
L 354.901953 262.913353 
L 356.558353 255.183626 
L 358.214754 262.451434 
L 359.871155 237.39003 
L 361.527556 263.757536 
L 363.183956 264.004955 
L 364.840357 258.855895 
L 366.496758 261.311064 
L 368.153159 262.977728 
L 369.809559 251.662865 
L 371.46596 249.564844 
L 373.122361 261.869626 
L 374.778762 259.662282 
L 376.435162 236.090918 
L 378.091563 261.497685 
L 379.747964 260.350243 
L 381.404365 229.936414 
L 383.060765 257.583687 
L 384.717166 262.765422 
L 386.373567 264.264322 
L 388.029968 258.241656 
L 389.686368 262.061042 
L 391.342769 259.327649 
L 392.99917 261.142731 
L 394.655571 258.689269 
L 396.311971 260.011709 
L 397.968372 255.504117 
L 399.624773 263.125578 
L 399.624773 263.125578 
" style="fill:none;stroke:#ff7f0e;stroke-linecap:square;stroke-width:1.5;"/>
   </g>
   <g id="line2d_19">
    <path clip-path="url(#pbc831db58a)" d="M 74.970227 262.808501 
L 76.626628 261.893116 
L 78.283029 264.439645 
L 79.939429 262.641388 
L 81.59583 264.549456 
L 84.908632 259.849066 
L 86.565032 264.105581 
L 88.221433 260.428679 
L 89.877834 246.782682 
L 91.534235 264.428835 
L 93.190635 261.491833 
L 94.847036 263.496462 
L 96.503437 264.098347 
L 98.159838 263.489147 
L 99.816238 264.210027 
L 101.472639 264.268305 
L 103.12904 262.980491 
L 104.785441 262.240917 
L 106.441841 263.863608 
L 108.098242 263.707142 
L 111.411044 264.314473 
L 113.067444 264.4533 
L 114.723845 262.749735 
L 116.380246 259.250107 
L 118.036647 262.47655 
L 119.693047 262.162887 
L 121.349448 262.892708 
L 123.005849 264.418512 
L 124.66225 263.159959 
L 126.31865 263.984229 
L 127.975051 263.748758 
L 129.631452 260.157445 
L 131.287853 261.985289 
L 132.944253 264.028852 
L 134.600654 264.233679 
L 136.257055 257.600919 
L 137.913455 263.875556 
L 139.569856 263.900184 
L 141.226257 263.483701 
L 142.882658 264.450374 
L 144.539058 264.241076 
L 146.195459 258.741777 
L 147.85186 260.573684 
L 149.508261 259.490617 
L 151.164661 264.184179 
L 152.821062 263.016255 
L 154.477463 257.603195 
L 156.133864 263.214987 
L 157.790264 262.620986 
L 159.446665 264.423226 
L 161.103066 258.844922 
L 162.759467 262.324311 
L 164.415867 263.750709 
L 166.072268 258.870282 
L 167.728669 263.899859 
L 171.04147 264.056731 
L 172.697871 263.495893 
L 174.354272 261.84703 
L 176.010673 264.304881 
L 177.667073 264.206776 
L 179.323474 259.544913 
L 180.979875 264.29334 
L 182.636276 263.367388 
L 184.292676 264.175889 
L 185.949077 262.214988 
L 187.605478 264.449399 
L 189.261878 263.719416 
L 190.918279 262.441274 
L 192.57468 264.190844 
L 194.231081 264.034785 
L 195.887481 258.284491 
L 197.543882 264.454194 
L 199.200283 261.773064 
L 202.513084 263.436396 
L 204.169485 263.324147 
L 205.825886 260.399174 
L 209.138687 263.367632 
L 210.795088 259.988218 
L 212.451489 262.471836 
L 214.10789 259.055033 
L 215.76429 263.228235 
L 217.420691 262.033244 
L 219.077092 264.155162 
L 220.733493 261.839471 
L 222.389893 260.046578 
L 224.046294 263.565063 
L 225.702695 264.066972 
L 227.359096 262.819068 
L 229.015496 262.88076 
L 230.671897 263.824756 
L 232.328298 262.535641 
L 233.984699 258.483385 
L 235.641099 263.751196 
L 237.2975 263.534258 
L 238.953901 264.494916 
L 240.610301 264.523933 
L 242.266702 263.884741 
L 243.923103 263.970492 
L 245.579504 262.849467 
L 247.235904 263.402502 
L 248.892305 263.664145 
L 250.548706 264.243677 
L 252.205107 263.432738 
L 253.861507 264.314473 
L 255.517908 261.741853 
L 257.174309 263.979596 
L 258.83071 263.861413 
L 260.48711 263.91961 
L 262.143511 264.310083 
L 263.799912 260.506953 
L 265.456313 264.086317 
L 267.112713 259.541174 
L 268.769114 264.154187 
L 270.425515 262.585304 
L 272.081916 263.580507 
L 273.738316 264.028527 
L 275.394717 262.600016 
L 277.051118 264.008938 
L 278.707519 263.318376 
L 280.363919 262.930016 
L 282.02032 260.895882 
L 283.676721 263.379174 
L 285.333122 262.45436 
L 286.989522 260.267743 
L 288.645923 264.44379 
L 290.302324 262.479639 
L 291.958724 261.521744 
L 293.615125 263.616351 
L 296.927927 262.316752 
L 298.584327 262.73738 
L 300.240728 254.807215 
L 301.897129 263.341785 
L 303.55353 260.535401 
L 305.20993 263.749733 
L 306.866331 263.900265 
L 308.522732 264.284886 
L 310.179133 260.621396 
L 311.835533 264.148009 
L 313.491934 258.505818 
L 315.148335 264.015847 
L 316.804736 264.478822 
L 318.461136 264.34918 
L 320.117537 264.001216 
L 321.773938 262.756644 
L 323.430339 264.137931 
L 325.086739 263.767453 
L 326.74314 263.871411 
L 328.399541 264.344303 
L 330.055942 263.70259 
L 331.712342 262.645696 
L 333.368743 259.842644 
L 336.681545 264.080546 
L 338.337945 263.823536 
L 339.994346 263.447612 
L 341.650747 263.449482 
L 343.307147 251.472343 
L 344.963548 259.281563 
L 346.619949 264.046896 
L 348.27635 264.497192 
L 351.589151 262.148501 
L 353.245552 258.125749 
L 354.901953 264.285049 
L 356.558353 260.906286 
L 358.214754 263.595869 
L 359.871155 253.211347 
L 361.527556 263.470696 
L 363.183956 263.950416 
L 364.840357 263.473541 
L 366.496758 263.836948 
L 368.153159 263.752009 
L 369.809559 263.113223 
L 371.46596 262.29188 
L 373.122361 263.964802 
L 374.778762 264.283423 
L 376.435162 263.130861 
L 378.091563 263.190602 
L 379.747964 262.623912 
L 381.404365 253.683751 
L 383.060765 261.68967 
L 384.717166 264.394616 
L 386.373567 264.366167 
L 388.029968 263.979839 
L 389.686368 264.273182 
L 391.342769 262.585223 
L 392.99917 264.350155 
L 394.655571 263.087376 
L 396.311971 264.339426 
L 397.968372 263.915059 
L 399.624773 263.296999 
L 399.624773 263.296999 
" style="fill:none;stroke:#2ca02c;stroke-linecap:square;stroke-width:1.5;"/>
   </g>
   <g id="line2d_20">
    <path clip-path="url(#pbc831db58a)" d="M 74.970227 260.512236 
L 76.626628 258.297414 
L 78.283029 264.429891 
L 79.939429 255.893452 
L 81.59583 264.549293 
L 83.252231 264.131509 
L 84.908632 260.109571 
L 86.565032 264.113628 
L 88.221433 260.648707 
L 89.877834 256.049755 
L 91.534235 264.184179 
L 93.190635 262.887587 
L 94.847036 263.966916 
L 96.503437 263.040477 
L 98.159838 264.361941 
L 99.816238 264.413148 
L 101.472639 263.941068 
L 103.12904 262.073885 
L 104.785441 263.707142 
L 106.441841 262.511907 
L 108.098242 257.819239 
L 109.754643 264.4368 
L 111.411044 264.334386 
L 113.067444 264.519707 
L 114.723845 260.166549 
L 116.380246 262.140698 
L 118.036647 263.436233 
L 119.693047 263.814677 
L 121.349448 261.493621 
L 123.005849 262.507518 
L 124.66225 259.41909 
L 126.31865 262.239779 
L 127.975051 263.207346 
L 129.631452 263.55344 
L 131.287853 261.31586 
L 132.944253 264.320244 
L 134.600654 264.012839 
L 136.257055 254.522325 
L 137.913455 263.275134 
L 139.569856 264.217911 
L 141.226257 264.083635 
L 144.539058 264.49898 
L 146.195459 260.087218 
L 147.85186 261.624239 
L 149.508261 261.696254 
L 151.164661 264.458421 
L 152.821062 263.500526 
L 154.477463 260.851096 
L 156.133864 264.197266 
L 157.790264 263.676743 
L 159.446665 264.404776 
L 161.103066 263.759324 
L 162.759467 262.932942 
L 164.415867 263.831502 
L 166.072268 221.419075 
L 167.728669 264.217748 
L 169.38507 263.98878 
L 171.04147 264.39681 
L 172.697871 263.342435 
L 174.354272 263.284969 
L 176.010673 264.419731 
L 177.667073 264.09981 
L 179.323474 261.689264 
L 180.979875 263.675199 
L 182.636276 261.561328 
L 184.292676 264.114603 
L 185.949077 261.956515 
L 187.605478 264.438914 
L 189.261878 263.460861 
L 190.918279 262.654311 
L 192.57468 264.339101 
L 194.231081 264.037224 
L 195.887481 261.116315 
L 197.543882 264.453219 
L 199.200283 263.319351 
L 200.856684 262.678289 
L 204.169485 264.368037 
L 205.825886 263.602696 
L 207.482287 263.106802 
L 209.138687 262.952206 
L 210.795088 263.608386 
L 212.451489 262.448508 
L 214.10789 263.268388 
L 215.76429 263.131674 
L 217.420691 262.74559 
L 219.077092 264.009751 
L 220.733493 260.422827 
L 222.389893 262.543363 
L 224.046294 263.199218 
L 225.702695 264.297322 
L 227.359096 263.181661 
L 229.015496 262.436235 
L 230.671897 264.156056 
L 232.328298 260.190689 
L 233.984699 261.040318 
L 235.641099 262.393481 
L 237.2975 261.349429 
L 238.953901 263.817034 
L 242.266702 264.010238 
L 243.923103 261.349429 
L 245.579504 263.658374 
L 247.235904 262.700885 
L 248.892305 263.230593 
L 250.548706 263.93164 
L 252.205107 263.32878 
L 253.861507 259.845164 
L 255.517908 263.04958 
L 257.174309 263.945376 
L 258.83071 264.121918 
L 260.48711 263.763307 
L 262.143511 263.641142 
L 265.456313 263.911482 
L 267.112713 263.65878 
L 268.769114 264.418106 
L 270.425515 263.365194 
L 272.081916 262.97659 
L 273.738316 263.40047 
L 275.394717 263.580425 
L 277.051118 263.594487 
L 278.707519 262.032432 
L 280.363919 264.029096 
L 282.02032 264.080303 
L 283.676721 262.173779 
L 286.989522 262.827114 
L 288.645923 264.533199 
L 290.302324 262.768592 
L 291.958724 262.83321 
L 293.615125 264.157113 
L 295.271526 260.500125 
L 296.927927 263.468095 
L 298.584327 262.620905 
L 300.240728 262.9201 
L 301.897129 263.053969 
L 303.55353 263.440785 
L 305.20993 264.21531 
L 306.866331 263.503371 
L 308.522732 264.058601 
L 310.179133 262.495163 
L 311.835533 263.927738 
L 313.491934 263.145979 
L 315.148335 263.208972 
L 316.804736 263.886041 
L 318.461136 264.280904 
L 320.117537 264.315936 
L 321.773938 263.980246 
L 323.430339 264.133298 
L 325.086739 263.936435 
L 326.74314 263.119319 
L 328.399541 264.431273 
L 330.055942 262.248395 
L 331.712342 263.667884 
L 333.368743 262.993821 
L 335.025144 262.01772 
L 336.681545 262.906445 
L 338.337945 264.026576 
L 339.994346 259.407792 
L 341.650747 264.019342 
L 343.307147 255.055609 
L 344.963548 260.743886 
L 346.619949 264.369581 
L 348.27635 264.474271 
L 349.93275 263.791999 
L 351.589151 262.878565 
L 354.901953 264.353731 
L 356.558353 262.451272 
L 358.214754 264.47931 
L 359.871155 256.857849 
L 361.527556 264.465411 
L 363.183956 264.35999 
L 364.840357 263.595218 
L 366.496758 264.288219 
L 368.153159 264.165404 
L 369.809559 262.542875 
L 371.46596 263.460942 
L 374.778762 263.813376 
L 376.435162 263.424366 
L 378.091563 263.302038 
L 379.747964 264.155081 
L 381.404365 262.921644 
L 383.060765 264.030315 
L 384.717166 264.389007 
L 386.373567 264.435825 
L 388.029968 263.074208 
L 389.686368 263.922536 
L 391.342769 262.634398 
L 392.99917 264.131347 
L 394.655571 264.096071 
L 396.311971 263.655529 
L 397.968372 264.438914 
L 399.624773 263.772573 
L 399.624773 263.772573 
" style="fill:none;stroke:#d62728;stroke-linecap:square;stroke-width:1.5;"/>
   </g>
   <g id="line2d_21">
    <path clip-path="url(#pbc831db58a)" d="M 74.970227 264.078921 
L 76.626628 256.325053 
L 78.283029 264.49329 
L 79.939429 252.895408 
L 81.59583 264.549537 
L 83.252231 264.212628 
L 84.908632 260.052024 
L 86.565032 264.371369 
L 88.221433 259.049181 
L 89.877834 259.332851 
L 91.534235 262.821587 
L 93.190635 263.754448 
L 94.847036 263.399494 
L 96.503437 261.903114 
L 98.159838 264.144271 
L 99.816238 264.400143 
L 101.472639 264.44883 
L 103.12904 263.030073 
L 104.785441 264.37649 
L 106.441841 262.904575 
L 108.098242 261.75437 
L 111.411044 264.403069 
L 113.067444 264.504426 
L 114.723845 263.416238 
L 116.380246 262.993415 
L 118.036647 264.227177 
L 119.693047 260.10193 
L 121.349448 263.057139 
L 123.005849 262.314964 
L 124.66225 261.061126 
L 126.31865 263.928876 
L 127.975051 263.058521 
L 129.631452 263.34463 
L 131.287853 262.912784 
L 132.944253 264.206288 
L 134.600654 263.902216 
L 136.257055 262.796797 
L 137.913455 264.314879 
L 139.569856 264.132078 
L 141.226257 264.190194 
L 144.539058 264.496379 
L 146.195459 262.88523 
L 147.85186 262.74559 
L 149.508261 263.211735 
L 151.164661 264.423795 
L 152.821062 261.006911 
L 154.477463 260.040319 
L 156.133864 264.205881 
L 157.790264 263.321383 
L 159.446665 264.440702 
L 161.103066 262.306836 
L 162.759467 264.093876 
L 164.415867 264.128177 
L 166.072268 244.658895 
L 167.728669 263.302201 
L 169.38507 264.074613 
L 171.04147 264.009507 
L 172.697871 263.630738 
L 174.354272 264.034054 
L 176.010673 264.238312 
L 177.667073 263.873199 
L 179.323474 262.538811 
L 180.979875 263.982522 
L 182.636276 262.365195 
L 184.292676 264.227096 
L 185.949077 261.718525 
L 187.605478 264.206938 
L 189.261878 263.77176 
L 190.918279 262.886937 
L 192.57468 264.299192 
L 194.231081 263.919285 
L 195.887481 263.714864 
L 197.543882 264.461591 
L 199.200283 263.779563 
L 200.856684 264.15378 
L 202.513084 262.876208 
L 204.169485 264.003817 
L 205.825886 262.979272 
L 207.482287 263.38909 
L 209.138687 263.202795 
L 210.795088 262.36991 
L 212.451489 263.897095 
L 214.10789 263.080955 
L 215.76429 263.740792 
L 217.420691 263.175484 
L 219.077092 264.301468 
L 222.389893 262.600991 
L 224.046294 263.19873 
L 225.702695 264.202305 
L 227.359096 263.049092 
L 229.015496 263.244654 
L 230.671897 264.281798 
L 232.328298 262.737868 
L 233.984699 263.002112 
L 235.641099 261.789483 
L 237.2975 263.559617 
L 238.953901 264.008206 
L 240.610301 264.210758 
L 243.923103 262.369097 
L 245.579504 261.811348 
L 247.235904 264.231078 
L 248.892305 263.742824 
L 250.548706 264.028689 
L 252.205107 263.907581 
L 253.861507 263.019994 
L 255.517908 263.394373 
L 257.174309 264.049091 
L 258.83071 263.778182 
L 260.48711 263.09973 
L 262.143511 264.193852 
L 263.799912 263.24311 
L 265.456313 263.975775 
L 267.112713 263.466144 
L 268.769114 264.303825 
L 270.425515 259.782497 
L 272.081916 260.941805 
L 273.738316 263.74193 
L 275.394717 262.89791 
L 277.051118 263.681701 
L 278.707519 263.739411 
L 280.363919 264.173369 
L 282.02032 264.011701 
L 283.676721 263.636103 
L 285.333122 261.846867 
L 286.989522 261.801513 
L 288.645923 264.528079 
L 290.302324 262.990326 
L 291.958724 263.021294 
L 293.615125 263.949684 
L 295.271526 262.637893 
L 296.927927 261.524182 
L 298.584327 261.726409 
L 300.240728 259.726575 
L 301.897129 263.701046 
L 303.55353 263.246198 
L 305.20993 262.326343 
L 306.866331 263.911482 
L 308.522732 264.460697 
L 310.179133 262.797528 
L 311.835533 263.826544 
L 313.491934 262.165488 
L 315.148335 262.800129 
L 316.804736 262.518979 
L 318.461136 264.460859 
L 320.117537 263.608792 
L 321.773938 262.485328 
L 323.430339 263.744694 
L 325.086739 264.193771 
L 326.74314 263.164674 
L 328.399541 263.358854 
L 330.055942 263.743312 
L 331.712342 262.725432 
L 333.368743 263.716083 
L 335.025144 262.45558 
L 336.681545 262.905794 
L 338.337945 264.195234 
L 339.994346 262.466146 
L 341.650747 264.447123 
L 343.307147 257.082591 
L 344.963548 256.291809 
L 346.619949 263.951879 
L 348.27635 264.455088 
L 349.93275 263.472322 
L 351.589151 264.199867 
L 353.245552 263.35544 
L 354.901953 263.920261 
L 356.558353 254.463234 
L 358.214754 263.539216 
L 359.871155 262.220272 
L 361.527556 264.41266 
L 363.183956 264.350399 
L 364.840357 263.988455 
L 366.496758 264.408027 
L 368.153159 264.188081 
L 369.809559 263.687716 
L 371.46596 262.342274 
L 373.122361 264.044214 
L 374.778762 263.541573 
L 376.435162 264.062827 
L 379.747964 264.013571 
L 381.404365 261.898237 
L 383.060765 263.576361 
L 384.717166 264.323251 
L 386.373567 264.445335 
L 389.686368 264.048522 
L 391.342769 262.000732 
L 392.99917 264.108995 
L 394.655571 264.177677 
L 396.311971 263.902704 
L 397.968372 263.05592 
L 399.624773 263.90181 
L 399.624773 263.90181 
" style="fill:none;stroke:#9467bd;stroke-linecap:square;stroke-width:1.5;"/>
   </g>
   <g id="line2d_22">
    <path clip-path="url(#pbc831db58a)" d="M 74.970227 263.022432 
L 76.626628 257.459734 
L 78.283029 264.437451 
L 79.939429 258.618474 
L 81.59583 264.549293 
L 83.252231 264.436313 
L 84.908632 262.787043 
L 86.565032 264.17215 
L 88.221433 262.136552 
L 89.877834 263.162967 
L 91.534235 263.286595 
L 94.847036 264.133135 
L 96.503437 262.973664 
L 98.159838 264.024869 
L 99.816238 264.409409 
L 101.472639 264.381611 
L 103.12904 263.074127 
L 104.785441 263.500364 
L 106.441841 263.273346 
L 108.098242 263.321952 
L 109.754643 262.495245 
L 111.411044 264.435987 
L 113.067444 264.434443 
L 114.723845 263.423553 
L 116.380246 262.62188 
L 118.036647 262.554417 
L 119.693047 261.653907 
L 121.349448 261.729091 
L 123.005849 263.480856 
L 124.66225 263.420871 
L 126.31865 263.794194 
L 127.975051 263.929852 
L 129.631452 263.454277 
L 131.287853 262.0647 
L 132.944253 264.451431 
L 134.600654 264.209783 
L 136.257055 263.404127 
L 137.913455 264.063721 
L 139.569856 264.251805 
L 141.226257 264.026982 
L 142.882658 264.456389 
L 144.539058 264.377953 
L 146.195459 262.71389 
L 147.85186 262.790782 
L 149.508261 263.826625 
L 151.164661 264.447773 
L 154.477463 260.341059 
L 156.133864 264.237012 
L 157.790264 263.928063 
L 159.446665 264.515399 
L 161.103066 262.871412 
L 162.759467 264.179872 
L 164.415867 264.179384 
L 166.072268 257.65814 
L 167.728669 264.244815 
L 169.38507 264.12712 
L 171.04147 264.453138 
L 172.697871 263.29895 
L 174.354272 262.578395 
L 176.010673 264.051285 
L 177.667073 263.884903 
L 179.323474 262.014306 
L 180.979875 264.246034 
L 182.636276 262.830122 
L 184.292676 264.250179 
L 185.949077 262.848654 
L 187.605478 264.095177 
L 189.261878 262.765666 
L 190.918279 263.313418 
L 192.57468 264.330404 
L 194.231081 264.153049 
L 195.887481 263.296349 
L 197.543882 264.470857 
L 199.200283 263.585871 
L 200.856684 262.47525 
L 202.513084 262.938876 
L 204.169485 264.232948 
L 205.825886 262.503292 
L 207.482287 263.320245 
L 209.138687 262.994553 
L 210.795088 261.857028 
L 212.451489 263.401933 
L 214.10789 263.487928 
L 215.76429 261.974153 
L 217.420691 262.965454 
L 219.077092 264.340157 
L 220.733493 263.061203 
L 222.389893 262.271235 
L 224.046294 262.940014 
L 225.702695 263.846214 
L 227.359096 263.298381 
L 229.015496 262.470698 
L 230.671897 263.773061 
L 232.328298 263.08762 
L 233.984699 262.522555 
L 235.641099 262.74372 
L 237.2975 263.117775 
L 238.953901 264.092576 
L 240.610301 264.076645 
L 242.266702 263.647319 
L 243.923103 262.715272 
L 245.579504 263.038282 
L 247.235904 262.927496 
L 248.892305 263.37259 
L 250.548706 264.207507 
L 252.205107 263.209947 
L 253.861507 261.706089 
L 255.517908 262.824107 
L 257.174309 264.136711 
L 258.83071 261.72267 
L 260.48711 262.84272 
L 262.143511 263.154595 
L 263.799912 262.215639 
L 265.456313 264.313985 
L 267.112713 263.402583 
L 268.769114 264.263672 
L 270.425515 262.704218 
L 272.081916 262.056978 
L 273.738316 263.200112 
L 275.394717 259.763883 
L 277.051118 262.318296 
L 278.707519 262.046981 
L 280.363919 264.008694 
L 282.02032 262.401772 
L 283.676721 263.098755 
L 285.333122 262.967324 
L 286.989522 261.187436 
L 288.645923 264.507596 
L 290.302324 263.842393 
L 291.958724 261.966025 
L 293.615125 261.224825 
L 295.271526 261.590589 
L 296.927927 263.49443 
L 298.584327 262.989676 
L 301.897129 262.411119 
L 303.55353 262.787937 
L 305.20993 262.653499 
L 306.866331 263.513694 
L 308.522732 264.083798 
L 310.179133 262.736161 
L 311.835533 263.730063 
L 313.491934 261.865562 
L 315.148335 263.92213 
L 316.804736 262.68723 
L 318.461136 264.018854 
L 320.117537 263.568477 
L 321.773938 262.409331 
L 323.430339 263.804191 
L 325.086739 264.307564 
L 326.74314 262.75575 
L 328.399541 262.950905 
L 330.055942 261.761766 
L 331.712342 262.5102 
L 333.368743 262.428269 
L 335.025144 261.415673 
L 336.681545 261.467774 
L 338.337945 263.392585 
L 339.994346 263.436721 
L 341.650747 264.002273 
L 343.307147 261.591646 
L 344.963548 261.478828 
L 346.619949 263.849465 
L 348.27635 264.485162 
L 349.93275 263.459073 
L 351.589151 264.205394 
L 353.245552 263.155895 
L 354.901953 264.221 
L 356.558353 259.934004 
L 358.214754 264.012108 
L 359.871155 259.359674 
L 361.527556 264.295372 
L 363.183956 264.421601 
L 364.840357 263.526048 
L 366.496758 264.364948 
L 368.153159 264.376165 
L 369.809559 263.960007 
L 371.46596 262.595139 
L 373.122361 263.9748 
L 374.778762 263.906199 
L 376.435162 263.410792 
L 378.091563 263.118669 
L 379.747964 264.062827 
L 381.404365 261.348616 
L 383.060765 263.873199 
L 384.717166 264.304881 
L 386.373567 264.47931 
L 389.686368 263.969354 
L 391.342769 262.355848 
L 392.99917 264.145571 
L 394.655571 262.531415 
L 396.311971 263.963583 
L 397.968372 263.689179 
L 399.624773 263.531332 
L 399.624773 263.531332 
" style="fill:none;stroke:#8c564b;stroke-linecap:square;stroke-width:1.5;"/>
   </g>
   <g id="line2d_23">
    <path clip-path="url(#pbc831db58a)" d="M 74.970227 264.268143 
L 76.626628 261.423801 
L 78.283029 264.522064 
L 79.939429 262.779077 
L 81.59583 264.549537 
L 84.908632 264.319106 
L 86.565032 264.463054 
L 88.221433 263.046573 
L 89.877834 264.104849 
L 91.534235 264.34097 
L 93.190635 263.927901 
L 94.847036 264.495973 
L 96.503437 264.12964 
L 98.159838 264.222707 
L 99.816238 264.466224 
L 101.472639 264.125251 
L 103.12904 263.65626 
L 104.785441 263.865315 
L 106.441841 263.46842 
L 108.098242 263.777125 
L 109.754643 264.475571 
L 111.411044 264.534906 
L 114.723845 264.331867 
L 116.380246 264.116229 
L 118.036647 264.128827 
L 119.693047 263.564332 
L 121.349448 264.149391 
L 123.005849 264.434362 
L 124.66225 263.813864 
L 126.31865 264.193852 
L 129.631452 264.311384 
L 131.287853 263.452571 
L 132.944253 264.517756 
L 136.257055 263.80476 
L 137.913455 263.94115 
L 139.569856 264.379497 
L 141.226257 264.290982 
L 142.882658 264.509872 
L 144.539058 264.482074 
L 146.195459 263.860682 
L 147.85186 263.041615 
L 149.508261 264.134354 
L 151.164661 264.526209 
L 152.821062 262.878809 
L 154.477463 263.678044 
L 156.133864 264.321381 
L 159.446665 264.524502 
L 161.103066 262.465984 
L 162.759467 264.420382 
L 164.415867 264.429079 
L 166.072268 262.887994 
L 167.728669 264.368118 
L 169.38507 264.337231 
L 171.04147 264.499874 
L 172.697871 263.240915 
L 174.354272 263.743231 
L 176.010673 264.386975 
L 177.667073 264.321625 
L 179.323474 263.327886 
L 180.979875 264.269606 
L 184.292676 264.298379 
L 185.949077 262.394619 
L 187.605478 264.330079 
L 189.261878 263.967485 
L 190.918279 263.778182 
L 192.57468 264.314554 
L 194.231081 264.200436 
L 195.887481 263.495162 
L 197.543882 264.53767 
L 199.200283 263.372834 
L 200.856684 263.196048 
L 202.513084 263.38527 
L 204.169485 264.360884 
L 205.825886 263.213117 
L 207.482287 262.915548 
L 209.138687 263.643174 
L 210.795088 263.804191 
L 212.451489 263.671379 
L 214.10789 263.989837 
L 215.76429 263.951554 
L 217.420691 262.754206 
L 219.077092 264.147603 
L 220.733493 263.68861 
L 222.389893 263.414612 
L 224.046294 263.54897 
L 225.702695 264.228071 
L 227.359096 263.466226 
L 229.015496 261.883119 
L 230.671897 264.31301 
L 232.328298 263.398681 
L 233.984699 263.291553 
L 235.641099 263.69365 
L 237.2975 262.960171 
L 238.953901 263.910344 
L 240.610301 264.233273 
L 242.266702 263.593674 
L 243.923103 263.284319 
L 247.235904 263.95196 
L 248.892305 262.224011 
L 250.548706 264.443059 
L 252.205107 263.724943 
L 253.861507 264.046571 
L 255.517908 263.337721 
L 257.174309 264.331623 
L 258.83071 264.179628 
L 260.48711 262.257905 
L 262.143511 263.234494 
L 263.799912 263.282612 
L 265.456313 263.84597 
L 267.112713 263.670647 
L 268.769114 264.283911 
L 270.425515 263.74762 
L 272.081916 261.817444 
L 273.738316 263.34658 
L 275.394717 263.487928 
L 278.707519 263.303745 
L 280.363919 264.26733 
L 282.02032 262.540681 
L 283.676721 261.872146 
L 285.333122 263.703647 
L 286.989522 263.21328 
L 288.645923 264.511416 
L 290.302324 263.924975 
L 291.958724 262.775095 
L 293.615125 263.627568 
L 295.271526 263.37007 
L 298.584327 263.246361 
L 300.240728 263.476548 
L 301.897129 264.029665 
L 303.55353 262.059905 
L 305.20993 263.209947 
L 306.866331 262.438023 
L 308.522732 264.2718 
L 310.179133 263.466144 
L 311.835533 263.466551 
L 313.491934 263.245142 
L 315.148335 264.329835 
L 316.804736 263.472891 
L 318.461136 263.969923 
L 320.117537 263.955862 
L 321.773938 263.774443 
L 323.430339 264.085179 
L 325.086739 264.00211 
L 326.74314 262.726651 
L 328.399541 262.156629 
L 330.055942 263.300982 
L 331.712342 263.869297 
L 333.368743 263.371859 
L 336.681545 263.147361 
L 338.337945 264.023162 
L 339.994346 263.5141 
L 341.650747 264.445091 
L 343.307147 264.227909 
L 344.963548 260.716495 
L 346.619949 264.500768 
L 348.27635 264.478579 
L 349.93275 263.990975 
L 351.589151 264.391283 
L 353.245552 263.792893 
L 354.901953 264.344953 
L 356.558353 263.093228 
L 358.214754 264.454845 
L 359.871155 262.692351 
L 361.527556 264.412416 
L 363.183956 264.452244 
L 364.840357 264.192226 
L 368.153159 264.424933 
L 369.809559 264.207344 
L 371.46596 263.558805 
L 373.122361 264.201248 
L 374.778762 263.676337 
L 378.091563 264.134354 
L 379.747964 264.440702 
L 381.404365 263.777613 
L 384.717166 264.487845 
L 388.029968 264.268793 
L 389.686368 264.429729 
L 391.342769 263.804598 
L 392.99917 264.08266 
L 394.655571 263.813132 
L 396.311971 264.020155 
L 397.968372 263.974556 
L 399.624773 264.289032 
L 399.624773 264.289032 
" style="fill:none;stroke:#e377c2;stroke-linecap:square;stroke-width:1.5;"/>
   </g>
   <g id="line2d_24">
    <path clip-path="url(#pbc831db58a)" d="M 74.970227 264.501256 
L 76.626628 263.482482 
L 78.283029 264.542059 
L 79.939429 263.821342 
L 81.59583 264.549537 
L 86.565032 264.484268 
L 88.221433 264.011458 
L 89.877834 263.894494 
L 91.534235 264.518731 
L 93.190635 263.860113 
L 94.847036 264.497598 
L 96.503437 264.477522 
L 98.159838 264.235224 
L 99.816238 264.52182 
L 101.472639 264.380473 
L 103.12904 263.741118 
L 106.441841 264.082822 
L 108.098242 264.149635 
L 109.754643 264.484106 
L 114.723845 264.464761 
L 116.380246 264.465005 
L 119.693047 264.055512 
L 121.349448 264.421032 
L 123.005849 264.505808 
L 124.66225 264.327965 
L 126.31865 264.505239 
L 127.975051 264.37901 
L 129.631452 264.391527 
L 131.287853 264.172963 
L 132.944253 264.512229 
L 134.600654 264.494916 
L 136.257055 263.989837 
L 139.569856 264.490689 
L 144.539058 264.526372 
L 146.195459 264.048115 
L 147.85186 263.932859 
L 149.508261 264.395103 
L 151.164661 264.537507 
L 152.821062 264.150448 
L 154.477463 263.599201 
L 156.133864 264.509222 
L 157.790264 264.439239 
L 159.446665 264.528648 
L 161.103066 264.239857 
L 162.759467 264.448098 
L 164.415867 264.473864 
L 166.072268 263.128666 
L 167.728669 264.502963 
L 171.04147 264.467606 
L 174.354272 263.834184 
L 176.010673 264.482724 
L 177.667073 264.438588 
L 179.323474 264.168736 
L 180.979875 264.35495 
L 182.636276 264.089894 
L 184.292676 264.423958 
L 185.949077 264.143458 
L 187.605478 264.379741 
L 189.261878 264.35934 
L 190.918279 264.194096 
L 192.57468 264.443628 
L 194.231081 264.489552 
L 195.887481 264.202142 
L 197.543882 264.54401 
L 199.200283 264.081603 
L 200.856684 264.148578 
L 202.513084 264.373726 
L 204.169485 264.475978 
L 205.825886 263.791512 
L 207.482287 262.79826 
L 209.138687 264.133135 
L 210.795088 264.219943 
L 212.451489 263.763551 
L 214.10789 264.151748 
L 217.420691 263.954967 
L 219.077092 264.478254 
L 220.733493 264.069086 
L 222.389893 264.218724 
L 224.046294 263.817115 
L 225.702695 264.496867 
L 227.359096 264.197835 
L 229.015496 264.099241 
L 230.671897 264.452 
L 235.641099 263.748595 
L 237.2975 264.198485 
L 238.953901 264.460697 
L 245.579504 263.845807 
L 247.235904 264.426478 
L 248.892305 263.997152 
L 250.548706 264.464436 
L 252.205107 263.941963 
L 253.861507 263.804273 
L 257.174309 264.380554 
L 258.83071 263.876044 
L 262.143511 264.034379 
L 263.799912 264.03698 
L 265.456313 264.468419 
L 267.112713 264.117773 
L 268.769114 264.406889 
L 270.425515 263.547588 
L 272.081916 264.428591 
L 273.738316 263.700965 
L 275.394717 264.024219 
L 278.707519 264.213115 
L 280.363919 264.016416 
L 282.02032 263.073233 
L 283.676721 264.025844 
L 285.333122 264.020399 
L 286.989522 263.858081 
L 288.645923 264.536613 
L 290.302324 264.404938 
L 291.958724 263.651709 
L 295.271526 263.996421 
L 296.927927 263.650571 
L 298.584327 263.860763 
L 300.240728 263.15362 
L 303.55353 264.206613 
L 305.20993 263.261154 
L 308.522732 264.469313 
L 310.179133 263.999834 
L 311.835533 264.405914 
L 313.491934 263.916278 
L 315.148335 264.215391 
L 316.804736 263.266031 
L 318.461136 264.366086 
L 320.117537 263.768022 
L 321.773938 263.517189 
L 323.430339 264.428916 
L 325.086739 264.349586 
L 326.74314 264.151017 
L 328.399541 264.165729 
L 330.055942 263.603753 
L 331.712342 264.009344 
L 333.368743 264.210352 
L 335.025144 263.933753 
L 336.681545 264.050066 
L 338.337945 264.399411 
L 339.994346 264.191088 
L 341.650747 264.343165 
L 343.307147 263.738598 
L 344.963548 261.245064 
L 346.619949 264.52816 
L 348.27635 264.49329 
L 349.93275 263.740955 
L 351.589151 264.404044 
L 353.245552 264.159307 
L 354.901953 264.405588 
L 356.558353 264.384781 
L 358.214754 264.51231 
L 359.871155 264.057625 
L 361.527556 264.523283 
L 363.183956 264.526372 
L 364.840357 264.388357 
L 368.153159 264.510847 
L 369.809559 264.323495 
L 376.435162 264.346741 
L 379.747964 264.474108 
L 381.404365 263.661137 
L 383.060765 264.302768 
L 384.717166 264.521414 
L 386.373567 264.521576 
L 388.029968 264.388194 
L 389.686368 264.466955 
L 391.342769 263.171176 
L 392.99917 264.419731 
L 394.655571 263.940256 
L 396.311971 264.42851 
L 399.624773 264.481423 
L 399.624773 264.481423 
" style="fill:none;stroke:#7f7f7f;stroke-linecap:square;stroke-width:1.5;"/>
   </g>
   <g id="line2d_25">
    <path clip-path="url(#pbc831db58a)" d="M 74.970227 264.549537 
L 399.624773 264.545148 
L 399.624773 264.545148 
" style="fill:none;stroke:#bcbd22;stroke-linecap:square;stroke-width:1.5;"/>
   </g>
   <g id="line2d_26">
    <path clip-path="url(#pbc831db58a)" d="M 74.970227 264.549537 
L 399.624773 264.547911 
L 399.624773 264.547911 
" style="fill:none;stroke:#17becf;stroke-linecap:square;stroke-width:1.5;"/>
   </g>
   <g id="line2d_27">
    <path clip-path="url(#pbc831db58a)" d="M 74.970227 264.383155 
L 76.626628 264.554576 
L 84.908632 264.530355 
L 86.565032 264.716 
L 88.221433 264.716 
L 89.877834 264.548074 
L 129.631452 264.536044 
L 131.287853 264.60749 
L 137.913455 264.549293 
L 151.164661 264.54466 
L 156.133864 264.514424 
L 159.446665 264.533037 
L 167.728669 264.570589 
L 177.667073 264.54084 
L 222.389893 264.547261 
L 238.953901 264.552626 
L 399.624773 264.536451 
L 399.624773 264.536451 
" style="fill:none;stroke:#1f77b4;stroke-linecap:square;stroke-width:1.5;"/>
   </g>
   <g id="line2d_28">
    <path clip-path="url(#pbc831db58a)" d="M 74.970227 264.549537 
L 399.624773 264.549537 
L 399.624773 264.549537 
" style="fill:none;stroke:#ff7f0e;stroke-linecap:square;stroke-width:1.5;"/>
   </g>
   <g id="patch_3">
    <path d="M 58.7375 276.812 
L 58.7375 10.7 
" style="fill:none;stroke:#000000;stroke-linecap:square;stroke-linejoin:miter;stroke-width:0.8;"/>
   </g>
   <g id="patch_4">
    <path d="M 415.8575 276.812 
L 415.8575 10.7 
" style="fill:none;stroke:#000000;stroke-linecap:square;stroke-linejoin:miter;stroke-width:0.8;"/>
   </g>
   <g id="patch_5">
    <path d="M 58.7375 276.812 
L 415.8575 276.812 
" style="fill:none;stroke:#000000;stroke-linecap:square;stroke-linejoin:miter;stroke-width:0.8;"/>
   </g>
   <g id="patch_6">
    <path d="M 58.7375 10.7 
L 415.8575 10.7 
" style="fill:none;stroke:#000000;stroke-linecap:square;stroke-linejoin:miter;stroke-width:0.8;"/>
   </g>
   <g id="legend_1">
    <g id="patch_7">
     <path d="M 192.120937 165.48125 
L 282.474063 165.48125 
Q 284.474063 165.48125 284.474063 163.48125 
L 284.474063 17.7 
Q 284.474063 15.7 282.474063 15.7 
L 192.120937 15.7 
Q 190.120937 15.7 190.120937 17.7 
L 190.120937 163.48125 
Q 190.120937 165.48125 192.120937 165.48125 
z
" style="fill:#ffffff;opacity:0.8;stroke:#cccccc;stroke-linejoin:miter;"/>
    </g>
    <g id="line2d_29">
     <path d="M 194.120937 23.798437 
L 214.120937 23.798437 
" style="fill:none;stroke:#1f77b4;stroke-linecap:square;stroke-width:1.5;"/>
    </g>
    <g id="line2d_30"/>
    <g id="text_17">
     <!-- delta -->
     <defs>
      <path d="M 45.40625 46.390625 
L 45.40625 75.984375 
L 54.390625 75.984375 
L 54.390625 0 
L 45.40625 0 
L 45.40625 8.203125 
Q 42.578125 3.328125 38.25 0.953125 
Q 33.9375 -1.421875 27.875 -1.421875 
Q 17.96875 -1.421875 11.734375 6.484375 
Q 5.515625 14.40625 5.515625 27.296875 
Q 5.515625 40.1875 11.734375 48.09375 
Q 17.96875 56 27.875 56 
Q 33.9375 56 38.25 53.625 
Q 42.578125 51.265625 45.40625 46.390625 
M 14.796875 27.296875 
Q 14.796875 17.390625 18.875 11.75 
Q 22.953125 6.109375 30.078125 6.109375 
Q 37.203125 6.109375 41.296875 11.75 
Q 45.40625 17.390625 45.40625 27.296875 
Q 45.40625 37.203125 41.296875 42.84375 
Q 37.203125 48.484375 30.078125 48.484375 
Q 22.953125 48.484375 18.875 42.84375 
Q 14.796875 37.203125 14.796875 27.296875 
" id="DejaVuSans-64"/>
      <path d="M 56.203125 29.59375 
L 56.203125 25.203125 
L 14.890625 25.203125 
Q 15.484375 15.921875 20.484375 11.0625 
Q 25.484375 6.203125 34.421875 6.203125 
Q 39.59375 6.203125 44.453125 7.46875 
Q 49.3125 8.734375 54.109375 11.28125 
L 54.109375 2.78125 
Q 49.265625 0.734375 44.1875 -0.34375 
Q 39.109375 -1.421875 33.890625 -1.421875 
Q 20.796875 -1.421875 13.15625 6.1875 
Q 5.515625 13.8125 5.515625 26.8125 
Q 5.515625 40.234375 12.765625 48.109375 
Q 20.015625 56 32.328125 56 
Q 43.359375 56 49.78125 48.890625 
Q 56.203125 41.796875 56.203125 29.59375 
M 47.21875 32.234375 
Q 47.125 39.59375 43.09375 43.984375 
Q 39.0625 48.390625 32.421875 48.390625 
Q 24.90625 48.390625 20.390625 44.140625 
Q 15.875 39.890625 15.1875 32.171875 
z
" id="DejaVuSans-65"/>
      <path d="M 9.421875 75.984375 
L 18.40625 75.984375 
L 18.40625 0 
L 9.421875 0 
z
" id="DejaVuSans-6c"/>
      <path d="M 18.3125 70.21875 
L 18.3125 54.6875 
L 36.8125 54.6875 
L 36.8125 47.703125 
L 18.3125 47.703125 
L 18.3125 18.015625 
Q 18.3125 11.328125 20.140625 9.421875 
Q 21.96875 7.515625 27.59375 7.515625 
L 36.8125 7.515625 
L 36.8125 0 
L 27.59375 0 
Q 17.1875 0 13.234375 3.875 
Q 9.28125 7.765625 9.28125 18.015625 
L 9.28125 47.703125 
L 2.6875 47.703125 
L 2.6875 54.6875 
L 9.28125 54.6875 
L 9.28125 70.21875 
z
" id="DejaVuSans-74"/>
      <path d="M 34.28125 27.484375 
Q 23.390625 27.484375 19.1875 25 
Q 14.984375 22.515625 14.984375 16.5 
Q 14.984375 11.71875 18.140625 8.90625 
Q 21.296875 6.109375 26.703125 6.109375 
Q 34.1875 6.109375 38.703125 11.40625 
Q 43.21875 16.703125 43.21875 25.484375 
L 43.21875 27.484375 
z
M 52.203125 31.203125 
L 52.203125 0 
L 43.21875 0 
L 43.21875 8.296875 
Q 40.140625 3.328125 35.546875 0.953125 
Q 30.953125 -1.421875 24.3125 -1.421875 
Q 15.921875 -1.421875 10.953125 3.296875 
Q 6 8.015625 6 15.921875 
Q 6 25.140625 12.171875 29.828125 
Q 18.359375 34.515625 30.609375 34.515625 
L 43.21875 34.515625 
L 43.21875 35.40625 
Q 43.21875 41.609375 39.140625 45 
Q 35.0625 48.390625 27.6875 48.390625 
Q 23 48.390625 18.546875 47.265625 
Q 14.109375 46.140625 10.015625 43.890625 
L 10.015625 52.203125 
Q 14.9375 54.109375 19.578125 55.046875 
Q 24.21875 56 28.609375 56 
Q 40.484375 56 46.34375 49.84375 
Q 52.203125 43.703125 52.203125 31.203125 
" id="DejaVuSans-61"/>
     </defs>
     <g transform="translate(222.120937 27.298437)scale(0.1 -0.1)">
      <use xlink:href="#DejaVuSans-64"/>
      <use x="63.476562" xlink:href="#DejaVuSans-65"/>
      <use x="125" xlink:href="#DejaVuSans-6c"/>
      <use x="152.783203" xlink:href="#DejaVuSans-74"/>
      <use x="191.992188" xlink:href="#DejaVuSans-61"/>
     </g>
    </g>
    <g id="line2d_31">
     <path d="M 194.120937 38.476562 
L 214.120937 38.476562 
" style="fill:none;stroke:#ff7f0e;stroke-linecap:square;stroke-width:1.5;"/>
    </g>
    <g id="line2d_32"/>
    <g id="text_18">
     <!-- lowAlpha -->
     <defs>
      <path d="M 30.609375 48.390625 
Q 23.390625 48.390625 19.1875 42.75 
Q 14.984375 37.109375 14.984375 27.296875 
Q 14.984375 17.484375 19.15625 11.84375 
Q 23.34375 6.203125 30.609375 6.203125 
Q 37.796875 6.203125 41.984375 11.859375 
Q 46.1875 17.53125 46.1875 27.296875 
Q 46.1875 37.015625 41.984375 42.703125 
Q 37.796875 48.390625 30.609375 48.390625 
M 30.609375 56 
Q 42.328125 56 49.015625 48.375 
Q 55.71875 40.765625 55.71875 27.296875 
Q 55.71875 13.875 49.015625 6.21875 
Q 42.328125 -1.421875 30.609375 -1.421875 
Q 18.84375 -1.421875 12.171875 6.21875 
Q 5.515625 13.875 5.515625 27.296875 
Q 5.515625 40.765625 12.171875 48.375 
Q 18.84375 56 30.609375 56 
" id="DejaVuSans-6f"/>
      <path d="M 4.203125 54.6875 
L 13.1875 54.6875 
L 24.421875 12.015625 
L 35.59375 54.6875 
L 46.1875 54.6875 
L 57.421875 12.015625 
L 68.609375 54.6875 
L 77.59375 54.6875 
L 63.28125 0 
L 52.6875 0 
L 40.921875 44.828125 
L 29.109375 0 
L 18.5 0 
z
" id="DejaVuSans-77"/>
      <path d="M 34.1875 63.1875 
L 20.796875 26.90625 
L 47.609375 26.90625 
z
M 28.609375 72.90625 
L 39.796875 72.90625 
L 67.578125 0 
L 57.328125 0 
L 50.6875 18.703125 
L 17.828125 18.703125 
L 11.1875 0 
L 0.78125 0 
z
" id="DejaVuSans-41"/>
      <path d="M 18.109375 8.203125 
L 18.109375 -20.796875 
L 9.078125 -20.796875 
L 9.078125 54.6875 
L 18.109375 54.6875 
L 18.109375 46.390625 
Q 20.953125 51.265625 25.265625 53.625 
Q 29.59375 56 35.59375 56 
Q 45.5625 56 51.78125 48.09375 
Q 58.015625 40.1875 58.015625 27.296875 
Q 58.015625 14.40625 51.78125 6.484375 
Q 45.5625 -1.421875 35.59375 -1.421875 
Q 29.59375 -1.421875 25.265625 0.953125 
Q 20.953125 3.328125 18.109375 8.203125 
M 48.6875 27.296875 
Q 48.6875 37.203125 44.609375 42.84375 
Q 40.53125 48.484375 33.40625 48.484375 
Q 26.265625 48.484375 22.1875 42.84375 
Q 18.109375 37.203125 18.109375 27.296875 
Q 18.109375 17.390625 22.1875 11.75 
Q 26.265625 6.109375 33.40625 6.109375 
Q 40.53125 6.109375 44.609375 11.75 
Q 48.6875 17.390625 48.6875 27.296875 
" id="DejaVuSans-70"/>
      <path d="M 54.890625 33.015625 
L 54.890625 0 
L 45.90625 0 
L 45.90625 32.71875 
Q 45.90625 40.484375 42.875 44.328125 
Q 39.84375 48.1875 33.796875 48.1875 
Q 26.515625 48.1875 22.3125 43.546875 
Q 18.109375 38.921875 18.109375 30.90625 
L 18.109375 0 
L 9.078125 0 
L 9.078125 75.984375 
L 18.109375 75.984375 
L 18.109375 46.1875 
Q 21.34375 51.125 25.703125 53.5625 
Q 30.078125 56 35.796875 56 
Q 45.21875 56 50.046875 50.171875 
Q 54.890625 44.34375 54.890625 33.015625 
" id="DejaVuSans-68"/>
     </defs>
     <g transform="translate(222.120937 41.976562)scale(0.1 -0.1)">
      <use xlink:href="#DejaVuSans-6c"/>
      <use x="27.783203" xlink:href="#DejaVuSans-6f"/>
      <use x="88.964844" xlink:href="#DejaVuSans-77"/>
      <use x="170.751953" xlink:href="#DejaVuSans-41"/>
      <use x="239.160156" xlink:href="#DejaVuSans-6c"/>
      <use x="266.943359" xlink:href="#DejaVuSans-70"/>
      <use x="330.419922" xlink:href="#DejaVuSans-68"/>
      <use x="393.798828" xlink:href="#DejaVuSans-61"/>
     </g>
    </g>
    <g id="line2d_33">
     <path d="M 194.120937 53.154687 
L 214.120937 53.154687 
" style="fill:none;stroke:#2ca02c;stroke-linecap:square;stroke-width:1.5;"/>
    </g>
    <g id="line2d_34"/>
    <g id="text_19">
     <!-- highAlpha -->
     <defs>
      <path d="M 9.421875 54.6875 
L 18.40625 54.6875 
L 18.40625 0 
L 9.421875 0 
z
M 9.421875 75.984375 
L 18.40625 75.984375 
L 18.40625 64.59375 
L 9.421875 64.59375 
z
" id="DejaVuSans-69"/>
      <path d="M 45.40625 27.984375 
Q 45.40625 37.75 41.375 43.109375 
Q 37.359375 48.484375 30.078125 48.484375 
Q 22.859375 48.484375 18.828125 43.109375 
Q 14.796875 37.75 14.796875 27.984375 
Q 14.796875 18.265625 18.828125 12.890625 
Q 22.859375 7.515625 30.078125 7.515625 
Q 37.359375 7.515625 41.375 12.890625 
Q 45.40625 18.265625 45.40625 27.984375 
M 54.390625 6.78125 
Q 54.390625 -7.171875 48.1875 -13.984375 
Q 42 -20.796875 29.203125 -20.796875 
Q 24.46875 -20.796875 20.265625 -20.09375 
Q 16.0625 -19.390625 12.109375 -17.921875 
L 12.109375 -9.1875 
Q 16.0625 -11.328125 19.921875 -12.34375 
Q 23.78125 -13.375 27.78125 -13.375 
Q 36.625 -13.375 41.015625 -8.765625 
Q 45.40625 -4.15625 45.40625 5.171875 
L 45.40625 9.625 
Q 42.625 4.78125 38.28125 2.390625 
Q 33.9375 0 27.875 0 
Q 17.828125 0 11.671875 7.65625 
Q 5.515625 15.328125 5.515625 27.984375 
Q 5.515625 40.671875 11.671875 48.328125 
Q 17.828125 56 27.875 56 
Q 33.9375 56 38.28125 53.609375 
Q 42.625 51.21875 45.40625 46.390625 
L 45.40625 54.6875 
L 54.390625 54.6875 
z
" id="DejaVuSans-67"/>
     </defs>
     <g transform="translate(222.120937 56.654687)scale(0.1 -0.1)">
      <use xlink:href="#DejaVuSans-68"/>
      <use x="63.378906" xlink:href="#DejaVuSans-69"/>
      <use x="91.162109" xlink:href="#DejaVuSans-67"/>
      <use x="154.638672" xlink:href="#DejaVuSans-68"/>
      <use x="218.017578" xlink:href="#DejaVuSans-41"/>
      <use x="286.425781" xlink:href="#DejaVuSans-6c"/>
      <use x="314.208984" xlink:href="#DejaVuSans-70"/>
      <use x="377.685547" xlink:href="#DejaVuSans-68"/>
      <use x="441.064453" xlink:href="#DejaVuSans-61"/>
     </g>
    </g>
    <g id="line2d_35">
     <path d="M 194.120937 67.832812 
L 214.120937 67.832812 
" style="fill:none;stroke:#d62728;stroke-linecap:square;stroke-width:1.5;"/>
    </g>
    <g id="line2d_36"/>
    <g id="text_20">
     <!-- lowBeta -->
     <defs>
      <path d="M 19.671875 34.8125 
L 19.671875 8.109375 
L 35.5 8.109375 
Q 43.453125 8.109375 47.28125 11.40625 
Q 51.125 14.703125 51.125 21.484375 
Q 51.125 28.328125 47.28125 31.5625 
Q 43.453125 34.8125 35.5 34.8125 
z
M 19.671875 64.796875 
L 19.671875 42.828125 
L 34.28125 42.828125 
Q 41.5 42.828125 45.03125 45.53125 
Q 48.578125 48.25 48.578125 53.8125 
Q 48.578125 59.328125 45.03125 62.0625 
Q 41.5 64.796875 34.28125 64.796875 
z
M 9.8125 72.90625 
L 35.015625 72.90625 
Q 46.296875 72.90625 52.390625 68.21875 
Q 58.5 63.53125 58.5 54.890625 
Q 58.5 48.1875 55.375 44.234375 
Q 52.25 40.28125 46.1875 39.3125 
Q 53.46875 37.75 57.5 32.78125 
Q 61.53125 27.828125 61.53125 20.40625 
Q 61.53125 10.640625 54.890625 5.3125 
Q 48.25 0 35.984375 0 
L 9.8125 0 
z
" id="DejaVuSans-42"/>
     </defs>
     <g transform="translate(222.120937 71.332812)scale(0.1 -0.1)">
      <use xlink:href="#DejaVuSans-6c"/>
      <use x="27.783203" xlink:href="#DejaVuSans-6f"/>
      <use x="88.964844" xlink:href="#DejaVuSans-77"/>
      <use x="170.751953" xlink:href="#DejaVuSans-42"/>
      <use x="239.355469" xlink:href="#DejaVuSans-65"/>
      <use x="300.878906" xlink:href="#DejaVuSans-74"/>
      <use x="340.087891" xlink:href="#DejaVuSans-61"/>
     </g>
    </g>
    <g id="line2d_37">
     <path d="M 194.120937 82.510938 
L 214.120937 82.510938 
" style="fill:none;stroke:#9467bd;stroke-linecap:square;stroke-width:1.5;"/>
    </g>
    <g id="line2d_38"/>
    <g id="text_21">
     <!-- highBeta -->
     <g transform="translate(222.120937 86.010938)scale(0.1 -0.1)">
      <use xlink:href="#DejaVuSans-68"/>
      <use x="63.378906" xlink:href="#DejaVuSans-69"/>
      <use x="91.162109" xlink:href="#DejaVuSans-67"/>
      <use x="154.638672" xlink:href="#DejaVuSans-68"/>
      <use x="218.017578" xlink:href="#DejaVuSans-42"/>
      <use x="286.621094" xlink:href="#DejaVuSans-65"/>
      <use x="348.144531" xlink:href="#DejaVuSans-74"/>
      <use x="387.353516" xlink:href="#DejaVuSans-61"/>
     </g>
    </g>
    <g id="line2d_39">
     <path d="M 194.120937 97.189062 
L 214.120937 97.189062 
" style="fill:none;stroke:#8c564b;stroke-linecap:square;stroke-width:1.5;"/>
    </g>
    <g id="line2d_40"/>
    <g id="text_22">
     <!-- lowGamma -->
     <defs>
      <path d="M 59.515625 10.40625 
L 59.515625 29.984375 
L 43.40625 29.984375 
L 43.40625 38.09375 
L 69.28125 38.09375 
L 69.28125 6.78125 
Q 63.578125 2.734375 56.6875 0.65625 
Q 49.8125 -1.421875 42 -1.421875 
Q 24.90625 -1.421875 15.25 8.5625 
Q 5.609375 18.5625 5.609375 36.375 
Q 5.609375 54.25 15.25 64.234375 
Q 24.90625 74.21875 42 74.21875 
Q 49.125 74.21875 55.546875 72.453125 
Q 61.96875 70.703125 67.390625 67.28125 
L 67.390625 56.78125 
Q 61.921875 61.421875 55.765625 63.765625 
Q 49.609375 66.109375 42.828125 66.109375 
Q 29.4375 66.109375 22.71875 58.640625 
Q 16.015625 51.171875 16.015625 36.375 
Q 16.015625 21.625 22.71875 14.15625 
Q 29.4375 6.6875 42.828125 6.6875 
Q 48.046875 6.6875 52.140625 7.59375 
Q 56.25 8.5 59.515625 10.40625 
" id="DejaVuSans-47"/>
      <path d="M 52 44.1875 
Q 55.375 50.25 60.0625 53.125 
Q 64.75 56 71.09375 56 
Q 79.640625 56 84.28125 50.015625 
Q 88.921875 44.046875 88.921875 33.015625 
L 88.921875 0 
L 79.890625 0 
L 79.890625 32.71875 
Q 79.890625 40.578125 77.09375 44.375 
Q 74.3125 48.1875 68.609375 48.1875 
Q 61.625 48.1875 57.5625 43.546875 
Q 53.515625 38.921875 53.515625 30.90625 
L 53.515625 0 
L 44.484375 0 
L 44.484375 32.71875 
Q 44.484375 40.625 41.703125 44.40625 
Q 38.921875 48.1875 33.109375 48.1875 
Q 26.21875 48.1875 22.15625 43.53125 
Q 18.109375 38.875 18.109375 30.90625 
L 18.109375 0 
L 9.078125 0 
L 9.078125 54.6875 
L 18.109375 54.6875 
L 18.109375 46.1875 
Q 21.1875 51.21875 25.484375 53.609375 
Q 29.78125 56 35.6875 56 
Q 41.65625 56 45.828125 52.96875 
Q 50 49.953125 52 44.1875 
" id="DejaVuSans-6d"/>
     </defs>
     <g transform="translate(222.120937 100.689062)scale(0.1 -0.1)">
      <use xlink:href="#DejaVuSans-6c"/>
      <use x="27.783203" xlink:href="#DejaVuSans-6f"/>
      <use x="88.964844" xlink:href="#DejaVuSans-77"/>
      <use x="170.751953" xlink:href="#DejaVuSans-47"/>
      <use x="248.242188" xlink:href="#DejaVuSans-61"/>
      <use x="309.521484" xlink:href="#DejaVuSans-6d"/>
      <use x="406.933594" xlink:href="#DejaVuSans-6d"/>
      <use x="504.345703" xlink:href="#DejaVuSans-61"/>
     </g>
    </g>
    <g id="line2d_41">
     <path d="M 194.120937 111.867188 
L 214.120937 111.867188 
" style="fill:none;stroke:#e377c2;stroke-linecap:square;stroke-width:1.5;"/>
    </g>
    <g id="line2d_42"/>
    <g id="text_23">
     <!-- midGamma -->
     <g transform="translate(222.120937 115.367188)scale(0.1 -0.1)">
      <use xlink:href="#DejaVuSans-6d"/>
      <use x="97.412109" xlink:href="#DejaVuSans-69"/>
      <use x="125.195312" xlink:href="#DejaVuSans-64"/>
      <use x="188.671875" xlink:href="#DejaVuSans-47"/>
      <use x="266.162109" xlink:href="#DejaVuSans-61"/>
      <use x="327.441406" xlink:href="#DejaVuSans-6d"/>
      <use x="424.853516" xlink:href="#DejaVuSans-6d"/>
      <use x="522.265625" xlink:href="#DejaVuSans-61"/>
     </g>
    </g>
    <g id="line2d_43">
     <path d="M 194.120937 126.545312 
L 214.120937 126.545312 
" style="fill:none;stroke:#7f7f7f;stroke-linecap:square;stroke-width:1.5;"/>
    </g>
    <g id="line2d_44"/>
    <g id="text_24">
     <!-- attention -->
     <defs>
      <path d="M 54.890625 33.015625 
L 54.890625 0 
L 45.90625 0 
L 45.90625 32.71875 
Q 45.90625 40.484375 42.875 44.328125 
Q 39.84375 48.1875 33.796875 48.1875 
Q 26.515625 48.1875 22.3125 43.546875 
Q 18.109375 38.921875 18.109375 30.90625 
L 18.109375 0 
L 9.078125 0 
L 9.078125 54.6875 
L 18.109375 54.6875 
L 18.109375 46.1875 
Q 21.34375 51.125 25.703125 53.5625 
Q 30.078125 56 35.796875 56 
Q 45.21875 56 50.046875 50.171875 
Q 54.890625 44.34375 54.890625 33.015625 
" id="DejaVuSans-6e"/>
     </defs>
     <g transform="translate(222.120937 130.045312)scale(0.1 -0.1)">
      <use xlink:href="#DejaVuSans-61"/>
      <use x="61.279297" xlink:href="#DejaVuSans-74"/>
      <use x="100.488281" xlink:href="#DejaVuSans-74"/>
      <use x="139.697266" xlink:href="#DejaVuSans-65"/>
      <use x="201.220703" xlink:href="#DejaVuSans-6e"/>
      <use x="264.599609" xlink:href="#DejaVuSans-74"/>
      <use x="303.808594" xlink:href="#DejaVuSans-69"/>
      <use x="331.591797" xlink:href="#DejaVuSans-6f"/>
      <use x="392.773438" xlink:href="#DejaVuSans-6e"/>
     </g>
    </g>
    <g id="line2d_45">
     <path d="M 194.120937 141.223437 
L 214.120937 141.223437 
" style="fill:none;stroke:#bcbd22;stroke-linecap:square;stroke-width:1.5;"/>
    </g>
    <g id="line2d_46"/>
    <g id="text_25">
     <!-- meditation -->
     <g transform="translate(222.120937 144.723437)scale(0.1 -0.1)">
      <use xlink:href="#DejaVuSans-6d"/>
      <use x="97.412109" xlink:href="#DejaVuSans-65"/>
      <use x="158.935547" xlink:href="#DejaVuSans-64"/>
      <use x="222.412109" xlink:href="#DejaVuSans-69"/>
      <use x="250.195312" xlink:href="#DejaVuSans-74"/>
      <use x="289.404297" xlink:href="#DejaVuSans-61"/>
      <use x="350.683594" xlink:href="#DejaVuSans-74"/>
      <use x="389.892578" xlink:href="#DejaVuSans-69"/>
      <use x="417.675781" xlink:href="#DejaVuSans-6f"/>
      <use x="478.857422" xlink:href="#DejaVuSans-6e"/>
     </g>
    </g>
    <g id="line2d_47">
     <path d="M 194.120937 155.901562 
L 214.120937 155.901562 
" style="fill:none;stroke:#17becf;stroke-linecap:square;stroke-width:1.5;"/>
    </g>
    <g id="line2d_48"/>
    <g id="text_26">
     <!-- rawValue -->
     <defs>
      <path d="M 41.109375 46.296875 
Q 39.59375 47.171875 37.8125 47.578125 
Q 36.03125 48 33.890625 48 
Q 26.265625 48 22.1875 43.046875 
Q 18.109375 38.09375 18.109375 28.8125 
L 18.109375 0 
L 9.078125 0 
L 9.078125 54.6875 
L 18.109375 54.6875 
L 18.109375 46.1875 
Q 20.953125 51.171875 25.484375 53.578125 
Q 30.03125 56 36.53125 56 
Q 37.453125 56 38.578125 55.875 
Q 39.703125 55.765625 41.0625 55.515625 
z
" id="DejaVuSans-72"/>
      <path d="M 28.609375 0 
L 0.78125 72.90625 
L 11.078125 72.90625 
L 34.1875 11.53125 
L 57.328125 72.90625 
L 67.578125 72.90625 
L 39.796875 0 
z
" id="DejaVuSans-56"/>
      <path d="M 8.5 21.578125 
L 8.5 54.6875 
L 17.484375 54.6875 
L 17.484375 21.921875 
Q 17.484375 14.15625 20.5 10.265625 
Q 23.53125 6.390625 29.59375 6.390625 
Q 36.859375 6.390625 41.078125 11.03125 
Q 45.3125 15.671875 45.3125 23.6875 
L 45.3125 54.6875 
L 54.296875 54.6875 
L 54.296875 0 
L 45.3125 0 
L 45.3125 8.40625 
Q 42.046875 3.421875 37.71875 1 
Q 33.40625 -1.421875 27.6875 -1.421875 
Q 18.265625 -1.421875 13.375 4.4375 
Q 8.5 10.296875 8.5 21.578125 
M 31.109375 56 
z
" id="DejaVuSans-75"/>
     </defs>
     <g transform="translate(222.120937 159.401562)scale(0.1 -0.1)">
      <use xlink:href="#DejaVuSans-72"/>
      <use x="41.113281" xlink:href="#DejaVuSans-61"/>
      <use x="102.392578" xlink:href="#DejaVuSans-77"/>
      <use x="184.179688" xlink:href="#DejaVuSans-56"/>
      <use x="252.478516" xlink:href="#DejaVuSans-61"/>
      <use x="313.757812" xlink:href="#DejaVuSans-6c"/>
      <use x="341.541016" xlink:href="#DejaVuSans-75"/>
      <use x="404.919922" xlink:href="#DejaVuSans-65"/>
     </g>
    </g>
   </g>
  </g>
 </g>
 <defs>
  <clipPath id="pbc831db58a">
   <rect height="266.112" width="357.12" x="58.7375" y="10.7"/>
  </clipPath>
 </defs>
</svg>
