<?xml version="1.0" encoding="utf-8" standalone="no"?>
<!DOCTYPE svg PUBLIC "-//W3C//DTD SVG 1.1//EN"
  "http://www.w3.org/Graphics/SVG/1.1/DTD/svg11.dtd">
<!-- Created with matplotlib (http://matplotlib.org/) -->
<svg height="300pt" version="1.1" viewBox="0 0 426 300" width="426pt" xmlns="http://www.w3.org/2000/svg" xmlns:xlink="http://www.w3.org/1999/xlink">
 <defs>
  <style type="text/css">
*{stroke-linecap:butt;stroke-linejoin:round;}
  </style>
 </defs>
 <g id="figure_1">
  <g id="patch_1">
   <path d="M 0 300.690125 
L 426.5575 300.690125 
L 426.5575 0 
L 0 0 
z
" style="fill:#ffffff;"/>
  </g>
  <g id="axes_1">
   <g id="patch_2">
    <path d="M 58.7375 276.812 
L 415.8575 276.812 
L 415.8575 10.7 
L 58.7375 10.7 
z
" style="fill:#ffffff;"/>
   </g>
   <g id="matplotlib.axis_1">
    <g id="xtick_1">
     <g id="line2d_1">
      <defs>
       <path d="M 0 0 
L 0 3.5 
" id="m40518a3e02" style="stroke:#000000;stroke-width:0.8;"/>
      </defs>
      <g>
       <use style="stroke:#000000;stroke-width:0.8;" x="74.970227" xlink:href="#m40518a3e02" y="276.812"/>
      </g>
     </g>
     <g id="text_1">
      <!-- 0 -->
      <defs>
       <path d="M 31.78125 66.40625 
Q 24.171875 66.40625 20.328125 58.90625 
Q 16.5 51.421875 16.5 36.375 
Q 16.5 21.390625 20.328125 13.890625 
Q 24.171875 6.390625 31.78125 6.390625 
Q 39.453125 6.390625 43.28125 13.890625 
Q 47.125 21.390625 47.125 36.375 
Q 47.125 51.421875 43.28125 58.90625 
Q 39.453125 66.40625 31.78125 66.40625 
M 31.78125 74.21875 
Q 44.046875 74.21875 50.515625 64.515625 
Q 56.984375 54.828125 56.984375 36.375 
Q 56.984375 17.96875 50.515625 8.265625 
Q 44.046875 -1.421875 31.78125 -1.421875 
Q 19.53125 -1.421875 13.0625 8.265625 
Q 6.59375 17.96875 6.59375 36.375 
Q 6.59375 54.828125 13.0625 64.515625 
Q 19.53125 74.21875 31.78125 74.21875 
" id="DejaVuSans-30"/>
      </defs>
      <g transform="translate(71.788977 291.410437)scale(0.1 -0.1)">
       <use xlink:href="#DejaVuSans-30"/>
      </g>
     </g>
    </g>
    <g id="xtick_2">
     <g id="line2d_2">
      <g>
       <use style="stroke:#000000;stroke-width:0.8;" x="116.807153" xlink:href="#m40518a3e02" y="276.812"/>
      </g>
     </g>
     <g id="text_2">
      <!-- 25 -->
      <defs>
       <path d="M 19.1875 8.296875 
L 53.609375 8.296875 
L 53.609375 0 
L 7.328125 0 
L 7.328125 8.296875 
Q 12.9375 14.109375 22.625 23.890625 
Q 32.328125 33.6875 34.8125 36.53125 
Q 39.546875 41.84375 41.421875 45.53125 
Q 43.3125 49.21875 43.3125 52.78125 
Q 43.3125 58.59375 39.234375 62.25 
Q 35.15625 65.921875 28.609375 65.921875 
Q 23.96875 65.921875 18.8125 64.3125 
Q 13.671875 62.703125 7.8125 59.421875 
L 7.8125 69.390625 
Q 13.765625 71.78125 18.9375 73 
Q 24.125 74.21875 28.421875 74.21875 
Q 39.75 74.21875 46.484375 68.546875 
Q 53.21875 62.890625 53.21875 53.421875 
Q 53.21875 48.921875 51.53125 44.890625 
Q 49.859375 40.875 45.40625 35.40625 
Q 44.1875 33.984375 37.640625 27.21875 
Q 31.109375 20.453125 19.1875 8.296875 
" id="DejaVuSans-32"/>
       <path d="M 10.796875 72.90625 
L 49.515625 72.90625 
L 49.515625 64.59375 
L 19.828125 64.59375 
L 19.828125 46.734375 
Q 21.96875 47.46875 24.109375 47.828125 
Q 26.265625 48.1875 28.421875 48.1875 
Q 40.625 48.1875 47.75 41.5 
Q 54.890625 34.8125 54.890625 23.390625 
Q 54.890625 11.625 47.5625 5.09375 
Q 40.234375 -1.421875 26.90625 -1.421875 
Q 22.3125 -1.421875 17.546875 -0.640625 
Q 12.796875 0.140625 7.71875 1.703125 
L 7.71875 11.625 
Q 12.109375 9.234375 16.796875 8.0625 
Q 21.484375 6.890625 26.703125 6.890625 
Q 35.15625 6.890625 40.078125 11.328125 
Q 45.015625 15.765625 45.015625 23.390625 
Q 45.015625 31 40.078125 35.4375 
Q 35.15625 39.890625 26.703125 39.890625 
Q 22.75 39.890625 18.8125 39.015625 
Q 14.890625 38.140625 10.796875 36.28125 
z
" id="DejaVuSans-35"/>
      </defs>
      <g transform="translate(110.444653 291.410437)scale(0.1 -0.1)">
       <use xlink:href="#DejaVuSans-32"/>
       <use x="63.623047" xlink:href="#DejaVuSans-35"/>
      </g>
     </g>
    </g>
    <g id="xtick_3">
     <g id="line2d_3">
      <g>
       <use style="stroke:#000000;stroke-width:0.8;" x="158.644079" xlink:href="#m40518a3e02" y="276.812"/>
      </g>
     </g>
     <g id="text_3">
      <!-- 50 -->
      <g transform="translate(152.281579 291.410437)scale(0.1 -0.1)">
       <use xlink:href="#DejaVuSans-35"/>
       <use x="63.623047" xlink:href="#DejaVuSans-30"/>
      </g>
     </g>
    </g>
    <g id="xtick_4">
     <g id="line2d_4">
      <g>
       <use style="stroke:#000000;stroke-width:0.8;" x="200.481005" xlink:href="#m40518a3e02" y="276.812"/>
      </g>
     </g>
     <g id="text_4">
      <!-- 75 -->
      <defs>
       <path d="M 8.203125 72.90625 
L 55.078125 72.90625 
L 55.078125 68.703125 
L 28.609375 0 
L 18.3125 0 
L 43.21875 64.59375 
L 8.203125 64.59375 
z
" id="DejaVuSans-37"/>
      </defs>
      <g transform="translate(194.118505 291.410437)scale(0.1 -0.1)">
       <use xlink:href="#DejaVuSans-37"/>
       <use x="63.623047" xlink:href="#DejaVuSans-35"/>
      </g>
     </g>
    </g>
    <g id="xtick_5">
     <g id="line2d_5">
      <g>
       <use style="stroke:#000000;stroke-width:0.8;" x="242.317931" xlink:href="#m40518a3e02" y="276.812"/>
      </g>
     </g>
     <g id="text_5">
      <!-- 100 -->
      <defs>
       <path d="M 12.40625 8.296875 
L 28.515625 8.296875 
L 28.515625 63.921875 
L 10.984375 60.40625 
L 10.984375 69.390625 
L 28.421875 72.90625 
L 38.28125 72.90625 
L 38.28125 8.296875 
L 54.390625 8.296875 
L 54.390625 0 
L 12.40625 0 
z
" id="DejaVuSans-31"/>
      </defs>
      <g transform="translate(232.774181 291.410437)scale(0.1 -0.1)">
       <use xlink:href="#DejaVuSans-31"/>
       <use x="63.623047" xlink:href="#DejaVuSans-30"/>
       <use x="127.246094" xlink:href="#DejaVuSans-30"/>
      </g>
     </g>
    </g>
    <g id="xtick_6">
     <g id="line2d_6">
      <g>
       <use style="stroke:#000000;stroke-width:0.8;" x="284.154857" xlink:href="#m40518a3e02" y="276.812"/>
      </g>
     </g>
     <g id="text_6">
      <!-- 125 -->
      <g transform="translate(274.611107 291.410437)scale(0.1 -0.1)">
       <use xlink:href="#DejaVuSans-31"/>
       <use x="63.623047" xlink:href="#DejaVuSans-32"/>
       <use x="127.246094" xlink:href="#DejaVuSans-35"/>
      </g>
     </g>
    </g>
    <g id="xtick_7">
     <g id="line2d_7">
      <g>
       <use style="stroke:#000000;stroke-width:0.8;" x="325.991783" xlink:href="#m40518a3e02" y="276.812"/>
      </g>
     </g>
     <g id="text_7">
      <!-- 150 -->
      <g transform="translate(316.448033 291.410437)scale(0.1 -0.1)">
       <use xlink:href="#DejaVuSans-31"/>
       <use x="63.623047" xlink:href="#DejaVuSans-35"/>
       <use x="127.246094" xlink:href="#DejaVuSans-30"/>
      </g>
     </g>
    </g>
    <g id="xtick_8">
     <g id="line2d_8">
      <g>
       <use style="stroke:#000000;stroke-width:0.8;" x="367.828709" xlink:href="#m40518a3e02" y="276.812"/>
      </g>
     </g>
     <g id="text_8">
      <!-- 175 -->
      <g transform="translate(358.284959 291.410437)scale(0.1 -0.1)">
       <use xlink:href="#DejaVuSans-31"/>
       <use x="63.623047" xlink:href="#DejaVuSans-37"/>
       <use x="127.246094" xlink:href="#DejaVuSans-35"/>
      </g>
     </g>
    </g>
    <g id="xtick_9">
     <g id="line2d_9">
      <g>
       <use style="stroke:#000000;stroke-width:0.8;" x="409.665635" xlink:href="#m40518a3e02" y="276.812"/>
      </g>
     </g>
     <g id="text_9">
      <!-- 200 -->
      <g transform="translate(400.121885 291.410437)scale(0.1 -0.1)">
       <use xlink:href="#DejaVuSans-32"/>
       <use x="63.623047" xlink:href="#DejaVuSans-30"/>
       <use x="127.246094" xlink:href="#DejaVuSans-30"/>
      </g>
     </g>
    </g>
   </g>
   <g id="matplotlib.axis_2">
    <g id="ytick_1">
     <g id="line2d_10">
      <defs>
       <path d="M 0 0 
L -3.5 0 
" id="mbe3f4edba0" style="stroke:#000000;stroke-width:0.8;"/>
      </defs>
      <g>
       <use style="stroke:#000000;stroke-width:0.8;" x="58.7375" xlink:href="#mbe3f4edba0" y="264.553292"/>
      </g>
     </g>
     <g id="text_10">
      <!-- 0 -->
      <g transform="translate(45.375 268.352511)scale(0.1 -0.1)">
       <use xlink:href="#DejaVuSans-30"/>
      </g>
     </g>
    </g>
    <g id="ytick_2">
     <g id="line2d_11">
      <g>
       <use style="stroke:#000000;stroke-width:0.8;" x="58.7375" xlink:href="#mbe3f4edba0" y="224.829702"/>
      </g>
     </g>
     <g id="text_11">
      <!-- 500000 -->
      <g transform="translate(13.5625 228.628921)scale(0.1 -0.1)">
       <use xlink:href="#DejaVuSans-35"/>
       <use x="63.623047" xlink:href="#DejaVuSans-30"/>
       <use x="127.246094" xlink:href="#DejaVuSans-30"/>
       <use x="190.869141" xlink:href="#DejaVuSans-30"/>
       <use x="254.492188" xlink:href="#DejaVuSans-30"/>
       <use x="318.115234" xlink:href="#DejaVuSans-30"/>
      </g>
     </g>
    </g>
    <g id="ytick_3">
     <g id="line2d_12">
      <g>
       <use style="stroke:#000000;stroke-width:0.8;" x="58.7375" xlink:href="#mbe3f4edba0" y="185.106112"/>
      </g>
     </g>
     <g id="text_12">
      <!-- 1000000 -->
      <g transform="translate(7.2 188.905331)scale(0.1 -0.1)">
       <use xlink:href="#DejaVuSans-31"/>
       <use x="63.623047" xlink:href="#DejaVuSans-30"/>
       <use x="127.246094" xlink:href="#DejaVuSans-30"/>
       <use x="190.869141" xlink:href="#DejaVuSans-30"/>
       <use x="254.492188" xlink:href="#DejaVuSans-30"/>
       <use x="318.115234" xlink:href="#DejaVuSans-30"/>
       <use x="381.738281" xlink:href="#DejaVuSans-30"/>
      </g>
     </g>
    </g>
    <g id="ytick_4">
     <g id="line2d_13">
      <g>
       <use style="stroke:#000000;stroke-width:0.8;" x="58.7375" xlink:href="#mbe3f4edba0" y="145.382522"/>
      </g>
     </g>
     <g id="text_13">
      <!-- 1500000 -->
      <g transform="translate(7.2 149.181741)scale(0.1 -0.1)">
       <use xlink:href="#DejaVuSans-31"/>
       <use x="63.623047" xlink:href="#DejaVuSans-35"/>
       <use x="127.246094" xlink:href="#DejaVuSans-30"/>
       <use x="190.869141" xlink:href="#DejaVuSans-30"/>
       <use x="254.492188" xlink:href="#DejaVuSans-30"/>
       <use x="318.115234" xlink:href="#DejaVuSans-30"/>
       <use x="381.738281" xlink:href="#DejaVuSans-30"/>
      </g>
     </g>
    </g>
    <g id="ytick_5">
     <g id="line2d_14">
      <g>
       <use style="stroke:#000000;stroke-width:0.8;" x="58.7375" xlink:href="#mbe3f4edba0" y="105.658932"/>
      </g>
     </g>
     <g id="text_14">
      <!-- 2000000 -->
      <g transform="translate(7.2 109.458151)scale(0.1 -0.1)">
       <use xlink:href="#DejaVuSans-32"/>
       <use x="63.623047" xlink:href="#DejaVuSans-30"/>
       <use x="127.246094" xlink:href="#DejaVuSans-30"/>
       <use x="190.869141" xlink:href="#DejaVuSans-30"/>
       <use x="254.492188" xlink:href="#DejaVuSans-30"/>
       <use x="318.115234" xlink:href="#DejaVuSans-30"/>
       <use x="381.738281" xlink:href="#DejaVuSans-30"/>
      </g>
     </g>
    </g>
    <g id="ytick_6">
     <g id="line2d_15">
      <g>
       <use style="stroke:#000000;stroke-width:0.8;" x="58.7375" xlink:href="#mbe3f4edba0" y="65.935342"/>
      </g>
     </g>
     <g id="text_15">
      <!-- 2500000 -->
      <g transform="translate(7.2 69.734561)scale(0.1 -0.1)">
       <use xlink:href="#DejaVuSans-32"/>
       <use x="63.623047" xlink:href="#DejaVuSans-35"/>
       <use x="127.246094" xlink:href="#DejaVuSans-30"/>
       <use x="190.869141" xlink:href="#DejaVuSans-30"/>
       <use x="254.492188" xlink:href="#DejaVuSans-30"/>
       <use x="318.115234" xlink:href="#DejaVuSans-30"/>
       <use x="381.738281" xlink:href="#DejaVuSans-30"/>
      </g>
     </g>
    </g>
    <g id="ytick_7">
     <g id="line2d_16">
      <g>
       <use style="stroke:#000000;stroke-width:0.8;" x="58.7375" xlink:href="#mbe3f4edba0" y="26.211752"/>
      </g>
     </g>
     <g id="text_16">
      <!-- 3000000 -->
      <defs>
       <path d="M 40.578125 39.3125 
Q 47.65625 37.796875 51.625 33 
Q 55.609375 28.21875 55.609375 21.1875 
Q 55.609375 10.40625 48.1875 4.484375 
Q 40.765625 -1.421875 27.09375 -1.421875 
Q 22.515625 -1.421875 17.65625 -0.515625 
Q 12.796875 0.390625 7.625 2.203125 
L 7.625 11.71875 
Q 11.71875 9.328125 16.59375 8.109375 
Q 21.484375 6.890625 26.8125 6.890625 
Q 36.078125 6.890625 40.9375 10.546875 
Q 45.796875 14.203125 45.796875 21.1875 
Q 45.796875 27.640625 41.28125 31.265625 
Q 36.765625 34.90625 28.71875 34.90625 
L 20.21875 34.90625 
L 20.21875 43.015625 
L 29.109375 43.015625 
Q 36.375 43.015625 40.234375 45.921875 
Q 44.09375 48.828125 44.09375 54.296875 
Q 44.09375 59.90625 40.109375 62.90625 
Q 36.140625 65.921875 28.71875 65.921875 
Q 24.65625 65.921875 20.015625 65.03125 
Q 15.375 64.15625 9.8125 62.3125 
L 9.8125 71.09375 
Q 15.4375 72.65625 20.34375 73.4375 
Q 25.25 74.21875 29.59375 74.21875 
Q 40.828125 74.21875 47.359375 69.109375 
Q 53.90625 64.015625 53.90625 55.328125 
Q 53.90625 49.265625 50.4375 45.09375 
Q 46.96875 40.921875 40.578125 39.3125 
" id="DejaVuSans-33"/>
      </defs>
      <g transform="translate(7.2 30.010971)scale(0.1 -0.1)">
       <use xlink:href="#DejaVuSans-33"/>
       <use x="63.623047" xlink:href="#DejaVuSans-30"/>
       <use x="127.246094" xlink:href="#DejaVuSans-30"/>
       <use x="190.869141" xlink:href="#DejaVuSans-30"/>
       <use x="254.492188" xlink:href="#DejaVuSans-30"/>
       <use x="318.115234" xlink:href="#DejaVuSans-30"/>
       <use x="381.738281" xlink:href="#DejaVuSans-30"/>
      </g>
     </g>
    </g>
   </g>
   <g id="line2d_17">
    <path clip-path="url(#p3d5b34f7ea)" d="M 74.970227 210.764453 
L 76.643704 176.596684 
L 78.317181 209.11068 
L 79.990658 144.803749 
L 81.664135 247.371251 
L 83.337612 186.516856 
L 85.01109 259.831428 
L 86.684567 181.143605 
L 88.358044 237.623479 
L 90.031521 186.327215 
L 91.704998 251.067372 
L 93.378475 171.417045 
L 95.051952 187.041843 
L 96.725429 153.897035 
L 98.398906 157.785498 
L 100.072383 118.163283 
L 101.74586 198.305546 
L 103.419337 165.682786 
L 105.092814 221.524143 
L 106.766291 220.477586 
L 108.439768 132.510808 
L 110.113245 180.917498 
L 111.786722 217.607477 
L 113.460199 231.774736 
L 115.133676 250.078493 
L 116.807153 251.026377 
L 118.48063 54.887894 
L 120.154107 259.127209 
L 121.827584 92.205982 
L 123.501061 161.357364 
L 125.174538 131.568326 
L 126.848015 253.017641 
L 128.521493 231.7799 
L 130.19497 158.698108 
L 131.868447 138.763301 
L 133.541924 132.594466 
L 135.215401 230.617668 
L 136.888878 245.816549 
L 138.562355 234.563412 
L 140.235832 251.762852 
L 141.909309 226.367958 
L 143.582786 155.778345 
L 145.256263 150.876295 
L 146.92974 243.182636 
L 148.603217 244.678468 
L 150.276694 184.609249 
L 151.950171 213.54002 
L 153.623648 134.279699 
L 155.297125 164.73657 
L 156.970602 262.923195 
L 158.644079 240.121457 
L 160.317556 66.267829 
L 161.991033 221.884039 
L 163.66451 247.458245 
L 165.337987 259.089233 
L 167.011464 211.285785 
L 168.684941 222.611934 
L 170.358418 225.102524 
L 172.031896 138.575408 
L 173.705373 201.259154 
L 175.37885 180.787443 
L 177.052327 183.64055 
L 178.725804 205.504732 
L 180.399281 259.382393 
L 182.072758 182.946817 
L 183.746235 183.869358 
L 185.419712 198.82092 
L 187.093189 137.696007 
L 188.766666 240.816858 
L 190.440143 215.79195 
L 192.11362 220.851067 
L 193.787097 187.006806 
L 195.460574 215.7589 
L 197.134051 100.894802 
L 198.807528 103.935961 
L 200.481005 214.841603 
L 202.154482 77.171716 
L 203.827959 120.63266 
L 205.501436 176.393378 
L 207.174913 186.360901 
L 208.84839 217.301287 
L 210.521867 238.720088 
L 212.195344 239.391258 
L 213.868821 113.169471 
L 215.542299 239.889233 
L 217.215776 236.168721 
L 218.889253 238.273436 
L 220.56273 240.097226 
L 222.236207 245.907992 
L 223.909684 241.159514 
L 225.583161 261.324559 
L 227.256638 189.016105 
L 228.930115 235.741296 
L 230.603592 248.68769 
L 232.277069 182.332134 
L 233.950546 244.11916 
L 235.624023 191.907824 
L 237.2975 236.050504 
L 238.970977 125.905808 
L 240.644454 248.679587 
L 243.991408 187.013242 
L 245.664885 168.061594 
L 247.338362 264.132778 
L 249.011839 206.113059 
L 250.685316 220.96849 
L 252.358793 155.160722 
L 254.03227 261.459063 
L 255.705747 211.169554 
L 257.379224 247.50925 
L 259.052701 228.554027 
L 260.726179 191.96439 
L 262.399656 22.796 
L 264.073133 200.683241 
L 265.74661 239.284322 
L 267.420087 105.323347 
L 269.093564 209.771999 
L 270.767041 144.846969 
L 272.440518 157.490272 
L 274.113995 95.759734 
L 275.787472 216.298902 
L 277.460949 212.199031 
L 279.134426 86.281527 
L 280.807903 263.908102 
L 282.48138 245.409859 
L 284.154857 102.13394 
L 285.828334 175.37558 
L 287.501811 219.319325 
L 289.175288 237.464505 
L 290.848765 222.334663 
L 292.522242 193.529182 
L 294.195719 243.906321 
L 295.869196 237.961368 
L 297.542673 224.49523 
L 299.21615 238.898685 
L 300.889627 159.74975 
L 302.563104 214.943216 
L 304.236582 204.172244 
L 305.910059 249.061172 
L 307.583536 238.552137 
L 309.257013 257.469384 
L 310.93049 190.375685 
L 312.603967 202.363946 
L 314.277444 181.233857 
L 315.950921 237.728111 
L 317.624398 189.100637 
L 319.297875 167.624793 
L 320.971352 237.944207 
L 322.644829 190.608862 
L 324.318306 249.752998 
L 325.991783 99.478577 
L 327.66526 211.748247 
L 329.338737 264.22017 
L 331.012214 160.245103 
L 332.685691 232.307509 
L 334.359168 141.108343 
L 336.032645 225.841383 
L 337.706122 156.153415 
L 339.379599 190.365833 
L 341.053076 252.397953 
L 342.726553 215.130473 
L 344.40003 246.54492 
L 346.073507 208.457545 
L 347.746985 247.23055 
L 349.420462 187.626494 
L 351.093939 212.940829 
L 352.767416 248.73512 
L 354.440893 98.049878 
L 356.11437 208.89371 
L 357.787847 198.377446 
L 359.461324 105.289423 
L 361.134801 237.007604 
L 362.808278 159.224366 
L 364.481755 203.524114 
L 366.155232 237.177383 
L 367.828709 177.221615 
L 369.502186 212.450799 
L 371.175663 220.811264 
L 372.84914 194.179218 
L 374.522617 251.810203 
L 376.196094 259.369364 
L 377.869571 210.512526 
L 379.543048 247.266778 
L 381.216525 122.732767 
L 382.890002 88.858316 
L 384.563479 195.132902 
L 386.236956 110.820298 
L 387.910433 207.396607 
L 389.58391 207.049423 
L 391.257388 197.080788 
L 392.930865 150.522914 
L 394.604342 195.112167 
L 396.277819 234.324594 
L 397.951296 257.408369 
L 399.624773 197.662103 
L 399.624773 197.662103 
" style="fill:none;stroke:#1f77b4;stroke-linecap:square;stroke-width:1.5;"/>
   </g>
   <g id="line2d_18">
    <path clip-path="url(#p3d5b34f7ea)" d="M 74.970227 254.002707 
L 76.643704 260.336713 
L 78.317181 208.65084 
L 79.990658 259.53231 
L 81.664135 261.027029 
L 83.337612 223.182444 
L 85.01109 260.89324 
L 86.684567 248.448395 
L 88.358044 262.45978 
L 90.031521 259.557177 
L 91.704998 260.841282 
L 93.378475 251.132677 
L 95.051952 245.31619 
L 96.725429 256.527538 
L 98.398906 173.634337 
L 100.072383 215.979842 
L 101.74586 254.607617 
L 103.419337 262.516425 
L 105.092814 263.940357 
L 106.766291 263.185291 
L 108.439768 252.646226 
L 110.113245 252.910546 
L 111.786722 241.263987 
L 113.460199 261.481308 
L 115.133676 263.957121 
L 116.807153 250.461746 
L 118.48063 152.409069 
L 120.154107 263.717905 
L 121.827584 249.752124 
L 123.501061 262.881088 
L 125.174538 242.030811 
L 126.848015 262.931855 
L 128.521493 254.631611 
L 130.19497 248.550485 
L 131.868447 254.266392 
L 133.541924 246.047581 
L 135.215401 258.188143 
L 136.888878 259.764296 
L 138.562355 259.428552 
L 140.235832 258.655213 
L 141.909309 250.350838 
L 143.582786 253.88155 
L 145.256263 257.847712 
L 146.92974 242.182079 
L 148.603217 259.755398 
L 150.276694 254.707721 
L 151.950171 256.852636 
L 153.623648 262.110371 
L 155.297125 263.460496 
L 156.970602 264.185611 
L 158.644079 253.534207 
L 160.317556 218.494346 
L 161.991033 255.542314 
L 163.66451 262.82182 
L 165.337987 264.009158 
L 167.011464 230.688773 
L 168.684941 261.703204 
L 170.358418 260.545579 
L 172.031896 135.271915 
L 173.705373 255.089465 
L 175.37885 257.718531 
L 177.052327 175.986132 
L 178.725804 251.963536 
L 180.399281 262.48266 
L 182.072758 261.606517 
L 183.746235 259.188462 
L 185.419712 232.677733 
L 187.093189 257.339568 
L 188.766666 261.700344 
L 190.440143 258.00462 
L 192.11362 263.535812 
L 193.787097 263.046259 
L 195.460574 258.346561 
L 197.134051 168.986518 
L 198.807528 255.656718 
L 200.481005 244.206472 
L 202.154482 165.656569 
L 203.827959 241.030412 
L 205.501436 259.998903 
L 207.174913 250.602208 
L 208.84839 260.402813 
L 210.521867 261.195695 
L 212.195344 263.024331 
L 213.868821 251.88242 
L 215.542299 263.53319 
L 217.215776 262.54884 
L 218.889253 252.164219 
L 220.56273 259.592849 
L 222.236207 260.315023 
L 223.909684 248.119405 
L 225.583161 258.81657 
L 227.256638 263.147792 
L 228.930115 264.313441 
L 230.603592 252.844843 
L 232.277069 248.462458 
L 233.950546 263.666979 
L 237.2975 260.086931 
L 238.970977 245.213624 
L 240.644454 245.617613 
L 242.317931 263.028462 
L 243.991408 249.728448 
L 245.664885 186.393554 
L 247.338362 264.374536 
L 249.011839 251.620404 
L 250.685316 260.405832 
L 252.358793 243.441952 
L 254.03227 260.750076 
L 255.705747 250.735362 
L 257.379224 261.829525 
L 259.052701 260.992867 
L 260.726179 255.261706 
L 262.399656 220.103628 
L 264.073133 254.16176 
L 265.74661 251.072139 
L 269.093564 243.883519 
L 270.767041 226.077579 
L 272.440518 255.769533 
L 274.113995 253.693339 
L 275.787472 251.818545 
L 277.460949 261.073108 
L 279.134426 197.723675 
L 280.807903 264.183704 
L 282.48138 259.90881 
L 284.154857 246.534751 
L 285.828334 261.790199 
L 287.501811 260.317089 
L 289.175288 257.060708 
L 290.848765 262.104333 
L 292.522242 250.76587 
L 295.869196 262.235182 
L 297.542673 261.506493 
L 299.21615 166.872587 
L 300.889627 236.537436 
L 302.563104 264.11093 
L 304.236582 262.903889 
L 305.910059 263.519923 
L 307.583536 263.086936 
L 309.257013 264.091307 
L 310.93049 247.383485 
L 312.603967 264.443258 
L 314.277444 257.831425 
L 315.950921 263.995494 
L 317.624398 263.506417 
L 319.297875 249.507665 
L 320.971352 261.821421 
L 322.644829 247.249696 
L 324.318306 262.622249 
L 325.991783 257.520231 
L 327.66526 263.510468 
L 329.338737 264.051027 
L 331.012214 232.975024 
L 332.685691 256.250267 
L 334.359168 244.715093 
L 336.032645 260.628125 
L 337.706122 251.005403 
L 339.379599 262.21826 
L 341.053076 263.209681 
L 342.726553 263.947269 
L 344.40003 245.606331 
L 346.073507 262.214764 
L 347.746985 262.33608 
L 349.420462 262.174882 
L 351.093939 205.04505 
L 352.767416 257.554155 
L 354.440893 237.656926 
L 356.11437 227.810401 
L 357.787847 241.841886 
L 359.461324 260.377548 
L 361.134801 205.641619 
L 362.808278 262.804501 
L 364.481755 260.51523 
L 366.155232 263.206742 
L 367.828709 249.850003 
L 369.502186 235.44313 
L 371.175663 262.454854 
L 372.84914 261.720603 
L 374.522617 263.048324 
L 376.196094 263.908817 
L 377.869571 246.549608 
L 379.543048 262.377154 
L 381.216525 263.662689 
L 382.890002 262.821423 
L 384.563479 256.931686 
L 386.236956 234.599799 
L 387.910433 222.65706 
L 389.58391 259.035368 
L 392.930865 262.691527 
L 394.604342 220.792435 
L 396.277819 263.236296 
L 397.951296 262.381445 
L 399.624773 257.740776 
L 399.624773 257.740776 
" style="fill:none;stroke:#ff7f0e;stroke-linecap:square;stroke-width:1.5;"/>
   </g>
   <g id="line2d_19">
    <path clip-path="url(#p3d5b34f7ea)" d="M 74.970227 263.552258 
L 76.643704 263.880295 
L 78.317181 262.9081 
L 79.990658 261.798461 
L 81.664135 263.985324 
L 83.337612 222.164408 
L 85.01109 264.305894 
L 86.684567 259.262984 
L 88.358044 263.863532 
L 90.031521 264.108547 
L 91.704998 262.647831 
L 93.378475 257.319944 
L 95.051952 262.807202 
L 96.725429 260.207531 
L 98.398906 255.623906 
L 100.072383 262.018212 
L 101.74586 262.760805 
L 103.419337 262.815147 
L 105.092814 264.074146 
L 106.766291 264.073828 
L 108.439768 262.546854 
L 110.113245 249.456421 
L 111.786722 252.133235 
L 113.460199 263.944647 
L 115.133676 263.95426 
L 116.807153 263.283965 
L 118.48063 236.93205 
L 120.154107 264.054999 
L 121.827584 260.284119 
L 123.501061 262.473206 
L 125.174538 260.011138 
L 126.848015 263.162569 
L 128.521493 261.909687 
L 130.19497 261.927483 
L 131.868447 263.100203 
L 133.541924 260.642743 
L 135.215401 262.944169 
L 136.888878 264.181162 
L 138.562355 262.758501 
L 140.235832 260.549869 
L 141.909309 260.184174 
L 143.582786 259.49203 
L 145.256263 263.684378 
L 146.92974 259.93757 
L 148.603217 264.393842 
L 150.276694 255.201406 
L 151.950171 263.901984 
L 153.623648 264.153752 
L 155.297125 262.785354 
L 156.970602 264.490211 
L 158.644079 262.089476 
L 160.317556 253.142294 
L 161.991033 262.669123 
L 163.66451 264.367147 
L 165.337987 264.091386 
L 167.011464 263.13516 
L 168.684941 263.675401 
L 170.358418 264.021234 
L 172.031896 238.407543 
L 173.705373 258.136105 
L 175.37885 263.060082 
L 177.052327 236.953977 
L 178.725804 262.915806 
L 180.399281 263.809905 
L 182.072758 264.096391 
L 183.746235 261.729819 
L 185.419712 260.974435 
L 187.093189 261.838979 
L 188.766666 263.28603 
L 190.440143 264.402899 
L 192.11362 263.433802 
L 193.787097 264.137863 
L 195.460574 260.999302 
L 197.134051 234.958741 
L 198.807528 255.033931 
L 200.481005 262.955689 
L 202.154482 262.932649 
L 203.827959 251.621675 
L 205.501436 262.266485 
L 207.174913 259.98071 
L 208.84839 262.570608 
L 210.521867 260.095352 
L 212.195344 263.435391 
L 217.215776 264.280391 
L 218.889253 263.719891 
L 220.56273 263.293657 
L 222.236207 263.866233 
L 223.909684 263.631228 
L 225.583161 261.980634 
L 227.256638 263.748254 
L 228.930115 264.481472 
L 230.603592 258.351566 
L 232.277069 263.111405 
L 233.950546 264.425064 
L 235.624023 263.710199 
L 237.2975 264.003041 
L 238.970977 262.630432 
L 240.644454 264.007093 
L 242.317931 263.923991 
L 243.991408 263.297868 
L 245.664885 254.85438 
L 247.338362 264.496408 
L 249.011839 254.124817 
L 250.685316 258.653068 
L 252.358793 260.813157 
L 254.03227 264.446912 
L 255.705747 256.996912 
L 257.379224 256.349338 
L 259.052701 263.484013 
L 260.726179 258.309062 
L 262.399656 256.865983 
L 264.073133 260.863209 
L 265.74661 257.193226 
L 267.420087 258.979834 
L 269.093564 256.302623 
L 270.767041 253.104397 
L 272.440518 256.038143 
L 274.113995 263.02306 
L 275.787472 262.470505 
L 277.460949 262.210077 
L 279.134426 256.642498 
L 280.807903 264.302557 
L 282.48138 263.49728 
L 284.154857 264.186802 
L 285.828334 261.551937 
L 287.501811 264.073987 
L 289.175288 261.057934 
L 290.848765 264.402343 
L 292.522242 263.258462 
L 294.195719 264.23026 
L 295.869196 264.004789 
L 297.542673 263.917079 
L 299.21615 263.642033 
L 300.889627 252.615718 
L 302.563104 264.470111 
L 304.236582 263.941708 
L 305.910059 263.967449 
L 307.583536 264.300491 
L 310.93049 263.717667 
L 312.603967 264.340374 
L 314.277444 262.797112 
L 315.950921 264.172899 
L 317.624398 264.160903 
L 319.297875 263.741898 
L 320.971352 264.145808 
L 322.644829 254.568291 
L 324.318306 263.544869 
L 325.991783 263.990409 
L 327.66526 263.710358 
L 329.338737 264.055317 
L 331.012214 253.813543 
L 332.685691 261.678973 
L 334.359168 258.169791 
L 336.032645 264.052457 
L 337.706122 258.536837 
L 339.379599 262.827461 
L 341.053076 264.236139 
L 342.726553 263.635201 
L 344.40003 258.868131 
L 346.073507 263.835566 
L 349.420462 263.479961 
L 351.093939 257.673484 
L 352.767416 256.145953 
L 354.440893 262.351493 
L 356.11437 242.525688 
L 357.787847 259.09249 
L 359.461324 254.363874 
L 361.134801 235.664867 
L 362.808278 263.767798 
L 364.481755 263.432054 
L 366.155232 263.445163 
L 367.828709 257.135865 
L 369.502186 260.237165 
L 371.175663 264.141359 
L 372.84914 263.49871 
L 374.522617 264.230339 
L 376.196094 264.391776 
L 377.869571 258.060392 
L 379.543048 264.182909 
L 381.216525 263.366907 
L 382.890002 263.602071 
L 384.563479 260.867579 
L 386.236956 253.710897 
L 387.910433 256.041639 
L 389.58391 260.781378 
L 391.257388 263.515315 
L 392.930865 259.126017 
L 394.604342 260.707969 
L 396.277819 263.541453 
L 397.951296 264.089877 
L 399.624773 264.365558 
L 399.624773 264.365558 
" style="fill:none;stroke:#2ca02c;stroke-linecap:square;stroke-width:1.5;"/>
   </g>
   <g id="line2d_20">
    <path clip-path="url(#p3d5b34f7ea)" d="M 74.970227 262.150889 
L 76.643704 260.585303 
L 79.990658 262.013922 
L 81.664135 263.769307 
L 83.337612 256.260119 
L 85.01109 264.226605 
L 86.684567 259.155333 
L 88.358044 263.332904 
L 90.031521 264.294771 
L 91.704998 263.389153 
L 93.378475 260.820308 
L 95.051952 264.011701 
L 96.725429 261.239789 
L 98.398906 256.20244 
L 100.072383 260.428395 
L 101.74586 262.444605 
L 103.419337 261.125623 
L 105.092814 263.533349 
L 106.766291 264.198402 
L 108.439768 256.541203 
L 110.113245 243.970355 
L 111.786722 256.493614 
L 113.460199 263.789725 
L 115.133676 264.152402 
L 116.807153 262.487507 
L 118.48063 254.749828 
L 120.154107 264.201103 
L 121.827584 256.362129 
L 123.501061 262.207694 
L 125.174538 256.101224 
L 126.848015 263.843432 
L 128.521493 260.319075 
L 130.19497 261.168763 
L 131.868447 261.783048 
L 133.541924 258.267987 
L 135.215401 264.345856 
L 136.888878 263.77749 
L 138.562355 260.817447 
L 140.235832 261.043316 
L 141.909309 258.717182 
L 143.582786 264.124675 
L 145.256263 262.20396 
L 146.92974 255.491308 
L 148.603217 263.920813 
L 150.276694 262.089873 
L 151.950171 263.639729 
L 153.623648 264.295009 
L 155.297125 262.940912 
L 156.970602 264.439603 
L 158.644079 262.774311 
L 160.317556 262.142547 
L 161.991033 263.285633 
L 163.66451 264.060879 
L 165.337987 264.056588 
L 167.011464 254.689289 
L 168.684941 262.950366 
L 170.358418 262.754767 
L 172.031896 240.123205 
L 173.705373 262.821264 
L 175.37885 262.579983 
L 177.052327 223.300741 
L 178.725804 263.720368 
L 180.399281 263.491401 
L 182.072758 262.722035 
L 183.746235 257.500607 
L 185.419712 257.348704 
L 187.093189 262.761043 
L 188.766666 263.747698 
L 190.440143 262.690732 
L 192.11362 264.222077 
L 193.787097 264.363652 
L 195.460574 261.799415 
L 197.134051 251.468183 
L 198.807528 252.558675 
L 200.481005 260.318678 
L 202.154482 261.220721 
L 203.827959 259.257661 
L 205.501436 263.953943 
L 208.84839 263.697169 
L 210.521867 263.506099 
L 212.195344 263.852171 
L 213.868821 260.562501 
L 215.542299 263.538354 
L 217.215776 264.498633 
L 218.889253 260.799333 
L 220.56273 263.820233 
L 222.236207 263.79195 
L 223.909684 263.139609 
L 225.583161 263.436344 
L 227.256638 259.386048 
L 228.930115 264.434439 
L 230.603592 261.140956 
L 232.277069 263.104414 
L 233.950546 264.206108 
L 235.624023 264.078119 
L 237.2975 264.372153 
L 238.970977 261.46955 
L 240.644454 262.497517 
L 242.317931 263.799656 
L 243.991408 262.482184 
L 245.664885 247.757999 
L 247.338362 264.511503 
L 249.011839 239.750915 
L 250.685316 264.116809 
L 252.358793 261.088045 
L 254.03227 264.088526 
L 255.705747 259.572113 
L 257.379224 254.039491 
L 259.052701 264.162412 
L 260.726179 262.311769 
L 262.399656 261.540178 
L 264.073133 262.698836 
L 265.74661 261.910323 
L 267.420087 261.490921 
L 269.093564 261.346725 
L 270.767041 257.62097 
L 272.440518 257.884019 
L 274.113995 263.638537 
L 275.787472 263.166701 
L 277.460949 263.472731 
L 279.134426 249.085323 
L 280.807903 264.234471 
L 284.154857 263.741183 
L 285.828334 261.967207 
L 287.501811 263.895708 
L 289.175288 262.200702 
L 290.848765 264.279517 
L 292.522242 248.137201 
L 294.195719 263.039585 
L 295.869196 264.531206 
L 297.542673 264.327106 
L 299.21615 247.551834 
L 300.889627 256.76151 
L 302.563104 264.344743 
L 304.236582 263.849867 
L 305.910059 264.227241 
L 309.257013 264.42856 
L 310.93049 262.777807 
L 312.603967 264.372947 
L 315.950921 264.516826 
L 317.624398 264.347206 
L 319.297875 262.832546 
L 320.971352 264.385023 
L 322.644829 261.323923 
L 324.318306 264.056827 
L 325.991783 262.165587 
L 327.66526 263.481788 
L 329.338737 264.058177 
L 331.012214 262.762156 
L 332.685691 263.578555 
L 334.359168 259.588558 
L 336.032645 263.613988 
L 337.706122 263.005184 
L 339.379599 264.074543 
L 341.053076 263.886571 
L 342.726553 263.426016 
L 344.40003 259.900627 
L 346.073507 264.066996 
L 347.746985 262.928756 
L 349.420462 263.654586 
L 351.093939 243.301966 
L 352.767416 254.512678 
L 354.440893 255.435219 
L 356.11437 254.718605 
L 357.787847 260.542481 
L 359.461324 258.584743 
L 361.134801 238.580897 
L 362.808278 262.687793 
L 366.155232 264.429434 
L 367.828709 260.262509 
L 369.502186 261.923193 
L 371.175663 263.914219 
L 372.84914 259.615412 
L 374.522617 263.319477 
L 376.196094 264.429752 
L 377.869571 260.716629 
L 379.543048 263.592776 
L 381.216525 263.479564 
L 382.890002 262.285949 
L 384.563479 262.998193 
L 386.236956 261.912468 
L 387.910433 251.724956 
L 389.58391 255.099634 
L 391.257388 263.258065 
L 392.930865 263.90262 
L 394.604342 254.807427 
L 396.277819 264.321306 
L 397.951296 263.517698 
L 399.624773 264.088844 
L 399.624773 264.088844 
" style="fill:none;stroke:#d62728;stroke-linecap:square;stroke-width:1.5;"/>
   </g>
   <g id="line2d_21">
    <path clip-path="url(#p3d5b34f7ea)" d="M 74.970227 263.115219 
L 76.643704 263.263864 
L 79.990658 262.005818 
L 81.664135 263.528662 
L 83.337612 258.382709 
L 85.01109 264.23749 
L 86.684567 259.491553 
L 88.358044 264.118239 
L 90.031521 264.168768 
L 91.704998 263.844941 
L 93.378475 263.01591 
L 95.051952 263.719097 
L 96.725429 261.50546 
L 98.398906 249.066812 
L 100.072383 261.152397 
L 101.74586 263.738164 
L 103.419337 263.423315 
L 105.092814 264.297313 
L 106.766291 262.475748 
L 108.439768 261.709083 
L 110.113245 245.811146 
L 111.786722 260.957513 
L 113.460199 264.079469 
L 115.133676 263.972851 
L 116.807153 261.032829 
L 118.48063 261.20515 
L 120.154107 264.227003 
L 121.827584 257.801791 
L 123.501061 262.819834 
L 125.174538 259.967442 
L 126.848015 263.903573 
L 128.521493 263.544472 
L 130.19497 260.837627 
L 131.868447 262.757627 
L 133.541924 263.004231 
L 135.215401 263.861307 
L 136.888878 264.236854 
L 138.562355 262.805693 
L 140.235832 263.088525 
L 141.909309 263.685093 
L 143.582786 263.189343 
L 145.256263 261.980872 
L 146.92974 261.703999 
L 148.603217 263.04316 
L 150.276694 263.197447 
L 151.950171 263.463674 
L 153.623648 263.555833 
L 155.297125 260.918981 
L 156.970602 264.228035 
L 160.317556 256.324233 
L 161.991033 263.854395 
L 163.66451 263.947349 
L 165.337987 264.31217 
L 167.011464 253.858669 
L 168.684941 263.313122 
L 170.358418 264.042685 
L 172.031896 233.161169 
L 173.705373 258.913734 
L 175.37885 262.145963 
L 177.052327 257.044342 
L 178.725804 263.815307 
L 180.399281 263.8911 
L 182.072758 263.724976 
L 183.746235 262.160423 
L 185.419712 258.216744 
L 187.093189 263.452472 
L 188.766666 262.965381 
L 190.440143 263.523021 
L 192.11362 263.489971 
L 193.787097 263.220963 
L 195.460574 263.376838 
L 197.134051 259.744593 
L 200.481005 255.386915 
L 202.154482 248.978705 
L 203.827959 258.255435 
L 205.501436 263.611446 
L 207.174913 263.331077 
L 208.84839 263.947984 
L 210.521867 263.499743 
L 212.195344 264.135479 
L 213.868821 263.426572 
L 217.215776 264.307403 
L 218.889253 263.106638 
L 220.56273 263.484728 
L 222.236207 264.033628 
L 223.909684 263.578237 
L 225.583161 263.951003 
L 227.256638 261.321699 
L 228.930115 264.450964 
L 230.603592 263.36945 
L 232.277069 263.022504 
L 233.950546 264.336401 
L 235.624023 261.556306 
L 237.2975 264.373424 
L 238.970977 261.834451 
L 240.644454 261.499819 
L 242.317931 264.150972 
L 243.991408 259.355063 
L 245.664885 257.619142 
L 247.338362 264.525327 
L 249.011839 251.097323 
L 250.685316 264.134685 
L 252.358793 259.948613 
L 254.03227 262.782891 
L 255.705747 255.647263 
L 257.379224 252.838329 
L 259.052701 263.683663 
L 260.726179 261.131184 
L 262.399656 256.42092 
L 264.073133 263.782098 
L 265.74661 260.210233 
L 267.420087 263.024887 
L 269.093564 256.907613 
L 270.767041 253.985149 
L 272.440518 261.217385 
L 274.113995 263.330521 
L 275.787472 259.584586 
L 277.460949 261.797349 
L 279.134426 253.399464 
L 280.807903 264.315348 
L 282.48138 263.670396 
L 284.154857 263.808475 
L 285.828334 262.736335 
L 287.501811 263.326072 
L 289.175288 263.293498 
L 290.848765 264.026001 
L 292.522242 258.113463 
L 294.195719 264.220329 
L 295.869196 264.477658 
L 297.542673 263.637028 
L 299.21615 261.976343 
L 300.889627 246.02041 
L 302.563104 264.406633 
L 304.236582 264.33513 
L 305.910059 263.923832 
L 307.583536 264.424032 
L 309.257013 264.495693 
L 310.93049 260.907858 
L 312.603967 264.483935 
L 314.277444 263.555753 
L 315.950921 264.448819 
L 317.624398 264.126422 
L 319.297875 263.394714 
L 320.971352 264.391776 
L 322.644829 261.349029 
L 324.318306 261.880371 
L 325.991783 263.757073 
L 327.66526 264.271493 
L 329.338737 264.166543 
L 331.012214 261.672299 
L 332.685691 264.011701 
L 334.359168 262.155735 
L 336.032645 263.462959 
L 337.706122 261.002321 
L 339.379599 263.78623 
L 341.053076 262.363728 
L 342.726553 264.408539 
L 344.40003 259.462952 
L 346.073507 264.102191 
L 347.746985 263.634327 
L 349.420462 264.115538 
L 351.093939 217.537325 
L 352.767416 256.834284 
L 354.440893 249.542224 
L 356.11437 256.264568 
L 357.787847 258.697479 
L 359.461324 262.257586 
L 361.134801 234.842351 
L 362.808278 262.766048 
L 366.155232 264.343472 
L 367.828709 258.091615 
L 369.502186 262.487109 
L 371.175663 263.974917 
L 372.84914 259.698911 
L 374.522617 263.705829 
L 376.196094 264.500221 
L 377.869571 253.517602 
L 379.543048 264.243845 
L 381.216525 264.211828 
L 382.890002 263.85225 
L 384.563479 259.964026 
L 386.236956 257.240179 
L 387.910433 256.874563 
L 391.257388 263.243208 
L 392.930865 263.232403 
L 394.604342 252.478433 
L 396.277819 264.008126 
L 397.951296 263.168369 
L 399.624773 262.030844 
L 399.624773 262.030844 
" style="fill:none;stroke:#9467bd;stroke-linecap:square;stroke-width:1.5;"/>
   </g>
   <g id="line2d_22">
    <path clip-path="url(#p3d5b34f7ea)" d="M 74.970227 264.05635 
L 76.643704 263.639173 
L 78.317181 261.427125 
L 79.990658 262.570132 
L 81.664135 264.049438 
L 83.337612 250.133311 
L 85.01109 264.370166 
L 86.684567 262.580063 
L 88.358044 263.739197 
L 91.704998 263.747221 
L 93.378475 263.125388 
L 95.051952 263.401705 
L 96.725429 262.104015 
L 98.398906 251.230795 
L 100.072383 261.641553 
L 101.74586 263.418945 
L 103.419337 262.520636 
L 105.092814 264.056668 
L 106.766291 264.212384 
L 108.439768 261.711705 
L 110.113245 249.675457 
L 111.786722 263.746744 
L 113.460199 264.179573 
L 115.133676 264.087017 
L 116.807153 262.706542 
L 118.48063 251.607136 
L 120.154107 264.319479 
L 121.827584 261.965221 
L 123.501061 262.79886 
L 125.174538 260.819434 
L 126.848015 263.927169 
L 128.521493 263.815228 
L 130.19497 263.857414 
L 133.541924 262.574104 
L 135.215401 264.191092 
L 136.888878 263.877435 
L 138.562355 262.877751 
L 140.235832 262.916204 
L 141.909309 261.526116 
L 143.582786 262.760646 
L 145.256263 259.649415 
L 146.92974 261.589515 
L 148.603217 262.943057 
L 150.276694 261.259094 
L 151.950171 263.773677 
L 153.623648 263.871159 
L 155.297125 260.75953 
L 156.970602 264.484173 
L 160.317556 260.903171 
L 161.991033 264.120623 
L 163.66451 262.988342 
L 165.337987 264.221759 
L 167.011464 260.300008 
L 168.684941 264.054602 
L 170.358418 262.835088 
L 172.031896 241.968286 
L 173.705373 258.061584 
L 175.37885 260.633527 
L 177.052327 245.010398 
L 178.725804 263.638776 
L 180.399281 263.806886 
L 182.072758 263.176552 
L 183.746235 258.404875 
L 185.419712 252.197905 
L 187.093189 263.486952 
L 188.766666 264.214688 
L 190.440143 263.195302 
L 192.11362 264.347842 
L 193.787097 264.090115 
L 195.460574 262.747617 
L 197.134051 248.520613 
L 198.807528 258.753807 
L 200.481005 258.21873 
L 202.154482 258.845251 
L 203.827959 255.885843 
L 205.501436 263.964906 
L 207.174913 263.490527 
L 208.84839 263.732126 
L 210.521867 264.268951 
L 212.195344 264.190536 
L 213.868821 261.417274 
L 215.542299 264.25608 
L 217.215776 264.481551 
L 218.889253 263.964509 
L 220.56273 264.232167 
L 222.236207 264.049915 
L 223.909684 263.517539 
L 225.583161 263.975155 
L 227.256638 261.995411 
L 228.930115 264.483379 
L 232.277069 262.481389 
L 233.950546 264.10092 
L 235.624023 262.182668 
L 237.2975 264.392809 
L 240.644454 261.929708 
L 242.317931 263.868616 
L 243.991408 261.064369 
L 245.664885 248.861441 
L 247.338362 264.541216 
L 249.011839 245.746397 
L 250.685316 263.699156 
L 252.358793 259.167488 
L 254.03227 263.81634 
L 255.705747 260.886487 
L 257.379224 257.669512 
L 259.052701 263.921925 
L 260.726179 259.478286 
L 262.399656 258.503787 
L 264.073133 263.968084 
L 265.74661 257.522693 
L 267.420087 259.721871 
L 269.093564 256.227625 
L 270.767041 257.175191 
L 274.113995 263.883155 
L 275.787472 260.712895 
L 277.460949 256.032662 
L 279.134426 243.96098 
L 280.807903 264.450567 
L 282.48138 264.13977 
L 284.154857 263.629004 
L 285.828334 263.654347 
L 287.501811 263.554085 
L 289.175288 262.952114 
L 290.848765 264.318605 
L 292.522242 259.114656 
L 294.195719 263.987152 
L 295.869196 264.374774 
L 297.542673 263.656969 
L 299.21615 261.297785 
L 300.889627 253.186784 
L 302.563104 264.183942 
L 304.236582 264.37541 
L 305.910059 264.191728 
L 309.257013 264.430387 
L 310.93049 262.753972 
L 312.603967 264.400277 
L 314.277444 262.800449 
L 315.950921 264.461848 
L 317.624398 264.429434 
L 319.297875 262.379617 
L 320.971352 264.422204 
L 322.644829 257.801394 
L 324.318306 264.255604 
L 325.991783 261.964585 
L 327.66526 264.090989 
L 329.338737 264.348477 
L 331.012214 263.209602 
L 332.685691 264.139928 
L 334.359168 263.01011 
L 336.032645 264.026557 
L 337.706122 262.578474 
L 339.379599 264.040858 
L 341.053076 263.912471 
L 342.726553 264.118557 
L 344.40003 261.023454 
L 346.073507 264.09512 
L 347.746985 264.028146 
L 349.420462 262.51857 
L 351.093939 216.953865 
L 352.767416 261.694068 
L 354.440893 240.469674 
L 356.11437 252.782001 
L 357.787847 259.443885 
L 359.461324 255.821094 
L 361.134801 242.380379 
L 362.808278 263.102666 
L 364.481755 262.125307 
L 366.155232 264.338864 
L 367.828709 257.818475 
L 369.502186 259.698116 
L 371.175663 264.409811 
L 372.84914 263.309467 
L 374.522617 264.216833 
L 376.196094 264.47893 
L 377.869571 260.05547 
L 379.543048 263.978651 
L 381.216525 264.214609 
L 382.890002 264.058098 
L 384.563479 262.700346 
L 386.236956 254.647738 
L 387.910433 253.417022 
L 389.58391 262.544788 
L 391.257388 264.044671 
L 392.930865 263.58062 
L 394.604342 258.069608 
L 396.277819 264.165113 
L 397.951296 264.108706 
L 399.624773 263.639093 
L 399.624773 263.639093 
" style="fill:none;stroke:#8c564b;stroke-linecap:square;stroke-width:1.5;"/>
   </g>
   <g id="line2d_23">
    <path clip-path="url(#p3d5b34f7ea)" d="M 74.970227 264.311852 
L 76.643704 264.006616 
L 78.317181 262.723941 
L 79.990658 263.703366 
L 81.664135 264.29207 
L 83.337612 261.228428 
L 85.01109 264.427845 
L 86.684567 263.923117 
L 88.358044 264.351337 
L 90.031521 263.980081 
L 91.704998 264.429037 
L 93.378475 263.367384 
L 95.051952 264.037839 
L 96.725429 263.368735 
L 98.398906 260.956718 
L 100.072383 263.149222 
L 101.74586 263.847563 
L 103.419337 263.5606 
L 105.092814 264.270063 
L 106.766291 263.811097 
L 108.439768 262.626619 
L 110.113245 255.694773 
L 111.786722 263.951162 
L 113.460199 264.085746 
L 115.133676 264.437617 
L 116.807153 263.689304 
L 118.48063 261.80434 
L 120.154107 264.492515 
L 121.827584 263.488223 
L 123.501061 264.051265 
L 125.174538 262.410284 
L 126.848015 264.374854 
L 128.521493 264.006696 
L 130.19497 263.994858 
L 133.541924 263.282137 
L 135.215401 264.403455 
L 136.888878 264.34236 
L 138.562355 263.721957 
L 140.235832 263.778205 
L 141.909309 263.454379 
L 143.582786 263.555912 
L 145.256263 263.297471 
L 148.603217 264.111963 
L 150.276694 262.986197 
L 153.623648 264.015196 
L 155.297125 262.482819 
L 156.970602 264.472971 
L 158.644079 262.723544 
L 160.317556 262.374056 
L 161.991033 263.988979 
L 163.66451 263.597304 
L 165.337987 264.401469 
L 167.011464 260.991437 
L 168.684941 264.431102 
L 170.358418 264.288097 
L 172.031896 254.199338 
L 173.705373 261.065879 
L 175.37885 261.161136 
L 177.052327 249.270594 
L 178.725804 264.34379 
L 180.399281 264.311932 
L 182.072758 263.822696 
L 183.746235 257.886164 
L 185.419712 258.291424 
L 187.093189 263.843193 
L 188.766666 264.448184 
L 190.440143 264.250757 
L 192.11362 264.418947 
L 193.787097 264.303113 
L 195.460574 262.441586 
L 197.134051 261.897135 
L 198.807528 261.595315 
L 200.481005 262.310022 
L 202.154482 255.972202 
L 203.827959 262.094243 
L 205.501436 263.071602 
L 207.174913 263.880613 
L 210.521867 264.286747 
L 212.195344 264.499745 
L 213.868821 263.594126 
L 215.542299 264.254174 
L 217.215776 264.486795 
L 218.889253 264.204996 
L 220.56273 264.164239 
L 222.236207 264.251313 
L 227.256638 264.102032 
L 228.930115 264.520083 
L 230.603592 263.649819 
L 232.277069 263.15963 
L 233.950546 264.258861 
L 235.624023 263.567353 
L 237.2975 264.50904 
L 238.970977 262.636788 
L 240.644454 264.296996 
L 242.317931 263.051582 
L 243.991408 264.09949 
L 245.664885 258.253131 
L 247.338362 264.548764 
L 249.011839 257.271958 
L 250.685316 263.868378 
L 252.358793 259.694779 
L 254.03227 263.763746 
L 255.705747 262.145804 
L 257.379224 263.119827 
L 259.052701 264.237887 
L 260.726179 262.180761 
L 262.399656 261.940513 
L 264.073133 264.3337 
L 265.74661 258.946228 
L 267.420087 263.304383 
L 269.093564 261.374372 
L 270.767041 262.94838 
L 272.440518 264.04483 
L 274.113995 264.145966 
L 275.787472 263.250915 
L 277.460949 258.958622 
L 279.134426 246.663376 
L 280.807903 264.454222 
L 282.48138 264.489019 
L 284.154857 263.723784 
L 285.828334 264.184419 
L 287.501811 263.826986 
L 289.175288 263.140086 
L 290.848765 264.344664 
L 292.522242 260.201652 
L 294.195719 264.350305 
L 295.869196 264.437458 
L 297.542673 264.177904 
L 299.21615 261.6549 
L 300.889627 261.980395 
L 302.563104 264.446356 
L 305.910059 264.144298 
L 307.583536 264.406871 
L 309.257013 264.502525 
L 310.93049 263.852965 
L 312.603967 264.509596 
L 314.277444 263.43261 
L 315.950921 264.468443 
L 317.624398 264.491085 
L 319.297875 263.9371 
L 320.971352 264.428719 
L 322.644829 260.277524 
L 324.318306 264.10235 
L 325.991783 263.428638 
L 327.66526 264.371914 
L 329.338737 264.530809 
L 331.012214 264.132699 
L 332.685691 263.986516 
L 334.359168 263.622012 
L 336.032645 264.3998 
L 337.706122 263.00153 
L 339.379599 264.299379 
L 341.053076 264.462563 
L 342.726553 264.342916 
L 344.40003 263.436185 
L 346.073507 264.407904 
L 347.746985 264.185293 
L 349.420462 262.248371 
L 351.093939 198.101526 
L 352.767416 262.053804 
L 354.440893 259.222863 
L 356.11437 249.68658 
L 357.787847 262.430066 
L 359.461324 262.067628 
L 361.134801 240.033191 
L 362.808278 263.716237 
L 366.155232 264.352926 
L 367.828709 262.291749 
L 369.502186 252.485742 
L 371.175663 264.203327 
L 372.84914 263.494341 
L 374.522617 264.320115 
L 376.196094 264.506418 
L 377.869571 263.831673 
L 379.543048 264.440716 
L 382.890002 264.354833 
L 384.563479 263.926374 
L 386.236956 261.692558 
L 387.910433 262.488778 
L 389.58391 263.628765 
L 391.257388 263.775028 
L 392.930865 264.308277 
L 394.604342 261.299692 
L 396.277819 264.507689 
L 397.951296 264.254571 
L 399.624773 264.373265 
L 399.624773 264.373265 
" style="fill:none;stroke:#e377c2;stroke-linecap:square;stroke-width:1.5;"/>
   </g>
   <g id="line2d_24">
    <path clip-path="url(#p3d5b34f7ea)" d="M 74.970227 263.949176 
L 76.643704 263.438092 
L 78.317181 263.165986 
L 79.990658 264.389631 
L 81.664135 263.875369 
L 83.337612 263.027112 
L 85.01109 264.327821 
L 86.684567 259.9993 
L 88.358044 263.421964 
L 90.031521 263.245989 
L 91.704998 264.309469 
L 93.378475 264.184657 
L 95.051952 263.237726 
L 96.725429 263.505781 
L 98.398906 260.358481 
L 100.072383 260.444522 
L 101.74586 263.6209 
L 103.419337 260.862176 
L 105.092814 263.606679 
L 106.766291 263.581574 
L 110.113245 258.105438 
L 111.786722 264.142471 
L 113.460199 264.169165 
L 115.133676 264.391776 
L 118.48063 263.563221 
L 120.154107 264.359441 
L 121.827584 263.375249 
L 123.501061 264.10664 
L 125.174538 263.971977 
L 126.848015 264.393842 
L 128.521493 263.484728 
L 130.19497 262.364761 
L 131.868447 263.07907 
L 133.541924 261.987228 
L 135.215401 264.038474 
L 136.888878 263.96435 
L 138.562355 262.60056 
L 140.235832 262.673572 
L 141.909309 261.749363 
L 143.582786 262.118236 
L 145.256263 261.93519 
L 146.92974 262.848515 
L 148.603217 264.194826 
L 150.276694 263.31336 
L 151.950171 264.274512 
L 153.623648 264.225573 
L 155.297125 263.285792 
L 156.970602 264.431102 
L 158.644079 262.551303 
L 160.317556 262.932093 
L 161.991033 264.297631 
L 163.66451 264.150654 
L 165.337987 264.510311 
L 167.011464 263.092656 
L 168.684941 264.499904 
L 170.358418 264.157407 
L 172.031896 260.718695 
L 173.705373 264.027829 
L 175.37885 261.518013 
L 177.052327 259.76946 
L 178.725804 264.428242 
L 182.072758 264.340135 
L 183.746235 261.353875 
L 185.419712 262.11768 
L 187.093189 264.131507 
L 188.766666 264.527154 
L 190.440143 264.325914 
L 192.11362 264.476387 
L 193.787097 264.429196 
L 195.460574 264.116889 
L 198.807528 260.775023 
L 200.481005 263.36794 
L 202.154482 262.06731 
L 203.827959 263.823014 
L 205.501436 263.657128 
L 210.521867 264.118954 
L 212.195344 264.384705 
L 213.868821 262.287935 
L 215.542299 263.889114 
L 217.215776 264.458829 
L 218.889253 263.887207 
L 220.56273 263.868696 
L 222.236207 264.260609 
L 227.256638 264.250996 
L 228.930115 264.53637 
L 230.603592 261.946312 
L 232.277069 264.204201 
L 233.950546 264.399721 
L 235.624023 263.427685 
L 237.2975 264.530968 
L 238.970977 263.872112 
L 240.644454 263.894278 
L 242.317931 264.151448 
L 243.991408 264.219058 
L 245.664885 259.169157 
L 247.338362 264.550432 
L 249.011839 260.355859 
L 250.685316 264.306053 
L 252.358793 263.611684 
L 254.03227 264.077483 
L 255.705747 263.150891 
L 257.379224 263.293578 
L 259.052701 264.377952 
L 260.726179 263.545822 
L 262.399656 263.246386 
L 264.073133 264.451918 
L 265.74661 257.535882 
L 267.420087 263.683266 
L 269.093564 261.875604 
L 270.767041 263.941231 
L 272.440518 263.998433 
L 274.113995 263.72434 
L 275.787472 263.776378 
L 277.460949 260.672615 
L 279.134426 254.952736 
L 280.807903 264.48322 
L 282.48138 264.509437 
L 284.154857 264.056032 
L 285.828334 264.480042 
L 287.501811 264.384387 
L 289.175288 264.048326 
L 290.848765 264.508643 
L 292.522242 260.664512 
L 294.195719 264.377555 
L 295.869196 264.473924 
L 297.542673 264.224301 
L 299.21615 262.698121 
L 300.889627 263.690972 
L 302.563104 264.531365 
L 304.236582 264.492833 
L 305.910059 264.170198 
L 307.583536 264.507928 
L 309.257013 264.513807 
L 310.93049 264.04483 
L 312.603967 264.538594 
L 314.277444 264.109341 
L 315.950921 264.50332 
L 317.624398 264.499427 
L 319.297875 264.020519 
L 320.971352 264.51627 
L 322.644829 259.415364 
L 324.318306 263.977062 
L 325.991783 264.409652 
L 329.338737 264.546857 
L 331.012214 264.192761 
L 332.685691 264.030132 
L 334.359168 262.891813 
L 336.032645 264.366035 
L 337.706122 263.819836 
L 339.379599 264.236298 
L 341.053076 264.50324 
L 342.726553 264.484729 
L 344.40003 263.657922 
L 346.073507 264.516826 
L 347.746985 264.488702 
L 349.420462 263.040618 
L 351.093939 214.584512 
L 352.767416 264.354039 
L 354.440893 258.333293 
L 356.11437 260.983889 
L 357.787847 259.446586 
L 359.461324 263.525961 
L 361.134801 246.776271 
L 362.808278 264.241541 
L 364.481755 264.170833 
L 366.155232 264.514681 
L 367.828709 263.693435 
L 369.502186 259.465495 
L 371.175663 264.501731 
L 372.84914 264.067393 
L 374.522617 264.48465 
L 376.196094 264.532 
L 377.869571 263.612876 
L 379.543048 264.51619 
L 381.216525 264.495772 
L 384.563479 264.337911 
L 386.236956 261.594044 
L 387.910433 263.353401 
L 391.257388 264.424667 
L 392.930865 264.41418 
L 394.604342 263.2127 
L 396.277819 264.502923 
L 399.624773 264.305576 
L 399.624773 264.305576 
" style="fill:none;stroke:#7f7f7f;stroke-linecap:square;stroke-width:1.5;"/>
   </g>
   <g id="line2d_25">
    <path clip-path="url(#p3d5b34f7ea)" d="M 74.970227 264.553292 
L 399.624773 264.546698 
L 399.624773 264.546698 
" style="fill:none;stroke:#bcbd22;stroke-linecap:square;stroke-width:1.5;"/>
   </g>
   <g id="line2d_26">
    <path clip-path="url(#p3d5b34f7ea)" d="M 74.970227 264.553292 
L 399.624773 264.550114 
L 399.624773 264.550114 
" style="fill:none;stroke:#17becf;stroke-linecap:square;stroke-width:1.5;"/>
   </g>
   <g id="line2d_27">
    <path clip-path="url(#p3d5b34f7ea)" d="M 74.970227 264.538912 
L 108.439768 264.545427 
L 110.113245 264.716 
L 111.786722 264.542805 
L 173.705373 264.585389 
L 175.37885 264.716 
L 177.052327 264.548764 
L 182.072758 264.536688 
L 183.746235 264.583403 
L 187.093189 264.48179 
L 193.787097 264.552021 
L 207.174913 264.552657 
L 250.685316 264.528346 
L 252.358793 264.615817 
L 255.705747 264.566083 
L 270.767041 264.544791 
L 275.787472 264.550194 
L 292.522242 264.515873 
L 297.542673 264.55075 
L 309.257013 264.548843 
L 310.93049 264.608985 
L 314.277444 264.429672 
L 315.950921 264.645371 
L 319.297875 264.480042 
L 324.318306 264.61828 
L 325.991783 264.509278 
L 332.685691 264.561872 
L 342.726553 264.548764 
L 344.40003 264.643306 
L 346.073507 264.525883 
L 352.767416 264.548049 
L 357.787847 264.500221 
L 362.808278 264.540342 
L 379.543048 264.528505 
L 381.216525 264.595399 
L 384.563479 264.554404 
L 399.624773 264.514284 
L 399.624773 264.514284 
" style="fill:none;stroke:#1f77b4;stroke-linecap:square;stroke-width:1.5;"/>
   </g>
   <g id="line2d_28">
    <path clip-path="url(#p3d5b34f7ea)" d="M 74.970227 264.553292 
L 399.624773 264.553292 
L 399.624773 264.553292 
" style="fill:none;stroke:#ff7f0e;stroke-linecap:square;stroke-width:1.5;"/>
   </g>
   <g id="patch_3">
    <path d="M 58.7375 276.812 
L 58.7375 10.7 
" style="fill:none;stroke:#000000;stroke-linecap:square;stroke-linejoin:miter;stroke-width:0.8;"/>
   </g>
   <g id="patch_4">
    <path d="M 415.8575 276.812 
L 415.8575 10.7 
" style="fill:none;stroke:#000000;stroke-linecap:square;stroke-linejoin:miter;stroke-width:0.8;"/>
   </g>
   <g id="patch_5">
    <path d="M 58.7375 276.812 
L 415.8575 276.812 
" style="fill:none;stroke:#000000;stroke-linecap:square;stroke-linejoin:miter;stroke-width:0.8;"/>
   </g>
   <g id="patch_6">
    <path d="M 58.7375 10.7 
L 415.8575 10.7 
" style="fill:none;stroke:#000000;stroke-linecap:square;stroke-linejoin:miter;stroke-width:0.8;"/>
   </g>
   <g id="legend_1">
    <g id="patch_7">
     <path d="M 318.504375 165.48125 
L 408.8575 165.48125 
Q 410.8575 165.48125 410.8575 163.48125 
L 410.8575 17.7 
Q 410.8575 15.7 408.8575 15.7 
L 318.504375 15.7 
Q 316.504375 15.7 316.504375 17.7 
L 316.504375 163.48125 
Q 316.504375 165.48125 318.504375 165.48125 
z
" style="fill:#ffffff;opacity:0.8;stroke:#cccccc;stroke-linejoin:miter;"/>
    </g>
    <g id="line2d_29">
     <path d="M 320.504375 23.798437 
L 340.504375 23.798437 
" style="fill:none;stroke:#1f77b4;stroke-linecap:square;stroke-width:1.5;"/>
    </g>
    <g id="line2d_30"/>
    <g id="text_17">
     <!-- delta -->
     <defs>
      <path d="M 45.40625 46.390625 
L 45.40625 75.984375 
L 54.390625 75.984375 
L 54.390625 0 
L 45.40625 0 
L 45.40625 8.203125 
Q 42.578125 3.328125 38.25 0.953125 
Q 33.9375 -1.421875 27.875 -1.421875 
Q 17.96875 -1.421875 11.734375 6.484375 
Q 5.515625 14.40625 5.515625 27.296875 
Q 5.515625 40.1875 11.734375 48.09375 
Q 17.96875 56 27.875 56 
Q 33.9375 56 38.25 53.625 
Q 42.578125 51.265625 45.40625 46.390625 
M 14.796875 27.296875 
Q 14.796875 17.390625 18.875 11.75 
Q 22.953125 6.109375 30.078125 6.109375 
Q 37.203125 6.109375 41.296875 11.75 
Q 45.40625 17.390625 45.40625 27.296875 
Q 45.40625 37.203125 41.296875 42.84375 
Q 37.203125 48.484375 30.078125 48.484375 
Q 22.953125 48.484375 18.875 42.84375 
Q 14.796875 37.203125 14.796875 27.296875 
" id="DejaVuSans-64"/>
      <path d="M 56.203125 29.59375 
L 56.203125 25.203125 
L 14.890625 25.203125 
Q 15.484375 15.921875 20.484375 11.0625 
Q 25.484375 6.203125 34.421875 6.203125 
Q 39.59375 6.203125 44.453125 7.46875 
Q 49.3125 8.734375 54.109375 11.28125 
L 54.109375 2.78125 
Q 49.265625 0.734375 44.1875 -0.34375 
Q 39.109375 -1.421875 33.890625 -1.421875 
Q 20.796875 -1.421875 13.15625 6.1875 
Q 5.515625 13.8125 5.515625 26.8125 
Q 5.515625 40.234375 12.765625 48.109375 
Q 20.015625 56 32.328125 56 
Q 43.359375 56 49.78125 48.890625 
Q 56.203125 41.796875 56.203125 29.59375 
M 47.21875 32.234375 
Q 47.125 39.59375 43.09375 43.984375 
Q 39.0625 48.390625 32.421875 48.390625 
Q 24.90625 48.390625 20.390625 44.140625 
Q 15.875 39.890625 15.1875 32.171875 
z
" id="DejaVuSans-65"/>
      <path d="M 9.421875 75.984375 
L 18.40625 75.984375 
L 18.40625 0 
L 9.421875 0 
z
" id="DejaVuSans-6c"/>
      <path d="M 18.3125 70.21875 
L 18.3125 54.6875 
L 36.8125 54.6875 
L 36.8125 47.703125 
L 18.3125 47.703125 
L 18.3125 18.015625 
Q 18.3125 11.328125 20.140625 9.421875 
Q 21.96875 7.515625 27.59375 7.515625 
L 36.8125 7.515625 
L 36.8125 0 
L 27.59375 0 
Q 17.1875 0 13.234375 3.875 
Q 9.28125 7.765625 9.28125 18.015625 
L 9.28125 47.703125 
L 2.6875 47.703125 
L 2.6875 54.6875 
L 9.28125 54.6875 
L 9.28125 70.21875 
z
" id="DejaVuSans-74"/>
      <path d="M 34.28125 27.484375 
Q 23.390625 27.484375 19.1875 25 
Q 14.984375 22.515625 14.984375 16.5 
Q 14.984375 11.71875 18.140625 8.90625 
Q 21.296875 6.109375 26.703125 6.109375 
Q 34.1875 6.109375 38.703125 11.40625 
Q 43.21875 16.703125 43.21875 25.484375 
L 43.21875 27.484375 
z
M 52.203125 31.203125 
L 52.203125 0 
L 43.21875 0 
L 43.21875 8.296875 
Q 40.140625 3.328125 35.546875 0.953125 
Q 30.953125 -1.421875 24.3125 -1.421875 
Q 15.921875 -1.421875 10.953125 3.296875 
Q 6 8.015625 6 15.921875 
Q 6 25.140625 12.171875 29.828125 
Q 18.359375 34.515625 30.609375 34.515625 
L 43.21875 34.515625 
L 43.21875 35.40625 
Q 43.21875 41.609375 39.140625 45 
Q 35.0625 48.390625 27.6875 48.390625 
Q 23 48.390625 18.546875 47.265625 
Q 14.109375 46.140625 10.015625 43.890625 
L 10.015625 52.203125 
Q 14.9375 54.109375 19.578125 55.046875 
Q 24.21875 56 28.609375 56 
Q 40.484375 56 46.34375 49.84375 
Q 52.203125 43.703125 52.203125 31.203125 
" id="DejaVuSans-61"/>
     </defs>
     <g transform="translate(348.504375 27.298437)scale(0.1 -0.1)">
      <use xlink:href="#DejaVuSans-64"/>
      <use x="63.476562" xlink:href="#DejaVuSans-65"/>
      <use x="125" xlink:href="#DejaVuSans-6c"/>
      <use x="152.783203" xlink:href="#DejaVuSans-74"/>
      <use x="191.992188" xlink:href="#DejaVuSans-61"/>
     </g>
    </g>
    <g id="line2d_31">
     <path d="M 320.504375 38.476562 
L 340.504375 38.476562 
" style="fill:none;stroke:#ff7f0e;stroke-linecap:square;stroke-width:1.5;"/>
    </g>
    <g id="line2d_32"/>
    <g id="text_18">
     <!-- lowAlpha -->
     <defs>
      <path d="M 30.609375 48.390625 
Q 23.390625 48.390625 19.1875 42.75 
Q 14.984375 37.109375 14.984375 27.296875 
Q 14.984375 17.484375 19.15625 11.84375 
Q 23.34375 6.203125 30.609375 6.203125 
Q 37.796875 6.203125 41.984375 11.859375 
Q 46.1875 17.53125 46.1875 27.296875 
Q 46.1875 37.015625 41.984375 42.703125 
Q 37.796875 48.390625 30.609375 48.390625 
M 30.609375 56 
Q 42.328125 56 49.015625 48.375 
Q 55.71875 40.765625 55.71875 27.296875 
Q 55.71875 13.875 49.015625 6.21875 
Q 42.328125 -1.421875 30.609375 -1.421875 
Q 18.84375 -1.421875 12.171875 6.21875 
Q 5.515625 13.875 5.515625 27.296875 
Q 5.515625 40.765625 12.171875 48.375 
Q 18.84375 56 30.609375 56 
" id="DejaVuSans-6f"/>
      <path d="M 4.203125 54.6875 
L 13.1875 54.6875 
L 24.421875 12.015625 
L 35.59375 54.6875 
L 46.1875 54.6875 
L 57.421875 12.015625 
L 68.609375 54.6875 
L 77.59375 54.6875 
L 63.28125 0 
L 52.6875 0 
L 40.921875 44.828125 
L 29.109375 0 
L 18.5 0 
z
" id="DejaVuSans-77"/>
      <path d="M 34.1875 63.1875 
L 20.796875 26.90625 
L 47.609375 26.90625 
z
M 28.609375 72.90625 
L 39.796875 72.90625 
L 67.578125 0 
L 57.328125 0 
L 50.6875 18.703125 
L 17.828125 18.703125 
L 11.1875 0 
L 0.78125 0 
z
" id="DejaVuSans-41"/>
      <path d="M 18.109375 8.203125 
L 18.109375 -20.796875 
L 9.078125 -20.796875 
L 9.078125 54.6875 
L 18.109375 54.6875 
L 18.109375 46.390625 
Q 20.953125 51.265625 25.265625 53.625 
Q 29.59375 56 35.59375 56 
Q 45.5625 56 51.78125 48.09375 
Q 58.015625 40.1875 58.015625 27.296875 
Q 58.015625 14.40625 51.78125 6.484375 
Q 45.5625 -1.421875 35.59375 -1.421875 
Q 29.59375 -1.421875 25.265625 0.953125 
Q 20.953125 3.328125 18.109375 8.203125 
M 48.6875 27.296875 
Q 48.6875 37.203125 44.609375 42.84375 
Q 40.53125 48.484375 33.40625 48.484375 
Q 26.265625 48.484375 22.1875 42.84375 
Q 18.109375 37.203125 18.109375 27.296875 
Q 18.109375 17.390625 22.1875 11.75 
Q 26.265625 6.109375 33.40625 6.109375 
Q 40.53125 6.109375 44.609375 11.75 
Q 48.6875 17.390625 48.6875 27.296875 
" id="DejaVuSans-70"/>
      <path d="M 54.890625 33.015625 
L 54.890625 0 
L 45.90625 0 
L 45.90625 32.71875 
Q 45.90625 40.484375 42.875 44.328125 
Q 39.84375 48.1875 33.796875 48.1875 
Q 26.515625 48.1875 22.3125 43.546875 
Q 18.109375 38.921875 18.109375 30.90625 
L 18.109375 0 
L 9.078125 0 
L 9.078125 75.984375 
L 18.109375 75.984375 
L 18.109375 46.1875 
Q 21.34375 51.125 25.703125 53.5625 
Q 30.078125 56 35.796875 56 
Q 45.21875 56 50.046875 50.171875 
Q 54.890625 44.34375 54.890625 33.015625 
" id="DejaVuSans-68"/>
     </defs>
     <g transform="translate(348.504375 41.976562)scale(0.1 -0.1)">
      <use xlink:href="#DejaVuSans-6c"/>
      <use x="27.783203" xlink:href="#DejaVuSans-6f"/>
      <use x="88.964844" xlink:href="#DejaVuSans-77"/>
      <use x="170.751953" xlink:href="#DejaVuSans-41"/>
      <use x="239.160156" xlink:href="#DejaVuSans-6c"/>
      <use x="266.943359" xlink:href="#DejaVuSans-70"/>
      <use x="330.419922" xlink:href="#DejaVuSans-68"/>
      <use x="393.798828" xlink:href="#DejaVuSans-61"/>
     </g>
    </g>
    <g id="line2d_33">
     <path d="M 320.504375 53.154687 
L 340.504375 53.154687 
" style="fill:none;stroke:#2ca02c;stroke-linecap:square;stroke-width:1.5;"/>
    </g>
    <g id="line2d_34"/>
    <g id="text_19">
     <!-- highAlpha -->
     <defs>
      <path d="M 9.421875 54.6875 
L 18.40625 54.6875 
L 18.40625 0 
L 9.421875 0 
z
M 9.421875 75.984375 
L 18.40625 75.984375 
L 18.40625 64.59375 
L 9.421875 64.59375 
z
" id="DejaVuSans-69"/>
      <path d="M 45.40625 27.984375 
Q 45.40625 37.75 41.375 43.109375 
Q 37.359375 48.484375 30.078125 48.484375 
Q 22.859375 48.484375 18.828125 43.109375 
Q 14.796875 37.75 14.796875 27.984375 
Q 14.796875 18.265625 18.828125 12.890625 
Q 22.859375 7.515625 30.078125 7.515625 
Q 37.359375 7.515625 41.375 12.890625 
Q 45.40625 18.265625 45.40625 27.984375 
M 54.390625 6.78125 
Q 54.390625 -7.171875 48.1875 -13.984375 
Q 42 -20.796875 29.203125 -20.796875 
Q 24.46875 -20.796875 20.265625 -20.09375 
Q 16.0625 -19.390625 12.109375 -17.921875 
L 12.109375 -9.1875 
Q 16.0625 -11.328125 19.921875 -12.34375 
Q 23.78125 -13.375 27.78125 -13.375 
Q 36.625 -13.375 41.015625 -8.765625 
Q 45.40625 -4.15625 45.40625 5.171875 
L 45.40625 9.625 
Q 42.625 4.78125 38.28125 2.390625 
Q 33.9375 0 27.875 0 
Q 17.828125 0 11.671875 7.65625 
Q 5.515625 15.328125 5.515625 27.984375 
Q 5.515625 40.671875 11.671875 48.328125 
Q 17.828125 56 27.875 56 
Q 33.9375 56 38.28125 53.609375 
Q 42.625 51.21875 45.40625 46.390625 
L 45.40625 54.6875 
L 54.390625 54.6875 
z
" id="DejaVuSans-67"/>
     </defs>
     <g transform="translate(348.504375 56.654687)scale(0.1 -0.1)">
      <use xlink:href="#DejaVuSans-68"/>
      <use x="63.378906" xlink:href="#DejaVuSans-69"/>
      <use x="91.162109" xlink:href="#DejaVuSans-67"/>
      <use x="154.638672" xlink:href="#DejaVuSans-68"/>
      <use x="218.017578" xlink:href="#DejaVuSans-41"/>
      <use x="286.425781" xlink:href="#DejaVuSans-6c"/>
      <use x="314.208984" xlink:href="#DejaVuSans-70"/>
      <use x="377.685547" xlink:href="#DejaVuSans-68"/>
      <use x="441.064453" xlink:href="#DejaVuSans-61"/>
     </g>
    </g>
    <g id="line2d_35">
     <path d="M 320.504375 67.832812 
L 340.504375 67.832812 
" style="fill:none;stroke:#d62728;stroke-linecap:square;stroke-width:1.5;"/>
    </g>
    <g id="line2d_36"/>
    <g id="text_20">
     <!-- lowBeta -->
     <defs>
      <path d="M 19.671875 34.8125 
L 19.671875 8.109375 
L 35.5 8.109375 
Q 43.453125 8.109375 47.28125 11.40625 
Q 51.125 14.703125 51.125 21.484375 
Q 51.125 28.328125 47.28125 31.5625 
Q 43.453125 34.8125 35.5 34.8125 
z
M 19.671875 64.796875 
L 19.671875 42.828125 
L 34.28125 42.828125 
Q 41.5 42.828125 45.03125 45.53125 
Q 48.578125 48.25 48.578125 53.8125 
Q 48.578125 59.328125 45.03125 62.0625 
Q 41.5 64.796875 34.28125 64.796875 
z
M 9.8125 72.90625 
L 35.015625 72.90625 
Q 46.296875 72.90625 52.390625 68.21875 
Q 58.5 63.53125 58.5 54.890625 
Q 58.5 48.1875 55.375 44.234375 
Q 52.25 40.28125 46.1875 39.3125 
Q 53.46875 37.75 57.5 32.78125 
Q 61.53125 27.828125 61.53125 20.40625 
Q 61.53125 10.640625 54.890625 5.3125 
Q 48.25 0 35.984375 0 
L 9.8125 0 
z
" id="DejaVuSans-42"/>
     </defs>
     <g transform="translate(348.504375 71.332812)scale(0.1 -0.1)">
      <use xlink:href="#DejaVuSans-6c"/>
      <use x="27.783203" xlink:href="#DejaVuSans-6f"/>
      <use x="88.964844" xlink:href="#DejaVuSans-77"/>
      <use x="170.751953" xlink:href="#DejaVuSans-42"/>
      <use x="239.355469" xlink:href="#DejaVuSans-65"/>
      <use x="300.878906" xlink:href="#DejaVuSans-74"/>
      <use x="340.087891" xlink:href="#DejaVuSans-61"/>
     </g>
    </g>
    <g id="line2d_37">
     <path d="M 320.504375 82.510938 
L 340.504375 82.510938 
" style="fill:none;stroke:#9467bd;stroke-linecap:square;stroke-width:1.5;"/>
    </g>
    <g id="line2d_38"/>
    <g id="text_21">
     <!-- highBeta -->
     <g transform="translate(348.504375 86.010938)scale(0.1 -0.1)">
      <use xlink:href="#DejaVuSans-68"/>
      <use x="63.378906" xlink:href="#DejaVuSans-69"/>
      <use x="91.162109" xlink:href="#DejaVuSans-67"/>
      <use x="154.638672" xlink:href="#DejaVuSans-68"/>
      <use x="218.017578" xlink:href="#DejaVuSans-42"/>
      <use x="286.621094" xlink:href="#DejaVuSans-65"/>
      <use x="348.144531" xlink:href="#DejaVuSans-74"/>
      <use x="387.353516" xlink:href="#DejaVuSans-61"/>
     </g>
    </g>
    <g id="line2d_39">
     <path d="M 320.504375 97.189062 
L 340.504375 97.189062 
" style="fill:none;stroke:#8c564b;stroke-linecap:square;stroke-width:1.5;"/>
    </g>
    <g id="line2d_40"/>
    <g id="text_22">
     <!-- lowGamma -->
     <defs>
      <path d="M 59.515625 10.40625 
L 59.515625 29.984375 
L 43.40625 29.984375 
L 43.40625 38.09375 
L 69.28125 38.09375 
L 69.28125 6.78125 
Q 63.578125 2.734375 56.6875 0.65625 
Q 49.8125 -1.421875 42 -1.421875 
Q 24.90625 -1.421875 15.25 8.5625 
Q 5.609375 18.5625 5.609375 36.375 
Q 5.609375 54.25 15.25 64.234375 
Q 24.90625 74.21875 42 74.21875 
Q 49.125 74.21875 55.546875 72.453125 
Q 61.96875 70.703125 67.390625 67.28125 
L 67.390625 56.78125 
Q 61.921875 61.421875 55.765625 63.765625 
Q 49.609375 66.109375 42.828125 66.109375 
Q 29.4375 66.109375 22.71875 58.640625 
Q 16.015625 51.171875 16.015625 36.375 
Q 16.015625 21.625 22.71875 14.15625 
Q 29.4375 6.6875 42.828125 6.6875 
Q 48.046875 6.6875 52.140625 7.59375 
Q 56.25 8.5 59.515625 10.40625 
" id="DejaVuSans-47"/>
      <path d="M 52 44.1875 
Q 55.375 50.25 60.0625 53.125 
Q 64.75 56 71.09375 56 
Q 79.640625 56 84.28125 50.015625 
Q 88.921875 44.046875 88.921875 33.015625 
L 88.921875 0 
L 79.890625 0 
L 79.890625 32.71875 
Q 79.890625 40.578125 77.09375 44.375 
Q 74.3125 48.1875 68.609375 48.1875 
Q 61.625 48.1875 57.5625 43.546875 
Q 53.515625 38.921875 53.515625 30.90625 
L 53.515625 0 
L 44.484375 0 
L 44.484375 32.71875 
Q 44.484375 40.625 41.703125 44.40625 
Q 38.921875 48.1875 33.109375 48.1875 
Q 26.21875 48.1875 22.15625 43.53125 
Q 18.109375 38.875 18.109375 30.90625 
L 18.109375 0 
L 9.078125 0 
L 9.078125 54.6875 
L 18.109375 54.6875 
L 18.109375 46.1875 
Q 21.1875 51.21875 25.484375 53.609375 
Q 29.78125 56 35.6875 56 
Q 41.65625 56 45.828125 52.96875 
Q 50 49.953125 52 44.1875 
" id="DejaVuSans-6d"/>
     </defs>
     <g transform="translate(348.504375 100.689062)scale(0.1 -0.1)">
      <use xlink:href="#DejaVuSans-6c"/>
      <use x="27.783203" xlink:href="#DejaVuSans-6f"/>
      <use x="88.964844" xlink:href="#DejaVuSans-77"/>
      <use x="170.751953" xlink:href="#DejaVuSans-47"/>
      <use x="248.242188" xlink:href="#DejaVuSans-61"/>
      <use x="309.521484" xlink:href="#DejaVuSans-6d"/>
      <use x="406.933594" xlink:href="#DejaVuSans-6d"/>
      <use x="504.345703" xlink:href="#DejaVuSans-61"/>
     </g>
    </g>
    <g id="line2d_41">
     <path d="M 320.504375 111.867188 
L 340.504375 111.867188 
" style="fill:none;stroke:#e377c2;stroke-linecap:square;stroke-width:1.5;"/>
    </g>
    <g id="line2d_42"/>
    <g id="text_23">
     <!-- midGamma -->
     <g transform="translate(348.504375 115.367188)scale(0.1 -0.1)">
      <use xlink:href="#DejaVuSans-6d"/>
      <use x="97.412109" xlink:href="#DejaVuSans-69"/>
      <use x="125.195312" xlink:href="#DejaVuSans-64"/>
      <use x="188.671875" xlink:href="#DejaVuSans-47"/>
      <use x="266.162109" xlink:href="#DejaVuSans-61"/>
      <use x="327.441406" xlink:href="#DejaVuSans-6d"/>
      <use x="424.853516" xlink:href="#DejaVuSans-6d"/>
      <use x="522.265625" xlink:href="#DejaVuSans-61"/>
     </g>
    </g>
    <g id="line2d_43">
     <path d="M 320.504375 126.545312 
L 340.504375 126.545312 
" style="fill:none;stroke:#7f7f7f;stroke-linecap:square;stroke-width:1.5;"/>
    </g>
    <g id="line2d_44"/>
    <g id="text_24">
     <!-- attention -->
     <defs>
      <path d="M 54.890625 33.015625 
L 54.890625 0 
L 45.90625 0 
L 45.90625 32.71875 
Q 45.90625 40.484375 42.875 44.328125 
Q 39.84375 48.1875 33.796875 48.1875 
Q 26.515625 48.1875 22.3125 43.546875 
Q 18.109375 38.921875 18.109375 30.90625 
L 18.109375 0 
L 9.078125 0 
L 9.078125 54.6875 
L 18.109375 54.6875 
L 18.109375 46.1875 
Q 21.34375 51.125 25.703125 53.5625 
Q 30.078125 56 35.796875 56 
Q 45.21875 56 50.046875 50.171875 
Q 54.890625 44.34375 54.890625 33.015625 
" id="DejaVuSans-6e"/>
     </defs>
     <g transform="translate(348.504375 130.045312)scale(0.1 -0.1)">
      <use xlink:href="#DejaVuSans-61"/>
      <use x="61.279297" xlink:href="#DejaVuSans-74"/>
      <use x="100.488281" xlink:href="#DejaVuSans-74"/>
      <use x="139.697266" xlink:href="#DejaVuSans-65"/>
      <use x="201.220703" xlink:href="#DejaVuSans-6e"/>
      <use x="264.599609" xlink:href="#DejaVuSans-74"/>
      <use x="303.808594" xlink:href="#DejaVuSans-69"/>
      <use x="331.591797" xlink:href="#DejaVuSans-6f"/>
      <use x="392.773438" xlink:href="#DejaVuSans-6e"/>
     </g>
    </g>
    <g id="line2d_45">
     <path d="M 320.504375 141.223437 
L 340.504375 141.223437 
" style="fill:none;stroke:#bcbd22;stroke-linecap:square;stroke-width:1.5;"/>
    </g>
    <g id="line2d_46"/>
    <g id="text_25">
     <!-- meditation -->
     <g transform="translate(348.504375 144.723437)scale(0.1 -0.1)">
      <use xlink:href="#DejaVuSans-6d"/>
      <use x="97.412109" xlink:href="#DejaVuSans-65"/>
      <use x="158.935547" xlink:href="#DejaVuSans-64"/>
      <use x="222.412109" xlink:href="#DejaVuSans-69"/>
      <use x="250.195312" xlink:href="#DejaVuSans-74"/>
      <use x="289.404297" xlink:href="#DejaVuSans-61"/>
      <use x="350.683594" xlink:href="#DejaVuSans-74"/>
      <use x="389.892578" xlink:href="#DejaVuSans-69"/>
      <use x="417.675781" xlink:href="#DejaVuSans-6f"/>
      <use x="478.857422" xlink:href="#DejaVuSans-6e"/>
     </g>
    </g>
    <g id="line2d_47">
     <path d="M 320.504375 155.901562 
L 340.504375 155.901562 
" style="fill:none;stroke:#17becf;stroke-linecap:square;stroke-width:1.5;"/>
    </g>
    <g id="line2d_48"/>
    <g id="text_26">
     <!-- rawValue -->
     <defs>
      <path d="M 41.109375 46.296875 
Q 39.59375 47.171875 37.8125 47.578125 
Q 36.03125 48 33.890625 48 
Q 26.265625 48 22.1875 43.046875 
Q 18.109375 38.09375 18.109375 28.8125 
L 18.109375 0 
L 9.078125 0 
L 9.078125 54.6875 
L 18.109375 54.6875 
L 18.109375 46.1875 
Q 20.953125 51.171875 25.484375 53.578125 
Q 30.03125 56 36.53125 56 
Q 37.453125 56 38.578125 55.875 
Q 39.703125 55.765625 41.0625 55.515625 
z
" id="DejaVuSans-72"/>
      <path d="M 28.609375 0 
L 0.78125 72.90625 
L 11.078125 72.90625 
L 34.1875 11.53125 
L 57.328125 72.90625 
L 67.578125 72.90625 
L 39.796875 0 
z
" id="DejaVuSans-56"/>
      <path d="M 8.5 21.578125 
L 8.5 54.6875 
L 17.484375 54.6875 
L 17.484375 21.921875 
Q 17.484375 14.15625 20.5 10.265625 
Q 23.53125 6.390625 29.59375 6.390625 
Q 36.859375 6.390625 41.078125 11.03125 
Q 45.3125 15.671875 45.3125 23.6875 
L 45.3125 54.6875 
L 54.296875 54.6875 
L 54.296875 0 
L 45.3125 0 
L 45.3125 8.40625 
Q 42.046875 3.421875 37.71875 1 
Q 33.40625 -1.421875 27.6875 -1.421875 
Q 18.265625 -1.421875 13.375 4.4375 
Q 8.5 10.296875 8.5 21.578125 
M 31.109375 56 
z
" id="DejaVuSans-75"/>
     </defs>
     <g transform="translate(348.504375 159.401562)scale(0.1 -0.1)">
      <use xlink:href="#DejaVuSans-72"/>
      <use x="41.113281" xlink:href="#DejaVuSans-61"/>
      <use x="102.392578" xlink:href="#DejaVuSans-77"/>
      <use x="184.179688" xlink:href="#DejaVuSans-56"/>
      <use x="252.478516" xlink:href="#DejaVuSans-61"/>
      <use x="313.757812" xlink:href="#DejaVuSans-6c"/>
      <use x="341.541016" xlink:href="#DejaVuSans-75"/>
      <use x="404.919922" xlink:href="#DejaVuSans-65"/>
     </g>
    </g>
   </g>
  </g>
 </g>
 <defs>
  <clipPath id="p3d5b34f7ea">
   <rect height="266.112" width="357.12" x="58.7375" y="10.7"/>
  </clipPath>
 </defs>
</svg>
