<?xml version="1.0" encoding="utf-8" standalone="no"?>
<!DOCTYPE svg PUBLIC "-//W3C//DTD SVG 1.1//EN"
  "http://www.w3.org/Graphics/SVG/1.1/DTD/svg11.dtd">
<!-- Created with matplotlib (http://matplotlib.org/) -->
<svg height="300pt" version="1.1" viewBox="0 0 420 300" width="420pt" xmlns="http://www.w3.org/2000/svg" xmlns:xlink="http://www.w3.org/1999/xlink">
 <defs>
  <style type="text/css">
*{stroke-linecap:butt;stroke-linejoin:round;}
  </style>
 </defs>
 <g id="figure_1">
  <g id="patch_1">
   <path d="M 0 300.690125 
L 420.195 300.690125 
L 420.195 0 
L 0 0 
z
" style="fill:#ffffff;"/>
  </g>
  <g id="axes_1">
   <g id="patch_2">
    <path d="M 52.375 276.812 
L 409.495 276.812 
L 409.495 10.7 
L 52.375 10.7 
z
" style="fill:#ffffff;"/>
   </g>
   <g id="matplotlib.axis_1">
    <g id="xtick_1">
     <g id="line2d_1">
      <defs>
       <path d="M 0 0 
L 0 3.5 
" id="m7c04d6c496" style="stroke:#000000;stroke-width:0.8;"/>
      </defs>
      <g>
       <use style="stroke:#000000;stroke-width:0.8;" x="68.607727" xlink:href="#m7c04d6c496" y="276.812"/>
      </g>
     </g>
     <g id="text_1">
      <!-- 0 -->
      <defs>
       <path d="M 31.78125 66.40625 
Q 24.171875 66.40625 20.328125 58.90625 
Q 16.5 51.421875 16.5 36.375 
Q 16.5 21.390625 20.328125 13.890625 
Q 24.171875 6.390625 31.78125 6.390625 
Q 39.453125 6.390625 43.28125 13.890625 
Q 47.125 21.390625 47.125 36.375 
Q 47.125 51.421875 43.28125 58.90625 
Q 39.453125 66.40625 31.78125 66.40625 
M 31.78125 74.21875 
Q 44.046875 74.21875 50.515625 64.515625 
Q 56.984375 54.828125 56.984375 36.375 
Q 56.984375 17.96875 50.515625 8.265625 
Q 44.046875 -1.421875 31.78125 -1.421875 
Q 19.53125 -1.421875 13.0625 8.265625 
Q 6.59375 17.96875 6.59375 36.375 
Q 6.59375 54.828125 13.0625 64.515625 
Q 19.53125 74.21875 31.78125 74.21875 
" id="DejaVuSans-30"/>
      </defs>
      <g transform="translate(65.426477 291.410437)scale(0.1 -0.1)">
       <use xlink:href="#DejaVuSans-30"/>
      </g>
     </g>
    </g>
    <g id="xtick_2">
     <g id="line2d_2">
      <g>
       <use style="stroke:#000000;stroke-width:0.8;" x="109.807543" xlink:href="#m7c04d6c496" y="276.812"/>
      </g>
     </g>
     <g id="text_2">
      <!-- 25 -->
      <defs>
       <path d="M 19.1875 8.296875 
L 53.609375 8.296875 
L 53.609375 0 
L 7.328125 0 
L 7.328125 8.296875 
Q 12.9375 14.109375 22.625 23.890625 
Q 32.328125 33.6875 34.8125 36.53125 
Q 39.546875 41.84375 41.421875 45.53125 
Q 43.3125 49.21875 43.3125 52.78125 
Q 43.3125 58.59375 39.234375 62.25 
Q 35.15625 65.921875 28.609375 65.921875 
Q 23.96875 65.921875 18.8125 64.3125 
Q 13.671875 62.703125 7.8125 59.421875 
L 7.8125 69.390625 
Q 13.765625 71.78125 18.9375 73 
Q 24.125 74.21875 28.421875 74.21875 
Q 39.75 74.21875 46.484375 68.546875 
Q 53.21875 62.890625 53.21875 53.421875 
Q 53.21875 48.921875 51.53125 44.890625 
Q 49.859375 40.875 45.40625 35.40625 
Q 44.1875 33.984375 37.640625 27.21875 
Q 31.109375 20.453125 19.1875 8.296875 
" id="DejaVuSans-32"/>
       <path d="M 10.796875 72.90625 
L 49.515625 72.90625 
L 49.515625 64.59375 
L 19.828125 64.59375 
L 19.828125 46.734375 
Q 21.96875 47.46875 24.109375 47.828125 
Q 26.265625 48.1875 28.421875 48.1875 
Q 40.625 48.1875 47.75 41.5 
Q 54.890625 34.8125 54.890625 23.390625 
Q 54.890625 11.625 47.5625 5.09375 
Q 40.234375 -1.421875 26.90625 -1.421875 
Q 22.3125 -1.421875 17.546875 -0.640625 
Q 12.796875 0.140625 7.71875 1.703125 
L 7.71875 11.625 
Q 12.109375 9.234375 16.796875 8.0625 
Q 21.484375 6.890625 26.703125 6.890625 
Q 35.15625 6.890625 40.078125 11.328125 
Q 45.015625 15.765625 45.015625 23.390625 
Q 45.015625 31 40.078125 35.4375 
Q 35.15625 39.890625 26.703125 39.890625 
Q 22.75 39.890625 18.8125 39.015625 
Q 14.890625 38.140625 10.796875 36.28125 
z
" id="DejaVuSans-35"/>
      </defs>
      <g transform="translate(103.445043 291.410437)scale(0.1 -0.1)">
       <use xlink:href="#DejaVuSans-32"/>
       <use x="63.623047" xlink:href="#DejaVuSans-35"/>
      </g>
     </g>
    </g>
    <g id="xtick_3">
     <g id="line2d_3">
      <g>
       <use style="stroke:#000000;stroke-width:0.8;" x="151.007358" xlink:href="#m7c04d6c496" y="276.812"/>
      </g>
     </g>
     <g id="text_3">
      <!-- 50 -->
      <g transform="translate(144.644858 291.410437)scale(0.1 -0.1)">
       <use xlink:href="#DejaVuSans-35"/>
       <use x="63.623047" xlink:href="#DejaVuSans-30"/>
      </g>
     </g>
    </g>
    <g id="xtick_4">
     <g id="line2d_4">
      <g>
       <use style="stroke:#000000;stroke-width:0.8;" x="192.207174" xlink:href="#m7c04d6c496" y="276.812"/>
      </g>
     </g>
     <g id="text_4">
      <!-- 75 -->
      <defs>
       <path d="M 8.203125 72.90625 
L 55.078125 72.90625 
L 55.078125 68.703125 
L 28.609375 0 
L 18.3125 0 
L 43.21875 64.59375 
L 8.203125 64.59375 
z
" id="DejaVuSans-37"/>
      </defs>
      <g transform="translate(185.844674 291.410437)scale(0.1 -0.1)">
       <use xlink:href="#DejaVuSans-37"/>
       <use x="63.623047" xlink:href="#DejaVuSans-35"/>
      </g>
     </g>
    </g>
    <g id="xtick_5">
     <g id="line2d_5">
      <g>
       <use style="stroke:#000000;stroke-width:0.8;" x="233.406989" xlink:href="#m7c04d6c496" y="276.812"/>
      </g>
     </g>
     <g id="text_5">
      <!-- 100 -->
      <defs>
       <path d="M 12.40625 8.296875 
L 28.515625 8.296875 
L 28.515625 63.921875 
L 10.984375 60.40625 
L 10.984375 69.390625 
L 28.421875 72.90625 
L 38.28125 72.90625 
L 38.28125 8.296875 
L 54.390625 8.296875 
L 54.390625 0 
L 12.40625 0 
z
" id="DejaVuSans-31"/>
      </defs>
      <g transform="translate(223.863239 291.410437)scale(0.1 -0.1)">
       <use xlink:href="#DejaVuSans-31"/>
       <use x="63.623047" xlink:href="#DejaVuSans-30"/>
       <use x="127.246094" xlink:href="#DejaVuSans-30"/>
      </g>
     </g>
    </g>
    <g id="xtick_6">
     <g id="line2d_6">
      <g>
       <use style="stroke:#000000;stroke-width:0.8;" x="274.606804" xlink:href="#m7c04d6c496" y="276.812"/>
      </g>
     </g>
     <g id="text_6">
      <!-- 125 -->
      <g transform="translate(265.063054 291.410437)scale(0.1 -0.1)">
       <use xlink:href="#DejaVuSans-31"/>
       <use x="63.623047" xlink:href="#DejaVuSans-32"/>
       <use x="127.246094" xlink:href="#DejaVuSans-35"/>
      </g>
     </g>
    </g>
    <g id="xtick_7">
     <g id="line2d_7">
      <g>
       <use style="stroke:#000000;stroke-width:0.8;" x="315.80662" xlink:href="#m7c04d6c496" y="276.812"/>
      </g>
     </g>
     <g id="text_7">
      <!-- 150 -->
      <g transform="translate(306.26287 291.410437)scale(0.1 -0.1)">
       <use xlink:href="#DejaVuSans-31"/>
       <use x="63.623047" xlink:href="#DejaVuSans-35"/>
       <use x="127.246094" xlink:href="#DejaVuSans-30"/>
      </g>
     </g>
    </g>
    <g id="xtick_8">
     <g id="line2d_8">
      <g>
       <use style="stroke:#000000;stroke-width:0.8;" x="357.006435" xlink:href="#m7c04d6c496" y="276.812"/>
      </g>
     </g>
     <g id="text_8">
      <!-- 175 -->
      <g transform="translate(347.462685 291.410437)scale(0.1 -0.1)">
       <use xlink:href="#DejaVuSans-31"/>
       <use x="63.623047" xlink:href="#DejaVuSans-37"/>
       <use x="127.246094" xlink:href="#DejaVuSans-35"/>
      </g>
     </g>
    </g>
    <g id="xtick_9">
     <g id="line2d_9">
      <g>
       <use style="stroke:#000000;stroke-width:0.8;" x="398.206251" xlink:href="#m7c04d6c496" y="276.812"/>
      </g>
     </g>
     <g id="text_9">
      <!-- 200 -->
      <g transform="translate(388.662501 291.410437)scale(0.1 -0.1)">
       <use xlink:href="#DejaVuSans-32"/>
       <use x="63.623047" xlink:href="#DejaVuSans-30"/>
       <use x="127.246094" xlink:href="#DejaVuSans-30"/>
      </g>
     </g>
    </g>
   </g>
   <g id="matplotlib.axis_2">
    <g id="ytick_1">
     <g id="line2d_10">
      <defs>
       <path d="M 0 0 
L -3.5 0 
" id="m2af5149a5c" style="stroke:#000000;stroke-width:0.8;"/>
      </defs>
      <g>
       <use style="stroke:#000000;stroke-width:0.8;" x="52.375" xlink:href="#m2af5149a5c" y="264.528804"/>
      </g>
     </g>
     <g id="text_10">
      <!-- 0 -->
      <g transform="translate(39.0125 268.328023)scale(0.1 -0.1)">
       <use xlink:href="#DejaVuSans-30"/>
      </g>
     </g>
    </g>
    <g id="ytick_2">
     <g id="line2d_11">
      <g>
       <use style="stroke:#000000;stroke-width:0.8;" x="52.375" xlink:href="#m2af5149a5c" y="230.117853"/>
      </g>
     </g>
     <g id="text_11">
      <!-- 25000 -->
      <g transform="translate(13.5625 233.917072)scale(0.1 -0.1)">
       <use xlink:href="#DejaVuSans-32"/>
       <use x="63.623047" xlink:href="#DejaVuSans-35"/>
       <use x="127.246094" xlink:href="#DejaVuSans-30"/>
       <use x="190.869141" xlink:href="#DejaVuSans-30"/>
       <use x="254.492188" xlink:href="#DejaVuSans-30"/>
      </g>
     </g>
    </g>
    <g id="ytick_3">
     <g id="line2d_12">
      <g>
       <use style="stroke:#000000;stroke-width:0.8;" x="52.375" xlink:href="#m2af5149a5c" y="195.706902"/>
      </g>
     </g>
     <g id="text_12">
      <!-- 50000 -->
      <g transform="translate(13.5625 199.50612)scale(0.1 -0.1)">
       <use xlink:href="#DejaVuSans-35"/>
       <use x="63.623047" xlink:href="#DejaVuSans-30"/>
       <use x="127.246094" xlink:href="#DejaVuSans-30"/>
       <use x="190.869141" xlink:href="#DejaVuSans-30"/>
       <use x="254.492188" xlink:href="#DejaVuSans-30"/>
      </g>
     </g>
    </g>
    <g id="ytick_4">
     <g id="line2d_13">
      <g>
       <use style="stroke:#000000;stroke-width:0.8;" x="52.375" xlink:href="#m2af5149a5c" y="161.29595"/>
      </g>
     </g>
     <g id="text_13">
      <!-- 75000 -->
      <g transform="translate(13.5625 165.095169)scale(0.1 -0.1)">
       <use xlink:href="#DejaVuSans-37"/>
       <use x="63.623047" xlink:href="#DejaVuSans-35"/>
       <use x="127.246094" xlink:href="#DejaVuSans-30"/>
       <use x="190.869141" xlink:href="#DejaVuSans-30"/>
       <use x="254.492188" xlink:href="#DejaVuSans-30"/>
      </g>
     </g>
    </g>
    <g id="ytick_5">
     <g id="line2d_14">
      <g>
       <use style="stroke:#000000;stroke-width:0.8;" x="52.375" xlink:href="#m2af5149a5c" y="126.884999"/>
      </g>
     </g>
     <g id="text_14">
      <!-- 100000 -->
      <g transform="translate(7.2 130.684217)scale(0.1 -0.1)">
       <use xlink:href="#DejaVuSans-31"/>
       <use x="63.623047" xlink:href="#DejaVuSans-30"/>
       <use x="127.246094" xlink:href="#DejaVuSans-30"/>
       <use x="190.869141" xlink:href="#DejaVuSans-30"/>
       <use x="254.492188" xlink:href="#DejaVuSans-30"/>
       <use x="318.115234" xlink:href="#DejaVuSans-30"/>
      </g>
     </g>
    </g>
    <g id="ytick_6">
     <g id="line2d_15">
      <g>
       <use style="stroke:#000000;stroke-width:0.8;" x="52.375" xlink:href="#m2af5149a5c" y="92.474047"/>
      </g>
     </g>
     <g id="text_15">
      <!-- 125000 -->
      <g transform="translate(7.2 96.273266)scale(0.1 -0.1)">
       <use xlink:href="#DejaVuSans-31"/>
       <use x="63.623047" xlink:href="#DejaVuSans-32"/>
       <use x="127.246094" xlink:href="#DejaVuSans-35"/>
       <use x="190.869141" xlink:href="#DejaVuSans-30"/>
       <use x="254.492188" xlink:href="#DejaVuSans-30"/>
       <use x="318.115234" xlink:href="#DejaVuSans-30"/>
      </g>
     </g>
    </g>
    <g id="ytick_7">
     <g id="line2d_16">
      <g>
       <use style="stroke:#000000;stroke-width:0.8;" x="52.375" xlink:href="#m2af5149a5c" y="58.063096"/>
      </g>
     </g>
     <g id="text_16">
      <!-- 150000 -->
      <g transform="translate(7.2 61.862315)scale(0.1 -0.1)">
       <use xlink:href="#DejaVuSans-31"/>
       <use x="63.623047" xlink:href="#DejaVuSans-35"/>
       <use x="127.246094" xlink:href="#DejaVuSans-30"/>
       <use x="190.869141" xlink:href="#DejaVuSans-30"/>
       <use x="254.492188" xlink:href="#DejaVuSans-30"/>
       <use x="318.115234" xlink:href="#DejaVuSans-30"/>
      </g>
     </g>
    </g>
    <g id="ytick_8">
     <g id="line2d_17">
      <g>
       <use style="stroke:#000000;stroke-width:0.8;" x="52.375" xlink:href="#m2af5149a5c" y="23.652144"/>
      </g>
     </g>
     <g id="text_17">
      <!-- 175000 -->
      <g transform="translate(7.2 27.451363)scale(0.1 -0.1)">
       <use xlink:href="#DejaVuSans-31"/>
       <use x="63.623047" xlink:href="#DejaVuSans-37"/>
       <use x="127.246094" xlink:href="#DejaVuSans-35"/>
       <use x="190.869141" xlink:href="#DejaVuSans-30"/>
       <use x="254.492188" xlink:href="#DejaVuSans-30"/>
       <use x="318.115234" xlink:href="#DejaVuSans-30"/>
      </g>
     </g>
    </g>
   </g>
   <g id="line2d_18">
    <path clip-path="url(#pc239f76e3a)" d="M 68.607727 105.115254 
L 70.25572 224.379483 
L 71.903713 220.156571 
L 73.551705 192.816382 
L 75.199698 64.553001 
L 76.84769 220.737428 
L 78.495683 220.48141 
L 80.143676 260.10218 
L 81.791668 240.516843 
L 83.439661 234.379305 
L 85.087653 215.233052 
L 86.735646 199.566434 
L 88.383639 254.396844 
L 90.031631 251.621945 
L 91.679624 239.66758 
L 93.327617 244.399774 
L 94.975609 240.097029 
L 96.623602 255.009359 
L 98.271594 259.804869 
L 99.919587 199.479718 
L 101.56758 246.544265 
L 103.215572 248.830528 
L 104.863565 250.515289 
L 106.511557 247.566958 
L 108.15955 258.04991 
L 109.807543 193.146727 
L 111.455535 222.200581 
L 113.103528 246.807164 
L 114.751521 250.969513 
L 116.399513 260.897761 
L 118.047506 199.653149 
L 119.695498 22.796 
L 121.343491 257.899879 
L 122.991484 259.224012 
L 124.639476 257.557146 
L 126.287469 245.206367 
L 127.935461 261.777305 
L 129.583454 247.480243 
L 131.231447 252.157379 
L 132.879439 238.112205 
L 134.527432 240.697156 
L 137.823417 260.336174 
L 139.47141 259.535087 
L 141.119402 254.435384 
L 142.767395 260.716071 
L 144.415388 231.835648 
L 146.06338 250.925467 
L 149.359365 256.239894 
L 151.007358 256.464254 
L 152.655351 259.880573 
L 154.303343 258.260506 
L 155.951336 257.935666 
L 157.599329 259.175837 
L 159.247321 252.622615 
L 162.543306 261.283163 
L 164.191299 259.168955 
L 165.839292 257.971454 
L 167.487284 253.156673 
L 169.135277 216.68657 
L 170.783269 253.381033 
L 172.431262 251.323258 
L 174.079255 230.954727 
L 175.727247 263.010593 
L 177.37524 250.383151 
L 179.023233 247.299929 
L 180.671225 252.979113 
L 182.319218 216.869637 
L 183.96721 249.510489 
L 185.615203 258.97763 
L 187.263196 238.274625 
L 188.911188 244.954479 
L 190.559181 254.724436 
L 192.207174 216.186923 
L 193.855166 253.509041 
L 195.503159 249.371469 
L 197.151151 261.826857 
L 198.799144 254.597804 
L 200.447137 257.448407 
L 202.095129 245.162321 
L 203.743122 246.606204 
L 205.391114 245.037065 
L 207.039107 260.460054 
L 208.6871 254.279847 
L 210.335092 249.226943 
L 211.983085 247.675697 
L 213.631078 256.176578 
L 215.27907 256.800105 
L 216.927063 229.604442 
L 218.575055 258.241235 
L 220.223048 215.994222 
L 221.871041 257.837939 
L 223.519033 240.310377 
L 225.167026 253.572357 
L 226.815018 263.910784 
L 228.463011 199.456319 
L 230.111004 256.476642 
L 231.758996 251.331516 
L 233.406989 247.178803 
L 235.054982 256.000394 
L 236.702974 246.647498 
L 238.350967 252.394127 
L 239.998959 254.457407 
L 241.646952 257.444278 
L 243.294945 246.096922 
L 244.942937 233.363494 
L 246.59093 251.726554 
L 248.238922 224.016103 
L 249.886915 71.568706 
L 251.534908 252.917173 
L 253.1829 239.781825 
L 254.830893 243.063253 
L 256.478886 218.118066 
L 258.126878 255.696201 
L 259.774871 210.232452 
L 261.422863 254.337657 
L 263.070856 259.230894 
L 264.718849 252.398256 
L 268.014834 226.762097 
L 269.662826 245.043947 
L 271.310819 224.980986 
L 272.958812 261.702977 
L 274.606804 249.528382 
L 276.254797 249.372845 
L 277.90279 254.445019 
L 279.550782 260.553651 
L 281.198775 258.399526 
L 282.846767 262.882585 
L 284.49476 259.631438 
L 286.142753 256.118768 
L 287.790745 250.029406 
L 289.438738 246.288247 
L 291.086731 260.70093 
L 292.734723 36.732435 
L 294.382716 239.333106 
L 296.030708 241.964855 
L 297.678701 229.082772 
L 299.326694 242.416327 
L 300.974686 245.436232 
L 302.622679 234.095759 
L 304.270671 218.085032 
L 305.918664 252.462948 
L 307.566657 252.139485 
L 309.214649 248.077617 
L 310.862642 241.278013 
L 312.510635 235.659393 
L 314.158627 251.769224 
L 315.80662 254.365186 
L 317.454612 237.547866 
L 319.102605 250.709366 
L 320.750598 247.261389 
L 322.39859 259.639696 
L 324.046583 242.317224 
L 325.694575 234.753696 
L 327.342568 257.588804 
L 328.990561 234.212756 
L 330.638553 251.906867 
L 332.286546 252.710707 
L 333.934539 219.75878 
L 335.582531 256.344504 
L 337.230524 258.425678 
L 338.878516 258.882656 
L 340.526509 250.984654 
L 342.174502 260.142096 
L 343.822494 257.926031 
L 345.470487 240.618699 
L 347.118479 255.361727 
L 348.766472 138.2998 
L 350.414465 246.980596 
L 352.062457 234.519702 
L 353.71045 177.561319 
L 355.358443 161.550591 
L 357.006435 258.998276 
L 358.654428 250.542817 
L 360.30242 248.692885 
L 361.950413 222.365754 
L 363.598406 253.008018 
L 365.246398 210.422401 
L 366.894391 224.441422 
L 368.542383 253.041052 
L 370.190376 259.31761 
L 371.838369 185.971355 
L 373.486361 263.504735 
L 375.134354 253.520053 
L 376.782347 226.306496 
L 378.430339 253.726519 
L 380.078332 248.414844 
L 381.726324 209.204253 
L 383.374317 260.630732 
L 385.02231 261.254258 
L 388.318295 253.460866 
L 389.966287 240.666874 
L 391.61428 253.239259 
L 393.262273 251.877962 
L 393.262273 251.877962 
" style="fill:none;stroke:#1f77b4;stroke-linecap:square;stroke-width:1.5;"/>
   </g>
   <g id="line2d_19">
    <path clip-path="url(#pc239f76e3a)" d="M 68.607727 233.141887 
L 70.25572 248.507065 
L 71.903713 243.655121 
L 73.551705 204.843697 
L 75.199698 100.516575 
L 76.84769 186.714632 
L 78.495683 224.473081 
L 80.143676 247.050794 
L 81.791668 204.9896 
L 83.439661 250.99016 
L 85.087653 219.092584 
L 86.735646 224.273497 
L 88.383639 228.69324 
L 90.031631 248.026689 
L 91.679624 253.905456 
L 93.327617 244.464467 
L 94.975609 236.19758 
L 96.623602 226.040843 
L 98.271594 235.651134 
L 99.919587 252.921302 
L 101.56758 248.932385 
L 103.215572 256.033429 
L 104.863565 256.480771 
L 106.511557 252.248224 
L 108.15955 238.629746 
L 109.807543 257.850327 
L 111.455535 188.410403 
L 113.103528 245.794106 
L 114.751521 256.198601 
L 116.399513 259.879197 
L 118.047506 185.735984 
L 119.695498 219.976257 
L 121.343491 258.117356 
L 122.991484 259.866809 
L 124.639476 244.436938 
L 126.287469 237.009678 
L 127.935461 248.453384 
L 129.583454 253.379656 
L 131.231447 257.162108 
L 132.879439 254.275717 
L 134.527432 252.164261 
L 136.175425 247.908315 
L 137.823417 248.663979 
L 139.47141 259.623179 
L 141.119402 258.998276 
L 142.767395 259.616297 
L 144.415388 254.628085 
L 146.06338 253.664579 
L 147.711373 249.668779 
L 149.359365 257.975583 
L 151.007358 250.666697 
L 152.655351 246.045994 
L 154.303343 253.85728 
L 155.951336 246.340552 
L 157.599329 223.885341 
L 159.247321 252.005971 
L 160.895314 226.160594 
L 162.543306 259.184095 
L 164.191299 233.340094 
L 165.839292 238.046136 
L 167.487284 251.459525 
L 169.135277 222.179935 
L 170.783269 232.048996 
L 172.431262 253.664579 
L 174.079255 246.235943 
L 175.727247 215.789133 
L 177.37524 215.328026 
L 179.023233 243.110052 
L 180.671225 256.745047 
L 182.319218 203.976541 
L 183.96721 252.764388 
L 185.615203 221.482081 
L 187.263196 241.565688 
L 188.911188 231.342883 
L 190.559181 250.173932 
L 192.207174 233.798448 
L 193.855166 226.306496 
L 195.503159 239.646934 
L 197.151151 257.870974 
L 198.799144 240.765978 
L 200.447137 250.917208 
L 202.095129 251.796752 
L 203.743122 255.532405 
L 205.391114 250.052805 
L 207.039107 257.002441 
L 208.6871 249.660521 
L 210.335092 248.610298 
L 211.983085 239.973149 
L 213.631078 245.366034 
L 215.27907 257.624591 
L 216.927063 225.4008 
L 218.575055 232.168746 
L 220.223048 242.944879 
L 221.871041 258.800069 
L 223.519033 229.27272 
L 225.167026 248.959914 
L 226.815018 259.160696 
L 228.463011 226.013315 
L 230.111004 245.012289 
L 231.758996 245.754189 
L 233.406989 257.484194 
L 235.054982 239.575359 
L 236.702974 256.756059 
L 238.350967 246.973713 
L 239.998959 254.425749 
L 241.646952 252.584075 
L 243.294945 256.54684 
L 244.942937 230.66017 
L 246.59093 261.632779 
L 248.238922 250.056935 
L 249.886915 177.913687 
L 251.534908 256.538582 
L 253.1829 258.694084 
L 254.830893 222.625901 
L 256.478886 222.263897 
L 258.126878 246.5305 
L 259.774871 254.866209 
L 261.422863 248.162956 
L 263.070856 245.366034 
L 264.718849 213.886895 
L 266.366841 233.773672 
L 268.014834 216.475975 
L 269.662826 252.935067 
L 271.310819 254.520723 
L 272.958812 256.787717 
L 274.606804 256.049946 
L 277.90279 153.334632 
L 279.550782 252.117462 
L 281.198775 249.415515 
L 282.846767 248.486419 
L 284.49476 251.013559 
L 286.142753 244.116228 
L 287.790745 249.253095 
L 289.438738 225.086972 
L 291.086731 233.580971 
L 292.734723 223.671994 
L 294.382716 241.184415 
L 296.030708 248.534594 
L 297.678701 260.09805 
L 299.326694 230.170158 
L 300.974686 243.86434 
L 304.270671 217.537209 
L 305.918664 255.034135 
L 307.566657 232.993232 
L 309.214649 217.453246 
L 310.862642 252.731354 
L 312.510635 250.417561 
L 314.158627 242.99856 
L 315.80662 242.408068 
L 317.454612 242.515431 
L 319.102605 253.568228 
L 320.750598 246.399739 
L 322.39859 259.013417 
L 324.046583 258.025135 
L 325.694575 223.848178 
L 327.342568 253.481513 
L 328.990561 255.393385 
L 330.638553 230.924446 
L 332.286546 240.244308 
L 333.934539 192.071729 
L 335.582531 227.209439 
L 337.230524 225.318213 
L 338.878516 253.430584 
L 340.526509 247.861516 
L 342.174502 258.325198 
L 343.822494 248.128545 
L 345.470487 260.074651 
L 347.118479 245.306847 
L 348.766472 258.275646 
L 350.414465 237.132181 
L 352.062457 255.904044 
L 353.71045 231.644323 
L 355.358443 240.366811 
L 357.006435 260.546769 
L 358.654428 216.803568 
L 360.30242 251.079628 
L 361.950413 218.37546 
L 363.598406 250.106486 
L 365.246398 146.135861 
L 366.894391 195.340769 
L 368.542383 231.853541 
L 370.190376 244.797565 
L 371.838369 208.115491 
L 373.486361 254.206895 
L 375.134354 254.515218 
L 376.782347 231.067595 
L 378.430339 247.86014 
L 380.078332 247.762412 
L 381.726324 201.051611 
L 383.374317 223.923882 
L 385.02231 257.064381 
L 386.670302 251.836669 
L 388.318295 236.0971 
L 389.966287 261.182684 
L 391.61428 221.413259 
L 393.262273 223.228781 
L 393.262273 223.228781 
" style="fill:none;stroke:#ff7f0e;stroke-linecap:square;stroke-width:1.5;"/>
   </g>
   <g id="line2d_20">
    <path clip-path="url(#pc239f76e3a)" d="M 68.607727 251.866951 
L 70.25572 263.570804 
L 71.903713 253.557217 
L 73.551705 237.023443 
L 75.199698 259.214377 
L 76.84769 236.494891 
L 78.495683 260.583933 
L 81.791668 252.45469 
L 83.439661 257.826928 
L 85.087653 251.518712 
L 86.735646 242.792095 
L 88.383639 262.109026 
L 90.031631 256.319728 
L 91.679624 256.539958 
L 93.327617 259.250164 
L 94.975609 256.963901 
L 96.623602 261.464853 
L 98.271594 263.720835 
L 99.919587 251.440255 
L 101.56758 246.779636 
L 103.215572 247.809211 
L 104.863565 256.16419 
L 106.511557 263.473076 
L 108.15955 252.248224 
L 109.807543 259.416713 
L 111.455535 248.147815 
L 113.103528 246.167121 
L 114.751521 258.835857 
L 116.399513 263.577686 
L 118.047506 236.322836 
L 121.343491 261.986523 
L 122.991484 253.862786 
L 124.639476 254.05824 
L 126.287469 250.317081 
L 127.935461 245.283448 
L 131.231447 262.12692 
L 132.879439 257.762235 
L 134.527432 234.070983 
L 136.175425 263.032616 
L 137.823417 250.396915 
L 139.47141 253.729271 
L 141.119402 253.171814 
L 142.767395 259.204742 
L 144.415388 260.904643 
L 146.06338 257.507594 
L 147.711373 262.645837 
L 151.007358 250.289553 
L 152.655351 259.189601 
L 154.303343 255.752635 
L 155.951336 257.631473 
L 157.599329 253.743036 
L 159.247321 248.074864 
L 160.895314 261.389149 
L 162.543306 259.784222 
L 164.191299 255.90542 
L 165.839292 259.886079 
L 167.487284 243.096287 
L 169.135277 251.308117 
L 170.783269 254.034841 
L 172.431262 261.234988 
L 174.079255 246.465808 
L 177.37524 253.009394 
L 179.023233 262.42836 
L 180.671225 255.833845 
L 182.319218 252.586828 
L 183.96721 249.627486 
L 185.615203 234.208627 
L 187.263196 235.088171 
L 188.911188 256.574369 
L 190.559181 258.870268 
L 192.207174 236.65731 
L 193.855166 231.334624 
L 195.503159 234.672487 
L 197.151151 260.996864 
L 198.799144 252.325305 
L 200.447137 260.552275 
L 203.743122 252.929561 
L 205.391114 256.873056 
L 207.039107 258.477983 
L 208.6871 263.517122 
L 210.335092 259.101509 
L 211.983085 248.709402 
L 213.631078 239.513419 
L 215.27907 261.084956 
L 216.927063 248.31987 
L 218.575055 259.80074 
L 220.223048 228.885941 
L 221.871041 259.729165 
L 223.519033 259.780093 
L 225.167026 253.365892 
L 226.815018 264.048428 
L 228.463011 246.412127 
L 230.111004 263.22807 
L 231.758996 238.980738 
L 233.406989 258.943219 
L 235.054982 258.461465 
L 236.702974 259.88195 
L 238.350967 261.7484 
L 239.998959 259.408455 
L 241.646952 251.092016 
L 243.294945 263.986488 
L 244.942937 261.124873 
L 246.59093 251.85181 
L 248.238922 256.80561 
L 249.886915 218.365825 
L 251.534908 263.288634 
L 253.1829 258.906055 
L 254.830893 228.34913 
L 256.478886 261.182684 
L 258.126878 252.055523 
L 259.774871 253.009394 
L 261.422863 256.619791 
L 263.070856 257.08778 
L 264.718849 255.265376 
L 266.366841 256.479395 
L 268.014834 250.486383 
L 271.310819 262.974806 
L 272.958812 261.343727 
L 274.606804 236.364129 
L 276.254797 238.563677 
L 277.90279 235.692427 
L 279.550782 256.116015 
L 281.198775 262.619685 
L 282.846767 263.457936 
L 284.49476 256.080228 
L 286.142753 253.57511 
L 287.790745 262.905984 
L 289.438738 263.742858 
L 291.086731 251.224154 
L 292.734723 263.720835 
L 294.382716 258.586721 
L 296.030708 256.614286 
L 297.678701 253.108498 
L 299.326694 261.78694 
L 300.974686 260.621097 
L 302.622679 259.890208 
L 304.270671 252.785035 
L 305.918664 256.373409 
L 307.566657 255.557181 
L 309.214649 243.938668 
L 310.862642 249.909656 
L 312.510635 259.466265 
L 314.158627 259.296963 
L 315.80662 253.319093 
L 317.454612 242.892575 
L 319.102605 257.909514 
L 320.750598 261.782811 
L 322.39859 263.051886 
L 324.046583 263.10832 
L 325.694575 236.552701 
L 327.342568 259.119403 
L 328.990561 260.162743 
L 330.638553 249.330175 
L 332.286546 256.868927 
L 333.934539 247.505019 
L 335.582531 259.33688 
L 337.230524 262.075992 
L 338.878516 256.330739 
L 340.526509 262.659602 
L 342.174502 255.94396 
L 343.822494 245.063217 
L 345.470487 253.192461 
L 347.118479 260.539887 
L 348.766472 263.577686 
L 350.414465 256.12565 
L 352.062457 257.233683 
L 353.71045 256.179331 
L 355.358443 245.924868 
L 357.006435 263.697436 
L 358.654428 254.515218 
L 360.30242 251.334269 
L 361.950413 234.358659 
L 363.598406 257.792517 
L 365.246398 248.816764 
L 366.894391 252.63225 
L 368.542383 249.354951 
L 370.190376 249.498101 
L 371.838369 253.533817 
L 373.486361 254.685896 
L 375.134354 257.10705 
L 376.782347 252.652897 
L 378.430339 257.36995 
L 380.078332 247.129251 
L 381.726324 226.627206 
L 383.374317 257.960442 
L 385.02231 257.020335 
L 386.670302 255.12085 
L 388.318295 257.923278 
L 389.966287 252.641885 
L 391.61428 256.703754 
L 393.262273 252.406514 
L 393.262273 252.406514 
" style="fill:none;stroke:#2ca02c;stroke-linecap:square;stroke-width:1.5;"/>
   </g>
   <g id="line2d_21">
    <path clip-path="url(#pc239f76e3a)" d="M 68.607727 261.573592 
L 70.25572 262.852303 
L 71.903713 253.411314 
L 73.551705 259.652084 
L 75.199698 252.050017 
L 76.84769 246.787894 
L 78.495683 262.056722 
L 80.143676 260.973465 
L 81.791668 256.914349 
L 83.439661 258.2316 
L 85.087653 249.681167 
L 86.735646 261.529546 
L 88.383639 260.32241 
L 90.031631 257.285987 
L 91.679624 258.639026 
L 93.327617 256.010029 
L 94.975609 260.817927 
L 96.623602 255.745753 
L 98.271594 255.579204 
L 101.56758 257.701672 
L 103.215572 254.995594 
L 104.863565 260.970712 
L 106.511557 256.581251 
L 108.15955 260.494464 
L 109.807543 256.472512 
L 111.455535 246.677779 
L 113.103528 253.98116 
L 114.751521 259.210248 
L 116.399513 262.06498 
L 118.047506 241.238096 
L 119.695498 248.641956 
L 121.343491 264.15579 
L 122.991484 259.530958 
L 124.639476 251.445761 
L 126.287469 263.936936 
L 127.935461 257.760858 
L 129.583454 255.94396 
L 131.231447 260.025099 
L 132.879439 252.41615 
L 134.527432 256.732659 
L 136.175425 240.39021 
L 137.823417 254.562016 
L 139.47141 256.881315 
L 141.119402 257.881985 
L 142.767395 260.7436 
L 144.415388 260.077404 
L 146.06338 259.185472 
L 147.711373 262.48617 
L 149.359365 259.886079 
L 151.007358 254.925396 
L 152.655351 261.841997 
L 154.303343 257.904008 
L 155.951336 258.126991 
L 157.599329 259.350644 
L 159.247321 258.029264 
L 160.895314 253.564099 
L 162.543306 253.904079 
L 164.191299 255.396138 
L 165.839292 247.130627 
L 167.487284 258.158649 
L 169.135277 254.651485 
L 170.783269 261.354738 
L 172.431262 259.77734 
L 174.079255 257.876479 
L 175.727247 255.667296 
L 177.37524 253.785705 
L 179.023233 258.95423 
L 180.671225 257.565404 
L 182.319218 260.555028 
L 183.96721 261.574968 
L 185.615203 236.218226 
L 187.263196 255.003853 
L 188.911188 260.910149 
L 190.559181 258.279776 
L 192.207174 253.861409 
L 193.855166 261.788316 
L 195.503159 262.890843 
L 197.151151 262.516452 
L 198.799144 258.442195 
L 200.447137 254.685896 
L 202.095129 252.592334 
L 203.743122 259.854421 
L 205.391114 260.706436 
L 207.039107 259.076733 
L 208.6871 263.195036 
L 210.335092 258.428431 
L 211.983085 257.756729 
L 213.631078 253.180073 
L 215.27907 261.234988 
L 216.927063 260.139343 
L 218.575055 254.590922 
L 220.223048 258.827598 
L 221.871041 255.46496 
L 223.519033 253.866915 
L 226.815018 262.625191 
L 228.463011 253.956384 
L 230.111004 262.666484 
L 231.758996 259.974171 
L 233.406989 247.606875 
L 235.054982 248.303353 
L 238.350967 262.103521 
L 239.998959 256.736789 
L 241.646952 259.170331 
L 243.294945 259.175837 
L 244.942937 258.718859 
L 246.59093 261.329962 
L 248.238922 246.160239 
L 249.886915 244.282777 
L 251.534908 262.9927 
L 253.1829 253.259906 
L 254.830893 245.363281 
L 256.478886 234.940892 
L 258.126878 254.13945 
L 259.774871 256.210989 
L 261.422863 255.313552 
L 263.070856 249.686673 
L 264.718849 260.228812 
L 266.366841 256.714766 
L 268.014834 254.414738 
L 269.662826 257.751223 
L 271.310819 260.637614 
L 272.958812 261.62452 
L 274.606804 260.848209 
L 276.254797 250.007383 
L 277.90279 251.098898 
L 279.550782 259.851668 
L 281.198775 254.636344 
L 282.846767 263.477206 
L 284.49476 253.342492 
L 286.142753 259.423596 
L 287.790745 261.394655 
L 289.438738 258.41329 
L 291.086731 259.239153 
L 292.734723 237.740567 
L 294.382716 259.193731 
L 296.030708 253.740283 
L 297.678701 260.158614 
L 299.326694 260.065016 
L 300.974686 241.627628 
L 302.622679 260.199907 
L 304.270671 255.006606 
L 305.918664 261.924584 
L 307.566657 259.701636 
L 309.214649 255.346586 
L 310.862642 259.994817 
L 312.510635 260.473818 
L 315.80662 258.622509 
L 317.454612 260.015464 
L 319.102605 255.868256 
L 320.750598 259.7388 
L 322.39859 260.835821 
L 324.046583 260.254964 
L 325.694575 255.067169 
L 327.342568 260.816551 
L 328.990561 255.906796 
L 330.638553 254.691402 
L 332.286546 261.049169 
L 333.934539 254.500077 
L 335.582531 262.216388 
L 337.230524 250.197331 
L 338.878516 261.747023 
L 340.526509 259.190978 
L 342.174502 258.376126 
L 343.822494 259.050581 
L 345.470487 259.380926 
L 347.118479 257.912267 
L 348.766472 264.466865 
L 350.414465 262.223271 
L 352.062457 260.735341 
L 353.71045 255.904044 
L 355.358443 261.20333 
L 357.006435 254.56064 
L 358.654428 257.014829 
L 360.30242 261.910819 
L 361.950413 258.469724 
L 363.598406 262.532969 
L 365.246398 239.977279 
L 366.894391 259.528205 
L 368.542383 251.583404 
L 370.190376 260.9831 
L 371.838369 243.418374 
L 373.486361 262.559122 
L 375.134354 252.712084 
L 376.782347 255.828339 
L 378.430339 254.213778 
L 380.078332 260.171002 
L 381.726324 245.181591 
L 383.374317 250.131262 
L 385.02231 259.522699 
L 386.670302 262.263187 
L 388.318295 261.671319 
L 389.966287 254.666626 
L 391.61428 249.566923 
L 393.262273 256.16419 
L 393.262273 256.16419 
" style="fill:none;stroke:#d62728;stroke-linecap:square;stroke-width:1.5;"/>
   </g>
   <g id="line2d_22">
    <path clip-path="url(#pc239f76e3a)" d="M 68.607727 262.616932 
L 70.25572 262.91149 
L 71.903713 254.96256 
L 73.551705 254.356927 
L 75.199698 255.517264 
L 76.84769 248.140933 
L 78.495683 252.351457 
L 80.143676 260.468312 
L 81.791668 260.483453 
L 83.439661 261.211589 
L 85.087653 250.709366 
L 86.735646 256.564734 
L 88.383639 259.759447 
L 90.031631 258.004488 
L 91.679624 253.025912 
L 93.327617 259.43736 
L 94.975609 260.29901 
L 96.623602 256.304587 
L 98.271594 256.140791 
L 99.919587 261.109732 
L 101.56758 257.707177 
L 103.215572 261.470359 
L 104.863565 261.34235 
L 106.511557 254.959807 
L 108.15955 258.717483 
L 109.807543 260.76287 
L 111.455535 246.43415 
L 113.103528 247.549065 
L 114.751521 249.426526 
L 116.399513 263.358832 
L 118.047506 254.712048 
L 119.695498 255.009359 
L 121.343491 263.745611 
L 122.991484 258.901926 
L 124.639476 258.717483 
L 126.287469 257.425008 
L 127.935461 258.352727 
L 129.583454 259.508935 
L 131.231447 256.422961 
L 132.879439 258.270141 
L 136.175425 244.134122 
L 137.823417 260.04024 
L 139.47141 260.841327 
L 141.119402 260.999617 
L 142.767395 260.611462 
L 144.415388 258.692707 
L 146.06338 257.500712 
L 147.711373 257.745718 
L 149.359365 260.226059 
L 151.007358 260.2412 
L 152.655351 257.63285 
L 154.303343 248.341893 
L 155.951336 261.478618 
L 157.599329 248.421726 
L 159.247321 259.749811 
L 160.895314 262.827527 
L 162.543306 258.464218 
L 164.191299 249.689426 
L 165.839292 254.684519 
L 167.487284 259.290081 
L 169.135277 261.457971 
L 170.783269 260.095297 
L 172.431262 261.530922 
L 174.079255 258.23573 
L 175.727247 259.80074 
L 177.37524 256.834516 
L 179.023233 262.442124 
L 180.671225 262.129673 
L 182.319218 251.343904 
L 183.96721 257.425008 
L 185.615203 248.697014 
L 187.263196 255.310799 
L 188.911188 243.989596 
L 190.559181 255.023123 
L 192.207174 250.282671 
L 193.855166 262.073239 
L 195.503159 258.153143 
L 197.151151 257.685154 
L 198.799144 255.492489 
L 200.447137 255.447066 
L 202.095129 260.812422 
L 203.743122 253.932984 
L 205.391114 262.987194 
L 207.039107 261.232235 
L 208.6871 262.155825 
L 210.335092 252.611604 
L 211.983085 256.402314 
L 213.631078 258.689954 
L 215.27907 258.739506 
L 216.927063 261.003747 
L 218.575055 260.084286 
L 220.223048 262.323751 
L 223.519033 256.535829 
L 225.167026 262.070486 
L 226.815018 259.775964 
L 228.463011 250.323964 
L 230.111004 252.974983 
L 231.758996 245.455502 
L 233.406989 254.087145 
L 235.054982 261.986523 
L 236.702974 258.928078 
L 238.350967 248.069358 
L 239.998959 260.060886 
L 241.646952 261.376761 
L 243.294945 256.897832 
L 244.942937 261.90669 
L 246.59093 253.206225 
L 248.238922 257.496582 
L 249.886915 255.854492 
L 251.534908 262.179225 
L 253.1829 262.32788 
L 254.830893 258.590851 
L 256.478886 255.94809 
L 258.126878 253.872421 
L 259.774871 256.673472 
L 261.422863 255.631509 
L 263.070856 253.515924 
L 264.718849 260.449042 
L 266.366841 260.513735 
L 268.014834 261.006499 
L 269.662826 259.627309 
L 271.310819 261.233612 
L 272.958812 262.073239 
L 274.606804 248.551111 
L 276.254797 258.643155 
L 277.90279 251.046594 
L 279.550782 257.854456 
L 281.198775 261.471735 
L 282.846767 255.712719 
L 284.49476 256.888197 
L 286.142753 255.214448 
L 287.790745 262.249423 
L 289.438738 260.334798 
L 291.086731 254.674884 
L 292.734723 237.243673 
L 294.382716 248.790612 
L 296.030708 253.356257 
L 297.678701 259.280446 
L 299.326694 258.966618 
L 300.974686 246.53463 
L 302.622679 251.661861 
L 304.270671 260.347186 
L 305.918664 259.309351 
L 307.566657 257.486947 
L 309.214649 259.357527 
L 310.862642 259.17446 
L 312.510635 261.685083 
L 314.158627 261.005123 
L 315.80662 249.582064 
L 317.454612 257.832433 
L 319.102605 259.540593 
L 320.750598 251.087887 
L 322.39859 250.295058 
L 325.694575 263.299645 
L 327.342568 258.502759 
L 328.990561 256.716142 
L 330.638553 250.010136 
L 332.286546 261.617638 
L 333.934539 256.870303 
L 335.582531 258.082945 
L 337.230524 260.296257 
L 338.878516 242.555347 
L 340.526509 257.926031 
L 342.174502 256.399561 
L 343.822494 260.484829 
L 345.470487 259.868185 
L 347.118479 253.462242 
L 348.766472 263.068404 
L 350.414465 255.531029 
L 352.062457 259.634191 
L 353.71045 250.308823 
L 355.358443 254.813905 
L 357.006435 259.948019 
L 358.654428 254.896491 
L 360.30242 250.476748 
L 361.950413 251.579275 
L 363.598406 259.917737 
L 365.246398 254.486312 
L 366.894391 258.870268 
L 368.542383 258.650037 
L 370.190376 259.168955 
L 371.838369 260.683036 
L 373.486361 261.54331 
L 375.134354 258.53304 
L 376.782347 252.096816 
L 378.430339 261.112485 
L 380.078332 256.266047 
L 381.726324 247.436197 
L 383.374317 259.473147 
L 385.02231 262.104897 
L 386.670302 256.885444 
L 388.318295 249.992242 
L 389.966287 261.497888 
L 391.61428 252.021112 
L 393.262273 259.994817 
L 393.262273 259.994817 
" style="fill:none;stroke:#9467bd;stroke-linecap:square;stroke-width:1.5;"/>
   </g>
   <g id="line2d_23">
    <path clip-path="url(#pc239f76e3a)" d="M 68.607727 262.210883 
L 70.25572 261.211589 
L 71.903713 257.82968 
L 73.551705 250.915832 
L 75.199698 251.119545 
L 76.84769 241.01236 
L 78.495683 250.033535 
L 80.143676 250.88555 
L 81.791668 259.463512 
L 83.439661 252.820822 
L 85.087653 254.720307 
L 86.735646 254.084392 
L 88.383639 258.846868 
L 90.031631 249.712825 
L 91.679624 247.700473 
L 93.327617 244.511266 
L 94.975609 250.472619 
L 96.623602 252.356963 
L 98.271594 251.321881 
L 99.919587 253.762306 
L 101.56758 248.398327 
L 103.215572 255.876515 
L 104.863565 247.805082 
L 106.511557 249.138851 
L 108.15955 253.353504 
L 109.807543 261.274905 
L 111.455535 256.131156 
L 113.103528 256.58538 
L 114.751521 247.130627 
L 116.399513 262.802751 
L 118.047506 238.610476 
L 119.695498 255.809069 
L 121.343491 260.449042 
L 122.991484 252.084428 
L 124.639476 257.157979 
L 126.287469 251.955043 
L 127.935461 258.367868 
L 129.583454 239.410186 
L 131.231447 247.008124 
L 132.879439 252.633627 
L 134.527432 251.107157 
L 136.175425 258.272893 
L 137.823417 252.692814 
L 139.47141 248.438244 
L 141.119402 255.711342 
L 142.767395 257.678272 
L 144.415388 246.796153 
L 146.06338 256.606027 
L 147.711373 250.096851 
L 149.359365 255.60398 
L 151.007358 254.957054 
L 152.655351 250.515289 
L 154.303343 245.601405 
L 155.951336 244.947597 
L 157.599329 257.731953 
L 159.247321 254.315634 
L 160.895314 247.565582 
L 162.543306 256.60878 
L 164.191299 256.438102 
L 165.839292 255.871009 
L 167.487284 257.043734 
L 169.135277 248.380433 
L 170.783269 253.544829 
L 172.431262 249.532512 
L 174.079255 252.946078 
L 175.727247 251.639838 
L 177.37524 256.44636 
L 179.023233 256.875809 
L 180.671225 248.59791 
L 182.319218 256.100874 
L 183.96721 259.218506 
L 185.615203 255.023123 
L 187.263196 258.384385 
L 188.911188 252.089934 
L 190.559181 257.547511 
L 192.207174 254.380327 
L 193.855166 255.756765 
L 195.503159 242.869175 
L 197.151151 249.480207 
L 198.799144 257.430513 
L 200.447137 259.956277 
L 202.095129 257.085027 
L 203.743122 236.946362 
L 205.391114 256.705131 
L 207.039107 250.800211 
L 208.6871 255.923314 
L 210.335092 255.330069 
L 211.983085 250.546947 
L 213.631078 255.002477 
L 215.27907 251.098898 
L 216.927063 250.831869 
L 218.575055 253.515924 
L 220.223048 253.930231 
L 221.871041 252.908914 
L 223.519033 241.794177 
L 225.167026 257.449783 
L 226.815018 250.454725 
L 228.463011 253.535194 
L 230.111004 253.195213 
L 231.758996 254.878597 
L 233.406989 259.507558 
L 235.054982 257.164861 
L 236.702974 248.804376 
L 238.350967 250.848387 
L 239.998959 245.517442 
L 241.646952 251.41135 
L 243.294945 253.286058 
L 244.942937 257.979712 
L 246.59093 257.971454 
L 249.886915 232.197651 
L 251.534908 261.738764 
L 253.1829 248.436867 
L 254.830893 256.54684 
L 256.478886 251.866951 
L 258.126878 254.607439 
L 259.774871 249.566923 
L 261.422863 249.926173 
L 263.070856 249.180144 
L 264.718849 245.151309 
L 266.366841 242.731531 
L 268.014834 256.16419 
L 269.662826 238.782531 
L 271.310819 256.512429 
L 272.958812 260.243953 
L 274.606804 247.952361 
L 276.254797 258.882656 
L 277.90279 244.406656 
L 279.550782 245.334376 
L 281.198775 254.639097 
L 282.846767 257.228177 
L 284.49476 255.94809 
L 286.142753 251.237919 
L 287.790745 251.682508 
L 289.438738 256.954266 
L 291.086731 245.096252 
L 292.734723 242.401186 
L 294.382716 251.082381 
L 296.030708 253.094733 
L 297.678701 258.950101 
L 299.326694 250.961254 
L 300.974686 246.679156 
L 302.622679 252.362468 
L 304.270671 247.492631 
L 305.918664 254.66112 
L 307.566657 254.157344 
L 309.214649 250.304694 
L 310.862642 245.332999 
L 312.510635 257.670014 
L 314.158627 256.48903 
L 315.80662 252.870374 
L 317.454612 251.606804 
L 319.102605 247.399033 
L 320.750598 252.249601 
L 322.39859 252.966725 
L 324.046583 254.428502 
L 325.694575 251.400338 
L 327.342568 248.969549 
L 328.990561 247.544935 
L 330.638553 256.57024 
L 332.286546 252.779529 
L 333.934539 255.440184 
L 335.582531 249.215931 
L 337.230524 258.706471 
L 338.878516 250.557958 
L 340.526509 240.448021 
L 342.174502 249.520124 
L 343.822494 241.843729 
L 345.470487 255.531029 
L 347.118479 257.47043 
L 348.766472 261.177178 
L 350.414465 251.130556 
L 352.062457 255.952219 
L 353.71045 252.008724 
L 355.358443 250.621274 
L 357.006435 252.12985 
L 358.654428 255.555805 
L 360.30242 258.703719 
L 361.950413 251.788494 
L 363.598406 248.52083 
L 365.246398 253.174567 
L 366.894391 252.622615 
L 368.542383 254.629462 
L 370.190376 258.264635 
L 371.838369 250.36801 
L 373.486361 259.07398 
L 375.134354 255.28327 
L 376.782347 259.193731 
L 378.430339 257.319022 
L 380.078332 250.14778 
L 381.726324 245.107263 
L 383.374317 256.092616 
L 385.02231 254.977701 
L 386.670302 246.101052 
L 388.318295 248.384562 
L 389.966287 252.968101 
L 391.61428 244.391516 
L 393.262273 255.558558 
L 393.262273 255.558558 
" style="fill:none;stroke:#8c564b;stroke-linecap:square;stroke-width:1.5;"/>
   </g>
   <g id="line2d_24">
    <path clip-path="url(#pc239f76e3a)" d="M 68.607727 262.534346 
L 70.25572 262.671989 
L 71.903713 259.759447 
L 73.551705 256.28807 
L 75.199698 251.202131 
L 76.84769 257.537876 
L 78.495683 249.248966 
L 80.143676 250.319834 
L 81.791668 232.358694 
L 83.439661 243.496831 
L 85.087653 248.048712 
L 86.735646 257.459419 
L 88.383639 248.446502 
L 90.031631 248.882833 
L 91.679624 257.466301 
L 93.327617 255.550299 
L 94.975609 259.057463 
L 96.623602 257.083651 
L 98.271594 249.507736 
L 99.919587 258.860633 
L 101.56758 260.095297 
L 103.215572 253.097486 
L 104.863565 250.193202 
L 106.511557 258.439442 
L 108.15955 251.551746 
L 109.807543 262.50544 
L 111.455535 253.616404 
L 113.103528 258.596356 
L 114.751521 254.873091 
L 116.399513 263.27074 
L 118.047506 259.797987 
L 119.695498 247.540806 
L 121.343491 262.932136 
L 122.991484 256.749177 
L 124.639476 262.363667 
L 126.287469 259.930125 
L 127.935461 258.522029 
L 129.583454 251.258565 
L 131.231447 254.907502 
L 132.879439 257.043734 
L 136.175425 256.440854 
L 137.823417 256.762941 
L 139.47141 261.891549 
L 141.119402 248.64058 
L 142.767395 257.291493 
L 144.415388 260.92116 
L 146.06338 261.536428 
L 147.711373 256.908843 
L 149.359365 256.596392 
L 151.007358 260.586686 
L 152.655351 255.04377 
L 154.303343 252.526265 
L 155.951336 256.996935 
L 157.599329 255.974242 
L 159.247321 253.049311 
L 160.895314 260.374714 
L 162.543306 256.662461 
L 164.191299 258.914314 
L 165.839292 255.829716 
L 167.487284 253.937114 
L 169.135277 252.65152 
L 170.783269 248.557994 
L 172.431262 257.858586 
L 174.079255 251.75133 
L 175.727247 253.932984 
L 177.37524 259.09738 
L 179.023233 258.352727 
L 180.671225 253.192461 
L 182.319218 256.16832 
L 183.96721 256.80561 
L 185.615203 260.575674 
L 187.263196 238.136981 
L 188.911188 258.53717 
L 190.559181 261.301057 
L 192.207174 260.972088 
L 193.855166 253.612274 
L 195.503159 259.484159 
L 197.151151 259.610791 
L 198.799144 249.794035 
L 200.447137 252.79467 
L 202.095129 253.203472 
L 203.743122 259.188225 
L 205.391114 250.981901 
L 207.039107 255.127732 
L 208.6871 258.080192 
L 210.335092 245.282071 
L 211.983085 246.990231 
L 213.631078 260.484829 
L 215.27907 257.503465 
L 216.927063 245.902845 
L 218.575055 259.552981 
L 220.223048 257.30801 
L 221.871041 259.613544 
L 223.519033 255.807693 
L 225.167026 254.662496 
L 226.815018 253.678343 
L 228.463011 248.299223 
L 230.111004 260.071898 
L 231.758996 254.582663 
L 233.406989 254.935031 
L 235.054982 256.517935 
L 236.702974 259.617673 
L 238.350967 253.347998 
L 239.998959 259.396067 
L 241.646952 260.899137 
L 243.294945 255.14012 
L 244.942937 257.407114 
L 248.238922 257.577792 
L 249.886915 251.485677 
L 251.534908 263.9507 
L 253.1829 254.384456 
L 254.830893 259.974171 
L 256.478886 261.166166 
L 258.126878 253.382409 
L 259.774871 259.570875 
L 261.422863 253.631544 
L 263.070856 256.495912 
L 264.718849 258.012747 
L 266.366841 255.787046 
L 268.014834 255.14425 
L 269.662826 261.718118 
L 271.310819 258.252247 
L 272.958812 263.548781 
L 274.606804 253.013524 
L 276.254797 259.510311 
L 277.90279 253.323222 
L 279.550782 260.087039 
L 281.198775 256.522064 
L 282.846767 250.992913 
L 284.49476 259.883326 
L 286.142753 254.154591 
L 287.790745 259.813128 
L 291.086731 253.67972 
L 292.734723 253.275047 
L 294.382716 259.07811 
L 296.030708 254.372068 
L 297.678701 260.60045 
L 299.326694 259.886079 
L 300.974686 252.483595 
L 302.622679 259.869562 
L 304.270671 257.492453 
L 305.918664 247.225602 
L 307.566657 254.852445 
L 309.214649 259.466265 
L 310.862642 258.128367 
L 312.510635 259.811751 
L 314.158627 260.677531 
L 315.80662 257.781505 
L 317.454612 251.382445 
L 319.102605 261.616261 
L 320.750598 258.688578 
L 322.39859 261.588733 
L 324.046583 256.202731 
L 325.694575 256.66659 
L 327.342568 259.55711 
L 328.990561 261.416678 
L 330.638553 261.888796 
L 332.286546 258.175166 
L 333.934539 255.336951 
L 335.582531 259.80074 
L 337.230524 260.129708 
L 338.878516 256.062334 
L 340.526509 257.565404 
L 342.174502 260.058134 
L 343.822494 258.045781 
L 345.470487 252.458819 
L 347.118479 255.946713 
L 348.766472 263.500605 
L 350.414465 260.707812 
L 352.062457 257.240565 
L 353.71045 260.484829 
L 355.358443 255.759518 
L 357.006435 261.482747 
L 358.654428 256.153179 
L 360.30242 260.531628 
L 361.950413 262.015429 
L 363.598406 260.800034 
L 365.246398 248.983313 
L 366.894391 255.949466 
L 368.542383 261.095968 
L 370.190376 253.628791 
L 371.838369 260.336174 
L 373.486361 250.944737 
L 375.134354 250.730013 
L 376.782347 248.988819 
L 378.430339 247.525665 
L 380.078332 259.05471 
L 381.726324 258.329327 
L 383.374317 254.358304 
L 385.02231 247.006748 
L 386.670302 257.122191 
L 388.318295 261.163413 
L 389.966287 255.098827 
L 391.61428 250.666697 
L 393.262273 252.940572 
L 393.262273 252.940572 
" style="fill:none;stroke:#e377c2;stroke-linecap:square;stroke-width:1.5;"/>
   </g>
   <g id="line2d_25">
    <path clip-path="url(#pc239f76e3a)" d="M 68.607727 263.660272 
L 70.25572 263.41389 
L 71.903713 255.32594 
L 73.551705 261.891549 
L 75.199698 257.909514 
L 76.84769 257.62872 
L 78.495683 258.45596 
L 80.143676 262.023687 
L 81.791668 260.962453 
L 83.439661 260.853715 
L 85.087653 260.49997 
L 86.735646 256.171073 
L 88.383639 261.274905 
L 90.031631 261.40429 
L 91.679624 259.748435 
L 93.327617 259.229518 
L 94.975609 261.94523 
L 96.623602 257.809034 
L 98.271594 261.540557 
L 99.919587 261.507523 
L 101.56758 261.696095 
L 103.215572 257.921902 
L 104.863565 262.378808 
L 106.511557 260.234318 
L 108.15955 259.497923 
L 109.807543 263.618979 
L 111.455535 260.771129 
L 113.103528 258.322445 
L 114.751521 259.27494 
L 116.399513 263.756623 
L 118.047506 253.427831 
L 119.695498 262.608673 
L 121.343491 262.022311 
L 122.991484 261.06431 
L 124.639476 259.736047 
L 126.287469 255.897161 
L 127.935461 257.898502 
L 129.583454 261.189566 
L 131.231447 262.166837 
L 132.879439 263.733223 
L 134.527432 260.78214 
L 136.175425 261.196448 
L 137.823417 257.296999 
L 139.47141 260.175131 
L 141.119402 262.681625 
L 142.767395 260.056757 
L 144.415388 263.263858 
L 146.06338 261.069816 
L 147.711373 262.148943 
L 149.359365 261.519911 
L 151.007358 262.052592 
L 152.655351 261.431819 
L 154.303343 260.530252 
L 155.951336 262.702271 
L 157.599329 260.26047 
L 159.247321 260.64312 
L 160.895314 260.457301 
L 162.543306 262.242541 
L 164.191299 262.852303 
L 165.839292 262.303104 
L 167.487284 260.38022 
L 169.135277 257.62872 
L 170.783269 259.708518 
L 172.431262 261.539181 
L 174.079255 262.956912 
L 175.727247 260.94043 
L 177.37524 260.826186 
L 179.023233 259.847539 
L 180.671225 263.259729 
L 182.319218 261.301057 
L 183.96721 262.827527 
L 185.615203 262.111779 
L 187.263196 259.617673 
L 188.911188 260.853715 
L 190.559181 262.377432 
L 192.207174 261.123497 
L 193.855166 263.115203 
L 195.503159 260.822057 
L 197.151151 262.037452 
L 198.799144 258.694084 
L 200.447137 262.209506 
L 202.095129 263.106944 
L 203.743122 261.254258 
L 205.391114 255.743 
L 207.039107 262.06498 
L 208.6871 258.925325 
L 210.335092 261.762164 
L 211.983085 261.986523 
L 213.631078 262.005793 
L 215.27907 262.698142 
L 216.927063 256.901961 
L 218.575055 261.072568 
L 220.223048 262.461394 
L 221.871041 262.903231 
L 223.519033 262.358162 
L 226.815018 260.813798 
L 228.463011 262.578392 
L 230.111004 262.54811 
L 231.758996 256.78634 
L 233.406989 262.30861 
L 235.054982 262.637579 
L 236.702974 262.414596 
L 238.350967 263.320292 
L 239.998959 263.59145 
L 241.646952 258.767035 
L 243.294945 262.74907 
L 244.942937 263.138602 
L 246.59093 263.250093 
L 248.238922 258.904679 
L 249.886915 262.396702 
L 251.534908 263.056016 
L 253.1829 260.516487 
L 254.830893 259.749811 
L 256.478886 259.990688 
L 258.126878 260.074651 
L 259.774871 262.694012 
L 261.422863 261.52404 
L 263.070856 262.685754 
L 264.718849 261.829609 
L 266.366841 257.875103 
L 268.014834 263.084921 
L 269.662826 262.429736 
L 271.310819 261.952112 
L 272.958812 263.418019 
L 274.606804 257.047864 
L 276.254797 261.338221 
L 277.90279 260.466936 
L 279.550782 260.453171 
L 281.198775 253.310834 
L 282.846767 261.785563 
L 284.49476 258.970748 
L 286.142753 261.123497 
L 287.790745 257.928784 
L 289.438738 255.199307 
L 291.086731 259.837904 
L 292.734723 263.028487 
L 294.382716 257.339668 
L 296.030708 256.491783 
L 297.678701 261.603874 
L 299.326694 261.134508 
L 300.974686 261.084956 
L 302.622679 259.036817 
L 304.270671 256.077475 
L 305.918664 262.926631 
L 307.566657 260.283869 
L 309.214649 262.338891 
L 310.862642 261.674072 
L 312.510635 262.093886 
L 314.158627 261.109732 
L 315.80662 262.109026 
L 317.454612 262.517828 
L 319.102605 261.493759 
L 320.750598 262.695389 
L 322.39859 259.687872 
L 324.046583 262.120038 
L 325.694575 261.614885 
L 327.342568 260.907396 
L 328.990561 258.648661 
L 330.638553 259.522699 
L 332.286546 261.632779 
L 333.934539 262.18473 
L 335.582531 261.665813 
L 338.878516 259.003782 
L 340.526509 262.292093 
L 342.174502 259.357527 
L 343.822494 262.689883 
L 345.470487 263.470324 
L 347.118479 259.886079 
L 348.766472 263.968594 
L 350.414465 260.4807 
L 353.71045 261.657555 
L 355.358443 259.635567 
L 357.006435 262.903231 
L 358.654428 261.580474 
L 360.30242 261.791069 
L 361.950413 262.757329 
L 363.598406 259.224012 
L 365.246398 257.196519 
L 366.894391 260.889502 
L 368.542383 260.954195 
L 370.190376 260.593568 
L 371.838369 260.369209 
L 373.486361 262.937642 
L 375.134354 262.809633 
L 376.782347 260.736718 
L 378.430339 262.549486 
L 380.078332 260.775258 
L 381.726324 261.26527 
L 383.374317 262.848174 
L 385.02231 258.713354 
L 386.670302 258.784928 
L 388.318295 257.990724 
L 389.966287 262.578392 
L 391.61428 262.510946 
L 393.262273 262.727047 
L 393.262273 262.727047 
" style="fill:none;stroke:#7f7f7f;stroke-linecap:square;stroke-width:1.5;"/>
   </g>
   <g id="line2d_26">
    <path clip-path="url(#pc239f76e3a)" d="M 68.607727 264.528804 
L 75.199698 264.488888 
L 111.455535 264.442089 
L 124.639476 264.444842 
L 226.815018 264.436583 
L 233.406989 264.425572 
L 239.998959 264.43796 
L 249.886915 264.432454 
L 263.070856 264.440712 
L 281.198775 264.455853 
L 393.262273 264.421442 
L 393.262273 264.421442 
" style="fill:none;stroke:#bcbd22;stroke-linecap:square;stroke-width:1.5;"/>
   </g>
   <g id="line2d_27">
    <path clip-path="url(#pc239f76e3a)" d="M 68.607727 264.528804 
L 75.199698 264.469618 
L 83.439661 264.487511 
L 393.262273 264.462735 
L 393.262273 264.462735 
" style="fill:none;stroke:#17becf;stroke-linecap:square;stroke-width:1.5;"/>
   </g>
   <g id="line2d_28">
    <path clip-path="url(#pc239f76e3a)" d="M 68.607727 264.396666 
L 75.199698 264.560462 
L 76.84769 264.406301 
L 83.439661 264.477876 
L 88.383639 264.385655 
L 90.031631 264.477876 
L 101.56758 264.424195 
L 113.103528 264.458606 
L 116.399513 264.491641 
L 118.047506 264.716 
L 119.695498 264.406301 
L 132.879439 264.415937 
L 134.527432 264.55358 
L 137.823417 264.417313 
L 141.119402 264.446218 
L 174.079255 264.410431 
L 175.727247 264.373267 
L 177.37524 264.480629 
L 179.023233 264.367761 
L 182.319218 264.447595 
L 195.503159 264.393913 
L 197.151151 264.473747 
L 198.799144 264.39529 
L 200.447137 264.502652 
L 205.391114 264.413184 
L 215.27907 264.429701 
L 216.927063 264.366385 
L 221.871041 264.41456 
L 230.111004 264.454477 
L 248.238922 264.490264 
L 249.886915 264.387031 
L 253.1829 264.392537 
L 254.830893 264.559086 
L 256.478886 264.447595 
L 261.422863 264.436583 
L 268.014834 264.504029 
L 271.310819 264.49577 
L 272.958812 264.417313 
L 274.606804 264.524675 
L 281.198775 264.436583 
L 294.382716 264.479253 
L 296.030708 264.359503 
L 297.678701 264.480629 
L 309.214649 264.429701 
L 312.510635 264.565968 
L 314.158627 264.450347 
L 324.046583 264.450347 
L 325.694575 264.351244 
L 327.342568 264.468241 
L 333.934539 264.393913 
L 340.526509 264.535687 
L 342.174502 264.382902 
L 345.470487 264.450347 
L 393.262273 264.410431 
L 393.262273 264.410431 
" style="fill:none;stroke:#1f77b4;stroke-linecap:square;stroke-width:1.5;"/>
   </g>
   <g id="line2d_29">
    <path clip-path="url(#pc239f76e3a)" d="M 68.607727 264.528804 
L 393.262273 264.528804 
L 393.262273 264.528804 
" style="fill:none;stroke:#ff7f0e;stroke-linecap:square;stroke-width:1.5;"/>
   </g>
   <g id="patch_3">
    <path d="M 52.375 276.812 
L 52.375 10.7 
" style="fill:none;stroke:#000000;stroke-linecap:square;stroke-linejoin:miter;stroke-width:0.8;"/>
   </g>
   <g id="patch_4">
    <path d="M 409.495 276.812 
L 409.495 10.7 
" style="fill:none;stroke:#000000;stroke-linecap:square;stroke-linejoin:miter;stroke-width:0.8;"/>
   </g>
   <g id="patch_5">
    <path d="M 52.375 276.812 
L 409.495 276.812 
" style="fill:none;stroke:#000000;stroke-linecap:square;stroke-linejoin:miter;stroke-width:0.8;"/>
   </g>
   <g id="patch_6">
    <path d="M 52.375 10.7 
L 409.495 10.7 
" style="fill:none;stroke:#000000;stroke-linecap:square;stroke-linejoin:miter;stroke-width:0.8;"/>
   </g>
   <g id="legend_1">
    <g id="patch_7">
     <path d="M 185.758438 165.48125 
L 276.111562 165.48125 
Q 278.111562 165.48125 278.111562 163.48125 
L 278.111562 17.7 
Q 278.111562 15.7 276.111562 15.7 
L 185.758438 15.7 
Q 183.758438 15.7 183.758438 17.7 
L 183.758438 163.48125 
Q 183.758438 165.48125 185.758438 165.48125 
z
" style="fill:#ffffff;opacity:0.8;stroke:#cccccc;stroke-linejoin:miter;"/>
    </g>
    <g id="line2d_30">
     <path d="M 187.758438 23.798437 
L 207.758438 23.798437 
" style="fill:none;stroke:#1f77b4;stroke-linecap:square;stroke-width:1.5;"/>
    </g>
    <g id="line2d_31"/>
    <g id="text_18">
     <!-- delta -->
     <defs>
      <path d="M 45.40625 46.390625 
L 45.40625 75.984375 
L 54.390625 75.984375 
L 54.390625 0 
L 45.40625 0 
L 45.40625 8.203125 
Q 42.578125 3.328125 38.25 0.953125 
Q 33.9375 -1.421875 27.875 -1.421875 
Q 17.96875 -1.421875 11.734375 6.484375 
Q 5.515625 14.40625 5.515625 27.296875 
Q 5.515625 40.1875 11.734375 48.09375 
Q 17.96875 56 27.875 56 
Q 33.9375 56 38.25 53.625 
Q 42.578125 51.265625 45.40625 46.390625 
M 14.796875 27.296875 
Q 14.796875 17.390625 18.875 11.75 
Q 22.953125 6.109375 30.078125 6.109375 
Q 37.203125 6.109375 41.296875 11.75 
Q 45.40625 17.390625 45.40625 27.296875 
Q 45.40625 37.203125 41.296875 42.84375 
Q 37.203125 48.484375 30.078125 48.484375 
Q 22.953125 48.484375 18.875 42.84375 
Q 14.796875 37.203125 14.796875 27.296875 
" id="DejaVuSans-64"/>
      <path d="M 56.203125 29.59375 
L 56.203125 25.203125 
L 14.890625 25.203125 
Q 15.484375 15.921875 20.484375 11.0625 
Q 25.484375 6.203125 34.421875 6.203125 
Q 39.59375 6.203125 44.453125 7.46875 
Q 49.3125 8.734375 54.109375 11.28125 
L 54.109375 2.78125 
Q 49.265625 0.734375 44.1875 -0.34375 
Q 39.109375 -1.421875 33.890625 -1.421875 
Q 20.796875 -1.421875 13.15625 6.1875 
Q 5.515625 13.8125 5.515625 26.8125 
Q 5.515625 40.234375 12.765625 48.109375 
Q 20.015625 56 32.328125 56 
Q 43.359375 56 49.78125 48.890625 
Q 56.203125 41.796875 56.203125 29.59375 
M 47.21875 32.234375 
Q 47.125 39.59375 43.09375 43.984375 
Q 39.0625 48.390625 32.421875 48.390625 
Q 24.90625 48.390625 20.390625 44.140625 
Q 15.875 39.890625 15.1875 32.171875 
z
" id="DejaVuSans-65"/>
      <path d="M 9.421875 75.984375 
L 18.40625 75.984375 
L 18.40625 0 
L 9.421875 0 
z
" id="DejaVuSans-6c"/>
      <path d="M 18.3125 70.21875 
L 18.3125 54.6875 
L 36.8125 54.6875 
L 36.8125 47.703125 
L 18.3125 47.703125 
L 18.3125 18.015625 
Q 18.3125 11.328125 20.140625 9.421875 
Q 21.96875 7.515625 27.59375 7.515625 
L 36.8125 7.515625 
L 36.8125 0 
L 27.59375 0 
Q 17.1875 0 13.234375 3.875 
Q 9.28125 7.765625 9.28125 18.015625 
L 9.28125 47.703125 
L 2.6875 47.703125 
L 2.6875 54.6875 
L 9.28125 54.6875 
L 9.28125 70.21875 
z
" id="DejaVuSans-74"/>
      <path d="M 34.28125 27.484375 
Q 23.390625 27.484375 19.1875 25 
Q 14.984375 22.515625 14.984375 16.5 
Q 14.984375 11.71875 18.140625 8.90625 
Q 21.296875 6.109375 26.703125 6.109375 
Q 34.1875 6.109375 38.703125 11.40625 
Q 43.21875 16.703125 43.21875 25.484375 
L 43.21875 27.484375 
z
M 52.203125 31.203125 
L 52.203125 0 
L 43.21875 0 
L 43.21875 8.296875 
Q 40.140625 3.328125 35.546875 0.953125 
Q 30.953125 -1.421875 24.3125 -1.421875 
Q 15.921875 -1.421875 10.953125 3.296875 
Q 6 8.015625 6 15.921875 
Q 6 25.140625 12.171875 29.828125 
Q 18.359375 34.515625 30.609375 34.515625 
L 43.21875 34.515625 
L 43.21875 35.40625 
Q 43.21875 41.609375 39.140625 45 
Q 35.0625 48.390625 27.6875 48.390625 
Q 23 48.390625 18.546875 47.265625 
Q 14.109375 46.140625 10.015625 43.890625 
L 10.015625 52.203125 
Q 14.9375 54.109375 19.578125 55.046875 
Q 24.21875 56 28.609375 56 
Q 40.484375 56 46.34375 49.84375 
Q 52.203125 43.703125 52.203125 31.203125 
" id="DejaVuSans-61"/>
     </defs>
     <g transform="translate(215.758438 27.298437)scale(0.1 -0.1)">
      <use xlink:href="#DejaVuSans-64"/>
      <use x="63.476562" xlink:href="#DejaVuSans-65"/>
      <use x="125" xlink:href="#DejaVuSans-6c"/>
      <use x="152.783203" xlink:href="#DejaVuSans-74"/>
      <use x="191.992188" xlink:href="#DejaVuSans-61"/>
     </g>
    </g>
    <g id="line2d_32">
     <path d="M 187.758438 38.476562 
L 207.758438 38.476562 
" style="fill:none;stroke:#ff7f0e;stroke-linecap:square;stroke-width:1.5;"/>
    </g>
    <g id="line2d_33"/>
    <g id="text_19">
     <!-- lowAlpha -->
     <defs>
      <path d="M 30.609375 48.390625 
Q 23.390625 48.390625 19.1875 42.75 
Q 14.984375 37.109375 14.984375 27.296875 
Q 14.984375 17.484375 19.15625 11.84375 
Q 23.34375 6.203125 30.609375 6.203125 
Q 37.796875 6.203125 41.984375 11.859375 
Q 46.1875 17.53125 46.1875 27.296875 
Q 46.1875 37.015625 41.984375 42.703125 
Q 37.796875 48.390625 30.609375 48.390625 
M 30.609375 56 
Q 42.328125 56 49.015625 48.375 
Q 55.71875 40.765625 55.71875 27.296875 
Q 55.71875 13.875 49.015625 6.21875 
Q 42.328125 -1.421875 30.609375 -1.421875 
Q 18.84375 -1.421875 12.171875 6.21875 
Q 5.515625 13.875 5.515625 27.296875 
Q 5.515625 40.765625 12.171875 48.375 
Q 18.84375 56 30.609375 56 
" id="DejaVuSans-6f"/>
      <path d="M 4.203125 54.6875 
L 13.1875 54.6875 
L 24.421875 12.015625 
L 35.59375 54.6875 
L 46.1875 54.6875 
L 57.421875 12.015625 
L 68.609375 54.6875 
L 77.59375 54.6875 
L 63.28125 0 
L 52.6875 0 
L 40.921875 44.828125 
L 29.109375 0 
L 18.5 0 
z
" id="DejaVuSans-77"/>
      <path d="M 34.1875 63.1875 
L 20.796875 26.90625 
L 47.609375 26.90625 
z
M 28.609375 72.90625 
L 39.796875 72.90625 
L 67.578125 0 
L 57.328125 0 
L 50.6875 18.703125 
L 17.828125 18.703125 
L 11.1875 0 
L 0.78125 0 
z
" id="DejaVuSans-41"/>
      <path d="M 18.109375 8.203125 
L 18.109375 -20.796875 
L 9.078125 -20.796875 
L 9.078125 54.6875 
L 18.109375 54.6875 
L 18.109375 46.390625 
Q 20.953125 51.265625 25.265625 53.625 
Q 29.59375 56 35.59375 56 
Q 45.5625 56 51.78125 48.09375 
Q 58.015625 40.1875 58.015625 27.296875 
Q 58.015625 14.40625 51.78125 6.484375 
Q 45.5625 -1.421875 35.59375 -1.421875 
Q 29.59375 -1.421875 25.265625 0.953125 
Q 20.953125 3.328125 18.109375 8.203125 
M 48.6875 27.296875 
Q 48.6875 37.203125 44.609375 42.84375 
Q 40.53125 48.484375 33.40625 48.484375 
Q 26.265625 48.484375 22.1875 42.84375 
Q 18.109375 37.203125 18.109375 27.296875 
Q 18.109375 17.390625 22.1875 11.75 
Q 26.265625 6.109375 33.40625 6.109375 
Q 40.53125 6.109375 44.609375 11.75 
Q 48.6875 17.390625 48.6875 27.296875 
" id="DejaVuSans-70"/>
      <path d="M 54.890625 33.015625 
L 54.890625 0 
L 45.90625 0 
L 45.90625 32.71875 
Q 45.90625 40.484375 42.875 44.328125 
Q 39.84375 48.1875 33.796875 48.1875 
Q 26.515625 48.1875 22.3125 43.546875 
Q 18.109375 38.921875 18.109375 30.90625 
L 18.109375 0 
L 9.078125 0 
L 9.078125 75.984375 
L 18.109375 75.984375 
L 18.109375 46.1875 
Q 21.34375 51.125 25.703125 53.5625 
Q 30.078125 56 35.796875 56 
Q 45.21875 56 50.046875 50.171875 
Q 54.890625 44.34375 54.890625 33.015625 
" id="DejaVuSans-68"/>
     </defs>
     <g transform="translate(215.758438 41.976562)scale(0.1 -0.1)">
      <use xlink:href="#DejaVuSans-6c"/>
      <use x="27.783203" xlink:href="#DejaVuSans-6f"/>
      <use x="88.964844" xlink:href="#DejaVuSans-77"/>
      <use x="170.751953" xlink:href="#DejaVuSans-41"/>
      <use x="239.160156" xlink:href="#DejaVuSans-6c"/>
      <use x="266.943359" xlink:href="#DejaVuSans-70"/>
      <use x="330.419922" xlink:href="#DejaVuSans-68"/>
      <use x="393.798828" xlink:href="#DejaVuSans-61"/>
     </g>
    </g>
    <g id="line2d_34">
     <path d="M 187.758438 53.154687 
L 207.758438 53.154687 
" style="fill:none;stroke:#2ca02c;stroke-linecap:square;stroke-width:1.5;"/>
    </g>
    <g id="line2d_35"/>
    <g id="text_20">
     <!-- highAlpha -->
     <defs>
      <path d="M 9.421875 54.6875 
L 18.40625 54.6875 
L 18.40625 0 
L 9.421875 0 
z
M 9.421875 75.984375 
L 18.40625 75.984375 
L 18.40625 64.59375 
L 9.421875 64.59375 
z
" id="DejaVuSans-69"/>
      <path d="M 45.40625 27.984375 
Q 45.40625 37.75 41.375 43.109375 
Q 37.359375 48.484375 30.078125 48.484375 
Q 22.859375 48.484375 18.828125 43.109375 
Q 14.796875 37.75 14.796875 27.984375 
Q 14.796875 18.265625 18.828125 12.890625 
Q 22.859375 7.515625 30.078125 7.515625 
Q 37.359375 7.515625 41.375 12.890625 
Q 45.40625 18.265625 45.40625 27.984375 
M 54.390625 6.78125 
Q 54.390625 -7.171875 48.1875 -13.984375 
Q 42 -20.796875 29.203125 -20.796875 
Q 24.46875 -20.796875 20.265625 -20.09375 
Q 16.0625 -19.390625 12.109375 -17.921875 
L 12.109375 -9.1875 
Q 16.0625 -11.328125 19.921875 -12.34375 
Q 23.78125 -13.375 27.78125 -13.375 
Q 36.625 -13.375 41.015625 -8.765625 
Q 45.40625 -4.15625 45.40625 5.171875 
L 45.40625 9.625 
Q 42.625 4.78125 38.28125 2.390625 
Q 33.9375 0 27.875 0 
Q 17.828125 0 11.671875 7.65625 
Q 5.515625 15.328125 5.515625 27.984375 
Q 5.515625 40.671875 11.671875 48.328125 
Q 17.828125 56 27.875 56 
Q 33.9375 56 38.28125 53.609375 
Q 42.625 51.21875 45.40625 46.390625 
L 45.40625 54.6875 
L 54.390625 54.6875 
z
" id="DejaVuSans-67"/>
     </defs>
     <g transform="translate(215.758438 56.654687)scale(0.1 -0.1)">
      <use xlink:href="#DejaVuSans-68"/>
      <use x="63.378906" xlink:href="#DejaVuSans-69"/>
      <use x="91.162109" xlink:href="#DejaVuSans-67"/>
      <use x="154.638672" xlink:href="#DejaVuSans-68"/>
      <use x="218.017578" xlink:href="#DejaVuSans-41"/>
      <use x="286.425781" xlink:href="#DejaVuSans-6c"/>
      <use x="314.208984" xlink:href="#DejaVuSans-70"/>
      <use x="377.685547" xlink:href="#DejaVuSans-68"/>
      <use x="441.064453" xlink:href="#DejaVuSans-61"/>
     </g>
    </g>
    <g id="line2d_36">
     <path d="M 187.758438 67.832812 
L 207.758438 67.832812 
" style="fill:none;stroke:#d62728;stroke-linecap:square;stroke-width:1.5;"/>
    </g>
    <g id="line2d_37"/>
    <g id="text_21">
     <!-- lowBeta -->
     <defs>
      <path d="M 19.671875 34.8125 
L 19.671875 8.109375 
L 35.5 8.109375 
Q 43.453125 8.109375 47.28125 11.40625 
Q 51.125 14.703125 51.125 21.484375 
Q 51.125 28.328125 47.28125 31.5625 
Q 43.453125 34.8125 35.5 34.8125 
z
M 19.671875 64.796875 
L 19.671875 42.828125 
L 34.28125 42.828125 
Q 41.5 42.828125 45.03125 45.53125 
Q 48.578125 48.25 48.578125 53.8125 
Q 48.578125 59.328125 45.03125 62.0625 
Q 41.5 64.796875 34.28125 64.796875 
z
M 9.8125 72.90625 
L 35.015625 72.90625 
Q 46.296875 72.90625 52.390625 68.21875 
Q 58.5 63.53125 58.5 54.890625 
Q 58.5 48.1875 55.375 44.234375 
Q 52.25 40.28125 46.1875 39.3125 
Q 53.46875 37.75 57.5 32.78125 
Q 61.53125 27.828125 61.53125 20.40625 
Q 61.53125 10.640625 54.890625 5.3125 
Q 48.25 0 35.984375 0 
L 9.8125 0 
z
" id="DejaVuSans-42"/>
     </defs>
     <g transform="translate(215.758438 71.332812)scale(0.1 -0.1)">
      <use xlink:href="#DejaVuSans-6c"/>
      <use x="27.783203" xlink:href="#DejaVuSans-6f"/>
      <use x="88.964844" xlink:href="#DejaVuSans-77"/>
      <use x="170.751953" xlink:href="#DejaVuSans-42"/>
      <use x="239.355469" xlink:href="#DejaVuSans-65"/>
      <use x="300.878906" xlink:href="#DejaVuSans-74"/>
      <use x="340.087891" xlink:href="#DejaVuSans-61"/>
     </g>
    </g>
    <g id="line2d_38">
     <path d="M 187.758438 82.510938 
L 207.758438 82.510938 
" style="fill:none;stroke:#9467bd;stroke-linecap:square;stroke-width:1.5;"/>
    </g>
    <g id="line2d_39"/>
    <g id="text_22">
     <!-- highBeta -->
     <g transform="translate(215.758438 86.010938)scale(0.1 -0.1)">
      <use xlink:href="#DejaVuSans-68"/>
      <use x="63.378906" xlink:href="#DejaVuSans-69"/>
      <use x="91.162109" xlink:href="#DejaVuSans-67"/>
      <use x="154.638672" xlink:href="#DejaVuSans-68"/>
      <use x="218.017578" xlink:href="#DejaVuSans-42"/>
      <use x="286.621094" xlink:href="#DejaVuSans-65"/>
      <use x="348.144531" xlink:href="#DejaVuSans-74"/>
      <use x="387.353516" xlink:href="#DejaVuSans-61"/>
     </g>
    </g>
    <g id="line2d_40">
     <path d="M 187.758438 97.189062 
L 207.758438 97.189062 
" style="fill:none;stroke:#8c564b;stroke-linecap:square;stroke-width:1.5;"/>
    </g>
    <g id="line2d_41"/>
    <g id="text_23">
     <!-- lowGamma -->
     <defs>
      <path d="M 59.515625 10.40625 
L 59.515625 29.984375 
L 43.40625 29.984375 
L 43.40625 38.09375 
L 69.28125 38.09375 
L 69.28125 6.78125 
Q 63.578125 2.734375 56.6875 0.65625 
Q 49.8125 -1.421875 42 -1.421875 
Q 24.90625 -1.421875 15.25 8.5625 
Q 5.609375 18.5625 5.609375 36.375 
Q 5.609375 54.25 15.25 64.234375 
Q 24.90625 74.21875 42 74.21875 
Q 49.125 74.21875 55.546875 72.453125 
Q 61.96875 70.703125 67.390625 67.28125 
L 67.390625 56.78125 
Q 61.921875 61.421875 55.765625 63.765625 
Q 49.609375 66.109375 42.828125 66.109375 
Q 29.4375 66.109375 22.71875 58.640625 
Q 16.015625 51.171875 16.015625 36.375 
Q 16.015625 21.625 22.71875 14.15625 
Q 29.4375 6.6875 42.828125 6.6875 
Q 48.046875 6.6875 52.140625 7.59375 
Q 56.25 8.5 59.515625 10.40625 
" id="DejaVuSans-47"/>
      <path d="M 52 44.1875 
Q 55.375 50.25 60.0625 53.125 
Q 64.75 56 71.09375 56 
Q 79.640625 56 84.28125 50.015625 
Q 88.921875 44.046875 88.921875 33.015625 
L 88.921875 0 
L 79.890625 0 
L 79.890625 32.71875 
Q 79.890625 40.578125 77.09375 44.375 
Q 74.3125 48.1875 68.609375 48.1875 
Q 61.625 48.1875 57.5625 43.546875 
Q 53.515625 38.921875 53.515625 30.90625 
L 53.515625 0 
L 44.484375 0 
L 44.484375 32.71875 
Q 44.484375 40.625 41.703125 44.40625 
Q 38.921875 48.1875 33.109375 48.1875 
Q 26.21875 48.1875 22.15625 43.53125 
Q 18.109375 38.875 18.109375 30.90625 
L 18.109375 0 
L 9.078125 0 
L 9.078125 54.6875 
L 18.109375 54.6875 
L 18.109375 46.1875 
Q 21.1875 51.21875 25.484375 53.609375 
Q 29.78125 56 35.6875 56 
Q 41.65625 56 45.828125 52.96875 
Q 50 49.953125 52 44.1875 
" id="DejaVuSans-6d"/>
     </defs>
     <g transform="translate(215.758438 100.689062)scale(0.1 -0.1)">
      <use xlink:href="#DejaVuSans-6c"/>
      <use x="27.783203" xlink:href="#DejaVuSans-6f"/>
      <use x="88.964844" xlink:href="#DejaVuSans-77"/>
      <use x="170.751953" xlink:href="#DejaVuSans-47"/>
      <use x="248.242188" xlink:href="#DejaVuSans-61"/>
      <use x="309.521484" xlink:href="#DejaVuSans-6d"/>
      <use x="406.933594" xlink:href="#DejaVuSans-6d"/>
      <use x="504.345703" xlink:href="#DejaVuSans-61"/>
     </g>
    </g>
    <g id="line2d_42">
     <path d="M 187.758438 111.867188 
L 207.758438 111.867188 
" style="fill:none;stroke:#e377c2;stroke-linecap:square;stroke-width:1.5;"/>
    </g>
    <g id="line2d_43"/>
    <g id="text_24">
     <!-- midGamma -->
     <g transform="translate(215.758438 115.367188)scale(0.1 -0.1)">
      <use xlink:href="#DejaVuSans-6d"/>
      <use x="97.412109" xlink:href="#DejaVuSans-69"/>
      <use x="125.195312" xlink:href="#DejaVuSans-64"/>
      <use x="188.671875" xlink:href="#DejaVuSans-47"/>
      <use x="266.162109" xlink:href="#DejaVuSans-61"/>
      <use x="327.441406" xlink:href="#DejaVuSans-6d"/>
      <use x="424.853516" xlink:href="#DejaVuSans-6d"/>
      <use x="522.265625" xlink:href="#DejaVuSans-61"/>
     </g>
    </g>
    <g id="line2d_44">
     <path d="M 187.758438 126.545312 
L 207.758438 126.545312 
" style="fill:none;stroke:#7f7f7f;stroke-linecap:square;stroke-width:1.5;"/>
    </g>
    <g id="line2d_45"/>
    <g id="text_25">
     <!-- attention -->
     <defs>
      <path d="M 54.890625 33.015625 
L 54.890625 0 
L 45.90625 0 
L 45.90625 32.71875 
Q 45.90625 40.484375 42.875 44.328125 
Q 39.84375 48.1875 33.796875 48.1875 
Q 26.515625 48.1875 22.3125 43.546875 
Q 18.109375 38.921875 18.109375 30.90625 
L 18.109375 0 
L 9.078125 0 
L 9.078125 54.6875 
L 18.109375 54.6875 
L 18.109375 46.1875 
Q 21.34375 51.125 25.703125 53.5625 
Q 30.078125 56 35.796875 56 
Q 45.21875 56 50.046875 50.171875 
Q 54.890625 44.34375 54.890625 33.015625 
" id="DejaVuSans-6e"/>
     </defs>
     <g transform="translate(215.758438 130.045312)scale(0.1 -0.1)">
      <use xlink:href="#DejaVuSans-61"/>
      <use x="61.279297" xlink:href="#DejaVuSans-74"/>
      <use x="100.488281" xlink:href="#DejaVuSans-74"/>
      <use x="139.697266" xlink:href="#DejaVuSans-65"/>
      <use x="201.220703" xlink:href="#DejaVuSans-6e"/>
      <use x="264.599609" xlink:href="#DejaVuSans-74"/>
      <use x="303.808594" xlink:href="#DejaVuSans-69"/>
      <use x="331.591797" xlink:href="#DejaVuSans-6f"/>
      <use x="392.773438" xlink:href="#DejaVuSans-6e"/>
     </g>
    </g>
    <g id="line2d_46">
     <path d="M 187.758438 141.223437 
L 207.758438 141.223437 
" style="fill:none;stroke:#bcbd22;stroke-linecap:square;stroke-width:1.5;"/>
    </g>
    <g id="line2d_47"/>
    <g id="text_26">
     <!-- meditation -->
     <g transform="translate(215.758438 144.723437)scale(0.1 -0.1)">
      <use xlink:href="#DejaVuSans-6d"/>
      <use x="97.412109" xlink:href="#DejaVuSans-65"/>
      <use x="158.935547" xlink:href="#DejaVuSans-64"/>
      <use x="222.412109" xlink:href="#DejaVuSans-69"/>
      <use x="250.195312" xlink:href="#DejaVuSans-74"/>
      <use x="289.404297" xlink:href="#DejaVuSans-61"/>
      <use x="350.683594" xlink:href="#DejaVuSans-74"/>
      <use x="389.892578" xlink:href="#DejaVuSans-69"/>
      <use x="417.675781" xlink:href="#DejaVuSans-6f"/>
      <use x="478.857422" xlink:href="#DejaVuSans-6e"/>
     </g>
    </g>
    <g id="line2d_48">
     <path d="M 187.758438 155.901562 
L 207.758438 155.901562 
" style="fill:none;stroke:#17becf;stroke-linecap:square;stroke-width:1.5;"/>
    </g>
    <g id="line2d_49"/>
    <g id="text_27">
     <!-- rawValue -->
     <defs>
      <path d="M 41.109375 46.296875 
Q 39.59375 47.171875 37.8125 47.578125 
Q 36.03125 48 33.890625 48 
Q 26.265625 48 22.1875 43.046875 
Q 18.109375 38.09375 18.109375 28.8125 
L 18.109375 0 
L 9.078125 0 
L 9.078125 54.6875 
L 18.109375 54.6875 
L 18.109375 46.1875 
Q 20.953125 51.171875 25.484375 53.578125 
Q 30.03125 56 36.53125 56 
Q 37.453125 56 38.578125 55.875 
Q 39.703125 55.765625 41.0625 55.515625 
z
" id="DejaVuSans-72"/>
      <path d="M 28.609375 0 
L 0.78125 72.90625 
L 11.078125 72.90625 
L 34.1875 11.53125 
L 57.328125 72.90625 
L 67.578125 72.90625 
L 39.796875 0 
z
" id="DejaVuSans-56"/>
      <path d="M 8.5 21.578125 
L 8.5 54.6875 
L 17.484375 54.6875 
L 17.484375 21.921875 
Q 17.484375 14.15625 20.5 10.265625 
Q 23.53125 6.390625 29.59375 6.390625 
Q 36.859375 6.390625 41.078125 11.03125 
Q 45.3125 15.671875 45.3125 23.6875 
L 45.3125 54.6875 
L 54.296875 54.6875 
L 54.296875 0 
L 45.3125 0 
L 45.3125 8.40625 
Q 42.046875 3.421875 37.71875 1 
Q 33.40625 -1.421875 27.6875 -1.421875 
Q 18.265625 -1.421875 13.375 4.4375 
Q 8.5 10.296875 8.5 21.578125 
M 31.109375 56 
z
" id="DejaVuSans-75"/>
     </defs>
     <g transform="translate(215.758438 159.401562)scale(0.1 -0.1)">
      <use xlink:href="#DejaVuSans-72"/>
      <use x="41.113281" xlink:href="#DejaVuSans-61"/>
      <use x="102.392578" xlink:href="#DejaVuSans-77"/>
      <use x="184.179688" xlink:href="#DejaVuSans-56"/>
      <use x="252.478516" xlink:href="#DejaVuSans-61"/>
      <use x="313.757812" xlink:href="#DejaVuSans-6c"/>
      <use x="341.541016" xlink:href="#DejaVuSans-75"/>
      <use x="404.919922" xlink:href="#DejaVuSans-65"/>
     </g>
    </g>
   </g>
  </g>
 </g>
 <defs>
  <clipPath id="pc239f76e3a">
   <rect height="266.112" width="357.12" x="52.375" y="10.7"/>
  </clipPath>
 </defs>
</svg>
