<?xml version="1.0" encoding="utf-8" standalone="no"?>
<!DOCTYPE svg PUBLIC "-//W3C//DTD SVG 1.1//EN"
  "http://www.w3.org/Graphics/SVG/1.1/DTD/svg11.dtd">
<!-- Created with matplotlib (http://matplotlib.org/) -->
<svg height="300pt" version="1.1" viewBox="0 0 426 300" width="426pt" xmlns="http://www.w3.org/2000/svg" xmlns:xlink="http://www.w3.org/1999/xlink">
 <defs>
  <style type="text/css">
*{stroke-linecap:butt;stroke-linejoin:round;}
  </style>
 </defs>
 <g id="figure_1">
  <g id="patch_1">
   <path d="M 0 300.690125 
L 426.5575 300.690125 
L 426.5575 0 
L 0 0 
z
" style="fill:#ffffff;"/>
  </g>
  <g id="axes_1">
   <g id="patch_2">
    <path d="M 58.7375 276.812 
L 415.8575 276.812 
L 415.8575 10.7 
L 58.7375 10.7 
z
" style="fill:#ffffff;"/>
   </g>
   <g id="matplotlib.axis_1">
    <g id="xtick_1">
     <g id="line2d_1">
      <defs>
       <path d="M 0 0 
L 0 3.5 
" id="m404ac96267" style="stroke:#000000;stroke-width:0.8;"/>
      </defs>
      <g>
       <use style="stroke:#000000;stroke-width:0.8;" x="74.970227" xlink:href="#m404ac96267" y="276.812"/>
      </g>
     </g>
     <g id="text_1">
      <!-- 0 -->
      <defs>
       <path d="M 31.78125 66.40625 
Q 24.171875 66.40625 20.328125 58.90625 
Q 16.5 51.421875 16.5 36.375 
Q 16.5 21.390625 20.328125 13.890625 
Q 24.171875 6.390625 31.78125 6.390625 
Q 39.453125 6.390625 43.28125 13.890625 
Q 47.125 21.390625 47.125 36.375 
Q 47.125 51.421875 43.28125 58.90625 
Q 39.453125 66.40625 31.78125 66.40625 
M 31.78125 74.21875 
Q 44.046875 74.21875 50.515625 64.515625 
Q 56.984375 54.828125 56.984375 36.375 
Q 56.984375 17.96875 50.515625 8.265625 
Q 44.046875 -1.421875 31.78125 -1.421875 
Q 19.53125 -1.421875 13.0625 8.265625 
Q 6.59375 17.96875 6.59375 36.375 
Q 6.59375 54.828125 13.0625 64.515625 
Q 19.53125 74.21875 31.78125 74.21875 
" id="DejaVuSans-30"/>
      </defs>
      <g transform="translate(71.788977 291.410437)scale(0.1 -0.1)">
       <use xlink:href="#DejaVuSans-30"/>
      </g>
     </g>
    </g>
    <g id="xtick_2">
     <g id="line2d_2">
      <g>
       <use style="stroke:#000000;stroke-width:0.8;" x="118.606591" xlink:href="#m404ac96267" y="276.812"/>
      </g>
     </g>
     <g id="text_2">
      <!-- 25 -->
      <defs>
       <path d="M 19.1875 8.296875 
L 53.609375 8.296875 
L 53.609375 0 
L 7.328125 0 
L 7.328125 8.296875 
Q 12.9375 14.109375 22.625 23.890625 
Q 32.328125 33.6875 34.8125 36.53125 
Q 39.546875 41.84375 41.421875 45.53125 
Q 43.3125 49.21875 43.3125 52.78125 
Q 43.3125 58.59375 39.234375 62.25 
Q 35.15625 65.921875 28.609375 65.921875 
Q 23.96875 65.921875 18.8125 64.3125 
Q 13.671875 62.703125 7.8125 59.421875 
L 7.8125 69.390625 
Q 13.765625 71.78125 18.9375 73 
Q 24.125 74.21875 28.421875 74.21875 
Q 39.75 74.21875 46.484375 68.546875 
Q 53.21875 62.890625 53.21875 53.421875 
Q 53.21875 48.921875 51.53125 44.890625 
Q 49.859375 40.875 45.40625 35.40625 
Q 44.1875 33.984375 37.640625 27.21875 
Q 31.109375 20.453125 19.1875 8.296875 
" id="DejaVuSans-32"/>
       <path d="M 10.796875 72.90625 
L 49.515625 72.90625 
L 49.515625 64.59375 
L 19.828125 64.59375 
L 19.828125 46.734375 
Q 21.96875 47.46875 24.109375 47.828125 
Q 26.265625 48.1875 28.421875 48.1875 
Q 40.625 48.1875 47.75 41.5 
Q 54.890625 34.8125 54.890625 23.390625 
Q 54.890625 11.625 47.5625 5.09375 
Q 40.234375 -1.421875 26.90625 -1.421875 
Q 22.3125 -1.421875 17.546875 -0.640625 
Q 12.796875 0.140625 7.71875 1.703125 
L 7.71875 11.625 
Q 12.109375 9.234375 16.796875 8.0625 
Q 21.484375 6.890625 26.703125 6.890625 
Q 35.15625 6.890625 40.078125 11.328125 
Q 45.015625 15.765625 45.015625 23.390625 
Q 45.015625 31 40.078125 35.4375 
Q 35.15625 39.890625 26.703125 39.890625 
Q 22.75 39.890625 18.8125 39.015625 
Q 14.890625 38.140625 10.796875 36.28125 
z
" id="DejaVuSans-35"/>
      </defs>
      <g transform="translate(112.244091 291.410437)scale(0.1 -0.1)">
       <use xlink:href="#DejaVuSans-32"/>
       <use x="63.623047" xlink:href="#DejaVuSans-35"/>
      </g>
     </g>
    </g>
    <g id="xtick_3">
     <g id="line2d_3">
      <g>
       <use style="stroke:#000000;stroke-width:0.8;" x="162.242955" xlink:href="#m404ac96267" y="276.812"/>
      </g>
     </g>
     <g id="text_3">
      <!-- 50 -->
      <g transform="translate(155.880455 291.410437)scale(0.1 -0.1)">
       <use xlink:href="#DejaVuSans-35"/>
       <use x="63.623047" xlink:href="#DejaVuSans-30"/>
      </g>
     </g>
    </g>
    <g id="xtick_4">
     <g id="line2d_4">
      <g>
       <use style="stroke:#000000;stroke-width:0.8;" x="205.879318" xlink:href="#m404ac96267" y="276.812"/>
      </g>
     </g>
     <g id="text_4">
      <!-- 75 -->
      <defs>
       <path d="M 8.203125 72.90625 
L 55.078125 72.90625 
L 55.078125 68.703125 
L 28.609375 0 
L 18.3125 0 
L 43.21875 64.59375 
L 8.203125 64.59375 
z
" id="DejaVuSans-37"/>
      </defs>
      <g transform="translate(199.516818 291.410437)scale(0.1 -0.1)">
       <use xlink:href="#DejaVuSans-37"/>
       <use x="63.623047" xlink:href="#DejaVuSans-35"/>
      </g>
     </g>
    </g>
    <g id="xtick_5">
     <g id="line2d_5">
      <g>
       <use style="stroke:#000000;stroke-width:0.8;" x="249.515682" xlink:href="#m404ac96267" y="276.812"/>
      </g>
     </g>
     <g id="text_5">
      <!-- 100 -->
      <defs>
       <path d="M 12.40625 8.296875 
L 28.515625 8.296875 
L 28.515625 63.921875 
L 10.984375 60.40625 
L 10.984375 69.390625 
L 28.421875 72.90625 
L 38.28125 72.90625 
L 38.28125 8.296875 
L 54.390625 8.296875 
L 54.390625 0 
L 12.40625 0 
z
" id="DejaVuSans-31"/>
      </defs>
      <g transform="translate(239.971932 291.410437)scale(0.1 -0.1)">
       <use xlink:href="#DejaVuSans-31"/>
       <use x="63.623047" xlink:href="#DejaVuSans-30"/>
       <use x="127.246094" xlink:href="#DejaVuSans-30"/>
      </g>
     </g>
    </g>
    <g id="xtick_6">
     <g id="line2d_6">
      <g>
       <use style="stroke:#000000;stroke-width:0.8;" x="293.152045" xlink:href="#m404ac96267" y="276.812"/>
      </g>
     </g>
     <g id="text_6">
      <!-- 125 -->
      <g transform="translate(283.608295 291.410437)scale(0.1 -0.1)">
       <use xlink:href="#DejaVuSans-31"/>
       <use x="63.623047" xlink:href="#DejaVuSans-32"/>
       <use x="127.246094" xlink:href="#DejaVuSans-35"/>
      </g>
     </g>
    </g>
    <g id="xtick_7">
     <g id="line2d_7">
      <g>
       <use style="stroke:#000000;stroke-width:0.8;" x="336.788409" xlink:href="#m404ac96267" y="276.812"/>
      </g>
     </g>
     <g id="text_7">
      <!-- 150 -->
      <g transform="translate(327.244659 291.410437)scale(0.1 -0.1)">
       <use xlink:href="#DejaVuSans-31"/>
       <use x="63.623047" xlink:href="#DejaVuSans-35"/>
       <use x="127.246094" xlink:href="#DejaVuSans-30"/>
      </g>
     </g>
    </g>
    <g id="xtick_8">
     <g id="line2d_8">
      <g>
       <use style="stroke:#000000;stroke-width:0.8;" x="380.424773" xlink:href="#m404ac96267" y="276.812"/>
      </g>
     </g>
     <g id="text_8">
      <!-- 175 -->
      <g transform="translate(370.881023 291.410437)scale(0.1 -0.1)">
       <use xlink:href="#DejaVuSans-31"/>
       <use x="63.623047" xlink:href="#DejaVuSans-37"/>
       <use x="127.246094" xlink:href="#DejaVuSans-35"/>
      </g>
     </g>
    </g>
   </g>
   <g id="matplotlib.axis_2">
    <g id="ytick_1">
     <g id="line2d_9">
      <defs>
       <path d="M 0 0 
L -3.5 0 
" id="m2a437cb37c" style="stroke:#000000;stroke-width:0.8;"/>
      </defs>
      <g>
       <use style="stroke:#000000;stroke-width:0.8;" x="58.7375" xlink:href="#m2a437cb37c" y="264.552399"/>
      </g>
     </g>
     <g id="text_9">
      <!-- 0 -->
      <g transform="translate(45.375 268.351618)scale(0.1 -0.1)">
       <use xlink:href="#DejaVuSans-30"/>
      </g>
     </g>
    </g>
    <g id="ytick_2">
     <g id="line2d_10">
      <g>
       <use style="stroke:#000000;stroke-width:0.8;" x="58.7375" xlink:href="#m2a437cb37c" y="220.925542"/>
      </g>
     </g>
     <g id="text_10">
      <!-- 500000 -->
      <g transform="translate(13.5625 224.72476)scale(0.1 -0.1)">
       <use xlink:href="#DejaVuSans-35"/>
       <use x="63.623047" xlink:href="#DejaVuSans-30"/>
       <use x="127.246094" xlink:href="#DejaVuSans-30"/>
       <use x="190.869141" xlink:href="#DejaVuSans-30"/>
       <use x="254.492188" xlink:href="#DejaVuSans-30"/>
       <use x="318.115234" xlink:href="#DejaVuSans-30"/>
      </g>
     </g>
    </g>
    <g id="ytick_3">
     <g id="line2d_11">
      <g>
       <use style="stroke:#000000;stroke-width:0.8;" x="58.7375" xlink:href="#m2a437cb37c" y="177.298684"/>
      </g>
     </g>
     <g id="text_11">
      <!-- 1000000 -->
      <g transform="translate(7.2 181.097903)scale(0.1 -0.1)">
       <use xlink:href="#DejaVuSans-31"/>
       <use x="63.623047" xlink:href="#DejaVuSans-30"/>
       <use x="127.246094" xlink:href="#DejaVuSans-30"/>
       <use x="190.869141" xlink:href="#DejaVuSans-30"/>
       <use x="254.492188" xlink:href="#DejaVuSans-30"/>
       <use x="318.115234" xlink:href="#DejaVuSans-30"/>
       <use x="381.738281" xlink:href="#DejaVuSans-30"/>
      </g>
     </g>
    </g>
    <g id="ytick_4">
     <g id="line2d_12">
      <g>
       <use style="stroke:#000000;stroke-width:0.8;" x="58.7375" xlink:href="#m2a437cb37c" y="133.671826"/>
      </g>
     </g>
     <g id="text_12">
      <!-- 1500000 -->
      <g transform="translate(7.2 137.471045)scale(0.1 -0.1)">
       <use xlink:href="#DejaVuSans-31"/>
       <use x="63.623047" xlink:href="#DejaVuSans-35"/>
       <use x="127.246094" xlink:href="#DejaVuSans-30"/>
       <use x="190.869141" xlink:href="#DejaVuSans-30"/>
       <use x="254.492188" xlink:href="#DejaVuSans-30"/>
       <use x="318.115234" xlink:href="#DejaVuSans-30"/>
       <use x="381.738281" xlink:href="#DejaVuSans-30"/>
      </g>
     </g>
    </g>
    <g id="ytick_5">
     <g id="line2d_13">
      <g>
       <use style="stroke:#000000;stroke-width:0.8;" x="58.7375" xlink:href="#m2a437cb37c" y="90.044969"/>
      </g>
     </g>
     <g id="text_13">
      <!-- 2000000 -->
      <g transform="translate(7.2 93.844187)scale(0.1 -0.1)">
       <use xlink:href="#DejaVuSans-32"/>
       <use x="63.623047" xlink:href="#DejaVuSans-30"/>
       <use x="127.246094" xlink:href="#DejaVuSans-30"/>
       <use x="190.869141" xlink:href="#DejaVuSans-30"/>
       <use x="254.492188" xlink:href="#DejaVuSans-30"/>
       <use x="318.115234" xlink:href="#DejaVuSans-30"/>
       <use x="381.738281" xlink:href="#DejaVuSans-30"/>
      </g>
     </g>
    </g>
    <g id="ytick_6">
     <g id="line2d_14">
      <g>
       <use style="stroke:#000000;stroke-width:0.8;" x="58.7375" xlink:href="#m2a437cb37c" y="46.418111"/>
      </g>
     </g>
     <g id="text_14">
      <!-- 2500000 -->
      <g transform="translate(7.2 50.21733)scale(0.1 -0.1)">
       <use xlink:href="#DejaVuSans-32"/>
       <use x="63.623047" xlink:href="#DejaVuSans-35"/>
       <use x="127.246094" xlink:href="#DejaVuSans-30"/>
       <use x="190.869141" xlink:href="#DejaVuSans-30"/>
       <use x="254.492188" xlink:href="#DejaVuSans-30"/>
       <use x="318.115234" xlink:href="#DejaVuSans-30"/>
       <use x="381.738281" xlink:href="#DejaVuSans-30"/>
      </g>
     </g>
    </g>
   </g>
   <g id="line2d_15">
    <path clip-path="url(#p73e0a9b49c)" d="M 74.970227 254.854847 
L 76.715682 254.85092 
L 78.461136 220.082584 
L 80.206591 248.73522 
L 81.952045 248.647705 
L 83.6975 250.8061 
L 85.442955 204.662671 
L 87.188409 220.233009 
L 88.933864 255.375752 
L 90.679318 236.920631 
L 92.424773 259.472575 
L 94.170227 253.763128 
L 95.915682 253.71287 
L 97.661136 248.933548 
L 99.406591 263.952443 
L 101.152045 213.478437 
L 102.8975 252.926365 
L 104.642955 258.142567 
L 106.388409 252.123893 
L 108.133864 259.767667 
L 109.879318 203.922934 
L 111.624773 251.442529 
L 113.370227 250.351508 
L 115.115682 245.809167 
L 116.861136 254.135876 
L 118.606591 248.516999 
L 120.352045 213.791852 
L 122.0975 259.629457 
L 123.842955 209.362243 
L 125.588409 257.157472 
L 127.333864 256.157196 
L 129.079318 190.47129 
L 130.824773 238.77486 
L 132.570227 250.380302 
L 134.315682 259.348762 
L 136.061136 257.521408 
L 137.806591 253.819582 
L 139.552045 257.934729 
L 141.2975 260.356543 
L 143.042955 260.897952 
L 144.788409 179.630452 
L 146.533864 167.610642 
L 148.279318 211.888849 
L 150.024773 217.52413 
L 151.770227 258.481373 
L 153.515682 251.839009 
L 157.006591 258.96249 
L 158.752045 251.894677 
L 160.4975 248.872121 
L 162.242955 231.068437 
L 163.988409 218.327911 
L 165.733864 250.548352 
L 167.479318 250.03024 
L 169.224773 257.046398 
L 170.970227 242.008221 
L 172.715682 259.265958 
L 174.461136 257.897995 
L 176.206591 255.530103 
L 177.952045 255.611686 
L 179.6975 260.507143 
L 181.442955 255.490926 
L 183.188409 260.044 
L 184.933864 253.24013 
L 186.679318 247.745589 
L 188.424773 263.092645 
L 190.170227 249.426793 
L 191.915682 255.383866 
L 193.661136 258.142043 
L 195.406591 259.106022 
L 197.152045 260.725102 
L 198.8975 256.471396 
L 200.642955 260.390746 
L 202.388409 240.151898 
L 204.133864 253.019814 
L 205.879318 153.012049 
L 207.624773 251.064196 
L 209.370227 257.785786 
L 211.115682 259.611745 
L 212.861136 258.977149 
L 214.606591 256.33912 
L 216.352045 254.718731 
L 218.0975 248.046963 
L 219.842955 245.572448 
L 221.588409 217.612431 
L 223.333864 250.386846 
L 225.079318 237.215025 
L 226.824773 252.18052 
L 228.570227 252.866073 
L 230.315682 252.449 
L 232.061136 228.350746 
L 233.806591 112.323634 
L 235.552045 209.471921 
L 237.2975 251.25057 
L 239.042955 262.310677 
L 240.788409 225.868377 
L 242.533864 158.838852 
L 244.279318 99.675772 
L 246.024773 253.980477 
L 247.770227 137.37627 
L 249.515682 264.551876 
L 251.261136 188.224943 
L 253.006591 184.536292 
L 254.752045 188.57134 
L 256.4975 232.3659 
L 258.242955 228.088374 
L 259.988409 211.443593 
L 261.733864 152.276849 
L 263.479318 254.971854 
L 265.224773 217.981427 
L 266.970227 216.551775 
L 268.715682 208.504626 
L 270.461136 256.287117 
L 272.206591 260.057088 
L 273.952045 207.768292 
L 275.6975 31.458985 
L 277.442955 216.512598 
L 279.188409 257.782384 
L 280.933864 206.383052 
L 282.679318 253.638705 
L 284.424773 178.411605 
L 286.170227 258.508073 
L 287.915682 134.769914 
L 289.661136 177.67309 
L 291.406591 170.907873 
L 293.152045 234.956026 
L 294.8975 255.555494 
L 296.642955 149.511081 
L 298.388409 259.631901 
L 300.133864 192.703676 
L 301.879318 230.103236 
L 303.624773 222.302842 
L 305.370227 254.590643 
L 307.115682 246.105132 
L 308.861136 172.623194 
L 310.606591 254.065375 
L 312.352045 254.740719 
L 314.0975 262.094026 
L 315.842955 206.083074 
L 317.588409 253.81199 
L 319.333864 251.581785 
L 321.079318 261.621634 
L 322.824773 255.438487 
L 324.570227 253.007337 
L 326.315682 183.172168 
L 328.061136 257.800969 
L 329.806591 256.041497 
L 333.2975 174.690321 
L 335.042955 184.142516 
L 336.788409 194.500841 
L 338.533864 234.853503 
L 340.279318 241.595249 
L 342.024773 260.471892 
L 343.770227 255.507941 
L 345.515682 263.62053 
L 347.261136 262.634214 
L 349.006591 228.714157 
L 350.752045 255.925886 
L 352.4975 248.072092 
L 354.242955 262.262775 
L 355.988409 221.661003 
L 357.733864 259.125044 
L 359.479318 262.799298 
L 361.224773 259.404168 
L 362.970227 263.061146 
L 364.715682 259.714617 
L 366.461136 260.178109 
L 368.206591 262.685606 
L 369.952045 233.985765 
L 371.6975 22.796 
L 373.442955 259.910938 
L 375.188409 261.757401 
L 376.933864 261.846051 
L 378.679318 259.318921 
L 380.424773 203.080848 
L 382.170227 250.680716 
L 383.915682 258.009418 
L 385.661136 58.635289 
L 387.406591 258.24954 
L 389.152045 262.58762 
L 390.8975 260.704249 
L 392.642955 41.984924 
L 394.388409 239.894761 
L 396.133864 254.953356 
L 397.879318 246.902543 
L 399.624773 169.392538 
L 399.624773 169.392538 
" style="fill:none;stroke:#1f77b4;stroke-linecap:square;stroke-width:1.5;"/>
   </g>
   <g id="line2d_16">
    <path clip-path="url(#p73e0a9b49c)" d="M 74.970227 263.967276 
L 76.715682 260.562461 
L 78.461136 250.542594 
L 80.206591 262.612662 
L 81.952045 253.922192 
L 83.6975 260.5533 
L 85.442955 160.965923 
L 87.188409 261.46292 
L 88.933864 263.047622 
L 90.679318 255.989058 
L 92.424773 263.499945 
L 94.170227 262.184857 
L 95.915682 262.819802 
L 97.661136 245.373945 
L 99.406591 264.235232 
L 101.152045 261.892906 
L 102.8975 260.537071 
L 104.642955 262.510139 
L 106.388409 263.229371 
L 108.133864 261.415977 
L 109.879318 263.617214 
L 111.624773 257.498809 
L 113.370227 254.126715 
L 115.115682 257.296817 
L 116.861136 256.056156 
L 118.606591 259.612443 
L 120.352045 253.581553 
L 122.0975 261.042706 
L 123.842955 260.706343 
L 125.588409 259.23446 
L 127.333864 263.56652 
L 129.079318 252.920432 
L 130.824773 259.046079 
L 132.570227 259.296846 
L 134.315682 261.948487 
L 136.061136 262.410408 
L 137.806591 258.986049 
L 139.552045 262.349679 
L 141.2975 263.58842 
L 143.042955 258.755873 
L 144.788409 236.892012 
L 146.533864 244.968565 
L 148.279318 248.908506 
L 150.024773 248.247123 
L 151.770227 262.061742 
L 153.515682 260.656259 
L 155.261136 260.681388 
L 157.006591 261.159975 
L 158.752045 262.815614 
L 160.4975 259.816878 
L 162.242955 262.258325 
L 163.988409 259.055851 
L 165.733864 260.450777 
L 167.479318 263.719737 
L 169.224773 260.731297 
L 170.970227 262.695378 
L 172.715682 262.597218 
L 174.461136 262.256231 
L 176.206591 261.515534 
L 177.952045 261.487002 
L 179.6975 263.485374 
L 181.442955 260.97142 
L 183.188409 260.38333 
L 184.933864 262.128927 
L 186.679318 263.173267 
L 188.424773 262.362506 
L 190.170227 257.551946 
L 191.915682 262.895189 
L 193.661136 261.890027 
L 195.406591 238.556725 
L 197.152045 261.68786 
L 198.8975 262.632469 
L 200.642955 260.515955 
L 202.388409 249.947523 
L 204.133864 256.986455 
L 205.879318 246.889106 
L 207.624773 257.973469 
L 209.370227 260.862091 
L 211.115682 262.564498 
L 212.861136 262.767974 
L 214.606591 261.926411 
L 216.352045 257.139847 
L 218.0975 259.457131 
L 219.842955 262.977557 
L 221.588409 243.591527 
L 223.333864 260.71786 
L 225.079318 263.051723 
L 226.824773 261.188158 
L 228.570227 256.705324 
L 230.315682 263.467748 
L 232.061136 259.132548 
L 233.806591 243.098369 
L 235.552045 259.181846 
L 237.2975 248.793331 
L 239.042955 263.47054 
L 240.788409 258.476836 
L 242.533864 230.577286 
L 244.279318 236.01677 
L 246.024773 262.891176 
L 247.770227 247.861898 
L 249.515682 264.552225 
L 251.261136 245.342098 
L 253.006591 259.462716 
L 254.752045 260.554172 
L 256.4975 258.622724 
L 258.242955 263.460419 
L 259.988409 234.19465 
L 261.733864 259.519256 
L 263.479318 263.238009 
L 266.970227 260.743949 
L 268.715682 258.677432 
L 270.461136 263.53982 
L 272.206591 263.53982 
L 273.952045 261.254296 
L 275.6975 248.557921 
L 277.442955 260.990528 
L 279.188409 264.270221 
L 280.933864 250.864822 
L 282.679318 261.317555 
L 284.424773 259.618987 
L 286.170227 260.840452 
L 287.915682 258.636772 
L 289.661136 263.47883 
L 291.406591 253.872196 
L 293.152045 261.48927 
L 294.8975 252.158271 
L 296.642955 260.23779 
L 298.388409 262.869711 
L 300.133864 258.340807 
L 301.879318 262.612313 
L 303.624773 262.046734 
L 305.370227 254.517524 
L 307.115682 263.36252 
L 308.861136 258.777774 
L 312.352045 259.662788 
L 314.0975 263.572453 
L 317.588409 259.274422 
L 319.333864 262.640583 
L 321.079318 259.579025 
L 322.824773 247.286983 
L 324.570227 258.625778 
L 326.315682 261.721802 
L 328.061136 260.483061 
L 329.806591 257.526032 
L 331.552045 255.426882 
L 333.2975 262.850777 
L 335.042955 260.887307 
L 336.788409 262.484486 
L 338.533864 255.032408 
L 340.279318 260.848915 
L 342.024773 260.560542 
L 343.770227 262.89423 
L 345.515682 261.786282 
L 347.261136 260.978313 
L 349.006591 256.571215 
L 350.752045 260.754769 
L 352.4975 263.723576 
L 354.242955 260.601377 
L 355.988409 256.311809 
L 357.733864 257.250572 
L 359.479318 259.644116 
L 361.224773 257.373862 
L 362.970227 261.235537 
L 364.715682 257.218725 
L 366.461136 262.179534 
L 368.206591 263.720086 
L 369.952045 254.067731 
L 371.6975 262.369922 
L 373.442955 263.622013 
L 375.188409 263.887002 
L 376.933864 263.281549 
L 378.679318 258.124505 
L 380.424773 258.585467 
L 382.170227 260.676589 
L 383.915682 262.181192 
L 385.661136 215.517207 
L 387.406591 263.487206 
L 389.152045 261.304729 
L 390.8975 263.681345 
L 392.642955 257.582573 
L 394.388409 257.095784 
L 396.133864 260.960513 
L 397.879318 258.614958 
L 399.624773 258.895654 
L 399.624773 258.895654 
" style="fill:none;stroke:#ff7f0e;stroke-linecap:square;stroke-width:1.5;"/>
   </g>
   <g id="line2d_17">
    <path clip-path="url(#p73e0a9b49c)" d="M 74.970227 264.254079 
L 76.715682 263.119693 
L 78.461136 262.402642 
L 80.206591 264.031669 
L 81.952045 263.079557 
L 83.6975 262.986108 
L 85.442955 261.490841 
L 87.188409 264.303813 
L 88.933864 263.844946 
L 92.424773 264.424485 
L 94.170227 263.455882 
L 95.915682 264.078524 
L 97.661136 262.670598 
L 99.406591 264.488442 
L 101.152045 263.908816 
L 102.8975 264.090565 
L 104.642955 263.525859 
L 106.388409 264.176772 
L 108.133864 264.122675 
L 109.879318 259.360192 
L 111.624773 262.775914 
L 113.370227 264.274496 
L 115.115682 263.984465 
L 116.861136 263.897996 
L 118.606591 263.540343 
L 120.352045 263.900614 
L 122.0975 263.178677 
L 123.842955 264.335574 
L 125.588409 264.230957 
L 127.333864 264.456769 
L 129.079318 264.102868 
L 130.824773 256.54975 
L 132.570227 264.186981 
L 134.315682 263.015512 
L 136.061136 264.213157 
L 137.806591 264.460085 
L 139.552045 263.136184 
L 141.2975 264.19972 
L 143.042955 262.786471 
L 144.788409 255.679133 
L 146.533864 250.762386 
L 148.279318 262.526717 
L 150.024773 259.199297 
L 151.770227 263.976961 
L 153.515682 264.238548 
L 155.261136 261.138074 
L 157.006591 263.620704 
L 158.752045 264.216821 
L 160.4975 262.558216 
L 162.242955 264.001479 
L 163.988409 263.89503 
L 165.733864 263.565298 
L 167.479318 264.408343 
L 169.224773 263.313658 
L 170.970227 263.709179 
L 172.715682 263.602294 
L 174.461136 264.41672 
L 176.206591 263.838228 
L 177.952045 263.661015 
L 179.6975 263.834214 
L 181.442955 264.142743 
L 183.188409 264.3217 
L 184.933864 263.908816 
L 186.679318 261.755307 
L 188.424773 264.502316 
L 190.170227 263.599152 
L 191.915682 263.811615 
L 193.661136 263.543746 
L 195.406591 264.101036 
L 197.152045 263.652639 
L 198.8975 263.623496 
L 200.642955 264.146233 
L 202.388409 262.476546 
L 204.133864 264.264549 
L 205.879318 262.99082 
L 209.370227 264.086377 
L 211.115682 264.250414 
L 212.861136 264.117614 
L 214.606591 264.528055 
L 216.352045 261.413534 
L 218.0975 262.090274 
L 219.842955 261.534032 
L 221.588409 263.895466 
L 225.079318 263.092994 
L 226.824773 264.480764 
L 228.570227 261.835668 
L 230.315682 264.090827 
L 232.061136 258.740255 
L 233.806591 262.787169 
L 235.552045 263.944939 
L 237.2975 263.791721 
L 239.042955 264.216734 
L 240.788409 260.196607 
L 242.533864 257.017605 
L 244.279318 256.594075 
L 246.024773 264.26769 
L 247.770227 262.852348 
L 249.515682 264.552399 
L 251.261136 261.214857 
L 253.006591 259.761734 
L 254.752045 263.377354 
L 256.4975 263.662324 
L 258.242955 264.089693 
L 259.988409 249.91079 
L 261.733864 262.718152 
L 263.479318 264.352414 
L 265.224773 263.698534 
L 266.970227 263.5735 
L 268.715682 264.187068 
L 270.461136 264.467065 
L 273.952045 264.205217 
L 275.6975 262.778531 
L 277.442955 263.276924 
L 279.188409 264.419337 
L 280.933864 263.531531 
L 282.679318 264.075907 
L 284.424773 263.048931 
L 286.170227 263.737013 
L 287.915682 264.110285 
L 289.661136 264.092572 
L 291.406591 260.159 
L 293.152045 263.525685 
L 294.8975 264.493416 
L 296.642955 263.544881 
L 298.388409 262.219497 
L 300.133864 262.546785 
L 301.879318 263.329451 
L 303.624773 263.934468 
L 305.370227 263.227277 
L 307.115682 262.067675 
L 308.861136 263.40702 
L 310.606591 263.462426 
L 312.352045 264.082189 
L 314.0975 264.506329 
L 315.842955 261.467893 
L 317.588409 263.895815 
L 319.333864 264.392027 
L 321.079318 263.129378 
L 322.824773 264.001916 
L 324.570227 262.826434 
L 326.315682 263.864666 
L 328.061136 261.515097 
L 329.806591 264.052523 
L 331.552045 261.371303 
L 333.2975 263.045004 
L 335.042955 263.201537 
L 336.788409 264.109325 
L 338.533864 259.713308 
L 340.279318 263.324303 
L 342.024773 261.833835 
L 343.770227 262.968395 
L 345.515682 262.875383 
L 347.261136 261.266773 
L 349.006591 263.332941 
L 350.752045 262.569122 
L 352.4975 263.91693 
L 354.242955 263.331371 
L 355.988409 263.334686 
L 357.733864 261.775899 
L 359.479318 263.687977 
L 361.224773 263.912219 
L 362.970227 263.854282 
L 364.715682 261.855649 
L 366.461136 259.262294 
L 368.206591 264.229648 
L 369.952045 260.175578 
L 371.6975 262.802962 
L 373.442955 264.237675 
L 375.188409 264.227903 
L 376.933864 263.294724 
L 378.679318 264.301196 
L 380.424773 263.092121 
L 382.170227 262.408925 
L 383.915682 264.05898 
L 385.661136 238.866214 
L 387.406591 264.266382 
L 389.152045 264.454675 
L 390.8975 263.832731 
L 392.642955 264.096673 
L 394.388409 263.100061 
L 396.133864 264.215251 
L 397.879318 263.668606 
L 399.624773 264.03324 
L 399.624773 264.03324 
" style="fill:none;stroke:#2ca02c;stroke-linecap:square;stroke-width:1.5;"/>
   </g>
   <g id="line2d_18">
    <path clip-path="url(#p73e0a9b49c)" d="M 74.970227 264.302068 
L 76.715682 263.980538 
L 78.461136 263.678553 
L 80.206591 264.307565 
L 81.952045 263.055911 
L 83.6975 264.14824 
L 85.442955 243.649987 
L 87.188409 263.798614 
L 88.933864 262.991692 
L 90.679318 263.933596 
L 92.424773 264.480938 
L 94.170227 264.195444 
L 95.915682 264.205828 
L 97.661136 261.993335 
L 99.406591 264.052261 
L 101.152045 263.887875 
L 102.8975 263.421591 
L 104.642955 263.795037 
L 106.388409 264.297357 
L 108.133864 264.341507 
L 109.879318 263.880284 
L 111.624773 263.537813 
L 115.115682 263.402919 
L 116.861136 262.866221 
L 118.606591 262.929218 
L 120.352045 262.824078 
L 122.0975 263.460594 
L 123.842955 263.864055 
L 125.588409 263.353097 
L 127.333864 264.513659 
L 129.079318 263.658049 
L 130.824773 263.618174 
L 132.570227 264.288457 
L 134.315682 264.273449 
L 136.061136 263.832556 
L 137.806591 262.424979 
L 139.552045 263.798963 
L 141.2975 264.401363 
L 143.042955 263.607005 
L 144.788409 254.226271 
L 146.533864 254.339614 
L 148.279318 264.096324 
L 150.024773 260.743775 
L 151.770227 264.361226 
L 153.515682 263.902097 
L 155.261136 263.639202 
L 157.006591 263.971377 
L 158.752045 263.888399 
L 160.4975 263.507362 
L 162.242955 264.303028 
L 163.988409 262.976684 
L 165.733864 263.895117 
L 167.479318 264.284007 
L 169.224773 264.373965 
L 170.970227 264.1136 
L 172.715682 264.497778 
L 174.461136 264.489838 
L 176.206591 263.257118 
L 177.952045 264.257307 
L 179.6975 264.375798 
L 181.442955 264.300672 
L 183.188409 263.264622 
L 186.679318 263.418363 
L 188.424773 264.44691 
L 190.170227 262.141317 
L 191.915682 264.173195 
L 193.661136 262.401246 
L 195.406591 262.744328 
L 197.152045 263.98813 
L 198.8975 263.430666 
L 200.642955 263.554217 
L 202.388409 262.929044 
L 204.133864 264.224849 
L 205.879318 263.153548 
L 207.624773 263.591387 
L 209.370227 264.144226 
L 211.115682 262.569471 
L 212.861136 264.330426 
L 214.606591 264.314371 
L 216.352045 263.870424 
L 218.0975 263.846255 
L 221.588409 262.597044 
L 223.333864 262.853569 
L 225.079318 264.139515 
L 226.824773 264.236279 
L 228.570227 262.597916 
L 230.315682 263.035057 
L 232.061136 260.827625 
L 233.806591 263.083745 
L 235.552045 262.914036 
L 237.2975 263.811266 
L 239.042955 264.045804 
L 240.788409 262.890303 
L 242.533864 261.41397 
L 244.279318 251.405358 
L 246.024773 263.83753 
L 247.770227 263.753155 
L 249.515682 264.552225 
L 251.261136 262.808634 
L 253.006591 260.228541 
L 254.752045 262.856536 
L 256.4975 263.405973 
L 258.242955 264.169966 
L 259.988409 251.404922 
L 261.733864 261.617359 
L 263.479318 264.316378 
L 265.224773 263.251272 
L 268.715682 264.118138 
L 272.206591 264.423875 
L 273.952045 262.243753 
L 275.6975 262.255969 
L 277.442955 261.718748 
L 279.188409 264.397088 
L 280.933864 262.138874 
L 282.679318 264.447869 
L 284.424773 263.026332 
L 286.170227 263.557445 
L 287.915682 263.322296 
L 289.661136 264.385134 
L 293.152045 264.01989 
L 294.8975 262.867443 
L 296.642955 263.576117 
L 300.133864 263.809783 
L 301.879318 261.534206 
L 303.624773 264.421257 
L 305.370227 262.441732 
L 307.115682 264.190471 
L 308.861136 264.017709 
L 310.606591 261.577658 
L 312.352045 263.204853 
L 314.0975 264.407296 
L 315.842955 263.32029 
L 317.588409 264.172148 
L 319.333864 264.344299 
L 322.824773 263.763189 
L 324.570227 262.002671 
L 326.315682 263.912132 
L 328.061136 263.199007 
L 329.806591 264.076779 
L 331.552045 262.80305 
L 333.2975 263.450298 
L 335.042955 264.255649 
L 336.788409 264.213855 
L 338.533864 263.613026 
L 340.279318 262.69215 
L 342.024773 262.981134 
L 343.770227 263.834127 
L 345.515682 263.880807 
L 347.261136 262.867879 
L 349.006591 260.821256 
L 350.752045 263.161313 
L 352.4975 264.199894 
L 355.988409 264.106533 
L 357.733864 263.585715 
L 359.479318 260.031784 
L 361.224773 263.641732 
L 362.970227 263.719388 
L 368.206591 264.51488 
L 369.952045 262.233021 
L 371.6975 264.098942 
L 373.442955 264.520464 
L 375.188409 264.261583 
L 376.933864 263.399429 
L 378.679318 263.790064 
L 380.424773 264.009856 
L 382.170227 263.199007 
L 383.915682 264.353461 
L 385.661136 260.718471 
L 387.406591 264.09327 
L 389.152045 262.856449 
L 390.8975 264.43705 
L 392.642955 263.014465 
L 394.388409 262.231974 
L 396.133864 264.346219 
L 397.879318 263.523503 
L 399.624773 263.156078 
L 399.624773 263.156078 
" style="fill:none;stroke:#d62728;stroke-linecap:square;stroke-width:1.5;"/>
   </g>
   <g id="line2d_19">
    <path clip-path="url(#p73e0a9b49c)" d="M 74.970227 264.352763 
L 76.715682 264.090914 
L 78.461136 262.575754 
L 80.206591 264.364717 
L 81.952045 262.438067 
L 83.6975 264.02242 
L 85.442955 222.476476 
L 87.188409 263.368279 
L 88.933864 264.234272 
L 90.679318 264.22895 
L 92.424773 264.509732 
L 94.170227 264.05898 
L 95.915682 264.291685 
L 97.661136 262.890042 
L 99.406591 264.388013 
L 101.152045 264.108627 
L 102.8975 264.137421 
L 104.642955 264.304511 
L 106.388409 264.146582 
L 108.133864 264.400054 
L 109.879318 263.44227 
L 111.624773 263.598018 
L 113.370227 264.269959 
L 115.115682 263.342714 
L 116.861136 263.526819 
L 118.606591 263.550116 
L 120.352045 263.319243 
L 122.0975 264.063866 
L 125.588409 263.658659 
L 127.333864 264.322311 
L 129.079318 263.772526 
L 130.824773 263.501516 
L 132.570227 263.977572 
L 134.315682 263.727328 
L 137.806591 264.121017 
L 139.552045 263.757256 
L 141.2975 264.39543 
L 143.042955 261.789074 
L 144.788409 255.278725 
L 146.533864 259.963901 
L 148.279318 263.963262 
L 150.024773 264.043797 
L 151.770227 264.456333 
L 153.515682 263.509717 
L 155.261136 263.744692 
L 157.006591 264.379113 
L 158.752045 264.132622 
L 160.4975 263.716945 
L 162.242955 264.042227 
L 163.988409 264.181047 
L 165.733864 264.115258 
L 167.479318 264.223278 
L 169.224773 263.821911 
L 172.715682 264.408867 
L 174.461136 263.6707 
L 176.206591 264.024514 
L 177.952045 264.1403 
L 179.6975 264.107318 
L 181.442955 264.331037 
L 183.188409 264.078001 
L 184.933864 263.12711 
L 188.424773 264.30329 
L 190.170227 263.389569 
L 191.915682 264.435654 
L 193.661136 264.268825 
L 195.406591 263.700192 
L 197.152045 264.099029 
L 198.8975 263.977746 
L 200.642955 263.523765 
L 202.388409 263.900003 
L 204.133864 263.997204 
L 205.879318 262.956965 
L 207.624773 262.693633 
L 209.370227 264.190645 
L 211.115682 264.161066 
L 212.861136 263.745739 
L 214.606591 264.221533 
L 216.352045 263.736577 
L 218.0975 263.936475 
L 219.842955 263.579084 
L 221.588409 263.338875 
L 223.333864 263.942321 
L 225.079318 263.460681 
L 226.824773 264.403021 
L 228.570227 263.507013 
L 230.315682 264.216734 
L 232.061136 258.748631 
L 233.806591 262.41224 
L 235.552045 264.031146 
L 237.2975 263.67707 
L 239.042955 264.268563 
L 240.788409 261.842386 
L 242.533864 258.553619 
L 244.279318 258.170139 
L 246.024773 264.169443 
L 247.770227 263.895466 
L 249.515682 264.552312 
L 251.261136 260.539863 
L 253.006591 259.522572 
L 254.752045 262.720595 
L 256.4975 263.609274 
L 258.242955 264.212197 
L 259.988409 256.321669 
L 261.733864 260.850486 
L 263.479318 264.427714 
L 265.224773 264.177208 
L 266.970227 263.667559 
L 270.461136 264.446037 
L 272.206591 264.476663 
L 273.952045 264.266992 
L 275.6975 259.545519 
L 277.442955 263.966403 
L 279.188409 264.47169 
L 280.933864 263.752544 
L 282.679318 264.098156 
L 284.424773 263.133828 
L 286.170227 264.283832 
L 289.661136 264.384959 
L 291.406591 263.195953 
L 293.152045 263.777586 
L 294.8975 264.16953 
L 296.642955 262.841092 
L 298.388409 264.219439 
L 300.133864 263.546538 
L 301.879318 264.151992 
L 303.624773 264.442547 
L 305.370227 262.789176 
L 307.115682 263.933945 
L 308.861136 263.184087 
L 310.606591 263.488776 
L 312.352045 264.182095 
L 314.0975 264.416196 
L 315.842955 263.867894 
L 317.588409 263.479091 
L 319.333864 264.325278 
L 321.079318 263.734396 
L 322.824773 264.189773 
L 324.570227 263.810045 
L 328.061136 264.092747 
L 329.806591 263.73361 
L 331.552045 261.602438 
L 333.2975 263.134177 
L 335.042955 264.422304 
L 336.788409 264.344299 
L 340.279318 263.424296 
L 342.024773 263.733087 
L 343.770227 264.186719 
L 345.515682 263.757256 
L 347.261136 264.129132 
L 349.006591 263.705078 
L 352.4975 264.306257 
L 355.988409 263.490173 
L 357.733864 263.693474 
L 359.479318 261.973703 
L 361.224773 264.168396 
L 364.715682 263.30947 
L 366.461136 263.396724 
L 368.206591 264.232353 
L 369.952045 262.625575 
L 371.6975 264.064302 
L 373.442955 264.300847 
L 375.188409 264.417418 
L 376.933864 263.676983 
L 378.679318 263.867021 
L 382.170227 263.636497 
L 383.915682 264.283483 
L 385.661136 261.484733 
L 387.406591 264.453279 
L 390.8975 264.374663 
L 392.642955 263.107827 
L 394.388409 262.345229 
L 396.133864 264.193699 
L 397.879318 263.922515 
L 399.624773 263.159045 
L 399.624773 263.159045 
" style="fill:none;stroke:#9467bd;stroke-linecap:square;stroke-width:1.5;"/>
   </g>
   <g id="line2d_20">
    <path clip-path="url(#p73e0a9b49c)" d="M 74.970227 264.407558 
L 76.715682 264.095975 
L 78.461136 262.932447 
L 80.206591 264.290813 
L 81.952045 263.508932 
L 83.6975 263.473333 
L 85.442955 241.846888 
L 87.188409 264.140562 
L 88.933864 264.424573 
L 90.679318 263.613549 
L 92.424773 264.41768 
L 94.170227 263.873565 
L 95.915682 264.199633 
L 97.661136 262.486493 
L 99.406591 264.439318 
L 101.152045 264.271879 
L 102.8975 263.761357 
L 104.642955 262.551235 
L 106.388409 264.402759 
L 108.133864 264.330339 
L 109.879318 262.717366 
L 111.624773 263.722704 
L 113.370227 263.640511 
L 115.115682 263.420021 
L 116.861136 263.569573 
L 118.606591 262.34235 
L 120.352045 263.054166 
L 122.0975 263.069959 
L 123.842955 263.724711 
L 125.588409 263.90646 
L 127.333864 264.476489 
L 129.079318 263.882029 
L 130.824773 263.782822 
L 132.570227 264.272053 
L 134.315682 262.517555 
L 136.061136 263.609536 
L 137.806591 262.880182 
L 139.552045 263.042125 
L 141.2975 264.134978 
L 143.042955 263.266367 
L 144.788409 260.911825 
L 146.533864 261.71805 
L 148.279318 263.648364 
L 150.024773 263.629517 
L 151.770227 264.28837 
L 153.515682 264.099029 
L 155.261136 263.031305 
L 157.006591 264.251461 
L 158.752045 263.874787 
L 160.4975 263.019526 
L 162.242955 263.80446 
L 163.988409 263.396724 
L 165.733864 263.576379 
L 167.479318 264.335138 
L 169.224773 263.639027 
L 170.970227 263.699145 
L 172.715682 264.378066 
L 176.206591 263.795386 
L 177.952045 264.344037 
L 179.6975 263.124056 
L 183.188409 263.798876 
L 186.679318 263.909252 
L 188.424773 264.264288 
L 191.915682 263.186791 
L 193.661136 263.628208 
L 195.406591 263.815367 
L 197.152045 263.84102 
L 198.8975 263.676634 
L 200.642955 262.67374 
L 202.388409 263.746698 
L 204.133864 264.141347 
L 205.879318 263.070482 
L 207.624773 262.679673 
L 209.370227 263.697924 
L 211.115682 263.583883 
L 212.861136 263.30406 
L 216.352045 263.717119 
L 218.0975 263.587809 
L 219.842955 263.718254 
L 221.588409 261.400446 
L 223.333864 263.626899 
L 225.079318 263.290885 
L 226.824773 264.367945 
L 228.570227 263.861786 
L 230.315682 264.168919 
L 232.061136 263.085926 
L 233.806591 263.145084 
L 235.552045 263.619832 
L 237.2975 263.469755 
L 239.042955 264.17747 
L 240.788409 262.895102 
L 244.279318 261.503493 
L 246.024773 264.232789 
L 247.770227 263.971551 
L 249.515682 264.552312 
L 251.261136 258.990411 
L 253.006591 260.030301 
L 254.752045 262.930963 
L 256.4975 263.199094 
L 258.242955 264.278335 
L 259.988409 259.555815 
L 261.733864 263.063153 
L 263.479318 264.431466 
L 265.224773 263.82959 
L 266.970227 263.835785 
L 268.715682 264.050603 
L 270.461136 264.497255 
L 272.206591 264.502926 
L 273.952045 264.273711 
L 275.6975 262.987766 
L 277.442955 261.894738 
L 279.188409 264.487221 
L 280.933864 263.698622 
L 282.679318 264.302679 
L 284.424773 263.814233 
L 286.170227 264.286624 
L 287.915682 263.820166 
L 289.661136 264.289417 
L 291.406591 264.170141 
L 293.152045 264.163771 
L 296.642955 263.613724 
L 298.388409 264.328594 
L 300.133864 262.204925 
L 301.879318 263.579608 
L 303.624773 264.289417 
L 305.370227 263.62402 
L 307.115682 263.917803 
L 308.861136 263.818159 
L 310.606591 263.402919 
L 312.352045 263.718079 
L 314.0975 264.375187 
L 315.842955 263.668955 
L 319.333864 264.247273 
L 321.079318 263.238184 
L 322.824773 264.236017 
L 324.570227 264.181222 
L 326.315682 263.283905 
L 328.061136 263.81781 
L 329.806591 263.007485 
L 331.552045 263.074147 
L 333.2975 262.323678 
L 335.042955 264.304773 
L 336.788409 264.449091 
L 338.533864 263.72567 
L 340.279318 262.712306 
L 342.024773 263.647491 
L 343.770227 264.161154 
L 345.515682 263.774881 
L 347.261136 261.900846 
L 349.006591 263.806642 
L 350.752045 263.786748 
L 352.4975 264.177121 
L 354.242955 263.554479 
L 355.988409 263.494797 
L 357.733864 263.671311 
L 359.479318 263.976176 
L 361.224773 263.621577 
L 362.970227 263.753592 
L 366.461136 263.304933 
L 368.206591 264.397698 
L 369.952045 263.744081 
L 371.6975 264.22162 
L 373.442955 264.459387 
L 375.188409 263.713804 
L 376.933864 263.902708 
L 378.679318 263.714851 
L 380.424773 263.222304 
L 382.170227 263.868941 
L 383.915682 264.287759 
L 385.661136 262.828877 
L 387.406591 264.45485 
L 389.152045 264.225198 
L 390.8975 264.353025 
L 392.642955 263.771391 
L 394.388409 263.569399 
L 396.133864 264.154261 
L 397.879318 262.818144 
L 399.624773 263.001988 
L 399.624773 263.001988 
" style="fill:none;stroke:#8c564b;stroke-linecap:square;stroke-width:1.5;"/>
   </g>
   <g id="line2d_21">
    <path clip-path="url(#p73e0a9b49c)" d="M 74.970227 264.422566 
L 76.715682 263.893285 
L 78.461136 263.715811 
L 80.206591 264.424834 
L 81.952045 264.09868 
L 83.6975 263.607005 
L 85.442955 258.834663 
L 87.188409 264.105486 
L 88.933864 264.394906 
L 90.679318 263.961866 
L 92.424773 264.454239 
L 94.170227 264.093183 
L 95.915682 264.223191 
L 97.661136 263.608401 
L 99.406591 264.492281 
L 101.152045 264.466018 
L 102.8975 263.882291 
L 108.133864 264.386792 
L 109.879318 263.365574 
L 113.370227 263.651156 
L 115.115682 263.571842 
L 116.861136 263.985599 
L 118.606591 263.22274 
L 120.352045 263.714415 
L 122.0975 263.203108 
L 123.842955 263.871471 
L 125.588409 263.65482 
L 127.333864 264.5168 
L 129.079318 263.976961 
L 130.824773 263.907594 
L 132.570227 264.416545 
L 134.315682 263.559801 
L 137.806591 263.831945 
L 139.552045 263.500294 
L 141.2975 264.459474 
L 143.042955 263.375172 
L 144.788409 262.884545 
L 146.533864 263.215236 
L 148.279318 264.299974 
L 150.024773 263.489998 
L 151.770227 264.2731 
L 153.515682 263.826885 
L 155.261136 263.092121 
L 157.006591 264.44848 
L 158.752045 263.701501 
L 160.4975 264.263328 
L 162.242955 263.806904 
L 163.988409 263.999036 
L 165.733864 263.783083 
L 167.479318 264.438882 
L 169.224773 263.464345 
L 170.970227 264.210539 
L 172.715682 264.196753 
L 174.461136 263.565734 
L 177.952045 264.308263 
L 179.6975 263.952966 
L 183.188409 263.604649 
L 184.933864 262.736213 
L 186.679318 263.689722 
L 188.424773 264.270046 
L 190.170227 264.102257 
L 191.915682 263.738846 
L 193.661136 264.082189 
L 195.406591 264.009943 
L 197.152045 263.752719 
L 198.8975 263.94206 
L 200.642955 263.600723 
L 202.388409 262.718937 
L 204.133864 264.441325 
L 205.879318 264.035508 
L 207.624773 263.889707 
L 209.370227 263.090551 
L 211.115682 264.035508 
L 212.861136 264.245441 
L 214.606591 264.275543 
L 216.352045 264.093619 
L 218.0975 263.725321 
L 219.842955 263.927488 
L 221.588409 262.007296 
L 223.333864 264.021897 
L 225.079318 264.015702 
L 226.824773 264.346742 
L 228.570227 263.485199 
L 230.315682 264.318385 
L 232.061136 263.376219 
L 233.806591 263.784567 
L 235.552045 263.35013 
L 237.2975 264.121366 
L 239.042955 264.297706 
L 240.788409 263.351177 
L 242.533864 262.977819 
L 244.279318 264.12154 
L 246.024773 264.432774 
L 247.770227 264.38906 
L 249.515682 264.552312 
L 251.261136 261.062861 
L 253.006591 263.643826 
L 254.752045 263.537639 
L 256.4975 263.827321 
L 258.242955 264.472039 
L 259.988409 262.107463 
L 261.733864 264.189424 
L 263.479318 264.528143 
L 266.970227 264.377979 
L 268.715682 264.348836 
L 270.461136 264.523867 
L 273.952045 264.451185 
L 275.6975 263.959423 
L 277.442955 263.794863 
L 279.188409 264.532854 
L 280.933864 263.499596 
L 282.679318 264.386879 
L 284.424773 263.889533 
L 286.170227 264.296833 
L 291.406591 264.388275 
L 294.8975 264.211586 
L 296.642955 264.38304 
L 298.388409 264.371261 
L 300.133864 263.455271 
L 301.879318 264.101996 
L 303.624773 264.411572 
L 305.370227 263.861524 
L 307.115682 264.302417 
L 310.606591 263.977048 
L 312.352045 263.381454 
L 314.0975 264.387141 
L 315.842955 263.956456 
L 317.588409 264.173805 
L 319.333864 264.207049 
L 321.079318 264.081753 
L 322.824773 264.27659 
L 324.570227 262.906707 
L 326.315682 263.396288 
L 328.061136 263.190282 
L 329.806591 263.726805 
L 331.552045 263.747047 
L 333.2975 264.325278 
L 335.042955 264.503712 
L 336.788409 264.516102 
L 338.533864 263.891889 
L 340.279318 263.954101 
L 342.024773 264.203559 
L 343.770227 263.648713 
L 345.515682 264.124245 
L 347.261136 263.958987 
L 349.006591 264.069537 
L 350.752045 262.879658 
L 352.4975 264.447433 
L 354.242955 263.933509 
L 355.988409 263.875659 
L 357.733864 262.988987 
L 359.479318 263.848175 
L 361.224773 263.860652 
L 362.970227 264.113077 
L 364.715682 263.763102 
L 366.461136 263.701414 
L 368.206591 264.492194 
L 369.952045 263.583185 
L 371.6975 264.381557 
L 373.442955 264.502926 
L 378.679318 263.867632 
L 380.424773 264.233312 
L 382.170227 263.717468 
L 383.915682 264.379201 
L 385.661136 262.933494 
L 387.406591 264.382604 
L 390.8975 264.403893 
L 394.388409 263.712582 
L 396.133864 264.28898 
L 397.879318 264.021199 
L 399.624773 263.486159 
L 399.624773 263.486159 
" style="fill:none;stroke:#e377c2;stroke-linecap:square;stroke-width:1.5;"/>
   </g>
   <g id="line2d_22">
    <path clip-path="url(#p73e0a9b49c)" d="M 74.970227 264.440453 
L 76.715682 264.288457 
L 78.461136 263.85786 
L 80.206591 264.44054 
L 83.6975 263.845382 
L 85.442955 262.556383 
L 87.188409 264.388711 
L 88.933864 264.488879 
L 90.679318 264.100512 
L 92.424773 264.489315 
L 94.170227 264.270395 
L 95.915682 264.409827 
L 97.661136 264.016574 
L 99.406591 264.51776 
L 101.152045 264.501269 
L 102.8975 264.046153 
L 104.642955 263.99162 
L 106.388409 264.390631 
L 108.133864 264.487134 
L 109.879318 264.373267 
L 113.370227 263.962739 
L 115.115682 264.049294 
L 116.861136 263.812837 
L 118.606591 263.79399 
L 120.352045 264.269348 
L 122.0975 264.407035 
L 123.842955 263.573674 
L 127.333864 264.526485 
L 129.079318 263.862746 
L 132.570227 264.449178 
L 136.061136 264.199371 
L 137.806591 263.610059 
L 139.552045 264.25818 
L 141.2975 264.446386 
L 143.042955 264.086813 
L 144.788409 263.551425 
L 146.533864 263.767029 
L 148.279318 264.234447 
L 150.024773 264.233051 
L 151.770227 264.430768 
L 153.515682 264.119272 
L 157.006591 264.465931 
L 160.4975 264.277201 
L 162.242955 264.237152 
L 163.988409 263.954537 
L 165.733864 264.273362 
L 167.479318 264.409827 
L 169.224773 264.258703 
L 170.970227 263.618697 
L 172.715682 264.401538 
L 174.461136 264.021984 
L 177.952045 264.339936 
L 179.6975 263.631524 
L 181.442955 264.324056 
L 183.188409 263.978968 
L 184.933864 263.913266 
L 186.679318 264.173544 
L 188.424773 264.300934 
L 190.170227 264.088384 
L 191.915682 264.267167 
L 193.661136 264.247622 
L 195.406591 263.827495 
L 197.152045 264.028092 
L 198.8975 263.967887 
L 200.642955 264.279208 
L 202.388409 264.140474 
L 204.133864 264.472998 
L 205.879318 263.953141 
L 207.624773 264.171711 
L 209.370227 264.171275 
L 211.115682 263.952966 
L 212.861136 264.131749 
L 214.606591 264.164382 
L 216.352045 263.746 
L 219.842955 263.831422 
L 221.588409 263.951483 
L 223.333864 264.235581 
L 225.079318 264.126165 
L 226.824773 264.467763 
L 228.570227 264.234098 
L 233.806591 264.305035 
L 235.552045 264.313411 
L 237.2975 263.954886 
L 239.042955 264.502665 
L 240.788409 264.079833 
L 242.533864 263.782211 
L 246.024773 264.483469 
L 249.515682 264.552312 
L 251.261136 263.510503 
L 253.006591 263.922951 
L 254.752045 263.724798 
L 256.4975 263.809085 
L 258.242955 264.503363 
L 259.988409 262.967697 
L 261.733864 264.405377 
L 263.479318 264.48914 
L 265.224773 264.068577 
L 266.970227 264.104875 
L 268.715682 264.43356 
L 272.206591 264.456769 
L 273.952045 264.204431 
L 275.6975 263.210088 
L 277.442955 263.048232 
L 279.188409 264.498476 
L 280.933864 263.552123 
L 282.679318 264.316378 
L 284.424773 263.375347 
L 286.170227 264.308002 
L 289.661136 264.491583 
L 291.406591 264.290813 
L 293.152045 264.397873 
L 294.8975 263.928273 
L 296.642955 264.330251 
L 298.388409 264.40145 
L 300.133864 263.517919 
L 301.879318 263.830288 
L 303.624773 264.386094 
L 305.370227 264.063604 
L 307.115682 264.14728 
L 308.861136 263.858994 
L 310.606591 264.018145 
L 312.352045 263.537028 
L 314.0975 264.453105 
L 315.842955 263.908292 
L 317.588409 263.88264 
L 319.333864 264.357213 
L 321.079318 264.112641 
L 322.824773 264.386094 
L 324.570227 263.997029 
L 326.315682 263.912742 
L 328.061136 264.080357 
L 329.806591 264.107493 
L 331.552045 264.280953 
L 333.2975 264.274758 
L 335.042955 264.522471 
L 336.788409 264.525525 
L 340.279318 264.03228 
L 342.024773 264.154522 
L 343.770227 263.692514 
L 345.515682 264.25277 
L 347.261136 264.037166 
L 349.006591 264.254166 
L 352.4975 264.501181 
L 354.242955 264.038475 
L 355.988409 263.717119 
L 359.479318 264.316552 
L 361.224773 264.236017 
L 362.970227 264.38461 
L 364.715682 264.233138 
L 366.461136 263.748007 
L 368.206591 264.458253 
L 369.952045 263.959947 
L 371.6975 264.444728 
L 373.442955 264.518894 
L 375.188409 264.476925 
L 376.933864 264.170839 
L 382.170227 263.849396 
L 383.915682 264.477623 
L 385.661136 263.338351 
L 387.406591 264.516713 
L 390.8975 264.431378 
L 392.642955 264.189511 
L 394.388409 264.215164 
L 396.133864 264.487919 
L 399.624773 264.286101 
L 399.624773 264.286101 
" style="fill:none;stroke:#7f7f7f;stroke-linecap:square;stroke-width:1.5;"/>
   </g>
   <g id="line2d_23">
    <path clip-path="url(#p73e0a9b49c)" d="M 74.970227 264.552399 
L 127.333864 264.547077 
L 399.624773 264.547949 
L 399.624773 264.547949 
" style="fill:none;stroke:#bcbd22;stroke-linecap:square;stroke-width:1.5;"/>
   </g>
   <g id="line2d_24">
    <path clip-path="url(#p73e0a9b49c)" d="M 74.970227 264.552399 
L 109.879318 264.548211 
L 258.242955 264.546902 
L 399.624773 264.549345 
L 399.624773 264.549345 
" style="fill:none;stroke:#17becf;stroke-linecap:square;stroke-width:1.5;"/>
   </g>
   <g id="line2d_25">
    <path clip-path="url(#p73e0a9b49c)" d="M 74.970227 264.54603 
L 106.388409 264.547949 
L 177.952045 264.548647 
L 198.8975 264.537915 
L 216.352045 264.549433 
L 230.315682 264.5476 
L 242.533864 264.553446 
L 244.279318 264.447695 
L 246.024773 264.580757 
L 251.261136 264.566622 
L 253.006591 264.716 
L 256.4975 264.497517 
L 258.242955 264.399444 
L 263.479318 264.560078 
L 286.170227 264.527968 
L 303.624773 264.551876 
L 347.261136 264.545943 
L 399.624773 264.550043 
L 399.624773 264.550043 
" style="fill:none;stroke:#1f77b4;stroke-linecap:square;stroke-width:1.5;"/>
   </g>
   <g id="line2d_26">
    <path clip-path="url(#p73e0a9b49c)" d="M 74.970227 264.552399 
L 399.624773 264.552399 
L 399.624773 264.552399 
" style="fill:none;stroke:#ff7f0e;stroke-linecap:square;stroke-width:1.5;"/>
   </g>
   <g id="patch_3">
    <path d="M 58.7375 276.812 
L 58.7375 10.7 
" style="fill:none;stroke:#000000;stroke-linecap:square;stroke-linejoin:miter;stroke-width:0.8;"/>
   </g>
   <g id="patch_4">
    <path d="M 415.8575 276.812 
L 415.8575 10.7 
" style="fill:none;stroke:#000000;stroke-linecap:square;stroke-linejoin:miter;stroke-width:0.8;"/>
   </g>
   <g id="patch_5">
    <path d="M 58.7375 276.812 
L 415.8575 276.812 
" style="fill:none;stroke:#000000;stroke-linecap:square;stroke-linejoin:miter;stroke-width:0.8;"/>
   </g>
   <g id="patch_6">
    <path d="M 58.7375 10.7 
L 415.8575 10.7 
" style="fill:none;stroke:#000000;stroke-linecap:square;stroke-linejoin:miter;stroke-width:0.8;"/>
   </g>
   <g id="legend_1">
    <g id="patch_7">
     <path d="M 65.7375 165.48125 
L 156.090625 165.48125 
Q 158.090625 165.48125 158.090625 163.48125 
L 158.090625 17.7 
Q 158.090625 15.7 156.090625 15.7 
L 65.7375 15.7 
Q 63.7375 15.7 63.7375 17.7 
L 63.7375 163.48125 
Q 63.7375 165.48125 65.7375 165.48125 
z
" style="fill:#ffffff;opacity:0.8;stroke:#cccccc;stroke-linejoin:miter;"/>
    </g>
    <g id="line2d_27">
     <path d="M 67.7375 23.798437 
L 87.7375 23.798437 
" style="fill:none;stroke:#1f77b4;stroke-linecap:square;stroke-width:1.5;"/>
    </g>
    <g id="line2d_28"/>
    <g id="text_15">
     <!-- delta -->
     <defs>
      <path d="M 45.40625 46.390625 
L 45.40625 75.984375 
L 54.390625 75.984375 
L 54.390625 0 
L 45.40625 0 
L 45.40625 8.203125 
Q 42.578125 3.328125 38.25 0.953125 
Q 33.9375 -1.421875 27.875 -1.421875 
Q 17.96875 -1.421875 11.734375 6.484375 
Q 5.515625 14.40625 5.515625 27.296875 
Q 5.515625 40.1875 11.734375 48.09375 
Q 17.96875 56 27.875 56 
Q 33.9375 56 38.25 53.625 
Q 42.578125 51.265625 45.40625 46.390625 
M 14.796875 27.296875 
Q 14.796875 17.390625 18.875 11.75 
Q 22.953125 6.109375 30.078125 6.109375 
Q 37.203125 6.109375 41.296875 11.75 
Q 45.40625 17.390625 45.40625 27.296875 
Q 45.40625 37.203125 41.296875 42.84375 
Q 37.203125 48.484375 30.078125 48.484375 
Q 22.953125 48.484375 18.875 42.84375 
Q 14.796875 37.203125 14.796875 27.296875 
" id="DejaVuSans-64"/>
      <path d="M 56.203125 29.59375 
L 56.203125 25.203125 
L 14.890625 25.203125 
Q 15.484375 15.921875 20.484375 11.0625 
Q 25.484375 6.203125 34.421875 6.203125 
Q 39.59375 6.203125 44.453125 7.46875 
Q 49.3125 8.734375 54.109375 11.28125 
L 54.109375 2.78125 
Q 49.265625 0.734375 44.1875 -0.34375 
Q 39.109375 -1.421875 33.890625 -1.421875 
Q 20.796875 -1.421875 13.15625 6.1875 
Q 5.515625 13.8125 5.515625 26.8125 
Q 5.515625 40.234375 12.765625 48.109375 
Q 20.015625 56 32.328125 56 
Q 43.359375 56 49.78125 48.890625 
Q 56.203125 41.796875 56.203125 29.59375 
M 47.21875 32.234375 
Q 47.125 39.59375 43.09375 43.984375 
Q 39.0625 48.390625 32.421875 48.390625 
Q 24.90625 48.390625 20.390625 44.140625 
Q 15.875 39.890625 15.1875 32.171875 
z
" id="DejaVuSans-65"/>
      <path d="M 9.421875 75.984375 
L 18.40625 75.984375 
L 18.40625 0 
L 9.421875 0 
z
" id="DejaVuSans-6c"/>
      <path d="M 18.3125 70.21875 
L 18.3125 54.6875 
L 36.8125 54.6875 
L 36.8125 47.703125 
L 18.3125 47.703125 
L 18.3125 18.015625 
Q 18.3125 11.328125 20.140625 9.421875 
Q 21.96875 7.515625 27.59375 7.515625 
L 36.8125 7.515625 
L 36.8125 0 
L 27.59375 0 
Q 17.1875 0 13.234375 3.875 
Q 9.28125 7.765625 9.28125 18.015625 
L 9.28125 47.703125 
L 2.6875 47.703125 
L 2.6875 54.6875 
L 9.28125 54.6875 
L 9.28125 70.21875 
z
" id="DejaVuSans-74"/>
      <path d="M 34.28125 27.484375 
Q 23.390625 27.484375 19.1875 25 
Q 14.984375 22.515625 14.984375 16.5 
Q 14.984375 11.71875 18.140625 8.90625 
Q 21.296875 6.109375 26.703125 6.109375 
Q 34.1875 6.109375 38.703125 11.40625 
Q 43.21875 16.703125 43.21875 25.484375 
L 43.21875 27.484375 
z
M 52.203125 31.203125 
L 52.203125 0 
L 43.21875 0 
L 43.21875 8.296875 
Q 40.140625 3.328125 35.546875 0.953125 
Q 30.953125 -1.421875 24.3125 -1.421875 
Q 15.921875 -1.421875 10.953125 3.296875 
Q 6 8.015625 6 15.921875 
Q 6 25.140625 12.171875 29.828125 
Q 18.359375 34.515625 30.609375 34.515625 
L 43.21875 34.515625 
L 43.21875 35.40625 
Q 43.21875 41.609375 39.140625 45 
Q 35.0625 48.390625 27.6875 48.390625 
Q 23 48.390625 18.546875 47.265625 
Q 14.109375 46.140625 10.015625 43.890625 
L 10.015625 52.203125 
Q 14.9375 54.109375 19.578125 55.046875 
Q 24.21875 56 28.609375 56 
Q 40.484375 56 46.34375 49.84375 
Q 52.203125 43.703125 52.203125 31.203125 
" id="DejaVuSans-61"/>
     </defs>
     <g transform="translate(95.7375 27.298437)scale(0.1 -0.1)">
      <use xlink:href="#DejaVuSans-64"/>
      <use x="63.476562" xlink:href="#DejaVuSans-65"/>
      <use x="125" xlink:href="#DejaVuSans-6c"/>
      <use x="152.783203" xlink:href="#DejaVuSans-74"/>
      <use x="191.992188" xlink:href="#DejaVuSans-61"/>
     </g>
    </g>
    <g id="line2d_29">
     <path d="M 67.7375 38.476562 
L 87.7375 38.476562 
" style="fill:none;stroke:#ff7f0e;stroke-linecap:square;stroke-width:1.5;"/>
    </g>
    <g id="line2d_30"/>
    <g id="text_16">
     <!-- lowAlpha -->
     <defs>
      <path d="M 30.609375 48.390625 
Q 23.390625 48.390625 19.1875 42.75 
Q 14.984375 37.109375 14.984375 27.296875 
Q 14.984375 17.484375 19.15625 11.84375 
Q 23.34375 6.203125 30.609375 6.203125 
Q 37.796875 6.203125 41.984375 11.859375 
Q 46.1875 17.53125 46.1875 27.296875 
Q 46.1875 37.015625 41.984375 42.703125 
Q 37.796875 48.390625 30.609375 48.390625 
M 30.609375 56 
Q 42.328125 56 49.015625 48.375 
Q 55.71875 40.765625 55.71875 27.296875 
Q 55.71875 13.875 49.015625 6.21875 
Q 42.328125 -1.421875 30.609375 -1.421875 
Q 18.84375 -1.421875 12.171875 6.21875 
Q 5.515625 13.875 5.515625 27.296875 
Q 5.515625 40.765625 12.171875 48.375 
Q 18.84375 56 30.609375 56 
" id="DejaVuSans-6f"/>
      <path d="M 4.203125 54.6875 
L 13.1875 54.6875 
L 24.421875 12.015625 
L 35.59375 54.6875 
L 46.1875 54.6875 
L 57.421875 12.015625 
L 68.609375 54.6875 
L 77.59375 54.6875 
L 63.28125 0 
L 52.6875 0 
L 40.921875 44.828125 
L 29.109375 0 
L 18.5 0 
z
" id="DejaVuSans-77"/>
      <path d="M 34.1875 63.1875 
L 20.796875 26.90625 
L 47.609375 26.90625 
z
M 28.609375 72.90625 
L 39.796875 72.90625 
L 67.578125 0 
L 57.328125 0 
L 50.6875 18.703125 
L 17.828125 18.703125 
L 11.1875 0 
L 0.78125 0 
z
" id="DejaVuSans-41"/>
      <path d="M 18.109375 8.203125 
L 18.109375 -20.796875 
L 9.078125 -20.796875 
L 9.078125 54.6875 
L 18.109375 54.6875 
L 18.109375 46.390625 
Q 20.953125 51.265625 25.265625 53.625 
Q 29.59375 56 35.59375 56 
Q 45.5625 56 51.78125 48.09375 
Q 58.015625 40.1875 58.015625 27.296875 
Q 58.015625 14.40625 51.78125 6.484375 
Q 45.5625 -1.421875 35.59375 -1.421875 
Q 29.59375 -1.421875 25.265625 0.953125 
Q 20.953125 3.328125 18.109375 8.203125 
M 48.6875 27.296875 
Q 48.6875 37.203125 44.609375 42.84375 
Q 40.53125 48.484375 33.40625 48.484375 
Q 26.265625 48.484375 22.1875 42.84375 
Q 18.109375 37.203125 18.109375 27.296875 
Q 18.109375 17.390625 22.1875 11.75 
Q 26.265625 6.109375 33.40625 6.109375 
Q 40.53125 6.109375 44.609375 11.75 
Q 48.6875 17.390625 48.6875 27.296875 
" id="DejaVuSans-70"/>
      <path d="M 54.890625 33.015625 
L 54.890625 0 
L 45.90625 0 
L 45.90625 32.71875 
Q 45.90625 40.484375 42.875 44.328125 
Q 39.84375 48.1875 33.796875 48.1875 
Q 26.515625 48.1875 22.3125 43.546875 
Q 18.109375 38.921875 18.109375 30.90625 
L 18.109375 0 
L 9.078125 0 
L 9.078125 75.984375 
L 18.109375 75.984375 
L 18.109375 46.1875 
Q 21.34375 51.125 25.703125 53.5625 
Q 30.078125 56 35.796875 56 
Q 45.21875 56 50.046875 50.171875 
Q 54.890625 44.34375 54.890625 33.015625 
" id="DejaVuSans-68"/>
     </defs>
     <g transform="translate(95.7375 41.976562)scale(0.1 -0.1)">
      <use xlink:href="#DejaVuSans-6c"/>
      <use x="27.783203" xlink:href="#DejaVuSans-6f"/>
      <use x="88.964844" xlink:href="#DejaVuSans-77"/>
      <use x="170.751953" xlink:href="#DejaVuSans-41"/>
      <use x="239.160156" xlink:href="#DejaVuSans-6c"/>
      <use x="266.943359" xlink:href="#DejaVuSans-70"/>
      <use x="330.419922" xlink:href="#DejaVuSans-68"/>
      <use x="393.798828" xlink:href="#DejaVuSans-61"/>
     </g>
    </g>
    <g id="line2d_31">
     <path d="M 67.7375 53.154687 
L 87.7375 53.154687 
" style="fill:none;stroke:#2ca02c;stroke-linecap:square;stroke-width:1.5;"/>
    </g>
    <g id="line2d_32"/>
    <g id="text_17">
     <!-- highAlpha -->
     <defs>
      <path d="M 9.421875 54.6875 
L 18.40625 54.6875 
L 18.40625 0 
L 9.421875 0 
z
M 9.421875 75.984375 
L 18.40625 75.984375 
L 18.40625 64.59375 
L 9.421875 64.59375 
z
" id="DejaVuSans-69"/>
      <path d="M 45.40625 27.984375 
Q 45.40625 37.75 41.375 43.109375 
Q 37.359375 48.484375 30.078125 48.484375 
Q 22.859375 48.484375 18.828125 43.109375 
Q 14.796875 37.75 14.796875 27.984375 
Q 14.796875 18.265625 18.828125 12.890625 
Q 22.859375 7.515625 30.078125 7.515625 
Q 37.359375 7.515625 41.375 12.890625 
Q 45.40625 18.265625 45.40625 27.984375 
M 54.390625 6.78125 
Q 54.390625 -7.171875 48.1875 -13.984375 
Q 42 -20.796875 29.203125 -20.796875 
Q 24.46875 -20.796875 20.265625 -20.09375 
Q 16.0625 -19.390625 12.109375 -17.921875 
L 12.109375 -9.1875 
Q 16.0625 -11.328125 19.921875 -12.34375 
Q 23.78125 -13.375 27.78125 -13.375 
Q 36.625 -13.375 41.015625 -8.765625 
Q 45.40625 -4.15625 45.40625 5.171875 
L 45.40625 9.625 
Q 42.625 4.78125 38.28125 2.390625 
Q 33.9375 0 27.875 0 
Q 17.828125 0 11.671875 7.65625 
Q 5.515625 15.328125 5.515625 27.984375 
Q 5.515625 40.671875 11.671875 48.328125 
Q 17.828125 56 27.875 56 
Q 33.9375 56 38.28125 53.609375 
Q 42.625 51.21875 45.40625 46.390625 
L 45.40625 54.6875 
L 54.390625 54.6875 
z
" id="DejaVuSans-67"/>
     </defs>
     <g transform="translate(95.7375 56.654687)scale(0.1 -0.1)">
      <use xlink:href="#DejaVuSans-68"/>
      <use x="63.378906" xlink:href="#DejaVuSans-69"/>
      <use x="91.162109" xlink:href="#DejaVuSans-67"/>
      <use x="154.638672" xlink:href="#DejaVuSans-68"/>
      <use x="218.017578" xlink:href="#DejaVuSans-41"/>
      <use x="286.425781" xlink:href="#DejaVuSans-6c"/>
      <use x="314.208984" xlink:href="#DejaVuSans-70"/>
      <use x="377.685547" xlink:href="#DejaVuSans-68"/>
      <use x="441.064453" xlink:href="#DejaVuSans-61"/>
     </g>
    </g>
    <g id="line2d_33">
     <path d="M 67.7375 67.832812 
L 87.7375 67.832812 
" style="fill:none;stroke:#d62728;stroke-linecap:square;stroke-width:1.5;"/>
    </g>
    <g id="line2d_34"/>
    <g id="text_18">
     <!-- lowBeta -->
     <defs>
      <path d="M 19.671875 34.8125 
L 19.671875 8.109375 
L 35.5 8.109375 
Q 43.453125 8.109375 47.28125 11.40625 
Q 51.125 14.703125 51.125 21.484375 
Q 51.125 28.328125 47.28125 31.5625 
Q 43.453125 34.8125 35.5 34.8125 
z
M 19.671875 64.796875 
L 19.671875 42.828125 
L 34.28125 42.828125 
Q 41.5 42.828125 45.03125 45.53125 
Q 48.578125 48.25 48.578125 53.8125 
Q 48.578125 59.328125 45.03125 62.0625 
Q 41.5 64.796875 34.28125 64.796875 
z
M 9.8125 72.90625 
L 35.015625 72.90625 
Q 46.296875 72.90625 52.390625 68.21875 
Q 58.5 63.53125 58.5 54.890625 
Q 58.5 48.1875 55.375 44.234375 
Q 52.25 40.28125 46.1875 39.3125 
Q 53.46875 37.75 57.5 32.78125 
Q 61.53125 27.828125 61.53125 20.40625 
Q 61.53125 10.640625 54.890625 5.3125 
Q 48.25 0 35.984375 0 
L 9.8125 0 
z
" id="DejaVuSans-42"/>
     </defs>
     <g transform="translate(95.7375 71.332812)scale(0.1 -0.1)">
      <use xlink:href="#DejaVuSans-6c"/>
      <use x="27.783203" xlink:href="#DejaVuSans-6f"/>
      <use x="88.964844" xlink:href="#DejaVuSans-77"/>
      <use x="170.751953" xlink:href="#DejaVuSans-42"/>
      <use x="239.355469" xlink:href="#DejaVuSans-65"/>
      <use x="300.878906" xlink:href="#DejaVuSans-74"/>
      <use x="340.087891" xlink:href="#DejaVuSans-61"/>
     </g>
    </g>
    <g id="line2d_35">
     <path d="M 67.7375 82.510938 
L 87.7375 82.510938 
" style="fill:none;stroke:#9467bd;stroke-linecap:square;stroke-width:1.5;"/>
    </g>
    <g id="line2d_36"/>
    <g id="text_19">
     <!-- highBeta -->
     <g transform="translate(95.7375 86.010938)scale(0.1 -0.1)">
      <use xlink:href="#DejaVuSans-68"/>
      <use x="63.378906" xlink:href="#DejaVuSans-69"/>
      <use x="91.162109" xlink:href="#DejaVuSans-67"/>
      <use x="154.638672" xlink:href="#DejaVuSans-68"/>
      <use x="218.017578" xlink:href="#DejaVuSans-42"/>
      <use x="286.621094" xlink:href="#DejaVuSans-65"/>
      <use x="348.144531" xlink:href="#DejaVuSans-74"/>
      <use x="387.353516" xlink:href="#DejaVuSans-61"/>
     </g>
    </g>
    <g id="line2d_37">
     <path d="M 67.7375 97.189062 
L 87.7375 97.189062 
" style="fill:none;stroke:#8c564b;stroke-linecap:square;stroke-width:1.5;"/>
    </g>
    <g id="line2d_38"/>
    <g id="text_20">
     <!-- lowGamma -->
     <defs>
      <path d="M 59.515625 10.40625 
L 59.515625 29.984375 
L 43.40625 29.984375 
L 43.40625 38.09375 
L 69.28125 38.09375 
L 69.28125 6.78125 
Q 63.578125 2.734375 56.6875 0.65625 
Q 49.8125 -1.421875 42 -1.421875 
Q 24.90625 -1.421875 15.25 8.5625 
Q 5.609375 18.5625 5.609375 36.375 
Q 5.609375 54.25 15.25 64.234375 
Q 24.90625 74.21875 42 74.21875 
Q 49.125 74.21875 55.546875 72.453125 
Q 61.96875 70.703125 67.390625 67.28125 
L 67.390625 56.78125 
Q 61.921875 61.421875 55.765625 63.765625 
Q 49.609375 66.109375 42.828125 66.109375 
Q 29.4375 66.109375 22.71875 58.640625 
Q 16.015625 51.171875 16.015625 36.375 
Q 16.015625 21.625 22.71875 14.15625 
Q 29.4375 6.6875 42.828125 6.6875 
Q 48.046875 6.6875 52.140625 7.59375 
Q 56.25 8.5 59.515625 10.40625 
" id="DejaVuSans-47"/>
      <path d="M 52 44.1875 
Q 55.375 50.25 60.0625 53.125 
Q 64.75 56 71.09375 56 
Q 79.640625 56 84.28125 50.015625 
Q 88.921875 44.046875 88.921875 33.015625 
L 88.921875 0 
L 79.890625 0 
L 79.890625 32.71875 
Q 79.890625 40.578125 77.09375 44.375 
Q 74.3125 48.1875 68.609375 48.1875 
Q 61.625 48.1875 57.5625 43.546875 
Q 53.515625 38.921875 53.515625 30.90625 
L 53.515625 0 
L 44.484375 0 
L 44.484375 32.71875 
Q 44.484375 40.625 41.703125 44.40625 
Q 38.921875 48.1875 33.109375 48.1875 
Q 26.21875 48.1875 22.15625 43.53125 
Q 18.109375 38.875 18.109375 30.90625 
L 18.109375 0 
L 9.078125 0 
L 9.078125 54.6875 
L 18.109375 54.6875 
L 18.109375 46.1875 
Q 21.1875 51.21875 25.484375 53.609375 
Q 29.78125 56 35.6875 56 
Q 41.65625 56 45.828125 52.96875 
Q 50 49.953125 52 44.1875 
" id="DejaVuSans-6d"/>
     </defs>
     <g transform="translate(95.7375 100.689062)scale(0.1 -0.1)">
      <use xlink:href="#DejaVuSans-6c"/>
      <use x="27.783203" xlink:href="#DejaVuSans-6f"/>
      <use x="88.964844" xlink:href="#DejaVuSans-77"/>
      <use x="170.751953" xlink:href="#DejaVuSans-47"/>
      <use x="248.242188" xlink:href="#DejaVuSans-61"/>
      <use x="309.521484" xlink:href="#DejaVuSans-6d"/>
      <use x="406.933594" xlink:href="#DejaVuSans-6d"/>
      <use x="504.345703" xlink:href="#DejaVuSans-61"/>
     </g>
    </g>
    <g id="line2d_39">
     <path d="M 67.7375 111.867188 
L 87.7375 111.867188 
" style="fill:none;stroke:#e377c2;stroke-linecap:square;stroke-width:1.5;"/>
    </g>
    <g id="line2d_40"/>
    <g id="text_21">
     <!-- midGamma -->
     <g transform="translate(95.7375 115.367188)scale(0.1 -0.1)">
      <use xlink:href="#DejaVuSans-6d"/>
      <use x="97.412109" xlink:href="#DejaVuSans-69"/>
      <use x="125.195312" xlink:href="#DejaVuSans-64"/>
      <use x="188.671875" xlink:href="#DejaVuSans-47"/>
      <use x="266.162109" xlink:href="#DejaVuSans-61"/>
      <use x="327.441406" xlink:href="#DejaVuSans-6d"/>
      <use x="424.853516" xlink:href="#DejaVuSans-6d"/>
      <use x="522.265625" xlink:href="#DejaVuSans-61"/>
     </g>
    </g>
    <g id="line2d_41">
     <path d="M 67.7375 126.545312 
L 87.7375 126.545312 
" style="fill:none;stroke:#7f7f7f;stroke-linecap:square;stroke-width:1.5;"/>
    </g>
    <g id="line2d_42"/>
    <g id="text_22">
     <!-- attention -->
     <defs>
      <path d="M 54.890625 33.015625 
L 54.890625 0 
L 45.90625 0 
L 45.90625 32.71875 
Q 45.90625 40.484375 42.875 44.328125 
Q 39.84375 48.1875 33.796875 48.1875 
Q 26.515625 48.1875 22.3125 43.546875 
Q 18.109375 38.921875 18.109375 30.90625 
L 18.109375 0 
L 9.078125 0 
L 9.078125 54.6875 
L 18.109375 54.6875 
L 18.109375 46.1875 
Q 21.34375 51.125 25.703125 53.5625 
Q 30.078125 56 35.796875 56 
Q 45.21875 56 50.046875 50.171875 
Q 54.890625 44.34375 54.890625 33.015625 
" id="DejaVuSans-6e"/>
     </defs>
     <g transform="translate(95.7375 130.045312)scale(0.1 -0.1)">
      <use xlink:href="#DejaVuSans-61"/>
      <use x="61.279297" xlink:href="#DejaVuSans-74"/>
      <use x="100.488281" xlink:href="#DejaVuSans-74"/>
      <use x="139.697266" xlink:href="#DejaVuSans-65"/>
      <use x="201.220703" xlink:href="#DejaVuSans-6e"/>
      <use x="264.599609" xlink:href="#DejaVuSans-74"/>
      <use x="303.808594" xlink:href="#DejaVuSans-69"/>
      <use x="331.591797" xlink:href="#DejaVuSans-6f"/>
      <use x="392.773438" xlink:href="#DejaVuSans-6e"/>
     </g>
    </g>
    <g id="line2d_43">
     <path d="M 67.7375 141.223437 
L 87.7375 141.223437 
" style="fill:none;stroke:#bcbd22;stroke-linecap:square;stroke-width:1.5;"/>
    </g>
    <g id="line2d_44"/>
    <g id="text_23">
     <!-- meditation -->
     <g transform="translate(95.7375 144.723437)scale(0.1 -0.1)">
      <use xlink:href="#DejaVuSans-6d"/>
      <use x="97.412109" xlink:href="#DejaVuSans-65"/>
      <use x="158.935547" xlink:href="#DejaVuSans-64"/>
      <use x="222.412109" xlink:href="#DejaVuSans-69"/>
      <use x="250.195312" xlink:href="#DejaVuSans-74"/>
      <use x="289.404297" xlink:href="#DejaVuSans-61"/>
      <use x="350.683594" xlink:href="#DejaVuSans-74"/>
      <use x="389.892578" xlink:href="#DejaVuSans-69"/>
      <use x="417.675781" xlink:href="#DejaVuSans-6f"/>
      <use x="478.857422" xlink:href="#DejaVuSans-6e"/>
     </g>
    </g>
    <g id="line2d_45">
     <path d="M 67.7375 155.901562 
L 87.7375 155.901562 
" style="fill:none;stroke:#17becf;stroke-linecap:square;stroke-width:1.5;"/>
    </g>
    <g id="line2d_46"/>
    <g id="text_24">
     <!-- rawValue -->
     <defs>
      <path d="M 41.109375 46.296875 
Q 39.59375 47.171875 37.8125 47.578125 
Q 36.03125 48 33.890625 48 
Q 26.265625 48 22.1875 43.046875 
Q 18.109375 38.09375 18.109375 28.8125 
L 18.109375 0 
L 9.078125 0 
L 9.078125 54.6875 
L 18.109375 54.6875 
L 18.109375 46.1875 
Q 20.953125 51.171875 25.484375 53.578125 
Q 30.03125 56 36.53125 56 
Q 37.453125 56 38.578125 55.875 
Q 39.703125 55.765625 41.0625 55.515625 
z
" id="DejaVuSans-72"/>
      <path d="M 28.609375 0 
L 0.78125 72.90625 
L 11.078125 72.90625 
L 34.1875 11.53125 
L 57.328125 72.90625 
L 67.578125 72.90625 
L 39.796875 0 
z
" id="DejaVuSans-56"/>
      <path d="M 8.5 21.578125 
L 8.5 54.6875 
L 17.484375 54.6875 
L 17.484375 21.921875 
Q 17.484375 14.15625 20.5 10.265625 
Q 23.53125 6.390625 29.59375 6.390625 
Q 36.859375 6.390625 41.078125 11.03125 
Q 45.3125 15.671875 45.3125 23.6875 
L 45.3125 54.6875 
L 54.296875 54.6875 
L 54.296875 0 
L 45.3125 0 
L 45.3125 8.40625 
Q 42.046875 3.421875 37.71875 1 
Q 33.40625 -1.421875 27.6875 -1.421875 
Q 18.265625 -1.421875 13.375 4.4375 
Q 8.5 10.296875 8.5 21.578125 
M 31.109375 56 
z
" id="DejaVuSans-75"/>
     </defs>
     <g transform="translate(95.7375 159.401562)scale(0.1 -0.1)">
      <use xlink:href="#DejaVuSans-72"/>
      <use x="41.113281" xlink:href="#DejaVuSans-61"/>
      <use x="102.392578" xlink:href="#DejaVuSans-77"/>
      <use x="184.179688" xlink:href="#DejaVuSans-56"/>
      <use x="252.478516" xlink:href="#DejaVuSans-61"/>
      <use x="313.757812" xlink:href="#DejaVuSans-6c"/>
      <use x="341.541016" xlink:href="#DejaVuSans-75"/>
      <use x="404.919922" xlink:href="#DejaVuSans-65"/>
     </g>
    </g>
   </g>
  </g>
 </g>
 <defs>
  <clipPath id="p73e0a9b49c">
   <rect height="266.112" width="357.12" x="58.7375" y="10.7"/>
  </clipPath>
 </defs>
</svg>
