<?xml version="1.0" encoding="utf-8" standalone="no"?>
<!DOCTYPE svg PUBLIC "-//W3C//DTD SVG 1.1//EN"
  "http://www.w3.org/Graphics/SVG/1.1/DTD/svg11.dtd">
<!-- Created with matplotlib (http://matplotlib.org/) -->
<svg height="300pt" version="1.1" viewBox="0 0 426 300" width="426pt" xmlns="http://www.w3.org/2000/svg" xmlns:xlink="http://www.w3.org/1999/xlink">
 <defs>
  <style type="text/css">
*{stroke-linecap:butt;stroke-linejoin:round;}
  </style>
 </defs>
 <g id="figure_1">
  <g id="patch_1">
   <path d="M 0 300.690125 
L 426.5575 300.690125 
L 426.5575 0 
L 0 0 
z
" style="fill:#ffffff;"/>
  </g>
  <g id="axes_1">
   <g id="patch_2">
    <path d="M 58.7375 276.812 
L 415.8575 276.812 
L 415.8575 10.7 
L 58.7375 10.7 
z
" style="fill:#ffffff;"/>
   </g>
   <g id="matplotlib.axis_1">
    <g id="xtick_1">
     <g id="line2d_1">
      <defs>
       <path d="M 0 0 
L 0 3.5 
" id="mf0af49b7bc" style="stroke:#000000;stroke-width:0.8;"/>
      </defs>
      <g>
       <use style="stroke:#000000;stroke-width:0.8;" x="74.970227" xlink:href="#mf0af49b7bc" y="276.812"/>
      </g>
     </g>
     <g id="text_1">
      <!-- 0 -->
      <defs>
       <path d="M 31.78125 66.40625 
Q 24.171875 66.40625 20.328125 58.90625 
Q 16.5 51.421875 16.5 36.375 
Q 16.5 21.390625 20.328125 13.890625 
Q 24.171875 6.390625 31.78125 6.390625 
Q 39.453125 6.390625 43.28125 13.890625 
Q 47.125 21.390625 47.125 36.375 
Q 47.125 51.421875 43.28125 58.90625 
Q 39.453125 66.40625 31.78125 66.40625 
M 31.78125 74.21875 
Q 44.046875 74.21875 50.515625 64.515625 
Q 56.984375 54.828125 56.984375 36.375 
Q 56.984375 17.96875 50.515625 8.265625 
Q 44.046875 -1.421875 31.78125 -1.421875 
Q 19.53125 -1.421875 13.0625 8.265625 
Q 6.59375 17.96875 6.59375 36.375 
Q 6.59375 54.828125 13.0625 64.515625 
Q 19.53125 74.21875 31.78125 74.21875 
" id="DejaVuSans-30"/>
      </defs>
      <g transform="translate(71.788977 291.410437)scale(0.1 -0.1)">
       <use xlink:href="#DejaVuSans-30"/>
      </g>
     </g>
    </g>
    <g id="xtick_2">
     <g id="line2d_2">
      <g>
       <use style="stroke:#000000;stroke-width:0.8;" x="116.170043" xlink:href="#mf0af49b7bc" y="276.812"/>
      </g>
     </g>
     <g id="text_2">
      <!-- 25 -->
      <defs>
       <path d="M 19.1875 8.296875 
L 53.609375 8.296875 
L 53.609375 0 
L 7.328125 0 
L 7.328125 8.296875 
Q 12.9375 14.109375 22.625 23.890625 
Q 32.328125 33.6875 34.8125 36.53125 
Q 39.546875 41.84375 41.421875 45.53125 
Q 43.3125 49.21875 43.3125 52.78125 
Q 43.3125 58.59375 39.234375 62.25 
Q 35.15625 65.921875 28.609375 65.921875 
Q 23.96875 65.921875 18.8125 64.3125 
Q 13.671875 62.703125 7.8125 59.421875 
L 7.8125 69.390625 
Q 13.765625 71.78125 18.9375 73 
Q 24.125 74.21875 28.421875 74.21875 
Q 39.75 74.21875 46.484375 68.546875 
Q 53.21875 62.890625 53.21875 53.421875 
Q 53.21875 48.921875 51.53125 44.890625 
Q 49.859375 40.875 45.40625 35.40625 
Q 44.1875 33.984375 37.640625 27.21875 
Q 31.109375 20.453125 19.1875 8.296875 
" id="DejaVuSans-32"/>
       <path d="M 10.796875 72.90625 
L 49.515625 72.90625 
L 49.515625 64.59375 
L 19.828125 64.59375 
L 19.828125 46.734375 
Q 21.96875 47.46875 24.109375 47.828125 
Q 26.265625 48.1875 28.421875 48.1875 
Q 40.625 48.1875 47.75 41.5 
Q 54.890625 34.8125 54.890625 23.390625 
Q 54.890625 11.625 47.5625 5.09375 
Q 40.234375 -1.421875 26.90625 -1.421875 
Q 22.3125 -1.421875 17.546875 -0.640625 
Q 12.796875 0.140625 7.71875 1.703125 
L 7.71875 11.625 
Q 12.109375 9.234375 16.796875 8.0625 
Q 21.484375 6.890625 26.703125 6.890625 
Q 35.15625 6.890625 40.078125 11.328125 
Q 45.015625 15.765625 45.015625 23.390625 
Q 45.015625 31 40.078125 35.4375 
Q 35.15625 39.890625 26.703125 39.890625 
Q 22.75 39.890625 18.8125 39.015625 
Q 14.890625 38.140625 10.796875 36.28125 
z
" id="DejaVuSans-35"/>
      </defs>
      <g transform="translate(109.807543 291.410437)scale(0.1 -0.1)">
       <use xlink:href="#DejaVuSans-32"/>
       <use x="63.623047" xlink:href="#DejaVuSans-35"/>
      </g>
     </g>
    </g>
    <g id="xtick_3">
     <g id="line2d_3">
      <g>
       <use style="stroke:#000000;stroke-width:0.8;" x="157.369858" xlink:href="#mf0af49b7bc" y="276.812"/>
      </g>
     </g>
     <g id="text_3">
      <!-- 50 -->
      <g transform="translate(151.007358 291.410437)scale(0.1 -0.1)">
       <use xlink:href="#DejaVuSans-35"/>
       <use x="63.623047" xlink:href="#DejaVuSans-30"/>
      </g>
     </g>
    </g>
    <g id="xtick_4">
     <g id="line2d_4">
      <g>
       <use style="stroke:#000000;stroke-width:0.8;" x="198.569674" xlink:href="#mf0af49b7bc" y="276.812"/>
      </g>
     </g>
     <g id="text_4">
      <!-- 75 -->
      <defs>
       <path d="M 8.203125 72.90625 
L 55.078125 72.90625 
L 55.078125 68.703125 
L 28.609375 0 
L 18.3125 0 
L 43.21875 64.59375 
L 8.203125 64.59375 
z
" id="DejaVuSans-37"/>
      </defs>
      <g transform="translate(192.207174 291.410437)scale(0.1 -0.1)">
       <use xlink:href="#DejaVuSans-37"/>
       <use x="63.623047" xlink:href="#DejaVuSans-35"/>
      </g>
     </g>
    </g>
    <g id="xtick_5">
     <g id="line2d_5">
      <g>
       <use style="stroke:#000000;stroke-width:0.8;" x="239.769489" xlink:href="#mf0af49b7bc" y="276.812"/>
      </g>
     </g>
     <g id="text_5">
      <!-- 100 -->
      <defs>
       <path d="M 12.40625 8.296875 
L 28.515625 8.296875 
L 28.515625 63.921875 
L 10.984375 60.40625 
L 10.984375 69.390625 
L 28.421875 72.90625 
L 38.28125 72.90625 
L 38.28125 8.296875 
L 54.390625 8.296875 
L 54.390625 0 
L 12.40625 0 
z
" id="DejaVuSans-31"/>
      </defs>
      <g transform="translate(230.225739 291.410437)scale(0.1 -0.1)">
       <use xlink:href="#DejaVuSans-31"/>
       <use x="63.623047" xlink:href="#DejaVuSans-30"/>
       <use x="127.246094" xlink:href="#DejaVuSans-30"/>
      </g>
     </g>
    </g>
    <g id="xtick_6">
     <g id="line2d_6">
      <g>
       <use style="stroke:#000000;stroke-width:0.8;" x="280.969304" xlink:href="#mf0af49b7bc" y="276.812"/>
      </g>
     </g>
     <g id="text_6">
      <!-- 125 -->
      <g transform="translate(271.425554 291.410437)scale(0.1 -0.1)">
       <use xlink:href="#DejaVuSans-31"/>
       <use x="63.623047" xlink:href="#DejaVuSans-32"/>
       <use x="127.246094" xlink:href="#DejaVuSans-35"/>
      </g>
     </g>
    </g>
    <g id="xtick_7">
     <g id="line2d_7">
      <g>
       <use style="stroke:#000000;stroke-width:0.8;" x="322.16912" xlink:href="#mf0af49b7bc" y="276.812"/>
      </g>
     </g>
     <g id="text_7">
      <!-- 150 -->
      <g transform="translate(312.62537 291.410437)scale(0.1 -0.1)">
       <use xlink:href="#DejaVuSans-31"/>
       <use x="63.623047" xlink:href="#DejaVuSans-35"/>
       <use x="127.246094" xlink:href="#DejaVuSans-30"/>
      </g>
     </g>
    </g>
    <g id="xtick_8">
     <g id="line2d_8">
      <g>
       <use style="stroke:#000000;stroke-width:0.8;" x="363.368935" xlink:href="#mf0af49b7bc" y="276.812"/>
      </g>
     </g>
     <g id="text_8">
      <!-- 175 -->
      <g transform="translate(353.825185 291.410437)scale(0.1 -0.1)">
       <use xlink:href="#DejaVuSans-31"/>
       <use x="63.623047" xlink:href="#DejaVuSans-37"/>
       <use x="127.246094" xlink:href="#DejaVuSans-35"/>
      </g>
     </g>
    </g>
    <g id="xtick_9">
     <g id="line2d_9">
      <g>
       <use style="stroke:#000000;stroke-width:0.8;" x="404.568751" xlink:href="#mf0af49b7bc" y="276.812"/>
      </g>
     </g>
     <g id="text_9">
      <!-- 200 -->
      <g transform="translate(395.025001 291.410437)scale(0.1 -0.1)">
       <use xlink:href="#DejaVuSans-32"/>
       <use x="63.623047" xlink:href="#DejaVuSans-30"/>
       <use x="127.246094" xlink:href="#DejaVuSans-30"/>
      </g>
     </g>
    </g>
   </g>
   <g id="matplotlib.axis_2">
    <g id="ytick_1">
     <g id="line2d_10">
      <defs>
       <path d="M 0 0 
L -3.5 0 
" id="mbd15949c93" style="stroke:#000000;stroke-width:0.8;"/>
      </defs>
      <g>
       <use style="stroke:#000000;stroke-width:0.8;" x="58.7375" xlink:href="#mbd15949c93" y="264.557915"/>
      </g>
     </g>
     <g id="text_10">
      <!-- 0 -->
      <g transform="translate(45.375 268.357134)scale(0.1 -0.1)">
       <use xlink:href="#DejaVuSans-30"/>
      </g>
     </g>
    </g>
    <g id="ytick_2">
     <g id="line2d_11">
      <g>
       <use style="stroke:#000000;stroke-width:0.8;" x="58.7375" xlink:href="#mbd15949c93" y="225.963042"/>
      </g>
     </g>
     <g id="text_11">
      <!-- 500000 -->
      <g transform="translate(13.5625 229.762261)scale(0.1 -0.1)">
       <use xlink:href="#DejaVuSans-35"/>
       <use x="63.623047" xlink:href="#DejaVuSans-30"/>
       <use x="127.246094" xlink:href="#DejaVuSans-30"/>
       <use x="190.869141" xlink:href="#DejaVuSans-30"/>
       <use x="254.492188" xlink:href="#DejaVuSans-30"/>
       <use x="318.115234" xlink:href="#DejaVuSans-30"/>
      </g>
     </g>
    </g>
    <g id="ytick_3">
     <g id="line2d_12">
      <g>
       <use style="stroke:#000000;stroke-width:0.8;" x="58.7375" xlink:href="#mbd15949c93" y="187.368168"/>
      </g>
     </g>
     <g id="text_12">
      <!-- 1000000 -->
      <g transform="translate(7.2 191.167387)scale(0.1 -0.1)">
       <use xlink:href="#DejaVuSans-31"/>
       <use x="63.623047" xlink:href="#DejaVuSans-30"/>
       <use x="127.246094" xlink:href="#DejaVuSans-30"/>
       <use x="190.869141" xlink:href="#DejaVuSans-30"/>
       <use x="254.492188" xlink:href="#DejaVuSans-30"/>
       <use x="318.115234" xlink:href="#DejaVuSans-30"/>
       <use x="381.738281" xlink:href="#DejaVuSans-30"/>
      </g>
     </g>
    </g>
    <g id="ytick_4">
     <g id="line2d_13">
      <g>
       <use style="stroke:#000000;stroke-width:0.8;" x="58.7375" xlink:href="#mbd15949c93" y="148.773295"/>
      </g>
     </g>
     <g id="text_13">
      <!-- 1500000 -->
      <g transform="translate(7.2 152.572514)scale(0.1 -0.1)">
       <use xlink:href="#DejaVuSans-31"/>
       <use x="63.623047" xlink:href="#DejaVuSans-35"/>
       <use x="127.246094" xlink:href="#DejaVuSans-30"/>
       <use x="190.869141" xlink:href="#DejaVuSans-30"/>
       <use x="254.492188" xlink:href="#DejaVuSans-30"/>
       <use x="318.115234" xlink:href="#DejaVuSans-30"/>
       <use x="381.738281" xlink:href="#DejaVuSans-30"/>
      </g>
     </g>
    </g>
    <g id="ytick_5">
     <g id="line2d_14">
      <g>
       <use style="stroke:#000000;stroke-width:0.8;" x="58.7375" xlink:href="#mbd15949c93" y="110.178421"/>
      </g>
     </g>
     <g id="text_14">
      <!-- 2000000 -->
      <g transform="translate(7.2 113.97764)scale(0.1 -0.1)">
       <use xlink:href="#DejaVuSans-32"/>
       <use x="63.623047" xlink:href="#DejaVuSans-30"/>
       <use x="127.246094" xlink:href="#DejaVuSans-30"/>
       <use x="190.869141" xlink:href="#DejaVuSans-30"/>
       <use x="254.492188" xlink:href="#DejaVuSans-30"/>
       <use x="318.115234" xlink:href="#DejaVuSans-30"/>
       <use x="381.738281" xlink:href="#DejaVuSans-30"/>
      </g>
     </g>
    </g>
    <g id="ytick_6">
     <g id="line2d_15">
      <g>
       <use style="stroke:#000000;stroke-width:0.8;" x="58.7375" xlink:href="#mbd15949c93" y="71.583548"/>
      </g>
     </g>
     <g id="text_15">
      <!-- 2500000 -->
      <g transform="translate(7.2 75.382767)scale(0.1 -0.1)">
       <use xlink:href="#DejaVuSans-32"/>
       <use x="63.623047" xlink:href="#DejaVuSans-35"/>
       <use x="127.246094" xlink:href="#DejaVuSans-30"/>
       <use x="190.869141" xlink:href="#DejaVuSans-30"/>
       <use x="254.492188" xlink:href="#DejaVuSans-30"/>
       <use x="318.115234" xlink:href="#DejaVuSans-30"/>
       <use x="381.738281" xlink:href="#DejaVuSans-30"/>
      </g>
     </g>
    </g>
    <g id="ytick_7">
     <g id="line2d_16">
      <g>
       <use style="stroke:#000000;stroke-width:0.8;" x="58.7375" xlink:href="#mbd15949c93" y="32.988675"/>
      </g>
     </g>
     <g id="text_16">
      <!-- 3000000 -->
      <defs>
       <path d="M 40.578125 39.3125 
Q 47.65625 37.796875 51.625 33 
Q 55.609375 28.21875 55.609375 21.1875 
Q 55.609375 10.40625 48.1875 4.484375 
Q 40.765625 -1.421875 27.09375 -1.421875 
Q 22.515625 -1.421875 17.65625 -0.515625 
Q 12.796875 0.390625 7.625 2.203125 
L 7.625 11.71875 
Q 11.71875 9.328125 16.59375 8.109375 
Q 21.484375 6.890625 26.8125 6.890625 
Q 36.078125 6.890625 40.9375 10.546875 
Q 45.796875 14.203125 45.796875 21.1875 
Q 45.796875 27.640625 41.28125 31.265625 
Q 36.765625 34.90625 28.71875 34.90625 
L 20.21875 34.90625 
L 20.21875 43.015625 
L 29.109375 43.015625 
Q 36.375 43.015625 40.234375 45.921875 
Q 44.09375 48.828125 44.09375 54.296875 
Q 44.09375 59.90625 40.109375 62.90625 
Q 36.140625 65.921875 28.71875 65.921875 
Q 24.65625 65.921875 20.015625 65.03125 
Q 15.375 64.15625 9.8125 62.3125 
L 9.8125 71.09375 
Q 15.4375 72.65625 20.34375 73.4375 
Q 25.25 74.21875 29.59375 74.21875 
Q 40.828125 74.21875 47.359375 69.109375 
Q 53.90625 64.015625 53.90625 55.328125 
Q 53.90625 49.265625 50.4375 45.09375 
Q 46.96875 40.921875 40.578125 39.3125 
" id="DejaVuSans-33"/>
      </defs>
      <g transform="translate(7.2 36.787893)scale(0.1 -0.1)">
       <use xlink:href="#DejaVuSans-33"/>
       <use x="63.623047" xlink:href="#DejaVuSans-30"/>
       <use x="127.246094" xlink:href="#DejaVuSans-30"/>
       <use x="190.869141" xlink:href="#DejaVuSans-30"/>
       <use x="254.492188" xlink:href="#DejaVuSans-30"/>
       <use x="318.115234" xlink:href="#DejaVuSans-30"/>
       <use x="381.738281" xlink:href="#DejaVuSans-30"/>
      </g>
     </g>
    </g>
   </g>
   <g id="line2d_17">
    <path clip-path="url(#pb500c16110)" d="M 74.970227 194.628868 
L 76.61822 105.539626 
L 78.266213 215.692174 
L 79.914205 187.264503 
L 81.562198 180.684385 
L 83.21019 114.706449 
L 84.858183 105.230482 
L 86.506176 201.135963 
L 88.154168 249.322435 
L 89.802161 246.141059 
L 91.450153 199.537827 
L 93.098146 241.202845 
L 94.746139 79.69866 
L 96.394131 178.279153 
L 98.042124 202.727616 
L 99.690117 228.955997 
L 101.338109 118.079332 
L 102.986102 215.593526 
L 104.634094 227.408497 
L 106.282087 235.742057 
L 107.93008 252.598445 
L 109.578072 185.827615 
L 111.226065 166.561595 
L 112.874057 127.232879 
L 114.52205 203.096197 
L 116.170043 210.659017 
L 117.818035 103.762333 
L 119.466028 189.189461 
L 121.114021 243.280948 
L 122.762013 179.878216 
L 124.410006 188.664416 
L 126.057998 152.707193 
L 127.705991 203.753545 
L 129.353984 216.926979 
L 132.649969 226.057985 
L 134.297961 224.761661 
L 135.945954 89.834292 
L 137.593947 244.660483 
L 139.241939 211.940752 
L 140.889932 195.478418 
L 142.537925 264.556989 
L 144.185917 227.762489 
L 145.83391 105.000302 
L 147.481902 233.865034 
L 149.129895 192.513714 
L 150.777888 192.704604 
L 152.42588 171.051028 
L 154.073873 264.557607 
L 155.721865 264.554056 
L 157.369858 263.775366 
L 159.017851 259.894574 
L 160.665843 196.83441 
L 162.313836 243.862572 
L 163.961829 257.956571 
L 165.609821 230.514304 
L 167.257814 183.269007 
L 168.905806 171.549056 
L 170.553799 203.674502 
L 172.201792 203.176474 
L 173.849784 159.019076 
L 175.497777 207.933987 
L 177.145769 95.754977 
L 178.793762 120.176809 
L 180.441755 217.601385 
L 182.089747 243.41024 
L 183.73774 193.769746 
L 185.385733 208.120786 
L 187.033725 253.584158 
L 188.681718 198.873146 
L 190.32971 253.580761 
L 191.977703 255.044974 
L 193.625696 216.19962 
L 195.273688 129.0605 
L 196.921681 163.507119 
L 198.569674 22.796 
L 200.217666 237.271108 
L 201.865659 169.444632 
L 203.513651 219.416425 
L 205.161644 190.965133 
L 206.809637 239.796139 
L 208.457629 252.837115 
L 210.105622 194.719874 
L 211.753614 259.102684 
L 213.401607 209.966702 
L 215.0496 96.051694 
L 216.697592 256.587688 
L 218.345585 254.490288 
L 219.993578 90.287164 
L 221.64157 179.190455 
L 223.289563 127.929207 
L 224.937555 168.302224 
L 226.585548 45.041545 
L 228.233541 259.513488 
L 229.881533 202.366368 
L 231.529526 201.27475 
L 233.177518 195.019371 
L 234.825511 218.9661 
L 236.473504 182.77314 
L 238.121496 249.702517 
L 239.769489 225.368141 
L 241.417482 155.290657 
L 243.065474 227.134937 
L 244.713467 214.100213 
L 246.361459 215.889471 
L 248.009452 248.34336 
L 249.657445 186.413023 
L 251.305437 199.024438 
L 252.95343 202.174243 
L 254.601422 245.045582 
L 256.249415 254.369641 
L 257.897408 254.915295 
L 259.5454 119.506571 
L 261.193393 137.341802 
L 262.841386 99.821642 
L 264.489378 204.353155 
L 266.137371 117.540857 
L 267.785363 194.110847 
L 269.433356 255.337832 
L 271.081349 183.523887 
L 272.729341 147.272726 
L 274.377334 232.605837 
L 276.025326 131.511969 
L 277.673319 225.317813 
L 279.321312 258.948382 
L 280.969304 206.948042 
L 282.617297 228.611577 
L 284.26529 141.725717 
L 285.913282 218.894005 
L 287.561275 212.221337 
L 289.209267 186.443204 
L 290.85726 210.160525 
L 292.505253 222.311118 
L 294.153245 162.023378 
L 295.801238 254.318001 
L 297.449231 215.55578 
L 299.097223 124.408274 
L 300.745216 156.243256 
L 302.393208 177.638787 
L 304.041201 226.057445 
L 305.689194 228.470782 
L 307.337186 170.555933 
L 308.985179 96.043589 
L 310.633171 185.913373 
L 312.281164 230.237501 
L 313.929157 261.984795 
L 315.577149 261.828177 
L 317.225142 156.002732 
L 318.873135 259.781491 
L 320.521127 263.782544 
L 322.16912 197.421052 
L 323.817112 258.399717 
L 325.465105 158.449493 
L 327.113098 142.662723 
L 328.76109 60.852475 
L 330.409083 198.27508 
L 332.057075 86.056934 
L 335.353061 209.063427 
L 337.001053 264.554442 
L 338.649046 229.183089 
L 340.297039 204.537484 
L 341.945031 185.253169 
L 343.593024 178.864637 
L 345.241016 58.589426 
L 346.889009 264.528738 
L 348.537002 248.043632 
L 350.184994 208.350349 
L 351.832987 264.554982 
L 353.480979 54.560507 
L 355.128972 203.918654 
L 356.776965 191.239775 
L 358.424957 194.926897 
L 360.07295 216.622311 
L 361.720943 235.35001 
L 363.368935 194.224393 
L 365.016928 206.689766 
L 366.66492 227.775457 
L 368.312913 243.685267 
L 369.960906 182.891703 
L 371.608898 176.180441 
L 373.256891 235.23685 
L 374.904883 243.46134 
L 376.552876 171.136477 
L 378.200869 237.956167 
L 379.848861 189.991539 
L 381.496854 179.05051 
L 383.144847 200.590077 
L 384.792839 135.050193 
L 386.440832 234.862788 
L 388.088824 163.994341 
L 389.736817 219.164709 
L 391.38481 172.800765 
L 393.032802 77.767913 
L 394.680795 224.80535 
L 396.328787 254.164702 
L 397.97678 199.371483 
L 399.624773 204.442926 
L 399.624773 204.442926 
" style="fill:none;stroke:#1f77b4;stroke-linecap:square;stroke-width:1.5;"/>
   </g>
   <g id="line2d_18">
    <path clip-path="url(#pb500c16110)" d="M 74.970227 245.662792 
L 76.61822 239.930141 
L 78.266213 255.262958 
L 79.914205 249.977004 
L 81.562198 253.960998 
L 83.21019 258.524147 
L 84.858183 241.41944 
L 86.506176 241.36093 
L 88.154168 263.663904 
L 89.802161 262.491546 
L 91.450153 260.483069 
L 93.098146 263.470929 
L 94.746139 260.750145 
L 96.394131 260.727992 
L 98.042124 263.631252 
L 99.690117 258.60921 
L 101.338109 159.343968 
L 102.986102 261.666773 
L 104.634094 260.006731 
L 106.282087 263.540786 
L 107.93008 263.560624 
L 109.578072 260.197081 
L 111.226065 258.843018 
L 112.874057 213.488638 
L 114.52205 258.160969 
L 116.170043 258.681614 
L 117.818035 261.608958 
L 119.466028 235.787521 
L 121.114021 262.54473 
L 122.762013 255.718454 
L 124.410006 251.901267 
L 126.057998 259.344829 
L 127.705991 253.184624 
L 129.353984 261.24223 
L 131.001976 262.687145 
L 132.649969 256.264109 
L 134.297961 254.139306 
L 135.945954 260.422783 
L 137.593947 263.784397 
L 139.241939 215.018694 
L 140.889932 216.94589 
L 142.537925 264.557529 
L 144.185917 225.549382 
L 145.83391 206.740248 
L 147.481902 208.845521 
L 149.129895 244.028607 
L 150.777888 180.269413 
L 152.42588 252.548735 
L 154.073873 264.557915 
L 155.721865 264.557221 
L 157.369858 263.643834 
L 159.017851 263.42091 
L 160.665843 244.059869 
L 162.313836 263.029944 
L 163.961829 262.235662 
L 165.609821 258.866638 
L 167.257814 259.914026 
L 168.905806 251.38726 
L 170.553799 260.693025 
L 172.201792 251.235814 
L 173.849784 196.627079 
L 175.497777 252.509677 
L 177.145769 252.164021 
L 178.793762 54.821949 
L 180.441755 239.896023 
L 182.089747 249.472183 
L 183.73774 226.867088 
L 185.385733 233.000277 
L 187.033725 259.9977 
L 188.681718 235.841245 
L 190.32971 261.134241 
L 191.977703 259.113723 
L 193.625696 229.621527 
L 195.273688 260.262923 
L 196.921681 222.204364 
L 198.569674 229.07981 
L 200.217666 222.598186 
L 201.865659 218.828239 
L 203.513651 249.200089 
L 205.161644 254.932817 
L 206.809637 263.544568 
L 208.457629 254.743393 
L 210.105622 263.704969 
L 211.753614 262.74002 
L 213.401607 240.646384 
L 215.0496 227.316719 
L 216.697592 256.994555 
L 218.345585 250.70884 
L 219.993578 241.461354 
L 221.64157 261.317413 
L 223.289563 256.605596 
L 224.937555 245.948394 
L 226.585548 256.305096 
L 228.233541 263.194899 
L 229.881533 236.534178 
L 231.529526 261.538484 
L 233.177518 255.504484 
L 234.825511 255.714286 
L 236.473504 246.913806 
L 238.121496 260.693179 
L 239.769489 260.462536 
L 241.417482 262.687685 
L 243.065474 256.553493 
L 244.713467 252.72218 
L 246.361459 262.485139 
L 248.009452 263.726659 
L 249.657445 251.396137 
L 251.305437 171.861829 
L 252.95343 260.322128 
L 254.601422 260.902441 
L 256.249415 261.611969 
L 257.897408 259.37447 
L 259.5454 250.460752 
L 262.841386 256.691971 
L 264.489378 251.395983 
L 266.137371 243.391329 
L 267.785363 254.487741 
L 269.433356 263.389108 
L 271.081349 229.377144 
L 272.729341 259.507776 
L 274.377334 262.309069 
L 276.025326 235.852824 
L 277.673319 256.018645 
L 279.321312 261.962333 
L 280.969304 260.775232 
L 282.617297 262.516247 
L 284.26529 249.106226 
L 285.913282 252.945413 
L 287.561275 255.779125 
L 289.209267 258.990373 
L 290.85726 254.728805 
L 292.505253 260.162808 
L 294.153245 252.854406 
L 295.801238 252.050012 
L 297.449231 255.872062 
L 299.097223 261.601317 
L 300.745216 226.978859 
L 302.393208 250.417603 
L 304.041201 251.856265 
L 305.689194 263.028092 
L 307.337186 262.072406 
L 308.985179 248.207352 
L 310.633171 258.997938 
L 312.281164 262.302199 
L 313.929157 263.481118 
L 315.577149 260.9486 
L 317.225142 260.29789 
L 318.873135 260.475118 
L 320.521127 264.243213 
L 322.16912 213.242094 
L 323.817112 263.500493 
L 325.465105 172.498953 
L 327.113098 250.02957 
L 328.76109 92.2748 
L 330.409083 256.856308 
L 332.057075 259.656058 
L 333.705068 257.728089 
L 335.353061 258.878834 
L 337.001053 264.55174 
L 338.649046 263.152753 
L 340.297039 255.27168 
L 341.945031 264.209944 
L 343.593024 261.110853 
L 345.241016 233.508494 
L 346.889009 264.542941 
L 348.537002 263.17784 
L 350.184994 233.592091 
L 351.832987 264.556294 
L 353.480979 167.256843 
L 355.128972 261.287463 
L 356.776965 225.323756 
L 358.424957 247.753167 
L 360.07295 247.948071 
L 361.720943 257.74345 
L 363.368935 240.371357 
L 365.016928 170.843079 
L 366.66492 260.33718 
L 368.312913 257.318752 
L 369.960906 261.332387 
L 371.608898 251.50181 
L 373.256891 262.506135 
L 374.904883 263.250939 
L 376.552876 223.792389 
L 378.200869 262.589886 
L 379.848861 243.825676 
L 381.496854 263.44399 
L 383.144847 259.000485 
L 384.792839 255.098775 
L 386.440832 254.323558 
L 388.088824 242.130048 
L 389.736817 228.270089 
L 391.38481 256.836393 
L 393.032802 251.194749 
L 394.680795 237.667014 
L 396.328787 258.425036 
L 397.97678 251.664912 
L 399.624773 253.557991 
L 399.624773 253.557991 
" style="fill:none;stroke:#ff7f0e;stroke-linecap:square;stroke-width:1.5;"/>
   </g>
   <g id="line2d_19">
    <path clip-path="url(#pb500c16110)" d="M 74.970227 263.788642 
L 76.61822 260.721971 
L 78.266213 262.343728 
L 79.914205 264.389719 
L 81.562198 262.19205 
L 83.21019 263.192738 
L 84.858183 258.160275 
L 86.506176 261.443309 
L 88.154168 264.329588 
L 89.802161 263.474326 
L 91.450153 264.087367 
L 93.098146 264.506739 
L 94.746139 257.63662 
L 96.394131 262.914083 
L 98.042124 263.369502 
L 99.690117 262.35438 
L 101.338109 240.163099 
L 102.986102 264.372274 
L 106.282087 264.091072 
L 107.93008 264.298249 
L 109.578072 263.687601 
L 111.226065 257.041873 
L 112.874057 257.650668 
L 114.52205 264.258188 
L 116.170043 262.805168 
L 119.466028 262.582939 
L 121.114021 264.498556 
L 122.762013 261.969434 
L 124.410006 249.590206 
L 126.057998 264.043369 
L 127.705991 259.989517 
L 129.353984 262.405016 
L 131.001976 264.049698 
L 132.649969 263.114158 
L 134.297961 264.116313 
L 135.945954 262.667075 
L 137.593947 264.131828 
L 139.241939 264.124418 
L 140.889932 243.901244 
L 142.537925 264.557838 
L 144.185917 250.362412 
L 145.83391 246.765602 
L 147.481902 236.741895 
L 149.129895 255.919765 
L 150.777888 235.863862 
L 152.42588 263.22315 
L 154.073873 264.557915 
L 155.721865 264.557529 
L 157.369858 264.224687 
L 159.017851 264.11886 
L 160.665843 255.213479 
L 162.313836 263.092082 
L 163.961829 261.860828 
L 165.609821 263.169735 
L 167.257814 259.83645 
L 168.905806 261.874414 
L 170.553799 262.137091 
L 172.201792 253.957525 
L 173.849784 253.03943 
L 175.497777 261.724589 
L 177.145769 259.786122 
L 178.793762 210.021893 
L 180.441755 240.054262 
L 182.089747 259.697509 
L 183.73774 258.392384 
L 185.385733 263.129365 
L 187.033725 264.266215 
L 188.681718 258.099141 
L 190.32971 263.391887 
L 191.977703 260.124214 
L 193.625696 245.000118 
L 195.273688 262.754454 
L 196.921681 261.563571 
L 198.569674 247.125383 
L 200.217666 255.647903 
L 201.865659 254.882644 
L 203.513651 259.463932 
L 205.161644 263.336156 
L 206.809637 262.156234 
L 208.457629 261.928524 
L 210.105622 264.355601 
L 211.753614 264.014963 
L 215.0496 250.814435 
L 216.697592 264.06529 
L 218.345585 263.125814 
L 219.993578 254.853389 
L 221.64157 261.390048 
L 223.289563 262.357159 
L 224.937555 257.615392 
L 226.585548 262.053648 
L 228.233541 264.340935 
L 229.881533 262.05141 
L 231.529526 263.004317 
L 233.177518 262.366421 
L 234.825511 264.187173 
L 236.473504 263.055726 
L 238.121496 264.231866 
L 239.769489 262.355769 
L 241.417482 263.385712 
L 243.065474 261.288852 
L 244.713467 256.666962 
L 246.361459 264.105892 
L 248.009452 263.391347 
L 249.657445 263.025853 
L 251.305437 251.221688 
L 252.95343 263.513152 
L 254.601422 264.077409 
L 256.249415 264.420672 
L 259.5454 263.499412 
L 261.193393 257.339979 
L 262.841386 263.866836 
L 264.489378 262.487918 
L 266.137371 259.56891 
L 267.785363 263.386561 
L 269.433356 264.068918 
L 271.081349 252.565562 
L 272.729341 263.868379 
L 274.377334 262.788726 
L 276.025326 241.032565 
L 277.673319 258.571773 
L 280.969304 263.610411 
L 282.617297 263.390729 
L 284.26529 263.345187 
L 285.913282 261.77013 
L 287.561275 261.604636 
L 289.209267 263.810487 
L 290.85726 247.72646 
L 292.505253 263.796284 
L 294.153245 261.36226 
L 295.801238 263.93098 
L 297.449231 261.261141 
L 299.097223 257.277996 
L 300.745216 260.378322 
L 302.393208 250.165656 
L 304.041201 261.00024 
L 305.689194 262.897024 
L 307.337186 259.634908 
L 308.985179 253.707507 
L 310.633171 263.752749 
L 312.281164 263.443913 
L 313.929157 264.098559 
L 315.577149 264.258342 
L 317.225142 263.721179 
L 318.873135 260.670022 
L 320.521127 264.446917 
L 322.16912 262.181783 
L 323.817112 263.844142 
L 325.465105 262.620144 
L 327.113098 263.497791 
L 328.76109 128.153907 
L 330.409083 259.040238 
L 332.057075 262.188036 
L 333.705068 260.76952 
L 335.353061 263.625695 
L 337.001053 264.5512 
L 338.649046 264.439043 
L 340.297039 261.939716 
L 341.945031 264.028702 
L 343.593024 256.365459 
L 345.241016 261.766039 
L 346.889009 264.549502 
L 348.537002 263.779148 
L 350.184994 234.690038 
L 351.832987 264.557761 
L 353.480979 244.477389 
L 355.128972 260.864463 
L 356.776965 260.499124 
L 358.424957 261.86847 
L 360.07295 261.681362 
L 361.720943 262.535081 
L 363.368935 245.997409 
L 365.016928 231.652081 
L 366.66492 260.491945 
L 368.312913 262.916707 
L 369.960906 264.028394 
L 371.608898 262.00664 
L 373.256891 263.85078 
L 374.904883 263.613113 
L 376.552876 256.599652 
L 378.200869 264.233487 
L 379.848861 254.775273 
L 381.496854 262.09178 
L 383.144847 261.08677 
L 384.792839 256.532806 
L 386.440832 260.575465 
L 388.088824 263.010029 
L 389.736817 224.777176 
L 391.38481 261.617295 
L 393.032802 260.624249 
L 394.680795 263.449857 
L 396.328787 263.992346 
L 397.97678 260.187818 
L 399.624773 262.023236 
L 399.624773 262.023236 
" style="fill:none;stroke:#2ca02c;stroke-linecap:square;stroke-width:1.5;"/>
   </g>
   <g id="line2d_20">
    <path clip-path="url(#pb500c16110)" d="M 74.970227 261.263225 
L 76.61822 260.568132 
L 78.266213 263.056189 
L 79.914205 262.759857 
L 81.562198 259.50384 
L 83.21019 262.96881 
L 84.858183 254.862574 
L 86.506176 255.915057 
L 88.154168 264.186864 
L 89.802161 264.190029 
L 91.450153 262.585177 
L 93.098146 264.414111 
L 94.746139 261.396301 
L 96.394131 264.241437 
L 98.042124 264.180535 
L 99.690117 261.184955 
L 101.338109 200.192241 
L 102.986102 263.876021 
L 104.634094 264.104966 
L 106.282087 264.448074 
L 107.93008 264.431324 
L 109.578072 262.529755 
L 111.226065 260.152002 
L 112.874057 258.786747 
L 114.52205 264.356527 
L 116.170043 260.377627 
L 117.818035 262.600692 
L 119.466028 261.065697 
L 121.114021 264.105198 
L 122.762013 263.458888 
L 124.410006 245.894901 
L 126.057998 263.419598 
L 127.705991 261.779934 
L 129.353984 264.059887 
L 131.001976 264.33777 
L 132.649969 263.515391 
L 134.297961 261.558476 
L 135.945954 260.073654 
L 137.593947 264.552358 
L 139.241939 260.92305 
L 140.889932 259.968985 
L 142.537925 264.557838 
L 144.185917 241.301802 
L 145.83391 258.653672 
L 147.481902 235.388373 
L 149.129895 258.330555 
L 150.777888 240.867224 
L 152.42588 263.868534 
L 154.073873 264.557838 
L 155.721865 264.557915 
L 159.017851 264.22268 
L 160.665843 258.264635 
L 162.313836 263.345419 
L 163.961829 264.023917 
L 165.609821 263.92357 
L 167.257814 262.156002 
L 170.553799 261.536863 
L 172.201792 261.754307 
L 173.849784 251.711071 
L 175.497777 261.642536 
L 177.145769 260.207115 
L 178.793762 228.153147 
L 180.441755 257.934495 
L 182.089747 262.067929 
L 183.73774 262.825314 
L 185.385733 258.639237 
L 187.033725 264.091072 
L 188.681718 262.382245 
L 190.32971 263.351671 
L 191.977703 261.178471 
L 193.625696 259.270804 
L 195.273688 263.868611 
L 196.921681 263.183243 
L 198.569674 214.388517 
L 200.217666 256.862252 
L 201.865659 255.337369 
L 203.513651 262.663139 
L 205.161644 262.923963 
L 206.809637 262.875951 
L 208.457629 262.35986 
L 210.105622 264.095703 
L 211.753614 264.456179 
L 213.401607 259.921899 
L 215.0496 256.038637 
L 216.697592 263.830093 
L 218.345585 260.88708 
L 219.993578 257.24164 
L 221.64157 263.006016 
L 223.289563 263.480732 
L 224.937555 249.546285 
L 226.585548 261.700197 
L 228.233541 264.421212 
L 229.881533 245.959509 
L 231.529526 263.29154 
L 233.177518 259.888399 
L 234.825511 263.656648 
L 236.473504 262.424236 
L 238.121496 264.084511 
L 239.769489 260.620852 
L 243.065474 263.64615 
L 244.713467 256.673832 
L 246.361459 263.164023 
L 248.009452 264.479182 
L 249.657445 263.166725 
L 251.305437 249.963187 
L 252.95343 260.696884 
L 254.601422 263.956607 
L 256.249415 263.98509 
L 257.897408 264.221291 
L 259.5454 261.697727 
L 261.193393 260.023481 
L 262.841386 262.565571 
L 264.489378 261.31116 
L 266.137371 254.528266 
L 267.785363 263.381775 
L 269.433356 264.247458 
L 271.081349 261.98055 
L 272.729341 264.137154 
L 274.377334 263.332451 
L 276.025326 245.570318 
L 277.673319 260.894181 
L 279.321312 260.895493 
L 280.969304 263.580384 
L 282.617297 263.568266 
L 284.26529 262.001082 
L 285.913282 259.476592 
L 287.561275 260.5635 
L 289.209267 262.761633 
L 290.85726 249.242235 
L 292.505253 263.133379 
L 294.153245 257.955413 
L 295.801238 264.217431 
L 297.449231 257.737198 
L 299.097223 258.485707 
L 300.745216 261.122123 
L 302.393208 260.950298 
L 304.041201 257.581969 
L 305.689194 263.113464 
L 307.337186 261.39383 
L 308.985179 252.541093 
L 310.633171 263.492465 
L 312.281164 264.385705 
L 315.577149 264.310445 
L 317.225142 263.814347 
L 318.873135 262.121112 
L 320.521127 264.487364 
L 322.16912 263.439899 
L 323.817112 262.677573 
L 325.465105 258.386595 
L 327.113098 259.861614 
L 328.76109 255.378433 
L 330.409083 242.596969 
L 332.057075 263.462284 
L 333.705068 258.072896 
L 335.353061 263.191888 
L 337.001053 264.550274 
L 338.649046 263.941324 
L 340.297039 260.815602 
L 341.945031 264.021678 
L 343.593024 262.944572 
L 345.241016 263.124579 
L 346.889009 264.550968 
L 348.537002 263.562399 
L 350.184994 236.578407 
L 351.832987 264.557607 
L 353.480979 246.724151 
L 355.128972 261.410889 
L 356.776965 259.447491 
L 358.424957 262.000619 
L 360.07295 261.538484 
L 361.720943 263.249626 
L 363.368935 256.160752 
L 365.016928 252.101883 
L 366.66492 262.701888 
L 368.312913 263.503581 
L 369.960906 263.85325 
L 371.608898 262.673791 
L 373.256891 263.6761 
L 374.904883 264.200064 
L 376.552876 261.186422 
L 378.200869 264.161623 
L 379.848861 251.291931 
L 381.496854 263.417283 
L 383.144847 262.96387 
L 384.792839 259.700828 
L 388.088824 262.056119 
L 389.736817 251.008722 
L 391.38481 263.079577 
L 393.032802 260.13641 
L 394.680795 259.704456 
L 396.328787 263.77799 
L 397.97678 260.152619 
L 399.624773 260.2806 
L 399.624773 260.2806 
" style="fill:none;stroke:#d62728;stroke-linecap:square;stroke-width:1.5;"/>
   </g>
   <g id="line2d_21">
    <path clip-path="url(#pb500c16110)" d="M 74.970227 262.911767 
L 76.61822 261.648402 
L 78.266213 263.254181 
L 79.914205 263.081353 
L 81.562198 259.712252 
L 83.21019 261.6298 
L 84.858183 261.116719 
L 86.506176 259.53595 
L 88.154168 264.044295 
L 89.802161 264.206239 
L 91.450153 263.140326 
L 93.098146 264.478333 
L 94.746139 260.113021 
L 96.394131 263.77552 
L 98.042124 263.567648 
L 99.690117 262.472248 
L 101.338109 53.425432 
L 102.986102 264.094314 
L 104.634094 263.68297 
L 106.282087 264.380456 
L 107.93008 264.327581 
L 109.578072 262.49996 
L 111.226065 261.868007 
L 112.874057 223.464873 
L 114.52205 264.1705 
L 116.170043 262.180934 
L 117.818035 259.293961 
L 119.466028 248.743434 
L 121.114021 263.983083 
L 122.762013 260.655356 
L 124.410006 246.279229 
L 126.057998 264.254405 
L 127.705991 260.662921 
L 129.353984 263.299877 
L 131.001976 264.271696 
L 132.649969 262.117562 
L 134.297961 261.662219 
L 135.945954 261.800775 
L 137.593947 264.47895 
L 139.241939 261.975301 
L 140.889932 264.366562 
L 142.537925 264.557838 
L 144.185917 253.815727 
L 145.83391 251.641909 
L 147.481902 244.484799 
L 149.129895 259.910861 
L 150.777888 246.319831 
L 152.42588 264.039972 
L 154.073873 264.557838 
L 157.369858 264.50643 
L 159.017851 264.232715 
L 160.665843 262.264376 
L 162.313836 264.123955 
L 163.961829 264.100257 
L 165.609821 262.362562 
L 167.257814 258.344835 
L 168.905806 256.580201 
L 170.553799 261.787267 
L 172.201792 262.859201 
L 173.849784 261.530919 
L 175.497777 262.41644 
L 177.145769 256.87136 
L 178.793762 237.97284 
L 180.441755 248.680756 
L 182.089747 263.780152 
L 183.73774 260.241388 
L 185.385733 256.338211 
L 187.033725 264.378218 
L 188.681718 262.388806 
L 190.32971 263.866913 
L 191.977703 263.84638 
L 193.625696 252.88258 
L 195.273688 262.986795 
L 196.921681 253.171656 
L 198.569674 239.73323 
L 200.217666 211.655073 
L 201.865659 256.876455 
L 203.513651 262.16264 
L 205.161644 253.959918 
L 206.809637 263.67718 
L 210.105622 264.098405 
L 211.753614 264.428237 
L 213.401607 260.266937 
L 215.0496 257.051213 
L 216.697592 263.678956 
L 218.345585 252.08081 
L 219.993578 257.878069 
L 221.64157 263.244841 
L 223.289563 262.911227 
L 224.937555 255.079092 
L 226.585548 257.662941 
L 228.233541 264.440973 
L 229.881533 244.178201 
L 231.529526 263.497328 
L 233.177518 263.056652 
L 234.825511 263.579304 
L 236.473504 261.698962 
L 238.121496 263.651708 
L 239.769489 260.243549 
L 241.417482 263.168268 
L 243.065474 264.329588 
L 244.713467 255.245744 
L 246.361459 261.704751 
L 248.009452 264.385319 
L 249.657445 263.948348 
L 251.305437 227.98688 
L 252.95343 263.501882 
L 254.601422 263.558771 
L 256.249415 264.296319 
L 257.897408 264.124572 
L 259.5454 254.926256 
L 261.193393 261.977694 
L 262.841386 263.269619 
L 264.489378 261.341959 
L 266.137371 258.248657 
L 267.785363 263.634649 
L 269.433356 263.926889 
L 271.081349 260.008969 
L 272.729341 263.849159 
L 274.377334 263.696092 
L 276.025326 254.854469 
L 277.673319 262.063452 
L 279.321312 261.392287 
L 280.969304 263.051094 
L 282.617297 263.399297 
L 284.26529 260.406033 
L 285.913282 259.682225 
L 287.561275 261.499658 
L 289.209267 262.980543 
L 290.85726 256.319994 
L 292.505253 264.346647 
L 294.153245 256.744075 
L 295.801238 263.795358 
L 297.449231 257.802578 
L 299.097223 261.349524 
L 300.745216 261.856197 
L 302.393208 258.743443 
L 304.041201 258.642942 
L 305.689194 263.440748 
L 307.337186 262.451407 
L 308.985179 253.243442 
L 310.633171 263.703734 
L 312.281164 264.401297 
L 313.929157 264.154213 
L 315.577149 264.071234 
L 317.225142 263.511222 
L 318.873135 262.616439 
L 320.521127 264.511987 
L 322.16912 257.102158 
L 323.817112 263.826311 
L 325.465105 255.590397 
L 327.113098 260.895339 
L 328.76109 239.410345 
L 330.409083 253.479566 
L 332.057075 264.160929 
L 333.705068 259.418005 
L 335.353061 262.992276 
L 337.001053 264.550196 
L 338.649046 264.38007 
L 340.297039 257.745071 
L 341.945031 264.326732 
L 343.593024 264.199601 
L 345.241016 263.707284 
L 346.889009 264.555368 
L 348.537002 264.129204 
L 350.184994 243.070528 
L 351.832987 264.557607 
L 353.480979 253.170884 
L 355.128972 256.508028 
L 356.776965 255.821734 
L 358.424957 263.343566 
L 360.07295 263.364793 
L 361.720943 262.449014 
L 363.368935 260.815371 
L 365.016928 254.051387 
L 366.66492 262.816129 
L 368.312913 263.543488 
L 369.960906 263.587949 
L 371.608898 255.722931 
L 373.256891 264.083662 
L 374.904883 263.962319 
L 376.552876 256.780662 
L 378.200869 264.396357 
L 379.848861 260.504759 
L 381.496854 263.003082 
L 384.792839 258.499678 
L 386.440832 262.453723 
L 388.088824 263.072167 
L 389.736817 251.825235 
L 391.38481 259.428425 
L 393.032802 260.840998 
L 394.680795 255.77928 
L 396.328787 264.011721 
L 397.97678 260.250496 
L 399.624773 258.000569 
L 399.624773 258.000569 
" style="fill:none;stroke:#9467bd;stroke-linecap:square;stroke-width:1.5;"/>
   </g>
   <g id="line2d_22">
    <path clip-path="url(#pb500c16110)" d="M 74.970227 253.456332 
L 76.61822 263.247465 
L 78.266213 262.105752 
L 79.914205 259.513565 
L 81.562198 262.829328 
L 83.21019 262.981083 
L 84.858183 258.777561 
L 86.506176 259.259997 
L 88.154168 264.379607 
L 89.802161 264.10844 
L 91.450153 263.650704 
L 93.098146 264.524029 
L 94.746139 260.452116 
L 96.394131 264.205699 
L 98.042124 264.074322 
L 99.690117 260.993602 
L 101.338109 227.056743 
L 102.986102 264.329588 
L 106.282087 264.038969 
L 107.93008 264.441127 
L 109.578072 264.027004 
L 111.226065 261.816985 
L 112.874057 244.451453 
L 114.52205 264.320557 
L 116.170043 261.177004 
L 117.818035 260.569984 
L 119.466028 261.617604 
L 121.114021 264.050393 
L 122.762013 263.027088 
L 124.410006 252.895394 
L 126.057998 263.853559 
L 127.705991 261.660753 
L 129.353984 262.48236 
L 131.001976 264.367102 
L 132.649969 260.805336 
L 134.297961 260.526526 
L 135.945954 256.704013 
L 137.593947 264.395894 
L 139.241939 261.531769 
L 140.889932 263.400378 
L 142.537925 264.557915 
L 144.185917 243.58824 
L 145.83391 243.632084 
L 147.481902 252.065758 
L 149.129895 259.897893 
L 150.777888 229.363327 
L 152.42588 264.070462 
L 154.073873 264.557915 
L 155.721865 264.557838 
L 157.369858 264.429703 
L 159.017851 264.419977 
L 160.665843 262.283751 
L 162.313836 263.36325 
L 163.961829 264.228624 
L 165.609821 259.269955 
L 167.257814 254.866897 
L 168.905806 258.064868 
L 170.553799 260.086159 
L 172.201792 262.325434 
L 173.849784 256.562679 
L 175.497777 262.920026 
L 177.145769 260.045171 
L 178.793762 246.366376 
L 180.441755 249.091174 
L 182.089747 263.825385 
L 183.73774 252.649313 
L 185.385733 259.912791 
L 187.033725 264.317392 
L 188.681718 255.87075 
L 190.32971 263.350822 
L 191.977703 263.194513 
L 193.625696 248.013605 
L 195.273688 264.140782 
L 196.921681 253.878945 
L 198.569674 221.129652 
L 200.217666 241.155065 
L 201.865659 257.998639 
L 203.513651 262.556771 
L 205.161644 247.292036 
L 206.809637 262.587416 
L 208.457629 264.062048 
L 210.105622 264.373818 
L 211.753614 264.363243 
L 213.401607 263.543025 
L 215.0496 263.216744 
L 216.697592 264.309364 
L 218.345585 255.73945 
L 219.993578 257.45916 
L 221.64157 262.6318 
L 223.289563 261.413128 
L 224.937555 257.168541 
L 226.585548 261.994444 
L 228.233541 264.258419 
L 229.881533 257.801111 
L 231.529526 261.601548 
L 233.177518 262.256966 
L 234.825511 263.585788 
L 236.473504 262.047705 
L 238.121496 262.88668 
L 239.769489 259.185509 
L 241.417482 262.674949 
L 243.065474 263.415198 
L 244.713467 250.770514 
L 246.361459 262.123582 
L 248.009452 264.458495 
L 249.657445 263.416511 
L 251.305437 244.897455 
L 252.95343 260.813595 
L 254.601422 264.017356 
L 256.249415 264.150276 
L 257.897408 264.050933 
L 259.5454 260.506457 
L 261.193393 257.762748 
L 262.841386 263.514773 
L 264.489378 261.674801 
L 266.137371 261.065157 
L 267.785363 263.176682 
L 269.433356 264.15321 
L 271.081349 258.261162 
L 272.729341 263.46707 
L 274.377334 262.908525 
L 276.025326 256.27067 
L 277.673319 263.735999 
L 279.321312 261.013517 
L 280.969304 262.312697 
L 282.617297 262.628866 
L 284.26529 260.445168 
L 285.913282 262.419914 
L 287.561275 262.659665 
L 289.209267 263.48382 
L 290.85726 259.868793 
L 292.505253 263.614116 
L 294.153245 258.867256 
L 295.801238 263.961779 
L 297.449231 261.293175 
L 299.097223 262.908062 
L 300.745216 256.803742 
L 302.393208 258.913338 
L 304.041201 258.253057 
L 305.689194 263.133147 
L 307.337186 262.623618 
L 308.985179 261.789737 
L 310.633171 263.844065 
L 312.281164 264.440664 
L 313.929157 264.243676 
L 315.577149 264.41195 
L 317.225142 263.55113 
L 318.873135 262.955456 
L 320.521127 264.535299 
L 322.16912 262.411809 
L 323.817112 264.257879 
L 325.465105 256.364301 
L 327.113098 260.29928 
L 328.76109 198.10943 
L 330.409083 255.29229 
L 332.057075 263.919093 
L 333.705068 258.980107 
L 335.353061 263.266531 
L 337.001053 264.550196 
L 338.649046 264.356605 
L 340.297039 256.10587 
L 341.945031 264.237501 
L 343.593024 263.559543 
L 345.241016 263.882505 
L 346.889009 264.557529 
L 348.537002 263.447387 
L 350.184994 255.190554 
L 351.832987 264.557684 
L 353.480979 245.987683 
L 355.128972 255.716988 
L 356.776965 260.639918 
L 358.424957 264.017742 
L 360.07295 262.612039 
L 361.720943 263.245304 
L 363.368935 263.199299 
L 365.016928 255.769554 
L 366.66492 262.797912 
L 368.312913 263.450088 
L 369.960906 262.503665 
L 371.608898 255.963995 
L 373.256891 263.919942 
L 374.904883 264.321792 
L 376.552876 257.114971 
L 378.200869 264.388484 
L 379.848861 256.787224 
L 381.496854 262.140101 
L 383.144847 262.210421 
L 384.792839 258.079612 
L 386.440832 261.964494 
L 388.088824 257.149243 
L 389.736817 249.452036 
L 391.38481 254.889128 
L 393.032802 262.166654 
L 394.680795 254.045907 
L 396.328787 264.257724 
L 397.97678 260.312634 
L 399.624773 255.280866 
L 399.624773 255.280866 
" style="fill:none;stroke:#8c564b;stroke-linecap:square;stroke-width:1.5;"/>
   </g>
   <g id="line2d_23">
    <path clip-path="url(#pb500c16110)" d="M 74.970227 261.845545 
L 76.61822 262.830177 
L 78.266213 263.949969 
L 79.914205 263.887136 
L 81.562198 263.065915 
L 83.21019 264.031867 
L 84.858183 263.037586 
L 86.506176 262.342029 
L 88.154168 264.457646 
L 89.802161 264.447997 
L 91.450153 264.195278 
L 93.098146 264.546337 
L 94.746139 263.856955 
L 96.394131 264.190183 
L 98.042124 264.248385 
L 99.690117 264.10211 
L 101.338109 184.145882 
L 102.986102 264.409788 
L 104.634094 264.350738 
L 106.282087 264.060119 
L 107.93008 264.493308 
L 109.578072 264.398055 
L 111.226065 264.054407 
L 112.874057 261.931225 
L 114.52205 264.407318 
L 117.818035 263.807785 
L 119.466028 260.818921 
L 121.114021 264.398673 
L 122.762013 264.225999 
L 124.410006 258.637076 
L 126.057998 263.9211 
L 127.705991 263.161167 
L 131.001976 264.03619 
L 132.649969 264.295239 
L 134.297961 262.968347 
L 135.945954 257.078924 
L 137.593947 264.45533 
L 139.241939 261.363418 
L 140.889932 263.410258 
L 142.537925 264.557915 
L 144.185917 260.483377 
L 145.83391 255.505797 
L 147.481902 251.976681 
L 149.129895 260.729304 
L 150.777888 236.453129 
L 152.42588 264.419514 
L 154.073873 264.557915 
L 155.721865 264.557761 
L 157.369858 264.347573 
L 159.017851 264.530513 
L 160.665843 261.231037 
L 162.313836 263.6382 
L 163.961829 264.180843 
L 165.609821 262.623772 
L 167.257814 261.485223 
L 168.905806 258.142753 
L 170.553799 259.355172 
L 172.201792 261.181404 
L 173.849784 255.067822 
L 175.497777 263.781927 
L 177.145769 261.261218 
L 178.793762 257.768074 
L 180.441755 258.426657 
L 182.089747 263.978684 
L 183.73774 259.790445 
L 185.385733 263.57969 
L 187.033725 264.395431 
L 188.681718 260.350534 
L 190.32971 264.074553 
L 191.977703 263.625772 
L 193.625696 252.14673 
L 195.273688 264.18617 
L 196.921681 256.892588 
L 198.569674 243.556129 
L 200.217666 239.495099 
L 201.865659 253.957833 
L 203.513651 262.996212 
L 205.161644 252.56232 
L 206.809637 262.163567 
L 208.457629 264.336458 
L 210.105622 264.516696 
L 211.753614 264.539004 
L 213.401607 263.557613 
L 216.697592 264.153981 
L 218.345585 255.102171 
L 219.993578 252.091077 
L 221.64157 263.627933 
L 223.289563 263.992346 
L 224.937555 260.487391 
L 226.585548 262.253416 
L 228.233541 264.459962 
L 229.881533 252.13986 
L 231.529526 264.302495 
L 233.177518 264.106741 
L 234.825511 264.377369 
L 236.473504 260.96535 
L 238.121496 263.960621 
L 239.769489 260.704835 
L 241.417482 263.315624 
L 243.065474 263.879032 
L 244.713467 258.949 
L 246.361459 262.738862 
L 248.009452 264.511602 
L 249.657445 263.928124 
L 251.305437 249.690244 
L 252.95343 262.544498 
L 254.601422 264.401066 
L 256.249415 264.414574 
L 257.897408 264.086749 
L 259.5454 262.921724 
L 262.841386 263.910679 
L 264.489378 263.808017 
L 266.137371 260.744588 
L 267.785363 263.811259 
L 269.433356 264.39188 
L 271.081349 260.531853 
L 272.729341 263.96888 
L 274.377334 263.744799 
L 276.025326 257.066573 
L 277.673319 263.199067 
L 279.321312 261.298501 
L 280.969304 263.487139 
L 282.617297 264.22708 
L 284.26529 263.163328 
L 285.913282 263.474171 
L 287.561275 263.089998 
L 289.209267 263.788797 
L 290.85726 260.856821 
L 292.505253 263.795975 
L 294.153245 258.695431 
L 295.801238 263.838584 
L 297.449231 263.270468 
L 299.097223 263.530829 
L 300.745216 262.095948 
L 302.393208 262.961091 
L 304.041201 261.868933 
L 305.689194 262.550287 
L 307.337186 259.635448 
L 308.985179 261.528681 
L 310.633171 263.741325 
L 312.281164 264.422679 
L 313.929157 264.217509 
L 315.577149 264.444369 
L 318.873135 264.050624 
L 320.521127 264.549502 
L 322.16912 258.60427 
L 323.817112 264.202071 
L 325.465105 261.818914 
L 327.113098 262.844071 
L 328.76109 247.832595 
L 330.409083 262.470319 
L 332.057075 264.150662 
L 333.705068 263.649161 
L 335.353061 263.905276 
L 337.001053 264.553902 
L 338.649046 264.36965 
L 340.297039 261.128298 
L 341.945031 264.111296 
L 343.593024 263.403774 
L 345.241016 264.262587 
L 346.889009 264.557298 
L 348.537002 264.196745 
L 350.184994 260.514716 
L 351.832987 264.557838 
L 353.480979 255.89792 
L 358.424957 264.382463 
L 360.07295 262.944881 
L 361.720943 264.256026 
L 363.368935 263.577837 
L 365.016928 253.876939 
L 366.66492 263.42917 
L 368.312913 263.92658 
L 369.960906 262.494016 
L 371.608898 263.898947 
L 373.256891 264.436959 
L 374.904883 264.467526 
L 376.552876 255.193487 
L 378.200869 264.376134 
L 379.848861 258.382967 
L 381.496854 263.971891 
L 383.144847 263.311919 
L 384.792839 261.176696 
L 386.440832 262.312466 
L 388.088824 261.586033 
L 389.736817 256.386454 
L 391.38481 260.200554 
L 393.032802 262.211424 
L 394.680795 260.605028 
L 396.328787 264.342247 
L 397.97678 264.026541 
L 399.624773 261.101127 
L 399.624773 261.101127 
" style="fill:none;stroke:#e377c2;stroke-linecap:square;stroke-width:1.5;"/>
   </g>
   <g id="line2d_24">
    <path clip-path="url(#pb500c16110)" d="M 74.970227 260.599702 
L 76.61822 264.170963 
L 81.562198 264.127428 
L 83.21019 264.405929 
L 84.858183 263.858499 
L 86.506176 263.466761 
L 88.154168 264.515152 
L 93.098146 264.552821 
L 94.746139 264.249465 
L 96.394131 264.506739 
L 98.042124 264.500563 
L 99.690117 264.305891 
L 101.338109 201.458925 
L 102.986102 264.540548 
L 104.634094 264.466677 
L 106.282087 264.164325 
L 107.93008 264.519629 
L 109.578072 264.181307 
L 111.226065 263.69833 
L 112.874057 263.65302 
L 114.52205 264.441668 
L 116.170043 264.271155 
L 117.818035 263.17784 
L 119.466028 263.90875 
L 121.114021 264.392729 
L 122.762013 263.863594 
L 124.410006 260.415219 
L 126.057998 264.463204 
L 127.705991 263.644992 
L 131.001976 264.456102 
L 132.649969 263.424307 
L 134.297961 263.934377 
L 135.945954 260.242005 
L 137.593947 264.545797 
L 139.241939 264.166795 
L 140.889932 262.844457 
L 142.537925 264.557761 
L 144.185917 259.079682 
L 145.83391 262.728596 
L 147.481902 241.71662 
L 149.129895 262.660669 
L 150.777888 243.310588 
L 152.42588 264.488908 
L 155.721865 264.557221 
L 157.369858 262.958081 
L 159.017851 263.631793 
L 160.665843 261.160177 
L 162.313836 263.986094 
L 163.961829 264.471617 
L 165.609821 263.262749 
L 167.257814 259.576861 
L 168.905806 261.611506 
L 170.553799 263.339012 
L 172.201792 263.836268 
L 173.849784 258.176253 
L 175.497777 264.022219 
L 177.145769 262.438131 
L 178.793762 254.040735 
L 180.441755 259.957561 
L 182.089747 264.398827 
L 183.73774 261.287463 
L 185.385733 263.839124 
L 187.033725 264.305119 
L 188.681718 263.752904 
L 190.32971 264.316929 
L 191.977703 264.018205 
L 193.625696 255.697845 
L 195.273688 264.259886 
L 196.921681 251.814814 
L 198.569674 251.662751 
L 200.217666 257.276684 
L 201.865659 262.472557 
L 203.513651 263.417437 
L 205.161644 257.206441 
L 206.809637 263.372667 
L 208.457629 264.492381 
L 211.753614 264.547726 
L 213.401607 263.961702 
L 216.697592 264.076406 
L 218.345585 261.841531 
L 219.993578 253.285665 
L 221.64157 264.412721 
L 223.289563 264.020829 
L 224.937555 263.139091 
L 226.585548 264.116699 
L 228.233541 264.531902 
L 229.881533 258.984121 
L 231.529526 264.469533 
L 233.177518 264.349966 
L 234.825511 264.436805 
L 236.473504 263.109759 
L 238.121496 264.289758 
L 239.769489 263.587486 
L 241.417482 261.529144 
L 243.065474 264.317701 
L 244.713467 261.908995 
L 246.361459 263.676794 
L 248.009452 264.535299 
L 249.657445 264.187868 
L 251.305437 255.32031 
L 252.95343 264.366485 
L 254.601422 264.263591 
L 256.249415 264.460811 
L 257.897408 264.043677 
L 259.5454 263.886133 
L 261.193393 263.893775 
L 262.841386 264.030864 
L 264.489378 262.139638 
L 266.137371 261.555697 
L 267.785363 264.41195 
L 269.433356 264.320094 
L 271.081349 258.937961 
L 272.729341 264.218049 
L 274.377334 264.276868 
L 276.025326 258.564363 
L 277.673319 263.530906 
L 279.321312 263.009875 
L 280.969304 263.549431 
L 282.617297 264.225382 
L 285.913282 262.01158 
L 287.561275 263.831328 
L 289.209267 264.105043 
L 290.85726 263.191039 
L 292.505253 263.92357 
L 294.153245 263.093703 
L 295.801238 264.390491 
L 297.449231 263.214737 
L 299.097223 263.517398 
L 300.745216 263.618902 
L 302.393208 262.559318 
L 304.041201 263.690534 
L 305.689194 262.419142 
L 307.337186 263.9211 
L 308.985179 259.559493 
L 310.633171 264.33476 
L 312.281164 264.48281 
L 313.929157 264.443289 
L 315.577149 264.277717 
L 317.225142 264.433486 
L 320.521127 264.55313 
L 322.16912 263.435808 
L 323.817112 264.278411 
L 325.465105 262.266769 
L 327.113098 263.623302 
L 328.76109 242.351969 
L 330.409083 262.642143 
L 332.057075 264.322641 
L 333.705068 263.866604 
L 335.353061 264.381382 
L 337.001053 264.555137 
L 338.649046 264.409557 
L 340.297039 262.267001 
L 341.945031 264.422988 
L 343.593024 263.519713 
L 345.241016 264.218898 
L 346.889009 264.555754 
L 348.537002 263.98262 
L 350.184994 257.963595 
L 351.832987 264.557838 
L 353.480979 258.714497 
L 355.128972 262.641989 
L 356.776965 261.96982 
L 358.424957 264.496935 
L 360.07295 262.864835 
L 361.720943 264.369881 
L 363.368935 263.982852 
L 365.016928 255.035248 
L 366.66492 263.869846 
L 368.312913 263.754061 
L 369.960906 264.211179 
L 371.608898 263.113772 
L 373.256891 264.290144 
L 374.904883 264.36718 
L 376.552876 262.709298 
L 378.200869 264.394273 
L 379.848861 261.836282 
L 381.496854 263.92658 
L 383.144847 264.147034 
L 384.792839 263.829399 
L 386.440832 263.269233 
L 388.088824 262.379544 
L 389.736817 260.068328 
L 391.38481 263.807014 
L 393.032802 263.609253 
L 394.680795 263.721024 
L 396.328787 264.298172 
L 397.97678 264.236266 
L 399.624773 263.508521 
L 399.624773 263.508521 
" style="fill:none;stroke:#7f7f7f;stroke-linecap:square;stroke-width:1.5;"/>
   </g>
   <g id="line2d_25">
    <path clip-path="url(#pb500c16110)" d="M 74.970227 264.557915 
L 102.986102 264.552821 
L 399.624773 264.557915 
L 399.624773 264.557915 
" style="fill:none;stroke:#bcbd22;stroke-linecap:square;stroke-width:1.5;"/>
   </g>
   <g id="line2d_26">
    <path clip-path="url(#pb500c16110)" d="M 74.970227 264.557915 
L 262.841386 264.553747 
L 391.38481 264.557915 
L 399.624773 264.557915 
L 399.624773 264.557915 
" style="fill:none;stroke:#17becf;stroke-linecap:square;stroke-width:1.5;"/>
   </g>
   <g id="line2d_27">
    <path clip-path="url(#pb500c16110)" d="M 74.970227 264.636109 
L 76.61822 264.583928 
L 78.266213 264.557144 
L 83.21019 264.57675 
L 86.506176 264.550042 
L 102.986102 264.597591 
L 104.634094 264.44985 
L 106.282087 264.561389 
L 119.466028 264.53746 
L 122.762013 264.542786 
L 142.537925 264.553516 
L 144.185917 264.399908 
L 145.83391 264.545488 
L 147.481902 264.399908 
L 149.129895 264.553438 
L 154.073873 264.553516 
L 163.961829 264.635491 
L 165.609821 264.399908 
L 168.905806 264.548498 
L 183.73774 264.564399 
L 185.385733 264.486746 
L 188.681718 264.532366 
L 191.977703 264.55367 
L 193.625696 264.648845 
L 195.273688 264.49269 
L 196.921681 264.467526 
L 198.569674 264.597128 
L 200.217666 264.460579 
L 201.865659 264.716 
L 205.161644 264.421753 
L 206.809637 264.553593 
L 211.753614 264.536071 
L 213.401607 264.399908 
L 215.0496 264.55174 
L 216.697592 264.537846 
L 218.345585 264.68358 
L 219.993578 264.521096 
L 223.289563 264.55174 
L 224.937555 264.466368 
L 228.233541 264.560849 
L 238.121496 264.519398 
L 239.769489 264.700639 
L 241.417482 264.457646 
L 244.713467 264.561003 
L 248.009452 264.543635 
L 264.489378 264.546105 
L 266.137371 264.471386 
L 271.081349 264.678254 
L 272.729341 264.494157 
L 274.377334 264.716 
L 276.025326 264.399908 
L 277.673319 264.552435 
L 332.057075 264.553593 
L 333.705068 264.399908 
L 335.353061 264.553593 
L 346.889009 264.553361 
L 348.537002 264.399908 
L 350.184994 264.553593 
L 360.07295 264.509595 
L 361.720943 264.716 
L 363.368935 264.55367 
L 365.016928 264.636031 
L 368.312913 264.476249 
L 369.960906 264.549502 
L 371.608898 264.494388 
L 373.256891 264.610018 
L 378.200869 264.557684 
L 383.144847 264.518703 
L 384.792839 264.647147 
L 388.088824 264.53553 
L 399.624773 264.663357 
L 399.624773 264.663357 
" style="fill:none;stroke:#1f77b4;stroke-linecap:square;stroke-width:1.5;"/>
   </g>
   <g id="line2d_28">
    <path clip-path="url(#pb500c16110)" d="M 74.970227 264.557915 
L 399.624773 264.557915 
L 399.624773 264.557915 
" style="fill:none;stroke:#ff7f0e;stroke-linecap:square;stroke-width:1.5;"/>
   </g>
   <g id="patch_3">
    <path d="M 58.7375 276.812 
L 58.7375 10.7 
" style="fill:none;stroke:#000000;stroke-linecap:square;stroke-linejoin:miter;stroke-width:0.8;"/>
   </g>
   <g id="patch_4">
    <path d="M 415.8575 276.812 
L 415.8575 10.7 
" style="fill:none;stroke:#000000;stroke-linecap:square;stroke-linejoin:miter;stroke-width:0.8;"/>
   </g>
   <g id="patch_5">
    <path d="M 58.7375 276.812 
L 415.8575 276.812 
" style="fill:none;stroke:#000000;stroke-linecap:square;stroke-linejoin:miter;stroke-width:0.8;"/>
   </g>
   <g id="patch_6">
    <path d="M 58.7375 10.7 
L 415.8575 10.7 
" style="fill:none;stroke:#000000;stroke-linecap:square;stroke-linejoin:miter;stroke-width:0.8;"/>
   </g>
   <g id="legend_1">
    <g id="patch_7">
     <path d="M 65.7375 165.48125 
L 156.090625 165.48125 
Q 158.090625 165.48125 158.090625 163.48125 
L 158.090625 17.7 
Q 158.090625 15.7 156.090625 15.7 
L 65.7375 15.7 
Q 63.7375 15.7 63.7375 17.7 
L 63.7375 163.48125 
Q 63.7375 165.48125 65.7375 165.48125 
z
" style="fill:#ffffff;opacity:0.8;stroke:#cccccc;stroke-linejoin:miter;"/>
    </g>
    <g id="line2d_29">
     <path d="M 67.7375 23.798437 
L 87.7375 23.798437 
" style="fill:none;stroke:#1f77b4;stroke-linecap:square;stroke-width:1.5;"/>
    </g>
    <g id="line2d_30"/>
    <g id="text_17">
     <!-- delta -->
     <defs>
      <path d="M 45.40625 46.390625 
L 45.40625 75.984375 
L 54.390625 75.984375 
L 54.390625 0 
L 45.40625 0 
L 45.40625 8.203125 
Q 42.578125 3.328125 38.25 0.953125 
Q 33.9375 -1.421875 27.875 -1.421875 
Q 17.96875 -1.421875 11.734375 6.484375 
Q 5.515625 14.40625 5.515625 27.296875 
Q 5.515625 40.1875 11.734375 48.09375 
Q 17.96875 56 27.875 56 
Q 33.9375 56 38.25 53.625 
Q 42.578125 51.265625 45.40625 46.390625 
M 14.796875 27.296875 
Q 14.796875 17.390625 18.875 11.75 
Q 22.953125 6.109375 30.078125 6.109375 
Q 37.203125 6.109375 41.296875 11.75 
Q 45.40625 17.390625 45.40625 27.296875 
Q 45.40625 37.203125 41.296875 42.84375 
Q 37.203125 48.484375 30.078125 48.484375 
Q 22.953125 48.484375 18.875 42.84375 
Q 14.796875 37.203125 14.796875 27.296875 
" id="DejaVuSans-64"/>
      <path d="M 56.203125 29.59375 
L 56.203125 25.203125 
L 14.890625 25.203125 
Q 15.484375 15.921875 20.484375 11.0625 
Q 25.484375 6.203125 34.421875 6.203125 
Q 39.59375 6.203125 44.453125 7.46875 
Q 49.3125 8.734375 54.109375 11.28125 
L 54.109375 2.78125 
Q 49.265625 0.734375 44.1875 -0.34375 
Q 39.109375 -1.421875 33.890625 -1.421875 
Q 20.796875 -1.421875 13.15625 6.1875 
Q 5.515625 13.8125 5.515625 26.8125 
Q 5.515625 40.234375 12.765625 48.109375 
Q 20.015625 56 32.328125 56 
Q 43.359375 56 49.78125 48.890625 
Q 56.203125 41.796875 56.203125 29.59375 
M 47.21875 32.234375 
Q 47.125 39.59375 43.09375 43.984375 
Q 39.0625 48.390625 32.421875 48.390625 
Q 24.90625 48.390625 20.390625 44.140625 
Q 15.875 39.890625 15.1875 32.171875 
z
" id="DejaVuSans-65"/>
      <path d="M 9.421875 75.984375 
L 18.40625 75.984375 
L 18.40625 0 
L 9.421875 0 
z
" id="DejaVuSans-6c"/>
      <path d="M 18.3125 70.21875 
L 18.3125 54.6875 
L 36.8125 54.6875 
L 36.8125 47.703125 
L 18.3125 47.703125 
L 18.3125 18.015625 
Q 18.3125 11.328125 20.140625 9.421875 
Q 21.96875 7.515625 27.59375 7.515625 
L 36.8125 7.515625 
L 36.8125 0 
L 27.59375 0 
Q 17.1875 0 13.234375 3.875 
Q 9.28125 7.765625 9.28125 18.015625 
L 9.28125 47.703125 
L 2.6875 47.703125 
L 2.6875 54.6875 
L 9.28125 54.6875 
L 9.28125 70.21875 
z
" id="DejaVuSans-74"/>
      <path d="M 34.28125 27.484375 
Q 23.390625 27.484375 19.1875 25 
Q 14.984375 22.515625 14.984375 16.5 
Q 14.984375 11.71875 18.140625 8.90625 
Q 21.296875 6.109375 26.703125 6.109375 
Q 34.1875 6.109375 38.703125 11.40625 
Q 43.21875 16.703125 43.21875 25.484375 
L 43.21875 27.484375 
z
M 52.203125 31.203125 
L 52.203125 0 
L 43.21875 0 
L 43.21875 8.296875 
Q 40.140625 3.328125 35.546875 0.953125 
Q 30.953125 -1.421875 24.3125 -1.421875 
Q 15.921875 -1.421875 10.953125 3.296875 
Q 6 8.015625 6 15.921875 
Q 6 25.140625 12.171875 29.828125 
Q 18.359375 34.515625 30.609375 34.515625 
L 43.21875 34.515625 
L 43.21875 35.40625 
Q 43.21875 41.609375 39.140625 45 
Q 35.0625 48.390625 27.6875 48.390625 
Q 23 48.390625 18.546875 47.265625 
Q 14.109375 46.140625 10.015625 43.890625 
L 10.015625 52.203125 
Q 14.9375 54.109375 19.578125 55.046875 
Q 24.21875 56 28.609375 56 
Q 40.484375 56 46.34375 49.84375 
Q 52.203125 43.703125 52.203125 31.203125 
" id="DejaVuSans-61"/>
     </defs>
     <g transform="translate(95.7375 27.298437)scale(0.1 -0.1)">
      <use xlink:href="#DejaVuSans-64"/>
      <use x="63.476562" xlink:href="#DejaVuSans-65"/>
      <use x="125" xlink:href="#DejaVuSans-6c"/>
      <use x="152.783203" xlink:href="#DejaVuSans-74"/>
      <use x="191.992188" xlink:href="#DejaVuSans-61"/>
     </g>
    </g>
    <g id="line2d_31">
     <path d="M 67.7375 38.476562 
L 87.7375 38.476562 
" style="fill:none;stroke:#ff7f0e;stroke-linecap:square;stroke-width:1.5;"/>
    </g>
    <g id="line2d_32"/>
    <g id="text_18">
     <!-- lowAlpha -->
     <defs>
      <path d="M 30.609375 48.390625 
Q 23.390625 48.390625 19.1875 42.75 
Q 14.984375 37.109375 14.984375 27.296875 
Q 14.984375 17.484375 19.15625 11.84375 
Q 23.34375 6.203125 30.609375 6.203125 
Q 37.796875 6.203125 41.984375 11.859375 
Q 46.1875 17.53125 46.1875 27.296875 
Q 46.1875 37.015625 41.984375 42.703125 
Q 37.796875 48.390625 30.609375 48.390625 
M 30.609375 56 
Q 42.328125 56 49.015625 48.375 
Q 55.71875 40.765625 55.71875 27.296875 
Q 55.71875 13.875 49.015625 6.21875 
Q 42.328125 -1.421875 30.609375 -1.421875 
Q 18.84375 -1.421875 12.171875 6.21875 
Q 5.515625 13.875 5.515625 27.296875 
Q 5.515625 40.765625 12.171875 48.375 
Q 18.84375 56 30.609375 56 
" id="DejaVuSans-6f"/>
      <path d="M 4.203125 54.6875 
L 13.1875 54.6875 
L 24.421875 12.015625 
L 35.59375 54.6875 
L 46.1875 54.6875 
L 57.421875 12.015625 
L 68.609375 54.6875 
L 77.59375 54.6875 
L 63.28125 0 
L 52.6875 0 
L 40.921875 44.828125 
L 29.109375 0 
L 18.5 0 
z
" id="DejaVuSans-77"/>
      <path d="M 34.1875 63.1875 
L 20.796875 26.90625 
L 47.609375 26.90625 
z
M 28.609375 72.90625 
L 39.796875 72.90625 
L 67.578125 0 
L 57.328125 0 
L 50.6875 18.703125 
L 17.828125 18.703125 
L 11.1875 0 
L 0.78125 0 
z
" id="DejaVuSans-41"/>
      <path d="M 18.109375 8.203125 
L 18.109375 -20.796875 
L 9.078125 -20.796875 
L 9.078125 54.6875 
L 18.109375 54.6875 
L 18.109375 46.390625 
Q 20.953125 51.265625 25.265625 53.625 
Q 29.59375 56 35.59375 56 
Q 45.5625 56 51.78125 48.09375 
Q 58.015625 40.1875 58.015625 27.296875 
Q 58.015625 14.40625 51.78125 6.484375 
Q 45.5625 -1.421875 35.59375 -1.421875 
Q 29.59375 -1.421875 25.265625 0.953125 
Q 20.953125 3.328125 18.109375 8.203125 
M 48.6875 27.296875 
Q 48.6875 37.203125 44.609375 42.84375 
Q 40.53125 48.484375 33.40625 48.484375 
Q 26.265625 48.484375 22.1875 42.84375 
Q 18.109375 37.203125 18.109375 27.296875 
Q 18.109375 17.390625 22.1875 11.75 
Q 26.265625 6.109375 33.40625 6.109375 
Q 40.53125 6.109375 44.609375 11.75 
Q 48.6875 17.390625 48.6875 27.296875 
" id="DejaVuSans-70"/>
      <path d="M 54.890625 33.015625 
L 54.890625 0 
L 45.90625 0 
L 45.90625 32.71875 
Q 45.90625 40.484375 42.875 44.328125 
Q 39.84375 48.1875 33.796875 48.1875 
Q 26.515625 48.1875 22.3125 43.546875 
Q 18.109375 38.921875 18.109375 30.90625 
L 18.109375 0 
L 9.078125 0 
L 9.078125 75.984375 
L 18.109375 75.984375 
L 18.109375 46.1875 
Q 21.34375 51.125 25.703125 53.5625 
Q 30.078125 56 35.796875 56 
Q 45.21875 56 50.046875 50.171875 
Q 54.890625 44.34375 54.890625 33.015625 
" id="DejaVuSans-68"/>
     </defs>
     <g transform="translate(95.7375 41.976562)scale(0.1 -0.1)">
      <use xlink:href="#DejaVuSans-6c"/>
      <use x="27.783203" xlink:href="#DejaVuSans-6f"/>
      <use x="88.964844" xlink:href="#DejaVuSans-77"/>
      <use x="170.751953" xlink:href="#DejaVuSans-41"/>
      <use x="239.160156" xlink:href="#DejaVuSans-6c"/>
      <use x="266.943359" xlink:href="#DejaVuSans-70"/>
      <use x="330.419922" xlink:href="#DejaVuSans-68"/>
      <use x="393.798828" xlink:href="#DejaVuSans-61"/>
     </g>
    </g>
    <g id="line2d_33">
     <path d="M 67.7375 53.154687 
L 87.7375 53.154687 
" style="fill:none;stroke:#2ca02c;stroke-linecap:square;stroke-width:1.5;"/>
    </g>
    <g id="line2d_34"/>
    <g id="text_19">
     <!-- highAlpha -->
     <defs>
      <path d="M 9.421875 54.6875 
L 18.40625 54.6875 
L 18.40625 0 
L 9.421875 0 
z
M 9.421875 75.984375 
L 18.40625 75.984375 
L 18.40625 64.59375 
L 9.421875 64.59375 
z
" id="DejaVuSans-69"/>
      <path d="M 45.40625 27.984375 
Q 45.40625 37.75 41.375 43.109375 
Q 37.359375 48.484375 30.078125 48.484375 
Q 22.859375 48.484375 18.828125 43.109375 
Q 14.796875 37.75 14.796875 27.984375 
Q 14.796875 18.265625 18.828125 12.890625 
Q 22.859375 7.515625 30.078125 7.515625 
Q 37.359375 7.515625 41.375 12.890625 
Q 45.40625 18.265625 45.40625 27.984375 
M 54.390625 6.78125 
Q 54.390625 -7.171875 48.1875 -13.984375 
Q 42 -20.796875 29.203125 -20.796875 
Q 24.46875 -20.796875 20.265625 -20.09375 
Q 16.0625 -19.390625 12.109375 -17.921875 
L 12.109375 -9.1875 
Q 16.0625 -11.328125 19.921875 -12.34375 
Q 23.78125 -13.375 27.78125 -13.375 
Q 36.625 -13.375 41.015625 -8.765625 
Q 45.40625 -4.15625 45.40625 5.171875 
L 45.40625 9.625 
Q 42.625 4.78125 38.28125 2.390625 
Q 33.9375 0 27.875 0 
Q 17.828125 0 11.671875 7.65625 
Q 5.515625 15.328125 5.515625 27.984375 
Q 5.515625 40.671875 11.671875 48.328125 
Q 17.828125 56 27.875 56 
Q 33.9375 56 38.28125 53.609375 
Q 42.625 51.21875 45.40625 46.390625 
L 45.40625 54.6875 
L 54.390625 54.6875 
z
" id="DejaVuSans-67"/>
     </defs>
     <g transform="translate(95.7375 56.654687)scale(0.1 -0.1)">
      <use xlink:href="#DejaVuSans-68"/>
      <use x="63.378906" xlink:href="#DejaVuSans-69"/>
      <use x="91.162109" xlink:href="#DejaVuSans-67"/>
      <use x="154.638672" xlink:href="#DejaVuSans-68"/>
      <use x="218.017578" xlink:href="#DejaVuSans-41"/>
      <use x="286.425781" xlink:href="#DejaVuSans-6c"/>
      <use x="314.208984" xlink:href="#DejaVuSans-70"/>
      <use x="377.685547" xlink:href="#DejaVuSans-68"/>
      <use x="441.064453" xlink:href="#DejaVuSans-61"/>
     </g>
    </g>
    <g id="line2d_35">
     <path d="M 67.7375 67.832812 
L 87.7375 67.832812 
" style="fill:none;stroke:#d62728;stroke-linecap:square;stroke-width:1.5;"/>
    </g>
    <g id="line2d_36"/>
    <g id="text_20">
     <!-- lowBeta -->
     <defs>
      <path d="M 19.671875 34.8125 
L 19.671875 8.109375 
L 35.5 8.109375 
Q 43.453125 8.109375 47.28125 11.40625 
Q 51.125 14.703125 51.125 21.484375 
Q 51.125 28.328125 47.28125 31.5625 
Q 43.453125 34.8125 35.5 34.8125 
z
M 19.671875 64.796875 
L 19.671875 42.828125 
L 34.28125 42.828125 
Q 41.5 42.828125 45.03125 45.53125 
Q 48.578125 48.25 48.578125 53.8125 
Q 48.578125 59.328125 45.03125 62.0625 
Q 41.5 64.796875 34.28125 64.796875 
z
M 9.8125 72.90625 
L 35.015625 72.90625 
Q 46.296875 72.90625 52.390625 68.21875 
Q 58.5 63.53125 58.5 54.890625 
Q 58.5 48.1875 55.375 44.234375 
Q 52.25 40.28125 46.1875 39.3125 
Q 53.46875 37.75 57.5 32.78125 
Q 61.53125 27.828125 61.53125 20.40625 
Q 61.53125 10.640625 54.890625 5.3125 
Q 48.25 0 35.984375 0 
L 9.8125 0 
z
" id="DejaVuSans-42"/>
     </defs>
     <g transform="translate(95.7375 71.332812)scale(0.1 -0.1)">
      <use xlink:href="#DejaVuSans-6c"/>
      <use x="27.783203" xlink:href="#DejaVuSans-6f"/>
      <use x="88.964844" xlink:href="#DejaVuSans-77"/>
      <use x="170.751953" xlink:href="#DejaVuSans-42"/>
      <use x="239.355469" xlink:href="#DejaVuSans-65"/>
      <use x="300.878906" xlink:href="#DejaVuSans-74"/>
      <use x="340.087891" xlink:href="#DejaVuSans-61"/>
     </g>
    </g>
    <g id="line2d_37">
     <path d="M 67.7375 82.510938 
L 87.7375 82.510938 
" style="fill:none;stroke:#9467bd;stroke-linecap:square;stroke-width:1.5;"/>
    </g>
    <g id="line2d_38"/>
    <g id="text_21">
     <!-- highBeta -->
     <g transform="translate(95.7375 86.010938)scale(0.1 -0.1)">
      <use xlink:href="#DejaVuSans-68"/>
      <use x="63.378906" xlink:href="#DejaVuSans-69"/>
      <use x="91.162109" xlink:href="#DejaVuSans-67"/>
      <use x="154.638672" xlink:href="#DejaVuSans-68"/>
      <use x="218.017578" xlink:href="#DejaVuSans-42"/>
      <use x="286.621094" xlink:href="#DejaVuSans-65"/>
      <use x="348.144531" xlink:href="#DejaVuSans-74"/>
      <use x="387.353516" xlink:href="#DejaVuSans-61"/>
     </g>
    </g>
    <g id="line2d_39">
     <path d="M 67.7375 97.189062 
L 87.7375 97.189062 
" style="fill:none;stroke:#8c564b;stroke-linecap:square;stroke-width:1.5;"/>
    </g>
    <g id="line2d_40"/>
    <g id="text_22">
     <!-- lowGamma -->
     <defs>
      <path d="M 59.515625 10.40625 
L 59.515625 29.984375 
L 43.40625 29.984375 
L 43.40625 38.09375 
L 69.28125 38.09375 
L 69.28125 6.78125 
Q 63.578125 2.734375 56.6875 0.65625 
Q 49.8125 -1.421875 42 -1.421875 
Q 24.90625 -1.421875 15.25 8.5625 
Q 5.609375 18.5625 5.609375 36.375 
Q 5.609375 54.25 15.25 64.234375 
Q 24.90625 74.21875 42 74.21875 
Q 49.125 74.21875 55.546875 72.453125 
Q 61.96875 70.703125 67.390625 67.28125 
L 67.390625 56.78125 
Q 61.921875 61.421875 55.765625 63.765625 
Q 49.609375 66.109375 42.828125 66.109375 
Q 29.4375 66.109375 22.71875 58.640625 
Q 16.015625 51.171875 16.015625 36.375 
Q 16.015625 21.625 22.71875 14.15625 
Q 29.4375 6.6875 42.828125 6.6875 
Q 48.046875 6.6875 52.140625 7.59375 
Q 56.25 8.5 59.515625 10.40625 
" id="DejaVuSans-47"/>
      <path d="M 52 44.1875 
Q 55.375 50.25 60.0625 53.125 
Q 64.75 56 71.09375 56 
Q 79.640625 56 84.28125 50.015625 
Q 88.921875 44.046875 88.921875 33.015625 
L 88.921875 0 
L 79.890625 0 
L 79.890625 32.71875 
Q 79.890625 40.578125 77.09375 44.375 
Q 74.3125 48.1875 68.609375 48.1875 
Q 61.625 48.1875 57.5625 43.546875 
Q 53.515625 38.921875 53.515625 30.90625 
L 53.515625 0 
L 44.484375 0 
L 44.484375 32.71875 
Q 44.484375 40.625 41.703125 44.40625 
Q 38.921875 48.1875 33.109375 48.1875 
Q 26.21875 48.1875 22.15625 43.53125 
Q 18.109375 38.875 18.109375 30.90625 
L 18.109375 0 
L 9.078125 0 
L 9.078125 54.6875 
L 18.109375 54.6875 
L 18.109375 46.1875 
Q 21.1875 51.21875 25.484375 53.609375 
Q 29.78125 56 35.6875 56 
Q 41.65625 56 45.828125 52.96875 
Q 50 49.953125 52 44.1875 
" id="DejaVuSans-6d"/>
     </defs>
     <g transform="translate(95.7375 100.689062)scale(0.1 -0.1)">
      <use xlink:href="#DejaVuSans-6c"/>
      <use x="27.783203" xlink:href="#DejaVuSans-6f"/>
      <use x="88.964844" xlink:href="#DejaVuSans-77"/>
      <use x="170.751953" xlink:href="#DejaVuSans-47"/>
      <use x="248.242188" xlink:href="#DejaVuSans-61"/>
      <use x="309.521484" xlink:href="#DejaVuSans-6d"/>
      <use x="406.933594" xlink:href="#DejaVuSans-6d"/>
      <use x="504.345703" xlink:href="#DejaVuSans-61"/>
     </g>
    </g>
    <g id="line2d_41">
     <path d="M 67.7375 111.867188 
L 87.7375 111.867188 
" style="fill:none;stroke:#e377c2;stroke-linecap:square;stroke-width:1.5;"/>
    </g>
    <g id="line2d_42"/>
    <g id="text_23">
     <!-- midGamma -->
     <g transform="translate(95.7375 115.367188)scale(0.1 -0.1)">
      <use xlink:href="#DejaVuSans-6d"/>
      <use x="97.412109" xlink:href="#DejaVuSans-69"/>
      <use x="125.195312" xlink:href="#DejaVuSans-64"/>
      <use x="188.671875" xlink:href="#DejaVuSans-47"/>
      <use x="266.162109" xlink:href="#DejaVuSans-61"/>
      <use x="327.441406" xlink:href="#DejaVuSans-6d"/>
      <use x="424.853516" xlink:href="#DejaVuSans-6d"/>
      <use x="522.265625" xlink:href="#DejaVuSans-61"/>
     </g>
    </g>
    <g id="line2d_43">
     <path d="M 67.7375 126.545312 
L 87.7375 126.545312 
" style="fill:none;stroke:#7f7f7f;stroke-linecap:square;stroke-width:1.5;"/>
    </g>
    <g id="line2d_44"/>
    <g id="text_24">
     <!-- attention -->
     <defs>
      <path d="M 54.890625 33.015625 
L 54.890625 0 
L 45.90625 0 
L 45.90625 32.71875 
Q 45.90625 40.484375 42.875 44.328125 
Q 39.84375 48.1875 33.796875 48.1875 
Q 26.515625 48.1875 22.3125 43.546875 
Q 18.109375 38.921875 18.109375 30.90625 
L 18.109375 0 
L 9.078125 0 
L 9.078125 54.6875 
L 18.109375 54.6875 
L 18.109375 46.1875 
Q 21.34375 51.125 25.703125 53.5625 
Q 30.078125 56 35.796875 56 
Q 45.21875 56 50.046875 50.171875 
Q 54.890625 44.34375 54.890625 33.015625 
" id="DejaVuSans-6e"/>
     </defs>
     <g transform="translate(95.7375 130.045312)scale(0.1 -0.1)">
      <use xlink:href="#DejaVuSans-61"/>
      <use x="61.279297" xlink:href="#DejaVuSans-74"/>
      <use x="100.488281" xlink:href="#DejaVuSans-74"/>
      <use x="139.697266" xlink:href="#DejaVuSans-65"/>
      <use x="201.220703" xlink:href="#DejaVuSans-6e"/>
      <use x="264.599609" xlink:href="#DejaVuSans-74"/>
      <use x="303.808594" xlink:href="#DejaVuSans-69"/>
      <use x="331.591797" xlink:href="#DejaVuSans-6f"/>
      <use x="392.773438" xlink:href="#DejaVuSans-6e"/>
     </g>
    </g>
    <g id="line2d_45">
     <path d="M 67.7375 141.223437 
L 87.7375 141.223437 
" style="fill:none;stroke:#bcbd22;stroke-linecap:square;stroke-width:1.5;"/>
    </g>
    <g id="line2d_46"/>
    <g id="text_25">
     <!-- meditation -->
     <g transform="translate(95.7375 144.723437)scale(0.1 -0.1)">
      <use xlink:href="#DejaVuSans-6d"/>
      <use x="97.412109" xlink:href="#DejaVuSans-65"/>
      <use x="158.935547" xlink:href="#DejaVuSans-64"/>
      <use x="222.412109" xlink:href="#DejaVuSans-69"/>
      <use x="250.195312" xlink:href="#DejaVuSans-74"/>
      <use x="289.404297" xlink:href="#DejaVuSans-61"/>
      <use x="350.683594" xlink:href="#DejaVuSans-74"/>
      <use x="389.892578" xlink:href="#DejaVuSans-69"/>
      <use x="417.675781" xlink:href="#DejaVuSans-6f"/>
      <use x="478.857422" xlink:href="#DejaVuSans-6e"/>
     </g>
    </g>
    <g id="line2d_47">
     <path d="M 67.7375 155.901562 
L 87.7375 155.901562 
" style="fill:none;stroke:#17becf;stroke-linecap:square;stroke-width:1.5;"/>
    </g>
    <g id="line2d_48"/>
    <g id="text_26">
     <!-- rawValue -->
     <defs>
      <path d="M 41.109375 46.296875 
Q 39.59375 47.171875 37.8125 47.578125 
Q 36.03125 48 33.890625 48 
Q 26.265625 48 22.1875 43.046875 
Q 18.109375 38.09375 18.109375 28.8125 
L 18.109375 0 
L 9.078125 0 
L 9.078125 54.6875 
L 18.109375 54.6875 
L 18.109375 46.1875 
Q 20.953125 51.171875 25.484375 53.578125 
Q 30.03125 56 36.53125 56 
Q 37.453125 56 38.578125 55.875 
Q 39.703125 55.765625 41.0625 55.515625 
z
" id="DejaVuSans-72"/>
      <path d="M 28.609375 0 
L 0.78125 72.90625 
L 11.078125 72.90625 
L 34.1875 11.53125 
L 57.328125 72.90625 
L 67.578125 72.90625 
L 39.796875 0 
z
" id="DejaVuSans-56"/>
      <path d="M 8.5 21.578125 
L 8.5 54.6875 
L 17.484375 54.6875 
L 17.484375 21.921875 
Q 17.484375 14.15625 20.5 10.265625 
Q 23.53125 6.390625 29.59375 6.390625 
Q 36.859375 6.390625 41.078125 11.03125 
Q 45.3125 15.671875 45.3125 23.6875 
L 45.3125 54.6875 
L 54.296875 54.6875 
L 54.296875 0 
L 45.3125 0 
L 45.3125 8.40625 
Q 42.046875 3.421875 37.71875 1 
Q 33.40625 -1.421875 27.6875 -1.421875 
Q 18.265625 -1.421875 13.375 4.4375 
Q 8.5 10.296875 8.5 21.578125 
M 31.109375 56 
z
" id="DejaVuSans-75"/>
     </defs>
     <g transform="translate(95.7375 159.401562)scale(0.1 -0.1)">
      <use xlink:href="#DejaVuSans-72"/>
      <use x="41.113281" xlink:href="#DejaVuSans-61"/>
      <use x="102.392578" xlink:href="#DejaVuSans-77"/>
      <use x="184.179688" xlink:href="#DejaVuSans-56"/>
      <use x="252.478516" xlink:href="#DejaVuSans-61"/>
      <use x="313.757812" xlink:href="#DejaVuSans-6c"/>
      <use x="341.541016" xlink:href="#DejaVuSans-75"/>
      <use x="404.919922" xlink:href="#DejaVuSans-65"/>
     </g>
    </g>
   </g>
  </g>
 </g>
 <defs>
  <clipPath id="pb500c16110">
   <rect height="266.112" width="357.12" x="58.7375" y="10.7"/>
  </clipPath>
 </defs>
</svg>
