<?xml version="1.0" encoding="utf-8" standalone="no"?>
<!DOCTYPE svg PUBLIC "-//W3C//DTD SVG 1.1//EN"
  "http://www.w3.org/Graphics/SVG/1.1/DTD/svg11.dtd">
<!-- Created with matplotlib (http://matplotlib.org/) -->
<svg height="300pt" version="1.1" viewBox="0 0 426 300" width="426pt" xmlns="http://www.w3.org/2000/svg" xmlns:xlink="http://www.w3.org/1999/xlink">
 <defs>
  <style type="text/css">
*{stroke-linecap:butt;stroke-linejoin:round;}
  </style>
 </defs>
 <g id="figure_1">
  <g id="patch_1">
   <path d="M 0 300.690125 
L 426.5575 300.690125 
L 426.5575 0 
L 0 0 
z
" style="fill:#ffffff;"/>
  </g>
  <g id="axes_1">
   <g id="patch_2">
    <path d="M 58.7375 276.812 
L 415.8575 276.812 
L 415.8575 10.7 
L 58.7375 10.7 
z
" style="fill:#ffffff;"/>
   </g>
   <g id="matplotlib.axis_1">
    <g id="xtick_1">
     <g id="line2d_1">
      <defs>
       <path d="M 0 0 
L 0 3.5 
" id="mc85f741ec1" style="stroke:#000000;stroke-width:0.8;"/>
      </defs>
      <g>
       <use style="stroke:#000000;stroke-width:0.8;" x="74.970227" xlink:href="#mc85f741ec1" y="276.812"/>
      </g>
     </g>
     <g id="text_1">
      <!-- 0 -->
      <defs>
       <path d="M 31.78125 66.40625 
Q 24.171875 66.40625 20.328125 58.90625 
Q 16.5 51.421875 16.5 36.375 
Q 16.5 21.390625 20.328125 13.890625 
Q 24.171875 6.390625 31.78125 6.390625 
Q 39.453125 6.390625 43.28125 13.890625 
Q 47.125 21.390625 47.125 36.375 
Q 47.125 51.421875 43.28125 58.90625 
Q 39.453125 66.40625 31.78125 66.40625 
M 31.78125 74.21875 
Q 44.046875 74.21875 50.515625 64.515625 
Q 56.984375 54.828125 56.984375 36.375 
Q 56.984375 17.96875 50.515625 8.265625 
Q 44.046875 -1.421875 31.78125 -1.421875 
Q 19.53125 -1.421875 13.0625 8.265625 
Q 6.59375 17.96875 6.59375 36.375 
Q 6.59375 54.828125 13.0625 64.515625 
Q 19.53125 74.21875 31.78125 74.21875 
" id="DejaVuSans-30"/>
      </defs>
      <g transform="translate(71.788977 291.410437)scale(0.1 -0.1)">
       <use xlink:href="#DejaVuSans-30"/>
      </g>
     </g>
    </g>
    <g id="xtick_2">
     <g id="line2d_2">
      <g>
       <use style="stroke:#000000;stroke-width:0.8;" x="116.807153" xlink:href="#mc85f741ec1" y="276.812"/>
      </g>
     </g>
     <g id="text_2">
      <!-- 25 -->
      <defs>
       <path d="M 19.1875 8.296875 
L 53.609375 8.296875 
L 53.609375 0 
L 7.328125 0 
L 7.328125 8.296875 
Q 12.9375 14.109375 22.625 23.890625 
Q 32.328125 33.6875 34.8125 36.53125 
Q 39.546875 41.84375 41.421875 45.53125 
Q 43.3125 49.21875 43.3125 52.78125 
Q 43.3125 58.59375 39.234375 62.25 
Q 35.15625 65.921875 28.609375 65.921875 
Q 23.96875 65.921875 18.8125 64.3125 
Q 13.671875 62.703125 7.8125 59.421875 
L 7.8125 69.390625 
Q 13.765625 71.78125 18.9375 73 
Q 24.125 74.21875 28.421875 74.21875 
Q 39.75 74.21875 46.484375 68.546875 
Q 53.21875 62.890625 53.21875 53.421875 
Q 53.21875 48.921875 51.53125 44.890625 
Q 49.859375 40.875 45.40625 35.40625 
Q 44.1875 33.984375 37.640625 27.21875 
Q 31.109375 20.453125 19.1875 8.296875 
" id="DejaVuSans-32"/>
       <path d="M 10.796875 72.90625 
L 49.515625 72.90625 
L 49.515625 64.59375 
L 19.828125 64.59375 
L 19.828125 46.734375 
Q 21.96875 47.46875 24.109375 47.828125 
Q 26.265625 48.1875 28.421875 48.1875 
Q 40.625 48.1875 47.75 41.5 
Q 54.890625 34.8125 54.890625 23.390625 
Q 54.890625 11.625 47.5625 5.09375 
Q 40.234375 -1.421875 26.90625 -1.421875 
Q 22.3125 -1.421875 17.546875 -0.640625 
Q 12.796875 0.140625 7.71875 1.703125 
L 7.71875 11.625 
Q 12.109375 9.234375 16.796875 8.0625 
Q 21.484375 6.890625 26.703125 6.890625 
Q 35.15625 6.890625 40.078125 11.328125 
Q 45.015625 15.765625 45.015625 23.390625 
Q 45.015625 31 40.078125 35.4375 
Q 35.15625 39.890625 26.703125 39.890625 
Q 22.75 39.890625 18.8125 39.015625 
Q 14.890625 38.140625 10.796875 36.28125 
z
" id="DejaVuSans-35"/>
      </defs>
      <g transform="translate(110.444653 291.410437)scale(0.1 -0.1)">
       <use xlink:href="#DejaVuSans-32"/>
       <use x="63.623047" xlink:href="#DejaVuSans-35"/>
      </g>
     </g>
    </g>
    <g id="xtick_3">
     <g id="line2d_3">
      <g>
       <use style="stroke:#000000;stroke-width:0.8;" x="158.644079" xlink:href="#mc85f741ec1" y="276.812"/>
      </g>
     </g>
     <g id="text_3">
      <!-- 50 -->
      <g transform="translate(152.281579 291.410437)scale(0.1 -0.1)">
       <use xlink:href="#DejaVuSans-35"/>
       <use x="63.623047" xlink:href="#DejaVuSans-30"/>
      </g>
     </g>
    </g>
    <g id="xtick_4">
     <g id="line2d_4">
      <g>
       <use style="stroke:#000000;stroke-width:0.8;" x="200.481005" xlink:href="#mc85f741ec1" y="276.812"/>
      </g>
     </g>
     <g id="text_4">
      <!-- 75 -->
      <defs>
       <path d="M 8.203125 72.90625 
L 55.078125 72.90625 
L 55.078125 68.703125 
L 28.609375 0 
L 18.3125 0 
L 43.21875 64.59375 
L 8.203125 64.59375 
z
" id="DejaVuSans-37"/>
      </defs>
      <g transform="translate(194.118505 291.410437)scale(0.1 -0.1)">
       <use xlink:href="#DejaVuSans-37"/>
       <use x="63.623047" xlink:href="#DejaVuSans-35"/>
      </g>
     </g>
    </g>
    <g id="xtick_5">
     <g id="line2d_5">
      <g>
       <use style="stroke:#000000;stroke-width:0.8;" x="242.317931" xlink:href="#mc85f741ec1" y="276.812"/>
      </g>
     </g>
     <g id="text_5">
      <!-- 100 -->
      <defs>
       <path d="M 12.40625 8.296875 
L 28.515625 8.296875 
L 28.515625 63.921875 
L 10.984375 60.40625 
L 10.984375 69.390625 
L 28.421875 72.90625 
L 38.28125 72.90625 
L 38.28125 8.296875 
L 54.390625 8.296875 
L 54.390625 0 
L 12.40625 0 
z
" id="DejaVuSans-31"/>
      </defs>
      <g transform="translate(232.774181 291.410437)scale(0.1 -0.1)">
       <use xlink:href="#DejaVuSans-31"/>
       <use x="63.623047" xlink:href="#DejaVuSans-30"/>
       <use x="127.246094" xlink:href="#DejaVuSans-30"/>
      </g>
     </g>
    </g>
    <g id="xtick_6">
     <g id="line2d_6">
      <g>
       <use style="stroke:#000000;stroke-width:0.8;" x="284.154857" xlink:href="#mc85f741ec1" y="276.812"/>
      </g>
     </g>
     <g id="text_6">
      <!-- 125 -->
      <g transform="translate(274.611107 291.410437)scale(0.1 -0.1)">
       <use xlink:href="#DejaVuSans-31"/>
       <use x="63.623047" xlink:href="#DejaVuSans-32"/>
       <use x="127.246094" xlink:href="#DejaVuSans-35"/>
      </g>
     </g>
    </g>
    <g id="xtick_7">
     <g id="line2d_7">
      <g>
       <use style="stroke:#000000;stroke-width:0.8;" x="325.991783" xlink:href="#mc85f741ec1" y="276.812"/>
      </g>
     </g>
     <g id="text_7">
      <!-- 150 -->
      <g transform="translate(316.448033 291.410437)scale(0.1 -0.1)">
       <use xlink:href="#DejaVuSans-31"/>
       <use x="63.623047" xlink:href="#DejaVuSans-35"/>
       <use x="127.246094" xlink:href="#DejaVuSans-30"/>
      </g>
     </g>
    </g>
    <g id="xtick_8">
     <g id="line2d_8">
      <g>
       <use style="stroke:#000000;stroke-width:0.8;" x="367.828709" xlink:href="#mc85f741ec1" y="276.812"/>
      </g>
     </g>
     <g id="text_8">
      <!-- 175 -->
      <g transform="translate(358.284959 291.410437)scale(0.1 -0.1)">
       <use xlink:href="#DejaVuSans-31"/>
       <use x="63.623047" xlink:href="#DejaVuSans-37"/>
       <use x="127.246094" xlink:href="#DejaVuSans-35"/>
      </g>
     </g>
    </g>
    <g id="xtick_9">
     <g id="line2d_9">
      <g>
       <use style="stroke:#000000;stroke-width:0.8;" x="409.665635" xlink:href="#mc85f741ec1" y="276.812"/>
      </g>
     </g>
     <g id="text_9">
      <!-- 200 -->
      <g transform="translate(400.121885 291.410437)scale(0.1 -0.1)">
       <use xlink:href="#DejaVuSans-32"/>
       <use x="63.623047" xlink:href="#DejaVuSans-30"/>
       <use x="127.246094" xlink:href="#DejaVuSans-30"/>
      </g>
     </g>
    </g>
   </g>
   <g id="matplotlib.axis_2">
    <g id="ytick_1">
     <g id="line2d_10">
      <defs>
       <path d="M 0 0 
L -3.5 0 
" id="m413de64c11" style="stroke:#000000;stroke-width:0.8;"/>
      </defs>
      <g>
       <use style="stroke:#000000;stroke-width:0.8;" x="58.7375" xlink:href="#m413de64c11" y="264.700556"/>
      </g>
     </g>
     <g id="text_10">
      <!-- 0 -->
      <g transform="translate(45.375 268.499775)scale(0.1 -0.1)">
       <use xlink:href="#DejaVuSans-30"/>
      </g>
     </g>
    </g>
    <g id="ytick_2">
     <g id="line2d_11">
      <g>
       <use style="stroke:#000000;stroke-width:0.8;" x="58.7375" xlink:href="#m413de64c11" y="222.734173"/>
      </g>
     </g>
     <g id="text_11">
      <!-- 500000 -->
      <g transform="translate(13.5625 226.533392)scale(0.1 -0.1)">
       <use xlink:href="#DejaVuSans-35"/>
       <use x="63.623047" xlink:href="#DejaVuSans-30"/>
       <use x="127.246094" xlink:href="#DejaVuSans-30"/>
       <use x="190.869141" xlink:href="#DejaVuSans-30"/>
       <use x="254.492188" xlink:href="#DejaVuSans-30"/>
       <use x="318.115234" xlink:href="#DejaVuSans-30"/>
      </g>
     </g>
    </g>
    <g id="ytick_3">
     <g id="line2d_12">
      <g>
       <use style="stroke:#000000;stroke-width:0.8;" x="58.7375" xlink:href="#m413de64c11" y="180.76779"/>
      </g>
     </g>
     <g id="text_12">
      <!-- 1000000 -->
      <g transform="translate(7.2 184.567009)scale(0.1 -0.1)">
       <use xlink:href="#DejaVuSans-31"/>
       <use x="63.623047" xlink:href="#DejaVuSans-30"/>
       <use x="127.246094" xlink:href="#DejaVuSans-30"/>
       <use x="190.869141" xlink:href="#DejaVuSans-30"/>
       <use x="254.492188" xlink:href="#DejaVuSans-30"/>
       <use x="318.115234" xlink:href="#DejaVuSans-30"/>
       <use x="381.738281" xlink:href="#DejaVuSans-30"/>
      </g>
     </g>
    </g>
    <g id="ytick_4">
     <g id="line2d_13">
      <g>
       <use style="stroke:#000000;stroke-width:0.8;" x="58.7375" xlink:href="#m413de64c11" y="138.801407"/>
      </g>
     </g>
     <g id="text_13">
      <!-- 1500000 -->
      <g transform="translate(7.2 142.600626)scale(0.1 -0.1)">
       <use xlink:href="#DejaVuSans-31"/>
       <use x="63.623047" xlink:href="#DejaVuSans-35"/>
       <use x="127.246094" xlink:href="#DejaVuSans-30"/>
       <use x="190.869141" xlink:href="#DejaVuSans-30"/>
       <use x="254.492188" xlink:href="#DejaVuSans-30"/>
       <use x="318.115234" xlink:href="#DejaVuSans-30"/>
       <use x="381.738281" xlink:href="#DejaVuSans-30"/>
      </g>
     </g>
    </g>
    <g id="ytick_5">
     <g id="line2d_14">
      <g>
       <use style="stroke:#000000;stroke-width:0.8;" x="58.7375" xlink:href="#m413de64c11" y="96.835024"/>
      </g>
     </g>
     <g id="text_14">
      <!-- 2000000 -->
      <g transform="translate(7.2 100.634242)scale(0.1 -0.1)">
       <use xlink:href="#DejaVuSans-32"/>
       <use x="63.623047" xlink:href="#DejaVuSans-30"/>
       <use x="127.246094" xlink:href="#DejaVuSans-30"/>
       <use x="190.869141" xlink:href="#DejaVuSans-30"/>
       <use x="254.492188" xlink:href="#DejaVuSans-30"/>
       <use x="318.115234" xlink:href="#DejaVuSans-30"/>
       <use x="381.738281" xlink:href="#DejaVuSans-30"/>
      </g>
     </g>
    </g>
    <g id="ytick_6">
     <g id="line2d_15">
      <g>
       <use style="stroke:#000000;stroke-width:0.8;" x="58.7375" xlink:href="#m413de64c11" y="54.86864"/>
      </g>
     </g>
     <g id="text_15">
      <!-- 2500000 -->
      <g transform="translate(7.2 58.667859)scale(0.1 -0.1)">
       <use xlink:href="#DejaVuSans-32"/>
       <use x="63.623047" xlink:href="#DejaVuSans-35"/>
       <use x="127.246094" xlink:href="#DejaVuSans-30"/>
       <use x="190.869141" xlink:href="#DejaVuSans-30"/>
       <use x="254.492188" xlink:href="#DejaVuSans-30"/>
       <use x="318.115234" xlink:href="#DejaVuSans-30"/>
       <use x="381.738281" xlink:href="#DejaVuSans-30"/>
      </g>
     </g>
    </g>
    <g id="ytick_7">
     <g id="line2d_16">
      <g>
       <use style="stroke:#000000;stroke-width:0.8;" x="58.7375" xlink:href="#m413de64c11" y="12.902257"/>
      </g>
     </g>
     <g id="text_16">
      <!-- 3000000 -->
      <defs>
       <path d="M 40.578125 39.3125 
Q 47.65625 37.796875 51.625 33 
Q 55.609375 28.21875 55.609375 21.1875 
Q 55.609375 10.40625 48.1875 4.484375 
Q 40.765625 -1.421875 27.09375 -1.421875 
Q 22.515625 -1.421875 17.65625 -0.515625 
Q 12.796875 0.390625 7.625 2.203125 
L 7.625 11.71875 
Q 11.71875 9.328125 16.59375 8.109375 
Q 21.484375 6.890625 26.8125 6.890625 
Q 36.078125 6.890625 40.9375 10.546875 
Q 45.796875 14.203125 45.796875 21.1875 
Q 45.796875 27.640625 41.28125 31.265625 
Q 36.765625 34.90625 28.71875 34.90625 
L 20.21875 34.90625 
L 20.21875 43.015625 
L 29.109375 43.015625 
Q 36.375 43.015625 40.234375 45.921875 
Q 44.09375 48.828125 44.09375 54.296875 
Q 44.09375 59.90625 40.109375 62.90625 
Q 36.140625 65.921875 28.71875 65.921875 
Q 24.65625 65.921875 20.015625 65.03125 
Q 15.375 64.15625 9.8125 62.3125 
L 9.8125 71.09375 
Q 15.4375 72.65625 20.34375 73.4375 
Q 25.25 74.21875 29.59375 74.21875 
Q 40.828125 74.21875 47.359375 69.109375 
Q 53.90625 64.015625 53.90625 55.328125 
Q 53.90625 49.265625 50.4375 45.09375 
Q 46.96875 40.921875 40.578125 39.3125 
" id="DejaVuSans-33"/>
      </defs>
      <g transform="translate(7.2 16.701476)scale(0.1 -0.1)">
       <use xlink:href="#DejaVuSans-33"/>
       <use x="63.623047" xlink:href="#DejaVuSans-30"/>
       <use x="127.246094" xlink:href="#DejaVuSans-30"/>
       <use x="190.869141" xlink:href="#DejaVuSans-30"/>
       <use x="254.492188" xlink:href="#DejaVuSans-30"/>
       <use x="318.115234" xlink:href="#DejaVuSans-30"/>
       <use x="381.738281" xlink:href="#DejaVuSans-30"/>
      </g>
     </g>
    </g>
   </g>
   <g id="line2d_17">
    <path clip-path="url(#p2f16f8614b)" d="M 74.970227 151.015555 
L 76.643704 155.775634 
L 78.317181 212.342793 
L 79.990658 193.759239 
L 81.664135 189.597685 
L 83.337612 236.172984 
L 85.01109 244.084571 
L 86.684567 136.440042 
L 88.358044 109.585838 
L 90.031521 216.789215 
L 91.704998 245.969197 
L 93.378475 109.884051 
L 95.051952 152.64746 
L 96.725429 236.57326 
L 98.398906 182.173244 
L 100.072383 260.53917 
L 101.74586 263.656349 
L 103.419337 83.481153 
L 105.092814 161.819297 
L 106.766291 157.008019 
L 108.439768 120.035635 
L 110.113245 168.531652 
L 111.786722 256.181213 
L 113.460199 25.16794 
L 115.133676 229.700173 
L 116.807153 60.856152 
L 118.48063 197.168001 
L 120.154107 127.277018 
L 121.827584 73.792626 
L 123.501061 121.342468 
L 125.174538 87.530657 
L 126.848015 51.150083 
L 128.521493 205.929574 
L 130.19497 259.4279 
L 131.868447 191.449661 
L 133.541924 238.561711 
L 135.215401 131.137002 
L 136.888878 252.406253 
L 138.562355 77.62936 
L 140.235832 146.091975 
L 141.909309 240.285606 
L 143.582786 136.662464 
L 145.256263 95.747759 
L 146.92974 250.104984 
L 148.603217 238.301519 
L 150.276694 199.211092 
L 151.950171 219.907653 
L 153.623648 88.67785 
L 155.297125 208.815435 
L 156.970602 257.335876 
L 158.644079 173.69444 
L 160.317556 212.529292 
L 161.991033 255.905578 
L 163.66451 253.133278 
L 165.337987 187.761152 
L 167.011464 194.037393 
L 168.684941 234.161871 
L 170.358418 38.530456 
L 172.031896 150.952857 
L 173.705373 184.795472 
L 175.37885 85.290659 
L 177.052327 212.165947 
L 178.725804 65.273869 
L 180.399281 197.878408 
L 182.072758 243.581729 
L 183.746235 122.233834 
L 185.419712 210.6518 
L 187.093189 126.130329 
L 188.766666 158.671818 
L 190.440143 145.595596 
L 192.11362 210.906536 
L 193.787097 228.776493 
L 195.460574 104.127522 
L 197.134051 128.460051 
L 198.807528 213.44248 
L 202.154482 166.610766 
L 203.827959 260.626376 
L 205.501436 238.258797 
L 207.174913 260.95833 
L 210.521867 194.930101 
L 212.195344 241.074993 
L 213.868821 177.096823 
L 215.542299 158.822393 
L 217.215776 245.771703 
L 218.889253 248.313523 
L 220.56273 258.279028 
L 222.236207 79.042033 
L 223.909684 158.515535 
L 225.583161 197.377581 
L 227.256638 142.440144 
L 228.930115 263.079227 
L 230.603592 240.293244 
L 232.277069 171.799238 
L 233.950546 218.106204 
L 235.624023 51.831114 
L 237.2975 94.893911 
L 238.970977 249.566891 
L 240.644454 168.840272 
L 242.317931 154.287758 
L 243.991408 244.914582 
L 245.664885 152.210422 
L 247.338362 252.110641 
L 249.011839 177.208453 
L 250.685316 149.394142 
L 252.358793 150.205016 
L 254.03227 247.335538 
L 255.705747 186.71216 
L 257.379224 83.469402 
L 259.052701 230.014837 
L 260.726179 194.068699 
L 262.399656 136.435762 
L 264.073133 115.984536 
L 265.74661 147.798915 
L 267.420087 229.441324 
L 269.093564 254.461179 
L 270.767041 258.583368 
L 272.440518 152.426129 
L 274.113995 100.168581 
L 275.787472 216.520882 
L 277.460949 251.953687 
L 279.134426 182.677764 
L 280.807903 82.352173 
L 282.48138 210.534881 
L 284.154857 148.146397 
L 285.828334 212.680287 
L 287.501811 153.30843 
L 289.175288 196.18968 
L 290.848765 232.124823 
L 292.522242 183.763434 
L 294.195719 209.78788 
L 295.869196 93.081634 
L 297.542673 22.796 
L 299.21615 164.812339 
L 300.889627 132.64284 
L 302.563104 136.695366 
L 304.236582 69.208302 
L 305.910059 238.045608 
L 307.583536 170.390679 
L 309.257013 206.460701 
L 310.93049 192.31056 
L 312.603967 182.041554 
L 314.277444 101.170571 
L 315.950921 217.590941 
L 317.624398 196.039105 
L 319.297875 202.29772 
L 320.971352 199.161236 
L 322.644829 235.64874 
L 324.318306 121.218332 
L 325.991783 103.824105 
L 327.66526 216.743052 
L 329.338737 152.049774 
L 331.012214 124.485415 
L 332.685691 255.596873 
L 334.359168 113.437009 
L 336.032645 245.031668 
L 337.706122 200.149377 
L 339.379599 225.213547 
L 341.053076 241.086996 
L 342.726553 246.969088 
L 344.40003 243.941381 
L 346.073507 242.403313 
L 347.746985 206.038603 
L 349.420462 144.197193 
L 351.093939 241.039826 
L 352.767416 256.901692 
L 354.440893 134.896771 
L 356.11437 232.077401 
L 357.787847 236.170046 
L 359.461324 197.350303 
L 361.134801 45.683039 
L 362.808278 235.329544 
L 364.481755 244.441705 
L 366.155232 160.080965 
L 367.828709 143.173633 
L 369.502186 200.852146 
L 371.175663 240.995929 
L 372.84914 182.912776 
L 374.522617 213.469171 
L 376.196094 145.474733 
L 377.869571 179.855861 
L 379.543048 203.844097 
L 381.216525 235.009005 
L 382.890002 136.121098 
L 386.236956 240.251109 
L 387.910433 204.039073 
L 389.58391 241.681659 
L 391.257388 197.058552 
L 392.930865 124.597213 
L 394.604342 199.197579 
L 396.277819 150.668409 
L 397.951296 95.379042 
L 399.624773 174.231022 
L 399.624773 174.231022 
" style="fill:none;stroke:#1f77b4;stroke-linecap:square;stroke-width:1.5;"/>
   </g>
   <g id="line2d_18">
    <path clip-path="url(#p2f16f8614b)" d="M 74.970227 255.64782 
L 76.643704 236.809446 
L 78.317181 218.87293 
L 79.990658 261.909204 
L 81.664135 262.677021 
L 83.337612 255.665866 
L 85.01109 247.844423 
L 86.684567 93.702233 
L 88.358044 217.466889 
L 90.031521 249.553126 
L 91.704998 257.689233 
L 93.378475 260.060249 
L 95.051952 254.418876 
L 96.725429 259.226461 
L 98.398906 228.447393 
L 100.072383 260.010645 
L 101.74586 260.156604 
L 103.419337 248.937227 
L 105.092814 232.952316 
L 106.766291 232.538779 
L 108.439768 222.141776 
L 110.113245 245.587387 
L 111.786722 260.455489 
L 113.460199 251.88545 
L 115.133676 251.857248 
L 116.807153 143.078621 
L 118.48063 212.905227 
L 121.827584 231.830219 
L 123.501061 232.553803 
L 125.174538 235.575467 
L 126.848015 244.084151 
L 128.521493 259.239639 
L 130.19497 263.788543 
L 131.868447 245.186272 
L 133.541924 231.874619 
L 135.215401 254.569788 
L 136.888878 245.156896 
L 138.562355 259.445694 
L 140.235832 254.116802 
L 141.909309 260.398834 
L 143.582786 238.739984 
L 145.256263 215.165284 
L 146.92974 241.05485 
L 148.603217 256.373754 
L 150.276694 255.64782 
L 151.950171 261.738989 
L 153.623648 252.110054 
L 155.297125 255.540554 
L 156.970602 263.000498 
L 158.644079 240.241625 
L 160.317556 260.56947 
L 161.991033 263.518112 
L 163.66451 256.365445 
L 165.337987 261.588917 
L 167.011464 253.806251 
L 168.684941 260.465057 
L 170.358418 253.987714 
L 172.031896 238.924468 
L 173.705373 246.290911 
L 175.37885 226.998042 
L 177.052327 259.103752 
L 178.725804 262.899611 
L 180.399281 263.620677 
L 182.072758 260.429805 
L 183.746235 263.260858 
L 185.419712 257.238933 
L 187.093189 224.820994 
L 188.766666 251.626601 
L 190.440143 215.706063 
L 192.11362 251.649934 
L 193.787097 244.573395 
L 195.460574 229.892631 
L 197.134051 230.348302 
L 198.807528 263.150822 
L 200.481005 240.115306 
L 202.154482 258.789088 
L 203.827959 261.232622 
L 205.501436 258.893248 
L 207.174913 260.76646 
L 208.84839 263.226026 
L 210.521867 260.317755 
L 212.195344 254.467222 
L 213.868821 256.732819 
L 215.542299 260.140825 
L 217.215776 260.254218 
L 218.889253 260.143511 
L 220.56273 260.530273 
L 222.236207 241.525377 
L 223.909684 254.448589 
L 225.583161 254.855914 
L 227.256638 213.788703 
L 228.930115 262.119204 
L 230.603592 246.219401 
L 232.277069 260.510381 
L 233.950546 242.087139 
L 235.624023 247.38061 
L 237.2975 233.83596 
L 238.970977 264.045209 
L 240.644454 224.259399 
L 242.317931 252.741816 
L 243.991408 250.403197 
L 245.664885 251.598819 
L 247.338362 260.193283 
L 249.011839 236.085023 
L 250.685316 219.485304 
L 252.358793 240.20545 
L 254.03227 263.019887 
L 255.705747 253.392127 
L 257.379224 188.672998 
L 259.052701 260.060249 
L 260.726179 258.305803 
L 262.399656 225.839602 
L 264.073133 259.193056 
L 265.74661 244.52505 
L 267.420087 197.213157 
L 269.093564 261.002059 
L 270.767041 263.045906 
L 272.440518 217.791205 
L 274.113995 249.250045 
L 275.787472 256.065721 
L 277.460949 263.984526 
L 279.134426 232.250051 
L 280.807903 231.648924 
L 282.48138 258.283141 
L 284.154857 240.851397 
L 285.828334 239.373592 
L 287.501811 228.918423 
L 289.175288 255.091849 
L 290.848765 243.351166 
L 292.522242 261.669912 
L 294.195719 259.151929 
L 295.869196 253.898409 
L 297.542673 226.617658 
L 299.21615 250.295511 
L 300.889627 261.65472 
L 302.563104 249.103834 
L 304.236582 262.828352 
L 305.910059 258.418441 
L 307.583536 260.338487 
L 309.257013 251.47804 
L 310.93049 263.840749 
L 312.603967 263.388855 
L 314.277444 191.654373 
L 315.950921 252.465677 
L 317.624398 220.865998 
L 319.297875 230.351827 
L 320.971352 262.312333 
L 322.644829 261.314709 
L 324.318306 228.42045 
L 325.991783 228.301937 
L 327.66526 253.38323 
L 329.338737 222.088646 
L 331.012214 262.442093 
L 332.685691 261.520847 
L 334.359168 252.681888 
L 336.032645 257.411667 
L 337.706122 262.930246 
L 339.379599 192.14538 
L 341.053076 262.622045 
L 342.726553 263.522812 
L 344.40003 256.171812 
L 346.073507 262.365463 
L 347.746985 253.705028 
L 349.420462 258.659496 
L 351.093939 255.412389 
L 352.767416 264.103207 
L 354.440893 247.370371 
L 356.11437 260.666832 
L 357.787847 260.167264 
L 359.461324 262.295799 
L 361.134801 196.747162 
L 362.808278 255.396945 
L 364.481755 252.596192 
L 366.155232 257.566271 
L 367.828709 254.49215 
L 369.502186 255.454523 
L 371.175663 258.029412 
L 372.84914 218.727139 
L 374.522617 233.028695 
L 376.196094 232.538108 
L 377.869571 260.789961 
L 379.543048 262.333652 
L 381.216525 256.036597 
L 382.890002 259.098296 
L 384.563479 256.91319 
L 386.236956 262.289252 
L 387.910433 257.894532 
L 389.58391 205.80804 
L 391.257388 250.132346 
L 392.930865 258.766762 
L 394.604342 258.98314 
L 396.277819 229.550941 
L 397.951296 258.283812 
L 399.624773 259.576797 
L 399.624773 259.576797 
" style="fill:none;stroke:#ff7f0e;stroke-linecap:square;stroke-width:1.5;"/>
   </g>
   <g id="line2d_19">
    <path clip-path="url(#p2f16f8614b)" d="M 74.970227 256.400613 
L 76.643704 262.295631 
L 78.317181 251.96057 
L 79.990658 257.552422 
L 81.664135 258.504807 
L 83.337612 260.00158 
L 85.01109 258.270131 
L 88.358044 263.079647 
L 90.031521 248.203907 
L 91.704998 262.759191 
L 93.378475 261.74285 
L 95.051952 261.325956 
L 96.725429 258.15229 
L 98.398906 211.992374 
L 100.072383 263.950701 
L 101.74586 264.120581 
L 103.419337 252.719238 
L 105.092814 235.711606 
L 106.766291 257.499461 
L 108.439768 252.556492 
L 110.113245 259.013188 
L 111.786722 264.408974 
L 113.460199 243.327917 
L 115.133676 253.714345 
L 116.807153 217.014071 
L 118.48063 258.845491 
L 120.154107 262.301003 
L 121.827584 245.601068 
L 123.501061 237.814289 
L 125.174538 262.765151 
L 126.848015 246.037099 
L 128.521493 261.749396 
L 130.19497 264.259658 
L 131.868447 254.545615 
L 133.541924 256.463395 
L 135.215401 260.37441 
L 136.888878 261.232454 
L 138.562355 260.028355 
L 140.235832 263.781073 
L 141.909309 263.352428 
L 143.582786 248.031425 
L 145.256263 252.966588 
L 146.92974 260.863822 
L 148.603217 262.089492 
L 150.276694 260.578199 
L 151.950171 260.944229 
L 153.623648 258.58446 
L 155.297125 261.660008 
L 156.970602 263.458016 
L 158.644079 250.120428 
L 160.317556 255.971549 
L 161.991033 264.139298 
L 163.66451 263.194803 
L 165.337987 263.264635 
L 167.011464 261.355668 
L 168.684941 262.819371 
L 170.358418 247.270491 
L 172.031896 252.719406 
L 173.705373 258.873356 
L 175.37885 260.729529 
L 177.052327 263.460198 
L 178.725804 258.235048 
L 180.399281 261.573641 
L 182.072758 261.404768 
L 183.746235 258.525623 
L 185.419712 260.666999 
L 187.093189 255.390146 
L 188.766666 258.90139 
L 190.440143 249.374433 
L 192.11362 264.467643 
L 193.787097 262.402141 
L 195.460574 227.07719 
L 197.134051 223.297446 
L 198.807528 263.249191 
L 200.481005 256.90849 
L 202.154482 262.566146 
L 203.827959 264.091792 
L 205.501436 264.205941 
L 207.174913 263.941804 
L 208.84839 263.858459 
L 210.521867 263.01569 
L 212.195344 255.268444 
L 213.868821 262.982453 
L 215.542299 257.698885 
L 217.215776 261.39092 
L 218.889253 258.98633 
L 220.56273 261.239169 
L 222.236207 250.694528 
L 223.909684 258.246378 
L 225.583161 261.447742 
L 227.256638 258.701965 
L 228.930115 262.30394 
L 230.603592 263.499311 
L 232.277069 261.55291 
L 233.950546 261.390332 
L 235.624023 249.407755 
L 237.2975 263.24852 
L 238.970977 263.779982 
L 240.644454 252.720077 
L 242.317931 260.221232 
L 243.991408 264.356012 
L 245.664885 257.711559 
L 247.338362 262.054744 
L 249.011839 257.696031 
L 250.685316 255.507988 
L 252.358793 246.621606 
L 254.03227 262.874683 
L 255.705747 260.266808 
L 257.379224 256.080326 
L 259.052701 263.259179 
L 260.726179 259.984626 
L 262.399656 244.026405 
L 264.073133 263.835629 
L 265.74661 246.283022 
L 267.420087 249.323822 
L 269.093564 264.652715 
L 270.767041 264.406456 
L 272.440518 258.895514 
L 274.113995 237.103631 
L 275.787472 262.061374 
L 277.460949 263.722488 
L 279.134426 243.916453 
L 280.807903 239.788052 
L 282.48138 263.606745 
L 284.154857 258.355995 
L 285.828334 263.66449 
L 287.501811 262.878712 
L 289.175288 264.579357 
L 290.848765 262.068593 
L 292.522242 264.408638 
L 294.195719 262.943508 
L 295.869196 261.306231 
L 297.542673 246.833872 
L 299.21615 261.159937 
L 300.889627 258.907349 
L 302.563104 255.854295 
L 304.236582 260.905704 
L 305.910059 264.307667 
L 307.583536 263.455246 
L 309.257013 258.956114 
L 310.93049 263.129755 
L 312.603967 260.064866 
L 314.277444 248.002133 
L 315.950921 260.229542 
L 317.624398 249.338762 
L 319.297875 257.02331 
L 320.971352 260.705692 
L 322.644829 263.61732 
L 324.318306 260.705189 
L 325.991783 256.474222 
L 327.66526 258.465947 
L 329.338737 243.3442 
L 331.012214 262.165115 
L 332.685691 264.611588 
L 334.359168 258.997493 
L 336.032645 263.081829 
L 337.706122 264.328482 
L 339.379599 248.452516 
L 341.053076 263.430738 
L 342.726553 264.462607 
L 344.40003 262.684323 
L 346.073507 264.209214 
L 347.746985 262.316866 
L 349.420462 254.053097 
L 352.767416 263.916121 
L 354.440893 263.955821 
L 356.11437 264.572559 
L 357.787847 264.191084 
L 359.461324 262.293365 
L 361.134801 253.235592 
L 362.808278 256.225865 
L 364.481755 263.253472 
L 366.155232 261.883185 
L 367.828709 262.128772 
L 369.502186 253.486635 
L 371.175663 264.394118 
L 372.84914 254.320759 
L 374.522617 262.893232 
L 376.196094 260.114806 
L 377.869571 262.025871 
L 379.543048 263.473291 
L 381.216525 264.180341 
L 382.890002 264.239346 
L 384.563479 261.923977 
L 386.236956 264.608062 
L 387.910433 259.059855 
L 389.58391 253.9695 
L 391.257388 264.567439 
L 392.930865 257.637698 
L 394.604342 262.821805 
L 396.277819 251.802776 
L 397.951296 262.673496 
L 399.624773 262.9984 
L 399.624773 262.9984 
" style="fill:none;stroke:#2ca02c;stroke-linecap:square;stroke-width:1.5;"/>
   </g>
   <g id="line2d_20">
    <path clip-path="url(#p2f16f8614b)" d="M 74.970227 253.710652 
L 76.643704 263.62202 
L 78.317181 229.274718 
L 79.990658 262.331974 
L 81.664135 263.781409 
L 83.337612 260.220981 
L 85.01109 261.732862 
L 86.684567 258.602002 
L 90.031521 249.914541 
L 91.704998 262.543484 
L 93.378475 260.908642 
L 95.051952 264.434993 
L 96.725429 263.308783 
L 98.398906 257.039845 
L 100.072383 263.831768 
L 101.74586 264.624178 
L 103.419337 260.703174 
L 105.092814 260.061425 
L 106.766291 254.75209 
L 108.439768 259.363188 
L 110.113245 238.415164 
L 111.786722 264.496684 
L 113.460199 253.067727 
L 115.133676 262.679959 
L 116.807153 213.683199 
L 118.48063 258.022194 
L 120.154107 248.435477 
L 121.827584 251.776421 
L 123.501061 263.902859 
L 125.174538 250.651638 
L 126.848015 260.997527 
L 130.19497 264.498111 
L 131.868447 258.288261 
L 133.541924 253.424525 
L 135.215401 262.448305 
L 136.888878 263.309706 
L 138.562355 262.682981 
L 140.235832 262.627585 
L 141.909309 261.028918 
L 143.582786 262.986146 
L 145.256263 261.448833 
L 146.92974 264.133674 
L 148.603217 262.158736 
L 150.276694 262.12659 
L 151.950171 263.275798 
L 153.623648 262.613736 
L 155.297125 262.662249 
L 156.970602 263.850569 
L 158.644079 256.824641 
L 160.317556 262.587381 
L 161.991033 263.620426 
L 163.66451 264.3869 
L 165.337987 261.503893 
L 167.011464 261.371699 
L 168.684941 262.890211 
L 170.358418 236.311473 
L 172.031896 262.379312 
L 173.705373 261.000045 
L 175.37885 259.991005 
L 177.052327 263.745737 
L 178.725804 264.274765 
L 180.399281 259.91429 
L 182.072758 259.426389 
L 183.746235 261.445728 
L 185.419712 261.943029 
L 187.093189 255.49053 
L 188.766666 243.755974 
L 190.440143 251.23153 
L 192.11362 263.152668 
L 193.787097 263.733399 
L 195.460574 254.828636 
L 197.134051 254.797077 
L 198.807528 262.158065 
L 200.481005 252.435042 
L 202.154482 261.617874 
L 203.827959 263.321289 
L 205.501436 264.449094 
L 207.174913 264.116216 
L 208.84839 264.318914 
L 210.521867 259.884662 
L 212.195344 262.502777 
L 213.868821 264.099178 
L 215.542299 262.084204 
L 217.215776 261.164721 
L 218.889253 261.273246 
L 220.56273 263.860893 
L 222.236207 256.595841 
L 223.909684 261.959648 
L 225.583161 262.219252 
L 227.256638 255.476681 
L 228.930115 264.2469 
L 230.603592 261.515056 
L 232.277069 262.68105 
L 233.950546 261.921375 
L 235.624023 262.285643 
L 237.2975 263.188843 
L 238.970977 263.912847 
L 240.644454 261.27568 
L 242.317931 263.161397 
L 243.991408 263.43292 
L 245.664885 261.764756 
L 247.338362 261.348953 
L 249.011839 263.298124 
L 250.685316 260.106748 
L 252.358793 248.769278 
L 254.03227 263.974622 
L 255.705747 263.109191 
L 257.379224 256.538011 
L 259.052701 262.08882 
L 260.726179 263.747248 
L 262.399656 261.167574 
L 264.073133 263.182632 
L 265.74661 256.300649 
L 267.420087 255.381585 
L 269.093564 264.427943 
L 270.767041 264.169849 
L 272.440518 251.882764 
L 274.113995 256.106932 
L 275.787472 262.926805 
L 277.460949 264.255797 
L 279.134426 241.036888 
L 280.807903 261.41333 
L 282.48138 264.047559 
L 284.154857 262.091255 
L 285.828334 263.606325 
L 287.501811 259.589471 
L 290.848765 261.01062 
L 292.522242 264.031948 
L 294.195719 262.421866 
L 295.869196 263.28033 
L 297.542673 258.36229 
L 299.21615 263.648207 
L 300.889627 259.855202 
L 302.563104 259.981269 
L 304.236582 263.026014 
L 305.910059 263.797524 
L 307.583536 263.510893 
L 309.257013 260.003175 
L 310.93049 264.485017 
L 312.603967 262.742992 
L 314.277444 255.134991 
L 315.950921 259.067241 
L 317.624398 259.266329 
L 320.971352 262.299576 
L 322.644829 258.575143 
L 324.318306 263.337656 
L 325.991783 262.637657 
L 327.66526 262.939479 
L 329.338737 256.201021 
L 331.012214 264.286768 
L 332.685691 264.211732 
L 334.359168 262.90599 
L 336.032645 261.214829 
L 337.706122 264.39118 
L 339.379599 256.406488 
L 341.053076 264.168087 
L 342.726553 264.582547 
L 344.40003 263.281337 
L 346.073507 264.550317 
L 347.746985 263.012333 
L 349.420462 264.060065 
L 351.093939 261.981219 
L 352.767416 263.490162 
L 354.440893 258.677037 
L 356.11437 264.014994 
L 357.787847 262.856218 
L 359.461324 263.649886 
L 361.134801 263.263795 
L 362.808278 263.993591 
L 364.481755 261.556603 
L 366.155232 263.436025 
L 367.828709 263.925269 
L 369.502186 261.081459 
L 371.175663 263.597764 
L 372.84914 262.921182 
L 374.522617 263.215282 
L 376.196094 263.712248 
L 377.869571 261.716075 
L 379.543048 263.922584 
L 381.216525 263.53708 
L 382.890002 258.597889 
L 384.563479 263.018796 
L 386.236956 264.511036 
L 387.910433 263.60003 
L 389.58391 259.889446 
L 391.257388 263.869118 
L 392.930865 262.413388 
L 394.604342 259.975309 
L 396.277819 253.347726 
L 397.951296 262.957021 
L 399.624773 263.049431 
L 399.624773 263.049431 
" style="fill:none;stroke:#d62728;stroke-linecap:square;stroke-width:1.5;"/>
   </g>
   <g id="line2d_21">
    <path clip-path="url(#p2f16f8614b)" d="M 74.970227 259.752384 
L 76.643704 263.82455 
L 78.317181 262.378389 
L 79.990658 264.121336 
L 81.664135 263.637632 
L 83.337612 264.117643 
L 85.01109 264.225833 
L 86.684567 262.934107 
L 88.358044 260.904026 
L 90.031521 263.652152 
L 91.704998 264.115041 
L 93.378475 263.861648 
L 95.051952 264.181264 
L 96.725429 264.340065 
L 98.398906 261.762742 
L 100.072383 264.530257 
L 101.74586 264.518506 
L 103.419337 263.315582 
L 105.092814 260.301472 
L 106.766291 253.657606 
L 108.439768 262.733508 
L 110.113245 262.440415 
L 111.786722 264.634166 
L 113.460199 261.710703 
L 115.133676 264.125953 
L 116.807153 247.586665 
L 118.48063 263.365018 
L 120.154107 260.904697 
L 121.827584 263.456001 
L 123.501061 261.341483 
L 125.174538 262.137837 
L 126.848015 258.85338 
L 128.521493 263.449287 
L 130.19497 264.58666 
L 131.868447 260.637035 
L 133.541924 252.976995 
L 135.215401 256.526764 
L 136.888878 262.900618 
L 138.562355 263.825557 
L 140.235832 264.083986 
L 141.909309 264.057715 
L 143.582786 261.995152 
L 145.256263 251.839706 
L 146.92974 264.390844 
L 148.603217 263.879022 
L 150.276694 263.727104 
L 151.950171 264.350305 
L 153.623648 264.189574 
L 155.297125 264.300952 
L 156.970602 264.567019 
L 158.644079 263.696888 
L 160.317556 264.085077 
L 161.991033 264.350892 
L 163.66451 264.48871 
L 165.337987 263.245078 
L 167.011464 263.083927 
L 168.684941 264.384885 
L 170.358418 262.216902 
L 172.031896 262.323413 
L 173.705373 261.138282 
L 175.37885 261.455716 
L 177.052327 264.009874 
L 178.725804 264.169849 
L 180.399281 263.603891 
L 182.072758 263.978063 
L 183.746235 263.742128 
L 185.419712 264.068123 
L 187.093189 263.80726 
L 188.766666 263.714095 
L 190.440143 262.498664 
L 192.11362 263.348903 
L 193.787097 263.967991 
L 195.460574 262.64563 
L 197.134051 261.974504 
L 198.807528 264.158351 
L 200.481005 260.635105 
L 202.154482 264.198387 
L 203.827959 264.476036 
L 207.174913 264.580365 
L 208.84839 264.630976 
L 210.521867 264.107152 
L 212.195344 264.063926 
L 213.868821 263.666756 
L 215.542299 264.095233 
L 217.215776 264.064262 
L 218.889253 263.787871 
L 220.56273 264.200317 
L 222.236207 262.659311 
L 223.909684 263.573759 
L 225.583161 264.134094 
L 227.256638 262.612057 
L 228.930115 264.559969 
L 230.603592 264.341576 
L 232.277069 263.562008 
L 233.950546 263.133532 
L 235.624023 263.129923 
L 237.2975 261.131399 
L 238.970977 264.325209 
L 240.644454 262.622801 
L 242.317931 263.659035 
L 243.991408 264.290125 
L 245.664885 262.458796 
L 247.338362 263.950617 
L 249.011839 264.077272 
L 250.685316 262.833892 
L 252.358793 261.888641 
L 254.03227 264.587835 
L 255.705747 263.794334 
L 257.379224 259.975058 
L 259.052701 263.885233 
L 260.726179 263.956408 
L 262.399656 260.054206 
L 264.073133 264.122679 
L 265.74661 262.746266 
L 267.420087 261.977274 
L 269.093564 264.523206 
L 270.767041 264.474525 
L 272.440518 261.374888 
L 274.113995 262.536938 
L 275.787472 264.380437 
L 277.460949 264.407715 
L 279.134426 261.963929 
L 280.807903 262.283712 
L 282.48138 264.516744 
L 284.154857 260.902599 
L 285.828334 264.257475 
L 287.501811 262.624899 
L 289.175288 264.335869 
L 290.848765 264.340233 
L 292.522242 264.512463 
L 294.195719 263.478747 
L 295.869196 264.023303 
L 297.542673 263.516853 
L 299.21615 264.244214 
L 300.889627 264.165317 
L 302.563104 262.927141 
L 305.910059 264.448087 
L 307.583536 263.769658 
L 309.257013 263.478243 
L 310.93049 264.628542 
L 312.603967 264.126288 
L 314.277444 257.494593 
L 315.950921 263.691685 
L 317.624398 263.77268 
L 319.297875 257.436595 
L 320.971352 264.398818 
L 322.644829 264.18949 
L 324.318306 261.157838 
L 327.66526 263.716109 
L 329.338737 259.598451 
L 331.012214 264.145845 
L 332.685691 264.603446 
L 334.359168 263.823795 
L 336.032645 264.075761 
L 337.706122 264.471084 
L 339.379599 262.620702 
L 341.053076 264.651959 
L 342.726553 264.613434 
L 344.40003 263.637464 
L 346.073507 264.655065 
L 347.746985 264.452535 
L 349.420462 264.072739 
L 352.767416 264.616875 
L 354.440893 263.692944 
L 356.11437 264.661108 
L 357.787847 263.992583 
L 359.461324 263.694958 
L 361.134801 258.906594 
L 362.808278 263.8269 
L 366.155232 264.213662 
L 369.502186 263.487056 
L 371.175663 264.33142 
L 372.84914 263.317009 
L 374.522617 264.237919 
L 376.196094 262.222609 
L 377.869571 264.145593 
L 379.543048 264.464873 
L 381.216525 264.14425 
L 384.563479 264.154238 
L 386.236956 264.576588 
L 387.910433 264.255965 
L 389.58391 263.636625 
L 391.257388 264.29961 
L 392.930865 263.807596 
L 394.604342 263.972943 
L 396.277819 263.076625 
L 397.951296 263.948351 
L 399.624773 263.761517 
L 399.624773 263.761517 
" style="fill:none;stroke:#9467bd;stroke-linecap:square;stroke-width:1.5;"/>
   </g>
   <g id="line2d_22">
    <path clip-path="url(#p2f16f8614b)" d="M 74.970227 255.230506 
L 76.643704 262.026123 
L 78.317181 258.010024 
L 79.990658 259.628331 
L 81.664135 262.703208 
L 85.01109 262.101578 
L 86.684567 249.600212 
L 88.358044 259.658128 
L 90.031521 256.021824 
L 91.704998 261.788257 
L 93.378475 263.101553 
L 95.051952 263.545893 
L 96.725429 263.050942 
L 98.398906 250.327742 
L 100.072383 263.69437 
L 101.74586 263.377608 
L 103.419337 255.620038 
L 105.092814 255.698012 
L 106.766291 247.339232 
L 108.439768 253.59516 
L 110.113245 258.493477 
L 111.786722 264.395125 
L 113.460199 256.173323 
L 115.133676 263.139407 
L 116.807153 215.336171 
L 118.48063 250.511386 
L 120.154107 256.171309 
L 121.827584 256.255409 
L 123.501061 259.479267 
L 125.174538 249.304098 
L 126.848015 255.900877 
L 128.521493 263.550845 
L 130.19497 264.24967 
L 131.868447 257.274437 
L 133.541924 255.491957 
L 135.215401 257.034725 
L 136.888878 263.468675 
L 138.562355 263.802644 
L 140.235832 261.956123 
L 141.909309 262.917489 
L 143.582786 253.955064 
L 145.256263 254.569955 
L 146.92974 262.795115 
L 148.603217 262.541386 
L 150.276694 261.848521 
L 151.950171 263.01334 
L 153.623648 263.332033 
L 155.297125 261.45496 
L 156.970602 264.296 
L 158.644079 257.360468 
L 160.317556 262.572189 
L 161.991033 264.090785 
L 163.66451 263.893123 
L 165.337987 260.929121 
L 167.011464 263.704274 
L 168.684941 263.409419 
L 170.358418 257.185552 
L 172.031896 255.828108 
L 173.705373 253.188842 
L 175.37885 258.599735 
L 177.052327 262.110391 
L 178.725804 263.905042 
L 180.399281 262.985558 
L 182.072758 262.873676 
L 183.746235 264.005425 
L 185.419712 263.354527 
L 187.093189 258.305467 
L 188.766666 256.133287 
L 190.440143 258.245707 
L 192.11362 262.120715 
L 193.787097 262.81786 
L 195.460574 256.713095 
L 197.134051 258.638512 
L 198.807528 263.334802 
L 200.481005 253.771251 
L 202.154482 263.048508 
L 203.827959 264.055029 
L 205.501436 264.115881 
L 207.174913 263.787955 
L 208.84839 264.400749 
L 210.521867 263.190606 
L 212.195344 263.790977 
L 213.868821 261.492394 
L 215.542299 263.896229 
L 217.215776 263.07822 
L 218.889253 263.206469 
L 220.56273 262.374192 
L 222.236207 249.843198 
L 223.909684 263.706037 
L 225.583161 263.726768 
L 227.256638 258.658153 
L 228.930115 264.20443 
L 230.603592 263.052956 
L 232.277069 263.296109 
L 233.950546 263.766385 
L 235.624023 260.086688 
L 237.2975 260.12429 
L 238.970977 264.176984 
L 240.644454 254.040843 
L 242.317931 262.747441 
L 243.991408 261.6799 
L 245.664885 256.114067 
L 247.338362 263.850234 
L 249.011839 262.566146 
L 250.685316 253.412103 
L 252.358793 260.255897 
L 254.03227 264.372379 
L 255.705747 263.485042 
L 257.379224 257.241535 
L 259.052701 263.830761 
L 260.726179 262.614072 
L 262.399656 248.096809 
L 264.073133 262.118784 
L 265.74661 260.560741 
L 267.420087 248.645057 
L 269.093564 264.060149 
L 270.767041 263.878267 
L 272.440518 256.693706 
L 274.113995 252.81383 
L 275.787472 263.785941 
L 277.460949 264.357271 
L 279.134426 258.011367 
L 280.807903 259.618427 
L 282.48138 262.240655 
L 284.154857 253.21805 
L 285.828334 263.212596 
L 287.501811 256.286213 
L 289.175288 263.497716 
L 290.848765 264.11437 
L 294.195719 263.602968 
L 295.869196 261.702058 
L 297.542673 254.915591 
L 299.21615 261.462262 
L 300.889627 262.333065 
L 302.563104 259.163092 
L 305.910059 264.08961 
L 307.583536 263.712416 
L 309.257013 263.120606 
L 310.93049 264.045377 
L 312.603967 263.416553 
L 314.277444 256.610948 
L 315.950921 262.76087 
L 317.624398 253.88817 
L 319.297875 255.754415 
L 320.971352 263.420078 
L 322.644829 262.523592 
L 324.318306 257.12831 
L 325.991783 255.896681 
L 327.66526 262.259456 
L 329.338737 259.244927 
L 331.012214 262.538868 
L 332.685691 263.748255 
L 334.359168 262.653352 
L 336.032645 263.207896 
L 337.706122 264.265533 
L 339.379599 258.709184 
L 341.053076 264.15365 
L 342.726553 264.273171 
L 344.40003 261.076927 
L 346.073507 264.358782 
L 347.746985 260.731628 
L 349.420462 263.603303 
L 351.093939 262.731242 
L 352.767416 264.492487 
L 354.440893 262.964827 
L 356.11437 263.970006 
L 357.787847 263.088208 
L 359.461324 262.80888 
L 361.134801 238.452682 
L 362.808278 263.578123 
L 364.481755 263.278903 
L 366.155232 262.592837 
L 367.828709 262.274983 
L 369.502186 263.558399 
L 371.175663 262.812741 
L 372.84914 257.393034 
L 374.522617 262.801578 
L 376.196094 250.643832 
L 377.869571 263.831013 
L 379.543048 264.370617 
L 381.216525 261.845499 
L 382.890002 262.689192 
L 384.563479 263.029959 
L 386.236956 264.010293 
L 387.910433 262.428832 
L 389.58391 254.385975 
L 391.257388 263.274371 
L 392.930865 263.457092 
L 394.604342 262.043077 
L 396.277819 253.294093 
L 397.951296 262.894827 
L 399.624773 261.241435 
L 399.624773 261.241435 
" style="fill:none;stroke:#8c564b;stroke-linecap:square;stroke-width:1.5;"/>
   </g>
   <g id="line2d_23">
    <path clip-path="url(#p2f16f8614b)" d="M 74.970227 263.20563 
L 76.643704 264.354669 
L 78.317181 263.875581 
L 81.664135 264.517331 
L 85.01109 264.455137 
L 86.684567 263.982176 
L 88.358044 264.023051 
L 90.031521 263.852919 
L 91.704998 264.567775 
L 93.378475 264.537139 
L 95.051952 264.364741 
L 96.725429 264.379346 
L 98.398906 263.942056 
L 100.072383 264.652966 
L 101.74586 264.634837 
L 103.419337 264.057044 
L 106.766291 263.827068 
L 108.439768 263.987967 
L 110.113245 263.736169 
L 111.786722 264.673782 
L 113.460199 263.30316 
L 115.133676 264.47335 
L 116.807153 261.083893 
L 118.48063 264.038914 
L 120.154107 263.172141 
L 121.827584 264.187559 
L 123.501061 263.8525 
L 125.174538 264.183027 
L 126.848015 263.10852 
L 128.521493 264.307667 
L 130.19497 264.65112 
L 131.868447 262.961553 
L 133.541924 260.417719 
L 135.215401 264.124106 
L 136.888878 264.413506 
L 138.562355 264.228351 
L 140.235832 264.538566 
L 141.909309 264.54889 
L 143.582786 263.371229 
L 145.256263 263.331025 
L 146.92974 264.520688 
L 148.603217 264.379094 
L 153.623648 264.565844 
L 156.970602 264.605628 
L 158.644079 263.248771 
L 160.317556 264.480988 
L 161.991033 264.656492 
L 163.66451 264.6716 
L 165.337987 264.290377 
L 167.011464 264.536216 
L 168.684941 264.472931 
L 170.358418 263.435857 
L 172.031896 262.964995 
L 175.37885 264.113782 
L 178.725804 264.492151 
L 182.072758 264.512547 
L 183.746235 264.429286 
L 185.419712 264.137619 
L 187.093189 263.628063 
L 188.766666 264.110677 
L 190.440143 263.853591 
L 192.11362 264.547379 
L 193.787097 264.51389 
L 195.460574 263.688999 
L 197.134051 263.694622 
L 198.807528 264.45371 
L 200.481005 264.187811 
L 203.827959 264.660353 
L 208.84839 264.654309 
L 210.521867 264.355844 
L 213.868821 264.627535 
L 215.542299 264.462775 
L 220.56273 264.470748 
L 222.236207 264.170941 
L 225.583161 264.53118 
L 227.256638 264.239849 
L 228.930115 264.609909 
L 232.277069 264.537727 
L 233.950546 264.203674 
L 235.624023 264.343422 
L 237.2975 263.593231 
L 238.970977 264.648602 
L 240.644454 262.8887 
L 242.317931 264.547211 
L 243.991408 264.56341 
L 245.664885 262.88358 
L 247.338362 264.422067 
L 249.011839 264.461852 
L 250.685316 263.955737 
L 252.358793 264.013147 
L 254.03227 264.655904 
L 255.705747 264.544441 
L 257.379224 264.077943 
L 259.052701 264.450689 
L 260.726179 264.611336 
L 262.399656 264.375317 
L 264.073133 264.359789 
L 265.74661 263.788711 
L 267.420087 263.561673 
L 269.093564 264.63576 
L 270.767041 264.668074 
L 272.440518 263.101385 
L 274.113995 263.391625 
L 275.787472 264.51817 
L 277.460949 264.630808 
L 279.134426 264.090281 
L 280.807903 263.950953 
L 282.48138 264.400916 
L 284.154857 263.579382 
L 285.828334 264.454717 
L 287.501811 264.130821 
L 289.175288 264.516324 
L 292.522242 264.679825 
L 294.195719 264.402679 
L 295.869196 264.302547 
L 297.542673 263.813975 
L 299.21615 264.548638 
L 300.889627 264.372799 
L 302.563104 263.70268 
L 304.236582 264.60118 
L 305.910059 264.60823 
L 309.257013 264.280053 
L 310.93049 264.622751 
L 312.603967 264.505916 
L 314.277444 263.396745 
L 315.950921 264.566012 
L 317.624398 263.637632 
L 319.297875 263.413112 
L 320.971352 264.521947 
L 322.644829 264.5013 
L 324.318306 263.935257 
L 325.991783 263.884898 
L 327.66526 264.521612 
L 329.338737 263.961444 
L 331.012214 264.609489 
L 332.685691 264.669669 
L 334.359168 264.428782 
L 337.706122 264.639453 
L 339.379599 263.993675 
L 341.053076 264.671851 
L 347.746985 264.512211 
L 349.420462 264.603782 
L 351.093939 264.555604 
L 352.767416 264.669753 
L 354.440893 264.543182 
L 356.11437 264.661444 
L 357.787847 264.451192 
L 359.461324 264.479058 
L 361.134801 264.281564 
L 364.481755 264.490137 
L 366.155232 264.421228 
L 367.828709 264.530593 
L 369.502186 264.285677 
L 371.175663 264.56148 
L 372.84914 263.755725 
L 374.522617 264.609993 
L 376.196094 264.097499 
L 377.869571 264.599082 
L 379.543048 264.641216 
L 381.216525 264.438266 
L 382.890002 264.522535 
L 384.563479 264.389585 
L 386.236956 264.643818 
L 387.910433 264.531684 
L 389.58391 263.128664 
L 391.257388 264.56425 
L 394.604342 264.463698 
L 396.277819 263.947931 
L 397.951296 264.579022 
L 399.624773 264.560724 
L 399.624773 264.560724 
" style="fill:none;stroke:#e377c2;stroke-linecap:square;stroke-width:1.5;"/>
   </g>
   <g id="line2d_24">
    <path clip-path="url(#p2f16f8614b)" d="M 74.970227 258.010695 
L 76.643704 262.927728 
L 78.317181 255.445962 
L 79.990658 262.272214 
L 81.664135 262.234444 
L 83.337612 262.650582 
L 85.01109 262.467777 
L 86.684567 258.766006 
L 88.358044 257.816643 
L 90.031521 255.10553 
L 91.704998 262.640511 
L 93.378475 261.905931 
L 95.051952 262.178293 
L 96.725429 262.228652 
L 98.398906 255.78547 
L 100.072383 264.284753 
L 101.74586 264.267547 
L 103.419337 255.762892 
L 105.092814 255.646225 
L 106.766291 257.319761 
L 108.439768 256.774282 
L 110.113245 259.032493 
L 111.786722 264.285677 
L 113.460199 257.245144 
L 115.133676 262.98539 
L 116.807153 228.609551 
L 118.48063 255.65487 
L 120.154107 257.129737 
L 121.827584 257.329329 
L 123.501061 257.70711 
L 125.174538 259.864099 
L 126.848015 258.577913 
L 128.521493 262.611554 
L 130.19497 264.325881 
L 131.868447 255.318636 
L 133.541924 259.42513 
L 136.888878 263.441229 
L 138.562355 263.169371 
L 140.235832 263.4231 
L 141.909309 263.166853 
L 143.582786 259.770094 
L 145.256263 257.759736 
L 146.92974 263.088544 
L 148.603217 262.861673 
L 150.276694 263.773099 
L 151.950171 262.793436 
L 153.623648 263.323304 
L 156.970602 264.129646 
L 158.644079 260.878594 
L 160.317556 263.445594 
L 161.991033 264.368183 
L 163.66451 264.459753 
L 165.337987 263.247261 
L 167.011464 263.473208 
L 168.684941 263.16828 
L 170.358418 257.23096 
L 172.031896 259.263476 
L 173.705373 260.612107 
L 175.37885 259.792504 
L 177.052327 262.928568 
L 178.725804 263.491673 
L 182.072758 262.970786 
L 183.746235 263.360066 
L 185.419712 262.751386 
L 187.093189 258.964507 
L 188.766666 259.37838 
L 190.440143 258.551054 
L 192.11362 263.797608 
L 193.787097 263.758915 
L 195.460574 258.649508 
L 197.134051 260.611268 
L 198.807528 263.617908 
L 200.481005 259.116342 
L 202.154482 263.446853 
L 203.827959 264.217272 
L 205.501436 264.364238 
L 208.84839 264.44666 
L 210.521867 263.34286 
L 212.195344 263.503172 
L 213.868821 263.003016 
L 215.542299 263.415126 
L 218.889253 263.180198 
L 220.56273 263.327332 
L 222.236207 258.380419 
L 223.909684 263.060426 
L 225.583161 262.967093 
L 227.256638 259.135478 
L 228.930115 264.395041 
L 230.603592 263.214527 
L 232.277069 263.410845 
L 233.950546 262.729479 
L 235.624023 260.115477 
L 237.2975 256.307112 
L 238.970977 264.356432 
L 240.644454 260.127312 
L 242.317931 262.835738 
L 243.991408 263.165174 
L 245.664885 260.263031 
L 247.338362 262.886601 
L 249.011839 263.460618 
L 250.685316 258.978944 
L 252.358793 259.576629 
L 254.03227 264.383123 
L 255.705747 263.339922 
L 257.379224 259.232505 
L 259.052701 263.236265 
L 260.726179 262.633208 
L 262.399656 258.682577 
L 264.073133 263.44509 
L 265.74661 258.91356 
L 267.420087 258.154976 
L 269.093564 264.378255 
L 270.767041 264.245137 
L 272.440518 259.109375 
L 274.113995 258.825598 
L 275.787472 263.530198 
L 277.460949 264.362223 
L 279.134426 258.620719 
L 280.807903 257.382123 
L 282.48138 263.08334 
L 284.154857 258.785898 
L 285.828334 263.246505 
L 287.501811 258.512529 
L 289.175288 262.727633 
L 290.848765 263.209407 
L 292.522242 264.334693 
L 294.195719 262.59611 
L 295.869196 263.228627 
L 297.542673 259.783943 
L 299.21615 263.582656 
L 300.889627 263.456841 
L 302.563104 258.064916 
L 304.236582 262.961134 
L 305.910059 264.494166 
L 307.583536 263.198496 
L 309.257013 263.390282 
L 310.93049 264.356768 
L 312.603967 263.462716 
L 314.277444 261.202407 
L 315.950921 262.912201 
L 317.624398 258.564651 
L 319.297875 258.504807 
L 320.971352 263.504263 
L 322.644829 263.693951 
L 324.318306 259.089483 
L 325.991783 259.159903 
L 327.66526 263.455833 
L 329.338737 260.178175 
L 331.012214 263.128915 
L 332.685691 264.488458 
L 336.032645 262.832633 
L 337.706122 264.414094 
L 339.379599 257.069641 
L 341.053076 264.333099 
L 342.726553 264.343674 
L 344.40003 263.172644 
L 346.073507 264.442211 
L 347.746985 263.53708 
L 349.420462 263.35738 
L 351.093939 263.891109 
L 352.767416 264.301456 
L 354.440893 263.415126 
L 356.11437 264.33931 
L 357.787847 263.335138 
L 359.461324 263.733315 
L 361.134801 260.012324 
L 362.808278 263.541865 
L 364.481755 263.299047 
L 367.828709 263.163412 
L 369.502186 263.533219 
L 371.175663 263.363004 
L 372.84914 259.262049 
L 374.522617 263.451637 
L 376.196094 260.958246 
L 377.869571 263.054551 
L 379.543048 264.428111 
L 381.216525 263.363004 
L 382.890002 263.241385 
L 384.563479 263.411097 
L 386.236956 264.355593 
L 387.910433 263.245498 
L 389.58391 259.56555 
L 391.257388 262.8584 
L 392.930865 263.689083 
L 394.604342 263.599023 
L 396.277819 258.212302 
L 397.951296 263.537332 
L 399.624773 263.389107 
L 399.624773 263.389107 
" style="fill:none;stroke:#7f7f7f;stroke-linecap:square;stroke-width:1.5;"/>
   </g>
   <g id="line2d_25">
    <path clip-path="url(#p2f16f8614b)" d="M 74.970227 264.700556 
L 399.624773 264.700556 
L 399.624773 264.700556 
" style="fill:none;stroke:#bcbd22;stroke-linecap:square;stroke-width:1.5;"/>
   </g>
   <g id="line2d_26">
    <path clip-path="url(#p2f16f8614b)" d="M 74.970227 264.700556 
L 399.624773 264.700556 
L 399.624773 264.700556 
" style="fill:none;stroke:#17becf;stroke-linecap:square;stroke-width:1.5;"/>
   </g>
   <g id="line2d_27">
    <path clip-path="url(#p2f16f8614b)" d="M 74.970227 264.707439 
L 98.398906 264.699213 
L 105.092814 264.678902 
L 115.133676 264.701396 
L 138.562355 264.69317 
L 150.276694 264.699633 
L 156.970602 264.681084 
L 167.011464 264.701312 
L 212.195344 264.698962 
L 240.644454 264.701731 
L 290.848765 264.70341 
L 304.236582 264.703326 
L 399.624773 264.69871 
L 399.624773 264.69871 
" style="fill:none;stroke:#1f77b4;stroke-linecap:square;stroke-width:1.5;"/>
   </g>
   <g id="line2d_28">
    <path clip-path="url(#p2f16f8614b)" d="M 74.970227 264.700556 
L 399.624773 264.700556 
L 399.624773 264.700556 
" style="fill:none;stroke:#ff7f0e;stroke-linecap:square;stroke-width:1.5;"/>
   </g>
   <g id="patch_3">
    <path d="M 58.7375 276.812 
L 58.7375 10.7 
" style="fill:none;stroke:#000000;stroke-linecap:square;stroke-linejoin:miter;stroke-width:0.8;"/>
   </g>
   <g id="patch_4">
    <path d="M 415.8575 276.812 
L 415.8575 10.7 
" style="fill:none;stroke:#000000;stroke-linecap:square;stroke-linejoin:miter;stroke-width:0.8;"/>
   </g>
   <g id="patch_5">
    <path d="M 58.7375 276.812 
L 415.8575 276.812 
" style="fill:none;stroke:#000000;stroke-linecap:square;stroke-linejoin:miter;stroke-width:0.8;"/>
   </g>
   <g id="patch_6">
    <path d="M 58.7375 10.7 
L 415.8575 10.7 
" style="fill:none;stroke:#000000;stroke-linecap:square;stroke-linejoin:miter;stroke-width:0.8;"/>
   </g>
   <g id="legend_1">
    <g id="patch_7">
     <path d="M 318.504375 165.48125 
L 408.8575 165.48125 
Q 410.8575 165.48125 410.8575 163.48125 
L 410.8575 17.7 
Q 410.8575 15.7 408.8575 15.7 
L 318.504375 15.7 
Q 316.504375 15.7 316.504375 17.7 
L 316.504375 163.48125 
Q 316.504375 165.48125 318.504375 165.48125 
z
" style="fill:#ffffff;opacity:0.8;stroke:#cccccc;stroke-linejoin:miter;"/>
    </g>
    <g id="line2d_29">
     <path d="M 320.504375 23.798437 
L 340.504375 23.798437 
" style="fill:none;stroke:#1f77b4;stroke-linecap:square;stroke-width:1.5;"/>
    </g>
    <g id="line2d_30"/>
    <g id="text_17">
     <!-- delta -->
     <defs>
      <path d="M 45.40625 46.390625 
L 45.40625 75.984375 
L 54.390625 75.984375 
L 54.390625 0 
L 45.40625 0 
L 45.40625 8.203125 
Q 42.578125 3.328125 38.25 0.953125 
Q 33.9375 -1.421875 27.875 -1.421875 
Q 17.96875 -1.421875 11.734375 6.484375 
Q 5.515625 14.40625 5.515625 27.296875 
Q 5.515625 40.1875 11.734375 48.09375 
Q 17.96875 56 27.875 56 
Q 33.9375 56 38.25 53.625 
Q 42.578125 51.265625 45.40625 46.390625 
M 14.796875 27.296875 
Q 14.796875 17.390625 18.875 11.75 
Q 22.953125 6.109375 30.078125 6.109375 
Q 37.203125 6.109375 41.296875 11.75 
Q 45.40625 17.390625 45.40625 27.296875 
Q 45.40625 37.203125 41.296875 42.84375 
Q 37.203125 48.484375 30.078125 48.484375 
Q 22.953125 48.484375 18.875 42.84375 
Q 14.796875 37.203125 14.796875 27.296875 
" id="DejaVuSans-64"/>
      <path d="M 56.203125 29.59375 
L 56.203125 25.203125 
L 14.890625 25.203125 
Q 15.484375 15.921875 20.484375 11.0625 
Q 25.484375 6.203125 34.421875 6.203125 
Q 39.59375 6.203125 44.453125 7.46875 
Q 49.3125 8.734375 54.109375 11.28125 
L 54.109375 2.78125 
Q 49.265625 0.734375 44.1875 -0.34375 
Q 39.109375 -1.421875 33.890625 -1.421875 
Q 20.796875 -1.421875 13.15625 6.1875 
Q 5.515625 13.8125 5.515625 26.8125 
Q 5.515625 40.234375 12.765625 48.109375 
Q 20.015625 56 32.328125 56 
Q 43.359375 56 49.78125 48.890625 
Q 56.203125 41.796875 56.203125 29.59375 
M 47.21875 32.234375 
Q 47.125 39.59375 43.09375 43.984375 
Q 39.0625 48.390625 32.421875 48.390625 
Q 24.90625 48.390625 20.390625 44.140625 
Q 15.875 39.890625 15.1875 32.171875 
z
" id="DejaVuSans-65"/>
      <path d="M 9.421875 75.984375 
L 18.40625 75.984375 
L 18.40625 0 
L 9.421875 0 
z
" id="DejaVuSans-6c"/>
      <path d="M 18.3125 70.21875 
L 18.3125 54.6875 
L 36.8125 54.6875 
L 36.8125 47.703125 
L 18.3125 47.703125 
L 18.3125 18.015625 
Q 18.3125 11.328125 20.140625 9.421875 
Q 21.96875 7.515625 27.59375 7.515625 
L 36.8125 7.515625 
L 36.8125 0 
L 27.59375 0 
Q 17.1875 0 13.234375 3.875 
Q 9.28125 7.765625 9.28125 18.015625 
L 9.28125 47.703125 
L 2.6875 47.703125 
L 2.6875 54.6875 
L 9.28125 54.6875 
L 9.28125 70.21875 
z
" id="DejaVuSans-74"/>
      <path d="M 34.28125 27.484375 
Q 23.390625 27.484375 19.1875 25 
Q 14.984375 22.515625 14.984375 16.5 
Q 14.984375 11.71875 18.140625 8.90625 
Q 21.296875 6.109375 26.703125 6.109375 
Q 34.1875 6.109375 38.703125 11.40625 
Q 43.21875 16.703125 43.21875 25.484375 
L 43.21875 27.484375 
z
M 52.203125 31.203125 
L 52.203125 0 
L 43.21875 0 
L 43.21875 8.296875 
Q 40.140625 3.328125 35.546875 0.953125 
Q 30.953125 -1.421875 24.3125 -1.421875 
Q 15.921875 -1.421875 10.953125 3.296875 
Q 6 8.015625 6 15.921875 
Q 6 25.140625 12.171875 29.828125 
Q 18.359375 34.515625 30.609375 34.515625 
L 43.21875 34.515625 
L 43.21875 35.40625 
Q 43.21875 41.609375 39.140625 45 
Q 35.0625 48.390625 27.6875 48.390625 
Q 23 48.390625 18.546875 47.265625 
Q 14.109375 46.140625 10.015625 43.890625 
L 10.015625 52.203125 
Q 14.9375 54.109375 19.578125 55.046875 
Q 24.21875 56 28.609375 56 
Q 40.484375 56 46.34375 49.84375 
Q 52.203125 43.703125 52.203125 31.203125 
" id="DejaVuSans-61"/>
     </defs>
     <g transform="translate(348.504375 27.298437)scale(0.1 -0.1)">
      <use xlink:href="#DejaVuSans-64"/>
      <use x="63.476562" xlink:href="#DejaVuSans-65"/>
      <use x="125" xlink:href="#DejaVuSans-6c"/>
      <use x="152.783203" xlink:href="#DejaVuSans-74"/>
      <use x="191.992188" xlink:href="#DejaVuSans-61"/>
     </g>
    </g>
    <g id="line2d_31">
     <path d="M 320.504375 38.476562 
L 340.504375 38.476562 
" style="fill:none;stroke:#ff7f0e;stroke-linecap:square;stroke-width:1.5;"/>
    </g>
    <g id="line2d_32"/>
    <g id="text_18">
     <!-- lowAlpha -->
     <defs>
      <path d="M 30.609375 48.390625 
Q 23.390625 48.390625 19.1875 42.75 
Q 14.984375 37.109375 14.984375 27.296875 
Q 14.984375 17.484375 19.15625 11.84375 
Q 23.34375 6.203125 30.609375 6.203125 
Q 37.796875 6.203125 41.984375 11.859375 
Q 46.1875 17.53125 46.1875 27.296875 
Q 46.1875 37.015625 41.984375 42.703125 
Q 37.796875 48.390625 30.609375 48.390625 
M 30.609375 56 
Q 42.328125 56 49.015625 48.375 
Q 55.71875 40.765625 55.71875 27.296875 
Q 55.71875 13.875 49.015625 6.21875 
Q 42.328125 -1.421875 30.609375 -1.421875 
Q 18.84375 -1.421875 12.171875 6.21875 
Q 5.515625 13.875 5.515625 27.296875 
Q 5.515625 40.765625 12.171875 48.375 
Q 18.84375 56 30.609375 56 
" id="DejaVuSans-6f"/>
      <path d="M 4.203125 54.6875 
L 13.1875 54.6875 
L 24.421875 12.015625 
L 35.59375 54.6875 
L 46.1875 54.6875 
L 57.421875 12.015625 
L 68.609375 54.6875 
L 77.59375 54.6875 
L 63.28125 0 
L 52.6875 0 
L 40.921875 44.828125 
L 29.109375 0 
L 18.5 0 
z
" id="DejaVuSans-77"/>
      <path d="M 34.1875 63.1875 
L 20.796875 26.90625 
L 47.609375 26.90625 
z
M 28.609375 72.90625 
L 39.796875 72.90625 
L 67.578125 0 
L 57.328125 0 
L 50.6875 18.703125 
L 17.828125 18.703125 
L 11.1875 0 
L 0.78125 0 
z
" id="DejaVuSans-41"/>
      <path d="M 18.109375 8.203125 
L 18.109375 -20.796875 
L 9.078125 -20.796875 
L 9.078125 54.6875 
L 18.109375 54.6875 
L 18.109375 46.390625 
Q 20.953125 51.265625 25.265625 53.625 
Q 29.59375 56 35.59375 56 
Q 45.5625 56 51.78125 48.09375 
Q 58.015625 40.1875 58.015625 27.296875 
Q 58.015625 14.40625 51.78125 6.484375 
Q 45.5625 -1.421875 35.59375 -1.421875 
Q 29.59375 -1.421875 25.265625 0.953125 
Q 20.953125 3.328125 18.109375 8.203125 
M 48.6875 27.296875 
Q 48.6875 37.203125 44.609375 42.84375 
Q 40.53125 48.484375 33.40625 48.484375 
Q 26.265625 48.484375 22.1875 42.84375 
Q 18.109375 37.203125 18.109375 27.296875 
Q 18.109375 17.390625 22.1875 11.75 
Q 26.265625 6.109375 33.40625 6.109375 
Q 40.53125 6.109375 44.609375 11.75 
Q 48.6875 17.390625 48.6875 27.296875 
" id="DejaVuSans-70"/>
      <path d="M 54.890625 33.015625 
L 54.890625 0 
L 45.90625 0 
L 45.90625 32.71875 
Q 45.90625 40.484375 42.875 44.328125 
Q 39.84375 48.1875 33.796875 48.1875 
Q 26.515625 48.1875 22.3125 43.546875 
Q 18.109375 38.921875 18.109375 30.90625 
L 18.109375 0 
L 9.078125 0 
L 9.078125 75.984375 
L 18.109375 75.984375 
L 18.109375 46.1875 
Q 21.34375 51.125 25.703125 53.5625 
Q 30.078125 56 35.796875 56 
Q 45.21875 56 50.046875 50.171875 
Q 54.890625 44.34375 54.890625 33.015625 
" id="DejaVuSans-68"/>
     </defs>
     <g transform="translate(348.504375 41.976562)scale(0.1 -0.1)">
      <use xlink:href="#DejaVuSans-6c"/>
      <use x="27.783203" xlink:href="#DejaVuSans-6f"/>
      <use x="88.964844" xlink:href="#DejaVuSans-77"/>
      <use x="170.751953" xlink:href="#DejaVuSans-41"/>
      <use x="239.160156" xlink:href="#DejaVuSans-6c"/>
      <use x="266.943359" xlink:href="#DejaVuSans-70"/>
      <use x="330.419922" xlink:href="#DejaVuSans-68"/>
      <use x="393.798828" xlink:href="#DejaVuSans-61"/>
     </g>
    </g>
    <g id="line2d_33">
     <path d="M 320.504375 53.154687 
L 340.504375 53.154687 
" style="fill:none;stroke:#2ca02c;stroke-linecap:square;stroke-width:1.5;"/>
    </g>
    <g id="line2d_34"/>
    <g id="text_19">
     <!-- highAlpha -->
     <defs>
      <path d="M 9.421875 54.6875 
L 18.40625 54.6875 
L 18.40625 0 
L 9.421875 0 
z
M 9.421875 75.984375 
L 18.40625 75.984375 
L 18.40625 64.59375 
L 9.421875 64.59375 
z
" id="DejaVuSans-69"/>
      <path d="M 45.40625 27.984375 
Q 45.40625 37.75 41.375 43.109375 
Q 37.359375 48.484375 30.078125 48.484375 
Q 22.859375 48.484375 18.828125 43.109375 
Q 14.796875 37.75 14.796875 27.984375 
Q 14.796875 18.265625 18.828125 12.890625 
Q 22.859375 7.515625 30.078125 7.515625 
Q 37.359375 7.515625 41.375 12.890625 
Q 45.40625 18.265625 45.40625 27.984375 
M 54.390625 6.78125 
Q 54.390625 -7.171875 48.1875 -13.984375 
Q 42 -20.796875 29.203125 -20.796875 
Q 24.46875 -20.796875 20.265625 -20.09375 
Q 16.0625 -19.390625 12.109375 -17.921875 
L 12.109375 -9.1875 
Q 16.0625 -11.328125 19.921875 -12.34375 
Q 23.78125 -13.375 27.78125 -13.375 
Q 36.625 -13.375 41.015625 -8.765625 
Q 45.40625 -4.15625 45.40625 5.171875 
L 45.40625 9.625 
Q 42.625 4.78125 38.28125 2.390625 
Q 33.9375 0 27.875 0 
Q 17.828125 0 11.671875 7.65625 
Q 5.515625 15.328125 5.515625 27.984375 
Q 5.515625 40.671875 11.671875 48.328125 
Q 17.828125 56 27.875 56 
Q 33.9375 56 38.28125 53.609375 
Q 42.625 51.21875 45.40625 46.390625 
L 45.40625 54.6875 
L 54.390625 54.6875 
z
" id="DejaVuSans-67"/>
     </defs>
     <g transform="translate(348.504375 56.654687)scale(0.1 -0.1)">
      <use xlink:href="#DejaVuSans-68"/>
      <use x="63.378906" xlink:href="#DejaVuSans-69"/>
      <use x="91.162109" xlink:href="#DejaVuSans-67"/>
      <use x="154.638672" xlink:href="#DejaVuSans-68"/>
      <use x="218.017578" xlink:href="#DejaVuSans-41"/>
      <use x="286.425781" xlink:href="#DejaVuSans-6c"/>
      <use x="314.208984" xlink:href="#DejaVuSans-70"/>
      <use x="377.685547" xlink:href="#DejaVuSans-68"/>
      <use x="441.064453" xlink:href="#DejaVuSans-61"/>
     </g>
    </g>
    <g id="line2d_35">
     <path d="M 320.504375 67.832812 
L 340.504375 67.832812 
" style="fill:none;stroke:#d62728;stroke-linecap:square;stroke-width:1.5;"/>
    </g>
    <g id="line2d_36"/>
    <g id="text_20">
     <!-- lowBeta -->
     <defs>
      <path d="M 19.671875 34.8125 
L 19.671875 8.109375 
L 35.5 8.109375 
Q 43.453125 8.109375 47.28125 11.40625 
Q 51.125 14.703125 51.125 21.484375 
Q 51.125 28.328125 47.28125 31.5625 
Q 43.453125 34.8125 35.5 34.8125 
z
M 19.671875 64.796875 
L 19.671875 42.828125 
L 34.28125 42.828125 
Q 41.5 42.828125 45.03125 45.53125 
Q 48.578125 48.25 48.578125 53.8125 
Q 48.578125 59.328125 45.03125 62.0625 
Q 41.5 64.796875 34.28125 64.796875 
z
M 9.8125 72.90625 
L 35.015625 72.90625 
Q 46.296875 72.90625 52.390625 68.21875 
Q 58.5 63.53125 58.5 54.890625 
Q 58.5 48.1875 55.375 44.234375 
Q 52.25 40.28125 46.1875 39.3125 
Q 53.46875 37.75 57.5 32.78125 
Q 61.53125 27.828125 61.53125 20.40625 
Q 61.53125 10.640625 54.890625 5.3125 
Q 48.25 0 35.984375 0 
L 9.8125 0 
z
" id="DejaVuSans-42"/>
     </defs>
     <g transform="translate(348.504375 71.332812)scale(0.1 -0.1)">
      <use xlink:href="#DejaVuSans-6c"/>
      <use x="27.783203" xlink:href="#DejaVuSans-6f"/>
      <use x="88.964844" xlink:href="#DejaVuSans-77"/>
      <use x="170.751953" xlink:href="#DejaVuSans-42"/>
      <use x="239.355469" xlink:href="#DejaVuSans-65"/>
      <use x="300.878906" xlink:href="#DejaVuSans-74"/>
      <use x="340.087891" xlink:href="#DejaVuSans-61"/>
     </g>
    </g>
    <g id="line2d_37">
     <path d="M 320.504375 82.510938 
L 340.504375 82.510938 
" style="fill:none;stroke:#9467bd;stroke-linecap:square;stroke-width:1.5;"/>
    </g>
    <g id="line2d_38"/>
    <g id="text_21">
     <!-- highBeta -->
     <g transform="translate(348.504375 86.010938)scale(0.1 -0.1)">
      <use xlink:href="#DejaVuSans-68"/>
      <use x="63.378906" xlink:href="#DejaVuSans-69"/>
      <use x="91.162109" xlink:href="#DejaVuSans-67"/>
      <use x="154.638672" xlink:href="#DejaVuSans-68"/>
      <use x="218.017578" xlink:href="#DejaVuSans-42"/>
      <use x="286.621094" xlink:href="#DejaVuSans-65"/>
      <use x="348.144531" xlink:href="#DejaVuSans-74"/>
      <use x="387.353516" xlink:href="#DejaVuSans-61"/>
     </g>
    </g>
    <g id="line2d_39">
     <path d="M 320.504375 97.189062 
L 340.504375 97.189062 
" style="fill:none;stroke:#8c564b;stroke-linecap:square;stroke-width:1.5;"/>
    </g>
    <g id="line2d_40"/>
    <g id="text_22">
     <!-- lowGamma -->
     <defs>
      <path d="M 59.515625 10.40625 
L 59.515625 29.984375 
L 43.40625 29.984375 
L 43.40625 38.09375 
L 69.28125 38.09375 
L 69.28125 6.78125 
Q 63.578125 2.734375 56.6875 0.65625 
Q 49.8125 -1.421875 42 -1.421875 
Q 24.90625 -1.421875 15.25 8.5625 
Q 5.609375 18.5625 5.609375 36.375 
Q 5.609375 54.25 15.25 64.234375 
Q 24.90625 74.21875 42 74.21875 
Q 49.125 74.21875 55.546875 72.453125 
Q 61.96875 70.703125 67.390625 67.28125 
L 67.390625 56.78125 
Q 61.921875 61.421875 55.765625 63.765625 
Q 49.609375 66.109375 42.828125 66.109375 
Q 29.4375 66.109375 22.71875 58.640625 
Q 16.015625 51.171875 16.015625 36.375 
Q 16.015625 21.625 22.71875 14.15625 
Q 29.4375 6.6875 42.828125 6.6875 
Q 48.046875 6.6875 52.140625 7.59375 
Q 56.25 8.5 59.515625 10.40625 
" id="DejaVuSans-47"/>
      <path d="M 52 44.1875 
Q 55.375 50.25 60.0625 53.125 
Q 64.75 56 71.09375 56 
Q 79.640625 56 84.28125 50.015625 
Q 88.921875 44.046875 88.921875 33.015625 
L 88.921875 0 
L 79.890625 0 
L 79.890625 32.71875 
Q 79.890625 40.578125 77.09375 44.375 
Q 74.3125 48.1875 68.609375 48.1875 
Q 61.625 48.1875 57.5625 43.546875 
Q 53.515625 38.921875 53.515625 30.90625 
L 53.515625 0 
L 44.484375 0 
L 44.484375 32.71875 
Q 44.484375 40.625 41.703125 44.40625 
Q 38.921875 48.1875 33.109375 48.1875 
Q 26.21875 48.1875 22.15625 43.53125 
Q 18.109375 38.875 18.109375 30.90625 
L 18.109375 0 
L 9.078125 0 
L 9.078125 54.6875 
L 18.109375 54.6875 
L 18.109375 46.1875 
Q 21.1875 51.21875 25.484375 53.609375 
Q 29.78125 56 35.6875 56 
Q 41.65625 56 45.828125 52.96875 
Q 50 49.953125 52 44.1875 
" id="DejaVuSans-6d"/>
     </defs>
     <g transform="translate(348.504375 100.689062)scale(0.1 -0.1)">
      <use xlink:href="#DejaVuSans-6c"/>
      <use x="27.783203" xlink:href="#DejaVuSans-6f"/>
      <use x="88.964844" xlink:href="#DejaVuSans-77"/>
      <use x="170.751953" xlink:href="#DejaVuSans-47"/>
      <use x="248.242188" xlink:href="#DejaVuSans-61"/>
      <use x="309.521484" xlink:href="#DejaVuSans-6d"/>
      <use x="406.933594" xlink:href="#DejaVuSans-6d"/>
      <use x="504.345703" xlink:href="#DejaVuSans-61"/>
     </g>
    </g>
    <g id="line2d_41">
     <path d="M 320.504375 111.867188 
L 340.504375 111.867188 
" style="fill:none;stroke:#e377c2;stroke-linecap:square;stroke-width:1.5;"/>
    </g>
    <g id="line2d_42"/>
    <g id="text_23">
     <!-- midGamma -->
     <g transform="translate(348.504375 115.367188)scale(0.1 -0.1)">
      <use xlink:href="#DejaVuSans-6d"/>
      <use x="97.412109" xlink:href="#DejaVuSans-69"/>
      <use x="125.195312" xlink:href="#DejaVuSans-64"/>
      <use x="188.671875" xlink:href="#DejaVuSans-47"/>
      <use x="266.162109" xlink:href="#DejaVuSans-61"/>
      <use x="327.441406" xlink:href="#DejaVuSans-6d"/>
      <use x="424.853516" xlink:href="#DejaVuSans-6d"/>
      <use x="522.265625" xlink:href="#DejaVuSans-61"/>
     </g>
    </g>
    <g id="line2d_43">
     <path d="M 320.504375 126.545312 
L 340.504375 126.545312 
" style="fill:none;stroke:#7f7f7f;stroke-linecap:square;stroke-width:1.5;"/>
    </g>
    <g id="line2d_44"/>
    <g id="text_24">
     <!-- attention -->
     <defs>
      <path d="M 54.890625 33.015625 
L 54.890625 0 
L 45.90625 0 
L 45.90625 32.71875 
Q 45.90625 40.484375 42.875 44.328125 
Q 39.84375 48.1875 33.796875 48.1875 
Q 26.515625 48.1875 22.3125 43.546875 
Q 18.109375 38.921875 18.109375 30.90625 
L 18.109375 0 
L 9.078125 0 
L 9.078125 54.6875 
L 18.109375 54.6875 
L 18.109375 46.1875 
Q 21.34375 51.125 25.703125 53.5625 
Q 30.078125 56 35.796875 56 
Q 45.21875 56 50.046875 50.171875 
Q 54.890625 44.34375 54.890625 33.015625 
" id="DejaVuSans-6e"/>
     </defs>
     <g transform="translate(348.504375 130.045312)scale(0.1 -0.1)">
      <use xlink:href="#DejaVuSans-61"/>
      <use x="61.279297" xlink:href="#DejaVuSans-74"/>
      <use x="100.488281" xlink:href="#DejaVuSans-74"/>
      <use x="139.697266" xlink:href="#DejaVuSans-65"/>
      <use x="201.220703" xlink:href="#DejaVuSans-6e"/>
      <use x="264.599609" xlink:href="#DejaVuSans-74"/>
      <use x="303.808594" xlink:href="#DejaVuSans-69"/>
      <use x="331.591797" xlink:href="#DejaVuSans-6f"/>
      <use x="392.773438" xlink:href="#DejaVuSans-6e"/>
     </g>
    </g>
    <g id="line2d_45">
     <path d="M 320.504375 141.223437 
L 340.504375 141.223437 
" style="fill:none;stroke:#bcbd22;stroke-linecap:square;stroke-width:1.5;"/>
    </g>
    <g id="line2d_46"/>
    <g id="text_25">
     <!-- meditation -->
     <g transform="translate(348.504375 144.723437)scale(0.1 -0.1)">
      <use xlink:href="#DejaVuSans-6d"/>
      <use x="97.412109" xlink:href="#DejaVuSans-65"/>
      <use x="158.935547" xlink:href="#DejaVuSans-64"/>
      <use x="222.412109" xlink:href="#DejaVuSans-69"/>
      <use x="250.195312" xlink:href="#DejaVuSans-74"/>
      <use x="289.404297" xlink:href="#DejaVuSans-61"/>
      <use x="350.683594" xlink:href="#DejaVuSans-74"/>
      <use x="389.892578" xlink:href="#DejaVuSans-69"/>
      <use x="417.675781" xlink:href="#DejaVuSans-6f"/>
      <use x="478.857422" xlink:href="#DejaVuSans-6e"/>
     </g>
    </g>
    <g id="line2d_47">
     <path d="M 320.504375 155.901562 
L 340.504375 155.901562 
" style="fill:none;stroke:#17becf;stroke-linecap:square;stroke-width:1.5;"/>
    </g>
    <g id="line2d_48"/>
    <g id="text_26">
     <!-- rawValue -->
     <defs>
      <path d="M 41.109375 46.296875 
Q 39.59375 47.171875 37.8125 47.578125 
Q 36.03125 48 33.890625 48 
Q 26.265625 48 22.1875 43.046875 
Q 18.109375 38.09375 18.109375 28.8125 
L 18.109375 0 
L 9.078125 0 
L 9.078125 54.6875 
L 18.109375 54.6875 
L 18.109375 46.1875 
Q 20.953125 51.171875 25.484375 53.578125 
Q 30.03125 56 36.53125 56 
Q 37.453125 56 38.578125 55.875 
Q 39.703125 55.765625 41.0625 55.515625 
z
" id="DejaVuSans-72"/>
      <path d="M 28.609375 0 
L 0.78125 72.90625 
L 11.078125 72.90625 
L 34.1875 11.53125 
L 57.328125 72.90625 
L 67.578125 72.90625 
L 39.796875 0 
z
" id="DejaVuSans-56"/>
      <path d="M 8.5 21.578125 
L 8.5 54.6875 
L 17.484375 54.6875 
L 17.484375 21.921875 
Q 17.484375 14.15625 20.5 10.265625 
Q 23.53125 6.390625 29.59375 6.390625 
Q 36.859375 6.390625 41.078125 11.03125 
Q 45.3125 15.671875 45.3125 23.6875 
L 45.3125 54.6875 
L 54.296875 54.6875 
L 54.296875 0 
L 45.3125 0 
L 45.3125 8.40625 
Q 42.046875 3.421875 37.71875 1 
Q 33.40625 -1.421875 27.6875 -1.421875 
Q 18.265625 -1.421875 13.375 4.4375 
Q 8.5 10.296875 8.5 21.578125 
M 31.109375 56 
z
" id="DejaVuSans-75"/>
     </defs>
     <g transform="translate(348.504375 159.401562)scale(0.1 -0.1)">
      <use xlink:href="#DejaVuSans-72"/>
      <use x="41.113281" xlink:href="#DejaVuSans-61"/>
      <use x="102.392578" xlink:href="#DejaVuSans-77"/>
      <use x="184.179688" xlink:href="#DejaVuSans-56"/>
      <use x="252.478516" xlink:href="#DejaVuSans-61"/>
      <use x="313.757812" xlink:href="#DejaVuSans-6c"/>
      <use x="341.541016" xlink:href="#DejaVuSans-75"/>
      <use x="404.919922" xlink:href="#DejaVuSans-65"/>
     </g>
    </g>
   </g>
  </g>
 </g>
 <defs>
  <clipPath id="p2f16f8614b">
   <rect height="266.112" width="357.12" x="58.7375" y="10.7"/>
  </clipPath>
 </defs>
</svg>
