<?xml version="1.0" encoding="utf-8" standalone="no"?>
<!DOCTYPE svg PUBLIC "-//W3C//DTD SVG 1.1//EN"
  "http://www.w3.org/Graphics/SVG/1.1/DTD/svg11.dtd">
<!-- Created with matplotlib (http://matplotlib.org/) -->
<svg height="300pt" version="1.1" viewBox="0 0 431 300" width="431pt" xmlns="http://www.w3.org/2000/svg" xmlns:xlink="http://www.w3.org/1999/xlink">
 <defs>
  <style type="text/css">
*{stroke-linecap:butt;stroke-linejoin:round;}
  </style>
 </defs>
 <g id="figure_1">
  <g id="patch_1">
   <path d="M 0 300.690125 
L 431.666381 300.690125 
L 431.666381 0 
L 0 0 
z
" style="fill:#ffffff;"/>
  </g>
  <g id="axes_1">
   <g id="patch_2">
    <path d="M 58.7375 276.812 
L 415.8575 276.812 
L 415.8575 10.7 
L 58.7375 10.7 
z
" style="fill:#ffffff;"/>
   </g>
   <g id="matplotlib.axis_1">
    <g id="xtick_1">
     <g id="line2d_1">
      <defs>
       <path d="M 0 0 
L 0 3.5 
" id="m07ca3a1e4c" style="stroke:#000000;stroke-width:0.8;"/>
      </defs>
      <g>
       <use style="stroke:#000000;stroke-width:0.8;" x="74.970227" xlink:href="#m07ca3a1e4c" y="276.812"/>
      </g>
     </g>
     <g id="text_1">
      <!-- 0 -->
      <defs>
       <path d="M 31.78125 66.40625 
Q 24.171875 66.40625 20.328125 58.90625 
Q 16.5 51.421875 16.5 36.375 
Q 16.5 21.390625 20.328125 13.890625 
Q 24.171875 6.390625 31.78125 6.390625 
Q 39.453125 6.390625 43.28125 13.890625 
Q 47.125 21.390625 47.125 36.375 
Q 47.125 51.421875 43.28125 58.90625 
Q 39.453125 66.40625 31.78125 66.40625 
M 31.78125 74.21875 
Q 44.046875 74.21875 50.515625 64.515625 
Q 56.984375 54.828125 56.984375 36.375 
Q 56.984375 17.96875 50.515625 8.265625 
Q 44.046875 -1.421875 31.78125 -1.421875 
Q 19.53125 -1.421875 13.0625 8.265625 
Q 6.59375 17.96875 6.59375 36.375 
Q 6.59375 54.828125 13.0625 64.515625 
Q 19.53125 74.21875 31.78125 74.21875 
" id="DejaVuSans-30"/>
      </defs>
      <g transform="translate(71.788977 291.410437)scale(0.1 -0.1)">
       <use xlink:href="#DejaVuSans-30"/>
      </g>
     </g>
    </g>
    <g id="xtick_2">
     <g id="line2d_2">
      <g>
       <use style="stroke:#000000;stroke-width:0.8;" x="117.464278" xlink:href="#m07ca3a1e4c" y="276.812"/>
      </g>
     </g>
     <g id="text_2">
      <!-- 25 -->
      <defs>
       <path d="M 19.1875 8.296875 
L 53.609375 8.296875 
L 53.609375 0 
L 7.328125 0 
L 7.328125 8.296875 
Q 12.9375 14.109375 22.625 23.890625 
Q 32.328125 33.6875 34.8125 36.53125 
Q 39.546875 41.84375 41.421875 45.53125 
Q 43.3125 49.21875 43.3125 52.78125 
Q 43.3125 58.59375 39.234375 62.25 
Q 35.15625 65.921875 28.609375 65.921875 
Q 23.96875 65.921875 18.8125 64.3125 
Q 13.671875 62.703125 7.8125 59.421875 
L 7.8125 69.390625 
Q 13.765625 71.78125 18.9375 73 
Q 24.125 74.21875 28.421875 74.21875 
Q 39.75 74.21875 46.484375 68.546875 
Q 53.21875 62.890625 53.21875 53.421875 
Q 53.21875 48.921875 51.53125 44.890625 
Q 49.859375 40.875 45.40625 35.40625 
Q 44.1875 33.984375 37.640625 27.21875 
Q 31.109375 20.453125 19.1875 8.296875 
" id="DejaVuSans-32"/>
       <path d="M 10.796875 72.90625 
L 49.515625 72.90625 
L 49.515625 64.59375 
L 19.828125 64.59375 
L 19.828125 46.734375 
Q 21.96875 47.46875 24.109375 47.828125 
Q 26.265625 48.1875 28.421875 48.1875 
Q 40.625 48.1875 47.75 41.5 
Q 54.890625 34.8125 54.890625 23.390625 
Q 54.890625 11.625 47.5625 5.09375 
Q 40.234375 -1.421875 26.90625 -1.421875 
Q 22.3125 -1.421875 17.546875 -0.640625 
Q 12.796875 0.140625 7.71875 1.703125 
L 7.71875 11.625 
Q 12.109375 9.234375 16.796875 8.0625 
Q 21.484375 6.890625 26.703125 6.890625 
Q 35.15625 6.890625 40.078125 11.328125 
Q 45.015625 15.765625 45.015625 23.390625 
Q 45.015625 31 40.078125 35.4375 
Q 35.15625 39.890625 26.703125 39.890625 
Q 22.75 39.890625 18.8125 39.015625 
Q 14.890625 38.140625 10.796875 36.28125 
z
" id="DejaVuSans-35"/>
      </defs>
      <g transform="translate(111.101778 291.410437)scale(0.1 -0.1)">
       <use xlink:href="#DejaVuSans-32"/>
       <use x="63.623047" xlink:href="#DejaVuSans-35"/>
      </g>
     </g>
    </g>
    <g id="xtick_3">
     <g id="line2d_3">
      <g>
       <use style="stroke:#000000;stroke-width:0.8;" x="159.958328" xlink:href="#m07ca3a1e4c" y="276.812"/>
      </g>
     </g>
     <g id="text_3">
      <!-- 50 -->
      <g transform="translate(153.595828 291.410437)scale(0.1 -0.1)">
       <use xlink:href="#DejaVuSans-35"/>
       <use x="63.623047" xlink:href="#DejaVuSans-30"/>
      </g>
     </g>
    </g>
    <g id="xtick_4">
     <g id="line2d_4">
      <g>
       <use style="stroke:#000000;stroke-width:0.8;" x="202.452379" xlink:href="#m07ca3a1e4c" y="276.812"/>
      </g>
     </g>
     <g id="text_4">
      <!-- 75 -->
      <defs>
       <path d="M 8.203125 72.90625 
L 55.078125 72.90625 
L 55.078125 68.703125 
L 28.609375 0 
L 18.3125 0 
L 43.21875 64.59375 
L 8.203125 64.59375 
z
" id="DejaVuSans-37"/>
      </defs>
      <g transform="translate(196.089879 291.410437)scale(0.1 -0.1)">
       <use xlink:href="#DejaVuSans-37"/>
       <use x="63.623047" xlink:href="#DejaVuSans-35"/>
      </g>
     </g>
    </g>
    <g id="xtick_5">
     <g id="line2d_5">
      <g>
       <use style="stroke:#000000;stroke-width:0.8;" x="244.946429" xlink:href="#m07ca3a1e4c" y="276.812"/>
      </g>
     </g>
     <g id="text_5">
      <!-- 100 -->
      <defs>
       <path d="M 12.40625 8.296875 
L 28.515625 8.296875 
L 28.515625 63.921875 
L 10.984375 60.40625 
L 10.984375 69.390625 
L 28.421875 72.90625 
L 38.28125 72.90625 
L 38.28125 8.296875 
L 54.390625 8.296875 
L 54.390625 0 
L 12.40625 0 
z
" id="DejaVuSans-31"/>
      </defs>
      <g transform="translate(235.402679 291.410437)scale(0.1 -0.1)">
       <use xlink:href="#DejaVuSans-31"/>
       <use x="63.623047" xlink:href="#DejaVuSans-30"/>
       <use x="127.246094" xlink:href="#DejaVuSans-30"/>
      </g>
     </g>
    </g>
    <g id="xtick_6">
     <g id="line2d_6">
      <g>
       <use style="stroke:#000000;stroke-width:0.8;" x="287.44048" xlink:href="#m07ca3a1e4c" y="276.812"/>
      </g>
     </g>
     <g id="text_6">
      <!-- 125 -->
      <g transform="translate(277.89673 291.410437)scale(0.1 -0.1)">
       <use xlink:href="#DejaVuSans-31"/>
       <use x="63.623047" xlink:href="#DejaVuSans-32"/>
       <use x="127.246094" xlink:href="#DejaVuSans-35"/>
      </g>
     </g>
    </g>
    <g id="xtick_7">
     <g id="line2d_7">
      <g>
       <use style="stroke:#000000;stroke-width:0.8;" x="329.93453" xlink:href="#m07ca3a1e4c" y="276.812"/>
      </g>
     </g>
     <g id="text_7">
      <!-- 150 -->
      <g transform="translate(320.39078 291.410437)scale(0.1 -0.1)">
       <use xlink:href="#DejaVuSans-31"/>
       <use x="63.623047" xlink:href="#DejaVuSans-35"/>
       <use x="127.246094" xlink:href="#DejaVuSans-30"/>
      </g>
     </g>
    </g>
    <g id="xtick_8">
     <g id="line2d_8">
      <g>
       <use style="stroke:#000000;stroke-width:0.8;" x="372.42858" xlink:href="#m07ca3a1e4c" y="276.812"/>
      </g>
     </g>
     <g id="text_8">
      <!-- 175 -->
      <g transform="translate(362.88483 291.410437)scale(0.1 -0.1)">
       <use xlink:href="#DejaVuSans-31"/>
       <use x="63.623047" xlink:href="#DejaVuSans-37"/>
       <use x="127.246094" xlink:href="#DejaVuSans-35"/>
      </g>
     </g>
    </g>
    <g id="xtick_9">
     <g id="line2d_9">
      <g>
       <use style="stroke:#000000;stroke-width:0.8;" x="414.922631" xlink:href="#m07ca3a1e4c" y="276.812"/>
      </g>
     </g>
     <g id="text_9">
      <!-- 200 -->
      <g transform="translate(405.378881 291.410437)scale(0.1 -0.1)">
       <use xlink:href="#DejaVuSans-32"/>
       <use x="63.623047" xlink:href="#DejaVuSans-30"/>
       <use x="127.246094" xlink:href="#DejaVuSans-30"/>
      </g>
     </g>
    </g>
   </g>
   <g id="matplotlib.axis_2">
    <g id="ytick_1">
     <g id="line2d_10">
      <defs>
       <path d="M 0 0 
L -3.5 0 
" id="m5b2e56fa1c" style="stroke:#000000;stroke-width:0.8;"/>
      </defs>
      <g>
       <use style="stroke:#000000;stroke-width:0.8;" x="58.7375" xlink:href="#m5b2e56fa1c" y="264.673079"/>
      </g>
     </g>
     <g id="text_10">
      <!-- 0 -->
      <g transform="translate(45.375 268.472297)scale(0.1 -0.1)">
       <use xlink:href="#DejaVuSans-30"/>
      </g>
     </g>
    </g>
    <g id="ytick_2">
     <g id="line2d_11">
      <g>
       <use style="stroke:#000000;stroke-width:0.8;" x="58.7375" xlink:href="#m5b2e56fa1c" y="227.799133"/>
      </g>
     </g>
     <g id="text_11">
      <!-- 500000 -->
      <g transform="translate(13.5625 231.598352)scale(0.1 -0.1)">
       <use xlink:href="#DejaVuSans-35"/>
       <use x="63.623047" xlink:href="#DejaVuSans-30"/>
       <use x="127.246094" xlink:href="#DejaVuSans-30"/>
       <use x="190.869141" xlink:href="#DejaVuSans-30"/>
       <use x="254.492188" xlink:href="#DejaVuSans-30"/>
       <use x="318.115234" xlink:href="#DejaVuSans-30"/>
      </g>
     </g>
    </g>
    <g id="ytick_3">
     <g id="line2d_12">
      <g>
       <use style="stroke:#000000;stroke-width:0.8;" x="58.7375" xlink:href="#m5b2e56fa1c" y="190.925188"/>
      </g>
     </g>
     <g id="text_12">
      <!-- 1000000 -->
      <g transform="translate(7.2 194.724407)scale(0.1 -0.1)">
       <use xlink:href="#DejaVuSans-31"/>
       <use x="63.623047" xlink:href="#DejaVuSans-30"/>
       <use x="127.246094" xlink:href="#DejaVuSans-30"/>
       <use x="190.869141" xlink:href="#DejaVuSans-30"/>
       <use x="254.492188" xlink:href="#DejaVuSans-30"/>
       <use x="318.115234" xlink:href="#DejaVuSans-30"/>
       <use x="381.738281" xlink:href="#DejaVuSans-30"/>
      </g>
     </g>
    </g>
    <g id="ytick_4">
     <g id="line2d_13">
      <g>
       <use style="stroke:#000000;stroke-width:0.8;" x="58.7375" xlink:href="#m5b2e56fa1c" y="154.051242"/>
      </g>
     </g>
     <g id="text_13">
      <!-- 1500000 -->
      <g transform="translate(7.2 157.850461)scale(0.1 -0.1)">
       <use xlink:href="#DejaVuSans-31"/>
       <use x="63.623047" xlink:href="#DejaVuSans-35"/>
       <use x="127.246094" xlink:href="#DejaVuSans-30"/>
       <use x="190.869141" xlink:href="#DejaVuSans-30"/>
       <use x="254.492188" xlink:href="#DejaVuSans-30"/>
       <use x="318.115234" xlink:href="#DejaVuSans-30"/>
       <use x="381.738281" xlink:href="#DejaVuSans-30"/>
      </g>
     </g>
    </g>
    <g id="ytick_5">
     <g id="line2d_14">
      <g>
       <use style="stroke:#000000;stroke-width:0.8;" x="58.7375" xlink:href="#m5b2e56fa1c" y="117.177297"/>
      </g>
     </g>
     <g id="text_14">
      <!-- 2000000 -->
      <g transform="translate(7.2 120.976516)scale(0.1 -0.1)">
       <use xlink:href="#DejaVuSans-32"/>
       <use x="63.623047" xlink:href="#DejaVuSans-30"/>
       <use x="127.246094" xlink:href="#DejaVuSans-30"/>
       <use x="190.869141" xlink:href="#DejaVuSans-30"/>
       <use x="254.492188" xlink:href="#DejaVuSans-30"/>
       <use x="318.115234" xlink:href="#DejaVuSans-30"/>
       <use x="381.738281" xlink:href="#DejaVuSans-30"/>
      </g>
     </g>
    </g>
    <g id="ytick_6">
     <g id="line2d_15">
      <g>
       <use style="stroke:#000000;stroke-width:0.8;" x="58.7375" xlink:href="#m5b2e56fa1c" y="80.303352"/>
      </g>
     </g>
     <g id="text_15">
      <!-- 2500000 -->
      <g transform="translate(7.2 84.10257)scale(0.1 -0.1)">
       <use xlink:href="#DejaVuSans-32"/>
       <use x="63.623047" xlink:href="#DejaVuSans-35"/>
       <use x="127.246094" xlink:href="#DejaVuSans-30"/>
       <use x="190.869141" xlink:href="#DejaVuSans-30"/>
       <use x="254.492188" xlink:href="#DejaVuSans-30"/>
       <use x="318.115234" xlink:href="#DejaVuSans-30"/>
       <use x="381.738281" xlink:href="#DejaVuSans-30"/>
      </g>
     </g>
    </g>
    <g id="ytick_7">
     <g id="line2d_16">
      <g>
       <use style="stroke:#000000;stroke-width:0.8;" x="58.7375" xlink:href="#m5b2e56fa1c" y="43.429406"/>
      </g>
     </g>
     <g id="text_16">
      <!-- 3000000 -->
      <defs>
       <path d="M 40.578125 39.3125 
Q 47.65625 37.796875 51.625 33 
Q 55.609375 28.21875 55.609375 21.1875 
Q 55.609375 10.40625 48.1875 4.484375 
Q 40.765625 -1.421875 27.09375 -1.421875 
Q 22.515625 -1.421875 17.65625 -0.515625 
Q 12.796875 0.390625 7.625 2.203125 
L 7.625 11.71875 
Q 11.71875 9.328125 16.59375 8.109375 
Q 21.484375 6.890625 26.8125 6.890625 
Q 36.078125 6.890625 40.9375 10.546875 
Q 45.796875 14.203125 45.796875 21.1875 
Q 45.796875 27.640625 41.28125 31.265625 
Q 36.765625 34.90625 28.71875 34.90625 
L 20.21875 34.90625 
L 20.21875 43.015625 
L 29.109375 43.015625 
Q 36.375 43.015625 40.234375 45.921875 
Q 44.09375 48.828125 44.09375 54.296875 
Q 44.09375 59.90625 40.109375 62.90625 
Q 36.140625 65.921875 28.71875 65.921875 
Q 24.65625 65.921875 20.015625 65.03125 
Q 15.375 64.15625 9.8125 62.3125 
L 9.8125 71.09375 
Q 15.4375 72.65625 20.34375 73.4375 
Q 25.25 74.21875 29.59375 74.21875 
Q 40.828125 74.21875 47.359375 69.109375 
Q 53.90625 64.015625 53.90625 55.328125 
Q 53.90625 49.265625 50.4375 45.09375 
Q 46.96875 40.921875 40.578125 39.3125 
" id="DejaVuSans-33"/>
      </defs>
      <g transform="translate(7.2 47.228625)scale(0.1 -0.1)">
       <use xlink:href="#DejaVuSans-33"/>
       <use x="63.623047" xlink:href="#DejaVuSans-30"/>
       <use x="127.246094" xlink:href="#DejaVuSans-30"/>
       <use x="190.869141" xlink:href="#DejaVuSans-30"/>
       <use x="254.492188" xlink:href="#DejaVuSans-30"/>
       <use x="318.115234" xlink:href="#DejaVuSans-30"/>
       <use x="381.738281" xlink:href="#DejaVuSans-30"/>
      </g>
     </g>
    </g>
   </g>
   <g id="line2d_17">
    <path clip-path="url(#p206428b9ca)" d="M 74.970227 262.248764 
L 76.669989 229.810533 
L 78.369751 189.998177 
L 80.069513 254.493879 
L 81.769275 264.532663 
L 83.469037 167.81459 
L 85.168799 248.762414 
L 86.868561 236.269964 
L 88.568323 263.627039 
L 90.268085 264.183098 
L 91.967847 222.003213 
L 93.667609 185.789532 
L 95.367371 260.584422 
L 97.067134 259.277831 
L 98.766896 263.687733 
L 100.466658 258.685782 
L 102.16642 234.343521 
L 103.866182 260.719307 
L 105.565944 262.26462 
L 107.265706 261.553985 
L 108.965468 254.366368 
L 110.66523 263.09598 
L 112.364992 227.467268 
L 114.064754 262.748038 
L 115.764516 263.622688 
L 117.464278 262.464993 
L 119.16404 247.595132 
L 120.863802 166.742886 
L 122.563564 254.21784 
L 124.263326 261.717485 
L 125.963088 234.731066 
L 127.66285 260.290463 
L 129.362612 263.095759 
L 131.062374 260.995419 
L 132.762136 212.21672 
L 134.461898 261.660994 
L 136.16166 252.882118 
L 137.861422 206.339382 
L 139.561184 255.530036 
L 141.260946 242.067064 
L 142.960708 252.000241 
L 144.66047 264.181992 
L 146.360232 261.224701 
L 148.059994 248.571407 
L 149.759756 245.693174 
L 151.459518 248.11771 
L 153.15928 256.544144 
L 154.859042 236.57705 
L 156.558804 261.937032 
L 158.258566 217.485122 
L 159.958328 260.669306 
L 161.65809 258.12139 
L 163.357852 260.898957 
L 165.057614 245.834991 
L 166.757376 260.79748 
L 168.457138 263.222384 
L 170.1569 189.397869 
L 171.856662 201.904921 
L 173.556424 201.053428 
L 175.256186 240.227644 
L 176.955948 256.114267 
L 178.65571 252.924818 
L 180.355472 258.966688 
L 182.055234 236.896083 
L 183.754996 212.636419 
L 185.454758 262.574582 
L 187.15452 262.000455 
L 188.854282 241.147723 
L 190.554045 261.429646 
L 192.253807 258.745813 
L 193.953569 240.051534 
L 195.653331 262.744424 
L 197.353093 139.984127 
L 199.052855 258.456795 
L 200.752617 256.742378 
L 202.452379 261.627807 
L 204.152141 263.795995 
L 205.851903 258.653702 
L 207.551665 260.960757 
L 209.251427 180.258588 
L 210.951189 260.218042 
L 212.650951 218.038895 
L 214.350713 242.611913 
L 216.050475 261.140923 
L 217.750237 263.819963 
L 219.449999 264.111931 
L 221.149761 260.08773 
L 222.849523 253.489506 
L 224.549285 22.796 
L 226.249047 258.844267 
L 227.948809 256.743558 
L 229.648571 259.416993 
L 231.348333 252.733738 
L 233.048095 263.993271 
L 234.747857 261.573971 
L 236.447619 263.817529 
L 238.147381 262.749439 
L 239.847143 258.209666 
L 241.546905 258.998547 
L 243.246667 261.724417 
L 244.946429 249.714573 
L 246.646191 245.608733 
L 248.345953 247.101169 
L 250.045715 233.43539 
L 251.745477 261.826558 
L 253.445239 147.50184 
L 255.145001 136.371882 
L 256.844763 240.381703 
L 258.544525 236.980377 
L 260.244287 255.567795 
L 261.944049 252.536315 
L 263.643811 261.099772 
L 265.343573 179.214244 
L 267.043335 263.496652 
L 268.743097 260.156905 
L 270.442859 258.295214 
L 272.142621 253.160664 
L 273.842383 253.4766 
L 275.542145 214.193827 
L 277.241907 235.509623 
L 278.941669 262.917363 
L 280.641431 260.172319 
L 282.341193 261.16526 
L 284.040955 263.356974 
L 285.740718 253.741429 
L 287.44048 222.79261 
L 289.140242 263.676745 
L 290.840004 185.291365 
L 292.539766 260.907585 
L 294.239528 237.937477 
L 295.93929 263.385514 
L 297.639052 256.75108 
L 299.338814 242.498342 
L 302.738338 262.942953 
L 304.4381 260.209783 
L 306.137862 263.542524 
L 307.837624 261.859892 
L 309.537386 257.031839 
L 311.237148 256.267737 
L 312.93691 254.659 
L 314.636672 256.351662 
L 316.336434 263.749755 
L 318.036196 231.333722 
L 319.735958 259.810364 
L 321.43572 260.31598 
L 323.135482 261.748901 
L 324.835244 256.237869 
L 326.535006 262.175238 
L 328.234768 262.751282 
L 329.93453 227.020282 
L 331.634292 258.02655 
L 333.334054 254.032586 
L 335.033816 261.326473 
L 336.733578 262.56411 
L 338.43334 258.813219 
L 340.133102 264.070337 
L 341.832864 263.423273 
L 343.532626 260.619231 
L 345.232388 207.959549 
L 346.93215 246.055645 
L 348.631912 262.021695 
L 350.331674 259.708371 
L 352.031436 215.956107 
L 353.731198 260.523137 
L 355.43096 250.11141 
L 357.130722 255.357909 
L 358.830484 246.656469 
L 360.530246 256.286469 
L 362.230008 261.362831 
L 363.92977 255.103479 
L 365.629532 257.36776 
L 367.329294 261.255675 
L 369.029056 259.877327 
L 370.728818 256.540604 
L 372.42858 234.821924 
L 374.128342 251.786741 
L 375.828104 250.2637 
L 377.527866 235.249219 
L 379.227629 263.161837 
L 380.927391 236.05403 
L 382.627153 262.013877 
L 384.326915 260.46318 
L 386.026677 262.580851 
L 387.726439 263.534485 
L 389.426201 250.307653 
L 391.125963 255.932331 
L 392.825725 262.654599 
L 394.525487 261.525076 
L 396.225249 256.558967 
L 397.925011 253.331022 
L 399.624773 206.673976 
L 399.624773 206.673976 
" style="fill:none;stroke:#1f77b4;stroke-linecap:square;stroke-width:1.5;"/>
   </g>
   <g id="line2d_18">
    <path clip-path="url(#p206428b9ca)" d="M 74.970227 262.991701 
L 76.669989 261.094462 
L 78.369751 260.707138 
L 80.069513 263.668411 
L 81.769275 264.343057 
L 83.469037 262.987792 
L 85.168799 263.836704 
L 86.868561 262.104882 
L 88.568323 264.511571 
L 90.268085 263.971368 
L 91.967847 261.098371 
L 93.667609 263.393848 
L 95.367371 263.491859 
L 97.067134 263.990616 
L 98.766896 263.618484 
L 100.466658 264.025793 
L 102.16642 259.809405 
L 103.866182 261.898536 
L 105.565944 263.786924 
L 107.265706 262.321332 
L 108.965468 263.164418 
L 110.66523 262.065722 
L 112.364992 262.603123 
L 114.064754 261.82936 
L 115.764516 263.288536 
L 117.464278 264.200428 
L 119.16404 261.695508 
L 120.863802 263.474823 
L 122.563564 258.591164 
L 124.263326 262.965078 
L 125.963088 259.240072 
L 127.66285 261.059948 
L 129.362612 261.676259 
L 131.062374 262.872524 
L 132.762136 257.989381 
L 134.461898 262.618831 
L 136.16166 260.406542 
L 137.861422 263.294952 
L 139.561184 259.427391 
L 141.260946 252.477464 
L 142.960708 258.471987 
L 144.66047 263.726082 
L 146.360232 260.937822 
L 148.059994 263.960674 
L 151.459518 262.11034 
L 153.15928 263.963034 
L 154.859042 253.974767 
L 156.558804 259.627396 
L 158.258566 257.724479 
L 159.958328 261.754063 
L 161.65809 263.56804 
L 163.357852 261.868373 
L 165.057614 261.383185 
L 166.757376 261.511212 
L 168.457138 261.325662 
L 170.1569 255.732401 
L 171.856662 260.423725 
L 173.556424 217.488441 
L 175.256186 252.963536 
L 176.955948 261.598972 
L 178.65571 248.188508 
L 180.355472 262.103333 
L 182.055234 257.751913 
L 183.754996 258.281792 
L 185.454758 261.389454 
L 187.15452 261.655979 
L 190.554045 260.732655 
L 192.253807 263.338168 
L 193.953569 262.206138 
L 195.653331 260.292307 
L 197.353093 262.035117 
L 199.052855 259.777841 
L 200.752617 259.60564 
L 202.452379 262.984547 
L 204.152141 262.230327 
L 205.851903 259.896649 
L 207.551665 261.374778 
L 209.251427 260.455068 
L 210.951189 257.275649 
L 212.650951 251.910416 
L 216.050475 262.055397 
L 217.750237 263.130494 
L 219.449999 263.371207 
L 221.149761 262.201123 
L 222.849523 258.227144 
L 224.549285 244.834822 
L 226.249047 261.301989 
L 227.948809 263.030639 
L 229.648571 263.344437 
L 231.348333 262.858291 
L 233.048095 263.474381 
L 234.747857 261.501108 
L 236.447619 263.818267 
L 238.147381 260.706622 
L 239.847143 258.544703 
L 241.546905 262.894353 
L 243.246667 261.404498 
L 244.946429 255.341979 
L 246.646191 258.272794 
L 248.345953 259.54583 
L 250.045715 258.486811 
L 251.745477 263.307342 
L 253.445239 262.848703 
L 255.145001 253.282864 
L 256.844763 262.556957 
L 258.544525 263.21464 
L 260.244287 264.282067 
L 261.944049 262.781888 
L 263.643811 262.576869 
L 265.343573 260.27151 
L 267.043335 261.896102 
L 270.442859 260.301599 
L 272.142621 263.761407 
L 273.842383 261.998243 
L 275.542145 263.488024 
L 277.241907 262.016975 
L 278.941669 262.213955 
L 280.641431 257.792622 
L 282.341193 263.643042 
L 284.040955 263.736702 
L 285.740718 263.990321 
L 287.44048 256.879033 
L 289.140242 262.119927 
L 290.840004 258.661741 
L 292.539766 262.296479 
L 294.239528 256.717304 
L 295.93929 262.376791 
L 297.639052 259.067059 
L 299.338814 259.650257 
L 301.038576 263.456902 
L 302.738338 261.166145 
L 304.4381 262.512192 
L 306.137862 263.243845 
L 307.837624 262.899811 
L 309.537386 264.114365 
L 311.237148 260.642462 
L 312.93691 263.381974 
L 314.636672 260.919901 
L 316.336434 263.831025 
L 318.036196 263.66406 
L 319.735958 262.602459 
L 321.43572 260.415171 
L 323.135482 262.113068 
L 324.835244 261.207813 
L 326.535006 261.190335 
L 328.234768 263.803444 
L 329.93453 245.380925 
L 331.634292 261.990794 
L 333.334054 263.46236 
L 335.033816 262.710574 
L 336.733578 260.711563 
L 338.43334 260.909503 
L 340.133102 261.313494 
L 341.832864 263.047233 
L 343.532626 263.292813 
L 346.93215 255.518311 
L 348.631912 263.84076 
L 350.331674 262.166757 
L 352.031436 261.820289 
L 353.731198 252.600107 
L 355.43096 262.486454 
L 357.130722 263.70794 
L 358.830484 253.645778 
L 360.530246 260.933913 
L 362.230008 255.108051 
L 365.629532 264.044009 
L 367.329294 263.168622 
L 369.029056 262.909767 
L 370.728818 260.373724 
L 372.42858 261.453983 
L 374.128342 264.203747 
L 375.828104 263.41966 
L 377.527866 262.432913 
L 379.227629 262.899073 
L 380.927391 256.975569 
L 382.627153 263.419512 
L 386.026677 263.263462 
L 387.726439 262.376274 
L 389.426201 262.568461 
L 392.825725 262.35238 
L 394.525487 261.44742 
L 396.225249 264.329856 
L 397.925011 263.576669 
L 399.624773 231.254001 
L 399.624773 231.254001 
" style="fill:none;stroke:#ff7f0e;stroke-linecap:square;stroke-width:1.5;"/>
   </g>
   <g id="line2d_19">
    <path clip-path="url(#p206428b9ca)" d="M 74.970227 264.14851 
L 76.669989 263.395323 
L 78.369751 261.993154 
L 80.069513 264.302053 
L 83.469037 264.574257 
L 85.168799 263.761481 
L 86.868561 264.060086 
L 88.568323 264.553828 
L 90.268085 264.017017 
L 91.967847 262.04463 
L 93.667609 262.793097 
L 95.367371 264.351243 
L 97.067134 264.585614 
L 98.766896 263.451666 
L 100.466658 264.434799 
L 102.16642 262.16683 
L 103.866182 264.476024 
L 108.965468 263.131822 
L 110.66523 263.654399 
L 112.364992 262.335123 
L 114.064754 264.560171 
L 115.764516 263.898873 
L 119.16404 264.455006 
L 120.863802 264.477573 
L 122.563564 263.265084 
L 124.263326 262.742211 
L 125.963088 262.965299 
L 127.66285 263.500856 
L 129.362612 264.432587 
L 131.062374 264.244382 
L 132.762136 263.136394 
L 134.461898 262.388812 
L 136.16166 264.093494 
L 137.861422 263.793709 
L 139.561184 260.643051 
L 142.960708 264.166504 
L 144.66047 264.11466 
L 146.360232 261.970809 
L 148.059994 264.301684 
L 149.759756 264.574699 
L 151.459518 263.632422 
L 153.15928 264.110014 
L 154.859042 263.08654 
L 156.558804 264.432292 
L 158.258566 256.052245 
L 159.958328 262.645823 
L 161.65809 264.400212 
L 163.357852 263.89172 
L 165.057614 264.255002 
L 166.757376 262.869279 
L 168.457138 264.028743 
L 170.1569 261.674342 
L 171.856662 262.294783 
L 173.556424 253.908394 
L 175.256186 262.995167 
L 176.955948 263.32777 
L 178.65571 263.499381 
L 180.355472 264.122993 
L 182.055234 263.915245 
L 183.754996 262.99465 
L 185.454758 263.823429 
L 187.15452 262.562267 
L 188.854282 263.716716 
L 190.554045 263.871365 
L 192.253807 264.433103 
L 193.953569 263.842309 
L 195.653331 264.202125 
L 197.353093 264.404268 
L 199.052855 264.429489 
L 200.752617 264.198216 
L 202.452379 261.007882 
L 204.152141 264.13494 
L 205.851903 263.941647 
L 207.551665 264.151091 
L 209.251427 261.073002 
L 210.951189 264.386199 
L 212.650951 254.943077 
L 214.350713 264.194529 
L 216.050475 264.534359 
L 217.750237 264.378751 
L 219.449999 264.506925 
L 221.149761 264.384724 
L 222.849523 261.511212 
L 224.549285 263.910821 
L 226.249047 261.569989 
L 227.948809 264.307437 
L 229.648571 264.384577 
L 231.348333 264.620644 
L 233.048095 264.056251 
L 234.747857 261.585402 
L 236.447619 263.76539 
L 238.147381 264.104556 
L 239.847143 264.258173 
L 241.546905 263.428804 
L 243.246667 263.916942 
L 244.946429 264.203305 
L 246.646191 263.963182 
L 248.345953 263.217295 
L 250.045715 264.293646 
L 251.745477 264.623004 
L 253.445239 263.400116 
L 255.145001 253.544006 
L 256.844763 263.577111 
L 258.544525 264.529344 
L 260.244287 263.899685 
L 261.944049 263.997032 
L 263.643811 264.401908 
L 265.343573 263.738398 
L 267.043335 263.844447 
L 268.743097 263.285881 
L 270.442859 263.085582 
L 272.142621 264.476688 
L 273.842383 261.226987 
L 275.542145 262.919944 
L 277.241907 264.181033 
L 278.941669 263.839875 
L 280.641431 263.233004 
L 282.341193 263.991058 
L 284.040955 264.544979 
L 285.740718 264.496305 
L 287.44048 262.539921 
L 289.140242 263.60602 
L 290.840004 261.758562 
L 292.539766 263.44053 
L 294.239528 263.05741 
L 295.93929 264.178599 
L 299.338814 260.665913 
L 301.038576 263.590533 
L 302.738338 262.077079 
L 304.4381 264.559212 
L 307.837624 264.424401 
L 309.537386 264.332732 
L 311.237148 262.751356 
L 312.93691 264.414224 
L 314.636672 264.143274 
L 318.036196 264.396303 
L 319.735958 263.272385 
L 321.43572 264.134424 
L 323.135482 263.227694 
L 324.835244 264.368721 
L 326.535006 264.342983 
L 328.234768 264.609066 
L 329.93453 263.834491 
L 331.634292 263.655653 
L 333.334054 264.638196 
L 335.033816 264.01097 
L 336.733578 263.661553 
L 338.43334 262.341539 
L 340.133102 263.291928 
L 341.832864 263.808532 
L 343.532626 264.57433 
L 345.232388 264.053228 
L 346.93215 263.938771 
L 348.631912 264.653462 
L 350.331674 264.650217 
L 353.731198 263.171498 
L 355.43096 264.102713 
L 357.130722 263.961117 
L 358.830484 264.061709 
L 360.530246 262.756887 
L 367.329294 264.377055 
L 369.029056 263.815907 
L 370.728818 261.507082 
L 372.42858 264.149247 
L 374.128342 264.451983 
L 375.828104 263.420766 
L 377.527866 263.985158 
L 379.227629 264.343278 
L 380.927391 263.884566 
L 382.627153 262.691399 
L 384.326915 263.507788 
L 386.026677 263.328581 
L 387.726439 264.076606 
L 389.426201 263.729769 
L 391.125963 264.212376 
L 392.825725 263.113385 
L 394.525487 263.247606 
L 396.225249 264.567398 
L 397.925011 263.836188 
L 399.624773 263.601669 
L 399.624773 263.601669 
" style="fill:none;stroke:#2ca02c;stroke-linecap:square;stroke-width:1.5;"/>
   </g>
   <g id="line2d_20">
    <path clip-path="url(#p206428b9ca)" d="M 74.970227 264.533474 
L 76.669989 263.627629 
L 78.369751 263.54304 
L 80.069513 264.50545 
L 81.769275 264.543799 
L 83.469037 264.086562 
L 85.168799 264.07019 
L 86.868561 263.685152 
L 88.568323 264.482883 
L 91.967847 264.003005 
L 93.667609 264.344384 
L 95.367371 264.315328 
L 97.067134 264.591587 
L 98.766896 263.056525 
L 100.466658 264.334133 
L 102.16642 262.994577 
L 103.866182 262.657328 
L 105.565944 264.082211 
L 107.265706 261.786881 
L 108.965468 264.339001 
L 110.66523 264.35965 
L 112.364992 263.939066 
L 114.064754 264.328455 
L 115.764516 263.658308 
L 117.464278 264.292023 
L 122.563564 263.961043 
L 124.263326 263.58928 
L 125.963088 262.99583 
L 127.66285 264.142758 
L 129.362612 264.435463 
L 131.062374 263.858828 
L 132.762136 263.136468 
L 136.16166 264.410315 
L 137.861422 264.305888 
L 139.561184 262.829308 
L 141.260946 263.018545 
L 142.960708 263.500856 
L 144.66047 264.596307 
L 146.360232 263.019282 
L 148.059994 264.452868 
L 149.759756 263.747321 
L 151.459518 263.31951 
L 153.15928 263.309111 
L 154.859042 262.418311 
L 156.558804 263.945113 
L 158.258566 264.284796 
L 159.958328 263.999244 
L 161.65809 264.322186 
L 163.357852 263.601006 
L 166.757376 263.068103 
L 168.457138 264.315328 
L 170.1569 263.876602 
L 171.856662 264.208246 
L 173.556424 260.627196 
L 175.256186 260.963781 
L 176.955948 263.838326 
L 178.65571 261.970661 
L 180.355472 264.361199 
L 182.055234 262.852022 
L 183.754996 263.981619 
L 185.454758 264.033463 
L 187.15452 263.661774 
L 188.854282 263.49267 
L 190.554045 264.066281 
L 192.253807 263.53183 
L 193.953569 264.324767 
L 195.653331 263.884566 
L 197.353093 261.723606 
L 199.052855 264.292318 
L 200.752617 263.138533 
L 202.452379 264.002637 
L 204.152141 264.064069 
L 205.851903 262.903572 
L 207.551665 264.122403 
L 209.251427 262.151565 
L 210.951189 263.731392 
L 212.650951 254.240923 
L 214.350713 262.959325 
L 216.050475 263.222974 
L 217.750237 263.988698 
L 219.449999 263.630357 
L 221.149761 264.195487 
L 222.849523 263.821069 
L 224.549285 261.869921 
L 226.249047 263.771658 
L 227.948809 264.59675 
L 231.348333 264.373736 
L 236.447619 263.705654 
L 238.147381 264.334797 
L 239.847143 262.739483 
L 241.546905 263.028206 
L 243.246667 262.736828 
L 244.946429 262.914118 
L 246.646191 264.183614 
L 248.345953 263.202177 
L 250.045715 264.23273 
L 253.445239 264.085234 
L 255.145001 262.529596 
L 256.844763 264.382586 
L 258.544525 264.3199 
L 260.244287 264.620423 
L 261.944049 263.915614 
L 263.643811 264.226756 
L 265.343573 261.356194 
L 267.043335 263.369806 
L 268.743097 260.644674 
L 270.442859 263.946883 
L 272.142621 264.405669 
L 273.842383 264.316213 
L 275.542145 264.50014 
L 277.241907 262.940741 
L 278.941669 264.084939 
L 280.641431 263.130347 
L 282.341193 264.434357 
L 284.040955 264.376317 
L 285.740718 264.009643 
L 287.44048 263.019061 
L 289.140242 263.965615 
L 290.840004 263.549972 
L 292.539766 264.572265 
L 295.93929 263.615534 
L 297.639052 262.584317 
L 299.338814 263.522612 
L 301.038576 263.1861 
L 302.738338 264.496379 
L 304.4381 264.649184 
L 306.137862 263.525119 
L 307.837624 263.999613 
L 309.537386 264.281846 
L 311.237148 263.350263 
L 312.93691 264.403088 
L 314.636672 262.414033 
L 316.336434 264.625954 
L 318.036196 264.57787 
L 319.735958 263.453436 
L 323.135482 264.370344 
L 324.835244 264.261787 
L 328.234768 264.42477 
L 329.93453 262.273839 
L 331.634292 263.833975 
L 333.334054 264.405743 
L 335.033816 263.544441 
L 336.733578 263.977341 
L 338.43334 263.787367 
L 340.133102 263.71148 
L 341.832864 264.178673 
L 343.532626 262.328928 
L 345.232388 263.47969 
L 346.93215 260.676238 
L 348.631912 264.620201 
L 350.331674 264.515332 
L 352.031436 263.74887 
L 353.731198 264.197847 
L 355.43096 264.109792 
L 357.130722 264.17587 
L 360.530246 263.924095 
L 362.230008 263.217443 
L 363.92977 263.797913 
L 365.629532 262.146623 
L 367.329294 264.37794 
L 369.029056 263.781762 
L 370.728818 263.800272 
L 372.42858 264.334945 
L 374.128342 264.420345 
L 375.828104 264.343352 
L 377.527866 263.583159 
L 379.227629 263.268034 
L 382.627153 263.604177 
L 384.326915 264.256919 
L 386.026677 264.231034 
L 387.726439 263.783974 
L 389.426201 262.93934 
L 391.125963 264.246373 
L 392.825725 263.912959 
L 396.225249 264.543651 
L 397.925011 264.001383 
L 399.624773 261.336282 
L 399.624773 261.336282 
" style="fill:none;stroke:#d62728;stroke-linecap:square;stroke-width:1.5;"/>
   </g>
   <g id="line2d_21">
    <path clip-path="url(#p206428b9ca)" d="M 74.970227 264.539226 
L 76.669989 264.481039 
L 78.369751 263.644296 
L 80.069513 264.394902 
L 81.769275 264.610836 
L 83.469037 264.291065 
L 85.168799 264.358028 
L 86.868561 263.901012 
L 88.568323 264.511718 
L 90.268085 264.087447 
L 91.967847 262.249576 
L 93.667609 264.242539 
L 95.367371 264.448443 
L 98.766896 264.428457 
L 100.466658 264.065544 
L 102.16642 264.208025 
L 103.866182 264.517028 
L 105.565944 264.543061 
L 107.265706 263.91613 
L 108.965468 264.526689 
L 110.66523 264.164218 
L 112.364992 264.433029 
L 114.064754 263.323345 
L 117.464278 264.019377 
L 119.16404 264.086267 
L 120.863802 264.473443 
L 122.563564 264.356332 
L 124.263326 264.428014 
L 125.963088 263.481755 
L 127.66285 263.634708 
L 129.362612 264.21857 
L 132.762136 263.96355 
L 134.461898 264.248807 
L 136.16166 264.357659 
L 137.861422 264.199912 
L 139.561184 261.913433 
L 141.260946 263.940025 
L 142.960708 263.91495 
L 144.66047 264.524329 
L 146.360232 263.554471 
L 148.059994 264.422631 
L 149.759756 264.375801 
L 151.459518 262.729379 
L 153.15928 262.538299 
L 154.859042 263.871144 
L 156.558804 263.523128 
L 158.258566 263.584486 
L 161.65809 264.59144 
L 163.357852 263.943417 
L 165.057614 264.346302 
L 166.757376 263.57689 
L 168.457138 264.506261 
L 170.1569 263.29097 
L 171.856662 262.84037 
L 175.256186 261.222267 
L 176.955948 263.796364 
L 178.65571 261.976708 
L 180.355472 264.20065 
L 182.055234 262.231876 
L 183.754996 261.819257 
L 185.454758 264.11289 
L 187.15452 263.082042 
L 188.854282 263.031524 
L 190.554045 263.859934 
L 192.253807 263.745552 
L 193.953569 264.481998 
L 195.653331 263.893932 
L 197.353093 262.849515 
L 199.052855 264.169602 
L 200.752617 262.236743 
L 202.452379 264.465995 
L 204.152141 264.318941 
L 205.851903 263.958093 
L 207.551665 264.17646 
L 209.251427 262.67901 
L 210.951189 261.836145 
L 212.650951 259.221487 
L 214.350713 264.122698 
L 216.050475 263.088237 
L 217.750237 264.387969 
L 219.449999 264.446673 
L 221.149761 263.748649 
L 222.849523 263.954553 
L 224.549285 262.867583 
L 227.948809 263.795995 
L 229.648571 264.096075 
L 231.348333 264.513931 
L 233.048095 264.30751 
L 234.747857 263.829698 
L 236.447619 264.142831 
L 238.147381 264.202567 
L 239.847143 263.538467 
L 241.546905 263.696583 
L 243.246667 264.226609 
L 244.946429 262.25695 
L 246.646191 264.353382 
L 248.345953 264.188629 
L 250.045715 263.8134 
L 251.745477 264.529713 
L 253.445239 263.906248 
L 255.145001 259.933302 
L 256.844763 264.172626 
L 258.544525 264.207508 
L 260.244287 264.540996 
L 261.944049 264.187228 
L 263.643811 264.530745 
L 265.343573 263.932281 
L 267.043335 264.118642 
L 268.743097 261.960263 
L 270.442859 263.820406 
L 272.142621 264.414076 
L 273.842383 264.343057 
L 275.542145 263.590091 
L 277.241907 263.444365 
L 278.941669 264.223512 
L 280.641431 263.874168 
L 282.341193 264.474107 
L 284.040955 264.459652 
L 285.740718 264.283985 
L 287.44048 262.943764 
L 289.140242 263.846144 
L 290.840004 263.358006 
L 292.539766 263.424306 
L 294.239528 263.620844 
L 295.93929 264.018124 
L 297.639052 262.888896 
L 299.338814 263.913328 
L 301.038576 263.253948 
L 302.738338 263.585002 
L 304.4381 264.342614 
L 306.137862 264.071591 
L 307.837624 263.530724 
L 309.537386 264.156622 
L 311.237148 264.180443 
L 312.93691 264.473517 
L 314.636672 264.114733 
L 316.336434 264.222184 
L 318.036196 264.505597 
L 319.735958 264.099984 
L 321.43572 261.081114 
L 323.135482 264.472558 
L 324.835244 263.97476 
L 326.535006 264.423737 
L 328.234768 264.571159 
L 329.93453 262.963676 
L 331.634292 264.089733 
L 333.334054 264.24335 
L 335.033816 262.616324 
L 336.733578 262.916109 
L 338.43334 264.523223 
L 340.133102 263.095611 
L 341.832864 263.911411 
L 343.532626 263.662438 
L 345.232388 263.57158 
L 346.93215 264.013256 
L 348.631912 264.612679 
L 350.331674 264.558843 
L 352.031436 263.974317 
L 353.731198 263.838253 
L 355.43096 264.248438 
L 357.130722 264.521748 
L 358.830484 264.54284 
L 360.530246 263.52475 
L 362.230008 263.609118 
L 363.92977 264.548592 
L 365.629532 263.650933 
L 367.329294 264.138628 
L 369.029056 264.260386 
L 370.728818 263.367889 
L 372.42858 264.15559 
L 374.128342 264.278454 
L 375.828104 264.105515 
L 377.527866 263.241853 
L 379.227629 264.405226 
L 380.927391 263.614354 
L 382.627153 263.641051 
L 384.326915 264.18177 
L 386.026677 264.194971 
L 387.726439 264.489225 
L 389.426201 263.483452 
L 391.125963 264.0755 
L 392.825725 263.616124 
L 394.525487 262.699216 
L 396.225249 264.615555 
L 399.624773 262.812051 
L 399.624773 262.812051 
" style="fill:none;stroke:#9467bd;stroke-linecap:square;stroke-width:1.5;"/>
   </g>
   <g id="line2d_22">
    <path clip-path="url(#p206428b9ca)" d="M 74.970227 264.416879 
L 76.669989 264.180812 
L 78.369751 264.071148 
L 80.069513 264.540923 
L 83.469037 264.512972 
L 85.168799 264.302201 
L 86.868561 263.972253 
L 88.568323 264.384946 
L 90.268085 264.305224 
L 91.967847 263.826748 
L 93.667609 264.07727 
L 95.367371 264.499034 
L 97.067134 264.549551 
L 98.766896 263.906469 
L 100.466658 264.472263 
L 102.16642 264.021885 
L 103.866182 264.374695 
L 105.565944 263.859492 
L 108.965468 264.173142 
L 110.66523 263.952709 
L 112.364992 263.855878 
L 114.064754 264.146003 
L 115.764516 263.937001 
L 117.464278 263.578291 
L 119.16404 263.907649 
L 120.863802 264.41828 
L 122.563564 263.71974 
L 124.263326 263.89172 
L 125.963088 263.879699 
L 127.66285 264.046443 
L 129.362612 264.475582 
L 131.062374 263.545178 
L 132.762136 263.08182 
L 134.461898 264.154189 
L 137.861422 264.496821 
L 139.561184 263.923948 
L 142.960708 263.553586 
L 144.66047 264.381775 
L 146.360232 263.529986 
L 148.059994 264.374474 
L 149.759756 264.532294 
L 151.459518 263.270099 
L 153.15928 263.592598 
L 154.859042 263.485885 
L 156.558804 264.209426 
L 158.258566 263.294731 
L 159.958328 263.615903 
L 161.65809 264.539448 
L 163.357852 263.860377 
L 165.057614 262.840812 
L 166.757376 264.143864 
L 168.457138 264.416657 
L 170.1569 263.771363 
L 171.856662 263.771585 
L 173.556424 261.710847 
L 175.256186 263.065891 
L 176.955948 263.476445 
L 178.65571 263.648573 
L 180.355472 264.607959 
L 182.055234 263.576743 
L 185.454758 264.332068 
L 187.15452 263.310144 
L 188.854282 263.836261 
L 190.554045 263.812736 
L 192.253807 264.090028 
L 193.953569 264.525657 
L 195.653331 264.176018 
L 197.353093 264.194012 
L 199.052855 264.428973 
L 200.752617 262.983662 
L 202.452379 264.126976 
L 204.152141 263.852043 
L 205.851903 263.806762 
L 207.551665 263.525414 
L 209.251427 263.017734 
L 210.951189 263.428362 
L 212.650951 261.137826 
L 214.350713 263.618853 
L 216.050475 264.252273 
L 217.750237 263.85138 
L 219.449999 264.418575 
L 221.149761 264.257952 
L 222.849523 263.408745 
L 224.549285 262.137405 
L 226.249047 263.611773 
L 227.948809 264.576469 
L 229.648571 264.427425 
L 233.048095 264.425655 
L 234.747857 263.854477 
L 236.447619 263.853813 
L 238.147381 264.005365 
L 239.847143 263.807352 
L 241.546905 264.159572 
L 243.246667 263.556904 
L 244.946429 263.20085 
L 246.646191 264.302938 
L 248.345953 264.01333 
L 250.045715 262.970904 
L 251.745477 264.514595 
L 253.445239 263.978964 
L 255.145001 261.764314 
L 256.844763 264.322039 
L 258.544525 264.306625 
L 261.944049 264.526173 
L 263.643811 264.401244 
L 265.343573 263.910304 
L 267.043335 263.649974 
L 268.743097 262.959399 
L 270.442859 264.151091 
L 272.142621 264.453163 
L 273.842383 263.973875 
L 275.542145 264.155369 
L 277.241907 263.683751 
L 278.941669 264.17528 
L 280.641431 263.074667 
L 282.341193 264.564891 
L 285.740718 264.383766 
L 287.44048 263.453879 
L 289.140242 263.74297 
L 290.840004 262.369268 
L 292.539766 263.745183 
L 294.239528 263.363759 
L 295.93929 264.083022 
L 297.639052 263.717159 
L 299.338814 263.816866 
L 301.038576 263.329466 
L 302.738338 264.029997 
L 304.4381 264.486349 
L 306.137862 262.262924 
L 307.837624 263.999465 
L 309.537386 264.48303 
L 311.237148 263.591271 
L 312.93691 264.465331 
L 314.636672 263.318256 
L 316.336434 264.253969 
L 318.036196 264.48598 
L 319.735958 263.468628 
L 321.43572 263.92852 
L 323.135482 263.557568 
L 324.835244 264.121813 
L 326.535006 264.534654 
L 328.234768 264.395418 
L 329.93453 262.653271 
L 333.334054 264.485169 
L 335.033816 263.879404 
L 338.43334 263.755434 
L 341.832864 263.104682 
L 343.532626 264.159867 
L 345.232388 263.819004 
L 346.93215 262.980638 
L 348.631912 264.621455 
L 350.331674 264.458399 
L 352.031436 263.921956 
L 353.731198 263.809196 
L 355.43096 263.897472 
L 357.130722 264.436938 
L 358.830484 263.228579 
L 360.530246 262.898999 
L 362.230008 263.107927 
L 363.92977 264.258689 
L 367.329294 263.302105 
L 369.029056 263.861483 
L 370.728818 263.489425 
L 372.42858 263.374231 
L 374.128342 264.387969 
L 375.828104 264.388781 
L 377.527866 263.425191 
L 379.227629 263.423126 
L 380.927391 263.87815 
L 382.627153 264.096149 
L 384.326915 264.011118 
L 386.026677 264.080367 
L 387.726439 263.562509 
L 389.426201 263.657497 
L 392.825725 263.060065 
L 394.525487 261.966236 
L 396.225249 264.501762 
L 397.925011 262.720013 
L 399.624773 263.321944 
L 399.624773 263.321944 
" style="fill:none;stroke:#8c564b;stroke-linecap:square;stroke-width:1.5;"/>
   </g>
   <g id="line2d_23">
    <path clip-path="url(#p206428b9ca)" d="M 74.970227 264.540554 
L 76.669989 264.204263 
L 78.369751 264.521379 
L 80.069513 264.605452 
L 81.769275 264.391583 
L 83.469037 264.634509 
L 85.168799 263.92321 
L 86.868561 263.594147 
L 88.568323 264.336125 
L 91.967847 262.854677 
L 93.667609 264.518061 
L 95.367371 264.618948 
L 97.067134 264.57551 
L 98.766896 263.428583 
L 100.466658 264.584434 
L 103.866182 264.189366 
L 105.565944 264.31046 
L 107.265706 264.171224 
L 108.965468 263.739652 
L 110.66523 264.264958 
L 112.364992 263.716569 
L 114.064754 262.95372 
L 115.764516 264.22211 
L 117.464278 264.006029 
L 119.16404 263.91554 
L 120.863802 264.582369 
L 122.563564 264.042682 
L 124.263326 263.742085 
L 125.963088 263.907133 
L 127.66285 264.391804 
L 129.362612 264.38266 
L 132.762136 264.026383 
L 136.16166 264.539374 
L 137.861422 264.586572 
L 139.561184 262.797227 
L 141.260946 264.029186 
L 144.66047 264.587679 
L 146.360232 264.044599 
L 148.059994 264.5702 
L 149.759756 264.474402 
L 151.459518 263.641346 
L 153.15928 264.019599 
L 154.859042 264.119896 
L 156.558804 263.880215 
L 158.258566 263.948727 
L 159.958328 263.668854 
L 161.65809 264.597413 
L 163.357852 264.032652 
L 165.057614 264.317245 
L 166.757376 264.181549 
L 168.457138 264.541512 
L 170.1569 262.879899 
L 171.856662 263.235659 
L 173.556424 262.118894 
L 175.256186 264.122108 
L 176.955948 263.257709 
L 178.65571 264.453236 
L 180.355472 264.603682 
L 182.055234 263.988403 
L 183.754996 263.220172 
L 185.454758 264.491585 
L 188.854282 263.352107 
L 190.554045 263.306235 
L 192.253807 264.015543 
L 193.953569 264.528459 
L 195.653331 264.155737 
L 197.353093 264.429047 
L 199.052855 264.360978 
L 200.752617 263.924021 
L 202.452379 263.831468 
L 204.152141 264.309133 
L 205.851903 264.097698 
L 207.551665 264.137522 
L 209.251427 262.645528 
L 210.951189 264.104187 
L 212.650951 262.471557 
L 214.350713 263.770847 
L 219.449999 264.531114 
L 221.149761 264.39763 
L 224.549285 263.485369 
L 227.948809 264.500361 
L 231.348333 264.484727 
L 233.048095 264.524698 
L 234.747857 264.343721 
L 236.447619 264.007357 
L 238.147381 264.285312 
L 239.847143 264.208983 
L 243.246667 264.252126 
L 244.946429 263.88582 
L 246.646191 264.068199 
L 248.345953 263.869448 
L 250.045715 264.301684 
L 251.745477 264.359355 
L 253.445239 264.223807 
L 255.145001 260.395996 
L 256.844763 264.340402 
L 258.544525 264.33878 
L 260.244287 264.601027 
L 261.944049 264.464815 
L 263.643811 264.464077 
L 265.343573 263.293551 
L 267.043335 264.085013 
L 270.442859 264.077933 
L 272.142621 264.568283 
L 273.842383 264.099836 
L 277.241907 263.989362 
L 278.941669 264.412822 
L 280.641431 264.22329 
L 282.341193 264.460169 
L 284.040955 264.543725 
L 285.740718 264.486275 
L 287.44048 263.570916 
L 290.840004 263.903667 
L 294.239528 263.83014 
L 295.93929 264.167463 
L 297.639052 264.023876 
L 301.038576 264.153082 
L 302.738338 263.467669 
L 304.4381 264.441879 
L 306.137862 263.431975 
L 307.837624 263.598056 
L 309.537386 264.394312 
L 311.237148 264.222037 
L 312.93691 264.368574 
L 314.636672 263.294583 
L 316.336434 264.567545 
L 318.036196 264.447263 
L 319.735958 263.376738 
L 321.43572 263.596728 
L 324.835244 262.931965 
L 326.535006 264.543504 
L 328.234768 264.36496 
L 329.93453 263.432492 
L 331.634292 264.134793 
L 333.334054 264.397852 
L 335.033816 263.855805 
L 336.733578 263.958167 
L 338.43334 263.321501 
L 340.133102 263.677925 
L 341.832864 263.643853 
L 343.532626 263.019577 
L 345.232388 263.738324 
L 346.93215 263.743339 
L 348.631912 264.619759 
L 350.331674 264.498222 
L 352.031436 263.464351 
L 353.731198 264.073803 
L 355.43096 263.866424 
L 357.130722 264.526025 
L 358.830484 263.745109 
L 360.530246 263.404984 
L 363.92977 264.530598 
L 365.629532 262.309606 
L 367.329294 264.046517 
L 369.029056 263.506756 
L 370.728818 263.439719 
L 372.42858 263.755139 
L 374.128342 264.274693 
L 375.828104 264.374105 
L 377.527866 263.947694 
L 379.227629 262.774956 
L 380.927391 263.468849 
L 382.627153 263.106452 
L 384.326915 264.0696 
L 386.026677 263.623572 
L 389.426201 264.170339 
L 391.125963 263.736481 
L 392.825725 262.735353 
L 394.525487 264.091134 
L 396.225249 264.477278 
L 397.925011 263.979554 
L 399.624773 263.058885 
L 399.624773 263.058885 
" style="fill:none;stroke:#e377c2;stroke-linecap:square;stroke-width:1.5;"/>
   </g>
   <g id="line2d_24">
    <path clip-path="url(#p206428b9ca)" d="M 74.970227 264.607443 
L 76.669989 264.481924 
L 78.369751 264.615113 
L 85.168799 264.581558 
L 86.868561 264.37499 
L 88.568323 264.556188 
L 90.268085 264.240547 
L 91.967847 263.193254 
L 93.667609 264.40176 
L 95.367371 264.659362 
L 98.766896 264.456481 
L 100.466658 264.622856 
L 103.866182 264.39527 
L 105.565944 264.535023 
L 110.66523 264.508178 
L 112.364992 264.301611 
L 114.064754 264.363559 
L 115.764516 263.745552 
L 117.464278 264.212449 
L 119.16404 264.346523 
L 120.863802 264.645128 
L 124.263326 264.471378 
L 127.66285 264.36437 
L 129.362612 264.557368 
L 131.062374 264.42123 
L 132.762136 264.435463 
L 134.461898 264.277643 
L 136.16166 264.599257 
L 137.861422 264.64122 
L 139.561184 264.029628 
L 144.66047 264.630084 
L 146.360232 264.406849 
L 148.059994 264.631411 
L 149.759756 264.613343 
L 151.459518 264.362084 
L 153.15928 264.444387 
L 154.859042 264.341803 
L 156.558804 264.493724 
L 158.258566 264.369385 
L 159.958328 264.415772 
L 161.65809 264.592251 
L 163.357852 263.820037 
L 165.057614 264.579345 
L 166.757376 264.324399 
L 168.457138 264.5334 
L 170.1569 264.293646 
L 171.856662 263.261987 
L 173.556424 261.137457 
L 175.256186 264.239146 
L 176.955948 264.390329 
L 178.65571 264.177198 
L 180.355472 264.553386 
L 182.055234 263.82483 
L 183.754996 263.843341 
L 185.454758 264.49778 
L 187.15452 264.288631 
L 193.953569 264.590039 
L 197.353093 264.424475 
L 199.052855 264.544684 
L 200.752617 264.27897 
L 202.452379 263.420692 
L 204.152141 264.420197 
L 207.551665 264.491733 
L 209.251427 264.185826 
L 210.951189 264.061266 
L 214.350713 264.15854 
L 216.050475 264.565481 
L 219.449999 264.556778 
L 221.149761 264.216432 
L 222.849523 264.491069 
L 224.549285 264.244456 
L 226.249047 264.376243 
L 227.948809 264.625069 
L 229.648571 264.508178 
L 233.048095 264.604641 
L 234.747857 264.365771 
L 238.147381 264.53104 
L 241.546905 264.359724 
L 243.246667 264.373072 
L 244.946429 264.505376 
L 246.646191 264.246668 
L 248.345953 264.505524 
L 251.745477 264.45272 
L 253.445239 264.256034 
L 255.145001 263.775272 
L 256.844763 264.486349 
L 258.544525 264.598962 
L 263.643811 264.453826 
L 267.043335 263.937444 
L 268.743097 264.452794 
L 270.442859 264.33701 
L 272.142621 264.495863 
L 275.542145 264.342393 
L 277.241907 263.944818 
L 280.641431 264.583623 
L 282.341193 264.489299 
L 284.040955 264.582885 
L 285.740718 264.544389 
L 287.44048 264.273439 
L 289.140242 264.446083 
L 290.840004 264.355889 
L 297.639052 264.422926 
L 299.338814 263.973211 
L 301.038576 264.406333 
L 302.738338 264.178747 
L 304.4381 264.578239 
L 307.837624 264.305519 
L 309.537386 264.553238 
L 311.237148 264.385536 
L 312.93691 264.626986 
L 314.636672 264.292318 
L 316.336434 264.538563 
L 318.036196 264.525067 
L 319.735958 264.399179 
L 321.43572 263.85197 
L 323.135482 264.297554 
L 324.835244 264.253748 
L 326.535006 264.609877 
L 328.234768 264.634804 
L 329.93453 264.217464 
L 331.634292 264.466806 
L 333.334054 264.582664 
L 335.033816 264.36968 
L 336.733578 264.432439 
L 338.43334 264.289221 
L 340.133102 264.389666 
L 341.832864 264.127049 
L 343.532626 264.343573 
L 345.232388 264.423147 
L 346.93215 264.333543 
L 348.631912 264.610909 
L 350.331674 264.637532 
L 352.031436 264.291802 
L 353.731198 264.5143 
L 355.43096 264.434578 
L 357.130722 264.580599 
L 358.830484 264.449844 
L 360.530246 264.190473 
L 362.230008 264.496158 
L 363.92977 264.514373 
L 365.629532 263.922989 
L 369.029056 264.559728 
L 370.728818 264.495568 
L 372.42858 264.188408 
L 374.128342 264.584876 
L 377.527866 264.523297 
L 379.227629 264.150132 
L 386.026677 264.340328 
L 387.726439 264.363633 
L 389.426201 264.061192 
L 391.125963 264.449106 
L 392.825725 264.110751 
L 394.525487 262.654894 
L 396.225249 264.540259 
L 399.624773 263.365086 
L 399.624773 263.365086 
" style="fill:none;stroke:#7f7f7f;stroke-linecap:square;stroke-width:1.5;"/>
   </g>
   <g id="line2d_25">
    <path clip-path="url(#p206428b9ca)" d="M 74.970227 264.673079 
L 112.364992 264.667548 
L 343.532626 264.667179 
L 399.624773 264.665704 
L 399.624773 264.665704 
" style="fill:none;stroke:#bcbd22;stroke-linecap:square;stroke-width:1.5;"/>
   </g>
   <g id="line2d_26">
    <path clip-path="url(#p206428b9ca)" d="M 74.970227 264.673079 
L 120.863802 264.669908 
L 267.043335 264.666589 
L 399.624773 264.66799 
L 399.624773 264.66799 
" style="fill:none;stroke:#17becf;stroke-linecap:square;stroke-width:1.5;"/>
   </g>
   <g id="line2d_27">
    <path clip-path="url(#p206428b9ca)" d="M 74.970227 264.669465 
L 399.624773 264.67212 
L 399.624773 264.67212 
" style="fill:none;stroke:#1f77b4;stroke-linecap:square;stroke-width:1.5;"/>
   </g>
   <g id="line2d_28">
    <path clip-path="url(#p206428b9ca)" d="M 74.970227 264.673079 
L 399.624773 264.673079 
L 399.624773 264.673079 
" style="fill:none;stroke:#ff7f0e;stroke-linecap:square;stroke-width:1.5;"/>
   </g>
   <g id="patch_3">
    <path d="M 58.7375 276.812 
L 58.7375 10.7 
" style="fill:none;stroke:#000000;stroke-linecap:square;stroke-linejoin:miter;stroke-width:0.8;"/>
   </g>
   <g id="patch_4">
    <path d="M 415.8575 276.812 
L 415.8575 10.7 
" style="fill:none;stroke:#000000;stroke-linecap:square;stroke-linejoin:miter;stroke-width:0.8;"/>
   </g>
   <g id="patch_5">
    <path d="M 58.7375 276.812 
L 415.8575 276.812 
" style="fill:none;stroke:#000000;stroke-linecap:square;stroke-linejoin:miter;stroke-width:0.8;"/>
   </g>
   <g id="patch_6">
    <path d="M 58.7375 10.7 
L 415.8575 10.7 
" style="fill:none;stroke:#000000;stroke-linecap:square;stroke-linejoin:miter;stroke-width:0.8;"/>
   </g>
   <g id="legend_1">
    <g id="patch_7">
     <path d="M 318.504375 165.48125 
L 408.8575 165.48125 
Q 410.8575 165.48125 410.8575 163.48125 
L 410.8575 17.7 
Q 410.8575 15.7 408.8575 15.7 
L 318.504375 15.7 
Q 316.504375 15.7 316.504375 17.7 
L 316.504375 163.48125 
Q 316.504375 165.48125 318.504375 165.48125 
z
" style="fill:#ffffff;opacity:0.8;stroke:#cccccc;stroke-linejoin:miter;"/>
    </g>
    <g id="line2d_29">
     <path d="M 320.504375 23.798437 
L 340.504375 23.798437 
" style="fill:none;stroke:#1f77b4;stroke-linecap:square;stroke-width:1.5;"/>
    </g>
    <g id="line2d_30"/>
    <g id="text_17">
     <!-- delta -->
     <defs>
      <path d="M 45.40625 46.390625 
L 45.40625 75.984375 
L 54.390625 75.984375 
L 54.390625 0 
L 45.40625 0 
L 45.40625 8.203125 
Q 42.578125 3.328125 38.25 0.953125 
Q 33.9375 -1.421875 27.875 -1.421875 
Q 17.96875 -1.421875 11.734375 6.484375 
Q 5.515625 14.40625 5.515625 27.296875 
Q 5.515625 40.1875 11.734375 48.09375 
Q 17.96875 56 27.875 56 
Q 33.9375 56 38.25 53.625 
Q 42.578125 51.265625 45.40625 46.390625 
M 14.796875 27.296875 
Q 14.796875 17.390625 18.875 11.75 
Q 22.953125 6.109375 30.078125 6.109375 
Q 37.203125 6.109375 41.296875 11.75 
Q 45.40625 17.390625 45.40625 27.296875 
Q 45.40625 37.203125 41.296875 42.84375 
Q 37.203125 48.484375 30.078125 48.484375 
Q 22.953125 48.484375 18.875 42.84375 
Q 14.796875 37.203125 14.796875 27.296875 
" id="DejaVuSans-64"/>
      <path d="M 56.203125 29.59375 
L 56.203125 25.203125 
L 14.890625 25.203125 
Q 15.484375 15.921875 20.484375 11.0625 
Q 25.484375 6.203125 34.421875 6.203125 
Q 39.59375 6.203125 44.453125 7.46875 
Q 49.3125 8.734375 54.109375 11.28125 
L 54.109375 2.78125 
Q 49.265625 0.734375 44.1875 -0.34375 
Q 39.109375 -1.421875 33.890625 -1.421875 
Q 20.796875 -1.421875 13.15625 6.1875 
Q 5.515625 13.8125 5.515625 26.8125 
Q 5.515625 40.234375 12.765625 48.109375 
Q 20.015625 56 32.328125 56 
Q 43.359375 56 49.78125 48.890625 
Q 56.203125 41.796875 56.203125 29.59375 
M 47.21875 32.234375 
Q 47.125 39.59375 43.09375 43.984375 
Q 39.0625 48.390625 32.421875 48.390625 
Q 24.90625 48.390625 20.390625 44.140625 
Q 15.875 39.890625 15.1875 32.171875 
z
" id="DejaVuSans-65"/>
      <path d="M 9.421875 75.984375 
L 18.40625 75.984375 
L 18.40625 0 
L 9.421875 0 
z
" id="DejaVuSans-6c"/>
      <path d="M 18.3125 70.21875 
L 18.3125 54.6875 
L 36.8125 54.6875 
L 36.8125 47.703125 
L 18.3125 47.703125 
L 18.3125 18.015625 
Q 18.3125 11.328125 20.140625 9.421875 
Q 21.96875 7.515625 27.59375 7.515625 
L 36.8125 7.515625 
L 36.8125 0 
L 27.59375 0 
Q 17.1875 0 13.234375 3.875 
Q 9.28125 7.765625 9.28125 18.015625 
L 9.28125 47.703125 
L 2.6875 47.703125 
L 2.6875 54.6875 
L 9.28125 54.6875 
L 9.28125 70.21875 
z
" id="DejaVuSans-74"/>
      <path d="M 34.28125 27.484375 
Q 23.390625 27.484375 19.1875 25 
Q 14.984375 22.515625 14.984375 16.5 
Q 14.984375 11.71875 18.140625 8.90625 
Q 21.296875 6.109375 26.703125 6.109375 
Q 34.1875 6.109375 38.703125 11.40625 
Q 43.21875 16.703125 43.21875 25.484375 
L 43.21875 27.484375 
z
M 52.203125 31.203125 
L 52.203125 0 
L 43.21875 0 
L 43.21875 8.296875 
Q 40.140625 3.328125 35.546875 0.953125 
Q 30.953125 -1.421875 24.3125 -1.421875 
Q 15.921875 -1.421875 10.953125 3.296875 
Q 6 8.015625 6 15.921875 
Q 6 25.140625 12.171875 29.828125 
Q 18.359375 34.515625 30.609375 34.515625 
L 43.21875 34.515625 
L 43.21875 35.40625 
Q 43.21875 41.609375 39.140625 45 
Q 35.0625 48.390625 27.6875 48.390625 
Q 23 48.390625 18.546875 47.265625 
Q 14.109375 46.140625 10.015625 43.890625 
L 10.015625 52.203125 
Q 14.9375 54.109375 19.578125 55.046875 
Q 24.21875 56 28.609375 56 
Q 40.484375 56 46.34375 49.84375 
Q 52.203125 43.703125 52.203125 31.203125 
" id="DejaVuSans-61"/>
     </defs>
     <g transform="translate(348.504375 27.298437)scale(0.1 -0.1)">
      <use xlink:href="#DejaVuSans-64"/>
      <use x="63.476562" xlink:href="#DejaVuSans-65"/>
      <use x="125" xlink:href="#DejaVuSans-6c"/>
      <use x="152.783203" xlink:href="#DejaVuSans-74"/>
      <use x="191.992188" xlink:href="#DejaVuSans-61"/>
     </g>
    </g>
    <g id="line2d_31">
     <path d="M 320.504375 38.476562 
L 340.504375 38.476562 
" style="fill:none;stroke:#ff7f0e;stroke-linecap:square;stroke-width:1.5;"/>
    </g>
    <g id="line2d_32"/>
    <g id="text_18">
     <!-- lowAlpha -->
     <defs>
      <path d="M 30.609375 48.390625 
Q 23.390625 48.390625 19.1875 42.75 
Q 14.984375 37.109375 14.984375 27.296875 
Q 14.984375 17.484375 19.15625 11.84375 
Q 23.34375 6.203125 30.609375 6.203125 
Q 37.796875 6.203125 41.984375 11.859375 
Q 46.1875 17.53125 46.1875 27.296875 
Q 46.1875 37.015625 41.984375 42.703125 
Q 37.796875 48.390625 30.609375 48.390625 
M 30.609375 56 
Q 42.328125 56 49.015625 48.375 
Q 55.71875 40.765625 55.71875 27.296875 
Q 55.71875 13.875 49.015625 6.21875 
Q 42.328125 -1.421875 30.609375 -1.421875 
Q 18.84375 -1.421875 12.171875 6.21875 
Q 5.515625 13.875 5.515625 27.296875 
Q 5.515625 40.765625 12.171875 48.375 
Q 18.84375 56 30.609375 56 
" id="DejaVuSans-6f"/>
      <path d="M 4.203125 54.6875 
L 13.1875 54.6875 
L 24.421875 12.015625 
L 35.59375 54.6875 
L 46.1875 54.6875 
L 57.421875 12.015625 
L 68.609375 54.6875 
L 77.59375 54.6875 
L 63.28125 0 
L 52.6875 0 
L 40.921875 44.828125 
L 29.109375 0 
L 18.5 0 
z
" id="DejaVuSans-77"/>
      <path d="M 34.1875 63.1875 
L 20.796875 26.90625 
L 47.609375 26.90625 
z
M 28.609375 72.90625 
L 39.796875 72.90625 
L 67.578125 0 
L 57.328125 0 
L 50.6875 18.703125 
L 17.828125 18.703125 
L 11.1875 0 
L 0.78125 0 
z
" id="DejaVuSans-41"/>
      <path d="M 18.109375 8.203125 
L 18.109375 -20.796875 
L 9.078125 -20.796875 
L 9.078125 54.6875 
L 18.109375 54.6875 
L 18.109375 46.390625 
Q 20.953125 51.265625 25.265625 53.625 
Q 29.59375 56 35.59375 56 
Q 45.5625 56 51.78125 48.09375 
Q 58.015625 40.1875 58.015625 27.296875 
Q 58.015625 14.40625 51.78125 6.484375 
Q 45.5625 -1.421875 35.59375 -1.421875 
Q 29.59375 -1.421875 25.265625 0.953125 
Q 20.953125 3.328125 18.109375 8.203125 
M 48.6875 27.296875 
Q 48.6875 37.203125 44.609375 42.84375 
Q 40.53125 48.484375 33.40625 48.484375 
Q 26.265625 48.484375 22.1875 42.84375 
Q 18.109375 37.203125 18.109375 27.296875 
Q 18.109375 17.390625 22.1875 11.75 
Q 26.265625 6.109375 33.40625 6.109375 
Q 40.53125 6.109375 44.609375 11.75 
Q 48.6875 17.390625 48.6875 27.296875 
" id="DejaVuSans-70"/>
      <path d="M 54.890625 33.015625 
L 54.890625 0 
L 45.90625 0 
L 45.90625 32.71875 
Q 45.90625 40.484375 42.875 44.328125 
Q 39.84375 48.1875 33.796875 48.1875 
Q 26.515625 48.1875 22.3125 43.546875 
Q 18.109375 38.921875 18.109375 30.90625 
L 18.109375 0 
L 9.078125 0 
L 9.078125 75.984375 
L 18.109375 75.984375 
L 18.109375 46.1875 
Q 21.34375 51.125 25.703125 53.5625 
Q 30.078125 56 35.796875 56 
Q 45.21875 56 50.046875 50.171875 
Q 54.890625 44.34375 54.890625 33.015625 
" id="DejaVuSans-68"/>
     </defs>
     <g transform="translate(348.504375 41.976562)scale(0.1 -0.1)">
      <use xlink:href="#DejaVuSans-6c"/>
      <use x="27.783203" xlink:href="#DejaVuSans-6f"/>
      <use x="88.964844" xlink:href="#DejaVuSans-77"/>
      <use x="170.751953" xlink:href="#DejaVuSans-41"/>
      <use x="239.160156" xlink:href="#DejaVuSans-6c"/>
      <use x="266.943359" xlink:href="#DejaVuSans-70"/>
      <use x="330.419922" xlink:href="#DejaVuSans-68"/>
      <use x="393.798828" xlink:href="#DejaVuSans-61"/>
     </g>
    </g>
    <g id="line2d_33">
     <path d="M 320.504375 53.154687 
L 340.504375 53.154687 
" style="fill:none;stroke:#2ca02c;stroke-linecap:square;stroke-width:1.5;"/>
    </g>
    <g id="line2d_34"/>
    <g id="text_19">
     <!-- highAlpha -->
     <defs>
      <path d="M 9.421875 54.6875 
L 18.40625 54.6875 
L 18.40625 0 
L 9.421875 0 
z
M 9.421875 75.984375 
L 18.40625 75.984375 
L 18.40625 64.59375 
L 9.421875 64.59375 
z
" id="DejaVuSans-69"/>
      <path d="M 45.40625 27.984375 
Q 45.40625 37.75 41.375 43.109375 
Q 37.359375 48.484375 30.078125 48.484375 
Q 22.859375 48.484375 18.828125 43.109375 
Q 14.796875 37.75 14.796875 27.984375 
Q 14.796875 18.265625 18.828125 12.890625 
Q 22.859375 7.515625 30.078125 7.515625 
Q 37.359375 7.515625 41.375 12.890625 
Q 45.40625 18.265625 45.40625 27.984375 
M 54.390625 6.78125 
Q 54.390625 -7.171875 48.1875 -13.984375 
Q 42 -20.796875 29.203125 -20.796875 
Q 24.46875 -20.796875 20.265625 -20.09375 
Q 16.0625 -19.390625 12.109375 -17.921875 
L 12.109375 -9.1875 
Q 16.0625 -11.328125 19.921875 -12.34375 
Q 23.78125 -13.375 27.78125 -13.375 
Q 36.625 -13.375 41.015625 -8.765625 
Q 45.40625 -4.15625 45.40625 5.171875 
L 45.40625 9.625 
Q 42.625 4.78125 38.28125 2.390625 
Q 33.9375 0 27.875 0 
Q 17.828125 0 11.671875 7.65625 
Q 5.515625 15.328125 5.515625 27.984375 
Q 5.515625 40.671875 11.671875 48.328125 
Q 17.828125 56 27.875 56 
Q 33.9375 56 38.28125 53.609375 
Q 42.625 51.21875 45.40625 46.390625 
L 45.40625 54.6875 
L 54.390625 54.6875 
z
" id="DejaVuSans-67"/>
     </defs>
     <g transform="translate(348.504375 56.654687)scale(0.1 -0.1)">
      <use xlink:href="#DejaVuSans-68"/>
      <use x="63.378906" xlink:href="#DejaVuSans-69"/>
      <use x="91.162109" xlink:href="#DejaVuSans-67"/>
      <use x="154.638672" xlink:href="#DejaVuSans-68"/>
      <use x="218.017578" xlink:href="#DejaVuSans-41"/>
      <use x="286.425781" xlink:href="#DejaVuSans-6c"/>
      <use x="314.208984" xlink:href="#DejaVuSans-70"/>
      <use x="377.685547" xlink:href="#DejaVuSans-68"/>
      <use x="441.064453" xlink:href="#DejaVuSans-61"/>
     </g>
    </g>
    <g id="line2d_35">
     <path d="M 320.504375 67.832812 
L 340.504375 67.832812 
" style="fill:none;stroke:#d62728;stroke-linecap:square;stroke-width:1.5;"/>
    </g>
    <g id="line2d_36"/>
    <g id="text_20">
     <!-- lowBeta -->
     <defs>
      <path d="M 19.671875 34.8125 
L 19.671875 8.109375 
L 35.5 8.109375 
Q 43.453125 8.109375 47.28125 11.40625 
Q 51.125 14.703125 51.125 21.484375 
Q 51.125 28.328125 47.28125 31.5625 
Q 43.453125 34.8125 35.5 34.8125 
z
M 19.671875 64.796875 
L 19.671875 42.828125 
L 34.28125 42.828125 
Q 41.5 42.828125 45.03125 45.53125 
Q 48.578125 48.25 48.578125 53.8125 
Q 48.578125 59.328125 45.03125 62.0625 
Q 41.5 64.796875 34.28125 64.796875 
z
M 9.8125 72.90625 
L 35.015625 72.90625 
Q 46.296875 72.90625 52.390625 68.21875 
Q 58.5 63.53125 58.5 54.890625 
Q 58.5 48.1875 55.375 44.234375 
Q 52.25 40.28125 46.1875 39.3125 
Q 53.46875 37.75 57.5 32.78125 
Q 61.53125 27.828125 61.53125 20.40625 
Q 61.53125 10.640625 54.890625 5.3125 
Q 48.25 0 35.984375 0 
L 9.8125 0 
z
" id="DejaVuSans-42"/>
     </defs>
     <g transform="translate(348.504375 71.332812)scale(0.1 -0.1)">
      <use xlink:href="#DejaVuSans-6c"/>
      <use x="27.783203" xlink:href="#DejaVuSans-6f"/>
      <use x="88.964844" xlink:href="#DejaVuSans-77"/>
      <use x="170.751953" xlink:href="#DejaVuSans-42"/>
      <use x="239.355469" xlink:href="#DejaVuSans-65"/>
      <use x="300.878906" xlink:href="#DejaVuSans-74"/>
      <use x="340.087891" xlink:href="#DejaVuSans-61"/>
     </g>
    </g>
    <g id="line2d_37">
     <path d="M 320.504375 82.510938 
L 340.504375 82.510938 
" style="fill:none;stroke:#9467bd;stroke-linecap:square;stroke-width:1.5;"/>
    </g>
    <g id="line2d_38"/>
    <g id="text_21">
     <!-- highBeta -->
     <g transform="translate(348.504375 86.010938)scale(0.1 -0.1)">
      <use xlink:href="#DejaVuSans-68"/>
      <use x="63.378906" xlink:href="#DejaVuSans-69"/>
      <use x="91.162109" xlink:href="#DejaVuSans-67"/>
      <use x="154.638672" xlink:href="#DejaVuSans-68"/>
      <use x="218.017578" xlink:href="#DejaVuSans-42"/>
      <use x="286.621094" xlink:href="#DejaVuSans-65"/>
      <use x="348.144531" xlink:href="#DejaVuSans-74"/>
      <use x="387.353516" xlink:href="#DejaVuSans-61"/>
     </g>
    </g>
    <g id="line2d_39">
     <path d="M 320.504375 97.189062 
L 340.504375 97.189062 
" style="fill:none;stroke:#8c564b;stroke-linecap:square;stroke-width:1.5;"/>
    </g>
    <g id="line2d_40"/>
    <g id="text_22">
     <!-- lowGamma -->
     <defs>
      <path d="M 59.515625 10.40625 
L 59.515625 29.984375 
L 43.40625 29.984375 
L 43.40625 38.09375 
L 69.28125 38.09375 
L 69.28125 6.78125 
Q 63.578125 2.734375 56.6875 0.65625 
Q 49.8125 -1.421875 42 -1.421875 
Q 24.90625 -1.421875 15.25 8.5625 
Q 5.609375 18.5625 5.609375 36.375 
Q 5.609375 54.25 15.25 64.234375 
Q 24.90625 74.21875 42 74.21875 
Q 49.125 74.21875 55.546875 72.453125 
Q 61.96875 70.703125 67.390625 67.28125 
L 67.390625 56.78125 
Q 61.921875 61.421875 55.765625 63.765625 
Q 49.609375 66.109375 42.828125 66.109375 
Q 29.4375 66.109375 22.71875 58.640625 
Q 16.015625 51.171875 16.015625 36.375 
Q 16.015625 21.625 22.71875 14.15625 
Q 29.4375 6.6875 42.828125 6.6875 
Q 48.046875 6.6875 52.140625 7.59375 
Q 56.25 8.5 59.515625 10.40625 
" id="DejaVuSans-47"/>
      <path d="M 52 44.1875 
Q 55.375 50.25 60.0625 53.125 
Q 64.75 56 71.09375 56 
Q 79.640625 56 84.28125 50.015625 
Q 88.921875 44.046875 88.921875 33.015625 
L 88.921875 0 
L 79.890625 0 
L 79.890625 32.71875 
Q 79.890625 40.578125 77.09375 44.375 
Q 74.3125 48.1875 68.609375 48.1875 
Q 61.625 48.1875 57.5625 43.546875 
Q 53.515625 38.921875 53.515625 30.90625 
L 53.515625 0 
L 44.484375 0 
L 44.484375 32.71875 
Q 44.484375 40.625 41.703125 44.40625 
Q 38.921875 48.1875 33.109375 48.1875 
Q 26.21875 48.1875 22.15625 43.53125 
Q 18.109375 38.875 18.109375 30.90625 
L 18.109375 0 
L 9.078125 0 
L 9.078125 54.6875 
L 18.109375 54.6875 
L 18.109375 46.1875 
Q 21.1875 51.21875 25.484375 53.609375 
Q 29.78125 56 35.6875 56 
Q 41.65625 56 45.828125 52.96875 
Q 50 49.953125 52 44.1875 
" id="DejaVuSans-6d"/>
     </defs>
     <g transform="translate(348.504375 100.689062)scale(0.1 -0.1)">
      <use xlink:href="#DejaVuSans-6c"/>
      <use x="27.783203" xlink:href="#DejaVuSans-6f"/>
      <use x="88.964844" xlink:href="#DejaVuSans-77"/>
      <use x="170.751953" xlink:href="#DejaVuSans-47"/>
      <use x="248.242188" xlink:href="#DejaVuSans-61"/>
      <use x="309.521484" xlink:href="#DejaVuSans-6d"/>
      <use x="406.933594" xlink:href="#DejaVuSans-6d"/>
      <use x="504.345703" xlink:href="#DejaVuSans-61"/>
     </g>
    </g>
    <g id="line2d_41">
     <path d="M 320.504375 111.867188 
L 340.504375 111.867188 
" style="fill:none;stroke:#e377c2;stroke-linecap:square;stroke-width:1.5;"/>
    </g>
    <g id="line2d_42"/>
    <g id="text_23">
     <!-- midGamma -->
     <g transform="translate(348.504375 115.367188)scale(0.1 -0.1)">
      <use xlink:href="#DejaVuSans-6d"/>
      <use x="97.412109" xlink:href="#DejaVuSans-69"/>
      <use x="125.195312" xlink:href="#DejaVuSans-64"/>
      <use x="188.671875" xlink:href="#DejaVuSans-47"/>
      <use x="266.162109" xlink:href="#DejaVuSans-61"/>
      <use x="327.441406" xlink:href="#DejaVuSans-6d"/>
      <use x="424.853516" xlink:href="#DejaVuSans-6d"/>
      <use x="522.265625" xlink:href="#DejaVuSans-61"/>
     </g>
    </g>
    <g id="line2d_43">
     <path d="M 320.504375 126.545312 
L 340.504375 126.545312 
" style="fill:none;stroke:#7f7f7f;stroke-linecap:square;stroke-width:1.5;"/>
    </g>
    <g id="line2d_44"/>
    <g id="text_24">
     <!-- attention -->
     <defs>
      <path d="M 54.890625 33.015625 
L 54.890625 0 
L 45.90625 0 
L 45.90625 32.71875 
Q 45.90625 40.484375 42.875 44.328125 
Q 39.84375 48.1875 33.796875 48.1875 
Q 26.515625 48.1875 22.3125 43.546875 
Q 18.109375 38.921875 18.109375 30.90625 
L 18.109375 0 
L 9.078125 0 
L 9.078125 54.6875 
L 18.109375 54.6875 
L 18.109375 46.1875 
Q 21.34375 51.125 25.703125 53.5625 
Q 30.078125 56 35.796875 56 
Q 45.21875 56 50.046875 50.171875 
Q 54.890625 44.34375 54.890625 33.015625 
" id="DejaVuSans-6e"/>
     </defs>
     <g transform="translate(348.504375 130.045312)scale(0.1 -0.1)">
      <use xlink:href="#DejaVuSans-61"/>
      <use x="61.279297" xlink:href="#DejaVuSans-74"/>
      <use x="100.488281" xlink:href="#DejaVuSans-74"/>
      <use x="139.697266" xlink:href="#DejaVuSans-65"/>
      <use x="201.220703" xlink:href="#DejaVuSans-6e"/>
      <use x="264.599609" xlink:href="#DejaVuSans-74"/>
      <use x="303.808594" xlink:href="#DejaVuSans-69"/>
      <use x="331.591797" xlink:href="#DejaVuSans-6f"/>
      <use x="392.773438" xlink:href="#DejaVuSans-6e"/>
     </g>
    </g>
    <g id="line2d_45">
     <path d="M 320.504375 141.223437 
L 340.504375 141.223437 
" style="fill:none;stroke:#bcbd22;stroke-linecap:square;stroke-width:1.5;"/>
    </g>
    <g id="line2d_46"/>
    <g id="text_25">
     <!-- meditation -->
     <g transform="translate(348.504375 144.723437)scale(0.1 -0.1)">
      <use xlink:href="#DejaVuSans-6d"/>
      <use x="97.412109" xlink:href="#DejaVuSans-65"/>
      <use x="158.935547" xlink:href="#DejaVuSans-64"/>
      <use x="222.412109" xlink:href="#DejaVuSans-69"/>
      <use x="250.195312" xlink:href="#DejaVuSans-74"/>
      <use x="289.404297" xlink:href="#DejaVuSans-61"/>
      <use x="350.683594" xlink:href="#DejaVuSans-74"/>
      <use x="389.892578" xlink:href="#DejaVuSans-69"/>
      <use x="417.675781" xlink:href="#DejaVuSans-6f"/>
      <use x="478.857422" xlink:href="#DejaVuSans-6e"/>
     </g>
    </g>
    <g id="line2d_47">
     <path d="M 320.504375 155.901562 
L 340.504375 155.901562 
" style="fill:none;stroke:#17becf;stroke-linecap:square;stroke-width:1.5;"/>
    </g>
    <g id="line2d_48"/>
    <g id="text_26">
     <!-- rawValue -->
     <defs>
      <path d="M 41.109375 46.296875 
Q 39.59375 47.171875 37.8125 47.578125 
Q 36.03125 48 33.890625 48 
Q 26.265625 48 22.1875 43.046875 
Q 18.109375 38.09375 18.109375 28.8125 
L 18.109375 0 
L 9.078125 0 
L 9.078125 54.6875 
L 18.109375 54.6875 
L 18.109375 46.1875 
Q 20.953125 51.171875 25.484375 53.578125 
Q 30.03125 56 36.53125 56 
Q 37.453125 56 38.578125 55.875 
Q 39.703125 55.765625 41.0625 55.515625 
z
" id="DejaVuSans-72"/>
      <path d="M 28.609375 0 
L 0.78125 72.90625 
L 11.078125 72.90625 
L 34.1875 11.53125 
L 57.328125 72.90625 
L 67.578125 72.90625 
L 39.796875 0 
z
" id="DejaVuSans-56"/>
      <path d="M 8.5 21.578125 
L 8.5 54.6875 
L 17.484375 54.6875 
L 17.484375 21.921875 
Q 17.484375 14.15625 20.5 10.265625 
Q 23.53125 6.390625 29.59375 6.390625 
Q 36.859375 6.390625 41.078125 11.03125 
Q 45.3125 15.671875 45.3125 23.6875 
L 45.3125 54.6875 
L 54.296875 54.6875 
L 54.296875 0 
L 45.3125 0 
L 45.3125 8.40625 
Q 42.046875 3.421875 37.71875 1 
Q 33.40625 -1.421875 27.6875 -1.421875 
Q 18.265625 -1.421875 13.375 4.4375 
Q 8.5 10.296875 8.5 21.578125 
M 31.109375 56 
z
" id="DejaVuSans-75"/>
     </defs>
     <g transform="translate(348.504375 159.401562)scale(0.1 -0.1)">
      <use xlink:href="#DejaVuSans-72"/>
      <use x="41.113281" xlink:href="#DejaVuSans-61"/>
      <use x="102.392578" xlink:href="#DejaVuSans-77"/>
      <use x="184.179688" xlink:href="#DejaVuSans-56"/>
      <use x="252.478516" xlink:href="#DejaVuSans-61"/>
      <use x="313.757812" xlink:href="#DejaVuSans-6c"/>
      <use x="341.541016" xlink:href="#DejaVuSans-75"/>
      <use x="404.919922" xlink:href="#DejaVuSans-65"/>
     </g>
    </g>
   </g>
  </g>
 </g>
 <defs>
  <clipPath id="p206428b9ca">
   <rect height="266.112" width="357.12" x="58.7375" y="10.7"/>
  </clipPath>
 </defs>
</svg>
