<?xml version="1.0" encoding="utf-8" standalone="no"?>
<!DOCTYPE svg PUBLIC "-//W3C//DTD SVG 1.1//EN"
  "http://www.w3.org/Graphics/SVG/1.1/DTD/svg11.dtd">
<!-- Created with matplotlib (http://matplotlib.org/) -->
<svg height="300pt" version="1.1" viewBox="0 0 426 300" width="426pt" xmlns="http://www.w3.org/2000/svg" xmlns:xlink="http://www.w3.org/1999/xlink">
 <defs>
  <style type="text/css">
*{stroke-linecap:butt;stroke-linejoin:round;}
  </style>
 </defs>
 <g id="figure_1">
  <g id="patch_1">
   <path d="M 0 300.690125 
L 426.5575 300.690125 
L 426.5575 0 
L 0 0 
z
" style="fill:#ffffff;"/>
  </g>
  <g id="axes_1">
   <g id="patch_2">
    <path d="M 58.7375 276.812 
L 415.8575 276.812 
L 415.8575 10.7 
L 58.7375 10.7 
z
" style="fill:#ffffff;"/>
   </g>
   <g id="matplotlib.axis_1">
    <g id="xtick_1">
     <g id="line2d_1">
      <defs>
       <path d="M 0 0 
L 0 3.5 
" id="m74a9fe1d1d" style="stroke:#000000;stroke-width:0.8;"/>
      </defs>
      <g>
       <use style="stroke:#000000;stroke-width:0.8;" x="74.970227" xlink:href="#m74a9fe1d1d" y="276.812"/>
      </g>
     </g>
     <g id="text_1">
      <!-- 0 -->
      <defs>
       <path d="M 31.78125 66.40625 
Q 24.171875 66.40625 20.328125 58.90625 
Q 16.5 51.421875 16.5 36.375 
Q 16.5 21.390625 20.328125 13.890625 
Q 24.171875 6.390625 31.78125 6.390625 
Q 39.453125 6.390625 43.28125 13.890625 
Q 47.125 21.390625 47.125 36.375 
Q 47.125 51.421875 43.28125 58.90625 
Q 39.453125 66.40625 31.78125 66.40625 
M 31.78125 74.21875 
Q 44.046875 74.21875 50.515625 64.515625 
Q 56.984375 54.828125 56.984375 36.375 
Q 56.984375 17.96875 50.515625 8.265625 
Q 44.046875 -1.421875 31.78125 -1.421875 
Q 19.53125 -1.421875 13.0625 8.265625 
Q 6.59375 17.96875 6.59375 36.375 
Q 6.59375 54.828125 13.0625 64.515625 
Q 19.53125 74.21875 31.78125 74.21875 
" id="DejaVuSans-30"/>
      </defs>
      <g transform="translate(71.788977 291.410437)scale(0.1 -0.1)">
       <use xlink:href="#DejaVuSans-30"/>
      </g>
     </g>
    </g>
    <g id="xtick_2">
     <g id="line2d_2">
      <g>
       <use style="stroke:#000000;stroke-width:0.8;" x="116.170043" xlink:href="#m74a9fe1d1d" y="276.812"/>
      </g>
     </g>
     <g id="text_2">
      <!-- 25 -->
      <defs>
       <path d="M 19.1875 8.296875 
L 53.609375 8.296875 
L 53.609375 0 
L 7.328125 0 
L 7.328125 8.296875 
Q 12.9375 14.109375 22.625 23.890625 
Q 32.328125 33.6875 34.8125 36.53125 
Q 39.546875 41.84375 41.421875 45.53125 
Q 43.3125 49.21875 43.3125 52.78125 
Q 43.3125 58.59375 39.234375 62.25 
Q 35.15625 65.921875 28.609375 65.921875 
Q 23.96875 65.921875 18.8125 64.3125 
Q 13.671875 62.703125 7.8125 59.421875 
L 7.8125 69.390625 
Q 13.765625 71.78125 18.9375 73 
Q 24.125 74.21875 28.421875 74.21875 
Q 39.75 74.21875 46.484375 68.546875 
Q 53.21875 62.890625 53.21875 53.421875 
Q 53.21875 48.921875 51.53125 44.890625 
Q 49.859375 40.875 45.40625 35.40625 
Q 44.1875 33.984375 37.640625 27.21875 
Q 31.109375 20.453125 19.1875 8.296875 
" id="DejaVuSans-32"/>
       <path d="M 10.796875 72.90625 
L 49.515625 72.90625 
L 49.515625 64.59375 
L 19.828125 64.59375 
L 19.828125 46.734375 
Q 21.96875 47.46875 24.109375 47.828125 
Q 26.265625 48.1875 28.421875 48.1875 
Q 40.625 48.1875 47.75 41.5 
Q 54.890625 34.8125 54.890625 23.390625 
Q 54.890625 11.625 47.5625 5.09375 
Q 40.234375 -1.421875 26.90625 -1.421875 
Q 22.3125 -1.421875 17.546875 -0.640625 
Q 12.796875 0.140625 7.71875 1.703125 
L 7.71875 11.625 
Q 12.109375 9.234375 16.796875 8.0625 
Q 21.484375 6.890625 26.703125 6.890625 
Q 35.15625 6.890625 40.078125 11.328125 
Q 45.015625 15.765625 45.015625 23.390625 
Q 45.015625 31 40.078125 35.4375 
Q 35.15625 39.890625 26.703125 39.890625 
Q 22.75 39.890625 18.8125 39.015625 
Q 14.890625 38.140625 10.796875 36.28125 
z
" id="DejaVuSans-35"/>
      </defs>
      <g transform="translate(109.807543 291.410437)scale(0.1 -0.1)">
       <use xlink:href="#DejaVuSans-32"/>
       <use x="63.623047" xlink:href="#DejaVuSans-35"/>
      </g>
     </g>
    </g>
    <g id="xtick_3">
     <g id="line2d_3">
      <g>
       <use style="stroke:#000000;stroke-width:0.8;" x="157.369858" xlink:href="#m74a9fe1d1d" y="276.812"/>
      </g>
     </g>
     <g id="text_3">
      <!-- 50 -->
      <g transform="translate(151.007358 291.410437)scale(0.1 -0.1)">
       <use xlink:href="#DejaVuSans-35"/>
       <use x="63.623047" xlink:href="#DejaVuSans-30"/>
      </g>
     </g>
    </g>
    <g id="xtick_4">
     <g id="line2d_4">
      <g>
       <use style="stroke:#000000;stroke-width:0.8;" x="198.569674" xlink:href="#m74a9fe1d1d" y="276.812"/>
      </g>
     </g>
     <g id="text_4">
      <!-- 75 -->
      <defs>
       <path d="M 8.203125 72.90625 
L 55.078125 72.90625 
L 55.078125 68.703125 
L 28.609375 0 
L 18.3125 0 
L 43.21875 64.59375 
L 8.203125 64.59375 
z
" id="DejaVuSans-37"/>
      </defs>
      <g transform="translate(192.207174 291.410437)scale(0.1 -0.1)">
       <use xlink:href="#DejaVuSans-37"/>
       <use x="63.623047" xlink:href="#DejaVuSans-35"/>
      </g>
     </g>
    </g>
    <g id="xtick_5">
     <g id="line2d_5">
      <g>
       <use style="stroke:#000000;stroke-width:0.8;" x="239.769489" xlink:href="#m74a9fe1d1d" y="276.812"/>
      </g>
     </g>
     <g id="text_5">
      <!-- 100 -->
      <defs>
       <path d="M 12.40625 8.296875 
L 28.515625 8.296875 
L 28.515625 63.921875 
L 10.984375 60.40625 
L 10.984375 69.390625 
L 28.421875 72.90625 
L 38.28125 72.90625 
L 38.28125 8.296875 
L 54.390625 8.296875 
L 54.390625 0 
L 12.40625 0 
z
" id="DejaVuSans-31"/>
      </defs>
      <g transform="translate(230.225739 291.410437)scale(0.1 -0.1)">
       <use xlink:href="#DejaVuSans-31"/>
       <use x="63.623047" xlink:href="#DejaVuSans-30"/>
       <use x="127.246094" xlink:href="#DejaVuSans-30"/>
      </g>
     </g>
    </g>
    <g id="xtick_6">
     <g id="line2d_6">
      <g>
       <use style="stroke:#000000;stroke-width:0.8;" x="280.969304" xlink:href="#m74a9fe1d1d" y="276.812"/>
      </g>
     </g>
     <g id="text_6">
      <!-- 125 -->
      <g transform="translate(271.425554 291.410437)scale(0.1 -0.1)">
       <use xlink:href="#DejaVuSans-31"/>
       <use x="63.623047" xlink:href="#DejaVuSans-32"/>
       <use x="127.246094" xlink:href="#DejaVuSans-35"/>
      </g>
     </g>
    </g>
    <g id="xtick_7">
     <g id="line2d_7">
      <g>
       <use style="stroke:#000000;stroke-width:0.8;" x="322.16912" xlink:href="#m74a9fe1d1d" y="276.812"/>
      </g>
     </g>
     <g id="text_7">
      <!-- 150 -->
      <g transform="translate(312.62537 291.410437)scale(0.1 -0.1)">
       <use xlink:href="#DejaVuSans-31"/>
       <use x="63.623047" xlink:href="#DejaVuSans-35"/>
       <use x="127.246094" xlink:href="#DejaVuSans-30"/>
      </g>
     </g>
    </g>
    <g id="xtick_8">
     <g id="line2d_8">
      <g>
       <use style="stroke:#000000;stroke-width:0.8;" x="363.368935" xlink:href="#m74a9fe1d1d" y="276.812"/>
      </g>
     </g>
     <g id="text_8">
      <!-- 175 -->
      <g transform="translate(353.825185 291.410437)scale(0.1 -0.1)">
       <use xlink:href="#DejaVuSans-31"/>
       <use x="63.623047" xlink:href="#DejaVuSans-37"/>
       <use x="127.246094" xlink:href="#DejaVuSans-35"/>
      </g>
     </g>
    </g>
    <g id="xtick_9">
     <g id="line2d_9">
      <g>
       <use style="stroke:#000000;stroke-width:0.8;" x="404.568751" xlink:href="#m74a9fe1d1d" y="276.812"/>
      </g>
     </g>
     <g id="text_9">
      <!-- 200 -->
      <g transform="translate(395.025001 291.410437)scale(0.1 -0.1)">
       <use xlink:href="#DejaVuSans-32"/>
       <use x="63.623047" xlink:href="#DejaVuSans-30"/>
       <use x="127.246094" xlink:href="#DejaVuSans-30"/>
      </g>
     </g>
    </g>
   </g>
   <g id="matplotlib.axis_2">
    <g id="ytick_1">
     <g id="line2d_10">
      <defs>
       <path d="M 0 0 
L -3.5 0 
" id="m2482e9a158" style="stroke:#000000;stroke-width:0.8;"/>
      </defs>
      <g>
       <use style="stroke:#000000;stroke-width:0.8;" x="58.7375" xlink:href="#m2482e9a158" y="264.687164"/>
      </g>
     </g>
     <g id="text_10">
      <!-- 0 -->
      <g transform="translate(45.375 268.486383)scale(0.1 -0.1)">
       <use xlink:href="#DejaVuSans-30"/>
      </g>
     </g>
    </g>
    <g id="ytick_2">
     <g id="line2d_11">
      <g>
       <use style="stroke:#000000;stroke-width:0.8;" x="58.7375" xlink:href="#m2482e9a158" y="231.350845"/>
      </g>
     </g>
     <g id="text_11">
      <!-- 200000 -->
      <g transform="translate(13.5625 235.150064)scale(0.1 -0.1)">
       <use xlink:href="#DejaVuSans-32"/>
       <use x="63.623047" xlink:href="#DejaVuSans-30"/>
       <use x="127.246094" xlink:href="#DejaVuSans-30"/>
       <use x="190.869141" xlink:href="#DejaVuSans-30"/>
       <use x="254.492188" xlink:href="#DejaVuSans-30"/>
       <use x="318.115234" xlink:href="#DejaVuSans-30"/>
      </g>
     </g>
    </g>
    <g id="ytick_3">
     <g id="line2d_12">
      <g>
       <use style="stroke:#000000;stroke-width:0.8;" x="58.7375" xlink:href="#m2482e9a158" y="198.014526"/>
      </g>
     </g>
     <g id="text_12">
      <!-- 400000 -->
      <defs>
       <path d="M 37.796875 64.3125 
L 12.890625 25.390625 
L 37.796875 25.390625 
z
M 35.203125 72.90625 
L 47.609375 72.90625 
L 47.609375 25.390625 
L 58.015625 25.390625 
L 58.015625 17.1875 
L 47.609375 17.1875 
L 47.609375 0 
L 37.796875 0 
L 37.796875 17.1875 
L 4.890625 17.1875 
L 4.890625 26.703125 
z
" id="DejaVuSans-34"/>
      </defs>
      <g transform="translate(13.5625 201.813745)scale(0.1 -0.1)">
       <use xlink:href="#DejaVuSans-34"/>
       <use x="63.623047" xlink:href="#DejaVuSans-30"/>
       <use x="127.246094" xlink:href="#DejaVuSans-30"/>
       <use x="190.869141" xlink:href="#DejaVuSans-30"/>
       <use x="254.492188" xlink:href="#DejaVuSans-30"/>
       <use x="318.115234" xlink:href="#DejaVuSans-30"/>
      </g>
     </g>
    </g>
    <g id="ytick_4">
     <g id="line2d_13">
      <g>
       <use style="stroke:#000000;stroke-width:0.8;" x="58.7375" xlink:href="#m2482e9a158" y="164.678207"/>
      </g>
     </g>
     <g id="text_13">
      <!-- 600000 -->
      <defs>
       <path d="M 33.015625 40.375 
Q 26.375 40.375 22.484375 35.828125 
Q 18.609375 31.296875 18.609375 23.390625 
Q 18.609375 15.53125 22.484375 10.953125 
Q 26.375 6.390625 33.015625 6.390625 
Q 39.65625 6.390625 43.53125 10.953125 
Q 47.40625 15.53125 47.40625 23.390625 
Q 47.40625 31.296875 43.53125 35.828125 
Q 39.65625 40.375 33.015625 40.375 
M 52.59375 71.296875 
L 52.59375 62.3125 
Q 48.875 64.0625 45.09375 64.984375 
Q 41.3125 65.921875 37.59375 65.921875 
Q 27.828125 65.921875 22.671875 59.328125 
Q 17.53125 52.734375 16.796875 39.40625 
Q 19.671875 43.65625 24.015625 45.921875 
Q 28.375 48.1875 33.59375 48.1875 
Q 44.578125 48.1875 50.953125 41.515625 
Q 57.328125 34.859375 57.328125 23.390625 
Q 57.328125 12.15625 50.6875 5.359375 
Q 44.046875 -1.421875 33.015625 -1.421875 
Q 20.359375 -1.421875 13.671875 8.265625 
Q 6.984375 17.96875 6.984375 36.375 
Q 6.984375 53.65625 15.1875 63.9375 
Q 23.390625 74.21875 37.203125 74.21875 
Q 40.921875 74.21875 44.703125 73.484375 
Q 48.484375 72.75 52.59375 71.296875 
" id="DejaVuSans-36"/>
      </defs>
      <g transform="translate(13.5625 168.477426)scale(0.1 -0.1)">
       <use xlink:href="#DejaVuSans-36"/>
       <use x="63.623047" xlink:href="#DejaVuSans-30"/>
       <use x="127.246094" xlink:href="#DejaVuSans-30"/>
       <use x="190.869141" xlink:href="#DejaVuSans-30"/>
       <use x="254.492188" xlink:href="#DejaVuSans-30"/>
       <use x="318.115234" xlink:href="#DejaVuSans-30"/>
      </g>
     </g>
    </g>
    <g id="ytick_5">
     <g id="line2d_14">
      <g>
       <use style="stroke:#000000;stroke-width:0.8;" x="58.7375" xlink:href="#m2482e9a158" y="131.341888"/>
      </g>
     </g>
     <g id="text_14">
      <!-- 800000 -->
      <defs>
       <path d="M 31.78125 34.625 
Q 24.75 34.625 20.71875 30.859375 
Q 16.703125 27.09375 16.703125 20.515625 
Q 16.703125 13.921875 20.71875 10.15625 
Q 24.75 6.390625 31.78125 6.390625 
Q 38.8125 6.390625 42.859375 10.171875 
Q 46.921875 13.96875 46.921875 20.515625 
Q 46.921875 27.09375 42.890625 30.859375 
Q 38.875 34.625 31.78125 34.625 
M 21.921875 38.8125 
Q 15.578125 40.375 12.03125 44.71875 
Q 8.5 49.078125 8.5 55.328125 
Q 8.5 64.0625 14.71875 69.140625 
Q 20.953125 74.21875 31.78125 74.21875 
Q 42.671875 74.21875 48.875 69.140625 
Q 55.078125 64.0625 55.078125 55.328125 
Q 55.078125 49.078125 51.53125 44.71875 
Q 48 40.375 41.703125 38.8125 
Q 48.828125 37.15625 52.796875 32.3125 
Q 56.78125 27.484375 56.78125 20.515625 
Q 56.78125 9.90625 50.3125 4.234375 
Q 43.84375 -1.421875 31.78125 -1.421875 
Q 19.734375 -1.421875 13.25 4.234375 
Q 6.78125 9.90625 6.78125 20.515625 
Q 6.78125 27.484375 10.78125 32.3125 
Q 14.796875 37.15625 21.921875 38.8125 
M 18.3125 54.390625 
Q 18.3125 48.734375 21.84375 45.5625 
Q 25.390625 42.390625 31.78125 42.390625 
Q 38.140625 42.390625 41.71875 45.5625 
Q 45.3125 48.734375 45.3125 54.390625 
Q 45.3125 60.0625 41.71875 63.234375 
Q 38.140625 66.40625 31.78125 66.40625 
Q 25.390625 66.40625 21.84375 63.234375 
Q 18.3125 60.0625 18.3125 54.390625 
" id="DejaVuSans-38"/>
      </defs>
      <g transform="translate(13.5625 135.141107)scale(0.1 -0.1)">
       <use xlink:href="#DejaVuSans-38"/>
       <use x="63.623047" xlink:href="#DejaVuSans-30"/>
       <use x="127.246094" xlink:href="#DejaVuSans-30"/>
       <use x="190.869141" xlink:href="#DejaVuSans-30"/>
       <use x="254.492188" xlink:href="#DejaVuSans-30"/>
       <use x="318.115234" xlink:href="#DejaVuSans-30"/>
      </g>
     </g>
    </g>
    <g id="ytick_6">
     <g id="line2d_15">
      <g>
       <use style="stroke:#000000;stroke-width:0.8;" x="58.7375" xlink:href="#m2482e9a158" y="98.005569"/>
      </g>
     </g>
     <g id="text_15">
      <!-- 1000000 -->
      <g transform="translate(7.2 101.804788)scale(0.1 -0.1)">
       <use xlink:href="#DejaVuSans-31"/>
       <use x="63.623047" xlink:href="#DejaVuSans-30"/>
       <use x="127.246094" xlink:href="#DejaVuSans-30"/>
       <use x="190.869141" xlink:href="#DejaVuSans-30"/>
       <use x="254.492188" xlink:href="#DejaVuSans-30"/>
       <use x="318.115234" xlink:href="#DejaVuSans-30"/>
       <use x="381.738281" xlink:href="#DejaVuSans-30"/>
      </g>
     </g>
    </g>
    <g id="ytick_7">
     <g id="line2d_16">
      <g>
       <use style="stroke:#000000;stroke-width:0.8;" x="58.7375" xlink:href="#m2482e9a158" y="64.66925"/>
      </g>
     </g>
     <g id="text_16">
      <!-- 1200000 -->
      <g transform="translate(7.2 68.468469)scale(0.1 -0.1)">
       <use xlink:href="#DejaVuSans-31"/>
       <use x="63.623047" xlink:href="#DejaVuSans-32"/>
       <use x="127.246094" xlink:href="#DejaVuSans-30"/>
       <use x="190.869141" xlink:href="#DejaVuSans-30"/>
       <use x="254.492188" xlink:href="#DejaVuSans-30"/>
       <use x="318.115234" xlink:href="#DejaVuSans-30"/>
       <use x="381.738281" xlink:href="#DejaVuSans-30"/>
      </g>
     </g>
    </g>
    <g id="ytick_8">
     <g id="line2d_17">
      <g>
       <use style="stroke:#000000;stroke-width:0.8;" x="58.7375" xlink:href="#m2482e9a158" y="31.332931"/>
      </g>
     </g>
     <g id="text_17">
      <!-- 1400000 -->
      <g transform="translate(7.2 35.13215)scale(0.1 -0.1)">
       <use xlink:href="#DejaVuSans-31"/>
       <use x="63.623047" xlink:href="#DejaVuSans-34"/>
       <use x="127.246094" xlink:href="#DejaVuSans-30"/>
       <use x="190.869141" xlink:href="#DejaVuSans-30"/>
       <use x="254.492188" xlink:href="#DejaVuSans-30"/>
       <use x="318.115234" xlink:href="#DejaVuSans-30"/>
       <use x="381.738281" xlink:href="#DejaVuSans-30"/>
      </g>
     </g>
    </g>
   </g>
   <g id="line2d_18">
    <path clip-path="url(#pcc8aa3d9ef)" d="M 74.970227 254.947125 
L 76.61822 246.093665 
L 78.266213 255.823204 
L 79.914205 261.119178 
L 83.21019 257.869387 
L 84.858183 247.528294 
L 86.506176 238.007608 
L 88.154168 261.890247 
L 89.802161 258.24392 
L 91.450153 258.632455 
L 93.098146 159.396401 
L 94.746139 247.525627 
L 96.394131 196.342376 
L 98.042124 261.915249 
L 99.690117 243.994311 
L 101.338109 258.004066 
L 102.986102 254.70527 
L 104.634094 255.857873 
L 106.282087 258.062737 
L 107.93008 250.545064 
L 109.578072 261.938918 
L 111.226065 262.568641 
L 112.874057 262.465465 
L 114.52205 260.035081 
L 116.170043 258.957651 
L 117.818035 256.116563 
L 119.466028 259.738221 
L 121.114021 247.441953 
L 122.762013 262.612478 
L 124.410006 261.103343 
L 126.057998 255.159811 
L 127.705991 260.345275 
L 129.353984 262.96651 
L 131.001976 258.561449 
L 132.649969 261.969587 
L 134.297961 259.253844 
L 135.945954 262.809996 
L 137.593947 263.095355 
L 139.241939 258.216751 
L 140.889932 259.009489 
L 142.537925 263.851423 
L 144.185917 201.943378 
L 145.83391 257.879888 
L 147.481902 260.079751 
L 149.129895 259.69455 
L 150.777888 251.918687 
L 152.42588 263.775249 
L 154.073873 261.773403 
L 155.721865 251.125116 
L 157.369858 262.758658 
L 159.017851 257.072149 
L 160.665843 249.287618 
L 162.313836 263.56173 
L 163.961829 263.11319 
L 165.609821 261.238689 
L 167.257814 262.076264 
L 168.905806 246.909572 
L 170.553799 263.333376 
L 172.201792 262.708154 
L 173.849784 263.689741 
L 175.497777 260.575296 
L 177.145769 264.434141 
L 178.793762 262.59181 
L 180.441755 254.133052 
L 182.089747 264.101112 
L 183.73774 262.079597 
L 185.385733 255.038967 
L 187.033725 263.821087 
L 188.681718 259.795726 
L 190.32971 255.000963 
L 191.977703 262.431795 
L 193.625696 263.579732 
L 195.273688 264.095611 
L 196.921681 263.528727 
L 198.569674 257.735541 
L 200.217666 260.815484 
L 201.865659 258.524279 
L 203.513651 261.674394 
L 205.161644 264.08411 
L 206.809637 263.029182 
L 208.457629 260.362777 
L 210.105622 263.255369 
L 211.753614 263.551562 
L 213.401607 263.647238 
L 215.0496 263.053018 
L 216.697592 261.205852 
L 218.345585 257.23733 
L 219.993578 264.166451 
L 221.64157 263.359545 
L 223.289563 260.725143 
L 224.937555 261.62839 
L 226.585548 262.25928 
L 228.233541 260.154591 
L 229.881533 264.447976 
L 231.529526 263.028849 
L 233.177518 262.592977 
L 234.825511 263.579398 
L 236.473504 263.331876 
L 238.121496 260.633801 
L 239.769489 263.552229 
L 241.417482 259.837896 
L 243.065474 264.204954 
L 244.713467 247.456788 
L 246.361459 260.836653 
L 249.657445 264.039106 
L 251.305437 262.755824 
L 252.95343 256.782789 
L 254.601422 262.493968 
L 256.249415 262.417127 
L 257.897408 264.210621 
L 259.5454 263.446053 
L 261.193393 222.932424 
L 262.841386 262.979178 
L 264.489378 263.834921 
L 266.137371 262.469299 
L 267.785363 258.451939 
L 269.433356 259.116332 
L 271.081349 259.322017 
L 272.729341 262.78216 
L 274.377334 263.172195 
L 276.025326 207.683892 
L 277.673319 261.083675 
L 279.321312 263.231034 
L 282.617297 259.872233 
L 284.26529 261.32453 
L 285.913282 254.454248 
L 289.209267 235.492383 
L 290.85726 264.333632 
L 292.505253 231.969234 
L 294.153245 262.646481 
L 295.801238 248.548719 
L 297.449231 263.53056 
L 299.097223 167.511794 
L 300.745216 142.22803 
L 302.393208 263.668239 
L 304.041201 262.74749 
L 305.689194 259.818228 
L 307.337186 262.216276 
L 308.985179 256.473928 
L 312.281164 262.437796 
L 313.929157 259.311683 
L 315.577149 258.153579 
L 317.225142 199.744848 
L 318.873135 252.460902 
L 320.521127 263.318375 
L 322.16912 262.148937 
L 323.817112 263.216699 
L 325.465105 264.558319 
L 327.113098 263.570731 
L 328.76109 258.980653 
L 330.409083 195.398792 
L 332.057075 231.464689 
L 333.705068 256.443592 
L 335.353061 260.094086 
L 337.001053 22.796 
L 338.649046 198.849268 
L 340.297039 261.439373 
L 341.945031 227.168804 
L 343.593024 262.052261 
L 345.241016 263.89926 
L 346.889009 262.32862 
L 348.537002 232.07591 
L 350.184994 257.15849 
L 351.832987 262.223277 
L 353.480979 214.121969 
L 355.128972 263.436552 
L 356.776965 262.341621 
L 358.424957 176.308582 
L 360.07295 262.52047 
L 361.720943 264.129281 
L 363.368935 261.451708 
L 365.016928 260.824985 
L 366.66492 264.092611 
L 368.312913 175.473007 
L 369.960906 263.056851 
L 371.608898 261.317862 
L 373.256891 250.575067 
L 374.904883 252.497406 
L 376.552876 210.644991 
L 378.200869 228.849954 
L 379.848861 258.709629 
L 381.496854 262.653982 
L 383.144847 220.182512 
L 384.792839 258.673292 
L 386.440832 259.034658 
L 388.088824 262.791994 
L 389.736817 262.857334 
L 391.38481 263.903927 
L 393.032802 257.286835 
L 394.680795 260.43995 
L 396.328787 260.14209 
L 397.97678 263.67824 
L 399.624773 258.330761 
L 399.624773 258.330761 
" style="fill:none;stroke:#1f77b4;stroke-linecap:square;stroke-width:1.5;"/>
   </g>
   <g id="line2d_19">
    <path clip-path="url(#pcc8aa3d9ef)" d="M 74.970227 249.253115 
L 76.61822 253.890697 
L 78.266213 259.426693 
L 79.914205 259.380856 
L 81.562198 258.305759 
L 83.21019 261.411537 
L 84.858183 255.896877 
L 86.506176 256.436925 
L 88.154168 263.923929 
L 89.802161 262.313118 
L 91.450153 262.863167 
L 93.098146 256.256409 
L 94.746139 250.580067 
L 96.394131 233.552709 
L 98.042124 254.204559 
L 99.690117 251.46348 
L 101.338109 249.025428 
L 102.986102 260.408448 
L 104.634094 242.965385 
L 106.282087 247.886826 
L 107.93008 260.825818 
L 109.578072 257.844051 
L 111.226065 259.901735 
L 112.874057 263.140526 
L 114.52205 263.317208 
L 116.170043 260.451951 
L 117.818035 258.118576 
L 119.466028 255.112973 
L 121.114021 256.183069 
L 122.762013 258.57745 
L 124.410006 262.684651 
L 126.057998 259.418359 
L 127.705991 263.201198 
L 129.353984 258.220252 
L 131.001976 258.584284 
L 132.649969 264.049774 
L 134.297961 258.324428 
L 135.945954 262.898671 
L 137.593947 262.269948 
L 139.241939 261.859411 
L 140.889932 258.880144 
L 142.537925 262.92434 
L 144.185917 251.06161 
L 145.83391 247.273271 
L 147.481902 258.548448 
L 149.129895 258.555282 
L 150.777888 260.556961 
L 152.42588 258.450272 
L 154.073873 259.100164 
L 155.721865 252.261885 
L 157.369858 263.501391 
L 159.017851 259.114665 
L 160.665843 258.277757 
L 162.313836 259.188672 
L 163.961829 262.4878 
L 165.609821 263.184029 
L 167.257814 261.434706 
L 168.905806 257.786713 
L 170.553799 262.979845 
L 172.201792 261.297194 
L 173.849784 253.015285 
L 175.497777 259.916904 
L 177.145769 263.618235 
L 178.793762 262.699819 
L 180.441755 262.758491 
L 182.089747 262.652815 
L 183.73774 259.777891 
L 185.385733 260.411281 
L 187.033725 259.706551 
L 188.681718 261.416538 
L 190.32971 252.812434 
L 191.977703 264.04944 
L 193.625696 257.98173 
L 195.273688 261.815574 
L 196.921681 260.607965 
L 198.569674 258.260755 
L 200.217666 260.605299 
L 201.865659 262.170439 
L 203.513651 259.478864 
L 205.161644 261.631724 
L 206.809637 253.02612 
L 208.457629 261.963587 
L 210.105622 259.184505 
L 211.753614 262.703153 
L 213.401607 260.330107 
L 215.0496 263.536728 
L 216.697592 262.861334 
L 218.345585 261.292193 
L 219.993578 261.886913 
L 221.64157 261.728732 
L 223.289563 257.858886 
L 224.937555 260.445784 
L 226.585548 262.627646 
L 228.233541 261.972588 
L 229.881533 260.785481 
L 231.529526 262.555306 
L 233.177518 256.120397 
L 234.825511 262.467299 
L 236.473504 262.239945 
L 238.121496 261.569218 
L 239.769489 263.807085 
L 241.417482 259.080495 
L 243.065474 263.556896 
L 244.713467 263.530727 
L 246.361459 262.795328 
L 248.009452 256.239908 
L 249.657445 261.549883 
L 251.305437 261.81424 
L 252.95343 259.837396 
L 254.601422 263.225533 
L 256.249415 260.328607 
L 257.897408 263.769915 
L 259.5454 260.054916 
L 261.193393 261.766903 
L 262.841386 262.842666 
L 264.489378 259.522368 
L 266.137371 263.208865 
L 267.785363 257.61253 
L 269.433356 257.875387 
L 271.081349 262.437629 
L 272.729341 259.20634 
L 274.377334 259.446028 
L 276.025326 239.902278 
L 277.673319 258.191582 
L 279.321312 259.774057 
L 280.969304 263.576565 
L 282.617297 241.726108 
L 284.26529 262.701153 
L 285.913282 260.227765 
L 287.561275 258.844808 
L 289.209267 258.566616 
L 290.85726 263.261703 
L 292.505253 261.177183 
L 294.153245 263.699076 
L 295.801238 260.313772 
L 297.449231 263.350211 
L 299.097223 254.013208 
L 300.745216 261.485544 
L 302.393208 256.30858 
L 304.041201 263.208865 
L 305.689194 259.496699 
L 307.337186 262.804996 
L 308.985179 260.03058 
L 310.633171 253.613339 
L 312.281164 259.531202 
L 313.929157 263.550562 
L 315.577149 261.604221 
L 317.225142 223.767333 
L 318.873135 258.584618 
L 320.521127 248.126681 
L 322.16912 259.017823 
L 323.817112 262.282949 
L 325.465105 259.367521 
L 327.113098 256.994142 
L 328.76109 263.470722 
L 330.409083 241.313904 
L 332.057075 237.202869 
L 333.705068 259.339352 
L 335.353061 248.395205 
L 337.001053 258.20425 
L 338.649046 253.133629 
L 340.297039 260.894324 
L 341.945031 259.131667 
L 343.593024 261.668394 
L 345.241016 257.174325 
L 346.889009 263.420884 
L 348.537002 244.916227 
L 350.184994 259.923737 
L 351.832987 262.926006 
L 353.480979 250.211368 
L 355.128972 253.734183 
L 356.776965 257.587028 
L 358.424957 256.725784 
L 360.07295 261.618056 
L 361.720943 261.710731 
L 363.368935 257.749376 
L 365.016928 256.8983 
L 366.66492 257.294502 
L 368.312913 262.243779 
L 369.960906 260.915326 
L 371.608898 261.870578 
L 373.256891 254.884286 
L 374.904883 260.801816 
L 376.552876 258.71913 
L 378.200869 258.80097 
L 379.848861 254.998296 
L 381.496854 255.854873 
L 383.144847 262.730322 
L 384.792839 262.709154 
L 386.440832 260.168593 
L 388.088824 259.985576 
L 389.736817 262.527304 
L 391.38481 258.936482 
L 393.032802 263.941764 
L 394.680795 257.49152 
L 396.328787 261.495712 
L 397.97678 261.634057 
L 399.624773 263.90126 
L 399.624773 263.90126 
" style="fill:none;stroke:#ff7f0e;stroke-linecap:square;stroke-width:1.5;"/>
   </g>
   <g id="line2d_20">
    <path clip-path="url(#pcc8aa3d9ef)" d="M 74.970227 261.458375 
L 76.61822 263.242035 
L 78.266213 257.730208 
L 79.914205 263.621569 
L 81.562198 260.209763 
L 83.21019 264.326798 
L 84.858183 258.073072 
L 86.506176 260.641135 
L 88.154168 261.868078 
L 89.802161 258.179415 
L 93.098146 263.805585 
L 94.746139 259.893735 
L 96.394131 258.277923 
L 98.042124 263.206531 
L 99.690117 247.783984 
L 101.338109 263.721078 
L 102.986102 257.967396 
L 104.634094 263.686741 
L 106.282087 258.253588 
L 107.93008 262.683818 
L 109.578072 253.884697 
L 111.226065 264.524483 
L 112.874057 264.082443 
L 114.52205 256.660445 
L 116.170043 261.975255 
L 117.818035 247.859824 
L 119.466028 260.879323 
L 121.114021 257.94406 
L 122.762013 263.598233 
L 124.410006 262.266114 
L 126.057998 264.224456 
L 129.353984 264.301296 
L 131.001976 262.030259 
L 132.649969 261.027503 
L 134.297961 264.234957 
L 135.945954 263.207698 
L 137.593947 263.440886 
L 139.241939 263.86259 
L 140.889932 262.622813 
L 142.537925 261.727232 
L 144.185917 259.20334 
L 145.83391 261.984589 
L 147.481902 262.22661 
L 149.129895 262.610145 
L 150.777888 264.182286 
L 152.42588 264.082277 
L 154.073873 262.064263 
L 155.721865 263.521226 
L 157.369858 262.557473 
L 159.017851 262.507302 
L 160.665843 258.876644 
L 162.313836 264.434475 
L 163.961829 261.99659 
L 165.609821 263.603567 
L 167.257814 264.186953 
L 168.905806 262.389792 
L 170.553799 264.070776 
L 172.201792 260.77248 
L 173.849784 256.633609 
L 175.497777 263.436885 
L 177.145769 264.406639 
L 178.793762 261.936918 
L 180.441755 262.313451 
L 182.089747 264.294296 
L 183.73774 262.629646 
L 185.385733 264.554652 
L 187.033725 263.316875 
L 188.681718 263.552896 
L 190.32971 262.085264 
L 191.977703 264.63716 
L 193.625696 259.672382 
L 195.273688 263.844089 
L 196.921681 263.434052 
L 198.569674 263.899594 
L 200.217666 261.914416 
L 201.865659 263.450053 
L 203.513651 263.213699 
L 205.161644 263.255036 
L 206.809637 257.09065 
L 208.457629 260.661804 
L 210.105622 262.286782 
L 211.753614 264.327299 
L 213.401607 262.546472 
L 215.0496 264.122947 
L 216.697592 261.488878 
L 218.345585 259.46703 
L 219.993578 264.288295 
L 221.64157 261.278859 
L 223.289563 259.578207 
L 224.937555 263.081187 
L 226.585548 262.632147 
L 228.233541 262.697319 
L 229.881533 263.210032 
L 231.529526 256.535101 
L 233.177518 264.513649 
L 234.825511 263.922096 
L 236.473504 263.576231 
L 238.121496 264.179285 
L 239.769489 264.446309 
L 241.417482 264.156283 
L 243.065474 261.514213 
L 244.713467 262.952009 
L 246.361459 262.691319 
L 248.009452 264.440642 
L 249.657445 259.709552 
L 251.305437 259.041658 
L 252.95343 259.235342 
L 254.601422 263.839421 
L 256.249415 261.787071 
L 257.897408 263.946764 
L 259.5454 260.358776 
L 261.193393 262.347121 
L 262.841386 261.012835 
L 264.489378 257.891055 
L 266.137371 262.878002 
L 267.785363 261.439373 
L 269.433356 262.4833 
L 271.081349 260.58563 
L 274.377334 263.245368 
L 276.025326 262.208275 
L 277.673319 263.563397 
L 279.321312 262.825997 
L 280.969304 263.363212 
L 282.617297 257.706206 
L 284.26529 260.942495 
L 285.913282 258.878311 
L 287.561275 263.255703 
L 289.209267 259.068661 
L 290.85726 264.265626 
L 292.505253 264.53215 
L 294.153245 263.676574 
L 295.801238 262.024426 
L 297.449231 263.759414 
L 299.097223 246.229178 
L 300.745216 263.802418 
L 302.393208 260.363277 
L 304.041201 263.07902 
L 305.689194 261.194351 
L 308.985179 262.70932 
L 310.633171 263.014848 
L 312.281164 263.160361 
L 313.929157 263.164528 
L 315.577149 263.853256 
L 317.225142 262.043594 
L 318.873135 263.56323 
L 320.521127 262.226277 
L 322.16912 262.740156 
L 323.817112 263.544562 
L 325.465105 262.641314 
L 327.113098 262.063096 
L 328.76109 263.402549 
L 330.409083 251.651497 
L 332.057075 259.922571 
L 333.705068 252.702424 
L 335.353061 262.195108 
L 337.001053 260.941995 
L 338.649046 258.412602 
L 340.297039 262.89767 
L 341.945031 262.220777 
L 343.593024 263.939097 
L 345.241016 262.956176 
L 346.889009 261.372367 
L 348.537002 263.609568 
L 350.184994 264.466478 
L 351.832987 262.807829 
L 353.480979 262.192607 
L 355.128972 262.924506 
L 356.776965 263.872758 
L 358.424957 264.19612 
L 360.07295 261.51888 
L 361.720943 263.358712 
L 363.368935 263.825254 
L 365.016928 263.097188 
L 366.66492 259.707551 
L 368.312913 258.972986 
L 369.960906 263.981268 
L 371.608898 263.548229 
L 373.256891 263.242201 
L 374.904883 264.168284 
L 376.552876 259.937239 
L 378.200869 263.103856 
L 379.848861 262.501135 
L 381.496854 262.228777 
L 383.144847 260.189261 
L 384.792839 263.400549 
L 386.440832 263.800751 
L 388.088824 259.594708 
L 389.736817 262.29495 
L 391.38481 263.617902 
L 393.032802 264.175452 
L 394.680795 257.894056 
L 396.328787 263.820586 
L 397.97678 263.74558 
L 399.624773 264.261959 
L 399.624773 264.261959 
" style="fill:none;stroke:#2ca02c;stroke-linecap:square;stroke-width:1.5;"/>
   </g>
   <g id="line2d_21">
    <path clip-path="url(#pcc8aa3d9ef)" d="M 74.970227 262.404793 
L 76.61822 262.634314 
L 78.266213 258.470607 
L 79.914205 260.605132 
L 81.562198 259.327184 
L 83.21019 263.911428 
L 84.858183 259.479698 
L 86.506176 258.053403 
L 88.154168 263.843589 
L 89.802161 261.156014 
L 91.450153 261.945085 
L 93.098146 260.499789 
L 94.746139 259.922071 
L 96.394131 255.681691 
L 98.042124 264.266126 
L 99.690117 260.284936 
L 101.338109 261.461542 
L 102.986102 260.813817 
L 104.634094 259.161836 
L 106.282087 262.952009 
L 107.93008 263.603567 
L 109.578072 255.486673 
L 111.226065 262.754991 
L 112.874057 264.60799 
L 114.52205 262.787161 
L 116.170043 261.69673 
L 117.818035 256.594606 
L 119.466028 263.544562 
L 121.114021 263.26637 
L 122.762013 260.576796 
L 124.410006 263.183696 
L 126.057998 264.160117 
L 127.705991 263.494391 
L 129.353984 262.435796 
L 131.001976 263.243368 
L 132.649969 262.284116 
L 134.297961 252.081868 
L 135.945954 264.096778 
L 137.593947 261.757735 
L 139.241939 263.389215 
L 140.889932 263.385214 
L 142.537925 263.268037 
L 144.185917 258.636289 
L 145.83391 263.249535 
L 147.481902 262.93134 
L 149.129895 260.310939 
L 150.777888 259.69255 
L 152.42588 263.888759 
L 154.073873 262.44813 
L 155.721865 264.090944 
L 157.369858 263.863257 
L 159.017851 263.897593 
L 160.665843 261.965087 
L 162.313836 263.928263 
L 163.961829 261.894414 
L 165.609821 262.634147 
L 167.257814 263.781583 
L 168.905806 263.103356 
L 170.553799 264.137448 
L 172.201792 263.766415 
L 173.849784 263.831254 
L 175.497777 264.522316 
L 177.145769 264.136948 
L 178.793762 262.978178 
L 180.441755 263.496224 
L 182.089747 263.881259 
L 183.73774 262.162105 
L 185.385733 263.918262 
L 187.033725 263.416384 
L 188.681718 264.305797 
L 190.32971 260.903492 
L 191.977703 264.222956 
L 193.625696 263.256536 
L 195.273688 264.15245 
L 196.921681 264.437975 
L 198.569674 264.515982 
L 200.217666 260.918993 
L 201.865659 264.352467 
L 203.513651 262.004424 
L 205.161644 264.203954 
L 206.809637 262.974011 
L 208.457629 264.204454 
L 210.105622 264.216955 
L 211.753614 263.583399 
L 213.401607 264.142449 
L 215.0496 264.470811 
L 216.697592 263.404216 
L 219.993578 264.164451 
L 221.64157 263.345544 
L 224.937555 263.5954 
L 226.585548 263.462054 
L 228.233541 261.276192 
L 229.881533 263.687075 
L 231.529526 263.315208 
L 233.177518 263.329376 
L 236.473504 262.70582 
L 238.121496 263.67274 
L 239.769489 263.992269 
L 241.417482 263.33921 
L 243.065474 263.867091 
L 244.713467 262.634314 
L 246.361459 263.098022 
L 248.009452 261.649892 
L 249.657445 264.11828 
L 251.305437 260.267102 
L 252.95343 260.317273 
L 254.601422 264.294796 
L 256.249415 261.949252 
L 257.897408 262.969344 
L 259.5454 262.874002 
L 261.193393 263.908761 
L 262.841386 264.024771 
L 264.489378 262.654482 
L 266.137371 263.072353 
L 267.785363 262.323619 
L 269.433356 258.734798 
L 271.081349 263.573564 
L 272.729341 263.456221 
L 274.377334 263.497224 
L 276.025326 262.212942 
L 277.673319 264.196954 
L 279.321312 264.12578 
L 280.969304 263.326542 
L 282.617297 263.875258 
L 284.26529 262.280782 
L 285.913282 263.393048 
L 287.561275 261.163682 
L 289.209267 263.787083 
L 290.85726 264.19912 
L 292.505253 264.167451 
L 294.153245 262.809496 
L 295.801238 264.369469 
L 297.449231 264.385137 
L 299.097223 257.497854 
L 300.745216 263.15386 
L 302.393208 262.170439 
L 304.041201 263.430718 
L 305.689194 261.086175 
L 307.337186 262.717654 
L 308.985179 264.52615 
L 310.633171 253.524664 
L 313.929157 264.08111 
L 315.577149 263.356045 
L 317.225142 260.697307 
L 318.873135 264.352801 
L 320.521127 263.678407 
L 322.16912 263.978267 
L 323.817112 263.961766 
L 325.465105 263.280538 
L 327.113098 259.492699 
L 328.76109 257.179825 
L 330.409083 259.365187 
L 332.057075 258.513945 
L 333.705068 245.607455 
L 335.353061 260.107087 
L 337.001053 259.735387 
L 338.649046 263.945764 
L 340.297039 261.852244 
L 341.945031 263.568064 
L 343.593024 263.469222 
L 345.241016 261.241522 
L 346.889009 261.379368 
L 348.537002 261.06484 
L 350.184994 264.050607 
L 351.832987 263.034683 
L 353.480979 262.488801 
L 355.128972 261.778237 
L 356.776965 263.158861 
L 358.424957 262.924006 
L 360.07295 262.386458 
L 361.720943 262.789494 
L 363.368935 261.903081 
L 365.016928 262.788494 
L 366.66492 263.536561 
L 368.312913 262.706487 
L 369.960906 260.47162 
L 371.608898 262.861667 
L 373.256891 262.352288 
L 374.904883 263.78925 
L 376.552876 259.429527 
L 378.200869 260.250767 
L 379.848861 260.686806 
L 381.496854 258.958151 
L 383.144847 262.771826 
L 384.792839 264.01327 
L 386.440832 259.978409 
L 388.088824 260.882657 
L 389.736817 260.744978 
L 391.38481 259.765557 
L 393.032802 263.9706 
L 394.680795 259.883401 
L 396.328787 263.328376 
L 397.97678 262.451797 
L 399.624773 264.409306 
L 399.624773 264.409306 
" style="fill:none;stroke:#d62728;stroke-linecap:square;stroke-width:1.5;"/>
   </g>
   <g id="line2d_22">
    <path clip-path="url(#pcc8aa3d9ef)" d="M 74.970227 260.497289 
L 76.61822 261.058839 
L 78.266213 262.421628 
L 79.914205 258.172747 
L 81.562198 262.73849 
L 83.21019 263.943264 
L 84.858183 262.915672 
L 86.506176 262.029093 
L 88.154168 263.816753 
L 89.802161 263.677074 
L 93.098146 263.000513 
L 94.746139 263.016181 
L 96.394131 261.060673 
L 98.042124 263.78975 
L 101.338109 251.601159 
L 102.986102 259.796393 
L 104.634094 259.634712 
L 106.282087 261.166849 
L 107.93008 260.280103 
L 109.578072 257.336839 
L 111.226065 262.806162 
L 112.874057 264.167451 
L 117.818035 262.569641 
L 119.466028 263.478889 
L 121.114021 262.767992 
L 122.762013 263.89276 
L 124.410006 261.458208 
L 126.057998 264.293295 
L 127.705991 264.220789 
L 129.353984 263.284538 
L 131.001976 262.685151 
L 132.649969 263.672073 
L 134.297961 263.866257 
L 135.945954 263.022182 
L 137.593947 262.904338 
L 139.241939 263.722744 
L 140.889932 263.852589 
L 142.537925 263.782916 
L 144.185917 261.559717 
L 145.83391 263.181196 
L 147.481902 262.268447 
L 149.129895 263.339043 
L 150.777888 264.130114 
L 152.42588 263.82692 
L 154.073873 263.224533 
L 155.721865 262.957676 
L 157.369858 263.736246 
L 159.017851 264.056608 
L 160.665843 262.253446 
L 162.313836 263.214032 
L 163.961829 262.950175 
L 165.609821 264.271627 
L 167.257814 264.212288 
L 168.905806 263.610068 
L 170.553799 263.912261 
L 172.201792 263.632403 
L 173.849784 262.022259 
L 175.497777 263.9716 
L 177.145769 264.314131 
L 178.793762 263.479889 
L 180.441755 264.035939 
L 182.089747 264.409306 
L 183.73774 262.717654 
L 185.385733 264.289128 
L 187.033725 263.248869 
L 188.681718 263.979267 
L 190.32971 260.307272 
L 191.977703 263.719911 
L 193.625696 260.459452 
L 195.273688 263.145359 
L 196.921681 263.916262 
L 198.569674 264.103112 
L 200.217666 263.55923 
L 201.865659 264.430974 
L 203.513651 263.685241 
L 205.161644 263.837588 
L 206.809637 263.757081 
L 208.457629 262.448797 
L 210.105622 263.841255 
L 211.753614 264.244124 
L 213.401607 263.689241 
L 215.0496 264.433141 
L 216.697592 262.910005 
L 218.345585 264.063442 
L 219.993578 263.896093 
L 221.64157 264.007937 
L 223.289563 262.444297 
L 224.937555 263.767915 
L 226.585548 263.466555 
L 228.233541 261.986422 
L 229.881533 263.844755 
L 231.529526 263.409216 
L 233.177518 263.14886 
L 234.825511 263.977434 
L 236.473504 264.186619 
L 238.121496 263.995602 
L 239.769489 264.495647 
L 241.417482 263.329709 
L 243.065474 263.15686 
L 244.713467 262.078764 
L 248.009452 264.121113 
L 249.657445 263.658572 
L 251.305437 261.132179 
L 252.95343 263.720578 
L 254.601422 264.30563 
L 256.249415 263.224366 
L 257.897408 263.170362 
L 259.5454 263.003847 
L 261.193393 261.602721 
L 262.841386 264.152783 
L 264.489378 262.689152 
L 266.137371 264.264293 
L 267.785363 262.840665 
L 269.433356 262.221777 
L 271.081349 264.019271 
L 272.729341 264.444309 
L 274.377334 263.681074 
L 276.025326 263.667406 
L 277.673319 264.135781 
L 279.321312 263.225033 
L 280.969304 262.602477 
L 282.617297 263.425551 
L 284.26529 262.865168 
L 285.913282 264.326798 
L 287.561275 262.547306 
L 289.209267 261.506046 
L 290.85726 264.119613 
L 292.505253 264.23029 
L 294.153245 263.626402 
L 295.801238 263.64057 
L 297.449231 263.967933 
L 299.097223 262.085598 
L 300.745216 263.834254 
L 302.393208 260.818318 
L 304.041201 263.444553 
L 305.689194 264.255292 
L 307.337186 263.618402 
L 308.985179 264.138948 
L 310.633171 263.180529 
L 312.281164 260.146424 
L 313.929157 263.719911 
L 315.577149 263.615735 
L 317.225142 262.585809 
L 318.873135 264.027438 
L 320.521127 263.597566 
L 322.16912 263.798751 
L 323.817112 263.665739 
L 325.465105 263.099522 
L 327.113098 261.721232 
L 328.76109 256.032056 
L 330.409083 260.287437 
L 332.057075 260.922327 
L 333.705068 262.105933 
L 335.353061 262.086098 
L 337.001053 261.730233 
L 338.649046 263.517393 
L 340.297039 262.537138 
L 341.945031 263.711243 
L 343.593024 263.032683 
L 345.241016 262.140603 
L 346.889009 263.217199 
L 348.537002 264.141449 
L 350.184994 263.832588 
L 351.832987 263.119857 
L 353.480979 259.750889 
L 355.128972 262.401626 
L 356.776965 263.055018 
L 358.424957 263.188697 
L 360.07295 263.78825 
L 361.720943 263.406549 
L 363.368935 264.065275 
L 365.016928 263.41305 
L 366.66492 260.733977 
L 368.312913 262.025926 
L 369.960906 264.141782 
L 371.608898 262.447964 
L 373.256891 264.230457 
L 374.904883 264.30913 
L 376.552876 262.002424 
L 378.200869 259.020323 
L 379.848861 262.147603 
L 381.496854 263.394715 
L 383.144847 263.208365 
L 384.792839 264.331632 
L 386.440832 260.967664 
L 388.088824 261.494711 
L 389.736817 262.793995 
L 391.38481 263.057185 
L 394.680795 264.245124 
L 396.328787 264.08811 
L 397.97678 263.239368 
L 399.624773 264.072942 
L 399.624773 264.072942 
" style="fill:none;stroke:#9467bd;stroke-linecap:square;stroke-width:1.5;"/>
   </g>
   <g id="line2d_23">
    <path clip-path="url(#pcc8aa3d9ef)" d="M 74.970227 263.281038 
L 76.61822 263.576231 
L 78.266213 263.448887 
L 79.914205 263.199531 
L 81.562198 263.146693 
L 83.21019 264.321131 
L 84.858183 263.225366 
L 86.506176 262.819163 
L 88.154168 264.484479 
L 89.802161 262.067763 
L 91.450153 262.971344 
L 93.098146 262.14877 
L 94.746139 263.688908 
L 96.394131 260.979999 
L 98.042124 263.887926 
L 99.690117 261.645725 
L 101.338109 260.609632 
L 102.986102 262.684485 
L 104.634094 263.023182 
L 106.282087 263.833421 
L 109.578072 261.837909 
L 111.226065 261.729066 
L 112.874057 264.352467 
L 114.52205 263.565564 
L 116.170043 263.408383 
L 117.818035 263.866424 
L 119.466028 262.915505 
L 122.762013 263.896427 
L 124.410006 263.442719 
L 126.057998 264.306963 
L 127.705991 263.794417 
L 129.353984 263.013681 
L 131.001976 263.08152 
L 132.649969 263.409383 
L 134.297961 261.770736 
L 135.945954 263.813086 
L 137.593947 263.414883 
L 139.241939 264.058774 
L 140.889932 263.33971 
L 142.537925 263.323375 
L 144.185917 261.834409 
L 147.481902 263.422051 
L 149.129895 263.516226 
L 150.777888 263.199864 
L 152.42588 263.850089 
L 154.073873 263.746913 
L 155.721865 263.930763 
L 157.369858 263.719244 
L 159.017851 264.499481 
L 160.665843 263.727411 
L 162.313836 263.898427 
L 163.961829 263.881925 
L 165.609821 262.566808 
L 167.257814 264.176285 
L 168.905806 262.677817 
L 170.553799 264.054274 
L 172.201792 263.718577 
L 173.849784 263.625402 
L 175.497777 263.67874 
L 177.145769 264.334466 
L 178.793762 263.680074 
L 180.441755 264.466144 
L 182.089747 264.282628 
L 183.73774 262.96201 
L 185.385733 264.346967 
L 187.033725 263.70941 
L 188.681718 263.628903 
L 190.32971 262.882336 
L 191.977703 264.516315 
L 195.273688 262.939341 
L 196.921681 263.71541 
L 198.569674 264.076776 
L 200.217666 263.067019 
L 201.865659 264.165784 
L 203.513651 263.289039 
L 205.161644 264.060441 
L 206.809637 262.431629 
L 208.457629 263.862757 
L 211.753614 264.202287 
L 213.401607 262.595143 
L 215.0496 264.367135 
L 216.697592 263.321542 
L 218.345585 262.89417 
L 219.993578 263.687575 
L 221.64157 263.534227 
L 224.937555 263.666573 
L 226.585548 263.571564 
L 228.233541 263.64157 
L 229.881533 263.122524 
L 231.529526 263.647071 
L 234.825511 264.226623 
L 236.473504 263.5974 
L 238.121496 263.696742 
L 239.769489 264.378303 
L 241.417482 264.144615 
L 243.065474 263.2292 
L 244.713467 264.04744 
L 246.361459 263.597566 
L 248.009452 263.987601 
L 249.657445 261.948752 
L 251.305437 264.098778 
L 252.95343 263.991602 
L 254.601422 263.664406 
L 257.897408 264.015771 
L 259.5454 263.221366 
L 261.193393 263.433552 
L 262.841386 263.783416 
L 264.489378 263.514892 
L 266.137371 262.670483 
L 267.785363 263.726745 
L 269.433356 263.569731 
L 274.377334 263.813419 
L 276.025326 263.508559 
L 277.673319 263.457721 
L 279.321312 264.029939 
L 280.969304 260.987499 
L 282.617297 262.087265 
L 284.26529 263.664406 
L 285.913282 264.155116 
L 287.561275 263.849922 
L 289.209267 263.9771 
L 290.85726 264.53265 
L 292.505253 264.351467 
L 294.153245 264.036272 
L 295.801238 263.116023 
L 297.449231 263.949265 
L 299.097223 263.19053 
L 300.745216 263.719744 
L 302.393208 262.230611 
L 304.041201 263.260036 
L 305.689194 263.963599 
L 307.337186 262.655649 
L 308.985179 264.391138 
L 310.633171 262.896004 
L 312.281164 259.964074 
L 313.929157 263.286039 
L 315.577149 264.277961 
L 317.225142 262.804162 
L 318.873135 264.466811 
L 320.521127 263.540895 
L 322.16912 263.142192 
L 323.817112 262.953842 
L 325.465105 263.833754 
L 327.113098 261.650559 
L 328.76109 263.001513 
L 330.409083 260.6238 
L 332.057075 263.452053 
L 333.705068 261.659726 
L 335.353061 263.459054 
L 337.001053 263.783917 
L 338.649046 263.219366 
L 340.297039 262.238778 
L 341.945031 263.704576 
L 343.593024 262.851666 
L 345.241016 263.465388 
L 346.889009 262.969677 
L 348.537002 261.29336 
L 350.184994 263.827254 
L 351.832987 263.206365 
L 353.480979 261.40887 
L 355.128972 262.979178 
L 356.776965 263.452053 
L 358.424957 263.391048 
L 361.720943 263.82292 
L 363.368935 263.397049 
L 365.016928 264.075943 
L 366.66492 262.657316 
L 368.312913 261.861411 
L 369.960906 263.567397 
L 371.608898 263.67624 
L 373.256891 263.157694 
L 374.904883 264.26796 
L 376.552876 263.124524 
L 378.200869 262.762158 
L 379.848861 262.277448 
L 381.496854 262.286782 
L 383.144847 261.470709 
L 384.792839 264.344133 
L 386.440832 260.474287 
L 388.088824 262.129268 
L 389.736817 261.614389 
L 391.38481 263.223533 
L 393.032802 264.284461 
L 394.680795 261.358033 
L 396.328787 263.781583 
L 397.97678 263.085521 
L 399.624773 264.15495 
L 399.624773 264.15495 
" style="fill:none;stroke:#8c564b;stroke-linecap:square;stroke-width:1.5;"/>
   </g>
   <g id="line2d_24">
    <path clip-path="url(#pcc8aa3d9ef)" d="M 74.970227 264.028938 
L 76.61822 263.391381 
L 78.266213 263.942597 
L 79.914205 263.803252 
L 83.21019 264.461977 
L 86.506176 263.730578 
L 88.154168 264.576654 
L 89.802161 264.176118 
L 91.450153 264.321131 
L 93.098146 264.214455 
L 94.746139 264.31163 
L 96.394131 263.838755 
L 98.042124 264.572154 
L 99.690117 263.651405 
L 101.338109 263.501725 
L 102.986102 263.893093 
L 104.634094 263.370713 
L 106.282087 264.052441 
L 107.93008 263.721578 
L 109.578072 262.505969 
L 111.226065 264.23379 
L 112.874057 264.610324 
L 114.52205 263.769249 
L 116.170043 264.11578 
L 119.466028 264.087277 
L 121.114021 264.293962 
L 122.762013 264.23579 
L 124.410006 263.926596 
L 126.057998 264.357301 
L 127.705991 264.3393 
L 129.353984 264.073276 
L 132.649969 264.120613 
L 134.297961 264.08461 
L 135.945954 264.316298 
L 137.593947 263.889426 
L 139.241939 263.793251 
L 142.537925 263.850923 
L 144.185917 263.245368 
L 145.83391 262.953009 
L 147.481902 264.121947 
L 154.073873 263.943597 
L 155.721865 264.464144 
L 157.369858 264.211788 
L 159.017851 264.575821 
L 160.665843 264.244791 
L 162.313836 264.224123 
L 163.961829 263.758914 
L 165.609821 264.391138 
L 167.257814 264.558986 
L 168.905806 264.033939 
L 172.201792 264.19062 
L 173.849784 263.309207 
L 175.497777 264.130114 
L 177.145769 264.552652 
L 178.793762 264.251292 
L 180.441755 264.642327 
L 182.089747 264.57132 
L 183.73774 264.108612 
L 185.385733 264.568653 
L 187.033725 263.922596 
L 190.32971 264.021938 
L 191.977703 264.625492 
L 193.625696 263.889259 
L 196.921681 264.058941 
L 198.569674 264.612657 
L 200.217666 264.04294 
L 201.865659 264.515649 
L 203.513651 263.898927 
L 205.161644 263.969266 
L 206.809637 264.31163 
L 208.457629 263.981101 
L 210.105622 264.284128 
L 211.753614 264.19812 
L 213.401607 263.934097 
L 215.0496 264.448643 
L 216.697592 264.059608 
L 218.345585 263.819253 
L 219.993578 264.15795 
L 221.64157 264.374303 
L 224.937555 264.343467 
L 226.585548 264.057274 
L 229.881533 263.763748 
L 231.529526 264.332466 
L 233.177518 264.447476 
L 234.825511 263.994269 
L 236.473504 264.222289 
L 238.121496 263.687408 
L 239.769489 264.612491 
L 241.417482 264.362135 
L 243.065474 263.892593 
L 244.713467 263.706743 
L 246.361459 263.265037 
L 248.009452 264.497314 
L 249.657445 264.00477 
L 251.305437 264.130114 
L 252.95343 264.463477 
L 254.601422 264.247625 
L 256.249415 264.264793 
L 257.897408 263.921095 
L 259.5454 264.458144 
L 261.193393 264.383804 
L 262.841386 264.521816 
L 264.489378 264.291462 
L 267.785363 264.230623 
L 269.433356 264.318131 
L 271.081349 264.111946 
L 272.729341 263.042517 
L 274.377334 263.791751 
L 276.025326 263.375047 
L 277.673319 264.227956 
L 280.969304 264.077276 
L 282.617297 264.275127 
L 284.26529 264.174618 
L 285.913282 264.19262 
L 287.561275 264.336966 
L 289.209267 264.011604 
L 290.85726 264.633326 
L 292.505253 264.466311 
L 294.153245 263.686241 
L 297.449231 264.547318 
L 299.097223 263.875925 
L 300.745216 264.358301 
L 302.393208 263.459054 
L 305.689194 264.449143 
L 307.337186 264.221956 
L 308.985179 264.613324 
L 310.633171 264.044273 
L 312.281164 263.633236 
L 313.929157 264.281294 
L 315.577149 264.500481 
L 317.225142 263.500891 
L 318.873135 264.639993 
L 320.521127 264.324632 
L 322.16912 264.219289 
L 323.817112 263.850589 
L 325.465105 264.254125 
L 327.113098 263.848089 
L 328.76109 263.591899 
L 330.409083 263.169695 
L 332.057075 263.78475 
L 333.705068 263.621069 
L 335.353061 264.282961 
L 337.001053 263.758248 
L 338.649046 264.395138 
L 340.297039 263.645404 
L 341.945031 264.190786 
L 343.593024 263.437385 
L 348.537002 263.615568 
L 350.184994 264.564653 
L 351.832987 264.262459 
L 353.480979 263.781416 
L 355.128972 263.839922 
L 356.776965 264.337966 
L 358.424957 263.987768 
L 360.07295 264.191286 
L 361.720943 264.046273 
L 363.368935 263.336876 
L 365.016928 264.338133 
L 366.66492 263.973767 
L 368.312913 264.250458 
L 369.960906 264.291629 
L 371.608898 264.069109 
L 373.256891 263.571898 
L 374.904883 264.428641 
L 376.552876 261.567218 
L 378.200869 264.079943 
L 379.848861 263.121691 
L 381.496854 263.910094 
L 383.144847 263.114357 
L 384.792839 264.53365 
L 386.440832 263.074353 
L 388.088824 263.664239 
L 389.736817 264.430308 
L 391.38481 264.407972 
L 393.032802 264.579488 
L 394.680795 263.750414 
L 396.328787 263.771915 
L 397.97678 263.921095 
L 399.624773 264.52765 
L 399.624773 264.52765 
" style="fill:none;stroke:#e377c2;stroke-linecap:square;stroke-width:1.5;"/>
   </g>
   <g id="line2d_25">
    <path clip-path="url(#pcc8aa3d9ef)" d="M 74.970227 264.076109 
L 76.61822 263.829587 
L 78.266213 264.235457 
L 79.914205 264.397471 
L 81.562198 263.979601 
L 83.21019 264.573154 
L 86.506176 264.22929 
L 88.154168 264.620325 
L 89.802161 264.472312 
L 93.098146 264.461811 
L 94.746139 264.236624 
L 96.394131 264.315297 
L 98.042124 264.581655 
L 99.690117 264.208288 
L 101.338109 264.281461 
L 102.986102 263.874091 
L 104.634094 264.260293 
L 106.282087 264.424141 
L 107.93008 264.331966 
L 109.578072 264.38197 
L 111.226065 263.882925 
L 112.874057 264.436142 
L 114.52205 264.310797 
L 116.170043 264.055941 
L 117.818035 264.028272 
L 119.466028 264.324632 
L 122.762013 264.53015 
L 124.410006 264.502148 
L 126.057998 264.622992 
L 131.001976 264.275961 
L 132.649969 264.224456 
L 134.297961 264.451476 
L 135.945954 264.074109 
L 137.593947 264.345967 
L 139.241939 264.12178 
L 140.889932 264.45831 
L 142.537925 263.796751 
L 144.185917 264.043773 
L 145.83391 264.008603 
L 149.129895 264.45431 
L 150.777888 264.219122 
L 152.42588 264.227123 
L 154.073873 263.984601 
L 155.721865 264.284628 
L 157.369858 264.321298 
L 159.017851 264.590822 
L 160.665843 264.377636 
L 162.313836 264.498481 
L 163.961829 264.128114 
L 167.257814 264.617991 
L 168.905806 264.431308 
L 170.553799 264.38597 
L 172.201792 263.836088 
L 175.497777 264.19512 
L 177.145769 264.619491 
L 178.793762 264.542651 
L 180.441755 264.659662 
L 182.089747 264.644327 
L 183.73774 264.408973 
L 185.385733 264.612157 
L 187.033725 264.296796 
L 188.681718 264.440642 
L 190.32971 264.410639 
L 191.977703 264.620991 
L 193.625696 264.385137 
L 195.273688 264.326132 
L 196.921681 264.04694 
L 198.569674 264.515815 
L 200.217666 264.464477 
L 201.865659 264.645994 
L 203.513651 264.098945 
L 205.161644 263.947264 
L 206.809637 264.355634 
L 208.457629 264.461811 
L 213.401607 264.177618 
L 215.0496 264.573654 
L 216.697592 264.242124 
L 218.345585 264.401138 
L 219.993578 264.37647 
L 221.64157 264.473978 
L 224.937555 264.447476 
L 226.585548 264.441142 
L 228.233541 264.626992 
L 229.881533 264.210121 
L 233.177518 264.529317 
L 236.473504 264.174785 
L 239.769489 264.604823 
L 243.065474 264.539818 
L 244.713467 264.11928 
L 246.361459 261.681728 
L 248.009452 264.301796 
L 249.657445 264.45331 
L 251.305437 264.210955 
L 252.95343 264.580488 
L 254.601422 264.338466 
L 256.249415 264.30463 
L 257.897408 263.952098 
L 259.5454 264.332966 
L 261.193393 264.541484 
L 262.841386 264.552319 
L 264.489378 263.978601 
L 266.137371 264.027438 
L 267.785363 264.431308 
L 271.081349 264.49798 
L 276.025326 264.241624 
L 277.673319 263.915428 
L 279.321312 264.45881 
L 280.969304 264.180452 
L 282.617297 264.271127 
L 284.26529 264.015104 
L 285.913282 264.034606 
L 287.561275 264.491147 
L 289.209267 264.430641 
L 290.85726 264.627659 
L 294.153245 264.488146 
L 295.801238 263.985101 
L 297.449231 264.574821 
L 299.097223 264.300129 
L 300.745216 264.633159 
L 302.393208 264.577821 
L 304.041201 264.310964 
L 308.985179 264.641493 
L 310.633171 264.117946 
L 312.281164 263.367379 
L 313.929157 264.605323 
L 315.577149 264.597156 
L 317.225142 264.182286 
L 318.873135 264.597489 
L 320.521127 264.196453 
L 322.16912 264.400305 
L 323.817112 263.725078 
L 325.465105 264.498481 
L 328.76109 264.370802 
L 330.409083 263.939597 
L 332.057075 264.281628 
L 333.705068 264.49298 
L 337.001053 264.293129 
L 338.649046 264.471145 
L 340.297039 263.981434 
L 341.945031 264.45131 
L 343.593024 263.404383 
L 345.241016 264.447643 
L 348.537002 264.214622 
L 350.184994 264.590155 
L 351.832987 264.537984 
L 353.480979 264.206454 
L 356.776965 264.183952 
L 358.424957 264.45231 
L 360.07295 264.386137 
L 361.720943 264.182952 
L 363.368935 264.254792 
L 365.016928 264.109279 
L 366.66492 264.101778 
L 368.312913 264.360635 
L 369.960906 264.496314 
L 371.608898 264.042606 
L 373.256891 263.764915 
L 374.904883 264.578988 
L 376.552876 263.18753 
L 378.200869 264.293629 
L 379.848861 264.011104 
L 381.496854 264.418473 
L 383.144847 263.899927 
L 384.792839 264.603157 
L 386.440832 263.996769 
L 388.088824 264.381303 
L 389.736817 264.241291 
L 391.38481 264.370802 
L 393.032802 264.632659 
L 396.328787 264.256792 
L 399.624773 264.581488 
L 399.624773 264.581488 
" style="fill:none;stroke:#7f7f7f;stroke-linecap:square;stroke-width:1.5;"/>
   </g>
   <g id="line2d_26">
    <path clip-path="url(#pcc8aa3d9ef)" d="M 74.970227 264.687164 
L 96.394131 264.676997 
L 205.161644 264.677163 
L 399.624773 264.67483 
L 399.624773 264.67483 
" style="fill:none;stroke:#bcbd22;stroke-linecap:square;stroke-width:1.5;"/>
   </g>
   <g id="line2d_27">
    <path clip-path="url(#pcc8aa3d9ef)" d="M 74.970227 264.687164 
L 96.394131 264.674663 
L 191.977703 264.680497 
L 399.624773 264.676496 
L 399.624773 264.676496 
" style="fill:none;stroke:#17becf;stroke-linecap:square;stroke-width:1.5;"/>
   </g>
   <g id="line2d_28">
    <path clip-path="url(#pcc8aa3d9ef)" d="M 74.970227 264.67983 
L 234.825511 264.67833 
L 248.009452 264.680163 
L 399.624773 264.68233 
L 399.624773 264.68233 
" style="fill:none;stroke:#1f77b4;stroke-linecap:square;stroke-width:1.5;"/>
   </g>
   <g id="line2d_29">
    <path clip-path="url(#pcc8aa3d9ef)" d="M 74.970227 264.687164 
L 399.624773 264.687164 
L 399.624773 264.687164 
" style="fill:none;stroke:#ff7f0e;stroke-linecap:square;stroke-width:1.5;"/>
   </g>
   <g id="patch_3">
    <path d="M 58.7375 276.812 
L 58.7375 10.7 
" style="fill:none;stroke:#000000;stroke-linecap:square;stroke-linejoin:miter;stroke-width:0.8;"/>
   </g>
   <g id="patch_4">
    <path d="M 415.8575 276.812 
L 415.8575 10.7 
" style="fill:none;stroke:#000000;stroke-linecap:square;stroke-linejoin:miter;stroke-width:0.8;"/>
   </g>
   <g id="patch_5">
    <path d="M 58.7375 276.812 
L 415.8575 276.812 
" style="fill:none;stroke:#000000;stroke-linecap:square;stroke-linejoin:miter;stroke-width:0.8;"/>
   </g>
   <g id="patch_6">
    <path d="M 58.7375 10.7 
L 415.8575 10.7 
" style="fill:none;stroke:#000000;stroke-linecap:square;stroke-linejoin:miter;stroke-width:0.8;"/>
   </g>
   <g id="legend_1">
    <g id="patch_7">
     <path d="M 192.120937 165.48125 
L 282.474063 165.48125 
Q 284.474063 165.48125 284.474063 163.48125 
L 284.474063 17.7 
Q 284.474063 15.7 282.474063 15.7 
L 192.120937 15.7 
Q 190.120937 15.7 190.120937 17.7 
L 190.120937 163.48125 
Q 190.120937 165.48125 192.120937 165.48125 
z
" style="fill:#ffffff;opacity:0.8;stroke:#cccccc;stroke-linejoin:miter;"/>
    </g>
    <g id="line2d_30">
     <path d="M 194.120937 23.798437 
L 214.120937 23.798437 
" style="fill:none;stroke:#1f77b4;stroke-linecap:square;stroke-width:1.5;"/>
    </g>
    <g id="line2d_31"/>
    <g id="text_18">
     <!-- delta -->
     <defs>
      <path d="M 45.40625 46.390625 
L 45.40625 75.984375 
L 54.390625 75.984375 
L 54.390625 0 
L 45.40625 0 
L 45.40625 8.203125 
Q 42.578125 3.328125 38.25 0.953125 
Q 33.9375 -1.421875 27.875 -1.421875 
Q 17.96875 -1.421875 11.734375 6.484375 
Q 5.515625 14.40625 5.515625 27.296875 
Q 5.515625 40.1875 11.734375 48.09375 
Q 17.96875 56 27.875 56 
Q 33.9375 56 38.25 53.625 
Q 42.578125 51.265625 45.40625 46.390625 
M 14.796875 27.296875 
Q 14.796875 17.390625 18.875 11.75 
Q 22.953125 6.109375 30.078125 6.109375 
Q 37.203125 6.109375 41.296875 11.75 
Q 45.40625 17.390625 45.40625 27.296875 
Q 45.40625 37.203125 41.296875 42.84375 
Q 37.203125 48.484375 30.078125 48.484375 
Q 22.953125 48.484375 18.875 42.84375 
Q 14.796875 37.203125 14.796875 27.296875 
" id="DejaVuSans-64"/>
      <path d="M 56.203125 29.59375 
L 56.203125 25.203125 
L 14.890625 25.203125 
Q 15.484375 15.921875 20.484375 11.0625 
Q 25.484375 6.203125 34.421875 6.203125 
Q 39.59375 6.203125 44.453125 7.46875 
Q 49.3125 8.734375 54.109375 11.28125 
L 54.109375 2.78125 
Q 49.265625 0.734375 44.1875 -0.34375 
Q 39.109375 -1.421875 33.890625 -1.421875 
Q 20.796875 -1.421875 13.15625 6.1875 
Q 5.515625 13.8125 5.515625 26.8125 
Q 5.515625 40.234375 12.765625 48.109375 
Q 20.015625 56 32.328125 56 
Q 43.359375 56 49.78125 48.890625 
Q 56.203125 41.796875 56.203125 29.59375 
M 47.21875 32.234375 
Q 47.125 39.59375 43.09375 43.984375 
Q 39.0625 48.390625 32.421875 48.390625 
Q 24.90625 48.390625 20.390625 44.140625 
Q 15.875 39.890625 15.1875 32.171875 
z
" id="DejaVuSans-65"/>
      <path d="M 9.421875 75.984375 
L 18.40625 75.984375 
L 18.40625 0 
L 9.421875 0 
z
" id="DejaVuSans-6c"/>
      <path d="M 18.3125 70.21875 
L 18.3125 54.6875 
L 36.8125 54.6875 
L 36.8125 47.703125 
L 18.3125 47.703125 
L 18.3125 18.015625 
Q 18.3125 11.328125 20.140625 9.421875 
Q 21.96875 7.515625 27.59375 7.515625 
L 36.8125 7.515625 
L 36.8125 0 
L 27.59375 0 
Q 17.1875 0 13.234375 3.875 
Q 9.28125 7.765625 9.28125 18.015625 
L 9.28125 47.703125 
L 2.6875 47.703125 
L 2.6875 54.6875 
L 9.28125 54.6875 
L 9.28125 70.21875 
z
" id="DejaVuSans-74"/>
      <path d="M 34.28125 27.484375 
Q 23.390625 27.484375 19.1875 25 
Q 14.984375 22.515625 14.984375 16.5 
Q 14.984375 11.71875 18.140625 8.90625 
Q 21.296875 6.109375 26.703125 6.109375 
Q 34.1875 6.109375 38.703125 11.40625 
Q 43.21875 16.703125 43.21875 25.484375 
L 43.21875 27.484375 
z
M 52.203125 31.203125 
L 52.203125 0 
L 43.21875 0 
L 43.21875 8.296875 
Q 40.140625 3.328125 35.546875 0.953125 
Q 30.953125 -1.421875 24.3125 -1.421875 
Q 15.921875 -1.421875 10.953125 3.296875 
Q 6 8.015625 6 15.921875 
Q 6 25.140625 12.171875 29.828125 
Q 18.359375 34.515625 30.609375 34.515625 
L 43.21875 34.515625 
L 43.21875 35.40625 
Q 43.21875 41.609375 39.140625 45 
Q 35.0625 48.390625 27.6875 48.390625 
Q 23 48.390625 18.546875 47.265625 
Q 14.109375 46.140625 10.015625 43.890625 
L 10.015625 52.203125 
Q 14.9375 54.109375 19.578125 55.046875 
Q 24.21875 56 28.609375 56 
Q 40.484375 56 46.34375 49.84375 
Q 52.203125 43.703125 52.203125 31.203125 
" id="DejaVuSans-61"/>
     </defs>
     <g transform="translate(222.120937 27.298437)scale(0.1 -0.1)">
      <use xlink:href="#DejaVuSans-64"/>
      <use x="63.476562" xlink:href="#DejaVuSans-65"/>
      <use x="125" xlink:href="#DejaVuSans-6c"/>
      <use x="152.783203" xlink:href="#DejaVuSans-74"/>
      <use x="191.992188" xlink:href="#DejaVuSans-61"/>
     </g>
    </g>
    <g id="line2d_32">
     <path d="M 194.120937 38.476562 
L 214.120937 38.476562 
" style="fill:none;stroke:#ff7f0e;stroke-linecap:square;stroke-width:1.5;"/>
    </g>
    <g id="line2d_33"/>
    <g id="text_19">
     <!-- lowAlpha -->
     <defs>
      <path d="M 30.609375 48.390625 
Q 23.390625 48.390625 19.1875 42.75 
Q 14.984375 37.109375 14.984375 27.296875 
Q 14.984375 17.484375 19.15625 11.84375 
Q 23.34375 6.203125 30.609375 6.203125 
Q 37.796875 6.203125 41.984375 11.859375 
Q 46.1875 17.53125 46.1875 27.296875 
Q 46.1875 37.015625 41.984375 42.703125 
Q 37.796875 48.390625 30.609375 48.390625 
M 30.609375 56 
Q 42.328125 56 49.015625 48.375 
Q 55.71875 40.765625 55.71875 27.296875 
Q 55.71875 13.875 49.015625 6.21875 
Q 42.328125 -1.421875 30.609375 -1.421875 
Q 18.84375 -1.421875 12.171875 6.21875 
Q 5.515625 13.875 5.515625 27.296875 
Q 5.515625 40.765625 12.171875 48.375 
Q 18.84375 56 30.609375 56 
" id="DejaVuSans-6f"/>
      <path d="M 4.203125 54.6875 
L 13.1875 54.6875 
L 24.421875 12.015625 
L 35.59375 54.6875 
L 46.1875 54.6875 
L 57.421875 12.015625 
L 68.609375 54.6875 
L 77.59375 54.6875 
L 63.28125 0 
L 52.6875 0 
L 40.921875 44.828125 
L 29.109375 0 
L 18.5 0 
z
" id="DejaVuSans-77"/>
      <path d="M 34.1875 63.1875 
L 20.796875 26.90625 
L 47.609375 26.90625 
z
M 28.609375 72.90625 
L 39.796875 72.90625 
L 67.578125 0 
L 57.328125 0 
L 50.6875 18.703125 
L 17.828125 18.703125 
L 11.1875 0 
L 0.78125 0 
z
" id="DejaVuSans-41"/>
      <path d="M 18.109375 8.203125 
L 18.109375 -20.796875 
L 9.078125 -20.796875 
L 9.078125 54.6875 
L 18.109375 54.6875 
L 18.109375 46.390625 
Q 20.953125 51.265625 25.265625 53.625 
Q 29.59375 56 35.59375 56 
Q 45.5625 56 51.78125 48.09375 
Q 58.015625 40.1875 58.015625 27.296875 
Q 58.015625 14.40625 51.78125 6.484375 
Q 45.5625 -1.421875 35.59375 -1.421875 
Q 29.59375 -1.421875 25.265625 0.953125 
Q 20.953125 3.328125 18.109375 8.203125 
M 48.6875 27.296875 
Q 48.6875 37.203125 44.609375 42.84375 
Q 40.53125 48.484375 33.40625 48.484375 
Q 26.265625 48.484375 22.1875 42.84375 
Q 18.109375 37.203125 18.109375 27.296875 
Q 18.109375 17.390625 22.1875 11.75 
Q 26.265625 6.109375 33.40625 6.109375 
Q 40.53125 6.109375 44.609375 11.75 
Q 48.6875 17.390625 48.6875 27.296875 
" id="DejaVuSans-70"/>
      <path d="M 54.890625 33.015625 
L 54.890625 0 
L 45.90625 0 
L 45.90625 32.71875 
Q 45.90625 40.484375 42.875 44.328125 
Q 39.84375 48.1875 33.796875 48.1875 
Q 26.515625 48.1875 22.3125 43.546875 
Q 18.109375 38.921875 18.109375 30.90625 
L 18.109375 0 
L 9.078125 0 
L 9.078125 75.984375 
L 18.109375 75.984375 
L 18.109375 46.1875 
Q 21.34375 51.125 25.703125 53.5625 
Q 30.078125 56 35.796875 56 
Q 45.21875 56 50.046875 50.171875 
Q 54.890625 44.34375 54.890625 33.015625 
" id="DejaVuSans-68"/>
     </defs>
     <g transform="translate(222.120937 41.976562)scale(0.1 -0.1)">
      <use xlink:href="#DejaVuSans-6c"/>
      <use x="27.783203" xlink:href="#DejaVuSans-6f"/>
      <use x="88.964844" xlink:href="#DejaVuSans-77"/>
      <use x="170.751953" xlink:href="#DejaVuSans-41"/>
      <use x="239.160156" xlink:href="#DejaVuSans-6c"/>
      <use x="266.943359" xlink:href="#DejaVuSans-70"/>
      <use x="330.419922" xlink:href="#DejaVuSans-68"/>
      <use x="393.798828" xlink:href="#DejaVuSans-61"/>
     </g>
    </g>
    <g id="line2d_34">
     <path d="M 194.120937 53.154687 
L 214.120937 53.154687 
" style="fill:none;stroke:#2ca02c;stroke-linecap:square;stroke-width:1.5;"/>
    </g>
    <g id="line2d_35"/>
    <g id="text_20">
     <!-- highAlpha -->
     <defs>
      <path d="M 9.421875 54.6875 
L 18.40625 54.6875 
L 18.40625 0 
L 9.421875 0 
z
M 9.421875 75.984375 
L 18.40625 75.984375 
L 18.40625 64.59375 
L 9.421875 64.59375 
z
" id="DejaVuSans-69"/>
      <path d="M 45.40625 27.984375 
Q 45.40625 37.75 41.375 43.109375 
Q 37.359375 48.484375 30.078125 48.484375 
Q 22.859375 48.484375 18.828125 43.109375 
Q 14.796875 37.75 14.796875 27.984375 
Q 14.796875 18.265625 18.828125 12.890625 
Q 22.859375 7.515625 30.078125 7.515625 
Q 37.359375 7.515625 41.375 12.890625 
Q 45.40625 18.265625 45.40625 27.984375 
M 54.390625 6.78125 
Q 54.390625 -7.171875 48.1875 -13.984375 
Q 42 -20.796875 29.203125 -20.796875 
Q 24.46875 -20.796875 20.265625 -20.09375 
Q 16.0625 -19.390625 12.109375 -17.921875 
L 12.109375 -9.1875 
Q 16.0625 -11.328125 19.921875 -12.34375 
Q 23.78125 -13.375 27.78125 -13.375 
Q 36.625 -13.375 41.015625 -8.765625 
Q 45.40625 -4.15625 45.40625 5.171875 
L 45.40625 9.625 
Q 42.625 4.78125 38.28125 2.390625 
Q 33.9375 0 27.875 0 
Q 17.828125 0 11.671875 7.65625 
Q 5.515625 15.328125 5.515625 27.984375 
Q 5.515625 40.671875 11.671875 48.328125 
Q 17.828125 56 27.875 56 
Q 33.9375 56 38.28125 53.609375 
Q 42.625 51.21875 45.40625 46.390625 
L 45.40625 54.6875 
L 54.390625 54.6875 
z
" id="DejaVuSans-67"/>
     </defs>
     <g transform="translate(222.120937 56.654687)scale(0.1 -0.1)">
      <use xlink:href="#DejaVuSans-68"/>
      <use x="63.378906" xlink:href="#DejaVuSans-69"/>
      <use x="91.162109" xlink:href="#DejaVuSans-67"/>
      <use x="154.638672" xlink:href="#DejaVuSans-68"/>
      <use x="218.017578" xlink:href="#DejaVuSans-41"/>
      <use x="286.425781" xlink:href="#DejaVuSans-6c"/>
      <use x="314.208984" xlink:href="#DejaVuSans-70"/>
      <use x="377.685547" xlink:href="#DejaVuSans-68"/>
      <use x="441.064453" xlink:href="#DejaVuSans-61"/>
     </g>
    </g>
    <g id="line2d_36">
     <path d="M 194.120937 67.832812 
L 214.120937 67.832812 
" style="fill:none;stroke:#d62728;stroke-linecap:square;stroke-width:1.5;"/>
    </g>
    <g id="line2d_37"/>
    <g id="text_21">
     <!-- lowBeta -->
     <defs>
      <path d="M 19.671875 34.8125 
L 19.671875 8.109375 
L 35.5 8.109375 
Q 43.453125 8.109375 47.28125 11.40625 
Q 51.125 14.703125 51.125 21.484375 
Q 51.125 28.328125 47.28125 31.5625 
Q 43.453125 34.8125 35.5 34.8125 
z
M 19.671875 64.796875 
L 19.671875 42.828125 
L 34.28125 42.828125 
Q 41.5 42.828125 45.03125 45.53125 
Q 48.578125 48.25 48.578125 53.8125 
Q 48.578125 59.328125 45.03125 62.0625 
Q 41.5 64.796875 34.28125 64.796875 
z
M 9.8125 72.90625 
L 35.015625 72.90625 
Q 46.296875 72.90625 52.390625 68.21875 
Q 58.5 63.53125 58.5 54.890625 
Q 58.5 48.1875 55.375 44.234375 
Q 52.25 40.28125 46.1875 39.3125 
Q 53.46875 37.75 57.5 32.78125 
Q 61.53125 27.828125 61.53125 20.40625 
Q 61.53125 10.640625 54.890625 5.3125 
Q 48.25 0 35.984375 0 
L 9.8125 0 
z
" id="DejaVuSans-42"/>
     </defs>
     <g transform="translate(222.120937 71.332812)scale(0.1 -0.1)">
      <use xlink:href="#DejaVuSans-6c"/>
      <use x="27.783203" xlink:href="#DejaVuSans-6f"/>
      <use x="88.964844" xlink:href="#DejaVuSans-77"/>
      <use x="170.751953" xlink:href="#DejaVuSans-42"/>
      <use x="239.355469" xlink:href="#DejaVuSans-65"/>
      <use x="300.878906" xlink:href="#DejaVuSans-74"/>
      <use x="340.087891" xlink:href="#DejaVuSans-61"/>
     </g>
    </g>
    <g id="line2d_38">
     <path d="M 194.120937 82.510938 
L 214.120937 82.510938 
" style="fill:none;stroke:#9467bd;stroke-linecap:square;stroke-width:1.5;"/>
    </g>
    <g id="line2d_39"/>
    <g id="text_22">
     <!-- highBeta -->
     <g transform="translate(222.120937 86.010938)scale(0.1 -0.1)">
      <use xlink:href="#DejaVuSans-68"/>
      <use x="63.378906" xlink:href="#DejaVuSans-69"/>
      <use x="91.162109" xlink:href="#DejaVuSans-67"/>
      <use x="154.638672" xlink:href="#DejaVuSans-68"/>
      <use x="218.017578" xlink:href="#DejaVuSans-42"/>
      <use x="286.621094" xlink:href="#DejaVuSans-65"/>
      <use x="348.144531" xlink:href="#DejaVuSans-74"/>
      <use x="387.353516" xlink:href="#DejaVuSans-61"/>
     </g>
    </g>
    <g id="line2d_40">
     <path d="M 194.120937 97.189062 
L 214.120937 97.189062 
" style="fill:none;stroke:#8c564b;stroke-linecap:square;stroke-width:1.5;"/>
    </g>
    <g id="line2d_41"/>
    <g id="text_23">
     <!-- lowGamma -->
     <defs>
      <path d="M 59.515625 10.40625 
L 59.515625 29.984375 
L 43.40625 29.984375 
L 43.40625 38.09375 
L 69.28125 38.09375 
L 69.28125 6.78125 
Q 63.578125 2.734375 56.6875 0.65625 
Q 49.8125 -1.421875 42 -1.421875 
Q 24.90625 -1.421875 15.25 8.5625 
Q 5.609375 18.5625 5.609375 36.375 
Q 5.609375 54.25 15.25 64.234375 
Q 24.90625 74.21875 42 74.21875 
Q 49.125 74.21875 55.546875 72.453125 
Q 61.96875 70.703125 67.390625 67.28125 
L 67.390625 56.78125 
Q 61.921875 61.421875 55.765625 63.765625 
Q 49.609375 66.109375 42.828125 66.109375 
Q 29.4375 66.109375 22.71875 58.640625 
Q 16.015625 51.171875 16.015625 36.375 
Q 16.015625 21.625 22.71875 14.15625 
Q 29.4375 6.6875 42.828125 6.6875 
Q 48.046875 6.6875 52.140625 7.59375 
Q 56.25 8.5 59.515625 10.40625 
" id="DejaVuSans-47"/>
      <path d="M 52 44.1875 
Q 55.375 50.25 60.0625 53.125 
Q 64.75 56 71.09375 56 
Q 79.640625 56 84.28125 50.015625 
Q 88.921875 44.046875 88.921875 33.015625 
L 88.921875 0 
L 79.890625 0 
L 79.890625 32.71875 
Q 79.890625 40.578125 77.09375 44.375 
Q 74.3125 48.1875 68.609375 48.1875 
Q 61.625 48.1875 57.5625 43.546875 
Q 53.515625 38.921875 53.515625 30.90625 
L 53.515625 0 
L 44.484375 0 
L 44.484375 32.71875 
Q 44.484375 40.625 41.703125 44.40625 
Q 38.921875 48.1875 33.109375 48.1875 
Q 26.21875 48.1875 22.15625 43.53125 
Q 18.109375 38.875 18.109375 30.90625 
L 18.109375 0 
L 9.078125 0 
L 9.078125 54.6875 
L 18.109375 54.6875 
L 18.109375 46.1875 
Q 21.1875 51.21875 25.484375 53.609375 
Q 29.78125 56 35.6875 56 
Q 41.65625 56 45.828125 52.96875 
Q 50 49.953125 52 44.1875 
" id="DejaVuSans-6d"/>
     </defs>
     <g transform="translate(222.120937 100.689062)scale(0.1 -0.1)">
      <use xlink:href="#DejaVuSans-6c"/>
      <use x="27.783203" xlink:href="#DejaVuSans-6f"/>
      <use x="88.964844" xlink:href="#DejaVuSans-77"/>
      <use x="170.751953" xlink:href="#DejaVuSans-47"/>
      <use x="248.242188" xlink:href="#DejaVuSans-61"/>
      <use x="309.521484" xlink:href="#DejaVuSans-6d"/>
      <use x="406.933594" xlink:href="#DejaVuSans-6d"/>
      <use x="504.345703" xlink:href="#DejaVuSans-61"/>
     </g>
    </g>
    <g id="line2d_42">
     <path d="M 194.120937 111.867188 
L 214.120937 111.867188 
" style="fill:none;stroke:#e377c2;stroke-linecap:square;stroke-width:1.5;"/>
    </g>
    <g id="line2d_43"/>
    <g id="text_24">
     <!-- midGamma -->
     <g transform="translate(222.120937 115.367188)scale(0.1 -0.1)">
      <use xlink:href="#DejaVuSans-6d"/>
      <use x="97.412109" xlink:href="#DejaVuSans-69"/>
      <use x="125.195312" xlink:href="#DejaVuSans-64"/>
      <use x="188.671875" xlink:href="#DejaVuSans-47"/>
      <use x="266.162109" xlink:href="#DejaVuSans-61"/>
      <use x="327.441406" xlink:href="#DejaVuSans-6d"/>
      <use x="424.853516" xlink:href="#DejaVuSans-6d"/>
      <use x="522.265625" xlink:href="#DejaVuSans-61"/>
     </g>
    </g>
    <g id="line2d_44">
     <path d="M 194.120937 126.545312 
L 214.120937 126.545312 
" style="fill:none;stroke:#7f7f7f;stroke-linecap:square;stroke-width:1.5;"/>
    </g>
    <g id="line2d_45"/>
    <g id="text_25">
     <!-- attention -->
     <defs>
      <path d="M 54.890625 33.015625 
L 54.890625 0 
L 45.90625 0 
L 45.90625 32.71875 
Q 45.90625 40.484375 42.875 44.328125 
Q 39.84375 48.1875 33.796875 48.1875 
Q 26.515625 48.1875 22.3125 43.546875 
Q 18.109375 38.921875 18.109375 30.90625 
L 18.109375 0 
L 9.078125 0 
L 9.078125 54.6875 
L 18.109375 54.6875 
L 18.109375 46.1875 
Q 21.34375 51.125 25.703125 53.5625 
Q 30.078125 56 35.796875 56 
Q 45.21875 56 50.046875 50.171875 
Q 54.890625 44.34375 54.890625 33.015625 
" id="DejaVuSans-6e"/>
     </defs>
     <g transform="translate(222.120937 130.045312)scale(0.1 -0.1)">
      <use xlink:href="#DejaVuSans-61"/>
      <use x="61.279297" xlink:href="#DejaVuSans-74"/>
      <use x="100.488281" xlink:href="#DejaVuSans-74"/>
      <use x="139.697266" xlink:href="#DejaVuSans-65"/>
      <use x="201.220703" xlink:href="#DejaVuSans-6e"/>
      <use x="264.599609" xlink:href="#DejaVuSans-74"/>
      <use x="303.808594" xlink:href="#DejaVuSans-69"/>
      <use x="331.591797" xlink:href="#DejaVuSans-6f"/>
      <use x="392.773438" xlink:href="#DejaVuSans-6e"/>
     </g>
    </g>
    <g id="line2d_46">
     <path d="M 194.120937 141.223437 
L 214.120937 141.223437 
" style="fill:none;stroke:#bcbd22;stroke-linecap:square;stroke-width:1.5;"/>
    </g>
    <g id="line2d_47"/>
    <g id="text_26">
     <!-- meditation -->
     <g transform="translate(222.120937 144.723437)scale(0.1 -0.1)">
      <use xlink:href="#DejaVuSans-6d"/>
      <use x="97.412109" xlink:href="#DejaVuSans-65"/>
      <use x="158.935547" xlink:href="#DejaVuSans-64"/>
      <use x="222.412109" xlink:href="#DejaVuSans-69"/>
      <use x="250.195312" xlink:href="#DejaVuSans-74"/>
      <use x="289.404297" xlink:href="#DejaVuSans-61"/>
      <use x="350.683594" xlink:href="#DejaVuSans-74"/>
      <use x="389.892578" xlink:href="#DejaVuSans-69"/>
      <use x="417.675781" xlink:href="#DejaVuSans-6f"/>
      <use x="478.857422" xlink:href="#DejaVuSans-6e"/>
     </g>
    </g>
    <g id="line2d_48">
     <path d="M 194.120937 155.901562 
L 214.120937 155.901562 
" style="fill:none;stroke:#17becf;stroke-linecap:square;stroke-width:1.5;"/>
    </g>
    <g id="line2d_49"/>
    <g id="text_27">
     <!-- rawValue -->
     <defs>
      <path d="M 41.109375 46.296875 
Q 39.59375 47.171875 37.8125 47.578125 
Q 36.03125 48 33.890625 48 
Q 26.265625 48 22.1875 43.046875 
Q 18.109375 38.09375 18.109375 28.8125 
L 18.109375 0 
L 9.078125 0 
L 9.078125 54.6875 
L 18.109375 54.6875 
L 18.109375 46.1875 
Q 20.953125 51.171875 25.484375 53.578125 
Q 30.03125 56 36.53125 56 
Q 37.453125 56 38.578125 55.875 
Q 39.703125 55.765625 41.0625 55.515625 
z
" id="DejaVuSans-72"/>
      <path d="M 28.609375 0 
L 0.78125 72.90625 
L 11.078125 72.90625 
L 34.1875 11.53125 
L 57.328125 72.90625 
L 67.578125 72.90625 
L 39.796875 0 
z
" id="DejaVuSans-56"/>
      <path d="M 8.5 21.578125 
L 8.5 54.6875 
L 17.484375 54.6875 
L 17.484375 21.921875 
Q 17.484375 14.15625 20.5 10.265625 
Q 23.53125 6.390625 29.59375 6.390625 
Q 36.859375 6.390625 41.078125 11.03125 
Q 45.3125 15.671875 45.3125 23.6875 
L 45.3125 54.6875 
L 54.296875 54.6875 
L 54.296875 0 
L 45.3125 0 
L 45.3125 8.40625 
Q 42.046875 3.421875 37.71875 1 
Q 33.40625 -1.421875 27.6875 -1.421875 
Q 18.265625 -1.421875 13.375 4.4375 
Q 8.5 10.296875 8.5 21.578125 
M 31.109375 56 
z
" id="DejaVuSans-75"/>
     </defs>
     <g transform="translate(222.120937 159.401562)scale(0.1 -0.1)">
      <use xlink:href="#DejaVuSans-72"/>
      <use x="41.113281" xlink:href="#DejaVuSans-61"/>
      <use x="102.392578" xlink:href="#DejaVuSans-77"/>
      <use x="184.179688" xlink:href="#DejaVuSans-56"/>
      <use x="252.478516" xlink:href="#DejaVuSans-61"/>
      <use x="313.757812" xlink:href="#DejaVuSans-6c"/>
      <use x="341.541016" xlink:href="#DejaVuSans-75"/>
      <use x="404.919922" xlink:href="#DejaVuSans-65"/>
     </g>
    </g>
   </g>
  </g>
 </g>
 <defs>
  <clipPath id="pcc8aa3d9ef">
   <rect height="266.112" width="357.12" x="58.7375" y="10.7"/>
  </clipPath>
 </defs>
</svg>
