<?xml version="1.0" encoding="utf-8" standalone="no"?>
<!DOCTYPE svg PUBLIC "-//W3C//DTD SVG 1.1//EN"
  "http://www.w3.org/Graphics/SVG/1.1/DTD/svg11.dtd">
<!-- Created with matplotlib (http://matplotlib.org/) -->
<svg height="300pt" version="1.1" viewBox="0 0 426 300" width="426pt" xmlns="http://www.w3.org/2000/svg" xmlns:xlink="http://www.w3.org/1999/xlink">
 <defs>
  <style type="text/css">
*{stroke-linecap:butt;stroke-linejoin:round;}
  </style>
 </defs>
 <g id="figure_1">
  <g id="patch_1">
   <path d="M 0 300.690125 
L 426.5575 300.690125 
L 426.5575 0 
L 0 0 
z
" style="fill:#ffffff;"/>
  </g>
  <g id="axes_1">
   <g id="patch_2">
    <path d="M 58.7375 276.812 
L 415.8575 276.812 
L 415.8575 10.7 
L 58.7375 10.7 
z
" style="fill:#ffffff;"/>
   </g>
   <g id="matplotlib.axis_1">
    <g id="xtick_1">
     <g id="line2d_1">
      <defs>
       <path d="M 0 0 
L 0 3.5 
" id="m280100bb9a" style="stroke:#000000;stroke-width:0.8;"/>
      </defs>
      <g>
       <use style="stroke:#000000;stroke-width:0.8;" x="74.970227" xlink:href="#m280100bb9a" y="276.812"/>
      </g>
     </g>
     <g id="text_1">
      <!-- 0 -->
      <defs>
       <path d="M 31.78125 66.40625 
Q 24.171875 66.40625 20.328125 58.90625 
Q 16.5 51.421875 16.5 36.375 
Q 16.5 21.390625 20.328125 13.890625 
Q 24.171875 6.390625 31.78125 6.390625 
Q 39.453125 6.390625 43.28125 13.890625 
Q 47.125 21.390625 47.125 36.375 
Q 47.125 51.421875 43.28125 58.90625 
Q 39.453125 66.40625 31.78125 66.40625 
M 31.78125 74.21875 
Q 44.046875 74.21875 50.515625 64.515625 
Q 56.984375 54.828125 56.984375 36.375 
Q 56.984375 17.96875 50.515625 8.265625 
Q 44.046875 -1.421875 31.78125 -1.421875 
Q 19.53125 -1.421875 13.0625 8.265625 
Q 6.59375 17.96875 6.59375 36.375 
Q 6.59375 54.828125 13.0625 64.515625 
Q 19.53125 74.21875 31.78125 74.21875 
" id="DejaVuSans-30"/>
      </defs>
      <g transform="translate(71.788977 291.410437)scale(0.1 -0.1)">
       <use xlink:href="#DejaVuSans-30"/>
      </g>
     </g>
    </g>
    <g id="xtick_2">
     <g id="line2d_2">
      <g>
       <use style="stroke:#000000;stroke-width:0.8;" x="153.012185" xlink:href="#m280100bb9a" y="276.812"/>
      </g>
     </g>
     <g id="text_2">
      <!-- 50 -->
      <defs>
       <path d="M 10.796875 72.90625 
L 49.515625 72.90625 
L 49.515625 64.59375 
L 19.828125 64.59375 
L 19.828125 46.734375 
Q 21.96875 47.46875 24.109375 47.828125 
Q 26.265625 48.1875 28.421875 48.1875 
Q 40.625 48.1875 47.75 41.5 
Q 54.890625 34.8125 54.890625 23.390625 
Q 54.890625 11.625 47.5625 5.09375 
Q 40.234375 -1.421875 26.90625 -1.421875 
Q 22.3125 -1.421875 17.546875 -0.640625 
Q 12.796875 0.140625 7.71875 1.703125 
L 7.71875 11.625 
Q 12.109375 9.234375 16.796875 8.0625 
Q 21.484375 6.890625 26.703125 6.890625 
Q 35.15625 6.890625 40.078125 11.328125 
Q 45.015625 15.765625 45.015625 23.390625 
Q 45.015625 31 40.078125 35.4375 
Q 35.15625 39.890625 26.703125 39.890625 
Q 22.75 39.890625 18.8125 39.015625 
Q 14.890625 38.140625 10.796875 36.28125 
z
" id="DejaVuSans-35"/>
      </defs>
      <g transform="translate(146.649685 291.410437)scale(0.1 -0.1)">
       <use xlink:href="#DejaVuSans-35"/>
       <use x="63.623047" xlink:href="#DejaVuSans-30"/>
      </g>
     </g>
    </g>
    <g id="xtick_3">
     <g id="line2d_3">
      <g>
       <use style="stroke:#000000;stroke-width:0.8;" x="231.054143" xlink:href="#m280100bb9a" y="276.812"/>
      </g>
     </g>
     <g id="text_3">
      <!-- 100 -->
      <defs>
       <path d="M 12.40625 8.296875 
L 28.515625 8.296875 
L 28.515625 63.921875 
L 10.984375 60.40625 
L 10.984375 69.390625 
L 28.421875 72.90625 
L 38.28125 72.90625 
L 38.28125 8.296875 
L 54.390625 8.296875 
L 54.390625 0 
L 12.40625 0 
z
" id="DejaVuSans-31"/>
      </defs>
      <g transform="translate(221.510393 291.410437)scale(0.1 -0.1)">
       <use xlink:href="#DejaVuSans-31"/>
       <use x="63.623047" xlink:href="#DejaVuSans-30"/>
       <use x="127.246094" xlink:href="#DejaVuSans-30"/>
      </g>
     </g>
    </g>
    <g id="xtick_4">
     <g id="line2d_4">
      <g>
       <use style="stroke:#000000;stroke-width:0.8;" x="309.096101" xlink:href="#m280100bb9a" y="276.812"/>
      </g>
     </g>
     <g id="text_4">
      <!-- 150 -->
      <g transform="translate(299.552351 291.410437)scale(0.1 -0.1)">
       <use xlink:href="#DejaVuSans-31"/>
       <use x="63.623047" xlink:href="#DejaVuSans-35"/>
       <use x="127.246094" xlink:href="#DejaVuSans-30"/>
      </g>
     </g>
    </g>
    <g id="xtick_5">
     <g id="line2d_5">
      <g>
       <use style="stroke:#000000;stroke-width:0.8;" x="387.138059" xlink:href="#m280100bb9a" y="276.812"/>
      </g>
     </g>
     <g id="text_5">
      <!-- 200 -->
      <defs>
       <path d="M 19.1875 8.296875 
L 53.609375 8.296875 
L 53.609375 0 
L 7.328125 0 
L 7.328125 8.296875 
Q 12.9375 14.109375 22.625 23.890625 
Q 32.328125 33.6875 34.8125 36.53125 
Q 39.546875 41.84375 41.421875 45.53125 
Q 43.3125 49.21875 43.3125 52.78125 
Q 43.3125 58.59375 39.234375 62.25 
Q 35.15625 65.921875 28.609375 65.921875 
Q 23.96875 65.921875 18.8125 64.3125 
Q 13.671875 62.703125 7.8125 59.421875 
L 7.8125 69.390625 
Q 13.765625 71.78125 18.9375 73 
Q 24.125 74.21875 28.421875 74.21875 
Q 39.75 74.21875 46.484375 68.546875 
Q 53.21875 62.890625 53.21875 53.421875 
Q 53.21875 48.921875 51.53125 44.890625 
Q 49.859375 40.875 45.40625 35.40625 
Q 44.1875 33.984375 37.640625 27.21875 
Q 31.109375 20.453125 19.1875 8.296875 
" id="DejaVuSans-32"/>
      </defs>
      <g transform="translate(377.594309 291.410437)scale(0.1 -0.1)">
       <use xlink:href="#DejaVuSans-32"/>
       <use x="63.623047" xlink:href="#DejaVuSans-30"/>
       <use x="127.246094" xlink:href="#DejaVuSans-30"/>
      </g>
     </g>
    </g>
   </g>
   <g id="matplotlib.axis_2">
    <g id="ytick_1">
     <g id="line2d_6">
      <defs>
       <path d="M 0 0 
L -3.5 0 
" id="m3af4fb9834" style="stroke:#000000;stroke-width:0.8;"/>
      </defs>
      <g>
       <use style="stroke:#000000;stroke-width:0.8;" x="58.7375" xlink:href="#m3af4fb9834" y="264.668736"/>
      </g>
     </g>
     <g id="text_6">
      <!-- 0 -->
      <g transform="translate(45.375 268.467954)scale(0.1 -0.1)">
       <use xlink:href="#DejaVuSans-30"/>
      </g>
     </g>
    </g>
    <g id="ytick_2">
     <g id="line2d_7">
      <g>
       <use style="stroke:#000000;stroke-width:0.8;" x="58.7375" xlink:href="#m3af4fb9834" y="230.665571"/>
      </g>
     </g>
     <g id="text_7">
      <!-- 500000 -->
      <g transform="translate(13.5625 234.46479)scale(0.1 -0.1)">
       <use xlink:href="#DejaVuSans-35"/>
       <use x="63.623047" xlink:href="#DejaVuSans-30"/>
       <use x="127.246094" xlink:href="#DejaVuSans-30"/>
       <use x="190.869141" xlink:href="#DejaVuSans-30"/>
       <use x="254.492188" xlink:href="#DejaVuSans-30"/>
       <use x="318.115234" xlink:href="#DejaVuSans-30"/>
      </g>
     </g>
    </g>
    <g id="ytick_3">
     <g id="line2d_8">
      <g>
       <use style="stroke:#000000;stroke-width:0.8;" x="58.7375" xlink:href="#m3af4fb9834" y="196.662407"/>
      </g>
     </g>
     <g id="text_8">
      <!-- 1000000 -->
      <g transform="translate(7.2 200.461626)scale(0.1 -0.1)">
       <use xlink:href="#DejaVuSans-31"/>
       <use x="63.623047" xlink:href="#DejaVuSans-30"/>
       <use x="127.246094" xlink:href="#DejaVuSans-30"/>
       <use x="190.869141" xlink:href="#DejaVuSans-30"/>
       <use x="254.492188" xlink:href="#DejaVuSans-30"/>
       <use x="318.115234" xlink:href="#DejaVuSans-30"/>
       <use x="381.738281" xlink:href="#DejaVuSans-30"/>
      </g>
     </g>
    </g>
    <g id="ytick_4">
     <g id="line2d_9">
      <g>
       <use style="stroke:#000000;stroke-width:0.8;" x="58.7375" xlink:href="#m3af4fb9834" y="162.659243"/>
      </g>
     </g>
     <g id="text_9">
      <!-- 1500000 -->
      <g transform="translate(7.2 166.458462)scale(0.1 -0.1)">
       <use xlink:href="#DejaVuSans-31"/>
       <use x="63.623047" xlink:href="#DejaVuSans-35"/>
       <use x="127.246094" xlink:href="#DejaVuSans-30"/>
       <use x="190.869141" xlink:href="#DejaVuSans-30"/>
       <use x="254.492188" xlink:href="#DejaVuSans-30"/>
       <use x="318.115234" xlink:href="#DejaVuSans-30"/>
       <use x="381.738281" xlink:href="#DejaVuSans-30"/>
      </g>
     </g>
    </g>
    <g id="ytick_5">
     <g id="line2d_10">
      <g>
       <use style="stroke:#000000;stroke-width:0.8;" x="58.7375" xlink:href="#m3af4fb9834" y="128.656079"/>
      </g>
     </g>
     <g id="text_10">
      <!-- 2000000 -->
      <g transform="translate(7.2 132.455298)scale(0.1 -0.1)">
       <use xlink:href="#DejaVuSans-32"/>
       <use x="63.623047" xlink:href="#DejaVuSans-30"/>
       <use x="127.246094" xlink:href="#DejaVuSans-30"/>
       <use x="190.869141" xlink:href="#DejaVuSans-30"/>
       <use x="254.492188" xlink:href="#DejaVuSans-30"/>
       <use x="318.115234" xlink:href="#DejaVuSans-30"/>
       <use x="381.738281" xlink:href="#DejaVuSans-30"/>
      </g>
     </g>
    </g>
    <g id="ytick_6">
     <g id="line2d_11">
      <g>
       <use style="stroke:#000000;stroke-width:0.8;" x="58.7375" xlink:href="#m3af4fb9834" y="94.652915"/>
      </g>
     </g>
     <g id="text_11">
      <!-- 2500000 -->
      <g transform="translate(7.2 98.452133)scale(0.1 -0.1)">
       <use xlink:href="#DejaVuSans-32"/>
       <use x="63.623047" xlink:href="#DejaVuSans-35"/>
       <use x="127.246094" xlink:href="#DejaVuSans-30"/>
       <use x="190.869141" xlink:href="#DejaVuSans-30"/>
       <use x="254.492188" xlink:href="#DejaVuSans-30"/>
       <use x="318.115234" xlink:href="#DejaVuSans-30"/>
       <use x="381.738281" xlink:href="#DejaVuSans-30"/>
      </g>
     </g>
    </g>
    <g id="ytick_7">
     <g id="line2d_12">
      <g>
       <use style="stroke:#000000;stroke-width:0.8;" x="58.7375" xlink:href="#m3af4fb9834" y="60.649751"/>
      </g>
     </g>
     <g id="text_12">
      <!-- 3000000 -->
      <defs>
       <path d="M 40.578125 39.3125 
Q 47.65625 37.796875 51.625 33 
Q 55.609375 28.21875 55.609375 21.1875 
Q 55.609375 10.40625 48.1875 4.484375 
Q 40.765625 -1.421875 27.09375 -1.421875 
Q 22.515625 -1.421875 17.65625 -0.515625 
Q 12.796875 0.390625 7.625 2.203125 
L 7.625 11.71875 
Q 11.71875 9.328125 16.59375 8.109375 
Q 21.484375 6.890625 26.8125 6.890625 
Q 36.078125 6.890625 40.9375 10.546875 
Q 45.796875 14.203125 45.796875 21.1875 
Q 45.796875 27.640625 41.28125 31.265625 
Q 36.765625 34.90625 28.71875 34.90625 
L 20.21875 34.90625 
L 20.21875 43.015625 
L 29.109375 43.015625 
Q 36.375 43.015625 40.234375 45.921875 
Q 44.09375 48.828125 44.09375 54.296875 
Q 44.09375 59.90625 40.109375 62.90625 
Q 36.140625 65.921875 28.71875 65.921875 
Q 24.65625 65.921875 20.015625 65.03125 
Q 15.375 64.15625 9.8125 62.3125 
L 9.8125 71.09375 
Q 15.4375 72.65625 20.34375 73.4375 
Q 25.25 74.21875 29.59375 74.21875 
Q 40.828125 74.21875 47.359375 69.109375 
Q 53.90625 64.015625 53.90625 55.328125 
Q 53.90625 49.265625 50.4375 45.09375 
Q 46.96875 40.921875 40.578125 39.3125 
" id="DejaVuSans-33"/>
      </defs>
      <g transform="translate(7.2 64.448969)scale(0.1 -0.1)">
       <use xlink:href="#DejaVuSans-33"/>
       <use x="63.623047" xlink:href="#DejaVuSans-30"/>
       <use x="127.246094" xlink:href="#DejaVuSans-30"/>
       <use x="190.869141" xlink:href="#DejaVuSans-30"/>
       <use x="254.492188" xlink:href="#DejaVuSans-30"/>
       <use x="318.115234" xlink:href="#DejaVuSans-30"/>
       <use x="381.738281" xlink:href="#DejaVuSans-30"/>
      </g>
     </g>
    </g>
    <g id="ytick_8">
     <g id="line2d_13">
      <g>
       <use style="stroke:#000000;stroke-width:0.8;" x="58.7375" xlink:href="#m3af4fb9834" y="26.646586"/>
      </g>
     </g>
     <g id="text_13">
      <!-- 3500000 -->
      <g transform="translate(7.2 30.445805)scale(0.1 -0.1)">
       <use xlink:href="#DejaVuSans-33"/>
       <use x="63.623047" xlink:href="#DejaVuSans-35"/>
       <use x="127.246094" xlink:href="#DejaVuSans-30"/>
       <use x="190.869141" xlink:href="#DejaVuSans-30"/>
       <use x="254.492188" xlink:href="#DejaVuSans-30"/>
       <use x="318.115234" xlink:href="#DejaVuSans-30"/>
       <use x="381.738281" xlink:href="#DejaVuSans-30"/>
      </g>
     </g>
    </g>
   </g>
   <g id="line2d_14">
    <path clip-path="url(#pd78adbbf1e)" d="M 74.970227 263.442513 
L 76.531066 254.986335 
L 78.091906 261.45088 
L 79.652745 260.138018 
L 81.213584 261.96698 
L 82.774423 253.061415 
L 84.335262 262.146041 
L 85.896101 262.431667 
L 87.456941 256.948453 
L 89.01778 214.147582 
L 90.578619 263.366414 
L 92.139458 263.049573 
L 93.700297 261.654423 
L 95.261136 261.136079 
L 96.821976 262.535649 
L 98.382815 260.737358 
L 99.943654 257.198648 
L 101.504493 261.167158 
L 103.065332 252.128505 
L 104.626171 260.467577 
L 106.18701 259.68428 
L 107.74785 256.030504 
L 109.308689 90.845648 
L 110.869528 263.889451 
L 112.430367 262.717974 
L 113.991206 261.314391 
L 115.552045 259.466728 
L 117.112885 253.482035 
L 118.673724 260.040293 
L 120.234563 261.168926 
L 121.795402 259.869189 
L 123.356241 263.287119 
L 124.91708 262.796385 
L 126.47792 260.292936 
L 128.038759 256.323339 
L 129.599598 263.49379 
L 131.160437 261.271819 
L 132.721276 202.478784 
L 134.282115 262.822364 
L 135.842955 205.43536 
L 137.403794 251.730124 
L 138.964633 252.155639 
L 140.525472 246.897186 
L 142.086311 262.758438 
L 143.64715 258.107893 
L 145.20799 186.359448 
L 146.768829 262.659285 
L 148.329668 262.174263 
L 149.890507 175.477416 
L 151.451346 263.210204 
L 153.012185 262.968645 
L 154.573024 259.257608 
L 156.133864 210.4732 
L 157.694703 262.966265 
L 159.255542 258.276209 
L 160.816381 179.222932 
L 162.37722 133.43502 
L 163.938059 219.256286 
L 165.498899 253.86253 
L 167.059738 263.022234 
L 168.620577 195.335264 
L 170.181416 244.759203 
L 171.742255 146.404098 
L 173.303094 261.633613 
L 174.863934 200.126378 
L 177.985612 221.417731 
L 179.546451 234.588176 
L 181.10729 258.975246 
L 182.668129 252.244931 
L 184.228969 252.087633 
L 185.789808 218.447622 
L 187.350647 262.757622 
L 188.911486 260.589784 
L 190.472325 261.72889 
L 192.033164 241.24586 
L 193.594003 264.261718 
L 195.154843 260.996666 
L 196.715682 260.412356 
L 198.276521 263.115743 
L 199.83736 248.271662 
L 201.398199 260.886768 
L 204.519878 261.892649 
L 206.080717 263.542415 
L 207.641556 261.562819 
L 209.202395 262.125503 
L 210.763234 259.748886 
L 212.324073 260.39753 
L 213.884913 262.088576 
L 215.445752 262.60794 
L 217.006591 262.586858 
L 218.56743 258.179232 
L 220.128269 210.093113 
L 221.689108 263.976363 
L 223.249948 263.173548 
L 224.810787 251.903744 
L 226.371626 258.226428 
L 227.932465 264.055251 
L 229.493304 261.796216 
L 231.054143 22.796 
L 232.614983 258.181952 
L 234.175822 262.059333 
L 235.736661 197.613544 
L 237.2975 242.280848 
L 238.858339 254.119526 
L 240.419178 203.719424 
L 241.980017 262.45649 
L 243.540857 213.061113 
L 245.101696 135.046634 
L 246.662535 261.76677 
L 248.223374 256.073008 
L 249.784213 260.944709 
L 251.345052 206.326311 
L 252.905892 251.870625 
L 254.466731 207.435698 
L 256.02757 256.788366 
L 257.588409 262.279469 
L 259.149248 233.380588 
L 260.710087 191.030463 
L 262.270927 261.399059 
L 263.831766 263.435509 
L 265.392605 235.669341 
L 266.953444 264.327684 
L 268.514283 264.243152 
L 270.075122 263.525889 
L 271.635962 263.008837 
L 273.196801 259.780441 
L 274.75764 257.983986 
L 276.318479 263.262025 
L 277.879318 263.250668 
L 279.440157 263.647893 
L 281.000997 263.449586 
L 282.561836 263.489438 
L 284.122675 262.735044 
L 285.683514 261.513242 
L 287.244353 263.320374 
L 288.805192 264.014311 
L 290.366031 259.456391 
L 291.926871 262.11673 
L 293.48771 263.6821 
L 295.048549 263.591311 
L 296.609388 226.808388 
L 298.170227 263.184497 
L 299.731066 262.964361 
L 301.291906 260.738582 
L 302.852745 263.689853 
L 304.413584 262.021181 
L 305.974423 253.923124 
L 307.535262 258.96076 
L 309.096101 259.357985 
L 310.656941 263.267805 
L 312.21778 259.451426 
L 313.778619 253.160161 
L 315.339458 261.975481 
L 316.900297 261.343566 
L 318.461136 258.485736 
L 320.021976 261.021488 
L 321.582815 260.903769 
L 323.143654 238.6251 
L 324.704493 251.064614 
L 326.265332 258.713149 
L 327.826171 263.915089 
L 329.38701 260.763064 
L 330.94785 235.129643 
L 332.508689 262.544558 
L 334.069528 263.118123 
L 335.630367 226.347374 
L 337.191206 251.209875 
L 338.752045 256.33592 
L 340.312885 259.772756 
L 341.873724 264.016351 
L 343.434563 263.550168 
L 344.995402 261.909107 
L 346.556241 263.977587 
L 348.11708 255.736444 
L 349.67792 253.285224 
L 351.238759 245.243136 
L 352.799598 258.170255 
L 354.360437 238.264123 
L 355.921276 204.443079 
L 357.482115 256.86909 
L 359.042955 184.209972 
L 360.603794 261.031281 
L 362.164633 259.264613 
L 363.725472 263.466928 
L 365.286311 254.253906 
L 366.84715 263.190414 
L 368.40799 261.892513 
L 369.968829 258.636438 
L 371.529668 262.256075 
L 373.090507 257.988474 
L 374.651346 190.421739 
L 376.212185 259.439933 
L 377.773024 254.535997 
L 379.333864 261.362812 
L 380.894703 249.232999 
L 382.455542 262.949196 
L 384.016381 263.454211 
L 385.57722 251.504275 
L 387.138059 264.447919 
L 388.698899 255.386552 
L 390.259738 261.116901 
L 391.820577 259.75011 
L 393.381416 263.629191 
L 394.942255 263.983368 
L 396.503094 258.802578 
L 398.063934 258.423714 
L 399.624773 261.870207 
L 399.624773 261.870207 
" style="fill:none;stroke:#1f77b4;stroke-linecap:square;stroke-width:1.5;"/>
   </g>
   <g id="line2d_15">
    <path clip-path="url(#pd78adbbf1e)" d="M 74.970227 264.443295 
L 76.531066 261.291949 
L 78.091906 262.84841 
L 79.652745 263.658842 
L 81.213584 262.812367 
L 82.774423 263.296912 
L 84.335262 263.38872 
L 85.896101 260.853785 
L 87.456941 262.955316 
L 89.01778 264.382361 
L 90.578619 264.176846 
L 92.139458 263.510792 
L 93.700297 261.194224 
L 95.261136 263.584579 
L 96.821976 263.666526 
L 98.382815 263.545883 
L 99.943654 261.446188 
L 101.504493 263.837426 
L 103.065332 262.581077 
L 104.626171 263.63674 
L 106.18701 262.207179 
L 107.74785 263.823145 
L 109.308689 262.850586 
L 110.869528 263.87789 
L 112.430367 264.15726 
L 113.991206 263.232714 
L 115.552045 262.823996 
L 117.112885 263.819813 
L 118.673724 264.11734 
L 120.234563 263.321802 
L 121.795402 263.336424 
L 123.356241 263.108806 
L 124.91708 264.128833 
L 126.47792 261.55561 
L 128.038759 263.526365 
L 129.599598 264.036277 
L 131.160437 263.44469 
L 132.721276 221.611617 
L 134.282115 264.292457 
L 135.842955 239.07095 
L 137.403794 258.97545 
L 138.964633 262.470091 
L 140.525472 260.223978 
L 142.086311 263.385796 
L 143.64715 255.624506 
L 145.20799 264.063547 
L 148.329668 263.390489 
L 149.890507 257.187563 
L 151.451346 263.735825 
L 153.012185 263.880066 
L 154.573024 262.04614 
L 156.133864 263.454959 
L 157.694703 264.158688 
L 159.255542 262.396372 
L 160.816381 224.595871 
L 162.37722 263.724128 
L 163.938059 260.680096 
L 165.498899 263.98466 
L 167.059738 261.157841 
L 168.620577 104.5054 
L 170.181416 263.625859 
L 171.742255 252.990893 
L 173.303094 263.329691 
L 174.863934 239.111277 
L 176.424773 264.442819 
L 177.985612 258.87412 
L 179.546451 260.962459 
L 181.10729 259.873813 
L 182.668129 258.609916 
L 184.228969 261.868235 
L 185.789808 256.941789 
L 187.350647 264.327004 
L 188.911486 260.700974 
L 190.472325 263.283311 
L 192.033164 246.157957 
L 193.594003 264.231047 
L 195.154843 261.749836 
L 196.715682 261.280524 
L 198.276521 263.395181 
L 199.83736 262.415822 
L 201.398199 262.592978 
L 202.959038 263.064942 
L 206.080717 262.295587 
L 207.641556 260.73831 
L 209.202395 262.853647 
L 210.763234 264.426769 
L 212.324073 263.291675 
L 213.884913 263.856944 
L 215.445752 263.38634 
L 217.006591 264.299801 
L 218.56743 262.032334 
L 220.128269 260.019619 
L 221.689108 264.159028 
L 224.810787 262.430783 
L 226.371626 260.934916 
L 227.932465 263.332207 
L 229.493304 263.957661 
L 231.054143 226.152059 
L 232.614983 263.918014 
L 234.175822 261.729366 
L 235.736661 233.667779 
L 237.2975 253.898777 
L 238.858339 264.150595 
L 240.419178 256.884391 
L 241.980017 260.200652 
L 243.540857 257.965556 
L 245.101696 251.027686 
L 246.662535 263.588931 
L 248.223374 258.725595 
L 249.784213 263.706718 
L 251.345052 260.384269 
L 252.905892 258.534837 
L 254.466731 262.929338 
L 256.02757 263.465296 
L 257.588409 262.756738 
L 259.149248 256.389645 
L 260.710087 254.026561 
L 262.270927 263.506031 
L 263.831766 263.722836 
L 265.392605 257.911151 
L 266.953444 264.369236 
L 268.514283 263.631979 
L 270.075122 263.14281 
L 271.635962 262.208743 
L 273.196801 262.765306 
L 274.75764 263.131521 
L 276.318479 261.373285 
L 277.879318 262.1778 
L 279.440157 263.673123 
L 281.000997 263.366958 
L 282.561836 264.131554 
L 285.683514 263.668703 
L 287.244353 261.491616 
L 288.805192 264.028796 
L 290.366031 264.314083 
L 291.926871 263.383892 
L 293.48771 263.117851 
L 295.048549 263.220473 
L 296.609388 262.257503 
L 298.170227 262.974834 
L 299.731066 262.065725 
L 302.852745 264.26743 
L 304.413584 263.03468 
L 305.974423 260.826718 
L 307.535262 262.577269 
L 309.096101 263.111663 
L 310.656941 261.31786 
L 312.21778 262.366313 
L 313.778619 259.399197 
L 315.339458 263.400554 
L 316.900297 263.683052 
L 318.461136 262.825016 
L 320.021976 255.118743 
L 321.582815 262.131215 
L 323.143654 259.548335 
L 324.704493 260.273691 
L 326.265332 263.112071 
L 327.826171 264.399431 
L 329.38701 261.447004 
L 330.94785 256.027035 
L 332.508689 262.896967 
L 334.069528 263.542891 
L 335.630367 260.233431 
L 337.191206 257.75698 
L 338.752045 260.591008 
L 340.312885 263.963442 
L 341.873724 261.340982 
L 343.434563 263.986632 
L 344.995402 262.860039 
L 346.556241 264.07164 
L 348.11708 263.770304 
L 349.67792 260.046754 
L 351.238759 263.210204 
L 352.799598 258.059609 
L 354.360437 251.812615 
L 355.921276 259.414975 
L 357.482115 262.932398 
L 359.042955 255.288487 
L 360.603794 263.244955 
L 362.164633 261.093099 
L 363.725472 263.153895 
L 365.286311 262.087691 
L 366.84715 264.17433 
L 368.40799 263.404838 
L 369.968829 263.47434 
L 373.090507 262.854259 
L 374.651346 259.212044 
L 376.212185 263.692233 
L 377.773024 258.715802 
L 379.333864 260.617735 
L 380.894703 259.332551 
L 382.455542 264.088982 
L 384.016381 262.034102 
L 387.138059 264.306126 
L 388.698899 262.003092 
L 390.259738 262.932126 
L 391.820577 262.782988 
L 393.381416 264.352642 
L 394.942255 263.99044 
L 396.503094 263.384844 
L 398.063934 263.015026 
L 399.624773 264.421601 
L 399.624773 264.421601 
" style="fill:none;stroke:#ff7f0e;stroke-linecap:square;stroke-width:1.5;"/>
   </g>
   <g id="line2d_16">
    <path clip-path="url(#pd78adbbf1e)" d="M 74.970227 264.476754 
L 76.531066 264.43493 
L 78.091906 263.833618 
L 79.652745 264.560402 
L 81.213584 264.556049 
L 82.774423 264.412624 
L 84.335262 264.660643 
L 85.896101 262.1846 
L 87.456941 262.690295 
L 89.01778 264.575023 
L 90.578619 264.639561 
L 93.700297 264.53898 
L 95.261136 263.959566 
L 96.821976 262.663229 
L 98.382815 264.576927 
L 99.943654 263.440133 
L 101.504493 264.245532 
L 103.065332 263.992141 
L 104.626171 262.257435 
L 106.18701 264.653638 
L 107.74785 263.254408 
L 109.308689 260.838755 
L 110.869528 263.540987 
L 112.430367 264.455196 
L 113.991206 264.251517 
L 115.552045 263.929779 
L 117.112885 264.375492 
L 118.673724 263.35975 
L 120.234563 263.823553 
L 121.795402 263.829129 
L 123.356241 264.474374 
L 124.91708 264.510213 
L 126.47792 260.986669 
L 128.038759 263.587299 
L 129.599598 264.377533 
L 131.160437 263.511268 
L 132.721276 263.647757 
L 134.282115 264.445199 
L 135.842955 263.880406 
L 137.403794 261.755617 
L 138.964633 262.622017 
L 140.525472 263.756431 
L 142.086311 263.995949 
L 143.64715 261.596822 
L 145.20799 264.484983 
L 146.768829 264.610046 
L 148.329668 263.222173 
L 151.451346 263.906453 
L 153.012185 264.035121 
L 154.573024 264.511029 
L 156.133864 264.512661 
L 159.255542 264.221254 
L 160.816381 260.511237 
L 162.37722 264.110132 
L 163.938059 264.385489 
L 165.498899 264.31109 
L 167.059738 263.66401 
L 168.620577 236.852719 
L 170.181416 263.455027 
L 171.742255 264.250701 
L 173.303094 264.466145 
L 176.424773 264.63344 
L 177.985612 263.275762 
L 179.546451 260.5432 
L 181.10729 263.668226 
L 182.668129 262.55027 
L 184.228969 263.916246 
L 185.789808 260.379644 
L 187.350647 264.528983 
L 188.911486 263.941476 
L 190.472325 262.971502 
L 192.033164 264.046614 
L 193.594003 264.572711 
L 195.154843 264.547344 
L 196.715682 261.161309 
L 198.276521 264.415344 
L 199.83736 264.595765 
L 201.398199 263.611509 
L 202.959038 263.654761 
L 204.519878 264.472537 
L 206.080717 263.711955 
L 207.641556 264.050898 
L 209.202395 264.623715 
L 210.763234 264.076196 
L 212.324073 263.6821 
L 213.884913 264.131214 
L 215.445752 263.70053 
L 217.006591 264.56557 
L 220.128269 264.025532 
L 221.689108 264.271307 
L 223.249948 264.394262 
L 224.810787 263.224689 
L 226.371626 263.291063 
L 227.932465 264.485595 
L 229.493304 264.629292 
L 231.054143 261.038966 
L 232.614983 264.269878 
L 234.175822 264.392834 
L 235.736661 261.939846 
L 237.2975 264.502256 
L 238.858339 264.312586 
L 240.419178 262.021589 
L 241.980017 263.951541 
L 243.540857 262.37155 
L 245.101696 261.035157 
L 246.662535 264.490627 
L 248.223374 263.618174 
L 249.784213 264.185143 
L 251.345052 263.416399 
L 252.905892 263.33588 
L 254.466731 264.268178 
L 256.02757 264.490423 
L 257.588409 264.136858 
L 259.149248 261.544797 
L 260.710087 262.745721 
L 262.270927 264.113396 
L 263.831766 264.441458 
L 265.392605 263.25162 
L 266.953444 264.58876 
L 268.514283 264.076741 
L 270.075122 264.571419 
L 271.635962 263.813964 
L 273.196801 264.292185 
L 274.75764 264.39025 
L 277.879318 263.825661 
L 279.440157 263.108874 
L 281.000997 264.191875 
L 284.122675 264.013087 
L 285.683514 263.688832 
L 288.805192 264.547616 
L 290.366031 264.132438 
L 291.926871 263.843751 
L 295.048549 263.64082 
L 296.609388 264.206089 
L 298.170227 264.256685 
L 299.731066 262.908188 
L 301.291906 263.086364 
L 302.852745 264.549793 
L 304.413584 263.814984 
L 305.974423 264.17535 
L 307.535262 263.829538 
L 310.656941 264.589576 
L 312.21778 263.086364 
L 313.778619 263.048213 
L 315.339458 263.943652 
L 316.900297 261.170354 
L 318.461136 262.030158 
L 320.021976 263.518001 
L 321.582815 264.637113 
L 323.143654 262.770339 
L 324.704493 263.809612 
L 326.265332 263.773296 
L 327.826171 264.558361 
L 329.38701 263.450674 
L 330.94785 261.737459 
L 332.508689 263.356281 
L 334.069528 264.454652 
L 335.630367 264.385285 
L 337.191206 263.689785 
L 338.752045 264.341693 
L 340.312885 264.213229 
L 344.995402 264.505248 
L 346.556241 264.273755 
L 348.11708 264.167189 
L 349.67792 263.815392 
L 351.238759 262.75973 
L 352.799598 262.348292 
L 354.360437 263.611441 
L 355.921276 264.443091 
L 357.482115 264.39603 
L 359.042955 261.070385 
L 360.603794 264.52089 
L 362.164633 264.334348 
L 363.725472 264.548976 
L 365.286311 264.088098 
L 366.84715 264.472401 
L 368.40799 263.804511 
L 369.968829 264.531159 
L 371.529668 264.238936 
L 373.090507 264.49736 
L 376.212185 263.92019 
L 377.773024 263.939844 
L 379.333864 264.222954 
L 380.894703 261.565675 
L 382.455542 264.081093 
L 384.016381 264.185891 
L 385.57722 264.535987 
L 387.138059 264.642757 
L 388.698899 264.324556 
L 390.259738 264.327684 
L 391.820577 263.936783 
L 393.381416 264.415752 
L 394.942255 264.294089 
L 396.503094 264.289804 
L 398.063934 262.385083 
L 399.624773 264.398002 
L 399.624773 264.398002 
" style="fill:none;stroke:#2ca02c;stroke-linecap:square;stroke-width:1.5;"/>
   </g>
   <g id="line2d_17">
    <path clip-path="url(#pd78adbbf1e)" d="M 74.970227 264.5857 
L 76.531066 264.437174 
L 78.091906 264.447783 
L 79.652745 264.236827 
L 81.213584 264.222002 
L 82.774423 264.601409 
L 84.335262 264.619159 
L 85.896101 263.23421 
L 87.456941 264.231387 
L 89.01778 264.601069 
L 90.578619 264.631604 
L 92.139458 264.405687 
L 93.700297 263.724196 
L 95.261136 263.901964 
L 96.821976 262.689411 
L 98.382815 262.939743 
L 99.943654 263.702162 
L 101.504493 264.313947 
L 103.065332 263.640344 
L 104.626171 264.477978 
L 106.18701 264.086125 
L 107.74785 264.049946 
L 109.308689 264.300005 
L 110.869528 264.067832 
L 112.430367 264.565366 
L 113.991206 262.435748 
L 115.552045 264.155696 
L 117.112885 264.554077 
L 118.673724 263.04488 
L 120.234563 263.491206 
L 121.795402 264.427789 
L 124.91708 264.344685 
L 126.47792 262.13482 
L 128.038759 264.118972 
L 129.599598 264.204184 
L 131.160437 260.686013 
L 132.721276 260.588288 
L 134.282115 263.885643 
L 135.842955 263.614297 
L 137.403794 258.295251 
L 138.964633 264.425205 
L 140.525472 264.401743 
L 142.086311 263.162123 
L 143.64715 264.484166 
L 145.20799 264.302726 
L 146.768829 264.337613 
L 148.329668 263.869185 
L 149.890507 260.310754 
L 151.451346 264.217582 
L 153.012185 263.963442 
L 154.573024 264.479542 
L 156.133864 264.292525 
L 157.694703 264.531567 
L 159.255542 263.793358 
L 160.816381 262.728107 
L 162.37722 264.430577 
L 163.938059 264.334689 
L 165.498899 264.442887 
L 167.059738 263.49039 
L 168.620577 257.536776 
L 170.181416 264.144679 
L 171.742255 264.299053 
L 173.303094 264.287016 
L 174.863934 260.601617 
L 176.424773 264.615351 
L 177.985612 263.307793 
L 179.546451 263.748882 
L 181.10729 264.055727 
L 185.789808 263.795398 
L 187.350647 264.540068 
L 192.033164 263.87381 
L 193.594003 264.421601 
L 196.715682 263.375391 
L 198.276521 264.598077 
L 199.83736 264.315239 
L 201.398199 263.527589 
L 202.959038 264.568018 
L 204.519878 264.309254 
L 206.080717 263.664418 
L 207.641556 264.163449 
L 209.202395 264.233699 
L 210.763234 262.280693 
L 212.324073 264.168685 
L 213.884913 264.437514 
L 215.445752 264.249069 
L 217.006591 264.308982 
L 218.56743 264.246008 
L 220.128269 264.503208 
L 221.689108 264.187115 
L 223.249948 264.540136 
L 224.810787 262.545374 
L 226.371626 263.653129 
L 227.932465 264.283548 
L 229.493304 263.692913 
L 231.054143 260.065251 
L 232.614983 264.241044 
L 234.175822 264.211733 
L 235.736661 262.783056 
L 237.2975 264.392018 
L 238.858339 264.463424 
L 240.419178 264.106935 
L 241.980017 264.435202 
L 243.540857 264.078305 
L 245.101696 262.233361 
L 246.662535 264.514429 
L 248.223374 264.330608 
L 249.784213 264.481446 
L 251.345052 264.253285 
L 252.905892 264.510757 
L 254.466731 264.09211 
L 256.02757 264.575771 
L 257.588409 264.296877 
L 259.149248 262.98007 
L 260.710087 262.474715 
L 262.270927 263.718007 
L 263.831766 264.470293 
L 265.392605 264.307282 
L 266.953444 264.621811 
L 268.514283 263.773636 
L 270.075122 263.803491 
L 271.635962 264.190311 
L 273.196801 264.372432 
L 274.75764 264.351418 
L 276.318479 263.325747 
L 277.879318 263.771596 
L 279.440157 263.437141 
L 281.000997 264.320815 
L 284.122675 263.844567 
L 285.683514 264.141074 
L 287.244353 261.9257 
L 288.805192 264.432414 
L 290.366031 264.591616 
L 291.926871 264.279263 
L 293.48771 264.384945 
L 295.048549 264.339857 
L 296.609388 263.980376 
L 298.170227 261.112821 
L 299.731066 263.53099 
L 301.291906 264.224654 
L 302.852745 264.412624 
L 304.413584 263.430136 
L 305.974423 264.514021 
L 307.535262 263.567917 
L 309.096101 264.167053 
L 310.656941 264.310614 
L 312.21778 262.951168 
L 313.778619 263.981192 
L 315.339458 264.650034 
L 316.900297 263.393481 
L 318.461136 263.854224 
L 320.021976 263.920462 
L 321.582815 264.570466 
L 323.143654 262.71267 
L 324.704493 264.358491 
L 329.38701 264.519394 
L 330.94785 262.426091 
L 332.508689 264.078645 
L 334.069528 264.532859 
L 335.630367 264.109724 
L 337.191206 263.283923 
L 338.752045 264.392426 
L 341.873724 264.441866 
L 343.434563 264.200784 
L 348.11708 263.900672 
L 349.67792 262.111562 
L 351.238759 263.302828 
L 352.799598 262.454042 
L 354.360437 262.903291 
L 355.921276 264.378281 
L 357.482115 263.323502 
L 359.042955 261.795604 
L 360.603794 264.632012 
L 362.164633 263.502359 
L 363.725472 264.361823 
L 365.286311 263.337308 
L 366.84715 264.629564 
L 368.40799 264.212413 
L 369.968829 264.341353 
L 371.529668 263.969086 
L 373.090507 264.578015 
L 374.651346 264.106799 
L 376.212185 264.181402 
L 377.773024 264.484983 
L 379.333864 263.987924 
L 380.894703 264.206565 
L 382.455542 264.249817 
L 384.016381 263.628375 
L 385.57722 262.126455 
L 387.138059 264.507765 
L 388.698899 263.209592 
L 391.820577 264.380593 
L 393.381416 263.891083 
L 394.942255 264.35101 
L 396.503094 262.047704 
L 398.063934 263.868165 
L 399.624773 264.589848 
L 399.624773 264.589848 
" style="fill:none;stroke:#d62728;stroke-linecap:square;stroke-width:1.5;"/>
   </g>
   <g id="line2d_18">
    <path clip-path="url(#pd78adbbf1e)" d="M 74.970227 264.62834 
L 78.091906 263.98976 
L 79.652745 264.418744 
L 81.213584 263.799411 
L 82.774423 264.407863 
L 84.335262 264.640173 
L 87.456941 264.034305 
L 90.578619 264.535647 
L 93.700297 264.008666 
L 95.261136 264.379641 
L 96.821976 264.498924 
L 98.382815 264.068376 
L 99.943654 263.968678 
L 103.065332 264.362843 
L 106.18701 264.039745 
L 107.74785 264.071504 
L 109.308689 262.495321 
L 110.869528 264.497632 
L 112.430367 264.614739 
L 113.991206 264.430441 
L 115.552045 264.009346 
L 117.112885 264.496136 
L 118.673724 263.866057 
L 120.234563 264.461928 
L 121.795402 264.448871 
L 123.356241 264.621471 
L 128.038759 264.227307 
L 129.599598 264.537415 
L 131.160437 264.274707 
L 132.721276 262.419494 
L 134.282115 264.600525 
L 135.842955 263.259508 
L 137.403794 263.869933 
L 138.964633 264.195208 
L 140.525472 263.317926 
L 142.086311 263.858508 
L 145.20799 264.512933 
L 148.329668 264.377533 
L 149.890507 262.426159 
L 151.451346 264.543876 
L 153.012185 264.102651 
L 154.573024 263.904685 
L 157.694703 264.566862 
L 159.255542 264.174262 
L 160.816381 260.238871 
L 162.37722 264.287764 
L 163.938059 263.990849 
L 165.498899 264.561626 
L 167.059738 263.64592 
L 168.620577 255.060938 
L 170.181416 264.309186 
L 171.742255 264.139238 
L 173.303094 264.564346 
L 174.863934 259.257472 
L 176.424773 264.569378 
L 177.985612 263.858032 
L 179.546451 264.021383 
L 181.10729 263.620418 
L 182.668129 263.412251 
L 184.228969 264.496068 
L 185.789808 264.143659 
L 187.350647 264.595765 
L 188.911486 263.908425 
L 190.472325 264.337613 
L 192.033164 263.274402 
L 193.594003 264.533267 
L 195.154843 264.521502 
L 196.715682 263.669315 
L 198.276521 264.527282 
L 199.83736 263.962762 
L 201.398199 264.342237 
L 202.959038 264.451863 
L 204.519878 263.96827 
L 206.080717 264.227171 
L 209.202395 264.491307 
L 212.324073 263.871769 
L 213.884913 264.240364 
L 215.445752 263.824505 
L 217.006591 264.583048 
L 221.689108 264.466213 
L 223.249948 264.450707 
L 224.810787 263.965618 
L 226.371626 263.987652 
L 227.932465 264.453632 
L 229.493304 264.535647 
L 231.054143 261.430682 
L 232.614983 264.250429 
L 234.175822 263.594508 
L 235.736661 258.099392 
L 237.2975 264.52361 
L 238.858339 264.565434 
L 240.419178 263.657413 
L 241.980017 264.407251 
L 243.540857 263.139545 
L 245.101696 264.046954 
L 246.662535 264.625348 
L 249.784213 264.189835 
L 251.345052 264.361755 
L 252.905892 264.359647 
L 256.02757 264.570874 
L 257.588409 264.190923 
L 259.149248 263.432177 
L 260.710087 260.43711 
L 262.270927 264.210373 
L 263.831766 264.236011 
L 265.392605 263.834162 
L 266.953444 264.604538 
L 268.514283 264.297557 
L 270.075122 263.628919 
L 271.635962 264.094762 
L 273.196801 264.276543 
L 274.75764 264.035665 
L 276.318479 264.389026 
L 277.879318 264.323263 
L 279.440157 264.500148 
L 281.000997 264.150391 
L 282.561836 264.457916 
L 284.122675 264.266478 
L 285.683514 264.265866 
L 287.244353 263.171168 
L 288.805192 264.588896 
L 290.366031 264.367332 
L 291.926871 264.461452 
L 293.48771 264.222954 
L 295.048549 264.230435 
L 298.170227 264.497496 
L 299.731066 264.158552 
L 301.291906 264.185415 
L 302.852745 264.602973 
L 304.413584 263.997921 
L 307.535262 264.427925 
L 309.096101 263.941136 
L 310.656941 263.87789 
L 312.21778 264.210713 
L 313.778619 264.186911 
L 315.339458 264.428333 
L 316.900297 264.088302 
L 318.461136 264.400723 
L 320.021976 264.229279 
L 321.582815 264.271987 
L 323.143654 264.062663 
L 324.704493 264.372296 
L 326.265332 263.618582 
L 327.826171 264.423573 
L 329.38701 264.023288 
L 330.94785 263.170828 
L 332.508689 264.274299 
L 335.630367 264.395214 
L 337.191206 263.01965 
L 338.752045 264.44037 
L 340.312885 264.550813 
L 341.873724 264.250021 
L 343.434563 264.157056 
L 346.556241 264.524426 
L 348.11708 264.453904 
L 349.67792 263.682916 
L 351.238759 263.454891 
L 352.799598 264.370324 
L 355.921276 263.803423 
L 357.482115 264.266886 
L 359.042955 263.146958 
L 360.603794 264.460636 
L 366.84715 264.575227 
L 368.40799 264.154064 
L 369.968829 264.141619 
L 371.529668 264.445743 
L 373.090507 263.706038 
L 374.651346 264.324828 
L 377.773024 264.439486 
L 379.333864 264.383313 
L 380.894703 264.136586 
L 382.455542 264.412556 
L 384.016381 263.736981 
L 385.57722 264.303542 
L 387.138059 264.608754 
L 388.698899 264.336593 
L 390.259738 263.794786 
L 393.381416 264.554757 
L 394.942255 264.520414 
L 396.503094 264.296061 
L 398.063934 264.301841 
L 399.624773 264.619295 
L 399.624773 264.619295 
" style="fill:none;stroke:#9467bd;stroke-linecap:square;stroke-width:1.5;"/>
   </g>
   <g id="line2d_19">
    <path clip-path="url(#pd78adbbf1e)" d="M 74.970227 264.444451 
L 76.531066 264.105031 
L 79.652745 264.131418 
L 81.213584 264.057495 
L 82.774423 264.326596 
L 84.335262 264.326868 
L 85.896101 263.868573 
L 87.456941 263.797439 
L 89.01778 264.460772 
L 90.578619 264.5417 
L 92.139458 263.859188 
L 93.700297 264.2879 
L 95.261136 264.107479 
L 96.821976 263.758743 
L 98.382815 264.091158 
L 99.943654 263.819881 
L 101.504493 263.894416 
L 103.065332 264.252537 
L 107.74785 264.378961 
L 109.308689 264.033965 
L 112.430367 264.524086 
L 113.991206 264.160388 
L 115.552045 264.240432 
L 117.112885 264.569038 
L 118.673724 264.273075 
L 120.234563 264.273891 
L 123.356241 264.514429 
L 128.038759 264.134138 
L 129.599598 264.538571 
L 131.160437 264.26131 
L 132.721276 263.279638 
L 134.282115 264.544556 
L 135.842955 262.409089 
L 137.403794 264.245328 
L 138.964633 263.881698 
L 140.525472 264.164741 
L 142.086311 264.174602 
L 143.64715 263.599404 
L 145.20799 264.532043 
L 146.768829 264.544964 
L 148.329668 263.945896 
L 149.890507 263.621234 
L 151.451346 264.357743 
L 153.012185 264.029136 
L 154.573024 264.186639 
L 156.133864 264.524834 
L 157.694703 264.524562 
L 159.255542 264.299597 
L 160.816381 263.067799 
L 162.37722 264.43459 
L 165.498899 264.412216 
L 167.059738 264.101699 
L 168.620577 260.548232 
L 170.181416 264.381477 
L 171.742255 264.049062 
L 173.303094 264.514837 
L 174.863934 262.484916 
L 176.424773 264.56115 
L 177.985612 263.803763 
L 179.546451 263.892579 
L 181.10729 263.802947 
L 182.668129 263.476993 
L 184.228969 264.508173 
L 185.789808 262.945591 
L 187.350647 264.614671 
L 188.911486 264.118632 
L 192.033164 264.062119 
L 193.594003 264.457576 
L 195.154843 264.034577 
L 196.715682 264.168345 
L 198.276521 264.541496 
L 199.83736 263.973507 
L 201.398199 264.146175 
L 202.959038 263.957525 
L 204.519878 264.172561 
L 206.080717 264.159912 
L 207.641556 263.847967 
L 209.202395 264.519462 
L 210.763234 263.878774 
L 212.324073 263.734193 
L 213.884913 264.31245 
L 217.006591 264.530751 
L 218.56743 264.068172 
L 220.128269 263.854292 
L 221.689108 264.478046 
L 223.249948 264.554009 
L 224.810787 263.829674 
L 226.371626 264.008666 
L 227.932465 264.565706 
L 229.493304 264.588828 
L 231.054143 263.678087 
L 232.614983 264.395282 
L 235.736661 263.136077 
L 237.2975 264.374336 
L 238.858339 264.492871 
L 240.419178 263.151106 
L 241.980017 264.218942 
L 243.540857 260.971776 
L 245.101696 264.286812 
L 246.662535 264.41888 
L 248.223374 263.758199 
L 249.784213 264.346454 
L 251.345052 264.530751 
L 252.905892 263.819813 
L 254.466731 264.509465 
L 256.02757 264.557477 
L 259.149248 263.820425 
L 260.710087 263.726712 
L 262.270927 264.163925 
L 263.831766 264.309798 
L 265.392605 263.721271 
L 266.953444 264.535171 
L 268.514283 264.327956 
L 270.075122 264.465601 
L 271.635962 264.020295 
L 274.75764 264.060691 
L 276.318479 264.441118 
L 277.879318 264.171541 
L 279.440157 264.367876 
L 281.000997 264.424049 
L 282.561836 264.227851 
L 284.122675 264.344957 
L 285.683514 264.200308 
L 288.805192 264.500216 
L 290.366031 264.249341 
L 293.48771 264.355974 
L 295.048549 263.934879 
L 296.609388 264.559857 
L 298.170227 264.012951 
L 299.731066 264.185687 
L 301.291906 264.065587 
L 302.852745 264.355974 
L 305.974423 264.41786 
L 307.535262 264.155832 
L 310.656941 264.270491 
L 312.21778 263.650885 
L 313.778619 263.444962 
L 315.339458 264.17671 
L 316.900297 264.486411 
L 318.461136 263.830014 
L 321.582815 264.432754 
L 323.143654 263.849667 
L 324.704493 264.411196 
L 326.265332 264.521842 
L 327.826171 264.446015 
L 330.94785 263.759287 
L 332.508689 264.073884 
L 334.069528 264.249001 
L 335.630367 264.160048 
L 337.191206 263.883671 
L 338.752045 264.451115 
L 344.995402 264.30837 
L 346.556241 264.549793 
L 348.11708 264.525718 
L 351.238759 264.064499 
L 352.799598 264.28756 
L 354.360437 264.053074 
L 355.921276 264.350874 
L 357.482115 263.661766 
L 359.042955 263.379744 
L 360.603794 264.170861 
L 362.164633 263.915089 
L 363.725472 264.507561 
L 365.286311 264.364067 
L 366.84715 264.593113 
L 368.40799 264.260426 
L 371.529668 264.338225 
L 382.455542 264.512729 
L 384.016381 264.149031 
L 385.57722 264.150867 
L 387.138059 264.555233 
L 388.698899 264.357063 
L 391.820577 264.294769 
L 393.381416 264.529255 
L 394.942255 264.542992 
L 396.503094 264.254985 
L 399.624773 264.574547 
L 399.624773 264.574547 
" style="fill:none;stroke:#8c564b;stroke-linecap:square;stroke-width:1.5;"/>
   </g>
   <g id="line2d_20">
    <path clip-path="url(#pd78adbbf1e)" d="M 74.970227 264.514497 
L 76.531066 264.014243 
L 78.091906 264.362775 
L 79.652745 263.789958 
L 81.213584 264.246348 
L 82.774423 264.449415 
L 84.335262 264.258997 
L 85.896101 263.845451 
L 87.456941 263.920054 
L 89.01778 264.589304 
L 90.578619 264.511913 
L 92.139458 264.014515 
L 96.821976 264.050082 
L 98.382815 264.273551 
L 101.504493 264.294157 
L 103.065332 264.279195 
L 104.626171 263.870477 
L 106.18701 264.364203 
L 107.74785 264.58502 
L 109.308689 264.275931 
L 110.869528 264.486071 
L 112.430367 264.565366 
L 113.991206 264.00343 
L 115.552045 264.479338 
L 117.112885 264.590732 
L 118.673724 264.467641 
L 120.234563 264.556525 
L 121.795402 264.492803 
L 123.356241 264.559177 
L 126.47792 264.539388 
L 128.038759 264.223838 
L 129.599598 264.590732 
L 131.160437 264.376104 
L 132.721276 264.369712 
L 134.282115 264.592705 
L 135.842955 264.259065 
L 137.403794 264.162224 
L 140.525472 264.249817 
L 142.086311 264.129377 
L 143.64715 264.192487 
L 145.20799 264.589848 
L 146.768829 264.543944 
L 148.329668 264.249681 
L 151.451346 264.590324 
L 153.012185 264.150187 
L 154.573024 264.621131 
L 159.255542 264.604538 
L 160.816381 264.311838 
L 162.37722 264.519394 
L 163.938059 263.944536 
L 165.498899 264.343937 
L 167.059738 264.129649 
L 168.620577 262.267908 
L 170.181416 264.566794 
L 171.742255 264.365495 
L 173.303094 264.626164 
L 174.863934 263.243255 
L 176.424773 264.646906 
L 177.985612 264.173854 
L 179.546451 263.223193 
L 181.10729 264.175418 
L 182.668129 263.594576 
L 184.228969 264.474918 
L 185.789808 264.039813 
L 187.350647 264.589984 
L 188.911486 264.087486 
L 190.472325 264.472129 
L 192.033164 263.637352 
L 193.594003 264.492259 
L 195.154843 264.093946 
L 196.715682 264.108431 
L 198.276521 264.580939 
L 199.83736 264.061983 
L 204.519878 264.437038 
L 206.080717 264.293953 
L 209.202395 264.572983 
L 210.763234 264.267158 
L 212.324073 264.125161 
L 213.884913 264.551697 
L 215.445752 264.417316 
L 217.006591 264.619431 
L 220.128269 264.080617 
L 221.689108 264.604062 
L 223.249948 264.568562 
L 224.810787 261.785199 
L 226.371626 264.234039 
L 227.932465 264.544556 
L 229.493304 264.597805 
L 231.054143 264.279195 
L 232.614983 264.573867 
L 234.175822 264.60583 
L 235.736661 263.849259 
L 237.2975 264.524426 
L 238.858339 264.617935 
L 240.419178 264.372772 
L 241.980017 264.523066 
L 243.540857 264.011046 
L 246.662535 264.644117 
L 248.223374 264.535171 
L 249.784213 264.623239 
L 251.345052 264.573119 
L 252.905892 264.000505 
L 254.466731 264.618411 
L 257.588409 264.536735 
L 259.149248 264.097346 
L 260.710087 264.411808 
L 262.270927 264.409631 
L 263.831766 264.580735 
L 265.392605 264.398886 
L 266.953444 264.603518 
L 270.075122 264.444655 
L 271.635962 264.309798 
L 274.75764 264.523066 
L 281.000997 264.328296 
L 282.561836 264.41174 
L 284.122675 264.146175 
L 285.683514 264.567134 
L 287.244353 264.533471 
L 288.805192 264.617459 
L 290.366031 264.22445 
L 291.926871 264.466485 
L 293.48771 264.377805 
L 295.048549 263.956369 
L 296.609388 264.614127 
L 299.731066 264.081773 
L 301.291906 264.400383 
L 302.852745 264.602021 
L 304.413584 264.396234 
L 305.974423 264.362231 
L 309.096101 264.490015 
L 310.656941 264.259133 
L 313.778619 264.501916 
L 315.339458 264.31143 
L 316.900297 264.403919 
L 318.461136 263.879998 
L 320.021976 263.983028 
L 321.582815 264.472333 
L 323.143654 263.23217 
L 324.704493 264.162973 
L 326.265332 264.514021 
L 327.826171 264.579511 
L 329.38701 264.505384 
L 330.94785 264.301569 
L 332.508689 264.485119 
L 335.630367 264.390726 
L 337.191206 264.068308 
L 338.752045 264.540884 
L 340.312885 264.250021 
L 341.873724 264.342645 
L 343.434563 264.258453 
L 348.11708 264.601341 
L 349.67792 264.539728 
L 351.238759 264.267974 
L 352.799598 264.494571 
L 354.360437 264.228463 
L 355.921276 262.716954 
L 357.482115 263.825865 
L 359.042955 262.758302 
L 360.603794 264.41922 
L 363.725472 264.576043 
L 365.286311 264.41446 
L 366.84715 264.601953 
L 368.40799 264.391678 
L 369.968829 264.35169 
L 371.529668 264.485527 
L 374.651346 264.432414 
L 376.212185 264.226014 
L 379.333864 264.472809 
L 380.894703 264.435882 
L 382.455542 264.632624 
L 385.57722 264.501304 
L 387.138059 264.596173 
L 388.698899 264.271307 
L 390.259738 264.602225 
L 391.820577 264.391406 
L 393.381416 264.620451 
L 394.942255 264.633236 
L 396.503094 264.359443 
L 398.063934 264.596309 
L 399.624773 264.623103 
L 399.624773 264.623103 
" style="fill:none;stroke:#e377c2;stroke-linecap:square;stroke-width:1.5;"/>
   </g>
   <g id="line2d_21">
    <path clip-path="url(#pd78adbbf1e)" d="M 74.970227 264.604538 
L 76.531066 264.436086 
L 79.652745 264.500216 
L 82.774423 264.602021 
L 84.335262 264.311634 
L 85.896101 264.225062 
L 90.578619 264.585088 
L 92.139458 264.367196 
L 95.261136 264.545508 
L 98.382815 264.470429 
L 99.943654 264.520822 
L 101.504493 264.321087 
L 103.065332 264.404667 
L 106.18701 264.173854 
L 107.74785 264.550065 
L 110.869528 264.47519 
L 112.430367 264.613786 
L 113.991206 264.407523 
L 117.112885 264.620383 
L 118.673724 264.417996 
L 123.356241 264.605354 
L 129.599598 264.597057 
L 131.160437 264.387529 
L 134.282115 264.594201 
L 138.964633 264.179294 
L 140.525472 264.504704 
L 142.086311 264.382633 
L 146.768829 264.636841 
L 148.329668 264.47451 
L 151.451346 264.602565 
L 153.012185 264.442139 
L 156.133864 264.643437 
L 159.255542 264.625416 
L 160.816381 264.283412 
L 162.37722 264.52191 
L 163.938059 264.340605 
L 165.498899 264.549384 
L 167.059738 264.412352 
L 168.620577 260.647113 
L 170.181416 264.616099 
L 171.742255 264.437718 
L 173.303094 264.644253 
L 174.863934 264.126793 
L 176.424773 264.657379 
L 179.546451 264.181946 
L 182.668129 264.512797 
L 184.228969 264.617867 
L 185.789808 264.407591 
L 187.350647 264.651666 
L 188.911486 264.324556 
L 192.033164 264.342441 
L 193.594003 264.594745 
L 195.154843 264.265118 
L 198.276521 264.609026 
L 201.398199 264.402355 
L 212.324073 264.594473 
L 213.884913 264.362231 
L 215.445752 264.562034 
L 217.006591 264.629156 
L 218.56743 264.485051 
L 220.128269 264.211189 
L 221.689108 264.632964 
L 223.249948 264.641941 
L 224.810787 264.439282 
L 229.493304 264.616507 
L 231.054143 264.215473 
L 232.614983 264.635004 
L 234.175822 264.63004 
L 235.736661 264.248252 
L 237.2975 264.593045 
L 238.858339 264.65085 
L 240.419178 264.511505 
L 241.980017 264.638133 
L 245.101696 264.506609 
L 246.662535 264.655882 
L 248.223374 264.56421 
L 249.784213 264.644457 
L 252.905892 264.589848 
L 256.02757 264.600797 
L 257.588409 264.601409 
L 259.149248 264.410448 
L 266.953444 264.643913 
L 268.514283 264.502936 
L 270.075122 264.58196 
L 271.635962 264.453904 
L 285.683514 264.56591 
L 287.244353 264.485187 
L 288.805192 264.649762 
L 293.48771 264.445879 
L 296.609388 264.643097 
L 298.170227 264.451319 
L 299.731066 264.020567 
L 301.291906 264.45302 
L 302.852745 264.65561 
L 305.974423 264.490967 
L 312.21778 264.561898 
L 313.778619 264.548704 
L 315.339458 264.41888 
L 316.900297 264.510485 
L 318.461136 264.127405 
L 321.582815 264.575499 
L 323.143654 264.41106 
L 324.704493 264.559925 
L 327.826171 264.640921 
L 329.38701 264.409019 
L 332.508689 264.573935 
L 334.069528 264.41718 
L 335.630367 264.527826 
L 337.191206 264.286472 
L 338.752045 264.618207 
L 341.873724 264.525378 
L 343.434563 264.555029 
L 344.995402 264.454584 
L 346.556241 264.592909 
L 348.11708 264.616303 
L 349.67792 264.468797 
L 351.238759 264.550881 
L 352.799598 264.499944 
L 354.360437 264.213433 
L 355.921276 264.463493 
L 357.482115 263.779349 
L 359.042955 264.216426 
L 362.164633 264.514497 
L 363.725472 264.602021 
L 365.286311 264.444519 
L 366.84715 264.621471 
L 368.40799 264.497224 
L 369.968829 264.595153 
L 371.529668 264.488247 
L 373.090507 264.600593 
L 379.333864 264.536327 
L 385.57722 264.547684 
L 387.138059 264.642485 
L 390.259738 264.464785 
L 393.381416 264.629564 
L 398.063934 264.535511 
L 399.624773 264.613854 
L 399.624773 264.613854 
" style="fill:none;stroke:#7f7f7f;stroke-linecap:square;stroke-width:1.5;"/>
   </g>
   <g id="line2d_22">
    <path clip-path="url(#pd78adbbf1e)" d="M 74.970227 264.668736 
L 107.74785 264.665267 
L 341.873724 264.666423 
L 399.624773 264.666695 
L 399.624773 264.666695 
" style="fill:none;stroke:#bcbd22;stroke-linecap:square;stroke-width:1.5;"/>
   </g>
   <g id="line2d_23">
    <path clip-path="url(#pd78adbbf1e)" d="M 74.970227 264.668736 
L 109.308689 264.662615 
L 399.624773 264.662751 
L 399.624773 264.662751 
" style="fill:none;stroke:#17becf;stroke-linecap:square;stroke-width:1.5;"/>
   </g>
   <g id="line2d_24">
    <path clip-path="url(#pd78adbbf1e)" d="M 74.970227 264.660983 
L 399.624773 264.665131 
L 399.624773 264.665131 
" style="fill:none;stroke:#1f77b4;stroke-linecap:square;stroke-width:1.5;"/>
   </g>
   <g id="line2d_25">
    <path clip-path="url(#pd78adbbf1e)" d="M 74.970227 264.668736 
L 399.624773 264.668736 
L 399.624773 264.668736 
" style="fill:none;stroke:#ff7f0e;stroke-linecap:square;stroke-width:1.5;"/>
   </g>
   <g id="patch_3">
    <path d="M 58.7375 276.812 
L 58.7375 10.7 
" style="fill:none;stroke:#000000;stroke-linecap:square;stroke-linejoin:miter;stroke-width:0.8;"/>
   </g>
   <g id="patch_4">
    <path d="M 415.8575 276.812 
L 415.8575 10.7 
" style="fill:none;stroke:#000000;stroke-linecap:square;stroke-linejoin:miter;stroke-width:0.8;"/>
   </g>
   <g id="patch_5">
    <path d="M 58.7375 276.812 
L 415.8575 276.812 
" style="fill:none;stroke:#000000;stroke-linecap:square;stroke-linejoin:miter;stroke-width:0.8;"/>
   </g>
   <g id="patch_6">
    <path d="M 58.7375 10.7 
L 415.8575 10.7 
" style="fill:none;stroke:#000000;stroke-linecap:square;stroke-linejoin:miter;stroke-width:0.8;"/>
   </g>
   <g id="legend_1">
    <g id="patch_7">
     <path d="M 318.504375 165.48125 
L 408.8575 165.48125 
Q 410.8575 165.48125 410.8575 163.48125 
L 410.8575 17.7 
Q 410.8575 15.7 408.8575 15.7 
L 318.504375 15.7 
Q 316.504375 15.7 316.504375 17.7 
L 316.504375 163.48125 
Q 316.504375 165.48125 318.504375 165.48125 
z
" style="fill:#ffffff;opacity:0.8;stroke:#cccccc;stroke-linejoin:miter;"/>
    </g>
    <g id="line2d_26">
     <path d="M 320.504375 23.798437 
L 340.504375 23.798437 
" style="fill:none;stroke:#1f77b4;stroke-linecap:square;stroke-width:1.5;"/>
    </g>
    <g id="line2d_27"/>
    <g id="text_14">
     <!-- delta -->
     <defs>
      <path d="M 45.40625 46.390625 
L 45.40625 75.984375 
L 54.390625 75.984375 
L 54.390625 0 
L 45.40625 0 
L 45.40625 8.203125 
Q 42.578125 3.328125 38.25 0.953125 
Q 33.9375 -1.421875 27.875 -1.421875 
Q 17.96875 -1.421875 11.734375 6.484375 
Q 5.515625 14.40625 5.515625 27.296875 
Q 5.515625 40.1875 11.734375 48.09375 
Q 17.96875 56 27.875 56 
Q 33.9375 56 38.25 53.625 
Q 42.578125 51.265625 45.40625 46.390625 
M 14.796875 27.296875 
Q 14.796875 17.390625 18.875 11.75 
Q 22.953125 6.109375 30.078125 6.109375 
Q 37.203125 6.109375 41.296875 11.75 
Q 45.40625 17.390625 45.40625 27.296875 
Q 45.40625 37.203125 41.296875 42.84375 
Q 37.203125 48.484375 30.078125 48.484375 
Q 22.953125 48.484375 18.875 42.84375 
Q 14.796875 37.203125 14.796875 27.296875 
" id="DejaVuSans-64"/>
      <path d="M 56.203125 29.59375 
L 56.203125 25.203125 
L 14.890625 25.203125 
Q 15.484375 15.921875 20.484375 11.0625 
Q 25.484375 6.203125 34.421875 6.203125 
Q 39.59375 6.203125 44.453125 7.46875 
Q 49.3125 8.734375 54.109375 11.28125 
L 54.109375 2.78125 
Q 49.265625 0.734375 44.1875 -0.34375 
Q 39.109375 -1.421875 33.890625 -1.421875 
Q 20.796875 -1.421875 13.15625 6.1875 
Q 5.515625 13.8125 5.515625 26.8125 
Q 5.515625 40.234375 12.765625 48.109375 
Q 20.015625 56 32.328125 56 
Q 43.359375 56 49.78125 48.890625 
Q 56.203125 41.796875 56.203125 29.59375 
M 47.21875 32.234375 
Q 47.125 39.59375 43.09375 43.984375 
Q 39.0625 48.390625 32.421875 48.390625 
Q 24.90625 48.390625 20.390625 44.140625 
Q 15.875 39.890625 15.1875 32.171875 
z
" id="DejaVuSans-65"/>
      <path d="M 9.421875 75.984375 
L 18.40625 75.984375 
L 18.40625 0 
L 9.421875 0 
z
" id="DejaVuSans-6c"/>
      <path d="M 18.3125 70.21875 
L 18.3125 54.6875 
L 36.8125 54.6875 
L 36.8125 47.703125 
L 18.3125 47.703125 
L 18.3125 18.015625 
Q 18.3125 11.328125 20.140625 9.421875 
Q 21.96875 7.515625 27.59375 7.515625 
L 36.8125 7.515625 
L 36.8125 0 
L 27.59375 0 
Q 17.1875 0 13.234375 3.875 
Q 9.28125 7.765625 9.28125 18.015625 
L 9.28125 47.703125 
L 2.6875 47.703125 
L 2.6875 54.6875 
L 9.28125 54.6875 
L 9.28125 70.21875 
z
" id="DejaVuSans-74"/>
      <path d="M 34.28125 27.484375 
Q 23.390625 27.484375 19.1875 25 
Q 14.984375 22.515625 14.984375 16.5 
Q 14.984375 11.71875 18.140625 8.90625 
Q 21.296875 6.109375 26.703125 6.109375 
Q 34.1875 6.109375 38.703125 11.40625 
Q 43.21875 16.703125 43.21875 25.484375 
L 43.21875 27.484375 
z
M 52.203125 31.203125 
L 52.203125 0 
L 43.21875 0 
L 43.21875 8.296875 
Q 40.140625 3.328125 35.546875 0.953125 
Q 30.953125 -1.421875 24.3125 -1.421875 
Q 15.921875 -1.421875 10.953125 3.296875 
Q 6 8.015625 6 15.921875 
Q 6 25.140625 12.171875 29.828125 
Q 18.359375 34.515625 30.609375 34.515625 
L 43.21875 34.515625 
L 43.21875 35.40625 
Q 43.21875 41.609375 39.140625 45 
Q 35.0625 48.390625 27.6875 48.390625 
Q 23 48.390625 18.546875 47.265625 
Q 14.109375 46.140625 10.015625 43.890625 
L 10.015625 52.203125 
Q 14.9375 54.109375 19.578125 55.046875 
Q 24.21875 56 28.609375 56 
Q 40.484375 56 46.34375 49.84375 
Q 52.203125 43.703125 52.203125 31.203125 
" id="DejaVuSans-61"/>
     </defs>
     <g transform="translate(348.504375 27.298437)scale(0.1 -0.1)">
      <use xlink:href="#DejaVuSans-64"/>
      <use x="63.476562" xlink:href="#DejaVuSans-65"/>
      <use x="125" xlink:href="#DejaVuSans-6c"/>
      <use x="152.783203" xlink:href="#DejaVuSans-74"/>
      <use x="191.992188" xlink:href="#DejaVuSans-61"/>
     </g>
    </g>
    <g id="line2d_28">
     <path d="M 320.504375 38.476562 
L 340.504375 38.476562 
" style="fill:none;stroke:#ff7f0e;stroke-linecap:square;stroke-width:1.5;"/>
    </g>
    <g id="line2d_29"/>
    <g id="text_15">
     <!-- lowAlpha -->
     <defs>
      <path d="M 30.609375 48.390625 
Q 23.390625 48.390625 19.1875 42.75 
Q 14.984375 37.109375 14.984375 27.296875 
Q 14.984375 17.484375 19.15625 11.84375 
Q 23.34375 6.203125 30.609375 6.203125 
Q 37.796875 6.203125 41.984375 11.859375 
Q 46.1875 17.53125 46.1875 27.296875 
Q 46.1875 37.015625 41.984375 42.703125 
Q 37.796875 48.390625 30.609375 48.390625 
M 30.609375 56 
Q 42.328125 56 49.015625 48.375 
Q 55.71875 40.765625 55.71875 27.296875 
Q 55.71875 13.875 49.015625 6.21875 
Q 42.328125 -1.421875 30.609375 -1.421875 
Q 18.84375 -1.421875 12.171875 6.21875 
Q 5.515625 13.875 5.515625 27.296875 
Q 5.515625 40.765625 12.171875 48.375 
Q 18.84375 56 30.609375 56 
" id="DejaVuSans-6f"/>
      <path d="M 4.203125 54.6875 
L 13.1875 54.6875 
L 24.421875 12.015625 
L 35.59375 54.6875 
L 46.1875 54.6875 
L 57.421875 12.015625 
L 68.609375 54.6875 
L 77.59375 54.6875 
L 63.28125 0 
L 52.6875 0 
L 40.921875 44.828125 
L 29.109375 0 
L 18.5 0 
z
" id="DejaVuSans-77"/>
      <path d="M 34.1875 63.1875 
L 20.796875 26.90625 
L 47.609375 26.90625 
z
M 28.609375 72.90625 
L 39.796875 72.90625 
L 67.578125 0 
L 57.328125 0 
L 50.6875 18.703125 
L 17.828125 18.703125 
L 11.1875 0 
L 0.78125 0 
z
" id="DejaVuSans-41"/>
      <path d="M 18.109375 8.203125 
L 18.109375 -20.796875 
L 9.078125 -20.796875 
L 9.078125 54.6875 
L 18.109375 54.6875 
L 18.109375 46.390625 
Q 20.953125 51.265625 25.265625 53.625 
Q 29.59375 56 35.59375 56 
Q 45.5625 56 51.78125 48.09375 
Q 58.015625 40.1875 58.015625 27.296875 
Q 58.015625 14.40625 51.78125 6.484375 
Q 45.5625 -1.421875 35.59375 -1.421875 
Q 29.59375 -1.421875 25.265625 0.953125 
Q 20.953125 3.328125 18.109375 8.203125 
M 48.6875 27.296875 
Q 48.6875 37.203125 44.609375 42.84375 
Q 40.53125 48.484375 33.40625 48.484375 
Q 26.265625 48.484375 22.1875 42.84375 
Q 18.109375 37.203125 18.109375 27.296875 
Q 18.109375 17.390625 22.1875 11.75 
Q 26.265625 6.109375 33.40625 6.109375 
Q 40.53125 6.109375 44.609375 11.75 
Q 48.6875 17.390625 48.6875 27.296875 
" id="DejaVuSans-70"/>
      <path d="M 54.890625 33.015625 
L 54.890625 0 
L 45.90625 0 
L 45.90625 32.71875 
Q 45.90625 40.484375 42.875 44.328125 
Q 39.84375 48.1875 33.796875 48.1875 
Q 26.515625 48.1875 22.3125 43.546875 
Q 18.109375 38.921875 18.109375 30.90625 
L 18.109375 0 
L 9.078125 0 
L 9.078125 75.984375 
L 18.109375 75.984375 
L 18.109375 46.1875 
Q 21.34375 51.125 25.703125 53.5625 
Q 30.078125 56 35.796875 56 
Q 45.21875 56 50.046875 50.171875 
Q 54.890625 44.34375 54.890625 33.015625 
" id="DejaVuSans-68"/>
     </defs>
     <g transform="translate(348.504375 41.976562)scale(0.1 -0.1)">
      <use xlink:href="#DejaVuSans-6c"/>
      <use x="27.783203" xlink:href="#DejaVuSans-6f"/>
      <use x="88.964844" xlink:href="#DejaVuSans-77"/>
      <use x="170.751953" xlink:href="#DejaVuSans-41"/>
      <use x="239.160156" xlink:href="#DejaVuSans-6c"/>
      <use x="266.943359" xlink:href="#DejaVuSans-70"/>
      <use x="330.419922" xlink:href="#DejaVuSans-68"/>
      <use x="393.798828" xlink:href="#DejaVuSans-61"/>
     </g>
    </g>
    <g id="line2d_30">
     <path d="M 320.504375 53.154687 
L 340.504375 53.154687 
" style="fill:none;stroke:#2ca02c;stroke-linecap:square;stroke-width:1.5;"/>
    </g>
    <g id="line2d_31"/>
    <g id="text_16">
     <!-- highAlpha -->
     <defs>
      <path d="M 9.421875 54.6875 
L 18.40625 54.6875 
L 18.40625 0 
L 9.421875 0 
z
M 9.421875 75.984375 
L 18.40625 75.984375 
L 18.40625 64.59375 
L 9.421875 64.59375 
z
" id="DejaVuSans-69"/>
      <path d="M 45.40625 27.984375 
Q 45.40625 37.75 41.375 43.109375 
Q 37.359375 48.484375 30.078125 48.484375 
Q 22.859375 48.484375 18.828125 43.109375 
Q 14.796875 37.75 14.796875 27.984375 
Q 14.796875 18.265625 18.828125 12.890625 
Q 22.859375 7.515625 30.078125 7.515625 
Q 37.359375 7.515625 41.375 12.890625 
Q 45.40625 18.265625 45.40625 27.984375 
M 54.390625 6.78125 
Q 54.390625 -7.171875 48.1875 -13.984375 
Q 42 -20.796875 29.203125 -20.796875 
Q 24.46875 -20.796875 20.265625 -20.09375 
Q 16.0625 -19.390625 12.109375 -17.921875 
L 12.109375 -9.1875 
Q 16.0625 -11.328125 19.921875 -12.34375 
Q 23.78125 -13.375 27.78125 -13.375 
Q 36.625 -13.375 41.015625 -8.765625 
Q 45.40625 -4.15625 45.40625 5.171875 
L 45.40625 9.625 
Q 42.625 4.78125 38.28125 2.390625 
Q 33.9375 0 27.875 0 
Q 17.828125 0 11.671875 7.65625 
Q 5.515625 15.328125 5.515625 27.984375 
Q 5.515625 40.671875 11.671875 48.328125 
Q 17.828125 56 27.875 56 
Q 33.9375 56 38.28125 53.609375 
Q 42.625 51.21875 45.40625 46.390625 
L 45.40625 54.6875 
L 54.390625 54.6875 
z
" id="DejaVuSans-67"/>
     </defs>
     <g transform="translate(348.504375 56.654687)scale(0.1 -0.1)">
      <use xlink:href="#DejaVuSans-68"/>
      <use x="63.378906" xlink:href="#DejaVuSans-69"/>
      <use x="91.162109" xlink:href="#DejaVuSans-67"/>
      <use x="154.638672" xlink:href="#DejaVuSans-68"/>
      <use x="218.017578" xlink:href="#DejaVuSans-41"/>
      <use x="286.425781" xlink:href="#DejaVuSans-6c"/>
      <use x="314.208984" xlink:href="#DejaVuSans-70"/>
      <use x="377.685547" xlink:href="#DejaVuSans-68"/>
      <use x="441.064453" xlink:href="#DejaVuSans-61"/>
     </g>
    </g>
    <g id="line2d_32">
     <path d="M 320.504375 67.832812 
L 340.504375 67.832812 
" style="fill:none;stroke:#d62728;stroke-linecap:square;stroke-width:1.5;"/>
    </g>
    <g id="line2d_33"/>
    <g id="text_17">
     <!-- lowBeta -->
     <defs>
      <path d="M 19.671875 34.8125 
L 19.671875 8.109375 
L 35.5 8.109375 
Q 43.453125 8.109375 47.28125 11.40625 
Q 51.125 14.703125 51.125 21.484375 
Q 51.125 28.328125 47.28125 31.5625 
Q 43.453125 34.8125 35.5 34.8125 
z
M 19.671875 64.796875 
L 19.671875 42.828125 
L 34.28125 42.828125 
Q 41.5 42.828125 45.03125 45.53125 
Q 48.578125 48.25 48.578125 53.8125 
Q 48.578125 59.328125 45.03125 62.0625 
Q 41.5 64.796875 34.28125 64.796875 
z
M 9.8125 72.90625 
L 35.015625 72.90625 
Q 46.296875 72.90625 52.390625 68.21875 
Q 58.5 63.53125 58.5 54.890625 
Q 58.5 48.1875 55.375 44.234375 
Q 52.25 40.28125 46.1875 39.3125 
Q 53.46875 37.75 57.5 32.78125 
Q 61.53125 27.828125 61.53125 20.40625 
Q 61.53125 10.640625 54.890625 5.3125 
Q 48.25 0 35.984375 0 
L 9.8125 0 
z
" id="DejaVuSans-42"/>
     </defs>
     <g transform="translate(348.504375 71.332812)scale(0.1 -0.1)">
      <use xlink:href="#DejaVuSans-6c"/>
      <use x="27.783203" xlink:href="#DejaVuSans-6f"/>
      <use x="88.964844" xlink:href="#DejaVuSans-77"/>
      <use x="170.751953" xlink:href="#DejaVuSans-42"/>
      <use x="239.355469" xlink:href="#DejaVuSans-65"/>
      <use x="300.878906" xlink:href="#DejaVuSans-74"/>
      <use x="340.087891" xlink:href="#DejaVuSans-61"/>
     </g>
    </g>
    <g id="line2d_34">
     <path d="M 320.504375 82.510938 
L 340.504375 82.510938 
" style="fill:none;stroke:#9467bd;stroke-linecap:square;stroke-width:1.5;"/>
    </g>
    <g id="line2d_35"/>
    <g id="text_18">
     <!-- highBeta -->
     <g transform="translate(348.504375 86.010938)scale(0.1 -0.1)">
      <use xlink:href="#DejaVuSans-68"/>
      <use x="63.378906" xlink:href="#DejaVuSans-69"/>
      <use x="91.162109" xlink:href="#DejaVuSans-67"/>
      <use x="154.638672" xlink:href="#DejaVuSans-68"/>
      <use x="218.017578" xlink:href="#DejaVuSans-42"/>
      <use x="286.621094" xlink:href="#DejaVuSans-65"/>
      <use x="348.144531" xlink:href="#DejaVuSans-74"/>
      <use x="387.353516" xlink:href="#DejaVuSans-61"/>
     </g>
    </g>
    <g id="line2d_36">
     <path d="M 320.504375 97.189062 
L 340.504375 97.189062 
" style="fill:none;stroke:#8c564b;stroke-linecap:square;stroke-width:1.5;"/>
    </g>
    <g id="line2d_37"/>
    <g id="text_19">
     <!-- lowGamma -->
     <defs>
      <path d="M 59.515625 10.40625 
L 59.515625 29.984375 
L 43.40625 29.984375 
L 43.40625 38.09375 
L 69.28125 38.09375 
L 69.28125 6.78125 
Q 63.578125 2.734375 56.6875 0.65625 
Q 49.8125 -1.421875 42 -1.421875 
Q 24.90625 -1.421875 15.25 8.5625 
Q 5.609375 18.5625 5.609375 36.375 
Q 5.609375 54.25 15.25 64.234375 
Q 24.90625 74.21875 42 74.21875 
Q 49.125 74.21875 55.546875 72.453125 
Q 61.96875 70.703125 67.390625 67.28125 
L 67.390625 56.78125 
Q 61.921875 61.421875 55.765625 63.765625 
Q 49.609375 66.109375 42.828125 66.109375 
Q 29.4375 66.109375 22.71875 58.640625 
Q 16.015625 51.171875 16.015625 36.375 
Q 16.015625 21.625 22.71875 14.15625 
Q 29.4375 6.6875 42.828125 6.6875 
Q 48.046875 6.6875 52.140625 7.59375 
Q 56.25 8.5 59.515625 10.40625 
" id="DejaVuSans-47"/>
      <path d="M 52 44.1875 
Q 55.375 50.25 60.0625 53.125 
Q 64.75 56 71.09375 56 
Q 79.640625 56 84.28125 50.015625 
Q 88.921875 44.046875 88.921875 33.015625 
L 88.921875 0 
L 79.890625 0 
L 79.890625 32.71875 
Q 79.890625 40.578125 77.09375 44.375 
Q 74.3125 48.1875 68.609375 48.1875 
Q 61.625 48.1875 57.5625 43.546875 
Q 53.515625 38.921875 53.515625 30.90625 
L 53.515625 0 
L 44.484375 0 
L 44.484375 32.71875 
Q 44.484375 40.625 41.703125 44.40625 
Q 38.921875 48.1875 33.109375 48.1875 
Q 26.21875 48.1875 22.15625 43.53125 
Q 18.109375 38.875 18.109375 30.90625 
L 18.109375 0 
L 9.078125 0 
L 9.078125 54.6875 
L 18.109375 54.6875 
L 18.109375 46.1875 
Q 21.1875 51.21875 25.484375 53.609375 
Q 29.78125 56 35.6875 56 
Q 41.65625 56 45.828125 52.96875 
Q 50 49.953125 52 44.1875 
" id="DejaVuSans-6d"/>
     </defs>
     <g transform="translate(348.504375 100.689062)scale(0.1 -0.1)">
      <use xlink:href="#DejaVuSans-6c"/>
      <use x="27.783203" xlink:href="#DejaVuSans-6f"/>
      <use x="88.964844" xlink:href="#DejaVuSans-77"/>
      <use x="170.751953" xlink:href="#DejaVuSans-47"/>
      <use x="248.242188" xlink:href="#DejaVuSans-61"/>
      <use x="309.521484" xlink:href="#DejaVuSans-6d"/>
      <use x="406.933594" xlink:href="#DejaVuSans-6d"/>
      <use x="504.345703" xlink:href="#DejaVuSans-61"/>
     </g>
    </g>
    <g id="line2d_38">
     <path d="M 320.504375 111.867188 
L 340.504375 111.867188 
" style="fill:none;stroke:#e377c2;stroke-linecap:square;stroke-width:1.5;"/>
    </g>
    <g id="line2d_39"/>
    <g id="text_20">
     <!-- midGamma -->
     <g transform="translate(348.504375 115.367188)scale(0.1 -0.1)">
      <use xlink:href="#DejaVuSans-6d"/>
      <use x="97.412109" xlink:href="#DejaVuSans-69"/>
      <use x="125.195312" xlink:href="#DejaVuSans-64"/>
      <use x="188.671875" xlink:href="#DejaVuSans-47"/>
      <use x="266.162109" xlink:href="#DejaVuSans-61"/>
      <use x="327.441406" xlink:href="#DejaVuSans-6d"/>
      <use x="424.853516" xlink:href="#DejaVuSans-6d"/>
      <use x="522.265625" xlink:href="#DejaVuSans-61"/>
     </g>
    </g>
    <g id="line2d_40">
     <path d="M 320.504375 126.545312 
L 340.504375 126.545312 
" style="fill:none;stroke:#7f7f7f;stroke-linecap:square;stroke-width:1.5;"/>
    </g>
    <g id="line2d_41"/>
    <g id="text_21">
     <!-- attention -->
     <defs>
      <path d="M 54.890625 33.015625 
L 54.890625 0 
L 45.90625 0 
L 45.90625 32.71875 
Q 45.90625 40.484375 42.875 44.328125 
Q 39.84375 48.1875 33.796875 48.1875 
Q 26.515625 48.1875 22.3125 43.546875 
Q 18.109375 38.921875 18.109375 30.90625 
L 18.109375 0 
L 9.078125 0 
L 9.078125 54.6875 
L 18.109375 54.6875 
L 18.109375 46.1875 
Q 21.34375 51.125 25.703125 53.5625 
Q 30.078125 56 35.796875 56 
Q 45.21875 56 50.046875 50.171875 
Q 54.890625 44.34375 54.890625 33.015625 
" id="DejaVuSans-6e"/>
     </defs>
     <g transform="translate(348.504375 130.045312)scale(0.1 -0.1)">
      <use xlink:href="#DejaVuSans-61"/>
      <use x="61.279297" xlink:href="#DejaVuSans-74"/>
      <use x="100.488281" xlink:href="#DejaVuSans-74"/>
      <use x="139.697266" xlink:href="#DejaVuSans-65"/>
      <use x="201.220703" xlink:href="#DejaVuSans-6e"/>
      <use x="264.599609" xlink:href="#DejaVuSans-74"/>
      <use x="303.808594" xlink:href="#DejaVuSans-69"/>
      <use x="331.591797" xlink:href="#DejaVuSans-6f"/>
      <use x="392.773438" xlink:href="#DejaVuSans-6e"/>
     </g>
    </g>
    <g id="line2d_42">
     <path d="M 320.504375 141.223437 
L 340.504375 141.223437 
" style="fill:none;stroke:#bcbd22;stroke-linecap:square;stroke-width:1.5;"/>
    </g>
    <g id="line2d_43"/>
    <g id="text_22">
     <!-- meditation -->
     <g transform="translate(348.504375 144.723437)scale(0.1 -0.1)">
      <use xlink:href="#DejaVuSans-6d"/>
      <use x="97.412109" xlink:href="#DejaVuSans-65"/>
      <use x="158.935547" xlink:href="#DejaVuSans-64"/>
      <use x="222.412109" xlink:href="#DejaVuSans-69"/>
      <use x="250.195312" xlink:href="#DejaVuSans-74"/>
      <use x="289.404297" xlink:href="#DejaVuSans-61"/>
      <use x="350.683594" xlink:href="#DejaVuSans-74"/>
      <use x="389.892578" xlink:href="#DejaVuSans-69"/>
      <use x="417.675781" xlink:href="#DejaVuSans-6f"/>
      <use x="478.857422" xlink:href="#DejaVuSans-6e"/>
     </g>
    </g>
    <g id="line2d_44">
     <path d="M 320.504375 155.901562 
L 340.504375 155.901562 
" style="fill:none;stroke:#17becf;stroke-linecap:square;stroke-width:1.5;"/>
    </g>
    <g id="line2d_45"/>
    <g id="text_23">
     <!-- rawValue -->
     <defs>
      <path d="M 41.109375 46.296875 
Q 39.59375 47.171875 37.8125 47.578125 
Q 36.03125 48 33.890625 48 
Q 26.265625 48 22.1875 43.046875 
Q 18.109375 38.09375 18.109375 28.8125 
L 18.109375 0 
L 9.078125 0 
L 9.078125 54.6875 
L 18.109375 54.6875 
L 18.109375 46.1875 
Q 20.953125 51.171875 25.484375 53.578125 
Q 30.03125 56 36.53125 56 
Q 37.453125 56 38.578125 55.875 
Q 39.703125 55.765625 41.0625 55.515625 
z
" id="DejaVuSans-72"/>
      <path d="M 28.609375 0 
L 0.78125 72.90625 
L 11.078125 72.90625 
L 34.1875 11.53125 
L 57.328125 72.90625 
L 67.578125 72.90625 
L 39.796875 0 
z
" id="DejaVuSans-56"/>
      <path d="M 8.5 21.578125 
L 8.5 54.6875 
L 17.484375 54.6875 
L 17.484375 21.921875 
Q 17.484375 14.15625 20.5 10.265625 
Q 23.53125 6.390625 29.59375 6.390625 
Q 36.859375 6.390625 41.078125 11.03125 
Q 45.3125 15.671875 45.3125 23.6875 
L 45.3125 54.6875 
L 54.296875 54.6875 
L 54.296875 0 
L 45.3125 0 
L 45.3125 8.40625 
Q 42.046875 3.421875 37.71875 1 
Q 33.40625 -1.421875 27.6875 -1.421875 
Q 18.265625 -1.421875 13.375 4.4375 
Q 8.5 10.296875 8.5 21.578125 
M 31.109375 56 
z
" id="DejaVuSans-75"/>
     </defs>
     <g transform="translate(348.504375 159.401562)scale(0.1 -0.1)">
      <use xlink:href="#DejaVuSans-72"/>
      <use x="41.113281" xlink:href="#DejaVuSans-61"/>
      <use x="102.392578" xlink:href="#DejaVuSans-77"/>
      <use x="184.179688" xlink:href="#DejaVuSans-56"/>
      <use x="252.478516" xlink:href="#DejaVuSans-61"/>
      <use x="313.757812" xlink:href="#DejaVuSans-6c"/>
      <use x="341.541016" xlink:href="#DejaVuSans-75"/>
      <use x="404.919922" xlink:href="#DejaVuSans-65"/>
     </g>
    </g>
   </g>
  </g>
 </g>
 <defs>
  <clipPath id="pd78adbbf1e">
   <rect height="266.112" width="357.12" x="58.7375" y="10.7"/>
  </clipPath>
 </defs>
</svg>
