<?xml version="1.0" encoding="utf-8" standalone="no"?>
<!DOCTYPE svg PUBLIC "-//W3C//DTD SVG 1.1//EN"
  "http://www.w3.org/Graphics/SVG/1.1/DTD/svg11.dtd">
<!-- Created with matplotlib (http://matplotlib.org/) -->
<svg height="300pt" version="1.1" viewBox="0 0 426 300" width="426pt" xmlns="http://www.w3.org/2000/svg" xmlns:xlink="http://www.w3.org/1999/xlink">
 <defs>
  <style type="text/css">
*{stroke-linecap:butt;stroke-linejoin:round;}
  </style>
 </defs>
 <g id="figure_1">
  <g id="patch_1">
   <path d="M 0 300.690125 
L 426.5575 300.690125 
L 426.5575 0 
L 0 0 
z
" style="fill:#ffffff;"/>
  </g>
  <g id="axes_1">
   <g id="patch_2">
    <path d="M 58.7375 276.812 
L 415.8575 276.812 
L 415.8575 10.7 
L 58.7375 10.7 
z
" style="fill:#ffffff;"/>
   </g>
   <g id="matplotlib.axis_1">
    <g id="xtick_1">
     <g id="line2d_1">
      <defs>
       <path d="M 0 0 
L 0 3.5 
" id="m9e269a3d8b" style="stroke:#000000;stroke-width:0.8;"/>
      </defs>
      <g>
       <use style="stroke:#000000;stroke-width:0.8;" x="74.970227" xlink:href="#m9e269a3d8b" y="276.812"/>
      </g>
     </g>
     <g id="text_1">
      <!-- 0 -->
      <defs>
       <path d="M 31.78125 66.40625 
Q 24.171875 66.40625 20.328125 58.90625 
Q 16.5 51.421875 16.5 36.375 
Q 16.5 21.390625 20.328125 13.890625 
Q 24.171875 6.390625 31.78125 6.390625 
Q 39.453125 6.390625 43.28125 13.890625 
Q 47.125 21.390625 47.125 36.375 
Q 47.125 51.421875 43.28125 58.90625 
Q 39.453125 66.40625 31.78125 66.40625 
z
M 31.78125 74.21875 
Q 44.046875 74.21875 50.515625 64.515625 
Q 56.984375 54.828125 56.984375 36.375 
Q 56.984375 17.96875 50.515625 8.265625 
Q 44.046875 -1.421875 31.78125 -1.421875 
Q 19.53125 -1.421875 13.0625 8.265625 
Q 6.59375 17.96875 6.59375 36.375 
Q 6.59375 54.828125 13.0625 64.515625 
Q 19.53125 74.21875 31.78125 74.21875 
z
" id="DejaVuSans-30"/>
      </defs>
      <g transform="translate(71.788977 291.410437)scale(0.1 -0.1)">
       <use xlink:href="#DejaVuSans-30"/>
      </g>
     </g>
    </g>
    <g id="xtick_2">
     <g id="line2d_2">
      <g>
       <use style="stroke:#000000;stroke-width:0.8;" x="115.961963" xlink:href="#m9e269a3d8b" y="276.812"/>
      </g>
     </g>
     <g id="text_2">
      <!-- 25 -->
      <defs>
       <path d="M 19.1875 8.296875 
L 53.609375 8.296875 
L 53.609375 0 
L 7.328125 0 
L 7.328125 8.296875 
Q 12.9375 14.109375 22.625 23.890625 
Q 32.328125 33.6875 34.8125 36.53125 
Q 39.546875 41.84375 41.421875 45.53125 
Q 43.3125 49.21875 43.3125 52.78125 
Q 43.3125 58.59375 39.234375 62.25 
Q 35.15625 65.921875 28.609375 65.921875 
Q 23.96875 65.921875 18.8125 64.3125 
Q 13.671875 62.703125 7.8125 59.421875 
L 7.8125 69.390625 
Q 13.765625 71.78125 18.9375 73 
Q 24.125 74.21875 28.421875 74.21875 
Q 39.75 74.21875 46.484375 68.546875 
Q 53.21875 62.890625 53.21875 53.421875 
Q 53.21875 48.921875 51.53125 44.890625 
Q 49.859375 40.875 45.40625 35.40625 
Q 44.1875 33.984375 37.640625 27.21875 
Q 31.109375 20.453125 19.1875 8.296875 
z
" id="DejaVuSans-32"/>
       <path d="M 10.796875 72.90625 
L 49.515625 72.90625 
L 49.515625 64.59375 
L 19.828125 64.59375 
L 19.828125 46.734375 
Q 21.96875 47.46875 24.109375 47.828125 
Q 26.265625 48.1875 28.421875 48.1875 
Q 40.625 48.1875 47.75 41.5 
Q 54.890625 34.8125 54.890625 23.390625 
Q 54.890625 11.625 47.5625 5.09375 
Q 40.234375 -1.421875 26.90625 -1.421875 
Q 22.3125 -1.421875 17.546875 -0.640625 
Q 12.796875 0.140625 7.71875 1.703125 
L 7.71875 11.625 
Q 12.109375 9.234375 16.796875 8.0625 
Q 21.484375 6.890625 26.703125 6.890625 
Q 35.15625 6.890625 40.078125 11.328125 
Q 45.015625 15.765625 45.015625 23.390625 
Q 45.015625 31 40.078125 35.4375 
Q 35.15625 39.890625 26.703125 39.890625 
Q 22.75 39.890625 18.8125 39.015625 
Q 14.890625 38.140625 10.796875 36.28125 
z
" id="DejaVuSans-35"/>
      </defs>
      <g transform="translate(109.599463 291.410437)scale(0.1 -0.1)">
       <use xlink:href="#DejaVuSans-32"/>
       <use x="63.623047" xlink:href="#DejaVuSans-35"/>
      </g>
     </g>
    </g>
    <g id="xtick_3">
     <g id="line2d_3">
      <g>
       <use style="stroke:#000000;stroke-width:0.8;" x="156.953698" xlink:href="#m9e269a3d8b" y="276.812"/>
      </g>
     </g>
     <g id="text_3">
      <!-- 50 -->
      <g transform="translate(150.591198 291.410437)scale(0.1 -0.1)">
       <use xlink:href="#DejaVuSans-35"/>
       <use x="63.623047" xlink:href="#DejaVuSans-30"/>
      </g>
     </g>
    </g>
    <g id="xtick_4">
     <g id="line2d_4">
      <g>
       <use style="stroke:#000000;stroke-width:0.8;" x="197.945434" xlink:href="#m9e269a3d8b" y="276.812"/>
      </g>
     </g>
     <g id="text_4">
      <!-- 75 -->
      <defs>
       <path d="M 8.203125 72.90625 
L 55.078125 72.90625 
L 55.078125 68.703125 
L 28.609375 0 
L 18.3125 0 
L 43.21875 64.59375 
L 8.203125 64.59375 
z
" id="DejaVuSans-37"/>
      </defs>
      <g transform="translate(191.582934 291.410437)scale(0.1 -0.1)">
       <use xlink:href="#DejaVuSans-37"/>
       <use x="63.623047" xlink:href="#DejaVuSans-35"/>
      </g>
     </g>
    </g>
    <g id="xtick_5">
     <g id="line2d_5">
      <g>
       <use style="stroke:#000000;stroke-width:0.8;" x="238.937169" xlink:href="#m9e269a3d8b" y="276.812"/>
      </g>
     </g>
     <g id="text_5">
      <!-- 100 -->
      <defs>
       <path d="M 12.40625 8.296875 
L 28.515625 8.296875 
L 28.515625 63.921875 
L 10.984375 60.40625 
L 10.984375 69.390625 
L 28.421875 72.90625 
L 38.28125 72.90625 
L 38.28125 8.296875 
L 54.390625 8.296875 
L 54.390625 0 
L 12.40625 0 
z
" id="DejaVuSans-31"/>
      </defs>
      <g transform="translate(229.393419 291.410437)scale(0.1 -0.1)">
       <use xlink:href="#DejaVuSans-31"/>
       <use x="63.623047" xlink:href="#DejaVuSans-30"/>
       <use x="127.246094" xlink:href="#DejaVuSans-30"/>
      </g>
     </g>
    </g>
    <g id="xtick_6">
     <g id="line2d_6">
      <g>
       <use style="stroke:#000000;stroke-width:0.8;" x="279.928905" xlink:href="#m9e269a3d8b" y="276.812"/>
      </g>
     </g>
     <g id="text_6">
      <!-- 125 -->
      <g transform="translate(270.385155 291.410437)scale(0.1 -0.1)">
       <use xlink:href="#DejaVuSans-31"/>
       <use x="63.623047" xlink:href="#DejaVuSans-32"/>
       <use x="127.246094" xlink:href="#DejaVuSans-35"/>
      </g>
     </g>
    </g>
    <g id="xtick_7">
     <g id="line2d_7">
      <g>
       <use style="stroke:#000000;stroke-width:0.8;" x="320.92064" xlink:href="#m9e269a3d8b" y="276.812"/>
      </g>
     </g>
     <g id="text_7">
      <!-- 150 -->
      <g transform="translate(311.37689 291.410437)scale(0.1 -0.1)">
       <use xlink:href="#DejaVuSans-31"/>
       <use x="63.623047" xlink:href="#DejaVuSans-35"/>
       <use x="127.246094" xlink:href="#DejaVuSans-30"/>
      </g>
     </g>
    </g>
    <g id="xtick_8">
     <g id="line2d_8">
      <g>
       <use style="stroke:#000000;stroke-width:0.8;" x="361.912376" xlink:href="#m9e269a3d8b" y="276.812"/>
      </g>
     </g>
     <g id="text_8">
      <!-- 175 -->
      <g transform="translate(352.368626 291.410437)scale(0.1 -0.1)">
       <use xlink:href="#DejaVuSans-31"/>
       <use x="63.623047" xlink:href="#DejaVuSans-37"/>
       <use x="127.246094" xlink:href="#DejaVuSans-35"/>
      </g>
     </g>
    </g>
    <g id="xtick_9">
     <g id="line2d_9">
      <g>
       <use style="stroke:#000000;stroke-width:0.8;" x="402.904112" xlink:href="#m9e269a3d8b" y="276.812"/>
      </g>
     </g>
     <g id="text_9">
      <!-- 200 -->
      <g transform="translate(393.360362 291.410437)scale(0.1 -0.1)">
       <use xlink:href="#DejaVuSans-32"/>
       <use x="63.623047" xlink:href="#DejaVuSans-30"/>
       <use x="127.246094" xlink:href="#DejaVuSans-30"/>
      </g>
     </g>
    </g>
   </g>
   <g id="matplotlib.axis_2">
    <g id="ytick_1">
     <g id="line2d_10">
      <defs>
       <path d="M 0 0 
L -3.5 0 
" id="m32eb4ac53e" style="stroke:#000000;stroke-width:0.8;"/>
      </defs>
      <g>
       <use style="stroke:#000000;stroke-width:0.8;" x="58.7375" xlink:href="#m32eb4ac53e" y="264.716295"/>
      </g>
     </g>
     <g id="text_10">
      <!-- 0 -->
      <g transform="translate(45.375 268.515513)scale(0.1 -0.1)">
       <use xlink:href="#DejaVuSans-30"/>
      </g>
     </g>
    </g>
    <g id="ytick_2">
     <g id="line2d_11">
      <g>
       <use style="stroke:#000000;stroke-width:0.8;" x="58.7375" xlink:href="#m32eb4ac53e" y="227.894399"/>
      </g>
     </g>
     <g id="text_11">
      <!-- 500000 -->
      <g transform="translate(13.5625 231.693618)scale(0.1 -0.1)">
       <use xlink:href="#DejaVuSans-35"/>
       <use x="63.623047" xlink:href="#DejaVuSans-30"/>
       <use x="127.246094" xlink:href="#DejaVuSans-30"/>
       <use x="190.869141" xlink:href="#DejaVuSans-30"/>
       <use x="254.492188" xlink:href="#DejaVuSans-30"/>
       <use x="318.115234" xlink:href="#DejaVuSans-30"/>
      </g>
     </g>
    </g>
    <g id="ytick_3">
     <g id="line2d_12">
      <g>
       <use style="stroke:#000000;stroke-width:0.8;" x="58.7375" xlink:href="#m32eb4ac53e" y="191.072504"/>
      </g>
     </g>
     <g id="text_12">
      <!-- 1000000 -->
      <g transform="translate(7.2 194.871723)scale(0.1 -0.1)">
       <use xlink:href="#DejaVuSans-31"/>
       <use x="63.623047" xlink:href="#DejaVuSans-30"/>
       <use x="127.246094" xlink:href="#DejaVuSans-30"/>
       <use x="190.869141" xlink:href="#DejaVuSans-30"/>
       <use x="254.492188" xlink:href="#DejaVuSans-30"/>
       <use x="318.115234" xlink:href="#DejaVuSans-30"/>
       <use x="381.738281" xlink:href="#DejaVuSans-30"/>
      </g>
     </g>
    </g>
    <g id="ytick_4">
     <g id="line2d_13">
      <g>
       <use style="stroke:#000000;stroke-width:0.8;" x="58.7375" xlink:href="#m32eb4ac53e" y="154.250608"/>
      </g>
     </g>
     <g id="text_13">
      <!-- 1500000 -->
      <g transform="translate(7.2 158.049827)scale(0.1 -0.1)">
       <use xlink:href="#DejaVuSans-31"/>
       <use x="63.623047" xlink:href="#DejaVuSans-35"/>
       <use x="127.246094" xlink:href="#DejaVuSans-30"/>
       <use x="190.869141" xlink:href="#DejaVuSans-30"/>
       <use x="254.492188" xlink:href="#DejaVuSans-30"/>
       <use x="318.115234" xlink:href="#DejaVuSans-30"/>
       <use x="381.738281" xlink:href="#DejaVuSans-30"/>
      </g>
     </g>
    </g>
    <g id="ytick_5">
     <g id="line2d_14">
      <g>
       <use style="stroke:#000000;stroke-width:0.8;" x="58.7375" xlink:href="#m32eb4ac53e" y="117.428713"/>
      </g>
     </g>
     <g id="text_14">
      <!-- 2000000 -->
      <g transform="translate(7.2 121.227932)scale(0.1 -0.1)">
       <use xlink:href="#DejaVuSans-32"/>
       <use x="63.623047" xlink:href="#DejaVuSans-30"/>
       <use x="127.246094" xlink:href="#DejaVuSans-30"/>
       <use x="190.869141" xlink:href="#DejaVuSans-30"/>
       <use x="254.492188" xlink:href="#DejaVuSans-30"/>
       <use x="318.115234" xlink:href="#DejaVuSans-30"/>
       <use x="381.738281" xlink:href="#DejaVuSans-30"/>
      </g>
     </g>
    </g>
    <g id="ytick_6">
     <g id="line2d_15">
      <g>
       <use style="stroke:#000000;stroke-width:0.8;" x="58.7375" xlink:href="#m32eb4ac53e" y="80.606818"/>
      </g>
     </g>
     <g id="text_15">
      <!-- 2500000 -->
      <g transform="translate(7.2 84.406036)scale(0.1 -0.1)">
       <use xlink:href="#DejaVuSans-32"/>
       <use x="63.623047" xlink:href="#DejaVuSans-35"/>
       <use x="127.246094" xlink:href="#DejaVuSans-30"/>
       <use x="190.869141" xlink:href="#DejaVuSans-30"/>
       <use x="254.492188" xlink:href="#DejaVuSans-30"/>
       <use x="318.115234" xlink:href="#DejaVuSans-30"/>
       <use x="381.738281" xlink:href="#DejaVuSans-30"/>
      </g>
     </g>
    </g>
    <g id="ytick_7">
     <g id="line2d_16">
      <g>
       <use style="stroke:#000000;stroke-width:0.8;" x="58.7375" xlink:href="#m32eb4ac53e" y="43.784922"/>
      </g>
     </g>
     <g id="text_16">
      <!-- 3000000 -->
      <defs>
       <path d="M 40.578125 39.3125 
Q 47.65625 37.796875 51.625 33 
Q 55.609375 28.21875 55.609375 21.1875 
Q 55.609375 10.40625 48.1875 4.484375 
Q 40.765625 -1.421875 27.09375 -1.421875 
Q 22.515625 -1.421875 17.65625 -0.515625 
Q 12.796875 0.390625 7.625 2.203125 
L 7.625 11.71875 
Q 11.71875 9.328125 16.59375 8.109375 
Q 21.484375 6.890625 26.8125 6.890625 
Q 36.078125 6.890625 40.9375 10.546875 
Q 45.796875 14.203125 45.796875 21.1875 
Q 45.796875 27.640625 41.28125 31.265625 
Q 36.765625 34.90625 28.71875 34.90625 
L 20.21875 34.90625 
L 20.21875 43.015625 
L 29.109375 43.015625 
Q 36.375 43.015625 40.234375 45.921875 
Q 44.09375 48.828125 44.09375 54.296875 
Q 44.09375 59.90625 40.109375 62.90625 
Q 36.140625 65.921875 28.71875 65.921875 
Q 24.65625 65.921875 20.015625 65.03125 
Q 15.375 64.15625 9.8125 62.3125 
L 9.8125 71.09375 
Q 15.4375 72.65625 20.34375 73.4375 
Q 25.25 74.21875 29.59375 74.21875 
Q 40.828125 74.21875 47.359375 69.109375 
Q 53.90625 64.015625 53.90625 55.328125 
Q 53.90625 49.265625 50.4375 45.09375 
Q 46.96875 40.921875 40.578125 39.3125 
z
" id="DejaVuSans-33"/>
      </defs>
      <g transform="translate(7.2 47.584141)scale(0.1 -0.1)">
       <use xlink:href="#DejaVuSans-33"/>
       <use x="63.623047" xlink:href="#DejaVuSans-30"/>
       <use x="127.246094" xlink:href="#DejaVuSans-30"/>
       <use x="190.869141" xlink:href="#DejaVuSans-30"/>
       <use x="254.492188" xlink:href="#DejaVuSans-30"/>
       <use x="318.115234" xlink:href="#DejaVuSans-30"/>
       <use x="381.738281" xlink:href="#DejaVuSans-30"/>
      </g>
     </g>
    </g>
   </g>
   <g id="line2d_17">
    <path clip-path="url(#p1cc3def74d)" d="M 74.970227 244.995371 
L 76.609897 247.343356 
L 78.249566 246.850753 
L 79.889236 232.276352 
L 81.528905 252.980715 
L 83.168574 242.340144 
L 84.808244 261.22116 
L 86.447913 213.816358 
L 88.087583 210.641279 
L 89.727252 262.716571 
L 91.366921 180.317859 
L 93.006591 223.29041 
L 94.64626 261.130284 
L 96.28593 256.795905 
L 97.925599 258.054109 
L 99.565269 245.18795 
L 101.204938 241.591629 
L 102.844607 169.513947 
L 104.484277 102.673443 
L 106.123946 130.825697 
L 107.763616 249.803059 
L 109.403285 193.003739 
L 111.042955 177.950432 
L 112.682624 246.100912 
L 114.322293 121.898597 
L 115.961963 170.866562 
L 117.601632 256.005191 
L 119.241302 259.569993 
L 120.880971 256.093417 
L 122.52064 198.933316 
L 124.16031 219.755214 
L 125.799979 153.977169 
L 127.439649 262.539973 
L 129.079318 134.178993 
L 130.718988 196.48083 
L 132.358657 246.656701 
L 133.998326 257.215454 
L 135.637996 163.349741 
L 137.277665 263.402416 
L 138.917335 190.360516 
L 140.557004 207.403456 
L 142.196674 250.981212 
L 145.476012 260.87231 
L 147.115682 225.035253 
L 148.755351 231.033687 
L 150.395021 257.755189 
L 152.03469 253.746168 
L 153.67436 142.623064 
L 155.314029 257.025084 
L 156.953698 252.479937 
L 158.593368 257.249772 
L 160.233037 255.334738 
L 161.872707 178.290519 
L 163.512376 258.968249 
L 165.152045 263.161306 
L 166.791715 257.555762 
L 168.431384 242.488757 
L 170.071054 260.794247 
L 171.710723 259.672284 
L 173.350393 256.773517 
L 174.990062 261.293626 
L 176.629731 258.926862 
L 178.269401 225.03076 
L 179.90907 250.520055 
L 181.54874 249.816977 
L 183.188409 263.645735 
L 184.828079 262.841471 
L 186.467748 250.066483 
L 188.107417 258.016698 
L 189.747087 262.865111 
L 191.386756 251.109426 
L 193.026426 246.679015 
L 194.666095 217.412458 
L 196.305764 257.653413 
L 197.945434 257.673076 
L 199.585103 256.149239 
L 201.224773 240.587643 
L 202.864442 262.550431 
L 204.504112 262.651544 
L 206.143781 262.549768 
L 207.78345 263.026538 
L 209.42312 260.990287 
L 211.062789 254.813635 
L 212.702459 209.778174 
L 214.342128 263.968663 
L 215.981798 254.21793 
L 217.621467 198.054377 
L 219.261136 254.60132 
L 220.900806 260.443629 
L 222.540475 210.745853 
L 224.180145 262.530547 
L 225.819814 241.020448 
L 227.459483 253.957305 
L 229.099153 248.680506 
L 230.738822 261.332068 
L 232.378492 143.904981 
L 234.018161 255.93199 
L 235.657831 247.999596 
L 237.2975 254.310722 
L 238.937169 228.832106 
L 240.576839 248.913294 
L 242.216508 226.042479 
L 243.856178 261.765609 
L 245.495847 260.224023 
L 247.135517 260.361001 
L 248.775186 261.749113 
L 250.414855 217.636556 
L 252.054525 256.667912 
L 253.694194 255.415157 
L 255.333864 254.750817 
L 256.973533 261.215563 
L 258.613202 263.872852 
L 261.892541 258.764256 
L 263.532211 252.107962 
L 265.17188 263.927054 
L 266.81155 250.013312 
L 268.451219 258.982315 
L 270.090888 253.961503 
L 271.730558 262.610303 
L 273.370227 235.976805 
L 275.009897 248.419145 
L 276.649566 256.538225 
L 278.289236 243.982401 
L 279.928905 256.930231 
L 281.568574 260.7466 
L 283.208244 263.536226 
L 284.847913 256.965801 
L 286.487583 226.992042 
L 289.766921 246.481503 
L 291.406591 250.575656 
L 293.04626 257.618359 
L 294.68593 249.950641 
L 296.325599 260.91517 
L 297.965269 242.938795 
L 299.604938 263.878817 
L 301.244607 256.731467 
L 302.884277 250.49914 
L 304.523946 236.88557 
L 306.163616 263.662673 
L 307.803285 260.100523 
L 309.442955 258.55717 
L 311.082624 264.091869 
L 312.722293 245.297605 
L 314.361963 230.523041 
L 316.001632 261.790427 
L 317.641302 250.301995 
L 319.280971 254.745146 
L 320.92064 262.284061 
L 322.56031 261.480976 
L 324.199979 264.099381 
L 325.839649 262.048769 
L 327.479318 263.16867 
L 329.118988 263.486959 
L 330.758657 209.636483 
L 332.398326 162.654322 
L 334.037996 250.75623 
L 335.677665 235.476764 
L 337.317335 216.360898 
L 338.957004 123.63173 
L 340.596674 151.236736 
L 342.236343 204.454391 
L 343.876012 237.684163 
L 345.515682 140.858485 
L 347.155351 244.159588 
L 348.795021 114.531419 
L 350.43469 232.474012 
L 352.07436 259.919064 
L 353.714029 151.798123 
L 356.993368 263.621285 
L 358.633037 226.595396 
L 360.272707 259.79932 
L 361.912376 255.254761 
L 363.552045 194.59739 
L 365.191715 142.670932 
L 366.831384 212.348858 
L 368.471054 234.391033 
L 370.110723 238.650443 
L 371.750393 213.543876 
L 373.390062 254.607874 
L 375.029731 246.186559 
L 376.669401 257.147038 
L 378.30907 254.451381 
L 379.94874 258.493468 
L 381.588409 262.940816 
L 383.228079 229.796029 
L 384.867748 240.428572 
L 386.507417 262.53909 
L 388.147087 257.592952 
L 389.786756 263.31397 
L 391.426426 223.004967 
L 393.066095 252.459538 
L 394.705764 258.428072 
L 396.345434 256.75216 
L 397.985103 260.039693 
L 399.624773 261.530243 
L 399.624773 261.530243 
" style="fill:none;stroke:#1f77b4;stroke-linecap:square;stroke-width:0.5;"/>
   </g>
   <g id="line2d_18">
    <path clip-path="url(#p1cc3def74d)" d="M 74.970227 238.053045 
L 76.609897 187.15377 
L 78.249566 252.648949 
L 79.889236 252.898381 
L 81.528905 185.617929 
L 83.168574 192.594353 
L 84.808244 156.703904 
L 86.447913 159.79142 
L 88.087583 249.624031 
L 89.727252 79.742166 
L 91.366921 187.400551 
L 93.006591 206.030073 
L 94.64626 168.921851 
L 96.28593 248.872348 
L 97.925599 216.645899 
L 99.565269 195.227413 
L 101.204938 115.939046 
L 102.844607 22.796 
L 104.484277 177.971052 
L 106.123946 222.855544 
L 107.763616 189.832563 
L 109.403285 179.256799 
L 111.042955 242.303396 
L 112.682624 167.841202 
L 114.322293 209.701732 
L 115.961963 188.337079 
L 117.601632 218.438757 
L 119.241302 256.066684 
L 120.880971 238.407419 
L 122.52064 251.615359 
L 124.16031 247.57445 
L 125.799979 256.120518 
L 127.439649 109.176705 
L 129.079318 107.234939 
L 130.718988 99.303282 
L 132.358657 171.017753 
L 133.998326 138.302604 
L 135.637996 253.282801 
L 137.277665 220.962088 
L 138.917335 245.523765 
L 140.557004 177.147126 
L 142.196674 228.148912 
L 143.836343 206.02779 
L 145.476012 88.365338 
L 147.115682 227.189186 
L 148.755351 230.661344 
L 150.395021 204.844555 
L 152.03469 213.514197 
L 153.67436 200.675212 
L 155.314029 164.5737 
L 156.953698 195.137199 
L 158.593368 258.82376 
L 160.233037 195.998979 
L 161.872707 240.874412 
L 163.512376 130.564777 
L 165.152045 174.635431 
L 166.791715 205.818126 
L 168.431384 222.690434 
L 170.071054 107.806931 
L 171.710723 220.480384 
L 173.350393 233.782515 
L 174.990062 240.622108 
L 176.629731 259.141754 
L 178.269401 192.308688 
L 179.90907 217.086731 
L 181.54874 208.173623 
L 183.188409 91.325671 
L 184.828079 179.393335 
L 186.467748 255.500584 
L 188.107417 120.402744 
L 189.747087 188.076306 
L 191.386756 167.456118 
L 193.026426 239.314489 
L 194.666095 139.736743 
L 196.305764 252.04021 
L 197.945434 191.254404 
L 199.585103 170.486855 
L 201.224773 31.572204 
L 202.864442 199.287395 
L 204.504112 165.087292 
L 206.143781 245.513897 
L 207.78345 183.199246 
L 209.42312 155.906857 
L 211.062789 194.04138 
L 212.702459 188.003252 
L 214.342128 251.308853 
L 215.981798 253.537314 
L 217.621467 140.034706 
L 219.261136 148.831604 
L 220.900806 204.151494 
L 222.540475 97.194861 
L 224.180145 167.726023 
L 225.819814 99.656036 
L 227.459483 112.907647 
L 229.099153 201.826191 
L 230.738822 240.421503 
L 232.378492 167.842601 
L 234.018161 188.861202 
L 235.657831 105.699687 
L 237.2975 217.661668 
L 238.937169 128.980404 
L 240.576839 144.27239 
L 242.216508 248.707386 
L 243.856178 256.644346 
L 245.495847 236.082705 
L 247.135517 125.206307 
L 248.775186 198.44653 
L 250.414855 212.836748 
L 252.054525 224.270683 
L 253.694194 198.750679 
L 255.333864 147.454759 
L 256.973533 198.104234 
L 258.613202 122.688573 
L 260.252872 178.560056 
L 261.892541 163.097437 
L 263.532211 216.099831 
L 265.17188 215.364645 
L 266.81155 215.594192 
L 268.451219 155.857074 
L 270.090888 209.176651 
L 271.730558 180.434437 
L 273.370227 230.108573 
L 275.009897 200.211035 
L 276.649566 141.524446 
L 278.289236 142.42997 
L 279.928905 118.089003 
L 281.568574 139.304454 
L 283.208244 141.185316 
L 284.847913 224.290419 
L 286.487583 206.78912 
L 288.127252 199.600381 
L 289.766921 133.484532 
L 291.406591 152.310463 
L 293.04626 201.007567 
L 294.68593 210.427712 
L 296.325599 93.811149 
L 299.604938 234.632806 
L 301.244607 229.522663 
L 302.884277 245.474203 
L 304.523946 225.990118 
L 306.163616 111.597377 
L 307.803285 256.898933 
L 309.442955 198.508833 
L 311.082624 247.000765 
L 312.722293 152.662112 
L 314.361963 213.832412 
L 316.001632 252.134695 
L 317.641302 156.517364 
L 319.280971 136.6602 
L 320.92064 223.608993 
L 322.56031 219.552031 
L 324.199979 187.836817 
L 325.839649 68.956738 
L 327.479318 217.43838 
L 329.118988 202.547974 
L 330.758657 220.424709 
L 332.398326 190.44307 
L 334.037996 165.836986 
L 335.677665 194.771263 
L 337.317335 178.821712 
L 338.957004 152.201838 
L 340.596674 133.27126 
L 342.236343 184.692448 
L 343.876012 146.866125 
L 345.515682 161.949846 
L 347.155351 191.128841 
L 348.795021 176.5512 
L 350.43469 156.301735 
L 352.07436 226.168189 
L 353.714029 232.563268 
L 355.353698 184.274666 
L 356.993368 108.121316 
L 358.633037 173.287455 
L 360.272707 165.596171 
L 361.912376 234.943436 
L 363.552045 114.32286 
L 365.191715 184.261779 
L 366.831384 230.423032 
L 368.471054 260.928942 
L 370.110723 212.368152 
L 371.750393 183.282685 
L 373.390062 137.32594 
L 375.029731 132.018211 
L 376.669401 189.448585 
L 378.30907 154.161868 
L 379.94874 132.089719 
L 381.588409 199.565327 
L 383.228079 245.447397 
L 384.867748 247.209177 
L 386.507417 213.16137 
L 388.147087 186.949924 
L 389.786756 204.937126 
L 391.426426 235.131375 
L 393.066095 226.094545 
L 393.066095 226.094545 
" style="fill:none;stroke:#ff7f0e;stroke-linecap:square;stroke-width:0.5;"/>
   </g>
   <g id="line2d_19">
    <path clip-path="url(#p1cc3def74d)" d="M 74.970227 262.268596 
L 76.609897 253.334278 
L 78.249566 263.740735 
L 79.889236 251.44097 
L 81.528905 253.235669 
L 83.168574 261.033442 
L 84.808244 262.497039 
L 86.447913 234.451937 
L 88.087583 259.885704 
L 89.727252 264.028314 
L 91.366921 255.786322 
L 93.006591 203.318951 
L 94.64626 45.662839 
L 96.28593 262.51707 
L 97.925599 215.826023 
L 99.565269 263.283039 
L 101.204938 257.664828 
L 102.844607 263.828371 
L 104.484277 251.663816 
L 106.123946 263.213004 
L 109.403285 255.255056 
L 111.042955 241.314065 
L 112.682624 248.387404 
L 114.322293 263.972198 
L 115.961963 253.45962 
L 117.601632 210.203761 
L 119.241302 263.724607 
L 120.880971 252.63805 
L 122.52064 263.743755 
L 124.16031 263.272066 
L 125.799979 264.181567 
L 127.439649 261.833582 
L 129.079318 262.212995 
L 130.718988 264.003496 
L 132.358657 221.011577 
L 133.998326 247.451833 
L 135.637996 263.518994 
L 137.277665 262.8752 
L 138.917335 257.615708 
L 140.557004 258.782004 
L 142.196674 263.269783 
L 143.836343 261.922323 
L 145.476012 264.331285 
L 147.115682 237.443421 
L 148.755351 252.392374 
L 150.395021 263.675929 
L 152.03469 263.5757 
L 153.67436 260.76965 
L 155.314029 258.598484 
L 156.953698 264.230393 
L 158.593368 258.987176 
L 160.233037 263.970209 
L 161.872707 248.670344 
L 163.512376 263.096205 
L 165.152045 244.770537 
L 166.791715 263.403226 
L 168.431384 263.345931 
L 170.071054 253.584446 
L 171.710723 262.926677 
L 174.990062 264.108365 
L 176.629731 263.466339 
L 178.269401 262.529369 
L 179.90907 262.183758 
L 181.54874 225.507751 
L 183.188409 258.760279 
L 184.828079 263.748836 
L 186.467748 261.675101 
L 188.107417 227.973934 
L 189.747087 262.469128 
L 191.386756 264.397564 
L 193.026426 264.237905 
L 194.666095 258.364959 
L 196.305764 256.761661 
L 197.945434 263.78065 
L 199.585103 263.477017 
L 201.224773 260.143825 
L 202.864442 234.300893 
L 204.504112 258.589794 
L 206.143781 258.520642 
L 207.78345 264.358607 
L 209.42312 263.176992 
L 211.062789 262.487686 
L 212.702459 257.464075 
L 214.342128 264.627848 
L 215.981798 262.987286 
L 217.621467 252.741299 
L 219.261136 262.756265 
L 220.900806 232.039955 
L 222.540475 259.640617 
L 224.180145 263.272729 
L 225.819814 260.676491 
L 227.459483 259.161491 
L 229.099153 250.932018 
L 230.738822 255.142086 
L 232.378492 260.597397 
L 234.018161 258.787307 
L 235.657831 264.578875 
L 237.2975 262.475535 
L 238.937169 264.032291 
L 240.576839 264.217579 
L 242.216508 263.878376 
L 243.856178 263.272729 
L 245.495847 264.20285 
L 247.135517 228.026958 
L 248.775186 260.515726 
L 250.414855 254.119984 
L 252.054525 260.527583 
L 253.694194 259.388019 
L 255.333864 252.953835 
L 256.973533 263.096868 
L 258.613202 264.337029 
L 260.252872 262.497039 
L 261.892541 221.718852 
L 263.532211 264.412809 
L 265.17188 258.662628 
L 266.81155 263.507947 
L 268.451219 263.066821 
L 270.090888 262.001858 
L 271.730558 263.624525 
L 273.370227 223.990247 
L 275.009897 263.99952 
L 276.649566 263.081034 
L 278.289236 261.50108 
L 279.928905 263.566199 
L 281.568574 263.780429 
L 283.208244 263.028084 
L 284.847913 252.653736 
L 286.487583 262.642927 
L 288.127252 261.923648 
L 289.766921 264.11978 
L 291.406591 263.592638 
L 293.04626 262.89258 
L 294.68593 263.630049 
L 296.325599 254.331047 
L 297.965269 264.571216 
L 299.604938 241.861901 
L 301.244607 256.420027 
L 302.884277 264.258893 
L 304.523946 261.484216 
L 306.163616 263.690658 
L 307.803285 260.045216 
L 309.442955 258.285277 
L 311.082624 88.824876 
L 312.722293 263.718642 
L 314.361963 258.972815 
L 316.001632 262.630629 
L 317.641302 263.199527 
L 319.280971 263.648165 
L 320.92064 159.457372 
L 322.56031 262.50212 
L 324.199979 253.198332 
L 325.839649 260.425365 
L 327.479318 257.706584 
L 329.118988 263.888023 
L 330.758657 260.497242 
L 332.398326 243.276157 
L 334.037996 261.465731 
L 335.677665 256.646408 
L 337.317335 263.96557 
L 338.957004 258.565123 
L 340.596674 254.55706 
L 342.236343 263.362206 
L 343.876012 256.905708 
L 347.155351 248.715414 
L 350.43469 264.24387 
L 352.07436 259.805948 
L 353.714029 264.104536 
L 355.353698 252.662058 
L 356.993368 211.813246 
L 358.633037 257.809759 
L 360.272707 228.447611 
L 361.912376 263.378113 
L 363.552045 260.796677 
L 365.191715 264.172435 
L 366.831384 262.318379 
L 368.471054 261.229482 
L 370.110723 229.250623 
L 371.750393 263.851054 
L 373.390062 263.061371 
L 375.029731 253.852731 
L 376.669401 263.94031 
L 378.30907 263.131259 
L 379.94874 260.64151 
L 381.588409 261.74845 
L 383.228079 262.174037 
L 384.867748 258.218408 
L 386.507417 264.577623 
L 388.147087 262.669881 
L 389.786756 264.288498 
L 391.426426 257.658495 
L 393.066095 262.809141 
L 394.705764 261.262474 
L 396.345434 241.871991 
L 397.985103 256.766595 
L 397.985103 256.766595 
" style="fill:none;stroke:#2ca02c;stroke-linecap:square;stroke-width:0.5;"/>
   </g>
   <g id="line2d_20">
    <path clip-path="url(#p1cc3def74d)" d="M 74.970227 225.472255 
L 76.609897 219.668903 
L 78.249566 236.073131 
L 79.889236 217.108824 
L 81.528905 244.785044 
L 83.168574 178.553722 
L 84.808244 256.981635 
L 86.447913 263.055922 
L 88.087583 262.200107 
L 89.727252 262.071304 
L 91.366921 243.993816 
L 93.006591 260.836961 
L 94.64626 261.470518 
L 96.28593 165.737714 
L 97.925599 168.666454 
L 99.565269 221.536952 
L 101.204938 251.919139 
L 102.844607 241.372318 
L 104.484277 213.279936 
L 106.123946 232.885386 
L 107.763616 261.096113 
L 109.403285 249.708353 
L 111.042955 263.686681 
L 112.682624 260.853236 
L 114.322293 263.604568 
L 115.961963 254.580037 
L 117.601632 255.720558 
L 119.241302 251.540095 
L 120.880971 254.219182 
L 122.52064 263.517521 
L 124.16031 257.03348 
L 125.799979 261.443638 
L 127.439649 260.513664 
L 129.079318 262.305933 
L 130.718988 258.849167 
L 132.358657 135.758579 
L 133.998326 263.292613 
L 135.637996 248.350435 
L 137.277665 261.394002 
L 138.917335 261.640046 
L 140.557004 260.764863 
L 142.196674 123.100905 
L 143.836343 124.377373 
L 145.476012 262.58195 
L 147.115682 259.746296 
L 148.755351 261.686074 
L 150.395021 260.83291 
L 152.03469 135.500236 
L 153.67436 256.160433 
L 155.314029 263.591828 
L 156.953698 252.539367 
L 158.593368 207.069924 
L 160.233037 261.122036 
L 161.872707 262.201875 
L 163.512376 262.136184 
L 165.152045 261.51927 
L 166.791715 263.369276 
L 168.431384 243.079822 
L 170.071054 51.825572 
L 171.710723 262.206956 
L 173.350393 263.568262 
L 174.990062 260.190147 
L 176.629731 262.548958 
L 178.269401 241.986433 
L 179.90907 261.547181 
L 181.54874 261.712291 
L 183.188409 255.745155 
L 184.828079 263.170732 
L 186.467748 260.426544 
L 188.107417 259.88018 
L 189.747087 218.949919 
L 191.386756 145.348326 
L 193.026426 260.829744 
L 194.666095 245.60632 
L 196.305764 262.342829 
L 197.945434 232.219646 
L 199.585103 262.364775 
L 201.224773 262.409182 
L 202.864442 262.969317 
L 204.504112 261.599174 
L 206.143781 246.012686 
L 207.78345 262.730416 
L 209.42312 241.533377 
L 211.062789 264.309265 
L 212.702459 264.174644 
L 214.342128 259.748284 
L 215.981798 231.141059 
L 217.621467 260.030267 
L 219.261136 263.463245 
L 220.900806 263.067336 
L 222.540475 259.576253 
L 224.180145 260.975632 
L 225.819814 248.977954 
L 227.459483 262.736013 
L 229.099153 259.786727 
L 230.738822 263.631522 
L 232.378492 262.361976 
L 234.018161 252.887776 
L 235.657831 248.46775 
L 237.2975 234.532798 
L 238.937169 260.040061 
L 240.576839 264.559507 
L 242.216508 261.459693 
L 243.856178 260.982849 
L 245.495847 258.203753 
L 247.135517 248.114701 
L 248.775186 249.944528 
L 252.054525 217.1441 
L 253.694194 192.631396 
L 255.333864 244.942127 
L 256.973533 200.927074 
L 258.613202 263.560308 
L 260.252872 264.531817 
L 261.892541 263.162484 
L 263.532211 221.594099 
L 265.17188 219.883354 
L 266.81155 261.558596 
L 268.451219 262.400639 
L 270.090888 262.252689 
L 271.730558 254.305125 
L 273.370227 196.358434 
L 275.009897 253.429353 
L 276.649566 263.369571 
L 278.289236 253.225212 
L 279.928905 263.841775 
L 281.568574 92.678655 
L 283.208244 262.256813 
L 284.847913 226.749533 
L 286.487583 260.765011 
L 288.127252 261.026962 
L 289.766921 252.415572 
L 291.406591 232.188421 
L 293.04626 251.379993 
L 294.68593 259.003525 
L 296.325599 256.841638 
L 297.965269 254.182655 
L 299.604938 261.205769 
L 301.244607 264.055268 
L 302.884277 233.934957 
L 304.523946 134.977366 
L 306.163616 263.78853 
L 307.803285 263.057174 
L 309.442955 261.739613 
L 311.082624 258.687225 
L 312.722293 262.613396 
L 314.361963 254.521858 
L 316.001632 249.641484 
L 317.641302 259.257449 
L 319.280971 257.96036 
L 320.92064 255.789268 
L 322.56031 262.961363 
L 324.199979 254.608684 
L 325.839649 124.725045 
L 325.839649 124.725045 
" style="fill:none;stroke:#d62728;stroke-linecap:square;stroke-width:0.5;"/>
   </g>
   <g id="line2d_21">
    <path clip-path="url(#p1cc3def74d)" d="M 74.970227 147.283022 
L 76.609897 191.561499 
L 78.249566 245.501451 
L 79.889236 168.404724 
L 81.528905 264.713717 
L 83.168574 244.705436 
L 84.808244 69.381516 
L 86.447913 197.095167 
L 88.087583 144.79099 
L 89.727252 97.151116 
L 91.366921 128.962656 
L 93.006591 252.029384 
L 94.64626 127.471369 
L 96.28593 169.590242 
L 97.925599 174.373111 
L 99.565269 243.822226 
L 101.204938 248.884352 
L 102.844607 238.928817 
L 104.484277 232.824483 
L 106.123946 248.878314 
L 107.763616 120.156332 
L 109.403285 241.311046 
L 111.042955 260.027984 
L 112.682624 262.185747 
L 114.322293 170.727228 
L 115.961963 213.829393 
L 117.601632 169.652324 
L 119.241302 206.970431 
L 120.880971 184.219065 
L 122.52064 205.482753 
L 124.16031 207.956227 
L 125.799979 184.284461 
L 127.439649 241.69311 
L 129.079318 104.990129 
L 130.718988 92.470096 
L 132.358657 219.395169 
L 133.998326 121.52154 
L 135.637996 45.677641 
L 137.277665 225.756962 
L 138.917335 257.121705 
L 140.557004 245.453804 
L 142.196674 251.416889 
L 143.836343 263.021677 
L 145.476012 246.478999 
L 147.115682 236.531638 
L 148.755351 207.381363 
L 150.395021 257.408621 
L 152.03469 244.660586 
L 153.67436 174.81247 
L 155.314029 205.686378 
L 156.953698 201.416216 
L 158.593368 230.842434 
L 160.233037 214.276337 
L 161.872707 220.2501 
L 163.512376 251.67722 
L 165.152045 134.591178 
L 166.791715 181.698091 
L 168.431384 132.7274 
L 170.071054 214.400647 
L 171.710723 254.738297 
L 173.350393 250.291317 
L 174.990062 242.999772 
L 176.629731 256.760998 
L 178.269401 162.86568 
L 179.90907 238.430101 
L 181.54874 211.663897 
L 183.188409 247.086634 
L 184.828079 226.055661 
L 186.467748 259.74475 
L 188.107417 262.128525 
L 189.747087 251.766991 
L 191.386756 250.07694 
L 193.026426 198.647357 
L 194.666095 238.250705 
L 196.305764 245.875414 
L 197.945434 236.850221 
L 199.585103 258.050132 
L 201.224773 235.108545 
L 202.864442 259.469911 
L 204.504112 216.132897 
L 206.143781 259.928049 
L 207.78345 262.656257 
L 209.42312 263.924845 
L 211.062789 257.876554 
L 212.702459 213.955102 
L 214.342128 255.127431 
L 215.981798 248.947833 
L 217.621467 255.360366 
L 219.261136 88.909271 
L 220.900806 186.55269 
L 222.540475 199.710037 
L 224.180145 264.185765 
L 225.819814 261.71369 
L 227.459483 259.864126 
L 229.099153 255.158141 
L 230.738822 262.877998 
L 232.378492 198.61488 
L 234.018161 261.830489 
L 235.657831 212.478544 
L 237.2975 257.883182 
L 238.937169 263.693677 
L 240.576839 261.958924 
L 242.216508 256.219274 
L 243.856178 260.273807 
L 245.495847 258.813082 
L 247.135517 261.588422 
L 248.775186 258.09395 
L 250.414855 262.399976 
L 252.054525 256.240852 
L 253.694194 228.583926 
L 255.333864 258.573519 
L 256.973533 226.428446 
L 258.613202 216.84216 
L 260.252872 264.160431 
L 261.892541 238.057021 
L 263.532211 258.704015 
L 265.17188 252.796016 
L 266.81155 264.294905 
L 268.451219 260.722886 
L 270.090888 241.855053 
L 271.730558 263.12279 
L 273.370227 259.011552 
L 275.009897 261.604697 
L 276.649566 226.890045 
L 278.289236 249.70688 
L 279.928905 182.151884 
L 281.568574 238.869091 
L 283.208244 245.736007 
L 284.847913 127.900565 
L 286.487583 252.915245 
L 288.127252 228.758977 
L 289.766921 136.281965 
L 291.406591 241.521078 
L 293.04626 250.74894 
L 296.325599 180.569868 
L 297.965269 196.086689 
L 299.604938 260.96164 
L 301.244607 241.010653 
L 302.884277 259.368724 
L 304.523946 254.356012 
L 306.163616 254.28259 
L 307.803285 143.208237 
L 309.442955 239.28076 
L 311.082624 197.60434 
L 312.722293 168.179227 
L 314.361963 251.786212 
L 316.001632 257.66932 
L 317.641302 260.645781 
L 319.280971 226.495535 
L 320.92064 254.554335 
L 322.56031 233.589642 
L 324.199979 254.941849 
L 325.839649 255.062551 
L 327.479318 260.377423 
L 329.118988 174.020063 
L 330.758657 241.957491 
L 332.398326 182.914024 
L 334.037996 223.621513 
L 335.677665 255.397851 
L 337.317335 220.425004 
L 338.957004 253.358728 
L 340.596674 197.523994 
L 342.236343 189.057831 
L 343.876012 208.947398 
L 345.515682 263.246733 
L 347.155351 251.680534 
L 348.795021 246.473107 
L 350.43469 224.062492 
L 352.07436 239.371637 
L 353.714029 189.662078 
L 355.353698 213.110703 
L 356.993368 66.965336 
L 358.633037 233.701359 
L 360.272707 250.223786 
L 361.912376 235.281019 
L 363.552045 262.323755 
L 365.191715 254.721728 
L 366.831384 190.062921 
L 368.471054 166.462148 
L 370.110723 176.97745 
L 371.750393 211.195743 
L 373.390062 186.456216 
L 375.029731 211.384419 
L 376.669401 147.782695 
L 378.30907 176.363777 
L 379.94874 125.354331 
L 381.588409 254.0906 
L 383.228079 261.173955 
L 384.867748 212.657057 
L 386.507417 253.584962 
L 388.147087 198.870056 
L 389.786756 229.836607 
L 391.426426 243.77502 
L 393.066095 221.424129 
L 394.705764 212.769511 
L 396.345434 238.154968 
L 397.985103 224.182826 
L 397.985103 224.182826 
" style="fill:none;stroke:#9467bd;stroke-linecap:square;stroke-width:0.5;"/>
   </g>
   <g id="line2d_22">
    <path clip-path="url(#p1cc3def74d)" d="M 74.970227 183.582857 
L 76.609897 45.762184 
L 78.249566 259.982398 
L 79.889236 258.984156 
L 81.528905 253.474864 
L 83.168574 256.401763 
L 84.808244 259.994844 
L 86.447913 201.021633 
L 88.087583 257.400373 
L 89.727252 257.67639 
L 91.366921 259.06951 
L 93.006591 263.235907 
L 94.64626 225.471371 
L 97.925599 262.659939 
L 99.565269 243.433092 
L 101.204938 230.422959 
L 102.844607 256.35743 
L 104.484277 262.07042 
L 106.123946 243.967672 
L 107.763616 254.414265 
L 109.403285 244.777901 
L 111.042955 200.032891 
L 112.682624 253.621416 
L 114.322293 187.051553 
L 115.961963 246.101575 
L 117.601632 152.251327 
L 119.241302 262.029033 
L 120.880971 233.791573 
L 122.52064 251.751968 
L 124.16031 241.403395 
L 125.799979 261.875854 
L 127.439649 236.308276 
L 129.079318 250.443612 
L 130.718988 253.010467 
L 132.358657 256.868739 
L 133.998326 124.701479 
L 135.637996 197.273532 
L 137.277665 218.147791 
L 138.917335 260.53804 
L 140.557004 225.390584 
L 142.196674 197.944353 
L 143.836343 252.537674 
L 145.476012 262.074913 
L 147.115682 258.324603 
L 148.755351 232.004975 
L 150.395021 235.800355 
L 152.03469 222.516635 
L 153.67436 216.95049 
L 155.314029 234.218854 
L 156.953698 255.666946 
L 158.593368 257.931271 
L 160.233037 182.847082 
L 161.872707 262.036544 
L 163.512376 260.259078 
L 165.152045 214.396302 
L 166.791715 260.287799 
L 168.431384 237.95554 
L 170.071054 233.933779 
L 171.710723 261.996408 
L 173.350393 255.317432 
L 174.990062 260.779518 
L 176.629731 247.168084 
L 178.269401 257.020739 
L 179.90907 246.404913 
L 181.54874 258.555329 
L 183.188409 238.793312 
L 184.828079 258.80233 
L 186.467748 257.098875 
L 188.107417 155.564193 
L 189.747087 260.644971 
L 191.386756 261.57767 
L 193.026426 192.625062 
L 194.666095 178.992639 
L 196.305764 263.33076 
L 197.945434 257.045926 
L 199.585103 96.710726 
L 201.224773 258.034004 
L 202.864442 262.220507 
L 204.504112 243.031439 
L 206.143781 246.595356 
L 207.78345 239.161973 
L 209.42312 249.49567 
L 211.062789 255.787206 
L 212.702459 224.347199 
L 214.342128 258.907125 
L 215.981798 253.042207 
L 217.621467 240.638531 
L 219.261136 263.023445 
L 220.900806 185.402668 
L 222.540475 260.744611 
L 224.180145 257.327318 
L 225.819814 183.426732 
L 227.459483 264.360595 
L 229.099153 248.912116 
L 230.738822 238.751482 
L 232.378492 262.873801 
L 234.018161 239.546172 
L 235.657831 169.86567 
L 237.2975 251.71441 
L 238.937169 225.514158 
L 240.576839 258.960517 
L 242.216508 209.811093 
L 243.856178 224.925229 
L 245.495847 231.981114 
L 247.135517 258.548701 
L 248.775186 222.553457 
L 250.414855 227.864794 
L 252.054525 260.117534 
L 253.694194 255.817473 
L 255.333864 252.598503 
L 256.973533 259.35186 
L 258.613202 235.564032 
L 260.252872 243.126439 
L 261.892541 259.907723 
L 263.532211 214.25822 
L 265.17188 254.606696 
L 266.81155 262.108863 
L 268.451219 263.514354 
L 270.090888 247.477093 
L 271.730558 244.568384 
L 273.370227 220.161433 
L 275.009897 262.354244 
L 276.649566 260.238016 
L 278.289236 202.107731 
L 279.928905 253.592474 
L 281.568574 260.212314 
L 283.208244 221.518614 
L 284.847913 225.820737 
L 286.487583 221.380606 
L 289.766921 263.770561 
L 291.406591 249.756369 
L 293.04626 259.801529 
L 294.68593 251.404738 
L 296.325599 259.607257 
L 297.965269 223.572761 
L 299.604938 263.252256 
L 301.244607 260.612568 
L 302.884277 193.179674 
L 304.523946 204.243401 
L 306.163616 248.943562 
L 307.803285 154.635692 
L 309.442955 144.745993 
L 311.082624 225.930908 
L 312.722293 258.945788 
L 314.361963 261.875338 
L 316.001632 262.009738 
L 317.641302 233.48632 
L 319.280971 262.64521 
L 320.92064 222.069249 
L 322.56031 261.530022 
L 324.199979 264.354556 
L 325.839649 261.919893 
L 327.479318 250.720218 
L 329.118988 258.673895 
L 330.758657 248.034577 
L 332.398326 238.304906 
L 334.037996 237.683353 
L 335.677665 262.537101 
L 337.317335 256.719904 
L 338.957004 179.079392 
L 340.596674 259.682521 
L 342.236343 245.352691 
L 343.876012 261.16033 
L 345.515682 263.606188 
L 347.155351 249.550092 
L 348.795021 257.397869 
L 350.43469 204.183971 
L 352.07436 242.360028 
L 353.714029 252.80257 
L 355.353698 253.739467 
L 356.993368 242.624557 
L 358.633037 227.114364 
L 360.272707 237.601387 
L 361.912376 247.328848 
L 361.912376 247.328848 
" style="fill:none;stroke:#8c564b;stroke-linecap:square;stroke-width:0.5;"/>
   </g>
   <g id="line2d_23">
    <path clip-path="url(#p1cc3def74d)" d="M 74.970227 214.856576 
L 76.609897 183.184665 
L 78.249566 213.323607 
L 79.889236 153.714113 
L 81.528905 248.789352 
L 83.168574 192.380197 
L 84.808244 260.33935 
L 86.447913 187.399446 
L 88.087583 239.753627 
L 89.727252 192.204409 
L 91.366921 252.215482 
L 93.006591 178.383384 
L 94.64626 192.866835 
L 96.28593 162.143161 
L 97.925599 165.747582 
L 99.565269 129.019657 
L 101.204938 203.307757 
L 102.844607 173.067996 
L 104.484277 224.830302 
L 106.123946 223.860192 
L 107.763616 142.319136 
L 109.403285 187.189856 
L 111.042955 221.199737 
L 112.682624 234.332118 
L 114.322293 251.298838 
L 115.961963 252.177482 
L 117.601632 70.366354 
L 119.241302 259.686571 
L 120.880971 104.958463 
L 122.52064 169.058534 
L 124.16031 141.4455 
L 125.799979 254.02329 
L 127.439649 234.336905 
L 129.079318 166.593529 
L 130.718988 148.114902 
L 132.358657 142.396683 
L 133.998326 233.25957 
L 135.637996 247.348217 
L 137.277665 236.917089 
L 138.917335 252.86016 
L 140.557004 229.32029 
L 142.196674 163.887046 
L 143.836343 159.343077 
L 145.476012 244.906704 
L 147.115682 246.293269 
L 148.755351 190.611936 
L 150.395021 217.429396 
L 152.03469 143.958815 
L 153.67436 172.190899 
L 155.314029 263.205271 
L 156.953698 242.069135 
L 158.593368 80.915017 
L 160.233037 225.163908 
L 161.872707 248.869992 
L 163.512376 259.651369 
L 165.152045 215.339827 
L 166.791715 225.838633 
L 168.431384 228.147292 
L 170.071054 147.940735 
L 171.710723 206.045612 
L 173.350393 187.069301 
L 174.990062 189.713997 
L 176.629731 209.981063 
L 178.269401 259.923115 
L 179.90907 189.070939 
L 181.54874 189.926091 
L 183.188409 203.785484 
L 184.828079 147.125572 
L 186.467748 242.713739 
L 188.107417 219.516829 
L 189.747087 224.206392 
L 191.386756 192.834358 
L 193.026426 219.486193 
L 194.666095 113.012589 
L 196.305764 115.8316 
L 197.945434 218.635902 
L 199.585103 91.022406 
L 201.224773 131.308653 
L 202.864442 182.99621 
L 204.504112 192.235634 
L 206.143781 220.915914 
L 207.78345 240.770132 
L 209.42312 241.392275 
L 211.062789 124.390629 
L 212.702459 241.853874 
L 214.342128 238.405136 
L 215.981798 240.356107 
L 217.621467 242.046674 
L 219.261136 247.432981 
L 220.900806 243.031365 
L 222.540475 261.723411 
L 224.180145 194.696883 
L 225.819814 238.008932 
L 227.459483 250.00963 
L 229.099153 188.501157 
L 230.738822 245.774817 
L 232.378492 197.37737 
L 234.018161 238.295554 
L 235.657831 136.196612 
L 237.2975 250.002118 
L 240.576839 192.840323 
L 242.216508 175.273039 
L 243.856178 264.326498 
L 245.495847 210.544953 
L 247.135517 224.315237 
L 248.775186 163.314539 
L 250.414855 261.84809 
L 252.054525 215.232086 
L 253.694194 248.917271 
L 255.333864 231.346673 
L 256.973533 197.429804 
L 258.613202 40.618681 
L 260.252872 205.511768 
L 261.892541 241.29315 
L 263.532211 117.117642 
L 265.17188 213.936618 
L 266.81155 153.754176 
L 268.451219 165.473922 
L 270.090888 108.252623 
L 271.730558 219.98675 
L 273.370227 216.186362 
L 275.009897 99.466772 
L 276.649566 264.118233 
L 278.289236 246.971234 
L 279.928905 114.161212 
L 281.568574 182.05276 
L 283.208244 222.78654 
L 284.847913 239.606266 
L 286.487583 225.581616 
L 288.127252 198.880292 
L 289.766921 245.577525 
L 291.406591 240.066834 
L 293.04626 227.584359 
L 294.68593 240.935684 
L 296.325599 167.568352 
L 297.965269 218.730092 
L 299.604938 208.745909 
L 301.244607 250.355829 
L 302.884277 240.614449 
L 304.523946 258.149846 
L 306.163616 195.957149 
L 307.803285 207.069703 
L 309.442955 187.483105 
L 311.082624 239.850616 
L 312.722293 194.77524 
L 314.361963 174.868145 
L 316.001632 240.050927 
L 317.641302 196.173294 
L 319.280971 250.997119 
L 320.92064 111.699815 
L 322.56031 215.768507 
L 324.199979 264.407506 
L 325.839649 168.027521 
L 327.479318 234.825974 
L 329.118988 150.288646 
L 330.758657 228.832179 
L 332.398326 164.234718 
L 334.037996 195.948017 
L 335.677665 253.448868 
L 337.317335 218.903671 
L 338.957004 248.023383 
L 340.596674 212.718181 
L 342.236343 248.658929 
L 343.876012 193.408779 
L 345.515682 216.873974 
L 347.155351 250.053595 
L 348.795021 110.375479 
L 350.43469 213.122486 
L 352.07436 203.374404 
L 353.714029 117.086196 
L 355.353698 239.18274 
L 356.993368 167.081345 
L 358.633037 208.145123 
L 360.272707 239.340117 
L 361.912376 183.763947 
L 363.552045 216.419739 
L 365.191715 224.169496 
L 366.831384 199.482846 
L 368.471054 252.904051 
L 370.110723 259.911037 
L 371.750393 214.623052 
L 373.390062 248.69251 
L 375.029731 133.255353 
L 376.669401 101.855334 
L 378.30907 200.366866 
L 379.94874 122.213056 
L 381.588409 211.734742 
L 383.228079 211.412919 
L 384.867748 202.172464 
L 386.507417 159.015509 
L 388.147087 200.347645 
L 389.786756 236.695716 
L 391.426426 258.093288 
L 393.066095 202.711316 
L 394.705764 222.842803 
L 394.705764 222.842803 
" style="fill:none;stroke:#e377c2;stroke-linecap:square;stroke-width:0.5;"/>
   </g>
   <g id="line2d_24">
    <path clip-path="url(#p1cc3def74d)" d="M 74.970227 256.187165 
L 76.609897 262.568179 
L 78.249566 262.34224 
L 79.889236 260.879453 
L 81.528905 254.016956 
L 83.168574 262.373317 
L 84.808244 262.35962 
L 86.447913 264.479456 
L 88.087583 263.431579 
L 89.727252 263.103201 
L 91.366921 262.078816 
L 93.006591 261.240602 
L 94.64626 264.174203 
L 96.28593 264.025737 
L 97.925599 263.38614 
L 99.565269 263.639328 
L 101.204938 263.409117 
L 102.844607 264.206974 
L 104.484277 264.463549 
L 106.123946 261.235963 
L 107.763616 263.754065 
L 111.042955 263.966527 
L 112.682624 263.808782 
L 114.322293 264.369653 
L 115.961963 260.897128 
L 117.601632 262.451601 
L 119.241302 263.768131 
L 120.880971 263.99083 
L 122.52064 264.522022 
L 124.16031 261.245242 
L 125.799979 251.782825 
L 127.439649 264.361626 
L 129.079318 264.432471 
L 130.718988 264.343289 
L 132.358657 263.682483 
L 133.998326 264.569081 
L 135.637996 263.804143 
L 137.277665 264.054384 
L 138.917335 263.302923 
L 140.557004 263.441226 
L 143.836343 264.491976 
L 145.476012 264.449115 
L 147.115682 264.176265 
L 148.755351 264.512301 
L 150.395021 262.967107 
L 152.03469 263.988473 
L 155.314029 264.272812 
L 156.953698 264.284816 
L 158.593368 264.467599 
L 161.872707 264.363541 
L 163.512376 264.429894 
L 165.152045 264.079276 
L 168.431384 264.542643 
L 173.350393 264.10785 
L 174.990062 262.156584 
L 176.629731 264.119854 
L 178.269401 264.009756 
L 179.90907 262.919975 
L 181.54874 264.635065 
L 183.188409 263.959457 
L 184.828079 263.794495 
L 186.467748 264.09835 
L 188.107417 262.166378 
L 189.747087 263.912767 
L 191.386756 264.419289 
L 193.026426 263.311613 
L 194.666095 263.669006 
L 196.305764 264.19173 
L 197.945434 262.129851 
L 199.585103 264.126702 
L 201.224773 263.905329 
L 202.864442 264.571732 
L 204.504112 264.184955 
L 206.143781 264.337471 
L 207.78345 263.680126 
L 209.42312 263.757379 
L 211.062789 263.673425 
L 212.702459 264.498604 
L 215.981798 263.897597 
L 217.621467 263.8146 
L 219.261136 264.269424 
L 220.900806 264.302785 
L 222.540475 262.847731 
L 224.180145 264.37989 
L 225.819814 262.119541 
L 227.459483 264.358312 
L 229.099153 263.420532 
L 230.738822 264.13009 
L 232.378492 264.683229 
L 234.018161 261.234711 
L 235.657831 264.285478 
L 238.937169 263.788015 
L 240.576839 264.259998 
L 242.216508 263.759588 
L 243.856178 264.067051 
L 247.135517 264.33725 
L 250.414855 263.048852 
L 252.054525 264.031334 
L 253.694194 262.548737 
L 255.333864 254.392319 
L 256.973533 264.095036 
L 258.613202 263.392253 
L 260.252872 263.56782 
L 261.892541 262.233173 
L 263.532211 264.243722 
L 265.17188 261.811268 
L 266.81155 264.171036 
L 268.451219 264.43284 
L 270.090888 264.067272 
L 273.370227 262.695656 
L 275.009897 263.673793 
L 276.649566 262.600361 
L 278.289236 264.565104 
L 279.928905 263.913725 
L 281.568574 263.905403 
L 284.847913 264.503611 
L 286.487583 264.388359 
L 288.127252 264.628217 
L 291.406591 264.266331 
L 293.04626 263.940531 
L 294.68593 263.740367 
L 296.325599 264.511491 
L 297.965269 252.528468 
L 299.604938 263.368245 
L 301.244607 263.509052 
L 302.884277 262.81982 
L 304.523946 263.533207 
L 306.163616 263.694782 
L 307.803285 263.08803 
L 309.442955 262.231406 
L 311.082624 264.070733 
L 312.722293 264.053427 
L 314.361963 263.836104 
L 317.641302 263.17169 
L 319.280971 264.033617 
L 320.92064 264.172509 
L 322.56031 263.272729 
L 324.199979 263.976911 
L 325.839649 263.792433 
L 327.479318 264.454712 
L 329.118988 263.527905 
L 330.758657 263.123232 
L 332.398326 264.344983 
L 334.037996 263.09429 
L 335.677665 264.040981 
L 337.317335 264.083989 
L 338.957004 262.320957 
L 340.596674 264.278409 
L 343.876012 264.414208 
L 345.515682 263.99164 
L 347.155351 264.481592 
L 348.795021 264.363025 
L 350.43469 263.437028 
L 352.07436 264.225827 
L 353.714029 257.962643 
L 355.353698 263.77741 
L 356.993368 263.110713 
L 358.633037 260.063259 
L 360.272707 259.206634 
L 361.912376 264.420394 
L 363.552045 263.968 
L 365.191715 263.869023 
L 366.831384 262.460438 
L 368.471054 264.099896 
L 370.110723 261.821431 
L 371.750393 262.571493 
L 373.390062 264.101663 
L 375.029731 264.437479 
L 376.669401 260.513223 
L 378.30907 264.661504 
L 379.94874 264.127292 
L 381.588409 262.67128 
L 383.228079 264.138338 
L 384.867748 263.854147 
L 386.507417 261.756256 
L 388.147087 264.507735 
L 389.786756 264.541096 
L 393.066095 264.124125 
L 394.705764 263.439606 
L 396.345434 264.112268 
L 397.985103 264.039434 
L 399.624773 260.934097 
L 399.624773 260.934097 
" style="fill:none;stroke:#7f7f7f;stroke-linecap:square;stroke-width:0.5;"/>
   </g>
   <g id="line2d_25">
    <path clip-path="url(#p1cc3def74d)" d="M 74.970227 256.531376 
L 76.609897 256.528062 
L 78.249566 227.182927 
L 79.889236 251.366295 
L 81.528905 251.292431 
L 83.168574 253.114157 
L 84.808244 214.168228 
L 86.447913 227.309888 
L 88.087583 256.97103 
L 89.727252 241.394558 
L 91.366921 260.428827 
L 93.006591 255.609945 
L 94.64626 255.567526 
L 96.28593 251.533688 
L 97.925599 264.20992 
L 99.565269 221.608902 
L 101.204938 254.903701 
L 102.844607 259.306274 
L 104.484277 254.226399 
L 106.123946 260.67789 
L 107.763616 213.543876 
L 109.403285 253.651315 
L 111.042955 252.730473 
L 112.682624 248.896651 
L 114.322293 255.924552 
L 115.961963 251.182112 
L 117.601632 221.87343 
L 119.241302 260.561238 
L 120.880971 218.134756 
L 122.52064 258.474836 
L 124.16031 257.630584 
L 125.799979 202.190433 
L 127.439649 242.959562 
L 129.079318 252.754776 
L 130.718988 260.324326 
L 132.358657 258.782004 
L 133.998326 255.657593 
L 135.637996 259.130855 
L 137.277665 261.174912 
L 138.917335 261.631872 
L 140.557004 193.04056 
L 142.196674 182.895613 
L 143.836343 220.267259 
L 145.476012 225.023543 
L 147.115682 259.592233 
L 148.755351 253.985952 
L 152.03469 259.998305 
L 153.67436 254.032937 
L 155.314029 251.481843 
L 156.953698 236.455195 
L 158.593368 225.70195 
L 160.233037 252.896613 
L 161.872707 252.459317 
L 163.512376 258.381087 
L 165.152045 245.68858 
L 166.791715 260.254438 
L 168.431384 259.099851 
L 170.071054 257.101306 
L 171.710723 257.170163 
L 173.350393 261.302021 
L 174.990062 257.06824 
L 176.629731 260.91112 
L 178.269401 255.168524 
L 179.90907 250.531028 
L 181.54874 263.484234 
L 183.188409 251.949996 
L 184.828079 256.977879 
L 186.467748 259.305833 
L 188.107417 260.119449 
L 189.747087 261.485983 
L 191.386756 257.895775 
L 193.026426 261.20378 
L 194.666095 244.121808 
L 196.305764 254.982574 
L 197.945434 170.574123 
L 199.585103 253.331996 
L 201.224773 259.005145 
L 202.864442 260.546289 
L 204.504112 260.010677 
L 206.143781 257.784131 
L 207.78345 256.416492 
L 209.42312 250.785393 
L 211.062789 248.696855 
L 212.702459 225.098071 
L 214.342128 252.760299 
L 215.981798 241.643032 
L 217.621467 254.274194 
L 219.261136 254.852813 
L 220.900806 254.500796 
L 222.540475 234.161412 
L 224.180145 136.232329 
L 225.819814 218.227326 
L 227.459483 253.489299 
L 229.099153 262.824238 
L 230.738822 232.066246 
L 232.378492 175.492055 
L 234.018161 125.557294 
L 235.657831 255.793392 
L 237.2975 157.377229 
L 238.937169 264.715853 
L 240.576839 200.294474 
L 242.216508 197.181183 
L 243.856178 200.58684 
L 245.495847 237.550278 
L 247.135517 233.939965 
L 248.775186 219.891455 
L 250.414855 169.9536 
L 252.054525 256.630133 
L 253.694194 225.40951 
L 255.333864 224.202857 
L 256.973533 217.410911 
L 258.613202 257.740239 
L 260.252872 260.922166 
L 261.892541 216.789431 
L 263.532211 67.981032 
L 265.17188 224.169791 
L 266.81155 259.002273 
L 268.451219 215.620262 
L 270.090888 255.504929 
L 271.730558 192.01183 
L 273.370227 259.614768 
L 275.009897 155.177416 
L 276.649566 191.388509 
L 278.289236 185.678538 
L 279.928905 239.736394 
L 281.568574 257.122736 
L 283.208244 167.619239 
L 284.847913 260.5633 
L 286.487583 204.07461 
L 288.127252 235.640548 
L 289.766921 229.056866 
L 291.406591 256.308383 
L 293.04626 249.146451 
L 294.68593 187.126301 
L 296.325599 255.865047 
L 297.965269 256.43505 
L 299.604938 262.641381 
L 301.244607 215.367075 
L 302.884277 255.651186 
L 304.523946 253.768851 
L 306.163616 262.242673 
L 307.803285 257.02398 
L 309.442955 254.972043 
L 311.082624 196.029836 
L 312.722293 259.017959 
L 314.361963 257.532932 
L 317.641302 188.870996 
L 319.280971 196.848828 
L 320.92064 205.591451 
L 322.56031 239.649863 
L 324.199979 245.340024 
L 325.839649 261.272269 
L 327.479318 257.0826 
L 329.118988 263.929779 
L 330.758657 263.097309 
L 332.398326 234.468139 
L 334.037996 257.435354 
L 335.677665 250.806603 
L 337.317335 262.783808 
L 338.957004 228.515143 
L 340.596674 260.135504 
L 342.236343 263.236644 
L 343.876012 260.37109 
L 345.515682 263.457649 
L 347.155351 260.633115 
L 348.795021 261.02431 
L 350.43469 263.140686 
L 352.07436 238.917475 
L 353.714029 60.669308 
L 355.353698 260.798813 
L 356.993368 262.357263 
L 358.633037 262.432085 
L 360.272707 260.29914 
L 361.912376 212.833139 
L 363.552045 253.008331 
L 365.191715 259.193894 
L 366.831384 90.918348 
L 368.471054 259.396562 
L 370.110723 263.057984 
L 371.750393 261.468382 
L 373.390062 76.865124 
L 375.029731 243.90478 
L 376.669401 256.61452 
L 378.30907 249.819481 
L 379.94874 184.399566 
L 381.588409 217.160817 
L 381.588409 217.160817 
" style="fill:none;stroke:#bcbd22;stroke-linecap:square;stroke-width:0.5;"/>
   </g>
   <g id="line2d_26">
    <path clip-path="url(#p1cc3def74d)" d="M 74.970227 197.99966 
L 76.609897 113.003016 
L 78.249566 218.095356 
L 79.889236 190.9736 
L 81.528905 184.695762 
L 83.168574 121.748731 
L 84.808244 112.708072 
L 86.447913 204.207831 
L 88.087583 250.180704 
L 89.727252 247.145475 
L 91.366921 202.68311 
L 93.006591 242.434114 
L 94.64626 88.349137 
L 96.28593 182.401021 
L 97.925599 205.726366 
L 99.565269 230.749864 
L 101.204938 124.966671 
L 102.844607 218.00124 
L 104.484277 229.273453 
L 106.123946 237.224184 
L 107.763616 253.30622 
L 109.403285 189.602721 
L 111.042955 171.221746 
L 112.682624 133.699719 
L 114.322293 206.078015 
L 115.961963 213.293413 
L 117.601632 111.307367 
L 119.241302 192.810129 
L 120.880971 244.416752 
L 122.52064 183.926626 
L 124.16031 192.309204 
L 125.799979 158.003791 
L 127.439649 206.705166 
L 129.079318 219.273436 
L 132.358657 227.984981 
L 133.998326 226.748207 
L 135.637996 98.019156 
L 137.277665 245.732914 
L 138.917335 214.516268 
L 140.557004 198.810183 
L 142.196674 264.715411 
L 143.836343 229.611183 
L 145.476012 112.488467 
L 147.115682 235.433388 
L 148.755351 195.981673 
L 150.395021 196.163794 
L 152.03469 175.504943 
L 153.67436 264.716 
L 155.314029 264.712612 
L 156.953698 263.969694 
L 158.593368 260.267179 
L 160.233037 200.103884 
L 161.872707 244.971658 
L 163.512376 258.418204 
L 165.152045 232.236584 
L 166.791715 187.16165 
L 168.431384 175.980093 
L 170.071054 206.629755 
L 171.710723 206.154605 
L 173.350393 164.025717 
L 174.990062 210.693566 
L 176.629731 103.667855 
L 178.269401 126.967793 
L 179.90907 219.916862 
L 181.54874 244.540105 
L 183.188409 197.180004 
L 184.828079 210.871784 
L 186.467748 254.246651 
L 188.107417 202.048964 
L 189.747087 254.243411 
L 191.386756 255.64036 
L 193.026426 218.579491 
L 194.666095 135.443383 
L 196.305764 168.307588 
L 197.945434 34.060481 
L 199.585103 238.682994 
L 201.224773 173.972342 
L 202.864442 221.648522 
L 204.504112 194.504231 
L 206.143781 241.092029 
L 207.78345 253.533927 
L 209.42312 198.086486 
L 211.062789 259.511667 
L 212.702459 212.632902 
L 214.342128 103.950942 
L 215.981798 257.112205 
L 217.621467 255.111156 
L 219.261136 98.451224 
L 220.900806 183.27046 
L 222.540475 134.36406 
L 224.180145 172.882414 
L 225.819814 55.284106 
L 227.459483 259.903599 
L 229.099153 205.381713 
L 230.738822 204.340243 
L 232.378492 198.372224 
L 234.018161 221.218884 
L 235.657831 186.688563 
L 237.2975 250.543326 
L 238.937169 227.326826 
L 240.576839 160.468575 
L 242.216508 229.012459 
L 243.856178 216.576527 
L 245.495847 218.28359 
L 247.135517 249.246606 
L 248.775186 190.161236 
L 250.414855 202.193305 
L 252.054525 205.198414 
L 253.694194 246.100323 
L 255.333864 254.996051 
L 256.973533 255.516639 
L 258.613202 126.328344 
L 260.252872 143.344258 
L 261.892541 107.547705 
L 263.532211 207.277231 
L 265.17188 124.452931 
L 266.81155 197.505436 
L 268.451219 255.919765 
L 270.090888 187.404822 
L 271.730558 152.818973 
L 273.370227 234.232037 
L 275.009897 137.782237 
L 276.649566 227.278811 
L 278.289236 259.364453 
L 279.928905 209.752914 
L 281.568574 230.421265 
L 283.208244 147.526783 
L 284.847913 221.150101 
L 286.487583 214.783963 
L 288.127252 190.19003 
L 289.766921 212.817821 
L 291.406591 224.410238 
L 293.04626 166.892007 
L 294.68593 254.946783 
L 296.325599 217.965228 
L 297.965269 131.004872 
L 299.604938 161.377413 
L 301.244607 181.790072 
L 302.884277 227.984466 
L 304.523946 230.286939 
L 306.163616 175.032592 
L 307.803285 103.943209 
L 309.442955 189.684539 
L 311.082624 231.972498 
L 312.722293 262.261379 
L 314.361963 262.111956 
L 316.001632 161.147939 
L 317.641302 260.15929 
L 319.280971 263.976543 
L 320.92064 200.663577 
L 322.56031 258.840993 
L 324.199979 163.482299 
L 325.839649 148.420745 
L 327.479318 70.368711 
L 329.118988 201.478371 
L 330.758657 94.415323 
L 334.037996 211.771122 
L 335.677665 264.712981 
L 337.317335 230.966524 
L 338.957004 207.453092 
L 340.596674 189.054664 
L 342.236343 182.959609 
L 343.876012 68.209622 
L 345.515682 264.688457 
L 347.155351 248.960647 
L 348.795021 211.090801 
L 350.43469 264.713496 
L 352.07436 64.365784 
L 353.714029 206.86269 
L 355.353698 194.766255 
L 356.993368 198.283998 
L 358.633037 218.982764 
L 360.272707 236.850147 
L 361.912376 197.613766 
L 363.552045 209.506502 
L 365.191715 229.623555 
L 366.831384 244.802498 
L 368.471054 186.801679 
L 370.110723 180.39872 
L 371.750393 236.742185 
L 373.390062 244.588857 
L 375.029731 175.586467 
L 376.669401 239.336582 
L 378.30907 193.575362 
L 379.94874 183.136943 
L 381.588409 203.687022 
L 383.228079 141.157921 
L 384.867748 236.385307 
L 386.507417 168.772428 
L 388.147087 221.40837 
L 389.786756 177.1743 
L 391.426426 86.507084 
L 393.066095 226.78989 
L 394.705764 254.800526 
L 396.345434 202.524408 
L 397.985103 207.362879 
L 399.624773 203.76781 
L 399.624773 203.76781 
" style="fill:none;stroke:#17becf;stroke-linecap:square;stroke-width:0.5;"/>
   </g>
   <g id="line2d_27">
    <path clip-path="url(#p1cc3def74d)" d="M 74.970227 164.967474 
L 76.609897 169.144034 
L 78.249566 218.776856 
L 79.889236 202.471384 
L 81.528905 198.819978 
L 83.168574 239.685801 
L 84.808244 246.627538 
L 86.447913 152.178714 
L 88.087583 128.616457 
L 89.727252 222.678209 
L 91.366921 248.281136 
L 93.006591 128.878113 
L 94.64626 166.39933 
L 96.28593 240.037008 
L 97.925599 192.305669 
L 99.565269 261.065035 
L 101.204938 263.800092 
L 102.844607 105.711839 
L 104.484277 174.446829 
L 106.123946 170.225346 
L 107.763616 137.785256 
L 109.403285 180.336344 
L 111.042955 257.241303 
L 112.682624 54.547005 
L 114.322293 234.006466 
L 115.961963 85.860345 
L 117.601632 205.46228 
L 119.241302 144.138948 
L 120.880971 97.210989 
L 122.52064 138.93189 
L 124.16031 109.264931 
L 125.799979 77.344103 
L 127.439649 213.149808 
L 129.079318 260.089992 
L 130.718988 200.444928 
L 132.358657 241.781703 
L 133.998326 147.525752 
L 135.637996 253.929099 
L 137.277665 100.577394 
L 138.917335 160.647455 
L 140.557004 243.294273 
L 142.196674 152.37387 
L 143.836343 116.474731 
L 145.476012 251.909934 
L 147.115682 241.553408 
L 148.755351 207.254917 
L 150.395021 225.414371 
L 152.03469 110.271494 
L 153.67436 215.681902 
L 155.314029 258.25442 
L 156.953698 184.866247 
L 158.593368 218.940493 
L 160.233037 256.999456 
L 161.872707 254.567002 
L 163.512376 197.208578 
L 165.152045 202.71544 
L 166.791715 237.921222 
L 168.431384 66.271465 
L 170.071054 164.912462 
L 171.710723 194.606448 
L 173.350393 107.299525 
L 174.990062 218.621689 
L 176.629731 89.736512 
L 178.269401 206.085601 
L 179.90907 246.186339 
L 181.54874 139.713987 
L 183.188409 217.293155 
L 184.828079 143.132826 
L 186.467748 171.685187 
L 188.107417 160.211926 
L 189.747087 217.516663 
L 191.386756 233.196016 
L 193.026426 123.827254 
L 194.666095 145.176957 
L 196.305764 219.741737 
L 199.585103 178.650932 
L 201.224773 261.141551 
L 202.864442 241.515923 
L 204.504112 261.432813 
L 207.78345 203.498715 
L 209.42312 243.986893 
L 211.062789 187.851545 
L 212.702459 171.817304 
L 214.342128 248.107852 
L 215.981798 250.338081 
L 217.621467 259.081955 
L 219.261136 101.816892 
L 220.900806 171.548062 
L 222.540475 205.646168 
L 224.180145 157.443288 
L 225.819814 263.293717 
L 227.459483 243.300975 
L 229.099153 183.20337 
L 230.738822 223.833754 
L 232.378492 77.941649 
L 234.018161 115.725553 
L 235.657831 251.437804 
L 237.2975 180.607132 
L 238.937169 167.838551 
L 240.576839 247.355802 
L 242.216508 166.015867 
L 243.856178 253.669726 
L 245.495847 187.949492 
L 247.135517 163.544823 
L 248.775186 164.256296 
L 250.414855 249.479983 
L 252.054525 196.288178 
L 253.694194 105.701528 
L 255.333864 234.282556 
L 256.973533 202.742909 
L 258.613202 152.174958 
L 260.252872 134.230765 
L 261.892541 162.145149 
L 263.532211 233.779348 
L 265.17188 255.73212 
L 266.81155 259.348988 
L 268.451219 166.205131 
L 270.090888 120.353623 
L 271.730558 222.44277 
L 273.370227 253.532012 
L 275.009897 192.748342 
L 276.649566 104.721256 
L 278.289236 217.190569 
L 279.928905 162.450034 
L 281.568574 219.072978 
L 283.208244 166.979275 
L 284.847913 204.603888 
L 286.487583 236.133887 
L 288.127252 193.700924 
L 289.766921 216.535139 
L 291.406591 114.135436 
L 293.04626 52.465831 
L 294.68593 177.072966 
L 296.325599 148.846995 
L 297.965269 152.402738 
L 299.604938 93.188638 
L 301.244607 241.328868 
L 302.884277 181.96748 
L 304.523946 213.615826 
L 306.163616 201.200292 
L 307.803285 192.190122 
L 309.442955 121.232783 
L 311.082624 223.381655 
L 312.722293 204.471771 
L 314.361963 209.963167 
L 316.001632 207.211172 
L 317.641302 239.225822 
L 319.280971 138.822971 
L 320.92064 123.561031 
L 322.56031 222.637705 
L 324.199979 165.874913 
L 325.839649 141.689555 
L 327.479318 256.728594 
L 329.118988 131.995528 
L 330.758657 247.458535 
L 332.398326 208.078181 
L 334.037996 230.069837 
L 335.677665 243.997424 
L 337.317335 249.158455 
L 338.957004 246.501902 
L 340.596674 245.15238 
L 342.236343 213.245471 
L 343.876012 158.984947 
L 345.515682 243.956036 
L 347.155351 257.873461 
L 348.795021 150.824626 
L 350.43469 236.092279 
L 352.07436 239.683224 
L 353.714029 205.622234 
L 355.353698 72.547241 
L 356.993368 238.945755 
L 358.633037 246.940893 
L 360.272707 172.921592 
L 361.912376 158.086861 
L 363.552045 208.6948 
L 365.191715 243.917521 
L 366.831384 192.954545 
L 368.471054 219.765156 
L 370.110723 160.105879 
L 371.750393 190.272364 
L 373.390062 211.31998 
L 375.029731 238.664509 
L 376.669401 151.898868 
L 379.94874 243.264006 
L 381.588409 211.491055 
L 383.228079 244.51919 
L 384.867748 205.366248 
L 386.507417 141.787649 
L 388.147087 207.24306 
L 389.786756 164.662883 
L 391.426426 116.151214 
L 393.066095 185.337052 
L 394.705764 202.434783 
L 394.705764 202.434783 
" style="fill:none;stroke:#1f77b4;stroke-linecap:square;stroke-width:0.5;"/>
   </g>
   <g id="line2d_28">
    <path clip-path="url(#p1cc3def74d)" d="M 74.970227 262.295402 
L 76.609897 229.90296 
L 78.249566 190.146801 
L 79.889236 254.551463 
L 81.528905 264.576077 
L 83.168574 167.994528 
L 84.808244 248.828089 
L 86.447913 236.353272 
L 88.087583 263.671731 
L 89.727252 264.227005 
L 91.366921 222.10666 
L 93.006591 185.944097 
L 94.64626 260.633409 
L 96.28593 259.328662 
L 97.925599 263.73234 
L 99.565269 258.73745 
L 101.204938 234.429549 
L 102.844607 260.768104 
L 104.484277 262.311236 
L 106.123946 261.601604 
L 107.763616 254.424133 
L 109.403285 263.141422 
L 111.042955 227.563002 
L 112.682624 262.793971 
L 114.322293 263.667386 
L 115.961963 262.511326 
L 117.601632 247.662455 
L 119.241302 166.924337 
L 120.880971 254.275814 
L 122.52064 261.764872 
L 124.16031 234.816547 
L 125.799979 260.339865 
L 127.439649 263.141201 
L 129.079318 261.043826 
L 130.718988 212.333982 
L 132.358657 261.708461 
L 133.998326 252.941978 
L 135.637996 206.46494 
L 137.277665 255.586158 
L 138.917335 242.14219 
L 140.557004 252.061346 
L 142.196674 264.225901 
L 143.836343 261.272785 
L 145.476012 248.637351 
L 147.115682 245.763181 
L 148.755351 248.184295 
L 150.395021 256.598834 
L 152.03469 236.659925 
L 153.67436 261.98411 
L 155.314029 217.594947 
L 156.953698 260.718173 
L 158.593368 258.173854 
L 160.233037 260.9475 
L 161.872707 245.904798 
L 163.512376 260.846166 
L 165.152045 263.267648 
L 166.791715 189.547341 
L 168.431384 202.036739 
L 170.071054 201.186447 
L 171.710723 240.305366 
L 173.350393 256.169564 
L 174.990062 252.984618 
L 176.629731 259.017959 
L 178.269401 236.978508 
L 179.90907 212.753089 
L 181.54874 262.620761 
L 183.188409 262.047444 
L 184.828079 241.224146 
L 186.467748 261.477441 
L 188.107417 258.797396 
L 189.747087 240.129505 
L 191.386756 262.790362 
L 193.026426 140.20335 
L 194.666095 258.508786 
L 196.305764 256.796789 
L 197.945434 261.675322 
L 199.585103 263.840449 
L 201.224773 258.705415 
L 202.864442 261.009213 
L 204.504112 180.42096 
L 206.143781 260.267547 
L 207.78345 218.147938 
L 209.42312 242.68627 
L 211.062789 261.189125 
L 212.702459 263.864383 
L 214.342128 264.155939 
L 215.981798 260.137418 
L 217.621467 253.548508 
L 219.261136 23.180642 
L 220.900806 258.89571 
L 222.540475 256.797967 
L 224.180145 259.467628 
L 225.819814 252.793807 
L 227.459483 264.037446 
L 229.099153 261.621562 
L 230.738822 263.861953 
L 232.378492 262.79537 
L 234.018161 258.262005 
L 235.657831 259.049773 
L 237.2975 261.771795 
L 238.937169 249.778904 
L 240.576839 245.678859 
L 242.216508 247.169189 
L 243.856178 233.5227 
L 245.495847 261.873792 
L 247.135517 147.710451 
L 248.775186 136.596203 
L 250.414855 240.459208 
L 252.054525 237.062683 
L 253.694194 255.623864 
L 255.333864 252.596662 
L 256.973533 261.148032 
L 258.613202 179.378091 
L 260.252872 263.541529 
L 261.892541 260.206496 
L 263.532211 258.347432 
L 265.17188 253.220131 
L 266.81155 253.535621 
L 268.451219 214.308298 
L 270.090888 235.594005 
L 271.730558 262.963057 
L 273.370227 260.221888 
L 275.009897 261.213428 
L 276.649566 263.402047 
L 278.289236 253.800075 
L 279.928905 222.894943 
L 281.568574 263.721367 
L 283.208244 185.446634 
L 284.847913 260.956116 
L 286.487583 238.018432 
L 288.127252 263.430548 
L 289.766921 256.805479 
L 291.406591 242.572859 
L 294.68593 262.988611 
L 296.325599 260.259299 
L 297.965269 263.587335 
L 299.604938 261.907079 
L 301.244607 257.08584 
L 302.884277 256.322817 
L 304.523946 254.716352 
L 306.163616 256.406624 
L 307.803285 263.794274 
L 309.442955 231.423999 
L 311.082624 259.860444 
L 312.722293 260.365346 
L 314.361963 261.796245 
L 316.001632 256.292991 
L 317.641302 262.221979 
L 319.280971 262.797211 
L 320.92064 227.116647 
L 322.56031 258.079148 
L 324.199979 254.090821 
L 325.839649 261.374413 
L 327.479318 262.610303 
L 329.118988 258.864706 
L 330.758657 264.114404 
L 332.398326 263.468253 
L 334.037996 260.668169 
L 335.677665 208.08282 
L 337.317335 246.125141 
L 338.957004 262.068653 
L 340.596674 259.758595 
L 342.236343 216.06809 
L 343.876012 260.572211 
L 345.515682 250.175181 
L 347.155351 255.414274 
L 348.795021 246.725116 
L 350.43469 256.341523 
L 352.07436 261.410719 
L 353.714029 255.160203 
L 355.353698 257.421288 
L 356.993368 261.303715 
L 358.633037 259.927313 
L 360.272707 256.595299 
L 361.912376 234.907276 
L 363.552045 251.848147 
L 365.191715 250.327255 
L 366.831384 235.333969 
L 368.471054 263.207186 
L 370.110723 236.137643 
L 371.750393 262.060847 
L 373.390062 260.512339 
L 375.029731 262.62702 
L 376.669401 263.579308 
L 378.30907 250.371147 
L 379.94874 255.987885 
L 381.588409 262.700664 
L 383.228079 261.572736 
L 384.867748 256.613636 
L 386.507417 253.390248 
L 388.147087 206.799062 
L 389.786756 152.88157 
L 389.786756 152.88157 
" style="fill:none;stroke:#ff7f0e;stroke-linecap:square;stroke-width:0.5;"/>
   </g>
   <g id="line2d_29">
    <path clip-path="url(#p1cc3def74d)" d="M 74.970227 260.41292 
L 76.609897 256.501256 
L 78.249566 260.799991 
L 79.889236 263.139876 
L 83.168574 261.704043 
L 84.808244 257.135108 
L 86.447913 252.928648 
L 88.087583 263.480552 
L 89.727252 261.86952 
L 91.366921 262.041184 
L 93.006591 218.196396 
L 94.64626 257.13393 
L 96.28593 234.519984 
L 97.925599 263.491598 
L 99.565269 255.573713 
L 101.204938 261.763547 
L 102.844607 260.306063 
L 104.484277 260.815309 
L 106.123946 261.789469 
L 107.763616 258.467987 
L 109.403285 263.502056 
L 111.042955 263.780282 
L 112.682624 263.734696 
L 114.322293 262.660896 
L 115.961963 262.184863 
L 117.601632 260.929604 
L 119.241302 262.529737 
L 120.880971 257.096961 
L 122.52064 263.79965 
L 124.16031 263.132879 
L 125.799979 260.506889 
L 127.439649 262.797947 
L 129.079318 263.95607 
L 130.718988 262.009812 
L 132.358657 263.515606 
L 133.998326 262.315728 
L 135.637996 263.886918 
L 137.277665 264.012996 
L 138.917335 261.857516 
L 140.557004 262.207766 
L 142.196674 264.347045 
L 143.836343 236.994636 
L 145.476012 261.708682 
L 147.115682 262.680633 
L 148.755351 262.510442 
L 150.395021 259.074886 
L 152.03469 264.313389 
L 153.67436 263.428927 
L 155.314029 258.724268 
L 156.953698 263.864236 
L 158.593368 261.351804 
L 160.233037 257.912418 
L 161.872707 264.219052 
L 163.512376 264.020876 
L 165.152045 263.192678 
L 166.791715 263.562738 
L 168.431384 256.861742 
L 170.071054 264.11816 
L 171.710723 263.841922 
L 173.350393 264.27561 
L 174.990062 262.899576 
L 176.629731 264.604503 
L 178.269401 263.790518 
L 179.90907 260.053243 
L 181.54874 264.457363 
L 183.188409 263.564211 
L 184.828079 260.453497 
L 186.467748 264.333641 
L 188.107417 262.555144 
L 189.747087 260.436707 
L 191.386756 263.71982 
L 193.026426 264.227005 
L 194.666095 264.454933 
L 196.305764 264.20447 
L 197.945434 261.644907 
L 199.585103 263.005697 
L 201.224773 261.993389 
L 202.864442 263.385183 
L 204.504112 264.449851 
L 206.143781 263.98376 
L 207.78345 262.80568 
L 209.42312 264.083694 
L 212.702459 264.256831 
L 214.342128 263.994291 
L 215.981798 263.17817 
L 217.621467 261.424785 
L 219.261136 264.486231 
L 220.900806 264.129722 
L 222.540475 262.965782 
L 224.180145 263.364857 
L 225.819814 263.643599 
L 227.459483 262.713699 
L 229.099153 264.610616 
L 230.738822 263.983613 
L 232.378492 263.791034 
L 234.018161 264.226858 
L 235.657831 264.117497 
L 237.2975 262.925425 
L 238.937169 264.214854 
L 240.576839 262.573776 
L 242.216508 264.503243 
L 243.856178 257.103515 
L 245.495847 263.015049 
L 248.775186 264.429968 
L 250.414855 263.862984 
L 252.054525 261.223959 
L 253.694194 263.74729 
L 255.333864 263.71334 
L 256.973533 264.505747 
L 258.613202 264.167943 
L 260.252872 246.268083 
L 261.892541 263.961667 
L 263.532211 264.339754 
L 265.17188 263.73639 
L 266.81155 261.961428 
L 268.451219 262.254972 
L 270.090888 262.345848 
L 271.730558 263.87462 
L 273.370227 264.046946 
L 275.009897 239.530928 
L 276.649566 263.124189 
L 278.289236 264.072942 
L 281.568574 262.588946 
L 283.208244 263.230605 
L 284.847913 260.195155 
L 288.127252 251.817364 
L 289.766921 264.560096 
L 291.406591 250.260755 
L 293.04626 263.814674 
L 294.68593 257.585955 
L 296.325599 264.20528 
L 297.965269 221.781965 
L 299.604938 210.611012 
L 301.244607 264.26611 
L 302.884277 263.859302 
L 304.523946 262.565086 
L 306.163616 263.624599 
L 307.803285 261.087497 
L 311.082624 263.722472 
L 312.722293 262.341282 
L 314.361963 261.829605 
L 316.001632 236.023274 
L 317.641302 259.314449 
L 319.280971 264.111532 
L 320.92064 263.594847 
L 322.56031 264.066609 
L 324.199979 264.659368 
L 325.839649 264.223028 
L 327.479318 262.195026 
L 329.118988 234.103086 
L 330.758657 250.037835 
L 332.398326 261.074094 
L 334.037996 262.686966 
L 335.677665 157.843173 
L 337.317335 235.627586 
L 338.957004 263.281345 
L 340.596674 248.139814 
L 342.236343 263.552134 
L 343.876012 264.36818 
L 345.515682 263.674235 
L 347.155351 250.307887 
L 348.795021 261.389952 
L 350.43469 263.627692 
L 352.07436 242.37542 
L 353.714029 264.163745 
L 355.353698 263.679979 
L 356.993368 225.668589 
L 358.633037 263.758999 
L 360.272707 264.469809 
L 361.912376 263.286795 
L 363.552045 263.009894 
L 365.191715 264.453607 
L 366.831384 225.299413 
L 368.471054 263.995985 
L 370.110723 263.227659 
L 371.750393 258.481243 
L 373.390062 259.330577 
L 375.029731 240.83921 
L 376.669401 248.882585 
L 378.30907 262.075281 
L 379.94874 263.817988 
L 381.588409 245.053108 
L 383.228079 262.059227 
L 384.867748 262.218886 
L 386.507417 263.878965 
L 388.147087 263.907833 
L 389.786756 264.370242 
L 391.426426 261.446658 
L 393.066095 262.839777 
L 394.705764 262.708176 
L 396.345434 264.270529 
L 397.985103 261.907889 
L 399.624773 263.987737 
L 399.624773 263.987737 
" style="fill:none;stroke:#2ca02c;stroke-linecap:square;stroke-width:0.5;"/>
   </g>
   <g id="patch_3">
    <path d="M 58.7375 276.812 
L 58.7375 10.7 
" style="fill:none;stroke:#000000;stroke-linecap:square;stroke-linejoin:miter;stroke-width:0.8;"/>
   </g>
   <g id="patch_4">
    <path d="M 415.8575 276.812 
L 415.8575 10.7 
" style="fill:none;stroke:#000000;stroke-linecap:square;stroke-linejoin:miter;stroke-width:0.8;"/>
   </g>
   <g id="patch_5">
    <path d="M 58.7375 276.812 
L 415.8575 276.812 
" style="fill:none;stroke:#000000;stroke-linecap:square;stroke-linejoin:miter;stroke-width:0.8;"/>
   </g>
   <g id="patch_6">
    <path d="M 58.7375 10.7 
L 415.8575 10.7 
" style="fill:none;stroke:#000000;stroke-linecap:square;stroke-linejoin:miter;stroke-width:0.8;"/>
   </g>
  </g>
 </g>
 <defs>
  <clipPath id="p1cc3def74d">
   <rect height="266.112" width="357.12" x="58.7375" y="10.7"/>
  </clipPath>
 </defs>
</svg>
