<?xml version="1.0" encoding="utf-8" standalone="no"?>
<!DOCTYPE svg PUBLIC "-//W3C//DTD SVG 1.1//EN"
  "http://www.w3.org/Graphics/SVG/1.1/DTD/svg11.dtd">
<!-- Created with matplotlib (http://matplotlib.org/) -->
<svg height="300pt" version="1.1" viewBox="0 0 420 300" width="420pt" xmlns="http://www.w3.org/2000/svg" xmlns:xlink="http://www.w3.org/1999/xlink">
 <defs>
  <style type="text/css">
*{stroke-linecap:butt;stroke-linejoin:round;}
  </style>
 </defs>
 <g id="figure_1">
  <g id="patch_1">
   <path d="M 0 300.690125 
L 420.195 300.690125 
L 420.195 0 
L 0 0 
z
" style="fill:#ffffff;"/>
  </g>
  <g id="axes_1">
   <g id="patch_2">
    <path d="M 52.375 276.812 
L 409.495 276.812 
L 409.495 10.7 
L 52.375 10.7 
z
" style="fill:#ffffff;"/>
   </g>
   <g id="matplotlib.axis_1">
    <g id="xtick_1">
     <g id="line2d_1">
      <defs>
       <path d="M 0 0 
L 0 3.5 
" id="m71be9666c0" style="stroke:#000000;stroke-width:0.8;"/>
      </defs>
      <g>
       <use style="stroke:#000000;stroke-width:0.8;" x="68.607727" xlink:href="#m71be9666c0" y="276.812"/>
      </g>
     </g>
     <g id="text_1">
      <!-- 0 -->
      <defs>
       <path d="M 31.78125 66.40625 
Q 24.171875 66.40625 20.328125 58.90625 
Q 16.5 51.421875 16.5 36.375 
Q 16.5 21.390625 20.328125 13.890625 
Q 24.171875 6.390625 31.78125 6.390625 
Q 39.453125 6.390625 43.28125 13.890625 
Q 47.125 21.390625 47.125 36.375 
Q 47.125 51.421875 43.28125 58.90625 
Q 39.453125 66.40625 31.78125 66.40625 
z
M 31.78125 74.21875 
Q 44.046875 74.21875 50.515625 64.515625 
Q 56.984375 54.828125 56.984375 36.375 
Q 56.984375 17.96875 50.515625 8.265625 
Q 44.046875 -1.421875 31.78125 -1.421875 
Q 19.53125 -1.421875 13.0625 8.265625 
Q 6.59375 17.96875 6.59375 36.375 
Q 6.59375 54.828125 13.0625 64.515625 
Q 19.53125 74.21875 31.78125 74.21875 
z
" id="DejaVuSans-30"/>
      </defs>
      <g transform="translate(65.426477 291.410437)scale(0.1 -0.1)">
       <use xlink:href="#DejaVuSans-30"/>
      </g>
     </g>
    </g>
    <g id="xtick_2">
     <g id="line2d_2">
      <g>
       <use style="stroke:#000000;stroke-width:0.8;" x="109.599463" xlink:href="#m71be9666c0" y="276.812"/>
      </g>
     </g>
     <g id="text_2">
      <!-- 25 -->
      <defs>
       <path d="M 19.1875 8.296875 
L 53.609375 8.296875 
L 53.609375 0 
L 7.328125 0 
L 7.328125 8.296875 
Q 12.9375 14.109375 22.625 23.890625 
Q 32.328125 33.6875 34.8125 36.53125 
Q 39.546875 41.84375 41.421875 45.53125 
Q 43.3125 49.21875 43.3125 52.78125 
Q 43.3125 58.59375 39.234375 62.25 
Q 35.15625 65.921875 28.609375 65.921875 
Q 23.96875 65.921875 18.8125 64.3125 
Q 13.671875 62.703125 7.8125 59.421875 
L 7.8125 69.390625 
Q 13.765625 71.78125 18.9375 73 
Q 24.125 74.21875 28.421875 74.21875 
Q 39.75 74.21875 46.484375 68.546875 
Q 53.21875 62.890625 53.21875 53.421875 
Q 53.21875 48.921875 51.53125 44.890625 
Q 49.859375 40.875 45.40625 35.40625 
Q 44.1875 33.984375 37.640625 27.21875 
Q 31.109375 20.453125 19.1875 8.296875 
z
" id="DejaVuSans-32"/>
       <path d="M 10.796875 72.90625 
L 49.515625 72.90625 
L 49.515625 64.59375 
L 19.828125 64.59375 
L 19.828125 46.734375 
Q 21.96875 47.46875 24.109375 47.828125 
Q 26.265625 48.1875 28.421875 48.1875 
Q 40.625 48.1875 47.75 41.5 
Q 54.890625 34.8125 54.890625 23.390625 
Q 54.890625 11.625 47.5625 5.09375 
Q 40.234375 -1.421875 26.90625 -1.421875 
Q 22.3125 -1.421875 17.546875 -0.640625 
Q 12.796875 0.140625 7.71875 1.703125 
L 7.71875 11.625 
Q 12.109375 9.234375 16.796875 8.0625 
Q 21.484375 6.890625 26.703125 6.890625 
Q 35.15625 6.890625 40.078125 11.328125 
Q 45.015625 15.765625 45.015625 23.390625 
Q 45.015625 31 40.078125 35.4375 
Q 35.15625 39.890625 26.703125 39.890625 
Q 22.75 39.890625 18.8125 39.015625 
Q 14.890625 38.140625 10.796875 36.28125 
z
" id="DejaVuSans-35"/>
      </defs>
      <g transform="translate(103.236963 291.410437)scale(0.1 -0.1)">
       <use xlink:href="#DejaVuSans-32"/>
       <use x="63.623047" xlink:href="#DejaVuSans-35"/>
      </g>
     </g>
    </g>
    <g id="xtick_3">
     <g id="line2d_3">
      <g>
       <use style="stroke:#000000;stroke-width:0.8;" x="150.591198" xlink:href="#m71be9666c0" y="276.812"/>
      </g>
     </g>
     <g id="text_3">
      <!-- 50 -->
      <g transform="translate(144.228698 291.410437)scale(0.1 -0.1)">
       <use xlink:href="#DejaVuSans-35"/>
       <use x="63.623047" xlink:href="#DejaVuSans-30"/>
      </g>
     </g>
    </g>
    <g id="xtick_4">
     <g id="line2d_4">
      <g>
       <use style="stroke:#000000;stroke-width:0.8;" x="191.582934" xlink:href="#m71be9666c0" y="276.812"/>
      </g>
     </g>
     <g id="text_4">
      <!-- 75 -->
      <defs>
       <path d="M 8.203125 72.90625 
L 55.078125 72.90625 
L 55.078125 68.703125 
L 28.609375 0 
L 18.3125 0 
L 43.21875 64.59375 
L 8.203125 64.59375 
z
" id="DejaVuSans-37"/>
      </defs>
      <g transform="translate(185.220434 291.410437)scale(0.1 -0.1)">
       <use xlink:href="#DejaVuSans-37"/>
       <use x="63.623047" xlink:href="#DejaVuSans-35"/>
      </g>
     </g>
    </g>
    <g id="xtick_5">
     <g id="line2d_5">
      <g>
       <use style="stroke:#000000;stroke-width:0.8;" x="232.574669" xlink:href="#m71be9666c0" y="276.812"/>
      </g>
     </g>
     <g id="text_5">
      <!-- 100 -->
      <defs>
       <path d="M 12.40625 8.296875 
L 28.515625 8.296875 
L 28.515625 63.921875 
L 10.984375 60.40625 
L 10.984375 69.390625 
L 28.421875 72.90625 
L 38.28125 72.90625 
L 38.28125 8.296875 
L 54.390625 8.296875 
L 54.390625 0 
L 12.40625 0 
z
" id="DejaVuSans-31"/>
      </defs>
      <g transform="translate(223.030919 291.410437)scale(0.1 -0.1)">
       <use xlink:href="#DejaVuSans-31"/>
       <use x="63.623047" xlink:href="#DejaVuSans-30"/>
       <use x="127.246094" xlink:href="#DejaVuSans-30"/>
      </g>
     </g>
    </g>
    <g id="xtick_6">
     <g id="line2d_6">
      <g>
       <use style="stroke:#000000;stroke-width:0.8;" x="273.566405" xlink:href="#m71be9666c0" y="276.812"/>
      </g>
     </g>
     <g id="text_6">
      <!-- 125 -->
      <g transform="translate(264.022655 291.410437)scale(0.1 -0.1)">
       <use xlink:href="#DejaVuSans-31"/>
       <use x="63.623047" xlink:href="#DejaVuSans-32"/>
       <use x="127.246094" xlink:href="#DejaVuSans-35"/>
      </g>
     </g>
    </g>
    <g id="xtick_7">
     <g id="line2d_7">
      <g>
       <use style="stroke:#000000;stroke-width:0.8;" x="314.55814" xlink:href="#m71be9666c0" y="276.812"/>
      </g>
     </g>
     <g id="text_7">
      <!-- 150 -->
      <g transform="translate(305.01439 291.410437)scale(0.1 -0.1)">
       <use xlink:href="#DejaVuSans-31"/>
       <use x="63.623047" xlink:href="#DejaVuSans-35"/>
       <use x="127.246094" xlink:href="#DejaVuSans-30"/>
      </g>
     </g>
    </g>
    <g id="xtick_8">
     <g id="line2d_8">
      <g>
       <use style="stroke:#000000;stroke-width:0.8;" x="355.549876" xlink:href="#m71be9666c0" y="276.812"/>
      </g>
     </g>
     <g id="text_8">
      <!-- 175 -->
      <g transform="translate(346.006126 291.410437)scale(0.1 -0.1)">
       <use xlink:href="#DejaVuSans-31"/>
       <use x="63.623047" xlink:href="#DejaVuSans-37"/>
       <use x="127.246094" xlink:href="#DejaVuSans-35"/>
      </g>
     </g>
    </g>
    <g id="xtick_9">
     <g id="line2d_9">
      <g>
       <use style="stroke:#000000;stroke-width:0.8;" x="396.541612" xlink:href="#m71be9666c0" y="276.812"/>
      </g>
     </g>
     <g id="text_9">
      <!-- 200 -->
      <g transform="translate(386.997862 291.410437)scale(0.1 -0.1)">
       <use xlink:href="#DejaVuSans-32"/>
       <use x="63.623047" xlink:href="#DejaVuSans-30"/>
       <use x="127.246094" xlink:href="#DejaVuSans-30"/>
      </g>
     </g>
    </g>
   </g>
   <g id="matplotlib.axis_2">
    <g id="ytick_1">
     <g id="line2d_10">
      <defs>
       <path d="M 0 0 
L -3.5 0 
" id="m5de9f03b3b" style="stroke:#000000;stroke-width:0.8;"/>
      </defs>
      <g>
       <use style="stroke:#000000;stroke-width:0.8;" x="52.375" xlink:href="#m5de9f03b3b" y="264.716"/>
      </g>
     </g>
     <g id="text_10">
      <!-- 0 -->
      <g transform="translate(39.0125 268.515219)scale(0.1 -0.1)">
       <use xlink:href="#DejaVuSans-30"/>
      </g>
     </g>
    </g>
    <g id="ytick_2">
     <g id="line2d_11">
      <g>
       <use style="stroke:#000000;stroke-width:0.8;" x="52.375" xlink:href="#m5de9f03b3b" y="206.69208"/>
      </g>
     </g>
     <g id="text_11">
      <!-- 200000 -->
      <g transform="translate(7.2 210.491299)scale(0.1 -0.1)">
       <use xlink:href="#DejaVuSans-32"/>
       <use x="63.623047" xlink:href="#DejaVuSans-30"/>
       <use x="127.246094" xlink:href="#DejaVuSans-30"/>
       <use x="190.869141" xlink:href="#DejaVuSans-30"/>
       <use x="254.492188" xlink:href="#DejaVuSans-30"/>
       <use x="318.115234" xlink:href="#DejaVuSans-30"/>
      </g>
     </g>
    </g>
    <g id="ytick_3">
     <g id="line2d_12">
      <g>
       <use style="stroke:#000000;stroke-width:0.8;" x="52.375" xlink:href="#m5de9f03b3b" y="148.66816"/>
      </g>
     </g>
     <g id="text_12">
      <!-- 400000 -->
      <defs>
       <path d="M 37.796875 64.3125 
L 12.890625 25.390625 
L 37.796875 25.390625 
z
M 35.203125 72.90625 
L 47.609375 72.90625 
L 47.609375 25.390625 
L 58.015625 25.390625 
L 58.015625 17.1875 
L 47.609375 17.1875 
L 47.609375 0 
L 37.796875 0 
L 37.796875 17.1875 
L 4.890625 17.1875 
L 4.890625 26.703125 
z
" id="DejaVuSans-34"/>
      </defs>
      <g transform="translate(7.2 152.467379)scale(0.1 -0.1)">
       <use xlink:href="#DejaVuSans-34"/>
       <use x="63.623047" xlink:href="#DejaVuSans-30"/>
       <use x="127.246094" xlink:href="#DejaVuSans-30"/>
       <use x="190.869141" xlink:href="#DejaVuSans-30"/>
       <use x="254.492188" xlink:href="#DejaVuSans-30"/>
       <use x="318.115234" xlink:href="#DejaVuSans-30"/>
      </g>
     </g>
    </g>
    <g id="ytick_4">
     <g id="line2d_13">
      <g>
       <use style="stroke:#000000;stroke-width:0.8;" x="52.375" xlink:href="#m5de9f03b3b" y="90.64424"/>
      </g>
     </g>
     <g id="text_13">
      <!-- 600000 -->
      <defs>
       <path d="M 33.015625 40.375 
Q 26.375 40.375 22.484375 35.828125 
Q 18.609375 31.296875 18.609375 23.390625 
Q 18.609375 15.53125 22.484375 10.953125 
Q 26.375 6.390625 33.015625 6.390625 
Q 39.65625 6.390625 43.53125 10.953125 
Q 47.40625 15.53125 47.40625 23.390625 
Q 47.40625 31.296875 43.53125 35.828125 
Q 39.65625 40.375 33.015625 40.375 
z
M 52.59375 71.296875 
L 52.59375 62.3125 
Q 48.875 64.0625 45.09375 64.984375 
Q 41.3125 65.921875 37.59375 65.921875 
Q 27.828125 65.921875 22.671875 59.328125 
Q 17.53125 52.734375 16.796875 39.40625 
Q 19.671875 43.65625 24.015625 45.921875 
Q 28.375 48.1875 33.59375 48.1875 
Q 44.578125 48.1875 50.953125 41.515625 
Q 57.328125 34.859375 57.328125 23.390625 
Q 57.328125 12.15625 50.6875 5.359375 
Q 44.046875 -1.421875 33.015625 -1.421875 
Q 20.359375 -1.421875 13.671875 8.265625 
Q 6.984375 17.96875 6.984375 36.375 
Q 6.984375 53.65625 15.1875 63.9375 
Q 23.390625 74.21875 37.203125 74.21875 
Q 40.921875 74.21875 44.703125 73.484375 
Q 48.484375 72.75 52.59375 71.296875 
z
" id="DejaVuSans-36"/>
      </defs>
      <g transform="translate(7.2 94.443459)scale(0.1 -0.1)">
       <use xlink:href="#DejaVuSans-36"/>
       <use x="63.623047" xlink:href="#DejaVuSans-30"/>
       <use x="127.246094" xlink:href="#DejaVuSans-30"/>
       <use x="190.869141" xlink:href="#DejaVuSans-30"/>
       <use x="254.492188" xlink:href="#DejaVuSans-30"/>
       <use x="318.115234" xlink:href="#DejaVuSans-30"/>
      </g>
     </g>
    </g>
    <g id="ytick_5">
     <g id="line2d_14">
      <g>
       <use style="stroke:#000000;stroke-width:0.8;" x="52.375" xlink:href="#m5de9f03b3b" y="32.62032"/>
      </g>
     </g>
     <g id="text_14">
      <!-- 800000 -->
      <defs>
       <path d="M 31.78125 34.625 
Q 24.75 34.625 20.71875 30.859375 
Q 16.703125 27.09375 16.703125 20.515625 
Q 16.703125 13.921875 20.71875 10.15625 
Q 24.75 6.390625 31.78125 6.390625 
Q 38.8125 6.390625 42.859375 10.171875 
Q 46.921875 13.96875 46.921875 20.515625 
Q 46.921875 27.09375 42.890625 30.859375 
Q 38.875 34.625 31.78125 34.625 
z
M 21.921875 38.8125 
Q 15.578125 40.375 12.03125 44.71875 
Q 8.5 49.078125 8.5 55.328125 
Q 8.5 64.0625 14.71875 69.140625 
Q 20.953125 74.21875 31.78125 74.21875 
Q 42.671875 74.21875 48.875 69.140625 
Q 55.078125 64.0625 55.078125 55.328125 
Q 55.078125 49.078125 51.53125 44.71875 
Q 48 40.375 41.703125 38.8125 
Q 48.828125 37.15625 52.796875 32.3125 
Q 56.78125 27.484375 56.78125 20.515625 
Q 56.78125 9.90625 50.3125 4.234375 
Q 43.84375 -1.421875 31.78125 -1.421875 
Q 19.734375 -1.421875 13.25 4.234375 
Q 6.78125 9.90625 6.78125 20.515625 
Q 6.78125 27.484375 10.78125 32.3125 
Q 14.796875 37.15625 21.921875 38.8125 
z
M 18.3125 54.390625 
Q 18.3125 48.734375 21.84375 45.5625 
Q 25.390625 42.390625 31.78125 42.390625 
Q 38.140625 42.390625 41.71875 45.5625 
Q 45.3125 48.734375 45.3125 54.390625 
Q 45.3125 60.0625 41.71875 63.234375 
Q 38.140625 66.40625 31.78125 66.40625 
Q 25.390625 66.40625 21.84375 63.234375 
Q 18.3125 60.0625 18.3125 54.390625 
z
" id="DejaVuSans-38"/>
      </defs>
      <g transform="translate(7.2 36.419539)scale(0.1 -0.1)">
       <use xlink:href="#DejaVuSans-38"/>
       <use x="63.623047" xlink:href="#DejaVuSans-30"/>
       <use x="127.246094" xlink:href="#DejaVuSans-30"/>
       <use x="190.869141" xlink:href="#DejaVuSans-30"/>
       <use x="254.492188" xlink:href="#DejaVuSans-30"/>
       <use x="318.115234" xlink:href="#DejaVuSans-30"/>
      </g>
     </g>
    </g>
   </g>
   <g id="line2d_15">
    <path clip-path="url(#pb0ce452103)" d="M 68.607727 262.154824 
L 70.247397 256.533177 
L 71.887066 246.968804 
L 73.526736 257.461559 
L 75.166405 249.933536 
L 76.806074 250.707865 
L 78.445744 264.062651 
L 80.085413 250.351308 
L 81.725083 262.432469 
L 83.364752 259.704184 
L 85.004421 263.995053 
L 86.644091 260.532765 
L 88.28376 261.265027 
L 89.92343 263.976485 
L 91.563099 258.343813 
L 93.202769 254.659294 
L 94.842438 262.973832 
L 96.482107 262.331797 
L 98.121777 248.165547 
L 99.761446 227.596068 
L 101.401116 264.244846 
L 103.040785 255.698793 
L 104.680455 250.221625 
L 106.320124 257.480997 
L 107.959793 249.341982 
L 109.599463 216.945197 
L 111.239132 264.331301 
L 112.878802 261.963925 
L 114.518471 263.447017 
L 116.15814 255.57056 
L 117.79781 259.637747 
L 119.437479 260.238874 
L 121.077149 261.956382 
L 122.716818 237.956238 
L 124.356488 262.770748 
L 125.996157 260.460816 
L 127.635826 253.527828 
L 129.275496 261.184664 
L 130.915165 263.564225 
L 132.554835 262.171361 
L 134.194504 259.76627 
L 135.834174 256.050708 
L 137.473843 263.310951 
L 139.113512 264.13402 
L 140.753182 260.606166 
L 142.392851 258.393714 
L 144.032521 262.633231 
L 145.67219 255.612047 
L 147.31186 252.477015 
L 148.951529 264.574422 
L 150.591198 264.243105 
L 152.230868 262.648318 
L 153.870537 254.584443 
L 155.510207 261.142887 
L 157.149876 260.112672 
L 158.789545 262.4844 
L 160.429215 262.735644 
L 162.068884 263.84332 
L 163.708554 261.672936 
L 165.348223 256.052449 
L 166.987893 261.553406 
L 168.627562 262.584491 
L 170.267231 262.092158 
L 171.906901 242.464987 
L 173.54657 264.332752 
L 175.18624 263.319654 
L 176.825909 261.841205 
L 178.465579 262.767557 
L 180.105248 264.083539 
L 181.744917 263.362012 
L 183.384587 261.309996 
L 185.024256 259.853015 
L 186.663926 262.718817 
L 188.303595 263.323426 
L 189.943264 262.309458 
L 191.582934 262.335859 
L 193.222603 264.578483 
L 194.862273 261.399353 
L 196.501942 254.341613 
L 198.141612 263.579602 
L 199.781281 261.727768 
L 201.42095 261.467531 
L 203.06062 263.861018 
L 204.700289 260.598042 
L 206.339959 260.601234 
L 207.979628 263.251476 
L 209.619298 245.297425 
L 211.258967 256.255242 
L 212.898636 256.388117 
L 214.538306 255.422889 
L 216.177975 254.884137 
L 217.817645 261.206423 
L 219.457314 261.082542 
L 221.096983 259.252758 
L 222.736653 264.314474 
L 224.376322 263.890029 
L 226.015992 254.020161 
L 227.655661 263.539855 
L 229.295331 258.682093 
L 230.935 263.277877 
L 232.574669 263.249736 
L 234.214339 263.388993 
L 235.854008 261.536289 
L 237.493678 261.655818 
L 239.133347 257.97217 
L 240.773017 262.273483 
L 242.412686 261.507567 
L 244.052355 259.686487 
L 245.692025 263.544207 
L 247.331694 263.105836 
L 248.971364 260.340126 
L 250.611033 263.907727 
L 252.250702 263.64923 
L 253.890372 261.221219 
L 255.530041 264.404992 
L 257.169711 262.011795 
L 258.80938 263.682304 
L 260.44905 252.054891 
L 262.088719 264.333332 
L 263.728388 262.648318 
L 265.368058 263.923973 
L 267.007727 262.602479 
L 268.647397 262.987177 
L 270.287066 262.692996 
L 271.926736 236.975054 
L 273.566405 259.687067 
L 275.206074 263.626891 
L 276.845744 263.119182 
L 278.485413 253.696387 
L 280.125083 261.472173 
L 281.764752 263.404369 
L 283.404421 261.809872 
L 285.044091 258.535002 
L 288.32343 263.829975 
L 289.963099 262.723459 
L 291.602769 261.812483 
L 293.242438 264.292716 
L 294.882107 263.786457 
L 296.521777 263.926875 
L 298.161446 257.009263 
L 299.801116 263.7206 
L 301.440785 264.381492 
L 303.080455 260.226979 
L 304.720124 256.592941 
L 306.359793 263.232328 
L 307.999463 259.517347 
L 309.639132 264.410794 
L 311.278802 249.84505 
L 312.918471 263.781815 
L 314.55814 261.090085 
L 316.19781 260.990574 
L 317.837479 262.968029 
L 319.477149 262.813396 
L 321.116818 263.700581 
L 322.756488 264.27821 
L 324.396157 216.070486 
L 326.035826 261.78028 
L 327.675496 261.29636 
L 329.315165 244.211217 
L 330.954835 256.527664 
L 332.594504 239.135285 
L 334.234174 257.897609 
L 335.873843 257.9977 
L 337.513512 261.453895 
L 339.153182 260.647943 
L 340.792851 263.350697 
L 342.432521 260.118185 
L 344.07219 258.461892 
L 345.71186 262.058504 
L 347.351529 259.141352 
L 348.991198 254.687146 
L 350.630868 263.092201 
L 352.270537 260.273979 
L 353.910207 263.180687 
L 355.549876 260.729176 
L 357.189545 263.385802 
L 358.829215 258.473497 
L 360.468884 248.475395 
L 362.108554 243.440949 
L 363.748223 252.497903 
L 365.387893 262.442623 
L 367.027562 263.413363 
L 368.667231 263.643428 
L 370.306901 262.802661 
L 371.94657 261.560369 
L 373.58624 248.641343 
L 375.225909 261.760262 
L 376.865579 262.782353 
L 378.505248 260.3497 
L 380.144917 262.898401 
L 381.784587 255.537196 
L 383.424256 260.352891 
L 385.063926 263.255248 
L 386.703595 263.755994 
L 388.343264 260.435285 
L 389.982934 263.495177 
L 391.622603 259.351689 
L 393.262273 263.118021 
L 393.262273 263.118021 
" style="fill:none;stroke:#1f77b4;stroke-linecap:square;stroke-width:0.5;"/>
   </g>
   <g id="line2d_16">
    <path clip-path="url(#pb0ce452103)" d="M 68.607727 262.369513 
L 70.247397 261.227602 
L 71.887066 263.109898 
L 73.526736 264.431683 
L 75.166405 261.34452 
L 76.806074 252.372862 
L 78.445744 263.130496 
L 80.085413 261.567332 
L 81.725083 257.645495 
L 83.364752 233.765751 
L 85.004421 261.945068 
L 86.644091 256.763532 
L 88.28376 261.17538 
L 89.92343 262.497165 
L 91.563099 249.024591 
L 93.202769 258.528329 
L 94.842438 235.746107 
L 96.482107 262.529659 
L 98.121777 261.327693 
L 99.761446 263.291513 
L 101.401116 250.129367 
L 103.040785 256.414518 
L 104.680455 264.528873 
L 106.320124 259.993723 
L 107.959793 263.287741 
L 109.599463 236.215231 
L 111.239132 256.701156 
L 112.878802 261.742854 
L 114.518471 264.2315 
L 116.15814 256.916135 
L 117.79781 260.583827 
L 119.437479 262.151053 
L 121.077149 261.065715 
L 122.716818 256.037652 
L 124.356488 252.193278 
L 125.996157 259.826324 
L 129.275496 263.412493 
L 130.915165 264.304901 
L 132.554835 261.066586 
L 134.194504 261.981333 
L 135.834174 260.334904 
L 137.473843 257.801289 
L 139.113512 245.096662 
L 140.753182 258.74911 
L 142.392851 256.261044 
L 144.032521 246.615728 
L 145.67219 263.731624 
L 147.31186 240.158246 
L 148.951529 261.475364 
L 150.591198 260.717862 
L 152.230868 264.222797 
L 153.870537 262.085195 
L 155.510207 262.943369 
L 157.149876 199.90038 
L 158.789545 251.735179 
L 160.429215 255.799754 
L 162.068884 263.331839 
L 163.708554 260.93139 
L 165.348223 248.964827 
L 166.987893 263.608904 
L 168.627562 263.934708 
L 170.267231 264.052496 
L 173.54657 259.339504 
L 175.18624 256.009801 
L 176.825909 262.109566 
L 178.465579 260.22785 
L 180.105248 250.551201 
L 181.744917 243.039424 
L 183.384587 261.549925 
L 185.024256 239.756721 
L 186.663926 261.22267 
L 188.303595 247.457075 
L 189.943264 262.937857 
L 191.582934 258.959447 
L 193.222603 235.852581 
L 194.862273 231.663254 
L 196.501942 257.613002 
L 198.141612 249.001672 
L 199.781281 262.422895 
L 201.42095 260.701905 
L 203.06062 255.315545 
L 204.700289 262.26507 
L 206.339959 256.605997 
L 207.979628 260.733238 
L 209.619298 261.727768 
L 211.258967 233.052347 
L 212.898636 253.128043 
L 214.538306 250.742389 
L 216.177975 247.05642 
L 217.817645 262.357038 
L 219.457314 243.717724 
L 221.096983 230.883413 
L 222.736653 252.242888 
L 224.376322 238.051398 
L 226.015992 263.416264 
L 227.655661 262.026011 
L 229.295331 256.593812 
L 230.935 256.599904 
L 232.574669 262.403747 
L 234.214339 264.087891 
L 237.493678 258.969891 
L 239.133347 264.42588 
L 240.773017 258.550668 
L 242.412686 260.692621 
L 244.052355 256.939924 
L 245.692025 262.773069 
L 247.331694 259.479341 
L 248.971364 263.301087 
L 250.611033 261.958413 
L 252.250702 255.800915 
L 253.890372 262.433339 
L 255.530041 264.286623 
L 257.169711 263.292673 
L 258.80938 257.964047 
L 260.44905 262.501807 
L 262.088719 263.955887 
L 263.728388 261.240947 
L 265.368058 259.521989 
L 267.007727 263.650101 
L 268.647397 264.416016 
L 270.287066 260.371169 
L 271.926736 234.134493 
L 273.566405 262.973252 
L 275.206074 261.73212 
L 276.845744 257.032763 
L 278.485413 264.172896 
L 280.125083 258.193821 
L 281.764752 254.988 
L 283.404421 258.307548 
L 285.044091 237.196125 
L 286.68376 263.452529 
L 288.32343 258.176704 
L 289.963099 256.049837 
L 291.602769 258.695728 
L 293.242438 260.987383 
L 294.882107 255.978468 
L 296.521777 264.463886 
L 298.161446 263.271495 
L 299.801116 257.519293 
L 301.440785 263.545077 
L 303.080455 263.660545 
L 304.720124 258.423016 
L 306.359793 246.52405 
L 307.999463 258.975403 
L 309.639132 264.598211 
L 311.278802 264.113712 
L 312.918471 263.835777 
L 314.55814 261.672936 
L 316.19781 264.221926 
L 317.837479 253.664764 
L 319.477149 215.537246 
L 321.116818 262.975863 
L 322.756488 262.661953 
L 324.396157 263.16241 
L 326.035826 264.32695 
L 327.675496 263.094522 
L 329.315165 260.913402 
L 330.954835 243.647805 
L 332.594504 262.504128 
L 334.234174 264.210612 
L 335.873843 263.993602 
L 337.513512 264.203939 
L 339.153182 261.155942 
L 340.792851 261.034382 
L 342.432521 261.621294 
L 344.07219 252.410577 
L 345.71186 264.335943 
L 347.351529 261.533098 
L 348.991198 254.817409 
L 350.630868 260.93197 
L 352.270537 262.706342 
L 353.910207 263.998824 
L 355.549876 263.768179 
L 357.189545 249.405518 
L 358.829215 251.853838 
L 360.468884 255.075326 
L 362.108554 263.701162 
L 363.748223 250.7186 
L 365.387893 236.681163 
L 367.027562 258.029614 
L 368.667231 227.615796 
L 370.306901 262.841827 
L 371.94657 257.697717 
L 373.58624 260.037531 
L 375.225909 262.039357 
L 376.865579 263.082917 
L 378.505248 260.599783 
L 380.144917 261.24791 
L 381.784587 257.675378 
L 383.424256 256.117435 
L 385.063926 263.622829 
L 386.703595 260.997537 
L 386.703595 260.997537 
" style="fill:none;stroke:#ff7f0e;stroke-linecap:square;stroke-width:0.5;"/>
   </g>
   <g id="line2d_17">
    <path clip-path="url(#pb0ce452103)" d="M 68.607727 261.240367 
L 70.247397 261.553406 
L 71.887066 260.620672 
L 73.526736 259.869262 
L 75.166405 261.615782 
L 76.806074 261.140856 
L 78.445744 260.342737 
L 80.085413 258.550088 
L 81.725083 263.483862 
L 83.364752 262.052992 
L 85.004421 262.426956 
L 86.644091 255.697052 
L 88.28376 230.820747 
L 89.92343 261.249071 
L 91.563099 263.458332 
L 93.202769 264.30432 
L 94.842438 263.436863 
L 96.482107 262.360809 
L 98.121777 263.289192 
L 99.761446 262.60509 
L 101.401116 254.605332 
L 103.040785 264.196976 
L 104.680455 259.343275 
L 106.320124 264.37656 
L 107.959793 264.426461 
L 109.599463 263.942831 
L 111.239132 258.53152 
L 112.878802 263.873203 
L 114.518471 262.393302 
L 116.15814 258.961188 
L 117.79781 261.249071 
L 119.437479 259.105667 
L 121.077149 260.768343 
L 122.716818 261.668003 
L 124.356488 264.434294 
L 125.996157 259.817621 
L 127.635826 264.559916 
L 129.275496 264.411955 
L 130.915165 260.054068 
L 132.554835 262.733033 
L 134.194504 254.099944 
L 135.834174 261.070937 
L 137.473843 263.046072 
L 139.113512 262.449296 
L 140.753182 262.894049 
L 142.392851 262.396784 
L 144.032521 260.669412 
L 145.67219 263.146743 
L 147.31186 260.766312 
L 148.951529 260.938643 
L 150.591198 263.586274 
L 152.230868 257.380326 
L 153.870537 263.105836 
L 155.510207 260.178529 
L 157.149876 262.43566 
L 158.789545 261.097628 
L 160.429215 263.714507 
L 162.068884 262.82326 
L 163.708554 264.030157 
L 165.348223 264.391646 
L 166.987893 262.496005 
L 168.627562 259.178197 
L 170.267231 260.596302 
L 171.906901 258.534712 
L 173.54657 257.222791 
L 175.18624 262.793958 
L 176.825909 260.189264 
L 178.465579 261.904161 
L 180.105248 261.489 
L 181.744917 263.26134 
L 183.384587 260.953149 
L 185.024256 262.857204 
L 186.663926 262.668336 
L 188.303595 258.576199 
L 189.943264 260.694652 
L 191.582934 263.330969 
L 193.222603 264.294166 
L 194.862273 263.004875 
L 196.501942 262.644546 
L 198.141612 264.154328 
L 199.781281 261.389199 
L 201.42095 264.001435 
L 204.700289 262.539813 
L 206.339959 263.40698 
L 207.979628 262.424635 
L 209.619298 255.670651 
L 211.258967 264.399189 
L 212.898636 262.875771 
L 214.538306 262.048931 
L 216.177975 264.090792 
L 217.817645 263.789358 
L 219.457314 260.937482 
L 221.096983 264.632736 
L 222.736653 259.413484 
L 224.376322 262.517474 
L 226.015992 259.785708 
L 227.655661 262.963678 
L 229.295331 263.183588 
L 230.935 259.414935 
L 232.574669 263.312691 
L 234.214339 264.365826 
L 235.854008 260.669122 
L 237.493678 263.403209 
L 239.133347 263.435992 
L 240.773017 260.580345 
L 242.412686 260.54263 
L 244.052355 262.991529 
L 245.692025 254.664516 
L 247.331694 262.869969 
L 248.971364 264.282851 
L 252.250702 264.031608 
L 253.890372 257.062645 
L 255.530041 259.639777 
L 257.169711 263.942541 
L 258.80938 258.444775 
L 260.44905 258.161038 
L 262.088719 263.337642 
L 263.728388 262.327735 
L 265.368058 263.81866 
L 267.007727 260.649974 
L 268.647397 259.71782 
L 270.287066 261.068616 
L 271.926736 255.941623 
L 273.566405 263.006615 
L 275.206074 262.464672 
L 276.845744 260.807509 
L 278.485413 263.340833 
L 280.125083 261.887044 
L 281.764752 260.246127 
L 283.404421 260.888162 
L 285.044091 261.329144 
L 286.68376 263.439764 
L 288.32343 260.855669 
L 289.963099 263.755414 
L 291.602769 264.334783 
L 293.242438 241.1609 
L 294.882107 263.389573 
L 296.521777 262.8955 
L 298.161446 259.244634 
L 299.801116 264.571811 
L 301.440785 262.860975 
L 303.080455 231.881424 
L 304.720124 261.370921 
L 306.359793 262.782643 
L 307.999463 263.155157 
L 309.639132 263.909468 
L 312.918471 264.369597 
L 314.55814 261.723997 
L 316.19781 255.851396 
L 317.837479 261.876309 
L 319.477149 262.398815 
L 321.116818 264.033929 
L 322.756488 264.042342 
L 324.396157 258.737505 
L 326.035826 264.44967 
L 327.675496 261.045407 
L 329.315165 261.342489 
L 330.954835 262.795408 
L 332.594504 260.20493 
L 334.234174 262.890277 
L 335.873843 263.45485 
L 337.513512 264.337684 
L 339.153182 257.664643 
L 340.792851 249.205046 
L 342.432521 263.142681 
L 344.07219 263.994763 
L 345.71186 260.486636 
L 347.351529 263.886258 
L 348.991198 263.905116 
L 350.630868 261.484648 
L 352.270537 262.309458 
L 353.910207 260.293417 
L 355.549876 263.704063 
L 357.189545 258.77261 
L 358.829215 261.104011 
L 360.468884 254.09182 
L 362.108554 263.887418 
L 363.748223 253.665344 
L 365.387893 263.400598 
L 367.027562 262.351235 
L 368.667231 263.879585 
L 370.306901 258.152334 
L 371.94657 261.411248 
L 373.58624 261.904161 
L 375.225909 261.729509 
L 376.865579 258.461892 
L 378.505248 263.545077 
L 380.144917 261.648565 
L 381.784587 259.084779 
L 383.424256 264.243105 
L 385.063926 262.813686 
L 386.703595 263.105836 
L 388.343264 260.293417 
L 389.982934 262.785834 
L 391.622603 256.956461 
L 391.622603 256.956461 
" style="fill:none;stroke:#2ca02c;stroke-linecap:square;stroke-width:0.5;"/>
   </g>
   <g id="line2d_18">
    <path clip-path="url(#pb0ce452103)" d="M 68.607727 259.96094 
L 70.247397 261.322181 
L 71.887066 230.156083 
L 73.526736 259.295696 
L 75.166405 262.553158 
L 76.806074 259.537945 
L 78.445744 255.894623 
L 80.085413 262.409259 
L 81.725083 261.502345 
L 83.364752 255.18354 
L 85.004421 262.731872 
L 86.644091 261.70746 
L 88.28376 262.017598 
L 89.92343 234.555747 
L 91.563099 130.726584 
L 93.202769 259.30672 
L 94.842438 255.005117 
L 96.482107 258.124773 
L 98.121777 258.973663 
L 99.761446 260.753837 
L 101.401116 259.42683 
L 103.040785 262.720267 
L 104.680455 263.232618 
L 106.320124 262.342822 
L 107.959793 263.141521 
L 109.599463 256.102059 
L 111.239132 262.704311 
L 112.878802 262.887086 
L 114.518471 263.906566 
L 116.15814 262.928863 
L 117.79781 263.466745 
L 119.437479 262.298433 
L 121.077149 263.245674 
L 122.716818 260.091203 
L 124.356488 257.380036 
L 125.996157 219.119643 
L 127.635826 263.564225 
L 129.275496 262.414771 
L 130.915165 261.663652 
L 132.554835 262.644836 
L 134.194504 263.085238 
L 135.834174 250.205668 
L 137.473843 257.916757 
L 139.113512 263.610934 
L 140.753182 262.522696 
L 142.392851 258.28695 
L 145.67219 264.37627 
L 147.31186 263.01793 
L 148.951529 263.892931 
L 150.591198 263.856666 
L 152.230868 261.70833 
L 153.870537 263.127305 
L 155.510207 263.650971 
L 157.149876 261.032351 
L 158.789545 263.123243 
L 160.429215 260.297478 
L 162.068884 255.216324 
L 163.708554 227.121432 
L 165.348223 264.232661 
L 166.987893 264.15752 
L 168.627562 259.611926 
L 170.267231 260.790392 
L 171.906901 258.705592 
L 173.54657 252.289307 
L 175.18624 259.536785 
L 176.825909 261.961024 
L 178.465579 263.778624 
L 180.105248 263.329228 
L 181.744917 258.969021 
L 183.384587 247.122277 
L 185.024256 263.229137 
L 186.663926 264.476071 
L 188.303595 262.198342 
L 189.943264 261.292589 
L 191.582934 263.277007 
L 193.222603 263.102355 
L 194.862273 258.351066 
L 196.501942 264.300839 
L 198.141612 261.945938 
L 199.781281 263.784136 
L 201.42095 262.208496 
L 203.06062 254.959278 
L 204.700289 263.061738 
L 206.339959 255.974116 
L 207.979628 263.729303 
L 209.619298 257.833493 
L 211.258967 260.88439 
L 212.898636 261.965376 
L 214.538306 259.849244 
L 219.457314 263.845641 
L 221.096983 248.824409 
L 222.736653 261.838304 
L 224.376322 262.353266 
L 226.015992 259.538526 
L 227.655661 261.000438 
L 229.295331 262.2671 
L 230.935 258.524267 
L 232.574669 262.875771 
L 234.214339 264.055398 
L 235.854008 264.617359 
L 237.493678 261.34481 
L 239.133347 257.39106 
L 240.773017 263.543917 
L 242.412686 260.660998 
L 244.052355 262.619016 
L 245.692025 246.213623 
L 247.331694 245.226926 
L 248.971364 259.121334 
L 250.611033 262.951783 
L 252.250702 260.450952 
L 253.890372 264.021164 
L 255.530041 261.720515 
L 257.169711 261.633479 
L 258.80938 263.930066 
L 260.44905 264.265444 
L 262.088719 259.738998 
L 263.728388 261.216287 
L 265.368058 262.92161 
L 267.007727 238.481355 
L 268.647397 256.495751 
L 270.287066 264.333332 
L 271.926736 254.651461 
L 273.566405 246.258301 
L 275.206074 263.014158 
L 276.845744 263.970683 
L 278.485413 261.849328 
L 280.125083 260.032309 
L 281.764752 260.571351 
L 283.404421 260.134431 
L 285.044091 260.716991 
L 286.68376 257.190007 
L 288.32343 260.086271 
L 289.963099 248.842396 
L 291.602769 259.429731 
L 293.242438 260.551913 
L 294.882107 261.899519 
L 296.521777 262.889117 
L 298.161446 260.223498 
L 299.801116 264.40093 
L 301.440785 261.811032 
L 303.080455 262.214299 
L 304.720124 264.37598 
L 306.359793 258.508021 
L 307.999463 261.39268 
L 309.639132 260.605876 
L 311.278802 253.760504 
L 312.918471 264.398029 
L 314.55814 254.280688 
L 316.19781 262.566504 
L 317.837479 263.905406 
L 319.477149 254.413853 
L 319.477149 254.413853 
" style="fill:none;stroke:#d62728;stroke-linecap:square;stroke-width:0.5;"/>
   </g>
   <g id="line2d_19">
    <path clip-path="url(#pb0ce452103)" d="M 68.607727 250.305469 
L 70.247397 242.4 
L 71.887066 264.288944 
L 73.526736 233.819423 
L 75.166405 264.71513 
L 76.806074 263.223915 
L 78.445744 248.868217 
L 80.085413 263.160089 
L 81.725083 250.79258 
L 83.364752 234.377323 
L 85.004421 263.411912 
L 86.644091 258.783925 
L 88.28376 262.636423 
L 89.92343 259.32964 
L 91.563099 264.046404 
L 93.202769 264.229179 
L 94.842438 262.544165 
L 96.482107 255.879537 
L 98.121777 261.7092 
L 99.761446 257.442992 
L 101.401116 240.693227 
L 103.040785 264.313604 
L 104.680455 263.948053 
L 106.320124 264.609526 
L 107.959793 249.071591 
L 109.599463 256.118016 
L 111.239132 260.742232 
L 112.878802 262.093029 
L 114.518471 253.808373 
L 116.15814 257.427325 
L 117.79781 246.403651 
L 119.437479 256.471671 
L 121.077149 259.925255 
L 122.716818 261.160584 
L 124.356488 253.173882 
L 125.996157 263.897573 
L 127.635826 262.80034 
L 129.275496 228.925396 
L 130.915165 260.167215 
L 132.554835 263.532312 
L 134.194504 263.053034 
L 135.834174 263.692168 
L 137.473843 264.535546 
L 139.113512 248.788434 
L 140.753182 254.274596 
L 142.392851 254.531642 
L 144.032521 264.390776 
L 145.67219 260.971716 
L 147.31186 251.514978 
L 148.951529 263.458622 
L 150.591198 261.600696 
L 152.230868 264.199297 
L 153.870537 261.895457 
L 155.510207 258.945811 
L 157.149876 262.153083 
L 158.789545 110.768386 
L 160.429215 263.531732 
L 162.068884 262.714465 
L 163.708554 264.170865 
L 165.348223 260.407434 
L 166.987893 260.202319 
L 168.627562 264.252679 
L 170.267231 263.110768 
L 171.906901 254.506691 
L 173.54657 261.595183 
L 175.18624 254.050043 
L 176.825909 263.16357 
L 178.465579 255.460605 
L 180.105248 264.321147 
L 181.744917 260.830138 
L 183.384587 257.951281 
L 185.024256 263.96488 
L 186.663926 262.887376 
L 188.303595 252.461638 
L 189.943264 264.372208 
L 191.582934 260.32504 
L 193.222603 258.036867 
L 194.862273 261.242108 
L 196.501942 264.068163 
L 198.141612 261.336397 
L 199.781281 259.566377 
L 201.42095 259.01457 
L 203.06062 261.356705 
L 204.700289 257.216698 
L 206.339959 260.143135 
L 207.979628 259.655154 
L 209.619298 258.277086 
L 211.258967 262.789316 
L 212.898636 249.986338 
L 214.538306 257.555268 
L 216.177975 259.896243 
L 217.817645 263.815759 
L 219.457314 259.833577 
L 221.096983 257.17289 
L 222.736653 263.311531 
L 224.376322 249.157756 
L 226.015992 252.190376 
L 227.655661 257.020287 
L 229.295331 253.293701 
L 230.935 262.101442 
L 232.574669 262.640775 
L 234.214339 262.791056 
L 235.854008 253.293701 
L 237.493678 261.535129 
L 239.133347 258.11752 
L 240.773017 260.008229 
L 242.412686 262.510511 
L 244.052355 260.358694 
L 245.692025 247.924458 
L 247.331694 259.362133 
L 248.971364 262.559541 
L 250.611033 263.189681 
L 252.250702 261.909673 
L 253.890372 261.473623 
L 255.530041 262.038486 
L 257.169711 262.438561 
L 258.80938 261.536579 
L 260.44905 264.246877 
L 262.088719 260.488667 
L 263.728388 259.101606 
L 265.368058 260.614579 
L 267.007727 261.256904 
L 268.647397 261.307095 
L 270.287066 255.731576 
L 271.926736 262.858364 
L 273.566405 263.04114 
L 275.206074 256.236094 
L 278.485413 258.568076 
L 280.125083 264.657686 
L 281.764752 258.359189 
L 283.404421 258.589835 
L 285.044091 263.315303 
L 286.68376 250.262242 
L 288.32343 260.855959 
L 289.963099 257.832042 
L 291.602769 258.899972 
L 293.242438 259.377799 
L 294.882107 260.758479 
L 296.521777 263.523028 
L 298.161446 260.981871 
L 299.801116 262.963678 
L 301.440785 257.383227 
L 303.080455 262.496585 
L 304.720124 259.706215 
L 306.359793 259.931057 
L 307.999463 262.347754 
L 309.639132 263.757155 
L 311.278802 263.882196 
L 312.918471 262.684002 
L 314.55814 263.230298 
L 316.19781 262.527628 
L 317.837479 259.611056 
L 319.477149 264.293876 
L 321.116818 256.502424 
L 322.756488 261.569073 
L 324.396157 259.163111 
L 326.035826 255.679065 
L 327.675496 258.851232 
L 329.315165 262.84937 
L 330.954835 246.363324 
L 332.594504 262.82355 
L 334.234174 230.82887 
L 335.873843 251.13231 
L 337.513512 264.073675 
L 339.153182 264.447349 
L 340.792851 262.012085 
L 342.432521 258.751721 
L 345.71186 264.017102 
L 347.351529 257.226563 
L 348.991198 264.465337 
L 350.630868 237.261692 
L 352.270537 264.415726 
L 353.910207 264.039441 
L 355.549876 261.309706 
L 357.189545 263.783265 
L 358.829215 263.344895 
L 360.468884 257.553527 
L 362.108554 260.830428 
L 363.748223 261.336107 
L 365.387893 262.088387 
L 367.027562 260.699874 
L 368.667231 260.263244 
L 370.306901 263.30805 
L 371.94657 258.905485 
L 373.58624 262.862716 
L 375.225909 264.143014 
L 376.865579 264.310123 
L 378.505248 259.450039 
L 380.144917 262.478017 
L 381.784587 257.880202 
L 383.424256 263.223335 
L 385.063926 263.097423 
L 386.703595 261.524975 
L 388.343264 264.321147 
L 389.982934 261.942747 
L 391.622603 263.110188 
L 391.622603 263.110188 
" style="fill:none;stroke:#9467bd;stroke-linecap:square;stroke-width:0.5;"/>
   </g>
   <g id="line2d_20">
    <path clip-path="url(#pb0ce452103)" d="M 68.607727 252.142507 
L 70.247397 261.774477 
L 71.887066 262.639324 
L 73.526736 262.097961 
L 75.166405 259.96036 
L 76.806074 259.368806 
L 78.445744 264.603434 
L 80.085413 260.960112 
L 81.725083 263.11512 
L 83.364752 262.372704 
L 85.004421 263.602231 
L 86.644091 263.993022 
L 88.28376 262.017888 
L 89.92343 263.507362 
L 91.563099 261.240947 
L 93.202769 262.560411 
L 96.482107 264.355671 
L 98.121777 263.120342 
L 99.761446 262.31439 
L 101.401116 260.945896 
L 104.680455 253.589913 
L 106.320124 263.152836 
L 107.959793 259.710567 
L 109.599463 250.124145 
L 111.239132 260.455884 
L 112.878802 261.600115 
L 114.518471 261.352063 
L 116.15814 257.688723 
L 117.79781 262.426376 
L 119.437479 260.749775 
L 121.077149 256.955591 
L 122.716818 263.292093 
L 124.356488 262.805562 
L 125.996157 264.324629 
L 127.635826 261.652917 
L 129.275496 260.098456 
L 130.915165 261.761422 
L 132.554835 264.114292 
L 134.194504 263.973874 
L 135.834174 261.156233 
L 137.473843 253.115858 
L 139.113512 260.177369 
L 140.753182 260.299219 
L 142.392851 259.108568 
L 144.032521 263.402338 
L 145.67219 257.798388 
L 147.31186 255.973246 
L 148.951529 257.502756 
L 150.591198 263.378549 
L 152.230868 262.982245 
L 153.870537 260.989124 
L 155.510207 262.742897 
L 157.149876 264.090502 
L 158.789545 262.025141 
L 160.429215 260.990574 
L 162.068884 262.257236 
L 163.708554 257.738334 
L 165.348223 260.386255 
L 166.987893 260.712059 
L 168.627562 252.158173 
L 170.267231 254.238331 
L 171.906901 260.93255 
L 173.54657 261.957253 
L 175.18624 263.91556 
L 176.825909 260.140234 
L 178.465579 264.048435 
L 180.105248 263.122953 
L 181.744917 256.725526 
L 183.384587 263.872622 
L 185.024256 260.158801 
L 186.663926 263.011257 
L 188.303595 259.386503 
L 189.943264 263.782975 
L 191.582934 262.761174 
L 193.222603 259.833867 
L 194.862273 257.36495 
L 196.501942 263.753673 
L 198.141612 258.881115 
L 199.781281 261.560949 
L 201.42095 258.177865 
L 203.06062 253.04884 
L 204.700289 263.301957 
L 206.339959 260.952569 
L 207.979628 263.291223 
L 209.619298 257.474325 
L 211.258967 262.835445 
L 212.898636 257.722957 
L 214.538306 260.315466 
L 216.177975 263.50359 
L 217.817645 263.268593 
L 219.457314 261.668874 
L 221.096983 263.786167 
L 222.736653 249.343143 
L 224.376322 260.7872 
L 226.015992 263.96314 
L 227.655661 262.250854 
L 229.295331 260.367107 
L 230.935 250.588336 
L 232.574669 262.276674 
L 234.214339 262.29089 
L 235.854008 251.750845 
L 237.493678 260.486927 
L 239.133347 262.888827 
L 240.773017 259.345306 
L 242.412686 260.699584 
L 244.052355 258.681512 
L 245.692025 263.375067 
L 247.331694 262.877512 
L 248.971364 264.427621 
L 250.611033 256.999399 
L 252.250702 254.666547 
L 257.169711 264.031608 
L 258.80938 261.311446 
L 260.44905 263.614416 
L 262.088719 259.091161 
L 263.728388 260.157641 
L 265.368058 259.895663 
L 267.007727 258.952484 
L 268.647397 262.855463 
L 270.287066 260.234232 
L 271.926736 248.787273 
L 273.566405 263.271785 
L 275.206074 261.423723 
L 276.845744 255.552863 
L 278.485413 260.272528 
L 280.125083 260.267886 
L 281.764752 257.235846 
L 283.404421 263.733075 
L 285.044091 258.406769 
L 286.68376 261.809872 
L 288.32343 261.694985 
L 289.963099 262.966869 
L 291.602769 263.095972 
L 293.242438 263.955887 
L 294.882107 263.836647 
L 296.521777 253.188098 
L 298.161446 260.183752 
L 299.801116 263.532022 
L 301.440785 257.249772 
L 303.080455 259.57421 
L 304.720124 261.426334 
L 306.359793 252.289307 
L 307.999463 261.311156 
L 309.639132 246.903237 
L 312.918471 263.774272 
L 314.55814 263.890029 
L 316.19781 260.319237 
L 317.837479 264.559916 
L 319.477149 263.084077 
L 321.116818 263.208829 
L 322.756488 252.121618 
L 324.396157 250.269495 
L 326.035826 257.442412 
L 327.675496 249.139479 
L 329.315165 261.636671 
L 330.954835 256.251761 
L 332.594504 257.75371 
L 334.234174 255.25578 
L 335.873843 264.152878 
L 337.513512 238.034281 
L 340.792851 260.118475 
L 342.432521 258.729962 
L 344.07219 259.776134 
L 345.71186 261.92534 
L 347.351529 252.157883 
L 348.991198 258.013077 
L 350.630868 258.641766 
L 352.270537 259.460193 
L 353.910207 253.240609 
L 355.549876 262.583911 
L 355.549876 262.583911 
" style="fill:none;stroke:#8c564b;stroke-linecap:square;stroke-width:0.5;"/>
   </g>
   <g id="line2d_21">
    <path clip-path="url(#pb0ce452103)" d="M 68.607727 255.943073 
L 70.247397 250.225977 
L 73.526736 255.442907 
L 75.166405 261.8531 
L 76.806074 234.431575 
L 78.445744 263.523028 
L 80.085413 245.004114 
L 81.725083 260.259473 
L 83.364752 263.771951 
L 85.004421 260.464878 
L 86.644091 251.08415 
L 88.28376 262.738255 
L 89.92343 252.615982 
L 91.563099 234.220949 
L 93.202769 249.65299 
L 94.842438 257.015646 
L 96.482107 252.19908 
L 98.121777 260.991445 
L 99.761446 263.420036 
L 101.401116 235.458019 
L 103.040785 189.552684 
L 104.680455 235.284237 
L 106.320124 261.927661 
L 107.959793 263.252056 
L 109.599463 257.17231 
L 111.239132 228.916402 
L 112.878802 263.4299 
L 114.518471 234.804089 
L 116.15814 256.150509 
L 117.79781 233.851336 
L 119.437479 262.123781 
L 121.077149 249.253786 
L 122.716818 252.356615 
L 124.356488 254.59982 
L 125.996157 241.763768 
L 127.635826 263.958498 
L 129.275496 261.882982 
L 130.915165 251.073706 
L 132.554835 251.898516 
L 134.194504 243.404104 
L 135.834174 263.150805 
L 137.473843 256.136873 
L 139.113512 231.624088 
L 140.753182 262.406358 
L 142.392851 255.720262 
L 144.032521 261.379915 
L 145.67219 263.772821 
L 147.31186 258.828023 
L 148.951529 264.300839 
L 150.591198 258.219642 
L 152.230868 255.912611 
L 153.870537 260.086852 
L 155.510207 262.917839 
L 157.149876 262.902172 
L 158.789545 228.695331 
L 160.429215 258.862547 
L 162.068884 258.148272 
L 163.708554 175.503933 
L 165.348223 258.391103 
L 166.987893 257.510009 
L 168.627562 114.072848 
L 170.267231 261.674386 
L 171.906901 260.838261 
L 173.54657 258.028743 
L 175.18624 238.961503 
L 176.825909 238.406794 
L 178.465579 258.171192 
L 180.105248 261.774187 
L 181.744917 257.914436 
L 183.384587 263.506491 
L 185.024256 264.023485 
L 186.663926 254.659584 
L 188.303595 216.932722 
L 189.943264 220.914903 
L 191.582934 249.252335 
L 193.222603 252.546353 
L 194.862273 245.377788 
L 196.501942 262.527338 
L 198.141612 262.161497 
L 199.781281 261.589671 
L 201.42095 260.891934 
L 203.06062 262.155695 
L 204.700289 250.142712 
L 206.339959 261.009722 
L 207.979628 264.516398 
L 209.619298 251.007559 
L 211.258967 262.039066 
L 212.898636 261.935784 
L 214.538306 259.553612 
L 216.177975 260.637209 
L 217.817645 245.846621 
L 219.457314 264.281981 
L 221.096983 252.255073 
L 222.736653 259.425089 
L 224.376322 263.448177 
L 226.015992 262.980795 
L 227.655661 264.054527 
L 229.295331 253.455008 
L 230.935 257.208865 
L 232.574669 261.963925 
L 234.214339 257.152872 
L 235.854008 203.384136 
L 237.493678 264.563397 
L 239.133347 174.144432 
L 240.773017 263.122083 
L 242.412686 252.061853 
L 244.052355 263.0188 
L 245.692025 246.526081 
L 247.331694 226.322442 
L 248.971364 263.288612 
L 250.611033 256.530566 
L 252.250702 253.712924 
L 253.890372 257.944028 
L 255.530041 255.064591 
L 257.169711 253.53305 
L 258.80938 253.006483 
L 260.44905 239.401034 
L 262.088719 240.36162 
L 263.728388 261.375563 
L 265.368058 259.652543 
L 267.007727 260.770083 
L 268.647397 208.231164 
L 270.287066 263.55175 
L 273.566405 261.750397 
L 275.206074 255.272317 
L 276.845744 262.31468 
L 278.485413 256.124978 
L 280.125083 263.716248 
L 281.764752 204.768877 
L 283.404421 259.188351 
L 285.044091 264.635347 
L 286.68376 263.890029 
L 288.32343 202.631276 
L 289.963099 236.26252 
L 291.602769 263.954436 
L 293.242438 262.147281 
L 294.882107 263.525349 
L 296.521777 263.791679 
L 298.161446 264.260512 
L 299.801116 258.232407 
L 301.440785 264.057429 
L 304.720124 264.582835 
L 306.359793 263.96343 
L 307.999463 258.4323 
L 309.639132 264.101527 
L 311.278802 252.923218 
L 312.918471 262.903043 
L 314.55814 255.996746 
L 316.19781 260.803157 
L 317.837479 262.907975 
L 319.477149 258.175254 
L 321.116818 261.156523 
L 322.756488 246.586136 
L 324.396157 261.285916 
L 326.035826 259.062729 
L 327.675496 262.967739 
L 329.315165 262.281316 
L 330.954835 260.599493 
L 332.594504 247.725726 
L 334.234174 262.940178 
L 335.873843 258.783634 
L 337.513512 261.434167 
L 339.153182 187.111908 
L 340.792851 228.050395 
L 342.432521 231.419264 
L 344.07219 228.802385 
L 345.71186 250.069602 
L 347.351529 242.920475 
L 348.991198 169.871841 
L 350.630868 257.903702 
L 353.910207 264.263704 
L 355.549876 249.047221 
L 357.189545 255.111591 
L 358.829215 262.382278 
L 360.468884 246.684197 
L 362.108554 260.210443 
L 363.748223 264.264864 
L 365.387893 250.705544 
L 367.027562 261.208454 
L 368.667231 260.795034 
L 370.306901 256.436277 
L 371.94657 259.037199 
L 373.58624 255.072424 
L 375.225909 217.870388 
L 376.865579 230.193798 
L 378.505248 259.98618 
L 380.144917 262.33992 
L 381.784587 229.126739 
L 383.424256 263.868851 
L 385.063926 260.934291 
L 386.703595 263.019961 
L 388.343264 239.412349 
L 388.343264 239.412349 
" style="fill:none;stroke:#e377c2;stroke-linecap:square;stroke-width:0.5;"/>
   </g>
   <g id="line2d_22">
    <path clip-path="url(#pb0ce452103)" d="M 68.607727 264.093113 
L 70.247397 264.362634 
L 71.887066 262.372704 
L 73.526736 263.688106 
L 75.166405 262.085776 
L 76.806074 260.976648 
L 78.445744 264.194945 
L 80.085413 263.966621 
L 81.725083 263.111058 
L 83.364752 263.388703 
L 85.004421 261.58648 
L 86.644091 264.083829 
L 88.28376 263.829395 
L 89.92343 263.189391 
L 91.563099 263.474578 
L 93.202769 262.92045 
L 94.842438 263.933838 
L 96.482107 262.864747 
L 98.121777 262.829642 
L 101.401116 263.277007 
L 103.040785 262.706632 
L 104.680455 263.966041 
L 106.320124 263.040849 
L 107.959793 263.865659 
L 109.599463 263.01793 
L 111.239132 260.953439 
L 112.878802 262.492814 
L 114.518471 263.594978 
L 116.15814 264.196686 
L 117.79781 259.806886 
L 119.437479 261.36744 
L 121.077149 264.637378 
L 122.716818 263.662576 
L 124.356488 261.958413 
L 125.996157 264.591249 
L 127.635826 263.289482 
L 129.275496 262.906524 
L 130.915165 263.766729 
L 132.554835 262.162948 
L 134.194504 263.072763 
L 135.834174 259.628173 
L 137.473843 262.615244 
L 139.113512 263.104096 
L 140.753182 263.315012 
L 142.392851 263.918171 
L 145.67219 263.589756 
L 147.31186 264.285463 
L 148.951529 263.737427 
L 150.591198 262.691836 
L 152.230868 264.149687 
L 153.870537 263.319654 
L 155.510207 263.366654 
L 157.149876 263.62457 
L 158.789545 263.346055 
L 160.429215 262.404907 
L 162.068884 262.476567 
L 163.708554 262.791056 
L 165.348223 261.048888 
L 166.987893 263.373326 
L 168.627562 262.634102 
L 170.267231 264.046984 
L 173.54657 263.313852 
L 176.825909 262.451617 
L 178.465579 263.541016 
L 180.105248 263.248285 
L 181.744917 263.878425 
L 183.384587 264.093403 
L 185.024256 258.74882 
L 186.663926 262.708372 
L 188.303595 263.953276 
L 189.943264 263.398857 
L 191.582934 262.467573 
L 193.222603 264.138372 
L 194.862273 264.370758 
L 196.501942 264.291845 
L 199.781281 262.641355 
L 201.42095 262.200083 
L 203.06062 263.730754 
L 204.700289 263.910338 
L 206.339959 263.566836 
L 207.979628 264.434874 
L 209.619298 263.43019 
L 211.258967 263.288612 
L 212.898636 262.323964 
L 214.538306 264.021744 
L 216.177975 263.790809 
L 217.817645 262.621336 
L 219.457314 263.514325 
L 221.096983 262.805562 
L 222.736653 262.468734 
L 226.015992 264.314765 
L 227.655661 262.487591 
L 229.295331 264.323468 
L 230.935 263.755994 
L 232.574669 261.14927 
L 234.214339 261.29607 
L 237.493678 264.204809 
L 239.133347 263.073633 
L 240.773017 263.586564 
L 244.052355 263.491405 
L 245.692025 264.041762 
L 247.331694 260.844354 
L 248.971364 260.448631 
L 250.611033 264.392227 
L 252.250702 262.340791 
L 253.890372 260.676375 
L 255.530041 258.479589 
L 257.169711 262.526177 
L 258.80938 262.962807 
L 260.44905 262.773649 
L 262.088719 261.58764 
L 263.728388 263.809666 
L 265.368058 263.068991 
L 267.007727 262.584201 
L 270.287066 263.895832 
L 271.926736 264.103848 
L 273.566405 263.94022 
L 275.206074 261.655238 
L 276.845744 261.885303 
L 278.485413 263.730174 
L 280.125083 262.63091 
L 281.764752 264.494349 
L 283.404421 262.358198 
L 285.044091 263.639946 
L 286.68376 264.055398 
L 288.32343 263.426999 
L 289.963099 263.60107 
L 291.602769 259.069692 
L 293.242438 263.591496 
L 294.882107 262.442043 
L 296.521777 263.79487 
L 298.161446 263.775142 
L 299.801116 259.88899 
L 301.440785 263.803574 
L 303.080455 262.708953 
L 304.720124 264.167094 
L 306.359793 263.698551 
L 307.999463 262.780612 
L 309.639132 263.760346 
L 311.278802 263.861308 
L 314.55814 263.471097 
L 316.19781 263.764698 
L 317.837479 262.890567 
L 319.477149 263.706384 
L 321.116818 263.937609 
L 322.756488 263.815179 
L 324.396157 262.721718 
L 326.035826 263.933547 
L 327.675496 262.898691 
L 329.315165 262.642515 
L 330.954835 263.982578 
L 332.594504 262.602189 
L 334.234174 264.228599 
L 335.873843 261.695275 
L 337.513512 264.129668 
L 339.153182 263.590916 
L 340.792851 263.419165 
L 344.07219 263.630953 
L 345.71186 263.321395 
L 347.351529 264.702945 
L 348.991198 264.23005 
L 350.630868 263.91643 
L 352.270537 262.898111 
L 353.910207 264.015071 
L 355.549876 262.614954 
L 357.189545 263.132237 
L 358.829215 264.164193 
L 360.468884 263.438894 
L 362.108554 264.295327 
L 363.748223 259.541137 
L 365.387893 263.661995 
L 367.027562 261.987425 
L 368.667231 263.968652 
L 370.306901 260.266436 
L 371.94657 264.300839 
L 373.58624 262.225323 
L 375.225909 262.882154 
L 376.865579 262.541844 
L 378.505248 263.797481 
L 380.144917 260.638079 
L 381.784587 261.681349 
L 383.424256 263.660835 
L 385.063926 264.238463 
L 386.703595 264.113712 
L 388.343264 262.637293 
L 389.982934 261.5624 
L 391.622603 262.952943 
L 393.262273 263.749031 
L 393.262273 263.749031 
" style="fill:none;stroke:#7f7f7f;stroke-linecap:square;stroke-width:0.5;"/>
   </g>
   <g id="line2d_23">
    <path clip-path="url(#pb0ce452103)" d="M 68.607727 263.883647 
L 70.247397 262.814556 
L 71.887066 261.810452 
L 73.526736 263.901924 
L 75.166405 259.740159 
L 76.806074 263.372166 
L 78.445744 195.215239 
L 80.085413 262.209657 
L 81.725083 259.526631 
L 83.364752 262.658472 
L 85.004421 264.478392 
L 86.644091 263.529121 
L 88.28376 263.563645 
L 89.92343 256.207082 
L 91.563099 263.053034 
L 93.202769 262.506449 
L 94.842438 260.95605 
L 96.482107 262.197762 
L 98.121777 263.86798 
L 99.761446 264.014781 
L 101.401116 262.481209 
L 103.040785 261.342489 
L 104.680455 260.992315 
L 106.320124 260.893964 
L 107.959793 259.109439 
L 109.599463 259.318905 
L 111.239132 258.969311 
L 112.878802 261.085733 
L 114.518471 262.427246 
L 116.15814 260.728306 
L 117.79781 264.587187 
L 119.437479 261.742274 
L 121.077149 261.609689 
L 122.716818 263.838388 
L 124.356488 263.788488 
L 125.996157 262.322513 
L 127.635826 257.642304 
L 129.275496 262.210817 
L 130.915165 264.213803 
L 132.554835 261.572554 
L 134.194504 230.381506 
L 135.834174 230.758371 
L 137.473843 263.199545 
L 139.113512 252.052279 
L 140.753182 264.080348 
L 142.392851 262.553739 
L 144.032521 261.679608 
L 145.67219 262.784094 
L 147.31186 262.50819 
L 148.951529 261.241238 
L 150.591198 263.886838 
L 152.230868 259.47673 
L 153.870537 262.530529 
L 155.510207 263.823592 
L 157.149876 264.122705 
L 158.789545 263.256989 
L 160.429215 264.534385 
L 162.068884 264.507984 
L 163.708554 260.409175 
L 165.348223 263.734816 
L 166.987893 264.128798 
L 168.627562 263.879005 
L 170.267231 260.434125 
L 171.906901 260.83478 
L 173.54657 260.945316 
L 175.18624 264.365245 
L 176.825909 256.699125 
L 178.465579 263.45514 
L 180.105248 257.563391 
L 181.744917 258.704142 
L 183.384587 262.839797 
L 185.024256 260.986222 
L 186.663926 261.397032 
L 188.303595 259.318325 
L 189.943264 263.626891 
L 191.582934 260.064803 
L 193.222603 261.520623 
L 194.862273 263.358821 
L 196.501942 258.122742 
L 198.141612 263.977936 
L 199.781281 263.924554 
L 201.42095 262.448425 
L 203.06062 262.368062 
L 206.339959 258.21442 
L 207.979628 259.067371 
L 209.619298 263.343154 
L 211.258967 263.664897 
L 212.898636 258.217321 
L 214.538306 259.67082 
L 216.177975 252.331084 
L 217.817645 259.832707 
L 219.457314 259.268424 
L 221.096983 262.251724 
L 222.736653 263.031566 
L 224.376322 259.189512 
L 226.015992 254.280688 
L 227.655661 221.001939 
L 229.295331 262.33905 
L 230.935 262.058504 
L 232.574669 264.71542 
L 234.214339 258.91796 
L 235.854008 250.339123 
L 237.493678 259.077235 
L 239.133347 260.904119 
L 240.773017 263.444406 
L 242.412686 221.000489 
L 244.052355 254.956957 
L 245.692025 263.931226 
L 247.331694 260.389737 
L 248.971364 261.689472 
L 250.611033 263.272075 
L 252.250702 263.628632 
L 253.890372 264.288654 
L 255.530041 257.039726 
L 257.169711 257.080342 
L 258.80938 255.294076 
L 260.44905 264.199587 
L 262.088719 256.691002 
L 263.728388 264.368437 
L 265.368058 259.641808 
L 267.007727 261.407766 
L 268.647397 260.625894 
L 270.287066 264.159841 
L 271.926736 263.675631 
L 273.566405 262.9454 
L 275.206074 259.1135 
L 276.845744 261.469852 
L 278.485413 262.013246 
L 280.125083 262.246792 
L 281.764752 254.680473 
L 283.404421 264.27995 
L 285.044091 257.698007 
L 286.68376 263.512584 
L 288.32343 262.938147 
L 289.963099 254.824952 
L 291.602769 260.235393 
L 293.242438 264.233531 
L 294.882107 260.619221 
L 296.521777 263.451659 
L 298.161446 264.024065 
L 299.801116 262.891438 
L 301.440785 262.091868 
L 303.080455 256.238125 
L 304.720124 262.587102 
L 306.359793 260.215955 
L 307.999463 263.134558 
L 309.639132 258.899392 
L 311.278802 261.051499 
L 312.918471 263.729303 
L 314.55814 263.590336 
L 316.19781 261.592572 
L 317.837479 258.53065 
L 319.477149 259.491526 
L 321.116818 262.327735 
L 322.756488 262.482949 
L 324.396157 259.114951 
L 326.035826 252.309906 
L 327.675496 260.090623 
L 329.315165 263.543917 
L 332.594504 263.233489 
L 334.234174 261.501765 
L 335.873843 249.684904 
L 337.513512 261.688022 
L 339.153182 261.946228 
L 340.792851 262.760884 
L 342.432521 263.803864 
L 344.07219 264.591249 
L 345.71186 257.004041 
L 347.351529 263.208248 
L 348.991198 264.609816 
L 350.630868 263.749031 
L 352.270537 260.88236 
L 353.910207 262.181225 
L 355.549876 262.912036 
L 357.189545 260.215955 
L 358.829215 264.054527 
L 360.468884 251.968145 
L 362.108554 263.189391 
L 363.748223 259.076945 
L 365.387893 264.332462 
L 367.027562 259.602352 
L 368.667231 257.000559 
L 370.306901 264.030447 
L 371.94657 261.29491 
L 373.58624 260.073216 
L 375.225909 257.686982 
L 375.225909 257.686982 
" style="fill:none;stroke:#bcbd22;stroke-linecap:square;stroke-width:0.5;"/>
   </g>
   <g id="line2d_24">
    <path clip-path="url(#pb0ce452103)" d="M 68.607727 252.332825 
L 70.247397 249.720298 
L 71.887066 259.071723 
L 73.526736 257.957954 
L 75.166405 245.720129 
L 76.806074 258.743308 
L 78.445744 228.275818 
L 80.085413 232.231599 
L 81.725083 263.321395 
L 83.364752 263.33329 
L 85.004421 257.301413 
L 86.644091 264.175507 
L 88.28376 252.832991 
L 89.92343 263.52651 
L 91.563099 263.297605 
L 93.202769 252.038644 
L 94.842438 22.796 
L 96.482107 262.153083 
L 98.121777 263.013578 
L 99.761446 264.30316 
L 101.401116 264.240204 
L 103.040785 257.093108 
L 104.680455 248.156263 
L 106.320124 243.024918 
L 107.959793 263.959078 
L 109.599463 249.004283 
L 111.239132 257.359727 
L 112.878802 251.590409 
L 114.518471 263.014449 
L 116.15814 260.585277 
L 117.79781 194.570593 
L 119.437479 260.437606 
L 121.077149 254.274886 
L 122.716818 262.844148 
L 124.356488 263.888579 
L 125.996157 260.797645 
L 127.635826 253.442533 
L 129.275496 247.861792 
L 130.915165 264.695111 
L 132.554835 251.054268 
L 134.194504 247.46839 
L 135.834174 264.71571 
L 137.473843 177.307316 
L 139.113512 242.524752 
L 140.753182 155.081544 
L 142.392851 241.310311 
L 144.032521 175.673943 
L 145.67219 262.124942 
L 147.31186 264.71571 
L 148.951529 264.716 
L 150.591198 264.203359 
L 152.230868 263.456011 
L 153.870537 241.062549 
L 155.510207 260.158801 
L 157.149876 262.708953 
L 158.789545 262.331797 
L 160.429215 255.688348 
L 162.068884 254.440544 
L 163.708554 253.361299 
L 165.348223 254.178566 
L 166.987893 216.430815 
L 168.627562 253.758473 
L 170.267231 248.363409 
L 171.906901 127.887763 
L 173.54657 239.821707 
L 175.18624 255.357322 
L 176.825909 258.203975 
L 178.465579 242.470499 
L 180.105248 262.961357 
L 181.744917 256.538689 
L 183.384587 260.182301 
L 185.024256 252.014274 
L 186.663926 244.844258 
L 188.303595 262.125232 
L 189.943264 259.54926 
L 191.582934 76.153056 
L 193.222603 235.791656 
L 194.862273 230.060343 
L 196.501942 257.594434 
L 198.141612 258.574748 
L 199.781281 258.394294 
L 201.42095 256.454554 
L 203.06062 262.978764 
L 204.700289 264.333622 
L 206.339959 247.291417 
L 207.979628 232.69608 
L 209.619298 261.980462 
L 211.258967 250.919072 
L 212.898636 237.217594 
L 214.538306 258.883145 
L 216.177975 260.667381 
L 217.817645 208.294411 
L 219.457314 253.975192 
L 221.096983 264.202198 
L 222.736653 194.813423 
L 224.376322 259.956298 
L 226.015992 247.165505 
L 227.655661 261.328564 
L 229.295331 256.696514 
L 230.935 262.936696 
L 232.574669 249.91845 
L 235.854008 261.289107 
L 237.493678 235.083474 
L 239.133347 259.47702 
L 240.773017 264.420078 
L 242.412686 259.487174 
L 244.052355 209.861347 
L 245.692025 250.204218 
L 247.331694 262.455968 
L 248.971364 262.563022 
L 250.611033 263.450788 
L 252.250702 253.965908 
L 253.890372 247.673214 
L 255.530041 257.227723 
L 257.169711 252.512989 
L 258.80938 227.01931 
L 260.44905 260.295448 
L 262.088719 263.549139 
L 263.728388 255.028907 
L 265.368058 263.134558 
L 267.007727 260.110061 
L 268.647397 193.35064 
L 270.287066 250.945763 
L 271.926736 250.950695 
L 273.566405 261.041925 
L 275.206074 260.996377 
L 276.845744 255.106078 
L 278.485413 245.617717 
L 280.125083 249.702891 
L 281.764752 257.964627 
L 283.404421 207.151629 
L 285.044091 259.361843 
L 286.68376 239.90033 
L 288.32343 263.436282 
L 289.963099 239.080162 
L 291.602769 241.893452 
L 293.242438 251.802486 
L 294.882107 251.15668 
L 296.521777 238.496731 
L 298.161446 259.286992 
L 299.801116 252.823707 
L 301.440785 219.550471 
L 303.080455 260.711479 
L 304.720124 264.068743 
L 306.359793 264.019713 
L 307.999463 263.785877 
L 309.639132 261.921278 
L 311.278802 255.557214 
L 312.918471 264.450831 
L 314.55814 260.513908 
L 316.19781 257.648687 
L 317.837479 241.520938 
L 319.477149 247.064833 
L 321.116818 230.214687 
L 322.756488 182.175233 
L 324.396157 260.598042 
L 326.035826 240.341892 
L 327.675496 259.581753 
L 329.315165 264.687278 
L 330.954835 262.398525 
L 332.594504 250.650422 
L 334.234174 262.700539 
L 335.873843 258.65221 
L 337.513512 259.328769 
L 339.153182 264.689889 
L 340.792851 260.974328 
L 342.432521 159.554318 
L 344.07219 264.71484 
L 345.71186 197.687348 
L 347.351529 252.887824 
L 348.991198 245.508342 
L 350.630868 255.104338 
L 352.270537 253.367392 
L 353.910207 259.798763 
L 355.549876 233.155049 
L 357.189545 217.89969 
L 358.829215 257.740074 
L 360.468884 260.753256 
L 362.108554 262.067498 
L 363.748223 257.634471 
L 365.387893 261.401674 
L 367.027562 263.371006 
L 368.667231 252.044156 
L 370.306901 263.226526 
L 371.94657 214.855465 
L 373.58624 260.428903 
L 375.225909 258.72474 
L 376.865579 246.460514 
L 380.144917 255.312934 
L 381.784587 213.791016 
L 383.424256 259.159629 
L 385.063926 248.097659 
L 386.703595 246.47415 
L 388.343264 261.784632 
L 389.982934 248.158584 
L 391.622603 248.639603 
L 393.262273 263.634724 
L 393.262273 263.634724 
" style="fill:none;stroke:#17becf;stroke-linecap:square;stroke-width:0.5;"/>
   </g>
   <g id="line2d_25">
    <path clip-path="url(#pb0ce452103)" d="M 68.607727 226.72861 
L 70.247397 260.987963 
L 71.887066 142.26406 
L 73.526736 256.528825 
L 75.166405 261.5389 
L 76.806074 249.232027 
L 78.445744 254.457951 
L 80.085413 243.63591 
L 83.364752 213.607081 
L 85.004421 257.259926 
L 86.644091 251.608977 
L 88.28376 263.798062 
L 89.92343 259.905237 
L 91.563099 238.236204 
L 93.202769 261.712972 
L 94.842438 264.451991 
L 96.482107 250.898764 
L 98.121777 248.680509 
L 99.761446 230.328414 
L 101.401116 246.267005 
L 103.040785 173.858665 
L 104.680455 264.011299 
L 106.320124 224.506294 
L 107.959793 257.731661 
L 109.599463 88.370863 
L 111.239132 241.631764 
L 112.878802 208.494593 
L 114.518471 220.042804 
L 116.15814 261.958703 
L 117.79781 216.154911 
L 119.437479 251.916213 
L 122.716818 264.016232 
L 124.356488 242.551443 
L 125.996157 225.739592 
L 127.635826 256.930931 
L 129.275496 259.908428 
L 130.915165 257.742105 
L 132.554835 257.550626 
L 134.194504 252.024718 
L 135.834174 258.790017 
L 137.473843 253.476186 
L 139.113512 262.756532 
L 140.753182 255.930018 
L 142.392851 255.818902 
L 144.032521 259.79122 
L 145.67219 257.502756 
L 147.31186 257.670446 
L 148.951529 261.777959 
L 150.591198 237.492337 
L 152.230868 257.411659 
L 153.870537 260.982451 
L 155.510207 263.631823 
L 157.149876 253.666505 
L 158.789545 253.209567 
L 160.429215 258.45841 
L 162.068884 166.587107 
L 163.708554 256.692452 
L 165.348223 251.924917 
L 166.987893 248.437099 
L 168.627562 261.415599 
L 170.267231 263.244223 
L 171.906901 248.17193 
L 173.54657 246.485465 
L 175.18624 253.465452 
L 176.825909 255.184411 
L 178.465579 232.880886 
L 180.105248 192.319555 
L 181.744917 218.159347 
L 183.384587 259.365614 
L 185.024256 261.372952 
L 186.663926 230.593003 
L 188.303595 230.483918 
L 189.943264 255.927697 
L 191.582934 222.319372 
L 193.222603 254.060487 
L 194.862273 259.948465 
L 196.501942 263.846802 
L 198.141612 262.696187 
L 199.781281 263.396826 
L 201.42095 248.069518 
L 203.06062 257.119218 
L 204.700289 262.637293 
L 206.339959 255.672392 
L 207.979628 252.494132 
L 209.619298 252.869256 
L 211.258967 261.813644 
L 212.898636 236.701471 
L 214.538306 255.241854 
L 216.177975 256.139194 
L 217.817645 232.833016 
L 219.457314 263.147904 
L 221.096983 253.705091 
L 222.736653 257.735432 
L 224.376322 255.10956 
L 226.015992 256.368679 
L 227.655661 259.490656 
L 229.295331 261.993228 
L 230.935 252.87767 
L 232.574669 259.395787 
L 234.214339 260.334324 
L 235.854008 254.568197 
L 237.493678 253.130944 
L 239.133347 259.868392 
L 240.773017 248.837174 
L 242.412686 209.648399 
L 244.052355 262.206756 
L 245.692025 259.215332 
L 247.331694 236.501579 
L 248.971364 255.688348 
L 250.611033 261.420822 
L 252.250702 252.503996 
L 253.890372 259.469187 
L 255.530041 235.681121 
L 257.169711 232.504311 
L 258.80938 263.773692 
L 260.44905 262.881574 
L 262.088719 220.410385 
L 263.728388 235.011525 
L 265.368058 258.584902 
L 267.007727 263.178656 
L 268.647397 182.92084 
L 270.287066 253.353466 
L 271.926736 262.45887 
L 273.566405 255.696762 
L 275.206074 260.933711 
L 276.845744 247.049167 
L 278.485413 249.684904 
L 280.125083 251.961472 
L 281.764752 262.404907 
L 283.404421 256.839543 
L 285.044091 259.806886 
L 286.68376 242.807328 
L 288.32343 261.07848 
L 289.963099 247.967686 
L 291.602769 248.403445 
L 293.242438 258.927824 
L 294.882107 261.594603 
L 296.521777 260.603845 
L 298.161446 248.479166 
L 299.801116 263.970973 
L 301.440785 257.949541 
L 303.080455 231.65194 
L 304.720124 245.244043 
L 306.359793 245.932206 
L 307.999463 250.965201 
L 309.639132 256.416839 
L 311.278802 243.543072 
L 312.918471 260.005038 
L 314.55814 257.58544 
L 316.19781 258.628711 
L 317.837479 235.336749 
L 319.477149 263.28571 
L 321.116818 263.026343 
L 322.756488 258.512953 
L 324.396157 252.667333 
L 326.035826 263.646619 
L 327.675496 236.046961 
L 329.315165 262.875481 
L 330.954835 264.308092 
L 332.594504 259.810368 
L 334.234174 264.196686 
L 335.873843 258.880534 
L 337.513512 262.502097 
L 339.153182 255.316415 
L 340.792851 260.532185 
L 342.432521 243.895277 
L 344.07219 262.346303 
L 345.71186 258.340912 
L 347.351529 261.084283 
L 348.991198 259.749733 
L 350.630868 262.272323 
L 352.270537 253.8487 
L 353.910207 260.345058 
L 355.549876 262.036165 
L 357.189545 252.206333 
L 358.829215 260.904119 
L 360.468884 258.565464 
L 362.108554 259.582044 
L 363.748223 261.299842 
L 365.387893 254.399927 
L 367.027562 262.026881 
L 368.667231 260.694362 
L 370.306901 243.621694 
L 371.94657 258.902874 
L 373.58624 264.06091 
L 375.225909 260.911952 
L 376.865579 248.086054 
L 378.505248 261.842075 
L 380.144917 256.810241 
L 381.784587 248.382847 
L 383.424256 225.474133 
L 385.063926 258.689346 
L 386.703595 259.008767 
L 388.343264 252.993718 
L 388.343264 252.993718 
" style="fill:none;stroke:#1f77b4;stroke-linecap:square;stroke-width:0.5;"/>
   </g>
   <g id="line2d_26">
    <path clip-path="url(#pb0ce452103)" d="M 68.607727 264.166804 
L 70.247397 260.603265 
L 71.887066 260.270497 
L 73.526736 264.056558 
L 75.166405 264.20742 
L 76.806074 262.408679 
L 78.445744 262.344272 
L 80.085413 260.829558 
L 81.725083 263.967782 
L 83.364752 262.859525 
L 85.004421 262.079973 
L 86.644091 263.422937 
L 88.28376 263.30863 
L 89.92343 264.395418 
L 91.563099 258.356578 
L 93.202769 263.38261 
L 94.842438 258.112878 
L 96.482107 256.786161 
L 98.121777 262.391562 
L 99.761446 253.361879 
L 101.401116 263.401758 
L 103.040785 263.482992 
L 104.680455 261.82844 
L 106.320124 263.360271 
L 107.959793 260.723954 
L 109.599463 263.216952 
L 111.239132 262.637873 
L 112.878802 261.879791 
L 114.518471 261.914895 
L 116.15814 260.452402 
L 117.79781 258.11781 
L 119.437479 262.62975 
L 121.077149 263.781235 
L 122.716818 261.512789 
L 124.356488 258.671068 
L 125.996157 261.020747 
L 127.635826 263.682304 
L 129.275496 263.271495 
L 130.915165 257.46272 
L 132.554835 258.207167 
L 134.194504 260.104549 
L 135.834174 264.413985 
L 137.473843 258.210068 
L 139.113512 263.849703 
L 140.753182 261.074129 
L 142.392851 259.391145 
L 144.032521 259.350238 
L 145.67219 255.845883 
L 147.31186 261.852229 
L 148.951529 263.18852 
L 150.591198 262.065177 
L 152.230868 263.335611 
L 153.870537 260.498531 
L 155.510207 259.332251 
L 157.149876 258.402127 
L 158.789545 263.30863 
L 160.429215 261.582708 
L 162.068884 262.887376 
L 163.708554 248.799749 
L 165.348223 250.123854 
L 166.987893 261.432136 
L 168.627562 254.084857 
L 170.267231 263.489084 
L 171.906901 257.552077 
L 173.54657 261.995839 
L 175.18624 262.199793 
L 176.825909 260.73759 
L 178.465579 260.072346 
L 180.105248 262.328896 
L 181.744917 260.226399 
L 183.384587 263.345765 
L 185.024256 261.614041 
L 186.663926 253.112957 
L 188.303595 263.218113 
L 189.943264 258.679191 
L 191.582934 262.078523 
L 193.222603 262.320192 
L 194.862273 257.75487 
L 196.501942 262.549677 
L 198.141612 254.796521 
L 199.781281 261.011463 
L 201.42095 223.676552 
L 203.06062 257.974201 
L 204.700289 259.011378 
L 206.339959 262.02369 
L 207.979628 260.613999 
L 209.619298 262.837185 
L 211.258967 261.364248 
L 212.898636 253.688554 
L 214.538306 261.169868 
L 216.177975 264.415726 
L 217.817645 264.141563 
L 219.457314 263.538405 
L 221.096983 262.748119 
L 222.736653 262.274644 
L 224.376322 260.910211 
L 226.015992 263.385221 
L 227.655661 257.109354 
L 229.295331 258.245172 
L 230.935 257.09891 
L 232.574669 257.796357 
L 234.214339 262.790476 
L 235.854008 258.929565 
L 237.493678 262.983696 
L 240.773017 262.403457 
L 242.412686 256.283674 
L 244.052355 263.573219 
L 245.692025 263.326617 
L 247.331694 264.508855 
L 248.971364 261.736182 
L 250.611033 262.960196 
L 252.250702 251.667581 
L 253.890372 259.589006 
L 255.530041 248.868507 
L 257.169711 261.859192 
L 258.80938 263.664026 
L 260.44905 263.312111 
L 262.088719 264.03567 
L 263.728388 257.901091 
L 265.368058 262.402296 
L 267.007727 258.646988 
L 268.647397 263.776883 
L 270.287066 263.548559 
L 271.926736 262.106084 
L 273.566405 258.209198 
L 275.206074 261.932883 
L 276.845744 260.297769 
L 278.485413 264.319407 
L 280.125083 262.262459 
L 281.764752 260.555685 
L 283.404421 256.498943 
L 285.044091 260.190134 
L 286.68376 258.866319 
L 288.32343 264.020873 
L 289.963099 264.622001 
L 291.602769 260.199998 
L 293.242438 262.066628 
L 294.882107 263.176916 
L 296.521777 259.512125 
L 298.161446 263.653872 
L 299.801116 255.829056 
L 301.440785 264.530614 
L 303.080455 264.341456 
L 304.720124 259.918002 
L 307.999463 263.525059 
L 309.639132 263.098003 
L 311.278802 263.587435 
L 312.918471 263.739167 
L 314.55814 255.277539 
L 316.19781 261.415019 
L 317.837479 263.664316 
L 319.477149 260.27601 
L 321.116818 261.979012 
L 322.756488 261.231664 
L 324.396157 260.933131 
L 326.035826 262.771038 
L 327.675496 255.494258 
L 329.315165 260.021285 
L 330.954835 248.992678 
L 332.594504 264.507984 
L 334.234174 264.095434 
L 335.873843 261.080221 
L 337.513512 262.846469 
L 339.153182 262.500066 
L 340.792851 262.760014 
L 342.432521 262.105504 
L 344.07219 261.769545 
L 345.71186 258.989619 
L 347.351529 261.273151 
L 348.991198 254.777083 
L 350.630868 263.554941 
L 352.270537 261.209615 
L 353.910207 261.282435 
L 355.549876 263.385802 
L 357.189545 263.72176 
L 358.829215 263.418875 
L 360.468884 260.428322 
L 362.108554 259.188641 
L 363.748223 260.040433 
L 365.387893 260.511007 
L 367.027562 263.078855 
L 368.667231 262.977023 
L 370.306901 261.218318 
L 371.94657 257.895578 
L 373.58624 263.037368 
L 375.225909 261.725737 
L 378.505248 264.20684 
L 380.144917 262.073591 
L 381.784587 251.589249 
L 383.424256 262.068949 
L 383.424256 262.068949 
" style="fill:none;stroke:#ff7f0e;stroke-linecap:square;stroke-width:0.5;"/>
   </g>
   <g id="line2d_27">
    <path clip-path="url(#pb0ce452103)" d="M 68.607727 260.743392 
L 70.247397 261.142887 
L 71.887066 253.895699 
L 73.526736 257.610971 
L 75.166405 255.386624 
L 76.806074 263.365783 
L 78.445744 255.652083 
L 80.085413 253.16953 
L 81.725083 263.247705 
L 83.364752 258.569816 
L 85.004421 259.943242 
L 86.644091 257.427615 
L 88.28376 256.422061 
L 89.92343 249.041418 
L 91.563099 263.983158 
L 93.202769 257.053651 
L 94.842438 259.101606 
L 96.482107 257.974201 
L 98.121777 255.098825 
L 99.761446 261.695855 
L 101.401116 262.829932 
L 103.040785 248.701978 
L 104.680455 261.352934 
L 106.320124 264.578193 
L 107.959793 261.408927 
L 109.599463 259.510964 
L 111.239132 250.630403 
L 112.878802 262.72723 
L 114.518471 262.243021 
L 116.15814 257.561651 
L 117.79781 262.099121 
L 119.437479 263.798642 
L 121.077149 262.639904 
L 122.716818 260.797355 
L 124.356488 262.202984 
L 125.996157 260.533346 
L 127.635826 242.775705 
L 129.275496 263.688396 
L 130.915165 259.617148 
L 132.554835 262.456839 
L 134.194504 262.449876 
L 135.834174 262.245922 
L 137.473843 254.184078 
L 139.113512 262.213718 
L 140.753182 261.65988 
L 142.392851 257.09891 
L 144.032521 256.022566 
L 145.67219 263.326327 
L 147.31186 260.818823 
L 148.951529 263.678242 
L 150.591198 263.281939 
L 152.230868 263.341703 
L 153.870537 259.978057 
L 155.510207 263.395085 
L 157.149876 259.855046 
L 158.789545 261.142597 
L 160.429215 263.13978 
L 162.068884 261.959284 
L 163.708554 263.759186 
L 165.348223 263.113379 
L 166.987893 263.226236 
L 168.627562 264.429072 
L 170.267231 263.758315 
L 171.906901 261.741404 
L 173.54657 262.643095 
L 175.18624 263.313272 
L 176.825909 260.320978 
L 178.465579 263.377678 
L 180.105248 262.504128 
L 181.744917 264.052206 
L 183.384587 258.130285 
L 185.024256 263.908017 
L 186.663926 262.225903 
L 188.303595 263.785296 
L 189.943264 264.282271 
L 191.582934 264.418047 
L 193.222603 258.157266 
L 194.862273 264.13344 
L 196.501942 260.046525 
L 198.141612 263.874943 
L 199.781281 261.734151 
L 201.42095 263.875814 
L 203.06062 263.897573 
L 204.700289 262.794828 
L 206.339959 263.767889 
L 207.979628 264.339425 
L 209.619298 262.482949 
L 211.258967 263.063189 
L 212.898636 263.806185 
L 214.538306 262.380827 
L 216.177975 262.528788 
L 217.817645 262.815717 
L 219.457314 262.583621 
L 221.096983 258.778993 
L 222.736653 262.975282 
L 224.376322 262.328026 
L 226.015992 262.352686 
L 229.295331 261.267348 
L 230.935 262.950332 
L 232.574669 263.506491 
L 234.214339 262.369803 
L 235.854008 263.288612 
L 237.493678 261.142887 
L 239.133347 261.95 
L 240.773017 259.429441 
L 242.412686 263.725822 
L 244.052355 257.022608 
L 245.692025 257.109934 
L 247.331694 264.033058 
L 248.971364 259.950495 
L 250.611033 261.726027 
L 252.250702 261.560079 
L 253.890372 263.361141 
L 255.530041 263.563065 
L 257.169711 261.177991 
L 258.80938 261.905321 
L 260.44905 260.602104 
L 262.088719 254.355539 
L 263.728388 262.777711 
L 265.368058 262.573467 
L 267.007727 262.644836 
L 268.647397 260.409465 
L 270.287066 263.862758 
L 271.926736 263.738877 
L 273.566405 262.347754 
L 275.206074 263.302827 
L 276.845744 260.527543 
L 278.485413 262.463511 
L 280.125083 258.583162 
L 281.764752 263.149354 
L 283.404421 263.86653 
L 285.044091 263.811407 
L 286.68376 261.447803 
L 288.32343 264.163032 
L 289.963099 264.190303 
L 291.602769 252.202561 
L 293.242438 262.04719 
L 294.882107 260.335484 
L 296.521777 262.529078 
L 298.161446 258.448256 
L 299.801116 261.287947 
L 301.440785 264.435744 
L 303.080455 245.286981 
L 304.720124 254.159998 
L 306.359793 263.661125 
L 307.999463 262.399105 
L 309.639132 257.771407 
L 311.278802 264.13402 
L 312.918471 262.960196 
L 314.55814 263.482121 
L 316.19781 263.4534 
L 317.837479 262.267681 
L 319.477149 255.674713 
L 321.116818 251.649013 
L 322.756488 255.452771 
L 324.396157 253.97113 
L 326.035826 231.50659 
L 327.675496 256.744094 
L 329.315165 256.097127 
L 330.954835 263.425548 
L 332.594504 259.781646 
L 334.234174 262.768137 
L 335.873843 262.596096 
L 337.513512 258.718648 
L 339.153182 258.958577 
L 340.792851 258.411121 
L 342.432521 263.608033 
L 344.07219 261.839754 
L 345.71186 260.889613 
L 347.351529 259.652833 
L 348.991198 262.055893 
L 350.630868 261.647115 
L 352.270537 260.711479 
L 353.910207 261.412988 
L 355.549876 259.870132 
L 357.189545 261.411248 
L 358.829215 262.713304 
L 360.468884 261.268509 
L 362.108554 257.378585 
L 363.748223 261.53861 
L 365.387893 260.652005 
L 367.027562 263.153126 
L 368.667231 255.564757 
L 370.306901 256.994177 
L 371.94657 257.75313 
L 373.58624 254.744299 
L 375.225909 261.382236 
L 376.865579 263.543046 
L 378.505248 256.520121 
L 380.144917 258.09402 
L 381.784587 257.854381 
L 383.424256 256.149639 
L 385.063926 263.468776 
L 386.703595 256.354753 
L 388.343264 262.350945 
L 389.982934 260.825206 
L 391.622603 264.232371 
L 393.262273 259.668789 
L 393.262273 259.668789 
" style="fill:none;stroke:#2ca02c;stroke-linecap:square;stroke-width:0.5;"/>
   </g>
   <g id="patch_3">
    <path d="M 52.375 276.812 
L 52.375 10.7 
" style="fill:none;stroke:#000000;stroke-linecap:square;stroke-linejoin:miter;stroke-width:0.8;"/>
   </g>
   <g id="patch_4">
    <path d="M 409.495 276.812 
L 409.495 10.7 
" style="fill:none;stroke:#000000;stroke-linecap:square;stroke-linejoin:miter;stroke-width:0.8;"/>
   </g>
   <g id="patch_5">
    <path d="M 52.375 276.812 
L 409.495 276.812 
" style="fill:none;stroke:#000000;stroke-linecap:square;stroke-linejoin:miter;stroke-width:0.8;"/>
   </g>
   <g id="patch_6">
    <path d="M 52.375 10.7 
L 409.495 10.7 
" style="fill:none;stroke:#000000;stroke-linecap:square;stroke-linejoin:miter;stroke-width:0.8;"/>
   </g>
  </g>
 </g>
 <defs>
  <clipPath id="pb0ce452103">
   <rect height="266.112" width="357.12" x="52.375" y="10.7"/>
  </clipPath>
 </defs>
</svg>
