<?xml version="1.0" encoding="utf-8" standalone="no"?>
<!DOCTYPE svg PUBLIC "-//W3C//DTD SVG 1.1//EN"
  "http://www.w3.org/Graphics/SVG/1.1/DTD/svg11.dtd">
<!-- Created with matplotlib (http://matplotlib.org/) -->
<svg height="300pt" version="1.1" viewBox="0 0 426 300" width="426pt" xmlns="http://www.w3.org/2000/svg" xmlns:xlink="http://www.w3.org/1999/xlink">
 <defs>
  <style type="text/css">
*{stroke-linecap:butt;stroke-linejoin:round;}
  </style>
 </defs>
 <g id="figure_1">
  <g id="patch_1">
   <path d="M 0 300.690125 
L 426.5575 300.690125 
L 426.5575 0 
L 0 0 
z
" style="fill:#ffffff;"/>
  </g>
  <g id="axes_1">
   <g id="patch_2">
    <path d="M 58.7375 276.812 
L 415.8575 276.812 
L 415.8575 10.7 
L 58.7375 10.7 
z
" style="fill:#ffffff;"/>
   </g>
   <g id="matplotlib.axis_1">
    <g id="xtick_1">
     <g id="line2d_1">
      <defs>
       <path d="M 0 0 
L 0 3.5 
" id="m02040e119b" style="stroke:#000000;stroke-width:0.8;"/>
      </defs>
      <g>
       <use style="stroke:#000000;stroke-width:0.8;" x="74.970227" xlink:href="#m02040e119b" y="276.812"/>
      </g>
     </g>
     <g id="text_1">
      <!-- 0 -->
      <defs>
       <path d="M 31.78125 66.40625 
Q 24.171875 66.40625 20.328125 58.90625 
Q 16.5 51.421875 16.5 36.375 
Q 16.5 21.390625 20.328125 13.890625 
Q 24.171875 6.390625 31.78125 6.390625 
Q 39.453125 6.390625 43.28125 13.890625 
Q 47.125 21.390625 47.125 36.375 
Q 47.125 51.421875 43.28125 58.90625 
Q 39.453125 66.40625 31.78125 66.40625 
M 31.78125 74.21875 
Q 44.046875 74.21875 50.515625 64.515625 
Q 56.984375 54.828125 56.984375 36.375 
Q 56.984375 17.96875 50.515625 8.265625 
Q 44.046875 -1.421875 31.78125 -1.421875 
Q 19.53125 -1.421875 13.0625 8.265625 
Q 6.59375 17.96875 6.59375 36.375 
Q 6.59375 54.828125 13.0625 64.515625 
Q 19.53125 74.21875 31.78125 74.21875 
" id="DejaVuSans-30"/>
      </defs>
      <g transform="translate(71.788977 291.410437)scale(0.1 -0.1)">
       <use xlink:href="#DejaVuSans-30"/>
      </g>
     </g>
    </g>
    <g id="xtick_2">
     <g id="line2d_2">
      <g>
       <use style="stroke:#000000;stroke-width:0.8;" x="115.961963" xlink:href="#m02040e119b" y="276.812"/>
      </g>
     </g>
     <g id="text_2">
      <!-- 25 -->
      <defs>
       <path d="M 19.1875 8.296875 
L 53.609375 8.296875 
L 53.609375 0 
L 7.328125 0 
L 7.328125 8.296875 
Q 12.9375 14.109375 22.625 23.890625 
Q 32.328125 33.6875 34.8125 36.53125 
Q 39.546875 41.84375 41.421875 45.53125 
Q 43.3125 49.21875 43.3125 52.78125 
Q 43.3125 58.59375 39.234375 62.25 
Q 35.15625 65.921875 28.609375 65.921875 
Q 23.96875 65.921875 18.8125 64.3125 
Q 13.671875 62.703125 7.8125 59.421875 
L 7.8125 69.390625 
Q 13.765625 71.78125 18.9375 73 
Q 24.125 74.21875 28.421875 74.21875 
Q 39.75 74.21875 46.484375 68.546875 
Q 53.21875 62.890625 53.21875 53.421875 
Q 53.21875 48.921875 51.53125 44.890625 
Q 49.859375 40.875 45.40625 35.40625 
Q 44.1875 33.984375 37.640625 27.21875 
Q 31.109375 20.453125 19.1875 8.296875 
" id="DejaVuSans-32"/>
       <path d="M 10.796875 72.90625 
L 49.515625 72.90625 
L 49.515625 64.59375 
L 19.828125 64.59375 
L 19.828125 46.734375 
Q 21.96875 47.46875 24.109375 47.828125 
Q 26.265625 48.1875 28.421875 48.1875 
Q 40.625 48.1875 47.75 41.5 
Q 54.890625 34.8125 54.890625 23.390625 
Q 54.890625 11.625 47.5625 5.09375 
Q 40.234375 -1.421875 26.90625 -1.421875 
Q 22.3125 -1.421875 17.546875 -0.640625 
Q 12.796875 0.140625 7.71875 1.703125 
L 7.71875 11.625 
Q 12.109375 9.234375 16.796875 8.0625 
Q 21.484375 6.890625 26.703125 6.890625 
Q 35.15625 6.890625 40.078125 11.328125 
Q 45.015625 15.765625 45.015625 23.390625 
Q 45.015625 31 40.078125 35.4375 
Q 35.15625 39.890625 26.703125 39.890625 
Q 22.75 39.890625 18.8125 39.015625 
Q 14.890625 38.140625 10.796875 36.28125 
z
" id="DejaVuSans-35"/>
      </defs>
      <g transform="translate(109.599463 291.410437)scale(0.1 -0.1)">
       <use xlink:href="#DejaVuSans-32"/>
       <use x="63.623047" xlink:href="#DejaVuSans-35"/>
      </g>
     </g>
    </g>
    <g id="xtick_3">
     <g id="line2d_3">
      <g>
       <use style="stroke:#000000;stroke-width:0.8;" x="156.953698" xlink:href="#m02040e119b" y="276.812"/>
      </g>
     </g>
     <g id="text_3">
      <!-- 50 -->
      <g transform="translate(150.591198 291.410437)scale(0.1 -0.1)">
       <use xlink:href="#DejaVuSans-35"/>
       <use x="63.623047" xlink:href="#DejaVuSans-30"/>
      </g>
     </g>
    </g>
    <g id="xtick_4">
     <g id="line2d_4">
      <g>
       <use style="stroke:#000000;stroke-width:0.8;" x="197.945434" xlink:href="#m02040e119b" y="276.812"/>
      </g>
     </g>
     <g id="text_4">
      <!-- 75 -->
      <defs>
       <path d="M 8.203125 72.90625 
L 55.078125 72.90625 
L 55.078125 68.703125 
L 28.609375 0 
L 18.3125 0 
L 43.21875 64.59375 
L 8.203125 64.59375 
z
" id="DejaVuSans-37"/>
      </defs>
      <g transform="translate(191.582934 291.410437)scale(0.1 -0.1)">
       <use xlink:href="#DejaVuSans-37"/>
       <use x="63.623047" xlink:href="#DejaVuSans-35"/>
      </g>
     </g>
    </g>
    <g id="xtick_5">
     <g id="line2d_5">
      <g>
       <use style="stroke:#000000;stroke-width:0.8;" x="238.937169" xlink:href="#m02040e119b" y="276.812"/>
      </g>
     </g>
     <g id="text_5">
      <!-- 100 -->
      <defs>
       <path d="M 12.40625 8.296875 
L 28.515625 8.296875 
L 28.515625 63.921875 
L 10.984375 60.40625 
L 10.984375 69.390625 
L 28.421875 72.90625 
L 38.28125 72.90625 
L 38.28125 8.296875 
L 54.390625 8.296875 
L 54.390625 0 
L 12.40625 0 
z
" id="DejaVuSans-31"/>
      </defs>
      <g transform="translate(229.393419 291.410437)scale(0.1 -0.1)">
       <use xlink:href="#DejaVuSans-31"/>
       <use x="63.623047" xlink:href="#DejaVuSans-30"/>
       <use x="127.246094" xlink:href="#DejaVuSans-30"/>
      </g>
     </g>
    </g>
    <g id="xtick_6">
     <g id="line2d_6">
      <g>
       <use style="stroke:#000000;stroke-width:0.8;" x="279.928905" xlink:href="#m02040e119b" y="276.812"/>
      </g>
     </g>
     <g id="text_6">
      <!-- 125 -->
      <g transform="translate(270.385155 291.410437)scale(0.1 -0.1)">
       <use xlink:href="#DejaVuSans-31"/>
       <use x="63.623047" xlink:href="#DejaVuSans-32"/>
       <use x="127.246094" xlink:href="#DejaVuSans-35"/>
      </g>
     </g>
    </g>
    <g id="xtick_7">
     <g id="line2d_7">
      <g>
       <use style="stroke:#000000;stroke-width:0.8;" x="320.92064" xlink:href="#m02040e119b" y="276.812"/>
      </g>
     </g>
     <g id="text_7">
      <!-- 150 -->
      <g transform="translate(311.37689 291.410437)scale(0.1 -0.1)">
       <use xlink:href="#DejaVuSans-31"/>
       <use x="63.623047" xlink:href="#DejaVuSans-35"/>
       <use x="127.246094" xlink:href="#DejaVuSans-30"/>
      </g>
     </g>
    </g>
    <g id="xtick_8">
     <g id="line2d_8">
      <g>
       <use style="stroke:#000000;stroke-width:0.8;" x="361.912376" xlink:href="#m02040e119b" y="276.812"/>
      </g>
     </g>
     <g id="text_8">
      <!-- 175 -->
      <g transform="translate(352.368626 291.410437)scale(0.1 -0.1)">
       <use xlink:href="#DejaVuSans-31"/>
       <use x="63.623047" xlink:href="#DejaVuSans-37"/>
       <use x="127.246094" xlink:href="#DejaVuSans-35"/>
      </g>
     </g>
    </g>
    <g id="xtick_9">
     <g id="line2d_9">
      <g>
       <use style="stroke:#000000;stroke-width:0.8;" x="402.904112" xlink:href="#m02040e119b" y="276.812"/>
      </g>
     </g>
     <g id="text_9">
      <!-- 200 -->
      <g transform="translate(393.360362 291.410437)scale(0.1 -0.1)">
       <use xlink:href="#DejaVuSans-32"/>
       <use x="63.623047" xlink:href="#DejaVuSans-30"/>
       <use x="127.246094" xlink:href="#DejaVuSans-30"/>
      </g>
     </g>
    </g>
   </g>
   <g id="matplotlib.axis_2">
    <g id="ytick_1">
     <g id="line2d_10">
      <defs>
       <path d="M 0 0 
L -3.5 0 
" id="m12ef796d76" style="stroke:#000000;stroke-width:0.8;"/>
      </defs>
      <g>
       <use style="stroke:#000000;stroke-width:0.8;" x="58.7375" xlink:href="#m12ef796d76" y="264.716"/>
      </g>
     </g>
     <g id="text_10">
      <!-- 0 -->
      <g transform="translate(45.375 268.515219)scale(0.1 -0.1)">
       <use xlink:href="#DejaVuSans-30"/>
      </g>
     </g>
    </g>
    <g id="ytick_2">
     <g id="line2d_11">
      <g>
       <use style="stroke:#000000;stroke-width:0.8;" x="58.7375" xlink:href="#m12ef796d76" y="230.490936"/>
      </g>
     </g>
     <g id="text_11">
      <!-- 250000 -->
      <g transform="translate(13.5625 234.290155)scale(0.1 -0.1)">
       <use xlink:href="#DejaVuSans-32"/>
       <use x="63.623047" xlink:href="#DejaVuSans-35"/>
       <use x="127.246094" xlink:href="#DejaVuSans-30"/>
       <use x="190.869141" xlink:href="#DejaVuSans-30"/>
       <use x="254.492188" xlink:href="#DejaVuSans-30"/>
       <use x="318.115234" xlink:href="#DejaVuSans-30"/>
      </g>
     </g>
    </g>
    <g id="ytick_3">
     <g id="line2d_12">
      <g>
       <use style="stroke:#000000;stroke-width:0.8;" x="58.7375" xlink:href="#m12ef796d76" y="196.265873"/>
      </g>
     </g>
     <g id="text_12">
      <!-- 500000 -->
      <g transform="translate(13.5625 200.065091)scale(0.1 -0.1)">
       <use xlink:href="#DejaVuSans-35"/>
       <use x="63.623047" xlink:href="#DejaVuSans-30"/>
       <use x="127.246094" xlink:href="#DejaVuSans-30"/>
       <use x="190.869141" xlink:href="#DejaVuSans-30"/>
       <use x="254.492188" xlink:href="#DejaVuSans-30"/>
       <use x="318.115234" xlink:href="#DejaVuSans-30"/>
      </g>
     </g>
    </g>
    <g id="ytick_4">
     <g id="line2d_13">
      <g>
       <use style="stroke:#000000;stroke-width:0.8;" x="58.7375" xlink:href="#m12ef796d76" y="162.040809"/>
      </g>
     </g>
     <g id="text_13">
      <!-- 750000 -->
      <g transform="translate(13.5625 165.840028)scale(0.1 -0.1)">
       <use xlink:href="#DejaVuSans-37"/>
       <use x="63.623047" xlink:href="#DejaVuSans-35"/>
       <use x="127.246094" xlink:href="#DejaVuSans-30"/>
       <use x="190.869141" xlink:href="#DejaVuSans-30"/>
       <use x="254.492188" xlink:href="#DejaVuSans-30"/>
       <use x="318.115234" xlink:href="#DejaVuSans-30"/>
      </g>
     </g>
    </g>
    <g id="ytick_5">
     <g id="line2d_14">
      <g>
       <use style="stroke:#000000;stroke-width:0.8;" x="58.7375" xlink:href="#m12ef796d76" y="127.815745"/>
      </g>
     </g>
     <g id="text_14">
      <!-- 1000000 -->
      <g transform="translate(7.2 131.614964)scale(0.1 -0.1)">
       <use xlink:href="#DejaVuSans-31"/>
       <use x="63.623047" xlink:href="#DejaVuSans-30"/>
       <use x="127.246094" xlink:href="#DejaVuSans-30"/>
       <use x="190.869141" xlink:href="#DejaVuSans-30"/>
       <use x="254.492188" xlink:href="#DejaVuSans-30"/>
       <use x="318.115234" xlink:href="#DejaVuSans-30"/>
       <use x="381.738281" xlink:href="#DejaVuSans-30"/>
      </g>
     </g>
    </g>
    <g id="ytick_6">
     <g id="line2d_15">
      <g>
       <use style="stroke:#000000;stroke-width:0.8;" x="58.7375" xlink:href="#m12ef796d76" y="93.590681"/>
      </g>
     </g>
     <g id="text_15">
      <!-- 1250000 -->
      <g transform="translate(7.2 97.3899)scale(0.1 -0.1)">
       <use xlink:href="#DejaVuSans-31"/>
       <use x="63.623047" xlink:href="#DejaVuSans-32"/>
       <use x="127.246094" xlink:href="#DejaVuSans-35"/>
       <use x="190.869141" xlink:href="#DejaVuSans-30"/>
       <use x="254.492188" xlink:href="#DejaVuSans-30"/>
       <use x="318.115234" xlink:href="#DejaVuSans-30"/>
       <use x="381.738281" xlink:href="#DejaVuSans-30"/>
      </g>
     </g>
    </g>
    <g id="ytick_7">
     <g id="line2d_16">
      <g>
       <use style="stroke:#000000;stroke-width:0.8;" x="58.7375" xlink:href="#m12ef796d76" y="59.365618"/>
      </g>
     </g>
     <g id="text_16">
      <!-- 1500000 -->
      <g transform="translate(7.2 63.164836)scale(0.1 -0.1)">
       <use xlink:href="#DejaVuSans-31"/>
       <use x="63.623047" xlink:href="#DejaVuSans-35"/>
       <use x="127.246094" xlink:href="#DejaVuSans-30"/>
       <use x="190.869141" xlink:href="#DejaVuSans-30"/>
       <use x="254.492188" xlink:href="#DejaVuSans-30"/>
       <use x="318.115234" xlink:href="#DejaVuSans-30"/>
       <use x="381.738281" xlink:href="#DejaVuSans-30"/>
      </g>
     </g>
    </g>
    <g id="ytick_8">
     <g id="line2d_17">
      <g>
       <use style="stroke:#000000;stroke-width:0.8;" x="58.7375" xlink:href="#m12ef796d76" y="25.140554"/>
      </g>
     </g>
     <g id="text_17">
      <!-- 1750000 -->
      <g transform="translate(7.2 28.939773)scale(0.1 -0.1)">
       <use xlink:href="#DejaVuSans-31"/>
       <use x="63.623047" xlink:href="#DejaVuSans-37"/>
       <use x="127.246094" xlink:href="#DejaVuSans-35"/>
       <use x="190.869141" xlink:href="#DejaVuSans-30"/>
       <use x="254.492188" xlink:href="#DejaVuSans-30"/>
       <use x="318.115234" xlink:href="#DejaVuSans-30"/>
       <use x="381.738281" xlink:href="#DejaVuSans-30"/>
      </g>
     </g>
    </g>
   </g>
   <g id="line2d_18">
    <path clip-path="url(#pb63546d825)" d="M 74.970227 263.456655 
L 76.609897 264.620717 
L 78.249566 263.624768 
L 79.889236 261.980322 
L 81.528905 264.187428 
L 83.168574 261.927753 
L 84.808244 264.323644 
L 88.087583 263.515111 
L 89.727252 264.049433 
L 91.366921 263.422019 
L 93.006591 262.554071 
L 94.64626 264.475329 
L 96.28593 263.899527 
L 97.925599 263.921431 
L 99.565269 264.190988 
L 101.204938 263.963596 
L 102.844607 264.41126 
L 104.484277 264.63564 
L 106.123946 263.414215 
L 107.763616 262.950671 
L 109.403285 263.053073 
L 112.682624 264.610998 
L 114.322293 263.494576 
L 115.961963 264.207552 
L 117.601632 263.08675 
L 119.241302 262.889751 
L 120.880971 264.149781 
L 122.52064 264.621402 
L 124.16031 261.91064 
L 127.439649 264.463145 
L 129.079318 263.65516 
L 130.718988 263.6746 
L 132.358657 263.302505 
L 133.998326 262.801861 
L 137.277665 264.477109 
L 138.917335 264.042998 
L 140.557004 261.686671 
L 142.196674 264.567189 
L 143.836343 263.310445 
L 145.476012 263.641881 
L 147.115682 263.586436 
L 148.755351 264.18647 
L 150.395021 264.355542 
L 152.03469 264.017672 
L 153.67436 264.52872 
L 156.953698 263.299767 
L 158.593368 264.184964 
L 160.233037 263.843124 
L 161.872707 264.029993 
L 163.512376 263.64325 
L 165.152045 263.079494 
L 166.791715 264.403731 
L 168.431384 264.244105 
L 170.071054 263.85832 
L 171.710723 264.254235 
L 173.350393 262.584326 
L 174.990062 263.401073 
L 176.629731 263.672272 
L 178.269401 264.388398 
L 179.90907 262.919458 
L 183.188409 263.570282 
L 184.828079 264.50709 
L 186.467748 263.851201 
L 189.747087 263.233918 
L 191.386756 261.700361 
L 193.026426 261.78784 
L 194.666095 263.924853 
L 196.305764 264.153203 
L 197.945434 261.943907 
L 199.585103 261.414513 
L 201.224773 261.746497 
L 202.864442 264.364714 
L 204.504112 263.502242 
L 206.143781 264.320495 
L 209.42312 263.562342 
L 211.062789 263.954561 
L 212.702459 264.114186 
L 214.342128 264.615378 
L 215.981798 264.176202 
L 219.261136 262.227975 
L 220.900806 264.373476 
L 222.540475 263.103863 
L 224.180145 264.245748 
L 225.819814 261.170968 
L 227.459483 264.238629 
L 229.099153 264.243694 
L 230.738822 263.605739 
L 232.378492 264.668222 
L 234.018161 262.914119 
L 235.657831 264.586629 
L 237.2975 262.174994 
L 238.937169 264.160459 
L 240.576839 264.112544 
L 243.856178 264.439461 
L 245.495847 264.206731 
L 247.135517 263.37958 
L 248.775186 264.662061 
L 250.414855 264.377446 
L 252.054525 263.455149 
L 253.694194 263.947853 
L 255.333864 260.124639 
L 256.973533 264.592653 
L 258.613202 264.156762 
L 260.252872 261.117577 
L 261.892541 264.383195 
L 263.532211 263.47541 
L 265.17188 263.570282 
L 266.81155 263.929371 
L 268.451219 263.975917 
L 270.090888 263.794661 
L 271.730558 263.915407 
L 273.370227 263.319344 
L 276.649566 264.56144 
L 278.289236 264.399213 
L 279.928905 261.914747 
L 281.568574 262.133514 
L 283.208244 261.84794 
L 284.847913 263.879266 
L 286.487583 264.526119 
L 288.127252 264.609492 
L 289.766921 263.875706 
L 291.406591 263.626548 
L 293.04626 264.554595 
L 294.68593 264.63783 
L 296.325599 263.392722 
L 297.965269 264.63564 
L 299.604938 264.125002 
L 301.244607 263.928824 
L 302.884277 263.580139 
L 304.523946 264.443295 
L 307.803285 264.254646 
L 309.442955 263.547967 
L 311.082624 263.904866 
L 312.722293 263.823684 
L 314.361963 262.668109 
L 316.001632 263.261982 
L 317.641302 264.212481 
L 319.280971 264.195642 
L 320.92064 263.601084 
L 322.56031 262.564065 
L 324.199979 264.057647 
L 325.839649 264.442884 
L 327.479318 264.569106 
L 329.118988 264.574719 
L 330.758657 261.933502 
L 332.398326 264.177982 
L 334.037996 264.281752 
L 335.677665 263.204347 
L 337.317335 263.95415 
L 338.957004 263.022818 
L 340.596674 264.199612 
L 342.236343 264.472044 
L 343.876012 263.900622 
L 345.515682 264.530089 
L 347.155351 263.862153 
L 348.795021 262.779957 
L 352.07436 264.319263 
L 353.714029 264.621402 
L 355.353698 263.880224 
L 356.993368 263.990429 
L 358.633037 263.885563 
L 360.272707 262.865656 
L 361.912376 264.633312 
L 363.552045 263.720051 
L 365.191715 263.403674 
L 366.831384 261.715283 
L 368.471054 264.04601 
L 370.110723 263.153284 
L 371.750393 263.532771 
L 373.390062 263.206812 
L 375.029731 263.221049 
L 376.669401 263.622441 
L 378.30907 263.737026 
L 379.94874 263.977834 
L 381.588409 263.534825 
L 383.228079 264.003982 
L 384.867748 262.985444 
L 386.507417 260.946315 
L 388.147087 264.062712 
L 391.426426 263.780287 
L 393.066095 264.059016 
L 394.705764 263.533729 
L 396.345434 263.937722 
L 397.985103 263.510319 
L 399.624773 263.844904 
L 399.624773 263.844904 
" style="fill:none;stroke:#1f77b4;stroke-linecap:square;stroke-width:0.5;"/>
   </g>
   <g id="line2d_19">
    <path clip-path="url(#pb63546d825)" d="M 74.970227 262.064105 
L 76.609897 263.529075 
L 78.249566 259.002057 
L 79.889236 263.840797 
L 81.528905 261.038585 
L 83.168574 264.420022 
L 84.808244 259.283661 
L 86.447913 261.392883 
L 88.087583 262.400606 
L 89.727252 259.371003 
L 93.006591 263.991935 
L 94.64626 260.779022 
L 96.28593 259.451911 
L 97.925599 263.499915 
L 99.565269 250.832945 
L 101.204938 263.922526 
L 102.844607 259.196866 
L 104.484277 263.894325 
L 106.123946 259.431924 
L 107.763616 263.070596 
L 109.403285 255.843631 
L 111.042955 264.582385 
L 112.682624 264.219326 
L 114.322293 258.123431 
L 115.961963 262.488633 
L 117.601632 250.895235 
L 119.241302 261.588514 
L 120.880971 259.1777 
L 122.52064 263.821631 
L 124.16031 262.727524 
L 125.799979 264.335965 
L 129.079318 264.399076 
L 130.718988 262.53381 
L 132.358657 261.710218 
L 133.998326 264.34459 
L 135.637996 263.500873 
L 137.277665 263.692397 
L 138.917335 264.038754 
L 140.557004 263.02049 
L 142.196674 262.284925 
L 143.836343 260.211982 
L 145.476012 262.496299 
L 147.115682 262.695078 
L 148.755351 263.010086 
L 150.395021 264.301329 
L 152.03469 264.219189 
L 153.67436 262.561738 
L 155.314029 263.758383 
L 156.953698 262.966825 
L 158.593368 262.925618 
L 160.233037 259.943657 
L 161.872707 264.508459 
L 163.512376 262.506156 
L 165.152045 263.826011 
L 166.791715 264.305162 
L 168.431384 262.829104 
L 170.071054 264.209743 
L 171.710723 261.500761 
L 173.350393 258.10139 
L 174.990062 263.689111 
L 176.629731 264.485597 
L 178.269401 262.457146 
L 179.90907 262.766403 
L 181.54874 264.393326 
L 183.188409 263.026103 
L 184.828079 264.607164 
L 186.467748 263.590543 
L 188.107417 263.784394 
L 189.747087 262.578987 
L 191.386756 264.67493 
L 193.026426 260.597219 
L 194.666095 264.023559 
L 196.305764 263.686784 
L 197.945434 264.069146 
L 199.585103 262.438664 
L 201.224773 263.699926 
L 202.864442 263.505802 
L 204.504112 263.539753 
L 206.143781 258.476771 
L 207.78345 261.409859 
L 209.42312 262.744499 
L 211.062789 264.420432 
L 212.702459 262.95779 
L 214.342128 264.252593 
L 215.981798 262.089158 
L 217.621467 260.428558 
L 219.261136 264.388398 
L 220.900806 261.916664 
L 222.540475 260.51987 
L 224.180145 263.396966 
L 225.819814 263.028157 
L 227.459483 263.081685 
L 229.099153 263.50279 
L 230.738822 258.020482 
L 232.378492 264.573487 
L 234.018161 264.087628 
L 235.657831 263.80356 
L 237.2975 264.298865 
L 238.937169 264.518179 
L 240.576839 264.279973 
L 242.216508 262.109967 
L 243.856178 263.290868 
L 245.495847 263.076756 
L 247.135517 264.513525 
L 248.775186 260.627748 
L 250.414855 260.079188 
L 252.054525 260.238266 
L 253.694194 264.019725 
L 255.333864 262.334072 
L 256.973533 264.107889 
L 258.613202 261.160974 
L 260.252872 262.794057 
L 261.892541 261.698171 
L 263.532211 259.134166 
L 265.17188 263.230085 
L 266.81155 262.048499 
L 268.451219 262.905905 
L 270.090888 261.347295 
L 273.370227 263.531813 
L 275.009897 262.680019 
L 276.649566 263.793018 
L 278.289236 263.187372 
L 279.928905 263.628601 
L 281.568574 258.982344 
L 283.208244 261.640399 
L 284.847913 259.945026 
L 286.487583 263.540301 
L 288.127252 260.101366 
L 289.766921 264.369779 
L 291.406591 264.588683 
L 293.04626 263.885974 
L 294.68593 262.529018 
L 296.325599 263.954013 
L 297.965269 249.55594 
L 299.604938 263.989333 
L 301.244607 261.16467 
L 302.884277 263.395186 
L 304.523946 261.847255 
L 307.803285 263.091542 
L 309.442955 263.34248 
L 311.082624 263.461994 
L 312.722293 263.465416 
L 314.361963 264.031088 
L 316.001632 262.544762 
L 317.641302 263.792882 
L 319.280971 262.694805 
L 320.92064 263.116868 
L 322.56031 263.777549 
L 324.199979 263.035686 
L 325.839649 262.560779 
L 327.479318 263.66091 
L 329.118988 254.009442 
L 330.758657 260.802706 
L 332.398326 254.872598 
L 334.037996 262.669204 
L 335.677665 261.639988 
L 337.317335 259.562527 
L 338.957004 263.246239 
L 340.596674 262.690287 
L 342.236343 264.101592 
L 343.876012 263.294291 
L 345.515682 261.993465 
L 347.155351 263.83094 
L 348.795021 264.534744 
L 350.43469 263.17245 
L 352.07436 262.667151 
L 353.714029 263.26828 
L 355.353698 264.047105 
L 356.993368 264.312692 
L 358.633037 262.1138 
L 360.272707 263.624905 
L 361.912376 264.008089 
L 363.552045 263.410108 
L 365.191715 260.626105 
L 366.831384 260.022785 
L 368.471054 264.136227 
L 371.750393 263.529212 
L 373.390062 264.28983 
L 375.029731 260.814753 
L 376.669401 263.415584 
L 378.30907 262.920553 
L 379.94874 262.696858 
L 381.588409 261.021747 
L 383.228079 263.659267 
L 384.867748 263.987964 
L 386.507417 260.533423 
L 388.147087 262.751208 
L 389.786756 263.837785 
L 391.426426 264.295716 
L 393.066095 259.13663 
L 394.705764 264.004256 
L 396.345434 263.94265 
L 397.985103 264.366767 
L 399.624773 263.683498 
L 399.624773 263.683498 
" style="fill:none;stroke:#ff7f0e;stroke-linecap:square;stroke-width:0.5;"/>
   </g>
   <g id="line2d_20">
    <path clip-path="url(#pb63546d825)" d="M 74.970227 263.742228 
L 76.609897 262.344066 
L 78.249566 259.741182 
L 79.889236 264.027255 
L 83.168574 264.532554 
L 84.808244 263.023776 
L 86.447913 263.578085 
L 88.087583 264.494632 
L 89.727252 263.498135 
L 91.366921 259.836738 
L 93.006591 261.226139 
L 94.64626 264.118567 
L 96.28593 264.553636 
L 97.925599 262.448658 
L 99.565269 264.273675 
L 101.204938 260.063582 
L 102.844607 264.350203 
L 104.484277 263.583698 
L 106.123946 262.981337 
L 107.763616 261.854922 
L 109.403285 262.824997 
L 111.042955 260.375988 
L 112.682624 264.506406 
L 114.322293 263.278821 
L 117.601632 264.311186 
L 119.241302 264.353077 
L 120.880971 262.1023 
L 122.52064 261.131678 
L 124.16031 261.545801 
L 125.799979 262.53997 
L 127.439649 264.269568 
L 129.079318 263.920199 
L 130.718988 261.863409 
L 132.358657 260.475652 
L 133.998326 263.640101 
L 135.637996 263.083601 
L 137.277665 257.234949 
L 140.557004 263.775632 
L 142.196674 263.679391 
L 143.836343 259.699701 
L 145.476012 264.02657 
L 147.115682 264.533375 
L 148.755351 262.784201 
L 150.395021 263.670767 
L 152.03469 261.770865 
L 153.67436 264.269021 
L 155.314029 248.712908 
L 156.953698 260.952749 
L 158.593368 264.209469 
L 160.233037 263.265542 
L 161.872707 263.939912 
L 163.512376 261.367557 
L 165.152045 263.519902 
L 166.791715 259.149362 
L 168.431384 260.301104 
L 170.071054 244.733217 
L 171.710723 261.601245 
L 173.350393 262.218666 
L 174.990062 262.537232 
L 176.629731 263.694861 
L 178.269401 263.309213 
L 179.90907 261.600287 
L 181.54874 263.138772 
L 183.188409 260.797641 
L 184.828079 262.940677 
L 186.467748 263.227757 
L 188.107417 264.270527 
L 189.747087 263.173819 
L 191.386756 263.841755 
L 193.026426 264.216999 
L 194.666095 264.263818 
L 196.305764 263.834499 
L 197.945434 257.912194 
L 199.585103 263.717039 
L 201.224773 263.358223 
L 202.864442 263.74702 
L 204.504112 258.033077 
L 206.143781 264.183458 
L 207.78345 246.653928 
L 209.42312 263.827654 
L 211.062789 264.458491 
L 212.702459 264.169631 
L 214.342128 264.407564 
L 215.981798 264.18072 
L 217.621467 258.846538 
L 219.261136 263.300999 
L 220.900806 258.955648 
L 222.540475 264.037249 
L 224.180145 264.180446 
L 225.819814 264.618664 
L 227.459483 263.570966 
L 229.099153 258.98426 
L 230.738822 263.031032 
L 232.378492 263.660636 
L 234.018161 263.945799 
L 235.657831 262.406219 
L 237.2975 263.312362 
L 238.937169 263.843945 
L 240.576839 263.398198 
L 242.216508 262.013589 
L 243.856178 264.011648 
L 245.495847 264.623045 
L 247.135517 262.352965 
L 248.775186 244.056793 
L 250.414855 262.681525 
L 252.054525 264.449181 
L 253.694194 263.280327 
L 255.333864 263.461035 
L 256.973533 264.212618 
L 258.613202 262.980926 
L 260.252872 263.177789 
L 261.892541 262.140906 
L 263.532211 261.769085 
L 265.17188 264.351435 
L 266.81155 258.318925 
L 268.451219 261.461607 
L 270.090888 263.802601 
L 271.730558 263.169301 
L 273.370227 262.042749 
L 275.009897 263.449946 
L 276.649566 264.478204 
L 278.289236 264.38785 
L 279.928905 260.75616 
L 281.568574 262.73519 
L 283.208244 259.305702 
L 284.847913 262.427986 
L 286.487583 261.716789 
L 288.127252 263.798084 
L 291.406591 257.277388 
L 293.04626 262.706441 
L 294.68593 259.896974 
L 296.325599 264.504626 
L 297.965269 264.29421 
L 299.604938 264.254372 
L 301.244607 264.084205 
L 302.884277 261.148653 
L 304.523946 264.23548 
L 306.163616 263.732509 
L 307.803285 264.063396 
L 309.442955 264.202213 
L 311.082624 262.115853 
L 312.722293 263.716081 
L 314.361963 262.032892 
L 316.001632 264.151013 
L 317.641302 264.103234 
L 319.280971 264.597171 
L 320.92064 263.159307 
L 322.56031 262.827324 
L 324.199979 264.651246 
L 325.839649 263.48691 
L 327.479318 262.838276 
L 329.118988 260.387898 
L 330.758657 262.152132 
L 332.398326 263.111118 
L 334.037996 264.532691 
L 335.677665 263.565353 
L 337.317335 263.352884 
L 338.957004 264.679585 
L 340.596674 264.673561 
L 342.236343 263.394776 
L 343.876012 261.928574 
L 345.515682 263.657213 
L 347.155351 263.394365 
L 348.795021 263.581097 
L 350.43469 261.158921 
L 352.07436 261.878195 
L 353.714029 262.777082 
L 355.353698 263.271429 
L 356.993368 264.166482 
L 358.633037 263.124808 
L 360.272707 258.838872 
L 361.912376 263.743597 
L 363.552045 264.305573 
L 365.191715 262.391297 
L 366.831384 263.438994 
L 368.471054 264.103782 
L 370.110723 263.252262 
L 371.750393 261.037353 
L 373.390062 262.552839 
L 375.029731 262.220171 
L 376.669401 263.608751 
L 378.30907 262.964909 
L 379.94874 263.860784 
L 381.588409 261.820697 
L 383.228079 262.069855 
L 384.867748 264.519822 
L 386.507417 263.162456 
L 388.147087 262.727113 
L 389.786756 262.870858 
L 389.786756 262.870858 
" style="fill:none;stroke:#2ca02c;stroke-linecap:square;stroke-width:0.5;"/>
   </g>
   <g id="line2d_21">
    <path clip-path="url(#pb63546d825)" d="M 74.970227 263.437762 
L 76.609897 263.746199 
L 78.249566 264.548982 
L 79.889236 262.23126 
L 81.528905 263.513194 
L 83.168574 262.724238 
L 84.808244 263.778781 
L 86.447913 263.673778 
L 88.087583 264.416188 
L 91.366921 262.050415 
L 93.006591 261.356878 
L 94.64626 251.590551 
L 96.28593 264.37594 
L 97.925599 263.914723 
L 99.565269 263.600947 
L 101.204938 264.420843 
L 102.844607 261.519516 
L 104.484277 263.779739 
L 106.123946 263.507581 
L 107.763616 262.299847 
L 109.403285 264.183458 
L 111.042955 262.874007 
L 112.682624 264.492442 
L 114.322293 264.309406 
L 117.601632 259.735843 
L 119.241302 263.604918 
L 120.880971 262.695352 
L 122.52064 264.163197 
L 125.799979 264.445348 
L 127.439649 263.491564 
L 129.079318 264.533923 
L 130.718988 263.304695 
L 132.358657 263.029252 
L 133.998326 264.521465 
L 135.637996 264.310365 
L 137.277665 263.7373 
L 138.917335 264.16128 
L 140.557004 263.971126 
L 142.196674 264.381416 
L 143.836343 262.106818 
L 145.476012 263.948126 
L 147.115682 264.020684 
L 150.395021 263.290184 
L 152.03469 262.443456 
L 153.67436 262.90481 
L 155.314029 261.30116 
L 156.953698 263.831761 
L 158.593368 261.591252 
L 160.233037 264.075033 
L 161.872707 262.407862 
L 163.512376 261.601382 
L 165.152045 263.848874 
L 166.791715 264.451919 
L 168.431384 262.814455 
L 171.710723 264.635092 
L 173.350393 264.310091 
L 174.990062 264.516536 
L 176.629731 262.21935 
L 178.269401 262.289854 
L 179.90907 262.790361 
L 181.54874 262.181155 
L 184.828079 264.168536 
L 186.467748 263.849011 
L 188.107417 263.744966 
L 189.747087 263.347956 
L 191.386756 263.979614 
L 193.026426 263.974959 
L 194.666095 262.286705 
L 196.305764 259.561432 
L 197.945434 263.53017 
L 199.585103 263.891313 
L 201.224773 261.016544 
L 202.864442 263.244048 
L 204.504112 264.223159 
L 206.143781 257.598145 
L 207.78345 264.034237 
L 209.42312 263.172587 
L 211.062789 263.330706 
L 212.702459 264.60251 
L 214.342128 262.858948 
L 215.981798 261.536628 
L 217.621467 264.482722 
L 219.261136 264.349381 
L 220.900806 263.529759 
L 222.540475 264.604837 
L 224.180145 264.058057 
L 225.819814 262.85402 
L 227.459483 264.484228 
L 229.099153 262.610337 
L 230.738822 262.776945 
L 232.378492 263.695682 
L 234.018161 262.0882 
L 235.657831 264.555827 
L 237.2975 259.57827 
L 238.937169 263.560836 
L 240.576839 264.360059 
L 242.216508 263.035549 
L 243.856178 264.470538 
L 245.495847 264.603057 
L 247.135517 263.194627 
L 248.775186 263.081 
L 250.414855 263.96962 
L 252.054525 258.039238 
L 253.694194 264.065587 
L 255.333864 264.688483 
L 256.973533 264.273812 
L 258.613202 264.221106 
L 260.252872 256.871068 
L 261.892541 259.937086 
L 263.532211 264.282848 
L 265.17188 262.870585 
L 266.81155 260.829676 
L 268.451219 264.012059 
L 270.090888 263.739764 
L 271.730558 263.969346 
L 278.289236 263.437762 
L 281.568574 262.631967 
L 283.208244 262.66852 
L 284.847913 264.246843 
L 286.487583 262.271235 
L 288.127252 264.454247 
L 289.766921 263.562615 
L 291.406591 261.697897 
L 293.04626 262.228112 
L 294.68593 263.808762 
L 296.325599 264.5049 
L 297.965269 264.061617 
L 299.604938 260.392005 
L 301.244607 263.854897 
L 302.884277 264.525298 
L 304.523946 262.745184 
L 306.163616 264.299823 
L 307.803285 264.222064 
L 309.442955 259.305017 
L 311.082624 264.058331 
L 312.722293 264.375803 
L 314.361963 263.480886 
L 316.001632 263.800822 
L 317.641302 264.558839 
L 319.280971 264.391273 
L 320.92064 259.08406 
L 322.56031 252.284362 
L 324.199979 263.997411 
L 325.839649 264.255741 
L 327.479318 262.818699 
L 329.118988 264.482311 
L 330.758657 264.389493 
L 332.398326 264.519411 
L 334.037996 262.946564 
L 335.677665 263.487183 
L 337.317335 262.840877 
L 338.957004 261.83822 
L 340.596674 263.73155 
L 342.236343 263.908152 
L 343.876012 264.523518 
L 345.515682 261.993328 
L 347.155351 264.480668 
L 348.795021 263.032264 
L 350.43469 263.335635 
L 352.07436 262.954231 
L 353.714029 263.280875 
L 355.353698 264.363482 
L 356.993368 264.41701 
L 358.633037 260.701263 
L 360.272707 264.082152 
L 361.912376 259.840982 
L 363.552045 263.760573 
L 365.191715 264.215903 
L 366.831384 264.104603 
L 368.471054 264.226308 
L 370.110723 259.878766 
L 371.750393 263.456655 
L 373.390062 264.037385 
L 375.029731 264.34678 
L 376.669401 263.375473 
L 378.30907 263.317016 
L 379.94874 262.708084 
L 381.588409 263.970304 
L 383.228079 261.548402 
L 384.867748 264.541315 
L 386.507417 263.913354 
L 388.147087 263.739627 
L 391.426426 264.633586 
L 393.066095 262.550922 
L 394.705764 263.411888 
L 396.345434 260.693049 
L 397.985103 263.374104 
L 397.985103 263.374104 
" style="fill:none;stroke:#d62728;stroke-linecap:square;stroke-width:0.5;"/>
   </g>
   <g id="line2d_22">
    <path clip-path="url(#pb63546d825)" d="M 74.970227 263.309487 
L 76.609897 262.195529 
L 78.249566 264.10036 
L 79.889236 255.019766 
L 81.528905 259.665886 
L 83.168574 242.356492 
L 84.808244 263.8601 
L 86.447913 262.198404 
L 89.727252 264.158679 
L 91.366921 258.8553 
L 93.006591 258.203381 
L 94.64626 263.724021 
L 96.28593 263.225704 
L 97.925599 260.993271 
L 99.565269 261.912693 
L 101.204938 263.516617 
L 102.844607 259.312821 
L 104.484277 252.128158 
L 106.123946 238.680583 
L 107.763616 264.43645 
L 109.403285 263.375336 
L 111.042955 213.060248 
L 112.682624 261.831101 
L 114.322293 263.929234 
L 115.961963 254.046679 
L 117.601632 263.445839 
L 119.241302 263.315921 
L 120.880971 264.53803 
L 122.52064 258.81245 
L 124.16031 254.471069 
L 125.799979 263.282928 
L 127.439649 261.619864 
L 129.079318 250.866623 
L 130.718988 263.447482 
L 132.358657 260.886215 
L 133.998326 262.859769 
L 135.637996 264.263134 
L 137.277665 264.413177 
L 138.917335 264.205225 
L 140.557004 264.600045 
L 142.196674 262.346393 
L 143.836343 264.501614 
L 145.476012 264.262449 
L 147.115682 260.077135 
L 148.755351 259.972817 
L 150.395021 258.797254 
L 152.03469 256.491991 
L 155.314029 264.636461 
L 156.953698 264.01685 
L 158.593368 263.797262 
L 160.233037 262.840467 
L 161.872707 260.743565 
L 163.512376 263.63572 
L 165.152045 262.78379 
L 166.791715 264.309817 
L 168.431384 264.194136 
L 170.071054 261.413144 
L 171.710723 261.633691 
L 173.350393 263.314278 
L 174.990062 257.483012 
L 176.629731 261.175623 
L 178.269401 262.987224 
L 179.90907 262.906589 
L 181.54874 263.226388 
L 183.188409 264.401129 
L 184.828079 263.31154 
L 186.467748 264.324055 
L 188.107417 258.098789 
L 189.747087 263.193806 
L 191.386756 262.464265 
L 193.026426 264.222611 
L 194.666095 264.304204 
L 196.305764 263.868861 
L 197.945434 262.377881 
L 199.585103 264.391136 
L 201.224773 261.944317 
L 202.864442 263.277178 
L 204.504112 263.120017 
L 206.143781 262.831431 
L 207.78345 261.681469 
L 209.42312 264.384564 
L 211.062789 264.156489 
L 212.702459 258.165186 
L 214.342128 263.888575 
L 215.981798 261.988673 
L 217.621467 261.11922 
L 219.261136 262.784611 
L 220.900806 264.174286 
L 222.540475 263.037877 
L 224.180145 264.277508 
L 225.819814 263.66091 
L 227.459483 261.798245 
L 229.099153 264.502299 
L 230.738822 263.656118 
L 232.378492 244.556616 
L 234.018161 264.028487 
L 235.657831 260.861026 
L 237.2975 263.826833 
L 238.937169 262.195803 
L 240.576839 255.404318 
L 242.216508 261.757722 
L 243.856178 264.555005 
L 245.495847 261.02777 
L 247.135517 261.890926 
L 248.775186 261.30294 
L 250.414855 263.831214 
L 252.054525 264.300645 
L 253.694194 262.106955 
L 255.333864 262.769415 
L 256.973533 263.715944 
L 258.613202 262.691245 
L 260.252872 264.389904 
L 261.892541 263.048829 
L 263.532211 262.668657 
L 265.17188 264.342947 
L 266.81155 244.215461 
L 268.451219 264.173054 
L 270.090888 264.669865 
L 271.730558 264.218778 
L 273.370227 263.457202 
L 275.009897 264.272991 
L 278.289236 262.597469 
L 279.928905 262.574059 
L 281.568574 264.331173 
L 283.208244 264.309817 
L 284.847913 259.65206 
L 286.487583 261.095262 
L 288.127252 263.257191 
L 289.766921 253.102204 
L 291.406591 260.677306 
L 294.68593 263.171902 
L 296.325599 262.457556 
L 297.965269 259.622352 
L 299.604938 264.181405 
L 301.244607 264.103919 
L 302.884277 264.327477 
L 304.523946 256.660652 
L 306.163616 264.463556 
L 307.803285 263.638458 
L 309.442955 263.719229 
L 311.082624 260.706465 
L 312.722293 263.786447 
L 314.361963 263.781245 
L 316.001632 263.109612 
L 317.641302 261.625477 
L 319.280971 264.592105 
L 320.92064 262.406356 
L 322.56031 263.860784 
L 327.479318 264.400308 
L 329.118988 264.528857 
L 330.758657 261.122916 
L 332.398326 255.720558 
L 334.037996 261.394252 
L 335.677665 263.998916 
L 337.317335 257.450567 
L 338.957004 253.812032 
L 340.596674 260.28139 
L 342.236343 263.53414 
L 343.876012 263.885837 
L 345.515682 249.049409 
L 347.155351 263.855308 
L 348.795021 256.307586 
L 350.43469 263.628738 
L 352.07436 258.187227 
L 353.714029 247.003845 
L 355.353698 260.034559 
L 356.993368 264.202624 
L 358.633037 263.169985 
L 360.272707 262.930136 
L 361.912376 264.368821 
L 363.552045 263.890902 
L 365.191715 252.130349 
L 366.831384 260.423082 
L 368.471054 248.766983 
L 370.110723 263.142195 
L 371.750393 261.621096 
L 373.390062 264.156489 
L 375.029731 263.993577 
L 376.669401 264.411397 
L 378.30907 256.912001 
L 379.94874 259.37292 
L 381.588409 263.523325 
L 383.228079 258.703888 
L 384.867748 262.004554 
L 386.507417 260.599136 
L 388.147087 262.756136 
L 389.786756 261.759502 
L 391.426426 264.058057 
L 393.066095 264.354036 
L 394.705764 260.03894 
L 396.345434 260.125598 
L 397.985103 262.344614 
L 399.624773 264.177161 
L 399.624773 264.177161 
" style="fill:none;stroke:#9467bd;stroke-linecap:square;stroke-width:0.5;"/>
   </g>
   <g id="line2d_23">
    <path clip-path="url(#pb63546d825)" d="M 74.970227 264.247938 
L 76.609897 262.468098 
L 78.249566 261.343052 
L 79.889236 263.898979 
L 81.528905 262.405124 
L 83.168574 262.258504 
L 84.808244 259.912444 
L 86.447913 264.325971 
L 88.087583 263.606013 
L 91.366921 264.515304 
L 93.006591 262.995574 
L 94.64626 263.972495 
L 96.28593 261.763472 
L 97.925599 264.615652 
L 99.565269 263.706224 
L 101.204938 263.991387 
L 102.844607 263.105369 
L 104.484277 264.126644 
L 106.123946 264.041766 
L 107.763616 256.569477 
L 109.403285 261.928711 
L 111.042955 264.279973 
L 112.682624 263.824916 
L 114.322293 263.689248 
L 115.961963 263.128094 
L 117.601632 263.693355 
L 119.241302 262.560642 
L 120.880971 264.375803 
L 122.52064 264.211659 
L 124.16031 264.565957 
L 125.799979 264.01069 
L 127.439649 252.159919 
L 129.079318 264.142662 
L 130.718988 262.304639 
L 132.358657 264.183732 
L 133.998326 264.57116 
L 135.637996 262.493972 
L 137.277665 264.162649 
L 138.917335 261.945276 
L 140.557004 250.793929 
L 142.196674 243.079599 
L 143.836343 261.537724 
L 145.476012 256.317032 
L 147.115682 263.813143 
L 148.755351 264.22357 
L 150.395021 259.358956 
L 152.03469 263.254179 
L 153.67436 264.189482 
L 155.314029 261.587145 
L 156.953698 263.851612 
L 158.593368 263.684593 
L 160.233037 263.167247 
L 161.872707 264.489978 
L 163.512376 262.772427 
L 165.152045 263.392996 
L 166.791715 263.225293 
L 168.431384 264.50312 
L 170.071054 263.595471 
L 171.710723 263.317427 
L 173.350393 263.589174 
L 174.990062 264.073253 
L 176.629731 264.354036 
L 178.269401 263.706224 
L 179.90907 260.327389 
L 181.54874 264.637419 
L 183.188409 263.220365 
L 184.828079 263.553717 
L 186.467748 263.133433 
L 188.107417 264.007815 
L 189.747087 263.304285 
L 191.386756 263.25856 
L 193.026426 264.078729 
L 194.666095 261.459006 
L 196.305764 264.264366 
L 197.945434 262.265896 
L 201.224773 263.984816 
L 202.864442 264.242188 
L 204.504112 264.033826 
L 206.143781 264.677805 
L 207.78345 259.79115 
L 209.42312 260.852949 
L 211.062789 259.980209 
L 212.702459 263.685278 
L 215.981798 262.426206 
L 217.621467 264.603605 
L 219.261136 260.453474 
L 220.900806 263.991798 
L 222.540475 255.5968 
L 224.180145 261.946371 
L 225.819814 263.7629 
L 227.459483 263.522504 
L 229.099153 264.189345 
L 230.738822 257.881802 
L 232.378492 252.893978 
L 234.018161 252.229465 
L 235.657831 264.269294 
L 237.2975 262.048635 
L 238.937169 264.716 
L 240.576839 259.479428 
L 242.216508 257.199491 
L 243.856178 262.872364 
L 245.495847 263.31948 
L 247.135517 263.990018 
L 248.775186 241.743453 
L 250.414855 261.838083 
L 252.054525 264.402225 
L 253.694194 263.376294 
L 255.333864 263.180116 
L 256.973533 264.142799 
L 258.613202 264.582112 
L 260.252872 264.320358 
L 261.892541 264.171274 
L 263.532211 261.932818 
L 265.17188 262.714792 
L 266.81155 264.507227 
L 268.451219 263.114267 
L 270.090888 263.968388 
L 271.730558 262.357072 
L 273.370227 263.436667 
L 275.009897 264.022326 
L 276.649566 263.994536 
L 278.289236 257.822798 
L 279.928905 263.105095 
L 281.568574 264.623455 
L 283.208244 263.135213 
L 284.847913 261.055698 
L 286.487583 261.569211 
L 288.127252 262.797206 
L 289.766921 263.746472 
L 291.406591 262.636896 
L 293.04626 260.817491 
L 294.68593 262.91891 
L 296.325599 263.005842 
L 297.965269 263.978245 
L 299.604938 264.643717 
L 301.244607 259.876439 
L 302.884277 263.685826 
L 304.523946 264.464377 
L 306.163616 262.483294 
L 307.803285 263.852296 
L 309.442955 262.007976 
L 311.082624 263.636952 
L 312.722293 259.950502 
L 314.361963 263.931698 
L 316.001632 259.724891 
L 317.641302 262.350911 
L 319.280971 262.59651 
L 320.92064 264.020821 
L 322.56031 257.123512 
L 324.199979 262.789129 
L 325.839649 260.450599 
L 327.479318 262.230713 
L 329.118988 262.084777 
L 330.758657 259.560884 
L 332.398326 262.802682 
L 334.037996 261.604257 
L 335.677665 263.718955 
L 337.317335 262.800218 
L 338.957004 262.80542 
L 340.596674 260.359697 
L 342.236343 263.359729 
L 343.876012 263.711563 
L 345.515682 263.620661 
L 347.155351 260.484824 
L 348.795021 256.415874 
L 350.43469 264.209606 
L 352.07436 257.848809 
L 353.714029 261.97115 
L 355.353698 264.222201 
L 356.993368 264.206868 
L 358.633037 262.74272 
L 360.272707 264.321864 
L 361.912376 262.424837 
L 363.552045 261.352908 
L 365.191715 263.941829 
L 366.831384 224.414618 
L 368.471054 264.267241 
L 370.110723 264.562672 
L 371.750393 263.586847 
L 373.390062 264.00097 
L 375.029731 262.437295 
L 376.669401 264.187017 
L 378.30907 263.329337 
L 379.94874 263.901443 
L 381.588409 261.781132 
L 381.588409 261.781132 
" style="fill:none;stroke:#8c564b;stroke-linecap:square;stroke-width:0.5;"/>
   </g>
   <g id="line2d_24">
    <path clip-path="url(#pb63546d825)" d="M 74.970227 262.991057 
L 76.609897 263.556318 
L 78.249566 261.88107 
L 79.889236 259.968984 
L 81.528905 263.7373 
L 83.168574 191.673143 
L 84.808244 264.289693 
L 86.447913 255.599949 
L 88.087583 263.527432 
L 89.727252 263.949632 
L 91.366921 261.432584 
L 93.006591 252.251779 
L 94.64626 261.707206 
L 96.28593 257.227556 
L 97.925599 249.329233 
L 99.565269 260.34765 
L 101.204938 261.627256 
L 102.844607 261.720896 
L 104.484277 263.890355 
L 106.123946 263.889807 
L 107.763616 261.258584 
L 109.403285 238.701666 
L 111.042955 243.314246 
L 112.682624 263.667207 
L 114.322293 263.683772 
L 115.961963 262.528745 
L 117.601632 217.120162 
L 119.241302 263.857362 
L 120.880971 257.359528 
L 122.52064 261.131678 
L 124.16031 256.889139 
L 125.799979 262.319561 
L 127.439649 260.160644 
L 129.079318 260.19131 
L 130.718988 262.212094 
L 132.358657 257.977496 
L 133.998326 261.943222 
L 135.637996 264.074759 
L 137.277665 261.623286 
L 138.917335 257.817459 
L 140.557004 257.187307 
L 142.196674 255.994632 
L 143.836343 263.218722 
L 145.476012 256.762369 
L 147.115682 264.441241 
L 148.755351 248.601197 
L 150.395021 263.593692 
L 152.03469 264.027529 
L 153.67436 261.669559 
L 155.314029 264.607301 
L 156.953698 260.470449 
L 158.593368 245.053016 
L 160.233037 261.469274 
L 161.872707 264.395243 
L 163.512376 263.920062 
L 165.152045 262.27233 
L 166.791715 263.203252 
L 168.431384 263.799179 
L 170.071054 219.662674 
L 171.710723 253.658156 
L 173.350393 262.14296 
L 174.990062 217.157947 
L 176.629731 261.894349 
L 178.269401 263.435024 
L 179.90907 263.928687 
L 181.54874 259.850702 
L 183.188409 258.549054 
L 184.828079 260.038803 
L 186.467748 262.532304 
L 188.107417 264.456848 
L 189.747087 262.786939 
L 191.386756 264.000149 
L 193.026426 258.591904 
L 194.666095 213.719834 
L 196.305764 248.312611 
L 197.945434 261.963073 
L 199.585103 261.923372 
L 201.224773 242.432745 
L 202.864442 260.775463 
L 204.504112 256.836706 
L 206.143781 261.299517 
L 207.78345 257.034253 
L 209.42312 262.789677 
L 214.342128 264.245748 
L 215.981798 263.279916 
L 217.621467 262.545446 
L 219.261136 263.532087 
L 220.900806 263.127136 
L 222.540475 260.282896 
L 224.180145 263.32879 
L 225.819814 264.592242 
L 227.459483 254.029429 
L 229.099153 262.231397 
L 230.738822 264.495043 
L 232.378492 263.263214 
L 234.018161 263.767829 
L 235.657831 261.402603 
L 237.2975 263.774811 
L 238.937169 263.631613 
L 240.576839 262.552702 
L 242.216508 248.003217 
L 243.856178 264.617979 
L 245.495847 246.746062 
L 247.135517 254.548966 
L 248.775186 258.271147 
L 250.414855 264.532691 
L 252.054525 251.695143 
L 253.694194 250.579269 
L 255.333864 262.873459 
L 256.973533 253.956188 
L 258.613202 251.469531 
L 260.252872 258.357394 
L 261.892541 252.033423 
L 263.532211 255.112036 
L 265.17188 250.498772 
L 266.81155 244.987715 
L 268.451219 250.043031 
L 270.090888 262.079164 
L 271.730558 261.127023 
L 273.370227 260.678264 
L 275.009897 251.084431 
L 276.649566 264.283943 
L 278.289236 262.896322 
L 279.928905 264.084479 
L 281.568574 259.544182 
L 283.208244 263.890081 
L 284.847913 258.692936 
L 286.487583 264.45589 
L 288.127252 262.4848 
L 289.766921 264.159364 
L 291.406591 263.770841 
L 293.04626 263.619703 
L 294.68593 263.145754 
L 296.325599 244.145641 
L 297.965269 264.572665 
L 299.604938 263.662142 
L 301.244607 263.706498 
L 302.884277 264.280383 
L 306.163616 263.276083 
L 307.803285 264.349107 
L 309.442955 261.68982 
L 311.082624 264.060522 
L 312.722293 264.03985 
L 314.361963 263.317838 
L 316.001632 264.013839 
L 317.641302 247.510239 
L 319.280971 262.978325 
L 320.92064 263.746062 
L 322.56031 263.263488 
L 324.199979 263.857909 
L 325.839649 246.209687 
L 327.479318 259.763086 
L 329.118988 253.716201 
L 330.758657 263.852981 
L 332.398326 254.348681 
L 334.037996 261.742116 
L 335.677665 264.169494 
L 337.317335 263.133981 
L 338.957004 254.919555 
L 340.596674 263.479243 
L 343.876012 262.866478 
L 345.515682 252.860986 
L 347.155351 250.228804 
L 348.795021 260.921946 
L 350.43469 226.758898 
L 352.07436 255.306161 
L 353.714029 247.157995 
L 355.353698 214.936603 
L 356.993368 263.362467 
L 358.633037 262.783927 
L 360.272707 262.806515 
L 361.912376 251.934581 
L 363.552045 257.27862 
L 365.191715 264.006172 
L 366.831384 262.898786 
L 368.471054 264.1595 
L 370.110723 264.437682 
L 371.750393 253.52769 
L 373.390062 264.077771 
L 375.029731 262.671668 
L 376.669401 263.076893 
L 378.30907 258.364923 
L 379.94874 246.032812 
L 381.588409 250.049054 
L 383.228079 258.216387 
L 384.867748 262.927398 
L 386.507417 255.363933 
L 388.147087 258.089891 
L 389.786756 262.972438 
L 391.426426 263.917461 
L 393.066095 264.392505 
L 394.705764 260.341215 
L 394.705764 260.341215 
" style="fill:none;stroke:#e377c2;stroke-linecap:square;stroke-width:0.5;"/>
   </g>
   <g id="line2d_25">
    <path clip-path="url(#pb63546d825)" d="M 74.970227 260.469354 
L 76.609897 260.741512 
L 78.249566 264.153203 
L 79.889236 258.702246 
L 81.528905 263.899801 
L 83.168574 264.245063 
L 84.808244 264.409891 
L 86.447913 259.757336 
L 88.087583 264.45986 
L 89.727252 263.849695 
L 91.366921 263.912396 
L 93.006591 263.826148 
L 94.64626 261.647655 
L 96.28593 263.939776 
L 97.925599 261.175349 
L 99.565269 261.715831 
L 101.204938 263.806982 
L 102.844607 264.575814 
L 104.484277 259.526385 
L 106.123946 262.568993 
L 107.763616 264.015755 
L 109.403285 264.01685 
L 111.042955 263.337688 
L 112.682624 264.436587 
L 114.322293 254.302682 
L 115.961963 264.164703 
L 117.601632 262.873049 
L 119.241302 263.895831 
L 120.880971 264.061617 
L 122.52064 262.879072 
L 124.16031 260.700442 
L 125.799979 263.046775 
L 127.439649 262.399511 
L 129.079318 261.293357 
L 130.718988 263.802054 
L 132.358657 261.866832 
L 133.998326 258.438165 
L 135.637996 263.138909 
L 137.277665 263.53414 
L 138.917335 264.217135 
L 140.557004 264.285449 
L 142.196674 259.761443 
L 143.836343 261.157004 
L 145.476012 263.39902 
L 147.115682 260.25798 
L 148.755351 261.888051 
L 150.395021 261.526909 
L 152.03469 262.399648 
L 155.314029 262.947112 
L 156.953698 264.575677 
L 158.593368 263.435983 
L 160.233037 261.981828 
L 161.872707 263.745514 
L 163.512376 264.583754 
L 165.152045 260.48236 
L 166.791715 262.738613 
L 168.431384 261.310469 
L 170.071054 263.360687 
L 171.710723 260.901822 
L 173.350393 261.720622 
L 174.990062 259.642613 
L 176.629731 263.397924 
L 178.269401 262.825544 
L 179.90907 263.964828 
L 181.54874 263.714301 
L 184.828079 263.999327 
L 186.467748 263.123713 
L 188.107417 261.396169 
L 189.747087 264.275181 
L 191.386756 260.672103 
L 193.026426 258.756184 
L 194.666095 261.901194 
L 196.305764 263.970852 
L 197.945434 264.334185 
L 199.585103 260.21869 
L 201.224773 260.513847 
L 202.864442 263.932657 
L 204.504112 262.14912 
L 206.143781 264.397159 
L 207.78345 262.112294 
L 209.42312 254.8663 
L 211.062789 261.77593 
L 212.702459 261.307457 
L 214.342128 263.638732 
L 215.981798 255.60255 
L 217.621467 262.081218 
L 219.261136 261.662577 
L 220.900806 262.508346 
L 222.540475 263.611352 
L 224.180145 264.562124 
L 225.819814 261.627256 
L 227.459483 263.306886 
L 229.099153 263.71964 
L 230.738822 261.281446 
L 232.378492 263.503748 
L 234.018161 261.399728 
L 235.657831 260.170501 
L 237.2975 260.459771 
L 238.937169 263.528938 
L 240.576839 263.982899 
L 242.216508 259.861791 
L 243.856178 263.131516 
L 245.495847 264.364029 
L 247.135517 264.128424 
L 248.775186 262.290675 
L 250.414855 263.465005 
L 252.054525 264.393463 
L 253.694194 264.172643 
L 255.333864 264.442884 
L 256.973533 263.51648 
L 258.613202 259.693677 
L 260.252872 262.163358 
L 261.892541 255.78627 
L 263.532211 263.53017 
L 265.17188 261.661071 
L 266.81155 264.27436 
L 268.451219 260.445944 
L 270.090888 259.536105 
L 271.730558 253.876238 
L 273.370227 260.38078 
L 275.009897 264.583481 
L 276.649566 260.693734 
L 278.289236 260.322186 
L 279.928905 264.582248 
L 281.568574 262.086694 
L 283.208244 262.421141 
L 284.847913 259.433567 
L 286.487583 262.153638 
L 288.127252 263.283065 
L 289.766921 263.415311 
L 291.406591 262.842246 
L 293.04626 262.439896 
L 294.68593 258.973993 
L 296.325599 263.97181 
L 297.965269 263.349188 
L 299.604938 263.955245 
L 302.884277 264.36444 
L 304.523946 262.816235 
L 306.163616 264.25492 
L 307.803285 262.700144 
L 309.442955 258.507984 
L 311.082624 257.077787 
L 312.722293 260.533697 
L 314.361963 260.857329 
L 316.001632 263.587531 
L 317.641302 256.305122 
L 319.280971 264.172506 
L 320.92064 264.407701 
L 322.56031 259.392634 
L 324.199979 264.327066 
L 325.839649 263.398883 
L 327.479318 264.42098 
L 329.118988 256.18684 
L 330.758657 261.166861 
L 332.398326 263.602727 
L 334.037996 258.975909 
L 335.677665 264.432069 
L 337.317335 264.42317 
L 338.957004 262.790498 
L 340.596674 263.750853 
L 342.236343 264.240545 
L 343.876012 263.164099 
L 345.515682 261.571538 
L 347.155351 264.106657 
L 348.795021 260.641848 
L 350.43469 261.891063 
L 352.07436 256.119348 
L 353.714029 260.92619 
L 355.353698 262.747648 
L 356.993368 259.081459 
L 358.633037 262.006607 
L 360.272707 263.017615 
L 361.912376 262.659211 
L 361.912376 262.659211 
" style="fill:none;stroke:#7f7f7f;stroke-linecap:square;stroke-width:0.5;"/>
   </g>
   <g id="line2d_26">
    <path clip-path="url(#pb63546d825)" d="M 74.970227 263.351652 
L 76.609897 257.912742 
L 78.249566 260.789016 
L 79.889236 264.417694 
L 81.528905 260.520007 
L 83.168574 262.294782 
L 84.808244 253.369433 
L 86.447913 259.192075 
L 88.087583 264.311049 
L 89.727252 262.794194 
L 91.366921 263.881456 
L 93.006591 264.625235 
L 94.64626 252.440702 
L 96.28593 261.800572 
L 97.925599 262.608284 
L 99.565269 260.807908 
L 101.204938 221.450454 
L 102.844607 264.386755 
L 106.123946 263.888027 
L 107.763616 264.255468 
L 109.403285 263.17245 
L 111.042955 251.385885 
L 112.682624 252.465618 
L 114.322293 264.184416 
L 115.961963 261.607406 
L 117.601632 261.336343 
L 119.241302 261.21327 
L 120.880971 264.610724 
L 122.52064 260.125187 
L 124.16031 238.169945 
L 125.799979 263.803423 
L 127.439649 256.613695 
L 129.079318 260.897715 
L 130.718988 263.814649 
L 132.358657 262.155418 
L 133.998326 263.932794 
L 135.637996 261.362491 
L 137.277665 263.960311 
L 138.917335 263.947168 
L 140.557004 228.08026 
L 142.196674 264.715863 
L 143.836343 239.539496 
L 145.476012 233.160354 
L 147.115682 215.382761 
L 148.755351 249.395766 
L 150.395021 213.825521 
L 152.03469 262.348721 
L 153.67436 264.716 
L 155.314029 264.715315 
L 156.953698 264.125002 
L 158.593368 263.937311 
L 160.233037 248.143129 
L 161.872707 262.116264 
L 163.512376 259.932568 
L 165.152045 262.253986 
L 166.791715 256.342222 
L 168.431384 259.956663 
L 170.071054 260.422534 
L 171.710723 245.915625 
L 173.350393 244.287333 
L 174.990062 259.690939 
L 176.629731 256.252963 
L 178.269401 167.993369 
L 179.90907 221.257425 
L 181.54874 256.095802 
L 183.188409 253.781092 
L 184.828079 262.182387 
L 186.467748 264.198654 
L 188.107417 253.261008 
L 189.747087 262.647985 
L 191.386756 256.852586 
L 193.026426 230.029172 
L 194.666095 261.517462 
L 196.305764 259.405365 
L 197.945434 233.798446 
L 199.585103 248.913604 
L 201.224773 247.556374 
L 202.864442 255.681541 
L 204.504112 262.549143 
L 206.143781 260.456485 
L 207.78345 260.05263 
L 209.42312 264.357184 
L 211.062789 263.753044 
L 214.342128 240.341183 
L 215.981798 263.842303 
L 217.621467 262.17609 
L 219.261136 247.504489 
L 220.900806 259.097614 
L 222.540475 260.812837 
L 224.180145 252.403054 
L 225.819814 260.274545 
L 227.459483 264.331173 
L 229.099153 260.270575 
L 230.738822 261.960609 
L 232.378492 260.829265 
L 234.018161 264.058468 
L 235.657831 262.051784 
L 237.2975 264.137733 
L 238.937169 260.810373 
L 240.576839 262.637033 
L 242.216508 258.918137 
L 243.856178 250.720961 
L 245.495847 263.914312 
L 247.135517 262.647026 
L 248.775186 261.998804 
L 250.414855 241.063469 
L 252.054525 262.863055 
L 253.694194 263.863796 
L 255.333864 264.472591 
L 258.613202 262.838687 
L 260.252872 251.914594 
L 261.892541 263.490332 
L 263.532211 261.044746 
L 265.17188 255.867726 
L 266.81155 262.638539 
L 268.451219 263.848737 
L 270.090888 243.446903 
L 271.730558 263.49307 
L 273.370227 261.578246 
L 275.009897 222.992499 
L 276.649566 254.099248 
L 278.289236 258.73825 
L 279.928905 263.035549 
L 281.568574 262.645931 
L 283.208244 262.56516 
L 284.847913 259.77171 
L 286.487583 259.478196 
L 288.127252 263.390395 
L 289.766921 234.864489 
L 291.406591 263.365205 
L 293.04626 259.048329 
L 294.68593 263.604096 
L 296.325599 258.86899 
L 297.965269 251.804663 
L 299.604938 257.303262 
L 301.244607 239.190537 
L 302.884277 258.406267 
L 304.523946 261.770317 
L 306.163616 255.984776 
L 307.803285 245.472205 
L 309.442955 263.287993 
L 311.082624 262.740256 
L 312.722293 263.901307 
L 314.361963 264.18469 
L 316.001632 263.232001 
L 317.641302 257.820608 
L 319.280971 264.519137 
L 320.92064 260.501799 
L 322.56031 263.450083 
L 324.199979 261.279256 
L 325.839649 262.835812 
L 327.479318 22.796 
L 329.118988 254.930096 
L 330.758657 260.512888 
L 332.398326 257.997072 
L 334.037996 263.062656 
L 335.677665 264.70409 
L 337.317335 264.505174 
L 338.957004 260.07248 
L 340.596674 263.777412 
L 342.236343 250.186228 
L 343.876012 259.764455 
L 345.515682 264.701078 
L 347.155351 263.334813 
L 348.795021 211.743678 
L 350.43469 264.715726 
L 352.07436 229.102083 
L 353.714029 258.16546 
L 355.353698 257.517511 
L 356.993368 259.946121 
L 358.633037 259.614275 
L 360.272707 261.128392 
L 361.912376 231.797923 
L 363.552045 206.355695 
L 365.191715 257.504779 
L 366.831384 261.805227 
L 368.471054 263.776864 
L 370.110723 260.191173 
L 371.750393 263.461857 
L 373.390062 263.040341 
L 375.029731 250.601584 
L 376.669401 264.140608 
L 378.30907 247.365946 
L 379.94874 260.342174 
L 381.588409 258.559732 
L 383.228079 250.483028 
L 384.867748 257.652905 
L 386.507417 261.970739 
L 388.147087 194.162674 
L 389.786756 259.500648 
L 391.426426 257.739426 
L 393.066095 262.750797 
L 394.705764 263.712932 
L 396.345434 256.965392 
L 397.985103 260.220606 
L 399.624773 262.981474 
L 399.624773 262.981474 
" style="fill:none;stroke:#bcbd22;stroke-linecap:square;stroke-width:0.5;"/>
   </g>
   <g id="line2d_27">
    <path clip-path="url(#pb63546d825)" d="M 74.970227 252.96722 
L 76.609897 256.826165 
L 78.249566 260.590237 
L 79.889236 261.387818 
L 81.528905 261.46147 
L 83.168574 235.609089 
L 84.808244 260.747399 
L 86.447913 262.409915 
L 88.087583 262.690287 
L 89.727252 263.8742 
L 93.006591 264.102413 
L 94.64626 262.731357 
L 96.28593 259.25546 
L 97.925599 259.364021 
L 99.565269 260.948368 
L 101.204938 261.319231 
L 102.844607 262.227427 
L 104.484277 261.177265 
L 106.123946 263.068679 
L 107.763616 263.716081 
L 109.403285 264.196053 
L 111.042955 264.345685 
L 112.682624 263.639416 
L 114.322293 264.404826 
L 115.961963 263.509635 
L 117.601632 261.004497 
L 119.241302 262.974903 
L 120.880971 264.502025 
L 122.52064 263.857635 
L 124.16031 264.224665 
L 125.799979 261.567294 
L 127.439649 263.93252 
L 129.079318 262.627176 
L 130.718988 263.143153 
L 132.358657 254.254493 
L 133.998326 262.700007 
L 135.637996 263.967293 
L 137.277665 263.147671 
L 138.917335 264.112544 
L 140.557004 259.408788 
L 142.196674 257.355558 
L 143.836343 254.411107 
L 145.476012 263.841755 
L 148.755351 263.789733 
L 150.395021 262.861686 
L 152.03469 261.75252 
L 153.67436 264.542958 
L 156.953698 263.068953 
L 158.593368 261.766347 
L 160.233037 263.730318 
L 161.872707 260.214446 
L 163.512376 263.120154 
L 165.152045 263.86051 
L 166.791715 263.126862 
L 168.431384 263.632024 
L 170.071054 257.196206 
L 171.710723 264.484228 
L 174.990062 261.256394 
L 176.629731 263.036508 
L 178.269401 261.390145 
L 179.90907 262.375416 
L 181.54874 257.607865 
L 183.188409 258.780005 
L 184.828079 264.357321 
L 186.467748 264.224117 
L 188.107417 263.212972 
L 189.747087 262.606641 
L 191.386756 262.711643 
L 193.026426 264.356226 
L 194.666095 260.37681 
L 196.305764 259.698058 
L 197.945434 263.806161 
L 199.585103 262.985855 
L 201.224773 261.942538 
L 202.864442 264.382237 
L 204.504112 264.035058 
L 206.143781 263.349735 
L 207.78345 263.556729 
L 209.42312 258.244177 
L 211.062789 263.598894 
L 212.702459 263.525105 
L 215.981798 261.544842 
L 217.621467 264.535565 
L 219.261136 260.593523 
L 220.900806 261.38111 
L 222.540475 261.949793 
L 224.180145 264.167851 
L 225.819814 264.22398 
L 227.459483 261.733628 
L 229.099153 264.60292 
L 230.738822 263.3663 
L 232.378492 263.178473 
L 237.2975 262.9927 
L 238.937169 262.732042 
L 240.576839 264.440146 
L 242.216508 264.599087 
L 243.856178 264.430015 
L 245.495847 263.621346 
L 247.135517 262.68618 
L 250.414855 261.487481 
L 252.054525 262.844026 
L 253.694194 257.146648 
L 255.333864 263.64325 
L 256.973533 263.491564 
L 258.613202 262.437021 
L 260.252872 264.166756 
L 261.892541 264.138418 
L 263.532211 264.623045 
L 265.17188 264.564999 
L 266.81155 264.039713 
L 268.451219 263.727854 
L 271.730558 264.024928 
L 273.370227 264.49162 
L 275.009897 262.478502 
L 276.649566 264.089408 
L 278.289236 263.325504 
L 279.928905 257.52504 
L 281.568574 261.983334 
L 283.208244 261.865463 
L 284.847913 262.688097 
L 286.487583 261.289113 
L 288.127252 264.20988 
L 289.766921 261.259816 
L 291.406591 261.018187 
L 293.04626 260.171459 
L 294.68593 263.699926 
L 296.325599 264.334459 
L 297.965269 261.970739 
L 299.604938 263.094416 
L 301.244607 264.406332 
L 302.884277 263.527843 
L 304.523946 261.582901 
L 306.163616 264.597581 
L 307.803285 261.264881 
L 309.442955 263.877075 
L 311.082624 264.082973 
L 312.722293 260.701674 
L 314.361963 262.330102 
L 316.001632 261.245852 
L 317.641302 264.387576 
L 319.280971 264.085437 
L 320.92064 262.389928 
L 322.56031 263.983447 
L 324.199979 264.233427 
L 325.839649 255.818852 
L 325.839649 255.818852 
" style="fill:none;stroke:#17becf;stroke-linecap:square;stroke-width:0.5;"/>
   </g>
   <g id="line2d_28">
    <path clip-path="url(#pb63546d825)" d="M 74.970227 262.635664 
L 76.609897 251.630937 
L 78.249566 262.990646 
L 79.889236 264.62414 
L 81.528905 261.71542 
L 83.168574 262.277396 
L 84.808244 262.348858 
L 86.447913 260.360518 
L 88.087583 264.200707 
L 89.727252 247.733523 
L 91.366921 263.268964 
L 93.006591 257.814447 
L 94.64626 264.224665 
L 96.28593 263.871462 
L 97.925599 254.761435 
L 99.565269 261.750604 
L 101.204938 255.777782 
L 102.844607 264.56541 
L 104.484277 262.480419 
L 106.123946 263.306201 
L 107.763616 236.16819 
L 109.403285 260.266331 
L 111.042955 264.335828 
L 112.682624 259.413442 
L 114.322293 264.102961 
L 115.961963 212.636131 
L 117.601632 260.473872 
L 119.241302 261.700635 
L 120.880971 263.189425 
L 122.52064 263.028294 
L 125.799979 264.365398 
L 127.439649 264.434533 
L 129.079318 260.545744 
L 130.718988 260.84186 
L 132.358657 258.618326 
L 133.998326 260.612415 
L 135.637996 263.260887 
L 137.277665 264.47396 
L 138.917335 263.736068 
L 140.557004 254.189739 
L 142.196674 251.623955 
L 143.836343 263.29744 
L 145.476012 229.794525 
L 147.115682 262.343929 
L 148.755351 258.174906 
L 150.395021 256.504175 
L 152.03469 261.159468 
L 153.67436 178.6861 
L 155.314029 263.438447 
L 156.953698 263.554812 
L 158.593368 264.489567 
L 160.233037 262.579398 
L 161.872707 262.489728 
L 163.512376 250.335039 
L 166.791715 254.22328 
L 168.431384 264.223296 
L 170.071054 259.907379 
L 171.710723 258.127128 
L 173.350393 263.566038 
L 174.990062 264.306258 
L 176.629731 263.934847 
L 178.269401 262.697269 
L 179.90907 260.874031 
L 181.54874 263.369312 
L 183.188409 253.485114 
L 184.828079 264.16881 
L 188.107417 255.469346 
L 189.747087 262.636074 
L 191.386756 253.414199 
L 193.026426 261.636976 
L 194.666095 251.462549 
L 196.305764 263.443512 
L 197.945434 260.71687 
L 199.585103 256.976344 
L 201.224773 253.652269 
L 202.864442 263.78015 
L 204.504112 262.603355 
L 206.143781 264.06723 
L 207.78345 262.481788 
L 209.42312 244.548402 
L 211.062789 264.458217 
L 212.702459 263.919925 
L 214.342128 262.033303 
L 215.981798 263.771662 
L 217.621467 252.693146 
L 219.261136 258.61504 
L 220.900806 256.488842 
L 222.540475 259.760211 
L 224.180145 263.967703 
L 225.819814 263.966608 
L 227.459483 260.912226 
L 229.099153 262.849639 
L 230.738822 240.98968 
L 232.378492 263.430233 
L 234.018161 262.932874 
L 235.657831 259.066263 
L 237.2975 252.271904 
L 238.937169 262.170066 
L 240.576839 264.211386 
L 242.216508 262.198267 
L 243.856178 262.389517 
L 245.495847 264.5932 
L 247.135517 262.996943 
L 248.775186 258.668705 
L 250.414855 262.593909 
L 253.694194 263.855308 
L 255.333864 261.758133 
L 256.973533 261.77949 
L 258.613202 259.13444 
L 260.252872 263.987691 
L 263.532211 263.754002 
L 265.17188 251.16219 
L 266.81155 261.121136 
L 268.451219 263.815881 
L 270.090888 264.328298 
L 271.730558 258.874055 
L 273.370227 263.292648 
L 275.009897 264.496138 
L 276.649566 254.917912 
L 278.289236 253.9733 
L 279.928905 259.387158 
L 281.568574 262.875787 
L 283.208244 258.872413 
L 284.847913 264.233427 
L 286.487583 263.641059 
L 288.127252 262.089295 
L 289.766921 262.679472 
L 291.406591 207.024316 
L 293.04626 264.682323 
L 294.68593 259.468203 
L 296.325599 263.370681 
L 297.965269 263.337551 
L 299.604938 264.319126 
L 301.244607 259.570741 
L 302.884277 264.520643 
L 304.523946 264.079961 
L 306.163616 262.145835 
L 307.803285 263.434751 
L 309.442955 263.734562 
L 311.082624 262.689602 
L 312.722293 239.042274 
L 314.361963 260.666627 
L 316.001632 264.097074 
L 317.641302 263.874337 
L 319.280971 264.290377 
L 320.92064 263.270607 
L 322.56031 263.931425 
L 324.199979 262.227427 
L 325.839649 240.196617 
L 327.479318 264.172643 
L 329.118988 264.034921 
L 330.758657 264.503805 
L 332.398326 264.613188 
L 334.037996 260.22882 
L 335.677665 261.856427 
L 337.317335 259.631661 
L 338.957004 263.303052 
L 340.596674 263.90158 
L 342.236343 262.647026 
L 343.876012 262.498627 
L 345.515682 263.857088 
L 347.155351 260.650199 
L 348.795021 262.740803 
L 350.43469 245.770921 
L 352.07436 264.574034 
L 355.353698 262.733137 
L 356.993368 262.41457 
L 358.633037 263.71786 
L 360.272707 263.970578 
L 361.912376 264.547339 
L 363.552045 259.206312 
L 365.191715 263.460762 
L 366.831384 259.228764 
L 368.471054 263.411614 
L 370.110723 264.456163 
L 371.750393 260.131895 
L 373.390062 258.94497 
L 375.029731 253.410777 
L 376.669401 263.236245 
L 378.30907 255.629382 
L 379.94874 261.928711 
L 381.588409 262.985581 
L 383.228079 263.599168 
L 384.867748 263.988649 
L 386.507417 264.201255 
L 388.147087 259.723795 
L 389.786756 264.11843 
L 391.426426 263.565216 
L 393.066095 263.474725 
L 393.066095 263.474725 
" style="fill:none;stroke:#1f77b4;stroke-linecap:square;stroke-width:0.5;"/>
   </g>
   <g id="line2d_29">
    <path clip-path="url(#pb63546d825)" d="M 74.970227 261.783597 
L 76.609897 260.241826 
L 78.249566 264.530911 
L 79.889236 261.50213 
L 81.528905 264.715863 
L 84.808244 256.799058 
L 86.447913 263.968251 
L 88.087583 257.775294 
L 89.727252 234.791521 
L 91.366921 264.512703 
L 93.006591 259.565949 
L 94.64626 262.94232 
L 96.28593 263.956067 
L 97.925599 262.929999 
L 99.565269 264.144168 
L 101.204938 264.242325 
L 102.844607 262.073277 
L 104.484277 260.827622 
L 106.123946 263.560699 
L 107.763616 263.297166 
L 111.042955 264.320084 
L 112.682624 264.55391 
L 114.322293 261.684618 
L 115.961963 255.79024 
L 117.601632 261.224496 
L 119.241302 260.696198 
L 120.880971 261.925425 
L 122.52064 264.495317 
L 124.16031 262.375553 
L 125.799979 263.763859 
L 127.439649 263.367259 
L 129.079318 257.318458 
L 130.718988 260.397071 
L 132.358657 263.839017 
L 133.998326 264.184006 
L 135.637996 253.012534 
L 137.277665 263.580823 
L 138.917335 263.622304 
L 140.557004 262.920827 
L 142.196674 264.548982 
L 143.836343 264.196464 
L 145.476012 254.934066 
L 147.115682 258.019524 
L 148.755351 256.195328 
L 150.395021 264.100633 
L 152.03469 262.133514 
L 153.67436 253.016367 
L 155.314029 262.468235 
L 156.953698 261.467768 
L 158.593368 264.503257 
L 160.233037 255.107793 
L 161.872707 260.968082 
L 163.512376 263.370544 
L 165.152045 255.150505 
L 166.791715 263.621756 
L 170.071054 263.885974 
L 171.710723 262.941362 
L 173.350393 260.164203 
L 174.990062 264.30393 
L 176.629731 264.138692 
L 178.269401 256.286777 
L 179.90907 264.28449 
L 181.54874 262.724923 
L 183.188409 264.08667 
L 184.828079 260.783951 
L 186.467748 264.547339 
L 188.107417 263.317838 
L 189.747087 261.165081 
L 191.386756 264.111859 
L 193.026426 263.849011 
L 194.666095 254.163865 
L 196.305764 264.555416 
L 197.945434 260.039624 
L 201.224773 262.841151 
L 202.864442 262.652092 
L 204.504112 257.725599 
L 207.78345 262.725333 
L 209.42312 257.033431 
L 211.062789 261.216556 
L 212.702459 255.46168 
L 214.342128 262.490549 
L 215.981798 260.477842 
L 217.621467 264.05176 
L 219.261136 260.151472 
L 220.900806 257.131726 
L 222.540475 263.057864 
L 224.180145 263.903223 
L 225.819814 261.801394 
L 227.459483 261.905301 
L 229.099153 263.49526 
L 230.738822 261.324022 
L 232.378492 254.49886 
L 234.018161 263.371366 
L 235.657831 263.005979 
L 237.2975 264.624003 
L 238.937169 264.672876 
L 240.576839 263.596293 
L 242.216508 263.740723 
L 243.856178 261.852594 
L 245.495847 262.784064 
L 247.135517 263.224746 
L 248.775186 264.200844 
L 250.414855 262.83499 
L 252.054525 264.320084 
L 253.694194 259.987054 
L 255.333864 263.756055 
L 256.973533 263.557002 
L 258.613202 263.655023 
L 260.252872 264.312692 
L 261.892541 257.907129 
L 263.532211 263.935805 
L 265.17188 256.28048 
L 266.81155 264.050117 
L 268.451219 261.407668 
L 270.090888 263.083875 
L 271.730558 263.838469 
L 273.370227 261.432447 
L 275.009897 263.805476 
L 276.649566 262.642372 
L 278.289236 261.988262 
L 279.928905 258.562197 
L 281.568574 262.744773 
L 283.208244 261.187122 
L 284.847913 257.504231 
L 286.487583 264.537893 
L 288.127252 261.229698 
L 289.766921 259.616329 
L 291.406591 263.144248 
L 293.04626 262.144192 
L 294.68593 260.95535 
L 296.325599 261.663809 
L 297.965269 248.307135 
L 299.604938 262.681799 
L 301.244607 257.955044 
L 302.884277 263.368901 
L 304.523946 263.622441 
L 306.163616 264.270253 
L 307.803285 258.099884 
L 309.442955 264.039713 
L 311.082624 254.536645 
L 312.722293 263.817113 
L 314.361963 264.596897 
L 316.001632 264.378541 
L 317.641302 263.792471 
L 319.280971 261.696254 
L 320.92064 264.022737 
L 322.56031 263.398746 
L 324.199979 263.573841 
L 325.839649 264.370327 
L 327.479318 263.289499 
L 329.118988 261.509385 
L 330.758657 256.788243 
L 334.037996 263.926086 
L 335.677665 263.493207 
L 337.317335 262.860043 
L 338.957004 262.863192 
L 340.596674 242.690255 
L 342.236343 255.843221 
L 343.876012 263.869409 
L 345.515682 264.627836 
L 347.155351 262.747648 
L 348.795021 260.671966 
L 350.43469 253.896499 
L 352.07436 264.270527 
L 353.714029 258.57972 
L 355.353698 263.109749 
L 356.993368 245.619236 
L 358.633037 262.898923 
L 360.272707 263.706908 
L 361.912376 262.903714 
L 363.552045 263.515795 
L 365.191715 263.372735 
L 366.831384 262.296836 
L 368.471054 260.913459 
L 370.110723 263.73114 
L 371.750393 264.267789 
L 373.390062 262.326543 
L 375.029731 262.427165 
L 376.669401 261.472696 
L 378.30907 246.4149 
L 379.94874 259.899165 
L 381.588409 264.455068 
L 383.228079 264.407153 
L 384.867748 263.756466 
L 386.507417 264.250539 
L 388.147087 261.407532 
L 389.786756 264.380184 
L 391.426426 262.253301 
L 393.066095 264.362113 
L 394.705764 263.647357 
L 396.345434 262.606367 
L 397.985103 263.544955 
L 397.985103 263.544955 
" style="fill:none;stroke:#ff7f0e;stroke-linecap:square;stroke-width:0.5;"/>
   </g>
   <g id="line2d_30">
    <path clip-path="url(#pb63546d825)" d="M 74.970227 251.178208 
L 76.609897 260.793397 
L 78.249566 243.936184 
L 79.889236 253.05689 
L 81.528905 254.610297 
L 83.168574 257.051639 
L 84.808244 254.227524 
L 88.087583 262.072182 
L 89.727252 237.808802 
L 91.366921 261.549497 
L 93.006591 259.891772 
L 94.64626 259.211788 
L 96.28593 254.035316 
L 97.925599 178.745241 
L 99.565269 263.492933 
L 101.204938 263.770019 
L 102.844607 245.173626 
L 104.484277 217.432979 
L 106.123946 252.970506 
L 107.763616 244.908176 
L 109.403285 255.439502 
L 111.042955 264.240409 
L 112.682624 229.855719 
L 114.322293 246.796715 
L 115.961963 186.935983 
L 117.601632 255.165975 
L 119.241302 260.802159 
L 120.880971 233.563389 
L 122.52064 220.862604 
L 124.16031 261.559217 
L 125.799979 234.274585 
L 127.439649 259.90245 
L 129.079318 263.996863 
L 130.718988 248.152575 
L 132.358657 251.280609 
L 133.998326 257.65975 
L 135.637996 259.059281 
L 137.277665 257.09531 
L 138.917335 263.216258 
L 140.557004 262.517108 
L 142.196674 237.527472 
L 143.836343 245.577071 
L 145.476012 258.458016 
L 147.115682 260.45717 
L 148.755351 257.992144 
L 150.395021 258.589166 
L 152.03469 254.740215 
L 153.67436 259.756651 
L 155.314029 262.689329 
L 156.953698 240.934783 
L 158.593368 250.478373 
L 160.233037 263.800548 
L 161.872707 262.260009 
L 163.512376 262.37391 
L 165.152045 259.260251 
L 166.791715 261.647655 
L 168.431384 236.286335 
L 170.071054 245.173899 
L 171.710723 255.211426 
L 173.350393 258.238975 
L 174.990062 262.692888 
L 176.629731 254.1703 
L 178.269401 259.615781 
L 179.90907 259.340338 
L 181.54874 254.644248 
L 183.188409 258.136984 
L 184.828079 249.530065 
L 186.467748 255.257151 
L 188.107417 239.718013 
L 189.747087 264.336102 
L 191.386756 260.967123 
L 193.026426 203.349639 
L 194.666095 197.18461 
L 196.305764 262.348721 
L 197.945434 252.006591 
L 199.585103 261.234627 
L 201.224773 263.723062 
L 202.864442 263.909247 
L 204.504112 263.478422 
L 206.143781 263.34248 
L 207.78345 261.967864 
L 209.42312 249.33156 
L 211.062789 261.913652 
L 212.702459 253.295781 
L 214.342128 259.317749 
L 215.981798 255.395694 
L 217.621467 259.070233 
L 219.261136 241.871181 
L 220.900806 254.188781 
L 222.540475 259.410431 
L 224.180145 254.931876 
L 225.819814 260.80695 
L 227.459483 262.756684 
L 229.099153 259.581967 
L 230.738822 259.316791 
L 232.378492 239.772363 
L 234.018161 262.347626 
L 235.657831 263.214478 
L 237.2975 245.174995 
L 238.937169 257.409907 
L 240.576839 264.154024 
L 242.216508 253.316453 
L 243.856178 260.400493 
L 245.495847 253.291126 
L 247.135517 249.722273 
L 248.775186 235.227959 
L 250.414855 261.737872 
L 252.054525 257.484244 
L 253.694194 250.655796 
L 255.333864 262.365012 
L 256.973533 257.023985 
L 258.613202 230.995003 
L 260.252872 263.305243 
L 261.892541 234.675703 
L 263.532211 239.635463 
L 265.17188 264.637967 
L 266.81155 264.236302 
L 268.451219 255.247568 
L 270.090888 219.70347 
L 271.730558 260.411308 
L 273.370227 263.120701 
L 275.009897 230.815664 
L 276.649566 224.081951 
L 278.289236 262.931916 
L 279.928905 254.367573 
L 281.568574 263.026103 
L 283.208244 261.744443 
L 284.847913 264.518316 
L 286.487583 260.423082 
L 288.127252 264.239861 
L 289.766921 261.85013 
L 291.406591 259.179617 
L 293.04626 235.57418 
L 294.68593 258.941 
L 296.325599 255.266871 
L 297.965269 250.287124 
L 299.604938 258.526329 
L 301.244607 264.07517 
L 302.884277 262.684811 
L 304.523946 255.34641 
L 306.163616 262.153912 
L 307.803285 257.154862 
L 309.442955 237.479694 
L 311.082624 257.42346 
L 312.722293 239.659831 
L 314.361963 252.193871 
L 316.001632 258.200095 
L 317.641302 262.949165 
L 319.280971 258.199274 
L 320.92064 251.298269 
L 322.56031 254.546912 
L 324.199979 229.882278 
L 325.839649 260.580517 
L 327.479318 264.570886 
L 329.118988 255.413901 
L 330.758657 262.075742 
L 332.398326 264.109121 
L 334.037996 238.214301 
L 335.677665 262.644836 
L 337.317335 264.327888 
L 338.957004 261.427382 
L 340.596674 263.914586 
L 342.236343 260.828033 
L 343.876012 247.349244 
L 347.155351 263.43653 
L 348.795021 263.501284 
L 350.43469 264.507227 
L 352.07436 263.885015 
L 353.714029 260.789701 
L 355.353698 246.015836 
L 356.993368 250.893181 
L 358.633037 262.355703 
L 360.272707 260.120669 
L 361.912376 260.521239 
L 363.552045 246.425305 
L 365.191715 264.216177 
L 366.831384 247.785819 
L 368.471054 261.768127 
L 370.110723 257.236318 
L 371.750393 260.3534 
L 373.390062 262.714244 
L 375.029731 263.867492 
L 376.669401 263.963733 
L 378.30907 260.187203 
L 379.94874 264.565136 
L 381.588409 255.515618 
L 383.228079 247.212892 
L 384.867748 264.498876 
L 386.507417 253.19598 
L 388.147087 261.651625 
L 389.786756 243.678812 
L 391.426426 261.409722 
L 393.066095 261.939663 
L 394.705764 259.896974 
L 394.705764 259.896974 
" style="fill:none;stroke:#2ca02c;stroke-linecap:square;stroke-width:0.5;"/>
   </g>
   <g id="patch_3">
    <path d="M 58.7375 276.812 
L 58.7375 10.7 
" style="fill:none;stroke:#000000;stroke-linecap:square;stroke-linejoin:miter;stroke-width:0.8;"/>
   </g>
   <g id="patch_4">
    <path d="M 415.8575 276.812 
L 415.8575 10.7 
" style="fill:none;stroke:#000000;stroke-linecap:square;stroke-linejoin:miter;stroke-width:0.8;"/>
   </g>
   <g id="patch_5">
    <path d="M 58.7375 276.812 
L 415.8575 276.812 
" style="fill:none;stroke:#000000;stroke-linecap:square;stroke-linejoin:miter;stroke-width:0.8;"/>
   </g>
   <g id="patch_6">
    <path d="M 58.7375 10.7 
L 415.8575 10.7 
" style="fill:none;stroke:#000000;stroke-linecap:square;stroke-linejoin:miter;stroke-width:0.8;"/>
   </g>
  </g>
 </g>
 <defs>
  <clipPath id="pb63546d825">
   <rect height="266.112" width="357.12" x="58.7375" y="10.7"/>
  </clipPath>
 </defs>
</svg>
