<?xml version="1.0" encoding="utf-8" standalone="no"?>
<!DOCTYPE svg PUBLIC "-//W3C//DTD SVG 1.1//EN"
  "http://www.w3.org/Graphics/SVG/1.1/DTD/svg11.dtd">
<!-- Created with matplotlib (http://matplotlib.org/) -->
<svg height="300pt" version="1.1" viewBox="0 0 426 300" width="426pt" xmlns="http://www.w3.org/2000/svg" xmlns:xlink="http://www.w3.org/1999/xlink">
 <defs>
  <style type="text/css">
*{stroke-linecap:butt;stroke-linejoin:round;}
  </style>
 </defs>
 <g id="figure_1">
  <g id="patch_1">
   <path d="M 0 300.690125 
L 426.5575 300.690125 
L 426.5575 0 
L 0 0 
z
" style="fill:#ffffff;"/>
  </g>
  <g id="axes_1">
   <g id="patch_2">
    <path d="M 58.7375 276.812 
L 415.8575 276.812 
L 415.8575 10.7 
L 58.7375 10.7 
z
" style="fill:#ffffff;"/>
   </g>
   <g id="matplotlib.axis_1">
    <g id="xtick_1">
     <g id="line2d_1">
      <defs>
       <path d="M 0 0 
L 0 3.5 
" id="me1514dd0ad" style="stroke:#000000;stroke-width:0.8;"/>
      </defs>
      <g>
       <use style="stroke:#000000;stroke-width:0.8;" x="74.970227" xlink:href="#me1514dd0ad" y="276.812"/>
      </g>
     </g>
     <g id="text_1">
      <!-- 0 -->
      <defs>
       <path d="M 31.78125 66.40625 
Q 24.171875 66.40625 20.328125 58.90625 
Q 16.5 51.421875 16.5 36.375 
Q 16.5 21.390625 20.328125 13.890625 
Q 24.171875 6.390625 31.78125 6.390625 
Q 39.453125 6.390625 43.28125 13.890625 
Q 47.125 21.390625 47.125 36.375 
Q 47.125 51.421875 43.28125 58.90625 
Q 39.453125 66.40625 31.78125 66.40625 
z
M 31.78125 74.21875 
Q 44.046875 74.21875 50.515625 64.515625 
Q 56.984375 54.828125 56.984375 36.375 
Q 56.984375 17.96875 50.515625 8.265625 
Q 44.046875 -1.421875 31.78125 -1.421875 
Q 19.53125 -1.421875 13.0625 8.265625 
Q 6.59375 17.96875 6.59375 36.375 
Q 6.59375 54.828125 13.0625 64.515625 
Q 19.53125 74.21875 31.78125 74.21875 
z
" id="DejaVuSans-30"/>
      </defs>
      <g transform="translate(71.788977 291.410437)scale(0.1 -0.1)">
       <use xlink:href="#DejaVuSans-30"/>
      </g>
     </g>
    </g>
    <g id="xtick_2">
     <g id="line2d_2">
      <g>
       <use style="stroke:#000000;stroke-width:0.8;" x="115.961963" xlink:href="#me1514dd0ad" y="276.812"/>
      </g>
     </g>
     <g id="text_2">
      <!-- 25 -->
      <defs>
       <path d="M 19.1875 8.296875 
L 53.609375 8.296875 
L 53.609375 0 
L 7.328125 0 
L 7.328125 8.296875 
Q 12.9375 14.109375 22.625 23.890625 
Q 32.328125 33.6875 34.8125 36.53125 
Q 39.546875 41.84375 41.421875 45.53125 
Q 43.3125 49.21875 43.3125 52.78125 
Q 43.3125 58.59375 39.234375 62.25 
Q 35.15625 65.921875 28.609375 65.921875 
Q 23.96875 65.921875 18.8125 64.3125 
Q 13.671875 62.703125 7.8125 59.421875 
L 7.8125 69.390625 
Q 13.765625 71.78125 18.9375 73 
Q 24.125 74.21875 28.421875 74.21875 
Q 39.75 74.21875 46.484375 68.546875 
Q 53.21875 62.890625 53.21875 53.421875 
Q 53.21875 48.921875 51.53125 44.890625 
Q 49.859375 40.875 45.40625 35.40625 
Q 44.1875 33.984375 37.640625 27.21875 
Q 31.109375 20.453125 19.1875 8.296875 
z
" id="DejaVuSans-32"/>
       <path d="M 10.796875 72.90625 
L 49.515625 72.90625 
L 49.515625 64.59375 
L 19.828125 64.59375 
L 19.828125 46.734375 
Q 21.96875 47.46875 24.109375 47.828125 
Q 26.265625 48.1875 28.421875 48.1875 
Q 40.625 48.1875 47.75 41.5 
Q 54.890625 34.8125 54.890625 23.390625 
Q 54.890625 11.625 47.5625 5.09375 
Q 40.234375 -1.421875 26.90625 -1.421875 
Q 22.3125 -1.421875 17.546875 -0.640625 
Q 12.796875 0.140625 7.71875 1.703125 
L 7.71875 11.625 
Q 12.109375 9.234375 16.796875 8.0625 
Q 21.484375 6.890625 26.703125 6.890625 
Q 35.15625 6.890625 40.078125 11.328125 
Q 45.015625 15.765625 45.015625 23.390625 
Q 45.015625 31 40.078125 35.4375 
Q 35.15625 39.890625 26.703125 39.890625 
Q 22.75 39.890625 18.8125 39.015625 
Q 14.890625 38.140625 10.796875 36.28125 
z
" id="DejaVuSans-35"/>
      </defs>
      <g transform="translate(109.599463 291.410437)scale(0.1 -0.1)">
       <use xlink:href="#DejaVuSans-32"/>
       <use x="63.623047" xlink:href="#DejaVuSans-35"/>
      </g>
     </g>
    </g>
    <g id="xtick_3">
     <g id="line2d_3">
      <g>
       <use style="stroke:#000000;stroke-width:0.8;" x="156.953698" xlink:href="#me1514dd0ad" y="276.812"/>
      </g>
     </g>
     <g id="text_3">
      <!-- 50 -->
      <g transform="translate(150.591198 291.410437)scale(0.1 -0.1)">
       <use xlink:href="#DejaVuSans-35"/>
       <use x="63.623047" xlink:href="#DejaVuSans-30"/>
      </g>
     </g>
    </g>
    <g id="xtick_4">
     <g id="line2d_4">
      <g>
       <use style="stroke:#000000;stroke-width:0.8;" x="197.945434" xlink:href="#me1514dd0ad" y="276.812"/>
      </g>
     </g>
     <g id="text_4">
      <!-- 75 -->
      <defs>
       <path d="M 8.203125 72.90625 
L 55.078125 72.90625 
L 55.078125 68.703125 
L 28.609375 0 
L 18.3125 0 
L 43.21875 64.59375 
L 8.203125 64.59375 
z
" id="DejaVuSans-37"/>
      </defs>
      <g transform="translate(191.582934 291.410437)scale(0.1 -0.1)">
       <use xlink:href="#DejaVuSans-37"/>
       <use x="63.623047" xlink:href="#DejaVuSans-35"/>
      </g>
     </g>
    </g>
    <g id="xtick_5">
     <g id="line2d_5">
      <g>
       <use style="stroke:#000000;stroke-width:0.8;" x="238.937169" xlink:href="#me1514dd0ad" y="276.812"/>
      </g>
     </g>
     <g id="text_5">
      <!-- 100 -->
      <defs>
       <path d="M 12.40625 8.296875 
L 28.515625 8.296875 
L 28.515625 63.921875 
L 10.984375 60.40625 
L 10.984375 69.390625 
L 28.421875 72.90625 
L 38.28125 72.90625 
L 38.28125 8.296875 
L 54.390625 8.296875 
L 54.390625 0 
L 12.40625 0 
z
" id="DejaVuSans-31"/>
      </defs>
      <g transform="translate(229.393419 291.410437)scale(0.1 -0.1)">
       <use xlink:href="#DejaVuSans-31"/>
       <use x="63.623047" xlink:href="#DejaVuSans-30"/>
       <use x="127.246094" xlink:href="#DejaVuSans-30"/>
      </g>
     </g>
    </g>
    <g id="xtick_6">
     <g id="line2d_6">
      <g>
       <use style="stroke:#000000;stroke-width:0.8;" x="279.928905" xlink:href="#me1514dd0ad" y="276.812"/>
      </g>
     </g>
     <g id="text_6">
      <!-- 125 -->
      <g transform="translate(270.385155 291.410437)scale(0.1 -0.1)">
       <use xlink:href="#DejaVuSans-31"/>
       <use x="63.623047" xlink:href="#DejaVuSans-32"/>
       <use x="127.246094" xlink:href="#DejaVuSans-35"/>
      </g>
     </g>
    </g>
    <g id="xtick_7">
     <g id="line2d_7">
      <g>
       <use style="stroke:#000000;stroke-width:0.8;" x="320.92064" xlink:href="#me1514dd0ad" y="276.812"/>
      </g>
     </g>
     <g id="text_7">
      <!-- 150 -->
      <g transform="translate(311.37689 291.410437)scale(0.1 -0.1)">
       <use xlink:href="#DejaVuSans-31"/>
       <use x="63.623047" xlink:href="#DejaVuSans-35"/>
       <use x="127.246094" xlink:href="#DejaVuSans-30"/>
      </g>
     </g>
    </g>
    <g id="xtick_8">
     <g id="line2d_8">
      <g>
       <use style="stroke:#000000;stroke-width:0.8;" x="361.912376" xlink:href="#me1514dd0ad" y="276.812"/>
      </g>
     </g>
     <g id="text_8">
      <!-- 175 -->
      <g transform="translate(352.368626 291.410437)scale(0.1 -0.1)">
       <use xlink:href="#DejaVuSans-31"/>
       <use x="63.623047" xlink:href="#DejaVuSans-37"/>
       <use x="127.246094" xlink:href="#DejaVuSans-35"/>
      </g>
     </g>
    </g>
    <g id="xtick_9">
     <g id="line2d_9">
      <g>
       <use style="stroke:#000000;stroke-width:0.8;" x="402.904112" xlink:href="#me1514dd0ad" y="276.812"/>
      </g>
     </g>
     <g id="text_9">
      <!-- 200 -->
      <g transform="translate(393.360362 291.410437)scale(0.1 -0.1)">
       <use xlink:href="#DejaVuSans-32"/>
       <use x="63.623047" xlink:href="#DejaVuSans-30"/>
       <use x="127.246094" xlink:href="#DejaVuSans-30"/>
      </g>
     </g>
    </g>
   </g>
   <g id="matplotlib.axis_2">
    <g id="ytick_1">
     <g id="line2d_10">
      <defs>
       <path d="M 0 0 
L -3.5 0 
" id="m06dd5f35cf" style="stroke:#000000;stroke-width:0.8;"/>
      </defs>
      <g>
       <use style="stroke:#000000;stroke-width:0.8;" x="58.7375" xlink:href="#m06dd5f35cf" y="264.716"/>
      </g>
     </g>
     <g id="text_10">
      <!-- 0 -->
      <g transform="translate(45.375 268.515219)scale(0.1 -0.1)">
       <use xlink:href="#DejaVuSans-30"/>
      </g>
     </g>
    </g>
    <g id="ytick_2">
     <g id="line2d_11">
      <g>
       <use style="stroke:#000000;stroke-width:0.8;" x="58.7375" xlink:href="#m06dd5f35cf" y="220.49319"/>
      </g>
     </g>
     <g id="text_11">
      <!-- 500000 -->
      <g transform="translate(13.5625 224.292408)scale(0.1 -0.1)">
       <use xlink:href="#DejaVuSans-35"/>
       <use x="63.623047" xlink:href="#DejaVuSans-30"/>
       <use x="127.246094" xlink:href="#DejaVuSans-30"/>
       <use x="190.869141" xlink:href="#DejaVuSans-30"/>
       <use x="254.492188" xlink:href="#DejaVuSans-30"/>
       <use x="318.115234" xlink:href="#DejaVuSans-30"/>
      </g>
     </g>
    </g>
    <g id="ytick_3">
     <g id="line2d_12">
      <g>
       <use style="stroke:#000000;stroke-width:0.8;" x="58.7375" xlink:href="#m06dd5f35cf" y="176.270379"/>
      </g>
     </g>
     <g id="text_12">
      <!-- 1000000 -->
      <g transform="translate(7.2 180.069598)scale(0.1 -0.1)">
       <use xlink:href="#DejaVuSans-31"/>
       <use x="63.623047" xlink:href="#DejaVuSans-30"/>
       <use x="127.246094" xlink:href="#DejaVuSans-30"/>
       <use x="190.869141" xlink:href="#DejaVuSans-30"/>
       <use x="254.492188" xlink:href="#DejaVuSans-30"/>
       <use x="318.115234" xlink:href="#DejaVuSans-30"/>
       <use x="381.738281" xlink:href="#DejaVuSans-30"/>
      </g>
     </g>
    </g>
    <g id="ytick_4">
     <g id="line2d_13">
      <g>
       <use style="stroke:#000000;stroke-width:0.8;" x="58.7375" xlink:href="#m06dd5f35cf" y="132.047569"/>
      </g>
     </g>
     <g id="text_13">
      <!-- 1500000 -->
      <g transform="translate(7.2 135.846787)scale(0.1 -0.1)">
       <use xlink:href="#DejaVuSans-31"/>
       <use x="63.623047" xlink:href="#DejaVuSans-35"/>
       <use x="127.246094" xlink:href="#DejaVuSans-30"/>
       <use x="190.869141" xlink:href="#DejaVuSans-30"/>
       <use x="254.492188" xlink:href="#DejaVuSans-30"/>
       <use x="318.115234" xlink:href="#DejaVuSans-30"/>
       <use x="381.738281" xlink:href="#DejaVuSans-30"/>
      </g>
     </g>
    </g>
    <g id="ytick_5">
     <g id="line2d_14">
      <g>
       <use style="stroke:#000000;stroke-width:0.8;" x="58.7375" xlink:href="#m06dd5f35cf" y="87.824758"/>
      </g>
     </g>
     <g id="text_14">
      <!-- 2000000 -->
      <g transform="translate(7.2 91.623977)scale(0.1 -0.1)">
       <use xlink:href="#DejaVuSans-32"/>
       <use x="63.623047" xlink:href="#DejaVuSans-30"/>
       <use x="127.246094" xlink:href="#DejaVuSans-30"/>
       <use x="190.869141" xlink:href="#DejaVuSans-30"/>
       <use x="254.492188" xlink:href="#DejaVuSans-30"/>
       <use x="318.115234" xlink:href="#DejaVuSans-30"/>
       <use x="381.738281" xlink:href="#DejaVuSans-30"/>
      </g>
     </g>
    </g>
    <g id="ytick_6">
     <g id="line2d_15">
      <g>
       <use style="stroke:#000000;stroke-width:0.8;" x="58.7375" xlink:href="#m06dd5f35cf" y="43.601948"/>
      </g>
     </g>
     <g id="text_15">
      <!-- 2500000 -->
      <g transform="translate(7.2 47.401167)scale(0.1 -0.1)">
       <use xlink:href="#DejaVuSans-32"/>
       <use x="63.623047" xlink:href="#DejaVuSans-35"/>
       <use x="127.246094" xlink:href="#DejaVuSans-30"/>
       <use x="190.869141" xlink:href="#DejaVuSans-30"/>
       <use x="254.492188" xlink:href="#DejaVuSans-30"/>
       <use x="318.115234" xlink:href="#DejaVuSans-30"/>
       <use x="381.738281" xlink:href="#DejaVuSans-30"/>
      </g>
     </g>
    </g>
   </g>
   <g id="line2d_16">
    <path clip-path="url(#p864e44ba0b)" d="M 74.970227 263.689146 
L 76.609897 263.093377 
L 78.249566 262.730396 
L 79.889236 261.904667 
L 81.528905 263.545776 
L 83.168574 259.288004 
L 84.808244 263.600258 
L 86.447913 260.744438 
L 88.087583 264.13217 
L 89.727252 264.099357 
L 91.366921 263.656068 
L 93.006591 262.989365 
L 94.64626 264.178781 
L 96.28593 264.337718 
L 97.925599 262.505125 
L 99.565269 262.645311 
L 101.204938 264.333207 
L 102.844607 263.665001 
L 104.484277 260.821386 
L 106.123946 259.115358 
L 107.763616 264.544239 
L 109.403285 259.325328 
L 111.042955 260.151233 
L 112.682624 261.993378 
L 114.322293 258.597509 
L 115.961963 251.156402 
L 117.601632 264.114039 
L 119.241302 262.329383 
L 120.880971 264.446772 
L 122.52064 261.104146 
L 124.16031 261.993821 
L 125.799979 262.14577 
L 127.439649 262.981847 
L 129.079318 254.15975 
L 130.718988 263.554974 
L 132.358657 262.597197 
L 133.998326 264.004809 
L 135.637996 264.255287 
L 137.277665 264.215044 
L 138.917335 263.069585 
L 140.557004 264.00587 
L 142.196674 263.169086 
L 143.836343 264.385567 
L 145.476012 264.51116 
L 147.115682 264.092724 
L 148.755351 262.914805 
L 150.395021 263.788736 
L 152.03469 263.639971 
L 153.67436 257.246856 
L 155.314029 264.662314 
L 156.953698 263.998706 
L 158.593368 264.19364 
L 160.233037 262.237842 
L 161.872707 263.602204 
L 163.512376 262.515296 
L 166.791715 263.977037 
L 168.431384 264.155874 
L 170.071054 263.940774 
L 171.710723 262.839715 
L 173.350393 264.362925 
L 174.990062 263.106201 
L 176.629731 263.942101 
L 178.269401 263.95466 
L 179.90907 264.289073 
L 183.188409 264.287393 
L 184.828079 264.518412 
L 186.467748 264.598014 
L 188.107417 263.471305 
L 191.386756 263.609988 
L 193.026426 264.408475 
L 194.666095 264.247504 
L 196.305764 264.27784 
L 197.945434 263.913975 
L 199.585103 264.481708 
L 201.224773 263.4989 
L 202.864442 264.014184 
L 204.504112 264.008081 
L 206.143781 263.565942 
L 207.78345 264.256613 
L 209.42312 264.131286 
L 211.062789 263.662966 
L 212.702459 262.99874 
L 214.342128 264.553172 
L 215.981798 263.948823 
L 217.621467 261.978343 
L 219.261136 264.183646 
L 220.900806 261.576888 
L 222.540475 263.158384 
L 224.180145 264.409359 
L 225.819814 261.949421 
L 227.459483 263.511459 
L 229.099153 264.624636 
L 230.738822 264.170644 
L 232.378492 261.93182 
L 234.018161 264.257763 
L 235.657831 263.80899 
L 237.2975 264.454378 
L 238.937169 264.094316 
L 240.576839 262.996175 
L 243.856178 263.643685 
L 245.495847 262.643365 
L 247.135517 263.80103 
L 248.775186 264.202042 
L 250.414855 263.455385 
L 252.054525 264.498778 
L 253.694194 264.577583 
L 255.333864 264.041071 
L 256.973533 264.523719 
L 258.613202 264.346916 
L 260.252872 263.036418 
L 261.892541 264.551403 
L 263.532211 263.403202 
L 265.17188 264.515228 
L 266.81155 264.095996 
L 268.451219 264.522658 
L 270.090888 264.170998 
L 271.730558 264.447833 
L 273.370227 262.941604 
L 275.009897 264.265193 
L 276.649566 264.096085 
L 278.289236 263.579651 
L 279.928905 263.550464 
L 281.568574 264.514963 
L 283.208244 264.345413 
L 284.847913 262.262518 
L 286.487583 263.464848 
L 288.127252 262.660082 
L 289.766921 262.453826 
L 291.406591 262.705896 
L 293.04626 261.807112 
L 294.68593 264.48728 
L 296.325599 261.324287 
L 297.965269 263.895932 
L 299.604938 264.567323 
L 304.523946 263.780776 
L 307.803285 264.449425 
L 309.442955 264.33931 
L 311.082624 263.823053 
L 312.722293 264.542116 
L 314.361963 263.826679 
L 316.001632 264.312423 
L 317.641302 264.013919 
L 319.280971 264.340018 
L 320.92064 264.135266 
L 322.56031 262.512996 
L 324.199979 264.589877 
L 325.839649 263.949442 
L 329.118988 264.616322 
L 330.758657 244.795481 
L 332.398326 251.863525 
L 334.037996 262.932583 
L 335.677665 263.845784 
L 337.317335 261.950925 
L 338.957004 244.243757 
L 340.596674 261.613416 
L 342.236343 264.123237 
L 343.876012 263.792628 
L 345.515682 262.715537 
L 347.155351 264.110501 
L 348.795021 263.560635 
L 350.43469 261.374348 
L 352.07436 261.543986 
L 353.714029 263.18651 
L 355.353698 262.708284 
L 356.993368 264.516732 
L 358.633037 264.002951 
L 363.552045 264.179754 
L 365.191715 262.243945 
L 366.831384 252.921246 
L 368.471054 263.486164 
L 370.110723 264.285712 
L 371.750393 262.838653 
L 373.390062 264.486661 
L 376.669401 264.146587 
L 378.30907 264.466495 
L 379.94874 264.025328 
L 381.588409 264.133409 
L 383.228079 263.115223 
L 384.867748 263.884169 
L 386.507417 264.099799 
L 388.147087 263.584515 
L 389.786756 264.034615 
L 391.426426 264.607035 
L 393.066095 264.607212 
L 394.705764 262.619573 
L 396.345434 263.120176 
L 397.985103 263.408508 
L 399.624773 264.526373 
L 399.624773 264.526373 
" style="fill:none;stroke:#1f77b4;stroke-linecap:square;stroke-width:0.5;"/>
   </g>
   <g id="line2d_17">
    <path clip-path="url(#p864e44ba0b)" d="M 74.970227 263.75097 
L 76.609897 263.67986 
L 79.889236 264.688317 
L 81.528905 264.073973 
L 83.168574 256.791361 
L 84.808244 262.676356 
L 86.447913 263.611491 
L 88.087583 263.779096 
L 89.727252 256.751383 
L 91.366921 263.697372 
L 93.006591 261.018089 
L 94.64626 263.691888 
L 96.28593 263.827741 
L 97.925599 262.215289 
L 99.565269 262.859173 
L 101.204938 261.644284 
L 102.844607 264.447568 
L 104.484277 264.123945 
L 106.123946 263.057468 
L 107.763616 252.153715 
L 109.403285 263.495274 
L 111.042955 264.45995 
L 112.682624 261.913247 
L 114.322293 264.492409 
L 115.961963 263.118495 
L 119.241302 263.979602 
L 120.880971 263.924146 
L 122.52064 261.093444 
L 124.16031 264.313838 
L 125.799979 264.503996 
L 127.439649 262.652121 
L 129.079318 262.340881 
L 130.718988 262.798941 
L 132.358657 264.104487 
L 133.998326 262.330268 
L 135.637996 264.035411 
L 137.277665 264.571038 
L 138.917335 263.006258 
L 140.557004 263.11425 
L 142.196674 262.569602 
L 143.836343 264.007551 
L 145.476012 258.223649 
L 147.115682 263.582923 
L 148.755351 264.306143 
L 150.395021 260.041472 
L 152.03469 263.716034 
L 153.67436 255.126284 
L 155.314029 263.254878 
L 156.953698 264.372035 
L 158.593368 264.663021 
L 160.233037 264.500104 
L 161.872707 264.508064 
L 163.512376 249.253406 
L 165.152045 257.751615 
L 166.791715 260.142919 
L 168.431384 264.502934 
L 170.071054 261.148988 
L 171.710723 260.562859 
L 173.350393 263.74584 
L 174.990062 264.342936 
L 176.629731 264.376192 
L 178.269401 263.68437 
L 179.90907 264.529734 
L 181.54874 262.471073 
L 183.188409 261.615273 
L 184.828079 262.884557 
L 186.467748 260.470168 
L 188.107417 260.002025 
L 189.747087 257.961939 
L 191.386756 259.288534 
L 193.026426 262.505036 
L 194.666095 247.654044 
L 196.305764 264.497716 
L 197.945434 262.621961 
L 199.585103 259.600924 
L 201.224773 262.15718 
L 202.864442 264.170644 
L 204.504112 263.869575 
L 206.143781 264.206907 
L 207.78345 264.012769 
L 209.42312 261.064346 
L 211.062789 263.581331 
L 212.702459 262.966723 
L 214.342128 263.793424 
L 215.981798 264.100507 
L 217.621467 257.84979 
L 219.261136 261.419101 
L 220.900806 263.342528 
L 222.540475 261.425292 
L 224.180145 263.966866 
L 225.819814 253.68745 
L 227.459483 259.612245 
L 229.099153 263.487579 
L 230.738822 262.984677 
L 232.378492 264.12023 
L 234.018161 263.904511 
L 235.657831 263.968635 
L 237.2975 262.694664 
L 238.937169 264.049562 
L 240.576839 264.372212 
L 242.216508 264.084587 
L 243.856178 262.401732 
L 245.495847 264.639937 
L 248.775186 262.020354 
L 250.414855 263.442737 
L 252.054525 264.229018 
L 253.694194 263.897082 
L 255.333864 264.273772 
L 256.973533 264.442968 
L 258.613202 264.068313 
L 260.252872 264.583066 
L 263.532211 264.203988 
L 265.17188 263.577351 
L 266.81155 263.902035 
L 268.451219 264.513725 
L 270.090888 263.843838 
L 271.730558 263.865861 
L 273.370227 264.13332 
L 275.009897 264.583155 
L 276.649566 261.542483 
L 279.928905 264.027893 
L 281.568574 263.778653 
L 283.208244 263.383832 
L 284.847913 264.20275 
L 288.127252 263.345181 
L 289.766921 263.881516 
L 291.406591 261.376647 
L 293.04626 264.513194 
L 294.68593 263.032968 
L 296.325599 264.292699 
L 297.965269 264.11227 
L 299.604938 264.048678 
L 301.244607 262.930018 
L 302.884277 264.648516 
L 304.523946 264.559186 
L 306.163616 263.017313 
L 307.803285 264.573868 
L 309.442955 264.181258 
L 311.082624 262.195565 
L 312.722293 261.22001 
L 314.361963 263.108324 
L 316.001632 264.442172 
L 317.641302 264.107583 
L 319.280971 264.173209 
L 320.92064 262.734641 
L 322.56031 264.441995 
L 324.199979 264.12536 
L 325.839649 261.082831 
L 327.479318 264.437662 
L 329.118988 264.537517 
L 330.758657 264.352931 
L 332.398326 263.675968 
L 334.037996 263.770251 
L 335.677665 264.100684 
L 337.317335 253.355691 
L 338.957004 263.823937 
L 342.236343 264.587931 
L 343.876012 264.464461 
L 345.515682 264.183469 
L 347.155351 263.733811 
L 348.795021 264.445887 
L 350.43469 259.870949 
L 352.07436 264.551314 
L 353.714029 264.500104 
L 355.353698 263.623343 
L 356.993368 263.387193 
L 358.633037 264.493559 
L 361.912376 264.493117 
L 363.552045 261.696201 
L 365.191715 263.520215 
L 366.831384 263.95351 
L 368.471054 264.088832 
L 371.750393 257.267464 
L 373.390062 262.082178 
L 375.029731 259.477808 
L 376.669401 264.076803 
L 378.30907 261.216295 
L 379.94874 263.971819 
L 381.588409 264.271119 
L 383.228079 264.449248 
L 386.507417 264.328166 
L 388.147087 263.435131 
L 389.786756 258.263892 
L 391.426426 263.848172 
L 393.066095 263.666681 
L 393.066095 263.666681 
" style="fill:none;stroke:#ff7f0e;stroke-linecap:square;stroke-width:0.5;"/>
   </g>
   <g id="line2d_18">
    <path clip-path="url(#p864e44ba0b)" d="M 74.970227 264.412632 
L 76.609897 264.246088 
L 78.249566 263.147505 
L 79.889236 264.340814 
L 81.528905 264.358237 
L 83.168574 263.426551 
L 84.808244 263.791389 
L 86.447913 264.387867 
L 88.087583 264.562016 
L 89.727252 263.924323 
L 91.366921 263.510663 
L 93.006591 263.266995 
L 94.64626 262.66185 
L 96.28593 263.973764 
L 97.925599 262.873766 
L 99.565269 264.236006 
L 101.204938 264.613668 
L 104.484277 264.164807 
L 106.123946 264.075654 
L 107.763616 263.723198 
L 109.403285 264.302694 
L 111.042955 263.252402 
L 112.682624 264.613668 
L 114.322293 264.632419 
L 115.961963 263.969961 
L 117.601632 263.169971 
L 119.241302 264.329227 
L 122.52064 264.364694 
L 124.16031 263.355087 
L 125.799979 264.247769 
L 127.439649 264.31596 
L 129.079318 263.123006 
L 130.718988 264.554852 
L 132.358657 263.648284 
L 133.998326 264.629677 
L 137.277665 264.022409 
L 138.917335 264.237863 
L 140.557004 263.784845 
L 142.196674 264.501254 
L 143.836343 264.16578 
L 145.476012 264.363102 
L 147.115682 263.335718 
L 148.755351 264.384506 
L 150.395021 264.303224 
L 152.03469 264.060264 
L 153.67436 263.367381 
L 155.314029 263.378172 
L 156.953698 264.618091 
L 158.593368 262.111188 
L 160.233037 264.309239 
L 161.872707 264.117931 
L 163.512376 263.420095 
L 165.152045 264.172236 
L 166.791715 264.166134 
L 168.431384 263.494478 
L 170.071054 264.417319 
L 171.710723 264.656476 
L 173.350393 264.398126 
L 174.990062 264.328608 
L 176.629731 262.907552 
L 178.269401 264.063625 
L 183.188409 263.942189 
L 184.828079 264.555029 
L 186.467748 264.392024 
L 188.107417 263.902035 
L 189.747087 264.014449 
L 191.386756 264.372123 
L 193.026426 264.342494 
L 194.666095 263.306177 
L 196.305764 263.851533 
L 197.945434 263.48183 
L 199.585103 263.779538 
L 201.224773 263.498723 
L 202.864442 262.647257 
L 204.504112 264.614022 
L 206.143781 264.020375 
L 207.78345 264.129959 
L 209.42312 263.674199 
L 211.062789 264.569888 
L 212.702459 264.481088 
L 214.342128 264.52195 
L 215.981798 262.727477 
L 217.621467 264.621098 
L 219.261136 264.334622 
L 220.900806 262.91852 
L 222.540475 264.356911 
L 224.180145 264.133674 
L 225.819814 264.218493 
L 227.459483 264.572895 
L 229.099153 263.24453 
L 230.738822 264.062122 
L 232.378492 262.953102 
L 234.018161 264.388132 
L 235.657831 264.555206 
L 237.2975 262.487259 
L 240.576839 264.66647 
L 242.216508 264.171794 
L 245.495847 264.29323 
L 247.135517 263.123094 
L 248.775186 262.622669 
L 250.414855 264.447391 
L 252.054525 261.98648 
L 253.694194 264.166841 
L 255.333864 264.620302 
L 258.613202 264.674342 
L 260.252872 263.292379 
L 261.892541 263.343324 
L 263.532211 264.422184 
L 265.17188 263.378348 
L 268.451219 263.704447 
L 271.730558 264.346828 
L 273.370227 263.969254 
L 275.009897 263.010149 
L 276.649566 264.595095 
L 278.289236 263.529148 
L 279.928905 264.299952 
L 281.568574 264.35523 
L 283.208244 263.966777 
L 284.847913 264.450309 
L 286.487583 263.366939 
L 288.127252 264.284916 
L 289.766921 263.356149 
L 293.04626 263.87842 
L 294.68593 264.053896 
L 297.965269 264.64374 
L 299.604938 263.598313 
L 301.244607 264.253606 
L 302.884277 264.061768 
L 304.523946 264.150832 
L 306.163616 264.574752 
L 307.803285 264.232291 
L 309.442955 264.0133 
L 311.082624 262.887121 
L 312.722293 264.12651 
L 314.361963 263.895578 
L 317.641302 264.688317 
L 319.280971 264.402195 
L 320.92064 259.489306 
L 322.56031 260.557464 
L 324.199979 264.328874 
L 325.839649 264.415904 
L 327.479318 264.325424 
L 329.118988 264.432974 
L 330.758657 264.053277 
L 332.398326 264.480735 
L 334.037996 263.086566 
L 335.677665 264.100772 
L 337.317335 264.010558 
L 338.957004 264.211152 
L 340.596674 264.232645 
L 342.236343 264.529203 
L 343.876012 264.534244 
L 345.515682 260.694466 
L 347.155351 263.084621 
L 348.795021 263.951388 
L 350.43469 264.494798 
L 353.714029 264.391051 
L 355.353698 264.552287 
L 356.993368 264.217697 
L 358.633037 264.222827 
L 360.272707 263.963151 
L 361.912376 263.154935 
L 363.552045 262.689092 
L 365.191715 263.811644 
L 366.831384 263.446894 
L 368.471054 264.030016 
L 370.110723 263.986412 
L 371.750393 264.565377 
L 373.390062 264.449071 
L 375.029731 264.506738 
L 376.669401 264.329935 
L 378.30907 263.904335 
L 379.94874 264.459065 
L 381.588409 264.292611 
L 383.228079 263.723905 
L 384.867748 264.61526 
L 386.507417 263.754861 
L 388.147087 264.066278 
L 389.786756 264.584304 
L 391.426426 264.386098 
L 393.066095 264.000033 
L 396.345434 263.745575 
L 397.985103 264.417761 
L 397.985103 264.417761 
" style="fill:none;stroke:#2ca02c;stroke-linecap:square;stroke-width:0.5;"/>
   </g>
   <g id="line2d_19">
    <path clip-path="url(#p864e44ba0b)" d="M 74.970227 263.555593 
L 76.609897 263.448574 
L 78.249566 260.641399 
L 79.889236 262.312579 
L 81.528905 263.814739 
L 83.168574 257.397125 
L 84.808244 263.707278 
L 88.087583 264.296502 
L 89.727252 262.731988 
L 91.366921 264.248388 
L 93.006591 264.312688 
L 94.64626 263.807044 
L 96.28593 253.193747 
L 97.925599 225.659564 
L 99.565269 261.220983 
L 101.204938 264.114393 
L 102.844607 255.837386 
L 104.484277 264.141015 
L 106.123946 264.40759 
L 107.763616 260.533672 
L 109.403285 264.114128 
L 111.042955 264.381499 
L 112.682624 264.014538 
L 114.322293 264.449867 
L 117.601632 263.301135 
L 119.241302 264.447833 
L 122.52064 264.49922 
L 124.16031 264.218582 
L 127.439649 263.946523 
L 130.718988 263.999679 
L 132.358657 252.803525 
L 133.998326 264.190987 
L 135.637996 262.518922 
L 137.277665 264.266431 
L 138.917335 264.333296 
L 140.557004 262.114549 
L 142.196674 263.300516 
L 143.836343 263.173331 
L 145.476012 264.286862 
L 147.115682 263.294325 
L 148.755351 264.242462 
L 150.395021 263.96094 
L 152.03469 264.548661 
L 153.67436 263.589733 
L 155.314029 264.573868 
L 156.953698 264.534952 
L 158.593368 263.420537 
L 160.233037 264.622513 
L 161.872707 264.073177 
L 163.512376 263.946258 
L 165.152045 264.166664 
L 166.791715 263.353761 
L 168.431384 262.878188 
L 170.071054 262.074572 
L 171.710723 264.618002 
L 173.350393 264.47304 
L 174.990062 264.037976 
L 176.629731 264.399895 
L 178.269401 263.917601 
L 179.90907 263.009884 
L 183.188409 264.186653 
L 184.828079 264.562812 
L 186.467748 264.294468 
L 188.107417 263.584781 
L 189.747087 259.821331 
L 191.386756 264.157466 
L 193.026426 264.611811 
L 194.666095 262.11791 
L 196.305764 262.847232 
L 197.945434 262.751357 
L 199.585103 264.594476 
L 201.224773 264.559009 
L 202.864442 263.601939 
L 204.504112 263.533482 
L 206.143781 263.962886 
L 207.78345 263.452377 
L 209.42312 263.502172 
L 211.062789 264.589081 
L 212.702459 263.338813 
L 214.342128 264.339841 
L 215.981798 263.37313 
L 217.621467 263.209152 
L 219.261136 263.412488 
L 220.900806 264.009054 
L 222.540475 263.577705 
L 224.180145 264.519828 
L 225.819814 264.418823 
L 227.459483 263.098241 
L 229.099153 263.357564 
L 230.738822 264.236006 
L 232.378492 263.965627 
L 234.018161 260.303094 
L 235.657831 264.365844 
L 237.2975 263.828979 
L 240.576839 264.506649 
L 242.216508 264.646305 
L 243.856178 263.556036 
L 245.495847 263.950592 
L 247.135517 263.981901 
L 248.775186 264.21752 
L 252.054525 263.485545 
L 253.694194 256.4466 
L 255.333864 259.543169 
L 256.973533 264.343379 
L 258.613202 263.052957 
L 260.252872 264.523277 
L 261.892541 263.989861 
L 263.532211 263.911676 
L 265.17188 264.64259 
L 266.81155 263.992338 
L 268.451219 264.007993 
L 270.090888 264.241401 
L 271.730558 264.061149 
L 273.370227 260.976961 
L 275.009897 263.997114 
L 276.649566 264.428198 
L 278.289236 263.210302 
L 279.928905 261.046391 
L 281.568574 264.143934 
L 283.208244 264.001448 
L 284.847913 264.128456 
L 286.487583 263.994991 
L 288.127252 264.12023 
L 289.766921 260.301856 
L 291.406591 263.462195 
L 293.04626 264.039922 
L 294.68593 263.539762 
L 296.325599 263.689942 
L 297.965269 263.40161 
L 299.604938 264.096969 
L 302.884277 264.380172 
L 304.523946 263.453969 
L 306.163616 264.571038 
L 307.803285 264.184265 
L 309.442955 264.356645 
L 311.082624 264.212302 
L 312.722293 264.23008 
L 314.361963 263.842334 
L 317.641302 264.034969 
L 319.280971 264.530972 
L 320.92064 263.359244 
L 322.56031 264.29836 
L 324.199979 264.66364 
L 325.839649 259.902524 
L 325.839649 259.902524 
" style="fill:none;stroke:#d62728;stroke-linecap:square;stroke-width:0.5;"/>
   </g>
   <g id="line2d_20">
    <path clip-path="url(#p864e44ba0b)" d="M 74.970227 264.2039 
L 76.609897 255.766541 
L 78.249566 264.654796 
L 79.889236 252.034578 
L 81.528905 264.716 
L 83.168574 264.349393 
L 84.808244 259.822038 
L 86.447913 264.522127 
L 88.087583 258.730796 
L 89.727252 259.039472 
L 91.366921 262.835735 
L 93.006591 263.850825 
L 94.64626 263.464583 
L 96.28593 261.836299 
L 97.925599 264.27501 
L 99.565269 264.553437 
L 101.204938 264.606416 
L 102.844607 263.062598 
L 104.484277 264.527699 
L 106.123946 262.926038 
L 107.763616 261.674444 
L 111.042955 264.556621 
L 112.682624 264.666913 
L 114.322293 263.482803 
L 115.961963 263.022709 
L 117.601632 264.365225 
L 119.241302 259.876344 
L 120.880971 263.09205 
L 122.52064 262.284453 
L 124.16031 260.920091 
L 125.799979 264.040629 
L 127.439649 263.093554 
L 129.079318 263.404882 
L 130.718988 262.934971 
L 132.358657 264.342494 
L 133.998326 264.011619 
L 135.637996 262.808759 
L 137.277665 264.460657 
L 138.917335 264.261743 
L 140.557004 264.324982 
L 143.836343 264.658157 
L 145.476012 262.904987 
L 147.115682 262.753038 
L 148.755351 263.260274 
L 150.395021 264.579175 
L 152.03469 260.861098 
L 153.67436 259.809302 
L 155.314029 264.342052 
L 156.953698 263.379587 
L 158.593368 264.597571 
L 160.233037 262.275608 
L 161.872707 264.220174 
L 163.512376 264.257498 
L 165.152045 243.07203 
L 166.791715 263.358714 
L 168.431384 264.199212 
L 170.071054 264.128367 
L 171.710723 263.716211 
L 173.350393 264.155078 
L 174.990062 264.377342 
L 176.629731 263.980044 
L 178.269401 262.528032 
L 179.90907 264.099003 
L 181.54874 262.339112 
L 183.188409 264.365136 
L 184.828079 261.635439 
L 186.467748 264.343202 
L 188.107417 263.869664 
L 189.747087 262.906845 
L 191.386756 264.443587 
L 193.026426 264.030193 
L 194.666095 263.807752 
L 196.305764 264.620302 
L 197.945434 263.878155 
L 199.585103 264.285358 
L 201.224773 262.89517 
L 202.864442 264.122176 
L 204.504112 263.007319 
L 206.143781 263.453262 
L 207.78345 263.250545 
L 209.42312 262.344242 
L 211.062789 264.006047 
L 212.702459 263.117965 
L 214.342128 263.835966 
L 215.981798 263.220827 
L 217.621467 264.446064 
L 220.900806 262.595693 
L 222.540475 263.246122 
L 224.180145 264.33816 
L 225.819814 263.083294 
L 227.459483 263.296094 
L 229.099153 264.42466 
L 230.738822 262.744636 
L 232.378492 263.032172 
L 234.018161 261.712652 
L 235.657831 263.638821 
L 237.2975 264.126952 
L 238.937169 264.347359 
L 242.216508 262.343358 
L 243.856178 261.736444 
L 245.495847 264.36947 
L 247.135517 263.838177 
L 248.775186 264.14924 
L 250.414855 264.017456 
L 252.054525 263.05163 
L 253.694194 263.459011 
L 255.333864 264.17144 
L 256.973533 263.876651 
L 258.613202 263.138395 
L 260.252872 264.328962 
L 261.892541 263.294414 
L 263.532211 264.091662 
L 265.17188 263.537108 
L 266.81155 264.448629 
L 268.451219 259.528753 
L 270.090888 260.790253 
L 271.730558 263.837204 
L 273.370227 262.918785 
L 275.009897 263.771666 
L 276.649566 263.834462 
L 278.289236 264.306674 
L 279.928905 264.130755 
L 281.568574 263.722048 
L 283.208244 261.775095 
L 284.847913 261.725742 
L 286.487583 264.69265 
L 288.127252 263.019348 
L 289.766921 263.053045 
L 291.406591 264.063271 
L 293.04626 262.635847 
L 294.68593 261.423966 
L 296.325599 261.644018 
L 297.965269 259.467902 
L 299.604938 263.792716 
L 301.244607 263.297774 
L 302.884277 262.296835 
L 304.523946 264.021702 
L 306.163616 264.619329 
L 307.803285 262.809555 
L 309.442955 263.929276 
L 311.082624 262.121801 
L 312.722293 262.812385 
L 314.361963 262.506451 
L 316.001632 264.619506 
L 317.641302 263.69233 
L 319.280971 262.469835 
L 320.92064 263.840211 
L 322.56031 264.328874 
L 324.199979 263.209064 
L 325.839649 263.42036 
L 327.479318 263.838708 
L 329.118988 262.731103 
L 330.758657 263.809079 
L 332.398326 262.437464 
L 334.037996 262.927364 
L 335.677665 264.330466 
L 337.317335 262.448962 
L 338.957004 264.604559 
L 340.596674 256.590855 
L 342.236343 255.730367 
L 343.876012 264.065659 
L 345.515682 264.613226 
L 347.155351 263.54383 
L 348.795021 264.335507 
L 350.43469 263.416645 
L 352.07436 264.031254 
L 353.714029 253.740606 
L 355.353698 263.616621 
L 356.993368 262.181414 
L 358.633037 264.567058 
L 360.272707 264.499308 
L 361.912376 264.10546 
L 363.552045 264.562016 
L 365.191715 264.322682 
L 366.831384 263.778211 
L 368.471054 262.314171 
L 370.110723 264.166134 
L 371.750393 263.619186 
L 373.390062 264.186388 
L 376.669401 264.13279 
L 378.30907 261.830992 
L 379.94874 263.657041 
L 381.588409 264.469767 
L 383.228079 264.602613 
L 386.507417 264.170821 
L 388.147087 261.942522 
L 389.786756 264.236625 
L 391.426426 264.311361 
L 393.066095 264.01215 
L 394.705764 263.090723 
L 396.345434 264.011177 
L 397.985103 264.304993 
L 397.985103 264.304993 
" style="fill:none;stroke:#9467bd;stroke-linecap:square;stroke-width:0.5;"/>
   </g>
   <g id="line2d_21">
    <path clip-path="url(#p864e44ba0b)" d="M 74.970227 260.219159 
L 76.609897 258.687104 
L 78.249566 263.462018 
L 79.889236 263.226753 
L 81.528905 262.737471 
L 83.168574 264.38026 
L 84.808244 264.588727 
L 86.447913 261.168535 
L 88.087583 264.053277 
L 89.727252 264.053012 
L 91.366921 264.435627 
L 93.006591 264.203723 
L 94.64626 260.993943 
L 96.28593 264.195763 
L 97.925599 262.410046 
L 99.565269 263.003604 
L 101.204938 264.200362 
L 102.844607 264.640025 
L 104.484277 262.444097 
L 106.123946 264.328431 
L 107.763616 264.377076 
L 109.403285 263.179611 
L 111.042955 263.13132 
L 112.682624 264.401576 
L 114.322293 263.685432 
L 115.961963 262.554831 
L 117.601632 262.831754 
L 119.241302 264.526726 
L 120.880971 263.675437 
L 122.52064 262.583576 
L 124.16031 263.933522 
L 125.799979 261.083627 
L 127.439649 263.126544 
L 129.079318 262.233243 
L 130.718988 264.427579 
L 132.358657 264.05823 
L 135.637996 262.916397 
L 137.277665 261.53408 
L 138.917335 264.594122 
L 140.557004 263.942543 
L 142.196674 256.57405 
L 143.836343 262.626914 
L 145.476012 263.920697 
L 147.115682 264.125979 
L 148.755351 263.077899 
L 150.395021 262.636997 
L 152.03469 263.91654 
L 153.67436 262.700236 
L 155.314029 263.706039 
L 156.953698 264.154636 
L 158.593368 264.099092 
L 160.233037 261.557872 
L 161.872707 264.341963 
L 163.512376 264.362394 
L 165.152045 262.480625 
L 166.791715 263.938475 
L 168.431384 262.131796 
L 170.071054 262.521045 
L 171.710723 263.035179 
L 173.350393 261.472964 
L 174.990062 264.121026 
L 176.629731 261.956231 
L 179.90907 264.31543 
L 181.54874 264.543 
L 183.188409 263.144321 
L 184.828079 264.172679 
L 186.467748 264.112093 
L 188.107417 263.413108 
L 189.747087 264.368674 
L 191.386756 263.168821 
L 193.026426 264.198328 
L 194.666095 262.849178 
L 196.305764 263.878332 
L 197.945434 264.434212 
L 199.585103 261.645522 
L 201.224773 262.945938 
L 202.864442 264.442349 
L 204.504112 262.436756 
L 206.143781 264.458004 
L 207.78345 262.16116 
L 209.42312 263.457419 
L 211.062789 263.966777 
L 212.702459 262.862887 
L 214.342128 264.481884 
L 215.981798 263.934937 
L 217.621467 262.82176 
L 219.261136 264.174801 
L 220.900806 263.352965 
L 222.540475 264.244408 
L 224.180145 264.421122 
L 225.819814 263.288222 
L 227.459483 264.250688 
L 229.099153 263.989685 
L 230.738822 258.986404 
L 232.378492 264.28182 
L 234.018161 263.901416 
L 235.657831 263.637052 
L 237.2975 260.346167 
L 238.937169 263.505179 
L 240.576839 264.5652 
L 242.216508 261.589978 
L 243.856178 262.874385 
L 245.495847 263.412931 
L 247.135517 262.977336 
L 248.775186 262.052902 
L 250.414855 263.361721 
L 252.054525 264.459773 
L 253.694194 264.239367 
L 255.333864 264.678322 
L 256.973533 262.079701 
L 258.613202 263.188986 
L 260.252872 263.850648 
L 261.892541 262.665831 
L 263.532211 263.886999 
L 265.17188 260.336173 
L 266.81155 264.42466 
L 268.451219 264.049916 
L 270.090888 264.323832 
L 271.730558 263.555328 
L 273.370227 263.715149 
L 276.649566 263.647046 
L 278.289236 262.919758 
L 279.928905 264.305612 
L 283.208244 262.805132 
L 284.847913 262.496811 
L 286.487583 261.296162 
L 288.127252 263.292468 
L 289.766921 264.056903 
L 291.406591 263.272037 
L 293.04626 263.063836 
L 294.68593 263.322009 
L 296.325599 264.470563 
L 297.965269 264.141457 
L 299.604938 264.395473 
L 301.244607 264.521331 
L 302.884277 262.291971 
L 304.523946 263.074095 
L 306.163616 263.229583 
L 307.803285 262.116053 
L 309.442955 263.483864 
L 311.082624 263.872494 
L 312.722293 262.819461 
L 314.361963 262.832639 
L 316.001632 263.420714 
L 317.641302 264.128014 
L 319.280971 264.47021 
L 322.56031 264.071674 
L 324.199979 264.408475 
L 325.839649 263.940243 
L 327.479318 264.101834 
L 329.118988 262.501764 
L 330.758657 263.753269 
L 332.398326 263.96094 
L 334.037996 262.073245 
L 335.677665 264.097588 
L 337.317335 263.661463 
L 338.957004 263.634575 
L 340.596674 262.84166 
L 342.236343 263.864711 
L 343.876012 263.939182 
L 345.515682 263.606892 
L 347.155351 262.409515 
L 348.795021 264.196382 
L 350.43469 262.742955 
L 352.07436 263.870195 
L 353.714029 263.616975 
L 355.353698 262.797084 
L 356.993368 263.179965 
L 358.633037 263.182707 
L 360.272707 262.592863 
L 361.912376 264.226365 
L 361.912376 264.226365 
" style="fill:none;stroke:#8c564b;stroke-linecap:square;stroke-width:0.5;"/>
   </g>
   <g id="line2d_22">
    <path clip-path="url(#p864e44ba0b)" d="M 74.970227 263.115046 
L 76.609897 263.280528 
L 78.249566 262.515208 
L 79.889236 261.879991 
L 81.528905 263.575317 
L 83.168574 257.846517 
L 84.808244 264.364429 
L 86.447913 259.080953 
L 88.087583 264.231672 
L 89.727252 264.287923 
L 91.366921 263.927419 
L 93.006591 263.004489 
L 94.64626 263.787321 
L 96.28593 261.322961 
L 97.925599 247.475472 
L 99.565269 260.929908 
L 101.204938 263.808548 
L 102.844607 263.458038 
L 104.484277 264.431028 
L 106.123946 262.403147 
L 107.763616 261.549647 
L 109.403285 243.851059 
L 111.042955 260.712951 
L 112.682624 264.18851 
L 114.322293 264.069816 
L 115.961963 260.796798 
L 117.601632 260.988636 
L 119.241302 264.352754 
L 120.880971 257.199803 
L 122.52064 262.786205 
L 124.16031 259.610742 
L 125.799979 263.992692 
L 127.439649 263.592918 
L 129.079318 260.579487 
L 130.718988 262.716952 
L 132.358657 262.991487 
L 133.998326 263.945639 
L 135.637996 264.363721 
L 137.277665 262.770462 
L 138.917335 263.085328 
L 140.557004 263.749466 
L 142.196674 263.197566 
L 143.836343 261.852219 
L 145.476012 261.543986 
L 147.115682 263.034826 
L 148.755351 263.206587 
L 150.395021 263.502968 
L 152.03469 263.605565 
L 153.67436 260.670055 
L 155.314029 264.353904 
L 158.593368 255.554891 
L 160.233037 263.937944 
L 161.872707 264.041425 
L 163.512376 264.447568 
L 165.152045 252.81007 
L 166.791715 263.335364 
L 168.431384 264.14756 
L 170.071054 229.768305 
L 171.710723 258.437688 
L 173.350393 262.036009 
L 174.990062 256.356562 
L 176.629731 263.894429 
L 178.269401 263.978806 
L 179.90907 263.793866 
L 181.54874 262.052106 
L 183.188409 257.661754 
L 184.828079 263.490497 
L 186.467748 262.948237 
L 188.107417 263.569037 
L 189.747087 263.532244 
L 191.386756 263.232767 
L 193.026426 263.406297 
L 194.666095 259.362652 
L 197.945434 254.51141 
L 199.585103 247.377386 
L 201.224773 257.704827 
L 202.864442 263.667477 
L 204.504112 263.355353 
L 206.143781 264.042133 
L 207.78345 263.543123 
L 209.42312 264.250864 
L 211.062789 263.461664 
L 214.342128 264.442261 
L 215.981798 263.105494 
L 217.621467 263.526406 
L 219.261136 264.137477 
L 220.900806 263.630507 
L 222.540475 264.045494 
L 224.180145 261.118386 
L 225.819814 264.602082 
L 227.459483 263.398072 
L 229.099153 263.01183 
L 230.738822 264.474543 
L 232.378492 261.379566 
L 234.018161 264.515759 
L 235.657831 261.689214 
L 237.2975 261.316681 
L 238.937169 264.268111 
L 240.576839 258.929003 
L 242.216508 256.996466 
L 243.856178 264.684867 
L 245.495847 249.735965 
L 247.135517 264.24998 
L 248.775186 259.58978 
L 250.414855 262.745078 
L 252.054525 254.801246 
L 253.694194 251.674163 
L 255.333864 263.747874 
L 256.973533 260.906293 
L 258.613202 255.662529 
L 260.252872 263.857458 
L 261.892541 259.881032 
L 263.532211 263.014483 
L 265.17188 256.204347 
L 266.81155 252.950875 
L 268.451219 261.002257 
L 270.090888 263.354733 
L 271.730558 259.184522 
L 273.370227 261.64791 
L 275.009897 252.298854 
L 276.649566 264.451105 
L 278.289236 263.733104 
L 279.928905 263.886822 
L 281.568574 262.693249 
L 283.208244 263.34978 
L 284.847913 263.313518 
L 286.487583 264.128986 
L 288.127252 257.546775 
L 289.766921 264.345324 
L 291.406591 264.6318 
L 293.04626 263.695957 
L 294.68593 261.847178 
L 296.325599 244.084025 
L 297.965269 264.552729 
L 299.604938 264.473128 
L 301.244607 264.015245 
L 302.884277 264.572099 
L 304.523946 264.651877 
L 306.163616 260.657673 
L 307.803285 264.638787 
L 309.442955 263.605477 
L 311.082624 264.599694 
L 312.722293 264.240782 
L 314.361963 263.426198 
L 316.001632 264.53619 
L 317.641302 261.148811 
L 319.280971 261.740336 
L 320.92064 263.829598 
L 322.56031 264.402283 
L 324.199979 264.285447 
L 325.839649 261.508696 
L 327.479318 264.113066 
L 329.118988 262.046888 
L 330.758657 263.502172 
L 332.398326 260.762835 
L 334.037996 263.862058 
L 335.677665 262.278439 
L 337.317335 264.554852 
L 338.957004 259.049112 
L 340.596674 264.213806 
L 342.236343 263.69295 
L 343.876012 264.228665 
L 345.515682 212.374854 
L 347.155351 256.122712 
L 348.795021 248.004731 
L 350.43469 255.488468 
L 352.07436 258.196939 
L 353.714029 262.160275 
L 355.353698 231.639903 
L 356.993368 262.726327 
L 360.272707 264.482415 
L 361.912376 257.522452 
L 363.552045 262.415795 
L 365.191715 264.072116 
L 366.831384 259.311796 
L 368.471054 263.772551 
L 370.110723 264.656918 
L 371.750393 252.430373 
L 373.390062 264.371504 
L 375.029731 264.335861 
L 376.669401 263.935556 
L 378.30907 259.606939 
L 379.94874 256.574581 
L 381.588409 256.167554 
L 384.867748 263.257532 
L 386.507417 263.245503 
L 388.147087 251.273504 
L 389.786756 264.109086 
L 391.426426 263.174216 
L 393.066095 261.907852 
L 394.705764 262.632929 
L 394.705764 262.632929 
" style="fill:none;stroke:#e377c2;stroke-linecap:square;stroke-width:0.5;"/>
   </g>
   <g id="line2d_23">
    <path clip-path="url(#p864e44ba0b)" d="M 74.970227 264.593149 
L 76.609897 264.612076 
L 78.249566 264.101303 
L 79.889236 264.062387 
L 81.528905 264.136947 
L 83.168574 263.662966 
L 84.808244 263.933522 
L 86.447913 264.455085 
L 89.727252 264.502846 
L 91.366921 263.828006 
L 93.006591 264.204254 
L 94.64626 264.409536 
L 96.28593 264.296768 
L 97.925599 263.97686 
L 99.565269 264.38884 
L 101.204938 264.444207 
L 102.844607 264.187537 
L 104.484277 264.177012 
L 106.123946 264.496301 
L 107.763616 264.277664 
L 109.403285 264.519474 
L 111.042955 264.511248 
L 112.682624 264.101126 
L 115.961963 264.474013 
L 117.601632 263.553294 
L 120.880971 263.745575 
L 122.52064 264.640821 
L 124.16031 264.085206 
L 125.799979 264.10431 
L 127.439649 264.665674 
L 129.079318 264.354434 
L 138.917335 264.313838 
L 142.196674 263.405501 
L 143.836343 264.427579 
L 147.115682 264.489225 
L 150.395021 264.340991 
L 153.67436 264.28014 
L 155.314029 264.439519 
L 156.953698 264.440492 
L 158.593368 264.272887 
L 160.233037 263.675879 
L 161.872707 264.520005 
L 163.512376 263.681009 
L 165.152045 264.408917 
L 166.791715 264.606681 
L 168.431384 264.326309 
L 170.071054 263.762468 
L 173.350393 264.379376 
L 174.990062 264.518678 
L 176.629731 264.431117 
L 178.269401 264.523365 
L 179.90907 264.311627 
L 181.54874 264.412189 
L 183.188409 264.221589 
L 184.828079 264.581916 
L 186.467748 264.561839 
L 188.107417 263.868779 
L 189.747087 264.259532 
L 191.386756 263.698698 
L 193.026426 264.12368 
L 194.666095 263.396214 
L 196.305764 264.105195 
L 197.945434 263.800588 
L 199.585103 264.558213 
L 201.224773 264.30632 
L 206.143781 264.132436 
L 207.78345 264.477197 
L 209.42312 264.035146 
L 211.062789 264.616941 
L 212.702459 264.504173 
L 214.342128 264.56352 
L 215.981798 263.950238 
L 219.261136 264.340814 
L 220.900806 264.343998 
L 222.540475 264.489491 
L 224.180145 264.430409 
L 225.819814 264.57431 
L 229.099153 264.202396 
L 230.738822 264.558036 
L 232.378492 264.410597 
L 234.018161 263.803241 
L 235.657831 263.973587 
L 237.2975 263.490409 
L 240.576839 264.552641 
L 242.216508 264.356115 
L 243.856178 263.658367 
L 245.495847 264.428906 
L 247.135517 264.51346 
L 248.775186 264.225657 
L 250.414855 264.547511 
L 252.054525 263.988446 
L 253.694194 264.264131 
L 255.333864 264.158616 
L 256.973533 264.565023 
L 258.613202 264.574575 
L 261.892541 264.16463 
L 263.532211 264.031254 
L 265.17188 264.211241 
L 268.451219 264.008347 
L 270.090888 264.453847 
L 278.289236 264.558213 
L 279.928905 263.689323 
L 281.568574 264.337807 
L 283.208244 263.849675 
L 284.847913 264.287127 
L 286.487583 264.519562 
L 288.127252 264.149506 
L 289.766921 264.225038 
L 291.406591 264.117488 
L 293.04626 264.569534 
L 294.68593 264.446506 
L 296.325599 264.082818 
L 297.965269 262.962742 
L 299.604938 263.704713 
L 302.884277 264.378757 
L 304.523946 264.358591 
L 306.163616 263.55975 
L 307.803285 263.88921 
L 309.442955 264.447302 
L 312.722293 264.263512 
L 314.361963 264.38371 
L 316.001632 264.371947 
L 317.641302 264.533271 
L 319.280971 264.489579 
L 320.92064 263.755569 
L 322.56031 264.285712 
L 324.199979 264.395473 
L 325.839649 263.852329 
L 327.479318 263.801384 
L 330.758657 264.637018 
L 332.398326 264.328785 
L 334.037996 264.213983 
L 335.677665 263.783076 
L 337.317335 264.528938 
L 338.957004 264.223889 
L 342.236343 264.44403 
L 343.876012 263.304054 
L 345.515682 264.291726 
L 347.155351 264.19364 
L 348.795021 264.456147 
L 350.43469 264.416523 
L 352.07436 264.004897 
L 353.714029 264.622159 
L 355.353698 264.137831 
L 356.993368 264.401487 
L 358.633037 263.802268 
L 361.912376 264.421653 
L 365.191715 263.813059 
L 366.831384 263.883904 
L 368.471054 264.419707 
L 370.110723 264.070701 
L 371.750393 264.3524 
L 375.029731 264.371593 
L 378.30907 264.524161 
L 379.94874 264.330731 
L 381.588409 263.917159 
L 383.228079 264.496478 
L 384.867748 264.185061 
L 386.507417 263.617682 
L 388.147087 264.391139 
L 389.786756 264.560247 
L 393.066095 263.781926 
L 394.705764 264.521243 
L 396.345434 263.912295 
L 397.985103 264.42466 
L 399.624773 264.294026 
L 399.624773 264.294026 
" style="fill:none;stroke:#7f7f7f;stroke-linecap:square;stroke-width:0.5;"/>
   </g>
   <g id="line2d_24">
    <path clip-path="url(#p864e44ba0b)" d="M 74.970227 264.513636 
L 76.609897 264.248211 
L 78.249566 262.712353 
L 79.889236 264.525753 
L 81.528905 262.572786 
L 83.168574 264.178781 
L 84.808244 222.06531 
L 86.447913 263.515704 
L 88.087583 264.393527 
L 89.727252 264.388132 
L 91.366921 264.67275 
L 93.006591 264.21584 
L 94.64626 264.451724 
L 96.28593 263.030934 
L 97.925599 264.549368 
L 99.565269 264.266166 
L 101.204938 264.295353 
L 102.844607 264.464726 
L 104.484277 264.304639 
L 106.123946 264.561574 
L 107.763616 263.590706 
L 109.403285 263.748582 
L 111.042955 264.429702 
L 112.682624 263.48979 
L 114.322293 263.67641 
L 115.961963 263.700025 
L 117.601632 263.465998 
L 119.241302 264.220793 
L 122.52064 263.810052 
L 124.16031 264.482769 
L 125.799979 263.925473 
L 127.439649 263.650761 
L 129.079318 264.13332 
L 130.718988 263.879658 
L 133.998326 264.278725 
L 135.637996 263.909995 
L 137.277665 264.556886 
L 138.917335 261.914927 
L 140.557004 255.315646 
L 142.196674 260.064822 
L 143.836343 264.118815 
L 145.476012 264.20045 
L 147.115682 264.618621 
L 148.755351 263.659075 
L 150.395021 263.897259 
L 152.03469 264.540347 
L 153.67436 264.290488 
L 155.314029 263.869133 
L 156.953698 264.198858 
L 158.593368 264.339575 
L 160.233037 264.272887 
L 161.872707 264.382383 
L 163.512376 263.975533 
L 166.791715 264.570507 
L 168.431384 263.822257 
L 170.071054 264.180904 
L 171.710723 264.298271 
L 173.350393 264.264839 
L 174.990062 264.491613 
L 176.629731 264.235121 
L 178.269401 263.271241 
L 181.54874 264.463488 
L 183.188409 263.537285 
L 184.828079 264.59766 
L 186.467748 264.428552 
L 188.107417 263.852152 
L 189.747087 264.256437 
L 191.386756 264.133497 
L 193.026426 263.673315 
L 194.666095 264.054692 
L 196.305764 264.153221 
L 197.945434 263.098772 
L 199.585103 262.831843 
L 201.224773 264.349304 
L 202.864442 264.319321 
L 204.504112 263.89832 
L 206.143781 264.380614 
L 207.78345 263.889033 
L 209.42312 264.091662 
L 211.062789 263.729389 
L 212.702459 263.485898 
L 214.342128 264.097588 
L 215.981798 263.609368 
L 217.621467 264.564581 
L 219.261136 263.656333 
L 220.900806 264.37575 
L 222.540475 258.832951 
L 224.180145 262.546606 
L 225.819814 264.187626 
L 227.459483 263.828714 
L 229.099153 264.428286 
L 230.738822 261.968967 
L 232.378492 258.635275 
L 234.018161 258.246557 
L 235.657831 264.327812 
L 237.2975 264.050093 
L 238.937169 264.715912 
L 240.576839 260.648651 
L 242.216508 259.617464 
L 243.856178 262.859173 
L 245.495847 263.759991 
L 247.135517 264.371151 
L 248.775186 256.372836 
L 250.414855 260.963518 
L 252.054525 264.589611 
L 253.694194 264.335684 
L 255.333864 263.819073 
L 258.613202 264.608185 
L 260.252872 264.639229 
L 261.892541 264.426694 
L 263.532211 259.640725 
L 265.17188 264.121999 
L 266.81155 264.634188 
L 268.451219 263.905219 
L 270.090888 264.255552 
L 271.730558 263.278051 
L 273.370227 264.443764 
L 276.649566 264.546273 
L 278.289236 263.341024 
L 279.928905 263.930603 
L 281.568574 264.327901 
L 283.208244 262.981316 
L 284.847913 264.378492 
L 286.487583 263.696399 
L 288.127252 264.310123 
L 289.766921 264.604647 
L 291.406591 262.928691 
L 293.04626 264.089097 
L 294.68593 263.328996 
L 296.325599 263.637848 
L 297.965269 264.340637 
L 299.604938 264.577936 
L 301.244607 264.022144 
L 302.884277 263.62803 
L 304.523946 264.485776 
L 306.163616 263.886822 
L 307.803285 264.34842 
L 309.442955 263.963505 
L 312.722293 264.250068 
L 314.361963 263.886026 
L 316.001632 261.725742 
L 317.641302 263.278405 
L 319.280971 264.584128 
L 320.92064 264.505057 
L 324.199979 263.572487 
L 325.839649 263.885496 
L 327.479318 264.345324 
L 329.118988 263.909995 
L 330.758657 264.28695 
L 332.398326 263.857105 
L 335.677665 264.466495 
L 338.957004 263.639263 
L 340.596674 263.845341 
L 342.236343 262.102078 
L 343.876012 264.326751 
L 347.155351 263.456092 
L 348.795021 263.544538 
L 350.43469 264.391581 
L 352.07436 262.762855 
L 353.714029 264.221235 
L 355.353698 264.461011 
L 356.993368 264.579175 
L 358.633037 263.828625 
L 360.272707 264.02126 
L 363.552045 263.787586 
L 365.191715 264.443411 
L 366.831384 261.606429 
L 368.471054 264.615526 
L 371.750393 264.535836 
L 373.390062 263.251694 
L 375.029731 262.47868 
L 376.669401 264.3524 
L 378.30907 264.077511 
L 379.94874 263.303612 
L 381.588409 263.2417 
L 381.588409 263.2417 
" style="fill:none;stroke:#bcbd22;stroke-linecap:square;stroke-width:0.5;"/>
   </g>
   <g id="line2d_25">
    <path clip-path="url(#p864e44ba0b)" d="M 74.970227 262.829809 
L 76.609897 261.382219 
L 78.249566 263.222153 
L 79.889236 263.024124 
L 81.528905 259.163738 
L 83.168574 261.360904 
L 84.808244 260.773006 
L 86.447913 258.961728 
L 88.087583 264.127483 
L 89.727252 264.313042 
L 91.366921 263.091696 
L 93.006591 264.624813 
L 94.64626 259.622947 
L 96.28593 263.819515 
L 97.925599 263.581331 
L 99.565269 262.326199 
L 101.204938 22.796 
L 102.844607 264.184796 
L 104.484277 263.713469 
L 106.123946 264.512664 
L 107.763616 264.452078 
L 109.403285 262.357951 
L 111.042955 261.633847 
L 112.682624 217.630735 
L 114.322293 264.272091 
L 115.961963 261.992406 
L 117.601632 258.684451 
L 119.241302 246.595438 
L 120.880971 264.057345 
L 122.52064 260.244366 
L 124.16031 243.7719 
L 125.799979 264.368232 
L 127.439649 260.253034 
L 129.079318 263.274513 
L 130.718988 264.388044 
L 132.358657 261.919792 
L 133.998326 261.398051 
L 135.637996 261.556811 
L 137.277665 264.62552 
L 138.917335 261.756786 
L 140.557004 264.496743 
L 142.196674 264.715912 
L 143.836343 252.407377 
L 145.476012 249.916571 
L 147.115682 241.715805 
L 148.755351 259.391308 
L 150.395021 243.818422 
L 152.03469 264.12253 
L 153.67436 264.715912 
L 156.953698 264.657007 
L 158.593368 264.343379 
L 160.233037 262.088015 
L 161.872707 264.218759 
L 163.512376 264.191606 
L 165.152045 262.200518 
L 166.791715 257.596924 
L 168.431384 255.574968 
L 170.071054 261.541333 
L 171.710723 262.769577 
L 173.350393 261.247605 
L 174.990062 262.262253 
L 176.629731 255.908585 
L 178.269401 234.254267 
L 179.90907 246.52362 
L 181.54874 263.824822 
L 183.188409 259.770032 
L 184.828079 255.297691 
L 186.467748 264.510099 
L 188.107417 262.23059 
L 189.747087 263.924235 
L 191.386756 263.900708 
L 193.026426 251.338158 
L 194.666095 262.915778 
L 196.305764 251.669386 
L 197.945434 236.271358 
L 199.585103 204.098821 
L 201.224773 255.914422 
L 202.864442 261.971444 
L 204.504112 252.572593 
L 206.143781 263.706835 
L 209.42312 264.189483 
L 211.062789 264.567411 
L 212.702459 259.799308 
L 214.342128 256.114663 
L 215.981798 263.70887 
L 217.621467 250.419473 
L 219.261136 257.062093 
L 220.900806 263.211452 
L 222.540475 262.82919 
L 224.180145 253.854966 
L 225.819814 256.815595 
L 227.459483 264.582005 
L 229.099153 241.364499 
L 230.738822 263.500757 
L 232.378492 262.995821 
L 234.018161 263.594686 
L 235.657831 261.440151 
L 237.2975 263.677648 
L 238.937169 259.772509 
L 240.576839 263.123713 
L 242.216508 264.454378 
L 243.856178 254.04592 
L 245.495847 261.446785 
L 247.135517 264.518236 
L 248.775186 264.017545 
L 250.414855 222.812145 
L 252.054525 263.505975 
L 253.694194 263.57116 
L 255.333864 264.416258 
L 256.973533 264.219466 
L 258.613202 253.679844 
L 260.252872 261.759528 
L 261.892541 263.239843 
L 263.532211 261.03109 
L 265.17188 257.48672 
L 266.81155 263.658102 
L 268.451219 263.992957 
L 270.090888 259.503723 
L 271.730558 263.903892 
L 273.370227 263.728505 
L 275.009897 253.597589 
L 276.649566 261.857791 
L 278.289236 261.088757 
L 279.928905 262.989453 
L 281.568574 263.388431 
L 283.208244 259.958687 
L 284.847913 259.129332 
L 286.487583 261.211785 
L 288.127252 262.908614 
L 289.766921 255.276818 
L 291.406591 264.473924 
L 293.04626 255.762738 
L 294.68593 263.842246 
L 296.325599 256.975593 
L 297.965269 261.039758 
L 299.604938 261.620315 
L 301.244607 258.053657 
L 302.884277 257.938501 
L 304.523946 263.435927 
L 306.163616 262.302319 
L 307.803285 251.751641 
L 309.442955 263.737261 
L 311.082624 264.536544 
L 312.722293 264.253429 
L 314.361963 264.15835 
L 316.001632 263.516677 
L 317.641302 262.491416 
L 319.280971 264.663375 
L 320.92064 256.173037 
L 322.56031 263.877712 
L 324.199979 254.44083 
L 325.839649 260.519344 
L 327.479318 235.90139 
L 329.118988 252.022196 
L 330.758657 264.261124 
L 332.398326 258.826583 
L 334.037996 262.922057 
L 335.677665 264.707155 
L 337.317335 264.512221 
L 338.957004 256.909701 
L 340.596674 264.451105 
L 342.236343 264.305435 
L 343.876012 263.741329 
L 345.515682 264.713081 
L 347.155351 264.224773 
L 348.795021 240.095304 
L 350.43469 264.715646 
L 352.07436 251.668502 
L 353.714029 255.492272 
L 355.353698 254.705902 
L 356.993368 263.324573 
L 358.633037 263.348896 
L 360.272707 262.299577 
L 361.912376 260.427714 
L 363.552045 252.677401 
L 365.191715 262.720225 
L 366.831384 263.553648 
L 368.471054 263.604592 
L 370.110723 254.592691 
L 371.750393 264.17259 
L 373.390062 264.033554 
L 375.029731 255.804661 
L 376.669401 264.530883 
L 378.30907 260.071809 
L 379.94874 262.93444 
L 383.228079 257.774345 
L 384.867748 262.304972 
L 386.507417 263.013599 
L 388.147087 250.12663 
L 389.786756 258.838523 
L 391.426426 260.457078 
L 393.066095 254.657256 
L 394.705764 264.090159 
L 396.345434 259.780469 
L 397.985103 257.202456 
L 399.624773 264.021967 
L 399.624773 264.021967 
" style="fill:none;stroke:#17becf;stroke-linecap:square;stroke-width:0.5;"/>
   </g>
   <g id="line2d_26">
    <path clip-path="url(#p864e44ba0b)" d="M 74.970227 259.501777 
L 76.609897 263.792893 
L 78.249566 262.268975 
L 79.889236 264.105637 
L 81.528905 263.595925 
L 83.168574 264.101745 
L 84.808244 264.215752 
L 86.447913 262.854573 
L 88.087583 260.715339 
L 89.727252 263.611226 
L 91.366921 264.099003 
L 93.006591 263.831986 
L 94.64626 264.168787 
L 96.28593 264.336126 
L 97.925599 261.620226 
L 99.565269 264.536544 
L 101.204938 264.524161 
L 102.844607 263.256559 
L 104.484277 260.080388 
L 106.123946 253.079298 
L 107.763616 262.643188 
L 109.403285 262.334336 
L 111.042955 264.64604 
L 112.682624 261.56539 
L 114.322293 264.110501 
L 115.961963 246.681938 
L 117.601632 263.308653 
L 119.241302 260.716047 
L 120.880971 263.404528 
L 122.52064 261.176318 
L 124.16031 262.01549 
L 125.799979 258.554436 
L 127.439649 263.397453 
L 129.079318 264.595979 
L 130.718988 260.433994 
L 132.358657 252.362093 
L 133.998326 256.102723 
L 135.637996 262.819284 
L 137.277665 263.793954 
L 138.917335 264.066278 
L 140.557004 264.038595 
L 142.196674 261.865132 
L 143.836343 251.163654 
L 145.476012 264.389636 
L 147.115682 263.850294 
L 148.755351 263.690208 
L 150.395021 264.346916 
L 152.03469 264.177543 
L 153.67436 264.29491 
L 155.314029 264.575283 
L 156.953698 263.658367 
L 158.593368 264.067428 
L 160.233037 264.347536 
L 161.872707 264.492763 
L 163.512376 263.182264 
L 165.152045 263.012449 
L 166.791715 264.383356 
L 168.431384 262.098806 
L 170.071054 262.211043 
L 171.710723 260.962191 
L 173.350393 261.296692 
L 174.990062 263.988181 
L 176.629731 264.156758 
L 178.269401 263.56037 
L 179.90907 263.95466 
L 181.54874 263.706039 
L 183.188409 264.049562 
L 184.828079 263.774673 
L 186.467748 263.676499 
L 188.107417 262.395718 
L 189.747087 263.291672 
L 191.386756 263.944047 
L 193.026426 262.550586 
L 194.666095 261.843375 
L 196.305764 264.144641 
L 197.945434 260.431959 
L 199.585103 264.18683 
L 201.224773 264.479408 
L 202.864442 264.592972 
L 206.143781 264.642679 
L 207.78345 264.090689 
L 209.42312 264.04514 
L 211.062789 263.626615 
L 212.702459 264.07813 
L 214.342128 264.045494 
L 215.981798 263.754242 
L 217.621467 264.188864 
L 219.261136 262.565003 
L 220.900806 263.528618 
L 222.540475 264.119081 
L 224.180145 262.515208 
L 225.819814 264.567854 
L 227.459483 264.337718 
L 229.099153 263.516235 
L 230.738822 263.06472 
L 232.378492 263.060917 
L 234.018161 260.954938 
L 235.657831 264.320471 
L 237.2975 262.526529 
L 238.937169 263.618478 
L 240.576839 264.283501 
L 242.216508 262.353706 
L 243.856178 263.925738 
L 245.495847 264.059203 
L 247.135517 262.748969 
L 248.775186 261.752895 
L 250.414855 264.597218 
L 252.054525 263.761053 
L 253.694194 259.736423 
L 255.333864 263.856839 
L 256.973533 263.931841 
L 258.613202 259.819827 
L 260.252872 264.107052 
L 261.892541 262.656632 
L 263.532211 261.846293 
L 265.17188 264.529114 
L 266.81155 264.477816 
L 268.451219 261.211519 
L 270.090888 262.436049 
L 271.730558 264.378668 
L 273.370227 264.407413 
L 275.009897 261.832231 
L 276.649566 262.169208 
L 278.289236 264.522304 
L 279.928905 260.713836 
L 281.568574 264.249096 
L 283.208244 262.52874 
L 284.847913 264.331704 
L 286.487583 264.336303 
L 288.127252 264.517793 
L 289.766921 263.428497 
L 291.406591 264.002332 
L 293.04626 263.468651 
L 294.68593 264.235121 
L 296.325599 264.151982 
L 297.965269 262.847232 
L 301.244607 264.449956 
L 302.884277 263.73505 
L 304.523946 263.427966 
L 306.163616 264.640114 
L 307.803285 264.110855 
L 309.442955 257.12259 
L 311.082624 263.652884 
L 312.722293 263.738234 
L 314.361963 257.061474 
L 316.001632 264.398038 
L 317.641302 264.177455 
L 319.280971 260.982799 
L 322.56031 263.678621 
L 324.199979 259.339568 
L 325.839649 264.131463 
L 327.479318 264.613668 
L 329.118988 263.792097 
L 330.758657 264.057611 
L 332.398326 264.47419 
L 334.037996 262.524318 
L 335.677665 264.66479 
L 337.317335 264.624193 
L 338.957004 263.595748 
L 340.596674 264.668062 
L 342.236343 264.454643 
L 343.876012 264.054427 
L 347.155351 264.62782 
L 348.795021 263.65421 
L 350.43469 264.674431 
L 352.07436 263.969961 
L 353.714029 263.656333 
L 355.353698 258.61051 
L 356.993368 263.79537 
L 360.272707 264.202927 
L 363.552045 263.437253 
L 365.191715 264.327016 
L 366.831384 263.258062 
L 368.471054 264.228488 
L 370.110723 262.10482 
L 371.750393 264.131198 
L 373.390062 264.467645 
L 375.029731 264.129782 
L 378.30907 264.140307 
L 379.94874 264.585366 
L 381.588409 264.247504 
L 383.228079 263.594863 
L 384.867748 264.293495 
L 386.507417 263.775027 
L 388.147087 263.949265 
L 389.786756 263.004754 
L 391.426426 263.92335 
L 393.066095 263.72647 
L 394.705764 264.235121 
L 394.705764 264.235121 
" style="fill:none;stroke:#1f77b4;stroke-linecap:square;stroke-width:0.5;"/>
   </g>
   <g id="line2d_27">
    <path clip-path="url(#p864e44ba0b)" d="M 74.970227 264.555471 
L 76.609897 264.485688 
L 78.249566 263.482184 
L 79.889236 264.382383 
L 81.528905 264.641352 
L 83.168574 264.257852 
L 84.808244 264.33816 
L 86.447913 263.790063 
L 88.087583 264.522481 
L 89.727252 264.013653 
L 91.366921 261.8095 
L 93.006591 264.199654 
L 94.64626 264.446595 
L 97.925599 264.422626 
L 99.565269 263.987385 
L 101.204938 264.158262 
L 102.844607 264.528849 
L 104.484277 264.56007 
L 106.123946 263.808194 
L 107.763616 264.540435 
L 109.403285 264.105725 
L 111.042955 264.42811 
L 112.682624 263.097268 
L 114.322293 263.452997 
L 115.961963 263.932018 
L 117.601632 264.012238 
L 119.241302 264.476578 
L 120.880971 264.336126 
L 122.52064 264.422095 
L 124.16031 263.287249 
L 125.799979 263.470686 
L 127.439649 264.17091 
L 130.718988 263.865065 
L 132.358657 264.207172 
L 133.998326 264.337718 
L 135.637996 264.148533 
L 137.277665 261.406365 
L 138.917335 263.836851 
L 140.557004 263.806779 
L 142.196674 264.537605 
L 143.836343 263.374457 
L 145.476012 264.415639 
L 147.115682 264.359476 
L 148.755351 262.384927 
L 150.395021 262.155765 
L 152.03469 263.754242 
L 153.67436 263.336867 
L 155.314029 263.410454 
L 158.593368 264.618091 
L 160.233037 263.840919 
L 161.872707 264.324097 
L 163.512376 263.401344 
L 165.152045 264.515936 
L 166.791715 263.058441 
L 168.431384 262.518038 
L 171.710723 260.577453 
L 173.350393 263.664558 
L 174.990062 261.482251 
L 176.629731 264.149417 
L 178.269401 261.788273 
L 179.90907 261.29342 
L 181.54874 264.044167 
L 183.188409 262.807874 
L 184.828079 262.747289 
L 186.467748 263.740799 
L 188.107417 263.603619 
L 189.747087 264.486837 
L 191.386756 263.781572 
L 193.026426 262.529005 
L 194.666095 264.112182 
L 196.305764 261.79411 
L 197.945434 264.467645 
L 199.585103 264.291284 
L 201.224773 263.85852 
L 202.864442 264.120407 
L 204.504112 262.324519 
L 206.143781 261.313674 
L 207.78345 258.177923 
L 209.42312 264.05593 
L 211.062789 262.815304 
L 212.702459 264.374069 
L 214.342128 264.444472 
L 215.981798 263.607334 
L 217.621467 263.854274 
L 219.261136 262.550674 
L 220.900806 263.172093 
L 222.540475 263.664116 
L 224.180145 264.024001 
L 225.819814 264.525134 
L 227.459483 264.277575 
L 229.099153 263.704536 
L 230.738822 264.080076 
L 232.378492 264.151717 
L 234.018161 263.355264 
L 235.657831 263.544892 
L 237.2975 264.18055 
L 238.937169 261.818345 
L 240.576839 264.332588 
L 242.216508 264.135001 
L 243.856178 263.684989 
L 245.495847 264.544062 
L 247.135517 263.796342 
L 248.775186 259.0316 
L 250.414855 264.115808 
L 252.054525 264.157643 
L 253.694194 264.557594 
L 255.333864 264.13332 
L 256.973533 264.5453 
L 258.613202 263.827564 
L 260.252872 264.051066 
L 261.892541 261.462528 
L 263.532211 263.693392 
L 265.17188 264.405379 
L 266.81155 264.320206 
L 268.451219 263.417176 
L 270.090888 263.242408 
L 271.730558 264.176835 
L 273.370227 263.757869 
L 275.009897 264.477374 
L 276.649566 264.460038 
L 278.289236 264.249361 
L 279.928905 262.642039 
L 281.568574 263.724259 
L 283.208244 263.138838 
L 284.847913 263.21835 
L 286.487583 263.454058 
L 288.127252 263.930514 
L 289.766921 262.576235 
L 291.406591 263.804833 
L 293.04626 263.014041 
L 294.68593 263.411073 
L 296.325599 264.319675 
L 297.965269 263.994638 
L 299.604938 263.345977 
L 301.244607 264.096615 
L 302.884277 264.125183 
L 304.523946 264.476666 
L 306.163616 264.046378 
L 307.803285 264.175243 
L 309.442955 264.51514 
L 311.082624 264.028689 
L 312.722293 260.408168 
L 314.361963 264.475516 
L 316.001632 263.878508 
L 317.641302 264.416965 
L 319.280971 264.593768 
L 320.92064 262.665919 
L 322.56031 264.016395 
L 324.199979 264.200627 
L 325.839649 262.24934 
L 327.479318 262.608872 
L 329.118988 264.536278 
L 330.758657 262.824148 
L 332.398326 263.802534 
L 334.037996 263.503941 
L 335.677665 263.394976 
L 337.317335 263.924677 
L 338.957004 264.643563 
L 340.596674 264.578998 
L 342.236343 263.877978 
L 343.876012 263.714796 
L 345.515682 264.20673 
L 347.155351 264.53451 
L 348.795021 264.559805 
L 350.43469 263.338813 
L 352.07436 263.439995 
L 353.714029 264.566704 
L 355.353698 263.490144 
L 356.993368 264.075035 
L 358.633037 264.221058 
L 360.272707 263.150689 
L 361.912376 264.095377 
L 363.552045 264.242727 
L 365.191715 264.035323 
L 366.831384 262.999536 
L 368.471054 264.394766 
L 370.110723 263.446275 
L 371.750393 263.478292 
L 373.390062 264.126775 
L 375.029731 264.142607 
L 376.669401 264.495505 
L 378.30907 263.289284 
L 379.94874 263.999325 
L 381.588409 263.448397 
L 383.228079 262.348753 
L 384.867748 264.647012 
L 388.147087 262.484075 
L 389.786756 264.231053 
L 389.786756 264.231053 
" style="fill:none;stroke:#ff7f0e;stroke-linecap:square;stroke-width:0.5;"/>
   </g>
   <g id="line2d_28">
    <path clip-path="url(#p864e44ba0b)" d="M 74.970227 262.492742 
L 76.609897 262.790716 
L 78.249566 263.513847 
L 79.889236 261.25928 
L 81.528905 263.681982 
L 83.168574 264.321267 
L 86.447913 263.305558 
L 88.087583 264.254137 
L 89.727252 264.18002 
L 93.006591 263.821019 
L 94.64626 263.829333 
L 96.28593 262.791689 
L 97.925599 264.239809 
L 101.204938 257.772223 
L 102.844607 262.120829 
L 104.484277 262.035036 
L 106.123946 262.848028 
L 107.763616 262.377498 
L 109.403285 260.815725 
L 111.042955 263.717891 
L 112.682624 264.440227 
L 117.601632 263.592387 
L 119.241302 264.074858 
L 120.880971 263.697637 
L 122.52064 264.294468 
L 124.16031 263.002631 
L 125.799979 264.507003 
L 127.439649 264.468529 
L 129.079318 263.97173 
L 130.718988 263.65368 
L 132.358657 264.177366 
L 133.998326 264.280405 
L 135.637996 263.832517 
L 137.277665 263.769986 
L 138.917335 264.204254 
L 142.196674 264.236183 
L 143.836343 263.056495 
L 145.476012 263.916894 
L 147.115682 263.432566 
L 148.755351 264.000652 
L 150.395021 264.420415 
L 152.03469 264.259532 
L 153.67436 263.93989 
L 155.314029 263.798288 
L 156.953698 264.211418 
L 158.593368 264.38141 
L 160.233037 263.424605 
L 161.872707 263.934318 
L 163.512376 263.794308 
L 165.152045 264.495505 
L 166.791715 264.464018 
L 168.431384 264.144464 
L 170.071054 264.304816 
L 171.710723 264.156316 
L 173.350393 263.301931 
L 174.990062 264.336303 
L 176.629731 264.518059 
L 178.269401 264.075388 
L 181.54874 264.568561 
L 183.188409 263.670927 
L 184.828079 264.504792 
L 186.467748 263.952803 
L 188.107417 264.340371 
L 189.747087 262.391914 
L 191.386756 264.20275 
L 193.026426 262.472665 
L 194.666095 263.897878 
L 196.305764 264.306939 
L 197.945434 264.406087 
L 199.585103 264.117488 
L 201.224773 264.580059 
L 202.864442 264.184353 
L 204.504112 264.265193 
L 206.143781 264.222473 
L 207.78345 263.528264 
L 209.42312 264.267138 
L 211.062789 264.480912 
L 212.702459 264.186476 
L 214.342128 264.581209 
L 215.981798 263.772993 
L 217.621467 264.385036 
L 219.261136 264.296237 
L 220.900806 264.355584 
L 222.540475 263.525876 
L 224.180145 264.228222 
L 225.819814 264.068313 
L 227.459483 263.282916 
L 229.099153 264.268996 
L 232.378492 263.899735 
L 234.018161 264.339399 
L 235.657831 264.450398 
L 237.2975 264.349039 
L 238.937169 264.614376 
L 240.576839 263.995699 
L 242.216508 263.903981 
L 243.856178 263.331914 
L 247.135517 264.415639 
L 248.775186 264.170202 
L 250.414855 262.829632 
L 252.054525 264.203104 
L 253.694194 264.513548 
L 255.333864 263.939801 
L 258.613202 263.822788 
L 260.252872 263.079314 
L 261.892541 264.432443 
L 263.532211 263.655802 
L 265.17188 264.491613 
L 266.81155 263.736199 
L 268.451219 263.407801 
L 270.090888 264.361598 
L 271.730558 264.587135 
L 273.370227 264.182142 
L 275.009897 264.17489 
L 276.649566 264.423422 
L 278.289236 263.940155 
L 279.928905 263.609811 
L 281.568574 264.046555 
L 283.208244 263.749201 
L 284.847913 264.524781 
L 286.487583 263.580535 
L 288.127252 263.028015 
L 289.766921 264.414843 
L 291.406591 264.473571 
L 293.04626 264.153132 
L 294.68593 264.16065 
L 296.325599 264.334357 
L 297.965269 263.335541 
L 299.604938 264.263424 
L 301.244607 262.663089 
L 302.884277 264.056638 
L 304.523946 264.486837 
L 306.163616 264.148887 
L 307.803285 264.425102 
L 309.442955 263.91654 
L 311.082624 262.306564 
L 312.722293 264.20275 
L 314.361963 264.147472 
L 316.001632 263.600966 
L 317.641302 264.365932 
L 319.280971 264.137831 
L 320.92064 264.244585 
L 322.56031 264.174005 
L 324.199979 263.873555 
L 325.839649 263.142199 
L 327.479318 260.123373 
L 329.118988 262.381389 
L 330.758657 262.718279 
L 332.398326 263.346331 
L 334.037996 263.335806 
L 335.677665 263.146975 
L 337.317335 264.095289 
L 338.957004 263.57514 
L 340.596674 264.198151 
L 343.876012 263.364728 
L 347.155351 264.426429 
L 348.795021 264.262539 
L 350.43469 263.884346 
L 352.07436 262.096683 
L 353.714029 263.503234 
L 355.353698 263.84994 
L 356.993368 263.920874 
L 358.633037 264.239013 
L 360.272707 264.036472 
L 361.912376 264.386009 
L 363.552045 264.039922 
L 365.191715 262.618335 
L 366.831384 263.303877 
L 368.471054 264.426606 
L 370.110723 263.527822 
L 371.750393 264.473659 
L 373.390062 264.515405 
L 375.029731 263.291406 
L 376.669401 261.709026 
L 378.30907 263.368443 
L 379.94874 264.030193 
L 381.588409 263.93131 
L 383.228079 264.527345 
L 384.867748 262.742336 
L 386.507417 263.022001 
L 388.147087 263.711435 
L 389.786756 263.85109 
L 393.066095 264.481442 
L 394.705764 264.398126 
L 396.345434 263.947761 
L 397.985103 264.390078 
L 399.624773 264.013388 
L 399.624773 264.013388 
" style="fill:none;stroke:#2ca02c;stroke-linecap:square;stroke-width:0.5;"/>
   </g>
   <g id="patch_3">
    <path d="M 58.7375 276.812 
L 58.7375 10.7 
" style="fill:none;stroke:#000000;stroke-linecap:square;stroke-linejoin:miter;stroke-width:0.8;"/>
   </g>
   <g id="patch_4">
    <path d="M 415.8575 276.812 
L 415.8575 10.7 
" style="fill:none;stroke:#000000;stroke-linecap:square;stroke-linejoin:miter;stroke-width:0.8;"/>
   </g>
   <g id="patch_5">
    <path d="M 58.7375 276.812 
L 415.8575 276.812 
" style="fill:none;stroke:#000000;stroke-linecap:square;stroke-linejoin:miter;stroke-width:0.8;"/>
   </g>
   <g id="patch_6">
    <path d="M 58.7375 10.7 
L 415.8575 10.7 
" style="fill:none;stroke:#000000;stroke-linecap:square;stroke-linejoin:miter;stroke-width:0.8;"/>
   </g>
  </g>
 </g>
 <defs>
  <clipPath id="p864e44ba0b">
   <rect height="266.112" width="357.12" x="58.7375" y="10.7"/>
  </clipPath>
 </defs>
</svg>
