<?xml version="1.0" encoding="utf-8" standalone="no"?>
<!DOCTYPE svg PUBLIC "-//W3C//DTD SVG 1.1//EN"
  "http://www.w3.org/Graphics/SVG/1.1/DTD/svg11.dtd">
<!-- Created with matplotlib (http://matplotlib.org/) -->
<svg height="300pt" version="1.1" viewBox="0 0 426 300" width="426pt" xmlns="http://www.w3.org/2000/svg" xmlns:xlink="http://www.w3.org/1999/xlink">
 <defs>
  <style type="text/css">
*{stroke-linecap:butt;stroke-linejoin:round;}
  </style>
 </defs>
 <g id="figure_1">
  <g id="patch_1">
   <path d="M 0 300.690125 
L 426.5575 300.690125 
L 426.5575 0 
L 0 0 
z
" style="fill:#ffffff;"/>
  </g>
  <g id="axes_1">
   <g id="patch_2">
    <path d="M 58.7375 276.812 
L 415.8575 276.812 
L 415.8575 10.7 
L 58.7375 10.7 
z
" style="fill:#ffffff;"/>
   </g>
   <g id="matplotlib.axis_1">
    <g id="xtick_1">
     <g id="line2d_1">
      <defs>
       <path d="M 0 0 
L 0 3.5 
" id="m9f556706e4" style="stroke:#000000;stroke-width:0.8;"/>
      </defs>
      <g>
       <use style="stroke:#000000;stroke-width:0.8;" x="74.970227" xlink:href="#m9f556706e4" y="276.812"/>
      </g>
     </g>
     <g id="text_1">
      <!-- 0 -->
      <defs>
       <path d="M 31.78125 66.40625 
Q 24.171875 66.40625 20.328125 58.90625 
Q 16.5 51.421875 16.5 36.375 
Q 16.5 21.390625 20.328125 13.890625 
Q 24.171875 6.390625 31.78125 6.390625 
Q 39.453125 6.390625 43.28125 13.890625 
Q 47.125 21.390625 47.125 36.375 
Q 47.125 51.421875 43.28125 58.90625 
Q 39.453125 66.40625 31.78125 66.40625 
M 31.78125 74.21875 
Q 44.046875 74.21875 50.515625 64.515625 
Q 56.984375 54.828125 56.984375 36.375 
Q 56.984375 17.96875 50.515625 8.265625 
Q 44.046875 -1.421875 31.78125 -1.421875 
Q 19.53125 -1.421875 13.0625 8.265625 
Q 6.59375 17.96875 6.59375 36.375 
Q 6.59375 54.828125 13.0625 64.515625 
Q 19.53125 74.21875 31.78125 74.21875 
" id="DejaVuSans-30"/>
      </defs>
      <g transform="translate(71.788977 291.410437)scale(0.1 -0.1)">
       <use xlink:href="#DejaVuSans-30"/>
      </g>
     </g>
    </g>
    <g id="xtick_2">
     <g id="line2d_2">
      <g>
       <use style="stroke:#000000;stroke-width:0.8;" x="115.961963" xlink:href="#m9f556706e4" y="276.812"/>
      </g>
     </g>
     <g id="text_2">
      <!-- 25 -->
      <defs>
       <path d="M 19.1875 8.296875 
L 53.609375 8.296875 
L 53.609375 0 
L 7.328125 0 
L 7.328125 8.296875 
Q 12.9375 14.109375 22.625 23.890625 
Q 32.328125 33.6875 34.8125 36.53125 
Q 39.546875 41.84375 41.421875 45.53125 
Q 43.3125 49.21875 43.3125 52.78125 
Q 43.3125 58.59375 39.234375 62.25 
Q 35.15625 65.921875 28.609375 65.921875 
Q 23.96875 65.921875 18.8125 64.3125 
Q 13.671875 62.703125 7.8125 59.421875 
L 7.8125 69.390625 
Q 13.765625 71.78125 18.9375 73 
Q 24.125 74.21875 28.421875 74.21875 
Q 39.75 74.21875 46.484375 68.546875 
Q 53.21875 62.890625 53.21875 53.421875 
Q 53.21875 48.921875 51.53125 44.890625 
Q 49.859375 40.875 45.40625 35.40625 
Q 44.1875 33.984375 37.640625 27.21875 
Q 31.109375 20.453125 19.1875 8.296875 
" id="DejaVuSans-32"/>
       <path d="M 10.796875 72.90625 
L 49.515625 72.90625 
L 49.515625 64.59375 
L 19.828125 64.59375 
L 19.828125 46.734375 
Q 21.96875 47.46875 24.109375 47.828125 
Q 26.265625 48.1875 28.421875 48.1875 
Q 40.625 48.1875 47.75 41.5 
Q 54.890625 34.8125 54.890625 23.390625 
Q 54.890625 11.625 47.5625 5.09375 
Q 40.234375 -1.421875 26.90625 -1.421875 
Q 22.3125 -1.421875 17.546875 -0.640625 
Q 12.796875 0.140625 7.71875 1.703125 
L 7.71875 11.625 
Q 12.109375 9.234375 16.796875 8.0625 
Q 21.484375 6.890625 26.703125 6.890625 
Q 35.15625 6.890625 40.078125 11.328125 
Q 45.015625 15.765625 45.015625 23.390625 
Q 45.015625 31 40.078125 35.4375 
Q 35.15625 39.890625 26.703125 39.890625 
Q 22.75 39.890625 18.8125 39.015625 
Q 14.890625 38.140625 10.796875 36.28125 
z
" id="DejaVuSans-35"/>
      </defs>
      <g transform="translate(109.599463 291.410437)scale(0.1 -0.1)">
       <use xlink:href="#DejaVuSans-32"/>
       <use x="63.623047" xlink:href="#DejaVuSans-35"/>
      </g>
     </g>
    </g>
    <g id="xtick_3">
     <g id="line2d_3">
      <g>
       <use style="stroke:#000000;stroke-width:0.8;" x="156.953698" xlink:href="#m9f556706e4" y="276.812"/>
      </g>
     </g>
     <g id="text_3">
      <!-- 50 -->
      <g transform="translate(150.591198 291.410437)scale(0.1 -0.1)">
       <use xlink:href="#DejaVuSans-35"/>
       <use x="63.623047" xlink:href="#DejaVuSans-30"/>
      </g>
     </g>
    </g>
    <g id="xtick_4">
     <g id="line2d_4">
      <g>
       <use style="stroke:#000000;stroke-width:0.8;" x="197.945434" xlink:href="#m9f556706e4" y="276.812"/>
      </g>
     </g>
     <g id="text_4">
      <!-- 75 -->
      <defs>
       <path d="M 8.203125 72.90625 
L 55.078125 72.90625 
L 55.078125 68.703125 
L 28.609375 0 
L 18.3125 0 
L 43.21875 64.59375 
L 8.203125 64.59375 
z
" id="DejaVuSans-37"/>
      </defs>
      <g transform="translate(191.582934 291.410437)scale(0.1 -0.1)">
       <use xlink:href="#DejaVuSans-37"/>
       <use x="63.623047" xlink:href="#DejaVuSans-35"/>
      </g>
     </g>
    </g>
    <g id="xtick_5">
     <g id="line2d_5">
      <g>
       <use style="stroke:#000000;stroke-width:0.8;" x="238.937169" xlink:href="#m9f556706e4" y="276.812"/>
      </g>
     </g>
     <g id="text_5">
      <!-- 100 -->
      <defs>
       <path d="M 12.40625 8.296875 
L 28.515625 8.296875 
L 28.515625 63.921875 
L 10.984375 60.40625 
L 10.984375 69.390625 
L 28.421875 72.90625 
L 38.28125 72.90625 
L 38.28125 8.296875 
L 54.390625 8.296875 
L 54.390625 0 
L 12.40625 0 
z
" id="DejaVuSans-31"/>
      </defs>
      <g transform="translate(229.393419 291.410437)scale(0.1 -0.1)">
       <use xlink:href="#DejaVuSans-31"/>
       <use x="63.623047" xlink:href="#DejaVuSans-30"/>
       <use x="127.246094" xlink:href="#DejaVuSans-30"/>
      </g>
     </g>
    </g>
    <g id="xtick_6">
     <g id="line2d_6">
      <g>
       <use style="stroke:#000000;stroke-width:0.8;" x="279.928905" xlink:href="#m9f556706e4" y="276.812"/>
      </g>
     </g>
     <g id="text_6">
      <!-- 125 -->
      <g transform="translate(270.385155 291.410437)scale(0.1 -0.1)">
       <use xlink:href="#DejaVuSans-31"/>
       <use x="63.623047" xlink:href="#DejaVuSans-32"/>
       <use x="127.246094" xlink:href="#DejaVuSans-35"/>
      </g>
     </g>
    </g>
    <g id="xtick_7">
     <g id="line2d_7">
      <g>
       <use style="stroke:#000000;stroke-width:0.8;" x="320.92064" xlink:href="#m9f556706e4" y="276.812"/>
      </g>
     </g>
     <g id="text_7">
      <!-- 150 -->
      <g transform="translate(311.37689 291.410437)scale(0.1 -0.1)">
       <use xlink:href="#DejaVuSans-31"/>
       <use x="63.623047" xlink:href="#DejaVuSans-35"/>
       <use x="127.246094" xlink:href="#DejaVuSans-30"/>
      </g>
     </g>
    </g>
    <g id="xtick_8">
     <g id="line2d_8">
      <g>
       <use style="stroke:#000000;stroke-width:0.8;" x="361.912376" xlink:href="#m9f556706e4" y="276.812"/>
      </g>
     </g>
     <g id="text_8">
      <!-- 175 -->
      <g transform="translate(352.368626 291.410437)scale(0.1 -0.1)">
       <use xlink:href="#DejaVuSans-31"/>
       <use x="63.623047" xlink:href="#DejaVuSans-37"/>
       <use x="127.246094" xlink:href="#DejaVuSans-35"/>
      </g>
     </g>
    </g>
    <g id="xtick_9">
     <g id="line2d_9">
      <g>
       <use style="stroke:#000000;stroke-width:0.8;" x="402.904112" xlink:href="#m9f556706e4" y="276.812"/>
      </g>
     </g>
     <g id="text_9">
      <!-- 200 -->
      <g transform="translate(393.360362 291.410437)scale(0.1 -0.1)">
       <use xlink:href="#DejaVuSans-32"/>
       <use x="63.623047" xlink:href="#DejaVuSans-30"/>
       <use x="127.246094" xlink:href="#DejaVuSans-30"/>
      </g>
     </g>
    </g>
   </g>
   <g id="matplotlib.axis_2">
    <g id="ytick_1">
     <g id="line2d_10">
      <defs>
       <path d="M 0 0 
L -3.5 0 
" id="m9088434329" style="stroke:#000000;stroke-width:0.8;"/>
      </defs>
      <g>
       <use style="stroke:#000000;stroke-width:0.8;" x="58.7375" xlink:href="#m9088434329" y="264.716"/>
      </g>
     </g>
     <g id="text_10">
      <!-- 0 -->
      <g transform="translate(45.375 268.515219)scale(0.1 -0.1)">
       <use xlink:href="#DejaVuSans-30"/>
      </g>
     </g>
    </g>
    <g id="ytick_2">
     <g id="line2d_11">
      <g>
       <use style="stroke:#000000;stroke-width:0.8;" x="58.7375" xlink:href="#m9088434329" y="218.270853"/>
      </g>
     </g>
     <g id="text_11">
      <!-- 200000 -->
      <g transform="translate(13.5625 222.070071)scale(0.1 -0.1)">
       <use xlink:href="#DejaVuSans-32"/>
       <use x="63.623047" xlink:href="#DejaVuSans-30"/>
       <use x="127.246094" xlink:href="#DejaVuSans-30"/>
       <use x="190.869141" xlink:href="#DejaVuSans-30"/>
       <use x="254.492188" xlink:href="#DejaVuSans-30"/>
       <use x="318.115234" xlink:href="#DejaVuSans-30"/>
      </g>
     </g>
    </g>
    <g id="ytick_3">
     <g id="line2d_12">
      <g>
       <use style="stroke:#000000;stroke-width:0.8;" x="58.7375" xlink:href="#m9088434329" y="171.825705"/>
      </g>
     </g>
     <g id="text_12">
      <!-- 400000 -->
      <defs>
       <path d="M 37.796875 64.3125 
L 12.890625 25.390625 
L 37.796875 25.390625 
z
M 35.203125 72.90625 
L 47.609375 72.90625 
L 47.609375 25.390625 
L 58.015625 25.390625 
L 58.015625 17.1875 
L 47.609375 17.1875 
L 47.609375 0 
L 37.796875 0 
L 37.796875 17.1875 
L 4.890625 17.1875 
L 4.890625 26.703125 
z
" id="DejaVuSans-34"/>
      </defs>
      <g transform="translate(13.5625 175.624924)scale(0.1 -0.1)">
       <use xlink:href="#DejaVuSans-34"/>
       <use x="63.623047" xlink:href="#DejaVuSans-30"/>
       <use x="127.246094" xlink:href="#DejaVuSans-30"/>
       <use x="190.869141" xlink:href="#DejaVuSans-30"/>
       <use x="254.492188" xlink:href="#DejaVuSans-30"/>
       <use x="318.115234" xlink:href="#DejaVuSans-30"/>
      </g>
     </g>
    </g>
    <g id="ytick_4">
     <g id="line2d_13">
      <g>
       <use style="stroke:#000000;stroke-width:0.8;" x="58.7375" xlink:href="#m9088434329" y="125.380558"/>
      </g>
     </g>
     <g id="text_13">
      <!-- 600000 -->
      <defs>
       <path d="M 33.015625 40.375 
Q 26.375 40.375 22.484375 35.828125 
Q 18.609375 31.296875 18.609375 23.390625 
Q 18.609375 15.53125 22.484375 10.953125 
Q 26.375 6.390625 33.015625 6.390625 
Q 39.65625 6.390625 43.53125 10.953125 
Q 47.40625 15.53125 47.40625 23.390625 
Q 47.40625 31.296875 43.53125 35.828125 
Q 39.65625 40.375 33.015625 40.375 
M 52.59375 71.296875 
L 52.59375 62.3125 
Q 48.875 64.0625 45.09375 64.984375 
Q 41.3125 65.921875 37.59375 65.921875 
Q 27.828125 65.921875 22.671875 59.328125 
Q 17.53125 52.734375 16.796875 39.40625 
Q 19.671875 43.65625 24.015625 45.921875 
Q 28.375 48.1875 33.59375 48.1875 
Q 44.578125 48.1875 50.953125 41.515625 
Q 57.328125 34.859375 57.328125 23.390625 
Q 57.328125 12.15625 50.6875 5.359375 
Q 44.046875 -1.421875 33.015625 -1.421875 
Q 20.359375 -1.421875 13.671875 8.265625 
Q 6.984375 17.96875 6.984375 36.375 
Q 6.984375 53.65625 15.1875 63.9375 
Q 23.390625 74.21875 37.203125 74.21875 
Q 40.921875 74.21875 44.703125 73.484375 
Q 48.484375 72.75 52.59375 71.296875 
" id="DejaVuSans-36"/>
      </defs>
      <g transform="translate(13.5625 129.179777)scale(0.1 -0.1)">
       <use xlink:href="#DejaVuSans-36"/>
       <use x="63.623047" xlink:href="#DejaVuSans-30"/>
       <use x="127.246094" xlink:href="#DejaVuSans-30"/>
       <use x="190.869141" xlink:href="#DejaVuSans-30"/>
       <use x="254.492188" xlink:href="#DejaVuSans-30"/>
       <use x="318.115234" xlink:href="#DejaVuSans-30"/>
      </g>
     </g>
    </g>
    <g id="ytick_5">
     <g id="line2d_14">
      <g>
       <use style="stroke:#000000;stroke-width:0.8;" x="58.7375" xlink:href="#m9088434329" y="78.935411"/>
      </g>
     </g>
     <g id="text_14">
      <!-- 800000 -->
      <defs>
       <path d="M 31.78125 34.625 
Q 24.75 34.625 20.71875 30.859375 
Q 16.703125 27.09375 16.703125 20.515625 
Q 16.703125 13.921875 20.71875 10.15625 
Q 24.75 6.390625 31.78125 6.390625 
Q 38.8125 6.390625 42.859375 10.171875 
Q 46.921875 13.96875 46.921875 20.515625 
Q 46.921875 27.09375 42.890625 30.859375 
Q 38.875 34.625 31.78125 34.625 
M 21.921875 38.8125 
Q 15.578125 40.375 12.03125 44.71875 
Q 8.5 49.078125 8.5 55.328125 
Q 8.5 64.0625 14.71875 69.140625 
Q 20.953125 74.21875 31.78125 74.21875 
Q 42.671875 74.21875 48.875 69.140625 
Q 55.078125 64.0625 55.078125 55.328125 
Q 55.078125 49.078125 51.53125 44.71875 
Q 48 40.375 41.703125 38.8125 
Q 48.828125 37.15625 52.796875 32.3125 
Q 56.78125 27.484375 56.78125 20.515625 
Q 56.78125 9.90625 50.3125 4.234375 
Q 43.84375 -1.421875 31.78125 -1.421875 
Q 19.734375 -1.421875 13.25 4.234375 
Q 6.78125 9.90625 6.78125 20.515625 
Q 6.78125 27.484375 10.78125 32.3125 
Q 14.796875 37.15625 21.921875 38.8125 
M 18.3125 54.390625 
Q 18.3125 48.734375 21.84375 45.5625 
Q 25.390625 42.390625 31.78125 42.390625 
Q 38.140625 42.390625 41.71875 45.5625 
Q 45.3125 48.734375 45.3125 54.390625 
Q 45.3125 60.0625 41.71875 63.234375 
Q 38.140625 66.40625 31.78125 66.40625 
Q 25.390625 66.40625 21.84375 63.234375 
Q 18.3125 60.0625 18.3125 54.390625 
" id="DejaVuSans-38"/>
      </defs>
      <g transform="translate(13.5625 82.734629)scale(0.1 -0.1)">
       <use xlink:href="#DejaVuSans-38"/>
       <use x="63.623047" xlink:href="#DejaVuSans-30"/>
       <use x="127.246094" xlink:href="#DejaVuSans-30"/>
       <use x="190.869141" xlink:href="#DejaVuSans-30"/>
       <use x="254.492188" xlink:href="#DejaVuSans-30"/>
       <use x="318.115234" xlink:href="#DejaVuSans-30"/>
      </g>
     </g>
    </g>
    <g id="ytick_6">
     <g id="line2d_15">
      <g>
       <use style="stroke:#000000;stroke-width:0.8;" x="58.7375" xlink:href="#m9088434329" y="32.490263"/>
      </g>
     </g>
     <g id="text_15">
      <!-- 1000000 -->
      <g transform="translate(7.2 36.289482)scale(0.1 -0.1)">
       <use xlink:href="#DejaVuSans-31"/>
       <use x="63.623047" xlink:href="#DejaVuSans-30"/>
       <use x="127.246094" xlink:href="#DejaVuSans-30"/>
       <use x="190.869141" xlink:href="#DejaVuSans-30"/>
       <use x="254.492188" xlink:href="#DejaVuSans-30"/>
       <use x="318.115234" xlink:href="#DejaVuSans-30"/>
       <use x="381.738281" xlink:href="#DejaVuSans-30"/>
      </g>
     </g>
    </g>
   </g>
   <g id="line2d_16">
    <path clip-path="url(#p644385624b)" d="M 74.970227 264.379505 
L 76.609897 264.402727 
L 79.889236 263.325665 
L 81.528905 262.46759 
L 83.168574 263.536525 
L 84.808244 262.138062 
L 86.447913 262.318734 
L 88.087583 259.28842 
L 89.727252 261.167591 
L 91.366921 261.935561 
L 93.006591 263.523289 
L 94.64626 262.002674 
L 96.28593 262.07629 
L 97.925599 263.52445 
L 99.565269 263.201192 
L 101.204938 263.792903 
L 102.844607 263.459891 
L 104.484277 262.181721 
L 106.123946 263.759694 
L 107.763616 263.968001 
L 109.403285 262.787365 
L 111.042955 262.297369 
L 112.682624 263.688633 
L 114.322293 262.526576 
L 115.961963 264.374628 
L 117.601632 262.874914 
L 119.241302 263.715107 
L 120.880971 263.086936 
L 122.52064 264.503746 
L 124.16031 263.91784 
L 125.799979 261.84987 
L 127.439649 264.446618 
L 129.079318 263.40346 
L 130.718988 264.350709 
L 132.358657 263.940134 
L 133.998326 263.702567 
L 135.637996 262.477112 
L 137.277665 263.092742 
L 138.917335 263.453156 
L 143.836343 263.405782 
L 145.476012 264.271055 
L 147.115682 262.035418 
L 148.755351 263.494957 
L 150.395021 264.107336 
L 152.03469 264.211141 
L 153.67436 263.430398 
L 155.314029 263.377683 
L 156.953698 264.050905 
L 158.593368 263.115732 
L 160.233037 262.690992 
L 161.872707 263.445261 
L 163.512376 263.272717 
L 165.152045 262.779237 
L 166.791715 264.015143 
L 168.431384 263.38883 
L 170.071054 263.768751 
L 171.710723 263.248333 
L 174.990062 262.712124 
L 176.629731 262.021485 
L 178.269401 263.590634 
L 179.90907 262.560248 
L 181.54874 262.928326 
L 183.188409 263.799637 
L 184.828079 263.674003 
L 186.467748 262.803389 
L 188.107417 263.305461 
L 189.747087 263.412981 
L 191.386756 264.049048 
L 193.026426 260.263304 
L 194.666095 263.705121 
L 196.305764 264.171431 
L 197.945434 264.115929 
L 199.585103 262.874218 
L 201.224773 263.864893 
L 202.864442 263.886257 
L 204.504112 262.230023 
L 206.143781 262.736276 
L 207.78345 262.805247 
L 209.42312 263.814964 
L 211.062789 262.430434 
L 212.702459 263.129898 
L 214.342128 263.628022 
L 215.981798 261.468788 
L 217.621467 261.75698 
L 219.261136 264.033721 
L 220.900806 263.53072 
L 222.540475 261.573521 
L 224.180145 263.876504 
L 225.819814 263.497744 
L 227.459483 263.886722 
L 229.099153 263.244618 
L 232.378492 262.885365 
L 234.018161 261.977826 
L 235.657831 263.964053 
L 237.2975 263.037937 
L 238.937169 263.097387 
L 240.576839 263.364446 
L 242.216508 263.887419 
L 243.856178 262.82963 
L 245.495847 263.85003 
L 247.135517 264.103621 
L 248.775186 263.131988 
L 250.414855 263.514464 
L 253.694194 263.54326 
L 255.333864 262.515429 
L 256.973533 264.618465 
L 258.613202 263.004496 
L 260.252872 263.947565 
L 261.892541 264.148673 
L 263.532211 262.835436 
L 265.17188 263.879523 
L 266.81155 262.877469 
L 268.451219 263.360731 
L 270.090888 263.616643 
L 271.730558 263.241134 
L 273.370227 263.132685 
L 275.009897 264.241795 
L 276.649566 263.657051 
L 278.289236 264.550655 
L 279.928905 262.773199 
L 281.568574 263.869305 
L 283.208244 262.82545 
L 284.847913 263.966608 
L 286.487583 263.365143 
L 288.127252 262.432292 
L 289.766921 263.932238 
L 291.406591 262.965715 
L 293.04626 263.920395 
L 296.325599 262.885597 
L 297.965269 262.817322 
L 299.604938 263.796386 
L 301.244607 263.002406 
L 302.884277 264.053228 
L 304.523946 263.932703 
L 306.163616 262.683793 
L 307.803285 263.929916 
L 309.442955 263.528862 
L 311.082624 261.79669 
L 312.722293 263.083453 
L 314.361963 263.861874 
L 316.001632 263.63615 
L 317.641302 263.920162 
L 319.280971 264.066232 
L 320.92064 263.577629 
L 322.56031 262.498012 
L 324.199979 264.22461 
L 325.839649 263.730666 
L 327.479318 264.219966 
L 329.118988 263.311267 
L 330.758657 263.389527 
L 332.398326 263.877201 
L 334.037996 264.190938 
L 335.677665 264.270591 
L 337.317335 263.644046 
L 338.957004 263.165197 
L 340.596674 263.918305 
L 342.236343 263.973807 
L 343.876012 263.287579 
L 345.515682 263.54117 
L 347.155351 263.961731 
L 348.795021 263.622217 
L 350.43469 262.679613 
L 352.07436 263.268073 
L 353.714029 264.542527 
L 356.993368 263.486365 
L 358.633037 264.033721 
L 360.272707 263.23649 
L 361.912376 264.202084 
L 363.552045 263.302906 
L 365.191715 264.041616 
L 366.831384 264.291956 
L 368.471054 264.0869 
L 370.110723 262.093243 
L 371.750393 263.268537 
L 373.390062 264.136829 
L 375.029731 262.877004 
L 376.669401 264.00864 
L 378.30907 262.424164 
L 379.94874 262.387937 
L 383.228079 261.847315 
L 384.867748 263.792438 
L 386.507417 263.670055 
L 388.147087 263.000084 
L 389.786756 261.759766 
L 391.426426 263.466393 
L 393.066095 264.148208 
L 394.705764 263.125021 
L 396.345434 262.377255 
L 399.624773 263.226736 
L 399.624773 263.226736 
" style="fill:none;stroke:#1f77b4;stroke-linecap:square;stroke-width:0.5;"/>
   </g>
   <g id="line2d_17">
    <path clip-path="url(#p644385624b)" d="M 74.970227 263.798941 
L 76.609897 262.910677 
L 78.249566 263.678648 
L 79.889236 263.484507 
L 83.168574 264.402263 
L 86.447913 263.383256 
L 88.087583 264.562034 
L 89.727252 264.003996 
L 91.366921 264.206032 
L 93.006591 264.057408 
L 94.64626 264.192795 
L 96.28593 263.533971 
L 97.925599 264.555764 
L 99.565269 263.272949 
L 101.204938 263.064411 
L 102.844607 263.609677 
L 104.484277 262.881881 
L 106.123946 263.831684 
L 107.763616 263.370716 
L 109.403285 261.677094 
L 111.042955 264.084346 
L 112.682624 264.608944 
L 114.322293 263.437133 
L 115.961963 263.91993 
L 119.241302 263.88022 
L 120.880971 264.168179 
L 122.52064 264.087133 
L 124.16031 263.656354 
L 125.799979 264.256425 
L 127.439649 264.231345 
L 129.079318 263.860713 
L 132.358657 263.926665 
L 133.998326 263.876504 
L 135.637996 264.199298 
L 137.277665 263.604568 
L 138.917335 263.470573 
L 142.196674 263.550923 
L 143.836343 262.707247 
L 145.476012 262.299923 
L 147.115682 263.928523 
L 150.395021 263.745993 
L 152.03469 263.842831 
L 153.67436 263.680041 
L 155.314029 264.405282 
L 156.953698 264.053692 
L 158.593368 264.560873 
L 160.233037 264.099673 
L 161.872707 264.070877 
L 163.512376 263.422735 
L 165.152045 264.303567 
L 166.791715 264.537418 
L 168.431384 263.805907 
L 171.710723 264.0242 
L 173.350393 262.79619 
L 174.990062 263.939902 
L 176.629731 264.528594 
L 178.269401 264.10873 
L 179.90907 264.653531 
L 181.54874 264.554603 
L 183.188409 263.909944 
L 184.828079 264.550888 
L 186.467748 263.650781 
L 189.747087 263.789187 
L 191.386756 264.630076 
L 193.026426 263.604335 
L 196.305764 263.840741 
L 197.945434 264.612195 
L 199.585103 263.818448 
L 201.224773 264.47704 
L 202.864442 263.617804 
L 204.504112 263.715804 
L 206.143781 264.192795 
L 207.78345 263.732292 
L 209.42312 264.154478 
L 211.062789 264.03465 
L 212.702459 263.666804 
L 214.342128 264.383685 
L 215.981798 263.84167 
L 217.621467 263.506801 
L 219.261136 263.978683 
L 220.900806 264.280112 
L 224.180145 264.237151 
L 225.819814 263.838419 
L 227.459483 263.697458 
L 229.099153 263.429469 
L 230.738822 264.221824 
L 232.378492 264.382059 
L 234.018161 263.750638 
L 235.657831 264.068322 
L 237.2975 263.32311 
L 238.937169 264.611963 
L 240.576839 264.26316 
L 242.216508 263.60898 
L 243.856178 263.350048 
L 245.495847 262.73465 
L 247.135517 264.451495 
L 248.775186 263.765268 
L 250.414855 263.939902 
L 252.054525 264.404353 
L 253.694194 264.103621 
L 255.333864 264.12754 
L 256.973533 263.648691 
L 258.613202 264.396922 
L 260.252872 264.293349 
L 261.892541 264.485632 
L 263.532211 264.164696 
L 265.17188 264.050905 
L 268.451219 264.201852 
L 270.090888 263.914589 
L 271.730558 262.424629 
L 273.370227 263.468483 
L 275.009897 262.887919 
L 276.649566 264.076218 
L 279.928905 263.866286 
L 281.568574 264.141938 
L 283.208244 264.001906 
L 284.847913 264.026986 
L 286.487583 264.228094 
L 288.127252 263.774789 
L 289.766921 264.640991 
L 291.406591 264.408301 
L 293.04626 263.321484 
L 296.325599 264.521163 
L 297.965269 263.585757 
L 299.604938 264.257819 
L 301.244607 263.004961 
L 304.523946 264.384382 
L 306.163616 264.067858 
L 307.803285 264.613124 
L 309.442955 263.820305 
L 311.082624 263.247637 
L 312.722293 264.15053 
L 314.361963 264.455907 
L 316.001632 263.063249 
L 317.641302 264.65028 
L 319.280971 264.210909 
L 320.92064 264.064142 
L 322.56031 263.550459 
L 324.199979 264.112678 
L 325.839649 263.546976 
L 327.479318 263.190045 
L 329.118988 262.601817 
L 330.758657 263.45873 
L 332.398326 263.230684 
L 334.037996 264.152853 
L 335.677665 263.421806 
L 337.317335 264.309141 
L 338.957004 263.264589 
L 340.596674 264.024432 
L 342.236343 262.974771 
L 347.155351 263.223021 
L 348.795021 264.545314 
L 350.43469 264.124289 
L 352.07436 263.454085 
L 353.714029 263.535597 
L 355.353698 264.229487 
L 356.993368 263.741581 
L 358.633037 264.025128 
L 360.272707 263.823092 
L 361.912376 262.834739 
L 363.552045 264.229719 
L 365.191715 263.722074 
L 366.831384 264.107569 
L 368.471054 264.164928 
L 370.110723 263.854907 
L 371.750393 263.162178 
L 373.390062 264.355818 
L 375.029731 260.369199 
L 376.669401 263.870002 
L 378.30907 262.534936 
L 379.94874 263.633364 
L 381.588409 262.524718 
L 383.228079 264.50212 
L 384.867748 262.468984 
L 386.507417 263.290831 
L 388.147087 264.35814 
L 389.786756 264.327022 
L 391.426426 264.565982 
L 393.066095 263.410891 
L 394.705764 263.440848 
L 396.345434 263.648691 
L 397.985103 264.49376 
L 399.624773 263.974039 
L 399.624773 263.974039 
" style="fill:none;stroke:#ff7f0e;stroke-linecap:square;stroke-width:0.5;"/>
   </g>
   <g id="line2d_18">
    <path clip-path="url(#p644385624b)" d="M 74.970227 264.29869 
L 76.609897 263.239741 
L 78.249566 264.238312 
L 79.889236 264.503049 
L 81.528905 263.829594 
L 83.168574 264.594546 
L 84.808244 262.354729 
L 86.447913 261.318537 
L 88.087583 263.654961 
L 89.727252 261.43465 
L 91.366921 258.99001 
L 93.006591 264.227862 
L 94.64626 264.545546 
L 96.28593 264.408765 
L 97.925599 260.797191 
L 99.565269 264.436865 
L 102.844607 263.192831 
L 104.484277 263.574146 
L 106.123946 263.135704 
L 107.763616 261.776719 
L 109.403285 263.430863 
L 111.042955 261.704032 
L 112.682624 259.301889 
L 114.322293 263.29594 
L 115.961963 262.615518 
L 117.601632 262.330577 
L 119.241302 264.430362 
L 120.880971 262.730934 
L 122.52064 261.784382 
L 124.16031 262.304103 
L 125.799979 263.830291 
L 127.439649 263.801495 
L 130.718988 262.679613 
L 133.998326 264.294975 
L 135.637996 264.443599 
L 137.277665 258.809106 
L 138.917335 262.688437 
L 142.196674 264.447083 
L 143.836343 262.736972 
L 145.476012 264.392045 
L 147.115682 264.090384 
L 148.755351 261.467162 
L 150.395021 262.658248 
L 152.03469 262.974075 
L 153.67436 262.219341 
L 155.314029 262.435079 
L 156.953698 261.553782 
L 158.593368 264.477736 
L 160.233037 262.699352 
L 161.872707 263.595511 
L 163.512376 263.168215 
L 165.152045 264.301709 
L 166.791715 259.069431 
L 168.431384 260.189688 
L 170.071054 256.673094 
L 171.710723 262.981042 
L 173.350393 260.259124 
L 174.990062 264.023735 
L 176.629731 264.497476 
L 178.269401 262.560016 
L 179.90907 260.140921 
L 181.54874 264.144492 
L 183.188409 262.253014 
L 184.828079 260.556373 
L 186.467748 260.411928 
L 188.107417 262.645475 
L 189.747087 264.260605 
L 191.386756 263.086936 
L 193.026426 263.947565 
L 194.666095 263.733221 
L 196.305764 262.357283 
L 197.945434 262.06584 
L 199.585103 263.569966 
L 201.224773 262.904175 
L 202.864442 263.029577 
L 204.504112 258.331418 
L 206.143781 262.924611 
L 207.78345 257.783597 
L 209.42312 261.87495 
L 211.062789 262.643385 
L 212.702459 263.714178 
L 214.342128 264.268965 
L 215.981798 263.848637 
L 219.261136 260.976005 
L 222.540475 264.172127 
L 224.180145 264.011659 
L 227.459483 264.248762 
L 229.099153 263.67888 
L 230.738822 262.619698 
L 232.378492 263.494957 
L 234.018161 263.254603 
L 235.657831 263.420413 
L 237.2975 263.390455 
L 238.937169 262.23699 
L 240.576839 262.811285 
L 242.216508 262.185436 
L 243.856178 263.546511 
L 245.495847 263.728112 
L 247.135517 263.301281 
L 248.775186 251.247836 
L 250.414855 263.66843 
L 252.054525 263.663321 
L 253.694194 264.489115 
L 255.333864 264.060195 
L 256.973533 264.057872 
L 258.613202 260.371985 
L 260.252872 262.864232 
L 261.892541 262.690295 
L 263.532211 262.841938 
L 265.17188 264.386007 
L 266.81155 262.910909 
L 268.451219 262.59276 
L 270.090888 262.563035 
L 271.730558 263.896475 
L 273.370227 263.299655 
L 275.009897 264.045564 
L 276.649566 264.308676 
L 278.289236 264.127772 
L 279.928905 261.245386 
L 283.208244 262.293189 
L 284.847913 262.042385 
L 286.487583 262.06166 
L 288.127252 263.12386 
L 289.766921 262.671717 
L 291.406591 263.024236 
L 293.04626 263.078576 
L 294.68593 260.92027 
L 296.325599 263.987972 
L 297.965269 260.807873 
L 299.604938 261.330845 
L 301.244607 263.838187 
L 302.884277 263.295707 
L 304.523946 263.75714 
L 306.163616 260.375237 
L 307.803285 264.383685 
L 309.442955 264.004925 
L 311.082624 260.633936 
L 312.722293 261.326665 
L 314.361963 260.159267 
L 316.001632 259.233383 
L 317.641302 264.307979 
L 319.280971 263.745761 
L 320.92064 260.809499 
L 322.56031 263.020984 
L 324.199979 263.849334 
L 325.839649 262.142474 
L 327.479318 262.464804 
L 329.118988 260.459999 
L 330.758657 261.582346 
L 332.398326 261.475058 
L 334.037996 259.509267 
L 335.677665 261.772539 
L 337.317335 261.78833 
L 338.957004 264.548101 
L 340.596674 264.165393 
L 342.236343 260.90982 
L 343.876012 262.828934 
L 345.515682 262.175915 
L 347.155351 264.252942 
L 348.795021 261.793904 
L 350.43469 260.722878 
L 352.07436 262.653603 
L 353.714029 264.26734 
L 355.353698 257.27363 
L 356.993368 262.74301 
L 358.633037 261.04335 
L 360.272707 260.832257 
L 361.912376 261.825486 
L 363.552045 263.461517 
L 365.191715 263.774557 
L 366.831384 262.431828 
L 368.471054 258.738974 
L 370.110723 260.923986 
L 371.750393 259.782829 
L 373.390062 262.815697 
L 375.029731 261.411196 
L 376.669401 262.421377 
L 378.30907 263.132917 
L 379.94874 261.766733 
L 381.588409 258.614269 
L 383.228079 262.883507 
L 384.867748 264.099441 
L 386.507417 262.532149 
L 388.147087 259.633043 
L 389.786756 263.267608 
L 389.786756 263.267608 
" style="fill:none;stroke:#2ca02c;stroke-linecap:square;stroke-width:0.5;"/>
   </g>
   <g id="line2d_19">
    <path clip-path="url(#p644385624b)" d="M 74.970227 263.398351 
L 76.609897 264.194885 
L 78.249566 263.977058 
L 79.889236 262.521931 
L 81.528905 264.050673 
L 83.168574 262.598334 
L 84.808244 264.300548 
L 86.447913 262.970127 
L 88.087583 264.574575 
L 89.727252 264.378112 
L 91.366921 263.488919 
L 93.006591 262.779702 
L 94.64626 262.883739 
L 96.28593 263.57252 
L 97.925599 263.979612 
L 99.565269 263.438991 
L 101.204938 264.280345 
L 102.844607 263.188651 
L 104.484277 264.596636 
L 106.123946 264.196743 
L 107.763616 264.216482 
L 109.403285 264.44685 
L 111.042955 264.276397 
L 115.961963 264.295904 
L 117.601632 262.869341 
L 119.241302 264.155407 
L 120.880971 264.073431 
L 122.52064 263.15196 
L 124.16031 264.131256 
L 127.439649 264.359998 
L 129.079318 263.662624 
L 130.718988 264.363714 
L 132.358657 263.66425 
L 133.998326 264.649119 
L 135.637996 264.548101 
L 137.277665 263.546743 
L 138.917335 264.343974 
L 140.557004 263.550691 
L 142.196674 264.267804 
L 143.836343 263.455014 
L 145.476012 263.867679 
L 147.115682 264.526736 
L 148.755351 263.477772 
L 150.395021 264.170734 
L 152.03469 262.803389 
L 153.67436 264.225771 
L 155.314029 264.242956 
L 156.953698 264.475182 
L 158.593368 263.496815 
L 160.233037 264.567143 
L 161.872707 263.984257 
L 163.512376 263.81659 
L 165.152045 264.269894 
L 166.791715 263.976361 
L 168.431384 261.590474 
L 170.071054 263.703496 
L 171.710723 264.47704 
L 174.990062 264.158658 
L 176.629731 263.667501 
L 178.269401 264.10246 
L 179.90907 263.252281 
L 181.54874 263.769216 
L 184.828079 263.073467 
L 186.467748 263.095993 
L 188.107417 262.70121 
L 189.747087 263.423896 
L 191.386756 264.010498 
L 193.026426 264.06809 
L 196.305764 262.839848 
L 197.945434 263.648458 
L 199.585103 264.034417 
L 201.224773 264.097118 
L 202.864442 262.622485 
L 204.504112 264.593153 
L 206.143781 263.038634 
L 207.78345 262.637347 
L 209.42312 263.911106 
L 211.062789 263.560677 
L 212.702459 264.177004 
L 214.342128 263.70187 
L 215.981798 263.794761 
L 217.621467 264.66073 
L 220.900806 263.988901 
L 222.540475 264.542992 
L 224.180145 262.325468 
L 225.819814 263.730202 
L 227.459483 264.446386 
L 229.099153 262.801531 
L 232.378492 263.670752 
L 234.018161 264.434542 
L 235.657831 264.570627 
L 237.2975 264.297529 
L 238.937169 263.380238 
L 240.576839 264.614053 
L 242.216508 263.324736 
L 245.495847 262.851924 
L 247.135517 263.790348 
L 248.775186 263.708373 
L 252.054525 264.044868 
L 253.694194 262.729541 
L 255.333864 264.595475 
L 256.973533 264.435007 
L 258.613202 264.542295 
L 260.252872 263.915518 
L 261.892541 263.780827 
L 263.532211 264.069948 
L 265.17188 263.440616 
L 266.81155 264.237383 
L 268.451219 263.559051 
L 270.090888 263.062321 
L 271.730558 264.15889 
L 273.370227 263.853978 
L 275.009897 263.844225 
L 276.649566 263.316608 
L 278.289236 264.180952 
L 279.928905 263.552549 
L 281.568574 263.59853 
L 283.208244 263.863964 
L 284.847913 264.4854 
L 286.487583 264.204407 
L 289.766921 262.533543 
L 291.406591 263.966375 
L 293.04626 263.489151 
L 294.68593 263.990295 
L 297.965269 264.437329 
L 299.604938 261.923253 
L 301.244607 264.392277 
L 304.523946 263.48799 
L 306.163616 264.609873 
L 307.803285 264.338865 
L 309.442955 259.794208 
L 311.082624 256.648246 
L 312.722293 261.941367 
L 314.361963 263.2344 
L 316.001632 264.033721 
L 317.641302 264.666304 
L 320.92064 263.764339 
L 322.56031 261.874254 
L 324.199979 264.236686 
L 325.839649 264.54276 
L 327.479318 264.472395 
L 329.118988 264.522092 
L 330.758657 262.56977 
L 332.398326 264.604067 
L 334.037996 262.979416 
L 335.677665 263.258784 
L 337.317335 262.877933 
L 338.957004 263.301977 
L 340.596674 264.203246 
L 342.236343 264.533703 
L 343.876012 264.051834 
L 345.515682 262.376093 
L 347.155351 263.832613 
L 348.795021 263.973574 
L 350.43469 263.556265 
L 352.07436 262.888383 
L 353.714029 264.154246 
L 355.353698 264.376254 
L 356.993368 264.049048 
L 358.633037 263.039098 
L 360.272707 263.050013 
L 361.912376 263.732292 
L 363.552045 264.09828 
L 365.191715 263.196547 
L 366.831384 263.184471 
L 368.471054 264.248994 
L 370.110723 263.248798 
L 371.750393 263.922252 
L 373.390062 263.9262 
L 375.029731 264.10455 
L 376.669401 263.881381 
L 378.30907 263.312892 
L 379.94874 264.141706 
L 381.588409 264.272913 
L 383.228079 264.013982 
L 384.867748 264.458229 
L 386.507417 263.992849 
L 388.147087 263.288741 
L 389.786756 264.437097 
L 391.426426 263.089491 
L 393.066095 262.834972 
L 394.705764 262.937383 
L 396.345434 263.979844 
L 397.985103 263.729505 
L 397.985103 263.729505 
" style="fill:none;stroke:#d62728;stroke-linecap:square;stroke-width:0.5;"/>
   </g>
   <g id="line2d_20">
    <path clip-path="url(#p644385624b)" d="M 74.970227 263.740652 
L 76.609897 262.998458 
L 78.249566 260.838759 
L 79.889236 261.807837 
L 81.528905 262.49987 
L 83.168574 258.458213 
L 84.808244 264.622413 
L 86.447913 263.533971 
L 88.087583 264.101066 
L 89.727252 264.273378 
L 91.366921 262.968734 
L 93.006591 262.52913 
L 94.64626 264.181881 
L 96.28593 263.563464 
L 97.925599 263.255997 
L 99.565269 261.109534 
L 101.204938 264.078076 
L 102.844607 263.781524 
L 104.484277 260.02504 
L 107.763616 264.562034 
L 109.403285 259.819985 
L 111.042955 258.617984 
L 112.682624 263.896708 
L 114.322293 263.078344 
L 115.961963 260.361303 
L 117.601632 264.113374 
L 119.241302 263.71023 
L 120.880971 264.160748 
L 122.52064 262.097655 
L 124.16031 262.984989 
L 125.799979 262.250692 
L 127.439649 263.367001 
L 129.079318 263.087401 
L 130.718988 264.27779 
L 132.358657 263.991456 
L 133.998326 263.988437 
L 137.277665 264.207658 
L 138.917335 262.75346 
L 140.557004 263.89067 
L 142.196674 263.064643 
L 143.836343 264.154246 
L 145.476012 264.440813 
L 147.115682 263.071377 
L 148.755351 262.136901 
L 150.395021 262.01057 
L 152.03469 262.88281 
L 153.67436 261.225183 
L 155.314029 264.689991 
L 156.953698 261.413982 
L 158.593368 264.476807 
L 160.233037 262.633167 
L 161.872707 262.220734 
L 163.512376 263.02261 
L 165.152045 263.138723 
L 166.791715 264.22461 
L 168.431384 263.885096 
L 170.071054 263.065339 
L 171.710723 263.396261 
L 173.350393 262.965018 
L 176.629731 262.674736 
L 178.269401 263.828433 
L 179.90907 264.461713 
L 181.54874 263.086472 
L 183.188409 264.167018 
L 184.828079 263.18958 
L 186.467748 264.410855 
L 188.107417 264.282435 
L 189.747087 264.004228 
L 191.386756 263.430863 
L 193.026426 264.579451 
L 194.666095 264.44267 
L 196.305764 263.893456 
L 197.945434 262.976165 
L 199.585103 264.301477 
L 201.224773 263.762946 
L 202.864442 263.743903 
L 204.504112 264.303567 
L 206.143781 263.43574 
L 207.78345 263.3461 
L 209.42312 264.360462 
L 212.702459 262.675432 
L 214.342128 264.266179 
L 215.981798 263.583203 
L 217.621467 263.669126 
L 219.261136 263.896475 
L 222.540475 263.617108 
L 224.180145 264.402031 
L 225.819814 264.157265 
L 227.459483 263.088794 
L 229.099153 264.523717 
L 230.738822 264.04301 
L 232.378492 262.096261 
L 234.018161 263.993081 
L 235.657831 263.286883 
L 237.2975 264.145421 
L 238.937169 264.220198 
L 240.576839 263.282471 
L 242.216508 263.134078 
L 243.856178 264.50003 
L 245.495847 263.500763 
L 247.135517 263.525611 
L 248.775186 262.656158 
L 250.414855 263.883935 
L 252.054525 264.460552 
L 253.694194 264.288472 
L 255.333864 263.124093 
L 256.973533 264.480755 
L 258.613202 264.523717 
L 260.252872 263.091349 
L 261.892541 264.267108 
L 263.532211 260.764447 
L 265.17188 264.457765 
L 266.81155 263.964982 
L 268.451219 263.877665 
L 270.090888 263.340991 
L 271.730558 264.278951 
L 273.370227 263.871163 
L 275.009897 264.307515 
L 276.649566 264.240866 
L 278.289236 262.356354 
L 279.928905 261.622985 
L 281.568574 264.374164 
L 283.208244 264.51675 
L 284.847913 263.746225 
L 286.487583 263.933399 
L 288.127252 261.364983 
L 289.766921 263.048155 
L 291.406591 264.17863 
L 293.04626 263.290134 
L 294.68593 264.415035 
L 296.325599 262.183114 
L 297.965269 262.782256 
L 299.604938 264.18281 
L 301.244607 264.234132 
L 302.884277 264.17236 
L 304.523946 263.15196 
L 306.163616 264.418287 
L 307.803285 264.45103 
L 309.442955 263.296404 
L 312.722293 264.19953 
L 314.361963 263.383953 
L 316.001632 264.309837 
L 317.641302 262.45923 
L 319.280971 264.328415 
L 320.92064 264.15471 
L 322.56031 264.261766 
L 324.199979 264.538812 
L 325.839649 262.314786 
L 327.479318 264.097351 
L 329.118988 264.428737 
L 330.758657 260.122807 
L 332.398326 257.499817 
L 334.037996 262.758801 
L 335.677665 261.611839 
L 337.317335 261.354532 
L 338.957004 241.300215 
L 340.596674 198.670072 
L 342.236343 261.569109 
L 343.876012 264.164696 
L 345.515682 261.47529 
L 347.155351 264.306818 
L 348.795021 257.493547 
L 350.43469 260.745637 
L 352.07436 258.964465 
L 353.714029 260.899834 
L 355.353698 262.001513 
L 356.993368 263.93665 
L 358.633037 260.496226 
L 360.272707 264.101531 
L 361.912376 263.771306 
L 363.552045 264.092474 
L 365.191715 262.098351 
L 366.831384 250.834707 
L 368.471054 262.772967 
L 370.110723 263.159855 
L 371.750393 262.622485 
L 373.390062 264.417358 
L 375.029731 264.331202 
L 376.669401 264.39251 
L 379.94874 263.824485 
L 381.588409 264.398547 
L 383.228079 263.863267 
L 384.867748 262.239545 
L 386.507417 263.946404 
L 388.147087 262.938776 
L 389.786756 264.04301 
L 391.426426 264.59919 
L 393.066095 264.51466 
L 394.705764 262.361928 
L 396.345434 263.618269 
L 397.985103 263.700709 
L 399.624773 264.086668 
L 399.624773 264.086668 
" style="fill:none;stroke:#9467bd;stroke-linecap:square;stroke-width:0.5;"/>
   </g>
   <g id="line2d_21">
    <path clip-path="url(#p644385624b)" d="M 74.970227 264.370448 
L 76.609897 262.961767 
L 78.249566 262.48942 
L 79.889236 264.376486 
L 81.528905 263.508426 
L 83.168574 262.199834 
L 84.808244 249.498247 
L 86.447913 263.52654 
L 88.087583 264.296833 
L 89.727252 263.144296 
L 91.366921 264.454746 
L 93.006591 263.493796 
L 94.64626 263.839812 
L 96.28593 262.20355 
L 97.925599 264.555996 
L 99.565269 264.486097 
L 101.204938 262.932506 
L 104.484277 263.955461 
L 106.123946 264.275236 
L 107.763616 261.557266 
L 109.403285 262.069788 
L 111.042955 262.31734 
L 112.682624 262.106247 
L 114.322293 263.207462 
L 115.961963 261.177112 
L 117.601632 262.485704 
L 119.241302 261.124861 
L 120.880971 262.90371 
L 122.52064 262.327094 
L 124.16031 264.621252 
L 125.799979 263.184471 
L 127.439649 262.999852 
L 129.079318 264.354425 
L 130.718988 262.0742 
L 132.358657 262.562571 
L 133.998326 262.798512 
L 135.637996 261.915822 
L 137.277665 264.46868 
L 138.917335 261.58281 
L 140.557004 260.277005 
L 142.196674 261.157141 
L 143.836343 264.044171 
L 145.476012 261.888419 
L 147.115682 263.972645 
L 148.755351 262.785043 
L 150.395021 260.82947 
L 152.03469 264.439419 
L 153.67436 262.451335 
L 155.314029 263.946636 
L 156.953698 262.731863 
L 158.593368 263.243224 
L 160.233037 262.668466 
L 161.872707 264.413874 
L 163.512376 261.820145 
L 165.152045 263.80614 
L 166.791715 263.769448 
L 168.431384 262.089991 
L 171.710723 264.066232 
L 173.350393 263.120609 
L 174.990062 262.756479 
L 176.629731 262.193564 
L 178.269401 259.882221 
L 179.90907 262.419984 
L 181.54874 263.964518 
L 183.188409 263.517947 
L 184.828079 262.550727 
L 186.467748 263.464536 
L 188.107417 263.272253 
L 189.747087 262.587651 
L 191.386756 263.091581 
L 193.026426 262.183114 
L 194.666095 259.836241 
L 196.305764 264.420377 
L 197.945434 263.340295 
L 199.585103 262.952246 
L 201.224773 260.82529 
L 202.864442 263.340295 
L 204.504112 263.89903 
L 206.143781 263.979148 
L 207.78345 263.494957 
L 209.42312 262.514732 
L 211.062789 263.052799 
L 212.702459 257.942207 
L 214.342128 263.304068 
L 215.981798 263.287579 
L 217.621467 264.168644 
L 219.261136 261.875647 
L 220.900806 264.093171 
L 222.540475 261.585597 
L 224.180145 262.672414 
L 225.819814 261.516162 
L 227.459483 263.568805 
L 229.099153 264.038133 
L 230.738822 261.518948 
L 232.378492 260.525254 
L 234.018161 263.569269 
L 235.657831 264.397619 
L 237.2975 264.281273 
L 238.937169 264.715768 
L 240.576839 255.428596 
L 242.216508 262.297833 
L 243.856178 262.015215 
L 245.495847 262.786204 
L 247.135517 264.50212 
L 248.775186 258.208803 
L 250.414855 263.749941 
L 252.054525 264.651441 
L 253.694194 264.35605 
L 256.973533 264.174217 
L 258.613202 264.640062 
L 260.252872 264.608015 
L 261.892541 264.446618 
L 263.532211 263.137794 
L 265.17188 262.699816 
L 266.81155 264.663981 
L 268.451219 261.913964 
L 270.090888 264.275468 
L 271.730558 262.951781 
L 273.370227 264.035811 
L 275.009897 264.141009 
L 276.649566 264.428505 
L 278.289236 264.279183 
L 279.928905 263.95848 
L 281.568574 263.808926 
L 283.208244 264.26525 
L 284.847913 264.233899 
L 286.487583 261.795994 
L 288.127252 263.517251 
L 289.766921 264.341188 
L 291.406591 262.877237 
L 293.04626 264.050673 
L 296.325599 263.184703 
L 297.965269 261.599531 
L 299.604938 264.276164 
L 301.244607 263.129898 
L 302.884277 263.708373 
L 304.523946 263.796851 
L 306.163616 263.463374 
L 307.803285 263.981934 
L 309.442955 260.33599 
L 311.082624 261.639009 
L 312.722293 261.090724 
L 314.361963 262.51868 
L 316.001632 262.572556 
L 317.641302 264.111516 
L 319.280971 264.586418 
L 320.92064 264.619394 
L 322.56031 262.958051 
L 324.199979 263.123628 
L 325.839649 263.787562 
L 327.479318 262.310838 
L 329.118988 263.576468 
L 330.758657 263.136633 
L 332.398326 263.430863 
L 334.037996 260.264 
L 335.677665 264.436632 
L 337.317335 263.068823 
L 338.957004 262.914857 
L 340.596674 260.554979 
L 342.236343 262.841706 
L 343.876012 262.874914 
L 345.515682 263.546743 
L 347.155351 262.615286 
L 348.795021 262.451102 
L 350.43469 264.555764 
L 352.07436 262.136437 
L 353.714029 264.261302 
L 355.353698 264.584328 
L 356.993368 264.101298 
L 358.633037 263.393474 
L 360.272707 262.893492 
L 361.912376 263.86675 
L 363.552045 262.493832 
L 365.191715 264.255032 
L 366.831384 260.407284 
L 368.471054 264.264089 
L 370.110723 264.152388 
L 371.750393 264.320752 
L 375.029731 262.480827 
L 376.669401 264.014911 
L 378.30907 263.30221 
L 379.94874 261.878201 
L 381.588409 263.528398 
L 381.588409 263.528398 
" style="fill:none;stroke:#8c564b;stroke-linecap:square;stroke-width:0.5;"/>
   </g>
   <g id="line2d_22">
    <path clip-path="url(#p644385624b)" d="M 74.970227 264.010266 
L 76.609897 263.118055 
L 78.249566 259.36877 
L 79.889236 262.231649 
L 81.528905 263.952442 
L 83.168574 254.997353 
L 84.808244 264.349316 
L 86.447913 262.873985 
L 88.087583 264.125682 
L 89.727252 263.040491 
L 91.366921 264.352799 
L 93.006591 261.249566 
L 94.64626 263.209319 
L 96.28593 261.253514 
L 97.925599 254.203141 
L 99.565269 260.611875 
L 101.204938 262.653139 
L 102.844607 261.814339 
L 104.484277 263.888115 
L 106.123946 262.546547 
L 107.763616 259.084294 
L 109.403285 238.822366 
L 111.042955 262.955961 
L 112.682624 263.349352 
L 114.322293 264.377879 
L 115.961963 262.190545 
L 117.601632 256.680757 
L 119.241302 264.538347 
L 120.880971 261.602782 
L 122.52064 263.248566 
L 124.16031 258.451943 
L 125.799979 264.194421 
L 127.439649 263.118287 
L 129.079318 263.083685 
L 130.718988 262.168948 
L 132.358657 261.000388 
L 133.998326 264.278022 
L 135.637996 264.099441 
L 137.277665 262.28599 
L 138.917335 262.450406 
L 140.557004 261.503854 
L 142.196674 261.800638 
L 143.836343 261.045208 
L 145.476012 262.400477 
L 147.115682 263.425986 
L 148.755351 260.135347 
L 152.03469 263.143135 
L 153.67436 258.663965 
L 155.314029 264.48122 
L 156.953698 259.367609 
L 158.593368 258.346048 
L 160.233037 263.066501 
L 161.872707 261.921628 
L 163.512376 264.272217 
L 165.152045 254.304624 
L 166.791715 264.358837 
L 168.431384 263.94083 
L 170.071054 234.451181 
L 171.710723 254.522219 
L 173.350393 254.800658 
L 174.990062 220.044361 
L 176.629731 264.103621 
L 178.269401 264.010498 
L 179.90907 262.580452 
L 181.54874 245.227848 
L 183.188409 246.412432 
L 184.828079 262.640366 
L 186.467748 264.408765 
L 188.107417 263.831684 
L 189.747087 264.323306 
L 191.386756 263.984721 
L 193.026426 258.54344 
L 194.666095 256.951997 
L 196.305764 256.069771 
L 197.945434 258.158874 
L 199.585103 239.633298 
L 201.224773 257.528149 
L 202.864442 260.38499 
L 204.504112 262.749745 
L 206.143781 263.216751 
L 209.42312 264.55948 
L 211.062789 261.912339 
L 212.702459 263.84167 
L 214.342128 264.521627 
L 215.981798 263.697922 
L 217.621467 263.578791 
L 219.261136 263.83331 
L 224.180145 263.396958 
L 225.819814 264.61893 
L 227.459483 262.075129 
L 229.099153 260.642296 
L 230.738822 263.855371 
L 232.378492 261.834079 
L 234.018161 264.58665 
L 235.657831 259.114019 
L 237.2975 263.96684 
L 238.937169 260.326469 
L 240.576839 263.389527 
L 242.216508 246.300499 
L 243.856178 264.702763 
L 245.495847 243.432511 
L 247.135517 262.713982 
L 248.775186 250.514467 
L 250.414855 262.408141 
L 252.054525 257.678864 
L 253.694194 260.525951 
L 255.333864 263.794064 
L 256.973533 257.781043 
L 258.613202 257.078792 
L 260.252872 264.074128 
L 261.892541 248.326436 
L 263.532211 261.065411 
L 265.17188 255.423952 
L 266.81155 260.024808 
L 268.451219 263.229755 
L 270.090888 263.525379 
L 271.730558 260.909123 
L 273.370227 248.362664 
L 275.009897 212.423409 
L 276.649566 264.426415 
L 278.289236 264.528129 
L 279.928905 262.291331 
L 281.568574 263.637776 
L 283.208244 262.592992 
L 284.847913 260.585169 
L 286.487583 264.106175 
L 288.127252 251.996068 
L 289.766921 264.122663 
L 291.406591 264.377415 
L 293.04626 263.618733 
L 294.68593 256.243941 
L 296.325599 257.19537 
L 297.965269 264.403424 
L 299.604938 264.071806 
L 301.244607 263.520502 
L 302.884277 264.288008 
L 304.523946 264.567608 
L 306.163616 262.66893 
L 307.803285 264.588276 
L 309.442955 261.440224 
L 311.082624 264.467983 
L 312.722293 264.534167 
L 314.361963 262.914857 
L 316.001632 264.35187 
L 317.641302 252.217843 
L 319.280971 263.397887 
L 320.92064 261.428612 
L 322.56031 264.185829 
L 324.199979 264.65028 
L 325.839649 263.486597 
L 327.479318 263.059302 
L 329.118988 261.99385 
L 330.758657 264.26734 
L 332.398326 260.180167 
L 334.037996 263.973807 
L 335.677665 264.450798 
L 337.317335 264.101066 
L 338.957004 261.450674 
L 340.596674 264.291027 
L 342.236343 263.64033 
L 343.876012 257.978667 
L 345.515682 70.476124 
L 347.155351 257.409946 
L 348.795021 249.135046 
L 350.43469 221.260295 
L 352.07436 258.509767 
L 353.714029 257.450353 
L 355.353698 193.043242 
L 356.993368 262.26927 
L 360.272707 264.130327 
L 361.912376 258.105462 
L 363.552045 229.442304 
L 365.191715 263.693046 
L 366.831384 261.620663 
L 368.471054 264.034417 
L 370.110723 264.578987 
L 371.750393 262.606694 
L 373.390062 264.386936 
L 376.669401 264.1359 
L 378.30907 262.883507 
L 379.94874 256.354016 
L 381.588409 258.681382 
L 383.228079 262.013589 
L 384.867748 262.441117 
L 386.507417 263.999816 
L 388.147087 255.205659 
L 389.786756 264.582702 
L 391.426426 263.842831 
L 393.066095 264.189776 
L 394.705764 259.204819 
L 394.705764 259.204819 
" style="fill:none;stroke:#e377c2;stroke-linecap:square;stroke-width:0.5;"/>
   </g>
   <g id="line2d_23">
    <path clip-path="url(#p644385624b)" d="M 74.970227 263.220466 
L 76.609897 261.643421 
L 78.249566 264.027451 
L 79.889236 263.11759 
L 81.528905 264.235293 
L 83.168574 264.094796 
L 84.808244 264.655157 
L 86.447913 263.197476 
L 88.087583 264.255032 
L 89.727252 263.938044 
L 91.366921 264.396922 
L 93.006591 264.346297 
L 94.64626 262.816626 
L 96.28593 264.37695 
L 97.925599 264.066232 
L 99.565269 263.113642 
L 101.204938 264.048351 
L 102.844607 264.634024 
L 104.484277 263.322413 
L 106.123946 264.32888 
L 107.763616 264.060659 
L 109.403285 262.497083 
L 111.042955 263.739723 
L 112.682624 264.377183 
L 114.322293 263.19794 
L 115.961963 263.582971 
L 117.601632 263.022145 
L 119.241302 264.131256 
L 120.880971 262.751835 
L 122.52064 263.522592 
L 124.16031 263.239973 
L 125.799979 262.328952 
L 127.439649 262.200066 
L 129.079318 263.082756 
L 130.718988 264.495153 
L 132.358657 264.200227 
L 133.998326 262.347994 
L 135.637996 263.954532 
L 137.277665 259.12563 
L 138.917335 264.607086 
L 140.557004 263.411588 
L 142.196674 263.569269 
L 143.836343 261.38031 
L 145.476012 262.124361 
L 147.115682 263.612231 
L 148.755351 263.56625 
L 152.03469 261.429077 
L 153.67436 262.721878 
L 155.314029 262.230256 
L 156.953698 263.983792 
L 158.593368 264.198833 
L 160.233037 262.366572 
L 161.872707 264.358605 
L 163.512376 264.56575 
L 165.152045 263.920859 
L 166.791715 263.49635 
L 168.431384 261.965286 
L 171.710723 264.241098 
L 174.990062 262.686579 
L 176.629731 262.855175 
L 178.269401 262.676594 
L 179.90907 264.081095 
L 181.54874 264.159355 
L 183.188409 262.336151 
L 184.828079 264.297529 
L 186.467748 264.226933 
L 188.107417 262.326629 
L 189.747087 264.386007 
L 191.386756 263.576701 
L 193.026426 262.917412 
L 194.666095 262.378416 
L 196.305764 263.707444 
L 197.945434 264.41968 
L 199.585103 263.080899 
L 201.224773 263.527701 
L 202.864442 264.155407 
L 204.504112 263.084614 
L 206.143781 264.460319 
L 207.78345 262.476183 
L 209.42312 259.626076 
L 211.062789 264.235525 
L 212.702459 263.154514 
L 214.342128 264.458926 
L 215.981798 263.336811 
L 217.621467 261.495726 
L 219.261136 262.479434 
L 220.900806 263.719287 
L 224.180145 264.247368 
L 225.819814 262.955961 
L 227.459483 264.062749 
L 229.099153 262.115072 
L 230.738822 262.583471 
L 232.378492 264.244582 
L 234.018161 262.808033 
L 235.657831 263.340991 
L 237.2975 261.644582 
L 238.937169 261.775093 
L 240.576839 264.473324 
L 242.216508 263.716036 
L 243.856178 261.808302 
L 245.495847 263.137794 
L 247.135517 263.566715 
L 248.775186 262.566519 
L 250.414855 262.741617 
L 252.054525 264.477272 
L 253.694194 264.074825 
L 255.333864 264.467286 
L 256.973533 261.605568 
L 258.613202 261.38658 
L 260.252872 264.150763 
L 263.532211 263.092974 
L 265.17188 262.789223 
L 266.81155 264.238079 
L 270.090888 263.536525 
L 271.730558 263.672145 
L 273.370227 262.588116 
L 275.009897 263.882077 
L 276.649566 260.982275 
L 278.289236 261.681506 
L 279.928905 264.181881 
L 281.568574 263.904836 
L 283.208244 263.042814 
L 284.847913 261.432793 
L 286.487583 261.826415 
L 288.127252 262.500566 
L 289.766921 264.063446 
L 291.406591 263.085079 
L 294.68593 262.02311 
L 296.325599 264.41968 
L 297.965269 264.47286 
L 299.604938 264.168179 
L 301.244607 264.072038 
L 302.884277 262.89535 
L 304.523946 262.29644 
L 306.163616 263.17913 
L 307.803285 262.591135 
L 309.442955 262.343582 
L 311.082624 261.848477 
L 312.722293 262.328023 
L 314.361963 261.62972 
L 316.001632 263.400673 
L 317.641302 262.141778 
L 319.280971 264.067858 
L 320.92064 264.158658 
L 322.56031 262.080006 
L 324.199979 264.237383 
L 325.839649 263.246476 
L 327.479318 264.44476 
L 329.118988 263.443171 
L 330.758657 260.918877 
L 332.398326 261.834079 
L 334.037996 263.109695 
L 335.677665 264.213928 
L 337.317335 261.62554 
L 338.957004 261.180828 
L 340.596674 262.367966 
L 342.236343 264.090848 
L 343.876012 263.792903 
L 345.515682 262.368662 
L 347.155351 263.462213 
L 348.795021 263.685382 
L 350.43469 261.419323 
L 352.07436 261.927898 
L 353.714029 262.670788 
L 355.353698 261.749548 
L 356.993368 262.893725 
L 358.633037 262.133882 
L 360.272707 263.997726 
L 361.912376 264.326093 
L 361.912376 264.326093 
" style="fill:none;stroke:#7f7f7f;stroke-linecap:square;stroke-width:0.5;"/>
   </g>
   <g id="line2d_24">
    <path clip-path="url(#p644385624b)" d="M 74.970227 256.55582 
L 76.609897 259.518091 
L 78.249566 262.88699 
L 79.889236 262.697958 
L 81.528905 260.227309 
L 83.168574 263.133382 
L 84.808244 260.142082 
L 86.447913 258.049496 
L 88.087583 264.414339 
L 89.727252 264.385311 
L 91.366921 263.625003 
L 93.006591 264.681166 
L 94.64626 262.607158 
L 96.28593 263.609677 
L 97.925599 263.784775 
L 99.565269 263.344707 
L 101.204938 22.796 
L 102.844607 264.270359 
L 104.484277 264.092706 
L 106.123946 263.218376 
L 107.763616 264.521627 
L 109.403285 264.23506 
L 111.042955 263.201192 
L 112.682624 256.81359 
L 114.322293 264.262928 
L 117.601632 262.45923 
L 119.241302 253.467218 
L 120.880971 264.236918 
L 122.52064 263.717429 
L 124.16031 246.903125 
L 125.799979 262.800138 
L 127.439649 260.513875 
L 130.718988 263.146386 
L 132.358657 263.925736 
L 133.998326 259.933775 
L 135.637996 242.215416 
L 137.277665 264.407372 
L 138.917335 255.105338 
L 140.557004 261.263268 
L 142.196674 264.716 
L 143.836343 252.457732 
L 145.476012 237.482656 
L 147.115682 226.865295 
L 148.755351 253.197603 
L 150.395021 180.162609 
L 152.03469 264.299619 
L 153.67436 264.716 
L 155.314029 264.715536 
L 156.953698 264.083185 
L 158.593368 264.63356 
L 160.233037 254.707071 
L 161.872707 261.94903 
L 163.512376 263.581577 
L 165.152045 258.89712 
L 166.791715 255.47179 
L 168.431384 245.415951 
L 170.071054 249.063521 
L 171.710723 254.55775 
L 173.350393 236.165007 
L 174.990062 262.381435 
L 176.629731 254.797871 
L 178.269401 244.288728 
L 179.90907 246.270078 
L 181.54874 262.973378 
L 183.188409 250.373042 
L 184.828079 261.773003 
L 186.467748 264.227165 
L 188.107417 252.058072 
L 189.747087 263.261802 
L 191.386756 261.911642 
L 193.026426 227.376888 
L 194.666095 263.597601 
L 196.305764 241.654823 
L 197.945434 201.532022 
L 199.585103 189.314393 
L 201.224773 232.825601 
L 202.864442 260.017609 
L 204.504112 228.627192 
L 206.143781 257.51259 
L 207.78345 264.049744 
L 209.42312 264.591991 
L 211.062789 264.659105 
L 212.702459 261.706587 
L 215.981798 263.500763 
L 217.621467 236.268347 
L 219.261136 227.209454 
L 220.900806 261.918144 
L 222.540475 263.014482 
L 224.180145 252.469808 
L 225.819814 257.782901 
L 227.459483 264.421306 
L 229.099153 227.35622 
L 230.738822 263.947565 
L 232.378492 263.358641 
L 234.018161 264.172824 
L 235.657831 253.90775 
L 237.2975 262.919037 
L 238.937169 253.123988 
L 240.576839 260.978559 
L 242.216508 262.673575 
L 243.856178 247.841549 
L 245.495847 259.243368 
L 247.135517 264.576665 
L 248.775186 262.82127 
L 250.414855 219.986536 
L 252.054525 258.658624 
L 253.694194 264.244117 
L 255.333864 264.284757 
L 256.973533 263.298494 
L 258.613202 259.793511 
L 260.252872 261.439759 
L 261.892541 262.768787 
L 263.532211 262.459927 
L 265.17188 253.243584 
L 266.81155 262.46968 
L 268.451219 264.216482 
L 270.090888 252.60357 
L 271.730558 262.943885 
L 273.370227 262.269734 
L 275.009897 242.17826 
L 276.649566 260.627898 
L 278.289236 254.910036 
L 279.928905 261.494565 
L 281.568574 263.72068 
L 283.208244 260.520378 
L 284.847913 261.455551 
L 286.487583 260.299763 
L 288.127252 262.402103 
L 289.766921 253.58124 
L 291.406591 262.4237 
L 293.04626 247.078688 
L 294.68593 262.551888 
L 296.325599 260.842707 
L 297.965269 261.626004 
L 299.604938 257.30916 
L 301.244607 259.911946 
L 302.884277 256.626184 
L 304.523946 258.676041 
L 306.163616 249.906733 
L 307.803285 255.602533 
L 309.442955 262.259284 
L 311.082624 264.309141 
L 312.722293 263.691885 
L 314.361963 264.374396 
L 316.001632 263.929219 
L 317.641302 263.189812 
L 319.280971 264.690687 
L 320.92064 246.804429 
L 322.56031 263.645439 
L 324.199979 256.475702 
L 325.839649 259.559892 
L 327.479318 214.397792 
L 329.118988 258.435455 
L 330.758657 263.490777 
L 332.398326 261.982006 
L 334.037996 262.752531 
L 335.677665 264.703924 
L 337.317335 264.149601 
L 338.957004 254.397978 
L 340.596674 263.372342 
L 342.236343 261.243761 
L 343.876012 263.827504 
L 345.515682 264.714142 
L 347.155351 263.629416 
L 348.795021 252.552016 
L 350.43469 264.715768 
L 352.07436 238.662362 
L 353.714029 247.061967 
L 355.353698 256.107856 
L 356.993368 264.188151 
L 358.633037 259.863179 
L 360.272707 263.807765 
L 361.912376 261.76743 
L 363.552045 232.582228 
L 365.191715 261.320163 
L 366.831384 262.816626 
L 368.471054 258.506748 
L 370.110723 262.733489 
L 371.750393 264.352102 
L 373.390062 264.444064 
L 375.029731 236.54307 
L 376.669401 264.169108 
L 378.30907 246.138638 
L 379.94874 262.952942 
L 381.588409 260.967412 
L 383.228079 254.543584 
L 384.867748 257.960553 
L 386.507417 255.775077 
L 388.147087 240.132119 
L 389.786756 251.606857 
L 391.426426 257.65657 
L 393.066095 252.82372 
L 394.705764 264.067161 
L 396.345434 263.117358 
L 397.985103 254.316235 
L 399.624773 263.532578 
L 399.624773 263.532578 
" style="fill:none;stroke:#bcbd22;stroke-linecap:square;stroke-width:0.5;"/>
   </g>
   <g id="line2d_25">
    <path clip-path="url(#p644385624b)" d="M 74.970227 258.138903 
L 76.609897 263.192135 
L 78.249566 261.116037 
L 79.889236 262.066769 
L 81.528905 263.259248 
L 83.168574 259.160928 
L 84.808244 262.768323 
L 86.447913 258.398531 
L 88.087583 263.266679 
L 89.727252 263.88231 
L 91.366921 264.11918 
L 93.006591 262.849137 
L 94.64626 264.062517 
L 97.925599 243.007538 
L 99.565269 262.416501 
L 101.204938 264.338401 
L 102.844607 260.513875 
L 104.484277 264.240866 
L 106.123946 264.372538 
L 107.763616 263.251585 
L 109.403285 263.866983 
L 111.042955 264.291027 
L 112.682624 262.16918 
L 114.322293 263.890205 
L 115.961963 261.968305 
L 117.601632 261.703568 
L 119.241302 264.624735 
L 124.16031 264.209748 
L 125.799979 262.413946 
L 127.439649 263.878826 
L 129.079318 262.8359 
L 130.718988 264.212767 
L 132.358657 262.468287 
L 135.637996 263.241134 
L 137.277665 263.925504 
L 138.917335 263.407176 
L 140.557004 264.237383 
L 142.196674 263.648458 
L 143.836343 263.963821 
L 145.476012 264.44476 
L 147.115682 263.305925 
L 148.755351 262.821735 
L 150.395021 263.777576 
L 152.03469 264.24435 
L 153.67436 263.397654 
L 155.314029 264.136132 
L 156.953698 264.167947 
L 158.593368 264.024896 
L 160.233037 264.029773 
L 163.512376 262.913232 
L 165.152045 262.864464 
L 166.791715 263.873253 
L 168.431384 262.305265 
L 170.071054 263.910177 
L 171.710723 264.426415 
L 173.350393 264.588276 
L 174.990062 263.844689 
L 176.629731 262.711892 
L 178.269401 263.260874 
L 181.54874 264.067394 
L 183.188409 263.808926 
L 186.467748 264.086436 
L 188.107417 263.393242 
L 189.747087 261.169216 
L 191.386756 264.276397 
L 193.026426 264.225539 
L 194.666095 262.468519 
L 196.305764 264.250155 
L 197.945434 263.288508 
L 199.585103 264.077611 
L 201.224773 263.458265 
L 202.864442 264.352102 
L 204.504112 263.785007 
L 206.143781 264.425718 
L 207.78345 264.214625 
L 209.42312 263.649387 
L 211.062789 264.437329 
L 212.702459 263.70605 
L 214.342128 263.772467 
L 215.981798 263.121306 
L 217.621467 263.154979 
L 220.900806 262.902317 
L 222.540475 262.961767 
L 225.819814 264.111749 
L 229.099153 263.564393 
L 230.738822 264.131488 
L 232.378492 263.618269 
L 234.018161 263.811481 
L 235.657831 264.27361 
L 237.2975 263.658212 
L 238.937169 263.286418 
L 240.576839 264.58874 
L 242.216508 264.548101 
L 245.495847 263.539777 
L 247.135517 264.234132 
L 248.775186 264.132649 
L 250.414855 261.546119 
L 252.054525 262.680541 
L 253.694194 262.290634 
L 255.333864 264.194189 
L 256.973533 264.237615 
L 258.613202 263.329612 
L 260.252872 264.458694 
L 261.892541 262.730238 
L 263.532211 264.199994 
L 265.17188 264.620091 
L 266.81155 264.041152 
L 268.451219 263.975432 
L 270.090888 263.757372 
L 271.730558 264.273842 
L 273.370227 263.315214 
L 275.009897 262.552121 
L 276.649566 263.551156 
L 278.289236 262.229327 
L 279.928905 260.641135 
L 281.568574 264.400405 
L 283.208244 264.095028 
L 284.847913 261.444172 
L 286.487583 263.250423 
L 288.127252 262.366804 
L 289.766921 259.428917 
L 291.406591 263.185168 
L 293.04626 263.251585 
L 294.68593 263.090652 
L 296.325599 263.697922 
L 297.965269 263.439455 
L 299.604938 261.984793 
L 301.244607 264.500495 
L 304.523946 263.749012 
L 306.163616 264.609873 
L 307.803285 263.571359 
L 309.442955 264.130791 
L 311.082624 264.050673 
L 312.722293 262.0252 
L 314.361963 261.709141 
L 316.001632 263.733917 
L 317.641302 262.658944 
L 319.280971 264.634257 
L 320.92064 263.252049 
L 322.56031 264.066697 
L 324.199979 264.647493 
L 325.839649 262.716304 
L 325.839649 262.716304 
" style="fill:none;stroke:#17becf;stroke-linecap:square;stroke-width:0.5;"/>
   </g>
   <g id="line2d_26">
    <path clip-path="url(#p644385624b)" d="M 74.970227 263.791742 
L 76.609897 262.486633 
L 78.249566 264.127076 
L 79.889236 264.678379 
L 83.168574 260.829006 
L 84.808244 263.721145 
L 86.447913 263.076486 
L 88.087583 263.320556 
L 89.727252 258.451711 
L 91.366921 263.200727 
L 93.006591 263.514696 
L 94.64626 263.006354 
L 96.28593 263.66843 
L 97.925599 261.688938 
L 99.565269 262.106944 
L 101.204938 261.606497 
L 102.844607 264.460087 
L 104.484277 264.303103 
L 106.123946 264.391813 
L 107.763616 260.437009 
L 111.042955 264.546243 
L 112.682624 263.679577 
L 114.322293 263.838187 
L 115.961963 258.055069 
L 117.601632 261.499906 
L 119.241302 263.768287 
L 120.880971 263.982399 
L 122.52064 263.972181 
L 124.16031 263.813106 
L 125.799979 263.527701 
L 127.439649 263.695136 
L 129.079318 263.240902 
L 130.718988 263.314982 
L 133.998326 262.632471 
L 135.637996 262.697958 
L 137.277665 263.981702 
L 138.917335 263.560445 
L 140.557004 261.760463 
L 142.196674 261.167823 
L 143.836343 264.111052 
L 145.476012 228.765366 
L 147.115682 264.023967 
L 148.755351 263.401602 
L 150.395021 257.898317 
L 152.03469 263.927129 
L 153.67436 233.887801 
L 155.314029 264.192099 
L 156.953698 264.540205 
L 158.593368 264.654228 
L 160.233037 263.428541 
L 161.872707 264.428272 
L 163.512376 241.626724 
L 165.152045 260.23474 
L 166.791715 263.122003 
L 168.431384 264.078076 
L 170.071054 263.264125 
L 171.710723 263.641259 
L 173.350393 262.408141 
L 174.990062 264.614285 
L 176.629731 264.647029 
L 178.269401 263.165661 
L 179.90907 263.690723 
L 181.54874 263.977987 
L 183.188409 262.300156 
L 184.828079 263.723003 
L 186.467748 256.670075 
L 188.107417 261.813875 
L 189.747087 262.010106 
L 191.386756 263.014482 
L 193.026426 264.262231 
L 194.666095 249.171274 
L 196.305764 264.521627 
L 197.945434 264.10873 
L 199.585103 262.105086 
L 201.224773 259.674611 
L 202.864442 262.411392 
L 204.504112 263.537454 
L 206.143781 264.380666 
L 207.78345 262.795029 
L 209.42312 259.635133 
L 211.062789 264.445689 
L 212.702459 264.026522 
L 214.342128 263.272717 
L 215.981798 264.153317 
L 217.621467 258.200443 
L 219.261136 259.645815 
L 220.900806 263.757372 
L 222.540475 259.867359 
L 224.180145 262.849602 
L 225.819814 262.994743 
L 227.459483 260.816465 
L 229.099153 263.700477 
L 230.738822 260.175755 
L 232.378492 263.999816 
L 234.018161 264.161909 
L 235.657831 263.682828 
L 237.2975 261.629023 
L 238.937169 264.258515 
L 240.576839 264.609176 
L 242.216508 264.513267 
L 243.856178 264.255961 
L 245.495847 264.655854 
L 247.135517 264.27988 
L 248.775186 262.228398 
L 250.414855 263.790116 
L 252.054525 264.514428 
L 253.694194 263.40764 
L 255.333864 264.14426 
L 256.973533 263.927826 
L 258.613202 263.835632 
L 260.252872 264.512106 
L 263.532211 264.527897 
L 265.17188 263.968465 
L 266.81155 264.301709 
L 268.451219 264.503281 
L 270.090888 263.18749 
L 271.730558 264.288472 
L 273.370227 264.233667 
L 275.009897 264.577361 
L 276.649566 263.886954 
L 278.289236 262.232114 
L 279.928905 263.323574 
L 281.568574 263.652174 
L 283.208244 263.652406 
L 284.847913 264.631005 
L 286.487583 264.335846 
L 288.127252 263.318698 
L 289.766921 264.050905 
L 291.406591 263.121074 
L 293.04626 264.58247 
L 294.68593 262.840313 
L 296.325599 264.225539 
L 297.965269 264.254335 
L 299.604938 263.148476 
L 302.884277 264.647958 
L 304.523946 264.359533 
L 306.163616 262.889312 
L 307.803285 264.540902 
L 311.082624 264.509087 
L 312.722293 261.573521 
L 314.361963 263.543492 
L 316.001632 264.563195 
L 317.641302 263.912731 
L 319.280971 264.584096 
L 320.92064 263.631274 
L 322.56031 264.332363 
L 324.199979 263.61316 
L 325.839649 260.148352 
L 327.479318 264.508855 
L 330.758657 264.623806 
L 335.677665 264.171895 
L 337.317335 262.656158 
L 338.957004 264.175146 
L 342.236343 264.314714 
L 343.876012 264.494224 
L 345.515682 264.222985 
L 347.155351 264.386007 
L 348.795021 264.251549 
L 350.43469 262.665911 
L 352.07436 264.64401 
L 353.714029 264.056247 
L 355.353698 263.686776 
L 356.993368 262.195422 
L 358.633037 264.564357 
L 360.272707 264.213464 
L 361.912376 264.498404 
L 363.552045 262.36634 
L 365.191715 263.106211 
L 366.831384 264.036043 
L 368.471054 264.263392 
L 370.110723 263.559748 
L 371.750393 262.978951 
L 373.390062 263.326593 
L 375.029731 259.87688 
L 376.669401 264.313321 
L 378.30907 263.469412 
L 379.94874 263.50982 
L 381.588409 264.575968 
L 383.228079 264.626825 
L 384.867748 264.094099 
L 386.507417 264.411088 
L 388.147087 263.73833 
L 389.786756 262.214929 
L 391.426426 264.529523 
L 393.066095 263.659605 
L 393.066095 263.659605 
" style="fill:none;stroke:#1f77b4;stroke-linecap:square;stroke-width:0.5;"/>
   </g>
   <g id="line2d_27">
    <path clip-path="url(#p644385624b)" d="M 74.970227 263.912034 
L 76.609897 255.785527 
L 78.249566 264.637508 
L 79.889236 259.657659 
L 81.528905 264.716 
L 84.808244 264.05764 
L 86.447913 264.468912 
L 88.087583 260.421914 
L 89.727252 263.445493 
L 91.366921 264.120109 
L 93.006591 262.939938 
L 94.64626 264.562963 
L 96.28593 263.516322 
L 97.925599 263.78222 
L 99.565269 264.477969 
L 101.204938 263.503782 
L 102.844607 262.163839 
L 104.484277 262.761124 
L 106.123946 261.627165 
L 107.763616 262.509159 
L 109.403285 264.504675 
L 111.042955 264.674199 
L 112.682624 264.515589 
L 114.322293 264.094099 
L 115.961963 263.478005 
L 117.601632 263.514 
L 119.241302 261.901192 
L 120.880971 263.572753 
L 122.52064 264.386936 
L 124.16031 262.614125 
L 125.799979 263.69978 
L 127.439649 263.939437 
L 129.079318 264.035579 
L 130.718988 261.581881 
L 132.358657 264.6252 
L 133.998326 263.726254 
L 135.637996 262.588116 
L 137.277665 262.97779 
L 138.917335 264.230184 
L 140.557004 263.97729 
L 142.196674 264.602674 
L 143.836343 264.523253 
L 145.476012 262.747887 
L 147.115682 260.407748 
L 148.755351 263.529791 
L 150.395021 264.649351 
L 152.03469 259.9426 
L 153.67436 262.226076 
L 155.314029 264.064142 
L 158.593368 264.644474 
L 160.233037 258.763125 
L 161.872707 264.346993 
L 163.512376 264.371841 
L 165.152045 259.968841 
L 166.791715 264.197672 
L 168.431384 264.109426 
L 170.071054 264.57411 
L 171.710723 260.977166 
L 173.350393 262.412321 
L 174.990062 264.251549 
L 176.629731 264.064839 
L 178.269401 261.225647 
L 179.90907 263.916215 
L 181.54874 263.882774 
L 183.188409 263.998422 
L 184.828079 258.559231 
L 186.467748 264.088991 
L 188.107417 263.053032 
L 189.747087 262.512178 
L 191.386756 264.044635 
L 193.026426 263.71859 
L 194.666095 261.703568 
L 196.305764 264.682095 
L 197.945434 261.354068 
L 199.585103 260.848977 
L 201.224773 261.389599 
L 202.864442 264.177004 
L 204.504112 260.897744 
L 206.143781 260.047566 
L 207.78345 262.126451 
L 209.42312 262.58649 
L 211.062789 262.207033 
L 212.702459 263.116894 
L 214.342128 263.007515 
L 215.981798 259.586598 
L 217.621467 263.567644 
L 219.261136 262.256265 
L 220.900806 261.473432 
L 222.540475 261.857301 
L 224.180145 263.797547 
L 225.819814 261.620895 
L 227.459483 257.097835 
L 229.099153 264.040223 
L 230.738822 261.427916 
L 232.378492 261.121842 
L 234.018161 262.270663 
L 235.657831 260.175058 
L 237.2975 262.889777 
L 238.937169 263.81241 
L 240.576839 261.985025 
L 242.216508 261.101174 
L 243.856178 262.130399 
L 245.495847 263.008676 
L 247.135517 258.071789 
L 248.775186 264.411784 
L 250.414855 262.36007 
L 252.054525 263.278987 
L 253.694194 261.253746 
L 255.333864 264.093403 
L 256.973533 263.659141 
L 258.613202 258.168628 
L 260.252872 260.95882 
L 261.892541 261.096297 
L 263.532211 262.705854 
L 265.17188 262.204943 
L 266.81155 263.957086 
L 268.451219 262.424861 
L 270.090888 256.910196 
L 271.730558 261.279059 
L 273.370227 261.6829 
L 275.009897 261.553782 
L 276.649566 261.156676 
L 278.289236 263.909712 
L 279.928905 258.976541 
L 281.568574 257.066484 
L 283.208244 262.299227 
L 284.847913 260.898209 
L 286.487583 264.607086 
L 288.127252 262.931577 
L 289.766921 259.64628 
L 291.406591 262.081863 
L 293.04626 261.346172 
L 294.68593 261.297173 
L 296.325599 260.992725 
L 297.965269 261.650388 
L 299.604938 263.230684 
L 301.244607 257.602926 
L 302.884277 260.888688 
L 304.523946 258.68324 
L 306.163616 263.922485 
L 307.803285 261.620663 
L 309.442955 261.621824 
L 311.082624 260.989241 
L 312.722293 264.088294 
L 314.361963 261.639938 
L 316.001632 263.059998 
L 317.641302 263.019823 
L 319.280971 262.501495 
L 320.92064 263.389294 
L 322.56031 263.15196 
L 324.199979 259.507873 
L 325.839649 257.879274 
L 327.479318 261.14878 
L 329.118988 262.772503 
L 330.758657 261.351281 
L 332.398326 261.154354 
L 334.037996 260.709874 
L 335.677665 263.212106 
L 337.317335 261.757676 
L 338.957004 264.41759 
L 340.596674 263.797083 
L 342.236343 253.764699 
L 343.876012 264.576665 
L 345.515682 264.513267 
L 347.155351 263.120145 
L 348.795021 264.263856 
L 350.43469 262.554211 
L 352.07436 264.131488 
L 353.714029 260.555211 
L 355.353698 264.445457 
L 356.993368 259.409874 
L 358.633037 264.324235 
L 360.272707 264.438026 
L 361.912376 263.695136 
L 365.191715 264.359998 
L 366.831384 263.73833 
L 368.471054 261.8854 
L 370.110723 263.720913 
L 371.750393 262.221199 
L 373.390062 262.725129 
L 376.669401 264.40505 
L 378.30907 262.510552 
L 381.588409 264.539741 
L 383.228079 264.361159 
L 384.867748 263.913892 
L 386.507417 264.373699 
L 388.147087 262.587651 
L 389.786756 263.382095 
L 391.426426 262.612035 
L 393.066095 263.203514 
L 394.705764 263.073235 
L 396.345434 263.971717 
L 397.985103 263.735543 
L 397.985103 263.735543 
" style="fill:none;stroke:#ff7f0e;stroke-linecap:square;stroke-width:0.5;"/>
   </g>
   <g id="line2d_28">
    <path clip-path="url(#p644385624b)" d="M 74.970227 260.579827 
L 76.609897 263.758998 
L 78.249566 262.433453 
L 79.889236 263.250656 
L 81.528905 264.209051 
L 83.168574 264.039759 
L 84.808244 264.036972 
L 86.447913 262.72838 
L 88.087583 262.841474 
L 89.727252 262.370752 
L 91.366921 264.348619 
L 93.006591 264.263856 
L 94.64626 263.786865 
L 96.28593 263.827272 
L 97.925599 262.617376 
L 99.565269 264.584328 
L 101.204938 264.534167 
L 102.844607 262.935525 
L 104.484277 262.507301 
L 106.123946 262.299227 
L 107.763616 262.744403 
L 109.403285 262.047726 
L 111.042955 264.64192 
L 112.682624 260.849674 
L 114.322293 264.087365 
L 115.961963 254.709393 
L 117.601632 262.885365 
L 119.241302 260.487169 
L 120.880971 263.296636 
L 122.52064 262.369591 
L 124.16031 263.284096 
L 125.799979 260.311142 
L 127.439649 263.628951 
L 129.079318 264.579219 
L 130.718988 259.904515 
L 132.358657 252.866217 
L 133.998326 263.121074 
L 135.637996 263.921788 
L 137.277665 263.409498 
L 138.917335 264.267804 
L 140.557004 264.296368 
L 142.196674 261.038009 
L 143.836343 260.926773 
L 145.476012 264.21834 
L 147.115682 263.826575 
L 148.755351 264.087829 
L 150.395021 264.071341 
L 152.03469 264.343278 
L 153.67436 264.304032 
L 155.314029 264.453353 
L 156.953698 260.699191 
L 158.593368 264.108497 
L 160.233037 264.594081 
L 161.872707 264.635882 
L 163.512376 263.581113 
L 165.152045 264.261302 
L 166.791715 264.086204 
L 168.431384 261.216823 
L 170.071054 259.914036 
L 171.710723 261.390295 
L 173.350393 263.09251 
L 176.629731 264.139383 
L 178.269401 264.243653 
L 179.90907 264.195814 
L 181.54874 263.965446 
L 183.188409 263.158462 
L 184.828079 261.74862 
L 186.467748 263.083918 
L 188.107417 262.37261 
L 189.747087 264.292188 
L 191.386756 264.19953 
L 193.026426 261.917215 
L 194.666095 261.932775 
L 196.305764 264.033024 
L 197.945434 263.297333 
L 199.585103 264.022806 
L 201.224773 264.604764 
L 206.143781 264.588044 
L 207.78345 263.762249 
L 209.42312 264.058569 
L 211.062789 264.513964 
L 212.702459 264.058104 
L 215.981798 264.209051 
L 217.621467 264.080166 
L 219.261136 263.250656 
L 222.540475 264.247368 
L 224.180145 263.441313 
L 225.819814 264.465196 
L 227.459483 264.426879 
L 229.099153 264.265482 
L 230.738822 263.341224 
L 232.378492 263.727879 
L 234.018161 261.652246 
L 235.657831 264.572252 
L 237.2975 259.702943 
L 238.937169 264.291724 
L 240.576839 264.336543 
L 242.216508 259.688777 
L 243.856178 263.945475 
L 245.495847 264.05555 
L 247.135517 262.655229 
L 248.775186 262.814071 
L 250.414855 264.592456 
L 252.054525 264.28406 
L 253.694194 262.993349 
L 255.333864 264.024664 
L 256.973533 264.469144 
L 258.613202 263.816125 
L 260.252872 263.773164 
L 261.892541 262.1931 
L 263.532211 261.564929 
L 265.17188 264.536722 
L 266.81155 264.626129 
L 268.451219 260.291403 
L 270.090888 261.09444 
L 271.730558 264.211373 
L 273.370227 264.52302 
L 275.009897 263.027487 
L 276.649566 262.641992 
L 278.289236 263.886954 
L 279.928905 261.613929 
L 281.568574 264.035811 
L 283.208244 263.139652 
L 284.847913 264.206265 
L 286.487583 264.310302 
L 288.127252 264.65864 
L 289.766921 263.891831 
L 291.406591 263.614786 
L 293.04626 262.263 
L 294.68593 264.295671 
L 296.325599 263.809158 
L 297.965269 261.955068 
L 299.604938 264.441045 
L 301.244607 264.460552 
L 304.523946 263.552549 
L 306.163616 264.500727 
L 307.803285 264.177469 
L 309.442955 261.108605 
L 311.082624 264.343742 
L 312.722293 261.775093 
L 314.361963 261.153889 
L 316.001632 264.221824 
L 317.641302 264.164696 
L 319.280971 262.598566 
L 320.92064 262.45923 
L 322.56031 264.220895 
L 324.199979 262.67102 
L 325.839649 264.464035 
L 327.479318 264.630541 
L 329.118988 263.964053 
L 330.758657 264.376486 
L 332.398326 264.54694 
L 334.037996 262.760195 
L 335.677665 264.636579 
L 337.317335 264.513964 
L 338.957004 264.178397 
L 340.596674 264.562499 
L 342.236343 264.194885 
L 343.876012 264.448244 
L 345.515682 264.314946 
L 347.155351 264.630773 
L 348.795021 264.280577 
L 350.43469 264.607783 
L 352.07436 264.026057 
L 353.714029 264.103156 
L 355.353698 263.556729 
L 358.633037 264.13381 
L 360.272707 263.943153 
L 361.912376 264.245743 
L 363.552045 263.568108 
L 365.191715 264.331202 
L 366.831384 262.101835 
L 368.471054 264.465428 
L 370.110723 263.047458 
L 371.750393 264.435239 
L 373.390062 264.551816 
L 375.029731 263.990295 
L 376.669401 264.223449 
L 378.30907 263.855604 
L 379.94874 264.559015 
L 381.588409 264.248762 
L 383.228079 260.366876 
L 384.867748 264.338865 
L 386.507417 264.061123 
L 388.147087 264.060659 
L 389.786756 262.633632 
L 391.426426 264.379737 
L 394.705764 264.303567 
L 394.705764 264.303567 
" style="fill:none;stroke:#2ca02c;stroke-linecap:square;stroke-width:0.5;"/>
   </g>
   <g id="patch_3">
    <path d="M 58.7375 276.812 
L 58.7375 10.7 
" style="fill:none;stroke:#000000;stroke-linecap:square;stroke-linejoin:miter;stroke-width:0.8;"/>
   </g>
   <g id="patch_4">
    <path d="M 415.8575 276.812 
L 415.8575 10.7 
" style="fill:none;stroke:#000000;stroke-linecap:square;stroke-linejoin:miter;stroke-width:0.8;"/>
   </g>
   <g id="patch_5">
    <path d="M 58.7375 276.812 
L 415.8575 276.812 
" style="fill:none;stroke:#000000;stroke-linecap:square;stroke-linejoin:miter;stroke-width:0.8;"/>
   </g>
   <g id="patch_6">
    <path d="M 58.7375 10.7 
L 415.8575 10.7 
" style="fill:none;stroke:#000000;stroke-linecap:square;stroke-linejoin:miter;stroke-width:0.8;"/>
   </g>
  </g>
 </g>
 <defs>
  <clipPath id="p644385624b">
   <rect height="266.112" width="357.12" x="58.7375" y="10.7"/>
  </clipPath>
 </defs>
</svg>
