<?xml version="1.0" encoding="utf-8" standalone="no"?>
<!DOCTYPE svg PUBLIC "-//W3C//DTD SVG 1.1//EN"
  "http://www.w3.org/Graphics/SVG/1.1/DTD/svg11.dtd">
<!-- Created with matplotlib (http://matplotlib.org/) -->
<svg height="300pt" version="1.1" viewBox="0 0 401 300" width="401pt" xmlns="http://www.w3.org/2000/svg" xmlns:xlink="http://www.w3.org/1999/xlink">
 <defs>
  <style type="text/css">
*{stroke-linecap:butt;stroke-linejoin:round;}
  </style>
 </defs>
 <g id="figure_1">
  <g id="patch_1">
   <path d="M 0 300.690125 
L 401.1075 300.690125 
L 401.1075 0 
L 0 0 
z
" style="fill:#ffffff;"/>
  </g>
  <g id="axes_1">
   <g id="patch_2">
    <path d="M 33.2875 276.812 
L 390.4075 276.812 
L 390.4075 10.7 
L 33.2875 10.7 
z
" style="fill:#ffffff;"/>
   </g>
   <g id="matplotlib.axis_1">
    <g id="xtick_1">
     <g id="line2d_1">
      <defs>
       <path d="M 0 0 
L 0 3.5 
" id="m0caa5293f9" style="stroke:#000000;stroke-width:0.8;"/>
      </defs>
      <g>
       <use style="stroke:#000000;stroke-width:0.8;" x="49.520227" xlink:href="#m0caa5293f9" y="276.812"/>
      </g>
     </g>
     <g id="text_1">
      <!-- 0 -->
      <defs>
       <path d="M 31.78125 66.40625 
Q 24.171875 66.40625 20.328125 58.90625 
Q 16.5 51.421875 16.5 36.375 
Q 16.5 21.390625 20.328125 13.890625 
Q 24.171875 6.390625 31.78125 6.390625 
Q 39.453125 6.390625 43.28125 13.890625 
Q 47.125 21.390625 47.125 36.375 
Q 47.125 51.421875 43.28125 58.90625 
Q 39.453125 66.40625 31.78125 66.40625 
M 31.78125 74.21875 
Q 44.046875 74.21875 50.515625 64.515625 
Q 56.984375 54.828125 56.984375 36.375 
Q 56.984375 17.96875 50.515625 8.265625 
Q 44.046875 -1.421875 31.78125 -1.421875 
Q 19.53125 -1.421875 13.0625 8.265625 
Q 6.59375 17.96875 6.59375 36.375 
Q 6.59375 54.828125 13.0625 64.515625 
Q 19.53125 74.21875 31.78125 74.21875 
" id="DejaVuSans-30"/>
      </defs>
      <g transform="translate(46.338977 291.410437)scale(0.1 -0.1)">
       <use xlink:href="#DejaVuSans-30"/>
      </g>
     </g>
    </g>
    <g id="xtick_2">
     <g id="line2d_2">
      <g>
       <use style="stroke:#000000;stroke-width:0.8;" x="90.511963" xlink:href="#m0caa5293f9" y="276.812"/>
      </g>
     </g>
     <g id="text_2">
      <!-- 25 -->
      <defs>
       <path d="M 19.1875 8.296875 
L 53.609375 8.296875 
L 53.609375 0 
L 7.328125 0 
L 7.328125 8.296875 
Q 12.9375 14.109375 22.625 23.890625 
Q 32.328125 33.6875 34.8125 36.53125 
Q 39.546875 41.84375 41.421875 45.53125 
Q 43.3125 49.21875 43.3125 52.78125 
Q 43.3125 58.59375 39.234375 62.25 
Q 35.15625 65.921875 28.609375 65.921875 
Q 23.96875 65.921875 18.8125 64.3125 
Q 13.671875 62.703125 7.8125 59.421875 
L 7.8125 69.390625 
Q 13.765625 71.78125 18.9375 73 
Q 24.125 74.21875 28.421875 74.21875 
Q 39.75 74.21875 46.484375 68.546875 
Q 53.21875 62.890625 53.21875 53.421875 
Q 53.21875 48.921875 51.53125 44.890625 
Q 49.859375 40.875 45.40625 35.40625 
Q 44.1875 33.984375 37.640625 27.21875 
Q 31.109375 20.453125 19.1875 8.296875 
" id="DejaVuSans-32"/>
       <path d="M 10.796875 72.90625 
L 49.515625 72.90625 
L 49.515625 64.59375 
L 19.828125 64.59375 
L 19.828125 46.734375 
Q 21.96875 47.46875 24.109375 47.828125 
Q 26.265625 48.1875 28.421875 48.1875 
Q 40.625 48.1875 47.75 41.5 
Q 54.890625 34.8125 54.890625 23.390625 
Q 54.890625 11.625 47.5625 5.09375 
Q 40.234375 -1.421875 26.90625 -1.421875 
Q 22.3125 -1.421875 17.546875 -0.640625 
Q 12.796875 0.140625 7.71875 1.703125 
L 7.71875 11.625 
Q 12.109375 9.234375 16.796875 8.0625 
Q 21.484375 6.890625 26.703125 6.890625 
Q 35.15625 6.890625 40.078125 11.328125 
Q 45.015625 15.765625 45.015625 23.390625 
Q 45.015625 31 40.078125 35.4375 
Q 35.15625 39.890625 26.703125 39.890625 
Q 22.75 39.890625 18.8125 39.015625 
Q 14.890625 38.140625 10.796875 36.28125 
z
" id="DejaVuSans-35"/>
      </defs>
      <g transform="translate(84.149463 291.410437)scale(0.1 -0.1)">
       <use xlink:href="#DejaVuSans-32"/>
       <use x="63.623047" xlink:href="#DejaVuSans-35"/>
      </g>
     </g>
    </g>
    <g id="xtick_3">
     <g id="line2d_3">
      <g>
       <use style="stroke:#000000;stroke-width:0.8;" x="131.503698" xlink:href="#m0caa5293f9" y="276.812"/>
      </g>
     </g>
     <g id="text_3">
      <!-- 50 -->
      <g transform="translate(125.141198 291.410437)scale(0.1 -0.1)">
       <use xlink:href="#DejaVuSans-35"/>
       <use x="63.623047" xlink:href="#DejaVuSans-30"/>
      </g>
     </g>
    </g>
    <g id="xtick_4">
     <g id="line2d_4">
      <g>
       <use style="stroke:#000000;stroke-width:0.8;" x="172.495434" xlink:href="#m0caa5293f9" y="276.812"/>
      </g>
     </g>
     <g id="text_4">
      <!-- 75 -->
      <defs>
       <path d="M 8.203125 72.90625 
L 55.078125 72.90625 
L 55.078125 68.703125 
L 28.609375 0 
L 18.3125 0 
L 43.21875 64.59375 
L 8.203125 64.59375 
z
" id="DejaVuSans-37"/>
      </defs>
      <g transform="translate(166.132934 291.410437)scale(0.1 -0.1)">
       <use xlink:href="#DejaVuSans-37"/>
       <use x="63.623047" xlink:href="#DejaVuSans-35"/>
      </g>
     </g>
    </g>
    <g id="xtick_5">
     <g id="line2d_5">
      <g>
       <use style="stroke:#000000;stroke-width:0.8;" x="213.487169" xlink:href="#m0caa5293f9" y="276.812"/>
      </g>
     </g>
     <g id="text_5">
      <!-- 100 -->
      <defs>
       <path d="M 12.40625 8.296875 
L 28.515625 8.296875 
L 28.515625 63.921875 
L 10.984375 60.40625 
L 10.984375 69.390625 
L 28.421875 72.90625 
L 38.28125 72.90625 
L 38.28125 8.296875 
L 54.390625 8.296875 
L 54.390625 0 
L 12.40625 0 
z
" id="DejaVuSans-31"/>
      </defs>
      <g transform="translate(203.943419 291.410437)scale(0.1 -0.1)">
       <use xlink:href="#DejaVuSans-31"/>
       <use x="63.623047" xlink:href="#DejaVuSans-30"/>
       <use x="127.246094" xlink:href="#DejaVuSans-30"/>
      </g>
     </g>
    </g>
    <g id="xtick_6">
     <g id="line2d_6">
      <g>
       <use style="stroke:#000000;stroke-width:0.8;" x="254.478905" xlink:href="#m0caa5293f9" y="276.812"/>
      </g>
     </g>
     <g id="text_6">
      <!-- 125 -->
      <g transform="translate(244.935155 291.410437)scale(0.1 -0.1)">
       <use xlink:href="#DejaVuSans-31"/>
       <use x="63.623047" xlink:href="#DejaVuSans-32"/>
       <use x="127.246094" xlink:href="#DejaVuSans-35"/>
      </g>
     </g>
    </g>
    <g id="xtick_7">
     <g id="line2d_7">
      <g>
       <use style="stroke:#000000;stroke-width:0.8;" x="295.47064" xlink:href="#m0caa5293f9" y="276.812"/>
      </g>
     </g>
     <g id="text_7">
      <!-- 150 -->
      <g transform="translate(285.92689 291.410437)scale(0.1 -0.1)">
       <use xlink:href="#DejaVuSans-31"/>
       <use x="63.623047" xlink:href="#DejaVuSans-35"/>
       <use x="127.246094" xlink:href="#DejaVuSans-30"/>
      </g>
     </g>
    </g>
    <g id="xtick_8">
     <g id="line2d_8">
      <g>
       <use style="stroke:#000000;stroke-width:0.8;" x="336.462376" xlink:href="#m0caa5293f9" y="276.812"/>
      </g>
     </g>
     <g id="text_8">
      <!-- 175 -->
      <g transform="translate(326.918626 291.410437)scale(0.1 -0.1)">
       <use xlink:href="#DejaVuSans-31"/>
       <use x="63.623047" xlink:href="#DejaVuSans-37"/>
       <use x="127.246094" xlink:href="#DejaVuSans-35"/>
      </g>
     </g>
    </g>
    <g id="xtick_9">
     <g id="line2d_9">
      <g>
       <use style="stroke:#000000;stroke-width:0.8;" x="377.454112" xlink:href="#m0caa5293f9" y="276.812"/>
      </g>
     </g>
     <g id="text_9">
      <!-- 200 -->
      <g transform="translate(367.910362 291.410437)scale(0.1 -0.1)">
       <use xlink:href="#DejaVuSans-32"/>
       <use x="63.623047" xlink:href="#DejaVuSans-30"/>
       <use x="127.246094" xlink:href="#DejaVuSans-30"/>
      </g>
     </g>
    </g>
   </g>
   <g id="matplotlib.axis_2">
    <g id="ytick_1">
     <g id="line2d_10">
      <defs>
       <path d="M 0 0 
L -3.5 0 
" id="m75a874a032" style="stroke:#000000;stroke-width:0.8;"/>
      </defs>
      <g>
       <use style="stroke:#000000;stroke-width:0.8;" x="33.2875" xlink:href="#m75a874a032" y="264.716"/>
      </g>
     </g>
     <g id="text_10">
      <!-- 0 -->
      <g transform="translate(19.925 268.515219)scale(0.1 -0.1)">
       <use xlink:href="#DejaVuSans-30"/>
      </g>
     </g>
    </g>
    <g id="ytick_2">
     <g id="line2d_11">
      <g>
       <use style="stroke:#000000;stroke-width:0.8;" x="33.2875" xlink:href="#m75a874a032" y="216.332"/>
      </g>
     </g>
     <g id="text_11">
      <!-- 20 -->
      <g transform="translate(13.5625 220.131219)scale(0.1 -0.1)">
       <use xlink:href="#DejaVuSans-32"/>
       <use x="63.623047" xlink:href="#DejaVuSans-30"/>
      </g>
     </g>
    </g>
    <g id="ytick_3">
     <g id="line2d_12">
      <g>
       <use style="stroke:#000000;stroke-width:0.8;" x="33.2875" xlink:href="#m75a874a032" y="167.948"/>
      </g>
     </g>
     <g id="text_12">
      <!-- 40 -->
      <defs>
       <path d="M 37.796875 64.3125 
L 12.890625 25.390625 
L 37.796875 25.390625 
z
M 35.203125 72.90625 
L 47.609375 72.90625 
L 47.609375 25.390625 
L 58.015625 25.390625 
L 58.015625 17.1875 
L 47.609375 17.1875 
L 47.609375 0 
L 37.796875 0 
L 37.796875 17.1875 
L 4.890625 17.1875 
L 4.890625 26.703125 
z
" id="DejaVuSans-34"/>
      </defs>
      <g transform="translate(13.5625 171.747219)scale(0.1 -0.1)">
       <use xlink:href="#DejaVuSans-34"/>
       <use x="63.623047" xlink:href="#DejaVuSans-30"/>
      </g>
     </g>
    </g>
    <g id="ytick_4">
     <g id="line2d_13">
      <g>
       <use style="stroke:#000000;stroke-width:0.8;" x="33.2875" xlink:href="#m75a874a032" y="119.564"/>
      </g>
     </g>
     <g id="text_13">
      <!-- 60 -->
      <defs>
       <path d="M 33.015625 40.375 
Q 26.375 40.375 22.484375 35.828125 
Q 18.609375 31.296875 18.609375 23.390625 
Q 18.609375 15.53125 22.484375 10.953125 
Q 26.375 6.390625 33.015625 6.390625 
Q 39.65625 6.390625 43.53125 10.953125 
Q 47.40625 15.53125 47.40625 23.390625 
Q 47.40625 31.296875 43.53125 35.828125 
Q 39.65625 40.375 33.015625 40.375 
M 52.59375 71.296875 
L 52.59375 62.3125 
Q 48.875 64.0625 45.09375 64.984375 
Q 41.3125 65.921875 37.59375 65.921875 
Q 27.828125 65.921875 22.671875 59.328125 
Q 17.53125 52.734375 16.796875 39.40625 
Q 19.671875 43.65625 24.015625 45.921875 
Q 28.375 48.1875 33.59375 48.1875 
Q 44.578125 48.1875 50.953125 41.515625 
Q 57.328125 34.859375 57.328125 23.390625 
Q 57.328125 12.15625 50.6875 5.359375 
Q 44.046875 -1.421875 33.015625 -1.421875 
Q 20.359375 -1.421875 13.671875 8.265625 
Q 6.984375 17.96875 6.984375 36.375 
Q 6.984375 53.65625 15.1875 63.9375 
Q 23.390625 74.21875 37.203125 74.21875 
Q 40.921875 74.21875 44.703125 73.484375 
Q 48.484375 72.75 52.59375 71.296875 
" id="DejaVuSans-36"/>
      </defs>
      <g transform="translate(13.5625 123.363219)scale(0.1 -0.1)">
       <use xlink:href="#DejaVuSans-36"/>
       <use x="63.623047" xlink:href="#DejaVuSans-30"/>
      </g>
     </g>
    </g>
    <g id="ytick_5">
     <g id="line2d_14">
      <g>
       <use style="stroke:#000000;stroke-width:0.8;" x="33.2875" xlink:href="#m75a874a032" y="71.18"/>
      </g>
     </g>
     <g id="text_14">
      <!-- 80 -->
      <defs>
       <path d="M 31.78125 34.625 
Q 24.75 34.625 20.71875 30.859375 
Q 16.703125 27.09375 16.703125 20.515625 
Q 16.703125 13.921875 20.71875 10.15625 
Q 24.75 6.390625 31.78125 6.390625 
Q 38.8125 6.390625 42.859375 10.171875 
Q 46.921875 13.96875 46.921875 20.515625 
Q 46.921875 27.09375 42.890625 30.859375 
Q 38.875 34.625 31.78125 34.625 
M 21.921875 38.8125 
Q 15.578125 40.375 12.03125 44.71875 
Q 8.5 49.078125 8.5 55.328125 
Q 8.5 64.0625 14.71875 69.140625 
Q 20.953125 74.21875 31.78125 74.21875 
Q 42.671875 74.21875 48.875 69.140625 
Q 55.078125 64.0625 55.078125 55.328125 
Q 55.078125 49.078125 51.53125 44.71875 
Q 48 40.375 41.703125 38.8125 
Q 48.828125 37.15625 52.796875 32.3125 
Q 56.78125 27.484375 56.78125 20.515625 
Q 56.78125 9.90625 50.3125 4.234375 
Q 43.84375 -1.421875 31.78125 -1.421875 
Q 19.734375 -1.421875 13.25 4.234375 
Q 6.78125 9.90625 6.78125 20.515625 
Q 6.78125 27.484375 10.78125 32.3125 
Q 14.796875 37.15625 21.921875 38.8125 
M 18.3125 54.390625 
Q 18.3125 48.734375 21.84375 45.5625 
Q 25.390625 42.390625 31.78125 42.390625 
Q 38.140625 42.390625 41.71875 45.5625 
Q 45.3125 48.734375 45.3125 54.390625 
Q 45.3125 60.0625 41.71875 63.234375 
Q 38.140625 66.40625 31.78125 66.40625 
Q 25.390625 66.40625 21.84375 63.234375 
Q 18.3125 60.0625 18.3125 54.390625 
" id="DejaVuSans-38"/>
      </defs>
      <g transform="translate(13.5625 74.979219)scale(0.1 -0.1)">
       <use xlink:href="#DejaVuSans-38"/>
       <use x="63.623047" xlink:href="#DejaVuSans-30"/>
      </g>
     </g>
    </g>
    <g id="ytick_6">
     <g id="line2d_15">
      <g>
       <use style="stroke:#000000;stroke-width:0.8;" x="33.2875" xlink:href="#m75a874a032" y="22.796"/>
      </g>
     </g>
     <g id="text_15">
      <!-- 100 -->
      <g transform="translate(7.2 26.595219)scale(0.1 -0.1)">
       <use xlink:href="#DejaVuSans-31"/>
       <use x="63.623047" xlink:href="#DejaVuSans-30"/>
       <use x="127.246094" xlink:href="#DejaVuSans-30"/>
      </g>
     </g>
    </g>
   </g>
   <g id="line2d_16">
    <path clip-path="url(#pce2dec8e59)" d="M 49.520227 264.716 
L 51.159897 192.14 
L 52.799566 182.4632 
L 54.439236 167.948 
L 56.078905 160.6904 
L 57.718574 201.8168 
L 59.358244 172.7864 
L 60.997913 213.9128 
L 62.637583 216.332 
L 64.277252 192.14 
L 65.916921 192.14 
L 67.556591 151.0136 
L 69.19626 148.5944 
L 70.83593 167.948 
L 72.475599 172.7864 
L 74.115269 172.7864 
L 75.754938 182.4632 
L 77.394607 167.948 
L 79.034277 182.4632 
L 80.673946 201.8168 
L 82.313616 172.7864 
L 83.953285 148.5944 
L 85.592955 105.0488 
L 87.232624 78.4376 
L 90.511963 141.3368 
L 92.151632 119.564 
L 93.791302 143.756 
L 95.430971 117.1448 
L 97.07064 126.8216 
L 98.71031 143.756 
L 100.349979 134.0792 
L 101.989649 141.3368 
L 103.629318 141.3368 
L 105.268988 134.0792 
L 106.908657 119.564 
L 108.548326 134.0792 
L 110.187996 102.6296 
L 111.827665 109.8872 
L 113.467335 143.756 
L 115.107004 126.8216 
L 118.386343 112.3064 
L 120.026012 78.4376 
L 121.665682 71.18 
L 123.305351 71.18 
L 124.945021 76.0184 
L 126.58469 105.0488 
L 128.22436 119.564 
L 129.864029 175.2056 
L 131.503698 172.7864 
L 133.143368 141.3368 
L 134.783037 160.6904 
L 136.422707 134.0792 
L 138.062376 151.0136 
L 139.702045 182.4632 
L 141.341715 148.5944 
L 142.981384 151.0136 
L 144.621054 129.2408 
L 146.260723 126.8216 
L 147.900393 141.3368 
L 149.540062 102.6296 
L 151.179731 117.1448 
L 152.819401 126.8216 
L 154.45907 141.3368 
L 156.09874 148.5944 
L 157.738409 151.0136 
L 159.378079 143.756 
L 161.017748 148.5944 
L 162.657417 151.0136 
L 164.297087 172.7864 
L 165.936756 151.0136 
L 167.576426 119.564 
L 169.216095 105.0488 
L 170.855764 105.0488 
L 172.495434 117.1448 
L 174.135103 126.8216 
L 175.774773 134.0792 
L 177.414442 105.0488 
L 179.054112 126.8216 
L 180.693781 136.4984 
L 182.33345 143.756 
L 183.97312 141.3368 
L 185.612789 126.8216 
L 187.252459 119.564 
L 188.892128 119.564 
L 190.531798 175.2056 
L 193.811136 175.2056 
L 195.450806 160.6904 
L 197.090475 134.0792 
L 198.730145 129.2408 
L 200.369814 141.3368 
L 202.009483 136.4984 
L 203.649153 112.3064 
L 205.288822 129.2408 
L 206.928492 105.0488 
L 208.568161 172.7864 
L 210.207831 175.2056 
L 211.8475 209.0744 
L 213.487169 213.9128 
L 215.126839 151.0136 
L 216.766508 143.756 
L 218.406178 95.372 
L 220.045847 141.3368 
L 221.685517 160.6904 
L 223.325186 160.6904 
L 224.964855 180.044 
L 226.604525 160.6904 
L 228.244194 143.756 
L 229.883864 143.756 
L 231.523533 126.8216 
L 233.163202 126.8216 
L 234.802872 129.2408 
L 236.442541 117.1448 
L 238.082211 117.1448 
L 239.72188 85.6952 
L 241.36155 85.6952 
L 243.001219 112.3064 
L 244.640888 112.3064 
L 246.280558 148.5944 
L 247.920227 172.7864 
L 249.559897 172.7864 
L 251.199566 175.2056 
L 252.839236 167.948 
L 254.478905 158.2712 
L 256.118574 141.3368 
L 257.758244 129.2408 
L 259.397913 119.564 
L 261.037583 129.2408 
L 262.677252 141.3368 
L 264.316921 199.3976 
L 265.956591 175.2056 
L 267.59626 175.2056 
L 269.23593 206.6552 
L 270.875599 192.14 
L 272.515269 209.0744 
L 274.154938 213.9128 
L 275.794607 206.6552 
L 277.434277 167.948 
L 279.073946 136.4984 
L 280.713616 158.2712 
L 282.353285 136.4984 
L 283.992955 167.948 
L 285.632624 201.8168 
L 287.272293 167.948 
L 288.911963 180.044 
L 290.551632 151.0136 
L 292.191302 141.3368 
L 293.830971 143.756 
L 295.47064 141.3368 
L 297.11031 148.5944 
L 298.749979 143.756 
L 300.389649 136.4984 
L 302.029318 158.2712 
L 303.668988 175.2056 
L 305.308657 201.8168 
L 306.948326 192.14 
L 308.587996 175.2056 
L 310.227665 151.0136 
L 311.867335 136.4984 
L 313.507004 160.6904 
L 315.146674 158.2712 
L 316.786343 182.4632 
L 318.426012 199.3976 
L 320.065682 201.8168 
L 321.705351 223.5896 
L 323.345021 182.4632 
L 324.98469 167.948 
L 326.62436 134.0792 
L 328.264029 117.1448 
L 329.903698 160.6904 
L 331.543368 182.4632 
L 333.183037 201.8168 
L 334.822707 201.8168 
L 336.462376 158.2712 
L 338.102045 134.0792 
L 339.741715 148.5944 
L 341.381384 136.4984 
L 343.021054 136.4984 
L 344.660723 158.2712 
L 346.300393 151.0136 
L 347.940062 180.044 
L 349.579731 175.2056 
L 351.219401 151.0136 
L 352.85907 143.756 
L 354.49874 112.3064 
L 356.138409 102.6296 
L 357.778079 112.3064 
L 359.417748 102.6296 
L 361.057417 105.0488 
L 362.697087 112.3064 
L 365.976426 112.3064 
L 367.616095 129.2408 
L 369.255764 160.6904 
L 370.895434 129.2408 
L 372.535103 148.5944 
L 374.174773 143.756 
L 374.174773 143.756 
" style="fill:none;stroke:#1f77b4;stroke-linecap:square;stroke-width:0.5;"/>
   </g>
   <g id="line2d_17">
    <path clip-path="url(#pce2dec8e59)" d="M 49.520227 264.716 
L 51.159897 136.4984 
L 52.799566 158.2712 
L 54.439236 136.4984 
L 56.078905 136.4984 
L 57.718574 112.3064 
L 59.358244 109.8872 
L 60.997913 117.1448 
L 62.637583 102.6296 
L 64.277252 85.6952 
L 65.916921 51.8264 
L 67.556591 44.5688 
L 69.19626 61.5032 
L 70.83593 83.276 
L 72.475599 112.3064 
L 74.115269 158.2712 
L 75.754938 141.3368 
L 77.394607 167.948 
L 79.034277 151.0136 
L 80.673946 143.756 
L 82.313616 165.5288 
L 83.953285 143.756 
L 85.592955 141.3368 
L 87.232624 143.756 
L 88.872293 148.5944 
L 90.511963 105.0488 
L 92.151632 112.3064 
L 93.791302 61.5032 
L 95.430971 51.8264 
L 97.07064 78.4376 
L 98.71031 83.276 
L 100.349979 117.1448 
L 101.989649 134.0792 
L 103.629318 136.4984 
L 105.268988 158.2712 
L 106.908657 165.5288 
L 108.548326 112.3064 
L 111.827665 83.276 
L 113.467335 71.18 
L 115.107004 102.6296 
L 116.746674 126.8216 
L 118.386343 109.8872 
L 120.026012 112.3064 
L 121.665682 134.0792 
L 123.305351 134.0792 
L 124.945021 136.4984 
L 126.58469 129.2408 
L 128.22436 129.2408 
L 129.864029 119.564 
L 131.503698 158.2712 
L 133.143368 158.2712 
L 134.783037 141.3368 
L 136.422707 134.0792 
L 138.062376 134.0792 
L 139.702045 129.2408 
L 141.341715 117.1448 
L 142.981384 134.0792 
L 144.621054 109.8872 
L 146.260723 136.4984 
L 147.900393 134.0792 
L 149.540062 126.8216 
L 151.179731 134.0792 
L 152.819401 129.2408 
L 154.45907 126.8216 
L 157.738409 97.7912 
L 159.378079 97.7912 
L 161.017748 134.0792 
L 162.657417 151.0136 
L 164.297087 160.6904 
L 165.936756 167.948 
L 167.576426 160.6904 
L 169.216095 151.0136 
L 170.855764 160.6904 
L 172.495434 165.5288 
L 174.135103 182.4632 
L 175.774773 172.7864 
L 177.414442 158.2712 
L 179.054112 141.3368 
L 180.693781 117.1448 
L 182.33345 126.8216 
L 183.97312 117.1448 
L 185.612789 119.564 
L 187.252459 117.1448 
L 188.892128 129.2408 
L 190.531798 136.4984 
L 192.171467 119.564 
L 193.811136 105.0488 
L 195.450806 119.564 
L 197.090475 105.0488 
L 198.730145 112.3064 
L 200.369814 134.0792 
L 202.009483 105.0488 
L 203.649153 109.8872 
L 205.288822 117.1448 
L 206.928492 83.276 
L 208.568161 119.564 
L 210.207831 119.564 
L 211.8475 109.8872 
L 213.487169 143.756 
L 215.126839 117.1448 
L 216.766508 136.4984 
L 218.406178 134.0792 
L 220.045847 112.3064 
L 221.685517 105.0488 
L 224.964855 105.0488 
L 226.604525 97.7912 
L 228.244194 83.276 
L 229.883864 76.0184 
L 231.523533 76.0184 
L 233.163202 85.6952 
L 234.802872 102.6296 
L 236.442541 102.6296 
L 238.082211 95.372 
L 239.72188 85.6952 
L 241.36155 83.276 
L 243.001219 78.4376 
L 244.640888 95.372 
L 246.280558 83.276 
L 247.920227 95.372 
L 249.559897 102.6296 
L 251.199566 129.2408 
L 252.839236 165.5288 
L 254.478905 175.2056 
L 256.118574 175.2056 
L 257.758244 167.948 
L 259.397913 129.2408 
L 261.037583 105.0488 
L 262.677252 97.7912 
L 264.316921 78.4376 
L 265.956591 105.0488 
L 267.59626 143.756 
L 269.23593 134.0792 
L 270.875599 141.3368 
L 272.515269 141.3368 
L 274.154938 95.372 
L 275.794607 109.8872 
L 277.434277 105.0488 
L 279.073946 95.372 
L 280.713616 105.0488 
L 282.353285 95.372 
L 283.992955 102.6296 
L 285.632624 95.372 
L 287.272293 109.8872 
L 288.911963 117.1448 
L 290.551632 112.3064 
L 292.191302 148.5944 
L 293.830971 167.948 
L 295.47064 194.5592 
L 297.11031 199.3976 
L 298.749979 180.044 
L 300.389649 165.5288 
L 302.029318 143.756 
L 303.668988 129.2408 
L 305.308657 117.1448 
L 306.948326 119.564 
L 308.587996 85.6952 
L 310.227665 105.0488 
L 311.867335 97.7912 
L 313.507004 95.372 
L 315.146674 126.8216 
L 316.786343 119.564 
L 318.426012 136.4984 
L 320.065682 141.3368 
L 321.705351 119.564 
L 323.345021 136.4984 
L 324.98469 151.0136 
L 326.62436 143.756 
L 328.264029 182.4632 
L 329.903698 172.7864 
L 331.543368 165.5288 
L 333.183037 192.14 
L 334.822707 151.0136 
L 336.462376 141.3368 
L 339.741715 117.1448 
L 341.381384 136.4984 
L 343.021054 126.8216 
L 344.660723 109.8872 
L 346.300393 105.0488 
L 347.940062 109.8872 
L 349.579731 134.0792 
L 352.85907 134.0792 
L 354.49874 126.8216 
L 356.138409 112.3064 
L 357.778079 112.3064 
L 359.417748 105.0488 
L 361.057417 105.0488 
L 362.697087 97.7912 
L 364.336756 102.6296 
L 365.976426 102.6296 
L 367.616095 97.7912 
L 369.255764 95.372 
L 370.895434 105.0488 
L 372.535103 109.8872 
L 374.174773 117.1448 
L 374.174773 117.1448 
" style="fill:none;stroke:#ff7f0e;stroke-linecap:square;stroke-width:0.5;"/>
   </g>
   <g id="line2d_18">
    <path clip-path="url(#pce2dec8e59)" d="M 49.520227 264.716 
L 51.159897 129.2408 
L 52.799566 112.3064 
L 54.439236 83.276 
L 56.078905 97.7912 
L 57.718574 78.4376 
L 59.358244 95.372 
L 60.997913 78.4376 
L 62.637583 78.4376 
L 64.277252 85.6952 
L 65.916921 68.7608 
L 67.556591 85.6952 
L 69.19626 63.9224 
L 70.83593 68.7608 
L 72.475599 109.8872 
L 74.115269 78.4376 
L 75.754938 102.6296 
L 77.394607 85.6952 
L 79.034277 46.988 
L 80.673946 68.7608 
L 82.313616 46.988 
L 83.953285 39.7304 
L 85.592955 61.5032 
L 87.232624 46.988 
L 88.872293 109.8872 
L 90.511963 117.1448 
L 92.151632 117.1448 
L 93.791302 160.6904 
L 95.430971 117.1448 
L 97.07064 134.0792 
L 98.71031 109.8872 
L 100.349979 78.4376 
L 103.629318 117.1448 
L 105.268988 141.3368 
L 106.908657 148.5944 
L 108.548326 117.1448 
L 110.187996 112.3064 
L 111.827665 102.6296 
L 113.467335 83.276 
L 115.107004 117.1448 
L 116.746674 109.8872 
L 118.386343 117.1448 
L 120.026012 112.3064 
L 121.665682 102.6296 
L 123.305351 78.4376 
L 124.945021 78.4376 
L 126.58469 95.372 
L 128.22436 105.0488 
L 129.864029 136.4984 
L 131.503698 117.1448 
L 133.143368 117.1448 
L 134.783037 102.6296 
L 136.422707 71.18 
L 138.062376 102.6296 
L 139.702045 97.7912 
L 141.341715 112.3064 
L 142.981384 117.1448 
L 144.621054 109.8872 
L 146.260723 129.2408 
L 147.900393 126.8216 
L 149.540062 119.564 
L 151.179731 141.3368 
L 152.819401 143.756 
L 154.45907 148.5944 
L 156.09874 165.5288 
L 157.738409 143.756 
L 159.378079 129.2408 
L 161.017748 117.1448 
L 162.657417 112.3064 
L 164.297087 109.8872 
L 165.936756 112.3064 
L 167.576426 129.2408 
L 169.216095 102.6296 
L 170.855764 141.3368 
L 172.495434 158.2712 
L 174.135103 102.6296 
L 175.774773 112.3064 
L 177.414442 76.0184 
L 179.054112 76.0184 
L 180.693781 97.7912 
L 182.33345 129.2408 
L 183.97312 109.8872 
L 185.612789 105.0488 
L 187.252459 129.2408 
L 188.892128 97.7912 
L 190.531798 105.0488 
L 192.171467 105.0488 
L 193.811136 95.372 
L 195.450806 119.564 
L 197.090475 119.564 
L 198.730145 129.2408 
L 200.369814 158.2712 
L 202.009483 148.5944 
L 203.649153 151.0136 
L 206.928492 71.18 
L 208.568161 78.4376 
L 210.207831 105.0488 
L 211.8475 105.0488 
L 213.487169 97.7912 
L 215.126839 97.7912 
L 216.766508 109.8872 
L 218.406178 129.2408 
L 220.045847 180.044 
L 221.685517 160.6904 
L 223.325186 129.2408 
L 224.964855 117.1448 
L 226.604525 68.7608 
L 228.244194 83.276 
L 229.883864 63.9224 
L 231.523533 71.18 
L 233.163202 85.6952 
L 234.802872 51.8264 
L 236.442541 71.18 
L 238.082211 68.7608 
L 239.72188 54.2456 
L 241.36155 78.4376 
L 243.001219 61.5032 
L 246.280558 61.5032 
L 247.920227 51.8264 
L 249.559897 85.6952 
L 251.199566 83.276 
L 252.839236 97.7912 
L 254.478905 85.6952 
L 256.118574 78.4376 
L 257.758244 102.6296 
L 259.397913 85.6952 
L 261.037583 109.8872 
L 262.677252 126.8216 
L 265.956591 112.3064 
L 267.59626 78.4376 
L 269.23593 51.8264 
L 270.875599 46.988 
L 272.515269 117.1448 
L 274.154938 143.756 
L 275.794607 167.948 
L 277.434277 167.948 
L 279.073946 105.0488 
L 280.713616 105.0488 
L 282.353285 85.6952 
L 283.992955 112.3064 
L 285.632624 134.0792 
L 287.272293 112.3064 
L 288.911963 143.756 
L 290.551632 126.8216 
L 292.191302 141.3368 
L 293.830971 175.2056 
L 295.47064 165.5288 
L 297.11031 199.3976 
L 298.749979 167.948 
L 300.389649 167.948 
L 302.029318 160.6904 
L 303.668988 141.3368 
L 305.308657 129.2408 
L 306.948326 109.8872 
L 308.587996 109.8872 
L 310.227665 76.0184 
L 311.867335 102.6296 
L 313.507004 97.7912 
L 315.146674 136.4984 
L 316.786343 209.0744 
L 318.426012 206.6552 
L 320.065682 233.2664 
L 321.705351 192.14 
L 323.345021 112.3064 
L 324.98469 148.5944 
L 326.62436 119.564 
L 328.264029 134.0792 
L 329.903698 165.5288 
L 331.543368 97.7912 
L 333.183037 119.564 
L 334.822707 95.372 
L 336.462376 76.0184 
L 338.102045 134.0792 
L 339.741715 109.8872 
L 341.381384 105.0488 
L 343.021054 119.564 
L 344.660723 83.276 
L 346.300393 105.0488 
L 347.940062 95.372 
L 349.579731 76.0184 
L 351.219401 71.18 
L 352.85907 51.8264 
L 354.49874 68.7608 
L 356.138409 143.756 
L 357.778079 160.6904 
L 359.417748 141.3368 
L 361.057417 134.0792 
L 362.697087 97.7912 
L 364.336756 160.6904 
L 364.336756 160.6904 
" style="fill:none;stroke:#2ca02c;stroke-linecap:square;stroke-width:0.5;"/>
   </g>
   <g id="line2d_19">
    <path clip-path="url(#pce2dec8e59)" d="M 49.520227 264.716 
L 51.159897 97.7912 
L 52.799566 85.6952 
L 54.439236 83.276 
L 56.078905 95.372 
L 57.718574 68.7608 
L 59.358244 63.9224 
L 60.997913 68.7608 
L 62.637583 46.988 
L 64.277252 83.276 
L 65.916921 76.0184 
L 67.556591 76.0184 
L 69.19626 102.6296 
L 70.83593 105.0488 
L 72.475599 119.564 
L 74.115269 141.3368 
L 75.754938 134.0792 
L 77.394607 117.1448 
L 79.034277 61.5032 
L 80.673946 76.0184 
L 82.313616 95.372 
L 83.953285 71.18 
L 85.592955 134.0792 
L 87.232624 119.564 
L 88.872293 119.564 
L 90.511963 134.0792 
L 92.151632 117.1448 
L 93.791302 136.4984 
L 95.430971 129.2408 
L 97.07064 136.4984 
L 98.71031 109.8872 
L 100.349979 95.372 
L 101.989649 71.18 
L 103.629318 63.9224 
L 105.268988 95.372 
L 106.908657 78.4376 
L 108.548326 97.7912 
L 110.187996 126.8216 
L 111.827665 119.564 
L 113.467335 117.1448 
L 115.107004 134.0792 
L 116.746674 85.6952 
L 118.386343 61.5032 
L 120.026012 71.18 
L 121.665682 46.988 
L 123.305351 105.0488 
L 124.945021 136.4984 
L 126.58469 126.8216 
L 128.22436 134.0792 
L 129.864029 105.0488 
L 131.503698 97.7912 
L 133.143368 95.372 
L 134.783037 85.6952 
L 136.422707 97.7912 
L 138.062376 85.6952 
L 139.702045 83.276 
L 141.341715 102.6296 
L 144.621054 117.1448 
L 146.260723 148.5944 
L 147.900393 136.4984 
L 149.540062 119.564 
L 151.179731 83.276 
L 152.819401 51.8264 
L 156.09874 22.796 
L 157.738409 68.7608 
L 159.378079 95.372 
L 161.017748 85.6952 
L 162.657417 102.6296 
L 164.297087 105.0488 
L 165.936756 105.0488 
L 167.576426 117.1448 
L 169.216095 102.6296 
L 170.855764 83.276 
L 172.495434 68.7608 
L 174.135103 78.4376 
L 175.774773 119.564 
L 177.414442 119.564 
L 179.054112 143.756 
L 180.693781 134.0792 
L 182.33345 97.7912 
L 183.97312 105.0488 
L 185.612789 85.6952 
L 187.252459 95.372 
L 188.892128 134.0792 
L 190.531798 117.1448 
L 192.171467 102.6296 
L 193.811136 112.3064 
L 195.450806 97.7912 
L 197.090475 117.1448 
L 198.730145 158.2712 
L 200.369814 172.7864 
L 202.009483 167.948 
L 203.649153 192.14 
L 205.288822 172.7864 
L 206.928492 180.044 
L 208.568161 175.2056 
L 210.207831 167.948 
L 211.8475 141.3368 
L 213.487169 95.372 
L 215.126839 102.6296 
L 216.766508 68.7608 
L 218.406178 83.276 
L 220.045847 117.1448 
L 221.685517 136.4984 
L 223.325186 141.3368 
L 224.964855 165.5288 
L 226.604525 151.0136 
L 228.244194 105.0488 
L 229.883864 129.2408 
L 231.523533 141.3368 
L 233.163202 134.0792 
L 234.802872 134.0792 
L 236.442541 95.372 
L 238.082211 51.8264 
L 239.72188 76.0184 
L 241.36155 95.372 
L 243.001219 117.1448 
L 244.640888 148.5944 
L 246.280558 126.8216 
L 247.920227 129.2408 
L 249.559897 126.8216 
L 251.199566 95.372 
L 252.839236 97.7912 
L 254.478905 85.6952 
L 256.118574 78.4376 
L 257.758244 68.7608 
L 259.397913 51.8264 
L 261.037583 54.2456 
L 262.677252 63.9224 
L 264.316921 68.7608 
L 265.956591 71.18 
L 269.23593 51.8264 
L 270.875599 51.8264 
L 272.515269 83.276 
L 274.154938 71.18 
L 275.794607 68.7608 
L 277.434277 85.6952 
L 279.073946 71.18 
L 280.713616 102.6296 
L 282.353285 117.1448 
L 283.992955 126.8216 
L 285.632624 126.8216 
L 287.272293 160.6904 
L 288.911963 175.2056 
L 290.551632 172.7864 
L 292.191302 180.044 
L 293.830971 165.5288 
L 295.47064 160.6904 
L 298.749979 141.3368 
L 300.389649 126.8216 
L 302.029318 129.2408 
L 303.668988 141.3368 
L 305.308657 141.3368 
L 306.948326 129.2408 
L 308.587996 143.756 
L 310.227665 134.0792 
L 311.867335 112.3064 
L 313.507004 119.564 
L 315.146674 78.4376 
L 316.786343 85.6952 
L 318.426012 95.372 
L 320.065682 117.1448 
L 321.705351 126.8216 
L 323.345021 119.564 
L 324.98469 129.2408 
L 326.62436 95.372 
L 328.264029 95.372 
L 329.903698 71.18 
L 331.543368 105.0488 
L 333.183037 117.1448 
L 334.822707 102.6296 
L 336.462376 119.564 
L 338.102045 78.4376 
L 339.741715 85.6952 
L 341.381384 102.6296 
L 343.021054 83.276 
L 344.660723 119.564 
L 346.300393 97.7912 
L 347.940062 83.276 
L 349.579731 105.0488 
L 351.219401 109.8872 
L 352.85907 95.372 
L 354.49874 105.0488 
L 356.138409 95.372 
L 357.778079 68.7608 
L 359.417748 83.276 
L 361.057417 85.6952 
L 362.697087 109.8872 
L 364.336756 95.372 
L 365.976426 102.6296 
L 367.616095 112.3064 
L 369.255764 95.372 
L 370.895434 117.1448 
L 372.535103 109.8872 
L 372.535103 109.8872 
" style="fill:none;stroke:#d62728;stroke-linecap:square;stroke-width:0.5;"/>
   </g>
   <g id="line2d_20">
    <path clip-path="url(#pce2dec8e59)" d="M 49.520227 264.716 
L 51.159897 141.3368 
L 52.799566 141.3368 
L 54.439236 136.4984 
L 56.078905 119.564 
L 57.718574 105.0488 
L 59.358244 102.6296 
L 60.997913 112.3064 
L 62.637583 117.1448 
L 64.277252 119.564 
L 65.916921 105.0488 
L 67.556591 85.6952 
L 69.19626 76.0184 
L 70.83593 68.7608 
L 72.475599 63.9224 
L 74.115269 85.6952 
L 75.754938 102.6296 
L 77.394607 105.0488 
L 79.034277 105.0488 
L 80.673946 95.372 
L 82.313616 95.372 
L 83.953285 105.0488 
L 85.592955 143.756 
L 87.232624 129.2408 
L 88.872293 141.3368 
L 92.151632 117.1448 
L 93.791302 158.2712 
L 95.430971 165.5288 
L 97.07064 180.044 
L 98.71031 167.948 
L 100.349979 160.6904 
L 101.989649 158.2712 
L 103.629318 136.4984 
L 105.268988 129.2408 
L 106.908657 136.4984 
L 108.548326 119.564 
L 110.187996 117.1448 
L 111.827665 134.0792 
L 113.467335 129.2408 
L 115.107004 148.5944 
L 116.746674 165.5288 
L 118.386343 148.5944 
L 120.026012 136.4984 
L 121.665682 134.0792 
L 123.305351 112.3064 
L 124.945021 112.3064 
L 126.58469 119.564 
L 128.22436 85.6952 
L 129.864029 97.7912 
L 131.503698 112.3064 
L 133.143368 136.4984 
L 134.783037 180.044 
L 136.422707 180.044 
L 138.062376 148.5944 
L 139.702045 134.0792 
L 141.341715 112.3064 
L 142.981384 129.2408 
L 144.621054 160.6904 
L 146.260723 134.0792 
L 147.900393 112.3064 
L 149.540062 117.1448 
L 151.179731 78.4376 
L 152.819401 105.0488 
L 154.45907 78.4376 
L 156.09874 44.5688 
L 157.738409 54.2456 
L 159.378079 54.2456 
L 161.017748 95.372 
L 162.657417 112.3064 
L 164.297087 102.6296 
L 165.936756 129.2408 
L 167.576426 136.4984 
L 169.216095 119.564 
L 170.855764 141.3368 
L 172.495434 112.3064 
L 174.135103 109.8872 
L 175.774773 167.948 
L 177.414442 158.2712 
L 179.054112 141.3368 
L 180.693781 136.4984 
L 182.33345 109.8872 
L 183.97312 105.0488 
L 185.612789 126.8216 
L 187.252459 126.8216 
L 188.892128 95.372 
L 190.531798 83.276 
L 192.171467 68.7608 
L 193.811136 95.372 
L 195.450806 105.0488 
L 197.090475 148.5944 
L 198.730145 180.044 
L 200.369814 148.5944 
L 202.009483 201.8168 
L 203.649153 165.5288 
L 205.288822 158.2712 
L 206.928492 172.7864 
L 208.568161 126.8216 
L 210.207831 172.7864 
L 211.8475 165.5288 
L 213.487169 143.756 
L 215.126839 148.5944 
L 216.766508 85.6952 
L 218.406178 78.4376 
L 220.045847 97.7912 
L 221.685517 97.7912 
L 223.325186 117.1448 
L 224.964855 102.6296 
L 226.604525 105.0488 
L 228.244194 112.3064 
L 229.883864 102.6296 
L 231.523533 119.564 
L 233.163202 117.1448 
L 234.802872 105.0488 
L 236.442541 134.0792 
L 238.082211 141.3368 
L 239.72188 129.2408 
L 241.36155 160.6904 
L 243.001219 134.0792 
L 244.640888 126.8216 
L 246.280558 151.0136 
L 247.920227 134.0792 
L 249.559897 167.948 
L 251.199566 167.948 
L 252.839236 151.0136 
L 254.478905 136.4984 
L 256.118574 112.3064 
L 257.758244 117.1448 
L 259.397913 97.7912 
L 261.037583 102.6296 
L 262.677252 112.3064 
L 265.956591 126.8216 
L 267.59626 136.4984 
L 269.23593 134.0792 
L 270.875599 97.7912 
L 272.515269 136.4984 
L 274.154938 112.3064 
L 275.794607 117.1448 
L 277.434277 141.3368 
L 279.073946 151.0136 
L 280.713616 151.0136 
L 282.353285 167.948 
L 283.992955 160.6904 
L 285.632624 134.0792 
L 287.272293 136.4984 
L 288.911963 129.2408 
L 290.551632 141.3368 
L 292.191302 136.4984 
L 293.830971 134.0792 
L 295.47064 134.0792 
L 297.11031 117.1448 
L 300.389649 136.4984 
L 302.029318 134.0792 
L 303.668988 136.4984 
L 305.308657 141.3368 
L 306.948326 143.756 
L 308.587996 158.2712 
L 310.227665 180.044 
L 311.867335 151.0136 
L 315.146674 136.4984 
L 316.786343 117.1448 
L 318.426012 119.564 
L 320.065682 143.756 
L 321.705351 112.3064 
L 323.345021 112.3064 
L 324.98469 126.8216 
L 326.62436 119.564 
L 328.264029 148.5944 
L 329.903698 143.756 
L 331.543368 148.5944 
L 333.183037 119.564 
L 334.822707 136.4984 
L 336.462376 148.5944 
L 338.102045 117.1448 
L 339.741715 136.4984 
L 341.381384 102.6296 
L 343.021054 112.3064 
L 344.660723 112.3064 
L 346.300393 102.6296 
L 347.940062 105.0488 
L 349.579731 85.6952 
L 351.219401 112.3064 
L 352.85907 119.564 
L 354.49874 78.4376 
L 356.138409 61.5032 
L 357.778079 51.8264 
L 359.417748 51.8264 
L 361.057417 112.3064 
L 362.697087 126.8216 
L 364.336756 126.8216 
L 365.976426 112.3064 
L 367.616095 95.372 
L 369.255764 85.6952 
L 370.895434 95.372 
L 372.535103 97.7912 
L 374.174773 85.6952 
L 374.174773 85.6952 
" style="fill:none;stroke:#9467bd;stroke-linecap:square;stroke-width:0.5;"/>
   </g>
   <g id="line2d_21">
    <path clip-path="url(#pce2dec8e59)" d="M 49.520227 264.716 
L 51.159897 105.0488 
L 52.799566 117.1448 
L 54.439236 117.1448 
L 57.718574 141.3368 
L 59.358244 160.6904 
L 60.997913 165.5288 
L 62.637583 172.7864 
L 64.277252 136.4984 
L 65.916921 165.5288 
L 67.556591 151.0136 
L 69.19626 172.7864 
L 70.83593 148.5944 
L 72.475599 160.6904 
L 74.115269 126.8216 
L 75.754938 126.8216 
L 77.394607 129.2408 
L 79.034277 112.3064 
L 80.673946 134.0792 
L 82.313616 148.5944 
L 83.953285 112.3064 
L 85.592955 117.1448 
L 87.232624 141.3368 
L 88.872293 141.3368 
L 90.511963 180.044 
L 92.151632 180.044 
L 93.791302 172.7864 
L 95.430971 158.2712 
L 97.07064 160.6904 
L 100.349979 175.2056 
L 101.989649 209.0744 
L 103.629318 167.948 
L 105.268988 182.4632 
L 106.908657 160.6904 
L 108.548326 141.3368 
L 110.187996 167.948 
L 111.827665 136.4984 
L 115.107004 136.4984 
L 116.746674 160.6904 
L 118.386343 136.4984 
L 120.026012 151.0136 
L 121.665682 119.564 
L 123.305351 141.3368 
L 124.945021 141.3368 
L 126.58469 134.0792 
L 128.22436 136.4984 
L 129.864029 134.0792 
L 131.503698 112.3064 
L 133.143368 134.0792 
L 134.783037 141.3368 
L 136.422707 143.756 
L 138.062376 151.0136 
L 139.702045 148.5944 
L 141.341715 143.756 
L 142.981384 136.4984 
L 144.621054 172.7864 
L 146.260723 160.6904 
L 147.900393 165.5288 
L 149.540062 172.7864 
L 151.179731 151.0136 
L 152.819401 165.5288 
L 154.45907 167.948 
L 156.09874 119.564 
L 157.738409 151.0136 
L 159.378079 141.3368 
L 161.017748 143.756 
L 162.657417 151.0136 
L 164.297087 143.756 
L 165.936756 143.756 
L 167.576426 134.0792 
L 169.216095 160.6904 
L 170.855764 141.3368 
L 172.495434 175.2056 
L 174.135103 206.6552 
L 175.774773 206.6552 
L 177.414442 209.0744 
L 179.054112 165.5288 
L 180.693781 160.6904 
L 182.33345 182.4632 
L 183.97312 167.948 
L 185.612789 175.2056 
L 187.252459 134.0792 
L 190.531798 119.564 
L 192.171467 117.1448 
L 193.811136 167.948 
L 195.450806 136.4984 
L 197.090475 119.564 
L 198.730145 112.3064 
L 200.369814 109.8872 
L 202.009483 117.1448 
L 203.649153 167.948 
L 205.288822 175.2056 
L 206.928492 143.756 
L 208.568161 151.0136 
L 210.207831 112.3064 
L 226.604525 112.3064 
L 228.244194 126.8216 
L 229.883864 126.8216 
L 231.523533 119.564 
L 233.163202 151.0136 
L 234.802872 148.5944 
L 236.442541 160.6904 
L 238.082211 143.756 
L 239.72188 134.0792 
L 241.36155 126.8216 
L 243.001219 109.8872 
L 244.640888 134.0792 
L 246.280558 136.4984 
L 249.559897 151.0136 
L 251.199566 148.5944 
L 252.839236 129.2408 
L 254.478905 129.2408 
L 256.118574 134.0792 
L 257.758244 148.5944 
L 259.397913 151.0136 
L 261.037583 129.2408 
L 262.677252 134.0792 
L 264.316921 83.276 
L 265.956591 85.6952 
L 267.59626 126.8216 
L 269.23593 97.7912 
L 270.875599 134.0792 
L 272.515269 117.1448 
L 274.154938 112.3064 
L 275.794607 158.2712 
L 277.434277 126.8216 
L 279.073946 151.0136 
L 280.713616 165.5288 
L 282.353285 175.2056 
L 283.992955 192.14 
L 285.632624 165.5288 
L 287.272293 165.5288 
L 288.911963 105.0488 
L 290.551632 143.756 
L 292.191302 136.4984 
L 293.830971 136.4984 
L 295.47064 148.5944 
L 297.11031 126.8216 
L 298.749979 117.1448 
L 300.389649 117.1448 
L 302.029318 105.0488 
L 303.668988 83.276 
L 305.308657 83.276 
L 306.948326 76.0184 
L 308.587996 83.276 
L 310.227665 95.372 
L 311.867335 85.6952 
L 313.507004 105.0488 
L 315.146674 129.2408 
L 316.786343 136.4984 
L 318.426012 119.564 
L 320.065682 143.756 
L 321.705351 129.2408 
L 323.345021 134.0792 
L 324.98469 126.8216 
L 326.62436 112.3064 
L 328.264029 105.0488 
L 329.903698 95.372 
L 331.543368 126.8216 
L 333.183037 126.8216 
L 334.822707 112.3064 
L 336.462376 148.5944 
L 338.102045 151.0136 
L 339.741715 141.3368 
L 341.381384 167.948 
L 343.021054 136.4984 
L 344.660723 119.564 
L 346.300393 126.8216 
L 347.940062 102.6296 
L 349.579731 117.1448 
L 351.219401 129.2408 
L 352.85907 158.2712 
L 354.49874 180.044 
L 356.138409 180.044 
L 356.138409 180.044 
" style="fill:none;stroke:#8c564b;stroke-linecap:square;stroke-width:0.5;"/>
   </g>
   <g id="line2d_22">
    <path clip-path="url(#pce2dec8e59)" d="M 49.520227 264.716 
L 51.159897 264.716 
L 52.799566 141.3368 
L 54.439236 175.2056 
L 56.078905 136.4984 
L 57.718574 160.6904 
L 59.358244 160.6904 
L 60.997913 141.3368 
L 62.637583 143.756 
L 64.277252 126.8216 
L 65.916921 192.14 
L 67.556591 143.756 
L 69.19626 136.4984 
L 70.83593 192.14 
L 72.475599 136.4984 
L 74.115269 175.2056 
L 75.754938 233.2664 
L 77.394607 201.8168 
L 79.034277 180.044 
L 80.673946 117.1448 
L 82.313616 97.7912 
L 83.953285 76.0184 
L 85.592955 83.276 
L 87.232624 95.372 
L 88.872293 78.4376 
L 90.511963 78.4376 
L 92.151632 129.2408 
L 93.791302 129.2408 
L 95.430971 136.4984 
L 98.71031 117.1448 
L 100.349979 117.1448 
L 101.989649 68.7608 
L 103.629318 68.7608 
L 105.268988 85.6952 
L 106.908657 119.564 
L 108.548326 134.0792 
L 110.187996 160.6904 
L 111.827665 172.7864 
L 113.467335 148.5944 
L 115.107004 129.2408 
L 116.746674 102.6296 
L 118.386343 78.4376 
L 120.026012 112.3064 
L 121.665682 129.2408 
L 123.305351 182.4632 
L 124.945021 165.5288 
L 126.58469 175.2056 
L 128.22436 209.0744 
L 129.864029 165.5288 
L 131.503698 206.6552 
L 133.143368 175.2056 
L 134.783037 194.5592 
L 136.422707 182.4632 
L 139.702045 182.4632 
L 141.341715 194.5592 
L 142.981384 194.5592 
L 144.621054 175.2056 
L 146.260723 172.7864 
L 154.45907 172.7864 
L 156.09874 160.6904 
L 162.657417 160.6904 
L 164.297087 175.2056 
L 165.936756 148.5944 
L 167.576426 180.044 
L 169.216095 148.5944 
L 170.855764 134.0792 
L 172.495434 117.1448 
L 175.774773 117.1448 
L 177.414442 78.4376 
L 179.054112 95.372 
L 180.693781 95.372 
L 182.33345 117.1448 
L 183.97312 85.6952 
L 185.612789 71.18 
L 187.252459 78.4376 
L 188.892128 68.7608 
L 190.531798 134.0792 
L 192.171467 160.6904 
L 193.811136 158.2712 
L 195.450806 194.5592 
L 197.090475 199.3976 
L 198.730145 180.044 
L 202.009483 180.044 
L 203.649153 158.2712 
L 213.487169 158.2712 
L 215.126839 134.0792 
L 229.883864 134.0792 
L 231.523533 109.8872 
L 238.082211 109.8872 
L 239.72188 119.564 
L 244.640888 119.564 
L 247.920227 201.8168 
L 252.839236 201.8168 
L 254.478905 206.6552 
L 256.118574 255.0392 
L 259.397913 255.0392 
L 261.037583 206.6552 
L 264.316921 206.6552 
L 265.956591 209.0744 
L 267.59626 165.5288 
L 269.23593 165.5288 
L 270.875599 201.8168 
L 274.154938 201.8168 
L 275.794607 160.6904 
L 277.434277 141.3368 
L 279.073946 126.8216 
L 280.713616 71.18 
L 282.353285 129.2408 
L 290.551632 129.2408 
L 292.191302 151.0136 
L 293.830971 136.4984 
L 295.47064 136.4984 
L 297.11031 175.2056 
L 303.668988 175.2056 
L 305.308657 136.4984 
L 306.948326 129.2408 
L 308.587996 136.4984 
L 310.227665 112.3064 
L 316.786343 112.3064 
L 318.426012 97.7912 
L 320.065682 78.4376 
L 329.903698 78.4376 
L 331.543368 264.716 
L 344.660723 264.716 
L 346.300393 109.8872 
L 347.940062 160.6904 
L 349.579731 160.6904 
L 351.219401 136.4984 
L 352.85907 136.4984 
L 354.49874 175.2056 
L 356.138409 194.5592 
L 357.778079 262.2968 
L 361.057417 262.2968 
L 362.697087 182.4632 
L 364.336756 216.332 
L 365.976426 172.7864 
L 367.616095 167.948 
L 369.255764 262.2968 
L 369.255764 262.2968 
" style="fill:none;stroke:#e377c2;stroke-linecap:square;stroke-width:0.5;"/>
   </g>
   <g id="line2d_23">
    <path clip-path="url(#pce2dec8e59)" d="M 49.520227 264.716 
L 51.159897 102.6296 
L 52.799566 129.2408 
L 54.439236 134.0792 
L 56.078905 112.3064 
L 57.718574 85.6952 
L 59.358244 85.6952 
L 62.637583 109.8872 
L 64.277252 134.0792 
L 65.916921 165.5288 
L 67.556591 141.3368 
L 69.19626 134.0792 
L 70.83593 117.1448 
L 72.475599 126.8216 
L 74.115269 109.8872 
L 75.754938 126.8216 
L 77.394607 119.564 
L 79.034277 109.8872 
L 80.673946 112.3064 
L 82.313616 61.5032 
L 83.953285 46.988 
L 85.592955 63.9224 
L 87.232624 78.4376 
L 88.872293 119.564 
L 90.511963 126.8216 
L 92.151632 105.0488 
L 93.791302 136.4984 
L 95.430971 119.564 
L 97.07064 119.564 
L 98.71031 151.0136 
L 100.349979 117.1448 
L 101.989649 151.0136 
L 103.629318 129.2408 
L 105.268988 143.756 
L 106.908657 126.8216 
L 108.548326 143.756 
L 110.187996 97.7912 
L 111.827665 119.564 
L 113.467335 167.948 
L 115.107004 160.6904 
L 118.386343 238.1048 
L 120.026012 199.3976 
L 121.665682 247.7816 
L 123.305351 172.7864 
L 124.945021 117.1448 
L 126.58469 117.1448 
L 128.22436 68.7608 
L 129.864029 109.8872 
L 131.503698 97.7912 
L 133.143368 95.372 
L 134.783037 109.8872 
L 136.422707 97.7912 
L 139.702045 126.8216 
L 141.341715 119.564 
L 142.981384 102.6296 
L 144.621054 112.3064 
L 146.260723 126.8216 
L 147.900393 136.4984 
L 149.540062 126.8216 
L 151.179731 97.7912 
L 152.819401 83.276 
L 154.45907 83.276 
L 156.09874 85.6952 
L 157.738409 134.0792 
L 159.378079 151.0136 
L 161.017748 180.044 
L 162.657417 165.5288 
L 164.297087 126.8216 
L 165.936756 105.0488 
L 167.576426 51.8264 
L 169.216095 61.5032 
L 170.855764 76.0184 
L 172.495434 71.18 
L 174.135103 76.0184 
L 175.774773 97.7912 
L 179.054112 112.3064 
L 180.693781 117.1448 
L 182.33345 97.7912 
L 183.97312 109.8872 
L 185.612789 61.5032 
L 187.252459 61.5032 
L 188.892128 71.18 
L 190.531798 61.5032 
L 192.171467 97.7912 
L 193.811136 129.2408 
L 195.450806 134.0792 
L 197.090475 141.3368 
L 198.730145 151.0136 
L 200.369814 141.3368 
L 202.009483 141.3368 
L 203.649153 119.564 
L 205.288822 102.6296 
L 206.928492 97.7912 
L 208.568161 112.3064 
L 210.207831 112.3064 
L 211.8475 158.2712 
L 213.487169 134.0792 
L 215.126839 136.4984 
L 216.766508 136.4984 
L 218.406178 105.0488 
L 220.045847 126.8216 
L 221.685517 160.6904 
L 223.325186 180.044 
L 224.964855 182.4632 
L 226.604525 182.4632 
L 228.244194 143.756 
L 229.883864 148.5944 
L 231.523533 165.5288 
L 233.163202 167.948 
L 234.802872 129.2408 
L 236.442541 119.564 
L 238.082211 97.7912 
L 239.72188 112.3064 
L 241.36155 148.5944 
L 243.001219 158.2712 
L 244.640888 134.0792 
L 246.280558 117.1448 
L 247.920227 78.4376 
L 249.559897 63.9224 
L 251.199566 102.6296 
L 252.839236 105.0488 
L 254.478905 119.564 
L 256.118574 158.2712 
L 257.758244 148.5944 
L 259.397913 143.756 
L 261.037583 102.6296 
L 262.677252 95.372 
L 264.316921 109.8872 
L 265.956591 117.1448 
L 267.59626 105.0488 
L 270.875599 105.0488 
L 272.515269 119.564 
L 274.154938 117.1448 
L 275.794607 117.1448 
L 277.434277 143.756 
L 279.073946 148.5944 
L 280.713616 160.6904 
L 282.353285 201.8168 
L 283.992955 201.8168 
L 287.272293 117.1448 
L 288.911963 54.2456 
L 290.551632 109.8872 
L 292.191302 97.7912 
L 293.830971 83.276 
L 295.47064 109.8872 
L 297.11031 141.3368 
L 298.749979 117.1448 
L 300.389649 158.2712 
L 302.029318 134.0792 
L 303.668988 112.3064 
L 305.308657 112.3064 
L 306.948326 85.6952 
L 308.587996 63.9224 
L 310.227665 68.7608 
L 311.867335 117.1448 
L 315.146674 136.4984 
L 316.786343 119.564 
L 318.426012 141.3368 
L 320.065682 119.564 
L 321.705351 102.6296 
L 323.345021 117.1448 
L 324.98469 83.276 
L 326.62436 117.1448 
L 331.543368 95.372 
L 333.183037 95.372 
L 334.822707 97.7912 
L 336.462376 95.372 
L 336.462376 95.372 
" style="fill:none;stroke:#7f7f7f;stroke-linecap:square;stroke-width:0.5;"/>
   </g>
   <g id="line2d_24">
    <path clip-path="url(#pce2dec8e59)" d="M 49.520227 264.716 
L 51.159897 233.2664 
L 52.799566 233.2664 
L 54.439236 201.8168 
L 56.078905 257.4584 
L 57.718574 257.4584 
L 59.358244 233.2664 
L 60.997913 216.332 
L 62.637583 216.332 
L 64.277252 175.2056 
L 69.19626 175.2056 
L 70.83593 158.2712 
L 72.475599 148.5944 
L 82.313616 148.5944 
L 83.953285 165.5288 
L 85.592955 160.6904 
L 87.232624 151.0136 
L 88.872293 182.4632 
L 90.511963 223.5896 
L 92.151632 213.9128 
L 93.791302 245.3624 
L 95.430971 245.3624 
L 97.07064 233.2664 
L 98.71031 199.3976 
L 100.349979 199.3976 
L 101.989649 213.9128 
L 103.629318 209.0744 
L 108.548326 209.0744 
L 110.187996 206.6552 
L 128.22436 206.6552 
L 129.864029 264.716 
L 198.730145 264.716 
L 200.369814 167.948 
L 202.009483 167.948 
L 203.649153 172.7864 
L 205.288822 160.6904 
L 206.928492 134.0792 
L 208.568161 136.4984 
L 210.207831 151.0136 
L 211.8475 182.4632 
L 221.685517 182.4632 
L 223.325186 148.5944 
L 229.883864 148.5944 
L 231.523533 175.2056 
L 233.163202 172.7864 
L 234.802872 172.7864 
L 236.442541 134.0792 
L 238.082211 180.044 
L 239.72188 167.948 
L 241.36155 134.0792 
L 243.001219 134.0792 
L 244.640888 143.756 
L 256.118574 143.756 
L 257.758244 134.0792 
L 259.397913 148.5944 
L 261.037583 151.0136 
L 262.677252 151.0136 
L 264.316921 158.2712 
L 265.956591 112.3064 
L 272.515269 112.3064 
L 274.154938 39.7304 
L 279.073946 39.7304 
L 280.713616 22.796 
L 288.911963 22.796 
L 290.551632 51.8264 
L 297.11031 51.8264 
L 298.749979 54.2456 
L 315.146674 54.2456 
L 316.786343 264.716 
L 374.174773 264.716 
L 374.174773 264.716 
" style="fill:none;stroke:#bcbd22;stroke-linecap:square;stroke-width:0.5;"/>
   </g>
   <g id="line2d_25">
    <path clip-path="url(#pce2dec8e59)" d="M 49.520227 264.716 
L 51.159897 129.2408 
L 52.799566 180.044 
L 54.439236 175.2056 
L 56.078905 167.948 
L 57.718574 165.5288 
L 59.358244 158.2712 
L 60.997913 167.948 
L 62.637583 194.5592 
L 64.277252 165.5288 
L 65.916921 129.2408 
L 67.556591 119.564 
L 69.19626 126.8216 
L 70.83593 136.4984 
L 72.475599 141.3368 
L 74.115269 143.756 
L 75.754938 165.5288 
L 77.394607 160.6904 
L 79.034277 199.3976 
L 80.673946 175.2056 
L 82.313616 134.0792 
L 83.953285 141.3368 
L 85.592955 109.8872 
L 87.232624 117.1448 
L 88.872293 136.4984 
L 90.511963 134.0792 
L 92.151632 126.8216 
L 93.791302 117.1448 
L 95.430971 119.564 
L 97.07064 134.0792 
L 98.71031 134.0792 
L 100.349979 141.3368 
L 101.989649 129.2408 
L 103.629318 141.3368 
L 105.268988 158.2712 
L 106.908657 109.8872 
L 108.548326 112.3064 
L 110.187996 78.4376 
L 111.827665 83.276 
L 113.467335 97.7912 
L 116.746674 136.4984 
L 118.386343 117.1448 
L 120.026012 126.8216 
L 121.665682 117.1448 
L 123.305351 119.564 
L 124.945021 119.564 
L 126.58469 136.4984 
L 128.22436 143.756 
L 129.864029 165.5288 
L 131.503698 160.6904 
L 133.143368 141.3368 
L 134.783037 112.3064 
L 138.062376 112.3064 
L 139.702045 97.7912 
L 141.341715 109.8872 
L 142.981384 112.3064 
L 144.621054 129.2408 
L 146.260723 117.1448 
L 147.900393 148.5944 
L 149.540062 126.8216 
L 151.179731 136.4984 
L 152.819401 112.3064 
L 154.45907 95.372 
L 156.09874 102.6296 
L 157.738409 68.7608 
L 159.378079 63.9224 
L 161.017748 71.18 
L 162.657417 119.564 
L 164.297087 129.2408 
L 165.936756 117.1448 
L 170.855764 167.948 
L 172.495434 167.948 
L 174.135103 172.7864 
L 175.774773 143.756 
L 177.414442 119.564 
L 179.054112 158.2712 
L 180.693781 134.0792 
L 182.33345 172.7864 
L 183.97312 216.332 
L 185.612789 175.2056 
L 187.252459 148.5944 
L 188.892128 109.8872 
L 190.531798 102.6296 
L 192.171467 105.0488 
L 193.811136 134.0792 
L 195.450806 136.4984 
L 197.090475 109.8872 
L 198.730145 112.3064 
L 200.369814 109.8872 
L 202.009483 143.756 
L 203.649153 119.564 
L 205.288822 119.564 
L 206.928492 109.8872 
L 208.568161 117.1448 
L 210.207831 143.756 
L 211.8475 129.2408 
L 213.487169 105.0488 
L 215.126839 129.2408 
L 216.766508 134.0792 
L 218.406178 199.3976 
L 220.045847 230.8472 
L 221.685517 201.8168 
L 223.325186 192.14 
L 224.964855 109.8872 
L 226.604525 136.4984 
L 228.244194 143.756 
L 229.883864 141.3368 
L 231.523533 165.5288 
L 233.163202 165.5288 
L 234.802872 151.0136 
L 236.442541 134.0792 
L 238.082211 119.564 
L 239.72188 126.8216 
L 241.36155 119.564 
L 243.001219 141.3368 
L 244.640888 141.3368 
L 246.280558 119.564 
L 247.920227 117.1448 
L 249.559897 102.6296 
L 251.199566 102.6296 
L 252.839236 141.3368 
L 257.758244 141.3368 
L 259.397913 105.0488 
L 262.677252 119.564 
L 264.316921 117.1448 
L 265.956591 105.0488 
L 267.59626 117.1448 
L 269.23593 105.0488 
L 270.875599 129.2408 
L 272.515269 129.2408 
L 274.154938 148.5944 
L 275.794607 158.2712 
L 277.434277 119.564 
L 279.073946 129.2408 
L 280.713616 136.4984 
L 282.353285 148.5944 
L 283.992955 141.3368 
L 285.632624 105.0488 
L 287.272293 117.1448 
L 288.911963 85.6952 
L 290.551632 105.0488 
L 292.191302 134.0792 
L 293.830971 112.3064 
L 295.47064 134.0792 
L 297.11031 109.8872 
L 298.749979 112.3064 
L 300.389649 85.6952 
L 300.389649 85.6952 
" style="fill:none;stroke:#17becf;stroke-linecap:square;stroke-width:0.5;"/>
   </g>
   <g id="line2d_26">
    <path clip-path="url(#pce2dec8e59)" d="M 49.520227 264.716 
L 51.159897 158.2712 
L 52.799566 165.5288 
L 54.439236 167.948 
L 56.078905 158.2712 
L 60.997913 158.2712 
L 62.637583 172.7864 
L 64.277252 192.14 
L 65.916921 201.8168 
L 67.556591 206.6552 
L 69.19626 182.4632 
L 70.83593 209.0744 
L 72.475599 209.0744 
L 74.115269 172.7864 
L 75.754938 175.2056 
L 77.394607 129.2408 
L 79.034277 129.2408 
L 80.673946 126.8216 
L 82.313616 136.4984 
L 83.953285 136.4984 
L 85.592955 158.2712 
L 87.232624 151.0136 
L 88.872293 160.6904 
L 90.511963 172.7864 
L 92.151632 175.2056 
L 93.791302 175.2056 
L 95.430971 165.5288 
L 100.349979 143.756 
L 101.989649 158.2712 
L 103.629318 167.948 
L 106.908657 167.948 
L 108.548326 160.6904 
L 110.187996 160.6904 
L 111.827665 194.5592 
L 113.467335 192.14 
L 115.107004 209.0744 
L 116.746674 201.8168 
L 128.22436 201.8168 
L 129.864029 160.6904 
L 131.503698 167.948 
L 134.783037 167.948 
L 136.422707 141.3368 
L 138.062376 143.756 
L 139.702045 136.4984 
L 141.341715 112.3064 
L 142.981384 129.2408 
L 144.621054 165.5288 
L 146.260723 172.7864 
L 147.900393 194.5592 
L 149.540062 199.3976 
L 151.179731 192.14 
L 152.819401 192.14 
L 154.45907 172.7864 
L 156.09874 126.8216 
L 157.738409 126.8216 
L 159.378079 134.0792 
L 161.017748 134.0792 
L 162.657417 148.5944 
L 164.297087 192.14 
L 165.936756 201.8168 
L 167.576426 175.2056 
L 169.216095 143.756 
L 170.855764 160.6904 
L 172.495434 112.3064 
L 174.135103 126.8216 
L 175.774773 126.8216 
L 177.414442 109.8872 
L 179.054112 126.8216 
L 180.693781 119.564 
L 182.33345 136.4984 
L 183.97312 143.756 
L 185.612789 136.4984 
L 187.252459 160.6904 
L 188.892128 172.7864 
L 190.531798 151.0136 
L 192.171467 160.6904 
L 193.811136 136.4984 
L 195.450806 134.0792 
L 197.090475 129.2408 
L 198.730145 134.0792 
L 200.369814 143.756 
L 203.649153 143.756 
L 205.288822 129.2408 
L 206.928492 105.0488 
L 210.207831 129.2408 
L 211.8475 117.1448 
L 213.487169 136.4984 
L 215.126839 112.3064 
L 216.766508 141.3368 
L 218.406178 160.6904 
L 220.045847 151.0136 
L 221.685517 160.6904 
L 223.325186 134.0792 
L 224.964855 151.0136 
L 226.604525 172.7864 
L 228.244194 165.5288 
L 229.883864 172.7864 
L 231.523533 129.2408 
L 233.163202 117.1448 
L 234.802872 109.8872 
L 238.082211 109.8872 
L 239.72188 78.4376 
L 241.36155 102.6296 
L 243.001219 105.0488 
L 244.640888 105.0488 
L 246.280558 134.0792 
L 247.920227 119.564 
L 249.559897 134.0792 
L 252.839236 134.0792 
L 254.478905 119.564 
L 256.118574 134.0792 
L 257.758244 136.4984 
L 259.397913 141.3368 
L 261.037583 167.948 
L 262.677252 201.8168 
L 264.316921 182.4632 
L 265.956591 175.2056 
L 267.59626 119.564 
L 270.875599 119.564 
L 272.515269 148.5944 
L 274.154938 175.2056 
L 275.794607 165.5288 
L 279.073946 136.4984 
L 280.713616 180.044 
L 282.353285 151.0136 
L 285.632624 151.0136 
L 287.272293 126.8216 
L 288.911963 119.564 
L 290.551632 126.8216 
L 292.191302 148.5944 
L 293.830971 167.948 
L 295.47064 209.0744 
L 297.11031 255.0392 
L 298.749979 245.3624 
L 302.029318 141.3368 
L 303.668988 109.8872 
L 305.308657 109.8872 
L 306.948326 97.7912 
L 308.587996 151.0136 
L 310.227665 158.2712 
L 311.867335 143.756 
L 313.507004 148.5944 
L 315.146674 141.3368 
L 316.786343 175.2056 
L 318.426012 192.14 
L 321.705351 158.2712 
L 323.345021 129.2408 
L 324.98469 119.564 
L 326.62436 126.8216 
L 328.264029 143.756 
L 329.903698 141.3368 
L 331.543368 160.6904 
L 333.183037 182.4632 
L 334.822707 148.5944 
L 336.462376 158.2712 
L 338.102045 160.6904 
L 339.741715 148.5944 
L 341.381384 165.5288 
L 343.021054 151.0136 
L 344.660723 129.2408 
L 346.300393 129.2408 
L 347.940062 136.4984 
L 349.579731 167.948 
L 351.219401 175.2056 
L 352.85907 199.3976 
L 354.49874 192.14 
L 356.138409 151.0136 
L 357.778079 141.3368 
L 359.417748 97.7912 
L 361.057417 119.564 
L 362.697087 136.4984 
L 364.336756 143.756 
L 365.976426 143.756 
L 367.616095 175.2056 
L 367.616095 175.2056 
" style="fill:none;stroke:#1f77b4;stroke-linecap:square;stroke-width:0.5;"/>
   </g>
   <g id="line2d_27">
    <path clip-path="url(#pce2dec8e59)" d="M 49.520227 264.716 
L 67.556591 264.716 
L 69.19626 119.564 
L 74.115269 119.564 
L 75.754938 112.3064 
L 77.394607 112.3064 
L 79.034277 129.2408 
L 80.673946 119.564 
L 82.313616 119.564 
L 83.953285 136.4984 
L 87.232624 136.4984 
L 88.872293 199.3976 
L 90.511963 151.0136 
L 97.07064 151.0136 
L 98.71031 158.2712 
L 100.349979 112.3064 
L 101.989649 134.0792 
L 103.629318 160.6904 
L 105.268988 119.564 
L 106.908657 158.2712 
L 108.548326 141.3368 
L 110.187996 160.6904 
L 111.827665 141.3368 
L 113.467335 105.0488 
L 115.107004 112.3064 
L 116.746674 85.6952 
L 118.386343 134.0792 
L 120.026012 167.948 
L 121.665682 175.2056 
L 123.305351 136.4984 
L 124.945021 102.6296 
L 128.22436 102.6296 
L 129.864029 112.3064 
L 131.503698 95.372 
L 134.783037 158.2712 
L 136.422707 148.5944 
L 138.062376 148.5944 
L 139.702045 175.2056 
L 141.341715 136.4984 
L 142.981384 143.756 
L 144.621054 148.5944 
L 146.260723 148.5944 
L 147.900393 223.5896 
L 149.540062 192.14 
L 151.179731 201.8168 
L 154.45907 143.756 
L 156.09874 160.6904 
L 157.738409 141.3368 
L 159.378079 112.3064 
L 161.017748 102.6296 
L 162.657417 141.3368 
L 164.297087 165.5288 
L 165.936756 175.2056 
L 167.576426 209.0744 
L 169.216095 172.7864 
L 170.855764 148.5944 
L 172.495434 151.0136 
L 175.774773 117.1448 
L 177.414442 141.3368 
L 180.693781 117.1448 
L 182.33345 117.1448 
L 183.97312 83.276 
L 185.612789 95.372 
L 187.252459 68.7608 
L 188.892128 63.9224 
L 190.531798 54.2456 
L 192.171467 71.18 
L 193.811136 95.372 
L 195.450806 78.4376 
L 197.090475 105.0488 
L 198.730145 105.0488 
L 200.369814 117.1448 
L 202.009483 134.0792 
L 203.649153 97.7912 
L 205.288822 76.0184 
L 206.928492 63.9224 
L 208.568161 39.7304 
L 210.207831 61.5032 
L 211.8475 78.4376 
L 213.487169 117.1448 
L 215.126839 136.4984 
L 216.766508 134.0792 
L 218.406178 126.8216 
L 220.045847 126.8216 
L 221.685517 119.564 
L 223.325186 141.3368 
L 224.964855 148.5944 
L 226.604525 134.0792 
L 228.244194 129.2408 
L 229.883864 141.3368 
L 231.523533 134.0792 
L 233.163202 160.6904 
L 234.802872 216.332 
L 236.442541 213.9128 
L 238.082211 216.332 
L 239.72188 160.6904 
L 241.36155 126.8216 
L 243.001219 105.0488 
L 244.640888 112.3064 
L 246.280558 151.0136 
L 247.920227 167.948 
L 249.559897 192.14 
L 251.199566 201.8168 
L 252.839236 213.9128 
L 254.478905 209.0744 
L 256.118574 226.0088 
L 259.397913 192.14 
L 261.037583 216.332 
L 262.677252 175.2056 
L 264.316921 180.044 
L 265.956591 192.14 
L 267.59626 160.6904 
L 269.23593 148.5944 
L 270.875599 158.2712 
L 272.515269 160.6904 
L 274.154938 141.3368 
L 275.794607 141.3368 
L 277.434277 102.6296 
L 279.073946 119.564 
L 280.713616 141.3368 
L 282.353285 160.6904 
L 283.992955 182.4632 
L 285.632624 151.0136 
L 287.272293 160.6904 
L 288.911963 172.7864 
L 290.551632 226.0088 
L 292.191302 255.0392 
L 293.830971 240.524 
L 295.47064 247.7816 
L 297.11031 223.5896 
L 298.749979 206.6552 
L 300.389649 216.332 
L 302.029318 262.2968 
L 303.668988 230.8472 
L 305.308657 201.8168 
L 308.587996 85.6952 
L 310.227665 105.0488 
L 311.867335 119.564 
L 313.507004 129.2408 
L 315.146674 141.3368 
L 321.705351 141.3368 
L 323.345021 143.756 
L 324.98469 109.8872 
L 326.62436 117.1448 
L 328.264029 119.564 
L 329.903698 119.564 
L 331.543368 109.8872 
L 333.183037 117.1448 
L 334.822707 109.8872 
L 336.462376 63.9224 
L 338.102045 63.9224 
L 339.741715 78.4376 
L 341.381384 95.372 
L 343.021054 129.2408 
L 344.660723 141.3368 
L 346.300393 129.2408 
L 347.940062 165.5288 
L 349.579731 194.5592 
L 351.219401 165.5288 
L 352.85907 165.5288 
L 354.49874 148.5944 
L 356.138409 109.8872 
L 357.778079 136.4984 
L 359.417748 129.2408 
L 361.057417 129.2408 
L 362.697087 141.3368 
L 364.336756 117.1448 
L 365.976426 151.0136 
L 367.616095 160.6904 
L 369.255764 167.948 
L 370.895434 216.332 
L 372.535103 175.2056 
L 372.535103 175.2056 
" style="fill:none;stroke:#ff7f0e;stroke-linecap:square;stroke-width:0.5;"/>
   </g>
   <g id="line2d_28">
    <path clip-path="url(#pce2dec8e59)" d="M 49.520227 264.716 
L 369.255764 264.716 
L 369.255764 264.716 
" style="fill:none;stroke:#2ca02c;stroke-linecap:square;stroke-width:0.5;"/>
   </g>
   <g id="patch_3">
    <path d="M 33.2875 276.812 
L 33.2875 10.7 
" style="fill:none;stroke:#000000;stroke-linecap:square;stroke-linejoin:miter;stroke-width:0.8;"/>
   </g>
   <g id="patch_4">
    <path d="M 390.4075 276.812 
L 390.4075 10.7 
" style="fill:none;stroke:#000000;stroke-linecap:square;stroke-linejoin:miter;stroke-width:0.8;"/>
   </g>
   <g id="patch_5">
    <path d="M 33.2875 276.812 
L 390.4075 276.812 
" style="fill:none;stroke:#000000;stroke-linecap:square;stroke-linejoin:miter;stroke-width:0.8;"/>
   </g>
   <g id="patch_6">
    <path d="M 33.2875 10.7 
L 390.4075 10.7 
" style="fill:none;stroke:#000000;stroke-linecap:square;stroke-linejoin:miter;stroke-width:0.8;"/>
   </g>
  </g>
 </g>
 <defs>
  <clipPath id="pce2dec8e59">
   <rect height="266.112" width="357.12" x="33.2875" y="10.7"/>
  </clipPath>
 </defs>
</svg>
