<?xml version="1.0" encoding="utf-8" standalone="no"?>
<!DOCTYPE svg PUBLIC "-//W3C//DTD SVG 1.1//EN"
  "http://www.w3.org/Graphics/SVG/1.1/DTD/svg11.dtd">
<!-- Created with matplotlib (http://matplotlib.org/) -->
<svg height="300pt" version="1.1" viewBox="0 0 420 300" width="420pt" xmlns="http://www.w3.org/2000/svg" xmlns:xlink="http://www.w3.org/1999/xlink">
 <defs>
  <style type="text/css">
*{stroke-linecap:butt;stroke-linejoin:round;}
  </style>
 </defs>
 <g id="figure_1">
  <g id="patch_1">
   <path d="M 0 300.690125 
L 420.195 300.690125 
L 420.195 0 
L 0 0 
z
" style="fill:#ffffff;"/>
  </g>
  <g id="axes_1">
   <g id="patch_2">
    <path d="M 52.375 276.812 
L 409.495 276.812 
L 409.495 10.7 
L 52.375 10.7 
z
" style="fill:#ffffff;"/>
   </g>
   <g id="matplotlib.axis_1">
    <g id="xtick_1">
     <g id="line2d_1">
      <defs>
       <path d="M 0 0 
L 0 3.5 
" id="md115723e7d" style="stroke:#000000;stroke-width:0.8;"/>
      </defs>
      <g>
       <use style="stroke:#000000;stroke-width:0.8;" x="68.607727" xlink:href="#md115723e7d" y="276.812"/>
      </g>
     </g>
     <g id="text_1">
      <!-- 0 -->
      <defs>
       <path d="M 31.78125 66.40625 
Q 24.171875 66.40625 20.328125 58.90625 
Q 16.5 51.421875 16.5 36.375 
Q 16.5 21.390625 20.328125 13.890625 
Q 24.171875 6.390625 31.78125 6.390625 
Q 39.453125 6.390625 43.28125 13.890625 
Q 47.125 21.390625 47.125 36.375 
Q 47.125 51.421875 43.28125 58.90625 
Q 39.453125 66.40625 31.78125 66.40625 
z
M 31.78125 74.21875 
Q 44.046875 74.21875 50.515625 64.515625 
Q 56.984375 54.828125 56.984375 36.375 
Q 56.984375 17.96875 50.515625 8.265625 
Q 44.046875 -1.421875 31.78125 -1.421875 
Q 19.53125 -1.421875 13.0625 8.265625 
Q 6.59375 17.96875 6.59375 36.375 
Q 6.59375 54.828125 13.0625 64.515625 
Q 19.53125 74.21875 31.78125 74.21875 
z
" id="DejaVuSans-30"/>
      </defs>
      <g transform="translate(65.426477 291.410437)scale(0.1 -0.1)">
       <use xlink:href="#DejaVuSans-30"/>
      </g>
     </g>
    </g>
    <g id="xtick_2">
     <g id="line2d_2">
      <g>
       <use style="stroke:#000000;stroke-width:0.8;" x="109.599463" xlink:href="#md115723e7d" y="276.812"/>
      </g>
     </g>
     <g id="text_2">
      <!-- 25 -->
      <defs>
       <path d="M 19.1875 8.296875 
L 53.609375 8.296875 
L 53.609375 0 
L 7.328125 0 
L 7.328125 8.296875 
Q 12.9375 14.109375 22.625 23.890625 
Q 32.328125 33.6875 34.8125 36.53125 
Q 39.546875 41.84375 41.421875 45.53125 
Q 43.3125 49.21875 43.3125 52.78125 
Q 43.3125 58.59375 39.234375 62.25 
Q 35.15625 65.921875 28.609375 65.921875 
Q 23.96875 65.921875 18.8125 64.3125 
Q 13.671875 62.703125 7.8125 59.421875 
L 7.8125 69.390625 
Q 13.765625 71.78125 18.9375 73 
Q 24.125 74.21875 28.421875 74.21875 
Q 39.75 74.21875 46.484375 68.546875 
Q 53.21875 62.890625 53.21875 53.421875 
Q 53.21875 48.921875 51.53125 44.890625 
Q 49.859375 40.875 45.40625 35.40625 
Q 44.1875 33.984375 37.640625 27.21875 
Q 31.109375 20.453125 19.1875 8.296875 
z
" id="DejaVuSans-32"/>
       <path d="M 10.796875 72.90625 
L 49.515625 72.90625 
L 49.515625 64.59375 
L 19.828125 64.59375 
L 19.828125 46.734375 
Q 21.96875 47.46875 24.109375 47.828125 
Q 26.265625 48.1875 28.421875 48.1875 
Q 40.625 48.1875 47.75 41.5 
Q 54.890625 34.8125 54.890625 23.390625 
Q 54.890625 11.625 47.5625 5.09375 
Q 40.234375 -1.421875 26.90625 -1.421875 
Q 22.3125 -1.421875 17.546875 -0.640625 
Q 12.796875 0.140625 7.71875 1.703125 
L 7.71875 11.625 
Q 12.109375 9.234375 16.796875 8.0625 
Q 21.484375 6.890625 26.703125 6.890625 
Q 35.15625 6.890625 40.078125 11.328125 
Q 45.015625 15.765625 45.015625 23.390625 
Q 45.015625 31 40.078125 35.4375 
Q 35.15625 39.890625 26.703125 39.890625 
Q 22.75 39.890625 18.8125 39.015625 
Q 14.890625 38.140625 10.796875 36.28125 
z
" id="DejaVuSans-35"/>
      </defs>
      <g transform="translate(103.236963 291.410437)scale(0.1 -0.1)">
       <use xlink:href="#DejaVuSans-32"/>
       <use x="63.623047" xlink:href="#DejaVuSans-35"/>
      </g>
     </g>
    </g>
    <g id="xtick_3">
     <g id="line2d_3">
      <g>
       <use style="stroke:#000000;stroke-width:0.8;" x="150.591198" xlink:href="#md115723e7d" y="276.812"/>
      </g>
     </g>
     <g id="text_3">
      <!-- 50 -->
      <g transform="translate(144.228698 291.410437)scale(0.1 -0.1)">
       <use xlink:href="#DejaVuSans-35"/>
       <use x="63.623047" xlink:href="#DejaVuSans-30"/>
      </g>
     </g>
    </g>
    <g id="xtick_4">
     <g id="line2d_4">
      <g>
       <use style="stroke:#000000;stroke-width:0.8;" x="191.582934" xlink:href="#md115723e7d" y="276.812"/>
      </g>
     </g>
     <g id="text_4">
      <!-- 75 -->
      <defs>
       <path d="M 8.203125 72.90625 
L 55.078125 72.90625 
L 55.078125 68.703125 
L 28.609375 0 
L 18.3125 0 
L 43.21875 64.59375 
L 8.203125 64.59375 
z
" id="DejaVuSans-37"/>
      </defs>
      <g transform="translate(185.220434 291.410437)scale(0.1 -0.1)">
       <use xlink:href="#DejaVuSans-37"/>
       <use x="63.623047" xlink:href="#DejaVuSans-35"/>
      </g>
     </g>
    </g>
    <g id="xtick_5">
     <g id="line2d_5">
      <g>
       <use style="stroke:#000000;stroke-width:0.8;" x="232.574669" xlink:href="#md115723e7d" y="276.812"/>
      </g>
     </g>
     <g id="text_5">
      <!-- 100 -->
      <defs>
       <path d="M 12.40625 8.296875 
L 28.515625 8.296875 
L 28.515625 63.921875 
L 10.984375 60.40625 
L 10.984375 69.390625 
L 28.421875 72.90625 
L 38.28125 72.90625 
L 38.28125 8.296875 
L 54.390625 8.296875 
L 54.390625 0 
L 12.40625 0 
z
" id="DejaVuSans-31"/>
      </defs>
      <g transform="translate(223.030919 291.410437)scale(0.1 -0.1)">
       <use xlink:href="#DejaVuSans-31"/>
       <use x="63.623047" xlink:href="#DejaVuSans-30"/>
       <use x="127.246094" xlink:href="#DejaVuSans-30"/>
      </g>
     </g>
    </g>
    <g id="xtick_6">
     <g id="line2d_6">
      <g>
       <use style="stroke:#000000;stroke-width:0.8;" x="273.566405" xlink:href="#md115723e7d" y="276.812"/>
      </g>
     </g>
     <g id="text_6">
      <!-- 125 -->
      <g transform="translate(264.022655 291.410437)scale(0.1 -0.1)">
       <use xlink:href="#DejaVuSans-31"/>
       <use x="63.623047" xlink:href="#DejaVuSans-32"/>
       <use x="127.246094" xlink:href="#DejaVuSans-35"/>
      </g>
     </g>
    </g>
    <g id="xtick_7">
     <g id="line2d_7">
      <g>
       <use style="stroke:#000000;stroke-width:0.8;" x="314.55814" xlink:href="#md115723e7d" y="276.812"/>
      </g>
     </g>
     <g id="text_7">
      <!-- 150 -->
      <g transform="translate(305.01439 291.410437)scale(0.1 -0.1)">
       <use xlink:href="#DejaVuSans-31"/>
       <use x="63.623047" xlink:href="#DejaVuSans-35"/>
       <use x="127.246094" xlink:href="#DejaVuSans-30"/>
      </g>
     </g>
    </g>
    <g id="xtick_8">
     <g id="line2d_8">
      <g>
       <use style="stroke:#000000;stroke-width:0.8;" x="355.549876" xlink:href="#md115723e7d" y="276.812"/>
      </g>
     </g>
     <g id="text_8">
      <!-- 175 -->
      <g transform="translate(346.006126 291.410437)scale(0.1 -0.1)">
       <use xlink:href="#DejaVuSans-31"/>
       <use x="63.623047" xlink:href="#DejaVuSans-37"/>
       <use x="127.246094" xlink:href="#DejaVuSans-35"/>
      </g>
     </g>
    </g>
    <g id="xtick_9">
     <g id="line2d_9">
      <g>
       <use style="stroke:#000000;stroke-width:0.8;" x="396.541612" xlink:href="#md115723e7d" y="276.812"/>
      </g>
     </g>
     <g id="text_9">
      <!-- 200 -->
      <g transform="translate(386.997862 291.410437)scale(0.1 -0.1)">
       <use xlink:href="#DejaVuSans-32"/>
       <use x="63.623047" xlink:href="#DejaVuSans-30"/>
       <use x="127.246094" xlink:href="#DejaVuSans-30"/>
      </g>
     </g>
    </g>
   </g>
   <g id="matplotlib.axis_2">
    <g id="ytick_1">
     <g id="line2d_10">
      <defs>
       <path d="M 0 0 
L -3.5 0 
" id="m4a8638bc54" style="stroke:#000000;stroke-width:0.8;"/>
      </defs>
      <g>
       <use style="stroke:#000000;stroke-width:0.8;" x="52.375" xlink:href="#m4a8638bc54" y="264.716"/>
      </g>
     </g>
     <g id="text_10">
      <!-- 0 -->
      <g transform="translate(39.0125 268.515219)scale(0.1 -0.1)">
       <use xlink:href="#DejaVuSans-30"/>
      </g>
     </g>
    </g>
    <g id="ytick_2">
     <g id="line2d_11">
      <g>
       <use style="stroke:#000000;stroke-width:0.8;" x="52.375" xlink:href="#m4a8638bc54" y="235.121638"/>
      </g>
     </g>
     <g id="text_11">
      <!-- 100000 -->
      <g transform="translate(7.2 238.920857)scale(0.1 -0.1)">
       <use xlink:href="#DejaVuSans-31"/>
       <use x="63.623047" xlink:href="#DejaVuSans-30"/>
       <use x="127.246094" xlink:href="#DejaVuSans-30"/>
       <use x="190.869141" xlink:href="#DejaVuSans-30"/>
       <use x="254.492188" xlink:href="#DejaVuSans-30"/>
       <use x="318.115234" xlink:href="#DejaVuSans-30"/>
      </g>
     </g>
    </g>
    <g id="ytick_3">
     <g id="line2d_12">
      <g>
       <use style="stroke:#000000;stroke-width:0.8;" x="52.375" xlink:href="#m4a8638bc54" y="205.527276"/>
      </g>
     </g>
     <g id="text_12">
      <!-- 200000 -->
      <g transform="translate(7.2 209.326495)scale(0.1 -0.1)">
       <use xlink:href="#DejaVuSans-32"/>
       <use x="63.623047" xlink:href="#DejaVuSans-30"/>
       <use x="127.246094" xlink:href="#DejaVuSans-30"/>
       <use x="190.869141" xlink:href="#DejaVuSans-30"/>
       <use x="254.492188" xlink:href="#DejaVuSans-30"/>
       <use x="318.115234" xlink:href="#DejaVuSans-30"/>
      </g>
     </g>
    </g>
    <g id="ytick_4">
     <g id="line2d_13">
      <g>
       <use style="stroke:#000000;stroke-width:0.8;" x="52.375" xlink:href="#m4a8638bc54" y="175.932914"/>
      </g>
     </g>
     <g id="text_13">
      <!-- 300000 -->
      <defs>
       <path d="M 40.578125 39.3125 
Q 47.65625 37.796875 51.625 33 
Q 55.609375 28.21875 55.609375 21.1875 
Q 55.609375 10.40625 48.1875 4.484375 
Q 40.765625 -1.421875 27.09375 -1.421875 
Q 22.515625 -1.421875 17.65625 -0.515625 
Q 12.796875 0.390625 7.625 2.203125 
L 7.625 11.71875 
Q 11.71875 9.328125 16.59375 8.109375 
Q 21.484375 6.890625 26.8125 6.890625 
Q 36.078125 6.890625 40.9375 10.546875 
Q 45.796875 14.203125 45.796875 21.1875 
Q 45.796875 27.640625 41.28125 31.265625 
Q 36.765625 34.90625 28.71875 34.90625 
L 20.21875 34.90625 
L 20.21875 43.015625 
L 29.109375 43.015625 
Q 36.375 43.015625 40.234375 45.921875 
Q 44.09375 48.828125 44.09375 54.296875 
Q 44.09375 59.90625 40.109375 62.90625 
Q 36.140625 65.921875 28.71875 65.921875 
Q 24.65625 65.921875 20.015625 65.03125 
Q 15.375 64.15625 9.8125 62.3125 
L 9.8125 71.09375 
Q 15.4375 72.65625 20.34375 73.4375 
Q 25.25 74.21875 29.59375 74.21875 
Q 40.828125 74.21875 47.359375 69.109375 
Q 53.90625 64.015625 53.90625 55.328125 
Q 53.90625 49.265625 50.4375 45.09375 
Q 46.96875 40.921875 40.578125 39.3125 
z
" id="DejaVuSans-33"/>
      </defs>
      <g transform="translate(7.2 179.732133)scale(0.1 -0.1)">
       <use xlink:href="#DejaVuSans-33"/>
       <use x="63.623047" xlink:href="#DejaVuSans-30"/>
       <use x="127.246094" xlink:href="#DejaVuSans-30"/>
       <use x="190.869141" xlink:href="#DejaVuSans-30"/>
       <use x="254.492188" xlink:href="#DejaVuSans-30"/>
       <use x="318.115234" xlink:href="#DejaVuSans-30"/>
      </g>
     </g>
    </g>
    <g id="ytick_5">
     <g id="line2d_14">
      <g>
       <use style="stroke:#000000;stroke-width:0.8;" x="52.375" xlink:href="#m4a8638bc54" y="146.338552"/>
      </g>
     </g>
     <g id="text_14">
      <!-- 400000 -->
      <defs>
       <path d="M 37.796875 64.3125 
L 12.890625 25.390625 
L 37.796875 25.390625 
z
M 35.203125 72.90625 
L 47.609375 72.90625 
L 47.609375 25.390625 
L 58.015625 25.390625 
L 58.015625 17.1875 
L 47.609375 17.1875 
L 47.609375 0 
L 37.796875 0 
L 37.796875 17.1875 
L 4.890625 17.1875 
L 4.890625 26.703125 
z
" id="DejaVuSans-34"/>
      </defs>
      <g transform="translate(7.2 150.137771)scale(0.1 -0.1)">
       <use xlink:href="#DejaVuSans-34"/>
       <use x="63.623047" xlink:href="#DejaVuSans-30"/>
       <use x="127.246094" xlink:href="#DejaVuSans-30"/>
       <use x="190.869141" xlink:href="#DejaVuSans-30"/>
       <use x="254.492188" xlink:href="#DejaVuSans-30"/>
       <use x="318.115234" xlink:href="#DejaVuSans-30"/>
      </g>
     </g>
    </g>
    <g id="ytick_6">
     <g id="line2d_15">
      <g>
       <use style="stroke:#000000;stroke-width:0.8;" x="52.375" xlink:href="#m4a8638bc54" y="116.74419"/>
      </g>
     </g>
     <g id="text_15">
      <!-- 500000 -->
      <g transform="translate(7.2 120.543409)scale(0.1 -0.1)">
       <use xlink:href="#DejaVuSans-35"/>
       <use x="63.623047" xlink:href="#DejaVuSans-30"/>
       <use x="127.246094" xlink:href="#DejaVuSans-30"/>
       <use x="190.869141" xlink:href="#DejaVuSans-30"/>
       <use x="254.492188" xlink:href="#DejaVuSans-30"/>
       <use x="318.115234" xlink:href="#DejaVuSans-30"/>
      </g>
     </g>
    </g>
    <g id="ytick_7">
     <g id="line2d_16">
      <g>
       <use style="stroke:#000000;stroke-width:0.8;" x="52.375" xlink:href="#m4a8638bc54" y="87.149828"/>
      </g>
     </g>
     <g id="text_16">
      <!-- 600000 -->
      <defs>
       <path d="M 33.015625 40.375 
Q 26.375 40.375 22.484375 35.828125 
Q 18.609375 31.296875 18.609375 23.390625 
Q 18.609375 15.53125 22.484375 10.953125 
Q 26.375 6.390625 33.015625 6.390625 
Q 39.65625 6.390625 43.53125 10.953125 
Q 47.40625 15.53125 47.40625 23.390625 
Q 47.40625 31.296875 43.53125 35.828125 
Q 39.65625 40.375 33.015625 40.375 
z
M 52.59375 71.296875 
L 52.59375 62.3125 
Q 48.875 64.0625 45.09375 64.984375 
Q 41.3125 65.921875 37.59375 65.921875 
Q 27.828125 65.921875 22.671875 59.328125 
Q 17.53125 52.734375 16.796875 39.40625 
Q 19.671875 43.65625 24.015625 45.921875 
Q 28.375 48.1875 33.59375 48.1875 
Q 44.578125 48.1875 50.953125 41.515625 
Q 57.328125 34.859375 57.328125 23.390625 
Q 57.328125 12.15625 50.6875 5.359375 
Q 44.046875 -1.421875 33.015625 -1.421875 
Q 20.359375 -1.421875 13.671875 8.265625 
Q 6.984375 17.96875 6.984375 36.375 
Q 6.984375 53.65625 15.1875 63.9375 
Q 23.390625 74.21875 37.203125 74.21875 
Q 40.921875 74.21875 44.703125 73.484375 
Q 48.484375 72.75 52.59375 71.296875 
z
" id="DejaVuSans-36"/>
      </defs>
      <g transform="translate(7.2 90.949047)scale(0.1 -0.1)">
       <use xlink:href="#DejaVuSans-36"/>
       <use x="63.623047" xlink:href="#DejaVuSans-30"/>
       <use x="127.246094" xlink:href="#DejaVuSans-30"/>
       <use x="190.869141" xlink:href="#DejaVuSans-30"/>
       <use x="254.492188" xlink:href="#DejaVuSans-30"/>
       <use x="318.115234" xlink:href="#DejaVuSans-30"/>
      </g>
     </g>
    </g>
    <g id="ytick_8">
     <g id="line2d_17">
      <g>
       <use style="stroke:#000000;stroke-width:0.8;" x="52.375" xlink:href="#m4a8638bc54" y="57.555466"/>
      </g>
     </g>
     <g id="text_17">
      <!-- 700000 -->
      <g transform="translate(7.2 61.354685)scale(0.1 -0.1)">
       <use xlink:href="#DejaVuSans-37"/>
       <use x="63.623047" xlink:href="#DejaVuSans-30"/>
       <use x="127.246094" xlink:href="#DejaVuSans-30"/>
       <use x="190.869141" xlink:href="#DejaVuSans-30"/>
       <use x="254.492188" xlink:href="#DejaVuSans-30"/>
       <use x="318.115234" xlink:href="#DejaVuSans-30"/>
      </g>
     </g>
    </g>
    <g id="ytick_9">
     <g id="line2d_18">
      <g>
       <use style="stroke:#000000;stroke-width:0.8;" x="52.375" xlink:href="#m4a8638bc54" y="27.961104"/>
      </g>
     </g>
     <g id="text_18">
      <!-- 800000 -->
      <defs>
       <path d="M 31.78125 34.625 
Q 24.75 34.625 20.71875 30.859375 
Q 16.703125 27.09375 16.703125 20.515625 
Q 16.703125 13.921875 20.71875 10.15625 
Q 24.75 6.390625 31.78125 6.390625 
Q 38.8125 6.390625 42.859375 10.171875 
Q 46.921875 13.96875 46.921875 20.515625 
Q 46.921875 27.09375 42.890625 30.859375 
Q 38.875 34.625 31.78125 34.625 
z
M 21.921875 38.8125 
Q 15.578125 40.375 12.03125 44.71875 
Q 8.5 49.078125 8.5 55.328125 
Q 8.5 64.0625 14.71875 69.140625 
Q 20.953125 74.21875 31.78125 74.21875 
Q 42.671875 74.21875 48.875 69.140625 
Q 55.078125 64.0625 55.078125 55.328125 
Q 55.078125 49.078125 51.53125 44.71875 
Q 48 40.375 41.703125 38.8125 
Q 48.828125 37.15625 52.796875 32.3125 
Q 56.78125 27.484375 56.78125 20.515625 
Q 56.78125 9.90625 50.3125 4.234375 
Q 43.84375 -1.421875 31.78125 -1.421875 
Q 19.734375 -1.421875 13.25 4.234375 
Q 6.78125 9.90625 6.78125 20.515625 
Q 6.78125 27.484375 10.78125 32.3125 
Q 14.796875 37.15625 21.921875 38.8125 
z
M 18.3125 54.390625 
Q 18.3125 48.734375 21.84375 45.5625 
Q 25.390625 42.390625 31.78125 42.390625 
Q 38.140625 42.390625 41.71875 45.5625 
Q 45.3125 48.734375 45.3125 54.390625 
Q 45.3125 60.0625 41.71875 63.234375 
Q 38.140625 66.40625 31.78125 66.40625 
Q 25.390625 66.40625 21.84375 63.234375 
Q 18.3125 60.0625 18.3125 54.390625 
z
" id="DejaVuSans-38"/>
      </defs>
      <g transform="translate(7.2 31.760323)scale(0.1 -0.1)">
       <use xlink:href="#DejaVuSans-38"/>
       <use x="63.623047" xlink:href="#DejaVuSans-30"/>
       <use x="127.246094" xlink:href="#DejaVuSans-30"/>
       <use x="190.869141" xlink:href="#DejaVuSans-30"/>
       <use x="254.492188" xlink:href="#DejaVuSans-30"/>
       <use x="318.115234" xlink:href="#DejaVuSans-30"/>
      </g>
     </g>
    </g>
   </g>
   <g id="line2d_19">
    <path clip-path="url(#pf691178c5a)" d="M 68.607727 264.560038 
L 70.247397 263.430717 
L 71.887066 263.38159 
L 73.526736 262.365912 
L 75.166405 262.796214 
L 78.445744 264.690549 
L 80.085413 264.230948 
L 81.725083 264.564477 
L 83.364752 264.563293 
L 85.004421 263.224444 
L 86.644091 263.384254 
L 88.28376 264.397861 
L 89.92343 264.35998 
L 91.563099 263.469781 
L 93.202769 263.565963 
L 94.842438 264.392534 
L 96.482107 264.053086 
L 98.121777 260.447605 
L 99.761446 261.59853 
L 101.401116 264.548496 
L 104.680455 262.498199 
L 106.320124 264.202834 
L 107.959793 264.05575 
L 109.599463 261.388706 
L 111.239132 264.286882 
L 112.878802 263.961936 
L 114.518471 264.41325 
L 116.15814 263.544655 
L 117.79781 264.13743 
L 119.437479 263.234802 
L 121.077149 264.126776 
L 122.716818 262.922582 
L 124.356488 264.472438 
L 125.996157 263.987387 
L 127.635826 264.16081 
L 129.275496 264.450243 
L 130.915165 264.322395 
L 132.554835 263.386029 
L 134.194504 263.891205 
L 135.834174 263.879663 
L 137.473843 264.330977 
L 139.113512 264.384543 
L 142.392851 262.158751 
L 144.032521 264.311445 
L 145.67219 263.063451 
L 147.31186 263.420063 
L 148.951529 264.684038 
L 150.591198 262.542294 
L 152.230868 263.750632 
L 153.870537 263.453209 
L 158.789545 263.99005 
L 160.429215 264.425383 
L 163.708554 264.238347 
L 165.348223 264.291025 
L 166.987893 263.443442 
L 168.627562 263.218229 
L 173.54657 264.169688 
L 175.18624 264.059301 
L 176.825909 264.585489 
L 178.465579 263.766021 
L 180.105248 264.515942 
L 183.384587 263.944179 
L 185.024256 263.95868 
L 186.663926 264.596143 
L 188.303595 264.56862 
L 191.582934 263.703281 
L 193.222603 264.535178 
L 194.862273 264.014022 
L 196.501942 263.734355 
L 198.141612 264.186261 
L 203.06062 264.460305 
L 204.700289 264.058117 
L 206.339959 262.850963 
L 207.979628 264.469479 
L 209.619298 263.8551 
L 212.898636 264.446099 
L 214.538306 264.003368 
L 216.177975 263.958384 
L 217.817645 264.499073 
L 219.457314 263.292511 
L 221.096983 264.479541 
L 222.736653 264.65474 
L 224.376322 264.354653 
L 226.015992 263.491681 
L 227.655661 264.339856 
L 229.295331 263.769276 
L 232.574669 264.45409 
L 234.214339 264.176199 
L 235.854008 263.747081 
L 237.493678 264.398748 
L 239.133347 263.473629 
L 240.773017 262.147209 
L 242.412686 264.100141 
L 244.052355 263.67487 
L 245.692025 264.567436 
L 247.331694 264.48546 
L 248.971364 264.229469 
L 250.611033 264.585489 
L 252.250702 264.635799 
L 253.890372 263.735835 
L 255.530041 264.608277 
L 257.169711 263.59467 
L 258.80938 264.553231 
L 260.44905 263.612722 
L 262.088719 264.387503 
L 263.728388 264.251664 
L 265.368058 264.524524 
L 267.007727 263.525715 
L 268.647397 264.547016 
L 270.287066 263.999816 
L 271.926736 262.726667 
L 273.566405 262.435458 
L 275.206074 264.327426 
L 276.845744 264.561517 
L 278.485413 264.100437 
L 281.764752 264.125297 
L 283.404421 263.988275 
L 285.044091 264.205201 
L 288.32343 264.23302 
L 289.963099 264.042728 
L 291.602769 263.394908 
L 293.242438 264.494634 
L 298.161446 264.15933 
L 299.801116 264.458529 
L 301.440785 264.522157 
L 303.080455 263.789105 
L 304.720124 264.352877 
L 306.359793 264.369746 
L 307.999463 264.040953 
L 309.639132 264.549976 
L 311.278802 264.169984 
L 312.918471 264.364419 
L 314.55814 264.090967 
L 316.19781 264.081201 
L 317.837479 264.531331 
L 319.477149 264.16081 
L 321.116818 264.603245 
L 322.756488 264.447283 
L 324.396157 260.735262 
L 326.035826 261.180658 
L 327.675496 263.23569 
L 329.315165 263.738794 
L 330.954835 263.965783 
L 332.594504 258.939181 
L 334.234174 256.962869 
L 335.873843 256.667221 
L 337.513512 264.111091 
L 339.153182 263.537848 
L 340.792851 264.45409 
L 342.432521 259.240451 
L 344.07219 262.884405 
L 345.71186 263.595853 
L 348.991198 259.501473 
L 350.630868 264.207569 
L 352.270537 264.177679 
L 353.910207 264.486052 
L 357.189545 264.422424 
L 358.829215 263.242201 
L 360.468884 261.012266 
L 362.108554 263.974957 
L 363.748223 263.471557 
L 365.387893 263.70772 
L 367.027562 264.572467 
L 371.94657 264.52926 
L 373.58624 263.554125 
L 375.225909 264.22355 
L 376.865579 263.811596 
L 378.505248 263.874336 
L 380.144917 264.049239 
L 381.784587 264.037697 
L 383.424256 263.491977 
L 385.063926 264.603245 
L 386.703595 264.653556 
L 388.343264 264.223846 
L 389.982934 264.257287 
L 391.622603 264.060189 
L 393.262273 264.387503 
L 393.262273 264.387503 
" style="fill:none;stroke:#1f77b4;stroke-linecap:square;stroke-width:0.5;"/>
   </g>
   <g id="line2d_20">
    <path clip-path="url(#pf691178c5a)" d="M 68.607727 263.356731 
L 70.247397 263.159337 
L 71.887066 264.394605 
L 73.526736 264.605021 
L 75.166405 264.094814 
L 76.806074 252.429605 
L 78.445744 263.457648 
L 80.085413 263.207279 
L 81.725083 263.374488 
L 83.364752 258.241345 
L 85.004421 263.293399 
L 86.644091 262.469788 
L 88.28376 263.896236 
L 89.92343 264.355541 
L 91.563099 262.906601 
L 93.202769 262.486361 
L 96.482107 264.588448 
L 98.121777 263.611242 
L 99.761446 264.262318 
L 101.401116 257.236617 
L 103.040785 262.940634 
L 104.680455 264.541985 
L 106.320124 262.202847 
L 107.959793 264.317068 
L 109.599463 248.653364 
L 111.239132 262.720748 
L 112.878802 263.829057 
L 114.518471 263.920504 
L 117.79781 263.837047 
L 119.437479 264.514462 
L 122.716818 262.7024 
L 124.356488 263.621896 
L 127.635826 262.894763 
L 129.275496 263.351108 
L 130.915165 264.42124 
L 132.554835 263.344005 
L 134.194504 263.534889 
L 135.834174 262.928205 
L 137.473843 264.386023 
L 139.113512 258.382807 
L 140.753182 264.373593 
L 142.392851 263.53045 
L 144.032521 260.878499 
L 145.67219 264.348142 
L 147.31186 254.264751 
L 148.951529 262.684347 
L 150.591198 264.17827 
L 152.230868 264.566253 
L 153.870537 262.754486 
L 155.510207 264.24545 
L 157.149876 236.740746 
L 158.789545 259.722543 
L 160.429215 257.691482 
L 162.068884 263.824914 
L 163.708554 258.622521 
L 165.348223 261.677547 
L 166.987893 263.195146 
L 168.627562 264.452314 
L 170.267231 264.422424 
L 171.906901 263.733171 
L 175.18624 263.929678 
L 176.825909 259.6965 
L 178.465579 263.288664 
L 180.105248 258.282778 
L 181.744917 261.293708 
L 183.384587 260.987406 
L 185.024256 259.736749 
L 186.663926 263.005446 
L 188.303595 248.325459 
L 189.943264 264.547312 
L 191.582934 263.696178 
L 193.222603 260.359118 
L 194.862273 262.03919 
L 196.501942 263.470077 
L 198.141612 262.053099 
L 199.781281 264.398157 
L 201.42095 263.944475 
L 203.06062 261.077077 
L 204.700289 263.395796 
L 206.339959 263.901267 
L 207.979628 263.683749 
L 209.619298 264.561517 
L 211.258967 260.954261 
L 212.898636 260.299337 
L 214.538306 263.264988 
L 216.177975 260.757162 
L 217.817645 263.63255 
L 219.457314 259.543497 
L 221.096983 262.487249 
L 222.736653 263.759806 
L 224.376322 261.953662 
L 226.015992 263.547319 
L 227.655661 263.939148 
L 229.295331 261.456477 
L 230.935 262.94389 
L 232.574669 264.071139 
L 234.214339 264.183301 
L 237.493678 264.005735 
L 239.133347 264.53873 
L 240.773017 264.067883 
L 242.412686 260.906614 
L 244.052355 262.625158 
L 245.692025 264.161106 
L 247.331694 263.969334 
L 248.971364 264.229765 
L 250.611033 264.0886 
L 252.250702 262.586094 
L 253.890372 264.56063 
L 255.530041 264.46652 
L 257.169711 264.013726 
L 258.80938 263.427461 
L 260.44905 264.267054 
L 262.088719 264.344591 
L 263.728388 262.739689 
L 265.368058 262.774906 
L 267.007727 263.908074 
L 268.647397 264.645861 
L 270.287066 261.715724 
L 271.926736 257.251118 
L 273.566405 261.911638 
L 275.206074 262.911336 
L 276.845744 262.747087 
L 278.485413 264.477469 
L 280.125083 262.255525 
L 281.764752 262.578991 
L 283.404421 264.412658 
L 285.044091 256.285454 
L 286.68376 264.194547 
L 288.32343 262.924061 
L 289.963099 263.573954 
L 291.602769 263.302869 
L 293.242438 263.766317 
L 294.882107 262.932348 
L 296.521777 264.521861 
L 298.161446 264.066108 
L 299.801116 262.915775 
L 301.440785 264.291025 
L 303.080455 264.164657 
L 304.720124 262.85629 
L 306.359793 257.987426 
L 307.999463 263.698842 
L 309.639132 264.307598 
L 311.278802 264.126184 
L 312.918471 264.407035 
L 314.55814 263.636102 
L 316.19781 264.365307 
L 317.837479 262.746791 
L 319.477149 258.483723 
L 321.116818 264.301383 
L 322.756488 264.534291 
L 324.396157 264.304638 
L 326.035826 264.442252 
L 327.675496 264.391054 
L 329.315165 264.206977 
L 330.954835 262.481626 
L 332.594504 264.232132 
L 334.234174 264.531331 
L 335.873843 264.412658 
L 337.513512 264.537842 
L 342.432521 264.3147 
L 344.07219 262.962534 
L 345.71186 264.629289 
L 347.351529 264.343703 
L 348.991198 263.784961 
L 350.630868 262.85777 
L 352.270537 264.085936 
L 353.910207 264.439885 
L 355.549876 264.522749 
L 357.189545 262.982362 
L 358.829215 262.200479 
L 360.468884 264.49641 
L 362.108554 264.578386 
L 365.387893 263.885286 
L 367.027562 263.384254 
L 368.667231 260.723425 
L 370.306901 264.433374 
L 371.94657 263.784665 
L 373.58624 263.866346 
L 375.225909 264.341631 
L 376.865579 264.566548 
L 378.505248 264.147492 
L 380.144917 264.305822 
L 381.784587 263.923167 
L 383.424256 263.216158 
L 385.063926 264.528964 
L 386.703595 263.526603 
L 386.703595 263.526603 
" style="fill:none;stroke:#ff7f0e;stroke-linecap:square;stroke-width:0.5;"/>
   </g>
   <g id="line2d_21">
    <path clip-path="url(#pf691178c5a)" d="M 68.607727 263.965487 
L 70.247397 263.849773 
L 71.887066 264.356429 
L 73.526736 264.036218 
L 75.166405 264.269125 
L 76.806074 263.882327 
L 78.445744 264.114347 
L 80.085413 263.814556 
L 81.725083 264.447875 
L 83.364752 264.461784 
L 85.004421 264.05575 
L 86.644091 264.164065 
L 88.28376 262.533416 
L 89.92343 263.958384 
L 91.563099 264.320915 
L 94.842438 264.619818 
L 96.482107 263.493457 
L 98.121777 264.559742 
L 101.401116 263.686412 
L 103.040785 264.383359 
L 104.680455 264.614195 
L 109.599463 264.367082 
L 111.239132 263.648531 
L 112.878802 264.512983 
L 114.518471 263.549982 
L 116.15814 264.385727 
L 117.79781 263.809821 
L 121.077149 264.294576 
L 122.716818 263.559452 
L 124.356488 264.549384 
L 125.996157 263.251079 
L 127.635826 264.628697 
L 129.275496 264.621594 
L 130.915165 263.970814 
L 132.554835 264.460897 
L 134.194504 264.235092 
L 137.473843 264.257879 
L 139.113512 263.977917 
L 140.753182 264.613012 
L 142.392851 264.022308 
L 144.032521 264.150156 
L 145.67219 263.911921 
L 147.31186 264.207569 
L 148.951529 264.130919 
L 150.591198 264.526892 
L 152.230868 264.462968 
L 153.870537 264.513871 
L 155.510207 263.875816 
L 158.789545 264.549088 
L 160.429215 264.581642 
L 162.068884 264.091855 
L 163.708554 264.476582 
L 165.348223 264.566844 
L 166.987893 264.017869 
L 168.627562 264.229469 
L 170.267231 264.142165 
L 171.906901 263.747968 
L 175.18624 264.036218 
L 176.825909 263.628111 
L 178.465579 263.745009 
L 180.105248 263.462383 
L 181.744917 263.838823 
L 183.384587 263.848885 
L 185.024256 264.029115 
L 186.663926 263.792656 
L 188.303595 263.991826 
L 189.943264 264.482796 
L 191.582934 263.498784 
L 193.222603 264.313813 
L 194.862273 263.369457 
L 196.501942 263.398163 
L 198.141612 264.573651 
L 199.781281 263.788809 
L 201.42095 263.940628 
L 203.06062 264.448171 
L 204.700289 263.136549 
L 206.339959 264.677823 
L 207.979628 263.455872 
L 209.619298 263.291623 
L 211.258967 264.692029 
L 212.898636 264.129736 
L 214.538306 264.393126 
L 216.177975 264.517126 
L 217.817645 264.2564 
L 219.457314 263.529562 
L 221.096983 264.396677 
L 222.736653 263.39254 
L 224.376322 264.196323 
L 226.015992 262.981178 
L 227.655661 264.60946 
L 229.295331 264.581938 
L 230.935 264.18271 
L 232.574669 263.355251 
L 234.214339 264.622186 
L 235.854008 263.99952 
L 237.493678 263.971998 
L 239.133347 263.760398 
L 240.773017 263.80183 
L 242.412686 262.762476 
L 244.052355 263.527786 
L 245.692025 263.360282 
L 247.331694 263.760398 
L 248.971364 264.679303 
L 252.250702 264.494634 
L 253.890372 263.912809 
L 255.530041 263.692331 
L 257.169711 263.993306 
L 258.80938 264.012838 
L 260.44905 263.708312 
L 262.088719 263.87404 
L 263.728388 263.485466 
L 265.368058 264.075578 
L 267.007727 263.796799 
L 268.647397 264.300199 
L 270.287066 264.318844 
L 271.926736 263.827577 
L 273.566405 264.511207 
L 275.206074 264.434558 
L 276.845744 263.889725 
L 278.485413 264.468295 
L 281.764752 263.138325 
L 283.404421 263.485466 
L 285.044091 263.627223 
L 286.68376 264.064924 
L 288.32343 263.752408 
L 289.963099 264.580458 
L 291.602769 264.386023 
L 293.242438 262.448776 
L 294.882107 264.458233 
L 296.521777 264.228581 
L 298.161446 263.800942 
L 299.801116 264.598806 
L 301.440785 264.440181 
L 303.080455 260.339882 
L 304.720124 261.960469 
L 306.359793 262.619239 
L 307.999463 264.036513 
L 309.639132 263.93826 
L 311.278802 264.64231 
L 312.918471 264.596439 
L 314.55814 263.231547 
L 316.19781 263.916064 
L 319.477149 264.45261 
L 322.756488 264.574539 
L 324.396157 263.733763 
L 326.035826 264.63136 
L 327.675496 263.45676 
L 329.315165 264.301087 
L 330.954835 263.333055 
L 332.594504 264.063148 
L 334.234174 264.029707 
L 335.873843 264.481317 
L 337.513512 264.271493 
L 339.153182 263.924647 
L 340.792851 260.982671 
L 342.432521 264.037105 
L 344.07219 263.693811 
L 345.71186 264.178862 
L 347.351529 264.063148 
L 348.991198 264.354061 
L 353.910207 263.82225 
L 355.549876 263.692331 
L 357.189545 264.17827 
L 358.829215 263.229179 
L 360.468884 264.095406 
L 362.108554 264.530147 
L 363.748223 264.363235 
L 365.387893 263.36413 
L 367.027562 264.086232 
L 368.667231 264.416505 
L 370.306901 263.798279 
L 373.58624 264.090671 
L 375.225909 264.51535 
L 376.865579 264.081793 
L 378.505248 264.512095 
L 380.144917 263.821362 
L 381.784587 264.239235 
L 383.424256 264.44314 
L 386.703595 264.375073 
L 388.343264 263.793544 
L 389.982934 264.016685 
L 391.622603 264.385727 
L 391.622603 264.385727 
" style="fill:none;stroke:#2ca02c;stroke-linecap:square;stroke-width:0.5;"/>
   </g>
   <g id="line2d_22">
    <path clip-path="url(#pf691178c5a)" d="M 68.607727 262.292814 
L 70.247397 263.115537 
L 71.887066 262.842381 
L 73.526736 263.855692 
L 75.166405 264.116418 
L 76.806074 261.528095 
L 78.445744 264.033554 
L 80.085413 264.177679 
L 81.725083 263.191298 
L 83.364752 264.479541 
L 85.004421 264.189812 
L 86.644091 263.340454 
L 88.28376 263.253151 
L 89.92343 261.465651 
L 91.563099 257.953096 
L 93.202769 262.706839 
L 94.842438 263.779634 
L 96.482107 263.172062 
L 98.121777 264.293393 
L 99.761446 264.460897 
L 101.401116 264.142165 
L 104.680455 264.501737 
L 106.320124 263.61361 
L 107.959793 264.334233 
L 109.599463 262.907193 
L 111.239132 263.40201 
L 112.878802 264.65326 
L 114.518471 264.44314 
L 116.15814 264.565365 
L 117.79781 264.531331 
L 119.437479 264.099549 
L 121.077149 264.106948 
L 122.716818 263.568627 
L 124.356488 264.518014 
L 125.996157 263.468302 
L 127.635826 263.77194 
L 129.275496 263.36265 
L 130.915165 263.526011 
L 132.554835 264.331865 
L 134.194504 264.21112 
L 135.834174 263.966967 
L 137.473843 264.064924 
L 139.113512 264.53577 
L 140.753182 264.246929 
L 142.392851 263.631959 
L 144.032521 262.764548 
L 145.67219 264.594959 
L 147.31186 262.792662 
L 148.951529 264.559742 
L 152.230868 264.308486 
L 153.870537 264.33956 
L 155.510207 263.931453 
L 158.789545 264.127664 
L 160.429215 263.25759 
L 162.068884 262.640251 
L 163.708554 262.618056 
L 165.348223 263.920208 
L 166.987893 264.514166 
L 168.627562 263.535777 
L 170.267231 263.966967 
L 171.906901 263.915768 
L 173.54657 264.165249 
L 175.18624 264.126184 
L 176.825909 264.50736 
L 178.465579 264.591704 
L 180.105248 264.475102 
L 181.744917 264.141869 
L 183.384587 263.667768 
L 185.024256 264.483092 
L 186.663926 264.443732 
L 188.303595 263.93027 
L 189.943264 263.791472 
L 193.222603 264.415617 
L 194.862273 264.310261 
L 196.501942 264.465336 
L 198.141612 263.99301 
L 199.781281 264.393717 
L 201.42095 263.731396 
L 204.700289 264.501737 
L 206.339959 264.472438 
L 207.979628 263.505295 
L 209.619298 264.291025 
L 212.898636 264.070251 
L 214.538306 264.333937 
L 216.177975 263.765429 
L 217.817645 263.896828 
L 219.457314 264.547312 
L 221.096983 264.084752 
L 222.736653 264.217631 
L 224.376322 263.362354 
L 226.015992 264.475102 
L 227.655661 263.636694 
L 229.295331 263.84415 
L 230.935 263.538736 
L 232.574669 263.690555 
L 234.214339 264.24249 
L 235.854008 264.635207 
L 237.493678 263.132406 
L 239.133347 263.985611 
L 240.773017 264.573947 
L 244.052355 264.152523 
L 245.692025 262.516547 
L 247.331694 259.905141 
L 248.971364 264.502625 
L 250.611033 264.449355 
L 252.250702 263.304349 
L 253.890372 264.596439 
L 255.530041 264.300199 
L 257.169711 264.57957 
L 258.80938 264.689957 
L 260.44905 264.481613 
L 262.088719 263.964303 
L 263.728388 262.885293 
L 265.368058 264.080017 
L 267.007727 264.028819 
L 268.647397 261.753308 
L 270.287066 262.61628 
L 271.926736 263.063747 
L 273.566405 264.201354 
L 275.206074 264.38839 
L 276.845744 264.158738 
L 278.485413 262.748271 
L 280.125083 263.744417 
L 281.764752 263.165255 
L 285.044091 262.740576 
L 286.68376 261.560945 
L 288.32343 264.01195 
L 289.963099 263.608875 
L 291.602769 262.38426 
L 293.242438 264.098662 
L 294.882107 264.511207 
L 296.521777 264.513279 
L 298.161446 263.945067 
L 299.801116 264.540209 
L 301.440785 264.043616 
L 303.080455 264.536066 
L 304.720124 264.167025 
L 306.359793 263.948914 
L 307.999463 263.334535 
L 309.639132 263.844446 
L 311.278802 263.591414 
L 312.918471 264.647045 
L 314.55814 263.406745 
L 316.19781 262.853627 
L 317.837479 264.663914 
L 319.477149 262.558275 
L 319.477149 262.558275 
" style="fill:none;stroke:#d62728;stroke-linecap:square;stroke-width:0.5;"/>
   </g>
   <g id="line2d_23">
    <path clip-path="url(#pf691178c5a)" d="M 68.607727 264.540209 
L 70.247397 260.830852 
L 71.887066 264.688773 
L 73.526736 262.064641 
L 75.166405 264.716 
L 76.806074 264.585785 
L 78.445744 264.092151 
L 80.085413 264.478357 
L 81.725083 262.756853 
L 83.364752 262.33099 
L 85.004421 264.603837 
L 86.644091 262.205806 
L 88.28376 264.526892 
L 89.92343 264.453794 
L 91.563099 263.571586 
L 93.202769 264.615083 
L 94.842438 264.100437 
L 96.482107 261.772545 
L 98.121777 262.585502 
L 99.761446 263.016692 
L 101.401116 263.259957 
L 103.040785 264.477765 
L 106.320124 264.566253 
L 107.959793 264.407331 
L 109.599463 264.408219 
L 111.239132 263.796207 
L 112.878802 262.917255 
L 114.518471 264.248113 
L 116.15814 264.556782 
L 117.79781 263.909258 
L 119.437479 264.554711 
L 121.077149 264.09511 
L 122.716818 264.140686 
L 124.356488 263.344893 
L 125.996157 264.580162 
L 127.635826 264.517126 
L 129.275496 262.678132 
L 130.915165 263.703281 
L 132.554835 264.501737 
L 134.194504 264.440476 
L 135.834174 264.656515 
L 137.473843 264.631656 
L 139.113512 262.890324 
L 140.753182 262.470676 
L 142.392851 264.153707 
L 144.032521 264.6722 
L 145.67219 263.262917 
L 147.31186 261.255827 
L 148.951529 264.569212 
L 150.591198 264.314405 
L 152.230868 264.639942 
L 153.870537 263.588455 
L 155.510207 264.346662 
L 157.149876 264.440476 
L 158.789545 259.54261 
L 160.429215 264.546424 
L 163.708554 264.417689 
L 165.348223 263.463567 
L 166.987893 262.1114 
L 168.627562 264.472734 
L 170.267231 264.312037 
L 171.906901 263.329504 
L 173.54657 264.007511 
L 175.18624 263.042439 
L 176.825909 264.258767 
L 178.465579 263.237466 
L 180.105248 264.097774 
L 181.744917 264.023492 
L 183.384587 263.421839 
L 185.024256 264.330385 
L 186.663926 264.497594 
L 188.303595 263.451137 
L 189.943264 264.695876 
L 191.582934 263.012253 
L 193.222603 263.25611 
L 194.862273 264.075874 
L 196.501942 264.448171 
L 198.141612 261.95603 
L 199.781281 258.339599 
L 201.42095 263.199881 
L 203.06062 263.515949 
L 204.700289 261.854225 
L 206.339959 263.267652 
L 207.979628 262.842973 
L 209.619298 262.551172 
L 211.258967 264.456457 
L 212.898636 262.966677 
L 214.538306 263.511509 
L 216.177975 262.049252 
L 217.817645 264.524229 
L 219.457314 263.435452 
L 221.096983 263.076472 
L 222.736653 264.360868 
L 224.376322 263.540216 
L 226.015992 262.343124 
L 227.655661 261.799772 
L 229.295331 263.43782 
L 230.935 264.392534 
L 232.574669 263.860427 
L 234.214339 263.545247 
L 235.854008 262.508852 
L 237.493678 262.15372 
L 239.133347 264.267941 
L 240.773017 262.704767 
L 242.412686 264.406147 
L 244.052355 262.503821 
L 245.692025 262.002493 
L 247.331694 262.9504 
L 248.971364 264.100733 
L 250.611033 262.263811 
L 252.250702 262.666886 
L 253.890372 262.840309 
L 255.530041 262.84978 
L 257.169711 264.420648 
L 258.80938 263.143947 
L 260.44905 264.196619 
L 262.088719 261.067903 
L 263.728388 264.275636 
L 265.368058 261.626349 
L 267.007727 262.803316 
L 268.647397 263.275642 
L 270.287066 263.491089 
L 271.926736 262.774906 
L 273.566405 259.340776 
L 275.206074 262.809235 
L 276.845744 262.789407 
L 278.485413 262.198408 
L 280.125083 264.668945 
L 281.764752 264.189516 
L 283.404421 261.447007 
L 285.044091 262.151353 
L 286.68376 262.702104 
L 288.32343 261.442864 
L 289.963099 262.208174 
L 291.602769 259.633464 
L 293.242438 261.676955 
L 294.882107 263.467414 
L 296.521777 260.024998 
L 299.801116 264.423904 
L 301.440785 262.714533 
L 303.080455 264.193068 
L 304.720124 262.410303 
L 306.359793 263.499376 
L 307.999463 260.042754 
L 309.639132 264.048055 
L 311.278802 261.870502 
L 312.918471 260.95722 
L 314.55814 264.27682 
L 316.19781 263.987979 
L 317.837479 263.264988 
L 319.477149 263.318554 
L 321.116818 261.2724 
L 322.756488 262.749159 
L 324.396157 263.481027 
L 326.035826 262.473931 
L 327.675496 262.897426 
L 329.315165 264.169392 
L 330.954835 263.410889 
L 332.594504 263.964599 
L 334.234174 261.763371 
L 335.873843 252.684412 
L 337.513512 264.638167 
L 339.153182 264.511207 
L 340.792851 261.771953 
L 342.432521 264.186261 
L 344.07219 263.295175 
L 345.71186 264.191884 
L 347.351529 264.116122 
L 348.991198 264.580458 
L 350.630868 262.924949 
L 352.270537 264.62041 
L 353.910207 264.631656 
L 355.549876 264.129144 
L 357.189545 264.272676 
L 358.829215 264.575131 
L 360.468884 263.892981 
L 363.748223 263.842078 
L 365.387893 263.991826 
L 367.027562 263.977621 
L 370.306901 264.441364 
L 371.94657 261.481336 
L 373.58624 263.817515 
L 375.225909 264.613604 
L 376.865579 264.614195 
L 378.505248 264.128552 
L 380.144917 264.415321 
L 381.784587 259.697388 
L 383.424256 264.243378 
L 385.063926 262.497607 
L 386.703595 264.27534 
L 389.982934 264.467999 
L 391.622603 264.294576 
L 391.622603 264.294576 
" style="fill:none;stroke:#9467bd;stroke-linecap:square;stroke-width:0.5;"/>
   </g>
   <g id="line2d_24">
    <path clip-path="url(#pf691178c5a)" d="M 68.607727 224.972252 
L 70.247397 220.473909 
L 71.887066 253.622849 
L 73.526736 223.295731 
L 75.166405 253.39083 
L 76.806074 254.308847 
L 78.445744 261.808354 
L 80.085413 219.470364 
L 81.725083 253.969991 
L 83.364752 254.288131 
L 85.004421 253.213559 
L 86.644091 254.057295 
L 88.28376 223.984096 
L 89.92343 253.860196 
L 91.563099 213.964037 
L 93.202769 222.86099 
L 94.842438 254.545602 
L 96.482107 261.829662 
L 98.121777 225.765085 
L 99.761446 253.74685 
L 101.401116 253.890086 
L 103.040785 222.755042 
L 104.680455 217.365317 
L 106.320124 254.99514 
L 107.959793 213.37866 
L 109.599463 223.164036 
L 111.239132 220.756535 
L 112.878802 254.46984 
L 114.518471 226.399292 
L 116.15814 218.253739 
L 117.79781 221.718056 
L 119.437479 220.207855 
L 121.077149 223.896792 
L 122.716818 218.010474 
L 124.356488 251.601258 
L 125.996157 254.292274 
L 127.635826 221.972567 
L 129.275496 256.418333 
L 130.915165 213.470107 
L 132.554835 261.952183 
L 134.194504 254.351167 
L 135.834174 224.749702 
L 137.473843 215.639374 
L 139.113512 216.628713 
L 140.753182 215.235706 
L 142.392851 212.14132 
L 144.032521 216.766327 
L 145.67219 215.910754 
L 147.31186 223.558825 
L 148.951529 217.760401 
L 150.591198 252.010253 
L 152.230868 252.1162 
L 153.870537 210.877345 
L 155.510207 253.155554 
L 157.149876 261.528983 
L 158.789545 209.626391 
L 160.429215 212.986239 
L 163.708554 213.428971 
L 165.348223 215.300518 
L 166.987893 213.377772 
L 168.627562 216.536379 
L 170.267231 213.075022 
L 171.906901 215.285129 
L 173.54657 252.59918 
L 175.18624 252.14106 
L 176.825909 214.621327 
L 178.465579 253.394973 
L 180.105248 253.059373 
L 181.744917 215.462991 
L 183.384587 251.35089 
L 185.024256 215.796816 
L 186.663926 206.426649 
L 188.303595 209.655985 
L 189.943264 253.324834 
L 191.582934 251.877966 
L 193.222603 218.725474 
L 194.862273 212.754515 
L 196.501942 251.943961 
L 198.141612 214.588774 
L 199.781281 254.056407 
L 201.42095 219.927005 
L 203.06062 222.459098 
L 204.700289 253.215039 
L 206.339959 218.570399 
L 207.979628 252.036 
L 209.619298 216.121466 
L 211.258967 223.088866 
L 212.898636 225.041502 
L 214.538306 229.259883 
L 216.177975 254.871731 
L 217.817645 255.584068 
L 219.457314 219.267938 
L 221.096983 254.357973 
L 222.736653 222.69171 
L 224.376322 226.552295 
L 226.015992 255.42633 
L 227.655661 220.70504 
L 229.295331 220.541384 
L 230.935 221.231228 
L 232.574669 217.254338 
L 234.214339 254.720504 
L 235.854008 226.691092 
L 237.493678 215.61629 
L 239.133347 221.308765 
L 240.773017 217.16881 
L 242.412686 222.664187 
L 244.052355 222.767768 
L 245.692025 253.526372 
L 247.331694 253.664281 
L 248.971364 262.084173 
L 250.611033 219.800637 
L 252.250702 227.656164 
L 253.890372 254.5968 
L 255.530041 216.222974 
L 257.169711 220.554109 
L 258.80938 223.581021 
L 260.44905 252.780594 
L 262.088719 217.572181 
L 263.728388 214.895963 
L 265.368058 221.056917 
L 267.007727 216.106077 
L 268.647397 253.515718 
L 270.287066 215.503535 
L 271.926736 214.929405 
L 273.566405 253.374257 
L 275.206074 223.345745 
L 276.845744 223.142728 
L 278.485413 221.767182 
L 280.125083 218.827574 
L 281.764752 219.8252 
L 283.404421 252.979468 
L 285.044091 219.564178 
L 286.68376 223.620381 
L 288.32343 218.785846 
L 289.963099 253.69358 
L 291.602769 253.036585 
L 293.242438 254.214441 
L 294.882107 253.999586 
L 296.521777 225.990002 
L 298.161446 227.752642 
L 299.801116 220.639341 
L 301.440785 226.419416 
L 303.080455 219.777257 
L 304.720124 222.517103 
L 306.359793 225.039431 
L 307.999463 226.288905 
L 309.639132 229.430346 
L 311.278802 226.156914 
L 312.918471 256.497054 
L 314.55814 255.92973 
L 316.19781 228.777495 
L 317.837479 255.223017 
L 319.477149 224.235056 
L 321.116818 255.109078 
L 322.756488 228.738726 
L 324.396157 227.359333 
L 326.035826 226.548447 
L 327.675496 229.937002 
L 329.315165 255.337547 
L 330.954835 227.964537 
L 332.594504 227.174664 
L 334.234174 229.317592 
L 335.873843 254.886233 
L 337.513512 222.906565 
L 339.153182 221.964281 
L 340.792851 227.400469 
L 342.432521 221.289825 
L 344.07219 223.922835 
L 345.71186 218.787918 
L 347.351529 219.932924 
L 348.991198 224.536031 
L 350.630868 225.420606 
L 352.270537 224.913951 
L 353.910207 218.888243 
L 355.549876 255.136009 
L 355.549876 255.136009 
" style="fill:none;stroke:#8c564b;stroke-linecap:square;stroke-width:0.5;"/>
   </g>
   <g id="line2d_25">
    <path clip-path="url(#pf691178c5a)" d="M 68.607727 262.465645 
L 70.247397 260.561839 
L 71.887066 259.548233 
L 73.526736 264.106356 
L 75.166405 262.190713 
L 76.806074 259.030923 
L 78.445744 263.876112 
L 80.085413 247.752216 
L 81.725083 260.501763 
L 83.364752 259.846248 
L 85.004421 263.807749 
L 86.644091 263.342822 
L 88.28376 259.81547 
L 89.92343 260.813983 
L 91.563099 249.090177 
L 93.202769 249.410684 
L 94.842438 261.242806 
L 96.482107 250.966459 
L 98.121777 261.189832 
L 99.761446 261.096314 
L 103.040785 240.697512 
L 104.680455 263.185676 
L 106.320124 263.285113 
L 107.959793 264.114347 
L 111.239132 261.027951 
L 112.878802 263.993898 
L 114.518471 260.327748 
L 116.15814 263.052205 
L 117.79781 262.550581 
L 119.437479 264.122041 
L 121.077149 260.735558 
L 122.716818 256.563641 
L 124.356488 259.22447 
L 125.996157 255.157317 
L 127.635826 262.798285 
L 129.275496 262.52217 
L 130.915165 257.442002 
L 132.554835 257.713974 
L 134.194504 254.271262 
L 135.834174 255.645328 
L 137.473843 254.963474 
L 139.113512 258.365642 
L 140.753182 263.380702 
L 142.392851 260.097208 
L 144.032521 263.677534 
L 145.67219 263.495233 
L 147.31186 259.994515 
L 148.951529 264.260839 
L 150.591198 257.258517 
L 152.230868 258.676974 
L 153.870537 263.763653 
L 155.510207 263.216158 
L 157.149876 264.555895 
L 158.789545 259.275077 
L 160.429215 264.517126 
L 162.068884 263.241313 
L 163.708554 250.431985 
L 165.348223 262.758629 
L 166.987893 253.409474 
L 168.627562 246.896051 
L 170.267231 264.250185 
L 171.906901 263.977917 
L 173.54657 263.921983 
L 175.18624 252.798054 
L 176.825909 255.643256 
L 178.465579 263.144835 
L 180.105248 264.618635 
L 181.744917 263.869009 
L 183.384587 264.429527 
L 185.024256 264.253736 
L 186.663926 263.090382 
L 189.943264 250.641809 
L 191.582934 260.300521 
L 193.222603 255.455628 
L 194.862273 261.995686 
L 196.501942 261.377756 
L 198.141612 261.850674 
L 199.781281 262.609473 
L 201.42095 263.098076 
L 203.06062 264.088008 
L 204.700289 256.277464 
L 206.339959 262.241911 
L 207.979628 264.364123 
L 209.619298 262.234809 
L 211.258967 262.165854 
L 212.898636 263.625744 
L 214.538306 263.577801 
L 216.177975 263.367089 
L 217.817645 263.589935 
L 219.457314 264.652964 
L 221.096983 255.004906 
L 222.736653 263.415624 
L 224.376322 264.143941 
L 226.015992 260.523071 
L 227.655661 264.63284 
L 229.295331 262.178579 
L 230.935 262.261148 
L 232.574669 263.219117 
L 234.214339 263.470965 
L 235.854008 244.659901 
L 237.493678 264.705346 
L 239.133347 249.080411 
L 240.773017 263.795023 
L 242.412686 261.208476 
L 244.052355 262.943594 
L 245.692025 259.492003 
L 247.331694 260.023518 
L 248.971364 264.062852 
L 250.611033 260.963139 
L 252.250702 259.847727 
L 253.890372 264.338376 
L 255.530041 238.575892 
L 257.169711 261.475121 
L 258.80938 254.741516 
L 260.44905 262.43605 
L 262.088719 262.64913 
L 263.728388 261.628124 
L 265.368058 261.821967 
L 267.007727 250.260338 
L 268.647397 228.953581 
L 270.287066 264.454978 
L 271.926736 264.552639 
L 273.566405 262.863689 
L 275.206074 264.44314 
L 276.845744 264.086824 
L 278.485413 262.834982 
L 280.125083 264.54968 
L 281.764752 250.230152 
L 283.404421 264.061373 
L 285.044091 264.420352 
L 286.68376 263.490497 
L 288.32343 257.805421 
L 289.963099 261.503828 
L 291.602769 264.63432 
L 293.242438 264.490787 
L 294.882107 263.28896 
L 296.521777 264.547016 
L 298.161446 264.568916 
L 299.801116 262.821961 
L 301.440785 264.66125 
L 303.080455 263.062267 
L 304.720124 264.529851 
L 306.359793 264.51535 
L 307.999463 262.731402 
L 309.639132 264.57809 
L 311.278802 245.57703 
L 312.918471 262.569521 
L 314.55814 264.180934 
L 316.19781 264.536066 
L 317.837479 264.692029 
L 319.477149 263.373008 
L 321.116818 262.767211 
L 322.756488 258.526931 
L 324.396157 264.018461 
L 326.035826 261.983849 
L 327.675496 263.535185 
L 329.315165 264.529556 
L 330.954835 264.460601 
L 332.594504 261.380715 
L 334.234174 264.580162 
L 335.873843 264.475398 
L 337.513512 259.081233 
L 339.153182 78.580485 
L 340.792851 263.973773 
L 342.432521 241.546278 
L 344.07219 251.419845 
L 345.71186 245.693336 
L 347.351529 260.889153 
L 348.991198 198.495952 
L 350.630868 263.554717 
L 352.270537 263.291327 
L 353.910207 264.572171 
L 355.549876 261.513002 
L 357.189545 245.763771 
L 358.829215 264.523933 
L 360.468884 262.906009 
L 362.108554 264.460305 
L 363.748223 264.636687 
L 365.387893 261.212915 
L 367.027562 264.577794 
L 368.667231 264.501737 
L 370.306901 264.00396 
L 371.94657 263.913697 
L 373.58624 253.692692 
L 375.225909 260.246364 
L 378.505248 264.236867 
L 380.144917 264.197803 
L 381.784587 259.722247 
L 383.424256 264.528372 
L 385.063926 264.094222 
L 386.703595 263.793248 
L 388.343264 262.193968 
L 388.343264 262.193968 
" style="fill:none;stroke:#e377c2;stroke-linecap:square;stroke-width:0.5;"/>
   </g>
   <g id="line2d_26">
    <path clip-path="url(#pf691178c5a)" d="M 68.607727 264.52926 
L 70.247397 264.476286 
L 71.887066 262.737321 
L 73.526736 264.148972 
L 75.166405 263.292807 
L 76.806074 263.232435 
L 78.445744 263.410297 
L 80.085413 264.177383 
L 81.725083 263.94921 
L 85.004421 263.849773 
L 86.644091 262.91903 
L 88.28376 264.016389 
L 89.92343 264.044208 
L 91.563099 263.688188 
L 93.202769 263.576617 
L 94.842438 264.160514 
L 96.482107 263.271203 
L 98.121777 264.073506 
L 101.401116 264.106948 
L 103.040785 263.295471 
L 104.680455 264.253736 
L 106.320124 263.792656 
L 107.959793 263.634326 
L 109.599463 264.520381 
L 112.878802 263.38159 
L 114.518471 263.586383 
L 116.15814 264.549976 
L 117.79781 262.329215 
L 119.437479 264.303159 
L 122.716818 263.97111 
L 124.356488 263.685524 
L 125.996157 262.860138 
L 127.635826 263.29044 
L 129.275496 263.998041 
L 130.915165 264.208161 
L 132.554835 264.544945 
L 134.194504 263.910441 
L 135.834174 263.99952 
L 137.473843 263.161112 
L 140.753182 264.318844 
L 142.392851 263.754479 
L 144.032521 264.444028 
L 145.67219 263.972294 
L 147.31186 264.204313 
L 148.951529 264.069067 
L 150.591198 264.183597 
L 153.870537 263.856284 
L 155.510207 264.323283 
L 157.149876 263.798279 
L 158.789545 263.880551 
L 160.429215 263.840599 
L 162.068884 264.224438 
L 163.708554 264.355541 
L 165.348223 264.237459 
L 166.987893 263.824026 
L 168.627562 263.232435 
L 171.906901 264.07321 
L 173.54657 264.378032 
L 175.18624 263.944475 
L 176.825909 263.919912 
L 178.465579 263.709496 
L 180.105248 264.44314 
L 181.744917 264.022012 
L 183.384587 264.350214 
L 185.024256 264.196323 
L 186.663926 263.660073 
L 189.943264 264.25344 
L 191.582934 263.983835 
L 193.222603 264.412066 
L 194.862273 263.919024 
L 196.501942 264.180342 
L 198.141612 263.461495 
L 199.781281 264.217335 
L 201.42095 264.41029 
L 203.06062 264.01195 
L 204.700289 262.826992 
L 206.339959 264.186261 
L 207.979628 263.511214 
L 209.619298 264.121153 
L 214.538306 264.322395 
L 216.177975 263.076176 
L 217.817645 263.972886 
L 219.457314 264.271493 
L 221.096983 264.366491 
L 226.015992 263.917248 
L 227.655661 264.296648 
L 229.295331 264.290137 
L 230.935 263.051317 
L 232.574669 264.238643 
L 234.214339 264.309373 
L 235.854008 264.261431 
L 237.493678 264.456162 
L 239.133347 264.514462 
L 240.773017 263.47718 
L 242.412686 264.333345 
L 245.692025 264.441068 
L 247.331694 263.506774 
L 248.971364 264.257583 
L 250.611033 264.39934 
L 252.250702 263.853324 
L 253.890372 263.688484 
L 257.169711 263.758326 
L 258.80938 264.321507 
L 260.44905 264.069955 
L 262.088719 264.319731 
L 263.728388 264.135655 
L 265.368058 263.285409 
L 267.007727 264.405555 
L 270.287066 264.161994 
L 271.926736 264.477173 
L 273.566405 263.107546 
L 275.206074 264.030003 
L 276.845744 263.84267 
L 278.485413 263.839711 
L 280.125083 262.304059 
L 281.764752 264.126184 
L 283.404421 263.52098 
L 285.044091 263.983835 
L 288.32343 262.710094 
L 289.963099 263.707424 
L 291.602769 264.393421 
L 293.242438 263.170286 
L 294.882107 262.987985 
L 296.521777 264.08712 
L 299.801116 263.975549 
L 301.440785 263.535185 
L 303.080455 262.898906 
L 304.720124 264.371522 
L 306.359793 263.80331 
L 307.999463 264.245154 
L 309.639132 264.102213 
L 311.278802 264.192476 
L 312.918471 263.980876 
L 314.55814 264.195731 
L 316.19781 264.283626 
L 317.837479 264.063444 
L 319.477149 264.321803 
L 321.116818 263.675166 
L 322.756488 264.198099 
L 326.035826 263.937372 
L 327.675496 263.451729 
L 329.315165 263.639653 
L 330.954835 264.093335 
L 332.594504 264.212008 
L 334.234174 264.100437 
L 337.513512 263.528082 
L 339.153182 264.235092 
L 340.792851 263.60414 
L 342.432521 264.320619 
L 344.07219 264.488419 
L 345.71186 263.717782 
L 347.351529 264.595551 
L 348.991198 263.84563 
L 352.270537 264.098662 
L 353.910207 263.66392 
L 355.549876 264.366491 
L 357.189545 264.082089 
L 358.829215 264.127368 
L 360.468884 264.335121 
L 362.108554 263.575433 
L 363.748223 263.139508 
L 365.387893 263.933525 
L 368.667231 263.869897 
L 370.306901 263.821658 
L 371.94657 264.373889 
L 373.58624 264.346366 
L 375.225909 263.900675 
L 376.865579 264.290433 
L 378.505248 263.908962 
L 380.144917 264.014318 
L 381.784587 264.354653 
L 383.424256 263.465638 
L 385.063926 263.481027 
L 386.703595 263.310268 
L 388.343264 264.296648 
L 391.622603 264.32861 
L 393.262273 263.684636 
L 393.262273 263.684636 
" style="fill:none;stroke:#7f7f7f;stroke-linecap:square;stroke-width:0.5;"/>
   </g>
   <g id="line2d_27">
    <path clip-path="url(#pf691178c5a)" d="M 68.607727 264.336304 
L 70.247397 263.820771 
L 71.887066 262.360289 
L 73.526736 264.3366 
L 75.166405 263.204616 
L 76.806074 262.317969 
L 78.445744 257.945994 
L 80.085413 264.16081 
L 81.725083 264.500553 
L 83.364752 263.183308 
L 85.004421 264.502033 
L 86.644091 263.75951 
L 88.28376 264.232428 
L 89.92343 262.89861 
L 91.563099 264.59851 
L 93.202769 264.542577 
L 94.842438 262.998935 
L 96.482107 262.81397 
L 98.121777 264.167321 
L 99.761446 264.494634 
L 101.401116 264.108428 
L 103.040785 263.327728 
L 104.680455 262.716013 
L 106.320124 263.009589 
L 107.959793 262.207582 
L 109.599463 262.143658 
L 111.239132 263.755959 
L 112.878802 264.222958 
L 114.518471 261.3964 
L 117.79781 264.628105 
L 119.437479 262.376862 
L 121.077149 263.185084 
L 122.716818 264.365899 
L 124.356488 263.8332 
L 125.996157 263.518612 
L 127.635826 261.519809 
L 129.275496 263.718078 
L 130.915165 264.356429 
L 132.554835 263.136845 
L 134.194504 261.320935 
L 135.834174 262.052211 
L 137.473843 263.637581 
L 139.113512 263.632846 
L 140.753182 264.303455 
L 142.392851 263.246936 
L 144.032521 263.985019 
L 145.67219 264.42272 
L 147.31186 263.93974 
L 150.591198 263.646756 
L 152.230868 262.688194 
L 153.870537 263.769572 
L 155.510207 264.232428 
L 157.149876 263.719854 
L 158.789545 261.549107 
L 160.429215 264.204313 
L 162.068884 262.916959 
L 163.708554 263.372712 
L 165.348223 263.995377 
L 166.987893 261.592611 
L 168.627562 263.941516 
L 170.267231 262.771059 
L 171.906901 262.548213 
L 173.54657 263.431013 
L 175.18624 263.86309 
L 176.825909 263.142172 
L 178.465579 263.74856 
L 180.105248 263.682269 
L 181.744917 262.2573 
L 183.384587 262.937675 
L 185.024256 262.733474 
L 186.663926 263.789401 
L 188.303595 263.31885 
L 189.943264 264.446691 
L 191.582934 262.683459 
L 193.222603 263.424798 
L 194.862273 263.423318 
L 196.501942 262.682867 
L 198.141612 263.289256 
L 199.781281 263.399939 
L 201.42095 261.980889 
L 204.700289 262.270618 
L 206.339959 262.677836 
L 207.979628 263.641429 
L 209.619298 263.270315 
L 211.258967 264.428935 
L 212.898636 263.636398 
L 214.538306 263.805086 
L 216.177975 264.164657 
L 217.817645 263.877 
L 219.457314 263.90541 
L 221.096983 262.689378 
L 222.736653 264.547312 
L 224.376322 263.113169 
L 226.015992 262.103706 
L 229.295331 264.482205 
L 230.935 264.431006 
L 232.574669 264.715704 
L 234.214339 261.182137 
L 235.854008 262.581063 
L 237.493678 261.908975 
L 239.133347 262.194856 
L 240.773017 264.54968 
L 242.412686 259.341072 
L 244.052355 264.217335 
L 245.692025 264.501441 
L 247.331694 263.074993 
L 248.971364 263.198105 
L 250.611033 264.312925 
L 253.890372 264.391646 
L 255.530041 263.535777 
L 257.169711 260.163203 
L 258.80938 259.614228 
L 260.44905 264.533107 
L 262.088719 261.323302 
L 263.728388 263.915473 
L 265.368058 260.723721 
L 267.007727 263.887062 
L 268.647397 264.095406 
L 270.287066 264.509727 
L 271.926736 263.828761 
L 273.566405 264.191884 
L 275.206074 262.599115 
L 276.845744 263.962528 
L 278.485413 264.204018 
L 280.125083 261.207292 
L 281.764752 262.266771 
L 283.404421 264.151931 
L 285.044091 263.058124 
L 286.68376 263.341934 
L 288.32343 262.364136 
L 289.963099 262.903937 
L 291.602769 261.272104 
L 293.242438 264.379216 
L 294.882107 262.531344 
L 296.521777 262.444337 
L 298.161446 264.053974 
L 299.801116 263.224444 
L 301.440785 264.151931 
L 303.080455 262.832319 
L 304.720124 262.546437 
L 306.359793 263.114945 
L 307.999463 263.206983 
L 309.639132 263.795319 
L 311.278802 263.774307 
L 312.918471 264.614491 
L 314.55814 264.624849 
L 317.837479 262.95188 
L 319.477149 263.366497 
L 321.116818 261.799476 
L 322.756488 263.69973 
L 324.396157 262.968453 
L 326.035826 263.704465 
L 327.675496 263.979988 
L 329.315165 264.542281 
L 330.954835 262.972892 
L 332.594504 261.882932 
L 334.234174 262.754782 
L 335.873843 263.916064 
L 337.513512 263.642908 
L 339.153182 264.1469 
L 340.792851 263.633142 
L 342.432521 261.987696 
L 344.07219 264.396677 
L 345.71186 262.706543 
L 347.351529 264.350806 
L 348.991198 264.602358 
L 350.630868 264.460009 
L 352.270537 263.421839 
L 353.910207 263.057236 
L 355.549876 262.903345 
L 357.189545 262.331582 
L 358.829215 264.462376 
L 360.468884 260.59824 
L 362.108554 264.594959 
L 363.748223 264.553823 
L 365.387893 264.305526 
L 367.027562 263.48517 
L 368.667231 263.572178 
L 370.306901 264.497298 
L 371.94657 263.974365 
L 373.58624 263.81278 
L 375.225909 263.373896 
L 375.225909 263.373896 
" style="fill:none;stroke:#bcbd22;stroke-linecap:square;stroke-width:0.5;"/>
   </g>
   <g id="line2d_28">
    <path clip-path="url(#pf691178c5a)" d="M 68.607727 249.540307 
L 70.247397 263.232435 
L 75.166405 263.065522 
L 76.806074 264.133287 
L 78.445744 262.034455 
L 80.085413 260.532541 
L 81.725083 264.552047 
L 83.364752 264.539026 
L 85.004421 264.254032 
L 86.644091 264.696468 
L 88.28376 263.533409 
L 89.92343 264.519789 
L 91.563099 264.496114 
L 93.202769 263.749744 
L 94.842438 22.796 
L 96.482107 264.649413 
L 98.121777 264.366195 
L 99.761446 263.206983 
L 101.401116 264.569212 
L 103.040785 263.272091 
L 104.680455 261.420372 
L 106.320124 261.246653 
L 107.959793 264.270309 
L 109.599463 263.616569 
L 111.239132 259.424824 
L 112.878802 262.227114 
L 114.518471 264.082681 
L 116.15814 262.053987 
L 117.79781 248.833002 
L 119.437479 264.352877 
L 121.077149 261.215875 
L 124.356488 264.32565 
L 125.996157 260.369772 
L 127.635826 262.325367 
L 129.275496 248.168904 
L 130.915165 264.669537 
L 132.554835 263.216454 
L 134.194504 258.146644 
L 135.834174 264.715408 
L 137.473843 243.712585 
L 139.113512 257.702432 
L 140.753182 177.143027 
L 142.392851 257.442002 
L 144.032521 183.254263 
L 145.67219 264.451426 
L 147.31186 264.716 
L 148.951529 264.713337 
L 150.591198 258.582273 
L 152.230868 261.165268 
L 153.870537 251.689154 
L 155.510207 262.52365 
L 157.149876 264.385135 
L 158.789545 259.750362 
L 160.429215 245.618758 
L 162.068884 253.419536 
L 163.708554 260.042754 
L 165.348223 261.949223 
L 166.987893 240.248861 
L 168.627562 262.662151 
L 170.267231 256.588796 
L 171.906901 224.393386 
L 173.54657 247.078352 
L 175.18624 264.10606 
L 176.825909 252.177165 
L 178.465579 261.960173 
L 180.105248 263.746785 
L 181.744917 261.629604 
L 183.384587 263.792064 
L 185.024256 262.646762 
L 186.663926 230.746703 
L 188.303595 263.573362 
L 189.943264 215.85926 
L 191.582934 215.276251 
L 193.222603 236.799934 
L 194.862273 256.720787 
L 196.501942 260.343433 
L 198.141612 236.530626 
L 199.781281 260.171786 
L 201.42095 264.464744 
L 203.06062 264.514166 
L 204.700289 264.676935 
L 206.339959 262.430131 
L 207.979628 262.572776 
L 209.619298 262.869904 
L 211.258967 254.301448 
L 212.898636 221.498465 
L 214.538306 264.15933 
L 216.177975 262.656824 
L 217.817645 259.27626 
L 219.457314 263.024386 
L 221.096983 264.616267 
L 222.736653 243.346207 
L 224.376322 264.377145 
L 226.015992 263.918728 
L 227.655661 264.251664 
L 229.295331 259.163802 
L 230.935 263.687892 
L 232.574669 260.995397 
L 234.214339 253.103764 
L 235.854008 263.795023 
L 237.493678 254.560103 
L 239.133347 261.337804 
L 240.773017 264.629289 
L 242.412686 263.297246 
L 244.052355 229.299243 
L 245.692025 263.98206 
L 247.331694 263.587567 
L 248.971364 264.343703 
L 250.611033 262.744424 
L 252.250702 262.140403 
L 253.890372 262.169701 
L 255.530041 262.695297 
L 257.169711 255.444382 
L 258.80938 253.205569 
L 260.44905 264.156371 
L 262.088719 263.804198 
L 263.728388 243.169233 
L 265.368058 263.41296 
L 267.007727 263.638469 
L 268.647397 241.736866 
L 270.287066 260.77847 
L 271.926736 258.780851 
L 273.566405 260.849497 
L 275.206074 263.441075 
L 278.485413 254.953412 
L 280.125083 261.930283 
L 281.764752 262.979699 
L 283.404421 259.47543 
L 285.044091 262.283935 
L 286.68376 259.102245 
L 288.32343 264.074098 
L 289.963099 259.566285 
L 291.602769 260.72668 
L 293.242438 261.115846 
L 294.882107 257.053428 
L 296.521777 261.390482 
L 298.161446 256.515994 
L 299.801116 262.274465 
L 301.440785 245.552171 
L 303.080455 263.860427 
L 304.720124 264.428047 
L 306.359793 264.276524 
L 307.999463 263.641725 
L 309.639132 264.238939 
L 311.278802 264.394309 
L 312.918471 264.697651 
L 314.55814 260.413868 
L 316.19781 263.644388 
L 317.837479 255.931801 
L 319.477149 261.132715 
L 321.116818 179.578939 
L 322.756488 257.370975 
L 324.396157 263.813964 
L 326.035826 262.065529 
L 327.675496 264.039177 
L 329.315165 264.705346 
L 330.954835 264.147196 
L 332.594504 255.932689 
L 334.234174 264.198691 
L 335.873843 260.735558 
L 337.513512 263.416216 
L 339.153182 264.707714 
L 340.792851 262.510332 
L 342.432521 239.433537 
L 344.07219 264.715704 
L 345.71186 242.312476 
L 347.351529 257.370383 
L 348.991198 254.793306 
L 350.630868 264.482205 
L 352.270537 258.224773 
L 353.910207 263.995081 
L 355.549876 262.51122 
L 357.189545 228.206323 
L 358.829215 262.077959 
L 360.468884 261.634043 
L 362.108554 263.386621 
L 363.748223 259.179191 
L 365.387893 263.689372 
L 367.027562 263.984723 
L 368.667231 257.628446 
L 370.306901 264.0886 
L 371.94657 254.281324 
L 373.58624 262.295477 
L 375.225909 263.140692 
L 376.865579 261.922884 
L 378.505248 259.775221 
L 380.144917 256.364175 
L 381.784587 247.503031 
L 383.424256 261.83706 
L 385.063926 261.078853 
L 386.703595 261.507379 
L 388.343264 263.72015 
L 389.982934 263.482803 
L 391.622603 260.692646 
L 393.262273 264.196323 
L 393.262273 264.196323 
" style="fill:none;stroke:#17becf;stroke-linecap:square;stroke-width:0.5;"/>
   </g>
   <g id="line2d_29">
    <path clip-path="url(#pf691178c5a)" d="M 68.607727 241.127814 
L 70.247397 258.465079 
L 71.887066 232.084665 
L 73.526736 256.153759 
L 75.166405 256.020585 
L 76.806074 257.487873 
L 78.445744 256.843308 
L 80.085413 243.79101 
L 81.725083 240.443592 
L 83.364752 230.884317 
L 85.004421 257.45236 
L 86.644091 254.862261 
L 88.28376 255.822598 
L 89.92343 256.000164 
L 91.563099 233.281757 
L 93.202769 263.249895 
L 94.842438 263.189227 
L 96.482107 233.202148 
L 98.121777 232.790786 
L 99.761446 238.691606 
L 101.401116 236.768268 
L 103.040785 244.730631 
L 104.680455 263.253151 
L 106.320124 238.428512 
L 107.959793 258.668392 
L 109.599463 137.460539 
L 111.239132 232.821268 
L 112.878802 238.02159 
L 114.518471 238.725343 
L 116.15814 240.057386 
L 117.79781 247.662841 
L 119.437479 243.127801 
L 121.077149 257.350259 
L 122.716818 263.394908 
L 124.356488 231.635718 
L 125.996157 246.115056 
L 129.275496 260.275662 
L 130.915165 259.317101 
L 132.554835 260.211738 
L 134.194504 259.308222 
L 135.834174 247.331384 
L 137.473843 240.242942 
L 139.113512 259.032107 
L 140.753182 258.232171 
L 142.392851 261.445823 
L 144.032521 257.991569 
L 145.67219 259.859861 
L 147.31186 261.155798 
L 148.951529 262.702991 
L 150.591198 251.239911 
L 152.230868 260.291051 
L 153.870537 263.544063 
L 155.510207 263.866938 
L 157.149876 259.591736 
L 158.789545 260.388416 
L 160.429215 259.313253 
L 162.068884 238.378498 
L 163.708554 245.545068 
L 165.348223 250.30029 
L 166.987893 247.410401 
L 168.627562 258.468038 
L 170.267231 260.453524 
L 171.906901 259.346991 
L 173.54657 258.616898 
L 175.18624 259.989484 
L 176.825909 257.843301 
L 178.465579 244.490917 
L 180.105248 245.950215 
L 181.744917 243.033099 
L 183.384587 261.532239 
L 185.024256 261.395809 
L 186.663926 243.380241 
L 188.303595 250.297331 
L 189.943264 260.898623 
L 191.582934 245.026279 
L 193.222603 260.29549 
L 194.862273 263.011957 
L 196.501942 263.530154 
L 198.141612 263.512101 
L 199.781281 263.820771 
L 201.42095 259.928816 
L 203.06062 260.494068 
L 204.700289 258.73054 
L 206.339959 260.183623 
L 207.979628 259.667498 
L 209.619298 259.355277 
L 211.258967 259.874066 
L 212.898636 242.431445 
L 214.538306 258.932966 
L 216.177975 258.603876 
L 217.817645 245.093754 
L 219.457314 263.638765 
L 221.096983 259.476318 
L 222.736653 260.16853 
L 224.376322 257.76606 
L 226.015992 248.549192 
L 227.655661 235.121046 
L 229.295331 263.502631 
L 230.935 248.59092 
L 232.574669 258.140725 
L 234.214339 259.302303 
L 235.854008 249.069461 
L 237.493678 258.320066 
L 239.133347 260.344025 
L 240.773017 244.541819 
L 242.412686 246.649234 
L 244.052355 263.596741 
L 245.692025 259.918458 
L 247.331694 245.435865 
L 248.971364 259.552968 
L 250.611033 257.426613 
L 252.250702 243.496842 
L 253.890372 260.289275 
L 255.530041 244.311279 
L 257.169711 241.636541 
L 258.80938 263.579576 
L 260.44905 263.11021 
L 262.088719 245.001716 
L 263.728388 244.00113 
L 265.368058 260.589362 
L 267.007727 263.523051 
L 268.647397 243.278732 
L 270.287066 238.911492 
L 271.926736 259.013758 
L 273.566405 243.861149 
L 275.206074 259.589073 
L 276.845744 242.897261 
L 278.485413 257.759549 
L 280.125083 259.458266 
L 281.764752 263.425982 
L 283.404421 257.295806 
L 285.044091 259.526037 
L 286.68376 247.380215 
L 288.32343 260.774327 
L 289.963099 260.330707 
L 291.602769 241.318993 
L 293.242438 258.582864 
L 294.882107 263.988275 
L 296.521777 259.419793 
L 298.161446 260.096024 
L 299.801116 263.503815 
L 301.440785 260.351423 
L 303.080455 252.381662 
L 304.720124 258.410329 
L 306.359793 243.081042 
L 307.999463 242.870034 
L 309.639132 260.497916 
L 311.278802 261.166748 
L 312.918471 244.931577 
L 314.55814 245.179874 
L 316.19781 260.327156 
L 317.837479 248.770262 
L 319.477149 259.174456 
L 321.116818 263.96815 
L 322.756488 260.929993 
L 324.396157 258.129775 
L 326.035826 263.705944 
L 327.675496 237.809694 
L 329.315165 263.420359 
L 330.954835 263.457648 
L 332.594504 259.328642 
L 334.234174 263.805086 
L 335.873843 260.61363 
L 337.513512 259.980014 
L 339.153182 261.86192 
L 340.792851 263.308788 
L 342.432521 260.183623 
L 344.07219 263.442259 
L 345.71186 259.901589 
L 347.351529 261.305546 
L 348.991198 248.185477 
L 350.630868 260.630498 
L 352.270537 259.774333 
L 355.549876 259.296089 
L 357.189545 260.600016 
L 358.829215 259.999842 
L 360.468884 245.540037 
L 362.108554 260.312359 
L 363.748223 251.520762 
L 365.387893 258.91225 
L 367.027562 263.755367 
L 368.667231 259.999842 
L 370.306901 259.57102 
L 371.94657 260.169418 
L 373.58624 263.499672 
L 375.225909 259.585521 
L 376.865579 246.610169 
L 378.505248 258.220629 
L 380.144917 261.149583 
L 381.784587 260.832036 
L 383.424256 241.83867 
L 385.063926 260.614517 
L 386.703595 260.091881 
L 388.343264 261.420076 
L 388.343264 261.420076 
" style="fill:none;stroke:#1f77b4;stroke-linecap:square;stroke-width:0.5;"/>
   </g>
   <g id="line2d_30">
    <path clip-path="url(#pf691178c5a)" d="M 68.607727 264.45261 
L 70.247397 263.948914 
L 71.887066 264.483388 
L 73.526736 264.499369 
L 75.166405 264.160514 
L 76.806074 264.650005 
L 78.445744 264.348734 
L 80.085413 263.519796 
L 81.725083 264.246929 
L 83.364752 262.980291 
L 85.004421 258.777595 
L 86.644091 263.627223 
L 88.28376 264.660954 
L 89.92343 264.400228 
L 91.563099 263.846814 
L 93.202769 264.514462 
L 94.842438 264.145421 
L 96.482107 263.60118 
L 98.121777 264.161994 
L 99.761446 264.0448 
L 101.401116 263.744417 
L 103.040785 264.05427 
L 104.680455 263.225332 
L 106.320124 263.473925 
L 107.959793 260.993917 
L 109.599463 262.867536 
L 111.239132 263.405562 
L 112.878802 264.603837 
L 114.518471 264.088008 
L 119.437479 263.47718 
L 121.077149 264.251664 
L 122.716818 263.705353 
L 124.356488 263.76247 
L 125.996157 263.12915 
L 127.635826 264.41976 
L 129.275496 264.588152 
L 130.915165 262.133892 
L 132.554835 262.833207 
L 134.194504 263.837935 
L 135.834174 264.543465 
L 137.473843 263.647644 
L 139.113512 264.548792 
L 140.753182 264.476286 
L 142.392851 263.468006 
L 144.032521 263.798279 
L 145.67219 263.386621 
L 147.31186 263.996265 
L 148.951529 263.497304 
L 150.591198 263.683453 
L 152.230868 264.391646 
L 153.870537 261.29282 
L 155.510207 264.339856 
L 157.149876 263.316779 
L 158.789545 264.155483 
L 160.429215 263.19337 
L 162.068884 259.053415 
L 163.708554 250.527871 
L 165.348223 262.974668 
L 166.987893 263.581352 
L 168.627562 262.726075 
L 170.267231 264.235684 
L 171.906901 261.312056 
L 173.54657 261.386338 
L 175.18624 264.012542 
L 176.825909 263.173246 
L 178.465579 263.45824 
L 180.105248 264.049239 
L 181.744917 263.680197 
L 183.384587 264.382767 
L 185.024256 263.922575 
L 186.663926 263.718374 
L 188.303595 264.200762 
L 189.943264 263.134477 
L 191.582934 259.690285 
L 193.222603 263.701209 
L 194.862273 264.059893 
L 196.501942 263.988275 
L 198.141612 262.760701 
L 199.781281 262.260852 
L 201.42095 262.534008 
L 203.06062 262.651201 
L 204.700289 264.284218 
L 206.339959 264.0448 
L 207.979628 264.249297 
L 209.619298 262.883517 
L 211.258967 263.985611 
L 212.898636 262.995976 
L 214.538306 263.524827 
L 216.177975 264.523341 
L 217.817645 264.05427 
L 219.457314 264.353765 
L 221.096983 264.441364 
L 222.736653 263.482803 
L 224.376322 263.937076 
L 226.015992 264.146013 
L 227.655661 263.607987 
L 229.295331 263.458536 
L 230.935 263.512101 
L 232.574669 264.043024 
L 234.214339 263.004854 
L 235.854008 264.043616 
L 237.493678 264.066404 
L 239.133347 263.83172 
L 240.773017 263.042439 
L 242.412686 261.113182 
L 244.052355 263.966671 
L 245.692025 264.418577 
L 248.971364 264.036513 
L 250.611033 263.83616 
L 252.250702 262.93294 
L 253.890372 261.763962 
L 255.530041 263.832016 
L 257.169711 263.367385 
L 258.80938 264.004847 
L 260.44905 263.796503 
L 262.088719 263.388989 
L 263.728388 261.793557 
L 265.368058 263.244272 
L 267.007727 264.35702 
L 268.647397 263.978508 
L 270.287066 264.354061 
L 271.926736 264.199578 
L 273.566405 263.112282 
L 275.206074 263.805086 
L 276.845744 263.443146 
L 278.485413 263.586383 
L 280.125083 263.355547 
L 281.764752 263.662737 
L 283.404421 263.712159 
L 285.044091 261.907495 
L 286.68376 263.645572 
L 288.32343 262.73229 
L 289.963099 264.335417 
L 293.242438 263.241017 
L 294.882107 264.235092 
L 296.521777 263.562116 
L 298.161446 264.531035 
L 299.801116 263.188043 
L 301.440785 264.176199 
L 303.080455 264.122041 
L 304.720124 263.616865 
L 306.359793 261.420964 
L 307.999463 263.209055 
L 309.639132 263.033265 
L 311.278802 264.462376 
L 312.918471 264.562405 
L 314.55814 262.88766 
L 316.19781 263.888246 
L 317.837479 264.353173 
L 319.477149 263.498488 
L 321.116818 263.750336 
L 322.756488 263.175613 
L 324.396157 263.578689 
L 326.035826 262.524833 
L 327.675496 263.393724 
L 329.315165 263.713047 
L 330.954835 263.353476 
L 332.594504 264.46652 
L 334.234174 264.573355 
L 335.873843 263.185971 
L 337.513512 264.078833 
L 339.153182 263.758918 
L 340.792851 264.344887 
L 342.432521 263.820179 
L 344.07219 262.779345 
L 345.71186 264.006031 
L 347.351529 264.079129 
L 348.991198 261.705957 
L 350.630868 263.088606 
L 352.270537 264.261135 
L 353.910207 264.003664 
L 355.549876 262.771059 
L 357.189545 264.362051 
L 358.829215 264.315292 
L 360.468884 264.114939 
L 362.108554 262.617464 
L 363.748223 262.919622 
L 365.387893 263.417399 
L 367.027562 263.47718 
L 368.667231 263.380702 
L 370.306901 263.474221 
L 371.94657 262.260556 
L 373.58624 263.817219 
L 375.225909 262.45943 
L 376.865579 256.617207 
L 378.505248 264.183006 
L 380.144917 261.999534 
L 381.784587 259.467144 
L 383.424256 263.222373 
L 383.424256 263.222373 
" style="fill:none;stroke:#ff7f0e;stroke-linecap:square;stroke-width:0.5;"/>
   </g>
   <g id="line2d_31">
    <path clip-path="url(#pf691178c5a)" d="M 68.607727 263.631071 
L 70.247397 263.19337 
L 71.887066 263.913993 
L 73.526736 264.20165 
L 75.166405 263.459719 
L 76.806074 264.513575 
L 80.085413 263.903043 
L 81.725083 264.597327 
L 83.364752 264.334529 
L 86.644091 264.315884 
L 88.28376 263.916064 
L 89.92343 264.05575 
L 91.563099 264.528668 
L 93.202769 263.865754 
L 94.842438 263.995673 
L 96.482107 263.272387 
L 98.121777 263.958088 
L 99.761446 264.249001 
L 101.401116 264.085344 
L 103.040785 264.174127 
L 104.680455 263.288072 
L 106.320124 264.270309 
L 107.959793 264.047759 
L 109.599463 263.595262 
L 111.239132 263.546135 
L 112.878802 264.072323 
L 114.518471 264.353173 
L 116.15814 264.437221 
L 117.79781 264.387503 
L 119.437479 264.602062 
L 121.077149 264.375665 
L 122.716818 263.952465 
L 124.356488 263.985907 
L 125.996157 263.894461 
L 127.635826 264.297536 
L 129.275496 263.627519 
L 130.915165 264.110203 
L 132.554835 263.712159 
L 134.194504 264.309669 
L 135.834174 263.135069 
L 137.473843 263.573658 
L 139.113512 263.511214 
L 140.753182 263.967559 
L 142.392851 264.302567 
L 144.032521 263.88499 
L 145.67219 263.899196 
L 147.31186 263.468598 
L 148.951529 264.001296 
L 150.591198 264.066404 
L 152.230868 264.544945 
L 153.870537 264.166433 
L 155.510207 264.380992 
L 157.149876 263.723405 
L 160.429215 264.593183 
L 162.068884 264.261727 
L 163.708554 264.18123 
L 165.348223 263.204912 
L 166.987893 263.431901 
L 168.627562 263.842374 
L 170.267231 264.595847 
L 171.906901 264.459417 
L 173.54657 264.667169 
L 175.18624 264.639942 
L 176.825909 264.22207 
L 178.465579 264.582825 
L 180.105248 264.0229 
L 181.744917 264.278299 
L 183.384587 264.22503 
L 185.024256 264.59851 
L 186.663926 264.17975 
L 188.303595 264.074986 
L 189.943264 263.579281 
L 191.582934 264.41177 
L 193.222603 264.320619 
L 194.862273 264.642902 
L 196.501942 263.671615 
L 198.141612 263.402306 
L 199.781281 264.127368 
L 201.42095 264.315884 
L 206.339959 263.8113 
L 207.979628 264.514462 
L 209.619298 263.925831 
L 211.258967 264.208161 
L 212.898636 264.164361 
L 214.538306 264.337488 
L 216.177975 264.243082 
L 219.457314 264.279187 
L 221.096983 264.609164 
L 222.736653 263.869009 
L 226.015992 264.435741 
L 227.655661 264.030299 
L 229.295331 263.806269 
L 232.574669 264.569804 
L 235.854008 264.454386 
L 237.493678 263.70772 
L 239.133347 259.379841 
L 240.773017 264.031778 
L 242.412686 264.300791 
L 244.052355 263.870489 
L 245.692025 264.526596 
L 247.331694 264.096886 
L 248.971364 264.036809 
L 250.611033 263.410889 
L 252.250702 264.08712 
L 253.890372 264.457345 
L 255.530041 264.476582 
L 257.169711 263.457944 
L 258.80938 263.544655 
L 260.44905 264.261727 
L 262.088719 264.413842 
L 265.368058 264.275932 
L 267.007727 264.006327 
L 268.647397 263.924943 
L 270.287066 263.345781 
L 271.926736 264.310557 
L 273.566405 263.816331 
L 275.206074 263.977325 
L 276.845744 263.522755 
L 278.485413 263.557381 
L 280.125083 264.36797 
L 281.764752 264.260543 
L 283.404421 264.610348 
L 285.044091 264.561517 
L 286.68376 264.362643 
L 288.32343 263.469485 
L 289.963099 264.516534 
L 291.602769 264.028819 
L 293.242438 264.620114 
L 294.882107 264.521861 
L 296.521777 264.048055 
L 298.161446 264.207569 
L 299.801116 264.495818 
L 301.440785 264.634911 
L 303.080455 263.705353 
L 304.720124 262.372718 
L 306.359793 264.570692 
L 307.999463 264.55619 
L 309.639132 263.819587 
L 311.278802 264.556782 
L 312.918471 263.844742 
L 314.55814 264.206681 
L 316.19781 263.007813 
L 317.837479 264.380992 
L 319.477149 264.199282 
L 321.116818 264.154299 
L 322.756488 263.388693 
L 324.396157 263.995969 
L 326.035826 264.371226 
L 327.675496 264.135063 
L 329.315165 264.016389 
L 330.954835 264.332457 
L 332.594504 263.462975 
L 334.234174 264.29724 
L 335.873843 262.438418 
L 337.513512 264.290729 
L 339.153182 264.182414 
L 340.792851 263.877 
L 342.432521 264.543761 
L 344.07219 264.45113 
L 345.71186 263.862499 
L 348.991198 263.822546 
L 350.630868 264.299015 
L 352.270537 264.181526 
L 353.910207 263.820771 
L 355.549876 263.948322 
L 357.189545 263.689963 
L 358.829215 263.676646 
L 360.468884 264.136246 
L 362.108554 264.377145 
L 363.748223 263.571586 
L 365.387893 263.078544 
L 367.027562 264.523933 
L 368.667231 262.053395 
L 370.306901 264.017277 
L 371.94657 263.515653 
L 373.58624 264.238939 
L 375.225909 263.318258 
L 376.865579 264.566844 
L 378.505248 263.490202 
L 380.144917 264.172943 
L 381.784587 263.924351 
L 383.424256 264.154299 
L 385.063926 264.619226 
L 386.703595 264.198691 
L 388.343264 263.951874 
L 391.622603 264.528372 
L 393.262273 264.442252 
L 393.262273 264.442252 
" style="fill:none;stroke:#2ca02c;stroke-linecap:square;stroke-width:0.5;"/>
   </g>
   <g id="patch_3">
    <path d="M 52.375 276.812 
L 52.375 10.7 
" style="fill:none;stroke:#000000;stroke-linecap:square;stroke-linejoin:miter;stroke-width:0.8;"/>
   </g>
   <g id="patch_4">
    <path d="M 409.495 276.812 
L 409.495 10.7 
" style="fill:none;stroke:#000000;stroke-linecap:square;stroke-linejoin:miter;stroke-width:0.8;"/>
   </g>
   <g id="patch_5">
    <path d="M 52.375 276.812 
L 409.495 276.812 
" style="fill:none;stroke:#000000;stroke-linecap:square;stroke-linejoin:miter;stroke-width:0.8;"/>
   </g>
   <g id="patch_6">
    <path d="M 52.375 10.7 
L 409.495 10.7 
" style="fill:none;stroke:#000000;stroke-linecap:square;stroke-linejoin:miter;stroke-width:0.8;"/>
   </g>
  </g>
 </g>
 <defs>
  <clipPath id="pf691178c5a">
   <rect height="266.112" width="357.12" x="52.375" y="10.7"/>
  </clipPath>
 </defs>
</svg>
