<?xml version="1.0" encoding="utf-8" standalone="no"?>
<!DOCTYPE svg PUBLIC "-//W3C//DTD SVG 1.1//EN"
  "http://www.w3.org/Graphics/SVG/1.1/DTD/svg11.dtd">
<!-- Created with matplotlib (http://matplotlib.org/) -->
<svg height="300pt" version="1.1" viewBox="0 0 415 300" width="415pt" xmlns="http://www.w3.org/2000/svg" xmlns:xlink="http://www.w3.org/1999/xlink">
 <defs>
  <style type="text/css">
*{stroke-linecap:butt;stroke-linejoin:round;}
  </style>
 </defs>
 <g id="figure_1">
  <g id="patch_1">
   <path d="M 0 300.690125 
L 415.849687 300.690125 
L 415.849687 0 
L 0 0 
z
" style="fill:#ffffff;"/>
  </g>
  <g id="axes_1">
   <g id="patch_2">
    <path d="M 48.029688 276.812 
L 405.149688 276.812 
L 405.149688 10.7 
L 48.029688 10.7 
z
" style="fill:#ffffff;"/>
   </g>
   <g id="matplotlib.axis_1">
    <g id="xtick_1">
     <g id="line2d_1">
      <defs>
       <path d="M 0 0 
L 0 3.5 
" id="m9411c03473" style="stroke:#000000;stroke-width:0.8;"/>
      </defs>
      <g>
       <use style="stroke:#000000;stroke-width:0.8;" x="64.262415" xlink:href="#m9411c03473" y="276.812"/>
      </g>
     </g>
     <g id="text_1">
      <!-- 0 -->
      <defs>
       <path d="M 31.78125 66.40625 
Q 24.171875 66.40625 20.328125 58.90625 
Q 16.5 51.421875 16.5 36.375 
Q 16.5 21.390625 20.328125 13.890625 
Q 24.171875 6.390625 31.78125 6.390625 
Q 39.453125 6.390625 43.28125 13.890625 
Q 47.125 21.390625 47.125 36.375 
Q 47.125 51.421875 43.28125 58.90625 
Q 39.453125 66.40625 31.78125 66.40625 
z
M 31.78125 74.21875 
Q 44.046875 74.21875 50.515625 64.515625 
Q 56.984375 54.828125 56.984375 36.375 
Q 56.984375 17.96875 50.515625 8.265625 
Q 44.046875 -1.421875 31.78125 -1.421875 
Q 19.53125 -1.421875 13.0625 8.265625 
Q 6.59375 17.96875 6.59375 36.375 
Q 6.59375 54.828125 13.0625 64.515625 
Q 19.53125 74.21875 31.78125 74.21875 
z
" id="DejaVuSans-30"/>
      </defs>
      <g transform="translate(61.081165 291.410437)scale(0.1 -0.1)">
       <use xlink:href="#DejaVuSans-30"/>
      </g>
     </g>
    </g>
    <g id="xtick_2">
     <g id="line2d_2">
      <g>
       <use style="stroke:#000000;stroke-width:0.8;" x="105.25415" xlink:href="#m9411c03473" y="276.812"/>
      </g>
     </g>
     <g id="text_2">
      <!-- 25 -->
      <defs>
       <path d="M 19.1875 8.296875 
L 53.609375 8.296875 
L 53.609375 0 
L 7.328125 0 
L 7.328125 8.296875 
Q 12.9375 14.109375 22.625 23.890625 
Q 32.328125 33.6875 34.8125 36.53125 
Q 39.546875 41.84375 41.421875 45.53125 
Q 43.3125 49.21875 43.3125 52.78125 
Q 43.3125 58.59375 39.234375 62.25 
Q 35.15625 65.921875 28.609375 65.921875 
Q 23.96875 65.921875 18.8125 64.3125 
Q 13.671875 62.703125 7.8125 59.421875 
L 7.8125 69.390625 
Q 13.765625 71.78125 18.9375 73 
Q 24.125 74.21875 28.421875 74.21875 
Q 39.75 74.21875 46.484375 68.546875 
Q 53.21875 62.890625 53.21875 53.421875 
Q 53.21875 48.921875 51.53125 44.890625 
Q 49.859375 40.875 45.40625 35.40625 
Q 44.1875 33.984375 37.640625 27.21875 
Q 31.109375 20.453125 19.1875 8.296875 
z
" id="DejaVuSans-32"/>
       <path d="M 10.796875 72.90625 
L 49.515625 72.90625 
L 49.515625 64.59375 
L 19.828125 64.59375 
L 19.828125 46.734375 
Q 21.96875 47.46875 24.109375 47.828125 
Q 26.265625 48.1875 28.421875 48.1875 
Q 40.625 48.1875 47.75 41.5 
Q 54.890625 34.8125 54.890625 23.390625 
Q 54.890625 11.625 47.5625 5.09375 
Q 40.234375 -1.421875 26.90625 -1.421875 
Q 22.3125 -1.421875 17.546875 -0.640625 
Q 12.796875 0.140625 7.71875 1.703125 
L 7.71875 11.625 
Q 12.109375 9.234375 16.796875 8.0625 
Q 21.484375 6.890625 26.703125 6.890625 
Q 35.15625 6.890625 40.078125 11.328125 
Q 45.015625 15.765625 45.015625 23.390625 
Q 45.015625 31 40.078125 35.4375 
Q 35.15625 39.890625 26.703125 39.890625 
Q 22.75 39.890625 18.8125 39.015625 
Q 14.890625 38.140625 10.796875 36.28125 
z
" id="DejaVuSans-35"/>
      </defs>
      <g transform="translate(98.89165 291.410437)scale(0.1 -0.1)">
       <use xlink:href="#DejaVuSans-32"/>
       <use x="63.623047" xlink:href="#DejaVuSans-35"/>
      </g>
     </g>
    </g>
    <g id="xtick_3">
     <g id="line2d_3">
      <g>
       <use style="stroke:#000000;stroke-width:0.8;" x="146.245886" xlink:href="#m9411c03473" y="276.812"/>
      </g>
     </g>
     <g id="text_3">
      <!-- 50 -->
      <g transform="translate(139.883386 291.410437)scale(0.1 -0.1)">
       <use xlink:href="#DejaVuSans-35"/>
       <use x="63.623047" xlink:href="#DejaVuSans-30"/>
      </g>
     </g>
    </g>
    <g id="xtick_4">
     <g id="line2d_4">
      <g>
       <use style="stroke:#000000;stroke-width:0.8;" x="187.237621" xlink:href="#m9411c03473" y="276.812"/>
      </g>
     </g>
     <g id="text_4">
      <!-- 75 -->
      <defs>
       <path d="M 8.203125 72.90625 
L 55.078125 72.90625 
L 55.078125 68.703125 
L 28.609375 0 
L 18.3125 0 
L 43.21875 64.59375 
L 8.203125 64.59375 
z
" id="DejaVuSans-37"/>
      </defs>
      <g transform="translate(180.875121 291.410437)scale(0.1 -0.1)">
       <use xlink:href="#DejaVuSans-37"/>
       <use x="63.623047" xlink:href="#DejaVuSans-35"/>
      </g>
     </g>
    </g>
    <g id="xtick_5">
     <g id="line2d_5">
      <g>
       <use style="stroke:#000000;stroke-width:0.8;" x="228.229357" xlink:href="#m9411c03473" y="276.812"/>
      </g>
     </g>
     <g id="text_5">
      <!-- 100 -->
      <defs>
       <path d="M 12.40625 8.296875 
L 28.515625 8.296875 
L 28.515625 63.921875 
L 10.984375 60.40625 
L 10.984375 69.390625 
L 28.421875 72.90625 
L 38.28125 72.90625 
L 38.28125 8.296875 
L 54.390625 8.296875 
L 54.390625 0 
L 12.40625 0 
z
" id="DejaVuSans-31"/>
      </defs>
      <g transform="translate(218.685607 291.410437)scale(0.1 -0.1)">
       <use xlink:href="#DejaVuSans-31"/>
       <use x="63.623047" xlink:href="#DejaVuSans-30"/>
       <use x="127.246094" xlink:href="#DejaVuSans-30"/>
      </g>
     </g>
    </g>
    <g id="xtick_6">
     <g id="line2d_6">
      <g>
       <use style="stroke:#000000;stroke-width:0.8;" x="269.221092" xlink:href="#m9411c03473" y="276.812"/>
      </g>
     </g>
     <g id="text_6">
      <!-- 125 -->
      <g transform="translate(259.677342 291.410437)scale(0.1 -0.1)">
       <use xlink:href="#DejaVuSans-31"/>
       <use x="63.623047" xlink:href="#DejaVuSans-32"/>
       <use x="127.246094" xlink:href="#DejaVuSans-35"/>
      </g>
     </g>
    </g>
    <g id="xtick_7">
     <g id="line2d_7">
      <g>
       <use style="stroke:#000000;stroke-width:0.8;" x="310.212828" xlink:href="#m9411c03473" y="276.812"/>
      </g>
     </g>
     <g id="text_7">
      <!-- 150 -->
      <g transform="translate(300.669078 291.410437)scale(0.1 -0.1)">
       <use xlink:href="#DejaVuSans-31"/>
       <use x="63.623047" xlink:href="#DejaVuSans-35"/>
       <use x="127.246094" xlink:href="#DejaVuSans-30"/>
      </g>
     </g>
    </g>
    <g id="xtick_8">
     <g id="line2d_8">
      <g>
       <use style="stroke:#000000;stroke-width:0.8;" x="351.204564" xlink:href="#m9411c03473" y="276.812"/>
      </g>
     </g>
     <g id="text_8">
      <!-- 175 -->
      <g transform="translate(341.660814 291.410437)scale(0.1 -0.1)">
       <use xlink:href="#DejaVuSans-31"/>
       <use x="63.623047" xlink:href="#DejaVuSans-37"/>
       <use x="127.246094" xlink:href="#DejaVuSans-35"/>
      </g>
     </g>
    </g>
    <g id="xtick_9">
     <g id="line2d_9">
      <g>
       <use style="stroke:#000000;stroke-width:0.8;" x="392.196299" xlink:href="#m9411c03473" y="276.812"/>
      </g>
     </g>
     <g id="text_9">
      <!-- 200 -->
      <g transform="translate(382.652549 291.410437)scale(0.1 -0.1)">
       <use xlink:href="#DejaVuSans-32"/>
       <use x="63.623047" xlink:href="#DejaVuSans-30"/>
       <use x="127.246094" xlink:href="#DejaVuSans-30"/>
      </g>
     </g>
    </g>
   </g>
   <g id="matplotlib.axis_2">
    <g id="ytick_1">
     <g id="line2d_10">
      <defs>
       <path d="M 0 0 
L -3.5 0 
" id="m8cd62d5639" style="stroke:#000000;stroke-width:0.8;"/>
      </defs>
      <g>
       <use style="stroke:#000000;stroke-width:0.8;" x="48.029688" xlink:href="#m8cd62d5639" y="261.880308"/>
      </g>
     </g>
     <g id="text_10">
      <!-- −2000 -->
      <defs>
       <path d="M 10.59375 35.5 
L 73.1875 35.5 
L 73.1875 27.203125 
L 10.59375 27.203125 
z
" id="DejaVuSans-2212"/>
      </defs>
      <g transform="translate(7.2 265.679526)scale(0.1 -0.1)">
       <use xlink:href="#DejaVuSans-2212"/>
       <use x="83.789062" xlink:href="#DejaVuSans-32"/>
       <use x="147.412109" xlink:href="#DejaVuSans-30"/>
       <use x="211.035156" xlink:href="#DejaVuSans-30"/>
       <use x="274.658203" xlink:href="#DejaVuSans-30"/>
      </g>
     </g>
    </g>
    <g id="ytick_2">
     <g id="line2d_11">
      <g>
       <use style="stroke:#000000;stroke-width:0.8;" x="48.029688" xlink:href="#m8cd62d5639" y="202.803385"/>
      </g>
     </g>
     <g id="text_11">
      <!-- −1000 -->
      <g transform="translate(7.2 206.602603)scale(0.1 -0.1)">
       <use xlink:href="#DejaVuSans-2212"/>
       <use x="83.789062" xlink:href="#DejaVuSans-31"/>
       <use x="147.412109" xlink:href="#DejaVuSans-30"/>
       <use x="211.035156" xlink:href="#DejaVuSans-30"/>
       <use x="274.658203" xlink:href="#DejaVuSans-30"/>
      </g>
     </g>
    </g>
    <g id="ytick_3">
     <g id="line2d_12">
      <g>
       <use style="stroke:#000000;stroke-width:0.8;" x="48.029688" xlink:href="#m8cd62d5639" y="143.726462"/>
      </g>
     </g>
     <g id="text_12">
      <!-- 0 -->
      <g transform="translate(34.667187 147.52568)scale(0.1 -0.1)">
       <use xlink:href="#DejaVuSans-30"/>
      </g>
     </g>
    </g>
    <g id="ytick_4">
     <g id="line2d_13">
      <g>
       <use style="stroke:#000000;stroke-width:0.8;" x="48.029688" xlink:href="#m8cd62d5639" y="84.649538"/>
      </g>
     </g>
     <g id="text_13">
      <!-- 1000 -->
      <g transform="translate(15.579687 88.448757)scale(0.1 -0.1)">
       <use xlink:href="#DejaVuSans-31"/>
       <use x="63.623047" xlink:href="#DejaVuSans-30"/>
       <use x="127.246094" xlink:href="#DejaVuSans-30"/>
       <use x="190.869141" xlink:href="#DejaVuSans-30"/>
      </g>
     </g>
    </g>
    <g id="ytick_5">
     <g id="line2d_14">
      <g>
       <use style="stroke:#000000;stroke-width:0.8;" x="48.029688" xlink:href="#m8cd62d5639" y="25.572615"/>
      </g>
     </g>
     <g id="text_14">
      <!-- 2000 -->
      <g transform="translate(15.579687 29.371834)scale(0.1 -0.1)">
       <use xlink:href="#DejaVuSans-32"/>
       <use x="63.623047" xlink:href="#DejaVuSans-30"/>
       <use x="127.246094" xlink:href="#DejaVuSans-30"/>
       <use x="190.869141" xlink:href="#DejaVuSans-30"/>
      </g>
     </g>
    </g>
   </g>
   <g id="line2d_15">
    <path clip-path="url(#padc62e7fa2)" d="M 64.262415 142.308615 
L 65.902084 138.291385 
L 67.541754 143.253846 
L 69.181423 134.037846 
L 70.821092 142.249538 
L 72.460762 129.311692 
L 74.100431 152.942462 
L 75.740101 140.240923 
L 77.37977 137.405231 
L 79.01944 145.912308 
L 80.659109 144.14 
L 82.298778 140.122769 
L 83.938448 138.764 
L 85.578117 138.232308 
L 87.217787 140.831692 
L 88.857456 140.654462 
L 90.497126 149.752308 
L 92.136795 137.109846 
L 93.776464 145.321538 
L 95.416134 135.810154 
L 97.055803 142.308615 
L 100.335142 136.105538 
L 101.974811 148.157231 
L 105.25415 139.354769 
L 106.89382 141.422462 
L 108.533489 138.764 
L 110.173159 143.253846 
L 111.812828 142.722154 
L 113.452497 138.468615 
L 115.092167 146.089538 
L 116.731836 143.785538 
L 118.371506 131.084 
L 120.011175 139.177538 
L 121.650845 136.696308 
L 123.290514 127.893846 
L 124.930183 139.827385 
L 126.569853 136.519077 
L 128.209522 140.477231 
L 129.849192 138.468615 
L 131.488861 136.696308 
L 133.12853 142.249538 
L 134.7682 134.687692 
L 136.407869 142.544923 
L 138.047539 133.151692 
L 139.687208 137.346154 
L 141.326878 143.490154 
L 142.966547 129.961538 
L 144.606216 140.359077 
L 146.245886 139.709231 
L 147.885555 136.046462 
L 149.525225 135.160308 
L 151.164894 142.131385 
L 152.804564 140.240923 
L 154.444233 140.831692 
L 156.083902 139.945538 
L 157.723572 142.190462 
L 159.363241 137.641538 
L 161.002911 138.468615 
L 164.282249 144.789846 
L 165.921919 138.350462 
L 167.561588 140.181846 
L 169.201258 140.477231 
L 170.840927 142.308615 
L 172.480597 136.46 
L 174.120266 137.818769 
L 175.759935 137.936923 
L 177.399605 139.236615 
L 179.039274 142.131385 
L 180.678944 138.055077 
L 182.318613 149.575077 
L 183.958283 141.836 
L 185.597952 138.291385 
L 187.237621 140.359077 
L 188.877291 148.688923 
L 190.51696 142.604 
L 192.15663 140.595385 
L 193.796299 141.068 
L 195.435968 142.722154 
L 197.075638 138.704923 
L 198.715307 137.936923 
L 200.354977 141.776923 
L 201.994646 139.354769 
L 203.634316 139.886462 
L 205.273985 125.944308 
L 206.913654 140.713538 
L 208.553324 139.886462 
L 210.192993 148.216308 
L 211.832663 142.367692 
L 213.472332 134.215077 
L 215.112002 139.886462 
L 216.751671 142.308615 
L 218.39134 140.654462 
L 220.03101 141.304308 
L 221.670679 133.742462 
L 223.310349 152.765231 
L 224.950018 142.013231 
L 226.589687 137.818769 
L 228.229357 150.047692 
L 229.869026 144.199077 
L 231.508696 142.131385 
L 233.148365 138.704923 
L 234.788035 139.295692 
L 236.427704 139.532 
L 238.067373 136.637231 
L 239.707043 135.632923 
L 242.986382 142.958462 
L 244.626051 134.924 
L 246.265721 143.844615 
L 247.90539 140.772615 
L 249.545059 141.481538 
L 251.184729 137.996 
L 252.824398 139.295692 
L 254.464068 141.776923 
L 256.103737 149.752308 
L 257.743407 136.46 
L 259.383076 138.823077 
L 261.022745 133.860615 
L 262.662415 141.186154 
L 264.302084 140.477231 
L 265.941754 146.857538 
L 267.581423 137.050769 
L 269.221092 136.696308 
L 270.860762 141.836 
L 272.500431 138.232308 
L 274.140101 141.599692 
L 277.41944 139.709231 
L 279.059109 134.037846 
L 280.698778 140.890769 
L 282.338448 131.792923 
L 283.978117 137.996 
L 285.617787 142.190462 
L 287.257456 139.532 
L 288.897126 143.608308 
L 290.536795 136.637231 
L 292.176464 148.039077 
L 293.816134 143.549231 
L 295.455803 139.650154 
L 297.095473 142.604 
L 298.735142 141.836 
L 300.374811 124.644615 
L 302.014481 143.017538 
L 303.65415 139.295692 
L 305.29382 137.464308 
L 306.933489 139.886462 
L 308.573159 140.122769 
L 310.212828 140.181846 
L 311.852497 140.713538 
L 313.492167 138.291385 
L 315.131836 143.135692 
L 316.771506 138.409538 
L 318.411175 142.013231 
L 320.050845 150.461231 
L 321.690514 143.017538 
L 323.330183 144.258154 
L 324.969853 125.471692 
L 326.609522 154.832923 
L 328.249192 146.266769 
L 329.888861 142.072308 
L 331.52853 139.709231 
L 333.1682 144.14 
L 334.807869 136.341846 
L 336.447539 144.435385 
L 338.087208 139.591077 
L 339.726878 142.604 
L 341.366547 138.586769 
L 343.006216 142.485846 
L 344.645886 144.199077 
L 346.285555 143.076615 
L 347.925225 139.532 
L 349.564894 133.565231 
L 351.204564 139.591077 
L 352.844233 132.62 
L 354.483902 142.722154 
L 356.123572 152.056308 
L 357.763241 139.295692 
L 359.402911 142.308615 
L 361.04258 139.650154 
L 362.682249 145.676 
L 364.321919 136.696308 
L 365.961588 144.553538 
L 367.601258 130.493231 
L 369.240927 139.000308 
L 370.880597 142.131385 
L 372.520266 140.240923 
L 374.159935 141.776923 
L 375.799605 144.14 
L 377.439274 137.759692 
L 379.078944 142.544923 
L 380.718613 122.754154 
L 382.358283 137.464308 
L 383.997952 141.127077 
L 385.637621 142.426769 
L 387.277291 141.599692 
L 388.91696 138.586769 
L 388.91696 138.586769 
" style="fill:none;stroke:#1f77b4;stroke-linecap:square;stroke-width:0.5;"/>
   </g>
   <g id="line2d_16">
    <path clip-path="url(#padc62e7fa2)" d="M 64.262415 135.810154 
L 65.902084 133.978769 
L 67.541754 134.096923 
L 69.181423 142.663077 
L 70.821092 23.268615 
L 72.460762 146.975692 
L 74.100431 150.224923 
L 75.740101 141.422462 
L 77.37977 146.621231 
L 79.01944 139.886462 
L 80.659109 134.628615 
L 82.298778 151.347385 
L 83.938448 125.708 
L 85.578117 131.320308 
L 87.217787 142.013231 
L 88.857456 147.566462 
L 90.497126 127.125846 
L 92.136795 145.794154 
L 93.776464 147.034769 
L 95.416134 150.047692 
L 97.055803 134.510462 
L 98.695473 93.097538 
L 100.335142 144.199077 
L 101.974811 151.82 
L 103.614481 139.591077 
L 105.25415 152.765231 
L 106.89382 126.889538 
L 108.533489 116.964615 
L 110.173159 150.461231 
L 111.812828 130.729538 
L 113.452497 135.514769 
L 115.092167 133.210769 
L 116.731836 191.106154 
L 118.371506 189.274769 
L 120.011175 158.318462 
L 121.650845 141.599692 
L 123.290514 121.395385 
L 124.930183 102.668 
L 126.569853 168.656923 
L 128.209522 152.588 
L 129.849192 173.442154 
L 131.488861 81.932 
L 133.12853 107.984923 
L 134.7682 61.018769 
L 136.407869 218.458769 
L 138.047539 139.354769 
L 139.687208 146.444 
L 141.326878 168.420615 
L 142.966547 124.526462 
L 144.606216 246.284 
L 146.245886 87.485231 
L 147.885555 135.042154 
L 149.525225 97.941846 
L 151.164894 148.570769 
L 152.804564 134.156 
L 154.444233 129.961538 
L 156.083902 144.258154 
L 157.723572 140.418154 
L 159.363241 137.877846 
L 161.002911 137.582462 
L 162.64258 98.828 
L 164.282249 128.425538 
L 165.921919 153.592308 
L 167.561588 124.112923 
L 169.201258 171.728923 
L 170.840927 121.040923 
L 172.480597 140.890769 
L 174.120266 142.249538 
L 175.759935 173.501231 
L 177.399605 143.844615 
L 179.039274 140.713538 
L 180.678944 126.476 
L 182.318613 136.519077 
L 183.958283 105.74 
L 185.597952 113.006462 
L 187.237621 132.974462 
L 188.877291 138.055077 
L 190.51696 144.258154 
L 192.15663 145.912308 
L 193.796299 171.374462 
L 195.435968 174.446462 
L 197.075638 137.523385 
L 198.715307 151.938154 
L 200.354977 189.452 
L 201.994646 144.908 
L 203.634316 95.933231 
L 206.913654 141.658769 
L 208.553324 172.556 
L 210.192993 145.498769 
L 211.832663 154.478462 
L 213.472332 168.716 
L 215.112002 149.279692 
L 216.751671 173.619385 
L 218.39134 163.635385 
L 220.03101 117.141846 
L 221.670679 134.510462 
L 223.310349 134.983077 
L 224.950018 126.476 
L 226.589687 171.906154 
L 228.229357 157.609538 
L 229.869026 150.402154 
L 231.508696 128.071077 
L 233.148365 126.121538 
L 234.788035 103.022462 
L 236.427704 144.730769 
L 238.067373 142.367692 
L 239.707043 167.18 
L 241.346712 142.308615 
L 242.986382 150.933846 
L 244.626051 149.811385 
L 246.265721 137.759692 
L 247.90539 142.190462 
L 249.545059 70.471077 
L 251.184729 142.781231 
L 252.824398 151.760923 
L 254.464068 149.516 
L 256.103737 172.496923 
L 257.743407 140.831692 
L 259.383076 145.794154 
L 261.022745 144.435385 
L 262.662415 89.848308 
L 264.302084 120.450154 
L 265.941754 142.663077 
L 267.581423 162.808308 
L 269.221092 146.857538 
L 270.860762 151.701846 
L 272.500431 137.109846 
L 274.140101 141.245231 
L 275.77977 142.663077 
L 277.41944 100.541231 
L 279.059109 142.958462 
L 280.698778 154.478462 
L 282.338448 148.688923 
L 283.978117 158.613846 
L 285.617787 144.199077 
L 287.257456 137.936923 
L 288.897126 139.768308 
L 290.536795 98.296308 
L 292.176464 164.994154 
L 293.816134 149.811385 
L 295.455803 139.709231 
L 297.095473 165.171385 
L 298.735142 142.781231 
L 300.374811 134.451385 
L 302.014481 149.102462 
L 303.65415 131.202154 
L 305.29382 103.436 
L 306.933489 100.600308 
L 308.573159 127.480308 
L 310.212828 138.764 
L 311.852497 152.292615 
L 313.492167 143.608308 
L 315.131836 133.092615 
L 316.771506 89.671077 
L 318.411175 129.488923 
L 320.050845 152.765231 
L 321.690514 162.867385 
L 323.330183 160.858769 
L 324.969853 149.575077 
L 326.609522 131.852 
L 328.249192 108.398462 
L 329.888861 117.732615 
L 331.52853 151.997231 
L 333.1682 164.876 
L 334.807869 151.583692 
L 336.447539 179.763385 
L 338.087208 155.837231 
L 339.726878 93.806462 
L 341.366547 153.828615 
L 343.006216 160.504308 
L 344.645886 181.653846 
L 346.285555 143.431077 
L 347.925225 156.487077 
L 349.564894 142.072308 
L 351.204564 145.026154 
L 352.844233 125.353538 
L 354.483902 141.776923 
L 356.123572 111.293231 
L 357.763241 116.551077 
L 359.402911 149.634154 
L 361.04258 157.018769 
L 362.682249 144.021846 
L 364.321919 147.861846 
L 365.961588 140.713538 
L 367.601258 143.549231 
L 369.240927 132.206462 
L 370.880597 88.371385 
L 372.520266 153.592308 
L 374.159935 115.724 
L 375.799605 146.384923 
L 377.439274 154.714769 
L 379.078944 130.256923 
L 380.718613 145.144308 
L 382.358283 92.565846 
L 382.358283 92.565846 
" style="fill:none;stroke:#ff7f0e;stroke-linecap:square;stroke-width:0.5;"/>
   </g>
   <g id="line2d_17">
    <path clip-path="url(#padc62e7fa2)" d="M 64.262415 141.658769 
L 65.902084 139.827385 
L 67.541754 139.236615 
L 69.181423 132.147385 
L 70.821092 142.958462 
L 72.460762 138.882154 
L 74.100431 140.418154 
L 75.740101 141.599692 
L 77.37977 140.772615 
L 79.01944 142.426769 
L 80.659109 138.409538 
L 82.298778 170.252 
L 83.938448 139.768308 
L 85.578117 139.709231 
L 87.217787 139.827385 
L 88.857456 135.455692 
L 90.497126 138.645846 
L 92.136795 138.764 
L 93.776464 144.258154 
L 95.416134 141.658769 
L 97.055803 141.245231 
L 98.695473 138.291385 
L 100.335142 136.341846 
L 101.974811 136.400923 
L 103.614481 140.654462 
L 105.25415 161.390462 
L 106.89382 138.350462 
L 108.533489 143.076615 
L 110.173159 139.591077 
L 111.812828 138.941231 
L 115.092167 142.722154 
L 116.731836 138.055077 
L 118.371506 142.072308 
L 120.011175 143.785538 
L 121.650845 133.565231 
L 123.290514 135.573846 
L 124.930183 141.363385 
L 128.209522 142.604 
L 129.849192 140.477231 
L 131.488861 140.772615 
L 133.12853 142.485846 
L 134.7682 133.328923 
L 136.407869 143.549231 
L 138.047539 139.236615 
L 139.687208 141.186154 
L 141.326878 140.654462 
L 142.966547 143.076615 
L 144.606216 141.245231 
L 146.245886 141.363385 
L 147.885555 138.764 
L 149.525225 142.722154 
L 151.164894 139.945538 
L 152.804564 121.454462 
L 154.444233 145.676 
L 156.083902 133.328923 
L 157.723572 133.328923 
L 159.363241 143.372 
L 161.002911 139.768308 
L 162.64258 140.890769 
L 164.282249 135.987385 
L 165.921919 141.481538 
L 169.201258 139.709231 
L 170.840927 143.312923 
L 172.480597 142.072308 
L 174.120266 141.481538 
L 175.759935 139.236615 
L 177.399605 139.827385 
L 179.039274 139.472923 
L 180.678944 139.354769 
L 182.318613 137.405231 
L 183.958283 132.265538 
L 185.597952 132.088308 
L 187.237621 139.709231 
L 188.877291 140.890769 
L 190.51696 138.232308 
L 192.15663 144.376308 
L 193.796299 141.245231 
L 195.435968 139.709231 
L 197.075638 140.3 
L 198.715307 141.481538 
L 200.354977 139.709231 
L 201.994646 140.359077 
L 203.634316 139.236615 
L 205.273985 130.079692 
L 206.913654 141.776923 
L 208.553324 141.422462 
L 210.192993 140.772615 
L 211.832663 145.676 
L 213.472332 138.882154 
L 215.112002 134.864923 
L 216.751671 140.181846 
L 218.39134 138.527692 
L 220.03101 140.418154 
L 221.670679 140.536308 
L 223.310349 135.987385 
L 224.950018 141.304308 
L 226.589687 141.658769 
L 229.869026 139.295692 
L 231.508696 137.582462 
L 233.148365 140.477231 
L 234.788035 141.304308 
L 236.427704 138.291385 
L 238.067373 140.477231 
L 239.707043 144.021846 
L 241.346712 140.654462 
L 242.986382 125.353538 
L 244.626051 135.101231 
L 246.265721 141.776923 
L 247.90539 139.650154 
L 249.545059 144.553538 
L 251.184729 139.354769 
L 252.824398 140.240923 
L 254.464068 140.477231 
L 257.743407 137.877846 
L 259.383076 140.536308 
L 261.022745 138.704923 
L 262.662415 138.764 
L 264.302084 137.641538 
L 265.941754 142.131385 
L 267.581423 141.540615 
L 269.221092 139.709231 
L 270.860762 139.650154 
L 272.500431 139.886462 
L 274.140101 142.308615 
L 275.77977 141.836 
L 277.41944 139.650154 
L 279.059109 138.645846 
L 280.698778 140.772615 
L 282.338448 139.354769 
L 283.978117 141.363385 
L 285.617787 137.582462 
L 287.257456 142.308615 
L 288.897126 127.893846 
L 290.536795 139.000308 
L 292.176464 141.776923 
L 293.816134 138.941231 
L 295.455803 138.645846 
L 297.095473 140.536308 
L 298.735142 142.722154 
L 300.374811 144.553538 
L 302.014481 135.869231 
L 303.65415 142.426769 
L 305.29382 138.941231 
L 306.933489 138.586769 
L 308.573159 138.882154 
L 310.212828 138.941231 
L 311.852497 143.312923 
L 313.492167 139.236615 
L 315.131836 144.199077 
L 316.771506 139.532 
L 318.411175 140.595385 
L 320.050845 132.324615 
L 321.690514 140.3 
L 323.330183 140.772615 
L 326.609522 140.772615 
L 328.249192 141.540615 
L 329.888861 140.359077 
L 331.52853 141.658769 
L 333.1682 137.109846 
L 334.807869 142.663077 
L 336.447539 146.030462 
L 338.087208 139.709231 
L 339.726878 141.658769 
L 341.366547 138.586769 
L 343.006216 138.586769 
L 344.645886 137.582462 
L 346.285555 139.295692 
L 347.925225 136.755385 
L 349.564894 142.663077 
L 351.204564 138.232308 
L 352.844233 139.236615 
L 354.483902 141.836 
L 356.123572 141.422462 
L 357.763241 142.485846 
L 359.402911 137.109846 
L 361.04258 140.418154 
L 362.682249 141.304308 
L 364.321919 138.468615 
L 365.961588 140.418154 
L 367.601258 138.941231 
L 369.240927 139.000308 
L 370.880597 144.967077 
L 372.520266 143.490154 
L 374.159935 137.818769 
L 375.799605 141.068 
L 379.078944 138.586769 
L 380.718613 139.945538 
L 382.358283 139.532 
L 383.997952 142.426769 
L 385.637621 141.540615 
L 387.277291 143.490154 
L 387.277291 143.490154 
" style="fill:none;stroke:#2ca02c;stroke-linecap:square;stroke-width:0.5;"/>
   </g>
   <g id="line2d_18">
    <path clip-path="url(#padc62e7fa2)" d="M 64.262415 139.472923 
L 65.902084 131.261231 
L 67.541754 134.864923 
L 69.181423 128.484615 
L 70.821092 117.732615 
L 72.460762 147.802769 
L 74.100431 140.181846 
L 75.740101 138.645846 
L 77.37977 139.827385 
L 79.01944 122.754154 
L 80.659109 137.818769 
L 82.298778 144.730769 
L 83.938448 138.941231 
L 85.578117 129.016308 
L 87.217787 142.426769 
L 88.857456 133.210769 
L 90.497126 141.304308 
L 92.136795 119.091385 
L 93.776464 142.249538 
L 95.416134 143.017538 
L 97.055803 135.160308 
L 98.695473 141.363385 
L 100.335142 138.291385 
L 101.974811 142.485846 
L 103.614481 137.464308 
L 105.25415 141.363385 
L 106.89382 138.350462 
L 108.533489 139.650154 
L 110.173159 141.481538 
L 111.812828 130.197846 
L 113.452497 137.050769 
L 115.092167 143.017538 
L 116.731836 138.941231 
L 118.371506 141.658769 
L 120.011175 129.843385 
L 121.650845 138.764 
L 123.290514 139.295692 
L 124.930183 138.527692 
L 126.569853 138.409538 
L 128.209522 135.751077 
L 129.849192 138.704923 
L 131.488861 177.459385 
L 133.12853 141.540615 
L 134.7682 139.709231 
L 136.407869 139.827385 
L 138.047539 140.595385 
L 139.687208 138.055077 
L 141.326878 143.667385 
L 142.966547 144.14 
L 144.606216 139.354769 
L 146.245886 137.464308 
L 147.885555 140.772615 
L 149.525225 141.363385 
L 151.164894 143.785538 
L 152.804564 140.890769 
L 154.444233 135.751077 
L 156.083902 133.092615 
L 157.723572 148.098154 
L 159.363241 141.599692 
L 161.002911 141.304308 
L 162.64258 139.472923 
L 164.282249 137.050769 
L 165.921919 139.532 
L 167.561588 141.422462 
L 169.201258 140.713538 
L 170.840927 138.586769 
L 172.480597 141.186154 
L 174.120266 141.481538 
L 175.759935 144.14 
L 177.399605 139.295692 
L 179.039274 156.368923 
L 180.678944 141.836 
L 182.318613 138.232308 
L 183.958283 139.650154 
L 185.597952 139.472923 
L 187.237621 135.751077 
L 188.877291 142.722154 
L 190.51696 141.127077 
L 192.15663 136.46 
L 193.796299 139.768308 
L 195.435968 138.823077 
L 197.075638 138.882154 
L 198.715307 139.413846 
L 200.354977 140.654462 
L 201.994646 139.472923 
L 205.273985 144.553538 
L 206.913654 140.359077 
L 208.553324 141.658769 
L 210.192993 139.768308 
L 211.832663 138.232308 
L 213.472332 138.468615 
L 215.112002 141.836 
L 216.751671 143.962769 
L 218.39134 140.536308 
L 220.03101 142.131385 
L 221.670679 148.748 
L 223.310349 145.380615 
L 224.950018 142.367692 
L 226.589687 139.650154 
L 228.229357 138.764 
L 229.869026 141.599692 
L 231.508696 139.413846 
L 233.148365 137.759692 
L 234.788035 140.359077 
L 236.427704 138.645846 
L 238.067373 139.532 
L 239.707043 148.157231 
L 241.346712 137.464308 
L 242.986382 141.836 
L 244.626051 103.554154 
L 246.265721 135.573846 
L 247.90539 143.017538 
L 249.545059 138.586769 
L 251.184729 142.308615 
L 252.824398 148.039077 
L 254.464068 137.523385 
L 256.103737 138.764 
L 257.743407 144.080923 
L 259.383076 138.527692 
L 261.022745 144.789846 
L 262.662415 136.932615 
L 264.302084 141.836 
L 265.941754 138.409538 
L 267.581423 139.945538 
L 269.221092 95.519692 
L 270.860762 138.055077 
L 272.500431 140.3 
L 274.140101 138.055077 
L 275.77977 137.582462 
L 277.41944 145.380615 
L 279.059109 140.772615 
L 280.698778 136.814462 
L 282.338448 136.637231 
L 283.978117 131.320308 
L 285.617787 135.160308 
L 288.897126 144.021846 
L 290.536795 137.996 
L 292.176464 133.860615 
L 293.816134 136.991692 
L 295.455803 142.013231 
L 297.095473 140.359077 
L 298.735142 135.042154 
L 300.374811 140.477231 
L 302.014481 137.109846 
L 303.65415 141.186154 
L 305.29382 140.890769 
L 306.933489 140.240923 
L 308.573159 134.983077 
L 310.212828 140.240923 
L 311.852497 139.236615 
L 313.492167 143.903692 
L 315.131836 139.295692 
L 315.131836 139.295692 
" style="fill:none;stroke:#d62728;stroke-linecap:square;stroke-width:0.5;"/>
   </g>
   <g id="line2d_19">
    <path clip-path="url(#padc62e7fa2)" d="M 64.262415 22.796 
L 65.902084 147.389231 
L 67.541754 140.359077 
L 70.821092 140.359077 
L 72.460762 141.127077 
L 74.100431 129.784308 
L 75.740101 264.716 
L 77.37977 264.716 
L 79.01944 142.663077 
L 80.659109 140.713538 
L 82.298778 137.641538 
L 83.938448 139.413846 
L 85.578117 137.818769 
L 87.217787 121.868 
L 88.857456 143.312923 
L 90.497126 146.207692 
L 92.136795 143.903692 
L 93.776464 140.831692 
L 95.416134 138.764 
L 97.055803 144.908 
L 98.695473 139.413846 
L 100.335142 145.380615 
L 101.974811 145.971385 
L 105.25415 135.160308 
L 106.89382 140.240923 
L 108.533489 114.424308 
L 110.173159 143.490154 
L 111.812828 104.794769 
L 113.452497 116.078462 
L 115.092167 123.285846 
L 116.731836 148.511692 
L 118.371506 133.919692 
L 120.011175 185.848308 
L 121.650845 155.66 
L 123.290514 129.488923 
L 124.930183 147.152923 
L 126.569853 143.549231 
L 128.209522 134.274154 
L 129.849192 143.194769 
L 131.488861 147.093846 
L 133.12853 135.987385 
L 134.7682 151.642769 
L 136.407869 136.164615 
L 138.047539 150.697538 
L 139.687208 140.181846 
L 141.326878 154.537538 
L 142.966547 160.268 
L 144.606216 118.205231 
L 146.245886 95.815077 
L 147.885555 131.733846 
L 149.525225 148.275385 
L 151.164894 135.751077 
L 152.804564 144.967077 
L 154.444233 145.735077 
L 156.083902 159.027385 
L 157.723572 143.312923 
L 159.363241 112.947385 
L 161.002911 144.376308 
L 162.64258 138.941231 
L 164.282249 139.709231 
L 165.921919 137.405231 
L 167.561588 140.477231 
L 169.201258 144.908 
L 170.840927 130.316 
L 172.480597 143.135692 
L 174.120266 135.573846 
L 175.759935 142.485846 
L 177.399605 141.127077 
L 179.039274 133.624308 
L 180.678944 142.190462 
L 183.958283 128.78 
L 185.597952 147.98 
L 187.237621 144.317231 
L 188.877291 133.742462 
L 190.51696 142.249538 
L 192.15663 133.801538 
L 193.796299 141.540615 
L 195.435968 143.312923 
L 197.075638 142.958462 
L 198.715307 139.768308 
L 200.354977 139.000308 
L 201.994646 142.308615 
L 203.634316 140.3 
L 205.273985 136.46 
L 206.913654 142.958462 
L 208.553324 141.481538 
L 210.192993 142.072308 
L 211.832663 134.569538 
L 213.472332 140.831692 
L 215.112002 141.186154 
L 216.751671 141.363385 
L 218.39134 138.704923 
L 220.03101 140.713538 
L 221.670679 146.798462 
L 223.310349 139.768308 
L 224.950018 137.523385 
L 226.589687 145.971385 
L 228.229357 145.853231 
L 229.869026 142.131385 
L 231.508696 144.435385 
L 233.148365 135.692 
L 234.788035 141.363385 
L 236.427704 136.400923 
L 238.067373 143.194769 
L 239.707043 139.768308 
L 241.346712 140.418154 
L 242.986382 136.578154 
L 244.626051 135.573846 
L 246.265721 140.122769 
L 247.90539 137.996 
L 249.545059 141.068 
L 251.184729 140.536308 
L 252.824398 136.814462 
L 254.464068 144.021846 
L 256.103737 138.350462 
L 257.743407 142.426769 
L 259.383076 136.637231 
L 261.022745 137.936923 
L 262.662415 136.873538 
L 264.302084 142.249538 
L 267.581423 141.127077 
L 269.221092 139.945538 
L 270.860762 136.991692 
L 272.500431 143.076615 
L 274.140101 120.804615 
L 275.77977 142.190462 
L 277.41944 145.735077 
L 279.059109 137.641538 
L 280.698778 142.781231 
L 282.338448 140.240923 
L 283.978117 143.135692 
L 285.617787 141.658769 
L 287.257456 136.932615 
L 288.897126 147.093846 
L 290.536795 141.776923 
L 292.176464 138.527692 
L 293.816134 140.3 
L 295.455803 148.511692 
L 297.095473 138.941231 
L 298.735142 140.359077 
L 300.374811 170.015692 
L 302.014481 141.717846 
L 303.65415 136.696308 
L 305.29382 141.658769 
L 306.933489 135.751077 
L 308.573159 141.658769 
L 310.212828 129.548 
L 311.852497 141.717846 
L 313.492167 143.608308 
L 315.131836 139.413846 
L 316.771506 139.532 
L 318.411175 134.096923 
L 320.050845 139.000308 
L 321.690514 139.000308 
L 323.330183 143.431077 
L 324.969853 141.717846 
L 326.609522 141.186154 
L 328.249192 145.085231 
L 329.888861 203.394154 
L 331.52853 150.874769 
L 333.1682 140.418154 
L 334.807869 145.144308 
L 336.447539 136.814462 
L 338.087208 142.722154 
L 339.726878 137.877846 
L 341.366547 135.928308 
L 343.006216 129.725231 
L 344.645886 149.161538 
L 346.285555 114.956 
L 347.925225 120.745538 
L 349.564894 144.494462 
L 351.204564 121.454462 
L 352.844233 143.903692 
L 354.483902 160.917846 
L 356.123572 144.14 
L 357.763241 131.674769 
L 359.402911 130.197846 
L 361.04258 116.787385 
L 362.682249 134.510462 
L 364.321919 185.730154 
L 365.961588 137.109846 
L 367.601258 136.637231 
L 369.240927 127.125846 
L 370.880597 147.920923 
L 372.520266 151.524615 
L 374.159935 139.591077 
L 375.799605 142.426769 
L 377.439274 132.324615 
L 379.078944 143.253846 
L 380.718613 151.524615 
L 382.358283 142.013231 
L 383.997952 137.700615 
L 385.637621 134.215077 
L 387.277291 140.418154 
L 387.277291 140.418154 
" style="fill:none;stroke:#9467bd;stroke-linecap:square;stroke-width:0.5;"/>
   </g>
   <g id="line2d_20">
    <path clip-path="url(#padc62e7fa2)" d="M 64.262415 149.043385 
L 65.902084 140.418154 
L 67.541754 150.224923 
L 69.181423 140.595385 
L 70.821092 136.46 
L 72.460762 141.481538 
L 74.100431 136.755385 
L 75.740101 128.484615 
L 77.37977 135.869231 
L 79.01944 141.422462 
L 80.659109 142.072308 
L 82.298778 139.886462 
L 83.938448 144.080923 
L 85.578117 139.354769 
L 87.217787 136.814462 
L 88.857456 142.013231 
L 90.497126 139.650154 
L 92.136795 133.506154 
L 93.776464 138.586769 
L 95.416134 143.253846 
L 97.055803 144.258154 
L 98.695473 147.271077 
L 100.335142 139.709231 
L 101.974811 126.003385 
L 103.614481 139.827385 
L 105.25415 133.269846 
L 106.89382 140.772615 
L 108.533489 137.877846 
L 110.173159 137.109846 
L 111.812828 140.890769 
L 113.452497 145.203385 
L 115.092167 139.295692 
L 116.731836 142.663077 
L 118.371506 133.328923 
L 120.011175 140.654462 
L 121.650845 134.037846 
L 123.290514 141.776923 
L 124.930183 132.974462 
L 126.569853 145.853231 
L 128.209522 141.658769 
L 129.849192 138.527692 
L 131.488861 145.853231 
L 133.12853 141.599692 
L 134.7682 144.317231 
L 136.407869 138.586769 
L 138.047539 136.814462 
L 139.687208 143.135692 
L 141.326878 140.654462 
L 142.966547 140.181846 
L 144.606216 143.549231 
L 146.245886 142.781231 
L 147.885555 137.582462 
L 149.525225 142.131385 
L 151.164894 141.127077 
L 152.804564 135.987385 
L 154.444233 145.676 
L 156.083902 136.814462 
L 157.723572 135.869231 
L 159.363241 140.595385 
L 161.002911 136.519077 
L 162.64258 140.122769 
L 164.282249 135.219385 
L 165.921919 135.042154 
L 167.561588 140.713538 
L 169.201258 139.591077 
L 170.840927 142.663077 
L 172.480597 139.413846 
L 174.120266 135.042154 
L 175.759935 141.186154 
L 177.399605 140.477231 
L 179.039274 137.405231 
L 180.678944 141.186154 
L 182.318613 137.582462 
L 183.958283 139.768308 
L 185.597952 143.312923 
L 187.237621 138.645846 
L 188.877291 142.072308 
L 190.51696 142.131385 
L 192.15663 136.873538 
L 193.796299 143.490154 
L 195.435968 144.14 
L 197.075638 139.591077 
L 198.715307 140.831692 
L 200.354977 140.772615 
L 201.994646 139.827385 
L 203.634316 144.553538 
L 205.273985 139.886462 
L 206.913654 141.658769 
L 208.553324 143.135692 
L 210.192993 142.249538 
L 211.832663 139.945538 
L 213.472332 144.317231 
L 215.112002 142.781231 
L 216.751671 141.481538 
L 218.39134 145.912308 
L 220.03101 136.814462 
L 221.670679 130.906769 
L 223.310349 138.645846 
L 224.950018 144.494462 
L 226.589687 137.050769 
L 228.229357 143.903692 
L 229.869026 139.709231 
L 231.508696 135.160308 
L 233.148365 142.131385 
L 234.788035 139.236615 
L 236.427704 134.628615 
L 238.067373 142.544923 
L 239.707043 140.831692 
L 241.346712 132.147385 
L 242.986382 139.945538 
L 244.626051 138.882154 
L 246.265721 139.709231 
L 247.90539 131.261231 
L 249.545059 145.912308 
L 251.184729 137.523385 
L 252.824398 137.700615 
L 254.464068 144.435385 
L 256.103737 138.527692 
L 257.743407 143.785538 
L 259.383076 136.046462 
L 261.022745 137.287077 
L 262.662415 143.076615 
L 264.302084 145.144308 
L 265.941754 133.919692 
L 267.581423 136.637231 
L 269.221092 142.367692 
L 270.860762 139.945538 
L 272.500431 141.422462 
L 274.140101 139.650154 
L 275.77977 139.532 
L 277.41944 139.532 
L 279.059109 144.14 
L 280.698778 134.687692 
L 282.338448 144.494462 
L 283.978117 145.085231 
L 285.617787 133.919692 
L 287.257456 147.566462 
L 288.897126 134.215077 
L 290.536795 140.122769 
L 292.176464 131.143077 
L 293.816134 140.890769 
L 295.455803 147.861846 
L 298.735142 140.654462 
L 300.374811 142.367692 
L 302.014481 137.050769 
L 303.65415 143.135692 
L 305.29382 136.164615 
L 306.933489 138.941231 
L 308.573159 136.814462 
L 310.212828 140.122769 
L 311.852497 140.772615 
L 313.492167 140.3 
L 315.131836 136.578154 
L 316.771506 140.713538 
L 318.411175 140.772615 
L 320.050845 141.127077 
L 321.690514 142.190462 
L 323.330183 136.696308 
L 324.969853 141.481538 
L 326.609522 135.160308 
L 329.888861 138.823077 
L 331.52853 138.468615 
L 333.1682 140.3 
L 334.807869 139.236615 
L 336.447539 135.928308 
L 338.087208 143.903692 
L 339.726878 140.122769 
L 341.366547 137.582462 
L 343.006216 141.776923 
L 344.645886 144.376308 
L 346.285555 142.249538 
L 347.925225 146.030462 
L 349.564894 136.696308 
L 351.204564 140.890769 
L 351.204564 140.890769 
" style="fill:none;stroke:#8c564b;stroke-linecap:square;stroke-width:0.5;"/>
   </g>
   <g id="line2d_21">
    <path clip-path="url(#padc62e7fa2)" d="M 64.262415 133.033538 
L 65.902084 131.261231 
L 67.541754 145.321538 
L 69.181423 118.973231 
L 72.460762 138.291385 
L 74.100431 137.405231 
L 75.740101 140.181846 
L 77.37977 142.544923 
L 79.01944 131.261231 
L 80.659109 180.236 
L 82.298778 153.001538 
L 83.938448 154.478462 
L 85.578117 141.717846 
L 87.217787 131.733846 
L 88.857456 131.733846 
L 90.497126 142.131385 
L 92.136795 146.325846 
L 93.776464 143.549231 
L 95.416134 134.805846 
L 97.055803 137.877846 
L 98.695473 264.716 
L 100.335142 135.928308 
L 101.974811 136.932615 
L 103.614481 137.287077 
L 105.25415 121.690769 
L 106.89382 144.789846 
L 108.533489 134.037846 
L 110.173159 132.029231 
L 111.812828 149.516 
L 113.452497 87.957846 
L 115.092167 141.422462 
L 116.731836 145.735077 
L 118.371506 131.143077 
L 120.011175 136.341846 
L 121.650845 142.722154 
L 123.290514 139.591077 
L 124.930183 144.494462 
L 126.569853 148.216308 
L 128.209522 143.726462 
L 129.849192 137.700615 
L 131.488861 141.776923 
L 133.12853 136.46 
L 134.7682 133.269846 
L 136.407869 148.334462 
L 138.047539 140.595385 
L 139.687208 142.308615 
L 141.326878 143.076615 
L 142.966547 122.636 
L 144.606216 135.101231 
L 146.245886 143.549231 
L 147.885555 140.3 
L 149.525225 139.236615 
L 151.164894 226.138769 
L 152.804564 142.190462 
L 154.444233 210.069846 
L 156.083902 148.039077 
L 157.723572 140.240923 
L 159.363241 139.886462 
L 161.002911 167.593538 
L 162.64258 264.716 
L 164.282249 140.359077 
L 165.921919 123.404 
L 167.561588 188.565846 
L 169.201258 131.379385 
L 170.840927 166.116615 
L 172.480597 114.069846 
L 174.120266 90.557231 
L 175.759935 121.513538 
L 177.399605 109.166462 
L 179.039274 153.592308 
L 180.678944 142.781231 
L 182.318613 132.856308 
L 183.958283 155.66 
L 185.597952 137.464308 
L 187.237621 150.520308 
L 188.877291 148.157231 
L 190.51696 133.565231 
L 192.15663 134.569538 
L 193.796299 143.253846 
L 195.435968 140.654462 
L 197.075638 150.106769 
L 198.715307 134.628615 
L 200.354977 132.560923 
L 201.994646 139.472923 
L 203.634316 136.755385 
L 205.273985 143.667385 
L 206.913654 133.742462 
L 208.553324 146.621231 
L 210.192993 132.856308 
L 211.832663 165.289538 
L 213.472332 124.408308 
L 215.112002 139.945538 
L 216.751671 136.400923 
L 218.39134 143.903692 
L 220.03101 103.376923 
L 221.670679 116.019385 
L 223.310349 140.418154 
L 224.950018 145.085231 
L 226.589687 137.405231 
L 228.229357 126.889538 
L 229.869026 140.3 
L 231.508696 136.519077 
L 233.148365 140.359077 
L 234.788035 112.120308 
L 236.427704 125.176308 
L 238.067373 190.22 
L 239.707043 140.477231 
L 241.346712 153.237846 
L 244.626051 131.911077 
L 246.265721 138.468615 
L 247.90539 60.368923 
L 249.545059 142.072308 
L 251.184729 163.399077 
L 252.824398 146.739385 
L 254.464068 121.927077 
L 256.103737 137.405231 
L 257.743407 163.044615 
L 259.383076 137.346154 
L 261.022745 141.422462 
L 262.662415 134.451385 
L 264.302084 140.477231 
L 265.941754 143.549231 
L 267.581423 163.871692 
L 269.221092 133.210769 
L 270.860762 144.376308 
L 272.500431 140.713538 
L 274.140101 111.056923 
L 275.77977 139.236615 
L 277.41944 115.901231 
L 279.059109 150.815692 
L 280.698778 146.798462 
L 282.338448 141.836 
L 283.978117 132.915385 
L 285.617787 128.130154 
L 287.257456 115.074154 
L 288.897126 134.215077 
L 290.536795 131.320308 
L 292.176464 137.996 
L 293.816134 140.418154 
L 295.455803 185.139385 
L 297.095473 147.093846 
L 298.735142 51.802769 
L 300.374811 212.196615 
L 302.014481 118.382462 
L 303.65415 89.257538 
L 305.29382 147.271077 
L 306.933489 184.076 
L 308.573159 192.051385 
L 310.212828 110.997846 
L 311.852497 140.3 
L 313.492167 140.418154 
L 315.131836 161.213231 
L 318.411175 138.941231 
L 320.050845 143.549231 
L 321.690514 156.723385 
L 323.330183 154.360308 
L 324.969853 140.477231 
L 326.609522 140.359077 
L 328.249192 210.660615 
L 329.888861 123.344923 
L 331.52853 147.330154 
L 333.1682 139.413846 
L 334.807869 208.592923 
L 336.447539 139.827385 
L 338.087208 114.128923 
L 339.726878 140.890769 
L 341.366547 104.263077 
L 343.006216 141.127077 
L 344.645886 222.712308 
L 346.285555 134.096923 
L 347.925225 127.421231 
L 349.564894 126.476 
L 351.204564 122.458769 
L 352.844233 120.981846 
L 354.483902 141.363385 
L 356.123572 146.444 
L 357.763241 118.677846 
L 359.402911 134.096923 
L 361.04258 89.671077 
L 362.682249 125.294462 
L 364.321919 175.037231 
L 365.961588 128.898154 
L 367.601258 144.553538 
L 369.240927 134.924 
L 370.880597 148.098154 
L 372.520266 89.434769 
L 374.159935 138.764 
L 375.799605 140.418154 
L 377.439274 140.595385 
L 379.078944 133.565231 
L 380.718613 147.98 
L 382.358283 114.719692 
L 383.997952 172.201538 
L 383.997952 172.201538 
" style="fill:none;stroke:#e377c2;stroke-linecap:square;stroke-width:0.5;"/>
   </g>
   <g id="line2d_22">
    <path clip-path="url(#padc62e7fa2)" d="M 64.262415 138.055077 
L 65.902084 139.354769 
L 67.541754 138.764 
L 69.181423 139.650154 
L 70.821092 145.085231 
L 72.460762 138.468615 
L 74.100431 140.418154 
L 75.740101 140.772615 
L 77.37977 140.831692 
L 79.01944 141.540615 
L 80.659109 139.768308 
L 82.298778 140.477231 
L 83.938448 137.582462 
L 85.578117 141.540615 
L 87.217787 140.536308 
L 90.497126 139.709231 
L 92.136795 141.127077 
L 93.776464 138.823077 
L 95.416134 138.586769 
L 97.055803 139.236615 
L 98.695473 139.000308 
L 100.335142 138.409538 
L 101.974811 140.713538 
L 103.614481 139.236615 
L 105.25415 140.536308 
L 106.89382 141.068 
L 108.533489 140.713538 
L 110.173159 142.131385 
L 111.812828 142.131385 
L 113.452497 151.760923 
L 115.092167 138.468615 
L 116.731836 138.527692 
L 118.371506 138.055077 
L 120.011175 141.836 
L 121.650845 139.591077 
L 123.290514 142.131385 
L 124.930183 140.181846 
L 126.569853 139.886462 
L 128.209522 138.882154 
L 129.849192 144.789846 
L 131.488861 141.245231 
L 133.12853 138.941231 
L 134.7682 141.186154 
L 136.407869 140.181846 
L 138.047539 140.3 
L 139.687208 139.472923 
L 141.326878 139.413846 
L 142.966547 140.477231 
L 144.606216 139.768308 
L 146.245886 141.540615 
L 147.885555 139.650154 
L 149.525225 138.645846 
L 151.164894 138.882154 
L 152.804564 141.422462 
L 154.444233 140.772615 
L 156.083902 143.785538 
L 157.723572 140.240923 
L 159.363241 141.658769 
L 161.002911 139.768308 
L 162.64258 142.544923 
L 164.282249 140.418154 
L 165.921919 140.359077 
L 167.561588 138.764 
L 169.201258 138.645846 
L 170.840927 137.050769 
L 172.480597 141.658769 
L 174.120266 136.814462 
L 175.759935 139.591077 
L 177.399605 140.240923 
L 179.039274 139.709231 
L 180.678944 139.945538 
L 182.318613 138.409538 
L 183.958283 140.181846 
L 185.597952 140.831692 
L 187.237621 140.536308 
L 188.877291 140.772615 
L 190.51696 137.936923 
L 192.15663 141.363385 
L 193.796299 137.996 
L 195.435968 142.604 
L 197.075638 140.122769 
L 198.715307 141.304308 
L 200.354977 138.764 
L 203.634316 139.768308 
L 205.273985 143.253846 
L 206.913654 140.181846 
L 208.553324 140.831692 
L 210.192993 139.472923 
L 211.832663 136.755385 
L 213.472332 139.000308 
L 216.751671 138.823077 
L 218.39134 138.291385 
L 220.03101 141.304308 
L 221.670679 136.991692 
L 223.310349 139.177538 
L 224.950018 140.536308 
L 226.589687 140.713538 
L 229.869026 140.181846 
L 231.508696 138.941231 
L 233.148365 142.485846 
L 234.788035 140.477231 
L 236.427704 138.941231 
L 238.067373 143.017538 
L 239.707043 139.827385 
L 241.346712 137.996 
L 242.986382 142.072308 
L 244.626051 137.641538 
L 246.265721 138.409538 
L 247.90539 137.877846 
L 249.545059 145.026154 
L 251.184729 140.240923 
L 252.824398 141.363385 
L 254.464068 140.181846 
L 256.103737 139.768308 
L 257.743407 139.768308 
L 259.383076 139.591077 
L 261.022745 139.000308 
L 262.662415 142.663077 
L 264.302084 144.730769 
L 265.941754 142.308615 
L 267.581423 138.941231 
L 269.221092 143.549231 
L 270.860762 141.599692 
L 272.500431 139.945538 
L 274.140101 141.186154 
L 275.77977 139.768308 
L 277.41944 140.536308 
L 279.059109 138.527692 
L 280.698778 139.236615 
L 282.338448 140.831692 
L 283.978117 139.945538 
L 285.617787 141.776923 
L 287.257456 142.781231 
L 288.897126 141.599692 
L 290.536795 136.46 
L 292.176464 141.658769 
L 293.816134 141.068 
L 295.455803 140.595385 
L 297.095473 141.540615 
L 298.735142 138.645846 
L 300.374811 139.768308 
L 302.014481 140.418154 
L 303.65415 139.472923 
L 305.29382 142.072308 
L 306.933489 145.321538 
L 308.573159 140.359077 
L 310.212828 140.536308 
L 311.852497 141.363385 
L 313.492167 140.890769 
L 315.131836 141.186154 
L 316.771506 137.582462 
L 318.411175 140.359077 
L 320.050845 136.105538 
L 321.690514 141.127077 
L 324.969853 137.936923 
L 326.609522 140.890769 
L 328.249192 137.936923 
L 329.888861 139.650154 
L 331.52853 142.131385 
L 333.1682 139.177538 
L 334.807869 144.021846 
L 336.447539 137.464308 
L 338.087208 141.127077 
L 339.726878 140.359077 
L 341.366547 140.359077 
L 343.006216 141.717846 
L 344.645886 140.359077 
L 346.285555 139.886462 
L 347.925225 139.709231 
L 349.564894 140.122769 
L 351.204564 142.781231 
L 352.844233 138.468615 
L 354.483902 138.291385 
L 356.123572 139.886462 
L 357.763241 141.186154 
L 359.402911 144.435385 
L 361.04258 141.186154 
L 362.682249 139.236615 
L 364.321919 139.709231 
L 365.961588 140.359077 
L 367.601258 141.540615 
L 369.240927 137.464308 
L 370.880597 141.304308 
L 372.520266 139.768308 
L 374.159935 138.527692 
L 375.799605 140.890769 
L 377.439274 139.354769 
L 379.078944 139.000308 
L 380.718613 141.068 
L 382.358283 140.831692 
L 383.997952 138.941231 
L 385.637621 139.591077 
L 387.277291 138.645846 
L 388.91696 139.472923 
L 388.91696 139.472923 
" style="fill:none;stroke:#7f7f7f;stroke-linecap:square;stroke-width:0.5;"/>
   </g>
   <g id="line2d_23">
    <path clip-path="url(#padc62e7fa2)" d="M 64.262415 139.413846 
L 65.902084 135.514769 
L 67.541754 150.992923 
L 69.181423 142.131385 
L 70.821092 138.527692 
L 72.460762 138.823077 
L 74.100431 127.893846 
L 75.740101 130.316 
L 77.37977 148.570769 
L 79.01944 132.974462 
L 80.659109 145.144308 
L 82.298778 139.650154 
L 83.938448 143.017538 
L 85.578117 138.941231 
L 87.217787 97.351077 
L 88.857456 137.582462 
L 90.497126 139.000308 
L 92.136795 136.519077 
L 93.776464 140.713538 
L 95.416134 142.426769 
L 97.055803 145.144308 
L 98.695473 139.591077 
L 100.335142 139.295692 
L 101.974811 142.722154 
L 103.614481 143.312923 
L 105.25415 146.207692 
L 106.89382 140.654462 
L 108.533489 140.831692 
L 110.173159 144.435385 
L 111.812828 139.354769 
L 113.452497 147.093846 
L 115.092167 140.595385 
L 116.731836 147.861846 
L 118.371506 139.827385 
L 120.011175 140.536308 
L 121.650845 143.490154 
L 123.290514 139.000308 
L 124.930183 136.873538 
L 126.569853 140.181846 
L 128.209522 136.696308 
L 129.849192 136.341846 
L 131.488861 133.210769 
L 133.12853 137.287077 
L 134.7682 143.194769 
L 136.407869 145.085231 
L 138.047539 134.864923 
L 139.687208 137.346154 
L 141.326878 137.700615 
L 142.966547 139.413846 
L 144.606216 140.359077 
L 146.245886 138.468615 
L 147.885555 141.186154 
L 149.525225 142.013231 
L 151.164894 140.181846 
L 152.804564 140.772615 
L 154.444233 141.540615 
L 156.083902 142.958462 
L 157.723572 139.768308 
L 159.363241 139.886462 
L 161.002911 141.186154 
L 162.64258 134.746769 
L 164.282249 140.3 
L 165.921919 142.604 
L 167.561588 146.207692 
L 170.840927 141.304308 
L 172.480597 142.072308 
L 174.120266 139.413846 
L 175.759935 143.785538 
L 179.039274 139.768308 
L 180.678944 133.919692 
L 182.318613 141.245231 
L 183.958283 141.717846 
L 185.597952 157.668615 
L 187.237621 140.359077 
L 188.877291 140.3 
L 190.51696 138.468615 
L 192.15663 137.641538 
L 193.796299 140.240923 
L 195.435968 138.291385 
L 197.075638 141.717846 
L 198.715307 132.856308 
L 200.354977 139.650154 
L 201.994646 147.034769 
L 203.634316 141.658769 
L 205.273985 142.190462 
L 206.913654 140.831692 
L 208.553324 138.941231 
L 210.192993 140.477231 
L 211.832663 146.030462 
L 213.472332 137.523385 
L 215.112002 141.836 
L 216.751671 141.186154 
L 218.39134 138.704923 
L 220.03101 142.190462 
L 221.670679 144.435385 
L 223.310349 72.834154 
L 224.950018 162.926462 
L 226.589687 140.359077 
L 228.229357 140.418154 
L 229.869026 153.356 
L 231.508696 254.495692 
L 233.148365 149.634154 
L 234.788035 106.567077 
L 236.427704 40.164615 
L 238.067373 90.734462 
L 239.707043 95.756 
L 241.346712 148.925231 
L 242.986382 142.367692 
L 244.626051 130.256923 
L 246.265721 140.359077 
L 247.90539 140.890769 
L 249.545059 141.245231 
L 251.184729 138.704923 
L 252.824398 146.739385 
L 254.464068 143.726462 
L 256.103737 141.836 
L 257.743407 137.405231 
L 259.383076 137.936923 
L 261.022745 137.877846 
L 262.662415 127.184923 
L 264.302084 135.810154 
L 265.941754 134.924 
L 267.581423 137.050769 
L 269.221092 143.076615 
L 270.860762 143.903692 
L 272.500431 132.324615 
L 274.140101 143.844615 
L 275.77977 136.046462 
L 277.41944 143.608308 
L 279.059109 143.372 
L 280.698778 140.3 
L 282.338448 136.519077 
L 283.978117 139.236615 
L 287.257456 141.540615 
L 288.897126 138.645846 
L 290.536795 136.814462 
L 292.176464 140.595385 
L 293.816134 139.709231 
L 295.455803 142.131385 
L 297.095473 149.279692 
L 298.735142 142.131385 
L 300.374811 141.363385 
L 302.014481 143.962769 
L 303.65415 139.295692 
L 305.29382 147.212 
L 306.933489 139.295692 
L 308.573159 128.071077 
L 310.212828 152.292615 
L 311.852497 142.426769 
L 313.492167 135.810154 
L 315.131836 139.827385 
L 316.771506 137.582462 
L 318.411175 140.122769 
L 320.050845 139.354769 
L 321.690514 141.599692 
L 323.330183 142.544923 
L 324.969853 146.739385 
L 326.609522 144.435385 
L 328.249192 143.785538 
L 329.888861 143.431077 
L 331.52853 144.908 
L 333.1682 141.186154 
L 334.807869 138.882154 
L 336.447539 139.650154 
L 338.087208 138.882154 
L 339.726878 141.776923 
L 341.366547 145.203385 
L 343.006216 121.868 
L 344.645886 141.481538 
L 346.285555 142.485846 
L 347.925225 138.941231 
L 349.564894 140.240923 
L 351.204564 142.426769 
L 352.844233 141.717846 
L 354.483902 143.490154 
L 356.123572 140.772615 
L 357.763241 134.864923 
L 359.402911 139.945538 
L 361.04258 148.570769 
L 362.682249 135.455692 
L 365.961588 143.194769 
L 367.601258 141.836 
L 370.880597 142.367692 
L 370.880597 142.367692 
" style="fill:none;stroke:#bcbd22;stroke-linecap:square;stroke-width:0.5;"/>
   </g>
   <g id="line2d_24">
    <path clip-path="url(#padc62e7fa2)" d="M 64.262415 203.571385 
L 65.902084 163.635385 
L 67.541754 143.135692 
L 69.181423 169.720308 
L 70.821092 144.021846 
L 72.460762 158.141231 
L 74.100431 122.340615 
L 75.740101 137.700615 
L 77.37977 141.481538 
L 79.01944 134.746769 
L 80.659109 140.831692 
L 82.298778 143.726462 
L 83.938448 161.508615 
L 85.578117 205.284615 
L 87.217787 154.183077 
L 88.857456 141.481538 
L 90.497126 106.271692 
L 92.136795 174.092 
L 93.776464 61.018769 
L 95.416134 146.384923 
L 97.055803 138.055077 
L 98.695473 155.364615 
L 100.335142 144.376308 
L 101.974811 154.537538 
L 103.614481 117.732615 
L 105.25415 152.056308 
L 106.89382 155.246462 
L 108.533489 128.071077 
L 110.173159 162.335692 
L 111.812828 132.147385 
L 113.452497 130.729538 
L 115.092167 136.637231 
L 116.731836 132.62 
L 118.371506 141.599692 
L 120.011175 153.296923 
L 121.650845 133.624308 
L 123.290514 176.277846 
L 124.930183 140.536308 
L 126.569853 140.477231 
L 128.209522 128.012 
L 129.849192 140.359077 
L 131.488861 140.359077 
L 133.12853 22.796 
L 134.7682 134.215077 
L 136.407869 22.796 
L 138.047539 140.3 
L 139.687208 161.981231 
L 141.326878 140.418154 
L 142.966547 140.359077 
L 144.606216 139.945538 
L 146.245886 136.46 
L 147.885555 147.920923 
L 149.525225 146.798462 
L 151.164894 140.418154 
L 152.804564 203.098769 
L 154.444233 22.796 
L 156.083902 107.453231 
L 157.723572 136.519077 
L 159.363241 140.477231 
L 161.002911 153.474154 
L 162.64258 171.02 
L 164.282249 131.970154 
L 165.921919 172.437846 
L 167.561588 143.312923 
L 169.201258 140.181846 
L 170.840927 176.927692 
L 172.480597 148.688923 
L 174.120266 89.257538 
L 175.759935 136.578154 
L 177.399605 124.172 
L 179.039274 91.975077 
L 180.678944 140.477231 
L 182.318613 213.319077 
L 183.958283 93.806462 
L 185.597952 74.547385 
L 187.237621 173.737538 
L 188.877291 69.230462 
L 190.51696 264.716 
L 192.15663 176.986769 
L 193.796299 39.514769 
L 195.435968 140.418154 
L 197.075638 139.472923 
L 198.715307 140.418154 
L 200.354977 127.007692 
L 201.994646 22.796 
L 203.634316 139.000308 
L 205.273985 128.366462 
L 206.913654 239.903692 
L 208.553324 115.546769 
L 210.192993 140.536308 
L 211.832663 139.000308 
L 213.472332 73.661231 
L 215.112002 124.349231 
L 216.751671 145.971385 
L 218.39134 129.902462 
L 220.03101 154.714769 
L 221.670679 102.668 
L 223.310349 161.154154 
L 224.950018 138.527692 
L 226.589687 114.247077 
L 228.229357 252.959692 
L 229.869026 66.985538 
L 231.508696 119.918462 
L 233.148365 146.089538 
L 234.788035 104.322154 
L 236.427704 132.797231 
L 238.067373 140.418154 
L 239.707043 114.424308 
L 241.346712 140.772615 
L 242.986382 126.594154 
L 244.626051 145.085231 
L 246.265721 160.031692 
L 247.90539 177.636615 
L 249.545059 129.784308 
L 251.184729 135.455692 
L 252.824398 134.687692 
L 254.464068 77.501231 
L 256.103737 138.586769 
L 257.743407 134.924 
L 259.383076 235.827385 
L 261.022745 94.928923 
L 262.662415 264.716 
L 264.302084 22.796 
L 265.941754 139.532 
L 267.581423 139.945538 
L 269.221092 169.011385 
L 270.860762 146.916615 
L 274.140101 138.468615 
L 275.77977 103.908615 
L 277.41944 159.027385 
L 279.059109 143.253846 
L 280.698778 158.495692 
L 282.338448 140.536308 
L 283.978117 135.751077 
L 285.617787 134.274154 
L 287.257456 178.818154 
L 288.897126 116.019385 
L 290.536795 160.563385 
L 292.176464 190.397231 
L 293.816134 143.135692 
L 295.455803 194.532615 
L 297.095473 138.823077 
L 298.735142 140.477231 
L 300.374811 151.465538 
L 302.014481 133.919692 
L 303.65415 76.851385 
L 305.29382 140.418154 
L 306.933489 129.784308 
L 308.573159 140.477231 
L 310.212828 117.791692 
L 311.852497 140.3 
L 313.492167 179.231692 
L 315.131836 128.543692 
L 316.771506 149.456923 
L 318.411175 97.587385 
L 320.050845 140.418154 
L 321.690514 22.796 
L 323.330183 140.418154 
L 324.969853 140.418154 
L 326.609522 165.348615 
L 328.249192 157.432308 
L 329.888861 140.418154 
L 331.52853 164.876 
L 333.1682 140.359077 
L 334.807869 140.240923 
L 336.447539 22.796 
L 338.087208 140.418154 
L 339.726878 140.418154 
L 341.366547 121.749846 
L 343.006216 140.3 
L 344.645886 157.196 
L 346.285555 137.464308 
L 347.925225 106.744308 
L 349.564894 264.716 
L 351.204564 140.477231 
L 352.844233 203.512308 
L 354.483902 120.568308 
L 356.123572 81.223077 
L 357.763241 137.287077 
L 359.402911 95.106154 
L 361.04258 183.603385 
L 362.682249 143.312923 
L 364.321919 95.992308 
L 365.961588 143.549231 
L 367.601258 122.576923 
L 369.240927 133.860615 
L 370.880597 113.715385 
L 372.520266 212.019385 
L 374.159935 145.085231 
L 375.799605 126.594154 
L 377.439274 132.679077 
L 379.078944 200.794769 
L 380.718613 173.383077 
L 382.358283 92.979385 
L 385.637621 143.312923 
L 387.277291 224.425538 
L 388.91696 22.796 
L 388.91696 22.796 
" style="fill:none;stroke:#17becf;stroke-linecap:square;stroke-width:0.5;"/>
   </g>
   <g id="line2d_25">
    <path clip-path="url(#padc62e7fa2)" d="M 64.262415 148.570769 
L 65.902084 153.296923 
L 67.541754 146.975692 
L 69.181423 143.253846 
L 70.821092 134.451385 
L 72.460762 142.072308 
L 74.100431 137.582462 
L 75.740101 122.931385 
L 77.37977 146.857538 
L 79.01944 150.224923 
L 80.659109 142.544923 
L 82.298778 150.461231 
L 83.938448 143.608308 
L 85.578117 144.258154 
L 87.217787 142.781231 
L 88.857456 126.180615 
L 90.497126 133.033538 
L 92.136795 137.700615 
L 93.776464 128.484615 
L 95.416134 143.194769 
L 97.055803 147.152923 
L 98.695473 144.258154 
L 100.335142 151.701846 
L 101.974811 150.106769 
L 105.25415 138.823077 
L 106.89382 133.801538 
L 108.533489 142.249538 
L 110.173159 140.3 
L 111.812828 123.404 
L 113.452497 135.632923 
L 115.092167 141.245231 
L 116.731836 133.742462 
L 120.011175 154.478462 
L 121.650845 136.637231 
L 123.290514 150.461231 
L 124.930183 150.638462 
L 126.569853 138.527692 
L 128.209522 148.098154 
L 129.849192 144.730769 
L 131.488861 149.988615 
L 133.12853 149.516 
L 134.7682 137.050769 
L 136.407869 137.759692 
L 138.047539 143.076615 
L 139.687208 127.125846 
L 141.326878 134.156 
L 142.966547 129.193538 
L 144.606216 130.020615 
L 146.245886 145.085231 
L 147.885555 148.275385 
L 149.525225 147.212 
L 151.164894 148.275385 
L 152.804564 148.098154 
L 154.444233 144.258154 
L 156.083902 141.422462 
L 157.723572 129.429846 
L 159.363241 135.101231 
L 161.002911 135.987385 
L 162.64258 124.290154 
L 164.282249 135.101231 
L 165.921919 138.409538 
L 167.561588 135.928308 
L 169.201258 142.781231 
L 170.840927 141.422462 
L 172.480597 153.887692 
L 174.120266 148.984308 
L 175.759935 147.093846 
L 177.399605 146.798462 
L 179.039274 142.485846 
L 180.678944 144.199077 
L 182.318613 141.776923 
L 183.958283 131.615692 
L 187.237621 138.704923 
L 188.877291 122.576923 
L 190.51696 132.915385 
L 192.15663 133.742462 
L 193.796299 132.738154 
L 195.435968 141.599692 
L 197.075638 144.848923 
L 198.715307 142.604 
L 200.354977 147.271077 
L 201.994646 148.866154 
L 203.634316 151.760923 
L 205.273985 148.807077 
L 206.913654 135.573846 
L 208.553324 141.127077 
L 210.192993 140.772615 
L 211.832663 128.839077 
L 213.472332 133.683385 
L 215.112002 134.274154 
L 216.751671 128.484615 
L 218.39134 140.713538 
L 220.03101 143.253846 
L 221.670679 142.249538 
L 223.310349 151.82 
L 224.950018 144.908 
L 226.589687 144.553538 
L 228.229357 142.308615 
L 229.869026 118.973231 
L 231.508696 133.092615 
L 233.148365 135.928308 
L 234.788035 128.248308 
L 236.427704 136.991692 
L 238.067373 138.764 
L 239.707043 142.958462 
L 241.346712 152.647077 
L 242.986382 146.739385 
L 244.626051 144.730769 
L 246.265721 144.080923 
L 247.90539 133.269846 
L 249.545059 137.464308 
L 251.184729 133.269846 
L 252.824398 125.294462 
L 254.464068 140.595385 
L 256.103737 148.925231 
L 257.743407 142.013231 
L 259.383076 152.765231 
L 261.022745 144.494462 
L 262.662415 143.253846 
L 264.302084 144.021846 
L 265.941754 125.412615 
L 267.581423 138.704923 
L 269.221092 136.696308 
L 270.860762 132.383692 
L 272.500431 142.072308 
L 274.140101 142.367692 
L 275.77977 145.735077 
L 277.41944 154.596615 
L 279.059109 146.916615 
L 280.698778 141.304308 
L 282.338448 131.261231 
L 283.978117 140.477231 
L 285.617787 125.648923 
L 287.257456 139.827385 
L 288.897126 145.676 
L 290.536795 145.912308 
L 292.176464 152.351692 
L 293.816134 144.908 
L 295.455803 148.748 
L 297.095473 146.739385 
L 298.735142 138.350462 
L 300.374811 139.295692 
L 302.014481 138.882154 
L 303.65415 131.379385 
L 305.29382 134.864923 
L 306.933489 131.084 
L 308.573159 128.189231 
L 310.212828 139.945538 
L 311.852497 144.730769 
L 313.492167 142.604 
L 315.131836 147.743692 
L 316.771506 145.735077 
L 318.411175 150.461231 
L 321.690514 135.042154 
L 323.330183 139.886462 
L 324.969853 137.759692 
L 326.609522 124.349231 
L 328.249192 134.746769 
L 329.888861 140.122769 
L 331.52853 138.704923 
L 333.1682 141.304308 
L 334.807869 143.372 
L 336.447539 148.098154 
L 338.087208 149.811385 
L 339.726878 145.321538 
L 341.366547 142.663077 
L 343.006216 141.599692 
L 344.645886 134.628615 
L 346.285555 137.109846 
L 347.925225 135.160308 
L 349.564894 122.517846 
L 351.204564 137.405231 
L 352.844233 138.232308 
L 354.483902 129.311692 
L 356.123572 139.650154 
L 359.402911 145.498769 
L 361.04258 151.82 
L 362.682249 148.275385 
L 364.321919 147.152923 
L 365.961588 145.735077 
L 367.601258 136.696308 
L 369.240927 140.240923 
L 370.880597 131.615692 
L 372.520266 127.184923 
L 374.159935 137.759692 
L 375.799605 142.072308 
L 377.439274 137.996 
L 379.078944 147.684615 
L 380.718613 147.330154 
L 382.358283 142.426769 
L 383.997952 138.232308 
L 383.997952 138.232308 
" style="fill:none;stroke:#1f77b4;stroke-linecap:square;stroke-width:0.5;"/>
   </g>
   <g id="line2d_26">
    <path clip-path="url(#padc62e7fa2)" d="M 64.262415 140.831692 
L 65.902084 140.890769 
L 67.541754 142.722154 
L 69.181423 139.295692 
L 70.821092 139.413846 
L 72.460762 131.852 
L 74.100431 142.131385 
L 75.740101 139.591077 
L 77.37977 136.164615 
L 79.01944 138.882154 
L 80.659109 147.920923 
L 82.298778 137.287077 
L 83.938448 137.582462 
L 85.578117 141.481538 
L 87.217787 141.186154 
L 88.857456 144.435385 
L 90.497126 140.713538 
L 92.136795 143.844615 
L 93.776464 138.645846 
L 95.416134 143.726462 
L 97.055803 138.882154 
L 98.695473 144.317231 
L 100.335142 137.582462 
L 101.974811 142.072308 
L 103.614481 138.645846 
L 105.25415 143.076615 
L 106.89382 141.186154 
L 108.533489 143.785538 
L 110.173159 139.236615 
L 111.812828 138.764 
L 113.452497 143.372 
L 115.092167 141.836 
L 116.731836 143.194769 
L 118.371506 143.135692 
L 120.011175 136.696308 
L 121.650845 134.687692 
L 123.290514 178.109231 
L 124.930183 142.426769 
L 126.569853 143.726462 
L 128.209522 139.413846 
L 129.849192 138.941231 
L 131.488861 140.713538 
L 133.12853 143.431077 
L 134.7682 139.709231 
L 136.407869 143.312923 
L 138.047539 130.788615 
L 139.687208 139.295692 
L 141.326878 137.936923 
L 142.966547 136.164615 
L 144.606216 137.582462 
L 146.245886 137.700615 
L 147.885555 141.127077 
L 149.525225 133.919692 
L 151.164894 142.663077 
L 152.804564 140.3 
L 154.444233 148.807077 
L 156.083902 138.823077 
L 157.723572 133.624308 
L 159.363241 144.317231 
L 161.002911 135.160308 
L 162.64258 140.3 
L 164.282249 143.431077 
L 165.921919 144.848923 
L 167.561588 142.367692 
L 169.201258 139.295692 
L 170.840927 140.477231 
L 172.480597 137.759692 
L 174.120266 140.359077 
L 175.759935 134.746769 
L 177.399605 145.439692 
L 179.039274 138.586769 
L 180.678944 135.514769 
L 182.318613 139.236615 
L 183.958283 142.426769 
L 185.597952 146.207692 
L 187.237621 140.3 
L 188.877291 140.654462 
L 190.51696 140.477231 
L 192.15663 131.733846 
L 193.796299 143.726462 
L 195.435968 137.700615 
L 197.075638 138.764 
L 198.715307 138.882154 
L 200.354977 141.068 
L 201.994646 137.346154 
L 203.634316 143.017538 
L 205.273985 137.700615 
L 206.913654 159.618154 
L 208.553324 139.000308 
L 210.192993 142.485846 
L 211.832663 134.510462 
L 213.472332 139.236615 
L 215.112002 141.599692 
L 216.751671 139.000308 
L 218.39134 142.544923 
L 220.03101 138.704923 
L 221.670679 140.654462 
L 223.310349 139.236615 
L 224.950018 140.181846 
L 226.589687 139.650154 
L 228.229357 141.717846 
L 229.869026 138.882154 
L 231.508696 142.367692 
L 233.148365 139.295692 
L 234.788035 159.263692 
L 236.427704 157.314154 
L 238.067373 138.527692 
L 239.707043 150.520308 
L 241.346712 137.996 
L 242.986382 142.663077 
L 244.626051 132.915385 
L 246.265721 138.823077 
L 247.90539 142.604 
L 249.545059 142.013231 
L 251.184729 138.704923 
L 252.824398 140.713538 
L 254.464068 139.177538 
L 256.103737 141.836 
L 257.743407 140.477231 
L 259.383076 142.190462 
L 261.022745 140.359077 
L 262.662415 143.312923 
L 264.302084 138.882154 
L 265.941754 141.481538 
L 267.581423 137.700615 
L 269.221092 141.245231 
L 270.860762 135.869231 
L 272.500431 139.532 
L 274.140101 141.599692 
L 275.77977 138.055077 
L 277.41944 141.186154 
L 279.059109 138.527692 
L 280.698778 143.372 
L 282.338448 140.772615 
L 283.978117 137.464308 
L 285.617787 139.354769 
L 287.257456 139.768308 
L 288.897126 135.928308 
L 290.536795 139.768308 
L 292.176464 137.523385 
L 293.816134 141.599692 
L 295.455803 138.291385 
L 297.095473 140.359077 
L 298.735142 139.532 
L 300.374811 142.131385 
L 302.014481 140.831692 
L 303.65415 138.645846 
L 305.29382 135.632923 
L 306.933489 140.3 
L 308.573159 138.291385 
L 310.212828 138.350462 
L 311.852497 141.127077 
L 313.492167 138.764 
L 315.131836 144.258154 
L 316.771506 139.886462 
L 318.411175 147.566462 
L 320.050845 142.190462 
L 321.690514 140.359077 
L 323.330183 140.122769 
L 324.969853 138.645846 
L 326.609522 141.127077 
L 328.249192 138.882154 
L 329.888861 141.127077 
L 331.52853 139.827385 
L 333.1682 142.249538 
L 334.807869 138.882154 
L 336.447539 145.203385 
L 338.087208 137.700615 
L 339.726878 137.523385 
L 341.366547 136.755385 
L 343.006216 134.983077 
L 344.645886 140.890769 
L 346.285555 137.523385 
L 347.925225 139.295692 
L 349.564894 139.827385 
L 351.204564 143.372 
L 352.844233 133.624308 
L 354.483902 141.127077 
L 356.123572 137.641538 
L 357.763241 141.363385 
L 359.402911 139.413846 
L 361.04258 140.831692 
L 362.682249 139.827385 
L 364.321919 137.936923 
L 365.961588 139.413846 
L 367.601258 139.295692 
L 369.240927 138.645846 
L 370.880597 133.978769 
L 372.520266 146.621231 
L 374.159935 140.713538 
L 375.799605 142.426769 
L 377.439274 142.958462 
L 379.078944 139.295692 
L 379.078944 139.295692 
" style="fill:none;stroke:#ff7f0e;stroke-linecap:square;stroke-width:0.5;"/>
   </g>
   <g id="line2d_27">
    <path clip-path="url(#padc62e7fa2)" d="M 64.262415 141.127077 
L 65.902084 141.481538 
L 67.541754 141.068 
L 69.181423 139.945538 
L 70.821092 139.591077 
L 72.460762 139.413846 
L 74.100431 141.540615 
L 75.740101 140.122769 
L 77.37977 139.886462 
L 79.01944 137.346154 
L 80.659109 140.772615 
L 82.298778 141.599692 
L 83.938448 148.570769 
L 85.578117 140.772615 
L 87.217787 142.190462 
L 88.857456 139.768308 
L 90.497126 143.490154 
L 92.136795 140.595385 
L 93.776464 143.372 
L 95.416134 141.245231 
L 97.055803 141.836 
L 98.695473 136.932615 
L 100.335142 143.194769 
L 101.974811 139.354769 
L 103.614481 139.413846 
L 105.25415 140.890769 
L 106.89382 139.236615 
L 108.533489 142.426769 
L 110.173159 137.936923 
L 111.812828 140.890769 
L 113.452497 141.127077 
L 115.092167 142.131385 
L 116.731836 138.823077 
L 118.371506 143.431077 
L 120.011175 142.308615 
L 121.650845 138.941231 
L 123.290514 143.962769 
L 124.930183 141.304308 
L 126.569853 135.987385 
L 128.209522 141.068 
L 129.849192 140.477231 
L 131.488861 136.755385 
L 133.12853 138.468615 
L 134.7682 139.000308 
L 136.407869 139.650154 
L 138.047539 140.772615 
L 139.687208 138.468615 
L 141.326878 142.367692 
L 142.966547 139.354769 
L 144.606216 140.3 
L 146.245886 138.764 
L 147.885555 136.814462 
L 149.525225 142.367692 
L 151.164894 139.709231 
L 152.804564 140.595385 
L 154.444233 139.768308 
L 156.083902 153.946769 
L 157.723572 142.190462 
L 159.363241 138.645846 
L 161.002911 138.645846 
L 162.64258 140.772615 
L 164.282249 139.768308 
L 165.921919 139.886462 
L 167.561588 139.650154 
L 169.201258 137.523385 
L 170.840927 142.958462 
L 172.480597 138.468615 
L 174.120266 143.726462 
L 175.759935 138.527692 
L 177.399605 141.127077 
L 179.039274 140.890769 
L 180.678944 138.823077 
L 182.318613 140.890769 
L 183.958283 143.667385 
L 185.597952 139.827385 
L 187.237621 140.595385 
L 188.877291 139.709231 
L 190.51696 137.936923 
L 192.15663 141.127077 
L 193.796299 140.713538 
L 195.435968 141.776923 
L 197.075638 142.072308 
L 198.715307 141.776923 
L 200.354977 138.527692 
L 201.994646 140.122769 
L 203.634316 139.709231 
L 205.273985 143.076615 
L 206.913654 140.418154 
L 208.553324 142.663077 
L 210.192993 138.645846 
L 211.832663 141.540615 
L 213.472332 137.405231 
L 215.112002 139.354769 
L 216.751671 140.418154 
L 218.39134 138.468615 
L 220.03101 138.586769 
L 221.670679 138.823077 
L 223.310349 140.595385 
L 224.950018 135.987385 
L 226.589687 141.422462 
L 228.229357 135.573846 
L 229.869026 140.418154 
L 231.508696 140.418154 
L 233.148365 137.050769 
L 234.788035 142.367692 
L 236.427704 141.245231 
L 238.067373 140.831692 
L 239.707043 140.890769 
L 241.346712 140.477231 
L 242.986382 137.523385 
L 244.626051 138.527692 
L 246.265721 140.595385 
L 247.90539 139.236615 
L 249.545059 139.886462 
L 251.184729 139.236615 
L 252.824398 140.595385 
L 254.464068 141.776923 
L 256.103737 137.641538 
L 257.743407 139.532 
L 259.383076 141.599692 
L 261.022745 141.304308 
L 262.662415 143.017538 
L 264.302084 135.455692 
L 265.941754 139.650154 
L 267.581423 138.823077 
L 269.221092 138.882154 
L 270.860762 141.836 
L 272.500431 139.945538 
L 274.140101 136.637231 
L 275.77977 142.013231 
L 277.41944 139.236615 
L 279.059109 139.472923 
L 280.698778 139.886462 
L 282.338448 139.295692 
L 283.978117 140.3 
L 285.617787 137.582462 
L 287.257456 143.076615 
L 288.897126 134.037846 
L 290.536795 137.996 
L 292.176464 141.127077 
L 293.816134 139.413846 
L 295.455803 139.827385 
L 297.095473 135.987385 
L 298.735142 138.645846 
L 300.374811 143.549231 
L 302.014481 141.836 
L 303.65415 140.654462 
L 305.29382 137.523385 
L 306.933489 140.831692 
L 308.573159 138.409538 
L 310.212828 140.713538 
L 311.852497 137.700615 
L 313.492167 141.363385 
L 315.131836 137.759692 
L 316.771506 140.595385 
L 318.411175 141.068 
L 320.050845 142.249538 
L 321.690514 143.726462 
L 323.330183 143.962769 
L 324.969853 137.759692 
L 326.609522 142.190462 
L 328.249192 138.704923 
L 329.888861 132.560923 
L 331.52853 138.232308 
L 333.1682 140.122769 
L 334.807869 140.359077 
L 336.447539 139.000308 
L 338.087208 141.836 
L 339.726878 140.359077 
L 341.366547 136.991692 
L 343.006216 140.595385 
L 344.645886 141.776923 
L 346.285555 141.186154 
L 347.925225 138.764 
L 349.564894 141.540615 
L 351.204564 140.536308 
L 352.844233 134.569538 
L 354.483902 143.253846 
L 356.123572 141.127077 
L 357.763241 139.886462 
L 359.402911 137.996 
L 361.04258 137.050769 
L 362.682249 137.641538 
L 364.321919 141.304308 
L 365.961588 136.873538 
L 367.601258 138.882154 
L 369.240927 138.350462 
L 370.880597 138.764 
L 372.520266 139.709231 
L 374.159935 141.717846 
L 375.799605 140.418154 
L 377.439274 140.240923 
L 379.078944 139.591077 
L 380.718613 142.072308 
L 382.358283 140.477231 
L 383.997952 136.814462 
L 385.637621 140.477231 
L 387.277291 142.013231 
L 388.91696 139.413846 
L 388.91696 139.413846 
" style="fill:none;stroke:#2ca02c;stroke-linecap:square;stroke-width:0.5;"/>
   </g>
   <g id="patch_3">
    <path d="M 48.029688 276.812 
L 48.029688 10.7 
" style="fill:none;stroke:#000000;stroke-linecap:square;stroke-linejoin:miter;stroke-width:0.8;"/>
   </g>
   <g id="patch_4">
    <path d="M 405.149688 276.812 
L 405.149688 10.7 
" style="fill:none;stroke:#000000;stroke-linecap:square;stroke-linejoin:miter;stroke-width:0.8;"/>
   </g>
   <g id="patch_5">
    <path d="M 48.029688 276.812 
L 405.149688 276.812 
" style="fill:none;stroke:#000000;stroke-linecap:square;stroke-linejoin:miter;stroke-width:0.8;"/>
   </g>
   <g id="patch_6">
    <path d="M 48.029688 10.7 
L 405.149688 10.7 
" style="fill:none;stroke:#000000;stroke-linecap:square;stroke-linejoin:miter;stroke-width:0.8;"/>
   </g>
  </g>
 </g>
 <defs>
  <clipPath id="padc62e7fa2">
   <rect height="266.112" width="357.12" x="48.029688" y="10.7"/>
  </clipPath>
 </defs>
</svg>
