<?xml version="1.0" encoding="utf-8" standalone="no"?>
<!DOCTYPE svg PUBLIC "-//W3C//DTD SVG 1.1//EN"
  "http://www.w3.org/Graphics/SVG/1.1/DTD/svg11.dtd">
<!-- Created with matplotlib (http://matplotlib.org/) -->
<svg height="300pt" version="1.1" viewBox="0 0 426 300" width="426pt" xmlns="http://www.w3.org/2000/svg" xmlns:xlink="http://www.w3.org/1999/xlink">
 <defs>
  <style type="text/css">
*{stroke-linecap:butt;stroke-linejoin:round;}
  </style>
 </defs>
 <g id="figure_1">
  <g id="patch_1">
   <path d="M 0 300.690125 
L 426.5575 300.690125 
L 426.5575 0 
L 0 0 
z
" style="fill:#ffffff;"/>
  </g>
  <g id="axes_1">
   <g id="patch_2">
    <path d="M 58.7375 276.812 
L 415.8575 276.812 
L 415.8575 10.7 
L 58.7375 10.7 
z
" style="fill:#ffffff;"/>
   </g>
   <g id="matplotlib.axis_1">
    <g id="xtick_1">
     <g id="line2d_1">
      <defs>
       <path d="M 0 0 
L 0 3.5 
" id="m1b409207cf" style="stroke:#000000;stroke-width:0.8;"/>
      </defs>
      <g>
       <use style="stroke:#000000;stroke-width:0.8;" x="74.970227" xlink:href="#m1b409207cf" y="276.812"/>
      </g>
     </g>
     <g id="text_1">
      <!-- 0 -->
      <defs>
       <path d="M 31.78125 66.40625 
Q 24.171875 66.40625 20.328125 58.90625 
Q 16.5 51.421875 16.5 36.375 
Q 16.5 21.390625 20.328125 13.890625 
Q 24.171875 6.390625 31.78125 6.390625 
Q 39.453125 6.390625 43.28125 13.890625 
Q 47.125 21.390625 47.125 36.375 
Q 47.125 51.421875 43.28125 58.90625 
Q 39.453125 66.40625 31.78125 66.40625 
z
M 31.78125 74.21875 
Q 44.046875 74.21875 50.515625 64.515625 
Q 56.984375 54.828125 56.984375 36.375 
Q 56.984375 17.96875 50.515625 8.265625 
Q 44.046875 -1.421875 31.78125 -1.421875 
Q 19.53125 -1.421875 13.0625 8.265625 
Q 6.59375 17.96875 6.59375 36.375 
Q 6.59375 54.828125 13.0625 64.515625 
Q 19.53125 74.21875 31.78125 74.21875 
z
" id="DejaVuSans-30"/>
      </defs>
      <g transform="translate(71.788977 291.410437)scale(0.1 -0.1)">
       <use xlink:href="#DejaVuSans-30"/>
      </g>
     </g>
    </g>
    <g id="xtick_2">
     <g id="line2d_2">
      <g>
       <use style="stroke:#000000;stroke-width:0.8;" x="115.961963" xlink:href="#m1b409207cf" y="276.812"/>
      </g>
     </g>
     <g id="text_2">
      <!-- 25 -->
      <defs>
       <path d="M 19.1875 8.296875 
L 53.609375 8.296875 
L 53.609375 0 
L 7.328125 0 
L 7.328125 8.296875 
Q 12.9375 14.109375 22.625 23.890625 
Q 32.328125 33.6875 34.8125 36.53125 
Q 39.546875 41.84375 41.421875 45.53125 
Q 43.3125 49.21875 43.3125 52.78125 
Q 43.3125 58.59375 39.234375 62.25 
Q 35.15625 65.921875 28.609375 65.921875 
Q 23.96875 65.921875 18.8125 64.3125 
Q 13.671875 62.703125 7.8125 59.421875 
L 7.8125 69.390625 
Q 13.765625 71.78125 18.9375 73 
Q 24.125 74.21875 28.421875 74.21875 
Q 39.75 74.21875 46.484375 68.546875 
Q 53.21875 62.890625 53.21875 53.421875 
Q 53.21875 48.921875 51.53125 44.890625 
Q 49.859375 40.875 45.40625 35.40625 
Q 44.1875 33.984375 37.640625 27.21875 
Q 31.109375 20.453125 19.1875 8.296875 
z
" id="DejaVuSans-32"/>
       <path d="M 10.796875 72.90625 
L 49.515625 72.90625 
L 49.515625 64.59375 
L 19.828125 64.59375 
L 19.828125 46.734375 
Q 21.96875 47.46875 24.109375 47.828125 
Q 26.265625 48.1875 28.421875 48.1875 
Q 40.625 48.1875 47.75 41.5 
Q 54.890625 34.8125 54.890625 23.390625 
Q 54.890625 11.625 47.5625 5.09375 
Q 40.234375 -1.421875 26.90625 -1.421875 
Q 22.3125 -1.421875 17.546875 -0.640625 
Q 12.796875 0.140625 7.71875 1.703125 
L 7.71875 11.625 
Q 12.109375 9.234375 16.796875 8.0625 
Q 21.484375 6.890625 26.703125 6.890625 
Q 35.15625 6.890625 40.078125 11.328125 
Q 45.015625 15.765625 45.015625 23.390625 
Q 45.015625 31 40.078125 35.4375 
Q 35.15625 39.890625 26.703125 39.890625 
Q 22.75 39.890625 18.8125 39.015625 
Q 14.890625 38.140625 10.796875 36.28125 
z
" id="DejaVuSans-35"/>
      </defs>
      <g transform="translate(109.599463 291.410437)scale(0.1 -0.1)">
       <use xlink:href="#DejaVuSans-32"/>
       <use x="63.623047" xlink:href="#DejaVuSans-35"/>
      </g>
     </g>
    </g>
    <g id="xtick_3">
     <g id="line2d_3">
      <g>
       <use style="stroke:#000000;stroke-width:0.8;" x="156.953698" xlink:href="#m1b409207cf" y="276.812"/>
      </g>
     </g>
     <g id="text_3">
      <!-- 50 -->
      <g transform="translate(150.591198 291.410437)scale(0.1 -0.1)">
       <use xlink:href="#DejaVuSans-35"/>
       <use x="63.623047" xlink:href="#DejaVuSans-30"/>
      </g>
     </g>
    </g>
    <g id="xtick_4">
     <g id="line2d_4">
      <g>
       <use style="stroke:#000000;stroke-width:0.8;" x="197.945434" xlink:href="#m1b409207cf" y="276.812"/>
      </g>
     </g>
     <g id="text_4">
      <!-- 75 -->
      <defs>
       <path d="M 8.203125 72.90625 
L 55.078125 72.90625 
L 55.078125 68.703125 
L 28.609375 0 
L 18.3125 0 
L 43.21875 64.59375 
L 8.203125 64.59375 
z
" id="DejaVuSans-37"/>
      </defs>
      <g transform="translate(191.582934 291.410437)scale(0.1 -0.1)">
       <use xlink:href="#DejaVuSans-37"/>
       <use x="63.623047" xlink:href="#DejaVuSans-35"/>
      </g>
     </g>
    </g>
    <g id="xtick_5">
     <g id="line2d_5">
      <g>
       <use style="stroke:#000000;stroke-width:0.8;" x="238.937169" xlink:href="#m1b409207cf" y="276.812"/>
      </g>
     </g>
     <g id="text_5">
      <!-- 100 -->
      <defs>
       <path d="M 12.40625 8.296875 
L 28.515625 8.296875 
L 28.515625 63.921875 
L 10.984375 60.40625 
L 10.984375 69.390625 
L 28.421875 72.90625 
L 38.28125 72.90625 
L 38.28125 8.296875 
L 54.390625 8.296875 
L 54.390625 0 
L 12.40625 0 
z
" id="DejaVuSans-31"/>
      </defs>
      <g transform="translate(229.393419 291.410437)scale(0.1 -0.1)">
       <use xlink:href="#DejaVuSans-31"/>
       <use x="63.623047" xlink:href="#DejaVuSans-30"/>
       <use x="127.246094" xlink:href="#DejaVuSans-30"/>
      </g>
     </g>
    </g>
    <g id="xtick_6">
     <g id="line2d_6">
      <g>
       <use style="stroke:#000000;stroke-width:0.8;" x="279.928905" xlink:href="#m1b409207cf" y="276.812"/>
      </g>
     </g>
     <g id="text_6">
      <!-- 125 -->
      <g transform="translate(270.385155 291.410437)scale(0.1 -0.1)">
       <use xlink:href="#DejaVuSans-31"/>
       <use x="63.623047" xlink:href="#DejaVuSans-32"/>
       <use x="127.246094" xlink:href="#DejaVuSans-35"/>
      </g>
     </g>
    </g>
    <g id="xtick_7">
     <g id="line2d_7">
      <g>
       <use style="stroke:#000000;stroke-width:0.8;" x="320.92064" xlink:href="#m1b409207cf" y="276.812"/>
      </g>
     </g>
     <g id="text_7">
      <!-- 150 -->
      <g transform="translate(311.37689 291.410437)scale(0.1 -0.1)">
       <use xlink:href="#DejaVuSans-31"/>
       <use x="63.623047" xlink:href="#DejaVuSans-35"/>
       <use x="127.246094" xlink:href="#DejaVuSans-30"/>
      </g>
     </g>
    </g>
    <g id="xtick_8">
     <g id="line2d_8">
      <g>
       <use style="stroke:#000000;stroke-width:0.8;" x="361.912376" xlink:href="#m1b409207cf" y="276.812"/>
      </g>
     </g>
     <g id="text_8">
      <!-- 175 -->
      <g transform="translate(352.368626 291.410437)scale(0.1 -0.1)">
       <use xlink:href="#DejaVuSans-31"/>
       <use x="63.623047" xlink:href="#DejaVuSans-37"/>
       <use x="127.246094" xlink:href="#DejaVuSans-35"/>
      </g>
     </g>
    </g>
    <g id="xtick_9">
     <g id="line2d_9">
      <g>
       <use style="stroke:#000000;stroke-width:0.8;" x="402.904112" xlink:href="#m1b409207cf" y="276.812"/>
      </g>
     </g>
     <g id="text_9">
      <!-- 200 -->
      <g transform="translate(393.360362 291.410437)scale(0.1 -0.1)">
       <use xlink:href="#DejaVuSans-32"/>
       <use x="63.623047" xlink:href="#DejaVuSans-30"/>
       <use x="127.246094" xlink:href="#DejaVuSans-30"/>
      </g>
     </g>
    </g>
   </g>
   <g id="matplotlib.axis_2">
    <g id="ytick_1">
     <g id="line2d_10">
      <defs>
       <path d="M 0 0 
L -3.5 0 
" id="m99e28b2673" style="stroke:#000000;stroke-width:0.8;"/>
      </defs>
      <g>
       <use style="stroke:#000000;stroke-width:0.8;" x="58.7375" xlink:href="#m99e28b2673" y="264.716"/>
      </g>
     </g>
     <g id="text_10">
      <!-- 0 -->
      <g transform="translate(45.375 268.515219)scale(0.1 -0.1)">
       <use xlink:href="#DejaVuSans-30"/>
      </g>
     </g>
    </g>
    <g id="ytick_2">
     <g id="line2d_11">
      <g>
       <use style="stroke:#000000;stroke-width:0.8;" x="58.7375" xlink:href="#m99e28b2673" y="220.198734"/>
      </g>
     </g>
     <g id="text_11">
      <!-- 500000 -->
      <g transform="translate(13.5625 223.997953)scale(0.1 -0.1)">
       <use xlink:href="#DejaVuSans-35"/>
       <use x="63.623047" xlink:href="#DejaVuSans-30"/>
       <use x="127.246094" xlink:href="#DejaVuSans-30"/>
       <use x="190.869141" xlink:href="#DejaVuSans-30"/>
       <use x="254.492188" xlink:href="#DejaVuSans-30"/>
       <use x="318.115234" xlink:href="#DejaVuSans-30"/>
      </g>
     </g>
    </g>
    <g id="ytick_3">
     <g id="line2d_12">
      <g>
       <use style="stroke:#000000;stroke-width:0.8;" x="58.7375" xlink:href="#m99e28b2673" y="175.681468"/>
      </g>
     </g>
     <g id="text_12">
      <!-- 1000000 -->
      <g transform="translate(7.2 179.480687)scale(0.1 -0.1)">
       <use xlink:href="#DejaVuSans-31"/>
       <use x="63.623047" xlink:href="#DejaVuSans-30"/>
       <use x="127.246094" xlink:href="#DejaVuSans-30"/>
       <use x="190.869141" xlink:href="#DejaVuSans-30"/>
       <use x="254.492188" xlink:href="#DejaVuSans-30"/>
       <use x="318.115234" xlink:href="#DejaVuSans-30"/>
       <use x="381.738281" xlink:href="#DejaVuSans-30"/>
      </g>
     </g>
    </g>
    <g id="ytick_4">
     <g id="line2d_13">
      <g>
       <use style="stroke:#000000;stroke-width:0.8;" x="58.7375" xlink:href="#m99e28b2673" y="131.164202"/>
      </g>
     </g>
     <g id="text_13">
      <!-- 1500000 -->
      <g transform="translate(7.2 134.963421)scale(0.1 -0.1)">
       <use xlink:href="#DejaVuSans-31"/>
       <use x="63.623047" xlink:href="#DejaVuSans-35"/>
       <use x="127.246094" xlink:href="#DejaVuSans-30"/>
       <use x="190.869141" xlink:href="#DejaVuSans-30"/>
       <use x="254.492188" xlink:href="#DejaVuSans-30"/>
       <use x="318.115234" xlink:href="#DejaVuSans-30"/>
       <use x="381.738281" xlink:href="#DejaVuSans-30"/>
      </g>
     </g>
    </g>
    <g id="ytick_5">
     <g id="line2d_14">
      <g>
       <use style="stroke:#000000;stroke-width:0.8;" x="58.7375" xlink:href="#m99e28b2673" y="86.646936"/>
      </g>
     </g>
     <g id="text_14">
      <!-- 2000000 -->
      <g transform="translate(7.2 90.446155)scale(0.1 -0.1)">
       <use xlink:href="#DejaVuSans-32"/>
       <use x="63.623047" xlink:href="#DejaVuSans-30"/>
       <use x="127.246094" xlink:href="#DejaVuSans-30"/>
       <use x="190.869141" xlink:href="#DejaVuSans-30"/>
       <use x="254.492188" xlink:href="#DejaVuSans-30"/>
       <use x="318.115234" xlink:href="#DejaVuSans-30"/>
       <use x="381.738281" xlink:href="#DejaVuSans-30"/>
      </g>
     </g>
    </g>
    <g id="ytick_6">
     <g id="line2d_15">
      <g>
       <use style="stroke:#000000;stroke-width:0.8;" x="58.7375" xlink:href="#m99e28b2673" y="42.129671"/>
      </g>
     </g>
     <g id="text_15">
      <!-- 2500000 -->
      <g transform="translate(7.2 45.928889)scale(0.1 -0.1)">
       <use xlink:href="#DejaVuSans-32"/>
       <use x="63.623047" xlink:href="#DejaVuSans-35"/>
       <use x="127.246094" xlink:href="#DejaVuSans-30"/>
       <use x="190.869141" xlink:href="#DejaVuSans-30"/>
       <use x="254.492188" xlink:href="#DejaVuSans-30"/>
       <use x="318.115234" xlink:href="#DejaVuSans-30"/>
       <use x="381.738281" xlink:href="#DejaVuSans-30"/>
      </g>
     </g>
    </g>
   </g>
   <g id="line2d_16">
    <path clip-path="url(#pcbad3539e3)" d="M 74.970227 260.175506 
L 76.609897 250.763666 
L 78.249566 254.382385 
L 79.889236 252.877969 
L 81.528905 253.032889 
L 83.168574 227.64861 
L 84.808244 264.365293 
L 86.447913 259.220344 
L 88.087583 258.107857 
L 89.727252 263.419746 
L 91.366921 262.449448 
L 93.006591 261.979969 
L 94.64626 260.54313 
L 96.28593 263.581344 
L 97.925599 253.76039 
L 99.565269 257.247783 
L 101.204938 261.012163 
L 102.844607 260.991151 
L 104.484277 249.225327 
L 106.123946 210.496819 
L 107.763616 263.503795 
L 109.403285 247.905835 
L 111.042955 241.977026 
L 112.682624 252.370116 
L 114.322293 259.11831 
L 115.961963 194.744741 
L 117.601632 260.551143 
L 119.241302 260.267657 
L 120.880971 262.370296 
L 122.52064 250.735976 
L 124.16031 243.588017 
L 125.799979 257.50999 
L 127.439649 260.399606 
L 129.079318 245.582924 
L 130.718988 258.455537 
L 132.358657 260.066528 
L 133.998326 258.882725 
L 135.637996 258.944782 
L 137.277665 263.015708 
L 138.917335 260.037948 
L 140.557004 261.133696 
L 142.196674 258.726202 
L 143.836343 264.201291 
L 145.476012 263.139644 
L 147.115682 260.589338 
L 148.755351 256.572278 
L 150.395021 253.317977 
L 152.03469 257.716283 
L 153.67436 260.562539 
L 155.314029 264.279375 
L 156.953698 261.722125 
L 158.593368 254.475693 
L 160.233037 260.535205 
L 161.872707 261.091493 
L 163.512376 259.540423 
L 165.152045 260.863743 
L 166.791715 261.970442 
L 168.431384 261.8222 
L 170.071054 262.954185 
L 171.710723 260.691372 
L 173.350393 257.257933 
L 174.990062 261.045373 
L 176.629731 257.808256 
L 178.269401 261.679833 
L 179.90907 264.130687 
L 181.54874 262.157148 
L 183.188409 262.616655 
L 184.828079 261.279356 
L 186.467748 264.049131 
L 188.107417 259.485577 
L 189.747087 249.06551 
L 191.386756 255.386249 
L 193.026426 264.139769 
L 194.666095 262.204603 
L 196.305764 262.193296 
L 197.945434 259.904307 
L 199.585103 261.660602 
L 201.224773 258.895546 
L 202.864442 260.691105 
L 204.504112 262.297377 
L 206.143781 258.344867 
L 207.78345 259.322644 
L 209.42312 263.983246 
L 211.062789 263.194044 
L 212.702459 261.837336 
L 214.342128 263.82334 
L 215.981798 255.026728 
L 217.621467 234.167985 
L 219.261136 259.738079 
L 220.900806 235.528611 
L 222.540475 241.085612 
L 224.180145 262.880464 
L 225.819814 238.261081 
L 227.459483 259.616725 
L 229.099153 263.876582 
L 230.738822 261.721858 
L 232.378492 237.343135 
L 234.018161 253.199116 
L 235.657831 254.032568 
L 237.2975 263.573509 
L 238.937169 260.831601 
L 240.576839 262.135957 
L 242.216508 260.345562 
L 243.856178 262.13667 
L 245.495847 257.660102 
L 247.135517 260.984207 
L 248.775186 262.336819 
L 250.414855 257.85304 
L 252.054525 263.032446 
L 253.694194 262.394068 
L 255.333864 258.419745 
L 256.973533 262.378309 
L 258.613202 261.433653 
L 260.252872 262.41419 
L 261.892541 259.932976 
L 263.532211 262.483014 
L 265.17188 260.810678 
L 266.81155 249.436873 
L 268.451219 263.585261 
L 270.090888 261.270097 
L 271.730558 263.513589 
L 273.370227 259.537306 
L 275.009897 262.824639 
L 276.649566 260.905856 
L 278.289236 250.596459 
L 279.928905 261.614304 
L 281.568574 262.830605 
L 283.208244 264.28534 
L 284.847913 253.901064 
L 286.487583 255.602158 
L 288.127252 259.976692 
L 289.766921 256.529186 
L 291.406591 253.356084 
L 293.04626 260.284128 
L 294.68593 263.473345 
L 296.325599 253.896613 
L 297.965269 261.302772 
L 299.604938 263.609301 
L 301.244607 262.450071 
L 302.884277 260.477511 
L 304.523946 257.281884 
L 306.163616 262.12554 
L 307.803285 262.788848 
L 309.442955 258.667172 
L 311.082624 260.240501 
L 312.722293 260.069555 
L 314.361963 254.476138 
L 316.001632 262.18181 
L 317.641302 258.640818 
L 319.280971 263.272572 
L 320.92064 259.219453 
L 322.56031 260.551588 
L 324.199979 262.784663 
L 325.839649 262.351243 
L 327.479318 263.695041 
L 329.118988 263.800191 
L 330.758657 254.229869 
L 332.398326 231.937047 
L 334.037996 248.861443 
L 335.677665 258.904805 
L 337.317335 258.835536 
L 338.957004 212.058307 
L 340.596674 257.44633 
L 342.236343 261.508887 
L 343.876012 258.055683 
L 345.515682 250.507246 
L 347.155351 263.068594 
L 348.795021 242.288201 
L 350.43469 260.373875 
L 352.07436 250.718792 
L 353.714029 237.860514 
L 355.353698 239.455835 
L 356.993368 264.230762 
L 358.633037 246.86609 
L 360.272707 260.173547 
L 361.912376 264.156151 
L 363.552045 262.777006 
L 365.191715 247.448999 
L 366.831384 228.292685 
L 368.471054 249.384877 
L 370.110723 257.970655 
L 371.750393 260.880214 
L 373.390062 262.352667 
L 375.029731 263.048561 
L 376.669401 263.507178 
L 378.30907 263.527567 
L 379.94874 255.874337 
L 381.588409 262.788937 
L 383.228079 258.644023 
L 384.867748 252.707824 
L 386.507417 258.403007 
L 388.147087 260.790913 
L 389.786756 262.424963 
L 391.426426 263.540833 
L 393.066095 263.827792 
L 394.705764 259.754195 
L 396.345434 262.68717 
L 397.985103 263.494001 
L 399.624773 261.253892 
L 399.624773 261.253892 
" style="fill:none;stroke:#1f77b4;stroke-linecap:square;stroke-width:0.5;"/>
   </g>
   <g id="line2d_17">
    <path clip-path="url(#pcbad3539e3)" d="M 74.970227 252.808789 
L 76.609897 246.333752 
L 78.249566 262.825797 
L 79.889236 264.253288 
L 81.528905 255.659853 
L 83.168574 261.466418 
L 84.808244 254.101659 
L 86.447913 247.372607 
L 88.087583 257.396471 
L 89.727252 151.292862 
L 91.366921 251.776344 
L 93.006591 256.215517 
L 94.64626 248.543144 
L 96.28593 258.324745 
L 97.925599 252.042647 
L 99.565269 259.606931 
L 101.204938 249.254708 
L 102.844607 263.408795 
L 104.484277 252.091349 
L 106.123946 263.84177 
L 107.763616 230.246281 
L 109.403285 248.532104 
L 111.042955 263.590425 
L 112.682624 253.302574 
L 114.322293 261.868765 
L 115.961963 123.825976 
L 117.601632 242.755633 
L 119.241302 260.812281 
L 120.880971 262.628942 
L 122.52064 259.274387 
L 124.16031 260.218421 
L 125.799979 262.698388 
L 127.439649 260.735355 
L 129.079318 259.145733 
L 130.718988 249.620818 
L 132.358657 255.126358 
L 133.998326 251.432671 
L 135.637996 248.070015 
L 137.277665 264.049844 
L 138.917335 256.369458 
L 140.557004 257.704798 
L 142.196674 259.699527 
L 143.836343 260.932745 
L 145.476012 212.350607 
L 147.115682 259.223371 
L 148.755351 261.61653 
L 150.395021 248.650431 
L 152.03469 262.019411 
L 153.67436 129.688989 
L 155.314029 254.105755 
L 156.953698 263.095393 
L 158.593368 263.450908 
L 160.233037 261.625789 
L 161.872707 261.662561 
L 163.512376 241.983169 
L 165.152045 247.950174 
L 166.791715 232.401985 
L 168.431384 256.985221 
L 170.071054 260.523453 
L 171.710723 221.047055 
L 173.350393 261.112416 
L 174.990062 262.138272 
L 176.629731 263.692548 
L 178.269401 259.924429 
L 179.90907 263.448148 
L 181.54874 248.73537 
L 183.188409 239.95701 
L 184.828079 261.131559 
L 186.467748 228.267845 
L 188.107417 226.510837 
L 189.747087 250.895081 
L 191.386756 256.105025 
L 193.026426 263.075005 
L 194.666095 198.218067 
L 196.305764 263.69424 
L 197.945434 259.051534 
L 199.585103 255.156986 
L 201.224773 216.897601 
L 202.864442 258.740091 
L 204.504112 257.725365 
L 206.143781 262.200062 
L 207.78345 253.411998 
L 209.42312 248.410038 
L 211.062789 260.887426 
L 212.702459 251.453149 
L 214.342128 260.975748 
L 215.981798 261.624721 
L 217.621467 241.585986 
L 219.261136 242.515239 
L 220.900806 256.025606 
L 222.540475 242.577475 
L 224.180145 262.138539 
L 225.819814 253.42197 
L 227.459483 258.335518 
L 229.099153 258.124596 
L 230.738822 241.182304 
L 232.378492 258.968554 
L 234.018161 261.576375 
L 235.657831 260.955894 
L 237.2975 244.551993 
L 238.937169 261.617687 
L 240.576839 260.541616 
L 242.216508 260.154494 
L 243.856178 261.777237 
L 245.495847 264.512912 
L 247.135517 258.902757 
L 248.775186 237.109864 
L 252.054525 262.946617 
L 253.694194 259.743599 
L 255.333864 263.90908 
L 256.973533 259.19212 
L 258.613202 258.674384 
L 260.252872 261.95308 
L 261.892541 263.379948 
L 263.532211 264.488962 
L 265.17188 245.770965 
L 266.81155 257.783326 
L 268.451219 264.157397 
L 270.090888 261.988783 
L 271.730558 259.167368 
L 275.009897 263.286105 
L 276.649566 259.64299 
L 278.289236 240.321696 
L 279.928905 256.351918 
L 281.568574 255.912978 
L 283.208244 257.583711 
L 284.847913 262.379378 
L 286.487583 237.11298 
L 288.127252 258.003152 
L 289.766921 262.640249 
L 291.406591 251.674934 
L 293.04626 260.658963 
L 294.68593 255.94316 
L 296.325599 254.559208 
L 297.965269 260.765004 
L 299.604938 256.280067 
L 301.244607 259.222035 
L 302.884277 264.459135 
L 304.523946 254.748851 
L 306.163616 259.457532 
L 307.803285 263.493912 
L 309.442955 263.701986 
L 311.082624 258.219684 
L 312.722293 234.070848 
L 314.361963 260.376012 
L 316.001632 262.818407 
L 317.641302 259.403844 
L 319.280971 260.809966 
L 320.92064 244.365911 
L 322.56031 262.073544 
L 324.199979 263.129939 
L 325.839649 245.90149 
L 327.479318 262.576322 
L 329.118988 262.959438 
L 330.758657 263.691747 
L 332.398326 264.258184 
L 334.037996 262.456036 
L 335.677665 260.92215 
L 337.317335 251.494906 
L 338.957004 257.349995 
L 340.596674 260.427207 
L 342.236343 260.089766 
L 343.876012 263.137596 
L 345.515682 261.900105 
L 347.155351 258.931426 
L 348.795021 260.819493 
L 350.43469 238.586057 
L 352.07436 264.033016 
L 353.714029 262.912249 
L 355.353698 245.3233 
L 356.993368 251.110722 
L 358.633037 264.056966 
L 360.272707 263.810163 
L 361.912376 262.520765 
L 363.552045 240.068838 
L 365.191715 257.94341 
L 366.831384 259.359683 
L 368.471054 263.232418 
L 370.110723 256.076712 
L 371.750393 244.9774 
L 373.390062 232.747617 
L 375.029731 211.022657 
L 376.669401 252.443302 
L 378.30907 255.281723 
L 379.94874 262.010241 
L 381.588409 261.485026 
L 383.228079 263.893054 
L 384.867748 253.89225 
L 386.507417 262.216801 
L 388.147087 247.881084 
L 389.786756 241.791211 
L 391.426426 260.763045 
L 393.066095 258.075716 
L 393.066095 258.075716 
" style="fill:none;stroke:#ff7f0e;stroke-linecap:square;stroke-width:0.5;"/>
   </g>
   <g id="line2d_18">
    <path clip-path="url(#pcbad3539e3)" d="M 74.970227 263.060759 
L 76.609897 262.660193 
L 78.249566 263.325103 
L 79.889236 258.570926 
L 81.528905 264.476853 
L 83.168574 261.850067 
L 84.808244 261.215073 
L 88.087583 263.765913 
L 89.727252 263.559263 
L 91.366921 260.101963 
L 93.006591 250.990526 
L 94.64626 224.134862 
L 96.28593 262.19935 
L 97.925599 262.626716 
L 99.565269 263.711067 
L 101.204938 264.276615 
L 102.844607 263.874624 
L 104.484277 260.788598 
L 106.123946 262.0463 
L 107.763616 261.930288 
L 109.403285 261.422257 
L 111.042955 258.471741 
L 112.682624 264.337514 
L 114.322293 264.384168 
L 115.961963 258.372379 
L 117.601632 232.668733 
L 119.241302 263.445744 
L 120.880971 261.091938 
L 122.52064 263.375051 
L 124.16031 262.457906 
L 125.799979 263.571372 
L 127.439649 262.415348 
L 129.079318 263.707595 
L 130.718988 263.049006 
L 132.358657 261.128443 
L 133.998326 263.882993 
L 135.637996 264.320331 
L 137.277665 263.169114 
L 138.917335 261.184712 
L 140.557004 262.977334 
L 142.196674 264.047262 
L 143.836343 260.576785 
L 145.476012 263.475482 
L 147.115682 257.965669 
L 148.755351 261.345687 
L 150.395021 263.142849 
L 152.03469 261.378541 
L 153.67436 260.761976 
L 155.314029 259.887034 
L 156.953698 263.871151 
L 158.593368 260.294011 
L 160.233037 262.567775 
L 161.872707 260.797056 
L 163.512376 264.218653 
L 165.152045 258.740358 
L 166.791715 263.390009 
L 168.431384 262.797484 
L 170.071054 261.544323 
L 171.710723 264.643259 
L 173.350393 264.065069 
L 174.990062 264.592331 
L 176.629731 263.656489 
L 178.269401 260.728767 
L 179.90907 261.660602 
L 181.54874 258.830194 
L 183.188409 258.590068 
L 184.828079 263.857796 
L 186.467748 262.291946 
L 188.107417 262.033301 
L 189.747087 260.340576 
L 191.386756 263.349943 
L 193.026426 264.054028 
L 194.666095 261.039586 
L 196.305764 259.317391 
L 197.945434 263.088805 
L 199.585103 262.795792 
L 201.224773 260.475285 
L 202.864442 260.222694 
L 204.504112 263.922079 
L 206.143781 261.711708 
L 207.78345 263.979417 
L 209.42312 262.077996 
L 211.062789 261.807064 
L 212.702459 262.462892 
L 214.342128 262.382049 
L 215.981798 261.178213 
L 217.621467 264.042988 
L 219.261136 262.893552 
L 220.900806 261.268672 
L 222.540475 263.848091 
L 224.180145 261.184 
L 225.819814 260.223585 
L 227.459483 263.60752 
L 229.099153 258.449661 
L 230.738822 248.688716 
L 232.378492 262.509635 
L 234.018161 250.615067 
L 235.657831 264.442397 
L 237.2975 261.609407 
L 238.937169 263.801437 
L 240.576839 264.167903 
L 242.216508 261.883544 
L 243.856178 263.066012 
L 245.495847 262.894888 
L 247.135517 262.491739 
L 248.775186 257.172905 
L 250.414855 262.171037 
L 252.054525 261.727556 
L 253.694194 262.059032 
L 255.333864 263.547066 
L 258.613202 264.418447 
L 260.252872 260.262315 
L 261.892541 259.962981 
L 263.532211 263.36223 
L 266.81155 256.50479 
L 268.451219 260.42133 
L 270.090888 263.149794 
L 271.730558 264.007374 
L 273.370227 262.951247 
L 275.009897 263.087024 
L 276.649566 260.871578 
L 278.289236 261.409703 
L 279.928905 264.112613 
L 281.568574 263.394282 
L 283.208244 263.129672 
L 284.847913 264.053405 
L 286.487583 261.886661 
L 288.127252 263.538518 
L 289.766921 264.106737 
L 291.406591 262.566974 
L 293.04626 263.250759 
L 294.68593 264.0705 
L 296.325599 262.799176 
L 297.965269 264.51861 
L 299.604938 252.399853 
L 301.244607 262.81262 
L 302.884277 264.089019 
L 304.523946 258.432477 
L 306.163616 264.191498 
L 307.803285 262.558871 
L 309.442955 223.552309 
L 311.082624 252.17887 
L 312.722293 262.165873 
L 314.361963 263.1197 
L 316.001632 261.87286 
L 317.641302 263.351101 
L 319.280971 264.103977 
L 320.92064 262.502423 
L 322.56031 237.423177 
L 324.199979 261.94578 
L 325.839649 260.048988 
L 327.479318 260.352418 
L 329.118988 264.046371 
L 330.758657 263.157361 
L 332.398326 262.805408 
L 334.037996 262.658946 
L 335.677665 263.671002 
L 337.317335 262.239059 
L 338.957004 260.345117 
L 340.596674 262.084139 
L 342.236343 263.48207 
L 343.876012 263.85281 
L 345.515682 259.348909 
L 347.155351 255.97824 
L 348.795021 262.415615 
L 350.43469 263.821025 
L 352.07436 258.90899 
L 353.714029 264.192922 
L 355.353698 261.606558 
L 356.993368 263.355819 
L 358.633037 261.572903 
L 360.272707 261.76219 
L 361.912376 262.240217 
L 363.552045 260.799727 
L 365.191715 262.843604 
L 366.831384 263.029508 
L 370.110723 259.520212 
L 371.750393 264.038358 
L 375.029731 261.430715 
L 376.669401 263.953953 
L 378.30907 261.629707 
L 379.94874 261.847574 
L 381.588409 261.564979 
L 383.228079 261.714913 
L 384.867748 263.639573 
L 386.507417 260.937464 
L 388.147087 263.271593 
L 389.786756 264.184286 
L 391.426426 262.885183 
L 393.066095 262.762849 
L 394.705764 260.534404 
L 396.345434 262.21778 
L 397.985103 262.269509 
L 397.985103 262.269509 
" style="fill:none;stroke:#2ca02c;stroke-linecap:square;stroke-width:0.5;"/>
   </g>
   <g id="line2d_19">
    <path clip-path="url(#pcbad3539e3)" d="M 74.970227 243.918246 
L 76.609897 230.549444 
L 78.249566 202.001678 
L 79.889236 260.233646 
L 81.528905 260.100984 
L 83.168574 192.845901 
L 84.808244 260.834362 
L 86.447913 253.119875 
L 88.087583 262.826776 
L 89.727252 262.467077 
L 91.366921 261.476122 
L 93.006591 262.379111 
L 94.64626 261.262172 
L 96.28593 259.781528 
L 97.925599 133.918753 
L 99.565269 248.463815 
L 101.204938 255.873714 
L 102.844607 243.54163 
L 104.484277 259.742531 
L 106.123946 263.969267 
L 107.763616 262.513464 
L 109.403285 263.580988 
L 111.042955 263.87587 
L 112.682624 263.433101 
L 114.322293 263.587042 
L 115.961963 262.412588 
L 117.601632 261.382636 
L 119.241302 261.825405 
L 120.880971 264.202805 
L 122.52064 263.547689 
L 124.16031 261.092116 
L 125.799979 263.917805 
L 127.439649 260.805514 
L 129.079318 256.743403 
L 130.718988 263.868302 
L 132.358657 253.344332 
L 133.998326 264.012004 
L 135.637996 262.9906 
L 137.277665 263.560955 
L 138.917335 262.996832 
L 140.557004 257.251345 
L 142.196674 253.287973 
L 143.836343 253.393211 
L 145.476012 263.650613 
L 147.115682 262.603834 
L 148.755351 261.726577 
L 150.395021 259.981055 
L 152.03469 258.521511 
L 155.314029 263.947899 
L 156.953698 263.473879 
L 158.593368 260.24611 
L 160.233037 263.936236 
L 161.872707 262.538304 
L 163.512376 262.779054 
L 165.152045 261.395546 
L 166.791715 263.969267 
L 168.431384 259.396009 
L 170.071054 251.601213 
L 171.710723 263.952796 
L 173.350393 263.976479 
L 174.990062 262.01033 
L 176.629731 262.177002 
L 178.269401 258.615532 
L 179.90907 259.944105 
L 181.54874 264.183841 
L 183.188409 260.976639 
L 184.828079 263.301508 
L 186.467748 262.628674 
L 188.107417 261.208663 
L 189.747087 258.305692 
L 191.386756 260.276382 
L 193.026426 262.62173 
L 194.666095 255.066259 
L 196.305764 261.726666 
L 197.945434 256.423235 
L 199.585103 263.171607 
L 201.224773 263.342197 
L 202.864442 259.900656 
L 204.504112 262.528422 
L 206.143781 257.774779 
L 207.78345 259.637559 
L 209.42312 250.791801 
L 211.062789 263.879253 
L 212.702459 263.255478 
L 214.342128 260.135529 
L 215.981798 255.820115 
L 217.621467 261.575574 
L 219.261136 262.747001 
L 220.900806 262.482124 
L 222.540475 258.369351 
L 224.180145 261.850513 
L 225.819814 262.030986 
L 227.459483 261.293067 
L 229.099153 263.916381 
L 230.738822 261.23475 
L 232.378492 262.429682 
L 234.018161 262.605436 
L 235.657831 263.226096 
L 237.2975 262.778252 
L 238.937169 258.338991 
L 240.576839 263.592028 
L 242.216508 262.210657 
L 243.856178 259.977849 
L 245.495847 262.577925 
L 247.135517 261.573882 
L 248.775186 261.995194 
L 252.054525 248.016594 
L 253.694194 250.178709 
L 255.333864 262.29435 
L 256.973533 259.847058 
L 258.613202 258.453311 
L 260.252872 264.444 
L 263.532211 262.730975 
L 265.17188 264.196127 
L 266.81155 263.432834 
L 268.451219 262.944836 
L 270.090888 264.204764 
L 271.730558 263.676878 
L 273.370227 257.761246 
L 275.009897 257.309573 
L 276.649566 260.09956 
L 278.289236 260.101696 
L 279.928905 261.950944 
L 281.568574 260.06724 
L 283.208244 261.043237 
L 284.847913 260.556485 
L 286.487583 262.155456 
L 288.127252 262.251702 
L 289.766921 260.716124 
L 291.406591 261.550911 
L 293.04626 259.828895 
L 294.68593 258.470495 
L 296.325599 252.368335 
L 297.965269 253.09637 
L 299.604938 261.350228 
L 301.244607 263.757098 
L 302.884277 261.249975 
L 304.523946 253.182912 
L 306.163616 264.526713 
L 307.803285 262.061346 
L 309.442955 264.485312 
L 311.082624 261.67093 
L 312.722293 264.237706 
L 314.361963 259.177162 
L 316.001632 259.110742 
L 317.641302 255.576783 
L 319.280971 264.178231 
L 320.92064 263.505308 
L 322.56031 262.554331 
L 324.199979 264.294332 
L 325.839649 219.961635 
L 325.839649 219.961635 
" style="fill:none;stroke:#d62728;stroke-linecap:square;stroke-width:0.5;"/>
   </g>
   <g id="line2d_20">
    <path clip-path="url(#pcbad3539e3)" d="M 74.970227 262.139252 
L 76.609897 241.126301 
L 78.249566 264.216427 
L 79.889236 247.068733 
L 81.528905 264.715822 
L 84.808244 257.809591 
L 86.447913 262.567152 
L 88.087583 254.140478 
L 89.727252 221.646436 
L 91.366921 262.821879 
L 93.006591 233.436833 
L 94.64626 263.603781 
L 96.28593 258.211137 
L 97.925599 258.980306 
L 99.565269 264.009333 
L 101.204938 263.121481 
L 102.844607 260.785393 
L 104.484277 249.373035 
L 106.123946 261.743226 
L 107.763616 243.77864 
L 109.403285 262.406088 
L 111.042955 263.800992 
L 112.682624 263.490529 
L 114.322293 259.128015 
L 115.961963 258.432299 
L 117.601632 261.089178 
L 119.241302 262.187241 
L 120.880971 262.843426 
L 122.52064 263.117118 
L 124.16031 258.866876 
L 125.799979 258.723887 
L 127.439649 256.123455 
L 129.079318 257.35872 
L 130.718988 237.517553 
L 132.358657 263.968288 
L 133.998326 257.485684 
L 135.637996 252.906994 
L 137.277665 262.413567 
L 138.917335 263.553743 
L 140.557004 258.185762 
L 142.196674 263.585796 
L 143.836343 262.959527 
L 145.476012 244.389327 
L 147.115682 258.961431 
L 148.755351 257.751185 
L 150.395021 264.556005 
L 152.03469 220.894895 
L 153.67436 194.041902 
L 155.314029 263.056841 
L 156.953698 256.475142 
L 158.593368 263.935078 
L 160.233037 235.774435 
L 161.872707 259.215269 
L 163.512376 259.78874 
L 165.152045 245.798655 
L 166.791715 262.054402 
L 168.431384 259.79978 
L 170.071054 262.930858 
L 171.710723 256.593736 
L 174.990062 263.520889 
L 176.629731 263.320028 
L 178.269401 256.30286 
L 179.90907 261.659266 
L 181.54874 256.869565 
L 183.188409 264.131844 
L 184.828079 263.111153 
L 186.467748 263.212919 
L 188.107417 255.988568 
L 189.747087 258.667617 
L 191.386756 263.030843 
L 193.026426 261.829857 
L 194.666095 240.473589 
L 196.305764 264.424056 
L 197.945434 256.852381 
L 199.585103 258.675007 
L 201.224773 255.626287 
L 202.864442 263.449662 
L 204.504112 259.801917 
L 206.143781 258.171873 
L 207.78345 260.725917 
L 209.42312 259.454148 
L 211.062789 263.121124 
L 212.702459 255.15378 
L 214.342128 263.181579 
L 215.981798 256.649115 
L 217.621467 263.69513 
L 219.261136 259.20405 
L 220.900806 243.811137 
L 222.540475 260.189752 
L 224.180145 264.070233 
L 225.819814 261.713756 
L 227.459483 263.675542 
L 229.099153 264.155171 
L 230.738822 257.499573 
L 232.378492 259.788829 
L 234.018161 263.059424 
L 235.657831 254.533833 
L 237.2975 261.545569 
L 238.937169 264.550574 
L 240.576839 264.454773 
L 243.856178 254.869849 
L 245.495847 262.114856 
L 247.135517 258.309431 
L 248.775186 262.879485 
L 250.414855 258.316554 
L 252.054525 263.418322 
L 253.694194 246.92788 
L 255.333864 262.869958 
L 256.973533 258.65533 
L 258.613202 257.687169 
L 260.252872 261.664519 
L 261.892541 256.043235 
L 263.532211 263.931606 
L 265.17188 251.860304 
L 266.81155 264.103086 
L 268.451219 261.946492 
L 270.090888 256.676805 
L 271.730558 259.057499 
L 273.370227 260.423378 
L 275.009897 261.078672 
L 276.649566 236.842582 
L 278.289236 257.274049 
L 279.928905 243.33685 
L 281.568574 257.560028 
L 283.208244 251.207948 
L 284.847913 212.905203 
L 286.487583 264.57586 
L 288.127252 254.724367 
L 289.766921 243.608405 
L 291.406591 263.613218 
L 293.04626 261.490279 
L 294.68593 257.265501 
L 296.325599 246.213378 
L 297.965269 249.541578 
L 299.604938 263.849516 
L 301.244607 261.868854 
L 302.884277 257.540262 
L 304.523946 259.377311 
L 306.163616 263.497473 
L 307.803285 252.720734 
L 309.442955 262.271468 
L 311.082624 226.809014 
L 312.722293 261.03923 
L 314.361963 260.116743 
L 316.001632 260.546246 
L 317.641302 263.570838 
L 319.280971 259.766927 
L 320.92064 262.254373 
L 322.56031 256.261637 
L 324.199979 255.76803 
L 325.839649 258.841947 
L 327.479318 260.726541 
L 329.118988 259.097832 
L 330.758657 261.518325 
L 332.398326 252.705509 
L 334.037996 260.62237 
L 335.677665 257.722427 
L 337.317335 259.86068 
L 338.957004 257.344475 
L 340.596674 245.61008 
L 342.236343 258.550003 
L 343.876012 262.421936 
L 345.515682 263.805266 
L 347.155351 256.254158 
L 348.795021 259.092668 
L 350.43469 254.518608 
L 352.07436 262.923735 
L 353.714029 254.45664 
L 355.353698 262.417752 
L 356.993368 234.965645 
L 358.633037 263.848448 
L 360.272707 264.119469 
L 361.912376 258.47922 
L 363.552045 261.168597 
L 365.191715 262.99425 
L 366.831384 250.60002 
L 368.471054 248.301861 
L 370.110723 261.780442 
L 371.750393 259.362532 
L 373.390062 233.542606 
L 375.029731 261.37302 
L 376.669401 260.11612 
L 378.30907 226.801001 
L 379.94874 257.085652 
L 381.588409 262.761692 
L 383.228079 264.403578 
L 384.867748 257.806386 
L 386.507417 261.990119 
L 388.147087 258.995977 
L 389.786756 260.984207 
L 391.426426 258.296699 
L 393.066095 259.745291 
L 394.705764 254.807703 
L 396.345434 263.156204 
L 397.985103 260.271129 
L 397.985103 260.271129 
" style="fill:none;stroke:#9467bd;stroke-linecap:square;stroke-width:0.5;"/>
   </g>
   <g id="line2d_21">
    <path clip-path="url(#pcbad3539e3)" d="M 74.970227 245.387583 
L 76.609897 254.827647 
L 78.249566 262.508834 
L 79.889236 260.907637 
L 81.528905 262.915277 
L 83.168574 262.092865 
L 84.808244 263.730477 
L 86.447913 258.78078 
L 88.087583 261.795311 
L 89.727252 257.043716 
L 91.366921 263.597548 
L 93.006591 262.38098 
L 94.64626 260.411804 
L 96.28593 263.098688 
L 97.925599 262.79971 
L 99.565269 251.353252 
L 101.204938 263.383865 
L 102.844607 264.53152 
L 104.484277 258.86652 
L 106.123946 263.652661 
L 107.763616 263.124063 
L 111.042955 250.385625 
L 112.682624 262.546585 
L 114.322293 254.703978 
L 115.961963 260.651396 
L 117.601632 234.253636 
L 119.241302 264.054028 
L 120.880971 260.327132 
L 122.52064 246.483776 
L 124.16031 256.252734 
L 125.799979 261.426619 
L 127.439649 260.656381 
L 129.079318 253.05025 
L 130.718988 263.537895 
L 132.358657 257.285801 
L 133.998326 260.059583 
L 135.637996 259.67896 
L 137.277665 233.579467 
L 138.917335 264.40242 
L 140.557004 250.077209 
L 142.196674 211.271598 
L 143.836343 239.675839 
L 145.476012 249.181344 
L 147.115682 261.661047 
L 148.755351 262.475357 
L 150.395021 259.120091 
L 152.03469 261.63683 
L 153.67436 243.045707 
L 155.314029 263.042952 
L 156.953698 263.876137 
L 158.593368 262.521833 
L 160.233037 257.334325 
L 161.872707 262.720736 
L 163.512376 263.853701 
L 165.152045 261.083302 
L 166.791715 262.240573 
L 168.431384 258.731188 
L 170.071054 249.595889 
L 171.710723 258.134211 
L 173.350393 261.91435 
L 174.990062 260.177732 
L 176.629731 253.560418 
L 178.269401 260.600735 
L 179.90907 262.455146 
L 181.54874 260.453828 
L 183.188409 251.646087 
L 184.828079 259.470798 
L 186.467748 263.591138 
L 188.107417 261.986646 
L 189.747087 263.453846 
L 191.386756 262.012734 
L 193.026426 259.306796 
L 194.666095 260.759038 
L 196.305764 263.427581 
L 197.945434 263.879699 
L 199.585103 252.141475 
L 201.224773 255.601446 
L 202.864442 261.996885 
L 204.504112 262.203624 
L 206.143781 263.380215 
L 207.78345 254.18731 
L 209.42312 263.480824 
L 211.062789 262.639982 
L 212.702459 260.236584 
L 214.342128 262.415259 
L 215.981798 253.189946 
L 217.621467 254.182948 
L 220.900806 258.381638 
L 222.540475 263.442717 
L 224.180145 263.582768 
L 225.819814 258.896347 
L 227.459483 263.770631 
L 229.099153 261.641014 
L 230.738822 261.224956 
L 232.378492 259.975623 
L 234.018161 262.700703 
L 235.657831 236.128793 
L 237.2975 262.988641 
L 238.937169 257.038552 
L 240.576839 263.598884 
L 242.216508 256.457424 
L 243.856178 262.299692 
L 245.495847 237.805847 
L 247.135517 260.886803 
L 250.414855 261.043326 
L 252.054525 261.911145 
L 253.694194 261.241071 
L 255.333864 263.350655 
L 256.973533 260.855997 
L 258.613202 261.612434 
L 260.252872 255.636793 
L 261.892541 252.147351 
L 263.532211 260.15485 
L 265.17188 255.915026 
L 266.81155 262.899161 
L 268.451219 262.822681 
L 270.090888 251.881316 
L 271.730558 259.699616 
L 273.370227 258.630935 
L 275.009897 263.547778 
L 276.649566 254.685281 
L 278.289236 254.061505 
L 279.928905 260.450178 
L 281.568574 259.973398 
L 283.208244 255.898198 
L 284.847913 257.337263 
L 286.487583 263.063786 
L 288.127252 253.338188 
L 289.766921 262.597958 
L 291.406591 260.742745 
L 293.04626 259.723567 
L 294.68593 255.189394 
L 296.325599 262.90851 
L 299.604938 263.33178 
L 301.244607 263.153355 
L 302.884277 246.356812 
L 304.523946 258.434881 
L 306.163616 254.110741 
L 307.803285 256.72426 
L 309.442955 262.52486 
L 311.082624 263.584371 
L 312.722293 259.219008 
L 314.361963 261.755157 
L 316.001632 257.982764 
L 319.280971 258.598882 
L 320.92064 262.470282 
L 322.56031 263.276134 
L 324.199979 263.395529 
L 325.839649 262.131328 
L 327.479318 264.033639 
L 329.118988 263.14276 
L 330.758657 251.849709 
L 332.398326 262.970745 
L 334.037996 261.124703 
L 335.677665 262.648173 
L 337.317335 262.908955 
L 338.957004 251.888706 
L 340.596674 256.671374 
L 342.236343 262.112452 
L 343.876012 262.112719 
L 345.515682 256.920938 
L 347.155351 256.761121 
L 348.795021 258.239539 
L 350.43469 260.301757 
L 352.07436 260.308078 
L 353.714029 243.748546 
L 355.353698 262.605258 
L 356.993368 254.68074 
L 358.633037 261.777237 
L 360.272707 254.499198 
L 361.912376 260.029756 
L 361.912376 260.029756 
" style="fill:none;stroke:#8c564b;stroke-linecap:square;stroke-width:0.5;"/>
   </g>
   <g id="line2d_22">
    <path clip-path="url(#pcbad3539e3)" d="M 74.970227 252.892214 
L 76.609897 259.990581 
L 78.249566 202.067475 
L 79.889236 259.089107 
L 81.528905 260.764202 
L 83.168574 218.352692 
L 84.808244 260.614268 
L 86.447913 246.667632 
L 88.087583 262.369851 
L 89.727252 259.116974 
L 91.366921 260.55604 
L 93.006591 249.675842 
L 94.64626 243.157446 
L 96.28593 255.721732 
L 97.925599 162.825327 
L 99.565269 210.280911 
L 101.204938 253.570123 
L 102.844607 262.433333 
L 104.484277 264.029099 
L 106.123946 263.182914 
L 107.763616 251.372039 
L 109.403285 251.668256 
L 111.042955 238.616239 
L 112.682624 261.273302 
L 114.322293 264.047885 
L 115.961963 248.923945 
L 117.601632 139.038683 
L 119.241302 263.779802 
L 120.880971 248.128689 
L 122.52064 262.842001 
L 124.16031 239.475601 
L 125.799979 262.898894 
L 127.439649 253.597012 
L 129.079318 246.782041 
L 130.718988 253.18772 
L 132.358657 243.977097 
L 133.998326 257.582731 
L 135.637996 259.349087 
L 137.277665 258.972828 
L 138.917335 258.106165 
L 140.557004 248.799653 
L 142.196674 252.756437 
L 143.836343 257.201218 
L 145.476012 239.645122 
L 147.115682 259.339116 
L 148.755351 253.682307 
L 150.395021 256.086061 
L 152.03469 261.978277 
L 153.67436 263.49133 
L 155.314029 264.303948 
L 156.953698 252.367178 
L 158.593368 213.098853 
L 160.233037 254.617614 
L 161.872707 262.775581 
L 163.512376 264.106202 
L 165.152045 226.764853 
L 166.791715 261.521975 
L 168.431384 260.224653 
L 170.071054 119.83349 
L 171.710723 254.110118 
L 173.350393 257.056448 
L 174.990062 165.460927 
L 176.629731 250.606965 
L 178.269401 262.395493 
L 179.90907 261.41362 
L 181.54874 258.703765 
L 183.188409 228.993832 
L 184.828079 256.631754 
L 186.467748 261.51877 
L 188.107417 257.377062 
L 189.747087 263.575735 
L 191.386756 263.027104 
L 193.026426 257.760266 
L 194.666095 157.616629 
L 196.305764 254.745824 
L 197.945434 241.913811 
L 199.585103 153.884835 
L 201.224773 238.354478 
L 202.864442 259.612006 
L 204.504112 249.081358 
L 206.143781 260.064658 
L 207.78345 260.953223 
L 209.42312 263.00253 
L 211.062789 250.516061 
L 212.702459 263.572797 
L 214.342128 262.469659 
L 215.981798 250.831866 
L 217.621467 259.156951 
L 219.261136 259.966275 
L 220.900806 246.29894 
L 222.540475 258.286995 
L 224.180145 263.14089 
L 225.819814 264.447205 
L 227.459483 251.594625 
L 229.099153 246.683391 
L 230.738822 263.722731 
L 234.018161 259.710657 
L 235.657831 243.042502 
L 237.2975 243.495243 
L 238.937169 263.00716 
L 240.576839 248.102156 
L 242.216508 177.124273 
L 243.856178 264.515672 
L 245.495847 250.222425 
L 247.135517 260.068041 
L 248.775186 241.057032 
L 250.414855 260.453828 
L 252.054525 249.23058 
L 253.694194 261.66354 
L 255.333864 260.725917 
L 256.973533 254.303144 
L 258.613202 214.902337 
L 260.252872 253.070461 
L 261.892541 249.607997 
L 265.17188 241.551886 
L 266.81155 221.597199 
L 268.451219 254.872253 
L 270.090888 252.545514 
L 271.730558 250.444477 
L 273.370227 260.815842 
L 275.009897 189.821665 
L 276.649566 264.301811 
L 278.289236 259.511041 
L 279.928905 244.523057 
L 281.568574 261.619468 
L 283.208244 259.96859 
L 284.847913 256.319242 
L 286.487583 261.971511 
L 288.127252 249.264769 
L 291.406591 262.11815 
L 293.04626 261.301526 
L 294.68593 155.247598 
L 296.325599 233.319308 
L 297.965269 264.220256 
L 299.604938 262.867554 
L 301.244607 263.557928 
L 302.884277 263.07269 
L 304.523946 264.198264 
L 306.163616 245.474213 
L 307.803285 264.592687 
L 309.442955 257.182966 
L 311.082624 264.090889 
L 312.722293 263.542792 
L 314.361963 247.854729 
L 316.001632 261.654459 
L 317.641302 245.324279 
L 319.280971 262.551927 
L 320.92064 256.834218 
L 322.56031 263.547333 
L 324.199979 264.153124 
L 325.839649 229.326999 
L 327.479318 255.411001 
L 329.118988 242.48381 
L 330.758657 260.31716 
L 332.398326 249.533208 
L 334.037996 262.099186 
L 335.677665 263.210248 
L 337.317335 264.036845 
L 338.957004 243.4826 
L 340.596674 262.095269 
L 342.236343 262.231224 
L 343.876012 262.050573 
L 345.515682 198.026554 
L 347.155351 256.872236 
L 348.795021 234.573893 
L 350.43469 223.539132 
L 352.07436 239.263876 
L 353.714029 260.036345 
L 355.353698 198.695114 
L 356.993368 262.756172 
L 358.633037 260.190642 
L 360.272707 263.206954 
L 361.912376 248.238379 
L 363.552045 232.092946 
L 365.191715 262.364331 
L 366.831384 261.541474 
L 368.471054 263.029419 
L 370.110723 263.993752 
L 371.750393 244.539707 
L 373.390062 262.277255 
L 375.029731 263.717923 
L 376.669401 262.775136 
L 378.30907 256.17465 
L 379.94874 231.147845 
L 381.588409 217.763907 
L 383.228079 258.532196 
L 386.507417 262.629565 
L 388.147087 215.674266 
L 389.786756 263.240075 
L 391.426426 262.282063 
L 393.066095 257.081378 
L 394.705764 250.307987 
L 394.705764 250.307987 
" style="fill:none;stroke:#e377c2;stroke-linecap:square;stroke-width:0.5;"/>
   </g>
   <g id="line2d_23">
    <path clip-path="url(#pcbad3539e3)" d="M 74.970227 262.685746 
L 76.609897 263.679638 
L 78.249566 263.365791 
L 79.889236 260.855285 
L 81.528905 254.106912 
L 83.168574 259.682611 
L 84.808244 262.125006 
L 86.447913 263.58544 
L 88.087583 260.864722 
L 89.727252 263.840256 
L 91.366921 261.77697 
L 94.64626 262.397986 
L 96.28593 263.648565 
L 97.925599 264.028831 
L 102.844607 262.226416 
L 104.484277 262.848056 
L 106.123946 263.965172 
L 107.763616 263.70715 
L 109.403285 264.166479 
L 111.042955 264.195415 
L 112.682624 263.921634 
L 114.322293 263.040726 
L 115.961963 264.284004 
L 117.601632 259.792301 
L 119.241302 263.504151 
L 120.880971 264.177163 
L 122.52064 264.415241 
L 124.16031 259.619307 
L 125.799979 261.83413 
L 127.439649 264.301277 
L 129.079318 264.41444 
L 130.718988 263.416363 
L 132.358657 262.935933 
L 133.998326 263.676166 
L 137.277665 264.239487 
L 142.196674 263.640908 
L 143.836343 263.689788 
L 145.476012 264.398681 
L 148.755351 264.398236 
L 150.395021 264.075575 
L 152.03469 264.01325 
L 153.67436 263.754783 
L 155.314029 264.292107 
L 156.953698 263.819333 
L 158.593368 263.520444 
L 160.233037 264.025715 
L 161.872707 263.539498 
L 163.512376 262.086988 
L 165.152045 263.905964 
L 166.791715 262.234162 
L 168.431384 264.370279 
L 170.071054 262.698567 
L 171.710723 263.002976 
L 173.350393 263.870617 
L 174.990062 261.976675 
L 176.629731 262.615052 
L 178.269401 264.01325 
L 179.90907 263.532731 
L 181.54874 261.563287 
L 183.188409 261.533461 
L 184.828079 263.330534 
L 186.467748 264.21251 
L 188.107417 260.799193 
L 189.747087 263.955022 
L 191.386756 261.931534 
L 193.026426 263.230637 
L 194.666095 262.569377 
L 196.305764 263.787459 
L 197.945434 262.728215 
L 199.585103 262.2436 
L 201.224773 263.106523 
L 202.864442 264.28534 
L 204.504112 263.178908 
L 206.143781 263.835538 
L 207.78345 263.892431 
L 209.42312 264.13407 
L 211.062789 263.779624 
L 212.702459 264.229159 
L 214.342128 263.754249 
L 215.981798 263.686316 
L 217.621467 263.127624 
L 219.261136 263.476461 
L 220.900806 264.269403 
L 222.540475 262.185015 
L 224.180145 262.622798 
L 225.819814 263.31985 
L 227.459483 264.345438 
L 229.099153 262.43547 
L 230.738822 263.70893 
L 232.378492 264.368765 
L 234.018161 262.224636 
L 235.657831 263.453579 
L 237.2975 263.501569 
L 238.937169 264.260321 
L 240.576839 263.101893 
L 242.216508 264.213222 
L 243.856178 263.580454 
L 245.495847 264.062487 
L 247.135517 263.943358 
L 248.775186 264.199689 
L 250.414855 262.525216 
L 252.054525 264.528671 
L 253.694194 263.779891 
L 255.333864 259.113324 
L 256.973533 264.199155 
L 258.613202 264.338583 
L 260.252872 262.005522 
L 261.892541 261.982106 
L 263.532211 263.551784 
L 265.17188 264.090978 
L 266.81155 263.657379 
L 268.451219 263.476461 
L 270.090888 261.440242 
L 271.730558 262.726612 
L 273.370227 261.607715 
L 275.009897 263.966062 
L 279.928905 264.167547 
L 283.208244 257.523434 
L 284.847913 263.913176 
L 286.487583 263.738401 
L 288.127252 263.678303 
L 289.766921 263.84177 
L 291.406591 263.395618 
L 293.04626 263.727895 
L 294.68593 262.164715 
L 296.325599 262.714148 
L 297.965269 262.073188 
L 299.604938 263.205974 
L 301.244607 263.681419 
L 302.884277 264.429398 
L 304.523946 262.49352 
L 306.163616 263.379325 
L 309.442955 261.676361 
L 311.082624 264.10184 
L 312.722293 262.67613 
L 314.361963 261.67093 
L 316.001632 263.952885 
L 317.641302 263.803218 
L 319.280971 263.323322 
L 322.56031 263.292071 
L 324.199979 264.007018 
L 325.839649 263.543326 
L 327.479318 264.359239 
L 329.118988 264.295312 
L 330.758657 262.084584 
L 332.398326 264.001409 
L 334.037996 264.125078 
L 335.677665 262.542311 
L 337.317335 263.145164 
L 338.957004 260.029133 
L 340.596674 262.302007 
L 342.236343 262.179673 
L 343.876012 263.998115 
L 345.515682 263.637881 
L 347.155351 264.314721 
L 348.795021 263.655154 
L 350.43469 264.427884 
L 352.07436 263.472633 
L 353.714029 264.311516 
L 355.353698 262.943857 
L 356.993368 264.15811 
L 358.633037 262.588876 
L 360.272707 263.153088 
L 361.912376 264.458423 
L 363.552045 261.628906 
L 365.191715 263.846044 
L 366.831384 261.730583 
L 368.471054 263.783096 
L 370.110723 257.057784 
L 371.750393 260.24059 
L 373.390062 262.602409 
L 375.029731 263.43969 
L 376.669401 261.06692 
L 378.30907 264.04833 
L 379.94874 264.068274 
L 381.588409 262.551571 
L 383.228079 263.637792 
L 384.867748 263.63147 
L 386.507417 260.609994 
L 388.147087 262.089481 
L 389.786756 264.233166 
L 391.426426 263.895013 
L 393.066095 262.876903 
L 394.705764 264.499557 
L 396.345434 261.927082 
L 397.985103 262.044519 
L 399.624773 262.834344 
L 399.624773 262.834344 
" style="fill:none;stroke:#7f7f7f;stroke-linecap:square;stroke-width:0.5;"/>
   </g>
   <g id="line2d_24">
    <path clip-path="url(#pcbad3539e3)" d="M 74.970227 264.118934 
L 76.609897 260.644629 
L 78.249566 250.420259 
L 79.889236 262.736673 
L 81.528905 253.868834 
L 83.168574 260.63528 
L 84.808244 159.015361 
L 86.447913 261.563465 
L 88.087583 263.18051 
L 89.727252 255.977884 
L 91.366921 263.642065 
L 93.006591 262.300137 
L 94.64626 262.948041 
L 96.28593 245.146121 
L 97.925599 264.392359 
L 99.565269 262.002227 
L 101.204938 260.61872 
L 102.844607 262.632058 
L 104.484277 263.365969 
L 106.123946 261.515565 
L 107.763616 263.761728 
L 109.403285 257.518448 
L 111.042955 254.077531 
L 112.682624 257.312334 
L 114.322293 256.046352 
L 115.961963 259.675221 
L 117.601632 253.521243 
L 119.241302 261.134675 
L 120.880971 260.791447 
L 122.52064 259.289523 
L 124.16031 263.709999 
L 125.799979 252.846628 
L 127.439649 259.097298 
L 129.079318 259.353183 
L 130.718988 262.058942 
L 132.358657 262.530291 
L 133.998326 259.036042 
L 135.637996 262.468323 
L 137.277665 263.732346 
L 138.917335 258.801169 
L 140.557004 236.491074 
L 142.196674 244.732466 
L 143.836343 248.752821 
L 145.476012 248.077939 
L 147.115682 262.174509 
L 148.755351 260.740341 
L 150.395021 260.765983 
L 152.03469 261.254337 
L 153.67436 262.943768 
L 155.314029 259.883829 
L 156.953698 262.375104 
L 158.593368 259.10727 
L 160.233037 260.530665 
L 161.872707 263.866343 
L 163.512376 260.816911 
L 165.152045 262.821078 
L 166.791715 262.720914 
L 168.431384 262.372967 
L 170.071054 261.617153 
L 171.710723 261.588039 
L 173.350393 263.627197 
L 174.990062 261.061934 
L 176.629731 260.461841 
L 178.269401 262.243066 
L 179.90907 263.30872 
L 181.54874 262.481411 
L 183.188409 257.57267 
L 184.828079 263.024967 
L 186.467748 261.999289 
L 188.107417 238.189764 
L 189.747087 261.792996 
L 191.386756 262.756884 
L 193.026426 260.597174 
L 194.666095 249.813044 
L 196.305764 256.995638 
L 197.945434 246.692206 
L 199.585103 258.002796 
L 201.224773 260.950374 
L 202.864442 262.687526 
L 204.504112 262.895155 
L 206.143781 262.036417 
L 207.78345 257.15216 
L 209.42312 259.516739 
L 211.062789 263.109016 
L 212.702459 243.327323 
L 214.342128 260.803199 
L 215.981798 263.184695 
L 217.621467 261.283096 
L 219.261136 256.708768 
L 220.900806 263.609212 
L 222.540475 259.185531 
L 224.180145 242.8241 
L 225.819814 259.235836 
L 227.459483 248.635295 
L 229.099153 263.612061 
L 230.738822 258.516437 
L 232.378492 230.047467 
L 234.018161 235.597969 
L 235.657831 263.020872 
L 237.2975 247.684852 
L 238.937169 264.715822 
L 240.576839 245.113623 
L 242.216508 259.522438 
L 243.856178 260.636171 
L 245.495847 258.665302 
L 247.135517 263.601733 
L 248.775186 233.738661 
L 250.414855 259.580132 
L 252.054525 263.374784 
L 255.333864 260.829821 
L 256.973533 258.721127 
L 258.613202 263.682754 
L 260.252872 263.682754 
L 261.892541 261.350584 
L 263.532211 248.39508 
L 265.17188 261.081432 
L 266.81155 264.428062 
L 268.451219 250.749064 
L 270.090888 261.415134 
L 271.730558 259.681899 
L 273.370227 260.928293 
L 275.009897 258.679637 
L 276.649566 263.620519 
L 278.289236 253.817817 
L 279.928905 261.590354 
L 281.568574 252.068912 
L 283.208244 260.313331 
L 284.847913 262.998969 
L 286.487583 258.377632 
L 288.127252 262.736317 
L 289.766921 262.159195 
L 291.406591 254.476317 
L 293.04626 263.501836 
L 294.68593 258.823517 
L 297.965269 259.726594 
L 299.604938 263.716053 
L 302.884277 259.330301 
L 304.523946 262.765164 
L 306.163616 259.641121 
L 307.803285 247.098203 
L 309.442955 258.668418 
L 311.082624 261.827631 
L 312.722293 260.563608 
L 314.361963 257.546227 
L 316.001632 255.404234 
L 317.641302 262.979649 
L 319.280971 260.976104 
L 320.92064 262.605882 
L 322.56031 255.001709 
L 324.199979 260.936929 
L 325.839649 260.64267 
L 327.479318 263.023988 
L 329.118988 261.893427 
L 330.758657 261.068968 
L 332.398326 256.571922 
L 334.037996 260.840861 
L 335.677665 263.870261 
L 337.317335 260.684338 
L 338.957004 256.307223 
L 340.596674 257.265145 
L 342.236343 259.70754 
L 343.876012 257.390951 
L 345.515682 261.331441 
L 347.155351 257.232648 
L 348.795021 262.294706 
L 350.43469 263.8667 
L 352.07436 254.017344 
L 353.714029 262.488979 
L 355.353698 263.766625 
L 356.993368 264.037023 
L 358.633037 263.419212 
L 360.272707 258.156915 
L 361.912376 258.627285 
L 363.552045 260.761086 
L 365.191715 262.296398 
L 366.831384 214.680018 
L 368.471054 263.629066 
L 370.110723 261.402046 
L 371.750393 263.827168 
L 373.390062 257.603922 
L 375.029731 257.107198 
L 376.669401 261.050804 
L 378.30907 258.657378 
L 379.94874 258.943802 
L 381.588409 255.205509 
L 381.588409 255.205509 
" style="fill:none;stroke:#bcbd22;stroke-linecap:square;stroke-width:0.5;"/>
   </g>
   <g id="line2d_25">
    <path clip-path="url(#pcbad3539e3)" d="M 74.970227 242.921415 
L 76.609897 236.309087 
L 78.249566 253.994729 
L 79.889236 247.897644 
L 81.528905 252.492983 
L 83.168574 257.756349 
L 84.808244 238.02692 
L 86.447913 237.959432 
L 88.087583 263.684802 
L 89.727252 262.332546 
L 91.366921 260.015867 
L 93.006591 263.462216 
L 94.64626 260.323927 
L 96.28593 260.298374 
L 97.925599 263.64714 
L 99.565269 257.854465 
L 101.204938 143.356947 
L 102.844607 261.381212 
L 104.484277 259.466435 
L 106.123946 263.542792 
L 107.763616 263.565674 
L 109.403285 259.685994 
L 111.042955 258.12415 
L 112.682624 205.810131 
L 114.322293 257.337441 
L 115.961963 257.937979 
L 117.601632 261.314525 
L 119.241302 231.530782 
L 120.880971 262.39389 
L 122.52064 254.520122 
L 124.16031 250.117186 
L 125.799979 258.702964 
L 127.439649 251.597474 
L 129.079318 260.891522 
L 130.718988 262.558159 
L 132.358657 255.149507 
L 133.998326 252.698653 
L 135.637996 259.946331 
L 137.277665 263.823785 
L 138.917335 207.574973 
L 140.557004 209.797898 
L 142.196674 264.715555 
L 143.836343 219.721598 
L 145.476012 198.026198 
L 147.115682 200.454525 
L 148.755351 241.036465 
L 150.395021 167.493407 
L 152.03469 250.864008 
L 153.67436 264.716 
L 155.314029 264.715199 
L 156.953698 263.661653 
L 158.593368 263.404521 
L 160.233037 241.072524 
L 161.872707 262.953561 
L 163.512376 262.037396 
L 165.152045 258.151395 
L 166.791715 259.359504 
L 168.431384 249.524305 
L 170.071054 260.258041 
L 171.710723 249.349619 
L 173.350393 186.36116 
L 174.990062 250.818956 
L 176.629731 250.420259 
L 178.269401 22.796 
L 179.90907 236.269734 
L 181.54874 247.315358 
L 183.188409 221.241507 
L 184.828079 228.315834 
L 186.467748 259.456018 
L 188.107417 231.59275 
L 189.747087 260.766962 
L 191.386756 258.436394 
L 193.026426 224.418615 
L 194.666095 259.761941 
L 196.305764 215.863287 
L 197.945434 223.79377 
L 199.585103 216.317541 
L 201.224773 211.969094 
L 202.864442 247.001511 
L 204.504112 253.613928 
L 206.143781 263.547155 
L 207.78345 253.395437 
L 209.42312 263.732168 
L 211.062789 262.619148 
L 212.702459 237.135239 
L 214.342128 221.760133 
L 215.981798 255.99204 
L 217.621467 248.74178 
L 219.261136 238.075265 
L 220.900806 260.978241 
L 222.540475 255.543395 
L 224.180145 243.250843 
L 225.819814 255.196784 
L 227.459483 263.143828 
L 229.099153 232.392013 
L 230.738822 261.233236 
L 232.378492 254.273318 
L 234.018161 254.515314 
L 235.657831 244.364398 
L 237.2975 260.258219 
L 238.937169 259.992184 
L 240.576839 262.558782 
L 242.216508 255.483297 
L 243.856178 251.064068 
L 245.495847 262.325156 
L 247.135517 263.757187 
L 248.775186 249.534544 
L 250.414855 157.795677 
L 252.054525 259.83023 
L 253.694194 260.499592 
L 255.333864 261.317997 
L 256.973533 258.737153 
L 258.613202 248.455623 
L 261.892541 255.643025 
L 263.532211 249.534366 
L 265.17188 240.301396 
L 266.81155 253.100555 
L 268.451219 263.367839 
L 270.090888 224.136731 
L 271.730558 258.890916 
L 273.370227 262.122068 
L 275.009897 231.606105 
L 276.649566 254.866377 
L 278.289236 261.722125 
L 279.928905 260.352863 
L 281.568574 262.361037 
L 283.208244 246.893245 
L 284.847913 251.321556 
L 286.487583 254.590103 
L 288.127252 258.294117 
L 289.766921 253.37861 
L 291.406591 259.646463 
L 293.04626 251.216584 
L 294.68593 250.288755 
L 296.325599 254.6973 
L 297.965269 261.30571 
L 299.604938 221.370429 
L 301.244607 248.405853 
L 302.884277 250.065279 
L 304.523946 262.951425 
L 306.163616 261.849088 
L 307.803285 245.856438 
L 309.442955 258.302843 
L 311.082624 262.114144 
L 312.722293 263.473968 
L 314.361963 260.552834 
L 316.001632 259.802273 
L 317.641302 260.006697 
L 319.280971 264.353006 
L 320.92064 205.525754 
L 322.56031 263.496316 
L 324.199979 158.530568 
L 325.839649 247.958277 
L 327.479318 65.996 
L 329.118988 255.83258 
L 330.758657 259.061951 
L 332.398326 256.838136 
L 334.037996 258.165462 
L 335.677665 264.708877 
L 337.317335 263.095215 
L 338.957004 254.00479 
L 340.596674 264.314632 
L 342.236343 260.739985 
L 343.876012 228.902038 
L 345.515682 264.698727 
L 347.155351 263.124152 
L 348.795021 228.998462 
L 350.43469 264.71413 
L 352.07436 152.484055 
L 353.714029 260.943696 
L 355.353698 219.46135 
L 356.993368 245.332559 
L 358.633037 245.557371 
L 360.272707 256.855853 
L 361.912376 236.818009 
L 363.552045 156.620599 
L 365.191715 259.847592 
L 366.831384 256.365985 
L 368.471054 260.995514 
L 370.110723 249.656432 
L 371.750393 262.349373 
L 373.390062 263.208467 
L 375.029731 217.694994 
L 376.669401 262.445976 
L 378.30907 240.802393 
L 379.94874 263.431143 
L 381.588409 258.305781 
L 383.228079 253.805352 
L 384.867748 252.911179 
L 386.507417 238.846572 
L 388.147087 222.859798 
L 389.786756 255.809609 
L 391.426426 249.302253 
L 393.066095 233.698684 
L 394.705764 257.642028 
L 396.345434 249.844562 
L 397.985103 252.028134 
L 399.624773 263.269367 
L 399.624773 263.269367 
" style="fill:none;stroke:#17becf;stroke-linecap:square;stroke-width:0.5;"/>
   </g>
   <g id="line2d_26">
    <path clip-path="url(#pcbad3539e3)" d="M 74.970227 255.113003 
L 76.609897 235.129558 
L 78.249566 216.10279 
L 79.889236 261.754979 
L 81.528905 262.569466 
L 83.168574 255.132145 
L 84.808244 246.835284 
L 86.447913 83.323723 
L 88.087583 214.611283 
L 89.727252 248.647849 
L 91.366921 257.2785 
L 93.006591 259.793637 
L 94.64626 253.809359 
L 96.28593 258.909168 
L 97.925599 226.259226 
L 99.565269 259.741017 
L 101.204938 259.895849 
L 102.844607 247.994514 
L 104.484277 231.037976 
L 106.123946 230.599303 
L 107.763616 219.570328 
L 109.403285 244.441056 
L 111.042955 260.2129 
L 112.682624 251.121941 
L 114.322293 251.092025 
L 115.961963 135.701402 
L 117.601632 209.772345 
L 120.880971 229.847673 
L 122.52064 230.61524 
L 124.16031 233.820572 
L 125.799979 242.846448 
L 127.439649 258.923146 
L 129.079318 263.748551 
L 130.718988 244.01556 
L 132.358657 229.894773 
L 133.998326 253.969443 
L 135.637996 243.984398 
L 137.277665 259.141726 
L 138.917335 253.488924 
L 140.557004 260.152802 
L 142.196674 237.177441 
L 143.836343 212.169778 
L 145.476012 239.633014 
L 147.115682 255.883062 
L 148.755351 255.113003 
L 150.395021 261.574417 
L 152.03469 251.360197 
L 153.67436 254.999216 
L 155.314029 262.912606 
L 156.953698 238.770358 
L 158.593368 260.333809 
L 160.233037 263.461682 
L 161.872707 255.874248 
L 163.512376 261.415223 
L 165.152045 253.159496 
L 166.791715 260.22305 
L 168.431384 253.351988 
L 170.071054 237.373139 
L 171.710723 245.187344 
L 173.350393 224.721777 
L 174.990062 258.778999 
L 176.629731 262.805586 
L 178.269401 263.570482 
L 179.90907 260.185656 
L 181.54874 263.188791 
L 183.188409 256.80083 
L 184.828079 222.4124 
L 186.467748 250.847358 
L 188.107417 212.743428 
L 189.747087 250.87211 
L 191.386756 243.36543 
L 193.026426 227.792311 
L 194.666095 228.27568 
L 196.305764 263.072066 
L 197.945434 238.636361 
L 199.585103 258.445209 
L 201.224773 261.037271 
L 202.864442 258.555701 
L 204.504112 260.542773 
L 206.143781 263.151841 
L 207.78345 260.066795 
L 209.42312 253.860643 
L 211.062789 256.263952 
L 212.702459 259.87911 
L 214.342128 259.999396 
L 215.981798 259.881959 
L 217.621467 260.29223 
L 219.261136 240.132141 
L 220.900806 253.840877 
L 222.540475 254.272962 
L 224.180145 210.709523 
L 225.819814 261.977743 
L 227.459483 245.111486 
L 229.099153 260.271129 
L 230.738822 240.728049 
L 232.378492 246.343279 
L 234.018161 231.975332 
L 235.657831 264.020818 
L 237.2975 221.81667 
L 238.937169 252.03036 
L 240.576839 249.549591 
L 242.216508 250.817888 
L 243.856178 259.934757 
L 245.495847 234.361101 
L 247.135517 216.752385 
L 248.775186 238.731984 
L 250.414855 262.933173 
L 252.054525 252.720199 
L 253.694194 184.067186 
L 255.333864 259.793637 
L 256.973533 257.932548 
L 258.613202 223.492923 
L 260.252872 258.873732 
L 261.892541 243.314146 
L 263.532211 193.126449 
L 265.17188 260.792693 
L 266.81155 262.960773 
L 268.451219 214.955312 
L 270.090888 248.326345 
L 271.730558 255.556305 
L 273.370227 263.956446 
L 275.009897 230.293024 
L 276.649566 229.655359 
L 278.289236 257.908509 
L 279.928905 239.417194 
L 281.568574 237.849563 
L 283.208244 226.758887 
L 284.847913 254.523238 
L 286.487583 242.068909 
L 288.127252 261.501141 
L 289.766921 258.830105 
L 291.406591 253.257256 
L 293.04626 224.318273 
L 294.68593 249.435359 
L 296.325599 261.485026 
L 297.965269 248.171247 
L 299.604938 262.729996 
L 301.244607 258.052032 
L 302.884277 260.088786 
L 304.523946 250.689767 
L 306.163616 263.80393 
L 307.803285 263.324568 
L 309.442955 187.229781 
L 311.082624 251.737436 
L 312.722293 218.217003 
L 314.361963 228.279419 
L 316.001632 262.182611 
L 317.641302 261.124347 
L 319.280971 226.230646 
L 320.92064 226.104929 
L 322.56031 252.710762 
L 324.199979 219.51397 
L 325.839649 262.320259 
L 327.479318 261.343016 
L 329.118988 251.966789 
L 330.758657 256.984063 
L 332.398326 262.838084 
L 334.037996 187.750633 
L 335.677665 262.511149 
L 337.317335 263.466667 
L 338.957004 255.668845 
L 340.596674 262.23897 
L 342.236343 253.05212 
L 343.876012 258.30774 
L 345.515682 254.863261 
L 347.155351 264.082341 
L 348.795021 246.332417 
L 350.43469 260.437089 
L 352.07436 259.907156 
L 353.714029 262.165072 
L 355.353698 192.632129 
L 356.993368 254.846878 
L 358.633037 251.875885 
L 360.272707 257.148065 
L 361.912376 253.887086 
L 363.552045 254.907956 
L 365.191715 257.639357 
L 366.831384 215.948137 
L 368.471054 231.118997 
L 370.110723 230.598591 
L 371.750393 260.567703 
L 373.390062 262.205226 
L 375.029731 255.52541 
L 376.669401 258.773212 
L 378.30907 256.455287 
L 379.94874 262.158127 
L 381.588409 257.496279 
L 383.228079 202.243763 
L 384.867748 249.262276 
L 386.507417 258.421526 
L 388.147087 258.651057 
L 389.786756 227.429852 
L 391.426426 257.909221 
L 393.066095 259.280798 
L 394.705764 257.346612 
L 394.705764 257.346612 
" style="fill:none;stroke:#1f77b4;stroke-linecap:square;stroke-width:0.5;"/>
   </g>
   <g id="line2d_27">
    <path clip-path="url(#pcbad3539e3)" d="M 74.970227 262.686102 
L 76.609897 260.395599 
L 78.249566 259.92799 
L 79.889236 263.503083 
L 81.528905 264.31757 
L 83.168574 262.681383 
L 84.808244 263.706259 
L 86.447913 261.615461 
L 88.087583 264.521014 
L 89.727252 263.868836 
L 91.366921 260.400318 
L 93.006591 263.171607 
L 94.64626 263.289934 
L 96.28593 263.892074 
L 97.925599 263.442806 
L 99.565269 263.934544 
L 101.204938 258.844173 
L 102.844607 261.366343 
L 104.484277 263.646161 
L 106.123946 261.876778 
L 107.763616 262.894621 
L 109.403285 261.568184 
L 111.042955 262.216979 
L 112.682624 261.282828 
L 114.322293 263.044466 
L 115.961963 264.145378 
L 117.601632 261.121231 
L 119.241302 263.269367 
L 120.880971 257.373411 
L 122.52064 262.65396 
L 124.16031 258.156826 
L 125.799979 260.353931 
L 127.439649 261.097993 
L 129.079318 262.542222 
L 130.718988 256.646889 
L 132.358657 262.235943 
L 133.998326 259.565085 
L 135.637996 263.052212 
L 137.277665 258.382974 
L 138.917335 249.992449 
L 140.557004 257.229531 
L 142.196674 263.572708 
L 143.836343 260.20649 
L 145.476012 263.855926 
L 148.755351 261.62205 
L 150.395021 263.858776 
L 152.03469 251.800117 
L 153.67436 258.624435 
L 155.314029 256.327077 
L 156.953698 261.191924 
L 158.593368 263.381907 
L 160.233037 261.329928 
L 161.872707 260.74417 
L 163.512376 260.898733 
L 165.152045 260.674723 
L 166.791715 253.922077 
L 168.431384 259.58583 
L 170.071054 207.750816 
L 171.710723 250.579275 
L 173.350393 261.004685 
L 174.990062 244.814467 
L 176.629731 261.613592 
L 178.269401 256.360198 
L 179.90907 256.999911 
L 181.54874 260.751737 
L 183.188409 261.073508 
L 184.828079 260.575182 
L 186.467748 259.958796 
L 188.107417 263.104386 
L 189.747087 261.737706 
L 191.386756 259.427171 
L 193.026426 261.531235 
L 194.666095 258.806066 
L 196.305764 258.59817 
L 197.945434 262.677465 
L 199.585103 261.766909 
L 201.224773 258.9495 
L 202.864442 260.73402 
L 204.504112 259.62367 
L 206.143781 255.785213 
L 207.78345 249.307862 
L 211.062789 261.555719 
L 212.702459 262.853665 
L 214.342128 263.144273 
L 215.981798 261.731652 
L 217.621467 256.933937 
L 219.261136 240.765622 
L 220.900806 260.646143 
L 222.540475 262.733112 
L 224.180145 263.111954 
L 225.819814 262.525038 
L 227.459483 263.268833 
L 229.099153 260.886536 
L 230.738822 263.684001 
L 232.378492 259.927367 
L 234.018161 257.317319 
L 235.657831 262.568576 
L 237.2975 260.769901 
L 238.937169 253.450728 
L 240.576839 256.989049 
L 242.216508 258.525963 
L 243.856178 257.247427 
L 245.495847 263.06717 
L 247.135517 262.513464 
L 248.775186 250.964795 
L 250.414855 262.161243 
L 252.054525 262.955253 
L 253.694194 264.243939 
L 255.333864 262.432798 
L 256.973533 262.185282 
L 258.613202 259.402063 
L 260.252872 261.363405 
L 263.532211 259.438389 
L 265.17188 263.615355 
L 266.81155 261.486718 
L 268.451219 263.285304 
L 270.090888 261.509332 
L 271.730558 261.747144 
L 273.370227 256.409345 
L 275.009897 263.472455 
L 276.649566 263.585529 
L 278.289236 263.891718 
L 279.928905 255.306386 
L 281.568574 261.633625 
L 283.208244 257.458617 
L 284.847913 261.846773 
L 286.487583 255.111133 
L 288.127252 261.943732 
L 289.766921 257.947951 
L 291.406591 258.652036 
L 293.04626 263.247732 
L 294.68593 260.482141 
L 296.325599 262.107199 
L 297.965269 262.990511 
L 299.604938 262.575165 
L 301.244607 264.041474 
L 302.884277 259.849907 
L 304.523946 263.157272 
L 306.163616 260.184855 
L 307.803285 263.699404 
L 309.442955 263.49783 
L 311.082624 262.216177 
L 312.722293 259.575502 
L 314.361963 261.625344 
L 316.001632 260.532445 
L 317.641302 260.511344 
L 319.280971 263.666105 
L 320.92064 241.424923 
L 322.56031 261.477725 
L 324.199979 263.25432 
L 325.839649 262.346702 
L 327.479318 259.933332 
L 329.118988 260.172301 
L 330.758657 260.660032 
L 332.398326 262.753145 
L 334.037996 263.04963 
L 337.317335 253.663609 
L 338.957004 263.711156 
L 340.596674 261.690161 
L 342.236343 261.271877 
L 343.876012 250.140513 
L 345.515682 262.076126 
L 347.155351 263.550805 
L 348.795021 251.402934 
L 350.43469 260.201771 
L 352.07436 253.16831 
L 355.353698 263.956535 
L 356.993368 262.899696 
L 358.633037 262.587184 
L 360.272707 259.525465 
L 361.912376 260.829643 
L 363.552045 264.149384 
L 365.191715 263.202769 
L 366.831384 262.011487 
L 368.471054 262.574274 
L 370.110723 255.422932 
L 371.750393 263.202591 
L 375.029731 263.014194 
L 376.669401 261.943109 
L 378.30907 262.175133 
L 381.588409 261.914261 
L 383.228079 260.821719 
L 384.867748 264.301633 
L 386.507417 263.392324 
L 388.147087 224.369735 
L 389.786756 260.013641 
L 389.786756 260.013641 
" style="fill:none;stroke:#ff7f0e;stroke-linecap:square;stroke-width:0.5;"/>
   </g>
   <g id="line2d_28">
    <path clip-path="url(#pcbad3539e3)" d="M 74.970227 256.471758 
L 76.609897 258.948966 
L 78.249566 261.90607 
L 79.889236 261.881586 
L 81.528905 261.307313 
L 83.168574 262.966293 
L 84.808244 260.020586 
L 86.447913 260.309058 
L 88.087583 264.308311 
L 89.727252 263.447881 
L 91.366921 263.741695 
L 93.006591 260.212633 
L 94.64626 257.180562 
L 96.28593 248.08524 
L 97.925599 259.116618 
L 99.565269 257.652445 
L 101.204938 256.350137 
L 102.844607 262.430484 
L 104.484277 253.113109 
L 106.123946 255.741942 
L 107.763616 262.653426 
L 109.403285 261.060687 
L 111.042955 262.159819 
L 112.682624 263.889849 
L 114.322293 263.984225 
L 115.961963 262.453722 
L 117.601632 261.207327 
L 119.241302 259.601856 
L 120.880971 260.173458 
L 122.52064 261.452439 
L 124.16031 263.646339 
L 125.799979 261.901618 
L 127.439649 263.922257 
L 129.079318 261.261638 
L 130.718988 261.45609 
L 132.358657 264.375532 
L 133.998326 261.317285 
L 135.637996 263.760659 
L 137.277665 263.424821 
L 138.917335 263.205529 
L 140.557004 261.614126 
L 142.196674 263.774371 
L 143.836343 257.437783 
L 145.476012 255.414206 
L 147.115682 261.436947 
L 148.755351 261.440598 
L 150.395021 262.509813 
L 152.03469 261.384506 
L 153.67436 261.731652 
L 155.314029 258.078921 
L 156.953698 264.082608 
L 158.593368 261.739398 
L 160.233037 261.292355 
L 161.872707 261.778929 
L 163.512376 263.541189 
L 165.152045 263.913087 
L 166.791715 262.978669 
L 168.431384 261.030059 
L 170.071054 263.804019 
L 171.710723 262.905216 
L 173.350393 258.481357 
L 174.990062 262.167921 
L 176.629731 264.145022 
L 178.269401 263.654441 
L 181.54874 263.629334 
L 183.188409 262.093666 
L 184.828079 262.431997 
L 186.467748 262.055559 
L 188.107417 262.968964 
L 189.747087 258.373002 
L 191.386756 264.375354 
L 193.026426 261.13423 
L 194.666095 263.182113 
L 196.305764 262.537058 
L 197.945434 261.283274 
L 199.585103 262.535633 
L 201.224773 263.371668 
L 202.864442 261.933938 
L 204.504112 263.083908 
L 206.143781 258.487144 
L 207.78345 263.261176 
L 209.42312 261.776703 
L 211.062789 263.656222 
L 212.702459 262.388637 
L 214.342128 264.101484 
L 215.981798 263.740716 
L 217.621467 262.902545 
L 219.261136 263.22022 
L 220.900806 263.135726 
L 222.540475 261.068611 
L 224.180145 262.450427 
L 225.819814 263.615889 
L 227.459483 263.265984 
L 229.099153 262.63188 
L 230.738822 263.577248 
L 232.378492 260.139981 
L 234.018161 263.530238 
L 235.657831 263.408795 
L 237.2975 263.05052 
L 238.937169 264.245898 
L 240.576839 261.721145 
L 242.216508 264.112257 
L 243.856178 264.098278 
L 245.495847 263.705458 
L 247.135517 260.203819 
L 248.775186 263.040192 
L 250.414855 263.181401 
L 252.054525 262.125451 
L 253.694194 263.935256 
L 255.333864 262.387836 
L 256.973533 264.226043 
L 258.613202 262.241641 
L 260.252872 263.156115 
L 261.892541 263.730744 
L 263.532211 261.957176 
L 265.17188 263.926353 
L 266.81155 260.937018 
L 268.451219 261.077426 
L 270.090888 263.51439 
L 271.730558 261.788367 
L 273.370227 261.916398 
L 275.009897 251.476921 
L 276.649566 261.246324 
L 278.289236 262.091618 
L 279.928905 264.122763 
L 281.568574 252.451137 
L 283.208244 263.655154 
L 284.847913 262.33397 
L 286.487583 261.595251 
L 288.127252 261.446652 
L 289.766921 263.954577 
L 291.406591 262.841111 
L 293.04626 264.188203 
L 294.68593 262.379912 
L 296.325599 264.001854 
L 297.965269 259.014407 
L 299.604938 263.005825 
L 301.244607 260.240501 
L 302.884277 263.926353 
L 304.523946 261.943465 
L 306.163616 263.710622 
L 307.803285 262.228642 
L 309.442955 258.800813 
L 311.082624 261.961895 
L 312.722293 264.108874 
L 314.361963 263.069217 
L 316.001632 242.85829 
L 317.641302 261.456268 
L 319.280971 255.870063 
L 320.92064 261.687668 
L 322.56031 263.431766 
L 324.199979 261.874463 
L 325.839649 260.6067 
L 327.479318 264.066226 
L 329.118988 252.230955 
L 330.758657 250.035007 
L 332.398326 261.859416 
L 334.037996 256.013498 
L 335.677665 261.253091 
L 337.317335 258.544571 
L 338.957004 262.690019 
L 340.596674 261.748479 
L 342.236343 263.103496 
L 343.876012 260.702947 
L 345.515682 264.039605 
L 347.155351 254.155169 
L 348.795021 262.171571 
L 350.43469 263.775261 
L 352.07436 256.983618 
L 353.714029 258.865363 
L 355.353698 260.923396 
L 356.993368 260.463355 
L 358.633037 263.076607 
L 360.272707 263.12611 
L 361.912376 261.010116 
L 363.552045 260.555505 
L 365.191715 260.76714 
L 366.831384 263.410843 
L 368.471054 262.701238 
L 370.110723 263.211494 
L 371.750393 259.479701 
L 373.390062 262.640605 
L 375.029731 261.528119 
L 376.669401 261.571835 
L 378.30907 259.540601 
L 379.94874 259.998149 
L 381.588409 263.670735 
L 383.228079 263.659427 
L 384.867748 262.302363 
L 386.507417 262.204603 
L 388.147087 263.562291 
L 389.786756 261.64422 
L 391.426426 264.317838 
L 393.066095 260.872379 
L 394.705764 263.011256 
L 396.345434 263.085154 
L 397.985103 264.296202 
L 399.624773 259.944996 
L 399.624773 259.944996 
" style="fill:none;stroke:#2ca02c;stroke-linecap:square;stroke-width:0.5;"/>
   </g>
   <g id="patch_3">
    <path d="M 58.7375 276.812 
L 58.7375 10.7 
" style="fill:none;stroke:#000000;stroke-linecap:square;stroke-linejoin:miter;stroke-width:0.8;"/>
   </g>
   <g id="patch_4">
    <path d="M 415.8575 276.812 
L 415.8575 10.7 
" style="fill:none;stroke:#000000;stroke-linecap:square;stroke-linejoin:miter;stroke-width:0.8;"/>
   </g>
   <g id="patch_5">
    <path d="M 58.7375 276.812 
L 415.8575 276.812 
" style="fill:none;stroke:#000000;stroke-linecap:square;stroke-linejoin:miter;stroke-width:0.8;"/>
   </g>
   <g id="patch_6">
    <path d="M 58.7375 10.7 
L 415.8575 10.7 
" style="fill:none;stroke:#000000;stroke-linecap:square;stroke-linejoin:miter;stroke-width:0.8;"/>
   </g>
  </g>
 </g>
 <defs>
  <clipPath id="pcbad3539e3">
   <rect height="266.112" width="357.12" x="58.7375" y="10.7"/>
  </clipPath>
 </defs>
</svg>
