<?xml version="1.0" encoding="utf-8" standalone="no"?>
<!DOCTYPE svg PUBLIC "-//W3C//DTD SVG 1.1//EN"
  "http://www.w3.org/Graphics/SVG/1.1/DTD/svg11.dtd">
<!-- Created with matplotlib (http://matplotlib.org/) -->
<svg height="300pt" version="1.1" viewBox="0 0 401 300" width="401pt" xmlns="http://www.w3.org/2000/svg" xmlns:xlink="http://www.w3.org/1999/xlink">
 <defs>
  <style type="text/css">
*{stroke-linecap:butt;stroke-linejoin:round;}
  </style>
 </defs>
 <g id="figure_1">
  <g id="patch_1">
   <path d="M 0 300.690125 
L 401.1075 300.690125 
L 401.1075 0 
L 0 0 
z
" style="fill:#ffffff;"/>
  </g>
  <g id="axes_1">
   <g id="patch_2">
    <path d="M 33.2875 276.812 
L 390.4075 276.812 
L 390.4075 10.7 
L 33.2875 10.7 
z
" style="fill:#ffffff;"/>
   </g>
   <g id="matplotlib.axis_1">
    <g id="xtick_1">
     <g id="line2d_1">
      <defs>
       <path d="M 0 0 
L 0 3.5 
" id="m37ec95dc7b" style="stroke:#000000;stroke-width:0.8;"/>
      </defs>
      <g>
       <use style="stroke:#000000;stroke-width:0.8;" x="49.520227" xlink:href="#m37ec95dc7b" y="276.812"/>
      </g>
     </g>
     <g id="text_1">
      <!-- 0 -->
      <defs>
       <path d="M 31.78125 66.40625 
Q 24.171875 66.40625 20.328125 58.90625 
Q 16.5 51.421875 16.5 36.375 
Q 16.5 21.390625 20.328125 13.890625 
Q 24.171875 6.390625 31.78125 6.390625 
Q 39.453125 6.390625 43.28125 13.890625 
Q 47.125 21.390625 47.125 36.375 
Q 47.125 51.421875 43.28125 58.90625 
Q 39.453125 66.40625 31.78125 66.40625 
z
M 31.78125 74.21875 
Q 44.046875 74.21875 50.515625 64.515625 
Q 56.984375 54.828125 56.984375 36.375 
Q 56.984375 17.96875 50.515625 8.265625 
Q 44.046875 -1.421875 31.78125 -1.421875 
Q 19.53125 -1.421875 13.0625 8.265625 
Q 6.59375 17.96875 6.59375 36.375 
Q 6.59375 54.828125 13.0625 64.515625 
Q 19.53125 74.21875 31.78125 74.21875 
z
" id="DejaVuSans-30"/>
      </defs>
      <g transform="translate(46.338977 291.410437)scale(0.1 -0.1)">
       <use xlink:href="#DejaVuSans-30"/>
      </g>
     </g>
    </g>
    <g id="xtick_2">
     <g id="line2d_2">
      <g>
       <use style="stroke:#000000;stroke-width:0.8;" x="90.720043" xlink:href="#m37ec95dc7b" y="276.812"/>
      </g>
     </g>
     <g id="text_2">
      <!-- 25 -->
      <defs>
       <path d="M 19.1875 8.296875 
L 53.609375 8.296875 
L 53.609375 0 
L 7.328125 0 
L 7.328125 8.296875 
Q 12.9375 14.109375 22.625 23.890625 
Q 32.328125 33.6875 34.8125 36.53125 
Q 39.546875 41.84375 41.421875 45.53125 
Q 43.3125 49.21875 43.3125 52.78125 
Q 43.3125 58.59375 39.234375 62.25 
Q 35.15625 65.921875 28.609375 65.921875 
Q 23.96875 65.921875 18.8125 64.3125 
Q 13.671875 62.703125 7.8125 59.421875 
L 7.8125 69.390625 
Q 13.765625 71.78125 18.9375 73 
Q 24.125 74.21875 28.421875 74.21875 
Q 39.75 74.21875 46.484375 68.546875 
Q 53.21875 62.890625 53.21875 53.421875 
Q 53.21875 48.921875 51.53125 44.890625 
Q 49.859375 40.875 45.40625 35.40625 
Q 44.1875 33.984375 37.640625 27.21875 
Q 31.109375 20.453125 19.1875 8.296875 
z
" id="DejaVuSans-32"/>
       <path d="M 10.796875 72.90625 
L 49.515625 72.90625 
L 49.515625 64.59375 
L 19.828125 64.59375 
L 19.828125 46.734375 
Q 21.96875 47.46875 24.109375 47.828125 
Q 26.265625 48.1875 28.421875 48.1875 
Q 40.625 48.1875 47.75 41.5 
Q 54.890625 34.8125 54.890625 23.390625 
Q 54.890625 11.625 47.5625 5.09375 
Q 40.234375 -1.421875 26.90625 -1.421875 
Q 22.3125 -1.421875 17.546875 -0.640625 
Q 12.796875 0.140625 7.71875 1.703125 
L 7.71875 11.625 
Q 12.109375 9.234375 16.796875 8.0625 
Q 21.484375 6.890625 26.703125 6.890625 
Q 35.15625 6.890625 40.078125 11.328125 
Q 45.015625 15.765625 45.015625 23.390625 
Q 45.015625 31 40.078125 35.4375 
Q 35.15625 39.890625 26.703125 39.890625 
Q 22.75 39.890625 18.8125 39.015625 
Q 14.890625 38.140625 10.796875 36.28125 
z
" id="DejaVuSans-35"/>
      </defs>
      <g transform="translate(84.357543 291.410437)scale(0.1 -0.1)">
       <use xlink:href="#DejaVuSans-32"/>
       <use x="63.623047" xlink:href="#DejaVuSans-35"/>
      </g>
     </g>
    </g>
    <g id="xtick_3">
     <g id="line2d_3">
      <g>
       <use style="stroke:#000000;stroke-width:0.8;" x="131.919858" xlink:href="#m37ec95dc7b" y="276.812"/>
      </g>
     </g>
     <g id="text_3">
      <!-- 50 -->
      <g transform="translate(125.557358 291.410437)scale(0.1 -0.1)">
       <use xlink:href="#DejaVuSans-35"/>
       <use x="63.623047" xlink:href="#DejaVuSans-30"/>
      </g>
     </g>
    </g>
    <g id="xtick_4">
     <g id="line2d_4">
      <g>
       <use style="stroke:#000000;stroke-width:0.8;" x="173.119674" xlink:href="#m37ec95dc7b" y="276.812"/>
      </g>
     </g>
     <g id="text_4">
      <!-- 75 -->
      <defs>
       <path d="M 8.203125 72.90625 
L 55.078125 72.90625 
L 55.078125 68.703125 
L 28.609375 0 
L 18.3125 0 
L 43.21875 64.59375 
L 8.203125 64.59375 
z
" id="DejaVuSans-37"/>
      </defs>
      <g transform="translate(166.757174 291.410437)scale(0.1 -0.1)">
       <use xlink:href="#DejaVuSans-37"/>
       <use x="63.623047" xlink:href="#DejaVuSans-35"/>
      </g>
     </g>
    </g>
    <g id="xtick_5">
     <g id="line2d_5">
      <g>
       <use style="stroke:#000000;stroke-width:0.8;" x="214.319489" xlink:href="#m37ec95dc7b" y="276.812"/>
      </g>
     </g>
     <g id="text_5">
      <!-- 100 -->
      <defs>
       <path d="M 12.40625 8.296875 
L 28.515625 8.296875 
L 28.515625 63.921875 
L 10.984375 60.40625 
L 10.984375 69.390625 
L 28.421875 72.90625 
L 38.28125 72.90625 
L 38.28125 8.296875 
L 54.390625 8.296875 
L 54.390625 0 
L 12.40625 0 
z
" id="DejaVuSans-31"/>
      </defs>
      <g transform="translate(204.775739 291.410437)scale(0.1 -0.1)">
       <use xlink:href="#DejaVuSans-31"/>
       <use x="63.623047" xlink:href="#DejaVuSans-30"/>
       <use x="127.246094" xlink:href="#DejaVuSans-30"/>
      </g>
     </g>
    </g>
    <g id="xtick_6">
     <g id="line2d_6">
      <g>
       <use style="stroke:#000000;stroke-width:0.8;" x="255.519304" xlink:href="#m37ec95dc7b" y="276.812"/>
      </g>
     </g>
     <g id="text_6">
      <!-- 125 -->
      <g transform="translate(245.975554 291.410437)scale(0.1 -0.1)">
       <use xlink:href="#DejaVuSans-31"/>
       <use x="63.623047" xlink:href="#DejaVuSans-32"/>
       <use x="127.246094" xlink:href="#DejaVuSans-35"/>
      </g>
     </g>
    </g>
    <g id="xtick_7">
     <g id="line2d_7">
      <g>
       <use style="stroke:#000000;stroke-width:0.8;" x="296.71912" xlink:href="#m37ec95dc7b" y="276.812"/>
      </g>
     </g>
     <g id="text_7">
      <!-- 150 -->
      <g transform="translate(287.17537 291.410437)scale(0.1 -0.1)">
       <use xlink:href="#DejaVuSans-31"/>
       <use x="63.623047" xlink:href="#DejaVuSans-35"/>
       <use x="127.246094" xlink:href="#DejaVuSans-30"/>
      </g>
     </g>
    </g>
    <g id="xtick_8">
     <g id="line2d_8">
      <g>
       <use style="stroke:#000000;stroke-width:0.8;" x="337.918935" xlink:href="#m37ec95dc7b" y="276.812"/>
      </g>
     </g>
     <g id="text_8">
      <!-- 175 -->
      <g transform="translate(328.375185 291.410437)scale(0.1 -0.1)">
       <use xlink:href="#DejaVuSans-31"/>
       <use x="63.623047" xlink:href="#DejaVuSans-37"/>
       <use x="127.246094" xlink:href="#DejaVuSans-35"/>
      </g>
     </g>
    </g>
    <g id="xtick_9">
     <g id="line2d_9">
      <g>
       <use style="stroke:#000000;stroke-width:0.8;" x="379.118751" xlink:href="#m37ec95dc7b" y="276.812"/>
      </g>
     </g>
     <g id="text_9">
      <!-- 200 -->
      <g transform="translate(369.575001 291.410437)scale(0.1 -0.1)">
       <use xlink:href="#DejaVuSans-32"/>
       <use x="63.623047" xlink:href="#DejaVuSans-30"/>
       <use x="127.246094" xlink:href="#DejaVuSans-30"/>
      </g>
     </g>
    </g>
   </g>
   <g id="matplotlib.axis_2">
    <g id="ytick_1">
     <g id="line2d_10">
      <defs>
       <path d="M 0 0 
L -3.5 0 
" id="m79fe0235ec" style="stroke:#000000;stroke-width:0.8;"/>
      </defs>
      <g>
       <use style="stroke:#000000;stroke-width:0.8;" x="33.2875" xlink:href="#m79fe0235ec" y="264.716"/>
      </g>
     </g>
     <g id="text_10">
      <!-- 0 -->
      <g transform="translate(19.925 268.515219)scale(0.1 -0.1)">
       <use xlink:href="#DejaVuSans-30"/>
      </g>
     </g>
    </g>
    <g id="ytick_2">
     <g id="line2d_11">
      <g>
       <use style="stroke:#000000;stroke-width:0.8;" x="33.2875" xlink:href="#m79fe0235ec" y="216.332"/>
      </g>
     </g>
     <g id="text_11">
      <!-- 20 -->
      <g transform="translate(13.5625 220.131219)scale(0.1 -0.1)">
       <use xlink:href="#DejaVuSans-32"/>
       <use x="63.623047" xlink:href="#DejaVuSans-30"/>
      </g>
     </g>
    </g>
    <g id="ytick_3">
     <g id="line2d_12">
      <g>
       <use style="stroke:#000000;stroke-width:0.8;" x="33.2875" xlink:href="#m79fe0235ec" y="167.948"/>
      </g>
     </g>
     <g id="text_12">
      <!-- 40 -->
      <defs>
       <path d="M 37.796875 64.3125 
L 12.890625 25.390625 
L 37.796875 25.390625 
z
M 35.203125 72.90625 
L 47.609375 72.90625 
L 47.609375 25.390625 
L 58.015625 25.390625 
L 58.015625 17.1875 
L 47.609375 17.1875 
L 47.609375 0 
L 37.796875 0 
L 37.796875 17.1875 
L 4.890625 17.1875 
L 4.890625 26.703125 
z
" id="DejaVuSans-34"/>
      </defs>
      <g transform="translate(13.5625 171.747219)scale(0.1 -0.1)">
       <use xlink:href="#DejaVuSans-34"/>
       <use x="63.623047" xlink:href="#DejaVuSans-30"/>
      </g>
     </g>
    </g>
    <g id="ytick_4">
     <g id="line2d_13">
      <g>
       <use style="stroke:#000000;stroke-width:0.8;" x="33.2875" xlink:href="#m79fe0235ec" y="119.564"/>
      </g>
     </g>
     <g id="text_13">
      <!-- 60 -->
      <defs>
       <path d="M 33.015625 40.375 
Q 26.375 40.375 22.484375 35.828125 
Q 18.609375 31.296875 18.609375 23.390625 
Q 18.609375 15.53125 22.484375 10.953125 
Q 26.375 6.390625 33.015625 6.390625 
Q 39.65625 6.390625 43.53125 10.953125 
Q 47.40625 15.53125 47.40625 23.390625 
Q 47.40625 31.296875 43.53125 35.828125 
Q 39.65625 40.375 33.015625 40.375 
z
M 52.59375 71.296875 
L 52.59375 62.3125 
Q 48.875 64.0625 45.09375 64.984375 
Q 41.3125 65.921875 37.59375 65.921875 
Q 27.828125 65.921875 22.671875 59.328125 
Q 17.53125 52.734375 16.796875 39.40625 
Q 19.671875 43.65625 24.015625 45.921875 
Q 28.375 48.1875 33.59375 48.1875 
Q 44.578125 48.1875 50.953125 41.515625 
Q 57.328125 34.859375 57.328125 23.390625 
Q 57.328125 12.15625 50.6875 5.359375 
Q 44.046875 -1.421875 33.015625 -1.421875 
Q 20.359375 -1.421875 13.671875 8.265625 
Q 6.984375 17.96875 6.984375 36.375 
Q 6.984375 53.65625 15.1875 63.9375 
Q 23.390625 74.21875 37.203125 74.21875 
Q 40.921875 74.21875 44.703125 73.484375 
Q 48.484375 72.75 52.59375 71.296875 
z
" id="DejaVuSans-36"/>
      </defs>
      <g transform="translate(13.5625 123.363219)scale(0.1 -0.1)">
       <use xlink:href="#DejaVuSans-36"/>
       <use x="63.623047" xlink:href="#DejaVuSans-30"/>
      </g>
     </g>
    </g>
    <g id="ytick_5">
     <g id="line2d_14">
      <g>
       <use style="stroke:#000000;stroke-width:0.8;" x="33.2875" xlink:href="#m79fe0235ec" y="71.18"/>
      </g>
     </g>
     <g id="text_14">
      <!-- 80 -->
      <defs>
       <path d="M 31.78125 34.625 
Q 24.75 34.625 20.71875 30.859375 
Q 16.703125 27.09375 16.703125 20.515625 
Q 16.703125 13.921875 20.71875 10.15625 
Q 24.75 6.390625 31.78125 6.390625 
Q 38.8125 6.390625 42.859375 10.171875 
Q 46.921875 13.96875 46.921875 20.515625 
Q 46.921875 27.09375 42.890625 30.859375 
Q 38.875 34.625 31.78125 34.625 
z
M 21.921875 38.8125 
Q 15.578125 40.375 12.03125 44.71875 
Q 8.5 49.078125 8.5 55.328125 
Q 8.5 64.0625 14.71875 69.140625 
Q 20.953125 74.21875 31.78125 74.21875 
Q 42.671875 74.21875 48.875 69.140625 
Q 55.078125 64.0625 55.078125 55.328125 
Q 55.078125 49.078125 51.53125 44.71875 
Q 48 40.375 41.703125 38.8125 
Q 48.828125 37.15625 52.796875 32.3125 
Q 56.78125 27.484375 56.78125 20.515625 
Q 56.78125 9.90625 50.3125 4.234375 
Q 43.84375 -1.421875 31.78125 -1.421875 
Q 19.734375 -1.421875 13.25 4.234375 
Q 6.78125 9.90625 6.78125 20.515625 
Q 6.78125 27.484375 10.78125 32.3125 
Q 14.796875 37.15625 21.921875 38.8125 
z
M 18.3125 54.390625 
Q 18.3125 48.734375 21.84375 45.5625 
Q 25.390625 42.390625 31.78125 42.390625 
Q 38.140625 42.390625 41.71875 45.5625 
Q 45.3125 48.734375 45.3125 54.390625 
Q 45.3125 60.0625 41.71875 63.234375 
Q 38.140625 66.40625 31.78125 66.40625 
Q 25.390625 66.40625 21.84375 63.234375 
Q 18.3125 60.0625 18.3125 54.390625 
z
" id="DejaVuSans-38"/>
      </defs>
      <g transform="translate(13.5625 74.979219)scale(0.1 -0.1)">
       <use xlink:href="#DejaVuSans-38"/>
       <use x="63.623047" xlink:href="#DejaVuSans-30"/>
      </g>
     </g>
    </g>
    <g id="ytick_6">
     <g id="line2d_15">
      <g>
       <use style="stroke:#000000;stroke-width:0.8;" x="33.2875" xlink:href="#m79fe0235ec" y="22.796"/>
      </g>
     </g>
     <g id="text_15">
      <!-- 100 -->
      <g transform="translate(7.2 26.595219)scale(0.1 -0.1)">
       <use xlink:href="#DejaVuSans-31"/>
       <use x="63.623047" xlink:href="#DejaVuSans-30"/>
       <use x="127.246094" xlink:href="#DejaVuSans-30"/>
      </g>
     </g>
    </g>
   </g>
   <g id="line2d_16">
    <path clip-path="url(#p36a651a6ba)" d="M 49.520227 264.716 
L 51.16822 105.0488 
L 52.816213 63.9224 
L 54.464205 97.7912 
L 56.112198 136.4984 
L 57.76019 78.4376 
L 59.408183 151.0136 
L 61.056176 165.5288 
L 62.704168 182.4632 
L 64.352161 262.2968 
L 66.000153 255.0392 
L 67.648146 226.0088 
L 69.296139 223.5896 
L 70.944131 240.524 
L 72.592124 262.2968 
L 75.888109 262.2968 
L 77.536102 199.3976 
L 79.184094 165.5288 
L 80.832087 158.2712 
L 82.48008 160.6904 
L 84.128072 240.524 
L 85.776065 262.2968 
L 90.720043 262.2968 
L 92.368035 240.524 
L 94.016028 213.9128 
L 95.664021 199.3976 
L 97.312013 143.756 
L 98.960006 134.0792 
L 100.607998 143.756 
L 102.255991 167.948 
L 103.903984 230.8472 
L 105.551976 247.7816 
L 107.199969 240.524 
L 108.847961 216.332 
L 110.495954 226.0088 
L 112.143947 223.5896 
L 113.791939 206.6552 
L 115.439932 233.2664 
L 117.087925 245.3624 
L 118.735917 233.2664 
L 120.38391 226.0088 
L 122.031902 213.9128 
L 123.679895 192.14 
L 125.327888 182.4632 
L 126.97588 230.8472 
L 128.623873 199.3976 
L 130.271865 199.3976 
L 133.567851 247.7816 
L 135.215843 262.2968 
L 136.863836 247.7816 
L 138.511829 257.4584 
L 141.807814 143.756 
L 143.455806 172.7864 
L 145.103799 112.3064 
L 146.751792 76.0184 
L 148.399784 76.0184 
L 150.047777 61.5032 
L 151.695769 119.564 
L 153.343762 151.0136 
L 154.991755 180.044 
L 156.639747 233.2664 
L 158.28774 192.14 
L 159.935733 201.8168 
L 161.583725 216.332 
L 163.231718 192.14 
L 164.87971 109.8872 
L 166.527703 95.372 
L 168.175696 136.4984 
L 169.823688 141.3368 
L 171.471681 105.0488 
L 173.119674 112.3064 
L 174.767666 134.0792 
L 176.415659 141.3368 
L 178.063651 141.3368 
L 179.711644 158.2712 
L 181.359637 182.4632 
L 183.007629 160.6904 
L 184.655622 158.2712 
L 186.303614 134.0792 
L 187.951607 117.1448 
L 189.5996 143.756 
L 191.247592 119.564 
L 192.895585 117.1448 
L 194.543578 143.756 
L 196.19157 175.2056 
L 197.839563 201.8168 
L 199.487555 194.5592 
L 201.135548 175.2056 
L 202.783541 182.4632 
L 204.431533 172.7864 
L 206.079526 201.8168 
L 207.727518 199.3976 
L 209.375511 167.948 
L 211.023504 172.7864 
L 212.671496 160.6904 
L 214.319489 165.5288 
L 215.967482 167.948 
L 217.615474 175.2056 
L 219.263467 201.8168 
L 220.911459 199.3976 
L 222.559452 226.0088 
L 225.855437 226.0088 
L 227.50343 233.2664 
L 229.151422 206.6552 
L 230.799415 233.2664 
L 232.447408 223.5896 
L 234.0954 201.8168 
L 235.743393 238.1048 
L 237.391386 206.6552 
L 239.039378 199.3976 
L 240.687371 216.332 
L 242.335363 192.14 
L 243.983356 206.6552 
L 245.631349 209.0744 
L 247.279341 199.3976 
L 248.927334 209.0744 
L 250.575326 167.948 
L 252.223319 192.14 
L 253.871312 192.14 
L 255.519304 175.2056 
L 257.167297 194.5592 
L 258.81529 167.948 
L 260.463282 175.2056 
L 262.111275 151.0136 
L 263.759267 172.7864 
L 265.40726 158.2712 
L 267.055253 209.0744 
L 268.703245 223.5896 
L 270.351238 192.14 
L 271.999231 165.5288 
L 273.647223 126.8216 
L 275.295216 129.2408 
L 276.943208 126.8216 
L 278.591201 151.0136 
L 280.239194 199.3976 
L 281.887186 201.8168 
L 283.535179 230.8472 
L 285.183171 209.0744 
L 286.831164 194.5592 
L 288.479157 192.14 
L 290.127149 182.4632 
L 291.775142 206.6552 
L 293.423135 182.4632 
L 295.071127 165.5288 
L 296.71912 141.3368 
L 298.367112 134.0792 
L 300.015105 172.7864 
L 301.663098 180.044 
L 303.31109 180.044 
L 304.959083 199.3976 
L 306.607075 143.756 
L 308.255068 134.0792 
L 309.903061 148.5944 
L 313.199046 148.5944 
L 314.847039 160.6904 
L 316.495031 165.5288 
L 318.143024 134.0792 
L 319.791016 136.4984 
L 321.439009 151.0136 
L 323.087002 172.7864 
L 324.734994 192.14 
L 326.382987 160.6904 
L 328.030979 109.8872 
L 329.678972 78.4376 
L 331.326965 68.7608 
L 332.974957 97.7912 
L 332.974957 97.7912 
" style="fill:none;stroke:#1f77b4;stroke-linecap:square;stroke-width:0.5;"/>
   </g>
   <g id="line2d_17">
    <path clip-path="url(#p36a651a6ba)" d="M 49.520227 264.716 
L 51.16822 165.5288 
L 52.816213 160.6904 
L 57.76019 160.6904 
L 59.408183 180.044 
L 61.056176 165.5288 
L 62.704168 180.044 
L 64.352161 180.044 
L 66.000153 192.14 
L 72.592124 192.14 
L 74.240117 199.3976 
L 75.888109 194.5592 
L 77.536102 238.1048 
L 79.184094 226.0088 
L 80.832087 209.0744 
L 82.48008 206.6552 
L 84.128072 192.14 
L 85.776065 141.3368 
L 87.424057 172.7864 
L 89.07205 141.3368 
L 90.720043 117.1448 
L 92.368035 165.5288 
L 94.016028 134.0792 
L 95.664021 165.5288 
L 97.312013 194.5592 
L 98.960006 148.5944 
L 100.607998 167.948 
L 102.255991 129.2408 
L 103.903984 112.3064 
L 105.551976 167.948 
L 107.199969 151.0136 
L 110.495954 151.0136 
L 112.143947 143.756 
L 113.791939 143.756 
L 115.439932 167.948 
L 117.087925 167.948 
L 120.38391 148.5944 
L 122.031902 134.0792 
L 123.679895 126.8216 
L 125.327888 76.0184 
L 126.97588 102.6296 
L 128.623873 109.8872 
L 130.271865 136.4984 
L 131.919858 180.044 
L 133.567851 180.044 
L 135.215843 199.3976 
L 136.863836 192.14 
L 138.511829 160.6904 
L 140.159821 141.3368 
L 141.807814 119.564 
L 143.455806 117.1448 
L 145.103799 143.756 
L 146.751792 134.0792 
L 148.399784 151.0136 
L 150.047777 136.4984 
L 151.695769 136.4984 
L 153.343762 143.756 
L 154.991755 172.7864 
L 156.639747 172.7864 
L 158.28774 182.4632 
L 159.935733 201.8168 
L 161.583725 141.3368 
L 163.231718 143.756 
L 164.87971 158.2712 
L 166.527703 167.948 
L 168.175696 230.8472 
L 169.823688 240.524 
L 171.471681 238.1048 
L 173.119674 206.6552 
L 174.767666 172.7864 
L 176.415659 165.5288 
L 178.063651 148.5944 
L 179.711644 141.3368 
L 181.359637 136.4984 
L 183.007629 172.7864 
L 184.655622 180.044 
L 186.303614 216.332 
L 187.951607 233.2664 
L 189.5996 199.3976 
L 192.895585 247.7816 
L 194.543578 262.2968 
L 196.19157 262.2968 
L 197.839563 230.8472 
L 199.487555 182.4632 
L 201.135548 158.2712 
L 202.783541 192.14 
L 204.431533 201.8168 
L 206.079526 223.5896 
L 207.727518 213.9128 
L 209.375511 213.9128 
L 211.023504 230.8472 
L 212.671496 216.332 
L 214.319489 216.332 
L 215.967482 238.1048 
L 217.615474 238.1048 
L 219.263467 192.14 
L 220.911459 167.948 
L 222.559452 192.14 
L 224.207445 206.6552 
L 225.855437 230.8472 
L 227.50343 216.332 
L 230.799415 167.948 
L 232.447408 136.4984 
L 234.0954 165.5288 
L 235.743393 192.14 
L 237.391386 175.2056 
L 239.039378 182.4632 
L 240.687371 167.948 
L 242.335363 165.5288 
L 243.983356 165.5288 
L 245.631349 129.2408 
L 247.279341 151.0136 
L 248.927334 158.2712 
L 250.575326 141.3368 
L 252.223319 192.14 
L 253.871312 180.044 
L 257.167297 180.044 
L 258.81529 158.2712 
L 260.463282 182.4632 
L 262.111275 175.2056 
L 263.759267 158.2712 
L 265.40726 167.948 
L 268.703245 148.5944 
L 270.351238 206.6552 
L 271.999231 194.5592 
L 280.239194 194.5592 
L 281.887186 172.7864 
L 283.535179 175.2056 
L 285.183171 175.2056 
L 286.831164 151.0136 
L 288.479157 148.5944 
L 290.127149 151.0136 
L 291.775142 167.948 
L 293.423135 167.948 
L 295.071127 172.7864 
L 296.71912 201.8168 
L 298.367112 206.6552 
L 300.015105 213.9128 
L 301.663098 201.8168 
L 303.31109 165.5288 
L 304.959083 167.948 
L 308.255068 129.2408 
L 309.903061 129.2408 
L 311.551053 148.5944 
L 313.199046 136.4984 
L 314.847039 129.2408 
L 316.495031 201.8168 
L 318.143024 194.5592 
L 319.791016 201.8168 
L 321.439009 213.9128 
L 323.087002 167.948 
L 324.734994 158.2712 
L 324.734994 158.2712 
" style="fill:none;stroke:#ff7f0e;stroke-linecap:square;stroke-width:0.5;"/>
   </g>
   <g id="line2d_18">
    <path clip-path="url(#p36a651a6ba)" d="M 49.520227 264.716 
L 51.16822 119.564 
L 52.816213 129.2408 
L 54.464205 109.8872 
L 56.112198 143.756 
L 57.76019 141.3368 
L 59.408183 136.4984 
L 61.056176 148.5944 
L 62.704168 102.6296 
L 64.352161 46.988 
L 66.000153 63.9224 
L 67.648146 44.5688 
L 69.296139 37.3112 
L 70.944131 39.7304 
L 72.592124 22.796 
L 74.240117 22.796 
L 75.888109 44.5688 
L 77.536102 95.372 
L 79.184094 119.564 
L 80.832087 148.5944 
L 82.48008 129.2408 
L 84.128072 112.3064 
L 85.776065 109.8872 
L 87.424057 85.6952 
L 89.07205 117.1448 
L 90.720043 119.564 
L 92.368035 112.3064 
L 94.016028 134.0792 
L 95.664021 134.0792 
L 97.312013 148.5944 
L 98.960006 119.564 
L 100.607998 112.3064 
L 102.255991 97.7912 
L 103.903984 68.7608 
L 105.551976 78.4376 
L 107.199969 85.6952 
L 108.847961 102.6296 
L 110.495954 136.4984 
L 112.143947 136.4984 
L 113.791939 158.2712 
L 115.439932 192.14 
L 117.087925 192.14 
L 118.735917 240.524 
L 120.38391 238.1048 
L 122.031902 230.8472 
L 123.679895 199.3976 
L 125.327888 194.5592 
L 126.97588 182.4632 
L 128.623873 151.0136 
L 130.271865 192.14 
L 131.919858 143.756 
L 133.567851 151.0136 
L 135.215843 129.2408 
L 136.863836 119.564 
L 138.511829 117.1448 
L 140.159821 141.3368 
L 141.807814 199.3976 
L 143.455806 180.044 
L 145.103799 201.8168 
L 146.751792 141.3368 
L 148.399784 109.8872 
L 150.047777 117.1448 
L 151.695769 78.4376 
L 153.343762 78.4376 
L 154.991755 102.6296 
L 156.639747 117.1448 
L 158.28774 97.7912 
L 159.935733 109.8872 
L 161.583725 97.7912 
L 163.231718 78.4376 
L 164.87971 76.0184 
L 166.527703 109.8872 
L 168.175696 102.6296 
L 169.823688 117.1448 
L 171.471681 136.4984 
L 173.119674 109.8872 
L 174.767666 119.564 
L 176.415659 148.5944 
L 178.063651 119.564 
L 179.711644 148.5944 
L 181.359637 167.948 
L 183.007629 134.0792 
L 184.655622 194.5592 
L 186.303614 167.948 
L 187.951607 151.0136 
L 189.5996 136.4984 
L 191.247592 119.564 
L 192.895585 126.8216 
L 194.543578 141.3368 
L 196.19157 165.5288 
L 199.487555 151.0136 
L 201.135548 119.564 
L 202.783541 126.8216 
L 204.431533 117.1448 
L 206.079526 129.2408 
L 207.727518 148.5944 
L 209.375511 136.4984 
L 211.023504 126.8216 
L 212.671496 97.7912 
L 214.319489 85.6952 
L 215.967482 112.3064 
L 217.615474 129.2408 
L 219.263467 151.0136 
L 220.911459 167.948 
L 222.559452 141.3368 
L 224.207445 136.4984 
L 225.855437 151.0136 
L 227.50343 126.8216 
L 229.151422 105.0488 
L 230.799415 109.8872 
L 232.447408 109.8872 
L 234.0954 143.756 
L 235.743393 180.044 
L 237.391386 180.044 
L 239.039378 194.5592 
L 240.687371 175.2056 
L 242.335363 136.4984 
L 243.983356 136.4984 
L 245.631349 143.756 
L 247.279341 175.2056 
L 248.927334 148.5944 
L 252.223319 44.5688 
L 253.871312 61.5032 
L 255.519304 97.7912 
L 257.167297 126.8216 
L 258.81529 151.0136 
L 260.463282 117.1448 
L 263.759267 117.1448 
L 265.40726 97.7912 
L 267.055253 63.9224 
L 268.703245 51.8264 
L 270.351238 78.4376 
L 271.999231 112.3064 
L 273.647223 175.2056 
L 275.295216 201.8168 
L 276.943208 209.0744 
L 278.591201 180.044 
L 280.239194 180.044 
L 281.887186 175.2056 
L 283.535179 175.2056 
L 285.183171 172.7864 
L 286.831164 216.332 
L 288.479157 172.7864 
L 290.127149 172.7864 
L 291.775142 158.2712 
L 293.423135 112.3064 
L 295.071127 151.0136 
L 296.71912 119.564 
L 298.367112 126.8216 
L 300.015105 126.8216 
L 301.663098 151.0136 
L 303.31109 160.6904 
L 304.959083 167.948 
L 306.607075 172.7864 
L 308.255068 172.7864 
L 309.903061 143.756 
L 311.551053 165.5288 
L 313.199046 167.948 
L 314.847039 165.5288 
L 316.495031 199.3976 
L 318.143024 192.14 
L 321.439009 129.2408 
L 323.087002 126.8216 
L 324.734994 126.8216 
L 326.382987 134.0792 
L 328.030979 151.0136 
L 329.678972 136.4984 
L 331.326965 148.5944 
L 332.974957 165.5288 
L 334.62295 209.0744 
L 336.270943 230.8472 
L 337.918935 213.9128 
L 339.566928 216.332 
L 341.21492 167.948 
L 342.862913 165.5288 
L 344.510906 141.3368 
L 346.158898 136.4984 
L 347.806891 119.564 
L 349.454883 134.0792 
L 351.102876 141.3368 
L 352.750869 136.4984 
L 354.398861 143.756 
L 356.046854 126.8216 
L 357.694847 134.0792 
L 359.342839 143.756 
L 360.990832 175.2056 
L 362.638824 165.5288 
L 364.286817 160.6904 
L 367.582802 136.4984 
L 369.230795 175.2056 
L 370.878787 206.6552 
L 372.52678 199.3976 
L 372.52678 199.3976 
" style="fill:none;stroke:#2ca02c;stroke-linecap:square;stroke-width:0.5;"/>
   </g>
   <g id="line2d_19">
    <path clip-path="url(#p36a651a6ba)" d="M 49.520227 264.716 
L 51.16822 165.5288 
L 52.816213 167.948 
L 54.464205 175.2056 
L 56.112198 194.5592 
L 57.76019 180.044 
L 59.408183 175.2056 
L 61.056176 148.5944 
L 62.704168 165.5288 
L 64.352161 175.2056 
L 66.000153 134.0792 
L 67.648146 129.2408 
L 69.296139 109.8872 
L 70.944131 117.1448 
L 72.592124 136.4984 
L 74.240117 119.564 
L 75.888109 76.0184 
L 77.536102 63.9224 
L 79.184094 95.372 
L 80.832087 117.1448 
L 82.48008 172.7864 
L 84.128072 182.4632 
L 85.776065 143.756 
L 87.424057 172.7864 
L 89.07205 165.5288 
L 90.720043 172.7864 
L 92.368035 226.0088 
L 94.016028 213.9128 
L 95.664021 216.332 
L 98.960006 230.8472 
L 100.607998 213.9128 
L 102.255991 201.8168 
L 103.903984 194.5592 
L 105.551976 165.5288 
L 107.199969 194.5592 
L 108.847961 213.9128 
L 110.495954 201.8168 
L 112.143947 160.6904 
L 113.791939 180.044 
L 115.439932 180.044 
L 117.087925 165.5288 
L 118.735917 201.8168 
L 120.38391 194.5592 
L 122.031902 216.332 
L 123.679895 255.0392 
L 125.327888 238.1048 
L 126.97588 240.524 
L 128.623873 230.8472 
L 130.271865 194.5592 
L 131.919858 192.14 
L 133.567851 201.8168 
L 135.215843 206.6552 
L 136.863836 199.3976 
L 138.511829 216.332 
L 140.159821 182.4632 
L 143.455806 134.0792 
L 146.751792 182.4632 
L 148.399784 194.5592 
L 150.047777 141.3368 
L 151.695769 129.2408 
L 153.343762 126.8216 
L 154.991755 117.1448 
L 156.639747 119.564 
L 158.28774 95.372 
L 159.935733 129.2408 
L 161.583725 134.0792 
L 163.231718 109.8872 
L 164.87971 109.8872 
L 166.527703 105.0488 
L 168.175696 117.1448 
L 169.823688 126.8216 
L 171.471681 105.0488 
L 173.119674 85.6952 
L 174.767666 102.6296 
L 176.415659 129.2408 
L 178.063651 158.2712 
L 179.711644 182.4632 
L 183.007629 201.8168 
L 184.655622 238.1048 
L 186.303614 238.1048 
L 187.951607 201.8168 
L 189.5996 199.3976 
L 191.247592 180.044 
L 192.895585 167.948 
L 194.543578 182.4632 
L 196.19157 194.5592 
L 197.839563 223.5896 
L 199.487555 194.5592 
L 201.135548 182.4632 
L 202.783541 151.0136 
L 204.431533 71.18 
L 206.079526 95.372 
L 207.727518 85.6952 
L 209.375511 97.7912 
L 211.023504 141.3368 
L 212.671496 143.756 
L 214.319489 151.0136 
L 215.967482 160.6904 
L 217.615474 134.0792 
L 219.263467 117.1448 
L 220.911459 109.8872 
L 222.559452 109.8872 
L 224.207445 141.3368 
L 225.855437 158.2712 
L 227.50343 165.5288 
L 229.151422 141.3368 
L 230.799415 129.2408 
L 232.447408 129.2408 
L 234.0954 143.756 
L 235.743393 172.7864 
L 237.391386 192.14 
L 239.039378 206.6552 
L 240.687371 165.5288 
L 242.335363 175.2056 
L 243.983356 158.2712 
L 245.631349 151.0136 
L 247.279341 216.332 
L 248.927334 209.0744 
L 250.575326 192.14 
L 252.223319 165.5288 
L 253.871312 102.6296 
L 255.519304 112.3064 
L 257.167297 136.4984 
L 258.81529 143.756 
L 260.463282 165.5288 
L 262.111275 151.0136 
L 263.759267 165.5288 
L 267.055253 233.2664 
L 268.703245 226.0088 
L 270.351238 233.2664 
L 271.999231 223.5896 
L 273.647223 201.8168 
L 275.295216 213.9128 
L 276.943208 180.044 
L 278.591201 213.9128 
L 280.239194 209.0744 
L 281.887186 238.1048 
L 283.535179 238.1048 
L 285.183171 175.2056 
L 286.831164 158.2712 
L 288.479157 134.0792 
L 291.775142 182.4632 
L 293.423135 226.0088 
L 295.071127 209.0744 
L 296.71912 209.0744 
L 298.367112 192.14 
L 300.015105 151.0136 
L 301.663098 141.3368 
L 303.31109 126.8216 
L 304.959083 143.756 
L 306.607075 148.5944 
L 308.255068 167.948 
L 309.903061 160.6904 
L 311.551053 151.0136 
L 313.199046 160.6904 
L 314.847039 180.044 
L 316.495031 206.6552 
L 318.143024 201.8168 
L 319.791016 216.332 
L 321.439009 167.948 
L 323.087002 192.14 
L 324.734994 201.8168 
L 326.382987 158.2712 
L 328.030979 167.948 
L 329.678972 141.3368 
L 331.326965 126.8216 
L 332.974957 141.3368 
L 334.62295 134.0792 
L 336.270943 148.5944 
L 337.918935 129.2408 
L 339.566928 141.3368 
L 341.21492 151.0136 
L 342.862913 167.948 
L 344.510906 201.8168 
L 346.158898 206.6552 
L 347.806891 206.6552 
L 349.454883 165.5288 
L 351.102876 175.2056 
L 352.750869 158.2712 
L 354.398861 151.0136 
L 356.046854 199.3976 
L 357.694847 206.6552 
L 359.342839 226.0088 
L 360.990832 238.1048 
L 362.638824 199.3976 
L 364.286817 143.756 
L 365.93481 129.2408 
L 367.582802 136.4984 
L 369.230795 134.0792 
L 370.878787 192.14 
L 370.878787 192.14 
" style="fill:none;stroke:#d62728;stroke-linecap:square;stroke-width:0.5;"/>
   </g>
   <g id="line2d_20">
    <path clip-path="url(#p36a651a6ba)" d="M 49.520227 264.716 
L 51.16822 151.0136 
L 52.816213 175.2056 
L 54.464205 175.2056 
L 56.112198 165.5288 
L 57.76019 158.2712 
L 59.408183 148.5944 
L 61.056176 165.5288 
L 62.704168 175.2056 
L 64.352161 199.3976 
L 66.000153 201.8168 
L 67.648146 180.044 
L 69.296139 148.5944 
L 70.944131 160.6904 
L 72.592124 143.756 
L 74.240117 141.3368 
L 75.888109 151.0136 
L 77.536102 151.0136 
L 79.184094 134.0792 
L 80.832087 160.6904 
L 82.48008 175.2056 
L 84.128072 167.948 
L 85.776065 209.0744 
L 87.424057 201.8168 
L 89.07205 206.6552 
L 90.720043 167.948 
L 92.368035 102.6296 
L 94.016028 83.276 
L 95.664021 85.6952 
L 97.312013 112.3064 
L 98.960006 151.0136 
L 100.607998 160.6904 
L 102.255991 134.0792 
L 103.903984 85.6952 
L 105.551976 76.0184 
L 107.199969 63.9224 
L 108.847961 71.18 
L 110.495954 112.3064 
L 112.143947 148.5944 
L 113.791939 201.8168 
L 115.439932 201.8168 
L 117.087925 182.4632 
L 118.735917 158.2712 
L 120.38391 172.7864 
L 122.031902 182.4632 
L 123.679895 151.0136 
L 125.327888 105.0488 
L 126.97588 97.7912 
L 128.623873 95.372 
L 130.271865 129.2408 
L 131.919858 206.6552 
L 133.567851 201.8168 
L 135.215843 172.7864 
L 136.863836 141.3368 
L 138.511829 68.7608 
L 140.159821 97.7912 
L 141.807814 117.1448 
L 143.455806 126.8216 
L 145.103799 158.2712 
L 146.751792 112.3064 
L 148.399784 119.564 
L 150.047777 129.2408 
L 151.695769 109.8872 
L 153.343762 105.0488 
L 154.991755 112.3064 
L 156.639747 102.6296 
L 158.28774 102.6296 
L 159.935733 85.6952 
L 161.583725 76.0184 
L 163.231718 83.276 
L 164.87971 71.18 
L 166.527703 97.7912 
L 168.175696 95.372 
L 169.823688 109.8872 
L 171.471681 141.3368 
L 173.119674 165.5288 
L 174.767666 182.4632 
L 176.415659 172.7864 
L 178.063651 148.5944 
L 179.711644 119.564 
L 183.007629 134.0792 
L 184.655622 167.948 
L 186.303614 175.2056 
L 187.951607 172.7864 
L 189.5996 148.5944 
L 191.247592 151.0136 
L 192.895585 126.8216 
L 194.543578 126.8216 
L 196.19157 160.6904 
L 197.839563 151.0136 
L 199.487555 180.044 
L 201.135548 180.044 
L 202.783541 158.2712 
L 204.431533 192.14 
L 206.079526 213.9128 
L 207.727518 206.6552 
L 209.375511 230.8472 
L 211.023504 201.8168 
L 212.671496 175.2056 
L 214.319489 175.2056 
L 215.967482 141.3368 
L 217.615474 134.0792 
L 219.263467 151.0136 
L 220.911459 165.5288 
L 222.559452 175.2056 
L 224.207445 194.5592 
L 225.855437 158.2712 
L 227.50343 148.5944 
L 229.151422 136.4984 
L 230.799415 109.8872 
L 232.447408 119.564 
L 234.0954 109.8872 
L 235.743393 78.4376 
L 237.391386 97.7912 
L 239.039378 85.6952 
L 240.687371 119.564 
L 242.335363 160.6904 
L 243.983356 143.756 
L 245.631349 148.5944 
L 247.279341 117.1448 
L 248.927334 109.8872 
L 250.575326 112.3064 
L 252.223319 119.564 
L 253.871312 119.564 
L 255.519304 129.2408 
L 257.167297 160.6904 
L 258.81529 151.0136 
L 260.463282 136.4984 
L 262.111275 129.2408 
L 263.759267 76.0184 
L 265.40726 71.18 
L 267.055253 78.4376 
L 268.703245 61.5032 
L 270.351238 63.9224 
L 271.999231 61.5032 
L 273.647223 71.18 
L 275.295216 102.6296 
L 276.943208 105.0488 
L 278.591201 134.0792 
L 280.239194 105.0488 
L 281.887186 119.564 
L 283.535179 117.1448 
L 285.183171 143.756 
L 286.831164 180.044 
L 288.479157 160.6904 
L 290.127149 160.6904 
L 291.775142 129.2408 
L 293.423135 112.3064 
L 295.071127 105.0488 
L 296.71912 109.8872 
L 298.367112 126.8216 
L 300.015105 136.4984 
L 301.663098 141.3368 
L 303.31109 134.0792 
L 304.959083 134.0792 
L 306.607075 158.2712 
L 308.255068 148.5944 
L 309.903061 180.044 
L 311.551053 180.044 
L 313.199046 182.4632 
L 314.847039 175.2056 
L 316.495031 160.6904 
L 319.791016 160.6904 
L 321.439009 126.8216 
L 323.087002 129.2408 
L 324.734994 117.1448 
L 326.382987 85.6952 
L 328.030979 119.564 
L 329.678972 95.372 
L 331.326965 97.7912 
L 332.974957 85.6952 
L 334.62295 83.276 
L 336.270943 102.6296 
L 337.918935 97.7912 
L 339.566928 85.6952 
L 341.21492 95.372 
L 342.862913 95.372 
L 344.510906 63.9224 
L 346.158898 76.0184 
L 347.806891 117.1448 
L 349.454883 136.4984 
L 351.102876 192.14 
L 352.750869 175.2056 
L 354.398861 143.756 
L 356.046854 136.4984 
L 357.694847 134.0792 
L 359.342839 158.2712 
L 360.990832 158.2712 
L 362.638824 167.948 
L 364.286817 158.2712 
L 365.93481 167.948 
L 367.582802 167.948 
L 369.230795 129.2408 
L 370.878787 119.564 
L 372.52678 117.1448 
L 372.52678 117.1448 
" style="fill:none;stroke:#9467bd;stroke-linecap:square;stroke-width:0.5;"/>
   </g>
   <g id="line2d_21">
    <path clip-path="url(#p36a651a6ba)" d="M 49.520227 264.716 
L 51.16822 109.8872 
L 80.832087 109.8872 
L 82.48008 141.3368 
L 84.128072 167.948 
L 85.776065 158.2712 
L 87.424057 216.332 
L 89.07205 216.332 
L 90.720043 209.0744 
L 92.368035 136.4984 
L 94.016028 136.4984 
L 95.664021 160.6904 
L 97.312013 160.6904 
L 98.960006 97.7912 
L 108.847961 97.7912 
L 110.495954 78.4376 
L 112.143947 78.4376 
L 113.791939 143.756 
L 115.439932 143.756 
L 117.087925 172.7864 
L 118.735917 180.044 
L 120.38391 180.044 
L 122.031902 126.8216 
L 123.679895 95.372 
L 125.327888 97.7912 
L 128.623873 97.7912 
L 130.271865 126.8216 
L 131.919858 136.4984 
L 133.567851 160.6904 
L 135.215843 136.4984 
L 136.863836 143.756 
L 140.159821 143.756 
L 141.807814 165.5288 
L 143.455806 165.5288 
L 145.103799 201.8168 
L 146.751792 201.8168 
L 148.399784 199.3976 
L 150.047777 206.6552 
L 151.695769 160.6904 
L 154.991755 160.6904 
L 156.639747 175.2056 
L 158.28774 175.2056 
L 159.935733 172.7864 
L 178.063651 172.7864 
L 179.711644 226.0088 
L 181.359637 216.332 
L 183.007629 233.2664 
L 184.655622 233.2664 
L 186.303614 206.6552 
L 191.247592 206.6552 
L 192.895585 165.5288 
L 194.543578 199.3976 
L 196.19157 160.6904 
L 197.839563 158.2712 
L 199.487555 158.2712 
L 201.135548 102.6296 
L 202.783541 134.0792 
L 204.431533 192.14 
L 206.079526 180.044 
L 220.911459 180.044 
L 222.559452 216.332 
L 224.207445 216.332 
L 227.50343 136.4984 
L 230.799415 136.4984 
L 232.447408 112.3064 
L 234.0954 117.1448 
L 235.743393 117.1448 
L 237.391386 148.5944 
L 239.039378 172.7864 
L 240.687371 223.5896 
L 242.335363 216.332 
L 243.983356 194.5592 
L 245.631349 175.2056 
L 247.279341 180.044 
L 248.927334 160.6904 
L 250.575326 194.5592 
L 252.223319 194.5592 
L 253.871312 206.6552 
L 255.519304 255.0392 
L 257.167297 201.8168 
L 258.81529 226.0088 
L 260.463282 240.524 
L 262.111275 230.8472 
L 263.759267 262.2968 
L 265.40726 262.2968 
L 267.055253 238.1048 
L 268.703245 223.5896 
L 270.351238 167.948 
L 271.999231 167.948 
L 273.647223 213.9128 
L 275.295216 213.9128 
L 276.943208 247.7816 
L 278.591201 247.7816 
L 280.239194 226.0088 
L 281.887186 247.7816 
L 283.535179 194.5592 
L 285.183171 192.14 
L 286.831164 201.8168 
L 288.479157 192.14 
L 290.127149 201.8168 
L 291.775142 209.0744 
L 293.423135 201.8168 
L 295.071127 192.14 
L 296.71912 175.2056 
L 298.367112 201.8168 
L 300.015105 216.332 
L 301.663098 180.044 
L 303.31109 160.6904 
L 304.959083 160.6904 
L 306.607075 117.1448 
L 308.255068 85.6952 
L 309.903061 119.564 
L 311.551053 167.948 
L 313.199046 199.3976 
L 314.847039 199.3976 
L 316.495031 194.5592 
L 318.143024 194.5592 
L 319.791016 148.5944 
L 321.439009 148.5944 
L 323.087002 180.044 
L 324.734994 180.044 
L 326.382987 160.6904 
L 331.326965 160.6904 
L 332.974957 192.14 
L 336.270943 192.14 
L 337.918935 223.5896 
L 339.566928 209.0744 
L 341.21492 209.0744 
L 342.862913 226.0088 
L 344.510906 226.0088 
L 346.158898 158.2712 
L 347.806891 148.5944 
L 351.102876 148.5944 
L 352.750869 83.276 
L 354.398861 78.4376 
L 357.694847 78.4376 
L 359.342839 102.6296 
L 372.52678 102.6296 
L 372.52678 102.6296 
" style="fill:none;stroke:#8c564b;stroke-linecap:square;stroke-width:0.5;"/>
   </g>
   <g id="line2d_22">
    <path clip-path="url(#p36a651a6ba)" d="M 49.520227 264.716 
L 370.878787 264.716 
L 370.878787 264.716 
" style="fill:none;stroke:#e377c2;stroke-linecap:square;stroke-width:0.5;"/>
   </g>
   <g id="line2d_23">
    <path clip-path="url(#p36a651a6ba)" d="M 49.520227 264.716 
L 51.16822 167.948 
L 52.816213 160.6904 
L 54.464205 160.6904 
L 56.112198 151.0136 
L 57.76019 112.3064 
L 59.408183 83.276 
L 61.056176 68.7608 
L 62.704168 78.4376 
L 64.352161 85.6952 
L 66.000153 112.3064 
L 67.648146 160.6904 
L 69.296139 134.0792 
L 70.944131 143.756 
L 72.592124 134.0792 
L 74.240117 112.3064 
L 75.888109 129.2408 
L 77.536102 109.8872 
L 79.184094 97.7912 
L 80.832087 102.6296 
L 82.48008 102.6296 
L 84.128072 83.276 
L 85.776065 97.7912 
L 87.424057 85.6952 
L 89.07205 63.9224 
L 90.720043 51.8264 
L 92.368035 44.5688 
L 94.016028 71.18 
L 95.664021 68.7608 
L 97.312013 126.8216 
L 98.960006 148.5944 
L 100.607998 126.8216 
L 102.255991 165.5288 
L 103.903984 167.948 
L 105.551976 172.7864 
L 107.199969 167.948 
L 108.847961 158.2712 
L 110.495954 126.8216 
L 112.143947 117.1448 
L 113.791939 95.372 
L 115.439932 85.6952 
L 117.087925 117.1448 
L 118.735917 126.8216 
L 120.38391 160.6904 
L 122.031902 160.6904 
L 123.679895 148.5944 
L 125.327888 180.044 
L 126.97588 182.4632 
L 128.623873 209.0744 
L 130.271865 223.5896 
L 131.919858 209.0744 
L 133.567851 182.4632 
L 135.215843 182.4632 
L 138.511829 105.0488 
L 141.807814 105.0488 
L 143.455806 129.2408 
L 145.103799 117.1448 
L 146.751792 97.7912 
L 148.399784 68.7608 
L 150.047777 85.6952 
L 151.695769 97.7912 
L 153.343762 126.8216 
L 154.991755 158.2712 
L 156.639747 151.0136 
L 158.28774 180.044 
L 159.935733 129.2408 
L 161.583725 129.2408 
L 163.231718 119.564 
L 164.87971 102.6296 
L 166.527703 119.564 
L 168.175696 102.6296 
L 169.823688 117.1448 
L 171.471681 112.3064 
L 173.119674 109.8872 
L 174.767666 126.8216 
L 176.415659 117.1448 
L 178.063651 109.8872 
L 179.711644 109.8872 
L 181.359637 83.276 
L 183.007629 78.4376 
L 184.655622 71.18 
L 186.303614 83.276 
L 187.951607 102.6296 
L 189.5996 109.8872 
L 191.247592 109.8872 
L 192.895585 97.7912 
L 194.543578 117.1448 
L 196.19157 97.7912 
L 197.839563 97.7912 
L 199.487555 112.3064 
L 201.135548 109.8872 
L 202.783541 158.2712 
L 204.431533 165.5288 
L 206.079526 167.948 
L 207.727518 136.4984 
L 209.375511 109.8872 
L 211.023504 129.2408 
L 212.671496 105.0488 
L 214.319489 126.8216 
L 215.967482 117.1448 
L 217.615474 117.1448 
L 219.263467 129.2408 
L 220.911459 129.2408 
L 222.559452 151.0136 
L 224.207445 151.0136 
L 225.855437 160.6904 
L 227.50343 199.3976 
L 229.151422 192.14 
L 230.799415 182.4632 
L 232.447408 180.044 
L 234.0954 136.4984 
L 235.743393 105.0488 
L 237.391386 71.18 
L 240.687371 71.18 
L 242.335363 78.4376 
L 243.983356 109.8872 
L 247.279341 158.2712 
L 248.927334 143.756 
L 250.575326 117.1448 
L 252.223319 71.18 
L 253.871312 46.988 
L 255.519304 39.7304 
L 257.167297 37.3112 
L 258.81529 39.7304 
L 260.463282 39.7304 
L 262.111275 51.8264 
L 263.759267 51.8264 
L 265.40726 44.5688 
L 267.055253 71.18 
L 268.703245 63.9224 
L 271.999231 78.4376 
L 273.647223 63.9224 
L 275.295216 109.8872 
L 276.943208 109.8872 
L 278.591201 97.7912 
L 280.239194 105.0488 
L 281.887186 61.5032 
L 283.535179 54.2456 
L 285.183171 85.6952 
L 286.831164 109.8872 
L 288.479157 136.4984 
L 290.127149 119.564 
L 291.775142 85.6952 
L 293.423135 63.9224 
L 295.071127 46.988 
L 296.71912 68.7608 
L 298.367112 71.18 
L 300.015105 102.6296 
L 301.663098 102.6296 
L 303.31109 112.3064 
L 304.959083 102.6296 
L 306.607075 109.8872 
L 308.255068 97.7912 
L 309.903061 102.6296 
L 311.551053 83.276 
L 313.199046 76.0184 
L 314.847039 97.7912 
L 316.495031 105.0488 
L 318.143024 83.276 
L 319.791016 85.6952 
L 321.439009 71.18 
L 323.087002 51.8264 
L 324.734994 71.18 
L 326.382987 46.988 
L 328.030979 39.7304 
L 329.678972 51.8264 
L 331.326965 76.0184 
L 332.974957 129.2408 
L 334.62295 175.2056 
L 336.270943 182.4632 
L 337.918935 136.4984 
L 339.566928 85.6952 
L 341.21492 51.8264 
L 342.862913 44.5688 
L 344.510906 83.276 
L 347.806891 112.3064 
L 349.454883 136.4984 
L 351.102876 129.2408 
L 352.750869 141.3368 
L 354.398861 158.2712 
L 356.046854 119.564 
L 357.694847 136.4984 
L 359.342839 148.5944 
L 360.990832 109.8872 
L 362.638824 97.7912 
L 364.286817 83.276 
L 365.93481 83.276 
L 367.582802 126.8216 
L 369.230795 148.5944 
L 370.878787 158.2712 
L 372.52678 148.5944 
L 374.174773 83.276 
L 374.174773 83.276 
" style="fill:none;stroke:#7f7f7f;stroke-linecap:square;stroke-width:0.5;"/>
   </g>
   <g id="line2d_24">
    <path clip-path="url(#p36a651a6ba)" d="M 49.520227 264.716 
L 51.16822 172.7864 
L 52.816213 167.948 
L 54.464205 148.5944 
L 57.76019 148.5944 
L 59.408183 119.564 
L 61.056176 119.564 
L 62.704168 112.3064 
L 64.352161 126.8216 
L 66.000153 126.8216 
L 67.648146 148.5944 
L 69.296139 148.5944 
L 70.944131 160.6904 
L 72.592124 158.2712 
L 74.240117 136.4984 
L 75.888109 129.2408 
L 77.536102 97.7912 
L 79.184094 76.0184 
L 80.832087 78.4376 
L 82.48008 85.6952 
L 84.128072 51.8264 
L 85.776065 32.4728 
L 87.424057 32.4728 
L 89.07205 83.276 
L 90.720043 109.8872 
L 92.368035 119.564 
L 94.016028 85.6952 
L 95.664021 78.4376 
L 97.312013 85.6952 
L 98.960006 102.6296 
L 100.607998 165.5288 
L 102.255991 160.6904 
L 103.903984 143.756 
L 105.551976 117.1448 
L 107.199969 102.6296 
L 108.847961 95.372 
L 110.495954 97.7912 
L 112.143947 85.6952 
L 113.791939 71.18 
L 115.439932 63.9224 
L 117.087925 71.18 
L 118.735917 37.3112 
L 120.38391 61.5032 
L 122.031902 97.7912 
L 123.679895 180.044 
L 125.327888 158.2712 
L 126.97588 141.3368 
L 128.623873 46.988 
L 130.271865 46.988 
L 131.919858 71.18 
L 133.567851 102.6296 
L 135.215843 78.4376 
L 138.511829 117.1448 
L 140.159821 134.0792 
L 141.807814 180.044 
L 145.103799 209.0744 
L 146.751792 230.8472 
L 148.399784 206.6552 
L 150.047777 213.9128 
L 151.695769 192.14 
L 153.343762 126.8216 
L 154.991755 129.2408 
L 158.28774 109.8872 
L 159.935733 143.756 
L 161.583725 160.6904 
L 163.231718 119.564 
L 164.87971 129.2408 
L 166.527703 119.564 
L 168.175696 102.6296 
L 169.823688 105.0488 
L 171.471681 102.6296 
L 173.119674 129.2408 
L 174.767666 141.3368 
L 176.415659 160.6904 
L 178.063651 199.3976 
L 179.711644 180.044 
L 181.359637 192.14 
L 183.007629 206.6552 
L 184.655622 167.948 
L 186.303614 175.2056 
L 187.951607 148.5944 
L 189.5996 129.2408 
L 191.247592 175.2056 
L 192.895585 199.3976 
L 194.543578 226.0088 
L 196.19157 247.7816 
L 197.839563 213.9128 
L 199.487555 192.14 
L 201.135548 175.2056 
L 202.783541 209.0744 
L 204.431533 209.0744 
L 206.079526 201.8168 
L 207.727518 158.2712 
L 209.375511 136.4984 
L 211.023504 126.8216 
L 212.671496 105.0488 
L 214.319489 85.6952 
L 215.967482 46.988 
L 217.615474 71.18 
L 219.263467 76.0184 
L 220.911459 97.7912 
L 222.559452 134.0792 
L 224.207445 117.1448 
L 225.855437 102.6296 
L 227.50343 83.276 
L 229.151422 68.7608 
L 230.799415 78.4376 
L 232.447408 102.6296 
L 234.0954 119.564 
L 235.743393 134.0792 
L 237.391386 129.2408 
L 239.039378 141.3368 
L 240.687371 136.4984 
L 242.335363 165.5288 
L 243.983356 160.6904 
L 245.631349 180.044 
L 247.279341 209.0744 
L 248.927334 201.8168 
L 250.575326 216.332 
L 252.223319 160.6904 
L 253.871312 143.756 
L 255.519304 119.564 
L 257.167297 117.1448 
L 258.81529 160.6904 
L 260.463282 167.948 
L 262.111275 182.4632 
L 263.759267 180.044 
L 265.40726 192.14 
L 267.055253 172.7864 
L 268.703245 172.7864 
L 270.351238 180.044 
L 271.999231 158.2712 
L 273.647223 165.5288 
L 275.295216 194.5592 
L 276.943208 192.14 
L 278.591201 172.7864 
L 280.239194 182.4632 
L 281.887186 148.5944 
L 283.535179 148.5944 
L 285.183171 165.5288 
L 286.831164 167.948 
L 288.479157 158.2712 
L 290.127149 151.0136 
L 291.775142 119.564 
L 293.423135 117.1448 
L 295.071127 143.756 
L 296.71912 143.756 
L 298.367112 160.6904 
L 300.015105 136.4984 
L 301.663098 119.564 
L 303.31109 134.0792 
L 304.959083 141.3368 
L 306.607075 141.3368 
L 308.255068 151.0136 
L 309.903061 119.564 
L 311.551053 136.4984 
L 313.199046 143.756 
L 314.847039 143.756 
L 316.495031 172.7864 
L 318.143024 165.5288 
L 319.791016 199.3976 
L 321.439009 194.5592 
L 323.087002 182.4632 
L 324.734994 143.756 
L 326.382987 95.372 
L 328.030979 97.7912 
L 329.678972 105.0488 
L 331.326965 134.0792 
L 332.974957 167.948 
L 334.62295 129.2408 
L 336.270943 112.3064 
L 337.918935 105.0488 
L 339.566928 78.4376 
L 341.21492 85.6952 
L 342.862913 95.372 
L 344.510906 136.4984 
L 346.158898 167.948 
L 347.806891 167.948 
L 349.454883 175.2056 
L 351.102876 141.3368 
L 352.750869 126.8216 
L 354.398861 97.7912 
L 356.046854 97.7912 
L 357.694847 95.372 
L 359.342839 95.372 
L 360.990832 136.4984 
L 362.638824 119.564 
L 362.638824 119.564 
" style="fill:none;stroke:#bcbd22;stroke-linecap:square;stroke-width:0.5;"/>
   </g>
   <g id="line2d_25">
    <path clip-path="url(#p36a651a6ba)" d="M 49.520227 264.716 
L 51.16822 148.5944 
L 52.816213 129.2408 
L 54.464205 160.6904 
L 56.112198 180.044 
L 57.76019 148.5944 
L 59.408183 167.948 
L 61.056176 143.756 
L 62.704168 134.0792 
L 64.352161 182.4632 
L 66.000153 192.14 
L 67.648146 172.7864 
L 69.296139 167.948 
L 70.944131 97.7912 
L 72.592124 68.7608 
L 74.240117 97.7912 
L 75.888109 97.7912 
L 77.536102 126.8216 
L 79.184094 158.2712 
L 80.832087 165.5288 
L 82.48008 206.6552 
L 84.128072 180.044 
L 85.776065 194.5592 
L 87.424057 223.5896 
L 89.07205 199.3976 
L 90.720043 226.0088 
L 92.368035 209.0744 
L 94.016028 158.2712 
L 95.664021 165.5288 
L 97.312013 119.564 
L 98.960006 112.3064 
L 100.607998 109.8872 
L 102.255991 129.2408 
L 103.903984 129.2408 
L 105.551976 172.7864 
L 107.199969 226.0088 
L 108.847961 262.2968 
L 110.495954 238.1048 
L 112.143947 238.1048 
L 113.791939 209.0744 
L 115.439932 160.6904 
L 117.087925 148.5944 
L 118.735917 151.0136 
L 120.38391 109.8872 
L 122.031902 95.372 
L 123.679895 141.3368 
L 125.327888 126.8216 
L 126.97588 126.8216 
L 128.623873 78.4376 
L 130.271865 85.6952 
L 131.919858 102.6296 
L 133.567851 158.2712 
L 135.215843 175.2056 
L 136.863836 182.4632 
L 138.511829 172.7864 
L 140.159821 126.8216 
L 141.807814 126.8216 
L 145.103799 160.6904 
L 146.751792 209.0744 
L 148.399784 192.14 
L 150.047777 148.5944 
L 151.695769 148.5944 
L 153.343762 119.564 
L 154.991755 119.564 
L 159.935733 141.3368 
L 161.583725 126.8216 
L 163.231718 97.7912 
L 164.87971 83.276 
L 166.527703 51.8264 
L 168.175696 76.0184 
L 169.823688 129.2408 
L 171.471681 151.0136 
L 173.119674 158.2712 
L 174.767666 180.044 
L 176.415659 180.044 
L 178.063651 134.0792 
L 179.711644 117.1448 
L 181.359637 95.372 
L 183.007629 61.5032 
L 184.655622 95.372 
L 186.303614 141.3368 
L 187.951607 143.756 
L 189.5996 165.5288 
L 191.247592 175.2056 
L 192.895585 167.948 
L 194.543578 158.2712 
L 196.19157 119.564 
L 197.839563 97.7912 
L 199.487555 97.7912 
L 201.135548 134.0792 
L 202.783541 126.8216 
L 204.431533 126.8216 
L 206.079526 129.2408 
L 207.727518 134.0792 
L 215.967482 134.0792 
L 217.615474 165.5288 
L 219.263467 143.756 
L 220.911459 143.756 
L 222.559452 165.5288 
L 224.207445 136.4984 
L 225.855437 126.8216 
L 227.50343 126.8216 
L 229.151422 167.948 
L 230.799415 141.3368 
L 232.447408 148.5944 
L 234.0954 182.4632 
L 235.743393 158.2712 
L 237.391386 192.14 
L 239.039378 180.044 
L 240.687371 160.6904 
L 242.335363 160.6904 
L 243.983356 158.2712 
L 255.519304 158.2712 
L 257.167297 206.6552 
L 258.81529 175.2056 
L 263.759267 175.2056 
L 265.40726 192.14 
L 267.055253 172.7864 
L 268.703245 143.756 
L 270.351238 134.0792 
L 271.999231 136.4984 
L 273.647223 158.2712 
L 275.295216 167.948 
L 276.943208 182.4632 
L 278.591201 172.7864 
L 280.239194 199.3976 
L 281.887186 175.2056 
L 283.535179 180.044 
L 285.183171 192.14 
L 286.831164 180.044 
L 288.479157 143.756 
L 290.127149 119.564 
L 291.775142 119.564 
L 293.423135 109.8872 
L 295.071127 172.7864 
L 296.71912 192.14 
L 298.367112 165.5288 
L 300.015105 141.3368 
L 301.663098 148.5944 
L 303.31109 199.3976 
L 304.959083 180.044 
L 306.607075 148.5944 
L 308.255068 126.8216 
L 309.903061 97.7912 
L 311.551053 105.0488 
L 313.199046 143.756 
L 314.847039 167.948 
L 316.495031 194.5592 
L 318.143024 226.0088 
L 319.791016 223.5896 
L 321.439009 216.332 
L 323.087002 255.0392 
L 324.734994 213.9128 
L 326.382987 238.1048 
L 328.030979 255.0392 
L 329.678972 199.3976 
L 331.326965 216.332 
L 332.974957 182.4632 
L 334.62295 158.2712 
L 336.270943 175.2056 
L 337.918935 165.5288 
L 339.566928 151.0136 
L 341.21492 167.948 
L 342.862913 143.756 
L 344.510906 148.5944 
L 346.158898 175.2056 
L 347.806891 148.5944 
L 349.454883 167.948 
L 351.102876 160.6904 
L 352.750869 134.0792 
L 354.398861 175.2056 
L 359.342839 175.2056 
L 360.990832 148.5944 
L 362.638824 148.5944 
L 364.286817 158.2712 
L 365.93481 192.14 
L 367.582802 194.5592 
L 369.230795 167.948 
L 369.230795 167.948 
" style="fill:none;stroke:#17becf;stroke-linecap:square;stroke-width:0.5;"/>
   </g>
   <g id="line2d_26">
    <path clip-path="url(#p36a651a6ba)" d="M 49.520227 264.716 
L 51.16822 151.0136 
L 52.816213 151.0136 
L 54.464205 165.5288 
L 56.112198 151.0136 
L 57.76019 167.948 
L 59.408183 160.6904 
L 61.056176 141.3368 
L 62.704168 165.5288 
L 64.352161 180.044 
L 66.000153 165.5288 
L 67.648146 182.4632 
L 69.296139 151.0136 
L 70.944131 160.6904 
L 72.592124 180.044 
L 74.240117 172.7864 
L 75.888109 223.5896 
L 77.536102 192.14 
L 79.184094 182.4632 
L 80.832087 199.3976 
L 82.48008 167.948 
L 84.128072 192.14 
L 85.776065 180.044 
L 87.424057 180.044 
L 90.720043 151.0136 
L 92.368035 158.2712 
L 94.016028 119.564 
L 95.664021 141.3368 
L 97.312013 141.3368 
L 98.960006 160.6904 
L 100.607998 160.6904 
L 102.255991 158.2712 
L 103.903984 160.6904 
L 105.551976 126.8216 
L 107.199969 112.3064 
L 108.847961 134.0792 
L 110.495954 136.4984 
L 112.143947 158.2712 
L 113.791939 167.948 
L 115.439932 136.4984 
L 117.087925 119.564 
L 118.735917 85.6952 
L 120.38391 105.0488 
L 122.031902 112.3064 
L 123.679895 117.1448 
L 125.327888 141.3368 
L 128.623873 141.3368 
L 130.271865 148.5944 
L 131.919858 143.756 
L 135.215843 158.2712 
L 136.863836 158.2712 
L 138.511829 172.7864 
L 140.159821 158.2712 
L 141.807814 158.2712 
L 143.455806 160.6904 
L 145.103799 109.8872 
L 146.751792 117.1448 
L 148.399784 112.3064 
L 150.047777 95.372 
L 151.695769 117.1448 
L 153.343762 126.8216 
L 154.991755 117.1448 
L 156.639747 141.3368 
L 158.28774 136.4984 
L 159.935733 117.1448 
L 161.583725 141.3368 
L 163.231718 136.4984 
L 164.87971 148.5944 
L 166.527703 167.948 
L 168.175696 165.5288 
L 169.823688 167.948 
L 171.471681 158.2712 
L 173.119674 160.6904 
L 176.415659 160.6904 
L 178.063651 165.5288 
L 179.711644 167.948 
L 181.359637 192.14 
L 183.007629 175.2056 
L 184.655622 182.4632 
L 186.303614 194.5592 
L 187.951607 158.2712 
L 189.5996 165.5288 
L 191.247592 165.5288 
L 192.895585 148.5944 
L 197.839563 126.8216 
L 201.135548 141.3368 
L 202.783541 136.4984 
L 204.431533 129.2408 
L 206.079526 143.756 
L 207.727518 129.2408 
L 209.375511 136.4984 
L 211.023504 160.6904 
L 212.671496 129.2408 
L 214.319489 136.4984 
L 215.967482 126.8216 
L 217.615474 112.3064 
L 219.263467 102.6296 
L 220.911459 112.3064 
L 222.559452 102.6296 
L 225.855437 151.0136 
L 227.50343 172.7864 
L 229.151422 199.3976 
L 230.799415 180.044 
L 232.447408 148.5944 
L 234.0954 148.5944 
L 235.743393 117.1448 
L 237.391386 119.564 
L 239.039378 148.5944 
L 240.687371 180.044 
L 242.335363 199.3976 
L 243.983356 199.3976 
L 245.631349 194.5592 
L 248.927334 165.5288 
L 250.575326 180.044 
L 252.223319 165.5288 
L 253.871312 182.4632 
L 255.519304 182.4632 
L 257.167297 165.5288 
L 258.81529 165.5288 
L 260.463282 134.0792 
L 262.111275 134.0792 
L 263.759267 126.8216 
L 265.40726 136.4984 
L 267.055253 143.756 
L 268.703245 136.4984 
L 270.351238 141.3368 
L 271.999231 151.0136 
L 273.647223 201.8168 
L 275.295216 180.044 
L 276.943208 209.0744 
L 278.591201 182.4632 
L 280.239194 148.5944 
L 281.887186 151.0136 
L 283.535179 165.5288 
L 285.183171 167.948 
L 286.831164 192.14 
L 288.479157 223.5896 
L 290.127149 192.14 
L 291.775142 199.3976 
L 293.423135 182.4632 
L 295.071127 175.2056 
L 296.71912 172.7864 
L 298.367112 194.5592 
L 300.015105 160.6904 
L 301.663098 158.2712 
L 303.31109 160.6904 
L 304.959083 129.2408 
L 306.607075 143.756 
L 308.255068 141.3368 
L 309.903061 136.4984 
L 311.551053 117.1448 
L 313.199046 141.3368 
L 314.847039 151.0136 
L 316.495031 141.3368 
L 318.143024 182.4632 
L 319.791016 165.5288 
L 321.439009 136.4984 
L 323.087002 151.0136 
L 324.734994 136.4984 
L 326.382987 129.2408 
L 328.030979 148.5944 
L 329.678972 136.4984 
L 331.326965 129.2408 
L 332.974957 134.0792 
L 334.62295 109.8872 
L 336.270943 119.564 
L 337.918935 136.4984 
L 339.566928 136.4984 
L 342.862913 160.6904 
L 344.510906 141.3368 
L 346.158898 160.6904 
L 347.806891 160.6904 
L 349.454883 148.5944 
L 351.102876 175.2056 
L 352.750869 160.6904 
L 354.398861 167.948 
L 356.046854 172.7864 
L 357.694847 160.6904 
L 359.342839 194.5592 
L 360.990832 175.2056 
L 362.638824 180.044 
L 364.286817 194.5592 
L 365.93481 192.14 
L 367.582802 209.0744 
L 369.230795 199.3976 
L 370.878787 182.4632 
L 372.52678 160.6904 
L 372.52678 160.6904 
" style="fill:none;stroke:#1f77b4;stroke-linecap:square;stroke-width:0.5;"/>
   </g>
   <g id="line2d_27">
    <path clip-path="url(#p36a651a6ba)" d="M 49.520227 264.716 
L 51.16822 201.8168 
L 52.816213 199.3976 
L 54.464205 206.6552 
L 56.112198 167.948 
L 57.76019 141.3368 
L 59.408183 192.14 
L 61.056176 160.6904 
L 62.704168 194.5592 
L 64.352161 199.3976 
L 66.000153 141.3368 
L 67.648146 158.2712 
L 69.296139 165.5288 
L 70.944131 143.756 
L 72.592124 165.5288 
L 74.240117 158.2712 
L 75.888109 148.5944 
L 77.536102 134.0792 
L 79.184094 105.0488 
L 80.832087 78.4376 
L 82.48008 68.7608 
L 84.128072 83.276 
L 85.776065 112.3064 
L 87.424057 117.1448 
L 89.07205 117.1448 
L 90.720043 165.5288 
L 92.368035 165.5288 
L 94.016028 167.948 
L 95.664021 148.5944 
L 97.312013 141.3368 
L 98.960006 158.2712 
L 100.607998 160.6904 
L 102.255991 165.5288 
L 103.903984 172.7864 
L 105.551976 143.756 
L 108.847961 129.2408 
L 110.495954 97.7912 
L 112.143947 126.8216 
L 113.791939 141.3368 
L 115.439932 136.4984 
L 117.087925 158.2712 
L 118.735917 151.0136 
L 120.38391 165.5288 
L 122.031902 129.2408 
L 123.679895 167.948 
L 125.327888 167.948 
L 126.97588 160.6904 
L 128.623873 192.14 
L 130.271865 126.8216 
L 131.919858 119.564 
L 133.567851 134.0792 
L 135.215843 136.4984 
L 136.863836 167.948 
L 138.511829 167.948 
L 140.159821 165.5288 
L 143.455806 151.0136 
L 146.751792 117.1448 
L 148.399784 117.1448 
L 151.695769 141.3368 
L 153.343762 148.5944 
L 154.991755 141.3368 
L 156.639747 143.756 
L 158.28774 119.564 
L 159.935733 134.0792 
L 161.583725 160.6904 
L 163.231718 143.756 
L 164.87971 172.7864 
L 166.527703 180.044 
L 168.175696 160.6904 
L 169.823688 158.2712 
L 171.471681 160.6904 
L 173.119674 129.2408 
L 174.767666 143.756 
L 176.415659 165.5288 
L 178.063651 165.5288 
L 179.711644 167.948 
L 181.359637 180.044 
L 183.007629 167.948 
L 184.655622 180.044 
L 186.303614 180.044 
L 187.951607 165.5288 
L 189.5996 160.6904 
L 191.247592 151.0136 
L 192.895585 172.7864 
L 194.543578 192.14 
L 196.19157 209.0744 
L 197.839563 216.332 
L 199.487555 194.5592 
L 201.135548 160.6904 
L 202.783541 141.3368 
L 204.431533 102.6296 
L 206.079526 119.564 
L 207.727518 129.2408 
L 209.375511 126.8216 
L 211.023504 129.2408 
L 212.671496 119.564 
L 214.319489 143.756 
L 215.967482 151.0136 
L 217.615474 148.5944 
L 219.263467 136.4984 
L 220.911459 85.6952 
L 222.559452 95.372 
L 224.207445 126.8216 
L 225.855437 126.8216 
L 227.50343 175.2056 
L 229.151422 160.6904 
L 230.799415 158.2712 
L 232.447408 182.4632 
L 234.0954 160.6904 
L 235.743393 180.044 
L 237.391386 175.2056 
L 239.039378 148.5944 
L 240.687371 126.8216 
L 242.335363 119.564 
L 243.983356 105.0488 
L 245.631349 134.0792 
L 247.279341 180.044 
L 248.927334 182.4632 
L 250.575326 209.0744 
L 252.223319 223.5896 
L 253.871312 209.0744 
L 255.519304 180.044 
L 257.167297 192.14 
L 258.81529 165.5288 
L 260.463282 143.756 
L 262.111275 175.2056 
L 263.759267 148.5944 
L 265.40726 167.948 
L 267.055253 158.2712 
L 268.703245 136.4984 
L 270.351238 167.948 
L 271.999231 117.1448 
L 273.647223 112.3064 
L 275.295216 126.8216 
L 276.943208 109.8872 
L 278.591201 136.4984 
L 280.239194 148.5944 
L 283.535179 119.564 
L 285.183171 143.756 
L 286.831164 151.0136 
L 288.479157 172.7864 
L 290.127149 167.948 
L 291.775142 165.5288 
L 293.423135 143.756 
L 295.071127 151.0136 
L 296.71912 148.5944 
L 298.367112 134.0792 
L 300.015105 143.756 
L 301.663098 134.0792 
L 303.31109 165.5288 
L 304.959083 167.948 
L 306.607075 175.2056 
L 308.255068 151.0136 
L 309.903061 165.5288 
L 311.551053 192.14 
L 313.199046 158.2712 
L 314.847039 143.756 
L 316.495031 148.5944 
L 318.143024 143.756 
L 319.791016 167.948 
L 321.439009 182.4632 
L 323.087002 182.4632 
L 324.734994 226.0088 
L 326.382987 209.0744 
L 328.030979 226.0088 
L 329.678972 199.3976 
L 331.326965 143.756 
L 332.974957 151.0136 
L 334.62295 129.2408 
L 336.270943 136.4984 
L 337.918935 148.5944 
L 337.918935 148.5944 
" style="fill:none;stroke:#ff7f0e;stroke-linecap:square;stroke-width:0.5;"/>
   </g>
   <g id="line2d_28">
    <path clip-path="url(#p36a651a6ba)" d="M 49.520227 264.716 
L 51.16822 143.756 
L 52.816213 136.4984 
L 54.464205 165.5288 
L 56.112198 151.0136 
L 57.76019 117.1448 
L 59.408183 112.3064 
L 61.056176 71.18 
L 62.704168 68.7608 
L 64.352161 83.276 
L 66.000153 119.564 
L 69.296139 134.0792 
L 70.944131 136.4984 
L 72.592124 134.0792 
L 74.240117 160.6904 
L 75.888109 206.6552 
L 77.536102 172.7864 
L 79.184094 160.6904 
L 80.832087 167.948 
L 82.48008 143.756 
L 84.128072 165.5288 
L 85.776065 160.6904 
L 87.424057 143.756 
L 89.07205 158.2712 
L 90.720043 175.2056 
L 92.368035 182.4632 
L 94.016028 192.14 
L 95.664021 172.7864 
L 97.312013 141.3368 
L 98.960006 160.6904 
L 100.607998 165.5288 
L 102.255991 148.5944 
L 103.903984 165.5288 
L 105.551976 194.5592 
L 107.199969 180.044 
L 108.847961 201.8168 
L 110.495954 167.948 
L 112.143947 126.8216 
L 113.791939 136.4984 
L 115.439932 134.0792 
L 117.087925 167.948 
L 118.735917 192.14 
L 120.38391 206.6552 
L 122.031902 209.0744 
L 125.327888 175.2056 
L 126.97588 160.6904 
L 128.623873 136.4984 
L 130.271865 134.0792 
L 131.919858 129.2408 
L 133.567851 117.1448 
L 135.215843 129.2408 
L 136.863836 136.4984 
L 138.511829 158.2712 
L 140.159821 151.0136 
L 141.807814 160.6904 
L 143.455806 151.0136 
L 145.103799 160.6904 
L 146.751792 167.948 
L 148.399784 148.5944 
L 150.047777 167.948 
L 151.695769 151.0136 
L 153.343762 151.0136 
L 154.991755 158.2712 
L 156.639747 158.2712 
L 158.28774 194.5592 
L 159.935733 209.0744 
L 161.583725 213.9128 
L 163.231718 175.2056 
L 166.527703 112.3064 
L 168.175696 102.6296 
L 169.823688 105.0488 
L 171.471681 119.564 
L 173.119674 136.4984 
L 174.767666 158.2712 
L 176.415659 167.948 
L 178.063651 165.5288 
L 179.711644 158.2712 
L 181.359637 165.5288 
L 183.007629 175.2056 
L 184.655622 167.948 
L 186.303614 209.0744 
L 187.951607 192.14 
L 189.5996 165.5288 
L 191.247592 192.14 
L 192.895585 172.7864 
L 194.543578 194.5592 
L 196.19157 192.14 
L 197.839563 148.5944 
L 199.487555 151.0136 
L 201.135548 143.756 
L 204.431533 206.6552 
L 206.079526 209.0744 
L 207.727518 213.9128 
L 209.375511 223.5896 
L 211.023504 194.5592 
L 212.671496 192.14 
L 214.319489 192.14 
L 215.967482 165.5288 
L 217.615474 151.0136 
L 219.263467 160.6904 
L 220.911459 151.0136 
L 222.559452 175.2056 
L 224.207445 175.2056 
L 225.855437 172.7864 
L 227.50343 194.5592 
L 229.151422 192.14 
L 230.799415 209.0744 
L 232.447408 180.044 
L 234.0954 172.7864 
L 235.743393 160.6904 
L 237.391386 151.0136 
L 239.039378 165.5288 
L 240.687371 182.4632 
L 242.335363 175.2056 
L 243.983356 165.5288 
L 245.631349 143.756 
L 247.279341 85.6952 
L 248.927334 102.6296 
L 250.575326 109.8872 
L 252.223319 119.564 
L 253.871312 143.756 
L 255.519304 134.0792 
L 258.81529 167.948 
L 260.463282 167.948 
L 263.759267 148.5944 
L 265.40726 136.4984 
L 267.055253 117.1448 
L 268.703245 151.0136 
L 270.351238 175.2056 
L 271.999231 201.8168 
L 273.647223 180.044 
L 275.295216 172.7864 
L 276.943208 167.948 
L 278.591201 148.5944 
L 280.239194 175.2056 
L 281.887186 141.3368 
L 283.535179 182.4632 
L 285.183171 194.5592 
L 286.831164 172.7864 
L 288.479157 192.14 
L 290.127149 167.948 
L 291.775142 192.14 
L 293.423135 206.6552 
L 295.071127 165.5288 
L 296.71912 148.5944 
L 298.367112 117.1448 
L 300.015105 112.3064 
L 301.663098 143.756 
L 303.31109 151.0136 
L 304.959083 165.5288 
L 306.607075 165.5288 
L 308.255068 175.2056 
L 309.903061 141.3368 
L 311.551053 143.756 
L 313.199046 158.2712 
L 314.847039 175.2056 
L 316.495031 175.2056 
L 318.143024 160.6904 
L 319.791016 143.756 
L 321.439009 129.2408 
L 323.087002 151.0136 
L 324.734994 165.5288 
L 326.382987 172.7864 
L 328.030979 143.756 
L 329.678972 167.948 
L 331.326965 175.2056 
L 332.974957 172.7864 
L 334.62295 160.6904 
L 336.270943 136.4984 
L 337.918935 105.0488 
L 339.566928 129.2408 
L 341.21492 167.948 
L 342.862913 182.4632 
L 344.510906 216.332 
L 346.158898 223.5896 
L 347.806891 213.9128 
L 349.454883 209.0744 
L 351.102876 167.948 
L 352.750869 136.4984 
L 354.398861 129.2408 
L 356.046854 148.5944 
L 357.694847 180.044 
L 359.342839 216.332 
L 360.990832 180.044 
L 362.638824 158.2712 
L 364.286817 148.5944 
L 365.93481 117.1448 
L 367.582802 143.756 
L 369.230795 134.0792 
L 370.878787 134.0792 
L 370.878787 134.0792 
" style="fill:none;stroke:#2ca02c;stroke-linecap:square;stroke-width:0.5;"/>
   </g>
   <g id="patch_3">
    <path d="M 33.2875 276.812 
L 33.2875 10.7 
" style="fill:none;stroke:#000000;stroke-linecap:square;stroke-linejoin:miter;stroke-width:0.8;"/>
   </g>
   <g id="patch_4">
    <path d="M 390.4075 276.812 
L 390.4075 10.7 
" style="fill:none;stroke:#000000;stroke-linecap:square;stroke-linejoin:miter;stroke-width:0.8;"/>
   </g>
   <g id="patch_5">
    <path d="M 33.2875 276.812 
L 390.4075 276.812 
" style="fill:none;stroke:#000000;stroke-linecap:square;stroke-linejoin:miter;stroke-width:0.8;"/>
   </g>
   <g id="patch_6">
    <path d="M 33.2875 10.7 
L 390.4075 10.7 
" style="fill:none;stroke:#000000;stroke-linecap:square;stroke-linejoin:miter;stroke-width:0.8;"/>
   </g>
  </g>
 </g>
 <defs>
  <clipPath id="p36a651a6ba">
   <rect height="266.112" width="357.12" x="33.2875" y="10.7"/>
  </clipPath>
 </defs>
</svg>
