<?xml version="1.0" encoding="utf-8" standalone="no"?>
<!DOCTYPE svg PUBLIC "-//W3C//DTD SVG 1.1//EN"
  "http://www.w3.org/Graphics/SVG/1.1/DTD/svg11.dtd">
<!-- Created with matplotlib (http://matplotlib.org/) -->
<svg height="301pt" version="1.1" viewBox="0 0 426 301" width="426pt" xmlns="http://www.w3.org/2000/svg" xmlns:xlink="http://www.w3.org/1999/xlink">
 <defs>
  <style type="text/css">
*{stroke-linecap:butt;stroke-linejoin:round;}
  </style>
 </defs>
 <g id="figure_1">
  <g id="patch_1">
   <path d="M 0 301.476489 
L 426.5575 301.476489 
L 426.5575 0 
L 0 0 
z
" style="fill:#ffffff;"/>
  </g>
  <g id="axes_1">
   <g id="patch_2">
    <path d="M 58.7375 277.598364 
L 415.8575 277.598364 
L 415.8575 11.486364 
L 58.7375 11.486364 
z
" style="fill:#ffffff;"/>
   </g>
   <g id="matplotlib.axis_1">
    <g id="xtick_1">
     <g id="line2d_1">
      <defs>
       <path d="M 0 0 
L 0 3.5 
" id="m43245048a3" style="stroke:#000000;stroke-width:0.8;"/>
      </defs>
      <g>
       <use style="stroke:#000000;stroke-width:0.8;" x="74.970227" xlink:href="#m43245048a3" y="277.598364"/>
      </g>
     </g>
     <g id="text_1">
      <!-- 0 -->
      <defs>
       <path d="M 31.78125 66.40625 
Q 24.171875 66.40625 20.328125 58.90625 
Q 16.5 51.421875 16.5 36.375 
Q 16.5 21.390625 20.328125 13.890625 
Q 24.171875 6.390625 31.78125 6.390625 
Q 39.453125 6.390625 43.28125 13.890625 
Q 47.125 21.390625 47.125 36.375 
Q 47.125 51.421875 43.28125 58.90625 
Q 39.453125 66.40625 31.78125 66.40625 
M 31.78125 74.21875 
Q 44.046875 74.21875 50.515625 64.515625 
Q 56.984375 54.828125 56.984375 36.375 
Q 56.984375 17.96875 50.515625 8.265625 
Q 44.046875 -1.421875 31.78125 -1.421875 
Q 19.53125 -1.421875 13.0625 8.265625 
Q 6.59375 17.96875 6.59375 36.375 
Q 6.59375 54.828125 13.0625 64.515625 
Q 19.53125 74.21875 31.78125 74.21875 
" id="DejaVuSans-30"/>
      </defs>
      <g transform="translate(71.788977 292.196801)scale(0.1 -0.1)">
       <use xlink:href="#DejaVuSans-30"/>
      </g>
     </g>
    </g>
    <g id="xtick_2">
     <g id="line2d_2">
      <g>
       <use style="stroke:#000000;stroke-width:0.8;" x="116.170043" xlink:href="#m43245048a3" y="277.598364"/>
      </g>
     </g>
     <g id="text_2">
      <!-- 25 -->
      <defs>
       <path d="M 19.1875 8.296875 
L 53.609375 8.296875 
L 53.609375 0 
L 7.328125 0 
L 7.328125 8.296875 
Q 12.9375 14.109375 22.625 23.890625 
Q 32.328125 33.6875 34.8125 36.53125 
Q 39.546875 41.84375 41.421875 45.53125 
Q 43.3125 49.21875 43.3125 52.78125 
Q 43.3125 58.59375 39.234375 62.25 
Q 35.15625 65.921875 28.609375 65.921875 
Q 23.96875 65.921875 18.8125 64.3125 
Q 13.671875 62.703125 7.8125 59.421875 
L 7.8125 69.390625 
Q 13.765625 71.78125 18.9375 73 
Q 24.125 74.21875 28.421875 74.21875 
Q 39.75 74.21875 46.484375 68.546875 
Q 53.21875 62.890625 53.21875 53.421875 
Q 53.21875 48.921875 51.53125 44.890625 
Q 49.859375 40.875 45.40625 35.40625 
Q 44.1875 33.984375 37.640625 27.21875 
Q 31.109375 20.453125 19.1875 8.296875 
" id="DejaVuSans-32"/>
       <path d="M 10.796875 72.90625 
L 49.515625 72.90625 
L 49.515625 64.59375 
L 19.828125 64.59375 
L 19.828125 46.734375 
Q 21.96875 47.46875 24.109375 47.828125 
Q 26.265625 48.1875 28.421875 48.1875 
Q 40.625 48.1875 47.75 41.5 
Q 54.890625 34.8125 54.890625 23.390625 
Q 54.890625 11.625 47.5625 5.09375 
Q 40.234375 -1.421875 26.90625 -1.421875 
Q 22.3125 -1.421875 17.546875 -0.640625 
Q 12.796875 0.140625 7.71875 1.703125 
L 7.71875 11.625 
Q 12.109375 9.234375 16.796875 8.0625 
Q 21.484375 6.890625 26.703125 6.890625 
Q 35.15625 6.890625 40.078125 11.328125 
Q 45.015625 15.765625 45.015625 23.390625 
Q 45.015625 31 40.078125 35.4375 
Q 35.15625 39.890625 26.703125 39.890625 
Q 22.75 39.890625 18.8125 39.015625 
Q 14.890625 38.140625 10.796875 36.28125 
z
" id="DejaVuSans-35"/>
      </defs>
      <g transform="translate(109.807543 292.196801)scale(0.1 -0.1)">
       <use xlink:href="#DejaVuSans-32"/>
       <use x="63.623047" xlink:href="#DejaVuSans-35"/>
      </g>
     </g>
    </g>
    <g id="xtick_3">
     <g id="line2d_3">
      <g>
       <use style="stroke:#000000;stroke-width:0.8;" x="157.369858" xlink:href="#m43245048a3" y="277.598364"/>
      </g>
     </g>
     <g id="text_3">
      <!-- 50 -->
      <g transform="translate(151.007358 292.196801)scale(0.1 -0.1)">
       <use xlink:href="#DejaVuSans-35"/>
       <use x="63.623047" xlink:href="#DejaVuSans-30"/>
      </g>
     </g>
    </g>
    <g id="xtick_4">
     <g id="line2d_4">
      <g>
       <use style="stroke:#000000;stroke-width:0.8;" x="198.569674" xlink:href="#m43245048a3" y="277.598364"/>
      </g>
     </g>
     <g id="text_4">
      <!-- 75 -->
      <defs>
       <path d="M 8.203125 72.90625 
L 55.078125 72.90625 
L 55.078125 68.703125 
L 28.609375 0 
L 18.3125 0 
L 43.21875 64.59375 
L 8.203125 64.59375 
z
" id="DejaVuSans-37"/>
      </defs>
      <g transform="translate(192.207174 292.196801)scale(0.1 -0.1)">
       <use xlink:href="#DejaVuSans-37"/>
       <use x="63.623047" xlink:href="#DejaVuSans-35"/>
      </g>
     </g>
    </g>
    <g id="xtick_5">
     <g id="line2d_5">
      <g>
       <use style="stroke:#000000;stroke-width:0.8;" x="239.769489" xlink:href="#m43245048a3" y="277.598364"/>
      </g>
     </g>
     <g id="text_5">
      <!-- 100 -->
      <defs>
       <path d="M 12.40625 8.296875 
L 28.515625 8.296875 
L 28.515625 63.921875 
L 10.984375 60.40625 
L 10.984375 69.390625 
L 28.421875 72.90625 
L 38.28125 72.90625 
L 38.28125 8.296875 
L 54.390625 8.296875 
L 54.390625 0 
L 12.40625 0 
z
" id="DejaVuSans-31"/>
      </defs>
      <g transform="translate(230.225739 292.196801)scale(0.1 -0.1)">
       <use xlink:href="#DejaVuSans-31"/>
       <use x="63.623047" xlink:href="#DejaVuSans-30"/>
       <use x="127.246094" xlink:href="#DejaVuSans-30"/>
      </g>
     </g>
    </g>
    <g id="xtick_6">
     <g id="line2d_6">
      <g>
       <use style="stroke:#000000;stroke-width:0.8;" x="280.969304" xlink:href="#m43245048a3" y="277.598364"/>
      </g>
     </g>
     <g id="text_6">
      <!-- 125 -->
      <g transform="translate(271.425554 292.196801)scale(0.1 -0.1)">
       <use xlink:href="#DejaVuSans-31"/>
       <use x="63.623047" xlink:href="#DejaVuSans-32"/>
       <use x="127.246094" xlink:href="#DejaVuSans-35"/>
      </g>
     </g>
    </g>
    <g id="xtick_7">
     <g id="line2d_7">
      <g>
       <use style="stroke:#000000;stroke-width:0.8;" x="322.16912" xlink:href="#m43245048a3" y="277.598364"/>
      </g>
     </g>
     <g id="text_7">
      <!-- 150 -->
      <g transform="translate(312.62537 292.196801)scale(0.1 -0.1)">
       <use xlink:href="#DejaVuSans-31"/>
       <use x="63.623047" xlink:href="#DejaVuSans-35"/>
       <use x="127.246094" xlink:href="#DejaVuSans-30"/>
      </g>
     </g>
    </g>
    <g id="xtick_8">
     <g id="line2d_8">
      <g>
       <use style="stroke:#000000;stroke-width:0.8;" x="363.368935" xlink:href="#m43245048a3" y="277.598364"/>
      </g>
     </g>
     <g id="text_8">
      <!-- 175 -->
      <g transform="translate(353.825185 292.196801)scale(0.1 -0.1)">
       <use xlink:href="#DejaVuSans-31"/>
       <use x="63.623047" xlink:href="#DejaVuSans-37"/>
       <use x="127.246094" xlink:href="#DejaVuSans-35"/>
      </g>
     </g>
    </g>
    <g id="xtick_9">
     <g id="line2d_9">
      <g>
       <use style="stroke:#000000;stroke-width:0.8;" x="404.568751" xlink:href="#m43245048a3" y="277.598364"/>
      </g>
     </g>
     <g id="text_9">
      <!-- 200 -->
      <g transform="translate(395.025001 292.196801)scale(0.1 -0.1)">
       <use xlink:href="#DejaVuSans-32"/>
       <use x="63.623047" xlink:href="#DejaVuSans-30"/>
       <use x="127.246094" xlink:href="#DejaVuSans-30"/>
      </g>
     </g>
    </g>
   </g>
   <g id="matplotlib.axis_2">
    <g id="ytick_1">
     <g id="line2d_10">
      <defs>
       <path d="M 0 0 
L -3.5 0 
" id="m27cb934c6f" style="stroke:#000000;stroke-width:0.8;"/>
      </defs>
      <g>
       <use style="stroke:#000000;stroke-width:0.8;" x="58.7375" xlink:href="#m27cb934c6f" y="265.535835"/>
      </g>
     </g>
     <g id="text_10">
      <!-- 0 -->
      <g transform="translate(45.375 269.335054)scale(0.1 -0.1)">
       <use xlink:href="#DejaVuSans-30"/>
      </g>
     </g>
    </g>
    <g id="ytick_2">
     <g id="line2d_11">
      <g>
       <use style="stroke:#000000;stroke-width:0.8;" x="58.7375" xlink:href="#m27cb934c6f" y="233.718758"/>
      </g>
     </g>
     <g id="text_11">
      <!-- 500000 -->
      <g transform="translate(13.5625 237.517977)scale(0.1 -0.1)">
       <use xlink:href="#DejaVuSans-35"/>
       <use x="63.623047" xlink:href="#DejaVuSans-30"/>
       <use x="127.246094" xlink:href="#DejaVuSans-30"/>
       <use x="190.869141" xlink:href="#DejaVuSans-30"/>
       <use x="254.492188" xlink:href="#DejaVuSans-30"/>
       <use x="318.115234" xlink:href="#DejaVuSans-30"/>
      </g>
     </g>
    </g>
    <g id="ytick_3">
     <g id="line2d_12">
      <g>
       <use style="stroke:#000000;stroke-width:0.8;" x="58.7375" xlink:href="#m27cb934c6f" y="201.901681"/>
      </g>
     </g>
     <g id="text_12">
      <!-- 1000000 -->
      <g transform="translate(7.2 205.7009)scale(0.1 -0.1)">
       <use xlink:href="#DejaVuSans-31"/>
       <use x="63.623047" xlink:href="#DejaVuSans-30"/>
       <use x="127.246094" xlink:href="#DejaVuSans-30"/>
       <use x="190.869141" xlink:href="#DejaVuSans-30"/>
       <use x="254.492188" xlink:href="#DejaVuSans-30"/>
       <use x="318.115234" xlink:href="#DejaVuSans-30"/>
       <use x="381.738281" xlink:href="#DejaVuSans-30"/>
      </g>
     </g>
    </g>
    <g id="ytick_4">
     <g id="line2d_13">
      <g>
       <use style="stroke:#000000;stroke-width:0.8;" x="58.7375" xlink:href="#m27cb934c6f" y="170.084604"/>
      </g>
     </g>
     <g id="text_13">
      <!-- 1500000 -->
      <g transform="translate(7.2 173.883823)scale(0.1 -0.1)">
       <use xlink:href="#DejaVuSans-31"/>
       <use x="63.623047" xlink:href="#DejaVuSans-35"/>
       <use x="127.246094" xlink:href="#DejaVuSans-30"/>
       <use x="190.869141" xlink:href="#DejaVuSans-30"/>
       <use x="254.492188" xlink:href="#DejaVuSans-30"/>
       <use x="318.115234" xlink:href="#DejaVuSans-30"/>
       <use x="381.738281" xlink:href="#DejaVuSans-30"/>
      </g>
     </g>
    </g>
    <g id="ytick_5">
     <g id="line2d_14">
      <g>
       <use style="stroke:#000000;stroke-width:0.8;" x="58.7375" xlink:href="#m27cb934c6f" y="138.267527"/>
      </g>
     </g>
     <g id="text_14">
      <!-- 2000000 -->
      <g transform="translate(7.2 142.066746)scale(0.1 -0.1)">
       <use xlink:href="#DejaVuSans-32"/>
       <use x="63.623047" xlink:href="#DejaVuSans-30"/>
       <use x="127.246094" xlink:href="#DejaVuSans-30"/>
       <use x="190.869141" xlink:href="#DejaVuSans-30"/>
       <use x="254.492188" xlink:href="#DejaVuSans-30"/>
       <use x="318.115234" xlink:href="#DejaVuSans-30"/>
       <use x="381.738281" xlink:href="#DejaVuSans-30"/>
      </g>
     </g>
    </g>
    <g id="ytick_6">
     <g id="line2d_15">
      <g>
       <use style="stroke:#000000;stroke-width:0.8;" x="58.7375" xlink:href="#m27cb934c6f" y="106.45045"/>
      </g>
     </g>
     <g id="text_15">
      <!-- 2500000 -->
      <g transform="translate(7.2 110.249669)scale(0.1 -0.1)">
       <use xlink:href="#DejaVuSans-32"/>
       <use x="63.623047" xlink:href="#DejaVuSans-35"/>
       <use x="127.246094" xlink:href="#DejaVuSans-30"/>
       <use x="190.869141" xlink:href="#DejaVuSans-30"/>
       <use x="254.492188" xlink:href="#DejaVuSans-30"/>
       <use x="318.115234" xlink:href="#DejaVuSans-30"/>
       <use x="381.738281" xlink:href="#DejaVuSans-30"/>
      </g>
     </g>
    </g>
    <g id="ytick_7">
     <g id="line2d_16">
      <g>
       <use style="stroke:#000000;stroke-width:0.8;" x="58.7375" xlink:href="#m27cb934c6f" y="74.633373"/>
      </g>
     </g>
     <g id="text_16">
      <!-- 3000000 -->
      <defs>
       <path d="M 40.578125 39.3125 
Q 47.65625 37.796875 51.625 33 
Q 55.609375 28.21875 55.609375 21.1875 
Q 55.609375 10.40625 48.1875 4.484375 
Q 40.765625 -1.421875 27.09375 -1.421875 
Q 22.515625 -1.421875 17.65625 -0.515625 
Q 12.796875 0.390625 7.625 2.203125 
L 7.625 11.71875 
Q 11.71875 9.328125 16.59375 8.109375 
Q 21.484375 6.890625 26.8125 6.890625 
Q 36.078125 6.890625 40.9375 10.546875 
Q 45.796875 14.203125 45.796875 21.1875 
Q 45.796875 27.640625 41.28125 31.265625 
Q 36.765625 34.90625 28.71875 34.90625 
L 20.21875 34.90625 
L 20.21875 43.015625 
L 29.109375 43.015625 
Q 36.375 43.015625 40.234375 45.921875 
Q 44.09375 48.828125 44.09375 54.296875 
Q 44.09375 59.90625 40.109375 62.90625 
Q 36.140625 65.921875 28.71875 65.921875 
Q 24.65625 65.921875 20.015625 65.03125 
Q 15.375 64.15625 9.8125 62.3125 
L 9.8125 71.09375 
Q 15.4375 72.65625 20.34375 73.4375 
Q 25.25 74.21875 29.59375 74.21875 
Q 40.828125 74.21875 47.359375 69.109375 
Q 53.90625 64.015625 53.90625 55.328125 
Q 53.90625 49.265625 50.4375 45.09375 
Q 46.96875 40.921875 40.578125 39.3125 
" id="DejaVuSans-33"/>
      </defs>
      <g transform="translate(7.2 78.432592)scale(0.1 -0.1)">
       <use xlink:href="#DejaVuSans-33"/>
       <use x="63.623047" xlink:href="#DejaVuSans-30"/>
       <use x="127.246094" xlink:href="#DejaVuSans-30"/>
       <use x="190.869141" xlink:href="#DejaVuSans-30"/>
       <use x="254.492188" xlink:href="#DejaVuSans-30"/>
       <use x="318.115234" xlink:href="#DejaVuSans-30"/>
       <use x="381.738281" xlink:href="#DejaVuSans-30"/>
      </g>
     </g>
    </g>
    <g id="ytick_8">
     <g id="line2d_17">
      <g>
       <use style="stroke:#000000;stroke-width:0.8;" x="58.7375" xlink:href="#m27cb934c6f" y="42.816296"/>
      </g>
     </g>
     <g id="text_17">
      <!-- 3500000 -->
      <g transform="translate(7.2 46.615515)scale(0.1 -0.1)">
       <use xlink:href="#DejaVuSans-33"/>
       <use x="63.623047" xlink:href="#DejaVuSans-35"/>
       <use x="127.246094" xlink:href="#DejaVuSans-30"/>
       <use x="190.869141" xlink:href="#DejaVuSans-30"/>
       <use x="254.492188" xlink:href="#DejaVuSans-30"/>
       <use x="318.115234" xlink:href="#DejaVuSans-30"/>
       <use x="381.738281" xlink:href="#DejaVuSans-30"/>
      </g>
     </g>
    </g>
    <g id="ytick_9">
     <g id="line2d_18">
      <g>
       <use style="stroke:#000000;stroke-width:0.8;" x="58.7375" xlink:href="#m27cb934c6f" y="10.999219"/>
      </g>
     </g>
     <g id="text_18">
      <!-- 4000000 -->
      <defs>
       <path d="M 37.796875 64.3125 
L 12.890625 25.390625 
L 37.796875 25.390625 
z
M 35.203125 72.90625 
L 47.609375 72.90625 
L 47.609375 25.390625 
L 58.015625 25.390625 
L 58.015625 17.1875 
L 47.609375 17.1875 
L 47.609375 0 
L 37.796875 0 
L 37.796875 17.1875 
L 4.890625 17.1875 
L 4.890625 26.703125 
z
" id="DejaVuSans-34"/>
      </defs>
      <g transform="translate(7.2 14.798437)scale(0.1 -0.1)">
       <use xlink:href="#DejaVuSans-34"/>
       <use x="63.623047" xlink:href="#DejaVuSans-30"/>
       <use x="127.246094" xlink:href="#DejaVuSans-30"/>
       <use x="190.869141" xlink:href="#DejaVuSans-30"/>
       <use x="254.492188" xlink:href="#DejaVuSans-30"/>
       <use x="318.115234" xlink:href="#DejaVuSans-30"/>
       <use x="381.738281" xlink:href="#DejaVuSans-30"/>
      </g>
     </g>
    </g>
   </g>
   <g id="line2d_19">
    <path clip-path="url(#p6ee645766d)" d="M 74.970227 185.466888 
L 76.61822 173.538475 
L 78.266213 209.643921 
L 79.914205 167.979841 
L 81.562198 186.58354 
L 83.21019 245.29362 
L 84.858183 227.166286 
L 86.506176 237.453447 
L 88.154168 107.865164 
L 89.802161 247.795906 
L 91.450153 166.005082 
L 93.098146 185.49826 
L 94.746139 211.944869 
L 96.394131 189.368871 
L 98.042124 196.22526 
L 99.690117 254.787836 
L 101.338109 198.105013 
L 102.986102 156.642971 
L 104.634094 214.282342 
L 106.282087 243.005654 
L 107.93008 238.618397 
L 109.578072 259.551425 
L 111.226065 140.322083 
L 112.874057 238.526 
L 114.52205 92.971082 
L 116.170043 252.370756 
L 117.818035 256.604464 
L 119.466028 244.245756 
L 121.114021 241.182917 
L 122.762013 212.701352 
L 124.410006 245.208223 
L 126.057998 253.076141 
L 127.705991 251.247359 
L 129.353984 86.979862 
L 131.001976 262.351137 
L 132.649969 239.657416 
L 134.297961 226.510472 
L 135.945954 221.076624 
L 137.593947 102.787986 
L 139.241939 249.194203 
L 140.889932 184.476741 
L 142.537925 210.92755 
L 144.185917 136.893793 
L 145.83391 223.48295 
L 147.481902 197.687637 
L 149.129895 222.239093 
L 150.777888 168.251813 
L 152.42588 261.212785 
L 154.073873 121.878042 
L 155.721865 225.860449 
L 157.369858 247.085558 
L 159.017851 231.499453 
L 160.665843 205.163122 
L 162.313836 149.819544 
L 163.961829 217.362044 
L 165.609821 169.19309 
L 167.257814 183.502565 
L 168.905806 181.961855 
L 170.553799 93.667748 
L 172.201792 237.698884 
L 173.849784 252.865002 
L 175.497777 228.330791 
L 177.145769 211.552946 
L 178.793762 214.80516 
L 180.441755 262.112572 
L 182.089747 221.448248 
L 183.73774 142.084049 
L 187.033725 222.607344 
L 188.681718 209.178374 
L 190.32971 175.840059 
L 191.977703 263.699417 
L 193.625696 167.200577 
L 195.273688 259.787189 
L 196.921681 200.422569 
L 198.569674 229.059656 
L 200.217666 253.970264 
L 201.865659 235.241778 
L 203.513651 204.105777 
L 205.161644 185.518432 
L 206.809637 261.704041 
L 208.457629 220.071714 
L 210.105622 221.63126 
L 211.753614 213.986443 
L 213.401607 240.468497 
L 215.0496 228.070209 
L 216.697592 244.953877 
L 218.345585 254.22951 
L 219.993578 228.292165 
L 221.64157 249.489592 
L 223.289563 195.066037 
L 224.937555 197.507234 
L 226.585548 249.65975 
L 228.233541 233.41446 
L 229.881533 261.165696 
L 231.529526 152.939718 
L 233.177518 233.223366 
L 234.825511 214.968827 
L 236.473504 188.196221 
L 238.121496 188.931386 
L 239.769489 231.630603 
L 241.417482 250.921043 
L 243.065474 245.360881 
L 244.713467 223.91178 
L 246.361459 185.337711 
L 248.009452 189.562828 
L 249.657445 243.514345 
L 251.305437 193.658767 
L 252.95343 194.189285 
L 254.601422 113.824376 
L 256.249415 222.46404 
L 257.897408 205.451003 
L 259.5454 157.003204 
L 261.193393 223.912862 
L 262.841386 261.639452 
L 264.489378 257.299094 
L 266.137371 166.688067 
L 267.785363 220.928484 
L 269.433356 181.044124 
L 271.081349 252.562422 
L 272.729341 138.564444 
L 274.377334 199.842098 
L 276.025326 226.856451 
L 277.673319 257.864865 
L 279.321312 167.0581 
L 280.969304 233.247675 
L 282.617297 262.290366 
L 284.26529 254.286208 
L 285.913282 207.73426 
L 287.561275 227.312008 
L 289.209267 207.641673 
L 290.85726 219.422773 
L 292.505253 253.160519 
L 294.153245 207.807631 
L 295.801238 248.828688 
L 297.449231 231.269607 
L 299.097223 155.216866 
L 300.745216 265.48601 
L 302.393208 260.713703 
L 304.041201 219.769897 
L 305.689194 255.094807 
L 307.337186 216.786282 
L 308.985179 213.032504 
L 310.633171 248.76429 
L 312.281164 215.46861 
L 313.929157 261.869935 
L 315.577149 161.176904 
L 317.225142 257.036667 
L 318.873135 244.455622 
L 320.521127 130.262032 
L 322.16912 215.540708 
L 323.817112 256.267203 
L 325.465105 260.357097 
L 327.113098 222.101134 
L 328.76109 198.021079 
L 330.409083 228.018538 
L 332.057075 230.420982 
L 333.705068 252.185008 
L 335.353061 23.582364 
L 337.001053 188.376751 
L 338.649046 222.984758 
L 340.297039 254.360087 
L 341.945031 196.80694 
L 343.593024 177.078761 
L 345.241016 230.288368 
L 346.889009 217.465959 
L 348.537002 141.345129 
L 350.184994 218.69238 
L 350.184994 218.69238 
" style="fill:none;stroke:#1f77b4;stroke-linecap:square;stroke-width:0.5;"/>
   </g>
   <g id="line2d_20">
    <path clip-path="url(#p6ee645766d)" d="M 74.970227 141.569312 
L 76.61822 242.069341 
L 78.266213 96.545221 
L 79.914205 193.564207 
L 81.562198 192.474663 
L 83.21019 165.224164 
L 86.506176 230.908928 
L 88.154168 194.213657 
L 89.802161 202.152972 
L 91.450153 261.015774 
L 93.098146 229.430962 
L 94.746139 211.433505 
L 96.394131 136.66051 
L 98.042124 211.154151 
L 99.690117 233.463012 
L 101.338109 135.410163 
L 102.986102 171.951757 
L 104.634094 194.632815 
L 106.282087 255.342089 
L 107.93008 206.152888 
L 109.578072 216.09687 
L 111.226065 110.450747 
L 112.874057 243.740183 
L 114.52205 217.592336 
L 116.170043 223.58801 
L 117.818035 225.31065 
L 119.466028 171.424294 
L 121.114021 177.202975 
L 122.762013 139.17915 
L 124.410006 228.130343 
L 126.057998 143.752473 
L 127.705991 186.870594 
L 129.353984 240.423953 
L 131.001976 220.414384 
L 132.649969 196.926572 
L 134.297961 227.576662 
L 135.945954 137.754763 
L 137.593947 234.640499 
L 139.241939 86.966817 
L 140.889932 151.769167 
L 142.537925 225.091367 
L 144.185917 164.753589 
L 145.83391 203.184673 
L 147.481902 232.187466 
L 149.129895 180.143128 
L 150.777888 263.636928 
L 152.42588 170.768162 
L 154.073873 257.599065 
L 155.721865 235.224279 
L 157.369858 173.890881 
L 159.017851 199.925968 
L 160.665843 184.349663 
L 162.313836 244.861735 
L 163.961829 135.142072 
L 165.609821 199.497774 
L 167.257814 257.732506 
L 168.905806 189.334763 
L 170.553799 222.827773 
L 172.201792 217.215813 
L 173.849784 177.750038 
L 175.497777 243.941967 
L 177.145769 160.296271 
L 178.793762 251.299666 
L 180.441755 245.301638 
L 182.089747 256.217441 
L 183.73774 189.825 
L 185.385733 107.993133 
L 187.033725 115.05926 
L 188.681718 255.274637 
L 190.32971 210.944667 
L 191.977703 251.052129 
L 193.625696 208.58804 
L 195.273688 228.996658 
L 196.921681 178.373907 
L 198.569674 225.507152 
L 200.217666 236.553787 
L 203.513651 195.19585 
L 205.161644 218.699443 
L 206.809637 185.561894 
L 208.457629 231.337059 
L 210.105622 195.65618 
L 211.753614 189.520638 
L 213.401607 249.706776 
L 215.0496 241.780378 
L 216.697592 263.272496 
L 218.345585 237.313706 
L 219.993578 254.971484 
L 221.64157 87.504271 
L 223.289563 62.969996 
L 224.937555 260.909569 
L 226.585548 210.774955 
L 228.233541 190.705061 
L 229.881533 157.563821 
L 231.529526 241.453108 
L 233.177518 261.817692 
L 234.825511 258.549314 
L 236.473504 230.795087 
L 238.121496 208.554441 
L 239.769489 148.675975 
L 241.417482 206.104462 
L 243.065474 201.977278 
L 244.713467 221.235901 
L 246.361459 237.041797 
L 248.009452 165.110768 
L 249.657445 232.187848 
L 251.305437 165.78109 
L 252.95343 258.968154 
L 254.601422 214.229908 
L 256.249415 263.140455 
L 257.897408 135.057375 
L 261.193393 252.690009 
L 262.841386 210.63865 
L 264.489378 210.390477 
L 266.137371 119.546232 
L 267.785363 237.645622 
L 269.433356 262.601219 
L 271.081349 200.735776 
L 272.729341 198.138866 
L 274.377334 196.633982 
L 276.025326 88.082197 
L 277.673319 185.802558 
L 279.321312 176.166502 
L 280.969304 246.385964 
L 282.617297 248.714656 
L 284.26529 151.72946 
L 285.913282 200.958687 
L 287.561275 188.049417 
L 289.209267 259.72661 
L 290.85726 190.009476 
L 292.505253 257.861747 
L 294.153245 225.172564 
L 295.801238 226.934721 
L 297.449231 168.506159 
L 299.097223 98.750526 
L 300.745216 191.179644 
L 302.393208 251.415798 
L 304.041201 159.887294 
L 305.689194 248.091741 
L 307.337186 215.341342 
L 308.985179 177.289454 
L 310.633171 258.029741 
L 312.281164 232.050271 
L 313.929157 229.570766 
L 315.577149 256.147316 
L 317.225142 211.660551 
L 318.873135 112.96016 
L 320.521127 213.27635 
L 322.16912 224.850639 
L 323.817112 239.436478 
L 325.465105 177.286081 
L 327.113098 167.124661 
L 328.76109 189.964168 
L 330.409083 225.112684 
L 332.057075 172.097352 
L 333.705068 138.398486 
L 335.353061 165.464446 
L 337.001053 162.848128 
L 338.649046 184.929116 
L 340.297039 246.988134 
L 341.945031 209.97571 
L 343.593024 202.115683 
L 345.241016 190.026084 
L 346.889009 156.893244 
L 348.537002 186.05035 
L 350.184994 202.60083 
L 351.832987 258.877157 
L 353.480979 172.208458 
L 355.128972 253.729091 
L 356.776965 175.307123 
L 358.424957 80.408554 
L 360.07295 206.650507 
L 361.720943 255.776965 
L 363.368935 257.24965 
L 365.016928 207.945335 
L 366.66492 253.632494 
L 368.312913 161.383715 
L 369.960906 133.673523 
L 371.608898 250.376971 
L 373.256891 193.528317 
L 374.904883 120.163356 
L 376.552876 221.132559 
L 378.200869 171.539981 
L 379.848861 225.121338 
L 381.496854 163.882374 
L 383.144847 264.234135 
L 384.792839 249.204193 
L 386.440832 218.551239 
L 388.088824 215.966356 
L 389.736817 176.661194 
L 391.38481 197.340067 
L 393.032802 182.111523 
L 394.680795 188.841789 
L 396.328787 178.135152 
L 396.328787 178.135152 
" style="fill:none;stroke:#ff7f0e;stroke-linecap:square;stroke-width:0.5;"/>
   </g>
   <g id="line2d_21">
    <path clip-path="url(#p6ee645766d)" d="M 74.970227 253.340413 
L 76.61822 207.737888 
L 78.266213 241.775606 
L 79.914205 209.914303 
L 81.562198 236.501734 
L 83.21019 257.310739 
L 84.858183 265.130422 
L 86.506176 222.242911 
L 88.154168 209.961138 
L 89.802161 265.043243 
L 91.450153 251.895027 
L 93.098146 227.481529 
L 94.746139 235.172353 
L 96.394131 258.039859 
L 98.042124 228.329645 
L 99.690117 256.128035 
L 101.338109 252.330794 
L 102.986102 230.928719 
L 104.634094 263.924682 
L 106.282087 248.034279 
L 107.93008 251.934544 
L 109.578072 241.241333 
L 111.226065 256.309265 
L 112.874057 252.788578 
L 114.52205 259.794253 
L 116.170043 262.161825 
L 117.818035 257.548985 
L 119.466028 256.082918 
L 121.114021 146.530867 
L 122.762013 259.4743 
L 124.410006 256.158452 
L 126.057998 219.805087 
L 127.705991 264.059268 
L 131.001976 244.523583 
L 132.649969 256.881145 
L 134.297961 255.744448 
L 135.945954 256.009739 
L 137.593947 210.806454 
L 139.241939 262.731351 
L 140.889932 260.88456 
L 142.537925 249.607888 
L 144.185917 228.070527 
L 145.83391 209.084514 
L 147.481902 221.934986 
L 152.42588 255.674641 
L 154.073873 218.817039 
L 155.721865 264.742508 
L 157.369858 258.964654 
L 159.017851 238.45193 
L 160.665843 251.999642 
L 162.313836 233.877271 
L 163.961829 262.885409 
L 165.609821 264.227008 
L 167.257814 265.047952 
L 168.905806 232.776718 
L 170.553799 263.511887 
L 172.201792 264.825424 
L 173.849784 265.285498 
L 175.497777 262.890627 
L 177.145769 262.776849 
L 178.793762 262.959861 
L 180.441755 263.896938 
L 182.089747 261.683678 
L 183.73774 257.800149 
L 185.385733 264.467036 
L 187.033725 264.163437 
L 188.681718 261.715241 
L 190.32971 252.215298 
L 191.977703 263.059639 
L 193.625696 265.011935 
L 195.273688 265.142703 
L 196.921681 242.251271 
L 198.569674 254.815835 
L 200.217666 262.568766 
L 201.865659 259.443119 
L 203.513651 260.222892 
L 205.161644 260.382041 
L 206.809637 262.283812 
L 208.457629 262.127844 
L 210.105622 238.120078 
L 211.753614 263.047867 
L 213.401607 232.539554 
L 215.0496 264.338495 
L 216.697592 227.983666 
L 218.345585 219.648419 
L 219.993578 180.956054 
L 221.64157 264.507444 
L 223.289563 232.005281 
L 224.937555 262.885027 
L 226.585548 264.252271 
L 228.233541 262.935616 
L 229.881533 231.358758 
L 231.529526 246.488351 
L 233.177518 265.126731 
L 234.825511 261.100916 
L 236.473504 264.327423 
L 238.121496 265.160966 
L 239.769489 264.295287 
L 241.417482 264.132957 
L 243.065474 263.263778 
L 244.713467 252.498788 
L 246.361459 259.899631 
L 248.009452 192.034824 
L 249.657445 259.734437 
L 251.305437 255.59039 
L 252.95343 265.090651 
L 254.601422 261.899271 
L 256.249415 264.80557 
L 257.897408 251.854365 
L 259.5454 264.68931 
L 261.193393 230.238606 
L 262.841386 244.700931 
L 264.489378 256.583273 
L 266.137371 258.763061 
L 267.785363 259.284798 
L 269.433356 261.337445 
L 271.081349 258.858767 
L 272.729341 239.672879 
L 274.377334 263.381755 
L 276.025326 262.101118 
L 277.673319 260.552263 
L 279.321312 260.519491 
L 280.969304 228.276383 
L 282.617297 258.842349 
L 284.26529 259.861387 
L 285.913282 262.944143 
L 287.561275 264.85985 
L 289.209267 264.235217 
L 290.85726 253.15422 
L 292.505253 212.21945 
L 294.153245 199.902805 
L 295.801238 264.252653 
L 297.449231 264.503053 
L 299.097223 262.131853 
L 300.745216 261.283737 
L 302.393208 255.216921 
L 304.041201 256.946497 
L 305.689194 251.64889 
L 307.337186 264.506298 
L 308.985179 264.419374 
L 310.633171 258.429109 
L 312.281164 263.312076 
L 313.929157 261.278329 
L 315.577149 265.199656 
L 317.225142 243.956539 
L 318.873135 252.427581 
L 320.521127 259.46711 
L 322.16912 255.872034 
L 323.817112 261.305373 
L 325.465105 257.657991 
L 327.113098 261.508302 
L 328.76109 264.313932 
L 330.409083 262.903227 
L 332.057075 262.175506 
L 333.705068 264.361721 
L 335.353061 263.221588 
L 337.001053 242.001316 
L 338.649046 187.158729 
L 340.297039 258.043041 
L 341.945031 218.812648 
L 343.593024 228.517239 
L 345.241016 261.343935 
L 346.889009 253.496253 
L 348.537002 201.174915 
L 350.184994 263.158209 
L 351.832987 265.04337 
L 353.480979 262.874146 
L 355.128972 264.869713 
L 356.776965 262.581556 
L 358.424957 259.097141 
L 360.07295 243.448039 
L 361.720943 260.933622 
L 363.368935 252.098402 
L 365.016928 223.443497 
L 366.66492 183.836263 
L 368.312913 214.27757 
L 369.960906 204.417648 
L 371.608898 204.546762 
L 373.256891 178.335599 
L 374.904883 129.414234 
L 376.552876 235.173371 
L 378.200869 262.898454 
L 379.848861 262.407962 
L 381.496854 243.602415 
L 383.144847 184.640217 
L 384.792839 262.346873 
L 386.440832 259.467619 
L 388.088824 106.312046 
L 389.736817 255.774738 
L 391.38481 126.037679 
L 393.032802 259.843824 
L 394.680795 190.842511 
L 396.328787 202.941336 
L 396.328787 202.941336 
" style="fill:none;stroke:#2ca02c;stroke-linecap:square;stroke-width:0.5;"/>
   </g>
   <g id="line2d_22">
    <path clip-path="url(#p6ee645766d)" d="M 74.970227 261.564809 
L 76.61822 261.72364 
L 78.266213 260.363651 
L 79.914205 249.260319 
L 81.562198 264.181064 
L 83.21019 263.10062 
L 84.858183 264.967519 
L 86.506176 264.228472 
L 88.154168 264.67652 
L 89.802161 264.927429 
L 91.450153 264.268943 
L 93.098146 264.43191 
L 94.746139 257.179271 
L 96.394131 259.826897 
L 98.042124 264.260098 
L 99.690117 263.491588 
L 101.338109 264.584123 
L 102.986102 264.863795 
L 104.634094 264.612504 
L 106.282087 264.214154 
L 107.93008 263.015032 
L 109.578072 265.056161 
L 111.226065 263.951281 
L 112.874057 264.603277 
L 114.52205 265.022308 
L 116.170043 264.784698 
L 117.818035 264.952565 
L 119.466028 263.914882 
L 121.114021 265.029307 
L 122.762013 264.326914 
L 124.410006 257.854684 
L 126.057998 265.097905 
L 127.705991 263.96579 
L 129.353984 264.291851 
L 131.001976 264.847441 
L 132.649969 264.782725 
L 134.297961 264.138047 
L 135.945954 265.104714 
L 137.593947 263.184808 
L 139.241939 264.085613 
L 140.889932 258.878685 
L 142.537925 259.228354 
L 144.185917 262.593646 
L 145.83391 262.567302 
L 147.481902 263.769987 
L 149.129895 258.556378 
L 150.777888 256.954706 
L 152.42588 262.819611 
L 154.073873 263.430308 
L 155.721865 258.464935 
L 157.369858 264.444 
L 159.017851 261.649252 
L 160.665843 264.501844 
L 162.313836 261.223158 
L 163.961829 261.577791 
L 165.609821 251.278221 
L 167.257814 263.845585 
L 168.905806 264.861631 
L 170.553799 259.228672 
L 172.201792 260.317962 
L 173.849784 262.659826 
L 175.497777 263.986662 
L 178.793762 264.66952 
L 180.441755 261.835636 
L 182.089747 260.703648 
L 183.73774 264.862077 
L 185.385733 264.078168 
L 187.033725 264.503117 
L 188.681718 262.86091 
L 190.32971 254.573643 
L 191.977703 265.165994 
L 193.625696 265.049988 
L 195.273688 245.5913 
L 196.921681 264.831278 
L 198.569674 264.460991 
L 200.217666 265.138249 
L 201.865659 261.945851 
L 203.513651 265.313179 
L 205.161644 265.449738 
L 206.809637 264.533979 
L 210.105622 263.946827 
L 211.753614 265.281808 
L 215.0496 263.275041 
L 216.697592 265.319861 
L 218.345585 264.729272 
L 219.993578 264.774898 
L 221.64157 252.552877 
L 223.289563 263.36362 
L 224.937555 258.896693 
L 226.585548 264.26048 
L 228.233541 259.420593 
L 229.881533 239.799511 
L 231.529526 263.481025 
L 233.177518 264.687783 
L 234.825511 242.930756 
L 236.473504 263.173226 
L 238.121496 260.589871 
L 239.769489 265.070097 
L 241.417482 259.842169 
L 243.065474 258.742889 
L 244.713467 262.64449 
L 246.361459 256.371817 
L 248.009452 264.947537 
L 249.657445 261.5692 
L 251.305437 263.864548 
L 252.95343 262.63819 
L 254.601422 264.118321 
L 256.249415 264.770762 
L 257.897408 264.296306 
L 259.5454 264.759053 
L 261.193393 265.091351 
L 262.841386 264.022742 
L 264.489378 263.482997 
L 267.785363 264.850559 
L 269.433356 263.662955 
L 271.081349 265.410667 
L 272.729341 263.388564 
L 274.377334 265.07156 
L 276.025326 265.352442 
L 277.673319 251.935753 
L 279.321312 264.836241 
L 280.969304 264.480208 
L 282.617297 264.982345 
L 284.26529 263.338357 
L 285.913282 264.828923 
L 287.561275 263.84323 
L 289.209267 265.502364 
L 290.85726 263.951727 
L 292.505253 263.55904 
L 294.153245 264.54906 
L 295.801238 263.39181 
L 297.449231 264.450173 
L 300.745216 262.472233 
L 302.393208 264.04915 
L 304.041201 262.736951 
L 305.689194 264.159938 
L 307.337186 259.134176 
L 308.985179 264.688865 
L 310.633171 264.455582 
L 312.281164 262.786967 
L 313.929157 260.821244 
L 315.577149 263.011468 
L 317.225142 260.471002 
L 318.873135 260.876097 
L 320.521127 263.430626 
L 322.16912 261.771175 
L 323.817112 260.790573 
L 325.465105 262.797339 
L 327.113098 261.279856 
L 328.76109 263.435654 
L 330.409083 265.205001 
L 332.057075 260.33737 
L 333.705068 262.672235 
L 335.353061 263.690254 
L 337.001053 264.25208 
L 338.649046 264.385393 
L 340.297039 265.080151 
L 341.945031 262.77144 
L 343.593024 264.656348 
L 345.241016 265.254827 
L 346.889009 265.177384 
L 348.537002 264.165856 
L 350.184994 261.319245 
L 351.832987 263.932764 
L 353.480979 262.336119 
L 355.128972 263.36082 
L 356.776965 262.24544 
L 358.424957 264.270025 
L 360.07295 260.966076 
L 361.720943 265.250372 
L 363.368935 265.317697 
L 365.016928 263.021523 
L 366.66492 262.212223 
L 368.312913 264.970382 
L 369.960906 260.884115 
L 371.608898 264.341549 
L 373.256891 262.018139 
L 374.904883 263.78246 
L 376.552876 264.544097 
L 378.200869 260.633969 
L 379.848861 260.006345 
L 381.496854 259.037197 
L 383.144847 199.252782 
L 384.792839 259.32056 
L 386.440832 261.423223 
L 388.088824 264.236871 
L 389.736817 264.823514 
L 391.38481 264.028406 
L 393.032802 264.469009 
L 394.680795 261.093917 
L 396.328787 263.163299 
L 396.328787 263.163299 
" style="fill:none;stroke:#d62728;stroke-linecap:square;stroke-width:0.5;"/>
   </g>
   <g id="line2d_23">
    <path clip-path="url(#p6ee645766d)" d="M 74.970227 236.837468 
L 76.61822 228.836237 
L 78.266213 255.040972 
L 79.914205 263.446217 
L 81.562198 261.717404 
L 83.21019 244.225648 
L 84.858183 174.596456 
L 86.506176 191.141082 
L 88.154168 224.506251 
L 89.802161 264.229617 
L 91.450153 211.995967 
L 93.098146 254.693975 
L 94.746139 261.580145 
L 96.394131 247.380629 
L 98.042124 257.636928 
L 99.690117 264.417465 
L 101.338109 213.710207 
L 102.986102 237.487936 
L 104.634094 255.643651 
L 106.282087 252.104383 
L 107.93008 259.799534 
L 109.578072 260.694612 
L 111.226065 216.348543 
L 112.874057 229.311711 
L 114.52205 193.805826 
L 116.170043 262.515504 
L 117.818035 237.154048 
L 119.466028 235.547795 
L 121.114021 264.959946 
L 122.762013 193.391186 
L 124.410006 263.033358 
L 126.057998 205.421732 
L 127.705991 190.84811 
L 129.353984 243.172821 
L 131.001976 252.382274 
L 132.649969 234.486504 
L 134.297961 264.431083 
L 135.945954 245.857164 
L 137.593947 200.514075 
L 139.241939 264.936401 
L 140.889932 264.341168 
L 142.537925 249.321535 
L 144.185917 214.729372 
L 145.83391 259.207482 
L 147.481902 244.149096 
L 149.129895 232.957185 
L 150.777888 263.149554 
L 152.42588 257.305648 
L 154.073873 258.718772 
L 155.721865 215.590597 
L 157.369858 242.523371 
L 159.017851 261.362453 
L 160.665843 186.919783 
L 162.313836 264.097449 
L 163.961829 263.944663 
L 165.609821 261.674642 
L 167.257814 259.073405 
L 168.905806 261.85689 
L 170.553799 239.36018 
L 172.201792 257.832157 
L 173.849784 263.571131 
L 175.497777 263.482297 
L 177.145769 241.753779 
L 178.793762 264.435792 
L 180.441755 218.153271 
L 182.089747 243.613487 
L 183.73774 261.966723 
L 185.385733 225.708618 
L 187.033725 259.414102 
L 188.681718 207.738206 
L 190.32971 217.828483 
L 191.977703 200.725722 
L 193.625696 255.336935 
L 195.273688 257.24335 
L 196.921681 253.757344 
L 198.569674 253.862786 
L 200.217666 245.754331 
L 201.865659 263.044494 
L 203.513651 258.980563 
L 205.161644 261.410942 
L 206.809637 71.447911 
L 208.457629 264.258189 
L 210.105622 263.139246 
L 213.401607 258.598758 
L 215.0496 261.401333 
L 216.697592 262.140762 
L 218.345585 264.116857 
L 219.993578 221.782073 
L 221.64157 256.698515 
L 223.289563 261.841682 
L 224.937555 242.793307 
L 226.585548 264.657748 
L 228.233541 237.005844 
L 229.881533 233.315381 
L 231.529526 250.552092 
L 233.177518 218.245032 
L 234.825511 217.039801 
L 236.473504 236.484298 
L 238.121496 131.37913 
L 239.769489 223.80742 
L 241.417482 168.338928 
L 243.065474 237.935921 
L 244.713467 166.581226 
L 246.361459 208.778751 
L 248.009452 226.10035 
L 249.657445 261.448359 
L 251.305437 213.04943 
L 252.95343 261.863763 
L 256.249415 153.071695 
L 257.897408 131.552978 
L 259.5454 245.264348 
L 261.193393 259.488745 
L 262.841386 181.299678 
L 264.489378 224.9249 
L 266.137371 214.245498 
L 267.785363 169.382847 
L 269.433356 184.682915 
L 271.081349 255.047463 
L 272.729341 233.900052 
L 274.377334 158.890593 
L 276.025326 181.712282 
L 277.673319 224.658018 
L 279.321312 223.671371 
L 280.969304 164.681364 
L 282.617297 138.529254 
L 284.26529 226.35495 
L 285.913282 190.928926 
L 287.561275 237.603751 
L 289.209267 260.291426 
L 290.85726 260.587007 
L 292.505253 252.804741 
L 294.153245 225.188727 
L 295.801238 189.157287 
L 297.449231 148.487109 
L 299.097223 179.540321 
L 300.745216 203.169337 
L 302.393208 219.516951 
L 304.041201 249.730639 
L 305.689194 256.864473 
L 307.337186 234.243549 
L 308.985179 246.915527 
L 310.633171 232.211456 
L 312.281164 215.852706 
L 313.929157 241.228797 
L 315.577149 230.322158 
L 317.225142 215.409685 
L 318.873135 181.618485 
L 320.521127 226.506145 
L 322.16912 140.881618 
L 323.817112 209.721491 
L 325.465105 178.282783 
L 327.113098 181.992654 
L 328.76109 160.983202 
L 330.409083 154.78059 
L 332.057075 157.93029 
L 333.705068 249.428631 
L 335.353061 202.019659 
L 337.001053 245.203514 
L 338.649046 195.069091 
L 340.297039 168.655699 
L 341.945031 220.530771 
L 343.593024 213.08322 
L 345.241016 245.130016 
L 346.889009 228.854754 
L 348.537002 158.202898 
L 350.184994 259.589033 
L 351.832987 195.758185 
L 353.480979 243.126495 
L 355.128972 258.360193 
L 356.776965 189.479149 
L 358.424957 224.309812 
L 360.07295 262.361064 
L 361.720943 229.817794 
L 363.368935 255.666305 
L 365.016928 171.238991 
L 366.66492 250.335163 
L 368.312913 209.377994 
L 369.960906 237.182047 
L 371.608898 231.550997 
L 373.256891 246.612883 
L 374.904883 258.965927 
L 376.552876 167.663961 
L 378.200869 245.300811 
L 379.848861 255.197512 
L 381.496854 171.375805 
L 383.144847 256.972523 
L 384.792839 158.231152 
L 386.440832 262.360236 
L 388.088824 206.660943 
L 389.736817 159.241408 
L 391.38481 231.939484 
L 393.032802 260.408704 
L 394.680795 185.707234 
L 394.680795 185.707234 
" style="fill:none;stroke:#9467bd;stroke-linecap:square;stroke-width:0.5;"/>
   </g>
   <g id="line2d_24">
    <path clip-path="url(#p6ee645766d)" d="M 74.970227 157.71317 
L 76.61822 82.432057 
L 78.266213 252.740598 
L 79.914205 138.505582 
L 81.562198 227.409877 
L 83.21019 142.371548 
L 84.858183 220.919193 
L 86.506176 229.9016 
L 88.154168 175.244379 
L 89.802161 141.36371 
L 91.450153 248.395721 
L 93.098146 193.772991 
L 94.746139 171.459802 
L 96.394131 261.881517 
L 98.042124 239.572846 
L 99.690117 228.021274 
L 101.338109 262.345919 
L 102.986102 236.985736 
L 104.634094 203.208727 
L 106.282087 263.32073 
L 107.93008 260.580516 
L 109.578072 244.640097 
L 111.226065 109.337341 
L 112.874057 249.760228 
L 114.52205 255.19134 
L 116.170043 253.002389 
L 117.818035 228.412052 
L 119.466028 248.771481 
L 121.114021 234.814856 
L 122.762013 219.768561 
L 124.410006 160.805026 
L 126.057998 204.061424 
L 127.705991 255.965513 
L 129.353984 249.712376 
L 131.001976 227.821208 
L 132.649969 261.82011 
L 134.297961 258.734553 
L 135.945954 251.316402 
L 137.593947 255.098434 
L 139.241939 253.929984 
L 140.889932 263.700435 
L 142.537925 249.736429 
L 144.185917 255.12796 
L 145.83391 251.090182 
L 147.481902 244.188804 
L 149.129895 245.589137 
L 150.777888 206.985923 
L 152.42588 253.668829 
L 154.073873 250.150369 
L 155.721865 252.569104 
L 157.369858 244.136878 
L 159.017851 223.834783 
L 160.665843 236.271315 
L 162.313836 173.679997 
L 163.961829 247.226189 
L 165.609821 224.118528 
L 167.257814 225.26757 
L 168.905806 257.632346 
L 170.553799 203.003888 
L 172.201792 221.223301 
L 173.849784 249.580971 
L 175.497777 253.17891 
L 177.145769 263.780614 
L 178.793762 260.162758 
L 180.441755 264.045587 
L 182.089747 256.75114 
L 183.73774 252.148418 
L 185.385733 201.985169 
L 187.033725 249.804136 
L 188.681718 253.669402 
L 190.32971 245.120599 
L 191.977703 253.899439 
L 193.625696 234.243294 
L 195.273688 263.163618 
L 196.921681 246.331366 
L 198.569674 246.350583 
L 200.217666 231.230917 
L 201.865659 168.134472 
L 203.513651 233.09228 
L 205.161644 156.208731 
L 206.809637 256.619608 
L 208.457629 210.362351 
L 210.105622 113.289849 
L 211.753614 203.606567 
L 213.401607 261.924533 
L 215.0496 146.273213 
L 216.697592 126.394603 
L 218.345585 261.457522 
L 219.993578 240.64769 
L 221.64157 250.438759 
L 223.289563 252.392455 
L 224.937555 193.613269 
L 226.585548 256.915125 
L 228.233541 90.340573 
L 229.881533 246.568657 
L 231.529526 261.490421 
L 233.177518 257.488787 
L 234.825511 259.840006 
L 236.473504 257.569348 
L 238.121496 264.059968 
L 239.769489 264.93182 
L 241.417482 261.027228 
L 243.065474 263.146882 
L 244.713467 259.135703 
L 246.361459 263.694581 
L 248.009452 243.185866 
L 249.657445 199.75511 
L 251.305437 229.810985 
L 252.95343 230.511024 
L 254.601422 254.221555 
L 256.249415 196.462615 
L 257.897408 225.764871 
L 259.5454 262.086673 
L 261.193393 208.110593 
L 264.489378 254.629259 
L 266.137371 93.113113 
L 267.785363 245.346882 
L 269.433356 136.501997 
L 271.081349 241.811814 
L 272.729341 261.382052 
L 274.377334 198.617141 
L 276.025326 263.616884 
L 277.673319 262.968006 
L 279.321312 261.577027 
L 280.969304 255.336808 
L 282.617297 261.442377 
L 284.26529 216.95504 
L 285.913282 258.131174 
L 287.561275 255.812982 
L 289.209267 179.918944 
L 290.85726 220.296215 
L 292.505253 211.757975 
L 294.153245 256.893235 
L 295.801238 263.552613 
L 297.449231 251.088655 
L 299.097223 234.57381 
L 300.745216 237.442947 
L 302.393208 259.263289 
L 304.041201 262.935235 
L 305.689194 261.773466 
L 307.337186 249.324971 
L 308.985179 256.211204 
L 310.633171 258.62803 
L 312.281164 264.439228 
L 313.929157 253.487917 
L 315.577149 256.098827 
L 317.225142 178.809801 
L 318.873135 256.238822 
L 320.521127 248.944757 
L 322.16912 256.546747 
L 323.817112 248.382994 
L 325.465105 246.494587 
L 327.113098 220.829088 
L 328.76109 215.5038 
L 330.409083 220.842642 
L 332.057075 164.048586 
L 333.705068 206.964796 
L 335.353061 224.135773 
L 337.001053 162.044365 
L 340.297039 260.811063 
L 341.945031 238.213811 
L 343.593024 261.474576 
L 345.241016 188.886588 
L 346.889009 264.316159 
L 348.537002 262.855183 
L 350.184994 255.887434 
L 351.832987 128.721386 
L 353.480979 222.425159 
L 355.128972 261.006802 
L 356.776965 223.168343 
L 358.424957 260.664704 
L 360.07295 245.985132 
L 361.720943 263.976226 
L 363.368935 224.071884 
L 365.016928 252.472825 
L 366.66492 237.421375 
L 368.312913 199.857752 
L 369.960906 244.328226 
L 371.608898 207.998342 
L 373.256891 246.820712 
L 374.904883 197.821841 
L 376.552876 58.54755 
L 378.200869 258.21008 
L 379.848861 254.588406 
L 381.496854 216.312081 
L 383.144847 244.706658 
L 384.792839 177.405077 
L 386.440832 186.489362 
L 388.088824 148.82157 
L 388.088824 148.82157 
" style="fill:none;stroke:#8c564b;stroke-linecap:square;stroke-width:0.5;"/>
   </g>
   <g id="line2d_25">
    <path clip-path="url(#p6ee645766d)" d="M 74.970227 221.23921 
L 76.61822 251.971515 
L 78.266213 265.362687 
L 79.914205 257.29604 
L 81.562198 161.387215 
L 83.21019 162.97896 
L 84.858183 223.449224 
L 86.506176 253.681492 
L 88.154168 263.280386 
L 89.802161 222.213767 
L 91.450153 263.086684 
L 93.098146 249.526309 
L 94.746139 255.831436 
L 96.394131 256.494949 
L 98.042124 258.151155 
L 99.690117 259.263735 
L 101.338109 229.800803 
L 102.986102 185.75146 
L 104.634094 239.553183 
L 106.282087 245.436415 
L 107.93008 230.997698 
L 109.578072 191.503988 
L 111.226065 177.439567 
L 112.874057 234.224013 
L 114.52205 262.461669 
L 116.170043 234.669325 
L 117.818035 235.436053 
L 119.466028 252.011032 
L 121.114021 262.487059 
L 122.762013 256.40777 
L 124.410006 226.013108 
L 126.057998 262.702906 
L 127.705991 258.40951 
L 129.353984 264.424783 
L 131.001976 259.559379 
L 132.649969 250.257975 
L 134.297961 256.517285 
L 135.945954 260.345388 
L 137.593947 263.003896 
L 139.241939 82.461456 
L 140.889932 236.148819 
L 142.537925 262.179643 
L 144.185917 260.498619 
L 145.83391 262.689925 
L 147.481902 264.1922 
L 149.129895 229.887537 
L 150.777888 256.11289 
L 152.42588 208.772643 
L 154.073873 241.233634 
L 155.721865 197.649392 
L 157.369858 119.149918 
L 159.017851 258.259779 
L 160.665843 208.669364 
L 162.313836 257.695153 
L 163.961829 247.294214 
L 165.609821 257.541349 
L 167.257814 172.068335 
L 168.905806 153.31255 
L 170.553799 263.224452 
L 172.201792 247.602967 
L 173.849784 149.513973 
L 175.497777 261.638371 
L 177.145769 261.505502 
L 178.793762 196.430544 
L 180.441755 238.78461 
L 182.089747 259.684738 
L 183.73774 250.782575 
L 185.385733 240.495032 
L 187.033725 250.482794 
L 188.681718 262.222978 
L 190.32971 256.873636 
L 191.977703 171.539599 
L 193.625696 252.043931 
L 195.273688 249.843462 
L 196.921681 253.794507 
L 198.569674 260.035363 
L 200.217666 259.9996 
L 201.865659 262.850092 
L 203.513651 256.756104 
L 205.161644 225.250898 
L 206.809637 200.812328 
L 208.457629 243.997329 
L 210.105622 248.453628 
L 211.753614 203.054668 
L 213.401607 255.592935 
L 215.0496 259.835742 
L 216.697592 253.978855 
L 218.345585 211.500448 
L 219.993578 247.695555 
L 221.64157 253.116612 
L 223.289563 241.998262 
L 224.937555 247.333031 
L 226.585548 262.467078 
L 228.233541 255.472985 
L 229.881533 241.73348 
L 231.529526 247.400229 
L 233.177518 263.180926 
L 234.825511 250.180214 
L 236.473504 248.2206 
L 238.121496 229.849992 
L 239.769489 254.974856 
L 241.417482 62.416061 
L 243.065474 98.275688 
L 244.713467 260.839698 
L 246.361459 257.604092 
L 248.009452 219.750934 
L 249.657445 245.075227 
L 251.305437 241.62632 
L 252.95343 251.81873 
L 254.601422 259.310824 
L 256.249415 210.961148 
L 257.897408 254.784209 
L 259.5454 264.946392 
L 261.193393 245.12658 
L 262.841386 142.022324 
L 264.489378 214.824441 
L 266.137371 250.483622 
L 267.785363 249.38816 
L 269.433356 248.662667 
L 271.081349 254.08856 
L 272.729341 243.584979 
L 274.377334 259.849487 
L 276.025326 254.998401 
L 277.673319 263.579721 
L 279.321312 252.959945 
L 280.969304 211.3161 
L 282.617297 148.320323 
L 284.26529 163.122964 
L 285.913282 238.921932 
L 287.561275 259.333796 
L 289.209267 250.022656 
L 290.85726 176.282762 
L 292.505253 227.060208 
L 294.153245 127.693249 
L 295.801238 208.333885 
L 297.449231 264.188 
L 299.097223 264.280206 
L 300.745216 263.543132 
L 302.393208 222.141987 
L 304.041201 243.770536 
L 305.689194 222.437186 
L 307.337186 260.184203 
L 308.985179 250.77952 
L 310.633171 227.357443 
L 312.281164 127.101006 
L 313.929157 248.696902 
L 315.577149 239.804029 
L 317.225142 252.715844 
L 318.873135 231.429774 
L 320.521127 159.283025 
L 322.16912 263.929455 
L 323.817112 260.771992 
L 325.465105 219.811005 
L 327.113098 203.890885 
L 328.76109 179.519386 
L 330.409083 258.955809 
L 332.057075 244.108116 
L 333.705068 258.980499 
L 335.353061 256.259312 
L 337.001053 212.454642 
L 338.649046 259.183556 
L 340.297039 263.323976 
L 341.945031 235.272895 
L 343.593024 250.383843 
L 345.241016 257.599829 
L 346.889009 237.862742 
L 348.537002 192.461427 
L 350.184994 174.882174 
L 351.832987 259.691038 
L 353.480979 255.457712 
L 355.128972 258.310941 
L 356.776965 253.774144 
L 358.424957 228.450741 
L 360.07295 254.288689 
L 361.720943 247.460299 
L 365.016928 259.573124 
L 366.66492 242.333995 
L 368.312913 240.075747 
L 369.960906 164.12972 
L 371.608898 205.766438 
L 373.256891 197.688655 
L 374.904883 256.812165 
L 376.552876 253.465009 
L 378.200869 195.427288 
L 379.848861 179.162462 
L 381.496854 217.699623 
L 383.144847 173.851364 
L 384.792839 243.906841 
L 386.440832 131.666693 
L 388.088824 251.625664 
L 389.736817 257.357383 
L 391.38481 256.174233 
L 393.032802 256.99855 
L 394.680795 254.028044 
L 396.328787 178.021119 
L 397.97678 203.672174 
L 397.97678 203.672174 
" style="fill:none;stroke:#e377c2;stroke-linecap:square;stroke-width:0.5;"/>
   </g>
   <g id="line2d_26">
    <path clip-path="url(#p6ee645766d)" d="M 74.970227 221.234246 
L 76.61822 199.723039 
L 78.266213 263.506033 
L 79.914205 263.972662 
L 81.562198 255.927587 
L 83.21019 264.500317 
L 84.858183 264.559624 
L 86.506176 246.591375 
L 88.154168 264.29866 
L 89.802161 261.860581 
L 91.450153 257.499351 
L 93.098146 261.643334 
L 94.746139 260.005836 
L 96.394131 190.091628 
L 98.042124 265.278626 
L 99.690117 264.950656 
L 101.338109 265.268254 
L 102.986102 264.755044 
L 104.634094 233.981949 
L 106.282087 260.542781 
L 107.93008 264.858131 
L 109.578072 260.173958 
L 111.226065 249.272282 
L 112.874057 263.394355 
L 114.52205 265.048016 
L 116.170043 264.30356 
L 117.818035 257.41529 
L 119.466028 264.247625 
L 121.114021 255.998094 
L 122.762013 206.79012 
L 124.410006 243.984538 
L 126.057998 263.402309 
L 127.705991 261.061209 
L 129.353984 226.2224 
L 131.001976 243.277308 
L 132.649969 255.733566 
L 134.297961 261.852054 
L 135.945954 242.363013 
L 137.593947 261.574864 
L 139.241939 253.832814 
L 140.889932 158.327812 
L 142.537925 243.132986 
L 144.185917 261.761057 
L 145.83391 257.654936 
L 147.481902 261.642761 
L 149.129895 258.895802 
L 150.777888 261.055545 
L 152.42588 261.362771 
L 154.073873 263.723344 
L 155.721865 227.69464 
L 157.369858 264.250425 
L 159.017851 235.719352 
L 160.665843 264.786798 
L 162.313836 261.917724 
L 163.961829 264.350585 
L 165.609821 265.387504 
L 167.257814 264.912793 
L 168.905806 231.417493 
L 170.553799 264.796852 
L 172.201792 264.890839 
L 173.849784 264.591186 
L 175.497777 263.692163 
L 177.145769 263.51666 
L 178.793762 262.567875 
L 180.441755 253.362112 
L 182.089747 264.592968 
L 183.73774 264.439228 
L 185.385733 264.968537 
L 187.033725 265.19062 
L 188.681718 259.340669 
L 190.32971 265.287344 
L 191.977703 262.439588 
L 193.625696 258.307504 
L 195.273688 264.374257 
L 196.921681 265.077733 
L 198.569674 264.784061 
L 200.217666 264.042342 
L 201.865659 263.686309 
L 203.513651 264.779289 
L 205.161644 262.253522 
L 206.809637 265.015181 
L 208.457629 263.210198 
L 210.105622 265.249291 
L 211.753614 263.566104 
L 213.401607 264.193091 
L 215.0496 259.026825 
L 216.697592 265.270926 
L 218.345585 263.580739 
L 219.993578 264.213772 
L 221.64157 262.046711 
L 223.289563 263.159163 
L 224.937555 264.733154 
L 228.233541 261.685269 
L 229.881533 253.377448 
L 231.529526 47.928791 
L 233.177518 263.925382 
L 234.825511 264.555742 
L 236.473504 264.574896 
L 238.121496 263.553886 
L 239.769489 265.135831 
L 241.417482 259.179992 
L 243.065474 239.440869 
L 244.713467 264.149629 
L 246.361459 228.503876 
L 248.009452 260.129477 
L 249.657445 264.398184 
L 251.305437 242.104276 
L 252.95343 243.213674 
L 254.601422 261.186186 
L 256.249415 262.472932 
L 257.897408 264.868886 
L 259.5454 261.758639 
L 261.193393 261.555073 
L 262.841386 265.217537 
L 264.489378 260.104087 
L 266.137371 264.591123 
L 267.785363 258.969681 
L 269.433356 264.387493 
L 271.081349 261.299137 
L 272.729341 265.134176 
L 274.377334 263.867602 
L 276.025326 264.009315 
L 277.673319 265.099369 
L 279.321312 264.421601 
L 280.969304 264.94531 
L 282.617297 265.186802 
L 284.26529 263.967635 
L 285.913282 256.880254 
L 287.561275 264.542888 
L 289.209267 263.966362 
L 290.85726 264.980754 
L 292.505253 265.058325 
L 294.153245 264.381703 
L 295.801238 263.141473 
L 297.449231 264.059205 
L 299.097223 264.291788 
L 300.745216 263.724044 
L 302.393208 262.207705 
L 304.041201 262.33491 
L 305.689194 259.922666 
L 307.337186 264.415047 
L 308.985179 262.142862 
L 310.633171 264.626567 
L 312.281164 264.887212 
L 313.929157 264.853995 
L 315.577149 263.512205 
L 317.225142 264.340149 
L 318.873135 265.44172 
L 320.521127 265.34996 
L 322.16912 264.00187 
L 323.817112 207.301357 
L 325.465105 264.894848 
L 327.113098 264.810788 
L 328.76109 259.353586 
L 330.409083 265.377323 
L 332.057075 264.49408 
L 333.705068 246.865511 
L 335.353061 265.266408 
L 337.001053 264.943083 
L 338.649046 263.895856 
L 340.297039 263.283377 
L 341.945031 265.091223 
L 343.593024 264.784252 
L 345.241016 265.181266 
L 346.889009 265.214228 
L 348.537002 264.588323 
L 350.184994 263.331739 
L 351.832987 261.389306 
L 353.480979 202.179381 
L 355.128972 262.286103 
L 356.776965 256.816429 
L 358.424957 245.131098 
L 360.07295 202.425199 
L 361.720943 264.412883 
L 363.368935 265.344996 
L 365.016928 265.259663 
L 366.66492 233.889998 
L 368.312913 261.823164 
L 369.960906 261.766784 
L 371.608898 263.21427 
L 373.256891 264.315459 
L 374.904883 262.954643 
L 376.552876 264.308332 
L 378.200869 262.940707 
L 379.848861 264.558478 
L 381.496854 265.2526 
L 383.144847 264.232608 
L 384.792839 264.38813 
L 386.440832 261.276547 
L 388.088824 260.602534 
L 389.736817 223.39208 
L 391.38481 216.982085 
L 393.032802 246.149881 
L 394.680795 175.096875 
L 396.328787 264.024015 
L 397.97678 263.582967 
L 399.624773 227.555154 
L 399.624773 227.555154 
" style="fill:none;stroke:#7f7f7f;stroke-linecap:square;stroke-width:0.5;"/>
   </g>
   <g id="line2d_27">
    <path clip-path="url(#p6ee645766d)" d="M 74.970227 187.659467 
L 76.61822 217.689824 
L 78.266213 250.346235 
L 79.914205 131.928229 
L 81.562198 183.958568 
L 83.21019 258.567259 
L 84.858183 258.606267 
L 86.506176 257.691144 
L 88.154168 242.991909 
L 89.802161 262.928998 
L 91.450153 262.467269 
L 93.098146 204.428339 
L 94.746139 215.982519 
L 96.394131 182.520309 
L 98.042124 156.882299 
L 99.690117 240.344092 
L 101.338109 221.199247 
L 102.986102 206.881372 
L 104.634094 204.889814 
L 106.282087 154.748137 
L 107.93008 112.312174 
L 109.578072 264.230062 
L 111.226065 231.005398 
L 112.874057 206.19775 
L 114.52205 210.785773 
L 116.170043 207.859811 
L 117.818035 235.964217 
L 119.466028 188.048208 
L 121.114021 255.685077 
L 122.762013 161.224948 
L 124.410006 250.623935 
L 126.057998 214.185046 
L 127.705991 204.47231 
L 129.353984 256.191605 
L 131.001976 191.681909 
L 132.649969 181.530161 
L 134.297961 245.418788 
L 135.945954 219.892011 
L 137.593947 221.36616 
L 139.241939 240.86341 
L 140.889932 207.513386 
L 142.537925 149.323516 
L 144.185917 156.590027 
L 145.83391 265.01868 
L 147.481902 244.428641 
L 149.129895 185.44468 
L 150.777888 246.099674 
L 152.42588 249.18103 
L 154.073873 261.120389 
L 155.721865 123.461577 
L 157.369858 197.23418 
L 159.017851 246.928572 
L 160.665843 99.810162 
L 162.313836 225.890866 
L 163.961829 156.010384 
L 165.609821 216.140523 
L 167.257814 168.87931 
L 168.905806 242.655857 
L 170.553799 264.357712 
L 172.201792 242.154356 
L 173.849784 250.527147 
L 175.497777 261.020674 
L 177.145769 173.867845 
L 178.793762 212.686207 
L 180.441755 82.718665 
L 182.089747 152.182598 
L 183.73774 254.815644 
L 187.033725 213.698626 
L 188.681718 229.136717 
L 190.32971 210.576544 
L 191.977703 239.556046 
L 193.625696 140.268185 
L 195.273688 229.244386 
L 196.921681 259.65114 
L 198.569674 263.994425 
L 200.217666 232.150431 
L 201.865659 221.931104 
L 203.513651 252.75517 
L 205.161644 156.190914 
L 206.809637 249.30219 
L 208.457629 257.71647 
L 210.105622 218.314775 
L 211.753614 262.90259 
L 213.401607 256.04881 
L 215.0496 259.849042 
L 216.697592 246.668436 
L 218.345585 190.129044 
L 219.993578 249.940568 
L 221.64157 223.291284 
L 223.289563 264.059523 
L 224.937555 217.358099 
L 226.585548 228.366871 
L 228.233541 260.218502 
L 229.881533 207.052293 
L 233.177518 251.792958 
L 234.825511 198.404921 
L 236.473504 175.369421 
L 238.121496 250.10048 
L 239.769489 142.447845 
L 241.417482 160.170976 
L 243.065474 159.066605 
L 244.713467 228.873208 
L 246.361459 212.322156 
L 248.009452 174.774314 
L 249.657445 220.962019 
L 252.95343 236.564478 
L 254.601422 242.975555 
L 256.249415 246.839548 
L 257.897408 254.162821 
L 259.5454 178.676042 
L 261.193393 184.817756 
L 262.841386 169.861312 
L 264.489378 257.538295 
L 266.137371 249.968567 
L 267.785363 157.508332 
L 271.081349 245.135044 
L 272.729341 192.967891 
L 274.377334 243.003363 
L 276.025326 262.010376 
L 277.673319 224.995152 
L 279.321312 232.540699 
L 280.969304 233.375388 
L 282.617297 229.411744 
L 284.26529 252.464107 
L 285.913282 235.759633 
L 287.561275 240.398753 
L 289.209267 185.589638 
L 290.85726 174.426299 
L 292.505253 253.41442 
L 294.153245 145.669325 
L 295.801238 174.449398 
L 297.449231 164.274169 
L 299.097223 242.258334 
L 300.745216 244.19854 
L 302.393208 168.946189 
L 304.041201 232.129113 
L 305.689194 218.366637 
L 307.337186 210.16833 
L 308.985179 244.595808 
L 310.633171 202.101556 
L 312.281164 233.229602 
L 313.929157 209.810834 
L 315.577149 244.763929 
L 317.225142 234.576992 
L 318.873135 215.673003 
L 320.521127 202.532359 
L 322.16912 197.492534 
L 323.817112 205.036936 
L 325.465105 250.371244 
L 327.113098 229.878755 
L 328.76109 243.382432 
L 330.409083 166.06528 
L 332.057075 253.595268 
L 333.705068 246.730225 
L 335.353061 229.942962 
L 337.001053 240.747469 
L 338.649046 239.981632 
L 340.297039 257.072238 
L 341.945031 262.652572 
L 343.593024 209.517226 
L 345.241016 240.472251 
L 346.889009 167.731795 
L 348.537002 260.171285 
L 350.184994 124.352837 
L 351.832987 254.53839 
L 353.480979 142.662611 
L 355.128972 252.736461 
L 356.776965 260.859361 
L 358.424957 260.266736 
L 360.07295 256.057146 
L 361.720943 149.305062 
L 363.368935 258.897775 
L 365.016928 261.864145 
L 366.66492 128.874426 
L 368.312913 264.677347 
L 369.960906 254.222319 
L 371.608898 264.705982 
L 373.256891 191.477643 
L 374.904883 152.18158 
L 376.552876 216.668114 
L 378.200869 178.593699 
L 379.848861 151.050229 
L 381.496854 250.758585 
L 383.144847 204.608042 
L 384.792839 219.756661 
L 386.440832 245.779403 
L 388.088824 205.619379 
L 389.736817 173.300992 
L 391.38481 189.311346 
L 393.032802 209.032079 
L 394.680795 201.533367 
L 396.328787 256.991041 
L 397.97678 260.024608 
L 397.97678 260.024608 
" style="fill:none;stroke:#bcbd22;stroke-linecap:square;stroke-width:0.5;"/>
   </g>
   <g id="line2d_28">
    <path clip-path="url(#p6ee645766d)" d="M 74.970227 259.14283 
L 76.61822 254.134122 
L 78.266213 257.002622 
L 79.914205 214.489217 
L 81.562198 185.244105 
L 83.21019 242.227854 
L 84.858183 263.857103 
L 86.506176 45.973059 
L 88.154168 262.615218 
L 89.802161 260.72433 
L 91.450153 252.668627 
L 93.098146 261.074954 
L 94.746139 95.102508 
L 96.394131 197.848758 
L 98.042124 252.403528 
L 99.690117 257.807149 
L 101.338109 261.884189 
L 102.986102 233.493875 
L 104.634094 265.072515 
L 106.282087 262.799757 
L 107.93008 252.95199 
L 109.578072 251.085601 
L 111.226065 262.056129 
L 112.874057 250.3036 
L 114.52205 261.518738 
L 116.170043 249.135341 
L 117.818035 265.270099 
L 119.466028 263.851566 
L 121.114021 255.49112 
L 122.762013 256.663707 
L 124.410006 143.743691 
L 127.705991 252.560704 
L 129.353984 263.333648 
L 131.001976 265.245791 
L 132.649969 262.299148 
L 134.297961 264.783234 
L 135.945954 264.216508 
L 137.593947 264.25838 
L 139.241939 264.646166 
L 140.889932 261.682851 
L 142.537925 260.815199 
L 144.185917 258.236552 
L 145.83391 220.387785 
L 147.481902 194.535964 
L 149.129895 265.110823 
L 150.777888 245.071855 
L 152.42588 261.872162 
L 154.073873 236.492125 
L 155.721865 262.802876 
L 157.369858 247.196599 
L 159.017851 218.609019 
L 160.665843 263.52525 
L 162.313836 257.432217 
L 163.961829 263.363556 
L 165.609821 262.733451 
L 167.257814 257.499478 
L 168.905806 258.264615 
L 170.553799 263.571067 
L 172.201792 264.846168 
L 173.849784 263.108065 
L 175.497777 246.966625 
L 177.145769 251.130972 
L 178.793762 122.469012 
L 180.441755 257.908455 
L 182.089747 247.79126 
L 183.73774 250.931288 
L 185.385733 227.277327 
L 187.033725 252.892111 
L 188.681718 262.864919 
L 190.32971 248.243254 
L 191.977703 245.939125 
L 195.273688 255.665478 
L 196.921681 236.614176 
L 198.569674 212.824993 
L 200.217666 264.472699 
L 201.865659 219.202662 
L 203.513651 235.480024 
L 205.161644 232.222274 
L 206.809637 263.200844 
L 208.457629 183.066862 
L 210.105622 263.366674 
L 211.753614 255.650524 
L 213.401607 244.099398 
L 215.0496 261.936624 
L 216.697592 258.118829 
L 218.345585 257.489424 
L 219.993578 256.151516 
L 221.64157 181.456282 
L 223.289563 264.146765 
L 224.937555 256.986459 
L 226.585548 261.707223 
L 228.233541 221.023999 
L 229.881533 256.890181 
L 231.529526 264.150138 
L 233.177518 263.708644 
L 234.825511 265.154985 
L 236.473504 264.88893 
L 238.121496 263.104565 
L 239.769489 248.509117 
L 241.417482 242.987455 
L 243.065474 233.900688 
L 244.713467 261.03461 
L 246.361459 257.092092 
L 248.009452 215.54198 
L 249.657445 189.852363 
L 251.305437 261.260129 
L 252.95343 257.370491 
L 254.601422 261.372125 
L 256.249415 175.745944 
L 257.897408 253.450055 
L 259.5454 171.877242 
L 261.193393 194.569308 
L 262.841386 226.330642 
L 264.489378 237.186565 
L 266.137371 239.063963 
L 267.785363 259.381585 
L 269.433356 204.453729 
L 271.081349 180.83184 
L 272.729341 259.329342 
L 274.377334 261.144888 
L 276.025326 253.73609 
L 277.673319 241.155045 
L 279.321312 264.24228 
L 280.969304 257.264732 
L 282.617297 263.269505 
L 284.26529 262.715124 
L 285.913282 256.326 
L 287.561275 262.985951 
L 289.209267 261.341263 
L 290.85726 256.987096 
L 292.505253 264.193855 
L 294.153245 263.464098 
L 295.801238 220.637867 
L 297.449231 264.566878 
L 299.097223 259.253999 
L 300.745216 263.177935 
L 302.393208 232.482792 
L 304.041201 258.715208 
L 305.689194 256.64398 
L 307.337186 260.067307 
L 308.985179 264.447246 
L 310.633171 263.325439 
L 312.281164 260.07367 
L 313.929157 262.476432 
L 315.577149 257.01764 
L 317.225142 218.357155 
L 318.873135 232.147122 
L 320.521127 264.850177 
L 322.16912 261.796056 
L 323.817112 235.376937 
L 325.465105 227.877779 
L 327.113098 264.111703 
L 328.76109 264.256661 
L 330.409083 264.214599 
L 332.057075 264.801752 
L 333.705068 263.413063 
L 335.353061 233.936514 
L 337.001053 264.882312 
L 338.649046 261.59669 
L 340.297039 254.182357 
L 341.945031 231.694874 
L 343.593024 261.448613 
L 345.241016 261.108171 
L 346.889009 254.360341 
L 348.537002 260.740811 
L 350.184994 195.489522 
L 351.832987 260.432694 
L 353.480979 259.606277 
L 355.128972 220.562206 
L 356.776965 206.470168 
L 358.424957 242.410038 
L 358.424957 242.410038 
" style="fill:none;stroke:#17becf;stroke-linecap:square;stroke-width:0.5;"/>
   </g>
   <g id="line2d_29">
    <path clip-path="url(#p6ee645766d)" d="M 74.970227 176.301343 
L 76.61822 160.290735 
L 78.266213 74.911709 
L 79.914205 93.983565 
L 81.562198 211.107952 
L 83.21019 176.528071 
L 84.858183 236.475835 
L 86.506176 185.979143 
L 88.154168 219.537441 
L 89.802161 264.393411 
L 91.450153 156.366735 
L 93.098146 213.285131 
L 94.746139 180.483125 
L 96.394131 225.227926 
L 98.042124 184.37219 
L 99.690117 112.448733 
L 101.338109 198.606832 
L 102.986102 238.548972 
L 104.634094 98.920366 
L 106.282087 193.33436 
L 107.93008 240.076065 
L 109.578072 231.731082 
L 111.226065 225.633021 
L 112.874057 237.958447 
L 114.52205 231.472536 
L 116.170043 179.534658 
L 117.818035 223.930934 
L 119.466028 261.74254 
L 121.114021 231.516507 
L 122.762013 188.330616 
L 124.410006 254.791336 
L 126.057998 188.198002 
L 127.705991 219.827804 
L 129.353984 204.912149 
L 131.001976 166.445939 
L 132.649969 169.575467 
L 134.297961 180.752297 
L 135.945954 135.486842 
L 137.593947 215.019098 
L 139.241939 200.060363 
L 140.889932 256.99855 
L 142.537925 241.351166 
L 144.185917 139.778011 
L 145.83391 240.141926 
L 147.481902 257.09031 
L 149.129895 105.666223 
L 150.777888 238.957249 
L 152.42588 193.14524 
L 154.073873 231.148129 
L 155.721865 175.004288 
L 157.369858 197.459508 
L 159.017851 86.053031 
L 160.665843 180.444308 
L 162.313836 163.776678 
L 163.961829 249.045108 
L 165.609821 221.061607 
L 167.257814 214.356158 
L 168.905806 235.057684 
L 170.553799 235.122146 
L 172.201792 249.38765 
L 173.849784 190.98906 
L 175.497777 246.231969 
L 177.145769 229.565993 
L 178.793762 123.396543 
L 180.441755 250.01362 
L 182.089747 260.353724 
L 183.73774 239.578827 
L 185.385733 157.075747 
L 187.033725 178.966087 
L 188.681718 151.562102 
L 190.32971 244.20923 
L 191.977703 220.906339 
L 193.625696 226.638122 
L 195.273688 256.147634 
L 196.921681 220.654348 
L 198.569674 244.542419 
L 200.217666 234.685806 
L 201.865659 168.896427 
L 203.513651 230.266669 
L 205.161644 255.38256 
L 206.809637 166.753165 
L 208.457629 179.228196 
L 210.105622 261.484949 
L 211.753614 188.03459 
L 213.401607 224.05973 
L 215.0496 158.977899 
L 216.697592 254.633268 
L 218.345585 255.902706 
L 219.993578 239.544401 
L 221.64157 194.789992 
L 223.289563 234.132507 
L 224.937555 182.274999 
L 226.585548 253.751935 
L 228.233541 237.630986 
L 229.881533 156.248757 
L 231.529526 262.086164 
L 233.177518 193.800353 
L 234.825511 244.693359 
L 236.473504 252.990425 
L 238.121496 227.584235 
L 239.769489 85.058238 
L 241.417482 264.376294 
L 244.713467 216.055444 
L 246.361459 259.759127 
L 249.657445 120.031697 
L 251.305437 183.352071 
L 252.95343 234.873273 
L 254.601422 240.030757 
L 256.249415 162.383981 
L 257.897408 238.615025 
L 259.5454 218.74246 
L 261.193393 115.342878 
L 262.841386 189.617808 
L 264.489378 173.92798 
L 266.137371 188.402077 
L 267.785363 250.692405 
L 269.433356 222.758157 
L 271.081349 238.430995 
L 272.729341 259.920503 
L 274.377334 233.491648 
L 276.025326 107.003176 
L 277.673319 207.48876 
L 279.321312 164.25317 
L 280.969304 235.147536 
L 282.617297 222.493375 
L 284.26529 147.977144 
L 285.913282 253.062077 
L 287.561275 252.971271 
L 289.209267 238.218075 
L 292.505253 195.540366 
L 294.153245 260.998338 
L 295.801238 158.493007 
L 297.449231 241.783115 
L 299.097223 165.560152 
L 300.745216 255.919442 
L 302.393208 231.849314 
L 304.041201 196.950562 
L 305.689194 155.918623 
L 307.337186 146.16828 
L 308.985179 222.16795 
L 310.633171 148.266743 
L 312.281164 226.722883 
L 313.929157 194.48512 
L 315.577149 168.711252 
L 317.225142 172.408587 
L 318.873135 229.212951 
L 320.521127 209.56527 
L 322.16912 112.880808 
L 323.817112 149.650595 
L 325.465105 193.631277 
L 327.113098 211.114888 
L 328.76109 238.621388 
L 330.409083 259.900267 
L 332.057075 230.732916 
L 333.705068 175.508843 
L 335.353061 174.317548 
L 337.001053 248.945266 
L 338.649046 217.051001 
L 340.297039 162.916217 
L 341.945031 129.055401 
L 343.593024 201.606228 
L 345.241016 205.347725 
L 346.889009 241.4267 
L 348.537002 176.099941 
L 350.184994 167.999376 
L 351.832987 213.064893 
L 353.480979 224.396736 
L 355.128972 242.657002 
L 356.776965 219.052295 
L 358.424957 242.641921 
L 360.07295 243.012145 
L 361.720943 242.109876 
L 363.368935 194.184067 
L 365.016928 164.843759 
L 366.66492 222.909352 
L 368.312913 219.22258 
L 369.960906 227.029472 
L 371.608898 137.07375 
L 373.256891 147.499697 
L 374.904883 169.21778 
L 376.552876 159.387512 
L 378.200869 252.141737 
L 379.848861 107.876364 
L 381.496854 216.655705 
L 383.144847 223.073401 
L 384.792839 202.615338 
L 386.440832 177.870497 
L 388.088824 195.458978 
L 389.736817 146.496187 
L 391.38481 263.117928 
L 393.032802 211.039355 
L 394.680795 149.799372 
L 396.328787 249.669677 
L 397.97678 209.107422 
L 397.97678 209.107422 
" style="fill:none;stroke:#1f77b4;stroke-linecap:square;stroke-width:0.5;"/>
   </g>
   <g id="line2d_30">
    <path clip-path="url(#p6ee645766d)" d="M 74.970227 252.302158 
L 76.61822 260.874761 
L 78.266213 260.727193 
L 79.914205 254.36925 
L 81.562198 226.440856 
L 83.21019 193.438275 
L 84.858183 253.003025 
L 86.506176 188.343088 
L 88.154168 252.038331 
L 89.802161 263.914055 
L 91.450153 264.802961 
L 93.098146 211.454249 
L 94.746139 236.997699 
L 96.394131 219.676928 
L 98.042124 261.094362 
L 99.690117 262.035702 
L 101.338109 264.073586 
L 102.986102 225.097857 
L 104.634094 259.661894 
L 106.282087 254.733747 
L 107.93008 256.77093 
L 109.578072 257.613192 
L 111.226065 45.577 
L 112.874057 195.04841 
L 114.52205 230.607684 
L 117.818035 255.94935 
L 119.466028 233.80581 
L 121.114021 262.971824 
L 122.762013 217.309419 
L 124.410006 125.324722 
L 126.057998 256.248303 
L 127.705991 264.659529 
L 129.353984 245.810266 
L 131.001976 259.178847 
L 132.649969 255.639324 
L 134.297961 231.832896 
L 135.945954 261.384916 
L 137.593947 258.786988 
L 139.241939 264.298342 
L 140.889932 263.690317 
L 142.537925 264.015552 
L 144.185917 258.661819 
L 145.83391 258.731817 
L 150.777888 265.259727 
L 154.073873 256.181042 
L 155.721865 263.436354 
L 157.369858 259.634149 
L 159.017851 212.73266 
L 160.665843 262.21935 
L 162.313836 259.623013 
L 163.961829 263.545995 
L 165.609821 264.065059 
L 167.257814 262.015403 
L 168.905806 265.165612 
L 170.553799 251.67498 
L 172.201792 228.823955 
L 173.849784 190.834302 
L 175.497777 263.666582 
L 177.145769 164.531315 
L 178.793762 257.9159 
L 180.441755 261.478585 
L 182.089747 262.585056 
L 183.73774 256.369972 
L 185.385733 178.783011 
L 187.033725 263.529832 
L 188.681718 260.161231 
L 190.32971 265.183875 
L 191.977703 257.145672 
L 193.625696 263.606511 
L 195.273688 256.962724 
L 196.921681 241.057303 
L 198.569674 258.502543 
L 200.217666 224.679527 
L 201.865659 264.691601 
L 203.513651 257.230942 
L 205.161644 260.964867 
L 206.809637 264.070913 
L 208.457629 263.31704 
L 210.105622 256.459759 
L 211.753614 262.15088 
L 213.401607 248.810743 
L 215.0496 264.333659 
L 216.697592 265.062588 
L 218.345585 264.020515 
L 219.993578 245.912653 
L 221.64157 263.692545 
L 223.289563 239.048946 
L 224.937555 258.770952 
L 226.585548 255.379506 
L 228.233541 264.559878 
L 229.881533 249.006673 
L 231.529526 263.544468 
L 233.177518 256.568637 
L 234.825511 261.079917 
L 236.473504 263.099029 
L 238.121496 250.149097 
L 239.769489 252.966753 
L 241.417482 264.813333 
L 243.065474 264.050996 
L 244.713467 211.615626 
L 246.361459 264.564205 
L 248.009452 255.700986 
L 249.657445 261.733185 
L 251.305437 120.499853 
L 252.95343 262.639081 
L 254.601422 151.329901 
L 256.249415 257.328366 
L 257.897408 126.643731 
L 259.5454 262.843156 
L 261.193393 259.931703 
L 262.841386 257.492033 
L 264.489378 245.139307 
L 266.137371 262.822539 
L 267.785363 260.554745 
L 269.433356 264.983045 
L 271.081349 264.30076 
L 272.729341 264.793543 
L 274.377334 252.857939 
L 276.025326 264.536143 
L 277.673319 251.723851 
L 279.321312 261.755012 
L 280.969304 262.775831 
L 282.617297 264.997808 
L 284.26529 255.99033 
L 285.913282 262.662944 
L 287.561275 261.198277 
L 289.209267 262.999187 
L 290.85726 264.625549 
L 292.505253 264.568851 
L 294.153245 262.339428 
L 295.801238 263.354266 
L 297.449231 244.99823 
L 299.097223 265.149003 
L 300.745216 225.522106 
L 302.393208 260.402659 
L 304.041201 248.560216 
L 305.689194 262.621455 
L 307.337186 250.26262 
L 308.985179 257.974443 
L 310.633171 258.625739 
L 312.281164 257.252132 
L 313.929157 263.721371 
L 315.577149 218.171471 
L 317.225142 263.29954 
L 318.873135 222.583099 
L 320.521127 264.957528 
L 322.16912 263.090756 
L 323.817112 262.921681 
L 325.465105 259.85076 
L 327.113098 264.999908 
L 328.76109 263.043413 
L 330.409083 260.512682 
L 332.057075 259.982546 
L 333.705068 264.885049 
L 335.353061 264.658829 
L 337.001053 262.680189 
L 338.649046 236.036378 
L 340.297039 264.997745 
L 341.945031 255.465794 
L 343.593024 262.503222 
L 345.241016 257.618092 
L 346.889009 260.926368 
L 348.537002 263.549241 
L 350.184994 209.117858 
L 351.832987 260.69843 
L 353.480979 264.801943 
L 355.128972 261.577854 
L 356.776965 261.555901 
L 358.424957 262.073946 
L 360.07295 259.353968 
L 361.720943 264.759053 
L 363.368935 255.509702 
L 365.016928 264.16891 
L 366.66492 256.033729 
L 368.312913 263.240233 
L 369.960906 260.755701 
L 371.608898 264.423956 
L 373.256891 249.835571 
L 374.904883 261.769584 
L 376.552876 243.072342 
L 378.200869 263.138928 
L 379.848861 263.466834 
L 381.496854 250.286356 
L 383.144847 217.369108 
L 384.792839 250.245884 
L 386.440832 261.021183 
L 388.088824 263.606893 
L 389.736817 257.800595 
L 391.38481 257.818985 
L 393.032802 234.578456 
L 394.680795 208.710854 
L 396.328787 264.199709 
L 397.97678 260.617042 
L 397.97678 260.617042 
" style="fill:none;stroke:#ff7f0e;stroke-linecap:square;stroke-width:0.5;"/>
   </g>
   <g id="line2d_31">
    <path clip-path="url(#p6ee645766d)" d="M 74.970227 264.910757 
L 76.61822 259.376558 
L 78.266213 256.384735 
L 79.914205 262.536376 
L 81.562198 236.987263 
L 83.21019 227.381942 
L 84.858183 166.184403 
L 86.506176 224.693844 
L 88.154168 186.90572 
L 89.802161 220.354249 
L 91.450153 242.209654 
L 93.098146 262.193069 
L 94.746139 260.278636 
L 96.394131 180.177554 
L 98.042124 264.893321 
L 99.690117 244.306972 
L 101.338109 158.400801 
L 102.986102 262.832529 
L 104.634094 247.54996 
L 106.282087 260.840589 
L 107.93008 259.656867 
L 109.578072 256.665361 
L 111.226065 263.662064 
L 112.874057 260.33177 
L 114.52205 264.050614 
L 116.170043 264.569551 
L 117.818035 261.435696 
L 119.466028 259.120622 
L 121.114021 264.343331 
L 122.762013 264.024651 
L 124.410006 263.981189 
L 126.057998 262.917672 
L 127.705991 264.914575 
L 129.353984 263.677909 
L 131.001976 265.214101 
L 132.649969 234.797675 
L 134.297961 258.201872 
L 135.945954 258.762234 
L 137.593947 258.796596 
L 139.241939 263.419427 
L 140.889932 263.389964 
L 142.537925 262.856965 
L 144.185917 264.439737 
L 145.83391 264.629494 
L 147.481902 257.871101 
L 149.129895 257.241887 
L 150.777888 232.010117 
L 152.42588 262.775004 
L 154.073873 265.47061 
L 155.721865 249.464521 
L 157.369858 248.174847 
L 159.017851 241.697717 
L 160.665843 255.583708 
L 162.313836 263.063457 
L 163.961829 244.116324 
L 165.609821 260.486465 
L 167.257814 190.492968 
L 168.905806 259.368986 
L 170.553799 264.438401 
L 172.201792 262.383017 
L 173.849784 259.621741 
L 175.497777 262.497813 
L 177.145769 260.770846 
L 178.793762 236.164282 
L 180.441755 259.841787 
L 182.089747 264.901912 
L 183.73774 227.363933 
L 185.385733 258.188254 
L 187.033725 242.454518 
L 188.681718 259.127112 
L 190.32971 213.437217 
L 191.977703 260.568808 
L 193.625696 263.262441 
L 195.273688 264.665829 
L 196.921681 256.503285 
L 198.569674 263.697635 
L 200.217666 244.036973 
L 201.865659 260.852807 
L 203.513651 262.808539 
L 205.161644 254.274944 
L 206.809637 214.230862 
L 208.457629 165.408575 
L 210.105622 263.264923 
L 211.753614 261.913143 
L 215.0496 261.314282 
L 216.697592 244.161696 
L 218.345585 263.403518 
L 219.993578 256.418143 
L 221.64157 235.712862 
L 223.289563 265.288744 
L 224.937555 260.458657 
L 226.585548 232.406049 
L 228.233541 263.985071 
L 229.881533 254.594642 
L 231.529526 261.044791 
L 233.177518 265.062079 
L 234.825511 250.861799 
L 236.473504 263.816822 
L 238.121496 249.66395 
L 239.769489 264.514698 
L 241.417482 263.452135 
L 243.065474 261.558128 
L 244.713467 264.133784 
L 246.361459 255.272283 
L 248.009452 258.671937 
L 249.657445 259.243881 
L 251.305437 234.392898 
L 252.95343 258.699109 
L 254.601422 264.502035 
L 256.249415 258.413837 
L 257.897408 262.914426 
L 259.5454 212.621618 
L 261.193393 260.434921 
L 262.841386 252.207153 
L 264.489378 264.458254 
L 266.137371 259.530171 
L 267.785363 263.807532 
L 269.433356 234.206641 
L 271.081349 257.581184 
L 272.729341 257.953126 
L 274.377334 252.171008 
L 276.025326 252.55345 
L 277.673319 263.157827 
L 279.321312 245.267721 
L 280.969304 251.868619 
L 282.617297 261.426787 
L 284.26529 247.83695 
L 285.913282 264.94022 
L 287.561275 254.021426 
L 289.209267 237.019716 
L 290.85726 261.392806 
L 292.505253 248.900086 
L 294.153245 209.078023 
L 295.801238 248.906513 
L 297.449231 230.497725 
L 299.097223 265.06577 
L 300.745216 263.020632 
L 302.393208 218.76855 
L 304.041201 244.568063 
L 305.689194 264.775853 
L 307.337186 262.775831 
L 308.985179 196.672481 
L 310.633171 248.590315 
L 312.281164 257.384936 
L 313.929157 257.951217 
L 315.577149 233.929005 
L 317.225142 265.092878 
L 318.873135 260.968048 
L 320.521127 254.769 
L 322.16912 264.007534 
L 323.817112 226.717919 
L 325.465105 264.207409 
L 327.113098 252.484343 
L 328.76109 260.523691 
L 330.409083 265.211937 
L 332.057075 259.953656 
L 333.705068 251.851947 
L 335.353061 256.690051 
L 337.001053 262.26943 
L 338.649046 264.217145 
L 340.297039 253.945892 
L 341.945031 263.479498 
L 343.593024 262.486296 
L 345.241016 259.795971 
L 346.889009 258.564841 
L 348.537002 257.78545 
L 350.184994 264.85215 
L 351.832987 247.12692 
L 353.480979 246.171517 
L 355.128972 260.471193 
L 356.776965 264.714891 
L 358.424957 265.150912 
L 360.07295 263.525123 
L 361.720943 249.653768 
L 363.368935 265.101532 
L 363.368935 265.101532 
" style="fill:none;stroke:#2ca02c;stroke-linecap:square;stroke-width:0.5;"/>
   </g>
   <g id="patch_3">
    <path d="M 58.7375 277.598364 
L 58.7375 11.486364 
" style="fill:none;stroke:#000000;stroke-linecap:square;stroke-linejoin:miter;stroke-width:0.8;"/>
   </g>
   <g id="patch_4">
    <path d="M 415.8575 277.598364 
L 415.8575 11.486364 
" style="fill:none;stroke:#000000;stroke-linecap:square;stroke-linejoin:miter;stroke-width:0.8;"/>
   </g>
   <g id="patch_5">
    <path d="M 58.7375 277.598364 
L 415.8575 277.598364 
" style="fill:none;stroke:#000000;stroke-linecap:square;stroke-linejoin:miter;stroke-width:0.8;"/>
   </g>
   <g id="patch_6">
    <path d="M 58.7375 11.486364 
L 415.8575 11.486364 
" style="fill:none;stroke:#000000;stroke-linecap:square;stroke-linejoin:miter;stroke-width:0.8;"/>
   </g>
  </g>
 </g>
 <defs>
  <clipPath id="p6ee645766d">
   <rect height="266.112" width="357.12" x="58.7375" y="11.486364"/>
  </clipPath>
 </defs>
</svg>
