<?xml version="1.0" encoding="utf-8" standalone="no"?>
<!DOCTYPE svg PUBLIC "-//W3C//DTD SVG 1.1//EN"
  "http://www.w3.org/Graphics/SVG/1.1/DTD/svg11.dtd">
<!-- Created with matplotlib (http://matplotlib.org/) -->
<svg height="300pt" version="1.1" viewBox="0 0 420 300" width="420pt" xmlns="http://www.w3.org/2000/svg" xmlns:xlink="http://www.w3.org/1999/xlink">
 <defs>
  <style type="text/css">
*{stroke-linecap:butt;stroke-linejoin:round;}
  </style>
 </defs>
 <g id="figure_1">
  <g id="patch_1">
   <path d="M 0 300.690125 
L 420.195 300.690125 
L 420.195 0 
L 0 0 
z
" style="fill:#ffffff;"/>
  </g>
  <g id="axes_1">
   <g id="patch_2">
    <path d="M 52.375 276.812 
L 409.495 276.812 
L 409.495 10.7 
L 52.375 10.7 
z
" style="fill:#ffffff;"/>
   </g>
   <g id="matplotlib.axis_1">
    <g id="xtick_1">
     <g id="line2d_1">
      <defs>
       <path d="M 0 0 
L 0 3.5 
" id="m94caefb5a9" style="stroke:#000000;stroke-width:0.8;"/>
      </defs>
      <g>
       <use style="stroke:#000000;stroke-width:0.8;" x="68.607727" xlink:href="#m94caefb5a9" y="276.812"/>
      </g>
     </g>
     <g id="text_1">
      <!-- 0 -->
      <defs>
       <path d="M 31.78125 66.40625 
Q 24.171875 66.40625 20.328125 58.90625 
Q 16.5 51.421875 16.5 36.375 
Q 16.5 21.390625 20.328125 13.890625 
Q 24.171875 6.390625 31.78125 6.390625 
Q 39.453125 6.390625 43.28125 13.890625 
Q 47.125 21.390625 47.125 36.375 
Q 47.125 51.421875 43.28125 58.90625 
Q 39.453125 66.40625 31.78125 66.40625 
M 31.78125 74.21875 
Q 44.046875 74.21875 50.515625 64.515625 
Q 56.984375 54.828125 56.984375 36.375 
Q 56.984375 17.96875 50.515625 8.265625 
Q 44.046875 -1.421875 31.78125 -1.421875 
Q 19.53125 -1.421875 13.0625 8.265625 
Q 6.59375 17.96875 6.59375 36.375 
Q 6.59375 54.828125 13.0625 64.515625 
Q 19.53125 74.21875 31.78125 74.21875 
" id="DejaVuSans-30"/>
      </defs>
      <g transform="translate(65.426477 291.410437)scale(0.1 -0.1)">
       <use xlink:href="#DejaVuSans-30"/>
      </g>
     </g>
    </g>
    <g id="xtick_2">
     <g id="line2d_2">
      <g>
       <use style="stroke:#000000;stroke-width:0.8;" x="109.807543" xlink:href="#m94caefb5a9" y="276.812"/>
      </g>
     </g>
     <g id="text_2">
      <!-- 25 -->
      <defs>
       <path d="M 19.1875 8.296875 
L 53.609375 8.296875 
L 53.609375 0 
L 7.328125 0 
L 7.328125 8.296875 
Q 12.9375 14.109375 22.625 23.890625 
Q 32.328125 33.6875 34.8125 36.53125 
Q 39.546875 41.84375 41.421875 45.53125 
Q 43.3125 49.21875 43.3125 52.78125 
Q 43.3125 58.59375 39.234375 62.25 
Q 35.15625 65.921875 28.609375 65.921875 
Q 23.96875 65.921875 18.8125 64.3125 
Q 13.671875 62.703125 7.8125 59.421875 
L 7.8125 69.390625 
Q 13.765625 71.78125 18.9375 73 
Q 24.125 74.21875 28.421875 74.21875 
Q 39.75 74.21875 46.484375 68.546875 
Q 53.21875 62.890625 53.21875 53.421875 
Q 53.21875 48.921875 51.53125 44.890625 
Q 49.859375 40.875 45.40625 35.40625 
Q 44.1875 33.984375 37.640625 27.21875 
Q 31.109375 20.453125 19.1875 8.296875 
" id="DejaVuSans-32"/>
       <path d="M 10.796875 72.90625 
L 49.515625 72.90625 
L 49.515625 64.59375 
L 19.828125 64.59375 
L 19.828125 46.734375 
Q 21.96875 47.46875 24.109375 47.828125 
Q 26.265625 48.1875 28.421875 48.1875 
Q 40.625 48.1875 47.75 41.5 
Q 54.890625 34.8125 54.890625 23.390625 
Q 54.890625 11.625 47.5625 5.09375 
Q 40.234375 -1.421875 26.90625 -1.421875 
Q 22.3125 -1.421875 17.546875 -0.640625 
Q 12.796875 0.140625 7.71875 1.703125 
L 7.71875 11.625 
Q 12.109375 9.234375 16.796875 8.0625 
Q 21.484375 6.890625 26.703125 6.890625 
Q 35.15625 6.890625 40.078125 11.328125 
Q 45.015625 15.765625 45.015625 23.390625 
Q 45.015625 31 40.078125 35.4375 
Q 35.15625 39.890625 26.703125 39.890625 
Q 22.75 39.890625 18.8125 39.015625 
Q 14.890625 38.140625 10.796875 36.28125 
z
" id="DejaVuSans-35"/>
      </defs>
      <g transform="translate(103.445043 291.410437)scale(0.1 -0.1)">
       <use xlink:href="#DejaVuSans-32"/>
       <use x="63.623047" xlink:href="#DejaVuSans-35"/>
      </g>
     </g>
    </g>
    <g id="xtick_3">
     <g id="line2d_3">
      <g>
       <use style="stroke:#000000;stroke-width:0.8;" x="151.007358" xlink:href="#m94caefb5a9" y="276.812"/>
      </g>
     </g>
     <g id="text_3">
      <!-- 50 -->
      <g transform="translate(144.644858 291.410437)scale(0.1 -0.1)">
       <use xlink:href="#DejaVuSans-35"/>
       <use x="63.623047" xlink:href="#DejaVuSans-30"/>
      </g>
     </g>
    </g>
    <g id="xtick_4">
     <g id="line2d_4">
      <g>
       <use style="stroke:#000000;stroke-width:0.8;" x="192.207174" xlink:href="#m94caefb5a9" y="276.812"/>
      </g>
     </g>
     <g id="text_4">
      <!-- 75 -->
      <defs>
       <path d="M 8.203125 72.90625 
L 55.078125 72.90625 
L 55.078125 68.703125 
L 28.609375 0 
L 18.3125 0 
L 43.21875 64.59375 
L 8.203125 64.59375 
z
" id="DejaVuSans-37"/>
      </defs>
      <g transform="translate(185.844674 291.410437)scale(0.1 -0.1)">
       <use xlink:href="#DejaVuSans-37"/>
       <use x="63.623047" xlink:href="#DejaVuSans-35"/>
      </g>
     </g>
    </g>
    <g id="xtick_5">
     <g id="line2d_5">
      <g>
       <use style="stroke:#000000;stroke-width:0.8;" x="233.406989" xlink:href="#m94caefb5a9" y="276.812"/>
      </g>
     </g>
     <g id="text_5">
      <!-- 100 -->
      <defs>
       <path d="M 12.40625 8.296875 
L 28.515625 8.296875 
L 28.515625 63.921875 
L 10.984375 60.40625 
L 10.984375 69.390625 
L 28.421875 72.90625 
L 38.28125 72.90625 
L 38.28125 8.296875 
L 54.390625 8.296875 
L 54.390625 0 
L 12.40625 0 
z
" id="DejaVuSans-31"/>
      </defs>
      <g transform="translate(223.863239 291.410437)scale(0.1 -0.1)">
       <use xlink:href="#DejaVuSans-31"/>
       <use x="63.623047" xlink:href="#DejaVuSans-30"/>
       <use x="127.246094" xlink:href="#DejaVuSans-30"/>
      </g>
     </g>
    </g>
    <g id="xtick_6">
     <g id="line2d_6">
      <g>
       <use style="stroke:#000000;stroke-width:0.8;" x="274.606804" xlink:href="#m94caefb5a9" y="276.812"/>
      </g>
     </g>
     <g id="text_6">
      <!-- 125 -->
      <g transform="translate(265.063054 291.410437)scale(0.1 -0.1)">
       <use xlink:href="#DejaVuSans-31"/>
       <use x="63.623047" xlink:href="#DejaVuSans-32"/>
       <use x="127.246094" xlink:href="#DejaVuSans-35"/>
      </g>
     </g>
    </g>
    <g id="xtick_7">
     <g id="line2d_7">
      <g>
       <use style="stroke:#000000;stroke-width:0.8;" x="315.80662" xlink:href="#m94caefb5a9" y="276.812"/>
      </g>
     </g>
     <g id="text_7">
      <!-- 150 -->
      <g transform="translate(306.26287 291.410437)scale(0.1 -0.1)">
       <use xlink:href="#DejaVuSans-31"/>
       <use x="63.623047" xlink:href="#DejaVuSans-35"/>
       <use x="127.246094" xlink:href="#DejaVuSans-30"/>
      </g>
     </g>
    </g>
    <g id="xtick_8">
     <g id="line2d_8">
      <g>
       <use style="stroke:#000000;stroke-width:0.8;" x="357.006435" xlink:href="#m94caefb5a9" y="276.812"/>
      </g>
     </g>
     <g id="text_8">
      <!-- 175 -->
      <g transform="translate(347.462685 291.410437)scale(0.1 -0.1)">
       <use xlink:href="#DejaVuSans-31"/>
       <use x="63.623047" xlink:href="#DejaVuSans-37"/>
       <use x="127.246094" xlink:href="#DejaVuSans-35"/>
      </g>
     </g>
    </g>
    <g id="xtick_9">
     <g id="line2d_9">
      <g>
       <use style="stroke:#000000;stroke-width:0.8;" x="398.206251" xlink:href="#m94caefb5a9" y="276.812"/>
      </g>
     </g>
     <g id="text_9">
      <!-- 200 -->
      <g transform="translate(388.662501 291.410437)scale(0.1 -0.1)">
       <use xlink:href="#DejaVuSans-32"/>
       <use x="63.623047" xlink:href="#DejaVuSans-30"/>
       <use x="127.246094" xlink:href="#DejaVuSans-30"/>
      </g>
     </g>
    </g>
   </g>
   <g id="matplotlib.axis_2">
    <g id="ytick_1">
     <g id="line2d_10">
      <defs>
       <path d="M 0 0 
L -3.5 0 
" id="m6ff80ed23b" style="stroke:#000000;stroke-width:0.8;"/>
      </defs>
      <g>
       <use style="stroke:#000000;stroke-width:0.8;" x="52.375" xlink:href="#m6ff80ed23b" y="264.720535"/>
      </g>
     </g>
     <g id="text_10">
      <!-- 0 -->
      <g transform="translate(39.0125 268.519754)scale(0.1 -0.1)">
       <use xlink:href="#DejaVuSans-30"/>
      </g>
     </g>
    </g>
    <g id="ytick_2">
     <g id="line2d_11">
      <g>
       <use style="stroke:#000000;stroke-width:0.8;" x="52.375" xlink:href="#m6ff80ed23b" y="226.929983"/>
      </g>
     </g>
     <g id="text_11">
      <!-- 100000 -->
      <g transform="translate(7.2 230.729201)scale(0.1 -0.1)">
       <use xlink:href="#DejaVuSans-31"/>
       <use x="63.623047" xlink:href="#DejaVuSans-30"/>
       <use x="127.246094" xlink:href="#DejaVuSans-30"/>
       <use x="190.869141" xlink:href="#DejaVuSans-30"/>
       <use x="254.492188" xlink:href="#DejaVuSans-30"/>
       <use x="318.115234" xlink:href="#DejaVuSans-30"/>
      </g>
     </g>
    </g>
    <g id="ytick_3">
     <g id="line2d_12">
      <g>
       <use style="stroke:#000000;stroke-width:0.8;" x="52.375" xlink:href="#m6ff80ed23b" y="189.13943"/>
      </g>
     </g>
     <g id="text_12">
      <!-- 200000 -->
      <g transform="translate(7.2 192.938649)scale(0.1 -0.1)">
       <use xlink:href="#DejaVuSans-32"/>
       <use x="63.623047" xlink:href="#DejaVuSans-30"/>
       <use x="127.246094" xlink:href="#DejaVuSans-30"/>
       <use x="190.869141" xlink:href="#DejaVuSans-30"/>
       <use x="254.492188" xlink:href="#DejaVuSans-30"/>
       <use x="318.115234" xlink:href="#DejaVuSans-30"/>
      </g>
     </g>
    </g>
    <g id="ytick_4">
     <g id="line2d_13">
      <g>
       <use style="stroke:#000000;stroke-width:0.8;" x="52.375" xlink:href="#m6ff80ed23b" y="151.348878"/>
      </g>
     </g>
     <g id="text_13">
      <!-- 300000 -->
      <defs>
       <path d="M 40.578125 39.3125 
Q 47.65625 37.796875 51.625 33 
Q 55.609375 28.21875 55.609375 21.1875 
Q 55.609375 10.40625 48.1875 4.484375 
Q 40.765625 -1.421875 27.09375 -1.421875 
Q 22.515625 -1.421875 17.65625 -0.515625 
Q 12.796875 0.390625 7.625 2.203125 
L 7.625 11.71875 
Q 11.71875 9.328125 16.59375 8.109375 
Q 21.484375 6.890625 26.8125 6.890625 
Q 36.078125 6.890625 40.9375 10.546875 
Q 45.796875 14.203125 45.796875 21.1875 
Q 45.796875 27.640625 41.28125 31.265625 
Q 36.765625 34.90625 28.71875 34.90625 
L 20.21875 34.90625 
L 20.21875 43.015625 
L 29.109375 43.015625 
Q 36.375 43.015625 40.234375 45.921875 
Q 44.09375 48.828125 44.09375 54.296875 
Q 44.09375 59.90625 40.109375 62.90625 
Q 36.140625 65.921875 28.71875 65.921875 
Q 24.65625 65.921875 20.015625 65.03125 
Q 15.375 64.15625 9.8125 62.3125 
L 9.8125 71.09375 
Q 15.4375 72.65625 20.34375 73.4375 
Q 25.25 74.21875 29.59375 74.21875 
Q 40.828125 74.21875 47.359375 69.109375 
Q 53.90625 64.015625 53.90625 55.328125 
Q 53.90625 49.265625 50.4375 45.09375 
Q 46.96875 40.921875 40.578125 39.3125 
" id="DejaVuSans-33"/>
      </defs>
      <g transform="translate(7.2 155.148097)scale(0.1 -0.1)">
       <use xlink:href="#DejaVuSans-33"/>
       <use x="63.623047" xlink:href="#DejaVuSans-30"/>
       <use x="127.246094" xlink:href="#DejaVuSans-30"/>
       <use x="190.869141" xlink:href="#DejaVuSans-30"/>
       <use x="254.492188" xlink:href="#DejaVuSans-30"/>
       <use x="318.115234" xlink:href="#DejaVuSans-30"/>
      </g>
     </g>
    </g>
    <g id="ytick_5">
     <g id="line2d_14">
      <g>
       <use style="stroke:#000000;stroke-width:0.8;" x="52.375" xlink:href="#m6ff80ed23b" y="113.558325"/>
      </g>
     </g>
     <g id="text_14">
      <!-- 400000 -->
      <defs>
       <path d="M 37.796875 64.3125 
L 12.890625 25.390625 
L 37.796875 25.390625 
z
M 35.203125 72.90625 
L 47.609375 72.90625 
L 47.609375 25.390625 
L 58.015625 25.390625 
L 58.015625 17.1875 
L 47.609375 17.1875 
L 47.609375 0 
L 37.796875 0 
L 37.796875 17.1875 
L 4.890625 17.1875 
L 4.890625 26.703125 
z
" id="DejaVuSans-34"/>
      </defs>
      <g transform="translate(7.2 117.357544)scale(0.1 -0.1)">
       <use xlink:href="#DejaVuSans-34"/>
       <use x="63.623047" xlink:href="#DejaVuSans-30"/>
       <use x="127.246094" xlink:href="#DejaVuSans-30"/>
       <use x="190.869141" xlink:href="#DejaVuSans-30"/>
       <use x="254.492188" xlink:href="#DejaVuSans-30"/>
       <use x="318.115234" xlink:href="#DejaVuSans-30"/>
      </g>
     </g>
    </g>
    <g id="ytick_6">
     <g id="line2d_15">
      <g>
       <use style="stroke:#000000;stroke-width:0.8;" x="52.375" xlink:href="#m6ff80ed23b" y="75.767773"/>
      </g>
     </g>
     <g id="text_15">
      <!-- 500000 -->
      <g transform="translate(7.2 79.566992)scale(0.1 -0.1)">
       <use xlink:href="#DejaVuSans-35"/>
       <use x="63.623047" xlink:href="#DejaVuSans-30"/>
       <use x="127.246094" xlink:href="#DejaVuSans-30"/>
       <use x="190.869141" xlink:href="#DejaVuSans-30"/>
       <use x="254.492188" xlink:href="#DejaVuSans-30"/>
       <use x="318.115234" xlink:href="#DejaVuSans-30"/>
      </g>
     </g>
    </g>
    <g id="ytick_7">
     <g id="line2d_16">
      <g>
       <use style="stroke:#000000;stroke-width:0.8;" x="52.375" xlink:href="#m6ff80ed23b" y="37.977221"/>
      </g>
     </g>
     <g id="text_16">
      <!-- 600000 -->
      <defs>
       <path d="M 33.015625 40.375 
Q 26.375 40.375 22.484375 35.828125 
Q 18.609375 31.296875 18.609375 23.390625 
Q 18.609375 15.53125 22.484375 10.953125 
Q 26.375 6.390625 33.015625 6.390625 
Q 39.65625 6.390625 43.53125 10.953125 
Q 47.40625 15.53125 47.40625 23.390625 
Q 47.40625 31.296875 43.53125 35.828125 
Q 39.65625 40.375 33.015625 40.375 
M 52.59375 71.296875 
L 52.59375 62.3125 
Q 48.875 64.0625 45.09375 64.984375 
Q 41.3125 65.921875 37.59375 65.921875 
Q 27.828125 65.921875 22.671875 59.328125 
Q 17.53125 52.734375 16.796875 39.40625 
Q 19.671875 43.65625 24.015625 45.921875 
Q 28.375 48.1875 33.59375 48.1875 
Q 44.578125 48.1875 50.953125 41.515625 
Q 57.328125 34.859375 57.328125 23.390625 
Q 57.328125 12.15625 50.6875 5.359375 
Q 44.046875 -1.421875 33.015625 -1.421875 
Q 20.359375 -1.421875 13.671875 8.265625 
Q 6.984375 17.96875 6.984375 36.375 
Q 6.984375 53.65625 15.1875 63.9375 
Q 23.390625 74.21875 37.203125 74.21875 
Q 40.921875 74.21875 44.703125 73.484375 
Q 48.484375 72.75 52.59375 71.296875 
" id="DejaVuSans-36"/>
      </defs>
      <g transform="translate(7.2 41.776439)scale(0.1 -0.1)">
       <use xlink:href="#DejaVuSans-36"/>
       <use x="63.623047" xlink:href="#DejaVuSans-30"/>
       <use x="127.246094" xlink:href="#DejaVuSans-30"/>
       <use x="190.869141" xlink:href="#DejaVuSans-30"/>
       <use x="254.492188" xlink:href="#DejaVuSans-30"/>
       <use x="318.115234" xlink:href="#DejaVuSans-30"/>
      </g>
     </g>
    </g>
   </g>
   <g id="line2d_17">
    <path clip-path="url(#pbd8a85bce0)" d="M 68.607727 262.066882 
L 70.25572 261.323542 
L 71.903713 232.250892 
L 73.551705 261.358687 
L 75.199698 257.641231 
L 76.84769 262.098248 
L 78.495683 261.743017 
L 80.143676 261.904005 
L 81.791668 258.831633 
L 83.439661 263.551295 
L 85.087653 237.789476 
L 86.735646 262.640165 
L 88.383639 261.473949 
L 90.031631 260.831887 
L 91.679624 261.588832 
L 93.327617 263.514638 
L 94.975609 262.083888 
L 96.623602 261.660256 
L 98.271594 258.940092 
L 99.919587 261.728279 
L 101.56758 261.073369 
L 103.215572 264.525536 
L 104.863565 230.722264 
L 106.511557 258.756052 
L 108.15955 242.405214 
L 109.807543 264.062979 
L 111.455535 258.268554 
L 113.103528 263.215337 
L 114.751521 263.993067 
L 116.399513 254.054529 
L 118.047506 260.663341 
L 119.695498 253.029272 
L 121.343491 260.031483 
L 122.991484 261.57825 
L 124.639476 262.669264 
L 126.287469 252.726191 
L 127.935461 247.29191 
L 129.583454 253.746914 
L 131.231447 251.787474 
L 132.879439 263.786352 
L 134.527432 247.275282 
L 136.175425 251.767445 
L 137.823417 260.681859 
L 139.47141 249.630767 
L 141.119402 248.944869 
L 142.767395 254.195488 
L 144.415388 245.367993 
L 146.06338 264.248909 
L 147.711373 259.399625 
L 149.359365 263.528999 
L 151.007358 264.391379 
L 152.655351 258.86111 
L 155.951336 233.945043 
L 157.599329 255.739988 
L 159.247321 239.001419 
L 160.895314 255.776645 
L 162.543306 262.945513 
L 164.191299 250.08501 
L 165.839292 247.285486 
L 167.487284 264.083386 
L 170.783269 261.686709 
L 172.431262 263.125018 
L 174.079255 262.662461 
L 175.727247 261.851098 
L 177.37524 250.940966 
L 179.023233 254.491766 
L 180.671225 261.756622 
L 182.319218 250.22748 
L 185.615203 263.975305 
L 187.263196 257.464371 
L 188.911188 263.69301 
L 190.559181 261.461478 
L 192.207174 236.749858 
L 193.855166 261.184095 
L 195.503159 221.064889 
L 197.151151 254.311883 
L 198.799144 248.56583 
L 200.447137 264.143851 
L 202.095129 262.456125 
L 203.743122 262.352579 
L 205.391114 259.457067 
L 207.039107 262.966675 
L 208.6871 262.559293 
L 210.335092 251.185093 
L 211.983085 262.671909 
L 213.631078 258.051636 
L 215.27907 263.004466 
L 216.927063 262.991995 
L 218.575055 257.221756 
L 220.223048 263.042256 
L 221.871041 262.612578 
L 223.519033 264.305595 
L 225.167026 260.978514 
L 226.815018 256.86917 
L 228.463011 263.511993 
L 231.758996 263.538446 
L 233.406989 261.031421 
L 235.054982 264.700506 
L 236.702974 249.179548 
L 238.350967 259.185731 
L 239.998959 258.876604 
L 241.646952 247.122986 
L 244.942937 262.654147 
L 246.59093 253.678135 
L 248.238922 263.476092 
L 249.886915 261.831447 
L 251.534908 262.541154 
L 253.1829 260.440377 
L 254.830893 253.1143 
L 256.478886 257.926171 
L 258.126878 262.136417 
L 259.774871 255.561617 
L 261.422863 263.011268 
L 263.070856 260.638399 
L 264.718849 261.432001 
L 266.366841 256.808327 
L 268.014834 251.635556 
L 269.662826 264.220188 
L 271.310819 260.156948 
L 272.958812 263.480627 
L 274.606804 263.433767 
L 276.254797 264.123444 
L 277.90279 262.24412 
L 279.550782 255.102839 
L 281.198775 263.892166 
L 282.846767 255.27592 
L 284.49476 259.077272 
L 286.142753 263.391441 
L 287.790745 261.735837 
L 289.438738 261.994324 
L 291.086731 261.690488 
L 292.734723 260.971712 
L 294.382716 264.716 
L 296.030708 264.484722 
L 297.678701 261.559733 
L 299.326694 264.191467 
L 300.974686 261.961825 
L 302.622679 263.201733 
L 304.270671 264.203182 
L 305.918664 261.941418 
L 307.566657 261.728279 
L 309.214649 257.56565 
L 310.862642 261.375693 
L 314.158627 261.881709 
L 315.80662 257.640475 
L 317.454612 264.164258 
L 319.102605 263.240657 
L 320.750598 226.208183 
L 322.39859 251.207389 
L 324.046583 263.059262 
L 325.694575 258.546314 
L 327.342568 262.73842 
L 328.990561 253.799443 
L 330.638553 249.362832 
L 332.286546 259.799827 
L 333.934539 263.826032 
L 335.582531 260.768777 
L 337.230524 261.828424 
L 338.878516 264.023299 
L 340.526509 258.387972 
L 342.174502 236.625527 
L 343.822494 262.903187 
L 343.822494 262.903187 
" style="fill:none;stroke:#1f77b4;stroke-linecap:square;stroke-width:0.5;"/>
   </g>
   <g id="line2d_18">
    <path clip-path="url(#pbd8a85bce0)" d="M 68.607727 205.874598 
L 70.25572 251.691108 
L 71.903713 203.125336 
L 73.551705 261.970138 
L 75.199698 233.705073 
L 76.84769 237.913051 
L 78.495683 240.324844 
L 80.143676 262.24223 
L 81.791668 243.156868 
L 83.439661 260.683748 
L 85.087653 263.016559 
L 86.735646 258.148002 
L 88.383639 250.323468 
L 90.031631 259.37884 
L 91.679624 259.116952 
L 93.327617 262.857083 
L 94.975609 256.285684 
L 96.623602 236.678055 
L 98.271594 257.872509 
L 99.919587 263.015047 
L 101.56758 255.181066 
L 103.215572 253.407555 
L 104.863565 250.083876 
L 106.511557 258.704279 
L 108.15955 255.99772 
L 109.807543 259.313841 
L 111.455535 254.563568 
L 113.103528 261.192787 
L 114.751521 247.076882 
L 116.399513 250.211986 
L 118.047506 222.149856 
L 119.695498 254.074936 
L 121.343491 239.338888 
L 122.991484 261.062031 
L 124.639476 263.919753 
L 126.287469 255.114176 
L 127.935461 261.295199 
L 129.583454 262.534729 
L 131.231447 248.074174 
L 132.879439 240.612808 
L 134.527432 259.270759 
L 136.175425 262.75467 
L 137.823417 259.810408 
L 139.47141 262.276242 
L 141.119402 253.276044 
L 144.415388 264.084142 
L 146.06338 251.337767 
L 147.711373 263.242924 
L 149.359365 261.189386 
L 151.007358 234.345623 
L 152.655351 262.984815 
L 154.303343 262.995018 
L 155.951336 264.020276 
L 157.599329 237.600523 
L 159.247321 263.67676 
L 160.895314 262.368829 
L 162.543306 257.37065 
L 164.191299 262.081999 
L 165.839292 261.618686 
L 167.487284 231.171216 
L 169.135277 263.01089 
L 170.783269 214.792791 
L 172.431262 261.904383 
L 174.079255 262.840455 
L 175.727247 262.170428 
L 177.37524 256.475392 
L 179.023233 252.54971 
L 180.671225 250.622769 
L 182.319218 264.514198 
L 183.96721 258.837302 
L 185.615203 263.321151 
L 187.263196 262.030225 
L 188.911188 263.034698 
L 190.559181 252.957092 
L 192.207174 255.945947 
L 193.855166 263.807515 
L 195.503159 256.476904 
L 197.151151 254.549208 
L 198.799144 258.301432 
L 200.447137 255.444466 
L 202.095129 254.549208 
L 203.743122 247.397724 
L 205.391114 249.732802 
L 207.039107 263.587574 
L 208.6871 263.45833 
L 210.335092 264.330536 
L 211.983085 251.792765 
L 213.631078 260.262005 
L 215.27907 232.891064 
L 216.927063 255.265717 
L 218.575055 262.521503 
L 220.223048 250.943233 
L 221.871041 258.100008 
L 223.519033 253.778658 
L 225.167026 263.158273 
L 226.815018 263.153739 
L 228.463011 262.78717 
L 230.111004 264.007805 
L 231.758996 263.512371 
L 233.406989 261.675372 
L 235.054982 258.188816 
L 236.702974 255.582023 
L 238.350967 262.591793 
L 239.998959 254.188308 
L 241.646952 258.686517 
L 243.294945 256.912251 
L 244.942937 254.913887 
L 246.59093 258.319949 
L 248.238922 258.208467 
L 249.886915 262.616735 
L 251.534908 260.207209 
L 253.1829 258.98922 
L 254.830893 263.819608 
L 256.478886 256.014347 
L 258.126878 260.01939 
L 259.774871 255.278565 
L 261.422863 252.541774 
L 263.070856 262.632985 
L 264.718849 248.23743 
L 266.366841 259.312707 
L 268.014834 261.843918 
L 269.662826 230.316016 
L 271.310819 255.46903 
L 272.958812 255.52307 
L 274.606804 263.556208 
L 276.254797 256.623153 
L 277.90279 253.867844 
L 279.550782 228.384919 
L 281.198775 221.857357 
L 282.846767 263.212692 
L 284.49476 244.27698 
L 286.142753 260.768021 
L 287.790745 249.147048 
L 289.438738 251.368377 
L 291.086731 255.089613 
L 292.734723 222.813836 
L 294.382716 259.991047 
L 296.030708 262.396038 
L 297.678701 214.225933 
L 299.326694 254.146738 
L 300.974686 258.465821 
L 302.622679 251.354016 
L 304.270671 263.501034 
L 305.918664 261.61982 
L 307.566657 206.679915 
L 309.214649 262.740688 
L 310.862642 260.511801 
L 312.510635 258.639657 
L 315.80662 258.527419 
L 317.454612 255.930452 
L 319.102605 251.6348 
L 320.750598 255.388158 
L 322.39859 257.710765 
L 324.046583 263.070221 
L 325.694575 261.163688 
L 327.342568 260.262005 
L 328.990561 254.882898 
L 330.638553 251.629888 
L 332.286546 251.312825 
L 333.934539 263.437546 
L 335.582531 262.633363 
L 337.230524 261.983743 
L 338.878516 261.51703 
L 340.526509 257.355912 
L 342.174502 260.289971 
L 343.822494 254.27447 
L 345.470487 263.959055 
L 347.118479 259.312707 
L 348.766472 262.160225 
L 350.414465 258.496053 
L 352.062457 243.21053 
L 353.71045 263.699056 
L 355.358443 263.868358 
L 357.006435 263.379726 
L 358.654428 256.927745 
L 360.30242 261.016683 
L 361.950413 254.597202 
L 363.598406 234.096205 
L 365.246398 262.624293 
L 366.894391 255.136095 
L 368.542383 253.251102 
L 370.190376 258.880005 
L 371.838369 257.552801 
L 373.486361 262.967809 
L 375.134354 227.992653 
L 376.782347 261.760779 
L 378.430339 257.427336 
L 380.078332 263.515394 
L 381.726324 263.83737 
L 383.374317 255.0847 
L 385.02231 252.913255 
L 386.670302 259.197824 
L 388.318295 261.250228 
L 389.966287 256.851408 
L 389.966287 256.851408 
" style="fill:none;stroke:#ff7f0e;stroke-linecap:square;stroke-width:0.5;"/>
   </g>
   <g id="line2d_19">
    <path clip-path="url(#pbd8a85bce0)" d="M 68.607727 260.833021 
L 70.25572 254.975485 
L 71.903713 261.119473 
L 73.551705 261.77325 
L 75.199698 256.957978 
L 76.84769 263.504057 
L 78.495683 263.790887 
L 80.143676 257.395592 
L 81.791668 256.574781 
L 83.439661 263.931846 
L 85.087653 260.015233 
L 86.735646 261.613396 
L 88.383639 255.66025 
L 90.031631 261.964092 
L 91.679624 258.604512 
L 93.327617 261.507582 
L 94.975609 252.806685 
L 96.623602 263.80298 
L 98.271594 262.146998 
L 99.919587 262.760717 
L 101.56758 263.12464 
L 103.215572 259.995582 
L 104.863565 261.257031 
L 106.511557 260.601365 
L 108.15955 262.906966 
L 109.807543 264.49228 
L 111.455535 262.345021 
L 113.103528 263.841905 
L 114.751521 260.673167 
L 116.399513 253.539822 
L 118.047506 257.813934 
L 119.695498 263.852864 
L 121.343491 264.172194 
L 122.991484 263.477604 
L 124.639476 262.253568 
L 126.287469 262.830251 
L 127.935461 260.06814 
L 129.583454 263.328331 
L 131.231447 261.483396 
L 132.879439 260.363662 
L 134.527432 259.930204 
L 136.175425 256.725566 
L 137.823417 257.81091 
L 139.47141 262.679845 
L 141.119402 259.431369 
L 142.767395 257.822625 
L 144.415388 261.574849 
L 146.06338 263.900102 
L 147.711373 261.238135 
L 149.359365 261.546884 
L 151.007358 264.168793 
L 152.655351 262.520747 
L 154.303343 260.276744 
L 155.951336 258.375123 
L 157.599329 259.771862 
L 159.247321 263.217605 
L 160.895314 262.581212 
L 162.543306 258.533844 
L 164.191299 262.122056 
L 165.839292 263.702457 
L 167.487284 263.550917 
L 169.135277 255.776645 
L 170.783269 262.247143 
L 172.431262 263.078535 
L 174.079255 263.749318 
L 175.727247 262.843478 
L 177.37524 264.23606 
L 179.023233 263.007111 
L 180.671225 263.41865 
L 182.319218 263.976439 
L 183.96721 264.058822 
L 185.615203 262.683624 
L 187.263196 261.604704 
L 188.911188 262.467084 
L 190.559181 264.46885 
L 192.207174 263.611004 
L 193.855166 262.347288 
L 195.503159 262.207841 
L 197.151151 264.147252 
L 198.799144 263.575859 
L 200.447137 262.156824 
L 202.095129 263.172634 
L 203.743122 256.961001 
L 205.391114 259.509218 
L 207.039107 263.924288 
L 208.6871 263.367633 
L 210.335092 262.682112 
L 211.983085 263.648039 
L 213.631078 260.701132 
L 215.27907 263.662777 
L 216.927063 249.36321 
L 218.575055 260.738922 
L 220.223048 263.16243 
L 221.871041 261.601681 
L 223.519033 260.819794 
L 225.167026 259.623723 
L 226.815018 262.655281 
L 228.463011 263.507458 
L 230.111004 259.83535 
L 231.758996 264.045974 
L 233.406989 263.532778 
L 235.054982 259.226922 
L 238.350967 262.762228 
L 239.998959 264.57882 
L 241.646952 256.859722 
L 243.294945 261.808773 
L 244.942937 259.505817 
L 246.59093 263.193797 
L 248.238922 261.661012 
L 249.886915 264.123444 
L 251.534908 260.181512 
L 253.1829 263.765946 
L 254.830893 249.88283 
L 256.478886 263.652952 
L 258.126878 258.41367 
L 259.774871 263.231209 
L 261.422863 260.011454 
L 263.070856 263.98702 
L 264.718849 262.778856 
L 266.366841 259.448375 
L 268.014834 263.415627 
L 269.662826 263.027518 
L 271.310819 264.185421 
L 272.958812 263.76519 
L 274.606804 250.298148 
L 276.254797 260.712847 
L 277.90279 256.04458 
L 279.550782 259.548898 
L 281.198775 258.979772 
L 282.846767 260.740812 
L 284.49476 259.471427 
L 286.142753 261.871127 
L 287.790745 255.856383 
L 289.438738 263.072489 
L 291.086731 263.575481 
L 292.734723 263.739114 
L 294.382716 257.929195 
L 296.030708 263.051326 
L 297.678701 248.427138 
L 299.326694 263.658242 
L 300.974686 263.456063 
L 302.622679 259.481253 
L 304.270671 263.527865 
L 305.918664 263.445482 
L 307.566657 261.175781 
L 309.214649 262.55438 
L 310.862642 260.755928 
L 312.510635 261.192787 
L 314.158627 262.598595 
L 315.80662 263.289407 
L 317.454612 262.888449 
L 319.102605 259.595002 
L 320.750598 262.333306 
L 322.39859 260.484592 
L 324.046583 260.521249 
L 325.694575 256.345393 
L 327.342568 264.180508 
L 328.990561 253.158137 
L 330.638553 260.440755 
L 332.286546 256.865769 
L 333.934539 261.970138 
L 335.582531 261.094909 
L 337.230524 260.969067 
L 338.878516 262.872955 
L 340.526509 261.741884 
L 342.174502 259.522822 
L 343.822494 259.662647 
L 345.470487 263.78144 
L 347.118479 262.720281 
L 348.766472 264.472629 
L 350.414465 263.125396 
L 352.062457 263.648417 
L 353.71045 263.988154 
L 355.358443 262.716502 
L 357.006435 257.922392 
L 358.654428 263.877806 
L 360.30242 256.456875 
L 361.950413 263.134465 
L 363.598406 264.062979 
L 365.246398 233.389522 
L 366.894391 248.014465 
L 368.542383 256.835914 
L 370.190376 257.191901 
L 371.838369 262.997664 
L 373.486361 257.662393 
L 375.134354 259.181952 
L 376.782347 252.938574 
L 378.430339 260.694329 
L 380.078332 263.098186 
L 381.726324 254.498568 
L 383.374317 247.088975 
L 385.02231 236.785759 
L 386.670302 256.550217 
L 388.318295 246.302931 
L 389.966287 259.943431 
L 389.966287 259.943431 
" style="fill:none;stroke:#2ca02c;stroke-linecap:square;stroke-width:0.5;"/>
   </g>
   <g id="line2d_20">
    <path clip-path="url(#pbd8a85bce0)" d="M 68.607727 261.568803 
L 70.25572 262.412666 
L 71.903713 263.925422 
L 73.551705 262.084266 
L 75.199698 261.438425 
L 76.84769 264.108706 
L 78.495683 259.906018 
L 80.143676 260.150523 
L 81.791668 262.752025 
L 83.439661 260.108198 
L 85.087653 254.446039 
L 86.735646 254.871561 
L 88.383639 263.392197 
L 90.031631 263.450394 
L 91.679624 260.993253 
L 93.327617 263.947718 
L 94.975609 260.850404 
L 96.623602 262.269818 
L 98.271594 263.117082 
L 99.919587 261.119095 
L 101.56758 263.914462 
L 103.215572 261.125898 
L 104.863565 261.654965 
L 106.511557 260.079855 
L 108.15955 253.241655 
L 109.807543 262.721793 
L 111.455535 264.027834 
L 113.103528 258.983173 
L 114.751521 258.42614 
L 116.399513 259.208027 
L 118.047506 263.517284 
L 119.695498 262.375253 
L 121.343491 254.957346 
L 122.991484 263.570946 
L 124.639476 262.781502 
L 126.287469 256.032865 
L 127.935461 261.909674 
L 129.583454 261.865081 
L 131.231447 254.468714 
L 132.879439 261.539704 
L 134.527432 263.38804 
L 136.175425 263.087227 
L 137.823417 263.297721 
L 139.47141 261.092642 
L 141.119402 260.604388 
L 142.767395 263.546382 
L 144.415388 256.649229 
L 146.06338 260.586248 
L 147.711373 262.115632 
L 149.359365 259.650554 
L 151.007358 262.662839 
L 152.655351 258.785529 
L 154.303343 261.896825 
L 155.951336 259.842152 
L 157.599329 258.708436 
L 159.247321 263.677516 
L 160.895314 263.34836 
L 162.543306 261.832959 
L 164.191299 256.670013 
L 165.839292 264.033881 
L 167.487284 258.84486 
L 169.135277 262.206707 
L 170.783269 263.438301 
L 172.431262 262.282666 
L 174.079255 259.000935 
L 175.727247 263.477982 
L 177.37524 263.699812 
L 179.023233 264.151409 
L 180.671225 260.422237 
L 182.319218 258.620006 
L 183.96721 263.590597 
L 185.615203 259.442706 
L 187.263196 261.865459 
L 188.911188 263.960189 
L 190.559181 260.323604 
L 192.207174 261.057497 
L 193.855166 263.637458 
L 195.503159 253.070841 
L 197.151151 261.866214 
L 198.799144 263.665801 
L 200.447137 262.122056 
L 202.095129 259.387532 
L 203.743122 258.974859 
L 205.391114 263.29243 
L 207.039107 262.836676 
L 208.6871 260.299796 
L 210.335092 258.072421 
L 213.631078 263.923532 
L 215.27907 262.103539 
L 216.927063 258.862243 
L 218.575055 263.186616 
L 220.223048 261.168223 
L 221.871041 258.656285 
L 223.519033 259.926425 
L 225.167026 262.608421 
L 226.815018 263.838125 
L 228.463011 255.563506 
L 230.111004 259.74881 
L 231.758996 263.231209 
L 233.406989 260.785783 
L 235.054982 262.955338 
L 236.702974 264.051642 
L 238.350967 259.958547 
L 239.998959 262.688537 
L 241.646952 263.043012 
L 243.294945 263.242546 
L 244.942937 264.011962 
L 248.238922 259.893548 
L 249.886915 262.962518 
L 251.534908 261.631913 
L 253.1829 262.888449 
L 254.830893 262.59784 
L 256.478886 259.841019 
L 258.126878 264.176351 
L 259.774871 262.189702 
L 263.070856 261.949354 
L 264.718849 261.399123 
L 266.366841 261.849209 
L 268.014834 262.427782 
L 269.662826 262.150021 
L 271.310819 264.461292 
L 272.958812 259.852356 
L 274.606804 263.589842 
L 276.254797 261.917988 
L 277.90279 262.225225 
L 279.550782 261.70107 
L 281.198775 263.983619 
L 282.846767 257.490824 
L 284.49476 256.75542 
L 286.142753 261.914586 
L 287.790745 257.976433 
L 289.438738 262.228248 
L 291.086731 261.279327 
L 292.734723 259.059888 
L 294.382716 258.290094 
L 296.030708 261.318251 
L 297.678701 259.254131 
L 299.326694 263.169611 
L 300.974686 255.693884 
L 302.622679 260.966799 
L 304.270671 260.551481 
L 305.918664 257.401639 
L 307.566657 262.204062 
L 309.214649 255.759261 
L 310.862642 261.703715 
L 312.510635 262.639787 
L 314.158627 263.823765 
L 315.80662 262.727839 
L 317.454612 258.768145 
L 319.102605 262.423247 
L 320.750598 261.567291 
L 322.39859 260.34968 
L 324.046583 260.467586 
L 325.694575 263.608359 
L 327.342568 259.246951 
L 328.990561 263.86798 
L 330.638553 263.434522 
L 332.286546 264.206961 
L 333.934539 264.524024 
L 335.582531 254.99438 
L 337.230524 257.057745 
L 338.878516 262.920571 
L 340.526509 262.65377 
L 343.822494 263.009379 
L 345.470487 260.31718 
L 347.118479 261.914586 
L 348.766472 261.977319 
L 350.414465 261.82729 
L 352.062457 261.476594 
L 353.71045 262.241097 
L 355.358443 264.09888 
L 357.006435 261.620954 
L 358.654428 262.183277 
L 360.30242 262.52377 
L 361.950413 256.999925 
L 363.598406 257.67562 
L 365.246398 262.789816 
L 366.894391 262.081621 
L 368.542383 260.298284 
L 370.190376 256.411526 
L 371.838369 261.832581 
L 373.486361 263.95641 
L 376.782347 258.132508 
L 378.430339 251.561865 
L 380.078332 260.600987 
L 381.726324 263.655597 
L 383.374317 260.611568 
L 385.02231 258.807825 
L 386.670302 258.086025 
L 388.318295 259.935873 
L 389.966287 260.563574 
L 389.966287 260.563574 
" style="fill:none;stroke:#d62728;stroke-linecap:square;stroke-width:0.5;"/>
   </g>
   <g id="line2d_21">
    <path clip-path="url(#pbd8a85bce0)" d="M 68.607727 261.298222 
L 70.25572 262.535485 
L 71.903713 263.5324 
L 73.551705 258.11777 
L 75.199698 253.915082 
L 76.84769 251.989654 
L 78.495683 248.523882 
L 80.143676 241.480101 
L 81.791668 253.169097 
L 83.439661 258.382303 
L 86.735646 261.4611 
L 88.383639 262.654147 
L 90.031631 256.49013 
L 91.679624 263.022605 
L 93.327617 260.502731 
L 94.975609 256.048737 
L 96.623602 260.307354 
L 98.271594 263.681295 
L 99.919587 263.662399 
L 101.56758 262.226358 
L 103.215572 263.260308 
L 104.863565 260.49933 
L 106.511557 237.758487 
L 108.15955 256.703647 
L 109.807543 262.986326 
L 111.455535 245.898572 
L 113.103528 263.484784 
L 114.751521 261.830691 
L 116.399513 256.42702 
L 118.047506 255.828796 
L 119.695498 118.457493 
L 121.343491 258.887941 
L 122.991484 259.890902 
L 124.639476 263.375947 
L 126.287469 261.016683 
L 127.935461 263.36272 
L 129.583454 259.776775 
L 131.231447 264.313153 
L 132.879439 264.128735 
L 134.527432 260.745725 
L 136.175425 263.387662 
L 137.823417 246.257583 
L 139.47141 259.034946 
L 141.119402 246.197496 
L 142.767395 259.785467 
L 144.415388 263.047547 
L 146.06338 263.83737 
L 147.711373 264.130246 
L 149.359365 258.206955 
L 151.007358 261.073369 
L 152.655351 261.001189 
L 154.303343 257.299604 
L 155.951336 262.93871 
L 157.599329 262.295893 
L 159.247321 263.422429 
L 160.895314 264.351321 
L 162.543306 264.153299 
L 164.191299 258.64268 
L 165.839292 264.35699 
L 167.487284 263.093652 
L 169.135277 263.123128 
L 170.783269 254.172058 
L 172.431262 259.477852 
L 174.079255 260.860986 
L 175.727247 261.729035 
L 177.37524 259.681165 
L 179.023233 258.738668 
L 180.671225 263.729289 
L 182.319218 258.626808 
L 183.96721 258.03463 
L 185.615203 243.689715 
L 187.263196 263.233855 
L 190.559181 262.699874 
L 192.207174 260.684882 
L 193.855166 263.0056 
L 197.151151 260.082122 
L 198.799144 262.372986 
L 200.447137 258.73829 
L 202.095129 259.716688 
L 203.743122 261.632669 
L 205.391114 261.889645 
L 207.039107 262.821182 
L 208.6871 258.721663 
L 210.335092 264.12231 
L 211.983085 263.951497 
L 213.631078 260.863631 
L 215.27907 264.090944 
L 216.927063 262.242986 
L 218.575055 260.040553 
L 220.223048 260.245 
L 221.871041 260.673545 
L 223.519033 261.976563 
L 225.167026 262.710455 
L 226.815018 257.548644 
L 228.463011 230.65084 
L 230.111004 220.432275 
L 231.758996 206.746804 
L 233.406989 250.040039 
L 235.054982 254.390487 
L 236.702974 253.163806 
L 238.350967 264.016875 
L 239.998959 259.116196 
L 241.646952 263.848329 
L 243.294945 262.700252 
L 244.942937 259.088609 
L 246.59093 262.7097 
L 248.238922 261.601681 
L 249.886915 205.486111 
L 251.534908 243.064659 
L 253.1829 263.538068 
L 254.830893 261.625867 
L 256.478886 259.960059 
L 258.126878 233.771206 
L 259.774871 259.577997 
L 261.422863 251.276546 
L 263.070856 250.044952 
L 264.718849 245.56337 
L 268.014834 221.624945 
L 269.662826 258.754918 
L 271.310819 263.27618 
L 272.958812 263.296965 
L 274.606804 255.139118 
L 276.254797 223.238601 
L 277.90279 259.213696 
L 279.550782 150.903327 
L 281.198775 263.758387 
L 282.846767 262.389614 
L 284.49476 264.375885 
L 286.142753 261.925168 
L 287.790745 260.610434 
L 289.438738 235.72271 
L 291.086731 240.12531 
L 292.734723 259.278317 
L 294.382716 260.032995 
L 296.030708 251.759131 
L 297.678701 260.254825 
L 299.326694 261.854499 
L 300.974686 250.762594 
L 302.622679 263.256529 
L 304.270671 236.918403 
L 305.918664 260.456249 
L 307.566657 261.917232 
L 309.214649 247.669816 
L 310.862642 247.653944 
L 314.158627 262.543421 
L 315.80662 182.955006 
L 317.454612 260.128605 
L 319.102605 260.990229 
L 320.750598 256.085772 
L 322.39859 249.671959 
L 324.046583 262.86653 
L 325.694575 261.891156 
L 327.342568 255.61868 
L 328.990561 259.984623 
L 330.638553 262.5797 
L 332.286546 261.476972 
L 333.934539 261.635692 
L 335.582531 258.618494 
L 337.230524 259.565904 
L 338.878516 255.906644 
L 340.526509 262.84499 
L 342.174502 256.833647 
L 343.822494 264.395536 
L 345.470487 253.121859 
L 347.118479 260.091192 
L 348.766472 256.991611 
L 350.414465 258.364542 
L 352.062457 262.751269 
L 353.71045 263.871381 
L 355.358443 254.912753 
L 357.006435 260.471365 
L 358.654428 256.767891 
L 360.30242 262.142463 
L 361.950413 261.504937 
L 365.246398 244.664333 
L 366.894391 261.133078 
L 368.542383 255.512489 
L 370.190376 246.041799 
L 371.838369 261.413862 
L 373.486361 263.860422 
L 375.134354 256.70856 
L 376.782347 236.54012 
L 378.430339 225.089583 
L 380.078332 264.606029 
L 381.726324 257.940532 
L 383.374317 261.319385 
L 386.670302 257.936753 
L 388.318295 258.252682 
L 388.318295 258.252682 
" style="fill:none;stroke:#9467bd;stroke-linecap:square;stroke-width:0.5;"/>
   </g>
   <g id="line2d_22">
    <path clip-path="url(#pbd8a85bce0)" d="M 68.607727 260.336075 
L 70.25572 261.498512 
L 71.903713 260.311511 
L 73.551705 253.025493 
L 75.199698 264.1892 
L 76.84769 245.196424 
L 78.495683 257.124634 
L 80.143676 251.594364 
L 81.791668 235.657711 
L 83.439661 256.740682 
L 85.087653 264.302571 
L 86.735646 259.247329 
L 88.383639 259.834594 
L 90.031631 263.358563 
L 91.679624 253.230317 
L 93.327617 260.701888 
L 94.975609 263.829056 
L 96.623602 255.887749 
L 98.271594 263.169989 
L 99.919587 256.736147 
L 101.56758 261.826912 
L 103.215572 264.357746 
L 104.863565 250.208207 
L 106.511557 263.51615 
L 108.15955 263.696411 
L 109.807543 253.015667 
L 111.455535 262.89374 
L 113.103528 263.05964 
L 114.751521 254.756678 
L 116.399513 252.768517 
L 118.047506 260.350057 
L 119.695498 259.362212 
L 121.343491 263.643126 
L 122.991484 263.83737 
L 124.639476 249.792511 
L 126.287469 263.961323 
L 127.935461 264.320333 
L 129.583454 260.759329 
L 131.231447 264.331292 
L 132.879439 264.188066 
L 134.527432 264.310885 
L 137.823417 262.000749 
L 139.47141 263.183593 
L 141.119402 264.153677 
L 142.767395 263.903503 
L 144.415388 257.816201 
L 146.06338 261.588076 
L 147.711373 262.240719 
L 149.359365 263.922398 
L 151.007358 264.241351 
L 152.655351 262.426648 
L 154.303343 261.690488 
L 155.951336 258.389106 
L 157.599329 259.772618 
L 159.247321 234.694807 
L 160.895314 263.321151 
L 162.543306 263.465133 
L 164.191299 261.757756 
L 165.839292 262.033249 
L 167.487284 263.272779 
L 169.135277 262.998041 
L 170.783269 263.463999 
L 172.431262 260.111221 
L 174.079255 264.230013 
L 175.727247 253.404154 
L 177.37524 260.999677 
L 179.023233 262.374119 
L 180.671225 260.823195 
L 182.319218 263.864579 
L 183.96721 261.1002 
L 185.615203 261.57825 
L 187.263196 262.194236 
L 188.911188 264.278385 
L 190.559181 258.065619 
L 192.207174 259.786978 
L 193.855166 263.264465 
L 195.503159 247.832315 
L 197.151151 236.727561 
L 198.799144 241.98007 
L 200.447137 261.04238 
L 202.095129 257.080797 
L 203.743122 246.281391 
L 205.391114 259.391689 
L 207.039107 264.409519 
L 208.6871 259.752967 
L 210.335092 258.052014 
L 211.983085 263.650684 
L 213.631078 263.978328 
L 215.27907 262.273219 
L 216.927063 261.53139 
L 218.575055 261.725256 
L 220.223048 261.795546 
L 221.871041 200.530258 
L 223.519033 263.577371 
L 225.167026 263.425453 
L 226.815018 259.903373 
L 228.463011 261.827668 
L 230.111004 261.189764 
L 231.758996 263.801469 
L 233.406989 261.523454 
L 235.054982 263.883852 
L 236.702974 262.397928 
L 238.350967 262.769787 
L 239.998959 262.544555 
L 241.646952 260.351947 
L 243.294945 254.541272 
L 244.942937 255.876412 
L 246.59093 262.609933 
L 248.238922 260.319825 
L 249.886915 262.221068 
L 251.534908 257.469662 
L 253.1829 263.542225 
L 254.830893 263.61894 
L 256.478886 262.873333 
L 258.126878 261.262321 
L 259.774871 258.416693 
L 261.422863 256.71763 
L 263.070856 260.22157 
L 264.718849 260.395784 
L 266.366841 264.247775 
L 268.014834 259.836862 
L 269.662826 264.041817 
L 271.310819 263.676004 
L 272.958812 261.090374 
L 274.606804 263.496499 
L 276.254797 264.070537 
L 277.90279 261.85979 
L 279.550782 262.483334 
L 281.198775 263.882718 
L 282.846767 258.762476 
L 284.49476 262.31441 
L 289.438738 263.731934 
L 291.086731 203.891728 
L 292.734723 247.896937 
L 294.382716 254.020896 
L 296.030708 262.657549 
L 297.678701 261.910429 
L 299.326694 261.817087 
L 300.974686 252.574273 
L 302.622679 260.448691 
L 304.270671 260.74119 
L 305.918664 262.538508 
L 307.566657 259.952879 
L 309.214649 263.513505 
L 310.862642 263.483272 
L 312.510635 260.977003 
L 314.158627 262.010574 
L 315.80662 256.437224 
L 317.454612 262.878245 
L 319.102605 262.688915 
L 320.750598 261.22113 
L 322.39859 263.289785 
L 324.046583 261.237758 
L 325.694575 231.164036 
L 327.342568 261.197322 
L 328.990561 259.857647 
L 330.638553 262.809089 
L 332.286546 261.280083 
L 333.934539 261.674238 
L 335.582531 261.061654 
L 337.230524 261.501536 
L 338.878516 260.836044 
L 340.526509 263.58644 
L 342.174502 261.187874 
L 343.822494 262.950047 
L 345.470487 260.518603 
L 347.118479 260.46154 
L 348.766472 260.555638 
L 350.414465 255.480367 
L 352.062457 262.577055 
L 353.71045 263.211558 
L 355.358443 260.876102 
L 358.654428 247.482752 
L 360.30242 261.035578 
L 361.950413 263.873649 
L 363.598406 253.022091 
L 365.246398 261.911185 
L 368.542383 255.796296 
L 370.190376 237.448605 
L 371.838369 257.491958 
L 373.486361 263.002198 
L 375.134354 258.741692 
L 376.782347 262.095981 
L 378.430339 260.45058 
L 380.078332 261.45014 
L 381.726324 261.507204 
L 381.726324 261.507204 
" style="fill:none;stroke:#8c564b;stroke-linecap:square;stroke-width:0.5;"/>
   </g>
   <g id="line2d_23">
    <path clip-path="url(#pbd8a85bce0)" d="M 68.607727 257.325302 
L 70.25572 264.2217 
L 71.903713 263.289029 
L 73.551705 263.582661 
L 75.199698 261.392699 
L 76.84769 261.74604 
L 78.495683 261.383629 
L 80.143676 264.367193 
L 81.791668 264.215653 
L 83.439661 254.679207 
L 85.087653 263.397488 
L 86.735646 262.338218 
L 88.383639 246.125316 
L 90.031631 261.329211 
L 91.679624 259.74881 
L 93.327617 263.549406 
L 94.975609 262.49316 
L 96.623602 249.792889 
L 98.271594 242.096465 
L 99.919587 262.013598 
L 101.56758 261.141014 
L 103.215572 261.45014 
L 104.863565 255.28499 
L 106.511557 263.419406 
L 108.15955 264.263647 
L 109.807543 260.534097 
L 111.455535 258.538 
L 114.751521 263.747806 
L 116.399513 261.323164 
L 118.047506 254.911997 
L 119.695498 261.278949 
L 121.343491 262.190079 
L 122.991484 263.871003 
L 124.639476 263.078157 
L 126.287469 258.628698 
L 127.935461 262.735775 
L 129.583454 263.854753 
L 131.231447 263.806759 
L 132.879439 250.643176 
L 134.527432 258.463175 
L 136.175425 263.624609 
L 137.823417 259.23637 
L 139.47141 263.591731 
L 141.119402 264.307862 
L 142.767395 259.458956 
L 144.415388 263.344959 
L 146.06338 262.559671 
L 147.711373 256.2033 
L 149.359365 262.841211 
L 151.007358 255.450134 
L 152.655351 263.33929 
L 154.303343 261.281217 
L 155.951336 262.504119 
L 157.599329 261.977319 
L 159.247321 258.82143 
L 160.895314 261.85261 
L 162.543306 227.233441 
L 164.191299 262.199905 
L 165.839292 257.582277 
L 167.487284 243.276664 
L 169.135277 264.085654 
L 170.783269 261.336391 
L 172.431262 253.047789 
L 174.079255 261.600925 
L 175.727247 258.259862 
L 177.37524 256.424753 
L 179.023233 258.219804 
L 180.671225 262.215021 
L 182.319218 263.964724 
L 183.96721 263.584551 
L 185.615203 260.008053 
L 187.263196 255.025369 
L 188.911188 259.900728 
L 190.559181 262.306096 
L 192.207174 262.736531 
L 193.855166 264.537251 
L 195.503159 258.045212 
L 197.151151 263.706992 
L 198.799144 262.174963 
L 200.447137 260.02128 
L 202.095129 260.226104 
L 203.743122 261.4286 
L 205.391114 256.080103 
L 207.039107 261.56389 
L 208.6871 264.321467 
L 210.335092 248.092314 
L 211.983085 258.641547 
L 213.631078 258.352827 
L 215.27907 260.167151 
L 216.927063 258.410268 
L 218.575055 261.53857 
L 220.223048 264.160479 
L 221.871041 260.712469 
L 223.519033 263.578882 
L 225.167026 253.879937 
L 226.815018 263.160541 
L 228.463011 256.199521 
L 230.111004 257.903119 
L 231.758996 259.108638 
L 233.406989 262.416067 
L 235.054982 250.072917 
L 236.702974 256.658676 
L 238.350967 263.853998 
L 239.998959 263.602312 
L 241.646952 254.01825 
L 243.294945 263.644638 
L 244.942937 255.437286 
L 246.59093 260.267674 
L 248.238922 262.995774 
L 249.886915 260.808457 
L 251.534908 258.281781 
L 253.1829 263.079291 
L 254.830893 264.013096 
L 256.478886 255.19467 
L 258.126878 260.408255 
L 259.774871 263.731934 
L 261.422863 263.875538 
L 263.070856 261.991301 
L 264.718849 264.101148 
L 266.366841 262.962518 
L 268.014834 262.97839 
L 269.662826 256.569491 
L 271.310819 264.238327 
L 272.958812 262.389236 
L 274.606804 262.352957 
L 276.254797 263.041879 
L 277.90279 256.293242 
L 279.550782 260.934677 
L 281.198775 257.248587 
L 282.846767 262.657549 
L 284.49476 262.000371 
L 286.142753 258.999423 
L 287.790745 249.700302 
L 289.438738 259.657735 
L 291.086731 264.357368 
L 292.734723 263.832457 
L 294.382716 262.696473 
L 296.030708 257.608731 
L 297.678701 260.070029 
L 299.326694 260.760085 
L 300.974686 261.1327 
L 302.622679 259.733316 
L 304.270671 257.724748 
L 305.918664 255.124002 
L 307.566657 263.840393 
L 309.214649 246.875458 
L 310.862642 263.823765 
L 312.510635 261.498134 
L 314.158627 259.778286 
L 315.80662 264.257979 
L 319.102605 260.266918 
L 322.39859 215.129883 
L 324.046583 262.131126 
L 325.694575 254.433191 
L 327.342568 263.66958 
L 328.990561 263.901992 
L 330.638553 261.996592 
L 332.286546 264.556146 
L 333.934539 261.823511 
L 335.582531 264.243996 
L 337.230524 262.278509 
L 338.878516 263.392197 
L 340.526509 263.934113 
L 342.174502 263.844928 
L 345.470487 262.174207 
L 347.118479 262.019644 
L 348.766472 263.55583 
L 350.414465 263.619318 
L 352.062457 262.416823 
L 353.71045 262.093714 
L 355.358443 262.98935 
L 357.006435 261.898336 
L 358.654428 261.081683 
L 360.30242 260.065495 
L 361.950413 258.25306 
L 363.598406 263.194552 
L 365.246398 227.378556 
L 366.894391 259.115062 
L 368.542383 257.518789 
L 370.190376 249.133066 
L 371.838369 227.923118 
L 373.486361 248.537865 
L 375.134354 261.931214 
L 376.782347 252.768895 
L 378.430339 257.863817 
L 380.078332 248.943735 
L 381.726324 263.576237 
L 383.374317 262.218044 
L 385.02231 261.637582 
L 386.670302 261.438047 
L 388.318295 263.622341 
L 389.966287 252.046339 
L 391.61428 256.711583 
L 391.61428 256.711583 
" style="fill:none;stroke:#e377c2;stroke-linecap:square;stroke-width:0.5;"/>
   </g>
   <g id="line2d_24">
    <path clip-path="url(#pbd8a85bce0)" d="M 68.607727 257.657859 
L 70.25572 253.435898 
L 71.903713 263.047547 
L 73.551705 264.402338 
L 75.199698 263.749696 
L 76.84769 264.416321 
L 78.495683 263.131442 
L 80.143676 263.146936 
L 81.791668 264.080363 
L 83.439661 262.967053 
L 85.087653 263.942049 
L 86.735646 264.350187 
L 88.383639 264.03766 
L 90.031631 262.136417 
L 91.679624 263.676382 
L 93.327617 263.378214 
L 94.975609 263.395976 
L 96.623602 264.337717 
L 98.271594 261.8904 
L 99.919587 263.575859 
L 101.56758 260.386714 
L 103.215572 262.489759 
L 104.863565 262.902053 
L 106.511557 263.110657 
L 108.15955 262.642054 
L 109.807543 260.966799 
L 111.455535 264.218298 
L 113.103528 264.165014 
L 114.751521 261.411594 
L 116.399513 262.429294 
L 118.047506 263.167343 
L 119.695498 263.49083 
L 121.343491 264.437862 
L 122.991484 261.84354 
L 124.639476 261.8904 
L 126.287469 261.759267 
L 127.935461 264.194868 
L 129.583454 262.099382 
L 131.231447 251.866456 
L 132.879439 253.991797 
L 136.175425 260.642178 
L 137.823417 260.631975 
L 139.47141 263.987776 
L 141.119402 256.860478 
L 142.767395 261.860168 
L 146.06338 264.16388 
L 147.711373 264.274606 
L 149.359365 256.950797 
L 151.007358 263.072867 
L 152.655351 263.798823 
L 154.303343 263.668446 
L 155.951336 262.147754 
L 157.599329 260.039797 
L 159.247321 262.004906 
L 160.895314 263.596266 
L 162.543306 257.482888 
L 164.191299 260.614969 
L 165.839292 262.978768 
L 167.487284 261.853744 
L 169.135277 262.564962 
L 170.783269 259.455933 
L 172.431262 263.667312 
L 174.079255 262.109208 
L 175.727247 260.282034 
L 177.37524 263.023739 
L 179.023233 262.456881 
L 180.671225 264.373618 
L 182.319218 258.210734 
L 183.96721 264.084142 
L 185.615203 261.353775 
L 187.263196 261.401013 
L 188.911188 263.394464 
L 190.559181 263.804114 
L 192.207174 262.026068 
L 193.855166 264.438995 
L 195.503159 261.198077 
L 197.151151 263.160163 
L 198.799144 261.68293 
L 200.447137 263.139378 
L 202.095129 262.928129 
L 203.743122 262.98746 
L 205.391114 261.860168 
L 207.039107 262.724438 
L 208.6871 260.420726 
L 210.335092 263.920887 
L 211.983085 262.506008 
L 213.631078 259.582531 
L 215.27907 263.406935 
L 216.927063 261.760779 
L 218.575055 260.562062 
L 220.223048 262.939844 
L 221.871041 264.092078 
L 223.519033 262.111853 
L 225.167026 262.680601 
L 226.815018 264.23606 
L 228.463011 263.412604 
L 230.111004 262.169673 
L 231.758996 262.508654 
L 233.406989 262.106184 
L 235.054982 263.671091 
L 236.702974 259.888635 
L 238.350967 264.246641 
L 239.998959 263.498388 
L 241.646952 264.410274 
L 244.942937 256.825711 
L 246.59093 262.003394 
L 248.238922 263.943561 
L 249.886915 261.805372 
L 251.534908 262.815513 
L 253.1829 263.348738 
L 254.830893 261.164066 
L 256.478886 262.50034 
L 258.126878 260.073809 
L 259.774871 260.101774 
L 261.422863 263.827166 
L 263.070856 261.055985 
L 264.718849 261.229066 
L 266.366841 264.07545 
L 268.014834 262.831385 
L 269.662826 261.912697 
L 271.310819 263.457953 
L 272.958812 256.27548 
L 274.606804 258.807069 
L 276.254797 264.143473 
L 277.90279 263.733446 
L 279.550782 259.584799 
L 281.198775 263.204378 
L 282.846767 261.82729 
L 284.49476 262.934931 
L 286.142753 261.675372 
L 287.790745 261.310693 
L 289.438738 262.580834 
L 291.086731 263.618184 
L 292.734723 261.732058 
L 294.382716 262.828362 
L 296.030708 262.903187 
L 297.678701 261.263833 
L 299.326694 261.998859 
L 300.974686 259.568927 
L 302.622679 260.745725 
L 304.270671 261.275548 
L 305.918664 263.953387 
L 307.566657 261.350751 
L 309.214649 263.177169 
L 310.862642 263.150337 
L 312.510635 262.20255 
L 314.158627 263.041501 
L 315.80662 263.724376 
L 317.454612 250.485968 
L 319.102605 260.523516 
L 320.750598 262.751647 
L 322.39859 263.383883 
L 324.046583 262.66813 
L 325.694575 264.104171 
L 327.342568 259.232213 
L 328.990561 262.960251 
L 330.638553 262.730106 
L 332.286546 263.360453 
L 333.934539 262.497695 
L 337.230524 262.184789 
L 338.878516 263.042256 
L 340.526509 261.898714 
L 342.174502 262.322346 
L 343.822494 262.88278 
L 345.470487 259.725002 
L 347.118479 264.394024 
L 350.414465 264.17295 
L 352.062457 257.460592 
L 353.71045 256.816641 
L 355.358443 262.50034 
L 357.006435 260.98116 
L 358.654428 264.10984 
L 360.30242 262.491648 
L 361.950413 263.856265 
L 363.598406 260.429418 
L 365.246398 263.942427 
L 366.894391 262.62656 
L 368.542383 263.62083 
L 370.190376 262.174963 
L 371.838369 263.908794 
L 373.486361 263.070977 
L 375.134354 261.231333 
L 376.782347 262.524526 
L 378.430339 261.856389 
L 380.078332 263.012024 
L 381.726324 262.918681 
L 383.374317 261.46828 
L 385.02231 249.769837 
L 386.670302 258.832767 
L 389.966287 263.881963 
L 391.61428 259.705351 
L 393.262273 262.254323 
L 393.262273 262.254323 
" style="fill:none;stroke:#7f7f7f;stroke-linecap:square;stroke-width:0.5;"/>
   </g>
   <g id="line2d_25">
    <path clip-path="url(#pbd8a85bce0)" d="M 68.607727 232.222171 
L 70.25572 250.295881 
L 71.903713 262.42816 
L 73.551705 256.18176 
L 75.199698 258.913261 
L 76.84769 262.124702 
L 78.495683 258.250792 
L 80.143676 264.093968 
L 81.791668 260.549592 
L 83.439661 262.829118 
L 85.087653 264.101904 
L 86.735646 262.242986 
L 88.383639 250.80303 
L 90.031631 262.786036 
L 91.679624 260.704533 
L 93.327617 261.318251 
L 94.975609 258.826342 
L 96.623602 250.577799 
L 98.271594 243.54989 
L 99.919587 216.977841 
L 101.56758 246.06863 
L 103.215572 263.209291 
L 104.863565 261.071479 
L 106.511557 258.02745 
L 108.15955 237.423663 
L 109.807543 264.156322 
L 111.455535 263.082692 
L 113.103528 257.344953 
L 114.751521 259.956658 
L 116.399513 248.159203 
L 118.047506 263.650306 
L 119.695498 259.330846 
L 121.343491 257.392947 
L 122.991484 261.053718 
L 124.639476 256.57138 
L 126.287469 258.964278 
L 127.935461 256.991233 
L 129.583454 207.836306 
L 131.231447 237.28535 
L 132.879439 259.258288 
L 134.527432 264.229258 
L 136.175425 255.905133 
L 137.823417 253.347846 
L 139.47141 264.181642 
L 141.119402 261.668948 
L 142.767395 247.431357 
L 144.415388 255.593361 
L 146.06338 263.016181 
L 147.711373 263.121617 
L 149.359365 226.677542 
L 151.007358 256.980652 
L 152.655351 236.929363 
L 154.303343 187.251792 
L 155.951336 258.431053 
L 157.599329 239.960165 
L 159.247321 260.551859 
L 160.895314 239.336243 
L 162.543306 245.97302 
L 164.191299 263.980974 
L 165.839292 260.207209 
L 169.135277 264.234926 
L 170.783269 262.412666 
L 172.431262 259.958547 
L 174.079255 253.424939 
L 175.727247 249.899458 
L 177.37524 264.08452 
L 179.023233 263.147314 
L 180.671225 260.480435 
L 182.319218 254.268424 
L 183.96721 252.274972 
L 185.615203 259.277562 
L 187.263196 227.642712 
L 188.911188 263.494609 
L 190.559181 264.133648 
L 192.207174 263.682428 
L 193.855166 252.9159 
L 195.503159 240.66647 
L 197.151151 262.786792 
L 198.799144 248.745335 
L 200.447137 262.384323 
L 202.095129 263.8608 
L 203.743122 247.368625 
L 205.391114 263.429988 
L 207.039107 263.870625 
L 208.6871 261.895691 
L 210.335092 260.675434 
L 211.983085 262.242608 
L 213.631078 251.333232 
L 215.27907 257.389168 
L 216.927063 263.93298 
L 218.575055 260.908602 
L 220.223048 260.908602 
L 221.871041 248.552981 
L 223.519033 255.346588 
L 225.167026 234.052368 
L 226.815018 259.240149 
L 228.463011 261.595256 
L 230.111004 257.278441 
L 231.758996 262.795484 
L 233.406989 253.023225 
L 235.054982 252.949534 
L 236.702974 259.765816 
L 238.350967 258.017247 
L 239.998959 219.600883 
L 241.646952 253.2443 
L 243.294945 259.649421 
L 244.942937 263.058884 
L 246.59093 263.38993 
L 248.238922 260.723428 
L 249.886915 263.456441 
L 251.534908 259.310439 
L 253.1829 262.102405 
L 254.830893 262.172696 
L 256.478886 248.163738 
L 258.126878 262.382055 
L 259.774871 261.66857 
L 261.422863 257.189634 
L 263.070856 246.70011 
L 264.718849 260.004274 
L 266.366841 262.463683 
L 268.014834 253.57988 
L 269.662826 263.717574 
L 271.310819 260.141832 
L 272.958812 259.141894 
L 274.606804 258.488117 
L 276.254797 257.59626 
L 277.90279 263.477982 
L 279.550782 245.160901 
L 281.198775 259.774129 
L 282.846767 255.930074 
L 284.49476 255.368885 
L 286.142753 260.605144 
L 287.790745 250.927361 
L 289.438738 250.395648 
L 291.086731 256.088417 
L 292.734723 253.187236 
L 294.382716 254.952055 
L 296.030708 263.058884 
L 297.678701 260.987206 
L 299.326694 253.816827 
L 300.974686 263.670335 
L 302.622679 261.464879 
L 304.270671 262.82156 
L 305.918664 256.991989 
L 307.566657 261.74604 
L 309.214649 260.361395 
L 310.862642 263.902369 
L 312.510635 241.608967 
L 314.158627 250.790559 
L 315.80662 253.816449 
L 317.454612 255.721849 
L 319.102605 232.810192 
L 320.750598 262.875222 
L 322.39859 256.744839 
L 324.046583 259.29041 
L 325.694575 259.990669 
L 327.342568 264.223211 
L 328.990561 261.824267 
L 330.638553 256.480305 
L 332.286546 263.159785 
L 333.934539 263.966235 
L 335.582531 264.243996 
L 337.230524 248.586614 
L 338.878516 247.573828 
L 340.526509 257.235738 
L 342.174502 263.744783 
L 343.822494 263.170366 
L 345.470487 261.217729 
L 347.118479 217.946412 
L 348.766472 261.816709 
L 350.414465 260.652382 
L 352.062457 261.833715 
L 353.71045 261.904761 
L 355.358443 261.21924 
L 357.006435 255.049555 
L 358.654428 263.768213 
L 360.30242 260.891596 
L 361.950413 263.926933 
L 363.598406 261.26988 
L 365.246398 262.991995 
L 366.894391 249.153851 
L 368.542383 257.96434 
L 370.190376 261.797436 
L 371.838369 250.311753 
L 373.486361 251.680149 
L 375.134354 260.243866 
L 376.782347 245.436772 
L 378.430339 262.895251 
L 380.078332 252.780232 
L 381.726324 258.527419 
L 383.374317 258.847127 
L 385.02231 250.931518 
L 386.670302 262.179876 
L 388.318295 213.568377 
L 389.966287 253.661508 
L 391.61428 260.82962 
L 391.61428 260.82962 
" style="fill:none;stroke:#bcbd22;stroke-linecap:square;stroke-width:0.5;"/>
   </g>
   <g id="line2d_26">
    <path clip-path="url(#pbd8a85bce0)" d="M 68.607727 262.909234 
L 70.25572 261.254763 
L 71.903713 261.425577 
L 73.551705 262.908478 
L 75.199698 256.641671 
L 76.84769 263.08496 
L 78.495683 264.216787 
L 80.143676 258.48396 
L 81.791668 262.433829 
L 83.439661 263.844172 
L 85.087653 261.590721 
L 86.735646 263.775771 
L 88.383639 235.632769 
L 90.031631 261.979208 
L 91.679624 263.589464 
L 93.327617 260.080989 
L 94.975609 262.869932 
L 96.623602 262.756938 
L 98.271594 264.07734 
L 99.919587 258.45146 
L 101.56758 262.865397 
L 103.215572 263.207023 
L 104.863565 263.921265 
L 106.511557 263.686963 
L 108.15955 262.71688 
L 109.807543 262.118277 
L 111.455535 263.47647 
L 113.103528 260.491016 
L 114.751521 264.086409 
L 116.399513 259.256399 
L 118.047506 260.349302 
L 119.695498 258.945383 
L 121.343491 263.502923 
L 122.991484 260.288081 
L 124.639476 264.2217 
L 126.287469 261.974295 
L 127.935461 261.977697 
L 129.583454 262.679845 
L 131.231447 264.126089 
L 132.879439 262.441387 
L 134.527432 261.609995 
L 136.175425 262.880135 
L 137.823417 262.369207 
L 139.47141 262.696851 
L 144.415388 263.268244 
L 146.06338 257.65937 
L 147.711373 261.93197 
L 149.359365 263.434144 
L 151.007358 254.002756 
L 152.655351 263.783329 
L 154.303343 264.288967 
L 155.951336 263.558475 
L 157.599329 261.698802 
L 159.247321 264.224345 
L 160.895314 264.356234 
L 162.543306 261.249851 
L 164.191299 263.535423 
L 165.839292 263.646149 
L 167.487284 263.262575 
L 169.135277 262.594438 
L 170.783269 262.408887 
L 172.431262 251.720207 
L 174.079255 263.152605 
L 175.727247 263.099698 
L 177.37524 263.392575 
L 179.023233 260.999299 
L 180.671225 263.681673 
L 182.319218 260.835666 
L 183.96721 261.786854 
L 185.615203 261.675372 
L 187.263196 264.047863 
L 188.911188 262.333306 
L 190.559181 262.795106 
L 192.207174 262.247521 
L 193.855166 259.318753 
L 195.503159 263.3015 
L 197.151151 259.445352 
L 198.799144 262.65906 
L 200.447137 261.386652 
L 202.095129 262.519991 
L 203.743122 263.377081 
L 205.391114 260.591161 
L 207.039107 252.929883 
L 208.6871 260.86741 
L 210.335092 261.785343 
L 211.983085 262.529817 
L 213.631078 263.791265 
L 215.27907 258.971836 
L 216.927063 262.919815 
L 218.575055 263.658998 
L 221.871041 262.935309 
L 223.519033 262.387346 
L 225.167026 264.273095 
L 226.815018 264.037282 
L 228.463011 263.327953 
L 230.111004 264.562948 
L 231.758996 263.856265 
L 233.406989 259.635438 
L 235.054982 258.055415 
L 236.702974 261.264589 
L 238.350967 262.955338 
L 239.998959 264.395536 
L 241.646952 260.127093 
L 243.294945 257.855125 
L 244.942937 262.472375 
L 246.59093 262.542665 
L 248.238922 263.958677 
L 249.886915 260.471365 
L 251.534908 261.627 
L 253.1829 258.130618 
L 254.830893 259.171748 
L 256.478886 263.502167 
L 258.126878 257.052832 
L 259.774871 256.211614 
L 261.422863 264.282542 
L 263.070856 260.734387 
L 264.718849 252.57125 
L 266.366841 263.626498 
L 268.014834 264.004026 
L 269.662826 260.782381 
L 271.310819 261.837494 
L 272.958812 263.287895 
L 274.606804 262.361649 
L 276.254797 264.351699 
L 277.90279 264.020276 
L 279.550782 263.231965 
L 281.198775 263.944317 
L 282.846767 262.193859 
L 284.49476 263.092896 
L 286.142753 263.37179 
L 287.790745 257.582277 
L 289.438738 253.921129 
L 291.086731 263.204756 
L 292.734723 260.503109 
L 294.382716 260.051134 
L 296.030708 263.373302 
L 297.678701 264.296903 
L 299.326694 263.809405 
L 300.974686 264.042572 
L 302.622679 263.770858 
L 304.270671 260.169797 
L 305.918664 262.403974 
L 307.566657 262.896385 
L 309.214649 263.645394 
L 310.862642 262.740688 
L 312.510635 257.678265 
L 314.158627 260.178866 
L 315.80662 264.168793 
L 317.454612 254.071535 
L 319.102605 263.636702 
L 320.750598 263.879695 
L 322.39859 262.690804 
L 324.046583 263.63708 
L 325.694575 260.457761 
L 327.342568 263.411848 
L 328.990561 250.484078 
L 330.638553 264.279897 
L 332.286546 261.135345 
L 333.934539 264.165014 
L 335.582531 258.420094 
L 337.230524 263.383883 
L 338.878516 263.115192 
L 340.526509 264.146496 
L 342.174502 263.112547 
L 343.822494 260.144477 
L 345.470487 261.102467 
L 347.118479 264.075072 
L 348.766472 257.530504 
L 350.414465 262.822693 
L 352.062457 263.758387 
L 352.062457 263.758387 
" style="fill:none;stroke:#17becf;stroke-linecap:square;stroke-width:0.5;"/>
   </g>
   <g id="line2d_27">
    <path clip-path="url(#pbd8a85bce0)" d="M 68.607727 239.275778 
L 70.25572 243.619046 
L 71.903713 203.232661 
L 73.551705 22.796 
L 75.199698 238.975343 
L 76.84769 242.172424 
L 78.495683 257.03507 
L 80.143676 243.244542 
L 81.791668 249.780796 
L 83.439661 251.376313 
L 85.087653 258.58864 
L 86.735646 231.165548 
L 88.383639 249.486785 
L 90.031631 255.455803 
L 91.679624 230.940694 
L 93.327617 188.521177 
L 94.975609 256.609927 
L 96.623602 245.895171 
L 98.271594 224.512899 
L 99.919587 262.74749 
L 101.56758 245.853602 
L 103.215572 262.693828 
L 104.863565 263.051704 
L 106.511557 263.669958 
L 108.15955 256.857455 
L 109.807543 256.084638 
L 111.455535 245.525958 
L 113.103528 258.000619 
L 114.751521 253.428718 
L 116.399513 216.981998 
L 118.047506 262.147754 
L 119.695498 160.181286 
L 121.343491 173.147224 
L 122.991484 257.813556 
L 124.639476 245.721713 
L 126.287469 239.579992 
L 127.935461 232.352549 
L 129.583454 237.381716 
L 131.231447 256.291352 
L 132.879439 261.527989 
L 134.527432 261.886621 
L 136.175425 243.606953 
L 137.823417 241.495595 
L 139.47141 256.318939 
L 141.119402 260.326249 
L 142.767395 245.188488 
L 144.415388 221.900816 
L 146.06338 208.458716 
L 147.711373 260.094215 
L 149.359365 82.592369 
L 151.007358 258.679337 
L 152.655351 225.031007 
L 154.303343 234.568587 
L 155.951336 260.813748 
L 157.599329 263.121995 
L 159.247321 260.802032 
L 160.895314 262.834786 
L 162.543306 250.040795 
L 164.191299 258.363408 
L 165.839292 257.051698 
L 167.487284 255.139118 
L 169.135277 263.858154 
L 170.783269 143.158531 
L 172.431262 243.039339 
L 174.079255 255.51778 
L 175.727247 262.56534 
L 177.37524 223.939616 
L 179.023233 221.326021 
L 180.671225 231.300838 
L 182.319218 229.626338 
L 183.96721 217.976645 
L 185.615203 249.674226 
L 187.263196 144.411666 
L 188.911188 260.422993 
L 190.559181 214.713809 
L 192.207174 246.481303 
L 193.855166 221.304481 
L 195.503159 249.3001 
L 197.151151 261.345083 
L 198.799144 255.554058 
L 200.447137 258.280647 
L 202.095129 256.947396 
L 203.743122 150.423009 
L 205.391114 221.147272 
L 207.039107 238.882 
L 208.6871 252.947644 
L 210.335092 261.81104 
L 211.983085 264.42728 
L 213.631078 261.871505 
L 215.27907 262.347666 
L 216.927063 260.449447 
L 218.575055 257.044518 
L 220.223048 264.409141 
L 221.871041 250.600473 
L 223.519033 212.984891 
L 225.167026 262.644322 
L 226.815018 172.070193 
L 228.463011 259.75788 
L 230.111004 263.705481 
L 231.758996 252.746976 
L 233.406989 221.921979 
L 235.054982 236.569219 
L 236.702974 263.397866 
L 239.998959 263.466644 
L 241.646952 259.86067 
L 243.294945 260.223837 
L 244.942937 253.72235 
L 246.59093 261.512117 
L 248.238922 262.719903 
L 249.886915 262.381678 
L 251.534908 258.306344 
L 253.1829 263.541848 
L 254.830893 244.785641 
L 256.478886 261.860924 
L 258.126878 250.619746 
L 259.774871 259.044772 
L 261.422863 256.217661 
L 263.070856 260.580202 
L 264.718849 260.933922 
L 266.366841 262.812112 
L 268.014834 262.348422 
L 269.662826 255.988272 
L 271.310819 176.077126 
L 272.958812 242.354574 
L 274.606804 262.540398 
L 276.254797 168.31608 
L 277.90279 212.13158 
L 279.550782 229.82625 
L 281.198775 263.700946 
L 282.846767 262.42627 
L 284.49476 256.973472 
L 286.142753 262.795484 
L 287.790745 263.057373 
L 289.438738 256.393009 
L 291.086731 262.754292 
L 292.734723 261.873773 
L 294.382716 263.113303 
L 296.030708 262.354468 
L 297.678701 244.513549 
L 299.326694 255.617925 
L 300.974686 243.083554 
L 302.622679 262.081999 
L 304.270671 246.596186 
L 305.918664 261.828424 
L 307.566657 263.670713 
L 309.214649 260.619882 
L 310.862642 208.254269 
L 312.510635 262.778856 
L 314.158627 257.857015 
L 315.80662 218.848851 
L 317.454612 252.935551 
L 319.102605 249.409693 
L 320.750598 257.381988 
L 322.39859 263.355918 
L 324.046583 263.824521 
L 325.694575 218.091528 
L 327.342568 225.006065 
L 328.990561 260.753283 
L 330.638553 260.843224 
L 332.286546 258.587128 
L 333.934539 239.684672 
L 335.582531 255.918737 
L 337.230524 257.08382 
L 338.878516 261.173136 
L 340.526509 263.942049 
L 342.174502 262.533218 
L 343.822494 239.77348 
L 345.470487 263.141646 
L 347.118479 256.233911 
L 348.766472 260.439243 
L 350.414465 256.194986 
L 352.062457 262.253568 
L 353.71045 263.538068 
L 355.358443 261.193921 
L 357.006435 260.637266 
L 358.654428 263.875538 
L 360.30242 263.556964 
L 361.950413 262.24223 
L 363.598406 256.81853 
L 365.246398 262.378276 
L 366.894391 234.789662 
L 368.542383 260.930142 
L 370.190376 259.300992 
L 371.838369 263.340424 
L 373.486361 262.281155 
L 375.134354 259.403782 
L 376.782347 255.677634 
L 378.430339 262.926995 
L 380.078332 262.641677 
L 381.726324 252.631337 
L 383.374317 263.788242 
L 385.02231 264.28481 
L 386.670302 264.073561 
L 388.318295 252.665727 
L 389.966287 257.203238 
L 391.61428 263.35554 
L 391.61428 263.35554 
" style="fill:none;stroke:#1f77b4;stroke-linecap:square;stroke-width:0.5;"/>
   </g>
   <g id="line2d_28">
    <path clip-path="url(#pbd8a85bce0)" d="M 68.607727 260.956596 
L 70.25572 261.9879 
L 71.903713 260.155814 
L 73.551705 260.232151 
L 75.199698 246.299908 
L 76.84769 262.450834 
L 78.495683 263.824521 
L 80.143676 262.391881 
L 81.791668 263.874404 
L 83.439661 264.30824 
L 85.087653 263.344581 
L 86.735646 261.78761 
L 88.383639 262.479555 
L 90.031631 263.836992 
L 91.679624 264.418966 
L 93.327617 263.910683 
L 94.975609 263.533156 
L 96.623602 252.426134 
L 98.271594 259.893926 
L 99.919587 262.318189 
L 101.56758 263.602312 
L 103.215572 263.235366 
L 104.863565 258.64268 
L 106.511557 264.160479 
L 108.15955 258.632099 
L 109.807543 256.063097 
L 111.455535 261.671593 
L 113.103528 259.220876 
L 114.751521 264.353211 
L 116.399513 263.942049 
L 118.047506 258.089427 
L 119.695498 263.595888 
L 121.343491 262.017755 
L 122.991484 262.536241 
L 124.639476 262.871065 
L 126.287469 261.068456 
L 127.935461 260.29186 
L 129.583454 263.752719 
L 131.231447 261.2986 
L 132.879439 263.226296 
L 134.527432 263.18057 
L 137.823417 262.400195 
L 139.47141 253.67549 
L 141.119402 262.486735 
L 142.767395 263.418272 
L 144.415388 263.741382 
L 146.06338 260.679969 
L 147.711373 262.907344 
L 149.359365 261.444472 
L 151.007358 262.418712 
L 152.655351 264.149898 
L 154.303343 263.935247 
L 155.951336 263.92202 
L 157.599329 261.885866 
L 159.247321 263.286761 
L 160.895314 262.663973 
L 162.543306 264.337717 
L 164.191299 258.311257 
L 165.839292 259.458956 
L 167.487284 263.261064 
L 169.135277 263.029786 
L 170.783269 260.318313 
L 172.431262 260.190959 
L 174.079255 263.990421 
L 175.727247 262.509032 
L 177.37524 260.710201 
L 179.023233 261.068834 
L 180.671225 264.617367 
L 183.96721 263.175279 
L 185.615203 264.327513 
L 187.263196 263.967369 
L 188.911188 260.051134 
L 190.559181 262.492026 
L 192.207174 262.171184 
L 193.855166 263.996468 
L 195.503159 264.521001 
L 197.151151 263.599667 
L 198.799144 263.868358 
L 200.447137 259.307416 
L 202.095129 263.118971 
L 203.743122 263.221762 
L 205.391114 255.742633 
L 207.039107 252.461658 
L 208.6871 263.878939 
L 210.335092 263.286383 
L 211.983085 263.871381 
L 213.631078 263.669202 
L 215.27907 260.088169 
L 216.927063 262.349556 
L 218.575055 261.709384 
L 220.223048 263.286005 
L 221.871041 262.0854 
L 223.519033 263.779928 
L 225.167026 260.710201 
L 226.815018 259.910553 
L 228.463011 256.906582 
L 230.111004 259.061022 
L 231.758996 259.663025 
L 233.406989 257.913323 
L 235.054982 263.991177 
L 236.702974 262.807199 
L 238.350967 262.169673 
L 239.998959 263.90048 
L 241.646952 262.0204 
L 243.294945 262.740688 
L 244.942937 256.317806 
L 246.59093 264.47603 
L 248.238922 262.142085 
L 249.886915 263.836236 
L 251.534908 261.438803 
L 253.1829 263.083826 
L 254.830893 262.111475 
L 256.478886 261.947842 
L 258.126878 254.550341 
L 259.774871 261.229066 
L 261.422863 262.947024 
L 263.070856 263.612138 
L 264.718849 260.457383 
L 266.366841 262.682112 
L 268.014834 263.637458 
L 269.662826 262.589904 
L 271.310819 252.947644 
L 272.958812 259.870873 
L 274.606804 261.929703 
L 276.254797 262.939088 
L 277.90279 260.947904 
L 279.550782 263.746294 
L 281.198775 260.823195 
L 282.846767 261.847697 
L 284.49476 261.563134 
L 286.142753 262.930774 
L 287.790745 259.5557 
L 289.438738 263.251616 
L 291.086731 262.472375 
L 292.734723 263.695655 
L 294.382716 257.756114 
L 296.030708 263.940538 
L 297.678701 261.166711 
L 299.326694 261.355286 
L 300.974686 262.773944 
L 302.622679 260.218168 
L 304.270671 263.665045 
L 305.918664 261.344705 
L 307.566657 260.816015 
L 309.214649 262.715746 
L 310.862642 263.794288 
L 312.510635 255.589582 
L 314.158627 263.744783 
L 315.80662 263.832079 
L 317.454612 258.98733 
L 319.102605 261.591099 
L 320.750598 260.656161 
L 322.39859 263.815451 
L 324.046583 262.102027 
L 325.694575 264.179752 
L 327.342568 263.264843 
L 330.638553 263.480627 
L 332.286546 262.298916 
L 333.934539 263.903125 
L 335.582531 264.200915 
L 337.230524 262.001883 
L 338.878516 260.605522 
L 340.526509 262.080487 
L 342.174502 263.395598 
L 343.822494 260.064361 
L 345.470487 263.774637 
L 347.118479 263.29243 
L 348.766472 263.084204 
L 350.414465 264.083764 
L 352.062457 264.361903 
L 353.71045 262.842344 
L 355.358443 263.623475 
L 357.006435 261.983365 
L 358.654428 262.032493 
L 360.30242 261.436536 
L 361.950413 262.382055 
L 363.598406 264.072805 
L 365.246398 264.389868 
L 366.894391 255.654959 
L 368.542383 259.119219 
L 370.190376 262.8431 
L 371.838369 264.36417 
L 373.486361 261.507204 
L 375.134354 248.162982 
L 376.782347 263.88423 
L 378.430339 259.426834 
L 380.078332 264.308618 
L 381.726324 261.36549 
L 383.374317 262.448567 
L 385.02231 263.255017 
L 386.670302 259.896949 
L 388.318295 260.622905 
L 389.966287 262.448945 
L 391.61428 263.32304 
L 391.61428 263.32304 
" style="fill:none;stroke:#ff7f0e;stroke-linecap:square;stroke-width:0.5;"/>
   </g>
   <g id="line2d_29">
    <path clip-path="url(#pbd8a85bce0)" d="M 68.607727 264.395914 
L 70.25572 259.791513 
L 71.903713 255.793651 
L 73.551705 261.473571 
L 75.199698 256.886175 
L 76.84769 263.663911 
L 78.495683 255.151967 
L 80.143676 260.678079 
L 81.791668 261.352263 
L 83.439661 261.727901 
L 85.087653 255.347722 
L 86.735646 263.716818 
L 88.383639 262.978012 
L 90.031631 262.445922 
L 91.679624 262.583857 
L 93.327617 258.883784 
L 94.975609 257.033181 
L 96.623602 263.675626 
L 98.271594 261.768337 
L 99.919587 261.13988 
L 101.56758 261.993947 
L 103.215572 263.598533 
L 104.863565 264.528559 
L 106.511557 262.06008 
L 108.15955 264.070537 
L 109.807543 263.476092 
L 111.455535 261.327699 
L 114.751521 261.241537 
L 116.399513 263.378592 
L 118.047506 261.90136 
L 119.695498 263.847951 
L 121.343491 259.234102 
L 122.991484 262.835542 
L 124.639476 263.824143 
L 126.287469 259.625991 
L 127.935461 261.860168 
L 129.583454 261.3311 
L 131.231447 264.064491 
L 132.879439 263.406179 
L 134.527432 263.640481 
L 136.175425 254.102145 
L 137.823417 263.27618 
L 139.47141 260.54997 
L 141.119402 264.073183 
L 142.767395 263.711905 
L 144.415388 259.646775 
L 146.06338 262.859728 
L 147.711373 264.161235 
L 149.359365 260.648603 
L 151.007358 263.4674 
L 152.655351 259.771106 
L 154.303343 260.852294 
L 155.951336 263.484784 
L 157.599329 258.491896 
L 159.247321 263.240657 
L 160.895314 254.232523 
L 162.543306 260.707178 
L 164.191299 264.161613 
L 165.839292 260.98116 
L 167.487284 259.832327 
L 169.135277 261.939528 
L 170.783269 261.439937 
L 172.431262 260.374999 
L 174.079255 259.809275 
L 175.727247 264.522134 
L 177.37524 263.889143 
L 179.023233 258.861488 
L 180.671225 251.210412 
L 182.319218 260.568865 
L 185.615203 259.284742 
L 187.263196 263.754608 
L 188.911188 262.027202 
L 190.559181 262.01851 
L 192.207174 262.882024 
L 193.855166 258.544803 
L 195.503159 263.990799 
L 197.151151 258.696343 
L 198.799144 264.082252 
L 200.447137 259.564014 
L 202.095129 261.407059 
L 203.743122 260.952439 
L 205.391114 261.153863 
L 207.039107 262.150021 
L 208.6871 262.767519 
L 210.335092 261.347728 
L 211.983085 263.16432 
L 213.631078 257.795416 
L 215.27907 262.521125 
L 216.927063 264.219054 
L 218.575055 260.862875 
L 220.223048 259.352765 
L 221.871041 262.656037 
L 223.519033 263.186238 
L 225.167026 261.105869 
L 226.815018 264.393269 
L 228.463011 262.300806 
L 230.111004 259.04326 
L 231.758996 254.841329 
L 233.406989 264.143095 
L 235.054982 263.235366 
L 236.702974 263.327197 
L 238.350967 263.913707 
L 239.998959 258.410646 
L 241.646952 261.592989 
L 243.294945 263.751963 
L 244.942937 257.312453 
L 246.59093 264.385333 
L 248.238922 261.952755 
L 249.886915 263.262575 
L 251.534908 264.143095 
L 253.1829 259.399247 
L 254.830893 263.353273 
L 256.478886 263.706614 
L 258.126878 263.908038 
L 259.774871 263.971148 
L 261.422863 260.52276 
L 263.070856 255.778534 
L 264.718849 264.348676 
L 266.366841 263.52522 
L 268.014834 262.539264 
L 269.662826 258.622273 
L 271.310819 264.176351 
L 272.958812 257.94809 
L 274.606804 264.243618 
L 276.254797 262.441765 
L 277.90279 257.208529 
L 279.550782 260.332674 
L 281.198775 260.871189 
L 282.846767 264.078851 
L 284.49476 263.887253 
L 286.142753 260.062849 
L 287.790745 249.256263 
L 289.438738 262.372608 
L 291.086731 262.303829 
L 292.734723 263.925422 
L 294.382716 263.038855 
L 296.030708 258.721285 
L 297.678701 261.383629 
L 299.326694 264.448065 
L 300.974686 259.791513 
L 302.622679 252.791947 
L 304.270671 264.582221 
L 305.918664 263.87705 
L 307.566657 252.895493 
L 309.214649 260.588894 
L 310.862642 264.446175 
L 312.510635 264.006293 
L 314.158627 262.711967 
L 315.80662 263.859288 
L 317.454612 264.180886 
L 319.102605 263.282226 
L 320.750598 263.193797 
L 322.39859 264.29199 
L 324.046583 264.181264 
L 325.694575 262.009063 
L 327.342568 264.027456 
L 328.990561 261.105113 
L 330.638553 263.695277 
L 332.286546 264.289723 
L 333.934539 260.498952 
L 335.582531 264.208851 
L 337.230524 263.503679 
L 338.878516 264.097747 
L 340.526509 260.575667 
L 342.174502 264.102281 
L 343.822494 263.872515 
L 345.470487 252.317676 
L 347.118479 259.495235 
L 348.766472 262.769409 
L 350.414465 263.470801 
L 352.062457 264.008561 
L 353.71045 263.374813 
L 355.358443 256.425887 
L 357.006435 263.672225 
L 357.006435 263.672225 
" style="fill:none;stroke:#2ca02c;stroke-linecap:square;stroke-width:0.5;"/>
   </g>
   <g id="patch_3">
    <path d="M 52.375 276.812 
L 52.375 10.7 
" style="fill:none;stroke:#000000;stroke-linecap:square;stroke-linejoin:miter;stroke-width:0.8;"/>
   </g>
   <g id="patch_4">
    <path d="M 409.495 276.812 
L 409.495 10.7 
" style="fill:none;stroke:#000000;stroke-linecap:square;stroke-linejoin:miter;stroke-width:0.8;"/>
   </g>
   <g id="patch_5">
    <path d="M 52.375 276.812 
L 409.495 276.812 
" style="fill:none;stroke:#000000;stroke-linecap:square;stroke-linejoin:miter;stroke-width:0.8;"/>
   </g>
   <g id="patch_6">
    <path d="M 52.375 10.7 
L 409.495 10.7 
" style="fill:none;stroke:#000000;stroke-linecap:square;stroke-linejoin:miter;stroke-width:0.8;"/>
   </g>
  </g>
 </g>
 <defs>
  <clipPath id="pbd8a85bce0">
   <rect height="266.112" width="357.12" x="52.375" y="10.7"/>
  </clipPath>
 </defs>
</svg>
