<?xml version="1.0" encoding="utf-8" standalone="no"?>
<!DOCTYPE svg PUBLIC "-//W3C//DTD SVG 1.1//EN"
  "http://www.w3.org/Graphics/SVG/1.1/DTD/svg11.dtd">
<!-- Created with matplotlib (http://matplotlib.org/) -->
<svg height="300pt" version="1.1" viewBox="0 0 420 300" width="420pt" xmlns="http://www.w3.org/2000/svg" xmlns:xlink="http://www.w3.org/1999/xlink">
 <defs>
  <style type="text/css">
*{stroke-linecap:butt;stroke-linejoin:round;}
  </style>
 </defs>
 <g id="figure_1">
  <g id="patch_1">
   <path d="M 0 300.690125 
L 420.195 300.690125 
L 420.195 0 
L 0 0 
z
" style="fill:#ffffff;"/>
  </g>
  <g id="axes_1">
   <g id="patch_2">
    <path d="M 52.375 276.812 
L 409.495 276.812 
L 409.495 10.7 
L 52.375 10.7 
z
" style="fill:#ffffff;"/>
   </g>
   <g id="matplotlib.axis_1">
    <g id="xtick_1">
     <g id="line2d_1">
      <defs>
       <path d="M 0 0 
L 0 3.5 
" id="mec66c4e9b8" style="stroke:#000000;stroke-width:0.8;"/>
      </defs>
      <g>
       <use style="stroke:#000000;stroke-width:0.8;" x="68.607727" xlink:href="#mec66c4e9b8" y="276.812"/>
      </g>
     </g>
     <g id="text_1">
      <!-- 0 -->
      <defs>
       <path d="M 31.78125 66.40625 
Q 24.171875 66.40625 20.328125 58.90625 
Q 16.5 51.421875 16.5 36.375 
Q 16.5 21.390625 20.328125 13.890625 
Q 24.171875 6.390625 31.78125 6.390625 
Q 39.453125 6.390625 43.28125 13.890625 
Q 47.125 21.390625 47.125 36.375 
Q 47.125 51.421875 43.28125 58.90625 
Q 39.453125 66.40625 31.78125 66.40625 
M 31.78125 74.21875 
Q 44.046875 74.21875 50.515625 64.515625 
Q 56.984375 54.828125 56.984375 36.375 
Q 56.984375 17.96875 50.515625 8.265625 
Q 44.046875 -1.421875 31.78125 -1.421875 
Q 19.53125 -1.421875 13.0625 8.265625 
Q 6.59375 17.96875 6.59375 36.375 
Q 6.59375 54.828125 13.0625 64.515625 
Q 19.53125 74.21875 31.78125 74.21875 
" id="DejaVuSans-30"/>
      </defs>
      <g transform="translate(65.426477 291.410437)scale(0.1 -0.1)">
       <use xlink:href="#DejaVuSans-30"/>
      </g>
     </g>
    </g>
    <g id="xtick_2">
     <g id="line2d_2">
      <g>
       <use style="stroke:#000000;stroke-width:0.8;" x="109.807543" xlink:href="#mec66c4e9b8" y="276.812"/>
      </g>
     </g>
     <g id="text_2">
      <!-- 25 -->
      <defs>
       <path d="M 19.1875 8.296875 
L 53.609375 8.296875 
L 53.609375 0 
L 7.328125 0 
L 7.328125 8.296875 
Q 12.9375 14.109375 22.625 23.890625 
Q 32.328125 33.6875 34.8125 36.53125 
Q 39.546875 41.84375 41.421875 45.53125 
Q 43.3125 49.21875 43.3125 52.78125 
Q 43.3125 58.59375 39.234375 62.25 
Q 35.15625 65.921875 28.609375 65.921875 
Q 23.96875 65.921875 18.8125 64.3125 
Q 13.671875 62.703125 7.8125 59.421875 
L 7.8125 69.390625 
Q 13.765625 71.78125 18.9375 73 
Q 24.125 74.21875 28.421875 74.21875 
Q 39.75 74.21875 46.484375 68.546875 
Q 53.21875 62.890625 53.21875 53.421875 
Q 53.21875 48.921875 51.53125 44.890625 
Q 49.859375 40.875 45.40625 35.40625 
Q 44.1875 33.984375 37.640625 27.21875 
Q 31.109375 20.453125 19.1875 8.296875 
" id="DejaVuSans-32"/>
       <path d="M 10.796875 72.90625 
L 49.515625 72.90625 
L 49.515625 64.59375 
L 19.828125 64.59375 
L 19.828125 46.734375 
Q 21.96875 47.46875 24.109375 47.828125 
Q 26.265625 48.1875 28.421875 48.1875 
Q 40.625 48.1875 47.75 41.5 
Q 54.890625 34.8125 54.890625 23.390625 
Q 54.890625 11.625 47.5625 5.09375 
Q 40.234375 -1.421875 26.90625 -1.421875 
Q 22.3125 -1.421875 17.546875 -0.640625 
Q 12.796875 0.140625 7.71875 1.703125 
L 7.71875 11.625 
Q 12.109375 9.234375 16.796875 8.0625 
Q 21.484375 6.890625 26.703125 6.890625 
Q 35.15625 6.890625 40.078125 11.328125 
Q 45.015625 15.765625 45.015625 23.390625 
Q 45.015625 31 40.078125 35.4375 
Q 35.15625 39.890625 26.703125 39.890625 
Q 22.75 39.890625 18.8125 39.015625 
Q 14.890625 38.140625 10.796875 36.28125 
z
" id="DejaVuSans-35"/>
      </defs>
      <g transform="translate(103.445043 291.410437)scale(0.1 -0.1)">
       <use xlink:href="#DejaVuSans-32"/>
       <use x="63.623047" xlink:href="#DejaVuSans-35"/>
      </g>
     </g>
    </g>
    <g id="xtick_3">
     <g id="line2d_3">
      <g>
       <use style="stroke:#000000;stroke-width:0.8;" x="151.007358" xlink:href="#mec66c4e9b8" y="276.812"/>
      </g>
     </g>
     <g id="text_3">
      <!-- 50 -->
      <g transform="translate(144.644858 291.410437)scale(0.1 -0.1)">
       <use xlink:href="#DejaVuSans-35"/>
       <use x="63.623047" xlink:href="#DejaVuSans-30"/>
      </g>
     </g>
    </g>
    <g id="xtick_4">
     <g id="line2d_4">
      <g>
       <use style="stroke:#000000;stroke-width:0.8;" x="192.207174" xlink:href="#mec66c4e9b8" y="276.812"/>
      </g>
     </g>
     <g id="text_4">
      <!-- 75 -->
      <defs>
       <path d="M 8.203125 72.90625 
L 55.078125 72.90625 
L 55.078125 68.703125 
L 28.609375 0 
L 18.3125 0 
L 43.21875 64.59375 
L 8.203125 64.59375 
z
" id="DejaVuSans-37"/>
      </defs>
      <g transform="translate(185.844674 291.410437)scale(0.1 -0.1)">
       <use xlink:href="#DejaVuSans-37"/>
       <use x="63.623047" xlink:href="#DejaVuSans-35"/>
      </g>
     </g>
    </g>
    <g id="xtick_5">
     <g id="line2d_5">
      <g>
       <use style="stroke:#000000;stroke-width:0.8;" x="233.406989" xlink:href="#mec66c4e9b8" y="276.812"/>
      </g>
     </g>
     <g id="text_5">
      <!-- 100 -->
      <defs>
       <path d="M 12.40625 8.296875 
L 28.515625 8.296875 
L 28.515625 63.921875 
L 10.984375 60.40625 
L 10.984375 69.390625 
L 28.421875 72.90625 
L 38.28125 72.90625 
L 38.28125 8.296875 
L 54.390625 8.296875 
L 54.390625 0 
L 12.40625 0 
z
" id="DejaVuSans-31"/>
      </defs>
      <g transform="translate(223.863239 291.410437)scale(0.1 -0.1)">
       <use xlink:href="#DejaVuSans-31"/>
       <use x="63.623047" xlink:href="#DejaVuSans-30"/>
       <use x="127.246094" xlink:href="#DejaVuSans-30"/>
      </g>
     </g>
    </g>
    <g id="xtick_6">
     <g id="line2d_6">
      <g>
       <use style="stroke:#000000;stroke-width:0.8;" x="274.606804" xlink:href="#mec66c4e9b8" y="276.812"/>
      </g>
     </g>
     <g id="text_6">
      <!-- 125 -->
      <g transform="translate(265.063054 291.410437)scale(0.1 -0.1)">
       <use xlink:href="#DejaVuSans-31"/>
       <use x="63.623047" xlink:href="#DejaVuSans-32"/>
       <use x="127.246094" xlink:href="#DejaVuSans-35"/>
      </g>
     </g>
    </g>
    <g id="xtick_7">
     <g id="line2d_7">
      <g>
       <use style="stroke:#000000;stroke-width:0.8;" x="315.80662" xlink:href="#mec66c4e9b8" y="276.812"/>
      </g>
     </g>
     <g id="text_7">
      <!-- 150 -->
      <g transform="translate(306.26287 291.410437)scale(0.1 -0.1)">
       <use xlink:href="#DejaVuSans-31"/>
       <use x="63.623047" xlink:href="#DejaVuSans-35"/>
       <use x="127.246094" xlink:href="#DejaVuSans-30"/>
      </g>
     </g>
    </g>
    <g id="xtick_8">
     <g id="line2d_8">
      <g>
       <use style="stroke:#000000;stroke-width:0.8;" x="357.006435" xlink:href="#mec66c4e9b8" y="276.812"/>
      </g>
     </g>
     <g id="text_8">
      <!-- 175 -->
      <g transform="translate(347.462685 291.410437)scale(0.1 -0.1)">
       <use xlink:href="#DejaVuSans-31"/>
       <use x="63.623047" xlink:href="#DejaVuSans-37"/>
       <use x="127.246094" xlink:href="#DejaVuSans-35"/>
      </g>
     </g>
    </g>
    <g id="xtick_9">
     <g id="line2d_9">
      <g>
       <use style="stroke:#000000;stroke-width:0.8;" x="398.206251" xlink:href="#mec66c4e9b8" y="276.812"/>
      </g>
     </g>
     <g id="text_9">
      <!-- 200 -->
      <g transform="translate(388.662501 291.410437)scale(0.1 -0.1)">
       <use xlink:href="#DejaVuSans-32"/>
       <use x="63.623047" xlink:href="#DejaVuSans-30"/>
       <use x="127.246094" xlink:href="#DejaVuSans-30"/>
      </g>
     </g>
    </g>
   </g>
   <g id="matplotlib.axis_2">
    <g id="ytick_1">
     <g id="line2d_10">
      <defs>
       <path d="M 0 0 
L -3.5 0 
" id="m7a5b180bdf" style="stroke:#000000;stroke-width:0.8;"/>
      </defs>
      <g>
       <use style="stroke:#000000;stroke-width:0.8;" x="52.375" xlink:href="#m7a5b180bdf" y="264.717868"/>
      </g>
     </g>
     <g id="text_10">
      <!-- 0 -->
      <g transform="translate(39.0125 268.517087)scale(0.1 -0.1)">
       <use xlink:href="#DejaVuSans-30"/>
      </g>
     </g>
    </g>
    <g id="ytick_2">
     <g id="line2d_11">
      <g>
       <use style="stroke:#000000;stroke-width:0.8;" x="52.375" xlink:href="#m7a5b180bdf" y="218.017509"/>
      </g>
     </g>
     <g id="text_11">
      <!-- 50000 -->
      <g transform="translate(13.5625 221.816728)scale(0.1 -0.1)">
       <use xlink:href="#DejaVuSans-35"/>
       <use x="63.623047" xlink:href="#DejaVuSans-30"/>
       <use x="127.246094" xlink:href="#DejaVuSans-30"/>
       <use x="190.869141" xlink:href="#DejaVuSans-30"/>
       <use x="254.492188" xlink:href="#DejaVuSans-30"/>
      </g>
     </g>
    </g>
    <g id="ytick_3">
     <g id="line2d_12">
      <g>
       <use style="stroke:#000000;stroke-width:0.8;" x="52.375" xlink:href="#m7a5b180bdf" y="171.317151"/>
      </g>
     </g>
     <g id="text_12">
      <!-- 100000 -->
      <g transform="translate(7.2 175.116369)scale(0.1 -0.1)">
       <use xlink:href="#DejaVuSans-31"/>
       <use x="63.623047" xlink:href="#DejaVuSans-30"/>
       <use x="127.246094" xlink:href="#DejaVuSans-30"/>
       <use x="190.869141" xlink:href="#DejaVuSans-30"/>
       <use x="254.492188" xlink:href="#DejaVuSans-30"/>
       <use x="318.115234" xlink:href="#DejaVuSans-30"/>
      </g>
     </g>
    </g>
    <g id="ytick_4">
     <g id="line2d_13">
      <g>
       <use style="stroke:#000000;stroke-width:0.8;" x="52.375" xlink:href="#m7a5b180bdf" y="124.616792"/>
      </g>
     </g>
     <g id="text_13">
      <!-- 150000 -->
      <g transform="translate(7.2 128.416011)scale(0.1 -0.1)">
       <use xlink:href="#DejaVuSans-31"/>
       <use x="63.623047" xlink:href="#DejaVuSans-35"/>
       <use x="127.246094" xlink:href="#DejaVuSans-30"/>
       <use x="190.869141" xlink:href="#DejaVuSans-30"/>
       <use x="254.492188" xlink:href="#DejaVuSans-30"/>
       <use x="318.115234" xlink:href="#DejaVuSans-30"/>
      </g>
     </g>
    </g>
    <g id="ytick_5">
     <g id="line2d_14">
      <g>
       <use style="stroke:#000000;stroke-width:0.8;" x="52.375" xlink:href="#m7a5b180bdf" y="77.916433"/>
      </g>
     </g>
     <g id="text_14">
      <!-- 200000 -->
      <g transform="translate(7.2 81.715652)scale(0.1 -0.1)">
       <use xlink:href="#DejaVuSans-32"/>
       <use x="63.623047" xlink:href="#DejaVuSans-30"/>
       <use x="127.246094" xlink:href="#DejaVuSans-30"/>
       <use x="190.869141" xlink:href="#DejaVuSans-30"/>
       <use x="254.492188" xlink:href="#DejaVuSans-30"/>
       <use x="318.115234" xlink:href="#DejaVuSans-30"/>
      </g>
     </g>
    </g>
    <g id="ytick_6">
     <g id="line2d_15">
      <g>
       <use style="stroke:#000000;stroke-width:0.8;" x="52.375" xlink:href="#m7a5b180bdf" y="31.216075"/>
      </g>
     </g>
     <g id="text_15">
      <!-- 250000 -->
      <g transform="translate(7.2 35.015293)scale(0.1 -0.1)">
       <use xlink:href="#DejaVuSans-32"/>
       <use x="63.623047" xlink:href="#DejaVuSans-35"/>
       <use x="127.246094" xlink:href="#DejaVuSans-30"/>
       <use x="190.869141" xlink:href="#DejaVuSans-30"/>
       <use x="254.492188" xlink:href="#DejaVuSans-30"/>
       <use x="318.115234" xlink:href="#DejaVuSans-30"/>
      </g>
     </g>
    </g>
   </g>
   <g id="line2d_16">
    <path clip-path="url(#p27ce55e948)" d="M 68.607727 258.153666 
L 70.25572 264.308773 
L 71.903713 251.890213 
L 73.551705 262.670524 
L 75.199698 260.298146 
L 76.84769 263.309385 
L 78.495683 264.048185 
L 80.143676 262.073694 
L 81.791668 257.250481 
L 83.439661 263.92583 
L 85.087653 233.084913 
L 86.735646 263.344877 
L 88.383639 262.236211 
L 90.031631 258.820547 
L 93.327617 263.909018 
L 94.975609 262.136272 
L 96.623602 259.197886 
L 98.271594 254.012278 
L 99.919587 264.228448 
L 101.56758 261.326488 
L 103.215572 263.21505 
L 104.863565 258.106031 
L 106.511557 254.338246 
L 108.15955 253.852563 
L 109.807543 264.191088 
L 111.455535 261.507685 
L 113.103528 262.423012 
L 114.751521 264.423656 
L 116.399513 252.921357 
L 118.047506 263.346745 
L 119.695498 261.786954 
L 121.343491 260.707241 
L 124.639476 263.72782 
L 126.287469 253.124037 
L 127.935461 258.127513 
L 129.583454 257.303719 
L 131.231447 258.77945 
L 132.879439 264.010825 
L 134.527432 257.558703 
L 136.175425 254.826732 
L 137.823417 259.79098 
L 139.47141 258.058397 
L 141.119402 250.45371 
L 142.767395 257.386846 
L 144.415388 254.982711 
L 146.06338 264.588041 
L 147.711373 261.411483 
L 149.359365 261.687949 
L 151.007358 264.451676 
L 152.655351 261.53197 
L 154.303343 243.175927 
L 155.951336 236.989997 
L 157.599329 259.981518 
L 159.247321 241.748764 
L 160.895314 259.351063 
L 162.543306 257.93791 
L 164.191299 256.250159 
L 165.839292 261.145291 
L 167.487284 264.45261 
L 169.135277 262.245551 
L 170.783269 264.397504 
L 172.431262 263.67178 
L 174.079255 264.012693 
L 175.727247 262.595804 
L 177.37524 261.376924 
L 179.023233 263.084289 
L 180.671225 262.019521 
L 182.319218 250.983293 
L 183.96721 254.955625 
L 185.615203 264.460082 
L 187.263196 260.182329 
L 188.911188 264.007089 
L 190.559181 261.57867 
L 192.207174 258.449746 
L 193.855166 262.17083 
L 195.503159 257.728692 
L 197.151151 247.630207 
L 198.799144 247.631141 
L 200.447137 264.533869 
L 202.095129 264.089281 
L 203.743122 262.93298 
L 205.391114 258.560893 
L 207.039107 263.603597 
L 208.6871 263.71848 
L 210.335092 258.931694 
L 211.983085 264.046317 
L 213.631078 263.233731 
L 215.27907 263.41306 
L 216.927063 261.387198 
L 218.575055 257.22246 
L 220.223048 262.079298 
L 221.871041 262.277307 
L 223.519033 263.61574 
L 225.167026 260.808114 
L 226.815018 262.760189 
L 228.463011 264.110763 
L 230.111004 263.839901 
L 231.758996 264.056591 
L 233.406989 262.952594 
L 235.054982 264.701056 
L 236.702974 259.179205 
L 238.350967 257.582053 
L 239.998959 257.092633 
L 241.646952 255.54872 
L 243.294945 252.505724 
L 244.942937 257.218724 
L 246.59093 245.024327 
L 248.238922 262.68827 
L 249.886915 262.94232 
L 251.534908 260.963159 
L 253.1829 262.197917 
L 254.830893 262.301591 
L 256.478886 262.574322 
L 258.126878 263.895942 
L 259.774871 259.350129 
L 261.422863 264.169606 
L 263.070856 263.668044 
L 264.718849 263.793201 
L 266.366841 258.120975 
L 268.014834 260.812784 
L 269.662826 264.022967 
L 271.310819 260.715647 
L 272.958812 263.976266 
L 274.606804 264.253666 
L 276.254797 264.17521 
L 277.90279 264.329321 
L 279.550782 258.573969 
L 281.198775 264.083677 
L 282.846767 257.014177 
L 284.49476 263.175822 
L 286.142753 264.270479 
L 287.790745 263.784795 
L 289.438738 263.482177 
L 291.086731 263.899678 
L 292.734723 261.924253 
L 294.382716 264.716 
L 296.030708 264.209768 
L 297.678701 261.803766 
L 299.326694 263.99121 
L 300.974686 262.760189 
L 302.622679 263.993078 
L 305.918664 263.863251 
L 307.566657 263.952916 
L 309.214649 258.116305 
L 310.862642 258.094823 
L 312.510635 262.514545 
L 314.158627 261.53197 
L 315.80662 261.797228 
L 317.454612 264.011759 
L 319.102605 264.234986 
L 320.750598 238.894438 
L 322.39859 255.690689 
L 324.046583 262.849854 
L 325.694575 262.856392 
L 327.342568 261.959745 
L 328.990561 244.819779 
L 330.638553 252.375897 
L 332.286546 263.982804 
L 333.934539 264.390031 
L 337.230524 263.088025 
L 338.878516 263.890338 
L 340.526509 258.415188 
L 342.174502 249.55146 
L 343.822494 259.808726 
L 343.822494 259.808726 
" style="fill:none;stroke:#1f77b4;stroke-linecap:square;stroke-width:0.5;"/>
   </g>
   <g id="line2d_17">
    <path clip-path="url(#p27ce55e948)" d="M 68.607727 245.085971 
L 70.25572 247.99914 
L 71.903713 202.583041 
L 73.551705 252.999814 
L 75.199698 259.71626 
L 76.84769 249.101268 
L 78.495683 255.275055 
L 80.143676 263.950114 
L 81.791668 258.683248 
L 83.439661 259.650879 
L 85.087653 263.819353 
L 86.735646 260.795972 
L 88.383639 261.964415 
L 90.031631 261.347036 
L 91.679624 262.159622 
L 93.327617 263.90248 
L 94.975609 253.329519 
L 96.623602 227.271652 
L 98.271594 257.173892 
L 99.919587 263.941708 
L 101.56758 260.767018 
L 103.215572 261.956943 
L 104.863565 245.516549 
L 106.511557 263.528877 
L 108.15955 261.313412 
L 109.807543 262.94232 
L 111.455535 261.418021 
L 113.103528 262.546301 
L 114.751521 262.193247 
L 116.399513 254.426043 
L 118.047506 259.564016 
L 119.695498 263.475638 
L 121.343491 248.990121 
L 122.991484 259.950695 
L 124.639476 264.091149 
L 126.287469 262.798483 
L 127.935461 262.609814 
L 129.583454 261.206935 
L 131.231447 262.992757 
L 132.879439 258.14993 
L 134.527432 263.131924 
L 136.175425 264.180814 
L 137.823417 259.880645 
L 139.47141 264.394702 
L 141.119402 263.200106 
L 142.767395 262.818097 
L 144.415388 264.397504 
L 146.06338 261.191057 
L 147.711373 263.618542 
L 149.359365 263.959454 
L 151.007358 248.871502 
L 152.655351 264.222844 
L 154.303343 264.015495 
L 155.951336 264.057525 
L 157.599329 257.847311 
L 159.247321 264.086479 
L 160.895314 263.689526 
L 162.543306 262.051278 
L 164.191299 263.670846 
L 165.839292 264.24993 
L 167.487284 259.76296 
L 169.135277 263.96786 
L 170.783269 255.268517 
L 172.431262 263.597059 
L 174.079255 264.045383 
L 175.727247 263.801607 
L 177.37524 261.440437 
L 179.023233 262.742443 
L 180.671225 250.883354 
L 182.319218 264.49931 
L 183.96721 260.020746 
L 185.615203 264.364813 
L 187.263196 264.14252 
L 188.911188 263.626014 
L 190.559181 263.242137 
L 192.207174 262.507073 
L 193.855166 264.356407 
L 195.503159 262.328678 
L 197.151151 262.67426 
L 198.799144 260.03102 
L 200.447137 262.227805 
L 202.095129 260.523242 
L 203.743122 262.186709 
L 205.391114 259.419245 
L 207.039107 264.096753 
L 210.335092 264.614193 
L 211.983085 261.044418 
L 213.631078 263.91649 
L 215.27907 258.219046 
L 216.927063 262.670524 
L 218.575055 264.000551 
L 220.223048 261.303138 
L 221.871041 261.356376 
L 223.519033 257.846377 
L 225.167026 262.107318 
L 226.815018 264.355473 
L 228.463011 263.675516 
L 230.111004 263.933302 
L 231.758996 263.529811 
L 233.406989 261.61136 
L 235.054982 262.388454 
L 236.702974 262.959133 
L 238.350967 263.392512 
L 239.998959 263.117914 
L 241.646952 260.690429 
L 243.294945 261.970953 
L 244.942937 260.128157 
L 246.59093 263.857647 
L 248.238922 262.911498 
L 249.886915 264.169606 
L 251.534908 262.521083 
L 253.1829 262.273571 
L 254.830893 263.841769 
L 256.478886 263.702602 
L 258.126878 263.069345 
L 259.774871 260.939809 
L 261.422863 259.875975 
L 263.070856 264.188286 
L 264.718849 263.037589 
L 266.366841 261.078042 
L 268.014834 260.088928 
L 269.662826 251.290581 
L 271.310819 260.339242 
L 272.958812 262.462241 
L 274.606804 264.387229 
L 276.254797 261.252701 
L 277.90279 262.626626 
L 279.550782 252.422598 
L 281.198775 252.487044 
L 282.846767 264.232184 
L 284.49476 259.429519 
L 286.142753 264.2079 
L 287.790745 263.087091 
L 289.438738 262.109186 
L 291.086731 263.816551 
L 292.734723 254.919199 
L 294.382716 261.985897 
L 296.030708 263.998682 
L 297.678701 257.405526 
L 299.326694 261.984029 
L 300.974686 262.610748 
L 302.622679 262.097044 
L 304.270671 264.177078 
L 305.918664 262.365104 
L 307.566657 248.090672 
L 309.214649 264.439534 
L 310.862642 262.83491 
L 312.510635 263.471902 
L 315.80662 263.584917 
L 317.454612 262.220333 
L 319.102605 263.452288 
L 320.750598 262.843316 
L 322.39859 263.889404 
L 324.046583 264.357341 
L 325.694575 260.798774 
L 327.342568 261.008926 
L 328.990561 263.693262 
L 332.286546 262.791011 
L 333.934539 263.666176 
L 335.582531 264.202296 
L 337.230524 264.317179 
L 338.878516 263.106706 
L 340.526509 262.466911 
L 342.174502 260.435445 
L 343.822494 260.929535 
L 345.470487 264.061261 
L 347.118479 261.544112 
L 348.766472 263.781993 
L 350.414465 262.768595 
L 352.062457 254.947219 
L 353.71045 264.582437 
L 355.358443 264.044449 
L 357.006435 263.837099 
L 358.654428 261.561858 
L 360.30242 263.738094 
L 361.950413 262.189511 
L 363.598406 256.39026 
L 365.246398 263.774521 
L 366.894391 261.886892 
L 368.542383 249.865286 
L 370.190376 262.892818 
L 371.838369 263.568105 
L 373.486361 263.20104 
L 375.134354 255.284396 
L 376.782347 264.063129 
L 378.430339 262.102648 
L 380.078332 263.691394 
L 381.726324 263.772653 
L 383.374317 262.236211 
L 385.02231 259.272606 
L 386.670302 261.862608 
L 388.318295 261.105128 
L 389.966287 262.634098 
L 389.966287 262.634098 
" style="fill:none;stroke:#ff7f0e;stroke-linecap:square;stroke-width:0.5;"/>
   </g>
   <g id="line2d_18">
    <path clip-path="url(#p27ce55e948)" d="M 68.607727 257.413932 
L 70.25572 255.955013 
L 71.903713 260.735261 
L 73.551705 261.81404 
L 75.199698 258.108833 
L 76.84769 261.549716 
L 78.495683 261.265778 
L 80.143676 249.56547 
L 81.791668 251.808955 
L 83.439661 258.967186 
L 85.087653 240.623285 
L 86.735646 255.684151 
L 88.383639 245.319473 
L 90.031631 259.854493 
L 91.679624 247.859973 
L 93.327617 253.131509 
L 94.975609 257.142136 
L 96.623602 263.074949 
L 98.271594 248.213027 
L 99.919587 262.835844 
L 101.56758 260.079588 
L 103.215572 258.823349 
L 104.863565 250.662928 
L 106.511557 258.656161 
L 108.15955 251.571717 
L 109.807543 264.318113 
L 111.455535 262.588332 
L 113.103528 261.451645 
L 114.751521 256.68167 
L 116.399513 257.134664 
L 118.047506 260.650267 
L 119.695498 262.588332 
L 121.343491 264.205098 
L 122.991484 262.875072 
L 124.639476 262.254891 
L 126.287469 263.761445 
L 127.935461 259.930147 
L 129.583454 263.456024 
L 131.231447 259.318373 
L 132.879439 259.842351 
L 134.527432 259.22684 
L 136.175425 260.852012 
L 137.823417 258.21531 
L 139.47141 262.913366 
L 141.119402 260.051568 
L 142.767395 259.592037 
L 144.415388 258.064001 
L 146.06338 262.408068 
L 147.711373 256.833913 
L 149.359365 257.573647 
L 151.007358 264.421788 
L 152.655351 258.992404 
L 154.303343 259.778838 
L 155.951336 259.860097 
L 157.599329 258.015433 
L 159.247321 263.336471 
L 160.895314 252.442212 
L 164.191299 262.792879 
L 165.839292 260.458795 
L 167.487284 263.940774 
L 169.135277 262.186709 
L 170.783269 260.796906 
L 172.431262 260.692297 
L 174.079255 263.95385 
L 175.727247 258.969988 
L 177.37524 262.792879 
L 179.023233 261.729979 
L 180.671225 258.500182 
L 182.319218 263.156208 
L 183.96721 263.624146 
L 185.615203 262.028861 
L 187.263196 259.707854 
L 188.911188 260.880967 
L 190.559181 263.680186 
L 192.207174 261.643116 
L 195.503159 258.500182 
L 197.151151 263.396248 
L 198.799144 261.984963 
L 200.447137 260.081456 
L 202.095129 264.032307 
L 203.743122 257.959392 
L 205.391114 256.467783 
L 207.039107 263.030117 
L 208.6871 263.748369 
L 210.335092 262.218465 
L 211.983085 261.046286 
L 213.631078 255.238629 
L 215.27907 263.919292 
L 216.927063 257.41113 
L 218.575055 255.691623 
L 220.223048 262.241815 
L 221.871041 251.89395 
L 223.519033 253.3043 
L 225.167026 259.673295 
L 226.815018 260.998651 
L 228.463011 259.583631 
L 230.111004 259.23618 
L 231.758996 262.672392 
L 233.406989 263.508329 
L 235.054982 262.899356 
L 236.702974 260.618511 
L 238.350967 262.557509 
L 239.998959 264.176144 
L 241.646952 253.448137 
L 243.294945 260.857616 
L 244.942937 258.700994 
L 246.59093 262.841448 
L 248.238922 259.239916 
L 249.886915 263.348613 
L 251.534908 255.469329 
L 253.1829 263.767983 
L 254.830893 259.594839 
L 256.478886 263.296309 
L 258.126878 253.395833 
L 259.774871 262.311866 
L 261.422863 260.756744 
L 263.070856 263.884734 
L 264.718849 263.137528 
L 266.366841 260.094533 
L 268.014834 261.810304 
L 269.662826 262.776067 
L 271.310819 263.095498 
L 272.958812 261.116336 
L 274.606804 261.419889 
L 276.254797 259.683569 
L 277.90279 261.281656 
L 279.550782 262.330546 
L 281.198775 261.807502 
L 282.846767 261.413351 
L 284.49476 257.483048 
L 286.142753 259.225906 
L 287.790745 262.592068 
L 289.438738 263.760511 
L 291.086731 262.388454 
L 292.734723 262.299723 
L 294.382716 260.993981 
L 296.030708 263.679252 
L 297.678701 257.003903 
L 299.326694 264.565625 
L 300.974686 261.221879 
L 302.622679 263.08896 
L 304.270671 263.391578 
L 305.918664 264.228448 
L 307.566657 261.328356 
L 309.214649 263.559699 
L 310.862642 262.964737 
L 312.510635 263.275761 
L 314.158627 263.057203 
L 315.80662 263.562501 
L 317.454612 263.765181 
L 319.102605 260.052502 
L 320.750598 260.74647 
L 322.39859 262.583662 
L 324.046583 258.181686 
L 325.694575 259.630331 
L 327.342568 263.753973 
L 328.990561 261.465655 
L 330.638553 262.722829 
L 332.286546 257.275699 
L 333.934539 262.032597 
L 335.582531 261.284458 
L 337.230524 262.989955 
L 338.878516 260.984641 
L 340.526509 261.01453 
L 342.174502 259.517316 
L 343.822494 255.038752 
L 345.470487 263.9305 
L 347.118479 261.108864 
L 348.766472 263.368228 
L 350.414465 261.477797 
L 352.062457 263.827759 
L 353.71045 263.290705 
L 355.358443 261.539442 
L 357.006435 254.970569 
L 358.654428 253.063327 
L 360.30242 257.731494 
L 363.598406 262.621022 
L 365.246398 254.720255 
L 366.894391 226.91206 
L 368.542383 221.782492 
L 370.190376 251.308327 
L 371.838369 257.630622 
L 373.486361 260.33177 
L 375.134354 262.182973 
L 376.782347 250.593812 
L 378.430339 261.348904 
L 380.078332 262.348292 
L 381.726324 233.019533 
L 383.374317 239.987226 
L 385.02231 242.007484 
L 386.670302 244.606826 
L 388.318295 235.708539 
L 389.966287 260.258918 
L 389.966287 260.258918 
" style="fill:none;stroke:#2ca02c;stroke-linecap:square;stroke-width:0.5;"/>
   </g>
   <g id="line2d_19">
    <path clip-path="url(#p27ce55e948)" d="M 68.607727 257.011375 
L 70.25572 238.580611 
L 71.903713 264.011759 
L 73.551705 252.15267 
L 75.199698 261.050022 
L 76.84769 260.017944 
L 78.495683 259.773234 
L 83.439661 261.09859 
L 85.087653 258.259208 
L 86.735646 258.572101 
L 88.383639 261.715035 
L 90.031631 261.369452 
L 91.679624 258.815877 
L 93.327617 264.140652 
L 94.975609 261.565594 
L 96.623602 261.3433 
L 98.271594 262.381916 
L 99.919587 256.383722 
L 101.56758 260.347648 
L 103.215572 260.852012 
L 104.863565 260.53445 
L 106.511557 261.054692 
L 108.15955 260.790368 
L 109.807543 262.873204 
L 111.455535 260.22436 
L 113.103528 259.835813 
L 114.751521 259.968442 
L 116.399513 260.446653 
L 118.047506 263.716612 
L 119.695498 250.18098 
L 121.343491 260.911789 
L 122.991484 264.16587 
L 124.639476 264.045383 
L 126.287469 262.325876 
L 127.935461 259.592037 
L 129.583454 259.775102 
L 131.231447 261.642182 
L 132.879439 257.585789 
L 134.527432 262.412738 
L 136.175425 255.929795 
L 137.823417 258.192894 
L 139.47141 261.37132 
L 141.119402 259.334251 
L 142.767395 259.281946 
L 144.415388 256.497671 
L 146.06338 252.968058 
L 147.711373 258.828019 
L 149.359365 259.151185 
L 151.007358 256.691944 
L 152.655351 257.543759 
L 154.303343 259.104485 
L 155.951336 260.490552 
L 157.599329 260.589556 
L 159.247321 263.892206 
L 160.895314 261.165839 
L 162.543306 256.050281 
L 164.191299 260.611038 
L 165.839292 263.419598 
L 167.487284 258.798131 
L 169.135277 260.166451 
L 170.783269 253.52099 
L 172.431262 263.679252 
L 174.079255 257.746438 
L 175.727247 263.157142 
L 179.023233 261.465655 
L 180.671225 261.913978 
L 182.319218 253.678837 
L 183.96721 263.228127 
L 185.615203 257.582053 
L 187.263196 261.585208 
L 188.911188 263.068411 
L 190.559181 254.863158 
L 192.207174 254.404561 
L 193.855166 262.414606 
L 195.503159 263.271091 
L 197.151151 256.966542 
L 198.799144 263.327131 
L 200.447137 258.773846 
L 202.095129 262.506139 
L 203.743122 257.579251 
L 205.391114 263.490583 
L 207.039107 261.279788 
L 208.6871 262.171764 
L 211.983085 261.119138 
L 213.631078 263.096432 
L 215.27907 260.864154 
L 216.927063 261.166773 
L 218.575055 262.974077 
L 220.223048 256.824573 
L 221.871041 260.731525 
L 223.519033 258.020103 
L 225.167026 263.961322 
L 226.815018 264.15186 
L 228.463011 260.075852 
L 230.111004 261.909308 
L 231.758996 261.088316 
L 233.406989 258.625339 
L 235.054982 259.371611 
L 236.702974 264.260204 
L 238.350967 258.391837 
L 239.998959 263.519537 
L 241.646952 258.433868 
L 243.294945 261.04722 
L 244.942937 263.178624 
L 246.59093 259.876909 
L 248.238922 260.08706 
L 249.886915 261.401209 
L 251.534908 258.302173 
L 253.1829 261.348904 
L 254.830893 257.475576 
L 256.478886 263.054401 
L 258.126878 264.054723 
L 259.774871 262.911498 
L 261.422863 262.314668 
L 263.070856 261.325554 
L 264.718849 261.850466 
L 268.014834 263.714744 
L 269.662826 259.667691 
L 271.310819 263.393446 
L 272.958812 259.133439 
L 274.606804 259.919873 
L 276.254797 260.464399 
L 277.90279 261.520761 
L 279.550782 258.970922 
L 281.198775 259.101683 
L 282.846767 262.069958 
L 284.49476 261.675807 
L 286.142753 263.811881 
L 287.790745 262.164292 
L 289.438738 261.923319 
L 291.086731 261.897166 
L 292.734723 259.866635 
L 294.382716 257.061811 
L 296.030708 260.978103 
L 297.678701 261.091118 
L 299.326694 261.349838 
L 300.974686 261.953207 
L 302.622679 261.255503 
L 304.270671 260.019812 
L 305.918664 259.164261 
L 307.566657 260.046898 
L 309.214649 260.481211 
L 310.862642 262.88161 
L 312.510635 261.573066 
L 314.158627 263.780125 
L 315.80662 260.481211 
L 317.454612 248.895786 
L 319.102605 262.498667 
L 320.750598 261.722507 
L 322.39859 261.966283 
L 324.046583 262.035399 
L 325.694575 263.892206 
L 327.342568 259.138109 
L 328.990561 264.020165 
L 330.638553 262.376312 
L 332.286546 264.241524 
L 333.934539 264.083677 
L 335.582531 261.787888 
L 337.230524 260.757678 
L 338.878516 263.144066 
L 340.526509 257.096369 
L 342.174502 260.926733 
L 343.822494 262.123196 
L 345.470487 263.586785 
L 347.118479 261.984963 
L 348.766472 258.700994 
L 350.414465 263.206644 
L 352.062457 261.743055 
L 353.71045 260.619445 
L 355.358443 263.11698 
L 357.006435 262.777001 
L 358.654428 263.020777 
L 360.30242 263.397182 
L 361.950413 259.931081 
L 363.598406 262.67426 
L 365.246398 262.397794 
L 366.894391 260.253314 
L 368.542383 252.290903 
L 370.190376 254.582022 
L 371.838369 258.877521 
L 373.486361 259.202556 
L 375.134354 251.600671 
L 376.782347 258.603857 
L 378.430339 257.936042 
L 380.078332 251.817361 
L 381.726324 260.279466 
L 383.374317 261.018266 
L 385.02231 258.697258 
L 386.670302 260.314958 
L 388.318295 252.979266 
L 389.966287 255.588882 
L 389.966287 255.588882 
" style="fill:none;stroke:#d62728;stroke-linecap:square;stroke-width:0.5;"/>
   </g>
   <g id="line2d_20">
    <path clip-path="url(#p27ce55e948)" d="M 68.607727 256.072698 
L 70.25572 257.936976 
L 71.903713 262.770463 
L 73.551705 257.090765 
L 75.199698 257.513871 
L 76.84769 248.06452 
L 78.495683 253.295894 
L 80.143676 247.797394 
L 81.791668 250.244493 
L 83.439661 257.086095 
L 85.087653 248.908863 
L 86.735646 252.999814 
L 88.383639 260.065578 
L 90.031631 257.681058 
L 91.679624 262.816229 
L 93.327617 255.597288 
L 94.975609 249.217085 
L 96.623602 256.285651 
L 98.271594 262.42955 
L 99.919587 260.674551 
L 101.56758 256.236149 
L 103.215572 255.685085 
L 104.863565 258.517928 
L 106.511557 231.829607 
L 108.15955 252.672912 
L 109.807543 261.772009 
L 111.455535 245.804223 
L 113.103528 264.169606 
L 114.751521 259.202556 
L 116.399513 255.116274 
L 118.047506 258.42733 
L 119.695498 235.019242 
L 121.343491 262.208191 
L 122.991484 258.148996 
L 124.639476 263.560633 
L 126.287469 256.744249 
L 127.935461 262.557509 
L 129.583454 252.544953 
L 131.231447 262.890016 
L 132.879439 262.514545 
L 134.527432 257.649302 
L 136.175425 263.017975 
L 137.823417 254.535322 
L 139.47141 255.815846 
L 141.119402 252.501054 
L 142.767395 260.610104 
L 144.415388 257.066481 
L 146.06338 264.168672 
L 147.711373 263.619476 
L 149.359365 252.154538 
L 151.007358 263.402786 
L 152.655351 262.846118 
L 154.303343 252.672912 
L 155.951336 264.094885 
L 157.599329 259.383753 
L 159.247321 253.429457 
L 160.895314 263.71848 
L 162.543306 262.324008 
L 164.191299 254.676357 
L 165.839292 263.786663 
L 167.487284 256.013855 
L 169.135277 261.584274 
L 170.783269 256.960004 
L 174.079255 254.808986 
L 175.727247 256.08484 
L 177.37524 254.951889 
L 179.023233 247.182817 
L 180.671225 262.006445 
L 182.319218 257.023517 
L 183.96721 257.754845 
L 185.615203 257.044999 
L 187.263196 262.297855 
L 188.911188 262.033531 
L 190.559181 262.987153 
L 192.207174 256.280047 
L 193.855166 253.157661 
L 195.503159 257.902418 
L 197.151151 259.399631 
L 198.799144 260.648399 
L 200.447137 256.708757 
L 202.095129 256.536899 
L 203.743122 263.448552 
L 205.391114 260.207547 
L 207.039107 261.542244 
L 208.6871 262.079298 
L 210.335092 264.545077 
L 211.983085 257.856651 
L 213.631078 253.919811 
L 215.27907 262.225003 
L 216.927063 263.242137 
L 218.575055 262.196983 
L 220.223048 246.265622 
L 221.871041 238.275191 
L 223.519033 245.201788 
L 225.167026 262.067156 
L 226.815018 249.797103 
L 228.463011 251.100043 
L 230.111004 139.416136 
L 231.758996 140.73869 
L 233.406989 246.937173 
L 235.054982 260.509232 
L 236.702974 256.780675 
L 238.350967 263.863251 
L 239.998959 259.394027 
L 241.646952 263.031985 
L 243.294945 262.356698 
L 246.59093 263.527943 
L 248.238922 261.397473 
L 249.886915 128.851581 
L 251.534908 232.854213 
L 253.1829 264.22658 
L 254.830893 262.087704 
L 256.478886 251.715554 
L 258.126878 230.136252 
L 259.774871 259.052181 
L 261.422863 239.045747 
L 263.070856 232.143434 
L 264.718849 249.6075 
L 266.366841 257.788469 
L 268.014834 256.972147 
L 269.662826 254.872498 
L 271.310819 263.62508 
L 272.958812 262.074628 
L 274.606804 258.899003 
L 276.254797 160.420089 
L 277.90279 262.916168 
L 279.550782 146.191424 
L 281.198775 263.20104 
L 282.846767 263.682054 
L 284.49476 264.441402 
L 286.142753 260.29908 
L 287.790745 257.3691 
L 289.438738 254.770692 
L 292.734723 248.071992 
L 294.382716 259.956299 
L 296.030708 250.528431 
L 297.678701 253.625599 
L 299.326694 260.626917 
L 300.974686 241.519932 
L 302.622679 263.507395 
L 304.270671 251.468976 
L 305.918664 256.316473 
L 307.566657 254.648337 
L 309.214649 251.562377 
L 310.862642 246.345013 
L 312.510635 249.129288 
L 314.158627 263.136594 
L 315.80662 248.04584 
L 317.454612 261.192925 
L 319.102605 259.852625 
L 320.750598 225.825809 
L 322.39859 236.834018 
L 324.046583 262.511743 
L 325.694575 260.899647 
L 327.342568 260.391547 
L 328.990561 249.312354 
L 330.638553 258.689786 
L 332.286546 239.824709 
L 333.934539 260.075852 
L 335.582531 242.046712 
L 337.230524 259.76296 
L 338.878516 258.966252 
L 340.526509 261.331158 
L 342.174502 240.646635 
L 343.822494 264.153728 
L 345.470487 249.764413 
L 347.118479 254.229901 
L 348.766472 259.649011 
L 350.414465 256.458443 
L 352.062457 254.412967 
L 353.71045 261.829918 
L 355.358443 252.19003 
L 357.006435 256.267905 
L 358.654428 252.967124 
L 360.30242 256.66766 
L 361.950413 251.40453 
L 363.598406 257.339211 
L 365.246398 249.963357 
L 366.894391 263.14967 
L 368.542383 260.856682 
L 370.190376 246.009704 
L 371.838369 262.938584 
L 373.486361 261.672071 
L 375.134354 249.84287 
L 376.782347 233.500546 
L 378.430339 244.320085 
L 380.078332 264.512386 
L 381.726324 257.469972 
L 383.374317 255.631846 
L 385.02231 242.900394 
L 386.670302 255.263847 
L 388.318295 261.984963 
L 388.318295 261.984963 
" style="fill:none;stroke:#9467bd;stroke-linecap:square;stroke-width:0.5;"/>
   </g>
   <g id="line2d_21">
    <path clip-path="url(#p27ce55e948)" d="M 68.607727 262.953528 
L 70.25572 262.094242 
L 71.903713 261.756131 
L 73.551705 231.908064 
L 75.199698 264.474092 
L 76.84769 238.192998 
L 78.495683 262.026059 
L 80.143676 239.022397 
L 81.791668 249.741997 
L 83.439661 259.112891 
L 85.087653 261.927055 
L 86.735646 259.762026 
L 88.383639 262.309064 
L 90.031631 261.353574 
L 93.327617 238.405018 
L 94.975609 260.649333 
L 96.623602 247.887993 
L 98.271594 232.640326 
L 99.919587 256.403336 
L 101.56758 246.340343 
L 103.215572 263.561567 
L 104.863565 257.572713 
L 106.511557 261.815908 
L 108.15955 262.559377 
L 109.807543 250.191254 
L 111.455535 255.320822 
L 113.103528 258.200366 
L 114.751521 242.923745 
L 116.399513 245.679066 
L 118.047506 257.45316 
L 119.695498 253.532198 
L 121.343491 262.303459 
L 122.991484 261.200397 
L 124.639476 254.345718 
L 126.287469 264.148124 
L 127.935461 263.425202 
L 129.583454 257.836103 
L 131.231447 260.112279 
L 132.879439 262.819965 
L 134.527432 263.494319 
L 136.175425 254.299952 
L 137.823417 251.312997 
L 139.47141 263.20571 
L 141.119402 262.843316 
L 142.767395 263.226259 
L 144.415388 260.570876 
L 146.06338 256.474321 
L 147.711373 259.890919 
L 149.359365 260.753942 
L 151.007358 260.528846 
L 152.655351 252.672912 
L 154.303343 256.239885 
L 155.951336 253.296828 
L 157.599329 259.377215 
L 159.247321 201.391248 
L 160.895314 262.225003 
L 162.543306 263.786663 
L 164.191299 264.164002 
L 165.839292 256.880614 
L 169.135277 260.846408 
L 170.783269 263.443882 
L 172.431262 260.76048 
L 174.079255 263.813749 
L 175.727247 254.712783 
L 177.37524 226.738334 
L 179.023233 258.99614 
L 180.671225 253.55368 
L 182.319218 261.951339 
L 183.96721 248.895786 
L 185.615203 243.61958 
L 188.911188 263.610136 
L 190.559181 257.249547 
L 192.207174 255.016336 
L 193.855166 256.87034 
L 195.503159 232.67395 
L 197.151151 246.848443 
L 198.799144 255.207807 
L 200.447137 260.186999 
L 202.095129 256.669528 
L 203.743122 255.662668 
L 205.391114 259.47622 
L 207.039107 264.412448 
L 208.6871 259.645275 
L 210.335092 257.19911 
L 211.983085 262.393124 
L 213.631078 264.238722 
L 215.27907 261.969085 
L 216.927063 261.723441 
L 218.575055 259.516382 
L 220.223048 260.80718 
L 221.871041 220.808323 
L 223.519033 264.164002 
L 225.167026 260.655871 
L 226.815018 254.669819 
L 228.463011 260.574612 
L 230.111004 258.130315 
L 231.758996 261.844862 
L 233.406989 261.191057 
L 235.054982 259.449134 
L 236.702974 259.20816 
L 238.350967 258.587979 
L 239.998959 254.401759 
L 241.646952 254.587626 
L 243.294945 253.158595 
L 244.942937 257.775393 
L 246.59093 252.869987 
L 248.238922 261.5273 
L 249.886915 259.995528 
L 251.534908 261.190123 
L 253.1829 264.41525 
L 254.830893 263.003031 
L 256.478886 253.251996 
L 258.126878 263.244939 
L 259.774871 261.151829 
L 261.422863 259.478088 
L 263.070856 257.422338 
L 264.718849 262.343622 
L 266.366841 263.772653 
L 268.014834 258.899003 
L 269.662826 263.45976 
L 271.310819 258.442274 
L 272.958812 259.565884 
L 274.606804 263.687658 
L 276.254797 263.045061 
L 277.90279 257.528815 
L 279.550782 263.551293 
L 281.198775 262.587398 
L 282.846767 259.548138 
L 284.49476 258.564629 
L 286.142753 262.343622 
L 287.790745 260.358857 
L 289.438738 262.882544 
L 291.086731 238.132288 
L 292.734723 251.21119 
L 294.382716 255.395542 
L 296.030708 262.945122 
L 297.678701 257.642764 
L 299.326694 255.690689 
L 300.974686 252.325461 
L 302.622679 260.085192 
L 304.270671 259.275408 
L 305.918664 263.481243 
L 307.566657 258.46936 
L 309.214649 262.578992 
L 310.862642 261.619766 
L 312.510635 262.769529 
L 314.158627 262.397794 
L 315.80662 262.242749 
L 317.454612 261.735583 
L 319.102605 262.891884 
L 320.750598 259.641539 
L 322.39859 259.817132 
L 324.046583 258.989602 
L 325.694575 247.643283 
L 327.342568 262.295053 
L 328.990561 257.912692 
L 330.638553 263.20571 
L 332.286546 262.666788 
L 333.934539 262.692006 
L 335.582531 251.640834 
L 337.230524 262.263297 
L 338.878516 261.738385 
L 340.526509 264.100489 
L 342.174502 260.559668 
L 343.822494 258.475898 
L 345.470487 254.206551 
L 347.118479 248.135505 
L 348.766472 259.797518 
L 350.414465 261.63004 
L 352.062457 264.178012 
L 353.71045 262.125064 
L 355.358443 261.705695 
L 357.006435 253.767568 
L 358.654428 260.817454 
L 360.30242 263.008635 
L 361.950413 263.702602 
L 363.598406 259.869437 
L 365.246398 264.387229 
L 366.894391 261.938263 
L 368.542383 260.512968 
L 370.190376 217.271238 
L 371.838369 263.167416 
L 373.486361 263.206644 
L 375.134354 254.205617 
L 376.782347 264.13785 
L 378.430339 263.122584 
L 380.078332 261.943867 
L 381.726324 263.323395 
L 381.726324 263.323395 
" style="fill:none;stroke:#8c564b;stroke-linecap:square;stroke-width:0.5;"/>
   </g>
   <g id="line2d_22">
    <path clip-path="url(#p27ce55e948)" d="M 68.607727 248.116825 
L 70.25572 262.692006 
L 71.903713 261.710365 
L 73.551705 259.397763 
L 75.199698 259.266068 
L 76.84769 260.149639 
L 78.495683 263.286969 
L 80.143676 264.289159 
L 81.791668 264.260204 
L 83.439661 240.648503 
L 85.087653 264.014561 
L 86.735646 257.73523 
L 88.383639 256.068028 
L 90.031631 260.151507 
L 91.679624 257.507333 
L 93.327617 263.336471 
L 94.975609 263.678318 
L 96.623602 261.030408 
L 98.271594 251.63523 
L 99.919587 260.813718 
L 101.56758 262.295987 
L 103.215572 262.265165 
L 104.863565 258.600121 
L 106.511557 263.789465 
L 108.15955 263.456958 
L 109.807543 235.376967 
L 111.455535 258.240528 
L 113.103528 250.142686 
L 114.751521 261.997105 
L 116.399513 254.818326 
L 118.047506 246.704606 
L 119.695498 254.704377 
L 121.343491 259.045642 
L 122.991484 260.842672 
L 124.639476 255.361918 
L 126.287469 255.662668 
L 127.935461 253.411711 
L 129.583454 263.813749 
L 131.231447 263.765181 
L 132.879439 255.84947 
L 134.527432 262.363236 
L 136.175425 262.652778 
L 137.823417 255.813978 
L 139.47141 263.61574 
L 141.119402 264.096753 
L 142.767395 258.128447 
L 144.415388 261.505817 
L 146.06338 259.968442 
L 147.711373 259.065257 
L 149.359365 259.633133 
L 151.007358 256.393996 
L 152.655351 262.782605 
L 154.303343 257.614743 
L 155.951336 259.351063 
L 157.599329 261.86541 
L 159.247321 259.381885 
L 160.895314 263.172086 
L 162.543306 251.684732 
L 164.191299 263.434542 
L 165.839292 246.20678 
L 167.487284 238.098664 
L 169.135277 261.737451 
L 170.783269 257.826763 
L 172.431262 250.441568 
L 174.079255 258.978394 
L 175.727247 252.435674 
L 177.37524 260.738997 
L 179.023233 245.596873 
L 180.671225 260.02168 
L 182.319218 263.591455 
L 183.96721 263.616674 
L 185.615203 257.046867 
L 187.263196 247.33039 
L 188.911188 261.866344 
L 190.559181 263.169284 
L 192.207174 262.488393 
L 193.855166 263.031051 
L 195.503159 249.448719 
L 197.151151 263.351416 
L 198.799144 258.377827 
L 200.447137 250.845993 
L 202.095129 262.15215 
L 203.743122 262.06809 
L 205.391114 255.937267 
L 207.039107 261.59268 
L 208.6871 263.000229 
L 210.335092 219.878052 
L 211.983085 257.002969 
L 213.631078 261.146225 
L 215.27907 245.145748 
L 216.927063 237.634462 
L 218.575055 260.014208 
L 220.223048 263.592389 
L 221.871041 257.41113 
L 223.519033 258.648689 
L 225.167026 223.973673 
L 226.815018 255.3367 
L 228.463011 248.254124 
L 230.111004 253.967445 
L 231.758996 255.738323 
L 233.406989 261.988699 
L 235.054982 260.996783 
L 236.702974 235.026714 
L 238.350967 262.958198 
L 239.998959 259.649011 
L 241.646952 244.541445 
L 243.294945 258.885927 
L 244.942937 243.509367 
L 246.59093 262.416474 
L 248.238922 261.760801 
L 249.886915 247.709597 
L 251.534908 255.28066 
L 253.1829 262.085836 
L 254.830893 263.630684 
L 256.478886 245.555777 
L 258.126878 256.566787 
L 259.774871 261.260173 
L 261.422863 262.781671 
L 263.070856 252.940972 
L 264.718849 259.866635 
L 266.366841 262.927376 
L 268.014834 263.119782 
L 269.662826 246.508464 
L 271.310819 263.984672 
L 272.958812 262.890016 
L 274.606804 260.632521 
L 276.254797 262.171764 
L 277.90279 254.011344 
L 279.550782 261.180783 
L 281.198775 252.955916 
L 282.846767 255.345106 
L 284.49476 256.474321 
L 286.142753 255.102264 
L 287.790745 255.760739 
L 289.438738 250.6704 
L 291.086731 263.964124 
L 292.734723 262.779803 
L 294.382716 263.852043 
L 296.030708 237.784837 
L 297.678701 251.682864 
L 299.326694 254.731463 
L 300.974686 261.859806 
L 302.622679 261.866344 
L 304.270671 259.325845 
L 305.918664 259.535062 
L 307.566657 262.183907 
L 309.214649 251.014115 
L 310.862642 262.386586 
L 312.510635 257.210318 
L 314.158627 238.971026 
L 315.80662 263.69513 
L 317.454612 261.401209 
L 319.102605 251.936914 
L 320.750598 230.719073 
L 322.39859 236.510851 
L 324.046583 262.562179 
L 325.694575 230.56683 
L 327.342568 262.223135 
L 328.990561 261.38533 
L 330.638553 257.237405 
L 332.286546 263.852977 
L 333.934539 263.239335 
L 335.582531 263.755841 
L 337.230524 254.535322 
L 338.878516 263.035721 
L 340.526509 252.636485 
L 342.174502 259.0335 
L 343.822494 262.703215 
L 345.470487 260.818388 
L 347.118479 258.191026 
L 348.766472 249.949347 
L 350.414465 255.166711 
L 352.062457 212.188371 
L 353.71045 262.376312 
L 355.358443 259.459408 
L 357.006435 261.840192 
L 360.30242 240.367367 
L 361.950413 244.833789 
L 363.598406 210.058834 
L 365.246398 202.133783 
L 366.894391 230.134384 
L 368.542383 249.901712 
L 370.190376 240.168423 
L 371.838369 246.472972 
L 373.486361 231.966906 
L 375.134354 248.342854 
L 376.782347 240.600869 
L 378.430339 249.0527 
L 380.078332 237.370138 
L 381.726324 262.587398 
L 383.374317 263.398116 
L 385.02231 262.533225 
L 386.670302 256.839518 
L 388.318295 255.88216 
L 389.966287 221.735792 
L 391.61428 249.639256 
L 391.61428 249.639256 
" style="fill:none;stroke:#e377c2;stroke-linecap:square;stroke-width:0.5;"/>
   </g>
   <g id="line2d_23">
    <path clip-path="url(#p27ce55e948)" d="M 68.607727 247.848764 
L 70.25572 245.276509 
L 71.903713 256.248291 
L 73.551705 263.45042 
L 75.199698 253.802126 
L 76.84769 261.714101 
L 78.495683 260.172055 
L 80.143676 262.536961 
L 81.791668 262.715357 
L 83.439661 249.319826 
L 85.087653 261.761735 
L 86.735646 263.707272 
L 88.383639 262.824635 
L 90.031631 257.579251 
L 91.679624 262.395926 
L 93.327617 262.734037 
L 94.975609 242.422183 
L 96.623602 263.792267 
L 98.271594 262.773265 
L 99.919587 263.120716 
L 101.56758 245.233544 
L 103.215572 236.886322 
L 104.863565 263.504593 
L 106.511557 260.447587 
L 108.15955 261.33396 
L 109.807543 263.091762 
L 111.455535 264.359209 
L 113.103528 264.21724 
L 114.751521 262.855458 
L 116.399513 243.921264 
L 118.047506 260.147771 
L 119.695498 263.471902 
L 121.343491 264.408712 
L 122.991484 258.6627 
L 124.639476 256.293123 
L 126.287469 262.173632 
L 127.935461 263.946378 
L 129.583454 258.26201 
L 131.231447 256.66766 
L 132.879439 246.285236 
L 134.527432 240.090901 
L 136.175425 259.424849 
L 137.823417 257.814621 
L 139.47141 262.746179 
L 141.119402 259.128769 
L 142.767395 261.740253 
L 144.415388 262.455703 
L 146.06338 263.866053 
L 147.711373 258.969988 
L 149.359365 255.483339 
L 151.007358 261.30594 
L 152.655351 259.47155 
L 154.303343 261.159301 
L 155.951336 260.738063 
L 157.599329 257.282237 
L 159.247321 259.145581 
L 160.895314 258.329259 
L 162.543306 257.304653 
L 164.191299 259.799386 
L 165.839292 262.807823 
L 167.487284 263.442014 
L 169.135277 261.170509 
L 170.783269 259.997396 
L 172.431262 262.276373 
L 174.079255 261.456315 
L 175.727247 258.265746 
L 177.37524 254.815524 
L 179.023233 263.905282 
L 180.671225 262.403398 
L 182.319218 262.15215 
L 183.96721 263.074015 
L 185.615203 261.365716 
L 187.263196 262.186709 
L 188.911188 259.302494 
L 190.559181 262.283845 
L 192.207174 263.066543 
L 193.855166 264.20323 
L 195.503159 260.517638 
L 197.151151 262.219399 
L 198.799144 261.62537 
L 200.447137 261.53197 
L 202.095129 257.512003 
L 203.743122 260.682023 
L 205.391114 261.749593 
L 207.039107 261.1126 
L 208.6871 260.31776 
L 210.335092 263.527943 
L 211.983085 262.58553 
L 213.631078 258.592649 
L 215.27907 260.374735 
L 216.927063 258.032245 
L 218.575055 260.875363 
L 220.223048 261.325554 
L 221.871041 263.504593 
L 225.167026 258.918617 
L 226.815018 263.45976 
L 230.111004 260.701637 
L 231.758996 260.857616 
L 233.406989 258.296569 
L 235.054982 262.784473 
L 236.702974 258.560893 
L 238.350967 264.120103 
L 239.998959 262.896554 
L 241.646952 263.88847 
L 243.294945 260.115081 
L 244.942937 240.739102 
L 246.59093 255.888698 
L 248.238922 262.890016 
L 249.886915 254.989249 
L 251.534908 252.597257 
L 253.1829 256.175438 
L 254.830893 258.321787 
L 256.478886 250.521893 
L 258.126878 256.13621 
L 259.774871 254.851016 
L 261.422863 261.910242 
L 263.070856 255.708435 
L 264.718849 260.28974 
L 266.366841 262.535093 
L 268.014834 245.560447 
L 269.662826 261.00519 
L 271.310819 256.316473 
L 272.958812 257.42047 
L 274.606804 259.243652 
L 276.254797 262.536027 
L 277.90279 262.148414 
L 279.550782 259.465946 
L 281.198775 258.895267 
L 282.846767 261.362914 
L 284.49476 256.425752 
L 286.142753 256.760127 
L 287.790745 260.500826 
L 289.438738 257.159882 
L 291.086731 261.927989 
L 292.734723 261.999907 
L 294.382716 262.293185 
L 296.030708 260.07772 
L 297.678701 249.378668 
L 299.326694 255.906444 
L 300.974686 259.442595 
L 302.622679 257.057141 
L 304.270671 257.44849 
L 305.918664 254.830468 
L 307.566657 246.778392 
L 309.214649 261.204133 
L 310.862642 261.138753 
L 312.510635 254.804316 
L 314.158627 259.366941 
L 315.80662 250.279985 
L 317.454612 201.91616 
L 319.102605 260.55313 
L 320.750598 257.751109 
L 322.39859 242.454873 
L 324.046583 262.499601 
L 325.694575 262.456637 
L 327.342568 250.152026 
L 328.990561 260.013274 
L 330.638553 260.196339 
L 332.286546 258.051859 
L 333.934539 257.766053 
L 335.582531 260.861352 
L 337.230524 259.299692 
L 340.526509 255.13869 
L 342.174502 256.691944 
L 343.822494 260.495222 
L 345.470487 253.824542 
L 347.118479 260.907119 
L 348.766472 262.803153 
L 350.414465 262.624758 
L 352.062457 252.633683 
L 353.71045 258.558091 
L 355.358443 256.93572 
L 357.006435 258.292833 
L 358.654428 262.453835 
L 360.30242 256.836715 
L 361.950413 262.069958 
L 363.598406 259.942289 
L 365.246398 260.861352 
L 366.894391 254.050572 
L 368.542383 261.55065 
L 370.190376 251.92664 
L 371.838369 263.213182 
L 373.486361 258.461888 
L 375.134354 259.111957 
L 376.782347 255.300274 
L 378.430339 257.901484 
L 380.078332 261.623502 
L 381.726324 259.265134 
L 383.374317 253.209032 
L 385.02231 233.949804 
L 386.670302 251.966802 
L 388.318295 259.882513 
L 389.966287 261.050022 
L 391.61428 245.648244 
L 393.262273 255.306812 
L 393.262273 255.306812 
" style="fill:none;stroke:#7f7f7f;stroke-linecap:square;stroke-width:0.5;"/>
   </g>
   <g id="line2d_24">
    <path clip-path="url(#p27ce55e948)" d="M 68.607727 148.368594 
L 70.25572 248.653879 
L 71.903713 263.733424 
L 73.551705 233.656525 
L 75.199698 257.737098 
L 76.84769 258.312447 
L 78.495683 261.627238 
L 80.143676 264.034175 
L 81.791668 262.104516 
L 83.439661 263.583049 
L 85.087653 263.542887 
L 86.735646 258.112569 
L 88.383639 250.102524 
L 90.031631 249.460861 
L 91.679624 253.167001 
L 93.327617 256.297793 
L 94.975609 258.625339 
L 96.623602 255.141492 
L 98.271594 242.887318 
L 99.919587 233.435166 
L 101.56758 221.734858 
L 103.215572 262.074628 
L 104.863565 262.281977 
L 106.511557 258.133117 
L 108.15955 186.944025 
L 109.807543 260.619445 
L 111.455535 262.949792 
L 113.103528 258.452548 
L 114.751521 261.428295 
L 116.399513 246.997884 
L 118.047506 256.503275 
L 119.695498 256.709691 
L 121.343491 251.964 
L 122.991484 252.321725 
L 124.639476 255.982099 
L 126.287469 248.778102 
L 127.935461 259.173601 
L 129.583454 213.234459 
L 131.231447 256.864736 
L 132.879439 262.985285 
L 134.527432 263.474704 
L 136.175425 258.15927 
L 137.823417 246.273094 
L 139.47141 261.966283 
L 141.119402 260.723119 
L 142.767395 259.219368 
L 144.415388 250.538705 
L 146.06338 261.041616 
L 147.711373 260.282268 
L 149.359365 244.136086 
L 151.007358 250.469589 
L 152.655351 237.677426 
L 154.303343 218.805811 
L 155.951336 259.756422 
L 157.599329 227.125013 
L 159.247321 263.577445 
L 160.895314 255.483339 
L 162.543306 252.519734 
L 164.191299 262.16616 
L 165.839292 250.13895 
L 167.487284 261.498345 
L 169.135277 262.649976 
L 170.783269 262.286647 
L 172.431262 260.714713 
L 174.079255 258.648689 
L 175.727247 255.391806 
L 177.37524 262.220333 
L 179.023233 261.184519 
L 180.671225 261.830852 
L 182.319218 256.037205 
L 183.96721 211.955803 
L 185.615203 258.724344 
L 187.263196 226.181666 
L 188.911188 263.748369 
L 190.559181 264.232184 
L 192.207174 263.258949 
L 193.855166 230.808738 
L 197.151151 262.66959 
L 198.799144 249.806443 
L 200.447137 263.910886 
L 202.095129 263.824023 
L 203.743122 245.268103 
L 205.391114 263.435476 
L 207.039107 263.654034 
L 208.6871 262.07276 
L 210.335092 259.830208 
L 211.983085 260.194471 
L 213.631078 260.222491 
L 215.27907 260.908053 
L 216.927063 264.009891 
L 218.575055 260.2804 
L 220.223048 255.693491 
L 221.871041 249.347846 
L 223.519033 237.727863 
L 225.167026 229.425473 
L 226.815018 261.838324 
L 228.463011 257.452226 
L 230.111004 255.634648 
L 231.758996 263.110442 
L 233.406989 253.204362 
L 235.054982 251.570783 
L 236.702974 252.186294 
L 238.350967 256.375316 
L 239.998959 221.907649 
L 241.646952 257.706276 
L 243.294945 260.691363 
L 244.942937 262.004577 
L 246.59093 261.589878 
L 248.238922 261.759867 
L 249.886915 263.079619 
L 251.534908 263.318725 
L 253.1829 256.088576 
L 254.830893 250.865608 
L 256.478886 245.034601 
L 258.126878 261.123808 
L 259.774871 262.0821 
L 261.422863 259.467814 
L 263.070856 239.507146 
L 264.718849 253.888989 
L 266.366841 255.473065 
L 268.014834 255.190995 
L 269.662826 261.35731 
L 271.310819 249.537449 
L 272.958812 256.005449 
L 274.606804 260.922997 
L 276.254797 248.500701 
L 277.90279 261.734649 
L 279.550782 252.282497 
L 281.198775 257.292511 
L 282.846767 249.617774 
L 284.49476 254.381211 
L 286.142753 254.56521 
L 287.790745 248.759421 
L 289.438738 238.746865 
L 291.086731 225.209365 
L 292.734723 248.06452 
L 294.382716 260.85388 
L 296.030708 258.596385 
L 297.678701 258.657095 
L 299.326694 213.315717 
L 300.974686 261.262975 
L 304.270671 261.039748 
L 305.918664 256.990827 
L 307.566657 256.834847 
L 309.214649 262.117592 
L 310.862642 259.388423 
L 312.510635 223.928841 
L 314.158627 256.252027 
L 315.80662 235.396581 
L 317.454612 250.949668 
L 319.102605 221.190332 
L 320.750598 262.376312 
L 322.39859 259.337987 
L 324.046583 245.494132 
L 325.694575 262.111054 
L 327.342568 262.716291 
L 328.990561 255.607562 
L 330.638553 243.725123 
L 332.286546 262.36417 
L 333.934539 263.700734 
L 335.582531 263.103904 
L 337.230524 97.24291 
L 338.878516 247.674105 
L 340.526509 256.571457 
L 342.174502 263.250543 
L 343.822494 262.112922 
L 345.470487 262.836778 
L 347.118479 226.053707 
L 348.766472 258.347939 
L 350.414465 261.91211 
L 352.062457 262.251155 
L 353.71045 263.338339 
L 355.358443 262.651844 
L 357.006435 259.482758 
L 358.654428 263.378502 
L 360.30242 255.62811 
L 361.950413 262.967539 
L 363.598406 261.768273 
L 365.246398 261.844862 
L 366.894391 251.181302 
L 368.542383 253.573294 
L 370.190376 254.214957 
L 371.838369 254.56054 
L 373.486361 239.514618 
L 375.134354 256.39493 
L 376.782347 254.76322 
L 378.430339 262.375378 
L 380.078332 252.806475 
L 381.726324 258.846699 
L 383.374317 254.653007 
L 385.02231 231.707252 
L 386.670302 256.030667 
L 388.318295 236.08401 
L 389.966287 255.799968 
L 391.61428 259.956299 
L 391.61428 259.956299 
" style="fill:none;stroke:#bcbd22;stroke-linecap:square;stroke-width:0.5;"/>
   </g>
   <g id="line2d_25">
    <path clip-path="url(#p27ce55e948)" d="M 68.607727 262.979681 
L 70.25572 260.814652 
L 71.903713 260.666145 
L 73.551705 254.80525 
L 75.199698 258.956912 
L 76.84769 263.631618 
L 78.495683 264.434864 
L 80.143676 263.003965 
L 81.791668 263.550359 
L 83.439661 263.397182 
L 85.087653 261.913044 
L 86.735646 263.105772 
L 88.383639 241.23506 
L 90.031631 263.101102 
L 91.679624 263.714744 
L 93.327617 261.652456 
L 94.975609 261.566528 
L 96.623602 260.874428 
L 98.271594 263.70914 
L 99.919587 258.505786 
L 101.56758 264.044449 
L 103.215572 262.847052 
L 104.863565 263.828693 
L 106.511557 263.500857 
L 108.15955 262.524819 
L 109.807543 262.281043 
L 111.455535 264.107961 
L 113.103528 261.154631 
L 114.751521 262.780737 
L 116.399513 261.885024 
L 118.047506 244.382664 
L 119.695498 260.168319 
L 121.343491 262.34549 
L 122.991484 261.670203 
L 124.639476 264.560021 
L 126.287469 263.073081 
L 127.935461 262.06342 
L 129.583454 262.586464 
L 131.231447 261.700091 
L 132.879439 263.751171 
L 134.527432 264.18922 
L 136.175425 264.190154 
L 137.823417 262.922706 
L 139.47141 261.134082 
L 141.119402 264.065931 
L 142.767395 263.504593 
L 144.415388 263.785729 
L 146.06338 261.522629 
L 147.711373 258.438538 
L 149.359365 262.873204 
L 151.007358 236.64815 
L 152.655351 259.759224 
L 154.303343 263.575577 
L 155.951336 263.668044 
L 157.599329 262.216597 
L 159.247321 264.293829 
L 160.895314 264.41992 
L 162.543306 263.390644 
L 164.191299 262.163358 
L 165.839292 263.659638 
L 167.487284 262.811559 
L 169.135277 263.788531 
L 170.783269 256.723701 
L 172.431262 239.233482 
L 174.079255 258.716872 
L 175.727247 260.836134 
L 177.37524 261.251767 
L 179.023233 251.567047 
L 180.671225 259.501438 
L 182.319218 262.955396 
L 183.96721 262.879742 
L 185.615203 261.708497 
L 187.263196 262.860128 
L 188.911188 260.086126 
L 190.559181 262.333348 
L 192.207174 262.821833 
L 193.855166 261.661797 
L 195.503159 263.572775 
L 197.151151 263.086157 
L 198.799144 259.646209 
L 200.447137 254.337312 
L 203.743122 263.784795 
L 205.391114 256.16423 
L 207.039107 257.21779 
L 210.335092 260.708175 
L 211.983085 260.470937 
L 213.631078 264.192956 
L 215.27907 260.071182 
L 216.927063 263.091762 
L 218.575055 263.913688 
L 220.223048 263.41306 
L 221.871041 262.493063 
L 223.519033 258.200366 
L 225.167026 263.849241 
L 226.815018 264.20323 
L 228.463011 262.162424 
L 230.111004 263.302847 
L 231.758996 263.915556 
L 233.406989 263.527943 
L 235.054982 263.315923 
L 236.702974 263.774521 
L 238.350967 260.739931 
L 239.998959 264.029505 
L 241.646952 262.192313 
L 243.294945 260.915525 
L 244.942937 262.940452 
L 246.59093 264.14719 
L 248.238922 263.67645 
L 249.886915 261.04722 
L 251.534908 261.199463 
L 253.1829 262.532291 
L 254.830893 263.057203 
L 256.478886 262.643438 
L 258.126878 263.269223 
L 259.774871 258.671106 
L 261.422863 263.970662 
L 263.070856 263.63442 
L 264.718849 260.908053 
L 266.366841 263.864185 
L 268.014834 264.246194 
L 269.662826 259.897457 
L 272.958812 263.570907 
L 274.606804 263.552227 
L 276.254797 264.268611 
L 277.90279 264.028571 
L 279.550782 263.583049 
L 281.198775 264.377889 
L 282.846767 263.138462 
L 284.49476 262.968473 
L 286.142753 264.13318 
L 287.790745 260.730591 
L 289.438738 259.353865 
L 291.086731 264.299433 
L 292.734723 261.149961 
L 294.382716 262.371642 
L 297.678701 264.359209 
L 299.326694 263.500857 
L 300.974686 264.155596 
L 302.622679 264.329321 
L 304.270671 257.819291 
L 305.918664 262.426748 
L 307.566657 261.787888 
L 309.214649 263.889404 
L 310.862642 262.955396 
L 312.510635 253.540604 
L 314.158627 261.440437 
L 315.80662 263.909018 
L 317.454612 240.998756 
L 319.102605 263.151538 
L 320.750598 262.188577 
L 322.39859 262.988087 
L 324.046583 263.94918 
L 325.694575 262.987153 
L 327.342568 263.821221 
L 328.990561 260.110411 
L 330.638553 264.078073 
L 332.286546 261.295666 
L 333.934539 262.144678 
L 335.582531 255.643988 
L 337.230524 260.809982 
L 338.878516 263.150604 
L 340.526509 264.358275 
L 342.174502 262.454769 
L 343.822494 255.60009 
L 345.470487 261.741187 
L 347.118479 263.240269 
L 348.766472 259.596707 
L 350.414465 263.740897 
L 352.062457 264.050053 
L 352.062457 264.050053 
" style="fill:none;stroke:#17becf;stroke-linecap:square;stroke-width:0.5;"/>
   </g>
   <g id="line2d_26">
    <path clip-path="url(#p27ce55e948)" d="M 68.607727 204.803176 
L 70.25572 214.007817 
L 71.903713 22.796 
L 73.551705 88.888216 
L 75.199698 231.951028 
L 76.84769 253.355671 
L 78.495683 250.095052 
L 80.143676 249.153572 
L 81.791668 249.558932 
L 83.439661 254.251384 
L 85.087653 259.331449 
L 86.735646 235.115445 
L 88.383639 243.417834 
L 90.031631 257.860387 
L 91.679624 248.685635 
L 93.327617 223.997957 
L 94.975609 262.758321 
L 96.623602 254.519444 
L 98.271594 223.305858 
L 99.919587 261.883156 
L 101.56758 235.472235 
L 103.215572 261.626304 
L 104.863565 263.402786 
L 106.511557 260.300014 
L 108.15955 258.679512 
L 109.807543 238.091192 
L 111.455535 244.543313 
L 113.103528 258.485238 
L 114.751521 256.762929 
L 116.399513 250.480797 
L 118.047506 262.634098 
L 119.695498 148.88043 
L 121.343491 252.406719 
L 122.991484 256.839518 
L 124.639476 253.773172 
L 126.287469 254.457799 
L 127.935461 257.098237 
L 129.583454 243.816655 
L 131.231447 263.170218 
L 132.879439 262.036333 
L 134.527432 256.055885 
L 136.175425 237.747477 
L 137.823417 257.845443 
L 139.47141 257.973402 
L 141.119402 263.524207 
L 142.767395 219.748225 
L 144.415388 230.248333 
L 146.06338 194.421686 
L 147.711373 253.524726 
L 149.359365 150.955794 
L 151.007358 253.26227 
L 152.655351 229.786 
L 154.303343 209.478816 
L 155.951336 261.38533 
L 157.599329 263.102036 
L 159.247321 255.475867 
L 160.895314 261.35264 
L 162.543306 160.59288 
L 164.191299 259.819 
L 165.839292 259.319307 
L 167.487284 242.632334 
L 169.135277 263.876328 
L 170.783269 231.227173 
L 172.431262 250.790887 
L 174.079255 255.605694 
L 175.727247 263.317791 
L 177.37524 252.059269 
L 179.023233 254.030958 
L 180.671225 152.896661 
L 182.319218 216.864944 
L 183.96721 243.982909 
L 185.615203 241.613333 
L 187.263196 202.953842 
L 188.911188 260.549394 
L 190.559181 212.86646 
L 192.207174 196.325193 
L 193.855166 235.121983 
L 195.503159 252.990474 
L 197.151151 263.92583 
L 198.799144 251.360631 
L 200.447137 261.28259 
L 202.095129 247.462085 
L 203.743122 219.342866 
L 205.391114 230.725611 
L 207.039107 210.571604 
L 208.6871 250.838521 
L 210.335092 263.525141 
L 211.983085 264.430194 
L 213.631078 262.887214 
L 215.27907 260.859484 
L 216.927063 262.981549 
L 218.575055 261.797228 
L 220.223048 264.308773 
L 221.871041 244.212675 
L 223.519033 233.094253 
L 225.167026 263.468166 
L 226.815018 228.293456 
L 228.463011 263.931434 
L 230.111004 263.183294 
L 231.758996 261.613228 
L 233.406989 238.788895 
L 235.054982 254.652073 
L 236.702974 264.115433 
L 238.350967 260.500826 
L 239.998959 263.337405 
L 241.646952 261.136885 
L 243.294945 262.363236 
L 244.942937 255.690689 
L 246.59093 262.868534 
L 248.238922 263.889404 
L 249.886915 263.943576 
L 251.534908 260.668013 
L 253.1829 264.100489 
L 254.830893 254.146775 
L 256.478886 259.101683 
L 258.126878 252.897073 
L 259.774871 261.986831 
L 261.422863 244.126746 
L 263.070856 259.026962 
L 264.718849 261.326488 
L 266.366841 263.971596 
L 268.014834 261.095788 
L 269.662826 261.198529 
L 271.310819 222.789352 
L 272.958812 257.740834 
L 274.606804 263.72315 
L 276.254797 216.067302 
L 277.90279 235.470367 
L 279.550782 212.431212 
L 281.198775 261.632842 
L 282.846767 263.307517 
L 284.49476 261.524497 
L 286.142753 263.979068 
L 287.790745 264.138784 
L 289.438738 261.800964 
L 291.086731 264.118235 
L 292.734723 261.215341 
L 294.382716 264.145322 
L 296.030708 259.223104 
L 297.678701 262.295987 
L 299.326694 254.00107 
L 300.974686 256.406138 
L 302.622679 262.190445 
L 304.270671 261.418955 
L 305.918664 263.756775 
L 307.566657 259.531326 
L 309.214649 259.925477 
L 310.862642 224.860046 
L 312.510635 263.073081 
L 314.158627 261.215341 
L 315.80662 255.002325 
L 317.454612 260.468135 
L 319.102605 255.691623 
L 320.750598 261.5273 
L 322.39859 263.622278 
L 324.046583 263.698866 
L 325.694575 237.244047 
L 327.342568 250.436898 
L 328.990561 261.633776 
L 330.638553 264.368549 
L 332.286546 262.694808 
L 333.934539 151.394778 
L 335.582531 153.203016 
L 337.230524 261.189189 
L 338.878516 262.891884 
L 340.526509 264.23592 
L 342.174502 262.796615 
L 343.822494 257.894012 
L 345.470487 264.011759 
L 347.118479 261.538508 
L 348.766472 263.744633 
L 350.414465 263.683922 
L 352.062457 263.209446 
L 353.71045 264.041647 
L 355.358443 263.245873 
L 357.006435 262.810625 
L 358.654428 263.97253 
L 360.30242 263.13566 
L 361.950413 263.926764 
L 363.598406 262.975011 
L 365.246398 263.880064 
L 366.894391 241.750632 
L 368.542383 263.200106 
L 370.190376 263.572775 
L 371.838369 264.633807 
L 373.486361 263.136594 
L 375.134354 262.58553 
L 376.782347 254.960295 
L 378.430339 262.000841 
L 380.078332 261.86541 
L 381.726324 261.057494 
L 383.374317 263.68112 
L 385.02231 264.311575 
L 386.670302 264.50398 
L 388.318295 242.177473 
L 389.966287 244.374258 
L 391.61428 263.934236 
L 391.61428 263.934236 
" style="fill:none;stroke:#1f77b4;stroke-linecap:square;stroke-width:0.5;"/>
   </g>
   <g id="line2d_27">
    <path clip-path="url(#p27ce55e948)" d="M 68.607727 262.677996 
L 70.25572 263.489649 
L 71.903713 253.317376 
L 73.551705 263.463496 
L 75.199698 259.321175 
L 76.84769 263.680186 
L 78.495683 264.079007 
L 80.143676 263.746501 
L 81.791668 264.294763 
L 83.439661 264.460082 
L 85.087653 264.126641 
L 86.735646 259.260464 
L 88.383639 262.841448 
L 90.031631 264.359209 
L 91.679624 264.501178 
L 93.327617 264.116367 
L 94.975609 261.585208 
L 96.623602 261.816842 
L 98.271594 262.488393 
L 99.919587 262.366972 
L 101.56758 264.569361 
L 103.215572 264.138784 
L 104.863565 262.524819 
L 106.511557 264.017363 
L 108.15955 259.066191 
L 109.807543 258.808405 
L 111.455535 263.881932 
L 113.103528 260.406491 
L 114.751521 264.035109 
L 116.399513 262.813427 
L 118.047506 260.043162 
L 119.695498 262.969407 
L 121.343491 263.454156 
L 122.991484 257.279435 
L 124.639476 263.616674 
L 126.287469 258.556223 
L 129.583454 263.527943 
L 131.231447 260.777292 
L 132.879439 262.799417 
L 134.527432 260.552196 
L 137.823417 263.96319 
L 139.47141 259.924543 
L 141.119402 263.326197 
L 142.767395 263.11698 
L 146.06338 263.277629 
L 147.711373 262.195115 
L 149.359365 261.740253 
L 151.007358 259.906797 
L 152.655351 264.371351 
L 154.303343 263.710074 
L 155.951336 263.597059 
L 157.599329 262.566849 
L 159.247321 262.766727 
L 160.895314 262.437022 
L 162.543306 264.17988 
L 164.191299 263.752105 
L 165.839292 261.538508 
L 167.487284 263.606399 
L 169.135277 263.767049 
L 170.783269 261.318082 
L 172.431262 257.519475 
L 174.079255 262.952594 
L 175.727247 262.825569 
L 177.37524 262.490261 
L 179.023233 261.764537 
L 180.671225 264.600183 
L 182.319218 263.505527 
L 183.96721 262.154018 
L 187.263196 263.738094 
L 188.911188 263.387842 
L 192.207174 263.860449 
L 193.855166 264.495574 
L 195.503159 264.023901 
L 197.151151 264.291027 
L 198.799144 264.135982 
L 200.447137 262.866666 
L 202.095129 263.583049 
L 203.743122 264.011759 
L 205.391114 262.577124 
L 207.039107 257.738032 
L 208.6871 263.557831 
L 210.335092 262.633164 
L 211.983085 262.372576 
L 213.631078 263.599861 
L 215.27907 259.999264 
L 216.927063 264.009891 
L 218.575055 260.8352 
L 220.223048 260.890307 
L 221.871041 264.397504 
L 225.167026 261.164905 
L 226.815018 258.341401 
L 228.463011 263.181426 
L 230.111004 263.209446 
L 231.758996 263.641892 
L 233.406989 261.955075 
L 235.054982 264.319047 
L 236.702974 257.73056 
L 238.350967 262.832108 
L 239.998959 262.328678 
L 243.294945 263.540085 
L 244.942937 262.121328 
L 246.59093 264.565625 
L 248.238922 263.830561 
L 249.886915 263.940774 
L 251.534908 263.543821 
L 253.1829 263.470968 
L 256.478886 261.61603 
L 258.126878 263.468166 
L 259.774871 261.729979 
L 261.422863 263.219721 
L 263.070856 264.127575 
L 264.718849 261.998039 
L 266.366841 264.497442 
L 268.014834 263.892206 
L 269.662826 260.680155 
L 271.310819 262.343622 
L 272.958812 260.663343 
L 274.606804 264.248996 
L 276.254797 261.900902 
L 277.90279 262.234343 
L 279.550782 264.393768 
L 281.198775 257.695068 
L 282.846767 261.514223 
L 284.49476 262.507073 
L 286.142753 262.61822 
L 287.790745 264.026703 
L 289.438738 261.221879 
L 291.086731 262.041003 
L 292.734723 264.264875 
L 294.382716 261.580538 
L 296.030708 263.801607 
L 299.326694 260.865088 
L 300.974686 263.989342 
L 302.622679 263.003031 
L 304.270671 263.93984 
L 305.918664 263.461628 
L 307.566657 262.471581 
L 309.214649 263.212248 
L 310.862642 263.089894 
L 312.510635 261.995237 
L 314.158627 264.340529 
L 315.80662 263.749303 
L 317.454612 260.152441 
L 319.102605 261.626304 
L 320.750598 262.588332 
L 322.39859 264.192022 
L 324.046583 256.40894 
L 325.694575 264.332123 
L 327.342568 261.153697 
L 330.638553 263.68112 
L 332.286546 259.123165 
L 333.934539 264.038845 
L 335.582531 263.901546 
L 337.230524 263.388776 
L 338.878516 262.407134 
L 340.526509 262.313734 
L 342.174502 263.555029 
L 343.822494 260.657739 
L 345.470487 256.238017 
L 347.118479 258.697258 
L 348.766472 263.94918 
L 352.062457 263.617608 
L 353.71045 259.001744 
L 355.358443 263.600795 
L 357.006435 260.996783 
L 358.654428 262.725631 
L 360.30242 260.535384 
L 361.950413 263.281365 
L 363.598406 263.871658 
L 365.246398 264.002419 
L 366.894391 263.208512 
L 368.542383 258.800933 
L 370.190376 262.464109 
L 371.838369 263.900612 
L 373.486361 262.733103 
L 375.134354 261.764537 
L 376.782347 263.533547 
L 378.430339 262.43422 
L 380.078332 264.484366 
L 381.726324 260.009538 
L 383.374317 261.969085 
L 385.02231 263.280431 
L 386.670302 262.332414 
L 388.318295 261.196661 
L 389.966287 260.781028 
L 391.61428 263.95385 
L 391.61428 263.95385 
" style="fill:none;stroke:#ff7f0e;stroke-linecap:square;stroke-width:0.5;"/>
   </g>
   <g id="line2d_28">
    <path clip-path="url(#p27ce55e948)" d="M 68.607727 261.105128 
L 70.25572 254.503566 
L 71.903713 251.757584 
L 73.551705 258.075209 
L 75.199698 255.247969 
L 76.84769 263.360756 
L 78.495683 253.56302 
L 80.143676 256.060556 
L 81.791668 253.587305 
L 83.439661 252.74483 
L 86.735646 261.863542 
L 88.383639 247.875851 
L 90.031631 252.536546 
L 91.679624 263.817485 
L 93.327617 255.760739 
L 94.975609 260.114147 
L 96.623602 255.233959 
L 98.271594 255.410487 
L 99.919587 255.450649 
L 101.56758 261.585208 
L 103.215572 262.188577 
L 104.863565 263.199172 
L 106.511557 253.884319 
L 108.15955 263.838033 
L 109.807543 252.419796 
L 111.455535 260.050634 
L 113.103528 253.386493 
L 114.751521 255.684151 
L 116.399513 262.07743 
L 118.047506 261.295666 
L 119.695498 261.940131 
L 121.343491 259.849823 
L 122.991484 262.388454 
L 124.639476 261.784151 
L 126.287469 259.663955 
L 127.935461 252.362821 
L 129.583454 262.268901 
L 131.231447 263.647496 
L 132.879439 257.94258 
L 134.527432 258.855105 
L 136.175425 257.610073 
L 137.823417 258.789724 
L 141.119402 262.468779 
L 142.767395 262.001775 
L 144.415388 257.218724 
L 146.06338 259.491164 
L 147.711373 263.877262 
L 149.359365 256.252961 
L 151.007358 262.575256 
L 152.655351 259.583631 
L 154.303343 256.87968 
L 155.951336 259.405235 
L 157.599329 259.912401 
L 159.247321 259.073663 
L 160.895314 255.565532 
L 162.543306 253.617193 
L 164.191299 262.720961 
L 165.839292 260.914591 
L 167.487284 261.115402 
L 169.135277 261.073372 
L 170.783269 260.53445 
L 172.431262 260.199141 
L 174.079255 257.88187 
L 175.727247 263.943576 
L 177.37524 258.717806 
L 179.023233 251.128064 
L 180.671225 240.485052 
L 182.319218 257.74457 
L 183.96721 255.31335 
L 185.615203 260.126289 
L 187.263196 262.896554 
L 188.911188 259.55561 
L 190.559181 257.768855 
L 192.207174 254.829534 
L 193.855166 257.571779 
L 195.503159 261.822446 
L 197.151151 261.60202 
L 198.799144 258.433868 
L 200.447137 243.773691 
L 202.095129 253.815202 
L 203.743122 258.952242 
L 205.391114 257.771657 
L 207.039107 261.448843 
L 208.6871 258.597319 
L 210.335092 260.155243 
L 211.983085 263.237467 
L 213.631078 259.765762 
L 215.27907 263.45509 
L 216.927063 262.607012 
L 218.575055 262.193247 
L 220.223048 259.111957 
L 221.871041 260.355121 
L 223.519033 263.426136 
L 225.167026 259.086739 
L 226.815018 262.643438 
L 228.463011 258.156468 
L 230.111004 258.913947 
L 231.758996 252.218984 
L 233.406989 255.723379 
L 235.054982 260.352318 
L 236.702974 259.408037 
L 239.998959 256.944126 
L 241.646952 257.948184 
L 243.294945 262.433286 
L 244.942937 259.361337 
L 246.59093 262.876006 
L 248.238922 260.455059 
L 249.886915 262.663052 
L 251.534908 262.437022 
L 253.1829 253.932887 
L 254.830893 262.784473 
L 256.478886 261.561858 
L 258.126878 257.902418 
L 259.774871 262.860128 
L 261.422863 260.828662 
L 263.070856 249.834464 
L 264.718849 264.411514 
L 266.366841 261.834588 
L 268.014834 261.349838 
L 269.662826 261.254569 
L 271.310819 262.554707 
L 272.958812 258.92609 
L 274.606804 263.674582 
L 276.254797 259.128769 
L 277.90279 258.565563 
L 279.550782 259.369743 
L 281.198775 256.201591 
L 282.846767 259.190414 
L 284.49476 258.074275 
L 286.142753 250.251031 
L 287.790745 253.976786 
L 289.438738 232.967228 
L 291.086731 250.995435 
L 292.734723 259.314637 
L 294.382716 262.291317 
L 296.030708 235.038856 
L 297.678701 247.623669 
L 299.326694 262.821833 
L 300.974686 254.308358 
L 302.622679 252.353481 
L 304.270671 262.351094 
L 305.918664 263.668978 
L 307.566657 257.17109 
L 309.214649 259.337053 
L 310.862642 263.555029 
L 312.510635 263.180492 
L 314.158627 260.82119 
L 315.80662 262.940452 
L 317.454612 263.522339 
L 319.102605 263.696064 
L 320.750598 264.041647 
L 322.39859 263.775455 
L 324.046583 261.557188 
L 325.694575 263.818419 
L 327.342568 262.805955 
L 328.990561 250.646116 
L 330.638553 262.897488 
L 332.286546 263.539151 
L 333.934539 255.194731 
L 335.582531 263.922094 
L 337.230524 259.683569 
L 338.878516 263.716612 
L 340.526509 252.658901 
L 342.174502 264.194824 
L 343.822494 262.259561 
L 345.470487 237.773629 
L 347.118479 258.345137 
L 348.766472 262.050344 
L 350.414465 263.304715 
L 352.062457 264.079007 
L 353.71045 258.136853 
L 355.358443 259.733072 
L 357.006435 260.26639 
L 357.006435 260.26639 
" style="fill:none;stroke:#2ca02c;stroke-linecap:square;stroke-width:0.5;"/>
   </g>
   <g id="patch_3">
    <path d="M 52.375 276.812 
L 52.375 10.7 
" style="fill:none;stroke:#000000;stroke-linecap:square;stroke-linejoin:miter;stroke-width:0.8;"/>
   </g>
   <g id="patch_4">
    <path d="M 409.495 276.812 
L 409.495 10.7 
" style="fill:none;stroke:#000000;stroke-linecap:square;stroke-linejoin:miter;stroke-width:0.8;"/>
   </g>
   <g id="patch_5">
    <path d="M 52.375 276.812 
L 409.495 276.812 
" style="fill:none;stroke:#000000;stroke-linecap:square;stroke-linejoin:miter;stroke-width:0.8;"/>
   </g>
   <g id="patch_6">
    <path d="M 52.375 10.7 
L 409.495 10.7 
" style="fill:none;stroke:#000000;stroke-linecap:square;stroke-linejoin:miter;stroke-width:0.8;"/>
   </g>
  </g>
 </g>
 <defs>
  <clipPath id="p27ce55e948">
   <rect height="266.112" width="357.12" x="52.375" y="10.7"/>
  </clipPath>
 </defs>
</svg>
