<?xml version="1.0" encoding="utf-8" standalone="no"?>
<!DOCTYPE svg PUBLIC "-//W3C//DTD SVG 1.1//EN"
  "http://www.w3.org/Graphics/SVG/1.1/DTD/svg11.dtd">
<!-- Created with matplotlib (http://matplotlib.org/) -->
<svg height="300pt" version="1.1" viewBox="0 0 401 300" width="401pt" xmlns="http://www.w3.org/2000/svg" xmlns:xlink="http://www.w3.org/1999/xlink">
 <defs>
  <style type="text/css">
*{stroke-linecap:butt;stroke-linejoin:round;}
  </style>
 </defs>
 <g id="figure_1">
  <g id="patch_1">
   <path d="M 0 300.690125 
L 401.1075 300.690125 
L 401.1075 0 
L 0 0 
z
" style="fill:#ffffff;"/>
  </g>
  <g id="axes_1">
   <g id="patch_2">
    <path d="M 33.2875 276.812 
L 390.4075 276.812 
L 390.4075 10.7 
L 33.2875 10.7 
z
" style="fill:#ffffff;"/>
   </g>
   <g id="matplotlib.axis_1">
    <g id="xtick_1">
     <g id="line2d_1">
      <defs>
       <path d="M 0 0 
L 0 3.5 
" id="me32233ed2d" style="stroke:#000000;stroke-width:0.8;"/>
      </defs>
      <g>
       <use style="stroke:#000000;stroke-width:0.8;" x="49.520227" xlink:href="#me32233ed2d" y="276.812"/>
      </g>
     </g>
     <g id="text_1">
      <!-- 0 -->
      <defs>
       <path d="M 31.78125 66.40625 
Q 24.171875 66.40625 20.328125 58.90625 
Q 16.5 51.421875 16.5 36.375 
Q 16.5 21.390625 20.328125 13.890625 
Q 24.171875 6.390625 31.78125 6.390625 
Q 39.453125 6.390625 43.28125 13.890625 
Q 47.125 21.390625 47.125 36.375 
Q 47.125 51.421875 43.28125 58.90625 
Q 39.453125 66.40625 31.78125 66.40625 
M 31.78125 74.21875 
Q 44.046875 74.21875 50.515625 64.515625 
Q 56.984375 54.828125 56.984375 36.375 
Q 56.984375 17.96875 50.515625 8.265625 
Q 44.046875 -1.421875 31.78125 -1.421875 
Q 19.53125 -1.421875 13.0625 8.265625 
Q 6.59375 17.96875 6.59375 36.375 
Q 6.59375 54.828125 13.0625 64.515625 
Q 19.53125 74.21875 31.78125 74.21875 
" id="DejaVuSans-30"/>
      </defs>
      <g transform="translate(46.338977 291.410437)scale(0.1 -0.1)">
       <use xlink:href="#DejaVuSans-30"/>
      </g>
     </g>
    </g>
    <g id="xtick_2">
     <g id="line2d_2">
      <g>
       <use style="stroke:#000000;stroke-width:0.8;" x="90.720043" xlink:href="#me32233ed2d" y="276.812"/>
      </g>
     </g>
     <g id="text_2">
      <!-- 25 -->
      <defs>
       <path d="M 19.1875 8.296875 
L 53.609375 8.296875 
L 53.609375 0 
L 7.328125 0 
L 7.328125 8.296875 
Q 12.9375 14.109375 22.625 23.890625 
Q 32.328125 33.6875 34.8125 36.53125 
Q 39.546875 41.84375 41.421875 45.53125 
Q 43.3125 49.21875 43.3125 52.78125 
Q 43.3125 58.59375 39.234375 62.25 
Q 35.15625 65.921875 28.609375 65.921875 
Q 23.96875 65.921875 18.8125 64.3125 
Q 13.671875 62.703125 7.8125 59.421875 
L 7.8125 69.390625 
Q 13.765625 71.78125 18.9375 73 
Q 24.125 74.21875 28.421875 74.21875 
Q 39.75 74.21875 46.484375 68.546875 
Q 53.21875 62.890625 53.21875 53.421875 
Q 53.21875 48.921875 51.53125 44.890625 
Q 49.859375 40.875 45.40625 35.40625 
Q 44.1875 33.984375 37.640625 27.21875 
Q 31.109375 20.453125 19.1875 8.296875 
" id="DejaVuSans-32"/>
       <path d="M 10.796875 72.90625 
L 49.515625 72.90625 
L 49.515625 64.59375 
L 19.828125 64.59375 
L 19.828125 46.734375 
Q 21.96875 47.46875 24.109375 47.828125 
Q 26.265625 48.1875 28.421875 48.1875 
Q 40.625 48.1875 47.75 41.5 
Q 54.890625 34.8125 54.890625 23.390625 
Q 54.890625 11.625 47.5625 5.09375 
Q 40.234375 -1.421875 26.90625 -1.421875 
Q 22.3125 -1.421875 17.546875 -0.640625 
Q 12.796875 0.140625 7.71875 1.703125 
L 7.71875 11.625 
Q 12.109375 9.234375 16.796875 8.0625 
Q 21.484375 6.890625 26.703125 6.890625 
Q 35.15625 6.890625 40.078125 11.328125 
Q 45.015625 15.765625 45.015625 23.390625 
Q 45.015625 31 40.078125 35.4375 
Q 35.15625 39.890625 26.703125 39.890625 
Q 22.75 39.890625 18.8125 39.015625 
Q 14.890625 38.140625 10.796875 36.28125 
z
" id="DejaVuSans-35"/>
      </defs>
      <g transform="translate(84.357543 291.410437)scale(0.1 -0.1)">
       <use xlink:href="#DejaVuSans-32"/>
       <use x="63.623047" xlink:href="#DejaVuSans-35"/>
      </g>
     </g>
    </g>
    <g id="xtick_3">
     <g id="line2d_3">
      <g>
       <use style="stroke:#000000;stroke-width:0.8;" x="131.919858" xlink:href="#me32233ed2d" y="276.812"/>
      </g>
     </g>
     <g id="text_3">
      <!-- 50 -->
      <g transform="translate(125.557358 291.410437)scale(0.1 -0.1)">
       <use xlink:href="#DejaVuSans-35"/>
       <use x="63.623047" xlink:href="#DejaVuSans-30"/>
      </g>
     </g>
    </g>
    <g id="xtick_4">
     <g id="line2d_4">
      <g>
       <use style="stroke:#000000;stroke-width:0.8;" x="173.119674" xlink:href="#me32233ed2d" y="276.812"/>
      </g>
     </g>
     <g id="text_4">
      <!-- 75 -->
      <defs>
       <path d="M 8.203125 72.90625 
L 55.078125 72.90625 
L 55.078125 68.703125 
L 28.609375 0 
L 18.3125 0 
L 43.21875 64.59375 
L 8.203125 64.59375 
z
" id="DejaVuSans-37"/>
      </defs>
      <g transform="translate(166.757174 291.410437)scale(0.1 -0.1)">
       <use xlink:href="#DejaVuSans-37"/>
       <use x="63.623047" xlink:href="#DejaVuSans-35"/>
      </g>
     </g>
    </g>
    <g id="xtick_5">
     <g id="line2d_5">
      <g>
       <use style="stroke:#000000;stroke-width:0.8;" x="214.319489" xlink:href="#me32233ed2d" y="276.812"/>
      </g>
     </g>
     <g id="text_5">
      <!-- 100 -->
      <defs>
       <path d="M 12.40625 8.296875 
L 28.515625 8.296875 
L 28.515625 63.921875 
L 10.984375 60.40625 
L 10.984375 69.390625 
L 28.421875 72.90625 
L 38.28125 72.90625 
L 38.28125 8.296875 
L 54.390625 8.296875 
L 54.390625 0 
L 12.40625 0 
z
" id="DejaVuSans-31"/>
      </defs>
      <g transform="translate(204.775739 291.410437)scale(0.1 -0.1)">
       <use xlink:href="#DejaVuSans-31"/>
       <use x="63.623047" xlink:href="#DejaVuSans-30"/>
       <use x="127.246094" xlink:href="#DejaVuSans-30"/>
      </g>
     </g>
    </g>
    <g id="xtick_6">
     <g id="line2d_6">
      <g>
       <use style="stroke:#000000;stroke-width:0.8;" x="255.519304" xlink:href="#me32233ed2d" y="276.812"/>
      </g>
     </g>
     <g id="text_6">
      <!-- 125 -->
      <g transform="translate(245.975554 291.410437)scale(0.1 -0.1)">
       <use xlink:href="#DejaVuSans-31"/>
       <use x="63.623047" xlink:href="#DejaVuSans-32"/>
       <use x="127.246094" xlink:href="#DejaVuSans-35"/>
      </g>
     </g>
    </g>
    <g id="xtick_7">
     <g id="line2d_7">
      <g>
       <use style="stroke:#000000;stroke-width:0.8;" x="296.71912" xlink:href="#me32233ed2d" y="276.812"/>
      </g>
     </g>
     <g id="text_7">
      <!-- 150 -->
      <g transform="translate(287.17537 291.410437)scale(0.1 -0.1)">
       <use xlink:href="#DejaVuSans-31"/>
       <use x="63.623047" xlink:href="#DejaVuSans-35"/>
       <use x="127.246094" xlink:href="#DejaVuSans-30"/>
      </g>
     </g>
    </g>
    <g id="xtick_8">
     <g id="line2d_8">
      <g>
       <use style="stroke:#000000;stroke-width:0.8;" x="337.918935" xlink:href="#me32233ed2d" y="276.812"/>
      </g>
     </g>
     <g id="text_8">
      <!-- 175 -->
      <g transform="translate(328.375185 291.410437)scale(0.1 -0.1)">
       <use xlink:href="#DejaVuSans-31"/>
       <use x="63.623047" xlink:href="#DejaVuSans-37"/>
       <use x="127.246094" xlink:href="#DejaVuSans-35"/>
      </g>
     </g>
    </g>
    <g id="xtick_9">
     <g id="line2d_9">
      <g>
       <use style="stroke:#000000;stroke-width:0.8;" x="379.118751" xlink:href="#me32233ed2d" y="276.812"/>
      </g>
     </g>
     <g id="text_9">
      <!-- 200 -->
      <g transform="translate(369.575001 291.410437)scale(0.1 -0.1)">
       <use xlink:href="#DejaVuSans-32"/>
       <use x="63.623047" xlink:href="#DejaVuSans-30"/>
       <use x="127.246094" xlink:href="#DejaVuSans-30"/>
      </g>
     </g>
    </g>
   </g>
   <g id="matplotlib.axis_2">
    <g id="ytick_1">
     <g id="line2d_10">
      <defs>
       <path d="M 0 0 
L -3.5 0 
" id="m8dfb4d55df" style="stroke:#000000;stroke-width:0.8;"/>
      </defs>
      <g>
       <use style="stroke:#000000;stroke-width:0.8;" x="33.2875" xlink:href="#m8dfb4d55df" y="264.716"/>
      </g>
     </g>
     <g id="text_10">
      <!-- 0 -->
      <g transform="translate(19.925 268.515219)scale(0.1 -0.1)">
       <use xlink:href="#DejaVuSans-30"/>
      </g>
     </g>
    </g>
    <g id="ytick_2">
     <g id="line2d_11">
      <g>
       <use style="stroke:#000000;stroke-width:0.8;" x="33.2875" xlink:href="#m8dfb4d55df" y="216.332"/>
      </g>
     </g>
     <g id="text_11">
      <!-- 20 -->
      <g transform="translate(13.5625 220.131219)scale(0.1 -0.1)">
       <use xlink:href="#DejaVuSans-32"/>
       <use x="63.623047" xlink:href="#DejaVuSans-30"/>
      </g>
     </g>
    </g>
    <g id="ytick_3">
     <g id="line2d_12">
      <g>
       <use style="stroke:#000000;stroke-width:0.8;" x="33.2875" xlink:href="#m8dfb4d55df" y="167.948"/>
      </g>
     </g>
     <g id="text_12">
      <!-- 40 -->
      <defs>
       <path d="M 37.796875 64.3125 
L 12.890625 25.390625 
L 37.796875 25.390625 
z
M 35.203125 72.90625 
L 47.609375 72.90625 
L 47.609375 25.390625 
L 58.015625 25.390625 
L 58.015625 17.1875 
L 47.609375 17.1875 
L 47.609375 0 
L 37.796875 0 
L 37.796875 17.1875 
L 4.890625 17.1875 
L 4.890625 26.703125 
z
" id="DejaVuSans-34"/>
      </defs>
      <g transform="translate(13.5625 171.747219)scale(0.1 -0.1)">
       <use xlink:href="#DejaVuSans-34"/>
       <use x="63.623047" xlink:href="#DejaVuSans-30"/>
      </g>
     </g>
    </g>
    <g id="ytick_4">
     <g id="line2d_13">
      <g>
       <use style="stroke:#000000;stroke-width:0.8;" x="33.2875" xlink:href="#m8dfb4d55df" y="119.564"/>
      </g>
     </g>
     <g id="text_13">
      <!-- 60 -->
      <defs>
       <path d="M 33.015625 40.375 
Q 26.375 40.375 22.484375 35.828125 
Q 18.609375 31.296875 18.609375 23.390625 
Q 18.609375 15.53125 22.484375 10.953125 
Q 26.375 6.390625 33.015625 6.390625 
Q 39.65625 6.390625 43.53125 10.953125 
Q 47.40625 15.53125 47.40625 23.390625 
Q 47.40625 31.296875 43.53125 35.828125 
Q 39.65625 40.375 33.015625 40.375 
M 52.59375 71.296875 
L 52.59375 62.3125 
Q 48.875 64.0625 45.09375 64.984375 
Q 41.3125 65.921875 37.59375 65.921875 
Q 27.828125 65.921875 22.671875 59.328125 
Q 17.53125 52.734375 16.796875 39.40625 
Q 19.671875 43.65625 24.015625 45.921875 
Q 28.375 48.1875 33.59375 48.1875 
Q 44.578125 48.1875 50.953125 41.515625 
Q 57.328125 34.859375 57.328125 23.390625 
Q 57.328125 12.15625 50.6875 5.359375 
Q 44.046875 -1.421875 33.015625 -1.421875 
Q 20.359375 -1.421875 13.671875 8.265625 
Q 6.984375 17.96875 6.984375 36.375 
Q 6.984375 53.65625 15.1875 63.9375 
Q 23.390625 74.21875 37.203125 74.21875 
Q 40.921875 74.21875 44.703125 73.484375 
Q 48.484375 72.75 52.59375 71.296875 
" id="DejaVuSans-36"/>
      </defs>
      <g transform="translate(13.5625 123.363219)scale(0.1 -0.1)">
       <use xlink:href="#DejaVuSans-36"/>
       <use x="63.623047" xlink:href="#DejaVuSans-30"/>
      </g>
     </g>
    </g>
    <g id="ytick_5">
     <g id="line2d_14">
      <g>
       <use style="stroke:#000000;stroke-width:0.8;" x="33.2875" xlink:href="#m8dfb4d55df" y="71.18"/>
      </g>
     </g>
     <g id="text_14">
      <!-- 80 -->
      <defs>
       <path d="M 31.78125 34.625 
Q 24.75 34.625 20.71875 30.859375 
Q 16.703125 27.09375 16.703125 20.515625 
Q 16.703125 13.921875 20.71875 10.15625 
Q 24.75 6.390625 31.78125 6.390625 
Q 38.8125 6.390625 42.859375 10.171875 
Q 46.921875 13.96875 46.921875 20.515625 
Q 46.921875 27.09375 42.890625 30.859375 
Q 38.875 34.625 31.78125 34.625 
M 21.921875 38.8125 
Q 15.578125 40.375 12.03125 44.71875 
Q 8.5 49.078125 8.5 55.328125 
Q 8.5 64.0625 14.71875 69.140625 
Q 20.953125 74.21875 31.78125 74.21875 
Q 42.671875 74.21875 48.875 69.140625 
Q 55.078125 64.0625 55.078125 55.328125 
Q 55.078125 49.078125 51.53125 44.71875 
Q 48 40.375 41.703125 38.8125 
Q 48.828125 37.15625 52.796875 32.3125 
Q 56.78125 27.484375 56.78125 20.515625 
Q 56.78125 9.90625 50.3125 4.234375 
Q 43.84375 -1.421875 31.78125 -1.421875 
Q 19.734375 -1.421875 13.25 4.234375 
Q 6.78125 9.90625 6.78125 20.515625 
Q 6.78125 27.484375 10.78125 32.3125 
Q 14.796875 37.15625 21.921875 38.8125 
M 18.3125 54.390625 
Q 18.3125 48.734375 21.84375 45.5625 
Q 25.390625 42.390625 31.78125 42.390625 
Q 38.140625 42.390625 41.71875 45.5625 
Q 45.3125 48.734375 45.3125 54.390625 
Q 45.3125 60.0625 41.71875 63.234375 
Q 38.140625 66.40625 31.78125 66.40625 
Q 25.390625 66.40625 21.84375 63.234375 
Q 18.3125 60.0625 18.3125 54.390625 
" id="DejaVuSans-38"/>
      </defs>
      <g transform="translate(13.5625 74.979219)scale(0.1 -0.1)">
       <use xlink:href="#DejaVuSans-38"/>
       <use x="63.623047" xlink:href="#DejaVuSans-30"/>
      </g>
     </g>
    </g>
    <g id="ytick_6">
     <g id="line2d_15">
      <g>
       <use style="stroke:#000000;stroke-width:0.8;" x="33.2875" xlink:href="#m8dfb4d55df" y="22.796"/>
      </g>
     </g>
     <g id="text_15">
      <!-- 100 -->
      <g transform="translate(7.2 26.595219)scale(0.1 -0.1)">
       <use xlink:href="#DejaVuSans-31"/>
       <use x="63.623047" xlink:href="#DejaVuSans-30"/>
       <use x="127.246094" xlink:href="#DejaVuSans-30"/>
      </g>
     </g>
    </g>
   </g>
   <g id="line2d_16">
    <path clip-path="url(#pe84246624b)" d="M 49.520227 264.716 
L 51.16822 213.9128 
L 52.816213 199.3976 
L 57.76019 199.3976 
L 59.408183 213.9128 
L 61.056176 172.7864 
L 62.704168 182.4632 
L 64.352161 182.4632 
L 66.000153 209.0744 
L 72.592124 209.0744 
L 74.240117 216.332 
L 75.888109 209.0744 
L 77.536102 238.1048 
L 79.184094 230.8472 
L 80.832087 240.524 
L 82.48008 240.524 
L 84.128072 223.5896 
L 85.776065 201.8168 
L 87.424057 230.8472 
L 89.07205 245.3624 
L 90.720043 213.9128 
L 92.368035 216.332 
L 94.016028 167.948 
L 95.664021 160.6904 
L 97.312013 192.14 
L 98.960006 192.14 
L 100.607998 199.3976 
L 102.255991 213.9128 
L 103.903984 226.0088 
L 105.551976 226.0088 
L 107.199969 223.5896 
L 108.847961 180.044 
L 110.495954 165.5288 
L 112.143947 180.044 
L 113.791939 172.7864 
L 115.439932 180.044 
L 117.087925 192.14 
L 118.735917 182.4632 
L 120.38391 180.044 
L 122.031902 172.7864 
L 123.679895 172.7864 
L 125.327888 180.044 
L 126.97588 201.8168 
L 128.623873 209.0744 
L 130.271865 209.0744 
L 131.919858 201.8168 
L 133.567851 165.5288 
L 135.215843 160.6904 
L 136.863836 201.8168 
L 138.511829 182.4632 
L 140.159821 216.332 
L 141.807814 226.0088 
L 143.455806 182.4632 
L 145.103799 199.3976 
L 146.751792 209.0744 
L 148.399784 233.2664 
L 150.047777 245.3624 
L 151.695769 238.1048 
L 153.343762 209.0744 
L 154.991755 165.5288 
L 156.639747 141.3368 
L 158.28774 126.8216 
L 159.935733 141.3368 
L 161.583725 160.6904 
L 163.231718 148.5944 
L 164.87971 160.6904 
L 168.175696 141.3368 
L 169.823688 160.6904 
L 171.471681 172.7864 
L 173.119674 180.044 
L 176.415659 151.0136 
L 178.063651 160.6904 
L 179.711644 192.14 
L 183.007629 206.6552 
L 184.655622 172.7864 
L 186.303614 158.2712 
L 187.951607 151.0136 
L 189.5996 167.948 
L 191.247592 213.9128 
L 192.895585 199.3976 
L 194.543578 245.3624 
L 196.19157 216.332 
L 197.839563 182.4632 
L 199.487555 199.3976 
L 201.135548 151.0136 
L 202.783541 172.7864 
L 204.431533 192.14 
L 206.079526 141.3368 
L 207.727518 141.3368 
L 211.023504 117.1448 
L 212.671496 143.756 
L 214.319489 143.756 
L 215.967482 182.4632 
L 217.615474 182.4632 
L 219.263467 194.5592 
L 222.559452 209.0744 
L 224.207445 201.8168 
L 225.855437 192.14 
L 227.50343 160.6904 
L 229.151422 141.3368 
L 230.799415 141.3368 
L 232.447408 148.5944 
L 234.0954 167.948 
L 235.743393 175.2056 
L 237.391386 167.948 
L 239.039378 167.948 
L 240.687371 182.4632 
L 242.335363 209.0744 
L 243.983356 209.0744 
L 245.631349 194.5592 
L 247.279341 192.14 
L 248.927334 172.7864 
L 252.223319 148.5944 
L 253.871312 165.5288 
L 257.167297 165.5288 
L 258.81529 192.14 
L 260.463282 194.5592 
L 262.111275 206.6552 
L 263.759267 182.4632 
L 265.40726 160.6904 
L 267.055253 158.2712 
L 268.703245 151.0136 
L 270.351238 160.6904 
L 271.999231 158.2712 
L 280.239194 158.2712 
L 281.887186 172.7864 
L 283.535179 165.5288 
L 285.183171 165.5288 
L 286.831164 151.0136 
L 288.479157 151.0136 
L 290.127149 141.3368 
L 291.775142 136.4984 
L 293.423135 136.4984 
L 296.71912 160.6904 
L 298.367112 175.2056 
L 300.015105 209.0744 
L 301.663098 199.3976 
L 303.31109 165.5288 
L 304.959083 160.6904 
L 306.607075 129.2408 
L 308.255068 141.3368 
L 309.903061 141.3368 
L 311.551053 165.5288 
L 313.199046 160.6904 
L 314.847039 175.2056 
L 316.495031 180.044 
L 318.143024 167.948 
L 319.791016 141.3368 
L 321.439009 85.6952 
L 324.734994 85.6952 
L 324.734994 85.6952 
" style="fill:none;stroke:#1f77b4;stroke-linecap:square;stroke-width:0.5;"/>
   </g>
   <g id="line2d_17">
    <path clip-path="url(#pe84246624b)" d="M 49.520227 264.716 
L 370.878787 264.716 
L 370.878787 264.716 
" style="fill:none;stroke:#ff7f0e;stroke-linecap:square;stroke-width:0.5;"/>
   </g>
   <g id="line2d_18">
    <path clip-path="url(#pe84246624b)" d="M 49.520227 264.716 
L 51.16822 148.5944 
L 52.816213 160.6904 
L 54.464205 136.4984 
L 56.112198 148.5944 
L 57.76019 180.044 
L 59.408183 167.948 
L 61.056176 172.7864 
L 62.704168 165.5288 
L 64.352161 143.756 
L 66.000153 160.6904 
L 67.648146 151.0136 
L 69.296139 148.5944 
L 70.944131 206.6552 
L 72.592124 182.4632 
L 74.240117 194.5592 
L 75.888109 213.9128 
L 77.536102 182.4632 
L 79.184094 201.8168 
L 80.832087 194.5592 
L 82.48008 182.4632 
L 84.128072 165.5288 
L 85.776065 158.2712 
L 87.424057 167.948 
L 89.07205 143.756 
L 90.720043 172.7864 
L 92.368035 143.756 
L 94.016028 134.0792 
L 95.664021 136.4984 
L 97.312013 85.6952 
L 98.960006 129.2408 
L 100.607998 129.2408 
L 102.255991 136.4984 
L 103.903984 165.5288 
L 105.551976 158.2712 
L 107.199969 160.6904 
L 108.847961 151.0136 
L 110.495954 134.0792 
L 112.143947 148.5944 
L 115.439932 148.5944 
L 117.087925 136.4984 
L 118.735917 167.948 
L 120.38391 167.948 
L 122.031902 165.5288 
L 123.679895 180.044 
L 125.327888 151.0136 
L 126.97588 160.6904 
L 128.623873 148.5944 
L 130.271865 129.2408 
L 131.919858 141.3368 
L 133.567851 175.2056 
L 135.215843 194.5592 
L 138.511829 194.5592 
L 140.159821 148.5944 
L 141.807814 134.0792 
L 143.455806 141.3368 
L 145.103799 143.756 
L 146.751792 165.5288 
L 148.399784 172.7864 
L 150.047777 167.948 
L 151.695769 165.5288 
L 153.343762 158.2712 
L 154.991755 136.4984 
L 156.639747 134.0792 
L 158.28774 112.3064 
L 159.935733 126.8216 
L 161.583725 129.2408 
L 163.231718 117.1448 
L 164.87971 136.4984 
L 166.527703 192.14 
L 168.175696 206.6552 
L 169.823688 206.6552 
L 171.471681 216.332 
L 173.119674 180.044 
L 174.767666 172.7864 
L 176.415659 167.948 
L 178.063651 134.0792 
L 179.711644 160.6904 
L 181.359637 172.7864 
L 183.007629 199.3976 
L 184.655622 216.332 
L 186.303614 199.3976 
L 187.951607 180.044 
L 189.5996 165.5288 
L 191.247592 134.0792 
L 192.895585 129.2408 
L 194.543578 117.1448 
L 196.19157 141.3368 
L 197.839563 199.3976 
L 199.487555 201.8168 
L 201.135548 216.332 
L 202.783541 216.332 
L 204.431533 201.8168 
L 206.079526 180.044 
L 207.727518 180.044 
L 209.375511 172.7864 
L 211.023504 167.948 
L 212.671496 175.2056 
L 214.319489 143.756 
L 215.967482 117.1448 
L 217.615474 126.8216 
L 219.263467 105.0488 
L 220.911459 129.2408 
L 222.559452 109.8872 
L 224.207445 112.3064 
L 225.855437 126.8216 
L 227.50343 105.0488 
L 229.151422 129.2408 
L 230.799415 83.276 
L 232.447408 102.6296 
L 234.0954 117.1448 
L 235.743393 119.564 
L 237.391386 143.756 
L 239.039378 129.2408 
L 240.687371 119.564 
L 242.335363 136.4984 
L 243.983356 160.6904 
L 245.631349 182.4632 
L 247.279341 192.14 
L 248.927334 167.948 
L 250.575326 126.8216 
L 252.223319 109.8872 
L 253.871312 97.7912 
L 255.519304 97.7912 
L 257.167297 105.0488 
L 258.81529 102.6296 
L 260.463282 141.3368 
L 262.111275 143.756 
L 263.759267 141.3368 
L 265.40726 112.3064 
L 267.055253 78.4376 
L 268.703245 71.18 
L 271.999231 167.948 
L 273.647223 160.6904 
L 275.295216 160.6904 
L 276.943208 151.0136 
L 278.591201 175.2056 
L 281.887186 209.0744 
L 283.535179 182.4632 
L 285.183171 167.948 
L 288.479157 134.0792 
L 290.127149 126.8216 
L 291.775142 95.372 
L 293.423135 78.4376 
L 295.071127 95.372 
L 296.71912 109.8872 
L 298.367112 151.0136 
L 300.015105 158.2712 
L 301.663098 151.0136 
L 303.31109 141.3368 
L 304.959083 105.0488 
L 306.607075 151.0136 
L 308.255068 160.6904 
L 309.903061 158.2712 
L 311.551053 165.5288 
L 313.199046 143.756 
L 314.847039 167.948 
L 316.495031 201.8168 
L 318.143024 180.044 
L 319.791016 167.948 
L 321.439009 117.1448 
L 323.087002 105.0488 
L 324.734994 134.0792 
L 326.382987 143.756 
L 328.030979 151.0136 
L 329.678972 143.756 
L 331.326965 148.5944 
L 332.974957 160.6904 
L 334.62295 165.5288 
L 336.270943 134.0792 
L 337.918935 117.1448 
L 339.566928 83.276 
L 341.21492 85.6952 
L 342.862913 112.3064 
L 344.510906 141.3368 
L 346.158898 148.5944 
L 347.806891 148.5944 
L 349.454883 165.5288 
L 351.102876 151.0136 
L 352.750869 158.2712 
L 354.398861 158.2712 
L 356.046854 160.6904 
L 357.694847 165.5288 
L 359.342839 194.5592 
L 360.990832 192.14 
L 362.638824 165.5288 
L 364.286817 141.3368 
L 365.93481 119.564 
L 367.582802 112.3064 
L 370.878787 160.6904 
L 370.878787 160.6904 
" style="fill:none;stroke:#2ca02c;stroke-linecap:square;stroke-width:0.5;"/>
   </g>
   <g id="line2d_19">
    <path clip-path="url(#pe84246624b)" d="M 49.520227 264.716 
L 51.16822 206.6552 
L 52.816213 180.044 
L 54.464205 172.7864 
L 56.112198 175.2056 
L 57.76019 160.6904 
L 59.408183 199.3976 
L 61.056176 201.8168 
L 64.352161 226.0088 
L 66.000153 209.0744 
L 67.648146 194.5592 
L 69.296139 158.2712 
L 70.944131 160.6904 
L 72.592124 143.756 
L 74.240117 136.4984 
L 75.888109 160.6904 
L 77.536102 180.044 
L 79.184094 216.332 
L 80.832087 194.5592 
L 82.48008 182.4632 
L 84.128072 136.4984 
L 85.776065 134.0792 
L 87.424057 167.948 
L 89.07205 148.5944 
L 90.720043 141.3368 
L 92.368035 136.4984 
L 94.016028 109.8872 
L 95.664021 105.0488 
L 97.312013 129.2408 
L 98.960006 83.276 
L 100.607998 119.564 
L 102.255991 119.564 
L 103.903984 102.6296 
L 105.551976 105.0488 
L 107.199969 76.0184 
L 108.847961 109.8872 
L 110.495954 119.564 
L 112.143947 160.6904 
L 113.791939 172.7864 
L 115.439932 143.756 
L 117.087925 148.5944 
L 118.735917 141.3368 
L 120.38391 148.5944 
L 122.031902 143.756 
L 123.679895 119.564 
L 125.327888 134.0792 
L 126.97588 105.0488 
L 128.623873 126.8216 
L 130.271865 141.3368 
L 131.919858 117.1448 
L 133.567851 105.0488 
L 135.215843 85.6952 
L 136.863836 68.7608 
L 138.511829 76.0184 
L 140.159821 109.8872 
L 141.807814 136.4984 
L 143.455806 136.4984 
L 145.103799 129.2408 
L 146.751792 141.3368 
L 148.399784 141.3368 
L 150.047777 165.5288 
L 151.695769 148.5944 
L 153.343762 112.3064 
L 154.991755 85.6952 
L 156.639747 61.5032 
L 158.28774 85.6952 
L 159.935733 85.6952 
L 161.583725 76.0184 
L 163.231718 85.6952 
L 164.87971 78.4376 
L 166.527703 126.8216 
L 168.175696 141.3368 
L 169.823688 143.756 
L 171.471681 165.5288 
L 173.119674 143.756 
L 174.767666 117.1448 
L 176.415659 119.564 
L 178.063651 112.3064 
L 179.711644 85.6952 
L 181.359637 119.564 
L 183.007629 134.0792 
L 184.655622 109.8872 
L 186.303614 112.3064 
L 187.951607 112.3064 
L 189.5996 95.372 
L 191.247592 134.0792 
L 192.895585 129.2408 
L 194.543578 105.0488 
L 196.19157 117.1448 
L 197.839563 95.372 
L 199.487555 117.1448 
L 201.135548 129.2408 
L 202.783541 102.6296 
L 204.431533 109.8872 
L 207.727518 109.8872 
L 209.375511 143.756 
L 212.671496 143.756 
L 214.319489 141.3368 
L 215.967482 158.2712 
L 217.615474 148.5944 
L 219.263467 167.948 
L 220.911459 213.9128 
L 222.559452 167.948 
L 224.207445 158.2712 
L 225.855437 141.3368 
L 227.50343 105.0488 
L 230.799415 134.0792 
L 232.447408 134.0792 
L 234.0954 119.564 
L 235.743393 126.8216 
L 237.391386 126.8216 
L 239.039378 119.564 
L 240.687371 167.948 
L 242.335363 158.2712 
L 243.983356 141.3368 
L 245.631349 167.948 
L 247.279341 136.4984 
L 248.927334 136.4984 
L 250.575326 172.7864 
L 252.223319 167.948 
L 253.871312 165.5288 
L 255.519304 167.948 
L 257.167297 165.5288 
L 258.81529 129.2408 
L 260.463282 126.8216 
L 262.111275 141.3368 
L 263.759267 119.564 
L 265.40726 160.6904 
L 268.703245 175.2056 
L 270.351238 213.9128 
L 271.999231 192.14 
L 273.647223 167.948 
L 275.295216 141.3368 
L 276.943208 126.8216 
L 278.591201 136.4984 
L 280.239194 143.756 
L 281.887186 136.4984 
L 283.535179 167.948 
L 285.183171 194.5592 
L 286.831164 172.7864 
L 288.479157 182.4632 
L 290.127149 180.044 
L 291.775142 151.0136 
L 293.423135 158.2712 
L 295.071127 158.2712 
L 296.71912 167.948 
L 298.367112 180.044 
L 300.015105 172.7864 
L 301.663098 158.2712 
L 303.31109 160.6904 
L 304.959083 158.2712 
L 306.607075 194.5592 
L 308.255068 209.0744 
L 309.903061 213.9128 
L 311.551053 209.0744 
L 313.199046 167.948 
L 314.847039 206.6552 
L 316.495031 180.044 
L 318.143024 175.2056 
L 319.791016 192.14 
L 321.439009 119.564 
L 323.087002 129.2408 
L 324.734994 126.8216 
L 326.382987 112.3064 
L 328.030979 109.8872 
L 329.678972 97.7912 
L 331.326965 78.4376 
L 332.974957 76.0184 
L 334.62295 71.18 
L 336.270943 54.2456 
L 337.918935 71.18 
L 339.566928 46.988 
L 341.21492 71.18 
L 342.862913 102.6296 
L 344.510906 105.0488 
L 346.158898 105.0488 
L 351.102876 76.0184 
L 352.750869 102.6296 
L 354.398861 112.3064 
L 356.046854 112.3064 
L 357.694847 102.6296 
L 359.342839 112.3064 
L 362.638824 126.8216 
L 364.286817 129.2408 
L 365.93481 126.8216 
L 367.582802 136.4984 
L 369.230795 148.5944 
L 370.878787 167.948 
L 370.878787 167.948 
" style="fill:none;stroke:#d62728;stroke-linecap:square;stroke-width:0.5;"/>
   </g>
   <g id="line2d_20">
    <path clip-path="url(#pe84246624b)" d="M 49.520227 264.716 
L 51.16822 129.2408 
L 52.816213 112.3064 
L 54.464205 180.044 
L 56.112198 158.2712 
L 57.76019 148.5944 
L 59.408183 134.0792 
L 61.056176 117.1448 
L 64.352161 201.8168 
L 66.000153 206.6552 
L 67.648146 199.3976 
L 69.296139 199.3976 
L 72.592124 213.9128 
L 74.240117 226.0088 
L 75.888109 213.9128 
L 77.536102 223.5896 
L 79.184094 255.0392 
L 80.832087 230.8472 
L 82.48008 257.4584 
L 84.128072 257.4584 
L 85.776065 230.8472 
L 87.424057 262.2968 
L 89.07205 247.7816 
L 90.720043 213.9128 
L 92.368035 216.332 
L 94.016028 192.14 
L 95.664021 172.7864 
L 97.312013 158.2712 
L 98.960006 165.5288 
L 100.607998 126.8216 
L 102.255991 102.6296 
L 103.903984 102.6296 
L 105.551976 119.564 
L 107.199969 129.2408 
L 108.847961 180.044 
L 110.495954 206.6552 
L 112.143947 182.4632 
L 113.791939 167.948 
L 115.439932 105.0488 
L 117.087925 148.5944 
L 118.735917 151.0136 
L 120.38391 143.756 
L 122.031902 180.044 
L 123.679895 141.3368 
L 125.327888 151.0136 
L 126.97588 143.756 
L 128.623873 134.0792 
L 130.271865 129.2408 
L 131.919858 160.6904 
L 133.567851 160.6904 
L 135.215843 158.2712 
L 136.863836 141.3368 
L 138.511829 119.564 
L 140.159821 119.564 
L 141.807814 134.0792 
L 143.455806 160.6904 
L 145.103799 143.756 
L 146.751792 148.5944 
L 148.399784 141.3368 
L 150.047777 85.6952 
L 151.695769 83.276 
L 153.343762 68.7608 
L 154.991755 71.18 
L 156.639747 95.372 
L 158.28774 105.0488 
L 159.935733 119.564 
L 161.583725 126.8216 
L 163.231718 126.8216 
L 164.87971 119.564 
L 166.527703 97.7912 
L 168.175696 95.372 
L 169.823688 105.0488 
L 171.471681 95.372 
L 173.119674 119.564 
L 174.767666 158.2712 
L 176.415659 158.2712 
L 178.063651 182.4632 
L 179.711644 160.6904 
L 181.359637 112.3064 
L 183.007629 97.7912 
L 184.655622 51.8264 
L 186.303614 71.18 
L 187.951607 95.372 
L 189.5996 134.0792 
L 191.247592 167.948 
L 192.895585 175.2056 
L 194.543578 165.5288 
L 196.19157 126.8216 
L 197.839563 119.564 
L 199.487555 97.7912 
L 201.135548 112.3064 
L 202.783541 109.8872 
L 204.431533 95.372 
L 206.079526 136.4984 
L 207.727518 151.0136 
L 215.967482 151.0136 
L 217.615474 165.5288 
L 219.263467 182.4632 
L 220.911459 182.4632 
L 222.559452 158.2712 
L 224.207445 129.2408 
L 225.855437 141.3368 
L 227.50343 141.3368 
L 229.151422 165.5288 
L 230.799415 151.0136 
L 232.447408 192.14 
L 234.0954 175.2056 
L 235.743393 160.6904 
L 237.391386 209.0744 
L 239.039378 209.0744 
L 240.687371 213.9128 
L 242.335363 213.9128 
L 243.983356 182.4632 
L 255.519304 182.4632 
L 257.167297 172.7864 
L 258.81529 167.948 
L 263.759267 167.948 
L 265.40726 143.756 
L 267.055253 141.3368 
L 268.703245 141.3368 
L 271.999231 112.3064 
L 273.647223 126.8216 
L 275.295216 136.4984 
L 278.591201 165.5288 
L 280.239194 158.2712 
L 281.887186 117.1448 
L 283.535179 136.4984 
L 285.183171 117.1448 
L 286.831164 105.0488 
L 288.479157 109.8872 
L 290.127149 134.0792 
L 291.775142 160.6904 
L 293.423135 180.044 
L 295.071127 165.5288 
L 296.71912 129.2408 
L 298.367112 126.8216 
L 300.015105 148.5944 
L 301.663098 201.8168 
L 303.31109 194.5592 
L 304.959083 160.6904 
L 306.607075 136.4984 
L 308.255068 117.1448 
L 309.903061 105.0488 
L 311.551053 117.1448 
L 313.199046 151.0136 
L 314.847039 143.756 
L 316.495031 148.5944 
L 318.143024 158.2712 
L 319.791016 158.2712 
L 321.439009 160.6904 
L 323.087002 192.14 
L 324.734994 158.2712 
L 326.382987 165.5288 
L 328.030979 180.044 
L 329.678972 160.6904 
L 331.326965 167.948 
L 332.974957 134.0792 
L 334.62295 119.564 
L 336.270943 136.4984 
L 337.918935 158.2712 
L 339.566928 151.0136 
L 341.21492 151.0136 
L 342.862913 117.1448 
L 344.510906 105.0488 
L 346.158898 158.2712 
L 347.806891 165.5288 
L 349.454883 175.2056 
L 351.102876 167.948 
L 352.750869 134.0792 
L 354.398861 148.5944 
L 356.046854 134.0792 
L 357.694847 112.3064 
L 359.342839 102.6296 
L 360.990832 76.0184 
L 362.638824 119.564 
L 364.286817 180.044 
L 365.93481 180.044 
L 367.582802 182.4632 
L 369.230795 182.4632 
L 369.230795 182.4632 
" style="fill:none;stroke:#9467bd;stroke-linecap:square;stroke-width:0.5;"/>
   </g>
   <g id="line2d_21">
    <path clip-path="url(#pe84246624b)" d="M 49.520227 264.716 
L 51.16822 134.0792 
L 52.816213 117.1448 
L 54.464205 119.564 
L 57.76019 119.564 
L 59.408183 158.2712 
L 62.704168 158.2712 
L 64.352161 165.5288 
L 66.000153 158.2712 
L 67.648146 134.0792 
L 69.296139 129.2408 
L 70.944131 117.1448 
L 72.592124 129.2408 
L 74.240117 148.5944 
L 75.888109 165.5288 
L 77.536102 141.3368 
L 79.184094 143.756 
L 80.832087 148.5944 
L 82.48008 141.3368 
L 84.128072 165.5288 
L 85.776065 143.756 
L 87.424057 143.756 
L 89.07205 134.0792 
L 90.720043 141.3368 
L 92.368035 141.3368 
L 94.016028 126.8216 
L 95.664021 117.1448 
L 97.312013 119.564 
L 98.960006 134.0792 
L 100.607998 151.0136 
L 102.255991 148.5944 
L 103.903984 158.2712 
L 105.551976 141.3368 
L 107.199969 151.0136 
L 108.847961 158.2712 
L 110.495954 126.8216 
L 112.143947 102.6296 
L 113.791939 71.18 
L 115.439932 134.0792 
L 117.087925 175.2056 
L 118.735917 192.14 
L 120.38391 148.5944 
L 122.031902 134.0792 
L 123.679895 158.2712 
L 125.327888 192.14 
L 126.97588 175.2056 
L 128.623873 134.0792 
L 130.271865 134.0792 
L 131.919858 129.2408 
L 133.567851 136.4984 
L 135.215843 126.8216 
L 136.863836 112.3064 
L 138.511829 105.0488 
L 140.159821 109.8872 
L 141.807814 109.8872 
L 143.455806 85.6952 
L 145.103799 129.2408 
L 146.751792 119.564 
L 148.399784 148.5944 
L 150.047777 143.756 
L 151.695769 119.564 
L 153.343762 109.8872 
L 154.991755 78.4376 
L 156.639747 102.6296 
L 158.28774 95.372 
L 159.935733 78.4376 
L 161.583725 83.276 
L 163.231718 63.9224 
L 164.87971 63.9224 
L 166.527703 117.1448 
L 168.175696 109.8872 
L 169.823688 112.3064 
L 171.471681 117.1448 
L 173.119674 102.6296 
L 176.415659 136.4984 
L 178.063651 134.0792 
L 179.711644 129.2408 
L 181.359637 109.8872 
L 183.007629 109.8872 
L 184.655622 95.372 
L 186.303614 78.4376 
L 187.951607 95.372 
L 189.5996 95.372 
L 191.247592 105.0488 
L 192.895585 85.6952 
L 194.543578 97.7912 
L 196.19157 54.2456 
L 197.839563 68.7608 
L 199.487555 68.7608 
L 201.135548 158.2712 
L 202.783541 167.948 
L 204.431533 167.948 
L 206.079526 151.0136 
L 207.727518 148.5944 
L 209.375511 102.6296 
L 211.023504 68.7608 
L 212.671496 76.0184 
L 214.319489 68.7608 
L 215.967482 95.372 
L 217.615474 126.8216 
L 219.263467 151.0136 
L 220.911459 158.2712 
L 222.559452 160.6904 
L 224.207445 119.564 
L 225.855437 136.4984 
L 227.50343 141.3368 
L 229.151422 119.564 
L 230.799415 158.2712 
L 232.447408 97.7912 
L 234.0954 97.7912 
L 235.743393 76.0184 
L 237.391386 78.4376 
L 239.039378 85.6952 
L 240.687371 78.4376 
L 242.335363 112.3064 
L 243.983356 76.0184 
L 245.631349 76.0184 
L 247.279341 54.2456 
L 248.927334 102.6296 
L 250.575326 136.4984 
L 253.871312 151.0136 
L 255.519304 117.1448 
L 257.167297 119.564 
L 258.81529 151.0136 
L 260.463282 167.948 
L 262.111275 182.4632 
L 263.759267 160.6904 
L 265.40726 160.6904 
L 267.055253 151.0136 
L 268.703245 129.2408 
L 270.351238 126.8216 
L 271.999231 83.276 
L 273.647223 109.8872 
L 275.295216 117.1448 
L 276.943208 129.2408 
L 278.591201 148.5944 
L 280.239194 109.8872 
L 281.887186 97.7912 
L 283.535179 83.276 
L 285.183171 54.2456 
L 286.831164 54.2456 
L 288.479157 37.3112 
L 290.127149 44.5688 
L 291.775142 54.2456 
L 293.423135 51.8264 
L 295.071127 46.988 
L 296.71912 61.5032 
L 298.367112 46.988 
L 300.015105 54.2456 
L 301.663098 76.0184 
L 303.31109 76.0184 
L 304.959083 112.3064 
L 306.607075 105.0488 
L 308.255068 136.4984 
L 309.903061 129.2408 
L 311.551053 109.8872 
L 313.199046 126.8216 
L 314.847039 126.8216 
L 316.495031 95.372 
L 318.143024 112.3064 
L 319.791016 112.3064 
L 321.439009 85.6952 
L 323.087002 119.564 
L 324.734994 105.0488 
L 326.382987 102.6296 
L 328.030979 83.276 
L 329.678972 44.5688 
L 331.326965 54.2456 
L 332.974957 61.5032 
L 334.62295 85.6952 
L 336.270943 136.4984 
L 337.918935 129.2408 
L 339.566928 143.756 
L 341.21492 151.0136 
L 342.862913 143.756 
L 344.510906 148.5944 
L 346.158898 109.8872 
L 347.806891 109.8872 
L 349.454883 83.276 
L 351.102876 61.5032 
L 352.750869 46.988 
L 354.398861 71.18 
L 356.046854 76.0184 
L 357.694847 97.7912 
L 359.342839 112.3064 
L 360.990832 117.1448 
L 362.638824 136.4984 
L 362.638824 136.4984 
" style="fill:none;stroke:#8c564b;stroke-linecap:square;stroke-width:0.5;"/>
   </g>
   <g id="line2d_22">
    <path clip-path="url(#pe84246624b)" d="M 49.520227 264.716 
L 51.16822 119.564 
L 52.816213 134.0792 
L 54.464205 109.8872 
L 56.112198 126.8216 
L 57.76019 119.564 
L 59.408183 85.6952 
L 61.056176 105.0488 
L 62.704168 105.0488 
L 64.352161 134.0792 
L 66.000153 129.2408 
L 67.648146 119.564 
L 69.296139 134.0792 
L 70.944131 126.8216 
L 72.592124 151.0136 
L 75.888109 117.1448 
L 77.536102 126.8216 
L 79.184094 117.1448 
L 80.832087 141.3368 
L 82.48008 141.3368 
L 84.128072 126.8216 
L 85.776065 134.0792 
L 87.424057 136.4984 
L 89.07205 136.4984 
L 90.720043 151.0136 
L 92.368035 158.2712 
L 94.016028 141.3368 
L 95.664021 158.2712 
L 97.312013 141.3368 
L 98.960006 143.756 
L 100.607998 160.6904 
L 102.255991 129.2408 
L 103.903984 129.2408 
L 105.551976 112.3064 
L 107.199969 109.8872 
L 108.847961 158.2712 
L 110.495954 143.756 
L 112.143947 158.2712 
L 113.791939 148.5944 
L 115.439932 126.8216 
L 117.087925 112.3064 
L 118.735917 109.8872 
L 120.38391 112.3064 
L 122.031902 126.8216 
L 123.679895 129.2408 
L 125.327888 134.0792 
L 128.623873 105.0488 
L 130.271865 143.756 
L 131.919858 143.756 
L 133.567851 151.0136 
L 135.215843 160.6904 
L 136.863836 136.4984 
L 138.511829 141.3368 
L 140.159821 148.5944 
L 141.807814 143.756 
L 143.455806 151.0136 
L 145.103799 134.0792 
L 146.751792 119.564 
L 148.399784 119.564 
L 150.047777 97.7912 
L 151.695769 105.0488 
L 153.343762 109.8872 
L 154.991755 117.1448 
L 156.639747 134.0792 
L 158.28774 119.564 
L 159.935733 151.0136 
L 161.583725 151.0136 
L 164.87971 180.044 
L 166.527703 158.2712 
L 168.175696 134.0792 
L 169.823688 129.2408 
L 171.471681 134.0792 
L 173.119674 119.564 
L 174.767666 148.5944 
L 176.415659 126.8216 
L 178.063651 134.0792 
L 179.711644 136.4984 
L 181.359637 134.0792 
L 183.007629 126.8216 
L 184.655622 126.8216 
L 186.303614 134.0792 
L 187.951607 119.564 
L 189.5996 136.4984 
L 191.247592 129.2408 
L 192.895585 112.3064 
L 194.543578 109.8872 
L 196.19157 158.2712 
L 197.839563 141.3368 
L 199.487555 151.0136 
L 201.135548 165.5288 
L 202.783541 134.0792 
L 204.431533 167.948 
L 206.079526 180.044 
L 207.727518 206.6552 
L 209.375511 226.0088 
L 211.023504 201.8168 
L 212.671496 182.4632 
L 215.967482 182.4632 
L 217.615474 192.14 
L 219.263467 226.0088 
L 220.911459 257.4584 
L 222.559452 209.0744 
L 224.207445 209.0744 
L 225.855437 199.3976 
L 227.50343 126.8216 
L 229.151422 126.8216 
L 232.447408 78.4376 
L 234.0954 95.372 
L 235.743393 109.8872 
L 237.391386 141.3368 
L 242.335363 199.3976 
L 243.983356 158.2712 
L 245.631349 151.0136 
L 247.279341 160.6904 
L 248.927334 129.2408 
L 250.575326 129.2408 
L 252.223319 134.0792 
L 253.871312 105.0488 
L 255.519304 117.1448 
L 257.167297 158.2712 
L 258.81529 167.948 
L 260.463282 192.14 
L 262.111275 199.3976 
L 263.759267 158.2712 
L 265.40726 158.2712 
L 267.055253 151.0136 
L 268.703245 175.2056 
L 270.351238 180.044 
L 271.999231 175.2056 
L 273.647223 172.7864 
L 275.295216 141.3368 
L 276.943208 165.5288 
L 278.591201 141.3368 
L 280.239194 141.3368 
L 281.887186 172.7864 
L 283.535179 172.7864 
L 285.183171 180.044 
L 286.831164 206.6552 
L 288.479157 180.044 
L 290.127149 172.7864 
L 291.775142 158.2712 
L 293.423135 102.6296 
L 295.071127 105.0488 
L 296.71912 97.7912 
L 298.367112 129.2408 
L 300.015105 119.564 
L 301.663098 119.564 
L 303.31109 134.0792 
L 304.959083 117.1448 
L 306.607075 117.1448 
L 308.255068 148.5944 
L 309.903061 134.0792 
L 311.551053 158.2712 
L 313.199046 141.3368 
L 314.847039 151.0136 
L 316.495031 141.3368 
L 318.143024 160.6904 
L 319.791016 148.5944 
L 321.439009 143.756 
L 323.087002 119.564 
L 324.734994 126.8216 
L 326.382987 97.7912 
L 328.030979 112.3064 
L 329.678972 141.3368 
L 331.326965 126.8216 
L 332.974957 129.2408 
L 334.62295 158.2712 
L 336.270943 119.564 
L 337.918935 151.0136 
L 339.566928 151.0136 
L 341.21492 117.1448 
L 346.158898 167.948 
L 347.806891 182.4632 
L 349.454883 226.0088 
L 351.102876 182.4632 
L 352.750869 151.0136 
L 354.398861 182.4632 
L 356.046854 160.6904 
L 357.694847 165.5288 
L 359.342839 175.2056 
L 360.990832 129.2408 
L 362.638824 129.2408 
L 364.286817 143.756 
L 365.93481 160.6904 
L 367.582802 180.044 
L 369.230795 172.7864 
L 370.878787 167.948 
L 372.52678 167.948 
L 372.52678 167.948 
" style="fill:none;stroke:#e377c2;stroke-linecap:square;stroke-width:0.5;"/>
   </g>
   <g id="line2d_23">
    <path clip-path="url(#pe84246624b)" d="M 49.520227 264.716 
L 51.16822 194.5592 
L 52.816213 182.4632 
L 54.464205 182.4632 
L 56.112198 180.044 
L 57.76019 167.948 
L 59.408183 148.5944 
L 61.056176 151.0136 
L 62.704168 160.6904 
L 64.352161 165.5288 
L 66.000153 206.6552 
L 67.648146 213.9128 
L 70.944131 151.0136 
L 72.592124 151.0136 
L 74.240117 97.7912 
L 75.888109 117.1448 
L 77.536102 129.2408 
L 79.184094 112.3064 
L 80.832087 148.5944 
L 82.48008 158.2712 
L 85.776065 143.756 
L 87.424057 141.3368 
L 89.07205 129.2408 
L 90.720043 167.948 
L 92.368035 167.948 
L 94.016028 206.6552 
L 95.664021 223.5896 
L 97.312013 238.1048 
L 98.960006 262.2968 
L 100.607998 238.1048 
L 102.255991 223.5896 
L 103.903984 182.4632 
L 105.551976 167.948 
L 107.199969 151.0136 
L 108.847961 160.6904 
L 110.495954 158.2712 
L 112.143947 158.2712 
L 113.791939 175.2056 
L 115.439932 158.2712 
L 117.087925 172.7864 
L 118.735917 167.948 
L 120.38391 192.14 
L 122.031902 172.7864 
L 123.679895 160.6904 
L 125.327888 199.3976 
L 126.97588 206.6552 
L 128.623873 262.2968 
L 130.271865 262.2968 
L 131.919858 245.3624 
L 133.567851 209.0744 
L 135.215843 192.14 
L 138.511829 172.7864 
L 140.159821 160.6904 
L 141.807814 180.044 
L 143.455806 201.8168 
L 145.103799 233.2664 
L 146.751792 201.8168 
L 148.399784 213.9128 
L 150.047777 194.5592 
L 151.695769 180.044 
L 153.343762 175.2056 
L 154.991755 134.0792 
L 156.639747 126.8216 
L 158.28774 117.1448 
L 159.935733 109.8872 
L 161.583725 136.4984 
L 163.231718 165.5288 
L 164.87971 160.6904 
L 166.527703 172.7864 
L 168.175696 148.5944 
L 169.823688 129.2408 
L 171.471681 102.6296 
L 173.119674 54.2456 
L 174.767666 102.6296 
L 176.415659 95.372 
L 178.063651 141.3368 
L 179.711644 192.14 
L 181.359637 165.5288 
L 183.007629 167.948 
L 184.655622 158.2712 
L 186.303614 126.8216 
L 187.951607 119.564 
L 189.5996 141.3368 
L 191.247592 126.8216 
L 192.895585 119.564 
L 194.543578 117.1448 
L 196.19157 112.3064 
L 197.839563 109.8872 
L 199.487555 148.5944 
L 202.783541 172.7864 
L 204.431533 194.5592 
L 206.079526 165.5288 
L 207.727518 143.756 
L 209.375511 129.2408 
L 211.023504 172.7864 
L 212.671496 175.2056 
L 214.319489 192.14 
L 215.967482 192.14 
L 217.615474 165.5288 
L 219.263467 165.5288 
L 220.911459 167.948 
L 222.559452 148.5944 
L 224.207445 151.0136 
L 225.855437 172.7864 
L 227.50343 148.5944 
L 229.151422 194.5592 
L 232.447408 126.8216 
L 234.0954 136.4984 
L 235.743393 109.8872 
L 237.391386 97.7912 
L 239.039378 109.8872 
L 240.687371 105.0488 
L 242.335363 95.372 
L 243.983356 119.564 
L 245.631349 158.2712 
L 247.279341 167.948 
L 248.927334 194.5592 
L 250.575326 180.044 
L 252.223319 167.948 
L 253.871312 158.2712 
L 255.519304 167.948 
L 257.167297 180.044 
L 258.81529 151.0136 
L 260.463282 167.948 
L 262.111275 141.3368 
L 263.759267 119.564 
L 265.40726 129.2408 
L 267.055253 134.0792 
L 268.703245 141.3368 
L 270.351238 172.7864 
L 271.999231 172.7864 
L 273.647223 158.2712 
L 275.295216 167.948 
L 276.943208 175.2056 
L 278.591201 201.8168 
L 280.239194 199.3976 
L 281.887186 199.3976 
L 283.535179 192.14 
L 285.183171 167.948 
L 286.831164 192.14 
L 288.479157 206.6552 
L 290.127149 182.4632 
L 291.775142 175.2056 
L 293.423135 158.2712 
L 295.071127 160.6904 
L 296.71912 160.6904 
L 298.367112 158.2712 
L 300.015105 192.14 
L 301.663098 158.2712 
L 303.31109 148.5944 
L 304.959083 143.756 
L 306.607075 148.5944 
L 308.255068 158.2712 
L 309.903061 175.2056 
L 311.551053 143.756 
L 313.199046 126.8216 
L 314.847039 105.0488 
L 316.495031 85.6952 
L 319.791016 109.8872 
L 321.439009 126.8216 
L 323.087002 134.0792 
L 324.734994 134.0792 
L 326.382987 151.0136 
L 328.030979 151.0136 
L 329.678972 180.044 
L 331.326965 226.0088 
L 332.974957 216.332 
L 334.62295 247.7816 
L 336.270943 247.7816 
L 337.918935 216.332 
L 339.566928 216.332 
L 341.21492 165.5288 
L 342.862913 134.0792 
L 344.510906 141.3368 
L 346.158898 136.4984 
L 347.806891 201.8168 
L 349.454883 226.0088 
L 351.102876 245.3624 
L 352.750869 240.524 
L 354.398861 213.9128 
L 356.046854 194.5592 
L 357.694847 143.756 
L 359.342839 148.5944 
L 360.990832 136.4984 
L 364.286817 151.0136 
L 365.93481 151.0136 
L 367.582802 158.2712 
L 369.230795 158.2712 
L 370.878787 194.5592 
L 374.174773 209.0744 
L 374.174773 209.0744 
" style="fill:none;stroke:#7f7f7f;stroke-linecap:square;stroke-width:0.5;"/>
   </g>
   <g id="line2d_24">
    <path clip-path="url(#pe84246624b)" d="M 49.520227 264.716 
L 51.16822 71.18 
L 52.816213 68.7608 
L 54.464205 54.2456 
L 56.112198 105.0488 
L 57.76019 71.18 
L 61.056176 119.564 
L 62.704168 54.2456 
L 64.352161 51.8264 
L 66.000153 105.0488 
L 67.648146 129.2408 
L 69.296139 160.6904 
L 70.944131 201.8168 
L 72.592124 117.1448 
L 74.240117 85.6952 
L 75.888109 102.6296 
L 77.536102 51.8264 
L 79.184094 97.7912 
L 80.832087 97.7912 
L 82.48008 85.6952 
L 84.128072 102.6296 
L 85.776065 83.276 
L 87.424057 76.0184 
L 89.07205 51.8264 
L 90.720043 83.276 
L 92.368035 46.988 
L 94.016028 63.9224 
L 95.664021 63.9224 
L 97.312013 61.5032 
L 98.960006 39.7304 
L 100.607998 97.7912 
L 102.255991 102.6296 
L 103.903984 129.2408 
L 105.551976 134.0792 
L 107.199969 129.2408 
L 108.847961 141.3368 
L 110.495954 141.3368 
L 112.143947 134.0792 
L 113.791939 151.0136 
L 115.439932 165.5288 
L 117.087925 167.948 
L 118.735917 194.5592 
L 120.38391 175.2056 
L 122.031902 143.756 
L 123.679895 134.0792 
L 125.327888 136.4984 
L 126.97588 109.8872 
L 128.623873 102.6296 
L 130.271865 126.8216 
L 131.919858 105.0488 
L 133.567851 134.0792 
L 135.215843 136.4984 
L 136.863836 129.2408 
L 138.511829 105.0488 
L 140.159821 78.4376 
L 141.807814 85.6952 
L 143.455806 105.0488 
L 145.103799 129.2408 
L 146.751792 165.5288 
L 148.399784 136.4984 
L 150.047777 97.7912 
L 151.695769 83.276 
L 153.343762 83.276 
L 154.991755 54.2456 
L 156.639747 85.6952 
L 158.28774 112.3064 
L 159.935733 112.3064 
L 161.583725 119.564 
L 163.231718 102.6296 
L 164.87971 109.8872 
L 166.527703 136.4984 
L 168.175696 143.756 
L 169.823688 180.044 
L 171.471681 175.2056 
L 173.119674 141.3368 
L 174.767666 151.0136 
L 176.415659 119.564 
L 178.063651 141.3368 
L 179.711644 175.2056 
L 183.007629 160.6904 
L 184.655622 167.948 
L 186.303614 160.6904 
L 187.951607 143.756 
L 189.5996 141.3368 
L 191.247592 112.3064 
L 192.895585 112.3064 
L 194.543578 129.2408 
L 196.19157 151.0136 
L 197.839563 158.2712 
L 199.487555 134.0792 
L 201.135548 148.5944 
L 202.783541 160.6904 
L 204.431533 136.4984 
L 206.079526 158.2712 
L 207.727518 148.5944 
L 209.375511 141.3368 
L 211.023504 141.3368 
L 212.671496 129.2408 
L 214.319489 119.564 
L 215.967482 126.8216 
L 217.615474 129.2408 
L 219.263467 134.0792 
L 220.911459 117.1448 
L 222.559452 126.8216 
L 224.207445 126.8216 
L 225.855437 143.756 
L 227.50343 136.4984 
L 229.151422 105.0488 
L 230.799415 105.0488 
L 232.447408 102.6296 
L 234.0954 134.0792 
L 237.391386 105.0488 
L 240.687371 85.6952 
L 242.335363 119.564 
L 243.983356 151.0136 
L 245.631349 119.564 
L 247.279341 102.6296 
L 248.927334 63.9224 
L 250.575326 83.276 
L 252.223319 63.9224 
L 253.871312 76.0184 
L 255.519304 102.6296 
L 257.167297 126.8216 
L 258.81529 105.0488 
L 260.463282 102.6296 
L 262.111275 97.7912 
L 263.759267 54.2456 
L 265.40726 105.0488 
L 267.055253 112.3064 
L 268.703245 112.3064 
L 270.351238 160.6904 
L 271.999231 97.7912 
L 273.647223 68.7608 
L 275.295216 71.18 
L 276.943208 54.2456 
L 278.591201 76.0184 
L 280.239194 112.3064 
L 281.887186 105.0488 
L 285.183171 105.0488 
L 286.831164 112.3064 
L 288.479157 105.0488 
L 290.127149 117.1448 
L 291.775142 105.0488 
L 293.423135 102.6296 
L 295.071127 76.0184 
L 296.71912 134.0792 
L 298.367112 141.3368 
L 300.015105 167.948 
L 301.663098 206.6552 
L 303.31109 160.6904 
L 304.959083 136.4984 
L 306.607075 102.6296 
L 308.255068 71.18 
L 309.903061 85.6952 
L 311.551053 105.0488 
L 313.199046 141.3368 
L 314.847039 134.0792 
L 316.495031 119.564 
L 318.143024 129.2408 
L 319.791016 109.8872 
L 321.439009 102.6296 
L 323.087002 105.0488 
L 324.734994 95.372 
L 326.382987 112.3064 
L 328.030979 126.8216 
L 329.678972 109.8872 
L 331.326965 141.3368 
L 332.974957 141.3368 
L 334.62295 143.756 
L 336.270943 194.5592 
L 337.918935 180.044 
L 339.566928 151.0136 
L 341.21492 134.0792 
L 342.862913 105.0488 
L 344.510906 83.276 
L 346.158898 97.7912 
L 347.806891 95.372 
L 349.454883 78.4376 
L 351.102876 85.6952 
L 354.398861 109.8872 
L 356.046854 136.4984 
L 357.694847 136.4984 
L 359.342839 151.0136 
L 360.990832 129.2408 
L 362.638824 83.276 
L 364.286817 76.0184 
L 365.93481 61.5032 
L 367.582802 63.9224 
L 369.230795 85.6952 
L 370.878787 117.1448 
L 372.52678 97.7912 
L 372.52678 97.7912 
" style="fill:none;stroke:#bcbd22;stroke-linecap:square;stroke-width:0.5;"/>
   </g>
   <g id="line2d_25">
    <path clip-path="url(#pe84246624b)" d="M 49.520227 264.716 
L 51.16822 245.3624 
L 52.816213 238.1048 
L 54.464205 238.1048 
L 57.76019 209.0744 
L 59.408183 199.3976 
L 61.056176 180.044 
L 62.704168 151.0136 
L 64.352161 102.6296 
L 66.000153 97.7912 
L 67.648146 78.4376 
L 69.296139 136.4984 
L 70.944131 141.3368 
L 72.592124 143.756 
L 74.240117 160.6904 
L 75.888109 141.3368 
L 77.536102 165.5288 
L 79.184094 167.948 
L 80.832087 141.3368 
L 82.48008 148.5944 
L 84.128072 136.4984 
L 85.776065 160.6904 
L 87.424057 192.14 
L 89.07205 167.948 
L 90.720043 213.9128 
L 92.368035 223.5896 
L 94.016028 206.6552 
L 95.664021 206.6552 
L 97.312013 192.14 
L 98.960006 158.2712 
L 100.607998 143.756 
L 102.255991 160.6904 
L 103.903984 192.14 
L 105.551976 213.9128 
L 107.199969 216.332 
L 108.847961 209.0744 
L 110.495954 158.2712 
L 112.143947 158.2712 
L 113.791939 148.5944 
L 115.439932 192.14 
L 117.087925 213.9128 
L 118.735917 194.5592 
L 120.38391 180.044 
L 122.031902 102.6296 
L 123.679895 97.7912 
L 125.327888 117.1448 
L 126.97588 126.8216 
L 128.623873 165.5288 
L 130.271865 172.7864 
L 131.919858 167.948 
L 133.567851 172.7864 
L 136.863836 148.5944 
L 138.511829 158.2712 
L 140.159821 143.756 
L 141.807814 148.5944 
L 143.455806 167.948 
L 145.103799 151.0136 
L 146.751792 158.2712 
L 148.399784 134.0792 
L 150.047777 117.1448 
L 151.695769 141.3368 
L 153.343762 148.5944 
L 154.991755 172.7864 
L 156.639747 216.332 
L 158.28774 226.0088 
L 159.935733 233.2664 
L 161.583725 233.2664 
L 163.231718 180.044 
L 164.87971 134.0792 
L 166.527703 143.756 
L 168.175696 143.756 
L 169.823688 134.0792 
L 171.471681 117.1448 
L 173.119674 105.0488 
L 174.767666 136.4984 
L 176.415659 134.0792 
L 178.063651 117.1448 
L 179.711644 112.3064 
L 181.359637 119.564 
L 183.007629 141.3368 
L 184.655622 158.2712 
L 186.303614 129.2408 
L 187.951607 129.2408 
L 189.5996 143.756 
L 191.247592 141.3368 
L 192.895585 158.2712 
L 194.543578 172.7864 
L 196.19157 151.0136 
L 197.839563 160.6904 
L 199.487555 112.3064 
L 201.135548 117.1448 
L 202.783541 134.0792 
L 204.431533 143.756 
L 206.079526 143.756 
L 207.727518 141.3368 
L 209.375511 109.8872 
L 211.023504 134.0792 
L 212.671496 148.5944 
L 214.319489 160.6904 
L 215.967482 194.5592 
L 217.615474 180.044 
L 219.263467 167.948 
L 220.911459 158.2712 
L 222.559452 165.5288 
L 224.207445 143.756 
L 225.855437 148.5944 
L 227.50343 167.948 
L 229.151422 126.8216 
L 230.799415 167.948 
L 232.447408 192.14 
L 234.0954 158.2712 
L 235.743393 194.5592 
L 237.391386 165.5288 
L 239.039378 109.8872 
L 240.687371 126.8216 
L 242.335363 95.372 
L 243.983356 102.6296 
L 245.631349 160.6904 
L 247.279341 172.7864 
L 248.927334 206.6552 
L 250.575326 192.14 
L 252.223319 192.14 
L 253.871312 165.5288 
L 257.167297 151.0136 
L 258.81529 129.2408 
L 260.463282 143.756 
L 263.759267 129.2408 
L 265.40726 105.0488 
L 267.055253 76.0184 
L 268.703245 85.6952 
L 270.351238 105.0488 
L 271.999231 105.0488 
L 273.647223 129.2408 
L 275.295216 158.2712 
L 276.943208 141.3368 
L 278.591201 167.948 
L 280.239194 175.2056 
L 281.887186 158.2712 
L 283.535179 158.2712 
L 285.183171 141.3368 
L 286.831164 167.948 
L 288.479157 158.2712 
L 290.127149 167.948 
L 291.775142 172.7864 
L 293.423135 160.6904 
L 295.071127 165.5288 
L 296.71912 151.0136 
L 300.015105 136.4984 
L 301.663098 201.8168 
L 303.31109 199.3976 
L 304.959083 172.7864 
L 306.607075 160.6904 
L 308.255068 97.7912 
L 309.903061 78.4376 
L 313.199046 78.4376 
L 314.847039 76.0184 
L 316.495031 85.6952 
L 318.143024 126.8216 
L 321.439009 112.3064 
L 323.087002 141.3368 
L 324.734994 119.564 
L 326.382987 117.1448 
L 328.030979 136.4984 
L 329.678972 112.3064 
L 331.326965 112.3064 
L 332.974957 119.564 
L 332.974957 119.564 
" style="fill:none;stroke:#17becf;stroke-linecap:square;stroke-width:0.5;"/>
   </g>
   <g id="line2d_26">
    <path clip-path="url(#pe84246624b)" d="M 49.520227 264.716 
L 51.16822 201.8168 
L 80.832087 201.8168 
L 82.48008 167.948 
L 84.128072 151.0136 
L 85.776065 182.4632 
L 87.424057 194.5592 
L 89.07205 194.5592 
L 90.720043 141.3368 
L 92.368035 112.3064 
L 94.016028 112.3064 
L 95.664021 102.6296 
L 97.312013 102.6296 
L 98.960006 97.7912 
L 108.847961 97.7912 
L 110.495954 109.8872 
L 112.143947 109.8872 
L 113.791939 158.2712 
L 115.439932 160.6904 
L 117.087925 167.948 
L 118.735917 158.2712 
L 120.38391 158.2712 
L 122.031902 129.2408 
L 123.679895 134.0792 
L 125.327888 112.3064 
L 128.623873 112.3064 
L 130.271865 141.3368 
L 131.919858 148.5944 
L 133.567851 97.7912 
L 135.215843 160.6904 
L 136.863836 165.5288 
L 138.511829 165.5288 
L 140.159821 129.2408 
L 141.807814 167.948 
L 143.455806 167.948 
L 145.103799 126.8216 
L 146.751792 160.6904 
L 148.399784 206.6552 
L 150.047777 194.5592 
L 151.695769 223.5896 
L 154.991755 223.5896 
L 156.639747 238.1048 
L 158.28774 238.1048 
L 159.935733 257.4584 
L 178.063651 257.4584 
L 179.711644 262.2968 
L 191.247592 262.2968 
L 192.895585 216.332 
L 194.543578 175.2056 
L 196.19157 165.5288 
L 197.839563 158.2712 
L 199.487555 194.5592 
L 201.135548 216.332 
L 202.783541 240.524 
L 204.431533 199.3976 
L 206.079526 175.2056 
L 220.911459 175.2056 
L 222.559452 160.6904 
L 224.207445 160.6904 
L 225.855437 148.5944 
L 230.799415 148.5944 
L 232.447408 151.0136 
L 234.0954 126.8216 
L 237.391386 126.8216 
L 239.039378 194.5592 
L 242.335363 151.0136 
L 243.983356 76.0184 
L 245.631349 22.796 
L 247.279341 54.2456 
L 248.927334 46.988 
L 250.575326 51.8264 
L 252.223319 112.3064 
L 253.871312 136.4984 
L 255.519304 158.2712 
L 257.167297 160.6904 
L 258.81529 175.2056 
L 260.463282 182.4632 
L 262.111275 175.2056 
L 263.759267 158.2712 
L 265.40726 83.276 
L 267.055253 32.4728 
L 268.703245 37.3112 
L 270.351238 134.0792 
L 273.647223 134.0792 
L 275.295216 136.4984 
L 276.943208 192.14 
L 278.591201 175.2056 
L 281.887186 257.4584 
L 283.535179 206.6552 
L 285.183171 194.5592 
L 286.831164 216.332 
L 288.479157 148.5944 
L 290.127149 119.564 
L 291.775142 151.0136 
L 293.423135 95.372 
L 295.071127 105.0488 
L 296.71912 143.756 
L 298.367112 129.2408 
L 300.015105 158.2712 
L 301.663098 151.0136 
L 303.31109 134.0792 
L 304.959083 134.0792 
L 306.607075 97.7912 
L 308.255068 78.4376 
L 309.903061 105.0488 
L 311.551053 129.2408 
L 313.199046 141.3368 
L 314.847039 158.2712 
L 316.495031 129.2408 
L 318.143024 109.8872 
L 319.791016 105.0488 
L 321.439009 105.0488 
L 323.087002 95.372 
L 324.734994 95.372 
L 326.382987 68.7608 
L 331.326965 68.7608 
L 332.974957 61.5032 
L 336.270943 61.5032 
L 337.918935 76.0184 
L 339.566928 71.18 
L 341.21492 71.18 
L 342.862913 85.6952 
L 344.510906 85.6952 
L 346.158898 109.8872 
L 347.806891 85.6952 
L 351.102876 85.6952 
L 352.750869 83.276 
L 354.398861 102.6296 
L 357.694847 102.6296 
L 359.342839 68.7608 
L 362.638824 68.7608 
L 364.286817 78.4376 
L 372.52678 78.4376 
L 372.52678 78.4376 
" style="fill:none;stroke:#1f77b4;stroke-linecap:square;stroke-width:0.5;"/>
   </g>
   <g id="line2d_27">
    <path clip-path="url(#pe84246624b)" d="M 49.520227 264.716 
L 51.16822 126.8216 
L 52.816213 167.948 
L 54.464205 194.5592 
L 56.112198 262.2968 
L 57.76019 201.8168 
L 59.408183 216.332 
L 61.056176 158.2712 
L 62.704168 192.14 
L 64.352161 238.1048 
L 66.000153 201.8168 
L 67.648146 223.5896 
L 69.296139 199.3976 
L 70.944131 213.9128 
L 72.592124 206.6552 
L 75.888109 182.4632 
L 77.536102 143.756 
L 79.184094 182.4632 
L 80.832087 213.9128 
L 82.48008 240.524 
L 84.128072 262.2968 
L 85.776065 233.2664 
L 87.424057 216.332 
L 89.07205 141.3368 
L 90.720043 85.6952 
L 92.368035 136.4984 
L 94.016028 143.756 
L 95.664021 165.5288 
L 97.312013 192.14 
L 98.960006 129.2408 
L 100.607998 134.0792 
L 102.255991 158.2712 
L 103.903984 151.0136 
L 105.551976 182.4632 
L 107.199969 182.4632 
L 108.847961 148.5944 
L 110.495954 151.0136 
L 112.143947 126.8216 
L 113.791939 141.3368 
L 115.439932 192.14 
L 117.087925 182.4632 
L 118.735917 192.14 
L 120.38391 194.5592 
L 122.031902 165.5288 
L 123.679895 151.0136 
L 125.327888 194.5592 
L 126.97588 119.564 
L 128.623873 117.1448 
L 130.271865 117.1448 
L 131.919858 102.6296 
L 133.567851 119.564 
L 135.215843 105.0488 
L 136.863836 97.7912 
L 138.511829 71.18 
L 140.159821 46.988 
L 141.807814 83.276 
L 143.455806 109.8872 
L 145.103799 134.0792 
L 146.751792 182.4632 
L 148.399784 199.3976 
L 151.695769 262.2968 
L 153.343762 255.0392 
L 154.991755 223.5896 
L 156.639747 175.2056 
L 158.28774 148.5944 
L 159.935733 175.2056 
L 161.583725 182.4632 
L 163.231718 172.7864 
L 164.87971 151.0136 
L 166.527703 95.372 
L 168.175696 83.276 
L 169.823688 112.3064 
L 171.471681 112.3064 
L 173.119674 134.0792 
L 174.767666 158.2712 
L 176.415659 175.2056 
L 178.063651 126.8216 
L 179.711644 143.756 
L 181.359637 143.756 
L 183.007629 134.0792 
L 184.655622 206.6552 
L 186.303614 233.2664 
L 187.951607 199.3976 
L 189.5996 175.2056 
L 191.247592 143.756 
L 192.895585 102.6296 
L 194.543578 97.7912 
L 196.19157 129.2408 
L 197.839563 143.756 
L 199.487555 180.044 
L 201.135548 206.6552 
L 202.783541 175.2056 
L 204.431533 151.0136 
L 206.079526 151.0136 
L 207.727518 129.2408 
L 209.375511 97.7912 
L 211.023504 102.6296 
L 212.671496 71.18 
L 214.319489 112.3064 
L 215.967482 165.5288 
L 217.615474 180.044 
L 219.263467 148.5944 
L 220.911459 109.8872 
L 222.559452 83.276 
L 224.207445 78.4376 
L 225.855437 76.0184 
L 229.151422 151.0136 
L 230.799415 172.7864 
L 232.447408 192.14 
L 234.0954 192.14 
L 235.743393 182.4632 
L 237.391386 141.3368 
L 239.039378 136.4984 
L 240.687371 112.3064 
L 242.335363 71.18 
L 243.983356 54.2456 
L 245.631349 22.796 
L 247.279341 22.796 
L 248.927334 51.8264 
L 250.575326 102.6296 
L 252.223319 97.7912 
L 253.871312 136.4984 
L 255.519304 119.564 
L 257.167297 126.8216 
L 258.81529 109.8872 
L 260.463282 61.5032 
L 262.111275 105.0488 
L 263.759267 129.2408 
L 265.40726 141.3368 
L 267.055253 117.1448 
L 268.703245 160.6904 
L 270.351238 148.5944 
L 271.999231 182.4632 
L 273.647223 194.5592 
L 275.295216 194.5592 
L 276.943208 180.044 
L 278.591201 148.5944 
L 280.239194 160.6904 
L 281.887186 141.3368 
L 285.183171 194.5592 
L 286.831164 175.2056 
L 288.479157 230.8472 
L 290.127149 230.8472 
L 291.775142 233.2664 
L 293.423135 233.2664 
L 295.071127 182.4632 
L 296.71912 136.4984 
L 298.367112 117.1448 
L 300.015105 129.2408 
L 301.663098 119.564 
L 303.31109 141.3368 
L 304.959083 143.756 
L 306.607075 134.0792 
L 308.255068 160.6904 
L 309.903061 172.7864 
L 311.551053 201.8168 
L 313.199046 209.0744 
L 314.847039 223.5896 
L 316.495031 240.524 
L 318.143024 226.0088 
L 319.791016 213.9128 
L 321.439009 192.14 
L 323.087002 141.3368 
L 324.734994 167.948 
L 326.382987 192.14 
L 328.030979 230.8472 
L 329.678972 240.524 
L 331.326965 247.7816 
L 332.974957 216.332 
L 334.62295 201.8168 
L 336.270943 223.5896 
L 337.918935 175.2056 
L 339.566928 182.4632 
L 341.21492 134.0792 
L 342.862913 160.6904 
L 344.510906 136.4984 
L 346.158898 126.8216 
L 347.806891 148.5944 
L 349.454883 141.3368 
L 351.102876 143.756 
L 352.750869 182.4632 
L 354.398861 213.9128 
L 356.046854 192.14 
L 357.694847 216.332 
L 360.990832 136.4984 
L 362.638824 175.2056 
L 364.286817 136.4984 
L 365.93481 165.5288 
L 367.582802 192.14 
L 369.230795 172.7864 
L 370.878787 213.9128 
L 372.52678 175.2056 
L 372.52678 175.2056 
" style="fill:none;stroke:#ff7f0e;stroke-linecap:square;stroke-width:0.5;"/>
   </g>
   <g id="line2d_28">
    <path clip-path="url(#pe84246624b)" d="M 49.520227 264.716 
L 51.16822 182.4632 
L 52.816213 136.4984 
L 54.464205 134.0792 
L 56.112198 143.756 
L 57.76019 175.2056 
L 59.408183 194.5592 
L 61.056176 216.332 
L 62.704168 230.8472 
L 64.352161 209.0744 
L 66.000153 175.2056 
L 67.648146 199.3976 
L 69.296139 175.2056 
L 70.944131 165.5288 
L 72.592124 192.14 
L 74.240117 180.044 
L 75.888109 175.2056 
L 77.536102 216.332 
L 79.184094 216.332 
L 80.832087 209.0744 
L 82.48008 199.3976 
L 84.128072 165.5288 
L 85.776065 143.756 
L 87.424057 158.2712 
L 89.07205 148.5944 
L 90.720043 158.2712 
L 92.368035 151.0136 
L 94.016028 194.5592 
L 95.664021 151.0136 
L 97.312013 148.5944 
L 98.960006 119.564 
L 100.607998 105.0488 
L 102.255991 129.2408 
L 103.903984 141.3368 
L 105.551976 182.4632 
L 107.199969 158.2712 
L 108.847961 165.5288 
L 110.495954 175.2056 
L 112.143947 172.7864 
L 113.791939 206.6552 
L 115.439932 192.14 
L 117.087925 175.2056 
L 118.735917 165.5288 
L 120.38391 148.5944 
L 122.031902 165.5288 
L 123.679895 175.2056 
L 125.327888 180.044 
L 126.97588 206.6552 
L 128.623873 206.6552 
L 130.271865 167.948 
L 131.919858 182.4632 
L 133.567851 151.0136 
L 135.215843 129.2408 
L 136.863836 151.0136 
L 138.511829 126.8216 
L 140.159821 134.0792 
L 141.807814 172.7864 
L 143.455806 148.5944 
L 145.103799 165.5288 
L 146.751792 180.044 
L 148.399784 148.5944 
L 150.047777 151.0136 
L 151.695769 160.6904 
L 153.343762 129.2408 
L 154.991755 180.044 
L 156.639747 201.8168 
L 158.28774 182.4632 
L 159.935733 199.3976 
L 161.583725 165.5288 
L 163.231718 167.948 
L 164.87971 158.2712 
L 166.527703 143.756 
L 168.175696 165.5288 
L 169.823688 141.3368 
L 171.471681 151.0136 
L 173.119674 182.4632 
L 174.767666 165.5288 
L 176.415659 192.14 
L 178.063651 199.3976 
L 179.711644 194.5592 
L 181.359637 192.14 
L 183.007629 194.5592 
L 184.655622 226.0088 
L 186.303614 201.8168 
L 187.951607 206.6552 
L 189.5996 160.6904 
L 191.247592 165.5288 
L 192.895585 175.2056 
L 194.543578 175.2056 
L 196.19157 209.0744 
L 197.839563 209.0744 
L 199.487555 199.3976 
L 201.135548 201.8168 
L 202.783541 175.2056 
L 204.431533 151.0136 
L 206.079526 165.5288 
L 207.727518 136.4984 
L 209.375511 141.3368 
L 211.023504 141.3368 
L 212.671496 134.0792 
L 214.319489 158.2712 
L 215.967482 158.2712 
L 219.263467 129.2408 
L 220.911459 134.0792 
L 222.559452 141.3368 
L 224.207445 151.0136 
L 225.855437 167.948 
L 227.50343 175.2056 
L 229.151422 167.948 
L 230.799415 151.0136 
L 232.447408 160.6904 
L 234.0954 129.2408 
L 235.743393 151.0136 
L 237.391386 182.4632 
L 239.039378 165.5288 
L 240.687371 175.2056 
L 242.335363 192.14 
L 243.983356 167.948 
L 245.631349 172.7864 
L 247.279341 180.044 
L 248.927334 119.564 
L 250.575326 167.948 
L 252.223319 160.6904 
L 253.871312 165.5288 
L 255.519304 199.3976 
L 257.167297 148.5944 
L 258.81529 158.2712 
L 260.463282 160.6904 
L 262.111275 158.2712 
L 263.759267 167.948 
L 265.40726 167.948 
L 267.055253 165.5288 
L 268.703245 165.5288 
L 270.351238 192.14 
L 271.999231 201.8168 
L 273.647223 180.044 
L 275.295216 201.8168 
L 276.943208 143.756 
L 278.591201 129.2408 
L 280.239194 160.6904 
L 281.887186 143.756 
L 283.535179 151.0136 
L 285.183171 160.6904 
L 286.831164 160.6904 
L 288.479157 182.4632 
L 291.775142 182.4632 
L 293.423135 172.7864 
L 295.071127 151.0136 
L 296.71912 180.044 
L 298.367112 201.8168 
L 300.015105 192.14 
L 301.663098 194.5592 
L 303.31109 194.5592 
L 304.959083 165.5288 
L 306.607075 160.6904 
L 308.255068 160.6904 
L 309.903061 194.5592 
L 311.551053 223.5896 
L 313.199046 206.6552 
L 314.847039 209.0744 
L 316.495031 160.6904 
L 318.143024 134.0792 
L 319.791016 148.5944 
L 321.439009 134.0792 
L 323.087002 182.4632 
L 324.734994 199.3976 
L 326.382987 192.14 
L 328.030979 199.3976 
L 329.678972 165.5288 
L 331.326965 136.4984 
L 332.974957 141.3368 
L 334.62295 148.5944 
L 336.270943 126.8216 
L 337.918935 167.948 
L 337.918935 167.948 
" style="fill:none;stroke:#2ca02c;stroke-linecap:square;stroke-width:0.5;"/>
   </g>
   <g id="patch_3">
    <path d="M 33.2875 276.812 
L 33.2875 10.7 
" style="fill:none;stroke:#000000;stroke-linecap:square;stroke-linejoin:miter;stroke-width:0.8;"/>
   </g>
   <g id="patch_4">
    <path d="M 390.4075 276.812 
L 390.4075 10.7 
" style="fill:none;stroke:#000000;stroke-linecap:square;stroke-linejoin:miter;stroke-width:0.8;"/>
   </g>
   <g id="patch_5">
    <path d="M 33.2875 276.812 
L 390.4075 276.812 
" style="fill:none;stroke:#000000;stroke-linecap:square;stroke-linejoin:miter;stroke-width:0.8;"/>
   </g>
   <g id="patch_6">
    <path d="M 33.2875 10.7 
L 390.4075 10.7 
" style="fill:none;stroke:#000000;stroke-linecap:square;stroke-linejoin:miter;stroke-width:0.8;"/>
   </g>
  </g>
 </g>
 <defs>
  <clipPath id="pe84246624b">
   <rect height="266.112" width="357.12" x="33.2875" y="10.7"/>
  </clipPath>
 </defs>
</svg>
