<?xml version="1.0" encoding="utf-8" standalone="no"?>
<!DOCTYPE svg PUBLIC "-//W3C//DTD SVG 1.1//EN"
  "http://www.w3.org/Graphics/SVG/1.1/DTD/svg11.dtd">
<!-- Created with matplotlib (http://matplotlib.org/) -->
<svg height="300pt" version="1.1" viewBox="0 0 420 300" width="420pt" xmlns="http://www.w3.org/2000/svg" xmlns:xlink="http://www.w3.org/1999/xlink">
 <defs>
  <style type="text/css">
*{stroke-linecap:butt;stroke-linejoin:round;}
  </style>
 </defs>
 <g id="figure_1">
  <g id="patch_1">
   <path d="M 0 300.690125 
L 420.195 300.690125 
L 420.195 0 
L 0 0 
z
" style="fill:#ffffff;"/>
  </g>
  <g id="axes_1">
   <g id="patch_2">
    <path d="M 52.375 276.812 
L 409.495 276.812 
L 409.495 10.7 
L 52.375 10.7 
z
" style="fill:#ffffff;"/>
   </g>
   <g id="matplotlib.axis_1">
    <g id="xtick_1">
     <g id="line2d_1">
      <defs>
       <path d="M 0 0 
L 0 3.5 
" id="m488e89df2c" style="stroke:#000000;stroke-width:0.8;"/>
      </defs>
      <g>
       <use style="stroke:#000000;stroke-width:0.8;" x="68.607727" xlink:href="#m488e89df2c" y="276.812"/>
      </g>
     </g>
     <g id="text_1">
      <!-- 0 -->
      <defs>
       <path d="M 31.78125 66.40625 
Q 24.171875 66.40625 20.328125 58.90625 
Q 16.5 51.421875 16.5 36.375 
Q 16.5 21.390625 20.328125 13.890625 
Q 24.171875 6.390625 31.78125 6.390625 
Q 39.453125 6.390625 43.28125 13.890625 
Q 47.125 21.390625 47.125 36.375 
Q 47.125 51.421875 43.28125 58.90625 
Q 39.453125 66.40625 31.78125 66.40625 
z
M 31.78125 74.21875 
Q 44.046875 74.21875 50.515625 64.515625 
Q 56.984375 54.828125 56.984375 36.375 
Q 56.984375 17.96875 50.515625 8.265625 
Q 44.046875 -1.421875 31.78125 -1.421875 
Q 19.53125 -1.421875 13.0625 8.265625 
Q 6.59375 17.96875 6.59375 36.375 
Q 6.59375 54.828125 13.0625 64.515625 
Q 19.53125 74.21875 31.78125 74.21875 
z
" id="DejaVuSans-30"/>
      </defs>
      <g transform="translate(65.426477 291.410437)scale(0.1 -0.1)">
       <use xlink:href="#DejaVuSans-30"/>
      </g>
     </g>
    </g>
    <g id="xtick_2">
     <g id="line2d_2">
      <g>
       <use style="stroke:#000000;stroke-width:0.8;" x="109.807543" xlink:href="#m488e89df2c" y="276.812"/>
      </g>
     </g>
     <g id="text_2">
      <!-- 25 -->
      <defs>
       <path d="M 19.1875 8.296875 
L 53.609375 8.296875 
L 53.609375 0 
L 7.328125 0 
L 7.328125 8.296875 
Q 12.9375 14.109375 22.625 23.890625 
Q 32.328125 33.6875 34.8125 36.53125 
Q 39.546875 41.84375 41.421875 45.53125 
Q 43.3125 49.21875 43.3125 52.78125 
Q 43.3125 58.59375 39.234375 62.25 
Q 35.15625 65.921875 28.609375 65.921875 
Q 23.96875 65.921875 18.8125 64.3125 
Q 13.671875 62.703125 7.8125 59.421875 
L 7.8125 69.390625 
Q 13.765625 71.78125 18.9375 73 
Q 24.125 74.21875 28.421875 74.21875 
Q 39.75 74.21875 46.484375 68.546875 
Q 53.21875 62.890625 53.21875 53.421875 
Q 53.21875 48.921875 51.53125 44.890625 
Q 49.859375 40.875 45.40625 35.40625 
Q 44.1875 33.984375 37.640625 27.21875 
Q 31.109375 20.453125 19.1875 8.296875 
z
" id="DejaVuSans-32"/>
       <path d="M 10.796875 72.90625 
L 49.515625 72.90625 
L 49.515625 64.59375 
L 19.828125 64.59375 
L 19.828125 46.734375 
Q 21.96875 47.46875 24.109375 47.828125 
Q 26.265625 48.1875 28.421875 48.1875 
Q 40.625 48.1875 47.75 41.5 
Q 54.890625 34.8125 54.890625 23.390625 
Q 54.890625 11.625 47.5625 5.09375 
Q 40.234375 -1.421875 26.90625 -1.421875 
Q 22.3125 -1.421875 17.546875 -0.640625 
Q 12.796875 0.140625 7.71875 1.703125 
L 7.71875 11.625 
Q 12.109375 9.234375 16.796875 8.0625 
Q 21.484375 6.890625 26.703125 6.890625 
Q 35.15625 6.890625 40.078125 11.328125 
Q 45.015625 15.765625 45.015625 23.390625 
Q 45.015625 31 40.078125 35.4375 
Q 35.15625 39.890625 26.703125 39.890625 
Q 22.75 39.890625 18.8125 39.015625 
Q 14.890625 38.140625 10.796875 36.28125 
z
" id="DejaVuSans-35"/>
      </defs>
      <g transform="translate(103.445043 291.410437)scale(0.1 -0.1)">
       <use xlink:href="#DejaVuSans-32"/>
       <use x="63.623047" xlink:href="#DejaVuSans-35"/>
      </g>
     </g>
    </g>
    <g id="xtick_3">
     <g id="line2d_3">
      <g>
       <use style="stroke:#000000;stroke-width:0.8;" x="151.007358" xlink:href="#m488e89df2c" y="276.812"/>
      </g>
     </g>
     <g id="text_3">
      <!-- 50 -->
      <g transform="translate(144.644858 291.410437)scale(0.1 -0.1)">
       <use xlink:href="#DejaVuSans-35"/>
       <use x="63.623047" xlink:href="#DejaVuSans-30"/>
      </g>
     </g>
    </g>
    <g id="xtick_4">
     <g id="line2d_4">
      <g>
       <use style="stroke:#000000;stroke-width:0.8;" x="192.207174" xlink:href="#m488e89df2c" y="276.812"/>
      </g>
     </g>
     <g id="text_4">
      <!-- 75 -->
      <defs>
       <path d="M 8.203125 72.90625 
L 55.078125 72.90625 
L 55.078125 68.703125 
L 28.609375 0 
L 18.3125 0 
L 43.21875 64.59375 
L 8.203125 64.59375 
z
" id="DejaVuSans-37"/>
      </defs>
      <g transform="translate(185.844674 291.410437)scale(0.1 -0.1)">
       <use xlink:href="#DejaVuSans-37"/>
       <use x="63.623047" xlink:href="#DejaVuSans-35"/>
      </g>
     </g>
    </g>
    <g id="xtick_5">
     <g id="line2d_5">
      <g>
       <use style="stroke:#000000;stroke-width:0.8;" x="233.406989" xlink:href="#m488e89df2c" y="276.812"/>
      </g>
     </g>
     <g id="text_5">
      <!-- 100 -->
      <defs>
       <path d="M 12.40625 8.296875 
L 28.515625 8.296875 
L 28.515625 63.921875 
L 10.984375 60.40625 
L 10.984375 69.390625 
L 28.421875 72.90625 
L 38.28125 72.90625 
L 38.28125 8.296875 
L 54.390625 8.296875 
L 54.390625 0 
L 12.40625 0 
z
" id="DejaVuSans-31"/>
      </defs>
      <g transform="translate(223.863239 291.410437)scale(0.1 -0.1)">
       <use xlink:href="#DejaVuSans-31"/>
       <use x="63.623047" xlink:href="#DejaVuSans-30"/>
       <use x="127.246094" xlink:href="#DejaVuSans-30"/>
      </g>
     </g>
    </g>
    <g id="xtick_6">
     <g id="line2d_6">
      <g>
       <use style="stroke:#000000;stroke-width:0.8;" x="274.606804" xlink:href="#m488e89df2c" y="276.812"/>
      </g>
     </g>
     <g id="text_6">
      <!-- 125 -->
      <g transform="translate(265.063054 291.410437)scale(0.1 -0.1)">
       <use xlink:href="#DejaVuSans-31"/>
       <use x="63.623047" xlink:href="#DejaVuSans-32"/>
       <use x="127.246094" xlink:href="#DejaVuSans-35"/>
      </g>
     </g>
    </g>
    <g id="xtick_7">
     <g id="line2d_7">
      <g>
       <use style="stroke:#000000;stroke-width:0.8;" x="315.80662" xlink:href="#m488e89df2c" y="276.812"/>
      </g>
     </g>
     <g id="text_7">
      <!-- 150 -->
      <g transform="translate(306.26287 291.410437)scale(0.1 -0.1)">
       <use xlink:href="#DejaVuSans-31"/>
       <use x="63.623047" xlink:href="#DejaVuSans-35"/>
       <use x="127.246094" xlink:href="#DejaVuSans-30"/>
      </g>
     </g>
    </g>
    <g id="xtick_8">
     <g id="line2d_8">
      <g>
       <use style="stroke:#000000;stroke-width:0.8;" x="357.006435" xlink:href="#m488e89df2c" y="276.812"/>
      </g>
     </g>
     <g id="text_8">
      <!-- 175 -->
      <g transform="translate(347.462685 291.410437)scale(0.1 -0.1)">
       <use xlink:href="#DejaVuSans-31"/>
       <use x="63.623047" xlink:href="#DejaVuSans-37"/>
       <use x="127.246094" xlink:href="#DejaVuSans-35"/>
      </g>
     </g>
    </g>
    <g id="xtick_9">
     <g id="line2d_9">
      <g>
       <use style="stroke:#000000;stroke-width:0.8;" x="398.206251" xlink:href="#m488e89df2c" y="276.812"/>
      </g>
     </g>
     <g id="text_9">
      <!-- 200 -->
      <g transform="translate(388.662501 291.410437)scale(0.1 -0.1)">
       <use xlink:href="#DejaVuSans-32"/>
       <use x="63.623047" xlink:href="#DejaVuSans-30"/>
       <use x="127.246094" xlink:href="#DejaVuSans-30"/>
      </g>
     </g>
    </g>
   </g>
   <g id="matplotlib.axis_2">
    <g id="ytick_1">
     <g id="line2d_10">
      <defs>
       <path d="M 0 0 
L -3.5 0 
" id="md7fd7d2a9f" style="stroke:#000000;stroke-width:0.8;"/>
      </defs>
      <g>
       <use style="stroke:#000000;stroke-width:0.8;" x="52.375" xlink:href="#md7fd7d2a9f" y="264.716296"/>
      </g>
     </g>
     <g id="text_10">
      <!-- 0 -->
      <g transform="translate(39.0125 268.515515)scale(0.1 -0.1)">
       <use xlink:href="#DejaVuSans-30"/>
      </g>
     </g>
    </g>
    <g id="ytick_2">
     <g id="line2d_11">
      <g>
       <use style="stroke:#000000;stroke-width:0.8;" x="52.375" xlink:href="#md7fd7d2a9f" y="235.113605"/>
      </g>
     </g>
     <g id="text_11">
      <!-- 100000 -->
      <g transform="translate(7.2 238.912824)scale(0.1 -0.1)">
       <use xlink:href="#DejaVuSans-31"/>
       <use x="63.623047" xlink:href="#DejaVuSans-30"/>
       <use x="127.246094" xlink:href="#DejaVuSans-30"/>
       <use x="190.869141" xlink:href="#DejaVuSans-30"/>
       <use x="254.492188" xlink:href="#DejaVuSans-30"/>
       <use x="318.115234" xlink:href="#DejaVuSans-30"/>
      </g>
     </g>
    </g>
    <g id="ytick_3">
     <g id="line2d_12">
      <g>
       <use style="stroke:#000000;stroke-width:0.8;" x="52.375" xlink:href="#md7fd7d2a9f" y="205.510914"/>
      </g>
     </g>
     <g id="text_12">
      <!-- 200000 -->
      <g transform="translate(7.2 209.310133)scale(0.1 -0.1)">
       <use xlink:href="#DejaVuSans-32"/>
       <use x="63.623047" xlink:href="#DejaVuSans-30"/>
       <use x="127.246094" xlink:href="#DejaVuSans-30"/>
       <use x="190.869141" xlink:href="#DejaVuSans-30"/>
       <use x="254.492188" xlink:href="#DejaVuSans-30"/>
       <use x="318.115234" xlink:href="#DejaVuSans-30"/>
      </g>
     </g>
    </g>
    <g id="ytick_4">
     <g id="line2d_13">
      <g>
       <use style="stroke:#000000;stroke-width:0.8;" x="52.375" xlink:href="#md7fd7d2a9f" y="175.908223"/>
      </g>
     </g>
     <g id="text_13">
      <!-- 300000 -->
      <defs>
       <path d="M 40.578125 39.3125 
Q 47.65625 37.796875 51.625 33 
Q 55.609375 28.21875 55.609375 21.1875 
Q 55.609375 10.40625 48.1875 4.484375 
Q 40.765625 -1.421875 27.09375 -1.421875 
Q 22.515625 -1.421875 17.65625 -0.515625 
Q 12.796875 0.390625 7.625 2.203125 
L 7.625 11.71875 
Q 11.71875 9.328125 16.59375 8.109375 
Q 21.484375 6.890625 26.8125 6.890625 
Q 36.078125 6.890625 40.9375 10.546875 
Q 45.796875 14.203125 45.796875 21.1875 
Q 45.796875 27.640625 41.28125 31.265625 
Q 36.765625 34.90625 28.71875 34.90625 
L 20.21875 34.90625 
L 20.21875 43.015625 
L 29.109375 43.015625 
Q 36.375 43.015625 40.234375 45.921875 
Q 44.09375 48.828125 44.09375 54.296875 
Q 44.09375 59.90625 40.109375 62.90625 
Q 36.140625 65.921875 28.71875 65.921875 
Q 24.65625 65.921875 20.015625 65.03125 
Q 15.375 64.15625 9.8125 62.3125 
L 9.8125 71.09375 
Q 15.4375 72.65625 20.34375 73.4375 
Q 25.25 74.21875 29.59375 74.21875 
Q 40.828125 74.21875 47.359375 69.109375 
Q 53.90625 64.015625 53.90625 55.328125 
Q 53.90625 49.265625 50.4375 45.09375 
Q 46.96875 40.921875 40.578125 39.3125 
z
" id="DejaVuSans-33"/>
      </defs>
      <g transform="translate(7.2 179.707442)scale(0.1 -0.1)">
       <use xlink:href="#DejaVuSans-33"/>
       <use x="63.623047" xlink:href="#DejaVuSans-30"/>
       <use x="127.246094" xlink:href="#DejaVuSans-30"/>
       <use x="190.869141" xlink:href="#DejaVuSans-30"/>
       <use x="254.492188" xlink:href="#DejaVuSans-30"/>
       <use x="318.115234" xlink:href="#DejaVuSans-30"/>
      </g>
     </g>
    </g>
    <g id="ytick_5">
     <g id="line2d_14">
      <g>
       <use style="stroke:#000000;stroke-width:0.8;" x="52.375" xlink:href="#md7fd7d2a9f" y="146.305532"/>
      </g>
     </g>
     <g id="text_14">
      <!-- 400000 -->
      <defs>
       <path d="M 37.796875 64.3125 
L 12.890625 25.390625 
L 37.796875 25.390625 
z
M 35.203125 72.90625 
L 47.609375 72.90625 
L 47.609375 25.390625 
L 58.015625 25.390625 
L 58.015625 17.1875 
L 47.609375 17.1875 
L 47.609375 0 
L 37.796875 0 
L 37.796875 17.1875 
L 4.890625 17.1875 
L 4.890625 26.703125 
z
" id="DejaVuSans-34"/>
      </defs>
      <g transform="translate(7.2 150.104751)scale(0.1 -0.1)">
       <use xlink:href="#DejaVuSans-34"/>
       <use x="63.623047" xlink:href="#DejaVuSans-30"/>
       <use x="127.246094" xlink:href="#DejaVuSans-30"/>
       <use x="190.869141" xlink:href="#DejaVuSans-30"/>
       <use x="254.492188" xlink:href="#DejaVuSans-30"/>
       <use x="318.115234" xlink:href="#DejaVuSans-30"/>
      </g>
     </g>
    </g>
    <g id="ytick_6">
     <g id="line2d_15">
      <g>
       <use style="stroke:#000000;stroke-width:0.8;" x="52.375" xlink:href="#md7fd7d2a9f" y="116.702841"/>
      </g>
     </g>
     <g id="text_15">
      <!-- 500000 -->
      <g transform="translate(7.2 120.502059)scale(0.1 -0.1)">
       <use xlink:href="#DejaVuSans-35"/>
       <use x="63.623047" xlink:href="#DejaVuSans-30"/>
       <use x="127.246094" xlink:href="#DejaVuSans-30"/>
       <use x="190.869141" xlink:href="#DejaVuSans-30"/>
       <use x="254.492188" xlink:href="#DejaVuSans-30"/>
       <use x="318.115234" xlink:href="#DejaVuSans-30"/>
      </g>
     </g>
    </g>
    <g id="ytick_7">
     <g id="line2d_16">
      <g>
       <use style="stroke:#000000;stroke-width:0.8;" x="52.375" xlink:href="#md7fd7d2a9f" y="87.10015"/>
      </g>
     </g>
     <g id="text_16">
      <!-- 600000 -->
      <defs>
       <path d="M 33.015625 40.375 
Q 26.375 40.375 22.484375 35.828125 
Q 18.609375 31.296875 18.609375 23.390625 
Q 18.609375 15.53125 22.484375 10.953125 
Q 26.375 6.390625 33.015625 6.390625 
Q 39.65625 6.390625 43.53125 10.953125 
Q 47.40625 15.53125 47.40625 23.390625 
Q 47.40625 31.296875 43.53125 35.828125 
Q 39.65625 40.375 33.015625 40.375 
z
M 52.59375 71.296875 
L 52.59375 62.3125 
Q 48.875 64.0625 45.09375 64.984375 
Q 41.3125 65.921875 37.59375 65.921875 
Q 27.828125 65.921875 22.671875 59.328125 
Q 17.53125 52.734375 16.796875 39.40625 
Q 19.671875 43.65625 24.015625 45.921875 
Q 28.375 48.1875 33.59375 48.1875 
Q 44.578125 48.1875 50.953125 41.515625 
Q 57.328125 34.859375 57.328125 23.390625 
Q 57.328125 12.15625 50.6875 5.359375 
Q 44.046875 -1.421875 33.015625 -1.421875 
Q 20.359375 -1.421875 13.671875 8.265625 
Q 6.984375 17.96875 6.984375 36.375 
Q 6.984375 53.65625 15.1875 63.9375 
Q 23.390625 74.21875 37.203125 74.21875 
Q 40.921875 74.21875 44.703125 73.484375 
Q 48.484375 72.75 52.59375 71.296875 
z
" id="DejaVuSans-36"/>
      </defs>
      <g transform="translate(7.2 90.899368)scale(0.1 -0.1)">
       <use xlink:href="#DejaVuSans-36"/>
       <use x="63.623047" xlink:href="#DejaVuSans-30"/>
       <use x="127.246094" xlink:href="#DejaVuSans-30"/>
       <use x="190.869141" xlink:href="#DejaVuSans-30"/>
       <use x="254.492188" xlink:href="#DejaVuSans-30"/>
       <use x="318.115234" xlink:href="#DejaVuSans-30"/>
      </g>
     </g>
    </g>
    <g id="ytick_8">
     <g id="line2d_17">
      <g>
       <use style="stroke:#000000;stroke-width:0.8;" x="52.375" xlink:href="#md7fd7d2a9f" y="57.497459"/>
      </g>
     </g>
     <g id="text_17">
      <!-- 700000 -->
      <g transform="translate(7.2 61.296677)scale(0.1 -0.1)">
       <use xlink:href="#DejaVuSans-37"/>
       <use x="63.623047" xlink:href="#DejaVuSans-30"/>
       <use x="127.246094" xlink:href="#DejaVuSans-30"/>
       <use x="190.869141" xlink:href="#DejaVuSans-30"/>
       <use x="254.492188" xlink:href="#DejaVuSans-30"/>
       <use x="318.115234" xlink:href="#DejaVuSans-30"/>
      </g>
     </g>
    </g>
    <g id="ytick_9">
     <g id="line2d_18">
      <g>
       <use style="stroke:#000000;stroke-width:0.8;" x="52.375" xlink:href="#md7fd7d2a9f" y="27.894768"/>
      </g>
     </g>
     <g id="text_18">
      <!-- 800000 -->
      <defs>
       <path d="M 31.78125 34.625 
Q 24.75 34.625 20.71875 30.859375 
Q 16.703125 27.09375 16.703125 20.515625 
Q 16.703125 13.921875 20.71875 10.15625 
Q 24.75 6.390625 31.78125 6.390625 
Q 38.8125 6.390625 42.859375 10.171875 
Q 46.921875 13.96875 46.921875 20.515625 
Q 46.921875 27.09375 42.890625 30.859375 
Q 38.875 34.625 31.78125 34.625 
z
M 21.921875 38.8125 
Q 15.578125 40.375 12.03125 44.71875 
Q 8.5 49.078125 8.5 55.328125 
Q 8.5 64.0625 14.71875 69.140625 
Q 20.953125 74.21875 31.78125 74.21875 
Q 42.671875 74.21875 48.875 69.140625 
Q 55.078125 64.0625 55.078125 55.328125 
Q 55.078125 49.078125 51.53125 44.71875 
Q 48 40.375 41.703125 38.8125 
Q 48.828125 37.15625 52.796875 32.3125 
Q 56.78125 27.484375 56.78125 20.515625 
Q 56.78125 9.90625 50.3125 4.234375 
Q 43.84375 -1.421875 31.78125 -1.421875 
Q 19.734375 -1.421875 13.25 4.234375 
Q 6.78125 9.90625 6.78125 20.515625 
Q 6.78125 27.484375 10.78125 32.3125 
Q 14.796875 37.15625 21.921875 38.8125 
z
M 18.3125 54.390625 
Q 18.3125 48.734375 21.84375 45.5625 
Q 25.390625 42.390625 31.78125 42.390625 
Q 38.140625 42.390625 41.71875 45.5625 
Q 45.3125 48.734375 45.3125 54.390625 
Q 45.3125 60.0625 41.71875 63.234375 
Q 38.140625 66.40625 31.78125 66.40625 
Q 25.390625 66.40625 21.84375 63.234375 
Q 18.3125 60.0625 18.3125 54.390625 
z
" id="DejaVuSans-38"/>
      </defs>
      <g transform="translate(7.2 31.693986)scale(0.1 -0.1)">
       <use xlink:href="#DejaVuSans-38"/>
       <use x="63.623047" xlink:href="#DejaVuSans-30"/>
       <use x="127.246094" xlink:href="#DejaVuSans-30"/>
       <use x="190.869141" xlink:href="#DejaVuSans-30"/>
       <use x="254.492188" xlink:href="#DejaVuSans-30"/>
       <use x="318.115234" xlink:href="#DejaVuSans-30"/>
      </g>
     </g>
    </g>
   </g>
   <g id="line2d_19">
    <path clip-path="url(#pfc742e217a)" d="M 68.607727 264.536904 
L 70.25572 263.239418 
L 71.903713 264.072141 
L 73.551705 263.208335 
L 75.199698 263.967644 
L 76.84769 264.534536 
L 78.495683 264.593149 
L 80.143676 264.388298 
L 85.087653 264.509077 
L 86.735646 264.22726 
L 88.383639 258.444078 
L 90.031631 264.464377 
L 91.679624 264.457865 
L 93.327617 263.894229 
L 94.975609 264.206538 
L 96.623602 264.16095 
L 98.271594 264.51559 
L 99.919587 264.051124 
L 101.56758 264.577459 
L 103.215572 264.63104 
L 104.863565 264.509077 
L 106.511557 263.496665 
L 108.15955 264.077766 
L 109.807543 263.85397 
L 111.455535 264.548153 
L 113.103528 264.278176 
L 114.751521 263.717501 
L 116.399513 264.042539 
L 118.047506 262.937766 
L 119.695498 264.19292 
L 121.343491 264.149997 
L 122.991484 263.533965 
L 124.639476 264.571243 
L 126.287469 263.751248 
L 127.935461 264.427078 
L 129.583454 263.997839 
L 131.231447 264.444543 
L 134.527432 264.366392 
L 136.175425 264.491316 
L 137.823417 264.260415 
L 139.47141 264.4031 
L 141.119402 264.676332 
L 142.767395 264.459345 
L 144.415388 264.405468 
L 146.06338 263.952547 
L 147.711373 264.096712 
L 149.359365 264.486875 
L 151.007358 255.315369 
L 152.655351 263.635798 
L 154.303343 264.459345 
L 155.951336 264.245613 
L 160.895314 264.626304 
L 162.543306 263.961427 
L 164.191299 264.36136 
L 165.839292 264.112697 
L 167.487284 264.560586 
L 169.135277 264.349223 
L 170.783269 262.528953 
L 172.431262 253.444775 
L 174.079255 264.298898 
L 175.727247 264.246797 
L 177.37524 263.620108 
L 179.023233 261.963838 
L 180.671225 264.377641 
L 182.319218 264.22726 
L 183.96721 264.398363 
L 185.615203 263.294183 
L 187.263196 264.526543 
L 188.911188 264.350999 
L 190.559181 263.95077 
L 192.207174 264.467041 
L 193.855166 264.360768 
L 195.503159 264.5819 
L 197.151151 264.219859 
L 198.799144 263.555871 
L 200.447137 264.108553 
L 202.095129 264.025073 
L 203.743122 264.417309 
L 205.391114 263.687306 
L 207.039107 264.49102 
L 208.6871 263.788548 
L 210.335092 264.469114 
L 211.983085 264.232884 
L 213.631078 264.520326 
L 215.27907 263.376182 
L 216.927063 264.351295 
L 218.575055 264.604102 
L 220.223048 264.585452 
L 221.871041 264.000207 
L 223.519033 263.812822 
L 225.167026 264.610022 
L 226.815018 264.617127 
L 228.463011 264.112105 
L 230.111004 264.552297 
L 231.758996 264.480659 
L 233.406989 263.72579 
L 235.054982 264.273144 
L 236.702974 264.27788 
L 238.350967 264.033066 
L 239.998959 264.511149 
L 241.646952 263.938633 
L 243.294945 264.38445 
L 246.59093 264.452832 
L 248.238922 264.573611 
L 249.886915 264.345078 
L 251.534908 263.981261 
L 253.1829 264.295642 
L 254.830893 263.863442 
L 256.478886 264.549929 
L 258.126878 264.407244 
L 259.774871 263.075123 
L 261.422863 264.630744 
L 263.070856 264.234068 
L 268.014834 264.614463 
L 269.662826 263.838872 
L 271.310819 264.112697 
L 272.958812 264.504045 
L 277.90279 264.402804 
L 279.550782 264.579236 
L 282.846767 264.541344 
L 284.49476 264.198545 
L 286.142753 264.656499 
L 287.790745 263.694707 
L 289.438738 263.443676 
L 291.086731 264.518254 
L 292.734723 263.323193 
L 294.382716 264.324652 
L 296.030708 264.34123 
L 297.678701 264.64969 
L 299.326694 264.536904 
L 300.974686 264.626896 
L 302.622679 264.533943 
L 304.270671 263.525676 
L 305.918664 264.435959 
L 307.566657 263.942778 
L 309.214649 264.626304 
L 314.158627 263.832656 
L 315.80662 264.518846 
L 317.454612 261.744778 
L 319.102605 263.716909 
L 322.39859 264.415829 
L 324.046583 264.624824 
L 325.694575 264.252422 
L 327.342568 264.375273 
L 328.990561 264.354847 
L 330.638553 264.579236 
L 332.286546 264.422341 
L 333.934539 263.77049 
L 335.582531 258.230938 
L 337.230524 264.081614 
L 338.878516 264.553481 
L 340.526509 264.66686 
L 342.174502 264.068293 
L 343.822494 262.272002 
L 345.470487 261.560649 
L 347.118479 264.423821 
L 348.766472 263.836504 
L 350.414465 264.515294 
L 352.062457 264.522102 
L 352.062457 264.522102 
" style="fill:none;stroke:#1f77b4;stroke-linecap:square;stroke-width:0.5;"/>
   </g>
   <g id="line2d_20">
    <path clip-path="url(#pfc742e217a)" d="M 68.607727 262.924149 
L 70.25572 264.639329 
L 71.903713 262.174313 
L 73.551705 264.373497 
L 75.199698 262.793601 
L 76.84769 264.234956 
L 78.495683 264.417901 
L 80.143676 264.432702 
L 81.791668 263.479496 
L 83.439661 264.403988 
L 85.087653 261.66041 
L 86.735646 264.384746 
L 88.383639 263.489857 
L 90.031631 264.127795 
L 91.679624 264.226075 
L 93.327617 264.584268 
L 94.975609 263.81223 
L 96.623602 264.23614 
L 98.271594 259.121387 
L 99.919587 264.358399 
L 101.56758 263.517979 
L 103.215572 264.485987 
L 104.863565 259.700416 
L 106.511557 257.600993 
L 108.15955 258.005662 
L 109.807543 264.300674 
L 111.455535 262.849846 
L 113.103528 264.481251 
L 114.751521 264.588708 
L 116.399513 257.955337 
L 118.047506 264.25627 
L 119.695498 263.479496 
L 121.343491 264.131051 
L 122.991484 262.261937 
L 124.639476 263.97238 
L 126.287469 260.16725 
L 127.935461 261.832698 
L 129.583454 261.758395 
L 131.231447 263.000524 
L 132.879439 264.557626 
L 134.527432 262.795673 
L 136.175425 262.984243 
L 137.823417 263.807789 
L 139.47141 263.325266 
L 141.119402 259.453234 
L 142.767395 263.785587 
L 144.415388 263.126335 
L 146.06338 264.592557 
L 147.711373 262.076624 
L 149.359365 262.91438 
L 151.007358 264.107369 
L 152.655351 262.628418 
L 154.303343 254.35121 
L 155.951336 259.900234 
L 157.599329 263.356052 
L 159.247321 251.524449 
L 160.895314 263.301287 
L 162.543306 263.195014 
L 164.191299 258.269126 
L 165.839292 261.63584 
L 167.487284 264.257454 
L 169.135277 262.890698 
L 170.783269 264.250054 
L 172.431262 262.307525 
L 174.079255 262.781168 
L 175.727247 257.019004 
L 177.37524 262.034588 
L 179.023233 262.785905 
L 180.671225 262.453762 
L 182.319218 258.04533 
L 183.96721 263.836504 
L 185.615203 264.236732 
L 187.263196 263.196494 
L 188.911188 264.510261 
L 190.559181 262.810179 
L 192.207174 259.356137 
L 193.855166 264.412572 
L 195.503159 260.176723 
L 197.151151 263.48512 
L 198.799144 260.715196 
L 200.447137 264.672484 
L 202.095129 263.886829 
L 203.743122 262.389228 
L 205.391114 259.634106 
L 207.039107 263.169851 
L 208.6871 263.631357 
L 210.335092 258.059539 
L 211.983085 263.089628 
L 213.631078 256.674133 
L 215.27907 263.178732 
L 216.927063 263.448413 
L 218.575055 259.456786 
L 220.223048 264.057044 
L 221.871041 258.968934 
L 223.519033 263.32793 
L 225.167026 261.190023 
L 226.815018 263.905478 
L 228.463011 263.515019 
L 230.111004 264.501973 
L 231.758996 264.620679 
L 233.406989 264.232292 
L 235.054982 264.706231 
L 236.702974 262.970921 
L 238.350967 262.977138 
L 239.998959 263.848049 
L 241.646952 262.787977 
L 243.294945 261.367344 
L 244.942937 263.711877 
L 246.59093 262.730251 
L 248.238922 264.382082 
L 249.886915 264.649098 
L 253.1829 263.81519 
L 254.830893 263.237346 
L 256.478886 263.782035 
L 258.126878 264.566802 
L 259.774871 264.066813 
L 261.422863 264.640513 
L 264.718849 264.521214 
L 266.366841 263.24593 
L 268.014834 263.319345 
L 269.662826 264.630448 
L 271.310819 264.246205 
L 272.958812 264.56177 
L 276.254797 264.616535 
L 277.90279 264.447504 
L 279.550782 263.858706 
L 281.198775 264.488651 
L 282.846767 263.70862 
L 284.49476 263.959651 
L 286.142753 264.411684 
L 289.438738 264.407836 
L 291.086731 264.64673 
L 292.734723 264.434182 
L 294.382716 264.716 
L 296.030708 264.568283 
L 297.678701 263.821703 
L 299.326694 264.523583 
L 300.974686 264.327613 
L 302.622679 264.65265 
L 305.918664 264.046091 
L 307.566657 264.208314 
L 309.214649 262.407582 
L 310.862642 264.089903 
L 312.510635 264.03869 
L 314.158627 262.168984 
L 315.80662 262.642035 
L 317.454612 264.23614 
L 319.102605 264.331757 
L 320.750598 254.936159 
L 322.39859 263.189093 
L 324.046583 262.959376 
L 325.694575 264.207426 
L 327.342568 264.58486 
L 328.990561 257.977539 
L 330.638553 250.21749 
L 332.286546 261.523646 
L 333.934539 264.057932 
L 335.582531 263.002892 
L 337.230524 262.831789 
L 338.878516 264.092863 
L 340.526509 255.10075 
L 342.174502 250.807472 
L 343.822494 262.07248 
L 343.822494 262.07248 
" style="fill:none;stroke:#ff7f0e;stroke-linecap:square;stroke-width:0.5;"/>
   </g>
   <g id="line2d_21">
    <path clip-path="url(#pfc742e217a)" d="M 68.607727 261.016848 
L 70.25572 262.38242 
L 71.903713 264.575091 
L 73.551705 254.546588 
L 75.199698 263.257475 
L 78.495683 264.013824 
L 80.143676 264.594925 
L 83.439661 264.458753 
L 85.087653 264.538976 
L 86.735646 263.713061 
L 88.383639 263.447821 
L 90.031631 262.697985 
L 91.679624 262.890402 
L 93.327617 263.802757 
L 94.975609 262.53369 
L 96.623602 260.689146 
L 98.271594 261.182327 
L 99.919587 260.873275 
L 101.56758 260.928632 
L 103.215572 264.224003 
L 104.863565 263.99251 
L 106.511557 264.041651 
L 108.15955 256.073494 
L 109.807543 264.366096 
L 111.455535 264.510853 
L 113.103528 263.273461 
L 114.751521 263.115086 
L 116.399513 260.039367 
L 118.047506 264.453424 
L 119.695498 263.903406 
L 121.343491 260.601226 
L 122.991484 263.953731 
L 124.639476 263.580145 
L 126.287469 261.703038 
L 127.935461 262.272002 
L 129.583454 251.752094 
L 131.231447 264.319324 
L 132.879439 264.536608 
L 134.527432 264.370833 
L 136.175425 264.414941 
L 137.823417 263.627805 
L 139.47141 264.492796 
L 141.119402 263.924128 
L 142.767395 263.757465 
L 144.415388 263.165707 
L 146.06338 264.594037 
L 147.711373 264.243837 
L 149.359365 263.041672 
L 151.007358 263.5239 
L 154.303343 261.512397 
L 155.951336 264.271664 
L 157.599329 263.441308 
L 159.247321 263.521827 
L 160.895314 263.311648 
L 162.543306 263.592282 
L 164.191299 264.056452 
L 165.839292 263.35398 
L 167.487284 264.31518 
L 169.135277 264.478882 
L 170.783269 264.49546 
L 172.431262 264.255678 
L 174.079255 264.21453 
L 175.727247 262.364066 
L 177.37524 264.464377 
L 179.023233 264.355439 
L 180.671225 264.05142 
L 183.96721 259.045012 
L 185.615203 262.532802 
L 187.263196 257.328944 
L 188.911188 264.480363 
L 190.559181 264.583084 
L 192.207174 264.464673 
L 193.855166 262.990163 
L 195.503159 261.006783 
L 197.151151 264.425894 
L 198.799144 262.754822 
L 200.447137 264.472962 
L 202.095129 264.56029 
L 203.743122 262.578686 
L 205.391114 264.07303 
L 207.039107 264.525063 
L 208.6871 264.45076 
L 210.335092 263.572448 
L 211.983085 263.498441 
L 213.631078 264.377345 
L 216.927063 264.596997 
L 218.575055 263.657112 
L 220.223048 263.308392 
L 221.871041 262.009722 
L 223.519033 263.228761 
L 225.167026 262.503791 
L 226.815018 264.303338 
L 228.463011 263.384471 
L 230.111004 263.917615 
L 231.758996 263.817854 
L 233.406989 264.173383 
L 235.054982 262.070111 
L 236.702974 263.360197 
L 238.350967 263.297143 
L 239.998959 262.840373 
L 241.646952 264.165094 
L 243.294945 263.426211 
L 244.942937 264.172495 
L 246.59093 263.923832 
L 248.238922 264.030402 
L 249.886915 264.464081 
L 251.534908 264.478586 
L 253.1829 263.672209 
L 254.830893 264.01412 
L 256.478886 262.44725 
L 258.126878 264.263967 
L 261.422863 263.819334 
L 263.070856 263.973861 
L 264.718849 262.376795 
L 266.366841 263.615668 
L 268.014834 263.75332 
L 269.662826 264.294754 
L 271.310819 263.139361 
L 272.958812 263.840056 
L 274.606804 264.385338 
L 276.254797 263.680498 
L 277.90279 264.343894 
L 279.550782 261.952589 
L 281.198775 263.486896 
L 282.846767 261.614822 
L 284.49476 261.437502 
L 286.142753 263.933601 
L 287.790745 261.088782 
L 289.438738 259.507407 
L 291.086731 262.371763 
L 292.734723 262.733804 
L 294.382716 264.045203 
L 296.030708 264.261007 
L 297.678701 264.290609 
L 299.326694 257.228591 
L 300.974686 264.304227 
L 302.622679 264.065333 
L 304.270671 264.361952 
L 305.918664 264.197361 
L 307.566657 263.788548 
L 309.214649 263.973861 
L 310.862642 263.596722 
L 312.510635 258.168477 
L 314.158627 263.745032 
L 315.80662 261.596764 
L 317.454612 259.265256 
L 319.102605 257.9879 
L 320.750598 264.237917 
L 322.39859 264.078654 
L 324.046583 258.75757 
L 325.694575 264.072141 
L 327.342568 264.0603 
L 328.990561 263.530412 
L 330.638553 261.42122 
L 332.286546 264.247093 
L 333.934539 264.559106 
L 335.582531 264.417901 
L 337.230524 244.395825 
L 338.878516 260.194485 
L 340.526509 264.187592 
L 342.174502 264.638441 
L 343.822494 264.412276 
L 345.470487 263.86285 
L 347.118479 260.8416 
L 348.766472 264.274032 
L 350.414465 264.480067 
L 353.71045 264.292089 
L 355.358443 263.927384 
L 357.006435 262.777024 
L 358.654428 264.313995 
L 360.30242 263.808381 
L 361.950413 264.529799 
L 363.598406 264.575683 
L 365.246398 264.229036 
L 366.894391 257.925143 
L 368.542383 263.056177 
L 370.190376 263.111534 
L 371.838369 262.288875 
L 373.486361 263.238826 
L 375.134354 263.012957 
L 376.782347 260.730294 
L 378.430339 264.455792 
L 380.078332 264.108849 
L 381.726324 264.317252 
L 383.374317 263.791212 
L 385.02231 258.804935 
L 386.670302 263.953435 
L 388.318295 259.355841 
L 389.966287 264.05882 
L 391.61428 264.036322 
L 391.61428 264.036322 
" style="fill:none;stroke:#2ca02c;stroke-linecap:square;stroke-width:0.5;"/>
   </g>
   <g id="line2d_22">
    <path clip-path="url(#pfc742e217a)" d="M 68.607727 263.871435 
L 70.25572 262.570101 
L 71.903713 264.192624 
L 73.551705 264.440695 
L 75.199698 263.203895 
L 76.84769 263.844201 
L 78.495683 264.319028 
L 80.143676 261.459408 
L 81.791668 262.070111 
L 83.439661 263.898374 
L 85.087653 262.545235 
L 86.735646 263.195014 
L 88.383639 259.670517 
L 90.031631 262.885962 
L 91.679624 262.163656 
L 93.327617 263.845385 
L 94.975609 262.82942 
L 96.623602 264.34271 
L 98.271594 263.511467 
L 99.919587 264.44928 
L 101.56758 264.188776 
L 103.215572 263.609451 
L 104.863565 264.039282 
L 106.511557 264.153845 
L 108.15955 262.700057 
L 109.807543 264.624824 
L 111.455535 264.357511 
L 113.103528 264.397475 
L 114.751521 263.062394 
L 116.399513 264.570059 
L 118.047506 263.796244 
L 119.695498 264.504933 
L 121.343491 264.4105 
L 122.991484 264.473554 
L 124.639476 264.336197 
L 126.287469 264.643769 
L 127.935461 264.404284 
L 129.583454 264.427078 
L 131.231447 263.609451 
L 132.879439 263.009405 
L 134.527432 264.007016 
L 136.175425 264.507005 
L 137.823417 262.86672 
L 139.47141 264.493092 
L 141.119402 263.41733 
L 142.767395 264.281729 
L 144.415388 264.12513 
L 146.06338 264.514998 
L 147.711373 264.028329 
L 149.359365 263.258956 
L 151.007358 264.666564 
L 152.655351 264.187296 
L 154.303343 263.514131 
L 157.599329 263.709212 
L 159.247321 264.571539 
L 160.895314 263.492225 
L 162.543306 263.780259 
L 164.191299 264.192328 
L 165.839292 263.479792 
L 167.487284 264.395995 
L 169.135277 263.403121 
L 170.783269 263.780259 
L 172.431262 262.89277 
L 174.079255 264.544304 
L 175.727247 264.10056 
L 177.37524 264.510853 
L 180.671225 264.302746 
L 182.319218 264.596997 
L 183.96721 264.633112 
L 185.615203 263.56712 
L 187.263196 263.974749 
L 188.911188 263.476831 
L 190.559181 264.460529 
L 192.207174 262.814027 
L 193.855166 264.129867 
L 195.503159 263.951659 
L 197.151151 264.395403 
L 198.799144 264.269591 
L 200.447137 264.515294 
L 202.095129 264.497236 
L 203.743122 263.717797 
L 205.391114 264.121282 
L 207.039107 264.354847 
L 208.6871 264.425894 
L 211.983085 264.090199 
L 213.631078 254.471397 
L 215.27907 264.588412 
L 216.927063 263.589618 
L 218.575055 263.057953 
L 220.223048 262.210724 
L 221.871041 263.685234 
L 223.519033 263.759833 
L 225.167026 263.636094 
L 226.815018 264.33827 
L 228.463011 263.579849 
L 230.111004 263.52686 
L 231.758996 264.408724 
L 233.406989 264.278472 
L 235.054982 263.464694 
L 236.702974 264.282321 
L 238.350967 263.85989 
L 239.998959 264.626304 
L 241.646952 263.339179 
L 243.294945 264.045203 
L 244.942937 264.009088 
L 246.59093 264.580716 
L 248.238922 263.646751 
L 249.886915 264.588708 
L 251.534908 263.766642 
L 253.1829 264.51263 
L 254.830893 263.604123 
L 256.478886 264.511445 
L 258.126878 263.865515 
L 259.774871 264.45372 
L 261.422863 264.064445 
L 263.070856 264.39037 
L 264.718849 264.331757 
L 268.014834 263.90459 
L 271.310819 264.577163 
L 274.606804 264.142596 
L 276.254797 264.18848 
L 277.90279 263.631061 
L 279.550782 264.114473 
L 282.846767 264.329093 
L 284.49476 263.99547 
L 286.142753 263.890085 
L 287.790745 264.331757 
L 289.438738 264.384154 
L 291.086731 264.594333 
L 296.030708 264.527135 
L 297.678701 264.027441 
L 299.326694 264.678701 
L 300.974686 264.36876 
L 302.622679 264.263079 
L 304.270671 264.618015 
L 305.918664 264.596997 
L 307.566657 263.757169 
L 309.214649 264.565914 
L 310.862642 263.901926 
L 312.510635 264.448688 
L 314.158627 264.402211 
L 315.80662 264.573907 
L 317.454612 264.568579 
L 319.102605 263.574224 
L 320.750598 263.360789 
L 322.39859 263.83532 
L 324.046583 263.584289 
L 327.342568 264.440103 
L 328.990561 263.845089 
L 330.638553 264.598477 
L 332.286546 263.772562 
L 335.582531 264.214826 
L 337.230524 263.753913 
L 338.878516 263.837688 
L 342.174502 264.278472 
L 343.822494 263.907847 
L 345.470487 264.492796 
L 347.118479 264.178711 
L 348.766472 264.450168 
L 350.414465 264.245909 
L 352.062457 264.606766 
L 353.71045 264.626896 
L 355.358443 263.906958 
L 357.006435 262.139678 
L 358.654428 263.504066 
L 360.30242 263.675169 
L 361.950413 264.327909 
L 363.598406 264.204762 
L 365.246398 261.396058 
L 366.894391 262.92859 
L 368.542383 262.853399 
L 370.190376 263.250075 
L 371.838369 264.115953 
L 373.486361 263.904294 
L 375.134354 264.208314 
L 376.782347 260.913534 
L 378.430339 264.427078 
L 380.078332 264.657091 
L 383.374317 261.473913 
L 385.02231 260.75664 
L 386.670302 262.25276 
L 388.318295 263.268428 
L 389.966287 263.292111 
L 389.966287 263.292111 
" style="fill:none;stroke:#d62728;stroke-linecap:square;stroke-width:0.5;"/>
   </g>
   <g id="line2d_23">
    <path clip-path="url(#pfc742e217a)" d="M 68.607727 262.20658 
L 70.25572 264.577163 
L 71.903713 264.378529 
L 73.551705 263.506138 
L 75.199698 262.785016 
L 76.84769 263.801869 
L 80.143676 264.682253 
L 81.791668 264.649098 
L 83.439661 261.962358 
L 85.087653 264.555257 
L 86.735646 263.839464 
L 88.383639 262.500239 
L 90.031631 263.711285 
L 91.679624 262.609473 
L 93.327617 264.458161 
L 94.975609 264.535424 
L 96.623602 263.494889 
L 98.271594 263.528932 
L 99.919587 264.49694 
L 101.56758 264.246797 
L 103.215572 264.420565 
L 104.863565 263.085484 
L 106.511557 264.578051 
L 108.15955 264.484803 
L 109.807543 259.509775 
L 111.455535 261.403755 
L 113.103528 262.773767 
L 114.751521 264.538976 
L 116.399513 264.063853 
L 118.047506 263.752136 
L 119.695498 263.671617 
L 121.343491 264.204762 
L 122.991484 263.70418 
L 124.639476 264.199433 
L 126.287469 263.404897 
L 129.583454 264.523583 
L 131.231447 264.524471 
L 132.879439 263.965276 
L 134.527432 262.402254 
L 136.175425 264.565914 
L 137.823417 263.747104 
L 141.119402 264.431814 
L 142.767395 264.237028 
L 144.415388 263.675169 
L 146.06338 261.837138 
L 149.359365 264.083983 
L 151.007358 262.388932 
L 152.655351 264.159765 
L 154.303343 263.988958 
L 155.951336 264.314291 
L 157.599329 264.198841 
L 159.247321 263.160083 
L 160.895314 264.130755 
L 162.543306 261.267583 
L 164.191299 264.146444 
L 165.839292 259.894314 
L 167.487284 262.019491 
L 169.135277 264.509373 
L 170.783269 263.497553 
L 172.431262 263.248299 
L 175.727247 263.040488 
L 177.37524 261.777341 
L 179.023233 262.176977 
L 180.671225 261.589364 
L 182.319218 264.320212 
L 183.96721 264.255086 
L 185.615203 262.161584 
L 187.263196 262.756598 
L 188.911188 264.422341 
L 190.559181 264.309555 
L 192.207174 264.33679 
L 193.855166 264.213938 
L 195.503159 262.635227 
L 197.151151 264.147332 
L 198.799144 264.349519 
L 200.447137 263.602939 
L 202.095129 264.508485 
L 203.743122 264.392739 
L 205.391114 260.55919 
L 207.039107 264.299786 
L 208.6871 264.367576 
L 210.335092 255.818911 
L 211.983085 262.902243 
L 213.631078 263.491041 
L 215.27907 263.892453 
L 216.927063 261.486642 
L 218.575055 264.025961 
L 220.223048 264.494868 
L 221.871041 264.027441 
L 223.519033 264.36876 
L 225.167026 263.1737 
L 226.815018 264.275512 
L 228.463011 263.475351 
L 230.111004 262.938062 
L 231.758996 263.532484 
L 233.406989 264.51707 
L 235.054982 260.64859 
L 238.350967 264.399251 
L 239.998959 264.089015 
L 241.646952 262.70953 
L 243.294945 264.344486 
L 244.942937 264.143484 
L 246.59093 264.060892 
L 248.238922 264.360176 
L 249.886915 263.713653 
L 251.534908 260.716676 
L 253.1829 264.153549 
L 254.830893 264.579532 
L 256.478886 262.583718 
L 258.126878 264.4478 
L 259.774871 264.172791 
L 261.422863 264.079838 
L 263.070856 261.924466 
L 264.718849 263.972676 
L 266.366841 264.40754 
L 268.014834 263.59613 
L 269.662826 263.92324 
L 271.310819 264.554073 
L 272.958812 264.454312 
L 274.606804 263.202414 
L 276.254797 264.162134 
L 277.90279 259.579341 
L 279.550782 264.028033 
L 281.198775 262.496982 
L 282.846767 264.376161 
L 284.49476 261.386289 
L 286.142753 262.900171 
L 287.790745 263.744144 
L 289.438738 263.126039 
L 291.086731 264.488355 
L 292.734723 264.570355 
L 294.382716 264.538976 
L 296.030708 258.62051 
L 297.678701 263.900446 
L 299.326694 263.325266 
L 300.974686 264.192624 
L 302.622679 264.112105 
L 304.270671 264.149404 
L 305.918664 262.93599 
L 307.566657 264.299786 
L 309.214649 262.556484 
L 310.862642 264.20713 
L 312.510635 264.178711 
L 314.158627 263.291222 
L 315.80662 264.541344 
L 317.454612 264.135787 
L 319.102605 263.277605 
L 320.750598 262.110667 
L 322.39859 256.409485 
L 324.046583 264.525951 
L 325.694575 260.571327 
L 327.342568 264.533647 
L 328.990561 264.402211 
L 330.638553 263.515611 
L 332.286546 264.444839 
L 335.582531 264.533943 
L 337.230524 264.23318 
L 338.878516 263.746808 
L 340.526509 264.391555 
L 342.174502 263.999911 
L 343.822494 264.297714 
L 345.470487 263.9709 
L 348.766472 264.160061 
L 350.414465 263.634318 
L 352.062457 262.95612 
L 353.71045 264.131939 
L 355.358443 263.496665 
L 357.006435 264.311331 
L 358.654428 264.17131 
L 360.30242 261.45704 
L 361.950413 263.065354 
L 363.598406 263.266652 
L 365.246398 261.920914 
L 366.894391 261.395762 
L 368.542383 263.901038 
L 370.190376 262.495502 
L 371.838369 261.364087 
L 373.486361 259.924212 
L 375.134354 264.303338 
L 376.782347 261.930979 
L 378.430339 262.457315 
L 380.078332 262.287987 
L 381.726324 264.510261 
L 383.374317 264.438327 
L 385.02231 264.498124 
L 388.318295 263.822887 
L 389.966287 260.587609 
L 391.61428 260.840712 
L 391.61428 260.840712 
" style="fill:none;stroke:#9467bd;stroke-linecap:square;stroke-width:0.5;"/>
   </g>
   <g id="line2d_24">
    <path clip-path="url(#pfc742e217a)" d="M 68.607727 262.561516 
L 70.25572 260.458245 
L 71.903713 256.68035 
L 73.551705 238.739639 
L 75.199698 261.673139 
L 76.84769 262.563884 
L 78.495683 263.86285 
L 80.143676 257.495904 
L 81.791668 258.352902 
L 83.439661 263.606491 
L 85.087653 264.389482 
L 86.735646 258.640344 
L 88.383639 260.586721 
L 90.031631 264.072437 
L 91.679624 263.714541 
L 93.327617 262.172241 
L 94.975609 264.326133 
L 96.623602 263.113606 
L 98.271594 260.604482 
L 99.919587 264.330869 
L 101.56758 258.584987 
L 103.215572 263.490449 
L 104.863565 264.317844 
L 106.511557 262.785905 
L 108.15955 263.214552 
L 109.807543 261.095591 
L 111.455535 261.809904 
L 113.103528 263.908439 
L 114.751521 264.187888 
L 116.399513 261.803687 
L 118.047506 264.488355 
L 119.695498 254.02558 
L 121.343491 260.230008 
L 122.991484 264.462009 
L 124.639476 263.221064 
L 126.287469 263.939521 
L 127.935461 263.545806 
L 129.583454 255.952419 
L 131.231447 264.419973 
L 134.527432 264.232292 
L 136.175425 263.329706 
L 137.823417 262.705089 
L 139.47141 264.269295 
L 141.119402 264.507893 
L 142.767395 260.573103 
L 144.415388 262.554708 
L 146.06338 261.325604 
L 147.711373 262.923261 
L 149.359365 260.67168 
L 151.007358 263.515907 
L 152.655351 260.046472 
L 154.303343 261.623407 
L 155.951336 264.252718 
L 157.599329 264.531871 
L 159.247321 264.030698 
L 160.895314 264.450464 
L 162.543306 260.256355 
L 164.191299 264.064149 
L 165.839292 264.149108 
L 167.487284 258.778588 
L 169.135277 264.543416 
L 170.783269 259.876256 
L 172.431262 263.634022 
L 174.079255 262.156551 
L 175.727247 264.54164 
L 177.37524 263.762201 
L 179.023233 259.356137 
L 180.671225 253.407476 
L 182.319218 258.776516 
L 183.96721 262.481589 
L 185.615203 258.146275 
L 187.263196 256.761165 
L 188.911188 263.182877 
L 190.559181 249.809269 
L 192.207174 249.837983 
L 193.855166 241.327802 
L 195.503159 263.029535 
L 197.151151 264.333829 
L 198.799144 256.154014 
L 200.447137 262.634931 
L 202.095129 261.917954 
L 203.743122 261.847203 
L 205.391114 262.081657 
L 207.039107 263.596426 
L 208.6871 263.188205 
L 210.335092 264.489539 
L 211.983085 264.659163 
L 213.631078 264.388298 
L 215.27907 263.006741 
L 216.927063 264.432702 
L 218.575055 263.084892 
L 220.223048 264.297714 
L 221.871041 258.988175 
L 225.167026 264.581308 
L 226.815018 260.93692 
L 228.463011 264.406652 
L 230.111004 264.476514 
L 231.758996 264.102928 
L 233.406989 260.475118 
L 235.054982 263.568304 
L 236.702974 264.597589 
L 238.350967 264.33827 
L 239.998959 264.507005 
L 243.294945 264.317548 
L 244.942937 263.37411 
L 246.59093 264.533647 
L 248.238922 264.57894 
L 251.534908 264.167462 
L 253.1829 264.60351 
L 254.830893 259.203683 
L 256.478886 263.164819 
L 258.126878 258.711686 
L 259.774871 263.200342 
L 261.422863 259.803729 
L 263.070856 263.202118 
L 264.718849 263.495185 
L 266.366841 264.346854 
L 268.014834 263.610043 
L 269.662826 259.449385 
L 271.310819 241.25942 
L 272.958812 260.946097 
L 274.606804 262.975954 
L 276.254797 247.068652 
L 277.90279 242.948253 
L 279.550782 236.411387 
L 281.198775 263.15801 
L 282.846767 263.063874 
L 284.49476 257.082354 
L 286.142753 263.305728 
L 287.790745 262.76015 
L 289.438738 263.472983 
L 291.086731 264.439215 
L 292.734723 263.915247 
L 294.382716 264.29801 
L 296.030708 262.5627 
L 297.678701 260.210766 
L 299.326694 244.446741 
L 300.974686 259.358209 
L 302.622679 263.266356 
L 304.270671 258.982551 
L 305.918664 263.96646 
L 307.566657 259.746596 
L 309.214649 260.257835 
L 310.862642 242.271832 
L 312.510635 263.433019 
L 314.158627 259.820011 
L 315.80662 239.158517 
L 317.454612 261.594988 
L 319.102605 263.81815 
L 320.750598 263.766346 
L 322.39859 264.432406 
L 324.046583 263.41585 
L 325.694575 259.701896 
L 327.342568 259.066326 
L 328.990561 264.159765 
L 330.638553 264.413757 
L 332.286546 263.340363 
L 333.934539 256.509246 
L 335.582531 260.879787 
L 337.230524 259.855238 
L 338.878516 264.1423 
L 340.526509 263.232313 
L 342.174502 263.511467 
L 343.822494 259.819419 
L 345.470487 263.326746 
L 347.118479 263.660664 
L 348.766472 264.509077 
L 350.414465 264.152069 
L 352.062457 264.390962 
L 353.71045 264.448984 
L 355.358443 263.25866 
L 357.006435 263.716317 
L 358.654428 264.476514 
L 360.30242 264.279656 
L 361.950413 264.2764 
L 363.598406 264.044611 
L 365.246398 263.342435 
L 366.894391 243.013379 
L 368.542383 264.07303 
L 370.190376 263.846865 
L 371.838369 264.589004 
L 373.486361 264.149701 
L 375.134354 263.432427 
L 376.782347 262.354593 
L 378.430339 264.115361 
L 380.078332 264.125722 
L 381.726324 263.638166 
L 383.374317 263.983925 
L 385.02231 264.620975 
L 386.670302 264.4552 
L 388.318295 249.851601 
L 389.966287 263.514131 
L 391.61428 264.451056 
L 391.61428 264.451056 
" style="fill:none;stroke:#8c564b;stroke-linecap:square;stroke-width:0.5;"/>
   </g>
   <g id="line2d_25">
    <path clip-path="url(#pfc742e217a)" d="M 68.607727 242.673244 
L 70.25572 261.777933 
L 71.903713 222.245907 
L 73.551705 249.53426 
L 75.199698 249.83828 
L 76.84769 253.288473 
L 78.495683 250.947492 
L 80.143676 261.340997 
L 81.791668 209.89152 
L 83.439661 209.170991 
L 85.087653 252.336451 
L 86.735646 223.776958 
L 88.383639 226.675654 
L 90.031631 218.548235 
L 91.679624 224.858345 
L 93.327617 254.252633 
L 94.975609 214.184502 
L 96.623602 245.913851 
L 98.271594 260.544389 
L 99.919587 252.727798 
L 101.56758 219.211927 
L 103.215572 216.294878 
L 104.863565 86.807675 
L 106.511557 218.425976 
L 108.15955 225.605221 
L 109.807543 216.917127 
L 111.455535 224.574455 
L 113.103528 221.57659 
L 114.751521 223.505798 
L 116.399513 101.175637 
L 118.047506 103.896124 
L 119.695498 218.280627 
L 121.343491 77.710472 
L 122.991484 213.517554 
L 124.639476 250.946012 
L 126.287469 209.818994 
L 127.935461 211.916344 
L 129.583454 213.469301 
L 131.231447 213.988533 
L 132.879439 58.76475 
L 134.527432 215.035876 
L 136.175425 251.895371 
L 137.823417 210.883802 
L 139.47141 249.418217 
L 141.119402 207.309573 
L 142.767395 211.22897 
L 144.415388 261.374744 
L 146.06338 208.420562 
L 147.711373 251.555236 
L 149.359365 251.493958 
L 151.007358 22.796 
L 152.655351 250.179895 
L 154.303343 252.473807 
L 155.951336 251.723675 
L 157.599329 37.063609 
L 159.247321 252.898606 
L 160.895314 252.226329 
L 162.543306 213.608138 
L 164.191299 252.538341 
L 165.839292 251.337952 
L 167.487284 40.484792 
L 169.135277 252.517619 
L 170.783269 52.631072 
L 172.431262 252.863971 
L 174.079255 251.750613 
L 175.727247 252.233433 
L 177.37524 215.805842 
L 179.023233 206.730545 
L 180.671225 68.478577 
L 182.319218 261.505884 
L 183.96721 213.432298 
L 185.615203 250.414052 
L 187.263196 249.669248 
L 188.911188 251.576254 
L 190.559181 213.955082 
L 192.207174 208.970876 
L 193.855166 251.921125 
L 195.503159 212.696375 
L 197.151151 218.351673 
L 198.799144 214.926642 
L 200.447137 217.433102 
L 202.095129 214.216769 
L 203.743122 215.007457 
L 205.391114 211.181309 
L 207.039107 252.278725 
L 208.6871 252.4818 
L 210.335092 261.735601 
L 211.983085 217.439318 
L 213.631078 252.458414 
L 215.27907 67.296541 
L 216.927063 216.675273 
L 218.575055 252.806837 
L 220.223048 212.347063 
L 221.871041 213.756743 
L 223.519033 217.566018 
L 225.167026 252.228105 
L 226.815018 255.376351 
L 228.463011 253.586276 
L 230.111004 252.594586 
L 231.758996 252.880844 
L 233.406989 209.723969 
L 235.054982 213.701979 
L 236.702974 215.532313 
L 238.350967 253.040699 
L 239.998959 215.573757 
L 241.646952 214.231571 
L 243.294945 217.68058 
L 244.942937 219.12756 
L 246.59093 251.783768 
L 248.238922 216.723821 
L 249.886915 253.185456 
L 251.534908 214.741921 
L 253.1829 216.46539 
L 254.830893 252.91844 
L 256.478886 216.137688 
L 258.126878 215.371866 
L 259.774871 215.773279 
L 261.422863 220.697686 
L 263.070856 253.485923 
L 264.718849 219.474799 
L 266.366841 221.493111 
L 268.014834 221.867881 
L 269.662826 88.164958 
L 271.310819 224.108509 
L 272.958812 222.449278 
L 274.606804 253.312747 
L 276.254797 225.043362 
L 277.90279 220.393075 
L 279.550782 77.238901 
L 281.198775 83.548123 
L 282.846767 253.566442 
L 284.49476 83.672454 
L 286.142753 254.201124 
L 287.790745 223.469682 
L 289.438738 223.691999 
L 291.086731 214.187463 
L 292.734723 74.298466 
L 294.382716 216.556566 
L 296.030708 253.139868 
L 297.678701 82.043418 
L 299.326694 218.589383 
L 300.974686 221.231423 
L 302.622679 220.693542 
L 304.270671 254.185435 
L 305.918664 224.639877 
L 307.566657 106.208983 
L 309.214649 253.920491 
L 310.862642 224.235208 
L 312.510635 222.503747 
L 314.158627 222.288831 
L 315.80662 220.916154 
L 317.454612 221.644677 
L 319.102605 224.197613 
L 320.750598 223.527112 
L 322.39859 220.042875 
L 324.046583 253.71416 
L 325.694575 220.735282 
L 327.342568 223.500469 
L 328.990561 224.156761 
L 330.638553 223.038371 
L 332.286546 222.107071 
L 333.934539 253.792015 
L 335.582531 254.242864 
L 337.230524 254.564941 
L 338.878516 224.069729 
L 340.526509 222.711262 
L 342.174502 223.520599 
L 343.822494 219.266988 
L 345.470487 253.995089 
L 347.118479 222.549927 
L 348.766472 254.647533 
L 350.414465 225.072076 
L 352.062457 102.285738 
L 353.71045 253.203809 
L 355.358443 254.016699 
L 357.006435 253.718304 
L 358.654428 220.366728 
L 360.30242 253.842043 
L 361.950413 221.670135 
L 363.598406 94.613313 
L 365.246398 255.411282 
L 366.894391 223.966712 
L 368.542383 51.007365 
L 370.190376 210.168601 
L 371.838369 208.082796 
L 373.486361 252.63751 
L 375.134354 45.957145 
L 376.782347 252.054633 
L 378.430339 215.221189 
L 380.078332 251.860439 
L 381.726324 251.866656 
L 383.374317 215.333975 
L 385.02231 211.490361 
L 386.670302 213.140711 
L 388.318295 211.52174 
L 389.966287 214.900295 
L 389.966287 214.900295 
" style="fill:none;stroke:#e377c2;stroke-linecap:square;stroke-width:0.5;"/>
   </g>
   <g id="line2d_26">
    <path clip-path="url(#pfc742e217a)" d="M 68.607727 263.071274 
L 70.25572 257.688321 
L 71.903713 264.356919 
L 73.551705 264.310147 
L 75.199698 263.279677 
L 76.84769 264.427966 
L 81.791668 264.525951 
L 83.439661 263.419402 
L 85.087653 264.413757 
L 88.383639 264.361656 
L 90.031631 262.997564 
L 91.679624 264.553185 
L 93.327617 264.499308 
L 94.975609 263.41733 
L 96.623602 264.502565 
L 98.271594 264.194401 
L 99.919587 264.594925 
L 101.56758 264.069477 
L 104.863565 264.560882 
L 106.511557 261.544664 
L 108.15955 263.864627 
L 109.807543 263.762497 
L 111.455535 264.575979 
L 114.751521 264.601142 
L 116.399513 259.230917 
L 118.047506 264.049643 
L 119.695498 264.027145 
L 121.343491 264.585452 
L 122.991484 262.49639 
L 126.287469 264.482731 
L 127.935461 264.351295 
L 129.583454 263.775226 
L 131.231447 263.784699 
L 132.879439 260.425682 
L 134.527432 263.955211 
L 137.823417 263.425915 
L 139.47141 264.107369 
L 141.119402 264.225779 
L 142.767395 263.739111 
L 144.415388 264.468522 
L 146.06338 264.387706 
L 147.711373 264.067109 
L 149.359365 263.076899 
L 151.007358 264.3658 
L 152.655351 263.723718 
L 154.303343 264.619495 
L 155.951336 264.390962 
L 157.599329 263.767234 
L 159.247321 264.280544 
L 160.895314 263.917911 
L 162.543306 262.197995 
L 164.191299 264.104112 
L 167.487284 262.78028 
L 169.135277 264.448688 
L 170.783269 264.096416 
L 174.079255 264.239397 
L 175.727247 263.742367 
L 177.37524 264.280544 
L 179.023233 264.573907 
L 180.671225 264.550521 
L 182.319218 263.390688 
L 183.96721 264.639033 
L 185.615203 264.376753 
L 187.263196 263.869067 
L 188.911188 263.66096 
L 193.855166 264.573611 
L 195.503159 264.232588 
L 197.151151 262.621906 
L 198.799144 264.048163 
L 200.447137 263.855154 
L 202.095129 263.938929 
L 203.743122 263.579849 
L 205.391114 263.657408 
L 210.335092 264.393923 
L 216.927063 263.072163 
L 218.575055 263.944554 
L 220.223048 261.511805 
L 221.871041 264.399251 
L 223.519033 263.232313 
L 225.167026 263.604715 
L 226.815018 264.632816 
L 231.758996 264.058228 
L 233.406989 262.948127 
L 235.054982 263.729638 
L 236.702974 263.417922 
L 238.350967 264.308371 
L 239.998959 264.278176 
L 241.646952 264.536016 
L 243.294945 264.343894 
L 244.942937 263.629877 
L 246.59093 258.662546 
L 248.238922 264.381194 
L 249.886915 263.578961 
L 251.534908 264.060892 
L 253.1829 264.264855 
L 254.830893 262.586382 
L 256.478886 264.170126 
L 258.126878 263.177548 
L 259.774871 263.324377 
L 261.422863 264.361952 
L 263.070856 263.029831 
L 264.718849 263.431243 
L 266.366841 264.607358 
L 268.014834 262.674894 
L 269.662826 264.062965 
L 271.310819 262.43008 
L 272.958812 263.824071 
L 274.606804 262.151223 
L 276.254797 264.574499 
L 277.90279 263.442788 
L 281.198775 263.698556 
L 282.846767 264.332645 
L 284.49476 263.957579 
L 286.142753 264.089903 
L 287.790745 263.46647 
L 289.438738 263.424435 
L 291.086731 264.244725 
L 292.734723 263.485712 
L 294.382716 263.192942 
L 299.326694 263.634022 
L 300.974686 263.595242 
L 302.622679 264.050828 
L 304.270671 262.889218 
L 305.918664 264.041355 
L 307.566657 264.225483 
L 310.862642 263.002004 
L 312.510635 264.061188 
L 314.158627 263.755097 
L 315.80662 264.184632 
L 317.454612 259.514511 
L 319.102605 263.367005 
L 320.750598 262.418831 
L 322.39859 263.880612 
L 324.046583 264.290017 
L 325.694575 264.523879 
L 327.342568 263.553502 
L 328.990561 264.200025 
L 330.638553 262.684663 
L 332.286546 263.44486 
L 333.934539 263.897486 
L 335.582531 264.142596 
L 337.230524 263.845089 
L 338.878516 262.62457 
L 340.526509 263.90163 
L 342.174502 262.959376 
L 343.822494 263.502586 
L 345.470487 263.83532 
L 347.118479 264.362248 
L 350.414465 264.498124 
L 352.062457 262.391597 
L 355.358443 263.954323 
L 357.006435 263.059729 
L 358.654428 263.900446 
L 360.30242 262.591119 
L 361.950413 264.401619 
L 363.598406 263.427395 
L 365.246398 264.249166 
L 366.894391 263.858706 
L 368.542383 264.252422 
L 370.190376 263.301287 
L 371.838369 263.872915 
L 373.486361 263.860778 
L 375.134354 263.572744 
L 376.782347 262.489286 
L 378.430339 263.474759 
L 380.078332 264.12069 
L 381.726324 264.079838 
L 383.374317 262.825572 
L 385.02231 260.214319 
L 386.670302 262.354889 
L 388.318295 264.087535 
L 389.966287 264.558218 
L 391.61428 262.008834 
L 393.262273 263.968236 
L 393.262273 263.968236 
" style="fill:none;stroke:#7f7f7f;stroke-linecap:square;stroke-width:0.5;"/>
   </g>
   <g id="line2d_27">
    <path clip-path="url(#pfc742e217a)" d="M 68.607727 264.40754 
L 70.25572 264.619495 
L 71.903713 264.198841 
L 73.551705 264.231404 
L 75.199698 264.697054 
L 76.84769 258.09743 
L 78.495683 264.189368 
L 80.143676 261.639392 
L 81.791668 261.320571 
L 83.439661 260.77381 
L 85.087653 264.459641 
L 86.735646 263.349244 
L 88.383639 264.355143 
L 90.031631 264.199729 
L 91.679624 262.590231 
L 93.327617 263.245042 
L 94.975609 263.779963 
L 96.623602 260.920047 
L 98.271594 263.535741 
L 99.919587 255.498314 
L 101.56758 261.41974 
L 103.215572 264.593741 
L 104.863565 262.846294 
L 106.511557 263.870547 
L 108.15955 264.108849 
L 109.807543 259.216116 
L 111.455535 262.980098 
L 113.103528 264.506117 
L 114.751521 263.252739 
L 116.399513 262.288579 
L 118.047506 262.977138 
L 119.695498 262.639963 
L 121.343491 263.929753 
L 122.991484 264.402508 
L 124.639476 264.180783 
L 126.287469 264.535424 
L 127.935461 264.456088 
L 129.583454 263.491041 
L 131.231447 264.320212 
L 132.879439 264.163022 
L 134.527432 264.271368 
L 136.175425 263.889493 
L 137.823417 261.382145 
L 139.47141 264.534536 
L 142.767395 263.941594 
L 144.415388 262.836525 
L 146.06338 263.826735 
L 147.711373 263.905182 
L 149.359365 264.451648 
L 151.007358 264.211274 
L 152.655351 263.521531 
L 154.303343 263.892749 
L 155.951336 262.163064 
L 157.599329 263.552318 
L 159.247321 243.632075 
L 160.895314 264.556145 
L 162.543306 264.618015 
L 164.191299 264.395995 
L 165.839292 263.512947 
L 167.487284 263.975933 
L 169.135277 263.325858 
L 170.783269 264.554073 
L 172.431262 263.975341 
L 174.079255 264.462897 
L 175.727247 263.244154 
L 177.37524 262.550267 
L 179.023233 264.347446 
L 180.671225 260.033742 
L 182.319218 264.069181 
L 183.96721 261.094703 
L 185.615203 264.132235 
L 187.263196 261.666035 
L 188.911188 264.342118 
L 190.559181 263.315793 
L 192.207174 263.639646 
L 193.855166 261.362607 
L 195.503159 259.821491 
L 197.151151 260.811701 
L 198.799144 260.797196 
L 200.447137 262.943983 
L 202.095129 263.68109 
L 203.743122 261.263142 
L 205.391114 263.520643 
L 207.039107 264.491908 
L 208.6871 263.857522 
L 210.335092 263.780851 
L 211.983085 264.416125 
L 213.631078 264.594925 
L 216.927063 264.138748 
L 218.575055 264.14082 
L 220.223048 264.439215 
L 221.871041 259.801065 
L 223.519033 264.468225 
L 225.167026 262.769623 
L 226.815018 263.899558 
L 228.463011 263.644383 
L 230.111004 264.081614 
L 231.758996 263.368486 
L 233.406989 263.369374 
L 235.054982 264.246797 
L 236.702974 263.75036 
L 238.350967 262.806922 
L 239.998959 263.559423 
L 241.646952 263.380031 
L 243.294945 263.643198 
L 244.942937 261.944892 
L 246.59093 262.976546 
L 248.238922 263.351316 
L 249.886915 263.889789 
L 251.534908 263.811342 
L 253.1829 264.660347 
L 254.830893 264.093455 
L 256.478886 263.808085 
L 258.126878 264.418493 
L 259.774871 263.714837 
L 263.070856 263.57156 
L 264.718849 263.08726 
L 266.366841 264.455792 
L 268.014834 263.939521 
L 269.662826 264.421157 
L 271.310819 264.017969 
L 272.958812 263.120711 
L 274.606804 264.586636 
L 276.254797 264.533647 
L 277.90279 263.175772 
L 279.550782 264.403396 
L 281.198775 264.420269 
L 282.846767 264.122466 
L 284.49476 264.552001 
L 286.142753 263.601755 
L 287.790745 261.826481 
L 289.438738 264.316364 
L 291.086731 261.682908 
L 292.734723 262.725515 
L 294.382716 263.918504 
L 296.030708 264.189072 
L 297.678701 263.056473 
L 299.326694 263.646159 
L 300.974686 263.100581 
L 302.622679 263.899854 
L 305.918664 264.36284 
L 307.566657 264.149404 
L 309.214649 264.463193 
L 310.862642 264.519142 
L 312.510635 264.427966 
L 314.158627 264.526839 
L 315.80662 263.934489 
L 317.454612 264.501973 
L 319.102605 264.151181 
L 320.750598 264.002575 
L 322.39859 264.542232 
L 324.046583 263.50969 
L 325.694575 263.043448 
L 327.342568 263.488672 
L 328.990561 263.380623 
L 330.638553 264.289129 
L 332.286546 264.41346 
L 335.582531 263.846569 
L 337.230524 264.091975 
L 338.878516 263.601755 
L 340.526509 264.588412 
L 342.174502 263.085484 
L 343.822494 263.914951 
L 345.470487 264.020633 
L 347.118479 261.591436 
L 348.766472 264.450168 
L 350.414465 264.422045 
L 352.062457 264.531871 
L 353.71045 264.135195 
L 355.358443 263.887717 
L 357.006435 262.305453 
L 358.654428 264.260119 
L 360.30242 264.554961 
L 363.598406 264.036322 
L 365.246398 264.687285 
L 368.542383 263.800389 
L 370.190376 261.406123 
L 371.838369 264.506117 
L 373.486361 264.466449 
L 375.134354 260.640894 
L 376.782347 264.592853 
L 378.430339 264.50138 
L 380.078332 263.77345 
L 381.726324 264.288241 
L 381.726324 264.288241 
" style="fill:none;stroke:#bcbd22;stroke-linecap:square;stroke-width:0.5;"/>
   </g>
   <g id="line2d_28">
    <path clip-path="url(#pfc742e217a)" d="M 68.607727 263.624549 
L 70.25572 263.919096 
L 71.903713 264.639921 
L 73.551705 262.644108 
L 75.199698 263.084596 
L 76.84769 262.890698 
L 78.495683 262.45021 
L 80.143676 261.490491 
L 81.791668 262.637595 
L 83.439661 262.798338 
L 85.087653 262.607696 
L 86.735646 263.685826 
L 88.383639 264.260415 
L 90.031631 262.926517 
L 91.679624 264.399547 
L 93.327617 262.260161 
L 94.975609 261.659522 
L 96.623602 258.29636 
L 98.271594 263.950178 
L 99.919587 264.087831 
L 101.56758 263.681386 
L 103.215572 263.939817 
L 104.863565 263.606195 
L 106.511557 256.279825 
L 108.15955 262.834453 
L 109.807543 264.289129 
L 111.455535 262.195923 
L 113.103528 264.657387 
L 116.399513 263.335627 
L 118.047506 264.18404 
L 119.695498 247.063027 
L 121.343491 264.343598 
L 122.991484 264.141708 
L 124.639476 264.598181 
L 126.287469 263.978301 
L 127.935461 264.552297 
L 129.583454 264.167462 
L 131.231447 264.420861 
L 132.879439 264.481547 
L 134.527432 263.935673 
L 136.175425 264.56029 
L 137.823417 263.814302 
L 139.47141 264.004943 
L 141.119402 263.580737 
L 144.415388 263.758649 
L 146.06338 264.25479 
L 147.711373 264.515294 
L 149.359365 263.402233 
L 151.007358 264.471482 
L 152.655351 264.360176 
L 154.303343 263.765754 
L 155.951336 264.281432 
L 157.599329 263.522123 
L 159.247321 264.512037 
L 160.895314 264.610614 
L 162.543306 264.452832 
L 164.191299 263.928272 
L 165.839292 264.444247 
L 167.487284 264.083094 
L 169.135277 263.363157 
L 170.783269 263.251851 
L 172.431262 263.256587 
L 174.079255 262.932438 
L 175.727247 263.504954 
L 177.37524 262.734988 
L 179.023233 260.115446 
L 180.671225 264.258638 
L 182.319218 262.364658 
L 183.96721 259.939014 
L 185.615203 262.716042 
L 187.263196 264.431518 
L 188.911188 264.344782 
L 190.559181 264.132827 
L 192.207174 261.79007 
L 193.855166 264.037802 
L 195.503159 263.893341 
L 197.151151 264.181079 
L 198.799144 264.311035 
L 200.447137 262.713378 
L 202.095129 264.18848 
L 203.743122 264.549929 
L 205.391114 263.107094 
L 207.039107 264.494572 
L 208.6871 263.617148 
L 210.335092 264.670708 
L 211.983085 263.825551 
L 213.631078 263.936561 
L 215.27907 264.225779 
L 220.223048 263.908735 
L 221.871041 261.215482 
L 223.519033 263.106206 
L 225.167026 264.20713 
L 226.815018 261.740041 
L 228.463011 263.354276 
L 230.111004 253.883783 
L 231.758996 236.927954 
L 233.406989 259.464483 
L 235.054982 264.134011 
L 236.702974 263.983629 
L 238.350967 264.426782 
L 239.998959 264.147628 
L 243.294945 264.350703 
L 248.238922 264.604102 
L 249.886915 249.240601 
L 251.534908 261.953477 
L 253.1829 264.689358 
L 256.478886 264.437735 
L 258.126878 258.343133 
L 259.774871 263.702404 
L 261.422863 259.78804 
L 263.070856 255.028519 
L 264.718849 260.5808 
L 266.366841 263.996951 
L 268.014834 263.396016 
L 269.662826 264.07747 
L 271.310819 264.594629 
L 272.958812 264.511741 
L 274.606804 263.802165 
L 276.254797 248.692359 
L 277.90279 264.508781 
L 279.550782 178.001725 
L 281.198775 264.519734 
L 284.49476 264.60351 
L 286.142753 264.085463 
L 287.790745 264.05142 
L 289.438738 261.786814 
L 291.086731 263.268132 
L 292.734723 263.799797 
L 294.382716 264.467929 
L 296.030708 262.2051 
L 297.678701 264.313107 
L 299.326694 264.109145 
L 300.974686 264.179895 
L 302.622679 264.415237 
L 304.270671 263.002004 
L 305.918664 263.938337 
L 307.566657 264.267815 
L 309.214649 263.580737 
L 310.862642 264.282617 
L 312.510635 262.216645 
L 314.158627 264.464969 
L 315.80662 262.375019 
L 317.454612 263.540181 
L 319.102605 264.447208 
L 322.39859 262.909644 
L 324.046583 264.599069 
L 325.694575 264.116842 
L 327.342568 263.383583 
L 328.990561 264.524471 
L 330.638553 264.3211 
L 332.286546 261.966502 
L 333.934539 264.550521 
L 335.582531 262.567733 
L 337.230524 264.361064 
L 338.878516 264.020929 
L 340.526509 264.151773 
L 342.174502 262.981578 
L 343.822494 264.575091 
L 345.470487 263.689083 
L 347.118479 262.429488 
L 348.766472 264.303042 
L 350.414465 263.198862 
L 352.062457 264.497236 
L 353.71045 264.65413 
L 355.358443 264.263671 
L 357.006435 264.329389 
L 358.654428 263.111534 
L 360.30242 263.983925 
L 361.950413 264.252718 
L 363.598406 264.170126 
L 365.246398 262.828532 
L 366.894391 264.641697 
L 368.542383 264.325541 
L 370.190376 263.804533 
L 371.838369 264.419677 
L 373.486361 264.17131 
L 375.134354 264.043427 
L 376.782347 261.067172 
L 380.078332 264.67426 
L 381.726324 263.965276 
L 383.374317 262.644404 
L 385.02231 263.738519 
L 386.670302 263.014141 
L 388.318295 264.326133 
L 388.318295 264.326133 
" style="fill:none;stroke:#17becf;stroke-linecap:square;stroke-width:0.5;"/>
   </g>
   <g id="line2d_29">
    <path clip-path="url(#pfc742e217a)" d="M 68.607727 263.921464 
L 70.25572 263.88446 
L 71.903713 261.153612 
L 73.551705 263.950474 
L 75.199698 261.83773 
L 76.84769 264.610318 
L 78.495683 263.782331 
L 80.143676 263.647639 
L 81.791668 264.496052 
L 83.439661 264.56325 
L 85.087653 264.066517 
L 86.735646 262.307525 
L 88.383639 264.063261 
L 90.031631 264.438327 
L 91.679624 264.575387 
L 93.327617 264.133715 
L 94.975609 263.37707 
L 96.623602 262.762222 
L 99.919587 264.497532 
L 101.56758 264.610318 
L 103.215572 264.355143 
L 104.863565 261.946964 
L 106.511557 263.801573 
L 108.15955 262.98217 
L 109.807543 262.67519 
L 111.455535 264.164502 
L 113.103528 263.847753 
L 114.751521 264.58338 
L 116.399513 264.442471 
L 118.047506 262.657725 
L 119.695498 264.401915 
L 121.343491 264.462305 
L 122.991484 263.158602 
L 124.639476 264.263671 
L 126.287469 262.850438 
L 127.935461 263.229649 
L 129.583454 264.406948 
L 131.231447 263.962019 
L 132.879439 264.222523 
L 134.527432 263.670433 
L 136.175425 263.483344 
L 137.823417 264.099968 
L 139.47141 263.769602 
L 141.119402 263.286782 
L 144.415388 264.413757 
L 146.06338 262.866424 
L 149.359365 264.003759 
L 151.007358 262.56122 
L 152.655351 264.352479 
L 154.303343 264.597293 
L 155.951336 264.481843 
L 157.599329 263.581625 
L 159.247321 263.689971 
L 160.895314 264.34567 
L 162.543306 264.43063 
L 164.191299 264.326725 
L 165.839292 263.516499 
L 167.487284 264.20861 
L 169.135277 264.425894 
L 170.783269 263.951362 
L 172.431262 263.282046 
L 174.079255 264.480363 
L 175.727247 263.645271 
L 179.023233 264.348927 
L 180.671225 264.671596 
L 182.319218 264.5372 
L 183.96721 264.536904 
L 185.615203 264.40902 
L 187.263196 264.523879 
L 188.911188 264.483323 
L 190.559181 264.585748 
L 192.207174 264.47237 
L 193.855166 264.599069 
L 195.503159 264.505821 
L 198.799144 264.600253 
L 200.447137 263.811046 
L 202.095129 264.264559 
L 203.743122 264.337086 
L 205.391114 263.763977 
L 208.6871 264.547265 
L 210.335092 263.602939 
L 211.983085 263.824663 
L 213.631078 264.571539 
L 215.27907 264.032178 
L 216.927063 264.458161 
L 218.575055 264.33679 
L 220.223048 263.443972 
L 221.871041 264.511445 
L 225.167026 264.418197 
L 226.815018 264.160357 
L 228.463011 264.360768 
L 230.111004 263.693819 
L 231.758996 264.170718 
L 233.406989 263.527748 
L 235.054982 264.497828 
L 236.702974 263.465878 
L 238.350967 264.574795 
L 241.646952 264.104408 
L 243.294945 264.440695 
L 244.942937 264.35988 
L 246.59093 264.686693 
L 248.238922 264.534239 
L 253.1829 264.519142 
L 254.830893 264.169238 
L 256.478886 264.202985 
L 259.774871 264.071845 
L 261.422863 264.222819 
L 263.070856 264.507301 
L 264.718849 264.313107 
L 268.014834 264.608542 
L 269.662826 263.945442 
L 271.310819 264.32258 
L 272.958812 263.441604 
L 274.606804 264.628672 
L 276.254797 263.668657 
L 277.90279 263.242674 
L 279.550782 264.607358 
L 281.198775 264.297714 
L 282.846767 264.479178 
L 284.49476 264.028329 
L 286.142753 263.783811 
L 287.790745 264.550521 
L 289.438738 263.499921 
L 291.086731 264.358103 
L 292.734723 264.562362 
L 294.382716 264.152069 
L 296.030708 264.580716 
L 297.678701 263.652079 
L 299.326694 263.710397 
L 300.974686 264.408428 
L 302.622679 264.134603 
L 304.270671 264.430334 
L 307.566657 264.213346 
L 309.214649 264.486875 
L 310.862642 264.571243 
L 312.510635 264.150293 
L 314.158627 264.5893 
L 315.80662 264.570947 
L 319.102605 264.042539 
L 320.750598 264.190848 
L 322.39859 264.599661 
L 324.046583 263.890085 
L 325.694575 264.587524 
L 327.342568 264.014416 
L 330.638553 264.636369 
L 332.286546 263.83532 
L 333.934539 264.561178 
L 335.582531 264.60203 
L 337.230524 264.026257 
L 338.878516 264.350111 
L 340.526509 264.34271 
L 342.174502 264.594333 
L 343.822494 263.973861 
L 345.470487 264.32258 
L 347.118479 263.67813 
L 350.414465 264.523879 
L 352.062457 264.63104 
L 353.71045 264.371721 
L 355.358443 264.41346 
L 357.006435 263.960835 
L 358.654428 264.408428 
L 360.30242 264.321692 
L 361.950413 264.09908 
L 363.598406 264.598773 
L 365.246398 264.601142 
L 366.894391 263.723422 
L 368.542383 264.154437 
L 370.190376 263.582809 
L 371.838369 264.602918 
L 375.134354 264.14674 
L 376.782347 264.47681 
L 378.430339 264.491908 
L 380.078332 264.663011 
L 381.726324 263.963204 
L 383.374317 264.184336 
L 385.02231 264.639921 
L 386.670302 264.209202 
L 389.966287 264.221635 
L 391.61428 264.673076 
L 391.61428 264.673076 
" style="fill:none;stroke:#1f77b4;stroke-linecap:square;stroke-width:0.5;"/>
   </g>
   <g id="line2d_30">
    <path clip-path="url(#pfc742e217a)" d="M 68.607727 264.190256 
L 70.25572 263.479792 
L 73.551705 263.789436 
L 75.199698 262.315518 
L 76.84769 263.894525 
L 78.495683 263.066538 
L 80.143676 263.172812 
L 81.791668 263.746216 
L 83.439661 263.660664 
L 85.087653 264.114177 
L 86.735646 264.295346 
L 88.383639 260.200998 
L 90.031631 263.340363 
L 91.679624 264.535128 
L 93.327617 263.539885 
L 94.975609 263.113606 
L 96.623602 263.777891 
L 98.271594 264.065629 
L 99.919587 263.542549 
L 101.56758 264.552001 
L 103.215572 264.61091 
L 104.863565 264.200617 
L 106.511557 262.108891 
L 108.15955 264.343598 
L 109.807543 263.866107 
L 111.455535 261.733233 
L 113.103528 264.209202 
L 114.751521 263.997839 
L 116.399513 264.213346 
L 118.047506 263.183469 
L 119.695498 264.551409 
L 121.343491 262.720779 
L 122.991484 263.674873 
L 124.639476 264.337678 
L 126.287469 262.685255 
L 127.935461 264.249462 
L 129.583454 264.507301 
L 131.231447 264.625416 
L 132.879439 263.626325 
L 134.527432 263.540477 
L 136.175425 263.137881 
L 137.823417 262.595263 
L 139.47141 263.812526 
L 141.119402 263.816966 
L 142.767395 264.22874 
L 144.415388 263.811046 
L 146.06338 264.046979 
L 147.711373 264.582492 
L 149.359365 263.598202 
L 151.007358 264.389482 
L 152.655351 264.130755 
L 154.303343 264.007608 
L 155.951336 263.547286 
L 157.599329 264.019745 
L 159.247321 264.219267 
L 160.895314 263.459958 
L 162.543306 264.143188 
L 164.191299 264.291201 
L 165.839292 263.789436 
L 167.487284 264.376753 
L 169.135277 263.04108 
L 170.783269 262.666902 
L 172.431262 263.660368 
L 174.079255 263.87706 
L 175.727247 264.557034 
L 179.023233 263.651191 
L 180.671225 264.369945 
L 182.319218 262.686143 
L 183.96721 263.948994 
L 185.615203 263.616556 
L 187.263196 263.535149 
L 188.911188 264.375273 
L 190.559181 263.731118 
L 192.207174 262.545827 
L 193.855166 263.466174 
L 195.503159 264.63104 
L 197.151151 263.572152 
L 198.799144 263.820519 
L 200.447137 263.583697 
L 202.095129 264.179303 
L 203.743122 263.501994 
L 205.391114 263.917911 
L 207.039107 263.908735 
L 208.6871 264.16095 
L 210.335092 263.478015 
L 211.983085 264.283505 
L 213.631078 263.925016 
L 215.27907 264.573611 
L 218.575055 263.872619 
L 220.223048 262.883593 
L 221.871041 263.713653 
L 223.519033 264.308371 
L 225.167026 263.713357 
L 226.815018 264.5372 
L 228.463011 263.275533 
L 230.111004 263.765162 
L 231.758996 261.66189 
L 233.406989 263.527748 
L 235.054982 263.739999 
L 236.702974 263.715725 
L 238.350967 263.810454 
L 239.998959 263.017398 
L 241.646952 264.320804 
L 243.294945 264.217787 
L 244.942937 263.80927 
L 246.59093 264.441583 
L 248.238922 263.716021 
L 249.886915 264.447504 
L 251.534908 264.630152 
L 253.1829 262.984835 
L 254.830893 264.555849 
L 256.478886 264.524767 
L 258.126878 263.898078 
L 259.774871 264.47237 
L 261.422863 264.014416 
L 263.070856 263.948698 
L 264.718849 264.636369 
L 266.366841 264.145556 
L 268.014834 262.372059 
L 269.662826 262.946943 
L 271.310819 264.438327 
L 272.958812 262.812843 
L 274.606804 264.486579 
L 277.90279 263.118935 
L 279.550782 263.363749 
L 282.846767 264.23614 
L 284.49476 263.604123 
L 286.142753 257.311183 
L 287.790745 262.856359 
L 289.438738 262.75275 
L 291.086731 263.971196 
L 294.382716 264.435366 
L 296.030708 263.746216 
L 297.678701 262.064783 
L 299.326694 264.347446 
L 300.974686 263.857818 
L 302.622679 262.273482 
L 304.270671 264.284689 
L 305.918664 264.329685 
L 307.566657 263.605011 
L 309.214649 264.134011 
L 310.862642 264.024777 
L 312.510635 264.238509 
L 314.158627 263.469431 
L 315.80662 264.478882 
L 319.102605 264.326429 
L 322.39859 264.374977 
L 324.046583 264.592853 
L 327.342568 264.163318 
L 328.990561 263.610636 
L 330.638553 264.431814 
L 332.286546 264.41198 
L 333.934539 263.370262 
L 335.582531 264.487763 
L 337.230524 263.938041 
L 338.878516 264.569171 
L 340.526509 264.009384 
L 342.174502 264.607062 
L 343.822494 264.435663 
L 345.470487 261.053259 
L 347.118479 264.043723 
L 348.766472 263.803645 
L 350.414465 264.533055 
L 352.062457 264.528911 
L 353.71045 264.111217 
L 355.358443 263.187613 
L 357.006435 263.425915 
L 357.006435 263.425915 
" style="fill:none;stroke:#ff7f0e;stroke-linecap:square;stroke-width:0.5;"/>
   </g>
   <g id="line2d_31">
    <path clip-path="url(#pfc742e217a)" d="M 68.607727 261.54348 
L 70.25572 261.029873 
L 71.903713 264.601142 
L 73.551705 262.588159 
L 75.199698 263.297143 
L 76.84769 263.576888 
L 78.495683 263.231425 
L 80.143676 264.03277 
L 81.791668 264.019449 
L 83.439661 262.211908 
L 85.087653 263.972084 
L 86.735646 263.406673 
L 88.383639 263.942778 
L 90.031631 263.732599 
L 93.327617 264.582196 
L 94.975609 263.788548 
L 96.623602 263.932713 
L 98.271594 263.123967 
L 99.919587 263.774042 
L 101.56758 264.213938 
L 103.215572 263.94189 
L 104.863565 264.369056 
L 106.511557 263.834136 
L 109.807543 264.464081 
L 113.103528 263.512355 
L 114.751521 264.016192 
L 116.399513 263.849233 
L 118.047506 264.246205 
L 119.695498 263.215736 
L 121.343491 263.923832 
L 122.991484 264.36728 
L 124.639476 264.351591 
L 126.287469 264.028033 
L 127.935461 263.946034 
L 129.583454 264.088719 
L 131.231447 263.767826 
L 132.879439 262.824388 
L 134.527432 264.582492 
L 136.175425 262.871752 
L 137.823417 264.084279 
L 139.47141 263.824959 
L 141.119402 264.136971 
L 142.767395 264.028626 
L 144.415388 263.550542 
L 146.06338 263.467655 
L 147.711373 263.258956 
L 149.359365 263.602051 
L 151.007358 263.781739 
L 152.655351 263.158602 
L 154.303343 264.160061 
L 155.951336 263.854266 
L 157.599329 263.70714 
L 159.247321 264.554961 
L 160.895314 264.113585 
L 162.543306 263.43746 
L 164.191299 264.109441 
L 165.839292 264.238509 
L 167.487284 264.12365 
L 169.135277 263.879132 
L 170.783269 264.156805 
L 172.431262 264.303635 
L 174.079255 263.494889 
L 175.727247 264.33679 
L 177.37524 264.279064 
L 179.023233 263.181396 
L 180.671225 264.256862 
L 182.319218 264.310739 
L 183.96721 264.612391 
L 185.615203 263.013549 
L 187.263196 264.307483 
L 188.911188 264.336197 
L 190.559181 264.09464 
L 192.207174 261.334781 
L 193.855166 264.065925 
L 195.503159 263.326746 
L 197.151151 263.603531 
L 198.799144 264.542232 
L 200.447137 262.930662 
L 202.095129 263.657408 
L 203.743122 264.005831 
L 205.391114 264.549633 
L 207.039107 264.251238 
L 208.6871 263.791212 
L 211.983085 264.245613 
L 213.631078 264.484211 
L 215.27907 264.006423 
L 216.927063 263.762793 
L 218.575055 264.468818 
L 220.223048 263.597906 
L 225.167026 264.382674 
L 226.815018 264.640217 
L 228.463011 263.433611 
L 230.111004 263.441308 
L 231.758996 263.982741 
L 233.406989 263.846569 
L 236.702974 264.330869 
L 238.350967 263.249187 
L 239.998959 264.54312 
L 241.646952 264.119802 
L 243.294945 264.052604 
L 244.942937 264.591965 
L 246.59093 264.419085 
L 248.238922 263.936561 
L 249.886915 264.108257 
L 251.534908 263.507322 
L 253.1829 262.71841 
L 254.830893 264.082206 
L 256.478886 264.132531 
L 258.126878 264.432406 
L 259.774871 264.369649 
L 261.422863 264.019153 
L 263.070856 263.135512 
L 264.718849 263.800685 
L 268.014834 264.379713 
L 271.310819 264.459049 
L 272.958812 263.858706 
L 274.606804 263.414666 
L 276.254797 264.069181 
L 277.90279 264.27196 
L 281.198775 263.917911 
L 282.846767 264.312811 
L 284.49476 264.34715 
L 286.142753 264.493092 
L 287.790745 263.395128 
L 289.438738 263.823775 
L 291.086731 263.160971 
L 292.734723 263.752136 
L 294.382716 263.611228 
L 296.030708 264.362544 
L 297.678701 263.509986 
L 299.326694 263.63491 
L 300.974686 263.494001 
L 304.270671 264.303635 
L 307.566657 264.180191 
L 309.214649 263.479792 
L 310.862642 263.55143 
L 312.510635 264.21305 
L 314.158627 264.320212 
L 315.80662 261.374152 
L 317.454612 263.803941 
L 319.102605 264.302154 
L 320.750598 264.237917 
L 322.39859 264.549337 
L 324.046583 264.08043 
L 325.694575 264.591669 
L 327.342568 264.220451 
L 328.990561 264.520918 
L 330.638553 264.094343 
L 332.286546 264.63252 
L 333.934539 264.565322 
L 335.582531 263.17518 
L 337.230524 264.107073 
L 338.878516 264.494572 
L 340.526509 264.28084 
L 342.174502 264.343006 
L 345.470487 263.985702 
L 348.766472 264.405764 
L 350.414465 263.634318 
L 352.062457 264.131939 
L 353.71045 264.131939 
L 355.358443 264.634297 
L 358.654428 264.224299 
L 360.30242 263.518867 
L 361.950413 264.139044 
L 363.598406 263.566824 
L 365.246398 264.51263 
L 366.894391 263.41585 
L 368.542383 262.578686 
L 370.190376 263.692931 
L 371.838369 263.568304 
L 373.486361 264.339158 
L 375.134354 262.348673 
L 376.782347 263.911991 
L 378.430339 263.362861 
L 380.078332 263.773154 
L 383.374317 263.853082 
L 385.02231 264.106777 
L 386.670302 262.362882 
L 388.318295 263.606787 
L 389.966287 263.777891 
L 389.966287 263.777891 
" style="fill:none;stroke:#2ca02c;stroke-linecap:square;stroke-width:0.5;"/>
   </g>
   <g id="patch_3">
    <path d="M 52.375 276.812 
L 52.375 10.7 
" style="fill:none;stroke:#000000;stroke-linecap:square;stroke-linejoin:miter;stroke-width:0.8;"/>
   </g>
   <g id="patch_4">
    <path d="M 409.495 276.812 
L 409.495 10.7 
" style="fill:none;stroke:#000000;stroke-linecap:square;stroke-linejoin:miter;stroke-width:0.8;"/>
   </g>
   <g id="patch_5">
    <path d="M 52.375 276.812 
L 409.495 276.812 
" style="fill:none;stroke:#000000;stroke-linecap:square;stroke-linejoin:miter;stroke-width:0.8;"/>
   </g>
   <g id="patch_6">
    <path d="M 52.375 10.7 
L 409.495 10.7 
" style="fill:none;stroke:#000000;stroke-linecap:square;stroke-linejoin:miter;stroke-width:0.8;"/>
   </g>
  </g>
 </g>
 <defs>
  <clipPath id="pfc742e217a">
   <rect height="266.112" width="357.12" x="52.375" y="10.7"/>
  </clipPath>
 </defs>
</svg>
