<?xml version="1.0" encoding="utf-8" standalone="no"?>
<!DOCTYPE svg PUBLIC "-//W3C//DTD SVG 1.1//EN"
  "http://www.w3.org/Graphics/SVG/1.1/DTD/svg11.dtd">
<!-- Created with matplotlib (http://matplotlib.org/) -->
<svg height="300pt" version="1.1" viewBox="0 0 415 300" width="415pt" xmlns="http://www.w3.org/2000/svg" xmlns:xlink="http://www.w3.org/1999/xlink">
 <defs>
  <style type="text/css">
*{stroke-linecap:butt;stroke-linejoin:round;}
  </style>
 </defs>
 <g id="figure_1">
  <g id="patch_1">
   <path d="M 0 300.690125 
L 415.849687 300.690125 
L 415.849687 0 
L 0 0 
z
" style="fill:#ffffff;"/>
  </g>
  <g id="axes_1">
   <g id="patch_2">
    <path d="M 48.029688 276.812 
L 405.149688 276.812 
L 405.149688 10.7 
L 48.029688 10.7 
z
" style="fill:#ffffff;"/>
   </g>
   <g id="matplotlib.axis_1">
    <g id="xtick_1">
     <g id="line2d_1">
      <defs>
       <path d="M 0 0 
L 0 3.5 
" id="md8e9f186c5" style="stroke:#000000;stroke-width:0.8;"/>
      </defs>
      <g>
       <use style="stroke:#000000;stroke-width:0.8;" x="64.262415" xlink:href="#md8e9f186c5" y="276.812"/>
      </g>
     </g>
     <g id="text_1">
      <!-- 0 -->
      <defs>
       <path d="M 31.78125 66.40625 
Q 24.171875 66.40625 20.328125 58.90625 
Q 16.5 51.421875 16.5 36.375 
Q 16.5 21.390625 20.328125 13.890625 
Q 24.171875 6.390625 31.78125 6.390625 
Q 39.453125 6.390625 43.28125 13.890625 
Q 47.125 21.390625 47.125 36.375 
Q 47.125 51.421875 43.28125 58.90625 
Q 39.453125 66.40625 31.78125 66.40625 
M 31.78125 74.21875 
Q 44.046875 74.21875 50.515625 64.515625 
Q 56.984375 54.828125 56.984375 36.375 
Q 56.984375 17.96875 50.515625 8.265625 
Q 44.046875 -1.421875 31.78125 -1.421875 
Q 19.53125 -1.421875 13.0625 8.265625 
Q 6.59375 17.96875 6.59375 36.375 
Q 6.59375 54.828125 13.0625 64.515625 
Q 19.53125 74.21875 31.78125 74.21875 
" id="DejaVuSans-30"/>
      </defs>
      <g transform="translate(61.081165 291.410437)scale(0.1 -0.1)">
       <use xlink:href="#DejaVuSans-30"/>
      </g>
     </g>
    </g>
    <g id="xtick_2">
     <g id="line2d_2">
      <g>
       <use style="stroke:#000000;stroke-width:0.8;" x="105.46223" xlink:href="#md8e9f186c5" y="276.812"/>
      </g>
     </g>
     <g id="text_2">
      <!-- 25 -->
      <defs>
       <path d="M 19.1875 8.296875 
L 53.609375 8.296875 
L 53.609375 0 
L 7.328125 0 
L 7.328125 8.296875 
Q 12.9375 14.109375 22.625 23.890625 
Q 32.328125 33.6875 34.8125 36.53125 
Q 39.546875 41.84375 41.421875 45.53125 
Q 43.3125 49.21875 43.3125 52.78125 
Q 43.3125 58.59375 39.234375 62.25 
Q 35.15625 65.921875 28.609375 65.921875 
Q 23.96875 65.921875 18.8125 64.3125 
Q 13.671875 62.703125 7.8125 59.421875 
L 7.8125 69.390625 
Q 13.765625 71.78125 18.9375 73 
Q 24.125 74.21875 28.421875 74.21875 
Q 39.75 74.21875 46.484375 68.546875 
Q 53.21875 62.890625 53.21875 53.421875 
Q 53.21875 48.921875 51.53125 44.890625 
Q 49.859375 40.875 45.40625 35.40625 
Q 44.1875 33.984375 37.640625 27.21875 
Q 31.109375 20.453125 19.1875 8.296875 
" id="DejaVuSans-32"/>
       <path d="M 10.796875 72.90625 
L 49.515625 72.90625 
L 49.515625 64.59375 
L 19.828125 64.59375 
L 19.828125 46.734375 
Q 21.96875 47.46875 24.109375 47.828125 
Q 26.265625 48.1875 28.421875 48.1875 
Q 40.625 48.1875 47.75 41.5 
Q 54.890625 34.8125 54.890625 23.390625 
Q 54.890625 11.625 47.5625 5.09375 
Q 40.234375 -1.421875 26.90625 -1.421875 
Q 22.3125 -1.421875 17.546875 -0.640625 
Q 12.796875 0.140625 7.71875 1.703125 
L 7.71875 11.625 
Q 12.109375 9.234375 16.796875 8.0625 
Q 21.484375 6.890625 26.703125 6.890625 
Q 35.15625 6.890625 40.078125 11.328125 
Q 45.015625 15.765625 45.015625 23.390625 
Q 45.015625 31 40.078125 35.4375 
Q 35.15625 39.890625 26.703125 39.890625 
Q 22.75 39.890625 18.8125 39.015625 
Q 14.890625 38.140625 10.796875 36.28125 
z
" id="DejaVuSans-35"/>
      </defs>
      <g transform="translate(99.09973 291.410437)scale(0.1 -0.1)">
       <use xlink:href="#DejaVuSans-32"/>
       <use x="63.623047" xlink:href="#DejaVuSans-35"/>
      </g>
     </g>
    </g>
    <g id="xtick_3">
     <g id="line2d_3">
      <g>
       <use style="stroke:#000000;stroke-width:0.8;" x="146.662046" xlink:href="#md8e9f186c5" y="276.812"/>
      </g>
     </g>
     <g id="text_3">
      <!-- 50 -->
      <g transform="translate(140.299546 291.410437)scale(0.1 -0.1)">
       <use xlink:href="#DejaVuSans-35"/>
       <use x="63.623047" xlink:href="#DejaVuSans-30"/>
      </g>
     </g>
    </g>
    <g id="xtick_4">
     <g id="line2d_4">
      <g>
       <use style="stroke:#000000;stroke-width:0.8;" x="187.861861" xlink:href="#md8e9f186c5" y="276.812"/>
      </g>
     </g>
     <g id="text_4">
      <!-- 75 -->
      <defs>
       <path d="M 8.203125 72.90625 
L 55.078125 72.90625 
L 55.078125 68.703125 
L 28.609375 0 
L 18.3125 0 
L 43.21875 64.59375 
L 8.203125 64.59375 
z
" id="DejaVuSans-37"/>
      </defs>
      <g transform="translate(181.499361 291.410437)scale(0.1 -0.1)">
       <use xlink:href="#DejaVuSans-37"/>
       <use x="63.623047" xlink:href="#DejaVuSans-35"/>
      </g>
     </g>
    </g>
    <g id="xtick_5">
     <g id="line2d_5">
      <g>
       <use style="stroke:#000000;stroke-width:0.8;" x="229.061676" xlink:href="#md8e9f186c5" y="276.812"/>
      </g>
     </g>
     <g id="text_5">
      <!-- 100 -->
      <defs>
       <path d="M 12.40625 8.296875 
L 28.515625 8.296875 
L 28.515625 63.921875 
L 10.984375 60.40625 
L 10.984375 69.390625 
L 28.421875 72.90625 
L 38.28125 72.90625 
L 38.28125 8.296875 
L 54.390625 8.296875 
L 54.390625 0 
L 12.40625 0 
z
" id="DejaVuSans-31"/>
      </defs>
      <g transform="translate(219.517926 291.410437)scale(0.1 -0.1)">
       <use xlink:href="#DejaVuSans-31"/>
       <use x="63.623047" xlink:href="#DejaVuSans-30"/>
       <use x="127.246094" xlink:href="#DejaVuSans-30"/>
      </g>
     </g>
    </g>
    <g id="xtick_6">
     <g id="line2d_6">
      <g>
       <use style="stroke:#000000;stroke-width:0.8;" x="270.261492" xlink:href="#md8e9f186c5" y="276.812"/>
      </g>
     </g>
     <g id="text_6">
      <!-- 125 -->
      <g transform="translate(260.717742 291.410437)scale(0.1 -0.1)">
       <use xlink:href="#DejaVuSans-31"/>
       <use x="63.623047" xlink:href="#DejaVuSans-32"/>
       <use x="127.246094" xlink:href="#DejaVuSans-35"/>
      </g>
     </g>
    </g>
    <g id="xtick_7">
     <g id="line2d_7">
      <g>
       <use style="stroke:#000000;stroke-width:0.8;" x="311.461307" xlink:href="#md8e9f186c5" y="276.812"/>
      </g>
     </g>
     <g id="text_7">
      <!-- 150 -->
      <g transform="translate(301.917557 291.410437)scale(0.1 -0.1)">
       <use xlink:href="#DejaVuSans-31"/>
       <use x="63.623047" xlink:href="#DejaVuSans-35"/>
       <use x="127.246094" xlink:href="#DejaVuSans-30"/>
      </g>
     </g>
    </g>
    <g id="xtick_8">
     <g id="line2d_8">
      <g>
       <use style="stroke:#000000;stroke-width:0.8;" x="352.661123" xlink:href="#md8e9f186c5" y="276.812"/>
      </g>
     </g>
     <g id="text_8">
      <!-- 175 -->
      <g transform="translate(343.117373 291.410437)scale(0.1 -0.1)">
       <use xlink:href="#DejaVuSans-31"/>
       <use x="63.623047" xlink:href="#DejaVuSans-37"/>
       <use x="127.246094" xlink:href="#DejaVuSans-35"/>
      </g>
     </g>
    </g>
    <g id="xtick_9">
     <g id="line2d_9">
      <g>
       <use style="stroke:#000000;stroke-width:0.8;" x="393.860938" xlink:href="#md8e9f186c5" y="276.812"/>
      </g>
     </g>
     <g id="text_9">
      <!-- 200 -->
      <g transform="translate(384.317188 291.410437)scale(0.1 -0.1)">
       <use xlink:href="#DejaVuSans-32"/>
       <use x="63.623047" xlink:href="#DejaVuSans-30"/>
       <use x="127.246094" xlink:href="#DejaVuSans-30"/>
      </g>
     </g>
    </g>
   </g>
   <g id="matplotlib.axis_2">
    <g id="ytick_1">
     <g id="line2d_10">
      <defs>
       <path d="M 0 0 
L -3.5 0 
" id="md5f36055fb" style="stroke:#000000;stroke-width:0.8;"/>
      </defs>
      <g>
       <use style="stroke:#000000;stroke-width:0.8;" x="48.029688" xlink:href="#md5f36055fb" y="261.880308"/>
      </g>
     </g>
     <g id="text_10">
      <!-- −2000 -->
      <defs>
       <path d="M 10.59375 35.5 
L 73.1875 35.5 
L 73.1875 27.203125 
L 10.59375 27.203125 
z
" id="DejaVuSans-2212"/>
      </defs>
      <g transform="translate(7.2 265.679526)scale(0.1 -0.1)">
       <use xlink:href="#DejaVuSans-2212"/>
       <use x="83.789062" xlink:href="#DejaVuSans-32"/>
       <use x="147.412109" xlink:href="#DejaVuSans-30"/>
       <use x="211.035156" xlink:href="#DejaVuSans-30"/>
       <use x="274.658203" xlink:href="#DejaVuSans-30"/>
      </g>
     </g>
    </g>
    <g id="ytick_2">
     <g id="line2d_11">
      <g>
       <use style="stroke:#000000;stroke-width:0.8;" x="48.029688" xlink:href="#md5f36055fb" y="202.803385"/>
      </g>
     </g>
     <g id="text_11">
      <!-- −1000 -->
      <g transform="translate(7.2 206.602603)scale(0.1 -0.1)">
       <use xlink:href="#DejaVuSans-2212"/>
       <use x="83.789062" xlink:href="#DejaVuSans-31"/>
       <use x="147.412109" xlink:href="#DejaVuSans-30"/>
       <use x="211.035156" xlink:href="#DejaVuSans-30"/>
       <use x="274.658203" xlink:href="#DejaVuSans-30"/>
      </g>
     </g>
    </g>
    <g id="ytick_3">
     <g id="line2d_12">
      <g>
       <use style="stroke:#000000;stroke-width:0.8;" x="48.029688" xlink:href="#md5f36055fb" y="143.726462"/>
      </g>
     </g>
     <g id="text_12">
      <!-- 0 -->
      <g transform="translate(34.667187 147.52568)scale(0.1 -0.1)">
       <use xlink:href="#DejaVuSans-30"/>
      </g>
     </g>
    </g>
    <g id="ytick_4">
     <g id="line2d_13">
      <g>
       <use style="stroke:#000000;stroke-width:0.8;" x="48.029688" xlink:href="#md5f36055fb" y="84.649538"/>
      </g>
     </g>
     <g id="text_13">
      <!-- 1000 -->
      <g transform="translate(15.579687 88.448757)scale(0.1 -0.1)">
       <use xlink:href="#DejaVuSans-31"/>
       <use x="63.623047" xlink:href="#DejaVuSans-30"/>
       <use x="127.246094" xlink:href="#DejaVuSans-30"/>
       <use x="190.869141" xlink:href="#DejaVuSans-30"/>
      </g>
     </g>
    </g>
    <g id="ytick_5">
     <g id="line2d_14">
      <g>
       <use style="stroke:#000000;stroke-width:0.8;" x="48.029688" xlink:href="#md5f36055fb" y="25.572615"/>
      </g>
     </g>
     <g id="text_14">
      <!-- 2000 -->
      <g transform="translate(15.579687 29.371834)scale(0.1 -0.1)">
       <use xlink:href="#DejaVuSans-32"/>
       <use x="63.623047" xlink:href="#DejaVuSans-30"/>
       <use x="127.246094" xlink:href="#DejaVuSans-30"/>
       <use x="190.869141" xlink:href="#DejaVuSans-30"/>
      </g>
     </g>
    </g>
   </g>
   <g id="line2d_15">
    <path clip-path="url(#p22e62f5e97)" d="M 64.262415 141.836 
L 65.910407 130.256923 
L 67.5584 164.757846 
L 69.206393 140.359077 
L 70.854385 133.033538 
L 72.502378 131.261231 
L 74.15037 127.598462 
L 75.798363 127.657538 
L 77.446356 135.160308 
L 79.094348 140.181846 
L 80.742341 172.556 
L 82.390334 139.295692 
L 84.038326 140.359077 
L 85.686319 187.620615 
L 87.334311 125.176308 
L 88.982304 155.305538 
L 90.630297 167.770769 
L 92.278289 147.98 
L 93.926282 137.641538 
L 95.574274 148.629846 
L 97.222267 163.34 
L 98.87026 134.569538 
L 100.518252 134.864923 
L 102.166245 163.221846 
L 103.814238 150.815692 
L 105.46223 156.368923 
L 107.110223 149.634154 
L 108.758215 176.336923 
L 110.406208 141.245231 
L 112.054201 110.466154 
L 113.702193 122.517846 
L 115.350186 124.762769 
L 116.998179 128.602769 
L 120.294164 150.697538 
L 121.942156 148.748 
L 123.590149 133.210769 
L 125.238142 130.729538 
L 126.886134 129.075385 
L 128.534127 162.512923 
L 130.182119 145.912308 
L 131.830112 126.121538 
L 133.478105 162.158462 
L 135.126097 166.648308 
L 136.77409 127.421231 
L 138.422083 168.775077 
L 140.070075 114.837846 
L 141.718068 123.285846 
L 143.36606 143.726462 
L 145.014053 157.255077 
L 146.662046 135.987385 
L 148.310038 142.544923 
L 149.958031 127.125846 
L 153.254016 144.553538 
L 154.902009 137.936923 
L 156.550001 135.042154 
L 158.197994 157.018769 
L 159.845987 157.018769 
L 161.493979 121.218154 
L 163.141972 135.455692 
L 164.789964 127.539385 
L 166.437957 125.176308 
L 168.08595 140.772615 
L 169.733942 138.232308 
L 171.381935 124.821846 
L 173.029927 127.244 
L 174.67792 137.759692 
L 176.325913 137.050769 
L 177.973905 129.193538 
L 179.621898 131.024923 
L 181.269891 139.827385 
L 182.917883 137.641538 
L 184.565876 131.852 
L 186.213868 148.098154 
L 187.861861 138.527692 
L 189.509854 140.890769 
L 191.157846 101.132 
L 192.805839 147.684615 
L 194.453831 117.141846 
L 196.101824 143.490154 
L 197.749817 156.841538 
L 199.397809 139.827385 
L 201.045802 137.996 
L 202.693795 136.696308 
L 204.341787 138.645846 
L 205.98978 129.429846 
L 207.637772 140.890769 
L 209.285765 131.852 
L 210.933758 129.429846 
L 212.58175 136.400923 
L 214.229743 147.920923 
L 215.877735 146.089538 
L 217.525728 132.679077 
L 219.173721 144.021846 
L 220.821713 145.498769 
L 222.469706 132.738154 
L 224.117699 148.570769 
L 225.765691 154.183077 
L 227.413684 145.321538 
L 229.061676 144.199077 
L 230.709669 145.498769 
L 232.357662 137.936923 
L 234.005654 142.072308 
L 235.653647 123.463077 
L 237.30164 140.772615 
L 238.949632 134.628615 
L 240.597625 141.245231 
L 242.245617 170.665538 
L 243.89361 140.595385 
L 245.541603 100.423077 
L 247.189595 135.928308 
L 248.837588 163.694462 
L 250.48558 140.3 
L 252.133573 147.034769 
L 253.781566 133.210769 
L 255.429558 89.080308 
L 257.077551 142.722154 
L 258.725544 125.412615 
L 260.373536 134.510462 
L 262.021529 132.088308 
L 263.669521 114.247077 
L 265.317514 141.245231 
L 266.965507 130.256923 
L 268.613499 81.932 
L 270.261492 159.559077 
L 271.909484 148.511692 
L 273.557477 142.544923 
L 275.20547 147.566462 
L 276.853462 137.877846 
L 278.501455 141.127077 
L 280.149448 132.265538 
L 281.79744 177.164 
L 283.445433 136.932615 
L 285.093425 104.204 
L 286.741418 155.246462 
L 288.389411 140.418154 
L 290.037403 140.359077 
L 291.685396 121.395385 
L 293.333388 135.751077 
L 294.981381 122.399692 
L 296.629374 171.788 
L 298.277366 140.240923 
L 299.925359 127.834769 
L 303.221344 143.135692 
L 304.869337 26.281538 
L 306.517329 132.206462 
L 308.165322 137.405231 
L 309.813315 149.279692 
L 311.461307 144.494462 
L 313.1093 142.190462 
L 314.757292 152.351692 
L 316.405285 101.663692 
L 318.053278 142.190462 
L 319.70127 122.281538 
L 321.349263 100.245846 
L 322.997256 151.052 
L 324.645248 142.367692 
L 326.293241 137.641538 
L 327.941233 120.627385 
L 329.589226 137.582462 
L 331.237219 134.983077 
L 332.885211 108.752923 
L 334.533204 147.212 
L 336.181196 158.141231 
L 337.829189 141.540615 
L 339.477182 139.177538 
L 339.477182 139.177538 
" style="fill:none;stroke:#1f77b4;stroke-linecap:square;stroke-width:0.5;"/>
   </g>
   <g id="line2d_16">
    <path clip-path="url(#p22e62f5e97)" d="M 64.262415 94.751692 
L 65.910407 157.668615 
L 67.5584 162.867385 
L 69.206393 112.829231 
L 70.854385 136.755385 
L 72.502378 158.023077 
L 74.15037 185.021231 
L 75.798363 137.759692 
L 77.446356 142.781231 
L 79.094348 145.321538 
L 80.742341 137.877846 
L 82.390334 147.98 
L 84.038326 137.464308 
L 85.686319 135.101231 
L 87.334311 146.975692 
L 88.982304 133.742462 
L 90.630297 123.699385 
L 92.278289 231.160308 
L 93.926282 136.105538 
L 95.574274 151.879077 
L 97.222267 136.578154 
L 98.87026 143.135692 
L 100.518252 145.912308 
L 102.166245 134.274154 
L 103.814238 143.431077 
L 105.46223 145.026154 
L 107.110223 136.873538 
L 108.758215 146.444 
L 110.406208 135.869231 
L 112.054201 140.359077 
L 113.702193 149.693231 
L 115.350186 131.852 
L 116.998179 146.148615 
L 118.646171 142.249538 
L 120.294164 131.202154 
L 121.942156 148.275385 
L 123.590149 135.928308 
L 125.238142 133.801538 
L 126.886134 144.435385 
L 128.534127 130.670462 
L 130.182119 142.722154 
L 131.830112 137.464308 
L 133.478105 136.755385 
L 135.126097 151.465538 
L 136.77409 133.683385 
L 138.422083 135.632923 
L 140.070075 143.017538 
L 141.718068 133.210769 
L 143.36606 151.170154 
L 145.014053 135.219385 
L 146.662046 137.759692 
L 148.310038 146.030462 
L 149.958031 138.409538 
L 151.606023 140.831692 
L 153.254016 139.709231 
L 154.902009 132.974462 
L 156.550001 147.802769 
L 158.197994 139.827385 
L 159.845987 137.050769 
L 161.493979 148.098154 
L 163.141972 135.810154 
L 164.789964 140.831692 
L 166.437957 140.240923 
L 168.08595 136.46 
L 169.733942 142.663077 
L 171.381935 144.258154 
L 173.029927 137.582462 
L 174.67792 146.621231 
L 176.325913 133.860615 
L 177.973905 138.882154 
L 179.621898 145.380615 
L 181.269891 134.805846 
L 182.917883 144.789846 
L 184.565876 140.831692 
L 186.213868 135.455692 
L 187.861861 145.735077 
L 189.509854 135.573846 
L 191.157846 139.709231 
L 192.805839 142.072308 
L 194.453831 133.919692 
L 196.101824 142.781231 
L 197.749817 137.700615 
L 199.397809 135.101231 
L 201.045802 144.258154 
L 202.693795 136.341846 
L 204.341787 135.810154 
L 205.98978 140.654462 
L 207.637772 136.696308 
L 209.285765 149.870462 
L 210.933758 140.477231 
L 212.58175 136.046462 
L 214.229743 147.98 
L 215.877735 138.468615 
L 217.525728 141.186154 
L 219.173721 154.773846 
L 220.821713 133.210769 
L 222.469706 145.735077 
L 224.117699 138.882154 
L 225.765691 140.240923 
L 227.413684 146.384923 
L 229.061676 133.269846 
L 230.709669 140.595385 
L 232.357662 133.328923 
L 234.005654 148.984308 
L 235.653647 138.409538 
L 237.30164 141.304308 
L 238.949632 145.144308 
L 240.597625 132.974462 
L 242.245617 146.030462 
L 243.89361 140.831692 
L 245.541603 134.274154 
L 247.189595 149.456923 
L 248.837588 135.751077 
L 250.48558 140.831692 
L 252.133573 147.093846 
L 253.781566 136.164615 
L 255.429558 142.072308 
L 257.077551 141.127077 
L 258.725544 133.978769 
L 260.373536 145.144308 
L 262.021529 140.3 
L 263.669521 132.560923 
L 265.317514 146.857538 
L 266.965507 139.945538 
L 268.613499 138.055077 
L 270.261492 131.143077 
L 273.557477 147.802769 
L 275.20547 131.852 
L 276.853462 141.599692 
L 278.501455 141.599692 
L 280.149448 136.46 
L 281.79744 147.98 
L 283.445433 140.890769 
L 285.093425 135.987385 
L 286.741418 146.975692 
L 288.389411 134.805846 
L 290.037403 135.101231 
L 291.685396 147.093846 
L 293.333388 137.405231 
L 294.981381 143.726462 
L 296.629374 143.253846 
L 298.277366 138.527692 
L 299.925359 145.439692 
L 301.573352 135.219385 
L 303.221344 138.645846 
L 304.869337 145.085231 
L 306.517329 135.692 
L 308.165322 137.936923 
L 309.813315 144.258154 
L 311.461307 133.742462 
L 313.1093 143.844615 
L 314.757292 142.604 
L 316.405285 135.219385 
L 318.053278 150.520308 
L 319.70127 135.632923 
L 321.349263 136.46 
L 322.997256 141.776923 
L 324.645248 132.206462 
L 326.293241 142.781231 
L 327.941233 141.540615 
L 329.589226 131.615692 
L 331.237219 147.920923 
L 332.885211 139.354769 
L 334.533204 134.983077 
L 336.181196 141.599692 
L 337.829189 132.62 
L 339.477182 145.380615 
L 341.125174 143.253846 
L 342.773167 135.101231 
L 344.42116 148.629846 
L 346.069152 138.055077 
L 347.717145 137.582462 
L 349.365137 144.021846 
L 351.01313 134.924 
L 352.661123 137.346154 
L 354.309115 144.199077 
L 355.957108 134.746769 
L 357.605101 142.190462 
L 359.253093 141.776923 
L 360.901086 139.709231 
L 362.549078 149.988615 
L 364.197071 140.713538 
L 365.845064 137.523385 
L 367.493056 148.866154 
L 369.141049 135.751077 
L 370.789041 135.514769 
L 372.437034 140.654462 
L 374.085027 132.974462 
L 375.733019 136.637231 
L 377.381012 135.751077 
L 379.029005 149.102462 
L 380.676997 134.510462 
L 382.32499 138.527692 
L 383.972982 145.085231 
L 385.620975 131.320308 
L 385.620975 131.320308 
" style="fill:none;stroke:#ff7f0e;stroke-linecap:square;stroke-width:0.5;"/>
   </g>
   <g id="line2d_17">
    <path clip-path="url(#p22e62f5e97)" d="M 64.262415 138.941231 
L 65.910407 135.928308 
L 67.5584 151.406462 
L 69.206393 143.490154 
L 70.854385 139.827385 
L 72.502378 140.477231 
L 74.15037 141.540615 
L 75.798363 140.772615 
L 77.446356 144.435385 
L 79.094348 144.435385 
L 80.742341 140.772615 
L 82.390334 139.945538 
L 84.038326 147.330154 
L 85.686319 146.798462 
L 87.334311 143.017538 
L 88.982304 143.431077 
L 90.630297 143.372 
L 92.278289 142.190462 
L 93.926282 148.984308 
L 95.574274 141.481538 
L 97.222267 131.792923 
L 98.87026 139.236615 
L 100.518252 139.827385 
L 102.166245 144.494462 
L 103.814238 143.253846 
L 105.46223 138.291385 
L 107.110223 145.203385 
L 108.758215 133.269846 
L 110.406208 137.641538 
L 112.054201 140.713538 
L 113.702193 133.919692 
L 115.350186 139.413846 
L 116.998179 137.877846 
L 118.646171 132.974462 
L 120.294164 139.354769 
L 121.942156 142.190462 
L 123.590149 130.965846 
L 126.886134 140.890769 
L 128.534127 139.532 
L 130.182119 133.624308 
L 131.830112 145.735077 
L 133.478105 154.537538 
L 135.126097 142.131385 
L 136.77409 140.240923 
L 138.422083 144.908 
L 140.070075 148.629846 
L 141.718068 136.164615 
L 143.36606 140.359077 
L 145.014053 142.544923 
L 146.662046 137.759692 
L 148.310038 141.836 
L 149.958031 142.249538 
L 151.606023 139.768308 
L 154.902009 141.304308 
L 156.550001 141.599692 
L 158.197994 136.755385 
L 161.493979 134.628615 
L 164.789964 142.485846 
L 166.437957 138.409538 
L 168.08595 135.219385 
L 169.733942 139.177538 
L 171.381935 138.882154 
L 173.029927 140.359077 
L 174.67792 142.190462 
L 176.325913 141.481538 
L 177.973905 141.245231 
L 179.621898 138.941231 
L 181.269891 138.645846 
L 182.917883 140.536308 
L 184.565876 133.269846 
L 186.213868 139.472923 
L 187.861861 140.595385 
L 189.509854 136.932615 
L 191.157846 143.372 
L 192.805839 137.405231 
L 194.453831 141.422462 
L 196.101824 153.769538 
L 197.749817 154.242154 
L 199.397809 140.890769 
L 201.045802 139.532 
L 202.693795 151.997231 
L 204.341787 128.366462 
L 205.98978 143.667385 
L 207.637772 150.461231 
L 209.285765 132.383692 
L 210.933758 141.540615 
L 212.58175 141.245231 
L 214.229743 138.468615 
L 215.877735 137.700615 
L 217.525728 139.532 
L 219.173721 139.000308 
L 220.821713 139.236615 
L 222.469706 139.236615 
L 224.117699 136.164615 
L 225.765691 139.472923 
L 227.413684 143.312923 
L 229.061676 139.000308 
L 230.709669 141.658769 
L 232.357662 138.764 
L 234.005654 143.135692 
L 235.653647 160.090769 
L 237.30164 139.532 
L 238.949632 140.536308 
L 240.597625 136.578154 
L 242.245617 145.794154 
L 243.89361 138.409538 
L 245.541603 140.536308 
L 247.189595 137.759692 
L 248.837588 137.050769 
L 250.48558 144.317231 
L 252.133573 139.827385 
L 253.781566 137.641538 
L 255.429558 145.085231 
L 257.077551 138.882154 
L 258.725544 144.376308 
L 260.373536 150.697538 
L 262.021529 138.350462 
L 263.669521 139.650154 
L 265.317514 140.713538 
L 266.965507 137.641538 
L 268.613499 140.713538 
L 270.261492 140.536308 
L 271.909484 141.245231 
L 273.557477 142.131385 
L 275.20547 139.886462 
L 276.853462 138.527692 
L 278.501455 144.14 
L 280.149448 139.768308 
L 281.79744 149.988615 
L 283.445433 139.000308 
L 285.093425 139.177538 
L 286.741418 138.350462 
L 288.389411 142.190462 
L 290.037403 142.367692 
L 291.685396 137.877846 
L 293.333388 130.493231 
L 294.981381 139.650154 
L 296.629374 138.823077 
L 298.277366 138.350462 
L 299.925359 139.295692 
L 301.573352 135.810154 
L 303.221344 145.439692 
L 304.869337 127.184923 
L 306.517329 136.932615 
L 308.165322 151.111077 
L 309.813315 141.304308 
L 311.461307 137.523385 
L 313.1093 141.540615 
L 314.757292 138.468615 
L 316.405285 142.190462 
L 318.053278 142.722154 
L 319.70127 141.836 
L 321.349263 143.785538 
L 322.997256 142.249538 
L 324.645248 149.516 
L 326.293241 154.892 
L 327.941233 138.586769 
L 329.589226 141.068 
L 331.237219 141.186154 
L 332.885211 139.591077 
L 334.533204 138.645846 
L 336.181196 140.418154 
L 337.829189 137.287077 
L 339.477182 141.836 
L 341.125174 141.481538 
L 342.773167 138.704923 
L 344.42116 142.544923 
L 346.069152 141.304308 
L 347.717145 138.586769 
L 349.365137 141.836 
L 351.01313 138.350462 
L 352.661123 149.220615 
L 354.309115 153.237846 
L 355.957108 151.82 
L 357.605101 144.494462 
L 359.253093 130.138769 
L 360.901086 147.152923 
L 362.549078 132.560923 
L 364.197071 146.207692 
L 365.845064 138.055077 
L 367.493056 140.181846 
L 369.141049 151.642769 
L 370.789041 146.148615 
L 372.437034 143.017538 
L 374.085027 151.524615 
L 375.733019 140.890769 
L 377.381012 138.527692 
L 379.029005 142.426769 
L 380.676997 139.354769 
L 382.32499 145.794154 
L 383.972982 156.664308 
L 385.620975 136.814462 
L 385.620975 136.814462 
" style="fill:none;stroke:#2ca02c;stroke-linecap:square;stroke-width:0.5;"/>
   </g>
   <g id="line2d_18">
    <path clip-path="url(#p22e62f5e97)" d="M 64.262415 138.291385 
L 65.910407 133.565231 
L 67.5584 141.776923 
L 69.206393 136.578154 
L 70.854385 137.405231 
L 72.502378 139.000308 
L 74.15037 146.621231 
L 75.798363 137.877846 
L 77.446356 139.591077 
L 79.094348 139.709231 
L 80.742341 140.831692 
L 82.390334 139.532 
L 84.038326 132.738154 
L 85.686319 137.936923 
L 87.334311 140.536308 
L 88.982304 142.781231 
L 90.630297 137.936923 
L 92.278289 137.996 
L 93.926282 140.122769 
L 95.574274 141.186154 
L 97.222267 141.481538 
L 98.87026 140.595385 
L 100.518252 140.831692 
L 102.166245 142.663077 
L 103.814238 140.831692 
L 105.46223 142.663077 
L 107.110223 138.586769 
L 108.758215 145.026154 
L 110.406208 139.945538 
L 112.054201 140.3 
L 113.702193 141.836 
L 115.350186 133.328923 
L 116.998179 139.000308 
L 118.646171 139.945538 
L 120.294164 136.164615 
L 121.942156 142.426769 
L 123.590149 140.713538 
L 125.238142 139.768308 
L 126.886134 139.354769 
L 128.534127 137.759692 
L 130.182119 139.472923 
L 131.830112 142.426769 
L 133.478105 139.000308 
L 135.126097 137.582462 
L 136.77409 142.072308 
L 138.422083 136.755385 
L 141.718068 138.882154 
L 143.36606 138.941231 
L 146.662046 142.249538 
L 148.310038 141.776923 
L 149.958031 143.608308 
L 151.606023 140.772615 
L 153.254016 141.776923 
L 154.902009 138.468615 
L 156.550001 144.967077 
L 158.197994 141.304308 
L 159.845987 137.936923 
L 161.493979 142.072308 
L 163.141972 140.536308 
L 164.789964 136.637231 
L 166.437957 137.287077 
L 168.08595 138.941231 
L 169.733942 137.050769 
L 171.381935 141.599692 
L 173.029927 142.013231 
L 174.67792 139.413846 
L 176.325913 140.654462 
L 177.973905 139.413846 
L 179.621898 139.886462 
L 181.269891 141.599692 
L 182.917883 141.363385 
L 184.565876 137.346154 
L 186.213868 138.823077 
L 187.861861 143.076615 
L 191.157846 137.818769 
L 192.805839 139.354769 
L 194.453831 141.540615 
L 196.101824 140.477231 
L 197.749817 141.422462 
L 199.397809 141.481538 
L 201.045802 141.717846 
L 202.693795 141.422462 
L 204.341787 138.055077 
L 205.98978 137.996 
L 207.637772 139.886462 
L 209.285765 134.037846 
L 210.933758 139.709231 
L 212.58175 136.755385 
L 214.229743 137.700615 
L 215.877735 139.886462 
L 217.525728 135.042154 
L 219.173721 126.594154 
L 220.821713 140.654462 
L 222.469706 140.181846 
L 224.117699 138.350462 
L 225.765691 141.836 
L 227.413684 141.127077 
L 229.061676 140.181846 
L 230.709669 135.692 
L 232.357662 138.055077 
L 234.005654 143.017538 
L 235.653647 141.658769 
L 237.30164 141.422462 
L 238.949632 140.3 
L 240.597625 141.363385 
L 242.245617 140.831692 
L 243.89361 139.472923 
L 245.541603 139.236615 
L 247.189595 141.127077 
L 248.837588 139.472923 
L 250.48558 141.245231 
L 252.133573 141.717846 
L 253.781566 141.186154 
L 255.429558 139.768308 
L 257.077551 139.945538 
L 258.725544 138.764 
L 260.373536 139.177538 
L 262.021529 142.367692 
L 263.669521 140.359077 
L 265.317514 136.400923 
L 266.965507 140.713538 
L 268.613499 140.3 
L 270.261492 140.3 
L 271.909484 137.582462 
L 273.557477 137.818769 
L 275.20547 140.713538 
L 276.853462 141.422462 
L 278.501455 136.932615 
L 280.149448 141.717846 
L 281.79744 137.996 
L 283.445433 140.831692 
L 285.093425 140.713538 
L 286.741418 140.3 
L 288.389411 143.844615 
L 290.037403 138.764 
L 291.685396 140.772615 
L 293.333388 139.591077 
L 294.981381 139.354769 
L 296.629374 146.680308 
L 298.277366 139.472923 
L 299.925359 141.836 
L 301.573352 141.363385 
L 303.221344 141.245231 
L 304.869337 134.924 
L 306.517329 137.877846 
L 308.165322 144.730769 
L 309.813315 140.418154 
L 311.461307 138.409538 
L 313.1093 138.882154 
L 314.757292 136.814462 
L 316.405285 141.068 
L 318.053278 140.595385 
L 319.70127 139.413846 
L 321.349263 141.481538 
L 322.997256 140.240923 
L 324.645248 137.346154 
L 326.293241 137.582462 
L 327.941233 139.768308 
L 329.589226 139.236615 
L 331.237219 138.586769 
L 334.533204 138.291385 
L 336.181196 144.730769 
L 337.829189 141.304308 
L 339.477182 139.886462 
L 341.125174 137.464308 
L 342.773167 140.418154 
L 344.42116 134.805846 
L 346.069152 138.055077 
L 347.717145 138.468615 
L 349.365137 142.426769 
L 351.01313 139.472923 
L 352.661123 141.363385 
L 354.309115 138.055077 
L 355.957108 139.650154 
L 357.605101 139.886462 
L 359.253093 136.519077 
L 360.901086 138.645846 
L 362.549078 143.903692 
L 364.197071 139.768308 
L 365.845064 133.033538 
L 367.493056 142.781231 
L 369.141049 148.511692 
L 370.789041 137.996 
L 372.437034 141.363385 
L 374.085027 136.814462 
L 375.733019 142.663077 
L 377.381012 143.785538 
L 379.029005 142.544923 
L 380.676997 139.827385 
L 382.32499 138.409538 
L 383.972982 137.877846 
L 385.620975 138.586769 
L 385.620975 138.586769 
" style="fill:none;stroke:#d62728;stroke-linecap:square;stroke-width:0.5;"/>
   </g>
   <g id="line2d_19">
    <path clip-path="url(#p22e62f5e97)" d="M 64.262415 135.219385 
L 65.910407 128.130154 
L 67.5584 137.523385 
L 69.206393 138.055077 
L 70.854385 136.341846 
L 72.502378 129.548 
L 74.15037 133.860615 
L 75.798363 152.410769 
L 77.446356 142.781231 
L 79.094348 134.983077 
L 80.742341 143.490154 
L 82.390334 143.312923 
L 84.038326 143.608308 
L 85.686319 141.836 
L 87.334311 140.536308 
L 88.982304 143.253846 
L 90.630297 138.704923 
L 92.278289 124.644615 
L 93.926282 142.485846 
L 95.574274 137.582462 
L 97.222267 136.637231 
L 98.87026 138.645846 
L 100.518252 139.768308 
L 102.166245 135.455692 
L 103.814238 138.645846 
L 105.46223 137.700615 
L 107.110223 117.968923 
L 108.758215 139.768308 
L 110.406208 138.941231 
L 112.054201 140.418154 
L 113.702193 138.941231 
L 115.350186 251.719077 
L 116.998179 142.249538 
L 118.646171 113.242769 
L 120.294164 146.739385 
L 121.942156 142.426769 
L 125.238142 139.945538 
L 126.886134 134.451385 
L 128.534127 141.776923 
L 130.182119 140.181846 
L 131.830112 141.068 
L 133.478105 142.958462 
L 136.77409 134.864923 
L 138.422083 141.127077 
L 140.070075 139.000308 
L 141.718068 138.645846 
L 143.36606 138.409538 
L 145.014053 144.199077 
L 146.662046 137.346154 
L 148.310038 141.481538 
L 149.958031 139.354769 
L 151.606023 144.021846 
L 153.254016 140.240923 
L 154.902009 124.526462 
L 156.550001 134.687692 
L 158.197994 142.131385 
L 159.845987 139.650154 
L 161.493979 135.396615 
L 163.141972 139.768308 
L 164.789964 141.422462 
L 166.437957 143.372 
L 168.08595 137.818769 
L 169.733942 141.068 
L 171.381935 141.304308 
L 173.029927 141.836 
L 174.67792 133.624308 
L 176.325913 140.536308 
L 177.973905 145.085231 
L 179.621898 140.536308 
L 181.269891 138.350462 
L 182.917883 141.068 
L 184.565876 139.295692 
L 186.213868 143.372 
L 187.861861 143.312923 
L 189.509854 139.650154 
L 191.157846 140.418154 
L 192.805839 139.709231 
L 194.453831 162.453846 
L 196.101824 142.013231 
L 197.749817 139.886462 
L 199.397809 131.911077 
L 201.045802 142.013231 
L 202.693795 140.181846 
L 204.341787 139.000308 
L 205.98978 142.544923 
L 207.637772 138.586769 
L 209.285765 143.372 
L 212.58175 134.096923 
L 214.229743 142.781231 
L 215.877735 138.823077 
L 217.525728 141.245231 
L 219.173721 142.367692 
L 220.821713 141.186154 
L 222.469706 162.926462 
L 224.117699 140.418154 
L 225.765691 140.418154 
L 227.413684 22.796 
L 229.061676 140.477231 
L 230.709669 151.997231 
L 232.357662 75.197231 
L 235.653647 155.896308 
L 237.30164 102.727077 
L 238.949632 125.589846 
L 240.597625 125.944308 
L 242.245617 132.62 
L 243.89361 141.363385 
L 245.541603 120.745538 
L 247.189595 101.604615 
L 248.837588 164.994154 
L 250.48558 140.713538 
L 252.133573 152.469846 
L 253.781566 111.765846 
L 255.429558 154.714769 
L 257.077551 139.177538 
L 258.725544 141.776923 
L 260.373536 101.132 
L 262.021529 113.124615 
L 263.669521 140.359077 
L 265.317514 146.857538 
L 266.965507 140.3 
L 268.613499 116.137538 
L 270.261492 150.461231 
L 271.909484 155.246462 
L 273.557477 142.367692 
L 275.20547 140.418154 
L 276.853462 133.033538 
L 278.501455 116.728308 
L 280.149448 151.997231 
L 281.79744 145.144308 
L 283.445433 154.655692 
L 285.093425 150.461231 
L 286.741418 132.265538 
L 288.389411 140.477231 
L 290.037403 138.527692 
L 291.685396 131.733846 
L 293.333388 134.746769 
L 294.981381 142.072308 
L 296.629374 128.839077 
L 298.277366 142.663077 
L 299.925359 150.106769 
L 301.573352 149.456923 
L 303.221344 142.544923 
L 304.869337 141.599692 
L 306.517329 116.492 
L 308.165322 135.219385 
L 309.813315 132.62 
L 311.461307 113.183692 
L 313.1093 134.628615 
L 314.757292 144.14 
L 316.405285 138.882154 
L 318.053278 150.756615 
L 319.70127 143.372 
L 321.349263 140.536308 
L 322.997256 139.354769 
L 324.645248 137.464308 
L 326.293241 140.890769 
L 327.941233 178.404615 
L 329.589226 140.890769 
L 331.237219 138.055077 
L 332.885211 147.625538 
L 334.533204 135.101231 
L 336.181196 141.599692 
L 337.829189 131.143077 
L 339.477182 137.877846 
L 341.125174 146.266769 
L 344.42116 136.814462 
L 346.069152 142.190462 
L 347.717145 136.400923 
L 349.365137 150.461231 
L 351.01313 148.866154 
L 352.661123 130.079692 
L 354.309115 140.240923 
L 355.957108 122.517846 
L 357.605101 148.925231 
L 359.253093 131.084 
L 360.901086 142.722154 
L 362.549078 152.883385 
L 364.197071 142.190462 
L 365.845064 118.441538 
L 367.493056 143.903692 
L 369.141049 133.742462 
L 372.437034 155.364615 
L 374.085027 120.863692 
L 375.733019 149.693231 
L 377.381012 146.384923 
L 379.029005 139.827385 
L 380.676997 139.768308 
L 382.32499 143.608308 
L 383.972982 144.789846 
L 383.972982 144.789846 
" style="fill:none;stroke:#9467bd;stroke-linecap:square;stroke-width:0.5;"/>
   </g>
   <g id="line2d_20">
    <path clip-path="url(#p22e62f5e97)" d="M 64.262415 97.351077 
L 65.910407 126.298769 
L 67.5584 141.836 
L 69.206393 96.346769 
L 70.854385 120.745538 
L 72.502378 193.173846 
L 74.15037 147.212 
L 75.798363 143.667385 
L 77.446356 143.903692 
L 79.094348 136.991692 
L 80.742341 143.667385 
L 82.390334 128.839077 
L 84.038326 140.890769 
L 85.686319 141.776923 
L 87.334311 143.608308 
L 88.982304 141.717846 
L 90.630297 144.435385 
L 92.278289 140.181846 
L 93.926282 143.726462 
L 95.574274 144.435385 
L 97.222267 134.274154 
L 98.87026 128.543692 
L 100.518252 143.844615 
L 102.166245 136.755385 
L 103.814238 140.122769 
L 105.46223 141.599692 
L 107.110223 140.654462 
L 108.758215 143.312923 
L 110.406208 147.802769 
L 112.054201 137.582462 
L 113.702193 140.831692 
L 115.350186 139.591077 
L 116.998179 142.367692 
L 118.646171 139.827385 
L 120.294164 142.485846 
L 121.942156 139.413846 
L 123.590149 137.405231 
L 125.238142 141.836 
L 126.886134 143.312923 
L 128.534127 139.295692 
L 130.182119 140.418154 
L 131.830112 136.696308 
L 133.478105 146.739385 
L 135.126097 137.109846 
L 136.77409 140.890769 
L 138.422083 146.207692 
L 140.070075 136.341846 
L 141.718068 123.699385 
L 143.36606 141.836 
L 145.014053 135.219385 
L 146.662046 139.354769 
L 148.310038 143.903692 
L 149.958031 140.654462 
L 151.606023 149.929538 
L 153.254016 152.351692 
L 154.902009 115.842154 
L 156.550001 119.150462 
L 158.197994 177.932 
L 159.845987 146.621231 
L 161.493979 144.967077 
L 163.141972 143.903692 
L 164.789964 143.726462 
L 166.437957 140.536308 
L 168.08595 140.595385 
L 169.733942 139.827385 
L 171.381935 131.733846 
L 173.029927 137.582462 
L 174.67792 132.679077 
L 176.325913 140.713538 
L 177.973905 138.704923 
L 179.621898 144.317231 
L 181.269891 140.536308 
L 182.917883 143.549231 
L 184.565876 141.186154 
L 186.213868 145.498769 
L 187.861861 136.519077 
L 189.509854 137.996 
L 191.157846 139.295692 
L 192.805839 139.591077 
L 194.453831 136.46 
L 196.101824 141.186154 
L 197.749817 150.402154 
L 199.397809 145.144308 
L 201.045802 129.134462 
L 202.693795 114.660615 
L 204.341787 112.297538 
L 205.98978 139.354769 
L 207.637772 121.040923 
L 209.285765 153.533231 
L 210.933758 143.431077 
L 212.58175 152.765231 
L 214.229743 129.252615 
L 215.877735 146.148615 
L 217.525728 116.078462 
L 219.173721 137.582462 
L 220.821713 141.127077 
L 222.469706 137.996 
L 224.117699 138.055077 
L 225.765691 139.000308 
L 227.413684 139.472923 
L 229.061676 139.650154 
L 230.709669 142.367692 
L 232.357662 141.422462 
L 234.005654 142.367692 
L 235.653647 140.654462 
L 237.30164 136.814462 
L 238.949632 143.253846 
L 240.597625 136.578154 
L 243.89361 153.001538 
L 245.541603 143.667385 
L 247.189595 139.886462 
L 248.837588 135.219385 
L 250.48558 140.3 
L 252.133573 136.578154 
L 253.781566 140.359077 
L 255.429558 136.46 
L 257.077551 142.426769 
L 258.725544 139.827385 
L 260.373536 136.400923 
L 262.021529 145.853231 
L 263.669521 139.000308 
L 265.317514 139.295692 
L 266.965507 143.194769 
L 268.613499 136.164615 
L 270.261492 137.700615 
L 271.909484 136.932615 
L 273.557477 134.156 
L 275.20547 148.098154 
L 276.853462 152.292615 
L 278.501455 134.451385 
L 280.149448 138.232308 
L 281.79744 143.608308 
L 283.445433 136.046462 
L 285.093425 145.321538 
L 286.741418 138.764 
L 288.389411 154.655692 
L 290.037403 144.730769 
L 291.685396 144.080923 
L 293.333388 137.050769 
L 294.981381 133.860615 
L 298.277366 143.549231 
L 299.925359 138.291385 
L 301.573352 143.431077 
L 303.221344 143.372 
L 304.869337 137.936923 
L 306.517329 134.037846 
L 308.165322 144.908 
L 309.813315 137.523385 
L 311.461307 137.759692 
L 313.1093 148.216308 
L 314.757292 152.706154 
L 316.405285 162.217538 
L 318.053278 124.408308 
L 319.70127 158.082154 
L 321.349263 152.056308 
L 322.997256 135.042154 
L 324.645248 193.646462 
L 326.293241 141.068 
L 327.941233 146.030462 
L 329.589226 139.354769 
L 331.237219 137.818769 
L 332.885211 150.756615 
L 334.533204 109.58 
L 336.181196 139.768308 
L 337.829189 136.873538 
L 339.477182 138.527692 
L 341.125174 136.755385 
L 342.773167 140.3 
L 344.42116 139.650154 
L 346.069152 115.783077 
L 347.717145 137.936923 
L 349.365137 139.886462 
L 351.01313 140.772615 
L 352.661123 140.831692 
L 354.309115 157.255077 
L 355.957108 164.580615 
L 357.605101 113.183692 
L 359.253093 206.525231 
L 360.901086 217.986154 
L 362.549078 143.490154 
L 364.197071 177.459385 
L 365.845064 132.560923 
L 367.493056 112.297538 
L 369.141049 159.5 
L 370.789041 126.653231 
L 372.437034 184.016923 
L 374.085027 166.884615 
L 375.733019 146.148615 
L 377.381012 140.713538 
L 377.381012 140.713538 
" style="fill:none;stroke:#8c564b;stroke-linecap:square;stroke-width:0.5;"/>
   </g>
   <g id="line2d_21">
    <path clip-path="url(#p22e62f5e97)" d="M 64.262415 136.578154 
L 65.910407 142.781231 
L 67.5584 141.363385 
L 69.206393 142.604 
L 70.854385 140.831692 
L 72.502378 142.072308 
L 74.15037 99.891385 
L 75.798363 129.429846 
L 77.446356 148.629846 
L 79.094348 137.818769 
L 80.742341 137.700615 
L 82.390334 142.781231 
L 84.038326 141.363385 
L 85.686319 140.181846 
L 87.334311 138.468615 
L 88.982304 143.903692 
L 90.630297 139.827385 
L 92.278289 139.236615 
L 93.926282 143.903692 
L 95.574274 144.967077 
L 97.222267 123.285846 
L 98.87026 145.794154 
L 100.518252 140.654462 
L 102.166245 139.827385 
L 103.814238 139.177538 
L 105.46223 141.481538 
L 107.110223 142.426769 
L 108.758215 140.595385 
L 110.406208 141.127077 
L 112.054201 140.181846 
L 113.702193 128.012 
L 115.350186 137.582462 
L 116.998179 137.877846 
L 118.646171 139.591077 
L 120.294164 139.354769 
L 121.942156 140.240923 
L 123.590149 142.249538 
L 125.238142 144.435385 
L 126.886134 136.105538 
L 128.534127 138.055077 
L 130.182119 135.455692 
L 131.830112 147.271077 
L 133.478105 131.379385 
L 135.126097 140.418154 
L 136.77409 139.354769 
L 138.422083 141.599692 
L 140.070075 140.359077 
L 141.718068 142.426769 
L 143.36606 142.485846 
L 145.014053 130.197846 
L 146.662046 141.481538 
L 148.310038 136.105538 
L 149.958031 139.945538 
L 151.606023 157.668615 
L 153.254016 135.987385 
L 154.902009 138.882154 
L 156.550001 138.350462 
L 158.197994 144.730769 
L 159.845987 140.831692 
L 161.493979 142.544923 
L 163.141972 138.527692 
L 164.789964 139.650154 
L 166.437957 139.472923 
L 168.08595 136.814462 
L 169.733942 139.768308 
L 171.381935 141.599692 
L 173.029927 141.658769 
L 174.67792 147.034769 
L 176.325913 135.042154 
L 177.973905 140.418154 
L 179.621898 138.468615 
L 181.269891 135.928308 
L 182.917883 139.827385 
L 184.565876 135.219385 
L 186.213868 128.071077 
L 187.861861 137.523385 
L 189.509854 143.076615 
L 191.157846 129.488923 
L 192.805839 147.743692 
L 194.453831 150.579385 
L 196.101824 145.794154 
L 197.749817 139.295692 
L 199.397809 141.836 
L 201.045802 141.658769 
L 202.693795 134.451385 
L 205.98978 148.039077 
L 207.637772 140.654462 
L 209.285765 139.827385 
L 210.933758 140.418154 
L 212.58175 139.709231 
L 214.229743 133.978769 
L 215.877735 149.161538 
L 217.525728 134.746769 
L 219.173721 138.055077 
L 220.821713 142.544923 
L 222.469706 137.346154 
L 224.117699 145.026154 
L 225.765691 139.709231 
L 227.413684 141.304308 
L 229.061676 141.540615 
L 230.709669 141.304308 
L 232.357662 138.586769 
L 234.005654 139.709231 
L 235.653647 141.776923 
L 237.30164 144.435385 
L 238.949632 133.978769 
L 240.597625 142.663077 
L 242.245617 136.400923 
L 243.89361 137.759692 
L 245.541603 140.772615 
L 247.189595 139.945538 
L 248.837588 126.476 
L 250.48558 138.764 
L 252.133573 142.013231 
L 253.781566 140.713538 
L 255.429558 141.599692 
L 258.725544 140.713538 
L 260.373536 141.127077 
L 262.021529 143.431077 
L 263.669521 142.072308 
L 265.317514 139.532 
L 266.965507 132.797231 
L 268.613499 140.3 
L 270.261492 142.131385 
L 271.909484 140.477231 
L 273.557477 140.122769 
L 275.20547 140.713538 
L 276.853462 141.717846 
L 278.501455 143.135692 
L 280.149448 135.514769 
L 281.79744 140.595385 
L 283.445433 141.717846 
L 285.093425 134.510462 
L 286.741418 136.400923 
L 288.389411 140.772615 
L 290.037403 143.253846 
L 291.685396 140.359077 
L 293.333388 147.330154 
L 294.981381 138.764 
L 296.629374 143.667385 
L 298.277366 147.152923 
L 299.925359 138.468615 
L 301.573352 140.122769 
L 303.221344 136.400923 
L 304.869337 142.072308 
L 306.517329 138.941231 
L 308.165322 137.464308 
L 309.813315 147.802769 
L 311.461307 140.3 
L 313.1093 139.768308 
L 314.757292 141.658769 
L 316.405285 158.909231 
L 318.053278 153.356 
L 319.70127 150.461231 
L 321.349263 140.181846 
L 322.997256 152.883385 
L 324.645248 146.798462 
L 326.293241 145.676 
L 327.941233 142.604 
L 329.589226 131.438462 
L 331.237219 132.383692 
L 332.885211 146.975692 
L 334.533204 147.093846 
L 336.181196 138.232308 
L 337.829189 133.742462 
L 339.477182 136.755385 
L 341.125174 136.932615 
L 342.773167 140.713538 
L 344.42116 146.857538 
L 346.069152 148.511692 
L 347.717145 141.481538 
L 349.365137 131.024923 
L 351.01313 139.827385 
L 352.661123 141.186154 
L 354.309115 140.772615 
L 355.957108 135.751077 
L 357.605101 143.608308 
L 359.253093 136.814462 
L 360.901086 138.823077 
L 362.549078 144.021846 
L 364.197071 150.224923 
L 365.845064 141.481538 
L 367.493056 142.249538 
L 369.141049 149.456923 
L 370.789041 138.764 
L 372.437034 139.709231 
L 374.085027 141.776923 
L 375.733019 142.190462 
L 377.381012 142.190462 
L 379.029005 131.438462 
L 380.676997 137.877846 
L 382.32499 135.751077 
L 383.972982 132.560923 
L 385.620975 138.586769 
L 387.268968 160.799692 
L 387.268968 160.799692 
" style="fill:none;stroke:#e377c2;stroke-linecap:square;stroke-width:0.5;"/>
   </g>
   <g id="line2d_22">
    <path clip-path="url(#p22e62f5e97)" d="M 64.262415 140.477231 
L 65.910407 137.759692 
L 67.5584 140.477231 
L 69.206393 141.245231 
L 70.854385 142.190462 
L 72.502378 141.304308 
L 74.15037 120.332 
L 75.798363 139.650154 
L 77.446356 137.877846 
L 79.094348 142.367692 
L 80.742341 136.046462 
L 82.390334 138.823077 
L 84.038326 140.890769 
L 85.686319 133.919692 
L 87.334311 141.422462 
L 88.982304 137.346154 
L 90.630297 140.536308 
L 92.278289 121.868 
L 93.926282 137.936923 
L 95.574274 140.359077 
L 97.222267 146.739385 
L 98.87026 141.186154 
L 100.518252 139.768308 
L 102.166245 141.599692 
L 103.814238 137.050769 
L 105.46223 115.369538 
L 107.110223 141.481538 
L 108.758215 139.354769 
L 110.406208 142.722154 
L 112.054201 154.714769 
L 113.702193 149.102462 
L 116.998179 134.983077 
L 118.646171 144.494462 
L 120.294164 142.013231 
L 121.942156 138.409538 
L 123.590149 140.536308 
L 125.238142 141.776923 
L 126.886134 140.890769 
L 128.534127 139.000308 
L 130.182119 141.068 
L 131.830112 139.709231 
L 133.478105 141.836 
L 135.126097 138.941231 
L 136.77409 137.464308 
L 138.422083 141.304308 
L 140.070075 135.987385 
L 141.718068 136.105538 
L 143.36606 136.873538 
L 145.014053 142.308615 
L 146.662046 140.3 
L 148.310038 138.055077 
L 149.958031 140.3 
L 151.606023 140.890769 
L 153.254016 139.000308 
L 154.902009 141.245231 
L 156.550001 139.472923 
L 158.197994 142.544923 
L 159.845987 139.945538 
L 161.493979 140.713538 
L 163.141972 140.831692 
L 164.789964 140.713538 
L 166.437957 143.726462 
L 168.08595 140.654462 
L 169.733942 141.245231 
L 171.381935 138.704923 
L 173.029927 139.650154 
L 174.67792 137.582462 
L 176.325913 141.127077 
L 177.973905 140.772615 
L 179.621898 139.591077 
L 182.917883 139.354769 
L 184.565876 140.890769 
L 186.213868 136.696308 
L 187.861861 143.194769 
L 189.509854 140.3 
L 191.157846 140.477231 
L 192.805839 142.544923 
L 194.453831 138.941231 
L 196.101824 141.540615 
L 197.749817 139.354769 
L 199.397809 141.776923 
L 201.045802 142.485846 
L 202.693795 142.249538 
L 204.341787 144.494462 
L 207.637772 140.713538 
L 209.285765 142.485846 
L 210.933758 140.3 
L 212.58175 141.836 
L 214.229743 140.713538 
L 215.877735 140.181846 
L 217.525728 141.186154 
L 219.173721 141.540615 
L 220.821713 138.291385 
L 222.469706 136.519077 
L 224.117699 139.709231 
L 225.765691 137.641538 
L 227.413684 136.637231 
L 229.061676 138.941231 
L 230.709669 142.308615 
L 232.357662 143.312923 
L 234.005654 136.814462 
L 235.653647 120.095692 
L 237.30164 136.873538 
L 238.949632 135.573846 
L 240.597625 138.645846 
L 242.245617 134.983077 
L 243.89361 139.000308 
L 245.541603 139.768308 
L 247.189595 141.481538 
L 248.837588 139.177538 
L 250.48558 139.827385 
L 252.133573 143.312923 
L 253.781566 142.426769 
L 255.429558 140.3 
L 257.077551 139.945538 
L 258.725544 143.135692 
L 260.373536 142.485846 
L 262.021529 139.945538 
L 263.669521 138.823077 
L 265.317514 139.236615 
L 266.965507 139.886462 
L 268.613499 139.827385 
L 270.261492 138.764 
L 271.909484 142.190462 
L 273.557477 139.532 
L 275.20547 139.827385 
L 276.853462 139.295692 
L 278.501455 143.844615 
L 280.149448 139.768308 
L 281.79744 141.717846 
L 283.445433 136.578154 
L 285.093425 140.831692 
L 286.741418 141.304308 
L 290.037403 140.3 
L 291.685396 143.194769 
L 293.333388 139.768308 
L 294.981381 145.026154 
L 296.629374 140.477231 
L 298.277366 141.127077 
L 299.925359 138.764 
L 303.221344 140.890769 
L 304.869337 141.481538 
L 306.517329 140.3 
L 308.165322 139.650154 
L 309.813315 142.249538 
L 311.461307 139.768308 
L 313.1093 141.836 
L 314.757292 137.464308 
L 316.405285 141.658769 
L 318.053278 141.245231 
L 319.70127 139.827385 
L 321.349263 142.308615 
L 322.997256 139.827385 
L 324.645248 137.877846 
L 326.293241 146.030462 
L 327.941233 140.831692 
L 329.589226 137.050769 
L 331.237219 142.308615 
L 334.533204 142.485846 
L 336.181196 140.359077 
L 337.829189 145.676 
L 339.477182 139.827385 
L 341.125174 138.527692 
L 342.773167 134.628615 
L 344.42116 135.810154 
L 346.069152 139.591077 
L 347.717145 153.001538 
L 349.365137 139.413846 
L 351.01313 139.886462 
L 352.661123 139.413846 
L 354.309115 139.945538 
L 355.957108 143.372 
L 357.605101 142.781231 
L 359.253093 139.472923 
L 360.901086 139.591077 
L 362.549078 136.046462 
L 364.197071 138.232308 
L 365.845064 140.654462 
L 367.493056 139.827385 
L 369.141049 138.645846 
L 370.789041 139.709231 
L 372.437034 142.604 
L 374.085027 141.717846 
L 375.733019 145.853231 
L 377.381012 137.050769 
L 379.029005 143.785538 
L 380.676997 133.624308 
L 382.32499 127.539385 
L 383.972982 137.464308 
L 385.620975 143.076615 
L 387.268968 138.645846 
L 388.91696 139.591077 
L 388.91696 139.591077 
" style="fill:none;stroke:#7f7f7f;stroke-linecap:square;stroke-width:0.5;"/>
   </g>
   <g id="line2d_23">
    <path clip-path="url(#p22e62f5e97)" d="M 64.262415 149.693231 
L 65.910407 121.868 
L 67.5584 140.831692 
L 69.206393 152.528923 
L 70.854385 135.514769 
L 72.502378 140.240923 
L 74.15037 136.519077 
L 75.798363 145.321538 
L 77.446356 142.190462 
L 79.094348 136.991692 
L 80.742341 155.778154 
L 82.390334 140.181846 
L 84.038326 142.663077 
L 85.686319 146.857538 
L 87.334311 136.46 
L 88.982304 136.578154 
L 90.630297 142.308615 
L 92.278289 159.381846 
L 93.926282 132.738154 
L 95.574274 143.253846 
L 97.222267 145.735077 
L 98.87026 157.136923 
L 100.518252 152.292615 
L 102.166245 133.978769 
L 103.814238 135.751077 
L 105.46223 143.431077 
L 107.110223 128.957231 
L 108.758215 121.395385 
L 110.406208 134.864923 
L 112.054201 166.116615 
L 113.702193 127.066769 
L 115.350186 143.726462 
L 116.998179 147.271077 
L 118.646171 130.375077 
L 120.294164 140.654462 
L 121.942156 137.109846 
L 123.590149 142.190462 
L 125.238142 131.024923 
L 126.886134 129.488923 
L 128.534127 153.415077 
L 130.182119 144.789846 
L 131.830112 154.892 
L 133.478105 135.573846 
L 135.126097 152.292615 
L 136.77409 141.186154 
L 140.070075 147.920923 
L 141.718068 132.974462 
L 143.36606 144.080923 
L 145.014053 138.291385 
L 146.662046 140.359077 
L 148.310038 128.012 
L 149.958031 142.781231 
L 151.606023 131.261231 
L 153.254016 132.029231 
L 154.902009 148.629846 
L 158.197994 136.46 
L 159.845987 140.181846 
L 161.493979 141.245231 
L 163.141972 151.997231 
L 164.789964 146.739385 
L 166.437957 152.351692 
L 168.08595 126.062462 
L 169.733942 131.202154 
L 171.381935 141.717846 
L 173.029927 137.050769 
L 174.67792 135.928308 
L 176.325913 141.304308 
L 177.973905 132.147385 
L 179.621898 148.688923 
L 181.269891 140.418154 
L 182.917883 148.216308 
L 184.565876 143.253846 
L 186.213868 133.683385 
L 187.861861 145.380615 
L 189.509854 138.645846 
L 191.157846 133.624308 
L 192.805839 126.180615 
L 194.453831 146.325846 
L 196.101824 128.602769 
L 199.397809 143.962769 
L 201.045802 142.367692 
L 202.693795 144.021846 
L 204.341787 139.768308 
L 205.98978 136.696308 
L 207.637772 138.764 
L 209.285765 143.253846 
L 210.933758 143.431077 
L 212.58175 131.911077 
L 214.229743 142.072308 
L 215.877735 137.877846 
L 217.525728 147.625538 
L 219.173721 121.454462 
L 220.821713 123.522154 
L 222.469706 149.988615 
L 224.117699 146.266769 
L 225.765691 129.193538 
L 227.413684 150.992923 
L 229.061676 161.804 
L 230.709669 130.670462 
L 232.357662 140.831692 
L 234.005654 147.330154 
L 235.653647 150.933846 
L 237.30164 131.379385 
L 238.949632 154.242154 
L 240.597625 126.416923 
L 242.245617 150.106769 
L 243.89361 179.349846 
L 245.541603 129.075385 
L 247.189595 128.012 
L 248.837588 146.739385 
L 250.48558 148.157231 
L 252.133573 126.357846 
L 253.781566 145.026154 
L 255.429558 155.896308 
L 257.077551 125.412615 
L 258.725544 136.814462 
L 260.373536 136.164615 
L 262.021529 137.464308 
L 263.669521 126.416923 
L 265.317514 142.308615 
L 266.965507 133.683385 
L 268.613499 137.700615 
L 270.261492 143.903692 
L 271.909484 135.928308 
L 273.557477 136.873538 
L 275.20547 147.743692 
L 276.853462 146.384923 
L 278.501455 144.258154 
L 280.149448 146.030462 
L 281.79744 144.258154 
L 283.445433 165.939385 
L 285.093425 147.093846 
L 286.741418 150.874769 
L 288.389411 149.929538 
L 290.037403 127.066769 
L 291.685396 134.628615 
L 293.333388 152.351692 
L 294.981381 184.725846 
L 296.629374 144.376308 
L 298.277366 131.674769 
L 301.573352 156.250769 
L 303.221344 147.093846 
L 304.869337 128.248308 
L 306.517329 148.570769 
L 308.165322 149.220615 
L 309.813315 147.861846 
L 311.461307 137.818769 
L 313.1093 139.000308 
L 314.757292 112.238462 
L 316.405285 141.245231 
L 318.053278 145.026154 
L 319.70127 142.308615 
L 321.349263 132.797231 
L 322.997256 146.325846 
L 324.645248 135.928308 
L 326.293241 127.480308 
L 327.941233 131.792923 
L 329.589226 127.244 
L 331.237219 147.98 
L 332.885211 142.781231 
L 334.533204 133.269846 
L 336.181196 136.932615 
L 337.829189 130.375077 
L 339.477182 134.983077 
L 341.125174 143.490154 
L 342.773167 131.911077 
L 344.42116 143.726462 
L 346.069152 137.050769 
L 347.717145 133.978769 
L 349.365137 171.551692 
L 351.01313 145.794154 
L 352.661123 135.455692 
L 354.309115 141.127077 
L 355.957108 144.553538 
L 357.605101 137.287077 
L 359.253093 142.781231 
L 360.901086 139.886462 
L 362.549078 141.540615 
L 364.197071 142.485846 
L 365.845064 140.595385 
L 367.493056 142.663077 
L 369.141049 145.912308 
L 370.789041 142.249538 
L 372.437034 148.098154 
L 374.085027 138.704923 
L 375.733019 146.030462 
L 377.381012 111.943077 
L 379.029005 138.527692 
L 380.676997 94.160923 
L 382.32499 134.687692 
L 383.972982 139.236615 
L 385.620975 138.823077 
L 387.268968 140.359077 
L 387.268968 140.359077 
" style="fill:none;stroke:#bcbd22;stroke-linecap:square;stroke-width:0.5;"/>
   </g>
   <g id="line2d_24">
    <path clip-path="url(#p22e62f5e97)" d="M 64.262415 140.181846 
L 65.910407 135.455692 
L 67.5584 139.709231 
L 69.206393 159.440923 
L 70.854385 105.74 
L 72.502378 132.206462 
L 74.15037 142.663077 
L 75.798363 141.363385 
L 77.446356 142.781231 
L 79.094348 140.595385 
L 80.742341 139.177538 
L 82.390334 140.122769 
L 84.038326 184.666769 
L 85.686319 137.582462 
L 87.334311 135.987385 
L 88.982304 139.000308 
L 90.630297 142.485846 
L 92.278289 137.700615 
L 93.926282 142.190462 
L 95.574274 141.717846 
L 97.222267 136.400923 
L 98.87026 141.363385 
L 100.518252 142.722154 
L 102.166245 141.304308 
L 103.814238 138.704923 
L 105.46223 139.236615 
L 107.110223 137.877846 
L 108.758215 143.312923 
L 110.406208 137.523385 
L 112.054201 140.654462 
L 113.702193 143.372 
L 115.350186 137.346154 
L 116.998179 139.472923 
L 118.646171 138.468615 
L 120.294164 138.941231 
L 121.942156 141.540615 
L 123.590149 137.405231 
L 125.238142 139.236615 
L 126.886134 144.258154 
L 128.534127 141.836 
L 130.182119 140.240923 
L 131.830112 143.194769 
L 133.478105 142.249538 
L 135.126097 159.913538 
L 136.77409 136.932615 
L 138.422083 157.077846 
L 140.070075 144.376308 
L 141.718068 134.746769 
L 143.36606 141.304308 
L 145.014053 142.190462 
L 146.662046 140.477231 
L 148.310038 142.781231 
L 149.958031 141.363385 
L 151.606023 140.654462 
L 153.254016 142.958462 
L 154.902009 139.177538 
L 156.550001 142.131385 
L 158.197994 141.658769 
L 159.845987 139.886462 
L 161.493979 141.422462 
L 163.141972 139.472923 
L 164.789964 144.494462 
L 166.437957 146.798462 
L 169.733942 135.455692 
L 171.381935 140.890769 
L 173.029927 142.722154 
L 174.67792 144.848923 
L 176.325913 144.730769 
L 177.973905 141.245231 
L 179.621898 137.109846 
L 181.269891 124.526462 
L 182.917883 143.017538 
L 184.565876 140.359077 
L 186.213868 129.016308 
L 187.861861 136.637231 
L 189.509854 141.540615 
L 191.157846 154.419385 
L 192.805839 138.232308 
L 194.453831 144.199077 
L 196.101824 136.932615 
L 197.749817 136.814462 
L 199.397809 138.527692 
L 201.045802 140.654462 
L 202.693795 138.409538 
L 204.341787 141.304308 
L 205.98978 140.240923 
L 207.637772 141.363385 
L 209.285765 143.017538 
L 210.933758 136.932615 
L 212.58175 140.3 
L 214.229743 141.068 
L 215.877735 138.704923 
L 217.525728 140.772615 
L 219.173721 139.532 
L 220.821713 140.654462 
L 222.469706 140.654462 
L 224.117699 138.350462 
L 225.765691 140.536308 
L 227.413684 137.936923 
L 229.061676 141.068 
L 230.709669 138.704923 
L 232.357662 137.700615 
L 234.005654 141.481538 
L 235.653647 137.759692 
L 237.30164 152.528923 
L 238.949632 139.472923 
L 240.597625 153.296923 
L 242.245617 138.055077 
L 243.89361 142.131385 
L 245.541603 152.410769 
L 247.189595 142.308615 
L 248.837588 136.814462 
L 250.48558 137.700615 
L 252.133573 143.135692 
L 253.781566 121.395385 
L 255.429558 141.186154 
L 257.077551 132.088308 
L 258.725544 158.377538 
L 260.373536 148.629846 
L 262.021529 141.658769 
L 263.669521 148.275385 
L 265.317514 140.713538 
L 266.965507 141.717846 
L 268.613499 139.413846 
L 270.261492 137.641538 
L 271.909484 141.717846 
L 273.557477 133.033538 
L 275.20547 136.755385 
L 276.853462 140.772615 
L 278.501455 141.540615 
L 280.149448 140.181846 
L 281.79744 137.287077 
L 283.445433 140.3 
L 285.093425 144.848923 
L 286.741418 143.431077 
L 288.389411 142.249538 
L 290.037403 136.400923 
L 291.685396 140.772615 
L 293.333388 137.936923 
L 294.981381 143.312923 
L 296.629374 138.823077 
L 298.277366 139.709231 
L 299.925359 137.996 
L 301.573352 141.127077 
L 303.221344 141.658769 
L 304.869337 153.828615 
L 306.517329 154.773846 
L 308.165322 139.236615 
L 309.813315 138.823077 
L 311.461307 137.759692 
L 313.1093 143.312923 
L 314.757292 135.632923 
L 316.405285 139.886462 
L 318.053278 142.190462 
L 319.70127 138.527692 
L 321.349263 141.127077 
L 322.997256 143.372 
L 324.645248 148.748 
L 326.293241 141.836 
L 327.941233 141.304308 
L 329.589226 142.249538 
L 331.237219 138.350462 
L 332.885211 135.101231 
L 334.533204 117.200923 
L 336.181196 141.186154 
L 337.829189 152.883385 
L 339.477182 148.275385 
L 341.125174 140.595385 
L 342.773167 142.781231 
L 344.42116 176.868615 
L 346.069152 111.470462 
L 347.717145 133.033538 
L 347.717145 133.033538 
" style="fill:none;stroke:#17becf;stroke-linecap:square;stroke-width:0.5;"/>
   </g>
   <g id="line2d_25">
    <path clip-path="url(#p22e62f5e97)" d="M 64.262415 22.796 
L 65.910407 211.015077 
L 67.5584 122.576923 
L 69.206393 105.799077 
L 70.854385 54.284 
L 72.502378 132.797231 
L 74.15037 264.716 
L 75.798363 130.375077 
L 77.446356 164.108 
L 79.094348 230.864923 
L 80.742341 22.796 
L 82.390334 150.165846 
L 84.038326 190.751692 
L 85.686319 117.968923 
L 87.334311 146.384923 
L 88.982304 72.716 
L 90.630297 50.562154 
L 92.278289 162.217538 
L 93.926282 134.983077 
L 95.574274 143.312923 
L 97.222267 182.776308 
L 98.87026 185.080308 
L 100.518252 214.677846 
L 102.166245 130.316 
L 103.814238 144.258154 
L 105.46223 139.945538 
L 107.110223 126.298769 
L 108.758215 90.793538 
L 110.406208 145.853231 
L 112.054201 108.162154 
L 113.702193 150.756615 
L 115.350186 91.088923 
L 116.998179 87.780615 
L 118.646171 128.425538 
L 120.294164 175.628 
L 121.942156 115.133231 
L 123.590149 131.792923 
L 125.238142 113.183692 
L 126.886134 150.106769 
L 128.534127 98.709846 
L 130.182119 158.554769 
L 131.830112 193.410154 
L 133.478105 182.54 
L 135.126097 117.26 
L 136.77409 184.489538 
L 138.422083 138.645846 
L 140.070075 154.301231 
L 141.718068 158.613846 
L 143.36606 136.932615 
L 145.014053 109.875385 
L 146.662046 131.911077 
L 148.310038 102.136308 
L 149.958031 204.339385 
L 151.606023 186.38 
L 153.254016 100.600308 
L 154.902009 73.424923 
L 156.550001 153.946769 
L 158.197994 114.069846 
L 159.845987 119.386769 
L 161.493979 153.060615 
L 163.141972 139.650154 
L 164.789964 133.269846 
L 166.437957 138.586769 
L 168.08595 161.390462 
L 169.733942 82.640923 
L 171.381935 154.005846 
L 173.029927 200.912923 
L 174.67792 167.948 
L 176.325913 82.227385 
L 177.973905 61.727692 
L 179.621898 219.935692 
L 181.269891 104.794769 
L 182.917883 259.221846 
L 184.565876 175.037231 
L 186.213868 225.607077 
L 187.861861 179.468 
L 189.509854 165.880308 
L 191.157846 120.095692 
L 192.805839 151.465538 
L 194.453831 147.330154 
L 196.101824 202.685231 
L 197.749817 135.987385 
L 199.397809 123.463077 
L 201.045802 171.965231 
L 202.693795 193.941846 
L 204.341787 142.190462 
L 205.98978 155.423692 
L 207.637772 127.421231 
L 209.285765 143.076615 
L 210.933758 135.632923 
L 212.58175 162.276615 
L 214.229743 155.364615 
L 215.877735 135.810154 
L 217.525728 148.216308 
L 219.173721 116.492 
L 220.821713 157.018769 
L 222.469706 103.731385 
L 224.117699 127.657538 
L 225.765691 131.674769 
L 227.413684 143.372 
L 229.061676 137.582462 
L 230.709669 190.810769 
L 232.357662 156.664308 
L 234.005654 100.245846 
L 235.653647 155.128308 
L 237.30164 143.372 
L 238.949632 129.016308 
L 240.597625 216.095692 
L 242.245617 76.615077 
L 243.89361 113.360923 
L 245.541603 175.450769 
L 247.189595 76.437846 
L 248.837588 143.312923 
L 250.48558 141.776923 
L 252.133573 127.244 
L 253.781566 135.869231 
L 255.429558 140.890769 
L 257.077551 140.890769 
L 260.373536 135.219385 
L 262.021529 135.869231 
L 263.669521 164.226154 
L 265.317514 147.152923 
L 266.965507 149.456923 
L 268.613499 122.340615 
L 270.261492 148.807077 
L 271.909484 142.249538 
L 273.557477 145.203385 
L 275.20547 138.291385 
L 276.853462 180.649538 
L 278.501455 127.834769 
L 280.149448 104.676615 
L 281.79744 128.839077 
L 283.445433 80.868615 
L 285.093425 101.840923 
L 286.741418 183.189846 
L 288.389411 184.489538 
L 290.037403 186.557231 
L 291.685396 149.161538 
L 293.333388 137.287077 
L 294.981381 108.693846 
L 296.629374 148.216308 
L 298.277366 157.550462 
L 299.925359 128.366462 
L 301.573352 148.334462 
L 303.221344 154.419385 
L 304.869337 138.645846 
L 306.517329 112.474769 
L 308.165322 137.523385 
L 309.813315 143.667385 
L 311.461307 142.190462 
L 313.1093 161.331385 
L 314.757292 178.345538 
L 316.405285 50.030462 
L 318.053278 154.892 
L 319.70127 142.249538 
L 321.349263 151.760923 
L 322.997256 108.516615 
L 324.645248 115.901231 
L 326.293241 135.219385 
L 327.941233 124.408308 
L 329.589226 158.613846 
L 331.237219 146.325846 
L 332.885211 96.701231 
L 334.533204 165.289538 
L 336.181196 193.705538 
L 337.829189 150.106769 
L 339.477182 139.000308 
L 341.125174 160.149846 
L 342.773167 215.268615 
L 344.42116 126.298769 
L 346.069152 75.551692 
L 347.717145 196.009538 
L 349.365137 137.936923 
L 351.01313 159.027385 
L 352.661123 219.640308 
L 354.309115 163.694462 
L 355.957108 221.058154 
L 357.605101 126.062462 
L 359.253093 177.223077 
L 360.901086 154.301231 
L 362.549078 34.079692 
L 364.197071 137.287077 
L 365.845064 147.861846 
L 367.493056 147.566462 
L 369.141049 149.752308 
L 370.789041 228.974462 
L 372.437034 151.524615 
L 374.085027 235.118462 
L 375.733019 121.927077 
L 377.381012 137.759692 
L 379.029005 130.020615 
L 380.676997 140.418154 
L 382.32499 140.713538 
L 383.972982 145.971385 
L 385.620975 130.729538 
L 387.268968 114.247077 
L 387.268968 114.247077 
" style="fill:none;stroke:#1f77b4;stroke-linecap:square;stroke-width:0.5;"/>
   </g>
   <g id="line2d_26">
    <path clip-path="url(#p22e62f5e97)" d="M 64.262415 141.481538 
L 65.910407 139.413846 
L 67.5584 134.096923 
L 69.206393 140.477231 
L 70.854385 119.564 
L 72.502378 130.965846 
L 74.15037 136.873538 
L 75.798363 150.992923 
L 77.446356 129.961538 
L 79.094348 143.431077 
L 80.742341 143.253846 
L 82.390334 141.068 
L 84.038326 136.46 
L 85.686319 135.160308 
L 87.334311 137.405231 
L 88.982304 141.540615 
L 90.630297 141.481538 
L 92.278289 139.591077 
L 93.926282 145.794154 
L 95.574274 121.336308 
L 97.222267 140.477231 
L 98.87026 131.024923 
L 100.518252 145.439692 
L 102.166245 138.764 
L 103.814238 136.164615 
L 105.46223 138.823077 
L 107.110223 148.039077 
L 108.758215 140.890769 
L 110.406208 146.975692 
L 112.054201 156.723385 
L 113.702193 141.186154 
L 115.350186 138.468615 
L 116.998179 139.177538 
L 118.646171 139.354769 
L 120.294164 135.160308 
L 123.590149 140.831692 
L 125.238142 141.304308 
L 126.886134 138.055077 
L 128.534127 132.560923 
L 130.182119 138.882154 
L 131.830112 138.823077 
L 133.478105 143.903692 
L 135.126097 143.608308 
L 136.77409 139.591077 
L 138.422083 140.240923 
L 140.070075 147.152923 
L 141.718068 140.713538 
L 143.36606 138.586769 
L 145.014053 140.418154 
L 146.662046 131.143077 
L 148.310038 133.565231 
L 149.958031 139.236615 
L 151.606023 140.890769 
L 153.254016 142.781231 
L 154.902009 138.055077 
L 156.550001 145.144308 
L 158.197994 139.413846 
L 159.845987 137.818769 
L 161.493979 149.634154 
L 163.141972 141.599692 
L 164.789964 124.821846 
L 166.437957 152.883385 
L 168.08595 132.738154 
L 169.733942 138.823077 
L 171.381935 140.831692 
L 173.029927 138.468615 
L 174.67792 138.527692 
L 176.325913 140.181846 
L 177.973905 140.477231 
L 179.621898 140.359077 
L 181.269891 138.527692 
L 182.917883 138.704923 
L 184.565876 146.916615 
L 186.213868 154.301231 
L 187.861861 158.023077 
L 189.509854 145.144308 
L 191.157846 141.127077 
L 192.805839 138.232308 
L 194.453831 139.709231 
L 197.749817 138.586769 
L 199.397809 138.941231 
L 201.045802 141.304308 
L 202.693795 131.379385 
L 204.341787 139.709231 
L 205.98978 137.287077 
L 207.637772 125.648923 
L 209.285765 140.654462 
L 210.933758 134.983077 
L 212.58175 138.941231 
L 214.229743 141.127077 
L 215.877735 142.426769 
L 217.525728 122.281538 
L 219.173721 141.245231 
L 220.821713 139.650154 
L 222.469706 145.735077 
L 224.117699 142.131385 
L 225.765691 141.186154 
L 227.413684 138.764 
L 229.061676 139.413846 
L 232.357662 141.836 
L 234.005654 143.431077 
L 235.653647 139.945538 
L 237.30164 138.055077 
L 238.949632 139.354769 
L 240.597625 143.135692 
L 242.245617 144.258154 
L 243.89361 136.932615 
L 245.541603 141.836 
L 247.189595 134.924 
L 248.837588 142.544923 
L 250.48558 139.886462 
L 252.133573 140.359077 
L 253.781566 139.591077 
L 255.429558 138.527692 
L 257.077551 131.792923 
L 258.725544 140.772615 
L 260.373536 139.650154 
L 262.021529 131.674769 
L 263.669521 143.549231 
L 265.317514 140.181846 
L 266.965507 143.490154 
L 268.613499 128.957231 
L 270.261492 140.181846 
L 273.557477 139.650154 
L 275.20547 137.287077 
L 276.853462 139.650154 
L 278.501455 142.722154 
L 280.149448 139.768308 
L 281.79744 138.291385 
L 283.445433 140.772615 
L 285.093425 136.046462 
L 286.741418 147.625538 
L 288.389411 138.350462 
L 290.037403 140.831692 
L 291.685396 139.709231 
L 293.333388 139.354769 
L 294.981381 139.591077 
L 296.629374 139.236615 
L 298.277366 139.295692 
L 299.925359 140.359077 
L 301.573352 137.582462 
L 303.221344 127.303077 
L 304.869337 139.945538 
L 306.517329 142.072308 
L 309.813315 139.000308 
L 311.461307 139.295692 
L 313.1093 138.586769 
L 314.757292 142.013231 
L 316.405285 140.713538 
L 318.053278 136.164615 
L 319.70127 138.823077 
L 321.349263 140.654462 
L 322.997256 141.363385 
L 324.645248 141.245231 
L 326.293241 140.359077 
L 327.941233 142.308615 
L 329.589226 135.751077 
L 331.237219 140.595385 
L 332.885211 142.781231 
L 334.533204 140.359077 
L 336.181196 138.291385 
L 337.829189 142.308615 
L 339.477182 142.426769 
L 341.125174 139.413846 
L 342.773167 135.396615 
L 344.42116 136.164615 
L 346.069152 142.663077 
L 347.717145 141.658769 
L 349.365137 143.844615 
L 351.01313 139.709231 
L 352.661123 142.072308 
L 354.309115 139.532 
L 355.957108 138.941231 
L 357.605101 140.418154 
L 359.253093 140.181846 
L 360.901086 140.359077 
L 362.549078 140.831692 
L 364.197071 139.650154 
L 365.845064 141.068 
L 367.493056 139.945538 
L 369.141049 141.186154 
L 370.789041 130.138769 
L 372.437034 135.396615 
L 374.085027 122.872308 
L 375.733019 139.000308 
L 377.381012 140.772615 
L 379.029005 148.570769 
L 380.676997 141.540615 
L 382.32499 144.435385 
L 383.972982 141.599692 
L 385.620975 140.772615 
L 387.268968 139.236615 
L 387.268968 139.236615 
" style="fill:none;stroke:#ff7f0e;stroke-linecap:square;stroke-width:0.5;"/>
   </g>
   <g id="line2d_27">
    <path clip-path="url(#p22e62f5e97)" d="M 64.262415 144.258154 
L 65.910407 143.135692 
L 67.5584 138.527692 
L 69.206393 138.055077 
L 70.854385 126.594154 
L 72.502378 141.836 
L 74.15037 139.945538 
L 75.798363 136.400923 
L 77.446356 136.991692 
L 79.094348 140.181846 
L 80.742341 140.713538 
L 82.390334 146.621231 
L 84.038326 140.772615 
L 85.686319 141.245231 
L 87.334311 140.3 
L 88.982304 140.477231 
L 90.630297 141.658769 
L 92.278289 137.405231 
L 93.926282 139.000308 
L 95.574274 136.814462 
L 97.222267 140.654462 
L 98.87026 134.864923 
L 100.518252 137.582462 
L 102.166245 138.941231 
L 103.814238 141.245231 
L 105.46223 137.523385 
L 107.110223 140.595385 
L 108.758215 135.101231 
L 110.406208 139.945538 
L 112.054201 143.253846 
L 113.702193 140.418154 
L 115.350186 141.836 
L 116.998179 146.621231 
L 118.646171 140.713538 
L 120.294164 140.713538 
L 121.942156 147.152923 
L 123.590149 141.717846 
L 125.238142 141.304308 
L 126.886134 142.426769 
L 128.534127 139.591077 
L 130.182119 140.418154 
L 131.830112 136.164615 
L 133.478105 139.177538 
L 135.126097 141.658769 
L 136.77409 139.709231 
L 138.422083 156.132615 
L 140.070075 137.996 
L 141.718068 139.650154 
L 143.36606 141.776923 
L 145.014053 139.295692 
L 146.662046 143.135692 
L 148.310038 140.477231 
L 149.958031 141.245231 
L 151.606023 144.553538 
L 153.254016 139.591077 
L 154.902009 142.249538 
L 156.550001 142.367692 
L 158.197994 139.709231 
L 159.845987 141.836 
L 161.493979 141.127077 
L 163.141972 142.249538 
L 164.789964 139.295692 
L 166.437957 142.544923 
L 168.08595 140.772615 
L 169.733942 141.717846 
L 171.381935 140.713538 
L 173.029927 141.245231 
L 174.67792 133.092615 
L 176.325913 137.996 
L 177.973905 137.759692 
L 179.621898 138.882154 
L 181.269891 138.055077 
L 182.917883 138.645846 
L 186.213868 142.544923 
L 187.861861 137.936923 
L 189.509854 137.109846 
L 191.157846 142.367692 
L 192.805839 142.485846 
L 194.453831 138.764 
L 196.101824 133.624308 
L 197.749817 139.532 
L 199.397809 137.287077 
L 201.045802 137.996 
L 202.693795 137.877846 
L 204.341787 136.637231 
L 205.98978 143.135692 
L 207.637772 138.409538 
L 209.285765 136.164615 
L 210.933758 141.540615 
L 212.58175 141.127077 
L 214.229743 141.186154 
L 215.877735 139.236615 
L 217.525728 140.240923 
L 219.173721 140.359077 
L 220.821713 143.431077 
L 222.469706 140.772615 
L 224.117699 137.818769 
L 225.765691 137.759692 
L 227.413684 140.122769 
L 229.061676 138.941231 
L 230.709669 139.532 
L 232.357662 141.304308 
L 234.005654 140.240923 
L 235.653647 143.785538 
L 237.30164 138.645846 
L 238.949632 139.945538 
L 240.597625 144.376308 
L 242.245617 137.405231 
L 243.89361 140.536308 
L 245.541603 137.109846 
L 247.189595 138.409538 
L 248.837588 138.645846 
L 250.48558 140.713538 
L 252.133573 138.468615 
L 253.781566 140.477231 
L 255.429558 139.236615 
L 257.077551 143.135692 
L 258.725544 148.039077 
L 260.373536 138.232308 
L 262.021529 138.882154 
L 263.669521 141.127077 
L 265.317514 139.945538 
L 266.965507 143.962769 
L 268.613499 135.928308 
L 270.261492 141.836 
L 271.909484 144.848923 
L 273.557477 141.186154 
L 275.20547 142.663077 
L 276.853462 137.877846 
L 278.501455 143.667385 
L 280.149448 141.540615 
L 281.79744 142.485846 
L 283.445433 141.717846 
L 285.093425 143.372 
L 286.741418 136.814462 
L 288.389411 138.232308 
L 290.037403 148.511692 
L 291.685396 136.046462 
L 293.333388 139.295692 
L 294.981381 141.068 
L 296.629374 127.657538 
L 298.277366 138.350462 
L 299.925359 140.654462 
L 301.573352 145.380615 
L 303.221344 138.468615 
L 304.869337 141.658769 
L 306.517329 141.836 
L 308.165322 141.540615 
L 309.813315 138.941231 
L 311.461307 144.494462 
L 313.1093 141.068 
L 314.757292 141.481538 
L 316.405285 131.143077 
L 318.053278 144.435385 
L 319.70127 143.076615 
L 321.349263 128.543692 
L 322.997256 130.729538 
L 324.645248 140.477231 
L 326.293241 144.908 
L 327.941233 143.726462 
L 329.589226 138.764 
L 331.237219 139.886462 
L 332.885211 139.650154 
L 334.533204 142.781231 
L 336.181196 140.713538 
L 337.829189 140.240923 
L 339.477182 142.604 
L 341.125174 132.324615 
L 342.773167 137.050769 
L 344.42116 137.877846 
L 346.069152 141.481538 
L 347.717145 142.722154 
L 349.365137 136.873538 
L 352.661123 142.781231 
L 352.661123 142.781231 
" style="fill:none;stroke:#2ca02c;stroke-linecap:square;stroke-width:0.5;"/>
   </g>
   <g id="patch_3">
    <path d="M 48.029688 276.812 
L 48.029688 10.7 
" style="fill:none;stroke:#000000;stroke-linecap:square;stroke-linejoin:miter;stroke-width:0.8;"/>
   </g>
   <g id="patch_4">
    <path d="M 405.149688 276.812 
L 405.149688 10.7 
" style="fill:none;stroke:#000000;stroke-linecap:square;stroke-linejoin:miter;stroke-width:0.8;"/>
   </g>
   <g id="patch_5">
    <path d="M 48.029688 276.812 
L 405.149688 276.812 
" style="fill:none;stroke:#000000;stroke-linecap:square;stroke-linejoin:miter;stroke-width:0.8;"/>
   </g>
   <g id="patch_6">
    <path d="M 48.029688 10.7 
L 405.149688 10.7 
" style="fill:none;stroke:#000000;stroke-linecap:square;stroke-linejoin:miter;stroke-width:0.8;"/>
   </g>
  </g>
 </g>
 <defs>
  <clipPath id="p22e62f5e97">
   <rect height="266.112" width="357.12" x="48.029688" y="10.7"/>
  </clipPath>
 </defs>
</svg>
