<?xml version="1.0" encoding="utf-8" standalone="no"?>
<!DOCTYPE svg PUBLIC "-//W3C//DTD SVG 1.1//EN"
  "http://www.w3.org/Graphics/SVG/1.1/DTD/svg11.dtd">
<!-- Created with matplotlib (http://matplotlib.org/) -->
<svg height="300pt" version="1.1" viewBox="0 0 426 300" width="426pt" xmlns="http://www.w3.org/2000/svg" xmlns:xlink="http://www.w3.org/1999/xlink">
 <defs>
  <style type="text/css">
*{stroke-linecap:butt;stroke-linejoin:round;}
  </style>
 </defs>
 <g id="figure_1">
  <g id="patch_1">
   <path d="M 0 300.690125 
L 426.5575 300.690125 
L 426.5575 0 
L 0 0 
z
" style="fill:#ffffff;"/>
  </g>
  <g id="axes_1">
   <g id="patch_2">
    <path d="M 58.7375 276.812 
L 415.8575 276.812 
L 415.8575 10.7 
L 58.7375 10.7 
z
" style="fill:#ffffff;"/>
   </g>
   <g id="matplotlib.axis_1">
    <g id="xtick_1">
     <g id="line2d_1">
      <defs>
       <path d="M 0 0 
L 0 3.5 
" id="mb11cb3311d" style="stroke:#000000;stroke-width:0.8;"/>
      </defs>
      <g>
       <use style="stroke:#000000;stroke-width:0.8;" x="74.970227" xlink:href="#mb11cb3311d" y="276.812"/>
      </g>
     </g>
     <g id="text_1">
      <!-- 0 -->
      <defs>
       <path d="M 31.78125 66.40625 
Q 24.171875 66.40625 20.328125 58.90625 
Q 16.5 51.421875 16.5 36.375 
Q 16.5 21.390625 20.328125 13.890625 
Q 24.171875 6.390625 31.78125 6.390625 
Q 39.453125 6.390625 43.28125 13.890625 
Q 47.125 21.390625 47.125 36.375 
Q 47.125 51.421875 43.28125 58.90625 
Q 39.453125 66.40625 31.78125 66.40625 
z
M 31.78125 74.21875 
Q 44.046875 74.21875 50.515625 64.515625 
Q 56.984375 54.828125 56.984375 36.375 
Q 56.984375 17.96875 50.515625 8.265625 
Q 44.046875 -1.421875 31.78125 -1.421875 
Q 19.53125 -1.421875 13.0625 8.265625 
Q 6.59375 17.96875 6.59375 36.375 
Q 6.59375 54.828125 13.0625 64.515625 
Q 19.53125 74.21875 31.78125 74.21875 
z
" id="DejaVuSans-30"/>
      </defs>
      <g transform="translate(71.788977 291.410437)scale(0.1 -0.1)">
       <use xlink:href="#DejaVuSans-30"/>
      </g>
     </g>
    </g>
    <g id="xtick_2">
     <g id="line2d_2">
      <g>
       <use style="stroke:#000000;stroke-width:0.8;" x="116.170043" xlink:href="#mb11cb3311d" y="276.812"/>
      </g>
     </g>
     <g id="text_2">
      <!-- 25 -->
      <defs>
       <path d="M 19.1875 8.296875 
L 53.609375 8.296875 
L 53.609375 0 
L 7.328125 0 
L 7.328125 8.296875 
Q 12.9375 14.109375 22.625 23.890625 
Q 32.328125 33.6875 34.8125 36.53125 
Q 39.546875 41.84375 41.421875 45.53125 
Q 43.3125 49.21875 43.3125 52.78125 
Q 43.3125 58.59375 39.234375 62.25 
Q 35.15625 65.921875 28.609375 65.921875 
Q 23.96875 65.921875 18.8125 64.3125 
Q 13.671875 62.703125 7.8125 59.421875 
L 7.8125 69.390625 
Q 13.765625 71.78125 18.9375 73 
Q 24.125 74.21875 28.421875 74.21875 
Q 39.75 74.21875 46.484375 68.546875 
Q 53.21875 62.890625 53.21875 53.421875 
Q 53.21875 48.921875 51.53125 44.890625 
Q 49.859375 40.875 45.40625 35.40625 
Q 44.1875 33.984375 37.640625 27.21875 
Q 31.109375 20.453125 19.1875 8.296875 
z
" id="DejaVuSans-32"/>
       <path d="M 10.796875 72.90625 
L 49.515625 72.90625 
L 49.515625 64.59375 
L 19.828125 64.59375 
L 19.828125 46.734375 
Q 21.96875 47.46875 24.109375 47.828125 
Q 26.265625 48.1875 28.421875 48.1875 
Q 40.625 48.1875 47.75 41.5 
Q 54.890625 34.8125 54.890625 23.390625 
Q 54.890625 11.625 47.5625 5.09375 
Q 40.234375 -1.421875 26.90625 -1.421875 
Q 22.3125 -1.421875 17.546875 -0.640625 
Q 12.796875 0.140625 7.71875 1.703125 
L 7.71875 11.625 
Q 12.109375 9.234375 16.796875 8.0625 
Q 21.484375 6.890625 26.703125 6.890625 
Q 35.15625 6.890625 40.078125 11.328125 
Q 45.015625 15.765625 45.015625 23.390625 
Q 45.015625 31 40.078125 35.4375 
Q 35.15625 39.890625 26.703125 39.890625 
Q 22.75 39.890625 18.8125 39.015625 
Q 14.890625 38.140625 10.796875 36.28125 
z
" id="DejaVuSans-35"/>
      </defs>
      <g transform="translate(109.807543 291.410437)scale(0.1 -0.1)">
       <use xlink:href="#DejaVuSans-32"/>
       <use x="63.623047" xlink:href="#DejaVuSans-35"/>
      </g>
     </g>
    </g>
    <g id="xtick_3">
     <g id="line2d_3">
      <g>
       <use style="stroke:#000000;stroke-width:0.8;" x="157.369858" xlink:href="#mb11cb3311d" y="276.812"/>
      </g>
     </g>
     <g id="text_3">
      <!-- 50 -->
      <g transform="translate(151.007358 291.410437)scale(0.1 -0.1)">
       <use xlink:href="#DejaVuSans-35"/>
       <use x="63.623047" xlink:href="#DejaVuSans-30"/>
      </g>
     </g>
    </g>
    <g id="xtick_4">
     <g id="line2d_4">
      <g>
       <use style="stroke:#000000;stroke-width:0.8;" x="198.569674" xlink:href="#mb11cb3311d" y="276.812"/>
      </g>
     </g>
     <g id="text_4">
      <!-- 75 -->
      <defs>
       <path d="M 8.203125 72.90625 
L 55.078125 72.90625 
L 55.078125 68.703125 
L 28.609375 0 
L 18.3125 0 
L 43.21875 64.59375 
L 8.203125 64.59375 
z
" id="DejaVuSans-37"/>
      </defs>
      <g transform="translate(192.207174 291.410437)scale(0.1 -0.1)">
       <use xlink:href="#DejaVuSans-37"/>
       <use x="63.623047" xlink:href="#DejaVuSans-35"/>
      </g>
     </g>
    </g>
    <g id="xtick_5">
     <g id="line2d_5">
      <g>
       <use style="stroke:#000000;stroke-width:0.8;" x="239.769489" xlink:href="#mb11cb3311d" y="276.812"/>
      </g>
     </g>
     <g id="text_5">
      <!-- 100 -->
      <defs>
       <path d="M 12.40625 8.296875 
L 28.515625 8.296875 
L 28.515625 63.921875 
L 10.984375 60.40625 
L 10.984375 69.390625 
L 28.421875 72.90625 
L 38.28125 72.90625 
L 38.28125 8.296875 
L 54.390625 8.296875 
L 54.390625 0 
L 12.40625 0 
z
" id="DejaVuSans-31"/>
      </defs>
      <g transform="translate(230.225739 291.410437)scale(0.1 -0.1)">
       <use xlink:href="#DejaVuSans-31"/>
       <use x="63.623047" xlink:href="#DejaVuSans-30"/>
       <use x="127.246094" xlink:href="#DejaVuSans-30"/>
      </g>
     </g>
    </g>
    <g id="xtick_6">
     <g id="line2d_6">
      <g>
       <use style="stroke:#000000;stroke-width:0.8;" x="280.969304" xlink:href="#mb11cb3311d" y="276.812"/>
      </g>
     </g>
     <g id="text_6">
      <!-- 125 -->
      <g transform="translate(271.425554 291.410437)scale(0.1 -0.1)">
       <use xlink:href="#DejaVuSans-31"/>
       <use x="63.623047" xlink:href="#DejaVuSans-32"/>
       <use x="127.246094" xlink:href="#DejaVuSans-35"/>
      </g>
     </g>
    </g>
    <g id="xtick_7">
     <g id="line2d_7">
      <g>
       <use style="stroke:#000000;stroke-width:0.8;" x="322.16912" xlink:href="#mb11cb3311d" y="276.812"/>
      </g>
     </g>
     <g id="text_7">
      <!-- 150 -->
      <g transform="translate(312.62537 291.410437)scale(0.1 -0.1)">
       <use xlink:href="#DejaVuSans-31"/>
       <use x="63.623047" xlink:href="#DejaVuSans-35"/>
       <use x="127.246094" xlink:href="#DejaVuSans-30"/>
      </g>
     </g>
    </g>
    <g id="xtick_8">
     <g id="line2d_8">
      <g>
       <use style="stroke:#000000;stroke-width:0.8;" x="363.368935" xlink:href="#mb11cb3311d" y="276.812"/>
      </g>
     </g>
     <g id="text_8">
      <!-- 175 -->
      <g transform="translate(353.825185 291.410437)scale(0.1 -0.1)">
       <use xlink:href="#DejaVuSans-31"/>
       <use x="63.623047" xlink:href="#DejaVuSans-37"/>
       <use x="127.246094" xlink:href="#DejaVuSans-35"/>
      </g>
     </g>
    </g>
    <g id="xtick_9">
     <g id="line2d_9">
      <g>
       <use style="stroke:#000000;stroke-width:0.8;" x="404.568751" xlink:href="#mb11cb3311d" y="276.812"/>
      </g>
     </g>
     <g id="text_9">
      <!-- 200 -->
      <g transform="translate(395.025001 291.410437)scale(0.1 -0.1)">
       <use xlink:href="#DejaVuSans-32"/>
       <use x="63.623047" xlink:href="#DejaVuSans-30"/>
       <use x="127.246094" xlink:href="#DejaVuSans-30"/>
      </g>
     </g>
    </g>
   </g>
   <g id="matplotlib.axis_2">
    <g id="ytick_1">
     <g id="line2d_10">
      <defs>
       <path d="M 0 0 
L -3.5 0 
" id="me9957dfddd" style="stroke:#000000;stroke-width:0.8;"/>
      </defs>
      <g>
       <use style="stroke:#000000;stroke-width:0.8;" x="58.7375" xlink:href="#me9957dfddd" y="264.818777"/>
      </g>
     </g>
     <g id="text_10">
      <!-- 0 -->
      <g transform="translate(45.375 268.617996)scale(0.1 -0.1)">
       <use xlink:href="#DejaVuSans-30"/>
      </g>
     </g>
    </g>
    <g id="ytick_2">
     <g id="line2d_11">
      <g>
       <use style="stroke:#000000;stroke-width:0.8;" x="58.7375" xlink:href="#me9957dfddd" y="228.629667"/>
      </g>
     </g>
     <g id="text_11">
      <!-- 250000 -->
      <g transform="translate(13.5625 232.428886)scale(0.1 -0.1)">
       <use xlink:href="#DejaVuSans-32"/>
       <use x="63.623047" xlink:href="#DejaVuSans-35"/>
       <use x="127.246094" xlink:href="#DejaVuSans-30"/>
       <use x="190.869141" xlink:href="#DejaVuSans-30"/>
       <use x="254.492188" xlink:href="#DejaVuSans-30"/>
       <use x="318.115234" xlink:href="#DejaVuSans-30"/>
      </g>
     </g>
    </g>
    <g id="ytick_3">
     <g id="line2d_12">
      <g>
       <use style="stroke:#000000;stroke-width:0.8;" x="58.7375" xlink:href="#me9957dfddd" y="192.440558"/>
      </g>
     </g>
     <g id="text_12">
      <!-- 500000 -->
      <g transform="translate(13.5625 196.239777)scale(0.1 -0.1)">
       <use xlink:href="#DejaVuSans-35"/>
       <use x="63.623047" xlink:href="#DejaVuSans-30"/>
       <use x="127.246094" xlink:href="#DejaVuSans-30"/>
       <use x="190.869141" xlink:href="#DejaVuSans-30"/>
       <use x="254.492188" xlink:href="#DejaVuSans-30"/>
       <use x="318.115234" xlink:href="#DejaVuSans-30"/>
      </g>
     </g>
    </g>
    <g id="ytick_4">
     <g id="line2d_13">
      <g>
       <use style="stroke:#000000;stroke-width:0.8;" x="58.7375" xlink:href="#me9957dfddd" y="156.251448"/>
      </g>
     </g>
     <g id="text_13">
      <!-- 750000 -->
      <g transform="translate(13.5625 160.050667)scale(0.1 -0.1)">
       <use xlink:href="#DejaVuSans-37"/>
       <use x="63.623047" xlink:href="#DejaVuSans-35"/>
       <use x="127.246094" xlink:href="#DejaVuSans-30"/>
       <use x="190.869141" xlink:href="#DejaVuSans-30"/>
       <use x="254.492188" xlink:href="#DejaVuSans-30"/>
       <use x="318.115234" xlink:href="#DejaVuSans-30"/>
      </g>
     </g>
    </g>
    <g id="ytick_5">
     <g id="line2d_14">
      <g>
       <use style="stroke:#000000;stroke-width:0.8;" x="58.7375" xlink:href="#me9957dfddd" y="120.062339"/>
      </g>
     </g>
     <g id="text_14">
      <!-- 1000000 -->
      <g transform="translate(7.2 123.861557)scale(0.1 -0.1)">
       <use xlink:href="#DejaVuSans-31"/>
       <use x="63.623047" xlink:href="#DejaVuSans-30"/>
       <use x="127.246094" xlink:href="#DejaVuSans-30"/>
       <use x="190.869141" xlink:href="#DejaVuSans-30"/>
       <use x="254.492188" xlink:href="#DejaVuSans-30"/>
       <use x="318.115234" xlink:href="#DejaVuSans-30"/>
       <use x="381.738281" xlink:href="#DejaVuSans-30"/>
      </g>
     </g>
    </g>
    <g id="ytick_6">
     <g id="line2d_15">
      <g>
       <use style="stroke:#000000;stroke-width:0.8;" x="58.7375" xlink:href="#me9957dfddd" y="83.873229"/>
      </g>
     </g>
     <g id="text_15">
      <!-- 1250000 -->
      <g transform="translate(7.2 87.672448)scale(0.1 -0.1)">
       <use xlink:href="#DejaVuSans-31"/>
       <use x="63.623047" xlink:href="#DejaVuSans-32"/>
       <use x="127.246094" xlink:href="#DejaVuSans-35"/>
       <use x="190.869141" xlink:href="#DejaVuSans-30"/>
       <use x="254.492188" xlink:href="#DejaVuSans-30"/>
       <use x="318.115234" xlink:href="#DejaVuSans-30"/>
       <use x="381.738281" xlink:href="#DejaVuSans-30"/>
      </g>
     </g>
    </g>
    <g id="ytick_7">
     <g id="line2d_16">
      <g>
       <use style="stroke:#000000;stroke-width:0.8;" x="58.7375" xlink:href="#me9957dfddd" y="47.684119"/>
      </g>
     </g>
     <g id="text_16">
      <!-- 1500000 -->
      <g transform="translate(7.2 51.483338)scale(0.1 -0.1)">
       <use xlink:href="#DejaVuSans-31"/>
       <use x="63.623047" xlink:href="#DejaVuSans-35"/>
       <use x="127.246094" xlink:href="#DejaVuSans-30"/>
       <use x="190.869141" xlink:href="#DejaVuSans-30"/>
       <use x="254.492188" xlink:href="#DejaVuSans-30"/>
       <use x="318.115234" xlink:href="#DejaVuSans-30"/>
       <use x="381.738281" xlink:href="#DejaVuSans-30"/>
      </g>
     </g>
    </g>
    <g id="ytick_8">
     <g id="line2d_17">
      <g>
       <use style="stroke:#000000;stroke-width:0.8;" x="58.7375" xlink:href="#me9957dfddd" y="11.49501"/>
      </g>
     </g>
     <g id="text_17">
      <!-- 1750000 -->
      <g transform="translate(7.2 15.294228)scale(0.1 -0.1)">
       <use xlink:href="#DejaVuSans-31"/>
       <use x="63.623047" xlink:href="#DejaVuSans-37"/>
       <use x="127.246094" xlink:href="#DejaVuSans-35"/>
       <use x="190.869141" xlink:href="#DejaVuSans-30"/>
       <use x="254.492188" xlink:href="#DejaVuSans-30"/>
       <use x="318.115234" xlink:href="#DejaVuSans-30"/>
       <use x="381.738281" xlink:href="#DejaVuSans-30"/>
      </g>
     </g>
    </g>
   </g>
   <g id="line2d_18">
    <path clip-path="url(#p9c007889e9)" d="M 74.970227 260.95378 
L 76.61822 260.667018 
L 78.266213 254.663968 
L 79.914205 255.329848 
L 81.562198 260.308311 
L 83.21019 259.0967 
L 84.858183 263.082713 
L 86.506176 258.810082 
L 88.154168 263.55983 
L 89.802161 261.599828 
L 91.450153 259.396346 
L 93.098146 261.160637 
L 94.746139 226.789813 
L 96.394131 257.149726 
L 98.042124 262.825336 
L 99.690117 255.783804 
L 101.338109 263.309402 
L 102.986102 258.557627 
L 104.634094 264.190389 
L 106.282087 260.187874 
L 107.93008 264.036079 
L 109.578072 258.622188 
L 111.226065 261.707961 
L 112.874057 256.160026 
L 114.52205 258.553139 
L 116.170043 253.917025 
L 117.818035 263.822274 
L 119.466028 261.589985 
L 121.114021 263.913326 
L 122.762013 262.020925 
L 124.410006 199.580814 
L 126.057998 254.64211 
L 127.705991 256.150906 
L 129.353984 258.123937 
L 131.001976 263.813154 
L 132.649969 260.156462 
L 134.297961 262.46938 
L 135.945954 259.973055 
L 137.593947 260.725499 
L 139.241939 252.773015 
L 140.889932 254.684234 
L 142.537925 262.73414 
L 144.185917 262.293935 
L 147.481902 259.983188 
L 149.129895 262.501661 
L 152.42588 257.891023 
L 154.073873 247.962758 
L 155.721865 256.726747 
L 157.369858 174.843241 
L 159.017851 257.91071 
L 160.665843 264.268413 
L 162.313836 245.160708 
L 163.961829 262.176538 
L 165.609821 264.052871 
L 167.257814 263.679254 
L 168.905806 262.142086 
L 170.553799 263.683452 
L 172.201792 263.99381 
L 173.849784 263.389018 
L 175.497777 233.376376 
L 177.145769 255.983857 
L 178.793762 236.140355 
L 180.441755 234.881553 
L 182.089747 247.584655 
L 183.73774 257.515091 
L 185.385733 230.416396 
L 187.033725 261.985604 
L 188.681718 258.804581 
L 190.32971 246.009849 
L 191.977703 246.054 
L 193.625696 264.137698 
L 195.273688 263.186069 
L 196.921681 255.979659 
L 198.569674 257.172597 
L 200.217666 262.574618 
L 203.513651 246.329761 
L 205.161644 247.032264 
L 206.809637 261.346504 
L 208.457629 248.526295 
L 210.105622 263.426799 
L 211.753614 258.761878 
L 213.401607 235.287885 
L 215.0496 257.652031 
L 216.697592 258.036938 
L 218.345585 253.412404 
L 219.993578 261.571311 
L 221.64157 224.808676 
L 223.289563 261.098537 
L 224.937555 261.290049 
L 226.585548 257.238027 
L 228.233541 258.658088 
L 229.881533 257.446766 
L 231.529526 263.445617 
L 233.177518 264.31459 
L 234.825511 258.245677 
L 236.473504 263.39336 
L 238.121496 261.685669 
L 239.769489 257.599339 
L 241.417482 252.60032 
L 243.065474 256.717483 
L 244.713467 249.106189 
L 246.361459 257.450964 
L 248.009452 254.44611 
L 249.657445 247.334226 
L 251.305437 252.2765 
L 252.95343 262.158733 
L 254.601422 255.537573 
L 256.249415 238.573856 
L 257.897408 257.395812 
L 259.5454 249.355315 
L 261.193393 255.446232 
L 262.841386 263.532471 
L 264.489378 245.942393 
L 266.137371 258.73727 
L 267.785363 260.917591 
L 269.433356 250.584008 
L 271.081349 231.408846 
L 272.729341 253.677598 
L 274.377334 263.027127 
L 276.025326 232.153908 
L 277.673319 257.216893 
L 279.321312 257.559386 
L 280.969304 261.693486 
L 282.617297 262.808544 
L 284.26529 256.914931 
L 285.913282 264.331382 
L 287.561275 260.542093 
L 289.209267 260.595508 
L 290.85726 258.631453 
L 292.505253 262.850813 
L 294.153245 255.671618 
L 295.801238 258.831217 
L 297.449231 263.572858 
L 299.097223 251.80995 
L 300.745216 259.103359 
L 302.393208 254.134015 
L 304.041201 261.037015 
L 305.689194 262.006738 
L 307.337186 259.088304 
L 308.985179 263.109204 
L 310.633171 248.130097 
L 312.281164 259.944104 
L 313.929157 250.626566 
L 315.577149 261.01921 
L 317.225142 257.784048 
L 320.521127 259.205412 
L 322.16912 262.308266 
L 323.817112 186.738746 
L 325.465105 250.891181 
L 327.113098 263.577056 
L 328.76109 260.240131 
L 330.409083 263.852673 
L 332.057075 260.991127 
L 333.705068 262.859064 
L 335.353061 244.996409 
L 337.001053 263.521904 
L 338.649046 258.790395 
L 340.297039 257.797077 
L 341.945031 246.485374 
L 343.593024 261.048161 
L 345.241016 262.161917 
L 346.889009 261.891657 
L 348.537002 257.880167 
L 350.184994 261.45927 
L 351.832987 261.692472 
L 353.480979 261.5454 
L 355.128972 260.174122 
L 356.776965 260.052092 
L 358.424957 262.114872 
L 358.424957 262.114872 
" style="fill:none;stroke:#1f77b4;stroke-linecap:square;stroke-width:0.5;"/>
   </g>
   <g id="line2d_19">
    <path clip-path="url(#p9c007889e9)" d="M 74.970227 255.164825 
L 76.61822 263.746711 
L 78.266213 136.241476 
L 79.914205 234.671512 
L 81.562198 242.216217 
L 83.21019 258.430675 
L 84.858183 262.878896 
L 86.506176 256.875557 
L 88.154168 258.275352 
L 89.802161 254.126343 
L 91.450153 133.607633 
L 93.098146 255.340125 
L 94.746139 241.475788 
L 96.394131 252.549221 
L 98.042124 255.293224 
L 99.690117 262.05335 
L 101.338109 247.211183 
L 102.986102 246.88027 
L 104.634094 226.089481 
L 106.282087 263.390321 
L 107.93008 252.518243 
L 109.578072 263.668542 
L 111.226065 152.219258 
L 112.874057 249.947659 
L 114.52205 252.163011 
L 116.170043 262.221557 
L 117.818035 259.42023 
L 119.466028 261.344912 
L 121.114021 262.541035 
L 122.762013 248.964328 
L 124.410006 255.726191 
L 126.057998 254.176284 
L 127.705991 245.099042 
L 129.353984 241.893266 
L 131.001976 262.705333 
L 132.649969 259.868831 
L 134.297961 243.412919 
L 135.945954 213.722794 
L 137.593947 247.550492 
L 139.241939 263.858897 
L 140.889932 230.618187 
L 142.537925 210.085065 
L 144.185917 256.515982 
L 145.83391 254.188588 
L 147.481902 224.016569 
L 149.129895 249.91147 
L 150.777888 207.430666 
L 152.42588 264.130605 
L 154.073873 244.099499 
L 157.369858 264.066912 
L 159.017851 259.785306 
L 160.665843 127.496595 
L 162.313836 231.853683 
L 163.961829 255.234309 
L 165.609821 199.895514 
L 167.257814 249.936802 
L 168.905806 241.687132 
L 170.553799 245.501465 
L 172.201792 197.195807 
L 173.849784 261.701158 
L 175.497777 256.917826 
L 177.145769 262.942589 
L 178.793762 257.241791 
L 180.441755 262.712716 
L 182.089747 254.695959 
L 183.73774 251.865247 
L 185.385733 258.063284 
L 187.033725 261.310605 
L 188.681718 238.374526 
L 190.32971 249.915812 
L 191.977703 262.722993 
L 193.625696 240.120434 
L 195.273688 259.846249 
L 196.921681 251.738296 
L 198.569674 230.419726 
L 200.217666 261.60171 
L 201.865659 226.747978 
L 203.513651 231.936628 
L 205.161644 238.894346 
L 206.809637 262.360523 
L 208.457629 261.329423 
L 210.105622 257.841082 
L 211.753614 258.042728 
L 213.401607 256.965451 
L 215.0496 255.703319 
L 216.697592 232.742777 
L 218.345585 252.282146 
L 221.64157 260.95711 
L 223.289563 261.162374 
L 224.937555 259.034599 
L 226.585548 249.484438 
L 228.233541 251.5339 
L 229.881533 263.98223 
L 231.529526 257.646819 
L 233.177518 244.615845 
L 234.825511 258.9835 
L 236.473504 261.083482 
L 238.121496 258.993633 
L 239.769489 248.719979 
L 241.417482 264.671849 
L 243.065474 243.663347 
L 244.713467 228.630681 
L 246.361459 249.097504 
L 248.009452 167.07619 
L 249.657445 219.765796 
L 251.305437 262.380644 
L 252.95343 241.810899 
L 254.601422 258.789671 
L 256.249415 261.950718 
L 257.897408 258.990883 
L 259.5454 256.38932 
L 261.193393 241.845351 
L 262.841386 261.142398 
L 264.489378 251.565746 
L 266.137371 230.707646 
L 267.785363 261.532661 
L 269.433356 261.602579 
L 271.081349 258.791264 
L 272.729341 228.315691 
L 274.377334 237.490788 
L 276.025326 263.084161 
L 277.673319 255.537284 
L 279.321312 258.643033 
L 280.969304 261.493287 
L 282.617297 261.699565 
L 284.26529 261.040345 
L 285.913282 253.577426 
L 287.561275 263.674477 
L 289.209267 254.717383 
L 290.85726 254.761824 
L 292.505253 262.808689 
L 294.153245 258.832085 
L 295.801238 256.088806 
L 297.449231 262.012384 
L 299.097223 254.871549 
L 300.745216 264.687338 
L 304.041201 256.440564 
L 305.689194 263.333142 
L 307.337186 259.955974 
L 308.985179 263.5869 
L 310.633171 262.390488 
L 312.281164 262.340981 
L 313.929157 260.973033 
L 315.577149 236.306391 
L 317.225142 262.904518 
L 318.873135 250.058976 
L 320.521127 253.486519 
L 322.16912 252.521862 
L 323.817112 260.639224 
L 325.465105 263.840513 
L 327.113098 236.879771 
L 328.76109 172.577514 
L 330.409083 253.557595 
L 332.057075 260.118825 
L 333.705068 264.233382 
L 335.353061 183.585517 
L 337.001053 241.039637 
L 338.649046 259.6999 
L 340.297039 256.468357 
L 341.945031 252.151865 
L 343.593024 262.50803 
L 345.241016 263.781597 
L 346.889009 225.504086 
L 348.537002 218.181727 
L 350.184994 255.51007 
L 350.184994 255.51007 
" style="fill:none;stroke:#ff7f0e;stroke-linecap:square;stroke-width:0.5;"/>
   </g>
   <g id="line2d_20">
    <path clip-path="url(#p9c007889e9)" d="M 74.970227 98.482049 
L 76.61822 245.59049 
L 78.266213 264.104838 
L 79.914205 124.407927 
L 81.562198 249.036996 
L 83.21019 254.140095 
L 84.858183 260.998076 
L 86.506176 264.231645 
L 88.154168 262.447811 
L 89.802161 260.964637 
L 91.450153 264.156951 
L 93.098146 261.012117 
L 94.746139 238.801268 
L 96.394131 257.440831 
L 98.042124 252.804716 
L 99.690117 256.195057 
L 101.338109 246.488848 
L 102.986102 219.994801 
L 104.634094 206.528833 
L 106.282087 239.486111 
L 107.93008 210.739798 
L 109.578072 253.858109 
L 111.226065 259.306886 
L 112.874057 255.172642 
L 114.52205 103.361209 
L 116.170043 263.456185 
L 117.818035 262.405687 
L 119.466028 259.10524 
L 121.114021 260.75749 
L 122.762013 244.212409 
L 124.410006 253.077727 
L 126.057998 245.716138 
L 127.705991 233.114222 
L 129.353984 256.376582 
L 131.001976 252.580778 
L 132.649969 231.117162 
L 134.297961 224.657261 
L 135.945954 206.043031 
L 137.593947 232.51797 
L 139.241939 251.817333 
L 140.889932 256.853844 
L 142.537925 222.963321 
L 144.185917 219.31763 
L 145.83391 260.333065 
L 147.481902 251.268127 
L 149.129895 170.096822 
L 150.777888 252.873476 
L 152.42588 262.1279 
L 154.073873 255.314214 
L 155.721865 236.300311 
L 157.369858 239.792994 
L 159.017851 225.268278 
L 160.665843 111.481756 
L 162.313836 258.300829 
L 163.961829 156.723499 
L 165.609821 254.127356 
L 167.257814 184.664821 
L 168.905806 239.476412 
L 170.553799 259.64909 
L 172.201792 258.39796 
L 173.849784 262.616742 
L 175.497777 263.873228 
L 177.145769 262.9271 
L 178.793762 255.458247 
L 180.441755 238.592819 
L 182.089747 223.575207 
L 183.73774 262.759327 
L 185.385733 249.950699 
L 187.033725 257.512196 
L 188.681718 239.748554 
L 190.32971 203.678145 
L 191.977703 258.246835 
L 193.625696 129.300694 
L 195.273688 262.965026 
L 196.921681 263.895521 
L 198.569674 260.757056 
L 200.217666 183.713047 
L 201.865659 242.608652 
L 203.513651 253.880402 
L 205.161644 212.248016 
L 206.809637 261.294826 
L 208.457629 261.771509 
L 210.105622 242.045549 
L 211.753614 262.437534 
L 213.401607 264.16332 
L 215.0496 251.222818 
L 216.697592 252.128414 
L 218.345585 241.099566 
L 219.993578 250.192007 
L 221.64157 242.681175 
L 223.289563 263.845869 
L 224.937555 253.787468 
L 226.585548 239.903444 
L 228.233541 247.033712 
L 229.881533 221.889518 
L 231.529526 205.435922 
L 233.177518 251.751758 
L 234.825511 249.915088 
L 236.473504 254.935676 
L 238.121496 259.527495 
L 239.769489 228.493452 
L 241.417482 236.138618 
L 243.065474 244.76451 
L 244.713467 250.752649 
L 246.361459 199.275088 
L 248.009452 255.959104 
L 249.657445 247.776167 
L 251.305437 261.378351 
L 252.95343 260.611865 
L 254.601422 252.780542 
L 256.249415 257.745543 
L 257.897408 252.166341 
L 259.5454 260.152409 
L 261.193393 251.498 
L 262.841386 152.647881 
L 264.489378 261.673943 
L 266.137371 262.644391 
L 267.785363 249.466633 
L 269.433356 214.559631 
L 271.081349 250.277269 
L 272.729341 258.492776 
L 274.377334 260.900365 
L 276.025326 261.471719 
L 277.673319 243.847188 
L 279.321312 244.033924 
L 280.969304 251.091669 
L 282.617297 255.682909 
L 284.26529 261.480115 
L 285.913282 228.256485 
L 287.561275 262.544509 
L 289.209267 238.261616 
L 290.85726 259.357551 
L 292.505253 259.362617 
L 294.153245 211.69273 
L 295.801238 237.309987 
L 297.449231 237.817938 
L 299.097223 241.806701 
L 300.745216 255.157732 
L 302.393208 253.306298 
L 304.041201 247.539201 
L 305.689194 206.572405 
L 307.337186 261.707527 
L 308.985179 257.254964 
L 310.633171 253.202218 
L 312.281164 258.926466 
L 313.929157 251.874512 
L 315.577149 259.930207 
L 317.225142 260.298178 
L 318.873135 244.958917 
L 320.521127 245.967001 
L 322.16912 227.52836 
L 323.817112 234.84189 
L 325.465105 170.486362 
L 327.113098 258.934717 
L 328.76109 262.863552 
L 330.409083 250.657689 
L 332.057075 248.401949 
L 333.705068 262.330559 
L 335.353061 249.092293 
L 337.001053 217.204042 
L 338.649046 262.146718 
L 340.297039 261.726924 
L 341.945031 263.020034 
L 343.593024 224.401332 
L 345.241016 258.25277 
L 346.889009 225.792007 
L 348.537002 261.097234 
L 350.184994 260.077859 
L 351.832987 257.649714 
L 353.480979 195.958429 
L 355.128972 246.910234 
L 356.776965 258.735822 
L 358.424957 250.245278 
L 360.07295 256.364133 
L 361.720943 257.407971 
L 363.368935 248.385592 
L 365.016928 261.837373 
L 366.66492 249.694335 
L 368.312913 264.055476 
L 369.960906 258.977276 
L 371.608898 263.560844 
L 373.256891 242.26804 
L 374.904883 241.071773 
L 376.552876 250.414498 
L 378.200869 250.93345 
L 379.848861 242.853869 
L 381.496854 248.785699 
L 383.144847 189.794555 
L 384.792839 260.144736 
L 388.088824 258.338176 
L 389.736817 249.577082 
L 391.38481 221.710454 
L 393.032802 237.139464 
L 394.680795 180.658107 
L 396.328787 261.62849 
L 397.97678 263.00136 
L 397.97678 263.00136 
" style="fill:none;stroke:#2ca02c;stroke-linecap:square;stroke-width:0.5;"/>
   </g>
   <g id="line2d_21">
    <path clip-path="url(#p9c007889e9)" d="M 74.970227 261.712159 
L 76.61822 230.03395 
L 78.266213 254.034857 
L 79.914205 259.523008 
L 81.562198 254.78151 
L 83.21019 262.167708 
L 84.858183 262.114003 
L 86.506176 249.852843 
L 88.154168 251.203855 
L 89.802161 264.165636 
L 91.450153 256.762792 
L 93.098146 245.254655 
L 94.746139 199.002222 
L 96.394131 262.438547 
L 98.042124 260.220589 
L 99.690117 259.503321 
L 101.338109 234.970868 
L 102.986102 260.011271 
L 104.634094 253.067884 
L 106.282087 259.879253 
L 107.93008 256.066513 
L 109.578072 262.205055 
L 111.226065 239.011889 
L 112.874057 257.767546 
L 114.52205 225.119324 
L 116.170043 264.369308 
L 117.818035 261.72345 
L 119.466028 260.785428 
L 121.114021 254.86489 
L 122.762013 221.414862 
L 124.410006 248.375604 
L 126.057998 259.692517 
L 127.705991 263.857594 
L 129.353984 261.308433 
L 131.001976 260.522261 
L 132.649969 262.988766 
L 134.297961 257.801998 
L 135.945954 263.599928 
L 137.593947 247.083652 
L 139.241939 252.908362 
L 140.889932 253.628091 
L 142.537925 258.116699 
L 144.185917 253.038064 
L 145.83391 259.069341 
L 147.481902 231.561275 
L 149.129895 256.329101 
L 150.777888 253.81917 
L 152.42588 262.568538 
L 154.073873 251.345572 
L 155.721865 260.762702 
L 157.369858 262.021214 
L 159.017851 241.422228 
L 160.665843 256.835894 
L 162.313836 241.386908 
L 163.961829 258.726702 
L 165.609821 264.138856 
L 167.257814 261.469258 
L 168.905806 221.976372 
L 170.553799 257.312432 
L 172.201792 260.200178 
L 173.849784 264.161149 
L 175.497777 258.267824 
L 177.145769 263.82126 
L 178.793762 261.28397 
L 180.441755 263.895231 
L 182.089747 262.675658 
L 183.73774 262.649747 
L 185.385733 261.607066 
L 187.033725 264.055621 
L 188.681718 263.738894 
L 190.32971 262.450706 
L 191.977703 257.291008 
L 193.625696 262.93897 
L 195.273688 261.803211 
L 196.921681 260.181649 
L 198.569674 251.219054 
L 200.217666 257.672007 
L 201.865659 261.8601 
L 203.513651 260.053685 
L 205.161644 260.163989 
L 206.809637 258.516371 
L 208.457629 261.42337 
L 210.105622 233.781694 
L 211.753614 260.621709 
L 213.401607 260.812643 
L 215.0496 263.420575 
L 216.697592 258.780407 
L 218.345585 259.531693 
L 219.993578 214.042272 
L 221.64157 260.507641 
L 223.289563 256.261066 
L 224.937555 258.198197 
L 226.585548 258.755075 
L 228.233541 262.396712 
L 229.881533 259.579173 
L 231.529526 260.231156 
L 233.177518 260.157765 
L 234.825511 254.889209 
L 236.473504 260.357528 
L 238.121496 263.678386 
L 239.769489 263.590374 
L 241.417482 261.196826 
L 243.065474 263.199821 
L 244.713467 262.170313 
L 246.361459 264.559084 
L 248.009452 246.304573 
L 249.657445 262.10112 
L 251.305437 257.020603 
L 252.95343 264.634647 
L 254.601422 262.984858 
L 256.249415 262.653221 
L 257.897408 239.417641 
L 259.5454 263.186214 
L 261.193393 243.68868 
L 262.841386 260.295283 
L 264.489378 259.271131 
L 266.137371 258.550389 
L 267.785363 259.905165 
L 269.433356 261.107077 
L 271.081349 252.595543 
L 274.377334 263.682439 
L 276.025326 261.035133 
L 277.673319 264.43358 
L 279.321312 253.867663 
L 280.969304 259.344378 
L 282.617297 261.024132 
L 284.26529 253.440197 
L 285.913282 259.847551 
L 287.561275 255.424663 
L 289.209267 256.675069 
L 290.85726 246.204257 
L 292.505253 252.471053 
L 294.153245 240.616948 
L 295.801238 263.573148 
L 297.449231 264.025078 
L 299.097223 263.573293 
L 302.393208 249.729945 
L 304.041201 252.544589 
L 305.689194 261.394853 
L 307.337186 261.356782 
L 308.985179 263.185924 
L 310.633171 263.34038 
L 312.281164 262.991951 
L 313.929157 253.409219 
L 315.577149 264.277967 
L 317.225142 261.741979 
L 318.873135 253.040669 
L 320.521127 261.339411 
L 322.16912 262.20766 
L 323.817112 264.544464 
L 325.465105 260.072358 
L 327.113098 261.773536 
L 328.76109 257.161596 
L 330.409083 257.355569 
L 332.057075 244.918241 
L 333.705068 264.42504 
L 335.353061 253.822644 
L 337.001053 260.625038 
L 338.649046 191.731541 
L 340.297039 258.625373 
L 341.945031 261.439293 
L 343.593024 254.019947 
L 345.241016 263.526536 
L 346.889009 251.238018 
L 348.537002 248.354325 
L 350.184994 261.901501 
L 351.832987 264.063004 
L 353.480979 261.440886 
L 355.128972 262.403371 
L 356.776965 260.826105 
L 358.424957 263.341972 
L 360.07295 264.023775 
L 361.720943 263.455316 
L 363.368935 254.81162 
L 365.016928 258.075443 
L 366.66492 239.791981 
L 368.312913 241.736639 
L 369.960906 259.605519 
L 371.608898 234.791804 
L 373.256891 236.529316 
L 374.904883 197.310888 
L 376.552876 254.892539 
L 378.200869 252.212228 
L 379.848861 213.927625 
L 381.496854 235.195964 
L 383.144847 231.802873 
L 384.792839 260.876914 
L 386.440832 262.803188 
L 388.088824 251.27826 
L 389.736817 235.464343 
L 391.38481 243.251515 
L 393.032802 248.155863 
L 394.680795 214.616665 
L 396.328787 254.293681 
L 396.328787 254.293681 
" style="fill:none;stroke:#d62728;stroke-linecap:square;stroke-width:0.5;"/>
   </g>
   <g id="line2d_22">
    <path clip-path="url(#p9c007889e9)" d="M 74.970227 254.231436 
L 76.61822 256.107624 
L 78.266213 263.183029 
L 79.914205 259.84813 
L 81.562198 261.115184 
L 83.21019 250.998735 
L 84.858183 251.310685 
L 86.506176 263.453434 
L 88.154168 262.498042 
L 89.802161 245.508702 
L 91.450153 262.270629 
L 93.098146 259.637799 
L 94.746139 236.955624 
L 96.394131 248.362431 
L 98.042124 262.054363 
L 99.690117 262.616018 
L 101.338109 257.817777 
L 102.986102 251.324582 
L 104.634094 228.905573 
L 106.282087 260.625328 
L 107.93008 249.888743 
L 111.226065 236.873981 
L 112.874057 261.739229 
L 114.52205 263.50627 
L 116.170043 261.26573 
L 117.818035 257.683153 
L 119.466028 220.262311 
L 121.114021 261.716502 
L 122.762013 254.711883 
L 124.410006 252.738418 
L 126.057998 261.640215 
L 127.705991 262.937233 
L 129.353984 262.780172 
L 131.001976 262.227347 
L 132.649969 255.082604 
L 134.297961 261.242135 
L 135.945954 259.222493 
L 137.593947 260.258515 
L 139.241939 253.506206 
L 140.889932 257.201693 
L 142.537925 261.193642 
L 144.185917 246.495797 
L 145.83391 260.874454 
L 147.481902 264.095863 
L 149.129895 262.517294 
L 150.777888 254.763995 
L 152.42588 256.067816 
L 154.073873 189.397054 
L 155.721865 252.409676 
L 157.369858 245.605544 
L 159.017851 263.500046 
L 160.665843 257.767836 
L 162.313836 261.313934 
L 163.961829 246.681809 
L 165.609821 257.543608 
L 167.257814 260.406601 
L 168.905806 252.532719 
L 170.553799 261.228673 
L 172.201792 246.932092 
L 173.849784 247.777904 
L 175.497777 264.126118 
L 177.145769 258.652732 
L 178.793762 250.772915 
L 180.441755 258.456008 
L 182.089747 261.36098 
L 183.73774 256.55608 
L 185.385733 245.514927 
L 187.033725 250.23196 
L 188.681718 264.128434 
L 190.32971 260.82321 
L 191.977703 257.220222 
L 193.625696 244.91303 
L 195.273688 259.035178 
L 196.921681 256.785229 
L 198.569674 262.470683 
L 200.217666 263.392347 
L 201.865659 256.656251 
L 203.513651 261.805527 
L 205.161644 251.245111 
L 206.809637 257.523632 
L 208.457629 254.207262 
L 210.105622 258.125674 
L 211.753614 232.99668 
L 213.401607 260.452199 
L 215.0496 262.423492 
L 216.697592 261.547426 
L 218.345585 243.034381 
L 219.993578 254.559309 
L 221.64157 250.634238 
L 224.937555 254.500828 
L 226.585548 263.455316 
L 228.233541 233.355241 
L 229.881533 247.079599 
L 231.529526 236.850675 
L 233.177518 245.15043 
L 234.825511 232.979743 
L 236.473504 256.39236 
L 238.121496 243.007745 
L 239.769489 259.394319 
L 241.417482 213.685736 
L 243.065474 191.780179 
L 244.713467 246.209758 
L 246.361459 261.826372 
L 248.009452 233.603064 
L 249.657445 259.267802 
L 251.305437 257.522039 
L 252.95343 261.817542 
L 254.601422 262.370367 
L 256.249415 254.093628 
L 257.897408 253.722038 
L 259.5454 263.841961 
L 261.193393 261.698407 
L 262.841386 252.243351 
L 264.489378 248.732718 
L 267.785363 262.774671 
L 269.433356 246.685862 
L 271.081349 257.690101 
L 272.729341 260.979692 
L 274.377334 262.985871 
L 276.025326 244.748442 
L 277.673319 263.26279 
L 279.321312 261.86922 
L 280.969304 250.407839 
L 282.617297 258.744797 
L 284.26529 252.795307 
L 285.913282 260.742581 
L 287.561275 261.577825 
L 290.85726 254.255031 
L 292.505253 252.639839 
L 294.153245 257.232092 
L 295.801238 250.76394 
L 297.449231 263.352684 
L 299.097223 263.103703 
L 300.745216 261.728227 
L 302.393208 217.559564 
L 304.041201 250.898274 
L 305.689194 240.783852 
L 307.337186 260.904852 
L 308.985179 240.84465 
L 310.633171 247.023434 
L 312.281164 256.091556 
L 313.929157 262.515268 
L 315.577149 213.867695 
L 317.225142 262.348364 
L 318.873135 261.411934 
L 320.521127 246.506653 
L 322.16912 262.415965 
L 323.817112 261.951297 
L 325.465105 254.261545 
L 327.113098 225.6445 
L 328.76109 173.635538 
L 330.409083 258.911991 
L 332.057075 216.423081 
L 333.705068 259.237548 
L 335.353061 253.482611 
L 337.001053 231.780291 
L 338.649046 263.614693 
L 340.297039 261.047872 
L 341.945031 263.100808 
L 343.593024 251.92894 
L 345.241016 262.055521 
L 346.889009 260.274728 
L 348.537002 260.781086 
L 350.184994 261.870812 
L 351.832987 255.869355 
L 353.480979 262.579974 
L 356.776965 262.450706 
L 358.424957 241.454509 
L 360.07295 262.692015 
L 361.720943 261.27456 
L 363.368935 264.287231 
L 365.016928 258.789092 
L 366.66492 238.175776 
L 368.312913 248.1369 
L 371.608898 209.635741 
L 373.256891 199.369759 
L 374.904883 245.072262 
L 376.552876 256.54088 
L 378.200869 162.494938 
L 381.496854 251.762615 
L 383.144847 231.567644 
L 384.792839 240.64561 
L 386.440832 222.113456 
L 388.088824 262.897714 
L 389.736817 259.953803 
L 391.38481 261.383417 
L 393.032802 262.30624 
L 394.680795 258.569063 
L 396.328787 222.453923 
L 397.97678 250.299127 
L 397.97678 250.299127 
" style="fill:none;stroke:#9467bd;stroke-linecap:square;stroke-width:0.5;"/>
   </g>
   <g id="line2d_23">
    <path clip-path="url(#p9c007889e9)" d="M 74.970227 246.836264 
L 76.61822 200.410413 
L 78.266213 125.438448 
L 79.914205 22.796 
L 81.562198 257.894932 
L 83.21019 258.732637 
L 84.858183 248.399054 
L 86.506176 256.511205 
L 88.154168 257.677363 
L 89.802161 255.558708 
L 91.450153 254.878787 
L 93.098146 172.293936 
L 94.746139 199.498592 
L 96.394131 257.162899 
L 98.042124 257.798524 
L 99.690117 254.476074 
L 101.338109 244.545927 
L 102.986102 220.441809 
L 104.634094 211.482688 
L 106.282087 256.385122 
L 107.93008 236.984285 
L 109.578072 262.176538 
L 111.226065 256.890177 
L 112.874057 262.396712 
L 114.52205 260.440763 
L 116.170043 252.440944 
L 117.818035 238.908677 
L 119.466028 254.117078 
L 121.114021 258.852496 
L 122.762013 236.600825 
L 124.410006 261.746032 
L 126.057998 204.059578 
L 127.705991 212.428527 
L 129.353984 254.274284 
L 131.001976 260.388072 
L 132.649969 225.292308 
L 134.297961 262.078248 
L 135.945954 206.996252 
L 137.593947 243.59343 
L 139.241939 255.579263 
L 140.889932 263.067224 
L 142.537925 257.508432 
L 144.185917 241.751983 
L 145.83391 258.623636 
L 147.481902 263.815904 
L 149.129895 237.586038 
L 150.777888 222.543383 
L 152.42588 249.144695 
L 154.073873 236.322025 
L 155.721865 77.49859 
L 157.369858 257.254529 
L 159.017851 132.475493 
L 160.665843 220.761721 
L 162.313836 240.275468 
L 163.961829 262.185368 
L 165.609821 250.65103 
L 167.257814 261.179021 
L 168.905806 182.098724 
L 170.553799 239.830486 
L 172.201792 259.030836 
L 173.849784 241.464208 
L 175.497777 263.799837 
L 177.145769 71.289696 
L 178.793762 240.827713 
L 180.441755 237.536965 
L 182.089747 262.40424 
L 183.73774 183.196122 
L 185.385733 163.266924 
L 187.033725 243.873534 
L 188.681718 217.685646 
L 190.32971 246.838001 
L 191.977703 247.317289 
L 193.625696 231.001357 
L 195.273688 256.749908 
L 196.921681 175.903872 
L 198.569674 226.930516 
L 200.217666 224.841826 
L 201.865659 255.899464 
L 203.513651 262.696213 
L 205.161644 221.592044 
L 206.809637 242.195228 
L 208.457629 228.75025 
L 210.105622 204.746158 
L 211.753614 245.623494 
L 213.401607 231.375697 
L 215.0496 254.655862 
L 216.697592 263.278279 
L 218.345585 263.9582 
L 219.993578 259.621008 
L 221.64157 252.117847 
L 223.289563 261.950718 
L 224.937555 255.026873 
L 226.585548 260.263147 
L 228.233541 224.875409 
L 229.881533 240.096404 
L 231.529526 263.834578 
L 233.177518 237.823438 
L 234.825511 260.984469 
L 236.473504 261.032528 
L 238.121496 254.707829 
L 239.769489 216.279917 
L 241.417482 255.115029 
L 243.065474 263.574451 
L 244.713467 261.444794 
L 246.361459 262.026715 
L 248.009452 260.303534 
L 249.657445 253.59914 
L 251.305437 248.985463 
L 252.95343 261.642821 
L 254.601422 258.52882 
L 256.249415 263.507863 
L 257.897408 254.437569 
L 259.5454 262.229808 
L 261.193393 237.989908 
L 262.841386 255.48604 
L 264.489378 258.298368 
L 266.137371 258.422859 
L 267.785363 240.340029 
L 269.433356 261.023553 
L 271.081349 257.8185 
L 272.729341 263.2984 
L 276.025326 244.7137 
L 277.673319 111.554279 
L 279.321312 193.60715 
L 280.969304 260.807721 
L 282.617297 94.653675 
L 284.26529 195.363335 
L 285.913282 138.413547 
L 287.561275 258.595553 
L 289.209267 263.074607 
L 290.85726 254.846796 
L 292.505253 260.029366 
L 294.153245 261.981117 
L 295.801238 242.431904 
L 297.449231 262.803333 
L 299.097223 252.160116 
L 300.745216 261.144424 
L 302.393208 248.958972 
L 304.041201 243.555359 
L 305.689194 148.76175 
L 307.337186 244.656666 
L 308.985179 262.566946 
L 310.633171 230.494999 
L 312.281164 258.812398 
L 313.929157 256.879321 
L 315.577149 249.282648 
L 317.225142 216.390655 
L 318.873135 257.719487 
L 320.521127 250.219511 
L 322.16912 198.793194 
L 323.817112 249.409599 
L 325.465105 252.244364 
L 327.113098 261.359822 
L 328.76109 260.63025 
L 330.409083 263.006426 
L 332.057075 236.486902 
L 333.705068 205.806644 
L 335.353061 237.214593 
L 337.001053 263.418403 
L 338.649046 259.028954 
L 340.297039 154.318805 
L 341.945031 239.141011 
L 343.593024 261.167296 
L 345.241016 250.900446 
L 346.889009 258.334412 
L 348.537002 243.923475 
L 350.184994 257.414485 
L 351.832987 260.158633 
L 353.480979 242.872977 
L 355.128972 254.142266 
L 356.776965 240.319329 
L 358.424957 260.654134 
L 360.07295 261.916555 
L 361.720943 259.611598 
L 363.368935 249.589965 
L 365.016928 261.984012 
L 366.66492 263.403783 
L 368.312913 260.456397 
L 369.960906 258.089485 
L 371.608898 261.644992 
L 373.256891 221.938446 
L 374.904883 259.458301 
L 376.552876 263.607455 
L 378.200869 264.366847 
L 379.848861 255.226057 
L 381.496854 239.250013 
L 383.144847 248.518334 
L 384.792839 262.528875 
L 386.440832 251.59904 
L 388.088824 255.902794 
L 389.736817 262.685791 
L 391.38481 264.412301 
L 393.032802 263.894073 
L 394.680795 66.279966 
L 396.328787 256.159447 
L 397.97678 263.902758 
L 397.97678 263.902758 
" style="fill:none;stroke:#8c564b;stroke-linecap:square;stroke-width:0.5;"/>
   </g>
   <g id="line2d_24">
    <path clip-path="url(#p9c007889e9)" d="M 74.970227 219.113669 
L 76.61822 253.152132 
L 78.266213 197.209993 
L 79.914205 246.596547 
L 81.562198 246.403587 
L 83.21019 250.054923 
L 84.858183 239.785757 
L 86.506176 264.327908 
L 88.154168 174.721356 
L 89.802161 245.575435 
L 91.450153 259.643445 
L 93.098146 227.50462 
L 94.746139 219.633634 
L 96.394131 254.545413 
L 98.042124 234.436717 
L 99.690117 261.41454 
L 101.338109 185.111539 
L 102.986102 245.710203 
L 104.634094 256.61514 
L 106.282087 253.07874 
L 107.93008 254.09826 
L 109.578072 246.374925 
L 111.226065 192.875985 
L 112.874057 251.480195 
L 114.52205 234.394303 
L 116.170043 224.637864 
L 117.818035 198.895971 
L 119.466028 262.812019 
L 121.114021 251.541427 
L 122.762013 152.891941 
L 124.410006 188.191233 
L 126.057998 201.634618 
L 127.705991 76.944607 
L 129.353984 249.894099 
L 131.001976 262.309279 
L 132.649969 225.073436 
L 134.297961 256.817799 
L 135.945954 203.338546 
L 137.593947 254.683366 
L 139.241939 217.74876 
L 140.889932 251.734677 
L 142.537925 263.198373 
L 144.185917 232.351934 
L 145.83391 263.787243 
L 147.481902 236.20897 
L 149.129895 255.194066 
L 150.777888 262.203028 
L 152.42588 102.648428 
L 154.073873 255.490962 
L 155.721865 262.660603 
L 157.369858 244.433452 
L 159.017851 262.933614 
L 160.665843 259.853052 
L 162.313836 262.311596 
L 163.961829 186.233112 
L 165.609821 260.68931 
L 167.257814 253.942936 
L 168.905806 229.82854 
L 170.553799 261.810159 
L 172.201792 257.433593 
L 173.849784 210.638324 
L 175.497777 262.93014 
L 177.145769 185.199696 
L 178.793762 260.635606 
L 180.441755 262.105897 
L 182.089747 260.21697 
L 183.73774 230.612107 
L 185.385733 248.438138 
L 187.033725 165.660182 
L 188.681718 264.481495 
L 190.32971 223.01442 
L 191.977703 263.638723 
L 193.625696 261.656573 
L 195.273688 260.186571 
L 196.921681 261.987631 
L 198.569674 235.879794 
L 200.217666 260.684244 
L 201.865659 244.054479 
L 203.513651 223.524397 
L 205.161644 246.801233 
L 206.809637 251.071403 
L 208.457629 252.608716 
L 210.105622 242.692321 
L 211.753614 260.562214 
L 213.401607 258.355257 
L 215.0496 259.956698 
L 216.697592 263.92563 
L 218.345585 245.930812 
L 219.993578 259.395043 
L 221.64157 160.983247 
L 223.289563 248.188144 
L 224.937555 253.210614 
L 226.585548 250.620197 
L 228.233541 258.815149 
L 229.881533 217.121531 
L 231.529526 255.384131 
L 233.177518 261.250097 
L 234.825511 249.017454 
L 236.473504 261.236489 
L 238.121496 263.406389 
L 239.769489 230.99354 
L 241.417482 213.840047 
L 244.713467 256.637143 
L 246.361459 254.643268 
L 248.009452 244.358323 
L 249.657445 241.38821 
L 251.305437 249.811443 
L 252.95343 251.309672 
L 254.601422 243.80434 
L 256.249415 252.334982 
L 257.897408 247.118105 
L 259.5454 240.442227 
L 261.193393 262.724875 
L 262.841386 256.77249 
L 264.489378 259.404162 
L 266.137371 245.570224 
L 267.785363 255.938693 
L 269.433356 257.198943 
L 271.081349 233.556887 
L 272.729341 244.245268 
L 274.377334 209.222316 
L 276.025326 159.838513 
L 277.673319 251.684012 
L 279.321312 198.421894 
L 280.969304 257.893484 
L 282.617297 242.257618 
L 284.26529 234.938587 
L 285.913282 157.211762 
L 287.561275 107.617193 
L 289.209267 259.728996 
L 290.85726 198.491666 
L 292.505253 254.31192 
L 294.153245 246.834671 
L 295.801238 248.454785 
L 297.449231 225.337761 
L 299.097223 179.794056 
L 300.745216 246.729289 
L 302.393208 262.054798 
L 304.041201 218.359343 
L 307.337186 252.316453 
L 308.985179 211.782624 
L 310.633171 261.484892 
L 312.281164 226.548359 
L 313.929157 62.726919 
L 315.577149 257.255108 
L 317.225142 236.100692 
L 318.873135 236.202601 
L 320.521127 248.076537 
L 322.16912 234.939311 
L 323.817112 217.623691 
L 325.465105 241.796424 
L 327.113098 255.581434 
L 328.76109 250.090099 
L 330.409083 262.749629 
L 332.057075 246.179504 
L 333.705068 248.359246 
L 335.353061 233.126237 
L 337.001053 249.229956 
L 338.649046 248.357364 
L 340.297039 254.575667 
L 341.945031 261.386602 
L 343.593024 262.912045 
L 345.241016 259.24218 
L 346.889009 241.36447 
L 348.537002 260.227537 
L 350.184994 259.217716 
L 351.832987 258.466141 
L 353.480979 259.577146 
L 355.128972 258.719465 
L 356.776965 252.956421 
L 358.424957 127.700846 
L 360.07295 262.645693 
L 361.720943 260.828276 
L 363.368935 260.533552 
L 365.016928 248.269497 
L 366.66492 260.943937 
L 368.312913 260.144592 
L 369.960906 224.786239 
L 371.608898 261.016315 
L 373.256891 227.672827 
L 374.904883 164.729254 
L 376.552876 253.804839 
L 378.200869 259.175882 
L 379.848861 260.330459 
L 381.496854 72.928484 
L 383.144847 251.327043 
L 384.792839 244.439387 
L 386.440832 256.1787 
L 388.088824 257.269439 
L 389.736817 232.275069 
L 391.38481 249.641933 
L 393.032802 242.547854 
L 394.680795 259.001884 
L 396.328787 251.201539 
L 396.328787 251.201539 
" style="fill:none;stroke:#e377c2;stroke-linecap:square;stroke-width:0.5;"/>
   </g>
   <g id="line2d_25">
    <path clip-path="url(#p9c007889e9)" d="M 74.970227 235.137917 
L 76.61822 222.644568 
L 78.266213 261.315092 
L 79.914205 263.330681 
L 81.562198 260.476808 
L 83.21019 264.538384 
L 84.858183 262.575052 
L 86.506176 257.766243 
L 88.154168 264.030578 
L 89.802161 252.956276 
L 91.450153 253.559042 
L 93.098146 263.959069 
L 94.746139 263.587913 
L 96.394131 250.903341 
L 98.042124 263.87511 
L 99.690117 263.644658 
L 101.338109 262.811584 
L 102.986102 263.929973 
L 104.634094 249.586491 
L 106.282087 263.005992 
L 107.93008 263.450973 
L 109.578072 259.032573 
L 111.226065 260.865768 
L 112.874057 262.923047 
L 114.52205 263.679254 
L 116.170043 262.318399 
L 117.818035 259.677752 
L 119.466028 264.405932 
L 121.114021 259.562671 
L 122.762013 189.502871 
L 124.410006 254.574509 
L 126.057998 262.403082 
L 127.705991 264.176058 
L 129.353984 246.100467 
L 131.001976 258.058217 
L 132.649969 261.715633 
L 134.297961 264.10093 
L 135.945954 256.023665 
L 137.593947 262.320281 
L 139.241939 262.113569 
L 140.889932 227.484065 
L 142.537925 248.672354 
L 144.185917 245.728008 
L 145.83391 264.230921 
L 147.481902 257.718039 
L 149.129895 222.715788 
L 150.777888 258.015659 
L 152.42588 260.326695 
L 154.073873 255.853866 
L 155.721865 227.286038 
L 157.369858 259.392003 
L 159.017851 247.91412 
L 160.665843 263.998877 
L 162.313836 261.634859 
L 163.961829 262.642219 
L 165.609821 250.793326 
L 167.257814 258.660693 
L 168.905806 260.15733 
L 170.553799 259.698887 
L 172.201792 262.430296 
L 173.849784 260.630394 
L 175.497777 261.896579 
L 177.145769 253.20077 
L 178.793762 261.734596 
L 180.441755 261.677273 
L 182.089747 259.697584 
L 183.73774 263.38453 
L 185.385733 262.440863 
L 187.033725 263.182306 
L 188.681718 261.372705 
L 190.32971 262.931298 
L 191.977703 262.232124 
L 193.625696 260.167608 
L 195.273688 264.165926 
L 196.921681 264.115116 
L 198.569674 253.01968 
L 200.217666 264.172295 
L 201.865659 258.735677 
L 203.513651 260.885455 
L 205.161644 262.567814 
L 206.809637 261.204788 
L 208.457629 262.500792 
L 210.105622 260.273135 
L 211.753614 262.664946 
L 213.401607 259.995058 
L 215.0496 263.466462 
L 216.697592 264.327908 
L 218.345585 260.710445 
L 219.993578 263.955884 
L 221.64157 262.713439 
L 223.289563 259.822798 
L 224.937555 253.048921 
L 226.585548 252.015649 
L 228.233541 263.547816 
L 229.881533 256.376003 
L 231.529526 263.336037 
L 233.177518 263.245275 
L 234.825511 261.411934 
L 236.473504 261.317553 
L 238.121496 260.625183 
L 239.769489 260.400087 
L 241.417482 257.598181 
L 243.065474 255.375446 
L 244.713467 263.527694 
L 246.361459 261.779181 
L 248.009452 262.414083 
L 249.657445 261.090865 
L 251.305437 227.128977 
L 252.95343 249.47749 
L 254.601422 261.85706 
L 256.249415 258.53186 
L 257.897408 262.400186 
L 259.5454 262.668275 
L 261.193393 263.313021 
L 262.841386 259.921088 
L 264.489378 261.92857 
L 266.137371 263.730064 
L 267.785363 262.155114 
L 269.433356 256.790006 
L 271.081349 254.062505 
L 272.729341 264.413314 
L 274.377334 261.621976 
L 276.025326 260.19294 
L 277.673319 263.314468 
L 279.321312 263.667095 
L 280.969304 262.647575 
L 282.617297 264.439949 
L 284.26529 262.000369 
L 285.913282 263.643355 
L 287.561275 262.260352 
L 289.209267 263.064329 
L 290.85726 256.809548 
L 292.505253 263.084305 
L 294.153245 261.118079 
L 295.801238 261.088114 
L 297.449231 264.204141 
L 299.097223 258.189511 
L 300.745216 262.022372 
L 302.393208 263.098781 
L 305.689194 260.28544 
L 308.985179 258.472655 
L 310.633171 257.142198 
L 312.281164 258.133201 
L 313.929157 263.333142 
L 315.577149 262.703306 
L 317.225142 262.498042 
L 318.873135 262.409596 
L 320.521127 261.934939 
L 322.16912 263.486005 
L 323.817112 236.185954 
L 325.465105 262.385421 
L 327.113098 260.875322 
L 328.76109 256.613548 
L 330.409083 263.905798 
L 332.057075 263.995692 
L 333.705068 259.501439 
L 335.353061 263.211691 
L 337.001053 263.209954 
L 338.649046 259.616086 
L 340.297039 261.161361 
L 341.945031 263.706469 
L 343.593024 261.750664 
L 345.241016 263.15567 
L 348.537002 262.553773 
L 350.184994 262.788423 
L 351.832987 259.704966 
L 353.480979 259.404162 
L 355.128972 257.997854 
L 356.776965 260.867795 
L 358.424957 206.234399 
L 360.07295 245.534759 
L 361.720943 263.856147 
L 363.368935 262.943602 
L 365.016928 264.245397 
L 366.66492 257.491206 
L 368.312913 262.075208 
L 369.960906 263.029443 
L 371.608898 260.997497 
L 373.256891 256.848922 
L 374.904883 262.340257 
L 376.552876 261.75327 
L 378.200869 256.95995 
L 379.848861 262.728784 
L 381.496854 259.524889 
L 383.144847 260.886613 
L 384.792839 262.926087 
L 386.440832 263.956752 
L 388.088824 260.19627 
L 389.736817 257.014668 
L 391.38481 196.990832 
L 393.032802 256.275252 
L 394.680795 260.705523 
L 396.328787 262.783791 
L 397.97678 256.72805 
L 399.624773 260.209732 
L 399.624773 260.209732 
" style="fill:none;stroke:#7f7f7f;stroke-linecap:square;stroke-width:0.5;"/>
   </g>
   <g id="line2d_26">
    <path clip-path="url(#p9c007889e9)" d="M 74.970227 257.496562 
L 76.61822 260.479413 
L 78.266213 258.91836 
L 79.914205 189.123174 
L 81.562198 264.000035 
L 83.21019 82.129638 
L 84.858183 249.487623 
L 86.506176 216.209131 
L 88.154168 186.652182 
L 89.802161 254.905132 
L 91.450153 257.454004 
L 93.098146 257.938793 
L 94.746139 255.626309 
L 96.394131 261.840848 
L 98.042124 235.725918 
L 99.690117 255.309292 
L 101.338109 263.26612 
L 102.986102 260.17803 
L 104.634094 226.626238 
L 106.282087 232.764201 
L 107.93008 257.447634 
L 109.578072 263.386123 
L 111.226065 223.761364 
L 112.874057 257.016116 
L 114.52205 262.382526 
L 116.170043 247.105511 
L 117.818035 261.610685 
L 119.466028 260.197138 
L 121.114021 240.143884 
L 122.762013 215.530513 
L 124.410006 176.536168 
L 126.057998 241.58175 
L 127.705991 261.243727 
L 129.353984 260.067292 
L 131.001976 234.28038 
L 132.649969 264.121051 
L 134.297961 263.468489 
L 135.945954 261.989368 
L 137.593947 263.102255 
L 139.241939 262.846326 
L 140.889932 262.057548 
L 142.537925 262.231545 
L 144.185917 255.891358 
L 145.83391 258.577024 
L 147.481902 249.359658 
L 149.129895 261.971128 
L 150.777888 262.558984 
L 152.42588 249.699836 
L 154.073873 262.135282 
L 155.721865 263.17058 
L 157.369858 262.13036 
L 159.017851 259.976674 
L 160.665843 232.728156 
L 162.313836 223.519186 
L 163.961829 234.722176 
L 165.609821 147.137293 
L 167.257814 260.874164 
L 168.905806 260.830013 
L 170.553799 251.870603 
L 172.201792 254.382851 
L 173.849784 261.231133 
L 175.497777 256.268159 
L 177.145769 264.429817 
L 178.793762 259.532272 
L 180.441755 263.009901 
L 182.089747 259.380712 
L 183.73774 256.84675 
L 185.385733 258.502909 
L 187.033725 261.478088 
L 188.681718 262.70707 
L 190.32971 255.590409 
L 191.977703 256.525246 
L 195.273688 262.733416 
L 196.921681 240.213512 
L 198.569674 254.073651 
L 200.217666 252.152444 
L 201.865659 185.5778 
L 203.513651 161.781144 
L 205.161644 233.062689 
L 206.809637 243.7392 
L 208.457629 251.642757 
L 210.105622 231.15393 
L 211.753614 257.049844 
L 213.401607 263.393505 
L 215.0496 228.532536 
L 216.697592 246.399534 
L 218.345585 258.946443 
L 219.993578 262.773658 
L 221.64157 259.812086 
L 223.289563 258.856694 
L 224.937555 248.855327 
L 226.585548 258.16664 
L 228.233541 164.20567 
L 229.881533 262.484435 
L 231.529526 257.775074 
L 233.177518 260.903115 
L 234.825511 258.25885 
L 236.473504 263.020613 
L 238.121496 261.456954 
L 239.769489 263.295795 
L 241.417482 255.312911 
L 243.065474 256.77886 
L 244.713467 260.737225 
L 246.361459 252.524613 
L 248.009452 261.56335 
L 249.657445 261.048017 
L 251.305437 257.812276 
L 252.95343 256.958502 
L 254.601422 250.71342 
L 256.249415 260.271688 
L 257.897408 248.754287 
L 259.5454 264.122788 
L 261.193393 255.545101 
L 262.841386 258.358876 
L 264.489378 259.765619 
L 266.137371 227.300369 
L 267.785363 260.723762 
L 269.433356 225.872492 
L 271.081349 254.334937 
L 272.729341 260.404429 
L 274.377334 251.179102 
L 276.025326 264.194008 
L 277.673319 259.485805 
L 279.321312 257.511183 
L 280.969304 260.62967 
L 282.617297 259.169512 
L 284.26529 246.434999 
L 285.913282 259.20628 
L 287.561275 258.553718 
L 289.209267 217.299726 
L 290.85726 259.483344 
L 292.505253 257.455596 
L 295.801238 263.219797 
L 297.449231 234.360141 
L 299.097223 208.613616 
L 300.745216 246.890258 
L 302.393208 262.133256 
L 304.041201 258.34773 
L 305.689194 254.922503 
L 307.337186 241.270813 
L 308.985179 256.016428 
L 310.633171 258.164179 
L 312.281164 263.483399 
L 313.929157 249.394255 
L 315.577149 263.03422 
L 317.225142 262.096053 
L 318.873135 262.30899 
L 320.521127 261.225633 
L 322.16912 262.171906 
L 323.817112 263.276108 
L 325.465105 260.418905 
L 327.113098 244.732663 
L 328.76109 260.050066 
L 330.409083 251.80995 
L 332.057075 209.629516 
L 333.705068 259.804848 
L 335.353061 253.74158 
L 337.001053 261.222448 
L 338.649046 254.465362 
L 340.297039 261.533095 
L 341.945031 242.035416 
L 343.593024 257.911579 
L 345.241016 258.500448 
L 346.889009 263.466028 
L 348.537002 261.869654 
L 350.184994 263.012796 
L 351.832987 258.023331 
L 353.480979 247.879813 
L 355.128972 256.085042 
L 356.776965 247.183679 
L 358.424957 263.876123 
L 360.07295 247.140397 
L 361.720943 261.456809 
L 363.368935 220.023173 
L 365.016928 250.12513 
L 366.66492 259.878385 
L 368.312913 257.086322 
L 369.960906 245.824127 
L 371.608898 259.130573 
L 373.256891 258.680815 
L 374.904883 253.436723 
L 376.552876 224.768579 
L 378.200869 260.758359 
L 379.848861 257.973824 
L 381.496854 243.697655 
L 383.144847 261.92886 
L 384.792839 251.690816 
L 386.440832 256.646842 
L 388.088824 253.971743 
L 388.088824 253.971743 
" style="fill:none;stroke:#bcbd22;stroke-linecap:square;stroke-width:0.5;"/>
   </g>
   <g id="line2d_27">
    <path clip-path="url(#p9c007889e9)" d="M 74.970227 252.131744 
L 76.61822 261.088838 
L 78.266213 258.0863 
L 79.914205 262.188987 
L 81.562198 254.679602 
L 83.21019 253.879243 
L 84.858183 244.989606 
L 86.506176 253.695548 
L 88.154168 102.302316 
L 89.802161 255.524979 
L 91.450153 254.887762 
L 93.098146 259.927312 
L 94.746139 261.200735 
L 96.394131 261.888617 
L 98.042124 257.921712 
L 99.690117 256.36283 
L 101.338109 226.066755 
L 102.986102 247.411671 
L 104.634094 261.395432 
L 106.282087 254.80279 
L 107.93008 257.930108 
L 109.578072 256.983111 
L 111.226065 175.297632 
L 112.874057 219.548228 
L 114.52205 236.969086 
L 116.170043 261.38197 
L 117.818035 238.808795 
L 119.466028 260.134024 
L 121.114021 263.130627 
L 122.762013 243.5073 
L 124.410006 261.770641 
L 126.057998 158.46738 
L 127.705991 260.848397 
L 129.353984 257.349924 
L 131.001976 248.637179 
L 132.649969 215.797299 
L 134.297961 261.858363 
L 135.945954 244.380905 
L 137.593947 257.926923 
L 139.241939 264.441687 
L 140.889932 259.074842 
L 142.537925 259.559052 
L 144.185917 258.654324 
L 145.83391 262.891924 
L 147.481902 226.046634 
L 149.129895 260.766321 
L 150.777888 263.151617 
L 152.42588 262.788858 
L 154.073873 262.669433 
L 155.721865 257.330382 
L 157.369858 251.255388 
L 159.017851 258.194143 
L 160.665843 249.865003 
L 162.313836 263.690111 
L 165.609821 260.13055 
L 167.257814 260.727526 
L 168.905806 263.110217 
L 170.553799 215.211325 
L 172.201792 263.838486 
L 173.849784 263.20619 
L 175.497777 259.527784 
L 177.145769 257.593838 
L 178.793762 258.871748 
L 180.441755 258.239163 
L 182.089747 255.614005 
L 183.73774 258.06256 
L 185.385733 260.142276 
L 187.033725 264.403616 
L 188.681718 252.491608 
L 190.32971 263.317942 
L 191.977703 260.542817 
L 193.625696 257.446476 
L 195.273688 261.988065 
L 196.921681 262.041914 
L 198.569674 235.836367 
L 200.217666 257.704722 
L 201.865659 261.486629 
L 203.513651 262.911321 
L 205.161644 262.2052 
L 206.809637 250.935766 
L 208.457629 262.026715 
L 210.105622 256.442446 
L 211.753614 255.333756 
L 213.401607 258.435452 
L 215.0496 250.378888 
L 216.697592 263.428536 
L 218.345585 260.663544 
L 219.993578 262.517729 
L 221.64157 263.406244 
L 223.289563 261.617778 
L 224.937555 256.576056 
L 226.585548 263.425641 
L 228.233541 259.381001 
L 229.881533 217.335046 
L 231.529526 254.921056 
L 233.177518 205.768283 
L 234.825511 256.751646 
L 236.473504 223.036568 
L 238.121496 186.687647 
L 239.769489 229.463609 
L 241.417482 249.792045 
L 243.065474 251.21558 
L 244.713467 264.162162 
L 246.361459 208.957846 
L 248.009452 262.577224 
L 249.657445 262.849945 
L 251.305437 263.286964 
L 252.95343 260.611431 
L 254.601422 262.077959 
L 256.249415 135.095295 
L 257.897408 188.539372 
L 259.5454 262.758024 
L 262.841386 253.035169 
L 264.489378 229.719973 
L 266.137371 251.503935 
L 267.785363 123.05706 
L 269.433356 144.286894 
L 271.081349 239.983349 
L 272.729341 254.778905 
L 274.377334 218.861503 
L 276.025326 261.107801 
L 277.673319 264.251042 
L 279.321312 255.356049 
L 280.969304 211.018599 
L 282.617297 242.197109 
L 284.26529 257.475283 
L 285.913282 252.168512 
L 287.561275 262.278302 
L 289.209267 263.391189 
L 290.85726 263.632498 
L 292.505253 258.87059 
L 294.153245 261.111854 
L 295.801238 229.638475 
L 297.449231 219.766231 
L 299.097223 246.821643 
L 300.745216 261.789749 
L 302.393208 241.076116 
L 304.041201 255.23069 
L 305.689194 264.2108 
L 307.337186 239.173726 
L 308.985179 262.513386 
L 310.633171 249.907995 
L 312.281164 263.681281 
L 313.929157 259.22452 
L 315.577149 227.249125 
L 317.225142 243.755123 
L 318.873135 254.697407 
L 320.521127 259.450629 
L 322.16912 254.867496 
L 323.817112 235.815232 
L 325.465105 255.010226 
L 327.113098 243.352266 
L 328.76109 250.522776 
L 330.409083 263.552593 
L 332.057075 254.778905 
L 333.705068 249.363132 
L 335.353061 254.832175 
L 337.001053 251.034635 
L 338.649046 238.578488 
L 340.297039 259.709743 
L 341.945031 228.675555 
L 343.593024 258.520714 
L 345.241016 246.828592 
L 346.889009 248.605477 
L 348.537002 257.129605 
L 350.184994 261.093181 
L 351.832987 206.663167 
L 353.480979 238.637114 
L 355.128972 257.675915 
L 356.776965 251.871906 
L 358.424957 255.081446 
L 360.07295 261.372561 
L 361.720943 243.376585 
L 363.368935 261.381101 
L 365.016928 229.912933 
L 366.66492 263.634959 
L 368.312913 258.452968 
L 369.960906 213.682697 
L 371.608898 240.512 
L 373.256891 261.941453 
L 374.904883 261.032093 
L 376.552876 252.859724 
L 378.200869 259.272 
L 379.848861 261.486339 
L 381.496854 262.385566 
L 383.144847 243.155831 
L 384.792839 227.21062 
L 386.440832 264.398404 
L 388.088824 234.203659 
L 389.736817 239.152737 
L 391.38481 246.843502 
L 393.032802 252.450932 
L 394.680795 259.865646 
L 394.680795 259.865646 
" style="fill:none;stroke:#17becf;stroke-linecap:square;stroke-width:0.5;"/>
   </g>
   <g id="line2d_28">
    <path clip-path="url(#p9c007889e9)" d="M 74.970227 258.981908 
L 76.61822 259.196437 
L 78.266213 242.372699 
L 79.914205 261.760218 
L 81.562198 248.017332 
L 83.21019 253.432959 
L 84.858183 263.031614 
L 86.506176 252.442246 
L 88.154168 261.201893 
L 89.802161 263.951396 
L 91.450153 261.429595 
L 94.746139 252.801677 
L 96.394131 261.803645 
L 98.042124 264.539976 
L 99.690117 262.344021 
L 101.338109 261.152096 
L 102.986102 243.454174 
L 104.634094 245.181987 
L 106.282087 257.295495 
L 107.93008 262.898149 
L 109.578072 255.538442 
L 111.226065 250.503813 
L 112.874057 263.523352 
L 114.52205 261.603158 
L 116.170043 240.678614 
L 117.818035 262.506582 
L 119.466028 257.288692 
L 121.114021 262.419729 
L 122.762013 258.765931 
L 124.410006 249.781913 
L 126.057998 260.568294 
L 127.705991 263.88365 
L 129.353984 251.824426 
L 131.001976 263.136997 
L 132.649969 249.270054 
L 134.297961 250.693878 
L 135.945954 260.535145 
L 140.889932 261.826372 
L 142.537925 261.905409 
L 144.185917 259.576423 
L 145.83391 253.236959 
L 147.481902 261.006616 
L 149.129895 256.29436 
L 150.777888 263.274081 
L 152.42588 260.132722 
L 154.073873 261.301196 
L 155.721865 256.395689 
L 157.369858 259.955685 
L 159.017851 264.107878 
L 160.665843 263.458067 
L 162.313836 262.458379 
L 163.961829 264.028117 
L 165.609821 261.541057 
L 167.257814 262.221847 
L 168.905806 264.602656 
L 170.553799 260.100007 
L 172.201792 245.002634 
L 173.849784 263.403928 
L 175.497777 259.759105 
L 177.145769 253.878809 
L 178.793762 259.353063 
L 180.441755 263.454882 
L 182.089747 259.784148 
L 183.73774 259.150983 
L 185.385733 249.616456 
L 187.033725 264.64449 
L 188.681718 260.87373 
L 190.32971 264.221078 
L 191.977703 261.268336 
L 193.625696 262.722414 
L 195.273688 259.793123 
L 196.921681 258.318489 
L 198.569674 261.207249 
L 200.217666 261.131831 
L 201.865659 264.716 
L 203.513651 263.5303 
L 205.161644 257.926923 
L 206.809637 260.795127 
L 208.457629 259.453959 
L 210.105622 258.491328 
L 211.753614 258.519845 
L 213.401607 255.972132 
L 215.0496 263.113691 
L 216.697592 261.462599 
L 218.345585 262.427111 
L 219.993578 261.535701 
L 221.64157 261.376614 
L 224.937555 258.75768 
L 226.585548 257.729475 
L 228.233541 263.24513 
L 229.881533 259.42052 
L 231.529526 263.910286 
L 233.177518 260.25258 
L 234.825511 255.974303 
L 236.473504 263.105729 
L 238.121496 259.80369 
L 239.769489 251.367285 
L 241.417482 263.133378 
L 243.065474 263.511192 
L 244.713467 261.525568 
L 246.361459 262.725599 
L 248.009452 258.436321 
L 249.657445 263.33097 
L 251.305437 221.465092 
L 252.95343 264.109615 
L 254.601422 254.428305 
L 256.249415 263.974558 
L 257.897408 259.304425 
L 259.5454 263.94054 
L 261.193393 257.581245 
L 262.841386 239.941659 
L 264.489378 259.468869 
L 266.137371 262.227637 
L 267.785363 259.893439 
L 269.433356 262.77858 
L 271.081349 261.706948 
L 272.729341 264.320525 
L 274.377334 253.285597 
L 276.025326 261.706948 
L 277.673319 239.226997 
L 279.321312 261.38472 
L 280.969304 259.957422 
L 282.617297 263.715878 
L 284.26529 262.321439 
L 285.913282 263.08749 
L 287.561275 251.298381 
L 289.209267 262.985437 
L 290.85726 260.566122 
L 292.505253 263.026113 
L 294.153245 258.024055 
L 295.801238 252.217005 
L 297.449231 229.433934 
L 299.097223 264.0355 
L 300.745216 253.110876 
L 302.393208 263.795928 
L 304.041201 254.125474 
L 305.689194 262.814914 
L 307.337186 259.898506 
L 308.985179 256.129338 
L 310.633171 259.964515 
L 312.281164 241.3319 
L 313.929157 256.632511 
L 317.225142 260.287611 
L 318.873135 253.278504 
L 320.521127 264.658242 
L 322.16912 260.858386 
L 323.817112 260.991706 
L 325.465105 246.122614 
L 327.113098 262.880633 
L 328.76109 263.33097 
L 330.409083 259.763737 
L 332.057075 260.704654 
L 333.705068 262.481684 
L 337.001053 261.77701 
L 338.649046 250.331408 
L 340.297039 264.200812 
L 341.945031 257.660426 
L 343.593024 259.910955 
L 345.241016 258.357863 
L 346.889009 262.608636 
L 348.537002 260.90355 
L 350.184994 251.480629 
L 351.832987 254.98359 
L 353.480979 263.908114 
L 355.128972 260.439171 
L 356.776965 264.138856 
L 358.424957 263.698217 
L 360.07295 259.050667 
L 361.720943 263.513798 
L 363.368935 255.447969 
L 365.016928 261.661205 
L 366.66492 254.750822 
L 368.312913 263.818655 
L 369.960906 262.874698 
L 371.608898 261.226067 
L 373.256891 256.432458 
L 374.904883 259.198898 
L 376.552876 256.755554 
L 378.200869 261.868786 
L 379.848861 259.16213 
L 381.496854 253.921223 
L 383.144847 259.582213 
L 384.792839 259.523587 
L 386.440832 263.385109 
L 388.088824 256.649447 
L 389.736817 215.155304 
L 391.38481 259.846104 
L 393.032802 258.538085 
L 394.680795 255.950419 
L 397.97678 264.402023 
L 397.97678 264.402023 
" style="fill:none;stroke:#1f77b4;stroke-linecap:square;stroke-width:0.5;"/>
   </g>
   <g id="line2d_29">
    <path clip-path="url(#p9c007889e9)" d="M 74.970227 262.551746 
L 76.61822 259.767791 
L 78.266213 257.211247 
L 79.914205 260.777612 
L 81.562198 237.697066 
L 83.21019 238.542733 
L 84.858183 256.31202 
L 86.506176 244.654929 
L 88.154168 248.712018 
L 89.802161 262.16351 
L 91.450153 247.556282 
L 93.098146 260.954938 
L 94.746139 262.11849 
L 96.394131 254.473758 
L 98.042124 261.489379 
L 99.690117 257.5245 
L 101.338109 260.97144 
L 102.986102 262.091131 
L 104.634094 258.966419 
L 106.282087 263.097623 
L 107.93008 263.709653 
L 109.578072 263.106598 
L 111.226065 263.15596 
L 112.874057 263.370199 
L 114.52205 262.603859 
L 116.170043 261.574496 
L 117.818035 258.878841 
L 119.466028 263.01352 
L 121.114021 261.092167 
L 122.762013 263.647842 
L 124.410006 253.276912 
L 126.057998 263.161605 
L 127.705991 257.241212 
L 129.353984 260.902392 
L 131.001976 263.535511 
L 132.649969 258.333978 
L 134.297961 258.918649 
L 135.945954 258.015659 
L 137.593947 263.597177 
L 139.241939 262.505714 
L 140.889932 258.720333 
L 142.537925 257.87814 
L 144.185917 255.558418 
L 145.83391 264.381613 
L 147.481902 252.058352 
L 149.129895 260.662964 
L 150.777888 238.18779 
L 152.42588 260.213785 
L 154.073873 264.513051 
L 155.721865 244.611936 
L 157.369858 263.028719 
L 159.017851 263.343709 
L 160.665843 256.463001 
L 162.313836 261.515725 
L 163.961829 258.029266 
L 165.609821 259.278659 
L 167.257814 255.720835 
L 168.905806 260.004033 
L 170.553799 262.564196 
L 172.201792 263.10211 
L 173.849784 256.203887 
L 175.497777 256.972254 
L 177.145769 261.248504 
L 178.793762 261.019789 
L 180.441755 246.82642 
L 182.089747 264.488877 
L 183.73774 251.812701 
L 185.385733 255.11141 
L 187.033725 250.574454 
L 188.681718 261.895566 
L 190.32971 247.568297 
L 191.977703 261.081311 
L 193.625696 258.909819 
L 195.273688 262.272656 
L 196.921681 257.524211 
L 198.569674 257.831963 
L 200.217666 244.854982 
L 201.865659 262.348653 
L 203.513651 256.250209 
L 205.161644 260.288914 
L 206.809637 245.73901 
L 208.457629 181.382179 
L 210.105622 261.342306 
L 211.753614 260.098704 
L 213.401607 262.18392 
L 215.0496 259.112044 
L 216.697592 249.257605 
L 218.345585 262.448246 
L 219.993578 245.060102 
L 221.64157 259.131876 
L 223.289563 263.960806 
L 224.937555 264.306918 
L 226.585548 261.0816 
L 228.233541 263.259316 
L 229.881533 258.408817 
L 231.529526 263.791296 
L 233.177518 264.230632 
L 234.825511 256.869622 
L 236.473504 258.07747 
L 238.121496 236.435658 
L 239.769489 260.718261 
L 241.417482 263.3909 
L 243.065474 262.317531 
L 244.713467 263.255697 
L 246.361459 260.516905 
L 248.009452 257.458781 
L 249.657445 263.856002 
L 251.305437 226.586865 
L 252.95343 264.026815 
L 254.601422 262.047126 
L 256.249415 259.204399 
L 257.897408 264.433146 
L 259.5454 247.708421 
L 261.193393 261.398472 
L 262.841386 264.194443 
L 264.489378 263.343854 
L 266.137371 262.762657 
L 267.785363 259.475962 
L 269.433356 252.663579 
L 271.081349 264.066044 
L 272.729341 262.770618 
L 274.377334 247.594208 
L 276.025326 250.546371 
L 277.673319 261.433213 
L 279.321312 260.833053 
L 280.969304 261.919306 
L 282.617297 257.071268 
L 284.26529 247.058754 
L 285.913282 252.74001 
L 287.561275 256.514824 
L 289.209267 253.987377 
L 290.85726 263.081845 
L 292.505253 260.3652 
L 294.153245 230.497894 
L 295.801238 259.827141 
L 297.449231 261.796263 
L 299.097223 261.523542 
L 300.745216 263.192294 
L 302.393208 258.731624 
L 304.041201 259.028809 
L 305.689194 263.646684 
L 307.337186 259.031704 
L 308.985179 249.509336 
L 310.633171 261.542794 
L 312.281164 259.291687 
L 313.929157 260.712326 
L 315.577149 255.03136 
L 317.225142 264.438068 
L 318.873135 261.539175 
L 320.521127 251.475273 
L 322.16912 262.890477 
L 325.465105 263.861213 
L 327.113098 255.659748 
L 328.76109 261.893249 
L 330.409083 258.730321 
L 332.057075 260.522116 
L 333.705068 257.233105 
L 335.353061 253.288782 
L 337.001053 264.214564 
L 338.649046 262.200712 
L 340.297039 260.693219 
L 341.945031 263.191859 
L 343.593024 256.835894 
L 345.241016 262.050889 
L 346.889009 239.932395 
L 348.537002 255.184368 
L 350.184994 263.440841 
L 351.832987 216.535122 
L 353.480979 261.202616 
L 355.128972 261.924227 
L 356.776965 263.661594 
L 358.424957 262.425953 
L 360.07295 263.49194 
L 361.720943 249.630353 
L 363.368935 263.52422 
L 363.368935 263.52422 
" style="fill:none;stroke:#ff7f0e;stroke-linecap:square;stroke-width:0.5;"/>
   </g>
   <g id="line2d_30">
    <path clip-path="url(#p9c007889e9)" d="M 74.970227 256.93621 
L 76.61822 261.571601 
L 78.266213 263.851804 
L 79.914205 261.706079 
L 81.562198 263.742802 
L 83.21019 259.886346 
L 84.858183 260.722749 
L 86.506176 261.759929 
L 88.154168 263.411889 
L 89.802161 261.314513 
L 91.450153 261.389642 
L 93.098146 263.047103 
L 94.746139 259.234074 
L 96.394131 262.572881 
L 98.042124 259.406189 
L 99.690117 259.901401 
L 101.338109 261.538886 
L 102.986102 262.473868 
L 104.634094 261.654257 
L 106.282087 260.256344 
L 107.93008 261.115907 
L 111.226065 262.384263 
L 112.874057 254.938137 
L 114.52205 257.959348 
L 116.170043 262.315793 
L 117.818035 263.556501 
L 119.466028 262.55551 
L 121.114021 260.867071 
L 122.762013 264.344844 
L 124.410006 263.087635 
L 126.057998 262.867895 
L 127.705991 261.985604 
L 129.353984 263.480793 
L 131.001976 264.103536 
L 132.649969 258.552271 
L 134.297961 262.774961 
L 135.945954 262.653366 
L 137.593947 260.093203 
L 139.241939 263.149735 
L 140.889932 261.893249 
L 142.537925 256.757146 
L 144.185917 250.009904 
L 145.83391 262.72198 
L 147.481902 262.843575 
L 149.129895 261.088114 
L 150.777888 259.159958 
L 152.42588 263.003966 
L 154.073873 263.537972 
L 155.721865 262.459392 
L 157.369858 263.903337 
L 159.017851 262.079696 
L 160.665843 262.997162 
L 162.313836 257.48281 
L 163.961829 261.18293 
L 165.609821 263.027706 
L 167.257814 262.712571 
L 168.905806 260.452489 
L 170.553799 255.891068 
L 172.201792 263.180279 
L 173.849784 259.122611 
L 175.497777 263.678531 
L 177.145769 262.05031 
L 178.793762 261.463323 
L 180.441755 262.588225 
L 182.089747 261.507039 
L 183.73774 263.121942 
L 185.385733 263.391189 
L 187.033725 264.043462 
L 188.681718 260.65949 
L 190.32971 263.650882 
L 191.977703 263.469647 
L 193.625696 263.992073 
L 195.273688 261.47997 
L 196.921681 261.266888 
L 198.569674 262.672618 
L 200.217666 262.039309 
L 201.865659 260.820315 
L 203.513651 264.244528 
L 205.161644 263.810983 
L 206.809637 256.530747 
L 208.457629 262.694911 
L 210.105622 258.970327 
L 211.753614 264.128144 
L 213.401607 264.103825 
L 215.0496 256.898429 
L 216.697592 264.057358 
L 218.345585 259.917179 
L 219.993578 264.424026 
L 221.64157 261.807698 
L 223.289563 259.948881 
L 224.937555 262.138467 
L 226.585548 263.258592 
L 228.233541 253.573952 
L 229.881533 252.441812 
L 231.529526 263.441999 
L 233.177518 263.737157 
L 234.825511 256.602836 
L 236.473504 260.267635 
L 238.121496 258.72815 
L 239.769489 262.537416 
L 241.417482 263.324891 
L 243.065474 260.894285 
L 244.713467 255.787568 
L 246.361459 262.985726 
L 248.009452 264.08906 
L 249.657445 257.406958 
L 251.305437 262.788423 
L 252.95343 260.338421 
L 254.601422 262.76642 
L 256.249415 263.282043 
L 257.897408 261.740676 
L 259.5454 259.804848 
L 261.193393 260.865913 
L 262.841386 260.44004 
L 264.489378 261.193786 
L 266.137371 263.209375 
L 267.785363 264.457755 
L 269.433356 262.049586 
L 271.081349 264.02667 
L 272.729341 262.972119 
L 274.377334 262.486317 
L 276.025326 260.978678 
L 277.673319 263.980203 
L 279.321312 263.422891 
L 280.969304 260.827987 
L 282.617297 262.868908 
L 284.26529 261.66106 
L 285.913282 263.546223 
L 287.561275 261.660771 
L 289.209267 261.130673 
L 290.85726 261.694065 
L 292.505253 262.090987 
L 294.153245 244.105723 
L 295.801238 260.491573 
L 297.449231 262.753826 
L 299.097223 255.754418 
L 300.745216 263.160737 
L 302.393208 261.419317 
L 304.041201 254.839558 
L 305.689194 263.681281 
L 307.337186 234.735204 
L 308.985179 258.937323 
L 310.633171 262.64801 
L 312.281164 257.467032 
L 313.929157 260.816262 
L 315.577149 253.416602 
L 317.225142 258.262613 
L 318.873135 261.992118 
L 320.521127 263.635683 
L 322.16912 261.194365 
L 323.817112 259.969002 
L 325.465105 260.628802 
L 327.113098 253.229287 
L 328.76109 256.953291 
L 332.057075 262.205779 
L 333.705068 263.069396 
L 335.353061 263.760463 
L 337.001053 259.023598 
L 338.649046 261.802198 
L 340.297039 264.302576 
L 341.945031 258.97163 
L 343.593024 260.64791 
L 345.241016 263.298545 
L 346.889009 260.729552 
L 348.537002 261.879498 
L 350.184994 260.459582 
L 351.832987 264.218617 
L 353.480979 259.779082 
L 355.128972 263.224574 
L 356.776965 259.919495 
L 358.424957 263.761331 
L 360.07295 262.911611 
L 361.720943 263.981651 
L 363.368935 262.733561 
L 365.016928 257.725133 
L 366.66492 259.954671 
L 368.312913 257.218051 
L 369.960906 259.937445 
L 371.608898 263.336761 
L 373.256891 253.770966 
L 374.904883 263.751633 
L 376.552876 258.506673 
L 378.200869 251.459061 
L 379.848861 256.666384 
L 381.496854 255.333467 
L 383.144847 247.760823 
L 384.792839 262.739496 
L 386.440832 258.322398 
L 388.088824 263.230654 
L 391.38481 257.792879 
L 393.032802 257.08473 
L 394.680795 259.709309 
L 396.328787 257.126275 
L 396.328787 257.126275 
" style="fill:none;stroke:#2ca02c;stroke-linecap:square;stroke-width:0.5;"/>
   </g>
   <g id="patch_3">
    <path d="M 58.7375 276.812 
L 58.7375 10.7 
" style="fill:none;stroke:#000000;stroke-linecap:square;stroke-linejoin:miter;stroke-width:0.8;"/>
   </g>
   <g id="patch_4">
    <path d="M 415.8575 276.812 
L 415.8575 10.7 
" style="fill:none;stroke:#000000;stroke-linecap:square;stroke-linejoin:miter;stroke-width:0.8;"/>
   </g>
   <g id="patch_5">
    <path d="M 58.7375 276.812 
L 415.8575 276.812 
" style="fill:none;stroke:#000000;stroke-linecap:square;stroke-linejoin:miter;stroke-width:0.8;"/>
   </g>
   <g id="patch_6">
    <path d="M 58.7375 10.7 
L 415.8575 10.7 
" style="fill:none;stroke:#000000;stroke-linecap:square;stroke-linejoin:miter;stroke-width:0.8;"/>
   </g>
  </g>
 </g>
 <defs>
  <clipPath id="p9c007889e9">
   <rect height="266.112" width="357.12" x="58.7375" y="10.7"/>
  </clipPath>
 </defs>
</svg>
