<?xml version="1.0" encoding="utf-8" standalone="no"?>
<!DOCTYPE svg PUBLIC "-//W3C//DTD SVG 1.1//EN"
  "http://www.w3.org/Graphics/SVG/1.1/DTD/svg11.dtd">
<!-- Created with matplotlib (http://matplotlib.org/) -->
<svg height="300pt" version="1.1" viewBox="0 0 426 300" width="426pt" xmlns="http://www.w3.org/2000/svg" xmlns:xlink="http://www.w3.org/1999/xlink">
 <defs>
  <style type="text/css">
*{stroke-linecap:butt;stroke-linejoin:round;}
  </style>
 </defs>
 <g id="figure_1">
  <g id="patch_1">
   <path d="M 0 300.690125 
L 426.5575 300.690125 
L 426.5575 0 
L 0 0 
z
" style="fill:#ffffff;"/>
  </g>
  <g id="axes_1">
   <g id="patch_2">
    <path d="M 58.7375 276.812 
L 415.8575 276.812 
L 415.8575 10.7 
L 58.7375 10.7 
z
" style="fill:#ffffff;"/>
   </g>
   <g id="matplotlib.axis_1">
    <g id="xtick_1">
     <g id="line2d_1">
      <defs>
       <path d="M 0 0 
L 0 3.5 
" id="mddc5832fde" style="stroke:#000000;stroke-width:0.8;"/>
      </defs>
      <g>
       <use style="stroke:#000000;stroke-width:0.8;" x="74.970227" xlink:href="#mddc5832fde" y="276.812"/>
      </g>
     </g>
     <g id="text_1">
      <!-- 0 -->
      <defs>
       <path d="M 31.78125 66.40625 
Q 24.171875 66.40625 20.328125 58.90625 
Q 16.5 51.421875 16.5 36.375 
Q 16.5 21.390625 20.328125 13.890625 
Q 24.171875 6.390625 31.78125 6.390625 
Q 39.453125 6.390625 43.28125 13.890625 
Q 47.125 21.390625 47.125 36.375 
Q 47.125 51.421875 43.28125 58.90625 
Q 39.453125 66.40625 31.78125 66.40625 
z
M 31.78125 74.21875 
Q 44.046875 74.21875 50.515625 64.515625 
Q 56.984375 54.828125 56.984375 36.375 
Q 56.984375 17.96875 50.515625 8.265625 
Q 44.046875 -1.421875 31.78125 -1.421875 
Q 19.53125 -1.421875 13.0625 8.265625 
Q 6.59375 17.96875 6.59375 36.375 
Q 6.59375 54.828125 13.0625 64.515625 
Q 19.53125 74.21875 31.78125 74.21875 
z
" id="DejaVuSans-30"/>
      </defs>
      <g transform="translate(71.788977 291.410437)scale(0.1 -0.1)">
       <use xlink:href="#DejaVuSans-30"/>
      </g>
     </g>
    </g>
    <g id="xtick_2">
     <g id="line2d_2">
      <g>
       <use style="stroke:#000000;stroke-width:0.8;" x="115.961963" xlink:href="#mddc5832fde" y="276.812"/>
      </g>
     </g>
     <g id="text_2">
      <!-- 25 -->
      <defs>
       <path d="M 19.1875 8.296875 
L 53.609375 8.296875 
L 53.609375 0 
L 7.328125 0 
L 7.328125 8.296875 
Q 12.9375 14.109375 22.625 23.890625 
Q 32.328125 33.6875 34.8125 36.53125 
Q 39.546875 41.84375 41.421875 45.53125 
Q 43.3125 49.21875 43.3125 52.78125 
Q 43.3125 58.59375 39.234375 62.25 
Q 35.15625 65.921875 28.609375 65.921875 
Q 23.96875 65.921875 18.8125 64.3125 
Q 13.671875 62.703125 7.8125 59.421875 
L 7.8125 69.390625 
Q 13.765625 71.78125 18.9375 73 
Q 24.125 74.21875 28.421875 74.21875 
Q 39.75 74.21875 46.484375 68.546875 
Q 53.21875 62.890625 53.21875 53.421875 
Q 53.21875 48.921875 51.53125 44.890625 
Q 49.859375 40.875 45.40625 35.40625 
Q 44.1875 33.984375 37.640625 27.21875 
Q 31.109375 20.453125 19.1875 8.296875 
z
" id="DejaVuSans-32"/>
       <path d="M 10.796875 72.90625 
L 49.515625 72.90625 
L 49.515625 64.59375 
L 19.828125 64.59375 
L 19.828125 46.734375 
Q 21.96875 47.46875 24.109375 47.828125 
Q 26.265625 48.1875 28.421875 48.1875 
Q 40.625 48.1875 47.75 41.5 
Q 54.890625 34.8125 54.890625 23.390625 
Q 54.890625 11.625 47.5625 5.09375 
Q 40.234375 -1.421875 26.90625 -1.421875 
Q 22.3125 -1.421875 17.546875 -0.640625 
Q 12.796875 0.140625 7.71875 1.703125 
L 7.71875 11.625 
Q 12.109375 9.234375 16.796875 8.0625 
Q 21.484375 6.890625 26.703125 6.890625 
Q 35.15625 6.890625 40.078125 11.328125 
Q 45.015625 15.765625 45.015625 23.390625 
Q 45.015625 31 40.078125 35.4375 
Q 35.15625 39.890625 26.703125 39.890625 
Q 22.75 39.890625 18.8125 39.015625 
Q 14.890625 38.140625 10.796875 36.28125 
z
" id="DejaVuSans-35"/>
      </defs>
      <g transform="translate(109.599463 291.410437)scale(0.1 -0.1)">
       <use xlink:href="#DejaVuSans-32"/>
       <use x="63.623047" xlink:href="#DejaVuSans-35"/>
      </g>
     </g>
    </g>
    <g id="xtick_3">
     <g id="line2d_3">
      <g>
       <use style="stroke:#000000;stroke-width:0.8;" x="156.953698" xlink:href="#mddc5832fde" y="276.812"/>
      </g>
     </g>
     <g id="text_3">
      <!-- 50 -->
      <g transform="translate(150.591198 291.410437)scale(0.1 -0.1)">
       <use xlink:href="#DejaVuSans-35"/>
       <use x="63.623047" xlink:href="#DejaVuSans-30"/>
      </g>
     </g>
    </g>
    <g id="xtick_4">
     <g id="line2d_4">
      <g>
       <use style="stroke:#000000;stroke-width:0.8;" x="197.945434" xlink:href="#mddc5832fde" y="276.812"/>
      </g>
     </g>
     <g id="text_4">
      <!-- 75 -->
      <defs>
       <path d="M 8.203125 72.90625 
L 55.078125 72.90625 
L 55.078125 68.703125 
L 28.609375 0 
L 18.3125 0 
L 43.21875 64.59375 
L 8.203125 64.59375 
z
" id="DejaVuSans-37"/>
      </defs>
      <g transform="translate(191.582934 291.410437)scale(0.1 -0.1)">
       <use xlink:href="#DejaVuSans-37"/>
       <use x="63.623047" xlink:href="#DejaVuSans-35"/>
      </g>
     </g>
    </g>
    <g id="xtick_5">
     <g id="line2d_5">
      <g>
       <use style="stroke:#000000;stroke-width:0.8;" x="238.937169" xlink:href="#mddc5832fde" y="276.812"/>
      </g>
     </g>
     <g id="text_5">
      <!-- 100 -->
      <defs>
       <path d="M 12.40625 8.296875 
L 28.515625 8.296875 
L 28.515625 63.921875 
L 10.984375 60.40625 
L 10.984375 69.390625 
L 28.421875 72.90625 
L 38.28125 72.90625 
L 38.28125 8.296875 
L 54.390625 8.296875 
L 54.390625 0 
L 12.40625 0 
z
" id="DejaVuSans-31"/>
      </defs>
      <g transform="translate(229.393419 291.410437)scale(0.1 -0.1)">
       <use xlink:href="#DejaVuSans-31"/>
       <use x="63.623047" xlink:href="#DejaVuSans-30"/>
       <use x="127.246094" xlink:href="#DejaVuSans-30"/>
      </g>
     </g>
    </g>
    <g id="xtick_6">
     <g id="line2d_6">
      <g>
       <use style="stroke:#000000;stroke-width:0.8;" x="279.928905" xlink:href="#mddc5832fde" y="276.812"/>
      </g>
     </g>
     <g id="text_6">
      <!-- 125 -->
      <g transform="translate(270.385155 291.410437)scale(0.1 -0.1)">
       <use xlink:href="#DejaVuSans-31"/>
       <use x="63.623047" xlink:href="#DejaVuSans-32"/>
       <use x="127.246094" xlink:href="#DejaVuSans-35"/>
      </g>
     </g>
    </g>
    <g id="xtick_7">
     <g id="line2d_7">
      <g>
       <use style="stroke:#000000;stroke-width:0.8;" x="320.92064" xlink:href="#mddc5832fde" y="276.812"/>
      </g>
     </g>
     <g id="text_7">
      <!-- 150 -->
      <g transform="translate(311.37689 291.410437)scale(0.1 -0.1)">
       <use xlink:href="#DejaVuSans-31"/>
       <use x="63.623047" xlink:href="#DejaVuSans-35"/>
       <use x="127.246094" xlink:href="#DejaVuSans-30"/>
      </g>
     </g>
    </g>
    <g id="xtick_8">
     <g id="line2d_8">
      <g>
       <use style="stroke:#000000;stroke-width:0.8;" x="361.912376" xlink:href="#mddc5832fde" y="276.812"/>
      </g>
     </g>
     <g id="text_8">
      <!-- 175 -->
      <g transform="translate(352.368626 291.410437)scale(0.1 -0.1)">
       <use xlink:href="#DejaVuSans-31"/>
       <use x="63.623047" xlink:href="#DejaVuSans-37"/>
       <use x="127.246094" xlink:href="#DejaVuSans-35"/>
      </g>
     </g>
    </g>
    <g id="xtick_9">
     <g id="line2d_9">
      <g>
       <use style="stroke:#000000;stroke-width:0.8;" x="402.904112" xlink:href="#mddc5832fde" y="276.812"/>
      </g>
     </g>
     <g id="text_9">
      <!-- 200 -->
      <g transform="translate(393.360362 291.410437)scale(0.1 -0.1)">
       <use xlink:href="#DejaVuSans-32"/>
       <use x="63.623047" xlink:href="#DejaVuSans-30"/>
       <use x="127.246094" xlink:href="#DejaVuSans-30"/>
      </g>
     </g>
    </g>
   </g>
   <g id="matplotlib.axis_2">
    <g id="ytick_1">
     <g id="line2d_10">
      <defs>
       <path d="M 0 0 
L -3.5 0 
" id="m7f5fd98c46" style="stroke:#000000;stroke-width:0.8;"/>
      </defs>
      <g>
       <use style="stroke:#000000;stroke-width:0.8;" x="58.7375" xlink:href="#m7f5fd98c46" y="264.716"/>
      </g>
     </g>
     <g id="text_10">
      <!-- 0 -->
      <g transform="translate(45.375 268.515219)scale(0.1 -0.1)">
       <use xlink:href="#DejaVuSans-30"/>
      </g>
     </g>
    </g>
    <g id="ytick_2">
     <g id="line2d_11">
      <g>
       <use style="stroke:#000000;stroke-width:0.8;" x="58.7375" xlink:href="#m7f5fd98c46" y="233.99481"/>
      </g>
     </g>
     <g id="text_11">
      <!-- 200000 -->
      <g transform="translate(13.5625 237.794029)scale(0.1 -0.1)">
       <use xlink:href="#DejaVuSans-32"/>
       <use x="63.623047" xlink:href="#DejaVuSans-30"/>
       <use x="127.246094" xlink:href="#DejaVuSans-30"/>
       <use x="190.869141" xlink:href="#DejaVuSans-30"/>
       <use x="254.492188" xlink:href="#DejaVuSans-30"/>
       <use x="318.115234" xlink:href="#DejaVuSans-30"/>
      </g>
     </g>
    </g>
    <g id="ytick_3">
     <g id="line2d_12">
      <g>
       <use style="stroke:#000000;stroke-width:0.8;" x="58.7375" xlink:href="#m7f5fd98c46" y="203.27362"/>
      </g>
     </g>
     <g id="text_12">
      <!-- 400000 -->
      <defs>
       <path d="M 37.796875 64.3125 
L 12.890625 25.390625 
L 37.796875 25.390625 
z
M 35.203125 72.90625 
L 47.609375 72.90625 
L 47.609375 25.390625 
L 58.015625 25.390625 
L 58.015625 17.1875 
L 47.609375 17.1875 
L 47.609375 0 
L 37.796875 0 
L 37.796875 17.1875 
L 4.890625 17.1875 
L 4.890625 26.703125 
z
" id="DejaVuSans-34"/>
      </defs>
      <g transform="translate(13.5625 207.072839)scale(0.1 -0.1)">
       <use xlink:href="#DejaVuSans-34"/>
       <use x="63.623047" xlink:href="#DejaVuSans-30"/>
       <use x="127.246094" xlink:href="#DejaVuSans-30"/>
       <use x="190.869141" xlink:href="#DejaVuSans-30"/>
       <use x="254.492188" xlink:href="#DejaVuSans-30"/>
       <use x="318.115234" xlink:href="#DejaVuSans-30"/>
      </g>
     </g>
    </g>
    <g id="ytick_4">
     <g id="line2d_13">
      <g>
       <use style="stroke:#000000;stroke-width:0.8;" x="58.7375" xlink:href="#m7f5fd98c46" y="172.55243"/>
      </g>
     </g>
     <g id="text_13">
      <!-- 600000 -->
      <defs>
       <path d="M 33.015625 40.375 
Q 26.375 40.375 22.484375 35.828125 
Q 18.609375 31.296875 18.609375 23.390625 
Q 18.609375 15.53125 22.484375 10.953125 
Q 26.375 6.390625 33.015625 6.390625 
Q 39.65625 6.390625 43.53125 10.953125 
Q 47.40625 15.53125 47.40625 23.390625 
Q 47.40625 31.296875 43.53125 35.828125 
Q 39.65625 40.375 33.015625 40.375 
z
M 52.59375 71.296875 
L 52.59375 62.3125 
Q 48.875 64.0625 45.09375 64.984375 
Q 41.3125 65.921875 37.59375 65.921875 
Q 27.828125 65.921875 22.671875 59.328125 
Q 17.53125 52.734375 16.796875 39.40625 
Q 19.671875 43.65625 24.015625 45.921875 
Q 28.375 48.1875 33.59375 48.1875 
Q 44.578125 48.1875 50.953125 41.515625 
Q 57.328125 34.859375 57.328125 23.390625 
Q 57.328125 12.15625 50.6875 5.359375 
Q 44.046875 -1.421875 33.015625 -1.421875 
Q 20.359375 -1.421875 13.671875 8.265625 
Q 6.984375 17.96875 6.984375 36.375 
Q 6.984375 53.65625 15.1875 63.9375 
Q 23.390625 74.21875 37.203125 74.21875 
Q 40.921875 74.21875 44.703125 73.484375 
Q 48.484375 72.75 52.59375 71.296875 
z
" id="DejaVuSans-36"/>
      </defs>
      <g transform="translate(13.5625 176.351649)scale(0.1 -0.1)">
       <use xlink:href="#DejaVuSans-36"/>
       <use x="63.623047" xlink:href="#DejaVuSans-30"/>
       <use x="127.246094" xlink:href="#DejaVuSans-30"/>
       <use x="190.869141" xlink:href="#DejaVuSans-30"/>
       <use x="254.492188" xlink:href="#DejaVuSans-30"/>
       <use x="318.115234" xlink:href="#DejaVuSans-30"/>
      </g>
     </g>
    </g>
    <g id="ytick_5">
     <g id="line2d_14">
      <g>
       <use style="stroke:#000000;stroke-width:0.8;" x="58.7375" xlink:href="#m7f5fd98c46" y="141.831241"/>
      </g>
     </g>
     <g id="text_14">
      <!-- 800000 -->
      <defs>
       <path d="M 31.78125 34.625 
Q 24.75 34.625 20.71875 30.859375 
Q 16.703125 27.09375 16.703125 20.515625 
Q 16.703125 13.921875 20.71875 10.15625 
Q 24.75 6.390625 31.78125 6.390625 
Q 38.8125 6.390625 42.859375 10.171875 
Q 46.921875 13.96875 46.921875 20.515625 
Q 46.921875 27.09375 42.890625 30.859375 
Q 38.875 34.625 31.78125 34.625 
z
M 21.921875 38.8125 
Q 15.578125 40.375 12.03125 44.71875 
Q 8.5 49.078125 8.5 55.328125 
Q 8.5 64.0625 14.71875 69.140625 
Q 20.953125 74.21875 31.78125 74.21875 
Q 42.671875 74.21875 48.875 69.140625 
Q 55.078125 64.0625 55.078125 55.328125 
Q 55.078125 49.078125 51.53125 44.71875 
Q 48 40.375 41.703125 38.8125 
Q 48.828125 37.15625 52.796875 32.3125 
Q 56.78125 27.484375 56.78125 20.515625 
Q 56.78125 9.90625 50.3125 4.234375 
Q 43.84375 -1.421875 31.78125 -1.421875 
Q 19.734375 -1.421875 13.25 4.234375 
Q 6.78125 9.90625 6.78125 20.515625 
Q 6.78125 27.484375 10.78125 32.3125 
Q 14.796875 37.15625 21.921875 38.8125 
z
M 18.3125 54.390625 
Q 18.3125 48.734375 21.84375 45.5625 
Q 25.390625 42.390625 31.78125 42.390625 
Q 38.140625 42.390625 41.71875 45.5625 
Q 45.3125 48.734375 45.3125 54.390625 
Q 45.3125 60.0625 41.71875 63.234375 
Q 38.140625 66.40625 31.78125 66.40625 
Q 25.390625 66.40625 21.84375 63.234375 
Q 18.3125 60.0625 18.3125 54.390625 
z
" id="DejaVuSans-38"/>
      </defs>
      <g transform="translate(13.5625 145.630459)scale(0.1 -0.1)">
       <use xlink:href="#DejaVuSans-38"/>
       <use x="63.623047" xlink:href="#DejaVuSans-30"/>
       <use x="127.246094" xlink:href="#DejaVuSans-30"/>
       <use x="190.869141" xlink:href="#DejaVuSans-30"/>
       <use x="254.492188" xlink:href="#DejaVuSans-30"/>
       <use x="318.115234" xlink:href="#DejaVuSans-30"/>
      </g>
     </g>
    </g>
    <g id="ytick_6">
     <g id="line2d_15">
      <g>
       <use style="stroke:#000000;stroke-width:0.8;" x="58.7375" xlink:href="#m7f5fd98c46" y="111.110051"/>
      </g>
     </g>
     <g id="text_15">
      <!-- 1000000 -->
      <g transform="translate(7.2 114.90927)scale(0.1 -0.1)">
       <use xlink:href="#DejaVuSans-31"/>
       <use x="63.623047" xlink:href="#DejaVuSans-30"/>
       <use x="127.246094" xlink:href="#DejaVuSans-30"/>
       <use x="190.869141" xlink:href="#DejaVuSans-30"/>
       <use x="254.492188" xlink:href="#DejaVuSans-30"/>
       <use x="318.115234" xlink:href="#DejaVuSans-30"/>
       <use x="381.738281" xlink:href="#DejaVuSans-30"/>
      </g>
     </g>
    </g>
    <g id="ytick_7">
     <g id="line2d_16">
      <g>
       <use style="stroke:#000000;stroke-width:0.8;" x="58.7375" xlink:href="#m7f5fd98c46" y="80.388861"/>
      </g>
     </g>
     <g id="text_16">
      <!-- 1200000 -->
      <g transform="translate(7.2 84.18808)scale(0.1 -0.1)">
       <use xlink:href="#DejaVuSans-31"/>
       <use x="63.623047" xlink:href="#DejaVuSans-32"/>
       <use x="127.246094" xlink:href="#DejaVuSans-30"/>
       <use x="190.869141" xlink:href="#DejaVuSans-30"/>
       <use x="254.492188" xlink:href="#DejaVuSans-30"/>
       <use x="318.115234" xlink:href="#DejaVuSans-30"/>
       <use x="381.738281" xlink:href="#DejaVuSans-30"/>
      </g>
     </g>
    </g>
    <g id="ytick_8">
     <g id="line2d_17">
      <g>
       <use style="stroke:#000000;stroke-width:0.8;" x="58.7375" xlink:href="#m7f5fd98c46" y="49.667671"/>
      </g>
     </g>
     <g id="text_17">
      <!-- 1400000 -->
      <g transform="translate(7.2 53.46689)scale(0.1 -0.1)">
       <use xlink:href="#DejaVuSans-31"/>
       <use x="63.623047" xlink:href="#DejaVuSans-34"/>
       <use x="127.246094" xlink:href="#DejaVuSans-30"/>
       <use x="190.869141" xlink:href="#DejaVuSans-30"/>
       <use x="254.492188" xlink:href="#DejaVuSans-30"/>
       <use x="318.115234" xlink:href="#DejaVuSans-30"/>
       <use x="381.738281" xlink:href="#DejaVuSans-30"/>
      </g>
     </g>
    </g>
    <g id="ytick_9">
     <g id="line2d_18">
      <g>
       <use style="stroke:#000000;stroke-width:0.8;" x="58.7375" xlink:href="#m7f5fd98c46" y="18.946481"/>
      </g>
     </g>
     <g id="text_18">
      <!-- 1600000 -->
      <g transform="translate(7.2 22.7457)scale(0.1 -0.1)">
       <use xlink:href="#DejaVuSans-31"/>
       <use x="63.623047" xlink:href="#DejaVuSans-36"/>
       <use x="127.246094" xlink:href="#DejaVuSans-30"/>
       <use x="190.869141" xlink:href="#DejaVuSans-30"/>
       <use x="254.492188" xlink:href="#DejaVuSans-30"/>
       <use x="318.115234" xlink:href="#DejaVuSans-30"/>
       <use x="381.738281" xlink:href="#DejaVuSans-30"/>
      </g>
     </g>
    </g>
   </g>
   <g id="line2d_19">
    <path clip-path="url(#pb8f667a6d3)" d="M 74.970227 263.090081 
L 76.609897 263.109282 
L 78.249566 262.510526 
L 79.889236 264.191436 
L 81.528905 263.219571 
L 83.168574 264.168702 
L 84.808244 263.439381 
L 86.447913 264.590197 
L 88.087583 261.064633 
L 89.727252 261.185214 
L 91.366921 262.582567 
L 93.006591 262.538021 
L 94.64626 261.520843 
L 96.28593 262.775342 
L 97.925599 264.277301 
L 99.565269 262.983325 
L 101.204938 263.495447 
L 102.844607 262.879026 
L 104.484277 263.30559 
L 106.123946 264.132297 
L 107.763616 264.198502 
L 109.403285 264.39865 
L 111.042955 263.192843 
L 112.682624 260.005059 
L 114.322293 263.874547 
L 117.601632 260.834838 
L 119.241302 264.086523 
L 120.880971 264.133219 
L 122.52064 263.465033 
L 124.16031 263.836145 
L 125.799979 261.708396 
L 127.439649 235.437324 
L 129.079318 234.656545 
L 130.718988 257.820629 
L 132.358657 262.952911 
L 133.998326 261.860312 
L 135.637996 263.016504 
L 137.277665 259.811669 
L 138.917335 259.762976 
L 140.557004 263.295759 
L 142.196674 264.120009 
L 143.836343 256.213296 
L 145.476012 259.787092 
L 147.115682 240.860842 
L 148.755351 259.315522 
L 150.395021 260.825929 
L 152.03469 229.978629 
L 153.67436 263.147222 
L 155.314029 247.236411 
L 156.953698 263.263502 
L 158.593368 262.001015 
L 160.233037 259.310299 
L 161.872707 263.596827 
L 163.512376 263.687608 
L 165.152045 263.993591 
L 166.791715 262.252007 
L 168.431384 260.063429 
L 170.071054 254.680002 
L 171.710723 264.142896 
L 173.350393 262.132194 
L 174.990062 263.633539 
L 176.629731 259.421971 
L 178.269401 264.56562 
L 179.90907 262.519896 
L 181.54874 261.429447 
L 183.188409 263.697593 
L 186.467748 262.866584 
L 188.107417 264.133987 
L 191.386756 264.169931 
L 193.026426 261.49857 
L 194.666095 261.666 
L 196.305764 264.073774 
L 197.945434 262.354155 
L 199.585103 262.233267 
L 201.224773 263.168574 
L 202.864442 263.893901 
L 204.504112 262.904371 
L 209.42312 262.608373 
L 211.062789 263.111586 
L 212.702459 263.823396 
L 214.342128 262.651382 
L 215.981798 263.044306 
L 217.621467 263.181937 
L 219.261136 263.037394 
L 220.900806 262.489328 
L 222.540475 263.762261 
L 224.180145 264.376992 
L 225.819814 264.198502 
L 227.459483 262.463369 
L 229.099153 261.262785 
L 230.738822 262.72496 
L 232.378492 263.396679 
L 234.018161 264.22185 
L 235.657831 264.470384 
L 237.2975 261.639734 
L 238.937169 260.033015 
L 240.576839 263.164734 
L 242.216508 263.994206 
L 243.856178 264.027231 
L 245.495847 262.253389 
L 247.135517 261.365393 
L 248.775186 262.076896 
L 250.414855 261.914842 
L 252.054525 262.375045 
L 253.694194 264.327991 
L 255.333864 263.437999 
L 256.973533 263.070573 
L 258.613202 263.629545 
L 260.252872 261.15142 
L 261.892541 263.737684 
L 263.532211 263.362424 
L 265.17188 252.983424 
L 266.81155 264.414164 
L 268.451219 264.151345 
L 270.090888 264.149655 
L 271.730558 263.232013 
L 273.370227 264.441199 
L 275.009897 263.588225 
L 276.649566 263.925697 
L 278.289236 263.388384 
L 279.928905 262.564134 
L 281.568574 261.444347 
L 283.208244 262.520203 
L 284.847913 261.424225 
L 286.487583 264.083297 
L 288.127252 263.960566 
L 289.766921 262.44555 
L 291.406591 263.018347 
L 293.04626 264.535667 
L 294.68593 264.302186 
L 296.325599 263.798204 
L 297.965269 261.593037 
L 299.604938 264.3965 
L 301.244607 262.33096 
L 302.884277 263.854117 
L 304.523946 261.544805 
L 306.163616 261.799484 
L 307.803285 263.746132 
L 309.442955 264.504485 
L 311.082624 263.604047 
L 312.722293 263.695903 
L 314.361963 263.338615 
L 316.001632 264.370079 
L 317.641302 262.194712 
L 319.280971 263.092539 
L 320.92064 264.336747 
L 322.56031 262.753684 
L 324.199979 263.728467 
L 325.839649 264.255029 
L 327.479318 263.83507 
L 329.118988 264.492503 
L 330.758657 263.808035 
L 332.398326 264.38544 
L 334.037996 263.037548 
L 335.677665 264.059488 
L 337.317335 263.053523 
L 340.596674 264.445807 
L 342.236343 263.473942 
L 343.876012 264.188824 
L 345.515682 263.51987 
L 347.155351 263.466723 
L 348.795021 264.052269 
L 350.43469 263.679621 
L 352.07436 262.595931 
L 355.353698 260.895666 
L 356.993368 264.383443 
L 358.633037 258.522915 
L 360.272707 261.358942 
L 363.552045 264.03445 
L 365.191715 260.692292 
L 366.831384 263.937986 
L 368.471054 264.494654 
L 370.110723 262.608834 
L 371.750393 263.127407 
L 375.029731 262.362296 
L 376.669401 256.897457 
L 378.30907 258.568536 
L 379.94874 262.807292 
L 381.588409 261.714847 
L 381.588409 261.714847 
" style="fill:none;stroke:#1f77b4;stroke-linecap:square;stroke-width:0.5;"/>
   </g>
   <g id="line2d_20">
    <path clip-path="url(#pb8f667a6d3)" d="M 74.970227 262.160304 
L 76.609897 263.466262 
L 78.249566 263.629084 
L 79.889236 263.123874 
L 81.528905 262.914817 
L 83.168574 264.484516 
L 84.808244 260.886911 
L 86.447913 255.707472 
L 88.087583 264.263016 
L 89.727252 264.557479 
L 91.366921 263.915406 
L 93.006591 260.652815 
L 94.64626 260.97462 
L 96.28593 260.129019 
L 97.925599 264.253339 
L 99.565269 264.512933 
L 101.204938 264.547033 
L 102.844607 260.243456 
L 104.484277 260.256973 
L 106.123946 263.886221 
L 107.763616 263.922164 
L 109.403285 263.104674 
L 111.042955 259.183421 
L 112.682624 258.600486 
L 114.322293 264.300189 
L 115.961963 259.053778 
L 117.601632 252.425681 
L 119.241302 263.078407 
L 120.880971 264.022008 
L 122.52064 263.575476 
L 124.16031 263.694981 
L 125.799979 260.862334 
L 127.439649 261.17185 
L 129.079318 262.918657 
L 130.718988 251.78284 
L 132.358657 256.192713 
L 133.998326 226.432482 
L 135.637996 264.075463 
L 137.277665 264.157642 
L 138.917335 262.72327 
L 140.557004 263.985911 
L 142.196674 264.306333 
L 143.836343 263.487767 
L 145.476012 263.257972 
L 147.115682 264.100194 
L 148.755351 259.035345 
L 150.395021 263.262888 
L 152.03469 263.291919 
L 153.67436 262.939394 
L 155.314029 261.380293 
L 156.953698 263.552589 
L 158.593368 260.929153 
L 160.233037 262.934325 
L 161.872707 261.422688 
L 163.512376 264.303414 
L 165.152045 263.779618 
L 166.791715 262.218214 
L 168.431384 264.462089 
L 170.071054 264.207564 
L 171.710723 263.421409 
L 173.350393 261.659395 
L 174.990062 255.360937 
L 176.629731 262.989776 
L 178.269401 263.042924 
L 179.90907 264.391431 
L 181.54874 263.310198 
L 183.188409 260.702123 
L 184.828079 258.494652 
L 186.467748 263.537689 
L 188.107417 263.6532 
L 189.747087 263.6532 
L 191.386756 264.29128 
L 193.026426 253.975104 
L 194.666095 264.52092 
L 196.305764 264.607554 
L 197.945434 263.333546 
L 199.585103 264.410017 
L 201.224773 263.645674 
L 202.864442 262.230963 
L 204.504112 264.290512 
L 206.143781 262.858136 
L 207.78345 262.538789 
L 209.42312 264.337208 
L 212.702459 263.768098 
L 214.342128 263.765026 
L 215.981798 264.261941 
L 217.621467 261.751866 
L 219.261136 262.596084 
L 220.900806 249.724981 
L 222.540475 264.240436 
L 224.180145 264.416776 
L 225.819814 258.866225 
L 227.459483 264.098197 
L 229.099153 264.067322 
L 230.738822 263.159511 
L 232.378492 261.881509 
L 234.018161 262.2666 
L 235.657831 263.393146 
L 237.2975 263.597288 
L 238.937169 260.162198 
L 240.576839 263.802505 
L 242.216508 263.27917 
L 243.856178 264.534745 
L 245.495847 263.986525 
L 247.135517 229.639621 
L 248.775186 259.939469 
L 250.414855 215.047516 
L 252.054525 261.126383 
L 253.694194 262.124514 
L 255.333864 264.004036 
L 256.973533 263.104059 
L 258.613202 263.150755 
L 260.252872 264.124771 
L 261.892541 263.122185 
L 263.532211 261.065862 
L 265.17188 262.976259 
L 266.81155 264.436284 
L 268.451219 263.784687 
L 270.090888 264.295273 
L 271.730558 262.218828 
L 273.370227 258.130299 
L 275.009897 263.829079 
L 276.649566 263.728928 
L 278.289236 262.660752 
L 279.928905 257.615258 
L 281.568574 263.627241 
L 283.208244 263.680389 
L 284.847913 261.80317 
L 286.487583 264.182219 
L 288.127252 264.441967 
L 289.766921 263.004983 
L 291.406591 263.818327 
L 293.04626 263.157821 
L 294.68593 262.633718 
L 296.325599 264.512319 
L 297.965269 251.535227 
L 299.604938 262.642781 
L 301.244607 264.553946 
L 302.884277 260.57678 
L 304.523946 263.724166 
L 306.163616 264.09451 
L 307.803285 261.297653 
L 309.442955 261.219929 
L 311.082624 259.734559 
L 312.722293 256.675343 
L 314.361963 263.744903 
L 316.001632 264.073005 
L 317.641302 263.949814 
L 319.280971 263.694674 
L 320.92064 261.693342 
L 322.56031 260.568793 
L 324.199979 262.143715 
L 325.839649 263.212505 
L 327.479318 262.664746 
L 329.118988 261.95524 
L 330.758657 263.168113 
L 332.398326 260.862334 
L 334.037996 263.729082 
L 335.677665 262.179812 
L 337.317335 264.259483 
L 338.957004 264.155953 
L 340.596674 263.453974 
L 342.236343 264.000811 
L 343.876012 262.060153 
L 345.515682 263.456892 
L 347.155351 264.314628 
L 348.795021 263.268418 
L 350.43469 263.460425 
L 352.07436 262.438945 
L 353.714029 264.109871 
L 355.353698 264.491274 
L 356.993368 263.777314 
L 358.633037 264.032607 
L 360.272707 262.763822 
L 361.912376 263.678238 
L 363.552045 254.122566 
L 365.191715 264.244123 
L 366.831384 264.613545 
L 368.471054 264.49788 
L 370.110723 261.640194 
L 371.750393 263.747361 
L 373.390062 262.839703 
L 375.029731 264.43444 
L 376.669401 264.428142 
L 379.94874 261.527601 
L 381.588409 263.820631 
L 383.228079 260.667101 
L 384.867748 264.154263 
L 384.867748 264.154263 
" style="fill:none;stroke:#ff7f0e;stroke-linecap:square;stroke-width:0.5;"/>
   </g>
   <g id="line2d_21">
    <path clip-path="url(#pb8f667a6d3)" d="M 74.970227 263.926773 
L 76.609897 264.569153 
L 78.249566 261.455867 
L 79.889236 264.191128 
L 81.528905 264.43997 
L 83.168574 264.175153 
L 84.808244 263.745825 
L 86.447913 264.222618 
L 88.087583 264.356101 
L 89.727252 263.976387 
L 91.366921 261.530673 
L 93.006591 264.175307 
L 94.64626 262.737863 
L 96.28593 262.302083 
L 97.925599 263.456892 
L 99.565269 263.933531 
L 101.204938 262.926183 
L 102.844607 264.275305 
L 106.123946 264.391277 
L 111.042955 264.183602 
L 112.682624 264.494807 
L 114.322293 262.940315 
L 115.961963 263.355666 
L 117.601632 263.067655 
L 119.241302 264.084526 
L 120.880971 264.259944 
L 122.52064 263.653968 
L 124.16031 262.855218 
L 125.799979 264.360556 
L 127.439649 262.526501 
L 129.079318 263.605275 
L 130.718988 263.544908 
L 132.358657 264.544269 
L 133.998326 264.005419 
L 135.637996 252.380828 
L 137.277665 264.517388 
L 138.917335 263.937218 
L 140.557004 261.524068 
L 142.196674 263.453205 
L 143.836343 264.644573 
L 145.476012 263.798051 
L 147.115682 263.928923 
L 148.755351 264.298653 
L 150.395021 261.397958 
L 152.03469 264.120009 
L 153.67436 263.707884 
L 155.314029 263.881459 
L 156.953698 264.578983 
L 158.593368 263.689451 
L 160.233037 257.673474 
L 161.872707 264.407866 
L 163.512376 263.341534 
L 165.152045 261.528062 
L 166.791715 263.150295 
L 168.431384 262.360453 
L 170.071054 263.50835 
L 171.710723 264.01571 
L 173.350393 263.53093 
L 174.990062 263.265192 
L 176.629731 264.177304 
L 178.269401 263.281474 
L 179.90907 263.966403 
L 181.54874 264.10941 
L 183.188409 260.742675 
L 186.467748 264.327684 
L 188.107417 261.541887 
L 189.747087 262.813744 
L 191.386756 263.161201 
L 193.026426 264.488049 
L 194.666095 263.72647 
L 196.305764 263.594523 
L 197.945434 261.222694 
L 199.585103 263.244609 
L 201.224773 264.40418 
L 202.864442 264.222771 
L 204.504112 264.165937 
L 206.143781 263.717101 
L 209.42312 264.503256 
L 211.062789 264.03998 
L 212.702459 264.119855 
L 214.342128 262.183038 
L 215.981798 264.275765 
L 217.621467 264.289129 
L 219.261136 263.462422 
L 220.900806 264.078843 
L 222.540475 262.796694 
L 224.180145 263.934607 
L 225.819814 264.223539 
L 227.459483 260.85834 
L 229.099153 264.039827 
L 230.738822 264.236749 
L 232.378492 262.767662 
L 234.018161 263.837528 
L 235.657831 263.023416 
L 237.2975 260.483695 
L 238.937169 263.521099 
L 242.216508 264.122313 
L 243.856178 262.068448 
L 245.495847 263.960873 
L 247.135517 263.740909 
L 248.775186 263.017118 
L 250.414855 264.311863 
L 252.054525 262.483338 
L 253.694194 263.536921 
L 255.333864 264.120316 
L 256.973533 262.900531 
L 258.613202 263.665796 
L 260.252872 261.994103 
L 261.892541 264.604943 
L 265.17188 264.319082 
L 268.451219 262.672734 
L 270.090888 263.154749 
L 271.730558 263.46319 
L 273.370227 264.522917 
L 275.009897 264.391431 
L 276.649566 264.044742 
L 278.289236 264.196351 
L 279.928905 262.695467 
L 281.568574 262.194098 
L 283.208244 263.469795 
L 284.847913 263.272719 
L 286.487583 263.565338 
L 288.127252 260.580928 
L 289.766921 262.981635 
L 291.406591 264.186828 
L 293.04626 261.127458 
L 294.68593 263.272719 
L 296.325599 262.786556 
L 297.965269 264.442889 
L 299.604938 262.655223 
L 301.244607 264.337822 
L 302.884277 264.317085 
L 304.523946 263.563495 
L 306.163616 264.449186 
L 307.803285 264.280374 
L 309.442955 264.34965 
L 311.082624 263.955958 
L 312.722293 264.070394 
L 314.361963 262.319901 
L 316.001632 263.818788 
L 317.641302 264.397728 
L 319.280971 264.309405 
L 320.92064 262.109921 
L 322.56031 264.046892 
L 324.199979 263.810954 
L 325.839649 260.409504 
L 327.479318 263.570407 
L 329.118988 264.029996 
L 332.398326 264.262094 
L 334.037996 264.462857 
L 337.317335 264.461475 
L 338.957004 264.574375 
L 342.236343 264.265013 
L 343.876012 261.961231 
L 345.515682 264.11878 
L 347.155351 262.954908 
L 348.795021 261.097658 
L 350.43469 263.935835 
L 352.07436 264.572993 
L 353.714029 263.660574 
L 355.353698 261.931585 
L 356.993368 263.972086 
L 358.633037 263.615721 
L 360.272707 262.812208 
L 361.912376 263.409428 
L 363.552045 255.229757 
L 365.191715 263.4913 
L 366.831384 263.488996 
L 368.471054 262.798844 
L 370.110723 261.784584 
L 371.750393 263.67747 
L 373.390062 263.556121 
L 375.029731 264.119548 
L 376.669401 262.561369 
L 378.30907 264.579752 
L 379.94874 262.850609 
L 381.588409 262.756449 
L 383.228079 264.338437 
L 384.867748 264.110178 
L 386.507417 262.482416 
L 388.147087 261.700254 
L 389.786756 264.107413 
L 391.426426 264.375456 
L 393.066095 264.09067 
L 394.705764 264.124156 
L 396.345434 263.594216 
L 397.985103 262.518513 
L 399.624773 264.257947 
L 399.624773 264.257947 
" style="fill:none;stroke:#2ca02c;stroke-linecap:square;stroke-width:0.5;"/>
   </g>
   <g id="line2d_22">
    <path clip-path="url(#pb8f667a6d3)" d="M 74.970227 264.024466 
L 76.609897 262.211916 
L 78.249566 264.110485 
L 79.889236 262.272744 
L 81.528905 263.656426 
L 83.168574 260.721938 
L 84.808244 264.582824 
L 86.447913 263.840907 
L 88.087583 261.51946 
L 89.727252 263.06873 
L 91.366921 258.934886 
L 93.006591 262.376581 
L 94.64626 262.910516 
L 96.28593 262.047097 
L 97.925599 263.448136 
L 99.565269 261.383212 
L 101.204938 262.510833 
L 102.844607 262.008849 
L 104.484277 264.255029 
L 106.123946 261.613313 
L 107.763616 261.863845 
L 109.403285 264.388512 
L 111.042955 263.129404 
L 112.682624 264.458556 
L 114.322293 264.518616 
L 115.961963 263.676241 
L 117.601632 263.935682 
L 119.241302 261.655862 
L 120.880971 263.813411 
L 122.52064 261.887654 
L 124.16031 262.533413 
L 125.799979 263.986833 
L 127.439649 263.457199 
L 129.079318 264.285903 
L 130.718988 258.473608 
L 132.358657 260.861412 
L 133.998326 262.582567 
L 135.637996 263.269186 
L 137.277665 261.665079 
L 138.917335 264.093281 
L 140.557004 262.821578 
L 142.196674 262.958287 
L 143.836343 262.242483 
L 145.476012 262.55799 
L 147.115682 263.869324 
L 148.755351 263.344299 
L 150.395021 260.31903 
L 152.03469 264.173771 
L 153.67436 262.959055 
L 155.314029 262.767509 
L 156.953698 262.46383 
L 158.593368 262.669815 
L 160.233037 262.05447 
L 161.872707 262.874572 
L 163.512376 263.13094 
L 165.152045 263.040927 
L 166.791715 264.34581 
L 168.431384 261.277838 
L 170.071054 262.27812 
L 171.710723 264.367161 
L 173.350393 263.577934 
L 176.629731 264.068397 
L 178.269401 260.999658 
L 179.90907 264.068397 
L 181.54874 259.716434 
L 183.188409 264.136291 
L 184.828079 264.200806 
L 186.467748 264.012024 
L 188.107417 264.365318 
L 189.747087 264.537971 
L 191.386756 263.157821 
L 193.026426 263.42187 
L 194.666095 262.838321 
L 196.305764 264.37776 
L 197.945434 263.220185 
L 199.585103 263.912334 
L 201.224773 264.428757 
L 202.864442 263.204364 
L 204.504112 263.618025 
L 206.143781 262.52988 
L 207.78345 263.095457 
L 209.42312 262.89024 
L 211.062789 263.279324 
L 212.702459 260.030097 
L 214.342128 264.522457 
L 215.981798 262.051398 
L 217.621467 263.431701 
L 219.261136 262.947074 
L 220.900806 264.413396 
L 222.540475 263.169034 
L 224.180145 263.551974 
L 225.819814 264.493732 
L 227.459483 263.502974 
L 229.099153 264.395117 
L 230.738822 262.929102 
L 232.378492 263.262734 
L 234.018161 264.318007 
L 235.657831 264.135523 
L 237.2975 260.658038 
L 238.937169 263.06873 
L 240.576839 263.486384 
L 242.216508 262.539711 
L 243.856178 263.245837 
L 245.495847 262.199627 
L 247.135517 259.598464 
L 248.775186 262.190257 
L 250.414855 260.652815 
L 252.054525 264.176382 
L 253.694194 264.208332 
L 255.333864 260.389688 
L 256.973533 263.23616 
L 258.613202 263.197759 
L 260.252872 263.836299 
L 261.892541 262.74032 
L 263.532211 263.260891 
L 265.17188 261.274305 
L 266.81155 263.935989 
L 268.451219 264.013253 
L 270.090888 262.366597 
L 273.370227 263.937525 
L 275.009897 264.327991 
L 276.649566 261.819453 
L 278.289236 264.478525 
L 279.928905 263.755502 
L 281.568574 262.64616 
L 283.208244 264.278223 
L 284.847913 264.193893 
L 286.487583 261.950018 
L 288.127252 259.045022 
L 289.766921 263.391302 
L 291.406591 264.295273 
L 294.68593 262.289948 
L 296.325599 264.494347 
L 297.965269 264.143664 
L 299.604938 264.129532 
L 301.244607 261.251264 
L 302.884277 263.560883 
L 304.523946 263.811107 
L 306.163616 262.934785 
L 307.803285 263.173335 
L 309.442955 262.977334 
L 311.082624 264.383443 
L 312.722293 263.529855 
L 314.361963 263.031864 
L 316.001632 263.991441 
L 317.641302 261.409478 
L 319.280971 257.209584 
L 320.92064 263.23232 
L 322.56031 264.217395 
L 324.199979 261.941262 
L 325.839649 264.227994 
L 327.479318 263.717869 
L 329.118988 263.738145 
L 330.758657 264.209408 
L 332.398326 262.318826 
L 334.037996 261.832356 
L 335.677665 262.49025 
L 337.317335 263.98376 
L 338.957004 261.486896 
L 340.596674 262.234189 
L 342.236343 263.520639 
L 343.876012 261.977667 
L 345.515682 262.231424 
L 347.155351 264.050733 
L 350.43469 264.296963 
L 352.07436 262.447394 
L 353.714029 264.36839 
L 356.993368 263.271797 
L 358.633037 263.623401 
L 360.272707 262.732486 
L 361.912376 264.046585 
L 363.552045 264.37392 
L 365.191715 264.215859 
L 366.831384 263.698053 
L 368.471054 263.487613 
L 371.750393 264.254414 
L 373.390062 264.10941 
L 375.029731 263.266421 
L 376.669401 264.385286 
L 378.30907 263.30559 
L 379.94874 263.841829 
L 381.588409 260.950811 
L 383.228079 262.583028 
L 384.867748 260.732537 
L 386.507417 263.753352 
L 388.147087 263.253211 
L 389.786756 264.363167 
L 389.786756 264.363167 
" style="fill:none;stroke:#d62728;stroke-linecap:square;stroke-width:0.5;"/>
   </g>
   <g id="line2d_23">
    <path clip-path="url(#pb8f667a6d3)" d="M 74.970227 264.277762 
L 76.609897 254.510728 
L 78.249566 254.104594 
L 79.889236 263.84997 
L 81.528905 254.148372 
L 83.168574 263.443682 
L 84.808244 261.612392 
L 86.447913 264.558708 
L 88.087583 261.278452 
L 89.727252 262.749537 
L 91.366921 261.186442 
L 93.006591 256.771961 
L 94.64626 260.687991 
L 96.28593 259.431802 
L 97.925599 252.607243 
L 99.565269 259.743775 
L 101.204938 260.667254 
L 102.844607 252.362856 
L 104.484277 256.325889 
L 106.123946 263.565491 
L 107.763616 257.226174 
L 109.403285 263.259969 
L 111.042955 187.491377 
L 112.682624 263.481776 
L 114.322293 262.799766 
L 115.961963 263.488535 
L 117.601632 263.545983 
L 119.241302 249.642955 
L 120.880971 264.030917 
L 122.52064 262.17459 
L 124.16031 263.488228 
L 125.799979 264.02677 
L 127.439649 260.353437 
L 129.079318 264.271157 
L 130.718988 260.241459 
L 132.358657 218.733137 
L 133.998326 241.258528 
L 137.277665 263.707884 
L 138.917335 264.553792 
L 140.557004 259.507376 
L 142.196674 261.323152 
L 143.836343 248.278627 
L 145.476012 241.462671 
L 147.115682 256.543088 
L 148.755351 263.994974 
L 150.395021 263.849662 
L 152.03469 264.459324 
L 153.67436 264.544115 
L 155.314029 264.187596 
L 156.953698 257.734917 
L 158.593368 264.348421 
L 160.233037 264.55456 
L 161.872707 263.188542 
L 163.512376 263.97777 
L 165.152045 264.505713 
L 166.791715 235.735319 
L 168.431384 245.032626 
L 170.071054 222.418759 
L 171.710723 264.187135 
L 173.350393 263.97608 
L 174.990062 263.245069 
L 176.629731 264.461321 
L 178.269401 262.091182 
L 179.90907 264.419848 
L 181.54874 264.537203 
L 183.188409 263.898663 
L 184.828079 264.643498 
L 186.467748 262.799919 
L 188.107417 260.008131 
L 189.747087 229.737928 
L 191.386756 264.463933 
L 193.026426 263.773628 
L 194.666095 264.193893 
L 196.305764 263.974698 
L 197.945434 262.338026 
L 199.585103 263.657962 
L 202.864442 264.136445 
L 204.504112 255.654171 
L 206.143781 263.52878 
L 207.78345 264.636279 
L 209.42312 261.013636 
L 211.062789 263.311274 
L 212.702459 256.264754 
L 214.342128 216.731191 
L 215.981798 260.151292 
L 217.621467 221.206347 
L 219.261136 241.750067 
L 220.900806 255.508399 
L 222.540475 264.104495 
L 224.180145 260.75312 
L 225.819814 262.072749 
L 227.459483 263.871935 
L 229.099153 219.013622 
L 230.738822 225.467222 
L 232.378492 264.142743 
L 234.018161 259.162684 
L 235.657831 247.822264 
L 237.2975 256.911435 
L 238.937169 261.119163 
L 240.576839 262.65169 
L 242.216508 264.357023 
L 243.856178 264.204646 
L 245.495847 262.626959 
L 247.135517 261.634357 
L 248.775186 264.104188 
L 252.054525 264.055648 
L 253.694194 264.335057 
L 255.333864 260.915328 
L 256.973533 262.917428 
L 258.613202 264.63551 
L 260.252872 264.480676 
L 261.892541 264.477143 
L 263.532211 263.697439 
L 265.17188 260.805039 
L 266.81155 205.833617 
L 268.451219 253.925336 
L 270.090888 263.474557 
L 271.730558 264.443657 
L 273.370227 261.254183 
L 275.009897 256.171515 
L 276.649566 256.048323 
L 278.289236 256.658446 
L 279.928905 239.412646 
L 281.568574 261.028843 
L 283.208244 248.430083 
L 284.847913 262.951221 
L 286.487583 196.119116 
L 288.127252 259.71797 
L 289.766921 250.510829 
L 291.406591 258.933811 
L 293.04626 260.838371 
L 294.68593 259.031044 
L 296.325599 259.524273 
L 297.965269 260.951272 
L 299.604938 263.835531 
L 301.244607 258.36209 
L 302.884277 261.404102 
L 304.523946 263.560115 
L 306.163616 263.975466 
L 307.803285 264.09067 
L 309.442955 262.574579 
L 311.082624 252.962687 
L 312.722293 250.871649 
L 314.361963 263.219571 
L 316.001632 263.311427 
L 317.641302 262.881177 
L 319.280971 262.864895 
L 320.92064 264.715846 
L 322.56031 264.715693 
L 324.199979 263.073645 
L 325.839649 238.802676 
L 327.479318 260.264192 
L 329.118988 263.899124 
L 330.758657 258.54227 
L 332.398326 262.190872 
L 334.037996 257.956417 
L 335.677665 242.800425 
L 337.317335 257.576703 
L 338.957004 259.441786 
L 340.596674 264.675448 
L 342.236343 258.163631 
L 343.876012 262.770581 
L 345.515682 243.962915 
L 347.155351 251.88422 
L 348.795021 263.234163 
L 350.43469 258.544881 
L 352.07436 258.730283 
L 353.714029 261.233907 
L 355.353698 261.627599 
L 356.993368 257.075794 
L 358.633037 237.176143 
L 360.272707 251.548591 
L 361.912376 261.899789 
L 363.552045 259.731026 
L 365.191715 261.463855 
L 366.831384 258.048273 
L 368.471054 249.999014 
L 370.110723 264.715232 
L 371.750393 262.32328 
L 373.390062 262.126665 
L 375.029731 253.278501 
L 376.669401 257.980686 
L 378.30907 262.277813 
L 379.94874 256.969806 
L 381.588409 258.635816 
L 383.228079 253.261604 
L 384.867748 225.608847 
L 386.507417 232.651833 
L 388.147087 256.029123 
L 389.786756 253.279269 
L 389.786756 253.279269 
" style="fill:none;stroke:#9467bd;stroke-linecap:square;stroke-width:0.5;"/>
   </g>
   <g id="line2d_24">
    <path clip-path="url(#pb8f667a6d3)" d="M 74.970227 263.748129 
L 76.609897 264.339051 
L 78.249566 248.652658 
L 79.889236 254.640525 
L 81.528905 235.948371 
L 83.168574 258.007567 
L 84.808244 261.055263 
L 86.447913 255.660315 
L 88.087583 262.249856 
L 89.727252 250.672883 
L 91.366921 261.333751 
L 93.006591 264.424917 
L 94.64626 263.688069 
L 96.28593 263.458582 
L 97.925599 264.006341 
L 99.565269 261.101652 
L 101.204938 263.906343 
L 102.844607 216.073297 
L 104.484277 259.844234 
L 106.123946 264.261634 
L 107.763616 264.014328 
L 109.403285 264.44934 
L 111.042955 259.712286 
L 112.682624 261.986729 
L 114.322293 260.382162 
L 115.961963 264.158564 
L 117.601632 264.528601 
L 119.241302 250.710056 
L 120.880971 263.24169 
L 122.52064 207.27951 
L 124.16031 259.58464 
L 125.799979 263.967325 
L 127.439649 257.560881 
L 129.079318 258.939341 
L 130.718988 263.753659 
L 132.358657 256.487329 
L 133.998326 264.193279 
L 135.637996 263.833073 
L 137.277665 262.237414 
L 138.917335 263.489917 
L 140.557004 263.929691 
L 142.196674 262.977949 
L 143.836343 259.344093 
L 145.476012 264.08852 
L 147.115682 263.26427 
L 150.395021 259.661135 
L 152.03469 262.76459 
L 153.67436 241.834243 
L 155.314029 263.351518 
L 156.953698 260.292763 
L 158.593368 229.705057 
L 160.233037 258.506172 
L 161.872707 250.68256 
L 163.512376 243.900858 
L 165.152045 262.685176 
L 166.791715 253.58433 
L 168.431384 261.80655 
L 171.710723 262.210226 
L 173.350393 238.831247 
L 174.990062 262.690859 
L 176.629731 256.335567 
L 178.269401 260.637916 
L 179.90907 263.792675 
L 181.54874 264.083758 
L 183.188409 256.388253 
L 184.828079 263.56672 
L 186.467748 262.747233 
L 188.107417 264.256257 
L 189.747087 263.621404 
L 191.386756 261.541119 
L 193.026426 261.919296 
L 194.666095 264.502334 
L 196.305764 264.655172 
L 197.945434 262.674577 
L 199.585103 262.222361 
L 201.224773 264.57161 
L 202.864442 264.425685 
L 204.504112 259.223973 
L 206.143781 263.173489 
L 207.78345 263.386541 
L 209.42312 258.284058 
L 211.062789 263.480701 
L 212.702459 262.62957 
L 215.981798 262.259841 
L 217.621467 262.774882 
L 219.261136 264.056262 
L 220.900806 264.35349 
L 222.540475 263.658269 
L 224.180145 263.725702 
L 225.819814 264.301571 
L 227.459483 264.212941 
L 229.099153 261.633589 
L 230.738822 263.667947 
L 232.378492 260.911795 
L 234.018161 264.35733 
L 235.657831 264.441045 
L 237.2975 264.029381 
L 238.937169 264.507557 
L 240.576839 263.467337 
L 242.216508 264.41908 
L 243.856178 261.91177 
L 245.495847 264.299881 
L 247.135517 262.876569 
L 248.775186 264.575143 
L 250.414855 264.127843 
L 252.054525 263.466569 
L 253.694194 260.487535 
L 255.333864 258.322613 
L 256.973533 263.116962 
L 258.613202 264.538432 
L 260.252872 264.18053 
L 261.892541 264.29174 
L 263.532211 259.579571 
L 265.17188 263.471945 
L 266.81155 261.005495 
L 268.451219 261.913767 
L 270.090888 263.017579 
L 271.730558 262.092103 
L 273.370227 264.425224 
L 275.009897 262.613288 
L 276.649566 264.208332 
L 278.289236 261.793032 
L 279.928905 262.369823 
L 281.568574 264.213248 
L 283.208244 264.361938 
L 284.847913 264.058413 
L 286.487583 262.616207 
L 288.127252 251.946737 
L 289.766921 262.398854 
L 291.406591 263.316496 
L 293.04626 264.507557 
L 294.68593 262.277659 
L 296.325599 264.013406 
L 297.965269 263.284085 
L 299.604938 264.085601 
L 301.244607 261.745107 
L 302.884277 264.223539 
L 304.523946 260.716562 
L 306.163616 264.240743 
L 309.442955 263.525554 
L 311.082624 264.102037 
L 312.722293 263.135395 
L 314.361963 261.321462 
L 316.001632 264.503102 
L 317.641302 263.123106 
L 319.280971 261.109179 
L 320.92064 261.997021 
L 322.56031 262.246784 
L 324.199979 264.226611 
L 325.839649 264.439202 
L 327.479318 261.913767 
L 329.118988 264.266088 
L 330.758657 263.762414 
L 332.398326 262.044639 
L 334.037996 260.762029 
L 335.677665 263.669943 
L 337.317335 261.791496 
L 338.957004 261.172157 
L 340.596674 264.521381 
L 342.236343 262.288412 
L 343.876012 223.623951 
L 345.515682 240.425677 
L 347.155351 260.639913 
L 348.795021 257.085778 
L 350.43469 257.918476 
L 352.07436 261.836196 
L 353.714029 257.947815 
L 355.353698 256.218058 
L 356.993368 263.304054 
L 358.633037 260.860644 
L 360.272707 263.64936 
L 361.912376 264.067476 
L 363.552045 264.023391 
L 365.191715 263.863794 
L 366.831384 264.553946 
L 368.471054 258.216318 
L 370.110723 264.350418 
L 371.750393 263.469027 
L 373.390062 263.89129 
L 375.029731 252.98112 
L 376.669401 261.96077 
L 378.30907 263.288233 
L 379.94874 264.300803 
L 381.588409 261.633589 
L 383.228079 263.408506 
L 384.867748 263.996971 
L 386.507417 262.906061 
L 388.147087 264.149194 
L 389.786756 260.462037 
L 389.786756 260.462037 
" style="fill:none;stroke:#8c564b;stroke-linecap:square;stroke-width:0.5;"/>
   </g>
   <g id="line2d_25">
    <path clip-path="url(#pb8f667a6d3)" d="M 74.970227 264.328606 
L 76.609897 264.5243 
L 78.249566 263.550899 
L 79.889236 263.405588 
L 81.528905 261.150345 
L 83.168574 264.233217 
L 84.808244 262.570893 
L 86.447913 263.608808 
L 88.087583 256.789779 
L 89.727252 262.997917 
L 91.366921 261.721759 
L 93.006591 260.735916 
L 94.64626 264.546573 
L 96.28593 262.137878 
L 97.925599 260.292149 
L 99.565269 264.120316 
L 101.204938 263.509425 
L 102.844607 258.953012 
L 104.484277 263.759496 
L 106.123946 260.854039 
L 107.763616 262.724345 
L 109.403285 262.556147 
L 111.042955 261.646492 
L 112.682624 264.087137 
L 114.322293 263.477014 
L 115.961963 262.471663 
L 117.601632 264.300189 
L 119.241302 262.20101 
L 120.880971 258.408325 
L 122.52064 259.682487 
L 125.799979 264.41524 
L 127.439649 262.918042 
L 129.079318 263.918785 
L 130.718988 256.888241 
L 132.358657 264.54857 
L 135.637996 261.022852 
L 137.277665 263.834609 
L 138.917335 185.304643 
L 140.557004 263.239847 
L 142.196674 261.001962 
L 143.836343 243.290735 
L 145.476012 263.65873 
L 147.115682 261.520228 
L 148.755351 264.712928 
L 150.395021 263.464726 
L 152.03469 263.675934 
L 153.67436 263.660574 
L 155.314029 263.204978 
L 156.953698 263.083015 
L 158.593368 262.333265 
L 160.233037 258.125998 
L 161.872707 264.061024 
L 163.512376 259.890316 
L 165.152045 261.4594 
L 166.791715 264.077767 
L 168.431384 263.492836 
L 170.071054 252.919678 
L 171.710723 264.523839 
L 173.350393 261.99057 
L 174.990062 258.021546 
L 176.629731 264.01141 
L 178.269401 262.123439 
L 179.90907 263.67363 
L 181.54874 263.05552 
L 183.188409 261.986115 
L 184.828079 182.957237 
L 186.467748 261.44788 
L 189.747087 262.835095 
L 191.386756 257.416953 
L 193.026426 264.48897 
L 194.666095 264.360402 
L 196.305764 257.078405 
L 197.945434 258.56147 
L 199.585103 249.667993 
L 201.224773 264.286211 
L 202.864442 264.229991 
L 204.504112 262.401773 
L 206.143781 262.520971 
L 207.78345 264.343813 
L 209.42312 262.850149 
L 211.062789 264.513547 
L 212.702459 262.425889 
L 214.342128 263.520178 
L 215.981798 261.734662 
L 217.621467 263.094536 
L 219.261136 263.593909 
L 220.900806 260.507351 
L 222.540475 263.591912 
L 224.180145 264.387283 
L 225.819814 263.239386 
L 227.459483 243.393651 
L 229.099153 254.226711 
L 230.738822 241.89415 
L 232.378492 261.450184 
L 234.018161 261.694725 
L 235.657831 259.251161 
L 237.2975 262.729414 
L 238.937169 261.969679 
L 240.576839 263.730464 
L 242.216508 264.580212 
L 243.856178 263.11773 
L 245.495847 264.210329 
L 247.135517 264.395424 
L 248.775186 262.301468 
L 250.414855 264.287747 
L 252.054525 261.964149 
L 253.694194 263.975927 
L 255.333864 263.300521 
L 256.973533 263.416186 
L 258.613202 264.038905 
L 260.252872 257.805729 
L 261.892541 263.263349 
L 263.532211 263.861183 
L 265.17188 262.828951 
L 266.81155 262.509451 
L 268.451219 260.831459 
L 270.090888 250.203156 
L 271.730558 262.859518 
L 273.370227 264.177458 
L 275.009897 257.72186 
L 276.649566 262.428654 
L 278.289236 264.255029 
L 281.568574 264.446422 
L 283.208244 261.702405 
L 284.847913 262.399622 
L 286.487583 262.14264 
L 288.127252 264.715386 
L 289.766921 234.203407 
L 291.406591 257.16212 
L 293.04626 261.25833 
L 296.325599 264.030917 
L 297.965269 264.579905 
L 299.604938 262.862898 
L 301.244607 264.226611 
L 302.884277 262.973801 
L 304.523946 263.019576 
L 306.163616 263.907111 
L 307.803285 263.773013 
L 309.442955 261.785659 
L 311.082624 262.836938 
L 312.722293 264.292969 
L 314.361963 255.874749 
L 316.001632 261.204722 
L 317.641302 264.236749 
L 319.280971 257.496674 
L 320.92064 263.964713 
L 322.56031 258.57084 
L 324.199979 250.073667 
L 325.839649 263.912948 
L 327.479318 258.540887 
L 329.118988 261.765844 
L 330.758657 264.154417 
L 332.398326 259.559295 
L 334.037996 263.894055 
L 335.677665 263.394989 
L 337.317335 263.599131 
L 338.957004 262.178891 
L 340.596674 264.24274 
L 342.236343 263.891136 
L 343.876012 260.457275 
L 345.515682 262.001783 
L 347.155351 261.334672 
L 348.795021 263.494679 
L 350.43469 264.413396 
L 352.07436 262.058156 
L 353.714029 260.566642 
L 355.353698 264.370233 
L 356.993368 264.466544 
L 358.633037 228.618756 
L 360.272707 263.963177 
L 361.912376 264.478372 
L 363.552045 264.280066 
L 365.191715 259.388792 
L 366.831384 259.249779 
L 368.471054 262.104545 
L 370.110723 262.780258 
L 371.750393 260.888447 
L 373.390062 262.552614 
L 375.029731 264.707859 
L 376.669401 262.593012 
L 378.30907 263.117576 
L 379.94874 246.919983 
L 381.588409 256.75061 
L 383.228079 254.487687 
L 384.867748 264.145815 
L 386.507417 264.630902 
L 388.147087 263.188082 
L 389.786756 263.554278 
L 391.426426 264.073159 
L 393.066095 264.436744 
L 394.705764 261.655094 
L 394.705764 261.655094 
" style="fill:none;stroke:#e377c2;stroke-linecap:square;stroke-width:0.5;"/>
   </g>
   <g id="line2d_26">
    <path clip-path="url(#pb8f667a6d3)" d="M 74.970227 264.099887 
L 76.609897 263.25659 
L 78.249566 263.259355 
L 79.889236 264.174539 
L 81.528905 262.39056 
L 83.168574 262.041106 
L 84.808244 263.24338 
L 86.447913 262.969961 
L 88.087583 261.846334 
L 89.727252 262.47704 
L 91.366921 262.723731 
L 93.006591 263.280552 
L 94.64626 263.201753 
L 96.28593 264.38329 
L 97.925599 263.163044 
L 99.565269 262.434952 
L 101.204938 262.369055 
L 102.844607 261.913306 
L 104.484277 263.438613 
L 111.042955 264.622915 
L 112.682624 264.352722 
L 114.322293 263.13816 
L 115.961963 263.641526 
L 117.601632 263.881612 
L 119.241302 263.156439 
L 120.880971 262.210841 
L 122.52064 263.275176 
L 124.16031 264.022162 
L 125.799979 263.883917 
L 127.439649 264.040441 
L 129.079318 263.806038 
L 130.718988 263.787913 
L 132.358657 263.347217 
L 133.998326 263.682846 
L 135.637996 263.830462 
L 137.277665 263.706963 
L 138.917335 263.079482 
L 140.557004 263.956111 
L 142.196674 263.60251 
L 143.836343 262.958441 
L 147.115682 263.330782 
L 148.755351 262.875033 
L 150.395021 263.787606 
L 153.67436 263.961795 
L 155.314029 264.578062 
L 156.953698 263.899584 
L 160.233037 263.479319 
L 161.872707 262.831716 
L 163.512376 264.468234 
L 165.152045 263.079021 
L 166.791715 263.445064 
L 168.431384 263.225408 
L 170.071054 264.070241 
L 171.710723 263.761185 
L 173.350393 264.386822 
L 174.990062 263.079789 
L 176.629731 262.972112 
L 178.269401 260.047915 
L 179.90907 262.867813 
L 183.188409 263.668868 
L 184.828079 263.376863 
L 186.467748 263.87854 
L 188.107417 263.947049 
L 189.747087 263.770248 
L 191.386756 262.554303 
L 193.026426 263.671326 
L 194.666095 262.614056 
L 196.305764 263.967785 
L 197.945434 263.577934 
L 199.585103 263.807421 
L 201.224773 263.820938 
L 202.864442 263.120188 
L 204.504112 263.222182 
L 206.143781 263.83507 
L 207.78345 262.595931 
L 209.42312 263.584846 
L 211.062789 264.137213 
L 212.702459 264.059488 
L 214.342128 263.454742 
L 215.981798 264.228455 
L 217.621467 263.741831 
L 219.261136 263.441992 
L 220.900806 263.898663 
L 222.540475 263.722784 
L 224.180145 263.390841 
L 225.819814 263.354898 
L 227.459483 263.641987 
L 229.099153 263.764411 
L 230.738822 263.606197 
L 232.378492 264.505406 
L 234.018161 264.002654 
L 235.657831 262.701765 
L 237.2975 263.914791 
L 238.937169 263.291919 
L 240.576839 264.140439 
L 242.216508 264.13967 
L 243.856178 263.472406 
L 245.495847 264.324766 
L 247.135517 264.190821 
L 248.775186 263.791292 
L 250.414855 264.642116 
L 252.054525 264.332292 
L 253.694194 264.318161 
L 255.333864 263.297295 
L 256.973533 263.779465 
L 258.613202 263.957647 
L 260.252872 263.70942 
L 261.892541 263.940904 
L 263.532211 263.366572 
L 265.17188 263.844901 
L 266.81155 262.945845 
L 268.451219 263.857343 
L 271.730558 264.030917 
L 273.370227 263.079789 
L 275.009897 264.40633 
L 276.649566 263.34691 
L 278.289236 263.500055 
L 279.928905 264.036447 
L 281.568574 263.754427 
L 283.208244 262.56736 
L 284.847913 263.960566 
L 288.127252 263.060589 
L 289.766921 263.548902 
L 291.406591 264.261787 
L 293.04626 263.708345 
L 294.68593 264.022776 
L 296.325599 264.097736 
L 297.965269 263.519102 
L 299.604938 264.171928 
L 301.244607 264.504024 
L 302.884277 264.188364 
L 304.523946 263.474403 
L 306.163616 263.073184 
L 307.803285 263.601589 
L 309.442955 263.293609 
L 311.082624 263.640605 
L 312.722293 262.916967 
L 314.361963 264.084065 
L 316.001632 263.60804 
L 317.641302 264.142435 
L 319.280971 264.388819 
L 320.92064 264.026617 
L 322.56031 264.513394 
L 324.199979 263.485002 
L 327.479318 263.861644 
L 329.118988 264.424763 
L 330.758657 264.446729 
L 332.398326 263.649975 
L 334.037996 263.807728 
L 335.677665 263.367493 
L 337.317335 263.627548 
L 338.957004 263.394221 
L 340.596674 264.01525 
L 343.876012 263.471638 
L 345.515682 263.665028 
L 347.155351 263.67194 
L 348.795021 264.54903 
L 350.43469 262.35523 
L 352.07436 264.017093 
L 353.714029 263.737684 
L 355.353698 262.978256 
L 356.993368 264.069319 
L 358.633037 263.918939 
L 361.912376 264.113711 
L 363.552045 263.989751 
L 366.831384 264.505406 
L 368.471054 263.924008 
L 370.110723 263.184549 
L 371.750393 264.252571 
L 373.390062 264.361631 
L 375.029731 263.601128 
L 376.669401 263.801123 
L 378.30907 264.535359 
L 379.94874 263.624169 
L 381.588409 264.035372 
L 383.228079 264.14689 
L 384.867748 263.893594 
L 386.507417 264.571918 
L 388.147087 263.624015 
L 389.786756 262.359378 
L 391.426426 262.652765 
L 393.066095 263.685919 
L 393.066095 263.685919 
" style="fill:none;stroke:#7f7f7f;stroke-linecap:square;stroke-width:0.5;"/>
   </g>
   <g id="line2d_27">
    <path clip-path="url(#pb8f667a6d3)" d="M 74.970227 263.35413 
L 76.609897 264.559015 
L 78.249566 263.711571 
L 79.889236 264.461936 
L 81.528905 264.060256 
L 83.168574 261.230988 
L 84.808244 261.754785 
L 86.447913 263.381625 
L 89.727252 257.64644 
L 91.366921 264.457635 
L 93.006591 263.920014 
L 94.64626 264.335364 
L 96.28593 264.324151 
L 97.925599 262.891929 
L 99.565269 263.636918 
L 101.204938 264.094357 
L 104.484277 263.82017 
L 106.123946 262.959977 
L 107.763616 262.902682 
L 109.403285 263.632771 
L 111.042955 261.91392 
L 112.682624 264.095893 
L 114.322293 258.054724 
L 115.961963 263.907418 
L 117.601632 263.034629 
L 119.241302 264.523685 
L 120.880971 263.902656 
L 122.52064 261.89134 
L 124.16031 263.9535 
L 125.799979 264.457174 
L 127.439649 263.223565 
L 130.718988 262.262145 
L 132.358657 263.930613 
L 133.998326 260.793365 
L 135.637996 262.7437 
L 137.277665 263.99098 
L 138.917335 264.360095 
L 140.557004 264.345656 
L 142.196674 260.213502 
L 143.836343 264.337669 
L 145.476012 263.603279 
L 147.115682 263.945052 
L 148.755351 262.511294 
L 150.395021 263.595598 
L 152.03469 254.444063 
L 153.67436 264.549491 
L 155.314029 259.720735 
L 156.953698 264.090056 
L 158.593368 259.450849 
L 160.233037 249.165395 
L 161.872707 258.579135 
L 163.512376 262.102088 
L 165.152045 262.752609 
L 168.431384 260.611649 
L 170.071054 264.551642 
L 171.710723 263.686994 
L 173.350393 253.356379 
L 174.990062 262.397318 
L 176.629731 261.632053 
L 178.269401 264.352415 
L 179.90907 263.516491 
L 181.54874 264.478986 
L 183.188409 263.231245 
L 186.467748 262.064915 
L 188.107417 263.301136 
L 189.747087 263.687762 
L 191.386756 261.308713 
L 193.026426 264.334596 
L 194.666095 264.276994 
L 196.305764 264.469002 
L 197.945434 263.000836 
L 199.585103 262.61421 
L 201.224773 262.969808 
L 202.864442 261.840957 
L 204.504112 263.398368 
L 206.143781 263.830154 
L 207.78345 260.604583 
L 209.42312 262.893312 
L 211.062789 261.031915 
L 212.702459 264.435055 
L 214.342128 264.231066 
L 215.981798 262.262913 
L 217.621467 261.870757 
L 219.261136 256.770271 
L 220.900806 259.105235 
L 222.540475 261.745415 
L 224.180145 262.251085 
L 225.819814 262.415444 
L 227.459483 257.896203 
L 229.099153 261.564313 
L 230.738822 264.259022 
L 232.378492 262.344324 
L 234.018161 262.632335 
L 235.657831 263.086087 
L 237.2975 261.09136 
L 238.937169 263.009592 
L 240.576839 264.406023 
L 242.216508 263.642448 
L 243.856178 261.427297 
L 245.495847 260.664797 
L 247.135517 263.191922 
L 248.775186 260.198756 
L 252.054525 264.247655 
L 253.694194 264.180222 
L 255.333864 263.14369 
L 256.973533 262.282575 
L 258.613202 262.568128 
L 260.252872 264.537203 
L 261.892541 262.829565 
L 263.532211 262.222668 
L 265.17188 263.476707 
L 266.81155 263.650743 
L 268.451219 261.430062 
L 270.090888 264.354872 
L 271.730558 260.725932 
L 273.370227 263.494833 
L 275.009897 262.912359 
L 276.649566 263.92324 
L 278.289236 262.418362 
L 281.568574 264.151191 
L 283.208244 262.399161 
L 284.847913 264.388051 
L 286.487583 260.320412 
L 288.127252 262.562137 
L 289.766921 263.250906 
L 291.406591 262.916045 
L 293.04626 262.32159 
L 294.68593 263.176561 
L 296.325599 264.225843 
L 297.965269 262.444014 
L 299.604938 264.03061 
L 301.244607 264.243201 
L 302.884277 262.729107 
L 304.523946 264.416929 
L 306.163616 264.47914 
L 307.803285 263.010667 
L 309.442955 264.384826 
L 311.082624 262.032043 
L 312.722293 263.043692 
L 314.361963 264.382829 
L 316.001632 263.908954 
L 317.641302 262.187185 
L 319.280971 263.280245 
L 320.92064 263.126486 
L 322.56031 264.124463 
L 324.199979 264.148119 
L 325.839649 263.066426 
L 327.479318 260.754042 
L 329.118988 263.791753 
L 330.758657 261.9365 
L 332.398326 261.940955 
L 334.037996 262.717894 
L 335.677665 262.479958 
L 337.317335 263.56288 
L 338.957004 262.473353 
L 340.596674 262.234957 
L 342.236343 262.337105 
L 343.876012 262.151856 
L 345.515682 261.551257 
L 347.155351 261.854475 
L 348.795021 261.502717 
L 350.43469 263.917403 
L 352.07436 264.186213 
L 353.714029 260.808265 
L 355.353698 262.432955 
L 356.993368 262.951528 
L 358.633037 264.301264 
L 360.272707 264.263016 
L 361.912376 263.743214 
L 363.552045 262.931099 
L 365.191715 262.965507 
L 366.831384 261.82191 
L 368.471054 262.315753 
L 370.110723 264.490199 
L 371.750393 262.865356 
L 373.390062 264.066247 
L 375.029731 263.567028 
L 376.669401 262.004701 
L 378.30907 264.364396 
L 379.94874 263.486384 
L 381.588409 264.40034 
L 383.228079 262.480419 
L 384.867748 263.57778 
L 386.507417 261.501181 
L 388.147087 262.070291 
L 389.786756 263.246298 
L 391.426426 262.287336 
L 393.066095 262.846155 
L 394.705764 262.404998 
L 396.345434 264.33091 
L 396.345434 264.33091 
" style="fill:none;stroke:#bcbd22;stroke-linecap:square;stroke-width:0.5;"/>
   </g>
   <g id="line2d_28">
    <path clip-path="url(#pb8f667a6d3)" d="M 74.970227 263.798358 
L 76.609897 261.260634 
L 78.249566 261.10073 
L 79.889236 258.990492 
L 81.528905 264.468234 
L 83.168574 250.87933 
L 84.808244 263.187928 
L 86.447913 262.058924 
L 88.087583 263.831844 
L 89.727252 264.335825 
L 91.366921 261.879359 
L 93.006591 253.449618 
L 94.64626 262.179198 
L 96.28593 258.905241 
L 97.925599 263.036933 
L 99.565269 263.003908 
L 101.204938 260.550053 
L 102.844607 256.312526 
L 104.484277 260.975695 
L 106.123946 263.877158 
L 107.763616 262.74032 
L 109.403285 262.9993 
L 111.042955 263.414036 
L 112.682624 263.66257 
L 114.322293 264.535513 
L 115.961963 251.605579 
L 117.601632 262.520357 
L 119.241302 262.424046 
L 120.880971 264.562087 
L 122.52064 259.633486 
L 124.16031 261.797487 
L 125.799979 264.31386 
L 127.439649 263.980381 
L 129.079318 260.580928 
L 130.718988 263.577165 
L 132.358657 263.389305 
L 133.998326 261.305334 
L 135.637996 258.125076 
L 137.277665 263.751815 
L 138.917335 263.290383 
L 140.557004 260.248985 
L 142.196674 254.828231 
L 143.836343 261.777825 
L 145.476012 259.975413 
L 147.115682 259.772807 
L 148.755351 263.698668 
L 150.395021 263.525554 
L 152.03469 259.886783 
L 153.67436 263.223411 
L 155.314029 259.623809 
L 158.593368 262.067065 
L 160.233037 260.438228 
L 161.872707 256.616358 
L 163.512376 257.949197 
L 165.152045 263.271336 
L 166.791715 261.658934 
L 168.431384 259.549003 
L 170.071054 258.126305 
L 171.710723 261.112251 
L 173.350393 263.429857 
L 174.990062 264.258408 
L 176.629731 263.834916 
L 178.269401 263.725088 
L 179.90907 259.232575 
L 181.54874 256.38426 
L 183.188409 260.550514 
L 184.828079 262.490864 
L 186.467748 255.258635 
L 188.107417 264.43782 
L 189.747087 263.647056 
L 191.386756 264.396192 
L 193.026426 259.454075 
L 194.666095 263.131708 
L 196.305764 262.03573 
L 197.945434 262.134806 
L 199.585103 258.166242 
L 201.224773 263.681771 
L 202.864442 255.755704 
L 204.504112 263.094689 
L 206.143781 261.176919 
L 207.78345 262.651997 
L 209.42312 262.835556 
L 211.062789 253.686478 
L 212.702459 262.351851 
L 214.342128 257.522019 
L 215.981798 264.309712 
L 217.621467 254.966477 
L 219.261136 247.534253 
L 220.900806 228.819672 
L 222.540475 216.109241 
L 224.180145 260.549285 
L 225.819814 263.103138 
L 227.459483 251.822317 
L 229.099153 259.119521 
L 230.738822 200.463707 
L 232.378492 262.428039 
L 234.018161 263.543987 
L 235.657831 264.1601 
L 237.2975 263.260123 
L 238.937169 263.381779 
L 240.576839 262.913895 
L 242.216508 263.129558 
L 243.856178 260.568947 
L 245.495847 254.117036 
L 247.135517 260.324406 
L 248.775186 261.011946 
L 250.414855 253.461907 
L 252.054525 262.118984 
L 253.694194 262.607605 
L 255.333864 264.068551 
L 256.973533 264.147044 
L 258.613202 243.240967 
L 260.252872 261.708242 
L 261.892541 258.84472 
L 263.532211 264.693881 
L 265.17188 182.446343 
L 266.81155 261.903014 
L 268.451219 256.986856 
L 270.090888 261.576909 
L 271.730558 241.066674 
L 273.370227 253.578801 
L 275.009897 263.425403 
L 276.649566 236.386301 
L 278.289236 250.551381 
L 279.928905 257.144148 
L 281.568574 249.227144 
L 283.208244 257.562725 
L 284.847913 263.839064 
L 286.487583 256.219287 
L 288.127252 264.445807 
L 289.766921 262.313296 
L 291.406591 258.802939 
L 293.04626 261.460168 
L 294.68593 261.077689 
L 296.325599 263.283471 
L 297.965269 260.600129 
L 299.604938 255.082449 
L 301.244607 263.023109 
L 302.884277 251.742902 
L 304.523946 256.266598 
L 306.163616 199.017353 
L 307.803285 245.509419 
L 309.442955 232.616811 
L 311.082624 262.159843 
L 312.722293 262.17674 
L 314.361963 199.585849 
L 316.001632 262.971958 
L 317.641302 258.879281 
L 319.280971 235.404452 
L 320.92064 260.646671 
L 322.56031 264.715232 
L 325.839649 264.70448 
L 327.479318 263.019883 
L 329.118988 245.90772 
L 330.758657 261.180298 
L 332.398326 262.153546 
L 334.037996 258.520304 
L 335.677665 228.088047 
L 337.317335 237.442342 
L 338.957004 264.434594 
L 340.596674 22.796 
L 342.236343 259.005699 
L 343.876012 244.671652 
L 345.515682 258.821525 
L 347.155351 253.004161 
L 348.795021 255.475527 
L 350.43469 256.499464 
L 352.07436 251.063196 
L 353.714029 263.276866 
L 355.353698 256.820347 
L 356.993368 264.044896 
L 358.633037 257.014659 
L 360.272707 264.395271 
L 361.912376 257.208816 
L 363.552045 220.460897 
L 365.191715 230.529306 
L 366.831384 263.92324 
L 368.471054 255.727133 
L 370.110723 219.387652 
L 371.750393 264.715846 
L 373.390062 264.716 
L 375.029731 255.493038 
L 376.669401 264.572225 
L 378.30907 260.981993 
L 379.94874 249.095811 
L 381.588409 263.737684 
L 383.228079 256.766278 
L 384.867748 244.581025 
L 386.507417 264.182066 
L 388.147087 263.986525 
L 389.786756 262.351851 
L 391.426426 236.598124 
L 393.066095 262.344785 
L 393.066095 262.344785 
" style="fill:none;stroke:#17becf;stroke-linecap:square;stroke-width:0.5;"/>
   </g>
   <g id="line2d_29">
    <path clip-path="url(#pb8f667a6d3)" d="M 74.970227 250.463979 
L 76.609897 260.911027 
L 78.249566 158.956 
L 79.889236 197.233066 
L 81.528905 260.633154 
L 83.168574 260.421331 
L 84.808244 263.82954 
L 86.447913 232.60099 
L 88.087583 259.172361 
L 89.727252 251.91832 
L 91.366921 259.792776 
L 93.006591 258.662082 
L 94.64626 261.203032 
L 96.28593 253.847918 
L 97.925599 251.783608 
L 99.565269 260.913024 
L 101.204938 260.880152 
L 102.844607 263.285314 
L 104.484277 255.949555 
L 106.123946 262.153392 
L 107.763616 262.865356 
L 109.403285 263.211583 
L 111.042955 261.441275 
L 112.682624 258.997097 
L 114.322293 263.636611 
L 115.961963 258.982044 
L 117.601632 258.903704 
L 120.880971 264.471459 
L 122.52064 261.711621 
L 124.16031 264.36286 
L 125.799979 261.237747 
L 127.439649 264.552717 
L 129.079318 264.530751 
L 130.718988 261.857393 
L 132.358657 260.715026 
L 133.998326 263.811722 
L 135.637996 262.957826 
L 137.277665 262.468438 
L 138.917335 264.525529 
L 142.196674 263.640758 
L 143.836343 264.332753 
L 145.476012 263.781308 
L 147.115682 259.769888 
L 148.755351 263.116962 
L 150.395021 262.547238 
L 152.03469 263.682539 
L 153.67436 264.100808 
L 155.314029 258.621838 
L 156.953698 261.539122 
L 158.593368 262.507914 
L 160.233037 261.682129 
L 161.872707 263.79544 
L 163.512376 261.559859 
L 165.152045 263.852888 
L 166.791715 255.265087 
L 168.431384 264.024159 
L 171.710723 259.941313 
L 173.350393 263.479933 
L 176.629731 251.937675 
L 178.269401 262.709906 
L 179.90907 247.564667 
L 181.54874 183.695928 
L 183.188409 262.958902 
L 184.828079 262.791625 
L 186.467748 261.689809 
L 188.107417 252.572528 
L 189.747087 264.123695 
L 191.386756 241.087718 
L 193.026426 254.617791 
L 194.666095 235.601836 
L 197.945434 258.616461 
L 199.585103 264.62399 
L 201.224773 257.292378 
L 202.864442 263.766562 
L 204.504112 263.333086 
L 206.143781 260.617179 
L 207.78345 261.09474 
L 211.062789 260.74928 
L 212.702459 206.370009 
L 214.342128 252.739498 
L 215.981798 255.300416 
L 217.621467 263.12157 
L 219.261136 239.347056 
L 222.540475 257.185622 
L 224.180145 259.559141 
L 225.819814 262.32712 
L 227.459483 264.322001 
L 229.099153 243.623138 
L 230.738822 260.005981 
L 232.378492 261.848023 
L 234.018161 231.8666 
L 235.657831 263.438767 
L 237.2975 255.716227 
L 238.937169 252.804166 
L 240.576839 264.05273 
L 242.216508 257.282547 
L 243.856178 226.725101 
L 245.495847 259.16207 
L 247.135517 217.676482 
L 248.775186 264.022469 
L 250.414855 173.697256 
L 252.054525 263.01635 
L 253.694194 261.283368 
L 255.333864 260.886143 
L 256.973533 259.650383 
L 258.613202 263.784073 
L 260.252872 255.187209 
L 261.892541 208.066587 
L 263.532211 254.318567 
L 265.17188 253.58602 
L 266.81155 257.673474 
L 268.451219 262.732333 
L 270.090888 263.914945 
L 271.730558 264.716 
L 273.370227 260.354052 
L 275.009897 260.154211 
L 276.649566 264.491889 
L 278.289236 264.716 
L 279.928905 264.714925 
L 281.568574 264.290204 
L 283.208244 253.838548 
L 284.847913 261.44235 
L 286.487583 263.565184 
L 288.127252 249.591958 
L 289.766921 263.426939 
L 291.406591 243.311011 
L 293.04626 253.79262 
L 294.68593 263.092692 
L 296.325599 259.108615 
L 297.965269 246.564385 
L 299.604938 263.355973 
L 301.244607 261.760007 
L 302.884277 255.196425 
L 304.523946 251.343834 
L 306.163616 256.665512 
L 307.803285 256.16445 
L 309.442955 253.24394 
L 311.082624 186.640093 
L 312.722293 259.547621 
L 314.361963 262.515134 
L 316.001632 261.899789 
L 317.641302 260.845591 
L 319.280971 257.139694 
L 320.92064 257.278707 
L 322.56031 261.304719 
L 324.199979 257.870858 
L 325.839649 257.430623 
L 327.479318 259.859594 
L 329.118988 258.54227 
L 330.758657 223.94299 
L 332.398326 248.422403 
L 334.037996 262.799305 
L 335.677665 257.000066 
L 337.317335 258.955931 
L 338.957004 255.695337 
L 340.596674 256.201315 
L 342.236343 255.686121 
L 343.876012 140.661839 
L 345.515682 259.366366 
L 347.155351 189.554612 
L 348.795021 236.024559 
L 350.43469 256.411755 
L 352.07436 259.087571 
L 353.714029 260.984911 
L 355.353698 222.922125 
L 356.993368 249.466309 
L 358.633037 225.403169 
L 360.272707 261.130991 
L 361.912376 261.068166 
L 363.552045 264.538739 
L 365.191715 257.749202 
L 366.831384 264.310788 
L 368.471054 262.496394 
L 370.110723 263.182398 
L 371.750393 261.259252 
L 373.390062 247.331032 
L 375.029731 256.398545 
L 376.669401 258.739961 
L 378.30907 263.907111 
L 379.94874 257.652123 
L 381.588409 259.468821 
L 383.228079 252.685889 
L 384.867748 261.501796 
L 386.507417 260.310121 
L 388.147087 262.632796 
L 389.786756 261.687812 
L 391.426426 263.9194 
L 391.426426 263.9194 
" style="fill:none;stroke:#1f77b4;stroke-linecap:square;stroke-width:0.5;"/>
   </g>
   <g id="line2d_30">
    <path clip-path="url(#pb8f667a6d3)" d="M 74.970227 262.896384 
L 78.249566 263.907725 
L 79.889236 264.052269 
L 81.528905 261.30733 
L 83.168574 264.197734 
L 84.808244 263.792982 
L 86.447913 262.397472 
L 88.087583 262.979024 
L 89.727252 238.968417 
L 91.366921 264.451798 
L 93.006591 264.161636 
L 94.64626 262.142793 
L 96.28593 263.443375 
L 97.925599 263.027717 
L 99.565269 262.85445 
L 101.204938 264.444425 
L 102.844607 264.205414 
L 104.484277 264.337669 
L 106.123946 263.841214 
L 107.763616 262.061536 
L 109.403285 263.539686 
L 111.042955 263.381011 
L 112.682624 264.284367 
L 114.322293 262.609294 
L 115.961963 263.259969 
L 117.601632 263.404205 
L 119.241302 264.485437 
L 120.880971 264.271618 
L 122.52064 261.536818 
L 124.16031 264.424917 
L 125.799979 263.931842 
L 127.439649 264.08683 
L 129.079318 263.013432 
L 130.718988 264.508939 
L 132.358657 264.370079 
L 133.998326 264.008491 
L 135.637996 263.850584 
L 137.277665 261.468156 
L 138.917335 263.957033 
L 140.557004 263.734151 
L 142.196674 264.376992 
L 143.836343 259.84193 
L 145.476012 263.92708 
L 147.115682 263.742599 
L 148.755351 264.557632 
L 150.395021 264.334443 
L 152.03469 263.506353 
L 153.67436 260.093536 
L 155.314029 263.56288 
L 156.953698 260.724703 
L 158.593368 264.646417 
L 160.233037 264.692191 
L 161.872707 261.336055 
L 163.512376 264.53751 
L 165.152045 263.327249 
L 166.791715 263.413882 
L 168.431384 263.200831 
L 170.071054 262.412372 
L 171.710723 264.286211 
L 173.350393 262.07536 
L 174.990062 264.339205 
L 176.629731 264.224922 
L 178.269401 263.130633 
L 179.90907 263.206822 
L 181.54874 263.481008 
L 183.188409 263.463497 
L 184.828079 263.004676 
L 186.467748 263.004369 
L 188.107417 262.528805 
L 189.747087 264.014174 
L 191.386756 264.580059 
L 193.026426 264.557632 
L 194.666095 264.343966 
L 197.945434 262.838935 
L 199.585103 263.214963 
L 201.224773 264.220928 
L 202.864442 264.208332 
L 204.504112 261.873983 
L 206.143781 264.392045 
L 207.78345 263.628163 
L 209.42312 261.126229 
L 211.062789 264.347499 
L 212.702459 264.176229 
L 214.342128 264.481751 
L 215.981798 263.023416 
L 217.621467 263.943208 
L 219.261136 263.382547 
L 220.900806 264.214784 
L 222.540475 262.412679 
L 224.180145 263.727546 
L 225.819814 264.480829 
L 227.459483 262.38119 
L 229.099153 262.878719 
L 230.738822 262.569357 
L 232.378492 263.093768 
L 235.657831 263.077332 
L 237.2975 264.353336 
L 238.937169 263.95903 
L 240.576839 264.62184 
L 242.216508 264.275765 
L 243.856178 263.583771 
L 245.495847 264.406791 
L 248.775186 263.144611 
L 250.414855 263.69452 
L 252.054525 261.933582 
L 253.694194 260.436999 
L 255.333864 263.323869 
L 256.973533 264.547648 
L 258.613202 264.493732 
L 260.252872 262.797769 
L 261.892541 263.693445 
L 263.532211 261.814691 
L 265.17188 263.06873 
L 266.81155 263.811261 
L 268.451219 263.900967 
L 270.090888 262.91666 
L 271.730558 262.194405 
L 273.370227 262.418055 
L 275.009897 262.12436 
L 276.649566 264.418926 
L 278.289236 264.444732 
L 279.928905 260.725164 
L 281.568574 264.482058 
L 283.208244 261.016554 
L 284.847913 263.125871 
L 286.487583 264.355948 
L 288.127252 263.704044 
L 289.766921 263.767176 
L 291.406591 264.135523 
L 293.04626 261.80655 
L 294.68593 264.475299 
L 297.965269 264.400647 
L 299.604938 263.088699 
L 302.884277 263.706041 
L 304.523946 263.371948 
L 306.163616 264.360709 
L 307.803285 264.05872 
L 309.442955 264.352108 
L 311.082624 262.412986 
L 312.722293 263.751047 
L 314.361963 255.094584 
L 316.001632 263.152291 
L 317.641302 263.900199 
L 319.280971 264.416776 
L 322.56031 264.190975 
L 324.199979 263.712492 
L 325.839649 264.477604 
L 327.479318 262.675959 
L 329.118988 264.431675 
L 330.758657 247.91028 
L 332.398326 262.017297 
L 334.037996 262.585639 
L 335.677665 263.97608 
L 337.317335 263.616642 
L 338.957004 264.572532 
L 340.596674 264.561472 
L 342.236343 263.919246 
L 345.515682 264.234445 
L 347.155351 261.076 
L 348.795021 264.54135 
L 350.43469 264.211097 
L 352.07436 264.32922 
L 353.714029 263.128175 
L 355.353698 264.358252 
L 356.993368 264.590043 
L 358.633037 264.00972 
L 360.272707 262.607758 
L 361.912376 264.347807 
L 363.552045 264.376531 
L 365.191715 264.159639 
L 366.831384 262.117602 
L 368.471054 263.1569 
L 370.110723 263.594369 
L 370.110723 263.594369 
" style="fill:none;stroke:#ff7f0e;stroke-linecap:square;stroke-width:0.5;"/>
   </g>
   <g id="line2d_31">
    <path clip-path="url(#pb8f667a6d3)" d="M 74.970227 262.043564 
L 76.609897 263.96671 
L 78.249566 264.205567 
L 79.889236 263.695749 
L 81.528905 262.3305 
L 83.168574 263.303747 
L 86.447913 264.162097 
L 88.087583 264.100194 
L 89.727252 263.724627 
L 91.366921 263.952886 
L 93.006591 263.289462 
L 94.64626 264.097429 
L 96.28593 263.622172 
L 97.925599 264.235981 
L 99.565269 264.178379 
L 101.204938 264.526604 
L 102.844607 264.055494 
L 104.484277 263.946127 
L 106.123946 264.520306 
L 107.763616 263.921396 
L 109.403285 264.075156 
L 111.042955 263.714489 
L 112.682624 263.543526 
L 114.322293 263.871474 
L 115.961963 263.271182 
L 117.601632 263.573018 
L 119.241302 263.566413 
L 120.880971 263.834609 
L 122.52064 263.21527 
L 125.799979 264.066861 
L 127.439649 263.821399 
L 129.079318 264.090056 
L 130.718988 262.210994 
L 132.358657 263.330014 
L 135.637996 263.753044 
L 137.277665 263.316803 
L 138.917335 263.595137 
L 140.557004 264.156874 
L 142.196674 263.683614 
L 143.836343 264.145968 
L 145.476012 264.038751 
L 147.115682 264.339358 
L 148.755351 264.40971 
L 150.395021 264.023084 
L 152.03469 263.400519 
L 153.67436 263.943976 
L 155.314029 263.169188 
L 156.953698 264.283906 
L 158.593368 263.455817 
L 160.233037 264.059795 
L 161.872707 263.888371 
L 163.512376 263.830001 
L 165.152045 262.939547 
L 166.791715 261.827747 
L 168.431384 264.262709 
L 170.071054 262.541247 
L 171.710723 261.692267 
L 173.350393 263.250138 
L 174.990062 261.174922 
L 176.629731 263.364421 
L 178.269401 260.96141 
L 179.90907 263.077793 
L 181.54874 260.276174 
L 183.188409 264.274229 
L 186.467748 262.809443 
L 188.107417 263.685458 
L 189.747087 262.209151 
L 191.386756 263.367033 
L 194.666095 261.965532 
L 196.305764 264.486974 
L 197.945434 263.564263 
L 199.585103 261.297346 
L 202.864442 263.910798 
L 204.504112 260.476322 
L 206.143781 264.044128 
L 207.78345 263.22848 
L 209.42312 261.965685 
L 211.062789 262.303926 
L 212.702459 263.533849 
L 214.342128 262.667972 
L 215.981798 264.412475 
L 217.621467 264.198655 
L 219.261136 263.334775 
L 220.900806 263.727699 
L 222.540475 261.176151 
L 224.180145 264.446268 
L 225.819814 261.474454 
L 227.459483 261.508554 
L 229.099153 264.199577 
L 230.738822 264.490046 
L 232.378492 259.98678 
L 234.018161 263.92155 
L 235.657831 263.530008 
L 237.2975 261.340356 
L 238.937169 264.214016 
L 240.576839 258.52952 
L 242.216508 264.006033 
L 243.856178 263.244609 
L 245.495847 264.285135 
L 247.135517 260.575091 
L 248.775186 263.212044 
L 250.414855 263.774088 
L 252.054525 261.328221 
L 253.694194 264.073005 
L 255.333864 263.100987 
L 256.973533 263.313117 
L 258.613202 264.033222 
L 260.252872 264.392813 
L 263.532211 264.284674 
L 265.17188 263.838142 
L 266.81155 261.736659 
L 268.451219 262.02252 
L 270.090888 260.062508 
L 271.730558 262.623426 
L 273.370227 260.742829 
L 275.009897 263.673476 
L 276.649566 263.40697 
L 278.289236 262.59716 
L 279.928905 263.665182 
L 283.208244 264.293891 
L 284.847913 263.924622 
L 286.487583 264.344274 
L 288.127252 262.531416 
L 289.766921 264.389741 
L 291.406591 263.528319 
L 293.04626 263.090695 
L 294.68593 263.994359 
L 296.325599 262.916199 
L 297.965269 263.846898 
L 299.604938 264.491274 
L 301.244607 262.921729 
L 302.884277 264.0323 
L 306.163616 263.315882 
L 307.803285 264.108642 
L 311.082624 263.877158 
L 312.722293 264.440585 
L 314.361963 263.527704 
L 316.001632 264.048121 
L 317.641302 264.399265 
L 319.280971 263.434005 
L 320.92064 262.719891 
L 322.56031 263.535538 
L 324.199979 263.151063 
L 325.839649 263.824778 
L 327.479318 262.958287 
L 329.118988 264.247963 
L 330.758657 262.981482 
L 332.398326 263.5552 
L 334.037996 261.094893 
L 335.677665 263.217574 
L 338.957004 264.012946 
L 340.596674 263.099297 
L 342.236343 263.466108 
L 343.876012 264.025848 
L 347.155351 261.609012 
L 348.795021 263.932149 
L 350.43469 262.407149 
L 352.07436 261.807011 
L 353.714029 263.785609 
L 355.353698 263.79375 
L 356.993368 264.284367 
L 358.633037 263.052908 
L 360.272707 264.473917 
L 361.912376 260.618408 
L 363.552045 264.400493 
L 365.191715 264.017707 
L 366.831384 262.90898 
L 368.471054 263.955343 
L 370.110723 263.637686 
L 371.750393 262.198398 
L 373.390062 263.980074 
L 375.029731 263.04277 
L 376.669401 263.728621 
L 378.30907 261.781358 
L 379.94874 263.405741 
L 381.588409 263.444604 
L 383.228079 264.508939 
L 384.867748 262.506686 
L 386.507417 264.054266 
L 388.147087 263.744289 
L 389.786756 262.593012 
L 391.426426 263.692216 
L 393.066095 264.447343 
L 393.066095 264.447343 
" style="fill:none;stroke:#2ca02c;stroke-linecap:square;stroke-width:0.5;"/>
   </g>
   <g id="patch_3">
    <path d="M 58.7375 276.812 
L 58.7375 10.7 
" style="fill:none;stroke:#000000;stroke-linecap:square;stroke-linejoin:miter;stroke-width:0.8;"/>
   </g>
   <g id="patch_4">
    <path d="M 415.8575 276.812 
L 415.8575 10.7 
" style="fill:none;stroke:#000000;stroke-linecap:square;stroke-linejoin:miter;stroke-width:0.8;"/>
   </g>
   <g id="patch_5">
    <path d="M 58.7375 276.812 
L 415.8575 276.812 
" style="fill:none;stroke:#000000;stroke-linecap:square;stroke-linejoin:miter;stroke-width:0.8;"/>
   </g>
   <g id="patch_6">
    <path d="M 58.7375 10.7 
L 415.8575 10.7 
" style="fill:none;stroke:#000000;stroke-linecap:square;stroke-linejoin:miter;stroke-width:0.8;"/>
   </g>
  </g>
 </g>
 <defs>
  <clipPath id="pb8f667a6d3">
   <rect height="266.112" width="357.12" x="58.7375" y="10.7"/>
  </clipPath>
 </defs>
</svg>
