<?xml version="1.0" encoding="utf-8" standalone="no"?>
<!DOCTYPE svg PUBLIC "-//W3C//DTD SVG 1.1//EN"
  "http://www.w3.org/Graphics/SVG/1.1/DTD/svg11.dtd">
<!-- Created with matplotlib (http://matplotlib.org/) -->
<svg height="300pt" version="1.1" viewBox="0 0 426 300" width="426pt" xmlns="http://www.w3.org/2000/svg" xmlns:xlink="http://www.w3.org/1999/xlink">
 <defs>
  <style type="text/css">
*{stroke-linecap:butt;stroke-linejoin:round;}
  </style>
 </defs>
 <g id="figure_1">
  <g id="patch_1">
   <path d="M 0 300.690125 
L 426.5575 300.690125 
L 426.5575 0 
L 0 0 
z
" style="fill:#ffffff;"/>
  </g>
  <g id="axes_1">
   <g id="patch_2">
    <path d="M 58.7375 276.812 
L 415.8575 276.812 
L 415.8575 10.7 
L 58.7375 10.7 
z
" style="fill:#ffffff;"/>
   </g>
   <g id="matplotlib.axis_1">
    <g id="xtick_1">
     <g id="line2d_1">
      <defs>
       <path d="M 0 0 
L 0 3.5 
" id="m22dd6b0d5d" style="stroke:#000000;stroke-width:0.8;"/>
      </defs>
      <g>
       <use style="stroke:#000000;stroke-width:0.8;" x="74.970227" xlink:href="#m22dd6b0d5d" y="276.812"/>
      </g>
     </g>
     <g id="text_1">
      <!-- 0 -->
      <defs>
       <path d="M 31.78125 66.40625 
Q 24.171875 66.40625 20.328125 58.90625 
Q 16.5 51.421875 16.5 36.375 
Q 16.5 21.390625 20.328125 13.890625 
Q 24.171875 6.390625 31.78125 6.390625 
Q 39.453125 6.390625 43.28125 13.890625 
Q 47.125 21.390625 47.125 36.375 
Q 47.125 51.421875 43.28125 58.90625 
Q 39.453125 66.40625 31.78125 66.40625 
M 31.78125 74.21875 
Q 44.046875 74.21875 50.515625 64.515625 
Q 56.984375 54.828125 56.984375 36.375 
Q 56.984375 17.96875 50.515625 8.265625 
Q 44.046875 -1.421875 31.78125 -1.421875 
Q 19.53125 -1.421875 13.0625 8.265625 
Q 6.59375 17.96875 6.59375 36.375 
Q 6.59375 54.828125 13.0625 64.515625 
Q 19.53125 74.21875 31.78125 74.21875 
" id="DejaVuSans-30"/>
      </defs>
      <g transform="translate(71.788977 291.410437)scale(0.1 -0.1)">
       <use xlink:href="#DejaVuSans-30"/>
      </g>
     </g>
    </g>
    <g id="xtick_2">
     <g id="line2d_2">
      <g>
       <use style="stroke:#000000;stroke-width:0.8;" x="115.961963" xlink:href="#m22dd6b0d5d" y="276.812"/>
      </g>
     </g>
     <g id="text_2">
      <!-- 25 -->
      <defs>
       <path d="M 19.1875 8.296875 
L 53.609375 8.296875 
L 53.609375 0 
L 7.328125 0 
L 7.328125 8.296875 
Q 12.9375 14.109375 22.625 23.890625 
Q 32.328125 33.6875 34.8125 36.53125 
Q 39.546875 41.84375 41.421875 45.53125 
Q 43.3125 49.21875 43.3125 52.78125 
Q 43.3125 58.59375 39.234375 62.25 
Q 35.15625 65.921875 28.609375 65.921875 
Q 23.96875 65.921875 18.8125 64.3125 
Q 13.671875 62.703125 7.8125 59.421875 
L 7.8125 69.390625 
Q 13.765625 71.78125 18.9375 73 
Q 24.125 74.21875 28.421875 74.21875 
Q 39.75 74.21875 46.484375 68.546875 
Q 53.21875 62.890625 53.21875 53.421875 
Q 53.21875 48.921875 51.53125 44.890625 
Q 49.859375 40.875 45.40625 35.40625 
Q 44.1875 33.984375 37.640625 27.21875 
Q 31.109375 20.453125 19.1875 8.296875 
" id="DejaVuSans-32"/>
       <path d="M 10.796875 72.90625 
L 49.515625 72.90625 
L 49.515625 64.59375 
L 19.828125 64.59375 
L 19.828125 46.734375 
Q 21.96875 47.46875 24.109375 47.828125 
Q 26.265625 48.1875 28.421875 48.1875 
Q 40.625 48.1875 47.75 41.5 
Q 54.890625 34.8125 54.890625 23.390625 
Q 54.890625 11.625 47.5625 5.09375 
Q 40.234375 -1.421875 26.90625 -1.421875 
Q 22.3125 -1.421875 17.546875 -0.640625 
Q 12.796875 0.140625 7.71875 1.703125 
L 7.71875 11.625 
Q 12.109375 9.234375 16.796875 8.0625 
Q 21.484375 6.890625 26.703125 6.890625 
Q 35.15625 6.890625 40.078125 11.328125 
Q 45.015625 15.765625 45.015625 23.390625 
Q 45.015625 31 40.078125 35.4375 
Q 35.15625 39.890625 26.703125 39.890625 
Q 22.75 39.890625 18.8125 39.015625 
Q 14.890625 38.140625 10.796875 36.28125 
z
" id="DejaVuSans-35"/>
      </defs>
      <g transform="translate(109.599463 291.410437)scale(0.1 -0.1)">
       <use xlink:href="#DejaVuSans-32"/>
       <use x="63.623047" xlink:href="#DejaVuSans-35"/>
      </g>
     </g>
    </g>
    <g id="xtick_3">
     <g id="line2d_3">
      <g>
       <use style="stroke:#000000;stroke-width:0.8;" x="156.953698" xlink:href="#m22dd6b0d5d" y="276.812"/>
      </g>
     </g>
     <g id="text_3">
      <!-- 50 -->
      <g transform="translate(150.591198 291.410437)scale(0.1 -0.1)">
       <use xlink:href="#DejaVuSans-35"/>
       <use x="63.623047" xlink:href="#DejaVuSans-30"/>
      </g>
     </g>
    </g>
    <g id="xtick_4">
     <g id="line2d_4">
      <g>
       <use style="stroke:#000000;stroke-width:0.8;" x="197.945434" xlink:href="#m22dd6b0d5d" y="276.812"/>
      </g>
     </g>
     <g id="text_4">
      <!-- 75 -->
      <defs>
       <path d="M 8.203125 72.90625 
L 55.078125 72.90625 
L 55.078125 68.703125 
L 28.609375 0 
L 18.3125 0 
L 43.21875 64.59375 
L 8.203125 64.59375 
z
" id="DejaVuSans-37"/>
      </defs>
      <g transform="translate(191.582934 291.410437)scale(0.1 -0.1)">
       <use xlink:href="#DejaVuSans-37"/>
       <use x="63.623047" xlink:href="#DejaVuSans-35"/>
      </g>
     </g>
    </g>
    <g id="xtick_5">
     <g id="line2d_5">
      <g>
       <use style="stroke:#000000;stroke-width:0.8;" x="238.937169" xlink:href="#m22dd6b0d5d" y="276.812"/>
      </g>
     </g>
     <g id="text_5">
      <!-- 100 -->
      <defs>
       <path d="M 12.40625 8.296875 
L 28.515625 8.296875 
L 28.515625 63.921875 
L 10.984375 60.40625 
L 10.984375 69.390625 
L 28.421875 72.90625 
L 38.28125 72.90625 
L 38.28125 8.296875 
L 54.390625 8.296875 
L 54.390625 0 
L 12.40625 0 
z
" id="DejaVuSans-31"/>
      </defs>
      <g transform="translate(229.393419 291.410437)scale(0.1 -0.1)">
       <use xlink:href="#DejaVuSans-31"/>
       <use x="63.623047" xlink:href="#DejaVuSans-30"/>
       <use x="127.246094" xlink:href="#DejaVuSans-30"/>
      </g>
     </g>
    </g>
    <g id="xtick_6">
     <g id="line2d_6">
      <g>
       <use style="stroke:#000000;stroke-width:0.8;" x="279.928905" xlink:href="#m22dd6b0d5d" y="276.812"/>
      </g>
     </g>
     <g id="text_6">
      <!-- 125 -->
      <g transform="translate(270.385155 291.410437)scale(0.1 -0.1)">
       <use xlink:href="#DejaVuSans-31"/>
       <use x="63.623047" xlink:href="#DejaVuSans-32"/>
       <use x="127.246094" xlink:href="#DejaVuSans-35"/>
      </g>
     </g>
    </g>
    <g id="xtick_7">
     <g id="line2d_7">
      <g>
       <use style="stroke:#000000;stroke-width:0.8;" x="320.92064" xlink:href="#m22dd6b0d5d" y="276.812"/>
      </g>
     </g>
     <g id="text_7">
      <!-- 150 -->
      <g transform="translate(311.37689 291.410437)scale(0.1 -0.1)">
       <use xlink:href="#DejaVuSans-31"/>
       <use x="63.623047" xlink:href="#DejaVuSans-35"/>
       <use x="127.246094" xlink:href="#DejaVuSans-30"/>
      </g>
     </g>
    </g>
    <g id="xtick_8">
     <g id="line2d_8">
      <g>
       <use style="stroke:#000000;stroke-width:0.8;" x="361.912376" xlink:href="#m22dd6b0d5d" y="276.812"/>
      </g>
     </g>
     <g id="text_8">
      <!-- 175 -->
      <g transform="translate(352.368626 291.410437)scale(0.1 -0.1)">
       <use xlink:href="#DejaVuSans-31"/>
       <use x="63.623047" xlink:href="#DejaVuSans-37"/>
       <use x="127.246094" xlink:href="#DejaVuSans-35"/>
      </g>
     </g>
    </g>
    <g id="xtick_9">
     <g id="line2d_9">
      <g>
       <use style="stroke:#000000;stroke-width:0.8;" x="402.904112" xlink:href="#m22dd6b0d5d" y="276.812"/>
      </g>
     </g>
     <g id="text_9">
      <!-- 200 -->
      <g transform="translate(393.360362 291.410437)scale(0.1 -0.1)">
       <use xlink:href="#DejaVuSans-32"/>
       <use x="63.623047" xlink:href="#DejaVuSans-30"/>
       <use x="127.246094" xlink:href="#DejaVuSans-30"/>
      </g>
     </g>
    </g>
   </g>
   <g id="matplotlib.axis_2">
    <g id="ytick_1">
     <g id="line2d_10">
      <defs>
       <path d="M 0 0 
L -3.5 0 
" id="m2ef81a74bb" style="stroke:#000000;stroke-width:0.8;"/>
      </defs>
      <g>
       <use style="stroke:#000000;stroke-width:0.8;" x="58.7375" xlink:href="#m2ef81a74bb" y="264.716"/>
      </g>
     </g>
     <g id="text_10">
      <!-- 0 -->
      <g transform="translate(45.375 268.515219)scale(0.1 -0.1)">
       <use xlink:href="#DejaVuSans-30"/>
      </g>
     </g>
    </g>
    <g id="ytick_2">
     <g id="line2d_11">
      <g>
       <use style="stroke:#000000;stroke-width:0.8;" x="58.7375" xlink:href="#m2ef81a74bb" y="220.339019"/>
      </g>
     </g>
     <g id="text_11">
      <!-- 200000 -->
      <g transform="translate(13.5625 224.138238)scale(0.1 -0.1)">
       <use xlink:href="#DejaVuSans-32"/>
       <use x="63.623047" xlink:href="#DejaVuSans-30"/>
       <use x="127.246094" xlink:href="#DejaVuSans-30"/>
       <use x="190.869141" xlink:href="#DejaVuSans-30"/>
       <use x="254.492188" xlink:href="#DejaVuSans-30"/>
       <use x="318.115234" xlink:href="#DejaVuSans-30"/>
      </g>
     </g>
    </g>
    <g id="ytick_3">
     <g id="line2d_12">
      <g>
       <use style="stroke:#000000;stroke-width:0.8;" x="58.7375" xlink:href="#m2ef81a74bb" y="175.962039"/>
      </g>
     </g>
     <g id="text_12">
      <!-- 400000 -->
      <defs>
       <path d="M 37.796875 64.3125 
L 12.890625 25.390625 
L 37.796875 25.390625 
z
M 35.203125 72.90625 
L 47.609375 72.90625 
L 47.609375 25.390625 
L 58.015625 25.390625 
L 58.015625 17.1875 
L 47.609375 17.1875 
L 47.609375 0 
L 37.796875 0 
L 37.796875 17.1875 
L 4.890625 17.1875 
L 4.890625 26.703125 
z
" id="DejaVuSans-34"/>
      </defs>
      <g transform="translate(13.5625 179.761258)scale(0.1 -0.1)">
       <use xlink:href="#DejaVuSans-34"/>
       <use x="63.623047" xlink:href="#DejaVuSans-30"/>
       <use x="127.246094" xlink:href="#DejaVuSans-30"/>
       <use x="190.869141" xlink:href="#DejaVuSans-30"/>
       <use x="254.492188" xlink:href="#DejaVuSans-30"/>
       <use x="318.115234" xlink:href="#DejaVuSans-30"/>
      </g>
     </g>
    </g>
    <g id="ytick_4">
     <g id="line2d_13">
      <g>
       <use style="stroke:#000000;stroke-width:0.8;" x="58.7375" xlink:href="#m2ef81a74bb" y="131.585058"/>
      </g>
     </g>
     <g id="text_13">
      <!-- 600000 -->
      <defs>
       <path d="M 33.015625 40.375 
Q 26.375 40.375 22.484375 35.828125 
Q 18.609375 31.296875 18.609375 23.390625 
Q 18.609375 15.53125 22.484375 10.953125 
Q 26.375 6.390625 33.015625 6.390625 
Q 39.65625 6.390625 43.53125 10.953125 
Q 47.40625 15.53125 47.40625 23.390625 
Q 47.40625 31.296875 43.53125 35.828125 
Q 39.65625 40.375 33.015625 40.375 
M 52.59375 71.296875 
L 52.59375 62.3125 
Q 48.875 64.0625 45.09375 64.984375 
Q 41.3125 65.921875 37.59375 65.921875 
Q 27.828125 65.921875 22.671875 59.328125 
Q 17.53125 52.734375 16.796875 39.40625 
Q 19.671875 43.65625 24.015625 45.921875 
Q 28.375 48.1875 33.59375 48.1875 
Q 44.578125 48.1875 50.953125 41.515625 
Q 57.328125 34.859375 57.328125 23.390625 
Q 57.328125 12.15625 50.6875 5.359375 
Q 44.046875 -1.421875 33.015625 -1.421875 
Q 20.359375 -1.421875 13.671875 8.265625 
Q 6.984375 17.96875 6.984375 36.375 
Q 6.984375 53.65625 15.1875 63.9375 
Q 23.390625 74.21875 37.203125 74.21875 
Q 40.921875 74.21875 44.703125 73.484375 
Q 48.484375 72.75 52.59375 71.296875 
" id="DejaVuSans-36"/>
      </defs>
      <g transform="translate(13.5625 135.384277)scale(0.1 -0.1)">
       <use xlink:href="#DejaVuSans-36"/>
       <use x="63.623047" xlink:href="#DejaVuSans-30"/>
       <use x="127.246094" xlink:href="#DejaVuSans-30"/>
       <use x="190.869141" xlink:href="#DejaVuSans-30"/>
       <use x="254.492188" xlink:href="#DejaVuSans-30"/>
       <use x="318.115234" xlink:href="#DejaVuSans-30"/>
      </g>
     </g>
    </g>
    <g id="ytick_5">
     <g id="line2d_14">
      <g>
       <use style="stroke:#000000;stroke-width:0.8;" x="58.7375" xlink:href="#m2ef81a74bb" y="87.208078"/>
      </g>
     </g>
     <g id="text_14">
      <!-- 800000 -->
      <defs>
       <path d="M 31.78125 34.625 
Q 24.75 34.625 20.71875 30.859375 
Q 16.703125 27.09375 16.703125 20.515625 
Q 16.703125 13.921875 20.71875 10.15625 
Q 24.75 6.390625 31.78125 6.390625 
Q 38.8125 6.390625 42.859375 10.171875 
Q 46.921875 13.96875 46.921875 20.515625 
Q 46.921875 27.09375 42.890625 30.859375 
Q 38.875 34.625 31.78125 34.625 
M 21.921875 38.8125 
Q 15.578125 40.375 12.03125 44.71875 
Q 8.5 49.078125 8.5 55.328125 
Q 8.5 64.0625 14.71875 69.140625 
Q 20.953125 74.21875 31.78125 74.21875 
Q 42.671875 74.21875 48.875 69.140625 
Q 55.078125 64.0625 55.078125 55.328125 
Q 55.078125 49.078125 51.53125 44.71875 
Q 48 40.375 41.703125 38.8125 
Q 48.828125 37.15625 52.796875 32.3125 
Q 56.78125 27.484375 56.78125 20.515625 
Q 56.78125 9.90625 50.3125 4.234375 
Q 43.84375 -1.421875 31.78125 -1.421875 
Q 19.734375 -1.421875 13.25 4.234375 
Q 6.78125 9.90625 6.78125 20.515625 
Q 6.78125 27.484375 10.78125 32.3125 
Q 14.796875 37.15625 21.921875 38.8125 
M 18.3125 54.390625 
Q 18.3125 48.734375 21.84375 45.5625 
Q 25.390625 42.390625 31.78125 42.390625 
Q 38.140625 42.390625 41.71875 45.5625 
Q 45.3125 48.734375 45.3125 54.390625 
Q 45.3125 60.0625 41.71875 63.234375 
Q 38.140625 66.40625 31.78125 66.40625 
Q 25.390625 66.40625 21.84375 63.234375 
Q 18.3125 60.0625 18.3125 54.390625 
" id="DejaVuSans-38"/>
      </defs>
      <g transform="translate(13.5625 91.007297)scale(0.1 -0.1)">
       <use xlink:href="#DejaVuSans-38"/>
       <use x="63.623047" xlink:href="#DejaVuSans-30"/>
       <use x="127.246094" xlink:href="#DejaVuSans-30"/>
       <use x="190.869141" xlink:href="#DejaVuSans-30"/>
       <use x="254.492188" xlink:href="#DejaVuSans-30"/>
       <use x="318.115234" xlink:href="#DejaVuSans-30"/>
      </g>
     </g>
    </g>
    <g id="ytick_6">
     <g id="line2d_15">
      <g>
       <use style="stroke:#000000;stroke-width:0.8;" x="58.7375" xlink:href="#m2ef81a74bb" y="42.831097"/>
      </g>
     </g>
     <g id="text_15">
      <!-- 1000000 -->
      <g transform="translate(7.2 46.630316)scale(0.1 -0.1)">
       <use xlink:href="#DejaVuSans-31"/>
       <use x="63.623047" xlink:href="#DejaVuSans-30"/>
       <use x="127.246094" xlink:href="#DejaVuSans-30"/>
       <use x="190.869141" xlink:href="#DejaVuSans-30"/>
       <use x="254.492188" xlink:href="#DejaVuSans-30"/>
       <use x="318.115234" xlink:href="#DejaVuSans-30"/>
       <use x="381.738281" xlink:href="#DejaVuSans-30"/>
      </g>
     </g>
    </g>
   </g>
   <g id="line2d_16">
    <path clip-path="url(#padf5570fc6)" d="M 74.970227 262.207591 
L 76.609897 262.677322 
L 78.249566 262.772288 
L 79.889236 261.886302 
L 81.528905 264.342124 
L 83.168574 257.913896 
L 84.808244 263.652728 
L 86.447913 261.532839 
L 88.087583 264.215871 
L 89.727252 264.380288 
L 91.366921 252.101178 
L 94.64626 262.546631 
L 96.28593 262.776504 
L 97.925599 262.828647 
L 99.565269 261.972393 
L 101.204938 260.13918 
L 102.844607 259.148464 
L 104.484277 263.793181 
L 106.123946 251.134425 
L 107.763616 260.259442 
L 109.403285 263.453697 
L 111.042955 263.234696 
L 112.682624 263.634311 
L 114.322293 264.477696 
L 115.961963 263.76012 
L 117.601632 264.462829 
L 119.241302 256.18741 
L 120.880971 262.669999 
L 122.52064 261.26924 
L 124.16031 262.935596 
L 125.799979 262.531987 
L 127.439649 257.504519 
L 129.079318 264.513419 
L 130.718988 254.758249 
L 132.358657 261.488906 
L 133.998326 257.145287 
L 135.637996 257.512063 
L 137.277665 259.490832 
L 138.917335 262.042287 
L 140.557004 262.142801 
L 142.196674 259.183966 
L 143.836343 260.35929 
L 145.476012 262.472744 
L 147.115682 263.089362 
L 148.755351 261.858566 
L 150.395021 264.42289 
L 152.03469 264.367197 
L 153.67436 259.785939 
L 155.314029 256.499824 
L 156.953698 261.911375 
L 158.593368 259.084783 
L 160.233037 262.678209 
L 161.872707 261.710569 
L 163.512376 260.604251 
L 166.791715 263.497852 
L 168.431384 258.814305 
L 170.071054 260.682798 
L 171.710723 263.788299 
L 173.350393 261.950205 
L 174.990062 263.145942 
L 176.629731 262.69596 
L 178.269401 262.683312 
L 179.90907 263.357399 
L 181.54874 253.948369 
L 183.188409 263.828904 
L 184.828079 263.845767 
L 186.467748 264.444413 
L 188.107417 263.636974 
L 189.747087 264.073421 
L 191.386756 260.75247 
L 193.026426 263.907895 
L 194.666095 261.588976 
L 196.305764 264.058333 
L 197.945434 263.528472 
L 199.585103 262.808899 
L 201.224773 263.280405 
L 202.864442 255.334928 
L 204.504112 259.828763 
L 206.143781 261.503328 
L 207.78345 259.134263 
L 209.42312 262.052937 
L 211.062789 261.490237 
L 212.702459 247.610005 
L 214.342128 263.886372 
L 215.981798 260.499965 
L 217.621467 263.745254 
L 219.261136 263.254222 
L 220.900806 264.533389 
L 222.540475 262.767851 
L 224.180145 264.238947 
L 225.819814 264.1533 
L 227.459483 262.622072 
L 229.099153 263.684901 
L 230.738822 262.736121 
L 232.378492 258.416909 
L 234.018161 264.631018 
L 235.657831 263.339648 
L 237.2975 262.988182 
L 238.937169 262.99728 
L 240.576839 259.96966 
L 242.216508 262.081561 
L 243.856178 263.845546 
L 245.495847 263.215392 
L 247.135517 263.448593 
L 248.775186 263.245125 
L 250.414855 261.427 
L 252.054525 262.926942 
L 253.694194 263.620554 
L 255.333864 262.03208 
L 256.973533 261.340243 
L 258.613202 258.986932 
L 260.252872 263.712858 
L 261.892541 260.044657 
L 263.532211 261.2222 
L 265.17188 257.863085 
L 266.81155 262.258403 
L 268.451219 261.472486 
L 270.090888 263.332326 
L 271.730558 261.918697 
L 273.370227 263.471891 
L 275.009897 262.683534 
L 278.289236 264.244716 
L 279.928905 261.773362 
L 281.568574 254.116114 
L 283.208244 263.161696 
L 284.847913 262.639157 
L 286.487583 263.131298 
L 288.127252 250.675123 
L 289.766921 259.49993 
L 291.406591 263.831123 
L 293.04626 262.396415 
L 294.68593 260.174016 
L 296.325599 263.993543 
L 297.965269 263.382916 
L 299.604938 262.981969 
L 301.244607 258.662758 
L 302.884277 261.096835 
L 304.523946 263.312578 
L 306.163616 263.156593 
L 307.803285 257.34343 
L 309.442955 262.894325 
L 311.082624 264.055449 
L 312.722293 261.665526 
L 316.001632 262.153895 
L 317.641302 262.29923 
L 319.280971 249.45986 
L 320.92064 262.788264 
L 322.56031 264.27223 
L 324.199979 262.229558 
L 325.839649 263.345861 
L 327.479318 262.039402 
L 329.118988 261.930235 
L 330.758657 263.389572 
L 332.398326 261.41524 
L 334.037996 251.579748 
L 335.677665 260.809938 
L 337.317335 264.226078 
L 338.957004 263.249563 
L 340.596674 246.161097 
L 342.236343 263.888147 
L 343.876012 262.601215 
L 345.515682 263.190319 
L 347.155351 264.053008 
L 348.795021 263.028122 
L 350.43469 264.501215 
L 352.07436 258.36277 
L 353.714029 264.118686 
L 355.353698 264.227631 
L 356.993368 261.799545 
L 358.633037 261.084854 
L 360.272707 259.072136 
L 361.912376 262.655799 
L 363.552045 263.677579 
L 365.191715 263.870175 
L 366.831384 264.354106 
L 368.471054 260.114773 
L 371.750393 263.412648 
L 373.390062 263.919211 
L 375.029731 260.721184 
L 376.669401 261.221535 
L 378.30907 261.191136 
L 379.94874 262.651361 
L 381.588409 257.845334 
L 383.228079 263.386909 
L 384.867748 260.46757 
L 386.507417 263.731275 
L 388.147087 261.389502 
L 389.786756 263.484983 
L 389.786756 263.484983 
" style="fill:none;stroke:#1f77b4;stroke-linecap:square;stroke-width:0.5;"/>
   </g>
   <g id="line2d_17">
    <path clip-path="url(#padf5570fc6)" d="M 74.970227 263.020134 
L 76.609897 259.285589 
L 78.249566 264.00974 
L 79.889236 259.687201 
L 81.528905 263.334323 
L 83.168574 263.038772 
L 84.808244 263.90257 
L 89.727252 262.414388 
L 91.366921 263.940734 
L 93.006591 262.883009 
L 94.64626 262.142801 
L 96.28593 262.948687 
L 97.925599 264.285543 
L 99.565269 264.096941 
L 101.204938 263.447484 
L 102.844607 260.455588 
L 104.484277 263.21273 
L 106.123946 264.205443 
L 107.763616 263.152599 
L 109.403285 260.230375 
L 111.042955 263.985555 
L 112.682624 260.91733 
L 114.322293 261.884083 
L 115.961963 262.032968 
L 117.601632 259.042625 
L 119.241302 261.736751 
L 120.880971 261.384176 
L 122.52064 263.444156 
L 124.16031 259.440243 
L 125.799979 261.466052 
L 127.439649 260.677029 
L 129.079318 263.611457 
L 130.718988 258.872883 
L 132.358657 258.649223 
L 133.998326 261.551034 
L 135.637996 261.588532 
L 137.277665 253.763317 
L 138.917335 262.052272 
L 140.557004 264.466158 
L 142.196674 259.537872 
L 143.836343 259.548523 
L 145.476012 261.657095 
L 147.115682 263.225377 
L 148.755351 264.140874 
L 150.395021 263.032337 
L 152.03469 263.275967 
L 153.67436 262.846842 
L 155.314029 261.346012 
L 156.953698 262.850614 
L 158.593368 264.157294 
L 160.233037 263.950053 
L 161.872707 262.317424 
L 163.512376 259.893332 
L 165.152045 261.02561 
L 166.791715 257.047436 
L 168.431384 261.711013 
L 170.071054 259.210814 
L 171.710723 256.275498 
L 173.350393 259.438468 
L 174.990062 253.205943 
L 176.629731 257.00084 
L 178.269401 256.120845 
L 179.90907 261.418125 
L 181.54874 257.583066 
L 183.188409 263.804941 
L 186.467748 261.174495 
L 188.107417 258.022176 
L 189.747087 258.068328 
L 191.386756 262.450777 
L 193.026426 252.787468 
L 194.666095 259.56117 
L 196.305764 264.41468 
L 197.945434 263.921874 
L 199.585103 260.292503 
L 201.224773 259.148242 
L 202.864442 263.527806 
L 204.504112 254.12854 
L 206.143781 262.964662 
L 207.78345 264.035479 
L 209.42312 260.197092 
L 211.062789 258.859348 
L 212.702459 263.455028 
L 214.342128 263.448593 
L 215.981798 264.616152 
L 217.621467 262.965772 
L 219.261136 249.108838 
L 220.900806 261.672405 
L 222.540475 252.971854 
L 224.180145 264.33458 
L 225.819814 263.386909 
L 227.459483 260.822142 
L 230.738822 264.464161 
L 232.378492 262.475184 
L 234.018161 264.674064 
L 235.657831 264.306844 
L 237.2975 257.877951 
L 238.937169 262.810231 
L 240.576839 262.281479 
L 242.216508 264.112251 
L 243.856178 258.628366 
L 245.495847 264.233622 
L 247.135517 257.152387 
L 248.775186 262.497151 
L 250.414855 263.953382 
L 252.054525 263.198307 
L 253.694194 263.105559 
L 255.333864 262.839741 
L 256.973533 254.466249 
L 258.613202 260.445825 
L 260.252872 263.89081 
L 261.892541 264.556687 
L 263.532211 263.693111 
L 265.17188 263.48587 
L 266.81155 261.816852 
L 268.451219 252.345473 
L 270.090888 264.014844 
L 271.730558 258.737533 
L 273.370227 262.696404 
L 275.009897 261.199568 
L 276.649566 264.479914 
L 278.289236 261.676621 
L 279.928905 262.466309 
L 283.208244 262.563495 
L 284.847913 263.846433 
L 286.487583 264.216981 
L 288.127252 261.383733 
L 289.766921 263.487423 
L 291.406591 263.64474 
L 293.04626 262.512239 
L 294.68593 262.712157 
L 296.325599 262.053825 
L 297.965269 263.934078 
L 299.604938 263.229593 
L 301.244607 262.653802 
L 302.884277 263.327666 
L 304.523946 261.541049 
L 306.163616 254.247248 
L 307.803285 260.0309 
L 309.442955 262.487388 
L 311.082624 263.063179 
L 312.722293 264.33813 
L 314.361963 262.500923 
L 316.001632 262.925167 
L 317.641302 264.362094 
L 319.280971 260.157597 
L 320.92064 261.916478 
L 322.56031 262.202044 
L 324.199979 256.767861 
L 325.839649 257.134859 
L 329.118988 263.073386 
L 330.758657 259.968107 
L 332.398326 264.065877 
L 334.037996 260.872066 
L 335.677665 261.791335 
L 337.317335 263.256663 
L 338.957004 261.397933 
L 340.596674 262.387762 
L 342.236343 264.210102 
L 343.876012 261.472708 
L 345.515682 262.637604 
L 347.155351 257.069181 
L 348.795021 263.562642 
L 350.43469 258.307298 
L 352.07436 260.977683 
L 353.714029 263.036109 
L 356.993368 258.892853 
L 358.633037 257.351862 
L 360.272707 264.48413 
L 361.912376 259.156008 
L 363.552045 263.241131 
L 365.191715 257.880614 
L 366.831384 259.771517 
L 368.471054 259.699182 
L 370.110723 261.641785 
L 373.390062 261.052015 
L 375.029731 263.046094 
L 376.669401 263.252003 
L 378.30907 261.274343 
L 379.94874 258.692269 
L 381.588409 263.235362 
L 383.228079 263.842217 
L 384.867748 258.2039 
L 386.507417 262.129931 
L 388.147087 259.760201 
L 389.786756 263.921652 
L 391.426426 263.328332 
L 393.066095 264.068762 
L 393.066095 264.068762 
" style="fill:none;stroke:#ff7f0e;stroke-linecap:square;stroke-width:0.5;"/>
   </g>
   <g id="line2d_18">
    <path clip-path="url(#padf5570fc6)" d="M 74.970227 261.576551 
L 76.609897 264.202336 
L 78.249566 239.360547 
L 79.889236 237.161889 
L 81.528905 218.305666 
L 83.168574 250.31212 
L 84.808244 259.902207 
L 86.447913 254.281862 
L 88.087583 261.507322 
L 89.727252 248.45694 
L 91.366921 262.157223 
L 93.006591 262.512239 
L 94.64626 261.20689 
L 96.28593 262.520449 
L 97.925599 263.504508 
L 99.565269 259.888228 
L 101.204938 263.641411 
L 102.844607 22.796 
L 104.484277 250.742133 
L 106.123946 262.767629 
L 107.763616 259.689198 
L 109.403285 262.629394 
L 111.042955 217.235515 
L 112.682624 263.680019 
L 114.322293 251.878183 
L 115.961963 264.083628 
L 117.601632 263.797397 
L 119.241302 241.320234 
L 120.880971 263.818476 
L 122.52064 194.153716 
L 124.16031 242.206886 
L 125.799979 263.331438 
L 127.439649 259.930608 
L 129.079318 235.12077 
L 130.718988 264.179482 
L 132.358657 232.899702 
L 133.998326 262.284585 
L 135.637996 263.20097 
L 137.277665 258.311292 
L 138.917335 257.21274 
L 140.557004 262.476072 
L 142.196674 260.736938 
L 143.836343 261.204893 
L 145.476012 264.191686 
L 147.115682 262.155892 
L 148.755351 262.194278 
L 150.395021 258.177939 
L 152.03469 263.238912 
L 153.67436 247.392336 
L 155.314029 261.789338 
L 156.953698 251.313264 
L 158.593368 190.507926 
L 160.233037 235.855209 
L 161.872707 246.630827 
L 163.512376 247.335312 
L 165.152045 254.261671 
L 166.791715 260.3817 
L 168.431384 262.433248 
L 170.071054 261.320717 
L 171.710723 254.450717 
L 173.350393 206.394663 
L 174.990062 260.41343 
L 176.629731 257.92255 
L 178.269401 241.56231 
L 179.90907 261.807311 
L 181.54874 263.328554 
L 183.188409 250.745239 
L 184.828079 262.215801 
L 186.467748 260.442497 
L 188.107417 264.120461 
L 189.747087 263.4517 
L 191.386756 256.659803 
L 193.026426 258.48059 
L 194.666095 263.853311 
L 196.305764 264.403364 
L 197.945434 260.152715 
L 199.585103 254.541246 
L 201.224773 264.502769 
L 202.864442 262.054269 
L 204.504112 251.64587 
L 206.143781 259.632173 
L 207.78345 262.878793 
L 209.42312 253.960573 
L 211.062789 263.013477 
L 212.702459 255.580111 
L 214.342128 261.922913 
L 215.981798 259.128716 
L 219.261136 262.691522 
L 220.900806 263.715299 
L 222.540475 261.526626 
L 224.180145 260.700327 
L 225.819814 262.868143 
L 227.459483 263.515381 
L 229.099153 258.349235 
L 230.738822 264.009075 
L 232.378492 251.273769 
L 234.018161 263.087587 
L 235.657831 264.39693 
L 237.2975 263.601916 
L 238.937169 264.529395 
L 240.576839 261.950648 
L 242.216508 263.942287 
L 243.856178 262.982191 
L 245.495847 263.28573 
L 247.135517 257.97203 
L 248.775186 264.419118 
L 250.414855 263.855974 
L 252.054525 261.90605 
L 253.694194 259.642158 
L 255.333864 254.826368 
L 256.973533 260.151384 
L 258.613202 264.185917 
L 260.252872 264.393379 
L 261.892541 262.080007 
L 263.532211 256.758542 
L 265.17188 261.608946 
L 266.81155 250.613439 
L 268.451219 262.478291 
L 270.090888 261.352669 
L 271.730558 262.547519 
L 273.370227 264.051898 
L 275.009897 261.257258 
L 276.649566 259.847845 
L 278.289236 258.970956 
L 279.928905 262.889443 
L 281.568574 264.129558 
L 283.208244 263.711083 
L 284.847913 262.959559 
L 286.487583 256.867265 
L 288.127252 258.407812 
L 289.766921 255.13146 
L 291.406591 258.178383 
L 293.04626 264.398039 
L 294.68593 260.099019 
L 296.325599 258.4229 
L 297.965269 262.900981 
L 301.244607 261.829277 
L 302.884277 264.212321 
L 304.523946 259.748441 
L 306.163616 263.595703 
L 307.803285 261.331146 
L 309.442955 262.950462 
L 311.082624 263.053638 
L 312.722293 263.563308 
L 314.361963 254.512623 
L 316.001632 264.355881 
L 317.641302 261.26924 
L 319.280971 259.555845 
L 320.92064 250.608336 
L 322.56031 259.916408 
L 324.199979 262.703726 
L 325.839649 263.283289 
L 327.479318 261.522411 
L 329.118988 261.879867 
L 330.758657 261.250823 
L 332.398326 256.600116 
L 334.037996 257.048545 
L 335.677665 262.952681 
L 337.317335 260.992993 
L 338.957004 262.515346 
L 340.596674 264.282659 
L 342.236343 254.99611 
L 343.876012 236.459401 
L 345.515682 236.744967 
L 347.155351 254.723413 
L 348.795021 248.454721 
L 350.43469 261.092841 
L 352.07436 262.735012 
L 353.714029 250.603233 
L 355.353698 256.186079 
L 356.993368 264.071868 
L 358.633037 260.720519 
L 360.272707 259.860936 
L 361.912376 263.205186 
L 363.552045 260.996765 
L 365.191715 263.148605 
L 366.831384 264.323929 
L 368.471054 252.957431 
L 370.110723 263.97557 
L 371.750393 263.127526 
L 373.390062 261.770034 
L 375.029731 227.194597 
L 376.669401 258.575335 
L 378.30907 261.580323 
L 379.94874 262.43347 
L 381.588409 260.756464 
L 383.228079 258.220763 
L 384.867748 263.421745 
L 386.507417 263.295493 
L 388.147087 263.953382 
L 389.786756 256.708618 
L 389.786756 256.708618 
" style="fill:none;stroke:#2ca02c;stroke-linecap:square;stroke-width:0.5;"/>
   </g>
   <g id="line2d_19">
    <path clip-path="url(#padf5570fc6)" d="M 74.970227 244.171899 
L 76.609897 256.458775 
L 78.249566 84.013601 
L 79.889236 190.909759 
L 81.528905 254.276537 
L 83.168574 246.082993 
L 84.808244 260.596041 
L 86.447913 236.055127 
L 88.087583 256.516465 
L 89.727252 234.71938 
L 91.366921 255.728552 
L 93.006591 255.756066 
L 94.64626 256.242881 
L 96.28593 255.989045 
L 97.925599 174.258407 
L 99.565269 262.372452 
L 101.204938 258.033271 
L 102.844607 252.873559 
L 104.484277 262.404403 
L 106.123946 258.795445 
L 107.763616 262.85727 
L 109.403285 260.331554 
L 111.042955 263.263985 
L 112.682624 256.560842 
L 114.322293 263.183663 
L 115.961963 240.858935 
L 117.601632 259.949025 
L 119.241302 260.197536 
L 120.880971 264.358987 
L 122.52064 259.657024 
L 124.16031 264.491231 
L 125.799979 260.866297 
L 127.439649 263.430621 
L 129.079318 264.02971 
L 130.718988 261.346678 
L 132.358657 260.60292 
L 133.998326 261.892515 
L 135.637996 262.299452 
L 137.277665 257.638981 
L 138.917335 263.694886 
L 140.557004 260.398564 
L 142.196674 261.652879 
L 143.836343 263.631648 
L 145.476012 258.475487 
L 147.115682 262.029861 
L 148.755351 263.551992 
L 150.395021 258.77481 
L 152.03469 261.890296 
L 153.67436 263.678022 
L 155.314029 249.254616 
L 158.593368 259.626404 
L 160.233037 254.778885 
L 161.872707 261.936448 
L 163.512376 263.042544 
L 165.152045 260.865853 
L 166.791715 243.526657 
L 168.431384 263.889257 
L 170.071054 259.081677 
L 171.710723 213.295283 
L 173.350393 259.968329 
L 174.990062 258.921698 
L 176.629731 248.069307 
L 178.269401 262.979751 
L 179.90907 241.409875 
L 181.54874 222.273634 
L 183.188409 261.059115 
L 184.828079 262.647367 
L 186.467748 259.886009 
L 188.107417 215.164442 
L 189.747087 263.665819 
L 191.386756 245.6694 
L 193.026426 241.134738 
L 194.666095 227.440224 
L 196.305764 235.144955 
L 197.945434 263.561755 
L 199.585103 264.451069 
L 201.224773 260.310919 
L 202.864442 264.442416 
L 204.504112 262.709051 
L 206.143781 260.391019 
L 207.78345 261.069765 
L 209.42312 263.062514 
L 211.062789 259.592456 
L 212.702459 235.896258 
L 214.342128 232.739057 
L 215.981798 258.622375 
L 217.621467 258.549375 
L 219.261136 253.016453 
L 220.900806 248.69236 
L 222.540475 253.151359 
L 224.180145 259.035968 
L 225.819814 246.353915 
L 227.459483 259.998283 
L 229.099153 216.01293 
L 230.738822 259.120285 
L 232.378492 256.031425 
L 234.018161 226.968497 
L 235.657831 258.87133 
L 237.2975 249.798012 
L 238.937169 253.168888 
L 240.576839 263.276189 
L 242.216508 232.672936 
L 243.856178 196.43314 
L 245.495847 262.684866 
L 247.135517 193.862382 
L 248.775186 262.913851 
L 250.414855 185.68082 
L 252.054525 256.887013 
L 253.694194 256.911864 
L 255.333864 261.272124 
L 256.973533 259.737125 
L 258.613202 263.364943 
L 260.252872 257.435956 
L 261.892541 252.157315 
L 263.532211 253.111863 
L 265.17188 252.308418 
L 266.81155 255.992595 
L 268.451219 263.186991 
L 270.090888 263.583721 
L 271.730558 264.715778 
L 273.370227 249.670207 
L 275.009897 258.590645 
L 276.649566 263.410429 
L 278.289236 264.716 
L 279.928905 264.715112 
L 281.568574 264.147309 
L 283.208244 238.663384 
L 284.847913 263.266648 
L 286.487583 261.780241 
L 288.127252 259.715824 
L 289.766921 260.71475 
L 291.406591 177.585127 
L 293.04626 230.830625 
L 294.68593 261.093507 
L 296.325599 243.299447 
L 297.965269 250.271071 
L 299.604938 259.622632 
L 301.244607 258.66653 
L 302.884277 241.837448 
L 304.523946 250.092897 
L 306.163616 240.230557 
L 307.803285 251.213416 
L 309.442955 250.64295 
L 311.082624 173.472712 
L 312.722293 238.850655 
L 314.361963 259.71538 
L 316.001632 260.001833 
L 317.641302 263.703761 
L 319.280971 256.719046 
L 320.92064 248.278323 
L 322.56031 261.279447 
L 324.199979 253.038198 
L 325.839649 241.201526 
L 327.479318 249.852374 
L 329.118988 225.983106 
L 330.758657 230.990604 
L 332.398326 231.330754 
L 334.037996 262.151676 
L 335.677665 215.866707 
L 337.317335 259.725809 
L 338.957004 263.169018 
L 340.596674 260.562093 
L 342.236343 246.537857 
L 343.876012 81.904141 
L 345.515682 257.437731 
L 347.155351 232.716647 
L 348.795021 171.447347 
L 350.43469 234.777292 
L 352.07436 254.848556 
L 353.714029 248.832147 
L 355.353698 245.620585 
L 356.993368 255.778032 
L 358.633037 240.022429 
L 360.272707 262.653802 
L 361.912376 262.0556 
L 363.552045 264.606611 
L 365.191715 259.104087 
L 366.831384 263.657831 
L 368.471054 261.770034 
L 370.110723 263.122201 
L 371.750393 260.739823 
L 373.390062 249.152105 
L 375.029731 253.751779 
L 376.669401 260.567196 
L 378.30907 262.265503 
L 379.94874 262.279038 
L 381.588409 261.677952 
L 383.228079 258.514539 
L 384.867748 257.901249 
L 386.507417 262.721255 
L 388.147087 262.640045 
L 389.786756 258.177718 
L 391.426426 262.474962 
L 391.426426 262.474962 
" style="fill:none;stroke:#d62728;stroke-linecap:square;stroke-width:0.5;"/>
   </g>
   <g id="line2d_20">
    <path clip-path="url(#padf5570fc6)" d="M 74.970227 264.035701 
L 76.609897 260.661941 
L 78.249566 263.648956 
L 79.889236 264.292865 
L 81.528905 262.064475 
L 83.168574 261.091066 
L 84.808244 262.121944 
L 86.447913 263.358286 
L 88.087583 262.7572 
L 89.727252 263.556208 
L 91.366921 262.336506 
L 93.006591 263.990214 
L 94.64626 262.589899 
L 96.28593 263.523369 
L 97.925599 264.026382 
L 99.565269 260.87251 
L 101.204938 258.867114 
L 102.844607 262.168983 
L 104.484277 257.643862 
L 106.123946 263.843992 
L 107.763616 264.187026 
L 109.403285 263.604357 
L 111.042955 264.414458 
L 112.682624 264.393601 
L 114.322293 262.617191 
L 115.961963 262.908082 
L 117.601632 264.471039 
L 119.241302 262.657352 
L 120.880971 263.209623 
L 122.52064 264.23451 
L 124.16031 262.152786 
L 125.799979 260.967033 
L 127.439649 263.399557 
L 129.079318 264.250485 
L 130.718988 262.128822 
L 132.358657 263.635421 
L 133.998326 264.278887 
L 135.637996 263.766333 
L 137.277665 263.891476 
L 138.917335 264.245826 
L 140.557004 262.831532 
L 142.196674 262.623625 
L 143.836343 261.51287 
L 145.476012 263.172347 
L 147.115682 264.047905 
L 148.755351 263.422633 
L 150.395021 263.692667 
L 152.03469 264.593298 
L 153.67436 263.547998 
L 155.314029 263.91078 
L 156.953698 264.143981 
L 158.593368 263.226265 
L 160.233037 263.981783 
L 161.872707 263.836004 
L 165.152045 262.914516 
L 166.791715 263.68357 
L 168.431384 260.057748 
L 170.071054 263.8826 
L 173.350393 264.589304 
L 174.990062 262.321418 
L 176.629731 263.83778 
L 178.269401 262.32985 
L 179.90907 263.479435 
L 181.54874 263.901239 
L 183.188409 263.023906 
L 184.828079 263.96381 
L 186.467748 261.990588 
L 188.107417 264.627912 
L 189.747087 262.704835 
L 191.386756 263.955822 
L 193.026426 264.540045 
L 194.666095 263.585275 
L 196.305764 263.543338 
L 197.945434 263.657609 
L 199.585103 262.806237 
L 201.224773 264.438422 
L 202.864442 263.153487 
L 204.504112 263.55532 
L 206.143781 262.565492 
L 207.78345 262.273713 
L 209.42312 260.970361 
L 211.062789 263.581059 
L 212.702459 263.110663 
L 214.342128 257.321242 
L 215.981798 262.029196 
L 217.621467 262.258181 
L 219.261136 261.412134 
L 220.900806 263.790074 
L 222.540475 264.209437 
L 224.180145 263.401998 
L 225.819814 262.788708 
L 227.459483 262.626066 
L 229.099153 263.8096 
L 230.738822 261.028939 
L 232.378492 264.058111 
L 234.018161 263.997093 
L 235.657831 264.376294 
L 237.2975 261.286991 
L 238.937169 263.111772 
L 240.576839 263.805384 
L 243.856178 262.597665 
L 245.495847 264.193461 
L 247.135517 263.858859 
L 248.775186 263.134848 
L 250.414855 264.448407 
L 252.054525 263.780977 
L 253.694194 262.394418 
L 255.333864 263.518487 
L 256.973533 261.179377 
L 258.613202 262.332512 
L 260.252872 264.212543 
L 261.892541 264.163728 
L 263.532211 262.541306 
L 265.17188 264.295972 
L 266.81155 262.315205 
L 268.451219 263.366718 
L 270.090888 264.10981 
L 271.730558 263.166356 
L 273.370227 261.956417 
L 275.009897 264.522516 
L 276.649566 263.088474 
L 278.289236 263.633645 
L 279.928905 264.332805 
L 281.568574 263.790296 
L 284.847913 263.748138 
L 286.487583 263.431065 
L 288.127252 264.586863 
L 289.766921 264.593298 
L 293.04626 263.47056 
L 294.68593 264.187692 
L 296.325599 263.651174 
L 297.965269 263.441271 
L 299.604938 261.807311 
L 301.244607 264.617039 
L 302.884277 263.233143 
L 304.523946 263.817144 
L 306.163616 264.045686 
L 307.803285 263.247788 
L 309.442955 262.324968 
L 311.082624 262.967325 
L 312.722293 264.262467 
L 314.361963 263.812041 
L 316.001632 261.972615 
L 317.641302 264.110032 
L 319.280971 264.601064 
L 320.92064 263.456581 
L 322.56031 264.203446 
L 324.199979 258.326602 
L 325.839649 261.88608 
L 327.479318 264.545149 
L 329.118988 263.962479 
L 330.758657 264.380954 
L 332.398326 263.99554 
L 334.037996 263.839111 
L 335.677665 262.134591 
L 337.317335 263.79074 
L 338.957004 264.495446 
L 340.596674 263.007264 
L 342.236343 260.365281 
L 343.876012 264.141984 
L 345.515682 263.550439 
L 347.155351 263.260657 
L 348.795021 264.546924 
L 350.43469 262.343163 
L 352.07436 261.222644 
L 353.714029 263.838223 
L 355.353698 262.049165 
L 356.993368 262.967103 
L 358.633037 264.581316 
L 360.272707 262.366905 
L 361.912376 262.550847 
L 363.552045 263.815813 
L 365.191715 264.097385 
L 366.831384 264.511866 
L 368.471054 261.645779 
L 370.110723 262.902313 
L 371.750393 262.62185 
L 373.390062 260.156931 
L 376.669401 263.119094 
L 378.30907 264.273783 
L 379.94874 263.463903 
L 381.588409 261.826615 
L 383.228079 264.575547 
L 384.867748 263.136401 
L 386.507417 264.60883 
L 388.147087 263.309693 
L 389.786756 261.518417 
L 391.426426 263.779868 
L 393.066095 263.56242 
L 393.066095 263.56242 
" style="fill:none;stroke:#9467bd;stroke-linecap:square;stroke-width:0.5;"/>
   </g>
   <g id="line2d_21">
    <path clip-path="url(#padf5570fc6)" d="M 74.970227 262.520005 
L 76.609897 264.239169 
L 78.249566 263.671588 
L 79.889236 263.381584 
L 81.528905 263.238247 
L 83.168574 257.908571 
L 84.808244 248.956181 
L 86.447913 260.136517 
L 88.087583 263.155483 
L 89.727252 186.729669 
L 91.366921 264.541377 
L 93.006591 264.093169 
L 94.64626 263.234475 
L 96.28593 263.743035 
L 97.925599 260.615345 
L 99.565269 263.678688 
L 101.204938 262.720145 
L 102.844607 257.329895 
L 104.484277 262.258181 
L 106.123946 258.490353 
L 107.763616 253.931506 
L 109.403285 261.059781 
L 111.042955 262.092433 
L 112.682624 262.983745 
L 114.322293 261.015847 
L 115.961963 262.294348 
L 117.601632 261.920916 
L 119.241302 264.380732 
L 120.880971 261.715229 
L 122.52064 263.770548 
L 124.16031 264.268902 
L 125.799979 263.780533 
L 127.439649 261.102382 
L 129.079318 261.817739 
L 130.718988 263.978455 
L 133.998326 261.971728 
L 135.637996 249.944678 
L 137.277665 263.410429 
L 138.917335 263.869731 
L 140.557004 263.985111 
L 142.196674 262.280591 
L 143.836343 263.662934 
L 145.476012 261.468936 
L 147.115682 263.717296 
L 148.755351 257.789197 
L 150.395021 263.825576 
L 152.03469 250.385564 
L 153.67436 264.688043 
L 155.314029 251.874855 
L 156.953698 260.422305 
L 158.593368 260.632208 
L 160.233037 250.332311 
L 161.872707 261.57056 
L 163.512376 258.937673 
L 165.152045 263.265317 
L 166.791715 262.431251 
L 168.431384 258.090739 
L 170.071054 263.50118 
L 171.710723 264.296194 
L 173.350393 252.873115 
L 176.629731 261.043583 
L 178.269401 264.05212 
L 179.90907 258.640126 
L 181.54874 264.370747 
L 183.188409 263.68956 
L 184.828079 263.261988 
L 186.467748 256.850846 
L 188.107417 263.730609 
L 189.747087 264.37696 
L 191.386756 258.165958 
L 193.026426 264.325926 
L 194.666095 261.465164 
L 196.305764 264.278443 
L 197.945434 256.733469 
L 199.585103 263.027678 
L 201.224773 260.750695 
L 202.864442 263.687563 
L 204.504112 262.356254 
L 206.143781 260.715193 
L 207.78345 259.715158 
L 209.42312 259.899544 
L 211.062789 257.182786 
L 212.702459 264.186805 
L 214.342128 257.401786 
L 215.981798 249.819313 
L 217.621467 234.037084 
L 219.261136 260.5064 
L 220.900806 234.351273 
L 222.540475 258.635466 
L 224.180145 258.297314 
L 225.819814 251.450389 
L 227.459483 258.024395 
L 229.099153 261.544377 
L 230.738822 263.507615 
L 232.378492 262.563273 
L 234.018161 261.480474 
L 235.657831 261.046246 
L 237.2975 255.22687 
L 238.937169 261.165398 
L 240.576839 263.327001 
L 242.216508 263.602803 
L 243.856178 251.340334 
L 245.495847 264.155297 
L 248.775186 259.208373 
L 250.414855 263.29039 
L 252.054525 264.45462 
L 253.694194 263.927421 
L 255.333864 263.801169 
L 256.973533 255.561916 
L 258.613202 263.496299 
L 260.252872 264.290203 
L 261.892541 261.770034 
L 263.532211 259.993846 
L 265.17188 262.571926 
L 266.81155 261.96729 
L 268.451219 263.288393 
L 270.090888 262.907638 
L 271.730558 263.459688 
L 273.370227 259.00668 
L 275.009897 262.498926 
L 276.649566 263.531357 
L 278.289236 261.482915 
L 279.928905 262.883231 
L 281.568574 263.300596 
L 283.208244 250.287047 
L 284.847913 264.263799 
L 286.487583 259.306224 
L 288.127252 263.419083 
L 289.766921 262.344938 
L 291.406591 262.437242 
L 293.04626 258.023951 
L 294.68593 256.857502 
L 296.325599 263.666263 
L 297.965269 261.599627 
L 299.604938 264.075418 
L 301.244607 263.391791 
L 302.884277 261.634241 
L 304.523946 263.637861 
L 306.163616 262.919398 
L 307.803285 258.162851 
L 309.442955 264.545592 
L 311.082624 262.696182 
L 312.722293 259.906645 
L 314.361963 263.696217 
L 316.001632 264.088066 
L 317.641302 258.846922 
L 319.280971 262.543081 
L 320.92064 263.381362 
L 322.56031 262.840407 
L 324.199979 261.706797 
L 325.839649 262.344938 
L 327.479318 261.401705 
L 329.118988 257.451045 
L 330.758657 262.005454 
L 332.398326 258.319946 
L 334.037996 259.45755 
L 335.677665 256.215589 
L 337.317335 259.276935 
L 338.957004 263.134183 
L 340.596674 263.381806 
L 342.236343 263.757679 
L 343.876012 261.953533 
L 345.515682 259.023321 
L 347.155351 258.395165 
L 348.795021 259.610207 
L 350.43469 264.329255 
L 352.07436 262.656242 
L 353.714029 262.689081 
L 355.353698 260.922656 
L 356.993368 258.205231 
L 358.633037 263.901682 
L 360.272707 264.121792 
L 361.912376 260.603585 
L 363.552045 261.310954 
L 365.191715 254.961496 
L 366.831384 261.34934 
L 368.471054 258.507439 
L 370.110723 264.511866 
L 371.750393 263.356511 
L 375.029731 263.818697 
L 376.669401 262.947134 
L 378.30907 264.291756 
L 379.94874 263.833564 
L 381.588409 262.541972 
L 383.228079 260.569193 
L 384.867748 261.773141 
L 386.507417 256.364252 
L 388.147087 262.940699 
L 389.786756 263.811819 
L 391.426426 262.208922 
L 393.066095 251.247143 
L 394.705764 262.046503 
L 396.345434 263.930749 
L 396.345434 263.930749 
" style="fill:none;stroke:#8c564b;stroke-linecap:square;stroke-width:0.5;"/>
   </g>
   <g id="line2d_22">
    <path clip-path="url(#padf5570fc6)" d="M 74.970227 255.794008 
L 76.609897 260.666601 
L 78.249566 259.609541 
L 79.889236 262.742112 
L 81.528905 263.142392 
L 83.168574 263.889257 
L 84.808244 263.341423 
L 86.447913 264.229185 
L 88.087583 260.993659 
L 89.727252 258.589758 
L 91.366921 260.411655 
L 93.006591 254.165373 
L 94.64626 260.748698 
L 96.28593 262.100199 
L 97.925599 263.737709 
L 99.565269 263.159034 
L 101.204938 261.903165 
L 102.844607 261.417681 
L 104.484277 259.276492 
L 106.123946 258.316839 
L 107.763616 262.405291 
L 109.403285 261.172498 
L 111.042955 262.016548 
L 112.682624 262.068691 
L 114.322293 264.228741 
L 115.961963 257.596157 
L 117.601632 257.919665 
L 119.241302 261.028939 
L 120.880971 261.475371 
L 122.52064 263.77188 
L 124.16031 262.243093 
L 125.799979 248.610706 
L 127.439649 241.028677 
L 129.079318 236.183155 
L 130.718988 255.493132 
L 132.358657 262.687972 
L 133.998326 259.888672 
L 135.637996 261.1492 
L 137.277665 253.016675 
L 138.917335 261.959524 
L 140.557004 263.633424 
L 142.196674 263.690448 
L 143.836343 257.506294 
L 145.476012 259.579586 
L 147.115682 250.788063 
L 148.755351 259.400969 
L 150.395021 245.220083 
L 152.03469 134.162252 
L 153.67436 261.01496 
L 155.314029 247.335977 
L 156.953698 261.590529 
L 158.593368 262.237989 
L 160.233037 240.944583 
L 161.872707 263.941844 
L 163.512376 264.391161 
L 165.152045 263.836448 
L 166.791715 260.601366 
L 168.431384 249.008546 
L 170.071054 254.536586 
L 171.710723 264.333692 
L 173.350393 260.456697 
L 174.990062 262.027864 
L 176.629731 248.098374 
L 178.269401 263.586384 
L 179.90907 258.364767 
L 181.54874 262.25685 
L 183.188409 263.715743 
L 184.828079 263.214283 
L 186.467748 262.892328 
L 188.107417 261.128121 
L 189.747087 263.686676 
L 191.386756 264.347227 
L 193.026426 262.36047 
L 194.666095 258.813418 
L 196.305764 262.347822 
L 197.945434 256.685542 
L 199.585103 259.285367 
L 201.224773 260.077274 
L 202.864442 263.674694 
L 204.504112 259.157783 
L 206.143781 263.375371 
L 207.78345 263.390903 
L 209.42312 262.664674 
L 211.062789 262.743887 
L 212.702459 263.491861 
L 214.342128 263.294827 
L 215.981798 261.081747 
L 217.621467 262.814224 
L 219.261136 260.485099 
L 220.900806 259.514574 
L 222.540475 261.175826 
L 224.180145 264.186583 
L 225.819814 262.759419 
L 227.459483 252.371212 
L 229.099153 256.867265 
L 230.738822 259.866484 
L 234.018161 263.85309 
L 235.657831 264.209881 
L 237.2975 259.110078 
L 238.937169 257.181676 
L 240.576839 263.764558 
L 242.216508 262.98907 
L 243.856178 261.060668 
L 245.495847 252.729334 
L 247.135517 262.709273 
L 248.775186 253.566062 
L 250.414855 258.091848 
L 252.054525 261.926019 
L 253.694194 263.4446 
L 255.333864 260.815263 
L 256.973533 263.048535 
L 258.613202 260.417868 
L 260.252872 249.350914 
L 261.892541 263.440162 
L 263.532211 260.825248 
L 265.17188 255.627151 
L 266.81155 261.203784 
L 268.451219 263.573293 
L 270.090888 263.690004 
L 271.730558 261.006528 
L 273.370227 264.498775 
L 276.649566 261.183814 
L 278.289236 263.031006 
L 279.928905 264.409133 
L 281.568574 262.819994 
L 283.208244 263.572849 
L 284.847913 252.238302 
L 286.487583 263.146164 
L 288.127252 263.826242 
L 289.766921 260.825914 
L 291.406591 259.088111 
L 293.04626 264.627468 
L 294.68593 263.988661 
L 296.325599 262.861264 
L 297.965269 252.201026 
L 299.604938 263.676247 
L 301.244607 261.180042 
L 302.884277 263.415089 
L 304.523946 257.863972 
L 306.163616 232.626118 
L 307.803285 259.755097 
L 309.442955 264.533832 
L 311.082624 248.931108 
L 312.722293 258.897956 
L 314.361963 262.269275 
L 316.001632 263.189876 
L 317.641302 260.809494 
L 319.280971 260.086372 
L 320.92064 263.716187 
L 322.56031 261.592082 
L 324.199979 253.329754 
L 325.839649 262.856826 
L 327.479318 264.047905 
L 329.118988 263.288614 
L 330.758657 262.751431 
L 332.398326 263.755016 
L 334.037996 256.690201 
L 335.677665 260.996543 
L 337.317335 258.345241 
L 340.596674 263.535129 
L 342.236343 260.832792 
L 343.876012 263.964476 
L 345.515682 254.992116 
L 347.155351 259.320203 
L 348.795021 262.587902 
L 350.43469 263.57773 
L 352.07436 256.389103 
L 353.714029 262.633166 
L 355.353698 260.826801 
L 356.993368 262.920064 
L 358.633037 262.226673 
L 360.272707 258.757947 
L 361.912376 258.453521 
L 363.552045 261.143653 
L 365.191715 260.79485 
L 366.831384 264.19457 
L 368.471054 264.535608 
L 370.110723 254.738502 
L 371.750393 262.856383 
L 373.390062 261.11148 
L 375.029731 261.575885 
L 376.669401 261.807089 
L 378.30907 243.648028 
L 379.94874 257.459254 
L 381.588409 254.150285 
L 381.588409 254.150285 
" style="fill:none;stroke:#e377c2;stroke-linecap:square;stroke-width:0.5;"/>
   </g>
   <g id="line2d_23">
    <path clip-path="url(#padf5570fc6)" d="M 74.970227 264.138212 
L 76.609897 257.248242 
L 78.249566 258.856463 
L 79.889236 232.644756 
L 81.528905 264.42999 
L 83.168574 216.968366 
L 84.808244 261.969287 
L 86.447913 255.037159 
L 88.087583 262.283698 
L 89.727252 263.949831 
L 91.366921 252.840942 
L 93.006591 261.951314 
L 94.64626 262.699732 
L 96.28593 235.547233 
L 97.925599 262.005898 
L 99.565269 262.929605 
L 102.844607 252.3934 
L 104.484277 259.701179 
L 106.123946 264.379179 
L 107.763616 261.910487 
L 109.403285 262.549516 
L 111.042955 261.329814 
L 112.682624 263.33166 
L 114.322293 263.973573 
L 115.961963 245.525175 
L 117.601632 258.045918 
L 119.241302 262.314983 
L 120.880971 264.080744 
L 122.52064 258.147097 
L 124.16031 263.153043 
L 125.799979 263.841773 
L 127.439649 262.535093 
L 129.079318 257.824921 
L 130.718988 262.046281 
L 132.358657 263.536682 
L 133.998326 258.885309 
L 135.637996 261.293203 
L 137.277665 263.500736 
L 138.917335 258.917704 
L 140.557004 263.952494 
L 142.196674 239.154859 
L 143.836343 258.459955 
L 145.476012 251.158389 
L 147.115682 254.476677 
L 148.755351 261.43521 
L 150.395021 262.168096 
L 152.03469 261.092398 
L 153.67436 263.526031 
L 155.314029 253.739576 
L 156.953698 248.068641 
L 158.593368 255.766938 
L 160.233037 259.675441 
L 161.872707 261.943992 
L 163.512376 259.990295 
L 165.152045 262.199381 
L 166.791715 262.08622 
L 168.431384 258.985601 
L 170.071054 260.527479 
L 171.710723 262.2675 
L 173.350393 261.734533 
L 174.990062 264.590857 
L 176.629731 263.688673 
L 178.269401 261.722329 
L 179.90907 258.826953 
L 181.54874 253.62819 
L 183.188409 240.090104 
L 184.828079 261.730539 
L 186.467748 259.974985 
L 188.107417 262.139251 
L 189.747087 260.780649 
L 191.386756 264.406471 
L 193.026426 256.201833 
L 194.666095 262.273935 
L 196.305764 257.24092 
L 197.945434 258.522749 
L 199.585103 239.141324 
L 201.224773 263.944062 
L 202.864442 262.776504 
L 204.504112 262.109962 
L 206.143781 260.142508 
L 207.78345 247.080366 
L 209.42312 262.275932 
L 211.062789 254.273431 
L 212.702459 258.279785 
L 214.342128 261.850135 
L 215.981798 264.508316 
L 217.621467 256.818229 
L 219.261136 256.603444 
L 220.900806 259.517459 
L 222.540475 195.307962 
L 224.180145 226.786551 
L 225.819814 261.867442 
L 227.459483 240.505029 
L 229.099153 241.846989 
L 230.738822 160.61781 
L 232.378492 261.262583 
L 234.018161 259.292024 
L 235.657831 261.634019 
L 237.2975 262.013442 
L 238.937169 260.63598 
L 240.576839 262.580358 
L 242.216508 263.526475 
L 243.856178 260.91489 
L 245.495847 232.381157 
L 247.135517 262.850614 
L 248.775186 259.785939 
L 250.414855 261.962852 
L 252.054525 263.261766 
L 253.694194 263.027678 
L 255.333864 263.715077 
L 256.973533 261.758052 
L 258.613202 246.78304 
L 260.252872 262.759419 
L 261.892541 242.324263 
L 263.532211 264.690039 
L 265.17188 165.679893 
L 266.81155 263.629208 
L 268.451219 261.168282 
L 270.090888 262.370233 
L 271.730558 241.110997 
L 273.370227 255.346466 
L 275.009897 260.908233 
L 276.649566 243.776056 
L 278.289236 250.478311 
L 279.928905 259.2634 
L 281.568574 240.410284 
L 283.208244 206.843092 
L 284.847913 262.967325 
L 286.487583 191.819043 
L 288.127252 263.608794 
L 289.766921 263.631427 
L 291.406591 259.769742 
L 293.04626 261.827502 
L 296.325599 261.329149 
L 297.965269 260.776212 
L 299.604938 254.130093 
L 301.244607 259.116291 
L 302.884277 259.300011 
L 304.523946 259.644821 
L 306.163616 203.497955 
L 307.803285 238.623889 
L 309.442955 252.789243 
L 311.082624 259.280042 
L 312.722293 260.924209 
L 314.361963 213.444168 
L 316.001632 263.529581 
L 317.641302 262.251524 
L 319.280971 229.188011 
L 320.92064 256.855949 
L 322.56031 264.712672 
L 325.839649 264.713559 
L 327.479318 260.732057 
L 329.118988 237.492719 
L 330.758657 250.259755 
L 332.398326 249.302543 
L 334.037996 263.735712 
L 335.677665 245.145086 
L 337.317335 222.733158 
L 338.957004 264.029488 
L 340.596674 145.788577 
L 342.236343 256.834426 
L 343.876012 245.988249 
L 345.515682 252.895969 
L 347.155351 252.859358 
L 348.795021 254.353309 
L 350.43469 211.292106 
L 352.07436 262.496263 
L 353.714029 257.638093 
L 355.353698 245.571549 
L 356.993368 263.441049 
L 358.633037 259.884678 
L 360.272707 263.933412 
L 361.912376 258.870442 
L 363.552045 224.74055 
L 365.191715 220.786339 
L 366.831384 260.17335 
L 368.471054 260.1039 
L 370.110723 232.232716 
L 371.750393 264.715556 
L 373.390062 264.716 
L 375.029731 244.006151 
L 376.669401 263.527584 
L 378.30907 262.149901 
L 379.94874 230.9054 
L 381.588409 264.479693 
L 383.228079 256.701739 
L 384.867748 195.883087 
L 386.507417 261.207778 
L 388.147087 263.029675 
L 389.786756 261.182261 
L 391.426426 235.123654 
L 393.066095 257.605033 
L 393.066095 257.605033 
" style="fill:none;stroke:#7f7f7f;stroke-linecap:square;stroke-width:0.5;"/>
   </g>
   <g id="line2d_24">
    <path clip-path="url(#padf5570fc6)" d="M 74.970227 257.068737 
L 76.609897 264.290203 
L 78.249566 258.160854 
L 79.889236 263.71774 
L 81.528905 264.336799 
L 83.168574 263.100234 
L 86.447913 263.666041 
L 88.087583 263.723287 
L 89.727252 263.518709 
L 91.366921 262.393974 
L 93.006591 264.405361 
L 94.64626 263.363168 
L 96.28593 259.3293 
L 97.925599 261.939776 
L 99.565269 258.599521 
L 101.204938 263.426849 
L 102.844607 262.910301 
L 104.484277 263.395341 
L 106.123946 262.530877 
L 107.763616 263.894138 
L 109.403285 264.17571 
L 112.682624 264.390273 
L 114.322293 263.383137 
L 115.961963 262.97265 
L 117.601632 261.140325 
L 119.241302 262.650473 
L 120.880971 264.350112 
L 122.52064 261.985928 
L 124.16031 260.660166 
L 125.799979 263.493192 
L 127.439649 264.065877 
L 129.079318 263.77543 
L 130.718988 259.931274 
L 132.358657 264.014178 
L 133.998326 262.940255 
L 135.637996 262.11684 
L 137.277665 264.405139 
L 138.917335 262.805127 
L 140.557004 263.298599 
L 142.196674 261.46583 
L 143.836343 264.200118 
L 145.476012 263.229815 
L 147.115682 263.128414 
L 148.755351 264.139765 
L 150.395021 257.61302 
L 152.03469 259.294686 
L 153.67436 264.181479 
L 155.314029 263.828017 
L 156.953698 264.406249 
L 158.593368 261.864335 
L 160.233037 259.003351 
L 161.872707 263.452587 
L 163.512376 262.654689 
L 165.152045 262.49826 
L 166.791715 261.523964 
L 168.431384 263.12331 
L 170.071054 263.315684 
L 171.710723 262.328518 
L 173.350393 258.000653 
L 174.990062 261.184924 
L 176.629731 263.485204 
L 178.269401 261.244167 
L 179.90907 264.451735 
L 181.54874 262.073351 
L 183.188409 255.284782 
L 184.828079 256.085343 
L 186.467748 263.143058 
L 188.107417 262.067804 
L 189.747087 263.628986 
L 191.386756 258.64301 
L 193.026426 264.140874 
L 194.666095 262.562607 
L 196.305764 261.911819 
L 197.945434 258.482587 
L 199.585103 262.397081 
L 201.224773 264.21809 
L 202.864442 263.516712 
L 204.504112 263.01969 
L 206.143781 263.871284 
L 207.78345 263.129079 
L 209.42312 264.38406 
L 212.702459 263.167687 
L 214.342128 257.62589 
L 215.981798 264.27223 
L 219.261136 264.29575 
L 220.900806 263.904345 
L 222.540475 263.332326 
L 224.180145 263.309915 
L 225.819814 263.880825 
L 227.459483 261.304963 
L 229.099153 264.043245 
L 230.738822 264.066099 
L 232.378492 259.52944 
L 234.018161 263.603469 
L 235.657831 263.108888 
L 237.2975 263.370046 
L 238.937169 262.097536 
L 240.576839 262.224676 
L 242.216508 262.924058 
L 243.856178 264.482133 
L 245.495847 263.86374 
L 247.135517 263.6707 
L 248.775186 263.019024 
L 250.414855 264.168388 
L 252.054525 260.171797 
L 253.694194 263.452809 
L 255.333864 262.901203 
L 256.973533 262.844623 
L 258.613202 262.285029 
L 260.252872 257.160153 
L 261.892541 264.637453 
L 263.532211 264.332139 
L 265.17188 264.512532 
L 266.81155 259.584468 
L 268.451219 263.85198 
L 270.090888 261.221535 
L 271.730558 264.027713 
L 273.370227 263.558426 
L 275.009897 263.244237 
L 276.649566 263.334766 
L 278.289236 263.069836 
L 279.928905 262.033633 
L 281.568574 262.952237 
L 283.208244 262.747881 
L 284.847913 260.571856 
L 286.487583 262.985298 
L 288.127252 260.05797 
L 289.766921 262.423485 
L 291.406591 264.303738 
L 293.04626 260.055086 
L 294.68593 261.725435 
L 296.325599 263.668703 
L 297.965269 264.116467 
L 299.604938 262.864149 
L 301.244607 263.105559 
L 302.884277 263.08559 
L 304.523946 263.992433 
L 306.163616 264.189911 
L 307.803285 264.100269 
L 309.442955 263.50584 
L 311.082624 263.098459 
L 312.722293 259.910417 
L 314.361963 260.346642 
L 316.001632 261.136553 
L 317.641302 263.521372 
L 319.280971 263.682016 
L 320.92064 263.565527 
L 322.56031 263.319678 
L 324.199979 264.027935 
L 325.839649 258.484141 
L 327.479318 262.018767 
L 329.118988 262.279482 
L 330.758657 263.735934 
L 332.398326 264.467489 
L 334.037996 263.359839 
L 335.677665 264.365644 
L 337.317335 263.237803 
L 338.957004 264.436647 
L 340.596674 264.426884 
L 342.236343 262.51002 
L 343.876012 252.348136 
L 345.515682 261.835712 
L 347.155351 255.08797 
L 348.795021 263.301484 
L 350.43469 263.433727 
L 352.07436 264.638118 
L 353.714029 263.279295 
L 355.353698 259.295352 
L 356.993368 263.905898 
L 358.633037 259.184187 
L 360.272707 262.515124 
L 361.912376 263.167909 
L 363.552045 250.192524 
L 365.191715 262.826428 
L 366.831384 260.045323 
L 368.471054 263.484095 
L 370.110723 259.726474 
L 371.750393 262.968213 
L 373.390062 264.152634 
L 375.029731 264.306179 
L 376.669401 258.288438 
L 378.30907 264.601951 
L 379.94874 262.985963 
L 381.588409 263.694886 
L 383.228079 264.232735 
L 384.867748 264.517413 
L 386.507417 261.267909 
L 388.147087 251.815834 
L 389.786756 262.551069 
L 391.426426 263.360727 
L 393.066095 261.11503 
L 394.705764 264.135549 
L 396.345434 263.185438 
L 397.985103 258.762606 
L 399.624773 262.216023 
L 399.624773 262.216023 
" style="fill:none;stroke:#bcbd22;stroke-linecap:square;stroke-width:0.5;"/>
   </g>
   <g id="line2d_25">
    <path clip-path="url(#padf5570fc6)" d="M 74.970227 262.061147 
L 76.609897 262.177637 
L 78.249566 263.198751 
L 79.889236 257.816933 
L 81.528905 257.219175 
L 83.168574 264.032594 
L 84.808244 255.816418 
L 86.447913 231.976883 
L 88.087583 263.482542 
L 89.727252 264.316163 
L 91.366921 258.954315 
L 93.006591 260.101903 
L 94.64626 259.163774 
L 96.28593 244.100674 
L 97.925599 260.278302 
L 99.565269 262.877684 
L 101.204938 264.329255 
L 102.844607 259.456884 
L 104.484277 245.4575 
L 106.123946 260.080159 
L 107.763616 261.201565 
L 109.403285 260.097022 
L 111.042955 256.81601 
L 112.682624 253.884245 
L 114.322293 264.33103 
L 115.961963 255.418579 
L 117.601632 243.06669 
L 119.241302 260.700105 
L 120.880971 262.105968 
L 122.52064 262.493601 
L 124.16031 261.83549 
L 125.799979 255.841935 
L 127.439649 259.496601 
L 129.079318 263.715077 
L 130.718988 247.929076 
L 132.358657 258.535618 
L 133.998326 207.005512 
L 135.637996 263.988661 
L 137.277665 264.502547 
L 138.917335 263.48698 
L 140.557004 262.144132 
L 142.196674 262.796917 
L 143.836343 260.424524 
L 145.476012 259.096099 
L 147.115682 260.655284 
L 148.755351 262.011223 
L 150.395021 262.831975 
L 152.03469 261.44342 
L 153.67436 260.311363 
L 155.314029 255.064894 
L 156.953698 261.968399 
L 158.593368 262.746328 
L 160.233037 260.510172 
L 161.872707 261.254596 
L 163.512376 263.950275 
L 165.152045 261.625365 
L 166.791715 262.611865 
L 168.431384 264.107592 
L 170.071054 263.517822 
L 171.710723 262.208922 
L 173.350393 260.115438 
L 174.990062 248.7607 
L 176.629731 257.039892 
L 178.269401 248.65819 
L 179.90907 264.062549 
L 181.54874 262.1874 
L 183.188409 262.179412 
L 184.828079 251.300839 
L 186.467748 263.441715 
L 188.107417 262.658239 
L 189.747087 258.235851 
L 191.386756 263.731497 
L 193.026426 262.692853 
L 194.666095 263.28573 
L 196.305764 264.667407 
L 199.585103 262.306996 
L 201.224773 262.418826 
L 202.864442 258.021511 
L 204.504112 263.12686 
L 206.143781 253.702299 
L 207.78345 263.353849 
L 209.42312 262.485835 
L 211.062789 263.674472 
L 212.702459 263.340535 
L 214.342128 261.67063 
L 215.981798 262.336284 
L 217.621467 263.432174 
L 219.261136 258.067663 
L 220.900806 257.478558 
L 222.540475 263.760785 
L 224.180145 263.01503 
L 225.819814 257.575078 
L 227.459483 263.040103 
L 229.099153 264.143093 
L 230.738822 261.411468 
L 232.378492 261.149422 
L 234.018161 255.963306 
L 235.657831 260.033119 
L 237.2975 262.390646 
L 238.937169 230.92182 
L 240.576839 264.456173 
L 242.216508 261.890074 
L 243.856178 263.262654 
L 245.495847 261.550368 
L 247.135517 216.861861 
L 248.775186 261.394383 
L 250.414855 261.497338 
L 252.054525 261.253486 
L 253.694194 252.890644 
L 255.333864 264.017506 
L 256.973533 257.062968 
L 258.613202 259.609097 
L 260.252872 262.732571 
L 261.892541 258.317949 
L 263.532211 252.97252 
L 266.81155 264.031263 
L 268.451219 259.085005 
L 270.090888 262.812449 
L 271.730558 263.792071 
L 273.370227 258.50877 
L 275.009897 262.963997 
L 276.649566 251.753706 
L 278.289236 258.585098 
L 279.928905 261.198015 
L 281.568574 264.423778 
L 283.208244 263.526919 
L 284.847913 251.590399 
L 286.487583 263.751688 
L 288.127252 263.919433 
L 289.766921 259.951687 
L 291.406591 262.375336 
L 293.04626 263.261988 
L 294.68593 259.574483 
L 296.325599 263.982892 
L 297.965269 241.713192 
L 299.604938 257.782984 
L 301.244607 264.117133 
L 302.884277 249.68596 
L 304.523946 263.533353 
L 306.163616 263.651396 
L 307.803285 257.828027 
L 309.442955 253.725819 
L 311.082624 257.707987 
L 312.722293 259.158227 
L 316.001632 263.58705 
L 317.641302 262.670665 
L 319.280971 263.286174 
L 320.92064 255.970628 
L 322.56031 255.269916 
L 324.199979 263.013699 
L 325.839649 244.144163 
L 327.479318 259.281595 
L 329.118988 258.282447 
L 330.758657 261.722773 
L 332.398326 240.084557 
L 334.037996 262.631835 
L 335.677665 259.430702 
L 337.317335 263.889701 
L 338.957004 262.954678 
L 340.596674 263.102675 
L 342.236343 263.923871 
L 343.876012 262.612753 
L 345.515682 264.02261 
L 347.155351 261.868773 
L 348.795021 257.407999 
L 350.43469 263.809822 
L 352.07436 259.929721 
L 353.714029 263.6048 
L 355.353698 264.248267 
L 356.993368 261.339134 
L 358.633037 264.383395 
L 360.272707 255.507777 
L 361.912376 264.373632 
L 363.552045 262.153895 
L 365.191715 262.025202 
L 366.831384 264.219865 
L 368.471054 264.345008 
L 370.110723 248.198222 
L 371.750393 263.506284 
L 373.390062 263.142392 
L 375.029731 264.337021 
L 376.669401 264.035257 
L 378.30907 259.177309 
L 379.94874 258.394943 
L 381.588409 264.437313 
L 383.228079 263.645405 
L 384.867748 264.461276 
L 384.867748 264.461276 
" style="fill:none;stroke:#17becf;stroke-linecap:square;stroke-width:0.5;"/>
   </g>
   <g id="line2d_26">
    <path clip-path="url(#padf5570fc6)" d="M 74.970227 263.950053 
L 76.609897 254.557443 
L 78.249566 249.874563 
L 79.889236 258.228751 
L 81.528905 240.578473 
L 83.168574 255.952656 
L 84.808244 262.678653 
L 86.447913 263.902348 
L 88.087583 260.74071 
L 89.727252 262.588346 
L 91.366921 241.35862 
L 93.006591 257.442169 
L 94.64626 245.082071 
L 96.28593 258.832944 
L 97.925599 254.298948 
L 99.565269 260.322901 
L 101.204938 258.95498 
L 102.844607 242.369306 
L 104.484277 248.609597 
L 106.123946 262.894325 
L 107.763616 243.967765 
L 109.403285 262.446783 
L 111.042955 200.1577 
L 112.682624 262.223789 
L 114.322293 260.553217 
L 115.961963 263.42463 
L 117.601632 263.199639 
L 119.241302 248.529718 
L 120.880971 263.634311 
L 122.52064 262.563938 
L 124.16031 263.974461 
L 125.799979 263.536904 
L 127.439649 259.242765 
L 129.079318 263.076049 
L 130.718988 262.518674 
L 132.358657 192.453412 
L 133.998326 236.412584 
L 135.637996 206.014574 
L 137.277665 264.240501 
L 138.917335 264.035923 
L 140.557004 252.260491 
L 142.196674 261.044914 
L 143.836343 254.213078 
L 145.476012 205.538631 
L 147.115682 241.771326 
L 148.755351 263.322563 
L 150.395021 262.734124 
L 152.03469 263.273748 
L 153.67436 264.251151 
L 155.314029 262.625622 
L 156.953698 247.914431 
L 158.593368 262.266613 
L 160.233037 263.979564 
L 161.872707 260.95727 
L 163.512376 261.850578 
L 165.152045 264.1604 
L 166.791715 142.750972 
L 168.431384 249.611851 
L 170.071054 202.175743 
L 171.710723 264.117355 
L 173.350393 263.57884 
L 174.990062 261.618709 
L 176.629731 264.345452 
L 178.269401 242.301853 
L 179.90907 263.827573 
L 181.54874 264.053008 
L 183.188409 262.409285 
L 184.828079 263.808713 
L 188.107417 257.530479 
L 189.747087 214.228975 
L 191.386756 263.502955 
L 193.026426 264.0073 
L 194.666095 262.273269 
L 196.305764 262.31343 
L 197.945434 257.863307 
L 199.585103 259.678103 
L 201.224773 257.503853 
L 202.864442 259.809015 
L 204.504112 250.125293 
L 206.143781 261.326708 
L 207.78345 264.208105 
L 209.42312 259.694523 
L 211.062789 237.750328 
L 212.702459 254.658179 
L 214.342128 246.025747 
L 215.981798 263.528694 
L 217.621467 245.274667 
L 219.261136 241.141839 
L 220.900806 254.454489 
L 222.540475 264.197899 
L 224.180145 254.68414 
L 225.819814 258.822959 
L 227.459483 263.715743 
L 229.099153 102.98121 
L 230.738822 245.927674 
L 232.378492 264.096275 
L 234.018161 261.46938 
L 235.657831 248.06376 
L 237.2975 254.582516 
L 238.937169 220.066989 
L 240.576839 235.467576 
L 242.216508 264.396708 
L 243.856178 263.650287 
L 245.495847 263.101122 
L 247.135517 256.937825 
L 248.775186 264.567115 
L 250.414855 264.469486 
L 252.054525 259.94725 
L 253.694194 264.078525 
L 255.333864 262.720367 
L 256.973533 262.375336 
L 258.613202 264.555799 
L 260.252872 263.333435 
L 261.892541 263.646737 
L 263.532211 262.917401 
L 265.17188 257.664276 
L 266.81155 262.115731 
L 268.451219 255.137451 
L 270.090888 255.390843 
L 271.730558 264.26158 
L 273.370227 253.668129 
L 275.009897 255.19625 
L 276.649566 261.65532 
L 278.289236 248.509749 
L 279.928905 207.928553 
L 281.568574 254.18978 
L 283.208244 235.130533 
L 284.847913 250.873488 
L 286.487583 190.369469 
L 288.127252 257.372275 
L 289.766921 214.654106 
L 293.04626 258.83716 
L 294.68593 261.448523 
L 296.325599 258.588427 
L 297.965269 256.586359 
L 299.604938 264.660973 
L 301.244607 255.881209 
L 302.884277 254.87962 
L 304.523946 263.412426 
L 306.163616 264.094944 
L 307.803285 259.863377 
L 309.442955 261.683055 
L 311.082624 225.143937 
L 312.722293 246.508569 
L 314.361963 263.806494 
L 316.001632 259.061707 
L 317.641302 261.299416 
L 319.280971 261.340465 
L 320.92064 264.716 
L 322.56031 264.715334 
L 324.199979 257.919444 
L 325.839649 254.67127 
L 327.479318 222.45558 
L 329.118988 263.820694 
L 330.758657 256.737906 
L 332.398326 258.618825 
L 334.037996 247.900009 
L 335.677665 244.308802 
L 337.317335 239.19968 
L 338.957004 228.586259 
L 340.596674 264.53117 
L 342.236343 261.826615 
L 345.515682 256.810241 
L 347.155351 213.022587 
L 348.795021 260.758683 
L 350.43469 254.366179 
L 352.07436 252.387409 
L 353.714029 259.703842 
L 355.353698 262.454771 
L 356.993368 238.295721 
L 358.633037 236.252383 
L 360.272707 256.886347 
L 361.912376 261.914037 
L 363.552045 238.962929 
L 365.191715 254.359078 
L 366.831384 256.368246 
L 368.471054 227.947897 
L 370.110723 264.714003 
L 371.750393 256.022106 
L 373.390062 262.620297 
L 375.029731 262.770513 
L 376.669401 261.714785 
L 378.30907 254.769344 
L 379.94874 255.064229 
L 381.588409 250.710625 
L 383.228079 258.820074 
L 384.867748 229.301394 
L 386.507417 168.164116 
L 388.147087 247.495069 
L 389.786756 225.165016 
L 389.786756 225.165016 
" style="fill:none;stroke:#1f77b4;stroke-linecap:square;stroke-width:0.5;"/>
   </g>
   <g id="line2d_27">
    <path clip-path="url(#padf5570fc6)" d="M 74.970227 263.989993 
L 76.609897 264.541377 
L 78.249566 262.503808 
L 79.889236 262.399078 
L 81.528905 257.549561 
L 83.168574 263.884819 
L 84.808244 258.238292 
L 86.447913 263.059851 
L 88.087583 241.087699 
L 91.366921 259.926836 
L 93.006591 257.762571 
L 94.64626 263.973351 
L 96.28593 252.857583 
L 97.925599 250.117527 
L 99.565269 263.315019 
L 101.204938 257.563984 
L 102.844607 250.969565 
L 104.484277 263.21628 
L 106.123946 249.596541 
L 107.763616 262.232886 
L 109.403285 256.235115 
L 111.042955 263.906342 
L 112.682624 263.866403 
L 114.322293 258.485694 
L 115.961963 258.7595 
L 117.601632 262.875021 
L 119.241302 239.532951 
L 120.880971 245.508755 
L 122.52064 255.596087 
L 124.16031 258.893962 
L 125.799979 263.383359 
L 127.439649 261.192912 
L 129.079318 258.384071 
L 130.718988 232.611473 
L 132.358657 263.68246 
L 133.998326 263.257994 
L 135.637996 255.967078 
L 137.277665 263.648068 
L 138.917335 168.6567 
L 140.557004 263.083815 
L 142.196674 254.863645 
L 143.836343 222.474218 
L 145.476012 261.609389 
L 147.115682 260.09325 
L 148.755351 264.703353 
L 150.395021 245.318378 
L 152.03469 258.680065 
L 153.67436 259.841854 
L 155.314029 263.477438 
L 156.953698 260.437393 
L 158.593368 258.378967 
L 160.233037 253.361928 
L 161.872707 262.986629 
L 163.512376 263.891254 
L 165.152045 262.244868 
L 166.791715 264.467267 
L 168.431384 261.424116 
L 170.071054 260.40522 
L 171.710723 264.228297 
L 173.350393 258.775697 
L 174.990062 257.396239 
L 176.629731 262.34516 
L 178.269401 263.510943 
L 179.90907 262.684422 
L 181.54874 261.152085 
L 183.188409 262.011445 
L 184.828079 168.954914 
L 186.467748 260.357293 
L 188.107417 263.931193 
L 189.747087 263.288836 
L 191.386756 253.740907 
L 193.026426 262.9032 
L 194.666095 263.729056 
L 196.305764 262.098202 
L 197.945434 252.601528 
L 199.585103 259.315987 
L 201.224773 263.620332 
L 202.864442 264.396486 
L 204.504112 262.42992 
L 206.143781 262.669999 
L 207.78345 261.691265 
L 209.42312 262.283698 
L 211.062789 263.724174 
L 212.702459 257.658729 
L 214.342128 264.332805 
L 215.981798 256.973548 
L 217.621467 262.797361 
L 219.261136 263.208736 
L 220.900806 262.828869 
L 222.540475 263.407767 
L 224.180145 262.749878 
L 225.819814 264.121348 
L 227.459483 256.898551 
L 229.099153 239.390501 
L 230.738822 231.827554 
L 232.378492 262.636938 
L 234.018161 259.113406 
L 235.657831 227.894422 
L 237.2975 259.567826 
L 238.937169 261.649107 
L 240.576839 260.21573 
L 242.216508 262.157223 
L 243.856178 262.602324 
L 245.495847 262.130153 
L 247.135517 263.48232 
L 248.775186 258.058122 
L 250.414855 261.835712 
L 252.054525 261.35866 
L 253.694194 263.172569 
L 255.333864 262.806902 
L 256.973533 260.588941 
L 258.613202 264.20389 
L 260.252872 257.136634 
L 261.892541 258.785238 
L 263.532211 263.146164 
L 265.17188 264.138434 
L 266.81155 252.020412 
L 268.451219 260.386582 
L 270.090888 226.626794 
L 271.730558 256.833317 
L 273.370227 264.489012 
L 275.009897 257.401564 
L 276.649566 262.91962 
L 279.928905 263.71663 
L 281.568574 263.900129 
L 283.208244 248.068863 
L 284.847913 263.579949 
L 286.487583 261.346678 
L 288.127252 264.716 
L 289.766921 219.129969 
L 291.406591 261.990144 
L 293.04626 260.056639 
L 294.68593 260.547005 
L 296.325599 263.352074 
L 297.965269 264.271343 
L 299.604938 253.477752 
L 301.244607 264.309063 
L 302.884277 263.843327 
L 304.523946 258.607731 
L 306.163616 263.37515 
L 307.803285 263.914996 
L 309.442955 258.951874 
L 311.082624 256.474751 
L 312.722293 263.867068 
L 314.361963 254.354641 
L 316.001632 250.988647 
L 317.641302 261.746736 
L 319.280971 237.820443 
L 320.92064 264.21454 
L 322.56031 255.58943 
L 324.199979 242.337132 
L 325.839649 263.589712 
L 327.479318 256.404192 
L 329.118988 264.294641 
L 330.758657 263.376481 
L 332.398326 235.072621 
L 334.037996 264.255145 
L 335.677665 261.177158 
L 337.317335 263.245791 
L 338.957004 261.419456 
L 340.596674 263.622107 
L 342.236343 261.629359 
L 343.876012 253.933281 
L 345.515682 261.807089 
L 347.155351 257.287737 
L 348.795021 263.994874 
L 350.43469 264.24627 
L 353.714029 260.330001 
L 355.353698 262.832641 
L 356.993368 263.102675 
L 358.633037 171.85029 
L 360.272707 262.318977 
L 361.912376 264.327701 
L 365.191715 261.325821 
L 366.831384 261.051127 
L 368.471054 260.563424 
L 370.110723 262.804683 
L 371.750393 256.940265 
L 373.390062 254.081722 
L 375.029731 264.69603 
L 376.669401 257.500525 
L 378.30907 263.08559 
L 379.94874 251.234495 
L 381.588409 260.463132 
L 383.228079 251.191893 
L 384.867748 262.896988 
L 386.507417 264.405583 
L 388.147087 260.158928 
L 389.786756 261.537499 
L 391.426426 264.242054 
L 393.066095 263.552879 
L 394.705764 260.567418 
L 394.705764 260.567418 
" style="fill:none;stroke:#ff7f0e;stroke-linecap:square;stroke-width:0.5;"/>
   </g>
   <g id="line2d_28">
    <path clip-path="url(#padf5570fc6)" d="M 74.970227 259.234112 
L 76.609897 261.752283 
L 78.249566 258.775254 
L 79.889236 264.077415 
L 81.528905 254.486884 
L 83.168574 263.585053 
L 84.808244 263.452365 
L 86.447913 255.611841 
L 88.087583 263.914996 
L 89.727252 249.529753 
L 91.366921 264.453732 
L 93.006591 263.87084 
L 94.64626 254.1403 
L 96.28593 255.278126 
L 97.925599 261.54238 
L 99.565269 260.20508 
L 101.204938 263.826463 
L 104.484277 263.97668 
L 106.123946 261.527292 
L 107.763616 251.746606 
L 109.403285 262.19095 
L 111.042955 261.02317 
L 112.682624 260.530585 
L 114.322293 263.766776 
L 115.961963 261.514645 
L 117.601632 263.070502 
L 119.241302 264.108035 
L 120.880971 262.762969 
L 122.52064 263.302815 
L 124.16031 264.54182 
L 125.799979 263.543116 
L 127.439649 263.849983 
L 129.079318 264.002196 
L 130.718988 262.888112 
L 132.358657 264.516525 
L 133.998326 261.789782 
L 135.637996 264.227409 
L 137.277665 254.312926 
L 138.917335 263.606354 
L 140.557004 262.883453 
L 142.196674 264.519632 
L 143.836343 261.475371 
L 145.476012 264.481246 
L 148.755351 264.02505 
L 150.395021 263.4659 
L 152.03469 263.399779 
L 153.67436 258.787457 
L 155.314029 263.977789 
L 156.953698 257.81072 
L 158.593368 264.596626 
L 160.233037 264.671401 
L 161.872707 239.088516 
L 163.512376 264.246048 
L 165.152045 258.389396 
L 166.791715 262.00856 
L 168.431384 259.755097 
L 170.071054 259.373012 
L 171.710723 264.288206 
L 173.350393 262.828425 
L 174.990062 263.591265 
L 176.629731 264.545814 
L 178.269401 250.159685 
L 179.90907 261.690377 
L 181.54874 261.705688 
L 183.188409 261.490681 
L 184.828079 255.510217 
L 186.467748 263.774099 
L 188.107417 259.972988 
L 189.747087 260.897139 
L 191.386756 264.599732 
L 193.026426 263.842661 
L 196.305764 264.05212 
L 197.945434 259.370571 
L 199.585103 261.964627 
L 201.224773 264.141318 
L 202.864442 263.280183 
L 204.504112 260.01914 
L 206.143781 263.702652 
L 207.78345 264.459945 
L 209.42312 259.811678 
L 211.062789 264.147531 
L 212.702459 263.490086 
L 214.342128 264.240279 
L 215.981798 260.818148 
L 217.621467 263.171015 
L 219.261136 262.99728 
L 220.900806 264.213209 
L 222.540475 259.405851 
L 224.180145 262.359804 
L 225.819814 264.443303 
L 227.459483 262.365573 
L 229.099153 258.329487 
L 230.738822 263.17856 
L 232.378492 262.451443 
L 234.018161 259.883569 
L 235.657831 262.302114 
L 237.2975 264.191908 
L 238.937169 262.592561 
L 240.576839 264.5771 
L 242.216508 264.021278 
L 243.856178 263.847986 
L 245.495847 264.098272 
L 247.135517 262.249527 
L 248.775186 263.462128 
L 250.414855 262.851057 
L 252.054525 257.327898 
L 253.694194 260.468235 
L 255.333864 258.803211 
L 256.973533 263.750801 
L 258.613202 264.131777 
L 260.252872 262.814003 
L 261.892541 262.290354 
L 263.532211 261.945989 
L 265.17188 262.652692 
L 266.81155 258.354782 
L 268.451219 259.907754 
L 270.090888 263.344973 
L 271.730558 260.436728 
L 273.370227 262.835525 
L 275.009897 262.032524 
L 276.649566 263.491861 
L 278.289236 264.328589 
L 279.928905 260.43229 
L 281.568574 264.243829 
L 283.208244 261.779131 
L 284.847913 263.764336 
L 286.487583 262.910744 
L 288.127252 260.639087 
L 289.766921 258.14266 
L 291.406591 263.455028 
L 293.04626 263.290168 
L 294.68593 264.215206 
L 296.325599 262.708164 
L 297.965269 264.349224 
L 299.604938 263.533575 
L 301.244607 260.03201 
L 302.884277 259.594675 
L 304.523946 256.06848 
L 306.163616 263.929196 
L 307.803285 263.677135 
L 309.442955 264.237616 
L 311.082624 257.479224 
L 312.722293 260.796403 
L 314.361963 235.392135 
L 316.001632 259.815006 
L 317.641302 262.831532 
L 319.280971 262.506914 
L 320.92064 263.751244 
L 324.199979 263.017693 
L 325.839649 263.99554 
L 327.479318 261.908047 
L 329.118988 263.387353 
L 330.758657 239.055899 
L 332.398326 264.236063 
L 334.037996 261.390167 
L 335.677665 264.339018 
L 338.957004 263.552436 
L 340.596674 264.101157 
L 342.236343 262.484504 
L 343.876012 264.051677 
L 345.515682 264.01085 
L 347.155351 262.877018 
L 348.795021 264.535829 
L 350.43469 264.222528 
L 352.07436 264.497887 
L 353.714029 261.635128 
L 355.353698 264.039029 
L 356.993368 263.063845 
L 358.633037 264.515416 
L 360.272707 260.519491 
L 361.912376 264.532057 
L 363.552045 264.473702 
L 366.831384 257.474786 
L 370.110723 264.470373 
L 370.110723 264.470373 
" style="fill:none;stroke:#2ca02c;stroke-linecap:square;stroke-width:0.5;"/>
   </g>
   <g id="patch_3">
    <path d="M 58.7375 276.812 
L 58.7375 10.7 
" style="fill:none;stroke:#000000;stroke-linecap:square;stroke-linejoin:miter;stroke-width:0.8;"/>
   </g>
   <g id="patch_4">
    <path d="M 415.8575 276.812 
L 415.8575 10.7 
" style="fill:none;stroke:#000000;stroke-linecap:square;stroke-linejoin:miter;stroke-width:0.8;"/>
   </g>
   <g id="patch_5">
    <path d="M 58.7375 276.812 
L 415.8575 276.812 
" style="fill:none;stroke:#000000;stroke-linecap:square;stroke-linejoin:miter;stroke-width:0.8;"/>
   </g>
   <g id="patch_6">
    <path d="M 58.7375 10.7 
L 415.8575 10.7 
" style="fill:none;stroke:#000000;stroke-linecap:square;stroke-linejoin:miter;stroke-width:0.8;"/>
   </g>
  </g>
 </g>
 <defs>
  <clipPath id="padf5570fc6">
   <rect height="266.112" width="357.12" x="58.7375" y="10.7"/>
  </clipPath>
 </defs>
</svg>
