<?xml version="1.0" encoding="utf-8" standalone="no"?>
<!DOCTYPE svg PUBLIC "-//W3C//DTD SVG 1.1//EN"
  "http://www.w3.org/Graphics/SVG/1.1/DTD/svg11.dtd">
<!-- Created with matplotlib (http://matplotlib.org/) -->
<svg height="300pt" version="1.1" viewBox="0 0 426 300" width="426pt" xmlns="http://www.w3.org/2000/svg" xmlns:xlink="http://www.w3.org/1999/xlink">
 <defs>
  <style type="text/css">
*{stroke-linecap:butt;stroke-linejoin:round;}
  </style>
 </defs>
 <g id="figure_1">
  <g id="patch_1">
   <path d="M 0 300.690125 
L 426.5575 300.690125 
L 426.5575 0 
L 0 0 
z
" style="fill:#ffffff;"/>
  </g>
  <g id="axes_1">
   <g id="patch_2">
    <path d="M 58.7375 276.812 
L 415.8575 276.812 
L 415.8575 10.7 
L 58.7375 10.7 
z
" style="fill:#ffffff;"/>
   </g>
   <g id="matplotlib.axis_1">
    <g id="xtick_1">
     <g id="line2d_1">
      <defs>
       <path d="M 0 0 
L 0 3.5 
" id="m0103935893" style="stroke:#000000;stroke-width:0.8;"/>
      </defs>
      <g>
       <use style="stroke:#000000;stroke-width:0.8;" x="74.970227" xlink:href="#m0103935893" y="276.812"/>
      </g>
     </g>
     <g id="text_1">
      <!-- 0 -->
      <defs>
       <path d="M 31.78125 66.40625 
Q 24.171875 66.40625 20.328125 58.90625 
Q 16.5 51.421875 16.5 36.375 
Q 16.5 21.390625 20.328125 13.890625 
Q 24.171875 6.390625 31.78125 6.390625 
Q 39.453125 6.390625 43.28125 13.890625 
Q 47.125 21.390625 47.125 36.375 
Q 47.125 51.421875 43.28125 58.90625 
Q 39.453125 66.40625 31.78125 66.40625 
z
M 31.78125 74.21875 
Q 44.046875 74.21875 50.515625 64.515625 
Q 56.984375 54.828125 56.984375 36.375 
Q 56.984375 17.96875 50.515625 8.265625 
Q 44.046875 -1.421875 31.78125 -1.421875 
Q 19.53125 -1.421875 13.0625 8.265625 
Q 6.59375 17.96875 6.59375 36.375 
Q 6.59375 54.828125 13.0625 64.515625 
Q 19.53125 74.21875 31.78125 74.21875 
z
" id="DejaVuSans-30"/>
      </defs>
      <g transform="translate(71.788977 291.410437)scale(0.1 -0.1)">
       <use xlink:href="#DejaVuSans-30"/>
      </g>
     </g>
    </g>
    <g id="xtick_2">
     <g id="line2d_2">
      <g>
       <use style="stroke:#000000;stroke-width:0.8;" x="115.961963" xlink:href="#m0103935893" y="276.812"/>
      </g>
     </g>
     <g id="text_2">
      <!-- 25 -->
      <defs>
       <path d="M 19.1875 8.296875 
L 53.609375 8.296875 
L 53.609375 0 
L 7.328125 0 
L 7.328125 8.296875 
Q 12.9375 14.109375 22.625 23.890625 
Q 32.328125 33.6875 34.8125 36.53125 
Q 39.546875 41.84375 41.421875 45.53125 
Q 43.3125 49.21875 43.3125 52.78125 
Q 43.3125 58.59375 39.234375 62.25 
Q 35.15625 65.921875 28.609375 65.921875 
Q 23.96875 65.921875 18.8125 64.3125 
Q 13.671875 62.703125 7.8125 59.421875 
L 7.8125 69.390625 
Q 13.765625 71.78125 18.9375 73 
Q 24.125 74.21875 28.421875 74.21875 
Q 39.75 74.21875 46.484375 68.546875 
Q 53.21875 62.890625 53.21875 53.421875 
Q 53.21875 48.921875 51.53125 44.890625 
Q 49.859375 40.875 45.40625 35.40625 
Q 44.1875 33.984375 37.640625 27.21875 
Q 31.109375 20.453125 19.1875 8.296875 
z
" id="DejaVuSans-32"/>
       <path d="M 10.796875 72.90625 
L 49.515625 72.90625 
L 49.515625 64.59375 
L 19.828125 64.59375 
L 19.828125 46.734375 
Q 21.96875 47.46875 24.109375 47.828125 
Q 26.265625 48.1875 28.421875 48.1875 
Q 40.625 48.1875 47.75 41.5 
Q 54.890625 34.8125 54.890625 23.390625 
Q 54.890625 11.625 47.5625 5.09375 
Q 40.234375 -1.421875 26.90625 -1.421875 
Q 22.3125 -1.421875 17.546875 -0.640625 
Q 12.796875 0.140625 7.71875 1.703125 
L 7.71875 11.625 
Q 12.109375 9.234375 16.796875 8.0625 
Q 21.484375 6.890625 26.703125 6.890625 
Q 35.15625 6.890625 40.078125 11.328125 
Q 45.015625 15.765625 45.015625 23.390625 
Q 45.015625 31 40.078125 35.4375 
Q 35.15625 39.890625 26.703125 39.890625 
Q 22.75 39.890625 18.8125 39.015625 
Q 14.890625 38.140625 10.796875 36.28125 
z
" id="DejaVuSans-35"/>
      </defs>
      <g transform="translate(109.599463 291.410437)scale(0.1 -0.1)">
       <use xlink:href="#DejaVuSans-32"/>
       <use x="63.623047" xlink:href="#DejaVuSans-35"/>
      </g>
     </g>
    </g>
    <g id="xtick_3">
     <g id="line2d_3">
      <g>
       <use style="stroke:#000000;stroke-width:0.8;" x="156.953698" xlink:href="#m0103935893" y="276.812"/>
      </g>
     </g>
     <g id="text_3">
      <!-- 50 -->
      <g transform="translate(150.591198 291.410437)scale(0.1 -0.1)">
       <use xlink:href="#DejaVuSans-35"/>
       <use x="63.623047" xlink:href="#DejaVuSans-30"/>
      </g>
     </g>
    </g>
    <g id="xtick_4">
     <g id="line2d_4">
      <g>
       <use style="stroke:#000000;stroke-width:0.8;" x="197.945434" xlink:href="#m0103935893" y="276.812"/>
      </g>
     </g>
     <g id="text_4">
      <!-- 75 -->
      <defs>
       <path d="M 8.203125 72.90625 
L 55.078125 72.90625 
L 55.078125 68.703125 
L 28.609375 0 
L 18.3125 0 
L 43.21875 64.59375 
L 8.203125 64.59375 
z
" id="DejaVuSans-37"/>
      </defs>
      <g transform="translate(191.582934 291.410437)scale(0.1 -0.1)">
       <use xlink:href="#DejaVuSans-37"/>
       <use x="63.623047" xlink:href="#DejaVuSans-35"/>
      </g>
     </g>
    </g>
    <g id="xtick_5">
     <g id="line2d_5">
      <g>
       <use style="stroke:#000000;stroke-width:0.8;" x="238.937169" xlink:href="#m0103935893" y="276.812"/>
      </g>
     </g>
     <g id="text_5">
      <!-- 100 -->
      <defs>
       <path d="M 12.40625 8.296875 
L 28.515625 8.296875 
L 28.515625 63.921875 
L 10.984375 60.40625 
L 10.984375 69.390625 
L 28.421875 72.90625 
L 38.28125 72.90625 
L 38.28125 8.296875 
L 54.390625 8.296875 
L 54.390625 0 
L 12.40625 0 
z
" id="DejaVuSans-31"/>
      </defs>
      <g transform="translate(229.393419 291.410437)scale(0.1 -0.1)">
       <use xlink:href="#DejaVuSans-31"/>
       <use x="63.623047" xlink:href="#DejaVuSans-30"/>
       <use x="127.246094" xlink:href="#DejaVuSans-30"/>
      </g>
     </g>
    </g>
    <g id="xtick_6">
     <g id="line2d_6">
      <g>
       <use style="stroke:#000000;stroke-width:0.8;" x="279.928905" xlink:href="#m0103935893" y="276.812"/>
      </g>
     </g>
     <g id="text_6">
      <!-- 125 -->
      <g transform="translate(270.385155 291.410437)scale(0.1 -0.1)">
       <use xlink:href="#DejaVuSans-31"/>
       <use x="63.623047" xlink:href="#DejaVuSans-32"/>
       <use x="127.246094" xlink:href="#DejaVuSans-35"/>
      </g>
     </g>
    </g>
    <g id="xtick_7">
     <g id="line2d_7">
      <g>
       <use style="stroke:#000000;stroke-width:0.8;" x="320.92064" xlink:href="#m0103935893" y="276.812"/>
      </g>
     </g>
     <g id="text_7">
      <!-- 150 -->
      <g transform="translate(311.37689 291.410437)scale(0.1 -0.1)">
       <use xlink:href="#DejaVuSans-31"/>
       <use x="63.623047" xlink:href="#DejaVuSans-35"/>
       <use x="127.246094" xlink:href="#DejaVuSans-30"/>
      </g>
     </g>
    </g>
    <g id="xtick_8">
     <g id="line2d_8">
      <g>
       <use style="stroke:#000000;stroke-width:0.8;" x="361.912376" xlink:href="#m0103935893" y="276.812"/>
      </g>
     </g>
     <g id="text_8">
      <!-- 175 -->
      <g transform="translate(352.368626 291.410437)scale(0.1 -0.1)">
       <use xlink:href="#DejaVuSans-31"/>
       <use x="63.623047" xlink:href="#DejaVuSans-37"/>
       <use x="127.246094" xlink:href="#DejaVuSans-35"/>
      </g>
     </g>
    </g>
    <g id="xtick_9">
     <g id="line2d_9">
      <g>
       <use style="stroke:#000000;stroke-width:0.8;" x="402.904112" xlink:href="#m0103935893" y="276.812"/>
      </g>
     </g>
     <g id="text_9">
      <!-- 200 -->
      <g transform="translate(393.360362 291.410437)scale(0.1 -0.1)">
       <use xlink:href="#DejaVuSans-32"/>
       <use x="63.623047" xlink:href="#DejaVuSans-30"/>
       <use x="127.246094" xlink:href="#DejaVuSans-30"/>
      </g>
     </g>
    </g>
   </g>
   <g id="matplotlib.axis_2">
    <g id="ytick_1">
     <g id="line2d_10">
      <defs>
       <path d="M 0 0 
L -3.5 0 
" id="mb528d4b751" style="stroke:#000000;stroke-width:0.8;"/>
      </defs>
      <g>
       <use style="stroke:#000000;stroke-width:0.8;" x="58.7375" xlink:href="#mb528d4b751" y="264.716"/>
      </g>
     </g>
     <g id="text_10">
      <!-- 0 -->
      <g transform="translate(45.375 268.515219)scale(0.1 -0.1)">
       <use xlink:href="#DejaVuSans-30"/>
      </g>
     </g>
    </g>
    <g id="ytick_2">
     <g id="line2d_11">
      <g>
       <use style="stroke:#000000;stroke-width:0.8;" x="58.7375" xlink:href="#mb528d4b751" y="230.237546"/>
      </g>
     </g>
     <g id="text_11">
      <!-- 250000 -->
      <g transform="translate(13.5625 234.036765)scale(0.1 -0.1)">
       <use xlink:href="#DejaVuSans-32"/>
       <use x="63.623047" xlink:href="#DejaVuSans-35"/>
       <use x="127.246094" xlink:href="#DejaVuSans-30"/>
       <use x="190.869141" xlink:href="#DejaVuSans-30"/>
       <use x="254.492188" xlink:href="#DejaVuSans-30"/>
       <use x="318.115234" xlink:href="#DejaVuSans-30"/>
      </g>
     </g>
    </g>
    <g id="ytick_3">
     <g id="line2d_12">
      <g>
       <use style="stroke:#000000;stroke-width:0.8;" x="58.7375" xlink:href="#mb528d4b751" y="195.759093"/>
      </g>
     </g>
     <g id="text_12">
      <!-- 500000 -->
      <g transform="translate(13.5625 199.558312)scale(0.1 -0.1)">
       <use xlink:href="#DejaVuSans-35"/>
       <use x="63.623047" xlink:href="#DejaVuSans-30"/>
       <use x="127.246094" xlink:href="#DejaVuSans-30"/>
       <use x="190.869141" xlink:href="#DejaVuSans-30"/>
       <use x="254.492188" xlink:href="#DejaVuSans-30"/>
       <use x="318.115234" xlink:href="#DejaVuSans-30"/>
      </g>
     </g>
    </g>
    <g id="ytick_4">
     <g id="line2d_13">
      <g>
       <use style="stroke:#000000;stroke-width:0.8;" x="58.7375" xlink:href="#mb528d4b751" y="161.280639"/>
      </g>
     </g>
     <g id="text_13">
      <!-- 750000 -->
      <g transform="translate(13.5625 165.079858)scale(0.1 -0.1)">
       <use xlink:href="#DejaVuSans-37"/>
       <use x="63.623047" xlink:href="#DejaVuSans-35"/>
       <use x="127.246094" xlink:href="#DejaVuSans-30"/>
       <use x="190.869141" xlink:href="#DejaVuSans-30"/>
       <use x="254.492188" xlink:href="#DejaVuSans-30"/>
       <use x="318.115234" xlink:href="#DejaVuSans-30"/>
      </g>
     </g>
    </g>
    <g id="ytick_5">
     <g id="line2d_14">
      <g>
       <use style="stroke:#000000;stroke-width:0.8;" x="58.7375" xlink:href="#mb528d4b751" y="126.802186"/>
      </g>
     </g>
     <g id="text_14">
      <!-- 1000000 -->
      <g transform="translate(7.2 130.601405)scale(0.1 -0.1)">
       <use xlink:href="#DejaVuSans-31"/>
       <use x="63.623047" xlink:href="#DejaVuSans-30"/>
       <use x="127.246094" xlink:href="#DejaVuSans-30"/>
       <use x="190.869141" xlink:href="#DejaVuSans-30"/>
       <use x="254.492188" xlink:href="#DejaVuSans-30"/>
       <use x="318.115234" xlink:href="#DejaVuSans-30"/>
       <use x="381.738281" xlink:href="#DejaVuSans-30"/>
      </g>
     </g>
    </g>
    <g id="ytick_6">
     <g id="line2d_15">
      <g>
       <use style="stroke:#000000;stroke-width:0.8;" x="58.7375" xlink:href="#mb528d4b751" y="92.323732"/>
      </g>
     </g>
     <g id="text_15">
      <!-- 1250000 -->
      <g transform="translate(7.2 96.122951)scale(0.1 -0.1)">
       <use xlink:href="#DejaVuSans-31"/>
       <use x="63.623047" xlink:href="#DejaVuSans-32"/>
       <use x="127.246094" xlink:href="#DejaVuSans-35"/>
       <use x="190.869141" xlink:href="#DejaVuSans-30"/>
       <use x="254.492188" xlink:href="#DejaVuSans-30"/>
       <use x="318.115234" xlink:href="#DejaVuSans-30"/>
       <use x="381.738281" xlink:href="#DejaVuSans-30"/>
      </g>
     </g>
    </g>
    <g id="ytick_7">
     <g id="line2d_16">
      <g>
       <use style="stroke:#000000;stroke-width:0.8;" x="58.7375" xlink:href="#mb528d4b751" y="57.845279"/>
      </g>
     </g>
     <g id="text_16">
      <!-- 1500000 -->
      <g transform="translate(7.2 61.644498)scale(0.1 -0.1)">
       <use xlink:href="#DejaVuSans-31"/>
       <use x="63.623047" xlink:href="#DejaVuSans-35"/>
       <use x="127.246094" xlink:href="#DejaVuSans-30"/>
       <use x="190.869141" xlink:href="#DejaVuSans-30"/>
       <use x="254.492188" xlink:href="#DejaVuSans-30"/>
       <use x="318.115234" xlink:href="#DejaVuSans-30"/>
       <use x="381.738281" xlink:href="#DejaVuSans-30"/>
      </g>
     </g>
    </g>
    <g id="ytick_8">
     <g id="line2d_17">
      <g>
       <use style="stroke:#000000;stroke-width:0.8;" x="58.7375" xlink:href="#mb528d4b751" y="23.366825"/>
      </g>
     </g>
     <g id="text_17">
      <!-- 1750000 -->
      <g transform="translate(7.2 27.166044)scale(0.1 -0.1)">
       <use xlink:href="#DejaVuSans-31"/>
       <use x="63.623047" xlink:href="#DejaVuSans-37"/>
       <use x="127.246094" xlink:href="#DejaVuSans-35"/>
       <use x="190.869141" xlink:href="#DejaVuSans-30"/>
       <use x="254.492188" xlink:href="#DejaVuSans-30"/>
       <use x="318.115234" xlink:href="#DejaVuSans-30"/>
       <use x="381.738281" xlink:href="#DejaVuSans-30"/>
      </g>
     </g>
    </g>
   </g>
   <g id="line2d_18">
    <path clip-path="url(#p3e638d9a72)" d="M 74.970227 262.96808 
L 76.609897 263.593382 
L 78.249566 263.370789 
L 79.889236 264.001882 
L 81.528905 263.996779 
L 83.168574 264.388455 
L 84.808244 264.313016 
L 86.447913 264.645526 
L 88.087583 260.983225 
L 89.727252 259.586709 
L 91.366921 263.325967 
L 93.006591 259.313226 
L 94.64626 263.912514 
L 96.28593 261.348558 
L 97.925599 264.503061 
L 99.565269 262.71625 
L 101.204938 264.169861 
L 102.844607 258.655791 
L 104.484277 263.12282 
L 106.123946 264.025466 
L 107.763616 263.912238 
L 109.403285 264.364044 
L 111.042955 260.334064 
L 112.682624 262.592679 
L 114.322293 264.366251 
L 115.961963 262.419597 
L 117.601632 261.846979 
L 119.241302 263.585245 
L 120.880971 264.294949 
L 122.52064 260.54521 
L 124.16031 261.640798 
L 125.799979 259.766273 
L 127.439649 243.960798 
L 129.079318 220.329956 
L 130.718988 256.763338 
L 132.358657 263.957612 
L 133.998326 262.115911 
L 135.637996 262.444422 
L 137.277665 256.782094 
L 138.917335 261.519158 
L 140.557004 261.955655 
L 142.196674 263.852522 
L 143.836343 258.018629 
L 145.476012 258.501604 
L 147.115682 246.86816 
L 148.755351 253.697927 
L 150.395021 254.983146 
L 152.03469 239.090786 
L 153.67436 260.695123 
L 155.314029 252.08475 
L 156.953698 263.628136 
L 158.593368 264.170275 
L 160.233037 253.841634 
L 161.872707 263.390372 
L 163.512376 264.140348 
L 165.152045 263.964094 
L 168.431384 260.506043 
L 170.071054 262.974286 
L 171.710723 264.070563 
L 173.350393 262.138253 
L 174.990062 262.73211 
L 176.629731 250.178919 
L 178.269401 264.399902 
L 179.90907 253.852529 
L 181.54874 263.025452 
L 183.188409 264.497131 
L 184.828079 263.815561 
L 188.107417 264.334944 
L 189.747087 263.868933 
L 191.386756 263.780806 
L 193.026426 264.15345 
L 194.666095 260.988603 
L 196.305764 264.192893 
L 197.945434 263.870588 
L 199.585103 262.850854 
L 201.224773 263.204603 
L 202.864442 264.208615 
L 204.504112 261.058939 
L 206.143781 263.728675 
L 207.78345 262.841613 
L 209.42312 260.068856 
L 211.062789 263.679991 
L 212.702459 263.889758 
L 214.342128 262.791137 
L 215.981798 263.060345 
L 217.621467 262.014682 
L 219.261136 260.355579 
L 220.900806 262.871679 
L 222.540475 263.714746 
L 224.180145 264.105731 
L 225.819814 264.288329 
L 227.459483 263.9703 
L 229.099153 258.24467 
L 230.738822 260.020586 
L 232.378492 261.527708 
L 234.018161 264.537953 
L 235.657831 264.078149 
L 237.2975 263.90686 
L 238.937169 259.521476 
L 240.576839 264.019673 
L 242.216508 264.4119 
L 243.856178 263.051104 
L 245.495847 264.12104 
L 247.135517 263.028211 
L 248.775186 263.201706 
L 250.414855 262.421114 
L 252.054525 261.303047 
L 253.694194 264.337702 
L 255.333864 264.061461 
L 256.973533 262.880229 
L 258.613202 262.113842 
L 260.252872 257.744043 
L 261.892541 264.115661 
L 263.532211 263.593382 
L 265.17188 259.302607 
L 266.81155 264.178136 
L 268.451219 263.269974 
L 270.090888 263.835558 
L 271.730558 262.136874 
L 273.370227 264.697795 
L 275.009897 263.876381 
L 276.649566 262.341538 
L 278.289236 261.38483 
L 279.928905 263.549111 
L 281.568574 262.846578 
L 283.208244 263.636135 
L 284.847913 263.12544 
L 288.127252 264.282675 
L 289.766921 261.207335 
L 291.406591 263.309141 
L 293.04626 264.443069 
L 294.68593 264.426243 
L 296.325599 263.123095 
L 299.604938 263.963404 
L 301.244607 263.756258 
L 302.884277 263.900791 
L 304.523946 261.535983 
L 306.163616 259.993831 
L 307.803285 263.77529 
L 309.442955 264.41783 
L 311.082624 263.491739 
L 312.722293 263.58883 
L 314.361963 260.38192 
L 316.001632 264.479478 
L 317.641302 262.13577 
L 319.280971 263.434643 
L 320.92064 264.473685 
L 322.56031 263.349274 
L 324.199979 263.141024 
L 325.839649 264.346391 
L 327.479318 264.316188 
L 329.118988 264.534092 
L 330.758657 264.393282 
L 332.398326 263.980919 
L 334.037996 260.572379 
L 335.677665 263.346378 
L 337.317335 262.336021 
L 338.957004 262.964632 
L 340.596674 264.554917 
L 342.236343 263.353549 
L 343.876012 263.717504 
L 345.515682 263.905756 
L 347.155351 262.940773 
L 348.795021 264.210684 
L 350.43469 264.563191 
L 352.07436 261.048044 
L 353.714029 262.022543 
L 355.353698 260.031481 
L 356.993368 264.278537 
L 358.633037 260.590308 
L 360.272707 263.000352 
L 361.912376 262.886435 
L 363.552045 263.159091 
L 365.191715 261.462061 
L 366.831384 262.858025 
L 368.471054 264.608427 
L 370.110723 260.526868 
L 371.750393 263.015661 
L 373.390062 261.070938 
L 375.029731 263.628412 
L 376.669401 257.805001 
L 378.30907 254.528169 
L 379.94874 264.101732 
L 381.588409 260.258074 
L 381.588409 260.258074 
" style="fill:none;stroke:#1f77b4;stroke-linecap:square;stroke-width:0.5;"/>
   </g>
   <g id="line2d_19">
    <path clip-path="url(#p3e638d9a72)" d="M 74.970227 262.617503 
L 76.609897 263.801769 
L 78.249566 261.384692 
L 81.528905 263.487602 
L 83.168574 263.539319 
L 84.808244 260.765183 
L 86.447913 259.537336 
L 88.087583 264.106697 
L 89.727252 264.547607 
L 91.366921 262.371465 
L 93.006591 257.45139 
L 94.64626 259.69842 
L 96.28593 254.319643 
L 97.925599 262.995111 
L 99.565269 264.043808 
L 101.204938 264.589257 
L 102.844607 256.294707 
L 104.484277 258.056694 
L 106.123946 262.466212 
L 107.763616 262.682599 
L 109.403285 262.740247 
L 111.042955 256.599358 
L 112.682624 262.421114 
L 114.322293 264.560157 
L 115.961963 253.339489 
L 117.601632 256.881254 
L 119.241302 262.143769 
L 120.880971 263.344999 
L 122.52064 260.649887 
L 124.16031 263.616827 
L 125.799979 260.228284 
L 127.439649 258.446162 
L 129.079318 261.39476 
L 130.718988 250.414475 
L 132.358657 253.324043 
L 133.998326 241.222796 
L 135.637996 263.055104 
L 137.277665 264.141175 
L 138.917335 263.055242 
L 140.557004 264.091802 
L 142.196674 264.278675 
L 143.836343 261.746302 
L 145.476012 260.42757 
L 147.115682 264.195237 
L 148.755351 261.054112 
L 150.395021 254.643327 
L 152.03469 262.51724 
L 153.67436 257.030477 
L 155.314029 264.249713 
L 156.953698 263.470776 
L 158.593368 263.069723 
L 160.233037 258.813565 
L 161.872707 264.381559 
L 163.512376 264.162138 
L 165.152045 262.986285 
L 166.791715 263.83211 
L 168.431384 264.035533 
L 170.071054 263.664821 
L 171.710723 263.065999 
L 173.350393 262.001856 
L 174.990062 258.972028 
L 176.629731 261.291462 
L 178.269401 259.125526 
L 179.90907 264.147243 
L 181.54874 258.425199 
L 183.188409 261.190095 
L 184.828079 258.619382 
L 186.467748 263.615724 
L 188.107417 264.320601 
L 189.747087 261.281119 
L 191.386756 264.00202 
L 193.026426 253.184199 
L 194.666095 264.288329 
L 196.305764 264.68028 
L 197.945434 262.765761 
L 199.585103 264.071115 
L 201.224773 262.389118 
L 202.864442 263.521666 
L 204.504112 263.259216 
L 206.143781 260.864619 
L 207.78345 261.52826 
L 209.42312 263.849625 
L 211.062789 263.610069 
L 212.702459 263.837213 
L 214.342128 263.129164 
L 215.981798 264.150415 
L 217.621467 260.563001 
L 219.261136 259.479275 
L 220.900806 254.696837 
L 222.540475 264.343771 
L 224.180145 262.921052 
L 225.819814 260.329513 
L 227.459483 263.191225 
L 229.099153 263.984505 
L 230.738822 262.479452 
L 232.378492 258.655102 
L 234.018161 262.98394 
L 235.657831 258.618692 
L 237.2975 261.35904 
L 238.937169 258.148268 
L 240.576839 264.12766 
L 242.216508 262.710319 
L 243.856178 264.454653 
L 245.495847 263.798873 
L 247.135517 252.462358 
L 248.775186 263.151782 
L 250.414855 243.230959 
L 252.054525 263.118958 
L 253.694194 260.948746 
L 255.333864 263.795701 
L 256.973533 262.159354 
L 258.613202 262.947117 
L 260.252872 263.958164 
L 261.892541 263.043105 
L 263.532211 262.637777 
L 265.17188 261.403172 
L 266.81155 263.806872 
L 268.451219 261.181407 
L 270.090888 263.958991 
L 271.730558 262.108877 
L 273.370227 257.907057 
L 275.009897 263.886448 
L 276.649566 260.722981 
L 278.289236 260.857723 
L 279.928905 252.308308 
L 281.568574 263.6662 
L 283.208244 263.721228 
L 284.847913 260.739669 
L 286.487583 263.980506 
L 288.127252 264.606772 
L 289.766921 261.338904 
L 291.406591 262.089156 
L 293.04626 260.724774 
L 294.68593 261.788503 
L 296.325599 264.474237 
L 297.965269 253.81212 
L 299.604938 262.715008 
L 301.244607 264.286398 
L 302.884277 260.515973 
L 304.523946 264.11511 
L 306.163616 263.866451 
L 307.803285 258.194194 
L 309.442955 263.092479 
L 311.082624 256.154448 
L 312.722293 252.01993 
L 314.361963 263.015661 
L 316.001632 262.599575 
L 317.641302 263.818457 
L 319.280971 264.296466 
L 320.92064 263.040209 
L 322.56031 258.842664 
L 324.199979 262.831959 
L 325.839649 262.77969 
L 327.479318 262.908364 
L 330.758657 262.914846 
L 332.398326 262.222104 
L 334.037996 264.29288 
L 335.677665 260.417088 
L 337.317335 263.942579 
L 338.957004 264.349425 
L 340.596674 262.271891 
L 342.236343 264.2162 
L 343.876012 262.142252 
L 345.515682 263.64041 
L 347.155351 264.362803 
L 348.795021 261.615146 
L 350.43469 261.967791 
L 352.07436 262.871816 
L 355.353698 264.010709 
L 356.993368 261.77223 
L 358.633037 263.141024 
L 360.272707 257.958637 
L 361.912376 262.913191 
L 363.552045 263.856659 
L 365.191715 264.416727 
L 366.831384 264.549676 
L 368.471054 264.499613 
L 370.110723 258.519946 
L 371.750393 264.157035 
L 373.390062 263.374926 
L 375.029731 264.310809 
L 376.669401 263.993883 
L 378.30907 261.709617 
L 381.588409 264.297018 
L 383.228079 262.313541 
L 384.867748 264.081321 
L 384.867748 264.081321 
" style="fill:none;stroke:#ff7f0e;stroke-linecap:square;stroke-width:0.5;"/>
   </g>
   <g id="line2d_20">
    <path clip-path="url(#p3e638d9a72)" d="M 74.970227 262.829339 
L 76.609897 264.580982 
L 78.249566 259.762136 
L 79.889236 264.298673 
L 81.528905 264.138969 
L 83.168574 263.614344 
L 84.808244 263.328173 
L 86.447913 264.107938 
L 88.087583 264.124212 
L 89.727252 264.548021 
L 91.366921 262.69901 
L 93.006591 264.456584 
L 94.64626 263.712263 
L 96.28593 259.893016 
L 97.925599 264.565122 
L 99.565269 260.222354 
L 101.204938 263.403612 
L 102.844607 262.979665 
L 104.484277 264.265436 
L 106.123946 264.006296 
L 107.763616 264.421692 
L 109.403285 263.92865 
L 111.042955 263.728537 
L 112.682624 264.345288 
L 114.322293 263.673096 
L 115.961963 263.932236 
L 117.601632 263.183226 
L 119.241302 263.885483 
L 120.880971 264.166551 
L 122.52064 263.805907 
L 124.16031 261.831946 
L 125.799979 263.93789 
L 127.439649 264.545814 
L 129.079318 264.070288 
L 130.718988 263.388717 
L 132.358657 264.102559 
L 133.998326 264.218407 
L 135.637996 249.860062 
L 137.277665 264.329014 
L 138.917335 263.039382 
L 140.557004 263.004076 
L 142.196674 261.679965 
L 143.836343 264.483201 
L 145.476012 263.97692 
L 147.115682 264.366526 
L 148.755351 264.336323 
L 150.395021 259.408663 
L 152.03469 264.043808 
L 153.67436 264.30943 
L 155.314029 263.816112 
L 156.953698 264.612013 
L 158.593368 262.471315 
L 160.233037 261.7623 
L 161.872707 264.483201 
L 163.512376 263.645651 
L 165.152045 263.961198 
L 166.791715 263.440021 
L 168.431384 263.098961 
L 170.071054 262.874851 
L 171.710723 264.192341 
L 173.350393 258.818529 
L 174.990062 261.38414 
L 176.629731 263.533527 
L 178.269401 263.589658 
L 179.90907 264.186687 
L 181.54874 264.391213 
L 183.188409 254.928946 
L 184.828079 260.669471 
L 186.467748 264.165586 
L 188.107417 259.492101 
L 189.747087 263.742328 
L 191.386756 262.124875 
L 193.026426 264.53616 
L 194.666095 262.888642 
L 196.305764 264.124212 
L 197.945434 261.265121 
L 199.585103 263.563178 
L 201.224773 264.377008 
L 202.864442 262.635294 
L 204.504112 264.237715 
L 206.143781 264.189169 
L 207.78345 263.63186 
L 209.42312 264.566364 
L 211.062789 264.400039 
L 212.702459 264.510922 
L 214.342128 260.671815 
L 215.981798 264.549262 
L 217.621467 264.104628 
L 219.261136 263.87114 
L 220.900806 264.039119 
L 222.540475 262.862438 
L 224.180145 264.205581 
L 225.819814 264.433966 
L 227.459483 261.251743 
L 229.099153 263.631584 
L 230.738822 264.351356 
L 232.378492 263.051242 
L 234.018161 263.670889 
L 237.2975 261.00998 
L 238.937169 263.222945 
L 240.576839 262.172593 
L 242.216508 264.309844 
L 243.856178 262.537651 
L 245.495847 264.258126 
L 247.135517 263.698334 
L 248.775186 264.225854 
L 250.414855 264.137589 
L 252.054525 262.621365 
L 255.333864 263.345964 
L 256.973533 263.158953 
L 258.613202 263.914445 
L 260.252872 261.001567 
L 261.892541 264.663869 
L 263.532211 264.339082 
L 265.17188 264.613116 
L 266.81155 263.932925 
L 268.451219 262.546754 
L 270.090888 261.571703 
L 271.730558 263.505944 
L 273.370227 264.285985 
L 275.009897 263.844798 
L 276.649566 264.038843 
L 278.289236 264.380042 
L 279.928905 263.749776 
L 281.568574 262.342227 
L 283.208244 263.769084 
L 284.847913 263.973886 
L 286.487583 263.268457 
L 288.127252 259.857434 
L 289.766921 263.129991 
L 291.406591 264.585671 
L 293.04626 261.602044 
L 294.68593 263.912376 
L 296.325599 263.591727 
L 297.965269 264.449551 
L 299.604938 263.785633 
L 301.244607 264.221027 
L 302.884277 263.888655 
L 304.523946 264.452171 
L 306.163616 264.395626 
L 307.803285 263.808665 
L 311.082624 264.213442 
L 312.722293 263.452572 
L 314.361963 262.966563 
L 316.001632 264.013467 
L 317.641302 264.291363 
L 319.280971 264.411762 
L 322.56031 264.02119 
L 325.839649 264.004503 
L 327.479318 263.277421 
L 329.118988 263.048484 
L 330.758657 264.438104 
L 335.677665 264.492028 
L 337.317335 263.913342 
L 338.957004 264.628838 
L 342.236343 263.999124 
L 343.876012 261.373107 
L 345.515682 264.322394 
L 348.795021 264.02119 
L 350.43469 264.271918 
L 352.07436 264.662627 
L 353.714029 263.636824 
L 355.353698 261.782297 
L 356.993368 264.105318 
L 358.633037 262.560959 
L 360.272707 263.799976 
L 361.912376 263.931684 
L 363.552045 261.878423 
L 365.191715 263.125026 
L 366.831384 260.854275 
L 368.471054 264.160345 
L 370.110723 260.48839 
L 371.750393 263.814319 
L 373.390062 263.695852 
L 375.029731 264.06284 
L 376.669401 260.394333 
L 378.30907 264.423899 
L 379.94874 262.828649 
L 381.588409 262.246791 
L 383.228079 264.15938 
L 384.867748 264.245438 
L 386.507417 261.492816 
L 388.147087 261.718857 
L 389.786756 264.16269 
L 391.426426 264.197306 
L 393.066095 264.578362 
L 394.705764 263.902171 
L 396.345434 264.143382 
L 397.985103 262.52124 
L 399.624773 262.907674 
L 399.624773 262.907674 
" style="fill:none;stroke:#2ca02c;stroke-linecap:square;stroke-width:0.5;"/>
   </g>
   <g id="line2d_21">
    <path clip-path="url(#p3e638d9a72)" d="M 74.970227 263.132887 
L 76.609897 264.344046 
L 78.249566 264.314395 
L 79.889236 263.310934 
L 81.528905 263.745776 
L 83.168574 258.595523 
L 84.808244 264.409969 
L 86.447913 262.242378 
L 88.087583 263.480154 
L 89.727252 263.024349 
L 91.366921 261.826154 
L 93.006591 263.915134 
L 94.64626 261.403448 
L 96.28593 263.763016 
L 97.925599 261.404138 
L 99.565269 263.990573 
L 101.204938 263.920651 
L 102.844607 262.43725 
L 104.484277 264.291363 
L 106.123946 259.560506 
L 107.763616 263.888103 
L 109.403285 264.512163 
L 111.042955 263.554904 
L 112.682624 264.259781 
L 114.322293 264.509267 
L 115.961963 263.859417 
L 117.601632 263.568419 
L 119.241302 262.783965 
L 120.880971 264.335496 
L 122.52064 263.019108 
L 124.16031 261.876355 
L 125.799979 263.518081 
L 127.439649 262.480555 
L 129.079318 264.254402 
L 130.718988 260.214769 
L 132.358657 259.638151 
L 133.998326 261.052733 
L 135.637996 262.693908 
L 137.277665 262.606194 
L 138.917335 264.316464 
L 140.557004 262.288441 
L 142.196674 262.380843 
L 143.836343 263.90686 
L 145.476012 261.971653 
L 147.115682 264.239784 
L 148.755351 263.515047 
L 150.395021 263.294109 
L 152.03469 264.51368 
L 153.67436 262.374775 
L 155.314029 261.473922 
L 156.953698 262.683702 
L 158.593368 262.556821 
L 160.233037 263.473948 
L 161.872707 262.941049 
L 163.512376 263.278938 
L 165.152045 263.286523 
L 166.791715 264.528437 
L 168.431384 262.560821 
L 170.071054 262.161698 
L 171.710723 264.154277 
L 173.350393 262.345124 
L 174.990062 262.402634 
L 176.629731 263.4996 
L 178.269401 261.009842 
L 179.90907 264.363768 
L 181.54874 260.710293 
L 183.188409 264.150691 
L 184.828079 263.981333 
L 186.467748 264.477961 
L 188.107417 264.125453 
L 189.747087 264.617667 
L 191.386756 263.117165 
L 193.026426 261.981721 
L 194.666095 261.212851 
L 196.305764 264.587602 
L 197.945434 262.824926 
L 199.585103 263.831835 
L 201.224773 264.316877 
L 202.864442 262.096741 
L 204.504112 263.192466 
L 206.143781 263.070826 
L 207.78345 263.701782 
L 211.062789 264.256747 
L 212.702459 261.643694 
L 214.342128 264.631597 
L 215.981798 257.564893 
L 217.621467 262.944359 
L 219.261136 262.15632 
L 220.900806 264.286674 
L 222.540475 264.353149 
L 224.180145 264.120764 
L 225.819814 264.398798 
L 227.459483 263.415749 
L 229.099153 263.562075 
L 230.738822 264.066702 
L 232.378492 263.525252 
L 234.018161 264.32529 
L 235.657831 264.200064 
L 237.2975 263.425127 
L 238.937169 264.099249 
L 240.576839 263.143093 
L 242.216508 263.879277 
L 243.856178 263.815423 
L 245.495847 261.285808 
L 247.135517 260.412951 
L 248.775186 264.209994 
L 250.414855 262.233138 
L 252.054525 264.099525 
L 253.694194 264.239922 
L 255.333864 263.037175 
L 256.973533 262.8412 
L 258.613202 261.486886 
L 260.252872 264.131245 
L 261.892541 261.917315 
L 263.532211 255.895998 
L 265.17188 259.294884 
L 266.81155 263.177296 
L 268.451219 264.038016 
L 270.090888 262.91719 
L 271.730558 264.133314 
L 273.370227 263.411473 
L 275.009897 264.471755 
L 276.649566 263.142679 
L 278.289236 264.263505 
L 279.928905 261.750991 
L 281.568574 256.518265 
L 283.208244 264.401832 
L 284.847913 263.55449 
L 286.487583 254.313575 
L 288.127252 262.393669 
L 289.766921 261.991513 
L 291.406591 264.260884 
L 293.04626 262.197556 
L 294.68593 262.196866 
L 296.325599 264.52692 
L 297.965269 264.43369 
L 299.604938 263.86714 
L 301.244607 259.833989 
L 302.884277 263.944924 
L 304.523946 264.207098 
L 306.163616 264.161173 
L 307.803285 261.472267 
L 309.442955 263.585107 
L 311.082624 263.412577 
L 312.722293 263.621654 
L 314.361963 260.989707 
L 316.001632 264.093595 
L 317.641302 263.340861 
L 319.280971 260.663127 
L 320.92064 264.448861 
L 322.56031 264.490511 
L 324.199979 259.704902 
L 325.839649 263.807562 
L 327.479318 264.001606 
L 329.118988 264.03374 
L 330.758657 263.387752 
L 332.398326 262.861473 
L 334.037996 256.742651 
L 335.677665 263.96437 
L 337.317335 264.338806 
L 338.957004 263.104201 
L 340.596674 262.135633 
L 342.236343 263.424161 
L 343.876012 263.485947 
L 345.515682 262.657085 
L 347.155351 264.088768 
L 348.795021 263.9161 
L 350.43469 264.209443 
L 352.07436 259.486032 
L 353.714029 264.221441 
L 355.353698 264.153174 
L 356.993368 261.725891 
L 358.633037 263.548008 
L 360.272707 263.243218 
L 361.912376 263.720952 
L 363.552045 264.42514 
L 365.191715 264.504578 
L 366.831384 264.347908 
L 368.471054 262.800377 
L 370.110723 261.426618 
L 371.750393 264.125591 
L 373.390062 262.941601 
L 375.029731 263.922444 
L 376.669401 264.414658 
L 378.30907 264.027534 
L 379.94874 264.173861 
L 381.588409 262.439595 
L 383.228079 263.599726 
L 384.867748 263.731985 
L 386.507417 263.205016 
L 388.147087 264.437 
L 389.786756 264.130004 
L 389.786756 264.130004 
" style="fill:none;stroke:#d62728;stroke-linecap:square;stroke-width:0.5;"/>
   </g>
   <g id="line2d_22">
    <path clip-path="url(#p3e638d9a72)" d="M 74.970227 264.305844 
L 76.609897 260.903511 
L 78.249566 256.119004 
L 79.889236 264.375215 
L 81.528905 251.915254 
L 83.168574 262.818444 
L 84.808244 258.675927 
L 86.447913 264.580155 
L 88.087583 261.768782 
L 89.727252 263.027245 
L 91.366921 259.095323 
L 93.006591 259.988314 
L 94.64626 261.707962 
L 96.28593 261.957172 
L 97.925599 256.733411 
L 99.565269 263.121992 
L 101.204938 263.067654 
L 102.844607 248.493336 
L 104.484277 262.040196 
L 106.123946 263.862589 
L 107.763616 254.082017 
L 109.403285 264.017053 
L 111.042955 186.158223 
L 112.682624 264.064357 
L 114.322293 263.370927 
L 115.961963 264.373422 
L 117.601632 263.762602 
L 119.241302 257.837273 
L 120.880971 264.580155 
L 122.52064 262.772932 
L 124.16031 263.01635 
L 125.799979 263.828938 
L 127.439649 261.922969 
L 129.079318 264.079941 
L 130.718988 262.679703 
L 132.358657 219.692932 
L 133.998326 243.113456 
L 135.637996 246.788859 
L 137.277665 263.069171 
L 138.917335 264.353838 
L 140.557004 259.506857 
L 142.196674 259.246062 
L 143.836343 249.897299 
L 145.476012 231.409538 
L 147.115682 255.356479 
L 148.755351 264.284192 
L 150.395021 264.42776 
L 152.03469 264.083114 
L 153.67436 264.437414 
L 155.314029 264.352597 
L 156.953698 258.197504 
L 158.593368 264.19372 
L 160.233037 264.29288 
L 161.872707 262.08819 
L 163.512376 264.055117 
L 165.152045 264.463894 
L 166.791715 225.637017 
L 168.431384 255.160366 
L 170.071054 181.286831 
L 171.710723 264.324739 
L 173.350393 264.439345 
L 174.990062 263.531734 
L 176.629731 264.487339 
L 178.269401 257.099572 
L 179.90907 264.259505 
L 181.54874 264.198547 
L 183.188409 260.194909 
L 184.828079 264.464031 
L 186.467748 260.527557 
L 188.107417 261.665898 
L 189.747087 220.338093 
L 191.386756 264.439069 
L 193.026426 263.35217 
L 194.666095 263.771704 
L 196.305764 263.535596 
L 197.945434 262.892228 
L 199.585103 263.117165 
L 201.224773 262.756383 
L 202.864442 263.153299 
L 204.504112 257.849685 
L 206.143781 260.462876 
L 207.78345 264.509957 
L 209.42312 261.823534 
L 211.062789 257.91547 
L 212.702459 258.998645 
L 214.342128 249.944189 
L 215.981798 261.194509 
L 217.621467 240.787677 
L 219.261136 231.550624 
L 220.900806 250.658445 
L 222.540475 263.829766 
L 224.180145 260.78256 
L 225.819814 262.930706 
L 227.459483 264.395075 
L 229.099153 203.046459 
L 230.738822 241.357813 
L 232.378492 264.233715 
L 234.018161 260.50687 
L 235.657831 246.343122 
L 237.2975 255.710504 
L 238.937169 254.432594 
L 240.576839 257.029511 
L 242.216508 264.221993 
L 243.856178 264.145588 
L 245.495847 262.160871 
L 247.135517 263.429264 
L 250.414855 264.355217 
L 252.054525 263.705919 
L 253.694194 264.229716 
L 255.333864 261.808639 
L 256.973533 262.728248 
L 258.613202 264.615323 
L 260.252872 264.591188 
L 261.892541 263.920099 
L 263.532211 262.656395 
L 265.17188 262.248722 
L 266.81155 249.901436 
L 268.451219 257.44546 
L 270.090888 260.515283 
L 271.730558 264.522921 
L 273.370227 259.913289 
L 275.009897 258.479124 
L 276.649566 258.921551 
L 278.289236 262.488692 
L 279.928905 251.139626 
L 281.568574 260.344132 
L 283.208244 244.071405 
L 284.847913 261.311046 
L 286.487583 22.796 
L 288.127252 260.862826 
L 289.766921 255.66582 
L 291.406591 252.170532 
L 293.04626 260.488528 
L 294.68593 258.532496 
L 296.325599 260.053961 
L 297.965269 260.454049 
L 299.604938 263.792253 
L 301.244607 259.244132 
L 302.884277 263.76798 
L 304.523946 263.512702 
L 306.163616 264.211373 
L 307.803285 264.453826 
L 309.442955 262.788792 
L 311.082624 233.500311 
L 312.722293 243.745515 
L 314.361963 262.221277 
L 316.001632 262.3705 
L 317.641302 261.918556 
L 319.280971 259.868605 
L 320.92064 264.715862 
L 322.56031 264.715724 
L 324.199979 261.273671 
L 325.839649 231.092336 
L 327.479318 249.320543 
L 329.118988 263.83873 
L 330.758657 260.977984 
L 332.398326 261.363867 
L 334.037996 259.550438 
L 335.677665 255.20505 
L 337.317335 255.271248 
L 338.957004 248.574843 
L 340.596674 264.64525 
L 342.236343 260.382748 
L 343.876012 262.960771 
L 345.515682 256.379524 
L 347.155351 237.888315 
L 348.795021 262.660533 
L 350.43469 255.975712 
L 352.07436 262.239482 
L 353.714029 260.88834 
L 355.353698 262.061297 
L 358.633037 230.31533 
L 360.272707 260.625338 
L 361.912376 258.848871 
L 363.552045 258.004148 
L 365.191715 259.077118 
L 366.831384 262.694459 
L 368.471054 236.648884 
L 370.110723 264.714345 
L 371.750393 258.743918 
L 373.390062 261.101555 
L 375.029731 259.298607 
L 376.669401 263.263216 
L 378.30907 263.661511 
L 379.94874 256.972001 
L 381.588409 260.060857 
L 383.228079 256.709965 
L 384.867748 256.261745 
L 386.507417 209.609226 
L 388.147087 258.922654 
L 389.786756 253.971548 
L 389.786756 253.971548 
" style="fill:none;stroke:#9467bd;stroke-linecap:square;stroke-width:0.5;"/>
   </g>
   <g id="line2d_23">
    <path clip-path="url(#p3e638d9a72)" d="M 74.970227 261.510883 
L 76.609897 263.791426 
L 78.249566 246.152525 
L 79.889236 259.442314 
L 81.528905 186.808073 
L 83.168574 256.468202 
L 84.808244 262.843958 
L 86.447913 258.888866 
L 88.087583 262.505242 
L 89.727252 236.462838 
L 91.366921 262.762313 
L 93.006591 264.074287 
L 94.64626 261.872493 
L 97.925599 264.475478 
L 99.565269 262.342779 
L 101.204938 263.773635 
L 102.844607 175.468247 
L 104.484277 256.890494 
L 106.123946 264.461963 
L 107.763616 263.203499 
L 109.403285 264.225854 
L 111.042955 254.543615 
L 112.682624 263.464018 
L 114.322293 253.222401 
L 115.961963 264.300879 
L 117.601632 264.513267 
L 119.241302 255.938613 
L 120.880971 263.825215 
L 122.52064 206.896461 
L 124.16031 252.760941 
L 125.799979 263.721228 
L 127.439649 261.004739 
L 129.079318 254.218966 
L 130.718988 263.556559 
L 132.358657 249.316957 
L 133.998326 263.370789 
L 135.637996 263.190122 
L 137.277665 260.032447 
L 140.557004 264.227233 
L 142.196674 260.438051 
L 143.836343 260.96833 
L 145.476012 263.920927 
L 147.115682 264.091664 
L 148.755351 263.210395 
L 150.395021 262.495174 
L 152.03469 263.644134 
L 153.67436 238.63305 
L 155.314029 263.088479 
L 156.953698 256.82995 
L 158.593368 243.593258 
L 160.233037 245.959997 
L 161.872707 247.773564 
L 163.512376 227.433207 
L 165.152045 261.40069 
L 166.791715 257.306442 
L 168.431384 257.01241 
L 170.071054 255.885378 
L 171.710723 256.768854 
L 173.350393 252.459737 
L 174.990062 263.777221 
L 176.629731 257.629574 
L 178.269401 260.117816 
L 179.90907 263.497394 
L 181.54874 264.343909 
L 183.188409 258.164818 
L 184.828079 264.223648 
L 186.467748 262.980079 
L 188.107417 264.403901 
L 189.747087 264.240197 
L 191.386756 258.545736 
L 194.666095 263.854452 
L 196.305764 264.531609 
L 197.945434 260.200978 
L 199.585103 261.753198 
L 201.224773 264.546228 
L 202.864442 262.18073 
L 204.504112 261.721615 
L 206.143781 263.860796 
L 207.78345 263.007524 
L 209.42312 259.685318 
L 211.062789 263.715711 
L 212.702459 262.534341 
L 214.342128 259.166348 
L 215.981798 260.780629 
L 217.621467 259.90529 
L 219.261136 264.561674 
L 220.900806 264.47865 
L 222.540475 263.556834 
L 224.180145 262.410495 
L 225.819814 264.345977 
L 227.459483 262.714595 
L 229.099153 260.239593 
L 230.738822 263.85128 
L 232.378492 261.352144 
L 234.018161 264.199651 
L 235.657831 264.47534 
L 237.2975 262.60454 
L 238.937169 264.378111 
L 240.576839 262.282097 
L 242.216508 264.464445 
L 243.856178 262.532411 
L 245.495847 264.219786 
L 247.135517 262.005166 
L 248.775186 264.293156 
L 250.414855 264.23206 
L 252.054525 263.673234 
L 253.694194 263.793494 
L 255.333864 261.386485 
L 256.973533 263.678474 
L 258.613202 264.599601 
L 260.252872 264.12959 
L 261.892541 263.800942 
L 263.532211 258.978372 
L 265.17188 263.339482 
L 266.81155 263.676406 
L 270.090888 259.888741 
L 271.730558 262.533928 
L 273.370227 264.50113 
L 275.009897 262.811134 
L 276.649566 263.899136 
L 278.289236 261.898283 
L 279.928905 257.980841 
L 281.568574 264.428863 
L 283.208244 263.823284 
L 284.847913 264.08794 
L 286.487583 257.836031 
L 288.127252 253.65807 
L 289.766921 259.434728 
L 291.406591 263.834731 
L 293.04626 263.665235 
L 294.68593 262.903537 
L 296.325599 263.144886 
L 297.965269 262.167491 
L 299.604938 264.02188 
L 301.244607 260.223182 
L 302.884277 263.913066 
L 304.523946 260.889305 
L 306.163616 264.103387 
L 307.803285 263.43547 
L 309.442955 264.463204 
L 311.082624 263.357273 
L 312.722293 264.468858 
L 314.361963 259.998382 
L 316.001632 264.30943 
L 317.641302 263.133991 
L 319.280971 261.131206 
L 320.92064 261.419032 
L 322.56031 262.523722 
L 324.199979 264.223234 
L 325.839649 264.304327 
L 327.479318 262.574336 
L 329.118988 264.245714 
L 330.758657 263.245287 
L 332.398326 261.202783 
L 334.037996 261.75237 
L 335.677665 263.767705 
L 337.317335 260.253799 
L 338.957004 259.64684 
L 340.596674 264.592429 
L 342.236343 261.301944 
L 343.876012 236.372505 
L 345.515682 244.684846 
L 347.155351 260.369784 
L 348.795021 234.929512 
L 350.43469 258.649447 
L 352.07436 260.808074 
L 353.714029 260.961572 
L 355.353698 262.181696 
L 356.993368 261.009704 
L 358.633037 258.668066 
L 360.272707 262.416287 
L 361.912376 263.232185 
L 363.552045 264.213304 
L 365.191715 264.244886 
L 366.831384 264.449413 
L 368.471054 246.049917 
L 370.110723 264.430518 
L 371.750393 264.137176 
L 373.390062 262.139908 
L 375.029731 248.03229 
L 376.669401 261.447443 
L 378.30907 260.86324 
L 379.94874 263.830455 
L 381.588409 255.906066 
L 383.228079 264.038705 
L 384.867748 264.265573 
L 386.507417 263.572419 
L 388.147087 264.526644 
L 389.786756 259.917565 
L 389.786756 259.917565 
" style="fill:none;stroke:#8c564b;stroke-linecap:square;stroke-width:0.5;"/>
   </g>
   <g id="line2d_24">
    <path clip-path="url(#p3e638d9a72)" d="M 74.970227 264.094285 
L 76.609897 264.273572 
L 78.249566 263.595588 
L 79.889236 263.742053 
L 81.528905 262.650879 
L 83.168574 264.309568 
L 84.808244 260.857861 
L 86.447913 263.661511 
L 88.087583 256.137899 
L 89.727252 259.590019 
L 91.366921 260.011208 
L 93.006591 261.908075 
L 94.64626 264.628838 
L 96.28593 260.509491 
L 97.925599 247.910098 
L 99.565269 262.622606 
L 101.204938 261.872217 
L 102.844607 250.378066 
L 104.484277 263.733778 
L 106.123946 260.62989 
L 107.763616 262.489657 
L 109.403285 259.584227 
L 111.042955 262.227345 
L 112.682624 263.648409 
L 114.322293 260.15588 
L 115.961963 255.890481 
L 117.601632 264.249989 
L 119.241302 260.362199 
L 120.880971 254.893778 
L 122.52064 256.055288 
L 124.16031 261.523985 
L 125.799979 263.735847 
L 129.079318 262.4247 
L 130.718988 253.146272 
L 132.358657 263.887 
L 133.998326 263.675027 
L 135.637996 262.437112 
L 137.277665 264.003261 
L 138.917335 143.201242 
L 140.557004 262.656671 
L 142.196674 262.307749 
L 143.836343 240.78616 
L 145.476012 263.273008 
L 147.115682 261.898559 
L 148.755351 264.712552 
L 150.395021 260.943643 
L 152.03469 263.023798 
L 153.67436 263.251217 
L 155.314029 264.203099 
L 156.953698 263.022556 
L 160.233037 260.239731 
L 161.872707 263.72964 
L 163.512376 262.543444 
L 165.152045 262.618469 
L 166.791715 264.227647 
L 168.431384 262.233 
L 170.071054 251.796786 
L 171.710723 264.515473 
L 173.350393 261.787538 
L 176.629731 263.749914 
L 178.269401 263.986574 
L 179.90907 263.408715 
L 181.54874 262.097292 
L 183.188409 263.239908 
L 184.828079 235.591774 
L 186.467748 263.313141 
L 188.107417 262.446352 
L 189.747087 262.849612 
L 191.386756 259.172416 
L 193.026426 264.357976 
L 194.666095 264.589671 
L 196.305764 252.904371 
L 197.945434 249.867371 
L 199.585103 258.138752 
L 201.224773 264.331496 
L 204.504112 263.784944 
L 206.143781 262.172593 
L 207.78345 263.644134 
L 209.42312 260.704087 
L 211.062789 264.559882 
L 212.702459 258.301766 
L 214.342128 263.739156 
L 215.981798 260.291725 
L 217.621467 261.517779 
L 219.261136 263.822456 
L 220.900806 263.323484 
L 222.540475 263.876932 
L 224.180145 263.892792 
L 225.819814 263.541388 
L 227.459483 259.89674 
L 229.099153 240.578186 
L 230.738822 262.794861 
L 232.378492 262.737902 
L 234.018161 262.808238 
L 235.657831 259.719796 
L 237.2975 263.209429 
L 240.576839 263.38789 
L 242.216508 264.309706 
L 243.856178 257.895748 
L 245.495847 263.97954 
L 247.135517 264.258264 
L 248.775186 263.277007 
L 250.414855 262.899537 
L 252.054525 259.194758 
L 253.694194 264.468583 
L 255.333864 262.663705 
L 256.973533 262.69639 
L 258.613202 263.925754 
L 260.252872 256.489441 
L 261.892541 260.647818 
L 263.532211 263.16447 
L 265.17188 263.253148 
L 266.81155 259.477482 
L 268.451219 261.056181 
L 270.090888 245.382276 
L 271.730558 259.180415 
L 273.370227 264.356735 
L 275.009897 246.640188 
L 276.649566 261.151617 
L 278.289236 264.458929 
L 281.568574 264.240749 
L 283.208244 258.910656 
L 284.847913 264.466238 
L 286.487583 258.862938 
L 288.127252 264.716 
L 289.766921 230.063775 
L 291.406591 258.199848 
L 293.04626 259.404112 
L 294.68593 257.193905 
L 296.325599 262.816237 
L 297.965269 264.474651 
L 299.604938 262.313817 
L 301.244607 264.475478 
L 304.523946 262.891952 
L 306.163616 262.841475 
L 307.803285 262.654326 
L 309.442955 258.819771 
L 311.082624 262.888366 
L 312.722293 264.46279 
L 314.361963 257.628747 
L 316.001632 255.197189 
L 317.641302 264.105456 
L 319.280971 254.09043 
L 320.92064 264.1329 
L 322.56031 250.427439 
L 324.199979 214.547919 
L 325.839649 262.377395 
L 327.479318 262.521377 
L 329.118988 262.354226 
L 330.758657 263.980368 
L 332.398326 259.219307 
L 334.037996 263.775979 
L 335.677665 259.410869 
L 337.317335 263.824525 
L 338.957004 259.019056 
L 340.596674 264.561261 
L 342.236343 263.487326 
L 343.876012 257.093228 
L 345.515682 259.129663 
L 347.155351 256.091835 
L 348.795021 262.393807 
L 350.43469 264.374387 
L 352.07436 261.205542 
L 353.714029 256.249609 
L 355.353698 264.013605 
L 356.993368 264.464169 
L 358.633037 242.544699 
L 360.272707 263.08379 
L 361.912376 264.37287 
L 363.552045 263.451744 
L 365.191715 262.062952 
L 366.831384 261.268017 
L 368.471054 263.62524 
L 370.110723 260.932748 
L 371.750393 260.951918 
L 373.390062 261.976618 
L 375.029731 264.704691 
L 376.669401 262.857336 
L 378.30907 261.534328 
L 379.94874 245.854769 
L 381.588409 255.316898 
L 383.228079 243.54885 
L 384.867748 264.542642 
L 386.507417 264.277434 
L 388.147087 263.078687 
L 389.786756 264.189445 
L 391.426426 264.346253 
L 393.066095 264.091388 
L 394.705764 262.145287 
L 394.705764 262.145287 
" style="fill:none;stroke:#e377c2;stroke-linecap:square;stroke-width:0.5;"/>
   </g>
   <g id="line2d_25">
    <path clip-path="url(#p3e638d9a72)" d="M 74.970227 264.2493 
L 76.609897 263.526493 
L 78.249566 263.077998 
L 79.889236 264.400867 
L 81.528905 262.559718 
L 83.168574 262.05385 
L 84.808244 259.852056 
L 86.447913 262.931671 
L 88.087583 263.788254 
L 89.727252 262.510206 
L 91.366921 262.719008 
L 93.006591 260.637199 
L 94.64626 263.895827 
L 96.28593 264.277158 
L 97.925599 263.047657 
L 99.565269 263.739708 
L 101.204938 263.530493 
L 102.844607 262.699286 
L 104.484277 263.914859 
L 106.123946 263.288454 
L 107.763616 264.450516 
L 111.042955 264.659455 
L 112.682624 264.362527 
L 114.322293 264.583603 
L 115.961963 263.715711 
L 117.601632 263.416024 
L 120.880971 264.53754 
L 122.52064 264.303638 
L 124.16031 263.478637 
L 125.799979 264.440862 
L 127.439649 263.546353 
L 130.718988 264.387213 
L 133.998326 264.250403 
L 135.637996 264.158414 
L 137.277665 263.474362 
L 138.917335 263.70854 
L 143.836343 264.032085 
L 145.476012 262.970011 
L 147.115682 264.098698 
L 148.755351 263.515322 
L 150.395021 263.929753 
L 152.03469 264.013191 
L 153.67436 263.249838 
L 155.314029 264.302259 
L 156.953698 263.278111 
L 158.593368 264.149864 
L 160.233037 263.869209 
L 161.872707 264.586085 
L 163.512376 264.414382 
L 165.152045 262.771829 
L 166.791715 264.117178 
L 168.431384 263.678336 
L 170.071054 264.624839 
L 173.350393 264.491752 
L 174.990062 263.27287 
L 176.629731 264.44031 
L 178.269401 264.106421 
L 179.90907 261.448822 
L 181.54874 263.639583 
L 183.188409 263.541802 
L 184.828079 263.02035 
L 188.107417 263.639031 
L 189.747087 264.122695 
L 191.386756 263.668682 
L 193.026426 264.272883 
L 194.666095 264.33453 
L 196.305764 263.7746 
L 197.945434 264.351632 
L 199.585103 263.145162 
L 201.224773 264.295639 
L 202.864442 263.869347 
L 204.504112 264.019259 
L 206.143781 263.124475 
L 207.78345 263.897895 
L 209.42312 263.490084 
L 211.062789 264.507612 
L 212.702459 262.697493 
L 214.342128 263.831145 
L 215.981798 263.449124 
L 217.621467 261.821465 
L 219.261136 264.463756 
L 220.900806 264.409831 
L 222.540475 263.745914 
L 224.180145 263.821905 
L 225.819814 262.964219 
L 227.459483 264.049325 
L 230.738822 263.712677 
L 232.378492 264.401832 
L 234.018161 264.461825 
L 235.657831 264.213856 
L 237.2975 263.643858 
L 238.937169 263.566213 
L 240.576839 264.231923 
L 242.216508 264.523748 
L 245.495847 263.6953 
L 247.135517 264.253989 
L 248.775186 264.047256 
L 250.414855 264.526231 
L 252.054525 264.494924 
L 253.694194 264.035809 
L 255.333864 264.202409 
L 256.973533 263.785082 
L 258.613202 264.026017 
L 260.252872 264.475065 
L 261.892541 264.29426 
L 266.81155 263.257975 
L 268.451219 264.123246 
L 270.090888 264.538505 
L 271.730558 263.939131 
L 273.370227 263.875553 
L 275.009897 264.62608 
L 276.649566 263.420438 
L 279.928905 264.506923 
L 281.568574 263.79046 
L 284.847913 263.71778 
L 286.487583 264.19179 
L 288.127252 264.200202 
L 291.406591 263.117027 
L 293.04626 262.856784 
L 294.68593 264.231233 
L 296.325599 263.743708 
L 297.965269 264.005744 
L 299.604938 263.85128 
L 301.244607 264.641113 
L 302.884277 263.681233 
L 306.163616 263.961611 
L 307.803285 263.158815 
L 309.442955 263.819698 
L 311.082624 263.054276 
L 312.722293 264.196754 
L 314.361963 263.668545 
L 316.001632 264.206684 
L 317.641302 264.201581 
L 319.280971 264.49589 
L 322.56031 264.613944 
L 324.199979 263.697231 
L 325.839649 264.094974 
L 327.479318 264.15538 
L 329.118988 264.536298 
L 330.758657 264.272745 
L 332.398326 263.744949 
L 334.037996 264.242542 
L 335.677665 263.798873 
L 338.957004 264.153312 
L 340.596674 263.528976 
L 342.236343 260.792076 
L 343.876012 264.098422 
L 345.515682 263.926306 
L 347.155351 263.051656 
L 348.795021 264.621667 
L 350.43469 264.059668 
L 352.07436 264.101594 
L 353.714029 264.47272 
L 355.353698 262.769347 
L 356.993368 264.413141 
L 358.633037 264.258816 
L 360.272707 264.350253 
L 361.912376 263.138266 
L 363.552045 263.172469 
L 365.191715 264.463756 
L 366.831384 264.625942 
L 368.471054 263.18888 
L 370.110723 264.088906 
L 371.750393 264.172068 
L 373.390062 263.856383 
L 375.029731 263.989332 
L 376.669401 263.989608 
L 378.30907 264.397971 
L 379.94874 264.211235 
L 381.588409 263.043795 
L 383.228079 263.931408 
L 384.867748 263.68206 
L 386.507417 264.567881 
L 388.147087 263.786185 
L 389.786756 264.363354 
L 391.426426 263.716677 
L 393.066095 264.13952 
L 393.066095 264.13952 
" style="fill:none;stroke:#7f7f7f;stroke-linecap:square;stroke-width:0.5;"/>
   </g>
   <g id="line2d_26">
    <path clip-path="url(#p3e638d9a72)" d="M 74.970227 260.506319 
L 76.609897 264.45755 
L 78.249566 262.968218 
L 79.889236 264.285985 
L 81.528905 264.299224 
L 83.168574 262.980079 
L 84.808244 258.963891 
L 86.447913 261.202921 
L 88.087583 263.863555 
L 89.727252 231.890444 
L 91.366921 264.47603 
L 93.006591 263.291212 
L 94.64626 263.950578 
L 96.28593 264.470651 
L 97.925599 261.234504 
L 99.565269 262.899675 
L 101.204938 263.973472 
L 102.844607 262.754866 
L 104.484277 263.149023 
L 106.123946 262.579301 
L 107.763616 258.695235 
L 109.403285 260.941299 
L 111.042955 262.856232 
L 112.682624 263.806458 
L 114.322293 262.912777 
L 115.961963 262.849199 
L 117.601632 263.177709 
L 119.241302 264.359355 
L 120.880971 263.022143 
L 122.52064 263.971817 
L 124.16031 262.563717 
L 125.799979 263.785495 
L 127.439649 262.212175 
L 129.079318 261.092039 
L 130.718988 262.573509 
L 132.358657 264.377008 
L 133.998326 262.155216 
L 135.637996 261.117967 
L 137.277665 264.120902 
L 138.917335 264.166551 
L 140.557004 264.008364 
L 142.196674 262.037714 
L 143.836343 263.898585 
L 147.115682 264.004089 
L 148.755351 262.816651 
L 150.395021 264.455757 
L 152.03469 260.806005 
L 153.67436 264.65849 
L 155.314029 253.114828 
L 156.953698 264.179377 
L 158.593368 259.927632 
L 160.233037 252.727566 
L 161.872707 259.584641 
L 163.512376 261.632937 
L 165.152045 261.811673 
L 166.791715 259.18607 
L 168.431384 260.32441 
L 170.071054 264.518094 
L 171.710723 263.77129 
L 173.350393 252.4556 
L 174.990062 263.265285 
L 176.629731 262.205969 
L 178.269401 264.004778 
L 179.90907 260.474874 
L 181.54874 264.614909 
L 183.188409 263.765222 
L 186.467748 262.49807 
L 188.107417 264.379077 
L 189.747087 263.922996 
L 193.026426 264.195651 
L 194.666095 264.500717 
L 196.305764 264.57257 
L 197.945434 263.534906 
L 199.585103 262.345951 
L 201.224773 263.775428 
L 202.864442 262.066676 
L 204.504112 263.985608 
L 206.143781 264.065047 
L 207.78345 262.157561 
L 209.42312 262.894159 
L 211.062789 263.781358 
L 212.702459 264.50844 
L 214.342128 263.485809 
L 217.621467 259.555541 
L 219.261136 260.794559 
L 220.900806 257.942777 
L 222.540475 259.81937 
L 224.180145 263.513943 
L 225.819814 256.963037 
L 227.459483 254.946185 
L 229.099153 262.560821 
L 230.738822 264.625942 
L 232.378492 262.15825 
L 234.018161 262.605367 
L 235.657831 258.797567 
L 237.2975 257.087297 
L 238.937169 264.124488 
L 240.576839 264.359907 
L 242.216508 263.296453 
L 243.856178 262.58206 
L 245.495847 262.897331 
L 247.135517 261.127483 
L 248.775186 259.095598 
L 250.414855 260.252833 
L 252.054525 264.312188 
L 253.694194 263.664269 
L 255.333864 262.133012 
L 256.973533 263.521666 
L 258.613202 263.832524 
L 260.252872 264.582913 
L 261.892541 262.563993 
L 263.532211 262.087776 
L 265.17188 264.304603 
L 266.81155 263.447607 
L 268.451219 261.320976 
L 270.090888 264.408452 
L 271.730558 262.936774 
L 273.370227 262.515585 
L 275.009897 262.566062 
L 276.649566 260.699122 
L 278.289236 263.24377 
L 279.928905 259.490997 
L 281.568574 263.761085 
L 283.208244 263.952233 
L 284.847913 263.145989 
L 286.487583 263.475465 
L 288.127252 259.744897 
L 289.766921 263.292729 
L 291.406591 262.269685 
L 293.04626 263.236323 
L 294.68593 262.875678 
L 296.325599 264.021742 
L 297.965269 261.079489 
L 299.604938 264.352459 
L 301.244607 264.178826 
L 302.884277 262.801756 
L 304.523946 263.833214 
L 307.803285 262.185971 
L 309.442955 264.58181 
L 311.082624 261.546878 
L 312.722293 263.086135 
L 314.361963 264.328324 
L 316.001632 264.417968 
L 317.641302 262.676531 
L 319.280971 263.291488 
L 320.92064 262.359191 
L 322.56031 264.218269 
L 324.199979 263.414783 
L 325.839649 262.743557 
L 327.479318 262.605367 
L 329.118988 261.907385 
L 330.758657 262.995939 
L 332.398326 263.652409 
L 334.037996 262.666463 
L 335.677665 261.219747 
L 337.317335 263.809079 
L 338.957004 262.472556 
L 340.596674 263.759292 
L 342.236343 261.356006 
L 343.876012 263.31452 
L 345.515682 262.742315 
L 347.155351 263.405819 
L 348.795021 263.24708 
L 350.43469 264.449964 
L 352.07436 263.977058 
L 353.714029 259.883086 
L 355.353698 262.636673 
L 356.993368 262.792516 
L 358.633037 263.761498 
L 360.272707 263.551042 
L 361.912376 262.978148 
L 363.552045 264.002434 
L 365.191715 262.384015 
L 366.831384 263.057448 
L 368.471054 261.863391 
L 370.110723 264.466928 
L 371.750393 263.48443 
L 373.390062 264.288191 
L 375.029731 263.027383 
L 376.669401 262.02144 
L 378.30907 264.517818 
L 379.94874 263.425816 
L 381.588409 264.325428 
L 383.228079 261.821879 
L 384.867748 262.021716 
L 386.507417 258.711784 
L 388.147087 262.88878 
L 389.786756 263.702747 
L 391.426426 262.890159 
L 393.066095 262.549098 
L 396.345434 264.218131 
L 396.345434 264.218131 
" style="fill:none;stroke:#bcbd22;stroke-linecap:square;stroke-width:0.5;"/>
   </g>
   <g id="line2d_27">
    <path clip-path="url(#p3e638d9a72)" d="M 74.970227 262.839407 
L 76.609897 261.098521 
L 78.249566 261.157962 
L 79.889236 262.18735 
L 81.528905 264.45617 
L 83.168574 255.778771 
L 84.808244 263.919134 
L 86.447913 263.150127 
L 88.087583 263.327484 
L 89.727252 264.495476 
L 91.366921 262.457799 
L 93.006591 262.527997 
L 94.64626 260.384679 
L 96.28593 250.393237 
L 97.925599 263.78453 
L 99.565269 262.976217 
L 101.204938 260.67678 
L 102.844607 257.327405 
L 104.484277 252.108609 
L 106.123946 264.47672 
L 107.763616 262.152596 
L 109.403285 264.081734 
L 111.042955 264.243645 
L 112.682624 262.876368 
L 114.322293 264.473134 
L 115.961963 259.918116 
L 117.601632 261.771402 
L 119.241302 263.046277 
L 120.880971 264.538229 
L 122.52064 256.704173 
L 124.16031 263.000214 
L 125.799979 264.533264 
L 127.439649 262.801205 
L 129.079318 263.539457 
L 130.718988 261.223884 
L 132.358657 264.207788 
L 133.998326 263.099374 
L 135.637996 260.754839 
L 137.277665 264.435759 
L 138.917335 263.135921 
L 140.557004 262.6415 
L 142.196674 258.584352 
L 143.836343 262.758175 
L 145.476012 260.268142 
L 147.115682 251.172174 
L 148.755351 263.215774 
L 150.395021 263.731985 
L 152.03469 263.118406 
L 153.67436 264.161449 
L 155.314029 264.407211 
L 156.953698 262.460006 
L 158.593368 258.495122 
L 160.233037 260.936748 
L 161.872707 260.471978 
L 163.512376 263.378374 
L 165.152045 262.617365 
L 166.791715 256.852016 
L 168.431384 262.847268 
L 170.071054 262.090811 
L 171.710723 262.466764 
L 173.350393 262.698045 
L 174.990062 264.511198 
L 176.629731 264.017329 
L 178.269401 263.245149 
L 179.90907 249.941155 
L 181.54874 261.4542 
L 183.188409 250.763535 
L 184.828079 263.002973 
L 186.467748 262.007373 
L 188.107417 263.978989 
L 189.747087 263.94851 
L 191.386756 264.435345 
L 193.026426 258.669031 
L 194.666095 263.895275 
L 196.305764 262.170387 
L 197.945434 260.702156 
L 199.585103 261.768782 
L 201.224773 264.10449 
L 202.864442 260.005002 
L 204.504112 260.520386 
L 206.143781 257.343679 
L 207.78345 258.84694 
L 209.42312 263.189708 
L 211.062789 256.557846 
L 212.702459 261.006256 
L 214.342128 260.97095 
L 215.981798 264.092078 
L 217.621467 263.17302 
L 219.261136 256.655903 
L 220.900806 248.971897 
L 222.540475 201.095806 
L 224.180145 257.68405 
L 225.819814 263.497669 
L 227.459483 246.173626 
L 229.099153 248.677589 
L 230.738822 59.873853 
L 232.378492 262.63888 
L 234.018161 262.309956 
L 235.657831 262.263203 
L 237.2975 263.115648 
L 238.937169 263.660959 
L 240.576839 260.598031 
L 242.216508 264.109179 
L 243.856178 261.643832 
L 245.495847 251.15328 
L 247.135517 262.722456 
L 248.775186 261.668932 
L 250.414855 262.025577 
L 252.054525 262.185282 
L 253.694194 262.828925 
L 255.333864 264.234957 
L 256.973533 263.916652 
L 258.613202 257.430979 
L 260.252872 260.735807 
L 261.892541 260.295862 
L 263.532211 264.696416 
L 265.17188 103.732515 
L 266.81155 263.551732 
L 268.451219 257.500487 
L 270.090888 263.684818 
L 271.730558 250.408269 
L 273.370227 256.321048 
L 275.009897 263.84273 
L 276.649566 249.674982 
L 278.289236 258.864041 
L 281.568574 257.26493 
L 283.208244 257.197904 
L 284.847913 263.819422 
L 286.487583 214.538955 
L 288.127252 264.31205 
L 289.766921 263.491187 
L 291.406591 258.256393 
L 293.04626 262.210244 
L 294.68593 260.905441 
L 296.325599 261.036597 
L 297.965269 262.643293 
L 299.604938 259.591812 
L 301.244607 264.420175 
L 302.884277 255.139127 
L 304.523946 256.792438 
L 306.163616 213.855178 
L 307.803285 245.37345 
L 309.442955 253.786468 
L 311.082624 261.416136 
L 312.722293 260.852344 
L 314.361963 225.317471 
L 316.001632 263.874588 
L 317.641302 259.88943 
L 319.280971 260.944333 
L 320.92064 261.80395 
L 322.56031 264.715173 
L 325.839649 264.712828 
L 327.479318 263.341413 
L 329.118988 238.737726 
L 330.758657 257.133361 
L 332.398326 263.069033 
L 334.037996 261.334905 
L 335.677665 257.846375 
L 337.317335 209.74976 
L 338.957004 264.516852 
L 340.596674 134.011768 
L 342.236343 262.279201 
L 343.876012 255.733673 
L 345.515682 261.587287 
L 347.155351 252.082267 
L 348.795021 261.8165 
L 350.43469 238.762827 
L 352.07436 260.483977 
L 353.714029 261.097969 
L 355.353698 260.650439 
L 356.993368 264.035947 
L 358.633037 261.998546 
L 360.272707 264.407073 
L 363.552045 251.510063 
L 365.191715 165.645474 
L 366.831384 261.871803 
L 368.471054 259.619533 
L 370.110723 235.761408 
L 371.750393 264.715862 
L 373.390062 264.715862 
L 375.029731 249.16608 
L 376.669401 264.508026 
L 378.30907 263.834455 
L 379.94874 242.045727 
L 381.588409 263.904653 
L 383.228079 258.644344 
L 384.867748 235.641148 
L 386.507417 263.747155 
L 388.147087 264.148623 
L 389.786756 260.748771 
L 391.426426 212.010857 
L 393.066095 260.626717 
L 393.066095 260.626717 
" style="fill:none;stroke:#17becf;stroke-linecap:square;stroke-width:0.5;"/>
   </g>
   <g id="line2d_28">
    <path clip-path="url(#p3e638d9a72)" d="M 74.970227 247.842796 
L 76.609897 261.539983 
L 78.249566 170.918333 
L 79.889236 98.34367 
L 81.528905 260.586447 
L 83.168574 253.036907 
L 84.808244 263.663718 
L 86.447913 252.799143 
L 88.087583 260.958124 
L 89.727252 254.530651 
L 91.366921 261.381106 
L 93.006591 257.72639 
L 94.64626 263.540561 
L 96.28593 259.220135 
L 97.925599 234.487361 
L 99.565269 261.90573 
L 101.204938 259.271025 
L 102.844607 262.946152 
L 104.484277 259.265646 
L 106.123946 263.041726 
L 107.763616 263.081445 
L 109.403285 262.824788 
L 111.042955 261.677621 
L 112.682624 261.196439 
L 114.322293 263.01704 
L 115.961963 257.798243 
L 117.601632 262.077571 
L 119.241302 261.228435 
L 120.880971 264.505406 
L 122.52064 261.759679 
L 124.16031 264.512301 
L 125.799979 259.74338 
L 127.439649 264.477961 
L 129.079318 264.561812 
L 130.718988 261.986961 
L 132.358657 263.932374 
L 133.998326 263.310796 
L 135.637996 264.05029 
L 137.277665 261.002533 
L 138.917335 264.460722 
L 140.557004 263.661649 
L 142.196674 263.763567 
L 143.836343 264.22875 
L 145.476012 263.966714 
L 147.115682 261.400828 
L 148.755351 263.873071 
L 150.395021 258.076829 
L 152.03469 263.957198 
L 153.67436 263.634342 
L 155.314029 259.323708 
L 156.953698 261.390622 
L 158.593368 261.083626 
L 160.233037 262.489244 
L 161.872707 262.937739 
L 163.512376 263.138266 
L 165.152045 262.155216 
L 166.791715 259.220686 
L 168.431384 264.129315 
L 170.071054 263.260458 
L 171.710723 237.186196 
L 173.350393 264.417555 
L 174.990062 263.888931 
L 176.629731 251.312846 
L 178.269401 263.472845 
L 179.90907 260.943092 
L 181.54874 222.74924 
L 183.188409 260.221665 
L 184.828079 262.238792 
L 186.467748 260.3833 
L 188.107417 260.371025 
L 189.747087 262.754452 
L 191.386756 246.630258 
L 193.026426 249.787243 
L 194.666095 245.409031 
L 196.305764 257.353333 
L 197.945434 262.796653 
L 199.585103 264.601394 
L 201.224773 260.505905 
L 202.864442 264.080217 
L 204.504112 263.904377 
L 206.143781 262.92712 
L 207.78345 262.289958 
L 209.42312 263.944234 
L 211.062789 262.715284 
L 212.702459 228.032305 
L 214.342128 234.405164 
L 215.981798 262.599299 
L 217.621467 263.127922 
L 219.261136 245.326559 
L 220.900806 257.815482 
L 222.540475 252.239213 
L 224.180145 263.081032 
L 225.819814 260.149398 
L 227.459483 263.44209 
L 229.099153 224.029356 
L 230.738822 257.126327 
L 232.378492 261.523019 
L 234.018161 229.574319 
L 235.657831 263.333966 
L 237.2975 254.463073 
L 238.937169 255.023693 
L 240.576839 263.950027 
L 242.216508 252.91237 
L 243.856178 243.631047 
L 245.495847 258.812599 
L 247.135517 215.1164 
L 248.775186 264.448171 
L 250.414855 136.079234 
L 252.054525 260.679814 
L 253.694194 260.565484 
L 255.333864 259.725451 
L 256.973533 262.58799 
L 258.613202 263.813768 
L 260.252872 260.364268 
L 261.892541 230.903394 
L 263.532211 244.534382 
L 265.17188 259.474585 
L 266.81155 261.697756 
L 268.451219 262.443456 
L 270.090888 263.833352 
L 271.730558 264.716 
L 273.370227 259.849435 
L 275.009897 261.660382 
L 276.649566 264.374939 
L 278.289236 264.716 
L 279.928905 264.715448 
L 281.568574 264.573949 
L 283.208244 260.352821 
L 284.847913 263.775152 
L 286.487583 263.484705 
L 288.127252 262.391325 
L 289.766921 264.32267 
L 291.406591 235.001917 
L 293.04626 263.031797 
L 294.68593 263.694197 
L 296.325599 262.621503 
L 297.965269 260.31517 
L 299.604938 264.532023 
L 301.244607 263.939131 
L 302.884277 262.290786 
L 304.523946 262.268719 
L 306.163616 263.557662 
L 307.803285 263.551732 
L 309.442955 258.552494 
L 311.082624 241.938292 
L 312.722293 261.353385 
L 314.361963 264.57588 
L 316.001632 263.610483 
L 317.641302 263.560282 
L 319.280971 263.035382 
L 320.92064 262.644948 
L 322.56031 263.756258 
L 324.199979 261.610733 
L 325.839649 262.068744 
L 327.479318 260.875514 
L 329.118988 261.345524 
L 330.758657 256.692036 
L 332.398326 229.770019 
L 334.037996 263.029866 
L 335.677665 262.363742 
L 337.317335 258.511671 
L 338.957004 253.693652 
L 340.596674 262.584128 
L 342.236343 260.917854 
L 343.876012 243.082425 
L 345.515682 264.223096 
L 347.155351 260.701881 
L 348.795021 237.073107 
L 350.43469 261.762989 
L 352.07436 263.025315 
L 353.714029 259.805717 
L 355.353698 239.670713 
L 356.993368 252.998842 
L 358.633037 249.976875 
L 360.272707 261.897455 
L 361.912376 262.525377 
L 363.552045 264.345839 
L 365.191715 257.232796 
L 366.831384 264.131659 
L 368.471054 263.460708 
L 370.110723 263.870726 
L 371.750393 261.107347 
L 373.390062 262.205693 
L 375.029731 261.145273 
L 376.669401 256.546813 
L 378.30907 264.337702 
L 379.94874 260.78849 
L 381.588409 261.536397 
L 383.228079 253.057732 
L 384.867748 261.708789 
L 386.507417 260.978398 
L 388.147087 263.032072 
L 389.786756 260.803937 
L 391.426426 264.396178 
L 391.426426 264.396178 
" style="fill:none;stroke:#1f77b4;stroke-linecap:square;stroke-width:0.5;"/>
   </g>
   <g id="line2d_29">
    <path clip-path="url(#p3e638d9a72)" d="M 74.970227 263.780117 
L 76.609897 262.71556 
L 78.249566 261.362212 
L 79.889236 264.4159 
L 81.528905 260.787111 
L 83.168574 263.72109 
L 84.808244 264.005192 
L 86.447913 261.332698 
L 88.087583 264.440724 
L 89.727252 252.334098 
L 91.366921 264.548848 
L 93.006591 264.242542 
L 94.64626 261.0126 
L 96.28593 263.883552 
L 97.925599 261.698859 
L 99.565269 261.647556 
L 101.204938 264.479892 
L 102.844607 264.094009 
L 104.484277 264.494648 
L 106.123946 263.562351 
L 107.763616 263.058 
L 109.403285 261.959655 
L 111.042955 263.880656 
L 112.682624 264.225854 
L 114.322293 263.364996 
L 115.961963 263.276456 
L 117.601632 263.947958 
L 119.241302 264.492028 
L 120.880971 263.454089 
L 122.52064 263.219359 
L 124.16031 264.51437 
L 127.439649 264.236749 
L 129.079318 263.588968 
L 130.718988 263.674613 
L 132.358657 264.307775 
L 133.998326 263.581521 
L 135.637996 264.522231 
L 137.277665 263.48374 
L 138.917335 264.385696 
L 140.557004 263.574074 
L 142.196674 264.514094 
L 143.836343 262.780242 
L 145.476012 263.095237 
L 147.115682 264.295501 
L 148.755351 264.668971 
L 150.395021 263.797632 
L 152.03469 263.49105 
L 153.67436 261.807673 
L 155.314029 263.984091 
L 156.953698 261.181545 
L 158.593368 264.652422 
L 160.233037 264.642768 
L 161.872707 258.748056 
L 163.512376 264.177447 
L 165.152045 263.289695 
L 166.791715 262.970563 
L 168.431384 263.379063 
L 170.071054 260.484253 
L 171.710723 263.974162 
L 173.350393 262.322506 
L 174.990062 264.494097 
L 176.629731 263.946855 
L 178.269401 260.091474 
L 179.90907 263.089031 
L 181.54874 263.250804 
L 183.188409 262.258514 
L 184.828079 263.431609 
L 186.467748 261.95469 
L 188.107417 262.02737 
L 189.747087 263.616275 
L 191.386756 264.512025 
L 194.666095 264.009881 
L 196.305764 262.714457 
L 197.945434 262.485658 
L 199.585103 263.376305 
L 201.224773 264.128901 
L 202.864442 264.052497 
L 204.504112 249.79538 
L 206.143781 264.546504 
L 207.78345 264.209029 
L 209.42312 260.55845 
L 211.062789 264.296742 
L 212.702459 264.210132 
L 214.342128 264.333427 
L 215.981798 262.934154 
L 217.621467 264.045877 
L 219.261136 261.909868 
L 220.900806 264.422519 
L 222.540475 262.397393 
L 224.180145 263.899826 
L 225.819814 264.205995 
L 227.459483 264.027672 
L 229.099153 262.230104 
L 230.738822 263.664131 
L 232.378492 262.972769 
L 234.018161 260.311722 
L 235.657831 262.977734 
L 237.2975 264.620839 
L 238.937169 262.756796 
L 240.576839 264.589119 
L 242.216508 264.432449 
L 243.856178 263.958164 
L 245.495847 263.853763 
L 247.135517 261.679276 
L 248.775186 262.890711 
L 250.414855 263.366238 
L 252.054525 261.437651 
L 253.694194 260.886271 
L 255.333864 261.980066 
L 256.973533 264.508716 
L 258.613202 264.418658 
L 260.252872 263.379477 
L 261.892541 263.208878 
L 263.532211 263.64634 
L 265.17188 262.305267 
L 266.81155 263.183088 
L 268.451219 263.929891 
L 270.090888 263.630756 
L 271.730558 262.327195 
L 273.370227 263.454364 
L 275.009897 263.213429 
L 276.649566 264.371215 
L 278.289236 264.423209 
L 279.928905 262.210382 
L 281.568574 264.275779 
L 283.208244 259.226203 
L 284.847913 263.458916 
L 286.487583 263.986988 
L 288.127252 263.741915 
L 289.766921 262.848509 
L 291.406591 264.512853 
L 293.04626 262.793206 
L 294.68593 264.519197 
L 296.325599 264.28957 
L 297.965269 264.361699 
L 299.604938 261.768092 
L 301.244607 262.579577 
L 302.884277 262.992629 
L 304.523946 260.906269 
L 306.163616 263.544974 
L 307.803285 264.545676 
L 309.442955 264.607462 
L 311.082624 263.46526 
L 312.722293 264.017604 
L 314.361963 258.895899 
L 316.001632 260.881031 
L 317.641302 264.352735 
L 319.280971 264.265436 
L 320.92064 264.548159 
L 322.56031 264.253023 
L 324.199979 263.4494 
L 325.839649 264.272745 
L 327.479318 259.993417 
L 329.118988 264.055669 
L 330.758657 255.904824 
L 332.398326 262.777346 
L 334.037996 262.908915 
L 335.677665 264.572845 
L 337.317335 264.265711 
L 340.596674 264.649526 
L 342.236343 264.169585 
L 343.876012 264.349425 
L 345.515682 264.317567 
L 347.155351 263.092341 
L 348.795021 264.438931 
L 350.43469 263.869899 
L 352.07436 264.556158 
L 353.714029 261.566876 
L 355.353698 264.439069 
L 358.633037 264.534505 
L 360.272707 262.599437 
L 361.912376 264.531747 
L 363.552045 264.575328 
L 365.191715 264.100904 
L 366.831384 261.78478 
L 368.471054 263.965335 
L 370.110723 264.201581 
L 370.110723 264.201581 
" style="fill:none;stroke:#ff7f0e;stroke-linecap:square;stroke-width:0.5;"/>
   </g>
   <g id="line2d_30">
    <path clip-path="url(#p3e638d9a72)" d="M 74.970227 264.020087 
L 76.609897 263.15385 
L 78.249566 264.593946 
L 79.889236 263.629791 
L 81.528905 264.141865 
L 83.168574 262.846716 
L 84.808244 263.573246 
L 86.447913 263.435332 
L 88.087583 260.659265 
L 89.727252 263.10889 
L 91.366921 263.129302 
L 93.006591 263.65696 
L 94.64626 263.392165 
L 96.28593 263.501393 
L 97.925599 264.10187 
L 99.565269 263.787702 
L 101.204938 264.347218 
L 102.844607 263.888241 
L 104.484277 263.191225 
L 106.123946 264.584292 
L 107.763616 264.323635 
L 109.403285 263.490222 
L 111.042955 264.338806 
L 112.682624 263.865072 
L 114.322293 264.325152 
L 115.961963 262.7288 
L 117.601632 262.823133 
L 119.241302 264.07346 
L 120.880971 264.120074 
L 122.52064 260.574724 
L 124.16031 263.510495 
L 125.799979 262.200866 
L 127.439649 264.395075 
L 129.079318 263.794184 
L 130.718988 264.07939 
L 132.358657 263.991263 
L 133.998326 263.33962 
L 135.637996 263.236185 
L 137.277665 260.490183 
L 138.917335 263.094271 
L 140.557004 264.292743 
L 142.196674 260.957297 
L 143.836343 261.824223 
L 145.476012 264.299224 
L 147.115682 264.189721 
L 148.755351 264.481133 
L 150.395021 263.394372 
L 152.03469 262.722456 
L 153.67436 263.691576 
L 155.314029 263.444297 
L 156.953698 263.775704 
L 158.593368 263.024487 
L 160.233037 264.016363 
L 161.872707 263.305418 
L 163.512376 263.20805 
L 165.152045 263.863417 
L 166.791715 262.645776 
L 168.431384 263.617516 
L 170.071054 259.768894 
L 171.710723 261.219471 
L 173.350393 256.271261 
L 174.990062 262.080467 
L 176.629731 262.084191 
L 178.269401 261.931382 
L 179.90907 260.859792 
L 181.54874 262.510069 
L 183.188409 263.853763 
L 184.828079 264.077735 
L 186.467748 260.724636 
L 188.107417 260.802006 
L 189.747087 262.982285 
L 191.386756 263.599588 
L 193.026426 262.392842 
L 194.666095 258.218742 
L 196.305764 264.438517 
L 197.945434 264.197444 
L 199.585103 260.74491 
L 201.224773 263.51946 
L 202.864442 263.181019 
L 204.504112 257.060542 
L 206.143781 264.277296 
L 207.78345 264.609944 
L 209.42312 261.163202 
L 211.062789 259.198482 
L 212.702459 263.271904 
L 214.342128 263.360583 
L 215.981798 264.382662 
L 217.621467 264.400177 
L 219.261136 262.980493 
L 220.900806 264.138555 
L 222.540475 260.104162 
L 224.180145 264.45755 
L 225.819814 262.474763 
L 227.459483 263.602898 
L 229.099153 264.462928 
L 230.738822 264.583327 
L 232.378492 261.618732 
L 234.018161 264.209167 
L 235.657831 264.305155 
L 237.2975 262.576819 
L 238.937169 264.400315 
L 240.576839 261.06156 
L 242.216508 263.950992 
L 243.856178 263.854866 
L 245.495847 263.624826 
L 247.135517 261.538604 
L 250.414855 264.591602 
L 252.054525 261.890146 
L 253.694194 263.740674 
L 255.333864 259.9417 
L 256.973533 262.600954 
L 258.613202 263.768394 
L 260.252872 264.457412 
L 263.532211 264.200892 
L 265.17188 262.651568 
L 266.81155 261.377658 
L 268.451219 263.047105 
L 270.090888 262.683426 
L 271.730558 256.706931 
L 273.370227 262.735971 
L 275.009897 263.94451 
L 276.649566 264.602359 
L 278.289236 263.434643 
L 279.928905 263.335207 
L 281.568574 263.763429 
L 283.208244 263.653788 
L 284.847913 264.353976 
L 286.487583 264.264884 
L 288.127252 263.101857 
L 289.766921 264.086286 
L 291.406591 263.629929 
L 293.04626 264.042291 
L 294.68593 261.912074 
L 296.325599 263.949475 
L 297.965269 264.382662 
L 299.604938 264.203788 
L 301.244607 264.153036 
L 302.884277 263.442504 
L 304.523946 262.908364 
L 306.163616 263.337414 
L 307.803285 262.351468 
L 311.082624 263.237426 
L 312.722293 264.238818 
L 314.361963 264.625804 
L 316.001632 262.648534 
L 317.641302 264.490097 
L 320.92064 263.436022 
L 322.56031 264.031672 
L 324.199979 262.883677 
L 325.839649 263.687301 
L 327.479318 261.679689 
L 329.118988 263.541112 
L 330.758657 261.103899 
L 332.398326 263.444848 
L 334.037996 263.066275 
L 335.677665 258.223569 
L 337.317335 262.121979 
L 338.957004 263.299763 
L 340.596674 263.504013 
L 342.236343 261.656658 
L 343.876012 264.187376 
L 345.515682 263.474776 
L 347.155351 261.377107 
L 348.795021 263.933201 
L 350.43469 263.20543 
L 352.07436 261.927107 
L 353.714029 263.668407 
L 355.353698 261.851392 
L 356.993368 263.747293 
L 358.633037 261.693895 
L 360.272707 264.213304 
L 361.912376 263.627446 
L 363.552045 264.49851 
L 365.191715 263.73626 
L 366.831384 263.591313 
L 368.471054 262.962978 
L 370.110723 263.767843 
L 371.750393 263.253838 
L 373.390062 264.090561 
L 375.029731 262.327746 
L 376.669401 263.847557 
L 378.30907 262.539306 
L 379.94874 262.380016 
L 381.588409 263.659718 
L 383.228079 264.626908 
L 384.867748 263.734743 
L 386.507417 264.391213 
L 388.147087 262.62633 
L 389.786756 263.934167 
L 391.426426 264.281847 
L 393.066095 264.303362 
L 393.066095 264.303362 
" style="fill:none;stroke:#2ca02c;stroke-linecap:square;stroke-width:0.5;"/>
   </g>
   <g id="patch_3">
    <path d="M 58.7375 276.812 
L 58.7375 10.7 
" style="fill:none;stroke:#000000;stroke-linecap:square;stroke-linejoin:miter;stroke-width:0.8;"/>
   </g>
   <g id="patch_4">
    <path d="M 415.8575 276.812 
L 415.8575 10.7 
" style="fill:none;stroke:#000000;stroke-linecap:square;stroke-linejoin:miter;stroke-width:0.8;"/>
   </g>
   <g id="patch_5">
    <path d="M 58.7375 276.812 
L 415.8575 276.812 
" style="fill:none;stroke:#000000;stroke-linecap:square;stroke-linejoin:miter;stroke-width:0.8;"/>
   </g>
   <g id="patch_6">
    <path d="M 58.7375 10.7 
L 415.8575 10.7 
" style="fill:none;stroke:#000000;stroke-linecap:square;stroke-linejoin:miter;stroke-width:0.8;"/>
   </g>
  </g>
 </g>
 <defs>
  <clipPath id="p3e638d9a72">
   <rect height="266.112" width="357.12" x="58.7375" y="10.7"/>
  </clipPath>
 </defs>
</svg>
