<?xml version="1.0" encoding="utf-8" standalone="no"?>
<!DOCTYPE svg PUBLIC "-//W3C//DTD SVG 1.1//EN"
  "http://www.w3.org/Graphics/SVG/1.1/DTD/svg11.dtd">
<!-- Created with matplotlib (http://matplotlib.org/) -->
<svg height="300pt" version="1.1" viewBox="0 0 420 300" width="420pt" xmlns="http://www.w3.org/2000/svg" xmlns:xlink="http://www.w3.org/1999/xlink">
 <defs>
  <style type="text/css">
*{stroke-linecap:butt;stroke-linejoin:round;}
  </style>
 </defs>
 <g id="figure_1">
  <g id="patch_1">
   <path d="M 0 300.690125 
L 420.195 300.690125 
L 420.195 0 
L 0 0 
z
" style="fill:#ffffff;"/>
  </g>
  <g id="axes_1">
   <g id="patch_2">
    <path d="M 52.375 276.812 
L 409.495 276.812 
L 409.495 10.7 
L 52.375 10.7 
z
" style="fill:#ffffff;"/>
   </g>
   <g id="matplotlib.axis_1">
    <g id="xtick_1">
     <g id="line2d_1">
      <defs>
       <path d="M 0 0 
L 0 3.5 
" id="mc29ded9885" style="stroke:#000000;stroke-width:0.8;"/>
      </defs>
      <g>
       <use style="stroke:#000000;stroke-width:0.8;" x="68.607727" xlink:href="#mc29ded9885" y="276.812"/>
      </g>
     </g>
     <g id="text_1">
      <!-- 0 -->
      <defs>
       <path d="M 31.78125 66.40625 
Q 24.171875 66.40625 20.328125 58.90625 
Q 16.5 51.421875 16.5 36.375 
Q 16.5 21.390625 20.328125 13.890625 
Q 24.171875 6.390625 31.78125 6.390625 
Q 39.453125 6.390625 43.28125 13.890625 
Q 47.125 21.390625 47.125 36.375 
Q 47.125 51.421875 43.28125 58.90625 
Q 39.453125 66.40625 31.78125 66.40625 
M 31.78125 74.21875 
Q 44.046875 74.21875 50.515625 64.515625 
Q 56.984375 54.828125 56.984375 36.375 
Q 56.984375 17.96875 50.515625 8.265625 
Q 44.046875 -1.421875 31.78125 -1.421875 
Q 19.53125 -1.421875 13.0625 8.265625 
Q 6.59375 17.96875 6.59375 36.375 
Q 6.59375 54.828125 13.0625 64.515625 
Q 19.53125 74.21875 31.78125 74.21875 
" id="DejaVuSans-30"/>
      </defs>
      <g transform="translate(65.426477 291.410437)scale(0.1 -0.1)">
       <use xlink:href="#DejaVuSans-30"/>
      </g>
     </g>
    </g>
    <g id="xtick_2">
     <g id="line2d_2">
      <g>
       <use style="stroke:#000000;stroke-width:0.8;" x="109.599463" xlink:href="#mc29ded9885" y="276.812"/>
      </g>
     </g>
     <g id="text_2">
      <!-- 25 -->
      <defs>
       <path d="M 19.1875 8.296875 
L 53.609375 8.296875 
L 53.609375 0 
L 7.328125 0 
L 7.328125 8.296875 
Q 12.9375 14.109375 22.625 23.890625 
Q 32.328125 33.6875 34.8125 36.53125 
Q 39.546875 41.84375 41.421875 45.53125 
Q 43.3125 49.21875 43.3125 52.78125 
Q 43.3125 58.59375 39.234375 62.25 
Q 35.15625 65.921875 28.609375 65.921875 
Q 23.96875 65.921875 18.8125 64.3125 
Q 13.671875 62.703125 7.8125 59.421875 
L 7.8125 69.390625 
Q 13.765625 71.78125 18.9375 73 
Q 24.125 74.21875 28.421875 74.21875 
Q 39.75 74.21875 46.484375 68.546875 
Q 53.21875 62.890625 53.21875 53.421875 
Q 53.21875 48.921875 51.53125 44.890625 
Q 49.859375 40.875 45.40625 35.40625 
Q 44.1875 33.984375 37.640625 27.21875 
Q 31.109375 20.453125 19.1875 8.296875 
" id="DejaVuSans-32"/>
       <path d="M 10.796875 72.90625 
L 49.515625 72.90625 
L 49.515625 64.59375 
L 19.828125 64.59375 
L 19.828125 46.734375 
Q 21.96875 47.46875 24.109375 47.828125 
Q 26.265625 48.1875 28.421875 48.1875 
Q 40.625 48.1875 47.75 41.5 
Q 54.890625 34.8125 54.890625 23.390625 
Q 54.890625 11.625 47.5625 5.09375 
Q 40.234375 -1.421875 26.90625 -1.421875 
Q 22.3125 -1.421875 17.546875 -0.640625 
Q 12.796875 0.140625 7.71875 1.703125 
L 7.71875 11.625 
Q 12.109375 9.234375 16.796875 8.0625 
Q 21.484375 6.890625 26.703125 6.890625 
Q 35.15625 6.890625 40.078125 11.328125 
Q 45.015625 15.765625 45.015625 23.390625 
Q 45.015625 31 40.078125 35.4375 
Q 35.15625 39.890625 26.703125 39.890625 
Q 22.75 39.890625 18.8125 39.015625 
Q 14.890625 38.140625 10.796875 36.28125 
z
" id="DejaVuSans-35"/>
      </defs>
      <g transform="translate(103.236963 291.410437)scale(0.1 -0.1)">
       <use xlink:href="#DejaVuSans-32"/>
       <use x="63.623047" xlink:href="#DejaVuSans-35"/>
      </g>
     </g>
    </g>
    <g id="xtick_3">
     <g id="line2d_3">
      <g>
       <use style="stroke:#000000;stroke-width:0.8;" x="150.591198" xlink:href="#mc29ded9885" y="276.812"/>
      </g>
     </g>
     <g id="text_3">
      <!-- 50 -->
      <g transform="translate(144.228698 291.410437)scale(0.1 -0.1)">
       <use xlink:href="#DejaVuSans-35"/>
       <use x="63.623047" xlink:href="#DejaVuSans-30"/>
      </g>
     </g>
    </g>
    <g id="xtick_4">
     <g id="line2d_4">
      <g>
       <use style="stroke:#000000;stroke-width:0.8;" x="191.582934" xlink:href="#mc29ded9885" y="276.812"/>
      </g>
     </g>
     <g id="text_4">
      <!-- 75 -->
      <defs>
       <path d="M 8.203125 72.90625 
L 55.078125 72.90625 
L 55.078125 68.703125 
L 28.609375 0 
L 18.3125 0 
L 43.21875 64.59375 
L 8.203125 64.59375 
z
" id="DejaVuSans-37"/>
      </defs>
      <g transform="translate(185.220434 291.410437)scale(0.1 -0.1)">
       <use xlink:href="#DejaVuSans-37"/>
       <use x="63.623047" xlink:href="#DejaVuSans-35"/>
      </g>
     </g>
    </g>
    <g id="xtick_5">
     <g id="line2d_5">
      <g>
       <use style="stroke:#000000;stroke-width:0.8;" x="232.574669" xlink:href="#mc29ded9885" y="276.812"/>
      </g>
     </g>
     <g id="text_5">
      <!-- 100 -->
      <defs>
       <path d="M 12.40625 8.296875 
L 28.515625 8.296875 
L 28.515625 63.921875 
L 10.984375 60.40625 
L 10.984375 69.390625 
L 28.421875 72.90625 
L 38.28125 72.90625 
L 38.28125 8.296875 
L 54.390625 8.296875 
L 54.390625 0 
L 12.40625 0 
z
" id="DejaVuSans-31"/>
      </defs>
      <g transform="translate(223.030919 291.410437)scale(0.1 -0.1)">
       <use xlink:href="#DejaVuSans-31"/>
       <use x="63.623047" xlink:href="#DejaVuSans-30"/>
       <use x="127.246094" xlink:href="#DejaVuSans-30"/>
      </g>
     </g>
    </g>
    <g id="xtick_6">
     <g id="line2d_6">
      <g>
       <use style="stroke:#000000;stroke-width:0.8;" x="273.566405" xlink:href="#mc29ded9885" y="276.812"/>
      </g>
     </g>
     <g id="text_6">
      <!-- 125 -->
      <g transform="translate(264.022655 291.410437)scale(0.1 -0.1)">
       <use xlink:href="#DejaVuSans-31"/>
       <use x="63.623047" xlink:href="#DejaVuSans-32"/>
       <use x="127.246094" xlink:href="#DejaVuSans-35"/>
      </g>
     </g>
    </g>
    <g id="xtick_7">
     <g id="line2d_7">
      <g>
       <use style="stroke:#000000;stroke-width:0.8;" x="314.55814" xlink:href="#mc29ded9885" y="276.812"/>
      </g>
     </g>
     <g id="text_7">
      <!-- 150 -->
      <g transform="translate(305.01439 291.410437)scale(0.1 -0.1)">
       <use xlink:href="#DejaVuSans-31"/>
       <use x="63.623047" xlink:href="#DejaVuSans-35"/>
       <use x="127.246094" xlink:href="#DejaVuSans-30"/>
      </g>
     </g>
    </g>
    <g id="xtick_8">
     <g id="line2d_8">
      <g>
       <use style="stroke:#000000;stroke-width:0.8;" x="355.549876" xlink:href="#mc29ded9885" y="276.812"/>
      </g>
     </g>
     <g id="text_8">
      <!-- 175 -->
      <g transform="translate(346.006126 291.410437)scale(0.1 -0.1)">
       <use xlink:href="#DejaVuSans-31"/>
       <use x="63.623047" xlink:href="#DejaVuSans-37"/>
       <use x="127.246094" xlink:href="#DejaVuSans-35"/>
      </g>
     </g>
    </g>
    <g id="xtick_9">
     <g id="line2d_9">
      <g>
       <use style="stroke:#000000;stroke-width:0.8;" x="396.541612" xlink:href="#mc29ded9885" y="276.812"/>
      </g>
     </g>
     <g id="text_9">
      <!-- 200 -->
      <g transform="translate(386.997862 291.410437)scale(0.1 -0.1)">
       <use xlink:href="#DejaVuSans-32"/>
       <use x="63.623047" xlink:href="#DejaVuSans-30"/>
       <use x="127.246094" xlink:href="#DejaVuSans-30"/>
      </g>
     </g>
    </g>
   </g>
   <g id="matplotlib.axis_2">
    <g id="ytick_1">
     <g id="line2d_10">
      <defs>
       <path d="M 0 0 
L -3.5 0 
" id="ma0a1838a2d" style="stroke:#000000;stroke-width:0.8;"/>
      </defs>
      <g>
       <use style="stroke:#000000;stroke-width:0.8;" x="52.375" xlink:href="#ma0a1838a2d" y="264.716"/>
      </g>
     </g>
     <g id="text_10">
      <!-- 0 -->
      <g transform="translate(39.0125 268.515219)scale(0.1 -0.1)">
       <use xlink:href="#DejaVuSans-30"/>
      </g>
     </g>
    </g>
    <g id="ytick_2">
     <g id="line2d_11">
      <g>
       <use style="stroke:#000000;stroke-width:0.8;" x="52.375" xlink:href="#ma0a1838a2d" y="220.181639"/>
      </g>
     </g>
     <g id="text_11">
      <!-- 100000 -->
      <g transform="translate(7.2 223.980858)scale(0.1 -0.1)">
       <use xlink:href="#DejaVuSans-31"/>
       <use x="63.623047" xlink:href="#DejaVuSans-30"/>
       <use x="127.246094" xlink:href="#DejaVuSans-30"/>
       <use x="190.869141" xlink:href="#DejaVuSans-30"/>
       <use x="254.492188" xlink:href="#DejaVuSans-30"/>
       <use x="318.115234" xlink:href="#DejaVuSans-30"/>
      </g>
     </g>
    </g>
    <g id="ytick_3">
     <g id="line2d_12">
      <g>
       <use style="stroke:#000000;stroke-width:0.8;" x="52.375" xlink:href="#ma0a1838a2d" y="175.647278"/>
      </g>
     </g>
     <g id="text_12">
      <!-- 200000 -->
      <g transform="translate(7.2 179.446497)scale(0.1 -0.1)">
       <use xlink:href="#DejaVuSans-32"/>
       <use x="63.623047" xlink:href="#DejaVuSans-30"/>
       <use x="127.246094" xlink:href="#DejaVuSans-30"/>
       <use x="190.869141" xlink:href="#DejaVuSans-30"/>
       <use x="254.492188" xlink:href="#DejaVuSans-30"/>
       <use x="318.115234" xlink:href="#DejaVuSans-30"/>
      </g>
     </g>
    </g>
    <g id="ytick_4">
     <g id="line2d_13">
      <g>
       <use style="stroke:#000000;stroke-width:0.8;" x="52.375" xlink:href="#ma0a1838a2d" y="131.112918"/>
      </g>
     </g>
     <g id="text_13">
      <!-- 300000 -->
      <defs>
       <path d="M 40.578125 39.3125 
Q 47.65625 37.796875 51.625 33 
Q 55.609375 28.21875 55.609375 21.1875 
Q 55.609375 10.40625 48.1875 4.484375 
Q 40.765625 -1.421875 27.09375 -1.421875 
Q 22.515625 -1.421875 17.65625 -0.515625 
Q 12.796875 0.390625 7.625 2.203125 
L 7.625 11.71875 
Q 11.71875 9.328125 16.59375 8.109375 
Q 21.484375 6.890625 26.8125 6.890625 
Q 36.078125 6.890625 40.9375 10.546875 
Q 45.796875 14.203125 45.796875 21.1875 
Q 45.796875 27.640625 41.28125 31.265625 
Q 36.765625 34.90625 28.71875 34.90625 
L 20.21875 34.90625 
L 20.21875 43.015625 
L 29.109375 43.015625 
Q 36.375 43.015625 40.234375 45.921875 
Q 44.09375 48.828125 44.09375 54.296875 
Q 44.09375 59.90625 40.109375 62.90625 
Q 36.140625 65.921875 28.71875 65.921875 
Q 24.65625 65.921875 20.015625 65.03125 
Q 15.375 64.15625 9.8125 62.3125 
L 9.8125 71.09375 
Q 15.4375 72.65625 20.34375 73.4375 
Q 25.25 74.21875 29.59375 74.21875 
Q 40.828125 74.21875 47.359375 69.109375 
Q 53.90625 64.015625 53.90625 55.328125 
Q 53.90625 49.265625 50.4375 45.09375 
Q 46.96875 40.921875 40.578125 39.3125 
" id="DejaVuSans-33"/>
      </defs>
      <g transform="translate(7.2 134.912136)scale(0.1 -0.1)">
       <use xlink:href="#DejaVuSans-33"/>
       <use x="63.623047" xlink:href="#DejaVuSans-30"/>
       <use x="127.246094" xlink:href="#DejaVuSans-30"/>
       <use x="190.869141" xlink:href="#DejaVuSans-30"/>
       <use x="254.492188" xlink:href="#DejaVuSans-30"/>
       <use x="318.115234" xlink:href="#DejaVuSans-30"/>
      </g>
     </g>
    </g>
    <g id="ytick_5">
     <g id="line2d_14">
      <g>
       <use style="stroke:#000000;stroke-width:0.8;" x="52.375" xlink:href="#ma0a1838a2d" y="86.578557"/>
      </g>
     </g>
     <g id="text_14">
      <!-- 400000 -->
      <defs>
       <path d="M 37.796875 64.3125 
L 12.890625 25.390625 
L 37.796875 25.390625 
z
M 35.203125 72.90625 
L 47.609375 72.90625 
L 47.609375 25.390625 
L 58.015625 25.390625 
L 58.015625 17.1875 
L 47.609375 17.1875 
L 47.609375 0 
L 37.796875 0 
L 37.796875 17.1875 
L 4.890625 17.1875 
L 4.890625 26.703125 
z
" id="DejaVuSans-34"/>
      </defs>
      <g transform="translate(7.2 90.377776)scale(0.1 -0.1)">
       <use xlink:href="#DejaVuSans-34"/>
       <use x="63.623047" xlink:href="#DejaVuSans-30"/>
       <use x="127.246094" xlink:href="#DejaVuSans-30"/>
       <use x="190.869141" xlink:href="#DejaVuSans-30"/>
       <use x="254.492188" xlink:href="#DejaVuSans-30"/>
       <use x="318.115234" xlink:href="#DejaVuSans-30"/>
      </g>
     </g>
    </g>
    <g id="ytick_6">
     <g id="line2d_15">
      <g>
       <use style="stroke:#000000;stroke-width:0.8;" x="52.375" xlink:href="#ma0a1838a2d" y="42.044196"/>
      </g>
     </g>
     <g id="text_15">
      <!-- 500000 -->
      <g transform="translate(7.2 45.843415)scale(0.1 -0.1)">
       <use xlink:href="#DejaVuSans-35"/>
       <use x="63.623047" xlink:href="#DejaVuSans-30"/>
       <use x="127.246094" xlink:href="#DejaVuSans-30"/>
       <use x="190.869141" xlink:href="#DejaVuSans-30"/>
       <use x="254.492188" xlink:href="#DejaVuSans-30"/>
       <use x="318.115234" xlink:href="#DejaVuSans-30"/>
      </g>
     </g>
    </g>
   </g>
   <g id="line2d_16">
    <path clip-path="url(#pca83d44cad)" d="M 68.607727 262.642035 
L 70.247397 264.070697 
L 71.887066 264.513814 
L 73.526736 263.260172 
L 75.166405 263.38754 
L 76.806074 261.166166 
L 78.445744 264.61936 
L 80.085413 262.890537 
L 81.725083 263.76341 
L 83.364752 264.398915 
L 85.004421 262.344991 
L 86.644091 261.67653 
L 88.28376 263.440536 
L 89.92343 263.252156 
L 91.563099 261.257462 
L 93.202769 261.942845 
L 94.842438 263.472155 
L 96.482107 262.33074 
L 98.121777 264.353936 
L 99.761446 260.311997 
L 101.401116 261.505073 
L 103.040785 264.391345 
L 104.680455 263.444989 
L 106.320124 264.579725 
L 107.959793 264.619806 
L 109.599463 263.560333 
L 111.239132 263.938875 
L 112.878802 259.316654 
L 114.518471 263.797701 
L 116.15814 262.948877 
L 117.79781 263.932195 
L 119.437479 263.147054 
L 122.716818 263.748714 
L 124.356488 261.719283 
L 125.996157 262.539606 
L 127.635826 263.5109 
L 129.275496 262.166408 
L 130.915165 262.561428 
L 132.554835 264.411385 
L 134.194504 262.33074 
L 137.473843 262.308027 
L 139.113512 263.67256 
L 140.753182 263.930414 
L 142.392851 262.845112 
L 144.032521 263.86762 
L 145.67219 263.681912 
L 147.31186 259.394589 
L 148.951529 263.415597 
L 150.591198 261.986044 
L 152.230868 263.499321 
L 153.870537 263.144828 
L 155.510207 261.726854 
L 157.149876 262.47325 
L 158.789545 262.370821 
L 160.429215 264.250171 
L 162.068884 259.533536 
L 163.708554 260.288839 
L 165.348223 264.38511 
L 166.987893 263.61422 
L 168.627562 264.223895 
L 171.906901 263.704625 
L 173.54657 264.299158 
L 175.18624 263.153289 
L 178.465579 264.308065 
L 180.105248 264.075151 
L 183.384587 264.603328 
L 185.024256 261.603494 
L 186.663926 263.057095 
L 188.303595 261.063292 
L 189.943264 264.104543 
L 191.582934 262.938634 
L 193.222603 264.096527 
L 194.862273 264.381992 
L 196.501942 262.966245 
L 198.141612 263.217864 
L 201.42095 262.202035 
L 203.06062 262.911022 
L 204.700289 264.077823 
L 206.339959 261.775842 
L 207.979628 264.0609 
L 209.619298 262.550294 
L 211.258967 258.935885 
L 212.898636 263.097176 
L 214.538306 263.898349 
L 216.177975 262.735112 
L 217.817645 264.571709 
L 219.457314 264.328106 
L 221.096983 263.889442 
L 222.736653 264.39179 
L 224.376322 262.829079 
L 226.015992 262.165072 
L 227.655661 264.137053 
L 229.295331 264.198511 
L 230.935 264.10677 
L 232.574669 263.58839 
L 234.214339 262.921711 
L 235.854008 264.457701 
L 239.133347 264.064017 
L 240.773017 263.609321 
L 242.412686 261.274385 
L 244.052355 261.09402 
L 245.692025 264.072033 
L 247.331694 263.74426 
L 248.971364 261.927258 
L 250.611033 263.233451 
L 252.250702 262.052845 
L 253.890372 264.245717 
L 255.530041 263.690819 
L 258.80938 263.587054 
L 260.44905 264.403369 
L 262.088719 264.389118 
L 263.728388 263.303815 
L 265.368058 263.595961 
L 267.007727 264.328106 
L 268.647397 264.447012 
L 270.287066 263.053087 
L 271.926736 264.306284 
L 273.566405 264.151304 
L 275.206074 261.935275 
L 276.845744 264.538308 
L 278.485413 264.310737 
L 280.125083 263.714868 
L 281.764752 262.377946 
L 283.404421 262.505314 
L 285.044091 264.347701 
L 286.68376 263.400455 
L 288.32343 261.464101 
L 289.963099 264.597984 
L 291.602769 264.413166 
L 293.242438 263.938875 
L 294.882107 259.668921 
L 296.521777 263.902803 
L 298.161446 264.475514 
L 299.801116 263.794139 
L 301.440785 261.622198 
L 303.080455 263.440536 
L 304.720124 264.198956 
L 306.359793 264.255515 
L 307.999463 263.260617 
L 309.639132 264.447458 
L 311.278802 262.147258 
L 312.918471 249.173953 
L 314.55814 263.880981 
L 316.19781 264.243936 
L 317.837479 254.891275 
L 319.477149 264.316972 
L 321.116818 263.884098 
L 322.756488 263.819523 
L 324.396157 263.230334 
L 326.035826 261.012968 
L 327.675496 259.980216 
L 329.315165 253.769009 
L 330.954835 263.292236 
L 332.594504 262.38329 
L 334.234174 254.081195 
L 335.873843 263.717094 
L 337.513512 263.046407 
L 339.153182 263.347459 
L 340.792851 263.850252 
L 342.432521 264.161547 
L 344.07219 263.869402 
L 345.71186 260.035884 
L 347.351529 264.279118 
L 350.630868 263.245921 
L 352.270537 262.477258 
L 353.910207 263.117216 
L 355.549876 264.297377 
L 360.468884 264.381547 
L 362.108554 264.078268 
L 363.748223 260.964871 
L 365.387893 264.145069 
L 367.027562 264.205636 
L 368.667231 264.135272 
L 370.306901 264.508025 
L 371.94657 264.175353 
L 373.58624 264.46349 
L 375.225909 262.750699 
L 376.865579 262.904342 
L 378.505248 261.80657 
L 380.144917 262.863371 
L 381.784587 264.377984 
L 383.424256 264.191831 
L 383.424256 264.191831 
" style="fill:none;stroke:#1f77b4;stroke-linecap:square;stroke-width:0.5;"/>
   </g>
   <g id="line2d_17">
    <path clip-path="url(#pca83d44cad)" d="M 68.607727 264.241264 
L 70.247397 263.807944 
L 71.887066 264.514705 
L 73.526736 263.98341 
L 75.166405 263.106083 
L 76.806074 264.154422 
L 78.445744 264.282235 
L 80.085413 263.715313 
L 81.725083 264.168227 
L 83.364752 263.358593 
L 85.004421 264.258187 
L 86.644091 264.07426 
L 88.28376 263.656082 
L 89.92343 263.820414 
L 91.563099 264.273774 
L 94.842438 264.645636 
L 96.482107 264.018147 
L 98.121777 264.008349 
L 99.761446 264.569927 
L 101.401116 262.903897 
L 103.040785 259.426654 
L 104.680455 263.664544 
L 106.320124 263.876973 
L 107.959793 264.342357 
L 109.599463 263.503775 
L 111.239132 263.875637 
L 112.878802 261.63734 
L 114.518471 263.524706 
L 116.15814 264.120576 
L 117.79781 263.791912 
L 119.437479 264.227903 
L 121.077149 263.884543 
L 124.356488 264.23013 
L 127.635826 263.760738 
L 129.275496 264.174908 
L 130.915165 263.802155 
L 134.194504 264.149968 
L 135.834174 264.115231 
L 137.473843 263.326973 
L 139.113512 263.659645 
L 140.753182 264.47685 
L 142.392851 264.567255 
L 144.032521 264.027053 
L 147.31186 264.100535 
L 148.951529 264.292033 
L 150.591198 263.482398 
L 152.230868 264.012357 
L 153.870537 264.047539 
L 155.510207 263.923734 
L 157.149876 264.235029 
L 158.789545 263.226326 
L 160.429215 263.098512 
L 162.068884 264.435879 
L 163.708554 262.055072 
L 165.348223 263.66588 
L 166.987893 263.416487 
L 168.627562 263.718876 
L 170.267231 263.55588 
L 171.906901 263.832884 
L 178.465579 263.726892 
L 180.105248 262.601509 
L 181.744917 263.576811 
L 185.024256 261.473453 
L 186.663926 263.801264 
L 188.303595 263.534058 
L 189.943264 264.409604 
L 191.582934 263.996325 
L 193.222603 261.75491 
L 194.862273 263.779442 
L 196.501942 263.83422 
L 198.141612 263.266407 
L 199.781281 264.011912 
L 201.42095 263.772317 
L 203.06062 263.312722 
L 204.700289 262.346327 
L 206.339959 263.692155 
L 207.979628 262.867824 
L 209.619298 264.52183 
L 212.898636 264.201183 
L 214.538306 264.134381 
L 216.177975 262.580132 
L 217.817645 264.36596 
L 219.457314 263.966041 
L 221.096983 263.314949 
L 222.736653 264.259077 
L 224.376322 264.557458 
L 226.015992 261.272603 
L 227.655661 264.102762 
L 229.295331 264.321871 
L 230.935 262.043938 
L 232.574669 264.525838 
L 234.214339 263.469483 
L 235.854008 264.241264 
L 237.493678 262.701711 
L 239.133347 263.429848 
L 240.773017 262.666974 
L 242.412686 262.153938 
L 244.052355 264.562802 
L 245.692025 263.77677 
L 247.331694 263.918835 
L 248.971364 263.005881 
L 252.250702 262.897217 
L 253.890372 264.29515 
L 255.530041 264.252843 
L 257.169711 264.419847 
L 258.80938 263.528269 
L 260.44905 263.858714 
L 262.088719 262.016327 
L 263.728388 264.154422 
L 265.368058 263.164868 
L 267.007727 262.332521 
L 268.647397 264.43677 
L 270.287066 264.442559 
L 271.926736 263.990535 
L 273.566405 263.825758 
L 275.206074 262.888755 
L 276.845744 263.771872 
L 278.485413 263.864058 
L 280.125083 264.247944 
L 281.764752 264.039523 
L 283.404421 264.496 
L 285.044091 264.253733 
L 286.68376 263.791467 
L 288.32343 263.971831 
L 289.963099 263.579928 
L 291.602769 264.109887 
L 293.242438 264.477741 
L 294.882107 264.328996 
L 296.521777 263.882317 
L 298.161446 264.32766 
L 299.801116 263.628026 
L 301.440785 264.247499 
L 303.080455 263.582601 
L 304.720124 263.684584 
L 306.359793 264.579725 
L 307.999463 264.084503 
L 309.639132 263.778552 
L 311.278802 264.59932 
L 312.918471 263.624463 
L 314.55814 264.097863 
L 316.19781 264.297377 
L 317.837479 263.73758 
L 319.477149 264.255515 
L 321.116818 264.123693 
L 322.756488 263.825758 
L 324.396157 263.093168 
L 326.035826 264.408713 
L 327.675496 263.761183 
L 329.315165 263.259281 
L 330.954835 264.121466 
L 332.594504 263.764746 
L 334.234174 263.851588 
L 335.873843 264.078268 
L 337.513512 263.998997 
L 339.153182 264.059118 
L 340.792851 263.26418 
L 342.432521 263.471265 
L 344.07219 262.499525 
L 345.71186 263.573248 
L 347.351529 264.124138 
L 348.991198 263.915272 
L 350.630868 263.942883 
L 352.270537 262.872277 
L 353.910207 264.426527 
L 355.549876 262.942642 
L 357.189545 264.524502 
L 358.829215 264.307175 
L 360.468884 264.346365 
L 362.108554 263.480171 
L 363.748223 263.360374 
L 365.387893 263.598188 
L 368.667231 263.845799 
L 370.306901 264.114341 
L 371.94657 263.711305 
L 373.58624 262.857581 
L 375.225909 263.551426 
L 376.865579 264.477741 
L 378.505248 264.157539 
L 380.144917 264.253288 
L 381.784587 264.067134 
L 383.424256 263.488188 
L 385.063926 264.202519 
L 386.703595 264.509806 
L 386.703595 264.509806 
" style="fill:none;stroke:#ff7f0e;stroke-linecap:square;stroke-width:0.5;"/>
   </g>
   <g id="line2d_18">
    <path clip-path="url(#pca83d44cad)" d="M 68.607727 262.914585 
L 70.247397 264.282235 
L 71.887066 254.518077 
L 73.526736 260.420216 
L 75.166405 238.20514 
L 76.806074 258.683375 
L 78.445744 263.533613 
L 80.085413 262.650496 
L 81.725083 262.581023 
L 83.364752 227.878513 
L 85.004421 263.002763 
L 86.644091 263.74337 
L 88.28376 262.911468 
L 89.92343 264.063126 
L 91.563099 264.389118 
L 93.202769 263.868066 
L 94.842438 263.770981 
L 96.482107 248.857759 
L 98.121777 256.924268 
L 99.761446 264.368187 
L 101.401116 261.918797 
L 103.040785 262.267501 
L 104.680455 238.022995 
L 106.320124 256.979491 
L 107.959793 246.534847 
L 109.599463 263.078472 
L 111.239132 264.241264 
L 112.878802 255.221274 
L 114.518471 263.860495 
L 116.15814 227.152603 
L 117.79781 256.501637 
L 119.437479 255.306335 
L 121.077149 259.615034 
L 122.716818 231.038671 
L 124.356488 262.426043 
L 125.996157 232.183204 
L 127.635826 263.584382 
L 129.275496 263.012561 
L 130.915165 256.140018 
L 132.554835 227.018554 
L 134.194504 257.768194 
L 135.834174 262.929727 
L 137.473843 255.611395 
L 139.113512 258.002445 
L 140.753182 259.13629 
L 142.392851 257.002649 
L 144.032521 255.887508 
L 145.67219 257.003539 
L 147.31186 237.261457 
L 148.951529 262.571671 
L 150.591198 263.000982 
L 152.230868 217.340347 
L 153.870537 193.664545 
L 155.510207 259.830135 
L 157.149876 251.838444 
L 158.789545 261.749566 
L 160.429215 259.679164 
L 162.068884 257.407911 
L 163.708554 257.526818 
L 165.348223 255.304108 
L 166.987893 239.065544 
L 168.627562 262.937298 
L 170.267231 258.736371 
L 171.906901 258.831675 
L 173.54657 263.107419 
L 175.18624 262.337865 
L 176.825909 248.727274 
L 178.465579 256.898884 
L 180.105248 229.15175 
L 181.744917 255.747225 
L 183.384587 255.791314 
L 185.024256 229.785919 
L 186.663926 228.495314 
L 188.303595 263.137702 
L 189.943264 264.215879 
L 191.582934 232.665957 
L 193.222603 226.326936 
L 194.862273 262.435841 
L 196.501942 255.522772 
L 198.141612 220.430141 
L 199.781281 256.068763 
L 201.42095 254.392935 
L 203.06062 109.927032 
L 204.700289 255.052934 
L 206.339959 224.17459 
L 207.979628 222.415928 
L 209.619298 225.955519 
L 211.258967 227.779647 
L 212.898636 262.917257 
L 214.538306 262.195355 
L 216.177975 256.643256 
L 217.817645 255.086335 
L 219.457314 262.219404 
L 221.096983 255.504067 
L 222.736653 257.092163 
L 224.376322 255.517873 
L 226.015992 233.067211 
L 227.655661 255.777954 
L 229.295331 263.167986 
L 230.935 256.563985 
L 232.574669 262.581913 
L 234.214339 233.671988 
L 235.854008 263.159524 
L 237.493678 227.776084 
L 239.133347 257.842121 
L 240.773017 233.730773 
L 242.412686 262.967136 
L 244.052355 255.944067 
L 245.692025 255.393622 
L 247.331694 222.40524 
L 248.971364 226.32649 
L 250.611033 233.224863 
L 252.250702 262.206934 
L 253.890372 262.741792 
L 255.530041 257.338883 
L 257.169711 224.675602 
L 258.80938 230.811991 
L 260.44905 231.317456 
L 262.088719 225.149447 
L 263.728388 227.396206 
L 265.368058 229.194503 
L 267.007727 262.140578 
L 268.647397 225.090216 
L 270.287066 256.639248 
L 271.926736 236.35741 
L 273.566405 231.10191 
L 275.206074 257.50945 
L 276.845744 255.493825 
L 278.485413 256.392973 
L 280.125083 233.102839 
L 281.764752 242.603354 
L 283.404421 238.348096 
L 285.044091 232.69045 
L 286.68376 256.396536 
L 288.32343 233.826967 
L 289.963099 256.095929 
L 291.602769 257.423053 
L 293.242438 255.002611 
L 294.882107 235.147857 
L 296.521777 263.554544 
L 298.161446 229.815757 
L 299.801116 256.191233 
L 301.440785 258.843699 
L 303.080455 256.250018 
L 304.720124 254.887267 
L 306.359793 256.882406 
L 307.999463 237.117611 
L 309.639132 262.418472 
L 311.278802 231.832273 
L 312.918471 238.555626 
L 314.55814 220.8118 
L 316.19781 227.277299 
L 317.837479 254.891275 
L 319.477149 262.190456 
L 321.116818 223.684267 
L 322.756488 255.276497 
L 324.396157 255.880383 
L 326.035826 231.767253 
L 327.675496 236.047005 
L 329.315165 258.220663 
L 330.954835 227.798351 
L 332.594504 256.605402 
L 334.234174 264.2426 
L 335.873843 262.717743 
L 337.513512 256.902446 
L 339.153182 222.936089 
L 340.792851 259.270338 
L 342.432521 233.081908 
L 344.07219 259.977989 
L 345.71186 263.351467 
L 347.351529 260.920782 
L 350.630868 262.951994 
L 352.270537 260.959527 
L 353.910207 256.798681 
L 355.549876 257.606089 
L 357.189545 257.110422 
L 358.829215 256.041597 
L 360.468884 262.33831 
L 362.108554 235.070367 
L 363.748223 262.989403 
L 365.387893 262.561428 
L 367.027562 257.069896 
L 368.667231 242.339265 
L 370.306901 258.169449 
L 371.94657 256.147589 
L 373.58624 262.950213 
L 375.225909 258.211311 
L 376.865579 256.533702 
L 378.505248 263.2575 
L 380.144917 258.433983 
L 381.784587 263.098512 
L 383.424256 232.853001 
L 383.424256 232.853001 
" style="fill:none;stroke:#2ca02c;stroke-linecap:square;stroke-width:0.5;"/>
   </g>
   <g id="line2d_19">
    <path clip-path="url(#pca83d44cad)" d="M 68.607727 246.35003 
L 70.247397 263.411589 
L 71.887066 240.036393 
L 73.526736 224.776695 
L 75.166405 264.021264 
L 76.806074 263.550981 
L 78.445744 264.121912 
L 80.085413 253.852288 
L 81.725083 260.96398 
L 83.364752 261.48815 
L 85.004421 262.833978 
L 86.644091 263.661426 
L 88.28376 263.542965 
L 89.92343 261.73487 
L 91.563099 258.339125 
L 93.202769 262.637136 
L 96.482107 263.860495 
L 98.121777 263.123451 
L 99.761446 264.090292 
L 101.401116 264.374867 
L 103.040785 262.864707 
L 106.320124 263.794139 
L 107.959793 264.12592 
L 109.599463 258.886452 
L 111.239132 263.932195 
L 112.878802 264.064908 
L 114.518471 264.530737 
L 116.15814 264.187377 
L 117.79781 264.67681 
L 119.437479 263.677459 
L 121.077149 264.370859 
L 122.716818 264.544988 
L 124.356488 264.062236 
L 125.996157 264.019037 
L 127.635826 264.482195 
L 129.275496 262.722197 
L 130.915165 259.905398 
L 132.554835 264.606891 
L 134.194504 263.781669 
L 135.834174 264.275555 
L 137.473843 264.580616 
L 139.113512 263.405354 
L 140.753182 262.646934 
L 142.392851 263.88009 
L 144.032521 262.619322 
L 145.67219 264.293369 
L 147.31186 262.687905 
L 148.951529 262.459444 
L 150.591198 263.422722 
L 152.230868 263.62758 
L 153.870537 262.65495 
L 155.510207 263.894786 
L 157.149876 263.67924 
L 158.789545 263.198269 
L 160.429215 254.600911 
L 162.068884 263.956689 
L 163.708554 264.380656 
L 165.348223 250.676543 
L 166.987893 264.283126 
L 168.627562 262.022117 
L 170.267231 260.323131 
L 171.906901 263.307378 
L 173.54657 251.865165 
L 175.18624 198.612312 
L 176.825909 263.994989 
L 178.465579 263.429848 
L 180.105248 262.511994 
L 181.744917 259.411067 
L 183.384587 264.398915 
L 185.024256 243.158697 
L 186.663926 252.571034 
L 188.303595 256.370706 
L 189.943264 256.468236 
L 191.582934 262.066206 
L 193.222603 264.486648 
L 194.862273 261.673412 
L 196.501942 264.483531 
L 198.141612 264.215434 
L 199.781281 254.33415 
L 201.42095 260.12139 
L 203.06062 262.597946 
L 204.700289 263.544746 
L 206.339959 228.42584 
L 207.979628 227.988958 
L 209.619298 258.395238 
L 211.258967 263.889888 
L 212.898636 236.506155 
L 214.538306 243.768818 
L 216.177975 249.76537 
L 217.817645 258.681594 
L 219.457314 263.007662 
L 221.096983 263.067783 
L 222.736653 202.364332 
L 224.376322 257.321515 
L 226.015992 263.424504 
L 227.655661 233.879073 
L 229.295331 262.655395 
L 230.935 260.943494 
L 232.574669 252.430306 
L 234.214339 264.287134 
L 235.854008 255.545039 
L 237.493678 243.458414 
L 239.133347 260.822806 
L 240.773017 245.793795 
L 242.412686 263.96426 
L 244.052355 218.219901 
L 245.692025 260.140985 
L 248.971364 261.279729 
L 250.611033 263.914382 
L 252.250702 264.123693 
L 253.890372 250.931279 
L 255.530041 251.817513 
L 257.169711 260.874021 
L 258.80938 259.863536 
L 260.44905 261.012968 
L 262.088719 264.014584 
L 263.728388 264.617579 
L 265.368058 264.715109 
L 267.007727 263.670333 
L 268.647397 262.809929 
L 270.287066 264.529846 
L 271.926736 264.716 
L 273.566405 264.706202 
L 275.206074 261.503737 
L 276.845744 241.491776 
L 278.485413 257.809166 
L 280.125083 257.30281 
L 281.764752 238.300889 
L 283.404421 258.161878 
L 285.044091 145.599945 
L 286.68376 238.108055 
L 288.32343 260.51062 
L 289.963099 236.565831 
L 291.602769 240.750724 
L 293.242438 259.085966 
L 294.882107 257.239572 
L 296.521777 236.98 
L 298.161446 233.406563 
L 299.801116 236.886923 
L 301.440785 239.340767 
L 303.080455 251.873181 
L 304.720124 197.779965 
L 306.359793 237.203563 
L 307.999463 258.508801 
L 309.639132 257.671109 
L 311.278802 259.299731 
L 312.918471 242.139751 
L 314.55814 238.309796 
L 316.19781 259.101998 
L 317.837479 244.258251 
L 319.477149 243.624527 
L 321.116818 244.138899 
L 322.756488 238.051497 
L 324.396157 172.46129 
L 326.035826 168.000729 
L 327.675496 260.047463 
L 329.315165 234.607209 
L 330.954835 242.531654 
L 332.594504 244.741003 
L 334.234174 235.945912 
L 335.873843 248.569177 
L 337.513512 187.620787 
L 339.153182 258.208639 
L 340.792851 126.734299 
L 342.432521 127.569764 
L 344.07219 233.433729 
L 345.71186 259.12382 
L 347.351529 256.298115 
L 348.991198 233.136239 
L 350.630868 257.76196 
L 352.270537 242.342828 
L 353.910207 264.135272 
L 355.549876 263.78924 
L 357.189545 264.521385 
L 358.829215 261.923696 
L 360.468884 264.581952 
L 362.108554 263.506001 
L 363.748223 264.346365 
L 365.387893 264.282681 
L 367.027562 261.541145 
L 368.667231 261.791429 
L 370.306901 262.174424 
L 371.94657 263.585718 
L 373.58624 264.279118 
L 375.225909 263.343006 
L 378.505248 263.771426 
L 380.144917 262.455881 
L 381.784587 264.23013 
L 383.424256 263.883207 
L 385.063926 264.412276 
L 385.063926 264.412276 
" style="fill:none;stroke:#d62728;stroke-linecap:square;stroke-width:0.5;"/>
   </g>
   <g id="line2d_20">
    <path clip-path="url(#pca83d44cad)" d="M 68.607727 264.57349 
L 70.247397 263.690374 
L 71.887066 263.962924 
L 73.526736 264.418065 
L 75.166405 263.943774 
L 76.806074 263.086488 
L 78.445744 261.737987 
L 80.085413 262.192683 
L 81.725083 262.005639 
L 83.364752 262.237663 
L 85.004421 261.579445 
L 86.644091 263.555435 
L 88.28376 262.552966 
L 89.92343 264.434097 
L 91.563099 263.572358 
L 93.202769 264.143733 
L 94.842438 263.826203 
L 96.482107 263.941993 
L 98.121777 263.240131 
L 99.761446 264.199847 
L 101.401116 264.284907 
L 103.040785 264.570373 
L 104.680455 264.55345 
L 106.320124 264.221223 
L 107.959793 263.658309 
L 109.599463 263.632034 
L 111.239132 264.024381 
L 112.878802 263.071791 
L 114.518471 263.292682 
L 116.15814 262.634464 
L 117.79781 263.42673 
L 119.437479 263.105638 
L 121.077149 263.870738 
L 122.716818 262.817946 
L 124.356488 263.826649 
L 125.996157 263.900131 
L 127.635826 264.126365 
L 129.275496 264.007904 
L 130.915165 262.846448 
L 132.554835 263.171103 
L 134.194504 263.925515 
L 135.834174 263.666325 
L 137.473843 263.548309 
L 139.113512 261.819485 
L 140.753182 263.132803 
L 142.392851 263.697054 
L 144.032521 263.120779 
L 145.67219 263.022358 
L 148.951529 264.228349 
L 150.591198 262.464788 
L 152.230868 263.001872 
L 153.870537 263.865394 
L 155.510207 263.153735 
L 157.149876 264.526729 
L 158.789545 262.42159 
L 160.429215 263.714422 
L 162.068884 262.638027 
L 163.708554 263.844908 
L 165.348223 263.263734 
L 166.987893 264.610899 
L 168.627562 263.280212 
L 170.267231 264.29426 
L 173.54657 263.404908 
L 175.18624 263.967377 
L 176.825909 263.820414 
L 178.465579 262.950213 
L 180.105248 261.872481 
L 181.744917 263.428512 
L 183.384587 263.358147 
L 185.024256 264.163329 
L 186.663926 263.278876 
L 188.303595 263.937985 
L 189.943264 263.454787 
L 191.582934 263.884989 
L 193.222603 263.756285 
L 194.862273 264.35349 
L 196.501942 264.081385 
L 198.141612 264.234138 
L 199.781281 263.34835 
L 203.06062 263.72422 
L 204.700289 264.390454 
L 206.339959 263.922398 
L 207.979628 263.921062 
L 209.619298 264.33345 
L 211.258967 264.126365 
L 214.538306 264.312073 
L 216.177975 263.84179 
L 217.817645 263.673896 
L 219.457314 263.171103 
L 221.096983 263.440536 
L 222.736653 263.930859 
L 224.376322 263.288674 
L 226.015992 264.487539 
L 227.655661 263.719766 
L 229.295331 263.994989 
L 230.935 262.063088 
L 232.574669 264.03596 
L 234.214339 263.93175 
L 235.854008 264.072478 
L 237.493678 262.679889 
L 239.133347 263.70507 
L 240.773017 263.616447 
L 242.412686 264.33345 
L 244.052355 264.461709 
L 247.331694 264.345474 
L 248.971364 263.364827 
L 250.611033 263.648957 
L 252.250702 263.253492 
L 253.890372 263.956244 
L 258.80938 263.876527 
L 260.44905 263.909928 
L 262.088719 263.393775 
L 263.728388 263.926406 
L 265.368058 263.391103 
L 267.007727 262.628229 
L 268.647397 264.452357 
L 271.926736 263.365718 
L 273.566405 262.369485 
L 275.206074 264.086729 
L 276.845744 264.096082 
L 278.485413 262.312481 
L 281.764752 263.122561 
L 283.404421 264.37843 
L 285.044091 263.534503 
L 286.68376 263.515354 
L 288.32343 264.244381 
L 289.963099 263.614665 
L 293.242438 263.329645 
L 294.882107 264.514705 
L 296.521777 263.620009 
L 298.161446 264.059118 
L 299.801116 262.644707 
L 301.440785 264.167782 
L 303.080455 263.457014 
L 304.720124 263.933531 
L 306.359793 263.684139 
L 307.999463 263.830212 
L 309.639132 263.823977 
L 311.278802 264.247944 
L 312.918471 264.375312 
L 314.55814 262.870941 
L 316.19781 264.558348 
L 317.837479 264.273774 
L 319.477149 263.547418 
L 321.116818 264.418065 
L 322.756488 264.152195 
L 324.396157 264.633611 
L 326.035826 263.621791 
L 327.675496 263.38086 
L 329.315165 264.056891 
L 330.954835 263.799483 
L 332.594504 263.811062 
L 334.234174 263.05754 
L 335.873843 263.622236 
L 337.513512 263.946892 
L 340.792851 263.404908 
L 342.432521 264.57928 
L 344.07219 263.996325 
L 345.71186 264.250171 
L 347.351529 262.278634 
L 348.991198 263.792803 
L 350.630868 263.890778 
L 352.270537 263.799483 
L 353.910207 262.957338 
L 355.549876 263.661426 
L 357.189545 263.609766 
L 358.829215 263.323856 
L 360.468884 264.496891 
L 362.108554 264.030171 
L 363.748223 263.418714 
L 365.387893 262.655395 
L 367.027562 263.710859 
L 368.667231 263.95758 
L 370.306901 263.579038 
L 371.94657 264.497782 
L 373.58624 263.579928 
L 375.225909 264.399361 
L 376.865579 264.126365 
L 378.505248 263.535394 
L 380.144917 264.513369 
L 381.784587 263.814179 
L 383.424256 263.69171 
L 385.063926 263.910373 
L 386.703595 263.596852 
L 386.703595 263.596852 
" style="fill:none;stroke:#9467bd;stroke-linecap:square;stroke-width:0.5;"/>
   </g>
   <g id="line2d_21">
    <path clip-path="url(#pca83d44cad)" d="M 68.607727 264.48932 
L 70.247397 264.67013 
L 73.526736 264.4243 
L 75.166405 263.642722 
L 76.806074 263.940657 
L 78.445744 262.697257 
L 80.085413 264.089402 
L 81.725083 253.004354 
L 83.364752 252.257067 
L 85.004421 264.511142 
L 86.644091 263.396002 
L 88.28376 264.440332 
L 89.92343 264.287134 
L 91.563099 262.222966 
L 93.202769 263.824867 
L 94.842438 264.27511 
L 96.482107 264.265312 
L 98.121777 264.076932 
L 99.761446 262.781873 
L 101.401116 262.409565 
L 103.040785 262.492845 
L 104.680455 263.144382 
L 106.320124 264.530737 
L 107.959793 259.500581 
L 109.599463 263.632479 
L 111.239132 260.470094 
L 112.878802 264.523612 
L 114.518471 264.116122 
L 116.15814 262.984949 
L 117.79781 263.534058 
L 119.437479 264.302276 
L 121.077149 263.880535 
L 122.716818 262.168635 
L 124.356488 264.111669 
L 125.996157 264.284017 
L 127.635826 261.137664 
L 129.275496 262.389525 
L 130.915165 264.074705 
L 132.554835 264.062236 
L 134.194504 264.487984 
L 135.834174 261.15147 
L 137.473843 264.144624 
L 139.113512 262.53916 
L 140.753182 264.034624 
L 142.392851 262.375719 
L 144.032521 264.309401 
L 145.67219 260.345398 
L 147.31186 264.602883 
L 148.951529 263.137702 
L 150.591198 263.791912 
L 152.230868 261.445842 
L 153.870537 261.081996 
L 157.149876 264.005232 
L 158.789545 263.768754 
L 160.429215 264.241709 
L 162.068884 263.994543 
L 163.708554 264.497336 
L 165.348223 263.695718 
L 166.987893 264.174908 
L 168.627562 262.916366 
L 170.267231 263.032601 
L 171.906901 264.352154 
L 173.54657 263.057095 
L 175.18624 264.400251 
L 176.825909 261.895639 
L 178.465579 263.268633 
L 180.105248 258.799165 
L 181.744917 264.520049 
L 183.384587 264.116122 
L 185.024256 262.233655 
L 186.663926 263.680576 
L 189.943264 264.631385 
L 191.582934 263.427621 
L 193.222603 259.414184 
L 194.862273 263.384868 
L 196.501942 259.83637 
L 199.781281 264.32766 
L 201.42095 261.457421 
L 203.06062 261.441834 
L 204.700289 261.111389 
L 206.339959 264.52851 
L 207.979628 264.29515 
L 209.619298 261.620862 
L 211.258967 261.911671 
L 212.898636 263.028148 
L 214.538306 261.740659 
L 216.177975 261.058838 
L 217.817645 257.880421 
L 219.457314 263.538512 
L 221.096983 262.952439 
L 222.736653 263.0375 
L 224.376322 264.202519 
L 226.015992 262.820172 
L 227.655661 263.029929 
L 229.295331 263.531386 
L 230.935 261.283737 
L 232.574669 263.201386 
L 234.214339 263.868066 
L 235.854008 264.355272 
L 237.493678 262.011428 
L 239.133347 263.27754 
L 240.773017 262.432723 
L 242.412686 262.198473 
L 244.052355 262.640253 
L 245.692025 264.446567 
L 247.331694 264.437215 
L 248.971364 263.786123 
L 250.611033 263.333208 
L 253.890372 264.581506 
L 255.530041 261.395518 
L 258.80938 264.113005 
L 260.44905 262.697257 
L 262.088719 263.043735 
L 263.728388 263.920616 
L 265.368058 263.041063 
L 267.007727 263.485516 
L 268.647397 262.368148 
L 270.287066 262.882075 
L 271.926736 260.204669 
L 273.566405 263.260172 
L 275.206074 264.341021 
L 276.845744 262.841103 
L 278.485413 264.284907 
L 280.125083 262.069323 
L 281.764752 263.164423 
L 283.404421 263.56835 
L 285.044091 262.141469 
L 286.68376 263.311832 
L 288.32343 261.862684 
L 289.963099 264.212762 
L 291.602769 262.394424 
L 293.242438 264.323207 
L 294.882107 264.12681 
L 296.521777 262.905233 
L 298.161446 264.134827 
L 299.801116 264.308511 
L 301.440785 260.906085 
L 303.080455 263.909928 
L 304.720124 263.939766 
L 306.359793 262.780982 
L 307.999463 264.591304 
L 309.639132 264.145069 
L 311.278802 263.116326 
L 312.918471 261.567866 
L 314.55814 262.754707 
L 316.19781 264.192276 
L 321.116818 263.009443 
L 322.756488 261.734425 
L 324.396157 262.353898 
L 326.035826 264.011466 
L 327.675496 262.582804 
L 329.315165 263.157743 
L 330.954835 261.876044 
L 332.594504 263.744706 
L 334.234174 264.437215 
L 335.873843 263.201386 
L 337.513512 261.778959 
L 339.153182 260.71815 
L 340.792851 263.576366 
L 342.432521 263.548309 
L 344.07219 264.336567 
L 345.71186 264.088066 
L 347.351529 262.005193 
L 348.991198 263.003654 
L 350.630868 262.183776 
L 352.270537 264.257296 
L 353.910207 264.380656 
L 355.549876 261.552279 
L 357.189545 262.813492 
L 358.829215 260.915883 
L 360.468884 263.466366 
L 362.108554 263.024585 
L 363.748223 264.625595 
L 365.387893 259.95884 
L 367.027562 263.962033 
L 368.667231 262.789444 
L 370.306901 262.859362 
L 371.94657 264.279563 
L 373.58624 261.245883 
L 375.225909 264.397579 
L 376.865579 261.140782 
L 378.505248 262.375274 
L 380.144917 261.41734 
L 381.784587 262.812601 
L 383.424256 262.999646 
L 385.063926 262.856245 
L 388.343264 264.148632 
L 389.982934 264.137499 
L 389.982934 264.137499 
" style="fill:none;stroke:#8c564b;stroke-linecap:square;stroke-width:0.5;"/>
   </g>
   <g id="line2d_22">
    <path clip-path="url(#pca83d44cad)" d="M 68.607727 262.877622 
L 70.247397 259.703658 
L 71.887066 260.89228 
L 73.526736 263.766082 
L 75.166405 262.801468 
L 76.806074 264.205191 
L 78.445744 264.053329 
L 80.085413 264.465272 
L 81.725083 262.802804 
L 83.364752 261.332725 
L 85.004421 263.254382 
L 86.644091 257.475158 
L 88.28376 261.447178 
L 89.92343 263.025921 
L 91.563099 264.447012 
L 93.202769 263.003208 
L 96.482107 262.731104 
L 98.121777 264.21098 
L 101.401116 264.227458 
L 103.040785 264.238592 
L 104.680455 262.618877 
L 106.320124 261.913007 
L 107.959793 264.416729 
L 109.599463 262.235881 
L 111.239132 260.577867 
L 112.878802 264.246608 
L 114.518471 263.280212 
L 116.15814 262.872277 
L 117.79781 263.165314 
L 119.437479 261.321146 
L 121.077149 192.43317 
L 122.716818 247.265656 
L 124.356488 261.666287 
L 125.996157 263.758066 
L 127.635826 262.713735 
L 129.275496 263.996325 
L 130.915165 246.482297 
L 132.554835 262.268837 
L 134.194504 264.239928 
L 135.834174 264.011021 
L 137.473843 246.734361 
L 139.113512 262.282643 
L 140.753182 259.258314 
L 142.392851 264.230575 
L 144.032521 262.511994 
L 145.67219 251.771643 
L 147.31186 263.153289 
L 148.951529 254.65836 
L 150.591198 263.518471 
L 152.230868 263.826649 
L 153.870537 261.840416 
L 155.510207 263.531831 
L 158.789545 264.12592 
L 160.429215 253.774798 
L 162.068884 261.962886 
L 163.708554 262.787662 
L 165.348223 263.786568 
L 166.987893 262.054181 
L 168.627562 262.611751 
L 170.267231 259.894265 
L 171.906901 264.475514 
L 173.54657 258.525724 
L 175.18624 263.398674 
L 176.825909 264.04175 
L 178.465579 261.014749 
L 180.105248 264.23681 
L 181.744917 264.438551 
L 185.024256 264.305393 
L 186.663926 264.051993 
L 188.303595 263.333653 
L 189.943264 264.33345 
L 191.582934 260.946166 
L 193.222603 261.839971 
L 194.862273 263.569686 
L 196.501942 264.190495 
L 198.141612 262.686569 
L 199.781281 263.82843 
L 201.42095 263.066447 
L 203.06062 263.68592 
L 204.700289 263.960697 
L 206.339959 264.401142 
L 207.979628 261.631105 
L 209.619298 263.794139 
L 211.258967 263.512682 
L 212.898636 264.092964 
L 214.538306 259.78382 
L 216.177975 262.515557 
L 217.817645 264.400251 
L 219.457314 264.328106 
L 221.096983 262.986731 
L 224.376322 262.951103 
L 226.015992 262.55831 
L 227.655661 264.369077 
L 229.295331 263.62758 
L 230.935 263.651183 
L 232.574669 262.203371 
L 234.214339 264.157539 
L 237.493678 264.01592 
L 239.133347 260.927462 
L 240.773017 263.004099 
L 242.412686 262.552521 
L 244.052355 263.995879 
L 245.692025 261.456975 
L 247.331694 263.991426 
L 248.971364 262.935071 
L 250.611033 263.555435 
L 252.250702 263.244139 
L 253.890372 263.121225 
L 255.530041 263.512236 
L 257.169711 259.445804 
L 258.80938 261.966003 
L 260.44905 264.046203 
L 262.088719 264.520939 
L 263.728388 264.438106 
L 265.368058 263.434746 
L 267.007727 264.61179 
L 268.647397 264.195393 
L 270.287066 262.54495 
L 271.926736 261.368797 
L 273.566405 262.714626 
L 275.206074 263.339888 
L 280.125083 264.182478 
L 281.764752 264.390899 
L 285.044091 261.867582 
L 286.68376 264.294705 
L 288.32343 264.393571 
L 289.963099 263.831548 
L 291.602769 263.777216 
L 294.882107 263.99009 
L 296.521777 264.569037 
L 298.161446 263.581264 
L 299.801116 263.555435 
L 301.440785 263.268188 
L 303.080455 264.365069 
L 304.720124 263.505111 
L 306.359793 263.797256 
L 307.999463 263.34256 
L 309.639132 264.375312 
L 311.278802 263.786568 
L 312.918471 262.098716 
L 314.55814 264.328551 
L 316.19781 262.971589 
L 317.837479 262.487946 
L 319.477149 264.289806 
L 321.116818 264.428308 
L 322.756488 264.32766 
L 324.396157 263.797256 
L 326.035826 264.512033 
L 327.675496 263.093613 
L 329.315165 263.998551 
L 330.954835 262.86248 
L 332.594504 262.809039 
L 334.234174 264.568591 
L 335.873843 262.164626 
L 337.513512 264.270656 
L 339.153182 263.176002 
L 340.792851 263.613329 
L 342.432521 264.571263 
L 344.07219 264.370859 
L 345.71186 263.782114 
L 347.351529 263.687702 
L 348.991198 261.238757 
L 350.630868 264.535636 
L 352.270537 264.217215 
L 353.910207 261.840416 
L 355.549876 261.67074 
L 357.189545 264.138835 
L 358.829215 262.604181 
L 360.468884 264.341911 
L 362.108554 264.658551 
L 363.748223 264.156648 
L 365.387893 262.991184 
L 367.027562 262.686569 
L 368.667231 263.445435 
L 370.306901 260.532442 
L 371.94657 261.743777 
L 373.58624 263.56924 
L 375.225909 259.373213 
L 375.225909 259.373213 
" style="fill:none;stroke:#e377c2;stroke-linecap:square;stroke-width:0.5;"/>
   </g>
   <g id="line2d_23">
    <path clip-path="url(#pca83d44cad)" d="M 68.607727 264.054219 
L 70.247397 263.261953 
L 71.887066 259.805196 
L 73.526736 260.406855 
L 75.166405 264.665231 
L 76.806074 246.976628 
L 78.445744 261.903655 
L 80.085413 260.017625 
L 81.725083 263.359038 
L 83.364752 264.391345 
L 85.004421 260.650013 
L 86.644091 261.381712 
L 88.28376 262.905233 
L 89.92343 261.486368 
L 91.563099 263.42584 
L 93.202769 264.114341 
L 94.842438 261.579 
L 96.482107 258.352485 
L 98.121777 262.708836 
L 99.761446 264.108551 
L 101.401116 263.883207 
L 103.040785 264.234138 
L 104.680455 264.087175 
L 106.320124 263.13414 
L 107.959793 264.396243 
L 109.599463 251.95557 
L 111.239132 258.955926 
L 112.878802 262.194464 
L 114.518471 264.47017 
L 116.15814 246.221771 
L 117.79781 254.697996 
L 119.437479 264.36017 
L 121.077149 264.135272 
L 122.716818 260.271025 
L 124.356488 263.852924 
L 125.996157 263.190253 
L 127.635826 262.111631 
L 129.275496 262.76495 
L 130.915165 263.680576 
L 132.554835 264.103653 
L 135.834174 259.674265 
L 137.473843 262.414464 
L 139.113512 263.304706 
L 140.753182 257.299693 
L 142.392851 263.500212 
L 144.032521 259.839487 
L 145.67219 261.373696 
L 147.31186 262.674545 
L 148.951529 254.129737 
L 150.591198 257.650624 
L 152.230868 262.88831 
L 153.870537 258.935885 
L 155.510207 259.719245 
L 157.149876 256.09014 
L 158.789545 260.833494 
L 160.429215 262.511994 
L 162.068884 261.318028 
L 163.708554 260.45896 
L 165.348223 262.79746 
L 166.987893 262.478148 
L 168.627562 264.247944 
L 170.267231 263.990981 
L 171.906901 263.858714 
L 173.54657 258.933213 
L 175.18624 259.065926 
L 176.825909 257.84702 
L 178.465579 264.222114 
L 180.105248 263.69171 
L 181.744917 264.544097 
L 183.384587 263.571022 
L 185.024256 264.438551 
L 186.663926 262.901225 
L 188.303595 263.347904 
L 189.943264 263.572358 
L 191.582934 263.571467 
L 193.222603 260.163698 
L 194.862273 264.502235 
L 196.501942 245.602743 
L 198.141612 260.667827 
L 199.781281 263.778552 
L 201.42095 263.812398 
L 203.06062 264.423409 
L 204.700289 262.869605 
L 206.339959 262.983613 
L 207.979628 264.390454 
L 209.619298 264.394017 
L 211.258967 256.673985 
L 212.898636 246.584726 
L 214.538306 212.893591 
L 216.177975 98.930607 
L 217.817645 259.518395 
L 219.457314 261.147907 
L 221.096983 238.732427 
L 222.736653 257.151393 
L 224.376322 222.043621 
L 226.015992 264.099199 
L 227.655661 259.722362 
L 229.295331 263.437864 
L 230.935 258.652647 
L 232.574669 258.597424 
L 234.214339 263.164423 
L 235.854008 264.238592 
L 237.493678 262.281752 
L 239.133347 254.542571 
L 240.773017 261.538919 
L 242.412686 262.736448 
L 244.052355 259.388354 
L 245.692025 260.448272 
L 247.331694 264.236365 
L 248.971364 264.270211 
L 250.611033 263.689038 
L 252.250702 255.221274 
L 253.890372 263.67256 
L 255.530041 243.490033 
L 257.169711 264.650534 
L 258.80938 250.680106 
L 260.44905 263.176447 
L 262.088719 260.591228 
L 263.728388 262.475922 
L 265.368058 250.682332 
L 267.007727 248.707679 
L 268.647397 261.984708 
L 270.287066 260.85309 
L 271.926736 258.308396 
L 273.566405 257.342001 
L 275.206074 258.340016 
L 276.845744 257.964146 
L 278.485413 264.232802 
L 280.125083 238.72263 
L 281.764752 262.901225 
L 283.404421 262.347217 
L 285.044091 261.17062 
L 286.68376 262.594828 
L 288.32343 263.290455 
L 289.963099 263.176002 
L 291.602769 255.853662 
L 293.242438 238.556071 
L 294.882107 263.995879 
L 296.521777 251.721319 
L 298.161446 261.324708 
L 299.801116 188.880218 
L 301.440785 238.955099 
L 303.080455 232.358224 
L 304.720124 263.333653 
L 306.359793 260.765802 
L 307.999463 215.71707 
L 309.639132 263.794584 
L 311.278802 259.891147 
L 312.918471 214.83039 
L 314.55814 256.715847 
L 316.19781 264.714664 
L 317.837479 264.715555 
L 319.477149 262.818836 
L 321.116818 187.000868 
L 322.756488 246.202621 
L 324.396157 238.333399 
L 326.035826 196.260453 
L 327.675496 254.238846 
L 329.315165 156.264143 
L 330.954835 218.803746 
L 332.594504 263.816851 
L 334.234174 132.115831 
L 335.873843 246.859503 
L 337.513512 251.065328 
L 339.153182 260.676288 
L 340.792851 256.193014 
L 342.432521 254.868117 
L 344.07219 257.682688 
L 345.71186 258.345805 
L 347.351529 263.273977 
L 348.991198 249.505289 
L 350.630868 264.332114 
L 352.270537 263.047743 
L 353.910207 264.252397 
L 355.549876 254.972327 
L 357.189545 252.772775 
L 358.829215 73.907641 
L 360.468884 264.066244 
L 362.108554 259.130946 
L 363.748223 216.335206 
L 365.387893 264.716 
L 367.027562 264.716 
L 368.667231 255.320586 
L 370.306901 264.622923 
L 371.94657 260.725721 
L 373.58624 249.922576 
L 375.225909 264.501344 
L 376.865579 251.355246 
L 378.505248 244.040032 
L 380.144917 259.95973 
L 381.784587 264.220333 
L 383.424256 250.781644 
L 385.063926 261.031672 
L 386.703595 261.744667 
L 386.703595 261.744667 
" style="fill:none;stroke:#7f7f7f;stroke-linecap:square;stroke-width:0.5;"/>
   </g>
   <g id="line2d_24">
    <path clip-path="url(#pca83d44cad)" d="M 68.607727 263.306933 
L 70.247397 264.56013 
L 71.887066 261.184425 
L 73.526736 264.591749 
L 75.166405 264.195393 
L 76.806074 264.345029 
L 78.445744 264.225231 
L 80.085413 264.331223 
L 81.725083 264.240373 
L 83.364752 264.460373 
L 85.004421 262.713735 
L 86.644091 264.226567 
L 88.28376 263.912155 
L 89.92343 262.573897 
L 91.563099 263.49175 
L 93.202769 264.14596 
L 94.842438 261.96244 
L 96.482107 264.552114 
L 98.121777 263.986082 
L 99.761446 264.569037 
L 103.040785 264.592194 
L 104.680455 264.256851 
L 106.320124 264.336567 
L 107.959793 262.451428 
L 109.599463 264.021709 
L 111.239132 264.3143 
L 112.878802 263.552317 
L 114.518471 264.267984 
L 117.79781 263.69839 
L 119.437479 264.597539 
L 121.077149 263.547864 
L 122.716818 263.648511 
L 124.356488 263.428066 
L 125.996157 264.512033 
L 127.635826 264.506689 
L 129.275496 259.84305 
L 130.915165 264.620251 
L 132.554835 263.972722 
L 134.194504 263.508673 
L 135.834174 262.336974 
L 137.473843 264.639846 
L 139.113512 264.426081 
L 140.753182 264.551668 
L 142.392851 264.276001 
L 144.032521 261.594587 
L 145.67219 264.41183 
L 147.31186 264.130818 
L 148.951529 264.644745 
L 150.591198 264.610454 
L 152.230868 264.097863 
L 153.870537 261.751793 
L 155.510207 264.102762 
L 157.149876 264.373976 
L 158.789545 263.929078 
L 160.429215 262.365476 
L 162.068884 264.413166 
L 163.708554 263.992762 
L 165.348223 263.758957 
L 166.987893 263.662317 
L 168.627562 263.875191 
L 170.267231 264.408713 
L 171.906901 263.904584 
L 173.54657 264.277337 
L 175.18624 264.410049 
L 176.825909 262.38329 
L 178.465579 263.470374 
L 180.105248 264.331223 
L 181.744917 263.434746 
L 183.384587 264.036406 
L 185.024256 263.681912 
L 186.663926 264.576162 
L 188.303595 264.074705 
L 189.943264 264.150414 
L 191.582934 262.950213 
L 193.222603 262.952439 
L 194.862273 264.500008 
L 199.781281 263.567904 
L 203.06062 264.583288 
L 204.700289 263.751831 
L 206.339959 263.562115 
L 207.979628 262.215841 
L 209.619298 264.196284 
L 211.258967 264.407377 
L 212.898636 264.269766 
L 214.538306 264.33345 
L 216.177975 260.860215 
L 217.817645 264.011021 
L 219.457314 264.08094 
L 221.096983 263.046407 
L 222.736653 264.423409 
L 224.376322 263.758957 
L 226.015992 261.407097 
L 227.655661 264.499563 
L 229.295331 263.733127 
L 230.935 263.746042 
L 232.574669 263.096731 
L 234.214339 262.972925 
L 235.854008 264.394462 
L 237.493678 257.191029 
L 239.133347 264.252843 
L 240.773017 264.373531 
L 242.412686 263.725556 
L 244.052355 264.344583 
L 245.692025 264.201628 
L 247.331694 263.459686 
L 248.971364 263.881871 
L 250.611033 263.697054 
L 252.250702 263.188917 
L 253.890372 263.3675 
L 255.530041 264.672356 
L 258.80938 264.447903 
L 260.44905 263.236569 
L 262.088719 263.965596 
L 263.728388 261.562077 
L 265.368058 263.330981 
L 267.007727 264.124584 
L 268.647397 264.451021 
L 270.287066 264.121021 
L 271.926736 263.908592 
L 275.206074 263.127459 
L 276.845744 262.465679 
L 278.485413 263.412034 
L 280.125083 263.726892 
L 281.764752 262.21495 
L 283.404421 263.046407 
L 285.044091 263.210293 
L 286.68376 261.273049 
L 288.32343 264.156648 
L 289.963099 263.935313 
L 291.602769 264.431425 
L 293.242438 263.796811 
L 294.882107 264.338349 
L 296.521777 264.512923 
L 299.801116 264.610454 
L 301.440785 264.044867 
L 303.080455 264.452802 
L 304.720124 264.621587 
L 306.359793 263.990535 
L 307.999463 262.528472 
L 309.639132 264.252397 
L 311.278802 263.297135 
L 312.918471 264.157539 
L 314.55814 263.156407 
L 316.19781 264.251061 
L 317.837479 263.5492 
L 319.477149 261.366571 
L 321.116818 264.082721 
L 322.756488 264.555231 
L 324.396157 264.408713 
L 329.315165 264.471952 
L 330.954835 263.42005 
L 332.594504 264.669684 
L 334.234174 264.128146 
L 335.873843 264.298268 
L 337.513512 263.247257 
L 339.153182 264.268875 
L 340.792851 260.501268 
L 342.432521 263.974058 
L 345.71186 264.683045 
L 347.351529 264.242154 
L 348.991198 262.229647 
L 350.630868 264.364624 
L 352.270537 263.839118 
L 353.910207 262.702602 
L 355.549876 264.371304 
L 357.189545 257.458681 
L 358.829215 264.325434 
L 360.468884 259.727706 
L 362.108554 262.144586 
L 363.748223 263.612884 
L 365.387893 263.760738 
L 367.027562 263.666325 
L 368.667231 264.520939 
L 370.306901 263.97094 
L 371.94657 264.610899 
L 373.58624 263.167095 
L 375.225909 262.757824 
L 376.865579 264.526284 
L 378.505248 264.392681 
L 380.144917 260.890498 
L 381.784587 263.332317 
L 383.424256 264.403814 
L 385.063926 264.500454 
L 386.703595 264.341911 
L 389.982934 263.496204 
L 391.622603 262.746691 
L 393.262273 264.363733 
L 393.262273 264.363733 
" style="fill:none;stroke:#bcbd22;stroke-linecap:square;stroke-width:0.5;"/>
   </g>
   <g id="line2d_25">
    <path clip-path="url(#pca83d44cad)" d="M 68.607727 263.609321 
L 70.247397 264.24928 
L 71.887066 264.162438 
L 73.526736 263.017459 
L 75.166405 263.805718 
L 76.806074 264.220778 
L 78.445744 262.202481 
L 80.085413 249.951969 
L 81.725083 263.940211 
L 83.364752 264.464826 
L 85.004421 263.641831 
L 86.644091 263.861386 
L 88.28376 258.362283 
L 89.92343 250.42715 
L 91.563099 263.069565 
L 93.202769 263.692155 
L 94.842438 264.496446 
L 96.482107 251.924841 
L 98.121777 255.800666 
L 99.761446 261.129203 
L 101.401116 259.954831 
L 103.040785 261.618635 
L 104.680455 253.430102 
L 106.320124 252.117229 
L 107.959793 263.572803 
L 109.599463 251.517797 
L 111.239132 254.538563 
L 112.878802 261.368797 
L 114.518471 264.241709 
L 116.15814 261.912562 
L 117.79781 262.08491 
L 119.437479 262.699484 
L 121.077149 262.033695 
L 122.716818 261.89742 
L 124.356488 257.792243 
L 125.996157 255.000384 
L 127.635826 253.120588 
L 129.275496 261.34564 
L 130.915165 264.23013 
L 132.554835 261.85823 
L 134.194504 263.845353 
L 135.834174 263.677013 
L 137.473843 261.052158 
L 139.113512 262.031914 
L 140.753182 263.223654 
L 142.392851 262.313371 
L 144.032521 263.645394 
L 145.67219 264.393571 
L 147.31186 262.288877 
L 148.951529 262.255922 
L 150.591198 263.95179 
L 152.230868 260.4839 
L 153.870537 262.49997 
L 155.510207 262.724423 
L 157.149876 263.618673 
L 158.789545 264.176689 
L 160.429215 264.135272 
L 163.708554 264.366851 
L 165.348223 264.129037 
L 166.987893 260.353414 
L 168.627562 248.675614 
L 170.267231 261.178636 
L 171.906901 261.060174 
L 173.54657 264.374421 
L 175.18624 261.365235 
L 176.825909 253.426094 
L 178.465579 254.9701 
L 180.105248 264.211426 
L 181.744917 263.905029 
L 183.384587 260.721268 
L 185.024256 263.785232 
L 186.663926 263.078472 
L 188.303595 264.49511 
L 189.943264 264.509806 
L 191.582934 260.377908 
L 193.222603 263.727783 
L 194.862273 264.3526 
L 196.501942 263.208512 
L 198.141612 262.811265 
L 199.781281 258.707424 
L 201.42095 260.197098 
L 203.06062 264.078713 
L 204.700289 263.786568 
L 206.339959 263.851588 
L 207.979628 262.572561 
L 209.619298 263.985636 
L 211.258967 260.972442 
L 212.898636 261.955315 
L 214.538306 246.232014 
L 216.177975 263.858268 
L 217.817645 263.808835 
L 219.457314 249.643791 
L 221.096983 263.595961 
L 222.736653 264.231911 
L 224.376322 260.914102 
L 226.015992 260.092443 
L 227.655661 261.485032 
L 229.295331 260.810782 
L 230.935 261.053049 
L 232.574669 247.232701 
L 234.214339 263.573694 
L 235.854008 259.532646 
L 237.493678 264.098754 
L 239.133347 263.533613 
L 240.773017 250.490834 
L 242.412686 258.865521 
L 244.052355 253.502693 
L 245.692025 263.972276 
L 247.331694 259.878678 
L 248.971364 263.505556 
L 250.611033 261.568757 
L 252.250702 260.750215 
L 253.890372 263.682803 
L 255.530041 261.246773 
L 257.169711 261.434708 
L 258.80938 260.76892 
L 260.44905 263.616001 
L 262.088719 260.930134 
L 263.728388 263.609321 
L 265.368058 260.019852 
L 267.007727 258.574266 
L 268.647397 263.674341 
L 270.287066 262.209606 
L 271.926736 261.110943 
L 273.566405 248.951282 
L 275.206074 264.084948 
L 276.845744 264.339239 
L 278.485413 250.089135 
L 280.125083 264.133491 
L 281.764752 264.466608 
L 283.404421 262.911913 
L 285.044091 261.108271 
L 286.68376 260.676288 
L 288.32343 259.874224 
L 289.963099 264.568146 
L 291.602769 254.686417 
L 293.242438 247.241162 
L 294.882107 264.577053 
L 298.161446 260.682078 
L 299.801116 260.582321 
L 301.440785 253.265325 
L 304.720124 249.115613 
L 306.359793 249.069298 
L 307.999463 262.715071 
L 309.639132 261.174628 
L 311.278802 262.062197 
L 312.918471 261.587016 
L 314.55814 255.113501 
L 316.19781 254.135081 
L 317.837479 262.601954 
L 319.477149 255.571314 
L 321.116818 262.841103 
L 322.756488 261.09402 
L 324.396157 264.119685 
L 326.035826 250.477029 
L 327.675496 263.961588 
L 329.315165 261.849769 
L 330.954835 263.962033 
L 332.594504 264.110333 
L 334.234174 260.436248 
L 335.873843 264.249725 
L 337.513512 261.656489 
L 339.153182 261.549162 
L 340.792851 261.316692 
L 342.432521 260.670499 
L 344.07219 262.346327 
L 345.71186 261.14479 
L 347.351529 261.882279 
L 348.991198 263.885434 
L 350.630868 263.324747 
L 352.270537 262.35078 
L 353.910207 253.86832 
L 355.549876 262.085801 
L 357.189545 256.632568 
L 358.829215 264.258187 
L 360.468884 264.007458 
L 362.108554 263.975394 
L 363.748223 252.485083 
L 365.387893 260.366774 
L 367.027562 253.069374 
L 368.667231 264.300049 
L 370.306901 264.037296 
L 371.94657 251.905691 
L 373.58624 262.834423 
L 375.225909 261.988716 
L 376.865579 254.867226 
L 378.505248 264.251952 
L 378.505248 264.251952 
" style="fill:none;stroke:#17becf;stroke-linecap:square;stroke-width:0.5;"/>
   </g>
   <g id="line2d_26">
    <path clip-path="url(#pca83d44cad)" d="M 68.607727 264.641182 
L 70.247397 260.43224 
L 71.887066 263.112763 
L 73.526736 263.129241 
L 75.166405 258.439773 
L 76.806074 263.815961 
L 78.445744 262.736002 
L 80.085413 264.578834 
L 81.725083 263.138148 
L 83.364752 263.936203 
L 85.004421 263.061103 
L 86.644091 261.18398 
L 88.28376 262.77831 
L 89.92343 259.91386 
L 91.563099 261.057948 
L 93.202769 263.902803 
L 94.842438 264.208308 
L 96.482107 256.161395 
L 98.121777 262.477703 
L 99.761446 264.37932 
L 101.401116 262.796124 
L 103.040785 264.439887 
L 104.680455 22.796 
L 106.320124 264.568591 
L 107.959793 263.377742 
L 109.599463 264.328106 
L 111.239132 264.171345 
L 112.878802 263.501993 
L 114.518471 264.43766 
L 116.15814 261.992278 
L 117.79781 264.336122 
L 119.437479 264.396689 
L 121.077149 263.25171 
L 122.716818 264.432761 
L 124.356488 259.656006 
L 125.996157 258.876655 
L 127.635826 257.76953 
L 129.275496 259.104671 
L 130.915165 264.266648 
L 132.554835 264.593976 
L 134.194504 263.550981 
L 135.834174 263.253937 
L 137.473843 253.977875 
L 139.113512 257.954348 
L 140.753182 261.293089 
L 142.392851 264.196284 
L 144.032521 263.180901 
L 145.67219 264.487984 
L 148.951529 264.393126 
L 150.591198 261.954424 
L 152.230868 264.394907 
L 153.870537 264.65098 
L 155.510207 264.356162 
L 158.789545 264.642964 
L 160.429215 257.282324 
L 162.068884 257.841231 
L 163.708554 178.463631 
L 165.348223 264.606891 
L 166.987893 261.358109 
L 168.627562 264.060009 
L 170.267231 264.687498 
L 171.906901 261.685882 
L 173.54657 264.542761 
L 175.18624 264.601992 
L 176.825909 263.973612 
L 178.465579 264.572599 
L 180.105248 260.376572 
L 181.744917 264.339685 
L 183.384587 262.382845 
L 185.024256 264.550332 
L 188.303595 264.393571 
L 189.943264 264.235029 
L 191.582934 263.220536 
L 193.222603 264.276446 
L 194.862273 264.544988 
L 196.501942 264.213652 
L 198.141612 261.751348 
L 199.781281 264.280899 
L 201.42095 264.643409 
L 203.06062 262.694585 
L 204.700289 262.750253 
L 206.339959 258.719003 
L 207.979628 260.593454 
L 209.619298 262.904342 
L 211.258967 229.149078 
L 212.898636 259.352727 
L 214.538306 263.147945 
L 216.177975 264.575717 
L 217.817645 262.806367 
L 219.457314 264.287134 
L 221.096983 264.467498 
L 222.736653 220.275607 
L 224.376322 238.429148 
L 226.015992 263.949564 
L 227.655661 263.898794 
L 229.295331 257.935198 
L 230.935 261.813696 
L 232.574669 252.607553 
L 234.214339 263.434746 
L 235.854008 264.614907 
L 237.493678 264.24928 
L 239.133347 264.361506 
L 240.773017 263.823531 
L 242.412686 264.440332 
L 244.052355 264.577498 
L 245.692025 264.56681 
L 247.331694 264.69685 
L 248.971364 264.293369 
L 250.611033 264.297822 
L 252.250702 264.689725 
L 255.530041 264.430089 
L 257.169711 264.022155 
L 258.80938 264.39847 
L 260.44905 257.631474 
L 262.088719 263.427176 
L 263.728388 264.103653 
L 265.368058 264.435434 
L 267.007727 263.524261 
L 268.647397 242.211897 
L 270.287066 241.475744 
L 271.926736 259.859528 
L 273.566405 207.067161 
L 275.206074 228.554099 
L 276.845744 260.877583 
L 278.485413 261.173292 
L 280.125083 151.796456 
L 281.764752 263.788349 
L 283.404421 259.158112 
L 285.044091 259.199083 
L 286.68376 263.31673 
L 288.32343 262.431833 
L 291.602769 263.880981 
L 293.242438 264.457701 
L 294.882107 264.207418 
L 296.521777 260.257665 
L 298.161446 263.761183 
L 299.801116 264.464381 
L 301.440785 264.496 
L 303.080455 264.364624 
L 304.720124 253.410507 
L 306.359793 249.250998 
L 307.999463 264.111223 
L 309.639132 263.548309 
L 311.278802 261.616408 
L 312.918471 264.473733 
L 314.55814 264.716 
L 316.19781 264.715555 
L 317.837479 261.243211 
L 319.477149 262.002967 
L 321.116818 260.366774 
L 322.756488 264.543652 
L 324.396157 263.933086 
L 326.035826 262.075558 
L 327.675496 261.569647 
L 329.315165 261.90989 
L 330.954835 262.542723 
L 332.594504 254.860101 
L 334.234174 264.686607 
L 335.873843 260.998272 
L 337.513512 264.168227 
L 340.792851 261.353656 
L 342.432521 263.990535 
L 344.07219 256.047832 
L 345.71186 258.018923 
L 347.351529 248.216465 
L 348.991198 263.16665 
L 350.630868 255.564189 
L 352.270537 242.257767 
L 353.910207 261.842643 
L 355.549876 255.008845 
L 357.189545 261.481469 
L 358.829215 263.751831 
L 360.468884 263.326973 
L 362.108554 185.017308 
L 363.748223 264.715109 
L 365.387893 263.037055 
L 368.667231 261.241429 
L 370.306901 263.958916 
L 371.94657 264.497336 
L 373.58624 260.538232 
L 375.225909 263.580374 
L 376.865579 256.089249 
L 378.505248 198.534822 
L 380.144917 99.325627 
L 381.784587 263.591953 
L 383.424256 247.683388 
L 383.424256 247.683388 
" style="fill:none;stroke:#1f77b4;stroke-linecap:square;stroke-width:0.5;"/>
   </g>
   <g id="line2d_27">
    <path clip-path="url(#pca83d44cad)" d="M 68.607727 260.772037 
L 70.247397 264.051547 
L 71.887066 262.964909 
L 73.526736 262.951103 
L 75.166405 259.410622 
L 76.806074 263.118552 
L 78.445744 259.399043 
L 80.085413 263.113208 
L 81.725083 255.309898 
L 83.364752 263.767418 
L 85.004421 259.472524 
L 86.644091 262.834423 
L 88.28376 264.623369 
L 89.92343 264.019037 
L 91.563099 264.003005 
L 93.202769 263.097176 
L 94.842438 261.027664 
L 96.482107 252.598646 
L 98.121777 263.344342 
L 99.761446 256.418358 
L 101.401116 261.049041 
L 103.040785 260.536005 
L 104.680455 258.88957 
L 106.320124 263.797701 
L 107.959793 259.077059 
L 109.599463 255.438602 
L 111.239132 263.833774 
L 112.878802 262.559646 
L 114.518471 263.762074 
L 116.15814 262.246124 
L 117.79781 264.021264 
L 119.437479 264.40515 
L 121.077149 262.40912 
L 122.716818 263.079362 
L 124.356488 259.360298 
L 125.996157 264.326324 
L 127.635826 262.514221 
L 129.275496 262.424707 
L 130.915165 264.380211 
L 132.554835 229.835798 
L 134.194504 264.391345 
L 135.834174 263.538512 
L 137.473843 257.612769 
L 139.113512 264.249725 
L 140.753182 264.037296 
L 142.392851 264.713773 
L 144.032521 261.714384 
L 145.67219 256.478479 
L 147.31186 263.147945 
L 148.951529 263.72511 
L 150.591198 263.640941 
L 152.230868 260.627746 
L 153.870537 260.389487 
L 155.510207 263.351913 
L 157.149876 258.868193 
L 158.789545 259.205318 
L 160.429215 264.271992 
L 162.068884 263.375961 
L 163.708554 259.954831 
L 165.348223 264.658551 
L 166.987893 256.629451 
L 168.627562 260.549365 
L 170.267231 262.956002 
L 171.906901 263.83511 
L 173.54657 264.133045 
L 175.18624 261.3207 
L 176.825909 259.682727 
L 178.465579 258.714995 
L 180.105248 264.390454 
L 181.744917 263.653855 
L 183.384587 264.345919 
L 185.024256 261.479688 
L 186.663926 264.56013 
L 188.303595 264.642518 
L 189.943264 250.681887 
L 191.582934 263.61422 
L 193.222603 258.328437 
L 194.862273 264.298713 
L 196.501942 264.351709 
L 199.781281 264.108997 
L 201.42095 263.648066 
L 203.06062 264.361061 
L 204.700289 264.473288 
L 206.339959 259.51884 
L 207.979628 264.23592 
L 209.619298 262.027015 
L 211.258967 262.547177 
L 212.898636 264.080049 
L 214.538306 260.389932 
L 216.177975 264.057337 
L 217.817645 264.036406 
L 219.457314 263.538066 
L 221.096983 229.544543 
L 222.736653 257.755279 
L 224.376322 255.276942 
L 226.015992 263.533613 
L 227.655661 264.321871 
L 229.295331 259.981997 
L 230.935 262.47325 
L 232.574669 263.76341 
L 234.214339 264.284017 
L 235.854008 264.425191 
L 237.493678 263.871183 
L 239.133347 264.507579 
L 240.773017 264.338794 
L 242.412686 264.366405 
L 244.052355 263.778997 
L 245.692025 263.012561 
L 247.331694 264.220333 
L 248.971364 263.432074 
L 252.250702 264.369968 
L 253.890372 258.510137 
L 255.530041 264.32677 
L 257.169711 264.015029 
L 258.80938 263.146164 
L 260.44905 260.434912 
L 262.088719 263.27086 
L 263.728388 257.823417 
L 265.368058 261.917015 
L 267.007727 264.410049 
L 268.647397 259.811876 
L 270.287066 264.385555 
L 271.926736 264.627377 
L 273.566405 264.344138 
L 275.206074 264.271102 
L 276.845744 260.19977 
L 278.485413 264.225231 
L 281.764752 264.715109 
L 283.404421 200.233363 
L 285.044091 260.080864 
L 286.68376 264.247944 
L 288.32343 264.471952 
L 289.963099 264.452802 
L 291.602769 264.663895 
L 293.242438 264.194057 
L 294.882107 264.569482 
L 296.521777 264.282235 
L 298.161446 263.764746 
L 299.801116 264.338349 
L 301.440785 264.491547 
L 303.080455 261.894303 
L 304.720124 264.289806 
L 306.359793 264.508025 
L 307.999463 256.714957 
L 309.639132 256.801799 
L 311.278802 264.577053 
L 312.918471 264.239037 
L 314.55814 264.44434 
L 316.19781 258.736371 
L 319.477149 260.820134 
L 321.116818 263.498431 
L 322.756488 264.202964 
L 326.035826 263.198269 
L 327.675496 264.449685 
L 329.315165 263.069565 
L 330.954835 262.99163 
L 334.234174 264.361506 
L 335.873843 263.76341 
L 337.513512 263.518471 
L 339.153182 262.471914 
L 340.792851 259.688516 
L 342.432521 263.781669 
L 344.07219 264.377539 
L 345.71186 262.915921 
L 347.351529 263.402236 
L 348.991198 264.237256 
L 350.630868 264.486203 
L 352.270537 252.438322 
L 353.910207 264.123693 
L 355.549876 264.461263 
L 357.189545 264.10009 
L 358.829215 260.337382 
L 360.468884 261.082887 
L 362.108554 261.240984 
L 363.748223 263.54341 
L 365.387893 260.460296 
L 367.027562 263.571022 
L 368.667231 264.711547 
L 370.306901 258.550663 
L 371.94657 263.652074 
L 373.58624 261.60572 
L 375.225909 262.281306 
L 376.865579 252.835569 
L 378.505248 264.618915 
L 380.144917 264.674583 
L 381.784587 264.391345 
L 383.424256 264.225677 
L 385.063926 264.331223 
L 386.703595 264.603328 
L 388.343264 263.831548 
L 388.343264 263.831548 
" style="fill:none;stroke:#ff7f0e;stroke-linecap:square;stroke-width:0.5;"/>
   </g>
   <g id="line2d_28">
    <path clip-path="url(#pca83d44cad)" d="M 68.607727 262.873613 
L 70.247397 262.327622 
L 71.887066 261.549162 
L 73.526736 264.241264 
L 75.166405 257.203053 
L 76.806074 264.129037 
L 78.445744 263.901467 
L 80.085413 261.89742 
L 81.725083 263.808835 
L 83.364752 246.572256 
L 85.004421 264.651425 
L 86.644091 264.438106 
L 88.28376 262.825962 
L 89.92343 262.360578 
L 91.563099 259.305966 
L 93.202769 258.973294 
L 94.842438 263.945556 
L 96.482107 264.228794 
L 98.121777 264.256405 
L 99.761446 264.036406 
L 101.401116 263.259281 
L 103.040785 262.132116 
L 104.680455 263.611103 
L 106.320124 264.421628 
L 107.959793 263.765637 
L 109.599463 263.861386 
L 111.239132 262.412238 
L 112.878802 264.381102 
L 114.518471 263.994543 
L 116.15814 262.281752 
L 117.79781 264.553895 
L 119.437479 263.844463 
L 121.077149 264.354381 
L 122.716818 262.385962 
L 124.356488 263.992762 
L 125.996157 264.490656 
L 127.635826 264.057782 
L 129.275496 264.305393 
L 130.915165 262.606853 
L 132.554835 264.240818 
L 134.194504 263.865394 
L 135.834174 264.457255 
L 137.473843 261.913898 
L 139.113512 264.363288 
L 140.753182 264.431871 
L 142.392851 264.691951 
L 144.032521 264.155312 
L 145.67219 260.200661 
L 147.31186 261.569647 
L 148.951529 264.23592 
L 150.591198 263.798592 
L 152.230868 264.687943 
L 153.870537 264.663895 
L 155.510207 257.740138 
L 157.149876 264.481304 
L 158.789545 263.301143 
L 160.429215 261.937056 
L 162.068884 262.837986 
L 163.708554 262.912804 
L 165.348223 264.381547 
L 166.987893 259.476532 
L 168.627562 264.442114 
L 170.267231 264.341466 
L 171.906901 263.475718 
L 173.54657 262.736002 
L 175.18624 263.8409 
L 176.825909 263.098067 
L 178.465579 260.246086 
L 180.105248 261.927704 
L 181.744917 263.195597 
L 183.384587 264.32009 
L 185.024256 264.650089 
L 188.303595 264.414948 
L 189.943264 263.547418 
L 191.582934 261.522886 
L 193.222603 263.119889 
L 194.862273 264.081831 
L 196.501942 264.26932 
L 198.141612 263.170658 
L 199.781281 263.866284 
L 201.42095 262.884302 
L 204.700289 264.017701 
L 206.339959 263.882762 
L 207.979628 263.969604 
L 209.619298 263.059322 
L 211.258967 262.82329 
L 212.898636 263.710414 
L 214.538306 264.300049 
L 216.177975 262.913249 
L 217.817645 264.47017 
L 219.457314 264.238592 
L 221.096983 264.271547 
L 222.736653 262.972925 
L 224.376322 262.49908 
L 226.015992 262.803695 
L 227.655661 262.024789 
L 229.295331 262.700375 
L 230.935 264.514705 
L 232.574669 264.464381 
L 234.214339 264.556122 
L 235.854008 264.26932 
L 237.493678 263.791467 
L 239.133347 264.374867 
L 240.773017 264.348592 
L 242.412686 262.377501 
L 244.052355 261.933048 
L 245.692025 263.330536 
L 247.331694 263.149281 
L 248.971364 264.161993 
L 250.611033 264.587296 
L 252.250702 264.26175 
L 253.890372 262.993856 
L 255.530041 260.138313 
L 257.169711 263.509119 
L 258.80938 263.983855 
L 260.44905 264.273774 
L 262.088719 264.432316 
L 263.728388 262.515557 
L 265.368058 262.684788 
L 267.007727 260.927907 
L 268.647397 262.488837 
L 270.287066 263.627135 
L 271.926736 264.337903 
L 273.566405 260.818353 
L 275.206074 264.377094 
L 278.485413 263.408471 
L 280.125083 264.313409 
L 281.764752 264.436324 
L 283.404421 264.146406 
L 285.044091 264.53519 
L 286.68376 263.717094 
L 288.32343 264.340575 
L 289.963099 264.246608 
L 291.602769 264.414502 
L 293.242438 264.094746 
L 294.882107 264.235029 
L 296.521777 263.347459 
L 298.161446 264.194948 
L 301.440785 264.492883 
L 303.080455 264.537863 
L 304.720124 263.655637 
L 306.359793 263.593734 
L 307.999463 261.905882 
L 309.639132 261.109162 
L 311.278802 264.239037 
L 312.918471 264.279118 
L 314.55814 264.549441 
L 316.19781 264.488875 
L 317.837479 264.275555 
L 319.477149 264.415838 
L 321.116818 262.760051 
L 322.756488 264.384219 
L 324.396157 259.372767 
L 326.035826 262.620213 
L 327.675496 264.139725 
L 329.315165 263.938875 
L 330.954835 264.499118 
L 334.234174 264.667012 
L 335.873843 263.876527 
L 337.513512 264.531182 
L 339.153182 263.908592 
L 340.792851 258.33289 
L 342.432521 264.364624 
L 344.07219 264.208754 
L 345.71186 264.223895 
L 347.351529 262.660294 
L 348.991198 264.421628 
L 350.630868 264.586405 
L 352.270537 263.819078 
L 355.549876 264.504907 
L 357.189545 264.545879 
L 358.829215 263.924179 
L 360.468884 260.02475 
L 362.108554 261.329162 
L 363.748223 263.887216 
L 363.748223 263.887216 
" style="fill:none;stroke:#2ca02c;stroke-linecap:square;stroke-width:0.5;"/>
   </g>
   <g id="patch_3">
    <path d="M 52.375 276.812 
L 52.375 10.7 
" style="fill:none;stroke:#000000;stroke-linecap:square;stroke-linejoin:miter;stroke-width:0.8;"/>
   </g>
   <g id="patch_4">
    <path d="M 409.495 276.812 
L 409.495 10.7 
" style="fill:none;stroke:#000000;stroke-linecap:square;stroke-linejoin:miter;stroke-width:0.8;"/>
   </g>
   <g id="patch_5">
    <path d="M 52.375 276.812 
L 409.495 276.812 
" style="fill:none;stroke:#000000;stroke-linecap:square;stroke-linejoin:miter;stroke-width:0.8;"/>
   </g>
   <g id="patch_6">
    <path d="M 52.375 10.7 
L 409.495 10.7 
" style="fill:none;stroke:#000000;stroke-linecap:square;stroke-linejoin:miter;stroke-width:0.8;"/>
   </g>
  </g>
 </g>
 <defs>
  <clipPath id="pca83d44cad">
   <rect height="266.112" width="357.12" x="52.375" y="10.7"/>
  </clipPath>
 </defs>
</svg>
