<?xml version="1.0" encoding="utf-8" standalone="no"?>
<!DOCTYPE svg PUBLIC "-//W3C//DTD SVG 1.1//EN"
  "http://www.w3.org/Graphics/SVG/1.1/DTD/svg11.dtd">
<!-- Created with matplotlib (http://matplotlib.org/) -->
<svg height="300pt" version="1.1" viewBox="0 0 415 300" width="415pt" xmlns="http://www.w3.org/2000/svg" xmlns:xlink="http://www.w3.org/1999/xlink">
 <defs>
  <style type="text/css">
*{stroke-linecap:butt;stroke-linejoin:round;}
  </style>
 </defs>
 <g id="figure_1">
  <g id="patch_1">
   <path d="M 0 300.690125 
L 415.849687 300.690125 
L 415.849687 0 
L 0 0 
z
" style="fill:#ffffff;"/>
  </g>
  <g id="axes_1">
   <g id="patch_2">
    <path d="M 48.029688 276.812 
L 405.149688 276.812 
L 405.149688 10.7 
L 48.029688 10.7 
z
" style="fill:#ffffff;"/>
   </g>
   <g id="matplotlib.axis_1">
    <g id="xtick_1">
     <g id="line2d_1">
      <defs>
       <path d="M 0 0 
L 0 3.5 
" id="mc6d63ed450" style="stroke:#000000;stroke-width:0.8;"/>
      </defs>
      <g>
       <use style="stroke:#000000;stroke-width:0.8;" x="64.262415" xlink:href="#mc6d63ed450" y="276.812"/>
      </g>
     </g>
     <g id="text_1">
      <!-- 0 -->
      <defs>
       <path d="M 31.78125 66.40625 
Q 24.171875 66.40625 20.328125 58.90625 
Q 16.5 51.421875 16.5 36.375 
Q 16.5 21.390625 20.328125 13.890625 
Q 24.171875 6.390625 31.78125 6.390625 
Q 39.453125 6.390625 43.28125 13.890625 
Q 47.125 21.390625 47.125 36.375 
Q 47.125 51.421875 43.28125 58.90625 
Q 39.453125 66.40625 31.78125 66.40625 
M 31.78125 74.21875 
Q 44.046875 74.21875 50.515625 64.515625 
Q 56.984375 54.828125 56.984375 36.375 
Q 56.984375 17.96875 50.515625 8.265625 
Q 44.046875 -1.421875 31.78125 -1.421875 
Q 19.53125 -1.421875 13.0625 8.265625 
Q 6.59375 17.96875 6.59375 36.375 
Q 6.59375 54.828125 13.0625 64.515625 
Q 19.53125 74.21875 31.78125 74.21875 
" id="DejaVuSans-30"/>
      </defs>
      <g transform="translate(61.081165 291.410437)scale(0.1 -0.1)">
       <use xlink:href="#DejaVuSans-30"/>
      </g>
     </g>
    </g>
    <g id="xtick_2">
     <g id="line2d_2">
      <g>
       <use style="stroke:#000000;stroke-width:0.8;" x="105.25415" xlink:href="#mc6d63ed450" y="276.812"/>
      </g>
     </g>
     <g id="text_2">
      <!-- 25 -->
      <defs>
       <path d="M 19.1875 8.296875 
L 53.609375 8.296875 
L 53.609375 0 
L 7.328125 0 
L 7.328125 8.296875 
Q 12.9375 14.109375 22.625 23.890625 
Q 32.328125 33.6875 34.8125 36.53125 
Q 39.546875 41.84375 41.421875 45.53125 
Q 43.3125 49.21875 43.3125 52.78125 
Q 43.3125 58.59375 39.234375 62.25 
Q 35.15625 65.921875 28.609375 65.921875 
Q 23.96875 65.921875 18.8125 64.3125 
Q 13.671875 62.703125 7.8125 59.421875 
L 7.8125 69.390625 
Q 13.765625 71.78125 18.9375 73 
Q 24.125 74.21875 28.421875 74.21875 
Q 39.75 74.21875 46.484375 68.546875 
Q 53.21875 62.890625 53.21875 53.421875 
Q 53.21875 48.921875 51.53125 44.890625 
Q 49.859375 40.875 45.40625 35.40625 
Q 44.1875 33.984375 37.640625 27.21875 
Q 31.109375 20.453125 19.1875 8.296875 
" id="DejaVuSans-32"/>
       <path d="M 10.796875 72.90625 
L 49.515625 72.90625 
L 49.515625 64.59375 
L 19.828125 64.59375 
L 19.828125 46.734375 
Q 21.96875 47.46875 24.109375 47.828125 
Q 26.265625 48.1875 28.421875 48.1875 
Q 40.625 48.1875 47.75 41.5 
Q 54.890625 34.8125 54.890625 23.390625 
Q 54.890625 11.625 47.5625 5.09375 
Q 40.234375 -1.421875 26.90625 -1.421875 
Q 22.3125 -1.421875 17.546875 -0.640625 
Q 12.796875 0.140625 7.71875 1.703125 
L 7.71875 11.625 
Q 12.109375 9.234375 16.796875 8.0625 
Q 21.484375 6.890625 26.703125 6.890625 
Q 35.15625 6.890625 40.078125 11.328125 
Q 45.015625 15.765625 45.015625 23.390625 
Q 45.015625 31 40.078125 35.4375 
Q 35.15625 39.890625 26.703125 39.890625 
Q 22.75 39.890625 18.8125 39.015625 
Q 14.890625 38.140625 10.796875 36.28125 
z
" id="DejaVuSans-35"/>
      </defs>
      <g transform="translate(98.89165 291.410437)scale(0.1 -0.1)">
       <use xlink:href="#DejaVuSans-32"/>
       <use x="63.623047" xlink:href="#DejaVuSans-35"/>
      </g>
     </g>
    </g>
    <g id="xtick_3">
     <g id="line2d_3">
      <g>
       <use style="stroke:#000000;stroke-width:0.8;" x="146.245886" xlink:href="#mc6d63ed450" y="276.812"/>
      </g>
     </g>
     <g id="text_3">
      <!-- 50 -->
      <g transform="translate(139.883386 291.410437)scale(0.1 -0.1)">
       <use xlink:href="#DejaVuSans-35"/>
       <use x="63.623047" xlink:href="#DejaVuSans-30"/>
      </g>
     </g>
    </g>
    <g id="xtick_4">
     <g id="line2d_4">
      <g>
       <use style="stroke:#000000;stroke-width:0.8;" x="187.237621" xlink:href="#mc6d63ed450" y="276.812"/>
      </g>
     </g>
     <g id="text_4">
      <!-- 75 -->
      <defs>
       <path d="M 8.203125 72.90625 
L 55.078125 72.90625 
L 55.078125 68.703125 
L 28.609375 0 
L 18.3125 0 
L 43.21875 64.59375 
L 8.203125 64.59375 
z
" id="DejaVuSans-37"/>
      </defs>
      <g transform="translate(180.875121 291.410437)scale(0.1 -0.1)">
       <use xlink:href="#DejaVuSans-37"/>
       <use x="63.623047" xlink:href="#DejaVuSans-35"/>
      </g>
     </g>
    </g>
    <g id="xtick_5">
     <g id="line2d_5">
      <g>
       <use style="stroke:#000000;stroke-width:0.8;" x="228.229357" xlink:href="#mc6d63ed450" y="276.812"/>
      </g>
     </g>
     <g id="text_5">
      <!-- 100 -->
      <defs>
       <path d="M 12.40625 8.296875 
L 28.515625 8.296875 
L 28.515625 63.921875 
L 10.984375 60.40625 
L 10.984375 69.390625 
L 28.421875 72.90625 
L 38.28125 72.90625 
L 38.28125 8.296875 
L 54.390625 8.296875 
L 54.390625 0 
L 12.40625 0 
z
" id="DejaVuSans-31"/>
      </defs>
      <g transform="translate(218.685607 291.410437)scale(0.1 -0.1)">
       <use xlink:href="#DejaVuSans-31"/>
       <use x="63.623047" xlink:href="#DejaVuSans-30"/>
       <use x="127.246094" xlink:href="#DejaVuSans-30"/>
      </g>
     </g>
    </g>
    <g id="xtick_6">
     <g id="line2d_6">
      <g>
       <use style="stroke:#000000;stroke-width:0.8;" x="269.221092" xlink:href="#mc6d63ed450" y="276.812"/>
      </g>
     </g>
     <g id="text_6">
      <!-- 125 -->
      <g transform="translate(259.677342 291.410437)scale(0.1 -0.1)">
       <use xlink:href="#DejaVuSans-31"/>
       <use x="63.623047" xlink:href="#DejaVuSans-32"/>
       <use x="127.246094" xlink:href="#DejaVuSans-35"/>
      </g>
     </g>
    </g>
    <g id="xtick_7">
     <g id="line2d_7">
      <g>
       <use style="stroke:#000000;stroke-width:0.8;" x="310.212828" xlink:href="#mc6d63ed450" y="276.812"/>
      </g>
     </g>
     <g id="text_7">
      <!-- 150 -->
      <g transform="translate(300.669078 291.410437)scale(0.1 -0.1)">
       <use xlink:href="#DejaVuSans-31"/>
       <use x="63.623047" xlink:href="#DejaVuSans-35"/>
       <use x="127.246094" xlink:href="#DejaVuSans-30"/>
      </g>
     </g>
    </g>
    <g id="xtick_8">
     <g id="line2d_8">
      <g>
       <use style="stroke:#000000;stroke-width:0.8;" x="351.204564" xlink:href="#mc6d63ed450" y="276.812"/>
      </g>
     </g>
     <g id="text_8">
      <!-- 175 -->
      <g transform="translate(341.660814 291.410437)scale(0.1 -0.1)">
       <use xlink:href="#DejaVuSans-31"/>
       <use x="63.623047" xlink:href="#DejaVuSans-37"/>
       <use x="127.246094" xlink:href="#DejaVuSans-35"/>
      </g>
     </g>
    </g>
    <g id="xtick_9">
     <g id="line2d_9">
      <g>
       <use style="stroke:#000000;stroke-width:0.8;" x="392.196299" xlink:href="#mc6d63ed450" y="276.812"/>
      </g>
     </g>
     <g id="text_9">
      <!-- 200 -->
      <g transform="translate(382.652549 291.410437)scale(0.1 -0.1)">
       <use xlink:href="#DejaVuSans-32"/>
       <use x="63.623047" xlink:href="#DejaVuSans-30"/>
       <use x="127.246094" xlink:href="#DejaVuSans-30"/>
      </g>
     </g>
    </g>
   </g>
   <g id="matplotlib.axis_2">
    <g id="ytick_1">
     <g id="line2d_10">
      <defs>
       <path d="M 0 0 
L -3.5 0 
" id="m45b537d31d" style="stroke:#000000;stroke-width:0.8;"/>
      </defs>
      <g>
       <use style="stroke:#000000;stroke-width:0.8;" x="48.029688" xlink:href="#m45b537d31d" y="261.880308"/>
      </g>
     </g>
     <g id="text_10">
      <!-- −2000 -->
      <defs>
       <path d="M 10.59375 35.5 
L 73.1875 35.5 
L 73.1875 27.203125 
L 10.59375 27.203125 
z
" id="DejaVuSans-2212"/>
      </defs>
      <g transform="translate(7.2 265.679526)scale(0.1 -0.1)">
       <use xlink:href="#DejaVuSans-2212"/>
       <use x="83.789062" xlink:href="#DejaVuSans-32"/>
       <use x="147.412109" xlink:href="#DejaVuSans-30"/>
       <use x="211.035156" xlink:href="#DejaVuSans-30"/>
       <use x="274.658203" xlink:href="#DejaVuSans-30"/>
      </g>
     </g>
    </g>
    <g id="ytick_2">
     <g id="line2d_11">
      <g>
       <use style="stroke:#000000;stroke-width:0.8;" x="48.029688" xlink:href="#m45b537d31d" y="202.803385"/>
      </g>
     </g>
     <g id="text_11">
      <!-- −1000 -->
      <g transform="translate(7.2 206.602603)scale(0.1 -0.1)">
       <use xlink:href="#DejaVuSans-2212"/>
       <use x="83.789062" xlink:href="#DejaVuSans-31"/>
       <use x="147.412109" xlink:href="#DejaVuSans-30"/>
       <use x="211.035156" xlink:href="#DejaVuSans-30"/>
       <use x="274.658203" xlink:href="#DejaVuSans-30"/>
      </g>
     </g>
    </g>
    <g id="ytick_3">
     <g id="line2d_12">
      <g>
       <use style="stroke:#000000;stroke-width:0.8;" x="48.029688" xlink:href="#m45b537d31d" y="143.726462"/>
      </g>
     </g>
     <g id="text_12">
      <!-- 0 -->
      <g transform="translate(34.667187 147.52568)scale(0.1 -0.1)">
       <use xlink:href="#DejaVuSans-30"/>
      </g>
     </g>
    </g>
    <g id="ytick_4">
     <g id="line2d_13">
      <g>
       <use style="stroke:#000000;stroke-width:0.8;" x="48.029688" xlink:href="#m45b537d31d" y="84.649538"/>
      </g>
     </g>
     <g id="text_13">
      <!-- 1000 -->
      <g transform="translate(15.579687 88.448757)scale(0.1 -0.1)">
       <use xlink:href="#DejaVuSans-31"/>
       <use x="63.623047" xlink:href="#DejaVuSans-30"/>
       <use x="127.246094" xlink:href="#DejaVuSans-30"/>
       <use x="190.869141" xlink:href="#DejaVuSans-30"/>
      </g>
     </g>
    </g>
    <g id="ytick_5">
     <g id="line2d_14">
      <g>
       <use style="stroke:#000000;stroke-width:0.8;" x="48.029688" xlink:href="#m45b537d31d" y="25.572615"/>
      </g>
     </g>
     <g id="text_14">
      <!-- 2000 -->
      <g transform="translate(15.579687 29.371834)scale(0.1 -0.1)">
       <use xlink:href="#DejaVuSans-32"/>
       <use x="63.623047" xlink:href="#DejaVuSans-30"/>
       <use x="127.246094" xlink:href="#DejaVuSans-30"/>
       <use x="190.869141" xlink:href="#DejaVuSans-30"/>
      </g>
     </g>
    </g>
   </g>
   <g id="line2d_15">
    <path clip-path="url(#pacebb7acfa)" d="M 64.262415 140.477231 
L 65.902084 135.573846 
L 67.541754 138.409538 
L 70.821092 145.026154 
L 72.460762 141.186154 
L 74.100431 137.759692 
L 75.740101 134.924 
L 77.37977 142.544923 
L 79.01944 138.468615 
L 80.659109 143.312923 
L 82.298778 137.818769 
L 83.938448 141.599692 
L 85.578117 143.253846 
L 87.217787 140.3 
L 88.857456 140.536308 
L 90.497126 138.350462 
L 92.136795 136.578154 
L 93.776464 138.764 
L 95.416134 145.676 
L 97.055803 137.346154 
L 98.695473 141.599692 
L 100.335142 132.147385 
L 101.974811 105.799077 
L 103.614481 143.312923 
L 105.25415 141.186154 
L 106.89382 139.709231 
L 108.533489 141.481538 
L 110.173159 139.650154 
L 111.812828 141.422462 
L 113.452497 137.759692 
L 115.092167 142.131385 
L 116.731836 140.595385 
L 118.371506 134.274154 
L 120.011175 142.013231 
L 121.650845 143.549231 
L 123.290514 136.873538 
L 124.930183 140.240923 
L 126.569853 143.312923 
L 128.209522 142.544923 
L 129.849192 139.768308 
L 131.488861 140.240923 
L 133.12853 141.068 
L 134.7682 139.472923 
L 136.407869 141.363385 
L 138.047539 141.186154 
L 139.687208 142.249538 
L 141.326878 158.023077 
L 142.966547 141.540615 
L 144.606216 139.650154 
L 146.245886 142.131385 
L 147.885555 138.823077 
L 149.525225 138.764 
L 151.164894 137.996 
L 152.804564 138.232308 
L 154.444233 143.253846 
L 156.083902 145.912308 
L 157.723572 142.367692 
L 159.363241 139.768308 
L 161.002911 132.62 
L 162.64258 133.624308 
L 164.282249 137.346154 
L 165.921919 148.748 
L 167.561588 141.363385 
L 169.201258 141.658769 
L 170.840927 131.379385 
L 172.480597 134.746769 
L 174.120266 140.772615 
L 175.759935 143.667385 
L 177.399605 137.523385 
L 179.039274 137.405231 
L 180.678944 141.481538 
L 182.318613 142.426769 
L 183.958283 140.890769 
L 185.597952 139.886462 
L 187.237621 145.085231 
L 188.877291 136.932615 
L 190.51696 139.709231 
L 192.15663 141.717846 
L 193.796299 139.768308 
L 195.435968 133.092615 
L 197.075638 141.540615 
L 198.715307 137.109846 
L 200.354977 166.766462 
L 201.994646 138.586769 
L 203.634316 140.772615 
L 205.273985 141.127077 
L 206.913654 139.236615 
L 208.553324 135.514769 
L 210.192993 139.945538 
L 211.832663 141.658769 
L 213.472332 139.295692 
L 215.112002 140.713538 
L 216.751671 139.236615 
L 218.39134 138.941231 
L 220.03101 142.485846 
L 221.670679 137.700615 
L 223.310349 139.709231 
L 224.950018 138.409538 
L 228.229357 140.772615 
L 229.869026 141.599692 
L 231.508696 130.493231 
L 233.148365 138.764 
L 234.788035 140.181846 
L 236.427704 137.759692 
L 238.067373 147.212 
L 239.707043 144.080923 
L 241.346712 134.274154 
L 242.986382 142.958462 
L 244.626051 137.346154 
L 246.265721 139.295692 
L 247.90539 140.181846 
L 249.545059 150.756615 
L 251.184729 134.628615 
L 252.824398 140.418154 
L 254.464068 153.769538 
L 256.103737 133.565231 
L 257.743407 143.667385 
L 259.383076 131.202154 
L 261.022745 141.127077 
L 262.662415 140.418154 
L 264.302084 140.772615 
L 265.941754 141.363385 
L 267.581423 136.105538 
L 269.221092 139.000308 
L 270.860762 141.658769 
L 272.500431 137.405231 
L 274.140101 139.768308 
L 275.77977 165.821231 
L 277.41944 136.755385 
L 279.059109 138.291385 
L 280.698778 144.14 
L 282.338448 143.312923 
L 283.978117 123.522154 
L 285.617787 139.827385 
L 287.257456 135.514769 
L 288.897126 141.540615 
L 290.536795 145.203385 
L 292.176464 140.772615 
L 293.816134 140.654462 
L 295.455803 139.295692 
L 297.095473 142.190462 
L 298.735142 140.831692 
L 300.374811 138.586769 
L 302.014481 141.836 
L 303.65415 139.000308 
L 305.29382 148.157231 
L 306.933489 141.599692 
L 308.573159 131.024923 
L 310.212828 139.413846 
L 311.852497 140.240923 
L 313.492167 170.606462 
L 315.131836 144.021846 
L 318.411175 144.376308 
L 320.050845 139.000308 
L 321.690514 139.886462 
L 323.330183 134.274154 
L 324.969853 143.253846 
L 326.609522 139.295692 
L 328.249192 143.312923 
L 329.888861 146.325846 
L 331.52853 142.308615 
L 333.1682 143.549231 
L 334.807869 140.595385 
L 336.447539 139.709231 
L 338.087208 140.122769 
L 339.726878 130.434154 
L 341.366547 140.772615 
L 343.006216 138.527692 
L 344.645886 138.527692 
L 346.285555 142.722154 
L 347.925225 134.924 
L 349.564894 139.532 
L 351.204564 139.295692 
L 352.844233 140.890769 
L 354.483902 133.565231 
L 356.123572 138.645846 
L 357.763241 140.418154 
L 359.402911 139.295692 
L 361.04258 142.072308 
L 362.682249 127.303077 
L 364.321919 143.135692 
L 365.961588 141.245231 
L 367.601258 145.439692 
L 369.240927 143.903692 
L 372.520266 138.645846 
L 374.159935 138.764 
L 375.799605 136.400923 
L 377.439274 179.940615 
L 379.078944 162.453846 
L 379.078944 162.453846 
" style="fill:none;stroke:#1f77b4;stroke-linecap:square;stroke-width:0.5;"/>
   </g>
   <g id="line2d_16">
    <path clip-path="url(#pacebb7acfa)" d="M 64.262415 139.472923 
L 65.902084 137.346154 
L 67.541754 140.536308 
L 69.181423 139.236615 
L 70.821092 139.768308 
L 72.460762 141.717846 
L 74.100431 141.776923 
L 75.740101 138.823077 
L 77.37977 139.177538 
L 79.01944 141.127077 
L 80.659109 137.936923 
L 82.298778 139.000308 
L 83.938448 141.540615 
L 85.578117 140.359077 
L 87.217787 142.072308 
L 88.857456 139.709231 
L 90.497126 140.654462 
L 92.136795 140.654462 
L 93.776464 142.781231 
L 95.416134 140.418154 
L 97.055803 139.295692 
L 98.695473 139.413846 
L 100.335142 140.3 
L 101.974811 143.135692 
L 103.614481 139.650154 
L 105.25415 136.578154 
L 106.89382 139.709231 
L 108.533489 141.836 
L 110.173159 141.836 
L 111.812828 141.304308 
L 113.452497 138.645846 
L 115.092167 139.295692 
L 116.731836 139.413846 
L 118.371506 140.477231 
L 120.011175 137.464308 
L 121.650845 139.472923 
L 123.290514 140.772615 
L 124.930183 139.472923 
L 126.569853 142.426769 
L 128.209522 141.245231 
L 129.849192 140.536308 
L 131.488861 139.295692 
L 133.12853 143.135692 
L 134.7682 141.481538 
L 136.407869 144.376308 
L 138.047539 142.367692 
L 139.687208 140.831692 
L 141.326878 138.232308 
L 142.966547 137.996 
L 144.606216 138.527692 
L 146.245886 140.595385 
L 147.885555 143.312923 
L 149.525225 140.654462 
L 151.164894 141.127077 
L 152.804564 137.641538 
L 154.444233 142.485846 
L 156.083902 138.645846 
L 157.723572 141.422462 
L 159.363241 142.722154 
L 161.002911 141.127077 
L 162.64258 142.249538 
L 164.282249 140.418154 
L 165.921919 140.713538 
L 167.561588 140.359077 
L 169.201258 142.485846 
L 170.840927 136.873538 
L 172.480597 137.818769 
L 174.120266 139.295692 
L 175.759935 138.823077 
L 177.399605 138.055077 
L 179.039274 140.536308 
L 180.678944 140.477231 
L 182.318613 144.080923 
L 183.958283 124.644615 
L 185.597952 142.485846 
L 187.237621 139.236615 
L 188.877291 139.000308 
L 190.51696 139.236615 
L 192.15663 139.177538 
L 193.796299 138.704923 
L 195.435968 138.409538 
L 197.075638 141.599692 
L 198.715307 143.076615 
L 200.354977 140.477231 
L 201.994646 138.232308 
L 203.634316 138.586769 
L 205.273985 133.033538 
L 206.913654 141.481538 
L 208.553324 140.181846 
L 210.192993 141.836 
L 211.832663 138.764 
L 213.472332 142.190462 
L 215.112002 142.426769 
L 216.751671 142.426769 
L 218.39134 128.189231 
L 220.03101 141.658769 
L 221.670679 140.359077 
L 223.310349 141.717846 
L 224.950018 140.772615 
L 226.589687 143.017538 
L 228.229357 142.604 
L 229.869026 141.068 
L 231.508696 142.072308 
L 233.148365 146.621231 
L 234.788035 138.055077 
L 236.427704 141.422462 
L 238.067373 139.827385 
L 239.707043 138.586769 
L 241.346712 141.245231 
L 242.986382 140.654462 
L 244.626051 144.080923 
L 246.265721 138.350462 
L 247.90539 137.109846 
L 249.545059 141.127077 
L 251.184729 140.240923 
L 252.824398 140.181846 
L 254.464068 139.650154 
L 256.103737 140.595385 
L 257.743407 137.996 
L 259.383076 138.586769 
L 261.022745 139.650154 
L 262.662415 140.122769 
L 264.302084 141.422462 
L 265.941754 143.726462 
L 267.581423 145.439692 
L 269.221092 141.540615 
L 270.860762 136.164615 
L 272.500431 141.363385 
L 274.140101 120.804615 
L 275.77977 141.776923 
L 277.41944 139.000308 
L 279.059109 141.363385 
L 280.698778 142.131385 
L 282.338448 142.426769 
L 283.978117 141.481538 
L 285.617787 138.468615 
L 287.257456 139.591077 
L 288.897126 142.781231 
L 290.536795 141.304308 
L 292.176464 140.890769 
L 293.816134 141.186154 
L 295.455803 139.472923 
L 297.095473 140.240923 
L 298.735142 140.240923 
L 300.374811 141.068 
L 302.014481 140.654462 
L 303.65415 141.422462 
L 305.29382 136.400923 
L 306.933489 134.274154 
L 308.573159 141.599692 
L 310.212828 141.776923 
L 311.852497 139.768308 
L 313.492167 140.359077 
L 315.131836 140.359077 
L 316.771506 137.405231 
L 318.411175 140.713538 
L 320.050845 140.890769 
L 321.690514 139.413846 
L 323.330183 140.713538 
L 324.969853 143.667385 
L 326.609522 140.3 
L 328.249192 138.350462 
L 329.888861 139.768308 
L 333.1682 141.186154 
L 334.807869 140.595385 
L 336.447539 141.481538 
L 338.087208 143.194769 
L 339.726878 135.101231 
L 341.366547 142.604 
L 343.006216 139.472923 
L 344.645886 143.549231 
L 346.285555 139.295692 
L 347.925225 130.138769 
L 349.564894 139.827385 
L 351.204564 141.717846 
L 352.844233 142.663077 
L 354.483902 140.654462 
L 356.123572 141.717846 
L 357.763241 136.814462 
L 359.402911 140.713538 
L 361.04258 141.068 
L 362.682249 142.308615 
L 364.321919 141.422462 
L 365.961588 140.713538 
L 367.601258 152.824308 
L 369.240927 139.650154 
L 370.880597 141.481538 
L 372.520266 140.3 
L 374.159935 140.713538 
L 375.799605 153.946769 
L 377.439274 139.886462 
L 379.078944 143.667385 
L 380.718613 139.945538 
L 382.358283 140.772615 
L 382.358283 140.772615 
" style="fill:none;stroke:#ff7f0e;stroke-linecap:square;stroke-width:0.5;"/>
   </g>
   <g id="line2d_17">
    <path clip-path="url(#pacebb7acfa)" d="M 64.262415 84.117846 
L 65.902084 124.172 
L 67.541754 151.465538 
L 69.181423 140.181846 
L 70.821092 146.975692 
L 72.460762 132.915385 
L 74.100431 188.034154 
L 75.740101 122.340615 
L 77.37977 135.101231 
L 79.01944 132.324615 
L 80.659109 224.78 
L 82.298778 146.384923 
L 83.938448 155.778154 
L 85.578117 87.012615 
L 87.217787 143.194769 
L 88.857456 36.324615 
L 90.497126 29.708 
L 92.136795 145.085231 
L 93.776464 150.874769 
L 95.416134 149.575077 
L 97.055803 115.783077 
L 98.695473 137.936923 
L 100.335142 136.873538 
L 103.614481 154.714769 
L 105.25415 112.061231 
L 106.89382 144.789846 
L 108.533489 118.441538 
L 110.173159 145.085231 
L 111.812828 142.072308 
L 113.452497 141.717846 
L 115.092167 141.481538 
L 116.731836 152.824308 
L 118.371506 148.807077 
L 120.011175 146.384923 
L 121.650845 168.361538 
L 123.290514 122.636 
L 124.930183 134.924 
L 126.569853 134.215077 
L 128.209522 144.848923 
L 129.849192 136.046462 
L 131.488861 140.536308 
L 133.12853 142.013231 
L 134.7682 140.477231 
L 136.407869 141.127077 
L 138.047539 129.075385 
L 139.687208 133.624308 
L 141.326878 151.82 
L 142.966547 128.189231 
L 144.606216 144.789846 
L 146.245886 150.224923 
L 147.885555 145.321538 
L 149.525225 136.991692 
L 151.164894 159.913538 
L 152.804564 95.106154 
L 154.444233 145.321538 
L 156.083902 149.279692 
L 157.723572 135.869231 
L 159.363241 143.490154 
L 161.002911 149.456923 
L 162.64258 147.034769 
L 164.282249 141.658769 
L 165.921919 146.207692 
L 167.561588 139.886462 
L 169.201258 123.344923 
L 170.840927 148.157231 
L 172.480597 143.135692 
L 174.120266 139.709231 
L 175.759935 146.444 
L 177.399605 136.341846 
L 179.039274 144.199077 
L 180.678944 151.052 
L 182.318613 135.042154 
L 183.958283 188.034154 
L 185.597952 145.498769 
L 187.237621 136.637231 
L 188.877291 156.250769 
L 190.51696 128.839077 
L 192.15663 135.751077 
L 193.796299 138.350462 
L 195.435968 129.252615 
L 197.075638 139.000308 
L 198.715307 150.106769 
L 200.354977 139.413846 
L 201.994646 144.199077 
L 203.634316 138.527692 
L 206.913654 126.180615 
L 208.553324 168.597846 
L 210.192993 136.755385 
L 211.832663 145.498769 
L 213.472332 132.324615 
L 215.112002 137.050769 
L 216.751671 135.751077 
L 218.39134 135.101231 
L 220.03101 140.890769 
L 221.670679 137.759692 
L 223.310349 144.435385 
L 224.950018 143.726462 
L 226.589687 136.164615 
L 228.229357 143.844615 
L 229.869026 145.262462 
L 231.508696 141.599692 
L 233.148365 140.713538 
L 234.788035 131.792923 
L 236.427704 137.405231 
L 238.067373 152.588 
L 239.707043 164.698769 
L 241.346712 143.135692 
L 242.986382 136.519077 
L 244.626051 149.811385 
L 246.265721 139.886462 
L 247.90539 137.818769 
L 249.545059 145.971385 
L 251.184729 142.663077 
L 252.824398 140.595385 
L 254.464068 142.367692 
L 256.103737 141.245231 
L 257.743407 139.532 
L 259.383076 158.495692 
L 261.022745 140.654462 
L 262.662415 144.199077 
L 264.302084 133.269846 
L 265.941754 143.844615 
L 267.581423 149.516 
L 269.221092 137.582462 
L 270.860762 140.595385 
L 272.500431 139.827385 
L 274.140101 134.215077 
L 275.77977 134.864923 
L 277.41944 145.853231 
L 279.059109 143.372 
L 280.698778 139.650154 
L 282.338448 136.991692 
L 285.617787 144.199077 
L 287.257456 141.127077 
L 288.897126 142.013231 
L 290.536795 133.269846 
L 292.176464 148.984308 
L 293.816134 138.468615 
L 295.455803 135.987385 
L 297.095473 137.405231 
L 298.735142 135.514769 
L 300.374811 147.802769 
L 302.014481 135.219385 
L 303.65415 145.085231 
L 305.29382 145.026154 
L 306.933489 137.405231 
L 308.573159 138.645846 
L 310.212828 155.719077 
L 311.852497 138.882154 
L 313.492167 124.290154 
L 315.131836 148.688923 
L 316.771506 136.873538 
L 318.411175 134.156 
L 320.050845 145.085231 
L 321.690514 139.945538 
L 323.330183 157.018769 
L 324.969853 144.317231 
L 326.609522 128.957231 
L 328.249192 131.674769 
L 329.888861 147.034769 
L 331.52853 134.864923 
L 333.1682 153.415077 
L 334.807869 145.498769 
L 336.447539 144.967077 
L 338.087208 154.183077 
L 339.726878 95.815077 
L 341.366547 131.792923 
L 343.006216 162.512923 
L 344.645886 131.970154 
L 346.285555 121.631692 
L 347.925225 153.710462 
L 349.564894 139.945538 
L 351.204564 159.5 
L 352.844233 140.890769 
L 354.483902 144.317231 
L 357.763241 151.583692 
L 359.402911 148.216308 
L 361.04258 133.683385 
L 362.682249 144.848923 
L 364.321919 136.400923 
L 365.961588 147.330154 
L 367.601258 170.252 
L 369.240927 137.464308 
L 370.880597 156.191692 
L 372.520266 168.361538 
L 374.159935 147.743692 
L 375.799605 133.565231 
L 377.439274 138.055077 
L 379.078944 140.890769 
L 379.078944 140.890769 
" style="fill:none;stroke:#2ca02c;stroke-linecap:square;stroke-width:0.5;"/>
   </g>
   <g id="line2d_18">
    <path clip-path="url(#pacebb7acfa)" d="M 64.262415 137.877846 
L 65.902084 140.122769 
L 67.541754 122.517846 
L 69.181423 149.870462 
L 70.821092 136.400923 
L 72.460762 73.247692 
L 74.100431 109.639077 
L 77.37977 140.240923 
L 79.01944 96.878462 
L 80.659109 137.523385 
L 82.298778 174.682769 
L 83.938448 139.768308 
L 85.578117 22.796 
L 87.217787 124.999077 
L 88.857456 115.133231 
L 90.497126 22.796 
L 92.136795 197.250154 
L 93.776464 72.656923 
L 95.416134 229.092615 
L 97.055803 160.386154 
L 98.695473 141.599692 
L 100.335142 127.066769 
L 101.974811 157.196 
L 103.614481 264.716 
L 105.25415 131.379385 
L 106.89382 105.621846 
L 108.533489 165.171385 
L 110.173159 152.765231 
L 111.812828 150.165846 
L 113.452497 158.436615 
L 115.092167 105.149231 
L 116.731836 159.559077 
L 118.371506 140.890769 
L 120.011175 143.726462 
L 121.650845 147.920923 
L 123.290514 140.418154 
L 126.569853 186.498154 
L 128.209522 140.418154 
L 129.849192 98.650769 
L 131.488861 178.404615 
L 133.12853 152.588 
L 134.7682 121.454462 
L 136.407869 135.042154 
L 138.047539 109.461846 
L 139.687208 93.274769 
L 141.326878 141.186154 
L 142.966547 170.074769 
L 144.606216 121.572615 
L 146.245886 161.449538 
L 147.885555 138.586769 
L 149.525225 148.984308 
L 151.164894 155.128308 
L 152.804564 141.836 
L 154.444233 136.755385 
L 156.083902 109.875385 
L 157.723572 135.692 
L 159.363241 43.768308 
L 162.64258 166.234769 
L 164.282249 122.813231 
L 165.921919 106.389846 
L 167.561588 171.256308 
L 169.201258 115.192308 
L 170.840927 94.338154 
L 172.480597 160.563385 
L 174.120266 179.172615 
L 175.759935 160.799692 
L 177.399605 41.877846 
L 179.039274 137.346154 
L 180.678944 38.746769 
L 182.318613 166.471077 
L 183.958283 117.791692 
L 185.597952 144.848923 
L 187.237621 140.595385 
L 188.877291 140.831692 
L 190.51696 224.78 
L 192.15663 167.652615 
L 193.796299 141.127077 
L 195.435968 160.917846 
L 197.075638 59.600923 
L 198.715307 223.539385 
L 200.354977 173.796615 
L 201.994646 140.181846 
L 203.634316 74.133846 
L 205.273985 135.987385 
L 206.913654 136.637231 
L 208.553324 132.62 
L 210.192993 22.796 
L 211.832663 137.877846 
L 213.472332 140.536308 
L 215.112002 140.359077 
L 216.751671 144.376308 
L 218.39134 132.856308 
L 220.03101 163.989846 
L 221.670679 143.608308 
L 223.310349 163.930769 
L 224.950018 126.298769 
L 226.589687 151.583692 
L 228.229357 118.500615 
L 229.869026 126.653231 
L 231.508696 147.330154 
L 233.148365 97.410154 
L 234.788035 139.650154 
L 236.427704 98.237231 
L 238.067373 140.240923 
L 239.707043 70.471077 
L 241.346712 152.410769 
L 242.986382 140.831692 
L 246.265721 140.181846 
L 247.90539 162.099385 
L 249.545059 162.749231 
L 251.184729 122.458769 
L 252.824398 43.709231 
L 254.464068 180.117846 
L 256.103737 98.355385 
L 257.743407 140.477231 
L 261.022745 140.418154 
L 262.662415 22.796 
L 264.302084 106.685231 
L 265.941754 140.418154 
L 269.221092 140.240923 
L 270.860762 140.654462 
L 272.500431 132.679077 
L 274.140101 131.970154 
L 275.77977 138.764 
L 277.41944 132.679077 
L 279.059109 146.739385 
L 280.698778 153.237846 
L 282.338448 144.258154 
L 283.978117 149.456923 
L 285.617787 147.271077 
L 287.257456 138.527692 
L 288.897126 137.464308 
L 290.536795 133.210769 
L 292.176464 131.792923 
L 293.816134 132.679077 
L 295.455803 138.527692 
L 297.095473 145.026154 
L 298.735142 143.312923 
L 300.374811 145.439692 
L 302.014481 148.511692 
L 303.65415 146.089538 
L 305.29382 139.472923 
L 306.933489 138.527692 
L 308.573159 129.134462 
L 310.212828 136.755385 
L 311.852497 137.109846 
L 313.492167 130.670462 
L 315.131836 135.396615 
L 316.771506 137.346154 
L 318.411175 135.632923 
L 320.050845 144.553538 
L 321.690514 138.350462 
L 323.330183 143.962769 
L 324.969853 151.642769 
L 326.609522 140.890769 
L 328.249192 147.98 
L 329.888861 142.426769 
L 331.52853 155.600923 
L 333.1682 141.836 
L 334.807869 131.202154 
L 336.447539 131.733846 
L 338.087208 141.422462 
L 339.726878 119.682154 
L 341.366547 140.418154 
L 343.006216 199.731385 
L 344.645886 154.537538 
L 346.285555 179.881538 
L 347.925225 137.405231 
L 349.564894 140.359077 
L 351.204564 133.624308 
L 352.844233 140.359077 
L 354.483902 228.206462 
L 356.123572 98.591692 
L 357.763241 107.216923 
L 359.402911 129.843385 
L 361.04258 140.713538 
L 362.682249 206.761538 
L 364.321919 141.599692 
L 365.961588 106.153538 
L 367.601258 152.883385 
L 369.240927 141.658769 
L 370.880597 137.877846 
L 372.520266 241.676 
L 374.159935 120.863692 
L 375.799605 87.367077 
L 377.439274 110.288923 
L 379.078944 130.906769 
L 380.718613 142.544923 
L 380.718613 142.544923 
" style="fill:none;stroke:#d62728;stroke-linecap:square;stroke-width:0.5;"/>
   </g>
   <g id="line2d_19">
    <path clip-path="url(#pacebb7acfa)" d="M 64.262415 136.991692 
L 65.902084 135.810154 
L 67.541754 139.827385 
L 69.181423 144.376308 
L 70.821092 137.759692 
L 72.460762 141.481538 
L 74.100431 138.941231 
L 75.740101 139.413846 
L 77.37977 139.709231 
L 79.01944 143.785538 
L 80.659109 138.882154 
L 82.298778 140.654462 
L 83.938448 137.759692 
L 85.578117 141.481538 
L 87.217787 138.704923 
L 88.857456 140.831692 
L 90.497126 140.831692 
L 92.136795 141.245231 
L 93.776464 143.253846 
L 95.416134 145.026154 
L 97.055803 139.768308 
L 98.695473 123.876615 
L 100.335142 135.455692 
L 101.974811 141.245231 
L 103.614481 141.068 
L 105.25415 139.236615 
L 106.89382 142.426769 
L 108.533489 138.941231 
L 110.173159 141.127077 
L 111.812828 142.013231 
L 113.452497 137.287077 
L 115.092167 139.827385 
L 116.731836 140.240923 
L 118.371506 140.772615 
L 120.011175 141.540615 
L 121.650845 139.236615 
L 123.290514 140.240923 
L 124.930183 139.768308 
L 126.569853 140.240923 
L 128.209522 141.422462 
L 129.849192 140.654462 
L 131.488861 139.650154 
L 133.12853 140.122769 
L 134.7682 142.544923 
L 136.407869 142.426769 
L 138.047539 141.599692 
L 139.687208 140.536308 
L 141.326878 136.400923 
L 142.966547 138.645846 
L 144.606216 142.131385 
L 146.245886 140.181846 
L 147.885555 140.477231 
L 149.525225 141.481538 
L 151.164894 140.890769 
L 152.804564 135.928308 
L 154.444233 140.654462 
L 156.083902 139.945538 
L 157.723572 140.536308 
L 159.363241 141.363385 
L 161.002911 138.704923 
L 162.64258 139.886462 
L 164.282249 138.941231 
L 165.921919 143.608308 
L 167.561588 142.604 
L 169.201258 141.127077 
L 170.840927 140.477231 
L 172.480597 143.076615 
L 174.120266 136.873538 
L 175.759935 139.591077 
L 177.399605 138.409538 
L 179.039274 139.532 
L 180.678944 136.046462 
L 182.318613 140.3 
L 183.958283 141.540615 
L 185.597952 141.304308 
L 187.237621 142.190462 
L 188.877291 139.472923 
L 190.51696 138.527692 
L 192.15663 141.186154 
L 193.796299 142.249538 
L 195.435968 142.485846 
L 197.075638 142.367692 
L 198.715307 139.886462 
L 200.354977 140.240923 
L 201.994646 138.291385 
L 203.634316 161.863077 
L 205.273985 139.354769 
L 206.913654 139.945538 
L 208.553324 142.426769 
L 210.192993 139.472923 
L 211.832663 142.072308 
L 213.472332 140.477231 
L 215.112002 139.886462 
L 216.751671 139.827385 
L 218.39134 140.3 
L 220.03101 138.704923 
L 221.670679 142.013231 
L 223.310349 139.650154 
L 224.950018 139.354769 
L 226.589687 138.645846 
L 228.229357 140.831692 
L 229.869026 141.422462 
L 233.148365 139.354769 
L 234.788035 138.764 
L 236.427704 143.608308 
L 238.067373 138.291385 
L 239.707043 142.131385 
L 241.346712 127.480308 
L 242.986382 141.658769 
L 244.626051 137.700615 
L 246.265721 144.908 
L 247.90539 140.418154 
L 249.545059 139.236615 
L 251.184729 140.595385 
L 252.824398 142.485846 
L 254.464068 140.181846 
L 256.103737 140.595385 
L 257.743407 138.350462 
L 259.383076 139.354769 
L 261.022745 141.422462 
L 262.662415 139.768308 
L 264.302084 139.768308 
L 267.581423 139.472923 
L 269.221092 139.650154 
L 270.860762 140.831692 
L 272.500431 142.308615 
L 274.140101 138.823077 
L 275.77977 140.654462 
L 277.41944 140.418154 
L 279.059109 144.080923 
L 280.698778 137.818769 
L 282.338448 138.704923 
L 283.978117 142.604 
L 285.617787 139.709231 
L 287.257456 141.127077 
L 288.897126 137.877846 
L 290.536795 137.582462 
L 292.176464 138.764 
L 293.816134 141.304308 
L 295.455803 140.713538 
L 297.095473 139.354769 
L 298.735142 140.240923 
L 300.374811 142.308615 
L 302.014481 142.781231 
L 303.65415 139.650154 
L 305.29382 139.709231 
L 306.933489 138.882154 
L 308.573159 147.743692 
L 310.212828 138.232308 
L 311.852497 140.654462 
L 313.492167 141.776923 
L 315.131836 140.418154 
L 316.771506 140.240923 
L 318.411175 139.709231 
L 320.050845 138.941231 
L 321.690514 142.367692 
L 323.330183 138.350462 
L 324.969853 139.709231 
L 326.609522 139.768308 
L 328.249192 140.831692 
L 329.888861 143.312923 
L 331.52853 138.645846 
L 333.1682 142.190462 
L 334.807869 140.240923 
L 336.447539 137.936923 
L 338.087208 141.127077 
L 339.726878 139.827385 
L 341.366547 142.013231 
L 343.006216 139.000308 
L 344.645886 142.722154 
L 346.285555 141.481538 
L 349.564894 140.654462 
L 351.204564 139.650154 
L 352.844233 137.936923 
L 354.483902 140.654462 
L 356.123572 140.181846 
L 357.763241 137.346154 
L 359.402911 139.532 
L 361.04258 135.573846 
L 362.682249 140.536308 
L 364.321919 140.595385 
L 367.601258 139.827385 
L 369.240927 139.945538 
L 370.880597 139.295692 
L 372.520266 137.818769 
L 374.159935 139.354769 
L 375.799605 139.354769 
L 377.439274 139.709231 
L 380.718613 141.422462 
L 382.358283 140.3 
L 382.358283 140.3 
" style="fill:none;stroke:#9467bd;stroke-linecap:square;stroke-width:0.5;"/>
   </g>
   <g id="line2d_20">
    <path clip-path="url(#pacebb7acfa)" d="M 64.262415 220.762769 
L 65.902084 145.676 
L 67.541754 98.709846 
L 69.181423 139.650154 
L 70.821092 142.485846 
L 74.100431 150.047692 
L 75.740101 140.359077 
L 77.37977 22.796 
L 79.01944 142.663077 
L 80.659109 137.996 
L 82.298778 138.764 
L 83.938448 144.908 
L 85.578117 138.586769 
L 87.217787 136.873538 
L 88.857456 105.621846 
L 90.497126 135.632923 
L 92.136795 140.418154 
L 93.776464 135.632923 
L 97.055803 141.363385 
L 98.695473 139.413846 
L 100.335142 144.553538 
L 101.974811 149.220615 
L 103.614481 138.704923 
L 105.25415 149.456923 
L 108.533489 133.742462 
L 110.173159 142.663077 
L 111.812828 138.232308 
L 113.452497 136.873538 
L 115.092167 132.797231 
L 116.731836 140.595385 
L 118.371506 147.684615 
L 120.011175 132.738154 
L 121.650845 140.181846 
L 123.290514 141.481538 
L 124.930183 139.413846 
L 126.569853 141.186154 
L 128.209522 139.295692 
L 129.849192 134.274154 
L 131.488861 144.553538 
L 133.12853 138.527692 
L 134.7682 134.746769 
L 136.407869 133.683385 
L 138.047539 136.46 
L 139.687208 145.262462 
L 141.326878 146.384923 
L 142.966547 145.676 
L 144.606216 135.160308 
L 146.245886 141.068 
L 147.885555 136.400923 
L 149.525225 140.240923 
L 151.164894 133.919692 
L 152.804564 131.852 
L 154.444233 135.042154 
L 156.083902 147.093846 
L 157.723572 134.924 
L 159.363241 132.974462 
L 161.002911 140.831692 
L 162.64258 139.709231 
L 164.282249 141.481538 
L 165.921919 139.768308 
L 167.561588 141.717846 
L 169.201258 138.645846 
L 170.840927 137.405231 
L 172.480597 138.882154 
L 174.120266 141.186154 
L 175.759935 144.080923 
L 177.399605 142.722154 
L 179.039274 141.068 
L 180.678944 144.848923 
L 182.318613 141.363385 
L 183.958283 139.295692 
L 185.597952 143.431077 
L 187.237621 143.372 
L 188.877291 139.177538 
L 190.51696 140.359077 
L 192.15663 138.350462 
L 193.796299 140.122769 
L 195.435968 160.268 
L 197.075638 139.472923 
L 198.715307 138.586769 
L 200.354977 129.370769 
L 201.994646 138.764 
L 203.634316 140.477231 
L 205.273985 134.569538 
L 206.913654 139.354769 
L 208.553324 139.650154 
L 210.192993 144.967077 
L 211.832663 146.148615 
L 213.472332 145.321538 
L 215.112002 145.262462 
L 216.751671 150.165846 
L 218.39134 141.245231 
L 220.03101 148.039077 
L 221.670679 142.367692 
L 223.310349 140.477231 
L 224.950018 140.831692 
L 226.589687 143.076615 
L 228.229357 138.704923 
L 229.869026 141.127077 
L 231.508696 140.890769 
L 233.148365 142.485846 
L 234.788035 138.409538 
L 236.427704 146.266769 
L 238.067373 133.624308 
L 239.707043 116.728308 
L 241.346712 149.870462 
L 242.986382 142.367692 
L 244.626051 141.776923 
L 246.265721 138.645846 
L 247.90539 137.405231 
L 249.545059 140.240923 
L 251.184729 137.346154 
L 252.824398 143.017538 
L 254.464068 141.836 
L 256.103737 141.599692 
L 259.383076 142.367692 
L 261.022745 141.658769 
L 262.662415 142.131385 
L 264.302084 140.3 
L 265.941754 142.013231 
L 267.581423 139.768308 
L 269.221092 140.418154 
L 270.860762 137.700615 
L 272.500431 139.768308 
L 274.140101 140.240923 
L 275.77977 137.464308 
L 277.41944 141.836 
L 279.059109 141.363385 
L 280.698778 138.882154 
L 282.338448 141.776923 
L 283.978117 140.890769 
L 285.617787 135.869231 
L 287.257456 139.532 
L 288.897126 140.240923 
L 290.536795 133.033538 
L 292.176464 139.532 
L 293.816134 142.604 
L 295.455803 142.131385 
L 297.095473 139.236615 
L 298.735142 141.186154 
L 300.374811 137.759692 
L 302.014481 137.523385 
L 303.65415 137.109846 
L 305.29382 143.431077 
L 306.933489 138.823077 
L 308.573159 144.376308 
L 310.212828 136.046462 
L 311.852497 151.052 
L 313.492167 143.608308 
L 315.131836 145.380615 
L 316.771506 137.759692 
L 318.411175 145.676 
L 320.050845 137.109846 
L 321.690514 141.540615 
L 323.330183 138.882154 
L 324.969853 144.376308 
L 326.609522 142.013231 
L 328.249192 142.131385 
L 329.888861 138.645846 
L 331.52853 133.210769 
L 333.1682 141.599692 
L 334.807869 133.919692 
L 336.447539 140.654462 
L 338.087208 139.591077 
L 339.726878 137.582462 
L 341.366547 142.072308 
L 343.006216 134.510462 
L 344.645886 143.608308 
L 346.285555 134.274154 
L 347.925225 140.831692 
L 349.564894 145.026154 
L 351.204564 139.413846 
L 352.844233 140.831692 
L 354.483902 144.080923 
L 356.123572 140.831692 
L 357.763241 148.216308 
L 359.402911 138.645846 
L 361.04258 144.848923 
L 362.682249 138.055077 
L 364.321919 144.435385 
L 365.961588 143.903692 
L 367.601258 143.785538 
L 369.240927 143.076615 
L 370.880597 140.240923 
L 372.520266 141.186154 
L 374.159935 136.46 
L 377.439274 144.376308 
L 379.078944 142.722154 
L 380.718613 138.350462 
L 382.358283 140.240923 
L 383.997952 141.658769 
L 385.637621 137.936923 
L 385.637621 137.936923 
" style="fill:none;stroke:#8c564b;stroke-linecap:square;stroke-width:0.5;"/>
   </g>
   <g id="line2d_21">
    <path clip-path="url(#pacebb7acfa)" d="M 64.262415 139.295692 
L 67.541754 141.422462 
L 69.181423 140.890769 
L 70.821092 138.527692 
L 72.460762 134.274154 
L 74.100431 134.687692 
L 75.740101 136.519077 
L 77.37977 143.785538 
L 79.01944 141.304308 
L 80.659109 136.400923 
L 82.298778 137.523385 
L 83.938448 137.523385 
L 85.578117 139.945538 
L 87.217787 137.818769 
L 88.857456 142.072308 
L 90.497126 140.595385 
L 92.136795 137.405231 
L 93.776464 139.532 
L 95.416134 140.122769 
L 97.055803 142.604 
L 98.695473 136.696308 
L 100.335142 144.967077 
L 101.974811 136.046462 
L 103.614481 141.068 
L 105.25415 139.413846 
L 106.89382 142.426769 
L 108.533489 136.873538 
L 110.173159 141.245231 
L 111.812828 132.560923 
L 113.452497 130.906769 
L 115.092167 151.82 
L 116.731836 264.716 
L 118.371506 140.418154 
L 120.011175 125.058154 
L 121.650845 158.909231 
L 123.290514 168.184308 
L 124.930183 119.859385 
L 126.569853 147.330154 
L 128.209522 144.435385 
L 129.849192 97.351077 
L 131.488861 177.991077 
L 133.12853 142.781231 
L 134.7682 145.853231 
L 136.407869 133.328923 
L 138.047539 148.629846 
L 139.687208 259.812615 
L 141.326878 132.029231 
L 142.966547 141.836 
L 144.606216 138.527692 
L 146.245886 143.962769 
L 147.885555 132.265538 
L 149.525225 131.970154 
L 151.164894 139.295692 
L 152.804564 136.932615 
L 154.444233 152.292615 
L 156.083902 137.287077 
L 157.723572 148.275385 
L 159.363241 143.785538 
L 161.002911 137.759692 
L 162.64258 156.073538 
L 164.282249 142.663077 
L 165.921919 161.272308 
L 167.561588 153.651385 
L 169.201258 138.350462 
L 170.840927 136.814462 
L 172.480597 142.131385 
L 174.120266 139.591077 
L 175.759935 142.072308 
L 177.399605 137.346154 
L 179.039274 136.637231 
L 180.678944 135.219385 
L 182.318613 139.650154 
L 183.958283 140.477231 
L 185.597952 141.540615 
L 187.237621 138.055077 
L 188.877291 141.481538 
L 190.51696 139.650154 
L 192.15663 140.890769 
L 193.796299 140.772615 
L 195.435968 140.536308 
L 197.075638 135.987385 
L 198.715307 138.941231 
L 200.354977 136.578154 
L 201.994646 140.713538 
L 203.634316 136.932615 
L 205.273985 137.405231 
L 206.913654 141.540615 
L 208.553324 139.945538 
L 210.192993 142.426769 
L 213.472332 140.831692 
L 215.112002 137.464308 
L 216.751671 140.3 
L 218.39134 134.864923 
L 220.03101 144.789846 
L 221.670679 139.354769 
L 223.310349 140.654462 
L 224.950018 138.882154 
L 226.589687 136.341846 
L 228.229357 132.088308 
L 229.869026 138.055077 
L 233.148365 141.068 
L 234.788035 141.422462 
L 236.427704 134.864923 
L 238.067373 142.426769 
L 239.707043 143.549231 
L 241.346712 138.586769 
L 242.986382 144.376308 
L 244.626051 139.945538 
L 246.265721 142.426769 
L 247.90539 136.341846 
L 249.545059 148.275385 
L 251.184729 145.853231 
L 252.824398 136.637231 
L 254.464068 140.890769 
L 256.103737 134.096923 
L 257.743407 141.245231 
L 259.383076 140.122769 
L 261.022745 142.131385 
L 262.662415 139.532 
L 264.302084 142.308615 
L 265.941754 138.645846 
L 267.581423 139.532 
L 269.221092 142.190462 
L 272.500431 141.304308 
L 274.140101 139.591077 
L 275.77977 126.416923 
L 277.41944 137.996 
L 279.059109 143.962769 
L 280.698778 140.713538 
L 282.338448 141.068 
L 283.978117 139.768308 
L 285.617787 136.400923 
L 287.257456 145.144308 
L 288.897126 143.017538 
L 290.536795 143.667385 
L 292.176464 139.945538 
L 293.816134 139.945538 
L 295.455803 141.304308 
L 297.095473 141.658769 
L 298.735142 147.152923 
L 300.374811 141.658769 
L 302.014481 136.814462 
L 303.65415 139.413846 
L 305.29382 139.945538 
L 306.933489 141.186154 
L 308.573159 140.713538 
L 310.212828 143.076615 
L 313.492167 135.928308 
L 315.131836 143.667385 
L 316.771506 132.265538 
L 318.411175 138.350462 
L 320.050845 136.164615 
L 321.690514 140.122769 
L 323.330183 136.991692 
L 324.969853 134.805846 
L 326.609522 148.098154 
L 328.249192 139.591077 
L 329.888861 141.481538 
L 331.52853 139.354769 
L 333.1682 139.650154 
L 334.807869 139.000308 
L 336.447539 142.072308 
L 338.087208 137.582462 
L 339.726878 139.000308 
L 341.366547 144.376308 
L 343.006216 139.827385 
L 344.645886 131.852 
L 346.285555 133.210769 
L 347.925225 146.916615 
L 349.564894 142.722154 
L 351.204564 156.191692 
L 352.844233 162.749231 
L 354.483902 141.422462 
L 356.123572 151.760923 
L 357.763241 140.595385 
L 359.402911 143.431077 
L 361.04258 143.194769 
L 362.682249 160.917846 
L 364.321919 140.595385 
L 365.961588 149.929538 
L 367.601258 145.026154 
L 369.240927 144.848923 
L 370.880597 135.692 
L 370.880597 135.692 
" style="fill:none;stroke:#e377c2;stroke-linecap:square;stroke-width:0.5;"/>
   </g>
   <g id="line2d_22">
    <path clip-path="url(#pacebb7acfa)" d="M 64.262415 142.308615 
L 65.902084 137.405231 
L 67.541754 142.663077 
L 69.181423 110.643385 
L 70.821092 140.418154 
L 72.460762 139.591077 
L 74.100431 139.236615 
L 75.740101 129.961538 
L 77.37977 141.836 
L 79.01944 139.413846 
L 80.659109 150.047692 
L 82.298778 145.321538 
L 83.938448 136.400923 
L 85.578117 141.836 
L 87.217787 131.261231 
L 88.857456 138.232308 
L 90.497126 153.887692 
L 92.136795 144.848923 
L 93.776464 130.138769 
L 95.416134 168.656923 
L 97.055803 141.658769 
L 98.695473 138.941231 
L 100.335142 137.641538 
L 101.974811 139.000308 
L 103.614481 139.472923 
L 105.25415 143.844615 
L 106.89382 136.696308 
L 108.533489 132.147385 
L 110.173159 146.916615 
L 111.812828 143.903692 
L 113.452497 146.384923 
L 115.092167 140.831692 
L 116.731836 133.092615 
L 118.371506 144.435385 
L 120.011175 138.527692 
L 121.650845 141.717846 
L 123.290514 143.253846 
L 124.930183 139.827385 
L 126.569853 137.641538 
L 128.209522 144.080923 
L 129.849192 129.902462 
L 131.488861 179.290769 
L 133.12853 149.575077 
L 134.7682 131.320308 
L 136.407869 140.3 
L 138.047539 141.068 
L 139.687208 145.380615 
L 141.326878 145.380615 
L 142.966547 139.532 
L 144.606216 141.717846 
L 146.245886 159.145538 
L 147.885555 138.764 
L 149.525225 147.625538 
L 151.164894 146.148615 
L 152.804564 135.396615 
L 154.444233 139.354769 
L 156.083902 149.043385 
L 159.363241 139.591077 
L 161.002911 136.873538 
L 162.64258 132.738154 
L 164.282249 128.189231 
L 165.921919 136.400923 
L 167.561588 143.667385 
L 169.201258 135.219385 
L 170.840927 157.196 
L 172.480597 157.255077 
L 174.120266 126.653231 
L 175.759935 78.151077 
L 177.399605 136.519077 
L 179.039274 130.316 
L 180.678944 137.346154 
L 182.318613 163.280923 
L 183.958283 98.650769 
L 185.597952 128.189231 
L 187.237621 137.287077 
L 188.877291 155.719077 
L 190.51696 140.477231 
L 192.15663 156.073538 
L 193.796299 112.179385 
L 195.435968 126.003385 
L 197.075638 199.908615 
L 198.715307 145.203385 
L 200.354977 140.3 
L 201.994646 138.527692 
L 203.634316 224.366462 
L 205.273985 222.416923 
L 206.913654 140.477231 
L 208.553324 140.772615 
L 210.192993 154.655692 
L 211.832663 264.716 
L 213.472332 140.477231 
L 215.112002 137.405231 
L 216.751671 139.295692 
L 218.39134 139.886462 
L 220.03101 106.271692 
L 221.670679 139.886462 
L 223.310349 138.764 
L 224.950018 135.987385 
L 226.589687 151.760923 
L 228.229357 146.621231 
L 229.869026 106.744308 
L 231.508696 93.156615 
L 233.148365 264.716 
L 234.788035 237.068 
L 236.427704 264.716 
L 238.067373 137.700615 
L 239.707043 65.922154 
L 241.346712 63.618154 
L 242.986382 140.477231 
L 244.626051 140.536308 
L 246.265721 140.418154 
L 247.90539 157.432308 
L 249.545059 140.477231 
L 251.184729 140.418154 
L 252.824398 147.625538 
L 254.464068 175.746154 
L 256.103737 137.700615 
L 257.743407 162.808308 
L 259.383076 151.938154 
L 261.022745 118.914154 
L 262.662415 88.548615 
L 264.302084 159.086462 
L 265.941754 145.380615 
L 267.581423 141.363385 
L 269.221092 140.240923 
L 270.860762 190.515385 
L 272.500431 201.680923 
L 274.140101 138.055077 
L 275.77977 106.330769 
L 277.41944 122.222462 
L 279.059109 136.105538 
L 280.698778 142.485846 
L 282.338448 140.418154 
L 283.978117 137.346154 
L 285.617787 95.342462 
L 287.257456 112.179385 
L 288.897126 247.288308 
L 290.536795 138.941231 
L 292.176464 107.689538 
L 293.816134 139.709231 
L 295.455803 252.664308 
L 297.095473 84.767692 
L 298.735142 155.246462 
L 300.374811 140.181846 
L 302.014481 140.359077 
L 303.65415 137.287077 
L 305.29382 161.213231 
L 306.933489 133.801538 
L 308.573159 221.471692 
L 310.212828 141.186154 
L 311.852497 140.418154 
L 313.492167 140.359077 
L 315.131836 138.764 
L 316.771506 152.765231 
L 318.411175 185.139385 
L 320.050845 137.109846 
L 321.690514 142.308615 
L 323.330183 148.511692 
L 324.969853 137.759692 
L 326.609522 81.813846 
L 328.249192 141.481538 
L 329.888861 100.954769 
L 331.52853 113.124615 
L 333.1682 102.668 
L 334.807869 116.196615 
L 336.447539 221.589846 
L 338.087208 144.376308 
L 339.726878 140.654462 
L 341.366547 142.544923 
L 343.006216 154.478462 
L 344.645886 125.176308 
L 346.285555 140.359077 
L 347.925225 93.865538 
L 349.564894 211.251385 
L 351.204564 159.618154 
L 352.844233 159.559077 
L 354.483902 139.886462 
L 356.123572 140.359077 
L 357.763241 140.418154 
L 359.402911 140.3 
L 361.04258 140.477231 
L 362.682249 140.418154 
L 364.321919 98.828 
L 365.961588 140.359077 
L 367.601258 132.974462 
L 369.240927 140.477231 
L 370.880597 140.359077 
L 372.520266 139.768308 
L 374.159935 63.677231 
L 375.799605 140.418154 
L 379.078944 140.477231 
L 380.718613 136.105538 
L 382.358283 105.267385 
L 382.358283 105.267385 
" style="fill:none;stroke:#7f7f7f;stroke-linecap:square;stroke-width:0.5;"/>
   </g>
   <g id="line2d_23">
    <path clip-path="url(#pacebb7acfa)" d="M 64.262415 102.372615 
L 65.902084 140.595385 
L 67.541754 107.394154 
L 69.181423 141.127077 
L 70.821092 141.481538 
L 72.460762 141.658769 
L 74.100431 137.346154 
L 75.740101 121.631692 
L 77.37977 139.709231 
L 79.01944 139.236615 
L 80.659109 143.844615 
L 82.298778 141.481538 
L 83.938448 137.936923 
L 85.578117 139.709231 
L 87.217787 140.713538 
L 88.857456 134.569538 
L 90.497126 133.919692 
L 92.136795 134.156 
L 93.776464 144.317231 
L 95.416134 143.726462 
L 97.055803 141.776923 
L 98.695473 139.472923 
L 100.335142 140.654462 
L 101.974811 133.565231 
L 103.614481 138.823077 
L 105.25415 139.413846 
L 106.89382 142.663077 
L 108.533489 142.485846 
L 110.173159 146.089538 
L 111.812828 139.354769 
L 113.452497 132.088308 
L 115.092167 139.650154 
L 116.731836 139.886462 
L 118.371506 139.472923 
L 120.011175 140.890769 
L 121.650845 142.485846 
L 123.290514 141.422462 
L 124.930183 117.968923 
L 126.569853 141.186154 
L 128.209522 142.308615 
L 129.849192 147.152923 
L 131.488861 141.540615 
L 133.12853 141.599692 
L 134.7682 139.886462 
L 136.407869 128.307385 
L 138.047539 139.945538 
L 139.687208 143.253846 
L 141.326878 132.856308 
L 142.966547 143.962769 
L 144.606216 140.181846 
L 146.245886 140.831692 
L 147.885555 151.052 
L 149.525225 135.692 
L 151.164894 140.772615 
L 152.804564 137.405231 
L 154.444233 139.177538 
L 156.083902 140.418154 
L 157.723572 171.669846 
L 159.363241 141.776923 
L 161.002911 143.372 
L 162.64258 140.536308 
L 164.282249 132.029231 
L 165.921919 141.186154 
L 167.561588 139.827385 
L 169.201258 119.918462 
L 170.840927 139.827385 
L 172.480597 139.827385 
L 174.120266 142.072308 
L 175.759935 141.658769 
L 177.399605 142.072308 
L 179.039274 180.058769 
L 180.678944 137.759692 
L 182.318613 142.308615 
L 183.958283 140.181846 
L 185.597952 142.308615 
L 187.237621 141.658769 
L 188.877291 123.758462 
L 190.51696 146.148615 
L 192.15663 140.772615 
L 193.796299 134.864923 
L 195.435968 137.996 
L 197.075638 135.160308 
L 198.715307 141.599692 
L 200.354977 138.764 
L 201.994646 160.976923 
L 203.634316 140.418154 
L 205.273985 141.658769 
L 206.913654 139.413846 
L 208.553324 155.837231 
L 210.192993 139.532 
L 211.832663 140.359077 
L 213.472332 137.109846 
L 215.112002 140.418154 
L 216.751671 144.258154 
L 218.39134 139.472923 
L 220.03101 137.109846 
L 221.670679 141.717846 
L 223.310349 141.481538 
L 224.950018 138.350462 
L 226.589687 142.485846 
L 228.229357 143.017538 
L 229.869026 142.663077 
L 231.508696 140.831692 
L 233.148365 137.287077 
L 234.788035 138.882154 
L 236.427704 136.578154 
L 238.067373 138.350462 
L 239.707043 138.055077 
L 241.346712 137.523385 
L 242.986382 143.372 
L 244.626051 140.240923 
L 246.265721 139.000308 
L 247.90539 136.341846 
L 249.545059 140.890769 
L 251.184729 140.3 
L 252.824398 129.784308 
L 254.464068 136.814462 
L 256.103737 139.650154 
L 257.743407 139.472923 
L 259.383076 143.785538 
L 261.022745 137.996 
L 262.662415 95.992308 
L 264.302084 139.650154 
L 265.941754 135.632923 
L 267.581423 141.658769 
L 270.860762 139.768308 
L 272.500431 136.105538 
L 274.140101 141.658769 
L 275.77977 140.3 
L 277.41944 140.654462 
L 279.059109 142.013231 
L 280.698778 136.932615 
L 282.338448 139.295692 
L 283.978117 138.468615 
L 285.617787 139.472923 
L 287.257456 138.055077 
L 288.897126 138.586769 
L 290.536795 96.346769 
L 292.176464 137.877846 
L 293.816134 137.818769 
L 295.455803 140.654462 
L 297.095473 140.359077 
L 298.735142 141.836 
L 300.374811 172.556 
L 302.014481 137.936923 
L 303.65415 139.000308 
L 305.29382 153.356 
L 306.933489 144.199077 
L 308.573159 138.468615 
L 310.212828 141.422462 
L 311.852497 140.536308 
L 313.492167 139.354769 
L 315.131836 137.700615 
L 316.771506 144.730769 
L 318.411175 153.001538 
L 320.050845 135.987385 
L 321.690514 141.481538 
L 323.330183 135.810154 
L 324.969853 140.418154 
L 326.609522 108.398462 
L 328.249192 141.127077 
L 329.888861 138.823077 
L 331.52853 139.945538 
L 333.1682 136.696308 
L 334.807869 138.586769 
L 336.447539 141.422462 
L 338.087208 142.663077 
L 339.726878 138.764 
L 341.366547 137.582462 
L 343.006216 153.533231 
L 344.645886 139.886462 
L 346.285555 141.068 
L 347.925225 138.645846 
L 349.564894 140.477231 
L 351.204564 164.757846 
L 352.844233 140.772615 
L 354.483902 143.017538 
L 356.123572 141.481538 
L 357.763241 140.418154 
L 361.04258 141.717846 
L 362.682249 138.882154 
L 364.321919 138.350462 
L 365.961588 138.704923 
L 367.601258 142.485846 
L 369.240927 140.181846 
L 370.880597 139.295692 
L 372.520266 136.105538 
L 374.159935 138.232308 
L 375.799605 136.519077 
L 377.439274 144.14 
L 379.078944 103.081538 
L 380.718613 140.359077 
L 382.358283 143.253846 
L 383.997952 140.240923 
L 385.637621 139.532 
L 387.277291 145.971385 
L 388.91696 140.477231 
L 388.91696 140.477231 
" style="fill:none;stroke:#bcbd22;stroke-linecap:square;stroke-width:0.5;"/>
   </g>
   <g id="line2d_24">
    <path clip-path="url(#pacebb7acfa)" d="M 64.262415 136.755385 
L 65.902084 150.047692 
L 67.541754 87.603385 
L 69.181423 181.299385 
L 70.821092 99.655077 
L 72.460762 134.924 
L 74.100431 142.485846 
L 75.740101 130.138769 
L 77.37977 86.067385 
L 79.01944 160.799692 
L 80.659109 163.812615 
L 82.298778 132.62 
L 83.938448 151.760923 
L 85.578117 107.807692 
L 87.217787 135.455692 
L 88.857456 110.170769 
L 90.497126 155.305538 
L 92.136795 153.887692 
L 93.776464 135.396615 
L 95.416134 134.274154 
L 97.055803 150.874769 
L 98.695473 134.510462 
L 100.335142 137.405231 
L 101.974811 114.956 
L 103.614481 145.676 
L 105.25415 150.402154 
L 106.89382 148.511692 
L 108.533489 148.039077 
L 110.173159 139.295692 
L 111.812828 135.219385 
L 113.452497 140.831692 
L 115.092167 135.692 
L 116.731836 140.654462 
L 118.371506 145.971385 
L 120.011175 143.785538 
L 121.650845 135.396615 
L 123.290514 134.746769 
L 124.930183 153.001538 
L 126.569853 129.902462 
L 128.209522 150.579385 
L 129.849192 164.935077 
L 131.488861 163.221846 
L 133.12853 137.996 
L 134.7682 127.362154 
L 136.407869 149.456923 
L 138.047539 126.535077 
L 139.687208 224.602769 
L 141.326878 150.402154 
L 142.966547 156.250769 
L 144.606216 109.107385 
L 146.245886 155.778154 
L 147.885555 154.478462 
L 149.525225 162.394769 
L 151.164894 128.602769 
L 152.804564 140.654462 
L 154.444233 124.467385 
L 156.083902 117.732615 
L 157.723572 72.243385 
L 159.363241 167.475385 
L 161.002911 148.098154 
L 162.64258 151.524615 
L 164.282249 149.102462 
L 165.921919 134.924 
L 167.561588 80.632308 
L 169.201258 149.279692 
L 170.840927 149.516 
L 172.480597 138.527692 
L 174.120266 141.836 
L 175.759935 135.042154 
L 177.399605 132.797231 
L 179.039274 127.657538 
L 180.678944 133.801538 
L 182.318613 81.045846 
L 183.958283 129.725231 
L 185.597952 153.533231 
L 187.237621 108.103077 
L 188.877291 109.934462 
L 190.51696 120.568308 
L 192.15663 88.430462 
L 193.796299 152.647077 
L 195.435968 137.050769 
L 197.075638 140.181846 
L 198.715307 136.991692 
L 200.354977 185.080308 
L 201.994646 136.637231 
L 203.634316 116.905538 
L 205.273985 150.402154 
L 206.913654 147.212 
L 208.553324 155.187385 
L 210.192993 129.370769 
L 211.832663 139.886462 
L 213.472332 134.983077 
L 215.112002 160.799692 
L 216.751671 154.832923 
L 218.39134 130.256923 
L 220.03101 150.165846 
L 221.670679 151.701846 
L 223.310349 128.957231 
L 224.950018 145.203385 
L 226.589687 135.987385 
L 228.229357 134.215077 
L 229.869026 144.199077 
L 231.508696 142.013231 
L 233.148365 126.180615 
L 234.788035 143.785538 
L 236.427704 130.847692 
L 238.067373 134.687692 
L 239.707043 128.839077 
L 241.346712 151.111077 
L 242.986382 123.285846 
L 244.626051 151.524615 
L 246.265721 129.961538 
L 247.90539 129.134462 
L 249.545059 134.215077 
L 251.184729 144.317231 
L 252.824398 138.350462 
L 254.464068 133.328923 
L 256.103737 154.714769 
L 257.743407 128.307385 
L 259.383076 146.857538 
L 261.022745 113.065538 
L 262.662415 111.943077 
L 264.302084 132.206462 
L 265.941754 150.815692 
L 267.581423 148.039077 
L 269.221092 139.000308 
L 270.860762 141.304308 
L 272.500431 143.194769 
L 274.140101 132.856308 
L 275.77977 115.251385 
L 277.41944 154.183077 
L 279.059109 151.642769 
L 280.698778 155.837231 
L 282.338448 136.932615 
L 283.978117 100.659385 
L 285.617787 141.658769 
L 287.257456 133.978769 
L 288.897126 115.960308 
L 290.536795 158.554769 
L 292.176464 156.723385 
L 293.816134 128.366462 
L 295.455803 138.055077 
L 297.095473 137.582462 
L 298.735142 130.375077 
L 300.374811 137.996 
L 302.014481 138.586769 
L 303.65415 151.760923 
L 305.29382 158.732 
L 306.933489 141.068 
L 308.573159 138.586769 
L 310.212828 142.722154 
L 311.852497 124.467385 
L 313.492167 131.379385 
L 315.131836 134.805846 
L 316.771506 161.922154 
L 318.411175 148.866154 
L 320.050845 143.076615 
L 321.690514 133.092615 
L 323.330183 148.984308 
L 324.969853 156.546154 
L 326.609522 135.573846 
L 328.249192 135.632923 
L 329.888861 136.932615 
L 331.52853 149.929538 
L 333.1682 143.726462 
L 334.807869 141.068 
L 336.447539 152.115385 
L 338.087208 153.887692 
L 339.726878 142.722154 
L 341.366547 145.144308 
L 343.006216 143.431077 
L 344.645886 135.692 
L 346.285555 138.586769 
L 347.925225 131.970154 
L 349.564894 141.540615 
L 351.204564 131.024923 
L 352.844233 170.665538 
L 354.483902 136.637231 
L 356.123572 116.137538 
L 357.763241 145.971385 
L 359.402911 139.177538 
L 361.04258 137.523385 
L 362.682249 137.109846 
L 364.321919 112.297538 
L 365.961588 152.765231 
L 367.601258 147.743692 
L 369.240927 143.135692 
L 370.880597 137.464308 
L 372.520266 132.62 
L 374.159935 132.265538 
L 374.159935 132.265538 
" style="fill:none;stroke:#17becf;stroke-linecap:square;stroke-width:0.5;"/>
   </g>
   <g id="line2d_25">
    <path clip-path="url(#pacebb7acfa)" d="M 64.262415 140.3 
L 65.902084 129.370769 
L 67.541754 251.541846 
L 69.181423 22.796 
L 70.821092 94.042769 
L 72.460762 140.181846 
L 74.100431 142.131385 
L 75.740101 152.706154 
L 77.37977 127.066769 
L 79.01944 203.866769 
L 80.659109 264.716 
L 82.298778 135.632923 
L 83.938448 118.205231 
L 85.578117 109.343692 
L 87.217787 173.383077 
L 88.857456 174.092 
L 90.497126 264.716 
L 92.136795 192.524 
L 93.776464 202.212615 
L 95.416134 134.864923 
L 97.055803 181.004 
L 100.335142 100.954769 
L 101.974811 135.101231 
L 103.614481 150.992923 
L 105.25415 138.764 
L 106.89382 153.710462 
L 108.533489 34.906769 
L 110.173159 136.519077 
L 111.812828 151.170154 
L 113.452497 64.917846 
L 115.092167 140.3 
L 116.731836 100.245846 
L 118.371506 140.3 
L 120.011175 135.810154 
L 121.650845 99.596 
L 123.290514 264.716 
L 124.930183 142.544923 
L 126.569853 78.978154 
L 128.209522 123.876615 
L 129.849192 134.510462 
L 131.488861 150.579385 
L 133.12853 140.477231 
L 134.7682 150.756615 
L 136.407869 63.086462 
L 138.047539 193.705538 
L 139.687208 251.305538 
L 141.326878 164.403385 
L 142.966547 136.400923 
L 144.606216 121.868 
L 146.245886 151.347385 
L 147.885555 138.527692 
L 149.525225 148.807077 
L 151.164894 126.416923 
L 152.804564 143.135692 
L 154.444233 142.722154 
L 156.083902 210.719692 
L 157.723572 22.796 
L 159.363241 144.021846 
L 161.002911 141.481538 
L 162.64258 140.418154 
L 164.282249 152.765231 
L 165.921919 143.903692 
L 167.561588 187.502462 
L 169.201258 149.456923 
L 170.840927 134.924 
L 172.480597 201.917231 
L 174.120266 126.535077 
L 175.759935 128.366462 
L 177.399605 145.439692 
L 179.039274 70.943692 
L 180.678944 151.701846 
L 182.318613 223.716615 
L 183.958283 83.054462 
L 185.597952 136.164615 
L 187.237621 124.112923 
L 188.877291 146.384923 
L 190.51696 77.796615 
L 192.15663 149.811385 
L 193.796299 151.879077 
L 195.435968 109.107385 
L 197.075638 141.481538 
L 198.715307 22.796 
L 200.354977 140.359077 
L 201.994646 120.450154 
L 203.634316 115.369538 
L 205.273985 188.388615 
L 206.913654 107.276 
L 208.553324 168.952308 
L 210.192993 145.794154 
L 211.832663 140.359077 
L 213.472332 184.194154 
L 215.112002 140.418154 
L 216.751671 140.418154 
L 218.39134 53.456923 
L 220.03101 144.908 
L 221.670679 143.844615 
L 223.310349 128.071077 
L 224.950018 138.704923 
L 226.589687 264.716 
L 228.229357 22.796 
L 229.869026 158.318462 
L 231.508696 140.418154 
L 233.148365 148.570769 
L 234.788035 139.650154 
L 236.427704 158.909231 
L 238.067373 140.359077 
L 239.707043 140.418154 
L 241.346712 113.42 
L 242.986382 153.060615 
L 244.626051 127.421231 
L 246.265721 65.922154 
L 247.90539 140.418154 
L 249.545059 185.080308 
L 251.184729 120.391077 
L 252.824398 181.122154 
L 254.464068 125.412615 
L 256.103737 129.725231 
L 257.743407 22.796 
L 259.383076 193.469231 
L 261.022745 140.418154 
L 262.662415 140.359077 
L 264.302084 147.093846 
L 265.941754 121.749846 
L 267.581423 140.713538 
L 269.221092 187.620615 
L 270.860762 141.127077 
L 272.500431 140.654462 
L 274.140101 148.984308 
L 275.77977 210.306154 
L 277.41944 140.181846 
L 279.059109 264.716 
L 280.698778 118.087077 
L 282.338448 99.891385 
L 283.978117 118.146154 
L 285.617787 148.925231 
L 287.257456 139.532 
L 288.897126 131.143077 
L 290.536795 48.14 
L 292.176464 118.796 
L 293.816134 176.868615 
L 295.455803 198.018154 
L 297.095473 212.019385 
L 298.735142 118.796 
L 300.374811 264.716 
L 302.014481 163.162769 
L 303.65415 93.865538 
L 305.29382 240.848923 
L 306.933489 140.418154 
L 310.212828 140.418154 
L 313.492167 140.122769 
L 315.131836 259.34 
L 316.771506 156.546154 
L 318.411175 140.359077 
L 320.050845 185.552923 
L 321.690514 140.418154 
L 323.330183 130.138769 
L 324.969853 22.796 
L 326.609522 140.477231 
L 328.249192 145.380615 
L 329.888861 140.477231 
L 331.52853 140.418154 
L 333.1682 264.716 
L 334.807869 227.024923 
L 336.447539 149.043385 
L 338.087208 123.344923 
L 339.726878 144.730769 
L 341.366547 140.418154 
L 343.006216 141.422462 
L 344.645886 95.992308 
L 346.285555 135.810154 
L 347.925225 140.359077 
L 349.564894 204.634769 
L 351.204564 22.796 
L 352.844233 140.418154 
L 354.483902 147.684615 
L 356.123572 128.366462 
L 357.763241 140.418154 
L 359.402911 139.709231 
L 361.04258 60.309846 
L 362.682249 127.303077 
L 364.321919 141.422462 
L 365.961588 133.919692 
L 367.601258 139.354769 
L 369.240927 237.717846 
L 370.880597 40.578154 
L 372.520266 140.359077 
L 374.159935 149.634154 
L 375.799605 137.936923 
L 377.439274 22.796 
L 379.078944 186.38 
L 379.078944 186.38 
" style="fill:none;stroke:#1f77b4;stroke-linecap:square;stroke-width:0.5;"/>
   </g>
   <g id="line2d_26">
    <path clip-path="url(#pacebb7acfa)" d="M 64.262415 138.764 
L 65.902084 138.941231 
L 67.541754 149.870462 
L 69.181423 145.321538 
L 70.821092 131.615692 
L 72.460762 135.987385 
L 74.100431 140.890769 
L 75.740101 147.152923 
L 77.37977 168.420615 
L 79.01944 136.991692 
L 80.659109 149.220615 
L 82.298778 110.938769 
L 83.938448 140.359077 
L 85.578117 136.105538 
L 87.217787 140.831692 
L 88.857456 137.109846 
L 90.497126 145.380615 
L 92.136795 137.405231 
L 93.776464 136.637231 
L 95.416134 147.034769 
L 97.055803 140.181846 
L 98.695473 143.194769 
L 100.335142 140.890769 
L 101.974811 139.295692 
L 103.614481 144.376308 
L 105.25415 148.748 
L 106.89382 154.301231 
L 108.533489 191.106154 
L 110.173159 104.735692 
L 111.812828 152.588 
L 113.452497 108.044 
L 115.092167 131.438462 
L 116.731836 146.207692 
L 118.371506 140.772615 
L 120.011175 133.624308 
L 121.650845 157.255077 
L 123.290514 122.399692 
L 124.930183 142.308615 
L 126.569853 140.477231 
L 128.209522 133.978769 
L 129.849192 129.902462 
L 131.488861 144.967077 
L 133.12853 151.760923 
L 134.7682 141.245231 
L 136.407869 138.941231 
L 138.047539 140.359077 
L 139.687208 119.800308 
L 141.326878 151.465538 
L 142.966547 132.856308 
L 144.606216 136.637231 
L 146.245886 133.683385 
L 147.885555 139.295692 
L 149.525225 155.423692 
L 151.164894 136.46 
L 152.804564 139.591077 
L 154.444233 142.367692 
L 156.083902 97.587385 
L 157.723572 154.360308 
L 159.363241 109.107385 
L 161.002911 140.359077 
L 162.64258 142.308615 
L 164.282249 137.287077 
L 165.921919 138.409538 
L 167.561588 127.480308 
L 169.201258 142.308615 
L 170.840927 146.739385 
L 172.480597 141.599692 
L 174.120266 154.183077 
L 177.399605 130.256923 
L 179.039274 139.472923 
L 180.678944 92.920308 
L 182.318613 140.418154 
L 183.958283 146.680308 
L 185.597952 145.439692 
L 187.237621 139.709231 
L 188.877291 140.831692 
L 190.51696 213.378154 
L 193.796299 140.595385 
L 195.435968 122.931385 
L 197.075638 135.869231 
L 198.715307 119.445846 
L 200.354977 126.948615 
L 201.994646 109.402769 
L 203.634316 151.347385 
L 205.273985 143.903692 
L 206.913654 141.658769 
L 208.553324 144.848923 
L 210.192993 142.249538 
L 211.832663 138.764 
L 213.472332 135.573846 
L 215.112002 171.906154 
L 216.751671 227.497538 
L 218.39134 238.958462 
L 220.03101 213.968923 
L 221.670679 140.536308 
L 223.310349 137.818769 
L 224.950018 163.399077 
L 226.589687 140.418154 
L 228.229357 141.186154 
L 229.869026 139.650154 
L 231.508696 145.144308 
L 233.148365 250.242154 
L 234.788035 131.438462 
L 236.427704 158.200308 
L 238.067373 148.984308 
L 239.707043 131.674769 
L 241.346712 131.792923 
L 242.986382 129.902462 
L 244.626051 132.324615 
L 246.265721 226.375077 
L 247.90539 107.335077 
L 249.545059 166.825538 
L 251.184729 112.533846 
L 252.824398 143.903692 
L 254.464068 143.135692 
L 256.103737 143.549231 
L 257.743407 135.987385 
L 259.383076 157.314154 
L 261.022745 139.650154 
L 262.662415 131.320308 
L 264.302084 137.523385 
L 265.941754 140.418154 
L 267.581423 174.682769 
L 269.221092 140.3 
L 270.860762 141.127077 
L 272.500431 188.506769 
L 274.140101 133.565231 
L 275.77977 140.240923 
L 279.059109 140.359077 
L 280.698778 148.688923 
L 282.338448 130.020615 
L 283.978117 128.366462 
L 285.617787 125.648923 
L 287.257456 107.689538 
L 288.897126 129.961538 
L 290.536795 133.742462 
L 292.176464 112.829231 
L 293.816134 229.624308 
L 295.455803 181.831077 
L 298.735142 117.496308 
L 300.374811 139.945538 
L 302.014481 141.186154 
L 303.65415 105.149231 
L 305.29382 76.615077 
L 306.933489 221.294462 
L 308.573159 140.418154 
L 310.212828 145.794154 
L 311.852497 140.240923 
L 313.492167 182.658154 
L 315.131836 163.162769 
L 316.771506 109.284615 
L 318.411175 153.237846 
L 320.050845 133.978769 
L 321.690514 142.485846 
L 323.330183 142.722154 
L 324.969853 131.202154 
L 326.609522 152.883385 
L 328.249192 132.974462 
L 329.888861 140.418154 
L 331.52853 141.422462 
L 333.1682 149.988615 
L 334.807869 141.363385 
L 336.447539 143.312923 
L 338.087208 127.421231 
L 339.726878 150.224923 
L 341.366547 141.304308 
L 343.006216 211.074154 
L 344.645886 121.454462 
L 346.285555 128.543692 
L 347.925225 189.333846 
L 349.564894 141.422462 
L 351.204564 143.903692 
L 352.844233 135.632923 
L 354.483902 137.759692 
L 356.123572 137.700615 
L 357.763241 144.021846 
L 359.402911 148.984308 
L 361.04258 129.784308 
L 362.682249 157.432308 
L 364.321919 140.359077 
L 365.961588 137.582462 
L 367.601258 149.456923 
L 369.240927 132.915385 
L 370.880597 139.945538 
L 372.520266 81.282154 
L 374.159935 116.728308 
L 375.799605 189.865538 
L 377.439274 143.431077 
L 379.078944 141.836 
L 380.718613 205.875385 
L 382.358283 127.184923 
L 383.997952 130.906769 
L 383.997952 130.906769 
" style="fill:none;stroke:#ff7f0e;stroke-linecap:square;stroke-width:0.5;"/>
   </g>
   <g id="line2d_27">
    <path clip-path="url(#pacebb7acfa)" d="M 64.262415 136.519077 
L 65.902084 140.359077 
L 67.541754 137.641538 
L 69.181423 141.658769 
L 70.821092 138.645846 
L 72.460762 140.359077 
L 74.100431 137.523385 
L 75.740101 141.599692 
L 77.37977 136.105538 
L 79.01944 85.476615 
L 80.659109 137.641538 
L 82.298778 139.591077 
L 83.938448 141.068 
L 85.578117 141.422462 
L 87.217787 147.212 
L 88.857456 137.700615 
L 90.497126 138.055077 
L 92.136795 136.164615 
L 93.776464 130.256923 
L 95.416134 145.439692 
L 97.055803 142.722154 
L 98.695473 132.088308 
L 100.335142 137.464308 
L 101.974811 140.418154 
L 103.614481 140.890769 
L 105.25415 141.186154 
L 106.89382 144.317231 
L 108.533489 138.527692 
L 110.173159 146.266769 
L 111.812828 139.650154 
L 113.452497 133.683385 
L 115.092167 138.409538 
L 116.731836 137.109846 
L 118.371506 145.735077 
L 120.011175 139.591077 
L 121.650845 139.236615 
L 123.290514 146.148615 
L 124.930183 140.240923 
L 126.569853 140.122769 
L 128.209522 136.341846 
L 129.849192 141.422462 
L 131.488861 144.258154 
L 133.12853 140.3 
L 134.7682 142.604 
L 138.047539 132.265538 
L 139.687208 137.818769 
L 141.326878 147.566462 
L 142.966547 144.730769 
L 144.606216 138.882154 
L 146.245886 132.265538 
L 147.885555 126.712308 
L 149.525225 143.194769 
L 151.164894 150.815692 
L 152.804564 139.886462 
L 154.444233 144.317231 
L 156.083902 142.604 
L 157.723572 142.485846 
L 159.363241 141.776923 
L 161.002911 138.882154 
L 162.64258 142.072308 
L 164.282249 137.996 
L 165.921919 139.000308 
L 167.561588 141.363385 
L 169.201258 140.772615 
L 170.840927 138.764 
L 172.480597 135.810154 
L 174.120266 133.860615 
L 175.759935 137.818769 
L 177.399605 138.941231 
L 179.039274 152.528923 
L 180.678944 122.872308 
L 182.318613 122.222462 
L 183.958283 138.350462 
L 185.597952 141.186154 
L 187.237621 140.181846 
L 188.877291 145.380615 
L 190.51696 139.354769 
L 192.15663 143.726462 
L 193.796299 140.181846 
L 195.435968 140.713538 
L 197.075638 140.3 
L 198.715307 138.645846 
L 200.354977 139.591077 
L 201.994646 136.755385 
L 203.634316 141.717846 
L 205.273985 141.599692 
L 206.913654 143.549231 
L 208.553324 140.240923 
L 210.192993 141.363385 
L 211.832663 140.890769 
L 213.472332 132.265538 
L 215.112002 141.717846 
L 218.39134 139.709231 
L 220.03101 141.127077 
L 221.670679 140.122769 
L 223.310349 137.877846 
L 224.950018 138.645846 
L 226.589687 134.628615 
L 228.229357 129.488923 
L 229.869026 137.996 
L 231.508696 140.240923 
L 233.148365 145.085231 
L 234.788035 141.836 
L 236.427704 141.304308 
L 238.067373 137.996 
L 239.707043 139.472923 
L 241.346712 137.818769 
L 242.986382 129.784308 
L 244.626051 168.066154 
L 246.265721 139.413846 
L 247.90539 140.713538 
L 249.545059 139.472923 
L 251.184729 140.536308 
L 252.824398 143.017538 
L 254.464068 138.704923 
L 256.103737 177.991077 
L 257.743407 138.468615 
L 259.383076 142.249538 
L 261.022745 139.000308 
L 262.662415 139.532 
L 264.302084 136.164615 
L 265.941754 140.654462 
L 267.581423 137.464308 
L 269.221092 142.249538 
L 270.860762 141.127077 
L 272.500431 140.654462 
L 274.140101 195.005231 
L 275.77977 139.945538 
L 277.41944 136.578154 
L 279.059109 140.595385 
L 280.698778 139.472923 
L 282.338448 140.240923 
L 283.978117 142.367692 
L 285.617787 138.055077 
L 287.257456 140.831692 
L 288.897126 138.586769 
L 290.536795 185.139385 
L 292.176464 138.823077 
L 293.816134 132.265538 
L 295.455803 138.764 
L 297.095473 141.658769 
L 298.735142 136.637231 
L 300.374811 169.306769 
L 302.014481 140.536308 
L 303.65415 172.733231 
L 305.29382 134.924 
L 306.933489 145.794154 
L 308.573159 137.936923 
L 310.212828 119.800308 
L 311.852497 138.823077 
L 313.492167 93.392923 
L 315.131836 132.856308 
L 316.771506 139.472923 
L 318.411175 147.684615 
L 320.050845 140.654462 
L 321.690514 140.477231 
L 323.330183 140.595385 
L 324.969853 136.400923 
L 326.609522 139.472923 
L 328.249192 117.437231 
L 329.888861 138.823077 
L 331.52853 140.713538 
L 333.1682 133.151692 
L 334.807869 143.194769 
L 336.447539 141.245231 
L 338.087208 134.805846 
L 339.726878 140.3 
L 341.366547 134.510462 
L 343.006216 105.680923 
L 344.645886 148.511692 
L 346.285555 139.768308 
L 347.925225 139.709231 
L 349.564894 151.111077 
L 351.204564 127.539385 
L 352.844233 137.759692 
L 354.483902 141.540615 
L 356.123572 137.464308 
L 357.763241 142.190462 
L 359.402911 139.827385 
L 359.402911 139.827385 
" style="fill:none;stroke:#2ca02c;stroke-linecap:square;stroke-width:0.5;"/>
   </g>
   <g id="patch_3">
    <path d="M 48.029688 276.812 
L 48.029688 10.7 
" style="fill:none;stroke:#000000;stroke-linecap:square;stroke-linejoin:miter;stroke-width:0.8;"/>
   </g>
   <g id="patch_4">
    <path d="M 405.149688 276.812 
L 405.149688 10.7 
" style="fill:none;stroke:#000000;stroke-linecap:square;stroke-linejoin:miter;stroke-width:0.8;"/>
   </g>
   <g id="patch_5">
    <path d="M 48.029688 276.812 
L 405.149688 276.812 
" style="fill:none;stroke:#000000;stroke-linecap:square;stroke-linejoin:miter;stroke-width:0.8;"/>
   </g>
   <g id="patch_6">
    <path d="M 48.029688 10.7 
L 405.149688 10.7 
" style="fill:none;stroke:#000000;stroke-linecap:square;stroke-linejoin:miter;stroke-width:0.8;"/>
   </g>
  </g>
 </g>
 <defs>
  <clipPath id="pacebb7acfa">
   <rect height="266.112" width="357.12" x="48.029688" y="10.7"/>
  </clipPath>
 </defs>
</svg>
