<?xml version="1.0" encoding="utf-8" standalone="no"?>
<!DOCTYPE svg PUBLIC "-//W3C//DTD SVG 1.1//EN"
  "http://www.w3.org/Graphics/SVG/1.1/DTD/svg11.dtd">
<!-- Created with matplotlib (http://matplotlib.org/) -->
<svg height="300pt" version="1.1" viewBox="0 0 426 300" width="426pt" xmlns="http://www.w3.org/2000/svg" xmlns:xlink="http://www.w3.org/1999/xlink">
 <defs>
  <style type="text/css">
*{stroke-linecap:butt;stroke-linejoin:round;}
  </style>
 </defs>
 <g id="figure_1">
  <g id="patch_1">
   <path d="M 0 300.690125 
L 426.5575 300.690125 
L 426.5575 0 
L 0 0 
z
" style="fill:#ffffff;"/>
  </g>
  <g id="axes_1">
   <g id="patch_2">
    <path d="M 58.7375 276.812 
L 415.8575 276.812 
L 415.8575 10.7 
L 58.7375 10.7 
z
" style="fill:#ffffff;"/>
   </g>
   <g id="matplotlib.axis_1">
    <g id="xtick_1">
     <g id="line2d_1">
      <defs>
       <path d="M 0 0 
L 0 3.5 
" id="m60dd9711c0" style="stroke:#000000;stroke-width:0.8;"/>
      </defs>
      <g>
       <use style="stroke:#000000;stroke-width:0.8;" x="74.970227" xlink:href="#m60dd9711c0" y="276.812"/>
      </g>
     </g>
     <g id="text_1">
      <!-- 0 -->
      <defs>
       <path d="M 31.78125 66.40625 
Q 24.171875 66.40625 20.328125 58.90625 
Q 16.5 51.421875 16.5 36.375 
Q 16.5 21.390625 20.328125 13.890625 
Q 24.171875 6.390625 31.78125 6.390625 
Q 39.453125 6.390625 43.28125 13.890625 
Q 47.125 21.390625 47.125 36.375 
Q 47.125 51.421875 43.28125 58.90625 
Q 39.453125 66.40625 31.78125 66.40625 
M 31.78125 74.21875 
Q 44.046875 74.21875 50.515625 64.515625 
Q 56.984375 54.828125 56.984375 36.375 
Q 56.984375 17.96875 50.515625 8.265625 
Q 44.046875 -1.421875 31.78125 -1.421875 
Q 19.53125 -1.421875 13.0625 8.265625 
Q 6.59375 17.96875 6.59375 36.375 
Q 6.59375 54.828125 13.0625 64.515625 
Q 19.53125 74.21875 31.78125 74.21875 
" id="DejaVuSans-30"/>
      </defs>
      <g transform="translate(71.788977 291.410437)scale(0.1 -0.1)">
       <use xlink:href="#DejaVuSans-30"/>
      </g>
     </g>
    </g>
    <g id="xtick_2">
     <g id="line2d_2">
      <g>
       <use style="stroke:#000000;stroke-width:0.8;" x="115.961963" xlink:href="#m60dd9711c0" y="276.812"/>
      </g>
     </g>
     <g id="text_2">
      <!-- 25 -->
      <defs>
       <path d="M 19.1875 8.296875 
L 53.609375 8.296875 
L 53.609375 0 
L 7.328125 0 
L 7.328125 8.296875 
Q 12.9375 14.109375 22.625 23.890625 
Q 32.328125 33.6875 34.8125 36.53125 
Q 39.546875 41.84375 41.421875 45.53125 
Q 43.3125 49.21875 43.3125 52.78125 
Q 43.3125 58.59375 39.234375 62.25 
Q 35.15625 65.921875 28.609375 65.921875 
Q 23.96875 65.921875 18.8125 64.3125 
Q 13.671875 62.703125 7.8125 59.421875 
L 7.8125 69.390625 
Q 13.765625 71.78125 18.9375 73 
Q 24.125 74.21875 28.421875 74.21875 
Q 39.75 74.21875 46.484375 68.546875 
Q 53.21875 62.890625 53.21875 53.421875 
Q 53.21875 48.921875 51.53125 44.890625 
Q 49.859375 40.875 45.40625 35.40625 
Q 44.1875 33.984375 37.640625 27.21875 
Q 31.109375 20.453125 19.1875 8.296875 
" id="DejaVuSans-32"/>
       <path d="M 10.796875 72.90625 
L 49.515625 72.90625 
L 49.515625 64.59375 
L 19.828125 64.59375 
L 19.828125 46.734375 
Q 21.96875 47.46875 24.109375 47.828125 
Q 26.265625 48.1875 28.421875 48.1875 
Q 40.625 48.1875 47.75 41.5 
Q 54.890625 34.8125 54.890625 23.390625 
Q 54.890625 11.625 47.5625 5.09375 
Q 40.234375 -1.421875 26.90625 -1.421875 
Q 22.3125 -1.421875 17.546875 -0.640625 
Q 12.796875 0.140625 7.71875 1.703125 
L 7.71875 11.625 
Q 12.109375 9.234375 16.796875 8.0625 
Q 21.484375 6.890625 26.703125 6.890625 
Q 35.15625 6.890625 40.078125 11.328125 
Q 45.015625 15.765625 45.015625 23.390625 
Q 45.015625 31 40.078125 35.4375 
Q 35.15625 39.890625 26.703125 39.890625 
Q 22.75 39.890625 18.8125 39.015625 
Q 14.890625 38.140625 10.796875 36.28125 
z
" id="DejaVuSans-35"/>
      </defs>
      <g transform="translate(109.599463 291.410437)scale(0.1 -0.1)">
       <use xlink:href="#DejaVuSans-32"/>
       <use x="63.623047" xlink:href="#DejaVuSans-35"/>
      </g>
     </g>
    </g>
    <g id="xtick_3">
     <g id="line2d_3">
      <g>
       <use style="stroke:#000000;stroke-width:0.8;" x="156.953698" xlink:href="#m60dd9711c0" y="276.812"/>
      </g>
     </g>
     <g id="text_3">
      <!-- 50 -->
      <g transform="translate(150.591198 291.410437)scale(0.1 -0.1)">
       <use xlink:href="#DejaVuSans-35"/>
       <use x="63.623047" xlink:href="#DejaVuSans-30"/>
      </g>
     </g>
    </g>
    <g id="xtick_4">
     <g id="line2d_4">
      <g>
       <use style="stroke:#000000;stroke-width:0.8;" x="197.945434" xlink:href="#m60dd9711c0" y="276.812"/>
      </g>
     </g>
     <g id="text_4">
      <!-- 75 -->
      <defs>
       <path d="M 8.203125 72.90625 
L 55.078125 72.90625 
L 55.078125 68.703125 
L 28.609375 0 
L 18.3125 0 
L 43.21875 64.59375 
L 8.203125 64.59375 
z
" id="DejaVuSans-37"/>
      </defs>
      <g transform="translate(191.582934 291.410437)scale(0.1 -0.1)">
       <use xlink:href="#DejaVuSans-37"/>
       <use x="63.623047" xlink:href="#DejaVuSans-35"/>
      </g>
     </g>
    </g>
    <g id="xtick_5">
     <g id="line2d_5">
      <g>
       <use style="stroke:#000000;stroke-width:0.8;" x="238.937169" xlink:href="#m60dd9711c0" y="276.812"/>
      </g>
     </g>
     <g id="text_5">
      <!-- 100 -->
      <defs>
       <path d="M 12.40625 8.296875 
L 28.515625 8.296875 
L 28.515625 63.921875 
L 10.984375 60.40625 
L 10.984375 69.390625 
L 28.421875 72.90625 
L 38.28125 72.90625 
L 38.28125 8.296875 
L 54.390625 8.296875 
L 54.390625 0 
L 12.40625 0 
z
" id="DejaVuSans-31"/>
      </defs>
      <g transform="translate(229.393419 291.410437)scale(0.1 -0.1)">
       <use xlink:href="#DejaVuSans-31"/>
       <use x="63.623047" xlink:href="#DejaVuSans-30"/>
       <use x="127.246094" xlink:href="#DejaVuSans-30"/>
      </g>
     </g>
    </g>
    <g id="xtick_6">
     <g id="line2d_6">
      <g>
       <use style="stroke:#000000;stroke-width:0.8;" x="279.928905" xlink:href="#m60dd9711c0" y="276.812"/>
      </g>
     </g>
     <g id="text_6">
      <!-- 125 -->
      <g transform="translate(270.385155 291.410437)scale(0.1 -0.1)">
       <use xlink:href="#DejaVuSans-31"/>
       <use x="63.623047" xlink:href="#DejaVuSans-32"/>
       <use x="127.246094" xlink:href="#DejaVuSans-35"/>
      </g>
     </g>
    </g>
    <g id="xtick_7">
     <g id="line2d_7">
      <g>
       <use style="stroke:#000000;stroke-width:0.8;" x="320.92064" xlink:href="#m60dd9711c0" y="276.812"/>
      </g>
     </g>
     <g id="text_7">
      <!-- 150 -->
      <g transform="translate(311.37689 291.410437)scale(0.1 -0.1)">
       <use xlink:href="#DejaVuSans-31"/>
       <use x="63.623047" xlink:href="#DejaVuSans-35"/>
       <use x="127.246094" xlink:href="#DejaVuSans-30"/>
      </g>
     </g>
    </g>
    <g id="xtick_8">
     <g id="line2d_8">
      <g>
       <use style="stroke:#000000;stroke-width:0.8;" x="361.912376" xlink:href="#m60dd9711c0" y="276.812"/>
      </g>
     </g>
     <g id="text_8">
      <!-- 175 -->
      <g transform="translate(352.368626 291.410437)scale(0.1 -0.1)">
       <use xlink:href="#DejaVuSans-31"/>
       <use x="63.623047" xlink:href="#DejaVuSans-37"/>
       <use x="127.246094" xlink:href="#DejaVuSans-35"/>
      </g>
     </g>
    </g>
    <g id="xtick_9">
     <g id="line2d_9">
      <g>
       <use style="stroke:#000000;stroke-width:0.8;" x="402.904112" xlink:href="#m60dd9711c0" y="276.812"/>
      </g>
     </g>
     <g id="text_9">
      <!-- 200 -->
      <g transform="translate(393.360362 291.410437)scale(0.1 -0.1)">
       <use xlink:href="#DejaVuSans-32"/>
       <use x="63.623047" xlink:href="#DejaVuSans-30"/>
       <use x="127.246094" xlink:href="#DejaVuSans-30"/>
      </g>
     </g>
    </g>
   </g>
   <g id="matplotlib.axis_2">
    <g id="ytick_1">
     <g id="line2d_10">
      <defs>
       <path d="M 0 0 
L -3.5 0 
" id="m22d46fb31e" style="stroke:#000000;stroke-width:0.8;"/>
      </defs>
      <g>
       <use style="stroke:#000000;stroke-width:0.8;" x="58.7375" xlink:href="#m22d46fb31e" y="264.716091"/>
      </g>
     </g>
     <g id="text_10">
      <!-- 0 -->
      <g transform="translate(45.375 268.51531)scale(0.1 -0.1)">
       <use xlink:href="#DejaVuSans-30"/>
      </g>
     </g>
    </g>
    <g id="ytick_2">
     <g id="line2d_11">
      <g>
       <use style="stroke:#000000;stroke-width:0.8;" x="58.7375" xlink:href="#m22d46fb31e" y="219.202916"/>
      </g>
     </g>
     <g id="text_11">
      <!-- 500000 -->
      <g transform="translate(13.5625 223.002135)scale(0.1 -0.1)">
       <use xlink:href="#DejaVuSans-35"/>
       <use x="63.623047" xlink:href="#DejaVuSans-30"/>
       <use x="127.246094" xlink:href="#DejaVuSans-30"/>
       <use x="190.869141" xlink:href="#DejaVuSans-30"/>
       <use x="254.492188" xlink:href="#DejaVuSans-30"/>
       <use x="318.115234" xlink:href="#DejaVuSans-30"/>
      </g>
     </g>
    </g>
    <g id="ytick_3">
     <g id="line2d_12">
      <g>
       <use style="stroke:#000000;stroke-width:0.8;" x="58.7375" xlink:href="#m22d46fb31e" y="173.689742"/>
      </g>
     </g>
     <g id="text_12">
      <!-- 1000000 -->
      <g transform="translate(7.2 177.488961)scale(0.1 -0.1)">
       <use xlink:href="#DejaVuSans-31"/>
       <use x="63.623047" xlink:href="#DejaVuSans-30"/>
       <use x="127.246094" xlink:href="#DejaVuSans-30"/>
       <use x="190.869141" xlink:href="#DejaVuSans-30"/>
       <use x="254.492188" xlink:href="#DejaVuSans-30"/>
       <use x="318.115234" xlink:href="#DejaVuSans-30"/>
       <use x="381.738281" xlink:href="#DejaVuSans-30"/>
      </g>
     </g>
    </g>
    <g id="ytick_4">
     <g id="line2d_13">
      <g>
       <use style="stroke:#000000;stroke-width:0.8;" x="58.7375" xlink:href="#m22d46fb31e" y="128.176567"/>
      </g>
     </g>
     <g id="text_13">
      <!-- 1500000 -->
      <g transform="translate(7.2 131.975786)scale(0.1 -0.1)">
       <use xlink:href="#DejaVuSans-31"/>
       <use x="63.623047" xlink:href="#DejaVuSans-35"/>
       <use x="127.246094" xlink:href="#DejaVuSans-30"/>
       <use x="190.869141" xlink:href="#DejaVuSans-30"/>
       <use x="254.492188" xlink:href="#DejaVuSans-30"/>
       <use x="318.115234" xlink:href="#DejaVuSans-30"/>
       <use x="381.738281" xlink:href="#DejaVuSans-30"/>
      </g>
     </g>
    </g>
    <g id="ytick_5">
     <g id="line2d_14">
      <g>
       <use style="stroke:#000000;stroke-width:0.8;" x="58.7375" xlink:href="#m22d46fb31e" y="82.663393"/>
      </g>
     </g>
     <g id="text_14">
      <!-- 2000000 -->
      <g transform="translate(7.2 86.462611)scale(0.1 -0.1)">
       <use xlink:href="#DejaVuSans-32"/>
       <use x="63.623047" xlink:href="#DejaVuSans-30"/>
       <use x="127.246094" xlink:href="#DejaVuSans-30"/>
       <use x="190.869141" xlink:href="#DejaVuSans-30"/>
       <use x="254.492188" xlink:href="#DejaVuSans-30"/>
       <use x="318.115234" xlink:href="#DejaVuSans-30"/>
       <use x="381.738281" xlink:href="#DejaVuSans-30"/>
      </g>
     </g>
    </g>
    <g id="ytick_6">
     <g id="line2d_15">
      <g>
       <use style="stroke:#000000;stroke-width:0.8;" x="58.7375" xlink:href="#m22d46fb31e" y="37.150218"/>
      </g>
     </g>
     <g id="text_15">
      <!-- 2500000 -->
      <g transform="translate(7.2 40.949437)scale(0.1 -0.1)">
       <use xlink:href="#DejaVuSans-32"/>
       <use x="63.623047" xlink:href="#DejaVuSans-35"/>
       <use x="127.246094" xlink:href="#DejaVuSans-30"/>
       <use x="190.869141" xlink:href="#DejaVuSans-30"/>
       <use x="254.492188" xlink:href="#DejaVuSans-30"/>
       <use x="318.115234" xlink:href="#DejaVuSans-30"/>
       <use x="381.738281" xlink:href="#DejaVuSans-30"/>
      </g>
     </g>
    </g>
   </g>
   <g id="line2d_16">
    <path clip-path="url(#p166f6ad452)" d="M 74.970227 258.142987 
L 76.609897 259.640644 
L 78.249566 263.644893 
L 79.889236 261.218039 
L 81.528905 260.127544 
L 83.168574 249.604898 
L 84.808244 264.281349 
L 86.447913 262.767217 
L 88.087583 263.366716 
L 89.727252 257.568793 
L 91.366921 261.256179 
L 93.006591 246.066157 
L 94.64626 258.47933 
L 96.28593 253.328877 
L 97.925599 260.519412 
L 99.565269 243.730148 
L 101.204938 258.631344 
L 102.844607 256.112463 
L 104.484277 260.297399 
L 106.123946 253.000272 
L 107.763616 261.17198 
L 109.403285 262.959009 
L 111.042955 261.720869 
L 112.682624 262.114376 
L 114.322293 264.2504 
L 115.961963 264.249763 
L 117.601632 262.094714 
L 119.241302 240.661104 
L 120.880971 262.007966 
L 122.52064 261.43359 
L 124.16031 256.558583 
L 125.799979 259.824517 
L 127.439649 258.03503 
L 129.079318 263.868818 
L 130.718988 252.651823 
L 132.358657 259.465145 
L 133.998326 255.429492 
L 135.637996 232.253546 
L 137.277665 259.424638 
L 138.917335 262.465374 
L 140.557004 263.347055 
L 142.196674 260.652311 
L 143.836343 261.96218 
L 145.476012 260.50858 
L 147.115682 262.116287 
L 148.755351 262.446167 
L 150.395021 255.284669 
L 152.03469 263.079983 
L 153.67436 247.526766 
L 155.314029 261.635668 
L 156.953698 246.659194 
L 158.593368 256.968565 
L 160.233037 263.066967 
L 163.512376 257.748752 
L 165.152045 262.298522 
L 166.791715 259.302936 
L 168.431384 261.363591 
L 170.071054 258.419525 
L 171.710723 262.856878 
L 173.350393 261.513147 
L 174.990062 262.15024 
L 176.629731 259.272806 
L 178.269401 260.372132 
L 179.90907 263.321749 
L 181.54874 255.787863 
L 183.188409 262.968476 
L 184.828079 262.050384 
L 186.467748 263.443634 
L 188.107417 264.178854 
L 189.747087 264.033393 
L 191.386756 253.596949 
L 193.026426 251.134049 
L 194.666095 256.821285 
L 196.305764 264.573271 
L 197.945434 261.992037 
L 199.585103 262.542746 
L 201.224773 263.846971 
L 202.864442 261.416113 
L 204.504112 261.247532 
L 206.143781 260.235319 
L 207.78345 262.345856 
L 209.42312 258.74631 
L 211.062789 261.434864 
L 212.702459 237.533803 
L 214.342128 264.200154 
L 215.981798 257.478404 
L 217.621467 263.230086 
L 219.261136 262.148875 
L 220.900806 262.640326 
L 222.540475 258.969871 
L 224.180145 262.033909 
L 225.819814 263.041024 
L 227.459483 256.109459 
L 229.099153 263.682396 
L 230.738822 259.809043 
L 232.378492 260.211652 
L 234.018161 263.414596 
L 235.657831 263.305092 
L 237.2975 263.048761 
L 238.937169 258.028658 
L 242.216508 260.369856 
L 243.856178 263.016356 
L 245.495847 256.109095 
L 247.135517 251.298898 
L 248.775186 262.236897 
L 250.414855 258.125783 
L 252.054525 260.691088 
L 253.694194 258.078723 
L 255.333864 260.958796 
L 256.973533 261.981933 
L 258.613202 256.170264 
L 260.252872 261.425397 
L 261.892541 255.495395 
L 263.532211 255.614184 
L 265.17188 242.317328 
L 266.81155 263.176289 
L 268.451219 262.233985 
L 270.090888 256.524175 
L 271.730558 259.402064 
L 273.370227 260.74097 
L 275.009897 263.703969 
L 276.649566 257.616582 
L 278.289236 263.698598 
L 279.928905 263.126771 
L 281.568574 253.087566 
L 283.208244 262.544748 
L 284.847913 263.466026 
L 286.487583 246.069161 
L 288.127252 250.835119 
L 289.766921 252.219812 
L 291.406591 264.22291 
L 293.04626 259.715923 
L 294.68593 258.349344 
L 296.325599 263.919064 
L 297.965269 263.735646 
L 299.604938 262.754382 
L 301.244607 260.348374 
L 302.884277 262.348769 
L 304.523946 260.525511 
L 306.163616 262.878451 
L 307.803285 261.373148 
L 309.442955 256.252734 
L 311.082624 263.462294 
L 312.722293 256.823651 
L 314.361963 261.484292 
L 316.001632 261.999501 
L 317.641302 257.805006 
L 319.280971 222.629057 
L 320.92064 262.817008 
L 322.56031 261.882077 
L 324.199979 233.915232 
L 325.839649 259.785467 
L 327.479318 261.327362 
L 329.118988 261.183267 
L 330.758657 261.824548 
L 332.398326 263.567703 
L 334.037996 227.628224 
L 335.677665 259.338618 
L 337.317335 262.667816 
L 338.957004 260.573027 
L 340.596674 257.418691 
L 342.236343 256.197117 
L 343.876012 255.265371 
L 345.515682 262.793797 
L 347.155351 264.111403 
L 348.795021 262.21851 
L 350.43469 260.085945 
L 352.07436 250.415123 
L 353.714029 264.207527 
L 355.353698 263.021453 
L 356.993368 255.750451 
L 358.633037 259.99865 
L 360.272707 262.517987 
L 361.912376 262.296884 
L 363.552045 261.733431 
L 365.191715 264.320673 
L 366.831384 264.645182 
L 368.471054 262.502512 
L 370.110723 261.393993 
L 371.750393 257.321019 
L 373.390062 259.234211 
L 375.029731 262.70277 
L 376.669401 262.764941 
L 378.30907 262.289693 
L 379.94874 259.690071 
L 381.588409 261.875068 
L 383.228079 259.679239 
L 384.867748 255.325995 
L 386.507417 262.715059 
L 388.147087 260.389336 
L 389.786756 262.02335 
L 389.786756 262.02335 
" style="fill:none;stroke:#1f77b4;stroke-linecap:square;stroke-width:0.5;"/>
   </g>
   <g id="line2d_17">
    <path clip-path="url(#p166f6ad452)" d="M 74.970227 262.11829 
L 76.609897 255.616005 
L 78.249566 263.16482 
L 79.889236 263.429525 
L 81.528905 263.939454 
L 83.168574 264.0171 
L 84.808244 263.439264 
L 86.447913 263.111296 
L 88.087583 261.947616 
L 89.727252 261.580233 
L 91.366921 262.529911 
L 93.006591 264.056332 
L 94.64626 257.687309 
L 96.28593 263.760587 
L 97.925599 263.715347 
L 99.565269 262.593448 
L 101.204938 263.56042 
L 102.844607 263.618859 
L 104.484277 261.553381 
L 106.123946 264.479423 
L 107.763616 261.651143 
L 109.403285 262.362241 
L 111.042955 263.484869 
L 112.682624 262.374165 
L 114.322293 262.942079 
L 115.961963 261.633666 
L 117.601632 262.956643 
L 119.241302 262.158979 
L 120.880971 262.941623 
L 122.52064 262.813731 
L 124.16031 263.388654 
L 125.799979 259.87977 
L 127.439649 258.338421 
L 129.079318 260.002109 
L 130.718988 263.585635 
L 133.998326 263.960208 
L 135.637996 261.955444 
L 137.277665 261.541365 
L 138.917335 263.533386 
L 140.557004 261.563484 
L 142.196674 262.50324 
L 143.836343 259.393052 
L 145.476012 261.782767 
L 147.115682 263.282699 
L 148.755351 261.851674 
L 150.395021 263.086901 
L 152.03469 260.39325 
L 153.67436 261.77239 
L 155.314029 260.232133 
L 156.953698 263.123221 
L 158.593368 262.943444 
L 160.233037 263.925709 
L 161.872707 260.249246 
L 163.512376 261.266739 
L 165.152045 263.707883 
L 166.791715 255.139391 
L 168.431384 263.998348 
L 170.071054 251.93854 
L 171.710723 260.37996 
L 173.350393 250.024256 
L 174.990062 255.446423 
L 176.629731 262.27085 
L 178.269401 262.954185 
L 179.90907 256.550845 
L 181.54874 263.187212 
L 183.188409 262.572603 
L 184.828079 262.910583 
L 186.467748 256.442251 
L 188.107417 262.790247 
L 189.747087 258.288356 
L 191.386756 261.002853 
L 193.026426 262.090618 
L 194.666095 261.768385 
L 196.305764 263.77943 
L 197.945434 263.232544 
L 199.585103 256.412394 
L 201.224773 263.01053 
L 202.864442 261.257363 
L 204.504112 258.759509 
L 206.143781 262.568506 
L 207.78345 260.9263 
L 209.42312 262.267755 
L 211.062789 259.720292 
L 212.702459 262.065313 
L 214.342128 261.799698 
L 215.981798 264.121962 
L 217.621467 259.601776 
L 219.261136 262.560769 
L 220.900806 259.983358 
L 222.540475 229.764522 
L 224.180145 261.551833 
L 225.819814 245.301263 
L 227.459483 250.903207 
L 229.099153 263.802369 
L 230.738822 264.329957 
L 232.378492 259.942214 
L 234.018161 262.306897 
L 235.657831 263.656817 
L 237.2975 249.221222 
L 238.937169 264.155005 
L 240.576839 257.038292 
L 242.216508 264.385574 
L 243.856178 261.34402 
L 245.495847 263.981508 
L 247.135517 261.067573 
L 248.775186 262.293607 
L 250.414855 263.110841 
L 252.054525 253.178319 
L 253.694194 264.010728 
L 255.333864 261.0389 
L 256.973533 262.66554 
L 258.613202 261.721779 
L 260.252872 264.311388 
L 261.892541 260.113526 
L 263.532211 264.2078 
L 265.17188 259.269803 
L 266.81155 258.941744 
L 268.451219 261.07531 
L 270.090888 254.101326 
L 271.730558 253.416899 
L 273.370227 253.567184 
L 275.009897 263.83978 
L 276.649566 263.654087 
L 278.289236 260.88197 
L 279.928905 262.816007 
L 281.568574 259.707366 
L 283.208244 261.823729 
L 284.847913 262.197938 
L 286.487583 260.259259 
L 288.127252 256.949905 
L 289.766921 264.159374 
L 291.406591 264.615689 
L 293.04626 262.474112 
L 294.68593 262.903847 
L 296.325599 261.114816 
L 297.965269 261.50186 
L 299.604938 264.136799 
L 301.244607 262.75866 
L 302.884277 263.551227 
L 304.523946 263.005342 
L 306.163616 261.570129 
L 307.803285 262.261657 
L 309.442955 259.739225 
L 311.082624 262.969568 
L 312.722293 261.222773 
L 314.361963 262.784148 
L 316.001632 263.491787 
L 317.641302 264.548785 
L 319.280971 263.583268 
L 320.92064 262.432513 
L 322.56031 262.933249 
L 324.199979 262.340758 
L 325.839649 254.246878 
L 327.479318 263.087994 
L 329.118988 263.092909 
L 330.758657 258.373284 
L 332.398326 263.5515 
L 334.037996 263.292075 
L 335.677665 260.614444 
L 337.317335 262.381811 
L 338.957004 255.567579 
L 340.596674 260.150209 
L 342.236343 262.692666 
L 343.876012 264.099114 
L 345.515682 261.397543 
L 347.155351 261.086688 
L 348.795021 263.845697 
L 350.43469 255.992854 
L 352.07436 262.825383 
L 353.714029 256.622301 
L 355.353698 263.639704 
L 356.993368 257.651627 
L 358.633037 252.272243 
L 360.272707 260.233407 
L 361.912376 260.077206 
L 363.552045 264.369918 
L 365.191715 262.918321 
L 366.831384 257.356793 
L 368.471054 262.92806 
L 370.110723 258.779079 
L 371.750393 261.387348 
L 373.390062 263.352971 
L 375.029731 254.891162 
L 376.669401 263.096641 
L 378.30907 260.579672 
L 379.94874 247.042142 
L 381.588409 261.79724 
L 383.228079 263.433075 
L 384.867748 259.745051 
L 386.507417 261.598439 
L 388.147087 259.963423 
L 389.786756 262.992871 
L 391.426426 261.112358 
L 393.066095 263.312101 
L 393.066095 263.312101 
" style="fill:none;stroke:#ff7f0e;stroke-linecap:square;stroke-width:0.5;"/>
   </g>
   <g id="line2d_18">
    <path clip-path="url(#p166f6ad452)" d="M 74.970227 254.991018 
L 76.609897 260.41282 
L 78.249566 246.932455 
L 79.889236 240.631702 
L 81.528905 22.796 
L 83.168574 250.382354 
L 84.808244 263.166185 
L 86.447913 229.067988 
L 88.087583 247.696621 
L 89.727252 231.43349 
L 91.366921 255.285761 
L 93.006591 263.024821 
L 94.64626 263.354792 
L 96.28593 262.133218 
L 97.925599 262.49969 
L 99.565269 260.527423 
L 101.204938 262.729077 
L 102.844607 89.997113 
L 104.484277 252.215078 
L 106.123946 263.740835 
L 107.763616 257.348782 
L 109.403285 264.113861 
L 111.042955 230.349912 
L 112.682624 244.911306 
L 114.322293 241.213088 
L 115.961963 263.19413 
L 117.601632 263.922432 
L 119.241302 229.241575 
L 120.880971 262.200123 
L 122.52064 160.511857 
L 124.16031 252.43336 
L 125.799979 259.788835 
L 127.439649 261.2296 
L 129.079318 186.990967 
L 130.718988 261.149588 
L 132.358657 217.192691 
L 133.998326 256.69312 
L 135.637996 260.213746 
L 137.277665 258.580642 
L 138.917335 259.989457 
L 140.557004 255.498945 
L 142.196674 261.137117 
L 143.836343 252.9797 
L 145.476012 261.214216 
L 147.115682 254.485458 
L 148.755351 255.069028 
L 150.395021 256.417037 
L 152.03469 249.007219 
L 153.67436 206.147644 
L 155.314029 262.145962 
L 156.953698 248.171506 
L 158.593368 224.326243 
L 160.233037 163.032741 
L 161.872707 223.692427 
L 163.512376 207.550725 
L 165.152045 254.84756 
L 166.791715 225.532343 
L 168.431384 256.458818 
L 170.071054 236.454958 
L 171.710723 258.033756 
L 173.350393 169.119855 
L 174.990062 256.409208 
L 176.629731 243.662152 
L 178.269401 252.093922 
L 179.90907 257.992157 
L 181.54874 262.238627 
L 183.188409 199.736932 
L 184.828079 257.698415 
L 186.467748 250.550206 
L 188.107417 255.280118 
L 189.747087 262.996603 
L 191.386756 260.714664 
L 194.666095 262.732809 
L 196.305764 264.072535 
L 197.945434 261.65706 
L 199.585103 258.319214 
L 201.224773 262.564956 
L 202.864442 263.643801 
L 204.504112 228.44382 
L 206.143781 258.250671 
L 207.78345 259.361466 
L 209.42312 233.339308 
L 211.062789 257.106834 
L 212.702459 251.702236 
L 214.342128 260.321066 
L 215.981798 236.606335 
L 217.621467 262.987319 
L 219.261136 257.336949 
L 220.900806 262.195389 
L 222.540475 262.054754 
L 224.180145 252.700704 
L 225.819814 261.880074 
L 227.459483 252.988984 
L 229.099153 246.256949 
L 230.738822 255.209936 
L 232.378492 261.087963 
L 234.018161 263.5941 
L 235.657831 262.995693 
L 237.2975 262.043011 
L 238.937169 264.243118 
L 240.576839 251.558505 
L 242.216508 264.094108 
L 243.856178 248.79267 
L 245.495847 258.269059 
L 247.135517 260.691816 
L 248.775186 263.382373 
L 250.414855 264.396771 
L 252.054525 257.181749 
L 253.694194 254.185617 
L 255.333864 253.161934 
L 256.973533 253.053977 
L 258.613202 264.157098 
L 260.252872 264.059609 
L 261.892541 256.88919 
L 263.532211 259.437291 
L 265.17188 258.259683 
L 266.81155 215.349771 
L 268.451219 258.61596 
L 270.090888 243.839289 
L 271.730558 256.698945 
L 273.370227 264.237474 
L 275.009897 258.622332 
L 276.649566 257.37873 
L 278.289236 238.919679 
L 279.928905 261.346478 
L 281.568574 261.455345 
L 283.208244 263.7422 
L 284.847913 258.589198 
L 286.487583 245.622404 
L 288.127252 247.100308 
L 289.766921 255.73971 
L 291.406591 251.732548 
L 293.04626 263.02118 
L 294.68593 261.938058 
L 296.325599 260.466526 
L 297.965269 256.468376 
L 299.604938 259.376667 
L 301.244607 255.252446 
L 302.884277 263.709795 
L 304.523946 250.326555 
L 306.163616 262.76394 
L 307.803285 262.28505 
L 309.442955 260.307048 
L 311.082624 259.155291 
L 312.722293 262.724981 
L 314.361963 226.727063 
L 316.001632 262.568688 
L 317.641302 251.541665 
L 319.280971 254.225668 
L 320.92064 258.603672 
L 322.56031 260.71521 
L 324.199979 263.844696 
L 325.839649 263.814111 
L 327.479318 259.711098 
L 329.118988 260.629281 
L 330.758657 257.255025 
L 332.398326 260.975181 
L 334.037996 237.979286 
L 335.677665 256.121656 
L 337.317335 256.000682 
L 338.957004 232.619017 
L 340.596674 263.861991 
L 342.236343 260.929668 
L 343.876012 250.160341 
L 345.515682 201.139102 
L 347.155351 257.75476 
L 348.795021 211.596573 
L 350.43469 251.449911 
L 352.07436 258.42435 
L 353.714029 255.030705 
L 355.353698 260.701283 
L 356.993368 246.723823 
L 358.633037 244.402651 
L 360.272707 258.316028 
L 361.912376 263.97459 
L 363.552045 259.46205 
L 365.191715 260.521597 
L 366.831384 264.375561 
L 368.471054 156.869893 
L 370.110723 263.208422 
L 371.750393 263.744658 
L 373.390062 260.673247 
L 375.029731 237.312882 
L 376.669401 241.512473 
L 378.30907 244.223875 
L 379.94874 263.30318 
L 381.588409 240.328585 
L 383.228079 246.116404 
L 384.867748 262.145689 
L 386.507417 247.973615 
L 388.147087 263.540759 
L 389.786756 213.113891 
L 389.786756 213.113891 
" style="fill:none;stroke:#2ca02c;stroke-linecap:square;stroke-width:0.5;"/>
   </g>
   <g id="line2d_19">
    <path clip-path="url(#p166f6ad452)" d="M 74.970227 232.479838 
L 76.609897 252.492345 
L 78.249566 165.80158 
L 79.889236 159.270622 
L 81.528905 260.869955 
L 83.168574 253.916998 
L 84.808244 262.541198 
L 86.447913 235.330692 
L 88.087583 257.551043 
L 89.727252 231.091686 
L 91.366921 242.683527 
L 93.006591 250.373706 
L 94.64626 256.490222 
L 96.28593 247.52977 
L 97.925599 212.052615 
L 99.565269 256.80845 
L 101.204938 248.105967 
L 102.844607 254.829264 
L 104.484277 243.661241 
L 106.123946 260.097323 
L 107.763616 262.839128 
L 109.403285 262.495685 
L 111.042955 262.671548 
L 112.682624 257.599014 
L 114.322293 261.4771 
L 115.961963 213.977367 
L 117.601632 259.529137 
L 119.241302 255.955624 
L 120.880971 263.985696 
L 122.52064 261.584694 
L 124.16031 264.047594 
L 125.799979 262.032543 
L 127.439649 264.275888 
L 129.079318 264.372011 
L 130.718988 253.123339 
L 132.358657 260.169598 
L 133.998326 260.374862 
L 135.637996 261.920399 
L 137.277665 257.199499 
L 138.917335 262.519989 
L 140.557004 257.165819 
L 142.196674 262.93425 
L 143.836343 262.879999 
L 145.476012 257.658454 
L 147.115682 263.047669 
L 148.755351 260.957613 
L 150.395021 247.874487 
L 152.03469 263.343505 
L 153.67436 259.200714 
L 155.314029 254.373677 
L 156.953698 260.632376 
L 158.593368 263.027006 
L 160.233037 245.785068 
L 161.872707 261.599622 
L 163.512376 259.903801 
L 165.152045 239.597188 
L 166.791715 237.094145 
L 168.431384 263.733371 
L 170.071054 261.868423 
L 171.710723 206.220647 
L 173.350393 262.355141 
L 174.990062 260.899538 
L 176.629731 231.645945 
L 178.269401 261.889723 
L 179.90907 237.151947 
L 181.54874 209.351681 
L 183.188409 260.363029 
L 184.828079 254.606796 
L 186.467748 255.176985 
L 188.107417 237.685179 
L 189.747087 262.744096 
L 191.386756 198.883105 
L 193.026426 251.872182 
L 194.666095 249.852307 
L 196.305764 244.566589 
L 197.945434 244.88418 
L 199.585103 264.172664 
L 201.224773 262.557219 
L 202.864442 263.274052 
L 206.143781 253.441021 
L 207.78345 254.80141 
L 209.42312 257.608299 
L 211.062789 250.861426 
L 212.702459 241.955225 
L 214.342128 251.523369 
L 215.981798 258.998271 
L 217.621467 258.334598 
L 219.261136 251.948098 
L 220.900806 256.550481 
L 222.540475 243.19109 
L 224.180145 258.138527 
L 225.819814 249.857405 
L 227.459483 261.130654 
L 229.099153 231.406273 
L 230.738822 238.273756 
L 232.378492 257.740196 
L 234.018161 176.036492 
L 235.657831 258.920534 
L 237.2975 254.457786 
L 238.937169 250.872895 
L 240.576839 262.437064 
L 242.216508 261.553381 
L 243.856178 220.485569 
L 245.495847 258.932368 
L 247.135517 180.213054 
L 248.775186 263.528197 
L 250.414855 131.582409 
L 252.054525 236.110788 
L 253.694194 248.875686 
L 255.333864 236.382228 
L 256.973533 252.221632 
L 258.613202 261.804613 
L 260.252872 243.925218 
L 261.892541 193.840973 
L 263.532211 249.186723 
L 265.17188 253.892876 
L 266.81155 254.964165 
L 268.451219 261.570493 
L 271.730558 264.715818 
L 273.370227 249.141028 
L 275.009897 261.959995 
L 276.649566 262.015066 
L 278.289236 264.716 
L 279.928905 264.713087 
L 281.568574 263.76259 
L 283.208244 234.348245 
L 284.847913 260.704287 
L 286.487583 252.759325 
L 288.127252 242.649392 
L 289.766921 261.073945 
L 291.406591 73.916853 
L 293.04626 255.477463 
L 294.68593 251.790805 
L 296.325599 241.708089 
L 297.965269 240.254398 
L 299.604938 257.283061 
L 301.244607 261.024335 
L 302.884277 254.350648 
L 304.523946 245.78616 
L 306.163616 228.264954 
L 307.803285 240.569622 
L 309.442955 242.253974 
L 311.082624 140.760323 
L 312.722293 255.783766 
L 314.361963 258.664477 
L 316.001632 264.307201 
L 317.641302 262.072868 
L 319.280971 228.14844 
L 320.92064 248.751526 
L 322.56031 261.932232 
L 324.199979 187.212525 
L 325.839649 251.470119 
L 327.479318 239.030913 
L 329.118988 257.287522 
L 332.398326 151.290979 
L 334.037996 257.248289 
L 335.677665 246.224998 
L 337.317335 244.023708 
L 338.957004 237.73042 
L 340.596674 196.213939 
L 342.236343 247.876034 
L 343.876012 42.078931 
L 345.515682 263.364168 
L 347.155351 146.547596 
L 348.795021 81.255124 
L 350.43469 248.492738 
L 352.07436 251.835772 
L 353.714029 246.610131 
L 355.353698 222.940731 
L 356.993368 257.740924 
L 358.633037 254.586679 
L 360.272707 252.494984 
L 361.912376 249.894726 
L 363.552045 263.505168 
L 365.191715 250.315176 
L 366.831384 264.152001 
L 368.471054 261.158872 
L 370.110723 263.489238 
L 371.750393 261.24562 
L 373.390062 235.646098 
L 375.029731 251.944366 
L 376.669401 255.92422 
L 378.30907 255.523158 
L 379.94874 256.29142 
L 381.588409 251.858983 
L 383.228079 259.299295 
L 384.867748 249.991851 
L 386.507417 258.54232 
L 388.147087 257.335948 
L 389.786756 254.811332 
L 391.426426 263.252387 
L 391.426426 263.252387 
" style="fill:none;stroke:#d62728;stroke-linecap:square;stroke-width:0.5;"/>
   </g>
   <g id="line2d_20">
    <path clip-path="url(#p166f6ad452)" d="M 74.970227 257.287886 
L 76.609897 261.74044 
L 78.249566 262.372709 
L 79.889236 262.457272 
L 81.528905 261.994949 
L 83.168574 260.317698 
L 84.808244 251.654902 
L 86.447913 254.966259 
L 88.087583 261.315165 
L 89.727252 263.166458 
L 91.366921 258.946477 
L 93.006591 260.672063 
L 94.64626 263.582722 
L 96.28593 263.770964 
L 97.925599 263.387379 
L 99.565269 261.6952 
L 104.484277 261.065115 
L 106.123946 262.114376 
L 107.763616 263.541214 
L 109.403285 262.769037 
L 111.042955 264.328046 
L 112.682624 263.731095 
L 114.322293 264.479058 
L 115.961963 263.234728 
L 117.601632 264.116227 
L 119.241302 262.161163 
L 120.880971 264.207527 
L 122.52064 262.960557 
L 124.16031 264.11732 
L 125.799979 262.609559 
L 130.718988 263.896763 
L 132.358657 263.285976 
L 133.998326 263.596649 
L 135.637996 262.986681 
L 137.277665 262.805721 
L 138.917335 262.28414 
L 140.557004 263.99316 
L 142.196674 263.572527 
L 145.476012 261.359403 
L 147.115682 263.148617 
L 148.755351 263.025004 
L 150.395021 262.635411 
L 152.03469 264.311752 
L 153.67436 262.921689 
L 155.314029 264.606859 
L 156.953698 262.202216 
L 158.593368 263.8477 
L 160.233037 259.945491 
L 161.872707 264.510645 
L 163.512376 262.76221 
L 165.152045 254.738784 
L 166.791715 261.401093 
L 168.431384 260.24515 
L 170.071054 262.441616 
L 173.350393 264.157553 
L 174.990062 263.365351 
L 176.629731 264.328774 
L 178.269401 262.535373 
L 179.90907 262.939894 
L 181.54874 262.181735 
L 183.188409 261.983844 
L 184.828079 263.689678 
L 186.467748 264.2007 
L 188.107417 262.332202 
L 189.747087 262.543474 
L 191.386756 263.274507 
L 193.026426 261.690193 
L 194.666095 263.440903 
L 196.305764 262.84468 
L 197.945434 263.577442 
L 199.585103 261.079679 
L 201.224773 264.418435 
L 202.864442 261.171252 
L 204.504112 262.336025 
L 206.143781 262.481758 
L 207.78345 263.667467 
L 209.42312 263.999168 
L 211.062789 264.026657 
L 212.702459 263.340956 
L 214.342128 252.798102 
L 215.981798 253.547158 
L 217.621467 262.991142 
L 219.261136 263.625868 
L 220.900806 260.120808 
L 222.540475 264.008816 
L 224.180145 264.514559 
L 225.819814 263.864266 
L 227.459483 261.346842 
L 229.099153 263.655361 
L 230.738822 260.853297 
L 232.378492 264.50227 
L 234.018161 263.602202 
L 235.657831 262.837125 
L 237.2975 262.350407 
L 238.937169 263.475675 
L 240.576839 264.068985 
L 242.216508 264.212806 
L 243.856178 263.694411 
L 245.495847 264.603218 
L 247.135517 263.971587 
L 248.775186 260.699007 
L 250.414855 264.351622 
L 252.054525 262.846319 
L 253.694194 260.618358 
L 255.333864 264.043588 
L 256.973533 264.256226 
L 258.613202 260.218206 
L 260.252872 263.688859 
L 261.892541 264.111949 
L 263.532211 262.126118 
L 265.17188 261.523342 
L 266.81155 262.990687 
L 268.451219 264.156097 
L 270.090888 262.131125 
L 271.730558 263.137785 
L 273.370227 263.377275 
L 275.009897 264.127879 
L 276.649566 261.969826 
L 278.289236 262.152152 
L 279.928905 264.057424 
L 281.568574 261.844028 
L 283.208244 264.027568 
L 284.847913 261.413564 
L 286.487583 263.60202 
L 288.127252 262.443709 
L 289.766921 260.401169 
L 291.406591 261.408193 
L 293.04626 263.548041 
L 294.68593 263.255118 
L 296.325599 262.686203 
L 297.965269 264.226824 
L 299.604938 262.99633 
L 301.244607 264.423896 
L 302.884277 263.729912 
L 304.523946 263.486598 
L 306.163616 261.947434 
L 307.803285 262.391005 
L 309.442955 263.75376 
L 311.082624 263.333856 
L 312.722293 262.384451 
L 314.361963 262.635502 
L 316.001632 264.231376 
L 317.641302 263.984694 
L 319.280971 262.221878 
L 320.92064 261.832649 
L 322.56031 264.086735 
L 325.839649 259.687522 
L 327.479318 264.175121 
L 329.118988 264.232013 
L 330.758657 263.92489 
L 332.398326 264.031937 
L 334.037996 263.663189 
L 335.677665 263.471579 
L 337.317335 263.457379 
L 338.957004 263.272504 
L 340.596674 263.847609 
L 342.236343 262.534554 
L 343.876012 263.332855 
L 345.515682 261.599622 
L 347.155351 263.318199 
L 348.795021 264.046137 
L 350.43469 263.568431 
L 352.07436 262.785877 
L 353.714029 263.975865 
L 356.993368 262.202398 
L 358.633037 264.387941 
L 360.272707 263.077708 
L 361.912376 262.759025 
L 363.552045 261.470638 
L 365.191715 263.941002 
L 366.831384 264.251037 
L 368.471054 259.285277 
L 370.110723 263.911145 
L 371.750393 261.54537 
L 373.390062 260.974453 
L 375.029731 263.263584 
L 376.669401 263.595557 
L 378.30907 264.403507 
L 379.94874 264.047411 
L 381.588409 259.615794 
L 383.228079 263.246015 
L 384.867748 263.621681 
L 386.507417 264.41798 
L 388.147087 262.082426 
L 389.786756 258.889585 
L 391.426426 261.447335 
L 393.066095 263.043573 
L 393.066095 263.043573 
" style="fill:none;stroke:#9467bd;stroke-linecap:square;stroke-width:0.5;"/>
   </g>
   <g id="line2d_21">
    <path clip-path="url(#p166f6ad452)" d="M 74.970227 264.065344 
L 76.609897 263.630329 
L 78.249566 263.786621 
L 79.889236 263.497157 
L 81.528905 262.723615 
L 83.168574 258.077812 
L 84.808244 256.894652 
L 86.447913 252.348887 
L 88.087583 251.10219 
L 89.727252 177.426282 
L 91.366921 264.136617 
L 93.006591 264.116409 
L 94.64626 263.579809 
L 96.28593 263.532293 
L 97.925599 262.949816 
L 99.565269 261.632118 
L 101.204938 263.670835 
L 102.844607 260.353926 
L 104.484277 261.364046 
L 106.123946 253.068086 
L 107.763616 252.419159 
L 109.403285 255.969005 
L 111.042955 257.393112 
L 112.682624 262.836397 
L 114.322293 240.15609 
L 115.961963 250.940527 
L 117.601632 255.980201 
L 119.241302 264.419163 
L 120.880971 261.208664 
L 122.52064 258.811849 
L 124.16031 260.169962 
L 125.799979 259.397239 
L 127.439649 259.455587 
L 129.079318 253.686974 
L 130.718988 234.180847 
L 132.358657 255.22887 
L 133.998326 260.670789 
L 135.637996 183.25388 
L 137.277665 261.880165 
L 138.917335 260.272731 
L 140.557004 261.958903 
L 142.196674 225.254985 
L 143.836343 263.951743 
L 145.476012 263.557781 
L 147.115682 258.860821 
L 148.755351 259.438292 
L 150.395021 256.528817 
L 152.03469 223.320311 
L 153.67436 264.571177 
L 155.314029 250.086154 
L 156.953698 263.159267 
L 158.593368 262.568962 
L 160.233037 258.717182 
L 161.872707 261.807799 
L 163.512376 251.032828 
L 165.152045 259.040871 
L 166.791715 264.199425 
L 168.431384 257.605386 
L 170.071054 261.385892 
L 171.710723 260.756627 
L 173.350393 247.854188 
L 174.990062 260.790853 
L 176.629731 256.683835 
L 178.269401 263.22954 
L 179.90907 260.104787 
L 181.54874 263.373725 
L 183.188409 259.706092 
L 184.828079 260.739514 
L 186.467748 254.38105 
L 188.107417 261.361588 
L 189.747087 264.222364 
L 191.386756 258.511371 
L 193.026426 263.526104 
L 194.666095 263.415962 
L 196.305764 263.843148 
L 197.945434 254.651035 
L 199.585103 261.157507 
L 201.224773 262.052751 
L 202.864442 260.987652 
L 204.504112 259.420997 
L 206.143781 262.625216 
L 207.78345 242.563555 
L 209.42312 257.738102 
L 211.062789 257.875006 
L 212.702459 264.271336 
L 214.342128 263.433439 
L 215.981798 247.177589 
L 217.621467 182.186505 
L 219.261136 253.01875 
L 220.900806 249.323444 
L 222.540475 247.041778 
L 224.180145 245.441717 
L 225.819814 244.975298 
L 227.459483 219.600246 
L 229.099153 248.282012 
L 230.738822 262.971662 
L 232.378492 257.081529 
L 234.018161 224.178508 
L 235.657831 245.812285 
L 237.2975 257.761496 
L 238.937169 257.464295 
L 240.576839 262.870168 
L 242.216508 261.596527 
L 243.856178 253.195796 
L 245.495847 260.425928 
L 247.135517 258.049594 
L 248.775186 258.346977 
L 250.414855 251.583902 
L 252.054525 263.684125 
L 253.694194 263.612397 
L 255.333864 259.007465 
L 256.973533 261.332824 
L 258.613202 261.84248 
L 260.252872 263.647988 
L 261.892541 260.690997 
L 263.532211 245.657904 
L 265.17188 263.310826 
L 266.81155 258.826595 
L 268.451219 247.071726 
L 270.090888 263.254936 
L 271.730558 263.127044 
L 273.370227 256.63996 
L 275.009897 264.100571 
L 276.649566 247.987633 
L 278.289236 262.342033 
L 279.928905 261.750635 
L 281.568574 260.603612 
L 283.208244 261.438323 
L 284.847913 263.90541 
L 286.487583 254.563376 
L 288.127252 262.585801 
L 289.766921 258.585193 
L 291.406591 259.154017 
L 293.04626 256.559493 
L 294.68593 260.466344 
L 296.325599 259.035774 
L 297.965269 260.049989 
L 299.604938 262.392917 
L 301.244607 263.919701 
L 302.884277 262.305076 
L 304.523946 263.214065 
L 306.163616 259.072366 
L 307.803285 260.608436 
L 309.442955 263.89385 
L 311.082624 256.808086 
L 312.722293 257.68913 
L 314.361963 263.98788 
L 316.001632 260.41191 
L 317.641302 261.807344 
L 319.280971 261.246622 
L 320.92064 259.536328 
L 322.56031 263.213792 
L 324.199979 258.447744 
L 325.839649 260.4607 
L 327.479318 258.647546 
L 329.118988 257.986513 
L 330.758657 261.306517 
L 332.398326 258.917804 
L 334.037996 243.342194 
L 335.677665 245.487048 
L 337.317335 259.302663 
L 338.957004 252.132153 
L 340.596674 261.604355 
L 342.236343 256.733899 
L 343.876012 263.322478 
L 345.515682 261.674355 
L 347.155351 255.392535 
L 348.795021 255.375968 
L 350.43469 262.915044 
L 352.07436 262.073778 
L 353.714029 259.325693 
L 355.353698 259.631268 
L 356.993368 261.022151 
L 358.633037 264.060155 
L 361.912376 262.531095 
L 365.191715 260.32325 
L 366.831384 258.947569 
L 368.471054 251.566334 
L 370.110723 264.196057 
L 371.750393 257.547584 
L 373.390062 264.179218 
L 375.029731 263.614945 
L 376.669401 260.581037 
L 378.30907 264.032301 
L 379.94874 256.927604 
L 381.588409 264.097567 
L 383.228079 252.176756 
L 384.867748 258.325404 
L 386.507417 259.743777 
L 388.147087 258.917348 
L 389.786756 262.145052 
L 391.426426 263.250021 
L 393.066095 244.514249 
L 394.705764 258.888948 
L 396.345434 263.443634 
L 396.345434 263.443634 
" style="fill:none;stroke:#8c564b;stroke-linecap:square;stroke-width:0.5;"/>
   </g>
   <g id="line2d_22">
    <path clip-path="url(#p166f6ad452)" d="M 74.970227 220.320447 
L 76.609897 263.698234 
L 78.249566 263.38119 
L 79.889236 263.687402 
L 81.528905 249.589696 
L 83.168574 263.906321 
L 84.808244 263.843603 
L 86.447913 264.45967 
L 88.087583 263.084717 
L 89.727252 240.249301 
L 91.366921 258.91662 
L 93.006591 261.958812 
L 94.64626 259.871851 
L 96.28593 260.340636 
L 97.925599 264.610683 
L 99.565269 255.457619 
L 101.204938 262.293516 
L 102.844607 252.306287 
L 104.484277 253.606052 
L 106.123946 262.702406 
L 107.763616 263.765503 
L 109.403285 264.567991 
L 111.042955 262.826384 
L 112.682624 258.340241 
L 114.322293 263.171465 
L 115.961963 257.445179 
L 117.601632 251.088536 
L 119.241302 262.796163 
L 120.880971 262.500965 
L 122.52064 245.473576 
L 124.16031 253.062716 
L 125.799979 238.045189 
L 127.439649 243.094056 
L 129.079318 240.294177 
L 130.718988 260.686264 
L 132.358657 254.723947 
L 133.998326 258.579095 
L 135.637996 254.298125 
L 137.277665 252.45466 
L 138.917335 232.145953 
L 140.557004 263.059776 
L 142.196674 260.884974 
L 143.836343 256.469104 
L 145.476012 252.787907 
L 147.115682 217.226097 
L 148.755351 245.06241 
L 150.395021 241.679871 
L 152.03469 187.683314 
L 153.67436 248.889613 
L 155.314029 237.130192 
L 156.953698 258.114132 
L 158.593368 262.097354 
L 160.233037 241.665033 
L 161.872707 262.280954 
L 163.512376 259.850004 
L 165.152045 262.374893 
L 166.791715 239.683936 
L 168.431384 256.672093 
L 170.071054 251.374632 
L 171.710723 261.642495 
L 173.350393 256.015246 
L 174.990062 256.173541 
L 176.629731 250.029627 
L 178.269401 263.682942 
L 179.90907 229.626253 
L 181.54874 259.626353 
L 183.188409 263.712526 
L 184.828079 263.357887 
L 186.467748 260.361937 
L 188.107417 262.995784 
L 189.747087 263.080074 
L 191.386756 263.535206 
L 193.026426 257.061594 
L 194.666095 256.410483 
L 196.305764 262.527636 
L 197.945434 259.764349 
L 199.585103 258.057878 
L 201.224773 258.682774 
L 202.864442 263.473672 
L 204.504112 232.268566 
L 206.143781 260.104332 
L 207.78345 258.088736 
L 209.42312 251.517999 
L 211.062789 258.961132 
L 212.702459 261.606449 
L 214.342128 257.662186 
L 215.981798 254.359295 
L 217.621467 257.453736 
L 219.261136 259.500372 
L 220.900806 257.188667 
L 222.540475 243.540358 
L 224.180145 260.949512 
L 225.819814 259.954048 
L 227.459483 251.149797 
L 229.099153 248.696728 
L 230.738822 246.88849 
L 232.378492 259.746052 
L 234.018161 263.777336 
L 235.657831 263.001064 
L 237.2975 259.067815 
L 238.937169 252.258043 
L 240.576839 259.082652 
L 242.216508 262.687205 
L 243.856178 256.846863 
L 245.495847 260.635653 
L 247.135517 254.58504 
L 248.775186 260.401442 
L 250.414855 246.402591 
L 252.054525 261.557932 
L 253.694194 264.004629 
L 255.333864 260.653858 
L 256.973533 260.172693 
L 258.613202 255.096153 
L 260.252872 131.169332 
L 261.892541 251.774875 
L 263.532211 252.059878 
L 265.17188 253.543335 
L 266.81155 264.438461 
L 268.451219 262.173634 
L 270.090888 262.111645 
L 271.730558 258.174938 
L 273.370227 264.448292 
L 275.009897 248.790212 
L 276.649566 262.510158 
L 278.289236 257.519275 
L 279.928905 261.678724 
L 281.568574 261.850308 
L 283.208244 258.441281 
L 284.847913 258.41816 
L 286.487583 262.646425 
L 288.127252 261.681364 
L 289.766921 249.373782 
L 291.406591 259.493545 
L 293.04626 263.681212 
L 294.68593 262.702224 
L 296.325599 259.542608 
L 297.965269 259.216006 
L 299.604938 263.145978 
L 301.244607 259.671229 
L 302.884277 262.807633 
L 304.523946 259.916727 
L 306.163616 251.02764 
L 307.803285 263.021636 
L 309.442955 262.759298 
L 311.082624 247.395506 
L 312.722293 264.262507 
L 314.361963 256.827384 
L 316.001632 263.698872 
L 317.641302 258.898142 
L 319.280971 261.342563 
L 320.92064 263.562332 
L 322.56031 256.0005 
L 324.199979 229.929461 
L 325.839649 261.306881 
L 327.479318 263.463842 
L 329.118988 260.226763 
L 330.758657 252.460667 
L 332.398326 261.208755 
L 334.037996 254.546991 
L 335.677665 248.409722 
L 337.317335 249.714494 
L 338.957004 257.052128 
L 340.596674 263.572345 
L 342.236343 259.339893 
L 343.876012 261.62693 
L 345.515682 259.332975 
L 347.155351 260.720034 
L 348.795021 263.618768 
L 350.43469 262.526088 
L 352.07436 251.871545 
L 353.714029 253.215185 
L 355.353698 236.567194 
L 356.993368 263.720627 
L 358.633037 244.973204 
L 360.272707 259.565911 
L 361.912376 260.723493 
L 363.552045 258.715088 
L 365.191715 246.426167 
L 366.831384 262.9591 
L 368.471054 263.86727 
L 370.110723 239.958016 
L 371.750393 261.272564 
L 373.390062 259.270076 
L 375.029731 258.971327 
L 376.669401 251.839231 
L 378.30907 255.781764 
L 379.94874 254.643752 
L 381.588409 253.124159 
L 381.588409 253.124159 
" style="fill:none;stroke:#e377c2;stroke-linecap:square;stroke-width:0.5;"/>
   </g>
   <g id="line2d_23">
    <path clip-path="url(#p166f6ad452)" d="M 74.970227 257.379276 
L 76.609897 250.097623 
L 78.249566 256.249184 
L 79.889236 237.086681 
L 81.528905 264.077632 
L 83.168574 198.896485 
L 84.808244 262.39674 
L 86.447913 255.49758 
L 88.087583 261.765745 
L 89.727252 263.105471 
L 91.366921 244.715691 
L 93.006591 262.937709 
L 94.64626 253.976802 
L 96.28593 214.575046 
L 97.925599 261.031162 
L 99.565269 262.488858 
L 101.204938 257.10201 
L 102.844607 232.384351 
L 104.484277 234.708709 
L 106.123946 263.680484 
L 107.763616 257.178199 
L 109.403285 264.063705 
L 111.042955 262.769219 
L 112.682624 261.330184 
L 114.322293 263.489056 
L 115.961963 237.206017 
L 117.601632 220.080501 
L 119.241302 257.666828 
L 120.880971 263.695686 
L 122.52064 221.52955 
L 124.16031 251.177651 
L 125.799979 262.967111 
L 127.439649 256.337025 
L 129.079318 261.556384 
L 130.718988 259.612881 
L 132.358657 260.062369 
L 133.998326 252.187497 
L 135.637996 261.920672 
L 137.277665 261.647047 
L 138.917335 256.677008 
L 140.557004 248.045525 
L 142.196674 243.187449 
L 143.836343 245.033373 
L 145.476012 232.870432 
L 147.115682 235.248859 
L 148.755351 244.402014 
L 150.395021 256.849685 
L 152.03469 254.484365 
L 153.67436 250.543744 
L 155.314029 186.653259 
L 156.953698 242.546533 
L 158.593368 250.111186 
L 160.233037 263.088995 
L 161.872707 254.021951 
L 163.512376 258.079451 
L 165.152045 260.966261 
L 166.791715 259.695351 
L 168.431384 263.088722 
L 170.071054 237.264092 
L 171.710723 259.588759 
L 173.350393 254.695455 
L 174.990062 263.810834 
L 176.629731 262.669455 
L 178.269401 260.917379 
L 179.90907 233.037192 
L 181.54874 256.026261 
L 183.188409 220.11855 
L 184.828079 252.535855 
L 186.467748 255.051915 
L 188.107417 263.728819 
L 189.747087 258.016552 
L 191.386756 263.730185 
L 193.026426 257.082166 
L 194.666095 258.840886 
L 196.305764 261.137754 
L 197.945434 262.945173 
L 199.585103 247.83043 
L 201.224773 261.496125 
L 202.864442 246.227001 
L 204.504112 225.418378 
L 206.143781 260.149572 
L 207.78345 241.742133 
L 209.42312 260.943868 
L 211.062789 256.850322 
L 212.702459 256.488948 
L 214.342128 252.23647 
L 215.981798 261.039992 
L 217.621467 263.565427 
L 219.261136 259.972799 
L 220.900806 222.069336 
L 222.540475 140.663835 
L 224.180145 211.00035 
L 225.819814 262.823016 
L 227.459483 249.180078 
L 229.099153 212.997559 
L 230.738822 202.736341 
L 232.378492 261.952986 
L 234.018161 251.827033 
L 235.657831 262.608649 
L 237.2975 262.66463 
L 238.937169 257.070151 
L 240.576839 253.517301 
L 242.216508 264.140258 
L 243.856178 257.436805 
L 245.495847 256.974755 
L 247.135517 255.698384 
L 248.775186 251.606931 
L 250.414855 259.910901 
L 252.054525 261.922583 
L 253.694194 257.728089 
L 255.333864 262.93689 
L 256.973533 262.971844 
L 258.613202 186.548943 
L 260.252872 256.291511 
L 261.892541 254.590866 
L 263.532211 264.702983 
L 265.17188 128.159727 
L 266.81155 257.102283 
L 268.451219 255.514146 
L 270.090888 263.357614 
L 271.730558 248.527146 
L 273.370227 248.296485 
L 275.009897 253.346172 
L 276.649566 224.896068 
L 278.289236 188.808399 
L 279.928905 258.787818 
L 281.568574 236.614801 
L 283.208244 240.08518 
L 284.847913 262.498325 
L 286.487583 212.462961 
L 288.127252 263.69869 
L 289.766921 253.351815 
L 291.406591 251.305361 
L 293.04626 251.160538 
L 294.68593 260.023137 
L 296.325599 262.382813 
L 297.965269 258.829508 
L 299.604938 233.580073 
L 301.244607 261.482016 
L 302.884277 250.486579 
L 304.523946 253.055616 
L 306.163616 201.475717 
L 307.803285 248.342362 
L 309.442955 239.107284 
L 311.082624 226.431046 
L 312.722293 258.591929 
L 314.361963 219.046897 
L 316.001632 257.551862 
L 317.641302 259.329698 
L 319.280971 169.324482 
L 320.92064 262.891377 
L 322.56031 264.711267 
L 325.839649 264.67877 
L 327.479318 251.385282 
L 329.118988 244.410297 
L 330.758657 221.891653 
L 332.398326 251.849061 
L 334.037996 255.783038 
L 335.677665 245.414318 
L 337.317335 32.654609 
L 338.957004 264.011365 
L 340.596674 164.809575 
L 342.236343 259.215733 
L 343.876012 203.046468 
L 345.515682 252.885943 
L 347.155351 260.534887 
L 348.795021 263.314285 
L 350.43469 260.881606 
L 352.07436 248.41573 
L 353.714029 257.829948 
L 355.353698 258.491254 
L 356.993368 262.385088 
L 360.272707 263.466117 
L 361.912376 254.783023 
L 363.552045 230.315413 
L 365.191715 196.841383 
L 366.831384 263.087357 
L 368.471054 231.313972 
L 370.110723 248.65877 
L 371.750393 264.714908 
L 373.390062 264.715909 
L 375.029731 231.512956 
L 376.669401 261.885718 
L 378.30907 262.399561 
L 379.94874 256.548934 
L 381.588409 262.155247 
L 383.228079 261.305971 
L 384.867748 240.434357 
L 386.507417 262.911858 
L 388.147087 263.064509 
L 389.786756 208.785861 
L 391.426426 134.905872 
L 393.066095 243.164693 
L 393.066095 243.164693 
" style="fill:none;stroke:#7f7f7f;stroke-linecap:square;stroke-width:0.5;"/>
   </g>
   <g id="line2d_24">
    <path clip-path="url(#p166f6ad452)" d="M 74.970227 259.963969 
L 76.609897 263.37409 
L 78.249566 247.687064 
L 79.889236 258.937556 
L 81.528905 264.410151 
L 83.168574 263.246471 
L 84.808244 259.584936 
L 86.447913 263.925982 
L 88.087583 262.968658 
L 89.727252 257.212061 
L 91.366921 256.121656 
L 93.006591 263.635608 
L 94.64626 256.464826 
L 96.28593 255.793688 
L 97.925599 262.587986 
L 99.565269 259.385952 
L 101.204938 259.355003 
L 102.844607 261.35995 
L 104.484277 262.375986 
L 106.123946 259.937299 
L 107.763616 264.092105 
L 109.403285 262.038915 
L 111.042955 262.530275 
L 112.682624 264.289906 
L 114.322293 262.687114 
L 115.961963 263.117031 
L 117.601632 262.930154 
L 119.241302 263.201322 
L 120.880971 260.878056 
L 122.52064 262.359874 
L 124.16031 263.498432 
L 125.799979 241.09712 
L 127.439649 264.149816 
L 130.718988 260.64157 
L 132.358657 261.256908 
L 133.998326 262.579521 
L 135.637996 228.052498 
L 137.277665 261.251901 
L 138.917335 263.923525 
L 140.557004 262.668089 
L 142.196674 234.556331 
L 143.836343 264.172937 
L 145.476012 261.495761 
L 147.115682 263.728182 
L 148.755351 260.657681 
L 150.395021 253.255145 
L 152.03469 250.706317 
L 153.67436 260.08194 
L 155.314029 260.407359 
L 156.953698 263.561422 
L 158.593368 258.471957 
L 160.233037 244.372885 
L 161.872707 264.492075 
L 163.512376 255.757551 
L 165.152045 263.157811 
L 166.791715 254.555912 
L 168.431384 262.064402 
L 170.071054 255.162238 
L 171.710723 263.054769 
L 173.350393 254.22585 
L 174.990062 216.07607 
L 176.629731 263.353518 
L 178.269401 257.198771 
L 179.90907 264.004265 
L 181.54874 255.793506 
L 183.188409 248.883605 
L 184.828079 259.61543 
L 186.467748 263.198864 
L 188.107417 257.24483 
L 189.747087 250.42277 
L 191.386756 255.176439 
L 193.026426 263.30227 
L 194.666095 262.19903 
L 196.305764 263.454193 
L 197.945434 255.430584 
L 199.585103 263.784618 
L 201.224773 260.822712 
L 202.864442 263.200138 
L 204.504112 248.437212 
L 206.143781 261.829372 
L 207.78345 260.06155 
L 209.42312 261.919853 
L 211.062789 260.111796 
L 212.702459 256.472836 
L 214.342128 211.594115 
L 215.981798 264.566353 
L 217.621467 261.042268 
L 219.261136 254.661047 
L 220.900806 262.937982 
L 222.540475 262.218965 
L 224.180145 255.873427 
L 225.819814 262.453085 
L 227.459483 263.725451 
L 229.099153 258.238838 
L 230.738822 264.13862 
L 232.378492 259.394418 
L 234.018161 256.759751 
L 235.657831 237.025329 
L 237.2975 263.377549 
L 238.937169 258.146628 
L 242.216508 263.700419 
L 243.856178 261.049823 
L 245.495847 257.916696 
L 247.135517 262.603278 
L 248.775186 253.769535 
L 250.414855 258.604855 
L 252.054525 251.039746 
L 253.694194 254.090676 
L 255.333864 261.837838 
L 256.973533 261.905288 
L 258.613202 261.833742 
L 260.252872 252.130606 
L 261.892541 263.51072 
L 263.532211 263.047851 
L 265.17188 263.796634 
L 266.81155 260.691452 
L 268.451219 262.808816 
L 270.090888 257.128408 
L 271.730558 260.714391 
L 273.370227 263.845424 
L 275.009897 258.78709 
L 276.649566 264.490892 
L 278.289236 256.189744 
L 279.928905 260.206555 
L 281.568574 260.501935 
L 283.208244 263.39366 
L 284.847913 264.428721 
L 286.487583 263.040933 
L 288.127252 261.01769 
L 289.766921 261.899099 
L 291.406591 264.293365 
L 293.04626 245.614667 
L 294.68593 261.653236 
L 296.325599 260.072473 
L 297.965269 263.767505 
L 299.604938 260.769917 
L 301.244607 263.473035 
L 302.884277 259.468604 
L 304.523946 256.677281 
L 306.163616 264.094017 
L 307.803285 263.709067 
L 309.442955 261.52407 
L 311.082624 263.953563 
L 312.722293 255.545004 
L 314.361963 258.448017 
L 316.001632 259.985452 
L 317.641302 262.393372 
L 319.280971 263.833864 
L 320.92064 263.7351 
L 322.56031 257.131412 
L 324.199979 258.537496 
L 325.839649 258.802291 
L 327.479318 240.555331 
L 329.118988 263.051856 
L 330.758657 257.032921 
L 332.398326 263.529016 
L 334.037996 260.358023 
L 335.677665 264.249126 
L 337.317335 262.744096 
L 338.957004 262.877268 
L 340.596674 264.392947 
L 342.236343 264.18477 
L 343.876012 254.983827 
L 345.515682 263.179384 
L 347.155351 259.920641 
L 348.795021 258.85363 
L 350.43469 257.036562 
L 352.07436 263.706609 
L 353.714029 264.083367 
L 355.353698 247.168031 
L 356.993368 260.311599 
L 358.633037 261.166519 
L 360.272707 264.079817 
L 361.912376 260.351378 
L 363.552045 234.881295 
L 365.191715 262.853328 
L 366.831384 261.614095 
L 368.471054 264.399319 
L 370.110723 261.175166 
L 371.750393 261.796785 
L 373.390062 259.785012 
L 375.029731 261.620558 
L 376.669401 260.934583 
L 378.30907 264.024382 
L 379.94874 261.856316 
L 381.588409 264.128971 
L 383.228079 262.423957 
L 384.867748 261.88326 
L 386.507417 220.694747 
L 388.147087 245.431613 
L 389.786756 264.374924 
L 391.426426 260.330806 
L 393.066095 261.646865 
L 394.705764 261.485657 
L 396.345434 262.984133 
L 397.985103 261.95417 
L 399.624773 263.100464 
L 399.624773 263.100464 
" style="fill:none;stroke:#bcbd22;stroke-linecap:square;stroke-width:0.5;"/>
   </g>
   <g id="line2d_25">
    <path clip-path="url(#p166f6ad452)" d="M 74.970227 261.99231 
L 76.609897 263.897764 
L 78.249566 240.067248 
L 79.889236 256.640233 
L 81.528905 241.629806 
L 83.168574 260.103422 
L 84.808244 252.84225 
L 86.447913 212.53824 
L 88.087583 262.428144 
L 89.727252 264.097385 
L 91.366921 258.307563 
L 93.006591 249.273016 
L 94.64626 243.972005 
L 96.28593 235.065077 
L 97.925599 263.475857 
L 99.565269 261.878891 
L 101.204938 264.570904 
L 102.844607 245.80737 
L 104.484277 219.943598 
L 106.123946 263.642435 
L 107.763616 261.013503 
L 109.403285 261.053464 
L 111.042955 242.372308 
L 112.682624 239.52464 
L 114.322293 259.755974 
L 115.961963 246.206793 
L 117.601632 178.246157 
L 119.241302 251.947006 
L 120.880971 261.060746 
L 122.52064 259.068179 
L 124.16031 253.062625 
L 125.799979 261.417842 
L 127.439649 250.411482 
L 130.718988 230.735864 
L 132.358657 250.071044 
L 133.998326 180.301077 
L 135.637996 260.183798 
L 137.277665 264.208164 
L 138.917335 262.773498 
L 140.557004 262.106184 
L 142.196674 262.776137 
L 143.836343 250.402016 
L 145.476012 255.773116 
L 147.115682 263.140334 
L 148.755351 247.235118 
L 150.395021 260.225124 
L 152.03469 260.220391 
L 153.67436 252.381748 
L 155.314029 253.569641 
L 156.953698 262.716879 
L 158.593368 256.699947 
L 160.233037 253.865022 
L 161.872707 245.444448 
L 163.512376 263.565427 
L 165.152045 258.538315 
L 166.791715 251.875368 
L 168.431384 263.519459 
L 170.071054 264.01628 
L 171.710723 261.876706 
L 173.350393 248.088126 
L 174.990062 248.03087 
L 176.629731 258.400956 
L 178.269401 236.416727 
L 179.90907 263.115484 
L 181.54874 247.944759 
L 183.188409 242.235951 
L 184.828079 148.383507 
L 186.467748 260.987288 
L 188.107417 260.76755 
L 189.747087 260.675249 
L 191.386756 261.204932 
L 193.026426 256.253098 
L 194.666095 262.346766 
L 196.305764 264.0455 
L 197.945434 261.583419 
L 199.585103 263.169735 
L 201.224773 261.707215 
L 202.864442 261.835835 
L 204.504112 262.427416 
L 206.143781 245.257935 
L 207.78345 243.775844 
L 209.42312 262.833393 
L 211.062789 262.127484 
L 212.702459 260.387242 
L 214.342128 245.237363 
L 215.981798 261.7662 
L 217.621467 251.350055 
L 219.261136 261.005038 
L 220.900806 227.314639 
L 222.540475 261.334189 
L 224.180145 262.931428 
L 225.819814 194.747231 
L 227.459483 263.032923 
L 229.099153 263.086355 
L 230.738822 252.307834 
L 232.378492 260.578033 
L 234.018161 244.940162 
L 235.657831 238.445158 
L 237.2975 262.57324 
L 238.937169 228.215708 
L 240.576839 263.948557 
L 242.216508 261.140394 
L 243.856178 261.64914 
L 245.495847 259.306395 
L 247.135517 232.887545 
L 248.775186 255.249351 
L 250.414855 201.605703 
L 252.054525 258.257043 
L 253.694194 259.102678 
L 255.333864 262.272125 
L 256.973533 234.872647 
L 258.613202 239.195398 
L 260.252872 263.394206 
L 261.892541 259.356187 
L 263.532211 256.631131 
L 265.17188 257.425063 
L 266.81155 263.225444 
L 268.451219 241.998645 
L 270.090888 256.715512 
L 271.730558 256.027899 
L 273.370227 237.584868 
L 275.009897 261.20921 
L 276.649566 242.276731 
L 278.289236 247.383946 
L 279.928905 250.370429 
L 281.568574 262.734174 
L 283.208244 263.909689 
L 284.847913 252.512006 
L 286.487583 263.191491 
L 288.127252 262.253646 
L 289.766921 241.873484 
L 291.406591 246.448559 
L 293.04626 247.654385 
L 294.68593 253.894241 
L 296.325599 263.411319 
L 297.965269 147.449485 
L 299.604938 249.380154 
L 301.244607 263.132506 
L 302.884277 231.37942 
L 304.523946 259.055891 
L 306.163616 260.876964 
L 307.803285 241.274986 
L 309.442955 255.612091 
L 311.082624 244.582246 
L 312.722293 251.598102 
L 314.361963 243.710305 
L 316.001632 258.360358 
L 317.641302 247.475792 
L 319.280971 255.078039 
L 320.92064 248.489552 
L 322.56031 251.201227 
L 324.199979 237.260997 
L 325.839649 253.451944 
L 327.479318 254.644754 
L 329.118988 237.652865 
L 330.758657 260.222029 
L 332.398326 239.660815 
L 334.037996 261.299508 
L 335.677665 254.41919 
L 337.317335 262.767126 
L 338.957004 259.176227 
L 342.236343 256.601456 
L 343.876012 253.965606 
L 345.515682 260.848199 
L 347.155351 260.188622 
L 348.795021 249.487292 
L 350.43469 258.500539 
L 352.07436 258.988804 
L 353.714029 257.959387 
L 355.353698 263.215977 
L 356.993368 256.939255 
L 358.633037 261.421119 
L 360.272707 243.928586 
L 361.912376 257.579261 
L 363.552045 185.641775 
L 365.191715 258.647546 
L 366.831384 263.381736 
L 368.471054 262.229706 
L 370.110723 249.942424 
L 371.750393 262.175728 
L 373.390062 259.537784 
L 375.029731 263.143247 
L 376.669401 262.45172 
L 378.30907 245.540753 
L 379.94874 252.765424 
L 381.588409 256.857604 
L 383.228079 222.191767 
L 384.867748 263.266223 
L 384.867748 263.266223 
" style="fill:none;stroke:#17becf;stroke-linecap:square;stroke-width:0.5;"/>
   </g>
   <g id="line2d_26">
    <path clip-path="url(#p166f6ad452)" d="M 74.970227 263.422334 
L 76.609897 245.267583 
L 78.249566 256.093802 
L 79.889236 263.205691 
L 81.528905 252.688597 
L 83.168574 251.311642 
L 84.808244 254.628642 
L 86.447913 264.091741 
L 88.087583 261.33956 
L 89.727252 258.827779 
L 91.366921 249.757458 
L 93.006591 260.32407 
L 94.64626 256.324827 
L 96.28593 241.98845 
L 97.925599 247.994096 
L 99.565269 257.58008 
L 101.204938 258.795282 
L 102.844607 145.699868 
L 104.484277 250.950722 
L 106.123946 262.66017 
L 107.763616 259.980263 
L 109.403285 262.481303 
L 111.042955 189.436026 
L 112.682624 263.892576 
L 114.322293 244.154968 
L 115.961963 259.377487 
L 117.601632 261.457166 
L 119.241302 219.31051 
L 120.880971 264.370737 
L 122.52064 256.366699 
L 124.16031 261.117182 
L 125.799979 262.273945 
L 127.439649 250.513614 
L 129.079318 260.334538 
L 130.718988 255.890085 
L 132.358657 227.060857 
L 133.998326 237.163234 
L 135.637996 168.788883 
L 137.277665 261.255178 
L 138.917335 263.556051 
L 140.557004 257.657453 
L 142.196674 256.358871 
L 143.836343 222.701059 
L 145.476012 216.44054 
L 147.115682 234.426436 
L 148.755351 262.992416 
L 150.395021 260.675067 
L 152.03469 262.594904 
L 153.67436 264.169751 
L 155.314029 255.662701 
L 156.953698 244.388724 
L 158.593368 264.357174 
L 160.233037 264.014551 
L 161.872707 251.830128 
L 163.512376 258.307927 
L 165.152045 262.947631 
L 166.791715 211.814945 
L 168.431384 204.356246 
L 170.071054 141.976435 
L 171.710723 263.887387 
L 173.350393 259.89042 
L 174.990062 262.88901 
L 176.629731 264.045045 
L 178.269401 257.488235 
L 179.90907 263.445909 
L 181.54874 261.777669 
L 183.188409 258.876205 
L 184.828079 264.346433 
L 186.467748 252.674124 
L 188.107417 238.42759 
L 189.747087 235.39969 
L 191.386756 262.497233 
L 193.026426 263.263766 
L 194.666095 259.450763 
L 196.305764 261.220315 
L 197.945434 261.558478 
L 199.585103 258.465312 
L 201.224773 258.095198 
L 202.864442 256.266024 
L 204.504112 245.703417 
L 206.143781 255.994401 
L 207.78345 263.949558 
L 209.42312 249.335642 
L 211.062789 237.190815 
L 212.702459 197.675822 
L 214.342128 259.036866 
L 215.981798 258.604218 
L 217.621467 210.037018 
L 219.261136 211.234379 
L 220.900806 253.515572 
L 222.540475 263.73601 
L 224.180145 254.164954 
L 225.819814 239.218063 
L 227.459483 248.982642 
L 229.099153 220.549105 
L 230.738822 220.811352 
L 232.378492 264.346069 
L 234.018161 223.595029 
L 235.657831 244.056023 
L 237.2975 243.188359 
L 238.937169 228.189129 
L 240.576839 239.449634 
L 242.216508 262.838582 
L 243.856178 263.118488 
L 245.495847 261.837383 
L 247.135517 259.43456 
L 248.775186 259.422909 
L 250.414855 259.994008 
L 252.054525 263.329942 
L 253.694194 264.393403 
L 255.333864 244.10991 
L 256.973533 257.923159 
L 258.613202 264.366823 
L 260.252872 264.363273 
L 261.892541 260.156035 
L 263.532211 256.636683 
L 265.17188 262.352046 
L 266.81155 198.181929 
L 268.451219 154.893256 
L 270.090888 257.10729 
L 271.730558 264.061976 
L 273.370227 253.870302 
L 275.009897 252.161919 
L 276.649566 253.015655 
L 278.289236 255.90556 
L 279.928905 121.309722 
L 281.568574 191.24836 
L 283.208244 232.98112 
L 284.847913 261.867695 
L 286.487583 81.278609 
L 288.127252 262.568233 
L 289.766921 254.889524 
L 291.406591 169.82895 
L 293.04626 257.942456 
L 294.68593 261.180172 
L 296.325599 151.55095 
L 297.965269 264.278072 
L 299.604938 256.587347 
L 301.244607 254.8502 
L 302.884277 259.144459 
L 304.523946 238.621385 
L 306.163616 261.66152 
L 307.803285 254.984009 
L 309.442955 257.821118 
L 311.082624 243.95553 
L 312.722293 241.675502 
L 314.361963 261.610727 
L 316.001632 259.170038 
L 317.641302 258.31084 
L 319.280971 263.082441 
L 320.92064 264.715818 
L 322.56031 264.714544 
L 324.199979 259.353729 
L 325.839649 243.929769 
L 327.479318 235.867383 
L 329.118988 263.095913 
L 330.758657 261.984299 
L 332.398326 252.203882 
L 334.037996 248.950418 
L 335.677665 229.596123 
L 337.317335 218.866756 
L 338.957004 260.803232 
L 340.596674 264.379749 
L 342.236343 260.140105 
L 343.876012 260.089313 
L 347.155351 243.754725 
L 348.795021 260.293667 
L 350.43469 253.582203 
L 352.07436 248.512491 
L 353.714029 259.398969 
L 355.353698 259.620618 
L 356.993368 242.643749 
L 358.633037 251.327025 
L 360.272707 256.269756 
L 361.912376 257.517363 
L 363.552045 235.981985 
L 365.191715 246.698153 
L 366.831384 250.138312 
L 368.471054 243.771201 
L 370.110723 264.714088 
L 371.750393 261.26419 
L 373.390062 259.3033 
L 375.029731 246.01937 
L 378.30907 261.327453 
L 379.94874 242.669054 
L 381.588409 250.054204 
L 383.228079 253.101038 
L 384.867748 91.040912 
L 386.507417 194.909167 
L 388.147087 257.775696 
L 389.786756 235.087652 
L 389.786756 235.087652 
" style="fill:none;stroke:#1f77b4;stroke-linecap:square;stroke-width:0.5;"/>
   </g>
   <g id="line2d_27">
    <path clip-path="url(#p166f6ad452)" d="M 74.970227 254.49547 
L 76.609897 264.068712 
L 78.249566 260.728409 
L 79.889236 253.613607 
L 81.528905 251.201773 
L 83.168574 262.829752 
L 84.808244 259.622165 
L 86.447913 259.449033 
L 88.087583 222.869276 
L 89.727252 258.037215 
L 91.366921 244.420492 
L 93.006591 257.780976 
L 94.64626 263.385377 
L 96.28593 259.282 
L 97.925599 258.667754 
L 99.565269 256.295426 
L 101.204938 259.404157 
L 102.844607 229.376476 
L 104.484277 258.000986 
L 106.123946 240.008445 
L 107.763616 261.324904 
L 109.403285 233.020261 
L 111.042955 260.524237 
L 112.682624 261.131929 
L 114.322293 262.531095 
L 115.961963 255.393445 
L 117.601632 256.300523 
L 119.241302 232.66544 
L 120.880971 255.334369 
L 122.52064 249.784584 
L 124.16031 261.490208 
L 125.799979 254.417916 
L 129.079318 262.772952 
L 130.718988 252.717908 
L 132.358657 260.373679 
L 133.998326 258.488523 
L 135.637996 257.84433 
L 137.277665 262.478026 
L 138.917335 202.432222 
L 140.557004 262.51116 
L 143.836343 240.229275 
L 145.476012 259.52859 
L 147.115682 260.814793 
L 148.755351 264.691241 
L 150.395021 244.670997 
L 152.03469 250.333291 
L 153.67436 259.291376 
L 155.314029 248.929755 
L 156.953698 261.662248 
L 158.593368 242.539068 
L 160.233037 258.176485 
L 161.872707 262.676737 
L 163.512376 262.199668 
L 165.152045 250.724704 
L 166.791715 262.065859 
L 168.431384 253.394871 
L 170.071054 181.642077 
L 171.710723 261.689374 
L 173.350393 254.877326 
L 174.990062 236.866671 
L 176.629731 260.300221 
L 178.269401 253.279905 
L 179.90907 244.809175 
L 181.54874 244.153512 
L 183.188409 255.554107 
L 184.828079 163.224898 
L 186.467748 255.73534 
L 188.107417 258.899871 
L 189.747087 258.089646 
L 191.386756 245.061136 
L 193.026426 260.562468 
L 194.666095 264.385938 
L 196.305764 222.76059 
L 197.945434 242.614438 
L 199.585103 242.594686 
L 201.224773 264.442557 
L 202.864442 263.995344 
L 204.504112 259.638186 
L 206.143781 254.603246 
L 207.78345 262.657894 
L 209.42312 260.792582 
L 211.062789 263.448731 
L 212.702459 243.824178 
L 214.342128 261.421574 
L 215.981798 251.172918 
L 217.621467 258.318759 
L 219.261136 262.335206 
L 220.900806 257.206417 
L 222.540475 261.456528 
L 224.180145 262.518806 
L 225.819814 261.749269 
L 227.459483 246.061788 
L 229.099153 240.823131 
L 230.738822 262.255285 
L 232.378492 258.797285 
L 234.018161 257.27141 
L 235.657831 239.094996 
L 237.2975 262.708596 
L 238.937169 264.205797 
L 240.576839 257.841417 
L 242.216508 261.226778 
L 243.856178 256.404748 
L 245.495847 259.715923 
L 247.135517 258.840613 
L 248.775186 259.563909 
L 250.414855 259.592764 
L 252.054525 252.054508 
L 253.694194 263.785074 
L 255.333864 257.125404 
L 256.973533 261.005584 
L 258.613202 261.128925 
L 260.252872 259.399606 
L 261.892541 262.085156 
L 263.532211 263.441449 
L 265.17188 262.221423 
L 266.81155 253.501372 
L 268.451219 252.863914 
L 270.090888 193.974782 
L 271.730558 260.741425 
L 273.370227 262.68238 
L 275.009897 232.533998 
L 276.649566 264.353806 
L 278.289236 262.592446 
L 279.928905 261.527165 
L 281.568574 263.626324 
L 283.208244 251.336947 
L 284.847913 263.969402 
L 286.487583 253.060531 
L 288.127252 264.714999 
L 289.766921 238.409021 
L 291.406591 247.097304 
L 293.04626 253.763983 
L 294.68593 261.5968 
L 296.325599 262.956461 
L 297.965269 264.481971 
L 299.604938 261.444877 
L 301.244607 261.846394 
L 302.884277 263.710159 
L 304.523946 263.286704 
L 306.163616 255.78495 
L 307.803285 263.806556 
L 309.442955 230.389418 
L 311.082624 254.784752 
L 312.722293 260.475538 
L 314.361963 253.712462 
L 316.001632 260.572936 
L 317.641302 264.125512 
L 319.280971 253.921094 
L 320.92064 264.473506 
L 322.56031 259.606054 
L 324.199979 224.061721 
L 325.839649 261.508869 
L 327.479318 264.246486 
L 329.118988 259.77864 
L 330.758657 262.308899 
L 332.398326 239.788343 
L 334.037996 262.413215 
L 335.677665 256.74373 
L 337.317335 259.387135 
L 338.957004 262.330655 
L 340.596674 263.362438 
L 342.236343 258.674126 
L 343.876012 262.077055 
L 345.515682 261.623198 
L 347.155351 249.64504 
L 348.795021 262.152152 
L 350.43469 262.808088 
L 352.07436 259.106228 
L 353.714029 259.530593 
L 355.353698 258.189138 
L 356.993368 264.036033 
L 358.633037 214.666163 
L 360.272707 261.074855 
L 361.912376 263.650719 
L 363.552045 262.24955 
L 365.191715 246.921441 
L 366.831384 241.631718 
L 368.471054 261.069484 
L 370.110723 247.730119 
L 371.750393 257.311735 
L 375.029731 264.668484 
L 376.669401 247.241217 
L 378.30907 254.629461 
L 379.94874 258.009361 
L 381.588409 252.55934 
L 383.228079 256.50251 
L 384.867748 263.275235 
L 386.507417 264.106852 
L 388.147087 258.445468 
L 389.786756 260.139195 
L 391.426426 263.452463 
L 393.066095 263.56925 
L 394.705764 257.732185 
L 394.705764 257.732185 
" style="fill:none;stroke:#ff7f0e;stroke-linecap:square;stroke-width:0.5;"/>
   </g>
   <g id="line2d_28">
    <path clip-path="url(#p166f6ad452)" d="M 74.970227 261.075492 
L 76.609897 247.860378 
L 78.249566 227.98878 
L 79.889236 263.270866 
L 81.528905 259.86293 
L 83.168574 258.695699 
L 84.808244 252.972054 
L 86.447913 260.457878 
L 88.087583 261.574317 
L 89.727252 115.532734 
L 91.366921 264.344248 
L 93.006591 261.952804 
L 94.64626 247.067629 
L 96.28593 257.234908 
L 97.925599 260.405993 
L 99.565269 260.509581 
L 101.204938 264.419072 
L 102.844607 263.513269 
L 104.484277 263.637429 
L 106.123946 261.311615 
L 107.763616 228.613858 
L 109.403285 252.422801 
L 111.042955 261.220133 
L 112.682624 259.051612 
L 114.322293 261.131655 
L 115.961963 256.417856 
L 117.601632 262.043102 
L 119.241302 264.14572 
L 120.880971 263.860625 
L 122.52064 261.182903 
L 124.16031 263.952926 
L 125.799979 263.1985 
L 127.439649 264.346888 
L 129.079318 259.485899 
L 130.718988 263.886659 
L 132.358657 263.527378 
L 133.998326 261.852129 
L 135.637996 263.720809 
L 137.277665 256.526268 
L 138.917335 264.571723 
L 140.557004 263.991794 
L 142.196674 263.671928 
L 143.836343 259.398787 
L 145.476012 262.541107 
L 147.115682 258.830964 
L 148.755351 263.940638 
L 150.395021 263.96831 
L 152.03469 260.657863 
L 153.67436 255.520791 
L 155.314029 263.307731 
L 156.953698 254.475991 
L 158.593368 264.50227 
L 160.233037 263.731914 
L 161.872707 206.567731 
L 163.512376 262.532551 
L 165.152045 262.375348 
L 166.791715 262.913951 
L 168.431384 262.620482 
L 170.071054 251.246376 
L 171.710723 264.090103 
L 173.350393 237.562931 
L 174.990062 264.525664 
L 176.629731 263.273505 
L 178.269401 247.044873 
L 179.90907 263.26331 
L 181.54874 256.784055 
L 183.188409 255.231601 
L 184.828079 258.869924 
L 186.467748 261.581781 
L 188.107417 261.05665 
L 189.747087 262.714877 
L 191.386756 263.39721 
L 193.026426 263.639978 
L 194.666095 263.249566 
L 196.305764 262.567505 
L 197.945434 262.960466 
L 199.585103 260.312873 
L 201.224773 262.179642 
L 202.864442 263.399304 
L 204.504112 254.182704 
L 206.143781 263.880833 
L 207.78345 262.376987 
L 209.42312 227.852513 
L 211.062789 264.17057 
L 212.702459 263.607117 
L 214.342128 264.059154 
L 215.981798 257.591277 
L 217.621467 262.256104 
L 219.261136 256.28605 
L 220.900806 263.363622 
L 222.540475 261.194828 
L 224.180145 261.443785 
L 225.819814 260.994934 
L 227.459483 262.080332 
L 229.099153 256.387817 
L 230.738822 262.136859 
L 232.378492 262.295245 
L 234.018161 258.386756 
L 235.657831 260.372314 
L 237.2975 262.716151 
L 240.576839 263.390201 
L 242.216508 262.776228 
L 243.856178 260.361208 
L 245.495847 263.681486 
L 247.135517 254.210285 
L 248.775186 242.841276 
L 250.414855 263.507534 
L 252.054525 247.938387 
L 253.694194 242.62345 
L 255.333864 257.099461 
L 256.973533 260.023683 
L 258.613202 264.435275 
L 260.252872 262.756203 
L 261.892541 261.80343 
L 263.532211 259.349724 
L 265.17188 258.690966 
L 266.81155 248.434208 
L 268.451219 259.363924 
L 270.090888 258.678768 
L 271.730558 253.031949 
L 273.370227 262.233894 
L 275.009897 261.258728 
L 276.649566 262.301799 
L 278.289236 264.51292 
L 279.928905 261.758645 
L 281.568574 264.648549 
L 283.208244 241.904797 
L 284.847913 258.400865 
L 286.487583 260.412092 
L 288.127252 255.531805 
L 289.766921 263.590641 
L 291.406591 260.772465 
L 293.04626 263.237823 
L 294.68593 264.067255 
L 296.325599 260.642844 
L 297.965269 264.195875 
L 299.604938 244.116737 
L 301.244607 255.741348 
L 302.884277 250.765393 
L 304.523946 250.209222 
L 306.163616 263.632968 
L 307.803285 263.09564 
L 309.442955 263.317471 
L 311.082624 238.022068 
L 312.722293 258.260047 
L 314.361963 232.922408 
L 316.001632 228.963854 
L 317.641302 262.534736 
L 319.280971 263.276782 
L 320.92064 264.308293 
L 322.56031 263.990884 
L 324.199979 262.17327 
L 325.839649 263.298811 
L 327.479318 245.935535 
L 329.118988 261.815627 
L 330.758657 222.441725 
L 332.398326 246.871832 
L 334.037996 260.651036 
L 335.677665 263.282517 
L 337.317335 258.963954 
L 338.957004 264.169751 
L 340.596674 264.189413 
L 342.236343 260.527605 
L 343.876012 263.788715 
L 345.515682 264.332142 
L 347.155351 262.476752 
L 348.795021 263.064236 
L 350.43469 262.340394 
L 352.07436 264.345796 
L 353.714029 260.156763 
L 355.353698 262.831664 
L 356.993368 261.005038 
L 358.633037 264.489708 
L 360.272707 262.352592 
L 361.912376 263.161907 
L 363.552045 264.23793 
L 365.191715 262.482486 
L 366.831384 260.990474 
L 368.471054 263.662279 
L 370.110723 261.394175 
L 370.110723 261.394175 
" style="fill:none;stroke:#2ca02c;stroke-linecap:square;stroke-width:0.5;"/>
   </g>
   <g id="patch_3">
    <path d="M 58.7375 276.812 
L 58.7375 10.7 
" style="fill:none;stroke:#000000;stroke-linecap:square;stroke-linejoin:miter;stroke-width:0.8;"/>
   </g>
   <g id="patch_4">
    <path d="M 415.8575 276.812 
L 415.8575 10.7 
" style="fill:none;stroke:#000000;stroke-linecap:square;stroke-linejoin:miter;stroke-width:0.8;"/>
   </g>
   <g id="patch_5">
    <path d="M 58.7375 276.812 
L 415.8575 276.812 
" style="fill:none;stroke:#000000;stroke-linecap:square;stroke-linejoin:miter;stroke-width:0.8;"/>
   </g>
   <g id="patch_6">
    <path d="M 58.7375 10.7 
L 415.8575 10.7 
" style="fill:none;stroke:#000000;stroke-linecap:square;stroke-linejoin:miter;stroke-width:0.8;"/>
   </g>
  </g>
 </g>
 <defs>
  <clipPath id="p166f6ad452">
   <rect height="266.112" width="357.12" x="58.7375" y="10.7"/>
  </clipPath>
 </defs>
</svg>
