<?xml version="1.0" encoding="utf-8" standalone="no"?>
<!DOCTYPE svg PUBLIC "-//W3C//DTD SVG 1.1//EN"
  "http://www.w3.org/Graphics/SVG/1.1/DTD/svg11.dtd">
<!-- Created with matplotlib (http://matplotlib.org/) -->
<svg height="300pt" version="1.1" viewBox="0 0 426 300" width="426pt" xmlns="http://www.w3.org/2000/svg" xmlns:xlink="http://www.w3.org/1999/xlink">
 <defs>
  <style type="text/css">
*{stroke-linecap:butt;stroke-linejoin:round;}
  </style>
 </defs>
 <g id="figure_1">
  <g id="patch_1">
   <path d="M 0 300.690125 
L 426.5575 300.690125 
L 426.5575 0 
L 0 0 
z
" style="fill:#ffffff;"/>
  </g>
  <g id="axes_1">
   <g id="patch_2">
    <path d="M 58.7375 276.812 
L 415.8575 276.812 
L 415.8575 10.7 
L 58.7375 10.7 
z
" style="fill:#ffffff;"/>
   </g>
   <g id="matplotlib.axis_1">
    <g id="xtick_1">
     <g id="line2d_1">
      <defs>
       <path d="M 0 0 
L 0 3.5 
" id="m136dcc3ca7" style="stroke:#000000;stroke-width:0.8;"/>
      </defs>
      <g>
       <use style="stroke:#000000;stroke-width:0.8;" x="74.970227" xlink:href="#m136dcc3ca7" y="276.812"/>
      </g>
     </g>
     <g id="text_1">
      <!-- 0 -->
      <defs>
       <path d="M 31.78125 66.40625 
Q 24.171875 66.40625 20.328125 58.90625 
Q 16.5 51.421875 16.5 36.375 
Q 16.5 21.390625 20.328125 13.890625 
Q 24.171875 6.390625 31.78125 6.390625 
Q 39.453125 6.390625 43.28125 13.890625 
Q 47.125 21.390625 47.125 36.375 
Q 47.125 51.421875 43.28125 58.90625 
Q 39.453125 66.40625 31.78125 66.40625 
M 31.78125 74.21875 
Q 44.046875 74.21875 50.515625 64.515625 
Q 56.984375 54.828125 56.984375 36.375 
Q 56.984375 17.96875 50.515625 8.265625 
Q 44.046875 -1.421875 31.78125 -1.421875 
Q 19.53125 -1.421875 13.0625 8.265625 
Q 6.59375 17.96875 6.59375 36.375 
Q 6.59375 54.828125 13.0625 64.515625 
Q 19.53125 74.21875 31.78125 74.21875 
" id="DejaVuSans-30"/>
      </defs>
      <g transform="translate(71.788977 291.410437)scale(0.1 -0.1)">
       <use xlink:href="#DejaVuSans-30"/>
      </g>
     </g>
    </g>
    <g id="xtick_2">
     <g id="line2d_2">
      <g>
       <use style="stroke:#000000;stroke-width:0.8;" x="122.434342" xlink:href="#m136dcc3ca7" y="276.812"/>
      </g>
     </g>
     <g id="text_2">
      <!-- 25 -->
      <defs>
       <path d="M 19.1875 8.296875 
L 53.609375 8.296875 
L 53.609375 0 
L 7.328125 0 
L 7.328125 8.296875 
Q 12.9375 14.109375 22.625 23.890625 
Q 32.328125 33.6875 34.8125 36.53125 
Q 39.546875 41.84375 41.421875 45.53125 
Q 43.3125 49.21875 43.3125 52.78125 
Q 43.3125 58.59375 39.234375 62.25 
Q 35.15625 65.921875 28.609375 65.921875 
Q 23.96875 65.921875 18.8125 64.3125 
Q 13.671875 62.703125 7.8125 59.421875 
L 7.8125 69.390625 
Q 13.765625 71.78125 18.9375 73 
Q 24.125 74.21875 28.421875 74.21875 
Q 39.75 74.21875 46.484375 68.546875 
Q 53.21875 62.890625 53.21875 53.421875 
Q 53.21875 48.921875 51.53125 44.890625 
Q 49.859375 40.875 45.40625 35.40625 
Q 44.1875 33.984375 37.640625 27.21875 
Q 31.109375 20.453125 19.1875 8.296875 
" id="DejaVuSans-32"/>
       <path d="M 10.796875 72.90625 
L 49.515625 72.90625 
L 49.515625 64.59375 
L 19.828125 64.59375 
L 19.828125 46.734375 
Q 21.96875 47.46875 24.109375 47.828125 
Q 26.265625 48.1875 28.421875 48.1875 
Q 40.625 48.1875 47.75 41.5 
Q 54.890625 34.8125 54.890625 23.390625 
Q 54.890625 11.625 47.5625 5.09375 
Q 40.234375 -1.421875 26.90625 -1.421875 
Q 22.3125 -1.421875 17.546875 -0.640625 
Q 12.796875 0.140625 7.71875 1.703125 
L 7.71875 11.625 
Q 12.109375 9.234375 16.796875 8.0625 
Q 21.484375 6.890625 26.703125 6.890625 
Q 35.15625 6.890625 40.078125 11.328125 
Q 45.015625 15.765625 45.015625 23.390625 
Q 45.015625 31 40.078125 35.4375 
Q 35.15625 39.890625 26.703125 39.890625 
Q 22.75 39.890625 18.8125 39.015625 
Q 14.890625 38.140625 10.796875 36.28125 
z
" id="DejaVuSans-35"/>
      </defs>
      <g transform="translate(116.071842 291.410437)scale(0.1 -0.1)">
       <use xlink:href="#DejaVuSans-32"/>
       <use x="63.623047" xlink:href="#DejaVuSans-35"/>
      </g>
     </g>
    </g>
    <g id="xtick_3">
     <g id="line2d_3">
      <g>
       <use style="stroke:#000000;stroke-width:0.8;" x="169.898457" xlink:href="#m136dcc3ca7" y="276.812"/>
      </g>
     </g>
     <g id="text_3">
      <!-- 50 -->
      <g transform="translate(163.535957 291.410437)scale(0.1 -0.1)">
       <use xlink:href="#DejaVuSans-35"/>
       <use x="63.623047" xlink:href="#DejaVuSans-30"/>
      </g>
     </g>
    </g>
    <g id="xtick_4">
     <g id="line2d_4">
      <g>
       <use style="stroke:#000000;stroke-width:0.8;" x="217.362572" xlink:href="#m136dcc3ca7" y="276.812"/>
      </g>
     </g>
     <g id="text_4">
      <!-- 75 -->
      <defs>
       <path d="M 8.203125 72.90625 
L 55.078125 72.90625 
L 55.078125 68.703125 
L 28.609375 0 
L 18.3125 0 
L 43.21875 64.59375 
L 8.203125 64.59375 
z
" id="DejaVuSans-37"/>
      </defs>
      <g transform="translate(211.000072 291.410437)scale(0.1 -0.1)">
       <use xlink:href="#DejaVuSans-37"/>
       <use x="63.623047" xlink:href="#DejaVuSans-35"/>
      </g>
     </g>
    </g>
    <g id="xtick_5">
     <g id="line2d_5">
      <g>
       <use style="stroke:#000000;stroke-width:0.8;" x="264.826687" xlink:href="#m136dcc3ca7" y="276.812"/>
      </g>
     </g>
     <g id="text_5">
      <!-- 100 -->
      <defs>
       <path d="M 12.40625 8.296875 
L 28.515625 8.296875 
L 28.515625 63.921875 
L 10.984375 60.40625 
L 10.984375 69.390625 
L 28.421875 72.90625 
L 38.28125 72.90625 
L 38.28125 8.296875 
L 54.390625 8.296875 
L 54.390625 0 
L 12.40625 0 
z
" id="DejaVuSans-31"/>
      </defs>
      <g transform="translate(255.282937 291.410437)scale(0.1 -0.1)">
       <use xlink:href="#DejaVuSans-31"/>
       <use x="63.623047" xlink:href="#DejaVuSans-30"/>
       <use x="127.246094" xlink:href="#DejaVuSans-30"/>
      </g>
     </g>
    </g>
    <g id="xtick_6">
     <g id="line2d_6">
      <g>
       <use style="stroke:#000000;stroke-width:0.8;" x="312.290801" xlink:href="#m136dcc3ca7" y="276.812"/>
      </g>
     </g>
     <g id="text_6">
      <!-- 125 -->
      <g transform="translate(302.747051 291.410437)scale(0.1 -0.1)">
       <use xlink:href="#DejaVuSans-31"/>
       <use x="63.623047" xlink:href="#DejaVuSans-32"/>
       <use x="127.246094" xlink:href="#DejaVuSans-35"/>
      </g>
     </g>
    </g>
    <g id="xtick_7">
     <g id="line2d_7">
      <g>
       <use style="stroke:#000000;stroke-width:0.8;" x="359.754916" xlink:href="#m136dcc3ca7" y="276.812"/>
      </g>
     </g>
     <g id="text_7">
      <!-- 150 -->
      <g transform="translate(350.211166 291.410437)scale(0.1 -0.1)">
       <use xlink:href="#DejaVuSans-31"/>
       <use x="63.623047" xlink:href="#DejaVuSans-35"/>
       <use x="127.246094" xlink:href="#DejaVuSans-30"/>
      </g>
     </g>
    </g>
    <g id="xtick_8">
     <g id="line2d_8">
      <g>
       <use style="stroke:#000000;stroke-width:0.8;" x="407.219031" xlink:href="#m136dcc3ca7" y="276.812"/>
      </g>
     </g>
     <g id="text_8">
      <!-- 175 -->
      <g transform="translate(397.675281 291.410437)scale(0.1 -0.1)">
       <use xlink:href="#DejaVuSans-31"/>
       <use x="63.623047" xlink:href="#DejaVuSans-37"/>
       <use x="127.246094" xlink:href="#DejaVuSans-35"/>
      </g>
     </g>
    </g>
   </g>
   <g id="matplotlib.axis_2">
    <g id="ytick_1">
     <g id="line2d_9">
      <defs>
       <path d="M 0 0 
L -3.5 0 
" id="m774293f91b" style="stroke:#000000;stroke-width:0.8;"/>
      </defs>
      <g>
       <use style="stroke:#000000;stroke-width:0.8;" x="58.7375" xlink:href="#m774293f91b" y="264.667421"/>
      </g>
     </g>
     <g id="text_9">
      <!-- 0 -->
      <g transform="translate(45.375 268.46664)scale(0.1 -0.1)">
       <use xlink:href="#DejaVuSans-30"/>
      </g>
     </g>
    </g>
    <g id="ytick_2">
     <g id="line2d_10">
      <g>
       <use style="stroke:#000000;stroke-width:0.8;" x="58.7375" xlink:href="#m774293f91b" y="229.617574"/>
      </g>
     </g>
     <g id="text_10">
      <!-- 500000 -->
      <g transform="translate(13.5625 233.416793)scale(0.1 -0.1)">
       <use xlink:href="#DejaVuSans-35"/>
       <use x="63.623047" xlink:href="#DejaVuSans-30"/>
       <use x="127.246094" xlink:href="#DejaVuSans-30"/>
       <use x="190.869141" xlink:href="#DejaVuSans-30"/>
       <use x="254.492188" xlink:href="#DejaVuSans-30"/>
       <use x="318.115234" xlink:href="#DejaVuSans-30"/>
      </g>
     </g>
    </g>
    <g id="ytick_3">
     <g id="line2d_11">
      <g>
       <use style="stroke:#000000;stroke-width:0.8;" x="58.7375" xlink:href="#m774293f91b" y="194.567728"/>
      </g>
     </g>
     <g id="text_11">
      <!-- 1000000 -->
      <g transform="translate(7.2 198.366946)scale(0.1 -0.1)">
       <use xlink:href="#DejaVuSans-31"/>
       <use x="63.623047" xlink:href="#DejaVuSans-30"/>
       <use x="127.246094" xlink:href="#DejaVuSans-30"/>
       <use x="190.869141" xlink:href="#DejaVuSans-30"/>
       <use x="254.492188" xlink:href="#DejaVuSans-30"/>
       <use x="318.115234" xlink:href="#DejaVuSans-30"/>
       <use x="381.738281" xlink:href="#DejaVuSans-30"/>
      </g>
     </g>
    </g>
    <g id="ytick_4">
     <g id="line2d_12">
      <g>
       <use style="stroke:#000000;stroke-width:0.8;" x="58.7375" xlink:href="#m774293f91b" y="159.517881"/>
      </g>
     </g>
     <g id="text_12">
      <!-- 1500000 -->
      <g transform="translate(7.2 163.3171)scale(0.1 -0.1)">
       <use xlink:href="#DejaVuSans-31"/>
       <use x="63.623047" xlink:href="#DejaVuSans-35"/>
       <use x="127.246094" xlink:href="#DejaVuSans-30"/>
       <use x="190.869141" xlink:href="#DejaVuSans-30"/>
       <use x="254.492188" xlink:href="#DejaVuSans-30"/>
       <use x="318.115234" xlink:href="#DejaVuSans-30"/>
       <use x="381.738281" xlink:href="#DejaVuSans-30"/>
      </g>
     </g>
    </g>
    <g id="ytick_5">
     <g id="line2d_13">
      <g>
       <use style="stroke:#000000;stroke-width:0.8;" x="58.7375" xlink:href="#m774293f91b" y="124.468034"/>
      </g>
     </g>
     <g id="text_13">
      <!-- 2000000 -->
      <g transform="translate(7.2 128.267253)scale(0.1 -0.1)">
       <use xlink:href="#DejaVuSans-32"/>
       <use x="63.623047" xlink:href="#DejaVuSans-30"/>
       <use x="127.246094" xlink:href="#DejaVuSans-30"/>
       <use x="190.869141" xlink:href="#DejaVuSans-30"/>
       <use x="254.492188" xlink:href="#DejaVuSans-30"/>
       <use x="318.115234" xlink:href="#DejaVuSans-30"/>
       <use x="381.738281" xlink:href="#DejaVuSans-30"/>
      </g>
     </g>
    </g>
    <g id="ytick_6">
     <g id="line2d_14">
      <g>
       <use style="stroke:#000000;stroke-width:0.8;" x="58.7375" xlink:href="#m774293f91b" y="89.418188"/>
      </g>
     </g>
     <g id="text_14">
      <!-- 2500000 -->
      <g transform="translate(7.2 93.217406)scale(0.1 -0.1)">
       <use xlink:href="#DejaVuSans-32"/>
       <use x="63.623047" xlink:href="#DejaVuSans-35"/>
       <use x="127.246094" xlink:href="#DejaVuSans-30"/>
       <use x="190.869141" xlink:href="#DejaVuSans-30"/>
       <use x="254.492188" xlink:href="#DejaVuSans-30"/>
       <use x="318.115234" xlink:href="#DejaVuSans-30"/>
       <use x="381.738281" xlink:href="#DejaVuSans-30"/>
      </g>
     </g>
    </g>
    <g id="ytick_7">
     <g id="line2d_15">
      <g>
       <use style="stroke:#000000;stroke-width:0.8;" x="58.7375" xlink:href="#m774293f91b" y="54.368341"/>
      </g>
     </g>
     <g id="text_15">
      <!-- 3000000 -->
      <defs>
       <path d="M 40.578125 39.3125 
Q 47.65625 37.796875 51.625 33 
Q 55.609375 28.21875 55.609375 21.1875 
Q 55.609375 10.40625 48.1875 4.484375 
Q 40.765625 -1.421875 27.09375 -1.421875 
Q 22.515625 -1.421875 17.65625 -0.515625 
Q 12.796875 0.390625 7.625 2.203125 
L 7.625 11.71875 
Q 11.71875 9.328125 16.59375 8.109375 
Q 21.484375 6.890625 26.8125 6.890625 
Q 36.078125 6.890625 40.9375 10.546875 
Q 45.796875 14.203125 45.796875 21.1875 
Q 45.796875 27.640625 41.28125 31.265625 
Q 36.765625 34.90625 28.71875 34.90625 
L 20.21875 34.90625 
L 20.21875 43.015625 
L 29.109375 43.015625 
Q 36.375 43.015625 40.234375 45.921875 
Q 44.09375 48.828125 44.09375 54.296875 
Q 44.09375 59.90625 40.109375 62.90625 
Q 36.140625 65.921875 28.71875 65.921875 
Q 24.65625 65.921875 20.015625 65.03125 
Q 15.375 64.15625 9.8125 62.3125 
L 9.8125 71.09375 
Q 15.4375 72.65625 20.34375 73.4375 
Q 25.25 74.21875 29.59375 74.21875 
Q 40.828125 74.21875 47.359375 69.109375 
Q 53.90625 64.015625 53.90625 55.328125 
Q 53.90625 49.265625 50.4375 45.09375 
Q 46.96875 40.921875 40.578125 39.3125 
" id="DejaVuSans-33"/>
      </defs>
      <g transform="translate(7.2 58.16756)scale(0.1 -0.1)">
       <use xlink:href="#DejaVuSans-33"/>
       <use x="63.623047" xlink:href="#DejaVuSans-30"/>
       <use x="127.246094" xlink:href="#DejaVuSans-30"/>
       <use x="190.869141" xlink:href="#DejaVuSans-30"/>
       <use x="254.492188" xlink:href="#DejaVuSans-30"/>
       <use x="318.115234" xlink:href="#DejaVuSans-30"/>
       <use x="381.738281" xlink:href="#DejaVuSans-30"/>
      </g>
     </g>
    </g>
    <g id="ytick_8">
     <g id="line2d_16">
      <g>
       <use style="stroke:#000000;stroke-width:0.8;" x="58.7375" xlink:href="#m774293f91b" y="19.318494"/>
      </g>
     </g>
     <g id="text_16">
      <!-- 3500000 -->
      <g transform="translate(7.2 23.117713)scale(0.1 -0.1)">
       <use xlink:href="#DejaVuSans-33"/>
       <use x="63.623047" xlink:href="#DejaVuSans-35"/>
       <use x="127.246094" xlink:href="#DejaVuSans-30"/>
       <use x="190.869141" xlink:href="#DejaVuSans-30"/>
       <use x="254.492188" xlink:href="#DejaVuSans-30"/>
       <use x="318.115234" xlink:href="#DejaVuSans-30"/>
       <use x="381.738281" xlink:href="#DejaVuSans-30"/>
      </g>
     </g>
    </g>
   </g>
   <g id="line2d_17">
    <path clip-path="url(#p46884ba579)" d="M 74.970227 257.624855 
L 76.868792 252.107238 
L 78.767356 255.267192 
L 80.665921 208.434218 
L 82.564486 176.217661 
L 84.46305 238.991235 
L 86.361615 262.818121 
L 88.260179 22.796 
L 90.158744 261.450055 
L 92.057309 259.367043 
L 93.955873 250.492842 
L 95.854438 259.753292 
L 97.753002 76.917239 
L 99.651567 190.103008 
L 101.550132 250.200807 
L 103.448696 256.153463 
L 105.347261 260.64475 
L 107.245825 229.369842 
L 109.14439 264.157025 
L 111.042955 261.653344 
L 112.941519 250.804996 
L 114.840084 248.748972 
L 116.738648 260.834159 
L 118.637213 247.887517 
L 120.535778 260.242167 
L 122.434342 246.600557 
L 124.332907 264.374685 
L 126.231471 262.812022 
L 128.130036 253.602114 
L 130.0286 254.893841 
L 131.927165 130.500604 
L 135.724294 250.373953 
L 137.622859 262.241481 
L 139.521423 264.347907 
L 141.419988 261.10187 
L 143.318553 263.838352 
L 145.217117 263.214044 
L 147.115682 263.26017 
L 149.014246 263.687357 
L 150.912811 260.422955 
L 152.811376 259.467145 
L 154.70994 256.626495 
L 156.608505 214.932109 
L 158.507069 186.453618 
L 160.405634 264.199225 
L 162.304199 242.124201 
L 164.202763 260.631501 
L 166.101328 232.672729 
L 167.999892 261.656779 
L 169.898457 244.46483 
L 171.797022 212.972612 
L 173.695586 262.452551 
L 175.594151 255.740435 
L 177.492715 262.274428 
L 179.39128 261.580301 
L 181.289844 255.814531 
L 183.188409 256.657409 
L 185.086974 262.503023 
L 186.985538 263.90768 
L 188.884103 261.992977 
L 190.782667 244.211489 
L 192.681232 248.798953 
L 194.579797 107.064313 
L 196.478361 256.265061 
L 198.376926 245.119911 
L 200.27549 248.578981 
L 202.174055 222.521663 
L 204.07262 250.739032 
L 205.971184 261.725126 
L 207.869749 245.617829 
L 209.768313 243.079589 
L 213.565443 253.794187 
L 215.464007 232.80718 
L 217.362572 206.600901 
L 219.261136 263.496265 
L 221.159701 213.626572 
L 223.058266 231.557794 
L 224.95683 227.96904 
L 226.855395 262.095183 
L 228.753959 173.8192 
L 230.652524 262.277863 
L 232.551089 253.777714 
L 234.449653 241.052937 
L 236.348218 260.702512 
L 238.246782 256.496811 
L 240.145347 255.803455 
L 242.043911 254.329609 
L 243.942476 172.044977 
L 245.841041 263.137215 
L 247.739605 255.249387 
L 249.63817 260.449803 
L 251.536734 215.632966 
L 253.435299 255.143326 
L 255.333864 263.14093 
L 257.232428 262.654578 
L 259.130993 264.247874 
L 261.029557 263.954787 
L 262.928122 261.989122 
L 264.826687 245.910706 
L 266.725251 239.828015 
L 268.623816 229.817989 
L 270.52238 259.708849 
L 272.420945 255.365752 
L 274.31951 209.593947 
L 276.218074 181.29414 
L 278.116639 259.957282 
L 280.015203 255.672439 
L 281.913768 260.080658 
L 283.812333 165.75444 
L 285.710897 251.353667 
L 287.609462 161.492659 
L 289.508026 186.49035 
L 291.406591 221.47879 
L 293.305156 233.437727 
L 295.20372 235.505878 
L 297.102285 257.887869 
L 299.000849 197.379076 
L 300.899414 171.357088 
L 302.797978 257.830317 
L 304.696543 259.830332 
L 306.595108 251.668765 
L 308.493672 237.809424 
L 310.392237 263.242434 
L 312.290801 255.555933 
L 314.189366 262.17082 
L 316.087931 261.560112 
L 317.986495 254.521822 
L 319.88506 261.858456 
L 321.783624 260.046659 
L 323.682189 255.250088 
L 325.580754 263.189088 
L 327.479318 262.385185 
L 329.377883 215.207601 
L 331.276447 263.600013 
L 333.175012 257.747319 
L 335.073577 262.069947 
L 336.972141 228.256028 
L 338.870706 257.153785 
L 340.76927 254.87211 
L 342.667835 258.643264 
L 344.5664 263.468225 
L 346.464964 262.232438 
L 348.363529 258.650274 
L 350.262093 261.297168 
L 352.160658 255.283736 
L 354.059222 212.695158 
L 355.957787 227.886252 
L 357.856352 263.912097 
L 359.754916 260.547662 
L 361.653481 231.444232 
L 363.552045 223.183123 
L 365.45061 263.09859 
L 367.349175 263.258277 
L 369.247739 263.211941 
L 371.146304 263.858751 
L 373.044868 262.328965 
L 374.943433 229.857455 
L 376.841998 263.947497 
L 378.740562 260.32804 
L 380.639127 252.160374 
L 382.537691 227.388054 
L 384.436256 260.164918 
L 386.334821 259.789884 
L 388.233385 252.356443 
L 390.13195 259.385199 
L 392.030514 187.504062 
L 393.929079 259.045776 
L 395.827644 258.135391 
L 397.726208 215.124252 
L 399.624773 199.600395 
L 399.624773 199.600395 
" style="fill:none;stroke:#1f77b4;stroke-linecap:square;stroke-width:1.5;"/>
   </g>
   <g id="line2d_18">
    <path clip-path="url(#p46884ba579)" d="M 74.970227 262.795759 
L 76.868792 262.656892 
L 78.767356 259.749857 
L 80.665921 260.072316 
L 82.564486 262.483185 
L 84.46305 261.89645 
L 86.361615 263.826715 
L 88.260179 261.757653 
L 90.158744 264.057764 
L 93.955873 262.041557 
L 95.854438 262.895932 
L 97.753002 246.25153 
L 99.651567 260.953609 
L 101.550132 263.702078 
L 103.448696 260.292149 
L 105.347261 263.936491 
L 107.245825 261.635399 
L 109.14439 264.363118 
L 111.042955 262.424862 
L 112.941519 264.288392 
L 114.840084 261.666663 
L 116.738648 263.160979 
L 118.637213 260.474338 
L 120.535778 261.633226 
L 122.434342 259.388143 
L 124.332907 264.184855 
L 126.231471 263.103847 
L 128.130036 264.228947 
L 130.0286 263.312534 
L 131.927165 233.075312 
L 133.82573 259.739272 
L 135.724294 260.469921 
L 137.622859 261.42538 
L 139.521423 264.180438 
L 141.419988 262.40965 
L 143.318553 263.529703 
L 145.217117 262.320834 
L 147.115682 262.685212 
L 149.014246 258.834145 
L 150.912811 259.759671 
L 152.811376 263.657915 
L 154.70994 263.444742 
L 158.507069 262.325741 
L 160.405634 263.545335 
L 164.202763 261.31259 
L 166.101328 256.504732 
L 167.999892 260.748778 
L 169.898457 221.095905 
L 171.797022 261.322123 
L 173.695586 264.400902 
L 175.594151 255.147812 
L 177.492715 263.387891 
L 179.39128 264.296523 
L 181.289844 264.115596 
L 183.188409 263.371207 
L 185.086974 264.117629 
L 186.985538 264.267923 
L 188.884103 263.975046 
L 190.782667 249.441137 
L 192.681232 260.389026 
L 194.579797 250.77962 
L 196.478361 250.170033 
L 198.376926 256.321632 
L 200.27549 261.130541 
L 202.174055 248.007738 
L 204.07262 263.29543 
L 205.971184 261.754989 
L 207.869749 255.559017 
L 209.768313 255.580398 
L 211.666878 264.337602 
L 213.565443 263.876766 
L 215.464007 260.386993 
L 217.362572 260.964685 
L 219.261136 263.580665 
L 223.058266 255.713938 
L 224.95683 256.054131 
L 226.855395 262.98594 
L 228.753959 256.77763 
L 230.652524 263.993342 
L 232.551089 261.73431 
L 234.449653 250.366803 
L 236.348218 261.196855 
L 238.246782 261.38325 
L 240.145347 259.143775 
L 242.043911 263.094804 
L 243.942476 245.292146 
L 245.841041 262.865859 
L 247.739605 262.958601 
L 249.63817 260.99637 
L 251.536734 261.684048 
L 253.435299 261.097454 
L 255.333864 264.002455 
L 257.232428 264.423264 
L 259.130993 261.484334 
L 261.029557 263.977149 
L 262.928122 263.150183 
L 264.826687 261.171339 
L 266.725251 258.750516 
L 268.623816 260.744292 
L 270.52238 257.05845 
L 272.420945 261.099487 
L 274.31951 259.644357 
L 276.218074 256.200359 
L 278.116639 258.593703 
L 280.015203 263.379269 
L 281.913768 260.172909 
L 283.812333 251.958066 
L 285.710897 261.072779 
L 287.609462 257.179091 
L 289.508026 260.128676 
L 291.406591 264.044515 
L 293.305156 255.526351 
L 295.20372 261.722393 
L 297.102285 262.778234 
L 299.000849 257.774097 
L 300.899414 248.488342 
L 302.797978 259.272198 
L 304.696543 263.799797 
L 306.595108 248.849145 
L 308.493672 260.986136 
L 310.392237 261.151991 
L 312.290801 263.153969 
L 314.189366 263.693946 
L 316.087931 260.839908 
L 317.986495 264.431395 
L 319.88506 262.596396 
L 321.783624 262.622262 
L 323.682189 261.67115 
L 325.580754 263.714416 
L 327.479318 260.237821 
L 329.377883 261.767887 
L 331.276447 264.064073 
L 333.175012 258.367772 
L 335.073577 261.899675 
L 336.972141 259.493222 
L 338.870706 262.836066 
L 340.76927 263.305664 
L 342.667835 261.892384 
L 344.5664 263.839544 
L 346.464964 256.585767 
L 348.363529 262.306814 
L 350.262093 257.794707 
L 352.160658 262.827444 
L 354.059222 261.260786 
L 357.856352 261.949095 
L 359.754916 263.451682 
L 361.653481 226.856417 
L 363.552045 257.922849 
L 365.45061 264.066106 
L 367.349175 262.450168 
L 369.247739 264.199576 
L 371.146304 262.813845 
L 373.044868 263.718411 
L 374.943433 255.068249 
L 376.841998 264.039398 
L 378.740562 261.748119 
L 380.639127 261.267095 
L 382.537691 255.789295 
L 384.436256 262.841464 
L 386.334821 263.380811 
L 388.233385 263.249935 
L 390.13195 261.307332 
L 392.030514 263.040547 
L 393.929079 263.153478 
L 395.827644 263.082257 
L 397.726208 262.418202 
L 399.624773 262.359108 
L 399.624773 262.359108 
" style="fill:none;stroke:#ff7f0e;stroke-linecap:square;stroke-width:1.5;"/>
   </g>
   <g id="line2d_19">
    <path clip-path="url(#p46884ba579)" d="M 74.970227 264.60328 
L 76.868792 264.043534 
L 78.767356 264.411207 
L 80.665921 262.722785 
L 82.564486 264.101436 
L 84.46305 263.712663 
L 86.361615 264.426348 
L 88.260179 257.918783 
L 90.158744 263.459813 
L 92.057309 264.145248 
L 93.955873 262.785104 
L 95.854438 264.651438 
L 97.753002 238.69261 
L 99.651567 263.432895 
L 101.550132 264.609028 
L 103.448696 262.673085 
L 105.347261 264.248926 
L 107.245825 263.558163 
L 109.14439 264.425086 
L 111.042955 263.852302 
L 112.941519 263.798185 
L 114.840084 264.309211 
L 116.738648 264.655574 
L 118.637213 263.643475 
L 120.535778 264.036874 
L 122.434342 263.969999 
L 124.332907 264.583792 
L 126.231471 264.358141 
L 128.130036 264.402304 
L 130.0286 263.28176 
L 131.927165 258.154879 
L 133.82573 263.451682 
L 135.724294 264.3083 
L 137.622859 264.221657 
L 139.521423 264.563113 
L 141.419988 264.032318 
L 143.318553 262.815177 
L 145.217117 264.395925 
L 147.115682 264.388074 
L 149.014246 264.646671 
L 150.912811 263.413548 
L 152.811376 264.063162 
L 154.70994 263.985701 
L 156.608505 262.406566 
L 158.507069 264.004418 
L 160.405634 264.410646 
L 164.202763 264.082789 
L 166.101328 263.61908 
L 167.999892 263.74554 
L 169.898457 255.918839 
L 171.797022 263.970209 
L 173.695586 264.551967 
L 175.594151 263.388873 
L 179.39128 264.532619 
L 181.289844 264.614075 
L 183.188409 264.065755 
L 185.086974 264.485582 
L 188.884103 264.503948 
L 190.782667 263.475376 
L 194.579797 263.785707 
L 196.478361 264.294771 
L 198.376926 264.222078 
L 200.27549 264.507524 
L 202.174055 261.736763 
L 204.07262 264.127723 
L 205.971184 264.014653 
L 207.869749 262.865859 
L 209.768313 263.298654 
L 211.666878 264.402514 
L 213.565443 264.389195 
L 215.464007 264.069611 
L 217.362572 264.284536 
L 219.261136 264.042132 
L 221.159701 262.443228 
L 223.058266 262.686333 
L 224.95683 263.336789 
L 226.855395 263.833865 
L 228.753959 262.268049 
L 230.652524 264.414712 
L 232.551089 263.401911 
L 234.449653 264.303954 
L 236.348218 264.310894 
L 238.246782 263.990889 
L 240.145347 264.364029 
L 242.043911 264.140271 
L 243.942476 263.00711 
L 245.841041 263.809331 
L 247.739605 264.328839 
L 249.63817 264.404267 
L 251.536734 262.926004 
L 255.333864 264.44177 
L 257.232428 264.493854 
L 259.130993 264.255866 
L 261.029557 264.535073 
L 264.826687 264.499041 
L 266.725251 263.093683 
L 268.623816 263.834286 
L 270.52238 264.371951 
L 272.420945 264.451584 
L 274.31951 259.739763 
L 276.218074 263.188107 
L 278.116639 264.588138 
L 280.015203 263.291925 
L 281.913768 264.32211 
L 283.812333 263.438293 
L 285.710897 263.15481 
L 287.609462 263.4289 
L 289.508026 263.214114 
L 291.406591 263.279938 
L 293.305156 263.224489 
L 295.20372 263.434437 
L 297.102285 264.264768 
L 299.000849 264.283064 
L 300.899414 263.527039 
L 302.797978 263.831973 
L 304.696543 263.853844 
L 306.595108 264.338303 
L 308.493672 264.112652 
L 310.392237 264.077882 
L 312.290801 263.472782 
L 314.189366 264.392911 
L 316.087931 264.320287 
L 317.986495 264.486774 
L 319.88506 263.866181 
L 321.783624 263.667168 
L 323.682189 260.97534 
L 325.580754 264.141253 
L 327.479318 263.863938 
L 329.377883 263.888473 
L 331.276447 264.349168 
L 333.175012 264.438966 
L 335.073577 263.984299 
L 336.972141 264.180579 
L 340.76927 264.198244 
L 342.667835 263.786899 
L 344.5664 264.43441 
L 348.363529 263.669341 
L 352.160658 264.511169 
L 354.059222 264.550074 
L 355.957787 261.723164 
L 357.856352 263.428339 
L 359.754916 264.534722 
L 361.653481 257.704699 
L 363.552045 264.59655 
L 365.45061 264.407702 
L 367.349175 262.470917 
L 369.247739 264.472894 
L 371.146304 263.651817 
L 373.044868 263.678174 
L 374.943433 255.755437 
L 376.841998 264.563393 
L 378.740562 264.246612 
L 380.639127 263.102585 
L 382.537691 264.261544 
L 384.436256 263.908241 
L 386.334821 263.9496 
L 388.233385 264.530446 
L 390.13195 263.613402 
L 392.030514 264.051104 
L 393.929079 264.36473 
L 395.827644 263.999441 
L 397.726208 264.411627 
L 399.624773 264.289443 
L 399.624773 264.289443 
" style="fill:none;stroke:#2ca02c;stroke-linecap:square;stroke-width:1.5;"/>
   </g>
   <g id="line2d_20">
    <path clip-path="url(#p46884ba579)" d="M 74.970227 264.409384 
L 78.767356 264.047039 
L 80.665921 263.612491 
L 82.564486 264.193126 
L 84.46305 264.285097 
L 86.361615 264.58954 
L 88.260179 263.051623 
L 90.158744 263.894502 
L 93.955873 264.464132 
L 95.854438 264.303954 
L 97.753002 256.482651 
L 99.651567 263.969158 
L 101.550132 264.367745 
L 103.448696 264.175672 
L 105.347261 264.302692 
L 107.245825 264.232032 
L 109.14439 264.545237 
L 114.840084 264.15317 
L 116.738648 264.516216 
L 118.637213 263.530123 
L 120.535778 264.39242 
L 122.434342 264.284536 
L 124.332907 264.612463 
L 126.231471 263.759139 
L 128.130036 264.531428 
L 130.0286 264.121204 
L 131.927165 258.840805 
L 133.82573 264.445766 
L 135.724294 264.28685 
L 137.622859 263.82265 
L 139.521423 264.587788 
L 141.419988 264.321479 
L 143.318553 264.367955 
L 147.115682 263.869827 
L 149.014246 264.491541 
L 150.912811 264.303744 
L 152.811376 264.445485 
L 154.70994 264.241004 
L 156.608505 262.956217 
L 158.507069 264.349659 
L 160.405634 264.585334 
L 162.304199 264.285728 
L 164.202763 264.121134 
L 166.101328 263.699695 
L 167.999892 264.33599 
L 169.898457 260.484923 
L 171.797022 264.174129 
L 173.695586 264.569281 
L 175.594151 263.969719 
L 179.39128 264.609869 
L 181.289844 264.620454 
L 183.188409 264.155343 
L 185.086974 264.35709 
L 186.985538 263.937263 
L 188.884103 264.408262 
L 190.782667 263.834987 
L 192.681232 264.306057 
L 194.579797 260.436975 
L 196.478361 264.389546 
L 198.376926 264.11111 
L 200.27549 264.210721 
L 202.174055 261.892314 
L 204.07262 264.395925 
L 205.971184 264.569211 
L 207.869749 263.426937 
L 209.768313 261.116871 
L 211.666878 264.368235 
L 213.565443 264.105572 
L 215.464007 264.253763 
L 219.261136 264.029444 
L 221.159701 263.515473 
L 223.058266 264.253973 
L 224.95683 262.995964 
L 226.855395 264.494485 
L 228.753959 264.398518 
L 230.652524 264.000633 
L 232.551089 264.369077 
L 234.449653 262.297911 
L 236.348218 262.94381 
L 238.246782 263.84424 
L 240.145347 263.857699 
L 242.043911 264.558276 
L 243.942476 260.04673 
L 245.841041 264.491471 
L 249.63817 264.414992 
L 251.536734 263.814167 
L 253.435299 263.720164 
L 255.333864 264.590732 
L 257.232428 264.592975 
L 259.130993 264.228597 
L 261.029557 264.621155 
L 264.826687 264.258039 
L 266.725251 263.200515 
L 268.623816 263.278886 
L 270.52238 262.45199 
L 272.420945 264.506612 
L 274.31951 263.241243 
L 276.218074 262.854082 
L 278.116639 263.960676 
L 280.015203 264.427329 
L 283.812333 264.258039 
L 285.710897 263.405416 
L 287.609462 264.377699 
L 289.508026 262.818051 
L 291.406591 264.451584 
L 293.305156 263.448598 
L 295.20372 262.03027 
L 297.102285 264.393752 
L 299.000849 264.261894 
L 300.899414 263.475726 
L 302.797978 264.513412 
L 304.696543 264.404197 
L 306.595108 263.354594 
L 308.493672 263.565103 
L 310.392237 264.135294 
L 312.290801 263.747573 
L 314.189366 264.564795 
L 316.087931 264.417095 
L 317.986495 264.584493 
L 321.783624 264.499182 
L 323.682189 263.734394 
L 325.580754 264.203081 
L 327.479318 264.367114 
L 329.377883 262.805853 
L 331.276447 264.509066 
L 333.175012 263.806456 
L 335.073577 263.599732 
L 336.972141 264.455019 
L 340.76927 264.475698 
L 342.667835 264.370479 
L 344.5664 264.543695 
L 346.464964 264.392911 
L 348.363529 263.26718 
L 350.262093 263.528862 
L 352.160658 264.310754 
L 354.059222 264.141323 
L 355.957787 264.217872 
L 357.856352 264.105502 
L 359.754916 264.31538 
L 361.653481 263.293747 
L 363.552045 264.605032 
L 365.45061 264.634404 
L 367.349175 264.107675 
L 369.247739 264.610009 
L 371.146304 264.300309 
L 373.044868 264.471843 
L 374.943433 262.745217 
L 376.841998 264.447378 
L 378.740562 263.123335 
L 380.639127 264.296944 
L 382.537691 263.770776 
L 384.436256 264.243808 
L 386.334821 264.158357 
L 388.233385 264.622697 
L 390.13195 264.399219 
L 392.030514 262.146496 
L 393.929079 264.390737 
L 395.827644 264.443733 
L 397.726208 263.652237 
L 399.624773 263.751919 
L 399.624773 263.751919 
" style="fill:none;stroke:#d62728;stroke-linecap:square;stroke-width:1.5;"/>
   </g>
   <g id="line2d_21">
    <path clip-path="url(#p46884ba579)" d="M 74.970227 264.331433 
L 76.868792 264.024537 
L 78.767356 264.056222 
L 80.665921 264.331293 
L 82.564486 263.16883 
L 84.46305 264.364029 
L 86.361615 264.573978 
L 88.260179 263.510566 
L 90.158744 264.243248 
L 92.057309 264.50486 
L 93.955873 264.086855 
L 95.854438 264.492172 
L 97.753002 259.271777 
L 99.651567 264.158918 
L 101.550132 264.457613 
L 103.448696 263.806807 
L 105.347261 264.324143 
L 107.245825 264.303183 
L 109.14439 264.548111 
L 111.042955 263.504537 
L 112.941519 264.323302 
L 118.637213 264.475698 
L 122.434342 264.184714 
L 124.332907 264.436653 
L 126.231471 263.882865 
L 128.130036 264.549794 
L 130.0286 263.653849 
L 131.927165 263.856578 
L 133.82573 263.596157 
L 135.724294 264.44156 
L 137.622859 263.845222 
L 139.521423 264.574889 
L 141.419988 264.158006 
L 143.318553 264.158637 
L 145.217117 264.288883 
L 147.115682 264.557154 
L 149.014246 264.24465 
L 150.912811 264.09043 
L 152.811376 264.326035 
L 154.70994 264.231261 
L 162.304199 264.398028 
L 164.202763 263.357608 
L 166.101328 264.150155 
L 167.999892 264.428802 
L 169.898457 262.679324 
L 171.797022 264.493574 
L 173.695586 264.587367 
L 175.594151 264.451864 
L 177.492715 264.106904 
L 179.39128 264.57538 
L 181.289844 264.599845 
L 183.188409 264.023625 
L 185.086974 264.447588 
L 188.884103 264.396976 
L 192.681232 264.238621 
L 194.579797 262.255921 
L 196.478361 264.376577 
L 200.27549 264.421091 
L 202.174055 263.977149 
L 204.07262 264.474717 
L 205.971184 263.946796 
L 207.869749 264.123237 
L 209.768313 264.102558 
L 211.666878 264.542643 
L 213.565443 264.224601 
L 215.464007 264.310263 
L 217.362572 264.208689 
L 219.261136 263.665416 
L 221.159701 264.404197 
L 223.058266 263.688899 
L 224.95683 264.285027 
L 226.855395 264.049001 
L 230.652524 264.418217 
L 232.551089 263.901442 
L 234.449653 262.48031 
L 236.348218 263.952684 
L 242.043911 264.495046 
L 243.942476 263.601064 
L 245.841041 264.333396 
L 247.739605 264.470511 
L 253.435299 264.234625 
L 255.333864 264.584423 
L 259.130993 264.409104 
L 261.029557 264.638189 
L 262.928122 264.507103 
L 264.826687 263.724159 
L 266.725251 263.431073 
L 268.623816 264.026359 
L 272.420945 264.607135 
L 274.31951 263.815359 
L 276.218074 263.39392 
L 278.116639 264.250398 
L 280.015203 264.263436 
L 281.913768 264.5261 
L 283.812333 263.87922 
L 285.710897 264.093585 
L 287.609462 263.445022 
L 289.508026 263.638147 
L 291.406591 264.44142 
L 293.305156 263.245098 
L 295.20372 263.089056 
L 297.102285 264.586175 
L 299.000849 263.928009 
L 300.899414 262.413786 
L 302.797978 264.464482 
L 304.696543 264.534512 
L 306.595108 263.936912 
L 310.392237 264.401673 
L 312.290801 264.229859 
L 314.189366 264.599004 
L 319.88506 264.523436 
L 321.783624 264.198734 
L 323.682189 264.365502 
L 325.580754 264.417235 
L 327.479318 263.343308 
L 329.377883 262.664182 
L 331.276447 264.386251 
L 333.175012 263.885108 
L 335.073577 263.801269 
L 336.972141 264.417516 
L 338.870706 264.588839 
L 340.76927 264.498411 
L 344.5664 264.49126 
L 346.464964 263.82328 
L 348.363529 264.23771 
L 352.160658 264.467987 
L 354.059222 264.300169 
L 355.957787 263.361113 
L 357.856352 263.824963 
L 359.754916 264.565075 
L 361.653481 262.692082 
L 363.552045 264.466375 
L 365.45061 264.511449 
L 367.349175 264.290915 
L 369.247739 264.466445 
L 371.146304 263.876696 
L 373.044868 264.424666 
L 374.943433 262.026625 
L 376.841998 264.585685 
L 378.740562 264.002385 
L 380.639127 264.564374 
L 382.537691 263.498719 
L 384.436256 264.419478 
L 386.334821 264.369637 
L 388.233385 264.560939 
L 390.13195 264.369147 
L 392.030514 263.818584 
L 393.929079 263.996286 
L 395.827644 264.547691 
L 397.726208 263.333704 
L 399.624773 264.31538 
L 399.624773 264.31538 
" style="fill:none;stroke:#9467bd;stroke-linecap:square;stroke-width:1.5;"/>
   </g>
   <g id="line2d_22">
    <path clip-path="url(#p46884ba579)" d="M 74.970227 264.415903 
L 76.868792 263.123615 
L 78.767356 264.024467 
L 80.665921 263.738249 
L 82.564486 262.123713 
L 84.46305 264.461959 
L 86.361615 264.577273 
L 88.260179 263.985771 
L 90.158744 264.489368 
L 92.057309 264.512921 
L 93.955873 263.755845 
L 95.854438 264.529745 
L 97.753002 262.832281 
L 99.651567 264.467006 
L 101.550132 264.529955 
L 103.448696 264.091832 
L 105.347261 264.229088 
L 107.245825 264.200978 
L 109.14439 264.583021 
L 111.042955 264.387162 
L 112.941519 264.590732 
L 116.738648 264.581409 
L 118.637213 264.227896 
L 120.535778 264.387373 
L 122.434342 264.25895 
L 124.332907 264.592274 
L 126.231471 264.362417 
L 128.130036 264.296874 
L 130.0286 264.397046 
L 131.927165 261.102571 
L 133.82573 264.308931 
L 137.622859 264.455369 
L 139.521423 264.592204 
L 141.419988 264.305146 
L 143.318553 264.520001 
L 145.217117 264.516987 
L 147.115682 264.021943 
L 149.014246 264.412398 
L 152.811376 264.538578 
L 154.70994 263.997969 
L 156.608505 264.303323 
L 160.405634 264.546148 
L 162.304199 264.484741 
L 164.202763 263.874523 
L 166.101328 263.839053 
L 167.999892 264.484951 
L 169.898457 263.600433 
L 171.797022 264.515094 
L 175.594151 264.532689 
L 177.492715 264.342649 
L 179.39128 264.541031 
L 181.289844 264.606084 
L 183.188409 264.284606 
L 185.086974 264.104731 
L 188.884103 264.457262 
L 190.782667 264.470931 
L 192.681232 264.042833 
L 194.579797 263.327115 
L 196.478361 264.396415 
L 198.376926 264.028392 
L 200.27549 264.388775 
L 202.174055 263.9353 
L 204.07262 264.532549 
L 205.971184 264.316922 
L 207.869749 263.332723 
L 211.666878 264.534231 
L 213.565443 264.001404 
L 215.464007 264.310263 
L 217.362572 264.361716 
L 219.261136 263.910975 
L 221.159701 264.376577 
L 223.058266 264.353094 
L 224.95683 263.532016 
L 228.753959 264.145178 
L 230.652524 264.53991 
L 234.449653 263.103497 
L 236.348218 263.969999 
L 238.246782 264.176513 
L 240.145347 264.239322 
L 242.043911 264.616318 
L 243.942476 263.620202 
L 245.841041 264.304375 
L 247.739605 264.563814 
L 249.63817 264.534792 
L 251.536734 264.102698 
L 253.435299 264.426628 
L 255.333864 264.619893 
L 257.232428 264.614566 
L 259.130993 264.282574 
L 261.029557 264.606574 
L 262.928122 264.588909 
L 264.826687 264.260983 
L 266.725251 264.154361 
L 268.623816 264.514674 
L 270.52238 264.228947 
L 272.420945 264.559397 
L 274.31951 264.010867 
L 276.218074 264.358141 
L 278.116639 264.466165 
L 280.015203 264.394313 
L 281.913768 264.576361 
L 283.812333 263.99881 
L 287.609462 264.457963 
L 289.508026 264.164736 
L 291.406591 264.522735 
L 295.20372 264.200627 
L 297.102285 264.594728 
L 299.000849 264.166909 
L 300.899414 263.936562 
L 302.797978 264.352954 
L 304.696543 264.357931 
L 306.595108 264.17441 
L 308.493672 264.438686 
L 310.392237 264.2872 
L 312.290801 264.374264 
L 314.189366 264.576782 
L 317.986495 264.575801 
L 319.88506 264.582039 
L 321.783624 264.437214 
L 325.580754 264.565005 
L 329.377883 263.63345 
L 331.276447 264.541101 
L 335.073577 264.161652 
L 338.870706 264.619893 
L 344.5664 264.516707 
L 346.464964 264.320357 
L 348.363529 264.436513 
L 350.262093 264.285097 
L 352.160658 264.537176 
L 355.957787 264.045637 
L 357.856352 264.058745 
L 359.754916 264.556383 
L 361.653481 263.742526 
L 363.552045 264.214507 
L 365.45061 264.542643 
L 371.146304 264.330311 
L 373.044868 264.516216 
L 374.943433 264.003437 
L 376.841998 264.510047 
L 378.740562 264.311595 
L 380.639127 264.314048 
L 382.537691 263.39392 
L 384.436256 264.273811 
L 386.334821 264.569351 
L 388.233385 264.626202 
L 390.13195 264.318955 
L 392.030514 262.636703 
L 393.929079 264.007152 
L 395.827644 264.471983 
L 397.726208 264.246262 
L 399.624773 264.215698 
L 399.624773 264.215698 
" style="fill:none;stroke:#8c564b;stroke-linecap:square;stroke-width:1.5;"/>
   </g>
   <g id="line2d_23">
    <path clip-path="url(#p46884ba579)" d="M 74.970227 264.536965 
L 76.868792 264.374474 
L 78.767356 264.363328 
L 80.665921 263.923453 
L 84.46305 264.585895 
L 86.361615 264.646181 
L 88.260179 264.538788 
L 92.057309 264.5683 
L 93.955873 264.456912 
L 95.854438 264.546429 
L 97.753002 262.904974 
L 99.651567 264.546078 
L 101.550132 264.592134 
L 103.448696 264.437354 
L 107.245825 264.378961 
L 109.14439 264.591713 
L 111.042955 264.201188 
L 112.941519 264.616879 
L 114.840084 264.527011 
L 118.637213 264.576081 
L 122.434342 264.484531 
L 124.332907 264.621646 
L 126.231471 264.399991 
L 128.130036 264.522034 
L 130.0286 264.454809 
L 131.927165 263.14121 
L 133.82573 264.325965 
L 135.724294 264.489368 
L 137.622859 264.438686 
L 139.521423 264.655574 
L 143.318553 264.468198 
L 152.811376 264.627815 
L 156.608505 264.398448 
L 158.507069 264.618491 
L 164.202763 264.42761 
L 166.101328 264.196141 
L 167.999892 264.528974 
L 169.898457 262.560715 
L 171.797022 264.295262 
L 173.695586 264.581689 
L 175.594151 264.588629 
L 177.492715 264.479694 
L 179.39128 264.635596 
L 183.188409 264.567809 
L 185.086974 264.475698 
L 186.985538 264.587998 
L 188.884103 264.524347 
L 190.782667 264.597672 
L 192.681232 264.067438 
L 194.579797 262.754751 
L 196.478361 264.21703 
L 198.376926 264.376087 
L 200.27549 264.407281 
L 202.174055 263.680417 
L 204.07262 264.275914 
L 205.971184 264.535143 
L 211.666878 264.527993 
L 213.565443 264.319797 
L 215.464007 264.488456 
L 217.362572 264.525119 
L 219.261136 264.438055 
L 221.159701 264.581479 
L 223.058266 264.544957 
L 224.95683 264.28678 
L 226.855395 263.888333 
L 230.652524 264.597391 
L 232.551089 264.025448 
L 240.145347 264.348678 
L 242.043911 264.628025 
L 243.942476 264.318675 
L 245.841041 264.545377 
L 249.63817 264.569492 
L 251.536734 264.500443 
L 253.435299 264.178265 
L 255.333864 264.602228 
L 257.232428 264.628796 
L 259.130993 264.475628 
L 262.928122 264.607205 
L 268.623816 264.59662 
L 270.52238 264.368866 
L 272.420945 264.615757 
L 276.218074 264.382045 
L 280.015203 264.62459 
L 281.913768 264.58926 
L 283.812333 264.391929 
L 287.609462 264.503388 
L 293.305156 264.558696 
L 295.20372 264.213595 
L 297.102285 264.611341 
L 299.000849 264.586105 
L 300.899414 264.381484 
L 302.797978 264.60335 
L 304.696543 264.632021 
L 306.595108 264.305636 
L 310.392237 264.581338 
L 325.580754 264.623539 
L 327.479318 264.368165 
L 329.377883 264.264838 
L 331.276447 264.636016 
L 333.175012 264.39964 
L 338.870706 264.640503 
L 340.76927 264.576081 
L 344.5664 264.638259 
L 346.464964 264.149665 
L 348.363529 264.495466 
L 350.262093 264.447518 
L 352.160658 264.605242 
L 354.059222 264.535143 
L 355.957787 263.828538 
L 357.856352 264.421441 
L 359.754916 264.606715 
L 361.653481 262.887239 
L 363.552045 264.549864 
L 365.45061 264.477591 
L 369.247739 264.609729 
L 371.146304 264.537526 
L 373.044868 264.600125 
L 374.943433 264.321619 
L 376.841998 264.619403 
L 378.740562 264.410576 
L 380.639127 264.474296 
L 382.537691 263.986402 
L 384.436256 264.374124 
L 388.233385 264.640433 
L 390.13195 264.497569 
L 392.030514 263.983108 
L 393.929079 264.444013 
L 395.827644 264.556523 
L 397.726208 264.283064 
L 399.624773 264.594097 
L 399.624773 264.594097 
" style="fill:none;stroke:#e377c2;stroke-linecap:square;stroke-width:1.5;"/>
   </g>
   <g id="line2d_24">
    <path clip-path="url(#p46884ba579)" d="M 74.970227 264.62494 
L 76.868792 264.317694 
L 78.767356 264.514884 
L 80.665921 264.310333 
L 84.46305 264.62438 
L 93.955873 264.618351 
L 95.854438 264.551616 
L 97.753002 263.182149 
L 99.651567 264.607766 
L 101.550132 264.606224 
L 103.448696 264.472754 
L 109.14439 264.619893 
L 111.042955 264.509907 
L 112.941519 264.634544 
L 116.738648 264.618351 
L 118.637213 264.37861 
L 120.535778 264.516216 
L 122.434342 264.463221 
L 124.332907 264.627604 
L 130.0286 264.507874 
L 131.927165 264.246262 
L 133.82573 264.543485 
L 135.724294 264.53332 
L 137.622859 264.387443 
L 139.521423 264.633072 
L 141.419988 264.438896 
L 143.318553 264.598934 
L 145.217117 264.497289 
L 147.115682 264.603069 
L 156.608505 264.593255 
L 158.507069 264.657957 
L 166.101328 264.520702 
L 167.999892 264.613094 
L 169.898457 262.441265 
L 171.797022 264.411557 
L 173.695586 264.606574 
L 177.492715 264.583792 
L 181.289844 264.646111 
L 183.188409 264.488667 
L 185.086974 264.583371 
L 186.985538 264.524488 
L 188.884103 264.630548 
L 190.782667 264.580497 
L 192.681232 264.149454 
L 194.579797 261.998305 
L 196.478361 264.56858 
L 198.376926 264.556243 
L 200.27549 264.407842 
L 202.174055 264.015634 
L 204.07262 264.587227 
L 207.869749 264.592134 
L 209.768313 264.330662 
L 211.666878 264.622487 
L 217.362572 264.608397 
L 223.058266 264.549864 
L 224.95683 264.39263 
L 226.855395 264.523506 
L 228.753959 264.503738 
L 230.652524 264.59662 
L 232.551089 264.423754 
L 234.449653 264.614075 
L 236.348218 264.447728 
L 238.246782 264.608888 
L 240.145347 264.552948 
L 242.043911 264.621015 
L 243.942476 264.35008 
L 245.841041 264.580988 
L 249.63817 264.636437 
L 253.435299 264.453477 
L 255.333864 264.642255 
L 257.232428 264.643938 
L 259.130993 264.524347 
L 261.029557 264.628586 
L 262.928122 264.611622 
L 264.826687 264.432867 
L 266.725251 264.562482 
L 293.305156 264.594237 
L 295.20372 264.278788 
L 297.102285 264.647162 
L 299.000849 264.553229 
L 304.696543 264.643307 
L 306.595108 264.459645 
L 314.189366 264.615407 
L 323.682189 264.544817 
L 325.580754 264.653261 
L 327.479318 264.425507 
L 329.377883 264.366062 
L 331.276447 264.620524 
L 333.175012 264.337532 
L 335.073577 264.574679 
L 344.5664 264.62424 
L 346.464964 264.38548 
L 348.363529 264.601037 
L 350.262093 264.48425 
L 352.160658 264.646111 
L 357.856352 264.458173 
L 359.754916 264.620664 
L 361.653481 263.96376 
L 363.552045 264.430764 
L 369.247739 264.64576 
L 371.146304 264.557575 
L 378.740562 264.597812 
L 380.639127 264.443452 
L 382.537691 263.131677 
L 384.436256 264.517127 
L 388.233385 264.655714 
L 390.13195 264.513973 
L 392.030514 264.088608 
L 393.929079 263.920158 
L 395.827644 264.598162 
L 397.726208 264.459085 
L 399.624773 264.619823 
L 399.624773 264.619823 
" style="fill:none;stroke:#7f7f7f;stroke-linecap:square;stroke-width:1.5;"/>
   </g>
   <g id="line2d_25">
    <path clip-path="url(#p46884ba579)" d="M 74.970227 264.667421 
L 120.535778 264.667351 
L 399.624773 264.661743 
L 399.624773 264.661743 
" style="fill:none;stroke:#bcbd22;stroke-linecap:square;stroke-width:1.5;"/>
   </g>
   <g id="line2d_26">
    <path clip-path="url(#p46884ba579)" d="M 74.970227 264.667421 
L 399.624773 264.663005 
L 399.624773 264.663005 
" style="fill:none;stroke:#17becf;stroke-linecap:square;stroke-width:1.5;"/>
   </g>
   <g id="line2d_27">
    <path clip-path="url(#p46884ba579)" d="M 74.970227 264.663215 
L 95.854438 264.663145 
L 99.651567 264.660131 
L 202.174055 264.668753 
L 399.624773 264.629146 
L 399.624773 264.629146 
" style="fill:none;stroke:#1f77b4;stroke-linecap:square;stroke-width:1.5;"/>
   </g>
   <g id="line2d_28">
    <path clip-path="url(#p46884ba579)" d="M 74.970227 264.667421 
L 399.624773 264.667421 
L 399.624773 264.667421 
" style="fill:none;stroke:#ff7f0e;stroke-linecap:square;stroke-width:1.5;"/>
   </g>
   <g id="patch_3">
    <path d="M 58.7375 276.812 
L 58.7375 10.7 
" style="fill:none;stroke:#000000;stroke-linecap:square;stroke-linejoin:miter;stroke-width:0.8;"/>
   </g>
   <g id="patch_4">
    <path d="M 415.8575 276.812 
L 415.8575 10.7 
" style="fill:none;stroke:#000000;stroke-linecap:square;stroke-linejoin:miter;stroke-width:0.8;"/>
   </g>
   <g id="patch_5">
    <path d="M 58.7375 276.812 
L 415.8575 276.812 
" style="fill:none;stroke:#000000;stroke-linecap:square;stroke-linejoin:miter;stroke-width:0.8;"/>
   </g>
   <g id="patch_6">
    <path d="M 58.7375 10.7 
L 415.8575 10.7 
" style="fill:none;stroke:#000000;stroke-linecap:square;stroke-linejoin:miter;stroke-width:0.8;"/>
   </g>
   <g id="legend_1">
    <g id="patch_7">
     <path d="M 318.504375 165.48125 
L 408.8575 165.48125 
Q 410.8575 165.48125 410.8575 163.48125 
L 410.8575 17.7 
Q 410.8575 15.7 408.8575 15.7 
L 318.504375 15.7 
Q 316.504375 15.7 316.504375 17.7 
L 316.504375 163.48125 
Q 316.504375 165.48125 318.504375 165.48125 
z
" style="fill:#ffffff;opacity:0.8;stroke:#cccccc;stroke-linejoin:miter;"/>
    </g>
    <g id="line2d_29">
     <path d="M 320.504375 23.798437 
L 340.504375 23.798437 
" style="fill:none;stroke:#1f77b4;stroke-linecap:square;stroke-width:1.5;"/>
    </g>
    <g id="line2d_30"/>
    <g id="text_17">
     <!-- delta -->
     <defs>
      <path d="M 45.40625 46.390625 
L 45.40625 75.984375 
L 54.390625 75.984375 
L 54.390625 0 
L 45.40625 0 
L 45.40625 8.203125 
Q 42.578125 3.328125 38.25 0.953125 
Q 33.9375 -1.421875 27.875 -1.421875 
Q 17.96875 -1.421875 11.734375 6.484375 
Q 5.515625 14.40625 5.515625 27.296875 
Q 5.515625 40.1875 11.734375 48.09375 
Q 17.96875 56 27.875 56 
Q 33.9375 56 38.25 53.625 
Q 42.578125 51.265625 45.40625 46.390625 
M 14.796875 27.296875 
Q 14.796875 17.390625 18.875 11.75 
Q 22.953125 6.109375 30.078125 6.109375 
Q 37.203125 6.109375 41.296875 11.75 
Q 45.40625 17.390625 45.40625 27.296875 
Q 45.40625 37.203125 41.296875 42.84375 
Q 37.203125 48.484375 30.078125 48.484375 
Q 22.953125 48.484375 18.875 42.84375 
Q 14.796875 37.203125 14.796875 27.296875 
" id="DejaVuSans-64"/>
      <path d="M 56.203125 29.59375 
L 56.203125 25.203125 
L 14.890625 25.203125 
Q 15.484375 15.921875 20.484375 11.0625 
Q 25.484375 6.203125 34.421875 6.203125 
Q 39.59375 6.203125 44.453125 7.46875 
Q 49.3125 8.734375 54.109375 11.28125 
L 54.109375 2.78125 
Q 49.265625 0.734375 44.1875 -0.34375 
Q 39.109375 -1.421875 33.890625 -1.421875 
Q 20.796875 -1.421875 13.15625 6.1875 
Q 5.515625 13.8125 5.515625 26.8125 
Q 5.515625 40.234375 12.765625 48.109375 
Q 20.015625 56 32.328125 56 
Q 43.359375 56 49.78125 48.890625 
Q 56.203125 41.796875 56.203125 29.59375 
M 47.21875 32.234375 
Q 47.125 39.59375 43.09375 43.984375 
Q 39.0625 48.390625 32.421875 48.390625 
Q 24.90625 48.390625 20.390625 44.140625 
Q 15.875 39.890625 15.1875 32.171875 
z
" id="DejaVuSans-65"/>
      <path d="M 9.421875 75.984375 
L 18.40625 75.984375 
L 18.40625 0 
L 9.421875 0 
z
" id="DejaVuSans-6c"/>
      <path d="M 18.3125 70.21875 
L 18.3125 54.6875 
L 36.8125 54.6875 
L 36.8125 47.703125 
L 18.3125 47.703125 
L 18.3125 18.015625 
Q 18.3125 11.328125 20.140625 9.421875 
Q 21.96875 7.515625 27.59375 7.515625 
L 36.8125 7.515625 
L 36.8125 0 
L 27.59375 0 
Q 17.1875 0 13.234375 3.875 
Q 9.28125 7.765625 9.28125 18.015625 
L 9.28125 47.703125 
L 2.6875 47.703125 
L 2.6875 54.6875 
L 9.28125 54.6875 
L 9.28125 70.21875 
z
" id="DejaVuSans-74"/>
      <path d="M 34.28125 27.484375 
Q 23.390625 27.484375 19.1875 25 
Q 14.984375 22.515625 14.984375 16.5 
Q 14.984375 11.71875 18.140625 8.90625 
Q 21.296875 6.109375 26.703125 6.109375 
Q 34.1875 6.109375 38.703125 11.40625 
Q 43.21875 16.703125 43.21875 25.484375 
L 43.21875 27.484375 
z
M 52.203125 31.203125 
L 52.203125 0 
L 43.21875 0 
L 43.21875 8.296875 
Q 40.140625 3.328125 35.546875 0.953125 
Q 30.953125 -1.421875 24.3125 -1.421875 
Q 15.921875 -1.421875 10.953125 3.296875 
Q 6 8.015625 6 15.921875 
Q 6 25.140625 12.171875 29.828125 
Q 18.359375 34.515625 30.609375 34.515625 
L 43.21875 34.515625 
L 43.21875 35.40625 
Q 43.21875 41.609375 39.140625 45 
Q 35.0625 48.390625 27.6875 48.390625 
Q 23 48.390625 18.546875 47.265625 
Q 14.109375 46.140625 10.015625 43.890625 
L 10.015625 52.203125 
Q 14.9375 54.109375 19.578125 55.046875 
Q 24.21875 56 28.609375 56 
Q 40.484375 56 46.34375 49.84375 
Q 52.203125 43.703125 52.203125 31.203125 
" id="DejaVuSans-61"/>
     </defs>
     <g transform="translate(348.504375 27.298437)scale(0.1 -0.1)">
      <use xlink:href="#DejaVuSans-64"/>
      <use x="63.476562" xlink:href="#DejaVuSans-65"/>
      <use x="125" xlink:href="#DejaVuSans-6c"/>
      <use x="152.783203" xlink:href="#DejaVuSans-74"/>
      <use x="191.992188" xlink:href="#DejaVuSans-61"/>
     </g>
    </g>
    <g id="line2d_31">
     <path d="M 320.504375 38.476562 
L 340.504375 38.476562 
" style="fill:none;stroke:#ff7f0e;stroke-linecap:square;stroke-width:1.5;"/>
    </g>
    <g id="line2d_32"/>
    <g id="text_18">
     <!-- lowAlpha -->
     <defs>
      <path d="M 30.609375 48.390625 
Q 23.390625 48.390625 19.1875 42.75 
Q 14.984375 37.109375 14.984375 27.296875 
Q 14.984375 17.484375 19.15625 11.84375 
Q 23.34375 6.203125 30.609375 6.203125 
Q 37.796875 6.203125 41.984375 11.859375 
Q 46.1875 17.53125 46.1875 27.296875 
Q 46.1875 37.015625 41.984375 42.703125 
Q 37.796875 48.390625 30.609375 48.390625 
M 30.609375 56 
Q 42.328125 56 49.015625 48.375 
Q 55.71875 40.765625 55.71875 27.296875 
Q 55.71875 13.875 49.015625 6.21875 
Q 42.328125 -1.421875 30.609375 -1.421875 
Q 18.84375 -1.421875 12.171875 6.21875 
Q 5.515625 13.875 5.515625 27.296875 
Q 5.515625 40.765625 12.171875 48.375 
Q 18.84375 56 30.609375 56 
" id="DejaVuSans-6f"/>
      <path d="M 4.203125 54.6875 
L 13.1875 54.6875 
L 24.421875 12.015625 
L 35.59375 54.6875 
L 46.1875 54.6875 
L 57.421875 12.015625 
L 68.609375 54.6875 
L 77.59375 54.6875 
L 63.28125 0 
L 52.6875 0 
L 40.921875 44.828125 
L 29.109375 0 
L 18.5 0 
z
" id="DejaVuSans-77"/>
      <path d="M 34.1875 63.1875 
L 20.796875 26.90625 
L 47.609375 26.90625 
z
M 28.609375 72.90625 
L 39.796875 72.90625 
L 67.578125 0 
L 57.328125 0 
L 50.6875 18.703125 
L 17.828125 18.703125 
L 11.1875 0 
L 0.78125 0 
z
" id="DejaVuSans-41"/>
      <path d="M 18.109375 8.203125 
L 18.109375 -20.796875 
L 9.078125 -20.796875 
L 9.078125 54.6875 
L 18.109375 54.6875 
L 18.109375 46.390625 
Q 20.953125 51.265625 25.265625 53.625 
Q 29.59375 56 35.59375 56 
Q 45.5625 56 51.78125 48.09375 
Q 58.015625 40.1875 58.015625 27.296875 
Q 58.015625 14.40625 51.78125 6.484375 
Q 45.5625 -1.421875 35.59375 -1.421875 
Q 29.59375 -1.421875 25.265625 0.953125 
Q 20.953125 3.328125 18.109375 8.203125 
M 48.6875 27.296875 
Q 48.6875 37.203125 44.609375 42.84375 
Q 40.53125 48.484375 33.40625 48.484375 
Q 26.265625 48.484375 22.1875 42.84375 
Q 18.109375 37.203125 18.109375 27.296875 
Q 18.109375 17.390625 22.1875 11.75 
Q 26.265625 6.109375 33.40625 6.109375 
Q 40.53125 6.109375 44.609375 11.75 
Q 48.6875 17.390625 48.6875 27.296875 
" id="DejaVuSans-70"/>
      <path d="M 54.890625 33.015625 
L 54.890625 0 
L 45.90625 0 
L 45.90625 32.71875 
Q 45.90625 40.484375 42.875 44.328125 
Q 39.84375 48.1875 33.796875 48.1875 
Q 26.515625 48.1875 22.3125 43.546875 
Q 18.109375 38.921875 18.109375 30.90625 
L 18.109375 0 
L 9.078125 0 
L 9.078125 75.984375 
L 18.109375 75.984375 
L 18.109375 46.1875 
Q 21.34375 51.125 25.703125 53.5625 
Q 30.078125 56 35.796875 56 
Q 45.21875 56 50.046875 50.171875 
Q 54.890625 44.34375 54.890625 33.015625 
" id="DejaVuSans-68"/>
     </defs>
     <g transform="translate(348.504375 41.976562)scale(0.1 -0.1)">
      <use xlink:href="#DejaVuSans-6c"/>
      <use x="27.783203" xlink:href="#DejaVuSans-6f"/>
      <use x="88.964844" xlink:href="#DejaVuSans-77"/>
      <use x="170.751953" xlink:href="#DejaVuSans-41"/>
      <use x="239.160156" xlink:href="#DejaVuSans-6c"/>
      <use x="266.943359" xlink:href="#DejaVuSans-70"/>
      <use x="330.419922" xlink:href="#DejaVuSans-68"/>
      <use x="393.798828" xlink:href="#DejaVuSans-61"/>
     </g>
    </g>
    <g id="line2d_33">
     <path d="M 320.504375 53.154687 
L 340.504375 53.154687 
" style="fill:none;stroke:#2ca02c;stroke-linecap:square;stroke-width:1.5;"/>
    </g>
    <g id="line2d_34"/>
    <g id="text_19">
     <!-- highAlpha -->
     <defs>
      <path d="M 9.421875 54.6875 
L 18.40625 54.6875 
L 18.40625 0 
L 9.421875 0 
z
M 9.421875 75.984375 
L 18.40625 75.984375 
L 18.40625 64.59375 
L 9.421875 64.59375 
z
" id="DejaVuSans-69"/>
      <path d="M 45.40625 27.984375 
Q 45.40625 37.75 41.375 43.109375 
Q 37.359375 48.484375 30.078125 48.484375 
Q 22.859375 48.484375 18.828125 43.109375 
Q 14.796875 37.75 14.796875 27.984375 
Q 14.796875 18.265625 18.828125 12.890625 
Q 22.859375 7.515625 30.078125 7.515625 
Q 37.359375 7.515625 41.375 12.890625 
Q 45.40625 18.265625 45.40625 27.984375 
M 54.390625 6.78125 
Q 54.390625 -7.171875 48.1875 -13.984375 
Q 42 -20.796875 29.203125 -20.796875 
Q 24.46875 -20.796875 20.265625 -20.09375 
Q 16.0625 -19.390625 12.109375 -17.921875 
L 12.109375 -9.1875 
Q 16.0625 -11.328125 19.921875 -12.34375 
Q 23.78125 -13.375 27.78125 -13.375 
Q 36.625 -13.375 41.015625 -8.765625 
Q 45.40625 -4.15625 45.40625 5.171875 
L 45.40625 9.625 
Q 42.625 4.78125 38.28125 2.390625 
Q 33.9375 0 27.875 0 
Q 17.828125 0 11.671875 7.65625 
Q 5.515625 15.328125 5.515625 27.984375 
Q 5.515625 40.671875 11.671875 48.328125 
Q 17.828125 56 27.875 56 
Q 33.9375 56 38.28125 53.609375 
Q 42.625 51.21875 45.40625 46.390625 
L 45.40625 54.6875 
L 54.390625 54.6875 
z
" id="DejaVuSans-67"/>
     </defs>
     <g transform="translate(348.504375 56.654687)scale(0.1 -0.1)">
      <use xlink:href="#DejaVuSans-68"/>
      <use x="63.378906" xlink:href="#DejaVuSans-69"/>
      <use x="91.162109" xlink:href="#DejaVuSans-67"/>
      <use x="154.638672" xlink:href="#DejaVuSans-68"/>
      <use x="218.017578" xlink:href="#DejaVuSans-41"/>
      <use x="286.425781" xlink:href="#DejaVuSans-6c"/>
      <use x="314.208984" xlink:href="#DejaVuSans-70"/>
      <use x="377.685547" xlink:href="#DejaVuSans-68"/>
      <use x="441.064453" xlink:href="#DejaVuSans-61"/>
     </g>
    </g>
    <g id="line2d_35">
     <path d="M 320.504375 67.832812 
L 340.504375 67.832812 
" style="fill:none;stroke:#d62728;stroke-linecap:square;stroke-width:1.5;"/>
    </g>
    <g id="line2d_36"/>
    <g id="text_20">
     <!-- lowBeta -->
     <defs>
      <path d="M 19.671875 34.8125 
L 19.671875 8.109375 
L 35.5 8.109375 
Q 43.453125 8.109375 47.28125 11.40625 
Q 51.125 14.703125 51.125 21.484375 
Q 51.125 28.328125 47.28125 31.5625 
Q 43.453125 34.8125 35.5 34.8125 
z
M 19.671875 64.796875 
L 19.671875 42.828125 
L 34.28125 42.828125 
Q 41.5 42.828125 45.03125 45.53125 
Q 48.578125 48.25 48.578125 53.8125 
Q 48.578125 59.328125 45.03125 62.0625 
Q 41.5 64.796875 34.28125 64.796875 
z
M 9.8125 72.90625 
L 35.015625 72.90625 
Q 46.296875 72.90625 52.390625 68.21875 
Q 58.5 63.53125 58.5 54.890625 
Q 58.5 48.1875 55.375 44.234375 
Q 52.25 40.28125 46.1875 39.3125 
Q 53.46875 37.75 57.5 32.78125 
Q 61.53125 27.828125 61.53125 20.40625 
Q 61.53125 10.640625 54.890625 5.3125 
Q 48.25 0 35.984375 0 
L 9.8125 0 
z
" id="DejaVuSans-42"/>
     </defs>
     <g transform="translate(348.504375 71.332812)scale(0.1 -0.1)">
      <use xlink:href="#DejaVuSans-6c"/>
      <use x="27.783203" xlink:href="#DejaVuSans-6f"/>
      <use x="88.964844" xlink:href="#DejaVuSans-77"/>
      <use x="170.751953" xlink:href="#DejaVuSans-42"/>
      <use x="239.355469" xlink:href="#DejaVuSans-65"/>
      <use x="300.878906" xlink:href="#DejaVuSans-74"/>
      <use x="340.087891" xlink:href="#DejaVuSans-61"/>
     </g>
    </g>
    <g id="line2d_37">
     <path d="M 320.504375 82.510938 
L 340.504375 82.510938 
" style="fill:none;stroke:#9467bd;stroke-linecap:square;stroke-width:1.5;"/>
    </g>
    <g id="line2d_38"/>
    <g id="text_21">
     <!-- highBeta -->
     <g transform="translate(348.504375 86.010938)scale(0.1 -0.1)">
      <use xlink:href="#DejaVuSans-68"/>
      <use x="63.378906" xlink:href="#DejaVuSans-69"/>
      <use x="91.162109" xlink:href="#DejaVuSans-67"/>
      <use x="154.638672" xlink:href="#DejaVuSans-68"/>
      <use x="218.017578" xlink:href="#DejaVuSans-42"/>
      <use x="286.621094" xlink:href="#DejaVuSans-65"/>
      <use x="348.144531" xlink:href="#DejaVuSans-74"/>
      <use x="387.353516" xlink:href="#DejaVuSans-61"/>
     </g>
    </g>
    <g id="line2d_39">
     <path d="M 320.504375 97.189062 
L 340.504375 97.189062 
" style="fill:none;stroke:#8c564b;stroke-linecap:square;stroke-width:1.5;"/>
    </g>
    <g id="line2d_40"/>
    <g id="text_22">
     <!-- lowGamma -->
     <defs>
      <path d="M 59.515625 10.40625 
L 59.515625 29.984375 
L 43.40625 29.984375 
L 43.40625 38.09375 
L 69.28125 38.09375 
L 69.28125 6.78125 
Q 63.578125 2.734375 56.6875 0.65625 
Q 49.8125 -1.421875 42 -1.421875 
Q 24.90625 -1.421875 15.25 8.5625 
Q 5.609375 18.5625 5.609375 36.375 
Q 5.609375 54.25 15.25 64.234375 
Q 24.90625 74.21875 42 74.21875 
Q 49.125 74.21875 55.546875 72.453125 
Q 61.96875 70.703125 67.390625 67.28125 
L 67.390625 56.78125 
Q 61.921875 61.421875 55.765625 63.765625 
Q 49.609375 66.109375 42.828125 66.109375 
Q 29.4375 66.109375 22.71875 58.640625 
Q 16.015625 51.171875 16.015625 36.375 
Q 16.015625 21.625 22.71875 14.15625 
Q 29.4375 6.6875 42.828125 6.6875 
Q 48.046875 6.6875 52.140625 7.59375 
Q 56.25 8.5 59.515625 10.40625 
" id="DejaVuSans-47"/>
      <path d="M 52 44.1875 
Q 55.375 50.25 60.0625 53.125 
Q 64.75 56 71.09375 56 
Q 79.640625 56 84.28125 50.015625 
Q 88.921875 44.046875 88.921875 33.015625 
L 88.921875 0 
L 79.890625 0 
L 79.890625 32.71875 
Q 79.890625 40.578125 77.09375 44.375 
Q 74.3125 48.1875 68.609375 48.1875 
Q 61.625 48.1875 57.5625 43.546875 
Q 53.515625 38.921875 53.515625 30.90625 
L 53.515625 0 
L 44.484375 0 
L 44.484375 32.71875 
Q 44.484375 40.625 41.703125 44.40625 
Q 38.921875 48.1875 33.109375 48.1875 
Q 26.21875 48.1875 22.15625 43.53125 
Q 18.109375 38.875 18.109375 30.90625 
L 18.109375 0 
L 9.078125 0 
L 9.078125 54.6875 
L 18.109375 54.6875 
L 18.109375 46.1875 
Q 21.1875 51.21875 25.484375 53.609375 
Q 29.78125 56 35.6875 56 
Q 41.65625 56 45.828125 52.96875 
Q 50 49.953125 52 44.1875 
" id="DejaVuSans-6d"/>
     </defs>
     <g transform="translate(348.504375 100.689062)scale(0.1 -0.1)">
      <use xlink:href="#DejaVuSans-6c"/>
      <use x="27.783203" xlink:href="#DejaVuSans-6f"/>
      <use x="88.964844" xlink:href="#DejaVuSans-77"/>
      <use x="170.751953" xlink:href="#DejaVuSans-47"/>
      <use x="248.242188" xlink:href="#DejaVuSans-61"/>
      <use x="309.521484" xlink:href="#DejaVuSans-6d"/>
      <use x="406.933594" xlink:href="#DejaVuSans-6d"/>
      <use x="504.345703" xlink:href="#DejaVuSans-61"/>
     </g>
    </g>
    <g id="line2d_41">
     <path d="M 320.504375 111.867188 
L 340.504375 111.867188 
" style="fill:none;stroke:#e377c2;stroke-linecap:square;stroke-width:1.5;"/>
    </g>
    <g id="line2d_42"/>
    <g id="text_23">
     <!-- midGamma -->
     <g transform="translate(348.504375 115.367188)scale(0.1 -0.1)">
      <use xlink:href="#DejaVuSans-6d"/>
      <use x="97.412109" xlink:href="#DejaVuSans-69"/>
      <use x="125.195312" xlink:href="#DejaVuSans-64"/>
      <use x="188.671875" xlink:href="#DejaVuSans-47"/>
      <use x="266.162109" xlink:href="#DejaVuSans-61"/>
      <use x="327.441406" xlink:href="#DejaVuSans-6d"/>
      <use x="424.853516" xlink:href="#DejaVuSans-6d"/>
      <use x="522.265625" xlink:href="#DejaVuSans-61"/>
     </g>
    </g>
    <g id="line2d_43">
     <path d="M 320.504375 126.545312 
L 340.504375 126.545312 
" style="fill:none;stroke:#7f7f7f;stroke-linecap:square;stroke-width:1.5;"/>
    </g>
    <g id="line2d_44"/>
    <g id="text_24">
     <!-- attention -->
     <defs>
      <path d="M 54.890625 33.015625 
L 54.890625 0 
L 45.90625 0 
L 45.90625 32.71875 
Q 45.90625 40.484375 42.875 44.328125 
Q 39.84375 48.1875 33.796875 48.1875 
Q 26.515625 48.1875 22.3125 43.546875 
Q 18.109375 38.921875 18.109375 30.90625 
L 18.109375 0 
L 9.078125 0 
L 9.078125 54.6875 
L 18.109375 54.6875 
L 18.109375 46.1875 
Q 21.34375 51.125 25.703125 53.5625 
Q 30.078125 56 35.796875 56 
Q 45.21875 56 50.046875 50.171875 
Q 54.890625 44.34375 54.890625 33.015625 
" id="DejaVuSans-6e"/>
     </defs>
     <g transform="translate(348.504375 130.045312)scale(0.1 -0.1)">
      <use xlink:href="#DejaVuSans-61"/>
      <use x="61.279297" xlink:href="#DejaVuSans-74"/>
      <use x="100.488281" xlink:href="#DejaVuSans-74"/>
      <use x="139.697266" xlink:href="#DejaVuSans-65"/>
      <use x="201.220703" xlink:href="#DejaVuSans-6e"/>
      <use x="264.599609" xlink:href="#DejaVuSans-74"/>
      <use x="303.808594" xlink:href="#DejaVuSans-69"/>
      <use x="331.591797" xlink:href="#DejaVuSans-6f"/>
      <use x="392.773438" xlink:href="#DejaVuSans-6e"/>
     </g>
    </g>
    <g id="line2d_45">
     <path d="M 320.504375 141.223437 
L 340.504375 141.223437 
" style="fill:none;stroke:#bcbd22;stroke-linecap:square;stroke-width:1.5;"/>
    </g>
    <g id="line2d_46"/>
    <g id="text_25">
     <!-- meditation -->
     <g transform="translate(348.504375 144.723437)scale(0.1 -0.1)">
      <use xlink:href="#DejaVuSans-6d"/>
      <use x="97.412109" xlink:href="#DejaVuSans-65"/>
      <use x="158.935547" xlink:href="#DejaVuSans-64"/>
      <use x="222.412109" xlink:href="#DejaVuSans-69"/>
      <use x="250.195312" xlink:href="#DejaVuSans-74"/>
      <use x="289.404297" xlink:href="#DejaVuSans-61"/>
      <use x="350.683594" xlink:href="#DejaVuSans-74"/>
      <use x="389.892578" xlink:href="#DejaVuSans-69"/>
      <use x="417.675781" xlink:href="#DejaVuSans-6f"/>
      <use x="478.857422" xlink:href="#DejaVuSans-6e"/>
     </g>
    </g>
    <g id="line2d_47">
     <path d="M 320.504375 155.901562 
L 340.504375 155.901562 
" style="fill:none;stroke:#17becf;stroke-linecap:square;stroke-width:1.5;"/>
    </g>
    <g id="line2d_48"/>
    <g id="text_26">
     <!-- rawValue -->
     <defs>
      <path d="M 41.109375 46.296875 
Q 39.59375 47.171875 37.8125 47.578125 
Q 36.03125 48 33.890625 48 
Q 26.265625 48 22.1875 43.046875 
Q 18.109375 38.09375 18.109375 28.8125 
L 18.109375 0 
L 9.078125 0 
L 9.078125 54.6875 
L 18.109375 54.6875 
L 18.109375 46.1875 
Q 20.953125 51.171875 25.484375 53.578125 
Q 30.03125 56 36.53125 56 
Q 37.453125 56 38.578125 55.875 
Q 39.703125 55.765625 41.0625 55.515625 
z
" id="DejaVuSans-72"/>
      <path d="M 28.609375 0 
L 0.78125 72.90625 
L 11.078125 72.90625 
L 34.1875 11.53125 
L 57.328125 72.90625 
L 67.578125 72.90625 
L 39.796875 0 
z
" id="DejaVuSans-56"/>
      <path d="M 8.5 21.578125 
L 8.5 54.6875 
L 17.484375 54.6875 
L 17.484375 21.921875 
Q 17.484375 14.15625 20.5 10.265625 
Q 23.53125 6.390625 29.59375 6.390625 
Q 36.859375 6.390625 41.078125 11.03125 
Q 45.3125 15.671875 45.3125 23.6875 
L 45.3125 54.6875 
L 54.296875 54.6875 
L 54.296875 0 
L 45.3125 0 
L 45.3125 8.40625 
Q 42.046875 3.421875 37.71875 1 
Q 33.40625 -1.421875 27.6875 -1.421875 
Q 18.265625 -1.421875 13.375 4.4375 
Q 8.5 10.296875 8.5 21.578125 
M 31.109375 56 
z
" id="DejaVuSans-75"/>
     </defs>
     <g transform="translate(348.504375 159.401562)scale(0.1 -0.1)">
      <use xlink:href="#DejaVuSans-72"/>
      <use x="41.113281" xlink:href="#DejaVuSans-61"/>
      <use x="102.392578" xlink:href="#DejaVuSans-77"/>
      <use x="184.179688" xlink:href="#DejaVuSans-56"/>
      <use x="252.478516" xlink:href="#DejaVuSans-61"/>
      <use x="313.757812" xlink:href="#DejaVuSans-6c"/>
      <use x="341.541016" xlink:href="#DejaVuSans-75"/>
      <use x="404.919922" xlink:href="#DejaVuSans-65"/>
     </g>
    </g>
   </g>
  </g>
 </g>
 <defs>
  <clipPath id="p46884ba579">
   <rect height="266.112" width="357.12" x="58.7375" y="10.7"/>
  </clipPath>
 </defs>
</svg>
