<?xml version="1.0" encoding="utf-8" standalone="no"?>
<!DOCTYPE svg PUBLIC "-//W3C//DTD SVG 1.1//EN"
  "http://www.w3.org/Graphics/SVG/1.1/DTD/svg11.dtd">
<!-- Created with matplotlib (http://matplotlib.org/) -->
<svg height="300pt" version="1.1" viewBox="0 0 426 300" width="426pt" xmlns="http://www.w3.org/2000/svg" xmlns:xlink="http://www.w3.org/1999/xlink">
 <defs>
  <style type="text/css">
*{stroke-linecap:butt;stroke-linejoin:round;}
  </style>
 </defs>
 <g id="figure_1">
  <g id="patch_1">
   <path d="M 0 300.690125 
L 426.5575 300.690125 
L 426.5575 0 
L 0 0 
z
" style="fill:#ffffff;"/>
  </g>
  <g id="axes_1">
   <g id="patch_2">
    <path d="M 58.7375 276.812 
L 415.8575 276.812 
L 415.8575 10.7 
L 58.7375 10.7 
z
" style="fill:#ffffff;"/>
   </g>
   <g id="matplotlib.axis_1">
    <g id="xtick_1">
     <g id="line2d_1">
      <defs>
       <path d="M 0 0 
L 0 3.5 
" id="m10ea3c500b" style="stroke:#000000;stroke-width:0.8;"/>
      </defs>
      <g>
       <use style="stroke:#000000;stroke-width:0.8;" x="74.970227" xlink:href="#m10ea3c500b" y="276.812"/>
      </g>
     </g>
     <g id="text_1">
      <!-- 0 -->
      <defs>
       <path d="M 31.78125 66.40625 
Q 24.171875 66.40625 20.328125 58.90625 
Q 16.5 51.421875 16.5 36.375 
Q 16.5 21.390625 20.328125 13.890625 
Q 24.171875 6.390625 31.78125 6.390625 
Q 39.453125 6.390625 43.28125 13.890625 
Q 47.125 21.390625 47.125 36.375 
Q 47.125 51.421875 43.28125 58.90625 
Q 39.453125 66.40625 31.78125 66.40625 
M 31.78125 74.21875 
Q 44.046875 74.21875 50.515625 64.515625 
Q 56.984375 54.828125 56.984375 36.375 
Q 56.984375 17.96875 50.515625 8.265625 
Q 44.046875 -1.421875 31.78125 -1.421875 
Q 19.53125 -1.421875 13.0625 8.265625 
Q 6.59375 17.96875 6.59375 36.375 
Q 6.59375 54.828125 13.0625 64.515625 
Q 19.53125 74.21875 31.78125 74.21875 
" id="DejaVuSans-30"/>
      </defs>
      <g transform="translate(71.788977 291.410437)scale(0.1 -0.1)">
       <use xlink:href="#DejaVuSans-30"/>
      </g>
     </g>
    </g>
    <g id="xtick_2">
     <g id="line2d_2">
      <g>
       <use style="stroke:#000000;stroke-width:0.8;" x="116.592605" xlink:href="#m10ea3c500b" y="276.812"/>
      </g>
     </g>
     <g id="text_2">
      <!-- 25 -->
      <defs>
       <path d="M 19.1875 8.296875 
L 53.609375 8.296875 
L 53.609375 0 
L 7.328125 0 
L 7.328125 8.296875 
Q 12.9375 14.109375 22.625 23.890625 
Q 32.328125 33.6875 34.8125 36.53125 
Q 39.546875 41.84375 41.421875 45.53125 
Q 43.3125 49.21875 43.3125 52.78125 
Q 43.3125 58.59375 39.234375 62.25 
Q 35.15625 65.921875 28.609375 65.921875 
Q 23.96875 65.921875 18.8125 64.3125 
Q 13.671875 62.703125 7.8125 59.421875 
L 7.8125 69.390625 
Q 13.765625 71.78125 18.9375 73 
Q 24.125 74.21875 28.421875 74.21875 
Q 39.75 74.21875 46.484375 68.546875 
Q 53.21875 62.890625 53.21875 53.421875 
Q 53.21875 48.921875 51.53125 44.890625 
Q 49.859375 40.875 45.40625 35.40625 
Q 44.1875 33.984375 37.640625 27.21875 
Q 31.109375 20.453125 19.1875 8.296875 
" id="DejaVuSans-32"/>
       <path d="M 10.796875 72.90625 
L 49.515625 72.90625 
L 49.515625 64.59375 
L 19.828125 64.59375 
L 19.828125 46.734375 
Q 21.96875 47.46875 24.109375 47.828125 
Q 26.265625 48.1875 28.421875 48.1875 
Q 40.625 48.1875 47.75 41.5 
Q 54.890625 34.8125 54.890625 23.390625 
Q 54.890625 11.625 47.5625 5.09375 
Q 40.234375 -1.421875 26.90625 -1.421875 
Q 22.3125 -1.421875 17.546875 -0.640625 
Q 12.796875 0.140625 7.71875 1.703125 
L 7.71875 11.625 
Q 12.109375 9.234375 16.796875 8.0625 
Q 21.484375 6.890625 26.703125 6.890625 
Q 35.15625 6.890625 40.078125 11.328125 
Q 45.015625 15.765625 45.015625 23.390625 
Q 45.015625 31 40.078125 35.4375 
Q 35.15625 39.890625 26.703125 39.890625 
Q 22.75 39.890625 18.8125 39.015625 
Q 14.890625 38.140625 10.796875 36.28125 
z
" id="DejaVuSans-35"/>
      </defs>
      <g transform="translate(110.230105 291.410437)scale(0.1 -0.1)">
       <use xlink:href="#DejaVuSans-32"/>
       <use x="63.623047" xlink:href="#DejaVuSans-35"/>
      </g>
     </g>
    </g>
    <g id="xtick_3">
     <g id="line2d_3">
      <g>
       <use style="stroke:#000000;stroke-width:0.8;" x="158.214983" xlink:href="#m10ea3c500b" y="276.812"/>
      </g>
     </g>
     <g id="text_3">
      <!-- 50 -->
      <g transform="translate(151.852483 291.410437)scale(0.1 -0.1)">
       <use xlink:href="#DejaVuSans-35"/>
       <use x="63.623047" xlink:href="#DejaVuSans-30"/>
      </g>
     </g>
    </g>
    <g id="xtick_4">
     <g id="line2d_4">
      <g>
       <use style="stroke:#000000;stroke-width:0.8;" x="199.83736" xlink:href="#m10ea3c500b" y="276.812"/>
      </g>
     </g>
     <g id="text_4">
      <!-- 75 -->
      <defs>
       <path d="M 8.203125 72.90625 
L 55.078125 72.90625 
L 55.078125 68.703125 
L 28.609375 0 
L 18.3125 0 
L 43.21875 64.59375 
L 8.203125 64.59375 
z
" id="DejaVuSans-37"/>
      </defs>
      <g transform="translate(193.47486 291.410437)scale(0.1 -0.1)">
       <use xlink:href="#DejaVuSans-37"/>
       <use x="63.623047" xlink:href="#DejaVuSans-35"/>
      </g>
     </g>
    </g>
    <g id="xtick_5">
     <g id="line2d_5">
      <g>
       <use style="stroke:#000000;stroke-width:0.8;" x="241.459738" xlink:href="#m10ea3c500b" y="276.812"/>
      </g>
     </g>
     <g id="text_5">
      <!-- 100 -->
      <defs>
       <path d="M 12.40625 8.296875 
L 28.515625 8.296875 
L 28.515625 63.921875 
L 10.984375 60.40625 
L 10.984375 69.390625 
L 28.421875 72.90625 
L 38.28125 72.90625 
L 38.28125 8.296875 
L 54.390625 8.296875 
L 54.390625 0 
L 12.40625 0 
z
" id="DejaVuSans-31"/>
      </defs>
      <g transform="translate(231.915988 291.410437)scale(0.1 -0.1)">
       <use xlink:href="#DejaVuSans-31"/>
       <use x="63.623047" xlink:href="#DejaVuSans-30"/>
       <use x="127.246094" xlink:href="#DejaVuSans-30"/>
      </g>
     </g>
    </g>
    <g id="xtick_6">
     <g id="line2d_6">
      <g>
       <use style="stroke:#000000;stroke-width:0.8;" x="283.082115" xlink:href="#m10ea3c500b" y="276.812"/>
      </g>
     </g>
     <g id="text_6">
      <!-- 125 -->
      <g transform="translate(273.538365 291.410437)scale(0.1 -0.1)">
       <use xlink:href="#DejaVuSans-31"/>
       <use x="63.623047" xlink:href="#DejaVuSans-32"/>
       <use x="127.246094" xlink:href="#DejaVuSans-35"/>
      </g>
     </g>
    </g>
    <g id="xtick_7">
     <g id="line2d_7">
      <g>
       <use style="stroke:#000000;stroke-width:0.8;" x="324.704493" xlink:href="#m10ea3c500b" y="276.812"/>
      </g>
     </g>
     <g id="text_7">
      <!-- 150 -->
      <g transform="translate(315.160743 291.410437)scale(0.1 -0.1)">
       <use xlink:href="#DejaVuSans-31"/>
       <use x="63.623047" xlink:href="#DejaVuSans-35"/>
       <use x="127.246094" xlink:href="#DejaVuSans-30"/>
      </g>
     </g>
    </g>
    <g id="xtick_8">
     <g id="line2d_8">
      <g>
       <use style="stroke:#000000;stroke-width:0.8;" x="366.326871" xlink:href="#m10ea3c500b" y="276.812"/>
      </g>
     </g>
     <g id="text_8">
      <!-- 175 -->
      <g transform="translate(356.783121 291.410437)scale(0.1 -0.1)">
       <use xlink:href="#DejaVuSans-31"/>
       <use x="63.623047" xlink:href="#DejaVuSans-37"/>
       <use x="127.246094" xlink:href="#DejaVuSans-35"/>
      </g>
     </g>
    </g>
    <g id="xtick_9">
     <g id="line2d_9">
      <g>
       <use style="stroke:#000000;stroke-width:0.8;" x="407.949248" xlink:href="#m10ea3c500b" y="276.812"/>
      </g>
     </g>
     <g id="text_9">
      <!-- 200 -->
      <g transform="translate(398.405498 291.410437)scale(0.1 -0.1)">
       <use xlink:href="#DejaVuSans-32"/>
       <use x="63.623047" xlink:href="#DejaVuSans-30"/>
       <use x="127.246094" xlink:href="#DejaVuSans-30"/>
      </g>
     </g>
    </g>
   </g>
   <g id="matplotlib.axis_2">
    <g id="ytick_1">
     <g id="line2d_10">
      <defs>
       <path d="M 0 0 
L -3.5 0 
" id="mc31f9b719d" style="stroke:#000000;stroke-width:0.8;"/>
      </defs>
      <g>
       <use style="stroke:#000000;stroke-width:0.8;" x="58.7375" xlink:href="#mc31f9b719d" y="264.657575"/>
      </g>
     </g>
     <g id="text_10">
      <!-- 0 -->
      <g transform="translate(45.375 268.456794)scale(0.1 -0.1)">
       <use xlink:href="#DejaVuSans-30"/>
      </g>
     </g>
    </g>
    <g id="ytick_2">
     <g id="line2d_11">
      <g>
       <use style="stroke:#000000;stroke-width:0.8;" x="58.7375" xlink:href="#mc31f9b719d" y="222.564546"/>
      </g>
     </g>
     <g id="text_11">
      <!-- 500000 -->
      <g transform="translate(13.5625 226.363765)scale(0.1 -0.1)">
       <use xlink:href="#DejaVuSans-35"/>
       <use x="63.623047" xlink:href="#DejaVuSans-30"/>
       <use x="127.246094" xlink:href="#DejaVuSans-30"/>
       <use x="190.869141" xlink:href="#DejaVuSans-30"/>
       <use x="254.492188" xlink:href="#DejaVuSans-30"/>
       <use x="318.115234" xlink:href="#DejaVuSans-30"/>
      </g>
     </g>
    </g>
    <g id="ytick_3">
     <g id="line2d_12">
      <g>
       <use style="stroke:#000000;stroke-width:0.8;" x="58.7375" xlink:href="#mc31f9b719d" y="180.471518"/>
      </g>
     </g>
     <g id="text_12">
      <!-- 1000000 -->
      <g transform="translate(7.2 184.270737)scale(0.1 -0.1)">
       <use xlink:href="#DejaVuSans-31"/>
       <use x="63.623047" xlink:href="#DejaVuSans-30"/>
       <use x="127.246094" xlink:href="#DejaVuSans-30"/>
       <use x="190.869141" xlink:href="#DejaVuSans-30"/>
       <use x="254.492188" xlink:href="#DejaVuSans-30"/>
       <use x="318.115234" xlink:href="#DejaVuSans-30"/>
       <use x="381.738281" xlink:href="#DejaVuSans-30"/>
      </g>
     </g>
    </g>
    <g id="ytick_4">
     <g id="line2d_13">
      <g>
       <use style="stroke:#000000;stroke-width:0.8;" x="58.7375" xlink:href="#mc31f9b719d" y="138.378489"/>
      </g>
     </g>
     <g id="text_13">
      <!-- 1500000 -->
      <g transform="translate(7.2 142.177708)scale(0.1 -0.1)">
       <use xlink:href="#DejaVuSans-31"/>
       <use x="63.623047" xlink:href="#DejaVuSans-35"/>
       <use x="127.246094" xlink:href="#DejaVuSans-30"/>
       <use x="190.869141" xlink:href="#DejaVuSans-30"/>
       <use x="254.492188" xlink:href="#DejaVuSans-30"/>
       <use x="318.115234" xlink:href="#DejaVuSans-30"/>
       <use x="381.738281" xlink:href="#DejaVuSans-30"/>
      </g>
     </g>
    </g>
    <g id="ytick_5">
     <g id="line2d_14">
      <g>
       <use style="stroke:#000000;stroke-width:0.8;" x="58.7375" xlink:href="#mc31f9b719d" y="96.285461"/>
      </g>
     </g>
     <g id="text_14">
      <!-- 2000000 -->
      <g transform="translate(7.2 100.08468)scale(0.1 -0.1)">
       <use xlink:href="#DejaVuSans-32"/>
       <use x="63.623047" xlink:href="#DejaVuSans-30"/>
       <use x="127.246094" xlink:href="#DejaVuSans-30"/>
       <use x="190.869141" xlink:href="#DejaVuSans-30"/>
       <use x="254.492188" xlink:href="#DejaVuSans-30"/>
       <use x="318.115234" xlink:href="#DejaVuSans-30"/>
       <use x="381.738281" xlink:href="#DejaVuSans-30"/>
      </g>
     </g>
    </g>
    <g id="ytick_6">
     <g id="line2d_15">
      <g>
       <use style="stroke:#000000;stroke-width:0.8;" x="58.7375" xlink:href="#mc31f9b719d" y="54.192432"/>
      </g>
     </g>
     <g id="text_15">
      <!-- 2500000 -->
      <g transform="translate(7.2 57.991651)scale(0.1 -0.1)">
       <use xlink:href="#DejaVuSans-32"/>
       <use x="63.623047" xlink:href="#DejaVuSans-35"/>
       <use x="127.246094" xlink:href="#DejaVuSans-30"/>
       <use x="190.869141" xlink:href="#DejaVuSans-30"/>
       <use x="254.492188" xlink:href="#DejaVuSans-30"/>
       <use x="318.115234" xlink:href="#DejaVuSans-30"/>
       <use x="381.738281" xlink:href="#DejaVuSans-30"/>
      </g>
     </g>
    </g>
    <g id="ytick_7">
     <g id="line2d_16">
      <g>
       <use style="stroke:#000000;stroke-width:0.8;" x="58.7375" xlink:href="#mc31f9b719d" y="12.099404"/>
      </g>
     </g>
     <g id="text_16">
      <!-- 3000000 -->
      <defs>
       <path d="M 40.578125 39.3125 
Q 47.65625 37.796875 51.625 33 
Q 55.609375 28.21875 55.609375 21.1875 
Q 55.609375 10.40625 48.1875 4.484375 
Q 40.765625 -1.421875 27.09375 -1.421875 
Q 22.515625 -1.421875 17.65625 -0.515625 
Q 12.796875 0.390625 7.625 2.203125 
L 7.625 11.71875 
Q 11.71875 9.328125 16.59375 8.109375 
Q 21.484375 6.890625 26.8125 6.890625 
Q 36.078125 6.890625 40.9375 10.546875 
Q 45.796875 14.203125 45.796875 21.1875 
Q 45.796875 27.640625 41.28125 31.265625 
Q 36.765625 34.90625 28.71875 34.90625 
L 20.21875 34.90625 
L 20.21875 43.015625 
L 29.109375 43.015625 
Q 36.375 43.015625 40.234375 45.921875 
Q 44.09375 48.828125 44.09375 54.296875 
Q 44.09375 59.90625 40.109375 62.90625 
Q 36.140625 65.921875 28.71875 65.921875 
Q 24.65625 65.921875 20.015625 65.03125 
Q 15.375 64.15625 9.8125 62.3125 
L 9.8125 71.09375 
Q 15.4375 72.65625 20.34375 73.4375 
Q 25.25 74.21875 29.59375 74.21875 
Q 40.828125 74.21875 47.359375 69.109375 
Q 53.90625 64.015625 53.90625 55.328125 
Q 53.90625 49.265625 50.4375 45.09375 
Q 46.96875 40.921875 40.578125 39.3125 
" id="DejaVuSans-33"/>
      </defs>
      <g transform="translate(7.2 15.898623)scale(0.1 -0.1)">
       <use xlink:href="#DejaVuSans-33"/>
       <use x="63.623047" xlink:href="#DejaVuSans-30"/>
       <use x="127.246094" xlink:href="#DejaVuSans-30"/>
       <use x="190.869141" xlink:href="#DejaVuSans-30"/>
       <use x="254.492188" xlink:href="#DejaVuSans-30"/>
       <use x="318.115234" xlink:href="#DejaVuSans-30"/>
       <use x="381.738281" xlink:href="#DejaVuSans-30"/>
      </g>
     </g>
    </g>
   </g>
   <g id="line2d_17">
    <path clip-path="url(#p72a7089054)" d="M 74.970227 161.6295 
L 76.635122 201.358752 
L 78.300017 244.562195 
L 79.964913 87.898762 
L 81.629808 156.733323 
L 83.294703 255.43836 
L 84.959598 255.489966 
L 86.624493 254.279286 
L 88.289388 234.832644 
L 89.954283 261.208809 
L 91.619178 260.597955 
L 93.284073 183.814209 
L 94.948969 199.10004 
L 96.613864 154.83055 
L 98.278759 120.91224 
L 99.943654 231.329662 
L 101.608549 206.001613 
L 103.273444 187.059498 
L 104.938339 184.424727 
L 106.603234 118.088808 
L 108.268129 61.947315 
L 109.933024 262.930077 
L 111.59792 218.974853 
L 113.262815 186.155087 
L 114.92771 192.224902 
L 116.592605 188.353943 
L 118.2575 225.53522 
L 119.922395 162.143792 
L 121.58729 251.625321 
L 123.252185 126.657433 
L 124.91708 244.929583 
L 126.581976 196.722037 
L 128.246871 183.872382 
L 129.911766 252.295442 
L 131.576661 166.951069 
L 133.241556 153.520614 
L 134.906451 238.043332 
L 136.571346 204.272179 
L 138.236241 206.222433 
L 139.901136 232.016704 
L 141.566031 187.895634 
L 143.230927 110.912199 
L 144.895822 120.525573 
L 146.560717 263.973395 
L 148.225612 236.733397 
L 149.890507 158.699404 
L 151.555402 238.944122 
L 153.220297 243.020664 
L 154.885192 258.816073 
L 156.550087 76.697638 
L 158.214983 174.296555 
L 159.879878 240.04073 
L 161.544773 45.407533 
L 163.209668 212.208483 
L 164.874563 119.758722 
L 166.539458 199.309074 
L 168.204353 136.783921 
L 169.869248 234.388057 
L 171.534143 263.098954 
L 173.199038 233.724587 
L 174.863934 244.801536 
L 176.528829 258.684153 
L 178.193724 143.383603 
L 179.858619 194.739118 
L 181.523514 22.796 
L 183.188409 114.694678 
L 184.853304 250.475087 
L 188.183094 196.078518 
L 189.84799 216.502645 
L 191.512885 191.948098 
L 193.17778 230.287102 
L 194.842675 98.93227 
L 196.50757 216.645088 
L 198.172465 256.872301 
L 199.83736 262.618336 
L 201.502255 220.489697 
L 203.16715 206.969837 
L 204.832045 247.749142 
L 206.496941 119.997558 
L 208.161836 243.180954 
L 209.826731 254.312792 
L 211.491626 202.185543 
L 213.156521 261.173872 
L 214.821416 252.106528 
L 216.486311 257.13412 
L 218.151206 239.696577 
L 219.816101 164.896676 
L 221.480997 244.025509 
L 223.145892 208.769314 
L 224.810787 262.704458 
L 226.475682 200.91989 
L 228.140577 215.484162 
L 229.805472 257.622904 
L 231.470367 187.285621 
L 234.800157 246.476165 
L 236.465052 175.84541 
L 238.129948 145.370141 
L 239.794843 244.237068 
L 241.459738 101.815895 
L 243.124633 125.263059 
L 244.789528 123.80201 
L 246.454423 216.154031 
L 248.119318 194.25749 
L 249.784213 144.582833 
L 251.449108 205.687768 
L 254.778899 226.329347 
L 256.443794 234.811008 
L 258.108689 239.922954 
L 259.773584 249.611422 
L 261.438479 149.744701 
L 263.103374 157.870003 
L 264.768269 138.08308 
L 266.433164 254.077071 
L 268.098059 244.06255 
L 269.762955 121.740462 
L 273.092745 237.667946 
L 274.75764 168.652385 
L 276.422535 234.847797 
L 278.08743 259.993499 
L 279.752325 211.02348 
L 281.41722 221.00601 
L 283.082115 222.110278 
L 284.74701 216.866497 
L 286.411906 247.364075 
L 288.076801 225.264562 
L 289.741696 231.401978 
L 291.406591 158.89118 
L 293.071486 144.12242 
L 294.736381 248.62131 
L 296.401276 106.077815 
L 298.066171 144.152979 
L 299.731066 130.69146 
L 301.395962 233.862147 
L 303.060857 236.42898 
L 304.725752 136.872401 
L 306.390647 220.461494 
L 308.055542 202.254155 
L 309.720437 191.408044 
L 311.385332 236.954553 
L 313.050227 180.735946 
L 314.715122 221.917408 
L 316.380017 190.935087 
L 318.044913 237.176973 
L 319.709808 223.699964 
L 321.374703 198.690559 
L 323.039598 181.305886 
L 324.704493 174.63835 
L 326.369388 184.619365 
L 328.034283 244.59528 
L 329.699178 217.484339 
L 331.364073 235.349294 
L 333.028969 133.061045 
L 334.693864 248.860566 
L 336.358759 239.778322 
L 338.023654 217.569282 
L 339.688549 231.863317 
L 341.353444 230.850138 
L 343.018339 253.460493 
L 344.683234 260.843105 
L 346.348129 190.546653 
L 348.013024 231.499213 
L 349.67792 135.265794 
L 351.342815 257.560438 
L 353.00771 77.876748 
L 354.672605 250.108288 
L 356.3375 102.100023 
L 358.002395 247.724391 
L 359.66729 258.470742 
L 361.332185 257.686717 
L 362.99708 252.117557 
L 364.661976 110.887785 
L 366.326871 255.875622 
L 367.991766 259.800039 
L 369.656661 83.858673 
L 371.321556 263.521821 
L 372.986451 249.690136 
L 374.651346 263.559705 
L 376.316241 166.680831 
L 377.981136 114.693331 
L 379.646031 200.007061 
L 381.310927 149.635765 
L 382.975822 113.196588 
L 384.640717 245.10772 
L 386.305612 184.051951 
L 387.970507 204.093115 
L 389.635402 238.520414 
L 391.300297 185.38992 
L 392.965192 142.633674 
L 394.630087 163.814886 
L 396.294983 189.904818 
L 397.959878 179.984249 
L 399.624773 253.353071 
L 399.624773 253.353071 
" style="fill:none;stroke:#1f77b4;stroke-linecap:square;stroke-width:1.5;"/>
   </g>
   <g id="line2d_18">
    <path clip-path="url(#p72a7089054)" d="M 74.970227 167.92106 
L 76.635122 253.474973 
L 78.300017 264.242369 
L 79.964913 182.998783 
L 81.629808 255.479358 
L 83.294703 258.447169 
L 84.959598 262.435568 
L 86.624493 264.316116 
L 88.289388 263.278691 
L 89.954283 262.416121 
L 91.619178 264.272676 
L 93.284073 262.443734 
L 94.948969 249.526562 
L 96.613864 260.36678 
L 98.278759 257.670553 
L 99.943654 259.642275 
L 101.608549 253.997431 
L 103.273444 238.589278 
L 104.938339 230.75787 
L 106.603234 249.924847 
L 108.268129 233.206843 
L 109.933024 258.283175 
L 111.59792 261.452022 
L 113.262815 259.047669 
L 114.92771 170.758636 
L 116.592605 263.865132 
L 118.2575 263.254193 
L 119.922395 261.334751 
L 121.58729 262.295651 
L 123.252185 252.673521 
L 124.91708 257.829328 
L 126.581976 253.548046 
L 128.246871 246.219145 
L 129.911766 259.747844 
L 131.576661 257.540317 
L 133.241556 245.057714 
L 134.906451 241.300827 
L 136.571346 230.475342 
L 138.236241 245.872382 
L 139.901136 257.09632 
L 141.566031 260.025405 
L 143.230927 240.315682 
L 144.895822 238.195456 
L 146.560717 262.048817 
L 148.225612 256.776918 
L 149.890507 209.570092 
L 151.555402 257.710541 
L 153.220297 263.09264 
L 154.885192 259.130003 
L 156.550087 248.07208 
L 158.214983 250.103321 
L 159.879878 241.656176 
L 161.544773 175.481305 
L 163.209668 260.866929 
L 164.874563 201.792563 
L 166.539458 258.439761 
L 168.204353 218.042408 
L 169.869248 249.919206 
L 171.534143 261.651038 
L 173.199038 260.923418 
L 174.863934 263.376937 
L 176.528829 264.107672 
L 178.193724 263.557431 
L 179.858619 259.213768 
L 181.523514 249.405334 
L 183.188409 240.671536 
L 184.853304 263.45986 
L 186.518199 256.010741 
L 188.183094 260.408284 
L 189.84799 250.077476 
L 191.512885 229.099994 
L 193.17778 260.835528 
L 194.842675 185.844272 
L 196.50757 263.579488 
L 198.172465 264.120636 
L 199.83736 262.295398 
L 201.502255 217.488885 
L 203.16715 251.740824 
L 204.832045 258.29614 
L 206.496941 234.083977 
L 208.161836 262.60815 
L 209.826731 262.885374 
L 211.491626 251.41334 
L 213.156521 263.272714 
L 214.821416 264.27638 
L 216.486311 256.750568 
L 218.151206 257.277236 
L 219.816101 250.863184 
L 221.480997 256.151079 
L 223.145892 251.783001 
L 224.810787 264.09176 
L 226.475682 258.242092 
L 228.140577 250.167555 
L 229.805472 254.314308 
L 231.470367 239.691189 
L 233.135262 230.122265 
L 234.800157 257.058184 
L 236.465052 255.990031 
L 238.129948 258.909856 
L 239.794843 261.580322 
L 241.459738 243.531842 
L 243.124633 247.978044 
L 244.789528 252.994607 
L 246.454423 256.477132 
L 248.119318 226.539307 
L 249.784213 259.505051 
L 251.449108 254.746098 
L 253.114003 262.656725 
L 254.778899 262.21096 
L 256.443794 257.656494 
L 258.108689 260.543992 
L 259.773584 257.299293 
L 261.438479 261.943753 
L 263.103374 256.910606 
L 264.768269 199.422304 
L 266.433164 262.828633 
L 268.098059 263.393016 
L 269.762955 255.729223 
L 271.42785 235.428344 
L 273.092745 256.200665 
L 274.75764 260.97856 
L 276.422535 262.378742 
L 278.08743 262.711025 
L 279.752325 252.46112 
L 281.41722 252.56972 
L 283.082115 256.674295 
L 284.74701 259.344424 
L 286.411906 262.715908 
L 288.076801 243.394029 
L 289.741696 263.334928 
L 291.406591 249.212717 
L 293.071486 261.481488 
L 294.736381 261.484434 
L 296.401276 233.761039 
L 298.066171 248.659278 
L 299.731066 248.954686 
L 301.395962 251.274433 
L 303.060857 259.038997 
L 304.725752 257.962258 
L 306.390647 254.608285 
L 308.055542 230.78321 
L 309.720437 262.848164 
L 311.385332 260.258685 
L 313.050227 257.901728 
L 314.715122 261.230781 
L 316.380017 257.129573 
L 318.044913 261.814528 
L 319.709808 262.028529 
L 321.374703 253.107669 
L 323.039598 253.69394 
L 324.704493 242.970573 
L 326.369388 247.223905 
L 328.034283 209.796636 
L 329.699178 261.23558 
L 331.364073 263.520474 
L 333.028969 256.421905 
L 334.693864 255.110034 
L 336.358759 263.210501 
L 338.023654 255.511517 
L 339.688549 236.966255 
L 341.353444 263.103584 
L 343.018339 262.859445 
L 344.683234 263.611479 
L 346.348129 241.151986 
L 348.013024 260.83898 
L 349.67792 241.960761 
L 351.342815 262.493236 
L 353.00771 261.900397 
L 354.672605 260.48826 
L 356.3375 224.610436 
L 358.002395 254.242497 
L 359.66729 261.119908 
L 361.332185 256.182059 
L 362.99708 259.740604 
L 364.661976 260.34767 
L 366.326871 255.100521 
L 367.991766 262.923679 
L 369.656661 255.861647 
L 371.321556 264.213662 
L 372.986451 261.260331 
L 374.651346 263.925998 
L 376.316241 251.542734 
L 377.981136 250.847021 
L 379.646031 256.280473 
L 381.310927 256.58228 
L 382.975822 251.883435 
L 384.640717 255.333211 
L 386.305612 221.025709 
L 387.970507 261.939291 
L 391.300297 260.888649 
L 392.965192 255.793457 
L 394.630087 239.587051 
L 396.294983 248.560106 
L 397.959878 215.712222 
L 399.624773 262.802198 
L 399.624773 262.802198 
" style="fill:none;stroke:#ff7f0e;stroke-linecap:square;stroke-width:1.5;"/>
   </g>
   <g id="line2d_19">
    <path clip-path="url(#p72a7089054)" d="M 74.970227 257.069801 
L 76.635122 256.858663 
L 78.300017 264.5696 
L 79.964913 259.713749 
L 81.629808 259.532244 
L 83.294703 263.399583 
L 84.959598 264.143114 
L 88.289388 263.655929 
L 89.954283 264.631225 
L 91.619178 264.624237 
L 94.948969 263.67184 
L 96.613864 260.644341 
L 98.278759 262.724242 
L 99.943654 263.776063 
L 101.608549 260.050493 
L 103.273444 262.456109 
L 104.938339 254.286358 
L 106.603234 261.094484 
L 108.268129 259.823611 
L 109.933024 263.228685 
L 111.59792 263.627727 
L 113.262815 261.992665 
L 114.92771 259.431894 
L 116.592605 262.589208 
L 118.2575 264.262406 
L 119.922395 263.94755 
L 123.252185 262.007482 
L 124.91708 264.221828 
L 126.581976 262.628691 
L 128.246871 259.581745 
L 129.911766 264.232519 
L 131.576661 263.799466 
L 133.241556 263.146519 
L 134.906451 260.390184 
L 136.571346 252.025541 
L 138.236241 262.434979 
L 139.901136 264.272003 
L 141.566031 264.209621 
L 143.230927 263.413558 
L 144.895822 262.765662 
L 146.560717 263.767476 
L 148.225612 259.122257 
L 149.890507 262.682065 
L 151.555402 262.035179 
L 153.220297 264.155152 
L 154.885192 264.143872 
L 156.550087 262.00462 
L 158.214983 264.530117 
L 159.879878 259.071914 
L 161.544773 250.555063 
L 163.209668 260.844704 
L 164.874563 224.83858 
L 166.539458 264.183944 
L 168.204353 259.355537 
L 169.869248 259.696911 
L 171.534143 264.393399 
L 173.199038 261.521308 
L 174.863934 264.190342 
L 178.193724 264.258701 
L 179.858619 261.702728 
L 181.523514 263.588244 
L 183.188409 260.037023 
L 184.853304 264.064568 
L 186.518199 261.480646 
L 188.183094 262.743942 
L 189.84799 263.228096 
L 191.512885 262.715739 
L 193.17778 263.610385 
L 194.842675 262.970318 
L 196.50757 264.61203 
L 198.172465 264.321167 
L 199.83736 264.364692 
L 201.502255 249.912724 
L 203.16715 264.112218 
L 204.832045 264.351222 
L 206.496941 260.916347 
L 208.161836 263.578983 
L 209.826731 264.570779 
L 211.491626 263.188191 
L 213.156521 263.969522 
L 214.821416 264.584333 
L 216.486311 263.839371 
L 218.151206 262.903727 
L 219.816101 262.643255 
L 221.480997 264.308119 
L 223.145892 263.088768 
L 224.810787 264.470093 
L 226.475682 264.227637 
L 228.140577 263.350165 
L 229.805472 257.714835 
L 231.470367 258.67725 
L 233.135262 258.135008 
L 234.800157 264.21021 
L 236.465052 261.544964 
L 238.129948 263.374243 
L 239.794843 263.849305 
L 241.459738 262.459561 
L 243.124633 256.421485 
L 244.789528 260.396245 
L 246.454423 259.459591 
L 248.119318 262.956343 
L 249.784213 263.525862 
L 251.449108 263.160578 
L 253.114003 263.136838 
L 254.778899 263.500185 
L 256.443794 262.904653 
L 258.108689 264.318389 
L 259.773584 263.575279 
L 261.438479 263.070078 
L 263.103374 263.551959 
L 264.768269 245.114287 
L 266.433164 264.409815 
L 268.098059 264.384475 
L 269.762955 264.01574 
L 271.42785 261.510868 
L 274.75764 260.898752 
L 276.422535 262.930919 
L 278.08743 264.09959 
L 279.752325 261.517772 
L 281.41722 261.560959 
L 283.082115 263.218162 
L 284.74701 262.855909 
L 286.411906 264.213325 
L 288.076801 256.892758 
L 289.741696 260.986221 
L 291.406591 263.477623 
L 293.071486 262.564962 
L 294.736381 263.79913 
L 296.401276 260.631629 
L 298.066171 243.396639 
L 299.731066 257.309984 
L 301.395962 259.463464 
L 303.060857 263.007781 
L 304.725752 262.98766 
L 306.390647 263.157969 
L 308.055542 259.003218 
L 309.720437 264.250788 
L 311.385332 263.113013 
L 313.050227 262.560332 
L 314.715122 264.033588 
L 316.380017 263.457839 
L 318.044913 262.614884 
L 319.709808 263.538321 
L 321.374703 257.049597 
L 323.039598 264.411836 
L 324.704493 256.423673 
L 326.369388 262.069106 
L 328.034283 263.33215 
L 329.699178 263.618382 
L 331.364073 264.379424 
L 333.028969 257.316046 
L 334.693864 263.170512 
L 336.358759 264.448962 
L 338.023654 262.092173 
L 339.688549 260.729959 
L 341.353444 264.281432 
L 343.018339 264.634592 
L 344.683234 264.456286 
L 346.348129 256.794766 
L 348.013024 262.057152 
L 349.67792 257.332883 
L 351.342815 264.068609 
L 353.00771 264.27074 
L 354.672605 264.272424 
L 356.3375 258.134755 
L 358.002395 263.276082 
L 359.66729 264.412257 
L 361.332185 264.168791 
L 362.99708 264.43987 
L 364.661976 263.721342 
L 366.326871 260.151685 
L 367.991766 264.262995 
L 369.656661 264.026937 
L 371.321556 264.49678 
L 372.986451 263.946371 
L 374.651346 264.19371 
L 377.981136 258.066312 
L 379.646031 262.894719 
L 381.310927 262.409555 
L 382.975822 262.906337 
L 384.640717 262.60293 
L 386.305612 259.743045 
L 387.970507 262.766588 
L 389.635402 258.854714 
L 391.300297 262.029707 
L 392.965192 262.843029 
L 394.630087 246.976314 
L 396.294983 261.274895 
L 397.959878 261.173787 
L 399.624773 263.536974 
L 399.624773 263.536974 
" style="fill:none;stroke:#2ca02c;stroke-linecap:square;stroke-width:1.5;"/>
   </g>
   <g id="line2d_20">
    <path clip-path="url(#p72a7089054)" d="M 74.970227 258.865827 
L 76.635122 263.287615 
L 78.300017 263.683963 
L 79.964913 261.63117 
L 81.629808 264.316285 
L 83.294703 263.912781 
L 86.624493 264.393652 
L 88.289388 263.941825 
L 89.954283 264.579703 
L 91.619178 264.628447 
L 93.284073 263.882221 
L 94.948969 263.392006 
L 96.613864 261.812339 
L 98.278759 263.356479 
L 99.943654 264.225364 
L 101.608549 260.572699 
L 103.273444 261.432407 
L 104.938339 259.868314 
L 106.603234 259.764597 
L 108.268129 251.718094 
L 109.933024 263.60929 
L 111.59792 263.614931 
L 113.262815 261.197023 
L 114.92771 257.554966 
L 116.592605 264.098748 
L 118.2575 264.460159 
L 119.922395 262.324779 
L 121.58729 261.131442 
L 123.252185 260.603174 
L 124.91708 263.858649 
L 126.581976 262.283191 
L 128.246871 260.443558 
L 129.911766 263.033373 
L 131.576661 263.549518 
L 133.241556 262.589208 
L 134.906451 258.29252 
L 136.571346 252.76983 
L 138.236241 264.611862 
L 139.901136 264.308539 
L 141.566031 263.481243 
L 143.230927 261.784641 
L 144.895822 260.761107 
L 146.560717 264.539799 
L 148.225612 264.015235 
L 149.890507 259.181272 
L 151.555402 260.161198 
L 153.220297 264.143619 
L 154.885192 264.038302 
L 156.550087 257.748257 
L 158.214983 261.037827 
L 159.879878 256.589099 
L 161.544773 243.889464 
L 163.209668 262.736112 
L 164.874563 259.321947 
L 166.539458 263.445211 
L 168.204353 262.547956 
L 169.869248 263.10872 
L 171.534143 264.430778 
L 173.199038 262.697639 
L 174.863934 263.499091 
L 176.528829 264.607232 
L 178.193724 264.097317 
L 179.858619 264.127203 
L 181.523514 261.620563 
L 183.188409 262.248002 
L 184.853304 264.256092 
L 188.183094 263.841138 
L 189.84799 262.474967 
L 191.512885 260.823237 
L 193.17778 264.269056 
L 194.842675 257.302071 
L 196.50757 264.393231 
L 199.83736 264.473628 
L 201.502255 260.570679 
L 203.16715 263.206712 
L 204.832045 263.889461 
L 206.496941 259.06661 
L 208.161836 264.322346 
L 209.826731 264.624406 
L 211.491626 262.503927 
L 213.156521 264.353495 
L 214.821416 264.348107 
L 216.486311 263.56223 
L 218.151206 264.510418 
L 219.816101 262.649822 
L 221.480997 262.785024 
L 223.145892 263.128335 
L 224.810787 264.368733 
L 226.475682 263.97592 
L 228.140577 264.177378 
L 229.805472 263.825312 
L 231.470367 262.553092 
L 233.135262 263.43654 
L 234.800157 263.545561 
L 236.465052 262.555365 
L 238.129948 261.922707 
L 239.794843 264.391968 
L 241.459738 263.572332 
L 243.124633 264.097738 
L 244.789528 262.770797 
L 246.454423 264.091508 
L 248.119318 261.340307 
L 249.784213 262.837557 
L 251.449108 264.004207 
L 253.114003 263.634546 
L 254.778899 264.436502 
L 256.443794 263.567029 
L 258.108689 264.043353 
L 259.773584 264.189585 
L 261.438479 263.146098 
L 263.103374 259.014415 
L 264.768269 262.077272 
L 266.433164 264.396851 
L 268.098059 264.505703 
L 269.762955 262.957858 
L 271.42785 263.076056 
L 273.092745 263.373232 
L 274.75764 261.557676 
L 276.422535 260.706555 
L 278.08743 264.420002 
L 279.752325 263.931386 
L 281.41722 262.722979 
L 283.082115 262.736954 
L 284.74701 261.447897 
L 286.411906 264.266194 
L 288.076801 259.653219 
L 289.741696 263.125894 
L 291.406591 264.426484 
L 293.071486 264.257775 
L 294.736381 263.579657 
L 296.401276 260.721456 
L 298.066171 256.697699 
L 299.731066 255.046979 
L 301.395962 263.014263 
L 303.060857 263.366918 
L 304.725752 261.277589 
L 306.390647 264.204317 
L 308.055542 249.473273 
L 309.720437 264.121478 
L 311.385332 263.872961 
L 313.050227 264.115669 
L 314.715122 263.973311 
L 316.380017 262.948935 
L 318.044913 263.794668 
L 319.709808 264.128297 
L 321.374703 261.937776 
L 323.039598 264.010352 
L 324.704493 263.759478 
L 326.369388 263.298896 
L 328.034283 261.857715 
L 329.699178 263.698443 
L 331.364073 261.85561 
L 333.028969 262.063634 
L 334.693864 263.513065 
L 336.358759 264.482047 
L 338.023654 261.880445 
L 339.688549 263.573932 
L 341.353444 264.40367 
L 343.018339 263.821944 
L 344.683234 264.462432 
L 346.348129 259.755505 
L 348.013024 262.906757 
L 349.67792 263.173796 
L 353.00771 264.455949 
L 354.672605 263.442097 
L 356.3375 231.243876 
L 358.002395 264.383886 
L 359.66729 264.131665 
L 361.332185 263.239966 
L 362.99708 264.382792 
L 364.661976 264.211726 
L 366.326871 261.721586 
L 367.991766 263.857892 
L 369.656661 262.477745 
L 371.321556 264.258617 
L 372.986451 263.948223 
L 374.651346 264.030557 
L 376.316241 260.643499 
L 377.981136 263.149803 
L 379.646031 263.973816 
L 381.310927 262.239415 
L 382.975822 264.023654 
L 384.640717 261.905112 
L 386.305612 262.727694 
L 387.970507 262.953817 
L 389.635402 261.920097 
L 391.300297 263.597672 
L 392.965192 263.796267 
L 394.630087 256.939902 
L 396.294983 262.470926 
L 397.959878 258.403898 
L 399.624773 262.999783 
L 399.624773 262.999783 
" style="fill:none;stroke:#d62728;stroke-linecap:square;stroke-width:1.5;"/>
   </g>
   <g id="line2d_21">
    <path clip-path="url(#p72a7089054)" d="M 74.970227 257.417911 
L 76.635122 261.444193 
L 78.300017 264.146902 
L 79.964913 262.755391 
L 83.294703 264.079301 
L 84.959598 263.21631 
L 86.624493 264.517994 
L 88.289388 263.728413 
L 89.954283 264.236224 
L 91.619178 264.519762 
L 93.284073 264.105651 
L 94.948969 261.557171 
L 96.613864 264.226626 
L 98.278759 263.76293 
L 99.943654 263.899648 
L 101.608549 263.344525 
L 103.273444 261.506996 
L 104.938339 259.941388 
L 106.603234 254.021929 
L 108.268129 260.502488 
L 109.933024 264.320915 
L 111.59792 263.844674 
L 113.262815 263.166556 
L 114.92771 258.576648 
L 116.592605 264.531885 
L 118.2575 264.292713 
L 119.922395 263.014516 
L 121.58729 263.596325 
L 123.252185 260.968205 
L 124.91708 264.41916 
L 126.581976 263.456913 
L 128.246871 263.025207 
L 129.911766 263.840718 
L 131.576661 262.842187 
L 133.241556 263.375253 
L 134.906451 262.935717 
L 136.571346 251.985469 
L 138.236241 258.545836 
L 139.901136 263.44075 
L 141.566031 264.548133 
L 143.230927 262.693767 
L 144.895822 262.12408 
L 146.560717 264.537526 
L 148.225612 263.977772 
L 149.890507 260.806063 
L 151.555402 262.624313 
L 153.220297 264.277896 
L 154.885192 264.301384 
L 156.550087 256.182733 
L 158.214983 262.93336 
L 159.879878 258.466532 
L 161.544773 247.399854 
L 163.209668 263.256466 
L 164.874563 259.141704 
L 166.539458 263.728918 
L 168.204353 259.002713 
L 169.869248 260.481189 
L 171.534143 264.492823 
L 173.199038 263.652141 
L 176.528829 264.549396 
L 178.193724 264.143451 
L 179.858619 263.596746 
L 181.523514 262.141254 
L 183.188409 261.355882 
L 184.853304 264.51589 
L 186.518199 264.307108 
L 188.183094 263.713007 
L 189.84799 262.329157 
L 191.512885 261.885075 
L 193.17778 263.445043 
L 194.842675 256.397744 
L 196.50757 264.384475 
L 198.172465 264.526834 
L 199.83736 264.426316 
L 201.502255 262.027855 
L 203.16715 259.299048 
L 204.832045 264.226795 
L 206.496941 261.098778 
L 208.161836 264.137137 
L 209.826731 264.466052 
L 211.491626 260.792088 
L 213.156521 264.370079 
L 214.821416 264.46824 
L 216.486311 264.028284 
L 218.151206 263.756447 
L 219.816101 264.105567 
L 221.480997 261.675284 
L 224.810787 264.482131 
L 226.475682 263.80839 
L 228.140577 263.80839 
L 229.805472 261.055927 
L 231.470367 262.56934 
L 233.135262 257.825624 
L 234.800157 263.436709 
L 236.465052 263.961356 
L 238.129948 262.999699 
L 239.794843 264.228731 
L 241.459738 262.051764 
L 243.124633 262.035348 
L 244.789528 263.553811 
L 246.454423 263.164283 
L 248.119318 254.606265 
L 249.784213 262.101013 
L 251.449108 263.527882 
L 253.114003 264.287409 
L 254.778899 264.361156 
L 256.443794 263.767139 
L 258.108689 264.375973 
L 259.773584 263.452367 
L 261.438479 264.074334 
L 263.103374 264.089992 
L 264.768269 260.969215 
L 266.433164 264.136632 
L 268.098059 263.977688 
L 269.762955 262.979915 
L 271.42785 260.643163 
L 273.092745 263.606933 
L 274.75764 264.154816 
L 276.422535 262.17577 
L 278.08743 264.434145 
L 279.752325 263.637577 
L 284.74701 263.070499 
L 286.411906 264.380771 
L 288.076801 260.300273 
L 289.741696 263.555664 
L 291.406591 262.699323 
L 293.071486 262.574307 
L 294.736381 263.740789 
L 296.401276 261.584868 
L 298.066171 261.466418 
L 299.731066 262.734597 
L 301.395962 262.088301 
L 303.060857 262.481449 
L 304.725752 264.287409 
L 306.390647 263.825901 
L 308.055542 262.228555 
L 309.720437 264.423622 
L 311.385332 263.932312 
L 313.050227 264.23454 
L 314.715122 262.935886 
L 316.380017 263.994946 
L 318.044913 263.686489 
L 319.709808 264.475312 
L 321.374703 259.509008 
L 323.039598 261.554393 
L 324.704493 262.22847 
L 326.369388 262.652936 
L 328.034283 257.548904 
L 329.699178 264.246494 
L 331.364073 262.880828 
L 333.028969 263.447905 
L 334.693864 263.603902 
L 336.358759 264.546786 
L 338.023654 264.012373 
L 339.688549 262.821898 
L 341.353444 264.309886 
L 343.018339 264.48954 
L 344.683234 264.551416 
L 346.348129 261.06342 
L 348.013024 260.837801 
L 349.67792 262.990186 
L 351.342815 264.440206 
L 353.00771 264.312244 
L 354.672605 263.877254 
L 356.3375 254.237698 
L 358.002395 264.010689 
L 359.66729 263.751312 
L 361.332185 264.014478 
L 362.99708 264.030305 
L 364.661976 263.877591 
L 366.326871 262.503169 
L 367.991766 264.445426 
L 369.656661 263.804602 
L 371.321556 264.480784 
L 372.986451 263.888872 
L 374.651346 264.272508 
L 376.316241 261.189783 
L 377.981136 263.152497 
L 379.646031 264.006396 
L 381.310927 261.447729 
L 382.975822 261.752567 
L 384.640717 263.660307 
L 386.305612 260.361729 
L 387.970507 264.250956 
L 389.635402 261.997632 
L 391.300297 263.277934 
L 392.965192 263.349155 
L 394.630087 261.585794 
L 396.294983 264.091592 
L 397.959878 253.262403 
L 399.624773 262.193954 
L 399.624773 262.193954 
" style="fill:none;stroke:#9467bd;stroke-linecap:square;stroke-width:1.5;"/>
   </g>
   <g id="line2d_22">
    <path clip-path="url(#p72a7089054)" d="M 74.970227 259.539399 
L 76.635122 263.210417 
L 78.300017 264.407795 
L 79.964913 262.046123 
L 81.629808 263.94957 
L 83.294703 264.003112 
L 84.959598 264.295996 
L 86.624493 264.446352 
L 88.289388 263.774042 
L 89.954283 264.534747 
L 91.619178 264.563876 
L 93.284073 263.884242 
L 94.948969 260.467803 
L 96.613864 263.219004 
L 98.278759 262.760863 
L 99.943654 264.074081 
L 101.608549 263.706525 
L 103.273444 263.181457 
L 104.938339 261.502534 
L 106.603234 260.082231 
L 108.268129 260.794445 
L 109.933024 264.150186 
L 113.262815 263.788101 
L 114.92771 257.441062 
L 116.592605 264.415624 
L 118.2575 264.535505 
L 119.922395 263.188191 
L 121.58729 264.314264 
L 123.252185 261.446214 
L 124.91708 263.906383 
L 126.581976 263.078581 
L 128.246871 261.023852 
L 129.911766 263.826153 
L 131.576661 263.949065 
L 133.241556 262.80826 
L 134.906451 263.34764 
L 136.571346 257.545537 
L 138.236241 263.776484 
L 139.901136 264.44088 
L 141.566031 264.414277 
L 143.230927 264.064652 
L 144.895822 263.11899 
L 146.560717 264.531885 
L 148.225612 263.012832 
L 149.890507 263.120085 
L 153.220297 264.380687 
L 154.885192 264.418486 
L 156.550087 261.941901 
L 158.214983 263.864711 
L 159.879878 255.847925 
L 161.544773 257.783026 
L 163.209668 263.54514 
L 164.874563 262.592407 
L 166.539458 264.361913 
L 168.204353 260.181907 
L 169.869248 263.388218 
L 171.534143 264.103378 
L 173.199038 263.555916 
L 174.863934 264.480363 
L 176.528829 264.468409 
L 178.193724 264.013299 
L 179.858619 264.017677 
L 181.523514 263.169839 
L 183.188409 260.545675 
L 184.853304 264.398282 
L 186.518199 263.407159 
L 188.183094 263.686236 
L 189.84799 262.143442 
L 191.512885 263.088515 
L 193.17778 263.873213 
L 194.842675 258.104869 
L 196.50757 264.549817 
L 198.172465 264.528854 
L 199.83736 264.357199 
L 201.502255 263.036657 
L 203.16715 261.916645 
L 204.832045 264.372605 
L 206.496941 262.52691 
L 208.161836 264.365618 
L 209.826731 264.61565 
L 211.491626 262.887984 
L 213.156521 264.480026 
L 214.821416 264.547039 
L 218.151206 263.852756 
L 221.480997 263.979035 
L 223.145892 263.695244 
L 224.810787 264.556552 
L 226.475682 263.593716 
L 228.140577 263.823712 
L 229.805472 263.060818 
L 231.470367 262.78292 
L 233.135262 261.041952 
L 234.800157 263.999913 
L 236.465052 262.648643 
L 238.129948 263.203513 
L 239.794843 264.205832 
L 241.459738 263.839371 
L 243.124633 262.564709 
L 244.789528 263.594221 
L 246.454423 263.740789 
L 248.119318 260.738966 
L 249.784213 263.989811 
L 251.449108 264.205412 
L 253.114003 263.875571 
L 254.778899 264.010184 
L 256.443794 263.975079 
L 258.108689 264.479606 
L 259.773584 264.224438 
L 261.438479 264.345329 
L 263.103374 263.693392 
L 264.768269 262.481029 
L 266.433164 264.458054 
L 268.098059 264.322851 
L 269.762955 263.712923 
L 271.42785 263.370791 
L 273.092745 263.878265 
L 274.75764 262.325537 
L 276.422535 262.493236 
L 278.08743 264.073997 
L 279.752325 264.067178 
L 281.41722 263.577468 
L 283.082115 263.400256 
L 286.411906 264.303573 
L 288.076801 262.462171 
L 289.741696 263.92886 
L 291.406591 262.261303 
L 293.071486 259.753569 
L 294.736381 264.003702 
L 296.401276 262.412333 
L 298.066171 261.951667 
L 299.731066 262.879397 
L 301.395962 263.543709 
L 303.060857 264.351474 
L 304.725752 262.25381 
L 306.390647 263.907814 
L 308.055542 261.483676 
L 309.720437 264.308792 
L 313.050227 264.37471 
L 314.715122 262.917449 
L 316.380017 264.010521 
L 318.044913 264.14404 
L 319.709808 263.835751 
L 321.374703 262.895308 
L 323.039598 263.463311 
L 324.704493 259.856949 
L 326.369388 262.900107 
L 328.034283 261.35866 
L 329.699178 264.243716 
L 331.364073 264.165002 
L 333.028969 263.393437 
L 334.693864 263.985433 
L 336.358759 264.260638 
L 338.023654 263.883821 
L 339.688549 263.084643 
L 341.353444 264.514038 
L 344.683234 264.543755 
L 346.348129 257.809123 
L 348.013024 262.721296 
L 349.67792 262.349277 
L 351.342815 264.400302 
L 354.672605 264.021465 
L 356.3375 253.121054 
L 358.002395 264.088646 
L 359.66729 264.377235 
L 361.332185 264.462937 
L 364.661976 264.096222 
L 366.326871 263.615351 
L 367.991766 264.305509 
L 369.656661 263.668389 
L 371.321556 264.40207 
L 374.651346 264.191437 
L 376.316241 263.658202 
L 377.981136 260.760686 
L 379.646031 263.632273 
L 381.310927 262.220894 
L 382.975822 263.089441 
L 384.640717 262.887142 
L 386.305612 262.243119 
L 387.970507 264.324198 
L 389.635402 262.408629 
L 391.300297 263.573343 
L 392.965192 263.655929 
L 394.630087 260.287645 
L 396.294983 263.776736 
L 397.959878 262.122649 
L 399.624773 264.103294 
L 399.624773 264.103294 
" style="fill:none;stroke:#8c564b;stroke-linecap:square;stroke-width:1.5;"/>
   </g>
   <g id="line2d_23">
    <path clip-path="url(#p72a7089054)" d="M 74.970227 254.170518 
L 76.635122 263.209659 
L 78.300017 264.568843 
L 79.964913 261.857883 
L 81.629808 264.028368 
L 83.294703 264.080227 
L 86.624493 264.595951 
L 88.289388 264.422022 
L 89.954283 264.555289 
L 91.619178 264.551669 
L 93.284073 264.062211 
L 94.948969 263.340231 
L 96.613864 263.282396 
L 99.943654 263.898638 
L 101.608549 264.108429 
L 103.273444 263.794415 
L 104.938339 262.689894 
L 106.603234 261.837931 
L 108.268129 260.783333 
L 109.933024 264.419328 
L 111.59792 264.438018 
L 113.262815 264.064063 
L 114.92771 257.647486 
L 116.592605 264.288166 
L 118.2575 264.498211 
L 119.922395 264.092855 
L 121.58729 264.361072 
L 123.252185 263.060397 
L 124.91708 263.917159 
L 126.581976 263.935764 
L 128.246871 263.508014 
L 129.911766 263.540258 
L 131.576661 263.870183 
L 133.241556 263.220856 
L 134.906451 264.157846 
L 136.571346 260.017155 
L 138.236241 263.949739 
L 139.901136 264.50141 
L 141.566031 264.545523 
L 143.230927 264.06642 
L 144.895822 262.995069 
L 146.560717 264.409563 
L 149.890507 264.161972 
L 151.555402 263.379546 
L 153.220297 264.326219 
L 154.885192 264.257775 
L 156.550087 262.802451 
L 158.214983 263.373317 
L 159.879878 262.220304 
L 161.544773 260.519325 
L 163.209668 264.210379 
L 164.874563 261.26917 
L 166.539458 264.554784 
L 168.204353 263.825227 
L 169.869248 263.558105 
L 171.534143 264.427579 
L 173.199038 263.343515 
L 174.863934 264.367386 
L 176.528829 264.471187 
L 179.858619 264.296753 
L 183.188409 263.816977 
L 184.853304 264.432461 
L 186.518199 264.339099 
L 188.183094 264.397356 
L 189.84799 263.87515 
L 191.512885 259.901905 
L 193.17778 264.117353 
L 194.842675 261.184142 
L 196.50757 264.57019 
L 198.172465 264.613798 
L 199.83736 264.526076 
L 201.502255 261.6012 
L 204.832045 264.472955 
L 206.496941 263.313544 
L 208.161836 264.584838 
L 209.826731 264.577009 
L 211.491626 262.904484 
L 213.156521 264.541987 
L 214.821416 264.561687 
L 218.151206 264.217029 
L 223.145892 264.31418 
L 224.810787 264.593762 
L 228.140577 263.844169 
L 229.805472 263.272209 
L 231.470367 262.22485 
L 233.135262 261.476521 
L 234.800157 264.398029 
L 236.465052 264.002692 
L 238.129948 263.838865 
L 239.794843 264.512691 
L 241.459738 263.619813 
L 243.124633 263.472572 
L 244.789528 263.528051 
L 246.454423 263.905625 
L 248.119318 260.798907 
L 249.784213 264.02559 
L 251.449108 264.294649 
L 253.114003 264.413014 
L 256.443794 264.390958 
L 259.773584 264.531464 
L 261.438479 263.87978 
L 264.768269 262.883438 
L 266.433164 264.333627 
L 268.098059 264.420002 
L 269.762955 264.184365 
L 271.42785 262.385225 
L 273.092745 263.681522 
L 274.75764 263.824301 
L 276.422535 263.798877 
L 278.08743 264.354673 
L 279.752325 263.289299 
L 281.41722 263.872287 
L 283.082115 264.315527 
L 284.74701 263.195852 
L 286.411906 264.388685 
L 288.076801 263.536722 
L 289.741696 263.988296 
L 291.406591 263.296539 
L 293.071486 263.725888 
L 294.736381 263.742472 
L 296.401276 263.219172 
L 298.066171 262.316697 
L 299.731066 261.096505 
L 301.395962 263.156537 
L 303.060857 264.309297 
L 304.725752 264.105819 
L 306.390647 264.111292 
L 308.055542 260.024479 
L 309.720437 264.346171 
L 313.050227 264.32605 
L 314.715122 263.961104 
L 316.380017 263.947045 
L 318.044913 264.423201 
L 319.709808 264.177209 
L 321.374703 260.981086 
L 323.039598 263.894512 
L 324.704493 262.014722 
L 326.369388 263.416588 
L 328.034283 260.734252 
L 329.699178 264.44652 
L 331.364073 264.172663 
L 333.028969 262.924857 
L 334.693864 264.422612 
L 336.358759 264.477164 
L 338.023654 263.836424 
L 339.688549 262.765409 
L 341.353444 264.445426 
L 343.018339 264.565896 
L 344.683234 264.512101 
L 346.348129 249.562341 
L 348.013024 263.121348 
L 349.67792 263.923304 
L 351.342815 264.525319 
L 353.00771 264.42278 
L 354.672605 264.488024 
L 356.3375 261.172609 
L 358.002395 264.083426 
L 359.66729 264.40468 
L 364.661976 264.471355 
L 366.326871 264.185712 
L 367.991766 264.536852 
L 369.656661 263.838276 
L 371.321556 264.49981 
L 372.986451 264.391715 
L 374.651346 264.398619 
L 376.316241 263.437466 
L 377.981136 263.653067 
L 381.310927 263.742052 
L 382.975822 262.385898 
L 384.640717 263.907393 
L 386.305612 263.76032 
L 387.970507 264.446436 
L 389.635402 263.58395 
L 391.300297 264.128381 
L 392.965192 263.750386 
L 394.630087 261.682187 
L 396.294983 263.87456 
L 397.959878 262.076683 
L 399.624773 263.853766 
L 399.624773 263.853766 
" style="fill:none;stroke:#e377c2;stroke-linecap:square;stroke-width:1.5;"/>
   </g>
   <g id="line2d_24">
    <path clip-path="url(#p72a7089054)" d="M 74.970227 263.605502 
L 76.635122 263.993852 
L 78.300017 264.617418 
L 79.964913 261.765447 
L 81.629808 264.242706 
L 88.289388 264.593173 
L 91.619178 264.607147 
L 93.284073 264.372268 
L 94.948969 264.296838 
L 96.613864 264.083594 
L 98.278759 264.138315 
L 99.943654 264.397777 
L 101.608549 264.036871 
L 103.273444 263.512308 
L 104.938339 263.652562 
L 108.268129 263.580414 
L 109.933024 264.517573 
L 113.262815 264.465715 
L 114.92771 262.199679 
L 116.592605 264.557983 
L 118.2575 264.59915 
L 119.922395 264.247252 
L 121.58729 264.202212 
L 123.252185 263.327519 
L 124.91708 264.582818 
L 126.581976 264.4264 
L 128.246871 263.487304 
L 129.911766 264.440712 
L 131.576661 264.334469 
L 133.241556 263.800645 
L 134.906451 263.962451 
L 136.571346 260.970731 
L 138.236241 264.544681 
L 141.566031 264.55933 
L 143.230927 264.571873 
L 144.895822 264.348023 
L 146.560717 264.594014 
L 148.225612 264.432293 
L 149.890507 264.384896 
L 151.555402 264.216608 
L 153.220297 264.622806 
L 154.885192 264.523214 
L 156.550087 264.181334 
L 158.214983 264.318473 
L 161.544773 263.746429 
L 163.209668 264.531127 
L 164.874563 264.294986 
L 171.534143 264.469924 
L 173.199038 264.270151 
L 174.863934 264.543503 
L 178.193724 264.594772 
L 181.523514 264.51488 
L 183.188409 263.988632 
L 184.853304 264.585933 
L 188.183094 264.468493 
L 191.512885 263.044738 
L 193.17778 264.036619 
L 194.842675 262.556712 
L 196.50757 264.590479 
L 199.83736 264.586017 
L 201.502255 264.166686 
L 203.16715 263.602639 
L 204.832045 264.574988 
L 206.496941 264.099758 
L 208.161836 264.588374 
L 209.826731 264.613209 
L 211.491626 264.049667 
L 213.156521 264.474639 
L 214.821416 264.603191 
L 216.486311 264.58206 
L 218.151206 264.33228 
L 219.816101 264.311233 
L 221.480997 264.561182 
L 224.810787 264.623648 
L 226.475682 264.356357 
L 228.140577 264.257186 
L 229.805472 263.887862 
L 231.470367 264.23454 
L 233.135262 264.028368 
L 234.800157 264.540135 
L 236.465052 264.278822 
L 238.129948 264.430441 
L 239.794843 264.40207 
L 241.459738 264.503178 
L 243.124633 263.905036 
L 244.789528 264.271919 
L 246.454423 264.253987 
L 248.119318 264.124088 
L 249.784213 264.50082 
L 251.449108 264.290692 
L 253.114003 264.502925 
L 256.443794 264.462516 
L 258.108689 264.585848 
L 259.773584 264.589973 
L 261.438479 264.360651 
L 263.103374 264.457886 
L 264.768269 264.012289 
L 266.433164 264.528939 
L 271.42785 264.446436 
L 273.092745 263.992252 
L 274.75764 264.344571 
L 276.422535 264.383718 
L 278.08743 264.537694 
L 279.752325 264.209116 
L 283.082115 264.563455 
L 284.74701 264.363008 
L 286.411906 264.551669 
L 288.076801 263.871614 
L 289.741696 264.30795 
L 291.406591 263.775558 
L 293.071486 263.72513 
L 294.736381 264.434987 
L 296.401276 263.625959 
L 298.066171 263.176237 
L 299.731066 263.990821 
L 301.395962 264.093781 
L 303.060857 264.466725 
L 306.390647 264.536515 
L 308.055542 262.528173 
L 309.720437 264.540388 
L 311.385332 264.47245 
L 313.050227 264.556804 
L 319.709808 264.339183 
L 321.374703 262.795463 
L 323.039598 264.38136 
L 326.369388 263.107373 
L 328.034283 262.74411 
L 329.699178 264.52153 
L 331.364073 264.476238 
L 333.028969 262.962994 
L 334.693864 264.474386 
L 336.358759 264.471019 
L 338.023654 264.320326 
L 339.688549 263.7205 
L 341.353444 264.52414 
L 343.018339 264.612872 
L 344.683234 264.572715 
L 346.348129 258.878707 
L 348.013024 263.371633 
L 349.67792 264.507219 
L 351.342815 264.635434 
L 354.672605 264.414866 
L 356.3375 263.555664 
L 358.002395 264.531801 
L 361.332185 264.567327 
L 364.661976 264.433219 
L 366.326871 264.106072 
L 367.991766 264.543166 
L 369.656661 264.399376 
L 371.321556 264.604538 
L 372.986451 264.617586 
L 374.651346 264.519005 
L 376.316241 262.726263 
L 377.981136 264.185459 
L 379.646031 264.201202 
L 381.310927 263.967249 
L 382.975822 264.237402 
L 384.640717 264.173168 
L 386.305612 263.52401 
L 387.970507 264.583491 
L 389.635402 264.484825 
L 391.300297 264.544092 
L 392.965192 264.394493 
L 394.630087 262.976464 
L 396.294983 264.440627 
L 397.959878 263.133134 
L 399.624773 264.470598 
L 399.624773 264.470598 
" style="fill:none;stroke:#7f7f7f;stroke-linecap:square;stroke-width:1.5;"/>
   </g>
   <g id="line2d_25">
    <path clip-path="url(#p72a7089054)" d="M 74.970227 264.657575 
L 113.262815 264.651345 
L 279.752325 264.649914 
L 399.624773 264.655554 
L 399.624773 264.655554 
" style="fill:none;stroke:#bcbd22;stroke-linecap:square;stroke-width:1.5;"/>
   </g>
   <g id="line2d_26">
    <path clip-path="url(#p72a7089054)" d="M 74.970227 264.657575 
L 103.273444 264.650167 
L 221.480997 264.65286 
L 399.624773 264.65244 
L 399.624773 264.65244 
" style="fill:none;stroke:#17becf;stroke-linecap:square;stroke-width:1.5;"/>
   </g>
   <g id="line2d_27">
    <path clip-path="url(#p72a7089054)" d="M 74.970227 264.666078 
L 76.635122 264.626426 
L 78.300017 264.65345 
L 88.289388 264.655386 
L 108.268129 264.660437 
L 116.592605 264.657154 
L 121.58729 264.644947 
L 124.91708 264.633834 
L 133.241556 264.648146 
L 158.214983 264.652776 
L 168.204353 264.655975 
L 189.84799 264.641074 
L 196.50757 264.656901 
L 209.826731 264.646799 
L 226.475682 264.655218 
L 253.114003 264.632908 
L 258.108689 264.636697 
L 306.390647 264.669866 
L 309.720437 264.658501 
L 318.044913 264.635518 
L 324.704493 264.649156 
L 392.965192 264.650167 
L 394.630087 264.586943 
L 399.624773 264.650587 
L 399.624773 264.650587 
" style="fill:none;stroke:#1f77b4;stroke-linecap:square;stroke-width:1.5;"/>
   </g>
   <g id="line2d_28">
    <path clip-path="url(#p72a7089054)" d="M 74.970227 264.657575 
L 399.624773 264.657575 
L 399.624773 264.657575 
" style="fill:none;stroke:#ff7f0e;stroke-linecap:square;stroke-width:1.5;"/>
   </g>
   <g id="patch_3">
    <path d="M 58.7375 276.812 
L 58.7375 10.7 
" style="fill:none;stroke:#000000;stroke-linecap:square;stroke-linejoin:miter;stroke-width:0.8;"/>
   </g>
   <g id="patch_4">
    <path d="M 415.8575 276.812 
L 415.8575 10.7 
" style="fill:none;stroke:#000000;stroke-linecap:square;stroke-linejoin:miter;stroke-width:0.8;"/>
   </g>
   <g id="patch_5">
    <path d="M 58.7375 276.812 
L 415.8575 276.812 
" style="fill:none;stroke:#000000;stroke-linecap:square;stroke-linejoin:miter;stroke-width:0.8;"/>
   </g>
   <g id="patch_6">
    <path d="M 58.7375 10.7 
L 415.8575 10.7 
" style="fill:none;stroke:#000000;stroke-linecap:square;stroke-linejoin:miter;stroke-width:0.8;"/>
   </g>
   <g id="legend_1">
    <g id="patch_7">
     <path d="M 318.504375 165.48125 
L 408.8575 165.48125 
Q 410.8575 165.48125 410.8575 163.48125 
L 410.8575 17.7 
Q 410.8575 15.7 408.8575 15.7 
L 318.504375 15.7 
Q 316.504375 15.7 316.504375 17.7 
L 316.504375 163.48125 
Q 316.504375 165.48125 318.504375 165.48125 
z
" style="fill:#ffffff;opacity:0.8;stroke:#cccccc;stroke-linejoin:miter;"/>
    </g>
    <g id="line2d_29">
     <path d="M 320.504375 23.798437 
L 340.504375 23.798437 
" style="fill:none;stroke:#1f77b4;stroke-linecap:square;stroke-width:1.5;"/>
    </g>
    <g id="line2d_30"/>
    <g id="text_17">
     <!-- delta -->
     <defs>
      <path d="M 45.40625 46.390625 
L 45.40625 75.984375 
L 54.390625 75.984375 
L 54.390625 0 
L 45.40625 0 
L 45.40625 8.203125 
Q 42.578125 3.328125 38.25 0.953125 
Q 33.9375 -1.421875 27.875 -1.421875 
Q 17.96875 -1.421875 11.734375 6.484375 
Q 5.515625 14.40625 5.515625 27.296875 
Q 5.515625 40.1875 11.734375 48.09375 
Q 17.96875 56 27.875 56 
Q 33.9375 56 38.25 53.625 
Q 42.578125 51.265625 45.40625 46.390625 
M 14.796875 27.296875 
Q 14.796875 17.390625 18.875 11.75 
Q 22.953125 6.109375 30.078125 6.109375 
Q 37.203125 6.109375 41.296875 11.75 
Q 45.40625 17.390625 45.40625 27.296875 
Q 45.40625 37.203125 41.296875 42.84375 
Q 37.203125 48.484375 30.078125 48.484375 
Q 22.953125 48.484375 18.875 42.84375 
Q 14.796875 37.203125 14.796875 27.296875 
" id="DejaVuSans-64"/>
      <path d="M 56.203125 29.59375 
L 56.203125 25.203125 
L 14.890625 25.203125 
Q 15.484375 15.921875 20.484375 11.0625 
Q 25.484375 6.203125 34.421875 6.203125 
Q 39.59375 6.203125 44.453125 7.46875 
Q 49.3125 8.734375 54.109375 11.28125 
L 54.109375 2.78125 
Q 49.265625 0.734375 44.1875 -0.34375 
Q 39.109375 -1.421875 33.890625 -1.421875 
Q 20.796875 -1.421875 13.15625 6.1875 
Q 5.515625 13.8125 5.515625 26.8125 
Q 5.515625 40.234375 12.765625 48.109375 
Q 20.015625 56 32.328125 56 
Q 43.359375 56 49.78125 48.890625 
Q 56.203125 41.796875 56.203125 29.59375 
M 47.21875 32.234375 
Q 47.125 39.59375 43.09375 43.984375 
Q 39.0625 48.390625 32.421875 48.390625 
Q 24.90625 48.390625 20.390625 44.140625 
Q 15.875 39.890625 15.1875 32.171875 
z
" id="DejaVuSans-65"/>
      <path d="M 9.421875 75.984375 
L 18.40625 75.984375 
L 18.40625 0 
L 9.421875 0 
z
" id="DejaVuSans-6c"/>
      <path d="M 18.3125 70.21875 
L 18.3125 54.6875 
L 36.8125 54.6875 
L 36.8125 47.703125 
L 18.3125 47.703125 
L 18.3125 18.015625 
Q 18.3125 11.328125 20.140625 9.421875 
Q 21.96875 7.515625 27.59375 7.515625 
L 36.8125 7.515625 
L 36.8125 0 
L 27.59375 0 
Q 17.1875 0 13.234375 3.875 
Q 9.28125 7.765625 9.28125 18.015625 
L 9.28125 47.703125 
L 2.6875 47.703125 
L 2.6875 54.6875 
L 9.28125 54.6875 
L 9.28125 70.21875 
z
" id="DejaVuSans-74"/>
      <path d="M 34.28125 27.484375 
Q 23.390625 27.484375 19.1875 25 
Q 14.984375 22.515625 14.984375 16.5 
Q 14.984375 11.71875 18.140625 8.90625 
Q 21.296875 6.109375 26.703125 6.109375 
Q 34.1875 6.109375 38.703125 11.40625 
Q 43.21875 16.703125 43.21875 25.484375 
L 43.21875 27.484375 
z
M 52.203125 31.203125 
L 52.203125 0 
L 43.21875 0 
L 43.21875 8.296875 
Q 40.140625 3.328125 35.546875 0.953125 
Q 30.953125 -1.421875 24.3125 -1.421875 
Q 15.921875 -1.421875 10.953125 3.296875 
Q 6 8.015625 6 15.921875 
Q 6 25.140625 12.171875 29.828125 
Q 18.359375 34.515625 30.609375 34.515625 
L 43.21875 34.515625 
L 43.21875 35.40625 
Q 43.21875 41.609375 39.140625 45 
Q 35.0625 48.390625 27.6875 48.390625 
Q 23 48.390625 18.546875 47.265625 
Q 14.109375 46.140625 10.015625 43.890625 
L 10.015625 52.203125 
Q 14.9375 54.109375 19.578125 55.046875 
Q 24.21875 56 28.609375 56 
Q 40.484375 56 46.34375 49.84375 
Q 52.203125 43.703125 52.203125 31.203125 
" id="DejaVuSans-61"/>
     </defs>
     <g transform="translate(348.504375 27.298437)scale(0.1 -0.1)">
      <use xlink:href="#DejaVuSans-64"/>
      <use x="63.476562" xlink:href="#DejaVuSans-65"/>
      <use x="125" xlink:href="#DejaVuSans-6c"/>
      <use x="152.783203" xlink:href="#DejaVuSans-74"/>
      <use x="191.992188" xlink:href="#DejaVuSans-61"/>
     </g>
    </g>
    <g id="line2d_31">
     <path d="M 320.504375 38.476562 
L 340.504375 38.476562 
" style="fill:none;stroke:#ff7f0e;stroke-linecap:square;stroke-width:1.5;"/>
    </g>
    <g id="line2d_32"/>
    <g id="text_18">
     <!-- lowAlpha -->
     <defs>
      <path d="M 30.609375 48.390625 
Q 23.390625 48.390625 19.1875 42.75 
Q 14.984375 37.109375 14.984375 27.296875 
Q 14.984375 17.484375 19.15625 11.84375 
Q 23.34375 6.203125 30.609375 6.203125 
Q 37.796875 6.203125 41.984375 11.859375 
Q 46.1875 17.53125 46.1875 27.296875 
Q 46.1875 37.015625 41.984375 42.703125 
Q 37.796875 48.390625 30.609375 48.390625 
M 30.609375 56 
Q 42.328125 56 49.015625 48.375 
Q 55.71875 40.765625 55.71875 27.296875 
Q 55.71875 13.875 49.015625 6.21875 
Q 42.328125 -1.421875 30.609375 -1.421875 
Q 18.84375 -1.421875 12.171875 6.21875 
Q 5.515625 13.875 5.515625 27.296875 
Q 5.515625 40.765625 12.171875 48.375 
Q 18.84375 56 30.609375 56 
" id="DejaVuSans-6f"/>
      <path d="M 4.203125 54.6875 
L 13.1875 54.6875 
L 24.421875 12.015625 
L 35.59375 54.6875 
L 46.1875 54.6875 
L 57.421875 12.015625 
L 68.609375 54.6875 
L 77.59375 54.6875 
L 63.28125 0 
L 52.6875 0 
L 40.921875 44.828125 
L 29.109375 0 
L 18.5 0 
z
" id="DejaVuSans-77"/>
      <path d="M 34.1875 63.1875 
L 20.796875 26.90625 
L 47.609375 26.90625 
z
M 28.609375 72.90625 
L 39.796875 72.90625 
L 67.578125 0 
L 57.328125 0 
L 50.6875 18.703125 
L 17.828125 18.703125 
L 11.1875 0 
L 0.78125 0 
z
" id="DejaVuSans-41"/>
      <path d="M 18.109375 8.203125 
L 18.109375 -20.796875 
L 9.078125 -20.796875 
L 9.078125 54.6875 
L 18.109375 54.6875 
L 18.109375 46.390625 
Q 20.953125 51.265625 25.265625 53.625 
Q 29.59375 56 35.59375 56 
Q 45.5625 56 51.78125 48.09375 
Q 58.015625 40.1875 58.015625 27.296875 
Q 58.015625 14.40625 51.78125 6.484375 
Q 45.5625 -1.421875 35.59375 -1.421875 
Q 29.59375 -1.421875 25.265625 0.953125 
Q 20.953125 3.328125 18.109375 8.203125 
M 48.6875 27.296875 
Q 48.6875 37.203125 44.609375 42.84375 
Q 40.53125 48.484375 33.40625 48.484375 
Q 26.265625 48.484375 22.1875 42.84375 
Q 18.109375 37.203125 18.109375 27.296875 
Q 18.109375 17.390625 22.1875 11.75 
Q 26.265625 6.109375 33.40625 6.109375 
Q 40.53125 6.109375 44.609375 11.75 
Q 48.6875 17.390625 48.6875 27.296875 
" id="DejaVuSans-70"/>
      <path d="M 54.890625 33.015625 
L 54.890625 0 
L 45.90625 0 
L 45.90625 32.71875 
Q 45.90625 40.484375 42.875 44.328125 
Q 39.84375 48.1875 33.796875 48.1875 
Q 26.515625 48.1875 22.3125 43.546875 
Q 18.109375 38.921875 18.109375 30.90625 
L 18.109375 0 
L 9.078125 0 
L 9.078125 75.984375 
L 18.109375 75.984375 
L 18.109375 46.1875 
Q 21.34375 51.125 25.703125 53.5625 
Q 30.078125 56 35.796875 56 
Q 45.21875 56 50.046875 50.171875 
Q 54.890625 44.34375 54.890625 33.015625 
" id="DejaVuSans-68"/>
     </defs>
     <g transform="translate(348.504375 41.976562)scale(0.1 -0.1)">
      <use xlink:href="#DejaVuSans-6c"/>
      <use x="27.783203" xlink:href="#DejaVuSans-6f"/>
      <use x="88.964844" xlink:href="#DejaVuSans-77"/>
      <use x="170.751953" xlink:href="#DejaVuSans-41"/>
      <use x="239.160156" xlink:href="#DejaVuSans-6c"/>
      <use x="266.943359" xlink:href="#DejaVuSans-70"/>
      <use x="330.419922" xlink:href="#DejaVuSans-68"/>
      <use x="393.798828" xlink:href="#DejaVuSans-61"/>
     </g>
    </g>
    <g id="line2d_33">
     <path d="M 320.504375 53.154687 
L 340.504375 53.154687 
" style="fill:none;stroke:#2ca02c;stroke-linecap:square;stroke-width:1.5;"/>
    </g>
    <g id="line2d_34"/>
    <g id="text_19">
     <!-- highAlpha -->
     <defs>
      <path d="M 9.421875 54.6875 
L 18.40625 54.6875 
L 18.40625 0 
L 9.421875 0 
z
M 9.421875 75.984375 
L 18.40625 75.984375 
L 18.40625 64.59375 
L 9.421875 64.59375 
z
" id="DejaVuSans-69"/>
      <path d="M 45.40625 27.984375 
Q 45.40625 37.75 41.375 43.109375 
Q 37.359375 48.484375 30.078125 48.484375 
Q 22.859375 48.484375 18.828125 43.109375 
Q 14.796875 37.75 14.796875 27.984375 
Q 14.796875 18.265625 18.828125 12.890625 
Q 22.859375 7.515625 30.078125 7.515625 
Q 37.359375 7.515625 41.375 12.890625 
Q 45.40625 18.265625 45.40625 27.984375 
M 54.390625 6.78125 
Q 54.390625 -7.171875 48.1875 -13.984375 
Q 42 -20.796875 29.203125 -20.796875 
Q 24.46875 -20.796875 20.265625 -20.09375 
Q 16.0625 -19.390625 12.109375 -17.921875 
L 12.109375 -9.1875 
Q 16.0625 -11.328125 19.921875 -12.34375 
Q 23.78125 -13.375 27.78125 -13.375 
Q 36.625 -13.375 41.015625 -8.765625 
Q 45.40625 -4.15625 45.40625 5.171875 
L 45.40625 9.625 
Q 42.625 4.78125 38.28125 2.390625 
Q 33.9375 0 27.875 0 
Q 17.828125 0 11.671875 7.65625 
Q 5.515625 15.328125 5.515625 27.984375 
Q 5.515625 40.671875 11.671875 48.328125 
Q 17.828125 56 27.875 56 
Q 33.9375 56 38.28125 53.609375 
Q 42.625 51.21875 45.40625 46.390625 
L 45.40625 54.6875 
L 54.390625 54.6875 
z
" id="DejaVuSans-67"/>
     </defs>
     <g transform="translate(348.504375 56.654687)scale(0.1 -0.1)">
      <use xlink:href="#DejaVuSans-68"/>
      <use x="63.378906" xlink:href="#DejaVuSans-69"/>
      <use x="91.162109" xlink:href="#DejaVuSans-67"/>
      <use x="154.638672" xlink:href="#DejaVuSans-68"/>
      <use x="218.017578" xlink:href="#DejaVuSans-41"/>
      <use x="286.425781" xlink:href="#DejaVuSans-6c"/>
      <use x="314.208984" xlink:href="#DejaVuSans-70"/>
      <use x="377.685547" xlink:href="#DejaVuSans-68"/>
      <use x="441.064453" xlink:href="#DejaVuSans-61"/>
     </g>
    </g>
    <g id="line2d_35">
     <path d="M 320.504375 67.832812 
L 340.504375 67.832812 
" style="fill:none;stroke:#d62728;stroke-linecap:square;stroke-width:1.5;"/>
    </g>
    <g id="line2d_36"/>
    <g id="text_20">
     <!-- lowBeta -->
     <defs>
      <path d="M 19.671875 34.8125 
L 19.671875 8.109375 
L 35.5 8.109375 
Q 43.453125 8.109375 47.28125 11.40625 
Q 51.125 14.703125 51.125 21.484375 
Q 51.125 28.328125 47.28125 31.5625 
Q 43.453125 34.8125 35.5 34.8125 
z
M 19.671875 64.796875 
L 19.671875 42.828125 
L 34.28125 42.828125 
Q 41.5 42.828125 45.03125 45.53125 
Q 48.578125 48.25 48.578125 53.8125 
Q 48.578125 59.328125 45.03125 62.0625 
Q 41.5 64.796875 34.28125 64.796875 
z
M 9.8125 72.90625 
L 35.015625 72.90625 
Q 46.296875 72.90625 52.390625 68.21875 
Q 58.5 63.53125 58.5 54.890625 
Q 58.5 48.1875 55.375 44.234375 
Q 52.25 40.28125 46.1875 39.3125 
Q 53.46875 37.75 57.5 32.78125 
Q 61.53125 27.828125 61.53125 20.40625 
Q 61.53125 10.640625 54.890625 5.3125 
Q 48.25 0 35.984375 0 
L 9.8125 0 
z
" id="DejaVuSans-42"/>
     </defs>
     <g transform="translate(348.504375 71.332812)scale(0.1 -0.1)">
      <use xlink:href="#DejaVuSans-6c"/>
      <use x="27.783203" xlink:href="#DejaVuSans-6f"/>
      <use x="88.964844" xlink:href="#DejaVuSans-77"/>
      <use x="170.751953" xlink:href="#DejaVuSans-42"/>
      <use x="239.355469" xlink:href="#DejaVuSans-65"/>
      <use x="300.878906" xlink:href="#DejaVuSans-74"/>
      <use x="340.087891" xlink:href="#DejaVuSans-61"/>
     </g>
    </g>
    <g id="line2d_37">
     <path d="M 320.504375 82.510938 
L 340.504375 82.510938 
" style="fill:none;stroke:#9467bd;stroke-linecap:square;stroke-width:1.5;"/>
    </g>
    <g id="line2d_38"/>
    <g id="text_21">
     <!-- highBeta -->
     <g transform="translate(348.504375 86.010938)scale(0.1 -0.1)">
      <use xlink:href="#DejaVuSans-68"/>
      <use x="63.378906" xlink:href="#DejaVuSans-69"/>
      <use x="91.162109" xlink:href="#DejaVuSans-67"/>
      <use x="154.638672" xlink:href="#DejaVuSans-68"/>
      <use x="218.017578" xlink:href="#DejaVuSans-42"/>
      <use x="286.621094" xlink:href="#DejaVuSans-65"/>
      <use x="348.144531" xlink:href="#DejaVuSans-74"/>
      <use x="387.353516" xlink:href="#DejaVuSans-61"/>
     </g>
    </g>
    <g id="line2d_39">
     <path d="M 320.504375 97.189062 
L 340.504375 97.189062 
" style="fill:none;stroke:#8c564b;stroke-linecap:square;stroke-width:1.5;"/>
    </g>
    <g id="line2d_40"/>
    <g id="text_22">
     <!-- lowGamma -->
     <defs>
      <path d="M 59.515625 10.40625 
L 59.515625 29.984375 
L 43.40625 29.984375 
L 43.40625 38.09375 
L 69.28125 38.09375 
L 69.28125 6.78125 
Q 63.578125 2.734375 56.6875 0.65625 
Q 49.8125 -1.421875 42 -1.421875 
Q 24.90625 -1.421875 15.25 8.5625 
Q 5.609375 18.5625 5.609375 36.375 
Q 5.609375 54.25 15.25 64.234375 
Q 24.90625 74.21875 42 74.21875 
Q 49.125 74.21875 55.546875 72.453125 
Q 61.96875 70.703125 67.390625 67.28125 
L 67.390625 56.78125 
Q 61.921875 61.421875 55.765625 63.765625 
Q 49.609375 66.109375 42.828125 66.109375 
Q 29.4375 66.109375 22.71875 58.640625 
Q 16.015625 51.171875 16.015625 36.375 
Q 16.015625 21.625 22.71875 14.15625 
Q 29.4375 6.6875 42.828125 6.6875 
Q 48.046875 6.6875 52.140625 7.59375 
Q 56.25 8.5 59.515625 10.40625 
" id="DejaVuSans-47"/>
      <path d="M 52 44.1875 
Q 55.375 50.25 60.0625 53.125 
Q 64.75 56 71.09375 56 
Q 79.640625 56 84.28125 50.015625 
Q 88.921875 44.046875 88.921875 33.015625 
L 88.921875 0 
L 79.890625 0 
L 79.890625 32.71875 
Q 79.890625 40.578125 77.09375 44.375 
Q 74.3125 48.1875 68.609375 48.1875 
Q 61.625 48.1875 57.5625 43.546875 
Q 53.515625 38.921875 53.515625 30.90625 
L 53.515625 0 
L 44.484375 0 
L 44.484375 32.71875 
Q 44.484375 40.625 41.703125 44.40625 
Q 38.921875 48.1875 33.109375 48.1875 
Q 26.21875 48.1875 22.15625 43.53125 
Q 18.109375 38.875 18.109375 30.90625 
L 18.109375 0 
L 9.078125 0 
L 9.078125 54.6875 
L 18.109375 54.6875 
L 18.109375 46.1875 
Q 21.1875 51.21875 25.484375 53.609375 
Q 29.78125 56 35.6875 56 
Q 41.65625 56 45.828125 52.96875 
Q 50 49.953125 52 44.1875 
" id="DejaVuSans-6d"/>
     </defs>
     <g transform="translate(348.504375 100.689062)scale(0.1 -0.1)">
      <use xlink:href="#DejaVuSans-6c"/>
      <use x="27.783203" xlink:href="#DejaVuSans-6f"/>
      <use x="88.964844" xlink:href="#DejaVuSans-77"/>
      <use x="170.751953" xlink:href="#DejaVuSans-47"/>
      <use x="248.242188" xlink:href="#DejaVuSans-61"/>
      <use x="309.521484" xlink:href="#DejaVuSans-6d"/>
      <use x="406.933594" xlink:href="#DejaVuSans-6d"/>
      <use x="504.345703" xlink:href="#DejaVuSans-61"/>
     </g>
    </g>
    <g id="line2d_41">
     <path d="M 320.504375 111.867188 
L 340.504375 111.867188 
" style="fill:none;stroke:#e377c2;stroke-linecap:square;stroke-width:1.5;"/>
    </g>
    <g id="line2d_42"/>
    <g id="text_23">
     <!-- midGamma -->
     <g transform="translate(348.504375 115.367188)scale(0.1 -0.1)">
      <use xlink:href="#DejaVuSans-6d"/>
      <use x="97.412109" xlink:href="#DejaVuSans-69"/>
      <use x="125.195312" xlink:href="#DejaVuSans-64"/>
      <use x="188.671875" xlink:href="#DejaVuSans-47"/>
      <use x="266.162109" xlink:href="#DejaVuSans-61"/>
      <use x="327.441406" xlink:href="#DejaVuSans-6d"/>
      <use x="424.853516" xlink:href="#DejaVuSans-6d"/>
      <use x="522.265625" xlink:href="#DejaVuSans-61"/>
     </g>
    </g>
    <g id="line2d_43">
     <path d="M 320.504375 126.545312 
L 340.504375 126.545312 
" style="fill:none;stroke:#7f7f7f;stroke-linecap:square;stroke-width:1.5;"/>
    </g>
    <g id="line2d_44"/>
    <g id="text_24">
     <!-- attention -->
     <defs>
      <path d="M 54.890625 33.015625 
L 54.890625 0 
L 45.90625 0 
L 45.90625 32.71875 
Q 45.90625 40.484375 42.875 44.328125 
Q 39.84375 48.1875 33.796875 48.1875 
Q 26.515625 48.1875 22.3125 43.546875 
Q 18.109375 38.921875 18.109375 30.90625 
L 18.109375 0 
L 9.078125 0 
L 9.078125 54.6875 
L 18.109375 54.6875 
L 18.109375 46.1875 
Q 21.34375 51.125 25.703125 53.5625 
Q 30.078125 56 35.796875 56 
Q 45.21875 56 50.046875 50.171875 
Q 54.890625 44.34375 54.890625 33.015625 
" id="DejaVuSans-6e"/>
     </defs>
     <g transform="translate(348.504375 130.045312)scale(0.1 -0.1)">
      <use xlink:href="#DejaVuSans-61"/>
      <use x="61.279297" xlink:href="#DejaVuSans-74"/>
      <use x="100.488281" xlink:href="#DejaVuSans-74"/>
      <use x="139.697266" xlink:href="#DejaVuSans-65"/>
      <use x="201.220703" xlink:href="#DejaVuSans-6e"/>
      <use x="264.599609" xlink:href="#DejaVuSans-74"/>
      <use x="303.808594" xlink:href="#DejaVuSans-69"/>
      <use x="331.591797" xlink:href="#DejaVuSans-6f"/>
      <use x="392.773438" xlink:href="#DejaVuSans-6e"/>
     </g>
    </g>
    <g id="line2d_45">
     <path d="M 320.504375 141.223437 
L 340.504375 141.223437 
" style="fill:none;stroke:#bcbd22;stroke-linecap:square;stroke-width:1.5;"/>
    </g>
    <g id="line2d_46"/>
    <g id="text_25">
     <!-- meditation -->
     <g transform="translate(348.504375 144.723437)scale(0.1 -0.1)">
      <use xlink:href="#DejaVuSans-6d"/>
      <use x="97.412109" xlink:href="#DejaVuSans-65"/>
      <use x="158.935547" xlink:href="#DejaVuSans-64"/>
      <use x="222.412109" xlink:href="#DejaVuSans-69"/>
      <use x="250.195312" xlink:href="#DejaVuSans-74"/>
      <use x="289.404297" xlink:href="#DejaVuSans-61"/>
      <use x="350.683594" xlink:href="#DejaVuSans-74"/>
      <use x="389.892578" xlink:href="#DejaVuSans-69"/>
      <use x="417.675781" xlink:href="#DejaVuSans-6f"/>
      <use x="478.857422" xlink:href="#DejaVuSans-6e"/>
     </g>
    </g>
    <g id="line2d_47">
     <path d="M 320.504375 155.901562 
L 340.504375 155.901562 
" style="fill:none;stroke:#17becf;stroke-linecap:square;stroke-width:1.5;"/>
    </g>
    <g id="line2d_48"/>
    <g id="text_26">
     <!-- rawValue -->
     <defs>
      <path d="M 41.109375 46.296875 
Q 39.59375 47.171875 37.8125 47.578125 
Q 36.03125 48 33.890625 48 
Q 26.265625 48 22.1875 43.046875 
Q 18.109375 38.09375 18.109375 28.8125 
L 18.109375 0 
L 9.078125 0 
L 9.078125 54.6875 
L 18.109375 54.6875 
L 18.109375 46.1875 
Q 20.953125 51.171875 25.484375 53.578125 
Q 30.03125 56 36.53125 56 
Q 37.453125 56 38.578125 55.875 
Q 39.703125 55.765625 41.0625 55.515625 
z
" id="DejaVuSans-72"/>
      <path d="M 28.609375 0 
L 0.78125 72.90625 
L 11.078125 72.90625 
L 34.1875 11.53125 
L 57.328125 72.90625 
L 67.578125 72.90625 
L 39.796875 0 
z
" id="DejaVuSans-56"/>
      <path d="M 8.5 21.578125 
L 8.5 54.6875 
L 17.484375 54.6875 
L 17.484375 21.921875 
Q 17.484375 14.15625 20.5 10.265625 
Q 23.53125 6.390625 29.59375 6.390625 
Q 36.859375 6.390625 41.078125 11.03125 
Q 45.3125 15.671875 45.3125 23.6875 
L 45.3125 54.6875 
L 54.296875 54.6875 
L 54.296875 0 
L 45.3125 0 
L 45.3125 8.40625 
Q 42.046875 3.421875 37.71875 1 
Q 33.40625 -1.421875 27.6875 -1.421875 
Q 18.265625 -1.421875 13.375 4.4375 
Q 8.5 10.296875 8.5 21.578125 
M 31.109375 56 
z
" id="DejaVuSans-75"/>
     </defs>
     <g transform="translate(348.504375 159.401562)scale(0.1 -0.1)">
      <use xlink:href="#DejaVuSans-72"/>
      <use x="41.113281" xlink:href="#DejaVuSans-61"/>
      <use x="102.392578" xlink:href="#DejaVuSans-77"/>
      <use x="184.179688" xlink:href="#DejaVuSans-56"/>
      <use x="252.478516" xlink:href="#DejaVuSans-61"/>
      <use x="313.757812" xlink:href="#DejaVuSans-6c"/>
      <use x="341.541016" xlink:href="#DejaVuSans-75"/>
      <use x="404.919922" xlink:href="#DejaVuSans-65"/>
     </g>
    </g>
   </g>
  </g>
 </g>
 <defs>
  <clipPath id="p72a7089054">
   <rect height="266.112" width="357.12" x="58.7375" y="10.7"/>
  </clipPath>
 </defs>
</svg>
