<?xml version="1.0" encoding="utf-8" standalone="no"?>
<!DOCTYPE svg PUBLIC "-//W3C//DTD SVG 1.1//EN"
  "http://www.w3.org/Graphics/SVG/1.1/DTD/svg11.dtd">
<!-- Created with matplotlib (http://matplotlib.org/) -->
<svg height="300pt" version="1.1" viewBox="0 0 426 300" width="426pt" xmlns="http://www.w3.org/2000/svg" xmlns:xlink="http://www.w3.org/1999/xlink">
 <defs>
  <style type="text/css">
*{stroke-linecap:butt;stroke-linejoin:round;}
  </style>
 </defs>
 <g id="figure_1">
  <g id="patch_1">
   <path d="M 0 300.690125 
L 426.5575 300.690125 
L 426.5575 0 
L 0 0 
z
" style="fill:#ffffff;"/>
  </g>
  <g id="axes_1">
   <g id="patch_2">
    <path d="M 58.7375 276.812 
L 415.8575 276.812 
L 415.8575 10.7 
L 58.7375 10.7 
z
" style="fill:#ffffff;"/>
   </g>
   <g id="matplotlib.axis_1">
    <g id="xtick_1">
     <g id="line2d_1">
      <defs>
       <path d="M 0 0 
L 0 3.5 
" id="mb98847fb91" style="stroke:#000000;stroke-width:0.8;"/>
      </defs>
      <g>
       <use style="stroke:#000000;stroke-width:0.8;" x="74.970227" xlink:href="#mb98847fb91" y="276.812"/>
      </g>
     </g>
     <g id="text_1">
      <!-- 0 -->
      <defs>
       <path d="M 31.78125 66.40625 
Q 24.171875 66.40625 20.328125 58.90625 
Q 16.5 51.421875 16.5 36.375 
Q 16.5 21.390625 20.328125 13.890625 
Q 24.171875 6.390625 31.78125 6.390625 
Q 39.453125 6.390625 43.28125 13.890625 
Q 47.125 21.390625 47.125 36.375 
Q 47.125 51.421875 43.28125 58.90625 
Q 39.453125 66.40625 31.78125 66.40625 
M 31.78125 74.21875 
Q 44.046875 74.21875 50.515625 64.515625 
Q 56.984375 54.828125 56.984375 36.375 
Q 56.984375 17.96875 50.515625 8.265625 
Q 44.046875 -1.421875 31.78125 -1.421875 
Q 19.53125 -1.421875 13.0625 8.265625 
Q 6.59375 17.96875 6.59375 36.375 
Q 6.59375 54.828125 13.0625 64.515625 
Q 19.53125 74.21875 31.78125 74.21875 
" id="DejaVuSans-30"/>
      </defs>
      <g transform="translate(71.788977 291.410437)scale(0.1 -0.1)">
       <use xlink:href="#DejaVuSans-30"/>
      </g>
     </g>
    </g>
    <g id="xtick_2">
     <g id="line2d_2">
      <g>
       <use style="stroke:#000000;stroke-width:0.8;" x="116.807153" xlink:href="#mb98847fb91" y="276.812"/>
      </g>
     </g>
     <g id="text_2">
      <!-- 25 -->
      <defs>
       <path d="M 19.1875 8.296875 
L 53.609375 8.296875 
L 53.609375 0 
L 7.328125 0 
L 7.328125 8.296875 
Q 12.9375 14.109375 22.625 23.890625 
Q 32.328125 33.6875 34.8125 36.53125 
Q 39.546875 41.84375 41.421875 45.53125 
Q 43.3125 49.21875 43.3125 52.78125 
Q 43.3125 58.59375 39.234375 62.25 
Q 35.15625 65.921875 28.609375 65.921875 
Q 23.96875 65.921875 18.8125 64.3125 
Q 13.671875 62.703125 7.8125 59.421875 
L 7.8125 69.390625 
Q 13.765625 71.78125 18.9375 73 
Q 24.125 74.21875 28.421875 74.21875 
Q 39.75 74.21875 46.484375 68.546875 
Q 53.21875 62.890625 53.21875 53.421875 
Q 53.21875 48.921875 51.53125 44.890625 
Q 49.859375 40.875 45.40625 35.40625 
Q 44.1875 33.984375 37.640625 27.21875 
Q 31.109375 20.453125 19.1875 8.296875 
" id="DejaVuSans-32"/>
       <path d="M 10.796875 72.90625 
L 49.515625 72.90625 
L 49.515625 64.59375 
L 19.828125 64.59375 
L 19.828125 46.734375 
Q 21.96875 47.46875 24.109375 47.828125 
Q 26.265625 48.1875 28.421875 48.1875 
Q 40.625 48.1875 47.75 41.5 
Q 54.890625 34.8125 54.890625 23.390625 
Q 54.890625 11.625 47.5625 5.09375 
Q 40.234375 -1.421875 26.90625 -1.421875 
Q 22.3125 -1.421875 17.546875 -0.640625 
Q 12.796875 0.140625 7.71875 1.703125 
L 7.71875 11.625 
Q 12.109375 9.234375 16.796875 8.0625 
Q 21.484375 6.890625 26.703125 6.890625 
Q 35.15625 6.890625 40.078125 11.328125 
Q 45.015625 15.765625 45.015625 23.390625 
Q 45.015625 31 40.078125 35.4375 
Q 35.15625 39.890625 26.703125 39.890625 
Q 22.75 39.890625 18.8125 39.015625 
Q 14.890625 38.140625 10.796875 36.28125 
z
" id="DejaVuSans-35"/>
      </defs>
      <g transform="translate(110.444653 291.410437)scale(0.1 -0.1)">
       <use xlink:href="#DejaVuSans-32"/>
       <use x="63.623047" xlink:href="#DejaVuSans-35"/>
      </g>
     </g>
    </g>
    <g id="xtick_3">
     <g id="line2d_3">
      <g>
       <use style="stroke:#000000;stroke-width:0.8;" x="158.644079" xlink:href="#mb98847fb91" y="276.812"/>
      </g>
     </g>
     <g id="text_3">
      <!-- 50 -->
      <g transform="translate(152.281579 291.410437)scale(0.1 -0.1)">
       <use xlink:href="#DejaVuSans-35"/>
       <use x="63.623047" xlink:href="#DejaVuSans-30"/>
      </g>
     </g>
    </g>
    <g id="xtick_4">
     <g id="line2d_4">
      <g>
       <use style="stroke:#000000;stroke-width:0.8;" x="200.481005" xlink:href="#mb98847fb91" y="276.812"/>
      </g>
     </g>
     <g id="text_4">
      <!-- 75 -->
      <defs>
       <path d="M 8.203125 72.90625 
L 55.078125 72.90625 
L 55.078125 68.703125 
L 28.609375 0 
L 18.3125 0 
L 43.21875 64.59375 
L 8.203125 64.59375 
z
" id="DejaVuSans-37"/>
      </defs>
      <g transform="translate(194.118505 291.410437)scale(0.1 -0.1)">
       <use xlink:href="#DejaVuSans-37"/>
       <use x="63.623047" xlink:href="#DejaVuSans-35"/>
      </g>
     </g>
    </g>
    <g id="xtick_5">
     <g id="line2d_5">
      <g>
       <use style="stroke:#000000;stroke-width:0.8;" x="242.317931" xlink:href="#mb98847fb91" y="276.812"/>
      </g>
     </g>
     <g id="text_5">
      <!-- 100 -->
      <defs>
       <path d="M 12.40625 8.296875 
L 28.515625 8.296875 
L 28.515625 63.921875 
L 10.984375 60.40625 
L 10.984375 69.390625 
L 28.421875 72.90625 
L 38.28125 72.90625 
L 38.28125 8.296875 
L 54.390625 8.296875 
L 54.390625 0 
L 12.40625 0 
z
" id="DejaVuSans-31"/>
      </defs>
      <g transform="translate(232.774181 291.410437)scale(0.1 -0.1)">
       <use xlink:href="#DejaVuSans-31"/>
       <use x="63.623047" xlink:href="#DejaVuSans-30"/>
       <use x="127.246094" xlink:href="#DejaVuSans-30"/>
      </g>
     </g>
    </g>
    <g id="xtick_6">
     <g id="line2d_6">
      <g>
       <use style="stroke:#000000;stroke-width:0.8;" x="284.154857" xlink:href="#mb98847fb91" y="276.812"/>
      </g>
     </g>
     <g id="text_6">
      <!-- 125 -->
      <g transform="translate(274.611107 291.410437)scale(0.1 -0.1)">
       <use xlink:href="#DejaVuSans-31"/>
       <use x="63.623047" xlink:href="#DejaVuSans-32"/>
       <use x="127.246094" xlink:href="#DejaVuSans-35"/>
      </g>
     </g>
    </g>
    <g id="xtick_7">
     <g id="line2d_7">
      <g>
       <use style="stroke:#000000;stroke-width:0.8;" x="325.991783" xlink:href="#mb98847fb91" y="276.812"/>
      </g>
     </g>
     <g id="text_7">
      <!-- 150 -->
      <g transform="translate(316.448033 291.410437)scale(0.1 -0.1)">
       <use xlink:href="#DejaVuSans-31"/>
       <use x="63.623047" xlink:href="#DejaVuSans-35"/>
       <use x="127.246094" xlink:href="#DejaVuSans-30"/>
      </g>
     </g>
    </g>
    <g id="xtick_8">
     <g id="line2d_8">
      <g>
       <use style="stroke:#000000;stroke-width:0.8;" x="367.828709" xlink:href="#mb98847fb91" y="276.812"/>
      </g>
     </g>
     <g id="text_8">
      <!-- 175 -->
      <g transform="translate(358.284959 291.410437)scale(0.1 -0.1)">
       <use xlink:href="#DejaVuSans-31"/>
       <use x="63.623047" xlink:href="#DejaVuSans-37"/>
       <use x="127.246094" xlink:href="#DejaVuSans-35"/>
      </g>
     </g>
    </g>
    <g id="xtick_9">
     <g id="line2d_9">
      <g>
       <use style="stroke:#000000;stroke-width:0.8;" x="409.665635" xlink:href="#mb98847fb91" y="276.812"/>
      </g>
     </g>
     <g id="text_9">
      <!-- 200 -->
      <g transform="translate(400.121885 291.410437)scale(0.1 -0.1)">
       <use xlink:href="#DejaVuSans-32"/>
       <use x="63.623047" xlink:href="#DejaVuSans-30"/>
       <use x="127.246094" xlink:href="#DejaVuSans-30"/>
      </g>
     </g>
    </g>
   </g>
   <g id="matplotlib.axis_2">
    <g id="ytick_1">
     <g id="line2d_10">
      <defs>
       <path d="M 0 0 
L -3.5 0 
" id="m0f67589a4f" style="stroke:#000000;stroke-width:0.8;"/>
      </defs>
      <g>
       <use style="stroke:#000000;stroke-width:0.8;" x="58.7375" xlink:href="#m0f67589a4f" y="264.689222"/>
      </g>
     </g>
     <g id="text_10">
      <!-- 0 -->
      <g transform="translate(45.375 268.48844)scale(0.1 -0.1)">
       <use xlink:href="#DejaVuSans-30"/>
      </g>
     </g>
    </g>
    <g id="ytick_2">
     <g id="line2d_11">
      <g>
       <use style="stroke:#000000;stroke-width:0.8;" x="58.7375" xlink:href="#m0f67589a4f" y="216.35263"/>
      </g>
     </g>
     <g id="text_11">
      <!-- 500000 -->
      <g transform="translate(13.5625 220.151849)scale(0.1 -0.1)">
       <use xlink:href="#DejaVuSans-35"/>
       <use x="63.623047" xlink:href="#DejaVuSans-30"/>
       <use x="127.246094" xlink:href="#DejaVuSans-30"/>
       <use x="190.869141" xlink:href="#DejaVuSans-30"/>
       <use x="254.492188" xlink:href="#DejaVuSans-30"/>
       <use x="318.115234" xlink:href="#DejaVuSans-30"/>
      </g>
     </g>
    </g>
    <g id="ytick_3">
     <g id="line2d_12">
      <g>
       <use style="stroke:#000000;stroke-width:0.8;" x="58.7375" xlink:href="#m0f67589a4f" y="168.016039"/>
      </g>
     </g>
     <g id="text_12">
      <!-- 1000000 -->
      <g transform="translate(7.2 171.815257)scale(0.1 -0.1)">
       <use xlink:href="#DejaVuSans-31"/>
       <use x="63.623047" xlink:href="#DejaVuSans-30"/>
       <use x="127.246094" xlink:href="#DejaVuSans-30"/>
       <use x="190.869141" xlink:href="#DejaVuSans-30"/>
       <use x="254.492188" xlink:href="#DejaVuSans-30"/>
       <use x="318.115234" xlink:href="#DejaVuSans-30"/>
       <use x="381.738281" xlink:href="#DejaVuSans-30"/>
      </g>
     </g>
    </g>
    <g id="ytick_4">
     <g id="line2d_13">
      <g>
       <use style="stroke:#000000;stroke-width:0.8;" x="58.7375" xlink:href="#m0f67589a4f" y="119.679447"/>
      </g>
     </g>
     <g id="text_13">
      <!-- 1500000 -->
      <g transform="translate(7.2 123.478666)scale(0.1 -0.1)">
       <use xlink:href="#DejaVuSans-31"/>
       <use x="63.623047" xlink:href="#DejaVuSans-35"/>
       <use x="127.246094" xlink:href="#DejaVuSans-30"/>
       <use x="190.869141" xlink:href="#DejaVuSans-30"/>
       <use x="254.492188" xlink:href="#DejaVuSans-30"/>
       <use x="318.115234" xlink:href="#DejaVuSans-30"/>
       <use x="381.738281" xlink:href="#DejaVuSans-30"/>
      </g>
     </g>
    </g>
    <g id="ytick_5">
     <g id="line2d_14">
      <g>
       <use style="stroke:#000000;stroke-width:0.8;" x="58.7375" xlink:href="#m0f67589a4f" y="71.342856"/>
      </g>
     </g>
     <g id="text_14">
      <!-- 2000000 -->
      <g transform="translate(7.2 75.142074)scale(0.1 -0.1)">
       <use xlink:href="#DejaVuSans-32"/>
       <use x="63.623047" xlink:href="#DejaVuSans-30"/>
       <use x="127.246094" xlink:href="#DejaVuSans-30"/>
       <use x="190.869141" xlink:href="#DejaVuSans-30"/>
       <use x="254.492188" xlink:href="#DejaVuSans-30"/>
       <use x="318.115234" xlink:href="#DejaVuSans-30"/>
       <use x="381.738281" xlink:href="#DejaVuSans-30"/>
      </g>
     </g>
    </g>
    <g id="ytick_6">
     <g id="line2d_15">
      <g>
       <use style="stroke:#000000;stroke-width:0.8;" x="58.7375" xlink:href="#m0f67589a4f" y="23.006264"/>
      </g>
     </g>
     <g id="text_15">
      <!-- 2500000 -->
      <g transform="translate(7.2 26.805483)scale(0.1 -0.1)">
       <use xlink:href="#DejaVuSans-32"/>
       <use x="63.623047" xlink:href="#DejaVuSans-35"/>
       <use x="127.246094" xlink:href="#DejaVuSans-30"/>
       <use x="190.869141" xlink:href="#DejaVuSans-30"/>
       <use x="254.492188" xlink:href="#DejaVuSans-30"/>
       <use x="318.115234" xlink:href="#DejaVuSans-30"/>
       <use x="381.738281" xlink:href="#DejaVuSans-30"/>
      </g>
     </g>
    </g>
   </g>
   <g id="line2d_16">
    <path clip-path="url(#p357b1823e9)" d="M 74.970227 246.161903 
L 76.643704 176.88242 
L 78.317181 228.592615 
L 79.990658 180.188836 
L 81.664135 220.580535 
L 83.337612 252.193633 
L 85.01109 264.073317 
L 86.684567 198.918492 
L 88.358044 180.259987 
L 90.031521 263.940874 
L 91.704998 243.966068 
L 93.378475 206.877015 
L 95.051952 218.560936 
L 96.725429 253.301314 
L 98.398906 208.165475 
L 100.072383 250.396865 
L 101.74586 244.628086 
L 103.419337 212.113994 
L 105.092814 262.241553 
L 106.766291 238.100809 
L 108.439768 244.026102 
L 110.113245 227.780947 
L 111.786722 250.67219 
L 113.460199 245.323553 
L 115.133676 255.966594 
L 116.807153 259.563416 
L 118.48063 252.555577 
L 120.154107 250.328324 
L 121.827584 83.896545 
L 123.501061 255.480521 
L 125.174538 250.443075 
L 126.848015 195.214942 
L 128.521493 262.446017 
L 131.868447 232.76735 
L 133.541924 251.540992 
L 135.215401 249.814119 
L 136.888878 250.217149 
L 138.562355 181.544194 
L 140.235832 260.428641 
L 141.909309 257.622992 
L 143.582786 240.49144 
L 145.256263 207.771822 
L 146.92974 178.928217 
L 148.603217 198.45069 
L 153.623648 249.708068 
L 155.297125 193.713897 
L 156.970602 263.483997 
L 158.644079 254.706265 
L 160.317556 223.543278 
L 161.991033 244.124999 
L 163.66451 216.593443 
L 165.337987 260.662687 
L 167.011464 262.700848 
L 168.684941 263.948028 
L 170.358418 214.92148 
L 172.031896 261.614434 
L 173.705373 263.609962 
L 175.37885 264.308909 
L 177.052327 260.670614 
L 178.725804 260.497762 
L 180.399281 260.775794 
L 182.072758 262.199404 
L 183.746235 258.837014 
L 185.419712 252.937146 
L 187.093189 263.065499 
L 188.766666 262.604271 
L 190.440143 258.884964 
L 192.11362 244.452624 
L 193.787097 260.927378 
L 195.460574 263.893311 
L 197.134051 264.091975 
L 198.807528 229.315247 
L 200.481005 248.403367 
L 202.154482 260.181641 
L 203.827959 255.433151 
L 205.501436 256.617784 
L 207.174913 256.859564 
L 208.84839 259.748739 
L 210.521867 259.511793 
L 212.195344 223.039127 
L 213.868821 260.909493 
L 215.542299 214.561179 
L 217.215776 262.870219 
L 218.889253 207.639863 
L 220.56273 194.976933 
L 222.236207 136.195384 
L 223.909684 263.126886 
L 225.583161 213.749511 
L 227.256638 260.662107 
L 228.930115 262.739227 
L 230.603592 260.738962 
L 232.277069 212.767312 
L 233.950546 235.752231 
L 235.624023 264.06771 
L 237.2975 257.951681 
L 238.970977 262.853398 
L 240.644454 264.11972 
L 242.317931 262.804578 
L 243.991408 262.557965 
L 245.664885 261.237506 
L 247.338362 244.883303 
L 249.011839 256.126684 
L 250.685316 153.026282 
L 252.358793 255.875721 
L 254.03227 249.580073 
L 255.705747 264.012896 
L 257.379224 259.164542 
L 259.052701 263.5798 
L 260.726179 243.904294 
L 262.399656 263.403178 
L 264.073133 211.065574 
L 265.74661 233.036778 
L 267.420087 251.088465 
L 269.093564 254.400005 
L 270.767041 255.192628 
L 272.440518 258.311015 
L 274.113995 254.545401 
L 275.787472 225.398146 
L 277.460949 261.416738 
L 279.134426 259.47119 
L 280.807903 257.118165 
L 282.48138 257.068378 
L 284.154857 208.084559 
L 285.828334 254.520459 
L 287.501811 256.068584 
L 289.175288 260.751916 
L 290.848765 263.662262 
L 292.522242 262.713318 
L 294.195719 245.879037 
L 295.869196 183.690822 
L 297.542673 164.979341 
L 299.21615 262.739807 
L 300.889627 263.120216 
L 302.563104 259.517883 
L 304.236582 258.229423 
L 305.910059 249.012698 
L 307.583536 251.640275 
L 309.257013 243.592136 
L 310.93049 263.125146 
L 312.603967 262.993091 
L 314.277444 253.892664 
L 315.950921 261.31088 
L 317.624398 258.221206 
L 319.297875 264.178497 
L 320.971352 231.905895 
L 322.644829 244.775126 
L 324.318306 255.469597 
L 325.991783 250.007949 
L 327.66526 258.262292 
L 329.338737 252.721178 
L 331.012214 258.570582 
L 332.685691 262.832903 
L 334.359168 260.689755 
L 336.032645 259.584201 
L 337.706122 262.905505 
L 339.379599 261.173411 
L 341.053076 228.935515 
L 342.726553 145.618506 
L 344.40003 253.306148 
L 346.073507 193.707227 
L 347.746985 208.450467 
L 349.420462 258.320876 
L 351.093939 246.398655 
L 352.767416 166.911934 
L 354.440893 261.077125 
L 356.11437 263.941068 
L 357.787847 260.645576 
L 359.461324 263.677247 
L 361.134801 260.201072 
L 362.808278 254.907539 
L 364.481755 231.13338 
L 366.155232 257.697527 
L 367.828709 244.275036 
L 369.502186 200.742425 
L 371.175663 140.571005 
L 372.84914 186.817523 
L 374.522617 171.838303 
L 376.196094 172.034453 
L 377.869571 132.214382 
L 379.543048 57.892909 
L 381.216525 218.562482 
L 382.890002 260.682505 
L 384.563479 259.937348 
L 386.236956 231.367909 
L 387.910433 141.792374 
L 389.58391 259.844542 
L 391.257388 255.47037 
L 392.930865 22.796 
L 394.604342 249.860135 
L 396.277819 52.763237 
L 397.951296 256.041902 
L 399.624773 151.214916 
L 399.624773 151.214916 
" style="fill:none;stroke:#1f77b4;stroke-linecap:square;stroke-width:1.5;"/>
   </g>
   <g id="line2d_17">
    <path clip-path="url(#p357b1823e9)" d="M 74.970227 262.614518 
L 76.643704 241.458752 
L 78.317181 257.487359 
L 79.990658 261.15253 
L 81.664135 257.986 
L 83.337612 262.918749 
L 85.01109 262.882883 
L 86.684567 254.694471 
L 88.358044 255.596722 
L 90.031521 264.253032 
L 91.704998 259.309166 
L 93.378475 251.623648 
L 95.051952 220.734729 
L 96.725429 263.099624 
L 98.398906 261.618398 
L 100.072383 261.139382 
L 101.74586 244.755791 
L 103.419337 261.478608 
L 105.092814 256.841583 
L 106.766291 261.390443 
L 108.439768 258.844168 
L 110.113245 262.943691 
L 111.786722 247.45452 
L 113.460199 259.980174 
L 115.133676 238.176601 
L 116.807153 264.389051 
L 118.48063 262.622059 
L 120.154107 261.995617 
L 121.827584 258.041683 
L 123.501061 235.702638 
L 125.174538 253.707921 
L 126.848015 261.265734 
L 128.521493 264.047312 
L 130.19497 262.344897 
L 131.868447 261.819865 
L 133.541924 263.467079 
L 135.215401 260.003182 
L 136.888878 263.875233 
L 138.562355 252.845113 
L 140.235832 256.735049 
L 141.909309 257.215708 
L 143.582786 260.21335 
L 145.256263 256.821668 
L 146.92974 260.849556 
L 148.603217 242.478751 
L 150.276694 259.019533 
L 151.950171 257.343316 
L 153.623648 263.186437 
L 155.297125 255.691365 
L 156.970602 261.980439 
L 158.644079 262.820916 
L 160.317556 249.064225 
L 161.991033 259.357986 
L 163.66451 249.040637 
L 165.337987 260.620731 
L 167.011464 264.235148 
L 168.684941 262.452301 
L 170.358418 236.077633 
L 172.031896 259.676234 
L 173.705373 261.604767 
L 175.37885 264.250035 
L 177.052327 260.314277 
L 178.725804 264.023047 
L 180.399281 262.328559 
L 182.072758 264.072447 
L 183.746235 263.257975 
L 185.419712 263.240671 
L 187.093189 262.544334 
L 188.766666 264.179561 
L 190.440143 263.96804 
L 192.11362 263.107745 
L 193.787097 259.661926 
L 195.460574 263.433824 
L 197.134051 262.675326 
L 198.807528 261.592393 
L 200.481005 255.606873 
L 202.154482 259.91637 
L 203.827959 262.713318 
L 205.501436 261.506934 
L 207.174913 261.580599 
L 208.84839 260.480264 
L 210.521867 262.421655 
L 212.195344 243.961621 
L 213.868821 261.886279 
L 215.542299 262.013791 
L 217.215776 263.755455 
L 218.889253 260.656596 
L 220.56273 261.15833 
L 222.236207 230.778976 
L 223.909684 261.810101 
L 225.583161 258.974096 
L 227.256638 260.267777 
L 228.930115 260.639679 
L 230.603592 263.071686 
L 232.277069 261.190039 
L 233.950546 261.625455 
L 235.624023 261.576442 
L 237.2975 258.057925 
L 238.970977 261.709851 
L 240.644454 263.92763 
L 242.317931 263.868853 
L 243.991408 262.270362 
L 245.664885 263.608029 
L 247.338362 262.920489 
L 249.011839 264.51579 
L 250.685316 252.324818 
L 252.358793 262.874279 
L 254.03227 259.48134 
L 255.705747 264.566253 
L 257.379224 263.464469 
L 259.052701 263.242991 
L 260.726179 247.725495 
L 262.399656 263.598941 
L 264.073133 250.577837 
L 265.74661 261.668281 
L 267.420087 260.984318 
L 269.093564 260.502983 
L 272.440518 262.210424 
L 274.113995 256.526138 
L 277.460949 263.930337 
L 279.134426 262.162378 
L 280.807903 264.431974 
L 282.48138 257.375702 
L 284.154857 261.033235 
L 285.828334 262.155031 
L 287.501811 257.090226 
L 289.175288 261.369271 
L 290.848765 258.415519 
L 292.522242 259.250582 
L 294.195719 252.257824 
L 295.869196 256.442999 
L 297.542673 248.526432 
L 299.21615 263.857349 
L 300.889627 264.159162 
L 302.563104 263.857445 
L 305.910059 254.612396 
L 307.583536 256.492109 
L 309.257013 262.402611 
L 310.93049 262.377186 
L 312.603967 263.598748 
L 314.277444 263.701898 
L 315.950921 263.469206 
L 317.624398 257.069538 
L 319.297875 264.328051 
L 320.971352 262.634433 
L 322.644829 256.823408 
L 324.318306 262.365585 
L 325.991783 262.945431 
L 327.66526 264.506026 
L 329.338737 261.519405 
L 331.012214 262.655508 
L 332.685691 259.5755 
L 334.359168 259.705042 
L 336.032645 251.398979 
L 337.706122 264.42627 
L 339.379599 257.345637 
L 341.053076 261.888503 
L 342.726553 215.879125 
L 344.40003 260.553059 
L 346.073507 262.432289 
L 347.746985 257.477402 
L 349.420462 263.82622 
L 351.093939 255.619537 
L 352.767416 253.69371 
L 354.440893 262.740967 
L 356.11437 264.184491 
L 357.787847 262.433353 
L 359.461324 263.076133 
L 361.134801 262.022782 
L 362.808278 263.702962 
L 364.481755 264.158292 
L 366.155232 263.778657 
L 367.828709 258.006108 
L 369.502186 260.185798 
L 371.175663 247.975492 
L 372.84914 249.274199 
L 374.522617 261.207634 
L 376.196094 244.636207 
L 377.869571 245.796575 
L 379.543048 219.605199 
L 381.216525 258.060148 
L 382.890002 256.270147 
L 384.563479 230.702411 
L 386.236956 244.906118 
L 387.910433 242.640099 
L 389.58391 262.056714 
L 391.257388 263.343144 
L 392.930865 255.646412 
L 394.604342 245.08535 
L 396.277819 250.285884 
L 397.951296 253.561171 
L 399.624773 231.162575 
L 399.624773 231.162575 
" style="fill:none;stroke:#ff7f0e;stroke-linecap:square;stroke-width:1.5;"/>
   </g>
   <g id="line2d_18">
    <path clip-path="url(#p357b1823e9)" d="M 74.970227 263.124663 
L 76.643704 258.777656 
L 78.317181 262.669332 
L 79.990658 263.942808 
L 81.664135 264.093811 
L 83.337612 263.445134 
L 85.01109 264.232924 
L 86.684567 264.162353 
L 88.358044 259.761596 
L 90.031521 264.510763 
L 91.704998 262.949878 
L 93.378475 262.857265 
L 95.051952 264.039288 
L 96.725429 263.059892 
L 98.398906 264.047312 
L 100.072383 264.191645 
L 101.74586 262.676969 
L 103.419337 263.883741 
L 105.092814 263.567136 
L 106.766291 263.932754 
L 108.439768 263.623206 
L 110.113245 263.540937 
L 111.786722 261.967485 
L 113.460199 261.299473 
L 115.133676 263.908876 
L 116.807153 264.124263 
L 118.48063 264.153845 
L 120.154107 262.710128 
L 121.827584 262.025199 
L 123.501061 261.702987 
L 125.174538 258.852771 
L 126.848015 263.783007 
L 128.521493 264.542278 
L 130.19497 264.230217 
L 131.868447 263.761642 
L 133.541924 264.435454 
L 135.215401 262.200467 
L 136.888878 264.07032 
L 138.562355 257.862258 
L 140.235832 262.773256 
L 141.909309 263.374563 
L 143.582786 264.341971 
L 145.256263 263.72945 
L 146.92974 264.268403 
L 148.603217 260.848009 
L 150.276694 261.787093 
L 151.950171 263.260102 
L 153.623648 263.743468 
L 155.297125 262.160251 
L 156.970602 264.105606 
L 158.644079 264.604246 
L 160.317556 263.062405 
L 161.991033 262.143817 
L 163.66451 263.346431 
L 165.337987 261.155043 
L 167.011464 264.533964 
L 168.684941 264.153072 
L 170.358418 260.839019 
L 172.031896 263.749365 
L 175.37885 264.520043 
L 177.052327 263.808626 
L 178.725804 264.567703 
L 180.399281 264.224127 
L 182.072758 264.511246 
L 183.746235 263.428217 
L 185.419712 264.443285 
L 187.093189 264.441642 
L 188.766666 264.308909 
L 192.11362 264.678394 
L 193.787097 263.772566 
L 195.460574 263.329513 
L 197.134051 264.478957 
L 198.807528 264.302819 
L 200.481005 262.759625 
L 202.154482 262.132989 
L 203.827959 261.369948 
L 205.501436 264.629671 
L 207.174913 264.316353 
L 210.521867 264.172213 
L 212.195344 261.859114 
L 213.868821 263.142161 
L 215.542299 263.561722 
L 217.215776 261.942446 
L 218.889253 264.250615 
L 220.56273 262.53834 
L 222.236207 261.208504 
L 223.909684 264.442318 
L 225.583161 264.055916 
L 227.256638 263.498691 
L 228.930115 264.362079 
L 230.603592 264.294118 
L 232.277069 263.78059 
L 233.950546 264.11769 
L 235.624023 264.279134 
L 237.2975 263.863826 
L 238.970977 264.407516 
L 240.644454 263.504492 
L 242.317931 263.87475 
L 243.991408 264.391178 
L 245.664885 262.467478 
L 247.338362 264.338588 
L 249.011839 264.281454 
L 250.685316 263.518606 
L 252.358793 263.919993 
L 254.03227 261.00027 
L 255.705747 264.526231 
L 257.379224 263.307375 
L 259.052701 264.402972 
L 260.726179 260.495055 
L 262.399656 264.354152 
L 264.073133 260.294942 
L 265.74661 262.910822 
L 267.420087 263.984861 
L 269.093564 264.094585 
L 270.767041 264.436421 
L 272.440518 264.390888 
L 274.113995 261.688389 
L 275.787472 262.44331 
L 277.460949 263.421836 
L 279.134426 263.752942 
L 280.807903 264.47567 
L 282.48138 263.071976 
L 284.154857 262.562315 
L 285.828334 262.19776 
L 287.501811 264.577564 
L 289.175288 264.130741 
L 290.848765 258.049321 
L 292.522242 242.415333 
L 294.195719 260.087481 
L 295.869196 258.665709 
L 297.542673 263.965429 
L 299.21615 264.51173 
L 300.889627 264.344002 
L 302.563104 264.46175 
L 304.236582 264.316643 
L 305.910059 263.864696 
L 307.583536 262.44099 
L 309.257013 264.246942 
L 310.93049 262.932766 
L 312.603967 264.514533 
L 314.277444 263.881614 
L 315.950921 263.851258 
L 317.624398 261.665478 
L 319.297875 264.309393 
L 320.971352 261.590846 
L 322.644829 261.722032 
L 324.318306 263.987858 
L 325.991783 264.532804 
L 327.66526 264.285031 
L 329.338737 263.112385 
L 331.012214 263.705475 
L 332.685691 261.824118 
L 334.359168 264.478474 
L 336.032645 261.130488 
L 337.706122 264.642722 
L 339.379599 262.132313 
L 341.053076 264.47045 
L 342.726553 262.058358 
L 344.40003 264.177144 
L 346.073507 261.036812 
L 347.746985 263.428603 
L 349.420462 263.394574 
L 351.093939 262.64526 
L 352.767416 260.787008 
L 354.440893 264.251292 
L 356.11437 264.288801 
L 357.787847 264.028654 
L 359.461324 264.66573 
L 361.134801 264.245105 
L 362.808278 264.091395 
L 364.481755 263.822836 
L 366.155232 264.669887 
L 367.828709 261.494656 
L 369.502186 262.638203 
L 371.175663 258.157691 
L 372.84914 264.182557 
L 374.522617 264.32196 
L 376.196094 249.934767 
L 377.869571 260.489835 
L 379.543048 263.129303 
L 381.216525 261.775685 
L 382.890002 263.164009 
L 384.563479 261.95221 
L 386.236956 260.969141 
L 387.910433 263.947352 
L 389.58391 262.458101 
L 391.257388 264.082694 
L 392.930865 256.684875 
L 394.604342 263.711856 
L 396.277819 252.575492 
L 397.951296 262.757595 
L 399.624773 259.897905 
L 399.624773 259.897905 
" style="fill:none;stroke:#2ca02c;stroke-linecap:square;stroke-width:1.5;"/>
   </g>
   <g id="line2d_19">
    <path clip-path="url(#p357b1823e9)" d="M 74.970227 263.226556 
L 76.643704 262.204527 
L 78.317181 264.140988 
L 79.990658 264.142535 
L 81.664135 263.32526 
L 83.337612 264.628221 
L 85.01109 264.520043 
L 86.684567 260.304706 
L 88.358044 261.7985 
L 90.031521 264.601346 
L 91.704998 263.586181 
L 93.378475 258.487153 
L 95.051952 263.811719 
L 96.725429 264.201505 
L 98.398906 263.613732 
L 100.072383 263.746948 
L 101.74586 263.224913 
L 103.419337 264.41757 
L 105.092814 262.362201 
L 106.766291 264.21765 
L 108.439768 263.484094 
L 110.113245 263.173579 
L 111.786722 263.962723 
L 113.460199 262.28757 
L 115.133676 263.110742 
L 116.807153 264.494522 
L 118.48063 264.011736 
L 120.154107 264.306492 
L 121.827584 259.898872 
L 123.501061 260.052969 
L 125.174538 263.530207 
L 126.848015 263.925213 
L 128.521493 264.644172 
L 130.19497 264.133061 
L 131.868447 264.090428 
L 133.541924 263.765896 
L 135.215401 262.864612 
L 136.888878 264.044991 
L 138.562355 263.265516 
L 140.235832 264.070126 
L 141.909309 261.665188 
L 143.582786 264.100675 
L 145.256263 259.22767 
L 146.92974 263.87794 
L 148.603217 263.919026 
L 151.950171 262.505471 
L 153.623648 264.645525 
L 155.297125 261.364921 
L 156.970602 264.051952 
L 158.644079 264.626674 
L 160.317556 261.983532 
L 161.991033 263.329127 
L 163.66451 260.735192 
L 165.337987 263.555632 
L 167.011464 264.327954 
L 168.684941 263.988148 
L 170.358418 261.164421 
L 172.031896 264.224417 
L 173.705373 264.478184 
L 175.37885 264.614106 
L 177.052327 263.549541 
L 178.725804 262.805158 
L 180.399281 263.314626 
L 182.072758 264.519947 
L 183.746235 263.936911 
L 185.419712 263.994915 
L 187.093189 263.497435 
L 188.766666 264.075637 
L 190.440143 264.51811 
L 192.11362 264.62213 
L 195.460574 263.96862 
L 197.134051 264.289575 
L 198.807528 264.199669 
L 200.481005 263.480227 
L 202.154482 263.150088 
L 203.827959 264.289961 
L 205.501436 264.561226 
L 207.174913 264.435068 
L 208.84839 264.096712 
L 210.521867 264.187681 
L 212.195344 263.196104 
L 215.542299 264.519367 
L 217.215776 264.488238 
L 218.889253 264.041028 
L 220.56273 264.045958 
L 222.236207 263.145641 
L 223.909684 264.614396 
L 225.583161 262.942724 
L 227.256638 264.175017 
L 230.603592 264.280294 
L 232.277069 262.97801 
L 233.950546 263.789291 
L 235.624023 264.233504 
L 237.2975 263.562302 
L 238.970977 263.08609 
L 240.644454 264.456626 
L 242.317931 264.355312 
L 243.991408 264.122137 
L 245.664885 262.313865 
L 247.338362 264.147272 
L 249.011839 264.494328 
L 250.685316 263.402791 
L 252.358793 263.446488 
L 254.03227 260.710153 
L 255.705747 264.46523 
L 257.379224 261.65494 
L 259.052701 264.424627 
L 260.726179 261.152336 
L 262.399656 264.32573 
L 264.073133 259.244491 
L 265.74661 264.130354 
L 267.420087 260.994662 
L 269.093564 264.21678 
L 270.767041 264.165446 
L 272.440518 264.357052 
L 274.113995 263.819936 
L 275.787472 262.459938 
L 277.460949 263.298964 
L 279.134426 263.396218 
L 280.807903 264.452952 
L 282.48138 261.522111 
L 284.154857 260.688209 
L 285.828334 263.814233 
L 287.501811 263.798765 
L 289.175288 262.630759 
L 290.848765 262.942724 
L 292.522242 263.629297 
L 294.195719 263.045681 
L 295.869196 262.200274 
L 297.542673 263.636934 
L 299.21615 264.483694 
L 300.889627 264.433618 
L 304.236582 263.835887 
L 305.910059 264.482438 
L 307.583536 262.356594 
L 309.257013 264.52304 
L 310.93049 264.302239 
L 312.603967 264.363626 
L 314.277444 264.261249 
L 315.950921 264.425014 
L 317.624398 261.137835 
L 319.297875 263.92995 
L 320.971352 263.453255 
L 324.318306 264.358116 
L 325.991783 264.553976 
L 327.66526 264.331724 
L 329.338737 263.464662 
L 331.012214 263.880357 
L 332.685691 262.566858 
L 334.359168 264.246458 
L 336.032645 263.258168 
L 337.706122 264.323507 
L 339.379599 262.441377 
L 341.053076 263.721136 
L 342.726553 262.407734 
L 344.40003 264.438258 
L 346.073507 263.308052 
L 347.746985 261.944283 
L 349.420462 263.703348 
L 354.440893 264.035227 
L 356.11437 264.450632 
L 357.787847 263.78349 
L 359.461324 264.246652 
L 361.134801 264.541795 
L 362.808278 264.244815 
L 364.481755 263.683724 
L 366.155232 263.695421 
L 367.828709 261.092206 
L 369.502186 263.651048 
L 371.175663 259.805292 
L 372.84914 262.673489 
L 374.522617 263.260972 
L 376.196094 260.507623 
L 377.869571 262.013598 
L 379.543048 252.071148 
L 381.216525 263.979447 
L 382.890002 260.980065 
L 384.563479 259.988778 
L 386.236956 263.528757 
L 387.910433 262.803321 
L 389.58391 264.186908 
L 391.257388 263.92908 
L 392.930865 261.39924 
L 394.604342 257.769742 
L 396.277819 255.824581 
L 397.951296 262.92861 
L 399.624773 261.746103 
L 399.624773 261.746103 
" style="fill:none;stroke:#d62728;stroke-linecap:square;stroke-width:1.5;"/>
   </g>
   <g id="line2d_20">
    <path clip-path="url(#p357b1823e9)" d="M 74.970227 263.694744 
L 76.643704 262.19631 
L 78.317181 263.768023 
L 79.990658 263.935267 
L 81.664135 262.703458 
L 83.337612 264.378031 
L 85.01109 264.451405 
L 86.684567 262.815405 
L 88.358044 262.605431 
L 90.031521 264.487465 
L 91.704998 263.485544 
L 93.378475 263.894375 
L 95.051952 262.371482 
L 96.725429 263.984087 
L 98.398906 263.124663 
L 100.072383 263.867306 
L 101.74586 261.641503 
L 103.419337 264.454499 
L 105.092814 264.030877 
L 108.439768 264.280971 
L 110.113245 263.480517 
L 111.786722 263.803212 
L 113.460199 263.635484 
L 115.133676 264.225287 
L 116.807153 264.630831 
L 118.48063 264.081534 
L 120.154107 264.464456 
L 121.827584 263.653852 
L 123.501061 261.829049 
L 125.174538 262.922422 
L 126.848015 264.46726 
L 128.521493 264.548949 
L 130.19497 264.371263 
L 131.868447 264.058139 
L 133.541924 264.205662 
L 135.215401 263.499078 
L 136.888878 264.333078 
L 138.562355 263.861119 
L 140.235832 263.574676 
L 141.909309 263.463792 
L 143.582786 262.644004 
L 145.256263 262.921649 
L 146.92974 264.167186 
L 148.603217 263.336184 
L 150.276694 262.924646 
L 151.950171 263.884514 
L 153.623648 264.479344 
L 155.297125 263.798378 
L 156.970602 263.87736 
L 158.644079 264.548079 
L 160.317556 264.126487 
L 163.66451 263.065982 
L 165.337987 263.423286 
L 167.011464 264.304752 
L 168.684941 264.141955 
L 170.358418 263.106585 
L 172.031896 264.024497 
L 173.705373 264.428784 
L 175.37885 264.390018 
L 177.052327 262.401257 
L 178.725804 264.056496 
L 182.072758 264.440771 
L 183.746235 264.209046 
L 185.419712 264.565287 
L 187.093189 264.250905 
L 192.11362 264.519947 
L 195.460574 263.892151 
L 197.134051 264.112759 
L 198.807528 264.624837 
L 203.827959 264.046442 
L 205.501436 264.542568 
L 207.174913 264.396398 
L 208.84839 264.033391 
L 210.521867 264.293248 
L 212.195344 262.704231 
L 213.868821 263.356098 
L 215.542299 264.485531 
L 218.889253 264.167766 
L 220.56273 264.414863 
L 222.236207 263.661006 
L 223.909684 264.418633 
L 225.583161 260.760617 
L 227.256638 263.670673 
L 228.930115 264.290638 
L 230.603592 263.891378 
L 233.950546 263.38539 
L 235.624023 264.160903 
L 237.2975 264.378901 
L 238.970977 263.439527 
L 240.644454 264.51666 
L 242.317931 264.385378 
L 243.991408 263.283883 
L 249.011839 264.652969 
L 250.685316 262.678323 
L 252.358793 263.944355 
L 254.03227 263.355228 
L 255.705747 264.298662 
L 257.379224 263.906555 
L 259.052701 264.536478 
L 260.726179 263.52808 
L 262.399656 264.445025 
L 264.073133 260.893542 
L 265.74661 264.41612 
L 267.420087 263.075843 
L 269.093564 264.308233 
L 270.767041 263.484577 
L 272.440518 264.501579 
L 274.113995 264.192515 
L 275.787472 263.340534 
L 277.460949 264.355409 
L 279.134426 264.256126 
L 280.807903 264.552332 
L 282.48138 264.444832 
L 284.154857 260.999786 
L 285.828334 263.664002 
L 287.501811 262.469799 
L 289.175288 263.366249 
L 290.848765 263.220659 
L 292.522242 263.671156 
L 294.195719 263.346431 
L 295.869196 263.960306 
L 297.542673 262.421655 
L 299.21615 264.26763 
L 302.563104 264.438161 
L 304.236582 262.951908 
L 305.910059 264.262216 
L 307.583536 260.521157 
L 309.257013 264.417473 
L 310.93049 264.365753 
L 312.603967 263.348945 
L 314.277444 264.384121 
L 315.950921 264.363046 
L 317.624398 263.782427 
L 319.297875 264.135091 
L 320.971352 263.675023 
L 322.644829 263.786777 
L 324.318306 264.146402 
L 325.991783 264.32312 
L 327.66526 264.22055 
L 329.338737 263.378043 
L 331.012214 264.078537 
L 332.685691 263.605612 
L 334.359168 263.614989 
L 336.032645 262.54675 
L 337.706122 264.551076 
L 339.379599 261.731409 
L 341.053076 263.594398 
L 342.726553 262.679869 
L 344.40003 263.985634 
L 346.073507 263.761739 
L 347.746985 263.729547 
L 349.420462 264.216586 
L 351.093939 263.927244 
L 352.767416 263.359579 
L 354.440893 263.395348 
L 356.11437 264.448989 
L 357.787847 264.17753 
L 359.461324 264.625804 
L 361.134801 264.281164 
L 364.481755 264.501869 
L 366.155232 264.176564 
L 367.828709 262.950168 
L 369.502186 264.47364 
L 371.175663 262.575269 
L 372.84914 264.283484 
L 374.522617 264.52101 
L 376.196094 256.674338 
L 377.869571 260.41559 
L 379.543048 262.672232 
L 381.216525 262.763298 
L 382.890002 264.248488 
L 384.563479 262.883656 
L 386.236956 263.272379 
L 387.910433 261.675242 
L 389.58391 263.659265 
L 391.257388 264.274204 
L 392.930865 262.074309 
L 394.604342 260.178838 
L 396.277819 257.54314 
L 397.951296 262.599147 
L 399.624773 259.977757 
L 399.624773 259.977757 
" style="fill:none;stroke:#9467bd;stroke-linecap:square;stroke-width:1.5;"/>
   </g>
   <g id="line2d_21">
    <path clip-path="url(#p357b1823e9)" d="M 74.970227 264.089751 
L 76.643704 262.34248 
L 78.317181 264.155876 
L 79.990658 264.277394 
L 81.664135 262.98671 
L 83.337612 264.37426 
L 85.01109 264.280101 
L 86.684567 264.006516 
L 88.358044 262.867512 
L 90.031521 264.17028 
L 91.704998 263.000438 
L 93.378475 262.478596 
L 95.051952 261.358637 
L 96.725429 263.47317 
L 98.398906 262.712062 
L 100.072383 260.785945 
L 101.74586 261.985659 
L 103.419337 264.259993 
L 105.092814 263.163815 
L 106.766291 264.388858 
L 108.439768 264.142148 
L 110.113245 262.09693 
L 111.786722 263.890604 
L 113.460199 263.783684 
L 115.133676 263.253238 
L 116.807153 264.621067 
L 121.827584 264.086851 
L 125.174538 262.242907 
L 126.848015 264.095165 
L 128.521493 264.634311 
L 130.19497 264.220647 
L 131.868447 264.511923 
L 133.541924 264.543342 
L 135.215401 263.802148 
L 136.888878 264.046152 
L 138.562355 263.825157 
L 140.235832 263.220659 
L 141.909309 263.700738 
L 143.582786 264.335978 
L 145.256263 263.864213 
L 146.92974 264.448892 
L 148.603217 264.198702 
L 150.276694 263.330963 
L 151.950171 264.189324 
L 153.623648 264.496069 
L 155.297125 263.314239 
L 156.970602 264.111599 
L 158.644079 264.630154 
L 160.317556 263.237674 
L 161.991033 263.666806 
L 163.66451 263.362479 
L 165.337987 263.540937 
L 167.011464 264.451696 
L 168.684941 263.638094 
L 170.358418 263.92212 
L 172.031896 264.410706 
L 173.705373 264.023723 
L 175.37885 264.564126 
L 178.725804 263.828153 
L 180.399281 263.693584 
L 182.072758 264.523814 
L 183.746235 263.92879 
L 185.419712 264.510956 
L 187.093189 263.984184 
L 188.766666 263.852612 
L 190.440143 264.447442 
L 192.11362 264.545855 
L 195.460574 263.370793 
L 197.134051 263.247824 
L 198.807528 263.969393 
L 202.154482 263.780204 
L 203.827959 263.721523 
L 205.501436 264.510956 
L 208.84839 264.354636 
L 210.521867 264.569637 
L 212.195344 263.283303 
L 213.868821 263.4229 
L 215.542299 264.354926 
L 217.215776 264.429557 
L 220.56273 263.911679 
L 222.236207 262.513978 
L 223.909684 264.6143 
L 225.583161 262.062708 
L 227.256638 263.520056 
L 228.930115 263.756132 
L 230.603592 262.860842 
L 232.277069 263.817713 
L 233.950546 263.846231 
L 235.624023 264.047988 
L 237.2975 263.831247 
L 238.970977 264.059976 
L 240.644454 264.408579 
L 242.317931 264.478377 
L 243.991408 263.559305 
L 245.664885 263.135007 
L 247.338362 264.194545 
L 249.011839 264.600669 
L 250.685316 263.424446 
L 252.358793 264.207692 
L 254.03227 263.085607 
L 255.705747 264.518593 
L 257.379224 263.837144 
L 259.052701 264.42511 
L 260.726179 263.265806 
L 262.399656 264.494715 
L 264.073133 262.850498 
L 265.74661 264.347869 
L 267.420087 262.255377 
L 269.093564 264.342455 
L 270.767041 263.999458 
L 272.440518 264.442318 
L 274.113995 264.439321 
L 275.787472 263.816843 
L 277.460949 263.47636 
L 279.134426 263.58154 
L 280.807903 264.452566 
L 284.154857 263.48216 
L 285.828334 263.793931 
L 287.501811 263.576997 
L 289.175288 264.145435 
L 290.848765 263.492021 
L 292.522242 263.582604 
L 294.195719 264.137991 
L 295.869196 262.714092 
L 299.21615 264.608499 
L 302.563104 264.583848 
L 304.236582 263.08493 
L 305.910059 264.51782 
L 307.583536 263.526243 
L 309.257013 264.635085 
L 310.93049 263.693391 
L 312.603967 264.361983 
L 314.277444 264.254579 
L 315.950921 264.574954 
L 317.624398 263.668836 
L 319.297875 264.598445 
L 320.971352 264.454499 
L 322.644829 263.419129 
L 324.318306 264.417183 
L 325.991783 264.390501 
L 327.66526 264.550592 
L 329.338737 263.58009 
L 331.012214 264.093328 
L 332.685691 264.114209 
L 334.359168 263.951702 
L 336.032645 263.356582 
L 337.706122 264.528744 
L 339.379599 263.587341 
L 341.053076 264.351252 
L 342.726553 263.055541 
L 344.40003 264.271207 
L 346.073507 263.903269 
L 347.746985 264.258349 
L 349.420462 263.944065 
L 351.093939 264.198122 
L 352.767416 263.699965 
L 354.440893 263.864213 
L 356.11437 264.527004 
L 357.787847 264.205952 
L 359.461324 264.449955 
L 361.134801 264.17376 
L 364.481755 264.524587 
L 366.155232 264.192128 
L 367.828709 263.574386 
L 369.502186 263.803502 
L 371.175663 263.740471 
L 372.84914 263.356002 
L 374.522617 264.341005 
L 376.196094 259.956586 
L 377.869571 259.602665 
L 379.543048 261.836976 
L 381.216525 263.1323 
L 382.890002 262.816179 
L 384.563479 263.595171 
L 386.236956 263.903462 
L 387.910433 262.930156 
L 389.58391 264.275944 
L 391.257388 264.291121 
L 392.930865 259.446441 
L 396.277819 262.646807 
L 397.951296 261.653104 
L 399.624773 263.666226 
L 399.624773 263.666226 
" style="fill:none;stroke:#8c564b;stroke-linecap:square;stroke-width:1.5;"/>
   </g>
   <g id="line2d_22">
    <path clip-path="url(#p357b1823e9)" d="M 74.970227 263.933237 
L 76.643704 263.782234 
L 78.317181 264.277007 
L 79.990658 264.388665 
L 81.664135 264.005162 
L 83.337612 264.361306 
L 85.01109 264.331917 
L 86.684567 263.120892 
L 88.358044 263.353101 
L 90.031521 264.094005 
L 91.704998 262.195343 
L 93.378475 263.754199 
L 95.051952 262.681416 
L 96.725429 264.185844 
L 98.398906 262.944367 
L 100.072383 263.489991 
L 101.74586 263.905105 
L 103.419337 264.519173 
L 105.092814 262.98091 
L 106.766291 264.494425 
L 108.439768 264.209143 
L 110.113245 264.079117 
L 111.786722 263.234483 
L 113.460199 264.061813 
L 115.133676 263.328546 
L 116.807153 264.647845 
L 120.154107 264.351155 
L 121.827584 263.857445 
L 123.501061 263.904332 
L 125.174538 264.26821 
L 128.521493 264.636148 
L 131.868447 264.434294 
L 133.541924 264.590228 
L 135.215401 264.193675 
L 136.888878 264.558616 
L 138.562355 264.130354 
L 140.235832 264.184588 
L 141.909309 264.12088 
L 143.582786 264.289091 
L 145.256263 264.016183 
L 146.92974 264.502449 
L 148.603217 264.206242 
L 151.950171 264.000522 
L 153.623648 264.450149 
L 155.297125 263.873203 
L 156.970602 263.949768 
L 158.644079 264.658576 
L 160.317556 264.096615 
L 163.66451 264.186424 
L 165.337987 263.995495 
L 167.011464 264.546242 
L 168.684941 263.418646 
L 172.031896 264.489978 
L 173.705373 264.248392 
L 175.37885 264.608789 
L 178.725804 264.283388 
L 180.399281 264.27256 
L 182.072758 264.610143 
L 183.746235 264.094295 
L 185.419712 264.489978 
L 187.093189 264.379964 
L 188.766666 264.045668 
L 190.440143 264.527584 
L 192.11362 264.576017 
L 195.460574 264.170667 
L 197.134051 264.292088 
L 198.807528 264.581818 
L 203.827959 264.045668 
L 205.501436 264.552429 
L 208.84839 264.209336 
L 210.521867 264.618263 
L 212.195344 263.989694 
L 213.868821 263.835307 
L 215.542299 264.514533 
L 217.215776 264.588875 
L 220.56273 264.309199 
L 222.236207 263.708085 
L 223.909684 264.606566 
L 225.583161 263.932947 
L 227.256638 263.754972 
L 228.930115 264.432941 
L 230.603592 263.361899 
L 232.277069 263.507875 
L 233.950546 264.16709 
L 235.624023 264.304269 
L 238.970977 264.121847 
L 240.644454 264.477507 
L 242.317931 264.56403 
L 243.991408 264.500999 
L 245.664885 264.264923 
L 249.011839 264.633151 
L 250.685316 263.522763 
L 252.358793 264.289671 
L 254.03227 264.066453 
L 255.705747 264.495005 
L 257.379224 264.122233 
L 259.052701 264.547499 
L 260.726179 263.731964 
L 262.399656 264.590905 
L 264.073133 264.158969 
L 265.74661 264.542085 
L 267.420087 263.517349 
L 269.093564 264.440191 
L 270.767041 264.279231 
L 272.440518 264.602989 
L 274.113995 264.525651 
L 275.787472 264.210689 
L 279.134426 264.488238 
L 280.807903 264.5213 
L 282.48138 264.31645 
L 284.154857 264.347869 
L 285.828334 264.168153 
L 289.175288 264.442125 
L 292.522242 264.347192 
L 294.195719 263.940391 
L 295.869196 264.120783 
L 297.542673 264.469193 
L 299.21615 264.590132 
L 300.889627 264.448119 
L 302.563104 264.438935 
L 304.236582 264.303786 
L 305.910059 264.581721 
L 307.583536 263.890798 
L 309.257013 264.673464 
L 310.93049 264.327374 
L 312.603967 264.520623 
L 315.950921 264.638565 
L 317.624398 264.338395 
L 319.297875 264.569347 
L 322.644829 264.539958 
L 325.991783 264.569637 
L 327.66526 264.590615 
L 329.338737 264.206339 
L 331.012214 264.278167 
L 332.685691 264.468323 
L 334.359168 264.012703 
L 336.032645 264.162643 
L 337.706122 264.589455 
L 339.379599 264.352606 
L 341.053076 264.482728 
L 342.726553 263.91893 
L 344.40003 264.411286 
L 346.073507 264.333851 
L 347.746985 264.510376 
L 349.420462 264.302819 
L 351.093939 264.305912 
L 352.767416 264.150945 
L 354.440893 263.687397 
L 356.11437 264.607726 
L 357.787847 264.315676 
L 359.461324 264.549529 
L 361.134801 264.353862 
L 362.808278 264.597092 
L 364.481755 264.541505 
L 366.155232 264.360243 
L 367.828709 263.68034 
L 369.502186 263.482934 
L 371.175663 263.966106 
L 374.522617 264.47219 
L 376.196094 263.654432 
L 377.869571 260.776181 
L 379.543048 260.245252 
L 381.216525 263.301285 
L 382.890002 263.955665 
L 386.236956 264.426851 
L 387.910433 263.22733 
L 389.58391 264.340521 
L 391.257388 264.443962 
L 392.930865 261.408327 
L 394.604342 262.129509 
L 397.951296 262.607655 
L 399.624773 261.686649 
L 399.624773 261.686649 
" style="fill:none;stroke:#e377c2;stroke-linecap:square;stroke-width:1.5;"/>
   </g>
   <g id="line2d_23">
    <path clip-path="url(#p357b1823e9)" d="M 74.970227 264.413316 
L 76.643704 263.988341 
L 78.317181 264.518207 
L 79.990658 264.599219 
L 81.664135 264.195318 
L 85.01109 264.559486 
L 86.684567 263.625623 
L 88.358044 263.82506 
L 90.031521 264.422114 
L 91.704998 263.98022 
L 93.378475 264.192418 
L 95.051952 263.041427 
L 96.725429 264.091491 
L 98.398906 263.855609 
L 100.072383 264.404809 
L 101.74586 264.073027 
L 103.419337 264.56722 
L 105.092814 264.295762 
L 106.766291 264.602022 
L 110.113245 264.32776 
L 113.460199 264.505542 
L 115.133676 264.03078 
L 116.807153 264.65935 
L 120.154107 264.585105 
L 121.827584 264.149108 
L 123.501061 264.641465 
L 125.174538 264.388761 
L 126.848015 264.620197 
L 131.868447 264.565093 
L 133.541924 264.665537 
L 138.562355 264.32776 
L 140.235832 264.131804 
L 141.909309 264.457593 
L 143.582786 264.620874 
L 145.256263 264.085207 
L 146.92974 264.61633 
L 148.603217 264.26502 
L 150.276694 264.547305 
L 151.950171 264.496165 
L 153.623648 264.623484 
L 156.970602 264.213299 
L 158.644079 264.67298 
L 161.991033 264.296632 
L 165.337987 264.360339 
L 167.011464 264.641948 
L 168.684941 264.289478 
L 172.031896 264.51811 
L 173.705373 264.285418 
L 175.37885 264.584621 
L 177.052327 264.260379 
L 178.725804 264.383541 
L 180.399281 264.093715 
L 182.072758 264.633054 
L 183.746235 264.488141 
L 185.419712 264.62213 
L 188.766666 264.554169 
L 192.11362 264.662056 
L 193.787097 264.313936 
L 195.460574 264.447055 
L 197.134051 264.284451 
L 198.807528 264.605696 
L 200.481005 264.068 
L 202.154482 264.497712 
L 203.827959 264.439515 
L 205.501436 264.584428 
L 207.174913 264.543342 
L 210.521867 264.617683 
L 212.195344 264.363143 
L 215.542299 264.571184 
L 218.889253 264.526134 
L 220.56273 264.484758 
L 222.236207 261.343556 
L 223.909684 264.647459 
L 225.583161 264.321283 
L 228.930115 263.87098 
L 230.603592 264.352509 
L 233.950546 264.336461 
L 235.624023 264.56577 
L 237.2975 264.318093 
L 238.970977 264.300789 
L 240.644454 264.588778 
L 242.317931 264.546242 
L 243.991408 264.280487 
L 245.664885 264.547499 
L 247.338362 264.409546 
L 249.011839 264.659833 
L 250.685316 264.239498 
L 252.358793 264.470063 
L 254.03227 264.458269 
L 255.705747 264.644945 
L 257.379224 264.339941 
L 259.052701 264.647555 
L 260.726179 264.379094 
L 262.399656 264.62271 
L 264.073133 264.32602 
L 265.74661 264.622324 
L 267.420087 264.411383 
L 269.093564 264.603472 
L 270.767041 264.476347 
L 272.440518 264.582784 
L 279.134426 264.532998 
L 280.807903 264.643785 
L 284.154857 264.501869 
L 285.828334 264.516853 
L 287.501811 264.334818 
L 290.848765 264.545082 
L 292.522242 264.562773 
L 295.869196 264.419407 
L 297.542673 264.563643 
L 305.910059 264.627447 
L 307.583536 264.464263 
L 309.257013 264.676944 
L 312.603967 264.541215 
L 314.277444 264.657126 
L 315.950921 264.650262 
L 317.624398 264.376 
L 319.297875 264.640112 
L 320.971352 264.423274 
L 322.644829 264.601829 
L 327.66526 264.640982 
L 329.338737 264.316256 
L 331.012214 264.246555 
L 332.685691 264.401522 
L 334.359168 264.319543 
L 337.706122 264.599025 
L 339.379599 264.404712 
L 341.053076 264.650746 
L 342.726553 264.381027 
L 346.073507 264.525457 
L 347.746985 264.374937 
L 364.481755 264.660026 
L 366.155232 264.424917 
L 367.828709 263.847778 
L 369.502186 264.293345 
L 371.175663 264.349222 
L 372.84914 264.562386 
L 374.522617 264.52217 
L 376.196094 263.604935 
L 377.869571 264.105412 
L 379.543048 264.080857 
L 381.216525 264.210399 
L 382.890002 264.493168 
L 384.563479 264.424047 
L 386.236956 264.52333 
L 387.910433 263.447358 
L 389.58391 264.594772 
L 391.257388 264.669887 
L 394.604342 263.63036 
L 396.277819 263.396121 
L 397.951296 263.884707 
L 399.624773 264.216393 
L 399.624773 264.216393 
" style="fill:none;stroke:#7f7f7f;stroke-linecap:square;stroke-width:1.5;"/>
   </g>
   <g id="line2d_24">
    <path clip-path="url(#p357b1823e9)" d="M 74.970227 264.689222 
L 121.827584 264.687288 
L 399.624773 264.684001 
L 399.624773 264.684001 
" style="fill:none;stroke:#bcbd22;stroke-linecap:square;stroke-width:1.5;"/>
   </g>
   <g id="line2d_25">
    <path clip-path="url(#p357b1823e9)" d="M 74.970227 264.689222 
L 115.133676 264.684388 
L 275.787472 264.686321 
L 399.624773 264.684098 
L 399.624773 264.684098 
" style="fill:none;stroke:#17becf;stroke-linecap:square;stroke-width:1.5;"/>
   </g>
   <g id="line2d_26">
    <path clip-path="url(#p357b1823e9)" d="M 74.970227 264.681391 
L 111.786722 264.682841 
L 133.541924 264.686708 
L 141.909309 264.67269 
L 151.950171 264.697245 
L 160.317556 264.686128 
L 399.624773 264.710393 
L 399.624773 264.710393 
" style="fill:none;stroke:#1f77b4;stroke-linecap:square;stroke-width:1.5;"/>
   </g>
   <g id="line2d_27">
    <path clip-path="url(#p357b1823e9)" d="M 74.970227 264.689222 
L 399.624773 264.689222 
L 399.624773 264.689222 
" style="fill:none;stroke:#ff7f0e;stroke-linecap:square;stroke-width:1.5;"/>
   </g>
   <g id="patch_3">
    <path d="M 58.7375 276.812 
L 58.7375 10.7 
" style="fill:none;stroke:#000000;stroke-linecap:square;stroke-linejoin:miter;stroke-width:0.8;"/>
   </g>
   <g id="patch_4">
    <path d="M 415.8575 276.812 
L 415.8575 10.7 
" style="fill:none;stroke:#000000;stroke-linecap:square;stroke-linejoin:miter;stroke-width:0.8;"/>
   </g>
   <g id="patch_5">
    <path d="M 58.7375 276.812 
L 415.8575 276.812 
" style="fill:none;stroke:#000000;stroke-linecap:square;stroke-linejoin:miter;stroke-width:0.8;"/>
   </g>
   <g id="patch_6">
    <path d="M 58.7375 10.7 
L 415.8575 10.7 
" style="fill:none;stroke:#000000;stroke-linecap:square;stroke-linejoin:miter;stroke-width:0.8;"/>
   </g>
   <g id="legend_1">
    <g id="patch_7">
     <path d="M 65.7375 165.48125 
L 156.090625 165.48125 
Q 158.090625 165.48125 158.090625 163.48125 
L 158.090625 17.7 
Q 158.090625 15.7 156.090625 15.7 
L 65.7375 15.7 
Q 63.7375 15.7 63.7375 17.7 
L 63.7375 163.48125 
Q 63.7375 165.48125 65.7375 165.48125 
z
" style="fill:#ffffff;opacity:0.8;stroke:#cccccc;stroke-linejoin:miter;"/>
    </g>
    <g id="line2d_28">
     <path d="M 67.7375 23.798437 
L 87.7375 23.798437 
" style="fill:none;stroke:#1f77b4;stroke-linecap:square;stroke-width:1.5;"/>
    </g>
    <g id="line2d_29"/>
    <g id="text_16">
     <!-- delta -->
     <defs>
      <path d="M 45.40625 46.390625 
L 45.40625 75.984375 
L 54.390625 75.984375 
L 54.390625 0 
L 45.40625 0 
L 45.40625 8.203125 
Q 42.578125 3.328125 38.25 0.953125 
Q 33.9375 -1.421875 27.875 -1.421875 
Q 17.96875 -1.421875 11.734375 6.484375 
Q 5.515625 14.40625 5.515625 27.296875 
Q 5.515625 40.1875 11.734375 48.09375 
Q 17.96875 56 27.875 56 
Q 33.9375 56 38.25 53.625 
Q 42.578125 51.265625 45.40625 46.390625 
M 14.796875 27.296875 
Q 14.796875 17.390625 18.875 11.75 
Q 22.953125 6.109375 30.078125 6.109375 
Q 37.203125 6.109375 41.296875 11.75 
Q 45.40625 17.390625 45.40625 27.296875 
Q 45.40625 37.203125 41.296875 42.84375 
Q 37.203125 48.484375 30.078125 48.484375 
Q 22.953125 48.484375 18.875 42.84375 
Q 14.796875 37.203125 14.796875 27.296875 
" id="DejaVuSans-64"/>
      <path d="M 56.203125 29.59375 
L 56.203125 25.203125 
L 14.890625 25.203125 
Q 15.484375 15.921875 20.484375 11.0625 
Q 25.484375 6.203125 34.421875 6.203125 
Q 39.59375 6.203125 44.453125 7.46875 
Q 49.3125 8.734375 54.109375 11.28125 
L 54.109375 2.78125 
Q 49.265625 0.734375 44.1875 -0.34375 
Q 39.109375 -1.421875 33.890625 -1.421875 
Q 20.796875 -1.421875 13.15625 6.1875 
Q 5.515625 13.8125 5.515625 26.8125 
Q 5.515625 40.234375 12.765625 48.109375 
Q 20.015625 56 32.328125 56 
Q 43.359375 56 49.78125 48.890625 
Q 56.203125 41.796875 56.203125 29.59375 
M 47.21875 32.234375 
Q 47.125 39.59375 43.09375 43.984375 
Q 39.0625 48.390625 32.421875 48.390625 
Q 24.90625 48.390625 20.390625 44.140625 
Q 15.875 39.890625 15.1875 32.171875 
z
" id="DejaVuSans-65"/>
      <path d="M 9.421875 75.984375 
L 18.40625 75.984375 
L 18.40625 0 
L 9.421875 0 
z
" id="DejaVuSans-6c"/>
      <path d="M 18.3125 70.21875 
L 18.3125 54.6875 
L 36.8125 54.6875 
L 36.8125 47.703125 
L 18.3125 47.703125 
L 18.3125 18.015625 
Q 18.3125 11.328125 20.140625 9.421875 
Q 21.96875 7.515625 27.59375 7.515625 
L 36.8125 7.515625 
L 36.8125 0 
L 27.59375 0 
Q 17.1875 0 13.234375 3.875 
Q 9.28125 7.765625 9.28125 18.015625 
L 9.28125 47.703125 
L 2.6875 47.703125 
L 2.6875 54.6875 
L 9.28125 54.6875 
L 9.28125 70.21875 
z
" id="DejaVuSans-74"/>
      <path d="M 34.28125 27.484375 
Q 23.390625 27.484375 19.1875 25 
Q 14.984375 22.515625 14.984375 16.5 
Q 14.984375 11.71875 18.140625 8.90625 
Q 21.296875 6.109375 26.703125 6.109375 
Q 34.1875 6.109375 38.703125 11.40625 
Q 43.21875 16.703125 43.21875 25.484375 
L 43.21875 27.484375 
z
M 52.203125 31.203125 
L 52.203125 0 
L 43.21875 0 
L 43.21875 8.296875 
Q 40.140625 3.328125 35.546875 0.953125 
Q 30.953125 -1.421875 24.3125 -1.421875 
Q 15.921875 -1.421875 10.953125 3.296875 
Q 6 8.015625 6 15.921875 
Q 6 25.140625 12.171875 29.828125 
Q 18.359375 34.515625 30.609375 34.515625 
L 43.21875 34.515625 
L 43.21875 35.40625 
Q 43.21875 41.609375 39.140625 45 
Q 35.0625 48.390625 27.6875 48.390625 
Q 23 48.390625 18.546875 47.265625 
Q 14.109375 46.140625 10.015625 43.890625 
L 10.015625 52.203125 
Q 14.9375 54.109375 19.578125 55.046875 
Q 24.21875 56 28.609375 56 
Q 40.484375 56 46.34375 49.84375 
Q 52.203125 43.703125 52.203125 31.203125 
" id="DejaVuSans-61"/>
     </defs>
     <g transform="translate(95.7375 27.298437)scale(0.1 -0.1)">
      <use xlink:href="#DejaVuSans-64"/>
      <use x="63.476562" xlink:href="#DejaVuSans-65"/>
      <use x="125" xlink:href="#DejaVuSans-6c"/>
      <use x="152.783203" xlink:href="#DejaVuSans-74"/>
      <use x="191.992188" xlink:href="#DejaVuSans-61"/>
     </g>
    </g>
    <g id="line2d_30">
     <path d="M 67.7375 38.476562 
L 87.7375 38.476562 
" style="fill:none;stroke:#ff7f0e;stroke-linecap:square;stroke-width:1.5;"/>
    </g>
    <g id="line2d_31"/>
    <g id="text_17">
     <!-- lowAlpha -->
     <defs>
      <path d="M 30.609375 48.390625 
Q 23.390625 48.390625 19.1875 42.75 
Q 14.984375 37.109375 14.984375 27.296875 
Q 14.984375 17.484375 19.15625 11.84375 
Q 23.34375 6.203125 30.609375 6.203125 
Q 37.796875 6.203125 41.984375 11.859375 
Q 46.1875 17.53125 46.1875 27.296875 
Q 46.1875 37.015625 41.984375 42.703125 
Q 37.796875 48.390625 30.609375 48.390625 
M 30.609375 56 
Q 42.328125 56 49.015625 48.375 
Q 55.71875 40.765625 55.71875 27.296875 
Q 55.71875 13.875 49.015625 6.21875 
Q 42.328125 -1.421875 30.609375 -1.421875 
Q 18.84375 -1.421875 12.171875 6.21875 
Q 5.515625 13.875 5.515625 27.296875 
Q 5.515625 40.765625 12.171875 48.375 
Q 18.84375 56 30.609375 56 
" id="DejaVuSans-6f"/>
      <path d="M 4.203125 54.6875 
L 13.1875 54.6875 
L 24.421875 12.015625 
L 35.59375 54.6875 
L 46.1875 54.6875 
L 57.421875 12.015625 
L 68.609375 54.6875 
L 77.59375 54.6875 
L 63.28125 0 
L 52.6875 0 
L 40.921875 44.828125 
L 29.109375 0 
L 18.5 0 
z
" id="DejaVuSans-77"/>
      <path d="M 34.1875 63.1875 
L 20.796875 26.90625 
L 47.609375 26.90625 
z
M 28.609375 72.90625 
L 39.796875 72.90625 
L 67.578125 0 
L 57.328125 0 
L 50.6875 18.703125 
L 17.828125 18.703125 
L 11.1875 0 
L 0.78125 0 
z
" id="DejaVuSans-41"/>
      <path d="M 18.109375 8.203125 
L 18.109375 -20.796875 
L 9.078125 -20.796875 
L 9.078125 54.6875 
L 18.109375 54.6875 
L 18.109375 46.390625 
Q 20.953125 51.265625 25.265625 53.625 
Q 29.59375 56 35.59375 56 
Q 45.5625 56 51.78125 48.09375 
Q 58.015625 40.1875 58.015625 27.296875 
Q 58.015625 14.40625 51.78125 6.484375 
Q 45.5625 -1.421875 35.59375 -1.421875 
Q 29.59375 -1.421875 25.265625 0.953125 
Q 20.953125 3.328125 18.109375 8.203125 
M 48.6875 27.296875 
Q 48.6875 37.203125 44.609375 42.84375 
Q 40.53125 48.484375 33.40625 48.484375 
Q 26.265625 48.484375 22.1875 42.84375 
Q 18.109375 37.203125 18.109375 27.296875 
Q 18.109375 17.390625 22.1875 11.75 
Q 26.265625 6.109375 33.40625 6.109375 
Q 40.53125 6.109375 44.609375 11.75 
Q 48.6875 17.390625 48.6875 27.296875 
" id="DejaVuSans-70"/>
      <path d="M 54.890625 33.015625 
L 54.890625 0 
L 45.90625 0 
L 45.90625 32.71875 
Q 45.90625 40.484375 42.875 44.328125 
Q 39.84375 48.1875 33.796875 48.1875 
Q 26.515625 48.1875 22.3125 43.546875 
Q 18.109375 38.921875 18.109375 30.90625 
L 18.109375 0 
L 9.078125 0 
L 9.078125 75.984375 
L 18.109375 75.984375 
L 18.109375 46.1875 
Q 21.34375 51.125 25.703125 53.5625 
Q 30.078125 56 35.796875 56 
Q 45.21875 56 50.046875 50.171875 
Q 54.890625 44.34375 54.890625 33.015625 
" id="DejaVuSans-68"/>
     </defs>
     <g transform="translate(95.7375 41.976562)scale(0.1 -0.1)">
      <use xlink:href="#DejaVuSans-6c"/>
      <use x="27.783203" xlink:href="#DejaVuSans-6f"/>
      <use x="88.964844" xlink:href="#DejaVuSans-77"/>
      <use x="170.751953" xlink:href="#DejaVuSans-41"/>
      <use x="239.160156" xlink:href="#DejaVuSans-6c"/>
      <use x="266.943359" xlink:href="#DejaVuSans-70"/>
      <use x="330.419922" xlink:href="#DejaVuSans-68"/>
      <use x="393.798828" xlink:href="#DejaVuSans-61"/>
     </g>
    </g>
    <g id="line2d_32">
     <path d="M 67.7375 53.154687 
L 87.7375 53.154687 
" style="fill:none;stroke:#2ca02c;stroke-linecap:square;stroke-width:1.5;"/>
    </g>
    <g id="line2d_33"/>
    <g id="text_18">
     <!-- highAlpha -->
     <defs>
      <path d="M 9.421875 54.6875 
L 18.40625 54.6875 
L 18.40625 0 
L 9.421875 0 
z
M 9.421875 75.984375 
L 18.40625 75.984375 
L 18.40625 64.59375 
L 9.421875 64.59375 
z
" id="DejaVuSans-69"/>
      <path d="M 45.40625 27.984375 
Q 45.40625 37.75 41.375 43.109375 
Q 37.359375 48.484375 30.078125 48.484375 
Q 22.859375 48.484375 18.828125 43.109375 
Q 14.796875 37.75 14.796875 27.984375 
Q 14.796875 18.265625 18.828125 12.890625 
Q 22.859375 7.515625 30.078125 7.515625 
Q 37.359375 7.515625 41.375 12.890625 
Q 45.40625 18.265625 45.40625 27.984375 
M 54.390625 6.78125 
Q 54.390625 -7.171875 48.1875 -13.984375 
Q 42 -20.796875 29.203125 -20.796875 
Q 24.46875 -20.796875 20.265625 -20.09375 
Q 16.0625 -19.390625 12.109375 -17.921875 
L 12.109375 -9.1875 
Q 16.0625 -11.328125 19.921875 -12.34375 
Q 23.78125 -13.375 27.78125 -13.375 
Q 36.625 -13.375 41.015625 -8.765625 
Q 45.40625 -4.15625 45.40625 5.171875 
L 45.40625 9.625 
Q 42.625 4.78125 38.28125 2.390625 
Q 33.9375 0 27.875 0 
Q 17.828125 0 11.671875 7.65625 
Q 5.515625 15.328125 5.515625 27.984375 
Q 5.515625 40.671875 11.671875 48.328125 
Q 17.828125 56 27.875 56 
Q 33.9375 56 38.28125 53.609375 
Q 42.625 51.21875 45.40625 46.390625 
L 45.40625 54.6875 
L 54.390625 54.6875 
z
" id="DejaVuSans-67"/>
     </defs>
     <g transform="translate(95.7375 56.654687)scale(0.1 -0.1)">
      <use xlink:href="#DejaVuSans-68"/>
      <use x="63.378906" xlink:href="#DejaVuSans-69"/>
      <use x="91.162109" xlink:href="#DejaVuSans-67"/>
      <use x="154.638672" xlink:href="#DejaVuSans-68"/>
      <use x="218.017578" xlink:href="#DejaVuSans-41"/>
      <use x="286.425781" xlink:href="#DejaVuSans-6c"/>
      <use x="314.208984" xlink:href="#DejaVuSans-70"/>
      <use x="377.685547" xlink:href="#DejaVuSans-68"/>
      <use x="441.064453" xlink:href="#DejaVuSans-61"/>
     </g>
    </g>
    <g id="line2d_34">
     <path d="M 67.7375 67.832812 
L 87.7375 67.832812 
" style="fill:none;stroke:#d62728;stroke-linecap:square;stroke-width:1.5;"/>
    </g>
    <g id="line2d_35"/>
    <g id="text_19">
     <!-- lowBeta -->
     <defs>
      <path d="M 19.671875 34.8125 
L 19.671875 8.109375 
L 35.5 8.109375 
Q 43.453125 8.109375 47.28125 11.40625 
Q 51.125 14.703125 51.125 21.484375 
Q 51.125 28.328125 47.28125 31.5625 
Q 43.453125 34.8125 35.5 34.8125 
z
M 19.671875 64.796875 
L 19.671875 42.828125 
L 34.28125 42.828125 
Q 41.5 42.828125 45.03125 45.53125 
Q 48.578125 48.25 48.578125 53.8125 
Q 48.578125 59.328125 45.03125 62.0625 
Q 41.5 64.796875 34.28125 64.796875 
z
M 9.8125 72.90625 
L 35.015625 72.90625 
Q 46.296875 72.90625 52.390625 68.21875 
Q 58.5 63.53125 58.5 54.890625 
Q 58.5 48.1875 55.375 44.234375 
Q 52.25 40.28125 46.1875 39.3125 
Q 53.46875 37.75 57.5 32.78125 
Q 61.53125 27.828125 61.53125 20.40625 
Q 61.53125 10.640625 54.890625 5.3125 
Q 48.25 0 35.984375 0 
L 9.8125 0 
z
" id="DejaVuSans-42"/>
     </defs>
     <g transform="translate(95.7375 71.332812)scale(0.1 -0.1)">
      <use xlink:href="#DejaVuSans-6c"/>
      <use x="27.783203" xlink:href="#DejaVuSans-6f"/>
      <use x="88.964844" xlink:href="#DejaVuSans-77"/>
      <use x="170.751953" xlink:href="#DejaVuSans-42"/>
      <use x="239.355469" xlink:href="#DejaVuSans-65"/>
      <use x="300.878906" xlink:href="#DejaVuSans-74"/>
      <use x="340.087891" xlink:href="#DejaVuSans-61"/>
     </g>
    </g>
    <g id="line2d_36">
     <path d="M 67.7375 82.510938 
L 87.7375 82.510938 
" style="fill:none;stroke:#9467bd;stroke-linecap:square;stroke-width:1.5;"/>
    </g>
    <g id="line2d_37"/>
    <g id="text_20">
     <!-- highBeta -->
     <g transform="translate(95.7375 86.010938)scale(0.1 -0.1)">
      <use xlink:href="#DejaVuSans-68"/>
      <use x="63.378906" xlink:href="#DejaVuSans-69"/>
      <use x="91.162109" xlink:href="#DejaVuSans-67"/>
      <use x="154.638672" xlink:href="#DejaVuSans-68"/>
      <use x="218.017578" xlink:href="#DejaVuSans-42"/>
      <use x="286.621094" xlink:href="#DejaVuSans-65"/>
      <use x="348.144531" xlink:href="#DejaVuSans-74"/>
      <use x="387.353516" xlink:href="#DejaVuSans-61"/>
     </g>
    </g>
    <g id="line2d_38">
     <path d="M 67.7375 97.189062 
L 87.7375 97.189062 
" style="fill:none;stroke:#8c564b;stroke-linecap:square;stroke-width:1.5;"/>
    </g>
    <g id="line2d_39"/>
    <g id="text_21">
     <!-- lowGamma -->
     <defs>
      <path d="M 59.515625 10.40625 
L 59.515625 29.984375 
L 43.40625 29.984375 
L 43.40625 38.09375 
L 69.28125 38.09375 
L 69.28125 6.78125 
Q 63.578125 2.734375 56.6875 0.65625 
Q 49.8125 -1.421875 42 -1.421875 
Q 24.90625 -1.421875 15.25 8.5625 
Q 5.609375 18.5625 5.609375 36.375 
Q 5.609375 54.25 15.25 64.234375 
Q 24.90625 74.21875 42 74.21875 
Q 49.125 74.21875 55.546875 72.453125 
Q 61.96875 70.703125 67.390625 67.28125 
L 67.390625 56.78125 
Q 61.921875 61.421875 55.765625 63.765625 
Q 49.609375 66.109375 42.828125 66.109375 
Q 29.4375 66.109375 22.71875 58.640625 
Q 16.015625 51.171875 16.015625 36.375 
Q 16.015625 21.625 22.71875 14.15625 
Q 29.4375 6.6875 42.828125 6.6875 
Q 48.046875 6.6875 52.140625 7.59375 
Q 56.25 8.5 59.515625 10.40625 
" id="DejaVuSans-47"/>
      <path d="M 52 44.1875 
Q 55.375 50.25 60.0625 53.125 
Q 64.75 56 71.09375 56 
Q 79.640625 56 84.28125 50.015625 
Q 88.921875 44.046875 88.921875 33.015625 
L 88.921875 0 
L 79.890625 0 
L 79.890625 32.71875 
Q 79.890625 40.578125 77.09375 44.375 
Q 74.3125 48.1875 68.609375 48.1875 
Q 61.625 48.1875 57.5625 43.546875 
Q 53.515625 38.921875 53.515625 30.90625 
L 53.515625 0 
L 44.484375 0 
L 44.484375 32.71875 
Q 44.484375 40.625 41.703125 44.40625 
Q 38.921875 48.1875 33.109375 48.1875 
Q 26.21875 48.1875 22.15625 43.53125 
Q 18.109375 38.875 18.109375 30.90625 
L 18.109375 0 
L 9.078125 0 
L 9.078125 54.6875 
L 18.109375 54.6875 
L 18.109375 46.1875 
Q 21.1875 51.21875 25.484375 53.609375 
Q 29.78125 56 35.6875 56 
Q 41.65625 56 45.828125 52.96875 
Q 50 49.953125 52 44.1875 
" id="DejaVuSans-6d"/>
     </defs>
     <g transform="translate(95.7375 100.689062)scale(0.1 -0.1)">
      <use xlink:href="#DejaVuSans-6c"/>
      <use x="27.783203" xlink:href="#DejaVuSans-6f"/>
      <use x="88.964844" xlink:href="#DejaVuSans-77"/>
      <use x="170.751953" xlink:href="#DejaVuSans-47"/>
      <use x="248.242188" xlink:href="#DejaVuSans-61"/>
      <use x="309.521484" xlink:href="#DejaVuSans-6d"/>
      <use x="406.933594" xlink:href="#DejaVuSans-6d"/>
      <use x="504.345703" xlink:href="#DejaVuSans-61"/>
     </g>
    </g>
    <g id="line2d_40">
     <path d="M 67.7375 111.867188 
L 87.7375 111.867188 
" style="fill:none;stroke:#e377c2;stroke-linecap:square;stroke-width:1.5;"/>
    </g>
    <g id="line2d_41"/>
    <g id="text_22">
     <!-- midGamma -->
     <g transform="translate(95.7375 115.367188)scale(0.1 -0.1)">
      <use xlink:href="#DejaVuSans-6d"/>
      <use x="97.412109" xlink:href="#DejaVuSans-69"/>
      <use x="125.195312" xlink:href="#DejaVuSans-64"/>
      <use x="188.671875" xlink:href="#DejaVuSans-47"/>
      <use x="266.162109" xlink:href="#DejaVuSans-61"/>
      <use x="327.441406" xlink:href="#DejaVuSans-6d"/>
      <use x="424.853516" xlink:href="#DejaVuSans-6d"/>
      <use x="522.265625" xlink:href="#DejaVuSans-61"/>
     </g>
    </g>
    <g id="line2d_42">
     <path d="M 67.7375 126.545312 
L 87.7375 126.545312 
" style="fill:none;stroke:#7f7f7f;stroke-linecap:square;stroke-width:1.5;"/>
    </g>
    <g id="line2d_43"/>
    <g id="text_23">
     <!-- attention -->
     <defs>
      <path d="M 54.890625 33.015625 
L 54.890625 0 
L 45.90625 0 
L 45.90625 32.71875 
Q 45.90625 40.484375 42.875 44.328125 
Q 39.84375 48.1875 33.796875 48.1875 
Q 26.515625 48.1875 22.3125 43.546875 
Q 18.109375 38.921875 18.109375 30.90625 
L 18.109375 0 
L 9.078125 0 
L 9.078125 54.6875 
L 18.109375 54.6875 
L 18.109375 46.1875 
Q 21.34375 51.125 25.703125 53.5625 
Q 30.078125 56 35.796875 56 
Q 45.21875 56 50.046875 50.171875 
Q 54.890625 44.34375 54.890625 33.015625 
" id="DejaVuSans-6e"/>
     </defs>
     <g transform="translate(95.7375 130.045312)scale(0.1 -0.1)">
      <use xlink:href="#DejaVuSans-61"/>
      <use x="61.279297" xlink:href="#DejaVuSans-74"/>
      <use x="100.488281" xlink:href="#DejaVuSans-74"/>
      <use x="139.697266" xlink:href="#DejaVuSans-65"/>
      <use x="201.220703" xlink:href="#DejaVuSans-6e"/>
      <use x="264.599609" xlink:href="#DejaVuSans-74"/>
      <use x="303.808594" xlink:href="#DejaVuSans-69"/>
      <use x="331.591797" xlink:href="#DejaVuSans-6f"/>
      <use x="392.773438" xlink:href="#DejaVuSans-6e"/>
     </g>
    </g>
    <g id="line2d_44">
     <path d="M 67.7375 141.223437 
L 87.7375 141.223437 
" style="fill:none;stroke:#bcbd22;stroke-linecap:square;stroke-width:1.5;"/>
    </g>
    <g id="line2d_45"/>
    <g id="text_24">
     <!-- meditation -->
     <g transform="translate(95.7375 144.723437)scale(0.1 -0.1)">
      <use xlink:href="#DejaVuSans-6d"/>
      <use x="97.412109" xlink:href="#DejaVuSans-65"/>
      <use x="158.935547" xlink:href="#DejaVuSans-64"/>
      <use x="222.412109" xlink:href="#DejaVuSans-69"/>
      <use x="250.195312" xlink:href="#DejaVuSans-74"/>
      <use x="289.404297" xlink:href="#DejaVuSans-61"/>
      <use x="350.683594" xlink:href="#DejaVuSans-74"/>
      <use x="389.892578" xlink:href="#DejaVuSans-69"/>
      <use x="417.675781" xlink:href="#DejaVuSans-6f"/>
      <use x="478.857422" xlink:href="#DejaVuSans-6e"/>
     </g>
    </g>
    <g id="line2d_46">
     <path d="M 67.7375 155.901562 
L 87.7375 155.901562 
" style="fill:none;stroke:#17becf;stroke-linecap:square;stroke-width:1.5;"/>
    </g>
    <g id="line2d_47"/>
    <g id="text_25">
     <!-- rawValue -->
     <defs>
      <path d="M 41.109375 46.296875 
Q 39.59375 47.171875 37.8125 47.578125 
Q 36.03125 48 33.890625 48 
Q 26.265625 48 22.1875 43.046875 
Q 18.109375 38.09375 18.109375 28.8125 
L 18.109375 0 
L 9.078125 0 
L 9.078125 54.6875 
L 18.109375 54.6875 
L 18.109375 46.1875 
Q 20.953125 51.171875 25.484375 53.578125 
Q 30.03125 56 36.53125 56 
Q 37.453125 56 38.578125 55.875 
Q 39.703125 55.765625 41.0625 55.515625 
z
" id="DejaVuSans-72"/>
      <path d="M 28.609375 0 
L 0.78125 72.90625 
L 11.078125 72.90625 
L 34.1875 11.53125 
L 57.328125 72.90625 
L 67.578125 72.90625 
L 39.796875 0 
z
" id="DejaVuSans-56"/>
      <path d="M 8.5 21.578125 
L 8.5 54.6875 
L 17.484375 54.6875 
L 17.484375 21.921875 
Q 17.484375 14.15625 20.5 10.265625 
Q 23.53125 6.390625 29.59375 6.390625 
Q 36.859375 6.390625 41.078125 11.03125 
Q 45.3125 15.671875 45.3125 23.6875 
L 45.3125 54.6875 
L 54.296875 54.6875 
L 54.296875 0 
L 45.3125 0 
L 45.3125 8.40625 
Q 42.046875 3.421875 37.71875 1 
Q 33.40625 -1.421875 27.6875 -1.421875 
Q 18.265625 -1.421875 13.375 4.4375 
Q 8.5 10.296875 8.5 21.578125 
M 31.109375 56 
z
" id="DejaVuSans-75"/>
     </defs>
     <g transform="translate(95.7375 159.401562)scale(0.1 -0.1)">
      <use xlink:href="#DejaVuSans-72"/>
      <use x="41.113281" xlink:href="#DejaVuSans-61"/>
      <use x="102.392578" xlink:href="#DejaVuSans-77"/>
      <use x="184.179688" xlink:href="#DejaVuSans-56"/>
      <use x="252.478516" xlink:href="#DejaVuSans-61"/>
      <use x="313.757812" xlink:href="#DejaVuSans-6c"/>
      <use x="341.541016" xlink:href="#DejaVuSans-75"/>
      <use x="404.919922" xlink:href="#DejaVuSans-65"/>
     </g>
    </g>
   </g>
  </g>
 </g>
 <defs>
  <clipPath id="p357b1823e9">
   <rect height="266.112" width="357.12" x="58.7375" y="10.7"/>
  </clipPath>
 </defs>
</svg>
