<?xml version="1.0" encoding="utf-8" standalone="no"?>
<!DOCTYPE svg PUBLIC "-//W3C//DTD SVG 1.1//EN"
  "http://www.w3.org/Graphics/SVG/1.1/DTD/svg11.dtd">
<!-- Created with matplotlib (http://matplotlib.org/) -->
<svg height="300pt" version="1.1" viewBox="0 0 426 300" width="426pt" xmlns="http://www.w3.org/2000/svg" xmlns:xlink="http://www.w3.org/1999/xlink">
 <defs>
  <style type="text/css">
*{stroke-linecap:butt;stroke-linejoin:round;}
  </style>
 </defs>
 <g id="figure_1">
  <g id="patch_1">
   <path d="M 0 300.690125 
L 426.5575 300.690125 
L 426.5575 0 
L 0 0 
z
" style="fill:#ffffff;"/>
  </g>
  <g id="axes_1">
   <g id="patch_2">
    <path d="M 58.7375 276.812 
L 415.8575 276.812 
L 415.8575 10.7 
L 58.7375 10.7 
z
" style="fill:#ffffff;"/>
   </g>
   <g id="matplotlib.axis_1">
    <g id="xtick_1">
     <g id="line2d_1">
      <defs>
       <path d="M 0 0 
L 0 3.5 
" id="m05bff8bd7d" style="stroke:#000000;stroke-width:0.8;"/>
      </defs>
      <g>
       <use style="stroke:#000000;stroke-width:0.8;" x="74.970227" xlink:href="#m05bff8bd7d" y="276.812"/>
      </g>
     </g>
     <g id="text_1">
      <!-- 0 -->
      <defs>
       <path d="M 31.78125 66.40625 
Q 24.171875 66.40625 20.328125 58.90625 
Q 16.5 51.421875 16.5 36.375 
Q 16.5 21.390625 20.328125 13.890625 
Q 24.171875 6.390625 31.78125 6.390625 
Q 39.453125 6.390625 43.28125 13.890625 
Q 47.125 21.390625 47.125 36.375 
Q 47.125 51.421875 43.28125 58.90625 
Q 39.453125 66.40625 31.78125 66.40625 
M 31.78125 74.21875 
Q 44.046875 74.21875 50.515625 64.515625 
Q 56.984375 54.828125 56.984375 36.375 
Q 56.984375 17.96875 50.515625 8.265625 
Q 44.046875 -1.421875 31.78125 -1.421875 
Q 19.53125 -1.421875 13.0625 8.265625 
Q 6.59375 17.96875 6.59375 36.375 
Q 6.59375 54.828125 13.0625 64.515625 
Q 19.53125 74.21875 31.78125 74.21875 
" id="DejaVuSans-30"/>
      </defs>
      <g transform="translate(71.788977 291.410437)scale(0.1 -0.1)">
       <use xlink:href="#DejaVuSans-30"/>
      </g>
     </g>
    </g>
    <g id="xtick_2">
     <g id="line2d_2">
      <g>
       <use style="stroke:#000000;stroke-width:0.8;" x="116.592605" xlink:href="#m05bff8bd7d" y="276.812"/>
      </g>
     </g>
     <g id="text_2">
      <!-- 25 -->
      <defs>
       <path d="M 19.1875 8.296875 
L 53.609375 8.296875 
L 53.609375 0 
L 7.328125 0 
L 7.328125 8.296875 
Q 12.9375 14.109375 22.625 23.890625 
Q 32.328125 33.6875 34.8125 36.53125 
Q 39.546875 41.84375 41.421875 45.53125 
Q 43.3125 49.21875 43.3125 52.78125 
Q 43.3125 58.59375 39.234375 62.25 
Q 35.15625 65.921875 28.609375 65.921875 
Q 23.96875 65.921875 18.8125 64.3125 
Q 13.671875 62.703125 7.8125 59.421875 
L 7.8125 69.390625 
Q 13.765625 71.78125 18.9375 73 
Q 24.125 74.21875 28.421875 74.21875 
Q 39.75 74.21875 46.484375 68.546875 
Q 53.21875 62.890625 53.21875 53.421875 
Q 53.21875 48.921875 51.53125 44.890625 
Q 49.859375 40.875 45.40625 35.40625 
Q 44.1875 33.984375 37.640625 27.21875 
Q 31.109375 20.453125 19.1875 8.296875 
" id="DejaVuSans-32"/>
       <path d="M 10.796875 72.90625 
L 49.515625 72.90625 
L 49.515625 64.59375 
L 19.828125 64.59375 
L 19.828125 46.734375 
Q 21.96875 47.46875 24.109375 47.828125 
Q 26.265625 48.1875 28.421875 48.1875 
Q 40.625 48.1875 47.75 41.5 
Q 54.890625 34.8125 54.890625 23.390625 
Q 54.890625 11.625 47.5625 5.09375 
Q 40.234375 -1.421875 26.90625 -1.421875 
Q 22.3125 -1.421875 17.546875 -0.640625 
Q 12.796875 0.140625 7.71875 1.703125 
L 7.71875 11.625 
Q 12.109375 9.234375 16.796875 8.0625 
Q 21.484375 6.890625 26.703125 6.890625 
Q 35.15625 6.890625 40.078125 11.328125 
Q 45.015625 15.765625 45.015625 23.390625 
Q 45.015625 31 40.078125 35.4375 
Q 35.15625 39.890625 26.703125 39.890625 
Q 22.75 39.890625 18.8125 39.015625 
Q 14.890625 38.140625 10.796875 36.28125 
z
" id="DejaVuSans-35"/>
      </defs>
      <g transform="translate(110.230105 291.410437)scale(0.1 -0.1)">
       <use xlink:href="#DejaVuSans-32"/>
       <use x="63.623047" xlink:href="#DejaVuSans-35"/>
      </g>
     </g>
    </g>
    <g id="xtick_3">
     <g id="line2d_3">
      <g>
       <use style="stroke:#000000;stroke-width:0.8;" x="158.214983" xlink:href="#m05bff8bd7d" y="276.812"/>
      </g>
     </g>
     <g id="text_3">
      <!-- 50 -->
      <g transform="translate(151.852483 291.410437)scale(0.1 -0.1)">
       <use xlink:href="#DejaVuSans-35"/>
       <use x="63.623047" xlink:href="#DejaVuSans-30"/>
      </g>
     </g>
    </g>
    <g id="xtick_4">
     <g id="line2d_4">
      <g>
       <use style="stroke:#000000;stroke-width:0.8;" x="199.83736" xlink:href="#m05bff8bd7d" y="276.812"/>
      </g>
     </g>
     <g id="text_4">
      <!-- 75 -->
      <defs>
       <path d="M 8.203125 72.90625 
L 55.078125 72.90625 
L 55.078125 68.703125 
L 28.609375 0 
L 18.3125 0 
L 43.21875 64.59375 
L 8.203125 64.59375 
z
" id="DejaVuSans-37"/>
      </defs>
      <g transform="translate(193.47486 291.410437)scale(0.1 -0.1)">
       <use xlink:href="#DejaVuSans-37"/>
       <use x="63.623047" xlink:href="#DejaVuSans-35"/>
      </g>
     </g>
    </g>
    <g id="xtick_5">
     <g id="line2d_5">
      <g>
       <use style="stroke:#000000;stroke-width:0.8;" x="241.459738" xlink:href="#m05bff8bd7d" y="276.812"/>
      </g>
     </g>
     <g id="text_5">
      <!-- 100 -->
      <defs>
       <path d="M 12.40625 8.296875 
L 28.515625 8.296875 
L 28.515625 63.921875 
L 10.984375 60.40625 
L 10.984375 69.390625 
L 28.421875 72.90625 
L 38.28125 72.90625 
L 38.28125 8.296875 
L 54.390625 8.296875 
L 54.390625 0 
L 12.40625 0 
z
" id="DejaVuSans-31"/>
      </defs>
      <g transform="translate(231.915988 291.410437)scale(0.1 -0.1)">
       <use xlink:href="#DejaVuSans-31"/>
       <use x="63.623047" xlink:href="#DejaVuSans-30"/>
       <use x="127.246094" xlink:href="#DejaVuSans-30"/>
      </g>
     </g>
    </g>
    <g id="xtick_6">
     <g id="line2d_6">
      <g>
       <use style="stroke:#000000;stroke-width:0.8;" x="283.082115" xlink:href="#m05bff8bd7d" y="276.812"/>
      </g>
     </g>
     <g id="text_6">
      <!-- 125 -->
      <g transform="translate(273.538365 291.410437)scale(0.1 -0.1)">
       <use xlink:href="#DejaVuSans-31"/>
       <use x="63.623047" xlink:href="#DejaVuSans-32"/>
       <use x="127.246094" xlink:href="#DejaVuSans-35"/>
      </g>
     </g>
    </g>
    <g id="xtick_7">
     <g id="line2d_7">
      <g>
       <use style="stroke:#000000;stroke-width:0.8;" x="324.704493" xlink:href="#m05bff8bd7d" y="276.812"/>
      </g>
     </g>
     <g id="text_7">
      <!-- 150 -->
      <g transform="translate(315.160743 291.410437)scale(0.1 -0.1)">
       <use xlink:href="#DejaVuSans-31"/>
       <use x="63.623047" xlink:href="#DejaVuSans-35"/>
       <use x="127.246094" xlink:href="#DejaVuSans-30"/>
      </g>
     </g>
    </g>
    <g id="xtick_8">
     <g id="line2d_8">
      <g>
       <use style="stroke:#000000;stroke-width:0.8;" x="366.326871" xlink:href="#m05bff8bd7d" y="276.812"/>
      </g>
     </g>
     <g id="text_8">
      <!-- 175 -->
      <g transform="translate(356.783121 291.410437)scale(0.1 -0.1)">
       <use xlink:href="#DejaVuSans-31"/>
       <use x="63.623047" xlink:href="#DejaVuSans-37"/>
       <use x="127.246094" xlink:href="#DejaVuSans-35"/>
      </g>
     </g>
    </g>
    <g id="xtick_9">
     <g id="line2d_9">
      <g>
       <use style="stroke:#000000;stroke-width:0.8;" x="407.949248" xlink:href="#m05bff8bd7d" y="276.812"/>
      </g>
     </g>
     <g id="text_9">
      <!-- 200 -->
      <g transform="translate(398.405498 291.410437)scale(0.1 -0.1)">
       <use xlink:href="#DejaVuSans-32"/>
       <use x="63.623047" xlink:href="#DejaVuSans-30"/>
       <use x="127.246094" xlink:href="#DejaVuSans-30"/>
      </g>
     </g>
    </g>
   </g>
   <g id="matplotlib.axis_2">
    <g id="ytick_1">
     <g id="line2d_10">
      <defs>
       <path d="M 0 0 
L -3.5 0 
" id="m6713ba4fce" style="stroke:#000000;stroke-width:0.8;"/>
      </defs>
      <g>
       <use style="stroke:#000000;stroke-width:0.8;" x="58.7375" xlink:href="#m6713ba4fce" y="264.550721"/>
      </g>
     </g>
     <g id="text_10">
      <!-- 0 -->
      <g transform="translate(45.375 268.34994)scale(0.1 -0.1)">
       <use xlink:href="#DejaVuSans-30"/>
      </g>
     </g>
    </g>
    <g id="ytick_2">
     <g id="line2d_11">
      <g>
       <use style="stroke:#000000;stroke-width:0.8;" x="58.7375" xlink:href="#m6713ba4fce" y="224.199435"/>
      </g>
     </g>
     <g id="text_11">
      <!-- 500000 -->
      <g transform="translate(13.5625 227.998654)scale(0.1 -0.1)">
       <use xlink:href="#DejaVuSans-35"/>
       <use x="63.623047" xlink:href="#DejaVuSans-30"/>
       <use x="127.246094" xlink:href="#DejaVuSans-30"/>
       <use x="190.869141" xlink:href="#DejaVuSans-30"/>
       <use x="254.492188" xlink:href="#DejaVuSans-30"/>
       <use x="318.115234" xlink:href="#DejaVuSans-30"/>
      </g>
     </g>
    </g>
    <g id="ytick_3">
     <g id="line2d_12">
      <g>
       <use style="stroke:#000000;stroke-width:0.8;" x="58.7375" xlink:href="#m6713ba4fce" y="183.84815"/>
      </g>
     </g>
     <g id="text_12">
      <!-- 1000000 -->
      <g transform="translate(7.2 187.647368)scale(0.1 -0.1)">
       <use xlink:href="#DejaVuSans-31"/>
       <use x="63.623047" xlink:href="#DejaVuSans-30"/>
       <use x="127.246094" xlink:href="#DejaVuSans-30"/>
       <use x="190.869141" xlink:href="#DejaVuSans-30"/>
       <use x="254.492188" xlink:href="#DejaVuSans-30"/>
       <use x="318.115234" xlink:href="#DejaVuSans-30"/>
       <use x="381.738281" xlink:href="#DejaVuSans-30"/>
      </g>
     </g>
    </g>
    <g id="ytick_4">
     <g id="line2d_13">
      <g>
       <use style="stroke:#000000;stroke-width:0.8;" x="58.7375" xlink:href="#m6713ba4fce" y="143.496864"/>
      </g>
     </g>
     <g id="text_13">
      <!-- 1500000 -->
      <g transform="translate(7.2 147.296083)scale(0.1 -0.1)">
       <use xlink:href="#DejaVuSans-31"/>
       <use x="63.623047" xlink:href="#DejaVuSans-35"/>
       <use x="127.246094" xlink:href="#DejaVuSans-30"/>
       <use x="190.869141" xlink:href="#DejaVuSans-30"/>
       <use x="254.492188" xlink:href="#DejaVuSans-30"/>
       <use x="318.115234" xlink:href="#DejaVuSans-30"/>
       <use x="381.738281" xlink:href="#DejaVuSans-30"/>
      </g>
     </g>
    </g>
    <g id="ytick_5">
     <g id="line2d_14">
      <g>
       <use style="stroke:#000000;stroke-width:0.8;" x="58.7375" xlink:href="#m6713ba4fce" y="103.145578"/>
      </g>
     </g>
     <g id="text_14">
      <!-- 2000000 -->
      <g transform="translate(7.2 106.944797)scale(0.1 -0.1)">
       <use xlink:href="#DejaVuSans-32"/>
       <use x="63.623047" xlink:href="#DejaVuSans-30"/>
       <use x="127.246094" xlink:href="#DejaVuSans-30"/>
       <use x="190.869141" xlink:href="#DejaVuSans-30"/>
       <use x="254.492188" xlink:href="#DejaVuSans-30"/>
       <use x="318.115234" xlink:href="#DejaVuSans-30"/>
       <use x="381.738281" xlink:href="#DejaVuSans-30"/>
      </g>
     </g>
    </g>
    <g id="ytick_6">
     <g id="line2d_15">
      <g>
       <use style="stroke:#000000;stroke-width:0.8;" x="58.7375" xlink:href="#m6713ba4fce" y="62.794293"/>
      </g>
     </g>
     <g id="text_15">
      <!-- 2500000 -->
      <g transform="translate(7.2 66.593511)scale(0.1 -0.1)">
       <use xlink:href="#DejaVuSans-32"/>
       <use x="63.623047" xlink:href="#DejaVuSans-35"/>
       <use x="127.246094" xlink:href="#DejaVuSans-30"/>
       <use x="190.869141" xlink:href="#DejaVuSans-30"/>
       <use x="254.492188" xlink:href="#DejaVuSans-30"/>
       <use x="318.115234" xlink:href="#DejaVuSans-30"/>
       <use x="381.738281" xlink:href="#DejaVuSans-30"/>
      </g>
     </g>
    </g>
    <g id="ytick_7">
     <g id="line2d_16">
      <g>
       <use style="stroke:#000000;stroke-width:0.8;" x="58.7375" xlink:href="#m6713ba4fce" y="22.443007"/>
      </g>
     </g>
     <g id="text_16">
      <!-- 3000000 -->
      <defs>
       <path d="M 40.578125 39.3125 
Q 47.65625 37.796875 51.625 33 
Q 55.609375 28.21875 55.609375 21.1875 
Q 55.609375 10.40625 48.1875 4.484375 
Q 40.765625 -1.421875 27.09375 -1.421875 
Q 22.515625 -1.421875 17.65625 -0.515625 
Q 12.796875 0.390625 7.625 2.203125 
L 7.625 11.71875 
Q 11.71875 9.328125 16.59375 8.109375 
Q 21.484375 6.890625 26.8125 6.890625 
Q 36.078125 6.890625 40.9375 10.546875 
Q 45.796875 14.203125 45.796875 21.1875 
Q 45.796875 27.640625 41.28125 31.265625 
Q 36.765625 34.90625 28.71875 34.90625 
L 20.21875 34.90625 
L 20.21875 43.015625 
L 29.109375 43.015625 
Q 36.375 43.015625 40.234375 45.921875 
Q 44.09375 48.828125 44.09375 54.296875 
Q 44.09375 59.90625 40.109375 62.90625 
Q 36.140625 65.921875 28.71875 65.921875 
Q 24.65625 65.921875 20.015625 65.03125 
Q 15.375 64.15625 9.8125 62.3125 
L 9.8125 71.09375 
Q 15.4375 72.65625 20.34375 73.4375 
Q 25.25 74.21875 29.59375 74.21875 
Q 40.828125 74.21875 47.359375 69.109375 
Q 53.90625 64.015625 53.90625 55.328125 
Q 53.90625 49.265625 50.4375 45.09375 
Q 46.96875 40.921875 40.578125 39.3125 
" id="DejaVuSans-33"/>
      </defs>
      <g transform="translate(7.2 26.242226)scale(0.1 -0.1)">
       <use xlink:href="#DejaVuSans-33"/>
       <use x="63.623047" xlink:href="#DejaVuSans-30"/>
       <use x="127.246094" xlink:href="#DejaVuSans-30"/>
       <use x="190.869141" xlink:href="#DejaVuSans-30"/>
       <use x="254.492188" xlink:href="#DejaVuSans-30"/>
       <use x="318.115234" xlink:href="#DejaVuSans-30"/>
       <use x="381.738281" xlink:href="#DejaVuSans-30"/>
      </g>
     </g>
    </g>
   </g>
   <g id="line2d_17">
    <path clip-path="url(#pfbb299967c)" d="M 74.970227 151.381102 
L 76.635122 131.076012 
L 78.300017 22.796 
L 79.964913 46.983448 
L 81.629808 195.523794 
L 83.294703 151.668645 
L 84.959598 227.696036 
L 86.624493 163.654752 
L 88.289388 206.214302 
L 89.954283 263.101868 
L 91.619178 126.099488 
L 93.284073 198.284952 
L 94.948969 156.684552 
L 96.613864 213.43113 
L 98.278759 161.61677 
L 99.943654 70.401478 
L 101.608549 179.669532 
L 103.273444 230.325245 
L 104.938339 53.244435 
L 106.603234 172.98284 
L 108.268129 232.261945 
L 109.933024 221.67861 
L 111.59792 213.944883 
L 113.262815 229.576325 
L 114.92771 221.350715 
L 116.592605 155.48168 
L 118.2575 211.78625 
L 119.922395 259.73996 
L 121.58729 221.406481 
L 123.252185 166.636954 
L 124.91708 250.924253 
L 126.581976 166.46877 
L 128.246871 206.582548 
L 129.911766 187.666108 
L 131.576661 138.88221 
L 133.241556 142.851163 
L 134.906451 157.025924 
L 136.571346 99.619037 
L 138.236241 200.484016 
L 139.901136 181.51294 
L 141.566031 253.723503 
L 143.230927 233.879063 
L 144.895822 105.061215 
L 146.560717 232.345472 
L 148.225612 253.839876 
L 149.890507 61.799714 
L 151.555402 230.843033 
L 153.220297 172.742992 
L 154.885192 220.939294 
L 156.550087 149.736141 
L 158.214983 178.214465 
L 159.879878 36.925729 
L 161.544773 156.635323 
L 163.209668 135.49698 
L 164.874563 243.63673 
L 166.539458 208.14729 
L 168.204353 199.643257 
L 169.869248 225.897498 
L 171.534143 225.97925 
L 173.199038 244.071152 
L 174.863934 170.008466 
L 176.528829 240.069031 
L 178.193724 218.932786 
L 179.858619 84.285791 
L 181.523514 244.865024 
L 183.188409 257.978627 
L 184.853304 231.631335 
L 186.518199 126.998676 
L 188.183094 154.760603 
L 189.84799 120.006121 
L 191.512885 237.503739 
L 193.17778 207.950376 
L 194.842675 215.21958 
L 196.50757 252.644348 
L 198.172465 207.630794 
L 199.83736 237.926297 
L 201.502255 225.425872 
L 203.16715 141.989986 
L 204.832045 219.821402 
L 206.496941 251.674061 
L 208.161836 139.271842 
L 209.826731 155.093017 
L 211.491626 259.413276 
L 213.156521 166.261526 
L 214.821416 211.949592 
L 216.486311 129.411037 
L 218.151206 250.723788 
L 219.816101 252.333724 
L 221.480997 231.587675 
L 223.145892 174.828911 
L 224.810787 224.724164 
L 226.475682 158.957056 
L 228.140577 249.606058 
L 229.805472 229.16103 
L 231.470367 125.949865 
L 233.135262 260.175754 
L 234.800157 173.573825 
L 236.465052 238.117724 
L 238.129948 248.64029 
L 239.794843 216.419465 
L 241.459738 35.664106 
L 243.124633 263.080159 
L 246.454423 201.798338 
L 248.119318 257.224542 
L 251.449108 80.0184 
L 253.114003 160.323027 
L 254.778899 225.663622 
L 256.443794 232.204485 
L 258.108689 133.730723 
L 259.773584 230.409014 
L 261.438479 205.206085 
L 263.103374 74.071912 
L 264.768269 168.269406 
L 266.433164 148.371138 
L 268.098059 166.727583 
L 269.762955 245.725878 
L 271.42785 210.298902 
L 273.092745 230.175622 
L 274.75764 257.429203 
L 276.422535 223.911408 
L 278.08743 63.495275 
L 279.752325 190.933836 
L 281.41722 136.10128 
L 283.082115 226.01145 
L 284.74701 209.963098 
L 286.411906 115.45958 
L 288.076801 248.731161 
L 289.741696 248.615998 
L 291.406591 229.905591 
L 294.736381 175.780556 
L 296.401276 258.796144 
L 298.066171 128.796084 
L 299.731066 234.426872 
L 301.395962 137.758831 
L 303.060857 252.354949 
L 304.725752 221.828555 
L 306.390647 177.569005 
L 308.055542 125.53118 
L 309.720437 113.165529 
L 311.385332 209.550385 
L 313.050227 115.826858 
L 314.715122 215.327075 
L 316.380017 174.442265 
L 318.044913 141.755141 
L 319.709808 146.444203 
L 321.374703 218.485048 
L 323.039598 193.567322 
L 324.704493 70.949449 
L 326.369388 117.581896 
L 328.034283 173.359398 
L 329.699178 195.532591 
L 331.364073 230.417084 
L 333.028969 257.40354 
L 334.693864 220.412709 
L 336.358759 150.376032 
L 338.023654 148.865199 
L 339.688549 243.510108 
L 341.353444 203.06093 
L 343.018339 134.405719 
L 344.683234 91.462509 
L 346.348129 183.473448 
L 348.013024 188.218517 
L 349.67792 233.974857 
L 351.342815 151.125678 
L 353.00771 140.852321 
L 354.672605 198.00564 
L 356.3375 212.376993 
L 358.002395 235.535161 
L 359.66729 205.599026 
L 361.332185 235.516034 
L 362.99708 235.985562 
L 364.661976 234.84128 
L 366.326871 174.060461 
L 367.991766 136.850281 
L 369.656661 210.490651 
L 371.321556 205.814986 
L 372.986451 215.7159 
L 374.651346 101.631598 
L 376.316241 114.854069 
L 377.981136 142.397534 
L 379.646031 129.93052 
L 381.310927 247.56396 
L 382.975822 64.602676 
L 384.640717 202.559606 
L 386.305612 210.698702 
L 387.970507 184.753229 
L 389.635402 153.371146 
L 391.300297 175.677337 
L 392.965192 113.581389 
L 394.630087 261.484266 
L 396.294983 195.436797 
L 397.959878 117.770579 
L 399.624773 244.428826 
L 399.624773 244.428826 
" style="fill:none;stroke:#1f77b4;stroke-linecap:square;stroke-width:1.5;"/>
   </g>
   <g id="line2d_18">
    <path clip-path="url(#pfbb299967c)" d="M 74.970227 254.525363 
L 76.635122 228.642677 
L 78.300017 186.845363 
L 79.964913 129.62159 
L 81.629808 260.690636 
L 83.294703 261.157662 
L 84.959598 255.396628 
L 86.624493 259.919201 
L 88.289388 260.56934 
L 89.954283 259.388178 
L 91.619178 259.009118 
L 93.284073 212.967574 
L 94.948969 228.134331 
L 96.613864 260.282524 
L 98.278759 260.636889 
L 99.943654 258.784603 
L 101.608549 253.248487 
L 103.273444 239.810299 
L 104.938339 234.815536 
L 106.603234 259.848909 
L 108.268129 249.032827 
L 109.933024 263.077657 
L 111.59792 260.13048 
L 113.262815 263.200406 
L 114.92771 262.109953 
L 116.592605 257.650006 
L 118.2575 250.105687 
L 119.922395 258.584461 
L 121.58729 261.224484 
L 123.252185 248.819046 
L 124.91708 262.837648 
L 126.581976 230.677108 
L 128.246871 235.342846 
L 129.911766 258.672104 
L 131.576661 262.080577 
L 133.241556 242.514481 
L 134.906451 263.02286 
L 136.571346 232.314321 
L 138.236241 252.717464 
L 139.901136 259.399637 
L 141.566031 263.57422 
L 143.230927 260.475161 
L 144.895822 251.690847 
L 146.560717 261.096893 
L 148.225612 263.991614 
L 149.890507 249.368308 
L 151.555402 240.981939 
L 153.220297 255.812327 
L 154.885192 248.663613 
L 156.550087 160.118608 
L 158.214983 260.333608 
L 159.879878 190.768557 
L 161.544773 239.988651 
L 163.209668 250.867681 
L 164.874563 263.08258 
L 166.539458 256.652118 
L 168.204353 262.521536 
L 169.869248 218.433802 
L 171.534143 250.619601 
L 173.199038 261.32391 
L 174.863934 251.53041 
L 176.528829 263.982656 
L 178.193724 156.657113 
L 179.858619 251.175561 
L 181.523514 249.34095 
L 183.188409 263.204602 
L 184.853304 219.045608 
L 186.518199 207.934962 
L 188.183094 252.873624 
L 189.84799 238.273722 
L 191.512885 254.526332 
L 193.17778 254.793538 
L 194.842675 245.697309 
L 196.50757 260.052279 
L 198.172465 214.980135 
L 199.83736 243.427792 
L 201.502255 242.263334 
L 203.16715 259.578151 
L 204.832045 263.367379 
L 206.496941 240.451561 
L 208.161836 251.937958 
L 209.826731 244.442304 
L 211.491626 231.05988 
L 213.156521 253.849237 
L 214.821416 245.906006 
L 216.486311 258.884836 
L 218.151206 263.691884 
L 219.816101 264.070944 
L 221.480997 261.652934 
L 223.145892 257.469878 
L 224.810787 262.951761 
L 226.475682 259.091676 
L 228.140577 262.010931 
L 229.805472 242.282057 
L 231.470367 250.767852 
L 233.135262 264.002024 
L 234.800157 249.50066 
L 236.465052 262.413071 
L 238.129948 262.439865 
L 239.794843 258.913808 
L 241.459738 237.490019 
L 243.124633 259.140824 
L 244.789528 263.857002 
L 246.454423 262.669706 
L 248.119318 262.99413 
L 249.784213 262.033447 
L 251.449108 258.295707 
L 253.114003 255.723555 
L 254.778899 262.780107 
L 256.443794 261.044033 
L 258.108689 263.819879 
L 259.773584 258.763136 
L 261.438479 263.107356 
L 263.103374 249.593468 
L 264.768269 259.347665 
L 266.433164 260.915555 
L 268.098059 260.984959 
L 269.762955 250.903674 
L 271.42785 262.434861 
L 273.092745 260.648025 
L 274.75764 263.703102 
L 278.08743 253.342022 
L 279.752325 179.104856 
L 281.41722 224.849817 
L 283.082115 262.314534 
L 284.74701 169.682669 
L 286.411906 225.828901 
L 288.076801 194.079057 
L 289.741696 261.081237 
L 291.406591 263.578336 
L 293.071486 258.991282 
L 294.736381 261.880596 
L 296.401276 262.968709 
L 298.066171 252.069907 
L 299.731066 263.427099 
L 301.395962 257.493443 
L 303.060857 262.502248 
L 304.725752 255.708786 
L 306.390647 252.69624 
L 308.055542 199.848242 
L 309.720437 253.310225 
L 311.385332 263.295312 
L 313.050227 245.415012 
L 314.715122 261.202129 
L 316.380017 260.124427 
L 318.044913 255.889237 
L 319.709808 237.551757 
L 321.374703 260.592825 
L 323.039598 256.411544 
L 324.704493 227.741068 
L 326.369388 255.960013 
L 328.034283 257.540412 
L 329.699178 262.622333 
L 331.364073 262.215592 
L 333.028969 263.540325 
L 334.693864 248.755533 
L 336.358759 231.651107 
L 338.023654 249.161225 
L 339.688549 263.770004 
L 341.353444 261.32286 
L 343.018339 202.946333 
L 344.683234 250.235215 
L 346.348129 262.514999 
L 348.013024 256.791169 
L 349.67792 260.935649 
L 351.342815 252.901466 
L 353.00771 260.422785 
L 354.672605 261.952663 
L 356.3375 252.315808 
L 358.002395 258.598503 
L 359.66729 250.892134 
L 361.332185 262.228908 
L 362.99708 262.932715 
L 364.661976 261.647688 
L 366.326871 256.060569 
L 367.991766 262.970323 
L 369.656661 263.761853 
L 371.321556 262.118668 
L 372.986451 260.799101 
L 374.651346 262.781317 
L 376.316241 240.644683 
L 377.981136 261.562224 
L 379.646031 263.875402 
L 381.310927 264.298768 
L 382.975822 259.202723 
L 384.640717 250.295984 
L 386.305612 255.463127 
L 387.970507 263.274087 
L 389.635402 257.18064 
L 391.300297 259.580008 
L 392.965192 263.361569 
L 394.630087 264.324108 
L 396.294983 264.035193 
L 397.959878 153.864158 
L 399.624773 259.723093 
L 399.624773 259.723093 
" style="fill:none;stroke:#ff7f0e;stroke-linecap:square;stroke-width:1.5;"/>
   </g>
   <g id="line2d_19">
    <path clip-path="url(#pfbb299967c)" d="M 74.970227 264.326771 
L 76.635122 257.059747 
L 78.300017 232.270177 
L 79.964913 228.06638 
L 81.629808 260.603639 
L 84.959598 263.552672 
L 86.624493 258.320241 
L 88.289388 261.64672 
L 89.954283 264.427004 
L 91.619178 262.420496 
L 93.284073 231.17819 
L 94.948969 263.099447 
L 96.613864 264.022846 
L 98.278759 262.10616 
L 99.943654 260.414553 
L 101.608549 262.805205 
L 103.273444 260.568453 
L 104.938339 251.37756 
L 106.603234 264.064407 
L 108.268129 262.530494 
L 109.933024 264.310227 
L 111.59792 263.377306 
L 113.262815 263.954329 
L 114.92771 261.118925 
L 116.592605 261.408728 
L 118.2575 263.777429 
L 119.922395 264.12792 
L 121.58729 262.945628 
L 123.252185 252.4183 
L 124.91708 264.370674 
L 126.581976 252.054654 
L 128.246871 250.447866 
L 129.911766 263.945694 
L 131.576661 251.434859 
L 133.241556 255.513082 
L 134.906451 260.596779 
L 136.571346 256.769702 
L 138.236241 262.492806 
L 139.901136 264.056983 
L 141.566031 264.441692 
L 143.230927 255.153794 
L 144.895822 261.022163 
L 146.560717 262.606515 
L 148.225612 264.365347 
L 149.890507 259.682903 
L 151.555402 262.971533 
L 153.220297 259.144133 
L 154.885192 259.531909 
L 156.550087 215.738013 
L 158.214983 261.704341 
L 159.879878 262.852658 
L 161.544773 256.388221 
L 163.209668 262.622172 
L 164.874563 263.026572 
L 166.539458 263.136086 
L 168.204353 263.687365 
L 169.869248 250.312609 
L 171.534143 263.044488 
L 173.199038 264.431846 
L 174.863934 261.488704 
L 176.528829 264.468162 
L 178.193724 246.778401 
L 179.858619 241.021483 
L 181.523514 262.921982 
L 183.188409 264.195065 
L 184.853304 255.28429 
L 186.518199 257.211226 
L 188.183094 262.411619 
L 189.84799 246.304919 
L 191.512885 263.203876 
L 193.17778 262.508543 
L 194.842675 247.115576 
L 196.50757 263.449696 
L 198.172465 244.204312 
L 199.83736 257.303227 
L 201.502255 263.587617 
L 203.16715 262.899385 
L 204.832045 264.486563 
L 206.496941 263.896869 
L 208.161836 262.778331 
L 209.826731 261.218028 
L 211.491626 259.062381 
L 213.156521 261.976228 
L 214.821416 249.653995 
L 216.486311 257.949574 
L 218.151206 263.512402 
L 219.816101 264.45299 
L 221.480997 263.881051 
L 223.145892 263.785984 
L 224.810787 264.358488 
L 226.475682 264.415948 
L 228.140577 264.260273 
L 229.805472 259.76288 
L 231.470367 252.245274 
L 233.135262 264.305466 
L 234.800157 251.687215 
L 236.465052 264.459366 
L 238.129948 264.352193 
L 239.794843 263.176679 
L 241.459738 256.740891 
L 243.124633 260.773357 
L 244.789528 264.098787 
L 248.119318 264.360424 
L 249.784213 264.083453 
L 251.449108 263.594396 
L 253.114003 261.010541 
L 254.778899 263.847237 
L 256.443794 263.813665 
L 258.108689 263.96022 
L 259.773584 262.696095 
L 261.438479 264.127033 
L 263.103374 262.10963 
L 264.768269 264.332259 
L 266.433164 259.652075 
L 268.098059 262.899789 
L 269.762955 257.068947 
L 271.42785 263.52023 
L 274.75764 263.951827 
L 276.422535 261.847831 
L 278.08743 262.514595 
L 279.752325 261.133694 
L 281.41722 259.159467 
L 283.082115 263.375046 
L 284.74701 253.19708 
L 286.411906 259.079087 
L 288.076801 245.525978 
L 289.741696 263.422983 
L 291.406591 262.585129 
L 293.071486 259.564513 
L 294.736381 264.402148 
L 296.401276 264.509966 
L 298.066171 260.732844 
L 299.731066 263.700277 
L 301.395962 263.054495 
L 303.060857 264.449359 
L 304.725752 263.139717 
L 306.390647 262.305576 
L 308.055542 263.800994 
L 309.720437 261.492578 
L 311.385332 264.264388 
L 313.050227 262.992274 
L 314.715122 263.148433 
L 316.380017 263.018502 
L 318.044913 264.086036 
L 319.709808 248.956805 
L 321.374703 263.324688 
L 323.039598 263.832065 
L 324.704493 263.082257 
L 326.369388 264.158668 
L 328.034283 261.952663 
L 329.699178 263.684944 
L 331.364073 263.86596 
L 333.028969 263.845623 
L 334.693864 256.068719 
L 336.358759 257.58617 
L 338.023654 262.959831 
L 339.688549 264.380035 
L 341.353444 264.369544 
L 343.018339 250.61484 
L 344.683234 260.961232 
L 346.348129 262.720952 
L 349.67792 263.447517 
L 353.00771 256.20091 
L 354.672605 264.180861 
L 356.3375 261.854852 
L 358.002395 263.346477 
L 359.66729 262.799153 
L 361.332185 263.636522 
L 362.99708 263.422338 
L 364.661976 263.884844 
L 366.326871 260.629867 
L 367.991766 263.311372 
L 369.656661 263.993712 
L 371.321556 263.684298 
L 372.986451 264.241227 
L 374.651346 262.949179 
L 376.316241 255.471924 
L 377.981136 263.647659 
L 379.646031 263.662428 
L 381.310927 264.45638 
L 384.640717 263.340667 
L 386.305612 259.203853 
L 387.970507 263.119542 
L 389.635402 263.563325 
L 391.300297 261.341341 
L 392.965192 264.48745 
L 394.630087 264.337344 
L 396.294983 264.416593 
L 397.959878 253.837697 
L 399.624773 262.171206 
L 399.624773 262.171206 
" style="fill:none;stroke:#2ca02c;stroke-linecap:square;stroke-width:1.5;"/>
   </g>
   <g id="line2d_20">
    <path clip-path="url(#pfbb299967c)" d="M 74.970227 263.380937 
L 76.635122 256.294202 
L 78.300017 254.520521 
L 79.964913 210.447394 
L 81.629808 253.679358 
L 83.294703 263.484721 
L 84.959598 262.421222 
L 86.624493 263.515065 
L 88.289388 259.355251 
L 89.954283 260.136048 
L 91.619178 262.511851 
L 93.284073 255.331986 
L 94.948969 256.493134 
L 96.613864 264.060292 
L 98.278759 263.006639 
L 99.943654 254.638347 
L 101.608549 263.427583 
L 103.273444 258.729725 
L 104.938339 262.989449 
L 106.603234 263.613361 
L 108.268129 259.142035 
L 109.933024 264.335891 
L 111.59792 263.717467 
L 113.262815 263.631357 
L 114.92771 262.32333 
L 116.592605 258.368743 
L 118.2575 264.218469 
L 119.922395 262.671562 
L 121.58729 263.735464 
L 123.252185 258.625942 
L 124.91708 263.506672 
L 126.581976 240.648879 
L 128.246871 254.761015 
L 129.911766 264.269634 
L 131.576661 262.898578 
L 133.241556 260.436101 
L 134.906451 258.620051 
L 136.571346 258.152379 
L 138.236241 264.088295 
L 139.901136 263.361892 
L 141.566031 264.038502 
L 143.230927 260.857449 
L 144.895822 262.952407 
L 146.560717 263.849335 
L 148.225612 264.319024 
L 149.890507 255.390495 
L 151.555402 254.658846 
L 153.220297 239.404688 
L 154.885192 260.543274 
L 156.550087 253.918722 
L 158.214983 260.211667 
L 159.879878 254.31247 
L 161.544773 257.310086 
L 163.209668 259.889986 
L 164.874563 263.94634 
L 166.539458 263.301365 
L 168.204353 263.708025 
L 169.869248 258.830281 
L 171.534143 263.422983 
L 173.199038 263.058288 
L 174.863934 260.724209 
L 176.528829 264.446776 
L 179.858619 253.742064 
L 181.523514 262.607484 
L 183.188409 263.742485 
L 184.853304 258.118242 
L 186.518199 256.164675 
L 188.183094 260.48775 
L 189.84799 256.290974 
L 191.512885 257.545819 
L 193.17778 259.388339 
L 194.842675 257.434368 
L 196.50757 263.525556 
L 198.172465 253.415865 
L 199.83736 261.173803 
L 201.502255 260.020159 
L 203.16715 261.221094 
L 204.832045 264.454927 
L 206.496941 262.460363 
L 208.161836 263.479879 
L 209.826731 259.259941 
L 211.491626 262.296456 
L 213.156521 263.138184 
L 214.821416 256.519685 
L 216.486311 263.429036 
L 218.151206 263.732478 
L 219.816101 264.48632 
L 221.480997 263.989596 
L 223.145892 264.036081 
L 224.810787 263.89929 
L 226.475682 263.367944 
L 228.140577 264.417239 
L 229.805472 257.20372 
L 231.470367 261.590228 
L 233.135262 264.399646 
L 234.800157 252.447918 
L 236.465052 264.050123 
L 238.129948 264.351063 
L 239.794843 263.15384 
L 241.459738 257.9871 
L 243.124633 261.155725 
L 244.789528 263.973052 
L 246.454423 264.188528 
L 248.119318 264.263985 
L 249.784213 263.366411 
L 251.449108 263.629824 
L 253.114003 261.588614 
L 254.778899 264.109439 
L 256.443794 263.391752 
L 258.108689 264.040519 
L 259.773584 262.25893 
L 261.438479 264.354695 
L 263.103374 262.515644 
L 264.768269 264.271652 
L 266.433164 253.243565 
L 268.098059 264.058032 
L 269.762955 261.108676 
L 271.42785 260.839613 
L 274.75764 264.42426 
L 278.08743 262.38878 
L 279.752325 240.300244 
L 281.41722 257.852973 
L 283.082115 264.135264 
L 284.74701 254.770941 
L 286.411906 260.1764 
L 288.076801 255.875356 
L 289.741696 262.584322 
L 291.406591 264.098706 
L 293.071486 261.859855 
L 294.736381 263.774443 
L 296.401276 264.060534 
L 298.066171 261.994709 
L 299.731066 264.141236 
L 301.395962 263.795022 
L 303.060857 264.499314 
L 304.725752 262.808998 
L 306.390647 262.46464 
L 308.055542 261.085676 
L 309.720437 262.906083 
L 311.385332 264.120254 
L 313.050227 263.194514 
L 314.715122 263.938431 
L 316.380017 262.014966 
L 318.044913 263.371172 
L 319.709808 247.886931 
L 321.374703 264.130503 
L 323.039598 263.061032 
L 324.704493 254.139202 
L 326.369388 261.405661 
L 328.034283 261.967593 
L 329.699178 263.980073 
L 333.028969 264.173598 
L 334.693864 258.460502 
L 336.358759 262.345765 
L 338.023654 263.641284 
L 339.688549 263.862812 
L 341.353444 263.122851 
L 343.018339 240.372876 
L 344.683234 263.240273 
L 346.348129 263.153921 
L 348.013024 261.791662 
L 349.67792 263.884199 
L 351.342815 263.574059 
L 353.00771 258.524822 
L 354.672605 264.003719 
L 356.3375 262.758317 
L 358.002395 263.181844 
L 359.66729 260.417942 
L 361.332185 263.24794 
L 362.99708 264.08886 
L 366.326871 263.539679 
L 367.991766 264.157942 
L 369.656661 264.348077 
L 371.321556 264.086681 
L 372.986451 263.544279 
L 374.651346 264.007351 
L 376.316241 257.760972 
L 377.981136 263.323477 
L 381.310927 264.396499 
L 382.975822 264.143415 
L 384.640717 263.053688 
L 386.305612 263.743453 
L 387.970507 263.155454 
L 389.635402 263.538388 
L 391.300297 263.640396 
L 394.630087 264.484464 
L 396.294983 264.324915 
L 397.959878 263.845623 
L 399.624773 262.013917 
L 399.624773 262.013917 
" style="fill:none;stroke:#d62728;stroke-linecap:square;stroke-width:1.5;"/>
   </g>
   <g id="line2d_21">
    <path clip-path="url(#pfbb299967c)" d="M 74.970227 259.116936 
L 76.635122 260.044451 
L 78.300017 251.419848 
L 79.964913 212.887195 
L 81.629808 259.052778 
L 83.294703 259.735522 
L 84.959598 262.909473 
L 86.624493 259.964475 
L 88.289388 261.360306 
L 89.954283 261.701033 
L 91.619178 263.241241 
L 93.284073 257.384978 
L 94.948969 261.29752 
L 96.613864 262.572217 
L 98.278759 257.33696 
L 99.943654 248.278177 
L 101.608549 262.818683 
L 103.273444 260.530523 
L 104.938339 255.96429 
L 106.603234 264.129373 
L 108.268129 260.521645 
L 109.933024 264.117913 
L 113.262815 264.326368 
L 114.92771 262.871543 
L 116.592605 262.706506 
L 118.2575 260.451676 
L 119.922395 263.115668 
L 121.58729 262.139328 
L 123.252185 254.35605 
L 124.91708 264.001298 
L 126.581976 242.22613 
L 128.246871 244.995035 
L 129.911766 263.07572 
L 131.576661 260.49348 
L 133.241556 259.181902 
L 134.906451 257.638465 
L 136.571346 258.712455 
L 138.236241 262.75065 
L 139.901136 263.868946 
L 141.566031 263.945533 
L 143.230927 260.041868 
L 144.895822 259.590983 
L 146.560717 262.756542 
L 148.225612 263.612312 
L 149.890507 260.379609 
L 151.555402 255.406474 
L 153.220297 252.535884 
L 154.885192 263.56276 
L 156.550087 225.656843 
L 158.214983 263.26061 
L 159.879878 256.074934 
L 161.544773 258.111705 
L 163.209668 263.716418 
L 164.874563 264.209349 
L 166.539458 263.713916 
L 168.204353 264.148015 
L 169.869248 261.41583 
L 171.534143 263.193142 
L 173.199038 262.913024 
L 174.863934 262.504588 
L 176.528829 264.366558 
L 178.193724 238.590883 
L 179.858619 259.920653 
L 181.523514 262.585452 
L 183.188409 264.090474 
L 184.853304 255.841865 
L 186.518199 255.283726 
L 188.183094 257.41387 
L 189.84799 257.056277 
L 191.512885 254.568459 
L 193.17778 261.337548 
L 194.842675 238.858493 
L 196.50757 263.632971 
L 198.172465 253.871673 
L 199.83736 260.655692 
L 201.502255 255.279126 
L 203.16715 261.257653 
L 204.832045 263.829886 
L 206.496941 262.5932 
L 208.161836 263.175469 
L 209.826731 262.89075 
L 211.491626 240.142228 
L 213.156521 255.245553 
L 214.821416 259.032844 
L 216.486311 262.036594 
L 218.151206 263.929392 
L 219.816101 264.488096 
L 221.480997 263.942304 
L 223.145892 264.04399 
L 224.810787 263.638621 
L 226.475682 262.911491 
L 228.140577 264.484222 
L 229.805472 261.53535 
L 231.470367 253.502458 
L 233.135262 264.107341 
L 234.800157 244.765033 
L 236.465052 263.490935 
L 238.129948 264.333954 
L 239.794843 261.993741 
L 241.459738 255.410994 
L 243.124633 258.538944 
L 244.789528 264.268262 
L 248.119318 264.28295 
L 249.784213 263.512886 
L 251.449108 263.590441 
L 253.114003 262.202034 
L 254.778899 263.865556 
L 256.443794 264.123482 
L 258.108689 264.051253 
L 259.773584 263.180956 
L 261.438479 264.29901 
L 263.103374 260.29358 
L 264.768269 263.940045 
L 266.433164 261.539466 
L 268.098059 263.338649 
L 269.762955 262.734913 
L 271.42785 263.666544 
L 273.092745 263.742081 
L 274.75764 264.143173 
L 276.422535 264.044151 
L 278.08743 262.685927 
L 279.752325 245.620722 
L 281.41722 259.77442 
L 283.082115 264.085148 
L 284.74701 243.963334 
L 286.411906 253.320232 
L 288.076801 257.098969 
L 289.741696 264.332986 
L 291.406591 264.060776 
L 293.071486 262.896318 
L 294.736381 264.139622 
L 296.401276 264.195549 
L 298.066171 262.772359 
L 299.731066 264.130826 
L 301.395962 263.942789 
L 303.060857 264.207493 
L 304.725752 264.045442 
L 306.390647 260.235474 
L 308.055542 262.606838 
L 309.720437 259.930095 
L 311.385332 263.987256 
L 313.050227 260.680226 
L 314.715122 263.933104 
L 316.380017 264.326529 
L 318.044913 263.675018 
L 319.709808 252.492224 
L 321.374703 264.136071 
L 323.039598 263.085001 
L 324.704493 254.75472 
L 326.369388 262.034011 
L 328.034283 261.281056 
L 329.699178 262.983558 
L 331.364073 264.259304 
L 333.028969 264.359375 
L 334.693864 254.592992 
L 336.358759 256.069607 
L 338.023654 263.703506 
L 339.688549 263.722713 
L 341.353444 263.240918 
L 343.018339 259.204256 
L 344.683234 262.671078 
L 346.348129 262.919884 
L 348.013024 263.793166 
L 349.67792 264.384474 
L 351.342815 264.083615 
L 353.00771 259.223222 
L 354.672605 264.213546 
L 356.3375 262.738383 
L 358.002395 263.636442 
L 359.66729 262.730071 
L 361.332185 264.023895 
L 362.99708 264.298203 
L 364.661976 263.797605 
L 366.326871 263.67873 
L 367.991766 264.37027 
L 369.656661 264.302238 
L 371.321556 264.021474 
L 372.986451 262.86323 
L 374.651346 264.050527 
L 376.316241 258.158916 
L 377.981136 263.741274 
L 379.646031 263.393366 
L 381.310927 264.255995 
L 382.975822 264.029786 
L 384.640717 263.415317 
L 386.305612 262.619589 
L 387.970507 264.167707 
L 389.635402 264.106776 
L 391.300297 261.969046 
L 392.965192 264.351628 
L 394.630087 264.457671 
L 396.294983 264.412558 
L 397.959878 261.97639 
L 399.624773 262.945386 
L 399.624773 262.945386 
" style="fill:none;stroke:#9467bd;stroke-linecap:square;stroke-width:1.5;"/>
   </g>
   <g id="line2d_22">
    <path clip-path="url(#pfbb299967c)" d="M 74.970227 250.805056 
L 76.635122 254.574431 
L 78.300017 221.145327 
L 79.964913 220.94349 
L 81.629808 259.339353 
L 83.294703 263.441787 
L 84.959598 261.33779 
L 86.624493 257.6425 
L 88.289388 261.66738 
L 89.954283 262.525006 
L 91.619178 262.577059 
L 93.284073 257.92738 
L 94.948969 249.436986 
L 96.613864 263.817861 
L 98.278759 256.951848 
L 99.943654 257.568335 
L 101.608549 263.459138 
L 103.273444 262.598445 
L 104.938339 260.720093 
L 106.603234 263.785499 
L 108.268129 263.782675 
L 111.59792 264.214353 
L 113.262815 263.984996 
L 114.92771 263.308063 
L 116.592605 259.162937 
L 118.2575 259.026872 
L 119.922395 263.42024 
L 121.58729 263.062889 
L 123.252185 249.610012 
L 124.91708 263.759594 
L 126.581976 238.757453 
L 128.246871 259.806136 
L 129.911766 263.185395 
L 131.576661 259.561285 
L 133.241556 257.83199 
L 134.906451 260.931211 
L 136.571346 258.686549 
L 138.236241 263.993308 
L 139.901136 263.477054 
L 141.566031 264.297396 
L 143.230927 260.445462 
L 144.895822 263.002119 
L 146.560717 263.180876 
L 148.225612 264.128162 
L 149.890507 260.409711 
L 151.555402 255.925311 
L 153.220297 243.339826 
L 154.885192 261.945077 
L 156.550087 240.574713 
L 158.214983 262.082917 
L 159.879878 237.627859 
L 161.544773 260.83582 
L 163.209668 263.159651 
L 164.874563 264.020344 
L 166.539458 263.522167 
L 168.204353 264.367284 
L 169.869248 258.592289 
L 171.534143 263.095977 
L 173.199038 263.649677 
L 174.863934 263.132293 
L 176.528829 264.215967 
L 178.193724 253.540469 
L 179.858619 256.622823 
L 181.523514 262.448096 
L 183.188409 264.289083 
L 184.853304 260.075602 
L 186.518199 260.523259 
L 188.183094 255.144594 
L 189.84799 260.193831 
L 191.512885 255.455864 
L 193.17778 256.514601 
L 194.842675 250.721528 
L 196.50757 263.812777 
L 198.172465 247.811474 
L 199.83736 258.960051 
L 201.502255 255.493794 
L 203.16715 262.402822 
L 204.832045 264.428053 
L 206.496941 261.253295 
L 208.161836 263.623449 
L 209.826731 261.187603 
L 211.491626 257.071288 
L 213.156521 261.925709 
L 214.821416 259.507295 
L 216.486311 261.191315 
L 218.151206 263.671225 
L 219.816101 264.520458 
L 221.480997 263.691158 
L 223.145892 263.05506 
L 224.810787 263.858212 
L 226.475682 262.678502 
L 228.140577 264.336779 
L 229.805472 263.403131 
L 231.470367 255.077611 
L 233.135262 264.028737 
L 234.800157 249.092709 
L 236.465052 263.944403 
L 238.129948 264.35526 
L 239.794843 263.017292 
L 241.459738 256.193566 
L 243.124633 259.243478 
L 244.789528 264.165205 
L 246.454423 263.976361 
L 248.119318 264.371158 
L 249.784213 263.784692 
L 251.449108 264.05319 
L 253.114003 262.806012 
L 254.778899 264.110811 
L 256.443794 264.410944 
L 258.108689 263.10905 
L 259.773584 263.651775 
L 261.438479 264.46679 
L 263.103374 262.693109 
L 264.768269 264.266729 
L 266.433164 259.861498 
L 268.098059 263.894206 
L 269.762955 261.938379 
L 271.42785 263.84296 
L 273.092745 263.250038 
L 274.75764 264.235093 
L 276.422535 264.206283 
L 278.08743 263.047716 
L 279.752325 249.837593 
L 281.41722 262.409682 
L 283.082115 263.803335 
L 284.74701 258.853765 
L 286.411906 260.859708 
L 288.076801 258.949478 
L 289.741696 264.385362 
L 291.406591 264.251557 
L 293.071486 261.98906 
L 294.736381 264.227669 
L 296.401276 264.284161 
L 298.066171 263.829805 
L 299.731066 264.438706 
L 301.395962 263.528704 
L 303.060857 264.495117 
L 304.725752 263.109615 
L 306.390647 263.175307 
L 308.055542 261.76511 
L 309.720437 262.058222 
L 311.385332 264.283354 
L 313.050227 263.091134 
L 314.715122 264.197002 
L 316.380017 263.675825 
L 318.044913 263.501588 
L 319.709808 259.394472 
L 321.374703 264.032207 
L 323.039598 262.794391 
L 324.704493 262.53348 
L 326.369388 263.922532 
L 328.034283 260.425528 
L 329.699178 263.447113 
L 331.364073 264.26116 
L 333.028969 264.210721 
L 334.693864 260.454904 
L 336.358759 259.904432 
L 338.023654 263.472293 
L 339.688549 264.457268 
L 341.353444 263.92229 
L 343.018339 250.981714 
L 344.683234 263.342684 
L 346.348129 263.013499 
L 348.013024 263.196613 
L 349.67792 264.322494 
L 351.342815 263.733769 
L 353.00771 259.856333 
L 354.672605 264.13357 
L 356.3375 262.898175 
L 358.002395 264.07159 
L 361.332185 264.268988 
L 362.99708 264.385846 
L 364.661976 264.148177 
L 366.326871 263.782191 
L 367.991766 264.277462 
L 369.656661 264.271167 
L 371.321556 264.134457 
L 372.986451 263.270375 
L 374.651346 264.090071 
L 376.316241 255.461998 
L 377.981136 264.009126 
L 379.646031 263.279252 
L 381.310927 264.431443 
L 382.975822 264.145514 
L 384.640717 262.361745 
L 386.305612 262.835307 
L 387.970507 264.173033 
L 389.635402 264.102822 
L 391.300297 263.542262 
L 392.965192 264.263339 
L 394.630087 264.50351 
L 396.294983 264.520942 
L 397.959878 262.788661 
L 399.624773 257.796077 
L 399.624773 257.796077 
" style="fill:none;stroke:#8c564b;stroke-linecap:square;stroke-width:1.5;"/>
   </g>
   <g id="line2d_23">
    <path clip-path="url(#pfbb299967c)" d="M 74.970227 259.373813 
L 76.635122 260.169136 
L 78.300017 243.647545 
L 79.964913 249.35822 
L 81.629808 261.719514 
L 83.294703 263.568974 
L 84.959598 263.287242 
L 86.624493 263.205893 
L 88.289388 263.240918 
L 91.619178 264.085309 
L 93.284073 261.992934 
L 94.948969 262.710299 
L 96.613864 263.958203 
L 98.278759 263.165461 
L 99.943654 261.032331 
L 101.608549 264.381407 
L 103.273444 263.66953 
L 104.938339 260.972531 
L 106.603234 264.305789 
L 108.268129 262.023762 
L 109.933024 264.283596 
L 111.59792 264.437092 
L 113.262815 264.168998 
L 114.92771 264.028979 
L 116.592605 262.250052 
L 118.2575 262.807546 
L 119.922395 264.012193 
L 121.58729 263.863377 
L 123.252185 263.320572 
L 124.91708 264.370674 
L 126.581976 254.541827 
L 128.246871 263.486981 
L 129.911766 263.869995 
L 131.576661 263.605048 
L 133.241556 263.664203 
L 134.906451 263.89235 
L 136.571346 262.744759 
L 138.236241 264.416997 
L 139.901136 264.319024 
L 141.566031 263.802285 
L 143.230927 262.220354 
L 144.895822 263.956912 
L 146.560717 263.967968 
L 148.225612 264.447583 
L 149.890507 260.665134 
L 151.555402 261.572393 
L 153.220297 258.476804 
L 154.885192 263.583582 
L 156.550087 254.721148 
L 158.214983 263.560904 
L 159.879878 261.532445 
L 161.544773 259.77781 
L 163.209668 264.262774 
L 164.874563 264.411106 
L 166.539458 263.752169 
L 168.204353 264.25995 
L 169.869248 255.553837 
L 171.534143 264.127436 
L 173.199038 264.08426 
L 174.863934 262.642428 
L 176.528829 264.478008 
L 178.193724 261.656969 
L 179.858619 263.347365 
L 181.523514 263.763387 
L 183.188409 264.429748 
L 184.853304 263.456959 
L 186.518199 263.627322 
L 188.183094 254.888848 
L 189.84799 260.416006 
L 191.512885 262.759124 
L 193.17778 262.554382 
L 194.842675 259.214021 
L 196.50757 264.190546 
L 198.172465 260.070518 
L 199.83736 258.641275 
L 201.502255 261.993499 
L 203.16715 263.53742 
L 204.832045 264.482285 
L 206.496941 263.396594 
L 208.161836 264.253897 
L 209.826731 263.059741 
L 211.491626 260.63011 
L 213.156521 261.613632 
L 214.821416 259.872232 
L 216.486311 263.351481 
L 218.151206 264.447664 
L 219.816101 264.525865 
L 223.145892 264.217339 
L 224.810787 264.400695 
L 226.475682 264.298364 
L 228.140577 264.515373 
L 229.805472 262.778977 
L 231.470367 261.818293 
L 233.135262 264.442741 
L 234.800157 261.403482 
L 236.465052 264.48277 
L 239.794843 264.282466 
L 241.459738 262.310337 
L 243.124633 263.68099 
L 244.789528 264.498668 
L 246.454423 264.186349 
L 248.119318 264.431443 
L 249.784213 264.241307 
L 251.449108 264.34727 
L 253.114003 263.770731 
L 254.778899 264.39093 
L 258.108689 264.483819 
L 259.773584 264.200795 
L 261.438479 264.497377 
L 263.103374 263.637329 
L 264.768269 264.065457 
L 266.433164 263.529349 
L 268.098059 264.314747 
L 269.762955 262.771552 
L 271.42785 264.059 
L 274.75764 264.48624 
L 276.422535 264.237757 
L 278.08743 264.246634 
L 279.752325 260.927902 
L 281.41722 263.947873 
L 283.082115 264.464773 
L 284.74701 260.347086 
L 286.411906 262.023601 
L 288.076801 260.03291 
L 289.741696 264.284161 
L 291.406591 264.42886 
L 293.071486 264.274799 
L 294.736381 264.486885 
L 296.401276 264.500686 
L 298.066171 264.298687 
L 299.731066 264.49891 
L 301.395962 264.248086 
L 303.060857 264.50125 
L 304.725752 264.075948 
L 306.390647 264.341459 
L 308.055542 263.62474 
L 309.720437 263.832549 
L 311.385332 264.33234 
L 313.050227 264.26568 
L 314.715122 264.467678 
L 316.380017 264.10258 
L 318.044913 264.136636 
L 319.709808 261.10682 
L 321.374703 264.408604 
L 323.039598 264.248086 
L 324.704493 263.711253 
L 326.369388 264.183524 
L 328.034283 263.770811 
L 329.699178 264.275041 
L 331.364073 264.456057 
L 333.028969 264.462675 
L 334.693864 262.176855 
L 336.358759 263.316779 
L 338.023654 264.284241 
L 339.688549 264.520538 
L 341.353444 264.375919 
L 343.018339 254.759078 
L 344.683234 254.915318 
L 346.348129 264.245827 
L 349.67792 264.509079 
L 351.342815 264.384716 
L 353.00771 263.961108 
L 354.672605 264.48971 
L 356.3375 264.27601 
L 358.002395 264.466629 
L 374.651346 264.478331 
L 376.316241 262.566245 
L 377.981136 264.419579 
L 382.975822 264.414092 
L 384.640717 264.366477 
L 386.305612 263.707621 
L 387.970507 264.315957 
L 391.300297 264.234448 
L 392.965192 264.461141 
L 396.294983 264.53224 
L 397.959878 262.603126 
L 399.624773 262.792938 
L 399.624773 262.792938 
" style="fill:none;stroke:#e377c2;stroke-linecap:square;stroke-width:1.5;"/>
   </g>
   <g id="line2d_24">
    <path clip-path="url(#pfbb299967c)" d="M 74.970227 263.963287 
L 76.635122 263.389895 
L 78.300017 262.359969 
L 79.964913 257.46899 
L 81.629808 263.721099 
L 84.959598 264.318056 
L 86.624493 262.582305 
L 88.289388 262.815939 
L 89.954283 264.248167 
L 91.619178 264.461625 
L 93.284073 262.894301 
L 94.948969 263.42492 
L 96.613864 264.375193 
L 98.278759 264.277624 
L 99.943654 263.857163 
L 101.608549 264.444355 
L 103.273444 264.113797 
L 104.938339 263.429762 
L 106.603234 264.445646 
L 108.268129 262.879209 
L 109.933024 264.216532 
L 111.59792 264.442095 
L 113.262815 264.02446 
L 114.92771 264.141317 
L 116.592605 263.563648 
L 118.2575 263.758383 
L 119.922395 264.330484 
L 121.58729 264.406667 
L 123.252185 263.756689 
L 124.91708 264.48858 
L 126.581976 261.636228 
L 128.246871 263.327674 
L 129.911766 264.481398 
L 131.576661 264.143092 
L 133.241556 264.338958 
L 134.906451 264.231623 
L 136.571346 262.161522 
L 138.236241 264.469938 
L 141.566031 264.418772 
L 144.895822 264.002428 
L 146.560717 264.42886 
L 148.225612 264.493907 
L 149.890507 263.421208 
L 151.555402 263.961431 
L 153.220297 263.626354 
L 154.885192 264.061906 
L 156.550087 263.448082 
L 158.214983 264.223472 
L 159.879878 263.277638 
L 161.544773 263.707541 
L 163.209668 264.424341 
L 164.874563 264.500443 
L 166.539458 264.363814 
L 168.204353 264.47825 
L 169.869248 263.334856 
L 171.534143 264.372933 
L 173.199038 264.396095 
L 174.863934 262.931989 
L 176.528829 264.503591 
L 178.193724 263.231234 
L 179.858619 264.255673 
L 181.523514 263.852886 
L 183.188409 264.503107 
L 184.853304 264.290617 
L 186.518199 263.08944 
L 188.183094 261.467722 
L 189.84799 262.931424 
L 191.512885 263.941497 
L 193.17778 262.759608 
L 194.842675 262.382001 
L 196.50757 264.132682 
L 198.172465 260.486782 
L 199.83736 260.49461 
L 201.502255 258.174572 
L 203.16715 264.090878 
L 204.832045 264.446453 
L 206.496941 262.21648 
L 208.161836 263.983301 
L 209.826731 263.78784 
L 213.156521 263.832468 
L 214.821416 264.245423 
L 216.486311 264.134134 
L 218.151206 264.488903 
L 219.816101 264.535146 
L 221.480997 264.461303 
L 223.145892 264.084664 
L 224.810787 264.473408 
L 226.475682 264.105969 
L 228.140577 264.436608 
L 229.805472 262.989126 
L 233.135262 264.513921 
L 234.800157 263.520391 
L 236.465052 264.466306 
L 238.129948 264.485352 
L 239.794843 264.383505 
L 241.459738 263.394495 
L 243.124633 264.237757 
L 244.789528 264.518359 
L 246.454423 264.447664 
L 249.784213 264.473569 
L 251.449108 264.442015 
L 253.114003 264.184816 
L 254.778899 264.500928 
L 258.108689 264.447906 
L 259.773584 264.401099 
L 261.438479 264.519973 
L 263.103374 263.047878 
L 264.768269 264.127759 
L 266.433164 262.91375 
L 268.098059 264.137443 
L 269.762955 263.211462 
L 271.42785 264.137927 
L 273.092745 264.217823 
L 274.75764 264.450004 
L 276.422535 264.249136 
L 278.08743 263.114861 
L 279.752325 258.15593 
L 281.41722 263.522893 
L 283.082115 264.076271 
L 284.74701 259.739637 
L 286.411906 258.616338 
L 288.076801 256.834264 
L 289.741696 264.125903 
L 291.406591 264.100239 
L 293.071486 262.469563 
L 294.736381 264.166173 
L 296.401276 264.017439 
L 299.731066 264.475184 
L 301.395962 264.33234 
L 303.060857 264.436688 
L 304.725752 263.96361 
L 306.390647 263.322428 
L 308.055542 259.024855 
L 309.720437 263.090005 
L 311.385332 264.15544 
L 313.050227 262.987593 
L 314.715122 264.346302 
L 316.380017 263.195886 
L 318.044913 263.33526 
L 319.709808 258.431933 
L 321.374703 264.200875 
L 323.039598 263.215901 
L 324.704493 257.583184 
L 326.369388 263.699793 
L 328.034283 264.30587 
L 329.699178 264.291747 
L 331.364073 264.473327 
L 333.028969 264.196195 
L 334.693864 263.1837 
L 336.358759 263.010432 
L 338.023654 264.399 
L 339.688549 264.468243 
L 341.353444 264.175616 
L 343.018339 262.313323 
L 344.683234 263.504816 
L 346.348129 263.225504 
L 348.013024 264.394239 
L 349.67792 264.146159 
L 351.342815 264.222262 
L 353.00771 263.215739 
L 354.672605 264.171903 
L 356.3375 264.262936 
L 358.002395 264.494229 
L 359.66729 264.396902 
L 362.99708 264.477847 
L 364.661976 264.153342 
L 369.656661 264.431685 
L 372.986451 264.367607 
L 374.651346 264.17618 
L 376.316241 258.634093 
L 377.981136 264.375354 
L 379.646031 264.313698 
L 381.310927 264.516019 
L 384.640717 264.200714 
L 386.305612 263.906876 
L 387.970507 264.386895 
L 389.635402 264.38972 
L 391.300297 264.256802 
L 396.294983 264.479541 
L 397.959878 260.498322 
L 399.624773 264.222988 
L 399.624773 264.222988 
" style="fill:none;stroke:#7f7f7f;stroke-linecap:square;stroke-width:1.5;"/>
   </g>
   <g id="line2d_25">
    <path clip-path="url(#pfbb299967c)" d="M 74.970227 264.550721 
L 111.59792 264.54717 
L 208.161836 264.549107 
L 399.624773 264.545314 
L 399.624773 264.545314 
" style="fill:none;stroke:#bcbd22;stroke-linecap:square;stroke-width:1.5;"/>
   </g>
   <g id="line2d_26">
    <path clip-path="url(#pfbb299967c)" d="M 74.970227 264.550721 
L 166.539458 264.546202 
L 311.385332 264.548784 
L 399.624773 264.544507 
L 399.624773 264.544507 
" style="fill:none;stroke:#17becf;stroke-linecap:square;stroke-width:1.5;"/>
   </g>
   <g id="line2d_27">
    <path clip-path="url(#pfbb299967c)" d="M 74.970227 264.385523 
L 76.635122 264.642641 
L 79.964913 264.49891 
L 81.629808 264.428537 
L 84.959598 264.716 
L 86.624493 264.532482 
L 89.954283 264.669757 
L 91.619178 264.385523 
L 93.284073 264.559518 
L 94.948969 264.61496 
L 96.613864 264.515535 
L 98.278759 264.554353 
L 101.608549 264.423453 
L 103.273444 264.575981 
L 106.603234 264.550156 
L 111.59792 264.647645 
L 113.262815 264.532402 
L 118.2575 264.526914 
L 119.922395 264.478412 
L 121.58729 264.553626 
L 126.581976 264.478815 
L 129.911766 264.529819 
L 131.576661 264.594301 
L 134.906451 264.534419 
L 139.901136 264.489226 
L 143.230927 264.618592 
L 159.879878 264.493907 
L 161.544773 264.633522 
L 174.863934 264.545153 
L 183.188409 264.564763 
L 186.518199 264.583809 
L 189.84799 264.438706 
L 191.512885 264.654827 
L 193.17778 264.497538 
L 194.842675 264.708495 
L 196.50757 264.593493 
L 198.172465 264.662575 
L 203.16715 264.51844 
L 208.161836 264.631262 
L 211.491626 264.52304 
L 214.821416 264.619318 
L 218.151206 264.5667 
L 223.145892 264.539665 
L 228.140577 264.539907 
L 233.135262 264.568879 
L 236.465052 264.52877 
L 253.114003 264.649582 
L 254.778899 264.459043 
L 258.108689 264.594058 
L 259.773584 264.458801 
L 263.103374 264.548058 
L 273.092745 264.5391 
L 328.034283 264.598013 
L 329.699178 264.422727 
L 331.364073 264.565974 
L 341.353444 264.524331 
L 344.683234 264.554272 
L 346.348129 264.486482 
L 349.67792 264.618996 
L 353.00771 264.544265 
L 358.002395 264.526914 
L 359.66729 264.45759 
L 361.332185 264.622143 
L 364.661976 264.571623 
L 366.326871 264.654424 
L 367.991766 264.577999 
L 369.656661 264.656361 
L 371.321556 264.526591 
L 374.651346 264.565167 
L 376.316241 264.400937 
L 377.981136 264.541925 
L 387.970507 264.675568 
L 389.635402 264.520942 
L 397.959878 264.553788 
L 399.624773 264.532967 
L 399.624773 264.532967 
" style="fill:none;stroke:#1f77b4;stroke-linecap:square;stroke-width:1.5;"/>
   </g>
   <g id="line2d_28">
    <path clip-path="url(#pfbb299967c)" d="M 74.970227 264.550721 
L 399.624773 264.550721 
L 399.624773 264.550721 
" style="fill:none;stroke:#ff7f0e;stroke-linecap:square;stroke-width:1.5;"/>
   </g>
   <g id="patch_3">
    <path d="M 58.7375 276.812 
L 58.7375 10.7 
" style="fill:none;stroke:#000000;stroke-linecap:square;stroke-linejoin:miter;stroke-width:0.8;"/>
   </g>
   <g id="patch_4">
    <path d="M 415.8575 276.812 
L 415.8575 10.7 
" style="fill:none;stroke:#000000;stroke-linecap:square;stroke-linejoin:miter;stroke-width:0.8;"/>
   </g>
   <g id="patch_5">
    <path d="M 58.7375 276.812 
L 415.8575 276.812 
" style="fill:none;stroke:#000000;stroke-linecap:square;stroke-linejoin:miter;stroke-width:0.8;"/>
   </g>
   <g id="patch_6">
    <path d="M 58.7375 10.7 
L 415.8575 10.7 
" style="fill:none;stroke:#000000;stroke-linecap:square;stroke-linejoin:miter;stroke-width:0.8;"/>
   </g>
   <g id="legend_1">
    <g id="patch_7">
     <path d="M 192.120937 165.48125 
L 282.474063 165.48125 
Q 284.474063 165.48125 284.474063 163.48125 
L 284.474063 17.7 
Q 284.474063 15.7 282.474063 15.7 
L 192.120937 15.7 
Q 190.120937 15.7 190.120937 17.7 
L 190.120937 163.48125 
Q 190.120937 165.48125 192.120937 165.48125 
z
" style="fill:#ffffff;opacity:0.8;stroke:#cccccc;stroke-linejoin:miter;"/>
    </g>
    <g id="line2d_29">
     <path d="M 194.120937 23.798437 
L 214.120937 23.798437 
" style="fill:none;stroke:#1f77b4;stroke-linecap:square;stroke-width:1.5;"/>
    </g>
    <g id="line2d_30"/>
    <g id="text_17">
     <!-- delta -->
     <defs>
      <path d="M 45.40625 46.390625 
L 45.40625 75.984375 
L 54.390625 75.984375 
L 54.390625 0 
L 45.40625 0 
L 45.40625 8.203125 
Q 42.578125 3.328125 38.25 0.953125 
Q 33.9375 -1.421875 27.875 -1.421875 
Q 17.96875 -1.421875 11.734375 6.484375 
Q 5.515625 14.40625 5.515625 27.296875 
Q 5.515625 40.1875 11.734375 48.09375 
Q 17.96875 56 27.875 56 
Q 33.9375 56 38.25 53.625 
Q 42.578125 51.265625 45.40625 46.390625 
M 14.796875 27.296875 
Q 14.796875 17.390625 18.875 11.75 
Q 22.953125 6.109375 30.078125 6.109375 
Q 37.203125 6.109375 41.296875 11.75 
Q 45.40625 17.390625 45.40625 27.296875 
Q 45.40625 37.203125 41.296875 42.84375 
Q 37.203125 48.484375 30.078125 48.484375 
Q 22.953125 48.484375 18.875 42.84375 
Q 14.796875 37.203125 14.796875 27.296875 
" id="DejaVuSans-64"/>
      <path d="M 56.203125 29.59375 
L 56.203125 25.203125 
L 14.890625 25.203125 
Q 15.484375 15.921875 20.484375 11.0625 
Q 25.484375 6.203125 34.421875 6.203125 
Q 39.59375 6.203125 44.453125 7.46875 
Q 49.3125 8.734375 54.109375 11.28125 
L 54.109375 2.78125 
Q 49.265625 0.734375 44.1875 -0.34375 
Q 39.109375 -1.421875 33.890625 -1.421875 
Q 20.796875 -1.421875 13.15625 6.1875 
Q 5.515625 13.8125 5.515625 26.8125 
Q 5.515625 40.234375 12.765625 48.109375 
Q 20.015625 56 32.328125 56 
Q 43.359375 56 49.78125 48.890625 
Q 56.203125 41.796875 56.203125 29.59375 
M 47.21875 32.234375 
Q 47.125 39.59375 43.09375 43.984375 
Q 39.0625 48.390625 32.421875 48.390625 
Q 24.90625 48.390625 20.390625 44.140625 
Q 15.875 39.890625 15.1875 32.171875 
z
" id="DejaVuSans-65"/>
      <path d="M 9.421875 75.984375 
L 18.40625 75.984375 
L 18.40625 0 
L 9.421875 0 
z
" id="DejaVuSans-6c"/>
      <path d="M 18.3125 70.21875 
L 18.3125 54.6875 
L 36.8125 54.6875 
L 36.8125 47.703125 
L 18.3125 47.703125 
L 18.3125 18.015625 
Q 18.3125 11.328125 20.140625 9.421875 
Q 21.96875 7.515625 27.59375 7.515625 
L 36.8125 7.515625 
L 36.8125 0 
L 27.59375 0 
Q 17.1875 0 13.234375 3.875 
Q 9.28125 7.765625 9.28125 18.015625 
L 9.28125 47.703125 
L 2.6875 47.703125 
L 2.6875 54.6875 
L 9.28125 54.6875 
L 9.28125 70.21875 
z
" id="DejaVuSans-74"/>
      <path d="M 34.28125 27.484375 
Q 23.390625 27.484375 19.1875 25 
Q 14.984375 22.515625 14.984375 16.5 
Q 14.984375 11.71875 18.140625 8.90625 
Q 21.296875 6.109375 26.703125 6.109375 
Q 34.1875 6.109375 38.703125 11.40625 
Q 43.21875 16.703125 43.21875 25.484375 
L 43.21875 27.484375 
z
M 52.203125 31.203125 
L 52.203125 0 
L 43.21875 0 
L 43.21875 8.296875 
Q 40.140625 3.328125 35.546875 0.953125 
Q 30.953125 -1.421875 24.3125 -1.421875 
Q 15.921875 -1.421875 10.953125 3.296875 
Q 6 8.015625 6 15.921875 
Q 6 25.140625 12.171875 29.828125 
Q 18.359375 34.515625 30.609375 34.515625 
L 43.21875 34.515625 
L 43.21875 35.40625 
Q 43.21875 41.609375 39.140625 45 
Q 35.0625 48.390625 27.6875 48.390625 
Q 23 48.390625 18.546875 47.265625 
Q 14.109375 46.140625 10.015625 43.890625 
L 10.015625 52.203125 
Q 14.9375 54.109375 19.578125 55.046875 
Q 24.21875 56 28.609375 56 
Q 40.484375 56 46.34375 49.84375 
Q 52.203125 43.703125 52.203125 31.203125 
" id="DejaVuSans-61"/>
     </defs>
     <g transform="translate(222.120937 27.298437)scale(0.1 -0.1)">
      <use xlink:href="#DejaVuSans-64"/>
      <use x="63.476562" xlink:href="#DejaVuSans-65"/>
      <use x="125" xlink:href="#DejaVuSans-6c"/>
      <use x="152.783203" xlink:href="#DejaVuSans-74"/>
      <use x="191.992188" xlink:href="#DejaVuSans-61"/>
     </g>
    </g>
    <g id="line2d_31">
     <path d="M 194.120937 38.476562 
L 214.120937 38.476562 
" style="fill:none;stroke:#ff7f0e;stroke-linecap:square;stroke-width:1.5;"/>
    </g>
    <g id="line2d_32"/>
    <g id="text_18">
     <!-- lowAlpha -->
     <defs>
      <path d="M 30.609375 48.390625 
Q 23.390625 48.390625 19.1875 42.75 
Q 14.984375 37.109375 14.984375 27.296875 
Q 14.984375 17.484375 19.15625 11.84375 
Q 23.34375 6.203125 30.609375 6.203125 
Q 37.796875 6.203125 41.984375 11.859375 
Q 46.1875 17.53125 46.1875 27.296875 
Q 46.1875 37.015625 41.984375 42.703125 
Q 37.796875 48.390625 30.609375 48.390625 
M 30.609375 56 
Q 42.328125 56 49.015625 48.375 
Q 55.71875 40.765625 55.71875 27.296875 
Q 55.71875 13.875 49.015625 6.21875 
Q 42.328125 -1.421875 30.609375 -1.421875 
Q 18.84375 -1.421875 12.171875 6.21875 
Q 5.515625 13.875 5.515625 27.296875 
Q 5.515625 40.765625 12.171875 48.375 
Q 18.84375 56 30.609375 56 
" id="DejaVuSans-6f"/>
      <path d="M 4.203125 54.6875 
L 13.1875 54.6875 
L 24.421875 12.015625 
L 35.59375 54.6875 
L 46.1875 54.6875 
L 57.421875 12.015625 
L 68.609375 54.6875 
L 77.59375 54.6875 
L 63.28125 0 
L 52.6875 0 
L 40.921875 44.828125 
L 29.109375 0 
L 18.5 0 
z
" id="DejaVuSans-77"/>
      <path d="M 34.1875 63.1875 
L 20.796875 26.90625 
L 47.609375 26.90625 
z
M 28.609375 72.90625 
L 39.796875 72.90625 
L 67.578125 0 
L 57.328125 0 
L 50.6875 18.703125 
L 17.828125 18.703125 
L 11.1875 0 
L 0.78125 0 
z
" id="DejaVuSans-41"/>
      <path d="M 18.109375 8.203125 
L 18.109375 -20.796875 
L 9.078125 -20.796875 
L 9.078125 54.6875 
L 18.109375 54.6875 
L 18.109375 46.390625 
Q 20.953125 51.265625 25.265625 53.625 
Q 29.59375 56 35.59375 56 
Q 45.5625 56 51.78125 48.09375 
Q 58.015625 40.1875 58.015625 27.296875 
Q 58.015625 14.40625 51.78125 6.484375 
Q 45.5625 -1.421875 35.59375 -1.421875 
Q 29.59375 -1.421875 25.265625 0.953125 
Q 20.953125 3.328125 18.109375 8.203125 
M 48.6875 27.296875 
Q 48.6875 37.203125 44.609375 42.84375 
Q 40.53125 48.484375 33.40625 48.484375 
Q 26.265625 48.484375 22.1875 42.84375 
Q 18.109375 37.203125 18.109375 27.296875 
Q 18.109375 17.390625 22.1875 11.75 
Q 26.265625 6.109375 33.40625 6.109375 
Q 40.53125 6.109375 44.609375 11.75 
Q 48.6875 17.390625 48.6875 27.296875 
" id="DejaVuSans-70"/>
      <path d="M 54.890625 33.015625 
L 54.890625 0 
L 45.90625 0 
L 45.90625 32.71875 
Q 45.90625 40.484375 42.875 44.328125 
Q 39.84375 48.1875 33.796875 48.1875 
Q 26.515625 48.1875 22.3125 43.546875 
Q 18.109375 38.921875 18.109375 30.90625 
L 18.109375 0 
L 9.078125 0 
L 9.078125 75.984375 
L 18.109375 75.984375 
L 18.109375 46.1875 
Q 21.34375 51.125 25.703125 53.5625 
Q 30.078125 56 35.796875 56 
Q 45.21875 56 50.046875 50.171875 
Q 54.890625 44.34375 54.890625 33.015625 
" id="DejaVuSans-68"/>
     </defs>
     <g transform="translate(222.120937 41.976562)scale(0.1 -0.1)">
      <use xlink:href="#DejaVuSans-6c"/>
      <use x="27.783203" xlink:href="#DejaVuSans-6f"/>
      <use x="88.964844" xlink:href="#DejaVuSans-77"/>
      <use x="170.751953" xlink:href="#DejaVuSans-41"/>
      <use x="239.160156" xlink:href="#DejaVuSans-6c"/>
      <use x="266.943359" xlink:href="#DejaVuSans-70"/>
      <use x="330.419922" xlink:href="#DejaVuSans-68"/>
      <use x="393.798828" xlink:href="#DejaVuSans-61"/>
     </g>
    </g>
    <g id="line2d_33">
     <path d="M 194.120937 53.154687 
L 214.120937 53.154687 
" style="fill:none;stroke:#2ca02c;stroke-linecap:square;stroke-width:1.5;"/>
    </g>
    <g id="line2d_34"/>
    <g id="text_19">
     <!-- highAlpha -->
     <defs>
      <path d="M 9.421875 54.6875 
L 18.40625 54.6875 
L 18.40625 0 
L 9.421875 0 
z
M 9.421875 75.984375 
L 18.40625 75.984375 
L 18.40625 64.59375 
L 9.421875 64.59375 
z
" id="DejaVuSans-69"/>
      <path d="M 45.40625 27.984375 
Q 45.40625 37.75 41.375 43.109375 
Q 37.359375 48.484375 30.078125 48.484375 
Q 22.859375 48.484375 18.828125 43.109375 
Q 14.796875 37.75 14.796875 27.984375 
Q 14.796875 18.265625 18.828125 12.890625 
Q 22.859375 7.515625 30.078125 7.515625 
Q 37.359375 7.515625 41.375 12.890625 
Q 45.40625 18.265625 45.40625 27.984375 
M 54.390625 6.78125 
Q 54.390625 -7.171875 48.1875 -13.984375 
Q 42 -20.796875 29.203125 -20.796875 
Q 24.46875 -20.796875 20.265625 -20.09375 
Q 16.0625 -19.390625 12.109375 -17.921875 
L 12.109375 -9.1875 
Q 16.0625 -11.328125 19.921875 -12.34375 
Q 23.78125 -13.375 27.78125 -13.375 
Q 36.625 -13.375 41.015625 -8.765625 
Q 45.40625 -4.15625 45.40625 5.171875 
L 45.40625 9.625 
Q 42.625 4.78125 38.28125 2.390625 
Q 33.9375 0 27.875 0 
Q 17.828125 0 11.671875 7.65625 
Q 5.515625 15.328125 5.515625 27.984375 
Q 5.515625 40.671875 11.671875 48.328125 
Q 17.828125 56 27.875 56 
Q 33.9375 56 38.28125 53.609375 
Q 42.625 51.21875 45.40625 46.390625 
L 45.40625 54.6875 
L 54.390625 54.6875 
z
" id="DejaVuSans-67"/>
     </defs>
     <g transform="translate(222.120937 56.654687)scale(0.1 -0.1)">
      <use xlink:href="#DejaVuSans-68"/>
      <use x="63.378906" xlink:href="#DejaVuSans-69"/>
      <use x="91.162109" xlink:href="#DejaVuSans-67"/>
      <use x="154.638672" xlink:href="#DejaVuSans-68"/>
      <use x="218.017578" xlink:href="#DejaVuSans-41"/>
      <use x="286.425781" xlink:href="#DejaVuSans-6c"/>
      <use x="314.208984" xlink:href="#DejaVuSans-70"/>
      <use x="377.685547" xlink:href="#DejaVuSans-68"/>
      <use x="441.064453" xlink:href="#DejaVuSans-61"/>
     </g>
    </g>
    <g id="line2d_35">
     <path d="M 194.120937 67.832812 
L 214.120937 67.832812 
" style="fill:none;stroke:#d62728;stroke-linecap:square;stroke-width:1.5;"/>
    </g>
    <g id="line2d_36"/>
    <g id="text_20">
     <!-- lowBeta -->
     <defs>
      <path d="M 19.671875 34.8125 
L 19.671875 8.109375 
L 35.5 8.109375 
Q 43.453125 8.109375 47.28125 11.40625 
Q 51.125 14.703125 51.125 21.484375 
Q 51.125 28.328125 47.28125 31.5625 
Q 43.453125 34.8125 35.5 34.8125 
z
M 19.671875 64.796875 
L 19.671875 42.828125 
L 34.28125 42.828125 
Q 41.5 42.828125 45.03125 45.53125 
Q 48.578125 48.25 48.578125 53.8125 
Q 48.578125 59.328125 45.03125 62.0625 
Q 41.5 64.796875 34.28125 64.796875 
z
M 9.8125 72.90625 
L 35.015625 72.90625 
Q 46.296875 72.90625 52.390625 68.21875 
Q 58.5 63.53125 58.5 54.890625 
Q 58.5 48.1875 55.375 44.234375 
Q 52.25 40.28125 46.1875 39.3125 
Q 53.46875 37.75 57.5 32.78125 
Q 61.53125 27.828125 61.53125 20.40625 
Q 61.53125 10.640625 54.890625 5.3125 
Q 48.25 0 35.984375 0 
L 9.8125 0 
z
" id="DejaVuSans-42"/>
     </defs>
     <g transform="translate(222.120937 71.332812)scale(0.1 -0.1)">
      <use xlink:href="#DejaVuSans-6c"/>
      <use x="27.783203" xlink:href="#DejaVuSans-6f"/>
      <use x="88.964844" xlink:href="#DejaVuSans-77"/>
      <use x="170.751953" xlink:href="#DejaVuSans-42"/>
      <use x="239.355469" xlink:href="#DejaVuSans-65"/>
      <use x="300.878906" xlink:href="#DejaVuSans-74"/>
      <use x="340.087891" xlink:href="#DejaVuSans-61"/>
     </g>
    </g>
    <g id="line2d_37">
     <path d="M 194.120937 82.510938 
L 214.120937 82.510938 
" style="fill:none;stroke:#9467bd;stroke-linecap:square;stroke-width:1.5;"/>
    </g>
    <g id="line2d_38"/>
    <g id="text_21">
     <!-- highBeta -->
     <g transform="translate(222.120937 86.010938)scale(0.1 -0.1)">
      <use xlink:href="#DejaVuSans-68"/>
      <use x="63.378906" xlink:href="#DejaVuSans-69"/>
      <use x="91.162109" xlink:href="#DejaVuSans-67"/>
      <use x="154.638672" xlink:href="#DejaVuSans-68"/>
      <use x="218.017578" xlink:href="#DejaVuSans-42"/>
      <use x="286.621094" xlink:href="#DejaVuSans-65"/>
      <use x="348.144531" xlink:href="#DejaVuSans-74"/>
      <use x="387.353516" xlink:href="#DejaVuSans-61"/>
     </g>
    </g>
    <g id="line2d_39">
     <path d="M 194.120937 97.189062 
L 214.120937 97.189062 
" style="fill:none;stroke:#8c564b;stroke-linecap:square;stroke-width:1.5;"/>
    </g>
    <g id="line2d_40"/>
    <g id="text_22">
     <!-- lowGamma -->
     <defs>
      <path d="M 59.515625 10.40625 
L 59.515625 29.984375 
L 43.40625 29.984375 
L 43.40625 38.09375 
L 69.28125 38.09375 
L 69.28125 6.78125 
Q 63.578125 2.734375 56.6875 0.65625 
Q 49.8125 -1.421875 42 -1.421875 
Q 24.90625 -1.421875 15.25 8.5625 
Q 5.609375 18.5625 5.609375 36.375 
Q 5.609375 54.25 15.25 64.234375 
Q 24.90625 74.21875 42 74.21875 
Q 49.125 74.21875 55.546875 72.453125 
Q 61.96875 70.703125 67.390625 67.28125 
L 67.390625 56.78125 
Q 61.921875 61.421875 55.765625 63.765625 
Q 49.609375 66.109375 42.828125 66.109375 
Q 29.4375 66.109375 22.71875 58.640625 
Q 16.015625 51.171875 16.015625 36.375 
Q 16.015625 21.625 22.71875 14.15625 
Q 29.4375 6.6875 42.828125 6.6875 
Q 48.046875 6.6875 52.140625 7.59375 
Q 56.25 8.5 59.515625 10.40625 
" id="DejaVuSans-47"/>
      <path d="M 52 44.1875 
Q 55.375 50.25 60.0625 53.125 
Q 64.75 56 71.09375 56 
Q 79.640625 56 84.28125 50.015625 
Q 88.921875 44.046875 88.921875 33.015625 
L 88.921875 0 
L 79.890625 0 
L 79.890625 32.71875 
Q 79.890625 40.578125 77.09375 44.375 
Q 74.3125 48.1875 68.609375 48.1875 
Q 61.625 48.1875 57.5625 43.546875 
Q 53.515625 38.921875 53.515625 30.90625 
L 53.515625 0 
L 44.484375 0 
L 44.484375 32.71875 
Q 44.484375 40.625 41.703125 44.40625 
Q 38.921875 48.1875 33.109375 48.1875 
Q 26.21875 48.1875 22.15625 43.53125 
Q 18.109375 38.875 18.109375 30.90625 
L 18.109375 0 
L 9.078125 0 
L 9.078125 54.6875 
L 18.109375 54.6875 
L 18.109375 46.1875 
Q 21.1875 51.21875 25.484375 53.609375 
Q 29.78125 56 35.6875 56 
Q 41.65625 56 45.828125 52.96875 
Q 50 49.953125 52 44.1875 
" id="DejaVuSans-6d"/>
     </defs>
     <g transform="translate(222.120937 100.689062)scale(0.1 -0.1)">
      <use xlink:href="#DejaVuSans-6c"/>
      <use x="27.783203" xlink:href="#DejaVuSans-6f"/>
      <use x="88.964844" xlink:href="#DejaVuSans-77"/>
      <use x="170.751953" xlink:href="#DejaVuSans-47"/>
      <use x="248.242188" xlink:href="#DejaVuSans-61"/>
      <use x="309.521484" xlink:href="#DejaVuSans-6d"/>
      <use x="406.933594" xlink:href="#DejaVuSans-6d"/>
      <use x="504.345703" xlink:href="#DejaVuSans-61"/>
     </g>
    </g>
    <g id="line2d_41">
     <path d="M 194.120937 111.867188 
L 214.120937 111.867188 
" style="fill:none;stroke:#e377c2;stroke-linecap:square;stroke-width:1.5;"/>
    </g>
    <g id="line2d_42"/>
    <g id="text_23">
     <!-- midGamma -->
     <g transform="translate(222.120937 115.367188)scale(0.1 -0.1)">
      <use xlink:href="#DejaVuSans-6d"/>
      <use x="97.412109" xlink:href="#DejaVuSans-69"/>
      <use x="125.195312" xlink:href="#DejaVuSans-64"/>
      <use x="188.671875" xlink:href="#DejaVuSans-47"/>
      <use x="266.162109" xlink:href="#DejaVuSans-61"/>
      <use x="327.441406" xlink:href="#DejaVuSans-6d"/>
      <use x="424.853516" xlink:href="#DejaVuSans-6d"/>
      <use x="522.265625" xlink:href="#DejaVuSans-61"/>
     </g>
    </g>
    <g id="line2d_43">
     <path d="M 194.120937 126.545312 
L 214.120937 126.545312 
" style="fill:none;stroke:#7f7f7f;stroke-linecap:square;stroke-width:1.5;"/>
    </g>
    <g id="line2d_44"/>
    <g id="text_24">
     <!-- attention -->
     <defs>
      <path d="M 54.890625 33.015625 
L 54.890625 0 
L 45.90625 0 
L 45.90625 32.71875 
Q 45.90625 40.484375 42.875 44.328125 
Q 39.84375 48.1875 33.796875 48.1875 
Q 26.515625 48.1875 22.3125 43.546875 
Q 18.109375 38.921875 18.109375 30.90625 
L 18.109375 0 
L 9.078125 0 
L 9.078125 54.6875 
L 18.109375 54.6875 
L 18.109375 46.1875 
Q 21.34375 51.125 25.703125 53.5625 
Q 30.078125 56 35.796875 56 
Q 45.21875 56 50.046875 50.171875 
Q 54.890625 44.34375 54.890625 33.015625 
" id="DejaVuSans-6e"/>
     </defs>
     <g transform="translate(222.120937 130.045312)scale(0.1 -0.1)">
      <use xlink:href="#DejaVuSans-61"/>
      <use x="61.279297" xlink:href="#DejaVuSans-74"/>
      <use x="100.488281" xlink:href="#DejaVuSans-74"/>
      <use x="139.697266" xlink:href="#DejaVuSans-65"/>
      <use x="201.220703" xlink:href="#DejaVuSans-6e"/>
      <use x="264.599609" xlink:href="#DejaVuSans-74"/>
      <use x="303.808594" xlink:href="#DejaVuSans-69"/>
      <use x="331.591797" xlink:href="#DejaVuSans-6f"/>
      <use x="392.773438" xlink:href="#DejaVuSans-6e"/>
     </g>
    </g>
    <g id="line2d_45">
     <path d="M 194.120937 141.223437 
L 214.120937 141.223437 
" style="fill:none;stroke:#bcbd22;stroke-linecap:square;stroke-width:1.5;"/>
    </g>
    <g id="line2d_46"/>
    <g id="text_25">
     <!-- meditation -->
     <g transform="translate(222.120937 144.723437)scale(0.1 -0.1)">
      <use xlink:href="#DejaVuSans-6d"/>
      <use x="97.412109" xlink:href="#DejaVuSans-65"/>
      <use x="158.935547" xlink:href="#DejaVuSans-64"/>
      <use x="222.412109" xlink:href="#DejaVuSans-69"/>
      <use x="250.195312" xlink:href="#DejaVuSans-74"/>
      <use x="289.404297" xlink:href="#DejaVuSans-61"/>
      <use x="350.683594" xlink:href="#DejaVuSans-74"/>
      <use x="389.892578" xlink:href="#DejaVuSans-69"/>
      <use x="417.675781" xlink:href="#DejaVuSans-6f"/>
      <use x="478.857422" xlink:href="#DejaVuSans-6e"/>
     </g>
    </g>
    <g id="line2d_47">
     <path d="M 194.120937 155.901562 
L 214.120937 155.901562 
" style="fill:none;stroke:#17becf;stroke-linecap:square;stroke-width:1.5;"/>
    </g>
    <g id="line2d_48"/>
    <g id="text_26">
     <!-- rawValue -->
     <defs>
      <path d="M 41.109375 46.296875 
Q 39.59375 47.171875 37.8125 47.578125 
Q 36.03125 48 33.890625 48 
Q 26.265625 48 22.1875 43.046875 
Q 18.109375 38.09375 18.109375 28.8125 
L 18.109375 0 
L 9.078125 0 
L 9.078125 54.6875 
L 18.109375 54.6875 
L 18.109375 46.1875 
Q 20.953125 51.171875 25.484375 53.578125 
Q 30.03125 56 36.53125 56 
Q 37.453125 56 38.578125 55.875 
Q 39.703125 55.765625 41.0625 55.515625 
z
" id="DejaVuSans-72"/>
      <path d="M 28.609375 0 
L 0.78125 72.90625 
L 11.078125 72.90625 
L 34.1875 11.53125 
L 57.328125 72.90625 
L 67.578125 72.90625 
L 39.796875 0 
z
" id="DejaVuSans-56"/>
      <path d="M 8.5 21.578125 
L 8.5 54.6875 
L 17.484375 54.6875 
L 17.484375 21.921875 
Q 17.484375 14.15625 20.5 10.265625 
Q 23.53125 6.390625 29.59375 6.390625 
Q 36.859375 6.390625 41.078125 11.03125 
Q 45.3125 15.671875 45.3125 23.6875 
L 45.3125 54.6875 
L 54.296875 54.6875 
L 54.296875 0 
L 45.3125 0 
L 45.3125 8.40625 
Q 42.046875 3.421875 37.71875 1 
Q 33.40625 -1.421875 27.6875 -1.421875 
Q 18.265625 -1.421875 13.375 4.4375 
Q 8.5 10.296875 8.5 21.578125 
M 31.109375 56 
z
" id="DejaVuSans-75"/>
     </defs>
     <g transform="translate(222.120937 159.401562)scale(0.1 -0.1)">
      <use xlink:href="#DejaVuSans-72"/>
      <use x="41.113281" xlink:href="#DejaVuSans-61"/>
      <use x="102.392578" xlink:href="#DejaVuSans-77"/>
      <use x="184.179688" xlink:href="#DejaVuSans-56"/>
      <use x="252.478516" xlink:href="#DejaVuSans-61"/>
      <use x="313.757812" xlink:href="#DejaVuSans-6c"/>
      <use x="341.541016" xlink:href="#DejaVuSans-75"/>
      <use x="404.919922" xlink:href="#DejaVuSans-65"/>
     </g>
    </g>
   </g>
  </g>
 </g>
 <defs>
  <clipPath id="pfbb299967c">
   <rect height="266.112" width="357.12" x="58.7375" y="10.7"/>
  </clipPath>
 </defs>
</svg>
