<?xml version="1.0" encoding="utf-8" standalone="no"?>
<!DOCTYPE svg PUBLIC "-//W3C//DTD SVG 1.1//EN"
  "http://www.w3.org/Graphics/SVG/1.1/DTD/svg11.dtd">
<!-- Created with matplotlib (http://matplotlib.org/) -->
<svg height="300pt" version="1.1" viewBox="0 0 426 300" width="426pt" xmlns="http://www.w3.org/2000/svg" xmlns:xlink="http://www.w3.org/1999/xlink">
 <defs>
  <style type="text/css">
*{stroke-linecap:butt;stroke-linejoin:round;}
  </style>
 </defs>
 <g id="figure_1">
  <g id="patch_1">
   <path d="M 0 300.690125 
L 426.5575 300.690125 
L 426.5575 0 
L 0 0 
z
" style="fill:#ffffff;"/>
  </g>
  <g id="axes_1">
   <g id="patch_2">
    <path d="M 58.7375 276.812 
L 415.8575 276.812 
L 415.8575 10.7 
L 58.7375 10.7 
z
" style="fill:#ffffff;"/>
   </g>
   <g id="matplotlib.axis_1">
    <g id="xtick_1">
     <g id="line2d_1">
      <defs>
       <path d="M 0 0 
L 0 3.5 
" id="m7485ba9b1f" style="stroke:#000000;stroke-width:0.8;"/>
      </defs>
      <g>
       <use style="stroke:#000000;stroke-width:0.8;" x="74.970227" xlink:href="#m7485ba9b1f" y="276.812"/>
      </g>
     </g>
     <g id="text_1">
      <!-- 0 -->
      <defs>
       <path d="M 31.78125 66.40625 
Q 24.171875 66.40625 20.328125 58.90625 
Q 16.5 51.421875 16.5 36.375 
Q 16.5 21.390625 20.328125 13.890625 
Q 24.171875 6.390625 31.78125 6.390625 
Q 39.453125 6.390625 43.28125 13.890625 
Q 47.125 21.390625 47.125 36.375 
Q 47.125 51.421875 43.28125 58.90625 
Q 39.453125 66.40625 31.78125 66.40625 
M 31.78125 74.21875 
Q 44.046875 74.21875 50.515625 64.515625 
Q 56.984375 54.828125 56.984375 36.375 
Q 56.984375 17.96875 50.515625 8.265625 
Q 44.046875 -1.421875 31.78125 -1.421875 
Q 19.53125 -1.421875 13.0625 8.265625 
Q 6.59375 17.96875 6.59375 36.375 
Q 6.59375 54.828125 13.0625 64.515625 
Q 19.53125 74.21875 31.78125 74.21875 
" id="DejaVuSans-30"/>
      </defs>
      <g transform="translate(71.788977 291.410437)scale(0.1 -0.1)">
       <use xlink:href="#DejaVuSans-30"/>
      </g>
     </g>
    </g>
    <g id="xtick_2">
     <g id="line2d_2">
      <g>
       <use style="stroke:#000000;stroke-width:0.8;" x="116.807153" xlink:href="#m7485ba9b1f" y="276.812"/>
      </g>
     </g>
     <g id="text_2">
      <!-- 25 -->
      <defs>
       <path d="M 19.1875 8.296875 
L 53.609375 8.296875 
L 53.609375 0 
L 7.328125 0 
L 7.328125 8.296875 
Q 12.9375 14.109375 22.625 23.890625 
Q 32.328125 33.6875 34.8125 36.53125 
Q 39.546875 41.84375 41.421875 45.53125 
Q 43.3125 49.21875 43.3125 52.78125 
Q 43.3125 58.59375 39.234375 62.25 
Q 35.15625 65.921875 28.609375 65.921875 
Q 23.96875 65.921875 18.8125 64.3125 
Q 13.671875 62.703125 7.8125 59.421875 
L 7.8125 69.390625 
Q 13.765625 71.78125 18.9375 73 
Q 24.125 74.21875 28.421875 74.21875 
Q 39.75 74.21875 46.484375 68.546875 
Q 53.21875 62.890625 53.21875 53.421875 
Q 53.21875 48.921875 51.53125 44.890625 
Q 49.859375 40.875 45.40625 35.40625 
Q 44.1875 33.984375 37.640625 27.21875 
Q 31.109375 20.453125 19.1875 8.296875 
" id="DejaVuSans-32"/>
       <path d="M 10.796875 72.90625 
L 49.515625 72.90625 
L 49.515625 64.59375 
L 19.828125 64.59375 
L 19.828125 46.734375 
Q 21.96875 47.46875 24.109375 47.828125 
Q 26.265625 48.1875 28.421875 48.1875 
Q 40.625 48.1875 47.75 41.5 
Q 54.890625 34.8125 54.890625 23.390625 
Q 54.890625 11.625 47.5625 5.09375 
Q 40.234375 -1.421875 26.90625 -1.421875 
Q 22.3125 -1.421875 17.546875 -0.640625 
Q 12.796875 0.140625 7.71875 1.703125 
L 7.71875 11.625 
Q 12.109375 9.234375 16.796875 8.0625 
Q 21.484375 6.890625 26.703125 6.890625 
Q 35.15625 6.890625 40.078125 11.328125 
Q 45.015625 15.765625 45.015625 23.390625 
Q 45.015625 31 40.078125 35.4375 
Q 35.15625 39.890625 26.703125 39.890625 
Q 22.75 39.890625 18.8125 39.015625 
Q 14.890625 38.140625 10.796875 36.28125 
z
" id="DejaVuSans-35"/>
      </defs>
      <g transform="translate(110.444653 291.410437)scale(0.1 -0.1)">
       <use xlink:href="#DejaVuSans-32"/>
       <use x="63.623047" xlink:href="#DejaVuSans-35"/>
      </g>
     </g>
    </g>
    <g id="xtick_3">
     <g id="line2d_3">
      <g>
       <use style="stroke:#000000;stroke-width:0.8;" x="158.644079" xlink:href="#m7485ba9b1f" y="276.812"/>
      </g>
     </g>
     <g id="text_3">
      <!-- 50 -->
      <g transform="translate(152.281579 291.410437)scale(0.1 -0.1)">
       <use xlink:href="#DejaVuSans-35"/>
       <use x="63.623047" xlink:href="#DejaVuSans-30"/>
      </g>
     </g>
    </g>
    <g id="xtick_4">
     <g id="line2d_4">
      <g>
       <use style="stroke:#000000;stroke-width:0.8;" x="200.481005" xlink:href="#m7485ba9b1f" y="276.812"/>
      </g>
     </g>
     <g id="text_4">
      <!-- 75 -->
      <defs>
       <path d="M 8.203125 72.90625 
L 55.078125 72.90625 
L 55.078125 68.703125 
L 28.609375 0 
L 18.3125 0 
L 43.21875 64.59375 
L 8.203125 64.59375 
z
" id="DejaVuSans-37"/>
      </defs>
      <g transform="translate(194.118505 291.410437)scale(0.1 -0.1)">
       <use xlink:href="#DejaVuSans-37"/>
       <use x="63.623047" xlink:href="#DejaVuSans-35"/>
      </g>
     </g>
    </g>
    <g id="xtick_5">
     <g id="line2d_5">
      <g>
       <use style="stroke:#000000;stroke-width:0.8;" x="242.317931" xlink:href="#m7485ba9b1f" y="276.812"/>
      </g>
     </g>
     <g id="text_5">
      <!-- 100 -->
      <defs>
       <path d="M 12.40625 8.296875 
L 28.515625 8.296875 
L 28.515625 63.921875 
L 10.984375 60.40625 
L 10.984375 69.390625 
L 28.421875 72.90625 
L 38.28125 72.90625 
L 38.28125 8.296875 
L 54.390625 8.296875 
L 54.390625 0 
L 12.40625 0 
z
" id="DejaVuSans-31"/>
      </defs>
      <g transform="translate(232.774181 291.410437)scale(0.1 -0.1)">
       <use xlink:href="#DejaVuSans-31"/>
       <use x="63.623047" xlink:href="#DejaVuSans-30"/>
       <use x="127.246094" xlink:href="#DejaVuSans-30"/>
      </g>
     </g>
    </g>
    <g id="xtick_6">
     <g id="line2d_6">
      <g>
       <use style="stroke:#000000;stroke-width:0.8;" x="284.154857" xlink:href="#m7485ba9b1f" y="276.812"/>
      </g>
     </g>
     <g id="text_6">
      <!-- 125 -->
      <g transform="translate(274.611107 291.410437)scale(0.1 -0.1)">
       <use xlink:href="#DejaVuSans-31"/>
       <use x="63.623047" xlink:href="#DejaVuSans-32"/>
       <use x="127.246094" xlink:href="#DejaVuSans-35"/>
      </g>
     </g>
    </g>
    <g id="xtick_7">
     <g id="line2d_7">
      <g>
       <use style="stroke:#000000;stroke-width:0.8;" x="325.991783" xlink:href="#m7485ba9b1f" y="276.812"/>
      </g>
     </g>
     <g id="text_7">
      <!-- 150 -->
      <g transform="translate(316.448033 291.410437)scale(0.1 -0.1)">
       <use xlink:href="#DejaVuSans-31"/>
       <use x="63.623047" xlink:href="#DejaVuSans-35"/>
       <use x="127.246094" xlink:href="#DejaVuSans-30"/>
      </g>
     </g>
    </g>
    <g id="xtick_8">
     <g id="line2d_8">
      <g>
       <use style="stroke:#000000;stroke-width:0.8;" x="367.828709" xlink:href="#m7485ba9b1f" y="276.812"/>
      </g>
     </g>
     <g id="text_8">
      <!-- 175 -->
      <g transform="translate(358.284959 291.410437)scale(0.1 -0.1)">
       <use xlink:href="#DejaVuSans-31"/>
       <use x="63.623047" xlink:href="#DejaVuSans-37"/>
       <use x="127.246094" xlink:href="#DejaVuSans-35"/>
      </g>
     </g>
    </g>
    <g id="xtick_9">
     <g id="line2d_9">
      <g>
       <use style="stroke:#000000;stroke-width:0.8;" x="409.665635" xlink:href="#m7485ba9b1f" y="276.812"/>
      </g>
     </g>
     <g id="text_9">
      <!-- 200 -->
      <g transform="translate(400.121885 291.410437)scale(0.1 -0.1)">
       <use xlink:href="#DejaVuSans-32"/>
       <use x="63.623047" xlink:href="#DejaVuSans-30"/>
       <use x="127.246094" xlink:href="#DejaVuSans-30"/>
      </g>
     </g>
    </g>
   </g>
   <g id="matplotlib.axis_2">
    <g id="ytick_1">
     <g id="line2d_10">
      <defs>
       <path d="M 0 0 
L -3.5 0 
" id="me4cc995816" style="stroke:#000000;stroke-width:0.8;"/>
      </defs>
      <g>
       <use style="stroke:#000000;stroke-width:0.8;" x="58.7375" xlink:href="#me4cc995816" y="264.603577"/>
      </g>
     </g>
     <g id="text_10">
      <!-- 0 -->
      <g transform="translate(45.375 268.402796)scale(0.1 -0.1)">
       <use xlink:href="#DejaVuSans-30"/>
      </g>
     </g>
    </g>
    <g id="ytick_2">
     <g id="line2d_11">
      <g>
       <use style="stroke:#000000;stroke-width:0.8;" x="58.7375" xlink:href="#me4cc995816" y="226.622788"/>
      </g>
     </g>
     <g id="text_11">
      <!-- 500000 -->
      <g transform="translate(13.5625 230.422007)scale(0.1 -0.1)">
       <use xlink:href="#DejaVuSans-35"/>
       <use x="63.623047" xlink:href="#DejaVuSans-30"/>
       <use x="127.246094" xlink:href="#DejaVuSans-30"/>
       <use x="190.869141" xlink:href="#DejaVuSans-30"/>
       <use x="254.492188" xlink:href="#DejaVuSans-30"/>
       <use x="318.115234" xlink:href="#DejaVuSans-30"/>
      </g>
     </g>
    </g>
    <g id="ytick_3">
     <g id="line2d_12">
      <g>
       <use style="stroke:#000000;stroke-width:0.8;" x="58.7375" xlink:href="#me4cc995816" y="188.642"/>
      </g>
     </g>
     <g id="text_12">
      <!-- 1000000 -->
      <g transform="translate(7.2 192.441219)scale(0.1 -0.1)">
       <use xlink:href="#DejaVuSans-31"/>
       <use x="63.623047" xlink:href="#DejaVuSans-30"/>
       <use x="127.246094" xlink:href="#DejaVuSans-30"/>
       <use x="190.869141" xlink:href="#DejaVuSans-30"/>
       <use x="254.492188" xlink:href="#DejaVuSans-30"/>
       <use x="318.115234" xlink:href="#DejaVuSans-30"/>
       <use x="381.738281" xlink:href="#DejaVuSans-30"/>
      </g>
     </g>
    </g>
    <g id="ytick_4">
     <g id="line2d_13">
      <g>
       <use style="stroke:#000000;stroke-width:0.8;" x="58.7375" xlink:href="#me4cc995816" y="150.661211"/>
      </g>
     </g>
     <g id="text_13">
      <!-- 1500000 -->
      <g transform="translate(7.2 154.46043)scale(0.1 -0.1)">
       <use xlink:href="#DejaVuSans-31"/>
       <use x="63.623047" xlink:href="#DejaVuSans-35"/>
       <use x="127.246094" xlink:href="#DejaVuSans-30"/>
       <use x="190.869141" xlink:href="#DejaVuSans-30"/>
       <use x="254.492188" xlink:href="#DejaVuSans-30"/>
       <use x="318.115234" xlink:href="#DejaVuSans-30"/>
       <use x="381.738281" xlink:href="#DejaVuSans-30"/>
      </g>
     </g>
    </g>
    <g id="ytick_5">
     <g id="line2d_14">
      <g>
       <use style="stroke:#000000;stroke-width:0.8;" x="58.7375" xlink:href="#me4cc995816" y="112.680423"/>
      </g>
     </g>
     <g id="text_14">
      <!-- 2000000 -->
      <g transform="translate(7.2 116.479641)scale(0.1 -0.1)">
       <use xlink:href="#DejaVuSans-32"/>
       <use x="63.623047" xlink:href="#DejaVuSans-30"/>
       <use x="127.246094" xlink:href="#DejaVuSans-30"/>
       <use x="190.869141" xlink:href="#DejaVuSans-30"/>
       <use x="254.492188" xlink:href="#DejaVuSans-30"/>
       <use x="318.115234" xlink:href="#DejaVuSans-30"/>
       <use x="381.738281" xlink:href="#DejaVuSans-30"/>
      </g>
     </g>
    </g>
    <g id="ytick_6">
     <g id="line2d_15">
      <g>
       <use style="stroke:#000000;stroke-width:0.8;" x="58.7375" xlink:href="#me4cc995816" y="74.699634"/>
      </g>
     </g>
     <g id="text_15">
      <!-- 2500000 -->
      <g transform="translate(7.2 78.498853)scale(0.1 -0.1)">
       <use xlink:href="#DejaVuSans-32"/>
       <use x="63.623047" xlink:href="#DejaVuSans-35"/>
       <use x="127.246094" xlink:href="#DejaVuSans-30"/>
       <use x="190.869141" xlink:href="#DejaVuSans-30"/>
       <use x="254.492188" xlink:href="#DejaVuSans-30"/>
       <use x="318.115234" xlink:href="#DejaVuSans-30"/>
       <use x="381.738281" xlink:href="#DejaVuSans-30"/>
      </g>
     </g>
    </g>
    <g id="ytick_7">
     <g id="line2d_16">
      <g>
       <use style="stroke:#000000;stroke-width:0.8;" x="58.7375" xlink:href="#me4cc995816" y="36.718846"/>
      </g>
     </g>
     <g id="text_16">
      <!-- 3000000 -->
      <defs>
       <path d="M 40.578125 39.3125 
Q 47.65625 37.796875 51.625 33 
Q 55.609375 28.21875 55.609375 21.1875 
Q 55.609375 10.40625 48.1875 4.484375 
Q 40.765625 -1.421875 27.09375 -1.421875 
Q 22.515625 -1.421875 17.65625 -0.515625 
Q 12.796875 0.390625 7.625 2.203125 
L 7.625 11.71875 
Q 11.71875 9.328125 16.59375 8.109375 
Q 21.484375 6.890625 26.8125 6.890625 
Q 36.078125 6.890625 40.9375 10.546875 
Q 45.796875 14.203125 45.796875 21.1875 
Q 45.796875 27.640625 41.28125 31.265625 
Q 36.765625 34.90625 28.71875 34.90625 
L 20.21875 34.90625 
L 20.21875 43.015625 
L 29.109375 43.015625 
Q 36.375 43.015625 40.234375 45.921875 
Q 44.09375 48.828125 44.09375 54.296875 
Q 44.09375 59.90625 40.109375 62.90625 
Q 36.140625 65.921875 28.71875 65.921875 
Q 24.65625 65.921875 20.015625 65.03125 
Q 15.375 64.15625 9.8125 62.3125 
L 9.8125 71.09375 
Q 15.4375 72.65625 20.34375 73.4375 
Q 25.25 74.21875 29.59375 74.21875 
Q 40.828125 74.21875 47.359375 69.109375 
Q 53.90625 64.015625 53.90625 55.328125 
Q 53.90625 49.265625 50.4375 45.09375 
Q 46.96875 40.921875 40.578125 39.3125 
" id="DejaVuSans-33"/>
      </defs>
      <g transform="translate(7.2 40.518064)scale(0.1 -0.1)">
       <use xlink:href="#DejaVuSans-33"/>
       <use x="63.623047" xlink:href="#DejaVuSans-30"/>
       <use x="127.246094" xlink:href="#DejaVuSans-30"/>
       <use x="190.869141" xlink:href="#DejaVuSans-30"/>
       <use x="254.492188" xlink:href="#DejaVuSans-30"/>
       <use x="318.115234" xlink:href="#DejaVuSans-30"/>
       <use x="381.738281" xlink:href="#DejaVuSans-30"/>
      </g>
     </g>
    </g>
   </g>
   <g id="line2d_17">
    <path clip-path="url(#p4049c75373)" d="M 74.970227 116.621841 
L 76.643704 236.591074 
L 78.317181 62.875531 
L 79.990658 178.689362 
L 81.664135 177.388748 
L 83.337612 144.85919 
L 86.684567 223.268629 
L 88.358044 179.464626 
L 90.031521 188.941972 
L 91.704998 259.207874 
L 93.378475 221.504345 
L 95.051952 200.02036 
L 96.725429 110.762089 
L 98.398906 199.686889 
L 100.072383 226.317499 
L 101.74586 109.26952 
L 103.419337 152.890076 
L 105.092814 179.964985 
L 106.766291 252.435064 
L 108.439768 193.716765 
L 110.113245 205.587129 
L 111.786722 79.474883 
L 113.460199 238.585597 
L 115.133676 207.372302 
L 116.807153 214.529477 
L 118.48063 216.585833 
L 120.154107 152.26043 
L 121.827584 159.158577 
L 123.501061 113.768648 
L 125.174538 219.951767 
L 126.848015 119.227931 
L 128.521493 170.69904 
L 130.19497 234.626936 
L 131.868447 210.741046 
L 133.541924 182.703096 
L 135.215401 219.290825 
L 136.888878 112.068324 
L 138.562355 227.723092 
L 140.235832 51.441566 
L 141.909309 128.797646 
L 143.582786 216.32407 
L 145.256263 144.297454 
L 146.92974 190.173537 
L 148.603217 224.794849 
L 150.276694 162.668306 
L 151.950171 262.336807 
L 153.623648 151.47719 
L 155.297125 255.129269 
L 156.970602 228.419963 
L 158.644079 155.204853 
L 160.317556 186.283545 
L 161.991033 167.689746 
L 163.66451 239.92442 
L 165.337987 108.949494 
L 167.011464 185.772399 
L 168.684941 255.288561 
L 170.358418 173.640576 
L 172.031896 213.621964 
L 173.705373 206.922837 
L 175.37885 159.811619 
L 177.052327 238.826471 
L 178.725804 138.976649 
L 180.399281 247.609529 
L 182.072758 240.449542 
L 183.746235 253.479991 
L 185.419712 174.225784 
L 187.093189 76.541171 
L 188.766666 84.976172 
L 190.440143 252.354545 
L 192.11362 199.436824 
L 193.787097 247.314038 
L 195.460574 196.623662 
L 197.134051 220.985908 
L 198.807528 160.556346 
L 200.481005 216.820403 
L 202.154482 230.007028 
L 205.501436 180.637093 
L 207.174913 208.693881 
L 208.84839 169.136814 
L 210.521867 223.779698 
L 212.195344 181.186599 
L 213.868821 173.86246 
L 215.542299 245.708059 
L 217.215776 236.246133 
L 218.889253 261.901775 
L 220.56273 230.914162 
L 222.236207 251.992664 
L 223.909684 52.083138 
L 225.583161 22.796 
L 227.256638 259.081094 
L 228.930115 199.234234 
L 230.603592 175.276332 
L 232.277069 135.714859 
L 233.950546 235.855462 
L 235.624023 260.165142 
L 237.2975 256.263603 
L 238.970977 223.132734 
L 240.644454 196.583555 
L 242.317931 125.10523 
L 243.991408 193.658958 
L 245.664885 188.732242 
L 247.338362 211.72171 
L 249.011839 230.589578 
L 250.685316 144.723826 
L 252.358793 224.795305 
L 254.03227 145.524006 
L 255.705747 256.763582 
L 257.379224 203.358492 
L 259.052701 261.744155 
L 260.726179 108.848389 
L 264.073133 249.269213 
L 265.74661 199.071524 
L 267.420087 198.775274 
L 269.093564 90.332375 
L 270.767041 231.310377 
L 272.440518 261.100457 
L 274.113995 187.250232 
L 275.787472 184.15024 
L 277.460949 182.353824 
L 279.134426 52.773021 
L 280.807903 169.424101 
L 282.48138 157.921315 
L 284.154857 241.743928 
L 285.828334 244.523742 
L 287.501811 128.750246 
L 289.175288 187.516325 
L 290.848765 172.106228 
L 292.522242 257.668969 
L 294.195719 174.445996 
L 295.869196 255.442839 
L 297.542673 216.420997 
L 299.21615 218.524525 
L 300.889627 148.776984 
L 302.563104 65.508055 
L 304.236582 175.842854 
L 305.910059 247.748159 
L 307.583536 138.488444 
L 309.257013 243.780154 
L 310.93049 204.685237 
L 312.603967 159.261809 
L 314.277444 255.643377 
L 315.950921 224.631076 
L 317.624398 221.671233 
L 319.297875 253.396282 
L 320.971352 200.291391 
L 322.644829 82.470427 
L 324.318306 202.220208 
L 325.991783 216.036707 
L 327.66526 233.448164 
L 329.338737 159.257783 
L 331.012214 147.127858 
L 332.685691 174.391912 
L 334.359168 216.349517 
L 336.032645 153.063876 
L 337.706122 112.836752 
L 339.379599 145.146021 
L 341.053076 142.022861 
L 342.726553 168.381452 
L 344.40003 242.462752 
L 346.073507 198.280157 
L 347.746985 188.897459 
L 349.420462 174.465822 
L 351.093939 134.914376 
L 352.767416 169.719895 
L 354.440893 189.47659 
L 356.11437 256.654957 
L 357.787847 153.196505 
L 359.461324 250.50959 
L 361.134801 156.895454 
L 362.808278 43.612814 
L 364.481755 194.310784 
L 366.155232 252.954185 
L 367.828709 254.712164 
L 369.502186 195.856451 
L 371.175663 250.39428 
L 372.84914 140.274757 
L 374.522617 107.196453 
L 376.196094 246.508086 
L 377.869571 178.64652 
L 379.543048 91.06905 
L 381.216525 211.598348 
L 382.890002 152.398528 
L 384.563479 216.359848 
L 386.236956 143.257464 
L 387.910433 263.049707 
L 389.58391 245.108114 
L 391.257388 208.516967 
L 392.930865 205.431331 
L 394.604342 158.51184 
L 396.277819 183.196694 
L 397.951296 165.018025 
L 399.624773 173.052101 
L 399.624773 173.052101 
" style="fill:none;stroke:#1f77b4;stroke-linecap:square;stroke-width:1.5;"/>
   </g>
   <g id="line2d_18">
    <path clip-path="url(#p4049c75373)" d="M 74.970227 240.61962 
L 76.643704 258.481454 
L 78.317181 229.12557 
L 79.990658 255.041382 
L 81.664135 254.940125 
L 83.337612 256.85618 
L 85.01109 251.467389 
L 86.684567 264.345991 
L 88.358044 217.32456 
L 90.031521 254.505549 
L 91.704998 261.887799 
L 93.378475 245.022809 
L 95.051952 240.892474 
L 96.725429 259.212584 
L 98.398906 248.660457 
L 100.072383 262.817188 
L 101.74586 222.776854 
L 103.419337 254.576269 
L 105.092814 260.298682 
L 106.766291 258.442941 
L 108.439768 258.977938 
L 110.113245 254.925084 
L 111.786722 226.851281 
L 113.460199 257.604097 
L 115.133676 248.6382 
L 116.807153 243.518466 
L 118.48063 230.010295 
L 120.154107 263.550522 
L 121.827584 257.636229 
L 123.501061 205.869478 
L 125.174538 224.392936 
L 126.848015 231.447412 
L 128.521493 166.015781 
L 130.19497 256.771786 
L 131.868447 263.286707 
L 133.541924 243.747035 
L 135.215401 260.405029 
L 136.888878 232.341556 
L 138.562355 259.284975 
L 140.235832 239.903379 
L 141.909309 257.737638 
L 143.582786 263.753263 
L 145.256263 247.566459 
L 146.92974 264.062275 
L 148.603217 249.590455 
L 150.276694 259.552968 
L 151.950171 263.230951 
L 153.623648 179.503974 
L 155.297125 259.708765 
L 156.970602 263.471066 
L 158.644079 253.906288 
L 160.317556 263.614329 
L 161.991033 261.997791 
L 163.66451 263.287922 
L 165.337987 223.365404 
L 167.011464 262.436621 
L 168.684941 258.896432 
L 170.358418 246.242296 
L 172.031896 263.024791 
L 173.705373 260.728169 
L 175.37885 236.172146 
L 177.052327 263.612506 
L 178.725804 222.823114 
L 180.399281 262.408439 
L 182.072758 263.179981 
L 183.746235 262.188758 
L 185.419712 246.653476 
L 187.093189 256.007765 
L 188.766666 212.569669 
L 190.440143 264.426586 
L 192.11362 242.666557 
L 193.787097 263.984338 
L 195.460574 262.944196 
L 197.134051 262.172806 
L 198.807528 263.11792 
L 200.481005 249.417718 
L 202.154482 262.433962 
L 203.827959 253.70742 
L 205.501436 242.93417 
L 207.174913 255.148791 
L 208.84839 257.389582 
L 210.521867 258.196294 
L 212.195344 252.992622 
L 213.868821 262.369927 
L 215.542299 261.211816 
L 217.215776 262.052179 
L 218.889253 264.134894 
L 220.56273 254.692034 
L 222.236207 261.757448 
L 223.909684 210.115426 
L 225.583161 255.876579 
L 227.256638 258.512142 
L 228.930115 257.15281 
L 230.603592 261.453146 
L 232.277069 239.574237 
L 233.950546 259.652705 
L 235.624023 262.730896 
L 237.2975 256.311763 
L 238.970977 262.723756 
L 240.644454 263.86242 
L 242.317931 246.853635 
L 243.991408 237.852264 
L 247.338362 260.310229 
L 249.011839 259.263934 
L 250.685316 253.866864 
L 252.358793 252.308284 
L 254.03227 256.728412 
L 255.705747 257.514615 
L 257.379224 253.576159 
L 259.052701 258.05265 
L 260.726179 255.315071 
L 262.399656 251.811875 
L 264.073133 263.504793 
L 265.74661 260.381253 
L 267.420087 261.762234 
L 269.093564 254.502814 
L 270.767041 259.943714 
L 272.440518 260.605035 
L 274.113995 248.198763 
L 275.787472 253.807538 
L 277.460949 235.42909 
L 279.134426 209.514722 
L 280.807903 257.711051 
L 282.48138 229.761521 
L 284.154857 260.969499 
L 285.828334 252.764509 
L 287.501811 248.923816 
L 289.175288 208.136323 
L 290.848765 182.111355 
L 292.522242 261.932692 
L 294.195719 229.798134 
L 295.869196 259.090058 
L 297.542673 255.166338 
L 299.21615 256.0165 
L 300.889627 243.88574 
L 302.563104 219.986481 
L 304.236582 255.111038 
L 305.910059 263.153167 
L 307.583536 240.223785 
L 310.93049 258.042927 
L 312.603967 236.772622 
L 314.277444 262.854106 
L 315.950921 244.521007 
L 317.624398 158.554986 
L 319.297875 260.634509 
L 320.971352 249.533636 
L 322.644829 249.587112 
L 324.318306 255.818013 
L 325.991783 248.924196 
L 327.66526 239.837748 
L 329.338737 252.522496 
L 331.012214 259.756241 
L 332.685691 256.874638 
L 334.359168 263.517782 
L 336.032645 254.822536 
L 337.706122 255.966366 
L 339.379599 247.972777 
L 341.053076 256.423275 
L 342.726553 255.965378 
L 344.40003 259.22846 
L 346.073507 262.802528 
L 347.746985 263.603011 
L 349.420462 261.677233 
L 351.093939 252.295826 
L 352.767416 262.194304 
L 354.440893 261.664396 
L 356.11437 261.270003 
L 357.787847 261.853008 
L 359.461324 261.402936 
L 361.134801 258.378754 
L 362.808278 192.65034 
L 364.481755 263.463242 
L 366.155232 262.509544 
L 367.828709 262.354886 
L 369.502186 255.91927 
L 371.175663 262.570237 
L 372.84914 262.150778 
L 374.522617 243.596327 
L 376.196094 262.608218 
L 377.869571 245.111077 
L 379.543048 212.08116 
L 381.216525 258.823964 
L 382.890002 261.642443 
L 384.563479 262.248312 
L 386.236956 163.908303 
L 387.910433 257.52373 
L 389.58391 253.909402 
L 391.257388 260.069658 
L 392.930865 260.642029 
L 394.604342 247.526123 
L 396.277819 256.639461 
L 397.951296 252.916812 
L 399.624773 261.551137 
L 399.624773 261.551137 
" style="fill:none;stroke:#ff7f0e;stroke-linecap:square;stroke-width:1.5;"/>
   </g>
   <g id="line2d_19">
    <path clip-path="url(#p4049c75373)" d="M 74.970227 253.865041 
L 76.643704 263.666439 
L 78.317181 258.529765 
L 79.990658 263.162662 
L 81.664135 255.001502 
L 83.337612 260.606934 
L 85.01109 255.924967 
L 86.684567 264.284462 
L 88.358044 248.977901 
L 90.031521 261.13388 
L 91.704998 262.484401 
L 93.378475 262.311664 
L 95.051952 258.918385 
L 96.725429 259.675342 
L 98.398906 264.43988 
L 100.072383 264.252938 
L 101.74586 262.196734 
L 103.419337 256.207392 
L 105.092814 263.376797 
L 106.766291 264.118942 
L 108.439768 263.728044 
L 110.113245 260.011016 
L 111.786722 240.055986 
L 113.460199 260.353755 
L 115.133676 260.983704 
L 116.807153 255.361939 
L 118.48063 262.687902 
L 120.154107 260.916858 
L 121.827584 256.197289 
L 123.501061 259.899352 
L 125.174538 249.171223 
L 126.848015 262.296548 
L 128.521493 244.874988 
L 130.19497 263.249334 
L 131.868447 263.882322 
L 133.541924 257.201197 
L 135.215401 263.044465 
L 136.888878 263.520365 
L 138.562355 263.877992 
L 140.235832 237.340587 
L 141.909309 263.135923 
L 143.582786 263.848975 
L 145.256263 259.883628 
L 146.92974 264.368248 
L 148.603217 261.874277 
L 150.276694 261.903371 
L 151.950171 264.385643 
L 153.623648 260.212086 
L 155.297125 263.683986 
L 156.970602 264.264788 
L 158.644079 253.695267 
L 160.317556 264.325557 
L 161.991033 264.144921 
L 163.66451 264.175381 
L 165.337987 235.113697 
L 167.011464 264.2499 
L 168.684941 264.418003 
L 170.358418 263.321345 
L 172.031896 263.804689 
L 173.705373 264.519411 
L 175.37885 251.065097 
L 177.052327 264.554961 
L 178.725804 245.438167 
L 180.399281 263.951978 
L 182.072758 263.895387 
L 183.746235 262.95316 
L 185.419712 261.206651 
L 187.093189 262.681825 
L 188.766666 263.105311 
L 190.440143 264.479684 
L 192.11362 258.275066 
L 193.787097 264.388454 
L 195.460574 263.688316 
L 197.134051 263.336918 
L 198.807528 260.742146 
L 200.481005 261.162593 
L 202.154482 264.211463 
L 203.827959 263.152863 
L 205.501436 261.37445 
L 207.174913 257.786709 
L 208.84839 261.189788 
L 210.521867 262.773359 
L 212.195344 260.944888 
L 213.868821 260.910857 
L 215.542299 263.959499 
L 217.215776 264.141275 
L 218.889253 264.571217 
L 220.56273 261.136235 
L 222.236207 263.770582 
L 223.909684 251.30749 
L 225.583161 260.350792 
L 227.256638 263.854216 
L 228.930115 263.64912 
L 230.603592 258.982116 
L 232.277069 260.085914 
L 233.950546 264.09076 
L 238.970977 264.391112 
L 240.644454 262.909938 
L 242.317931 260.74526 
L 243.991408 263.846848 
L 245.664885 262.624626 
L 247.338362 264.120461 
L 249.011839 260.944204 
L 250.685316 259.21228 
L 252.358793 260.638838 
L 254.03227 260.454859 
L 255.705747 263.704875 
L 257.379224 264.198322 
L 259.052701 264.467226 
L 260.726179 257.680667 
L 262.399656 260.244522 
L 264.073133 263.972716 
L 265.74661 262.812707 
L 267.420087 261.047436 
L 269.093564 263.169954 
L 270.767041 264.382301 
L 272.440518 264.339762 
L 274.113995 263.671908 
L 275.787472 263.167295 
L 277.460949 261.335634 
L 279.134426 261.660066 
L 280.807903 256.910872 
L 284.154857 264.172039 
L 285.828334 263.393281 
L 287.501811 262.2493 
L 289.175288 253.709623 
L 290.848765 254.568673 
L 292.522242 264.186852 
L 294.195719 251.887533 
L 295.869196 264.090684 
L 297.542673 263.90944 
L 299.21615 261.926767 
L 300.889627 261.397846 
L 302.563104 263.55675 
L 304.236582 263.599973 
L 305.910059 264.503535 
L 307.583536 255.576835 
L 309.257013 264.025281 
L 310.93049 262.500277 
L 312.603967 256.56988 
L 314.277444 264.391036 
L 315.950921 259.426568 
L 317.624398 236.984099 
L 319.297875 264.352144 
L 320.971352 262.249831 
L 322.644829 263.979325 
L 324.318306 257.021244 
L 325.991783 262.730288 
L 327.66526 262.374408 
L 329.338737 262.784905 
L 331.012214 262.317057 
L 332.685691 263.307824 
L 334.359168 263.71627 
L 336.032645 262.904848 
L 337.706122 263.935799 
L 339.379599 263.963904 
L 341.053076 261.603019 
L 342.726553 263.797321 
L 344.40003 263.325751 
L 346.073507 264.011001 
L 347.746985 264.522222 
L 351.093939 259.600216 
L 352.767416 261.184318 
L 354.440893 263.484587 
L 356.11437 264.359892 
L 357.787847 263.069077 
L 359.461324 264.409267 
L 361.134801 258.990396 
L 362.808278 241.977282 
L 364.481755 263.647297 
L 366.155232 263.999075 
L 367.828709 264.049285 
L 369.502186 262.285837 
L 371.175663 264.124791 
L 372.84914 263.568676 
L 374.522617 258.588331 
L 376.196094 263.704724 
L 377.869571 261.540502 
L 379.543048 256.201163 
L 381.216525 264.164063 
L 382.890002 261.390554 
L 384.563479 263.942103 
L 386.236956 250.771581 
L 387.910433 264.250583 
L 389.58391 260.655474 
L 391.257388 264.404633 
L 392.930865 262.669139 
L 394.604342 262.772219 
L 396.277819 260.831629 
L 397.951296 256.838101 
L 399.624773 264.492293 
L 399.624773 264.492293 
" style="fill:none;stroke:#2ca02c;stroke-linecap:square;stroke-width:1.5;"/>
   </g>
   <g id="line2d_20">
    <path clip-path="url(#p4049c75373)" d="M 74.970227 209.180567 
L 76.643704 262.847877 
L 78.317181 243.977198 
L 79.990658 262.984152 
L 81.664135 259.522811 
L 83.337612 258.050599 
L 85.01109 262.986735 
L 86.684567 264.301933 
L 88.358044 261.060197 
L 90.031521 264.133223 
L 91.704998 264.42332 
L 93.378475 262.446724 
L 95.051952 263.341095 
L 96.725429 259.215926 
L 98.398906 257.814359 
L 100.072383 264.341054 
L 101.74586 260.8175 
L 103.419337 262.513038 
L 105.092814 263.119288 
L 106.766291 264.153049 
L 108.439768 261.999234 
L 110.113245 263.096727 
L 111.786722 253.825844 
L 113.460199 262.949058 
L 115.133676 263.97978 
L 116.807153 263.263007 
L 118.48063 263.149065 
L 120.154107 262.88092 
L 121.827584 263.199731 
L 123.501061 258.183076 
L 125.174538 260.464431 
L 126.848015 263.990643 
L 128.521493 255.102607 
L 130.19497 262.450978 
L 131.868447 263.651247 
L 133.541924 259.803793 
L 135.215401 263.182867 
L 136.888878 260.24475 
L 138.562355 260.530669 
L 140.235832 257.190411 
L 141.909309 261.700933 
L 143.582786 264.083316 
L 145.256263 259.795437 
L 146.92974 263.651702 
L 148.603217 263.405891 
L 150.276694 261.5048 
L 151.950171 264.261826 
L 153.623648 263.548015 
L 156.970602 264.288716 
L 158.644079 256.137279 
L 160.317556 264.106029 
L 161.991033 263.912782 
L 163.66451 263.858774 
L 165.337987 257.125919 
L 167.011464 263.958815 
L 168.684941 264.03189 
L 170.358418 262.308018 
L 172.031896 264.210552 
L 173.705373 263.661881 
L 175.37885 260.504994 
L 177.052327 264.329432 
L 178.725804 257.352589 
L 180.399281 264.322215 
L 182.072758 264.237898 
L 183.746235 264.287045 
L 185.419712 263.682847 
L 187.093189 261.248278 
L 188.766666 256.675923 
L 190.440143 264.383364 
L 192.11362 263.715662 
L 193.787097 263.852013 
L 195.460574 263.617292 
L 197.134051 263.903895 
L 198.807528 262.426442 
L 200.481005 262.392487 
L 202.154482 264.424004 
L 203.827959 260.53591 
L 205.501436 263.091258 
L 207.174913 263.460811 
L 208.84839 262.894213 
L 210.521867 262.206989 
L 212.195344 262.862613 
L 213.868821 264.031814 
L 215.542299 264.489559 
L 217.215776 263.93633 
L 218.889253 264.377591 
L 220.56273 262.546765 
L 222.236207 264.030447 
L 223.909684 259.849673 
L 225.583161 260.584374 
L 227.256638 264.451046 
L 228.930115 262.852814 
L 230.603592 263.57293 
L 232.277069 260.251358 
L 233.950546 262.86512 
L 235.624023 264.44664 
L 237.2975 264.400152 
L 238.970977 263.664008 
L 240.644454 264.045335 
L 242.317931 261.976142 
L 243.991408 263.424349 
L 245.664885 260.462456 
L 247.338362 264.034093 
L 249.011839 260.392647 
L 250.685316 263.396092 
L 252.358793 262.351088 
L 254.03227 262.475058 
L 255.705747 263.851633 
L 257.379224 260.002736 
L 259.052701 264.13064 
L 260.726179 262.286521 
L 262.399656 261.310946 
L 264.073133 264.199233 
L 265.74661 262.069878 
L 267.420087 261.149072 
L 269.093564 263.187349 
L 270.767041 262.318653 
L 272.440518 264.495787 
L 274.113995 263.026311 
L 275.787472 261.904282 
L 277.460949 263.943547 
L 279.134426 262.726718 
L 280.807903 263.870624 
L 282.48138 263.38447 
L 284.154857 264.368932 
L 285.828334 262.674988 
L 289.175288 262.495111 
L 290.848765 255.60175 
L 292.522242 264.376604 
L 294.195719 258.40177 
L 295.869196 263.957068 
L 297.542673 262.591659 
L 299.21615 264.142718 
L 300.889627 263.033755 
L 302.563104 257.4641 
L 304.236582 262.356178 
L 305.910059 264.312036 
L 307.583536 258.64986 
L 309.257013 262.010628 
L 310.93049 262.333997 
L 312.603967 263.98054 
L 314.277444 264.253774 
L 315.950921 263.749009 
L 317.624398 259.005968 
L 319.297875 264.368096 
L 320.971352 261.764285 
L 322.644829 263.100373 
L 324.318306 263.712168 
L 325.991783 263.202617 
L 327.66526 263.207023 
L 329.338737 260.914807 
L 331.012214 262.698461 
L 332.685691 261.546351 
L 334.359168 264.179028 
L 336.032645 261.605297 
L 337.706122 262.185492 
L 339.379599 263.170714 
L 341.053076 263.273262 
L 342.726553 263.152787 
L 344.40003 263.95722 
L 346.073507 264.280816 
L 347.746985 264.396278 
L 349.420462 264.28864 
L 351.093939 262.047318 
L 352.767416 261.87686 
L 354.440893 262.350101 
L 356.11437 264.368096 
L 357.787847 263.933368 
L 359.461324 264.341965 
L 361.134801 262.060991 
L 362.808278 259.201038 
L 364.481755 264.472467 
L 367.828709 264.30482 
L 369.502186 262.833216 
L 371.175663 264.093571 
L 372.84914 264.014571 
L 374.522617 258.799884 
L 376.196094 264.201056 
L 377.869571 263.113439 
L 379.543048 251.720645 
L 381.216525 262.617258 
L 382.890002 257.947596 
L 384.563479 263.672744 
L 386.236956 262.420365 
L 387.910433 264.195739 
L 389.58391 261.714682 
L 391.257388 264.360196 
L 392.930865 264.005152 
L 394.604342 260.471267 
L 396.277819 263.753795 
L 397.951296 262.015566 
L 399.624773 261.881342 
L 399.624773 261.881342 
" style="fill:none;stroke:#d62728;stroke-linecap:square;stroke-width:1.5;"/>
   </g>
   <g id="line2d_21">
    <path clip-path="url(#p4049c75373)" d="M 74.970227 252.775144 
L 76.643704 261.984574 
L 78.317181 252.222523 
L 79.990658 264.050729 
L 81.664135 258.369258 
L 83.337612 259.21509 
L 85.01109 259.699877 
L 86.684567 264.105421 
L 88.358044 260.269133 
L 90.031521 263.792155 
L 91.704998 264.261066 
L 93.378475 263.282453 
L 95.051952 261.709669 
L 96.725429 263.52986 
L 98.398906 263.477219 
L 100.072383 264.22901 
L 101.74586 262.908114 
L 103.419337 258.966848 
L 105.092814 263.227077 
L 106.766291 264.260762 
L 108.439768 262.686079 
L 110.113245 262.329591 
L 111.786722 261.661509 
L 113.460199 263.394269 
L 115.133676 262.850232 
L 116.807153 263.516795 
L 118.48063 262.561958 
L 120.154107 263.894476 
L 121.827584 261.057083 
L 123.501061 261.68726 
L 125.174538 256.046581 
L 126.848015 262.463739 
L 128.521493 259.501694 
L 130.19497 263.868193 
L 131.868447 264.442614 
L 133.541924 262.672634 
L 135.215401 263.915061 
L 136.888878 264.164215 
L 138.562355 261.257545 
L 140.235832 259.75776 
L 141.909309 263.508135 
L 143.582786 264.208425 
L 145.256263 263.616608 
L 146.92974 264.112257 
L 148.603217 262.303156 
L 151.950171 264.475658 
L 153.623648 261.91355 
L 155.297125 264.306567 
L 156.970602 263.893792 
L 158.644079 258.498013 
L 160.317556 264.254685 
L 161.991033 264.256736 
L 163.66451 264.46282 
L 165.337987 259.15227 
L 167.011464 264.393771 
L 168.684941 264.130868 
L 170.358418 263.1262 
L 172.031896 264.073213 
L 173.705373 263.980084 
L 175.37885 257.859936 
L 177.052327 264.259927 
L 178.725804 254.567761 
L 180.399281 264.037511 
L 182.072758 264.225668 
L 183.746235 264.090988 
L 185.419712 262.946247 
L 187.093189 262.157158 
L 188.766666 261.76983 
L 190.440143 264.562102 
L 192.11362 263.421007 
L 193.787097 264.322291 
L 195.460574 264.062806 
L 197.134051 264.264712 
L 198.807528 262.239045 
L 200.481005 262.839825 
L 202.154482 264.420054 
L 203.827959 262.946551 
L 205.501436 262.559071 
L 207.174913 263.313294 
L 208.84839 262.739024 
L 210.521867 262.559071 
L 212.195344 261.121574 
L 213.868821 261.590941 
L 215.542299 264.375844 
L 217.215776 264.349865 
L 218.889253 264.525185 
L 220.56273 262.005007 
L 222.236207 263.707382 
L 223.909684 258.205637 
L 225.583161 262.703094 
L 227.256638 264.161556 
L 228.930115 261.834246 
L 230.603592 263.272806 
L 232.277069 262.404185 
L 233.950546 264.289552 
L 237.2975 264.214957 
L 238.970977 264.460313 
L 240.644454 264.360728 
L 242.317931 263.991478 
L 243.991408 263.290657 
L 245.664885 262.766674 
L 247.338362 264.175685 
L 249.011839 262.486528 
L 250.685316 263.390698 
L 254.03227 262.632374 
L 255.705747 263.317016 
L 257.379224 263.294607 
L 259.052701 264.180699 
L 260.726179 263.696368 
L 262.399656 263.451544 
L 264.073133 264.422484 
L 265.74661 262.853574 
L 267.420087 263.658615 
L 269.093564 262.705677 
L 270.767041 262.155563 
L 272.440518 264.183965 
L 274.113995 261.290361 
L 275.787472 263.516567 
L 277.460949 264.025357 
L 279.134426 257.688035 
L 280.807903 262.743961 
L 282.48138 262.754824 
L 284.154857 264.369539 
L 285.828334 262.975948 
L 287.501811 262.422112 
L 289.175288 257.299871 
L 290.848765 255.987787 
L 292.522242 264.30049 
L 294.195719 260.494283 
L 295.869196 263.809095 
L 297.542673 261.4732 
L 299.21615 261.919702 
L 300.889627 262.667696 
L 302.563104 256.180046 
L 304.236582 263.652918 
L 305.910059 264.136337 
L 307.583536 254.453819 
L 309.257013 262.478172 
L 310.93049 263.346337 
L 312.603967 261.916816 
L 314.277444 264.358449 
L 315.950921 263.980312 
L 317.624398 252.937018 
L 319.297875 264.205614 
L 322.644829 263.381279 
L 325.991783 263.358719 
L 327.66526 262.836711 
L 329.338737 261.973255 
L 331.012214 262.727706 
L 332.685691 263.194566 
L 334.359168 264.271853 
L 336.032645 263.888627 
L 337.706122 263.707382 
L 339.379599 262.626145 
L 341.053076 261.972268 
L 342.726553 261.908536 
L 344.40003 264.345687 
L 349.420462 263.959651 
L 351.093939 263.123238 
L 352.767416 263.713003 
L 354.440893 262.503847 
L 356.11437 264.450514 
L 357.787847 263.516567 
L 359.461324 264.088937 
L 361.134801 263.352414 
L 362.808278 260.27992 
L 364.481755 264.398253 
L 366.155232 264.432284 
L 367.828709 264.334065 
L 369.502186 263.037173 
L 371.175663 263.859077 
L 372.84914 262.568718 
L 374.522617 258.447879 
L 376.196094 264.182218 
L 377.869571 262.677039 
L 379.543048 262.298143 
L 381.216525 263.429591 
L 382.890002 263.162814 
L 384.563479 264.251267 
L 386.236956 257.221023 
L 387.910433 264.008646 
L 389.58391 263.137594 
L 391.257388 264.361335 
L 392.930865 264.426055 
L 394.604342 262.666709 
L 396.277819 262.230233 
L 397.951296 263.493474 
L 399.624773 263.906022 
L 399.624773 263.906022 
" style="fill:none;stroke:#9467bd;stroke-linecap:square;stroke-width:1.5;"/>
   </g>
   <g id="line2d_22">
    <path clip-path="url(#p4049c75373)" d="M 74.970227 243.718245 
L 76.643704 258.887544 
L 78.317181 253.271401 
L 79.990658 262.904544 
L 81.664135 260.780431 
L 83.337612 257.418523 
L 85.01109 261.781528 
L 86.684567 264.403342 
L 88.358044 260.448327 
L 90.031521 263.295974 
L 91.704998 264.163 
L 93.378475 263.065355 
L 95.051952 262.731808 
L 96.725429 263.159471 
L 98.398906 263.920378 
L 100.072383 264.237214 
L 101.74586 261.367918 
L 103.419337 255.583747 
L 105.092814 263.401181 
L 106.766291 264.240253 
L 108.439768 264.243899 
L 110.113245 264.397873 
L 111.786722 258.896963 
L 113.460199 263.882094 
L 115.133676 263.831731 
L 116.807153 264.372654 
L 118.48063 264.006975 
L 120.154107 264.059616 
L 121.827584 264.306871 
L 123.501061 259.274796 
L 125.174538 260.862089 
L 126.848015 264.084911 
L 128.521493 260.268374 
L 130.19497 263.177778 
L 131.868447 264.393087 
L 133.541924 263.975527 
L 136.888878 264.292818 
L 138.562355 263.104855 
L 140.235832 262.263505 
L 141.909309 264.021407 
L 143.582786 264.503004 
L 145.256263 263.597542 
L 146.92974 264.438284 
L 150.276694 263.51725 
L 151.950171 264.566508 
L 153.623648 263.866066 
L 155.297125 264.38306 
L 156.970602 264.400076 
L 158.644079 261.69911 
L 160.317556 264.49047 
L 163.66451 264.34432 
L 165.337987 262.147815 
L 167.011464 264.344016 
L 168.684941 264.435702 
L 170.358418 263.512693 
L 172.031896 264.44778 
L 173.705373 264.378579 
L 175.37885 261.726608 
L 177.052327 264.391568 
L 178.725804 261.841006 
L 180.399281 264.439728 
L 182.072758 264.22582 
L 183.746235 264.424004 
L 185.419712 263.935115 
L 187.093189 264.09509 
L 188.766666 260.269665 
L 190.440143 264.571217 
L 192.11362 263.417589 
L 193.787097 264.474214 
L 195.460574 264.3842 
L 197.134051 264.459478 
L 198.807528 263.793826 
L 200.481005 263.914226 
L 202.154482 264.463959 
L 203.827959 264.18313 
L 205.501436 264.099572 
L 207.174913 264.325861 
L 208.84839 264.062882 
L 210.521867 264.149175 
L 212.195344 263.839631 
L 213.868821 263.963677 
L 215.542299 264.352904 
L 218.889253 264.542276 
L 220.56273 264.231289 
L 222.236207 264.486216 
L 223.909684 261.676777 
L 225.583161 264.003253 
L 227.256638 264.275499 
L 228.930115 264.171052 
L 230.603592 263.944458 
L 232.277069 262.933486 
L 233.950546 264.037207 
L 235.624023 264.524805 
L 237.2975 264.232884 
L 238.970977 264.432132 
L 240.644454 264.481659 
L 242.317931 264.028092 
L 243.991408 264.323658 
L 245.664885 264.085671 
L 247.338362 264.467758 
L 249.011839 264.045259 
L 252.358793 263.635902 
L 254.03227 264.263497 
L 255.705747 264.460009 
L 257.379224 263.977957 
L 259.052701 264.444589 
L 260.726179 264.265852 
L 262.399656 262.73158 
L 264.073133 264.39605 
L 265.74661 264.261826 
L 267.420087 264.25742 
L 269.093564 264.099496 
L 272.440518 264.472163 
L 274.113995 264.140591 
L 277.460949 264.066908 
L 279.134426 263.148609 
L 280.807903 264.142034 
L 282.48138 264.00067 
L 284.154857 264.545466 
L 285.828334 263.768759 
L 287.501811 264.208577 
L 289.175288 263.69895 
L 290.848765 262.238361 
L 292.522242 264.502852 
L 294.195719 263.052365 
L 295.869196 264.398405 
L 297.542673 264.400759 
L 299.21615 262.816961 
L 300.889627 264.321835 
L 302.563104 263.077205 
L 304.236582 263.982135 
L 305.910059 264.453173 
L 307.583536 262.808757 
L 309.257013 263.96003 
L 310.93049 263.707686 
L 312.603967 264.245494 
L 314.277444 264.318873 
L 315.950921 263.924708 
L 317.624398 262.86588 
L 319.297875 264.421801 
L 320.971352 263.310255 
L 322.644829 264.427726 
L 324.318306 264.097977 
L 325.991783 264.190042 
L 327.66526 264.031814 
L 329.338737 264.065769 
L 331.012214 264.290767 
L 332.685691 264.261522 
L 334.359168 264.425371 
L 336.032645 264.036068 
L 337.706122 264.171887 
L 339.379599 263.813501 
L 342.726553 263.848291 
L 344.40003 264.356778 
L 346.073507 264.289324 
L 347.746985 264.465023 
L 349.420462 264.064402 
L 356.11437 264.457959 
L 357.787847 264.097977 
L 359.461324 264.515158 
L 361.134801 264.044348 
L 362.808278 262.670735 
L 364.481755 264.43593 
L 366.155232 264.538402 
L 369.502186 264.238506 
L 371.175663 264.392935 
L 372.84914 263.91339 
L 374.522617 261.914385 
L 376.196094 264.492445 
L 377.869571 263.862724 
L 379.543048 260.34631 
L 381.216525 263.862951 
L 382.890002 264.090532 
L 384.563479 264.01252 
L 386.236956 261.585851 
L 387.910433 264.452261 
L 389.58391 263.988364 
L 391.257388 264.424991 
L 392.930865 264.433043 
L 394.604342 263.778254 
L 397.951296 264.137401 
L 399.624773 263.267717 
L 399.624773 263.267717 
" style="fill:none;stroke:#8c564b;stroke-linecap:square;stroke-width:1.5;"/>
   </g>
   <g id="line2d_23">
    <path clip-path="url(#p4049c75373)" d="M 74.970227 263.00694 
L 76.643704 263.243865 
L 78.317181 259.550233 
L 79.990658 263.650563 
L 81.664135 264.196803 
L 83.337612 263.333499 
L 85.01109 263.835605 
L 86.684567 264.541136 
L 88.358044 264.112789 
L 90.031521 264.191485 
L 91.704998 264.530502 
L 93.378475 264.284614 
L 95.051952 264.379642 
L 96.725429 264.329432 
L 100.072383 264.537262 
L 101.74586 263.677377 
L 103.419337 261.558125 
L 105.092814 263.990035 
L 106.766291 264.540453 
L 108.439768 264.282259 
L 110.113245 264.379034 
L 111.786722 263.041959 
L 113.460199 264.506878 
L 115.133676 264.326697 
L 116.807153 264.459174 
L 118.48063 264.335205 
L 120.154107 264.426966 
L 121.827584 264.398253 
L 123.501061 263.766556 
L 126.848015 264.502548 
L 128.521493 263.32446 
L 130.19497 264.215869 
L 131.868447 264.552607 
L 136.888878 264.318037 
L 138.562355 264.463276 
L 140.235832 264.069415 
L 141.909309 264.474594 
L 143.582786 264.559899 
L 145.256263 264.210172 
L 146.92974 264.577294 
L 150.276694 264.449071 
L 151.950171 264.577522 
L 153.623648 264.316746 
L 155.297125 264.51417 
L 156.970602 264.541896 
L 158.644079 263.314813 
L 160.317556 264.563317 
L 163.66451 264.549872 
L 165.337987 264.044804 
L 167.011464 264.552227 
L 172.031896 264.518424 
L 173.705373 264.56552 
L 175.37885 264.200601 
L 177.052327 264.54258 
L 178.725804 263.835074 
L 180.399281 264.512423 
L 183.746235 264.529059 
L 185.419712 264.337028 
L 187.093189 264.442918 
L 188.766666 263.478434 
L 190.440143 264.585802 
L 192.11362 264.221566 
L 193.787097 264.574863 
L 205.501436 264.437373 
L 207.174913 264.222402 
L 208.84839 264.401063 
L 210.521867 264.262433 
L 212.195344 264.397721 
L 213.868821 264.172647 
L 215.542299 264.553062 
L 218.889253 264.595145 
L 220.56273 264.30482 
L 222.236207 264.538402 
L 223.909684 264.075036 
L 225.583161 264.437069 
L 227.256638 264.545238 
L 228.930115 264.325861 
L 230.603592 264.330191 
L 232.277069 264.044728 
L 233.950546 264.391264 
L 235.624023 264.574104 
L 242.317931 264.350929 
L 247.338362 264.495787 
L 249.011839 264.473455 
L 250.685316 264.276031 
L 252.358793 264.380174 
L 254.03227 264.230302 
L 255.705747 264.533616 
L 257.379224 264.456667 
L 259.052701 264.558987 
L 260.726179 264.424915 
L 262.399656 264.404785 
L 264.073133 264.532325 
L 267.420087 264.469505 
L 270.767041 264.209792 
L 272.440518 264.560507 
L 277.460949 264.227111 
L 279.134426 263.511553 
L 280.807903 264.247469 
L 284.154857 264.576686 
L 285.828334 264.321759 
L 287.501811 264.433499 
L 289.175288 263.603619 
L 290.848765 263.60886 
L 292.522242 264.564077 
L 294.195719 264.173482 
L 295.869196 264.562102 
L 299.21615 264.391416 
L 300.889627 264.530274 
L 302.563104 263.806664 
L 304.236582 264.381389 
L 305.910059 264.545086 
L 307.583536 264.008874 
L 309.257013 264.381237 
L 314.277444 264.559595 
L 315.950921 264.41223 
L 317.624398 263.251309 
L 319.297875 264.58094 
L 320.971352 264.450438 
L 325.991783 264.511435 
L 327.66526 264.400456 
L 329.338737 264.500649 
L 331.012214 264.451122 
L 334.359168 264.574256 
L 336.032645 264.284842 
L 337.706122 264.301933 
L 339.379599 264.520247 
L 342.726553 264.446868 
L 347.746985 264.570989 
L 352.767416 264.255293 
L 354.440893 264.295477 
L 356.11437 264.550176 
L 357.787847 264.345459 
L 359.461324 264.527463 
L 361.134801 264.445045 
L 362.808278 263.808943 
L 364.481755 264.592562 
L 367.828709 264.531945 
L 369.502186 264.346903 
L 371.175663 264.523893 
L 372.84914 264.397949 
L 374.522617 263.926303 
L 376.196094 264.526856 
L 377.869571 264.373337 
L 379.543048 263.395636 
L 381.216525 264.455148 
L 384.563479 264.480215 
L 386.236956 263.836365 
L 387.910433 264.550328 
L 389.58391 264.390884 
L 391.257388 264.520095 
L 392.930865 264.526704 
L 394.604342 264.401747 
L 396.277819 264.160721 
L 397.951296 264.371362 
L 399.624773 264.309757 
L 399.624773 264.309757 
" style="fill:none;stroke:#e377c2;stroke-linecap:square;stroke-width:1.5;"/>
   </g>
   <g id="line2d_24">
    <path clip-path="url(#p4049c75373)" d="M 74.970227 258.94725 
L 76.643704 263.849582 
L 78.317181 253.705521 
L 79.990658 260.707811 
L 81.664135 260.785824 
L 83.337612 261.671156 
L 85.01109 261.070452 
L 86.684567 263.737463 
L 88.358044 250.535341 
L 90.031521 250.35045 
L 91.704998 261.426864 
L 93.378475 254.098395 
L 95.051952 254.84221 
L 96.725429 252.756685 
L 98.398906 254.375882 
L 100.072383 261.918563 
L 101.74586 251.636936 
L 103.419337 259.778801 
L 105.092814 263.53305 
L 106.766291 261.527285 
L 108.439768 252.926991 
L 110.113245 252.178466 
L 111.786722 218.951581 
L 113.460199 252.725313 
L 115.133676 254.567533 
L 116.807153 252.338137 
L 118.48063 254.303035 
L 120.154107 253.533772 
L 121.827584 254.028814 
L 123.501061 222.638452 
L 125.174538 223.336539 
L 126.848015 252.688016 
L 128.521493 216.617205 
L 130.19497 251.465794 
L 131.868447 261.070072 
L 133.541924 250.51673 
L 135.215401 251.054918 
L 136.888878 251.453412 
L 138.562355 251.586649 
L 140.235832 211.755664 
L 141.909309 251.855401 
L 143.582786 261.313681 
L 145.256263 250.789964 
L 146.92974 260.678034 
L 148.603217 249.872804 
L 150.276694 250.878535 
L 151.950171 263.746123 
L 153.623648 250.157888 
L 155.297125 261.226401 
L 156.970602 261.210677 
L 158.644079 202.525953 
L 160.317556 260.873484 
L 161.991033 261.46211 
L 163.66451 261.269623 
L 165.337987 206.187073 
L 167.011464 261.571115 
L 168.684941 261.398606 
L 170.358418 251.489038 
L 172.031896 261.47867 
L 173.705373 261.170645 
L 175.37885 207.064961 
L 177.052327 261.473352 
L 178.725804 210.181741 
L 180.399281 261.562227 
L 182.072758 261.276536 
L 183.746235 261.400429 
L 185.419712 252.052977 
L 187.093189 249.724223 
L 188.766666 214.248268 
L 190.440143 263.779774 
L 192.11362 251.443917 
L 193.787097 260.933569 
L 195.460574 260.74245 
L 197.134051 261.231794 
L 198.807528 251.578065 
L 200.481005 250.2991 
L 202.154482 261.32029 
L 203.827959 251.255077 
L 205.501436 252.706247 
L 207.174913 251.827371 
L 208.84839 252.470538 
L 210.521867 251.645215 
L 212.195344 251.848109 
L 213.868821 250.866305 
L 215.542299 261.412051 
L 217.215776 261.464161 
L 218.889253 263.83872 
L 220.56273 252.472133 
L 222.236207 261.45816 
L 223.909684 213.944953 
L 225.583161 252.276076 
L 227.256638 261.547567 
L 228.930115 251.165442 
L 230.603592 251.527171 
L 232.277069 252.504645 
L 233.950546 261.399062 
L 235.624023 262.206913 
L 237.2975 261.747573 
L 238.970977 261.493102 
L 240.644454 261.566557 
L 242.317931 250.492347 
L 243.991408 251.513118 
L 245.664885 251.982789 
L 247.338362 261.607576 
L 249.011839 251.993423 
L 250.685316 251.649014 
L 252.358793 252.534042 
L 254.03227 252.905342 
L 255.705747 261.285043 
L 257.379224 252.288534 
L 259.052701 261.644722 
L 260.726179 251.779971 
L 262.399656 252.22222 
L 264.073133 261.576204 
L 265.74661 252.13813 
L 267.420087 251.941618 
L 269.093564 252.044621 
L 270.767041 253.308242 
L 272.440518 261.721823 
L 274.113995 252.994445 
L 275.787472 253.512351 
L 277.460949 253.608518 
L 279.134426 219.299864 
L 280.807903 254.183472 
L 282.48138 253.757707 
L 284.154857 261.677385 
L 285.828334 254.423358 
L 287.501811 253.230078 
L 289.175288 216.496199 
L 290.848765 218.115168 
L 292.522242 261.742484 
L 294.195719 218.147072 
L 295.869196 261.905346 
L 297.542673 254.019546 
L 299.21615 254.076594 
L 300.889627 251.637695 
L 302.563104 215.741672 
L 304.236582 252.245616 
L 305.910059 261.633023 
L 307.583536 217.729055 
L 309.257013 252.767244 
L 310.93049 253.445201 
L 312.603967 253.307179 
L 314.277444 261.90132 
L 315.950921 254.319823 
L 317.624398 223.930026 
L 319.297875 261.833334 
L 320.971352 254.215983 
L 322.644829 253.771684 
L 324.318306 253.716536 
L 325.991783 253.364302 
L 327.66526 253.551243 
L 329.338737 254.206336 
L 331.012214 254.034283 
L 332.685691 253.140215 
L 334.359168 261.780389 
L 336.032645 253.317889 
L 337.706122 254.027446 
L 339.379599 254.195853 
L 342.726553 253.669895 
L 344.40003 261.800367 
L 347.746985 261.998702 
L 349.420462 254.173521 
L 351.093939 253.824933 
L 352.767416 254.032612 
L 354.440893 252.94112 
L 356.11437 261.852476 
L 357.787847 253.783534 
L 359.461324 262.019896 
L 361.134801 254.430726 
L 362.808278 222.923308 
L 364.481755 261.649431 
L 366.155232 261.858022 
L 367.828709 261.781452 
L 369.502186 253.223317 
L 371.175663 261.813204 
L 372.84914 253.557776 
L 374.522617 220.954535 
L 376.196094 262.215877 
L 377.869571 254.147086 
L 379.543048 209.765091 
L 381.216525 250.606441 
L 382.890002 250.071216 
L 384.563479 261.504117 
L 386.236956 208.469187 
L 387.910433 261.354548 
L 389.58391 251.902953 
L 391.257388 261.304717 
L 392.930865 261.306313 
L 394.604342 251.931894 
L 396.277819 250.945609 
L 397.951296 251.369095 
L 399.624773 250.953661 
L 399.624773 250.953661 
" style="fill:none;stroke:#7f7f7f;stroke-linecap:square;stroke-width:1.5;"/>
   </g>
   <g id="line2d_25">
    <path clip-path="url(#p4049c75373)" d="M 74.970227 264.603577 
L 399.624773 264.603577 
L 399.624773 264.603577 
" style="fill:none;stroke:#bcbd22;stroke-linecap:square;stroke-width:1.5;"/>
   </g>
   <g id="line2d_26">
    <path clip-path="url(#p4049c75373)" d="M 74.970227 264.603577 
L 399.624773 264.603577 
L 399.624773 264.603577 
" style="fill:none;stroke:#17becf;stroke-linecap:square;stroke-width:1.5;"/>
   </g>
   <g id="line2d_27">
    <path clip-path="url(#p4049c75373)" d="M 74.970227 264.540605 
L 76.643704 264.621504 
L 78.317181 264.628188 
L 81.664135 264.594613 
L 88.358044 264.602361 
L 138.562355 264.604488 
L 148.603217 264.590663 
L 223.909684 264.599399 
L 254.03227 264.589752 
L 265.74661 264.607907 
L 277.460949 264.58922 
L 287.501811 264.608818 
L 295.869196 264.609046 
L 317.624398 264.597044 
L 337.706122 264.60107 
L 352.767416 264.589296 
L 364.481755 264.603957 
L 381.216525 264.595601 
L 394.604342 264.610489 
L 399.624773 264.605324 
L 399.624773 264.605324 
" style="fill:none;stroke:#1f77b4;stroke-linecap:square;stroke-width:1.5;"/>
   </g>
   <g id="line2d_28">
    <path clip-path="url(#p4049c75373)" d="M 74.970227 264.603577 
L 399.624773 264.603577 
L 399.624773 264.603577 
" style="fill:none;stroke:#ff7f0e;stroke-linecap:square;stroke-width:1.5;"/>
   </g>
   <g id="patch_3">
    <path d="M 58.7375 276.812 
L 58.7375 10.7 
" style="fill:none;stroke:#000000;stroke-linecap:square;stroke-linejoin:miter;stroke-width:0.8;"/>
   </g>
   <g id="patch_4">
    <path d="M 415.8575 276.812 
L 415.8575 10.7 
" style="fill:none;stroke:#000000;stroke-linecap:square;stroke-linejoin:miter;stroke-width:0.8;"/>
   </g>
   <g id="patch_5">
    <path d="M 58.7375 276.812 
L 415.8575 276.812 
" style="fill:none;stroke:#000000;stroke-linecap:square;stroke-linejoin:miter;stroke-width:0.8;"/>
   </g>
   <g id="patch_6">
    <path d="M 58.7375 10.7 
L 415.8575 10.7 
" style="fill:none;stroke:#000000;stroke-linecap:square;stroke-linejoin:miter;stroke-width:0.8;"/>
   </g>
   <g id="legend_1">
    <g id="patch_7">
     <path d="M 192.120937 165.48125 
L 282.474063 165.48125 
Q 284.474063 165.48125 284.474063 163.48125 
L 284.474063 17.7 
Q 284.474063 15.7 282.474063 15.7 
L 192.120937 15.7 
Q 190.120937 15.7 190.120937 17.7 
L 190.120937 163.48125 
Q 190.120937 165.48125 192.120937 165.48125 
z
" style="fill:#ffffff;opacity:0.8;stroke:#cccccc;stroke-linejoin:miter;"/>
    </g>
    <g id="line2d_29">
     <path d="M 194.120937 23.798437 
L 214.120937 23.798437 
" style="fill:none;stroke:#1f77b4;stroke-linecap:square;stroke-width:1.5;"/>
    </g>
    <g id="line2d_30"/>
    <g id="text_17">
     <!-- delta -->
     <defs>
      <path d="M 45.40625 46.390625 
L 45.40625 75.984375 
L 54.390625 75.984375 
L 54.390625 0 
L 45.40625 0 
L 45.40625 8.203125 
Q 42.578125 3.328125 38.25 0.953125 
Q 33.9375 -1.421875 27.875 -1.421875 
Q 17.96875 -1.421875 11.734375 6.484375 
Q 5.515625 14.40625 5.515625 27.296875 
Q 5.515625 40.1875 11.734375 48.09375 
Q 17.96875 56 27.875 56 
Q 33.9375 56 38.25 53.625 
Q 42.578125 51.265625 45.40625 46.390625 
M 14.796875 27.296875 
Q 14.796875 17.390625 18.875 11.75 
Q 22.953125 6.109375 30.078125 6.109375 
Q 37.203125 6.109375 41.296875 11.75 
Q 45.40625 17.390625 45.40625 27.296875 
Q 45.40625 37.203125 41.296875 42.84375 
Q 37.203125 48.484375 30.078125 48.484375 
Q 22.953125 48.484375 18.875 42.84375 
Q 14.796875 37.203125 14.796875 27.296875 
" id="DejaVuSans-64"/>
      <path d="M 56.203125 29.59375 
L 56.203125 25.203125 
L 14.890625 25.203125 
Q 15.484375 15.921875 20.484375 11.0625 
Q 25.484375 6.203125 34.421875 6.203125 
Q 39.59375 6.203125 44.453125 7.46875 
Q 49.3125 8.734375 54.109375 11.28125 
L 54.109375 2.78125 
Q 49.265625 0.734375 44.1875 -0.34375 
Q 39.109375 -1.421875 33.890625 -1.421875 
Q 20.796875 -1.421875 13.15625 6.1875 
Q 5.515625 13.8125 5.515625 26.8125 
Q 5.515625 40.234375 12.765625 48.109375 
Q 20.015625 56 32.328125 56 
Q 43.359375 56 49.78125 48.890625 
Q 56.203125 41.796875 56.203125 29.59375 
M 47.21875 32.234375 
Q 47.125 39.59375 43.09375 43.984375 
Q 39.0625 48.390625 32.421875 48.390625 
Q 24.90625 48.390625 20.390625 44.140625 
Q 15.875 39.890625 15.1875 32.171875 
z
" id="DejaVuSans-65"/>
      <path d="M 9.421875 75.984375 
L 18.40625 75.984375 
L 18.40625 0 
L 9.421875 0 
z
" id="DejaVuSans-6c"/>
      <path d="M 18.3125 70.21875 
L 18.3125 54.6875 
L 36.8125 54.6875 
L 36.8125 47.703125 
L 18.3125 47.703125 
L 18.3125 18.015625 
Q 18.3125 11.328125 20.140625 9.421875 
Q 21.96875 7.515625 27.59375 7.515625 
L 36.8125 7.515625 
L 36.8125 0 
L 27.59375 0 
Q 17.1875 0 13.234375 3.875 
Q 9.28125 7.765625 9.28125 18.015625 
L 9.28125 47.703125 
L 2.6875 47.703125 
L 2.6875 54.6875 
L 9.28125 54.6875 
L 9.28125 70.21875 
z
" id="DejaVuSans-74"/>
      <path d="M 34.28125 27.484375 
Q 23.390625 27.484375 19.1875 25 
Q 14.984375 22.515625 14.984375 16.5 
Q 14.984375 11.71875 18.140625 8.90625 
Q 21.296875 6.109375 26.703125 6.109375 
Q 34.1875 6.109375 38.703125 11.40625 
Q 43.21875 16.703125 43.21875 25.484375 
L 43.21875 27.484375 
z
M 52.203125 31.203125 
L 52.203125 0 
L 43.21875 0 
L 43.21875 8.296875 
Q 40.140625 3.328125 35.546875 0.953125 
Q 30.953125 -1.421875 24.3125 -1.421875 
Q 15.921875 -1.421875 10.953125 3.296875 
Q 6 8.015625 6 15.921875 
Q 6 25.140625 12.171875 29.828125 
Q 18.359375 34.515625 30.609375 34.515625 
L 43.21875 34.515625 
L 43.21875 35.40625 
Q 43.21875 41.609375 39.140625 45 
Q 35.0625 48.390625 27.6875 48.390625 
Q 23 48.390625 18.546875 47.265625 
Q 14.109375 46.140625 10.015625 43.890625 
L 10.015625 52.203125 
Q 14.9375 54.109375 19.578125 55.046875 
Q 24.21875 56 28.609375 56 
Q 40.484375 56 46.34375 49.84375 
Q 52.203125 43.703125 52.203125 31.203125 
" id="DejaVuSans-61"/>
     </defs>
     <g transform="translate(222.120937 27.298437)scale(0.1 -0.1)">
      <use xlink:href="#DejaVuSans-64"/>
      <use x="63.476562" xlink:href="#DejaVuSans-65"/>
      <use x="125" xlink:href="#DejaVuSans-6c"/>
      <use x="152.783203" xlink:href="#DejaVuSans-74"/>
      <use x="191.992188" xlink:href="#DejaVuSans-61"/>
     </g>
    </g>
    <g id="line2d_31">
     <path d="M 194.120937 38.476562 
L 214.120937 38.476562 
" style="fill:none;stroke:#ff7f0e;stroke-linecap:square;stroke-width:1.5;"/>
    </g>
    <g id="line2d_32"/>
    <g id="text_18">
     <!-- lowAlpha -->
     <defs>
      <path d="M 30.609375 48.390625 
Q 23.390625 48.390625 19.1875 42.75 
Q 14.984375 37.109375 14.984375 27.296875 
Q 14.984375 17.484375 19.15625 11.84375 
Q 23.34375 6.203125 30.609375 6.203125 
Q 37.796875 6.203125 41.984375 11.859375 
Q 46.1875 17.53125 46.1875 27.296875 
Q 46.1875 37.015625 41.984375 42.703125 
Q 37.796875 48.390625 30.609375 48.390625 
M 30.609375 56 
Q 42.328125 56 49.015625 48.375 
Q 55.71875 40.765625 55.71875 27.296875 
Q 55.71875 13.875 49.015625 6.21875 
Q 42.328125 -1.421875 30.609375 -1.421875 
Q 18.84375 -1.421875 12.171875 6.21875 
Q 5.515625 13.875 5.515625 27.296875 
Q 5.515625 40.765625 12.171875 48.375 
Q 18.84375 56 30.609375 56 
" id="DejaVuSans-6f"/>
      <path d="M 4.203125 54.6875 
L 13.1875 54.6875 
L 24.421875 12.015625 
L 35.59375 54.6875 
L 46.1875 54.6875 
L 57.421875 12.015625 
L 68.609375 54.6875 
L 77.59375 54.6875 
L 63.28125 0 
L 52.6875 0 
L 40.921875 44.828125 
L 29.109375 0 
L 18.5 0 
z
" id="DejaVuSans-77"/>
      <path d="M 34.1875 63.1875 
L 20.796875 26.90625 
L 47.609375 26.90625 
z
M 28.609375 72.90625 
L 39.796875 72.90625 
L 67.578125 0 
L 57.328125 0 
L 50.6875 18.703125 
L 17.828125 18.703125 
L 11.1875 0 
L 0.78125 0 
z
" id="DejaVuSans-41"/>
      <path d="M 18.109375 8.203125 
L 18.109375 -20.796875 
L 9.078125 -20.796875 
L 9.078125 54.6875 
L 18.109375 54.6875 
L 18.109375 46.390625 
Q 20.953125 51.265625 25.265625 53.625 
Q 29.59375 56 35.59375 56 
Q 45.5625 56 51.78125 48.09375 
Q 58.015625 40.1875 58.015625 27.296875 
Q 58.015625 14.40625 51.78125 6.484375 
Q 45.5625 -1.421875 35.59375 -1.421875 
Q 29.59375 -1.421875 25.265625 0.953125 
Q 20.953125 3.328125 18.109375 8.203125 
M 48.6875 27.296875 
Q 48.6875 37.203125 44.609375 42.84375 
Q 40.53125 48.484375 33.40625 48.484375 
Q 26.265625 48.484375 22.1875 42.84375 
Q 18.109375 37.203125 18.109375 27.296875 
Q 18.109375 17.390625 22.1875 11.75 
Q 26.265625 6.109375 33.40625 6.109375 
Q 40.53125 6.109375 44.609375 11.75 
Q 48.6875 17.390625 48.6875 27.296875 
" id="DejaVuSans-70"/>
      <path d="M 54.890625 33.015625 
L 54.890625 0 
L 45.90625 0 
L 45.90625 32.71875 
Q 45.90625 40.484375 42.875 44.328125 
Q 39.84375 48.1875 33.796875 48.1875 
Q 26.515625 48.1875 22.3125 43.546875 
Q 18.109375 38.921875 18.109375 30.90625 
L 18.109375 0 
L 9.078125 0 
L 9.078125 75.984375 
L 18.109375 75.984375 
L 18.109375 46.1875 
Q 21.34375 51.125 25.703125 53.5625 
Q 30.078125 56 35.796875 56 
Q 45.21875 56 50.046875 50.171875 
Q 54.890625 44.34375 54.890625 33.015625 
" id="DejaVuSans-68"/>
     </defs>
     <g transform="translate(222.120937 41.976562)scale(0.1 -0.1)">
      <use xlink:href="#DejaVuSans-6c"/>
      <use x="27.783203" xlink:href="#DejaVuSans-6f"/>
      <use x="88.964844" xlink:href="#DejaVuSans-77"/>
      <use x="170.751953" xlink:href="#DejaVuSans-41"/>
      <use x="239.160156" xlink:href="#DejaVuSans-6c"/>
      <use x="266.943359" xlink:href="#DejaVuSans-70"/>
      <use x="330.419922" xlink:href="#DejaVuSans-68"/>
      <use x="393.798828" xlink:href="#DejaVuSans-61"/>
     </g>
    </g>
    <g id="line2d_33">
     <path d="M 194.120937 53.154687 
L 214.120937 53.154687 
" style="fill:none;stroke:#2ca02c;stroke-linecap:square;stroke-width:1.5;"/>
    </g>
    <g id="line2d_34"/>
    <g id="text_19">
     <!-- highAlpha -->
     <defs>
      <path d="M 9.421875 54.6875 
L 18.40625 54.6875 
L 18.40625 0 
L 9.421875 0 
z
M 9.421875 75.984375 
L 18.40625 75.984375 
L 18.40625 64.59375 
L 9.421875 64.59375 
z
" id="DejaVuSans-69"/>
      <path d="M 45.40625 27.984375 
Q 45.40625 37.75 41.375 43.109375 
Q 37.359375 48.484375 30.078125 48.484375 
Q 22.859375 48.484375 18.828125 43.109375 
Q 14.796875 37.75 14.796875 27.984375 
Q 14.796875 18.265625 18.828125 12.890625 
Q 22.859375 7.515625 30.078125 7.515625 
Q 37.359375 7.515625 41.375 12.890625 
Q 45.40625 18.265625 45.40625 27.984375 
M 54.390625 6.78125 
Q 54.390625 -7.171875 48.1875 -13.984375 
Q 42 -20.796875 29.203125 -20.796875 
Q 24.46875 -20.796875 20.265625 -20.09375 
Q 16.0625 -19.390625 12.109375 -17.921875 
L 12.109375 -9.1875 
Q 16.0625 -11.328125 19.921875 -12.34375 
Q 23.78125 -13.375 27.78125 -13.375 
Q 36.625 -13.375 41.015625 -8.765625 
Q 45.40625 -4.15625 45.40625 5.171875 
L 45.40625 9.625 
Q 42.625 4.78125 38.28125 2.390625 
Q 33.9375 0 27.875 0 
Q 17.828125 0 11.671875 7.65625 
Q 5.515625 15.328125 5.515625 27.984375 
Q 5.515625 40.671875 11.671875 48.328125 
Q 17.828125 56 27.875 56 
Q 33.9375 56 38.28125 53.609375 
Q 42.625 51.21875 45.40625 46.390625 
L 45.40625 54.6875 
L 54.390625 54.6875 
z
" id="DejaVuSans-67"/>
     </defs>
     <g transform="translate(222.120937 56.654687)scale(0.1 -0.1)">
      <use xlink:href="#DejaVuSans-68"/>
      <use x="63.378906" xlink:href="#DejaVuSans-69"/>
      <use x="91.162109" xlink:href="#DejaVuSans-67"/>
      <use x="154.638672" xlink:href="#DejaVuSans-68"/>
      <use x="218.017578" xlink:href="#DejaVuSans-41"/>
      <use x="286.425781" xlink:href="#DejaVuSans-6c"/>
      <use x="314.208984" xlink:href="#DejaVuSans-70"/>
      <use x="377.685547" xlink:href="#DejaVuSans-68"/>
      <use x="441.064453" xlink:href="#DejaVuSans-61"/>
     </g>
    </g>
    <g id="line2d_35">
     <path d="M 194.120937 67.832812 
L 214.120937 67.832812 
" style="fill:none;stroke:#d62728;stroke-linecap:square;stroke-width:1.5;"/>
    </g>
    <g id="line2d_36"/>
    <g id="text_20">
     <!-- lowBeta -->
     <defs>
      <path d="M 19.671875 34.8125 
L 19.671875 8.109375 
L 35.5 8.109375 
Q 43.453125 8.109375 47.28125 11.40625 
Q 51.125 14.703125 51.125 21.484375 
Q 51.125 28.328125 47.28125 31.5625 
Q 43.453125 34.8125 35.5 34.8125 
z
M 19.671875 64.796875 
L 19.671875 42.828125 
L 34.28125 42.828125 
Q 41.5 42.828125 45.03125 45.53125 
Q 48.578125 48.25 48.578125 53.8125 
Q 48.578125 59.328125 45.03125 62.0625 
Q 41.5 64.796875 34.28125 64.796875 
z
M 9.8125 72.90625 
L 35.015625 72.90625 
Q 46.296875 72.90625 52.390625 68.21875 
Q 58.5 63.53125 58.5 54.890625 
Q 58.5 48.1875 55.375 44.234375 
Q 52.25 40.28125 46.1875 39.3125 
Q 53.46875 37.75 57.5 32.78125 
Q 61.53125 27.828125 61.53125 20.40625 
Q 61.53125 10.640625 54.890625 5.3125 
Q 48.25 0 35.984375 0 
L 9.8125 0 
z
" id="DejaVuSans-42"/>
     </defs>
     <g transform="translate(222.120937 71.332812)scale(0.1 -0.1)">
      <use xlink:href="#DejaVuSans-6c"/>
      <use x="27.783203" xlink:href="#DejaVuSans-6f"/>
      <use x="88.964844" xlink:href="#DejaVuSans-77"/>
      <use x="170.751953" xlink:href="#DejaVuSans-42"/>
      <use x="239.355469" xlink:href="#DejaVuSans-65"/>
      <use x="300.878906" xlink:href="#DejaVuSans-74"/>
      <use x="340.087891" xlink:href="#DejaVuSans-61"/>
     </g>
    </g>
    <g id="line2d_37">
     <path d="M 194.120937 82.510938 
L 214.120937 82.510938 
" style="fill:none;stroke:#9467bd;stroke-linecap:square;stroke-width:1.5;"/>
    </g>
    <g id="line2d_38"/>
    <g id="text_21">
     <!-- highBeta -->
     <g transform="translate(222.120937 86.010938)scale(0.1 -0.1)">
      <use xlink:href="#DejaVuSans-68"/>
      <use x="63.378906" xlink:href="#DejaVuSans-69"/>
      <use x="91.162109" xlink:href="#DejaVuSans-67"/>
      <use x="154.638672" xlink:href="#DejaVuSans-68"/>
      <use x="218.017578" xlink:href="#DejaVuSans-42"/>
      <use x="286.621094" xlink:href="#DejaVuSans-65"/>
      <use x="348.144531" xlink:href="#DejaVuSans-74"/>
      <use x="387.353516" xlink:href="#DejaVuSans-61"/>
     </g>
    </g>
    <g id="line2d_39">
     <path d="M 194.120937 97.189062 
L 214.120937 97.189062 
" style="fill:none;stroke:#8c564b;stroke-linecap:square;stroke-width:1.5;"/>
    </g>
    <g id="line2d_40"/>
    <g id="text_22">
     <!-- lowGamma -->
     <defs>
      <path d="M 59.515625 10.40625 
L 59.515625 29.984375 
L 43.40625 29.984375 
L 43.40625 38.09375 
L 69.28125 38.09375 
L 69.28125 6.78125 
Q 63.578125 2.734375 56.6875 0.65625 
Q 49.8125 -1.421875 42 -1.421875 
Q 24.90625 -1.421875 15.25 8.5625 
Q 5.609375 18.5625 5.609375 36.375 
Q 5.609375 54.25 15.25 64.234375 
Q 24.90625 74.21875 42 74.21875 
Q 49.125 74.21875 55.546875 72.453125 
Q 61.96875 70.703125 67.390625 67.28125 
L 67.390625 56.78125 
Q 61.921875 61.421875 55.765625 63.765625 
Q 49.609375 66.109375 42.828125 66.109375 
Q 29.4375 66.109375 22.71875 58.640625 
Q 16.015625 51.171875 16.015625 36.375 
Q 16.015625 21.625 22.71875 14.15625 
Q 29.4375 6.6875 42.828125 6.6875 
Q 48.046875 6.6875 52.140625 7.59375 
Q 56.25 8.5 59.515625 10.40625 
" id="DejaVuSans-47"/>
      <path d="M 52 44.1875 
Q 55.375 50.25 60.0625 53.125 
Q 64.75 56 71.09375 56 
Q 79.640625 56 84.28125 50.015625 
Q 88.921875 44.046875 88.921875 33.015625 
L 88.921875 0 
L 79.890625 0 
L 79.890625 32.71875 
Q 79.890625 40.578125 77.09375 44.375 
Q 74.3125 48.1875 68.609375 48.1875 
Q 61.625 48.1875 57.5625 43.546875 
Q 53.515625 38.921875 53.515625 30.90625 
L 53.515625 0 
L 44.484375 0 
L 44.484375 32.71875 
Q 44.484375 40.625 41.703125 44.40625 
Q 38.921875 48.1875 33.109375 48.1875 
Q 26.21875 48.1875 22.15625 43.53125 
Q 18.109375 38.875 18.109375 30.90625 
L 18.109375 0 
L 9.078125 0 
L 9.078125 54.6875 
L 18.109375 54.6875 
L 18.109375 46.1875 
Q 21.1875 51.21875 25.484375 53.609375 
Q 29.78125 56 35.6875 56 
Q 41.65625 56 45.828125 52.96875 
Q 50 49.953125 52 44.1875 
" id="DejaVuSans-6d"/>
     </defs>
     <g transform="translate(222.120937 100.689062)scale(0.1 -0.1)">
      <use xlink:href="#DejaVuSans-6c"/>
      <use x="27.783203" xlink:href="#DejaVuSans-6f"/>
      <use x="88.964844" xlink:href="#DejaVuSans-77"/>
      <use x="170.751953" xlink:href="#DejaVuSans-47"/>
      <use x="248.242188" xlink:href="#DejaVuSans-61"/>
      <use x="309.521484" xlink:href="#DejaVuSans-6d"/>
      <use x="406.933594" xlink:href="#DejaVuSans-6d"/>
      <use x="504.345703" xlink:href="#DejaVuSans-61"/>
     </g>
    </g>
    <g id="line2d_41">
     <path d="M 194.120937 111.867188 
L 214.120937 111.867188 
" style="fill:none;stroke:#e377c2;stroke-linecap:square;stroke-width:1.5;"/>
    </g>
    <g id="line2d_42"/>
    <g id="text_23">
     <!-- midGamma -->
     <g transform="translate(222.120937 115.367188)scale(0.1 -0.1)">
      <use xlink:href="#DejaVuSans-6d"/>
      <use x="97.412109" xlink:href="#DejaVuSans-69"/>
      <use x="125.195312" xlink:href="#DejaVuSans-64"/>
      <use x="188.671875" xlink:href="#DejaVuSans-47"/>
      <use x="266.162109" xlink:href="#DejaVuSans-61"/>
      <use x="327.441406" xlink:href="#DejaVuSans-6d"/>
      <use x="424.853516" xlink:href="#DejaVuSans-6d"/>
      <use x="522.265625" xlink:href="#DejaVuSans-61"/>
     </g>
    </g>
    <g id="line2d_43">
     <path d="M 194.120937 126.545312 
L 214.120937 126.545312 
" style="fill:none;stroke:#7f7f7f;stroke-linecap:square;stroke-width:1.5;"/>
    </g>
    <g id="line2d_44"/>
    <g id="text_24">
     <!-- attention -->
     <defs>
      <path d="M 54.890625 33.015625 
L 54.890625 0 
L 45.90625 0 
L 45.90625 32.71875 
Q 45.90625 40.484375 42.875 44.328125 
Q 39.84375 48.1875 33.796875 48.1875 
Q 26.515625 48.1875 22.3125 43.546875 
Q 18.109375 38.921875 18.109375 30.90625 
L 18.109375 0 
L 9.078125 0 
L 9.078125 54.6875 
L 18.109375 54.6875 
L 18.109375 46.1875 
Q 21.34375 51.125 25.703125 53.5625 
Q 30.078125 56 35.796875 56 
Q 45.21875 56 50.046875 50.171875 
Q 54.890625 44.34375 54.890625 33.015625 
" id="DejaVuSans-6e"/>
     </defs>
     <g transform="translate(222.120937 130.045312)scale(0.1 -0.1)">
      <use xlink:href="#DejaVuSans-61"/>
      <use x="61.279297" xlink:href="#DejaVuSans-74"/>
      <use x="100.488281" xlink:href="#DejaVuSans-74"/>
      <use x="139.697266" xlink:href="#DejaVuSans-65"/>
      <use x="201.220703" xlink:href="#DejaVuSans-6e"/>
      <use x="264.599609" xlink:href="#DejaVuSans-74"/>
      <use x="303.808594" xlink:href="#DejaVuSans-69"/>
      <use x="331.591797" xlink:href="#DejaVuSans-6f"/>
      <use x="392.773438" xlink:href="#DejaVuSans-6e"/>
     </g>
    </g>
    <g id="line2d_45">
     <path d="M 194.120937 141.223437 
L 214.120937 141.223437 
" style="fill:none;stroke:#bcbd22;stroke-linecap:square;stroke-width:1.5;"/>
    </g>
    <g id="line2d_46"/>
    <g id="text_25">
     <!-- meditation -->
     <g transform="translate(222.120937 144.723437)scale(0.1 -0.1)">
      <use xlink:href="#DejaVuSans-6d"/>
      <use x="97.412109" xlink:href="#DejaVuSans-65"/>
      <use x="158.935547" xlink:href="#DejaVuSans-64"/>
      <use x="222.412109" xlink:href="#DejaVuSans-69"/>
      <use x="250.195312" xlink:href="#DejaVuSans-74"/>
      <use x="289.404297" xlink:href="#DejaVuSans-61"/>
      <use x="350.683594" xlink:href="#DejaVuSans-74"/>
      <use x="389.892578" xlink:href="#DejaVuSans-69"/>
      <use x="417.675781" xlink:href="#DejaVuSans-6f"/>
      <use x="478.857422" xlink:href="#DejaVuSans-6e"/>
     </g>
    </g>
    <g id="line2d_47">
     <path d="M 194.120937 155.901562 
L 214.120937 155.901562 
" style="fill:none;stroke:#17becf;stroke-linecap:square;stroke-width:1.5;"/>
    </g>
    <g id="line2d_48"/>
    <g id="text_26">
     <!-- rawValue -->
     <defs>
      <path d="M 41.109375 46.296875 
Q 39.59375 47.171875 37.8125 47.578125 
Q 36.03125 48 33.890625 48 
Q 26.265625 48 22.1875 43.046875 
Q 18.109375 38.09375 18.109375 28.8125 
L 18.109375 0 
L 9.078125 0 
L 9.078125 54.6875 
L 18.109375 54.6875 
L 18.109375 46.1875 
Q 20.953125 51.171875 25.484375 53.578125 
Q 30.03125 56 36.53125 56 
Q 37.453125 56 38.578125 55.875 
Q 39.703125 55.765625 41.0625 55.515625 
z
" id="DejaVuSans-72"/>
      <path d="M 28.609375 0 
L 0.78125 72.90625 
L 11.078125 72.90625 
L 34.1875 11.53125 
L 57.328125 72.90625 
L 67.578125 72.90625 
L 39.796875 0 
z
" id="DejaVuSans-56"/>
      <path d="M 8.5 21.578125 
L 8.5 54.6875 
L 17.484375 54.6875 
L 17.484375 21.921875 
Q 17.484375 14.15625 20.5 10.265625 
Q 23.53125 6.390625 29.59375 6.390625 
Q 36.859375 6.390625 41.078125 11.03125 
Q 45.3125 15.671875 45.3125 23.6875 
L 45.3125 54.6875 
L 54.296875 54.6875 
L 54.296875 0 
L 45.3125 0 
L 45.3125 8.40625 
Q 42.046875 3.421875 37.71875 1 
Q 33.40625 -1.421875 27.6875 -1.421875 
Q 18.265625 -1.421875 13.375 4.4375 
Q 8.5 10.296875 8.5 21.578125 
M 31.109375 56 
z
" id="DejaVuSans-75"/>
     </defs>
     <g transform="translate(222.120937 159.401562)scale(0.1 -0.1)">
      <use xlink:href="#DejaVuSans-72"/>
      <use x="41.113281" xlink:href="#DejaVuSans-61"/>
      <use x="102.392578" xlink:href="#DejaVuSans-77"/>
      <use x="184.179688" xlink:href="#DejaVuSans-56"/>
      <use x="252.478516" xlink:href="#DejaVuSans-61"/>
      <use x="313.757812" xlink:href="#DejaVuSans-6c"/>
      <use x="341.541016" xlink:href="#DejaVuSans-75"/>
      <use x="404.919922" xlink:href="#DejaVuSans-65"/>
     </g>
    </g>
   </g>
  </g>
 </g>
 <defs>
  <clipPath id="p4049c75373">
   <rect height="266.112" width="357.12" x="58.7375" y="10.7"/>
  </clipPath>
 </defs>
</svg>
