<?xml version="1.0" encoding="utf-8" standalone="no"?>
<!DOCTYPE svg PUBLIC "-//W3C//DTD SVG 1.1//EN"
  "http://www.w3.org/Graphics/SVG/1.1/DTD/svg11.dtd">
<!-- Created with matplotlib (http://matplotlib.org/) -->
<svg height="300pt" version="1.1" viewBox="0 0 426 300" width="426pt" xmlns="http://www.w3.org/2000/svg" xmlns:xlink="http://www.w3.org/1999/xlink">
 <defs>
  <style type="text/css">
*{stroke-linecap:butt;stroke-linejoin:round;}
  </style>
 </defs>
 <g id="figure_1">
  <g id="patch_1">
   <path d="M 0 300.690125 
L 426.5575 300.690125 
L 426.5575 0 
L 0 0 
z
" style="fill:#ffffff;"/>
  </g>
  <g id="axes_1">
   <g id="patch_2">
    <path d="M 58.7375 276.812 
L 415.8575 276.812 
L 415.8575 10.7 
L 58.7375 10.7 
z
" style="fill:#ffffff;"/>
   </g>
   <g id="matplotlib.axis_1">
    <g id="xtick_1">
     <g id="line2d_1">
      <defs>
       <path d="M 0 0 
L 0 3.5 
" id="ma0c29bd797" style="stroke:#000000;stroke-width:0.8;"/>
      </defs>
      <g>
       <use style="stroke:#000000;stroke-width:0.8;" x="74.970227" xlink:href="#ma0c29bd797" y="276.812"/>
      </g>
     </g>
     <g id="text_1">
      <!-- 0 -->
      <defs>
       <path d="M 31.78125 66.40625 
Q 24.171875 66.40625 20.328125 58.90625 
Q 16.5 51.421875 16.5 36.375 
Q 16.5 21.390625 20.328125 13.890625 
Q 24.171875 6.390625 31.78125 6.390625 
Q 39.453125 6.390625 43.28125 13.890625 
Q 47.125 21.390625 47.125 36.375 
Q 47.125 51.421875 43.28125 58.90625 
Q 39.453125 66.40625 31.78125 66.40625 
M 31.78125 74.21875 
Q 44.046875 74.21875 50.515625 64.515625 
Q 56.984375 54.828125 56.984375 36.375 
Q 56.984375 17.96875 50.515625 8.265625 
Q 44.046875 -1.421875 31.78125 -1.421875 
Q 19.53125 -1.421875 13.0625 8.265625 
Q 6.59375 17.96875 6.59375 36.375 
Q 6.59375 54.828125 13.0625 64.515625 
Q 19.53125 74.21875 31.78125 74.21875 
" id="DejaVuSans-30"/>
      </defs>
      <g transform="translate(71.788977 291.410437)scale(0.1 -0.1)">
       <use xlink:href="#DejaVuSans-30"/>
      </g>
     </g>
    </g>
    <g id="xtick_2">
     <g id="line2d_2">
      <g>
       <use style="stroke:#000000;stroke-width:0.8;" x="116.380246" xlink:href="#ma0c29bd797" y="276.812"/>
      </g>
     </g>
     <g id="text_2">
      <!-- 25 -->
      <defs>
       <path d="M 19.1875 8.296875 
L 53.609375 8.296875 
L 53.609375 0 
L 7.328125 0 
L 7.328125 8.296875 
Q 12.9375 14.109375 22.625 23.890625 
Q 32.328125 33.6875 34.8125 36.53125 
Q 39.546875 41.84375 41.421875 45.53125 
Q 43.3125 49.21875 43.3125 52.78125 
Q 43.3125 58.59375 39.234375 62.25 
Q 35.15625 65.921875 28.609375 65.921875 
Q 23.96875 65.921875 18.8125 64.3125 
Q 13.671875 62.703125 7.8125 59.421875 
L 7.8125 69.390625 
Q 13.765625 71.78125 18.9375 73 
Q 24.125 74.21875 28.421875 74.21875 
Q 39.75 74.21875 46.484375 68.546875 
Q 53.21875 62.890625 53.21875 53.421875 
Q 53.21875 48.921875 51.53125 44.890625 
Q 49.859375 40.875 45.40625 35.40625 
Q 44.1875 33.984375 37.640625 27.21875 
Q 31.109375 20.453125 19.1875 8.296875 
" id="DejaVuSans-32"/>
       <path d="M 10.796875 72.90625 
L 49.515625 72.90625 
L 49.515625 64.59375 
L 19.828125 64.59375 
L 19.828125 46.734375 
Q 21.96875 47.46875 24.109375 47.828125 
Q 26.265625 48.1875 28.421875 48.1875 
Q 40.625 48.1875 47.75 41.5 
Q 54.890625 34.8125 54.890625 23.390625 
Q 54.890625 11.625 47.5625 5.09375 
Q 40.234375 -1.421875 26.90625 -1.421875 
Q 22.3125 -1.421875 17.546875 -0.640625 
Q 12.796875 0.140625 7.71875 1.703125 
L 7.71875 11.625 
Q 12.109375 9.234375 16.796875 8.0625 
Q 21.484375 6.890625 26.703125 6.890625 
Q 35.15625 6.890625 40.078125 11.328125 
Q 45.015625 15.765625 45.015625 23.390625 
Q 45.015625 31 40.078125 35.4375 
Q 35.15625 39.890625 26.703125 39.890625 
Q 22.75 39.890625 18.8125 39.015625 
Q 14.890625 38.140625 10.796875 36.28125 
z
" id="DejaVuSans-35"/>
      </defs>
      <g transform="translate(110.017746 291.410437)scale(0.1 -0.1)">
       <use xlink:href="#DejaVuSans-32"/>
       <use x="63.623047" xlink:href="#DejaVuSans-35"/>
      </g>
     </g>
    </g>
    <g id="xtick_3">
     <g id="line2d_3">
      <g>
       <use style="stroke:#000000;stroke-width:0.8;" x="157.790264" xlink:href="#ma0c29bd797" y="276.812"/>
      </g>
     </g>
     <g id="text_3">
      <!-- 50 -->
      <g transform="translate(151.427764 291.410437)scale(0.1 -0.1)">
       <use xlink:href="#DejaVuSans-35"/>
       <use x="63.623047" xlink:href="#DejaVuSans-30"/>
      </g>
     </g>
    </g>
    <g id="xtick_4">
     <g id="line2d_4">
      <g>
       <use style="stroke:#000000;stroke-width:0.8;" x="199.200283" xlink:href="#ma0c29bd797" y="276.812"/>
      </g>
     </g>
     <g id="text_4">
      <!-- 75 -->
      <defs>
       <path d="M 8.203125 72.90625 
L 55.078125 72.90625 
L 55.078125 68.703125 
L 28.609375 0 
L 18.3125 0 
L 43.21875 64.59375 
L 8.203125 64.59375 
z
" id="DejaVuSans-37"/>
      </defs>
      <g transform="translate(192.837783 291.410437)scale(0.1 -0.1)">
       <use xlink:href="#DejaVuSans-37"/>
       <use x="63.623047" xlink:href="#DejaVuSans-35"/>
      </g>
     </g>
    </g>
    <g id="xtick_5">
     <g id="line2d_5">
      <g>
       <use style="stroke:#000000;stroke-width:0.8;" x="240.610301" xlink:href="#ma0c29bd797" y="276.812"/>
      </g>
     </g>
     <g id="text_5">
      <!-- 100 -->
      <defs>
       <path d="M 12.40625 8.296875 
L 28.515625 8.296875 
L 28.515625 63.921875 
L 10.984375 60.40625 
L 10.984375 69.390625 
L 28.421875 72.90625 
L 38.28125 72.90625 
L 38.28125 8.296875 
L 54.390625 8.296875 
L 54.390625 0 
L 12.40625 0 
z
" id="DejaVuSans-31"/>
      </defs>
      <g transform="translate(231.066551 291.410437)scale(0.1 -0.1)">
       <use xlink:href="#DejaVuSans-31"/>
       <use x="63.623047" xlink:href="#DejaVuSans-30"/>
       <use x="127.246094" xlink:href="#DejaVuSans-30"/>
      </g>
     </g>
    </g>
    <g id="xtick_6">
     <g id="line2d_6">
      <g>
       <use style="stroke:#000000;stroke-width:0.8;" x="282.02032" xlink:href="#ma0c29bd797" y="276.812"/>
      </g>
     </g>
     <g id="text_6">
      <!-- 125 -->
      <g transform="translate(272.47657 291.410437)scale(0.1 -0.1)">
       <use xlink:href="#DejaVuSans-31"/>
       <use x="63.623047" xlink:href="#DejaVuSans-32"/>
       <use x="127.246094" xlink:href="#DejaVuSans-35"/>
      </g>
     </g>
    </g>
    <g id="xtick_7">
     <g id="line2d_7">
      <g>
       <use style="stroke:#000000;stroke-width:0.8;" x="323.430339" xlink:href="#ma0c29bd797" y="276.812"/>
      </g>
     </g>
     <g id="text_7">
      <!-- 150 -->
      <g transform="translate(313.886589 291.410437)scale(0.1 -0.1)">
       <use xlink:href="#DejaVuSans-31"/>
       <use x="63.623047" xlink:href="#DejaVuSans-35"/>
       <use x="127.246094" xlink:href="#DejaVuSans-30"/>
      </g>
     </g>
    </g>
    <g id="xtick_8">
     <g id="line2d_8">
      <g>
       <use style="stroke:#000000;stroke-width:0.8;" x="364.840357" xlink:href="#ma0c29bd797" y="276.812"/>
      </g>
     </g>
     <g id="text_8">
      <!-- 175 -->
      <g transform="translate(355.296607 291.410437)scale(0.1 -0.1)">
       <use xlink:href="#DejaVuSans-31"/>
       <use x="63.623047" xlink:href="#DejaVuSans-37"/>
       <use x="127.246094" xlink:href="#DejaVuSans-35"/>
      </g>
     </g>
    </g>
    <g id="xtick_9">
     <g id="line2d_9">
      <g>
       <use style="stroke:#000000;stroke-width:0.8;" x="406.250376" xlink:href="#ma0c29bd797" y="276.812"/>
      </g>
     </g>
     <g id="text_9">
      <!-- 200 -->
      <g transform="translate(396.706626 291.410437)scale(0.1 -0.1)">
       <use xlink:href="#DejaVuSans-32"/>
       <use x="63.623047" xlink:href="#DejaVuSans-30"/>
       <use x="127.246094" xlink:href="#DejaVuSans-30"/>
      </g>
     </g>
    </g>
   </g>
   <g id="matplotlib.axis_2">
    <g id="ytick_1">
     <g id="line2d_10">
      <defs>
       <path d="M 0 0 
L -3.5 0 
" id="m88f1899788" style="stroke:#000000;stroke-width:0.8;"/>
      </defs>
      <g>
       <use style="stroke:#000000;stroke-width:0.8;" x="58.7375" xlink:href="#m88f1899788" y="264.702842"/>
      </g>
     </g>
     <g id="text_10">
      <!-- 0 -->
      <g transform="translate(45.375 268.502061)scale(0.1 -0.1)">
       <use xlink:href="#DejaVuSans-30"/>
      </g>
     </g>
    </g>
    <g id="ytick_2">
     <g id="line2d_11">
      <g>
       <use style="stroke:#000000;stroke-width:0.8;" x="58.7375" xlink:href="#m88f1899788" y="229.332808"/>
      </g>
     </g>
     <g id="text_11">
      <!-- 500000 -->
      <g transform="translate(13.5625 233.132027)scale(0.1 -0.1)">
       <use xlink:href="#DejaVuSans-35"/>
       <use x="63.623047" xlink:href="#DejaVuSans-30"/>
       <use x="127.246094" xlink:href="#DejaVuSans-30"/>
       <use x="190.869141" xlink:href="#DejaVuSans-30"/>
       <use x="254.492188" xlink:href="#DejaVuSans-30"/>
       <use x="318.115234" xlink:href="#DejaVuSans-30"/>
      </g>
     </g>
    </g>
    <g id="ytick_3">
     <g id="line2d_12">
      <g>
       <use style="stroke:#000000;stroke-width:0.8;" x="58.7375" xlink:href="#m88f1899788" y="193.962774"/>
      </g>
     </g>
     <g id="text_12">
      <!-- 1000000 -->
      <g transform="translate(7.2 197.761992)scale(0.1 -0.1)">
       <use xlink:href="#DejaVuSans-31"/>
       <use x="63.623047" xlink:href="#DejaVuSans-30"/>
       <use x="127.246094" xlink:href="#DejaVuSans-30"/>
       <use x="190.869141" xlink:href="#DejaVuSans-30"/>
       <use x="254.492188" xlink:href="#DejaVuSans-30"/>
       <use x="318.115234" xlink:href="#DejaVuSans-30"/>
       <use x="381.738281" xlink:href="#DejaVuSans-30"/>
      </g>
     </g>
    </g>
    <g id="ytick_4">
     <g id="line2d_13">
      <g>
       <use style="stroke:#000000;stroke-width:0.8;" x="58.7375" xlink:href="#m88f1899788" y="158.592739"/>
      </g>
     </g>
     <g id="text_13">
      <!-- 1500000 -->
      <g transform="translate(7.2 162.391958)scale(0.1 -0.1)">
       <use xlink:href="#DejaVuSans-31"/>
       <use x="63.623047" xlink:href="#DejaVuSans-35"/>
       <use x="127.246094" xlink:href="#DejaVuSans-30"/>
       <use x="190.869141" xlink:href="#DejaVuSans-30"/>
       <use x="254.492188" xlink:href="#DejaVuSans-30"/>
       <use x="318.115234" xlink:href="#DejaVuSans-30"/>
       <use x="381.738281" xlink:href="#DejaVuSans-30"/>
      </g>
     </g>
    </g>
    <g id="ytick_5">
     <g id="line2d_14">
      <g>
       <use style="stroke:#000000;stroke-width:0.8;" x="58.7375" xlink:href="#m88f1899788" y="123.222705"/>
      </g>
     </g>
     <g id="text_14">
      <!-- 2000000 -->
      <g transform="translate(7.2 127.021923)scale(0.1 -0.1)">
       <use xlink:href="#DejaVuSans-32"/>
       <use x="63.623047" xlink:href="#DejaVuSans-30"/>
       <use x="127.246094" xlink:href="#DejaVuSans-30"/>
       <use x="190.869141" xlink:href="#DejaVuSans-30"/>
       <use x="254.492188" xlink:href="#DejaVuSans-30"/>
       <use x="318.115234" xlink:href="#DejaVuSans-30"/>
       <use x="381.738281" xlink:href="#DejaVuSans-30"/>
      </g>
     </g>
    </g>
    <g id="ytick_6">
     <g id="line2d_15">
      <g>
       <use style="stroke:#000000;stroke-width:0.8;" x="58.7375" xlink:href="#m88f1899788" y="87.85267"/>
      </g>
     </g>
     <g id="text_15">
      <!-- 2500000 -->
      <g transform="translate(7.2 91.651889)scale(0.1 -0.1)">
       <use xlink:href="#DejaVuSans-32"/>
       <use x="63.623047" xlink:href="#DejaVuSans-35"/>
       <use x="127.246094" xlink:href="#DejaVuSans-30"/>
       <use x="190.869141" xlink:href="#DejaVuSans-30"/>
       <use x="254.492188" xlink:href="#DejaVuSans-30"/>
       <use x="318.115234" xlink:href="#DejaVuSans-30"/>
       <use x="381.738281" xlink:href="#DejaVuSans-30"/>
      </g>
     </g>
    </g>
    <g id="ytick_7">
     <g id="line2d_16">
      <g>
       <use style="stroke:#000000;stroke-width:0.8;" x="58.7375" xlink:href="#m88f1899788" y="52.482636"/>
      </g>
     </g>
     <g id="text_16">
      <!-- 3000000 -->
      <defs>
       <path d="M 40.578125 39.3125 
Q 47.65625 37.796875 51.625 33 
Q 55.609375 28.21875 55.609375 21.1875 
Q 55.609375 10.40625 48.1875 4.484375 
Q 40.765625 -1.421875 27.09375 -1.421875 
Q 22.515625 -1.421875 17.65625 -0.515625 
Q 12.796875 0.390625 7.625 2.203125 
L 7.625 11.71875 
Q 11.71875 9.328125 16.59375 8.109375 
Q 21.484375 6.890625 26.8125 6.890625 
Q 36.078125 6.890625 40.9375 10.546875 
Q 45.796875 14.203125 45.796875 21.1875 
Q 45.796875 27.640625 41.28125 31.265625 
Q 36.765625 34.90625 28.71875 34.90625 
L 20.21875 34.90625 
L 20.21875 43.015625 
L 29.109375 43.015625 
Q 36.375 43.015625 40.234375 45.921875 
Q 44.09375 48.828125 44.09375 54.296875 
Q 44.09375 59.90625 40.109375 62.90625 
Q 36.140625 65.921875 28.71875 65.921875 
Q 24.65625 65.921875 20.015625 65.03125 
Q 15.375 64.15625 9.8125 62.3125 
L 9.8125 71.09375 
Q 15.4375 72.65625 20.34375 73.4375 
Q 25.25 74.21875 29.59375 74.21875 
Q 40.828125 74.21875 47.359375 69.109375 
Q 53.90625 64.015625 53.90625 55.328125 
Q 53.90625 49.265625 50.4375 45.09375 
Q 46.96875 40.921875 40.578125 39.3125 
" id="DejaVuSans-33"/>
      </defs>
      <g transform="translate(7.2 56.281855)scale(0.1 -0.1)">
       <use xlink:href="#DejaVuSans-33"/>
       <use x="63.623047" xlink:href="#DejaVuSans-30"/>
       <use x="127.246094" xlink:href="#DejaVuSans-30"/>
       <use x="190.869141" xlink:href="#DejaVuSans-30"/>
       <use x="254.492188" xlink:href="#DejaVuSans-30"/>
       <use x="318.115234" xlink:href="#DejaVuSans-30"/>
       <use x="381.738281" xlink:href="#DejaVuSans-30"/>
      </g>
     </g>
    </g>
    <g id="ytick_8">
     <g id="line2d_17">
      <g>
       <use style="stroke:#000000;stroke-width:0.8;" x="58.7375" xlink:href="#m88f1899788" y="17.112601"/>
      </g>
     </g>
     <g id="text_17">
      <!-- 3500000 -->
      <g transform="translate(7.2 20.91182)scale(0.1 -0.1)">
       <use xlink:href="#DejaVuSans-33"/>
       <use x="63.623047" xlink:href="#DejaVuSans-35"/>
       <use x="127.246094" xlink:href="#DejaVuSans-30"/>
       <use x="190.869141" xlink:href="#DejaVuSans-30"/>
       <use x="254.492188" xlink:href="#DejaVuSans-30"/>
       <use x="318.115234" xlink:href="#DejaVuSans-30"/>
       <use x="381.738281" xlink:href="#DejaVuSans-30"/>
      </g>
     </g>
    </g>
   </g>
   <g id="line2d_18">
    <path clip-path="url(#p9118ab8249)" d="M 74.970227 215.454172 
L 76.626628 191.540846 
L 78.283029 262.446376 
L 79.939429 262.965113 
L 81.59583 254.021658 
L 83.252231 263.551689 
L 84.908632 263.617619 
L 86.565032 243.642887 
L 88.221433 263.327514 
L 89.877834 260.617179 
L 91.534235 255.768938 
L 93.190635 260.375672 
L 94.847036 258.555318 
L 96.503437 180.833912 
L 98.159838 264.416911 
L 99.816238 264.052317 
L 101.472639 264.40538 
L 103.12904 263.834862 
L 104.785441 229.625389 
L 106.441841 259.152223 
L 108.098242 263.949461 
L 109.754643 258.742213 
L 111.411044 246.623166 
L 113.067444 262.322227 
L 114.723845 264.160549 
L 116.380246 263.332961 
L 118.036647 255.67549 
L 119.693047 263.27078 
L 121.349448 254.100038 
L 123.005849 199.397096 
L 124.66225 240.74495 
L 126.31865 262.331069 
L 127.975051 259.728542 
L 129.631452 220.999345 
L 131.287853 239.958744 
L 132.944253 253.805971 
L 134.600654 260.6077 
L 136.257055 238.942351 
L 137.913455 260.299556 
L 139.569856 251.692966 
L 141.226257 145.523087 
L 142.882658 239.798306 
L 144.539058 260.506541 
L 146.195459 255.941897 
L 147.85186 260.375036 
L 149.508261 257.321328 
L 151.164661 259.722246 
L 152.821062 260.063779 
L 154.477463 262.687953 
L 156.133864 222.635987 
L 157.790264 263.273893 
L 159.446665 231.556805 
L 161.103066 263.870161 
L 162.759467 260.680704 
L 164.415867 263.385238 
L 166.072268 264.537947 
L 167.728669 264.010226 
L 169.38507 226.774564 
L 171.04147 263.881338 
L 172.697871 263.985821 
L 174.354272 263.652706 
L 176.010673 262.65329 
L 177.667073 262.458189 
L 179.323474 261.403455 
L 180.979875 251.169701 
L 182.636276 263.654687 
L 184.292676 263.483779 
L 185.949077 264.072195 
L 187.605478 264.319077 
L 189.261878 257.815872 
L 190.918279 264.426602 
L 192.57468 261.260843 
L 194.231081 256.667336 
L 195.887481 263.411553 
L 197.543882 264.193585 
L 199.200283 263.867119 
L 200.856684 263.042573 
L 202.513084 262.646782 
L 204.169485 263.861814 
L 205.825886 261.053999 
L 207.482287 264.124047 
L 209.138687 262.117505 
L 210.795088 264.3843 
L 212.451489 262.513154 
L 214.10789 263.210156 
L 215.76429 257.466982 
L 217.420691 264.408351 
L 219.077092 262.529424 
L 220.733493 263.233147 
L 222.389893 260.824094 
L 224.046294 262.060772 
L 225.702695 263.810527 
L 229.015496 260.42229 
L 230.671897 251.18675 
L 232.328298 22.796 
L 233.984699 262.912553 
L 235.641099 263.613304 
L 237.2975 263.634597 
L 238.953901 262.499572 
L 240.610301 264.25817 
L 242.266702 257.637254 
L 243.923103 235.693896 
L 245.579504 263.161841 
L 247.235904 223.535589 
L 248.892305 258.692766 
L 250.548706 263.438151 
L 252.205107 238.654722 
L 253.861507 239.888004 
L 255.517908 259.867476 
L 257.174309 261.297911 
L 258.83071 263.961416 
L 260.48711 260.503853 
L 262.143511 260.277556 
L 263.799912 264.349001 
L 265.456313 258.664541 
L 267.112713 263.652635 
L 268.769114 257.403458 
L 270.425515 263.426267 
L 272.081916 259.993039 
L 273.738316 264.256331 
L 275.394717 262.848321 
L 277.051118 263.005859 
L 278.707519 264.217636 
L 280.363919 263.464184 
L 282.02032 264.046375 
L 283.676721 264.314833 
L 285.333122 262.959524 
L 286.989522 255.080707 
L 288.645923 263.599014 
L 290.302324 262.958109 
L 291.958724 264.085777 
L 293.615125 264.172009 
L 295.271526 263.41983 
L 296.927927 262.041106 
L 298.584327 263.061319 
L 300.240728 263.319874 
L 301.897129 262.688731 
L 303.55353 261.003066 
L 305.20993 261.144475 
L 306.866331 258.462861 
L 308.522732 263.456898 
L 310.179133 260.930982 
L 311.835533 263.692038 
L 313.491934 263.981789 
L 315.148335 263.944863 
L 316.804736 262.453237 
L 318.461136 263.373636 
L 320.117537 264.598218 
L 321.773938 264.496211 
L 323.430339 262.997582 
L 325.086739 199.965422 
L 326.74314 263.990278 
L 328.399541 263.89683 
L 330.055942 257.830232 
L 331.712342 264.526629 
L 333.368743 263.544757 
L 335.025144 243.947635 
L 336.681545 264.403329 
L 338.337945 264.043899 
L 339.994346 262.879729 
L 341.650747 262.198856 
L 343.307147 264.208581 
L 344.963548 263.867331 
L 346.619949 264.308679 
L 348.27635 264.345322 
L 349.93275 263.649523 
L 351.589151 262.252619 
L 353.245552 260.093278 
L 354.901953 194.271483 
L 356.558353 261.090218 
L 358.214754 255.009755 
L 359.871155 242.019544 
L 361.527556 194.544752 
L 363.183956 263.454492 
L 364.840357 264.490693 
L 366.496758 264.39583 
L 368.153159 229.523169 
L 369.809559 260.575584 
L 371.46596 260.512908 
L 373.122361 262.122032 
L 374.778762 263.346189 
L 376.435162 261.833413 
L 378.091563 263.338266 
L 379.747964 261.817921 
L 381.404365 263.616346 
L 383.060765 264.387978 
L 384.717166 263.254086 
L 386.373567 263.426974 
L 388.029968 259.967927 
L 389.686368 259.218648 
L 391.342769 217.852968 
L 392.99917 210.727179 
L 394.655571 243.152093 
L 396.311971 164.164722 
L 397.968372 263.0222 
L 399.624773 262.5319 
L 399.624773 262.5319 
" style="fill:none;stroke:#1f77b4;stroke-linecap:square;stroke-width:1.5;"/>
   </g>
   <g id="line2d_19">
    <path clip-path="url(#p9118ab8249)" d="M 74.970227 250.198299 
L 76.626628 244.093006 
L 78.283029 262.99065 
L 79.939429 263.975634 
L 81.59583 262.580994 
L 83.252231 264.565819 
L 84.908632 263.606371 
L 86.565032 261.256386 
L 88.221433 264.317663 
L 89.877834 258.905835 
L 91.534235 259.200397 
L 93.190635 264.282717 
L 94.847036 264.10134 
L 96.503437 257.9026 
L 98.159838 264.241688 
L 99.816238 264.12907 
L 101.472639 263.721961 
L 103.12904 264.268498 
L 104.785441 257.259077 
L 106.441841 263.816964 
L 108.098242 264.034419 
L 109.754643 261.87522 
L 113.067444 263.77643 
L 114.723845 264.145977 
L 116.380246 263.480949 
L 118.036647 262.190509 
L 119.693047 264.501092 
L 121.349448 262.13427 
L 123.005849 227.897209 
L 124.66225 259.696638 
L 126.31865 263.522332 
L 127.975051 264.388756 
L 129.631452 255.555515 
L 131.287853 261.399069 
L 132.944253 263.186387 
L 134.600654 264.352042 
L 136.257055 260.404817 
L 137.913455 263.481869 
L 139.569856 263.380852 
L 141.226257 246.457988 
L 142.882658 256.812354 
L 144.539058 255.373501 
L 146.195459 264.415567 
L 147.85186 261.23283 
L 149.508261 244.12781 
L 151.164661 261.378271 
L 152.821062 262.507637 
L 154.477463 260.321839 
L 156.133864 246.361216 
L 157.790264 262.050868 
L 159.446665 256.441817 
L 161.103066 264.302171 
L 162.759467 263.146915 
L 164.415867 263.639195 
L 166.072268 257.848837 
L 167.728669 261.693489 
L 169.38507 262.424871 
L 171.04147 262.200837 
L 172.697871 263.535631 
L 174.354272 262.656049 
L 176.010673 263.274813 
L 177.667073 259.025315 
L 179.323474 263.195654 
L 180.979875 263.167641 
L 182.636276 262.2002 
L 184.292676 264.00195 
L 185.949077 263.540795 
L 187.605478 263.903126 
L 189.261878 263.018804 
L 190.918279 263.780463 
L 192.57468 263.438788 
L 194.231081 262.429893 
L 195.887481 264.383805 
L 197.543882 264.358975 
L 199.200283 258.936819 
L 200.856684 264.386917 
L 202.513084 261.730132 
L 204.169485 262.780693 
L 205.825886 263.602834 
L 207.482287 262.936746 
L 209.138687 263.570082 
L 210.795088 262.481463 
L 212.451489 263.650301 
L 214.10789 262.345571 
L 215.76429 264.041989 
L 217.420691 264.462963 
L 219.077092 262.695168 
L 220.733493 264.281161 
L 222.389893 263.673999 
L 224.046294 262.26139 
L 225.702695 258.951109 
L 227.359096 258.446166 
L 229.015496 264.081745 
L 230.671897 260.576999 
L 232.328298 263.978252 
L 233.984699 263.933898 
L 235.641099 263.037975 
L 237.2975 262.991852 
L 238.953901 262.653503 
L 240.610301 262.543502 
L 242.266702 261.174257 
L 243.923103 260.088043 
L 245.579504 264.071912 
L 247.235904 263.217442 
L 248.892305 263.527708 
L 250.548706 262.881073 
L 252.205107 246.284463 
L 253.861507 257.20581 
L 255.517908 263.255501 
L 257.174309 261.63053 
L 258.83071 263.520917 
L 260.48711 263.651928 
L 262.143511 263.967004 
L 263.799912 262.309423 
L 267.112713 264.170806 
L 268.769114 263.401154 
L 270.425515 260.779315 
L 272.081916 259.446431 
L 273.738316 264.504699 
L 275.394717 263.140619 
L 277.051118 262.442273 
L 278.707519 263.967712 
L 280.363919 264.140034 
L 282.02032 263.641812 
L 283.676721 264.517716 
L 285.333122 263.325533 
L 286.989522 264.128433 
L 288.645923 263.452582 
L 290.302324 263.845473 
L 291.958724 260.788865 
L 293.615125 263.855235 
L 295.271526 262.894372 
L 296.927927 262.879729 
L 298.584327 264.40248 
L 300.240728 261.46323 
L 301.897129 263.336286 
L 303.55353 263.862309 
L 306.866331 262.487476 
L 310.179133 261.601598 
L 311.835533 260.951426 
L 313.491934 261.435712 
L 315.148335 263.976837 
L 316.804736 263.669047 
L 321.773938 263.293559 
L 323.430339 264.051539 
L 325.086739 250.710457 
L 326.74314 263.513702 
L 328.399541 262.775741 
L 330.055942 260.693083 
L 331.712342 264.256685 
L 333.368743 264.300614 
L 335.025144 262.104347 
L 336.681545 263.917486 
L 338.337945 263.916637 
L 339.994346 262.160374 
L 341.650747 262.915524 
L 343.307147 264.159276 
L 344.963548 263.203507 
L 346.619949 263.89011 
L 349.93275 263.595972 
L 351.589151 263.710642 
L 353.245552 262.203808 
L 354.901953 262.05681 
L 356.558353 261.36957 
L 358.214754 262.772063 
L 359.871155 236.073629 
L 361.527556 255.279063 
L 363.183956 264.232421 
L 364.840357 263.786475 
L 366.496758 264.422641 
L 368.153159 261.12198 
L 369.809559 263.362106 
L 371.46596 263.828424 
L 373.122361 262.835446 
L 374.778762 260.808106 
L 376.435162 263.491631 
L 378.091563 263.20478 
L 379.747964 260.862364 
L 381.404365 263.681497 
L 383.060765 262.115807 
L 384.717166 262.781259 
L 386.373567 263.777916 
L 388.029968 264.281585 
L 389.686368 262.4439 
L 391.342769 260.889104 
L 392.99917 231.556451 
L 394.655571 260.527763 
L 396.311971 262.692763 
L 397.968372 263.708378 
L 399.624773 260.749038 
L 399.624773 260.749038 
" style="fill:none;stroke:#ff7f0e;stroke-linecap:square;stroke-width:1.5;"/>
   </g>
   <g id="line2d_20">
    <path clip-path="url(#p9118ab8249)" d="M 74.970227 262.270374 
L 76.626628 256.171166 
L 78.283029 264.428725 
L 79.939429 264.617176 
L 81.59583 263.93503 
L 83.252231 264.504841 
L 84.908632 264.642784 
L 86.565032 264.337824 
L 88.221433 264.606777 
L 89.877834 264.057481 
L 91.534235 264.320492 
L 93.190635 264.263405 
L 94.847036 263.661478 
L 96.503437 263.909351 
L 98.159838 264.351618 
L 99.816238 264.441316 
L 101.472639 263.988155 
L 103.12904 264.579047 
L 104.785441 262.751265 
L 106.441841 264.467561 
L 108.098242 263.239443 
L 109.754643 263.262433 
L 111.411044 264.238717 
L 113.067444 264.220041 
L 114.723845 264.497767 
L 116.380246 263.617973 
L 118.036647 264.519626 
L 119.693047 264.671575 
L 121.349448 264.510712 
L 123.005849 261.148932 
L 124.66225 263.404833 
L 126.31865 264.253572 
L 127.975051 264.646958 
L 129.631452 262.708114 
L 131.287853 262.531547 
L 132.944253 264.45794 
L 134.600654 264.504841 
L 137.913455 263.804373 
L 139.569856 262.477996 
L 141.226257 259.92336 
L 142.882658 263.099165 
L 146.195459 264.09179 
L 147.85186 262.829504 
L 149.508261 263.746012 
L 151.164661 264.533632 
L 152.821062 264.666058 
L 154.477463 263.706115 
L 159.446665 263.831466 
L 161.103066 264.62425 
L 164.415867 264.100561 
L 166.072268 264.566597 
L 167.728669 264.367959 
L 169.38507 264.041918 
L 171.04147 263.91211 
L 172.697871 264.537806 
L 174.354272 263.197564 
L 176.010673 264.204549 
L 177.667073 262.734571 
L 179.323474 263.21341 
L 180.979875 263.490004 
L 182.636276 264.304717 
L 184.292676 264.644057 
L 185.949077 264.465085 
L 187.605478 264.642501 
L 189.261878 263.202445 
L 190.918279 264.436082 
L 192.57468 263.173584 
L 194.231081 263.803029 
L 199.200283 264.10714 
L 200.856684 264.447683 
L 202.513084 263.862733 
L 204.169485 264.422995 
L 205.825886 264.486166 
L 207.482287 263.128239 
L 209.138687 264.196626 
L 210.795088 263.663741 
L 212.451489 264.2008 
L 214.10789 264.030317 
L 215.76429 262.968508 
L 217.420691 264.408351 
L 219.077092 264.112092 
L 220.733493 264.320422 
L 222.389893 262.893241 
L 224.046294 264.436577 
L 227.359096 263.426267 
L 229.015496 264.472796 
L 230.671897 263.063795 
L 232.328298 263.600995 
L 233.984699 264.387908 
L 235.641099 264.590153 
L 237.2975 264.198466 
L 238.953901 264.385361 
L 240.610301 263.708732 
L 242.266702 264.359046 
L 243.923103 263.887492 
L 245.579504 264.562565 
L 247.235904 264.370859 
L 250.548706 264.631607 
L 252.205107 249.690031 
L 253.861507 263.943943 
L 255.517908 263.802251 
L 257.174309 261.696531 
L 258.83071 264.355579 
L 260.48711 263.85863 
L 262.143511 263.515117 
L 263.799912 264.012914 
L 267.112713 264.148735 
L 268.769114 264.550822 
L 270.425515 264.342775 
L 272.081916 262.365449 
L 273.738316 264.622482 
L 275.394717 263.75252 
L 277.051118 264.20745 
L 278.707519 264.259656 
L 280.363919 264.512693 
L 282.02032 264.112304 
L 283.676721 264.658488 
L 285.333122 264.30691 
L 286.989522 264.206954 
L 288.645923 263.219989 
L 290.302324 263.888341 
L 291.958724 264.006902 
L 293.615125 263.910271 
L 295.271526 264.363219 
L 296.927927 264.028336 
L 298.584327 264.616752 
L 300.240728 264.083159 
L 301.897129 264.61852 
L 303.55353 264.619369 
L 305.20993 263.834154 
L 306.866331 264.364917 
L 308.522732 264.541201 
L 310.179133 263.567606 
L 313.491934 264.503992 
L 315.148335 264.360743 
L 316.804736 264.605009 
L 318.461136 263.523747 
L 320.117537 264.594893 
L 321.773938 264.68537 
L 323.430339 264.337399 
L 325.086739 262.903993 
L 326.74314 263.258755 
L 328.399541 264.459779 
L 330.055942 263.989782 
L 331.712342 264.32318 
L 333.368743 264.507458 
L 336.681545 263.692533 
L 338.337945 263.284716 
L 339.994346 262.42763 
L 341.650747 263.496017 
L 343.307147 264.275431 
L 344.963548 263.804585 
L 346.619949 264.577986 
L 349.93275 264.053307 
L 351.589151 264.126735 
L 353.245552 263.541927 
L 354.901953 264.47421 
L 356.558353 264.43021 
L 358.214754 263.981435 
L 359.871155 262.102508 
L 361.527556 264.063918 
L 363.183956 264.362512 
L 364.840357 264.112799 
L 366.496758 264.456879 
L 368.153159 263.875184 
L 369.809559 264.410827 
L 371.46596 263.855306 
L 373.122361 264.68544 
L 374.778762 264.348364 
L 376.435162 264.68735 
L 378.091563 264.129919 
L 379.747964 263.938354 
L 381.404365 264.148311 
L 383.060765 262.267333 
L 384.717166 264.000676 
L 388.029968 264.539574 
L 389.686368 263.483284 
L 391.342769 264.377014 
L 392.99917 252.846524 
L 394.655571 263.310253 
L 396.311971 264.504558 
L 397.968372 264.344615 
L 399.624773 263.638841 
L 399.624773 263.638841 
" style="fill:none;stroke:#2ca02c;stroke-linecap:square;stroke-width:1.5;"/>
   </g>
   <g id="line2d_21">
    <path clip-path="url(#p9118ab8249)" d="M 74.970227 262.990084 
L 76.626628 262.689439 
L 78.283029 264.527336 
L 79.939429 264.510571 
L 81.59583 264.222164 
L 83.252231 264.516442 
L 84.908632 264.507388 
L 86.565032 263.993956 
L 88.221433 264.586404 
L 89.877834 264.136993 
L 91.534235 264.398236 
L 94.847036 264.643845 
L 96.503437 263.948965 
L 98.159838 264.040645 
L 99.816238 264.62524 
L 101.472639 263.738089 
L 103.12904 264.59935 
L 104.785441 264.082876 
L 106.441841 264.612719 
L 108.098242 263.717079 
L 109.754643 264.358621 
L 111.411044 264.276633 
L 113.067444 264.335701 
L 114.723845 264.51906 
L 121.349448 264.586121 
L 123.005849 263.574892 
L 124.66225 264.376872 
L 126.31865 264.577562 
L 127.975051 264.609465 
L 129.631452 263.658436 
L 131.287853 264.482699 
L 132.944253 264.259868 
L 134.600654 264.590083 
L 136.257055 263.687439 
L 137.913455 264.35565 
L 139.569856 264.468693 
L 141.226257 264.245508 
L 142.882658 263.210864 
L 144.539058 264.612366 
L 147.85186 264.473786 
L 149.508261 264.15871 
L 151.164661 264.587465 
L 152.821062 264.55061 
L 154.477463 263.907865 
L 156.133864 261.560144 
L 157.790264 264.239212 
L 159.446665 263.808051 
L 161.103066 264.411605 
L 162.759467 264.105725 
L 164.415867 263.951654 
L 166.072268 264.239141 
L 169.38507 264.56306 
L 171.04147 264.329193 
L 172.697871 264.599633 
L 174.354272 264.47803 
L 176.010673 264.537311 
L 177.667073 264.159063 
L 179.323474 264.21035 
L 180.979875 263.913666 
L 182.636276 263.23343 
L 184.292676 263.952219 
L 185.949077 264.450513 
L 187.605478 264.513896 
L 189.261878 264.23518 
L 190.918279 264.633234 
L 192.57468 264.102259 
L 194.231081 263.82418 
L 195.887481 263.751954 
L 197.543882 263.896264 
L 199.200283 264.364776 
L 200.856684 264.633305 
L 202.513084 264.351901 
L 204.169485 264.448603 
L 205.825886 263.912676 
L 207.482287 264.501799 
L 209.138687 264.263476 
L 210.795088 263.649806 
L 212.451489 264.377792 
L 214.10789 264.434455 
L 215.76429 264.18361 
L 217.420691 264.528468 
L 219.077092 264.045667 
L 220.733493 264.362229 
L 222.389893 264.149089 
L 224.046294 264.50569 
L 225.702695 263.61203 
L 227.359096 264.462538 
L 229.015496 264.445702 
L 230.671897 264.051963 
L 232.328298 264.133668 
L 233.984699 264.562848 
L 235.641099 264.662945 
L 238.953901 263.788881 
L 240.610301 264.201225 
L 242.266702 264.297785 
L 243.923103 263.100863 
L 245.579504 264.555632 
L 247.235904 262.936321 
L 248.892305 264.662167 
L 250.548706 264.282151 
L 252.205107 257.084278 
L 253.861507 263.868534 
L 255.517908 264.522384 
L 257.174309 263.472814 
L 258.83071 263.735613 
L 260.48711 264.270691 
L 262.143511 263.575246 
L 267.112713 263.302189 
L 268.769114 264.425541 
L 270.425515 264.494442 
L 272.081916 264.197263 
L 273.738316 264.633305 
L 275.394717 264.426249 
L 278.707519 264.190189 
L 282.02032 264.512127 
L 285.333122 264.345534 
L 286.989522 263.743607 
L 288.645923 264.312499 
L 290.302324 264.266588 
L 291.958724 264.046092 
L 293.615125 264.473715 
L 295.271526 264.568578 
L 296.927927 264.024728 
L 298.584327 264.408422 
L 300.240728 264.023384 
L 301.897129 264.540494 
L 303.55353 264.521889 
L 305.20993 263.602905 
L 308.522732 264.101198 
L 310.179133 264.232704 
L 311.835533 263.996149 
L 313.491934 264.275572 
L 316.804736 263.841158 
L 318.461136 264.313206 
L 320.117537 264.556976 
L 321.773938 263.778128 
L 323.430339 264.261637 
L 325.086739 263.883177 
L 326.74314 264.420094 
L 328.399541 263.635799 
L 330.055942 264.516159 
L 333.368743 264.629697 
L 335.025144 263.988721 
L 336.681545 264.48369 
L 338.337945 264.134587 
L 339.994346 264.301746 
L 341.650747 264.298209 
L 343.307147 263.569021 
L 344.963548 264.27345 
L 348.27635 264.142935 
L 349.93275 263.921801 
L 351.589151 264.608263 
L 353.245552 263.793479 
L 354.901953 264.532995 
L 358.214754 264.615125 
L 359.871155 263.741626 
L 361.527556 263.62724 
L 363.183956 264.415213 
L 364.840357 264.328486 
L 366.496758 264.375528 
L 368.153159 262.953016 
L 369.809559 264.562353 
L 373.122361 264.527124 
L 374.778762 264.197688 
L 376.435162 264.544526 
L 378.091563 263.988792 
L 379.747964 264.429432 
L 383.060765 264.469612 
L 384.717166 264.14442 
L 386.373567 264.445278 
L 388.029968 264.496423 
L 389.686368 264.222659 
L 392.99917 261.839497 
L 394.655571 264.301039 
L 396.311971 264.544172 
L 397.968372 264.600552 
L 399.624773 263.72762 
L 399.624773 263.72762 
" style="fill:none;stroke:#d62728;stroke-linecap:square;stroke-width:1.5;"/>
   </g>
   <g id="line2d_22">
    <path clip-path="url(#p9118ab8249)" d="M 74.970227 263.380781 
L 76.626628 262.590473 
L 78.283029 264.389676 
L 79.939429 264.643279 
L 81.59583 264.521111 
L 83.252231 264.645897 
L 84.908632 264.40538 
L 86.565032 264.408281 
L 88.221433 264.583009 
L 89.877834 264.374608 
L 93.190635 264.633517 
L 94.847036 264.575015 
L 96.503437 264.219122 
L 98.159838 264.507388 
L 101.472639 264.454898 
L 103.12904 264.631183 
L 104.785441 264.17307 
L 106.441841 264.488571 
L 108.098242 263.891595 
L 109.754643 264.285264 
L 113.067444 264.40149 
L 114.723845 264.313772 
L 116.380246 264.000181 
L 118.036647 264.608829 
L 119.693047 264.598854 
L 121.349448 264.083442 
L 124.66225 264.412101 
L 126.31865 264.472654 
L 127.975051 264.649929 
L 129.631452 264.164298 
L 132.944253 264.148523 
L 134.600654 264.604443 
L 136.257055 264.212189 
L 137.913455 262.29669 
L 139.569856 262.694532 
L 142.882658 263.939416 
L 144.539058 263.937506 
L 146.195459 264.565677 
L 147.85186 263.23152 
L 149.508261 264.167411 
L 152.821062 264.598642 
L 154.477463 264.619369 
L 156.133864 263.248427 
L 157.790264 264.394416 
L 159.446665 264.530307 
L 161.103066 264.505902 
L 164.415867 263.826656 
L 167.728669 264.492391 
L 169.38507 263.348029 
L 171.04147 263.934322 
L 172.697871 264.376801 
L 174.354272 264.166208 
L 176.010673 264.299341 
L 177.667073 263.717362 
L 179.323474 264.50569 
L 182.636276 263.872 
L 184.292676 264.385219 
L 185.949077 264.279109 
L 187.605478 264.637903 
L 189.261878 263.484274 
L 190.918279 264.583716 
L 192.57468 264.072619 
L 194.231081 264.081462 
L 195.887481 264.454615 
L 197.543882 264.531298 
L 199.200283 264.198466 
L 200.856684 264.650141 
L 202.513084 264.043474 
L 204.169485 264.410757 
L 205.825886 264.134234 
L 207.482287 264.406866 
L 210.795088 264.378428 
L 212.451489 264.167411 
L 214.10789 264.329193 
L 215.76429 263.897962 
L 217.420691 264.553156 
L 219.077092 264.288306 
L 220.733493 263.74106 
L 222.389893 264.45695 
L 225.702695 263.924419 
L 227.359096 264.369515 
L 229.015496 264.585202 
L 230.671897 264.214524 
L 232.328298 264.320987 
L 233.984699 264.612154 
L 237.2975 264.225347 
L 238.953901 264.288801 
L 240.610301 264.213463 
L 242.266702 264.506397 
L 243.923103 263.79836 
L 245.579504 264.614134 
L 247.235904 264.474069 
L 248.892305 264.644765 
L 252.205107 263.225012 
L 253.861507 264.194221 
L 255.517908 264.557401 
L 257.174309 264.157153 
L 260.48711 264.446056 
L 262.143511 264.037108 
L 263.799912 264.287244 
L 265.456313 263.833022 
L 267.112713 263.838257 
L 268.769114 264.535613 
L 270.425515 264.016876 
L 272.081916 264.049275 
L 273.738316 264.582089 
L 277.051118 264.177244 
L 278.707519 264.4665 
L 280.363919 263.122014 
L 282.02032 263.595902 
L 283.676721 264.594822 
L 285.333122 264.518069 
L 286.989522 263.741485 
L 288.645923 264.419033 
L 290.302324 264.161256 
L 291.958724 264.368596 
L 293.615125 264.132819 
L 295.271526 264.064555 
L 298.584327 264.496494 
L 300.240728 264.14343 
L 301.897129 264.348647 
L 303.55353 264.362653 
L 305.20993 264.055783 
L 306.866331 264.193372 
L 308.522732 263.738514 
L 310.179133 263.958798 
L 311.835533 264.057976 
L 313.491934 264.55924 
L 315.148335 264.072053 
L 316.804736 264.41394 
L 318.461136 264.408917 
L 320.117537 264.231501 
L 323.430339 264.516372 
L 325.086739 262.038276 
L 326.74314 263.917203 
L 328.399541 264.334287 
L 330.055942 264.452635 
L 331.712342 264.318653 
L 333.368743 264.587465 
L 335.025144 263.675484 
L 336.681545 264.373335 
L 338.337945 264.330254 
L 339.994346 264.448249 
L 341.650747 264.286749 
L 344.963548 264.228176 
L 346.619949 264.388686 
L 348.27635 264.174626 
L 351.589151 264.358833 
L 353.245552 263.767729 
L 354.901953 264.641723 
L 358.214754 264.60034 
L 359.871155 263.343855 
L 361.527556 263.223314 
L 363.183956 264.287244 
L 364.840357 264.002869 
L 366.496758 264.588526 
L 368.153159 264.285617 
L 369.809559 264.54106 
L 371.46596 263.899589 
L 373.122361 264.557189 
L 374.778762 264.310872 
L 376.435162 264.496989 
L 378.091563 264.226337 
L 379.747964 264.550893 
L 381.404365 264.394062 
L 383.060765 264.049699 
L 384.717166 264.291772 
L 386.373567 264.166703 
L 388.029968 264.383026 
L 389.686368 264.365554 
L 391.342769 264.094053 
L 392.99917 261.904224 
L 394.655571 263.600712 
L 397.968372 264.54587 
L 399.624773 263.764051 
L 399.624773 263.764051 
" style="fill:none;stroke:#9467bd;stroke-linecap:square;stroke-width:1.5;"/>
   </g>
   <g id="line2d_23">
    <path clip-path="url(#p9118ab8249)" d="M 74.970227 263.924136 
L 76.626628 261.550099 
L 78.283029 264.431766 
L 79.939429 264.588951 
L 81.59583 263.865704 
L 83.252231 264.525851 
L 84.908632 264.361804 
L 86.565032 264.360673 
L 88.221433 264.586546 
L 89.877834 264.066182 
L 91.534235 264.513471 
L 93.190635 264.445348 
L 94.847036 264.52295 
L 96.503437 263.460788 
L 98.159838 264.591568 
L 99.816238 264.584494 
L 101.472639 263.982425 
L 103.12904 264.526346 
L 104.785441 264.113295 
L 106.441841 264.507175 
L 108.098242 263.313507 
L 109.754643 264.049487 
L 111.411044 264.441529 
L 114.723845 263.484698 
L 118.036647 264.630405 
L 121.349448 264.471452 
L 123.005849 261.406921 
L 124.66225 263.926965 
L 126.31865 264.56398 
L 127.975051 264.676032 
L 129.631452 263.866695 
L 131.287853 263.951724 
L 132.944253 264.401843 
L 134.600654 264.488288 
L 137.913455 263.672938 
L 139.569856 263.916566 
L 141.226257 262.969215 
L 142.882658 263.889544 
L 144.539058 264.031378 
L 146.195459 264.476969 
L 147.85186 264.121925 
L 151.164661 264.512552 
L 152.821062 264.55733 
L 154.477463 264.371779 
L 156.133864 264.048921 
L 157.790264 263.870868 
L 161.103066 264.429008 
L 162.759467 264.139751 
L 167.728669 264.309386 
L 169.38507 263.995795 
L 171.04147 264.131616 
L 174.354272 264.140671 
L 176.010673 264.394699 
L 179.323474 264.36619 
L 180.979875 264.080047 
L 182.636276 264.533774 
L 184.292676 263.930078 
L 185.949077 264.557825 
L 189.261878 264.304717 
L 190.918279 264.485883 
L 192.57468 263.739433 
L 194.231081 264.301109 
L 195.887481 264.396043 
L 197.543882 264.318158 
L 199.200283 263.882753 
L 200.856684 264.606707 
L 202.513084 263.72288 
L 204.169485 264.198536 
L 205.825886 263.724295 
L 207.482287 264.125108 
L 209.138687 264.02685 
L 212.451489 264.40538 
L 214.10789 264.293965 
L 215.76429 263.825878 
L 217.420691 264.566668 
L 220.733493 264.272813 
L 222.389893 263.734977 
L 224.046294 264.312569 
L 225.702695 264.00485 
L 227.359096 264.434667 
L 229.015496 264.461548 
L 232.328298 263.613728 
L 233.984699 264.548275 
L 235.641099 264.563131 
L 237.2975 263.854032 
L 238.953901 264.138124 
L 240.610301 264.001313 
L 242.266702 264.384512 
L 243.923103 263.532094 
L 245.579504 264.523446 
L 247.235904 264.488924 
L 248.892305 264.611729 
L 250.548706 264.407644 
L 252.205107 263.510094 
L 255.517908 264.45695 
L 257.174309 263.585149 
L 258.83071 264.018503 
L 262.143511 263.586423 
L 263.799912 263.980374 
L 265.456313 263.721253 
L 268.769114 264.539928 
L 270.425515 264.436152 
L 272.081916 263.936091 
L 273.738316 264.573671 
L 275.394717 263.666005 
L 277.051118 263.28698 
L 278.707519 264.164015 
L 282.02032 263.90348 
L 283.676721 264.543819 
L 285.333122 263.948046 
L 286.989522 264.104381 
L 288.645923 263.182568 
L 291.958724 264.146613 
L 295.271526 263.900579 
L 296.927927 263.846817 
L 298.584327 264.520191 
L 300.240728 264.46848 
L 301.897129 264.155526 
L 303.55353 264.229521 
L 305.20993 263.959718 
L 306.866331 263.498846 
L 308.522732 263.530467 
L 310.179133 264.256402 
L 313.491934 264.284486 
L 315.148335 263.391817 
L 316.804736 264.022181 
L 318.461136 263.843916 
L 320.117537 264.347586 
L 321.773938 263.949319 
L 323.430339 264.197263 
L 325.086739 263.399457 
L 326.74314 264.029397 
L 328.399541 264.154395 
L 330.055942 264.10523 
L 331.712342 264.543889 
L 333.368743 264.481497 
L 335.025144 263.792064 
L 336.681545 264.125745 
L 338.337945 263.948117 
L 339.994346 264.155739 
L 341.650747 264.181488 
L 343.307147 263.067049 
L 344.963548 264.116761 
L 346.619949 264.394699 
L 348.27635 263.952856 
L 349.93275 263.928309 
L 351.589151 263.483849 
L 353.245552 263.348807 
L 354.901953 264.067455 
L 356.558353 264.376589 
L 358.214754 264.49515 
L 361.527556 262.989659 
L 363.183956 263.657375 
L 364.840357 263.533721 
L 366.496758 264.570771 
L 368.153159 263.544332 
L 369.809559 264.420872 
L 371.46596 264.028336 
L 373.122361 264.531015 
L 378.091563 264.114851 
L 379.747964 264.523799 
L 381.404365 264.111668 
L 383.060765 264.146401 
L 386.373567 264.404461 
L 389.686368 263.972593 
L 391.342769 263.961628 
L 392.99917 263.294973 
L 394.655571 263.286768 
L 396.311971 264.332306 
L 397.968372 264.458011 
L 399.624773 261.18126 
L 399.624773 261.18126 
" style="fill:none;stroke:#8c564b;stroke-linecap:square;stroke-width:1.5;"/>
   </g>
   <g id="line2d_24">
    <path clip-path="url(#p9118ab8249)" d="M 74.970227 263.425206 
L 76.626628 263.230388 
L 78.283029 264.061371 
L 79.939429 264.606848 
L 81.59583 263.876103 
L 83.252231 264.475342 
L 84.908632 264.35855 
L 86.565032 264.537664 
L 88.221433 264.551176 
L 89.877834 263.536622 
L 91.534235 264.47895 
L 93.190635 264.626302 
L 94.847036 264.559452 
L 96.503437 264.162176 
L 98.159838 264.526983 
L 99.816238 264.55259 
L 101.472639 263.014206 
L 103.12904 264.632739 
L 106.441841 264.581877 
L 108.098242 263.227134 
L 109.754643 262.59493 
L 111.411044 264.610951 
L 113.067444 264.379419 
L 119.693047 264.664926 
L 121.349448 264.561787 
L 123.005849 263.127744 
L 124.66225 264.356711 
L 126.31865 264.608475 
L 127.975051 264.679427 
L 129.631452 264.244234 
L 131.287853 264.064767 
L 132.944253 264.510146 
L 134.600654 264.644411 
L 136.257055 264.213887 
L 137.913455 264.093134 
L 139.569856 263.306787 
L 141.226257 262.837639 
L 142.882658 264.301958 
L 144.539058 264.180002 
L 146.195459 264.55351 
L 147.85186 264.279534 
L 149.508261 264.477323 
L 152.821062 264.638327 
L 156.133864 264.003435 
L 157.790264 264.444429 
L 159.446665 264.305495 
L 161.103066 264.433323 
L 162.759467 264.401419 
L 164.415867 264.139681 
L 166.072268 264.280807 
L 169.38507 264.141378 
L 174.354272 264.606211 
L 177.667073 264.345322 
L 179.323474 264.517928 
L 180.979875 264.455818 
L 184.292676 263.952856 
L 185.949077 264.641298 
L 189.261878 264.508519 
L 190.918279 264.57834 
L 192.57468 264.448956 
L 194.231081 264.511137 
L 195.887481 264.292691 
L 197.543882 264.518494 
L 200.856684 264.663865 
L 202.513084 264.384724 
L 204.169485 264.513613 
L 207.482287 264.461548 
L 209.138687 264.157083 
L 210.795088 264.397175 
L 212.451489 264.47803 
L 215.76429 264.369586 
L 217.420691 264.612719 
L 219.077092 264.541343 
L 220.733493 264.238929 
L 222.389893 264.373901 
L 224.046294 264.196485 
L 225.702695 264.411818 
L 227.359096 264.445914 
L 229.015496 264.610951 
L 232.328298 264.263617 
L 233.984699 264.607555 
L 237.2975 264.39866 
L 238.953901 264.410474 
L 240.610301 264.216504 
L 242.266702 264.55641 
L 243.923103 264.236524 
L 245.579504 264.657569 
L 247.235904 264.564899 
L 248.892305 264.640025 
L 250.548706 264.354235 
L 252.205107 262.886733 
L 253.861507 264.034136 
L 255.517908 264.564404 
L 257.174309 263.966014 
L 258.83071 263.784848 
L 262.143511 264.218414 
L 263.799912 263.627664 
L 265.456313 264.052883 
L 267.112713 263.955544 
L 268.769114 264.490198 
L 270.425515 264.020484 
L 272.081916 264.367464 
L 273.738316 264.537523 
L 275.394717 263.251893 
L 277.051118 264.421651 
L 278.707519 264.066535 
L 282.02032 264.288235 
L 283.676721 264.537594 
L 285.333122 264.508236 
L 286.989522 264.305071 
L 288.645923 264.261849 
L 290.302324 264.448744 
L 291.958724 264.074812 
L 293.615125 264.100137 
L 295.271526 264.383451 
L 296.927927 264.130414 
L 298.584327 264.491542 
L 301.897129 264.519201 
L 303.55353 264.351406 
L 305.20993 263.541078 
L 306.866331 264.035481 
L 308.522732 264.303302 
L 310.179133 264.122632 
L 311.835533 264.152272 
L 313.491934 263.953988 
L 315.148335 263.344138 
L 316.804736 264.436718 
L 318.461136 264.431766 
L 320.117537 263.952007 
L 321.773938 264.297572 
L 323.430339 263.609342 
L 325.086739 259.946351 
L 326.74314 264.387412 
L 328.399541 264.175192 
L 330.055942 263.016682 
L 331.712342 264.534835 
L 333.368743 264.531581 
L 335.025144 263.599651 
L 336.681545 264.346525 
L 338.337945 264.36039 
L 339.994346 264.19797 
L 341.650747 264.176324 
L 343.307147 264.410757 
L 348.27635 263.977332 
L 349.93275 264.094973 
L 351.589151 264.383026 
L 353.245552 263.877801 
L 354.901953 264.414223 
L 356.558353 264.557825 
L 358.214754 264.544314 
L 359.871155 263.787607 
L 361.527556 264.236312 
L 363.183956 264.113436 
L 364.840357 264.216221 
L 366.496758 264.531368 
L 368.153159 264.105938 
L 369.809559 264.502294 
L 371.46596 264.341148 
L 373.122361 264.410757 
L 374.778762 263.89492 
L 376.435162 264.462963 
L 378.091563 263.734057 
L 379.747964 264.58888 
L 381.404365 264.229025 
L 383.060765 264.27826 
L 384.717166 263.98957 
L 388.029968 264.46848 
L 389.686368 264.289862 
L 391.342769 263.831183 
L 392.99917 262.372523 
L 394.655571 263.737099 
L 396.311971 264.336621 
L 397.968372 264.425046 
L 399.624773 263.258542 
L 399.624773 263.258542 
" style="fill:none;stroke:#e377c2;stroke-linecap:square;stroke-width:1.5;"/>
   </g>
   <g id="line2d_25">
    <path clip-path="url(#p9118ab8249)" d="M 74.970227 264.30974 
L 76.626628 263.023402 
L 78.283029 264.616964 
L 79.939429 264.605787 
L 81.59583 264.359541 
L 83.252231 264.633942 
L 88.221433 264.657356 
L 89.877834 264.39293 
L 91.534235 264.630546 
L 94.847036 264.618096 
L 96.503437 264.292126 
L 98.159838 264.663865 
L 99.816238 264.65099 
L 101.472639 264.392435 
L 103.12904 264.651768 
L 104.785441 264.578128 
L 106.441841 264.673839 
L 108.098242 264.548275 
L 111.411044 264.665704 
L 113.067444 263.944933 
L 114.723845 264.499323 
L 116.380246 264.474918 
L 118.036647 264.669312 
L 121.349448 264.675324 
L 123.005849 263.392029 
L 124.66225 264.543536 
L 126.31865 264.538159 
L 127.975051 264.671575 
L 129.631452 264.172363 
L 132.944253 264.647028 
L 137.913455 264.480223 
L 139.569856 263.677536 
L 141.226257 264.52097 
L 144.539058 264.394486 
L 146.195459 264.55733 
L 147.85186 264.585626 
L 149.508261 264.469329 
L 151.164661 264.643633 
L 154.477463 264.547709 
L 156.133864 264.311084 
L 157.790264 264.619086 
L 159.446665 264.465651 
L 161.103066 264.67971 
L 167.728669 264.512056 
L 169.38507 264.101057 
L 171.04147 264.556552 
L 174.354272 264.240202 
L 176.010673 264.638893 
L 179.323474 264.573459 
L 180.979875 264.58888 
L 182.636276 264.470108 
L 185.949077 264.668816 
L 187.605478 264.663228 
L 189.261878 264.386068 
L 190.918279 264.684379 
L 197.543882 264.515169 
L 202.513084 264.587253 
L 204.169485 264.202356 
L 205.825886 264.543182 
L 212.451489 264.449805 
L 217.420691 264.625806 
L 224.046294 264.309952 
L 225.702695 264.518423 
L 227.359096 263.937081 
L 229.015496 264.62708 
L 230.671897 264.348222 
L 232.328298 264.437213 
L 233.984699 264.682894 
L 238.953901 264.545587 
L 240.610301 264.280312 
L 242.266702 264.467066 
L 243.923103 264.392576 
L 245.579504 264.605363 
L 250.548706 264.613851 
L 252.205107 264.443226 
L 253.861507 263.256208 
L 255.517908 264.622765 
L 257.174309 264.431059 
L 260.48711 264.594964 
L 262.143511 264.193868 
L 263.799912 264.572327 
L 265.456313 264.335135 
L 267.112713 264.370223 
L 268.769114 264.618166 
L 270.425515 264.299836 
L 272.081916 264.39576 
L 273.738316 264.67681 
L 275.394717 264.215019 
L 277.051118 264.546719 
L 278.707519 264.156517 
L 280.363919 264.489632 
L 282.02032 264.08988 
L 283.676721 264.668958 
L 285.333122 264.398519 
L 293.615125 264.553156 
L 295.271526 264.404178 
L 296.927927 264.394133 
L 298.584327 264.590153 
L 301.897129 264.338814 
L 310.179133 264.543819 
L 311.835533 264.266235 
L 313.491934 264.541555 
L 315.148335 264.585555 
L 318.461136 264.293187 
L 320.117537 264.546295 
L 321.773938 264.473149 
L 323.430339 264.575793 
L 325.086739 263.459798 
L 326.74314 264.380409 
L 328.399541 264.153829 
L 330.055942 264.503143 
L 333.368743 264.656861 
L 335.025144 264.424975 
L 336.681545 264.579472 
L 338.337945 264.217353 
L 341.650747 264.507175 
L 343.307147 264.565748 
L 344.963548 264.494654 
L 346.619949 264.202993 
L 348.27635 264.508166 
L 349.93275 264.283 
L 354.901953 264.618237 
L 358.214754 264.650707 
L 359.871155 264.147321 
L 363.183956 264.520757 
L 364.840357 264.306981 
L 366.496758 264.507883 
L 368.153159 264.194999 
L 369.809559 264.627646 
L 371.46596 264.39484 
L 373.122361 264.591215 
L 374.778762 264.497908 
L 376.435162 264.591993 
L 378.091563 264.364705 
L 379.747964 264.501304 
L 383.060765 264.429573 
L 384.717166 264.170665 
L 388.029968 264.560513 
L 389.686368 264.550751 
L 391.342769 264.251026 
L 392.99917 263.627027 
L 396.311971 264.55259 
L 397.968372 264.665067 
L 399.624773 264.055854 
L 399.624773 264.055854 
" style="fill:none;stroke:#7f7f7f;stroke-linecap:square;stroke-width:1.5;"/>
   </g>
   <g id="line2d_26">
    <path clip-path="url(#p9118ab8249)" d="M 74.970227 264.702842 
L 141.226257 264.697608 
L 341.650747 264.697961 
L 399.624773 264.699447 
L 399.624773 264.699447 
" style="fill:none;stroke:#bcbd22;stroke-linecap:square;stroke-width:1.5;"/>
   </g>
   <g id="line2d_27">
    <path clip-path="url(#p9118ab8249)" d="M 74.970227 264.702842 
L 166.072268 264.699801 
L 399.624773 264.701003 
L 399.624773 264.701003 
" style="fill:none;stroke:#17becf;stroke-linecap:square;stroke-width:1.5;"/>
   </g>
   <g id="line2d_28">
    <path clip-path="url(#p9118ab8249)" d="M 74.970227 264.698952 
L 121.349448 264.70164 
L 132.944253 264.696476 
L 204.169485 264.701428 
L 248.892305 264.694636 
L 358.214754 264.697891 
L 369.809559 264.701711 
L 399.624773 264.696759 
L 399.624773 264.696759 
" style="fill:none;stroke:#1f77b4;stroke-linecap:square;stroke-width:1.5;"/>
   </g>
   <g id="line2d_29">
    <path clip-path="url(#p9118ab8249)" d="M 74.970227 264.702842 
L 399.624773 264.702842 
L 399.624773 264.702842 
" style="fill:none;stroke:#ff7f0e;stroke-linecap:square;stroke-width:1.5;"/>
   </g>
   <g id="patch_3">
    <path d="M 58.7375 276.812 
L 58.7375 10.7 
" style="fill:none;stroke:#000000;stroke-linecap:square;stroke-linejoin:miter;stroke-width:0.8;"/>
   </g>
   <g id="patch_4">
    <path d="M 415.8575 276.812 
L 415.8575 10.7 
" style="fill:none;stroke:#000000;stroke-linecap:square;stroke-linejoin:miter;stroke-width:0.8;"/>
   </g>
   <g id="patch_5">
    <path d="M 58.7375 276.812 
L 415.8575 276.812 
" style="fill:none;stroke:#000000;stroke-linecap:square;stroke-linejoin:miter;stroke-width:0.8;"/>
   </g>
   <g id="patch_6">
    <path d="M 58.7375 10.7 
L 415.8575 10.7 
" style="fill:none;stroke:#000000;stroke-linecap:square;stroke-linejoin:miter;stroke-width:0.8;"/>
   </g>
   <g id="legend_1">
    <g id="patch_7">
     <path d="M 192.120937 218.646625 
L 282.474063 218.646625 
Q 284.474063 218.646625 284.474063 216.646625 
L 284.474063 70.865375 
Q 284.474063 68.865375 282.474063 68.865375 
L 192.120937 68.865375 
Q 190.120937 68.865375 190.120937 70.865375 
L 190.120937 216.646625 
Q 190.120937 218.646625 192.120937 218.646625 
z
" style="fill:#ffffff;opacity:0.8;stroke:#cccccc;stroke-linejoin:miter;"/>
    </g>
    <g id="line2d_30">
     <path d="M 194.120937 76.963812 
L 214.120937 76.963812 
" style="fill:none;stroke:#1f77b4;stroke-linecap:square;stroke-width:1.5;"/>
    </g>
    <g id="line2d_31"/>
    <g id="text_18">
     <!-- delta -->
     <defs>
      <path d="M 45.40625 46.390625 
L 45.40625 75.984375 
L 54.390625 75.984375 
L 54.390625 0 
L 45.40625 0 
L 45.40625 8.203125 
Q 42.578125 3.328125 38.25 0.953125 
Q 33.9375 -1.421875 27.875 -1.421875 
Q 17.96875 -1.421875 11.734375 6.484375 
Q 5.515625 14.40625 5.515625 27.296875 
Q 5.515625 40.1875 11.734375 48.09375 
Q 17.96875 56 27.875 56 
Q 33.9375 56 38.25 53.625 
Q 42.578125 51.265625 45.40625 46.390625 
M 14.796875 27.296875 
Q 14.796875 17.390625 18.875 11.75 
Q 22.953125 6.109375 30.078125 6.109375 
Q 37.203125 6.109375 41.296875 11.75 
Q 45.40625 17.390625 45.40625 27.296875 
Q 45.40625 37.203125 41.296875 42.84375 
Q 37.203125 48.484375 30.078125 48.484375 
Q 22.953125 48.484375 18.875 42.84375 
Q 14.796875 37.203125 14.796875 27.296875 
" id="DejaVuSans-64"/>
      <path d="M 56.203125 29.59375 
L 56.203125 25.203125 
L 14.890625 25.203125 
Q 15.484375 15.921875 20.484375 11.0625 
Q 25.484375 6.203125 34.421875 6.203125 
Q 39.59375 6.203125 44.453125 7.46875 
Q 49.3125 8.734375 54.109375 11.28125 
L 54.109375 2.78125 
Q 49.265625 0.734375 44.1875 -0.34375 
Q 39.109375 -1.421875 33.890625 -1.421875 
Q 20.796875 -1.421875 13.15625 6.1875 
Q 5.515625 13.8125 5.515625 26.8125 
Q 5.515625 40.234375 12.765625 48.109375 
Q 20.015625 56 32.328125 56 
Q 43.359375 56 49.78125 48.890625 
Q 56.203125 41.796875 56.203125 29.59375 
M 47.21875 32.234375 
Q 47.125 39.59375 43.09375 43.984375 
Q 39.0625 48.390625 32.421875 48.390625 
Q 24.90625 48.390625 20.390625 44.140625 
Q 15.875 39.890625 15.1875 32.171875 
z
" id="DejaVuSans-65"/>
      <path d="M 9.421875 75.984375 
L 18.40625 75.984375 
L 18.40625 0 
L 9.421875 0 
z
" id="DejaVuSans-6c"/>
      <path d="M 18.3125 70.21875 
L 18.3125 54.6875 
L 36.8125 54.6875 
L 36.8125 47.703125 
L 18.3125 47.703125 
L 18.3125 18.015625 
Q 18.3125 11.328125 20.140625 9.421875 
Q 21.96875 7.515625 27.59375 7.515625 
L 36.8125 7.515625 
L 36.8125 0 
L 27.59375 0 
Q 17.1875 0 13.234375 3.875 
Q 9.28125 7.765625 9.28125 18.015625 
L 9.28125 47.703125 
L 2.6875 47.703125 
L 2.6875 54.6875 
L 9.28125 54.6875 
L 9.28125 70.21875 
z
" id="DejaVuSans-74"/>
      <path d="M 34.28125 27.484375 
Q 23.390625 27.484375 19.1875 25 
Q 14.984375 22.515625 14.984375 16.5 
Q 14.984375 11.71875 18.140625 8.90625 
Q 21.296875 6.109375 26.703125 6.109375 
Q 34.1875 6.109375 38.703125 11.40625 
Q 43.21875 16.703125 43.21875 25.484375 
L 43.21875 27.484375 
z
M 52.203125 31.203125 
L 52.203125 0 
L 43.21875 0 
L 43.21875 8.296875 
Q 40.140625 3.328125 35.546875 0.953125 
Q 30.953125 -1.421875 24.3125 -1.421875 
Q 15.921875 -1.421875 10.953125 3.296875 
Q 6 8.015625 6 15.921875 
Q 6 25.140625 12.171875 29.828125 
Q 18.359375 34.515625 30.609375 34.515625 
L 43.21875 34.515625 
L 43.21875 35.40625 
Q 43.21875 41.609375 39.140625 45 
Q 35.0625 48.390625 27.6875 48.390625 
Q 23 48.390625 18.546875 47.265625 
Q 14.109375 46.140625 10.015625 43.890625 
L 10.015625 52.203125 
Q 14.9375 54.109375 19.578125 55.046875 
Q 24.21875 56 28.609375 56 
Q 40.484375 56 46.34375 49.84375 
Q 52.203125 43.703125 52.203125 31.203125 
" id="DejaVuSans-61"/>
     </defs>
     <g transform="translate(222.120937 80.463812)scale(0.1 -0.1)">
      <use xlink:href="#DejaVuSans-64"/>
      <use x="63.476562" xlink:href="#DejaVuSans-65"/>
      <use x="125" xlink:href="#DejaVuSans-6c"/>
      <use x="152.783203" xlink:href="#DejaVuSans-74"/>
      <use x="191.992188" xlink:href="#DejaVuSans-61"/>
     </g>
    </g>
    <g id="line2d_32">
     <path d="M 194.120937 91.641938 
L 214.120937 91.641938 
" style="fill:none;stroke:#ff7f0e;stroke-linecap:square;stroke-width:1.5;"/>
    </g>
    <g id="line2d_33"/>
    <g id="text_19">
     <!-- lowAlpha -->
     <defs>
      <path d="M 30.609375 48.390625 
Q 23.390625 48.390625 19.1875 42.75 
Q 14.984375 37.109375 14.984375 27.296875 
Q 14.984375 17.484375 19.15625 11.84375 
Q 23.34375 6.203125 30.609375 6.203125 
Q 37.796875 6.203125 41.984375 11.859375 
Q 46.1875 17.53125 46.1875 27.296875 
Q 46.1875 37.015625 41.984375 42.703125 
Q 37.796875 48.390625 30.609375 48.390625 
M 30.609375 56 
Q 42.328125 56 49.015625 48.375 
Q 55.71875 40.765625 55.71875 27.296875 
Q 55.71875 13.875 49.015625 6.21875 
Q 42.328125 -1.421875 30.609375 -1.421875 
Q 18.84375 -1.421875 12.171875 6.21875 
Q 5.515625 13.875 5.515625 27.296875 
Q 5.515625 40.765625 12.171875 48.375 
Q 18.84375 56 30.609375 56 
" id="DejaVuSans-6f"/>
      <path d="M 4.203125 54.6875 
L 13.1875 54.6875 
L 24.421875 12.015625 
L 35.59375 54.6875 
L 46.1875 54.6875 
L 57.421875 12.015625 
L 68.609375 54.6875 
L 77.59375 54.6875 
L 63.28125 0 
L 52.6875 0 
L 40.921875 44.828125 
L 29.109375 0 
L 18.5 0 
z
" id="DejaVuSans-77"/>
      <path d="M 34.1875 63.1875 
L 20.796875 26.90625 
L 47.609375 26.90625 
z
M 28.609375 72.90625 
L 39.796875 72.90625 
L 67.578125 0 
L 57.328125 0 
L 50.6875 18.703125 
L 17.828125 18.703125 
L 11.1875 0 
L 0.78125 0 
z
" id="DejaVuSans-41"/>
      <path d="M 18.109375 8.203125 
L 18.109375 -20.796875 
L 9.078125 -20.796875 
L 9.078125 54.6875 
L 18.109375 54.6875 
L 18.109375 46.390625 
Q 20.953125 51.265625 25.265625 53.625 
Q 29.59375 56 35.59375 56 
Q 45.5625 56 51.78125 48.09375 
Q 58.015625 40.1875 58.015625 27.296875 
Q 58.015625 14.40625 51.78125 6.484375 
Q 45.5625 -1.421875 35.59375 -1.421875 
Q 29.59375 -1.421875 25.265625 0.953125 
Q 20.953125 3.328125 18.109375 8.203125 
M 48.6875 27.296875 
Q 48.6875 37.203125 44.609375 42.84375 
Q 40.53125 48.484375 33.40625 48.484375 
Q 26.265625 48.484375 22.1875 42.84375 
Q 18.109375 37.203125 18.109375 27.296875 
Q 18.109375 17.390625 22.1875 11.75 
Q 26.265625 6.109375 33.40625 6.109375 
Q 40.53125 6.109375 44.609375 11.75 
Q 48.6875 17.390625 48.6875 27.296875 
" id="DejaVuSans-70"/>
      <path d="M 54.890625 33.015625 
L 54.890625 0 
L 45.90625 0 
L 45.90625 32.71875 
Q 45.90625 40.484375 42.875 44.328125 
Q 39.84375 48.1875 33.796875 48.1875 
Q 26.515625 48.1875 22.3125 43.546875 
Q 18.109375 38.921875 18.109375 30.90625 
L 18.109375 0 
L 9.078125 0 
L 9.078125 75.984375 
L 18.109375 75.984375 
L 18.109375 46.1875 
Q 21.34375 51.125 25.703125 53.5625 
Q 30.078125 56 35.796875 56 
Q 45.21875 56 50.046875 50.171875 
Q 54.890625 44.34375 54.890625 33.015625 
" id="DejaVuSans-68"/>
     </defs>
     <g transform="translate(222.120937 95.141938)scale(0.1 -0.1)">
      <use xlink:href="#DejaVuSans-6c"/>
      <use x="27.783203" xlink:href="#DejaVuSans-6f"/>
      <use x="88.964844" xlink:href="#DejaVuSans-77"/>
      <use x="170.751953" xlink:href="#DejaVuSans-41"/>
      <use x="239.160156" xlink:href="#DejaVuSans-6c"/>
      <use x="266.943359" xlink:href="#DejaVuSans-70"/>
      <use x="330.419922" xlink:href="#DejaVuSans-68"/>
      <use x="393.798828" xlink:href="#DejaVuSans-61"/>
     </g>
    </g>
    <g id="line2d_34">
     <path d="M 194.120937 106.320063 
L 214.120937 106.320063 
" style="fill:none;stroke:#2ca02c;stroke-linecap:square;stroke-width:1.5;"/>
    </g>
    <g id="line2d_35"/>
    <g id="text_20">
     <!-- highAlpha -->
     <defs>
      <path d="M 9.421875 54.6875 
L 18.40625 54.6875 
L 18.40625 0 
L 9.421875 0 
z
M 9.421875 75.984375 
L 18.40625 75.984375 
L 18.40625 64.59375 
L 9.421875 64.59375 
z
" id="DejaVuSans-69"/>
      <path d="M 45.40625 27.984375 
Q 45.40625 37.75 41.375 43.109375 
Q 37.359375 48.484375 30.078125 48.484375 
Q 22.859375 48.484375 18.828125 43.109375 
Q 14.796875 37.75 14.796875 27.984375 
Q 14.796875 18.265625 18.828125 12.890625 
Q 22.859375 7.515625 30.078125 7.515625 
Q 37.359375 7.515625 41.375 12.890625 
Q 45.40625 18.265625 45.40625 27.984375 
M 54.390625 6.78125 
Q 54.390625 -7.171875 48.1875 -13.984375 
Q 42 -20.796875 29.203125 -20.796875 
Q 24.46875 -20.796875 20.265625 -20.09375 
Q 16.0625 -19.390625 12.109375 -17.921875 
L 12.109375 -9.1875 
Q 16.0625 -11.328125 19.921875 -12.34375 
Q 23.78125 -13.375 27.78125 -13.375 
Q 36.625 -13.375 41.015625 -8.765625 
Q 45.40625 -4.15625 45.40625 5.171875 
L 45.40625 9.625 
Q 42.625 4.78125 38.28125 2.390625 
Q 33.9375 0 27.875 0 
Q 17.828125 0 11.671875 7.65625 
Q 5.515625 15.328125 5.515625 27.984375 
Q 5.515625 40.671875 11.671875 48.328125 
Q 17.828125 56 27.875 56 
Q 33.9375 56 38.28125 53.609375 
Q 42.625 51.21875 45.40625 46.390625 
L 45.40625 54.6875 
L 54.390625 54.6875 
z
" id="DejaVuSans-67"/>
     </defs>
     <g transform="translate(222.120937 109.820063)scale(0.1 -0.1)">
      <use xlink:href="#DejaVuSans-68"/>
      <use x="63.378906" xlink:href="#DejaVuSans-69"/>
      <use x="91.162109" xlink:href="#DejaVuSans-67"/>
      <use x="154.638672" xlink:href="#DejaVuSans-68"/>
      <use x="218.017578" xlink:href="#DejaVuSans-41"/>
      <use x="286.425781" xlink:href="#DejaVuSans-6c"/>
      <use x="314.208984" xlink:href="#DejaVuSans-70"/>
      <use x="377.685547" xlink:href="#DejaVuSans-68"/>
      <use x="441.064453" xlink:href="#DejaVuSans-61"/>
     </g>
    </g>
    <g id="line2d_36">
     <path d="M 194.120937 120.998188 
L 214.120937 120.998188 
" style="fill:none;stroke:#d62728;stroke-linecap:square;stroke-width:1.5;"/>
    </g>
    <g id="line2d_37"/>
    <g id="text_21">
     <!-- lowBeta -->
     <defs>
      <path d="M 19.671875 34.8125 
L 19.671875 8.109375 
L 35.5 8.109375 
Q 43.453125 8.109375 47.28125 11.40625 
Q 51.125 14.703125 51.125 21.484375 
Q 51.125 28.328125 47.28125 31.5625 
Q 43.453125 34.8125 35.5 34.8125 
z
M 19.671875 64.796875 
L 19.671875 42.828125 
L 34.28125 42.828125 
Q 41.5 42.828125 45.03125 45.53125 
Q 48.578125 48.25 48.578125 53.8125 
Q 48.578125 59.328125 45.03125 62.0625 
Q 41.5 64.796875 34.28125 64.796875 
z
M 9.8125 72.90625 
L 35.015625 72.90625 
Q 46.296875 72.90625 52.390625 68.21875 
Q 58.5 63.53125 58.5 54.890625 
Q 58.5 48.1875 55.375 44.234375 
Q 52.25 40.28125 46.1875 39.3125 
Q 53.46875 37.75 57.5 32.78125 
Q 61.53125 27.828125 61.53125 20.40625 
Q 61.53125 10.640625 54.890625 5.3125 
Q 48.25 0 35.984375 0 
L 9.8125 0 
z
" id="DejaVuSans-42"/>
     </defs>
     <g transform="translate(222.120937 124.498188)scale(0.1 -0.1)">
      <use xlink:href="#DejaVuSans-6c"/>
      <use x="27.783203" xlink:href="#DejaVuSans-6f"/>
      <use x="88.964844" xlink:href="#DejaVuSans-77"/>
      <use x="170.751953" xlink:href="#DejaVuSans-42"/>
      <use x="239.355469" xlink:href="#DejaVuSans-65"/>
      <use x="300.878906" xlink:href="#DejaVuSans-74"/>
      <use x="340.087891" xlink:href="#DejaVuSans-61"/>
     </g>
    </g>
    <g id="line2d_38">
     <path d="M 194.120937 135.676312 
L 214.120937 135.676312 
" style="fill:none;stroke:#9467bd;stroke-linecap:square;stroke-width:1.5;"/>
    </g>
    <g id="line2d_39"/>
    <g id="text_22">
     <!-- highBeta -->
     <g transform="translate(222.120937 139.176312)scale(0.1 -0.1)">
      <use xlink:href="#DejaVuSans-68"/>
      <use x="63.378906" xlink:href="#DejaVuSans-69"/>
      <use x="91.162109" xlink:href="#DejaVuSans-67"/>
      <use x="154.638672" xlink:href="#DejaVuSans-68"/>
      <use x="218.017578" xlink:href="#DejaVuSans-42"/>
      <use x="286.621094" xlink:href="#DejaVuSans-65"/>
      <use x="348.144531" xlink:href="#DejaVuSans-74"/>
      <use x="387.353516" xlink:href="#DejaVuSans-61"/>
     </g>
    </g>
    <g id="line2d_40">
     <path d="M 194.120937 150.354438 
L 214.120937 150.354438 
" style="fill:none;stroke:#8c564b;stroke-linecap:square;stroke-width:1.5;"/>
    </g>
    <g id="line2d_41"/>
    <g id="text_23">
     <!-- lowGamma -->
     <defs>
      <path d="M 59.515625 10.40625 
L 59.515625 29.984375 
L 43.40625 29.984375 
L 43.40625 38.09375 
L 69.28125 38.09375 
L 69.28125 6.78125 
Q 63.578125 2.734375 56.6875 0.65625 
Q 49.8125 -1.421875 42 -1.421875 
Q 24.90625 -1.421875 15.25 8.5625 
Q 5.609375 18.5625 5.609375 36.375 
Q 5.609375 54.25 15.25 64.234375 
Q 24.90625 74.21875 42 74.21875 
Q 49.125 74.21875 55.546875 72.453125 
Q 61.96875 70.703125 67.390625 67.28125 
L 67.390625 56.78125 
Q 61.921875 61.421875 55.765625 63.765625 
Q 49.609375 66.109375 42.828125 66.109375 
Q 29.4375 66.109375 22.71875 58.640625 
Q 16.015625 51.171875 16.015625 36.375 
Q 16.015625 21.625 22.71875 14.15625 
Q 29.4375 6.6875 42.828125 6.6875 
Q 48.046875 6.6875 52.140625 7.59375 
Q 56.25 8.5 59.515625 10.40625 
" id="DejaVuSans-47"/>
      <path d="M 52 44.1875 
Q 55.375 50.25 60.0625 53.125 
Q 64.75 56 71.09375 56 
Q 79.640625 56 84.28125 50.015625 
Q 88.921875 44.046875 88.921875 33.015625 
L 88.921875 0 
L 79.890625 0 
L 79.890625 32.71875 
Q 79.890625 40.578125 77.09375 44.375 
Q 74.3125 48.1875 68.609375 48.1875 
Q 61.625 48.1875 57.5625 43.546875 
Q 53.515625 38.921875 53.515625 30.90625 
L 53.515625 0 
L 44.484375 0 
L 44.484375 32.71875 
Q 44.484375 40.625 41.703125 44.40625 
Q 38.921875 48.1875 33.109375 48.1875 
Q 26.21875 48.1875 22.15625 43.53125 
Q 18.109375 38.875 18.109375 30.90625 
L 18.109375 0 
L 9.078125 0 
L 9.078125 54.6875 
L 18.109375 54.6875 
L 18.109375 46.1875 
Q 21.1875 51.21875 25.484375 53.609375 
Q 29.78125 56 35.6875 56 
Q 41.65625 56 45.828125 52.96875 
Q 50 49.953125 52 44.1875 
" id="DejaVuSans-6d"/>
     </defs>
     <g transform="translate(222.120937 153.854438)scale(0.1 -0.1)">
      <use xlink:href="#DejaVuSans-6c"/>
      <use x="27.783203" xlink:href="#DejaVuSans-6f"/>
      <use x="88.964844" xlink:href="#DejaVuSans-77"/>
      <use x="170.751953" xlink:href="#DejaVuSans-47"/>
      <use x="248.242188" xlink:href="#DejaVuSans-61"/>
      <use x="309.521484" xlink:href="#DejaVuSans-6d"/>
      <use x="406.933594" xlink:href="#DejaVuSans-6d"/>
      <use x="504.345703" xlink:href="#DejaVuSans-61"/>
     </g>
    </g>
    <g id="line2d_42">
     <path d="M 194.120937 165.032562 
L 214.120937 165.032562 
" style="fill:none;stroke:#e377c2;stroke-linecap:square;stroke-width:1.5;"/>
    </g>
    <g id="line2d_43"/>
    <g id="text_24">
     <!-- midGamma -->
     <g transform="translate(222.120937 168.532562)scale(0.1 -0.1)">
      <use xlink:href="#DejaVuSans-6d"/>
      <use x="97.412109" xlink:href="#DejaVuSans-69"/>
      <use x="125.195312" xlink:href="#DejaVuSans-64"/>
      <use x="188.671875" xlink:href="#DejaVuSans-47"/>
      <use x="266.162109" xlink:href="#DejaVuSans-61"/>
      <use x="327.441406" xlink:href="#DejaVuSans-6d"/>
      <use x="424.853516" xlink:href="#DejaVuSans-6d"/>
      <use x="522.265625" xlink:href="#DejaVuSans-61"/>
     </g>
    </g>
    <g id="line2d_44">
     <path d="M 194.120937 179.710688 
L 214.120937 179.710688 
" style="fill:none;stroke:#7f7f7f;stroke-linecap:square;stroke-width:1.5;"/>
    </g>
    <g id="line2d_45"/>
    <g id="text_25">
     <!-- attention -->
     <defs>
      <path d="M 54.890625 33.015625 
L 54.890625 0 
L 45.90625 0 
L 45.90625 32.71875 
Q 45.90625 40.484375 42.875 44.328125 
Q 39.84375 48.1875 33.796875 48.1875 
Q 26.515625 48.1875 22.3125 43.546875 
Q 18.109375 38.921875 18.109375 30.90625 
L 18.109375 0 
L 9.078125 0 
L 9.078125 54.6875 
L 18.109375 54.6875 
L 18.109375 46.1875 
Q 21.34375 51.125 25.703125 53.5625 
Q 30.078125 56 35.796875 56 
Q 45.21875 56 50.046875 50.171875 
Q 54.890625 44.34375 54.890625 33.015625 
" id="DejaVuSans-6e"/>
     </defs>
     <g transform="translate(222.120937 183.210688)scale(0.1 -0.1)">
      <use xlink:href="#DejaVuSans-61"/>
      <use x="61.279297" xlink:href="#DejaVuSans-74"/>
      <use x="100.488281" xlink:href="#DejaVuSans-74"/>
      <use x="139.697266" xlink:href="#DejaVuSans-65"/>
      <use x="201.220703" xlink:href="#DejaVuSans-6e"/>
      <use x="264.599609" xlink:href="#DejaVuSans-74"/>
      <use x="303.808594" xlink:href="#DejaVuSans-69"/>
      <use x="331.591797" xlink:href="#DejaVuSans-6f"/>
      <use x="392.773438" xlink:href="#DejaVuSans-6e"/>
     </g>
    </g>
    <g id="line2d_46">
     <path d="M 194.120937 194.388812 
L 214.120937 194.388812 
" style="fill:none;stroke:#bcbd22;stroke-linecap:square;stroke-width:1.5;"/>
    </g>
    <g id="line2d_47"/>
    <g id="text_26">
     <!-- meditation -->
     <g transform="translate(222.120937 197.888812)scale(0.1 -0.1)">
      <use xlink:href="#DejaVuSans-6d"/>
      <use x="97.412109" xlink:href="#DejaVuSans-65"/>
      <use x="158.935547" xlink:href="#DejaVuSans-64"/>
      <use x="222.412109" xlink:href="#DejaVuSans-69"/>
      <use x="250.195312" xlink:href="#DejaVuSans-74"/>
      <use x="289.404297" xlink:href="#DejaVuSans-61"/>
      <use x="350.683594" xlink:href="#DejaVuSans-74"/>
      <use x="389.892578" xlink:href="#DejaVuSans-69"/>
      <use x="417.675781" xlink:href="#DejaVuSans-6f"/>
      <use x="478.857422" xlink:href="#DejaVuSans-6e"/>
     </g>
    </g>
    <g id="line2d_48">
     <path d="M 194.120937 209.066937 
L 214.120937 209.066937 
" style="fill:none;stroke:#17becf;stroke-linecap:square;stroke-width:1.5;"/>
    </g>
    <g id="line2d_49"/>
    <g id="text_27">
     <!-- rawValue -->
     <defs>
      <path d="M 41.109375 46.296875 
Q 39.59375 47.171875 37.8125 47.578125 
Q 36.03125 48 33.890625 48 
Q 26.265625 48 22.1875 43.046875 
Q 18.109375 38.09375 18.109375 28.8125 
L 18.109375 0 
L 9.078125 0 
L 9.078125 54.6875 
L 18.109375 54.6875 
L 18.109375 46.1875 
Q 20.953125 51.171875 25.484375 53.578125 
Q 30.03125 56 36.53125 56 
Q 37.453125 56 38.578125 55.875 
Q 39.703125 55.765625 41.0625 55.515625 
z
" id="DejaVuSans-72"/>
      <path d="M 28.609375 0 
L 0.78125 72.90625 
L 11.078125 72.90625 
L 34.1875 11.53125 
L 57.328125 72.90625 
L 67.578125 72.90625 
L 39.796875 0 
z
" id="DejaVuSans-56"/>
      <path d="M 8.5 21.578125 
L 8.5 54.6875 
L 17.484375 54.6875 
L 17.484375 21.921875 
Q 17.484375 14.15625 20.5 10.265625 
Q 23.53125 6.390625 29.59375 6.390625 
Q 36.859375 6.390625 41.078125 11.03125 
Q 45.3125 15.671875 45.3125 23.6875 
L 45.3125 54.6875 
L 54.296875 54.6875 
L 54.296875 0 
L 45.3125 0 
L 45.3125 8.40625 
Q 42.046875 3.421875 37.71875 1 
Q 33.40625 -1.421875 27.6875 -1.421875 
Q 18.265625 -1.421875 13.375 4.4375 
Q 8.5 10.296875 8.5 21.578125 
M 31.109375 56 
z
" id="DejaVuSans-75"/>
     </defs>
     <g transform="translate(222.120937 212.566937)scale(0.1 -0.1)">
      <use xlink:href="#DejaVuSans-72"/>
      <use x="41.113281" xlink:href="#DejaVuSans-61"/>
      <use x="102.392578" xlink:href="#DejaVuSans-77"/>
      <use x="184.179688" xlink:href="#DejaVuSans-56"/>
      <use x="252.478516" xlink:href="#DejaVuSans-61"/>
      <use x="313.757812" xlink:href="#DejaVuSans-6c"/>
      <use x="341.541016" xlink:href="#DejaVuSans-75"/>
      <use x="404.919922" xlink:href="#DejaVuSans-65"/>
     </g>
    </g>
   </g>
  </g>
 </g>
 <defs>
  <clipPath id="p9118ab8249">
   <rect height="266.112" width="357.12" x="58.7375" y="10.7"/>
  </clipPath>
 </defs>
</svg>
