<?xml version="1.0" encoding="utf-8" standalone="no"?>
<!DOCTYPE svg PUBLIC "-//W3C//DTD SVG 1.1//EN"
  "http://www.w3.org/Graphics/SVG/1.1/DTD/svg11.dtd">
<!-- Created with matplotlib (http://matplotlib.org/) -->
<svg height="300pt" version="1.1" viewBox="0 0 426 300" width="426pt" xmlns="http://www.w3.org/2000/svg" xmlns:xlink="http://www.w3.org/1999/xlink">
 <defs>
  <style type="text/css">
*{stroke-linecap:butt;stroke-linejoin:round;}
  </style>
 </defs>
 <g id="figure_1">
  <g id="patch_1">
   <path d="M 0 300.690125 
L 426.5575 300.690125 
L 426.5575 0 
L 0 0 
z
" style="fill:#ffffff;"/>
  </g>
  <g id="axes_1">
   <g id="patch_2">
    <path d="M 58.7375 276.812 
L 415.8575 276.812 
L 415.8575 10.7 
L 58.7375 10.7 
z
" style="fill:#ffffff;"/>
   </g>
   <g id="matplotlib.axis_1">
    <g id="xtick_1">
     <g id="line2d_1">
      <defs>
       <path d="M 0 0 
L 0 3.5 
" id="m9046ea5e25" style="stroke:#000000;stroke-width:0.8;"/>
      </defs>
      <g>
       <use style="stroke:#000000;stroke-width:0.8;" x="74.970227" xlink:href="#m9046ea5e25" y="276.812"/>
      </g>
     </g>
     <g id="text_1">
      <!-- 0 -->
      <defs>
       <path d="M 31.78125 66.40625 
Q 24.171875 66.40625 20.328125 58.90625 
Q 16.5 51.421875 16.5 36.375 
Q 16.5 21.390625 20.328125 13.890625 
Q 24.171875 6.390625 31.78125 6.390625 
Q 39.453125 6.390625 43.28125 13.890625 
Q 47.125 21.390625 47.125 36.375 
Q 47.125 51.421875 43.28125 58.90625 
Q 39.453125 66.40625 31.78125 66.40625 
M 31.78125 74.21875 
Q 44.046875 74.21875 50.515625 64.515625 
Q 56.984375 54.828125 56.984375 36.375 
Q 56.984375 17.96875 50.515625 8.265625 
Q 44.046875 -1.421875 31.78125 -1.421875 
Q 19.53125 -1.421875 13.0625 8.265625 
Q 6.59375 17.96875 6.59375 36.375 
Q 6.59375 54.828125 13.0625 64.515625 
Q 19.53125 74.21875 31.78125 74.21875 
" id="DejaVuSans-30"/>
      </defs>
      <g transform="translate(71.788977 291.410437)scale(0.1 -0.1)">
       <use xlink:href="#DejaVuSans-30"/>
      </g>
     </g>
    </g>
    <g id="xtick_2">
     <g id="line2d_2">
      <g>
       <use style="stroke:#000000;stroke-width:0.8;" x="117.91395" xlink:href="#m9046ea5e25" y="276.812"/>
      </g>
     </g>
     <g id="text_2">
      <!-- 25 -->
      <defs>
       <path d="M 19.1875 8.296875 
L 53.609375 8.296875 
L 53.609375 0 
L 7.328125 0 
L 7.328125 8.296875 
Q 12.9375 14.109375 22.625 23.890625 
Q 32.328125 33.6875 34.8125 36.53125 
Q 39.546875 41.84375 41.421875 45.53125 
Q 43.3125 49.21875 43.3125 52.78125 
Q 43.3125 58.59375 39.234375 62.25 
Q 35.15625 65.921875 28.609375 65.921875 
Q 23.96875 65.921875 18.8125 64.3125 
Q 13.671875 62.703125 7.8125 59.421875 
L 7.8125 69.390625 
Q 13.765625 71.78125 18.9375 73 
Q 24.125 74.21875 28.421875 74.21875 
Q 39.75 74.21875 46.484375 68.546875 
Q 53.21875 62.890625 53.21875 53.421875 
Q 53.21875 48.921875 51.53125 44.890625 
Q 49.859375 40.875 45.40625 35.40625 
Q 44.1875 33.984375 37.640625 27.21875 
Q 31.109375 20.453125 19.1875 8.296875 
" id="DejaVuSans-32"/>
       <path d="M 10.796875 72.90625 
L 49.515625 72.90625 
L 49.515625 64.59375 
L 19.828125 64.59375 
L 19.828125 46.734375 
Q 21.96875 47.46875 24.109375 47.828125 
Q 26.265625 48.1875 28.421875 48.1875 
Q 40.625 48.1875 47.75 41.5 
Q 54.890625 34.8125 54.890625 23.390625 
Q 54.890625 11.625 47.5625 5.09375 
Q 40.234375 -1.421875 26.90625 -1.421875 
Q 22.3125 -1.421875 17.546875 -0.640625 
Q 12.796875 0.140625 7.71875 1.703125 
L 7.71875 11.625 
Q 12.109375 9.234375 16.796875 8.0625 
Q 21.484375 6.890625 26.703125 6.890625 
Q 35.15625 6.890625 40.078125 11.328125 
Q 45.015625 15.765625 45.015625 23.390625 
Q 45.015625 31 40.078125 35.4375 
Q 35.15625 39.890625 26.703125 39.890625 
Q 22.75 39.890625 18.8125 39.015625 
Q 14.890625 38.140625 10.796875 36.28125 
z
" id="DejaVuSans-35"/>
      </defs>
      <g transform="translate(111.55145 291.410437)scale(0.1 -0.1)">
       <use xlink:href="#DejaVuSans-32"/>
       <use x="63.623047" xlink:href="#DejaVuSans-35"/>
      </g>
     </g>
    </g>
    <g id="xtick_3">
     <g id="line2d_3">
      <g>
       <use style="stroke:#000000;stroke-width:0.8;" x="160.857673" xlink:href="#m9046ea5e25" y="276.812"/>
      </g>
     </g>
     <g id="text_3">
      <!-- 50 -->
      <g transform="translate(154.495173 291.410437)scale(0.1 -0.1)">
       <use xlink:href="#DejaVuSans-35"/>
       <use x="63.623047" xlink:href="#DejaVuSans-30"/>
      </g>
     </g>
    </g>
    <g id="xtick_4">
     <g id="line2d_4">
      <g>
       <use style="stroke:#000000;stroke-width:0.8;" x="203.801396" xlink:href="#m9046ea5e25" y="276.812"/>
      </g>
     </g>
     <g id="text_4">
      <!-- 75 -->
      <defs>
       <path d="M 8.203125 72.90625 
L 55.078125 72.90625 
L 55.078125 68.703125 
L 28.609375 0 
L 18.3125 0 
L 43.21875 64.59375 
L 8.203125 64.59375 
z
" id="DejaVuSans-37"/>
      </defs>
      <g transform="translate(197.438896 291.410437)scale(0.1 -0.1)">
       <use xlink:href="#DejaVuSans-37"/>
       <use x="63.623047" xlink:href="#DejaVuSans-35"/>
      </g>
     </g>
    </g>
    <g id="xtick_5">
     <g id="line2d_5">
      <g>
       <use style="stroke:#000000;stroke-width:0.8;" x="246.745119" xlink:href="#m9046ea5e25" y="276.812"/>
      </g>
     </g>
     <g id="text_5">
      <!-- 100 -->
      <defs>
       <path d="M 12.40625 8.296875 
L 28.515625 8.296875 
L 28.515625 63.921875 
L 10.984375 60.40625 
L 10.984375 69.390625 
L 28.421875 72.90625 
L 38.28125 72.90625 
L 38.28125 8.296875 
L 54.390625 8.296875 
L 54.390625 0 
L 12.40625 0 
z
" id="DejaVuSans-31"/>
      </defs>
      <g transform="translate(237.201369 291.410437)scale(0.1 -0.1)">
       <use xlink:href="#DejaVuSans-31"/>
       <use x="63.623047" xlink:href="#DejaVuSans-30"/>
       <use x="127.246094" xlink:href="#DejaVuSans-30"/>
      </g>
     </g>
    </g>
    <g id="xtick_6">
     <g id="line2d_6">
      <g>
       <use style="stroke:#000000;stroke-width:0.8;" x="289.688842" xlink:href="#m9046ea5e25" y="276.812"/>
      </g>
     </g>
     <g id="text_6">
      <!-- 125 -->
      <g transform="translate(280.145092 291.410437)scale(0.1 -0.1)">
       <use xlink:href="#DejaVuSans-31"/>
       <use x="63.623047" xlink:href="#DejaVuSans-32"/>
       <use x="127.246094" xlink:href="#DejaVuSans-35"/>
      </g>
     </g>
    </g>
    <g id="xtick_7">
     <g id="line2d_7">
      <g>
       <use style="stroke:#000000;stroke-width:0.8;" x="332.632565" xlink:href="#m9046ea5e25" y="276.812"/>
      </g>
     </g>
     <g id="text_7">
      <!-- 150 -->
      <g transform="translate(323.088815 291.410437)scale(0.1 -0.1)">
       <use xlink:href="#DejaVuSans-31"/>
       <use x="63.623047" xlink:href="#DejaVuSans-35"/>
       <use x="127.246094" xlink:href="#DejaVuSans-30"/>
      </g>
     </g>
    </g>
    <g id="xtick_8">
     <g id="line2d_8">
      <g>
       <use style="stroke:#000000;stroke-width:0.8;" x="375.576288" xlink:href="#m9046ea5e25" y="276.812"/>
      </g>
     </g>
     <g id="text_8">
      <!-- 175 -->
      <g transform="translate(366.032538 291.410437)scale(0.1 -0.1)">
       <use xlink:href="#DejaVuSans-31"/>
       <use x="63.623047" xlink:href="#DejaVuSans-37"/>
       <use x="127.246094" xlink:href="#DejaVuSans-35"/>
      </g>
     </g>
    </g>
   </g>
   <g id="matplotlib.axis_2">
    <g id="ytick_1">
     <g id="line2d_9">
      <defs>
       <path d="M 0 0 
L -3.5 0 
" id="md1b3fa4e63" style="stroke:#000000;stroke-width:0.8;"/>
      </defs>
      <g>
       <use style="stroke:#000000;stroke-width:0.8;" x="58.7375" xlink:href="#md1b3fa4e63" y="264.622549"/>
      </g>
     </g>
     <g id="text_9">
      <!-- 0 -->
      <g transform="translate(45.375 268.421768)scale(0.1 -0.1)">
       <use xlink:href="#DejaVuSans-30"/>
      </g>
     </g>
    </g>
    <g id="ytick_2">
     <g id="line2d_10">
      <g>
       <use style="stroke:#000000;stroke-width:0.8;" x="58.7375" xlink:href="#md1b3fa4e63" y="227.45033"/>
      </g>
     </g>
     <g id="text_10">
      <!-- 500000 -->
      <g transform="translate(13.5625 231.249548)scale(0.1 -0.1)">
       <use xlink:href="#DejaVuSans-35"/>
       <use x="63.623047" xlink:href="#DejaVuSans-30"/>
       <use x="127.246094" xlink:href="#DejaVuSans-30"/>
       <use x="190.869141" xlink:href="#DejaVuSans-30"/>
       <use x="254.492188" xlink:href="#DejaVuSans-30"/>
       <use x="318.115234" xlink:href="#DejaVuSans-30"/>
      </g>
     </g>
    </g>
    <g id="ytick_3">
     <g id="line2d_11">
      <g>
       <use style="stroke:#000000;stroke-width:0.8;" x="58.7375" xlink:href="#md1b3fa4e63" y="190.27811"/>
      </g>
     </g>
     <g id="text_11">
      <!-- 1000000 -->
      <g transform="translate(7.2 194.077329)scale(0.1 -0.1)">
       <use xlink:href="#DejaVuSans-31"/>
       <use x="63.623047" xlink:href="#DejaVuSans-30"/>
       <use x="127.246094" xlink:href="#DejaVuSans-30"/>
       <use x="190.869141" xlink:href="#DejaVuSans-30"/>
       <use x="254.492188" xlink:href="#DejaVuSans-30"/>
       <use x="318.115234" xlink:href="#DejaVuSans-30"/>
       <use x="381.738281" xlink:href="#DejaVuSans-30"/>
      </g>
     </g>
    </g>
    <g id="ytick_4">
     <g id="line2d_12">
      <g>
       <use style="stroke:#000000;stroke-width:0.8;" x="58.7375" xlink:href="#md1b3fa4e63" y="153.105891"/>
      </g>
     </g>
     <g id="text_12">
      <!-- 1500000 -->
      <g transform="translate(7.2 156.90511)scale(0.1 -0.1)">
       <use xlink:href="#DejaVuSans-31"/>
       <use x="63.623047" xlink:href="#DejaVuSans-35"/>
       <use x="127.246094" xlink:href="#DejaVuSans-30"/>
       <use x="190.869141" xlink:href="#DejaVuSans-30"/>
       <use x="254.492188" xlink:href="#DejaVuSans-30"/>
       <use x="318.115234" xlink:href="#DejaVuSans-30"/>
       <use x="381.738281" xlink:href="#DejaVuSans-30"/>
      </g>
     </g>
    </g>
    <g id="ytick_5">
     <g id="line2d_13">
      <g>
       <use style="stroke:#000000;stroke-width:0.8;" x="58.7375" xlink:href="#md1b3fa4e63" y="115.933672"/>
      </g>
     </g>
     <g id="text_13">
      <!-- 2000000 -->
      <g transform="translate(7.2 119.732891)scale(0.1 -0.1)">
       <use xlink:href="#DejaVuSans-32"/>
       <use x="63.623047" xlink:href="#DejaVuSans-30"/>
       <use x="127.246094" xlink:href="#DejaVuSans-30"/>
       <use x="190.869141" xlink:href="#DejaVuSans-30"/>
       <use x="254.492188" xlink:href="#DejaVuSans-30"/>
       <use x="318.115234" xlink:href="#DejaVuSans-30"/>
       <use x="381.738281" xlink:href="#DejaVuSans-30"/>
      </g>
     </g>
    </g>
    <g id="ytick_6">
     <g id="line2d_14">
      <g>
       <use style="stroke:#000000;stroke-width:0.8;" x="58.7375" xlink:href="#md1b3fa4e63" y="78.761453"/>
      </g>
     </g>
     <g id="text_14">
      <!-- 2500000 -->
      <g transform="translate(7.2 82.560671)scale(0.1 -0.1)">
       <use xlink:href="#DejaVuSans-32"/>
       <use x="63.623047" xlink:href="#DejaVuSans-35"/>
       <use x="127.246094" xlink:href="#DejaVuSans-30"/>
       <use x="190.869141" xlink:href="#DejaVuSans-30"/>
       <use x="254.492188" xlink:href="#DejaVuSans-30"/>
       <use x="318.115234" xlink:href="#DejaVuSans-30"/>
       <use x="381.738281" xlink:href="#DejaVuSans-30"/>
      </g>
     </g>
    </g>
    <g id="ytick_7">
     <g id="line2d_15">
      <g>
       <use style="stroke:#000000;stroke-width:0.8;" x="58.7375" xlink:href="#md1b3fa4e63" y="41.589233"/>
      </g>
     </g>
     <g id="text_15">
      <!-- 3000000 -->
      <defs>
       <path d="M 40.578125 39.3125 
Q 47.65625 37.796875 51.625 33 
Q 55.609375 28.21875 55.609375 21.1875 
Q 55.609375 10.40625 48.1875 4.484375 
Q 40.765625 -1.421875 27.09375 -1.421875 
Q 22.515625 -1.421875 17.65625 -0.515625 
Q 12.796875 0.390625 7.625 2.203125 
L 7.625 11.71875 
Q 11.71875 9.328125 16.59375 8.109375 
Q 21.484375 6.890625 26.8125 6.890625 
Q 36.078125 6.890625 40.9375 10.546875 
Q 45.796875 14.203125 45.796875 21.1875 
Q 45.796875 27.640625 41.28125 31.265625 
Q 36.765625 34.90625 28.71875 34.90625 
L 20.21875 34.90625 
L 20.21875 43.015625 
L 29.109375 43.015625 
Q 36.375 43.015625 40.234375 45.921875 
Q 44.09375 48.828125 44.09375 54.296875 
Q 44.09375 59.90625 40.109375 62.90625 
Q 36.140625 65.921875 28.71875 65.921875 
Q 24.65625 65.921875 20.015625 65.03125 
Q 15.375 64.15625 9.8125 62.3125 
L 9.8125 71.09375 
Q 15.4375 72.65625 20.34375 73.4375 
Q 25.25 74.21875 29.59375 74.21875 
Q 40.828125 74.21875 47.359375 69.109375 
Q 53.90625 64.015625 53.90625 55.328125 
Q 53.90625 49.265625 50.4375 45.09375 
Q 46.96875 40.921875 40.578125 39.3125 
" id="DejaVuSans-33"/>
      </defs>
      <g transform="translate(7.2 45.388452)scale(0.1 -0.1)">
       <use xlink:href="#DejaVuSans-33"/>
       <use x="63.623047" xlink:href="#DejaVuSans-30"/>
       <use x="127.246094" xlink:href="#DejaVuSans-30"/>
       <use x="190.869141" xlink:href="#DejaVuSans-30"/>
       <use x="254.492188" xlink:href="#DejaVuSans-30"/>
       <use x="318.115234" xlink:href="#DejaVuSans-30"/>
       <use x="381.738281" xlink:href="#DejaVuSans-30"/>
      </g>
     </g>
    </g>
   </g>
   <g id="line2d_16">
    <path clip-path="url(#p0c842eac82)" d="M 74.970227 138.652217 
L 76.687976 50.700516 
L 78.405725 249.673741 
L 80.123474 116.211794 
L 81.841223 220.079599 
L 83.558972 120.728442 
L 85.276721 212.496466 
L 86.99447 222.990704 
L 88.712219 159.13411 
L 90.429968 119.550975 
L 92.147716 244.597577 
L 93.865465 180.781278 
L 95.583214 154.712549 
L 97.300963 260.353171 
L 99.018712 234.289721 
L 100.736461 220.7939 
L 102.45421 260.895737 
L 104.171959 231.267173 
L 105.889708 191.805145 
L 107.607457 262.034619 
L 109.325206 258.833199 
L 111.042955 240.209843 
L 112.760703 82.134237 
L 114.478452 246.191745 
L 116.196201 252.536968 
L 117.91395 249.979594 
L 119.631699 221.25045 
L 121.349448 245.036581 
L 123.067197 228.730913 
L 124.784946 211.15217 
L 126.502695 142.264465 
L 128.220444 192.801361 
L 129.938193 253.441443 
L 131.655942 246.135838 
L 133.37369 220.560162 
L 135.091439 260.281429 
L 136.809188 256.676541 
L 138.526937 248.009838 
L 140.244686 252.428426 
L 141.962435 251.063313 
L 143.680184 262.478232 
L 145.397933 246.16394 
L 147.115682 252.462921 
L 148.833431 247.745544 
L 150.55118 239.682592 
L 152.268929 241.318616 
L 153.986677 196.218082 
L 155.704426 250.758203 
L 157.422175 246.647551 
L 159.139924 249.473383 
L 160.857673 239.621927 
L 162.575422 215.90278 
L 164.293171 230.432508 
L 166.01092 157.306426 
L 167.728669 243.231201 
L 169.446418 216.234282 
L 171.164167 217.576719 
L 172.881916 255.388821 
L 174.599665 191.56583 
L 176.317413 212.851758 
L 178.035162 245.982317 
L 179.752911 250.185826 
L 181.47066 262.571906 
L 183.188409 258.345128 
L 184.906158 262.881477 
L 186.623907 254.359299 
L 188.341656 248.981892 
L 190.059405 190.37565 
L 191.777154 246.243043 
L 193.494903 250.758872 
L 195.212652 240.771218 
L 196.9304 251.027628 
L 198.648149 228.063151 
L 200.365898 261.851063 
L 202.083647 242.185769 
L 203.801396 242.208221 
L 205.519145 224.54376 
L 207.236894 150.827531 
L 208.954643 226.718409 
L 210.672392 136.894566 
L 212.390141 254.205629 
L 214.10789 200.162798 
L 215.825639 86.751993 
L 217.543387 192.269947 
L 219.261136 260.403428 
L 220.978885 125.286797 
L 222.696634 102.062412 
L 224.414383 259.857814 
L 226.132132 235.545473 
L 227.849881 246.98448 
L 229.56763 249.267003 
L 231.285379 180.594673 
L 233.003128 254.550885 
L 234.720877 59.940117 
L 236.438626 242.463 
L 238.156374 259.89625 
L 239.874123 255.2211 
L 241.591872 257.968053 
L 243.309621 255.31522 
L 245.02737 262.898278 
L 246.745119 263.916872 
L 248.462868 259.355097 
L 250.180617 261.83151 
L 251.898366 257.145208 
L 253.616115 262.471393 
L 255.333864 238.510849 
L 257.051613 187.770249 
L 258.769361 222.884838 
L 260.48711 223.702701 
L 262.204859 251.403959 
L 263.922608 183.923594 
L 265.640357 218.157721 
L 267.358106 260.592857 
L 269.075855 197.532046 
L 272.511353 251.880284 
L 274.229102 63.179304 
L 275.946851 241.035586 
L 277.6646 113.870985 
L 279.382348 236.90553 
L 281.100097 259.769641 
L 282.817846 186.440748 
L 284.535595 262.380618 
L 286.253344 261.622528 
L 287.971093 259.997433 
L 289.688842 252.70692 
L 291.406591 259.84012 
L 293.12434 207.865105 
L 294.842089 255.971607 
L 296.559838 253.263239 
L 298.277587 164.595452 
L 299.995335 211.768634 
L 301.713084 201.793321 
L 303.430833 254.52531 
L 305.148582 262.30553 
L 306.866331 247.743759 
L 308.58408 228.449296 
L 310.301829 231.801338 
L 312.019578 257.294269 
L 313.737327 261.584241 
L 315.455076 260.226934 
L 317.172825 245.683229 
L 318.890574 253.728487 
L 320.608323 256.552089 
L 322.326071 263.341371 
L 324.04382 250.546842 
L 325.761569 253.597194 
L 327.479318 163.299629 
L 329.197067 253.760752 
L 330.914816 245.239021 
L 332.632565 254.120505 
L 334.350314 244.582708 
L 336.068063 242.376463 
L 337.785812 212.391195 
L 339.503561 206.169606 
L 341.22131 212.40703 
L 342.939058 146.053949 
L 344.656807 196.1934 
L 346.374556 216.254429 
L 348.092305 143.712397 
L 351.527803 259.102549 
L 353.245552 232.701947 
L 354.963301 259.877738 
L 356.68105 175.072442 
L 358.398799 263.197589 
L 360.116548 261.490715 
L 361.834297 253.350222 
L 363.552045 104.780817 
L 365.269794 214.255902 
L 366.987543 259.331232 
L 368.705292 215.124171 
L 370.423041 258.931557 
L 372.14079 241.781261 
L 373.858539 262.800441 
L 375.576288 216.179787 
L 377.294037 249.3609 
L 379.011786 231.776135 
L 380.729535 187.890167 
L 382.447284 239.845481 
L 384.165032 197.400902 
L 385.882781 242.757478 
L 387.60053 185.511591 
L 389.318279 22.796 
L 391.036028 256.063794 
L 392.753777 251.832555 
L 394.471526 207.113929 
L 396.189275 240.287607 
L 397.907024 161.658475 
L 399.624773 172.271739 
L 399.624773 172.271739 
" style="fill:none;stroke:#1f77b4;stroke-linecap:square;stroke-width:1.5;"/>
   </g>
   <g id="line2d_17">
    <path clip-path="url(#p0c842eac82)" d="M 74.970227 260.861984 
L 76.687976 262.393926 
L 78.405725 261.592195 
L 80.123474 225.746578 
L 81.841223 264.202057 
L 83.558972 170.796522 
L 85.276721 256.74873 
L 86.99447 239.657464 
L 88.712219 224.477519 
L 90.429968 259.53107 
L 92.147716 260.840127 
L 93.865465 261.089107 
L 95.583214 259.901454 
L 97.300963 263.093135 
L 99.018712 249.680952 
L 100.736461 259.73864 
L 102.45421 263.825131 
L 104.171959 262.239141 
L 105.889708 245.007512 
L 107.607457 248.159865 
L 109.325206 260.836856 
L 111.042955 263.886762 
L 112.760703 243.536162 
L 114.478452 260.615235 
L 116.196201 263.371332 
L 117.91395 255.525317 
L 119.631699 262.974928 
L 121.349448 262.248954 
L 123.067197 251.949945 
L 124.784946 239.308937 
L 126.502695 219.282106 
L 128.220444 252.688408 
L 129.938193 262.786464 
L 131.655942 262.182267 
L 133.37369 248.938549 
L 135.091439 264.264209 
L 136.809188 263.929064 
L 138.526937 263.169413 
L 140.244686 263.740973 
L 141.962435 263.609532 
L 143.680184 263.204429 
L 145.397933 263.293791 
L 147.115682 260.037579 
L 148.833431 261.416891 
L 150.55118 256.683009 
L 152.268929 263.160045 
L 153.986677 263.461958 
L 155.704426 256.857718 
L 157.422175 263.244352 
L 159.139924 263.776063 
L 160.857673 263.241824 
L 162.575422 262.135728 
L 164.293171 248.141353 
L 166.01092 243.411783 
L 167.728669 249.165448 
L 169.446418 204.183346 
L 171.164167 262.596663 
L 172.881916 262.573988 
L 174.599665 257.972588 
L 176.317413 259.262835 
L 178.035162 262.779996 
L 179.752911 260.231097 
L 181.47066 264.422786 
L 183.188409 261.90749 
L 184.906158 263.693541 
L 186.623907 261.829652 
L 188.341656 260.528252 
L 190.059405 261.378827 
L 191.777154 262.906828 
L 193.494903 263.538012 
L 195.212652 259.883017 
L 196.9304 260.363133 
L 200.365898 263.551543 
L 202.083647 251.985704 
L 203.801396 259.104036 
L 205.519145 258.117336 
L 207.236894 223.925734 
L 208.954643 211.704178 
L 210.672392 248.313163 
L 212.390141 253.796438 
L 214.10789 257.85557 
L 215.825639 247.332858 
L 217.543387 260.632557 
L 219.261136 263.890554 
L 220.978885 245.986554 
L 222.696634 255.16274 
L 224.414383 261.606618 
L 226.132132 263.572211 
L 227.849881 262.051198 
L 229.56763 261.560525 
L 231.285379 256.423993 
L 233.003128 261.206125 
L 234.720877 212.949373 
L 236.438626 263.423671 
L 238.156374 261.005023 
L 239.874123 262.611532 
L 241.591872 261.253482 
L 243.309621 263.699042 
L 245.02737 262.895974 
L 246.745119 263.840371 
L 248.462868 259.740498 
L 250.180617 260.493385 
L 251.898366 262.526333 
L 253.616115 258.308476 
L 255.333864 262.950617 
L 257.051613 262.685951 
L 258.769361 261.02413 
L 260.48711 260.585646 
L 262.204859 257.378278 
L 263.922608 262.287242 
L 265.640357 256.372101 
L 267.358106 264.265101 
L 269.075855 259.859747 
L 270.793604 261.304854 
L 272.511353 262.027333 
L 274.229102 245.353734 
L 275.946851 262.519419 
L 277.6646 244.620401 
L 279.382348 259.238227 
L 281.100097 262.355415 
L 282.817846 257.617444 
L 284.535595 264.301678 
L 286.253344 261.883626 
L 287.971093 260.869493 
L 289.688842 262.471095 
L 291.406591 261.721183 
L 293.12434 255.180954 
L 294.842089 261.740066 
L 296.559838 261.404922 
L 298.277587 240.217575 
L 299.995335 261.882362 
L 301.713084 260.840945 
L 305.148582 263.80134 
L 306.866331 248.979513 
L 308.58408 235.756536 
L 310.301829 255.414767 
L 312.019578 263.243311 
L 313.737327 261.29913 
L 315.455076 259.539991 
L 317.172825 252.528716 
L 318.890574 260.101812 
L 320.608323 261.204861 
L 322.326071 263.936722 
L 324.04382 256.700777 
L 325.761569 263.706031 
L 327.479318 263.224204 
L 329.197067 263.333565 
L 330.914816 262.777171 
L 334.350314 263.83026 
L 336.068063 262.36285 
L 337.785812 254.306663 
L 339.503561 262.17342 
L 341.22131 257.941437 
L 342.939058 236.278286 
L 344.656807 262.047481 
L 346.374556 258.93349 
L 348.092305 262.775536 
L 349.810054 259.305212 
L 351.527803 262.935079 
L 353.245552 252.921404 
L 354.963301 261.07513 
L 356.68105 261.377563 
L 358.398799 263.9278 
L 360.116548 263.10793 
L 361.834297 263.695028 
L 363.552045 261.132524 
L 365.269794 255.922986 
L 366.987543 260.137052 
L 368.705292 255.565463 
L 370.423041 264.138418 
L 372.14079 255.543234 
L 373.858539 262.895899 
L 375.576288 241.616291 
L 377.294037 257.076142 
L 379.011786 262.085248 
L 380.729535 260.651292 
L 382.447284 254.86722 
L 384.165032 261.701184 
L 385.882781 261.470196 
L 387.60053 258.77692 
L 389.318279 244.05345 
L 391.036028 262.537188 
L 392.753777 261.107098 
L 394.471526 253.775101 
L 396.189275 263.138337 
L 397.907024 257.880252 
L 399.624773 260.425582 
L 399.624773 260.425582 
" style="fill:none;stroke:#ff7f0e;stroke-linecap:square;stroke-width:1.5;"/>
   </g>
   <g id="line2d_18">
    <path clip-path="url(#p0c842eac82)" d="M 74.970227 264.389851 
L 76.687976 264.182876 
L 78.405725 263.659789 
L 80.123474 262.683572 
L 81.841223 264.51698 
L 83.558972 261.945629 
L 85.276721 260.665046 
L 86.99447 260.717161 
L 88.712219 261.322399 
L 90.429968 262.590195 
L 92.147716 264.230828 
L 93.865465 264.103774 
L 97.300963 264.340189 
L 99.018712 263.133281 
L 100.736461 264.378848 
L 102.45421 264.101915 
L 104.171959 263.533849 
L 105.889708 264.446576 
L 107.607457 261.230584 
L 109.325206 263.658896 
L 111.042955 264.454233 
L 112.760703 262.893595 
L 114.478452 263.571913 
L 116.196201 264.408288 
L 117.91395 263.241824 
L 119.631699 263.872042 
L 121.349448 263.684322 
L 124.784946 261.979753 
L 126.502695 260.103076 
L 128.220444 261.021304 
L 129.938193 264.52776 
L 131.655942 264.169866 
L 133.37369 263.624029 
L 135.091439 264.554078 
L 136.809188 264.28904 
L 138.526937 260.869642 
L 140.244686 264.583816 
L 143.680184 264.527834 
L 145.397933 264.377956 
L 147.115682 261.468858 
L 148.833431 264.079686 
L 150.55118 264.178638 
L 152.268929 264.498914 
L 153.986677 263.641872 
L 155.704426 262.364188 
L 157.422175 264.447394 
L 159.139924 264.571772 
L 160.857673 264.239006 
L 162.575422 264.320339 
L 164.293171 261.767871 
L 166.01092 253.051358 
L 167.728669 263.682389 
L 169.446418 258.368249 
L 171.164167 263.396163 
L 172.881916 264.540473 
L 174.599665 263.151867 
L 176.317413 264.17113 
L 178.035162 263.657707 
L 179.752911 263.592953 
L 181.47066 264.418548 
L 183.188409 263.753909 
L 184.906158 264.369183 
L 186.623907 263.451847 
L 188.341656 260.752178 
L 190.059405 263.53883 
L 191.777154 264.047941 
L 193.494903 264.174996 
L 195.212652 264.181463 
L 196.9304 262.268061 
L 198.648149 262.605659 
L 200.365898 264.263168 
L 202.083647 263.349029 
L 203.801396 263.772495 
L 205.519145 263.187999 
L 207.236894 256.710591 
L 208.954643 257.458793 
L 210.672392 259.503637 
L 212.390141 263.570278 
L 214.10789 258.161571 
L 215.825639 257.842485 
L 217.543387 262.450799 
L 219.261136 264.53341 
L 220.978885 256.734976 
L 222.696634 259.627792 
L 224.414383 264.009505 
L 226.132132 262.819102 
L 227.849881 264.387918 
L 229.56763 264.247927 
L 231.285379 263.022731 
L 233.003128 264.264283 
L 234.720877 259.961004 
L 236.438626 263.92438 
L 238.156374 263.898509 
L 239.874123 264.517129 
L 241.591872 261.114681 
L 243.309621 264.270826 
L 245.02737 264.085485 
L 246.745119 264.538242 
L 248.462868 264.21083 
L 250.180617 264.421447 
L 251.898366 264.219007 
L 253.616115 263.30576 
L 255.333864 264.222576 
L 257.051613 264.611397 
L 258.769361 264.081916 
L 260.48711 262.257652 
L 262.204859 263.614736 
L 263.922608 261.644088 
L 265.640357 263.802604 
L 269.075855 264.462188 
L 270.793604 261.774934 
L 272.511353 264.327773 
L 274.229102 258.480658 
L 275.946851 262.060342 
L 277.6646 254.878521 
L 279.382348 261.134308 
L 281.100097 264.597346 
L 282.817846 264.372157 
L 284.535595 264.377658 
L 286.253344 262.927198 
L 287.971093 264.254172 
L 291.406591 264.441223 
L 293.12434 263.144284 
L 294.842089 264.391115 
L 296.559838 263.820596 
L 298.277587 263.53266 
L 299.995335 263.591986 
L 301.713084 263.208964 
L 303.430833 264.212093 
L 305.148582 263.883863 
L 306.866331 263.290297 
L 308.58408 262.520609 
L 310.301829 263.04667 
L 312.019578 264.244954 
L 313.737327 263.229855 
L 315.455076 261.279428 
L 317.172825 259.626603 
L 318.890574 261.043756 
L 322.326071 262.981173 
L 324.04382 263.713317 
L 325.761569 264.098495 
L 327.479318 263.977908 
L 329.197067 262.901773 
L 330.914816 264.466128 
L 332.632565 262.25624 
L 334.350314 264.083031 
L 336.068063 262.841479 
L 337.785812 264.510363 
L 339.503561 264.174252 
L 341.22131 257.999872 
L 342.939058 260.356219 
L 344.656807 264.417804 
L 346.374556 261.68691 
L 348.092305 264.042365 
L 349.810054 263.822826 
L 353.245552 263.623062 
L 354.963301 264.280193 
L 356.68105 263.006375 
L 358.398799 264.506497 
L 360.116548 263.527307 
L 361.834297 264.387472 
L 363.552045 260.952387 
L 365.269794 251.522985 
L 366.987543 264.003929 
L 368.705292 262.830105 
L 370.423041 264.353497 
L 372.14079 263.634363 
L 373.858539 264.320934 
L 375.576288 261.170737 
L 377.294037 263.689898 
L 379.011786 263.978652 
L 380.729535 264.100354 
L 382.447284 258.228779 
L 384.165032 264.185404 
L 385.882781 262.788026 
L 387.60053 262.421954 
L 389.318279 252.285461 
L 391.036028 263.648934 
L 392.753777 263.483221 
L 394.471526 263.690493 
L 396.189275 264.574523 
L 397.907024 263.674806 
L 399.624773 264.006085 
L 399.624773 264.006085 
" style="fill:none;stroke:#2ca02c;stroke-linecap:square;stroke-width:1.5;"/>
   </g>
   <g id="line2d_19">
    <path clip-path="url(#p0c842eac82)" d="M 74.970227 263.718149 
L 76.687976 264.416095 
L 78.405725 264.084741 
L 80.123474 259.619317 
L 81.841223 264.571028 
L 83.558972 258.649345 
L 85.276721 262.050752 
L 86.99447 261.060558 
L 88.712219 261.370575 
L 90.429968 262.161228 
L 92.147716 263.982964 
L 93.865465 263.763202 
L 95.583214 263.710789 
L 97.300963 264.274097 
L 100.736461 263.956869 
L 102.45421 264.307477 
L 104.171959 264.437952 
L 105.889708 262.985336 
L 107.607457 263.559126 
L 109.325206 263.350813 
L 111.042955 264.596752 
L 112.760703 259.769865 
L 114.478452 264.479956 
L 116.196201 264.427395 
L 117.91395 263.065405 
L 119.631699 263.991142 
L 121.349448 264.512742 
L 123.067197 263.307693 
L 124.784946 263.226658 
L 126.502695 260.974244 
L 128.220444 262.597481 
L 129.938193 264.388884 
L 133.37369 263.622319 
L 135.091439 264.519285 
L 138.526937 264.324948 
L 140.244686 264.231646 
L 141.962435 264.540324 
L 143.680184 264.504713 
L 145.397933 264.076192 
L 147.115682 263.214614 
L 148.833431 264.608126 
L 150.55118 264.469028 
L 153.986677 264.483599 
L 155.704426 264.197373 
L 157.422175 264.449178 
L 159.139924 264.204585 
L 160.857673 264.60255 
L 162.575422 262.684092 
L 164.293171 262.057815 
L 166.01092 261.918567 
L 167.728669 262.302482 
L 169.446418 233.660172 
L 171.164167 263.964972 
L 172.881916 264.522258 
L 174.599665 264.09002 
L 176.317413 264.236776 
L 178.035162 263.747738 
L 181.47066 264.509025 
L 183.188409 263.445974 
L 184.906158 264.50226 
L 186.623907 263.628043 
L 188.341656 263.365013 
L 190.059405 264.203469 
L 191.777154 262.068148 
L 193.494903 264.506572 
L 195.212652 264.574002 
L 196.9304 263.50084 
L 198.648149 263.446866 
L 200.365898 264.581734 
L 202.083647 263.571913 
L 203.801396 263.929213 
L 205.519145 263.961255 
L 207.236894 256.273892 
L 208.954643 257.709111 
L 210.672392 255.042153 
L 212.390141 262.432659 
L 214.10789 262.389242 
L 215.825639 262.922143 
L 217.543387 264.407248 
L 219.261136 264.536235 
L 220.978885 261.084349 
L 222.696634 261.491607 
L 224.414383 264.256254 
L 226.132132 264.32755 
L 227.849881 263.916277 
L 229.56763 262.549231 
L 231.285379 262.677847 
L 233.003128 264.332829 
L 234.720877 259.326103 
L 236.438626 264.168453 
L 238.156374 264.35424 
L 239.874123 261.873812 
L 241.591872 264.284282 
L 243.309621 263.87509 
L 245.02737 264.309336 
L 246.745119 264.150908 
L 248.462868 264.404497 
L 250.180617 263.951888 
L 251.898366 264.403902 
L 253.616115 264.203767 
L 255.333864 261.826752 
L 257.051613 264.339966 
L 260.48711 263.587823 
L 262.204859 263.983782 
L 263.922608 262.374225 
L 265.640357 263.445231 
L 267.358106 264.15009 
L 269.075855 263.95843 
L 270.793604 263.625739 
L 272.511353 263.874421 
L 274.229102 263.79227 
L 275.946851 263.237884 
L 277.6646 254.251054 
L 279.382348 262.646028 
L 281.100097 264.566047 
L 282.817846 263.684991 
L 284.535595 264.436911 
L 286.253344 264.4778 
L 287.971093 263.881335 
L 289.688842 264.534748 
L 291.406591 264.476165 
L 293.12434 263.446197 
L 294.842089 264.512073 
L 296.559838 264.027794 
L 298.277587 263.231936 
L 299.995335 264.288073 
L 301.713084 264.425239 
L 303.430833 263.516304 
L 305.148582 264.397657 
L 306.866331 262.796204 
L 308.58408 258.766066 
L 310.301829 263.247474 
L 312.019578 264.397062 
L 313.737327 262.703273 
L 315.455076 264.319744 
L 317.172825 263.494298 
L 318.890574 260.912018 
L 320.608323 263.441811 
L 322.326071 264.3871 
L 324.04382 262.000718 
L 325.761569 264.229936 
L 327.479318 263.233498 
L 329.197067 262.657997 
L 330.914816 264.354835 
L 332.632565 263.376759 
L 334.350314 264.144886 
L 336.068063 264.412229 
L 337.785812 263.153131 
L 339.503561 264.532964 
L 341.22131 262.512133 
L 344.656807 263.995974 
L 346.374556 263.631761 
L 348.092305 264.142135 
L 349.810054 264.494825 
L 351.527803 263.026597 
L 353.245552 262.996859 
L 354.963301 263.238553 
L 356.68105 264.056193 
L 358.398799 264.514824 
L 360.116548 264.428064 
L 363.552045 263.196102 
L 365.269794 258.871412 
L 366.987543 264.069352 
L 368.705292 261.765641 
L 370.423041 264.541662 
L 372.14079 263.840446 
L 373.858539 264.206666 
L 375.576288 262.215053 
L 377.294037 262.815979 
L 379.011786 264.468136 
L 380.729535 264.252165 
L 382.447284 257.821297 
L 384.165032 263.660978 
L 385.882781 262.762823 
L 387.60053 261.230361 
L 389.318279 255.535503 
L 391.036028 264.369927 
L 392.753777 263.010687 
L 394.471526 262.518899 
L 396.189275 263.997387 
L 397.907024 263.443 
L 399.624773 263.95672 
L 399.624773 263.95672 
" style="fill:none;stroke:#d62728;stroke-linecap:square;stroke-width:1.5;"/>
   </g>
   <g id="line2d_20">
    <path clip-path="url(#p0c842eac82)" d="M 74.970227 263.760005 
L 76.687976 263.988688 
L 78.405725 263.755172 
L 80.123474 262.321812 
L 81.841223 264.518021 
L 83.558972 260.781618 
L 85.276721 263.128226 
L 86.99447 262.040269 
L 88.712219 258.90509 
L 90.429968 263.052692 
L 92.147716 264.540324 
L 93.865465 263.545819 
L 95.583214 263.66135 
L 97.300963 264.354612 
L 99.018712 262.362106 
L 100.736461 263.83197 
L 102.45421 264.447171 
L 104.171959 262.884896 
L 105.889708 264.317514 
L 107.607457 263.0518 
L 109.325206 264.053294 
L 111.042955 264.551178 
L 112.760703 261.767574 
L 114.478452 264.385613 
L 116.196201 264.421076 
L 117.91395 262.319879 
L 119.631699 264.263168 
L 121.349448 264.295805 
L 123.067197 262.662384 
L 124.784946 262.271257 
L 126.502695 263.762756 
L 128.220444 263.568419 
L 129.938193 264.410593 
L 131.655942 264.448806 
L 133.37369 261.685795 
L 135.091439 264.473191 
L 136.809188 264.543818 
L 138.526937 263.843271 
L 140.244686 264.545974 
L 143.680184 264.54196 
L 147.115682 264.087492 
L 150.55118 264.511032 
L 152.268929 264.461816 
L 153.986677 263.264276 
L 155.704426 264.006308 
L 157.422175 264.134701 
L 159.139924 264.465534 
L 160.857673 264.52828 
L 162.575422 264.171278 
L 164.293171 264.026455 
L 166.01092 263.376982 
L 167.728669 263.649157 
L 169.446418 258.71566 
L 171.164167 264.347252 
L 172.881916 264.375577 
L 174.599665 264.039689 
L 176.317413 264.093886 
L 178.035162 264.337735 
L 179.752911 264.283687 
L 181.47066 264.375354 
L 183.188409 263.71577 
L 184.906158 264.52605 
L 186.623907 262.396305 
L 188.341656 263.890554 
L 190.059405 264.160944 
L 191.777154 263.855835 
L 193.494903 264.454159 
L 195.212652 263.910329 
L 198.648149 264.125556 
L 200.365898 264.535566 
L 202.083647 263.313343 
L 203.801396 263.651982 
L 205.519145 264.3361 
L 207.236894 261.30017 
L 208.954643 259.115559 
L 210.672392 260.148872 
L 212.390141 263.898955 
L 214.10789 263.119602 
L 215.825639 260.995061 
L 217.543387 263.574218 
L 219.261136 264.561364 
L 220.978885 263.645291 
L 222.696634 263.310667 
L 224.414383 264.41208 
L 226.132132 264.476537 
L 227.849881 264.141094 
L 229.56763 263.995156 
L 233.003128 264.047123 
L 234.720877 251.994551 
L 236.438626 264.397657 
L 238.156374 264.367771 
L 239.874123 263.67488 
L 241.591872 264.053442 
L 243.309621 263.927949 
L 245.02737 264.441743 
L 246.745119 263.993595 
L 248.462868 264.45795 
L 250.180617 264.165628 
L 251.898366 264.238783 
L 253.616115 264.194474 
L 255.333864 263.763127 
L 257.051613 262.620007 
L 258.769361 262.882666 
L 260.48711 264.207335 
L 262.204859 263.756808 
L 263.922608 264.130835 
L 265.640357 263.196102 
L 267.358106 264.390743 
L 269.075855 264.405835 
L 270.793604 264.259153 
L 272.511353 263.942223 
L 274.229102 263.382409 
L 275.946851 263.048157 
L 277.6646 263.737478 
L 279.382348 263.771751 
L 281.100097 264.529544 
L 282.817846 263.661796 
L 284.535595 264.489026 
L 286.253344 264.417061 
L 287.971093 263.908396 
L 289.688842 264.381747 
L 291.406591 264.494677 
L 293.12434 264.059762 
L 294.842089 264.18243 
L 296.559838 264.457727 
L 298.277587 263.450435 
L 299.995335 264.149198 
L 305.148582 264.428064 
L 306.866331 252.655845 
L 308.58408 261.312883 
L 310.301829 262.517635 
L 312.019578 264.216703 
L 313.737327 264.069724 
L 315.455076 264.051361 
L 317.172825 262.233044 
L 318.890574 263.78216 
L 320.608323 263.839702 
L 322.326071 264.193284 
L 324.04382 263.68462 
L 325.761569 264.385093 
L 327.479318 264.379145 
L 329.197067 263.886093 
L 330.914816 264.089425 
L 332.632565 262.992993 
L 334.350314 264.26012 
L 336.068063 264.222873 
L 337.785812 263.93412 
L 339.503561 264.341081 
L 341.22131 263.937391 
L 342.939058 258.02106 
L 344.656807 263.929436 
L 346.374556 263.665885 
L 348.092305 264.246515 
L 349.810054 263.945717 
L 351.527803 264.023259 
L 353.245552 263.902746 
L 354.963301 263.989283 
L 356.68105 263.858363 
L 358.398799 264.399441 
L 360.116548 263.927577 
L 361.834297 264.274245 
L 363.552045 263.795913 
L 366.987543 263.803199 
L 368.705292 262.804753 
L 370.423041 264.200867 
L 372.14079 264.325692 
L 373.858539 263.866243 
L 377.294037 261.231402 
L 379.011786 263.897616 
L 380.729535 264.455943 
L 382.447284 262.321143 
L 384.165032 264.069872 
L 387.60053 262.866905 
L 389.318279 259.257408 
L 391.036028 263.200489 
L 392.753777 264.284505 
L 394.471526 263.446346 
L 396.189275 264.106227 
L 397.907024 263.782531 
L 399.624773 263.979172 
L 399.624773 263.979172 
" style="fill:none;stroke:#9467bd;stroke-linecap:square;stroke-width:1.5;"/>
   </g>
   <g id="line2d_21">
    <path clip-path="url(#p0c842eac82)" d="M 74.970227 264.262127 
L 76.687976 264.285917 
L 78.405725 264.030619 
L 80.123474 258.402819 
L 81.841223 264.554078 
L 83.558972 251.712637 
L 85.276721 264.150313 
L 86.99447 261.461126 
L 88.712219 261.646541 
L 90.429968 263.296839 
L 92.147716 264.388215 
L 93.865465 264.106004 
L 95.583214 264.381896 
L 97.300963 264.258187 
L 99.018712 262.840736 
L 100.736461 263.847657 
L 102.45421 264.388884 
L 104.171959 263.36873 
L 107.607457 262.282632 
L 109.325206 262.475853 
L 111.042955 264.469994 
L 112.760703 260.972683 
L 114.478452 264.26867 
L 116.196201 264.394758 
L 117.91395 263.33416 
L 119.631699 263.426496 
L 121.349448 264.303611 
L 123.067197 263.021319 
L 124.784946 262.788546 
L 126.502695 262.727732 
L 128.220444 262.503063 
L 129.938193 264.193136 
L 131.655942 264.020656 
L 133.37369 263.337654 
L 135.091439 264.548205 
L 136.809188 264.405686 
L 138.526937 263.036782 
L 140.244686 264.445163 
L 143.680184 264.341601 
L 145.397933 262.875529 
L 147.115682 263.929808 
L 148.833431 264.422414 
L 150.55118 264.429328 
L 152.268929 264.284877 
L 153.986677 263.559647 
L 155.704426 263.532808 
L 157.422175 264.290304 
L 159.139924 264.38093 
L 160.857673 264.353125 
L 162.575422 263.283383 
L 164.293171 262.720818 
L 166.01092 261.591601 
L 167.728669 263.112465 
L 169.446418 261.189025 
L 171.164167 264.40182 
L 172.881916 264.529693 
L 174.599665 264.360485 
L 176.317413 264.044372 
L 178.035162 264.469325 
L 179.752911 264.031436 
L 181.47066 264.38487 
L 183.188409 264.209343 
L 184.906158 264.545082 
L 186.623907 263.564851 
L 188.341656 263.784315 
L 190.059405 264.395724 
L 191.777154 263.065256 
L 193.494903 264.407173 
L 195.212652 263.893751 
L 196.9304 263.852712 
L 198.648149 263.057004 
L 200.365898 264.410816 
L 202.083647 264.04742 
L 203.801396 264.18585 
L 207.236894 262.878875 
L 208.954643 259.682807 
L 210.672392 263.201678 
L 212.390141 263.813087 
L 214.10789 262.421136 
L 215.825639 263.129564 
L 217.543387 263.70499 
L 219.261136 264.507166 
L 220.978885 264.058944 
L 222.696634 264.150536 
L 224.414383 264.469251 
L 227.849881 264.347921 
L 229.56763 264.197819 
L 231.285379 263.793757 
L 233.003128 264.527686 
L 234.720877 258.646743 
L 236.438626 264.383234 
L 238.156374 263.926908 
L 239.874123 264.176928 
L 241.591872 263.439878 
L 243.309621 264.184437 
L 245.02737 263.819034 
L 248.462868 264.26629 
L 250.180617 263.64031 
L 251.898366 264.272238 
L 253.616115 263.813384 
L 255.333864 263.981551 
L 257.051613 263.929361 
L 258.769361 263.353266 
L 260.48711 263.06481 
L 262.204859 263.991216 
L 263.922608 263.505598 
L 265.640357 263.447535 
L 267.358106 264.467467 
L 269.075855 264.123177 
L 270.793604 264.068534 
L 272.511353 264.160944 
L 274.229102 263.628267 
L 275.946851 264.020508 
L 277.6646 263.190898 
L 279.382348 264.168676 
L 281.100097 264.497204 
L 282.817846 264.142135 
L 284.535595 264.37461 
L 286.253344 264.198042 
L 287.971093 263.862303 
L 289.688842 264.441892 
L 291.406591 264.463006 
L 293.12434 263.956572 
L 294.842089 264.381822 
L 296.559838 264.200198 
L 298.277587 263.59154 
L 299.995335 264.153213 
L 301.713084 264.219528 
L 303.430833 264.408363 
L 305.148582 264.444866 
L 306.866331 262.795832 
L 308.58408 263.856058 
L 310.301829 263.770413 
L 312.019578 264.208525 
L 313.737327 264.269487 
L 315.455076 263.838513 
L 317.172825 263.280929 
L 318.890574 263.481511 
L 320.608323 264.287033 
L 322.326071 264.24079 
L 324.04382 263.518832 
L 327.479318 264.431707 
L 330.914816 264.403828 
L 332.632565 263.712201 
L 334.350314 264.355206 
L 336.068063 264.23804 
L 337.785812 263.967946 
L 339.503561 264.246589 
L 341.22131 262.334153 
L 342.939058 262.885937 
L 344.656807 263.811674 
L 348.092305 264.287627 
L 349.810054 264.242203 
L 351.527803 264.349928 
L 353.245552 263.527381 
L 354.963301 264.465757 
L 356.68105 264.258782 
L 358.398799 264.528652 
L 360.116548 263.464709 
L 361.834297 263.941331 
L 363.552045 264.144663 
L 365.269794 262.765499 
L 366.987543 263.808626 
L 368.705292 263.751381 
L 370.423041 264.370819 
L 372.14079 263.335498 
L 373.858539 264.118865 
L 375.576288 259.981746 
L 377.294037 262.311552 
L 379.011786 264.26235 
L 380.729535 264.49371 
L 382.447284 261.710775 
L 384.165032 264.535789 
L 385.882781 264.073515 
L 387.60053 263.134471 
L 389.318279 256.711855 
L 391.036028 263.338918 
L 392.753777 264.120724 
L 394.471526 262.635397 
L 396.189275 264.266885 
L 399.624773 263.761789 
L 399.624773 263.761789 
" style="fill:none;stroke:#8c564b;stroke-linecap:square;stroke-width:1.5;"/>
   </g>
   <g id="line2d_22">
    <path clip-path="url(#p0c842eac82)" d="M 74.970227 264.482112 
L 76.687976 264.413716 
L 78.405725 264.386803 
L 80.123474 262.010978 
L 81.841223 264.603145 
L 83.558972 262.511241 
L 85.276721 264.408288 
L 86.99447 262.577259 
L 90.429968 264.176408 
L 92.147716 264.400408 
L 93.865465 264.228077 
L 95.583214 264.430815 
L 97.300963 264.35476 
L 100.736461 262.528118 
L 102.45421 264.298705 
L 104.171959 263.282937 
L 105.889708 262.069264 
L 107.607457 263.960735 
L 109.325206 263.159748 
L 111.042955 264.530511 
L 112.760703 264.053814 
L 114.478452 264.391561 
L 116.196201 264.450739 
L 117.91395 263.46627 
L 119.631699 263.87457 
L 121.349448 264.103774 
L 123.067197 262.887796 
L 124.784946 263.107112 
L 126.502695 264.044298 
L 128.220444 263.7322 
L 129.938193 264.430369 
L 131.655942 264.342568 
L 133.37369 263.796954 
L 135.091439 264.577199 
L 136.809188 264.519656 
L 138.526937 264.074779 
L 143.680184 264.525158 
L 145.397933 263.793311 
L 147.115682 263.555558 
L 148.833431 264.502185 
L 152.268929 264.503821 
L 153.986677 264.29246 
L 155.704426 263.966385 
L 157.422175 264.238337 
L 160.857673 264.289114 
L 162.575422 263.663803 
L 164.293171 263.947725 
L 166.01092 263.713465 
L 167.728669 264.197448 
L 169.446418 259.581922 
L 171.164167 264.424124 
L 174.599665 264.578463 
L 176.317413 263.998725 
L 181.47066 264.521143 
L 183.188409 264.307552 
L 184.906158 264.550584 
L 186.623907 263.826171 
L 188.341656 261.599481 
L 190.059405 264.167115 
L 191.777154 263.73391 
L 193.494903 264.402341 
L 195.212652 263.363154 
L 196.9304 262.943183 
L 200.365898 264.534377 
L 202.083647 264.028091 
L 203.801396 263.850333 
L 205.519145 263.997907 
L 207.236894 262.07194 
L 208.954643 263.200191 
L 210.672392 263.865574 
L 212.390141 264.261904 
L 214.10789 263.981923 
L 215.825639 263.90178 
L 219.261136 264.598238 
L 220.978885 264.218784 
L 222.696634 264.024076 
L 224.414383 264.437506 
L 226.132132 264.58441 
L 227.849881 264.403753 
L 229.56763 264.384201 
L 231.285379 264.208525 
L 233.003128 264.311269 
L 234.720877 261.127468 
L 236.438626 264.578463 
L 238.156374 264.299225 
L 239.874123 263.822752 
L 241.591872 264.292757 
L 243.309621 264.098198 
L 245.02737 264.393866 
L 251.898366 264.134626 
L 253.616115 263.801415 
L 255.333864 263.816209 
L 257.051613 263.702462 
L 258.769361 264.069947 
L 260.48711 263.67949 
L 262.204859 264.368588 
L 263.922608 264.246664 
L 265.640357 264.34175 
L 267.358106 264.598461 
L 269.075855 264.486053 
L 270.793604 263.709897 
L 272.511353 264.505308 
L 277.6646 264.041845 
L 279.382348 264.433565 
L 281.100097 264.547312 
L 282.817846 264.159383 
L 284.535595 264.522407 
L 286.253344 264.123029 
L 287.971093 264.212465 
L 289.688842 264.540547 
L 291.406591 264.489398 
L 293.12434 264.05032 
L 294.842089 264.529693 
L 296.559838 264.452969 
L 298.277587 264.211053 
L 299.995335 264.132768 
L 301.713084 264.433565 
L 303.430833 264.275584 
L 305.148582 264.476462 
L 306.866331 262.506409 
L 308.58408 263.547454 
L 310.301829 263.880517 
L 312.019578 264.481443 
L 313.737327 264.05939 
L 315.455076 263.90401 
L 317.172825 263.636147 
L 318.890574 264.253801 
L 320.608323 264.189344 
L 322.326071 264.524117 
L 324.04382 264.125185 
L 325.761569 264.4523 
L 327.479318 264.375949 
L 329.197067 264.467467 
L 334.350314 264.385167 
L 336.068063 264.477206 
L 337.785812 264.218487 
L 341.22131 264.166595 
L 342.939058 263.263458 
L 344.656807 264.4297 
L 346.374556 264.080875 
L 348.092305 264.502185 
L 351.527803 264.461296 
L 353.245552 263.581653 
L 354.963301 264.427172 
L 356.68105 264.38539 
L 358.398799 264.573407 
L 360.116548 264.291568 
L 361.834297 264.125705 
L 363.552045 263.785877 
L 365.269794 263.302638 
L 366.987543 264.230903 
L 370.423041 264.579578 
L 372.14079 264.416169 
L 373.858539 264.382788 
L 375.576288 263.750935 
L 377.294037 264.312087 
L 379.011786 264.486499 
L 380.729535 264.541737 
L 382.447284 264.236627 
L 384.165032 264.596231 
L 387.60053 264.28785 
L 389.318279 260.845926 
L 391.036028 264.499137 
L 392.753777 264.50226 
L 394.471526 263.785802 
L 396.189275 264.576381 
L 399.624773 264.401746 
L 399.624773 264.401746 
" style="fill:none;stroke:#e377c2;stroke-linecap:square;stroke-width:1.5;"/>
   </g>
   <g id="line2d_23">
    <path clip-path="url(#p0c842eac82)" d="M 74.970227 264.545008 
L 76.687976 264.598238 
L 78.405725 264.492595 
L 81.841223 264.617717 
L 83.558972 262.960282 
L 85.276721 264.490216 
L 86.99447 263.849813 
L 90.429968 263.63243 
L 92.147716 264.558092 
L 93.865465 264.279226 
L 95.583214 264.531849 
L 97.300963 264.492818 
L 99.018712 264.088607 
L 102.45421 264.387398 
L 104.171959 263.669156 
L 105.889708 264.326063 
L 107.607457 262.307538 
L 109.325206 263.794649 
L 111.042955 264.59177 
L 112.760703 264.152915 
L 114.478452 264.410147 
L 116.196201 264.469994 
L 117.91395 263.241229 
L 119.631699 264.186519 
L 121.349448 264.569764 
L 124.784946 264.01285 
L 126.502695 264.185775 
L 128.220444 264.101097 
L 129.938193 264.425016 
L 131.655942 264.543744 
L 133.37369 264.48806 
L 136.809188 264.5572 
L 138.526937 264.314837 
L 140.244686 264.523076 
L 145.397933 264.414905 
L 147.115682 263.785208 
L 148.833431 264.576902 
L 152.268929 264.42799 
L 153.986677 264.150462 
L 155.704426 264.399144 
L 157.422175 264.418845 
L 159.139924 264.556085 
L 160.857673 264.495717 
L 162.575422 264.322495 
L 164.293171 264.415723 
L 166.01092 263.981328 
L 167.728669 264.330227 
L 169.446418 259.327441 
L 171.164167 264.582329 
L 174.599665 264.542108 
L 176.317413 264.320339 
L 178.035162 264.436614 
L 179.752911 264.273353 
L 181.47066 264.581808 
L 183.188409 264.436465 
L 184.906158 264.55891 
L 186.623907 264.252834 
L 188.341656 264.078571 
L 190.059405 264.529916 
L 191.777154 263.446569 
L 193.494903 264.460032 
L 195.212652 263.713019 
L 196.9304 264.475867 
L 198.648149 263.856504 
L 200.365898 264.528578 
L 202.083647 264.270826 
L 203.801396 264.352158 
L 205.519145 263.780301 
L 207.236894 263.393264 
L 208.954643 263.641946 
L 210.672392 263.638303 
L 212.390141 264.177449 
L 214.10789 264.362567 
L 215.825639 263.755321 
L 217.543387 264.322272 
L 219.261136 264.566196 
L 220.978885 264.406876 
L 222.696634 264.387621 
L 224.414383 264.547164 
L 227.849881 264.538837 
L 231.285379 264.478023 
L 233.003128 264.552963 
L 234.720877 263.388134 
L 236.438626 264.560248 
L 238.156374 264.13366 
L 239.874123 264.417433 
L 241.591872 264.353348 
L 243.309621 264.463155 
L 245.02737 264.284059 
L 246.745119 264.284282 
L 248.462868 264.504639 
L 250.180617 264.379963 
L 251.898366 264.143027 
L 253.616115 264.332011 
L 257.051613 264.35305 
L 258.769361 263.926536 
L 260.48711 264.185627 
L 267.358106 264.608498 
L 270.793604 264.39446 
L 272.511353 264.547759 
L 274.229102 264.371042 
L 279.382348 264.213432 
L 281.100097 264.557126 
L 282.817846 264.427469 
L 284.535595 264.548428 
L 286.253344 264.447171 
L 287.971093 264.221833 
L 289.688842 264.589986 
L 291.406591 264.576679 
L 293.12434 264.235661 
L 294.842089 264.543967 
L 299.995335 264.581288 
L 301.713084 264.342642 
L 303.430833 263.896799 
L 305.148582 264.52211 
L 306.866331 263.860742 
L 310.301829 264.422191 
L 312.019578 264.490142 
L 313.737327 264.2057 
L 315.455076 264.353794 
L 317.172825 264.216777 
L 318.890574 264.417507 
L 327.479318 264.573036 
L 337.785812 264.443305 
L 339.503561 264.578835 
L 341.22131 264.319521 
L 342.939058 264.202429 
L 344.656807 264.314243 
L 346.374556 264.287107 
L 348.092305 264.51527 
L 351.527803 264.478395 
L 353.245552 264.404125 
L 354.963301 264.465757 
L 356.68105 264.342642 
L 358.398799 264.590432 
L 360.116548 264.212986 
L 361.834297 264.421299 
L 363.552045 264.44784 
L 365.269794 263.837769 
L 366.987543 264.555713 
L 372.14079 264.476611 
L 373.858539 264.414459 
L 375.576288 264.017088 
L 377.294037 264.507984 
L 379.011786 264.582031 
L 382.447284 264.45178 
L 384.165032 264.615263 
L 387.60053 264.392527 
L 389.318279 263.79123 
L 391.036028 264.569764 
L 392.753777 264.559802 
L 394.471526 263.599049 
L 396.189275 264.591547 
L 397.907024 264.568575 
L 399.624773 264.385762 
L 399.624773 264.385762 
" style="fill:none;stroke:#7f7f7f;stroke-linecap:square;stroke-width:1.5;"/>
   </g>
   <g id="line2d_24">
    <path clip-path="url(#p0c842eac82)" d="M 74.970227 264.622549 
L 145.397933 264.616601 
L 324.04382 264.619278 
L 399.624773 264.618609 
L 399.624773 264.618609 
" style="fill:none;stroke:#bcbd22;stroke-linecap:square;stroke-width:1.5;"/>
   </g>
   <g id="line2d_25">
    <path clip-path="url(#p0c842eac82)" d="M 74.970227 264.622549 
L 123.067197 264.618014 
L 399.624773 264.618014 
L 399.624773 264.618014 
" style="fill:none;stroke:#17becf;stroke-linecap:square;stroke-width:1.5;"/>
   </g>
   <g id="line2d_26">
    <path clip-path="url(#p0c842eac82)" d="M 74.970227 264.564189 
L 80.123474 264.562925 
L 88.712219 264.622772 
L 111.042955 264.603443 
L 123.067197 264.627679 
L 138.526937 264.62017 
L 217.543387 264.604186 
L 224.414383 264.594001 
L 229.56763 264.633924 
L 236.438626 264.614817 
L 277.6646 264.617642 
L 320.608323 264.615709 
L 349.810054 264.625448 
L 373.858539 264.618832 
L 399.624773 264.625597 
L 399.624773 264.625597 
" style="fill:none;stroke:#1f77b4;stroke-linecap:square;stroke-width:1.5;"/>
   </g>
   <g id="line2d_27">
    <path clip-path="url(#p0c842eac82)" d="M 74.970227 264.622549 
L 399.624773 264.622549 
L 399.624773 264.622549 
" style="fill:none;stroke:#ff7f0e;stroke-linecap:square;stroke-width:1.5;"/>
   </g>
   <g id="patch_3">
    <path d="M 58.7375 276.812 
L 58.7375 10.7 
" style="fill:none;stroke:#000000;stroke-linecap:square;stroke-linejoin:miter;stroke-width:0.8;"/>
   </g>
   <g id="patch_4">
    <path d="M 415.8575 276.812 
L 415.8575 10.7 
" style="fill:none;stroke:#000000;stroke-linecap:square;stroke-linejoin:miter;stroke-width:0.8;"/>
   </g>
   <g id="patch_5">
    <path d="M 58.7375 276.812 
L 415.8575 276.812 
" style="fill:none;stroke:#000000;stroke-linecap:square;stroke-linejoin:miter;stroke-width:0.8;"/>
   </g>
   <g id="patch_6">
    <path d="M 58.7375 10.7 
L 415.8575 10.7 
" style="fill:none;stroke:#000000;stroke-linecap:square;stroke-linejoin:miter;stroke-width:0.8;"/>
   </g>
   <g id="legend_1">
    <g id="patch_7">
     <path d="M 318.504375 165.48125 
L 408.8575 165.48125 
Q 410.8575 165.48125 410.8575 163.48125 
L 410.8575 17.7 
Q 410.8575 15.7 408.8575 15.7 
L 318.504375 15.7 
Q 316.504375 15.7 316.504375 17.7 
L 316.504375 163.48125 
Q 316.504375 165.48125 318.504375 165.48125 
z
" style="fill:#ffffff;opacity:0.8;stroke:#cccccc;stroke-linejoin:miter;"/>
    </g>
    <g id="line2d_28">
     <path d="M 320.504375 23.798437 
L 340.504375 23.798437 
" style="fill:none;stroke:#1f77b4;stroke-linecap:square;stroke-width:1.5;"/>
    </g>
    <g id="line2d_29"/>
    <g id="text_16">
     <!-- delta -->
     <defs>
      <path d="M 45.40625 46.390625 
L 45.40625 75.984375 
L 54.390625 75.984375 
L 54.390625 0 
L 45.40625 0 
L 45.40625 8.203125 
Q 42.578125 3.328125 38.25 0.953125 
Q 33.9375 -1.421875 27.875 -1.421875 
Q 17.96875 -1.421875 11.734375 6.484375 
Q 5.515625 14.40625 5.515625 27.296875 
Q 5.515625 40.1875 11.734375 48.09375 
Q 17.96875 56 27.875 56 
Q 33.9375 56 38.25 53.625 
Q 42.578125 51.265625 45.40625 46.390625 
M 14.796875 27.296875 
Q 14.796875 17.390625 18.875 11.75 
Q 22.953125 6.109375 30.078125 6.109375 
Q 37.203125 6.109375 41.296875 11.75 
Q 45.40625 17.390625 45.40625 27.296875 
Q 45.40625 37.203125 41.296875 42.84375 
Q 37.203125 48.484375 30.078125 48.484375 
Q 22.953125 48.484375 18.875 42.84375 
Q 14.796875 37.203125 14.796875 27.296875 
" id="DejaVuSans-64"/>
      <path d="M 56.203125 29.59375 
L 56.203125 25.203125 
L 14.890625 25.203125 
Q 15.484375 15.921875 20.484375 11.0625 
Q 25.484375 6.203125 34.421875 6.203125 
Q 39.59375 6.203125 44.453125 7.46875 
Q 49.3125 8.734375 54.109375 11.28125 
L 54.109375 2.78125 
Q 49.265625 0.734375 44.1875 -0.34375 
Q 39.109375 -1.421875 33.890625 -1.421875 
Q 20.796875 -1.421875 13.15625 6.1875 
Q 5.515625 13.8125 5.515625 26.8125 
Q 5.515625 40.234375 12.765625 48.109375 
Q 20.015625 56 32.328125 56 
Q 43.359375 56 49.78125 48.890625 
Q 56.203125 41.796875 56.203125 29.59375 
M 47.21875 32.234375 
Q 47.125 39.59375 43.09375 43.984375 
Q 39.0625 48.390625 32.421875 48.390625 
Q 24.90625 48.390625 20.390625 44.140625 
Q 15.875 39.890625 15.1875 32.171875 
z
" id="DejaVuSans-65"/>
      <path d="M 9.421875 75.984375 
L 18.40625 75.984375 
L 18.40625 0 
L 9.421875 0 
z
" id="DejaVuSans-6c"/>
      <path d="M 18.3125 70.21875 
L 18.3125 54.6875 
L 36.8125 54.6875 
L 36.8125 47.703125 
L 18.3125 47.703125 
L 18.3125 18.015625 
Q 18.3125 11.328125 20.140625 9.421875 
Q 21.96875 7.515625 27.59375 7.515625 
L 36.8125 7.515625 
L 36.8125 0 
L 27.59375 0 
Q 17.1875 0 13.234375 3.875 
Q 9.28125 7.765625 9.28125 18.015625 
L 9.28125 47.703125 
L 2.6875 47.703125 
L 2.6875 54.6875 
L 9.28125 54.6875 
L 9.28125 70.21875 
z
" id="DejaVuSans-74"/>
      <path d="M 34.28125 27.484375 
Q 23.390625 27.484375 19.1875 25 
Q 14.984375 22.515625 14.984375 16.5 
Q 14.984375 11.71875 18.140625 8.90625 
Q 21.296875 6.109375 26.703125 6.109375 
Q 34.1875 6.109375 38.703125 11.40625 
Q 43.21875 16.703125 43.21875 25.484375 
L 43.21875 27.484375 
z
M 52.203125 31.203125 
L 52.203125 0 
L 43.21875 0 
L 43.21875 8.296875 
Q 40.140625 3.328125 35.546875 0.953125 
Q 30.953125 -1.421875 24.3125 -1.421875 
Q 15.921875 -1.421875 10.953125 3.296875 
Q 6 8.015625 6 15.921875 
Q 6 25.140625 12.171875 29.828125 
Q 18.359375 34.515625 30.609375 34.515625 
L 43.21875 34.515625 
L 43.21875 35.40625 
Q 43.21875 41.609375 39.140625 45 
Q 35.0625 48.390625 27.6875 48.390625 
Q 23 48.390625 18.546875 47.265625 
Q 14.109375 46.140625 10.015625 43.890625 
L 10.015625 52.203125 
Q 14.9375 54.109375 19.578125 55.046875 
Q 24.21875 56 28.609375 56 
Q 40.484375 56 46.34375 49.84375 
Q 52.203125 43.703125 52.203125 31.203125 
" id="DejaVuSans-61"/>
     </defs>
     <g transform="translate(348.504375 27.298437)scale(0.1 -0.1)">
      <use xlink:href="#DejaVuSans-64"/>
      <use x="63.476562" xlink:href="#DejaVuSans-65"/>
      <use x="125" xlink:href="#DejaVuSans-6c"/>
      <use x="152.783203" xlink:href="#DejaVuSans-74"/>
      <use x="191.992188" xlink:href="#DejaVuSans-61"/>
     </g>
    </g>
    <g id="line2d_30">
     <path d="M 320.504375 38.476562 
L 340.504375 38.476562 
" style="fill:none;stroke:#ff7f0e;stroke-linecap:square;stroke-width:1.5;"/>
    </g>
    <g id="line2d_31"/>
    <g id="text_17">
     <!-- lowAlpha -->
     <defs>
      <path d="M 30.609375 48.390625 
Q 23.390625 48.390625 19.1875 42.75 
Q 14.984375 37.109375 14.984375 27.296875 
Q 14.984375 17.484375 19.15625 11.84375 
Q 23.34375 6.203125 30.609375 6.203125 
Q 37.796875 6.203125 41.984375 11.859375 
Q 46.1875 17.53125 46.1875 27.296875 
Q 46.1875 37.015625 41.984375 42.703125 
Q 37.796875 48.390625 30.609375 48.390625 
M 30.609375 56 
Q 42.328125 56 49.015625 48.375 
Q 55.71875 40.765625 55.71875 27.296875 
Q 55.71875 13.875 49.015625 6.21875 
Q 42.328125 -1.421875 30.609375 -1.421875 
Q 18.84375 -1.421875 12.171875 6.21875 
Q 5.515625 13.875 5.515625 27.296875 
Q 5.515625 40.765625 12.171875 48.375 
Q 18.84375 56 30.609375 56 
" id="DejaVuSans-6f"/>
      <path d="M 4.203125 54.6875 
L 13.1875 54.6875 
L 24.421875 12.015625 
L 35.59375 54.6875 
L 46.1875 54.6875 
L 57.421875 12.015625 
L 68.609375 54.6875 
L 77.59375 54.6875 
L 63.28125 0 
L 52.6875 0 
L 40.921875 44.828125 
L 29.109375 0 
L 18.5 0 
z
" id="DejaVuSans-77"/>
      <path d="M 34.1875 63.1875 
L 20.796875 26.90625 
L 47.609375 26.90625 
z
M 28.609375 72.90625 
L 39.796875 72.90625 
L 67.578125 0 
L 57.328125 0 
L 50.6875 18.703125 
L 17.828125 18.703125 
L 11.1875 0 
L 0.78125 0 
z
" id="DejaVuSans-41"/>
      <path d="M 18.109375 8.203125 
L 18.109375 -20.796875 
L 9.078125 -20.796875 
L 9.078125 54.6875 
L 18.109375 54.6875 
L 18.109375 46.390625 
Q 20.953125 51.265625 25.265625 53.625 
Q 29.59375 56 35.59375 56 
Q 45.5625 56 51.78125 48.09375 
Q 58.015625 40.1875 58.015625 27.296875 
Q 58.015625 14.40625 51.78125 6.484375 
Q 45.5625 -1.421875 35.59375 -1.421875 
Q 29.59375 -1.421875 25.265625 0.953125 
Q 20.953125 3.328125 18.109375 8.203125 
M 48.6875 27.296875 
Q 48.6875 37.203125 44.609375 42.84375 
Q 40.53125 48.484375 33.40625 48.484375 
Q 26.265625 48.484375 22.1875 42.84375 
Q 18.109375 37.203125 18.109375 27.296875 
Q 18.109375 17.390625 22.1875 11.75 
Q 26.265625 6.109375 33.40625 6.109375 
Q 40.53125 6.109375 44.609375 11.75 
Q 48.6875 17.390625 48.6875 27.296875 
" id="DejaVuSans-70"/>
      <path d="M 54.890625 33.015625 
L 54.890625 0 
L 45.90625 0 
L 45.90625 32.71875 
Q 45.90625 40.484375 42.875 44.328125 
Q 39.84375 48.1875 33.796875 48.1875 
Q 26.515625 48.1875 22.3125 43.546875 
Q 18.109375 38.921875 18.109375 30.90625 
L 18.109375 0 
L 9.078125 0 
L 9.078125 75.984375 
L 18.109375 75.984375 
L 18.109375 46.1875 
Q 21.34375 51.125 25.703125 53.5625 
Q 30.078125 56 35.796875 56 
Q 45.21875 56 50.046875 50.171875 
Q 54.890625 44.34375 54.890625 33.015625 
" id="DejaVuSans-68"/>
     </defs>
     <g transform="translate(348.504375 41.976562)scale(0.1 -0.1)">
      <use xlink:href="#DejaVuSans-6c"/>
      <use x="27.783203" xlink:href="#DejaVuSans-6f"/>
      <use x="88.964844" xlink:href="#DejaVuSans-77"/>
      <use x="170.751953" xlink:href="#DejaVuSans-41"/>
      <use x="239.160156" xlink:href="#DejaVuSans-6c"/>
      <use x="266.943359" xlink:href="#DejaVuSans-70"/>
      <use x="330.419922" xlink:href="#DejaVuSans-68"/>
      <use x="393.798828" xlink:href="#DejaVuSans-61"/>
     </g>
    </g>
    <g id="line2d_32">
     <path d="M 320.504375 53.154687 
L 340.504375 53.154687 
" style="fill:none;stroke:#2ca02c;stroke-linecap:square;stroke-width:1.5;"/>
    </g>
    <g id="line2d_33"/>
    <g id="text_18">
     <!-- highAlpha -->
     <defs>
      <path d="M 9.421875 54.6875 
L 18.40625 54.6875 
L 18.40625 0 
L 9.421875 0 
z
M 9.421875 75.984375 
L 18.40625 75.984375 
L 18.40625 64.59375 
L 9.421875 64.59375 
z
" id="DejaVuSans-69"/>
      <path d="M 45.40625 27.984375 
Q 45.40625 37.75 41.375 43.109375 
Q 37.359375 48.484375 30.078125 48.484375 
Q 22.859375 48.484375 18.828125 43.109375 
Q 14.796875 37.75 14.796875 27.984375 
Q 14.796875 18.265625 18.828125 12.890625 
Q 22.859375 7.515625 30.078125 7.515625 
Q 37.359375 7.515625 41.375 12.890625 
Q 45.40625 18.265625 45.40625 27.984375 
M 54.390625 6.78125 
Q 54.390625 -7.171875 48.1875 -13.984375 
Q 42 -20.796875 29.203125 -20.796875 
Q 24.46875 -20.796875 20.265625 -20.09375 
Q 16.0625 -19.390625 12.109375 -17.921875 
L 12.109375 -9.1875 
Q 16.0625 -11.328125 19.921875 -12.34375 
Q 23.78125 -13.375 27.78125 -13.375 
Q 36.625 -13.375 41.015625 -8.765625 
Q 45.40625 -4.15625 45.40625 5.171875 
L 45.40625 9.625 
Q 42.625 4.78125 38.28125 2.390625 
Q 33.9375 0 27.875 0 
Q 17.828125 0 11.671875 7.65625 
Q 5.515625 15.328125 5.515625 27.984375 
Q 5.515625 40.671875 11.671875 48.328125 
Q 17.828125 56 27.875 56 
Q 33.9375 56 38.28125 53.609375 
Q 42.625 51.21875 45.40625 46.390625 
L 45.40625 54.6875 
L 54.390625 54.6875 
z
" id="DejaVuSans-67"/>
     </defs>
     <g transform="translate(348.504375 56.654687)scale(0.1 -0.1)">
      <use xlink:href="#DejaVuSans-68"/>
      <use x="63.378906" xlink:href="#DejaVuSans-69"/>
      <use x="91.162109" xlink:href="#DejaVuSans-67"/>
      <use x="154.638672" xlink:href="#DejaVuSans-68"/>
      <use x="218.017578" xlink:href="#DejaVuSans-41"/>
      <use x="286.425781" xlink:href="#DejaVuSans-6c"/>
      <use x="314.208984" xlink:href="#DejaVuSans-70"/>
      <use x="377.685547" xlink:href="#DejaVuSans-68"/>
      <use x="441.064453" xlink:href="#DejaVuSans-61"/>
     </g>
    </g>
    <g id="line2d_34">
     <path d="M 320.504375 67.832812 
L 340.504375 67.832812 
" style="fill:none;stroke:#d62728;stroke-linecap:square;stroke-width:1.5;"/>
    </g>
    <g id="line2d_35"/>
    <g id="text_19">
     <!-- lowBeta -->
     <defs>
      <path d="M 19.671875 34.8125 
L 19.671875 8.109375 
L 35.5 8.109375 
Q 43.453125 8.109375 47.28125 11.40625 
Q 51.125 14.703125 51.125 21.484375 
Q 51.125 28.328125 47.28125 31.5625 
Q 43.453125 34.8125 35.5 34.8125 
z
M 19.671875 64.796875 
L 19.671875 42.828125 
L 34.28125 42.828125 
Q 41.5 42.828125 45.03125 45.53125 
Q 48.578125 48.25 48.578125 53.8125 
Q 48.578125 59.328125 45.03125 62.0625 
Q 41.5 64.796875 34.28125 64.796875 
z
M 9.8125 72.90625 
L 35.015625 72.90625 
Q 46.296875 72.90625 52.390625 68.21875 
Q 58.5 63.53125 58.5 54.890625 
Q 58.5 48.1875 55.375 44.234375 
Q 52.25 40.28125 46.1875 39.3125 
Q 53.46875 37.75 57.5 32.78125 
Q 61.53125 27.828125 61.53125 20.40625 
Q 61.53125 10.640625 54.890625 5.3125 
Q 48.25 0 35.984375 0 
L 9.8125 0 
z
" id="DejaVuSans-42"/>
     </defs>
     <g transform="translate(348.504375 71.332812)scale(0.1 -0.1)">
      <use xlink:href="#DejaVuSans-6c"/>
      <use x="27.783203" xlink:href="#DejaVuSans-6f"/>
      <use x="88.964844" xlink:href="#DejaVuSans-77"/>
      <use x="170.751953" xlink:href="#DejaVuSans-42"/>
      <use x="239.355469" xlink:href="#DejaVuSans-65"/>
      <use x="300.878906" xlink:href="#DejaVuSans-74"/>
      <use x="340.087891" xlink:href="#DejaVuSans-61"/>
     </g>
    </g>
    <g id="line2d_36">
     <path d="M 320.504375 82.510938 
L 340.504375 82.510938 
" style="fill:none;stroke:#9467bd;stroke-linecap:square;stroke-width:1.5;"/>
    </g>
    <g id="line2d_37"/>
    <g id="text_20">
     <!-- highBeta -->
     <g transform="translate(348.504375 86.010938)scale(0.1 -0.1)">
      <use xlink:href="#DejaVuSans-68"/>
      <use x="63.378906" xlink:href="#DejaVuSans-69"/>
      <use x="91.162109" xlink:href="#DejaVuSans-67"/>
      <use x="154.638672" xlink:href="#DejaVuSans-68"/>
      <use x="218.017578" xlink:href="#DejaVuSans-42"/>
      <use x="286.621094" xlink:href="#DejaVuSans-65"/>
      <use x="348.144531" xlink:href="#DejaVuSans-74"/>
      <use x="387.353516" xlink:href="#DejaVuSans-61"/>
     </g>
    </g>
    <g id="line2d_38">
     <path d="M 320.504375 97.189062 
L 340.504375 97.189062 
" style="fill:none;stroke:#8c564b;stroke-linecap:square;stroke-width:1.5;"/>
    </g>
    <g id="line2d_39"/>
    <g id="text_21">
     <!-- lowGamma -->
     <defs>
      <path d="M 59.515625 10.40625 
L 59.515625 29.984375 
L 43.40625 29.984375 
L 43.40625 38.09375 
L 69.28125 38.09375 
L 69.28125 6.78125 
Q 63.578125 2.734375 56.6875 0.65625 
Q 49.8125 -1.421875 42 -1.421875 
Q 24.90625 -1.421875 15.25 8.5625 
Q 5.609375 18.5625 5.609375 36.375 
Q 5.609375 54.25 15.25 64.234375 
Q 24.90625 74.21875 42 74.21875 
Q 49.125 74.21875 55.546875 72.453125 
Q 61.96875 70.703125 67.390625 67.28125 
L 67.390625 56.78125 
Q 61.921875 61.421875 55.765625 63.765625 
Q 49.609375 66.109375 42.828125 66.109375 
Q 29.4375 66.109375 22.71875 58.640625 
Q 16.015625 51.171875 16.015625 36.375 
Q 16.015625 21.625 22.71875 14.15625 
Q 29.4375 6.6875 42.828125 6.6875 
Q 48.046875 6.6875 52.140625 7.59375 
Q 56.25 8.5 59.515625 10.40625 
" id="DejaVuSans-47"/>
      <path d="M 52 44.1875 
Q 55.375 50.25 60.0625 53.125 
Q 64.75 56 71.09375 56 
Q 79.640625 56 84.28125 50.015625 
Q 88.921875 44.046875 88.921875 33.015625 
L 88.921875 0 
L 79.890625 0 
L 79.890625 32.71875 
Q 79.890625 40.578125 77.09375 44.375 
Q 74.3125 48.1875 68.609375 48.1875 
Q 61.625 48.1875 57.5625 43.546875 
Q 53.515625 38.921875 53.515625 30.90625 
L 53.515625 0 
L 44.484375 0 
L 44.484375 32.71875 
Q 44.484375 40.625 41.703125 44.40625 
Q 38.921875 48.1875 33.109375 48.1875 
Q 26.21875 48.1875 22.15625 43.53125 
Q 18.109375 38.875 18.109375 30.90625 
L 18.109375 0 
L 9.078125 0 
L 9.078125 54.6875 
L 18.109375 54.6875 
L 18.109375 46.1875 
Q 21.1875 51.21875 25.484375 53.609375 
Q 29.78125 56 35.6875 56 
Q 41.65625 56 45.828125 52.96875 
Q 50 49.953125 52 44.1875 
" id="DejaVuSans-6d"/>
     </defs>
     <g transform="translate(348.504375 100.689062)scale(0.1 -0.1)">
      <use xlink:href="#DejaVuSans-6c"/>
      <use x="27.783203" xlink:href="#DejaVuSans-6f"/>
      <use x="88.964844" xlink:href="#DejaVuSans-77"/>
      <use x="170.751953" xlink:href="#DejaVuSans-47"/>
      <use x="248.242188" xlink:href="#DejaVuSans-61"/>
      <use x="309.521484" xlink:href="#DejaVuSans-6d"/>
      <use x="406.933594" xlink:href="#DejaVuSans-6d"/>
      <use x="504.345703" xlink:href="#DejaVuSans-61"/>
     </g>
    </g>
    <g id="line2d_40">
     <path d="M 320.504375 111.867188 
L 340.504375 111.867188 
" style="fill:none;stroke:#e377c2;stroke-linecap:square;stroke-width:1.5;"/>
    </g>
    <g id="line2d_41"/>
    <g id="text_22">
     <!-- midGamma -->
     <g transform="translate(348.504375 115.367188)scale(0.1 -0.1)">
      <use xlink:href="#DejaVuSans-6d"/>
      <use x="97.412109" xlink:href="#DejaVuSans-69"/>
      <use x="125.195312" xlink:href="#DejaVuSans-64"/>
      <use x="188.671875" xlink:href="#DejaVuSans-47"/>
      <use x="266.162109" xlink:href="#DejaVuSans-61"/>
      <use x="327.441406" xlink:href="#DejaVuSans-6d"/>
      <use x="424.853516" xlink:href="#DejaVuSans-6d"/>
      <use x="522.265625" xlink:href="#DejaVuSans-61"/>
     </g>
    </g>
    <g id="line2d_42">
     <path d="M 320.504375 126.545312 
L 340.504375 126.545312 
" style="fill:none;stroke:#7f7f7f;stroke-linecap:square;stroke-width:1.5;"/>
    </g>
    <g id="line2d_43"/>
    <g id="text_23">
     <!-- attention -->
     <defs>
      <path d="M 54.890625 33.015625 
L 54.890625 0 
L 45.90625 0 
L 45.90625 32.71875 
Q 45.90625 40.484375 42.875 44.328125 
Q 39.84375 48.1875 33.796875 48.1875 
Q 26.515625 48.1875 22.3125 43.546875 
Q 18.109375 38.921875 18.109375 30.90625 
L 18.109375 0 
L 9.078125 0 
L 9.078125 54.6875 
L 18.109375 54.6875 
L 18.109375 46.1875 
Q 21.34375 51.125 25.703125 53.5625 
Q 30.078125 56 35.796875 56 
Q 45.21875 56 50.046875 50.171875 
Q 54.890625 44.34375 54.890625 33.015625 
" id="DejaVuSans-6e"/>
     </defs>
     <g transform="translate(348.504375 130.045312)scale(0.1 -0.1)">
      <use xlink:href="#DejaVuSans-61"/>
      <use x="61.279297" xlink:href="#DejaVuSans-74"/>
      <use x="100.488281" xlink:href="#DejaVuSans-74"/>
      <use x="139.697266" xlink:href="#DejaVuSans-65"/>
      <use x="201.220703" xlink:href="#DejaVuSans-6e"/>
      <use x="264.599609" xlink:href="#DejaVuSans-74"/>
      <use x="303.808594" xlink:href="#DejaVuSans-69"/>
      <use x="331.591797" xlink:href="#DejaVuSans-6f"/>
      <use x="392.773438" xlink:href="#DejaVuSans-6e"/>
     </g>
    </g>
    <g id="line2d_44">
     <path d="M 320.504375 141.223437 
L 340.504375 141.223437 
" style="fill:none;stroke:#bcbd22;stroke-linecap:square;stroke-width:1.5;"/>
    </g>
    <g id="line2d_45"/>
    <g id="text_24">
     <!-- meditation -->
     <g transform="translate(348.504375 144.723437)scale(0.1 -0.1)">
      <use xlink:href="#DejaVuSans-6d"/>
      <use x="97.412109" xlink:href="#DejaVuSans-65"/>
      <use x="158.935547" xlink:href="#DejaVuSans-64"/>
      <use x="222.412109" xlink:href="#DejaVuSans-69"/>
      <use x="250.195312" xlink:href="#DejaVuSans-74"/>
      <use x="289.404297" xlink:href="#DejaVuSans-61"/>
      <use x="350.683594" xlink:href="#DejaVuSans-74"/>
      <use x="389.892578" xlink:href="#DejaVuSans-69"/>
      <use x="417.675781" xlink:href="#DejaVuSans-6f"/>
      <use x="478.857422" xlink:href="#DejaVuSans-6e"/>
     </g>
    </g>
    <g id="line2d_46">
     <path d="M 320.504375 155.901562 
L 340.504375 155.901562 
" style="fill:none;stroke:#17becf;stroke-linecap:square;stroke-width:1.5;"/>
    </g>
    <g id="line2d_47"/>
    <g id="text_25">
     <!-- rawValue -->
     <defs>
      <path d="M 41.109375 46.296875 
Q 39.59375 47.171875 37.8125 47.578125 
Q 36.03125 48 33.890625 48 
Q 26.265625 48 22.1875 43.046875 
Q 18.109375 38.09375 18.109375 28.8125 
L 18.109375 0 
L 9.078125 0 
L 9.078125 54.6875 
L 18.109375 54.6875 
L 18.109375 46.1875 
Q 20.953125 51.171875 25.484375 53.578125 
Q 30.03125 56 36.53125 56 
Q 37.453125 56 38.578125 55.875 
Q 39.703125 55.765625 41.0625 55.515625 
z
" id="DejaVuSans-72"/>
      <path d="M 28.609375 0 
L 0.78125 72.90625 
L 11.078125 72.90625 
L 34.1875 11.53125 
L 57.328125 72.90625 
L 67.578125 72.90625 
L 39.796875 0 
z
" id="DejaVuSans-56"/>
      <path d="M 8.5 21.578125 
L 8.5 54.6875 
L 17.484375 54.6875 
L 17.484375 21.921875 
Q 17.484375 14.15625 20.5 10.265625 
Q 23.53125 6.390625 29.59375 6.390625 
Q 36.859375 6.390625 41.078125 11.03125 
Q 45.3125 15.671875 45.3125 23.6875 
L 45.3125 54.6875 
L 54.296875 54.6875 
L 54.296875 0 
L 45.3125 0 
L 45.3125 8.40625 
Q 42.046875 3.421875 37.71875 1 
Q 33.40625 -1.421875 27.6875 -1.421875 
Q 18.265625 -1.421875 13.375 4.4375 
Q 8.5 10.296875 8.5 21.578125 
M 31.109375 56 
z
" id="DejaVuSans-75"/>
     </defs>
     <g transform="translate(348.504375 159.401562)scale(0.1 -0.1)">
      <use xlink:href="#DejaVuSans-72"/>
      <use x="41.113281" xlink:href="#DejaVuSans-61"/>
      <use x="102.392578" xlink:href="#DejaVuSans-77"/>
      <use x="184.179688" xlink:href="#DejaVuSans-56"/>
      <use x="252.478516" xlink:href="#DejaVuSans-61"/>
      <use x="313.757812" xlink:href="#DejaVuSans-6c"/>
      <use x="341.541016" xlink:href="#DejaVuSans-75"/>
      <use x="404.919922" xlink:href="#DejaVuSans-65"/>
     </g>
    </g>
   </g>
  </g>
 </g>
 <defs>
  <clipPath id="p0c842eac82">
   <rect height="266.112" width="357.12" x="58.7375" y="10.7"/>
  </clipPath>
 </defs>
</svg>
