<?xml version="1.0" encoding="utf-8" standalone="no"?>
<!DOCTYPE svg PUBLIC "-//W3C//DTD SVG 1.1//EN"
  "http://www.w3.org/Graphics/SVG/1.1/DTD/svg11.dtd">
<!-- Created with matplotlib (http://matplotlib.org/) -->
<svg height="300pt" version="1.1" viewBox="0 0 428 300" width="428pt" xmlns="http://www.w3.org/2000/svg" xmlns:xlink="http://www.w3.org/1999/xlink">
 <defs>
  <style type="text/css">
*{stroke-linecap:butt;stroke-linejoin:round;}
  </style>
 </defs>
 <g id="figure_1">
  <g id="patch_1">
   <path d="M 0 300.690125 
L 428.143558 300.690125 
L 428.143558 0 
L 0 0 
z
" style="fill:#ffffff;"/>
  </g>
  <g id="axes_1">
   <g id="patch_2">
    <path d="M 58.7375 276.812 
L 415.8575 276.812 
L 415.8575 10.7 
L 58.7375 10.7 
z
" style="fill:#ffffff;"/>
   </g>
   <g id="matplotlib.axis_1">
    <g id="xtick_1">
     <g id="line2d_1">
      <defs>
       <path d="M 0 0 
L 0 3.5 
" id="m7b193b3baa" style="stroke:#000000;stroke-width:0.8;"/>
      </defs>
      <g>
       <use style="stroke:#000000;stroke-width:0.8;" x="74.970227" xlink:href="#m7b193b3baa" y="276.812"/>
      </g>
     </g>
     <g id="text_1">
      <!-- 0 -->
      <defs>
       <path d="M 31.78125 66.40625 
Q 24.171875 66.40625 20.328125 58.90625 
Q 16.5 51.421875 16.5 36.375 
Q 16.5 21.390625 20.328125 13.890625 
Q 24.171875 6.390625 31.78125 6.390625 
Q 39.453125 6.390625 43.28125 13.890625 
Q 47.125 21.390625 47.125 36.375 
Q 47.125 51.421875 43.28125 58.90625 
Q 39.453125 66.40625 31.78125 66.40625 
M 31.78125 74.21875 
Q 44.046875 74.21875 50.515625 64.515625 
Q 56.984375 54.828125 56.984375 36.375 
Q 56.984375 17.96875 50.515625 8.265625 
Q 44.046875 -1.421875 31.78125 -1.421875 
Q 19.53125 -1.421875 13.0625 8.265625 
Q 6.59375 17.96875 6.59375 36.375 
Q 6.59375 54.828125 13.0625 64.515625 
Q 19.53125 74.21875 31.78125 74.21875 
" id="DejaVuSans-30"/>
      </defs>
      <g transform="translate(71.788977 291.410437)scale(0.1 -0.1)">
       <use xlink:href="#DejaVuSans-30"/>
      </g>
     </g>
    </g>
    <g id="xtick_2">
     <g id="line2d_2">
      <g>
       <use style="stroke:#000000;stroke-width:0.8;" x="117.023925" xlink:href="#m7b193b3baa" y="276.812"/>
      </g>
     </g>
     <g id="text_2">
      <!-- 25 -->
      <defs>
       <path d="M 19.1875 8.296875 
L 53.609375 8.296875 
L 53.609375 0 
L 7.328125 0 
L 7.328125 8.296875 
Q 12.9375 14.109375 22.625 23.890625 
Q 32.328125 33.6875 34.8125 36.53125 
Q 39.546875 41.84375 41.421875 45.53125 
Q 43.3125 49.21875 43.3125 52.78125 
Q 43.3125 58.59375 39.234375 62.25 
Q 35.15625 65.921875 28.609375 65.921875 
Q 23.96875 65.921875 18.8125 64.3125 
Q 13.671875 62.703125 7.8125 59.421875 
L 7.8125 69.390625 
Q 13.765625 71.78125 18.9375 73 
Q 24.125 74.21875 28.421875 74.21875 
Q 39.75 74.21875 46.484375 68.546875 
Q 53.21875 62.890625 53.21875 53.421875 
Q 53.21875 48.921875 51.53125 44.890625 
Q 49.859375 40.875 45.40625 35.40625 
Q 44.1875 33.984375 37.640625 27.21875 
Q 31.109375 20.453125 19.1875 8.296875 
" id="DejaVuSans-32"/>
       <path d="M 10.796875 72.90625 
L 49.515625 72.90625 
L 49.515625 64.59375 
L 19.828125 64.59375 
L 19.828125 46.734375 
Q 21.96875 47.46875 24.109375 47.828125 
Q 26.265625 48.1875 28.421875 48.1875 
Q 40.625 48.1875 47.75 41.5 
Q 54.890625 34.8125 54.890625 23.390625 
Q 54.890625 11.625 47.5625 5.09375 
Q 40.234375 -1.421875 26.90625 -1.421875 
Q 22.3125 -1.421875 17.546875 -0.640625 
Q 12.796875 0.140625 7.71875 1.703125 
L 7.71875 11.625 
Q 12.109375 9.234375 16.796875 8.0625 
Q 21.484375 6.890625 26.703125 6.890625 
Q 35.15625 6.890625 40.078125 11.328125 
Q 45.015625 15.765625 45.015625 23.390625 
Q 45.015625 31 40.078125 35.4375 
Q 35.15625 39.890625 26.703125 39.890625 
Q 22.75 39.890625 18.8125 39.015625 
Q 14.890625 38.140625 10.796875 36.28125 
z
" id="DejaVuSans-35"/>
      </defs>
      <g transform="translate(110.661425 291.410437)scale(0.1 -0.1)">
       <use xlink:href="#DejaVuSans-32"/>
       <use x="63.623047" xlink:href="#DejaVuSans-35"/>
      </g>
     </g>
    </g>
    <g id="xtick_3">
     <g id="line2d_3">
      <g>
       <use style="stroke:#000000;stroke-width:0.8;" x="159.077622" xlink:href="#m7b193b3baa" y="276.812"/>
      </g>
     </g>
     <g id="text_3">
      <!-- 50 -->
      <g transform="translate(152.715122 291.410437)scale(0.1 -0.1)">
       <use xlink:href="#DejaVuSans-35"/>
       <use x="63.623047" xlink:href="#DejaVuSans-30"/>
      </g>
     </g>
    </g>
    <g id="xtick_4">
     <g id="line2d_4">
      <g>
       <use style="stroke:#000000;stroke-width:0.8;" x="201.13132" xlink:href="#m7b193b3baa" y="276.812"/>
      </g>
     </g>
     <g id="text_4">
      <!-- 75 -->
      <defs>
       <path d="M 8.203125 72.90625 
L 55.078125 72.90625 
L 55.078125 68.703125 
L 28.609375 0 
L 18.3125 0 
L 43.21875 64.59375 
L 8.203125 64.59375 
z
" id="DejaVuSans-37"/>
      </defs>
      <g transform="translate(194.76882 291.410437)scale(0.1 -0.1)">
       <use xlink:href="#DejaVuSans-37"/>
       <use x="63.623047" xlink:href="#DejaVuSans-35"/>
      </g>
     </g>
    </g>
    <g id="xtick_5">
     <g id="line2d_5">
      <g>
       <use style="stroke:#000000;stroke-width:0.8;" x="243.185018" xlink:href="#m7b193b3baa" y="276.812"/>
      </g>
     </g>
     <g id="text_5">
      <!-- 100 -->
      <defs>
       <path d="M 12.40625 8.296875 
L 28.515625 8.296875 
L 28.515625 63.921875 
L 10.984375 60.40625 
L 10.984375 69.390625 
L 28.421875 72.90625 
L 38.28125 72.90625 
L 38.28125 8.296875 
L 54.390625 8.296875 
L 54.390625 0 
L 12.40625 0 
z
" id="DejaVuSans-31"/>
      </defs>
      <g transform="translate(233.641268 291.410437)scale(0.1 -0.1)">
       <use xlink:href="#DejaVuSans-31"/>
       <use x="63.623047" xlink:href="#DejaVuSans-30"/>
       <use x="127.246094" xlink:href="#DejaVuSans-30"/>
      </g>
     </g>
    </g>
    <g id="xtick_6">
     <g id="line2d_6">
      <g>
       <use style="stroke:#000000;stroke-width:0.8;" x="285.238715" xlink:href="#m7b193b3baa" y="276.812"/>
      </g>
     </g>
     <g id="text_6">
      <!-- 125 -->
      <g transform="translate(275.694965 291.410437)scale(0.1 -0.1)">
       <use xlink:href="#DejaVuSans-31"/>
       <use x="63.623047" xlink:href="#DejaVuSans-32"/>
       <use x="127.246094" xlink:href="#DejaVuSans-35"/>
      </g>
     </g>
    </g>
    <g id="xtick_7">
     <g id="line2d_7">
      <g>
       <use style="stroke:#000000;stroke-width:0.8;" x="327.292413" xlink:href="#m7b193b3baa" y="276.812"/>
      </g>
     </g>
     <g id="text_7">
      <!-- 150 -->
      <g transform="translate(317.748663 291.410437)scale(0.1 -0.1)">
       <use xlink:href="#DejaVuSans-31"/>
       <use x="63.623047" xlink:href="#DejaVuSans-35"/>
       <use x="127.246094" xlink:href="#DejaVuSans-30"/>
      </g>
     </g>
    </g>
    <g id="xtick_8">
     <g id="line2d_8">
      <g>
       <use style="stroke:#000000;stroke-width:0.8;" x="369.34611" xlink:href="#m7b193b3baa" y="276.812"/>
      </g>
     </g>
     <g id="text_8">
      <!-- 175 -->
      <g transform="translate(359.80236 291.410437)scale(0.1 -0.1)">
       <use xlink:href="#DejaVuSans-31"/>
       <use x="63.623047" xlink:href="#DejaVuSans-37"/>
       <use x="127.246094" xlink:href="#DejaVuSans-35"/>
      </g>
     </g>
    </g>
    <g id="xtick_9">
     <g id="line2d_9">
      <g>
       <use style="stroke:#000000;stroke-width:0.8;" x="411.399808" xlink:href="#m7b193b3baa" y="276.812"/>
      </g>
     </g>
     <g id="text_9">
      <!-- 200 -->
      <g transform="translate(401.856058 291.410437)scale(0.1 -0.1)">
       <use xlink:href="#DejaVuSans-32"/>
       <use x="63.623047" xlink:href="#DejaVuSans-30"/>
       <use x="127.246094" xlink:href="#DejaVuSans-30"/>
      </g>
     </g>
    </g>
   </g>
   <g id="matplotlib.axis_2">
    <g id="ytick_1">
     <g id="line2d_10">
      <defs>
       <path d="M 0 0 
L -3.5 0 
" id="mf0189c36f7" style="stroke:#000000;stroke-width:0.8;"/>
      </defs>
      <g>
       <use style="stroke:#000000;stroke-width:0.8;" x="58.7375" xlink:href="#mf0189c36f7" y="264.571096"/>
      </g>
     </g>
     <g id="text_10">
      <!-- 0 -->
      <g transform="translate(45.375 268.370315)scale(0.1 -0.1)">
       <use xlink:href="#DejaVuSans-30"/>
      </g>
     </g>
    </g>
    <g id="ytick_2">
     <g id="line2d_11">
      <g>
       <use style="stroke:#000000;stroke-width:0.8;" x="58.7375" xlink:href="#mf0189c36f7" y="224.936601"/>
      </g>
     </g>
     <g id="text_11">
      <!-- 500000 -->
      <g transform="translate(13.5625 228.73582)scale(0.1 -0.1)">
       <use xlink:href="#DejaVuSans-35"/>
       <use x="63.623047" xlink:href="#DejaVuSans-30"/>
       <use x="127.246094" xlink:href="#DejaVuSans-30"/>
       <use x="190.869141" xlink:href="#DejaVuSans-30"/>
       <use x="254.492188" xlink:href="#DejaVuSans-30"/>
       <use x="318.115234" xlink:href="#DejaVuSans-30"/>
      </g>
     </g>
    </g>
    <g id="ytick_3">
     <g id="line2d_12">
      <g>
       <use style="stroke:#000000;stroke-width:0.8;" x="58.7375" xlink:href="#mf0189c36f7" y="185.302106"/>
      </g>
     </g>
     <g id="text_12">
      <!-- 1000000 -->
      <g transform="translate(7.2 189.101325)scale(0.1 -0.1)">
       <use xlink:href="#DejaVuSans-31"/>
       <use x="63.623047" xlink:href="#DejaVuSans-30"/>
       <use x="127.246094" xlink:href="#DejaVuSans-30"/>
       <use x="190.869141" xlink:href="#DejaVuSans-30"/>
       <use x="254.492188" xlink:href="#DejaVuSans-30"/>
       <use x="318.115234" xlink:href="#DejaVuSans-30"/>
       <use x="381.738281" xlink:href="#DejaVuSans-30"/>
      </g>
     </g>
    </g>
    <g id="ytick_4">
     <g id="line2d_13">
      <g>
       <use style="stroke:#000000;stroke-width:0.8;" x="58.7375" xlink:href="#mf0189c36f7" y="145.667611"/>
      </g>
     </g>
     <g id="text_13">
      <!-- 1500000 -->
      <g transform="translate(7.2 149.46683)scale(0.1 -0.1)">
       <use xlink:href="#DejaVuSans-31"/>
       <use x="63.623047" xlink:href="#DejaVuSans-35"/>
       <use x="127.246094" xlink:href="#DejaVuSans-30"/>
       <use x="190.869141" xlink:href="#DejaVuSans-30"/>
       <use x="254.492188" xlink:href="#DejaVuSans-30"/>
       <use x="318.115234" xlink:href="#DejaVuSans-30"/>
       <use x="381.738281" xlink:href="#DejaVuSans-30"/>
      </g>
     </g>
    </g>
    <g id="ytick_5">
     <g id="line2d_14">
      <g>
       <use style="stroke:#000000;stroke-width:0.8;" x="58.7375" xlink:href="#mf0189c36f7" y="106.033116"/>
      </g>
     </g>
     <g id="text_14">
      <!-- 2000000 -->
      <g transform="translate(7.2 109.832335)scale(0.1 -0.1)">
       <use xlink:href="#DejaVuSans-32"/>
       <use x="63.623047" xlink:href="#DejaVuSans-30"/>
       <use x="127.246094" xlink:href="#DejaVuSans-30"/>
       <use x="190.869141" xlink:href="#DejaVuSans-30"/>
       <use x="254.492188" xlink:href="#DejaVuSans-30"/>
       <use x="318.115234" xlink:href="#DejaVuSans-30"/>
       <use x="381.738281" xlink:href="#DejaVuSans-30"/>
      </g>
     </g>
    </g>
    <g id="ytick_6">
     <g id="line2d_15">
      <g>
       <use style="stroke:#000000;stroke-width:0.8;" x="58.7375" xlink:href="#mf0189c36f7" y="66.398621"/>
      </g>
     </g>
     <g id="text_15">
      <!-- 2500000 -->
      <g transform="translate(7.2 70.19784)scale(0.1 -0.1)">
       <use xlink:href="#DejaVuSans-32"/>
       <use x="63.623047" xlink:href="#DejaVuSans-35"/>
       <use x="127.246094" xlink:href="#DejaVuSans-30"/>
       <use x="190.869141" xlink:href="#DejaVuSans-30"/>
       <use x="254.492188" xlink:href="#DejaVuSans-30"/>
       <use x="318.115234" xlink:href="#DejaVuSans-30"/>
       <use x="381.738281" xlink:href="#DejaVuSans-30"/>
      </g>
     </g>
    </g>
    <g id="ytick_7">
     <g id="line2d_16">
      <g>
       <use style="stroke:#000000;stroke-width:0.8;" x="58.7375" xlink:href="#mf0189c36f7" y="26.764126"/>
      </g>
     </g>
     <g id="text_16">
      <!-- 3000000 -->
      <defs>
       <path d="M 40.578125 39.3125 
Q 47.65625 37.796875 51.625 33 
Q 55.609375 28.21875 55.609375 21.1875 
Q 55.609375 10.40625 48.1875 4.484375 
Q 40.765625 -1.421875 27.09375 -1.421875 
Q 22.515625 -1.421875 17.65625 -0.515625 
Q 12.796875 0.390625 7.625 2.203125 
L 7.625 11.71875 
Q 11.71875 9.328125 16.59375 8.109375 
Q 21.484375 6.890625 26.8125 6.890625 
Q 36.078125 6.890625 40.9375 10.546875 
Q 45.796875 14.203125 45.796875 21.1875 
Q 45.796875 27.640625 41.28125 31.265625 
Q 36.765625 34.90625 28.71875 34.90625 
L 20.21875 34.90625 
L 20.21875 43.015625 
L 29.109375 43.015625 
Q 36.375 43.015625 40.234375 45.921875 
Q 44.09375 48.828125 44.09375 54.296875 
Q 44.09375 59.90625 40.109375 62.90625 
Q 36.140625 65.921875 28.71875 65.921875 
Q 24.65625 65.921875 20.015625 65.03125 
Q 15.375 64.15625 9.8125 62.3125 
L 9.8125 71.09375 
Q 15.4375 72.65625 20.34375 73.4375 
Q 25.25 74.21875 29.59375 74.21875 
Q 40.828125 74.21875 47.359375 69.109375 
Q 53.90625 64.015625 53.90625 55.328125 
Q 53.90625 49.265625 50.4375 45.09375 
Q 46.96875 40.921875 40.578125 39.3125 
" id="DejaVuSans-33"/>
      </defs>
      <g transform="translate(7.2 30.563345)scale(0.1 -0.1)">
       <use xlink:href="#DejaVuSans-33"/>
       <use x="63.623047" xlink:href="#DejaVuSans-30"/>
       <use x="127.246094" xlink:href="#DejaVuSans-30"/>
       <use x="190.869141" xlink:href="#DejaVuSans-30"/>
       <use x="254.492188" xlink:href="#DejaVuSans-30"/>
       <use x="318.115234" xlink:href="#DejaVuSans-30"/>
       <use x="381.738281" xlink:href="#DejaVuSans-30"/>
      </g>
     </g>
    </g>
   </g>
   <g id="line2d_17">
    <path clip-path="url(#p749cf914ff)" d="M 74.970227 228.821574 
L 76.652375 218.85445 
L 78.334523 251.497658 
L 80.016671 261.968061 
L 81.698819 259.814481 
L 83.380967 238.025021 
L 85.063115 151.288021 
L 86.745263 171.897641 
L 88.427411 213.460592 
L 90.109558 262.943942 
L 91.791706 197.876546 
L 93.473854 251.065404 
L 95.156002 259.643498 
L 96.83815 241.955178 
L 98.520298 254.731437 
L 100.202446 263.177944 
L 101.884594 200.011974 
L 103.566742 229.631862 
L 105.24889 252.248415 
L 106.931037 247.839553 
L 108.613185 257.425393 
L 110.295333 258.540391 
L 111.977481 203.298545 
L 113.659629 219.446748 
L 115.341777 175.217109 
L 117.023925 260.808673 
L 118.706073 229.215938 
L 120.388221 227.21503 
L 122.070369 263.853712 
L 123.752516 174.700592 
L 125.434664 261.453764 
L 127.116812 189.687029 
L 128.79896 171.532686 
L 130.481108 236.713516 
L 132.163256 248.18572 
L 133.845404 225.892982 
L 135.527552 263.194907 
L 137.2097 240.057399 
L 138.891848 183.573567 
L 140.573996 263.824382 
L 142.256143 263.0829 
L 143.938291 244.372961 
L 145.620439 201.281546 
L 147.302587 256.687875 
L 148.984735 237.929661 
L 150.666883 223.98791 
L 152.349031 261.598509 
L 154.031179 254.318762 
L 155.713327 256.079089 
L 157.395475 202.354372 
L 159.077622 235.904497 
L 160.75977 259.372319 
L 162.441918 166.639174 
L 164.124066 262.7793 
L 165.806214 262.588975 
L 167.488362 259.761213 
L 169.17051 256.520855 
L 170.852658 259.988239 
L 172.534806 231.964114 
L 174.216954 254.974634 
L 175.899102 262.123666 
L 177.581249 262.013007 
L 179.263397 234.945817 
L 180.945545 263.200773 
L 182.627693 205.546693 
L 184.309841 237.262454 
L 185.991989 260.125057 
L 187.674137 214.958379 
L 189.356285 256.945261 
L 191.038433 192.572658 
L 192.720581 205.142104 
L 194.402728 183.837215 
L 196.084876 251.866338 
L 197.767024 254.241158 
L 199.449172 249.898644 
L 201.13132 250.029993 
L 202.813468 239.9293 
L 204.495616 261.467636 
L 206.177764 256.405201 
L 207.859912 259.432722 
L 209.54206 22.796 
L 211.224207 262.979534 
L 212.906355 261.585668 
L 216.270651 255.929587 
L 217.952799 259.420752 
L 219.634947 260.341858 
L 221.317095 262.803477 
L 222.999243 210.067086 
L 224.681391 253.562457 
L 226.363539 259.969294 
L 228.045687 236.240756 
L 229.727834 263.477263 
L 231.409982 229.03132 
L 233.09213 224.434115 
L 234.774278 245.905865 
L 236.456426 205.660999 
L 238.138574 204.159644 
L 239.820722 228.381632 
L 241.50287 97.452248 
L 243.185018 212.59006 
L 244.867166 143.493025 
L 246.549313 230.189916 
L 248.231461 141.303457 
L 249.913609 193.868865 
L 251.595757 215.446359 
L 253.277905 259.479332 
L 254.960053 199.188844 
L 256.642201 259.9968 
L 260.006497 124.474651 
L 261.688645 97.668811 
L 263.370793 239.318929 
L 265.05294 257.038243 
L 266.735088 159.638216 
L 268.417236 213.982102 
L 270.099384 200.678784 
L 271.781532 144.793433 
L 273.46368 163.85271 
L 275.145828 251.505744 
L 276.827976 225.162439 
L 278.510124 131.723245 
L 280.192272 160.152196 
L 281.874419 213.649648 
L 283.556567 212.420583 
L 285.238715 138.936802 
L 286.920863 106.35915 
L 288.603011 215.763515 
L 290.285159 171.633358 
L 291.967307 229.776132 
L 293.649455 258.038142 
L 295.331603 258.406347 
L 297.013751 248.711987 
L 298.695898 214.310752 
L 300.378046 169.42643 
L 302.060194 118.763637 
L 303.742342 157.446587 
L 305.42449 186.881224 
L 307.106638 207.245427 
L 308.788786 244.882582 
L 310.470934 253.76919 
L 312.153082 225.590333 
L 313.83523 241.375801 
L 315.517378 223.058957 
L 317.199525 202.680881 
L 318.881673 234.291848 
L 320.563821 220.70546 
L 322.245969 202.12901 
L 323.928117 160.035354 
L 325.610265 215.951858 
L 327.292413 109.289486 
L 328.974561 195.043235 
L 330.656709 155.880073 
L 332.338857 160.501455 
L 334.021004 134.330005 
L 335.703152 126.603419 
L 337.3853 130.526996 
L 339.067448 244.506371 
L 340.749596 185.449071 
L 342.431744 239.243148 
L 344.113892 176.790757 
L 345.79604 143.887626 
L 347.478188 208.508341 
L 349.160336 199.230936 
L 350.842484 239.151592 
L 352.524631 218.877518 
L 354.206779 130.866585 
L 355.888927 257.163171 
L 357.571075 177.649161 
L 359.253223 236.655808 
L 360.935371 255.632408 
L 362.617519 169.827373 
L 364.299667 213.215888 
L 365.981815 260.616287 
L 367.663963 220.077174 
L 369.34611 252.276634 
L 371.028258 147.10563 
L 372.710406 245.635637 
L 374.392554 194.615341 
L 376.074702 229.250816 
L 377.75685 222.236224 
L 379.438998 240.998797 
L 381.121146 256.386969 
L 382.803294 142.652219 
L 384.485442 239.36435 
L 386.167589 251.69266 
L 387.849737 147.276058 
L 389.531885 253.903789 
L 391.214033 130.90178 
L 392.896181 260.615257 
L 394.578329 191.230713 
L 396.260477 132.160255 
L 397.942625 222.720161 
L 399.624773 258.184235 
L 399.624773 258.184235 
" style="fill:none;stroke:#1f77b4;stroke-linecap:square;stroke-width:1.5;"/>
   </g>
   <g id="line2d_18">
    <path clip-path="url(#p749cf914ff)" d="M 74.970227 257.623645 
L 76.652375 262.528572 
L 78.334523 260.884375 
L 80.016671 263.131017 
L 81.698819 259.018858 
L 83.380967 258.58058 
L 85.063115 253.712592 
L 86.745263 258.479988 
L 88.427411 175.576673 
L 90.109558 259.481789 
L 91.791706 259.132847 
L 93.473854 261.892518 
L 95.156002 262.589847 
L 96.83815 262.966533 
L 98.520298 260.794246 
L 100.202446 259.940598 
L 101.884594 243.350391 
L 103.566742 255.038921 
L 105.24889 262.696464 
L 106.931037 259.086316 
L 108.613185 260.798844 
L 110.295333 260.280266 
L 111.977481 215.549092 
L 113.659629 239.780829 
L 115.341777 249.320535 
L 117.023925 262.689092 
L 118.706073 250.327965 
L 120.388221 262.005714 
L 122.070369 263.646661 
L 123.752516 252.900878 
L 125.434664 262.901929 
L 127.116812 206.332804 
L 128.79896 262.396906 
L 130.481108 260.481133 
L 132.163256 255.710012 
L 133.845404 237.726811 
L 135.527552 262.949966 
L 137.2097 253.379266 
L 138.891848 260.7971 
L 140.573996 264.364601 
L 142.256143 261.425703 
L 143.938291 261.690858 
L 145.620439 261.195426 
L 147.302587 263.515947 
L 148.984735 243.339373 
L 150.666883 262.351961 
L 152.349031 263.658155 
L 154.031179 263.459507 
L 155.713327 263.39411 
L 157.395475 260.470432 
L 159.077622 257.14375 
L 160.75977 260.94343 
L 162.441918 256.382372 
L 164.124066 263.953036 
L 167.488362 262.003812 
L 169.17051 262.330717 
L 170.852658 263.635484 
L 172.534806 237.40593 
L 174.216954 264.034287 
L 175.899102 263.68804 
L 177.581249 261.673735 
L 179.263397 260.614702 
L 180.945545 261.314488 
L 182.627693 260.968083 
L 184.309841 259.53054 
L 185.991989 260.871375 
L 187.674137 262.010232 
L 189.356285 264.343753 
L 191.038433 257.820708 
L 192.720581 263.749235 
L 194.402728 262.22957 
L 196.084876 260.534006 
L 197.767024 263.020991 
L 199.449172 263.050479 
L 201.13132 248.700255 
L 202.813468 260.675422 
L 204.495616 262.746403 
L 206.177764 263.526569 
L 207.859912 263.139895 
L 209.54206 256.968725 
L 211.224207 263.042156 
L 212.906355 259.984196 
L 214.588503 259.377075 
L 216.270651 261.075572 
L 217.952799 256.663777 
L 219.634947 263.809797 
L 221.317095 262.29568 
L 222.999243 263.311036 
L 224.681391 263.797589 
L 226.363539 262.818221 
L 228.045687 260.057361 
L 229.727834 263.808212 
L 231.409982 261.593357 
L 233.09213 238.568886 
L 234.774278 259.151079 
L 236.456426 232.234897 
L 238.138574 260.153515 
L 239.820722 241.691054 
L 241.50287 221.786293 
L 243.185018 245.210517 
L 244.867166 256.34242 
L 246.549313 257.121951 
L 248.231461 264.211532 
L 249.913609 233.98151 
L 251.595757 263.343616 
L 254.960053 263.732272 
L 256.642201 262.267143 
L 258.324349 263.070217 
L 260.006497 193.534191 
L 261.688645 222.800302 
L 263.370793 263.442623 
L 266.735088 258.118363 
L 268.417236 245.350903 
L 270.099384 257.279855 
L 271.781532 186.942023 
L 273.46368 198.567534 
L 275.145828 250.971153 
L 276.827976 259.073237 
L 278.510124 239.404777 
L 280.192272 262.538956 
L 281.874419 264.260203 
L 283.556567 259.389282 
L 285.238715 235.109983 
L 286.920863 252.183414 
L 288.603011 260.54978 
L 290.285159 257.643779 
L 291.967307 263.179926 
L 293.649455 263.789346 
L 295.331603 263.921487 
L 297.013751 261.313854 
L 298.695898 262.541176 
L 300.378046 245.306274 
L 302.060194 239.900209 
L 303.742342 254.715821 
L 305.42449 262.912393 
L 307.106638 251.569555 
L 308.788786 259.320635 
L 310.470934 264.238167 
L 312.153082 250.527802 
L 313.83523 263.308658 
L 315.517378 256.405915 
L 317.199525 263.948201 
L 318.881673 261.507667 
L 320.563821 243.99786 
L 322.245969 253.036586 
L 323.928117 259.028609 
L 325.610265 261.631485 
L 327.292413 259.12175 
L 328.974561 248.688682 
L 330.656709 259.199909 
L 332.338857 252.815981 
L 334.021004 256.74257 
L 335.703152 263.87773 
L 337.3853 259.073237 
L 339.067448 256.107546 
L 340.749596 259.102408 
L 342.431744 257.022865 
L 344.113892 250.201848 
L 345.79604 261.773377 
L 347.478188 244.778977 
L 349.160336 261.122261 
L 350.842484 254.719625 
L 352.524631 255.692652 
L 354.206779 260.360486 
L 355.888927 262.53095 
L 357.571075 232.724938 
L 359.253223 250.233952 
L 360.935371 260.659647 
L 362.617519 257.481357 
L 364.299667 259.238909 
L 365.981815 262.683939 
L 367.663963 252.829298 
L 369.34611 262.688616 
L 371.028258 245.456568 
L 372.710406 263.922834 
L 374.392554 261.085163 
L 376.074702 236.56885 
L 377.75685 251.260644 
L 379.438998 262.995467 
L 381.121146 262.497499 
L 382.803294 258.022289 
L 384.485442 261.533667 
L 386.167589 262.746245 
L 387.849737 263.238664 
L 389.531885 252.708413 
L 391.214033 243.976775 
L 392.896181 264.340899 
L 394.578329 247.806181 
L 396.260477 250.516308 
L 397.942625 254.72779 
L 399.624773 257.798433 
L 399.624773 257.798433 
" style="fill:none;stroke:#ff7f0e;stroke-linecap:square;stroke-width:1.5;"/>
   </g>
   <g id="line2d_19">
    <path clip-path="url(#p749cf914ff)" d="M 74.970227 262.699873 
L 76.652375 263.904444 
L 78.334523 264.337491 
L 80.016671 263.067681 
L 81.698819 263.291219 
L 83.380967 259.96097 
L 85.063115 263.802742 
L 86.745263 264.361033 
L 88.427411 261.316391 
L 90.109558 263.187694 
L 91.791706 264.233252 
L 93.473854 263.969048 
L 95.156002 264.418979 
L 96.83815 263.253012 
L 98.520298 264.462181 
L 100.202446 263.439531 
L 101.884594 263.375641 
L 103.566742 262.79555 
L 105.24889 264.152715 
L 106.931037 264.22691 
L 108.613185 264.491669 
L 110.295333 263.383488 
L 111.977481 264.434912 
L 113.659629 263.037479 
L 115.341777 262.719452 
L 117.023925 264.007652 
L 118.706073 262.926978 
L 120.388221 263.783004 
L 122.070369 264.427619 
L 123.752516 260.809069 
L 125.434664 262.887899 
L 127.116812 220.035717 
L 128.79896 262.942673 
L 130.481108 264.230715 
L 132.163256 263.801711 
L 133.845404 263.717845 
L 135.527552 263.925133 
L 137.2097 263.39308 
L 138.891848 263.540124 
L 140.573996 264.199166 
L 142.256143 264.470028 
L 143.938291 263.714991 
L 145.620439 261.827993 
L 147.302587 263.952243 
L 148.984735 260.283357 
L 150.666883 263.14584 
L 152.349031 264.457187 
L 154.031179 263.943127 
L 155.713327 264.373399 
L 157.395475 264.192587 
L 159.077622 262.496151 
L 160.75977 262.383034 
L 162.441918 260.60511 
L 164.124066 264.447912 
L 165.806214 264.38743 
L 167.488362 263.570325 
L 169.17051 264.392186 
L 170.852658 264.214227 
L 172.534806 262.222356 
L 174.216954 264.266228 
L 175.899102 262.683939 
L 177.581249 262.105197 
L 179.263397 261.974482 
L 180.945545 264.223502 
L 182.627693 263.397995 
L 184.309841 263.289555 
L 185.991989 263.952481 
L 187.674137 262.822739 
L 189.356285 264.431504 
L 191.038433 262.026165 
L 192.720581 263.074418 
L 194.402728 262.351327 
L 196.084876 263.429068 
L 197.767024 263.119523 
L 199.449172 264.120452 
L 201.13132 263.103272 
L 202.813468 263.794736 
L 204.495616 264.19663 
L 206.177764 263.049528 
L 207.859912 262.196118 
L 209.54206 260.249192 
L 211.224207 262.544585 
L 212.906355 263.770559 
L 214.588503 263.582929 
L 216.270651 264.211532 
L 217.952799 262.697494 
L 219.634947 264.363332 
L 221.317095 262.942911 
L 222.999243 264.044037 
L 224.681391 264.313393 
L 226.363539 263.146157 
L 228.045687 263.624942 
L 229.727834 263.455702 
L 231.409982 262.659049 
L 233.09213 262.665945 
L 234.774278 264.18894 
L 236.456426 259.847378 
L 238.138574 258.30409 
L 239.820722 240.469281 
L 241.50287 256.85862 
L 243.185018 256.513641 
L 244.867166 263.969365 
L 246.549313 261.79573 
L 248.231461 264.40915 
L 249.913609 259.277989 
L 251.595757 263.97975 
L 253.277905 264.303326 
L 254.960053 263.956048 
L 256.642201 264.464004 
L 258.324349 263.863303 
L 260.006497 259.467442 
L 261.688645 245.441666 
L 263.370793 264.536852 
L 265.05294 264.473595 
L 266.735088 264.118391 
L 268.417236 259.546552 
L 270.099384 263.026144 
L 271.781532 249.168418 
L 273.46368 251.009044 
L 275.145828 258.845973 
L 276.827976 259.689633 
L 278.510124 258.536665 
L 280.192272 264.190922 
L 281.874419 264.072891 
L 283.556567 262.869825 
L 285.238715 260.233656 
L 286.920863 259.859348 
L 288.603011 263.379842 
L 290.285159 263.75415 
L 293.649455 264.00036 
L 295.331603 264.543194 
L 297.013751 263.489312 
L 298.695898 262.116611 
L 300.378046 262.695433 
L 302.060194 263.689467 
L 303.742342 262.719135 
L 305.42449 263.643411 
L 307.106638 262.210228 
L 308.788786 263.749156 
L 310.470934 263.740991 
L 312.153082 262.433212 
L 313.83523 264.23674 
L 315.517378 262.149984 
L 317.199525 263.997585 
L 318.881673 264.257508 
L 320.563821 263.141004 
L 322.245969 262.294649 
L 323.928117 260.13988 
L 325.610265 263.456178 
L 327.292413 262.699873 
L 328.974561 263.451343 
L 330.656709 264.366503 
L 332.338857 261.383373 
L 334.021004 263.206798 
L 335.703152 264.069086 
L 337.3853 263.848718 
L 339.067448 263.072199 
L 340.749596 263.650942 
L 342.431744 263.406318 
L 344.113892 261.844402 
L 345.79604 263.56002 
L 347.478188 261.212548 
L 349.160336 263.896914 
L 350.842484 263.399738 
L 352.524631 263.968097 
L 354.206779 261.710833 
L 355.888927 264.478034 
L 357.571075 260.720288 
L 359.253223 263.85609 
L 360.935371 263.876066 
L 362.617519 258.276584 
L 364.299667 263.257609 
L 365.981815 264.402729 
L 367.663963 262.616085 
L 369.34611 263.666796 
L 371.028258 260.182131 
L 372.710406 264.277484 
L 374.392554 263.097089 
L 376.074702 263.932822 
L 381.121146 264.095165 
L 382.803294 262.908826 
L 384.485442 264.244746 
L 386.167589 263.603301 
L 387.849737 261.016992 
L 389.531885 260.095411 
L 391.214033 260.610183 
L 392.896181 264.564041 
L 394.578329 264.153587 
L 396.260477 262.552353 
L 397.942625 262.970418 
L 399.624773 264.336856 
L 399.624773 264.336856 
" style="fill:none;stroke:#2ca02c;stroke-linecap:square;stroke-width:1.5;"/>
   </g>
   <g id="line2d_20">
    <path clip-path="url(#p749cf914ff)" d="M 74.970227 262.812672 
L 76.652375 263.261176 
L 78.334523 264.521078 
L 80.016671 262.958527 
L 81.698819 259.76906 
L 83.380967 258.312175 
L 85.063115 263.172236 
L 86.745263 262.468169 
L 88.427411 254.972573 
L 91.791706 263.470684 
L 93.473854 264.36357 
L 95.156002 264.400747 
L 96.83815 262.879972 
L 98.520298 264.181251 
L 100.202446 263.613051 
L 101.884594 263.92767 
L 103.566742 263.971426 
L 105.24889 264.406138 
L 108.613185 264.204398 
L 110.295333 263.097882 
L 111.977481 263.152816 
L 113.659629 261.091743 
L 115.341777 262.830983 
L 117.023925 264.106342 
L 118.706073 263.786333 
L 120.388221 264.393454 
L 122.070369 263.649515 
L 123.752516 263.919109 
L 125.434664 263.377543 
L 127.116812 218.255969 
L 128.79896 263.952243 
L 130.481108 263.994018 
L 132.163256 263.558039 
L 133.845404 263.552093 
L 135.527552 264.476053 
L 137.2097 260.614543 
L 138.891848 264.207648 
L 140.573996 264.069482 
L 142.256143 264.410497 
L 143.938291 264.428571 
L 145.620439 262.552987 
L 147.302587 264.229923 
L 148.984735 261.404142 
L 150.666883 263.993939 
L 152.349031 263.810907 
L 154.031179 264.375619 
L 155.713327 264.429522 
L 157.395475 264.312124 
L 159.077622 263.516105 
L 162.441918 263.34639 
L 164.124066 264.34732 
L 165.806214 263.88534 
L 169.17051 264.40368 
L 170.852658 264.213276 
L 172.534806 259.518174 
L 174.216954 264.368723 
L 175.899102 263.890651 
L 177.581249 264.316881 
L 179.263397 263.478294 
L 180.945545 262.212527 
L 182.627693 263.003711 
L 184.309841 263.330616 
L 185.991989 263.85062 
L 187.674137 263.630094 
L 189.356285 264.339789 
L 191.038433 262.12866 
L 192.720581 262.872837 
L 194.402728 262.636378 
L 196.084876 264.312996 
L 197.767024 264.30182 
L 199.449172 264.450607 
L 201.13132 264.375381 
L 202.813468 264.036982 
L 204.495616 264.266307 
L 206.177764 263.567868 
L 207.859912 264.125367 
L 209.54206 261.837822 
L 211.224207 262.013403 
L 212.906355 263.629143 
L 214.588503 263.098358 
L 216.270651 264.538279 
L 217.952799 263.423915 
L 219.634947 264.558651 
L 221.317095 263.826523 
L 222.999243 263.24128 
L 224.681391 264.401857 
L 226.363539 264.132897 
L 228.045687 263.573179 
L 229.727834 263.654588 
L 231.409982 262.444785 
L 233.09213 263.905633 
L 234.774278 263.992274 
L 236.456426 248.786896 
L 238.138574 256.455379 
L 239.820722 257.155641 
L 241.50287 254.598502 
L 243.185018 259.258489 
L 244.867166 260.381572 
L 246.549313 262.837721 
L 248.231461 264.319893 
L 249.913609 260.484542 
L 251.595757 264.20091 
L 253.277905 264.368881 
L 254.960053 264.214465 
L 256.642201 264.376253 
L 258.324349 263.984585 
L 260.006497 260.419541 
L 261.688645 263.010211 
L 263.370793 264.27796 
L 265.05294 264.415729 
L 266.735088 264.073128 
L 268.417236 259.071652 
L 270.099384 263.893822 
L 271.781532 262.863959 
L 273.46368 264.002975 
L 275.145828 259.356069 
L 276.827976 261.249646 
L 278.510124 261.759029 
L 280.192272 263.842139 
L 281.874419 264.225166 
L 283.556567 262.996576 
L 285.238715 263.334183 
L 286.920863 254.965914 
L 288.603011 263.217182 
L 290.285159 258.736978 
L 291.967307 264.303484 
L 293.649455 264.309588 
L 295.331603 264.437052 
L 297.013751 264.276691 
L 298.695898 262.150855 
L 300.378046 257.199239 
L 302.060194 259.889311 
L 303.742342 264.268923 
L 305.42449 263.704607 
L 307.106638 262.928088 
L 308.788786 264.009475 
L 310.470934 264.085732 
L 312.153082 262.211893 
L 313.83523 263.944079 
L 315.517378 261.958232 
L 317.199525 264.163812 
L 318.881673 264.043878 
L 320.563821 263.515709 
L 322.245969 262.752349 
L 323.928117 262.182722 
L 325.610265 263.598466 
L 327.292413 259.566211 
L 328.974561 263.586179 
L 330.656709 263.930127 
L 332.338857 263.059199 
L 334.021004 260.474871 
L 335.703152 263.746857 
L 337.3853 263.222097 
L 339.067448 258.171156 
L 340.749596 263.943127 
L 342.431744 264.246014 
L 344.113892 260.539 
L 345.79604 263.870438 
L 349.160336 264.376412 
L 350.842484 261.711785 
L 352.524631 263.827157 
L 354.206779 262.40412 
L 355.888927 264.382278 
L 357.571075 263.034625 
L 359.253223 258.222047 
L 360.935371 262.704312 
L 362.617519 263.918712 
L 364.299667 263.851096 
L 365.981815 264.427699 
L 367.663963 263.461093 
L 369.34611 262.798483 
L 371.028258 261.945707 
L 372.710406 263.854663 
L 374.392554 263.97975 
L 376.074702 263.042869 
L 377.75685 260.552317 
L 379.438998 264.070988 
L 381.121146 262.423937 
L 382.803294 261.458916 
L 384.485442 264.54137 
L 386.167589 263.805913 
L 389.531885 255.098531 
L 391.214033 259.645955 
L 392.896181 264.548029 
L 394.578329 262.762495 
L 396.260477 256.945419 
L 397.942625 263.051272 
L 399.624773 263.680509 
L 399.624773 263.680509 
" style="fill:none;stroke:#d62728;stroke-linecap:square;stroke-width:1.5;"/>
   </g>
   <g id="line2d_21">
    <path clip-path="url(#p749cf914ff)" d="M 74.970227 263.853236 
L 76.652375 264.112763 
L 78.334523 264.321875 
L 80.016671 263.186108 
L 81.698819 262.304558 
L 83.380967 261.900683 
L 85.063115 261.173707 
L 86.745263 259.696212 
L 88.427411 262.148081 
L 90.109558 263.241597 
L 95.156002 264.137653 
L 96.83815 262.844697 
L 98.520298 264.214941 
L 100.202446 263.686375 
L 101.884594 262.752111 
L 103.566742 263.645393 
L 105.24889 264.353107 
L 106.931037 264.349143 
L 108.613185 264.047921 
L 110.295333 264.264801 
L 111.977481 263.685662 
L 113.659629 258.915571 
L 115.341777 262.889484 
L 117.023925 264.207331 
L 118.706073 260.623025 
L 120.388221 264.311887 
L 122.070369 263.964926 
L 123.752516 262.831459 
L 125.434664 262.705976 
L 127.116812 233.891143 
L 128.79896 263.347659 
L 130.481108 263.558039 
L 132.163256 264.289057 
L 133.845404 263.794181 
L 135.527552 264.286283 
L 137.2097 263.534099 
L 138.891848 264.485644 
L 140.573996 264.446961 
L 142.256143 263.737345 
L 143.938291 264.291515 
L 145.620439 260.698331 
L 147.302587 263.378494 
L 148.984735 260.685727 
L 150.666883 263.535923 
L 152.349031 264.220172 
L 155.713327 264.447278 
L 157.395475 263.204816 
L 159.077622 263.806071 
L 160.75977 263.790931 
L 162.441918 263.014491 
L 164.124066 264.197343 
L 165.806214 264.062506 
L 169.17051 264.49365 
L 170.852658 264.452114 
L 172.534806 263.296213 
L 174.216954 264.49484 
L 175.899102 264.229843 
L 177.581249 264.236026 
L 179.263397 262.358461 
L 180.945545 263.471398 
L 184.309841 263.943603 
L 185.991989 263.514044 
L 187.674137 263.316347 
L 189.356285 264.363174 
L 191.038433 263.292884 
L 192.720581 263.168669 
L 194.402728 260.159698 
L 196.084876 264.259252 
L 199.449172 264.147245 
L 201.13132 263.724583 
L 202.813468 264.211374 
L 206.177764 263.598149 
L 207.859912 264.078677 
L 209.54206 263.316268 
L 211.224207 263.521496 
L 212.906355 263.923389 
L 214.588503 263.977292 
L 216.270651 264.17269 
L 217.952799 263.31278 
L 219.634947 264.445613 
L 221.317095 264.409784 
L 222.999243 263.762077 
L 224.681391 264.439034 
L 228.045687 263.589429 
L 231.409982 263.722205 
L 233.09213 263.995524 
L 234.774278 264.149465 
L 236.456426 263.066729 
L 238.138574 257.42468 
L 239.820722 255.281246 
L 241.50287 252.410599 
L 243.185018 261.491734 
L 244.867166 262.404278 
L 246.549313 262.146971 
L 248.231461 264.423497 
L 249.913609 263.395537 
L 251.595757 264.388143 
L 253.277905 264.147324 
L 254.960053 263.389751 
L 256.642201 264.149306 
L 258.324349 263.916889 
L 260.006497 252.146158 
L 261.688645 260.028587 
L 263.370793 264.323064 
L 266.735088 263.572545 
L 268.417236 258.079204 
L 270.099384 263.492404 
L 271.781532 261.751102 
L 273.46368 261.492764 
L 275.145828 260.552713 
L 278.510124 255.531419 
L 280.192272 263.319756 
L 281.874419 264.26813 
L 283.556567 264.27249 
L 285.238715 262.56131 
L 286.920863 255.869898 
L 288.603011 263.415989 
L 290.285159 240.696941 
L 291.967307 264.369277 
L 293.649455 264.082165 
L 295.331603 264.498803 
L 297.013751 263.984744 
L 298.695898 263.708967 
L 300.378046 258.488549 
L 302.060194 259.412033 
L 303.742342 263.429544 
L 305.42449 263.587844 
L 307.106638 261.852328 
L 308.788786 263.634375 
L 310.470934 263.96992 
L 312.153082 261.643296 
L 313.83523 264.264008 
L 315.517378 258.739356 
L 317.199525 263.676625 
L 318.881673 263.983079 
L 320.563821 260.994559 
L 322.245969 260.991229 
L 325.610265 264.114428 
L 327.292413 247.420061 
L 328.974561 263.607899 
L 330.656709 263.788632 
L 332.338857 262.759879 
L 334.021004 261.414526 
L 335.703152 264.182203 
L 337.3853 263.977609 
L 339.067448 262.661903 
L 340.749596 263.577697 
L 342.431744 264.122037 
L 344.113892 263.890731 
L 345.79604 263.924024 
L 347.478188 263.29114 
L 349.160336 263.489867 
L 350.842484 262.722306 
L 352.524631 264.177684 
L 354.206779 262.916752 
L 355.888927 264.502925 
L 357.571075 262.138172 
L 359.253223 263.600051 
L 360.935371 262.949887 
L 362.617519 263.237871 
L 364.299667 264.158026 
L 365.981815 264.392979 
L 367.663963 262.513828 
L 369.34611 263.679796 
L 371.028258 262.90296 
L 372.710406 264.030323 
L 374.392554 263.896596 
L 377.75685 260.364132 
L 379.438998 263.818596 
L 381.121146 262.639628 
L 382.803294 260.653068 
L 384.485442 263.877493 
L 386.167589 264.39068 
L 387.849737 262.890514 
L 389.531885 258.660008 
L 391.214033 256.258157 
L 392.896181 264.547078 
L 394.578329 263.148931 
L 396.260477 263.857675 
L 399.624773 263.148139 
L 399.624773 263.148139 
" style="fill:none;stroke:#9467bd;stroke-linecap:square;stroke-width:1.5;"/>
   </g>
   <g id="line2d_22">
    <path clip-path="url(#p749cf914ff)" d="M 74.970227 263.972457 
L 76.652375 263.209097 
L 78.334523 264.391156 
L 80.016671 263.828663 
L 81.698819 262.526036 
L 83.380967 261.996757 
L 85.063115 262.882112 
L 86.745263 262.321601 
L 88.427411 262.47356 
L 90.109558 263.089638 
L 91.791706 262.944893 
L 93.473854 263.417495 
L 95.156002 263.627557 
L 96.83815 262.729519 
L 98.520298 264.205032 
L 100.202446 262.357034 
L 101.884594 262.125093 
L 103.566742 263.19134 
L 105.24889 264.423022 
L 106.931037 264.230477 
L 108.613185 263.311195 
L 110.295333 264.103092 
L 111.977481 263.732827 
L 113.659629 260.223589 
L 115.341777 262.975966 
L 117.023925 264.240307 
L 118.706073 262.245423 
L 120.388221 264.187434 
L 122.070369 263.441434 
L 123.752516 262.100044 
L 125.434664 263.791486 
L 127.116812 256.143376 
L 128.79896 264.22588 
L 130.481108 264.121086 
L 132.163256 264.382595 
L 133.845404 263.466641 
L 135.527552 264.236106 
L 137.2097 263.119523 
L 138.891848 264.289533 
L 140.573996 264.283191 
L 142.256143 263.645552 
L 143.938291 264.325362 
L 145.620439 261.844084 
L 147.302587 263.555502 
L 148.984735 263.46133 
L 152.349031 263.618204 
L 154.031179 264.155965 
L 155.713327 264.346527 
L 157.395475 263.868932 
L 159.077622 264.033335 
L 160.75977 263.957713 
L 162.441918 263.11984 
L 164.124066 264.341216 
L 165.806214 263.739802 
L 169.17051 264.449973 
L 170.852658 264.364283 
L 172.534806 262.764794 
L 174.216954 264.335033 
L 175.899102 263.826206 
L 177.581249 263.8702 
L 179.263397 263.31286 
L 180.945545 263.212267 
L 182.627693 263.357884 
L 184.309841 263.955335 
L 185.991989 263.973329 
L 187.674137 261.715748 
L 189.356285 264.218983 
L 191.038433 262.662061 
L 192.720581 262.864673 
L 194.402728 263.425897 
L 196.084876 264.178873 
L 197.767024 264.387509 
L 199.449172 263.960804 
L 201.13132 263.349957 
L 202.813468 264.227307 
L 204.495616 263.509685 
L 206.177764 262.567097 
L 207.859912 263.572703 
L 209.54206 261.148499 
L 211.224207 263.932743 
L 212.906355 264.066391 
L 214.588503 263.064114 
L 216.270651 264.171501 
L 217.952799 263.890413 
L 219.634947 264.457821 
L 221.317095 263.106681 
L 222.999243 263.137913 
L 224.681391 264.36032 
L 226.363539 264.16294 
L 228.045687 264.096751 
L 229.727834 262.763129 
L 231.409982 263.37136 
L 233.09213 261.934927 
L 234.774278 264.23127 
L 236.456426 262.451206 
L 238.138574 261.817846 
L 239.820722 248.4091 
L 241.50287 242.303327 
L 243.185018 262.743074 
L 244.867166 262.332302 
L 246.549313 259.136414 
L 248.231461 264.417077 
L 249.913609 262.997052 
L 251.595757 264.108165 
L 253.277905 264.184264 
L 254.960053 263.959853 
L 256.642201 264.352948 
L 258.324349 264.259886 
L 260.006497 251.282998 
L 261.688645 260.768404 
L 263.370793 264.269874 
L 265.05294 264.4384 
L 266.735088 262.809105 
L 268.417236 260.777996 
L 270.099384 262.516761 
L 271.781532 260.19521 
L 273.46368 259.873061 
L 275.145828 261.291897 
L 276.827976 259.3418 
L 278.510124 260.200442 
L 280.192272 263.660613 
L 281.874419 264.475339 
L 283.556567 263.623277 
L 285.238715 263.476154 
L 286.920863 254.32336 
L 288.603011 263.242072 
L 290.285159 245.627948 
L 291.967307 264.082165 
L 293.649455 264.383467 
L 295.331603 264.503797 
L 297.013751 264.100793 
L 300.378046 262.562579 
L 302.060194 259.720151 
L 303.742342 263.817803 
L 305.42449 264.218983 
L 307.106638 262.412126 
L 308.788786 264.206776 
L 310.470934 264.311253 
L 312.153082 262.937917 
L 313.83523 264.385211 
L 315.517378 263.549398 
L 317.199525 263.859974 
L 318.881673 263.604094 
L 320.563821 262.818935 
L 322.245969 261.105535 
L 323.928117 261.425941 
L 325.610265 264.389491 
L 327.292413 257.183147 
L 328.974561 262.877197 
L 330.656709 264.107373 
L 332.338857 263.371915 
L 334.021004 261.919628 
L 335.703152 263.988707 
L 337.3853 263.261573 
L 339.067448 260.935979 
L 340.749596 263.443812 
L 342.431744 264.047921 
L 344.113892 263.057613 
L 345.79604 264.216209 
L 347.478188 263.500252 
L 349.160336 264.2476 
L 350.842484 263.487648 
L 352.524631 264.405424 
L 354.206779 262.473242 
L 355.888927 264.495553 
L 357.571075 263.189359 
L 359.253223 260.580775 
L 360.935371 263.968652 
L 362.617519 263.094394 
L 364.299667 263.651259 
L 365.981815 264.415016 
L 367.663963 262.054147 
L 369.34611 263.728705 
L 371.028258 263.101528 
L 372.710406 264.166587 
L 374.392554 263.726089 
L 376.074702 263.137358 
L 377.75685 261.114176 
L 379.438998 264.293021 
L 382.803294 262.83891 
L 384.485442 264.455046 
L 386.167589 264.257033 
L 389.531885 260.435871 
L 391.214033 261.574887 
L 392.896181 264.546523 
L 394.578329 261.788755 
L 396.260477 263.593551 
L 397.942625 263.456019 
L 399.624773 262.223307 
L 399.624773 262.223307 
" style="fill:none;stroke:#8c564b;stroke-linecap:square;stroke-width:1.5;"/>
   </g>
   <g id="line2d_23">
    <path clip-path="url(#p749cf914ff)" d="M 74.970227 263.837383 
L 76.652375 263.995603 
L 78.334523 264.40582 
L 80.016671 263.923786 
L 81.698819 263.959695 
L 83.380967 263.15773 
L 85.063115 263.601716 
L 86.745263 263.135059 
L 88.427411 263.342744 
L 90.109558 263.923389 
L 91.791706 263.229389 
L 93.473854 263.576588 
L 95.156002 264.176257 
L 96.83815 263.973884 
L 98.520298 264.409705 
L 101.884594 263.255548 
L 105.24889 264.376887 
L 106.931037 264.227941 
L 108.613185 263.851255 
L 110.295333 263.804486 
L 111.977481 264.044909 
L 113.659629 261.779877 
L 115.341777 263.548843 
L 117.023925 264.321082 
L 118.706073 262.965899 
L 120.388221 264.524565 
L 123.752516 263.756211 
L 125.434664 264.03722 
L 127.116812 262.05058 
L 128.79896 264.358101 
L 130.481108 264.013597 
L 132.163256 264.472882 
L 133.845404 263.894377 
L 135.527552 264.387747 
L 137.2097 263.537984 
L 138.891848 264.415967 
L 140.573996 264.384101 
L 142.256143 263.971189 
L 143.938291 264.426827 
L 145.620439 263.706906 
L 147.302587 263.815584 
L 148.984735 263.534258 
L 150.666883 264.222471 
L 152.349031 263.921725 
L 154.031179 264.524486 
L 155.713327 264.477876 
L 157.395475 263.504849 
L 159.077622 264.459486 
L 160.75977 264.412241 
L 162.441918 263.548843 
L 164.124066 264.518224 
L 167.488362 263.613051 
L 169.17051 264.486278 
L 170.852658 264.36793 
L 172.534806 263.718875 
L 174.216954 264.492065 
L 175.899102 263.832389 
L 177.581249 264.305149 
L 179.263397 263.912688 
L 182.627693 263.730132 
L 184.309841 263.838413 
L 185.991989 263.74226 
L 187.674137 263.0829 
L 189.356285 264.340978 
L 191.038433 263.918078 
L 192.720581 263.980146 
L 194.402728 263.919902 
L 196.084876 264.36571 
L 199.449172 264.424211 
L 201.13132 263.85498 
L 202.813468 263.589984 
L 204.495616 263.99267 
L 207.859912 264.225721 
L 209.54206 263.891365 
L 211.224207 263.876779 
L 212.906355 264.46337 
L 214.588503 264.188306 
L 219.634947 264.556432 
L 221.317095 263.988786 
L 222.999243 263.654667 
L 224.681391 264.359527 
L 226.363539 264.445851 
L 228.045687 264.357149 
L 229.727834 263.005058 
L 231.409982 262.326912 
L 233.09213 262.914771 
L 234.774278 264.346131 
L 236.456426 263.304774 
L 238.138574 263.415354 
L 239.820722 253.936765 
L 241.50287 254.04901 
L 243.185018 263.062053 
L 244.867166 264.21391 
L 246.549313 263.897468 
L 248.231461 264.498565 
L 249.913609 264.119263 
L 251.595757 264.428016 
L 254.960053 264.417869 
L 256.642201 264.470108 
L 258.324349 264.289295 
L 260.006497 253.040153 
L 261.688645 261.866835 
L 263.370793 264.529401 
L 265.05294 264.347875 
L 266.735088 263.467593 
L 268.417236 261.636162 
L 270.099384 264.090251 
L 271.781532 262.392309 
L 273.46368 261.806511 
L 275.145828 263.288683 
L 276.827976 263.983 
L 280.192272 263.735522 
L 281.874419 264.478352 
L 283.556567 264.346765 
L 285.238715 264.07725 
L 286.920863 255.719366 
L 288.603011 264.418186 
L 290.285159 254.511782 
L 291.967307 264.442363 
L 295.331603 264.547633 
L 298.695898 263.947408 
L 302.060194 263.439056 
L 303.742342 263.158364 
L 305.42449 264.166983 
L 307.106638 263.366842 
L 308.788786 263.629698 
L 310.470934 264.223898 
L 312.153082 262.602292 
L 313.83523 264.468364 
L 315.517378 263.446666 
L 317.199525 263.858072 
L 318.881673 263.716497 
L 320.563821 263.454593 
L 322.245969 263.011796 
L 323.928117 263.248097 
L 325.610265 264.436894 
L 327.292413 263.156145 
L 328.974561 264.271935 
L 330.656709 264.158184 
L 332.338857 261.270336 
L 334.021004 262.2046 
L 335.703152 264.383863 
L 339.067448 264.203922 
L 340.749596 263.263634 
L 342.431744 264.059494 
L 344.113892 262.458419 
L 345.79604 264.177129 
L 347.478188 262.647 
L 349.160336 264.150574 
L 350.842484 264.082958 
L 352.524631 264.283667 
L 354.206779 262.528176 
L 355.888927 264.523218 
L 357.571075 263.302 
L 360.935371 264.140903 
L 364.299667 263.696522 
L 365.981815 264.325997 
L 367.663963 263.507861 
L 369.34611 263.85395 
L 371.028258 263.573813 
L 372.710406 263.887877 
L 374.392554 263.441196 
L 376.074702 263.944871 
L 377.75685 263.318884 
L 379.438998 264.438004 
L 381.121146 264.243398 
L 382.803294 262.983338 
L 384.485442 264.420089 
L 386.167589 264.3126 
L 387.849737 263.308658 
L 389.531885 261.921689 
L 391.214033 262.839941 
L 392.896181 264.553657 
L 394.578329 263.955969 
L 396.260477 263.799968 
L 397.942625 262.719452 
L 399.624773 263.768736 
L 399.624773 263.768736 
" style="fill:none;stroke:#e377c2;stroke-linecap:square;stroke-width:1.5;"/>
   </g>
   <g id="line2d_24">
    <path clip-path="url(#p749cf914ff)" d="M 74.970227 264.278752 
L 76.652375 264.357625 
L 78.334523 264.550645 
L 80.016671 264.016213 
L 81.698819 264.134166 
L 85.063115 263.964292 
L 86.745263 263.707302 
L 88.427411 264.014469 
L 91.791706 264.006463 
L 93.473854 264.295161 
L 95.156002 264.449022 
L 96.83815 264.091836 
L 98.520298 264.486278 
L 100.202446 263.913401 
L 101.884594 263.752565 
L 103.566742 262.85199 
L 105.24889 264.365948 
L 106.931037 264.402808 
L 108.613185 264.293972 
L 110.295333 264.363174 
L 111.977481 264.273838 
L 113.659629 262.312009 
L 115.341777 264.067183 
L 117.023925 264.456711 
L 118.706073 263.8962 
L 120.388221 264.555322 
L 123.752516 264.201386 
L 125.434664 264.428571 
L 127.116812 259.843969 
L 128.79896 264.471297 
L 130.481108 264.417235 
L 132.163256 264.539468 
L 133.845404 264.373479 
L 135.527552 264.527181 
L 137.2097 264.424132 
L 140.573996 264.508236 
L 142.256143 264.362064 
L 143.938291 264.529322 
L 145.620439 264.329564 
L 147.302587 264.380613 
L 148.984735 264.26702 
L 154.031179 264.447516 
L 155.713327 264.517273 
L 157.395475 264.219221 
L 159.077622 264.505541 
L 160.75977 264.475736 
L 162.441918 264.316564 
L 164.124066 264.45465 
L 165.806214 264.251325 
L 167.488362 264.516401 
L 170.852658 264.500547 
L 172.534806 264.360082 
L 174.216954 264.498248 
L 182.627693 264.093421 
L 184.309841 264.246728 
L 185.991989 264.040549 
L 187.674137 263.339098 
L 189.356285 264.448546 
L 191.038433 263.941383 
L 192.720581 263.291853 
L 194.402728 264.035476 
L 196.084876 264.49484 
L 199.449172 264.414857 
L 201.13132 263.787522 
L 202.813468 264.389412 
L 204.495616 264.350728 
L 207.859912 264.462577 
L 209.54206 264.034762 
L 211.224207 264.42976 
L 212.906355 264.526547 
L 214.588503 264.14019 
L 216.270651 264.511724 
L 217.952799 264.276771 
L 219.634947 264.558889 
L 221.317095 264.332576 
L 228.045687 264.378552 
L 229.727834 264.35485 
L 231.409982 263.633661 
L 233.09213 264.139952 
L 234.774278 264.434754 
L 236.456426 263.774126 
L 238.138574 264.20638 
L 239.820722 261.670406 
L 241.50287 257.130037 
L 243.185018 263.164785 
L 244.867166 264.415174 
L 246.549313 264.374906 
L 248.231461 264.493571 
L 251.595757 264.432455 
L 258.324349 264.541053 
L 260.006497 260.427072 
L 261.688645 263.831279 
L 263.370793 264.563883 
L 266.735088 264.496504 
L 268.417236 262.864514 
L 270.099384 264.2996 
L 271.781532 263.251426 
L 273.46368 261.976939 
L 275.145828 263.463708 
L 276.827976 264.378473 
L 278.510124 264.217557 
L 281.874419 264.538517 
L 283.556567 264.516321 
L 285.238715 264.326314 
L 286.920863 260.280266 
L 288.603011 264.515529 
L 290.285159 241.35099 
L 291.967307 264.518462 
L 295.331603 264.540895 
L 297.013751 264.402174 
L 298.695898 264.393058 
L 300.378046 263.78665 
L 302.060194 264.183312 
L 305.42449 264.50459 
L 307.106638 263.898657 
L 308.788786 264.463132 
L 312.153082 264.427461 
L 313.83523 264.49048 
L 315.517378 264.11205 
L 317.199525 264.362777 
L 318.881673 264.451004 
L 320.563821 264.26702 
L 322.245969 264.454967 
L 323.928117 263.901749 
L 325.610265 264.503797 
L 327.292413 263.944158 
L 330.656709 264.499041 
L 334.021004 264.087318 
L 335.703152 264.539706 
L 339.067448 264.214227 
L 340.749596 264.51973 
L 342.431744 264.465272 
L 344.113892 263.834767 
L 345.79604 264.526706 
L 347.478188 263.995762 
L 349.160336 264.475973 
L 350.842484 264.384893 
L 352.524631 264.41993 
L 354.206779 264.10658 
L 355.888927 264.533285 
L 359.253223 263.958743 
L 360.935371 264.460437 
L 362.617519 264.164763 
L 364.299667 264.512437 
L 365.981815 264.55445 
L 367.663963 264.449894 
L 369.34611 264.467492 
L 371.028258 264.141379 
L 372.710406 264.374985 
L 376.074702 264.424845 
L 377.75685 264.065598 
L 379.438998 264.551121 
L 382.803294 264.326948 
L 384.485442 264.491669 
L 387.849737 264.390918 
L 389.531885 263.593947 
L 392.896181 264.55984 
L 394.578329 264.369991 
L 396.260477 264.016293 
L 397.942625 264.309271 
L 399.624773 264.1153 
L 399.624773 264.1153 
" style="fill:none;stroke:#7f7f7f;stroke-linecap:square;stroke-width:1.5;"/>
   </g>
   <g id="line2d_25">
    <path clip-path="url(#p749cf914ff)" d="M 74.970227 264.571096 
L 125.434664 264.566102 
L 399.624773 264.568797 
L 399.624773 264.568797 
" style="fill:none;stroke:#bcbd22;stroke-linecap:square;stroke-width:1.5;"/>
   </g>
   <g id="line2d_26">
    <path clip-path="url(#p749cf914ff)" d="M 74.970227 264.571096 
L 117.023925 264.569432 
L 399.624773 264.568401 
L 399.624773 264.568401 
" style="fill:none;stroke:#17becf;stroke-linecap:square;stroke-width:1.5;"/>
   </g>
   <g id="line2d_27">
    <path clip-path="url(#p749cf914ff)" d="M 74.970227 264.559682 
L 91.791706 264.570779 
L 125.434664 264.564675 
L 127.116812 264.716 
L 130.481108 264.530193 
L 135.527552 264.567608 
L 234.774278 264.567688 
L 239.820722 264.566657 
L 241.50287 264.408833 
L 243.185018 264.566736 
L 244.867166 264.582194 
L 246.549313 264.479144 
L 249.913609 264.587426 
L 253.277905 264.546761 
L 399.624773 264.570938 
L 399.624773 264.570938 
" style="fill:none;stroke:#1f77b4;stroke-linecap:square;stroke-width:1.5;"/>
   </g>
   <g id="line2d_28">
    <path clip-path="url(#p749cf914ff)" d="M 74.970227 264.571096 
L 399.624773 264.571096 
L 399.624773 264.571096 
" style="fill:none;stroke:#ff7f0e;stroke-linecap:square;stroke-width:1.5;"/>
   </g>
   <g id="patch_3">
    <path d="M 58.7375 276.812 
L 58.7375 10.7 
" style="fill:none;stroke:#000000;stroke-linecap:square;stroke-linejoin:miter;stroke-width:0.8;"/>
   </g>
   <g id="patch_4">
    <path d="M 415.8575 276.812 
L 415.8575 10.7 
" style="fill:none;stroke:#000000;stroke-linecap:square;stroke-linejoin:miter;stroke-width:0.8;"/>
   </g>
   <g id="patch_5">
    <path d="M 58.7375 276.812 
L 415.8575 276.812 
" style="fill:none;stroke:#000000;stroke-linecap:square;stroke-linejoin:miter;stroke-width:0.8;"/>
   </g>
   <g id="patch_6">
    <path d="M 58.7375 10.7 
L 415.8575 10.7 
" style="fill:none;stroke:#000000;stroke-linecap:square;stroke-linejoin:miter;stroke-width:0.8;"/>
   </g>
   <g id="legend_1">
    <g id="patch_7">
     <path d="M 65.7375 165.48125 
L 156.090625 165.48125 
Q 158.090625 165.48125 158.090625 163.48125 
L 158.090625 17.7 
Q 158.090625 15.7 156.090625 15.7 
L 65.7375 15.7 
Q 63.7375 15.7 63.7375 17.7 
L 63.7375 163.48125 
Q 63.7375 165.48125 65.7375 165.48125 
z
" style="fill:#ffffff;opacity:0.8;stroke:#cccccc;stroke-linejoin:miter;"/>
    </g>
    <g id="line2d_29">
     <path d="M 67.7375 23.798437 
L 87.7375 23.798437 
" style="fill:none;stroke:#1f77b4;stroke-linecap:square;stroke-width:1.5;"/>
    </g>
    <g id="line2d_30"/>
    <g id="text_17">
     <!-- delta -->
     <defs>
      <path d="M 45.40625 46.390625 
L 45.40625 75.984375 
L 54.390625 75.984375 
L 54.390625 0 
L 45.40625 0 
L 45.40625 8.203125 
Q 42.578125 3.328125 38.25 0.953125 
Q 33.9375 -1.421875 27.875 -1.421875 
Q 17.96875 -1.421875 11.734375 6.484375 
Q 5.515625 14.40625 5.515625 27.296875 
Q 5.515625 40.1875 11.734375 48.09375 
Q 17.96875 56 27.875 56 
Q 33.9375 56 38.25 53.625 
Q 42.578125 51.265625 45.40625 46.390625 
M 14.796875 27.296875 
Q 14.796875 17.390625 18.875 11.75 
Q 22.953125 6.109375 30.078125 6.109375 
Q 37.203125 6.109375 41.296875 11.75 
Q 45.40625 17.390625 45.40625 27.296875 
Q 45.40625 37.203125 41.296875 42.84375 
Q 37.203125 48.484375 30.078125 48.484375 
Q 22.953125 48.484375 18.875 42.84375 
Q 14.796875 37.203125 14.796875 27.296875 
" id="DejaVuSans-64"/>
      <path d="M 56.203125 29.59375 
L 56.203125 25.203125 
L 14.890625 25.203125 
Q 15.484375 15.921875 20.484375 11.0625 
Q 25.484375 6.203125 34.421875 6.203125 
Q 39.59375 6.203125 44.453125 7.46875 
Q 49.3125 8.734375 54.109375 11.28125 
L 54.109375 2.78125 
Q 49.265625 0.734375 44.1875 -0.34375 
Q 39.109375 -1.421875 33.890625 -1.421875 
Q 20.796875 -1.421875 13.15625 6.1875 
Q 5.515625 13.8125 5.515625 26.8125 
Q 5.515625 40.234375 12.765625 48.109375 
Q 20.015625 56 32.328125 56 
Q 43.359375 56 49.78125 48.890625 
Q 56.203125 41.796875 56.203125 29.59375 
M 47.21875 32.234375 
Q 47.125 39.59375 43.09375 43.984375 
Q 39.0625 48.390625 32.421875 48.390625 
Q 24.90625 48.390625 20.390625 44.140625 
Q 15.875 39.890625 15.1875 32.171875 
z
" id="DejaVuSans-65"/>
      <path d="M 9.421875 75.984375 
L 18.40625 75.984375 
L 18.40625 0 
L 9.421875 0 
z
" id="DejaVuSans-6c"/>
      <path d="M 18.3125 70.21875 
L 18.3125 54.6875 
L 36.8125 54.6875 
L 36.8125 47.703125 
L 18.3125 47.703125 
L 18.3125 18.015625 
Q 18.3125 11.328125 20.140625 9.421875 
Q 21.96875 7.515625 27.59375 7.515625 
L 36.8125 7.515625 
L 36.8125 0 
L 27.59375 0 
Q 17.1875 0 13.234375 3.875 
Q 9.28125 7.765625 9.28125 18.015625 
L 9.28125 47.703125 
L 2.6875 47.703125 
L 2.6875 54.6875 
L 9.28125 54.6875 
L 9.28125 70.21875 
z
" id="DejaVuSans-74"/>
      <path d="M 34.28125 27.484375 
Q 23.390625 27.484375 19.1875 25 
Q 14.984375 22.515625 14.984375 16.5 
Q 14.984375 11.71875 18.140625 8.90625 
Q 21.296875 6.109375 26.703125 6.109375 
Q 34.1875 6.109375 38.703125 11.40625 
Q 43.21875 16.703125 43.21875 25.484375 
L 43.21875 27.484375 
z
M 52.203125 31.203125 
L 52.203125 0 
L 43.21875 0 
L 43.21875 8.296875 
Q 40.140625 3.328125 35.546875 0.953125 
Q 30.953125 -1.421875 24.3125 -1.421875 
Q 15.921875 -1.421875 10.953125 3.296875 
Q 6 8.015625 6 15.921875 
Q 6 25.140625 12.171875 29.828125 
Q 18.359375 34.515625 30.609375 34.515625 
L 43.21875 34.515625 
L 43.21875 35.40625 
Q 43.21875 41.609375 39.140625 45 
Q 35.0625 48.390625 27.6875 48.390625 
Q 23 48.390625 18.546875 47.265625 
Q 14.109375 46.140625 10.015625 43.890625 
L 10.015625 52.203125 
Q 14.9375 54.109375 19.578125 55.046875 
Q 24.21875 56 28.609375 56 
Q 40.484375 56 46.34375 49.84375 
Q 52.203125 43.703125 52.203125 31.203125 
" id="DejaVuSans-61"/>
     </defs>
     <g transform="translate(95.7375 27.298437)scale(0.1 -0.1)">
      <use xlink:href="#DejaVuSans-64"/>
      <use x="63.476562" xlink:href="#DejaVuSans-65"/>
      <use x="125" xlink:href="#DejaVuSans-6c"/>
      <use x="152.783203" xlink:href="#DejaVuSans-74"/>
      <use x="191.992188" xlink:href="#DejaVuSans-61"/>
     </g>
    </g>
    <g id="line2d_31">
     <path d="M 67.7375 38.476562 
L 87.7375 38.476562 
" style="fill:none;stroke:#ff7f0e;stroke-linecap:square;stroke-width:1.5;"/>
    </g>
    <g id="line2d_32"/>
    <g id="text_18">
     <!-- lowAlpha -->
     <defs>
      <path d="M 30.609375 48.390625 
Q 23.390625 48.390625 19.1875 42.75 
Q 14.984375 37.109375 14.984375 27.296875 
Q 14.984375 17.484375 19.15625 11.84375 
Q 23.34375 6.203125 30.609375 6.203125 
Q 37.796875 6.203125 41.984375 11.859375 
Q 46.1875 17.53125 46.1875 27.296875 
Q 46.1875 37.015625 41.984375 42.703125 
Q 37.796875 48.390625 30.609375 48.390625 
M 30.609375 56 
Q 42.328125 56 49.015625 48.375 
Q 55.71875 40.765625 55.71875 27.296875 
Q 55.71875 13.875 49.015625 6.21875 
Q 42.328125 -1.421875 30.609375 -1.421875 
Q 18.84375 -1.421875 12.171875 6.21875 
Q 5.515625 13.875 5.515625 27.296875 
Q 5.515625 40.765625 12.171875 48.375 
Q 18.84375 56 30.609375 56 
" id="DejaVuSans-6f"/>
      <path d="M 4.203125 54.6875 
L 13.1875 54.6875 
L 24.421875 12.015625 
L 35.59375 54.6875 
L 46.1875 54.6875 
L 57.421875 12.015625 
L 68.609375 54.6875 
L 77.59375 54.6875 
L 63.28125 0 
L 52.6875 0 
L 40.921875 44.828125 
L 29.109375 0 
L 18.5 0 
z
" id="DejaVuSans-77"/>
      <path d="M 34.1875 63.1875 
L 20.796875 26.90625 
L 47.609375 26.90625 
z
M 28.609375 72.90625 
L 39.796875 72.90625 
L 67.578125 0 
L 57.328125 0 
L 50.6875 18.703125 
L 17.828125 18.703125 
L 11.1875 0 
L 0.78125 0 
z
" id="DejaVuSans-41"/>
      <path d="M 18.109375 8.203125 
L 18.109375 -20.796875 
L 9.078125 -20.796875 
L 9.078125 54.6875 
L 18.109375 54.6875 
L 18.109375 46.390625 
Q 20.953125 51.265625 25.265625 53.625 
Q 29.59375 56 35.59375 56 
Q 45.5625 56 51.78125 48.09375 
Q 58.015625 40.1875 58.015625 27.296875 
Q 58.015625 14.40625 51.78125 6.484375 
Q 45.5625 -1.421875 35.59375 -1.421875 
Q 29.59375 -1.421875 25.265625 0.953125 
Q 20.953125 3.328125 18.109375 8.203125 
M 48.6875 27.296875 
Q 48.6875 37.203125 44.609375 42.84375 
Q 40.53125 48.484375 33.40625 48.484375 
Q 26.265625 48.484375 22.1875 42.84375 
Q 18.109375 37.203125 18.109375 27.296875 
Q 18.109375 17.390625 22.1875 11.75 
Q 26.265625 6.109375 33.40625 6.109375 
Q 40.53125 6.109375 44.609375 11.75 
Q 48.6875 17.390625 48.6875 27.296875 
" id="DejaVuSans-70"/>
      <path d="M 54.890625 33.015625 
L 54.890625 0 
L 45.90625 0 
L 45.90625 32.71875 
Q 45.90625 40.484375 42.875 44.328125 
Q 39.84375 48.1875 33.796875 48.1875 
Q 26.515625 48.1875 22.3125 43.546875 
Q 18.109375 38.921875 18.109375 30.90625 
L 18.109375 0 
L 9.078125 0 
L 9.078125 75.984375 
L 18.109375 75.984375 
L 18.109375 46.1875 
Q 21.34375 51.125 25.703125 53.5625 
Q 30.078125 56 35.796875 56 
Q 45.21875 56 50.046875 50.171875 
Q 54.890625 44.34375 54.890625 33.015625 
" id="DejaVuSans-68"/>
     </defs>
     <g transform="translate(95.7375 41.976562)scale(0.1 -0.1)">
      <use xlink:href="#DejaVuSans-6c"/>
      <use x="27.783203" xlink:href="#DejaVuSans-6f"/>
      <use x="88.964844" xlink:href="#DejaVuSans-77"/>
      <use x="170.751953" xlink:href="#DejaVuSans-41"/>
      <use x="239.160156" xlink:href="#DejaVuSans-6c"/>
      <use x="266.943359" xlink:href="#DejaVuSans-70"/>
      <use x="330.419922" xlink:href="#DejaVuSans-68"/>
      <use x="393.798828" xlink:href="#DejaVuSans-61"/>
     </g>
    </g>
    <g id="line2d_33">
     <path d="M 67.7375 53.154687 
L 87.7375 53.154687 
" style="fill:none;stroke:#2ca02c;stroke-linecap:square;stroke-width:1.5;"/>
    </g>
    <g id="line2d_34"/>
    <g id="text_19">
     <!-- highAlpha -->
     <defs>
      <path d="M 9.421875 54.6875 
L 18.40625 54.6875 
L 18.40625 0 
L 9.421875 0 
z
M 9.421875 75.984375 
L 18.40625 75.984375 
L 18.40625 64.59375 
L 9.421875 64.59375 
z
" id="DejaVuSans-69"/>
      <path d="M 45.40625 27.984375 
Q 45.40625 37.75 41.375 43.109375 
Q 37.359375 48.484375 30.078125 48.484375 
Q 22.859375 48.484375 18.828125 43.109375 
Q 14.796875 37.75 14.796875 27.984375 
Q 14.796875 18.265625 18.828125 12.890625 
Q 22.859375 7.515625 30.078125 7.515625 
Q 37.359375 7.515625 41.375 12.890625 
Q 45.40625 18.265625 45.40625 27.984375 
M 54.390625 6.78125 
Q 54.390625 -7.171875 48.1875 -13.984375 
Q 42 -20.796875 29.203125 -20.796875 
Q 24.46875 -20.796875 20.265625 -20.09375 
Q 16.0625 -19.390625 12.109375 -17.921875 
L 12.109375 -9.1875 
Q 16.0625 -11.328125 19.921875 -12.34375 
Q 23.78125 -13.375 27.78125 -13.375 
Q 36.625 -13.375 41.015625 -8.765625 
Q 45.40625 -4.15625 45.40625 5.171875 
L 45.40625 9.625 
Q 42.625 4.78125 38.28125 2.390625 
Q 33.9375 0 27.875 0 
Q 17.828125 0 11.671875 7.65625 
Q 5.515625 15.328125 5.515625 27.984375 
Q 5.515625 40.671875 11.671875 48.328125 
Q 17.828125 56 27.875 56 
Q 33.9375 56 38.28125 53.609375 
Q 42.625 51.21875 45.40625 46.390625 
L 45.40625 54.6875 
L 54.390625 54.6875 
z
" id="DejaVuSans-67"/>
     </defs>
     <g transform="translate(95.7375 56.654687)scale(0.1 -0.1)">
      <use xlink:href="#DejaVuSans-68"/>
      <use x="63.378906" xlink:href="#DejaVuSans-69"/>
      <use x="91.162109" xlink:href="#DejaVuSans-67"/>
      <use x="154.638672" xlink:href="#DejaVuSans-68"/>
      <use x="218.017578" xlink:href="#DejaVuSans-41"/>
      <use x="286.425781" xlink:href="#DejaVuSans-6c"/>
      <use x="314.208984" xlink:href="#DejaVuSans-70"/>
      <use x="377.685547" xlink:href="#DejaVuSans-68"/>
      <use x="441.064453" xlink:href="#DejaVuSans-61"/>
     </g>
    </g>
    <g id="line2d_35">
     <path d="M 67.7375 67.832812 
L 87.7375 67.832812 
" style="fill:none;stroke:#d62728;stroke-linecap:square;stroke-width:1.5;"/>
    </g>
    <g id="line2d_36"/>
    <g id="text_20">
     <!-- lowBeta -->
     <defs>
      <path d="M 19.671875 34.8125 
L 19.671875 8.109375 
L 35.5 8.109375 
Q 43.453125 8.109375 47.28125 11.40625 
Q 51.125 14.703125 51.125 21.484375 
Q 51.125 28.328125 47.28125 31.5625 
Q 43.453125 34.8125 35.5 34.8125 
z
M 19.671875 64.796875 
L 19.671875 42.828125 
L 34.28125 42.828125 
Q 41.5 42.828125 45.03125 45.53125 
Q 48.578125 48.25 48.578125 53.8125 
Q 48.578125 59.328125 45.03125 62.0625 
Q 41.5 64.796875 34.28125 64.796875 
z
M 9.8125 72.90625 
L 35.015625 72.90625 
Q 46.296875 72.90625 52.390625 68.21875 
Q 58.5 63.53125 58.5 54.890625 
Q 58.5 48.1875 55.375 44.234375 
Q 52.25 40.28125 46.1875 39.3125 
Q 53.46875 37.75 57.5 32.78125 
Q 61.53125 27.828125 61.53125 20.40625 
Q 61.53125 10.640625 54.890625 5.3125 
Q 48.25 0 35.984375 0 
L 9.8125 0 
z
" id="DejaVuSans-42"/>
     </defs>
     <g transform="translate(95.7375 71.332812)scale(0.1 -0.1)">
      <use xlink:href="#DejaVuSans-6c"/>
      <use x="27.783203" xlink:href="#DejaVuSans-6f"/>
      <use x="88.964844" xlink:href="#DejaVuSans-77"/>
      <use x="170.751953" xlink:href="#DejaVuSans-42"/>
      <use x="239.355469" xlink:href="#DejaVuSans-65"/>
      <use x="300.878906" xlink:href="#DejaVuSans-74"/>
      <use x="340.087891" xlink:href="#DejaVuSans-61"/>
     </g>
    </g>
    <g id="line2d_37">
     <path d="M 67.7375 82.510938 
L 87.7375 82.510938 
" style="fill:none;stroke:#9467bd;stroke-linecap:square;stroke-width:1.5;"/>
    </g>
    <g id="line2d_38"/>
    <g id="text_21">
     <!-- highBeta -->
     <g transform="translate(95.7375 86.010938)scale(0.1 -0.1)">
      <use xlink:href="#DejaVuSans-68"/>
      <use x="63.378906" xlink:href="#DejaVuSans-69"/>
      <use x="91.162109" xlink:href="#DejaVuSans-67"/>
      <use x="154.638672" xlink:href="#DejaVuSans-68"/>
      <use x="218.017578" xlink:href="#DejaVuSans-42"/>
      <use x="286.621094" xlink:href="#DejaVuSans-65"/>
      <use x="348.144531" xlink:href="#DejaVuSans-74"/>
      <use x="387.353516" xlink:href="#DejaVuSans-61"/>
     </g>
    </g>
    <g id="line2d_39">
     <path d="M 67.7375 97.189062 
L 87.7375 97.189062 
" style="fill:none;stroke:#8c564b;stroke-linecap:square;stroke-width:1.5;"/>
    </g>
    <g id="line2d_40"/>
    <g id="text_22">
     <!-- lowGamma -->
     <defs>
      <path d="M 59.515625 10.40625 
L 59.515625 29.984375 
L 43.40625 29.984375 
L 43.40625 38.09375 
L 69.28125 38.09375 
L 69.28125 6.78125 
Q 63.578125 2.734375 56.6875 0.65625 
Q 49.8125 -1.421875 42 -1.421875 
Q 24.90625 -1.421875 15.25 8.5625 
Q 5.609375 18.5625 5.609375 36.375 
Q 5.609375 54.25 15.25 64.234375 
Q 24.90625 74.21875 42 74.21875 
Q 49.125 74.21875 55.546875 72.453125 
Q 61.96875 70.703125 67.390625 67.28125 
L 67.390625 56.78125 
Q 61.921875 61.421875 55.765625 63.765625 
Q 49.609375 66.109375 42.828125 66.109375 
Q 29.4375 66.109375 22.71875 58.640625 
Q 16.015625 51.171875 16.015625 36.375 
Q 16.015625 21.625 22.71875 14.15625 
Q 29.4375 6.6875 42.828125 6.6875 
Q 48.046875 6.6875 52.140625 7.59375 
Q 56.25 8.5 59.515625 10.40625 
" id="DejaVuSans-47"/>
      <path d="M 52 44.1875 
Q 55.375 50.25 60.0625 53.125 
Q 64.75 56 71.09375 56 
Q 79.640625 56 84.28125 50.015625 
Q 88.921875 44.046875 88.921875 33.015625 
L 88.921875 0 
L 79.890625 0 
L 79.890625 32.71875 
Q 79.890625 40.578125 77.09375 44.375 
Q 74.3125 48.1875 68.609375 48.1875 
Q 61.625 48.1875 57.5625 43.546875 
Q 53.515625 38.921875 53.515625 30.90625 
L 53.515625 0 
L 44.484375 0 
L 44.484375 32.71875 
Q 44.484375 40.625 41.703125 44.40625 
Q 38.921875 48.1875 33.109375 48.1875 
Q 26.21875 48.1875 22.15625 43.53125 
Q 18.109375 38.875 18.109375 30.90625 
L 18.109375 0 
L 9.078125 0 
L 9.078125 54.6875 
L 18.109375 54.6875 
L 18.109375 46.1875 
Q 21.1875 51.21875 25.484375 53.609375 
Q 29.78125 56 35.6875 56 
Q 41.65625 56 45.828125 52.96875 
Q 50 49.953125 52 44.1875 
" id="DejaVuSans-6d"/>
     </defs>
     <g transform="translate(95.7375 100.689062)scale(0.1 -0.1)">
      <use xlink:href="#DejaVuSans-6c"/>
      <use x="27.783203" xlink:href="#DejaVuSans-6f"/>
      <use x="88.964844" xlink:href="#DejaVuSans-77"/>
      <use x="170.751953" xlink:href="#DejaVuSans-47"/>
      <use x="248.242188" xlink:href="#DejaVuSans-61"/>
      <use x="309.521484" xlink:href="#DejaVuSans-6d"/>
      <use x="406.933594" xlink:href="#DejaVuSans-6d"/>
      <use x="504.345703" xlink:href="#DejaVuSans-61"/>
     </g>
    </g>
    <g id="line2d_41">
     <path d="M 67.7375 111.867188 
L 87.7375 111.867188 
" style="fill:none;stroke:#e377c2;stroke-linecap:square;stroke-width:1.5;"/>
    </g>
    <g id="line2d_42"/>
    <g id="text_23">
     <!-- midGamma -->
     <g transform="translate(95.7375 115.367188)scale(0.1 -0.1)">
      <use xlink:href="#DejaVuSans-6d"/>
      <use x="97.412109" xlink:href="#DejaVuSans-69"/>
      <use x="125.195312" xlink:href="#DejaVuSans-64"/>
      <use x="188.671875" xlink:href="#DejaVuSans-47"/>
      <use x="266.162109" xlink:href="#DejaVuSans-61"/>
      <use x="327.441406" xlink:href="#DejaVuSans-6d"/>
      <use x="424.853516" xlink:href="#DejaVuSans-6d"/>
      <use x="522.265625" xlink:href="#DejaVuSans-61"/>
     </g>
    </g>
    <g id="line2d_43">
     <path d="M 67.7375 126.545312 
L 87.7375 126.545312 
" style="fill:none;stroke:#7f7f7f;stroke-linecap:square;stroke-width:1.5;"/>
    </g>
    <g id="line2d_44"/>
    <g id="text_24">
     <!-- attention -->
     <defs>
      <path d="M 54.890625 33.015625 
L 54.890625 0 
L 45.90625 0 
L 45.90625 32.71875 
Q 45.90625 40.484375 42.875 44.328125 
Q 39.84375 48.1875 33.796875 48.1875 
Q 26.515625 48.1875 22.3125 43.546875 
Q 18.109375 38.921875 18.109375 30.90625 
L 18.109375 0 
L 9.078125 0 
L 9.078125 54.6875 
L 18.109375 54.6875 
L 18.109375 46.1875 
Q 21.34375 51.125 25.703125 53.5625 
Q 30.078125 56 35.796875 56 
Q 45.21875 56 50.046875 50.171875 
Q 54.890625 44.34375 54.890625 33.015625 
" id="DejaVuSans-6e"/>
     </defs>
     <g transform="translate(95.7375 130.045312)scale(0.1 -0.1)">
      <use xlink:href="#DejaVuSans-61"/>
      <use x="61.279297" xlink:href="#DejaVuSans-74"/>
      <use x="100.488281" xlink:href="#DejaVuSans-74"/>
      <use x="139.697266" xlink:href="#DejaVuSans-65"/>
      <use x="201.220703" xlink:href="#DejaVuSans-6e"/>
      <use x="264.599609" xlink:href="#DejaVuSans-74"/>
      <use x="303.808594" xlink:href="#DejaVuSans-69"/>
      <use x="331.591797" xlink:href="#DejaVuSans-6f"/>
      <use x="392.773438" xlink:href="#DejaVuSans-6e"/>
     </g>
    </g>
    <g id="line2d_45">
     <path d="M 67.7375 141.223437 
L 87.7375 141.223437 
" style="fill:none;stroke:#bcbd22;stroke-linecap:square;stroke-width:1.5;"/>
    </g>
    <g id="line2d_46"/>
    <g id="text_25">
     <!-- meditation -->
     <g transform="translate(95.7375 144.723437)scale(0.1 -0.1)">
      <use xlink:href="#DejaVuSans-6d"/>
      <use x="97.412109" xlink:href="#DejaVuSans-65"/>
      <use x="158.935547" xlink:href="#DejaVuSans-64"/>
      <use x="222.412109" xlink:href="#DejaVuSans-69"/>
      <use x="250.195312" xlink:href="#DejaVuSans-74"/>
      <use x="289.404297" xlink:href="#DejaVuSans-61"/>
      <use x="350.683594" xlink:href="#DejaVuSans-74"/>
      <use x="389.892578" xlink:href="#DejaVuSans-69"/>
      <use x="417.675781" xlink:href="#DejaVuSans-6f"/>
      <use x="478.857422" xlink:href="#DejaVuSans-6e"/>
     </g>
    </g>
    <g id="line2d_47">
     <path d="M 67.7375 155.901562 
L 87.7375 155.901562 
" style="fill:none;stroke:#17becf;stroke-linecap:square;stroke-width:1.5;"/>
    </g>
    <g id="line2d_48"/>
    <g id="text_26">
     <!-- rawValue -->
     <defs>
      <path d="M 41.109375 46.296875 
Q 39.59375 47.171875 37.8125 47.578125 
Q 36.03125 48 33.890625 48 
Q 26.265625 48 22.1875 43.046875 
Q 18.109375 38.09375 18.109375 28.8125 
L 18.109375 0 
L 9.078125 0 
L 9.078125 54.6875 
L 18.109375 54.6875 
L 18.109375 46.1875 
Q 20.953125 51.171875 25.484375 53.578125 
Q 30.03125 56 36.53125 56 
Q 37.453125 56 38.578125 55.875 
Q 39.703125 55.765625 41.0625 55.515625 
z
" id="DejaVuSans-72"/>
      <path d="M 28.609375 0 
L 0.78125 72.90625 
L 11.078125 72.90625 
L 34.1875 11.53125 
L 57.328125 72.90625 
L 67.578125 72.90625 
L 39.796875 0 
z
" id="DejaVuSans-56"/>
      <path d="M 8.5 21.578125 
L 8.5 54.6875 
L 17.484375 54.6875 
L 17.484375 21.921875 
Q 17.484375 14.15625 20.5 10.265625 
Q 23.53125 6.390625 29.59375 6.390625 
Q 36.859375 6.390625 41.078125 11.03125 
Q 45.3125 15.671875 45.3125 23.6875 
L 45.3125 54.6875 
L 54.296875 54.6875 
L 54.296875 0 
L 45.3125 0 
L 45.3125 8.40625 
Q 42.046875 3.421875 37.71875 1 
Q 33.40625 -1.421875 27.6875 -1.421875 
Q 18.265625 -1.421875 13.375 4.4375 
Q 8.5 10.296875 8.5 21.578125 
M 31.109375 56 
z
" id="DejaVuSans-75"/>
     </defs>
     <g transform="translate(95.7375 159.401562)scale(0.1 -0.1)">
      <use xlink:href="#DejaVuSans-72"/>
      <use x="41.113281" xlink:href="#DejaVuSans-61"/>
      <use x="102.392578" xlink:href="#DejaVuSans-77"/>
      <use x="184.179688" xlink:href="#DejaVuSans-56"/>
      <use x="252.478516" xlink:href="#DejaVuSans-61"/>
      <use x="313.757812" xlink:href="#DejaVuSans-6c"/>
      <use x="341.541016" xlink:href="#DejaVuSans-75"/>
      <use x="404.919922" xlink:href="#DejaVuSans-65"/>
     </g>
    </g>
   </g>
  </g>
 </g>
 <defs>
  <clipPath id="p749cf914ff">
   <rect height="266.112" width="357.12" x="58.7375" y="10.7"/>
  </clipPath>
 </defs>
</svg>
