<?xml version="1.0" encoding="utf-8" standalone="no"?>
<!DOCTYPE svg PUBLIC "-//W3C//DTD SVG 1.1//EN"
  "http://www.w3.org/Graphics/SVG/1.1/DTD/svg11.dtd">
<!-- Created with matplotlib (http://matplotlib.org/) -->
<svg height="300pt" version="1.1" viewBox="0 0 426 300" width="426pt" xmlns="http://www.w3.org/2000/svg" xmlns:xlink="http://www.w3.org/1999/xlink">
 <defs>
  <style type="text/css">
*{stroke-linecap:butt;stroke-linejoin:round;}
  </style>
 </defs>
 <g id="figure_1">
  <g id="patch_1">
   <path d="M 0 300.690125 
L 426.5575 300.690125 
L 426.5575 0 
L 0 0 
z
" style="fill:#ffffff;"/>
  </g>
  <g id="axes_1">
   <g id="patch_2">
    <path d="M 58.7375 276.812 
L 415.8575 276.812 
L 415.8575 10.7 
L 58.7375 10.7 
z
" style="fill:#ffffff;"/>
   </g>
   <g id="matplotlib.axis_1">
    <g id="xtick_1">
     <g id="line2d_1">
      <defs>
       <path d="M 0 0 
L 0 3.5 
" id="md8c03d31c8" style="stroke:#000000;stroke-width:0.8;"/>
      </defs>
      <g>
       <use style="stroke:#000000;stroke-width:0.8;" x="74.970227" xlink:href="#md8c03d31c8" y="276.812"/>
      </g>
     </g>
     <g id="text_1">
      <!-- 0 -->
      <defs>
       <path d="M 31.78125 66.40625 
Q 24.171875 66.40625 20.328125 58.90625 
Q 16.5 51.421875 16.5 36.375 
Q 16.5 21.390625 20.328125 13.890625 
Q 24.171875 6.390625 31.78125 6.390625 
Q 39.453125 6.390625 43.28125 13.890625 
Q 47.125 21.390625 47.125 36.375 
Q 47.125 51.421875 43.28125 58.90625 
Q 39.453125 66.40625 31.78125 66.40625 
M 31.78125 74.21875 
Q 44.046875 74.21875 50.515625 64.515625 
Q 56.984375 54.828125 56.984375 36.375 
Q 56.984375 17.96875 50.515625 8.265625 
Q 44.046875 -1.421875 31.78125 -1.421875 
Q 19.53125 -1.421875 13.0625 8.265625 
Q 6.59375 17.96875 6.59375 36.375 
Q 6.59375 54.828125 13.0625 64.515625 
Q 19.53125 74.21875 31.78125 74.21875 
" id="DejaVuSans-30"/>
      </defs>
      <g transform="translate(71.788977 291.410437)scale(0.1 -0.1)">
       <use xlink:href="#DejaVuSans-30"/>
      </g>
     </g>
    </g>
    <g id="xtick_2">
     <g id="line2d_2">
      <g>
       <use style="stroke:#000000;stroke-width:0.8;" x="116.592605" xlink:href="#md8c03d31c8" y="276.812"/>
      </g>
     </g>
     <g id="text_2">
      <!-- 25 -->
      <defs>
       <path d="M 19.1875 8.296875 
L 53.609375 8.296875 
L 53.609375 0 
L 7.328125 0 
L 7.328125 8.296875 
Q 12.9375 14.109375 22.625 23.890625 
Q 32.328125 33.6875 34.8125 36.53125 
Q 39.546875 41.84375 41.421875 45.53125 
Q 43.3125 49.21875 43.3125 52.78125 
Q 43.3125 58.59375 39.234375 62.25 
Q 35.15625 65.921875 28.609375 65.921875 
Q 23.96875 65.921875 18.8125 64.3125 
Q 13.671875 62.703125 7.8125 59.421875 
L 7.8125 69.390625 
Q 13.765625 71.78125 18.9375 73 
Q 24.125 74.21875 28.421875 74.21875 
Q 39.75 74.21875 46.484375 68.546875 
Q 53.21875 62.890625 53.21875 53.421875 
Q 53.21875 48.921875 51.53125 44.890625 
Q 49.859375 40.875 45.40625 35.40625 
Q 44.1875 33.984375 37.640625 27.21875 
Q 31.109375 20.453125 19.1875 8.296875 
" id="DejaVuSans-32"/>
       <path d="M 10.796875 72.90625 
L 49.515625 72.90625 
L 49.515625 64.59375 
L 19.828125 64.59375 
L 19.828125 46.734375 
Q 21.96875 47.46875 24.109375 47.828125 
Q 26.265625 48.1875 28.421875 48.1875 
Q 40.625 48.1875 47.75 41.5 
Q 54.890625 34.8125 54.890625 23.390625 
Q 54.890625 11.625 47.5625 5.09375 
Q 40.234375 -1.421875 26.90625 -1.421875 
Q 22.3125 -1.421875 17.546875 -0.640625 
Q 12.796875 0.140625 7.71875 1.703125 
L 7.71875 11.625 
Q 12.109375 9.234375 16.796875 8.0625 
Q 21.484375 6.890625 26.703125 6.890625 
Q 35.15625 6.890625 40.078125 11.328125 
Q 45.015625 15.765625 45.015625 23.390625 
Q 45.015625 31 40.078125 35.4375 
Q 35.15625 39.890625 26.703125 39.890625 
Q 22.75 39.890625 18.8125 39.015625 
Q 14.890625 38.140625 10.796875 36.28125 
z
" id="DejaVuSans-35"/>
      </defs>
      <g transform="translate(110.230105 291.410437)scale(0.1 -0.1)">
       <use xlink:href="#DejaVuSans-32"/>
       <use x="63.623047" xlink:href="#DejaVuSans-35"/>
      </g>
     </g>
    </g>
    <g id="xtick_3">
     <g id="line2d_3">
      <g>
       <use style="stroke:#000000;stroke-width:0.8;" x="158.214983" xlink:href="#md8c03d31c8" y="276.812"/>
      </g>
     </g>
     <g id="text_3">
      <!-- 50 -->
      <g transform="translate(151.852483 291.410437)scale(0.1 -0.1)">
       <use xlink:href="#DejaVuSans-35"/>
       <use x="63.623047" xlink:href="#DejaVuSans-30"/>
      </g>
     </g>
    </g>
    <g id="xtick_4">
     <g id="line2d_4">
      <g>
       <use style="stroke:#000000;stroke-width:0.8;" x="199.83736" xlink:href="#md8c03d31c8" y="276.812"/>
      </g>
     </g>
     <g id="text_4">
      <!-- 75 -->
      <defs>
       <path d="M 8.203125 72.90625 
L 55.078125 72.90625 
L 55.078125 68.703125 
L 28.609375 0 
L 18.3125 0 
L 43.21875 64.59375 
L 8.203125 64.59375 
z
" id="DejaVuSans-37"/>
      </defs>
      <g transform="translate(193.47486 291.410437)scale(0.1 -0.1)">
       <use xlink:href="#DejaVuSans-37"/>
       <use x="63.623047" xlink:href="#DejaVuSans-35"/>
      </g>
     </g>
    </g>
    <g id="xtick_5">
     <g id="line2d_5">
      <g>
       <use style="stroke:#000000;stroke-width:0.8;" x="241.459738" xlink:href="#md8c03d31c8" y="276.812"/>
      </g>
     </g>
     <g id="text_5">
      <!-- 100 -->
      <defs>
       <path d="M 12.40625 8.296875 
L 28.515625 8.296875 
L 28.515625 63.921875 
L 10.984375 60.40625 
L 10.984375 69.390625 
L 28.421875 72.90625 
L 38.28125 72.90625 
L 38.28125 8.296875 
L 54.390625 8.296875 
L 54.390625 0 
L 12.40625 0 
z
" id="DejaVuSans-31"/>
      </defs>
      <g transform="translate(231.915988 291.410437)scale(0.1 -0.1)">
       <use xlink:href="#DejaVuSans-31"/>
       <use x="63.623047" xlink:href="#DejaVuSans-30"/>
       <use x="127.246094" xlink:href="#DejaVuSans-30"/>
      </g>
     </g>
    </g>
    <g id="xtick_6">
     <g id="line2d_6">
      <g>
       <use style="stroke:#000000;stroke-width:0.8;" x="283.082115" xlink:href="#md8c03d31c8" y="276.812"/>
      </g>
     </g>
     <g id="text_6">
      <!-- 125 -->
      <g transform="translate(273.538365 291.410437)scale(0.1 -0.1)">
       <use xlink:href="#DejaVuSans-31"/>
       <use x="63.623047" xlink:href="#DejaVuSans-32"/>
       <use x="127.246094" xlink:href="#DejaVuSans-35"/>
      </g>
     </g>
    </g>
    <g id="xtick_7">
     <g id="line2d_7">
      <g>
       <use style="stroke:#000000;stroke-width:0.8;" x="324.704493" xlink:href="#md8c03d31c8" y="276.812"/>
      </g>
     </g>
     <g id="text_7">
      <!-- 150 -->
      <g transform="translate(315.160743 291.410437)scale(0.1 -0.1)">
       <use xlink:href="#DejaVuSans-31"/>
       <use x="63.623047" xlink:href="#DejaVuSans-35"/>
       <use x="127.246094" xlink:href="#DejaVuSans-30"/>
      </g>
     </g>
    </g>
    <g id="xtick_8">
     <g id="line2d_8">
      <g>
       <use style="stroke:#000000;stroke-width:0.8;" x="366.326871" xlink:href="#md8c03d31c8" y="276.812"/>
      </g>
     </g>
     <g id="text_8">
      <!-- 175 -->
      <g transform="translate(356.783121 291.410437)scale(0.1 -0.1)">
       <use xlink:href="#DejaVuSans-31"/>
       <use x="63.623047" xlink:href="#DejaVuSans-37"/>
       <use x="127.246094" xlink:href="#DejaVuSans-35"/>
      </g>
     </g>
    </g>
    <g id="xtick_9">
     <g id="line2d_9">
      <g>
       <use style="stroke:#000000;stroke-width:0.8;" x="407.949248" xlink:href="#md8c03d31c8" y="276.812"/>
      </g>
     </g>
     <g id="text_9">
      <!-- 200 -->
      <g transform="translate(398.405498 291.410437)scale(0.1 -0.1)">
       <use xlink:href="#DejaVuSans-32"/>
       <use x="63.623047" xlink:href="#DejaVuSans-30"/>
       <use x="127.246094" xlink:href="#DejaVuSans-30"/>
      </g>
     </g>
    </g>
   </g>
   <g id="matplotlib.axis_2">
    <g id="ytick_1">
     <g id="line2d_10">
      <defs>
       <path d="M 0 0 
L -3.5 0 
" id="m6e72ca4dea" style="stroke:#000000;stroke-width:0.8;"/>
      </defs>
      <g>
       <use style="stroke:#000000;stroke-width:0.8;" x="58.7375" xlink:href="#m6e72ca4dea" y="264.699064"/>
      </g>
     </g>
     <g id="text_10">
      <!-- 0 -->
      <g transform="translate(45.375 268.498283)scale(0.1 -0.1)">
       <use xlink:href="#DejaVuSans-30"/>
      </g>
     </g>
    </g>
    <g id="ytick_2">
     <g id="line2d_11">
      <g>
       <use style="stroke:#000000;stroke-width:0.8;" x="58.7375" xlink:href="#m6e72ca4dea" y="229.707751"/>
      </g>
     </g>
     <g id="text_11">
      <!-- 500000 -->
      <g transform="translate(13.5625 233.50697)scale(0.1 -0.1)">
       <use xlink:href="#DejaVuSans-35"/>
       <use x="63.623047" xlink:href="#DejaVuSans-30"/>
       <use x="127.246094" xlink:href="#DejaVuSans-30"/>
       <use x="190.869141" xlink:href="#DejaVuSans-30"/>
       <use x="254.492188" xlink:href="#DejaVuSans-30"/>
       <use x="318.115234" xlink:href="#DejaVuSans-30"/>
      </g>
     </g>
    </g>
    <g id="ytick_3">
     <g id="line2d_12">
      <g>
       <use style="stroke:#000000;stroke-width:0.8;" x="58.7375" xlink:href="#m6e72ca4dea" y="194.716438"/>
      </g>
     </g>
     <g id="text_12">
      <!-- 1000000 -->
      <g transform="translate(7.2 198.515657)scale(0.1 -0.1)">
       <use xlink:href="#DejaVuSans-31"/>
       <use x="63.623047" xlink:href="#DejaVuSans-30"/>
       <use x="127.246094" xlink:href="#DejaVuSans-30"/>
       <use x="190.869141" xlink:href="#DejaVuSans-30"/>
       <use x="254.492188" xlink:href="#DejaVuSans-30"/>
       <use x="318.115234" xlink:href="#DejaVuSans-30"/>
       <use x="381.738281" xlink:href="#DejaVuSans-30"/>
      </g>
     </g>
    </g>
    <g id="ytick_4">
     <g id="line2d_13">
      <g>
       <use style="stroke:#000000;stroke-width:0.8;" x="58.7375" xlink:href="#m6e72ca4dea" y="159.725125"/>
      </g>
     </g>
     <g id="text_13">
      <!-- 1500000 -->
      <g transform="translate(7.2 163.524344)scale(0.1 -0.1)">
       <use xlink:href="#DejaVuSans-31"/>
       <use x="63.623047" xlink:href="#DejaVuSans-35"/>
       <use x="127.246094" xlink:href="#DejaVuSans-30"/>
       <use x="190.869141" xlink:href="#DejaVuSans-30"/>
       <use x="254.492188" xlink:href="#DejaVuSans-30"/>
       <use x="318.115234" xlink:href="#DejaVuSans-30"/>
       <use x="381.738281" xlink:href="#DejaVuSans-30"/>
      </g>
     </g>
    </g>
    <g id="ytick_5">
     <g id="line2d_14">
      <g>
       <use style="stroke:#000000;stroke-width:0.8;" x="58.7375" xlink:href="#m6e72ca4dea" y="124.733813"/>
      </g>
     </g>
     <g id="text_14">
      <!-- 2000000 -->
      <g transform="translate(7.2 128.533031)scale(0.1 -0.1)">
       <use xlink:href="#DejaVuSans-32"/>
       <use x="63.623047" xlink:href="#DejaVuSans-30"/>
       <use x="127.246094" xlink:href="#DejaVuSans-30"/>
       <use x="190.869141" xlink:href="#DejaVuSans-30"/>
       <use x="254.492188" xlink:href="#DejaVuSans-30"/>
       <use x="318.115234" xlink:href="#DejaVuSans-30"/>
       <use x="381.738281" xlink:href="#DejaVuSans-30"/>
      </g>
     </g>
    </g>
    <g id="ytick_6">
     <g id="line2d_15">
      <g>
       <use style="stroke:#000000;stroke-width:0.8;" x="58.7375" xlink:href="#m6e72ca4dea" y="89.7425"/>
      </g>
     </g>
     <g id="text_15">
      <!-- 2500000 -->
      <g transform="translate(7.2 93.541718)scale(0.1 -0.1)">
       <use xlink:href="#DejaVuSans-32"/>
       <use x="63.623047" xlink:href="#DejaVuSans-35"/>
       <use x="127.246094" xlink:href="#DejaVuSans-30"/>
       <use x="190.869141" xlink:href="#DejaVuSans-30"/>
       <use x="254.492188" xlink:href="#DejaVuSans-30"/>
       <use x="318.115234" xlink:href="#DejaVuSans-30"/>
       <use x="381.738281" xlink:href="#DejaVuSans-30"/>
      </g>
     </g>
    </g>
    <g id="ytick_7">
     <g id="line2d_16">
      <g>
       <use style="stroke:#000000;stroke-width:0.8;" x="58.7375" xlink:href="#m6e72ca4dea" y="54.751187"/>
      </g>
     </g>
     <g id="text_16">
      <!-- 3000000 -->
      <defs>
       <path d="M 40.578125 39.3125 
Q 47.65625 37.796875 51.625 33 
Q 55.609375 28.21875 55.609375 21.1875 
Q 55.609375 10.40625 48.1875 4.484375 
Q 40.765625 -1.421875 27.09375 -1.421875 
Q 22.515625 -1.421875 17.65625 -0.515625 
Q 12.796875 0.390625 7.625 2.203125 
L 7.625 11.71875 
Q 11.71875 9.328125 16.59375 8.109375 
Q 21.484375 6.890625 26.8125 6.890625 
Q 36.078125 6.890625 40.9375 10.546875 
Q 45.796875 14.203125 45.796875 21.1875 
Q 45.796875 27.640625 41.28125 31.265625 
Q 36.765625 34.90625 28.71875 34.90625 
L 20.21875 34.90625 
L 20.21875 43.015625 
L 29.109375 43.015625 
Q 36.375 43.015625 40.234375 45.921875 
Q 44.09375 48.828125 44.09375 54.296875 
Q 44.09375 59.90625 40.109375 62.90625 
Q 36.140625 65.921875 28.71875 65.921875 
Q 24.65625 65.921875 20.015625 65.03125 
Q 15.375 64.15625 9.8125 62.3125 
L 9.8125 71.09375 
Q 15.4375 72.65625 20.34375 73.4375 
Q 25.25 74.21875 29.59375 74.21875 
Q 40.828125 74.21875 47.359375 69.109375 
Q 53.90625 64.015625 53.90625 55.328125 
Q 53.90625 49.265625 50.4375 45.09375 
Q 46.96875 40.921875 40.578125 39.3125 
" id="DejaVuSans-33"/>
      </defs>
      <g transform="translate(7.2 58.550405)scale(0.1 -0.1)">
       <use xlink:href="#DejaVuSans-33"/>
       <use x="63.623047" xlink:href="#DejaVuSans-30"/>
       <use x="127.246094" xlink:href="#DejaVuSans-30"/>
       <use x="190.869141" xlink:href="#DejaVuSans-30"/>
       <use x="254.492188" xlink:href="#DejaVuSans-30"/>
       <use x="318.115234" xlink:href="#DejaVuSans-30"/>
       <use x="381.738281" xlink:href="#DejaVuSans-30"/>
      </g>
     </g>
    </g>
    <g id="ytick_8">
     <g id="line2d_17">
      <g>
       <use style="stroke:#000000;stroke-width:0.8;" x="58.7375" xlink:href="#m6e72ca4dea" y="19.759874"/>
      </g>
     </g>
     <g id="text_17">
      <!-- 3500000 -->
      <g transform="translate(7.2 23.559093)scale(0.1 -0.1)">
       <use xlink:href="#DejaVuSans-33"/>
       <use x="63.623047" xlink:href="#DejaVuSans-35"/>
       <use x="127.246094" xlink:href="#DejaVuSans-30"/>
       <use x="190.869141" xlink:href="#DejaVuSans-30"/>
       <use x="254.492188" xlink:href="#DejaVuSans-30"/>
       <use x="318.115234" xlink:href="#DejaVuSans-30"/>
       <use x="381.738281" xlink:href="#DejaVuSans-30"/>
      </g>
     </g>
    </g>
   </g>
   <g id="line2d_18">
    <path clip-path="url(#pdc4a9a161d)" d="M 74.970227 250.145127 
L 76.635122 259.572977 
L 78.300017 259.410687 
L 79.964913 252.418443 
L 81.629808 221.703768 
L 83.294703 185.408679 
L 84.959598 250.915916 
L 86.624493 179.80517 
L 88.289388 249.854979 
L 89.954283 262.915487 
L 91.619178 263.893074 
L 93.284073 205.22202 
L 94.948969 233.313816 
L 96.613864 214.265035 
L 98.278759 259.814487 
L 99.943654 260.84974 
L 101.608549 263.090933 
L 103.273444 220.226785 
L 104.938339 258.239108 
L 106.603234 252.819304 
L 108.268129 255.059727 
L 109.933024 255.986017 
L 111.59792 22.796 
L 113.262815 187.17945 
L 114.92771 226.286301 
L 118.2575 254.156182 
L 119.922395 229.803488 
L 121.58729 261.879254 
L 123.252185 211.661332 
L 124.91708 110.499766 
L 126.581976 254.48496 
L 128.246871 263.735333 
L 129.911766 243.00557 
L 131.576661 257.70787 
L 133.241556 253.815226 
L 134.906451 227.633746 
L 136.571346 260.134028 
L 138.236241 257.276917 
L 139.901136 263.338112 
L 141.566031 262.669428 
L 143.230927 263.027109 
L 144.895822 257.139261 
L 146.560717 257.216242 
L 151.555402 264.39541 
L 154.885192 254.410988 
L 156.550087 262.390127 
L 158.214983 258.208596 
L 159.879878 206.627971 
L 161.544773 261.05171 
L 163.209668 258.196349 
L 164.874563 262.510707 
L 166.539458 263.081556 
L 168.204353 260.827415 
L 169.869248 264.291905 
L 171.534143 249.455379 
L 173.199038 224.324618 
L 174.863934 182.54492 
L 176.528829 262.643325 
L 178.193724 153.617812 
L 179.858619 256.318925 
L 181.523514 260.237042 
L 183.188409 261.4539 
L 184.853304 254.618767 
L 186.518199 169.29133 
L 188.183094 262.492932 
L 189.84799 258.788262 
L 191.512885 264.31199 
L 193.17778 255.471855 
L 194.842675 262.577261 
L 196.50757 255.270655 
L 198.172465 237.778428 
L 199.83736 256.964095 
L 201.502255 219.766719 
L 203.16715 263.770605 
L 204.832045 255.565632 
L 206.496941 259.672072 
L 208.161836 263.087994 
L 209.826731 262.25891 
L 211.491626 254.717512 
L 213.156521 260.976408 
L 214.821416 246.305391 
L 216.486311 263.376952 
L 218.151206 264.178603 
L 219.816101 263.032568 
L 221.480997 243.118172 
L 223.145892 262.671877 
L 224.810787 235.569706 
L 226.475682 257.259281 
L 228.140577 253.529487 
L 229.805472 263.625741 
L 231.470367 246.520867 
L 233.135262 262.509028 
L 234.800157 254.837253 
L 236.465052 259.798601 
L 238.129948 262.01915 
L 239.794843 247.777265 
L 241.459738 250.876026 
L 243.124633 263.904481 
L 244.789528 263.06609 
L 246.454423 205.399496 
L 248.119318 263.630499 
L 249.784213 253.883039 
L 251.449108 260.517042 
L 253.114003 105.193544 
L 254.778899 261.513315 
L 256.443794 139.099356 
L 258.108689 255.672775 
L 259.773584 111.950366 
L 261.438479 261.737749 
L 263.103374 258.535834 
L 264.768269 255.85277 
L 266.433164 242.267673 
L 268.098059 261.715075 
L 269.762955 259.221034 
L 271.42785 264.091125 
L 273.092745 263.340771 
L 274.75764 263.882717 
L 276.422535 250.756356 
L 278.08743 263.599637 
L 279.752325 249.509125 
L 281.41722 260.541046 
L 283.082115 261.663708 
L 284.74701 264.107361 
L 286.411906 254.20125 
L 288.076801 261.539559 
L 289.741696 259.928768 
L 291.406591 261.909347 
L 293.071486 263.697963 
L 294.736381 263.635608 
L 296.401276 261.183767 
L 298.066171 262.29985 
L 299.731066 242.112522 
L 301.395962 264.27364 
L 303.060857 220.693359 
L 304.725752 259.053776 
L 306.390647 246.029869 
L 308.055542 261.49393 
L 309.720437 247.902114 
L 311.385332 256.383309 
L 313.050227 257.099581 
L 314.715122 255.588936 
L 316.380017 262.70358 
L 318.044913 212.609386 
L 319.709808 262.239665 
L 321.374703 217.461142 
L 323.039598 264.063062 
L 324.704493 262.010052 
L 326.369388 261.824108 
L 328.034283 258.446816 
L 329.699178 264.109671 
L 331.364073 261.957985 
L 333.028969 259.174776 
L 334.693864 258.59175 
L 336.358759 263.983352 
L 338.023654 263.734564 
L 339.688549 261.558524 
L 341.353444 232.256588 
L 343.018339 264.107291 
L 344.683234 253.624384 
L 346.348129 261.363902 
L 348.013024 255.991406 
L 349.67792 259.629733 
L 351.342815 262.514277 
L 353.00771 202.652538 
L 354.672605 259.379055 
L 356.3375 263.891955 
L 358.002395 260.346215 
L 359.66729 260.322071 
L 361.332185 260.891799 
L 362.99708 257.900462 
L 364.661976 263.844786 
L 366.326871 253.672672 
L 367.991766 263.195767 
L 369.656661 254.248979 
L 371.321556 262.174441 
L 372.986451 259.442039 
L 374.651346 263.476258 
L 376.316241 247.432461 
L 377.981136 260.557073 
L 379.646031 239.994497 
L 381.310927 262.063029 
L 382.975822 262.423649 
L 384.640717 247.928218 
L 386.305612 211.726975 
L 387.970507 247.883709 
L 389.635402 259.734007 
L 391.300297 262.577681 
L 392.965192 256.192116 
L 394.630087 256.212341 
L 396.294983 230.653217 
L 397.959878 202.204929 
L 399.624773 263.229639 
L 399.624773 263.229639 
" style="fill:none;stroke:#1f77b4;stroke-linecap:square;stroke-width:1.5;"/>
   </g>
   <g id="line2d_19">
    <path clip-path="url(#pdc4a9a161d)" d="M 74.970227 261.877225 
L 76.635122 261.980939 
L 78.300017 253.847488 
L 79.964913 263.220401 
L 81.629808 256.576391 
L 83.294703 259.194581 
L 84.959598 263.835059 
L 86.624493 258.71562 
L 88.289388 262.950478 
L 89.954283 264.279728 
L 91.619178 263.060561 
L 94.948969 258.889387 
L 96.613864 263.241396 
L 98.278759 264.564278 
L 99.943654 263.502641 
L 101.608549 262.926404 
L 103.273444 254.370328 
L 104.938339 255.205641 
L 106.603234 261.061927 
L 108.268129 263.770535 
L 109.933024 260.212478 
L 111.59792 257.778482 
L 113.262815 264.07279 
L 114.92771 263.14447 
L 116.592605 253.028482 
L 118.2575 263.581232 
L 119.922395 261.058638 
L 121.58729 263.539242 
L 123.252185 261.772811 
L 124.91708 257.429479 
L 126.581976 262.644164 
L 128.246871 264.246976 
L 129.911766 258.416934 
L 131.576661 263.886006 
L 133.241556 257.18202 
L 134.906451 257.87037 
L 136.571346 262.628138 
L 141.566031 263.252383 
L 143.230927 263.290594 
L 144.895822 262.164643 
L 146.560717 259.099824 
L 148.225612 262.856072 
L 149.890507 260.577927 
L 151.555402 263.95228 
L 153.220297 262.433587 
L 154.885192 262.998486 
L 156.550087 260.626915 
L 158.214983 262.347998 
L 159.879878 264.35538 
L 161.544773 264.041228 
L 163.209668 263.557928 
L 164.874563 264.316819 
L 166.539458 263.114448 
L 168.204353 263.443576 
L 169.869248 264.59458 
L 171.534143 262.417771 
L 173.199038 255.118933 
L 174.863934 264.015054 
L 176.528829 262.252961 
L 178.193724 259.410127 
L 179.858619 262.05666 
L 181.523514 264.039688 
L 183.188409 262.265068 
L 184.853304 261.958964 
L 186.518199 257.349489 
L 188.183094 264.614805 
L 189.84799 262.791828 
L 191.512885 264.410106 
L 193.17778 262.9826 
L 194.842675 263.685576 
L 196.50757 262.269407 
L 198.172465 261.556494 
L 199.83736 262.953068 
L 201.502255 262.916607 
L 203.16715 264.649377 
L 204.832045 264.076149 
L 206.496941 261.367191 
L 208.161836 262.753827 
L 209.826731 262.105438 
L 211.491626 261.640054 
L 213.156521 261.65384 
L 214.821416 260.422146 
L 216.486311 263.874739 
L 218.151206 263.076517 
L 219.816101 263.542811 
L 221.480997 263.111858 
L 223.145892 263.034947 
L 226.475682 261.768822 
L 228.140577 261.271735 
L 229.805472 263.938283 
L 231.470367 262.089272 
L 233.135262 264.259853 
L 234.800157 262.491532 
L 236.465052 260.423196 
L 238.129948 263.87089 
L 239.794843 262.274516 
L 241.459738 258.195929 
L 243.124633 263.884256 
L 244.789528 264.066911 
L 246.454423 263.106959 
L 248.119318 263.687115 
L 249.784213 261.61346 
L 251.449108 263.979783 
L 253.114003 243.739688 
L 254.778899 264.356219 
L 256.443794 259.675781 
L 258.108689 264.290926 
L 259.773584 262.033146 
L 261.438479 264.27448 
L 263.103374 261.200073 
L 264.768269 252.6722 
L 266.433164 262.112646 
L 268.098059 263.446375 
L 269.762955 262.317905 
L 271.42785 263.712729 
L 273.092745 263.194648 
L 274.75764 264.458184 
L 276.422535 259.123338 
L 278.08743 263.194648 
L 279.752325 252.326696 
L 281.41722 263.038866 
L 283.082115 262.348838 
L 284.74701 264.165867 
L 286.411906 263.491724 
L 288.076801 263.862072 
L 289.741696 258.162617 
L 291.406591 263.812734 
L 293.071486 262.643115 
L 294.736381 263.832399 
L 296.401276 261.41415 
L 298.066171 258.606727 
L 299.731066 247.592231 
L 301.395962 264.320388 
L 303.060857 259.038869 
L 304.725752 264.204567 
L 306.390647 259.529378 
L 308.055542 263.730295 
L 309.720437 262.320355 
L 311.385332 260.498147 
L 313.050227 262.352267 
L 314.715122 253.344313 
L 316.380017 260.741407 
L 319.709808 262.508468 
L 321.374703 259.119909 
L 323.039598 264.621453 
L 324.704493 262.78441 
L 326.369388 262.848864 
L 328.034283 255.660388 
L 329.699178 263.762067 
L 331.364073 263.979783 
L 333.028969 262.255201 
L 334.693864 262.710088 
L 336.358759 263.569195 
L 339.688549 263.228519 
L 341.353444 257.695133 
L 343.018339 264.400308 
L 344.683234 261.238353 
L 346.348129 262.326373 
L 348.013024 261.57553 
L 349.67792 263.630569 
L 351.342815 262.806244 
L 353.00771 258.250725 
L 354.672605 259.944235 
L 356.3375 264.258804 
L 358.002395 262.58174 
L 359.66729 264.370356 
L 361.332185 264.157329 
L 362.99708 261.910467 
L 364.661976 264.068171 
L 366.326871 260.168739 
L 367.991766 263.172533 
L 369.656661 259.831703 
L 371.321556 264.215554 
L 372.986451 263.759198 
L 374.651346 262.962165 
L 376.316241 260.644691 
L 377.981136 261.982129 
L 379.646031 260.800892 
L 381.310927 263.272888 
L 382.975822 261.964353 
L 384.640717 259.430632 
L 386.305612 262.167443 
L 387.970507 262.1391 
L 389.635402 264.005956 
L 391.300297 260.749595 
L 392.965192 240.689215 
L 394.630087 262.295021 
L 396.294983 261.662658 
L 397.959878 260.411649 
L 399.624773 262.415251 
L 399.624773 262.415251 
" style="fill:none;stroke:#ff7f0e;stroke-linecap:square;stroke-width:1.5;"/>
   </g>
   <g id="line2d_20">
    <path clip-path="url(#pdc4a9a161d)" d="M 74.970227 264.422843 
L 76.635122 264.091475 
L 78.300017 263.62777 
L 79.964913 264.479459 
L 81.629808 260.019956 
L 83.294703 263.66759 
L 84.959598 264.385962 
L 86.624493 264.31234 
L 88.289388 264.382463 
L 89.954283 264.622153 
L 93.284073 263.978663 
L 94.948969 264.118768 
L 96.613864 264.108341 
L 98.278759 264.610326 
L 99.943654 264.561758 
L 103.273444 263.622801 
L 104.938339 263.222011 
L 106.603234 264.534045 
L 108.268129 264.669881 
L 109.933024 263.245105 
L 111.59792 262.775242 
L 113.262815 264.533345 
L 114.92771 263.641417 
L 116.592605 263.716718 
L 118.2575 264.492755 
L 119.922395 263.132503 
L 121.58729 264.286657 
L 123.252185 262.355836 
L 124.91708 262.8215 
L 126.581976 264.444607 
L 128.246871 264.450556 
L 129.911766 263.485705 
L 131.576661 264.326267 
L 133.241556 259.337205 
L 134.906451 263.1029 
L 136.571346 263.059861 
L 138.236241 264.567007 
L 139.901136 264.329346 
L 141.566031 264.330256 
L 143.230927 264.509341 
L 144.895822 264.546502 
L 146.560717 262.577961 
L 148.225612 263.360786 
L 149.890507 264.39429 
L 151.555402 263.988041 
L 153.220297 264.388901 
L 154.885192 263.676758 
L 156.550087 263.799787 
L 158.214983 263.523426 
L 159.879878 264.578834 
L 163.209668 264.028281 
L 164.874563 263.659262 
L 166.539458 264.292185 
L 168.204353 264.172375 
L 169.869248 264.644758 
L 173.199038 263.685436 
L 174.863934 264.627752 
L 176.528829 264.509481 
L 178.193724 263.947521 
L 179.858619 263.972505 
L 181.523514 264.389251 
L 183.188409 264.59598 
L 184.853304 264.239908 
L 186.518199 263.606635 
L 188.183094 264.680869 
L 189.84799 264.016804 
L 191.512885 264.389181 
L 193.17778 264.396179 
L 194.842675 264.543423 
L 196.50757 263.70944 
L 198.172465 263.34672 
L 199.83736 264.293445 
L 201.502255 264.469241 
L 204.832045 264.564977 
L 206.496941 264.431171 
L 208.161836 264.456015 
L 209.826731 264.204777 
L 211.491626 264.137104 
L 213.156521 263.703771 
L 214.821416 262.832977 
L 216.486311 264.119468 
L 218.151206 263.965786 
L 219.816101 263.3857 
L 221.480997 264.408916 
L 223.145892 264.090355 
L 224.810787 264.23228 
L 226.475682 264.205127 
L 228.140577 263.14377 
L 229.805472 263.897903 
L 233.135262 264.43334 
L 234.800157 261.241573 
L 236.465052 262.360525 
L 238.129948 263.83142 
L 239.794843 264.115549 
L 241.459738 262.352687 
L 243.124633 264.512421 
L 244.789528 264.542653 
L 246.454423 262.791548 
L 248.119318 264.206526 
L 249.784213 263.843737 
L 251.449108 264.077479 
L 253.114003 260.830215 
L 254.778899 264.664563 
L 256.443794 264.302263 
L 258.108689 264.480718 
L 259.773584 262.121324 
L 261.438479 264.67408 
L 263.103374 261.661538 
L 264.768269 260.386875 
L 266.433164 264.254465 
L 268.098059 263.445815 
L 269.762955 263.715808 
L 271.42785 264.227311 
L 273.092745 262.953977 
L 274.75764 264.55315 
L 276.422535 263.34532 
L 278.08743 263.405155 
L 279.752325 264.055014 
L 281.41722 264.027721 
L 283.082115 264.283787 
L 284.74701 264.088186 
L 286.411906 263.391929 
L 288.076801 264.6365 
L 289.741696 263.864731 
L 291.406591 263.993499 
L 293.071486 263.433148 
L 294.736381 264.446567 
L 296.401276 263.290874 
L 298.066171 264.336904 
L 299.731066 261.066826 
L 301.395962 264.667572 
L 303.060857 262.160165 
L 304.725752 264.511301 
L 306.390647 264.1511 
L 308.055542 264.408566 
L 309.720437 264.049415 
L 311.385332 263.041316 
L 313.050227 264.502693 
L 314.715122 264.548742 
L 316.380017 263.62819 
L 318.044913 264.159008 
L 319.709808 264.300723 
L 321.374703 260.665965 
L 323.039598 264.644408 
L 324.704493 264.120308 
L 326.369388 263.984822 
L 328.034283 259.595091 
L 329.699178 264.022682 
L 331.364073 264.424102 
L 333.028969 264.016594 
L 334.693864 264.261463 
L 336.358759 264.360138 
L 338.023654 264.574425 
L 341.353444 264.040108 
L 343.018339 264.692696 
L 344.683234 263.655413 
L 346.348129 264.523828 
L 348.013024 263.808115 
L 349.67792 262.466408 
L 351.342815 264.525507 
L 353.00771 263.424821 
L 354.672605 264.384422 
L 356.3375 264.15089 
L 358.002395 264.469451 
L 359.66729 264.630271 
L 361.332185 264.630971 
L 362.99708 263.336922 
L 364.661976 264.39324 
L 366.326871 262.909119 
L 367.991766 263.714339 
L 369.656661 263.360646 
L 371.321556 264.430121 
L 372.986451 264.083777 
L 374.651346 264.184342 
L 376.316241 264.02989 
L 377.981136 263.257492 
L 379.646031 264.318219 
L 381.310927 264.477639 
L 382.975822 262.718066 
L 384.640717 262.031187 
L 386.305612 264.387292 
L 387.970507 262.321894 
L 389.635402 264.631671 
L 391.300297 260.851629 
L 392.965192 260.394573 
L 394.630087 264.522428 
L 396.294983 264.03311 
L 397.959878 263.998538 
L 399.624773 264.281898 
L 399.624773 264.281898 
" style="fill:none;stroke:#2ca02c;stroke-linecap:square;stroke-width:1.5;"/>
   </g>
   <g id="line2d_21">
    <path clip-path="url(#pdc4a9a161d)" d="M 74.970227 264.120728 
L 76.635122 264.406957 
L 78.300017 263.489834 
L 79.964913 264.11282 
L 81.629808 260.187144 
L 83.294703 264.59591 
L 84.959598 264.037448 
L 88.289388 264.55588 
L 89.954283 264.51634 
L 91.619178 264.187211 
L 93.284073 264.167266 
L 94.948969 264.397229 
L 96.613864 264.425642 
L 98.278759 264.664913 
L 99.943654 264.451816 
L 101.608549 264.410806 
L 103.273444 263.397457 
L 104.938339 263.126695 
L 106.603234 264.276299 
L 108.268129 264.504792 
L 109.933024 263.250984 
L 111.59792 263.399417 
L 113.262815 263.769905 
L 114.92771 263.606915 
L 116.592605 263.632739 
L 118.2575 264.249496 
L 119.922395 263.609505 
L 121.58729 264.593041 
L 123.252185 264.512351 
L 124.91708 263.251614 
L 126.581976 264.283717 
L 128.246871 264.517389 
L 129.911766 263.189679 
L 131.576661 264.569176 
L 134.906451 262.9432 
L 136.571346 264.51592 
L 138.236241 264.277699 
L 139.901136 264.542723 
L 141.566031 264.11226 
L 143.230927 263.229639 
L 144.895822 264.295334 
L 146.560717 262.965175 
L 148.225612 264.381833 
L 149.890507 263.983562 
L 151.555402 264.095674 
L 153.220297 263.325375 
L 154.885192 264.155159 
L 158.214983 263.787471 
L 159.879878 264.456224 
L 161.544773 264.43383 
L 163.209668 264.539364 
L 164.874563 264.101762 
L 166.539458 264.487297 
L 169.869248 264.660434 
L 171.534143 264.07181 
L 173.199038 263.290594 
L 174.863934 264.575755 
L 176.528829 264.584013 
L 178.193724 262.58139 
L 179.858619 263.493334 
L 181.523514 264.574565 
L 183.188409 264.055364 
L 184.853304 264.158168 
L 186.518199 262.696091 
L 188.183094 264.643288 
L 191.512885 264.223952 
L 193.17778 264.195539 
L 194.842675 264.457484 
L 196.50757 264.200998 
L 198.172465 263.580532 
L 199.83736 264.569316 
L 204.832045 264.409966 
L 208.161836 263.91225 
L 209.826731 264.418644 
L 211.491626 264.573025 
L 213.156521 261.930831 
L 214.821416 262.49979 
L 216.486311 264.510461 
L 218.151206 263.691944 
L 219.816101 264.536495 
L 221.480997 264.540344 
L 223.145892 264.301773 
L 224.810787 264.386802 
L 226.475682 263.500542 
L 228.140577 263.737153 
L 229.805472 264.418154 
L 231.470367 264.468052 
L 233.135262 263.653174 
L 234.800157 262.510707 
L 236.465052 263.148249 
L 238.129948 264.004137 
L 239.794843 264.35524 
L 241.459738 264.143332 
L 243.124633 264.421443 
L 244.789528 263.942762 
L 246.454423 264.149561 
L 248.119318 263.766196 
L 249.784213 263.041806 
L 251.449108 264.388621 
L 253.114003 260.900757 
L 254.778899 264.627752 
L 256.443794 262.877906 
L 258.108689 264.591431 
L 259.773584 264.011835 
L 261.438479 264.408076 
L 263.103374 263.581722 
L 264.768269 263.740932 
L 266.433164 260.597033 
L 268.098059 262.970423 
L 269.762955 261.185796 
L 271.42785 263.753669 
L 273.092745 263.879288 
L 274.75764 264.397439 
L 276.422535 264.085946 
L 278.08743 263.100311 
L 279.752325 261.37118 
L 281.41722 261.836355 
L 283.082115 264.299183 
L 284.74701 261.579029 
L 286.411906 261.870017 
L 288.076801 264.437959 
L 289.741696 263.840027 
L 291.406591 264.027301 
L 293.071486 263.838278 
L 294.736381 264.304222 
L 296.401276 264.640489 
L 299.731066 262.182209 
L 301.395962 264.510391 
L 303.060857 260.304925 
L 304.725752 264.336904 
L 306.390647 263.689215 
L 309.720437 264.298624 
L 311.385332 264.211075 
L 314.715122 263.568635 
L 316.380017 263.899723 
L 318.044913 264.074889 
L 319.709808 264.138153 
L 321.374703 264.613615 
L 324.704493 263.755279 
L 326.369388 264.440128 
L 328.034283 262.82283 
L 329.699178 263.483956 
L 331.364073 264.39303 
L 333.028969 264.113939 
L 334.693864 264.506892 
L 336.358759 264.064392 
L 339.688549 264.630551 
L 341.353444 263.805386 
L 343.018339 264.530126 
L 344.683234 264.330676 
L 346.348129 263.374083 
L 348.013024 263.527625 
L 349.67792 263.458622 
L 351.342815 264.532785 
L 353.00771 264.009945 
L 354.672605 264.501223 
L 356.3375 264.019043 
L 358.002395 264.626142 
L 359.66729 264.421863 
L 361.332185 264.641958 
L 362.99708 263.783412 
L 364.661976 264.5535 
L 366.326871 263.699432 
L 367.991766 263.120956 
L 369.656661 264.468681 
L 371.321556 263.651074 
L 372.986451 264.506892 
L 374.651346 264.399958 
L 377.981136 262.397476 
L 379.646031 264.176784 
L 381.310927 264.667292 
L 382.975822 263.475208 
L 384.640717 264.007216 
L 386.305612 263.061471 
L 387.970507 264.049485 
L 389.635402 264.618584 
L 391.300297 262.102639 
L 392.965192 262.108937 
L 394.630087 264.080768 
L 396.294983 263.916658 
L 397.959878 263.630709 
L 399.624773 261.807242 
L 399.624773 261.807242 
" style="fill:none;stroke:#d62728;stroke-linecap:square;stroke-width:1.5;"/>
   </g>
   <g id="line2d_22">
    <path clip-path="url(#pdc4a9a161d)" d="M 74.970227 264.002037 
L 76.635122 264.19302 
L 78.300017 263.853744 
L 79.964913 263.867881 
L 81.629808 261.287831 
L 83.294703 264.278749 
L 84.959598 264.533135 
L 86.624493 264.267831 
L 88.289388 264.542373 
L 89.954283 264.622713 
L 93.284073 264.155929 
L 94.948969 264.284067 
L 96.613864 264.535445 
L 98.278759 264.643218 
L 101.608549 264.479179 
L 103.273444 262.422319 
L 104.938339 263.805246 
L 106.603234 264.254185 
L 108.268129 264.491986 
L 109.933024 264.424032 
L 111.59792 263.573534 
L 113.262815 264.59535 
L 114.92771 263.571574 
L 116.592605 263.095832 
L 118.2575 264.134444 
L 119.922395 263.680607 
L 121.58729 264.631041 
L 123.252185 264.5549 
L 124.91708 263.471079 
L 126.581976 264.490796 
L 128.246871 264.198548 
L 131.576661 264.356569 
L 133.241556 264.022752 
L 134.906451 263.878938 
L 136.571346 264.519839 
L 138.236241 264.065372 
L 139.901136 264.422353 
L 143.230927 264.340193 
L 144.895822 264.269371 
L 146.560717 262.653682 
L 148.225612 264.285397 
L 149.890507 264.457904 
L 151.555402 264.517739 
L 153.220297 263.95081 
L 154.885192 264.363288 
L 156.550087 264.092385 
L 158.214983 264.2728 
L 159.879878 264.59339 
L 163.209668 264.551191 
L 164.874563 264.174125 
L 166.539458 264.43355 
L 168.204353 264.318219 
L 169.869248 264.628172 
L 171.534143 263.512159 
L 173.199038 263.724696 
L 174.863934 264.428791 
L 176.528829 264.385962 
L 178.193724 263.883837 
L 179.858619 263.860252 
L 181.523514 264.563858 
L 184.853304 263.956409 
L 186.518199 264.022822 
L 188.183094 264.679959 
L 191.512885 264.412905 
L 193.17778 264.626282 
L 194.842675 264.559589 
L 196.50757 263.834359 
L 198.172465 264.286377 
L 199.83736 264.226961 
L 201.502255 264.564977 
L 203.16715 264.662113 
L 204.832045 264.491496 
L 206.496941 264.541253 
L 208.161836 263.696633 
L 209.826731 264.402478 
L 211.491626 264.421513 
L 213.156521 263.036487 
L 214.821416 262.428898 
L 216.486311 264.543213 
L 218.151206 264.43348 
L 219.816101 264.541813 
L 221.480997 264.504373 
L 223.145892 263.841217 
L 224.810787 264.259993 
L 226.475682 264.141443 
L 228.140577 264.43341 
L 229.805472 264.211075 
L 231.470367 264.524877 
L 233.135262 263.956409 
L 234.800157 263.808325 
L 236.465052 263.252033 
L 238.129948 263.651004 
L 239.794843 263.762487 
L 241.459738 263.438467 
L 243.124633 264.563998 
L 246.454423 264.226681 
L 248.119318 264.547202 
L 249.784213 264.199038 
L 251.449108 264.332425 
L 253.114003 263.143001 
L 254.778899 264.653785 
L 256.443794 264.221573 
L 258.108689 264.535305 
L 259.773584 264.091335 
L 261.438479 264.395969 
L 263.103374 264.215904 
L 264.768269 264.185602 
L 266.433164 262.815692 
L 268.098059 264.052495 
L 269.762955 264.370636 
L 271.42785 264.493805 
L 273.092745 263.90959 
L 274.75764 264.321578 
L 276.422535 264.498494 
L 278.08743 264.304502 
L 279.752325 262.518895 
L 281.41722 263.800977 
L 283.082115 264.182243 
L 284.74701 264.369166 
L 286.411906 264.000428 
L 288.076801 264.518649 
L 289.741696 263.977333 
L 291.406591 264.167056 
L 293.071486 264.114359 
L 294.736381 264.367626 
L 296.401276 263.742612 
L 298.066171 264.427042 
L 299.731066 264.282738 
L 301.395962 264.509271 
L 303.060857 263.409354 
L 304.725752 264.55462 
L 306.390647 264.040948 
L 308.055542 264.075869 
L 309.720437 264.338584 
L 311.385332 263.865291 
L 313.050227 264.503603 
L 314.715122 264.073909 
L 316.380017 263.976004 
L 318.044913 264.327806 
L 319.709808 264.527537 
L 321.374703 263.008144 
L 323.039598 264.518369 
L 324.704493 264.534535 
L 326.369388 263.637358 
L 328.034283 264.119538 
L 329.699178 263.946401 
L 331.364073 264.531456 
L 333.028969 264.214155 
L 334.693864 264.598919 
L 336.358759 264.429491 
L 339.688549 264.469451 
L 341.353444 264.250616 
L 343.018339 264.547692 
L 344.683234 264.602838 
L 346.348129 264.195609 
L 348.013024 263.937023 
L 351.342815 264.453705 
L 353.00771 263.836808 
L 354.672605 264.523898 
L 358.002395 264.396039 
L 359.66729 264.581143 
L 361.332185 264.632651 
L 362.99708 264.351251 
L 364.661976 264.495905 
L 366.326871 264.19218 
L 367.991766 264.201278 
L 369.656661 264.090915 
L 371.321556 264.266012 
L 372.986451 264.579114 
L 374.651346 264.637829 
L 376.316241 263.020251 
L 379.646031 264.351391 
L 381.310927 264.633071 
L 382.975822 264.104002 
L 384.640717 261.632845 
L 386.305612 264.544193 
L 387.970507 263.718748 
L 389.635402 264.622783 
L 391.300297 264.077758 
L 394.630087 264.427672 
L 396.294983 263.805806 
L 397.959878 263.940243 
L 399.624773 264.278399 
L 399.624773 264.278399 
" style="fill:none;stroke:#9467bd;stroke-linecap:square;stroke-width:1.5;"/>
   </g>
   <g id="line2d_23">
    <path clip-path="url(#pdc4a9a161d)" d="M 74.970227 263.832609 
L 76.635122 264.572466 
L 78.300017 264.15075 
L 79.964913 264.305622 
L 81.629808 262.753407 
L 83.294703 264.373085 
L 84.959598 264.477009 
L 86.624493 264.378754 
L 88.289388 264.579394 
L 91.619178 264.59647 
L 93.284073 263.123755 
L 94.948969 264.479249 
L 98.278759 264.681499 
L 99.943654 264.659314 
L 101.608549 264.164537 
L 106.603234 264.268391 
L 108.268129 264.612566 
L 109.933024 264.253345 
L 113.262815 264.323467 
L 114.92771 264.264962 
L 116.592605 263.970405 
L 118.2575 264.293025 
L 119.922395 264.212755 
L 121.58729 264.497864 
L 123.252185 264.589052 
L 124.91708 262.29908 
L 126.581976 264.4325 
L 128.246871 264.608857 
L 129.911766 263.624411 
L 131.576661 264.102672 
L 133.241556 264.176994 
L 134.906451 263.963057 
L 136.571346 264.549721 
L 138.236241 264.11373 
L 139.901136 264.240468 
L 141.566031 264.251455 
L 143.230927 264.009595 
L 144.895822 264.414165 
L 146.560717 263.54855 
L 148.225612 264.129336 
L 149.890507 264.391001 
L 151.555402 264.498354 
L 153.220297 264.207856 
L 154.885192 264.356569 
L 156.550087 264.296804 
L 158.214983 264.39331 
L 159.879878 264.632301 
L 166.539458 264.454545 
L 169.869248 264.587932 
L 171.534143 264.324027 
L 173.199038 263.18562 
L 174.863934 264.519769 
L 178.193724 264.084197 
L 179.858619 263.967746 
L 181.523514 264.630551 
L 183.188409 264.059633 
L 184.853304 263.839678 
L 186.518199 264.143682 
L 188.183094 264.687727 
L 189.84799 264.423753 
L 191.512885 264.610536 
L 193.17778 264.55595 
L 194.842675 264.616345 
L 196.50757 264.024572 
L 199.83736 264.564838 
L 206.496941 264.612216 
L 208.161836 264.403388 
L 209.826731 264.351181 
L 211.491626 264.551891 
L 213.156521 263.962707 
L 214.821416 264.096444 
L 216.486311 264.530546 
L 219.816101 264.230111 
L 221.480997 264.463993 
L 223.145892 264.279448 
L 224.810787 264.485897 
L 226.475682 264.142982 
L 228.140577 263.977053 
L 231.470367 264.591151 
L 234.800157 263.977613 
L 236.465052 264.205267 
L 239.794843 264.258174 
L 241.459738 262.888054 
L 243.124633 264.560009 
L 244.789528 264.31283 
L 249.784213 264.35328 
L 251.449108 264.59717 
L 253.114003 263.818963 
L 254.778899 264.673311 
L 256.443794 263.794749 
L 258.108689 264.464832 
L 259.773584 264.31402 
L 261.438479 264.582333 
L 263.103374 264.294565 
L 266.433164 264.226611 
L 268.098059 264.402758 
L 269.762955 264.389671 
L 271.42785 264.608787 
L 273.092745 264.223392 
L 274.75764 264.584993 
L 276.422535 264.523408 
L 279.752325 264.051165 
L 281.41722 263.690055 
L 283.082115 264.521448 
L 284.74701 264.368326 
L 286.411906 263.563946 
L 288.076801 264.455875 
L 289.741696 264.261113 
L 291.406591 264.437749 
L 293.071486 264.130035 
L 294.736381 264.440478 
L 298.066171 264.371685 
L 299.731066 264.348801 
L 301.395962 264.604448 
L 303.060857 264.214574 
L 304.725752 264.551331 
L 306.390647 264.114709 
L 308.055542 264.482538 
L 309.720437 264.63482 
L 311.385332 263.91218 
L 313.050227 264.577784 
L 314.715122 264.401638 
L 316.380017 264.058163 
L 318.044913 264.385052 
L 319.709808 264.505422 
L 321.374703 264.303103 
L 323.039598 264.616905 
L 324.704493 264.612916 
L 326.369388 263.818613 
L 328.034283 264.039898 
L 329.699178 264.383722 
L 331.364073 264.493525 
L 333.028969 264.266222 
L 334.693864 264.544263 
L 336.358759 264.419344 
L 338.023654 263.91176 
L 339.688549 264.63419 
L 341.353444 264.422773 
L 343.018339 264.583943 
L 346.348129 264.31206 
L 348.013024 263.928416 
L 351.342815 264.463013 
L 353.00771 263.499282 
L 354.672605 264.444887 
L 358.002395 264.248166 
L 359.66729 264.614105 
L 361.332185 264.590031 
L 362.99708 264.248656 
L 364.661976 264.599339 
L 366.326871 263.867041 
L 367.991766 264.328016 
L 371.321556 264.332565 
L 372.986451 264.626142 
L 374.651346 264.500384 
L 376.316241 264.144732 
L 377.981136 264.336064 
L 379.646031 264.156279 
L 381.310927 264.614595 
L 384.640717 263.810005 
L 386.305612 264.59479 
L 387.970507 264.060193 
L 389.635402 264.638389 
L 391.300297 264.136474 
L 392.965192 263.820082 
L 394.630087 264.578484 
L 396.294983 264.054384 
L 397.959878 264.078178 
L 399.624773 264.243197 
L 399.624773 264.243197 
" style="fill:none;stroke:#8c564b;stroke-linecap:square;stroke-width:1.5;"/>
   </g>
   <g id="line2d_24">
    <path clip-path="url(#pdc4a9a161d)" d="M 74.970227 264.546222 
L 76.635122 264.607037 
L 78.300017 263.844856 
L 79.964913 264.605078 
L 81.629808 264.294705 
L 83.294703 264.621314 
L 89.954283 264.679749 
L 91.619178 264.654765 
L 93.284073 264.290156 
L 94.948969 264.558469 
L 98.278759 264.682828 
L 99.943654 264.653995 
L 101.608549 264.464342 
L 106.603234 264.522918 
L 108.268129 264.687937 
L 113.262815 264.646577 
L 114.92771 264.275599 
L 116.592605 264.256284 
L 118.2575 264.63643 
L 119.922395 264.376024 
L 121.58729 264.647907 
L 123.252185 264.55637 
L 124.91708 264.348801 
L 126.581976 264.568057 
L 128.246871 264.604378 
L 129.911766 264.141723 
L 131.576661 264.616555 
L 133.241556 264.237389 
L 136.571346 264.609906 
L 138.236241 264.403808 
L 139.901136 264.55532 
L 141.566031 264.386942 
L 144.895822 264.642518 
L 146.560717 264.339913 
L 148.225612 264.59479 
L 156.550087 264.47596 
L 158.214983 264.338584 
L 159.879878 264.673101 
L 168.204353 264.528167 
L 169.869248 264.658754 
L 171.534143 264.626702 
L 173.199038 264.460843 
L 174.863934 264.615785 
L 176.528829 264.627822 
L 179.858619 264.159708 
L 181.523514 264.566797 
L 186.518199 264.477779 
L 188.183094 264.690246 
L 191.512885 264.506962 
L 196.50757 264.599409 
L 206.496941 264.655465 
L 208.161836 264.560359 
L 211.491626 264.646157 
L 213.156521 264.538664 
L 214.821416 264.176084 
L 216.486311 264.612146 
L 219.816101 264.523338 
L 221.480997 264.615295 
L 223.145892 264.345512 
L 224.810787 264.646017 
L 226.475682 264.408146 
L 228.140577 264.412275 
L 229.805472 264.67506 
L 234.800157 264.221293 
L 236.465052 264.583943 
L 243.124633 264.669182 
L 244.789528 264.175524 
L 246.454423 264.557769 
L 249.784213 264.565677 
L 251.449108 264.610816 
L 253.114003 264.504513 
L 254.778899 264.687657 
L 259.773584 264.611096 
L 263.103374 264.540274 
L 264.768269 264.466652 
L 266.433164 264.605427 
L 268.098059 264.47519 
L 271.42785 264.654835 
L 273.092745 264.495275 
L 274.75764 264.682548 
L 276.422535 264.6372 
L 278.08743 264.396529 
L 279.752325 264.521168 
L 281.41722 264.39527 
L 283.082115 264.663933 
L 284.74701 264.487997 
L 286.411906 264.51298 
L 288.076801 264.67478 
L 289.741696 264.172865 
L 291.406591 264.459024 
L 296.401276 264.647277 
L 298.066171 264.437119 
L 301.395962 264.665123 
L 303.060857 264.463993 
L 304.725752 264.630411 
L 308.055542 264.410386 
L 309.720437 264.644478 
L 311.385332 264.570576 
L 314.715122 264.604938 
L 316.380017 264.530756 
L 319.709808 264.577084 
L 321.374703 264.495065 
L 323.039598 264.670791 
L 324.704493 264.626492 
L 326.369388 264.356989 
L 331.364073 264.659664 
L 333.028969 264.076499 
L 334.693864 264.670161 
L 336.358759 264.432011 
L 339.688549 264.621383 
L 341.353444 264.279868 
L 343.018339 264.648187 
L 351.342815 264.611936 
L 353.00771 264.39485 
L 354.672605 264.063692 
L 356.3375 264.247956 
L 358.002395 264.641469 
L 361.332185 264.616625 
L 362.99708 264.270771 
L 364.661976 264.615365 
L 366.326871 264.420253 
L 367.991766 264.549791 
L 369.656661 264.385682 
L 371.321556 264.591431 
L 374.651346 264.645458 
L 376.316241 264.585972 
L 377.981136 264.255724 
L 379.646031 264.530196 
L 381.310927 264.637829 
L 384.640717 264.477779 
L 386.305612 264.610326 
L 387.970507 264.527957 
L 389.635402 264.681569 
L 391.300297 264.346282 
L 394.630087 264.591361 
L 399.624773 264.404087 
L 399.624773 264.404087 
" style="fill:none;stroke:#e377c2;stroke-linecap:square;stroke-width:1.5;"/>
   </g>
   <g id="line2d_25">
    <path clip-path="url(#pdc4a9a161d)" d="M 74.970227 264.511161 
L 76.635122 264.502413 
L 78.300017 263.856823 
L 79.964913 264.518019 
L 81.629808 264.018553 
L 83.294703 264.67401 
L 84.959598 264.478269 
L 86.624493 264.446427 
L 88.289388 264.646997 
L 89.954283 264.662883 
L 91.619178 264.545452 
L 93.284073 264.129616 
L 94.948969 264.544683 
L 98.278759 264.665752 
L 101.608549 264.382463 
L 103.273444 264.237109 
L 106.603234 264.647347 
L 109.933024 264.613685 
L 111.59792 264.044377 
L 113.262815 264.482818 
L 114.92771 264.289106 
L 116.592605 264.216534 
L 118.2575 264.568617 
L 119.922395 264.493735 
L 121.58729 264.667642 
L 123.252185 264.63433 
L 124.91708 264.212405 
L 126.581976 264.624743 
L 128.246871 264.639019 
L 129.911766 264.330816 
L 131.576661 264.592061 
L 133.241556 264.257964 
L 134.906451 264.347611 
L 136.571346 264.625932 
L 138.236241 264.520748 
L 139.901136 264.582333 
L 143.230927 264.407587 
L 144.895822 264.55336 
L 148.225612 264.361118 
L 151.555402 264.627542 
L 153.220297 264.261743 
L 156.550087 264.530616 
L 158.214983 264.189591 
L 159.879878 264.613056 
L 163.209668 264.643638 
L 164.874563 264.430821 
L 166.539458 264.456434 
L 168.204353 264.611446 
L 171.534143 264.606967 
L 173.199038 264.415425 
L 174.863934 264.579044 
L 176.528829 264.630411 
L 179.858619 264.359998 
L 181.523514 264.643288 
L 183.188409 264.445867 
L 188.183094 264.688497 
L 194.842675 264.653575 
L 214.821416 264.55588 
L 216.486311 264.659104 
L 218.151206 264.43586 
L 219.816101 264.488277 
L 221.480997 264.664843 
L 223.145892 264.537334 
L 224.810787 264.638039 
L 226.475682 264.609346 
L 228.140577 264.398279 
L 229.805472 264.650636 
L 236.465052 264.615015 
L 238.129948 264.457344 
L 239.794843 264.570086 
L 241.459738 264.418084 
L 243.124633 264.647417 
L 244.789528 264.403458 
L 246.454423 264.665613 
L 249.784213 264.55441 
L 254.778899 264.692066 
L 264.768269 264.577714 
L 269.762955 264.582403 
L 271.42785 264.649656 
L 274.75764 264.648537 
L 276.422535 264.673591 
L 278.08743 264.516829 
L 279.752325 264.605987 
L 281.41722 264.397719 
L 283.082115 264.678349 
L 284.74701 264.451396 
L 286.411906 264.350691 
L 288.076801 264.673311 
L 289.741696 264.600109 
L 291.406591 264.643008 
L 294.736381 264.478619 
L 296.401276 264.659874 
L 298.066171 264.411506 
L 299.731066 264.614385 
L 301.395962 264.662673 
L 303.060857 264.565677 
L 304.725752 264.667012 
L 306.390647 264.447477 
L 308.055542 264.461263 
L 309.720437 264.626282 
L 311.385332 264.561548 
L 314.715122 264.612216 
L 318.044913 264.644828 
L 319.709808 264.664773 
L 321.374703 264.565257 
L 324.704493 264.664703 
L 329.699178 264.574845 
L 331.364073 264.671491 
L 333.028969 264.503743 
L 334.693864 264.668622 
L 336.358759 264.533135 
L 339.688549 264.680169 
L 341.353444 264.490796 
L 343.018339 264.662393 
L 344.683234 264.672051 
L 346.348129 264.535935 
L 351.342815 264.670231 
L 353.00771 264.523548 
L 354.672605 264.605987 
L 356.3375 264.453635 
L 361.332185 264.678909 
L 366.326871 264.520469 
L 367.991766 264.626282 
L 372.986451 264.671281 
L 374.651346 264.671841 
L 376.316241 264.464342 
L 377.981136 264.566237 
L 379.646031 264.431101 
L 381.310927 264.672261 
L 384.640717 264.564418 
L 387.970507 264.646017 
L 389.635402 264.686467 
L 391.300297 264.521028 
L 396.294983 264.579184 
L 399.624773 264.582123 
L 399.624773 264.582123 
" style="fill:none;stroke:#7f7f7f;stroke-linecap:square;stroke-width:1.5;"/>
   </g>
   <g id="line2d_26">
    <path clip-path="url(#pdc4a9a161d)" d="M 74.970227 264.699064 
L 133.241556 264.694655 
L 399.624773 264.696685 
L 399.624773 264.696685 
" style="fill:none;stroke:#bcbd22;stroke-linecap:square;stroke-width:1.5;"/>
   </g>
   <g id="line2d_27">
    <path clip-path="url(#pdc4a9a161d)" d="M 74.970227 264.699064 
L 121.58729 264.696195 
L 364.661976 264.697874 
L 399.624773 264.697595 
L 399.624773 264.697595 
" style="fill:none;stroke:#17becf;stroke-linecap:square;stroke-width:1.5;"/>
   </g>
   <g id="line2d_28">
    <path clip-path="url(#pdc4a9a161d)" d="M 74.970227 264.696405 
L 149.890507 264.694935 
L 173.199038 264.706062 
L 194.842675 264.693116 
L 213.156521 264.696195 
L 229.805472 264.673661 
L 238.129948 264.696055 
L 298.066171 264.689966 
L 311.385332 264.693816 
L 399.624773 264.695565 
L 399.624773 264.695565 
" style="fill:none;stroke:#1f77b4;stroke-linecap:square;stroke-width:1.5;"/>
   </g>
   <g id="line2d_29">
    <path clip-path="url(#pdc4a9a161d)" d="M 74.970227 264.699064 
L 399.624773 264.699064 
L 399.624773 264.699064 
" style="fill:none;stroke:#ff7f0e;stroke-linecap:square;stroke-width:1.5;"/>
   </g>
   <g id="patch_3">
    <path d="M 58.7375 276.812 
L 58.7375 10.7 
" style="fill:none;stroke:#000000;stroke-linecap:square;stroke-linejoin:miter;stroke-width:0.8;"/>
   </g>
   <g id="patch_4">
    <path d="M 415.8575 276.812 
L 415.8575 10.7 
" style="fill:none;stroke:#000000;stroke-linecap:square;stroke-linejoin:miter;stroke-width:0.8;"/>
   </g>
   <g id="patch_5">
    <path d="M 58.7375 276.812 
L 415.8575 276.812 
" style="fill:none;stroke:#000000;stroke-linecap:square;stroke-linejoin:miter;stroke-width:0.8;"/>
   </g>
   <g id="patch_6">
    <path d="M 58.7375 10.7 
L 415.8575 10.7 
" style="fill:none;stroke:#000000;stroke-linecap:square;stroke-linejoin:miter;stroke-width:0.8;"/>
   </g>
   <g id="legend_1">
    <g id="patch_7">
     <path d="M 318.504375 165.48125 
L 408.8575 165.48125 
Q 410.8575 165.48125 410.8575 163.48125 
L 410.8575 17.7 
Q 410.8575 15.7 408.8575 15.7 
L 318.504375 15.7 
Q 316.504375 15.7 316.504375 17.7 
L 316.504375 163.48125 
Q 316.504375 165.48125 318.504375 165.48125 
z
" style="fill:#ffffff;opacity:0.8;stroke:#cccccc;stroke-linejoin:miter;"/>
    </g>
    <g id="line2d_30">
     <path d="M 320.504375 23.798437 
L 340.504375 23.798437 
" style="fill:none;stroke:#1f77b4;stroke-linecap:square;stroke-width:1.5;"/>
    </g>
    <g id="line2d_31"/>
    <g id="text_18">
     <!-- delta -->
     <defs>
      <path d="M 45.40625 46.390625 
L 45.40625 75.984375 
L 54.390625 75.984375 
L 54.390625 0 
L 45.40625 0 
L 45.40625 8.203125 
Q 42.578125 3.328125 38.25 0.953125 
Q 33.9375 -1.421875 27.875 -1.421875 
Q 17.96875 -1.421875 11.734375 6.484375 
Q 5.515625 14.40625 5.515625 27.296875 
Q 5.515625 40.1875 11.734375 48.09375 
Q 17.96875 56 27.875 56 
Q 33.9375 56 38.25 53.625 
Q 42.578125 51.265625 45.40625 46.390625 
M 14.796875 27.296875 
Q 14.796875 17.390625 18.875 11.75 
Q 22.953125 6.109375 30.078125 6.109375 
Q 37.203125 6.109375 41.296875 11.75 
Q 45.40625 17.390625 45.40625 27.296875 
Q 45.40625 37.203125 41.296875 42.84375 
Q 37.203125 48.484375 30.078125 48.484375 
Q 22.953125 48.484375 18.875 42.84375 
Q 14.796875 37.203125 14.796875 27.296875 
" id="DejaVuSans-64"/>
      <path d="M 56.203125 29.59375 
L 56.203125 25.203125 
L 14.890625 25.203125 
Q 15.484375 15.921875 20.484375 11.0625 
Q 25.484375 6.203125 34.421875 6.203125 
Q 39.59375 6.203125 44.453125 7.46875 
Q 49.3125 8.734375 54.109375 11.28125 
L 54.109375 2.78125 
Q 49.265625 0.734375 44.1875 -0.34375 
Q 39.109375 -1.421875 33.890625 -1.421875 
Q 20.796875 -1.421875 13.15625 6.1875 
Q 5.515625 13.8125 5.515625 26.8125 
Q 5.515625 40.234375 12.765625 48.109375 
Q 20.015625 56 32.328125 56 
Q 43.359375 56 49.78125 48.890625 
Q 56.203125 41.796875 56.203125 29.59375 
M 47.21875 32.234375 
Q 47.125 39.59375 43.09375 43.984375 
Q 39.0625 48.390625 32.421875 48.390625 
Q 24.90625 48.390625 20.390625 44.140625 
Q 15.875 39.890625 15.1875 32.171875 
z
" id="DejaVuSans-65"/>
      <path d="M 9.421875 75.984375 
L 18.40625 75.984375 
L 18.40625 0 
L 9.421875 0 
z
" id="DejaVuSans-6c"/>
      <path d="M 18.3125 70.21875 
L 18.3125 54.6875 
L 36.8125 54.6875 
L 36.8125 47.703125 
L 18.3125 47.703125 
L 18.3125 18.015625 
Q 18.3125 11.328125 20.140625 9.421875 
Q 21.96875 7.515625 27.59375 7.515625 
L 36.8125 7.515625 
L 36.8125 0 
L 27.59375 0 
Q 17.1875 0 13.234375 3.875 
Q 9.28125 7.765625 9.28125 18.015625 
L 9.28125 47.703125 
L 2.6875 47.703125 
L 2.6875 54.6875 
L 9.28125 54.6875 
L 9.28125 70.21875 
z
" id="DejaVuSans-74"/>
      <path d="M 34.28125 27.484375 
Q 23.390625 27.484375 19.1875 25 
Q 14.984375 22.515625 14.984375 16.5 
Q 14.984375 11.71875 18.140625 8.90625 
Q 21.296875 6.109375 26.703125 6.109375 
Q 34.1875 6.109375 38.703125 11.40625 
Q 43.21875 16.703125 43.21875 25.484375 
L 43.21875 27.484375 
z
M 52.203125 31.203125 
L 52.203125 0 
L 43.21875 0 
L 43.21875 8.296875 
Q 40.140625 3.328125 35.546875 0.953125 
Q 30.953125 -1.421875 24.3125 -1.421875 
Q 15.921875 -1.421875 10.953125 3.296875 
Q 6 8.015625 6 15.921875 
Q 6 25.140625 12.171875 29.828125 
Q 18.359375 34.515625 30.609375 34.515625 
L 43.21875 34.515625 
L 43.21875 35.40625 
Q 43.21875 41.609375 39.140625 45 
Q 35.0625 48.390625 27.6875 48.390625 
Q 23 48.390625 18.546875 47.265625 
Q 14.109375 46.140625 10.015625 43.890625 
L 10.015625 52.203125 
Q 14.9375 54.109375 19.578125 55.046875 
Q 24.21875 56 28.609375 56 
Q 40.484375 56 46.34375 49.84375 
Q 52.203125 43.703125 52.203125 31.203125 
" id="DejaVuSans-61"/>
     </defs>
     <g transform="translate(348.504375 27.298437)scale(0.1 -0.1)">
      <use xlink:href="#DejaVuSans-64"/>
      <use x="63.476562" xlink:href="#DejaVuSans-65"/>
      <use x="125" xlink:href="#DejaVuSans-6c"/>
      <use x="152.783203" xlink:href="#DejaVuSans-74"/>
      <use x="191.992188" xlink:href="#DejaVuSans-61"/>
     </g>
    </g>
    <g id="line2d_32">
     <path d="M 320.504375 38.476562 
L 340.504375 38.476562 
" style="fill:none;stroke:#ff7f0e;stroke-linecap:square;stroke-width:1.5;"/>
    </g>
    <g id="line2d_33"/>
    <g id="text_19">
     <!-- lowAlpha -->
     <defs>
      <path d="M 30.609375 48.390625 
Q 23.390625 48.390625 19.1875 42.75 
Q 14.984375 37.109375 14.984375 27.296875 
Q 14.984375 17.484375 19.15625 11.84375 
Q 23.34375 6.203125 30.609375 6.203125 
Q 37.796875 6.203125 41.984375 11.859375 
Q 46.1875 17.53125 46.1875 27.296875 
Q 46.1875 37.015625 41.984375 42.703125 
Q 37.796875 48.390625 30.609375 48.390625 
M 30.609375 56 
Q 42.328125 56 49.015625 48.375 
Q 55.71875 40.765625 55.71875 27.296875 
Q 55.71875 13.875 49.015625 6.21875 
Q 42.328125 -1.421875 30.609375 -1.421875 
Q 18.84375 -1.421875 12.171875 6.21875 
Q 5.515625 13.875 5.515625 27.296875 
Q 5.515625 40.765625 12.171875 48.375 
Q 18.84375 56 30.609375 56 
" id="DejaVuSans-6f"/>
      <path d="M 4.203125 54.6875 
L 13.1875 54.6875 
L 24.421875 12.015625 
L 35.59375 54.6875 
L 46.1875 54.6875 
L 57.421875 12.015625 
L 68.609375 54.6875 
L 77.59375 54.6875 
L 63.28125 0 
L 52.6875 0 
L 40.921875 44.828125 
L 29.109375 0 
L 18.5 0 
z
" id="DejaVuSans-77"/>
      <path d="M 34.1875 63.1875 
L 20.796875 26.90625 
L 47.609375 26.90625 
z
M 28.609375 72.90625 
L 39.796875 72.90625 
L 67.578125 0 
L 57.328125 0 
L 50.6875 18.703125 
L 17.828125 18.703125 
L 11.1875 0 
L 0.78125 0 
z
" id="DejaVuSans-41"/>
      <path d="M 18.109375 8.203125 
L 18.109375 -20.796875 
L 9.078125 -20.796875 
L 9.078125 54.6875 
L 18.109375 54.6875 
L 18.109375 46.390625 
Q 20.953125 51.265625 25.265625 53.625 
Q 29.59375 56 35.59375 56 
Q 45.5625 56 51.78125 48.09375 
Q 58.015625 40.1875 58.015625 27.296875 
Q 58.015625 14.40625 51.78125 6.484375 
Q 45.5625 -1.421875 35.59375 -1.421875 
Q 29.59375 -1.421875 25.265625 0.953125 
Q 20.953125 3.328125 18.109375 8.203125 
M 48.6875 27.296875 
Q 48.6875 37.203125 44.609375 42.84375 
Q 40.53125 48.484375 33.40625 48.484375 
Q 26.265625 48.484375 22.1875 42.84375 
Q 18.109375 37.203125 18.109375 27.296875 
Q 18.109375 17.390625 22.1875 11.75 
Q 26.265625 6.109375 33.40625 6.109375 
Q 40.53125 6.109375 44.609375 11.75 
Q 48.6875 17.390625 48.6875 27.296875 
" id="DejaVuSans-70"/>
      <path d="M 54.890625 33.015625 
L 54.890625 0 
L 45.90625 0 
L 45.90625 32.71875 
Q 45.90625 40.484375 42.875 44.328125 
Q 39.84375 48.1875 33.796875 48.1875 
Q 26.515625 48.1875 22.3125 43.546875 
Q 18.109375 38.921875 18.109375 30.90625 
L 18.109375 0 
L 9.078125 0 
L 9.078125 75.984375 
L 18.109375 75.984375 
L 18.109375 46.1875 
Q 21.34375 51.125 25.703125 53.5625 
Q 30.078125 56 35.796875 56 
Q 45.21875 56 50.046875 50.171875 
Q 54.890625 44.34375 54.890625 33.015625 
" id="DejaVuSans-68"/>
     </defs>
     <g transform="translate(348.504375 41.976562)scale(0.1 -0.1)">
      <use xlink:href="#DejaVuSans-6c"/>
      <use x="27.783203" xlink:href="#DejaVuSans-6f"/>
      <use x="88.964844" xlink:href="#DejaVuSans-77"/>
      <use x="170.751953" xlink:href="#DejaVuSans-41"/>
      <use x="239.160156" xlink:href="#DejaVuSans-6c"/>
      <use x="266.943359" xlink:href="#DejaVuSans-70"/>
      <use x="330.419922" xlink:href="#DejaVuSans-68"/>
      <use x="393.798828" xlink:href="#DejaVuSans-61"/>
     </g>
    </g>
    <g id="line2d_34">
     <path d="M 320.504375 53.154687 
L 340.504375 53.154687 
" style="fill:none;stroke:#2ca02c;stroke-linecap:square;stroke-width:1.5;"/>
    </g>
    <g id="line2d_35"/>
    <g id="text_20">
     <!-- highAlpha -->
     <defs>
      <path d="M 9.421875 54.6875 
L 18.40625 54.6875 
L 18.40625 0 
L 9.421875 0 
z
M 9.421875 75.984375 
L 18.40625 75.984375 
L 18.40625 64.59375 
L 9.421875 64.59375 
z
" id="DejaVuSans-69"/>
      <path d="M 45.40625 27.984375 
Q 45.40625 37.75 41.375 43.109375 
Q 37.359375 48.484375 30.078125 48.484375 
Q 22.859375 48.484375 18.828125 43.109375 
Q 14.796875 37.75 14.796875 27.984375 
Q 14.796875 18.265625 18.828125 12.890625 
Q 22.859375 7.515625 30.078125 7.515625 
Q 37.359375 7.515625 41.375 12.890625 
Q 45.40625 18.265625 45.40625 27.984375 
M 54.390625 6.78125 
Q 54.390625 -7.171875 48.1875 -13.984375 
Q 42 -20.796875 29.203125 -20.796875 
Q 24.46875 -20.796875 20.265625 -20.09375 
Q 16.0625 -19.390625 12.109375 -17.921875 
L 12.109375 -9.1875 
Q 16.0625 -11.328125 19.921875 -12.34375 
Q 23.78125 -13.375 27.78125 -13.375 
Q 36.625 -13.375 41.015625 -8.765625 
Q 45.40625 -4.15625 45.40625 5.171875 
L 45.40625 9.625 
Q 42.625 4.78125 38.28125 2.390625 
Q 33.9375 0 27.875 0 
Q 17.828125 0 11.671875 7.65625 
Q 5.515625 15.328125 5.515625 27.984375 
Q 5.515625 40.671875 11.671875 48.328125 
Q 17.828125 56 27.875 56 
Q 33.9375 56 38.28125 53.609375 
Q 42.625 51.21875 45.40625 46.390625 
L 45.40625 54.6875 
L 54.390625 54.6875 
z
" id="DejaVuSans-67"/>
     </defs>
     <g transform="translate(348.504375 56.654687)scale(0.1 -0.1)">
      <use xlink:href="#DejaVuSans-68"/>
      <use x="63.378906" xlink:href="#DejaVuSans-69"/>
      <use x="91.162109" xlink:href="#DejaVuSans-67"/>
      <use x="154.638672" xlink:href="#DejaVuSans-68"/>
      <use x="218.017578" xlink:href="#DejaVuSans-41"/>
      <use x="286.425781" xlink:href="#DejaVuSans-6c"/>
      <use x="314.208984" xlink:href="#DejaVuSans-70"/>
      <use x="377.685547" xlink:href="#DejaVuSans-68"/>
      <use x="441.064453" xlink:href="#DejaVuSans-61"/>
     </g>
    </g>
    <g id="line2d_36">
     <path d="M 320.504375 67.832812 
L 340.504375 67.832812 
" style="fill:none;stroke:#d62728;stroke-linecap:square;stroke-width:1.5;"/>
    </g>
    <g id="line2d_37"/>
    <g id="text_21">
     <!-- lowBeta -->
     <defs>
      <path d="M 19.671875 34.8125 
L 19.671875 8.109375 
L 35.5 8.109375 
Q 43.453125 8.109375 47.28125 11.40625 
Q 51.125 14.703125 51.125 21.484375 
Q 51.125 28.328125 47.28125 31.5625 
Q 43.453125 34.8125 35.5 34.8125 
z
M 19.671875 64.796875 
L 19.671875 42.828125 
L 34.28125 42.828125 
Q 41.5 42.828125 45.03125 45.53125 
Q 48.578125 48.25 48.578125 53.8125 
Q 48.578125 59.328125 45.03125 62.0625 
Q 41.5 64.796875 34.28125 64.796875 
z
M 9.8125 72.90625 
L 35.015625 72.90625 
Q 46.296875 72.90625 52.390625 68.21875 
Q 58.5 63.53125 58.5 54.890625 
Q 58.5 48.1875 55.375 44.234375 
Q 52.25 40.28125 46.1875 39.3125 
Q 53.46875 37.75 57.5 32.78125 
Q 61.53125 27.828125 61.53125 20.40625 
Q 61.53125 10.640625 54.890625 5.3125 
Q 48.25 0 35.984375 0 
L 9.8125 0 
z
" id="DejaVuSans-42"/>
     </defs>
     <g transform="translate(348.504375 71.332812)scale(0.1 -0.1)">
      <use xlink:href="#DejaVuSans-6c"/>
      <use x="27.783203" xlink:href="#DejaVuSans-6f"/>
      <use x="88.964844" xlink:href="#DejaVuSans-77"/>
      <use x="170.751953" xlink:href="#DejaVuSans-42"/>
      <use x="239.355469" xlink:href="#DejaVuSans-65"/>
      <use x="300.878906" xlink:href="#DejaVuSans-74"/>
      <use x="340.087891" xlink:href="#DejaVuSans-61"/>
     </g>
    </g>
    <g id="line2d_38">
     <path d="M 320.504375 82.510938 
L 340.504375 82.510938 
" style="fill:none;stroke:#9467bd;stroke-linecap:square;stroke-width:1.5;"/>
    </g>
    <g id="line2d_39"/>
    <g id="text_22">
     <!-- highBeta -->
     <g transform="translate(348.504375 86.010938)scale(0.1 -0.1)">
      <use xlink:href="#DejaVuSans-68"/>
      <use x="63.378906" xlink:href="#DejaVuSans-69"/>
      <use x="91.162109" xlink:href="#DejaVuSans-67"/>
      <use x="154.638672" xlink:href="#DejaVuSans-68"/>
      <use x="218.017578" xlink:href="#DejaVuSans-42"/>
      <use x="286.621094" xlink:href="#DejaVuSans-65"/>
      <use x="348.144531" xlink:href="#DejaVuSans-74"/>
      <use x="387.353516" xlink:href="#DejaVuSans-61"/>
     </g>
    </g>
    <g id="line2d_40">
     <path d="M 320.504375 97.189062 
L 340.504375 97.189062 
" style="fill:none;stroke:#8c564b;stroke-linecap:square;stroke-width:1.5;"/>
    </g>
    <g id="line2d_41"/>
    <g id="text_23">
     <!-- lowGamma -->
     <defs>
      <path d="M 59.515625 10.40625 
L 59.515625 29.984375 
L 43.40625 29.984375 
L 43.40625 38.09375 
L 69.28125 38.09375 
L 69.28125 6.78125 
Q 63.578125 2.734375 56.6875 0.65625 
Q 49.8125 -1.421875 42 -1.421875 
Q 24.90625 -1.421875 15.25 8.5625 
Q 5.609375 18.5625 5.609375 36.375 
Q 5.609375 54.25 15.25 64.234375 
Q 24.90625 74.21875 42 74.21875 
Q 49.125 74.21875 55.546875 72.453125 
Q 61.96875 70.703125 67.390625 67.28125 
L 67.390625 56.78125 
Q 61.921875 61.421875 55.765625 63.765625 
Q 49.609375 66.109375 42.828125 66.109375 
Q 29.4375 66.109375 22.71875 58.640625 
Q 16.015625 51.171875 16.015625 36.375 
Q 16.015625 21.625 22.71875 14.15625 
Q 29.4375 6.6875 42.828125 6.6875 
Q 48.046875 6.6875 52.140625 7.59375 
Q 56.25 8.5 59.515625 10.40625 
" id="DejaVuSans-47"/>
      <path d="M 52 44.1875 
Q 55.375 50.25 60.0625 53.125 
Q 64.75 56 71.09375 56 
Q 79.640625 56 84.28125 50.015625 
Q 88.921875 44.046875 88.921875 33.015625 
L 88.921875 0 
L 79.890625 0 
L 79.890625 32.71875 
Q 79.890625 40.578125 77.09375 44.375 
Q 74.3125 48.1875 68.609375 48.1875 
Q 61.625 48.1875 57.5625 43.546875 
Q 53.515625 38.921875 53.515625 30.90625 
L 53.515625 0 
L 44.484375 0 
L 44.484375 32.71875 
Q 44.484375 40.625 41.703125 44.40625 
Q 38.921875 48.1875 33.109375 48.1875 
Q 26.21875 48.1875 22.15625 43.53125 
Q 18.109375 38.875 18.109375 30.90625 
L 18.109375 0 
L 9.078125 0 
L 9.078125 54.6875 
L 18.109375 54.6875 
L 18.109375 46.1875 
Q 21.1875 51.21875 25.484375 53.609375 
Q 29.78125 56 35.6875 56 
Q 41.65625 56 45.828125 52.96875 
Q 50 49.953125 52 44.1875 
" id="DejaVuSans-6d"/>
     </defs>
     <g transform="translate(348.504375 100.689062)scale(0.1 -0.1)">
      <use xlink:href="#DejaVuSans-6c"/>
      <use x="27.783203" xlink:href="#DejaVuSans-6f"/>
      <use x="88.964844" xlink:href="#DejaVuSans-77"/>
      <use x="170.751953" xlink:href="#DejaVuSans-47"/>
      <use x="248.242188" xlink:href="#DejaVuSans-61"/>
      <use x="309.521484" xlink:href="#DejaVuSans-6d"/>
      <use x="406.933594" xlink:href="#DejaVuSans-6d"/>
      <use x="504.345703" xlink:href="#DejaVuSans-61"/>
     </g>
    </g>
    <g id="line2d_42">
     <path d="M 320.504375 111.867188 
L 340.504375 111.867188 
" style="fill:none;stroke:#e377c2;stroke-linecap:square;stroke-width:1.5;"/>
    </g>
    <g id="line2d_43"/>
    <g id="text_24">
     <!-- midGamma -->
     <g transform="translate(348.504375 115.367188)scale(0.1 -0.1)">
      <use xlink:href="#DejaVuSans-6d"/>
      <use x="97.412109" xlink:href="#DejaVuSans-69"/>
      <use x="125.195312" xlink:href="#DejaVuSans-64"/>
      <use x="188.671875" xlink:href="#DejaVuSans-47"/>
      <use x="266.162109" xlink:href="#DejaVuSans-61"/>
      <use x="327.441406" xlink:href="#DejaVuSans-6d"/>
      <use x="424.853516" xlink:href="#DejaVuSans-6d"/>
      <use x="522.265625" xlink:href="#DejaVuSans-61"/>
     </g>
    </g>
    <g id="line2d_44">
     <path d="M 320.504375 126.545312 
L 340.504375 126.545312 
" style="fill:none;stroke:#7f7f7f;stroke-linecap:square;stroke-width:1.5;"/>
    </g>
    <g id="line2d_45"/>
    <g id="text_25">
     <!-- attention -->
     <defs>
      <path d="M 54.890625 33.015625 
L 54.890625 0 
L 45.90625 0 
L 45.90625 32.71875 
Q 45.90625 40.484375 42.875 44.328125 
Q 39.84375 48.1875 33.796875 48.1875 
Q 26.515625 48.1875 22.3125 43.546875 
Q 18.109375 38.921875 18.109375 30.90625 
L 18.109375 0 
L 9.078125 0 
L 9.078125 54.6875 
L 18.109375 54.6875 
L 18.109375 46.1875 
Q 21.34375 51.125 25.703125 53.5625 
Q 30.078125 56 35.796875 56 
Q 45.21875 56 50.046875 50.171875 
Q 54.890625 44.34375 54.890625 33.015625 
" id="DejaVuSans-6e"/>
     </defs>
     <g transform="translate(348.504375 130.045312)scale(0.1 -0.1)">
      <use xlink:href="#DejaVuSans-61"/>
      <use x="61.279297" xlink:href="#DejaVuSans-74"/>
      <use x="100.488281" xlink:href="#DejaVuSans-74"/>
      <use x="139.697266" xlink:href="#DejaVuSans-65"/>
      <use x="201.220703" xlink:href="#DejaVuSans-6e"/>
      <use x="264.599609" xlink:href="#DejaVuSans-74"/>
      <use x="303.808594" xlink:href="#DejaVuSans-69"/>
      <use x="331.591797" xlink:href="#DejaVuSans-6f"/>
      <use x="392.773438" xlink:href="#DejaVuSans-6e"/>
     </g>
    </g>
    <g id="line2d_46">
     <path d="M 320.504375 141.223437 
L 340.504375 141.223437 
" style="fill:none;stroke:#bcbd22;stroke-linecap:square;stroke-width:1.5;"/>
    </g>
    <g id="line2d_47"/>
    <g id="text_26">
     <!-- meditation -->
     <g transform="translate(348.504375 144.723437)scale(0.1 -0.1)">
      <use xlink:href="#DejaVuSans-6d"/>
      <use x="97.412109" xlink:href="#DejaVuSans-65"/>
      <use x="158.935547" xlink:href="#DejaVuSans-64"/>
      <use x="222.412109" xlink:href="#DejaVuSans-69"/>
      <use x="250.195312" xlink:href="#DejaVuSans-74"/>
      <use x="289.404297" xlink:href="#DejaVuSans-61"/>
      <use x="350.683594" xlink:href="#DejaVuSans-74"/>
      <use x="389.892578" xlink:href="#DejaVuSans-69"/>
      <use x="417.675781" xlink:href="#DejaVuSans-6f"/>
      <use x="478.857422" xlink:href="#DejaVuSans-6e"/>
     </g>
    </g>
    <g id="line2d_48">
     <path d="M 320.504375 155.901562 
L 340.504375 155.901562 
" style="fill:none;stroke:#17becf;stroke-linecap:square;stroke-width:1.5;"/>
    </g>
    <g id="line2d_49"/>
    <g id="text_27">
     <!-- rawValue -->
     <defs>
      <path d="M 41.109375 46.296875 
Q 39.59375 47.171875 37.8125 47.578125 
Q 36.03125 48 33.890625 48 
Q 26.265625 48 22.1875 43.046875 
Q 18.109375 38.09375 18.109375 28.8125 
L 18.109375 0 
L 9.078125 0 
L 9.078125 54.6875 
L 18.109375 54.6875 
L 18.109375 46.1875 
Q 20.953125 51.171875 25.484375 53.578125 
Q 30.03125 56 36.53125 56 
Q 37.453125 56 38.578125 55.875 
Q 39.703125 55.765625 41.0625 55.515625 
z
" id="DejaVuSans-72"/>
      <path d="M 28.609375 0 
L 0.78125 72.90625 
L 11.078125 72.90625 
L 34.1875 11.53125 
L 57.328125 72.90625 
L 67.578125 72.90625 
L 39.796875 0 
z
" id="DejaVuSans-56"/>
      <path d="M 8.5 21.578125 
L 8.5 54.6875 
L 17.484375 54.6875 
L 17.484375 21.921875 
Q 17.484375 14.15625 20.5 10.265625 
Q 23.53125 6.390625 29.59375 6.390625 
Q 36.859375 6.390625 41.078125 11.03125 
Q 45.3125 15.671875 45.3125 23.6875 
L 45.3125 54.6875 
L 54.296875 54.6875 
L 54.296875 0 
L 45.3125 0 
L 45.3125 8.40625 
Q 42.046875 3.421875 37.71875 1 
Q 33.40625 -1.421875 27.6875 -1.421875 
Q 18.265625 -1.421875 13.375 4.4375 
Q 8.5 10.296875 8.5 21.578125 
M 31.109375 56 
z
" id="DejaVuSans-75"/>
     </defs>
     <g transform="translate(348.504375 159.401562)scale(0.1 -0.1)">
      <use xlink:href="#DejaVuSans-72"/>
      <use x="41.113281" xlink:href="#DejaVuSans-61"/>
      <use x="102.392578" xlink:href="#DejaVuSans-77"/>
      <use x="184.179688" xlink:href="#DejaVuSans-56"/>
      <use x="252.478516" xlink:href="#DejaVuSans-61"/>
      <use x="313.757812" xlink:href="#DejaVuSans-6c"/>
      <use x="341.541016" xlink:href="#DejaVuSans-75"/>
      <use x="404.919922" xlink:href="#DejaVuSans-65"/>
     </g>
    </g>
   </g>
  </g>
 </g>
 <defs>
  <clipPath id="pdc4a9a161d">
   <rect height="266.112" width="357.12" x="58.7375" y="10.7"/>
  </clipPath>
 </defs>
</svg>
